<?xml version="1.0" encoding="UTF-8" standalone="no"?>
<svg
   xmlns:dc="http://purl.org/dc/elements/1.1/"
   xmlns:cc="http://creativecommons.org/ns#"
   xmlns:rdf="http://www.w3.org/1999/02/22-rdf-syntax-ns#"
   xmlns:svg="http://www.w3.org/2000/svg"
   xmlns="http://www.w3.org/2000/svg"
   xmlns:sodipodi="http://sodipodi.sourceforge.net/DTD/sodipodi-0.dtd"
   xmlns:inkscape="http://www.inkscape.org/namespaces/inkscape"
   height="441.73151pt"
   viewBox="0 -61 822.72231 441.73151"
   width="822.72229pt"
   version="1.1"
   id="svg24"
   sodipodi:docname="logo.svg"
   inkscape:version="0.92.3 (2405546, 2018-03-11)">
  <metadata
     id="metadata30">
    <rdf:RDF>
      <cc:Work
         rdf:about="">
        <dc:format>image/svg+xml</dc:format>
        <dc:type
           rdf:resource="http://purl.org/dc/dcmitype/StillImage" />
        <dc:title></dc:title>
      </cc:Work>
    </rdf:RDF>
  </metadata>
  <defs
     id="defs28">
    <inkscape:path-effect
       effect="powerstroke"
       id="path-effect878"
       is_visible="true"
       offset_points="0,0.375"
       sort_points="true"
       interpolator_type="CubicBezierJohan"
       interpolator_beta="0.2"
       start_linecap_type="zerowidth"
       linejoin_type="extrp_arc"
       miter_limit="4"
       end_linecap_type="zerowidth" />
    <inkscape:path-effect
       effect="spiro"
       id="path-effect876"
       is_visible="true" />
    <inkscape:path-effect
       effect="powerstroke"
       id="path-effect872"
       is_visible="true"
       offset_points="0,0.375"
       sort_points="true"
       interpolator_type="CubicBezierJohan"
       interpolator_beta="0.2"
       start_linecap_type="zerowidth"
       linejoin_type="extrp_arc"
       miter_limit="4"
       end_linecap_type="zerowidth" />
  </defs>
  <sodipodi:namedview
     pagecolor="#ffffff"
     bordercolor="#666666"
     borderopacity="1"
     objecttolerance="10"
     gridtolerance="10"
     guidetolerance="10"
     inkscape:pageopacity="0"
     inkscape:pageshadow="2"
     inkscape:window-width="1669"
     inkscape:window-height="1016"
     id="namedview26"
     showgrid="false"
     fit-margin-top="0"
     fit-margin-left="0"
     fit-margin-right="0"
     fit-margin-bottom="0"
     inkscape:zoom="0.34570313"
     inkscape:cx="-168.04946"
     inkscape:cy="328.91898"
     inkscape:window-x="0"
     inkscape:window-y="20"
     inkscape:window-maximized="0"
     inkscape:current-layer="g851" />
  <g
     id="g851"
     transform="rotate(-14.512428,11.639292,203.8182)">
    <path
       id="path2"
       d="m 355.89844,382.69531 c -13.39844,0 -24.26172,-10.85937 -24.26172,-24.25781 v -22.92188 l 48.51953,-32.69921 v 55.62109 c 0,13.39844 -10.85938,24.25781 -24.25781,24.25781 z m 0,0"
       inkscape:connector-curvature="0"
       style="fill:#afacb3" />
    <path
       id="path4"
       d="m 149.99609,382.69531 c -13.39843,0 -24.25781,-10.85937 -24.25781,-24.25781 v -22.92188 l 48.51953,-33.375 v 56.29688 c 0,13.39844 -10.86328,24.25781 -24.26172,24.25781 z m 0,0"
       inkscape:connector-curvature="0"
       style="fill:#afacb3" />
    <path
       id="path6"
       d="m 435.52734,149.78125 -3.4375,11.51562 -50.21875,168.45704 -1.71093,5.75781 h -48.52344 v 22.92578 c 0,3.83984 -0.89453,7.48047 -2.4961,10.70312 -1.17578,2.40625 -2.74609,4.58594 -4.61328,6.44922 -4.39062,4.39063 -10.45312,7.10938 -17.14453,7.10938 -13.40234,0 -24.26172,-10.8711 -24.26172,-24.26172 V 335.51172 H 125.73828 v 22.92578 c 0,2.02734 -0.2539,4.00391 -0.71875,5.89062 -2.63672,10.55079 -12.17969,18.3711 -23.54297,18.3711 -13.394529,0 -24.253904,-10.8711 -24.253904,-24.26172 V 335.51172 H 30.808594 L 42.386719,281.84766 H 7.601562 c 0,-29.53516 36.003907,-69.6211 36.003907,-69.6211 H 7.601562 c 0,-40.07812 52.882813,-73.78125 52.882813,-73.78125 L 26.589844,129.96094 C 45.507812,89.808594 104.83984,72.9375 104.83984,72.9375 L 68.777344,60.347656 C 83.550781,22.367188 169.07031,40.394531 169.07031,40.394531 L 142.61719,13.929688 c 37.97265,-20.507813 90.70312,20.511718 90.70312,20.511718 V 7.605469 c 56.95703,0 83.26953,40.351562 83.26953,40.351562 V 17.164062 c 47.39844,9.550782 67.50391,67.503907 67.50391,67.503907 l 22.21484,-22.210938 c 27.42188,27.414063 29.21875,87.324219 29.21875,87.324219 z m 0,0"
       inkscape:connector-curvature="0"
       style="fill:#7c4242" />
    <path
       id="path8"
       d="M 432.48437,167.39062 384.08203,329.75391 H 78.671875 l 10.121094,-46.92188 h -30.40625 c 0,-25.8125 31.46875,-60.85547 31.46875,-60.85547 h -31.46875 c 0,-35.03906 46.222661,-64.5 46.222661,-64.5 L 74.984375,150.05469 C 91.53125,114.95313 143.39063,100.20313 143.39063,100.20313 L 111.86719,89.191406 c 12.90625,-33.195312 87.67969,-17.4375 87.67969,-17.4375 L 176.42188,48.625 c 33.19531,-17.933594 79.29296,17.925781 79.29296,17.925781 V 43.089844 c 49.79297,0 72.78907,35.273437 72.78907,35.273437 V 51.445312 c 41.43359,8.355469 59.01562,59.015628 59.01562,59.015628 l 19.41406,-19.425784 c 18.98047,18.980474 23.91797,55.753904 25.15625,70.261724 0.32422,3.82421 0.39453,6.09375 0.39453,6.09374 z m 0,0"
       inkscape:connector-curvature="0"
       style="fill:#936a60" />
    <path
       id="path10"
       d="m 504.39453,218.65234 c -38.03125,0 -68.86328,-30.83203 -68.86328,-68.86718 l -59.54688,0.92187 c -23.38671,0.26172 -43.99218,9.19922 -59.39843,23.73047 -5.15235,-3.44531 -11.34375,-5.45313 -18.00391,-5.45313 -17.91797,0 -32.44531,14.52344 -32.44531,32.44141 0,14.33984 9.30859,26.5 22.20703,30.78516 -0.39063,3.57422 -0.59375,7.21093 -0.59375,10.89843 0,51.03516 41.37109,92.40625 92.40625,92.40625 h 7.375 c 64.54297,0 116.86328,-52.32031 116.86328,-116.86328 z m 0,0"
       inkscape:connector-curvature="0"
       style="fill:#e6e6e6" />
    <path
       id="path12"
       d="m 393.95703,289.21484 -13.79687,46.29688 h -48.52344 v 22.92187 c 0,6.69141 -2.71875,12.76563 -7.10938,17.15625 -4.39062,4.38672 -10.45312,7.10547 -17.14453,7.10547 -13.40234,0 -24.26172,-10.86719 -24.26172,-24.26172 V 335.51172 H 125.73828 v 22.92187 c 0,13.39453 -10.85937,24.26172 -24.26172,24.26172 -13.394529,0 -24.253904,-10.86719 -24.253904,-24.26172 V 335.51172 C 87.019531,243.84375 300.0625,289.21484 300.0625,289.21484 Z m 0,0"
       inkscape:connector-curvature="0"
       style="fill:#c4becc" />
    <path
       id="path14"
       d="m 501.9375,242.64453 c -1.28906,6.15625 -3.05078,12.13672 -5.26172,17.89453 h -0.0117 c -16.83984,43.85156 -59.35156,74.97656 -109.13281,74.97656 h -7.37109 c -25.51954,0 -48.625,-10.33984 -65.34375,-27.05859 -16.71875,-16.73047 -27.0586,-39.82812 -27.0586,-65.34375 v -0.15234 c 0.0391,12.99609 10.3711,24.76562 27.0586,33.28515 16.71875,8.53516 39.82421,13.81641 65.34375,13.81641 h 7.37109 c 49.78125,0 92.29297,-15.88672 109.13281,-38.28125 h 0.0117 c 2.21094,-2.94141 3.97266,-5.99219 5.26172,-9.13672 z m 0,0"
       inkscape:connector-curvature="0"
       style="fill:#c4becc" />
    <path
       id="path16"
       d="m 504.39844,218.65234 c 0,14.76172 -2.73828,28.88672 -7.72657,41.88282 h -0.008 c -19.83203,-3.64063 -34.84765,-21.00782 -34.84765,-41.88282 0,-4.59375 0.73047,-9.01171 2.07812,-13.16015 11.36719,8.28515 25.36719,13.16015 40.50391,13.16015 z m 0,0"
       inkscape:connector-curvature="0"
       style="fill:#4f5263" />
    <path
       id="path18"
       d="m 405.03906,237.92578 c 0,7.28125 -5.90234,13.18359 -13.17969,13.18359 -7.28125,0 -13.17968,-5.90234 -13.17968,-13.18359 0,-7.27734 5.89843,-13.17969 13.17968,-13.17969 7.27735,0 13.17969,5.90235 13.17969,13.17969 z m 0,0"
       inkscape:connector-curvature="0"
       style="fill:#4f5263" />
    <path
       id="path20"
       d="m 512,218.65234 c 0,-4.19922 -3.40234,-7.60547 -7.60547,-7.60547 -33.77734,0 -61.26172,-27.48046 -61.26172,-61.26171 0,-0.0352 -0.004,-0.0742 -0.004,-0.10938 0,-0.0391 0.004,-0.0781 0,-0.12109 -0.0781,-2.56641 -2.22657,-63.261721 -31.44532,-92.480471 -2.97265,-2.96875 -7.78515,-2.96875 -10.7539,0 l -14.26172,14.261719 c -3.23438,-6.769532 -8.23828,-15.917969 -15.19531,-25.15625 -2.52735,-3.355469 -7.29688,-4.023438 -10.65235,-1.496094 -3.35156,2.527344 -4.02344,7.292968 -1.49609,10.648437 11.90234,15.792969 17.52734,31.675781 17.58203,31.828125 0.85937,2.472656 2.92969,4.332032 5.48047,4.917969 2.55859,0.585937 5.22656,-0.183594 7.07812,-2.035156 l 16.44532,-16.441407 c 15.40625,20.507813 20.10546,53.753908 21.48046,68.703128 l -51.49218,0.79687 c -22.33985,0.25 -43.54688,8.04297 -60.31641,22.0586 -5.28906,-2.48438 -11.07031,-3.78125 -17,-3.78125 -22.08203,0 -40.04687,17.96484 -40.04687,40.04687 0,15.21875 8.54296,28.87891 21.78125,35.64453 -0.11328,2.01953 -0.17188,4.03516 -0.17188,6.03906 0,12.63672 2.36328,24.73438 6.66016,35.875 -28.96875,-5.00781 -94.39063,-14.03125 -145.75781,-4.30078 -4.125,0.78125 -6.83594,4.75782 -6.0586,8.88672 0.78516,4.125 4.76953,6.83594 8.88672,6.05469 56.83984,-10.76953 134.94531,3.19531 151.45703,6.40234 8.31641,13.28125 19.65625,24.48438 33.05469,32.6211 -2.57031,1.22265 -4.35156,3.83203 -4.35156,6.86719 v 22.92187 c 0,9.18359 -7.47266,16.65234 -16.65625,16.65234 -9.1875,0 -16.65625,-7.46875 -16.65625,-16.65234 v -22.92187 c 0,-4.19922 -3.40235,-7.60547 -7.60547,-7.60547 H 125.73828 c -4.19922,0 -7.60547,3.40625 -7.60547,7.60547 v 22.92187 c 0,9.18359 -7.46875,16.65234 -16.65234,16.65234 -9.187501,0 -16.656251,-7.46875 -16.656251,-16.65234 v -22.45703 c 2.042969,-17.97266 13.230469,-30.83984 34.199221,-39.32031 3.89062,-1.57422 5.76953,-6.00782 4.19531,-9.90235 -1.57031,-3.89062 -6.00391,-5.77343 -9.89844,-4.19531 C 89.472656,292.20703 75.1875,307.44531 70.75,327.91016 H 40.226562 l 9.59375,-44.46485 c 0.484376,-2.24609 -0.07422,-4.58984 -1.515624,-6.3789 -1.445313,-1.78516 -3.621094,-2.82813 -5.917969,-2.82813 H 16.066406 c 4.417969,-21.0664 24.777344,-47.54297 33.191406,-56.92969 2.007813,-2.23046 2.511719,-5.43359 1.289063,-8.17578 -1.222656,-2.74218 -3.945313,-4.50781 -6.945313,-4.50781 H 15.9375 c 6.082031,-32.20312 48.175781,-59.47266 48.628906,-59.76172 2.5625,-1.63281 3.90625,-4.63281 3.417969,-7.63281 C 67.5,134.23438 65.273438,131.8125 62.328125,131.07422 L 38.15625,125.01563 c 20.871094,-30.753911 68.25,-44.617192 68.76172,-44.761724 3.19141,-0.910156 5.42578,-3.777344 5.52344,-7.089844 0.0937,-3.316406 -1.96485,-6.3125 -5.09375,-7.40625 l -27.113285,-9.46875 c 9.40625,-9.878906 28.441405,-12.371093 44.085935,-12.554687 22.17188,-0.253906 42.98047,4.054687 43.1875,4.097656 3.28907,0.695313 6.64844,-0.859375 8.25391,-3.816406 1.60156,-2.957031 1.07031,-6.621094 -1.30859,-9 L 156.3125,16.878906 c 32.11328,-7.210937 71.90625,23.230469 72.34375,23.566406 2.29297,1.785157 5.40234,2.105469 8.00781,0.828126 2.60938,-1.273438 4.26563,-3.925782 4.26563,-6.832032 V 15.464844 c 46.63672,3.210937 68.35156,35.230468 69.28515,36.644531 1.83985,2.820313 5.3125,4.09375 8.53516,3.136719 3.22656,-0.960938 5.4375,-3.921875 5.4375,-7.289063 V 27.234375 c 6.33594,2.382813 12.4375,5.886719 18.21875,10.46875 3.29297,2.609375 8.07422,2.054687 10.68359,-1.238281 2.60547,-3.289063 2.05469,-8.074219 -1.23828,-10.683594 -10.40625,-8.246094 -21.76562,-13.652344 -33.76562,-16.074219 -2.23047,-0.449219 -4.55078,0.125 -6.31641,1.570313 -1.76562,1.445312 -2.78906,3.605468 -2.78906,5.886718 v 11.0625 C 294.96094,15.625 270.14844,0 233.32422,0 229.125,0 225.71875,3.40625 225.71875,7.605469 V 20.128906 C 206.75391,8.539062 169.44531,-9.203125 139,7.242188 c -2.11328,1.140624 -3.5625,3.214843 -3.91016,5.589843 -0.34765,2.378907 0.44922,4.777344 2.14844,6.476563 l 10.28516,10.285156 c -6.9375,-0.671875 -14.89844,-1.152344 -23.13672,-1.070312 -34.238282,0.355468 -55.332032,10.132812 -62.691408,29.0625 -0.75,1.921874 -0.683593,4.066406 0.179688,5.941406 0.863281,1.871094 2.453125,3.3125 4.398438,3.996094 l 16.210937,5.660156 C 62.34375,82.0625 32.699219,99.160156 19.710938,126.71484 c -0.96875,2.0586 -0.964844,4.44141 0.0078,6.4961 0.972656,2.05859 2.816406,3.57031 5.023438,4.12109 l 18.25,4.57422 C 26.285156,155.49609 0,181.73047 0,212.22656 c 0,4.19922 3.402344,7.60547 7.605469,7.60547 h 20.0625 c -2.617188,3.47656 -5.515625,7.52344 -8.421875,11.95703 C 6.476562,251.24609 0,268.08594 0,281.84375 c 0,4.19922 3.402344,7.60156 7.605469,7.60156 H 32.96875 L 23.375,333.91406 c -0.484375,2.2461 0.07422,4.58985 1.519531,6.37891 1.441407,1.78516 3.617188,2.82422 5.914063,2.82422 h 38.804687 v 15.3164 c 0,17.57032 14.296875,31.86329 31.867189,31.86329 9.84375,0 18.66016,-4.48829 24.51172,-11.53125 5.85156,7.04296 14.66406,11.53125 24.51172,11.53125 17.57031,0 31.86718,-14.29297 31.86718,-31.86329 v -15.3164 h 93.14453 v 15.3164 c 0,17.57032 14.29688,31.86329 31.86329,31.86329 9.84765,0 18.66406,-4.48829 24.51562,-11.53125 5.84766,7.04296 14.66406,11.53125 24.51172,11.53125 17.57031,0 31.86328,-14.29297 31.86328,-31.86329 V 343.10938 C 456.5625,342.71094 512,287.03906 512,218.65234 Z M 167.16016,358.4375 c 0,9.18359 -7.47266,16.65234 -16.65625,16.65234 -9.1836,0 -16.65625,-7.46875 -16.65625,-16.65234 v -15.31641 h 33.3125 z M 491.80859,251.30078 c -13.28125,-5.09766 -22.38672,-17.94922 -22.38672,-32.64844 0,-0.29297 0.0234,-0.58203 0.0312,-0.875 8.27735,4.26953 17.42188,7.08985 27.10547,8.07813 -0.57812,8.80469 -2.20312,17.32812 -4.75,25.44531 z M 373.0625,358.4375 c 0,9.18359 -7.47266,16.65234 -16.65625,16.65234 -9.1875,0 -16.65625,-7.46875 -16.65625,-16.65234 v -15.31641 h 33.30859 v 15.31641 z m 14.46875,-30.52734 h -7.37109 c -46.76172,0 -84.80469,-38.03907 -84.80469,-84.80078 0,-3.33594 0.18359,-6.72657 0.54687,-10.07422 0.39063,-3.5586 -1.76172,-6.90625 -5.16015,-8.03907 -10.16797,-3.3789 -17,-12.85156 -17,-23.57031 0,-13.69531 11.14062,-24.83984 24.83984,-24.83984 4.92969,0 9.69531,1.44531 13.77734,4.17187 2.94922,1.96875 6.86719,1.64063 9.44141,-0.78906 14.77734,-13.9375 33.54297,-21.42578 54.30078,-21.66016 L 428.3125,157.5 c 2.04688,20.35156 12.10938,38.36719 26.97266,50.84766 -0.70703,3.3789 -1.07032,6.82422 -1.07032,10.30468 0,21.04688 13.02344,39.45703 32.03516,46.80469 -17.5625,36.89453 -55.21094,62.45313 -98.71875,62.45313 z m 0,0"
       inkscape:connector-curvature="0" />
    <path
       id="path22"
       d="m 391.85937,217.14453 c -11.46093,0 -20.78515,9.32422 -20.78515,20.78125 0,11.46094 9.32422,20.78516 20.78515,20.78516 11.46094,0 20.78516,-9.32422 20.78516,-20.78516 0,-11.45703 -9.32422,-20.78125 -20.78516,-20.78125 z m 0,26.35938 c -3.07421,0 -5.57812,-2.5 -5.57812,-5.57813 0,-3.07422 2.50391,-5.57422 5.57812,-5.57422 3.07422,0 5.57422,2.5 5.57422,5.57422 0,3.07813 -2.5,5.57813 -5.57422,5.57813 z m 0,0"
       inkscape:connector-curvature="0" />
    <path
       style="fill:#000000;fill-rule:nonzero;stroke:#000000;stroke-width:18.07499886;stroke-linecap:butt;stroke-linejoin:miter;stroke-miterlimit:4;stroke-dasharray:none;stroke-opacity:1"
       d="m 58.161196,388.0531 c 0,0 -0.05969,0.37022 -0.05969,0.37022 61.692564,9.94659 158.468794,20.02562 275.741214,8.49849 50.11096,-4.94701 104.00731,-13.94904 154.28859,-16.23502 64.12545,-2.88468 123.41996,4.60105 175.01944,17.19948 51.4086,12.55183 92.85214,29.58229 122.81904,44.09972 C 756.00328,427.46875 714.56978,410.41596 663.16593,397.8242 611.57167,385.18579 552.27215,377.64304 488.12149,380.46617 437.818,382.65584 383.887,391.54729 333.79124,396.39517 216.55674,407.79035 119.877,397.6236 58.220886,387.68288 c 0,0 -0.05969,0.37022 -0.05969,0.37022 z"
       id="path874"
       inkscape:connector-curvature="0"
       inkscape:path-effect="#path-effect876;#path-effect878"
       inkscape:original-d="m 58.161196,388.0531 c 92.405044,3.74923 183.771434,5.73639 275.655784,8.60539 91.88435,2.869 102.87387,-10.72188 154.30942,-16.08201 51.43557,-5.36013 198.56319,40.93914 297.84339,61.40951" />
  </g>
</svg>
