<?xml version="1.0" encoding="utf-8" standalone="no"?>
<!DOCTYPE svg PUBLIC "-//W3C//DTD SVG 1.1//EN"
  "http://www.w3.org/Graphics/SVG/1.1/DTD/svg11.dtd">
<svg xmlns:xlink="http://www.w3.org/1999/xlink" width="402.829375pt" height="311.432312pt" viewBox="0 0 402.829375 311.432312" xmlns="http://www.w3.org/2000/svg" version="1.1">
 <metadata>
  <rdf:RDF xmlns:dc="http://purl.org/dc/elements/1.1/" xmlns:cc="http://creativecommons.org/ns#" xmlns:rdf="http://www.w3.org/1999/02/22-rdf-syntax-ns#">
   <cc:Work>
    <dc:type rdf:resource="http://purl.org/dc/dcmitype/StillImage"/>
    <dc:date>2022-09-09T02:57:24.362471</dc:date>
    <dc:format>image/svg+xml</dc:format>
    <dc:creator>
     <cc:Agent>
      <dc:title>Matplotlib v3.5.1, https://matplotlib.org/</dc:title>
     </cc:Agent>
    </dc:creator>
   </cc:Work>
  </rdf:RDF>
 </metadata>
 <defs>
  <style type="text/css">*{stroke-linejoin: round; stroke-linecap: butt}</style>
 </defs>
 <g id="figure_1">
  <g id="patch_1">
   <path d="M 0 311.432312 
L 402.829375 311.432312 
L 402.829375 0 
L 0 0 
z
" style="fill: #ffffff"/>
  </g>
  <g id="axes_1">
   <g id="patch_2">
    <path d="M 36.759375 276.882312 
L 393.879375 276.882312 
L 393.879375 10.770312 
L 36.759375 10.770312 
z
" style="fill: #ffffff"/>
   </g>
   <g id="PolyCollection_1">
    <defs>
     <path id="m8cd878b2b3" d="M 52.992102 -35.595776 
L 52.992102 -34.544678 
L 58.06483 -34.544678 
L 63.137557 -34.544678 
L 68.210284 -34.544678 
L 73.283011 -34.544678 
L 78.355739 -34.544678 
L 83.428466 -34.544678 
L 88.501193 -34.544678 
L 93.57392 -34.544678 
L 98.646648 -34.544678 
L 103.719375 -34.544678 
L 108.792102 -34.544678 
L 113.86483 -34.544678 
L 118.937557 -34.544678 
L 124.010284 -34.544678 
L 129.083011 -34.544678 
L 134.155739 -34.544678 
L 139.228466 -34.544678 
L 144.301193 -34.544678 
L 149.37392 -40.470354 
L 154.446648 -55.214465 
L 159.519375 -78.440108 
L 164.592102 -108.999555 
L 169.66483 -142.120086 
L 174.737557 -171.700928 
L 179.810284 -192.604952 
L 184.883011 -204.129102 
L 189.955739 -206.467437 
L 195.028466 -188.494445 
L 200.101193 -153.699109 
L 205.17392 -124.557222 
L 210.246648 -105.280433 
L 215.319375 -88.550065 
L 220.392102 -71.436765 
L 225.46483 -56.224692 
L 230.537557 -43.963207 
L 235.610284 -38.595327 
L 240.683011 -35.644178 
L 245.755739 -34.544678 
L 250.828466 -34.544678 
L 255.901193 -34.544678 
L 260.97392 -34.544678 
L 266.046648 -34.544678 
L 271.119375 -34.544678 
L 276.192102 -34.544678 
L 281.26483 -34.544678 
L 286.337557 -34.544678 
L 291.410284 -34.544678 
L 296.483011 -34.544678 
L 301.555739 -34.544678 
L 306.628466 -34.544678 
L 311.701193 -34.544678 
L 316.77392 -34.544678 
L 321.846648 -34.544678 
L 326.919375 -34.544678 
L 331.992102 -34.544678 
L 337.06483 -34.544678 
L 342.137557 -34.544678 
L 347.210284 -34.544678 
L 352.283011 -34.544678 
L 357.355739 -34.544678 
L 362.428466 -34.544678 
L 367.501193 -34.544678 
L 372.57392 -34.544678 
L 377.646648 -34.544678 
L 377.646648 -35.927616 
L 377.646648 -35.927616 
L 372.57392 -35.613883 
L 367.501193 -35.465315 
L 362.428466 -34.838783 
L 357.355739 -35.121541 
L 352.283011 -35.729914 
L 347.210284 -35.586738 
L 342.137557 -35.334305 
L 337.06483 -35.134676 
L 331.992102 -35.501114 
L 326.919375 -35.605647 
L 321.846648 -35.618503 
L 316.77392 -35.410235 
L 311.701193 -35.347675 
L 306.628466 -35.602367 
L 301.555739 -35.935528 
L 296.483011 -35.66144 
L 291.410284 -35.878388 
L 286.337557 -36.008559 
L 281.26483 -35.899431 
L 276.192102 -36.446369 
L 271.119375 -36.672173 
L 266.046648 -36.746763 
L 260.97392 -37.675065 
L 255.901193 -39.45154 
L 250.828466 -41.563068 
L 245.755739 -42.83119 
L 240.683011 -46.343512 
L 235.610284 -51.003392 
L 230.537557 -59.950526 
L 225.46483 -74.37653 
L 220.392102 -96.19266 
L 215.319375 -120.814262 
L 210.246648 -147.095966 
L 205.17392 -179.197734 
L 200.101193 -209.285483 
L 195.028466 -230.926215 
L 189.955739 -245.893065 
L 184.883011 -250.448163 
L 179.810284 -233.771432 
L 174.737557 -208.119724 
L 169.66483 -173.395111 
L 164.592102 -137.421543 
L 159.519375 -107.273758 
L 154.446648 -80.3983 
L 149.37392 -62.012615 
L 144.301193 -48.031803 
L 139.228466 -40.096121 
L 134.155739 -37.503365 
L 129.083011 -37.231485 
L 124.010284 -37.536503 
L 118.937557 -37.986043 
L 113.86483 -37.896775 
L 108.792102 -37.51819 
L 103.719375 -37.52998 
L 98.646648 -36.633984 
L 93.57392 -35.330004 
L 88.501193 -35.829613 
L 83.428466 -36.040236 
L 78.355739 -35.699144 
L 73.283011 -35.951991 
L 68.210284 -36.130419 
L 63.137557 -35.896953 
L 58.06483 -35.359556 
L 52.992102 -35.595776 
z
" style="stroke: #ff0000; stroke-opacity: 0.1"/>
    </defs>
    <g clip-path="url(#pbac97460aa)">
     <use xlink:href="#m8cd878b2b3" x="0" y="311.432312" style="fill: #ff0000; fill-opacity: 0.1; stroke: #ff0000; stroke-opacity: 0.1"/>
    </g>
   </g>
   <g id="matplotlib.axis_1">
    <g id="xtick_1">
     <g id="line2d_1">
      <defs>
       <path id="ma51bc43cd4" d="M 0 1.75 
L 0 -1.75 
" style="stroke: #000000; stroke-width: 0.8"/>
      </defs>
      <g>
       <use xlink:href="#ma51bc43cd4" x="78.622724" y="276.882312" style="stroke: #000000; stroke-width: 0.8"/>
      </g>
     </g>
     <g id="line2d_2">
      <g>
       <use xlink:href="#ma51bc43cd4" x="78.622724" y="10.770312" style="stroke: #000000; stroke-width: 0.8"/>
      </g>
     </g>
     <g id="text_1">
      <!-- 0.025 -->
      <g transform="translate(66.114131 289.272937)scale(0.1 -0.1)">
       <defs>
        <path id="HelveticaNeue-Medium-30" d="M 1779 518 
C 1139 518 960 1306 960 2240 
C 960 3174 1139 3962 1779 3962 
C 2419 3962 2598 3174 2598 2240 
C 2598 1306 2419 518 1779 518 
z
M 1779 4570 
C 493 4570 230 3258 230 2240 
C 230 1222 493 -90 1779 -90 
C 3066 -90 3328 1222 3328 2240 
C 3328 3258 3066 4570 1779 4570 
z
" transform="scale(0.015625)"/>
        <path id="HelveticaNeue-Medium-2e" d="M 442 0 
L 1331 0 
L 1331 864 
L 442 864 
L 442 0 
z
" transform="scale(0.015625)"/>
        <path id="HelveticaNeue-Medium-32" d="M 3309 653 
L 1126 653 
C 1254 1050 1798 1325 2317 1683 
C 2829 2042 3315 2483 3315 3194 
C 3315 3770 2970 4570 1875 4570 
C 877 4570 333 3834 333 2842 
L 1062 2842 
C 1082 3469 1254 3962 1830 3962 
C 2458 3962 2592 3488 2586 3168 
C 2573 2470 1818 2118 1235 1696 
C 634 1293 256 736 250 0 
L 3309 0 
L 3309 653 
z
" transform="scale(0.015625)"/>
        <path id="HelveticaNeue-Medium-35" d="M 307 2029 
L 1037 2029 
C 1152 2342 1453 2438 1760 2438 
C 2349 2438 2611 1997 2611 1504 
C 2611 960 2400 518 1779 518 
C 1306 518 998 794 954 1274 
L 224 1274 
C 256 378 928 -90 1792 -90 
C 2893 -90 3341 800 3341 1517 
C 3341 2374 2829 3014 1939 3014 
C 1638 3014 1312 2893 1114 2675 
L 1101 2688 
L 1331 3827 
L 3104 3827 
L 3104 4480 
L 787 4480 
L 307 2029 
z
" transform="scale(0.015625)"/>
       </defs>
       <use xlink:href="#HelveticaNeue-Medium-30"/>
       <use xlink:href="#HelveticaNeue-Medium-2e" x="55.599991"/>
       <use xlink:href="#HelveticaNeue-Medium-30" x="83.399979"/>
       <use xlink:href="#HelveticaNeue-Medium-32" x="138.999969"/>
       <use xlink:href="#HelveticaNeue-Medium-35" x="194.59996"/>
      </g>
     </g>
    </g>
    <g id="xtick_2">
     <g id="line2d_3">
      <g>
       <use xlink:href="#ma51bc43cd4" x="121.340428" y="276.882312" style="stroke: #000000; stroke-width: 0.8"/>
      </g>
     </g>
     <g id="line2d_4">
      <g>
       <use xlink:href="#ma51bc43cd4" x="121.340428" y="10.770312" style="stroke: #000000; stroke-width: 0.8"/>
      </g>
     </g>
     <g id="text_2">
      <!-- 0.050 -->
      <g transform="translate(108.831834 289.272937)scale(0.1 -0.1)">
       <use xlink:href="#HelveticaNeue-Medium-30"/>
       <use xlink:href="#HelveticaNeue-Medium-2e" x="55.599991"/>
       <use xlink:href="#HelveticaNeue-Medium-30" x="83.399979"/>
       <use xlink:href="#HelveticaNeue-Medium-35" x="138.999969"/>
       <use xlink:href="#HelveticaNeue-Medium-30" x="194.59996"/>
      </g>
     </g>
    </g>
    <g id="xtick_3">
     <g id="line2d_5">
      <g>
       <use xlink:href="#ma51bc43cd4" x="164.058131" y="276.882312" style="stroke: #000000; stroke-width: 0.8"/>
      </g>
     </g>
     <g id="line2d_6">
      <g>
       <use xlink:href="#ma51bc43cd4" x="164.058131" y="10.770312" style="stroke: #000000; stroke-width: 0.8"/>
      </g>
     </g>
     <g id="text_3">
      <!-- 0.075 -->
      <g transform="translate(151.549537 289.272937)scale(0.1 -0.1)">
       <defs>
        <path id="HelveticaNeue-Medium-37" d="M 224 3827 
L 2547 3827 
C 1626 2790 915 1414 819 0 
L 1619 0 
C 1734 1619 2355 2816 3290 3872 
L 3290 4480 
L 224 4480 
L 224 3827 
z
" transform="scale(0.015625)"/>
       </defs>
       <use xlink:href="#HelveticaNeue-Medium-30"/>
       <use xlink:href="#HelveticaNeue-Medium-2e" x="55.599991"/>
       <use xlink:href="#HelveticaNeue-Medium-30" x="83.399979"/>
       <use xlink:href="#HelveticaNeue-Medium-37" x="138.999969"/>
       <use xlink:href="#HelveticaNeue-Medium-35" x="194.59996"/>
      </g>
     </g>
    </g>
    <g id="xtick_4">
     <g id="line2d_7">
      <g>
       <use xlink:href="#ma51bc43cd4" x="206.775834" y="276.882312" style="stroke: #000000; stroke-width: 0.8"/>
      </g>
     </g>
     <g id="line2d_8">
      <g>
       <use xlink:href="#ma51bc43cd4" x="206.775834" y="10.770312" style="stroke: #000000; stroke-width: 0.8"/>
      </g>
     </g>
     <g id="text_4">
      <!-- 0.100 -->
      <g transform="translate(194.267241 289.272937)scale(0.1 -0.1)">
       <defs>
        <path id="HelveticaNeue-Medium-31" d="M 339 3162 
L 1440 3162 
L 1440 0 
L 2240 0 
L 2240 4480 
L 1645 4480 
C 1536 3942 954 3731 339 3738 
L 339 3162 
z
" transform="scale(0.015625)"/>
       </defs>
       <use xlink:href="#HelveticaNeue-Medium-30"/>
       <use xlink:href="#HelveticaNeue-Medium-2e" x="55.599991"/>
       <use xlink:href="#HelveticaNeue-Medium-31" x="83.399979"/>
       <use xlink:href="#HelveticaNeue-Medium-30" x="138.999969"/>
       <use xlink:href="#HelveticaNeue-Medium-30" x="194.59996"/>
      </g>
     </g>
    </g>
    <g id="xtick_5">
     <g id="line2d_9">
      <g>
       <use xlink:href="#ma51bc43cd4" x="249.493538" y="276.882312" style="stroke: #000000; stroke-width: 0.8"/>
      </g>
     </g>
     <g id="line2d_10">
      <g>
       <use xlink:href="#ma51bc43cd4" x="249.493538" y="10.770312" style="stroke: #000000; stroke-width: 0.8"/>
      </g>
     </g>
     <g id="text_5">
      <!-- 0.125 -->
      <g transform="translate(236.984944 289.272937)scale(0.1 -0.1)">
       <use xlink:href="#HelveticaNeue-Medium-30"/>
       <use xlink:href="#HelveticaNeue-Medium-2e" x="55.599991"/>
       <use xlink:href="#HelveticaNeue-Medium-31" x="83.399979"/>
       <use xlink:href="#HelveticaNeue-Medium-32" x="138.999969"/>
       <use xlink:href="#HelveticaNeue-Medium-35" x="194.59996"/>
      </g>
     </g>
    </g>
    <g id="xtick_6">
     <g id="line2d_11">
      <g>
       <use xlink:href="#ma51bc43cd4" x="292.211241" y="276.882312" style="stroke: #000000; stroke-width: 0.8"/>
      </g>
     </g>
     <g id="line2d_12">
      <g>
       <use xlink:href="#ma51bc43cd4" x="292.211241" y="10.770312" style="stroke: #000000; stroke-width: 0.8"/>
      </g>
     </g>
     <g id="text_6">
      <!-- 0.150 -->
      <g transform="translate(279.702647 289.272937)scale(0.1 -0.1)">
       <use xlink:href="#HelveticaNeue-Medium-30"/>
       <use xlink:href="#HelveticaNeue-Medium-2e" x="55.599991"/>
       <use xlink:href="#HelveticaNeue-Medium-31" x="83.399979"/>
       <use xlink:href="#HelveticaNeue-Medium-35" x="138.999969"/>
       <use xlink:href="#HelveticaNeue-Medium-30" x="194.59996"/>
      </g>
     </g>
    </g>
    <g id="xtick_7">
     <g id="line2d_13">
      <g>
       <use xlink:href="#ma51bc43cd4" x="334.928944" y="276.882312" style="stroke: #000000; stroke-width: 0.8"/>
      </g>
     </g>
     <g id="line2d_14">
      <g>
       <use xlink:href="#ma51bc43cd4" x="334.928944" y="10.770312" style="stroke: #000000; stroke-width: 0.8"/>
      </g>
     </g>
     <g id="text_7">
      <!-- 0.175 -->
      <g transform="translate(322.420351 289.272937)scale(0.1 -0.1)">
       <use xlink:href="#HelveticaNeue-Medium-30"/>
       <use xlink:href="#HelveticaNeue-Medium-2e" x="55.599991"/>
       <use xlink:href="#HelveticaNeue-Medium-31" x="83.399979"/>
       <use xlink:href="#HelveticaNeue-Medium-37" x="138.999969"/>
       <use xlink:href="#HelveticaNeue-Medium-35" x="194.59996"/>
      </g>
     </g>
    </g>
    <g id="xtick_8">
     <g id="line2d_15">
      <g>
       <use xlink:href="#ma51bc43cd4" x="377.646648" y="276.882312" style="stroke: #000000; stroke-width: 0.8"/>
      </g>
     </g>
     <g id="line2d_16">
      <g>
       <use xlink:href="#ma51bc43cd4" x="377.646648" y="10.770312" style="stroke: #000000; stroke-width: 0.8"/>
      </g>
     </g>
     <g id="text_8">
      <!-- 0.200 -->
      <g transform="translate(365.138054 289.272937)scale(0.1 -0.1)">
       <use xlink:href="#HelveticaNeue-Medium-30"/>
       <use xlink:href="#HelveticaNeue-Medium-2e" x="55.599991"/>
       <use xlink:href="#HelveticaNeue-Medium-32" x="83.399979"/>
       <use xlink:href="#HelveticaNeue-Medium-30" x="138.999969"/>
       <use xlink:href="#HelveticaNeue-Medium-30" x="194.59996"/>
      </g>
     </g>
    </g>
    <g id="text_9">
     <!-- $\sigma$ -->
     <g transform="translate(212.119375 302.322937)scale(0.1 -0.1)">
      <defs>
       <path id="DejaVuSans-Oblique-3c3" d="M 2219 3044 
Q 1744 3044 1422 2700 
Q 1081 2341 969 1747 
Q 844 1119 1044 756 
Q 1241 397 1706 397 
Q 2166 397 2503 759 
Q 2844 1122 2966 1747 
Q 3075 2319 2881 2700 
Q 2700 3044 2219 3044 
z
M 2309 3503 
L 4219 3500 
L 4106 2925 
L 3463 2925 
Q 3706 2438 3575 1747 
Q 3406 888 2884 400 
Q 2359 -91 1609 -91 
Q 856 -91 525 400 
Q 194 888 363 1747 
Q 528 2609 1050 3097 
Q 1484 3503 2309 3503 
z
" transform="scale(0.015625)"/>
      </defs>
      <use xlink:href="#DejaVuSans-Oblique-3c3" transform="translate(0 0.265625)"/>
     </g>
    </g>
   </g>
   <g id="matplotlib.axis_2">
    <g id="ytick_1">
     <g id="line2d_17">
      <defs>
       <path id="ma3a60c33cd" d="M 1.75 0 
L -1.75 -0 
" style="stroke: #000000; stroke-width: 0.8"/>
      </defs>
      <g>
       <use xlink:href="#ma3a60c33cd" x="36.759375" y="223.66417" style="stroke: #000000; stroke-width: 0.8"/>
      </g>
     </g>
     <g id="line2d_18">
      <g>
       <use xlink:href="#ma3a60c33cd" x="393.879375" y="223.66417" style="stroke: #000000; stroke-width: 0.8"/>
      </g>
     </g>
     <g id="text_10">
      <!-- 10 -->
      <g transform="translate(20.390625 227.234483)scale(0.1 -0.1)">
       <use xlink:href="#HelveticaNeue-Medium-31"/>
       <use xlink:href="#HelveticaNeue-Medium-30" x="55.599991"/>
      </g>
     </g>
    </g>
    <g id="ytick_2">
     <g id="line2d_19">
      <g>
       <use xlink:href="#ma3a60c33cd" x="36.759375" y="170.440706" style="stroke: #000000; stroke-width: 0.8"/>
      </g>
     </g>
     <g id="line2d_20">
      <g>
       <use xlink:href="#ma3a60c33cd" x="393.879375" y="170.440706" style="stroke: #000000; stroke-width: 0.8"/>
      </g>
     </g>
     <g id="text_11">
      <!-- 20 -->
      <g transform="translate(20.390625 174.011018)scale(0.1 -0.1)">
       <use xlink:href="#HelveticaNeue-Medium-32"/>
       <use xlink:href="#HelveticaNeue-Medium-30" x="55.599991"/>
      </g>
     </g>
    </g>
    <g id="ytick_3">
     <g id="line2d_21">
      <g>
       <use xlink:href="#ma3a60c33cd" x="36.759375" y="117.217241" style="stroke: #000000; stroke-width: 0.8"/>
      </g>
     </g>
     <g id="line2d_22">
      <g>
       <use xlink:href="#ma3a60c33cd" x="393.879375" y="117.217241" style="stroke: #000000; stroke-width: 0.8"/>
      </g>
     </g>
     <g id="text_12">
      <!-- 30 -->
      <g transform="translate(20.390625 120.787554)scale(0.1 -0.1)">
       <defs>
        <path id="HelveticaNeue-Medium-33" d="M 1459 2080 
C 2035 2106 2630 2016 2630 1318 
C 2630 806 2259 518 1773 518 
C 1203 518 909 928 928 1472 
L 198 1472 
C 218 538 736 -90 1773 -90 
C 2630 -90 3360 435 3360 1280 
C 3360 1856 3053 2298 2547 2400 
L 2547 2413 
C 2976 2566 3181 2925 3181 3373 
C 3181 4166 2464 4570 1766 4570 
C 864 4570 320 3917 282 3046 
L 1011 3046 
C 998 3507 1248 3962 1754 3962 
C 2157 3962 2451 3706 2451 3328 
C 2451 2778 1946 2605 1459 2624 
L 1459 2080 
z
" transform="scale(0.015625)"/>
       </defs>
       <use xlink:href="#HelveticaNeue-Medium-33"/>
       <use xlink:href="#HelveticaNeue-Medium-30" x="55.599991"/>
      </g>
     </g>
    </g>
    <g id="ytick_4">
     <g id="line2d_23">
      <g>
       <use xlink:href="#ma3a60c33cd" x="36.759375" y="63.993777" style="stroke: #000000; stroke-width: 0.8"/>
      </g>
     </g>
     <g id="line2d_24">
      <g>
       <use xlink:href="#ma3a60c33cd" x="393.879375" y="63.993777" style="stroke: #000000; stroke-width: 0.8"/>
      </g>
     </g>
     <g id="text_13">
      <!-- 40 -->
      <g transform="translate(20.390625 67.564089)scale(0.1 -0.1)">
       <defs>
        <path id="HelveticaNeue-Medium-34" d="M 3341 1638 
L 2765 1638 
L 2765 4480 
L 2074 4480 
L 154 1786 
L 154 1062 
L 2074 1062 
L 2074 0 
L 2765 0 
L 2765 1062 
L 3341 1062 
L 3341 1638 
z
M 2061 3610 
L 2074 3610 
L 2074 1638 
L 717 1638 
L 2061 3610 
z
" transform="scale(0.015625)"/>
       </defs>
       <use xlink:href="#HelveticaNeue-Medium-34"/>
       <use xlink:href="#HelveticaNeue-Medium-30" x="55.599991"/>
      </g>
     </g>
    </g>
    <g id="ytick_5">
     <g id="line2d_25">
      <g>
       <use xlink:href="#ma3a60c33cd" x="36.759375" y="10.770312" style="stroke: #000000; stroke-width: 0.8"/>
      </g>
     </g>
     <g id="line2d_26">
      <g>
       <use xlink:href="#ma3a60c33cd" x="393.879375" y="10.770312" style="stroke: #000000; stroke-width: 0.8"/>
      </g>
     </g>
     <g id="text_14">
      <!-- 50 -->
      <g transform="translate(20.390625 14.340625)scale(0.1 -0.1)">
       <use xlink:href="#HelveticaNeue-Medium-35"/>
       <use xlink:href="#HelveticaNeue-Medium-30" x="55.599991"/>
      </g>
     </g>
    </g>
    <g id="text_15">
     <!-- Posterior probability -->
     <g transform="translate(14.340625 190.788812)rotate(-90)scale(0.1 -0.1)">
      <defs>
       <path id="HelveticaNeue-Medium-50" d="M 1286 3917 
L 2470 3917 
C 2893 3917 3258 3763 3258 3162 
C 3258 2586 2816 2406 2458 2406 
L 1286 2406 
L 1286 3917 
z
M 486 0 
L 1286 0 
L 1286 1754 
L 2502 1754 
C 3808 1747 4058 2592 4058 3155 
C 4058 3725 3808 4570 2502 4570 
L 486 4570 
L 486 0 
z
" transform="scale(0.015625)"/>
       <path id="HelveticaNeue-Medium-6f" d="M 1901 486 
C 1248 486 960 1082 960 1658 
C 960 2227 1248 2822 1901 2822 
C 2554 2822 2842 2227 2842 1658 
C 2842 1082 2554 486 1901 486 
z
M 1901 -90 
C 2963 -90 3571 640 3571 1658 
C 3571 2669 2963 3398 1901 3398 
C 838 3398 230 2669 230 1658 
C 230 640 838 -90 1901 -90 
z
" transform="scale(0.015625)"/>
       <path id="HelveticaNeue-Medium-73" d="M 205 1062 
C 218 282 838 -90 1670 -90 
C 2355 -90 3149 198 3149 986 
C 3149 1638 2611 1830 2080 1952 
C 1542 2074 1005 2125 1005 2483 
C 1005 2771 1395 2822 1606 2822 
C 1926 2822 2214 2726 2278 2381 
L 3040 2381 
C 2950 3117 2336 3398 1658 3398 
C 1056 3398 275 3174 275 2451 
C 275 1779 800 1587 1338 1472 
C 1869 1350 2400 1306 2419 922 
C 2438 544 1958 486 1683 486 
C 1293 486 973 640 934 1062 
L 205 1062 
z
" transform="scale(0.015625)"/>
       <path id="HelveticaNeue-Medium-74" d="M 51 2765 
L 602 2765 
L 602 813 
C 614 262 755 -32 1517 -32 
C 1677 -32 1830 -6 1990 6 
L 1990 570 
C 1888 544 1786 544 1683 544 
C 1357 544 1331 698 1331 998 
L 1331 2765 
L 1990 2765 
L 1990 3309 
L 1331 3309 
L 1331 4301 
L 602 4301 
L 602 3309 
L 51 3309 
L 51 2765 
z
" transform="scale(0.015625)"/>
       <path id="HelveticaNeue-Medium-65" d="M 3386 1466 
C 3507 2458 2867 3398 1824 3398 
C 838 3398 224 2592 224 1651 
C 224 634 806 -90 1843 -90 
C 2566 -90 3181 314 3341 1037 
L 2650 1037 
C 2522 672 2266 486 1843 486 
C 1235 486 954 947 954 1466 
L 3386 1466 
z
M 954 1946 
C 973 2438 1318 2822 1824 2822 
C 2317 2822 2630 2406 2656 1946 
L 954 1946 
z
" transform="scale(0.015625)"/>
       <path id="HelveticaNeue-Medium-72" d="M 384 0 
L 1114 0 
L 1114 1574 
C 1114 2304 1510 2707 2010 2707 
C 2112 2707 2221 2688 2323 2675 
L 2323 3379 
C 2259 3386 2214 3398 2048 3398 
C 1600 3398 1165 3021 1082 2669 
L 1069 2669 
L 1069 3309 
L 384 3309 
L 384 0 
z
" transform="scale(0.015625)"/>
       <path id="HelveticaNeue-Medium-69" d="M 403 0 
L 1133 0 
L 1133 3309 
L 403 3309 
L 403 0 
z
M 403 3878 
L 1133 3878 
L 1133 4570 
L 403 4570 
L 403 3878 
z
" transform="scale(0.015625)"/>
       <path id="HelveticaNeue-Medium-20" transform="scale(0.015625)"/>
       <path id="HelveticaNeue-Medium-70" d="M 2950 1651 
C 2950 1075 2701 486 2035 486 
C 1446 486 1107 986 1107 1651 
C 1107 2355 1421 2822 2035 2822 
C 2637 2822 2950 2253 2950 1651 
z
M 403 -1222 
L 1133 -1222 
L 1133 429 
L 1146 429 
C 1376 64 1830 -90 2253 -90 
C 3232 -90 3680 749 3680 1638 
C 3680 2605 3174 3398 2131 3398 
C 1709 3398 1312 3238 1107 2861 
L 1094 2861 
L 1094 3309 
L 403 3309 
L 403 -1222 
z
" transform="scale(0.015625)"/>
       <path id="HelveticaNeue-Medium-62" d="M 2950 1651 
C 2950 1075 2701 486 2035 486 
C 1446 486 1107 986 1107 1651 
C 1107 2355 1421 2822 2035 2822 
C 2637 2822 2950 2253 2950 1651 
z
M 403 0 
L 1094 0 
L 1094 454 
L 1107 454 
C 1325 19 1805 -90 2253 -90 
C 3232 -90 3680 749 3680 1638 
C 3680 2605 3174 3398 2131 3398 
C 1760 3398 1344 3200 1146 2880 
L 1133 2880 
L 1133 4570 
L 403 4570 
L 403 0 
z
" transform="scale(0.015625)"/>
       <path id="HelveticaNeue-Medium-61" d="M 2426 1114 
C 2426 653 1926 486 1606 486 
C 1350 486 934 582 934 909 
C 934 1293 1216 1408 1530 1459 
C 1850 1517 2202 1510 2426 1658 
L 2426 1114 
z
M 3155 2438 
C 3155 3136 2477 3398 1830 3398 
C 1101 3398 378 3149 326 2298 
L 1056 2298 
C 1088 2656 1376 2822 1786 2822 
C 2080 2822 2470 2752 2470 2374 
C 2470 1946 2003 2003 1478 1907 
C 864 1837 205 1702 205 877 
C 205 230 742 -90 1338 -90 
C 1728 -90 2195 32 2483 314 
C 2541 13 2752 -90 3046 -90 
C 3168 -90 3398 -45 3507 -6 
L 3507 499 
C 3430 486 3373 486 3328 486 
C 3194 486 3155 557 3155 736 
L 3155 2438 
z
" transform="scale(0.015625)"/>
       <path id="HelveticaNeue-Medium-6c" d="M 403 0 
L 1133 0 
L 1133 4570 
L 403 4570 
L 403 0 
z
" transform="scale(0.015625)"/>
       <path id="HelveticaNeue-Medium-79" d="M 1274 13 
L 1190 -243 
C 1101 -525 1018 -704 678 -704 
C 563 -704 448 -678 333 -659 
L 333 -1274 
C 499 -1299 666 -1312 838 -1312 
C 1600 -1312 1773 -774 2010 -179 
L 3296 3309 
L 2534 3309 
L 1696 838 
L 1683 838 
L 819 3309 
L 19 3309 
L 1274 13 
z
" transform="scale(0.015625)"/>
      </defs>
      <use xlink:href="#HelveticaNeue-Medium-50"/>
      <use xlink:href="#HelveticaNeue-Medium-6f" x="66.699997"/>
      <use xlink:href="#HelveticaNeue-Medium-73" x="125.999985"/>
      <use xlink:href="#HelveticaNeue-Medium-74" x="177.899979"/>
      <use xlink:href="#HelveticaNeue-Medium-65" x="211.199966"/>
      <use xlink:href="#HelveticaNeue-Medium-72" x="266.799957"/>
      <use xlink:href="#HelveticaNeue-Medium-69" x="301.999954"/>
      <use xlink:href="#HelveticaNeue-Medium-6f" x="326.099945"/>
      <use xlink:href="#HelveticaNeue-Medium-72" x="385.399933"/>
      <use xlink:href="#HelveticaNeue-Medium-20" x="420.59993"/>
      <use xlink:href="#HelveticaNeue-Medium-70" x="448.399918"/>
      <use xlink:href="#HelveticaNeue-Medium-72" x="509.499908"/>
      <use xlink:href="#HelveticaNeue-Medium-6f" x="544.699905"/>
      <use xlink:href="#HelveticaNeue-Medium-62" x="603.999893"/>
      <use xlink:href="#HelveticaNeue-Medium-61" x="665.099884"/>
      <use xlink:href="#HelveticaNeue-Medium-62" x="720.699875"/>
      <use xlink:href="#HelveticaNeue-Medium-69" x="781.799866"/>
      <use xlink:href="#HelveticaNeue-Medium-6c" x="805.899857"/>
      <use xlink:href="#HelveticaNeue-Medium-69" x="829.999847"/>
      <use xlink:href="#HelveticaNeue-Medium-74" x="854.099838"/>
      <use xlink:href="#HelveticaNeue-Medium-79" x="887.399826"/>
     </g>
    </g>
   </g>
   <g id="line2d_27">
    <path d="M 52.992102 276.887635 
L 58.06483 276.887635 
L 63.137557 276.206642 
L 68.210284 275.531683 
L 73.283011 275.739656 
L 78.355739 276.798173 
L 83.428466 276.887635 
L 88.501193 276.887635 
L 93.57392 276.887635 
L 98.646648 276.887635 
L 103.719375 276.887635 
L 108.792102 276.284234 
L 113.86483 274.759039 
L 118.937557 274.434567 
L 124.010284 275.63675 
L 129.083011 276.887635 
L 134.155739 276.887635 
L 139.228466 276.887635 
L 144.301193 274.618695 
L 149.37392 262.95378 
L 154.446648 243.615372 
L 159.519375 217.086446 
L 164.592102 185.500738 
L 169.66483 152.410725 
L 174.737557 122.182455 
L 179.810284 99.146749 
L 184.883011 86.708015 
L 189.955739 86.63026 
L 195.028466 98.678293 
L 200.101193 120.701724 
L 205.17392 149.13518 
L 210.246648 179.782335 
L 215.319375 208.683216 
L 220.392102 232.852021 
L 225.46483 250.718044 
L 230.537557 262.190498 
L 235.610284 268.372336 
L 240.683011 271.038329 
L 245.755739 272.044 
L 250.828466 272.8323 
L 255.901193 274.15777 
L 260.97392 276.070791 
L 266.046648 276.887635 
L 271.119375 276.887635 
L 276.192102 276.887635 
L 281.26483 276.887635 
L 286.337557 276.887635 
L 291.410284 276.887635 
L 296.483011 275.881706 
L 301.555739 275.5054 
L 306.628466 276.016972 
L 311.701193 276.887635 
L 316.77392 276.887635 
L 321.846648 276.887635 
L 326.919375 276.887635 
L 331.992102 276.887635 
L 337.06483 276.887635 
L 342.137557 276.721547 
L 347.210284 275.903583 
L 352.283011 275.812257 
L 357.355739 276.485092 
L 362.428466 276.887635 
L 367.501193 276.887635 
L 372.57392 276.887635 
L 377.646648 276.887635 
" clip-path="url(#pbac97460aa)" style="fill: none; stroke: #000000; stroke-width: 1.5"/>
   </g>
   <g id="line2d_28">
    <path d="M 52.992102 276.887635 
L 58.06483 276.887635 
L 63.137557 276.81198 
L 68.210284 276.887635 
L 73.283011 276.887635 
L 78.355739 276.887635 
L 83.428466 276.887635 
L 88.501193 276.887635 
L 93.57392 276.887635 
L 98.646648 276.887635 
L 103.719375 276.887635 
L 108.792102 276.02807 
L 113.86483 275.760893 
L 118.937557 276.393127 
L 124.010284 276.887635 
L 129.083011 276.887635 
L 134.155739 276.887635 
L 139.228466 276.783262 
L 144.301193 272.598536 
L 149.37392 260.721795 
L 154.446648 242.991094 
L 159.519375 219.735675 
L 164.592102 188.784283 
L 169.66483 155.57773 
L 174.737557 124.302509 
L 179.810284 101.102101 
L 184.883011 89.008971 
L 189.955739 86.84967 
L 195.028466 97.993461 
L 200.101193 121.069037 
L 205.17392 148.061475 
L 210.246648 178.462562 
L 215.319375 206.241117 
L 220.392102 229.460354 
L 225.46483 247.87035 
L 230.537557 258.129218 
L 235.610284 266.562831 
L 240.683011 270.937088 
L 245.755739 273.229499 
L 250.828466 273.705773 
L 255.901193 275.037787 
L 260.97392 275.6122 
L 266.046648 276.455431 
L 271.119375 276.887635 
L 276.192102 276.887635 
L 281.26483 276.887635 
L 286.337557 276.887635 
L 291.410284 276.887635 
L 296.483011 276.728828 
L 301.555739 276.682774 
L 306.628466 276.887635 
L 311.701193 276.887635 
L 316.77392 276.887635 
L 321.846648 276.887635 
L 326.919375 276.887635 
L 331.992102 276.887635 
L 337.06483 276.887635 
L 342.137557 276.887635 
L 347.210284 276.87933 
L 352.283011 276.887635 
L 357.355739 276.887635 
L 362.428466 276.887635 
L 367.501193 276.887635 
L 372.57392 276.887635 
L 377.646648 276.887635 
" clip-path="url(#pbac97460aa)" style="fill: none; stroke-dasharray: 5.55,2.4; stroke-dashoffset: 0; stroke: #ff0000; stroke-opacity: 0.5; stroke-width: 1.5"/>
   </g>
   <g id="patch_3">
    <path d="M 36.759375 276.882312 
L 36.759375 10.770312 
" style="fill: none; stroke: #000000; stroke-width: 0.8; stroke-linejoin: miter; stroke-linecap: square"/>
   </g>
   <g id="patch_4">
    <path d="M 393.879375 276.882312 
L 393.879375 10.770312 
" style="fill: none; stroke: #000000; stroke-width: 0.8; stroke-linejoin: miter; stroke-linecap: square"/>
   </g>
   <g id="patch_5">
    <path d="M 36.759375 276.882312 
L 393.879375 276.882312 
" style="fill: none; stroke: #000000; stroke-width: 0.8; stroke-linejoin: miter; stroke-linecap: square"/>
   </g>
   <g id="patch_6">
    <path d="M 36.759375 10.770312 
L 393.879375 10.770312 
" style="fill: none; stroke: #000000; stroke-width: 0.8; stroke-linejoin: miter; stroke-linecap: square"/>
   </g>
  </g>
 </g>
 <defs>
  <clipPath id="pbac97460aa">
   <rect x="36.759375" y="10.770312" width="357.12" height="266.112"/>
  </clipPath>
 </defs>
</svg>
