<?xml version="1.0" encoding="utf-8" standalone="no"?>
<!DOCTYPE svg PUBLIC "-//W3C//DTD SVG 1.1//EN"
  "http://www.w3.org/Graphics/SVG/1.1/DTD/svg11.dtd">
<!-- Created with matplotlib (https://matplotlib.org/) -->
<svg height="310.890125pt" version="1.1" viewBox="0 0 426.798125 310.890125" width="426.798125pt" xmlns="http://www.w3.org/2000/svg" xmlns:xlink="http://www.w3.org/1999/xlink">
 <metadata>
  <rdf:RDF xmlns:cc="http://creativecommons.org/ns#" xmlns:dc="http://purl.org/dc/elements/1.1/" xmlns:rdf="http://www.w3.org/1999/02/22-rdf-syntax-ns#">
   <cc:Work>
    <dc:type rdf:resource="http://purl.org/dc/dcmitype/StillImage"/>
    <dc:date>2020-12-07T13:40:04.956603</dc:date>
    <dc:format>image/svg+xml</dc:format>
    <dc:creator>
     <cc:Agent>
      <dc:title>Matplotlib v3.3.2, https://matplotlib.org/</dc:title>
     </cc:Agent>
    </dc:creator>
   </cc:Work>
  </rdf:RDF>
 </metadata>
 <defs>
  <style type="text/css">*{stroke-linecap:butt;stroke-linejoin:round;}</style>
 </defs>
 <g id="figure_1">
  <g id="patch_1">
   <path d="M 0 310.890125 
L 426.798125 310.890125 
L 426.798125 0 
L 0 0 
z
" style="fill:#ffffff;"/>
  </g>
  <g id="axes_1">
   <g id="patch_2">
    <path d="M 62.478125 273.312 
L 419.598125 273.312 
L 419.598125 7.2 
L 62.478125 7.2 
z
" style="fill:#ffffff;"/>
   </g>
   <g id="PolyCollection_1">
    <defs>
     <path d="M 83.283452 -89.758435 
L 83.283452 -61.764982 
L 84.085662 -62.284079 
L 84.887872 -62.803178 
L 85.690083 -63.322277 
L 86.492293 -63.841378 
L 87.294503 -64.360479 
L 88.096714 -64.879581 
L 88.898924 -65.398685 
L 89.701135 -65.917789 
L 90.503345 -66.438553 
L 91.305555 -66.973231 
L 92.107766 -67.507909 
L 92.909976 -68.042589 
L 93.712187 -68.577269 
L 94.514397 -69.111951 
L 95.316607 -69.646633 
L 96.118818 -70.181316 
L 96.921028 -70.716001 
L 97.723239 -71.250686 
L 98.525449 -71.785372 
L 99.327659 -72.320059 
L 100.12987 -72.854747 
L 100.93208 -73.389436 
L 101.734291 -73.924126 
L 102.536501 -74.458816 
L 103.338711 -74.993508 
L 104.140922 -75.528201 
L 104.943132 -76.062894 
L 105.745342 -76.597589 
L 106.547553 -77.132284 
L 107.349763 -77.66698 
L 108.151974 -78.201678 
L 108.954184 -78.736376 
L 109.756394 -79.271075 
L 110.558605 -79.805775 
L 111.360815 -80.340476 
L 112.163026 -80.875178 
L 112.965236 -81.409881 
L 113.767446 -81.944585 
L 114.569657 -82.47929 
L 115.371867 -83.013995 
L 116.174078 -83.548702 
L 116.976288 -84.083409 
L 117.778498 -84.618118 
L 118.580709 -85.152827 
L 119.382919 -85.687538 
L 120.18513 -86.222249 
L 120.98734 -86.756961 
L 121.78955 -87.291674 
L 122.591761 -87.826388 
L 123.393971 -88.361103 
L 124.196181 -88.895819 
L 124.998392 -89.430536 
L 125.800602 -89.965254 
L 126.602813 -90.499972 
L 127.405023 -91.034692 
L 128.207233 -91.569413 
L 129.009444 -92.104134 
L 129.811654 -92.638856 
L 130.613865 -93.17358 
L 131.416075 -93.708304 
L 132.218285 -94.243029 
L 133.020496 -94.777755 
L 133.822706 -95.312483 
L 134.624917 -95.847211 
L 135.427127 -96.381939 
L 136.229337 -96.916669 
L 137.031548 -97.4514 
L 137.833758 -97.986132 
L 138.635969 -98.520864 
L 139.438179 -99.055598 
L 140.240389 -99.590332 
L 141.0426 -100.125068 
L 141.84481 -100.659804 
L 142.64702 -101.194542 
L 143.449231 -101.72928 
L 144.251441 -102.264019 
L 145.053652 -102.798759 
L 145.855862 -103.3335 
L 146.658072 -103.868242 
L 147.460283 -104.387264 
L 148.262493 -104.900852 
L 149.064704 -105.414439 
L 149.866914 -105.928026 
L 150.669124 -106.441613 
L 151.471335 -106.9552 
L 152.273545 -107.468787 
L 153.075756 -107.982374 
L 153.877966 -108.495961 
L 154.680176 -109.009548 
L 155.482387 -109.523135 
L 156.284597 -110.036723 
L 157.086808 -110.55031 
L 157.889018 -111.063897 
L 158.691228 -111.577484 
L 159.493439 -112.091071 
L 160.295649 -112.604658 
L 161.097859 -113.118245 
L 161.90007 -113.631832 
L 162.70228 -114.145419 
L 163.504491 -114.659006 
L 164.306701 -115.172594 
L 165.108911 -115.686181 
L 165.911122 -116.199768 
L 166.713332 -116.713355 
L 167.515543 -117.226942 
L 168.317753 -117.740529 
L 169.119963 -118.254116 
L 169.922174 -118.767703 
L 170.724384 -119.28129 
L 171.526595 -119.794877 
L 172.328805 -120.308465 
L 173.131015 -120.822052 
L 173.933226 -121.335639 
L 174.735436 -121.849226 
L 175.537647 -122.362813 
L 176.339857 -122.8764 
L 177.142067 -123.389987 
L 177.944278 -123.903574 
L 178.746488 -124.417161 
L 179.548698 -124.930748 
L 180.350909 -125.444336 
L 181.153119 -125.957923 
L 181.95533 -126.47151 
L 182.75754 -126.985097 
L 183.55975 -127.498684 
L 184.361961 -128.012271 
L 185.164171 -128.525858 
L 185.966382 -129.039445 
L 186.768592 -129.553032 
L 187.570802 -130.066619 
L 188.373013 -130.580207 
L 189.175223 -131.093794 
L 189.977434 -131.607381 
L 190.779644 -132.120968 
L 191.581854 -132.634555 
L 192.384065 -133.148142 
L 193.186275 -133.661729 
L 193.988486 -134.175316 
L 194.790696 -134.688903 
L 195.592906 -135.20249 
L 196.395117 -135.716078 
L 197.197327 -136.229665 
L 197.999537 -136.743252 
L 198.801748 -137.256839 
L 199.603958 -137.770426 
L 200.406169 -138.284013 
L 201.208379 -138.7976 
L 202.010589 -139.311187 
L 202.8128 -139.824774 
L 203.61501 -140.338361 
L 204.417221 -140.851948 
L 205.219431 -141.365536 
L 206.021641 -141.879123 
L 206.823852 -142.39271 
L 207.626062 -142.906297 
L 208.428273 -143.419884 
L 209.230483 -143.933471 
L 210.032693 -144.447058 
L 210.834904 -144.960645 
L 211.637114 -145.474232 
L 212.439325 -145.987819 
L 213.241535 -146.501407 
L 214.043745 -147.014994 
L 214.845956 -147.518843 
L 215.648166 -148.017454 
L 216.450376 -148.516065 
L 217.252587 -149.014677 
L 218.054797 -149.513289 
L 218.857008 -150.011901 
L 219.659218 -150.510514 
L 220.461428 -151.009128 
L 221.263639 -151.507742 
L 222.065849 -152.006356 
L 222.86806 -152.504971 
L 223.67027 -153.003586 
L 224.47248 -153.502202 
L 225.274691 -154.000818 
L 226.076901 -154.499435 
L 226.879112 -154.998052 
L 227.681322 -155.496669 
L 228.483532 -155.995288 
L 229.285743 -156.493906 
L 230.087953 -156.992525 
L 230.890164 -157.491144 
L 231.692374 -157.989764 
L 232.494584 -158.488385 
L 233.296795 -158.987006 
L 234.099005 -159.485627 
L 234.901216 -159.984249 
L 235.703426 -160.482871 
L 236.505636 -160.981493 
L 237.307847 -161.480117 
L 238.110057 -161.97874 
L 238.912267 -162.477364 
L 239.714478 -162.975989 
L 240.516688 -163.474614 
L 241.318899 -163.973239 
L 242.121109 -164.471865 
L 242.923319 -164.970492 
L 243.72553 -165.469118 
L 244.52774 -165.968697 
L 245.329951 -166.466445 
L 246.132161 -166.937763 
L 246.934371 -167.409086 
L 247.736582 -167.880416 
L 248.538792 -168.351751 
L 249.341003 -168.823091 
L 250.143213 -169.294438 
L 250.945423 -169.76579 
L 251.747634 -170.237148 
L 252.549844 -170.708512 
L 253.352055 -171.179881 
L 254.154265 -171.651257 
L 254.956475 -172.122638 
L 255.758686 -172.594025 
L 256.560896 -173.065417 
L 257.363106 -173.536816 
L 258.165317 -174.00822 
L 258.967527 -174.47963 
L 259.769738 -174.985234 
L 260.571948 -175.508591 
L 261.374158 -175.998501 
L 262.176369 -176.519732 
L 262.978579 -177.050685 
L 263.78079 -177.584925 
L 264.583 -178.119168 
L 265.38521 -178.653415 
L 266.187421 -179.187664 
L 266.989631 -179.747192 
L 267.791842 -180.310349 
L 268.594052 -180.87351 
L 269.396262 -181.436673 
L 270.198473 -181.994072 
L 271.000683 -182.494883 
L 271.802894 -182.995696 
L 272.605104 -183.49651 
L 273.407314 -183.997324 
L 274.209525 -184.49814 
L 275.011735 -184.998957 
L 275.813945 -185.499775 
L 276.616156 -185.989755 
L 277.418366 -186.45495 
L 278.220577 -186.944409 
L 279.022787 -187.445531 
L 279.824997 -187.946654 
L 280.627208 -188.447779 
L 281.429418 -188.948905 
L 282.231629 -189.450032 
L 283.033839 -189.95116 
L 283.836049 -190.452289 
L 284.63826 -190.973644 
L 285.44047 -191.499076 
L 286.242681 -192.024508 
L 287.044891 -192.549941 
L 287.847101 -192.977111 
L 288.649312 -193.416983 
L 289.451522 -193.896489 
L 290.253733 -194.390266 
L 291.055943 -194.888921 
L 291.858153 -195.387575 
L 292.660364 -195.88623 
L 293.462574 -196.384886 
L 294.264784 -196.883542 
L 295.066995 -197.389133 
L 295.869205 -197.898768 
L 296.671416 -198.408403 
L 297.473626 -198.918038 
L 298.275836 -199.427674 
L 299.078047 -199.937311 
L 299.880257 -200.446947 
L 300.682468 -200.956585 
L 301.484678 -201.466222 
L 302.286888 -201.975861 
L 303.089099 -202.485499 
L 303.891309 -202.995138 
L 304.69352 -203.504778 
L 305.49573 -204.014418 
L 306.29794 -204.524059 
L 307.100151 -205.0337 
L 307.902361 -205.543341 
L 308.704572 -206.052983 
L 309.506782 -206.562625 
L 310.308992 -207.072268 
L 311.111203 -207.541969 
L 311.913413 -207.92405 
L 312.715623 -208.306156 
L 313.517834 -208.740225 
L 314.320044 -209.205385 
L 315.122255 -209.670571 
L 315.924465 -210.135784 
L 316.726675 -210.601024 
L 317.528886 -211.066289 
L 318.331096 -211.531582 
L 319.133307 -211.9969 
L 319.935517 -212.462245 
L 320.737727 -212.927617 
L 321.539938 -213.393015 
L 322.342148 -213.858439 
L 323.144359 -214.32389 
L 323.946569 -214.789367 
L 324.748779 -215.25487 
L 325.55099 -215.7204 
L 326.3532 -216.185956 
L 327.155411 -216.651538 
L 327.957621 -217.117147 
L 328.759831 -217.582781 
L 329.562042 -218.048442 
L 330.364252 -218.514129 
L 331.166462 -218.979843 
L 331.968673 -219.445582 
L 332.770883 -219.911348 
L 333.573094 -220.377139 
L 334.375304 -220.842957 
L 335.177514 -221.308801 
L 335.979725 -221.774671 
L 336.781935 -222.240567 
L 337.584146 -222.72287 
L 338.386356 -223.210085 
L 339.188566 -223.697302 
L 339.990777 -224.184521 
L 340.792987 -224.671742 
L 341.595198 -225.158964 
L 342.397408 -225.646188 
L 343.199618 -226.133414 
L 344.001829 -226.620642 
L 344.804039 -227.107871 
L 345.60625 -227.595102 
L 346.40846 -228.082335 
L 347.21067 -228.567986 
L 348.012881 -229.021484 
L 348.815091 -229.403883 
L 349.617301 -229.786294 
L 350.419512 -230.168716 
L 351.221722 -230.551149 
L 352.023933 -230.933594 
L 352.826143 -231.316051 
L 353.628353 -231.698518 
L 354.430564 -232.080997 
L 355.232774 -232.463488 
L 356.034985 -232.84599 
L 356.837195 -233.228504 
L 357.639405 -233.611029 
L 358.441616 -233.993565 
L 359.243826 -234.376113 
L 360.046037 -234.758673 
L 360.848247 -235.141244 
L 361.650457 -235.523826 
L 362.452668 -235.90642 
L 363.254878 -236.289026 
L 364.057089 -236.671643 
L 364.859299 -237.054271 
L 365.661509 -237.436911 
L 366.46372 -237.819563 
L 367.26593 -238.202226 
L 368.06814 -238.5849 
L 368.870351 -238.967586 
L 369.672561 -239.350284 
L 370.474772 -239.732993 
L 371.276982 -240.115714 
L 372.079192 -240.498446 
L 372.881403 -240.88119 
L 373.683613 -241.263946 
L 374.485824 -241.646713 
L 375.288034 -242.029491 
L 376.090244 -242.412282 
L 376.892455 -242.795083 
L 377.694665 -243.177897 
L 378.496876 -243.560722 
L 379.299086 -243.943558 
L 380.101296 -244.326407 
L 380.903507 -244.709266 
L 381.705717 -245.092138 
L 382.507928 -245.475021 
L 383.310138 -245.857916 
L 384.112348 -246.240822 
L 384.914559 -246.62374 
L 385.716769 -247.00667 
L 386.51898 -247.389611 
L 387.32119 -247.772564 
L 388.1234 -248.155528 
L 388.925611 -248.593205 
L 389.727821 -249.0312 
L 390.530031 -249.469207 
L 391.332242 -249.907225 
L 392.134452 -250.345255 
L 392.936663 -250.783297 
L 393.738873 -251.22135 
L 394.541083 -251.659415 
L 395.343294 -252.097492 
L 396.145504 -252.53558 
L 396.947715 -252.97368 
L 397.749925 -253.411792 
L 398.552135 -253.849915 
L 399.354346 -254.28805 
L 400.156556 -254.726196 
L 400.958767 -255.164354 
L 401.760977 -255.602523 
L 402.563187 -256.040704 
L 403.365398 -256.478897 
L 403.365398 -275.200797 
L 403.365398 -275.200797 
L 402.563187 -274.688578 
L 401.760977 -274.176361 
L 400.958767 -273.664145 
L 400.156556 -273.148188 
L 399.354346 -272.62896 
L 398.552135 -272.109738 
L 397.749925 -271.590523 
L 396.947715 -271.071313 
L 396.145504 -270.55211 
L 395.343294 -270.032914 
L 394.541083 -269.513723 
L 393.738873 -268.994539 
L 392.936663 -268.475361 
L 392.134452 -267.956189 
L 391.332242 -267.437024 
L 390.530031 -266.917865 
L 389.727821 -266.398712 
L 388.925611 -265.879565 
L 388.1234 -265.360424 
L 387.32119 -264.84129 
L 386.51898 -264.322162 
L 385.716769 -263.80304 
L 384.914559 -263.283925 
L 384.112348 -262.764816 
L 383.310138 -262.245713 
L 382.507928 -261.726616 
L 381.705717 -261.207525 
L 380.903507 -260.688441 
L 380.101296 -260.169363 
L 379.299086 -259.650291 
L 378.496876 -259.131225 
L 377.694665 -258.612166 
L 376.892455 -258.093113 
L 376.090244 -257.574066 
L 375.288034 -257.055025 
L 374.485824 -256.53599 
L 373.683613 -256.016962 
L 372.881403 -255.465079 
L 372.079192 -254.905939 
L 371.276982 -254.346804 
L 370.474772 -253.787676 
L 369.672561 -253.228554 
L 368.870351 -252.669439 
L 368.06814 -252.110329 
L 367.26593 -251.551226 
L 366.46372 -250.992129 
L 365.661509 -250.433038 
L 364.859299 -249.873954 
L 364.057089 -249.314875 
L 363.254878 -248.755803 
L 362.452668 -248.196737 
L 361.650457 -247.637678 
L 360.848247 -247.078624 
L 360.046037 -246.519577 
L 359.243826 -245.960536 
L 358.441616 -245.401501 
L 357.639405 -244.842473 
L 356.837195 -244.283451 
L 356.034985 -243.724435 
L 355.232774 -243.165425 
L 354.430564 -242.606422 
L 353.628353 -242.047425 
L 352.826143 -241.488434 
L 352.023933 -240.929449 
L 351.221722 -240.37047 
L 350.419512 -239.811498 
L 349.617301 -239.252532 
L 348.815091 -238.693573 
L 348.012881 -238.132522 
L 347.21067 -237.566073 
L 346.40846 -236.999626 
L 345.60625 -236.433181 
L 344.804039 -235.866737 
L 344.001829 -235.300295 
L 343.199618 -234.733854 
L 342.397408 -234.167414 
L 341.595198 -233.600976 
L 340.792987 -233.091183 
L 339.990777 -232.620947 
L 339.188566 -232.150721 
L 338.386356 -231.680506 
L 337.584146 -231.210301 
L 336.781935 -230.740107 
L 335.979725 -230.269923 
L 335.177514 -229.799749 
L 334.375304 -229.329586 
L 333.573094 -228.859433 
L 332.770883 -228.389291 
L 331.968673 -227.919159 
L 331.166462 -227.449038 
L 330.364252 -226.989457 
L 329.562042 -226.546301 
L 328.759831 -226.103165 
L 327.957621 -225.660048 
L 327.155411 -225.216952 
L 326.3532 -224.773875 
L 325.55099 -224.330819 
L 324.748779 -223.887782 
L 323.946569 -223.444765 
L 323.144359 -223.001768 
L 322.342148 -222.55879 
L 321.539938 -222.049668 
L 320.737727 -221.53504 
L 319.935517 -221.020431 
L 319.133307 -220.505843 
L 318.331096 -220.054591 
L 317.528886 -219.610231 
L 316.726675 -219.165873 
L 315.924465 -218.721517 
L 315.122255 -218.277162 
L 314.320044 -217.832808 
L 313.517834 -217.388456 
L 312.715623 -216.944106 
L 311.913413 -216.499757 
L 311.111203 -216.041528 
L 310.308992 -215.578913 
L 309.506782 -215.116301 
L 308.704572 -214.653693 
L 307.902361 -214.191088 
L 307.100151 -213.728488 
L 306.29794 -213.265891 
L 305.49573 -212.803298 
L 304.69352 -212.340709 
L 303.891309 -211.878123 
L 303.089099 -211.415541 
L 302.286888 -210.952963 
L 301.484678 -210.490388 
L 300.682468 -210.027818 
L 299.880257 -209.565251 
L 299.078047 -209.083292 
L 298.275836 -208.589668 
L 297.473626 -208.096048 
L 296.671416 -207.595702 
L 295.869205 -207.083054 
L 295.066995 -206.570408 
L 294.264784 -206.057764 
L 293.462574 -205.545121 
L 292.660364 -205.015064 
L 291.858153 -204.538162 
L 291.055943 -204.062901 
L 290.253733 -203.587666 
L 289.451522 -203.112458 
L 288.649312 -202.637276 
L 287.847101 -202.16212 
L 287.044891 -201.679331 
L 286.242681 -201.185764 
L 285.44047 -200.6922 
L 284.63826 -200.19864 
L 283.836049 -199.736258 
L 283.033839 -199.291574 
L 282.231629 -198.846891 
L 281.429418 -198.402207 
L 280.627208 -197.957523 
L 279.824997 -197.51284 
L 279.022787 -197.068156 
L 278.220577 -196.623473 
L 277.418366 -196.17879 
L 276.616156 -195.734107 
L 275.813945 -195.292642 
L 275.011735 -194.874572 
L 274.209525 -194.456505 
L 273.407314 -194.03844 
L 272.605104 -193.620377 
L 271.802894 -193.202317 
L 271.000683 -192.784259 
L 270.198473 -192.366204 
L 269.396262 -191.948151 
L 268.594052 -191.5301 
L 267.791842 -191.106001 
L 266.989631 -190.672346 
L 266.187421 -190.23871 
L 265.38521 -189.805092 
L 264.583 -189.368725 
L 263.78079 -188.86683 
L 262.978579 -188.364952 
L 262.176369 -187.863093 
L 261.374158 -187.361251 
L 260.571948 -186.859428 
L 259.769738 -186.381175 
L 258.967527 -185.945332 
L 258.165317 -185.506422 
L 257.363106 -185.061741 
L 256.560896 -184.61706 
L 255.758686 -184.17238 
L 254.956475 -183.727699 
L 254.154265 -183.283019 
L 253.352055 -182.834703 
L 252.549844 -182.374067 
L 251.747634 -181.913441 
L 250.945423 -181.452824 
L 250.143213 -180.992216 
L 249.341003 -180.531618 
L 248.538792 -180.131306 
L 247.736582 -179.683853 
L 246.934371 -179.207271 
L 246.132161 -178.783238 
L 245.329951 -178.359216 
L 244.52774 -177.935204 
L 243.72553 -177.497968 
L 242.923319 -177.034804 
L 242.121109 -176.571652 
L 241.318899 -176.108512 
L 240.516688 -175.645385 
L 239.714478 -175.18227 
L 238.912267 -174.703023 
L 238.110057 -174.183262 
L 237.307847 -173.663512 
L 236.505636 -173.143776 
L 235.703426 -172.624051 
L 234.901216 -172.104339 
L 234.099005 -171.58464 
L 233.296795 -171.064953 
L 232.494584 -170.545278 
L 231.692374 -170.025616 
L 230.890164 -169.505966 
L 230.087953 -168.986329 
L 229.285743 -168.466704 
L 228.483532 -167.947092 
L 227.681322 -167.427492 
L 226.879112 -166.907904 
L 226.076901 -166.388329 
L 225.274691 -165.868766 
L 224.47248 -165.349216 
L 223.67027 -164.829679 
L 222.86806 -164.310153 
L 222.065849 -163.790641 
L 221.263639 -163.271141 
L 220.461428 -162.751653 
L 219.659218 -162.232178 
L 218.857008 -161.712715 
L 218.054797 -161.193265 
L 217.252587 -160.673828 
L 216.450376 -160.204108 
L 215.648166 -159.833821 
L 214.845956 -159.463546 
L 214.043745 -159.093283 
L 213.241535 -158.72303 
L 212.439325 -158.352789 
L 211.637114 -157.982559 
L 210.834904 -157.61234 
L 210.032693 -157.242133 
L 209.230483 -156.871937 
L 208.428273 -156.501752 
L 207.626062 -156.131578 
L 206.823852 -155.761415 
L 206.021641 -155.391264 
L 205.219431 -155.021124 
L 204.417221 -154.650995 
L 203.61501 -154.280877 
L 202.8128 -153.910771 
L 202.010589 -153.540676 
L 201.208379 -153.170591 
L 200.406169 -152.800519 
L 199.603958 -152.430457 
L 198.801748 -152.060406 
L 197.999537 -151.690367 
L 197.197327 -151.320339 
L 196.395117 -150.950322 
L 195.592906 -150.580316 
L 194.790696 -150.210321 
L 193.988486 -149.840337 
L 193.186275 -149.470365 
L 192.384065 -149.042921 
L 191.581854 -148.598248 
L 190.779644 -148.153576 
L 189.977434 -147.708306 
L 189.175223 -147.258614 
L 188.373013 -146.808923 
L 187.570802 -146.359232 
L 186.768592 -145.909541 
L 185.966382 -145.45985 
L 185.164171 -145.01016 
L 184.361961 -144.560469 
L 183.55975 -144.110778 
L 182.75754 -143.661088 
L 181.95533 -143.211398 
L 181.153119 -142.761707 
L 180.350909 -142.312017 
L 179.548698 -141.862327 
L 178.746488 -141.412637 
L 177.944278 -140.962947 
L 177.142067 -140.513258 
L 176.339857 -140.063568 
L 175.537647 -139.613878 
L 174.735436 -139.164189 
L 173.933226 -138.714499 
L 173.131015 -138.26481 
L 172.328805 -137.815121 
L 171.526595 -137.365432 
L 170.724384 -136.915743 
L 169.922174 -136.466054 
L 169.119963 -136.016365 
L 168.317753 -135.566677 
L 167.515543 -135.116988 
L 166.713332 -134.667299 
L 165.911122 -134.217611 
L 165.108911 -133.767923 
L 164.306701 -133.318235 
L 163.504491 -132.868546 
L 162.70228 -132.418858 
L 161.90007 -131.96917 
L 161.097859 -131.519483 
L 160.295649 -131.069795 
L 159.493439 -130.620107 
L 158.691228 -130.17042 
L 157.889018 -129.720732 
L 157.086808 -129.271045 
L 156.284597 -128.821358 
L 155.482387 -128.371671 
L 154.680176 -127.921984 
L 153.877966 -127.472297 
L 153.075756 -127.02261 
L 152.273545 -126.572923 
L 151.471335 -126.123236 
L 150.669124 -125.67355 
L 149.866914 -125.223863 
L 149.064704 -124.774177 
L 148.262493 -124.324491 
L 147.460283 -123.874805 
L 146.658072 -123.425118 
L 145.855862 -122.975432 
L 145.053652 -122.525747 
L 144.251441 -122.076061 
L 143.449231 -121.626375 
L 142.64702 -121.17669 
L 141.84481 -120.727004 
L 141.0426 -120.277319 
L 140.240389 -119.84739 
L 139.438179 -119.46045 
L 138.635969 -119.073517 
L 137.833758 -118.68659 
L 137.031548 -118.299669 
L 136.229337 -117.912755 
L 135.427127 -117.525848 
L 134.624917 -117.138947 
L 133.822706 -116.719118 
L 133.020496 -116.290966 
L 132.218285 -115.86282 
L 131.416075 -115.434681 
L 130.613865 -115.006548 
L 129.811654 -114.578422 
L 129.009444 -114.150303 
L 128.207233 -113.72219 
L 127.405023 -113.294083 
L 126.602813 -112.865984 
L 125.800602 -112.43789 
L 124.998392 -112.009804 
L 124.196181 -111.581724 
L 123.393971 -111.15365 
L 122.591761 -110.725584 
L 121.78955 -110.297523 
L 120.98734 -109.86947 
L 120.18513 -109.441423 
L 119.382919 -109.013382 
L 118.580709 -108.585349 
L 117.778498 -108.157321 
L 116.976288 -107.729301 
L 116.174078 -107.301287 
L 115.371867 -106.87328 
L 114.569657 -106.445279 
L 113.767446 -106.017285 
L 112.965236 -105.589297 
L 112.163026 -105.161316 
L 111.360815 -104.733342 
L 110.558605 -104.305375 
L 109.756394 -103.877414 
L 108.954184 -103.449459 
L 108.151974 -103.021512 
L 107.349763 -102.59357 
L 106.547553 -102.165636 
L 105.745342 -101.737708 
L 104.943132 -101.309787 
L 104.140922 -100.881873 
L 103.338711 -100.453965 
L 102.536501 -100.026063 
L 101.734291 -99.598169 
L 100.93208 -99.170281 
L 100.12987 -98.7424 
L 99.327659 -98.314525 
L 98.525449 -97.886657 
L 97.723239 -97.458796 
L 96.921028 -97.030941 
L 96.118818 -96.603093 
L 95.316607 -96.175252 
L 94.514397 -95.747418 
L 93.712187 -95.31959 
L 92.909976 -94.891768 
L 92.107766 -94.463954 
L 91.305555 -94.036146 
L 90.503345 -93.608345 
L 89.701135 -93.18055 
L 88.898924 -92.752762 
L 88.096714 -92.324981 
L 87.294503 -91.897207 
L 86.492293 -91.469439 
L 85.690083 -91.041678 
L 84.887872 -90.613923 
L 84.085662 -90.186176 
L 83.283452 -89.758435 
z
" id="m5ab23eab3a" style="stroke:#000000;stroke-opacity:0.1;"/>
    </defs>
    <g clip-path="url(#pc6e54cb88c)">
     <use style="fill-opacity:0.1;stroke:#000000;stroke-opacity:0.1;" x="0" xlink:href="#m5ab23eab3a" y="310.890125"/>
    </g>
   </g>
   <g id="matplotlib.axis_1">
    <g id="xtick_1">
     <g id="line2d_1">
      <defs>
       <path d="M 0 0 
L 0 3.5 
" id="m45cb054283" style="stroke:#000000;stroke-width:0.8;"/>
      </defs>
      <g>
       <use style="stroke:#000000;stroke-width:0.8;" x="83.283452" xlink:href="#m45cb054283" y="273.312"/>
      </g>
     </g>
     <g id="text_1">
      <!-- 9.0 -->
      <g transform="translate(75.331889 287.910437)scale(0.1 -0.1)">
       <defs>
        <path d="M 10.984375 1.515625 
L 10.984375 10.5 
Q 14.703125 8.734375 18.5 7.8125 
Q 22.3125 6.890625 25.984375 6.890625 
Q 35.75 6.890625 40.890625 13.453125 
Q 46.046875 20.015625 46.78125 33.40625 
Q 43.953125 29.203125 39.59375 26.953125 
Q 35.25 24.703125 29.984375 24.703125 
Q 19.046875 24.703125 12.671875 31.3125 
Q 6.296875 37.9375 6.296875 49.421875 
Q 6.296875 60.640625 12.9375 67.421875 
Q 19.578125 74.21875 30.609375 74.21875 
Q 43.265625 74.21875 49.921875 64.515625 
Q 56.59375 54.828125 56.59375 36.375 
Q 56.59375 19.140625 48.40625 8.859375 
Q 40.234375 -1.421875 26.421875 -1.421875 
Q 22.703125 -1.421875 18.890625 -0.6875 
Q 15.09375 0.046875 10.984375 1.515625 
z
M 30.609375 32.421875 
Q 37.25 32.421875 41.125 36.953125 
Q 45.015625 41.5 45.015625 49.421875 
Q 45.015625 57.28125 41.125 61.84375 
Q 37.25 66.40625 30.609375 66.40625 
Q 23.96875 66.40625 20.09375 61.84375 
Q 16.21875 57.28125 16.21875 49.421875 
Q 16.21875 41.5 20.09375 36.953125 
Q 23.96875 32.421875 30.609375 32.421875 
z
" id="DejaVuSans-57"/>
        <path d="M 10.6875 12.40625 
L 21 12.40625 
L 21 0 
L 10.6875 0 
z
" id="DejaVuSans-46"/>
        <path d="M 31.78125 66.40625 
Q 24.171875 66.40625 20.328125 58.90625 
Q 16.5 51.421875 16.5 36.375 
Q 16.5 21.390625 20.328125 13.890625 
Q 24.171875 6.390625 31.78125 6.390625 
Q 39.453125 6.390625 43.28125 13.890625 
Q 47.125 21.390625 47.125 36.375 
Q 47.125 51.421875 43.28125 58.90625 
Q 39.453125 66.40625 31.78125 66.40625 
z
M 31.78125 74.21875 
Q 44.046875 74.21875 50.515625 64.515625 
Q 56.984375 54.828125 56.984375 36.375 
Q 56.984375 17.96875 50.515625 8.265625 
Q 44.046875 -1.421875 31.78125 -1.421875 
Q 19.53125 -1.421875 13.0625 8.265625 
Q 6.59375 17.96875 6.59375 36.375 
Q 6.59375 54.828125 13.0625 64.515625 
Q 19.53125 74.21875 31.78125 74.21875 
z
" id="DejaVuSans-48"/>
       </defs>
       <use xlink:href="#DejaVuSans-57"/>
       <use x="63.623047" xlink:href="#DejaVuSans-46"/>
       <use x="95.410156" xlink:href="#DejaVuSans-48"/>
      </g>
     </g>
    </g>
    <g id="xtick_2">
     <g id="line2d_2">
      <g>
       <use style="stroke:#000000;stroke-width:0.8;" x="129.009444" xlink:href="#m45cb054283" y="273.312"/>
      </g>
     </g>
     <g id="text_2">
      <!-- 9.5 -->
      <g transform="translate(121.057881 287.910437)scale(0.1 -0.1)">
       <defs>
        <path d="M 10.796875 72.90625 
L 49.515625 72.90625 
L 49.515625 64.59375 
L 19.828125 64.59375 
L 19.828125 46.734375 
Q 21.96875 47.46875 24.109375 47.828125 
Q 26.265625 48.1875 28.421875 48.1875 
Q 40.625 48.1875 47.75 41.5 
Q 54.890625 34.8125 54.890625 23.390625 
Q 54.890625 11.625 47.5625 5.09375 
Q 40.234375 -1.421875 26.90625 -1.421875 
Q 22.3125 -1.421875 17.546875 -0.640625 
Q 12.796875 0.140625 7.71875 1.703125 
L 7.71875 11.625 
Q 12.109375 9.234375 16.796875 8.0625 
Q 21.484375 6.890625 26.703125 6.890625 
Q 35.15625 6.890625 40.078125 11.328125 
Q 45.015625 15.765625 45.015625 23.390625 
Q 45.015625 31 40.078125 35.4375 
Q 35.15625 39.890625 26.703125 39.890625 
Q 22.75 39.890625 18.8125 39.015625 
Q 14.890625 38.140625 10.796875 36.28125 
z
" id="DejaVuSans-53"/>
       </defs>
       <use xlink:href="#DejaVuSans-57"/>
       <use x="63.623047" xlink:href="#DejaVuSans-46"/>
       <use x="95.410156" xlink:href="#DejaVuSans-53"/>
      </g>
     </g>
    </g>
    <g id="xtick_3">
     <g id="line2d_3">
      <g>
       <use style="stroke:#000000;stroke-width:0.8;" x="174.735436" xlink:href="#m45cb054283" y="273.312"/>
      </g>
     </g>
     <g id="text_3">
      <!-- 10.0 -->
      <g transform="translate(163.602624 287.910437)scale(0.1 -0.1)">
       <defs>
        <path d="M 12.40625 8.296875 
L 28.515625 8.296875 
L 28.515625 63.921875 
L 10.984375 60.40625 
L 10.984375 69.390625 
L 28.421875 72.90625 
L 38.28125 72.90625 
L 38.28125 8.296875 
L 54.390625 8.296875 
L 54.390625 0 
L 12.40625 0 
z
" id="DejaVuSans-49"/>
       </defs>
       <use xlink:href="#DejaVuSans-49"/>
       <use x="63.623047" xlink:href="#DejaVuSans-48"/>
       <use x="127.246094" xlink:href="#DejaVuSans-46"/>
       <use x="159.033203" xlink:href="#DejaVuSans-48"/>
      </g>
     </g>
    </g>
    <g id="xtick_4">
     <g id="line2d_4">
      <g>
       <use style="stroke:#000000;stroke-width:0.8;" x="220.461428" xlink:href="#m45cb054283" y="273.312"/>
      </g>
     </g>
     <g id="text_4">
      <!-- 10.5 -->
      <g transform="translate(209.328616 287.910437)scale(0.1 -0.1)">
       <use xlink:href="#DejaVuSans-49"/>
       <use x="63.623047" xlink:href="#DejaVuSans-48"/>
       <use x="127.246094" xlink:href="#DejaVuSans-46"/>
       <use x="159.033203" xlink:href="#DejaVuSans-53"/>
      </g>
     </g>
    </g>
    <g id="xtick_5">
     <g id="line2d_5">
      <g>
       <use style="stroke:#000000;stroke-width:0.8;" x="266.187421" xlink:href="#m45cb054283" y="273.312"/>
      </g>
     </g>
     <g id="text_5">
      <!-- 11.0 -->
      <g transform="translate(255.054608 287.910437)scale(0.1 -0.1)">
       <use xlink:href="#DejaVuSans-49"/>
       <use x="63.623047" xlink:href="#DejaVuSans-49"/>
       <use x="127.246094" xlink:href="#DejaVuSans-46"/>
       <use x="159.033203" xlink:href="#DejaVuSans-48"/>
      </g>
     </g>
    </g>
    <g id="xtick_6">
     <g id="line2d_6">
      <g>
       <use style="stroke:#000000;stroke-width:0.8;" x="311.913413" xlink:href="#m45cb054283" y="273.312"/>
      </g>
     </g>
     <g id="text_6">
      <!-- 11.5 -->
      <g transform="translate(300.780601 287.910437)scale(0.1 -0.1)">
       <use xlink:href="#DejaVuSans-49"/>
       <use x="63.623047" xlink:href="#DejaVuSans-49"/>
       <use x="127.246094" xlink:href="#DejaVuSans-46"/>
       <use x="159.033203" xlink:href="#DejaVuSans-53"/>
      </g>
     </g>
    </g>
    <g id="xtick_7">
     <g id="line2d_7">
      <g>
       <use style="stroke:#000000;stroke-width:0.8;" x="357.639405" xlink:href="#m45cb054283" y="273.312"/>
      </g>
     </g>
     <g id="text_7">
      <!-- 12.0 -->
      <g transform="translate(346.506593 287.910437)scale(0.1 -0.1)">
       <defs>
        <path d="M 19.1875 8.296875 
L 53.609375 8.296875 
L 53.609375 0 
L 7.328125 0 
L 7.328125 8.296875 
Q 12.9375 14.109375 22.625 23.890625 
Q 32.328125 33.6875 34.8125 36.53125 
Q 39.546875 41.84375 41.421875 45.53125 
Q 43.3125 49.21875 43.3125 52.78125 
Q 43.3125 58.59375 39.234375 62.25 
Q 35.15625 65.921875 28.609375 65.921875 
Q 23.96875 65.921875 18.8125 64.3125 
Q 13.671875 62.703125 7.8125 59.421875 
L 7.8125 69.390625 
Q 13.765625 71.78125 18.9375 73 
Q 24.125 74.21875 28.421875 74.21875 
Q 39.75 74.21875 46.484375 68.546875 
Q 53.21875 62.890625 53.21875 53.421875 
Q 53.21875 48.921875 51.53125 44.890625 
Q 49.859375 40.875 45.40625 35.40625 
Q 44.1875 33.984375 37.640625 27.21875 
Q 31.109375 20.453125 19.1875 8.296875 
z
" id="DejaVuSans-50"/>
       </defs>
       <use xlink:href="#DejaVuSans-49"/>
       <use x="63.623047" xlink:href="#DejaVuSans-50"/>
       <use x="127.246094" xlink:href="#DejaVuSans-46"/>
       <use x="159.033203" xlink:href="#DejaVuSans-48"/>
      </g>
     </g>
    </g>
    <g id="xtick_8">
     <g id="line2d_8">
      <g>
       <use style="stroke:#000000;stroke-width:0.8;" x="403.365398" xlink:href="#m45cb054283" y="273.312"/>
      </g>
     </g>
     <g id="text_8">
      <!-- 12.5 -->
      <g transform="translate(392.232585 287.910437)scale(0.1 -0.1)">
       <use xlink:href="#DejaVuSans-49"/>
       <use x="63.623047" xlink:href="#DejaVuSans-50"/>
       <use x="127.246094" xlink:href="#DejaVuSans-46"/>
       <use x="159.033203" xlink:href="#DejaVuSans-53"/>
      </g>
     </g>
    </g>
    <g id="text_9">
     <!-- Bulge mass [log, $M_\odot$] -->
     <g transform="translate(186.988125 301.590125)scale(0.1 -0.1)">
      <defs>
       <path d="M 19.671875 34.8125 
L 19.671875 8.109375 
L 35.5 8.109375 
Q 43.453125 8.109375 47.28125 11.40625 
Q 51.125 14.703125 51.125 21.484375 
Q 51.125 28.328125 47.28125 31.5625 
Q 43.453125 34.8125 35.5 34.8125 
z
M 19.671875 64.796875 
L 19.671875 42.828125 
L 34.28125 42.828125 
Q 41.5 42.828125 45.03125 45.53125 
Q 48.578125 48.25 48.578125 53.8125 
Q 48.578125 59.328125 45.03125 62.0625 
Q 41.5 64.796875 34.28125 64.796875 
z
M 9.8125 72.90625 
L 35.015625 72.90625 
Q 46.296875 72.90625 52.390625 68.21875 
Q 58.5 63.53125 58.5 54.890625 
Q 58.5 48.1875 55.375 44.234375 
Q 52.25 40.28125 46.1875 39.3125 
Q 53.46875 37.75 57.5 32.78125 
Q 61.53125 27.828125 61.53125 20.40625 
Q 61.53125 10.640625 54.890625 5.3125 
Q 48.25 0 35.984375 0 
L 9.8125 0 
z
" id="DejaVuSans-66"/>
       <path d="M 8.5 21.578125 
L 8.5 54.6875 
L 17.484375 54.6875 
L 17.484375 21.921875 
Q 17.484375 14.15625 20.5 10.265625 
Q 23.53125 6.390625 29.59375 6.390625 
Q 36.859375 6.390625 41.078125 11.03125 
Q 45.3125 15.671875 45.3125 23.6875 
L 45.3125 54.6875 
L 54.296875 54.6875 
L 54.296875 0 
L 45.3125 0 
L 45.3125 8.40625 
Q 42.046875 3.421875 37.71875 1 
Q 33.40625 -1.421875 27.6875 -1.421875 
Q 18.265625 -1.421875 13.375 4.4375 
Q 8.5 10.296875 8.5 21.578125 
z
M 31.109375 56 
z
" id="DejaVuSans-117"/>
       <path d="M 9.421875 75.984375 
L 18.40625 75.984375 
L 18.40625 0 
L 9.421875 0 
z
" id="DejaVuSans-108"/>
       <path d="M 45.40625 27.984375 
Q 45.40625 37.75 41.375 43.109375 
Q 37.359375 48.484375 30.078125 48.484375 
Q 22.859375 48.484375 18.828125 43.109375 
Q 14.796875 37.75 14.796875 27.984375 
Q 14.796875 18.265625 18.828125 12.890625 
Q 22.859375 7.515625 30.078125 7.515625 
Q 37.359375 7.515625 41.375 12.890625 
Q 45.40625 18.265625 45.40625 27.984375 
z
M 54.390625 6.78125 
Q 54.390625 -7.171875 48.1875 -13.984375 
Q 42 -20.796875 29.203125 -20.796875 
Q 24.46875 -20.796875 20.265625 -20.09375 
Q 16.0625 -19.390625 12.109375 -17.921875 
L 12.109375 -9.1875 
Q 16.0625 -11.328125 19.921875 -12.34375 
Q 23.78125 -13.375 27.78125 -13.375 
Q 36.625 -13.375 41.015625 -8.765625 
Q 45.40625 -4.15625 45.40625 5.171875 
L 45.40625 9.625 
Q 42.625 4.78125 38.28125 2.390625 
Q 33.9375 0 27.875 0 
Q 17.828125 0 11.671875 7.65625 
Q 5.515625 15.328125 5.515625 27.984375 
Q 5.515625 40.671875 11.671875 48.328125 
Q 17.828125 56 27.875 56 
Q 33.9375 56 38.28125 53.609375 
Q 42.625 51.21875 45.40625 46.390625 
L 45.40625 54.6875 
L 54.390625 54.6875 
z
" id="DejaVuSans-103"/>
       <path d="M 56.203125 29.59375 
L 56.203125 25.203125 
L 14.890625 25.203125 
Q 15.484375 15.921875 20.484375 11.0625 
Q 25.484375 6.203125 34.421875 6.203125 
Q 39.59375 6.203125 44.453125 7.46875 
Q 49.3125 8.734375 54.109375 11.28125 
L 54.109375 2.78125 
Q 49.265625 0.734375 44.1875 -0.34375 
Q 39.109375 -1.421875 33.890625 -1.421875 
Q 20.796875 -1.421875 13.15625 6.1875 
Q 5.515625 13.8125 5.515625 26.8125 
Q 5.515625 40.234375 12.765625 48.109375 
Q 20.015625 56 32.328125 56 
Q 43.359375 56 49.78125 48.890625 
Q 56.203125 41.796875 56.203125 29.59375 
z
M 47.21875 32.234375 
Q 47.125 39.59375 43.09375 43.984375 
Q 39.0625 48.390625 32.421875 48.390625 
Q 24.90625 48.390625 20.390625 44.140625 
Q 15.875 39.890625 15.1875 32.171875 
z
" id="DejaVuSans-101"/>
       <path id="DejaVuSans-32"/>
       <path d="M 52 44.1875 
Q 55.375 50.25 60.0625 53.125 
Q 64.75 56 71.09375 56 
Q 79.640625 56 84.28125 50.015625 
Q 88.921875 44.046875 88.921875 33.015625 
L 88.921875 0 
L 79.890625 0 
L 79.890625 32.71875 
Q 79.890625 40.578125 77.09375 44.375 
Q 74.3125 48.1875 68.609375 48.1875 
Q 61.625 48.1875 57.5625 43.546875 
Q 53.515625 38.921875 53.515625 30.90625 
L 53.515625 0 
L 44.484375 0 
L 44.484375 32.71875 
Q 44.484375 40.625 41.703125 44.40625 
Q 38.921875 48.1875 33.109375 48.1875 
Q 26.21875 48.1875 22.15625 43.53125 
Q 18.109375 38.875 18.109375 30.90625 
L 18.109375 0 
L 9.078125 0 
L 9.078125 54.6875 
L 18.109375 54.6875 
L 18.109375 46.1875 
Q 21.1875 51.21875 25.484375 53.609375 
Q 29.78125 56 35.6875 56 
Q 41.65625 56 45.828125 52.96875 
Q 50 49.953125 52 44.1875 
z
" id="DejaVuSans-109"/>
       <path d="M 34.28125 27.484375 
Q 23.390625 27.484375 19.1875 25 
Q 14.984375 22.515625 14.984375 16.5 
Q 14.984375 11.71875 18.140625 8.90625 
Q 21.296875 6.109375 26.703125 6.109375 
Q 34.1875 6.109375 38.703125 11.40625 
Q 43.21875 16.703125 43.21875 25.484375 
L 43.21875 27.484375 
z
M 52.203125 31.203125 
L 52.203125 0 
L 43.21875 0 
L 43.21875 8.296875 
Q 40.140625 3.328125 35.546875 0.953125 
Q 30.953125 -1.421875 24.3125 -1.421875 
Q 15.921875 -1.421875 10.953125 3.296875 
Q 6 8.015625 6 15.921875 
Q 6 25.140625 12.171875 29.828125 
Q 18.359375 34.515625 30.609375 34.515625 
L 43.21875 34.515625 
L 43.21875 35.40625 
Q 43.21875 41.609375 39.140625 45 
Q 35.0625 48.390625 27.6875 48.390625 
Q 23 48.390625 18.546875 47.265625 
Q 14.109375 46.140625 10.015625 43.890625 
L 10.015625 52.203125 
Q 14.9375 54.109375 19.578125 55.046875 
Q 24.21875 56 28.609375 56 
Q 40.484375 56 46.34375 49.84375 
Q 52.203125 43.703125 52.203125 31.203125 
z
" id="DejaVuSans-97"/>
       <path d="M 44.28125 53.078125 
L 44.28125 44.578125 
Q 40.484375 46.53125 36.375 47.5 
Q 32.28125 48.484375 27.875 48.484375 
Q 21.1875 48.484375 17.84375 46.4375 
Q 14.5 44.390625 14.5 40.28125 
Q 14.5 37.15625 16.890625 35.375 
Q 19.28125 33.59375 26.515625 31.984375 
L 29.59375 31.296875 
Q 39.15625 29.25 43.1875 25.515625 
Q 47.21875 21.78125 47.21875 15.09375 
Q 47.21875 7.46875 41.1875 3.015625 
Q 35.15625 -1.421875 24.609375 -1.421875 
Q 20.21875 -1.421875 15.453125 -0.5625 
Q 10.6875 0.296875 5.421875 2 
L 5.421875 11.28125 
Q 10.40625 8.6875 15.234375 7.390625 
Q 20.0625 6.109375 24.8125 6.109375 
Q 31.15625 6.109375 34.5625 8.28125 
Q 37.984375 10.453125 37.984375 14.40625 
Q 37.984375 18.0625 35.515625 20.015625 
Q 33.0625 21.96875 24.703125 23.78125 
L 21.578125 24.515625 
Q 13.234375 26.265625 9.515625 29.90625 
Q 5.8125 33.546875 5.8125 39.890625 
Q 5.8125 47.609375 11.28125 51.796875 
Q 16.75 56 26.8125 56 
Q 31.78125 56 36.171875 55.265625 
Q 40.578125 54.546875 44.28125 53.078125 
z
" id="DejaVuSans-115"/>
       <path d="M 8.59375 75.984375 
L 29.296875 75.984375 
L 29.296875 69 
L 17.578125 69 
L 17.578125 -6.203125 
L 29.296875 -6.203125 
L 29.296875 -13.1875 
L 8.59375 -13.1875 
z
" id="DejaVuSans-91"/>
       <path d="M 30.609375 48.390625 
Q 23.390625 48.390625 19.1875 42.75 
Q 14.984375 37.109375 14.984375 27.296875 
Q 14.984375 17.484375 19.15625 11.84375 
Q 23.34375 6.203125 30.609375 6.203125 
Q 37.796875 6.203125 41.984375 11.859375 
Q 46.1875 17.53125 46.1875 27.296875 
Q 46.1875 37.015625 41.984375 42.703125 
Q 37.796875 48.390625 30.609375 48.390625 
z
M 30.609375 56 
Q 42.328125 56 49.015625 48.375 
Q 55.71875 40.765625 55.71875 27.296875 
Q 55.71875 13.875 49.015625 6.21875 
Q 42.328125 -1.421875 30.609375 -1.421875 
Q 18.84375 -1.421875 12.171875 6.21875 
Q 5.515625 13.875 5.515625 27.296875 
Q 5.515625 40.765625 12.171875 48.375 
Q 18.84375 56 30.609375 56 
z
" id="DejaVuSans-111"/>
       <path d="M 11.71875 12.40625 
L 22.015625 12.40625 
L 22.015625 4 
L 14.015625 -11.625 
L 7.71875 -11.625 
L 11.71875 4 
z
" id="DejaVuSans-44"/>
       <path d="M 16.890625 72.90625 
L 31.6875 72.90625 
L 40.1875 23.78125 
L 68.40625 72.90625 
L 83.59375 72.90625 
L 69.390625 0 
L 59.8125 0 
L 72.21875 63.921875 
L 43.609375 14.015625 
L 33.984375 14.015625 
L 24.703125 64.109375 
L 12.3125 0 
L 2.6875 0 
z
" id="DejaVuSans-Oblique-77"/>
       <path d="M 36.71875 37.546875 
L 47.078125 37.546875 
L 47.078125 25.140625 
L 36.71875 25.140625 
z
M 51.65625 55.03125 
Q 47.125 56.9375 41.890625 56.9375 
Q 36.671875 56.9375 32.125 55.03125 
Q 27.640625 53.125 23.921875 49.421875 
Q 20.171875 45.65625 18.3125 41.15625 
Q 16.453125 36.671875 16.453125 31.34375 
Q 16.453125 26.171875 18.3125 21.671875 
Q 20.171875 17.1875 23.921875 13.421875 
Q 27.640625 9.71875 32.125 7.8125 
Q 36.671875 5.90625 41.890625 5.90625 
Q 47.125 5.90625 51.65625 7.8125 
Q 56.15625 9.71875 59.859375 13.421875 
Q 63.625 17.1875 65.46875 21.671875 
Q 67.328125 26.171875 67.328125 31.34375 
Q 67.328125 36.671875 65.46875 41.15625 
Q 63.625 45.65625 59.859375 49.421875 
Q 56.15625 53.125 51.65625 55.03125 
z
M 23.53125 59.375 
Q 35.15625 64.265625 41.890625 64.265625 
Q 48.640625 64.265625 54.4375 61.8125 
Q 60.25 59.375 65.046875 54.59375 
Q 69.875 49.75 72.265625 43.953125 
Q 74.65625 38.1875 74.65625 31.34375 
Q 74.65625 24.65625 72.265625 18.84375 
Q 69.875 13.09375 65.046875 8.25 
Q 60.25 3.46875 54.4375 1.015625 
Q 48.640625 -1.421875 41.890625 -1.421875 
Q 35.15625 -1.421875 29.34375 1.015625 
Q 23.53125 3.46875 18.75 8.25 
Q 13.921875 13.09375 11.53125 18.84375 
Q 9.125 24.65625 9.125 31.34375 
Q 9.125 38.1875 11.53125 43.953125 
Q 13.921875 49.75 18.75 54.59375 
Q 23.53125 59.375 35.15625 64.265625 
z
" id="DejaVuSans-8857"/>
       <path d="M 30.421875 75.984375 
L 30.421875 -13.1875 
L 9.71875 -13.1875 
L 9.71875 -6.203125 
L 21.390625 -6.203125 
L 21.390625 69 
L 9.71875 69 
L 9.71875 75.984375 
z
" id="DejaVuSans-93"/>
      </defs>
      <use transform="translate(0 0.015625)" xlink:href="#DejaVuSans-66"/>
      <use transform="translate(68.603516 0.015625)" xlink:href="#DejaVuSans-117"/>
      <use transform="translate(131.982422 0.015625)" xlink:href="#DejaVuSans-108"/>
      <use transform="translate(159.765625 0.015625)" xlink:href="#DejaVuSans-103"/>
      <use transform="translate(223.242188 0.015625)" xlink:href="#DejaVuSans-101"/>
      <use transform="translate(284.765625 0.015625)" xlink:href="#DejaVuSans-32"/>
      <use transform="translate(316.552734 0.015625)" xlink:href="#DejaVuSans-109"/>
      <use transform="translate(413.964844 0.015625)" xlink:href="#DejaVuSans-97"/>
      <use transform="translate(475.244141 0.015625)" xlink:href="#DejaVuSans-115"/>
      <use transform="translate(527.34375 0.015625)" xlink:href="#DejaVuSans-115"/>
      <use transform="translate(579.443359 0.015625)" xlink:href="#DejaVuSans-32"/>
      <use transform="translate(611.230469 0.015625)" xlink:href="#DejaVuSans-91"/>
      <use transform="translate(650.244141 0.015625)" xlink:href="#DejaVuSans-108"/>
      <use transform="translate(678.027344 0.015625)" xlink:href="#DejaVuSans-111"/>
      <use transform="translate(739.208984 0.015625)" xlink:href="#DejaVuSans-103"/>
      <use transform="translate(802.685547 0.015625)" xlink:href="#DejaVuSans-44"/>
      <use transform="translate(834.472656 0.015625)" xlink:href="#DejaVuSans-32"/>
      <use transform="translate(866.259766 0.015625)" xlink:href="#DejaVuSans-Oblique-77"/>
      <use transform="translate(966.176758 -16.390625)scale(0.7)" xlink:href="#DejaVuSans-8857"/>
      <use transform="translate(1041.201172 0.015625)" xlink:href="#DejaVuSans-93"/>
     </g>
    </g>
   </g>
   <g id="matplotlib.axis_2">
    <g id="ytick_1">
     <g id="line2d_9">
      <defs>
       <path d="M 0 0 
L -3.5 0 
" id="m82ee37a6f0" style="stroke:#000000;stroke-width:0.8;"/>
      </defs>
      <g>
       <use style="stroke:#000000;stroke-width:0.8;" x="62.478125" xlink:href="#m82ee37a6f0" y="223.417362"/>
      </g>
     </g>
     <g id="text_10">
      <!-- $\mathdefault{10^{2}}$ -->
      <g transform="translate(37.878125 227.216581)scale(0.1 -0.1)">
       <use transform="translate(0 0.765625)" xlink:href="#DejaVuSans-49"/>
       <use transform="translate(63.623047 0.765625)" xlink:href="#DejaVuSans-48"/>
       <use transform="translate(128.203125 39.046875)scale(0.7)" xlink:href="#DejaVuSans-50"/>
      </g>
     </g>
    </g>
    <g id="ytick_2">
     <g id="line2d_10">
      <defs>
       <path d="M 0 0 
L -2 0 
" id="mcab06dd85f" style="stroke:#000000;stroke-width:0.6;"/>
      </defs>
      <g>
       <use style="stroke:#000000;stroke-width:0.6;" x="62.478125" xlink:href="#mcab06dd85f" y="268.191852"/>
      </g>
     </g>
    </g>
    <g id="ytick_3">
     <g id="line2d_11">
      <g>
       <use style="stroke:#000000;stroke-width:0.6;" x="62.478125" xlink:href="#mcab06dd85f" y="251.429251"/>
      </g>
     </g>
    </g>
    <g id="ytick_4">
     <g id="line2d_12">
      <g>
       <use style="stroke:#000000;stroke-width:0.6;" x="62.478125" xlink:href="#mcab06dd85f" y="236.643588"/>
      </g>
     </g>
    </g>
    <g id="ytick_5">
     <g id="line2d_13">
      <g>
       <use style="stroke:#000000;stroke-width:0.6;" x="62.478125" xlink:href="#mcab06dd85f" y="136.40449"/>
      </g>
     </g>
     <g id="text_11">
      <!-- $\mathdefault{2\times10^{2}}$ -->
      <g transform="translate(20.878125 140.203708)scale(0.1 -0.1)">
       <defs>
        <path d="M 70.125 53.71875 
L 47.796875 31.296875 
L 70.125 8.984375 
L 64.3125 3.078125 
L 41.890625 25.484375 
L 19.484375 3.078125 
L 13.71875 8.984375 
L 35.984375 31.296875 
L 13.71875 53.71875 
L 19.484375 59.625 
L 41.890625 37.203125 
L 64.3125 59.625 
z
" id="DejaVuSans-215"/>
       </defs>
       <use transform="translate(0 0.765625)" xlink:href="#DejaVuSans-50"/>
       <use transform="translate(83.105469 0.765625)" xlink:href="#DejaVuSans-215"/>
       <use transform="translate(186.376953 0.765625)" xlink:href="#DejaVuSans-49"/>
       <use transform="translate(250 0.765625)" xlink:href="#DejaVuSans-48"/>
       <use transform="translate(314.580078 39.046875)scale(0.7)" xlink:href="#DejaVuSans-50"/>
      </g>
     </g>
    </g>
    <g id="ytick_6">
     <g id="line2d_14">
      <g>
       <use style="stroke:#000000;stroke-width:0.6;" x="62.478125" xlink:href="#mcab06dd85f" y="85.505222"/>
      </g>
     </g>
     <g id="text_12">
      <!-- $\mathdefault{3\times10^{2}}$ -->
      <g transform="translate(20.878125 89.304441)scale(0.1 -0.1)">
       <defs>
        <path d="M 40.578125 39.3125 
Q 47.65625 37.796875 51.625 33 
Q 55.609375 28.21875 55.609375 21.1875 
Q 55.609375 10.40625 48.1875 4.484375 
Q 40.765625 -1.421875 27.09375 -1.421875 
Q 22.515625 -1.421875 17.65625 -0.515625 
Q 12.796875 0.390625 7.625 2.203125 
L 7.625 11.71875 
Q 11.71875 9.328125 16.59375 8.109375 
Q 21.484375 6.890625 26.8125 6.890625 
Q 36.078125 6.890625 40.9375 10.546875 
Q 45.796875 14.203125 45.796875 21.1875 
Q 45.796875 27.640625 41.28125 31.265625 
Q 36.765625 34.90625 28.71875 34.90625 
L 20.21875 34.90625 
L 20.21875 43.015625 
L 29.109375 43.015625 
Q 36.375 43.015625 40.234375 45.921875 
Q 44.09375 48.828125 44.09375 54.296875 
Q 44.09375 59.90625 40.109375 62.90625 
Q 36.140625 65.921875 28.71875 65.921875 
Q 24.65625 65.921875 20.015625 65.03125 
Q 15.375 64.15625 9.8125 62.3125 
L 9.8125 71.09375 
Q 15.4375 72.65625 20.34375 73.4375 
Q 25.25 74.21875 29.59375 74.21875 
Q 40.828125 74.21875 47.359375 69.109375 
Q 53.90625 64.015625 53.90625 55.328125 
Q 53.90625 49.265625 50.4375 45.09375 
Q 46.96875 40.921875 40.578125 39.3125 
z
" id="DejaVuSans-51"/>
       </defs>
       <use transform="translate(0 0.765625)" xlink:href="#DejaVuSans-51"/>
       <use transform="translate(83.105469 0.765625)" xlink:href="#DejaVuSans-215"/>
       <use transform="translate(186.376953 0.765625)" xlink:href="#DejaVuSans-49"/>
       <use transform="translate(250 0.765625)" xlink:href="#DejaVuSans-48"/>
       <use transform="translate(314.580078 39.046875)scale(0.7)" xlink:href="#DejaVuSans-50"/>
      </g>
     </g>
    </g>
    <g id="ytick_7">
     <g id="line2d_15">
      <g>
       <use style="stroke:#000000;stroke-width:0.6;" x="62.478125" xlink:href="#mcab06dd85f" y="49.391617"/>
      </g>
     </g>
     <g id="text_13">
      <!-- $\mathdefault{4\times10^{2}}$ -->
      <g transform="translate(20.878125 53.190836)scale(0.1 -0.1)">
       <defs>
        <path d="M 37.796875 64.3125 
L 12.890625 25.390625 
L 37.796875 25.390625 
z
M 35.203125 72.90625 
L 47.609375 72.90625 
L 47.609375 25.390625 
L 58.015625 25.390625 
L 58.015625 17.1875 
L 47.609375 17.1875 
L 47.609375 0 
L 37.796875 0 
L 37.796875 17.1875 
L 4.890625 17.1875 
L 4.890625 26.703125 
z
" id="DejaVuSans-52"/>
       </defs>
       <use transform="translate(0 0.765625)" xlink:href="#DejaVuSans-52"/>
       <use transform="translate(83.105469 0.765625)" xlink:href="#DejaVuSans-215"/>
       <use transform="translate(186.376953 0.765625)" xlink:href="#DejaVuSans-49"/>
       <use transform="translate(250 0.765625)" xlink:href="#DejaVuSans-48"/>
       <use transform="translate(314.580078 39.046875)scale(0.7)" xlink:href="#DejaVuSans-50"/>
      </g>
     </g>
    </g>
    <g id="ytick_8">
     <g id="line2d_16">
      <g>
       <use style="stroke:#000000;stroke-width:0.6;" x="62.478125" xlink:href="#mcab06dd85f" y="21.379729"/>
      </g>
     </g>
    </g>
    <g id="text_14">
     <!-- Velocity dispersion [log, km/s] -->
     <g transform="translate(14.798437 215.502875)rotate(-90)scale(0.1 -0.1)">
      <defs>
       <path d="M 28.609375 0 
L 0.78125 72.90625 
L 11.078125 72.90625 
L 34.1875 11.53125 
L 57.328125 72.90625 
L 67.578125 72.90625 
L 39.796875 0 
z
" id="DejaVuSans-86"/>
       <path d="M 48.78125 52.59375 
L 48.78125 44.1875 
Q 44.96875 46.296875 41.140625 47.34375 
Q 37.3125 48.390625 33.40625 48.390625 
Q 24.65625 48.390625 19.8125 42.84375 
Q 14.984375 37.3125 14.984375 27.296875 
Q 14.984375 17.28125 19.8125 11.734375 
Q 24.65625 6.203125 33.40625 6.203125 
Q 37.3125 6.203125 41.140625 7.25 
Q 44.96875 8.296875 48.78125 10.40625 
L 48.78125 2.09375 
Q 45.015625 0.34375 40.984375 -0.53125 
Q 36.96875 -1.421875 32.421875 -1.421875 
Q 20.0625 -1.421875 12.78125 6.34375 
Q 5.515625 14.109375 5.515625 27.296875 
Q 5.515625 40.671875 12.859375 48.328125 
Q 20.21875 56 33.015625 56 
Q 37.15625 56 41.109375 55.140625 
Q 45.0625 54.296875 48.78125 52.59375 
z
" id="DejaVuSans-99"/>
       <path d="M 9.421875 54.6875 
L 18.40625 54.6875 
L 18.40625 0 
L 9.421875 0 
z
M 9.421875 75.984375 
L 18.40625 75.984375 
L 18.40625 64.59375 
L 9.421875 64.59375 
z
" id="DejaVuSans-105"/>
       <path d="M 18.3125 70.21875 
L 18.3125 54.6875 
L 36.8125 54.6875 
L 36.8125 47.703125 
L 18.3125 47.703125 
L 18.3125 18.015625 
Q 18.3125 11.328125 20.140625 9.421875 
Q 21.96875 7.515625 27.59375 7.515625 
L 36.8125 7.515625 
L 36.8125 0 
L 27.59375 0 
Q 17.1875 0 13.234375 3.875 
Q 9.28125 7.765625 9.28125 18.015625 
L 9.28125 47.703125 
L 2.6875 47.703125 
L 2.6875 54.6875 
L 9.28125 54.6875 
L 9.28125 70.21875 
z
" id="DejaVuSans-116"/>
       <path d="M 32.171875 -5.078125 
Q 28.375 -14.84375 24.75 -17.8125 
Q 21.140625 -20.796875 15.09375 -20.796875 
L 7.90625 -20.796875 
L 7.90625 -13.28125 
L 13.1875 -13.28125 
Q 16.890625 -13.28125 18.9375 -11.515625 
Q 21 -9.765625 23.484375 -3.21875 
L 25.09375 0.875 
L 2.984375 54.6875 
L 12.5 54.6875 
L 29.59375 11.921875 
L 46.6875 54.6875 
L 56.203125 54.6875 
z
" id="DejaVuSans-121"/>
       <path d="M 45.40625 46.390625 
L 45.40625 75.984375 
L 54.390625 75.984375 
L 54.390625 0 
L 45.40625 0 
L 45.40625 8.203125 
Q 42.578125 3.328125 38.25 0.953125 
Q 33.9375 -1.421875 27.875 -1.421875 
Q 17.96875 -1.421875 11.734375 6.484375 
Q 5.515625 14.40625 5.515625 27.296875 
Q 5.515625 40.1875 11.734375 48.09375 
Q 17.96875 56 27.875 56 
Q 33.9375 56 38.25 53.625 
Q 42.578125 51.265625 45.40625 46.390625 
z
M 14.796875 27.296875 
Q 14.796875 17.390625 18.875 11.75 
Q 22.953125 6.109375 30.078125 6.109375 
Q 37.203125 6.109375 41.296875 11.75 
Q 45.40625 17.390625 45.40625 27.296875 
Q 45.40625 37.203125 41.296875 42.84375 
Q 37.203125 48.484375 30.078125 48.484375 
Q 22.953125 48.484375 18.875 42.84375 
Q 14.796875 37.203125 14.796875 27.296875 
z
" id="DejaVuSans-100"/>
       <path d="M 18.109375 8.203125 
L 18.109375 -20.796875 
L 9.078125 -20.796875 
L 9.078125 54.6875 
L 18.109375 54.6875 
L 18.109375 46.390625 
Q 20.953125 51.265625 25.265625 53.625 
Q 29.59375 56 35.59375 56 
Q 45.5625 56 51.78125 48.09375 
Q 58.015625 40.1875 58.015625 27.296875 
Q 58.015625 14.40625 51.78125 6.484375 
Q 45.5625 -1.421875 35.59375 -1.421875 
Q 29.59375 -1.421875 25.265625 0.953125 
Q 20.953125 3.328125 18.109375 8.203125 
z
M 48.6875 27.296875 
Q 48.6875 37.203125 44.609375 42.84375 
Q 40.53125 48.484375 33.40625 48.484375 
Q 26.265625 48.484375 22.1875 42.84375 
Q 18.109375 37.203125 18.109375 27.296875 
Q 18.109375 17.390625 22.1875 11.75 
Q 26.265625 6.109375 33.40625 6.109375 
Q 40.53125 6.109375 44.609375 11.75 
Q 48.6875 17.390625 48.6875 27.296875 
z
" id="DejaVuSans-112"/>
       <path d="M 41.109375 46.296875 
Q 39.59375 47.171875 37.8125 47.578125 
Q 36.03125 48 33.890625 48 
Q 26.265625 48 22.1875 43.046875 
Q 18.109375 38.09375 18.109375 28.8125 
L 18.109375 0 
L 9.078125 0 
L 9.078125 54.6875 
L 18.109375 54.6875 
L 18.109375 46.1875 
Q 20.953125 51.171875 25.484375 53.578125 
Q 30.03125 56 36.53125 56 
Q 37.453125 56 38.578125 55.875 
Q 39.703125 55.765625 41.0625 55.515625 
z
" id="DejaVuSans-114"/>
       <path d="M 54.890625 33.015625 
L 54.890625 0 
L 45.90625 0 
L 45.90625 32.71875 
Q 45.90625 40.484375 42.875 44.328125 
Q 39.84375 48.1875 33.796875 48.1875 
Q 26.515625 48.1875 22.3125 43.546875 
Q 18.109375 38.921875 18.109375 30.90625 
L 18.109375 0 
L 9.078125 0 
L 9.078125 54.6875 
L 18.109375 54.6875 
L 18.109375 46.1875 
Q 21.34375 51.125 25.703125 53.5625 
Q 30.078125 56 35.796875 56 
Q 45.21875 56 50.046875 50.171875 
Q 54.890625 44.34375 54.890625 33.015625 
z
" id="DejaVuSans-110"/>
       <path d="M 9.078125 75.984375 
L 18.109375 75.984375 
L 18.109375 31.109375 
L 44.921875 54.6875 
L 56.390625 54.6875 
L 27.390625 29.109375 
L 57.625 0 
L 45.90625 0 
L 18.109375 26.703125 
L 18.109375 0 
L 9.078125 0 
z
" id="DejaVuSans-107"/>
       <path d="M 25.390625 72.90625 
L 33.6875 72.90625 
L 8.296875 -9.28125 
L 0 -9.28125 
z
" id="DejaVuSans-47"/>
      </defs>
      <use xlink:href="#DejaVuSans-86"/>
      <use x="60.658203" xlink:href="#DejaVuSans-101"/>
      <use x="122.181641" xlink:href="#DejaVuSans-108"/>
      <use x="149.964844" xlink:href="#DejaVuSans-111"/>
      <use x="211.146484" xlink:href="#DejaVuSans-99"/>
      <use x="266.126953" xlink:href="#DejaVuSans-105"/>
      <use x="293.910156" xlink:href="#DejaVuSans-116"/>
      <use x="333.119141" xlink:href="#DejaVuSans-121"/>
      <use x="392.298828" xlink:href="#DejaVuSans-32"/>
      <use x="424.085938" xlink:href="#DejaVuSans-100"/>
      <use x="487.5625" xlink:href="#DejaVuSans-105"/>
      <use x="515.345703" xlink:href="#DejaVuSans-115"/>
      <use x="567.445312" xlink:href="#DejaVuSans-112"/>
      <use x="630.921875" xlink:href="#DejaVuSans-101"/>
      <use x="692.445312" xlink:href="#DejaVuSans-114"/>
      <use x="733.558594" xlink:href="#DejaVuSans-115"/>
      <use x="785.658203" xlink:href="#DejaVuSans-105"/>
      <use x="813.441406" xlink:href="#DejaVuSans-111"/>
      <use x="874.623047" xlink:href="#DejaVuSans-110"/>
      <use x="938.001953" xlink:href="#DejaVuSans-32"/>
      <use x="969.789062" xlink:href="#DejaVuSans-91"/>
      <use x="1008.802734" xlink:href="#DejaVuSans-108"/>
      <use x="1036.585938" xlink:href="#DejaVuSans-111"/>
      <use x="1097.767578" xlink:href="#DejaVuSans-103"/>
      <use x="1161.244141" xlink:href="#DejaVuSans-44"/>
      <use x="1193.03125" xlink:href="#DejaVuSans-32"/>
      <use x="1224.818359" xlink:href="#DejaVuSans-107"/>
      <use x="1282.728516" xlink:href="#DejaVuSans-109"/>
      <use x="1380.140625" xlink:href="#DejaVuSans-47"/>
      <use x="1413.832031" xlink:href="#DejaVuSans-115"/>
      <use x="1465.931641" xlink:href="#DejaVuSans-93"/>
     </g>
    </g>
   </g>
   <g id="LineCollection_1">
    <path clip-path="url(#pc6e54cb88c)" d="M 78.710852 256.227276 
L 97.001249 256.227276 
" style="fill:none;stroke:#ffa500;stroke-width:1.5;"/>
    <path clip-path="url(#pc6e54cb88c)" d="M 334.776409 121.062139 
L 351.237766 121.062139 
" style="fill:none;stroke:#ffa500;stroke-width:1.5;"/>
    <path clip-path="url(#pc6e54cb88c)" d="M 282.648778 74.303767 
L 299.110135 74.303767 
" style="fill:none;stroke:#ffa500;stroke-width:1.5;"/>
    <path clip-path="url(#pc6e54cb88c)" d="M 225.948548 159.041054 
L 242.409905 159.041054 
" style="fill:none;stroke:#ffa500;stroke-width:1.5;"/>
    <path clip-path="url(#pc6e54cb88c)" d="M 303.682734 79.380444 
L 320.144092 79.380444 
" style="fill:none;stroke:#ffa500;stroke-width:1.5;"/>
    <path clip-path="url(#pc6e54cb88c)" d="M 325.631211 95.972369 
L 342.092568 95.972369 
" style="fill:none;stroke:#ffa500;stroke-width:1.5;"/>
    <path clip-path="url(#pc6e54cb88c)" d="M 288.135897 98.731448 
L 304.597254 98.731448 
" style="fill:none;stroke:#ffa500;stroke-width:1.5;"/>
    <path clip-path="url(#pc6e54cb88c)" d="M 190.282274 153.167091 
L 206.743631 153.167091 
" style="fill:none;stroke:#ffa500;stroke-width:1.5;"/>
    <path clip-path="url(#pc6e54cb88c)" d="M 263.443861 159.795008 
L 279.905218 159.795008 
" style="fill:none;stroke:#ffa500;stroke-width:1.5;"/>
    <path clip-path="url(#pc6e54cb88c)" d="M 313.742453 86.766871 
L 330.20381 86.766871 
" style="fill:none;stroke:#ffa500;stroke-width:1.5;"/>
    <path clip-path="url(#pc6e54cb88c)" d="M 212.23075 176.77386 
L 228.692107 176.77386 
" style="fill:none;stroke:#ffa500;stroke-width:1.5;"/>
    <path clip-path="url(#pc6e54cb88c)" d="M 249.726064 132.693883 
L 266.187421 132.693883 
" style="fill:none;stroke:#ffa500;stroke-width:1.5;"/>
    <path clip-path="url(#pc6e54cb88c)" d="M 281.734258 119.406734 
L 298.195615 119.406734 
" style="fill:none;stroke:#ffa500;stroke-width:1.5;"/>
    <path clip-path="url(#pc6e54cb88c)" d="M 258.871262 148.243596 
L 275.332619 148.243596 
" style="fill:none;stroke:#ffa500;stroke-width:1.5;"/>
    <path clip-path="url(#pc6e54cb88c)" d="M 328.37477 98.731448 
L 344.836128 98.731448 
" style="fill:none;stroke:#ffa500;stroke-width:1.5;"/>
    <path clip-path="url(#pc6e54cb88c)" d="M 317.400532 79.380444 
L 333.861889 79.380444 
" style="fill:none;stroke:#ffa500;stroke-width:1.5;"/>
    <path clip-path="url(#pc6e54cb88c)" d="M 244.238944 112.475336 
L 260.700302 112.475336 
" style="fill:none;stroke:#ffa500;stroke-width:1.5;"/>
    <path clip-path="url(#pc6e54cb88c)" d="M 314.656973 87.190255 
L 331.11833 87.190255 
" style="fill:none;stroke:#ffa500;stroke-width:1.5;"/>
    <path clip-path="url(#pc6e54cb88c)" d="M 304.597254 148.243596 
L 321.058612 148.243596 
" style="fill:none;stroke:#ffa500;stroke-width:1.5;"/>
    <path clip-path="url(#pc6e54cb88c)" d="M 246.982504 159.041054 
L 263.443861 159.041054 
" style="fill:none;stroke:#ffa500;stroke-width:1.5;"/>
    <path clip-path="url(#pc6e54cb88c)" d="M 334.776409 85.505222 
L 351.237766 85.505222 
" style="fill:none;stroke:#ffa500;stroke-width:1.5;"/>
    <path clip-path="url(#pc6e54cb88c)" d="M 244.238944 142.843493 
L 260.700302 142.843493 
" style="fill:none;stroke:#ffa500;stroke-width:1.5;"/>
    <path clip-path="url(#pc6e54cb88c)" d="M 323.802171 75.844069 
L 340.263528 75.844069 
" style="fill:none;stroke:#ffa500;stroke-width:1.5;"/>
    <path clip-path="url(#pc6e54cb88c)" d="M 132.667523 146.191239 
L 150.95792 146.191239 
" style="fill:none;stroke:#ffa500;stroke-width:1.5;"/>
    <path clip-path="url(#pc6e54cb88c)" d="M 316.486012 55.83062 
L 332.94737 55.83062 
" style="fill:none;stroke:#ffa500;stroke-width:1.5;"/>
    <path clip-path="url(#pc6e54cb88c)" d="M 255.213183 151.740564 
L 271.67454 151.740564 
" style="fill:none;stroke:#ffa500;stroke-width:1.5;"/>
    <path clip-path="url(#pc6e54cb88c)" d="M 272.58906 64.373578 
L 289.050417 64.373578 
" style="fill:none;stroke:#ffa500;stroke-width:1.5;"/>
    <path clip-path="url(#pc6e54cb88c)" d="M 357.639405 67.234854 
L 374.100763 67.234854 
" style="fill:none;stroke:#ffa500;stroke-width:1.5;"/>
    <path clip-path="url(#pc6e54cb88c)" d="M 283.563298 123.30386 
L 300.024655 123.30386 
" style="fill:none;stroke:#ffa500;stroke-width:1.5;"/>
    <path clip-path="url(#pc6e54cb88c)" d="M 262.529341 172.518095 
L 278.990699 172.518095 
" style="fill:none;stroke:#ffa500;stroke-width:1.5;"/>
    <path clip-path="url(#pc6e54cb88c)" d="M 317.400532 72.404592 
L 333.861889 72.404592 
" style="fill:none;stroke:#ffa500;stroke-width:1.5;"/>
    <path clip-path="url(#pc6e54cb88c)" d="M 312.827933 74.303767 
L 329.28929 74.303767 
" style="fill:none;stroke:#ffa500;stroke-width:1.5;"/>
    <path clip-path="url(#pc6e54cb88c)" d="M 257.956742 147.555742 
L 274.418099 147.555742 
" style="fill:none;stroke:#ffa500;stroke-width:1.5;"/>
    <path clip-path="url(#pc6e54cb88c)" d="M 218.632389 114.041257 
L 235.093746 114.041257 
" style="fill:none;stroke:#ffa500;stroke-width:1.5;"/>
    <path clip-path="url(#pc6e54cb88c)" d="M 321.058612 78.190549 
L 337.519969 78.190549 
" style="fill:none;stroke:#ffa500;stroke-width:1.5;"/>
    <path clip-path="url(#pc6e54cb88c)" d="M 280.819738 52.892131 
L 297.281096 52.892131 
" style="fill:none;stroke:#ffa500;stroke-width:1.5;"/>
    <path clip-path="url(#pc6e54cb88c)" d="M 312.827933 100.60511 
L 331.11833 100.60511 
" style="fill:none;stroke:#ffa500;stroke-width:1.5;"/>
    <path clip-path="url(#pc6e54cb88c)" d="M 317.400532 88.898213 
L 333.861889 88.898213 
" style="fill:none;stroke:#ffa500;stroke-width:1.5;"/>
    <path clip-path="url(#pc6e54cb88c)" d="M 326.545731 104.925985 
L 343.007088 104.925985 
" style="fill:none;stroke:#ffa500;stroke-width:1.5;"/>
    <path clip-path="url(#pc6e54cb88c)" d="M 312.827933 73.160817 
L 329.28929 73.160817 
" style="fill:none;stroke:#ffa500;stroke-width:1.5;"/>
    <path clip-path="url(#pc6e54cb88c)" d="M 331.11833 90.629731 
L 349.408727 90.629731 
" style="fill:none;stroke:#ffa500;stroke-width:1.5;"/>
    <path clip-path="url(#pc6e54cb88c)" d="M 329.28929 76.621365 
L 345.750647 76.621365 
" style="fill:none;stroke:#ffa500;stroke-width:1.5;"/>
   </g>
   <g id="LineCollection_2">
    <path clip-path="url(#pc6e54cb88c)" d="M 87.856051 261.216 
L 87.856051 251.429251 
" style="fill:none;stroke:#ffa500;stroke-width:1.5;"/>
    <path clip-path="url(#pc6e54cb88c)" d="M 343.007088 126.163506 
L 343.007088 116.160009 
" style="fill:none;stroke:#ffa500;stroke-width:1.5;"/>
    <path clip-path="url(#pc6e54cb88c)" d="M 290.879457 77.79641 
L 290.879457 70.905672 
" style="fill:none;stroke:#ffa500;stroke-width:1.5;"/>
    <path clip-path="url(#pc6e54cb88c)" d="M 234.179226 161.316639 
L 234.179226 156.805985 
" style="fill:none;stroke:#ffa500;stroke-width:1.5;"/>
    <path clip-path="url(#pc6e54cb88c)" d="M 311.913413 80.581727 
L 311.913413 78.190549 
" style="fill:none;stroke:#ffa500;stroke-width:1.5;"/>
    <path clip-path="url(#pc6e54cb88c)" d="M 333.861889 96.88534 
L 333.861889 95.065989 
" style="fill:none;stroke:#ffa500;stroke-width:1.5;"/>
    <path clip-path="url(#pc6e54cb88c)" d="M 296.366576 103.469106 
L 296.366576 94.166107 
" style="fill:none;stroke:#ffa500;stroke-width:1.5;"/>
    <path clip-path="url(#pc6e54cb88c)" d="M 198.512952 159.041054 
L 198.512952 147.555742 
" style="fill:none;stroke:#ffa500;stroke-width:1.5;"/>
    <path clip-path="url(#pc6e54cb88c)" d="M 271.67454 172.518095 
L 271.67454 148.243596 
" style="fill:none;stroke:#ffa500;stroke-width:1.5;"/>
    <path clip-path="url(#pc6e54cb88c)" d="M 321.973131 91.944225 
L 321.973131 81.794616 
" style="fill:none;stroke:#ffa500;stroke-width:1.5;"/>
    <path clip-path="url(#pc6e54cb88c)" d="M 220.461428 182.985242 
L 220.461428 170.855381 
" style="fill:none;stroke:#ffa500;stroke-width:1.5;"/>
    <path clip-path="url(#pc6e54cb88c)" d="M 257.956742 138.940597 
L 257.956742 126.743336 
" style="fill:none;stroke:#ffa500;stroke-width:1.5;"/>
    <path clip-path="url(#pc6e54cb88c)" d="M 289.964937 125.586341 
L 289.964937 113.51711 
" style="fill:none;stroke:#ffa500;stroke-width:1.5;"/>
    <path clip-path="url(#pc6e54cb88c)" d="M 267.101941 154.610016 
L 267.101941 142.184525 
" style="fill:none;stroke:#ffa500;stroke-width:1.5;"/>
    <path clip-path="url(#pc6e54cb88c)" d="M 336.605449 111.957674 
L 336.605449 86.766871 
" style="fill:none;stroke:#ffa500;stroke-width:1.5;"/>
    <path clip-path="url(#pc6e54cb88c)" d="M 325.631211 85.505222 
L 325.631211 73.540645 
" style="fill:none;stroke:#ffa500;stroke-width:1.5;"/>
    <path clip-path="url(#pc6e54cb88c)" d="M 252.469623 118.859748 
L 252.469623 106.399972 
" style="fill:none;stroke:#ffa500;stroke-width:1.5;"/>
    <path clip-path="url(#pc6e54cb88c)" d="M 322.887651 93.27263 
L 322.887651 81.389016 
" style="fill:none;stroke:#ffa500;stroke-width:1.5;"/>
    <path clip-path="url(#pc6e54cb88c)" d="M 312.827933 151.740564 
L 312.827933 144.841408 
" style="fill:none;stroke:#ffa500;stroke-width:1.5;"/>
    <path clip-path="url(#pc6e54cb88c)" d="M 255.213183 165.203422 
L 255.213183 153.167091 
" style="fill:none;stroke:#ffa500;stroke-width:1.5;"/>
    <path clip-path="url(#pc6e54cb88c)" d="M 343.007088 88.46904 
L 343.007088 82.609768 
" style="fill:none;stroke:#ffa500;stroke-width:1.5;"/>
    <path clip-path="url(#pc6e54cb88c)" d="M 252.469623 148.93524 
L 252.469623 137.033729 
" style="fill:none;stroke:#ffa500;stroke-width:1.5;"/>
    <path clip-path="url(#pc6e54cb88c)" d="M 332.03285 87.190255 
L 332.03285 65.438929 
" style="fill:none;stroke:#ffa500;stroke-width:1.5;"/>
    <path clip-path="url(#pc6e54cb88c)" d="M 141.812722 152.451801 
L 141.812722 140.228127 
" style="fill:none;stroke:#ffa500;stroke-width:1.5;"/>
    <path clip-path="url(#pc6e54cb88c)" d="M 324.716691 62.269623 
L 324.716691 49.705843 
" style="fill:none;stroke:#ffa500;stroke-width:1.5;"/>
    <path clip-path="url(#pc6e54cb88c)" d="M 263.443861 157.546595 
L 263.443861 146.191239 
" style="fill:none;stroke:#ffa500;stroke-width:1.5;"/>
    <path clip-path="url(#pc6e54cb88c)" d="M 280.819738 69.424439 
L 280.819738 59.518104 
" style="fill:none;stroke:#ffa500;stroke-width:1.5;"/>
    <path clip-path="url(#pc6e54cb88c)" d="M 365.870084 69.056846 
L 365.870084 65.438929 
" style="fill:none;stroke:#ffa500;stroke-width:1.5;"/>
    <path clip-path="url(#pc6e54cb88c)" d="M 291.793976 129.683354 
L 291.793976 117.232947 
" style="fill:none;stroke:#ffa500;stroke-width:1.5;"/>
    <path clip-path="url(#pc6e54cb88c)" d="M 270.76002 178.517402 
L 270.76002 166.792469 
" style="fill:none;stroke:#ffa500;stroke-width:1.5;"/>
    <path clip-path="url(#pc6e54cb88c)" d="M 325.631211 73.160817 
L 325.631211 71.652895 
" style="fill:none;stroke:#ffa500;stroke-width:1.5;"/>
    <path clip-path="url(#pc6e54cb88c)" d="M 321.058612 78.585929 
L 321.058612 70.162871 
" style="fill:none;stroke:#ffa500;stroke-width:1.5;"/>
    <path clip-path="url(#pc6e54cb88c)" d="M 266.187421 153.88648 
L 266.187421 141.528999 
" style="fill:none;stroke:#ffa500;stroke-width:1.5;"/>
    <path clip-path="url(#pc6e54cb88c)" d="M 226.863067 119.956114 
L 226.863067 108.392601 
" style="fill:none;stroke:#ffa500;stroke-width:1.5;"/>
    <path clip-path="url(#pc6e54cb88c)" d="M 329.28929 78.982558 
L 329.28929 77.403505 
" style="fill:none;stroke:#ffa500;stroke-width:1.5;"/>
    <path clip-path="url(#pc6e54cb88c)" d="M 289.050417 53.864005 
L 289.050417 51.927724 
" style="fill:none;stroke:#ffa500;stroke-width:1.5;"/>
    <path clip-path="url(#pc6e54cb88c)" d="M 321.973131 106.895172 
L 321.973131 94.615242 
" style="fill:none;stroke:#ffa500;stroke-width:1.5;"/>
    <path clip-path="url(#pc6e54cb88c)" d="M 325.631211 91.066368 
L 325.631211 86.766871 
" style="fill:none;stroke:#ffa500;stroke-width:1.5;"/>
    <path clip-path="url(#pc6e54cb88c)" d="M 334.776409 118.315135 
L 334.776409 92.828264 
" style="fill:none;stroke:#ffa500;stroke-width:1.5;"/>
    <path clip-path="url(#pc6e54cb88c)" d="M 321.058612 75.071555 
L 321.058612 71.278728 
" style="fill:none;stroke:#ffa500;stroke-width:1.5;"/>
    <path clip-path="url(#pc6e54cb88c)" d="M 340.263528 96.88534 
L 340.263528 84.671112 
" style="fill:none;stroke:#ffa500;stroke-width:1.5;"/>
    <path clip-path="url(#pc6e54cb88c)" d="M 337.519969 83.019338 
L 337.519969 70.533722 
" style="fill:none;stroke:#ffa500;stroke-width:1.5;"/>
   </g>
   <g id="line2d_17">
    <path clip-path="url(#pc6e54cb88c)" d="M 83.283452 237.101236 
L 117.778498 216.305561 
L 162.70228 187.52329 
L 169.119963 183.598117 
L 180.350909 176.646008 
L 189.175223 171.091707 
L 199.603958 164.829546 
L 202.8128 163.016824 
L 214.043745 156.981588 
L 217.252587 155.221423 
L 223.67027 151.630512 
L 231.692374 147.078089 
L 237.307847 143.708661 
L 248.538792 137.331509 
L 252.549844 135.244598 
L 272.605104 122.919415 
L 294.264784 109.93807 
L 307.902361 101.935925 
L 310.308992 100.455527 
L 316.726675 96.717005 
L 319.935517 94.769434 
L 342.397408 81.874964 
L 345.60625 79.907282 
L 348.815091 77.886802 
L 372.079192 64.180592 
L 384.112348 56.90346 
L 395.343294 50.402063 
L 398.552135 48.53167 
L 403.365398 45.629165 
L 403.365398 45.629165 
" style="fill:none;stroke:#000000;stroke-linecap:square;stroke-width:1.5;"/>
   </g>
   <g id="line2d_18">
    <path clip-path="url(#pc6e54cb88c)" d="M 83.283452 261.099525 
L 100.93208 250.231796 
L 107.349763 246.406374 
L 128.207233 233.52769 
L 144.251441 223.811716 
L 148.262493 221.410754 
L 153.075756 218.591909 
L 157.086808 216.411859 
L 172.328805 207.409947 
L 210.032693 186.058683 
L 212.439325 184.665295 
L 218.054797 181.388628 
L 231.692374 173.507239 
L 243.72553 166.546708 
L 260.571948 156.88713 
L 273.407314 148.444957 
L 282.231629 143.71656 
L 284.63826 142.256965 
L 298.275836 133.612637 
L 301.484678 131.809232 
L 340.792987 108.962533 
L 352.023933 102.43327 
L 363.254878 95.499068 
L 368.870351 92.275743 
L 380.101296 84.880493 
L 403.365398 71.311731 
L 403.365398 71.311731 
" style="fill:none;stroke:#ff0000;stroke-dasharray:5.55,2.4;stroke-dashoffset:0;stroke-width:1.5;"/>
   </g>
   <g id="line2d_19">
    <path clip-path="url(#pc6e54cb88c)" d="M 83.283452 212.142699 
L 95.316607 204.915308 
L 128.207233 185.720814 
L 153.877966 169.574357 
L 164.306701 162.790511 
L 174.735436 155.942506 
L 189.175223 146.876654 
L 206.823852 136.935499 
L 226.076901 125.16893 
L 234.099005 119.981967 
L 236.505636 118.47049 
L 240.516688 115.962536 
L 246.934371 111.677911 
L 254.154265 107.160077 
L 260.571948 103.023671 
L 266.989631 99.116863 
L 275.011735 94.78276 
L 283.033839 90.091296 
L 285.44047 88.779606 
L 293.462574 83.629758 
L 304.69352 76.933397 
L 313.517834 72.165258 
L 316.726675 70.54448 
L 322.342148 67.352099 
L 331.968673 61.687573 
L 339.990777 56.861456 
L 385.716769 29.76157 
L 402.563187 19.806038 
L 403.365398 19.296 
L 403.365398 19.296 
" style="fill:none;stroke:#ff0000;stroke-dasharray:5.55,2.4;stroke-dashoffset:0;stroke-width:1.5;"/>
   </g>
   <g id="line2d_20">
    <defs>
     <path d="M 0 3 
C 0.795609 3 1.55874 2.683901 2.12132 2.12132 
C 2.683901 1.55874 3 0.795609 3 0 
C 3 -0.795609 2.683901 -1.55874 2.12132 -2.12132 
C 1.55874 -2.683901 0.795609 -3 0 -3 
C -0.795609 -3 -1.55874 -2.683901 -2.12132 -2.12132 
C -2.683901 -1.55874 -3 -0.795609 -3 0 
C -3 0.795609 -2.683901 1.55874 -2.12132 2.12132 
C -1.55874 2.683901 -0.795609 3 0 3 
z
" id="m8ac4be94f1" style="stroke:#ffa500;"/>
    </defs>
    <g clip-path="url(#pc6e54cb88c)">
     <use style="fill:#ffa500;stroke:#ffa500;" x="87.856051" xlink:href="#m8ac4be94f1" y="256.227276"/>
     <use style="fill:#ffa500;stroke:#ffa500;" x="343.007088" xlink:href="#m8ac4be94f1" y="121.062139"/>
     <use style="fill:#ffa500;stroke:#ffa500;" x="290.879457" xlink:href="#m8ac4be94f1" y="74.303767"/>
     <use style="fill:#ffa500;stroke:#ffa500;" x="234.179226" xlink:href="#m8ac4be94f1" y="159.041054"/>
     <use style="fill:#ffa500;stroke:#ffa500;" x="311.913413" xlink:href="#m8ac4be94f1" y="79.380444"/>
     <use style="fill:#ffa500;stroke:#ffa500;" x="333.861889" xlink:href="#m8ac4be94f1" y="95.972369"/>
     <use style="fill:#ffa500;stroke:#ffa500;" x="296.366576" xlink:href="#m8ac4be94f1" y="98.731448"/>
     <use style="fill:#ffa500;stroke:#ffa500;" x="198.512952" xlink:href="#m8ac4be94f1" y="153.167091"/>
     <use style="fill:#ffa500;stroke:#ffa500;" x="271.67454" xlink:href="#m8ac4be94f1" y="159.795008"/>
     <use style="fill:#ffa500;stroke:#ffa500;" x="321.973131" xlink:href="#m8ac4be94f1" y="86.766871"/>
     <use style="fill:#ffa500;stroke:#ffa500;" x="220.461428" xlink:href="#m8ac4be94f1" y="176.77386"/>
     <use style="fill:#ffa500;stroke:#ffa500;" x="257.956742" xlink:href="#m8ac4be94f1" y="132.693883"/>
     <use style="fill:#ffa500;stroke:#ffa500;" x="289.964937" xlink:href="#m8ac4be94f1" y="119.406734"/>
     <use style="fill:#ffa500;stroke:#ffa500;" x="267.101941" xlink:href="#m8ac4be94f1" y="148.243596"/>
     <use style="fill:#ffa500;stroke:#ffa500;" x="336.605449" xlink:href="#m8ac4be94f1" y="98.731448"/>
     <use style="fill:#ffa500;stroke:#ffa500;" x="325.631211" xlink:href="#m8ac4be94f1" y="79.380444"/>
     <use style="fill:#ffa500;stroke:#ffa500;" x="252.469623" xlink:href="#m8ac4be94f1" y="112.475336"/>
     <use style="fill:#ffa500;stroke:#ffa500;" x="322.887651" xlink:href="#m8ac4be94f1" y="87.190255"/>
     <use style="fill:#ffa500;stroke:#ffa500;" x="312.827933" xlink:href="#m8ac4be94f1" y="148.243596"/>
     <use style="fill:#ffa500;stroke:#ffa500;" x="255.213183" xlink:href="#m8ac4be94f1" y="159.041054"/>
     <use style="fill:#ffa500;stroke:#ffa500;" x="343.007088" xlink:href="#m8ac4be94f1" y="85.505222"/>
     <use style="fill:#ffa500;stroke:#ffa500;" x="252.469623" xlink:href="#m8ac4be94f1" y="142.843493"/>
     <use style="fill:#ffa500;stroke:#ffa500;" x="332.03285" xlink:href="#m8ac4be94f1" y="75.844069"/>
     <use style="fill:#ffa500;stroke:#ffa500;" x="141.812722" xlink:href="#m8ac4be94f1" y="146.191239"/>
     <use style="fill:#ffa500;stroke:#ffa500;" x="324.716691" xlink:href="#m8ac4be94f1" y="55.83062"/>
     <use style="fill:#ffa500;stroke:#ffa500;" x="263.443861" xlink:href="#m8ac4be94f1" y="151.740564"/>
     <use style="fill:#ffa500;stroke:#ffa500;" x="280.819738" xlink:href="#m8ac4be94f1" y="64.373578"/>
     <use style="fill:#ffa500;stroke:#ffa500;" x="365.870084" xlink:href="#m8ac4be94f1" y="67.234854"/>
     <use style="fill:#ffa500;stroke:#ffa500;" x="291.793976" xlink:href="#m8ac4be94f1" y="123.30386"/>
     <use style="fill:#ffa500;stroke:#ffa500;" x="270.76002" xlink:href="#m8ac4be94f1" y="172.518095"/>
     <use style="fill:#ffa500;stroke:#ffa500;" x="325.631211" xlink:href="#m8ac4be94f1" y="72.404592"/>
     <use style="fill:#ffa500;stroke:#ffa500;" x="321.058612" xlink:href="#m8ac4be94f1" y="74.303767"/>
     <use style="fill:#ffa500;stroke:#ffa500;" x="266.187421" xlink:href="#m8ac4be94f1" y="147.555742"/>
     <use style="fill:#ffa500;stroke:#ffa500;" x="226.863067" xlink:href="#m8ac4be94f1" y="114.041257"/>
     <use style="fill:#ffa500;stroke:#ffa500;" x="329.28929" xlink:href="#m8ac4be94f1" y="78.190549"/>
     <use style="fill:#ffa500;stroke:#ffa500;" x="289.050417" xlink:href="#m8ac4be94f1" y="52.892131"/>
     <use style="fill:#ffa500;stroke:#ffa500;" x="321.973131" xlink:href="#m8ac4be94f1" y="100.60511"/>
     <use style="fill:#ffa500;stroke:#ffa500;" x="325.631211" xlink:href="#m8ac4be94f1" y="88.898213"/>
     <use style="fill:#ffa500;stroke:#ffa500;" x="334.776409" xlink:href="#m8ac4be94f1" y="104.925985"/>
     <use style="fill:#ffa500;stroke:#ffa500;" x="321.058612" xlink:href="#m8ac4be94f1" y="73.160817"/>
     <use style="fill:#ffa500;stroke:#ffa500;" x="340.263528" xlink:href="#m8ac4be94f1" y="90.629731"/>
     <use style="fill:#ffa500;stroke:#ffa500;" x="337.519969" xlink:href="#m8ac4be94f1" y="76.621365"/>
    </g>
   </g>
   <g id="patch_3">
    <path d="M 62.478125 273.312 
L 62.478125 7.2 
" style="fill:none;stroke:#000000;stroke-linecap:square;stroke-linejoin:miter;stroke-width:0.8;"/>
   </g>
   <g id="patch_4">
    <path d="M 419.598125 273.312 
L 419.598125 7.2 
" style="fill:none;stroke:#000000;stroke-linecap:square;stroke-linejoin:miter;stroke-width:0.8;"/>
   </g>
   <g id="patch_5">
    <path d="M 62.478125 273.312 
L 419.598125 273.312 
" style="fill:none;stroke:#000000;stroke-linecap:square;stroke-linejoin:miter;stroke-width:0.8;"/>
   </g>
   <g id="patch_6">
    <path d="M 62.478125 7.2 
L 419.598125 7.2 
" style="fill:none;stroke:#000000;stroke-linecap:square;stroke-linejoin:miter;stroke-width:0.8;"/>
   </g>
  </g>
 </g>
 <defs>
  <clipPath id="pc6e54cb88c">
   <rect height="266.112" width="357.12" x="62.478125" y="7.2"/>
  </clipPath>
 </defs>
</svg>
