<?xml version="1.0" encoding="utf-8" standalone="no"?>
<!DOCTYPE svg PUBLIC "-//W3C//DTD SVG 1.1//EN"
  "http://www.w3.org/Graphics/SVG/1.1/DTD/svg11.dtd">
<!-- Created with matplotlib (https://matplotlib.org/) -->
<svg height="310.890125pt" version="1.1" viewBox="0 0 426.798125 310.890125" width="426.798125pt" xmlns="http://www.w3.org/2000/svg" xmlns:xlink="http://www.w3.org/1999/xlink">
 <metadata>
  <rdf:RDF xmlns:cc="http://creativecommons.org/ns#" xmlns:dc="http://purl.org/dc/elements/1.1/" xmlns:rdf="http://www.w3.org/1999/02/22-rdf-syntax-ns#">
   <cc:Work>
    <dc:type rdf:resource="http://purl.org/dc/dcmitype/StillImage"/>
    <dc:date>2020-11-30T22:12:05.698009</dc:date>
    <dc:format>image/svg+xml</dc:format>
    <dc:creator>
     <cc:Agent>
      <dc:title>Matplotlib v3.3.2, https://matplotlib.org/</dc:title>
     </cc:Agent>
    </dc:creator>
   </cc:Work>
  </rdf:RDF>
 </metadata>
 <defs>
  <style type="text/css">*{stroke-linecap:butt;stroke-linejoin:round;}</style>
 </defs>
 <g id="figure_1">
  <g id="patch_1">
   <path d="M 0 310.890125 
L 426.798125 310.890125 
L 426.798125 0 
L 0 0 
z
" style="fill:#ffffff;"/>
  </g>
  <g id="axes_1">
   <g id="patch_2">
    <path d="M 62.478125 273.312 
L 419.598125 273.312 
L 419.598125 7.2 
L 62.478125 7.2 
z
" style="fill:#ffffff;"/>
   </g>
   <g id="PolyCollection_1">
    <defs>
     <path d="M 83.283452 -96.116901 
L 83.283452 -65.976447 
L 84.085662 -66.517222 
L 84.887872 -67.057997 
L 85.690083 -67.598771 
L 86.492293 -68.139546 
L 87.294503 -68.68032 
L 88.096714 -69.221095 
L 88.898924 -69.76187 
L 89.701135 -70.302644 
L 90.503345 -70.843419 
L 91.305555 -71.384194 
L 92.107766 -71.924969 
L 92.909976 -72.465743 
L 93.712187 -73.006518 
L 94.514397 -73.547293 
L 95.316607 -74.088067 
L 96.118818 -74.628842 
L 96.921028 -75.169617 
L 97.723239 -75.710392 
L 98.525449 -76.251166 
L 99.327659 -76.791941 
L 100.12987 -77.332716 
L 100.93208 -77.873491 
L 101.734291 -78.414266 
L 102.536501 -78.95504 
L 103.338711 -79.495815 
L 104.140922 -80.03659 
L 104.943132 -80.577365 
L 105.745342 -81.11814 
L 106.547553 -81.658914 
L 107.349763 -82.199689 
L 108.151974 -82.740464 
L 108.954184 -83.281239 
L 109.756394 -83.822014 
L 110.558605 -84.362789 
L 111.360815 -84.903564 
L 112.163026 -85.444339 
L 112.965236 -85.985113 
L 113.767446 -86.525888 
L 114.569657 -87.066663 
L 115.371867 -87.607438 
L 116.174078 -88.148213 
L 116.976288 -88.688988 
L 117.778498 -89.229763 
L 118.580709 -89.770538 
L 119.382919 -90.311313 
L 120.18513 -90.852088 
L 120.98734 -91.392863 
L 121.78955 -91.933638 
L 122.591761 -92.474413 
L 123.393971 -93.015188 
L 124.196181 -93.555963 
L 124.998392 -94.096738 
L 125.800602 -94.637513 
L 126.602813 -95.178288 
L 127.405023 -95.719063 
L 128.207233 -96.259838 
L 129.009444 -96.800613 
L 129.811654 -97.341388 
L 130.613865 -97.882163 
L 131.416075 -98.422938 
L 132.218285 -98.963713 
L 133.020496 -99.468321 
L 133.822706 -99.96623 
L 134.624917 -100.464143 
L 135.427127 -100.96206 
L 136.229337 -101.459982 
L 137.031548 -101.957908 
L 137.833758 -102.455838 
L 138.635969 -102.953772 
L 139.438179 -103.45171 
L 140.240389 -103.949653 
L 141.0426 -104.4476 
L 141.84481 -104.945551 
L 142.64702 -105.443506 
L 143.449231 -105.941465 
L 144.251441 -106.439429 
L 145.053652 -106.937397 
L 145.855862 -107.435369 
L 146.658072 -107.933346 
L 147.460283 -108.431326 
L 148.262493 -108.929311 
L 149.064704 -109.4273 
L 149.866914 -109.925293 
L 150.669124 -110.423291 
L 151.471335 -110.921293 
L 152.273545 -111.419298 
L 153.075756 -111.917309 
L 153.877966 -112.415323 
L 154.680176 -112.913342 
L 155.482387 -113.411365 
L 156.284597 -113.909392 
L 157.086808 -114.407423 
L 157.889018 -114.905459 
L 158.691228 -115.403498 
L 159.493439 -115.901542 
L 160.295649 -116.399591 
L 161.097859 -116.885964 
L 161.90007 -117.38353 
L 162.70228 -117.866089 
L 163.504491 -118.348648 
L 164.306701 -118.831208 
L 165.108911 -119.313769 
L 165.911122 -119.796329 
L 166.713332 -120.27889 
L 167.515543 -120.761452 
L 168.317753 -121.244014 
L 169.119963 -121.726576 
L 169.922174 -122.209139 
L 170.724384 -122.691702 
L 171.526595 -123.174266 
L 172.328805 -123.65683 
L 173.131015 -124.139395 
L 173.933226 -124.62196 
L 174.735436 -125.104526 
L 175.537647 -125.587091 
L 176.339857 -126.069658 
L 177.142067 -126.552225 
L 177.944278 -127.034792 
L 178.746488 -127.517359 
L 179.548698 -127.999928 
L 180.350909 -128.482496 
L 181.153119 -128.965065 
L 181.95533 -129.447635 
L 182.75754 -129.930204 
L 183.55975 -130.412775 
L 184.361961 -130.895345 
L 185.164171 -131.377917 
L 185.966382 -131.860488 
L 186.768592 -132.350983 
L 187.570802 -132.850792 
L 188.373013 -133.350608 
L 189.175223 -133.850429 
L 189.977434 -134.350256 
L 190.779644 -134.850088 
L 191.581854 -135.349926 
L 192.384065 -135.849769 
L 193.186275 -136.349619 
L 193.988486 -136.866639 
L 194.790696 -137.404427 
L 195.592906 -137.94222 
L 196.395117 -138.489098 
L 197.197327 -139.038729 
L 197.999537 -139.588359 
L 198.801748 -140.13799 
L 199.603958 -140.687621 
L 200.406169 -141.237252 
L 201.208379 -141.750186 
L 202.010589 -142.228729 
L 202.8128 -142.707281 
L 203.61501 -143.172914 
L 204.417221 -143.634469 
L 205.219431 -144.096023 
L 206.021641 -144.557578 
L 206.823852 -145.019133 
L 207.626062 -145.480688 
L 208.428273 -145.942243 
L 209.230483 -146.403798 
L 210.032693 -146.865352 
L 210.834904 -147.326907 
L 211.637114 -147.788462 
L 212.439325 -148.250017 
L 213.241535 -148.711572 
L 214.043745 -149.173127 
L 214.845956 -149.634682 
L 215.648166 -150.103225 
L 216.450376 -150.615179 
L 217.252587 -151.127139 
L 218.054797 -151.639105 
L 218.857008 -152.092823 
L 219.659218 -152.527762 
L 220.461428 -152.967497 
L 221.263639 -153.407237 
L 222.065849 -153.860048 
L 222.86806 -154.334128 
L 223.67027 -154.811224 
L 224.47248 -155.292396 
L 225.274691 -155.773569 
L 226.076901 -156.254743 
L 226.879112 -156.735917 
L 227.681322 -157.217093 
L 228.483532 -157.698269 
L 229.285743 -158.179446 
L 230.087953 -158.660624 
L 230.890164 -159.141802 
L 231.692374 -159.622982 
L 232.494584 -160.104162 
L 233.296795 -160.585343 
L 234.099005 -161.066525 
L 234.901216 -161.547708 
L 235.703426 -162.028891 
L 236.505636 -162.510075 
L 237.307847 -162.991261 
L 238.110057 -163.472447 
L 238.912267 -163.953633 
L 239.714478 -164.434821 
L 240.516688 -164.916009 
L 241.318899 -165.397199 
L 242.121109 -165.878389 
L 242.923319 -166.35958 
L 243.72553 -166.840771 
L 244.52774 -167.321964 
L 245.329951 -167.803157 
L 246.132161 -168.284351 
L 246.934371 -168.765546 
L 247.736582 -169.246742 
L 248.538792 -169.727939 
L 249.341003 -170.209136 
L 250.143213 -170.690334 
L 250.945423 -171.171533 
L 251.747634 -171.652733 
L 252.549844 -172.133934 
L 253.352055 -172.615136 
L 254.154265 -173.096338 
L 254.956475 -173.577541 
L 255.758686 -174.058745 
L 256.560896 -174.53995 
L 257.363106 -175.021155 
L 258.165317 -175.504591 
L 258.967527 -176.008745 
L 259.769738 -176.512909 
L 260.571948 -177.017083 
L 261.374158 -177.521268 
L 262.176369 -178.025462 
L 262.978579 -178.529666 
L 263.78079 -179.033879 
L 264.583 -179.538103 
L 265.38521 -180.016809 
L 266.187421 -180.433124 
L 266.989631 -180.863078 
L 267.791842 -181.394627 
L 268.594052 -181.926228 
L 269.396262 -182.435818 
L 270.198473 -182.899125 
L 271.000683 -183.362449 
L 271.802894 -183.825789 
L 272.605104 -184.289145 
L 273.407314 -184.752518 
L 274.209525 -185.215907 
L 275.011735 -185.666089 
L 275.813945 -186.080767 
L 276.616156 -186.495449 
L 277.418366 -186.910134 
L 278.220577 -187.342551 
L 279.022787 -187.795323 
L 279.824997 -188.24812 
L 280.627208 -188.70094 
L 281.429418 -189.146804 
L 282.231629 -189.577706 
L 283.033839 -190.008643 
L 283.836049 -190.439616 
L 284.63826 -190.870624 
L 285.44047 -191.301668 
L 286.242681 -191.770671 
L 287.044891 -192.276999 
L 287.847101 -192.696152 
L 288.649312 -193.115307 
L 289.451522 -193.534463 
L 290.253733 -193.95362 
L 291.055943 -194.372777 
L 291.858153 -194.791936 
L 292.660364 -195.211096 
L 293.462574 -195.630257 
L 294.264784 -196.049419 
L 295.066995 -196.468582 
L 295.869205 -196.887746 
L 296.671416 -197.306911 
L 297.473626 -197.726077 
L 298.275836 -198.145244 
L 299.078047 -198.569273 
L 299.880257 -199.001788 
L 300.682468 -199.434305 
L 301.484678 -199.866823 
L 302.286888 -200.299344 
L 303.089099 -200.731866 
L 303.891309 -201.16439 
L 304.69352 -201.596916 
L 305.49573 -202.029443 
L 306.29794 -202.461973 
L 307.100151 -202.894504 
L 307.902361 -203.327037 
L 308.704572 -203.759572 
L 309.506782 -204.192108 
L 310.308992 -204.624647 
L 311.111203 -205.057187 
L 311.913413 -205.489729 
L 312.715623 -205.944373 
L 313.517834 -206.405928 
L 314.320044 -206.867483 
L 315.122255 -207.329038 
L 315.924465 -207.790593 
L 316.726675 -208.252148 
L 317.528886 -208.713702 
L 318.331096 -209.175257 
L 319.133307 -209.636812 
L 319.935517 -210.098367 
L 320.737727 -210.559922 
L 321.539938 -211.021477 
L 322.342148 -211.483032 
L 323.144359 -211.944586 
L 323.946569 -212.406141 
L 324.748779 -212.867696 
L 325.55099 -213.329251 
L 326.3532 -213.790806 
L 327.155411 -214.252361 
L 327.957621 -214.713915 
L 328.759831 -215.17547 
L 329.562042 -215.637025 
L 330.364252 -216.09858 
L 331.166462 -216.560135 
L 331.968673 -217.02169 
L 332.770883 -217.483245 
L 333.573094 -217.936597 
L 334.375304 -218.374934 
L 335.177514 -218.813287 
L 335.979725 -219.154235 
L 336.781935 -219.481791 
L 337.584146 -219.876607 
L 338.386356 -220.307908 
L 339.188566 -220.73925 
L 339.990777 -221.180571 
L 340.792987 -221.624285 
L 341.595198 -222.068018 
L 342.397408 -222.51177 
L 343.199618 -222.95554 
L 344.001829 -223.406178 
L 344.804039 -223.86546 
L 345.60625 -224.324745 
L 346.40846 -224.784032 
L 347.21067 -225.243322 
L 348.012881 -225.702615 
L 348.815091 -226.161909 
L 349.617301 -226.621207 
L 350.419512 -227.080506 
L 351.221722 -227.539809 
L 352.023933 -227.999113 
L 352.826143 -228.458421 
L 353.628353 -228.91773 
L 354.430564 -229.332272 
L 355.232774 -229.696117 
L 356.034985 -230.059971 
L 356.837195 -230.423832 
L 357.639405 -230.787702 
L 358.441616 -231.151579 
L 359.243826 -231.515464 
L 360.046037 -231.879357 
L 360.848247 -232.243257 
L 361.650457 -232.607166 
L 362.452668 -232.971082 
L 363.254878 -233.335006 
L 364.057089 -233.698939 
L 364.859299 -234.062879 
L 365.661509 -234.426827 
L 366.46372 -234.790782 
L 367.26593 -235.154746 
L 368.06814 -235.518718 
L 368.870351 -235.882697 
L 369.672561 -236.246684 
L 370.474772 -236.61068 
L 371.276982 -236.974683 
L 372.079192 -237.354511 
L 372.881403 -237.763419 
L 373.683613 -238.172334 
L 374.485824 -238.581258 
L 375.288034 -238.990189 
L 376.090244 -239.399128 
L 376.892455 -239.808075 
L 377.694665 -240.21703 
L 378.496876 -240.625992 
L 379.299086 -241.034963 
L 380.101296 -241.443941 
L 380.903507 -241.852928 
L 381.705717 -242.261922 
L 382.507928 -242.670924 
L 383.310138 -243.079934 
L 384.112348 -243.488952 
L 384.914559 -243.897978 
L 385.716769 -244.307011 
L 386.51898 -244.716052 
L 387.32119 -245.125102 
L 388.1234 -245.534159 
L 388.925611 -245.943224 
L 389.727821 -246.352297 
L 390.530031 -246.761377 
L 391.332242 -247.170466 
L 392.134452 -247.579562 
L 392.936663 -247.988666 
L 393.738873 -248.397778 
L 394.541083 -248.806898 
L 395.343294 -249.216025 
L 396.145504 -249.625161 
L 396.947715 -250.034304 
L 397.749925 -250.443455 
L 398.552135 -250.852614 
L 399.354346 -251.261781 
L 400.156556 -251.670955 
L 400.958767 -252.080138 
L 401.760977 -252.489328 
L 402.563187 -252.898526 
L 403.365398 -253.307731 
L 403.365398 -276.983488 
L 403.365398 -276.983488 
L 402.563187 -276.450227 
L 401.760977 -275.91697 
L 400.958767 -275.383716 
L 400.156556 -274.850465 
L 399.354346 -274.317218 
L 398.552135 -273.783974 
L 397.749925 -273.250733 
L 396.947715 -272.717496 
L 396.145504 -272.184262 
L 395.343294 -271.651031 
L 394.541083 -271.117804 
L 393.738873 -270.58458 
L 392.936663 -270.051359 
L 392.134452 -269.518142 
L 391.332242 -268.984928 
L 390.530031 -268.451717 
L 389.727821 -267.91851 
L 388.925611 -267.385306 
L 388.1234 -266.852105 
L 387.32119 -266.318908 
L 386.51898 -265.785713 
L 385.716769 -265.252523 
L 384.914559 -264.719335 
L 384.112348 -264.186151 
L 383.310138 -263.65297 
L 382.507928 -263.119793 
L 381.705717 -262.586619 
L 380.903507 -262.053448 
L 380.101296 -261.52028 
L 379.299086 -260.987116 
L 378.496876 -260.453955 
L 377.694665 -259.8947 
L 376.892455 -259.332482 
L 376.090244 -258.770268 
L 375.288034 -258.208058 
L 374.485824 -257.64585 
L 373.683613 -257.083646 
L 372.881403 -256.521445 
L 372.079192 -255.959248 
L 371.276982 -255.397054 
L 370.474772 -254.834863 
L 369.672561 -254.272675 
L 368.870351 -253.710491 
L 368.06814 -253.14831 
L 367.26593 -252.586133 
L 366.46372 -252.023958 
L 365.661509 -251.461787 
L 364.859299 -250.89962 
L 364.057089 -250.337456 
L 363.254878 -249.775295 
L 362.452668 -249.213137 
L 361.650457 -248.650983 
L 360.848247 -248.088832 
L 360.046037 -247.526684 
L 359.243826 -246.96454 
L 358.441616 -246.478985 
L 357.639405 -246.004303 
L 356.837195 -245.529625 
L 356.034985 -245.054952 
L 355.232774 -244.580285 
L 354.430564 -244.105622 
L 353.628353 -243.630965 
L 352.826143 -243.156312 
L 352.023933 -242.681664 
L 351.221722 -242.207021 
L 350.419512 -241.732384 
L 349.617301 -241.257751 
L 348.815091 -240.783123 
L 348.012881 -240.3085 
L 347.21067 -239.833882 
L 346.40846 -239.359269 
L 345.60625 -238.884661 
L 344.804039 -238.410058 
L 344.001829 -237.93546 
L 343.199618 -237.452939 
L 342.397408 -236.942826 
L 341.595198 -236.432717 
L 340.792987 -235.922614 
L 339.990777 -235.405611 
L 339.188566 -234.87856 
L 338.386356 -234.35151 
L 337.584146 -233.824461 
L 336.781935 -233.297412 
L 335.979725 -232.770364 
L 335.177514 -232.243316 
L 334.375304 -231.716269 
L 333.573094 -231.189223 
L 332.770883 -230.662177 
L 331.968673 -230.135131 
L 331.166462 -229.607623 
L 330.364252 -229.068654 
L 329.562042 -228.569051 
L 328.759831 -228.059775 
L 327.957621 -227.550504 
L 327.155411 -227.041239 
L 326.3532 -226.531979 
L 325.55099 -226.022726 
L 324.748779 -225.513477 
L 323.946569 -225.004235 
L 323.144359 -224.494998 
L 322.342148 -223.985766 
L 321.539938 -223.476541 
L 320.737727 -222.967321 
L 319.935517 -222.458106 
L 319.133307 -221.948897 
L 318.331096 -221.439694 
L 317.528886 -220.930497 
L 316.726675 -220.412262 
L 315.924465 -219.883494 
L 315.122255 -219.354728 
L 314.320044 -218.825962 
L 313.517834 -218.297198 
L 312.715623 -217.768435 
L 311.913413 -217.239673 
L 311.111203 -216.710911 
L 310.308992 -216.182152 
L 309.506782 -215.653393 
L 308.704572 -215.124635 
L 307.902361 -214.595878 
L 307.100151 -214.067123 
L 306.29794 -213.538368 
L 305.49573 -213.009615 
L 304.69352 -212.480862 
L 303.891309 -211.952111 
L 303.089099 -211.423361 
L 302.286888 -210.894612 
L 301.484678 -210.365864 
L 300.682468 -209.837117 
L 299.880257 -209.308371 
L 299.078047 -208.819396 
L 298.275836 -208.386365 
L 297.473626 -207.953363 
L 296.671416 -207.461755 
L 295.869205 -206.941593 
L 295.066995 -206.421461 
L 294.264784 -205.901358 
L 293.462574 -205.447865 
L 292.660364 -205.056804 
L 291.858153 -204.665744 
L 291.055943 -204.274684 
L 290.253733 -203.866443 
L 289.451522 -203.445993 
L 288.649312 -203.025576 
L 287.847101 -202.60519 
L 287.044891 -202.176722 
L 286.242681 -201.809098 
L 285.44047 -201.438685 
L 284.63826 -201.055891 
L 283.836049 -200.673098 
L 283.033839 -200.290307 
L 282.231629 -199.907516 
L 281.429418 -199.524725 
L 280.627208 -199.176395 
L 279.824997 -198.812839 
L 279.022787 -198.37636 
L 278.220577 -197.993574 
L 277.418366 -197.610788 
L 276.616156 -197.228004 
L 275.813945 -196.84099 
L 275.011735 -196.425926 
L 274.209525 -196.010884 
L 273.407314 -195.543357 
L 272.605104 -195.053187 
L 271.802894 -194.563039 
L 271.000683 -194.072914 
L 270.198473 -193.582811 
L 269.396262 -193.09273 
L 268.594052 -192.617495 
L 267.791842 -192.261081 
L 266.989631 -191.904669 
L 266.187421 -191.54826 
L 265.38521 -191.191852 
L 264.583 -190.835447 
L 263.78079 -190.479044 
L 262.978579 -190.122643 
L 262.176369 -189.755679 
L 261.374158 -189.384736 
L 260.571948 -189.01381 
L 259.769738 -188.6429 
L 258.967527 -188.272006 
L 258.165317 -187.855765 
L 257.363106 -187.420761 
L 256.560896 -186.985772 
L 255.758686 -186.5508 
L 254.956475 -186.115844 
L 254.154265 -185.680904 
L 253.352055 -185.224972 
L 252.549844 -184.766227 
L 251.747634 -184.307481 
L 250.945423 -183.848735 
L 250.143213 -183.38999 
L 249.341003 -182.931244 
L 248.538792 -182.472499 
L 247.736582 -182.013753 
L 246.934371 -181.555008 
L 246.132161 -181.096262 
L 245.329951 -180.637517 
L 244.52774 -180.178771 
L 243.72553 -179.720026 
L 242.923319 -179.26128 
L 242.121109 -178.802535 
L 241.318899 -178.34379 
L 240.516688 -177.885044 
L 239.714478 -177.426299 
L 238.912267 -176.967554 
L 238.110057 -176.508808 
L 237.307847 -176.050063 
L 236.505636 -175.657032 
L 235.703426 -175.283694 
L 234.901216 -174.910372 
L 234.099005 -174.537067 
L 233.296795 -174.163778 
L 232.494584 -173.737797 
L 231.692374 -173.299209 
L 230.890164 -172.860637 
L 230.087953 -172.422082 
L 229.285743 -171.983544 
L 228.483532 -171.545023 
L 227.681322 -171.106518 
L 226.879112 -170.66803 
L 226.076901 -170.229559 
L 225.274691 -169.791105 
L 224.47248 -169.352668 
L 223.67027 -168.914247 
L 222.86806 -168.475844 
L 222.065849 -168.037457 
L 221.263639 -167.599087 
L 220.461428 -167.160734 
L 219.659218 -166.722398 
L 218.857008 -166.284079 
L 218.054797 -165.845777 
L 217.252587 -165.407491 
L 216.450376 -164.969223 
L 215.648166 -164.530971 
L 214.845956 -164.092737 
L 214.043745 -163.654519 
L 213.241535 -163.216318 
L 212.439325 -162.778134 
L 211.637114 -162.339968 
L 210.834904 -161.901818 
L 210.032693 -161.463685 
L 209.230483 -161.025569 
L 208.428273 -160.58747 
L 207.626062 -160.143947 
L 206.823852 -159.694821 
L 206.021641 -159.2457 
L 205.219431 -158.796584 
L 204.417221 -158.347473 
L 203.61501 -157.898367 
L 202.8128 -157.449266 
L 202.010589 -157.000169 
L 201.208379 -156.551078 
L 200.406169 -156.101991 
L 199.603958 -155.65291 
L 198.801748 -155.203833 
L 197.999537 -154.754761 
L 197.197327 -154.305694 
L 196.395117 -153.856632 
L 195.592906 -153.407575 
L 194.790696 -152.958523 
L 193.988486 -152.509476 
L 193.186275 -152.060433 
L 192.384065 -151.611396 
L 191.581854 -151.162364 
L 190.779644 -150.713336 
L 189.977434 -150.264313 
L 189.175223 -149.830864 
L 188.373013 -149.411509 
L 187.570802 -148.992154 
L 186.768592 -148.5728 
L 185.966382 -148.153447 
L 185.164171 -147.734095 
L 184.361961 -147.314743 
L 183.55975 -146.895391 
L 182.75754 -146.476041 
L 181.95533 -146.056691 
L 181.153119 -145.637342 
L 180.350909 -145.217993 
L 179.548698 -144.798646 
L 178.746488 -144.379298 
L 177.944278 -143.959952 
L 177.142067 -143.540606 
L 176.339857 -143.121261 
L 175.537647 -142.701917 
L 174.735436 -142.282573 
L 173.933226 -141.86323 
L 173.131015 -141.443887 
L 172.328805 -141.024546 
L 171.526595 -140.605205 
L 170.724384 -140.185864 
L 169.922174 -139.766525 
L 169.119963 -139.347186 
L 168.317753 -138.927847 
L 167.515543 -138.50851 
L 166.713332 -138.089173 
L 165.911122 -137.669836 
L 165.108911 -137.250501 
L 164.306701 -136.8354 
L 163.504491 -136.431263 
L 162.70228 -136.027126 
L 161.90007 -135.622989 
L 161.097859 -135.218852 
L 160.295649 -134.814715 
L 159.493439 -134.410578 
L 158.691228 -134.006441 
L 157.889018 -133.602304 
L 157.086808 -133.198167 
L 156.284597 -132.79403 
L 155.482387 -132.389893 
L 154.680176 -131.985756 
L 153.877966 -131.581619 
L 153.075756 -131.177482 
L 152.273545 -130.773345 
L 151.471335 -130.369208 
L 150.669124 -129.965071 
L 149.866914 -129.560934 
L 149.064704 -129.156797 
L 148.262493 -128.75266 
L 147.460283 -128.348523 
L 146.658072 -127.944386 
L 145.855862 -127.540249 
L 145.053652 -127.136112 
L 144.251441 -126.731976 
L 143.449231 -126.327839 
L 142.64702 -125.923702 
L 141.84481 -125.519565 
L 141.0426 -125.115428 
L 140.240389 -124.711292 
L 139.438179 -124.307155 
L 138.635969 -123.903018 
L 137.833758 -123.498881 
L 137.031548 -123.094745 
L 136.229337 -122.690608 
L 135.427127 -122.286471 
L 134.624917 -121.882334 
L 133.822706 -121.478198 
L 133.020496 -121.074061 
L 132.218285 -120.669924 
L 131.416075 -120.265788 
L 130.613865 -119.861651 
L 129.811654 -119.457514 
L 129.009444 -119.053378 
L 128.207233 -118.649241 
L 127.405023 -118.245104 
L 126.602813 -117.840968 
L 125.800602 -117.436831 
L 124.998392 -117.032695 
L 124.196181 -116.628558 
L 123.393971 -116.224422 
L 122.591761 -115.820285 
L 121.78955 -115.416149 
L 120.98734 -115.012012 
L 120.18513 -114.607876 
L 119.382919 -114.203739 
L 118.580709 -113.799603 
L 117.778498 -113.395466 
L 116.976288 -112.99133 
L 116.174078 -112.587193 
L 115.371867 -112.183057 
L 114.569657 -111.77892 
L 113.767446 -111.374784 
L 112.965236 -110.970648 
L 112.163026 -110.566511 
L 111.360815 -110.162375 
L 110.558605 -109.758238 
L 109.756394 -109.354102 
L 108.954184 -108.949966 
L 108.151974 -108.545829 
L 107.349763 -108.141693 
L 106.547553 -107.737557 
L 105.745342 -107.33342 
L 104.943132 -106.929284 
L 104.140922 -106.525148 
L 103.338711 -106.121012 
L 102.536501 -105.716875 
L 101.734291 -105.312739 
L 100.93208 -104.908603 
L 100.12987 -104.504467 
L 99.327659 -104.100331 
L 98.525449 -103.696194 
L 97.723239 -103.292058 
L 96.921028 -102.887922 
L 96.118818 -102.483786 
L 95.316607 -102.07965 
L 94.514397 -101.675514 
L 93.712187 -101.271377 
L 92.909976 -100.867241 
L 92.107766 -100.463105 
L 91.305555 -100.058969 
L 90.503345 -99.654833 
L 89.701135 -99.250697 
L 88.898924 -98.846561 
L 88.096714 -98.442425 
L 87.294503 -98.038289 
L 86.492293 -97.641099 
L 85.690083 -97.260048 
L 84.887872 -96.878998 
L 84.085662 -96.497949 
L 83.283452 -96.116901 
z
" id="m88bad39143" style="stroke:#000000;stroke-opacity:0.1;"/>
    </defs>
    <g clip-path="url(#p982465d2b6)">
     <use style="fill-opacity:0.1;stroke:#000000;stroke-opacity:0.1;" x="0" xlink:href="#m88bad39143" y="310.890125"/>
    </g>
   </g>
   <g id="matplotlib.axis_1">
    <g id="xtick_1">
     <g id="line2d_1">
      <defs>
       <path d="M 0 0 
L 0 3.5 
" id="me4712a6d49" style="stroke:#000000;stroke-width:0.8;"/>
      </defs>
      <g>
       <use style="stroke:#000000;stroke-width:0.8;" x="83.283452" xlink:href="#me4712a6d49" y="273.312"/>
      </g>
     </g>
     <g id="text_1">
      <!-- 9.0 -->
      <g transform="translate(75.331889 287.910437)scale(0.1 -0.1)">
       <defs>
        <path d="M 10.984375 1.515625 
L 10.984375 10.5 
Q 14.703125 8.734375 18.5 7.8125 
Q 22.3125 6.890625 25.984375 6.890625 
Q 35.75 6.890625 40.890625 13.453125 
Q 46.046875 20.015625 46.78125 33.40625 
Q 43.953125 29.203125 39.59375 26.953125 
Q 35.25 24.703125 29.984375 24.703125 
Q 19.046875 24.703125 12.671875 31.3125 
Q 6.296875 37.9375 6.296875 49.421875 
Q 6.296875 60.640625 12.9375 67.421875 
Q 19.578125 74.21875 30.609375 74.21875 
Q 43.265625 74.21875 49.921875 64.515625 
Q 56.59375 54.828125 56.59375 36.375 
Q 56.59375 19.140625 48.40625 8.859375 
Q 40.234375 -1.421875 26.421875 -1.421875 
Q 22.703125 -1.421875 18.890625 -0.6875 
Q 15.09375 0.046875 10.984375 1.515625 
z
M 30.609375 32.421875 
Q 37.25 32.421875 41.125 36.953125 
Q 45.015625 41.5 45.015625 49.421875 
Q 45.015625 57.28125 41.125 61.84375 
Q 37.25 66.40625 30.609375 66.40625 
Q 23.96875 66.40625 20.09375 61.84375 
Q 16.21875 57.28125 16.21875 49.421875 
Q 16.21875 41.5 20.09375 36.953125 
Q 23.96875 32.421875 30.609375 32.421875 
z
" id="DejaVuSans-57"/>
        <path d="M 10.6875 12.40625 
L 21 12.40625 
L 21 0 
L 10.6875 0 
z
" id="DejaVuSans-46"/>
        <path d="M 31.78125 66.40625 
Q 24.171875 66.40625 20.328125 58.90625 
Q 16.5 51.421875 16.5 36.375 
Q 16.5 21.390625 20.328125 13.890625 
Q 24.171875 6.390625 31.78125 6.390625 
Q 39.453125 6.390625 43.28125 13.890625 
Q 47.125 21.390625 47.125 36.375 
Q 47.125 51.421875 43.28125 58.90625 
Q 39.453125 66.40625 31.78125 66.40625 
z
M 31.78125 74.21875 
Q 44.046875 74.21875 50.515625 64.515625 
Q 56.984375 54.828125 56.984375 36.375 
Q 56.984375 17.96875 50.515625 8.265625 
Q 44.046875 -1.421875 31.78125 -1.421875 
Q 19.53125 -1.421875 13.0625 8.265625 
Q 6.59375 17.96875 6.59375 36.375 
Q 6.59375 54.828125 13.0625 64.515625 
Q 19.53125 74.21875 31.78125 74.21875 
z
" id="DejaVuSans-48"/>
       </defs>
       <use xlink:href="#DejaVuSans-57"/>
       <use x="63.623047" xlink:href="#DejaVuSans-46"/>
       <use x="95.410156" xlink:href="#DejaVuSans-48"/>
      </g>
     </g>
    </g>
    <g id="xtick_2">
     <g id="line2d_2">
      <g>
       <use style="stroke:#000000;stroke-width:0.8;" x="129.009444" xlink:href="#me4712a6d49" y="273.312"/>
      </g>
     </g>
     <g id="text_2">
      <!-- 9.5 -->
      <g transform="translate(121.057881 287.910437)scale(0.1 -0.1)">
       <defs>
        <path d="M 10.796875 72.90625 
L 49.515625 72.90625 
L 49.515625 64.59375 
L 19.828125 64.59375 
L 19.828125 46.734375 
Q 21.96875 47.46875 24.109375 47.828125 
Q 26.265625 48.1875 28.421875 48.1875 
Q 40.625 48.1875 47.75 41.5 
Q 54.890625 34.8125 54.890625 23.390625 
Q 54.890625 11.625 47.5625 5.09375 
Q 40.234375 -1.421875 26.90625 -1.421875 
Q 22.3125 -1.421875 17.546875 -0.640625 
Q 12.796875 0.140625 7.71875 1.703125 
L 7.71875 11.625 
Q 12.109375 9.234375 16.796875 8.0625 
Q 21.484375 6.890625 26.703125 6.890625 
Q 35.15625 6.890625 40.078125 11.328125 
Q 45.015625 15.765625 45.015625 23.390625 
Q 45.015625 31 40.078125 35.4375 
Q 35.15625 39.890625 26.703125 39.890625 
Q 22.75 39.890625 18.8125 39.015625 
Q 14.890625 38.140625 10.796875 36.28125 
z
" id="DejaVuSans-53"/>
       </defs>
       <use xlink:href="#DejaVuSans-57"/>
       <use x="63.623047" xlink:href="#DejaVuSans-46"/>
       <use x="95.410156" xlink:href="#DejaVuSans-53"/>
      </g>
     </g>
    </g>
    <g id="xtick_3">
     <g id="line2d_3">
      <g>
       <use style="stroke:#000000;stroke-width:0.8;" x="174.735436" xlink:href="#me4712a6d49" y="273.312"/>
      </g>
     </g>
     <g id="text_3">
      <!-- 10.0 -->
      <g transform="translate(163.602624 287.910437)scale(0.1 -0.1)">
       <defs>
        <path d="M 12.40625 8.296875 
L 28.515625 8.296875 
L 28.515625 63.921875 
L 10.984375 60.40625 
L 10.984375 69.390625 
L 28.421875 72.90625 
L 38.28125 72.90625 
L 38.28125 8.296875 
L 54.390625 8.296875 
L 54.390625 0 
L 12.40625 0 
z
" id="DejaVuSans-49"/>
       </defs>
       <use xlink:href="#DejaVuSans-49"/>
       <use x="63.623047" xlink:href="#DejaVuSans-48"/>
       <use x="127.246094" xlink:href="#DejaVuSans-46"/>
       <use x="159.033203" xlink:href="#DejaVuSans-48"/>
      </g>
     </g>
    </g>
    <g id="xtick_4">
     <g id="line2d_4">
      <g>
       <use style="stroke:#000000;stroke-width:0.8;" x="220.461428" xlink:href="#me4712a6d49" y="273.312"/>
      </g>
     </g>
     <g id="text_4">
      <!-- 10.5 -->
      <g transform="translate(209.328616 287.910437)scale(0.1 -0.1)">
       <use xlink:href="#DejaVuSans-49"/>
       <use x="63.623047" xlink:href="#DejaVuSans-48"/>
       <use x="127.246094" xlink:href="#DejaVuSans-46"/>
       <use x="159.033203" xlink:href="#DejaVuSans-53"/>
      </g>
     </g>
    </g>
    <g id="xtick_5">
     <g id="line2d_5">
      <g>
       <use style="stroke:#000000;stroke-width:0.8;" x="266.187421" xlink:href="#me4712a6d49" y="273.312"/>
      </g>
     </g>
     <g id="text_5">
      <!-- 11.0 -->
      <g transform="translate(255.054608 287.910437)scale(0.1 -0.1)">
       <use xlink:href="#DejaVuSans-49"/>
       <use x="63.623047" xlink:href="#DejaVuSans-49"/>
       <use x="127.246094" xlink:href="#DejaVuSans-46"/>
       <use x="159.033203" xlink:href="#DejaVuSans-48"/>
      </g>
     </g>
    </g>
    <g id="xtick_6">
     <g id="line2d_6">
      <g>
       <use style="stroke:#000000;stroke-width:0.8;" x="311.913413" xlink:href="#me4712a6d49" y="273.312"/>
      </g>
     </g>
     <g id="text_6">
      <!-- 11.5 -->
      <g transform="translate(300.780601 287.910437)scale(0.1 -0.1)">
       <use xlink:href="#DejaVuSans-49"/>
       <use x="63.623047" xlink:href="#DejaVuSans-49"/>
       <use x="127.246094" xlink:href="#DejaVuSans-46"/>
       <use x="159.033203" xlink:href="#DejaVuSans-53"/>
      </g>
     </g>
    </g>
    <g id="xtick_7">
     <g id="line2d_7">
      <g>
       <use style="stroke:#000000;stroke-width:0.8;" x="357.639405" xlink:href="#me4712a6d49" y="273.312"/>
      </g>
     </g>
     <g id="text_7">
      <!-- 12.0 -->
      <g transform="translate(346.506593 287.910437)scale(0.1 -0.1)">
       <defs>
        <path d="M 19.1875 8.296875 
L 53.609375 8.296875 
L 53.609375 0 
L 7.328125 0 
L 7.328125 8.296875 
Q 12.9375 14.109375 22.625 23.890625 
Q 32.328125 33.6875 34.8125 36.53125 
Q 39.546875 41.84375 41.421875 45.53125 
Q 43.3125 49.21875 43.3125 52.78125 
Q 43.3125 58.59375 39.234375 62.25 
Q 35.15625 65.921875 28.609375 65.921875 
Q 23.96875 65.921875 18.8125 64.3125 
Q 13.671875 62.703125 7.8125 59.421875 
L 7.8125 69.390625 
Q 13.765625 71.78125 18.9375 73 
Q 24.125 74.21875 28.421875 74.21875 
Q 39.75 74.21875 46.484375 68.546875 
Q 53.21875 62.890625 53.21875 53.421875 
Q 53.21875 48.921875 51.53125 44.890625 
Q 49.859375 40.875 45.40625 35.40625 
Q 44.1875 33.984375 37.640625 27.21875 
Q 31.109375 20.453125 19.1875 8.296875 
z
" id="DejaVuSans-50"/>
       </defs>
       <use xlink:href="#DejaVuSans-49"/>
       <use x="63.623047" xlink:href="#DejaVuSans-50"/>
       <use x="127.246094" xlink:href="#DejaVuSans-46"/>
       <use x="159.033203" xlink:href="#DejaVuSans-48"/>
      </g>
     </g>
    </g>
    <g id="xtick_8">
     <g id="line2d_8">
      <g>
       <use style="stroke:#000000;stroke-width:0.8;" x="403.365398" xlink:href="#me4712a6d49" y="273.312"/>
      </g>
     </g>
     <g id="text_8">
      <!-- 12.5 -->
      <g transform="translate(392.232585 287.910437)scale(0.1 -0.1)">
       <use xlink:href="#DejaVuSans-49"/>
       <use x="63.623047" xlink:href="#DejaVuSans-50"/>
       <use x="127.246094" xlink:href="#DejaVuSans-46"/>
       <use x="159.033203" xlink:href="#DejaVuSans-53"/>
      </g>
     </g>
    </g>
    <g id="text_9">
     <!-- Bulge mass [log, $M_\odot$] -->
     <g transform="translate(186.988125 301.590125)scale(0.1 -0.1)">
      <defs>
       <path d="M 19.671875 34.8125 
L 19.671875 8.109375 
L 35.5 8.109375 
Q 43.453125 8.109375 47.28125 11.40625 
Q 51.125 14.703125 51.125 21.484375 
Q 51.125 28.328125 47.28125 31.5625 
Q 43.453125 34.8125 35.5 34.8125 
z
M 19.671875 64.796875 
L 19.671875 42.828125 
L 34.28125 42.828125 
Q 41.5 42.828125 45.03125 45.53125 
Q 48.578125 48.25 48.578125 53.8125 
Q 48.578125 59.328125 45.03125 62.0625 
Q 41.5 64.796875 34.28125 64.796875 
z
M 9.8125 72.90625 
L 35.015625 72.90625 
Q 46.296875 72.90625 52.390625 68.21875 
Q 58.5 63.53125 58.5 54.890625 
Q 58.5 48.1875 55.375 44.234375 
Q 52.25 40.28125 46.1875 39.3125 
Q 53.46875 37.75 57.5 32.78125 
Q 61.53125 27.828125 61.53125 20.40625 
Q 61.53125 10.640625 54.890625 5.3125 
Q 48.25 0 35.984375 0 
L 9.8125 0 
z
" id="DejaVuSans-66"/>
       <path d="M 8.5 21.578125 
L 8.5 54.6875 
L 17.484375 54.6875 
L 17.484375 21.921875 
Q 17.484375 14.15625 20.5 10.265625 
Q 23.53125 6.390625 29.59375 6.390625 
Q 36.859375 6.390625 41.078125 11.03125 
Q 45.3125 15.671875 45.3125 23.6875 
L 45.3125 54.6875 
L 54.296875 54.6875 
L 54.296875 0 
L 45.3125 0 
L 45.3125 8.40625 
Q 42.046875 3.421875 37.71875 1 
Q 33.40625 -1.421875 27.6875 -1.421875 
Q 18.265625 -1.421875 13.375 4.4375 
Q 8.5 10.296875 8.5 21.578125 
z
M 31.109375 56 
z
" id="DejaVuSans-117"/>
       <path d="M 9.421875 75.984375 
L 18.40625 75.984375 
L 18.40625 0 
L 9.421875 0 
z
" id="DejaVuSans-108"/>
       <path d="M 45.40625 27.984375 
Q 45.40625 37.75 41.375 43.109375 
Q 37.359375 48.484375 30.078125 48.484375 
Q 22.859375 48.484375 18.828125 43.109375 
Q 14.796875 37.75 14.796875 27.984375 
Q 14.796875 18.265625 18.828125 12.890625 
Q 22.859375 7.515625 30.078125 7.515625 
Q 37.359375 7.515625 41.375 12.890625 
Q 45.40625 18.265625 45.40625 27.984375 
z
M 54.390625 6.78125 
Q 54.390625 -7.171875 48.1875 -13.984375 
Q 42 -20.796875 29.203125 -20.796875 
Q 24.46875 -20.796875 20.265625 -20.09375 
Q 16.0625 -19.390625 12.109375 -17.921875 
L 12.109375 -9.1875 
Q 16.0625 -11.328125 19.921875 -12.34375 
Q 23.78125 -13.375 27.78125 -13.375 
Q 36.625 -13.375 41.015625 -8.765625 
Q 45.40625 -4.15625 45.40625 5.171875 
L 45.40625 9.625 
Q 42.625 4.78125 38.28125 2.390625 
Q 33.9375 0 27.875 0 
Q 17.828125 0 11.671875 7.65625 
Q 5.515625 15.328125 5.515625 27.984375 
Q 5.515625 40.671875 11.671875 48.328125 
Q 17.828125 56 27.875 56 
Q 33.9375 56 38.28125 53.609375 
Q 42.625 51.21875 45.40625 46.390625 
L 45.40625 54.6875 
L 54.390625 54.6875 
z
" id="DejaVuSans-103"/>
       <path d="M 56.203125 29.59375 
L 56.203125 25.203125 
L 14.890625 25.203125 
Q 15.484375 15.921875 20.484375 11.0625 
Q 25.484375 6.203125 34.421875 6.203125 
Q 39.59375 6.203125 44.453125 7.46875 
Q 49.3125 8.734375 54.109375 11.28125 
L 54.109375 2.78125 
Q 49.265625 0.734375 44.1875 -0.34375 
Q 39.109375 -1.421875 33.890625 -1.421875 
Q 20.796875 -1.421875 13.15625 6.1875 
Q 5.515625 13.8125 5.515625 26.8125 
Q 5.515625 40.234375 12.765625 48.109375 
Q 20.015625 56 32.328125 56 
Q 43.359375 56 49.78125 48.890625 
Q 56.203125 41.796875 56.203125 29.59375 
z
M 47.21875 32.234375 
Q 47.125 39.59375 43.09375 43.984375 
Q 39.0625 48.390625 32.421875 48.390625 
Q 24.90625 48.390625 20.390625 44.140625 
Q 15.875 39.890625 15.1875 32.171875 
z
" id="DejaVuSans-101"/>
       <path id="DejaVuSans-32"/>
       <path d="M 52 44.1875 
Q 55.375 50.25 60.0625 53.125 
Q 64.75 56 71.09375 56 
Q 79.640625 56 84.28125 50.015625 
Q 88.921875 44.046875 88.921875 33.015625 
L 88.921875 0 
L 79.890625 0 
L 79.890625 32.71875 
Q 79.890625 40.578125 77.09375 44.375 
Q 74.3125 48.1875 68.609375 48.1875 
Q 61.625 48.1875 57.5625 43.546875 
Q 53.515625 38.921875 53.515625 30.90625 
L 53.515625 0 
L 44.484375 0 
L 44.484375 32.71875 
Q 44.484375 40.625 41.703125 44.40625 
Q 38.921875 48.1875 33.109375 48.1875 
Q 26.21875 48.1875 22.15625 43.53125 
Q 18.109375 38.875 18.109375 30.90625 
L 18.109375 0 
L 9.078125 0 
L 9.078125 54.6875 
L 18.109375 54.6875 
L 18.109375 46.1875 
Q 21.1875 51.21875 25.484375 53.609375 
Q 29.78125 56 35.6875 56 
Q 41.65625 56 45.828125 52.96875 
Q 50 49.953125 52 44.1875 
z
" id="DejaVuSans-109"/>
       <path d="M 34.28125 27.484375 
Q 23.390625 27.484375 19.1875 25 
Q 14.984375 22.515625 14.984375 16.5 
Q 14.984375 11.71875 18.140625 8.90625 
Q 21.296875 6.109375 26.703125 6.109375 
Q 34.1875 6.109375 38.703125 11.40625 
Q 43.21875 16.703125 43.21875 25.484375 
L 43.21875 27.484375 
z
M 52.203125 31.203125 
L 52.203125 0 
L 43.21875 0 
L 43.21875 8.296875 
Q 40.140625 3.328125 35.546875 0.953125 
Q 30.953125 -1.421875 24.3125 -1.421875 
Q 15.921875 -1.421875 10.953125 3.296875 
Q 6 8.015625 6 15.921875 
Q 6 25.140625 12.171875 29.828125 
Q 18.359375 34.515625 30.609375 34.515625 
L 43.21875 34.515625 
L 43.21875 35.40625 
Q 43.21875 41.609375 39.140625 45 
Q 35.0625 48.390625 27.6875 48.390625 
Q 23 48.390625 18.546875 47.265625 
Q 14.109375 46.140625 10.015625 43.890625 
L 10.015625 52.203125 
Q 14.9375 54.109375 19.578125 55.046875 
Q 24.21875 56 28.609375 56 
Q 40.484375 56 46.34375 49.84375 
Q 52.203125 43.703125 52.203125 31.203125 
z
" id="DejaVuSans-97"/>
       <path d="M 44.28125 53.078125 
L 44.28125 44.578125 
Q 40.484375 46.53125 36.375 47.5 
Q 32.28125 48.484375 27.875 48.484375 
Q 21.1875 48.484375 17.84375 46.4375 
Q 14.5 44.390625 14.5 40.28125 
Q 14.5 37.15625 16.890625 35.375 
Q 19.28125 33.59375 26.515625 31.984375 
L 29.59375 31.296875 
Q 39.15625 29.25 43.1875 25.515625 
Q 47.21875 21.78125 47.21875 15.09375 
Q 47.21875 7.46875 41.1875 3.015625 
Q 35.15625 -1.421875 24.609375 -1.421875 
Q 20.21875 -1.421875 15.453125 -0.5625 
Q 10.6875 0.296875 5.421875 2 
L 5.421875 11.28125 
Q 10.40625 8.6875 15.234375 7.390625 
Q 20.0625 6.109375 24.8125 6.109375 
Q 31.15625 6.109375 34.5625 8.28125 
Q 37.984375 10.453125 37.984375 14.40625 
Q 37.984375 18.0625 35.515625 20.015625 
Q 33.0625 21.96875 24.703125 23.78125 
L 21.578125 24.515625 
Q 13.234375 26.265625 9.515625 29.90625 
Q 5.8125 33.546875 5.8125 39.890625 
Q 5.8125 47.609375 11.28125 51.796875 
Q 16.75 56 26.8125 56 
Q 31.78125 56 36.171875 55.265625 
Q 40.578125 54.546875 44.28125 53.078125 
z
" id="DejaVuSans-115"/>
       <path d="M 8.59375 75.984375 
L 29.296875 75.984375 
L 29.296875 69 
L 17.578125 69 
L 17.578125 -6.203125 
L 29.296875 -6.203125 
L 29.296875 -13.1875 
L 8.59375 -13.1875 
z
" id="DejaVuSans-91"/>
       <path d="M 30.609375 48.390625 
Q 23.390625 48.390625 19.1875 42.75 
Q 14.984375 37.109375 14.984375 27.296875 
Q 14.984375 17.484375 19.15625 11.84375 
Q 23.34375 6.203125 30.609375 6.203125 
Q 37.796875 6.203125 41.984375 11.859375 
Q 46.1875 17.53125 46.1875 27.296875 
Q 46.1875 37.015625 41.984375 42.703125 
Q 37.796875 48.390625 30.609375 48.390625 
z
M 30.609375 56 
Q 42.328125 56 49.015625 48.375 
Q 55.71875 40.765625 55.71875 27.296875 
Q 55.71875 13.875 49.015625 6.21875 
Q 42.328125 -1.421875 30.609375 -1.421875 
Q 18.84375 -1.421875 12.171875 6.21875 
Q 5.515625 13.875 5.515625 27.296875 
Q 5.515625 40.765625 12.171875 48.375 
Q 18.84375 56 30.609375 56 
z
" id="DejaVuSans-111"/>
       <path d="M 11.71875 12.40625 
L 22.015625 12.40625 
L 22.015625 4 
L 14.015625 -11.625 
L 7.71875 -11.625 
L 11.71875 4 
z
" id="DejaVuSans-44"/>
       <path d="M 16.890625 72.90625 
L 31.6875 72.90625 
L 40.1875 23.78125 
L 68.40625 72.90625 
L 83.59375 72.90625 
L 69.390625 0 
L 59.8125 0 
L 72.21875 63.921875 
L 43.609375 14.015625 
L 33.984375 14.015625 
L 24.703125 64.109375 
L 12.3125 0 
L 2.6875 0 
z
" id="DejaVuSans-Oblique-77"/>
       <path d="M 36.71875 37.546875 
L 47.078125 37.546875 
L 47.078125 25.140625 
L 36.71875 25.140625 
z
M 51.65625 55.03125 
Q 47.125 56.9375 41.890625 56.9375 
Q 36.671875 56.9375 32.125 55.03125 
Q 27.640625 53.125 23.921875 49.421875 
Q 20.171875 45.65625 18.3125 41.15625 
Q 16.453125 36.671875 16.453125 31.34375 
Q 16.453125 26.171875 18.3125 21.671875 
Q 20.171875 17.1875 23.921875 13.421875 
Q 27.640625 9.71875 32.125 7.8125 
Q 36.671875 5.90625 41.890625 5.90625 
Q 47.125 5.90625 51.65625 7.8125 
Q 56.15625 9.71875 59.859375 13.421875 
Q 63.625 17.1875 65.46875 21.671875 
Q 67.328125 26.171875 67.328125 31.34375 
Q 67.328125 36.671875 65.46875 41.15625 
Q 63.625 45.65625 59.859375 49.421875 
Q 56.15625 53.125 51.65625 55.03125 
z
M 23.53125 59.375 
Q 35.15625 64.265625 41.890625 64.265625 
Q 48.640625 64.265625 54.4375 61.8125 
Q 60.25 59.375 65.046875 54.59375 
Q 69.875 49.75 72.265625 43.953125 
Q 74.65625 38.1875 74.65625 31.34375 
Q 74.65625 24.65625 72.265625 18.84375 
Q 69.875 13.09375 65.046875 8.25 
Q 60.25 3.46875 54.4375 1.015625 
Q 48.640625 -1.421875 41.890625 -1.421875 
Q 35.15625 -1.421875 29.34375 1.015625 
Q 23.53125 3.46875 18.75 8.25 
Q 13.921875 13.09375 11.53125 18.84375 
Q 9.125 24.65625 9.125 31.34375 
Q 9.125 38.1875 11.53125 43.953125 
Q 13.921875 49.75 18.75 54.59375 
Q 23.53125 59.375 35.15625 64.265625 
z
" id="DejaVuSans-8857"/>
       <path d="M 30.421875 75.984375 
L 30.421875 -13.1875 
L 9.71875 -13.1875 
L 9.71875 -6.203125 
L 21.390625 -6.203125 
L 21.390625 69 
L 9.71875 69 
L 9.71875 75.984375 
z
" id="DejaVuSans-93"/>
      </defs>
      <use transform="translate(0 0.015625)" xlink:href="#DejaVuSans-66"/>
      <use transform="translate(68.603516 0.015625)" xlink:href="#DejaVuSans-117"/>
      <use transform="translate(131.982422 0.015625)" xlink:href="#DejaVuSans-108"/>
      <use transform="translate(159.765625 0.015625)" xlink:href="#DejaVuSans-103"/>
      <use transform="translate(223.242188 0.015625)" xlink:href="#DejaVuSans-101"/>
      <use transform="translate(284.765625 0.015625)" xlink:href="#DejaVuSans-32"/>
      <use transform="translate(316.552734 0.015625)" xlink:href="#DejaVuSans-109"/>
      <use transform="translate(413.964844 0.015625)" xlink:href="#DejaVuSans-97"/>
      <use transform="translate(475.244141 0.015625)" xlink:href="#DejaVuSans-115"/>
      <use transform="translate(527.34375 0.015625)" xlink:href="#DejaVuSans-115"/>
      <use transform="translate(579.443359 0.015625)" xlink:href="#DejaVuSans-32"/>
      <use transform="translate(611.230469 0.015625)" xlink:href="#DejaVuSans-91"/>
      <use transform="translate(650.244141 0.015625)" xlink:href="#DejaVuSans-108"/>
      <use transform="translate(678.027344 0.015625)" xlink:href="#DejaVuSans-111"/>
      <use transform="translate(739.208984 0.015625)" xlink:href="#DejaVuSans-103"/>
      <use transform="translate(802.685547 0.015625)" xlink:href="#DejaVuSans-44"/>
      <use transform="translate(834.472656 0.015625)" xlink:href="#DejaVuSans-32"/>
      <use transform="translate(866.259766 0.015625)" xlink:href="#DejaVuSans-Oblique-77"/>
      <use transform="translate(966.176758 -16.390625)scale(0.7)" xlink:href="#DejaVuSans-8857"/>
      <use transform="translate(1041.201172 0.015625)" xlink:href="#DejaVuSans-93"/>
     </g>
    </g>
   </g>
   <g id="matplotlib.axis_2">
    <g id="ytick_1">
     <g id="line2d_9">
      <defs>
       <path d="M 0 0 
L -3.5 0 
" id="m34d889786c" style="stroke:#000000;stroke-width:0.8;"/>
      </defs>
      <g>
       <use style="stroke:#000000;stroke-width:0.8;" x="62.478125" xlink:href="#m34d889786c" y="221.071299"/>
      </g>
     </g>
     <g id="text_10">
      <!-- $\mathdefault{10^{2}}$ -->
      <g transform="translate(37.878125 224.870518)scale(0.1 -0.1)">
       <use transform="translate(0 0.765625)" xlink:href="#DejaVuSans-49"/>
       <use transform="translate(63.623047 0.765625)" xlink:href="#DejaVuSans-48"/>
       <use transform="translate(128.203125 39.046875)scale(0.7)" xlink:href="#DejaVuSans-50"/>
      </g>
     </g>
    </g>
    <g id="ytick_2">
     <g id="line2d_10">
      <defs>
       <path d="M 0 0 
L -2 0 
" id="mce01c55b0d" style="stroke:#000000;stroke-width:0.6;"/>
      </defs>
      <g>
       <use style="stroke:#000000;stroke-width:0.6;" x="62.478125" xlink:href="#mce01c55b0d" y="265.07938"/>
      </g>
     </g>
    </g>
    <g id="ytick_3">
     <g id="line2d_11">
      <g>
       <use style="stroke:#000000;stroke-width:0.6;" x="62.478125" xlink:href="#mce01c55b0d" y="248.603706"/>
      </g>
     </g>
    </g>
    <g id="ytick_4">
     <g id="line2d_12">
      <g>
       <use style="stroke:#000000;stroke-width:0.6;" x="62.478125" xlink:href="#mce01c55b0d" y="234.071131"/>
      </g>
     </g>
    </g>
    <g id="ytick_5">
     <g id="line2d_13">
      <g>
       <use style="stroke:#000000;stroke-width:0.6;" x="62.478125" xlink:href="#mce01c55b0d" y="135.547834"/>
      </g>
     </g>
     <g id="text_11">
      <!-- $\mathdefault{2\times10^{2}}$ -->
      <g transform="translate(20.878125 139.347052)scale(0.1 -0.1)">
       <defs>
        <path d="M 70.125 53.71875 
L 47.796875 31.296875 
L 70.125 8.984375 
L 64.3125 3.078125 
L 41.890625 25.484375 
L 19.484375 3.078125 
L 13.71875 8.984375 
L 35.984375 31.296875 
L 13.71875 53.71875 
L 19.484375 59.625 
L 41.890625 37.203125 
L 64.3125 59.625 
z
" id="DejaVuSans-215"/>
       </defs>
       <use transform="translate(0 0.765625)" xlink:href="#DejaVuSans-50"/>
       <use transform="translate(83.105469 0.765625)" xlink:href="#DejaVuSans-215"/>
       <use transform="translate(186.376953 0.765625)" xlink:href="#DejaVuSans-49"/>
       <use transform="translate(250 0.765625)" xlink:href="#DejaVuSans-48"/>
       <use transform="translate(314.580078 39.046875)scale(0.7)" xlink:href="#DejaVuSans-50"/>
      </g>
     </g>
    </g>
    <g id="ytick_6">
     <g id="line2d_14">
      <g>
       <use style="stroke:#000000;stroke-width:0.6;" x="62.478125" xlink:href="#mce01c55b0d" y="85.519813"/>
      </g>
     </g>
     <g id="text_12">
      <!-- $\mathdefault{3\times10^{2}}$ -->
      <g transform="translate(20.878125 89.319032)scale(0.1 -0.1)">
       <defs>
        <path d="M 40.578125 39.3125 
Q 47.65625 37.796875 51.625 33 
Q 55.609375 28.21875 55.609375 21.1875 
Q 55.609375 10.40625 48.1875 4.484375 
Q 40.765625 -1.421875 27.09375 -1.421875 
Q 22.515625 -1.421875 17.65625 -0.515625 
Q 12.796875 0.390625 7.625 2.203125 
L 7.625 11.71875 
Q 11.71875 9.328125 16.59375 8.109375 
Q 21.484375 6.890625 26.8125 6.890625 
Q 36.078125 6.890625 40.9375 10.546875 
Q 45.796875 14.203125 45.796875 21.1875 
Q 45.796875 27.640625 41.28125 31.265625 
Q 36.765625 34.90625 28.71875 34.90625 
L 20.21875 34.90625 
L 20.21875 43.015625 
L 29.109375 43.015625 
Q 36.375 43.015625 40.234375 45.921875 
Q 44.09375 48.828125 44.09375 54.296875 
Q 44.09375 59.90625 40.109375 62.90625 
Q 36.140625 65.921875 28.71875 65.921875 
Q 24.65625 65.921875 20.015625 65.03125 
Q 15.375 64.15625 9.8125 62.3125 
L 9.8125 71.09375 
Q 15.4375 72.65625 20.34375 73.4375 
Q 25.25 74.21875 29.59375 74.21875 
Q 40.828125 74.21875 47.359375 69.109375 
Q 53.90625 64.015625 53.90625 55.328125 
Q 53.90625 49.265625 50.4375 45.09375 
Q 46.96875 40.921875 40.578125 39.3125 
z
" id="DejaVuSans-51"/>
       </defs>
       <use transform="translate(0 0.765625)" xlink:href="#DejaVuSans-51"/>
       <use transform="translate(83.105469 0.765625)" xlink:href="#DejaVuSans-215"/>
       <use transform="translate(186.376953 0.765625)" xlink:href="#DejaVuSans-49"/>
       <use transform="translate(250 0.765625)" xlink:href="#DejaVuSans-48"/>
       <use transform="translate(314.580078 39.046875)scale(0.7)" xlink:href="#DejaVuSans-50"/>
      </g>
     </g>
    </g>
    <g id="ytick_7">
     <g id="line2d_15">
      <g>
       <use style="stroke:#000000;stroke-width:0.6;" x="62.478125" xlink:href="#mce01c55b0d" y="50.024368"/>
      </g>
     </g>
     <g id="text_13">
      <!-- $\mathdefault{4\times10^{2}}$ -->
      <g transform="translate(20.878125 53.823587)scale(0.1 -0.1)">
       <defs>
        <path d="M 37.796875 64.3125 
L 12.890625 25.390625 
L 37.796875 25.390625 
z
M 35.203125 72.90625 
L 47.609375 72.90625 
L 47.609375 25.390625 
L 58.015625 25.390625 
L 58.015625 17.1875 
L 47.609375 17.1875 
L 47.609375 0 
L 37.796875 0 
L 37.796875 17.1875 
L 4.890625 17.1875 
L 4.890625 26.703125 
z
" id="DejaVuSans-52"/>
       </defs>
       <use transform="translate(0 0.765625)" xlink:href="#DejaVuSans-52"/>
       <use transform="translate(83.105469 0.765625)" xlink:href="#DejaVuSans-215"/>
       <use transform="translate(186.376953 0.765625)" xlink:href="#DejaVuSans-49"/>
       <use transform="translate(250 0.765625)" xlink:href="#DejaVuSans-48"/>
       <use transform="translate(314.580078 39.046875)scale(0.7)" xlink:href="#DejaVuSans-50"/>
      </g>
     </g>
    </g>
    <g id="ytick_8">
     <g id="line2d_16">
      <g>
       <use style="stroke:#000000;stroke-width:0.6;" x="62.478125" xlink:href="#mce01c55b0d" y="22.491962"/>
      </g>
     </g>
    </g>
    <g id="text_14">
     <!-- Velocity dispersion [log, km/s] -->
     <g transform="translate(14.798437 215.502875)rotate(-90)scale(0.1 -0.1)">
      <defs>
       <path d="M 28.609375 0 
L 0.78125 72.90625 
L 11.078125 72.90625 
L 34.1875 11.53125 
L 57.328125 72.90625 
L 67.578125 72.90625 
L 39.796875 0 
z
" id="DejaVuSans-86"/>
       <path d="M 48.78125 52.59375 
L 48.78125 44.1875 
Q 44.96875 46.296875 41.140625 47.34375 
Q 37.3125 48.390625 33.40625 48.390625 
Q 24.65625 48.390625 19.8125 42.84375 
Q 14.984375 37.3125 14.984375 27.296875 
Q 14.984375 17.28125 19.8125 11.734375 
Q 24.65625 6.203125 33.40625 6.203125 
Q 37.3125 6.203125 41.140625 7.25 
Q 44.96875 8.296875 48.78125 10.40625 
L 48.78125 2.09375 
Q 45.015625 0.34375 40.984375 -0.53125 
Q 36.96875 -1.421875 32.421875 -1.421875 
Q 20.0625 -1.421875 12.78125 6.34375 
Q 5.515625 14.109375 5.515625 27.296875 
Q 5.515625 40.671875 12.859375 48.328125 
Q 20.21875 56 33.015625 56 
Q 37.15625 56 41.109375 55.140625 
Q 45.0625 54.296875 48.78125 52.59375 
z
" id="DejaVuSans-99"/>
       <path d="M 9.421875 54.6875 
L 18.40625 54.6875 
L 18.40625 0 
L 9.421875 0 
z
M 9.421875 75.984375 
L 18.40625 75.984375 
L 18.40625 64.59375 
L 9.421875 64.59375 
z
" id="DejaVuSans-105"/>
       <path d="M 18.3125 70.21875 
L 18.3125 54.6875 
L 36.8125 54.6875 
L 36.8125 47.703125 
L 18.3125 47.703125 
L 18.3125 18.015625 
Q 18.3125 11.328125 20.140625 9.421875 
Q 21.96875 7.515625 27.59375 7.515625 
L 36.8125 7.515625 
L 36.8125 0 
L 27.59375 0 
Q 17.1875 0 13.234375 3.875 
Q 9.28125 7.765625 9.28125 18.015625 
L 9.28125 47.703125 
L 2.6875 47.703125 
L 2.6875 54.6875 
L 9.28125 54.6875 
L 9.28125 70.21875 
z
" id="DejaVuSans-116"/>
       <path d="M 32.171875 -5.078125 
Q 28.375 -14.84375 24.75 -17.8125 
Q 21.140625 -20.796875 15.09375 -20.796875 
L 7.90625 -20.796875 
L 7.90625 -13.28125 
L 13.1875 -13.28125 
Q 16.890625 -13.28125 18.9375 -11.515625 
Q 21 -9.765625 23.484375 -3.21875 
L 25.09375 0.875 
L 2.984375 54.6875 
L 12.5 54.6875 
L 29.59375 11.921875 
L 46.6875 54.6875 
L 56.203125 54.6875 
z
" id="DejaVuSans-121"/>
       <path d="M 45.40625 46.390625 
L 45.40625 75.984375 
L 54.390625 75.984375 
L 54.390625 0 
L 45.40625 0 
L 45.40625 8.203125 
Q 42.578125 3.328125 38.25 0.953125 
Q 33.9375 -1.421875 27.875 -1.421875 
Q 17.96875 -1.421875 11.734375 6.484375 
Q 5.515625 14.40625 5.515625 27.296875 
Q 5.515625 40.1875 11.734375 48.09375 
Q 17.96875 56 27.875 56 
Q 33.9375 56 38.25 53.625 
Q 42.578125 51.265625 45.40625 46.390625 
z
M 14.796875 27.296875 
Q 14.796875 17.390625 18.875 11.75 
Q 22.953125 6.109375 30.078125 6.109375 
Q 37.203125 6.109375 41.296875 11.75 
Q 45.40625 17.390625 45.40625 27.296875 
Q 45.40625 37.203125 41.296875 42.84375 
Q 37.203125 48.484375 30.078125 48.484375 
Q 22.953125 48.484375 18.875 42.84375 
Q 14.796875 37.203125 14.796875 27.296875 
z
" id="DejaVuSans-100"/>
       <path d="M 18.109375 8.203125 
L 18.109375 -20.796875 
L 9.078125 -20.796875 
L 9.078125 54.6875 
L 18.109375 54.6875 
L 18.109375 46.390625 
Q 20.953125 51.265625 25.265625 53.625 
Q 29.59375 56 35.59375 56 
Q 45.5625 56 51.78125 48.09375 
Q 58.015625 40.1875 58.015625 27.296875 
Q 58.015625 14.40625 51.78125 6.484375 
Q 45.5625 -1.421875 35.59375 -1.421875 
Q 29.59375 -1.421875 25.265625 0.953125 
Q 20.953125 3.328125 18.109375 8.203125 
z
M 48.6875 27.296875 
Q 48.6875 37.203125 44.609375 42.84375 
Q 40.53125 48.484375 33.40625 48.484375 
Q 26.265625 48.484375 22.1875 42.84375 
Q 18.109375 37.203125 18.109375 27.296875 
Q 18.109375 17.390625 22.1875 11.75 
Q 26.265625 6.109375 33.40625 6.109375 
Q 40.53125 6.109375 44.609375 11.75 
Q 48.6875 17.390625 48.6875 27.296875 
z
" id="DejaVuSans-112"/>
       <path d="M 41.109375 46.296875 
Q 39.59375 47.171875 37.8125 47.578125 
Q 36.03125 48 33.890625 48 
Q 26.265625 48 22.1875 43.046875 
Q 18.109375 38.09375 18.109375 28.8125 
L 18.109375 0 
L 9.078125 0 
L 9.078125 54.6875 
L 18.109375 54.6875 
L 18.109375 46.1875 
Q 20.953125 51.171875 25.484375 53.578125 
Q 30.03125 56 36.53125 56 
Q 37.453125 56 38.578125 55.875 
Q 39.703125 55.765625 41.0625 55.515625 
z
" id="DejaVuSans-114"/>
       <path d="M 54.890625 33.015625 
L 54.890625 0 
L 45.90625 0 
L 45.90625 32.71875 
Q 45.90625 40.484375 42.875 44.328125 
Q 39.84375 48.1875 33.796875 48.1875 
Q 26.515625 48.1875 22.3125 43.546875 
Q 18.109375 38.921875 18.109375 30.90625 
L 18.109375 0 
L 9.078125 0 
L 9.078125 54.6875 
L 18.109375 54.6875 
L 18.109375 46.1875 
Q 21.34375 51.125 25.703125 53.5625 
Q 30.078125 56 35.796875 56 
Q 45.21875 56 50.046875 50.171875 
Q 54.890625 44.34375 54.890625 33.015625 
z
" id="DejaVuSans-110"/>
       <path d="M 9.078125 75.984375 
L 18.109375 75.984375 
L 18.109375 31.109375 
L 44.921875 54.6875 
L 56.390625 54.6875 
L 27.390625 29.109375 
L 57.625 0 
L 45.90625 0 
L 18.109375 26.703125 
L 18.109375 0 
L 9.078125 0 
z
" id="DejaVuSans-107"/>
       <path d="M 25.390625 72.90625 
L 33.6875 72.90625 
L 8.296875 -9.28125 
L 0 -9.28125 
z
" id="DejaVuSans-47"/>
      </defs>
      <use xlink:href="#DejaVuSans-86"/>
      <use x="60.658203" xlink:href="#DejaVuSans-101"/>
      <use x="122.181641" xlink:href="#DejaVuSans-108"/>
      <use x="149.964844" xlink:href="#DejaVuSans-111"/>
      <use x="211.146484" xlink:href="#DejaVuSans-99"/>
      <use x="266.126953" xlink:href="#DejaVuSans-105"/>
      <use x="293.910156" xlink:href="#DejaVuSans-116"/>
      <use x="333.119141" xlink:href="#DejaVuSans-121"/>
      <use x="392.298828" xlink:href="#DejaVuSans-32"/>
      <use x="424.085938" xlink:href="#DejaVuSans-100"/>
      <use x="487.5625" xlink:href="#DejaVuSans-105"/>
      <use x="515.345703" xlink:href="#DejaVuSans-115"/>
      <use x="567.445312" xlink:href="#DejaVuSans-112"/>
      <use x="630.921875" xlink:href="#DejaVuSans-101"/>
      <use x="692.445312" xlink:href="#DejaVuSans-114"/>
      <use x="733.558594" xlink:href="#DejaVuSans-115"/>
      <use x="785.658203" xlink:href="#DejaVuSans-105"/>
      <use x="813.441406" xlink:href="#DejaVuSans-111"/>
      <use x="874.623047" xlink:href="#DejaVuSans-110"/>
      <use x="938.001953" xlink:href="#DejaVuSans-32"/>
      <use x="969.789062" xlink:href="#DejaVuSans-91"/>
      <use x="1008.802734" xlink:href="#DejaVuSans-108"/>
      <use x="1036.585938" xlink:href="#DejaVuSans-111"/>
      <use x="1097.767578" xlink:href="#DejaVuSans-103"/>
      <use x="1161.244141" xlink:href="#DejaVuSans-44"/>
      <use x="1193.03125" xlink:href="#DejaVuSans-32"/>
      <use x="1224.818359" xlink:href="#DejaVuSans-107"/>
      <use x="1282.728516" xlink:href="#DejaVuSans-109"/>
      <use x="1380.140625" xlink:href="#DejaVuSans-47"/>
      <use x="1413.832031" xlink:href="#DejaVuSans-115"/>
      <use x="1465.931641" xlink:href="#DejaVuSans-93"/>
     </g>
    </g>
   </g>
   <g id="LineCollection_1">
    <path clip-path="url(#p982465d2b6)" d="M 78.710852 253.319602 
L 97.001249 253.319602 
" style="fill:none;stroke:#ffa500;stroke-width:1.5;"/>
    <path clip-path="url(#p982465d2b6)" d="M 334.776409 120.468099 
L 351.237766 120.468099 
" style="fill:none;stroke:#ffa500;stroke-width:1.5;"/>
    <path clip-path="url(#p982465d2b6)" d="M 282.648778 74.510094 
L 299.110135 74.510094 
" style="fill:none;stroke:#ffa500;stroke-width:1.5;"/>
    <path clip-path="url(#p982465d2b6)" d="M 225.948548 157.796926 
L 242.409905 157.796926 
" style="fill:none;stroke:#ffa500;stroke-width:1.5;"/>
    <path clip-path="url(#p982465d2b6)" d="M 303.682734 79.499874 
L 320.144092 79.499874 
" style="fill:none;stroke:#ffa500;stroke-width:1.5;"/>
    <path clip-path="url(#p982465d2b6)" d="M 325.631211 95.807793 
L 342.092568 95.807793 
" style="fill:none;stroke:#ffa500;stroke-width:1.5;"/>
    <path clip-path="url(#p982465d2b6)" d="M 288.135897 98.519645 
L 304.597254 98.519645 
" style="fill:none;stroke:#ffa500;stroke-width:1.5;"/>
    <path clip-path="url(#p982465d2b6)" d="M 190.282274 152.023508 
L 206.743631 152.023508 
" style="fill:none;stroke:#ffa500;stroke-width:1.5;"/>
    <path clip-path="url(#p982465d2b6)" d="M 263.443861 158.537974 
L 279.905218 158.537974 
" style="fill:none;stroke:#ffa500;stroke-width:1.5;"/>
    <path clip-path="url(#p982465d2b6)" d="M 313.742453 86.759867 
L 330.20381 86.759867 
" style="fill:none;stroke:#ffa500;stroke-width:1.5;"/>
    <path clip-path="url(#p982465d2b6)" d="M 212.23075 175.226197 
L 228.692107 175.226197 
" style="fill:none;stroke:#ffa500;stroke-width:1.5;"/>
    <path clip-path="url(#p982465d2b6)" d="M 249.726064 131.900742 
L 266.187421 131.900742 
" style="fill:none;stroke:#ffa500;stroke-width:1.5;"/>
    <path clip-path="url(#p982465d2b6)" d="M 281.734258 118.84103 
L 298.195615 118.84103 
" style="fill:none;stroke:#ffa500;stroke-width:1.5;"/>
    <path clip-path="url(#p982465d2b6)" d="M 258.871262 147.184289 
L 275.332619 147.184289 
" style="fill:none;stroke:#ffa500;stroke-width:1.5;"/>
    <path clip-path="url(#p982465d2b6)" d="M 328.37477 98.519645 
L 344.836128 98.519645 
" style="fill:none;stroke:#ffa500;stroke-width:1.5;"/>
    <path clip-path="url(#p982465d2b6)" d="M 317.400532 79.499874 
L 333.861889 79.499874 
" style="fill:none;stroke:#ffa500;stroke-width:1.5;"/>
    <path clip-path="url(#p982465d2b6)" d="M 244.238944 112.028278 
L 260.700302 112.028278 
" style="fill:none;stroke:#ffa500;stroke-width:1.5;"/>
    <path clip-path="url(#p982465d2b6)" d="M 314.656973 87.176003 
L 331.11833 87.176003 
" style="fill:none;stroke:#ffa500;stroke-width:1.5;"/>
    <path clip-path="url(#p982465d2b6)" d="M 304.597254 147.184289 
L 321.058612 147.184289 
" style="fill:none;stroke:#ffa500;stroke-width:1.5;"/>
    <path clip-path="url(#p982465d2b6)" d="M 246.982504 157.796926 
L 263.443861 157.796926 
" style="fill:none;stroke:#ffa500;stroke-width:1.5;"/>
    <path clip-path="url(#p982465d2b6)" d="M 334.776409 85.519813 
L 351.237766 85.519813 
" style="fill:none;stroke:#ffa500;stroke-width:1.5;"/>
    <path clip-path="url(#p982465d2b6)" d="M 244.238944 141.87662 
L 260.700302 141.87662 
" style="fill:none;stroke:#ffa500;stroke-width:1.5;"/>
    <path clip-path="url(#p982465d2b6)" d="M 323.802171 76.024031 
L 340.263528 76.024031 
" style="fill:none;stroke:#ffa500;stroke-width:1.5;"/>
    <path clip-path="url(#p982465d2b6)" d="M 132.667523 145.167062 
L 150.95792 145.167062 
" style="fill:none;stroke:#ffa500;stroke-width:1.5;"/>
    <path clip-path="url(#p982465d2b6)" d="M 316.486012 56.353154 
L 332.94737 56.353154 
" style="fill:none;stroke:#ffa500;stroke-width:1.5;"/>
    <path clip-path="url(#p982465d2b6)" d="M 255.213183 150.621399 
L 271.67454 150.621399 
" style="fill:none;stroke:#ffa500;stroke-width:1.5;"/>
    <path clip-path="url(#p982465d2b6)" d="M 272.58906 64.749882 
L 289.050417 64.749882 
" style="fill:none;stroke:#ffa500;stroke-width:1.5;"/>
    <path clip-path="url(#p982465d2b6)" d="M 357.639405 67.562181 
L 374.100763 67.562181 
" style="fill:none;stroke:#ffa500;stroke-width:1.5;"/>
    <path clip-path="url(#p982465d2b6)" d="M 283.563298 122.671448 
L 300.024655 122.671448 
" style="fill:none;stroke:#ffa500;stroke-width:1.5;"/>
    <path clip-path="url(#p982465d2b6)" d="M 262.529341 171.043279 
L 278.990699 171.043279 
" style="fill:none;stroke:#ffa500;stroke-width:1.5;"/>
    <path clip-path="url(#p982465d2b6)" d="M 317.400532 72.643428 
L 333.861889 72.643428 
" style="fill:none;stroke:#ffa500;stroke-width:1.5;"/>
    <path clip-path="url(#p982465d2b6)" d="M 312.827933 74.510094 
L 329.28929 74.510094 
" style="fill:none;stroke:#ffa500;stroke-width:1.5;"/>
    <path clip-path="url(#p982465d2b6)" d="M 257.956742 146.508209 
L 274.418099 146.508209 
" style="fill:none;stroke:#ffa500;stroke-width:1.5;"/>
    <path clip-path="url(#p982465d2b6)" d="M 218.632389 113.567395 
L 235.093746 113.567395 
" style="fill:none;stroke:#ffa500;stroke-width:1.5;"/>
    <path clip-path="url(#p982465d2b6)" d="M 321.058612 78.330346 
L 337.519969 78.330346 
" style="fill:none;stroke:#ffa500;stroke-width:1.5;"/>
    <path clip-path="url(#p982465d2b6)" d="M 280.819738 53.464964 
L 297.281096 53.464964 
" style="fill:none;stroke:#ffa500;stroke-width:1.5;"/>
    <path clip-path="url(#p982465d2b6)" d="M 312.827933 100.361235 
L 331.11833 100.361235 
" style="fill:none;stroke:#ffa500;stroke-width:1.5;"/>
    <path clip-path="url(#p982465d2b6)" d="M 317.400532 88.854727 
L 333.861889 88.854727 
" style="fill:none;stroke:#ffa500;stroke-width:1.5;"/>
    <path clip-path="url(#p982465d2b6)" d="M 326.545731 104.60815 
L 343.007088 104.60815 
" style="fill:none;stroke:#ffa500;stroke-width:1.5;"/>
    <path clip-path="url(#p982465d2b6)" d="M 312.827933 73.386709 
L 329.28929 73.386709 
" style="fill:none;stroke:#ffa500;stroke-width:1.5;"/>
    <path clip-path="url(#p982465d2b6)" d="M 331.11833 90.556606 
L 349.408727 90.556606 
" style="fill:none;stroke:#ffa500;stroke-width:1.5;"/>
    <path clip-path="url(#p982465d2b6)" d="M 329.28929 76.788023 
L 345.750647 76.788023 
" style="fill:none;stroke:#ffa500;stroke-width:1.5;"/>
   </g>
   <g id="LineCollection_2">
    <path clip-path="url(#p982465d2b6)" d="M 87.856051 258.222934 
L 87.856051 248.603706 
" style="fill:none;stroke:#ffa500;stroke-width:1.5;"/>
    <path clip-path="url(#p982465d2b6)" d="M 343.007088 125.482146 
L 343.007088 115.649879 
" style="fill:none;stroke:#ffa500;stroke-width:1.5;"/>
    <path clip-path="url(#p982465d2b6)" d="M 290.879457 77.942954 
L 290.879457 71.170165 
" style="fill:none;stroke:#ffa500;stroke-width:1.5;"/>
    <path clip-path="url(#p982465d2b6)" d="M 234.179226 160.03356 
L 234.179226 155.600115 
" style="fill:none;stroke:#ffa500;stroke-width:1.5;"/>
    <path clip-path="url(#p982465d2b6)" d="M 311.913413 80.680594 
L 311.913413 78.330346 
" style="fill:none;stroke:#ffa500;stroke-width:1.5;"/>
    <path clip-path="url(#p982465d2b6)" d="M 333.861889 96.705137 
L 333.861889 94.916928 
" style="fill:none;stroke:#ffa500;stroke-width:1.5;"/>
    <path clip-path="url(#p982465d2b6)" d="M 296.366576 103.176208 
L 296.366576 94.032449 
" style="fill:none;stroke:#ffa500;stroke-width:1.5;"/>
    <path clip-path="url(#p982465d2b6)" d="M 198.512952 157.796926 
L 198.512952 146.508209 
" style="fill:none;stroke:#ffa500;stroke-width:1.5;"/>
    <path clip-path="url(#p982465d2b6)" d="M 271.67454 171.043279 
L 271.67454 147.184289 
" style="fill:none;stroke:#ffa500;stroke-width:1.5;"/>
    <path clip-path="url(#p982465d2b6)" d="M 321.973131 91.8486 
L 321.973131 81.872722 
" style="fill:none;stroke:#ffa500;stroke-width:1.5;"/>
    <path clip-path="url(#p982465d2b6)" d="M 220.461428 181.331259 
L 220.461428 169.409026 
" style="fill:none;stroke:#ffa500;stroke-width:1.5;"/>
    <path clip-path="url(#p982465d2b6)" d="M 257.956742 138.04053 
L 257.956742 126.052051 
" style="fill:none;stroke:#ffa500;stroke-width:1.5;"/>
    <path clip-path="url(#p982465d2b6)" d="M 289.964937 124.914861 
L 289.964937 113.05222 
" style="fill:none;stroke:#ffa500;stroke-width:1.5;"/>
    <path clip-path="url(#p982465d2b6)" d="M 267.101941 153.441734 
L 267.101941 141.228932 
" style="fill:none;stroke:#ffa500;stroke-width:1.5;"/>
    <path clip-path="url(#p982465d2b6)" d="M 336.605449 111.519476 
L 336.605449 86.759867 
" style="fill:none;stroke:#ffa500;stroke-width:1.5;"/>
    <path clip-path="url(#p982465d2b6)" d="M 325.631211 85.519813 
L 325.631211 73.760036 
" style="fill:none;stroke:#ffa500;stroke-width:1.5;"/>
    <path clip-path="url(#p982465d2b6)" d="M 252.469623 118.303407 
L 252.469623 106.056906 
" style="fill:none;stroke:#ffa500;stroke-width:1.5;"/>
    <path clip-path="url(#p982465d2b6)" d="M 322.887651 93.154266 
L 322.887651 81.474065 
" style="fill:none;stroke:#ffa500;stroke-width:1.5;"/>
    <path clip-path="url(#p982465d2b6)" d="M 312.827933 150.621399 
L 312.827933 143.840337 
" style="fill:none;stroke:#ffa500;stroke-width:1.5;"/>
    <path clip-path="url(#p982465d2b6)" d="M 255.213183 163.853812 
L 255.213183 152.023508 
" style="fill:none;stroke:#ffa500;stroke-width:1.5;"/>
    <path clip-path="url(#p982465d2b6)" d="M 343.007088 88.4329 
L 343.007088 82.673921 
" style="fill:none;stroke:#ffa500;stroke-width:1.5;"/>
    <path clip-path="url(#p982465d2b6)" d="M 252.469623 147.864094 
L 252.469623 136.166303 
" style="fill:none;stroke:#ffa500;stroke-width:1.5;"/>
    <path clip-path="url(#p982465d2b6)" d="M 332.03285 87.176003 
L 332.03285 65.796997 
" style="fill:none;stroke:#ffa500;stroke-width:1.5;"/>
    <path clip-path="url(#p982465d2b6)" d="M 141.812722 151.320462 
L 141.812722 139.306021 
" style="fill:none;stroke:#ffa500;stroke-width:1.5;"/>
    <path clip-path="url(#p982465d2b6)" d="M 324.716691 62.681941 
L 324.716691 50.333215 
" style="fill:none;stroke:#ffa500;stroke-width:1.5;"/>
    <path clip-path="url(#p982465d2b6)" d="M 263.443861 156.328048 
L 263.443861 145.167062 
" style="fill:none;stroke:#ffa500;stroke-width:1.5;"/>
    <path clip-path="url(#p982465d2b6)" d="M 280.819738 69.714287 
L 280.819738 59.977519 
" style="fill:none;stroke:#ffa500;stroke-width:1.5;"/>
    <path clip-path="url(#p982465d2b6)" d="M 365.870084 69.352986 
L 365.870084 65.796997 
" style="fill:none;stroke:#ffa500;stroke-width:1.5;"/>
    <path clip-path="url(#p982465d2b6)" d="M 291.793976 128.941745 
L 291.793976 116.704452 
" style="fill:none;stroke:#ffa500;stroke-width:1.5;"/>
    <path clip-path="url(#p982465d2b6)" d="M 270.76002 176.939896 
L 270.76002 165.415659 
" style="fill:none;stroke:#ffa500;stroke-width:1.5;"/>
    <path clip-path="url(#p982465d2b6)" d="M 325.631211 73.386709 
L 325.631211 71.904598 
" style="fill:none;stroke:#ffa500;stroke-width:1.5;"/>
    <path clip-path="url(#p982465d2b6)" d="M 321.058612 78.718958 
L 321.058612 70.440079 
" style="fill:none;stroke:#ffa500;stroke-width:1.5;"/>
    <path clip-path="url(#p982465d2b6)" d="M 266.187421 152.730584 
L 266.187421 140.584626 
" style="fill:none;stroke:#ffa500;stroke-width:1.5;"/>
    <path clip-path="url(#p982465d2b6)" d="M 226.863067 119.381006 
L 226.863067 108.015427 
" style="fill:none;stroke:#ffa500;stroke-width:1.5;"/>
    <path clip-path="url(#p982465d2b6)" d="M 329.28929 79.108798 
L 329.28929 77.556774 
" style="fill:none;stroke:#ffa500;stroke-width:1.5;"/>
    <path clip-path="url(#p982465d2b6)" d="M 289.050417 54.420202 
L 289.050417 52.517065 
" style="fill:none;stroke:#ffa500;stroke-width:1.5;"/>
    <path clip-path="url(#p982465d2b6)" d="M 321.973131 106.543629 
L 321.973131 94.473896 
" style="fill:none;stroke:#ffa500;stroke-width:1.5;"/>
    <path clip-path="url(#p982465d2b6)" d="M 325.631211 90.985769 
L 325.631211 86.759867 
" style="fill:none;stroke:#ffa500;stroke-width:1.5;"/>
    <path clip-path="url(#p982465d2b6)" d="M 334.776409 117.768117 
L 334.776409 92.717507 
" style="fill:none;stroke:#ffa500;stroke-width:1.5;"/>
    <path clip-path="url(#p982465d2b6)" d="M 321.058612 75.264741 
L 321.058612 71.536835 
" style="fill:none;stroke:#ffa500;stroke-width:1.5;"/>
    <path clip-path="url(#p982465d2b6)" d="M 340.263528 96.705137 
L 340.263528 84.699981 
" style="fill:none;stroke:#ffa500;stroke-width:1.5;"/>
    <path clip-path="url(#p982465d2b6)" d="M 337.519969 83.076481 
L 337.519969 70.804582 
" style="fill:none;stroke:#ffa500;stroke-width:1.5;"/>
   </g>
   <g id="line2d_17">
    <path clip-path="url(#p982465d2b6)" d="M 83.283452 232.123604 
L 146.658072 196.562017 
L 184.361961 173.455143 
L 209.230483 159.498655 
L 222.86806 151.024218 
L 230.087953 147.139682 
L 236.505636 143.055612 
L 245.329951 137.405329 
L 266.187421 125.266577 
L 275.813945 119.191178 
L 283.836049 114.805422 
L 290.253733 111.732869 
L 293.462574 109.796856 
L 303.089099 103.643569 
L 306.29794 102.024744 
L 311.913413 98.387324 
L 319.133307 94.200102 
L 323.946569 91.532641 
L 330.364252 87.827294 
L 333.573094 86.02963 
L 336.781935 84.043994 
L 347.21067 78.221992 
L 368.06814 66.781605 
L 403.365398 46.083938 
L 403.365398 46.083938 
" style="fill:none;stroke:#000000;stroke-linecap:square;stroke-width:1.5;"/>
   </g>
   <g id="line2d_18">
    <path clip-path="url(#p982465d2b6)" d="M 83.283452 261.216 
L 120.98734 238.938447 
L 203.61501 187.357703 
L 217.252587 180.212873 
L 219.659218 178.877529 
L 231.692374 171.850232 
L 234.901216 169.972105 
L 248.538792 162.065572 
L 255.758686 157.653194 
L 262.176369 154.0933 
L 275.813945 146.169908 
L 278.220577 144.990909 
L 291.858153 136.699865 
L 295.066995 134.900953 
L 303.089099 130.040758 
L 313.517834 124.012573 
L 324.748779 116.774134 
L 351.221722 101.910469 
L 354.430564 100.195675 
L 377.694665 87.639308 
L 380.903507 85.956842 
L 403.365398 73.92004 
L 403.365398 73.92004 
" style="fill:none;stroke:#ff0000;stroke-dasharray:5.55,2.4;stroke-dashoffset:0;stroke-width:1.5;"/>
   </g>
   <g id="line2d_19">
    <path clip-path="url(#p982465d2b6)" d="M 83.283452 202.137229 
L 91.305555 197.823856 
L 139.438179 172.137351 
L 153.075756 164.455653 
L 233.296795 118.34877 
L 239.714478 114.78898 
L 243.72553 112.447649 
L 254.154265 106.119174 
L 269.396262 96.987804 
L 277.418366 92.073282 
L 283.033839 89.02961 
L 290.253733 84.639729 
L 295.066995 81.636612 
L 298.275836 79.891407 
L 299.880257 79.025039 
L 305.49573 75.77872 
L 314.320044 70.704457 
L 327.957621 62.055587 
L 331.166462 60.473526 
L 335.177514 58.798565 
L 342.397408 54.972483 
L 344.804039 53.589145 
L 368.870351 38.959662 
L 403.365398 19.296 
L 403.365398 19.296 
" style="fill:none;stroke:#ff0000;stroke-dasharray:5.55,2.4;stroke-dashoffset:0;stroke-width:1.5;"/>
   </g>
   <g id="line2d_20">
    <defs>
     <path d="M 0 3 
C 0.795609 3 1.55874 2.683901 2.12132 2.12132 
C 2.683901 1.55874 3 0.795609 3 0 
C 3 -0.795609 2.683901 -1.55874 2.12132 -2.12132 
C 1.55874 -2.683901 0.795609 -3 0 -3 
C -0.795609 -3 -1.55874 -2.683901 -2.12132 -2.12132 
C -2.683901 -1.55874 -3 -0.795609 -3 0 
C -3 0.795609 -2.683901 1.55874 -2.12132 2.12132 
C -1.55874 2.683901 -0.795609 3 0 3 
z
" id="m572752bcd2" style="stroke:#ffa500;"/>
    </defs>
    <g clip-path="url(#p982465d2b6)">
     <use style="fill:#ffa500;stroke:#ffa500;" x="87.856051" xlink:href="#m572752bcd2" y="253.319602"/>
     <use style="fill:#ffa500;stroke:#ffa500;" x="343.007088" xlink:href="#m572752bcd2" y="120.468099"/>
     <use style="fill:#ffa500;stroke:#ffa500;" x="290.879457" xlink:href="#m572752bcd2" y="74.510094"/>
     <use style="fill:#ffa500;stroke:#ffa500;" x="234.179226" xlink:href="#m572752bcd2" y="157.796926"/>
     <use style="fill:#ffa500;stroke:#ffa500;" x="311.913413" xlink:href="#m572752bcd2" y="79.499874"/>
     <use style="fill:#ffa500;stroke:#ffa500;" x="333.861889" xlink:href="#m572752bcd2" y="95.807793"/>
     <use style="fill:#ffa500;stroke:#ffa500;" x="296.366576" xlink:href="#m572752bcd2" y="98.519645"/>
     <use style="fill:#ffa500;stroke:#ffa500;" x="198.512952" xlink:href="#m572752bcd2" y="152.023508"/>
     <use style="fill:#ffa500;stroke:#ffa500;" x="271.67454" xlink:href="#m572752bcd2" y="158.537974"/>
     <use style="fill:#ffa500;stroke:#ffa500;" x="321.973131" xlink:href="#m572752bcd2" y="86.759867"/>
     <use style="fill:#ffa500;stroke:#ffa500;" x="220.461428" xlink:href="#m572752bcd2" y="175.226197"/>
     <use style="fill:#ffa500;stroke:#ffa500;" x="257.956742" xlink:href="#m572752bcd2" y="131.900742"/>
     <use style="fill:#ffa500;stroke:#ffa500;" x="289.964937" xlink:href="#m572752bcd2" y="118.84103"/>
     <use style="fill:#ffa500;stroke:#ffa500;" x="267.101941" xlink:href="#m572752bcd2" y="147.184289"/>
     <use style="fill:#ffa500;stroke:#ffa500;" x="336.605449" xlink:href="#m572752bcd2" y="98.519645"/>
     <use style="fill:#ffa500;stroke:#ffa500;" x="325.631211" xlink:href="#m572752bcd2" y="79.499874"/>
     <use style="fill:#ffa500;stroke:#ffa500;" x="252.469623" xlink:href="#m572752bcd2" y="112.028278"/>
     <use style="fill:#ffa500;stroke:#ffa500;" x="322.887651" xlink:href="#m572752bcd2" y="87.176003"/>
     <use style="fill:#ffa500;stroke:#ffa500;" x="312.827933" xlink:href="#m572752bcd2" y="147.184289"/>
     <use style="fill:#ffa500;stroke:#ffa500;" x="255.213183" xlink:href="#m572752bcd2" y="157.796926"/>
     <use style="fill:#ffa500;stroke:#ffa500;" x="343.007088" xlink:href="#m572752bcd2" y="85.519813"/>
     <use style="fill:#ffa500;stroke:#ffa500;" x="252.469623" xlink:href="#m572752bcd2" y="141.87662"/>
     <use style="fill:#ffa500;stroke:#ffa500;" x="332.03285" xlink:href="#m572752bcd2" y="76.024031"/>
     <use style="fill:#ffa500;stroke:#ffa500;" x="141.812722" xlink:href="#m572752bcd2" y="145.167062"/>
     <use style="fill:#ffa500;stroke:#ffa500;" x="324.716691" xlink:href="#m572752bcd2" y="56.353154"/>
     <use style="fill:#ffa500;stroke:#ffa500;" x="263.443861" xlink:href="#m572752bcd2" y="150.621399"/>
     <use style="fill:#ffa500;stroke:#ffa500;" x="280.819738" xlink:href="#m572752bcd2" y="64.749882"/>
     <use style="fill:#ffa500;stroke:#ffa500;" x="365.870084" xlink:href="#m572752bcd2" y="67.562181"/>
     <use style="fill:#ffa500;stroke:#ffa500;" x="291.793976" xlink:href="#m572752bcd2" y="122.671448"/>
     <use style="fill:#ffa500;stroke:#ffa500;" x="270.76002" xlink:href="#m572752bcd2" y="171.043279"/>
     <use style="fill:#ffa500;stroke:#ffa500;" x="325.631211" xlink:href="#m572752bcd2" y="72.643428"/>
     <use style="fill:#ffa500;stroke:#ffa500;" x="321.058612" xlink:href="#m572752bcd2" y="74.510094"/>
     <use style="fill:#ffa500;stroke:#ffa500;" x="266.187421" xlink:href="#m572752bcd2" y="146.508209"/>
     <use style="fill:#ffa500;stroke:#ffa500;" x="226.863067" xlink:href="#m572752bcd2" y="113.567395"/>
     <use style="fill:#ffa500;stroke:#ffa500;" x="329.28929" xlink:href="#m572752bcd2" y="78.330346"/>
     <use style="fill:#ffa500;stroke:#ffa500;" x="289.050417" xlink:href="#m572752bcd2" y="53.464964"/>
     <use style="fill:#ffa500;stroke:#ffa500;" x="321.973131" xlink:href="#m572752bcd2" y="100.361235"/>
     <use style="fill:#ffa500;stroke:#ffa500;" x="325.631211" xlink:href="#m572752bcd2" y="88.854727"/>
     <use style="fill:#ffa500;stroke:#ffa500;" x="334.776409" xlink:href="#m572752bcd2" y="104.60815"/>
     <use style="fill:#ffa500;stroke:#ffa500;" x="321.058612" xlink:href="#m572752bcd2" y="73.386709"/>
     <use style="fill:#ffa500;stroke:#ffa500;" x="340.263528" xlink:href="#m572752bcd2" y="90.556606"/>
     <use style="fill:#ffa500;stroke:#ffa500;" x="337.519969" xlink:href="#m572752bcd2" y="76.788023"/>
    </g>
   </g>
   <g id="patch_3">
    <path d="M 62.478125 273.312 
L 62.478125 7.2 
" style="fill:none;stroke:#000000;stroke-linecap:square;stroke-linejoin:miter;stroke-width:0.8;"/>
   </g>
   <g id="patch_4">
    <path d="M 419.598125 273.312 
L 419.598125 7.2 
" style="fill:none;stroke:#000000;stroke-linecap:square;stroke-linejoin:miter;stroke-width:0.8;"/>
   </g>
   <g id="patch_5">
    <path d="M 62.478125 273.312 
L 419.598125 273.312 
" style="fill:none;stroke:#000000;stroke-linecap:square;stroke-linejoin:miter;stroke-width:0.8;"/>
   </g>
   <g id="patch_6">
    <path d="M 62.478125 7.2 
L 419.598125 7.2 
" style="fill:none;stroke:#000000;stroke-linecap:square;stroke-linejoin:miter;stroke-width:0.8;"/>
   </g>
  </g>
 </g>
 <defs>
  <clipPath id="p982465d2b6">
   <rect height="266.112" width="357.12" x="62.478125" y="7.2"/>
  </clipPath>
 </defs>
</svg>
