<?xml version="1.0" encoding="utf-8" standalone="no"?>
<!DOCTYPE svg PUBLIC "-//W3C//DTD SVG 1.1//EN"
  "http://www.w3.org/Graphics/SVG/1.1/DTD/svg11.dtd">
<!-- Created with matplotlib (https://matplotlib.org/) -->
<svg height="310.86825pt" version="1.1" viewBox="0 0 391.245 310.86825" width="391.245pt" xmlns="http://www.w3.org/2000/svg" xmlns:xlink="http://www.w3.org/1999/xlink">
 <metadata>
  <rdf:RDF xmlns:cc="http://creativecommons.org/ns#" xmlns:dc="http://purl.org/dc/elements/1.1/" xmlns:rdf="http://www.w3.org/1999/02/22-rdf-syntax-ns#">
   <cc:Work>
    <dc:type rdf:resource="http://purl.org/dc/dcmitype/StillImage"/>
    <dc:date>2020-12-01T13:01:37.271206</dc:date>
    <dc:format>image/svg+xml</dc:format>
    <dc:creator>
     <cc:Agent>
      <dc:title>Matplotlib v3.3.2, https://matplotlib.org/</dc:title>
     </cc:Agent>
    </dc:creator>
   </cc:Work>
  </rdf:RDF>
 </metadata>
 <defs>
  <style type="text/css">*{stroke-linecap:butt;stroke-linejoin:round;}</style>
 </defs>
 <g id="figure_1">
  <g id="patch_1">
   <path d="M 0 310.86825 
L 391.245 310.86825 
L 391.245 0 
L 0 0 
z
" style="fill:#ffffff;"/>
  </g>
  <g id="axes_1">
   <g id="patch_2">
    <path d="M 26.925 273.312 
L 384.045 273.312 
L 384.045 7.2 
L 26.925 7.2 
z
" style="fill:#ffffff;"/>
   </g>
   <g id="PolyCollection_1">
    <path clip-path="url(#p2a70876a29)" d="M 193.725908 254.483133 
L 193.725908 255.216236 
L 195.099254 255.286991 
L 196.4726 255.361364 
L 197.845946 255.437631 
L 199.219293 255.51418 
L 200.592639 255.589736 
L 201.965985 255.663534 
L 203.339332 255.735417 
L 204.712678 255.805835 
L 206.086024 255.875779 
L 207.45937 255.946662 
L 208.832717 256.020206 
L 210.206063 256.098352 
L 211.579409 256.183197 
L 212.952755 256.276947 
L 214.326102 256.38184 
L 215.699448 256.500005 
L 217.072794 256.63324 
L 218.44614 256.782724 
L 219.819487 256.948704 
L 221.192833 257.130235 
L 222.566179 257.325051 
L 223.939525 257.52962 
L 225.312872 257.7394 
L 226.686218 257.949263 
L 228.059564 258.154031 
L 229.43291 258.349015 
L 230.806257 258.530481 
L 232.179603 258.695986 
L 233.552949 258.844545 
L 234.926296 258.976669 
L 236.299642 259.094274 
L 237.672988 259.200512 
L 239.046334 259.299539 
L 240.419681 259.396191 
L 241.793027 259.495572 
L 243.166373 259.602538 
L 244.539719 259.721088 
L 245.913066 259.853749 
L 247.286412 260.001044 
L 248.659758 260.16117 
L 250.033104 260.329985 
L 251.406451 260.501362 
L 252.779797 260.667874 
L 254.153143 260.821728 
L 255.526489 260.955772 
L 256.899836 261.064406 
L 258.273182 261.144225 
L 259.646528 261.194291 
L 261.019874 261.216 
L 262.393221 261.212597 
L 263.766567 261.188458 
L 265.139913 261.148275 
L 266.513259 261.0963 
L 267.886606 261.03575 
L 269.259952 260.968434 
L 270.633298 260.894618 
L 272.006645 260.813112 
L 273.379991 260.721526 
L 274.753337 260.616675 
L 276.126683 260.495077 
L 277.50003 260.353495 
L 278.873376 260.189498 
L 280.246722 260.001932 
L 281.620068 259.791257 
L 282.993415 259.559662 
L 284.366761 259.310906 
L 285.740107 259.049912 
L 287.113453 258.782151 
L 288.4868 258.512962 
L 289.860146 258.246926 
L 291.233492 257.98744 
L 292.606838 257.736581 
L 293.980185 257.495249 
L 295.353531 257.263533 
L 296.726877 257.041191 
L 298.100223 256.828077 
L 299.47357 256.624441 
L 300.846916 256.431023 
L 302.220262 256.248966 
L 303.593609 256.079603 
L 304.966955 255.924214 
L 306.340301 255.783813 
L 307.713647 255.659022 
L 309.086994 255.550024 
L 310.46034 255.456585 
L 311.833686 255.378098 
L 313.207032 255.313616 
L 314.580379 255.26188 
L 315.953725 255.221327 
L 317.327071 255.190119 
L 318.700417 255.166207 
L 320.073764 255.147435 
L 321.44711 255.131693 
L 322.820456 255.117082 
L 324.193802 255.102074 
L 325.567149 255.085621 
L 326.940495 255.067206 
L 328.313841 255.046819 
L 329.687187 255.02487 
L 329.687187 254.674498 
L 329.687187 254.674498 
L 328.313841 254.652549 
L 326.940495 254.632162 
L 325.567149 254.613747 
L 324.193802 254.597294 
L 322.820456 254.582286 
L 321.44711 254.567676 
L 320.073764 254.551934 
L 318.700417 254.533162 
L 317.327071 254.509249 
L 315.953725 254.478042 
L 314.580379 254.437488 
L 313.207032 254.385752 
L 311.833686 254.32127 
L 310.46034 254.242783 
L 309.086994 254.149345 
L 307.713647 254.040347 
L 306.340301 253.915555 
L 304.966955 253.775155 
L 303.593609 253.619766 
L 302.220262 253.450403 
L 300.846916 253.268345 
L 299.47357 253.074927 
L 298.100223 252.871291 
L 296.726877 252.658178 
L 295.353531 252.435835 
L 293.980185 252.20412 
L 292.606838 251.962787 
L 291.233492 251.711928 
L 289.860146 251.452443 
L 288.4868 251.186406 
L 287.113453 250.917217 
L 285.740107 250.649457 
L 284.366761 250.388462 
L 282.993415 250.139707 
L 281.620068 249.908111 
L 280.246722 249.697437 
L 278.873376 249.50987 
L 277.50003 249.345873 
L 276.126683 249.204292 
L 274.753337 249.082693 
L 273.379991 248.977843 
L 272.006645 248.886257 
L 270.633298 248.80475 
L 269.259952 248.730935 
L 267.886606 248.663619 
L 266.513259 248.603069 
L 265.139913 248.551094 
L 263.766567 248.51091 
L 262.393221 248.486771 
L 261.019874 248.483368 
L 259.646528 248.505077 
L 258.273182 248.555143 
L 256.899836 248.634962 
L 255.526489 248.743596 
L 254.153143 248.87764 
L 252.779797 249.031494 
L 251.406451 249.198007 
L 250.033104 249.369383 
L 248.659758 249.538199 
L 247.286412 249.698324 
L 245.913066 249.845619 
L 244.539719 249.97828 
L 243.166373 250.09683 
L 241.793027 250.203796 
L 240.419681 250.303178 
L 239.046334 250.39983 
L 237.672988 250.498856 
L 236.299642 250.605095 
L 234.926296 250.722699 
L 233.552949 250.854823 
L 232.179603 251.003383 
L 230.806257 251.168887 
L 229.43291 251.350354 
L 228.059564 251.545337 
L 226.686218 251.750105 
L 225.312872 251.959969 
L 223.939525 252.169748 
L 222.566179 252.374318 
L 221.192833 252.569134 
L 219.819487 252.750664 
L 218.44614 252.916644 
L 217.072794 253.066128 
L 215.699448 253.199364 
L 214.326102 253.317528 
L 212.952755 253.422421 
L 211.579409 253.516171 
L 210.206063 253.601017 
L 208.832717 253.679163 
L 207.45937 253.752707 
L 206.086024 253.82359 
L 204.712678 253.893533 
L 203.339332 253.963952 
L 201.965985 254.035834 
L 200.592639 254.109632 
L 199.219293 254.185188 
L 197.845946 254.261738 
L 196.4726 254.338005 
L 195.099254 254.412377 
L 193.725908 254.483133 
z
" style="fill:#1f77b4;fill-opacity:0.3;"/>
   </g>
   <g id="PolyCollection_2">
    <path clip-path="url(#p2a70876a29)" d="M 56.963294 229.31262 
L 56.963294 229.456222 
L 59.863347 229.461782 
L 62.7634 229.467768 
L 65.663452 229.474912 
L 68.563505 229.484066 
L 71.463558 229.496121 
L 74.36361 229.511917 
L 77.263663 229.532175 
L 80.163716 229.557458 
L 83.063768 229.588169 
L 85.963821 229.624589 
L 88.863874 229.666937 
L 91.763926 229.715452 
L 94.663979 229.770481 
L 97.564032 229.832541 
L 100.464084 229.902368 
L 103.364137 229.980915 
L 106.26419 230.069311 
L 109.164242 230.168759 
L 112.064295 230.280406 
L 114.964348 230.405169 
L 117.8644 230.543563 
L 120.764453 230.695549 
L 123.664506 230.860418 
L 126.564558 231.036755 
L 129.464611 231.222474 
L 132.364664 231.414944 
L 135.264716 231.611166 
L 138.164769 231.808013 
L 141.064822 232.002463 
L 143.964874 232.191828 
L 146.864927 232.373935 
L 149.76498 232.54725 
L 152.665032 232.710947 
L 155.565085 232.864932 
L 158.465138 233.00982 
L 161.36519 233.146896 
L 164.265243 233.278036 
L 167.165296 233.405609 
L 170.065348 233.532325 
L 172.965401 233.661036 
L 175.865454 233.794483 
L 178.765506 233.935 
L 181.665559 234.08422 
L 184.565612 234.242789 
L 187.465664 234.41017 
L 190.365717 234.584532 
L 193.26577 234.762773 
L 196.165822 234.940663 
L 199.065875 235.113117 
L 201.965928 235.274559 
L 204.86598 235.41936 
L 207.766033 235.54231 
L 210.666086 235.639089 
L 213.566138 235.706687 
L 216.466191 235.743744 
L 219.366244 235.750737 
L 222.266296 235.730004 
L 225.166349 235.685574 
L 228.066402 235.622799 
L 230.966454 235.547838 
L 233.866507 235.467029 
L 236.76656 235.386239 
L 239.666612 235.310259 
L 242.566665 235.242311 
L 245.466718 235.183717 
L 248.36677 235.133747 
L 251.266823 235.089653 
L 254.166876 235.046898 
L 257.066928 234.999541 
L 259.966981 234.940791 
L 262.867034 234.863679 
L 265.767086 234.761802 
L 268.667139 234.630073 
L 271.567192 234.465366 
L 274.467244 234.266972 
L 277.367297 234.03678 
L 280.26735 233.779159 
L 283.167402 233.50054 
L 286.067455 233.208791 
L 288.967508 232.912472 
L 291.867561 232.620074 
L 294.767613 232.339345 
L 297.667666 232.076742 
L 300.567719 231.837038 
L 303.467771 231.623088 
L 306.367824 231.435735 
L 309.267877 231.27387 
L 312.167929 231.13464 
L 315.067982 231.01381 
L 317.968035 230.906278 
L 320.868087 230.806677 
L 323.76814 230.710027 
L 326.668193 230.612313 
L 329.568245 230.51092 
L 332.468298 230.404846 
L 335.368351 230.294662 
L 338.268403 230.182244 
L 341.168456 230.070346 
L 344.068509 229.962092 
L 344.068509 228.80675 
L 344.068509 228.80675 
L 341.168456 228.698496 
L 338.268403 228.586598 
L 335.368351 228.47418 
L 332.468298 228.363996 
L 329.568245 228.257922 
L 326.668193 228.156529 
L 323.76814 228.058815 
L 320.868087 227.962165 
L 317.968035 227.862564 
L 315.067982 227.755032 
L 312.167929 227.634203 
L 309.267877 227.494972 
L 306.367824 227.333107 
L 303.467771 227.145754 
L 300.567719 226.931804 
L 297.667666 226.6921 
L 294.767613 226.429497 
L 291.867561 226.148768 
L 288.967508 225.85637 
L 286.067455 225.560051 
L 283.167402 225.268302 
L 280.26735 224.989683 
L 277.367297 224.732062 
L 274.467244 224.50187 
L 271.567192 224.303476 
L 268.667139 224.138769 
L 265.767086 224.00704 
L 262.867034 223.905164 
L 259.966981 223.828051 
L 257.066928 223.769301 
L 254.166876 223.721944 
L 251.266823 223.679189 
L 248.36677 223.635095 
L 245.466718 223.585125 
L 242.566665 223.526531 
L 239.666612 223.458583 
L 236.76656 223.382603 
L 233.866507 223.301813 
L 230.966454 223.221004 
L 228.066402 223.146043 
L 225.166349 223.083268 
L 222.266296 223.038838 
L 219.366244 223.018105 
L 216.466191 223.025098 
L 213.566138 223.062155 
L 210.666086 223.129753 
L 207.766033 223.226532 
L 204.86598 223.349482 
L 201.965928 223.494283 
L 199.065875 223.655725 
L 196.165822 223.82818 
L 193.26577 224.00607 
L 190.365717 224.18431 
L 187.465664 224.358672 
L 184.565612 224.526053 
L 181.665559 224.684623 
L 178.765506 224.833842 
L 175.865454 224.974359 
L 172.965401 225.107806 
L 170.065348 225.236517 
L 167.165296 225.363233 
L 164.265243 225.490806 
L 161.36519 225.621946 
L 158.465138 225.759022 
L 155.565085 225.90391 
L 152.665032 226.057895 
L 149.76498 226.221592 
L 146.864927 226.394907 
L 143.964874 226.577014 
L 141.064822 226.766379 
L 138.164769 226.960829 
L 135.264716 227.157676 
L 132.364664 227.353898 
L 129.464611 227.546368 
L 126.564558 227.732087 
L 123.664506 227.908424 
L 120.764453 228.073293 
L 117.8644 228.225279 
L 114.964348 228.363674 
L 112.064295 228.488436 
L 109.164242 228.600083 
L 106.26419 228.699531 
L 103.364137 228.787927 
L 100.464084 228.866474 
L 97.564032 228.936301 
L 94.663979 228.998361 
L 91.763926 229.05339 
L 88.863874 229.101905 
L 85.963821 229.144253 
L 83.063768 229.180673 
L 80.163716 229.211384 
L 77.263663 229.236667 
L 74.36361 229.256925 
L 71.463558 229.272721 
L 68.563505 229.284776 
L 65.663452 229.29393 
L 62.7634 229.301074 
L 59.863347 229.30706 
L 56.963294 229.31262 
z
" style="fill:#1f77b4;fill-opacity:0.3;"/>
   </g>
   <g id="PolyCollection_3">
    <path clip-path="url(#p2a70876a29)" d="M 158.452813 203.274738 
L 158.452813 204.563578 
L 159.749924 204.640447 
L 161.047034 204.712692 
L 162.344144 204.778349 
L 163.641255 204.83601 
L 164.938365 204.884982 
L 166.235475 204.925375 
L 167.532586 204.958127 
L 168.829696 204.98497 
L 170.126806 205.008331 
L 171.423917 205.03121 
L 172.721027 205.057028 
L 174.018137 205.089484 
L 175.315248 205.132421 
L 176.612358 205.189699 
L 177.909468 205.265085 
L 179.206579 205.362122 
L 180.503689 205.483985 
L 181.800799 205.633314 
L 183.09791 205.81202 
L 184.39502 206.021108 
L 185.69213 206.260511 
L 186.989241 206.528985 
L 188.286351 206.824059 
L 189.583461 207.142053 
L 190.880572 207.478141 
L 192.177682 207.826454 
L 193.474792 208.180195 
L 194.771903 208.531774 
L 196.069013 208.872969 
L 197.366123 209.195134 
L 198.663234 209.489496 
L 199.960344 209.747545 
L 201.257455 209.961536 
L 202.554565 210.125071 
L 203.851675 210.2337 
L 205.148786 210.285474 
L 206.445896 210.281331 
L 207.743006 210.22525 
L 209.040117 210.124075 
L 210.337227 209.987013 
L 211.634337 209.824818 
L 212.931448 209.648761 
L 214.228558 209.469518 
L 215.525668 209.296148 
L 216.822779 209.135289 
L 218.119889 208.990715 
L 219.416999 208.863297 
L 220.71411 208.751343 
L 222.01122 208.651258 
L 223.30833 208.558367 
L 224.605441 208.467778 
L 225.902551 208.375118 
L 227.199661 208.277053 
L 228.496772 208.171525 
L 229.793882 208.057719 
L 231.090992 207.935808 
L 232.388103 207.806568 
L 233.685213 207.670976 
L 234.982323 207.529893 
L 236.279434 207.383895 
L 237.576544 207.233285 
L 238.873654 207.078263 
L 240.170765 206.919183 
L 241.467875 206.756822 
L 242.764985 206.592558 
L 244.062096 206.428411 
L 245.359206 206.266911 
L 246.656316 206.11082 
L 247.953427 205.962768 
L 249.250537 205.824885 
L 250.547648 205.698506 
L 251.844758 205.584023 
L 253.141868 205.480891 
L 254.438979 205.387802 
L 255.736089 205.302966 
L 257.033199 205.224443 
L 258.33031 205.150457 
L 259.62742 205.079634 
L 260.92453 205.011134 
L 262.221641 204.944666 
L 263.518751 204.880398 
L 264.815861 204.818805 
L 266.112972 204.760485 
L 267.410082 204.705985 
L 268.707192 204.65567 
L 270.004303 204.60964 
L 271.301413 204.567719 
L 272.598523 204.52948 
L 273.895634 204.494318 
L 275.192744 204.461528 
L 276.489854 204.430388 
L 277.786965 204.400222 
L 279.084075 204.370451 
L 280.381185 204.340617 
L 281.678296 204.310398 
L 282.975406 204.279613 
L 284.272516 204.248224 
L 285.569627 204.21634 
L 286.866737 204.184212 
L 286.866737 203.654103 
L 286.866737 203.654103 
L 285.569627 203.621976 
L 284.272516 203.590092 
L 282.975406 203.558703 
L 281.678296 203.527918 
L 280.381185 203.497698 
L 279.084075 203.467865 
L 277.786965 203.438094 
L 276.489854 203.407928 
L 275.192744 203.376787 
L 273.895634 203.343998 
L 272.598523 203.308836 
L 271.301413 203.270597 
L 270.004303 203.228676 
L 268.707192 203.182646 
L 267.410082 203.132331 
L 266.112972 203.077831 
L 264.815861 203.019511 
L 263.518751 202.957918 
L 262.221641 202.89365 
L 260.92453 202.827181 
L 259.62742 202.758682 
L 258.33031 202.687859 
L 257.033199 202.613873 
L 255.736089 202.53535 
L 254.438979 202.450514 
L 253.141868 202.357425 
L 251.844758 202.254293 
L 250.547648 202.139809 
L 249.250537 202.013431 
L 247.953427 201.875548 
L 246.656316 201.727496 
L 245.359206 201.571405 
L 244.062096 201.409905 
L 242.764985 201.245758 
L 241.467875 201.081494 
L 240.170765 200.919132 
L 238.873654 200.760053 
L 237.576544 200.605031 
L 236.279434 200.454421 
L 234.982323 200.308423 
L 233.685213 200.16734 
L 232.388103 200.031748 
L 231.090992 199.902508 
L 229.793882 199.780597 
L 228.496772 199.666791 
L 227.199661 199.561263 
L 225.902551 199.463197 
L 224.605441 199.370538 
L 223.30833 199.279949 
L 222.01122 199.187058 
L 220.71411 199.086972 
L 219.416999 198.975019 
L 218.119889 198.8476 
L 216.822779 198.703027 
L 215.525668 198.542168 
L 214.228558 198.368797 
L 212.931448 198.189555 
L 211.634337 198.013497 
L 210.337227 197.851302 
L 209.040117 197.714241 
L 207.743006 197.613066 
L 206.445896 197.556985 
L 205.148786 197.552842 
L 203.851675 197.604615 
L 202.554565 197.713245 
L 201.257455 197.87678 
L 199.960344 198.090771 
L 198.663234 198.34882 
L 197.366123 198.643182 
L 196.069013 198.965347 
L 194.771903 199.306542 
L 193.474792 199.658121 
L 192.177682 200.011862 
L 190.880572 200.360174 
L 189.583461 200.696263 
L 188.286351 201.014257 
L 186.989241 201.309331 
L 185.69213 201.577805 
L 184.39502 201.817208 
L 183.09791 202.026296 
L 181.800799 202.205002 
L 180.503689 202.354331 
L 179.206579 202.476194 
L 177.909468 202.573231 
L 176.612358 202.648617 
L 175.315248 202.705895 
L 174.018137 202.748832 
L 172.721027 202.781288 
L 171.423917 202.807106 
L 170.126806 202.829985 
L 168.829696 202.853346 
L 167.532586 202.880188 
L 166.235475 202.912941 
L 164.938365 202.953334 
L 163.641255 203.002306 
L 162.344144 203.059967 
L 161.047034 203.125623 
L 159.749924 203.197869 
L 158.452813 203.274738 
z
" style="fill:#1f77b4;fill-opacity:0.3;"/>
   </g>
   <g id="PolyCollection_4">
    <path clip-path="url(#p2a70876a29)" d="M 212.244467 178.387893 
L 212.244467 178.519896 
L 212.874873 178.524366 
L 213.505279 178.529016 
L 214.135685 178.534842 
L 214.766091 178.542956 
L 215.396496 178.554392 
L 216.026902 178.569942 
L 216.657308 178.590066 
L 217.287714 178.614894 
L 217.91812 178.644316 
L 218.548526 178.678134 
L 219.178932 178.716202 
L 219.809338 178.758525 
L 220.439744 178.805281 
L 221.07015 178.856782 
L 221.700556 178.91342 
L 222.330961 178.975635 
L 222.961367 179.043966 
L 223.591773 179.11919 
L 224.222179 179.202516 
L 224.852585 179.295779 
L 225.482991 179.401533 
L 226.113397 179.522984 
L 226.743803 179.663716 
L 227.374209 179.827238 
L 228.004615 180.016413 
L 228.635021 180.232882 
L 229.265427 180.4766 
L 229.895832 180.745555 
L 230.526238 181.035721 
L 231.156644 181.341231 
L 231.78705 181.654729 
L 232.417456 181.967885 
L 233.047862 182.272018 
L 233.678268 182.558807 
L 234.308674 182.821026 
L 234.93908 183.053227 
L 235.569486 183.252257 
L 236.199892 183.417496 
L 236.830297 183.550791 
L 237.460703 183.65607 
L 238.091109 183.738768 
L 238.721515 183.805171 
L 239.351921 183.861814 
L 239.982327 183.914985 
L 240.612733 183.970346 
L 241.243139 184.032594 
L 241.873545 184.105121 
L 242.503951 184.189631 
L 243.134357 184.285768 
L 243.764763 184.390845 
L 244.395168 184.499787 
L 245.025574 184.605417 
L 245.65598 184.699083 
L 246.286386 184.771591 
L 246.916792 184.814307 
L 247.547198 184.820211 
L 248.177604 184.784743 
L 248.80801 184.70629 
L 249.438416 184.586247 
L 250.068822 184.428703 
L 250.699228 184.239803 
L 251.329633 184.026924 
L 251.960039 183.797776 
L 252.590445 183.559546 
L 253.220851 183.318202 
L 253.851257 183.078048 
L 254.481663 182.841592 
L 255.112069 182.609743 
L 255.742475 182.382259 
L 256.372881 182.158321 
L 257.003287 181.937092 
L 257.633693 181.718117 
L 258.264099 181.501504 
L 258.894504 181.287911 
L 259.52491 181.078401 
L 260.155316 180.874268 
L 260.785722 180.6769 
L 261.416128 180.487686 
L 262.046534 180.307945 
L 262.67694 180.138824 
L 263.307346 179.981145 
L 263.937752 179.835227 
L 264.568158 179.700739 
L 265.198564 179.576679 
L 265.828969 179.461511 
L 266.459375 179.353473 
L 267.089781 179.250977 
L 267.720187 179.152994 
L 268.350593 179.059299 
L 268.980999 178.970507 
L 269.611405 178.88788 
L 270.241811 178.812969 
L 270.872217 178.747189 
L 271.502623 178.691432 
L 272.133029 178.645843 
L 272.763435 178.609763 
L 273.39384 178.581875 
L 274.024246 178.560463 
L 274.654652 178.543732 
L 274.654652 178.364057 
L 274.654652 178.364057 
L 274.024246 178.347326 
L 273.39384 178.325915 
L 272.763435 178.298027 
L 272.133029 178.261947 
L 271.502623 178.216357 
L 270.872217 178.160601 
L 270.241811 178.09482 
L 269.611405 178.01991 
L 268.980999 177.937283 
L 268.350593 177.84849 
L 267.720187 177.754795 
L 267.089781 177.656812 
L 266.459375 177.554317 
L 265.828969 177.446278 
L 265.198564 177.33111 
L 264.568158 177.20705 
L 263.937752 177.072563 
L 263.307346 176.926644 
L 262.67694 176.768965 
L 262.046534 176.599844 
L 261.416128 176.420104 
L 260.785722 176.23089 
L 260.155316 176.033522 
L 259.52491 175.829389 
L 258.894504 175.619878 
L 258.264099 175.406285 
L 257.633693 175.189673 
L 257.003287 174.970697 
L 256.372881 174.749469 
L 255.742475 174.525531 
L 255.112069 174.298046 
L 254.481663 174.066198 
L 253.851257 173.829742 
L 253.220851 173.589588 
L 252.590445 173.348244 
L 251.960039 173.110014 
L 251.329633 172.880865 
L 250.699228 172.667986 
L 250.068822 172.479086 
L 249.438416 172.321542 
L 248.80801 172.2015 
L 248.177604 172.123046 
L 247.547198 172.087579 
L 246.916792 172.093483 
L 246.286386 172.136198 
L 245.65598 172.208707 
L 245.025574 172.302372 
L 244.395168 172.408002 
L 243.764763 172.516945 
L 243.134357 172.622021 
L 242.503951 172.718159 
L 241.873545 172.802669 
L 241.243139 172.875196 
L 240.612733 172.937444 
L 239.982327 172.992804 
L 239.351921 173.045976 
L 238.721515 173.102618 
L 238.091109 173.169022 
L 237.460703 173.25172 
L 236.830297 173.356999 
L 236.199892 173.490293 
L 235.569486 173.655533 
L 234.93908 173.854562 
L 234.308674 174.086764 
L 233.678268 174.348983 
L 233.047862 174.635771 
L 232.417456 174.939905 
L 231.78705 175.253061 
L 231.156644 175.566559 
L 230.526238 175.872068 
L 229.895832 176.162235 
L 229.265427 176.43119 
L 228.635021 176.674907 
L 228.004615 176.891376 
L 227.374209 177.080551 
L 226.743803 177.244074 
L 226.113397 177.384806 
L 225.482991 177.506256 
L 224.852585 177.61201 
L 224.222179 177.705273 
L 223.591773 177.7886 
L 222.961367 177.863823 
L 222.330961 177.932154 
L 221.700556 177.994369 
L 221.07015 178.051007 
L 220.439744 178.102509 
L 219.809338 178.149264 
L 219.178932 178.191587 
L 218.548526 178.229656 
L 217.91812 178.263474 
L 217.287714 178.292896 
L 216.657308 178.317723 
L 216.026902 178.337847 
L 215.396496 178.353398 
L 214.766091 178.364833 
L 214.135685 178.372947 
L 213.505279 178.378774 
L 212.874873 178.383423 
L 212.244467 178.387893 
z
" style="fill:#1f77b4;fill-opacity:0.3;"/>
   </g>
   <g id="PolyCollection_5">
    <path clip-path="url(#p2a70876a29)" d="M 140.746733 152.92706 
L 140.746733 153.050203 
L 142.076684 153.052905 
L 143.406635 153.055139 
L 144.736585 153.057981 
L 146.066536 153.062743 
L 147.396487 153.070782 
L 148.726438 153.083313 
L 150.056388 153.101284 
L 151.386339 153.125313 
L 152.71629 153.155711 
L 154.04624 153.192554 
L 155.376191 153.235759 
L 156.706142 153.285135 
L 158.036093 153.34038 
L 159.366043 153.401022 
L 160.695994 153.466367 
L 162.025945 153.535518 
L 163.355895 153.607549 
L 164.685846 153.681892 
L 166.015797 153.758877 
L 167.345748 153.840315 
L 168.675698 153.92989 
L 170.005649 154.033155 
L 171.3356 154.156998 
L 172.66555 154.308592 
L 173.995501 154.494048 
L 175.325452 154.717065 
L 176.655403 154.977927 
L 177.985353 155.273066 
L 179.315304 155.595296 
L 180.645255 155.934623 
L 181.975205 156.27948 
L 183.305156 156.618142 
L 184.635107 156.940113 
L 185.965058 157.237249 
L 187.295008 157.504454 
L 188.624959 157.739824 
L 189.95491 157.944227 
L 191.28486 158.12044 
L 192.614811 158.272086 
L 193.944762 158.402664 
L 195.274713 158.514933 
L 196.604663 158.610777 
L 197.934614 158.691535 
L 199.264565 158.758617 
L 200.594515 158.814153 
L 201.924466 158.861423 
L 203.254417 158.904842 
L 204.584367 158.949427 
L 205.914318 158.999783 
L 207.244269 159.058811 
L 208.57422 159.126473 
L 209.90417 159.198973 
L 211.234121 159.268658 
L 212.564072 159.324774 
L 213.894022 159.354947 
L 215.223973 159.347098 
L 216.553924 159.291326 
L 217.883875 159.18137 
L 219.213825 159.015364 
L 220.543776 158.795842 
L 221.873727 158.529086 
L 223.203677 158.224067 
L 224.533628 157.891237 
L 225.863579 157.541384 
L 227.19353 157.184723 
L 228.52348 156.830278 
L 229.853431 156.485597 
L 231.183382 156.156723 
L 232.513332 155.848359 
L 233.843283 155.564099 
L 235.173234 155.30662 
L 236.503185 155.077745 
L 237.833135 154.878355 
L 239.163086 154.70818 
L 240.493037 154.565573 
L 241.822987 154.44739 
L 243.152938 154.34912 
L 244.482889 154.265301 
L 245.81284 154.190209 
L 247.14279 154.118647 
L 248.472741 154.046668 
L 249.802692 153.972033 
L 251.132642 153.894294 
L 252.462593 153.814517 
L 253.792544 153.734737 
L 255.122495 153.657324 
L 256.452445 153.584395 
L 257.782396 153.517425 
L 259.112347 153.457072 
L 260.442297 153.403245 
L 261.772248 153.355314 
L 263.102199 153.312399 
L 264.432149 153.27364 
L 265.7621 153.238359 
L 267.092051 153.206126 
L 268.422002 153.176705 
L 269.751952 153.14996 
L 271.081903 153.125766 
L 272.411854 153.103964 
L 272.411854 152.873299 
L 272.411854 152.873299 
L 271.081903 152.851497 
L 269.751952 152.827303 
L 268.422002 152.800559 
L 267.092051 152.771137 
L 265.7621 152.738904 
L 264.432149 152.703624 
L 263.102199 152.664864 
L 261.772248 152.62195 
L 260.442297 152.574018 
L 259.112347 152.520191 
L 257.782396 152.459838 
L 256.452445 152.392868 
L 255.122495 152.319939 
L 253.792544 152.242526 
L 252.462593 152.162747 
L 251.132642 152.082969 
L 249.802692 152.00523 
L 248.472741 151.930595 
L 247.14279 151.858616 
L 245.81284 151.787054 
L 244.482889 151.711962 
L 243.152938 151.628144 
L 241.822987 151.529873 
L 240.493037 151.41169 
L 239.163086 151.269083 
L 237.833135 151.098909 
L 236.503185 150.899519 
L 235.173234 150.670643 
L 233.843283 150.413164 
L 232.513332 150.128904 
L 231.183382 149.820541 
L 229.853431 149.491667 
L 228.52348 149.146985 
L 227.19353 148.792541 
L 225.863579 148.435879 
L 224.533628 148.086026 
L 223.203677 147.753196 
L 221.873727 147.448177 
L 220.543776 147.181421 
L 219.213825 146.961899 
L 217.883875 146.795894 
L 216.553924 146.685937 
L 215.223973 146.630165 
L 213.894022 146.622316 
L 212.564072 146.652489 
L 211.234121 146.708605 
L 209.90417 146.778291 
L 208.57422 146.85079 
L 207.244269 146.918452 
L 205.914318 146.97748 
L 204.584367 147.027836 
L 203.254417 147.072421 
L 201.924466 147.11584 
L 200.594515 147.16311 
L 199.264565 147.218647 
L 197.934614 147.285728 
L 196.604663 147.366486 
L 195.274713 147.46233 
L 193.944762 147.574599 
L 192.614811 147.705177 
L 191.28486 147.856823 
L 189.95491 148.033036 
L 188.624959 148.237439 
L 187.295008 148.472809 
L 185.965058 148.740014 
L 184.635107 149.03715 
L 183.305156 149.359121 
L 181.975205 149.697784 
L 180.645255 150.04264 
L 179.315304 150.381967 
L 177.985353 150.704197 
L 176.655403 150.999337 
L 175.325452 151.260198 
L 173.995501 151.483215 
L 172.66555 151.668671 
L 171.3356 151.820265 
L 170.005649 151.944108 
L 168.675698 152.047374 
L 167.345748 152.136948 
L 166.015797 152.218386 
L 164.685846 152.295371 
L 163.355895 152.369714 
L 162.025945 152.441746 
L 160.695994 152.510896 
L 159.366043 152.576241 
L 158.036093 152.636883 
L 156.706142 152.692128 
L 155.376191 152.741505 
L 154.04624 152.784709 
L 152.71629 152.821552 
L 151.386339 152.851951 
L 150.056388 152.875979 
L 148.726438 152.89395 
L 147.396487 152.906482 
L 146.066536 152.91452 
L 144.736585 152.919282 
L 143.406635 152.922124 
L 142.076684 152.924358 
L 140.746733 152.92706 
z
" style="fill:#1f77b4;fill-opacity:0.3;"/>
   </g>
   <g id="PolyCollection_6">
    <path clip-path="url(#p2a70876a29)" d="M 136.208444 127.465595 
L 136.208444 127.581141 
L 137.49464 127.582454 
L 138.780837 127.582608 
L 140.067034 127.58238 
L 141.353231 127.582728 
L 142.639427 127.584626 
L 143.925624 127.588926 
L 145.211821 127.596287 
L 146.498018 127.607187 
L 147.784215 127.622014 
L 149.070411 127.641198 
L 150.356608 127.665363 
L 151.642805 127.695466 
L 152.929002 127.732934 
L 154.215198 127.779776 
L 155.501395 127.83867 
L 156.787592 127.912963 
L 158.073789 128.00653 
L 159.359985 128.123423 
L 160.646182 128.26729 
L 161.932379 128.440635 
L 163.218576 128.64405 
L 164.504773 128.875609 
L 165.790969 129.130616 
L 167.077166 129.401817 
L 168.363363 129.680105 
L 169.64956 129.955633 
L 170.935756 130.219166 
L 172.221953 130.463469 
L 173.50815 130.684494 
L 174.794347 130.882167 
L 176.080543 131.060584 
L 177.36674 131.227526 
L 178.652937 131.393255 
L 179.939134 131.568727 
L 181.225331 131.763494 
L 182.511527 131.983659 
L 183.797724 132.230326 
L 185.083921 132.498877 
L 186.370118 132.779279 
L 187.656314 133.057357 
L 188.942511 133.316796 
L 190.228708 133.541445 
L 191.514905 133.717498 
L 192.801101 133.83517 
L 194.087298 133.889684 
L 195.373495 133.881525 
L 196.659692 133.816101 
L 197.945889 133.702974 
L 199.232085 133.554793 
L 200.518282 133.385988 
L 201.804479 133.211222 
L 203.090676 133.043667 
L 204.376872 132.893264 
L 205.663069 132.765305 
L 206.949266 132.659712 
L 208.235463 132.571319 
L 209.521659 132.491197 
L 210.807856 132.408758 
L 212.094053 132.314122 
L 213.38025 132.200131 
L 214.666447 132.063522 
L 215.952643 131.905032 
L 217.23884 131.728544 
L 218.525037 131.539633 
L 219.811234 131.344009 
L 221.09743 131.146268 
L 222.383627 130.949253 
L 223.669824 130.754049 
L 224.956021 130.560477 
L 226.242217 130.367817 
L 227.528414 130.175484 
L 228.814611 129.983454 
L 230.100808 129.792369 
L 231.387005 129.603384 
L 232.673201 129.417888 
L 233.959398 129.237273 
L 235.245595 129.062837 
L 236.531792 128.895849 
L 237.817988 128.73769 
L 239.104185 128.589955 
L 240.390382 128.454416 
L 241.676579 128.33278 
L 242.962775 128.226319 
L 244.248972 128.135462 
L 245.535169 128.059513 
L 246.821366 127.996623 
L 248.107563 127.944065 
L 249.393759 127.898748 
L 250.679956 127.857842 
L 251.966153 127.819313 
L 253.25235 127.782217 
L 254.538546 127.746667 
L 255.824743 127.713506 
L 257.11094 127.683825 
L 258.397137 127.658481 
L 259.683333 127.637772 
L 260.96953 127.621349 
L 262.255727 127.608352 
L 263.541924 127.597679 
L 263.541924 127.449058 
L 263.541924 127.449058 
L 262.255727 127.438385 
L 260.96953 127.425388 
L 259.683333 127.408965 
L 258.397137 127.388256 
L 257.11094 127.362912 
L 255.824743 127.333231 
L 254.538546 127.30007 
L 253.25235 127.26452 
L 251.966153 127.227424 
L 250.679956 127.188895 
L 249.393759 127.147989 
L 248.107563 127.102672 
L 246.821366 127.050114 
L 245.535169 126.987224 
L 244.248972 126.911274 
L 242.962775 126.820417 
L 241.676579 126.713957 
L 240.390382 126.592321 
L 239.104185 126.456781 
L 237.817988 126.309047 
L 236.531792 126.150887 
L 235.245595 125.983899 
L 233.959398 125.809464 
L 232.673201 125.628848 
L 231.387005 125.443353 
L 230.100808 125.254368 
L 228.814611 125.063283 
L 227.528414 124.871253 
L 226.242217 124.678919 
L 224.956021 124.486259 
L 223.669824 124.292688 
L 222.383627 124.097484 
L 221.09743 123.900469 
L 219.811234 123.702728 
L 218.525037 123.507103 
L 217.23884 123.318193 
L 215.952643 123.141704 
L 214.666447 122.983215 
L 213.38025 122.846606 
L 212.094053 122.732615 
L 210.807856 122.637979 
L 209.521659 122.55554 
L 208.235463 122.475418 
L 206.949266 122.387025 
L 205.663069 122.281432 
L 204.376872 122.153473 
L 203.090676 122.00307 
L 201.804479 121.835515 
L 200.518282 121.660749 
L 199.232085 121.491943 
L 197.945889 121.343763 
L 196.659692 121.230636 
L 195.373495 121.165212 
L 194.087298 121.157053 
L 192.801101 121.211567 
L 191.514905 121.329239 
L 190.228708 121.505291 
L 188.942511 121.729941 
L 187.656314 121.98938 
L 186.370118 122.267458 
L 185.083921 122.54786 
L 183.797724 122.816411 
L 182.511527 123.063077 
L 181.225331 123.283243 
L 179.939134 123.47801 
L 178.652937 123.653482 
L 177.36674 123.819211 
L 176.080543 123.986153 
L 174.794347 124.16457 
L 173.50815 124.362242 
L 172.221953 124.583268 
L 170.935756 124.827571 
L 169.64956 125.091104 
L 168.363363 125.366632 
L 167.077166 125.64492 
L 165.790969 125.916121 
L 164.504773 126.171128 
L 163.218576 126.402687 
L 161.932379 126.606102 
L 160.646182 126.779447 
L 159.359985 126.923314 
L 158.073789 127.040207 
L 156.787592 127.133774 
L 155.501395 127.208067 
L 154.215198 127.266961 
L 152.929002 127.313803 
L 151.642805 127.351271 
L 150.356608 127.381374 
L 149.070411 127.405538 
L 147.784215 127.424723 
L 146.498018 127.439549 
L 145.211821 127.45045 
L 143.925624 127.45781 
L 142.639427 127.462111 
L 141.353231 127.464009 
L 140.067034 127.464357 
L 138.780837 127.464129 
L 137.49464 127.464283 
L 136.208444 127.465595 
z
" style="fill:#1f77b4;fill-opacity:0.3;"/>
   </g>
   <g id="PolyCollection_7">
    <path clip-path="url(#p2a70876a29)" d="M 77.986239 101.950131 
L 77.986239 102.16608 
L 80.106469 102.174266 
L 82.226699 102.180185 
L 84.346929 102.183986 
L 86.467158 102.186162 
L 88.587388 102.187482 
L 90.707618 102.188885 
L 92.827848 102.191356 
L 94.948078 102.195817 
L 97.068308 102.203069 
L 99.188537 102.213777 
L 101.308767 102.228516 
L 103.428997 102.247829 
L 105.549227 102.27228 
L 107.669457 102.302467 
L 109.789686 102.338964 
L 111.909916 102.382212 
L 114.030146 102.432371 
L 116.150376 102.489206 
L 118.270606 102.552061 
L 120.390836 102.619975 
L 122.511065 102.691955 
L 124.631295 102.767361 
L 126.751525 102.846312 
L 128.871755 102.929978 
L 130.991985 103.020618 
L 133.112214 103.121321 
L 135.232444 103.235442 
L 137.352674 103.36588 
L 139.472904 103.514382 
L 141.593134 103.681092 
L 143.713364 103.864495 
L 145.833593 104.06181 
L 147.953823 104.26973 
L 150.074053 104.485312 
L 152.194283 104.706767 
L 154.314513 104.933897 
L 156.434742 105.168058 
L 158.554972 105.411601 
L 160.675202 105.66692 
L 162.795432 105.93532 
L 164.915662 106.215973 
L 167.035892 106.505224 
L 169.156121 106.796441 
L 171.276351 107.080477 
L 173.396581 107.346703 
L 175.516811 107.584416 
L 177.637041 107.784386 
L 179.75727 107.940242 
L 181.8775 108.049495 
L 183.99773 108.114012 
L 186.11796 108.139914 
L 188.23819 108.136907 
L 190.35842 108.117111 
L 192.478649 108.09352 
L 194.598879 108.078214 
L 196.719109 108.080555 
L 198.839339 108.10563 
L 200.959569 108.15327 
L 203.079798 108.217945 
L 205.200028 108.289684 
L 207.320258 108.35597 
L 209.440488 108.404238 
L 211.560718 108.424421 
L 213.680948 108.410899 
L 215.801177 108.363321 
L 217.921407 108.286092 
L 220.041637 108.186695 
L 222.161867 108.073357 
L 224.282097 107.952748 
L 226.402326 107.828352 
L 228.522556 107.699898 
L 230.642786 107.563896 
L 232.763016 107.414991 
L 234.883246 107.24763 
L 237.003476 107.057551 
L 239.123705 106.842712 
L 241.243935 106.603524 
L 243.364165 106.342502 
L 245.484395 106.063577 
L 247.604625 105.771374 
L 249.724854 105.470682 
L 251.845084 105.166228 
L 253.965314 104.862697 
L 256.085544 104.564866 
L 258.205774 104.27768 
L 260.326004 104.006145 
L 262.446233 103.754999 
L 264.566463 103.528205 
L 266.686693 103.328417 
L 268.806923 103.156553 
L 270.927153 103.011622 
L 273.047382 102.890872 
L 275.167612 102.790245 
L 277.287842 102.705036 
L 279.408072 102.630623 
L 281.528302 102.563111 
L 283.648532 102.499752 
L 285.768761 102.439093 
L 287.888991 102.380861 
L 287.888991 101.735349 
L 287.888991 101.735349 
L 285.768761 101.677117 
L 283.648532 101.616459 
L 281.528302 101.553099 
L 279.408072 101.485587 
L 277.287842 101.411175 
L 275.167612 101.325965 
L 273.047382 101.225338 
L 270.927153 101.104589 
L 268.806923 100.959658 
L 266.686693 100.787794 
L 264.566463 100.588006 
L 262.446233 100.361212 
L 260.326004 100.110065 
L 258.205774 99.838531 
L 256.085544 99.551344 
L 253.965314 99.253513 
L 251.845084 98.949983 
L 249.724854 98.645529 
L 247.604625 98.344837 
L 245.484395 98.052633 
L 243.364165 97.773709 
L 241.243935 97.512687 
L 239.123705 97.273499 
L 237.003476 97.058659 
L 234.883246 96.868581 
L 232.763016 96.70122 
L 230.642786 96.552315 
L 228.522556 96.416313 
L 226.402326 96.287858 
L 224.282097 96.163462 
L 222.161867 96.042854 
L 220.041637 95.929516 
L 217.921407 95.830119 
L 215.801177 95.752889 
L 213.680948 95.705311 
L 211.560718 95.691789 
L 209.440488 95.711973 
L 207.320258 95.76024 
L 205.200028 95.826526 
L 203.079798 95.898266 
L 200.959569 95.96294 
L 198.839339 96.010581 
L 196.719109 96.035656 
L 194.598879 96.037997 
L 192.478649 96.022691 
L 190.35842 95.999099 
L 188.23819 95.979304 
L 186.11796 95.976296 
L 183.99773 96.002199 
L 181.8775 96.066715 
L 179.75727 96.175968 
L 177.637041 96.331825 
L 175.516811 96.531794 
L 173.396581 96.769508 
L 171.276351 97.035734 
L 169.156121 97.31977 
L 167.035892 97.610986 
L 164.915662 97.900238 
L 162.795432 98.180891 
L 160.675202 98.449291 
L 158.554972 98.70461 
L 156.434742 98.948153 
L 154.314513 99.182314 
L 152.194283 99.409444 
L 150.074053 99.630898 
L 147.953823 99.846481 
L 145.833593 100.054401 
L 143.713364 100.251716 
L 141.593134 100.435119 
L 139.472904 100.601828 
L 137.352674 100.75033 
L 135.232444 100.880768 
L 133.112214 100.99489 
L 130.991985 101.095592 
L 128.871755 101.186233 
L 126.751525 101.269898 
L 124.631295 101.34885 
L 122.511065 101.424256 
L 120.390836 101.496235 
L 118.270606 101.56415 
L 116.150376 101.627005 
L 114.030146 101.68384 
L 111.909916 101.733999 
L 109.789686 101.777246 
L 107.669457 101.813744 
L 105.549227 101.84393 
L 103.428997 101.868381 
L 101.308767 101.887694 
L 99.188537 101.902433 
L 97.068308 101.913142 
L 94.948078 101.920393 
L 92.827848 101.924854 
L 90.707618 101.927325 
L 88.587388 101.928729 
L 86.467158 101.930049 
L 84.346929 101.932225 
L 82.226699 101.936025 
L 80.106469 101.941944 
L 77.986239 101.950131 
z
" style="fill:#1f77b4;fill-opacity:0.3;"/>
   </g>
   <g id="PolyCollection_8">
    <path clip-path="url(#p2a70876a29)" d="M 98.079485 76.433382 
L 98.079485 76.752302 
L 99.308356 76.787099 
L 100.537226 76.828241 
L 101.766096 76.876458 
L 102.994966 76.93229 
L 104.223837 76.996005 
L 105.452707 77.067566 
L 106.681577 77.146638 
L 107.910447 77.232648 
L 109.139318 77.324877 
L 110.368188 77.422571 
L 111.597058 77.52503 
L 112.825929 77.631692 
L 114.054799 77.742178 
L 115.283669 77.856328 
L 116.512539 77.974228 
L 117.74141 78.096235 
L 118.97028 78.222996 
L 120.19915 78.355451 
L 121.42802 78.494797 
L 122.656891 78.6424 
L 123.885761 78.799647 
L 125.114631 78.967773 
L 126.343501 79.14768 
L 127.572372 79.339804 
L 128.801242 79.544052 
L 130.030112 79.759813 
L 131.258982 79.986044 
L 132.487853 80.221359 
L 133.716723 80.464101 
L 134.945593 80.712349 
L 136.174463 80.963855 
L 137.403334 81.215935 
L 138.632204 81.465375 
L 139.861074 81.708396 
L 141.089944 81.940743 
L 142.318815 82.157887 
L 143.547685 82.355347 
L 144.776555 82.529038 
L 146.005425 82.675606 
L 147.234296 82.792667 
L 148.463166 82.878925 
L 149.692036 82.934165 
L 150.920907 82.959158 
L 152.149777 82.95553 
L 153.378647 82.925636 
L 154.607517 82.872468 
L 155.836388 82.799583 
L 157.065258 82.711024 
L 158.294128 82.61119 
L 159.522998 82.504608 
L 160.751869 82.39562 
L 161.980739 82.287997 
L 163.209609 82.184562 
L 164.438479 82.086888 
L 165.66735 81.995158 
L 166.89622 81.90822 
L 168.12509 81.82384 
L 169.35396 81.739102 
L 170.582831 81.65085 
L 171.811701 81.556099 
L 173.040571 81.452313 
L 174.269441 81.33754 
L 175.498312 81.210406 
L 176.727182 81.070041 
L 177.956052 80.916015 
L 179.184922 80.748349 
L 180.413793 80.567623 
L 181.642663 80.375149 
L 182.871533 80.173146 
L 184.100404 79.964808 
L 185.329274 79.75421 
L 186.558144 79.546005 
L 187.787014 79.344958 
L 189.015885 79.155391 
L 190.244755 78.980651 
L 191.473625 78.822712 
L 192.702495 78.681988 
L 193.931366 78.557374 
L 195.160236 78.446497 
L 196.389106 78.346113 
L 197.617976 78.252582 
L 198.846847 78.162321 
L 200.075717 78.072209 
L 201.304587 77.979886 
L 202.533457 77.883932 
L 203.762328 77.783941 
L 204.991198 77.680473 
L 206.220068 77.574922 
L 207.448938 77.469302 
L 208.677809 77.365974 
L 209.906679 77.267351 
L 211.135549 77.175607 
L 212.364419 77.092429 
L 213.59329 77.018847 
L 214.82216 76.955161 
L 216.05103 76.900981 
L 217.2799 76.855359 
L 218.508771 76.816992 
L 219.737641 76.784453 
L 219.737641 76.401231 
L 219.737641 76.401231 
L 218.508771 76.368692 
L 217.2799 76.330325 
L 216.05103 76.284703 
L 214.82216 76.230523 
L 213.59329 76.166837 
L 212.364419 76.093255 
L 211.135549 76.010077 
L 209.906679 75.918333 
L 208.677809 75.81971 
L 207.448938 75.716382 
L 206.220068 75.610762 
L 204.991198 75.505211 
L 203.762328 75.401743 
L 202.533457 75.301752 
L 201.304587 75.205799 
L 200.075717 75.113475 
L 198.846847 75.023363 
L 197.617976 74.933102 
L 196.389106 74.839571 
L 195.160236 74.739188 
L 193.931366 74.62831 
L 192.702495 74.503696 
L 191.473625 74.362972 
L 190.244755 74.205034 
L 189.015885 74.030293 
L 187.787014 73.840726 
L 186.558144 73.639679 
L 185.329274 73.431474 
L 184.100404 73.220876 
L 182.871533 73.012538 
L 181.642663 72.810535 
L 180.413793 72.618062 
L 179.184922 72.437335 
L 177.956052 72.26967 
L 176.727182 72.115644 
L 175.498312 71.975278 
L 174.269441 71.848144 
L 173.040571 71.733371 
L 171.811701 71.629585 
L 170.582831 71.534834 
L 169.35396 71.446582 
L 168.12509 71.361844 
L 166.89622 71.277464 
L 165.66735 71.190526 
L 164.438479 71.098796 
L 163.209609 71.001122 
L 161.980739 70.897688 
L 160.751869 70.790065 
L 159.522998 70.681076 
L 158.294128 70.574494 
L 157.065258 70.47466 
L 155.836388 70.386102 
L 154.607517 70.313216 
L 153.378647 70.260048 
L 152.149777 70.230154 
L 150.920907 70.226526 
L 149.692036 70.251519 
L 148.463166 70.306759 
L 147.234296 70.393017 
L 146.005425 70.510078 
L 144.776555 70.656646 
L 143.547685 70.830337 
L 142.318815 71.027797 
L 141.089944 71.244942 
L 139.861074 71.477288 
L 138.632204 71.720309 
L 137.403334 71.969749 
L 136.174463 72.221829 
L 134.945593 72.473335 
L 133.716723 72.721583 
L 132.487853 72.964325 
L 131.258982 73.19964 
L 130.030112 73.425871 
L 128.801242 73.641633 
L 127.572372 73.84588 
L 126.343501 74.038004 
L 125.114631 74.217911 
L 123.885761 74.386037 
L 122.656891 74.543284 
L 121.42802 74.690887 
L 120.19915 74.830234 
L 118.97028 74.962688 
L 117.74141 75.089449 
L 116.512539 75.211456 
L 115.283669 75.329356 
L 114.054799 75.443507 
L 112.825929 75.553992 
L 111.597058 75.660654 
L 110.368188 75.763113 
L 109.139318 75.860807 
L 107.910447 75.953037 
L 106.681577 76.039046 
L 105.452707 76.118118 
L 104.223837 76.189679 
L 102.994966 76.253395 
L 101.766096 76.309226 
L 100.537226 76.357443 
L 99.308356 76.398585 
L 98.079485 76.433382 
z
" style="fill:#1f77b4;fill-opacity:0.3;"/>
   </g>
   <g id="PolyCollection_9">
    <path clip-path="url(#p2a70876a29)" d="M -32.955591 50.566121 
L -32.955591 51.689037 
L -30.590033 51.774845 
L -28.224476 51.863309 
L -25.858919 51.953516 
L -23.493362 52.04486 
L -21.127805 52.137098 
L -18.762248 52.230345 
L -16.396691 52.325053 
L -14.031134 52.421967 
L -11.665576 52.522085 
L -9.300019 52.626654 
L -6.934462 52.737169 
L -4.568905 52.855392 
L -2.203348 52.983354 
L 0.162209 53.12332 
L 2.527766 53.277675 
L 4.893323 53.448742 
L 7.25888 53.638511 
L 9.624438 53.848329 
L 11.989995 54.078571 
L 14.355552 54.328368 
L 16.721109 54.595432 
L 19.086666 54.876036 
L 21.452223 55.165161 
L 23.81778 55.456817 
L 26.183337 55.744502 
L 28.548895 56.021736 
L 30.914452 56.282598 
L 33.280009 56.522185 
L 35.645566 56.736915 
L 38.011123 56.924635 
L 40.37668 57.084514 
L 42.742237 57.216764 
L 45.107794 57.322229 
L 47.473351 57.401962 
L 49.838909 57.456859 
L 52.204466 57.487454 
L 54.570023 57.493895 
L 56.93558 57.47613 
L 59.301137 57.434235 
L 61.666694 57.368809 
L 64.032251 57.281335 
L 66.397808 57.174405 
L 68.763366 57.051745 
L 71.128923 56.918007 
L 73.49448 56.778343 
L 75.860037 56.637845 
L 78.225594 56.500933 
L 80.591151 56.370812 
L 82.956708 56.249098 
L 85.322265 56.135687 
L 87.687822 56.028885 
L 90.05338 55.925799 
L 92.418937 55.822884 
L 94.784494 55.716584 
L 97.150051 55.603918 
L 99.515608 55.482933 
L 101.881165 55.352938 
L 104.246722 55.214502 
L 106.612279 55.06924 
L 108.977837 54.919442 
L 111.343394 54.767643 
L 113.708951 54.61623 
L 116.074508 54.467135 
L 118.440065 54.321692 
L 120.805622 54.180627 
L 123.171179 54.044169 
L 125.536736 53.912226 
L 127.902294 53.784559 
L 130.267851 53.660918 
L 132.633408 53.541108 
L 134.998965 53.424978 
L 137.364522 53.312368 
L 139.730079 53.203044 
L 142.095636 53.096636 
L 144.461193 52.992637 
L 146.82675 52.890445 
L 149.192308 52.789449 
L 151.557865 52.689145 
L 153.923422 52.589258 
L 156.288979 52.489841 
L 158.654536 52.391327 
L 161.020093 52.294539 
L 163.38565 52.200623 
L 165.751207 52.110939 
L 168.116765 52.026893 
L 170.482322 51.949742 
L 172.847879 51.880411 
L 175.213436 51.819323 
L 177.578993 51.766309 
L 179.94455 51.720596 
L 182.310107 51.680884 
L 184.675664 51.645519 
L 187.041221 51.612713 
L 189.406779 51.580782 
L 191.772336 51.54837 
L 194.137893 51.514598 
L 196.50345 51.479134 
L 198.869007 51.442178 
L 201.234564 51.404364 
L 201.234564 50.850794 
L 201.234564 50.850794 
L 198.869007 50.81298 
L 196.50345 50.776024 
L 194.137893 50.74056 
L 191.772336 50.706788 
L 189.406779 50.674376 
L 187.041221 50.642445 
L 184.675664 50.609638 
L 182.310107 50.574274 
L 179.94455 50.534562 
L 177.578993 50.488849 
L 175.213436 50.435835 
L 172.847879 50.374747 
L 170.482322 50.305415 
L 168.116765 50.228265 
L 165.751207 50.144218 
L 163.38565 50.054535 
L 161.020093 49.960619 
L 158.654536 49.863831 
L 156.288979 49.765317 
L 153.923422 49.6659 
L 151.557865 49.566013 
L 149.192308 49.465709 
L 146.82675 49.364712 
L 144.461193 49.262521 
L 142.095636 49.158522 
L 139.730079 49.052114 
L 137.364522 48.942789 
L 134.998965 48.83018 
L 132.633408 48.71405 
L 130.267851 48.59424 
L 127.902294 48.470599 
L 125.536736 48.342932 
L 123.171179 48.210988 
L 120.805622 48.074531 
L 118.440065 47.933466 
L 116.074508 47.788023 
L 113.708951 47.638928 
L 111.343394 47.487515 
L 108.977837 47.335716 
L 106.612279 47.185918 
L 104.246722 47.040656 
L 101.881165 46.90222 
L 99.515608 46.772225 
L 97.150051 46.65124 
L 94.784494 46.538574 
L 92.418937 46.432274 
L 90.05338 46.329359 
L 87.687822 46.226273 
L 85.322265 46.119471 
L 82.956708 46.00606 
L 80.591151 45.884346 
L 78.225594 45.754225 
L 75.860037 45.617313 
L 73.49448 45.476815 
L 71.128923 45.337151 
L 68.763366 45.203413 
L 66.397808 45.080753 
L 64.032251 44.973823 
L 61.666694 44.886349 
L 59.301137 44.820923 
L 56.93558 44.779028 
L 54.570023 44.761263 
L 52.204466 44.767704 
L 49.838909 44.798299 
L 47.473351 44.853196 
L 45.107794 44.932929 
L 42.742237 45.038394 
L 40.37668 45.170643 
L 38.011123 45.330523 
L 35.645566 45.518243 
L 33.280009 45.732973 
L 30.914452 45.97256 
L 28.548895 46.233422 
L 26.183337 46.510656 
L 23.81778 46.798341 
L 21.452223 47.089997 
L 19.086666 47.379122 
L 16.721109 47.659726 
L 14.355552 47.92679 
L 11.989995 48.176587 
L 9.624438 48.406829 
L 7.25888 48.616647 
L 4.893323 48.806416 
L 2.527766 48.977483 
L 0.162209 49.131838 
L -2.203348 49.271803 
L -4.568905 49.399766 
L -6.934462 49.517989 
L -9.300019 49.628503 
L -11.665576 49.733073 
L -14.031134 49.833191 
L -16.396691 49.930104 
L -18.762248 50.024813 
L -21.127805 50.11806 
L -23.493362 50.210298 
L -25.858919 50.301642 
L -28.224476 50.391849 
L -30.590033 50.480313 
L -32.955591 50.566121 
z
" style="fill:#1f77b4;fill-opacity:0.3;"/>
   </g>
   <g id="PolyCollection_10">
    <path clip-path="url(#p2a70876a29)" d="M 58.657706 25.496134 
L 58.657706 25.828497 
L 61.454869 25.844224 
L 64.252033 25.858932 
L 67.049196 25.87335 
L 69.84636 25.888672 
L 72.643523 25.906475 
L 75.440687 25.928589 
L 78.23785 25.956905 
L 81.035014 25.993169 
L 83.832177 26.038765 
L 86.629341 26.094514 
L 89.426504 26.160538 
L 92.223667 26.236188 
L 95.020831 26.320077 
L 97.817994 26.410231 
L 100.615158 26.504339 
L 103.412321 26.600103 
L 106.209485 26.695633 
L 109.006648 26.789833 
L 111.803812 26.882692 
L 114.600975 26.975439 
L 117.398139 27.070478 
L 120.195302 27.171126 
L 122.992466 27.281165 
L 125.789629 27.404311 
L 128.586793 27.543689 
L 131.383956 27.70142 
L 134.18112 27.878397 
L 136.978283 28.074261 
L 139.775447 28.287533 
L 142.57261 28.515834 
L 145.369774 28.756102 
L 148.166937 29.004741 
L 150.964101 29.257706 
L 153.761264 29.510567 
L 156.558428 29.758625 
L 159.355591 29.997183 
L 162.152755 30.221963 
L 164.949918 30.42967 
L 167.747082 30.618527 
L 170.544245 30.788662 
L 173.341409 30.942141 
L 176.138572 31.082587 
L 178.935736 31.214395 
L 181.732899 31.341668 
L 184.530063 31.467121 
L 187.327226 31.59118 
L 190.124389 31.711504 
L 192.921553 31.823039 
L 195.718716 31.918601 
L 198.51588 31.989876 
L 201.313043 32.028632 
L 204.110207 32.027936 
L 206.90737 31.98316 
L 209.704534 31.892635 
L 212.501697 31.757874 
L 215.298861 31.583393 
L 218.096024 31.376185 
L 220.893188 31.144963 
L 223.690351 30.899306 
L 226.487515 30.648798 
L 229.284678 30.402261 
L 232.081842 30.167116 
L 234.879005 29.948912 
L 237.676169 29.751035 
L 240.473332 29.574596 
L 243.270496 29.41851 
L 246.067659 29.279763 
L 248.864823 29.153848 
L 251.661986 29.035341 
L 254.45915 28.918561 
L 257.256313 28.798243 
L 260.053477 28.67013 
L 262.85064 28.531413 
L 265.647804 28.380954 
L 268.444967 28.219255 
L 271.242131 28.048198 
L 274.039294 27.870624 
L 276.836458 27.689828 
L 279.633621 27.509103 
L 282.430785 27.331403 
L 285.227948 27.159182 
L 288.025111 26.994408 
L 290.822275 26.8387 
L 293.619438 26.693505 
L 296.416602 26.560227 
L 299.213765 26.440257 
L 302.010929 26.334875 
L 304.808092 26.245054 
L 307.605256 26.171213 
L 310.402419 26.113013 
L 313.199583 26.069236 
L 315.996746 26.037807 
L 318.79391 26.015966 
L 321.591073 26.000547 
L 324.388237 25.988334 
L 327.1854 25.976416 
L 329.982564 25.962489 
L 332.779727 25.945061 
L 335.576891 25.923531 
L 335.576891 25.4011 
L 335.576891 25.4011 
L 332.779727 25.37957 
L 329.982564 25.362143 
L 327.1854 25.348216 
L 324.388237 25.336297 
L 321.591073 25.324084 
L 318.79391 25.308666 
L 315.996746 25.286824 
L 313.199583 25.255396 
L 310.402419 25.211618 
L 307.605256 25.153418 
L 304.808092 25.079578 
L 302.010929 24.989756 
L 299.213765 24.884375 
L 296.416602 24.764404 
L 293.619438 24.631126 
L 290.822275 24.485931 
L 288.025111 24.330224 
L 285.227948 24.16545 
L 282.430785 23.993228 
L 279.633621 23.815528 
L 276.836458 23.634803 
L 274.039294 23.454008 
L 271.242131 23.276433 
L 268.444967 23.105377 
L 265.647804 22.943677 
L 262.85064 22.793218 
L 260.053477 22.654502 
L 257.256313 22.526388 
L 254.45915 22.40607 
L 251.661986 22.289291 
L 248.864823 22.170784 
L 246.067659 22.044869 
L 243.270496 21.906121 
L 240.473332 21.750035 
L 237.676169 21.573596 
L 234.879005 21.375719 
L 232.081842 21.157516 
L 229.284678 20.92237 
L 226.487515 20.675834 
L 223.690351 20.425326 
L 220.893188 20.179669 
L 218.096024 19.948447 
L 215.298861 19.741238 
L 212.501697 19.566758 
L 209.704534 19.431997 
L 206.90737 19.341471 
L 204.110207 19.296696 
L 201.313043 19.296 
L 198.51588 19.334756 
L 195.718716 19.40603 
L 192.921553 19.501593 
L 190.124389 19.613128 
L 187.327226 19.733452 
L 184.530063 19.85751 
L 181.732899 19.982963 
L 178.935736 20.110237 
L 176.138572 20.242044 
L 173.341409 20.382491 
L 170.544245 20.535969 
L 167.747082 20.706104 
L 164.949918 20.894962 
L 162.152755 21.102668 
L 159.355591 21.327449 
L 156.558428 21.566006 
L 153.761264 21.814065 
L 150.964101 22.066925 
L 148.166937 22.319891 
L 145.369774 22.568529 
L 142.57261 22.808797 
L 139.775447 23.037099 
L 136.978283 23.250371 
L 134.18112 23.446234 
L 131.383956 23.623212 
L 128.586793 23.780942 
L 125.789629 23.92032 
L 122.992466 24.043467 
L 120.195302 24.153506 
L 117.398139 24.254153 
L 114.600975 24.349192 
L 111.803812 24.441939 
L 109.006648 24.534799 
L 106.209485 24.628998 
L 103.412321 24.724529 
L 100.615158 24.820293 
L 97.817994 24.9144 
L 95.020831 25.004554 
L 92.223667 25.088444 
L 89.426504 25.164094 
L 86.629341 25.230118 
L 83.832177 25.285867 
L 81.035014 25.331462 
L 78.23785 25.367727 
L 75.440687 25.396043 
L 72.643523 25.418156 
L 69.84636 25.43596 
L 67.049196 25.451281 
L 64.252033 25.4657 
L 61.454869 25.480408 
L 58.657706 25.496134 
z
" style="fill:#1f77b4;fill-opacity:0.3;"/>
   </g>
   <g id="matplotlib.axis_1">
    <g id="xtick_1">
     <g id="line2d_1">
      <defs>
       <path d="M 0 0 
L 0 3.5 
" id="md87e2f4234" style="stroke:#000000;stroke-width:0.8;"/>
      </defs>
      <g>
       <use style="stroke:#000000;stroke-width:0.8;" x="62.637" xlink:href="#md87e2f4234" y="273.312"/>
      </g>
     </g>
     <g id="text_1">
      <!-- 40 -->
      <g transform="translate(52.084656 287.910437)scale(0.1 -0.1)">
       <defs>
        <path d="M 10.59375 35.5 
L 73.1875 35.5 
L 73.1875 27.203125 
L 10.59375 27.203125 
z
" id="DejaVuSans-8722"/>
        <path d="M 37.796875 64.3125 
L 12.890625 25.390625 
L 37.796875 25.390625 
z
M 35.203125 72.90625 
L 47.609375 72.90625 
L 47.609375 25.390625 
L 58.015625 25.390625 
L 58.015625 17.1875 
L 47.609375 17.1875 
L 47.609375 0 
L 37.796875 0 
L 37.796875 17.1875 
L 4.890625 17.1875 
L 4.890625 26.703125 
z
" id="DejaVuSans-52"/>
        <path d="M 31.78125 66.40625 
Q 24.171875 66.40625 20.328125 58.90625 
Q 16.5 51.421875 16.5 36.375 
Q 16.5 21.390625 20.328125 13.890625 
Q 24.171875 6.390625 31.78125 6.390625 
Q 39.453125 6.390625 43.28125 13.890625 
Q 47.125 21.390625 47.125 36.375 
Q 47.125 51.421875 43.28125 58.90625 
Q 39.453125 66.40625 31.78125 66.40625 
z
M 31.78125 74.21875 
Q 44.046875 74.21875 50.515625 64.515625 
Q 56.984375 54.828125 56.984375 36.375 
Q 56.984375 17.96875 50.515625 8.265625 
Q 44.046875 -1.421875 31.78125 -1.421875 
Q 19.53125 -1.421875 13.0625 8.265625 
Q 6.59375 17.96875 6.59375 36.375 
Q 6.59375 54.828125 13.0625 64.515625 
Q 19.53125 74.21875 31.78125 74.21875 
z
" id="DejaVuSans-48"/>
       </defs>
       <use xlink:href="#DejaVuSans-8722"/>
       <use x="83.789062" xlink:href="#DejaVuSans-52"/>
       <use x="147.412109" xlink:href="#DejaVuSans-48"/>
      </g>
     </g>
    </g>
    <g id="xtick_2">
     <g id="line2d_2">
      <g>
       <use style="stroke:#000000;stroke-width:0.8;" x="134.061" xlink:href="#md87e2f4234" y="273.312"/>
      </g>
     </g>
     <g id="text_2">
      <!-- 20 -->
      <g transform="translate(123.508656 287.910437)scale(0.1 -0.1)">
       <defs>
        <path d="M 19.1875 8.296875 
L 53.609375 8.296875 
L 53.609375 0 
L 7.328125 0 
L 7.328125 8.296875 
Q 12.9375 14.109375 22.625 23.890625 
Q 32.328125 33.6875 34.8125 36.53125 
Q 39.546875 41.84375 41.421875 45.53125 
Q 43.3125 49.21875 43.3125 52.78125 
Q 43.3125 58.59375 39.234375 62.25 
Q 35.15625 65.921875 28.609375 65.921875 
Q 23.96875 65.921875 18.8125 64.3125 
Q 13.671875 62.703125 7.8125 59.421875 
L 7.8125 69.390625 
Q 13.765625 71.78125 18.9375 73 
Q 24.125 74.21875 28.421875 74.21875 
Q 39.75 74.21875 46.484375 68.546875 
Q 53.21875 62.890625 53.21875 53.421875 
Q 53.21875 48.921875 51.53125 44.890625 
Q 49.859375 40.875 45.40625 35.40625 
Q 44.1875 33.984375 37.640625 27.21875 
Q 31.109375 20.453125 19.1875 8.296875 
z
" id="DejaVuSans-50"/>
       </defs>
       <use xlink:href="#DejaVuSans-8722"/>
       <use x="83.789062" xlink:href="#DejaVuSans-50"/>
       <use x="147.412109" xlink:href="#DejaVuSans-48"/>
      </g>
     </g>
    </g>
    <g id="xtick_3">
     <g id="line2d_3">
      <g>
       <use style="stroke:#000000;stroke-width:0.8;" x="205.485" xlink:href="#md87e2f4234" y="273.312"/>
      </g>
     </g>
     <g id="text_3">
      <!-- 0 -->
      <g transform="translate(202.30375 287.910437)scale(0.1 -0.1)">
       <use xlink:href="#DejaVuSans-48"/>
      </g>
     </g>
    </g>
    <g id="xtick_4">
     <g id="line2d_4">
      <g>
       <use style="stroke:#000000;stroke-width:0.8;" x="276.909" xlink:href="#md87e2f4234" y="273.312"/>
      </g>
     </g>
     <g id="text_4">
      <!-- 20 -->
      <g transform="translate(270.5465 287.910437)scale(0.1 -0.1)">
       <use xlink:href="#DejaVuSans-50"/>
       <use x="63.623047" xlink:href="#DejaVuSans-48"/>
      </g>
     </g>
    </g>
    <g id="xtick_5">
     <g id="line2d_5">
      <g>
       <use style="stroke:#000000;stroke-width:0.8;" x="348.333" xlink:href="#md87e2f4234" y="273.312"/>
      </g>
     </g>
     <g id="text_5">
      <!-- 40 -->
      <g transform="translate(341.9705 287.910437)scale(0.1 -0.1)">
       <use xlink:href="#DejaVuSans-52"/>
       <use x="63.623047" xlink:href="#DejaVuSans-48"/>
      </g>
     </g>
    </g>
    <g id="text_6">
     <!-- Velocity [km/s] -->
     <g transform="translate(168.324063 301.588562)scale(0.1 -0.1)">
      <defs>
       <path d="M 28.609375 0 
L 0.78125 72.90625 
L 11.078125 72.90625 
L 34.1875 11.53125 
L 57.328125 72.90625 
L 67.578125 72.90625 
L 39.796875 0 
z
" id="DejaVuSans-86"/>
       <path d="M 56.203125 29.59375 
L 56.203125 25.203125 
L 14.890625 25.203125 
Q 15.484375 15.921875 20.484375 11.0625 
Q 25.484375 6.203125 34.421875 6.203125 
Q 39.59375 6.203125 44.453125 7.46875 
Q 49.3125 8.734375 54.109375 11.28125 
L 54.109375 2.78125 
Q 49.265625 0.734375 44.1875 -0.34375 
Q 39.109375 -1.421875 33.890625 -1.421875 
Q 20.796875 -1.421875 13.15625 6.1875 
Q 5.515625 13.8125 5.515625 26.8125 
Q 5.515625 40.234375 12.765625 48.109375 
Q 20.015625 56 32.328125 56 
Q 43.359375 56 49.78125 48.890625 
Q 56.203125 41.796875 56.203125 29.59375 
z
M 47.21875 32.234375 
Q 47.125 39.59375 43.09375 43.984375 
Q 39.0625 48.390625 32.421875 48.390625 
Q 24.90625 48.390625 20.390625 44.140625 
Q 15.875 39.890625 15.1875 32.171875 
z
" id="DejaVuSans-101"/>
       <path d="M 9.421875 75.984375 
L 18.40625 75.984375 
L 18.40625 0 
L 9.421875 0 
z
" id="DejaVuSans-108"/>
       <path d="M 30.609375 48.390625 
Q 23.390625 48.390625 19.1875 42.75 
Q 14.984375 37.109375 14.984375 27.296875 
Q 14.984375 17.484375 19.15625 11.84375 
Q 23.34375 6.203125 30.609375 6.203125 
Q 37.796875 6.203125 41.984375 11.859375 
Q 46.1875 17.53125 46.1875 27.296875 
Q 46.1875 37.015625 41.984375 42.703125 
Q 37.796875 48.390625 30.609375 48.390625 
z
M 30.609375 56 
Q 42.328125 56 49.015625 48.375 
Q 55.71875 40.765625 55.71875 27.296875 
Q 55.71875 13.875 49.015625 6.21875 
Q 42.328125 -1.421875 30.609375 -1.421875 
Q 18.84375 -1.421875 12.171875 6.21875 
Q 5.515625 13.875 5.515625 27.296875 
Q 5.515625 40.765625 12.171875 48.375 
Q 18.84375 56 30.609375 56 
z
" id="DejaVuSans-111"/>
       <path d="M 48.78125 52.59375 
L 48.78125 44.1875 
Q 44.96875 46.296875 41.140625 47.34375 
Q 37.3125 48.390625 33.40625 48.390625 
Q 24.65625 48.390625 19.8125 42.84375 
Q 14.984375 37.3125 14.984375 27.296875 
Q 14.984375 17.28125 19.8125 11.734375 
Q 24.65625 6.203125 33.40625 6.203125 
Q 37.3125 6.203125 41.140625 7.25 
Q 44.96875 8.296875 48.78125 10.40625 
L 48.78125 2.09375 
Q 45.015625 0.34375 40.984375 -0.53125 
Q 36.96875 -1.421875 32.421875 -1.421875 
Q 20.0625 -1.421875 12.78125 6.34375 
Q 5.515625 14.109375 5.515625 27.296875 
Q 5.515625 40.671875 12.859375 48.328125 
Q 20.21875 56 33.015625 56 
Q 37.15625 56 41.109375 55.140625 
Q 45.0625 54.296875 48.78125 52.59375 
z
" id="DejaVuSans-99"/>
       <path d="M 9.421875 54.6875 
L 18.40625 54.6875 
L 18.40625 0 
L 9.421875 0 
z
M 9.421875 75.984375 
L 18.40625 75.984375 
L 18.40625 64.59375 
L 9.421875 64.59375 
z
" id="DejaVuSans-105"/>
       <path d="M 18.3125 70.21875 
L 18.3125 54.6875 
L 36.8125 54.6875 
L 36.8125 47.703125 
L 18.3125 47.703125 
L 18.3125 18.015625 
Q 18.3125 11.328125 20.140625 9.421875 
Q 21.96875 7.515625 27.59375 7.515625 
L 36.8125 7.515625 
L 36.8125 0 
L 27.59375 0 
Q 17.1875 0 13.234375 3.875 
Q 9.28125 7.765625 9.28125 18.015625 
L 9.28125 47.703125 
L 2.6875 47.703125 
L 2.6875 54.6875 
L 9.28125 54.6875 
L 9.28125 70.21875 
z
" id="DejaVuSans-116"/>
       <path d="M 32.171875 -5.078125 
Q 28.375 -14.84375 24.75 -17.8125 
Q 21.140625 -20.796875 15.09375 -20.796875 
L 7.90625 -20.796875 
L 7.90625 -13.28125 
L 13.1875 -13.28125 
Q 16.890625 -13.28125 18.9375 -11.515625 
Q 21 -9.765625 23.484375 -3.21875 
L 25.09375 0.875 
L 2.984375 54.6875 
L 12.5 54.6875 
L 29.59375 11.921875 
L 46.6875 54.6875 
L 56.203125 54.6875 
z
" id="DejaVuSans-121"/>
       <path id="DejaVuSans-32"/>
       <path d="M 8.59375 75.984375 
L 29.296875 75.984375 
L 29.296875 69 
L 17.578125 69 
L 17.578125 -6.203125 
L 29.296875 -6.203125 
L 29.296875 -13.1875 
L 8.59375 -13.1875 
z
" id="DejaVuSans-91"/>
       <path d="M 9.078125 75.984375 
L 18.109375 75.984375 
L 18.109375 31.109375 
L 44.921875 54.6875 
L 56.390625 54.6875 
L 27.390625 29.109375 
L 57.625 0 
L 45.90625 0 
L 18.109375 26.703125 
L 18.109375 0 
L 9.078125 0 
z
" id="DejaVuSans-107"/>
       <path d="M 52 44.1875 
Q 55.375 50.25 60.0625 53.125 
Q 64.75 56 71.09375 56 
Q 79.640625 56 84.28125 50.015625 
Q 88.921875 44.046875 88.921875 33.015625 
L 88.921875 0 
L 79.890625 0 
L 79.890625 32.71875 
Q 79.890625 40.578125 77.09375 44.375 
Q 74.3125 48.1875 68.609375 48.1875 
Q 61.625 48.1875 57.5625 43.546875 
Q 53.515625 38.921875 53.515625 30.90625 
L 53.515625 0 
L 44.484375 0 
L 44.484375 32.71875 
Q 44.484375 40.625 41.703125 44.40625 
Q 38.921875 48.1875 33.109375 48.1875 
Q 26.21875 48.1875 22.15625 43.53125 
Q 18.109375 38.875 18.109375 30.90625 
L 18.109375 0 
L 9.078125 0 
L 9.078125 54.6875 
L 18.109375 54.6875 
L 18.109375 46.1875 
Q 21.1875 51.21875 25.484375 53.609375 
Q 29.78125 56 35.6875 56 
Q 41.65625 56 45.828125 52.96875 
Q 50 49.953125 52 44.1875 
z
" id="DejaVuSans-109"/>
       <path d="M 25.390625 72.90625 
L 33.6875 72.90625 
L 8.296875 -9.28125 
L 0 -9.28125 
z
" id="DejaVuSans-47"/>
       <path d="M 44.28125 53.078125 
L 44.28125 44.578125 
Q 40.484375 46.53125 36.375 47.5 
Q 32.28125 48.484375 27.875 48.484375 
Q 21.1875 48.484375 17.84375 46.4375 
Q 14.5 44.390625 14.5 40.28125 
Q 14.5 37.15625 16.890625 35.375 
Q 19.28125 33.59375 26.515625 31.984375 
L 29.59375 31.296875 
Q 39.15625 29.25 43.1875 25.515625 
Q 47.21875 21.78125 47.21875 15.09375 
Q 47.21875 7.46875 41.1875 3.015625 
Q 35.15625 -1.421875 24.609375 -1.421875 
Q 20.21875 -1.421875 15.453125 -0.5625 
Q 10.6875 0.296875 5.421875 2 
L 5.421875 11.28125 
Q 10.40625 8.6875 15.234375 7.390625 
Q 20.0625 6.109375 24.8125 6.109375 
Q 31.15625 6.109375 34.5625 8.28125 
Q 37.984375 10.453125 37.984375 14.40625 
Q 37.984375 18.0625 35.515625 20.015625 
Q 33.0625 21.96875 24.703125 23.78125 
L 21.578125 24.515625 
Q 13.234375 26.265625 9.515625 29.90625 
Q 5.8125 33.546875 5.8125 39.890625 
Q 5.8125 47.609375 11.28125 51.796875 
Q 16.75 56 26.8125 56 
Q 31.78125 56 36.171875 55.265625 
Q 40.578125 54.546875 44.28125 53.078125 
z
" id="DejaVuSans-115"/>
       <path d="M 30.421875 75.984375 
L 30.421875 -13.1875 
L 9.71875 -13.1875 
L 9.71875 -6.203125 
L 21.390625 -6.203125 
L 21.390625 69 
L 9.71875 69 
L 9.71875 75.984375 
z
" id="DejaVuSans-93"/>
      </defs>
      <use xlink:href="#DejaVuSans-86"/>
      <use x="60.658203" xlink:href="#DejaVuSans-101"/>
      <use x="122.181641" xlink:href="#DejaVuSans-108"/>
      <use x="149.964844" xlink:href="#DejaVuSans-111"/>
      <use x="211.146484" xlink:href="#DejaVuSans-99"/>
      <use x="266.126953" xlink:href="#DejaVuSans-105"/>
      <use x="293.910156" xlink:href="#DejaVuSans-116"/>
      <use x="333.119141" xlink:href="#DejaVuSans-121"/>
      <use x="392.298828" xlink:href="#DejaVuSans-32"/>
      <use x="424.085938" xlink:href="#DejaVuSans-91"/>
      <use x="463.099609" xlink:href="#DejaVuSans-107"/>
      <use x="521.009766" xlink:href="#DejaVuSans-109"/>
      <use x="618.421875" xlink:href="#DejaVuSans-47"/>
      <use x="652.113281" xlink:href="#DejaVuSans-115"/>
      <use x="704.212891" xlink:href="#DejaVuSans-93"/>
     </g>
    </g>
   </g>
   <g id="matplotlib.axis_2">
    <g id="ytick_1">
     <g id="line2d_6">
      <defs>
       <path d="M 0 0 
L -3.5 0 
" id="m5eebee3f99" style="stroke:#000000;stroke-width:0.8;"/>
      </defs>
      <g>
       <use style="stroke:#000000;stroke-width:0.8;" x="26.925" xlink:href="#m5eebee3f99" y="229.384421"/>
      </g>
     </g>
     <g id="text_7">
      <!-- 2 -->
      <g transform="translate(13.5625 233.18364)scale(0.1 -0.1)">
       <use xlink:href="#DejaVuSans-50"/>
      </g>
     </g>
    </g>
    <g id="ytick_2">
     <g id="line2d_7">
      <g>
       <use style="stroke:#000000;stroke-width:0.8;" x="26.925" xlink:href="#m5eebee3f99" y="178.453895"/>
      </g>
     </g>
     <g id="text_8">
      <!-- 4 -->
      <g transform="translate(13.5625 182.253113)scale(0.1 -0.1)">
       <use xlink:href="#DejaVuSans-52"/>
      </g>
     </g>
    </g>
    <g id="ytick_3">
     <g id="line2d_8">
      <g>
       <use style="stroke:#000000;stroke-width:0.8;" x="26.925" xlink:href="#m5eebee3f99" y="127.523368"/>
      </g>
     </g>
     <g id="text_9">
      <!-- 6 -->
      <g transform="translate(13.5625 131.322587)scale(0.1 -0.1)">
       <defs>
        <path d="M 33.015625 40.375 
Q 26.375 40.375 22.484375 35.828125 
Q 18.609375 31.296875 18.609375 23.390625 
Q 18.609375 15.53125 22.484375 10.953125 
Q 26.375 6.390625 33.015625 6.390625 
Q 39.65625 6.390625 43.53125 10.953125 
Q 47.40625 15.53125 47.40625 23.390625 
Q 47.40625 31.296875 43.53125 35.828125 
Q 39.65625 40.375 33.015625 40.375 
z
M 52.59375 71.296875 
L 52.59375 62.3125 
Q 48.875 64.0625 45.09375 64.984375 
Q 41.3125 65.921875 37.59375 65.921875 
Q 27.828125 65.921875 22.671875 59.328125 
Q 17.53125 52.734375 16.796875 39.40625 
Q 19.671875 43.65625 24.015625 45.921875 
Q 28.375 48.1875 33.59375 48.1875 
Q 44.578125 48.1875 50.953125 41.515625 
Q 57.328125 34.859375 57.328125 23.390625 
Q 57.328125 12.15625 50.6875 5.359375 
Q 44.046875 -1.421875 33.015625 -1.421875 
Q 20.359375 -1.421875 13.671875 8.265625 
Q 6.984375 17.96875 6.984375 36.375 
Q 6.984375 53.65625 15.1875 63.9375 
Q 23.390625 74.21875 37.203125 74.21875 
Q 40.921875 74.21875 44.703125 73.484375 
Q 48.484375 72.75 52.59375 71.296875 
z
" id="DejaVuSans-54"/>
       </defs>
       <use xlink:href="#DejaVuSans-54"/>
      </g>
     </g>
    </g>
    <g id="ytick_4">
     <g id="line2d_9">
      <g>
       <use style="stroke:#000000;stroke-width:0.8;" x="26.925" xlink:href="#m5eebee3f99" y="76.592842"/>
      </g>
     </g>
     <g id="text_10">
      <!-- 8 -->
      <g transform="translate(13.5625 80.392061)scale(0.1 -0.1)">
       <defs>
        <path d="M 31.78125 34.625 
Q 24.75 34.625 20.71875 30.859375 
Q 16.703125 27.09375 16.703125 20.515625 
Q 16.703125 13.921875 20.71875 10.15625 
Q 24.75 6.390625 31.78125 6.390625 
Q 38.8125 6.390625 42.859375 10.171875 
Q 46.921875 13.96875 46.921875 20.515625 
Q 46.921875 27.09375 42.890625 30.859375 
Q 38.875 34.625 31.78125 34.625 
z
M 21.921875 38.8125 
Q 15.578125 40.375 12.03125 44.71875 
Q 8.5 49.078125 8.5 55.328125 
Q 8.5 64.0625 14.71875 69.140625 
Q 20.953125 74.21875 31.78125 74.21875 
Q 42.671875 74.21875 48.875 69.140625 
Q 55.078125 64.0625 55.078125 55.328125 
Q 55.078125 49.078125 51.53125 44.71875 
Q 48 40.375 41.703125 38.8125 
Q 48.828125 37.15625 52.796875 32.3125 
Q 56.78125 27.484375 56.78125 20.515625 
Q 56.78125 9.90625 50.3125 4.234375 
Q 43.84375 -1.421875 31.78125 -1.421875 
Q 19.734375 -1.421875 13.25 4.234375 
Q 6.78125 9.90625 6.78125 20.515625 
Q 6.78125 27.484375 10.78125 32.3125 
Q 14.796875 37.15625 21.921875 38.8125 
z
M 18.3125 54.390625 
Q 18.3125 48.734375 21.84375 45.5625 
Q 25.390625 42.390625 31.78125 42.390625 
Q 38.140625 42.390625 41.71875 45.5625 
Q 45.3125 48.734375 45.3125 54.390625 
Q 45.3125 60.0625 41.71875 63.234375 
Q 38.140625 66.40625 31.78125 66.40625 
Q 25.390625 66.40625 21.84375 63.234375 
Q 18.3125 60.0625 18.3125 54.390625 
z
" id="DejaVuSans-56"/>
       </defs>
       <use xlink:href="#DejaVuSans-56"/>
      </g>
     </g>
    </g>
    <g id="ytick_5">
     <g id="line2d_10">
      <g>
       <use style="stroke:#000000;stroke-width:0.8;" x="26.925" xlink:href="#m5eebee3f99" y="25.662316"/>
      </g>
     </g>
     <g id="text_11">
      <!-- 10 -->
      <g transform="translate(7.2 29.461535)scale(0.1 -0.1)">
       <defs>
        <path d="M 12.40625 8.296875 
L 28.515625 8.296875 
L 28.515625 63.921875 
L 10.984375 60.40625 
L 10.984375 69.390625 
L 28.421875 72.90625 
L 38.28125 72.90625 
L 38.28125 8.296875 
L 54.390625 8.296875 
L 54.390625 0 
L 12.40625 0 
z
" id="DejaVuSans-49"/>
       </defs>
       <use xlink:href="#DejaVuSans-49"/>
       <use x="63.623047" xlink:href="#DejaVuSans-48"/>
      </g>
     </g>
    </g>
   </g>
   <g id="patch_3">
    <path d="M 26.925 273.312 
L 26.925 7.2 
" style="fill:none;stroke:#000000;stroke-linecap:square;stroke-linejoin:miter;stroke-width:0.8;"/>
   </g>
   <g id="patch_4">
    <path d="M 384.045 273.312 
L 384.045 7.2 
" style="fill:none;stroke:#000000;stroke-linecap:square;stroke-linejoin:miter;stroke-width:0.8;"/>
   </g>
   <g id="patch_5">
    <path d="M 26.925 273.312 
L 384.045 273.312 
" style="fill:none;stroke:#000000;stroke-linecap:square;stroke-linejoin:miter;stroke-width:0.8;"/>
   </g>
   <g id="patch_6">
    <path d="M 26.925 7.2 
L 384.045 7.2 
" style="fill:none;stroke:#000000;stroke-linecap:square;stroke-linejoin:miter;stroke-width:0.8;"/>
   </g>
  </g>
 </g>
 <defs>
  <clipPath id="p2a70876a29">
   <rect height="266.112" width="357.12" x="26.925" y="7.2"/>
  </clipPath>
 </defs>
</svg>
