<?xml version="1.0" encoding="utf-8" standalone="no"?>
<!DOCTYPE svg PUBLIC "-//W3C//DTD SVG 1.1//EN"
  "http://www.w3.org/Graphics/SVG/1.1/DTD/svg11.dtd">
<svg xmlns:xlink="http://www.w3.org/1999/xlink" width="404.566875pt" height="309.921375pt" viewBox="0 0 404.566875 309.921375" xmlns="http://www.w3.org/2000/svg" version="1.1">
 <metadata>
  <rdf:RDF xmlns:dc="http://purl.org/dc/elements/1.1/" xmlns:cc="http://creativecommons.org/ns#" xmlns:rdf="http://www.w3.org/1999/02/22-rdf-syntax-ns#">
   <cc:Work>
    <dc:type rdf:resource="http://purl.org/dc/dcmitype/StillImage"/>
    <dc:date>2023-05-11T19:11:49.981592</dc:date>
    <dc:format>image/svg+xml</dc:format>
    <dc:creator>
     <cc:Agent>
      <dc:title>Matplotlib v3.5.1, https://matplotlib.org/</dc:title>
     </cc:Agent>
    </dc:creator>
   </cc:Work>
  </rdf:RDF>
 </metadata>
 <defs>
  <style type="text/css">*{stroke-linejoin: round; stroke-linecap: butt}</style>
 </defs>
 <g id="figure_1">
  <g id="patch_1">
   <path d="M 0 309.921375 
L 404.566875 309.921375 
L 404.566875 0 
L 0 0 
z
" style="fill: #ffffff"/>
  </g>
  <g id="axes_1">
   <g id="patch_2">
    <path d="M 31.907813 129.91 
L 389.027813 129.91 
L 389.027813 8.95 
L 31.907813 8.95 
z
" style="fill: #ffffff"/>
   </g>
   <g id="matplotlib.axis_1">
    <g id="xtick_1">
     <g id="line2d_1">
      <defs>
       <path id="m81636ecc09" d="M 0 1.75 
L 0 -1.75 
" style="stroke: #000000; stroke-width: 0.8"/>
      </defs>
      <g>
       <use xlink:href="#m81636ecc09" x="31.907813" y="129.91" style="stroke: #000000; stroke-width: 0.8"/>
      </g>
     </g>
     <g id="line2d_2">
      <g>
       <use xlink:href="#m81636ecc09" x="31.907813" y="8.95" style="stroke: #000000; stroke-width: 0.8"/>
      </g>
     </g>
     <g id="text_1">
      <!-- −100 -->
      <g transform="translate(20.56875 142.300625)scale(0.1 -0.1)">
       <defs>
        <path id="HelveticaNeue-Medium-2212" d="M 3533 1293 
L 3533 1946 
L 307 1946 
L 307 1293 
L 3533 1293 
z
" transform="scale(0.015625)"/>
        <path id="HelveticaNeue-Medium-31" d="M 339 3162 
L 1440 3162 
L 1440 0 
L 2240 0 
L 2240 4480 
L 1645 4480 
C 1536 3942 954 3731 339 3738 
L 339 3162 
z
" transform="scale(0.015625)"/>
        <path id="HelveticaNeue-Medium-30" d="M 1779 518 
C 1139 518 960 1306 960 2240 
C 960 3174 1139 3962 1779 3962 
C 2419 3962 2598 3174 2598 2240 
C 2598 1306 2419 518 1779 518 
z
M 1779 4570 
C 493 4570 230 3258 230 2240 
C 230 1222 493 -90 1779 -90 
C 3066 -90 3328 1222 3328 2240 
C 3328 3258 3066 4570 1779 4570 
z
" transform="scale(0.015625)"/>
       </defs>
       <use xlink:href="#HelveticaNeue-Medium-2212"/>
       <use xlink:href="#HelveticaNeue-Medium-31" x="59.999985"/>
       <use xlink:href="#HelveticaNeue-Medium-30" x="115.599976"/>
       <use xlink:href="#HelveticaNeue-Medium-30" x="171.199966"/>
      </g>
     </g>
    </g>
    <g id="xtick_2">
     <g id="line2d_3">
      <g>
       <use xlink:href="#m81636ecc09" x="76.547813" y="129.91" style="stroke: #000000; stroke-width: 0.8"/>
      </g>
     </g>
     <g id="line2d_4">
      <g>
       <use xlink:href="#m81636ecc09" x="76.547813" y="8.95" style="stroke: #000000; stroke-width: 0.8"/>
      </g>
     </g>
     <g id="text_2">
      <!-- −75 -->
      <g transform="translate(67.988438 142.300625)scale(0.1 -0.1)">
       <defs>
        <path id="HelveticaNeue-Medium-37" d="M 224 3827 
L 2547 3827 
C 1626 2790 915 1414 819 0 
L 1619 0 
C 1734 1619 2355 2816 3290 3872 
L 3290 4480 
L 224 4480 
L 224 3827 
z
" transform="scale(0.015625)"/>
        <path id="HelveticaNeue-Medium-35" d="M 307 2029 
L 1037 2029 
C 1152 2342 1453 2438 1760 2438 
C 2349 2438 2611 1997 2611 1504 
C 2611 960 2400 518 1779 518 
C 1306 518 998 794 954 1274 
L 224 1274 
C 256 378 928 -90 1792 -90 
C 2893 -90 3341 800 3341 1517 
C 3341 2374 2829 3014 1939 3014 
C 1638 3014 1312 2893 1114 2675 
L 1101 2688 
L 1331 3827 
L 3104 3827 
L 3104 4480 
L 787 4480 
L 307 2029 
z
" transform="scale(0.015625)"/>
       </defs>
       <use xlink:href="#HelveticaNeue-Medium-2212"/>
       <use xlink:href="#HelveticaNeue-Medium-37" x="59.999985"/>
       <use xlink:href="#HelveticaNeue-Medium-35" x="115.599976"/>
      </g>
     </g>
    </g>
    <g id="xtick_3">
     <g id="line2d_5">
      <g>
       <use xlink:href="#m81636ecc09" x="121.187813" y="129.91" style="stroke: #000000; stroke-width: 0.8"/>
      </g>
     </g>
     <g id="line2d_6">
      <g>
       <use xlink:href="#m81636ecc09" x="121.187813" y="8.95" style="stroke: #000000; stroke-width: 0.8"/>
      </g>
     </g>
     <g id="text_3">
      <!-- −50 -->
      <g transform="translate(112.628438 142.300625)scale(0.1 -0.1)">
       <use xlink:href="#HelveticaNeue-Medium-2212"/>
       <use xlink:href="#HelveticaNeue-Medium-35" x="59.999985"/>
       <use xlink:href="#HelveticaNeue-Medium-30" x="115.599976"/>
      </g>
     </g>
    </g>
    <g id="xtick_4">
     <g id="line2d_7">
      <g>
       <use xlink:href="#m81636ecc09" x="165.827813" y="129.91" style="stroke: #000000; stroke-width: 0.8"/>
      </g>
     </g>
     <g id="line2d_8">
      <g>
       <use xlink:href="#m81636ecc09" x="165.827813" y="8.95" style="stroke: #000000; stroke-width: 0.8"/>
      </g>
     </g>
     <g id="text_4">
      <!-- −25 -->
      <g transform="translate(157.268438 142.300625)scale(0.1 -0.1)">
       <defs>
        <path id="HelveticaNeue-Medium-32" d="M 3309 653 
L 1126 653 
C 1254 1050 1798 1325 2317 1683 
C 2829 2042 3315 2483 3315 3194 
C 3315 3770 2970 4570 1875 4570 
C 877 4570 333 3834 333 2842 
L 1062 2842 
C 1082 3469 1254 3962 1830 3962 
C 2458 3962 2592 3488 2586 3168 
C 2573 2470 1818 2118 1235 1696 
C 634 1293 256 736 250 0 
L 3309 0 
L 3309 653 
z
" transform="scale(0.015625)"/>
       </defs>
       <use xlink:href="#HelveticaNeue-Medium-2212"/>
       <use xlink:href="#HelveticaNeue-Medium-32" x="59.999985"/>
       <use xlink:href="#HelveticaNeue-Medium-35" x="115.599976"/>
      </g>
     </g>
    </g>
    <g id="xtick_5">
     <g id="line2d_9">
      <g>
       <use xlink:href="#m81636ecc09" x="210.467813" y="129.91" style="stroke: #000000; stroke-width: 0.8"/>
      </g>
     </g>
     <g id="line2d_10">
      <g>
       <use xlink:href="#m81636ecc09" x="210.467813" y="8.95" style="stroke: #000000; stroke-width: 0.8"/>
      </g>
     </g>
     <g id="text_5">
      <!-- 0 -->
      <g transform="translate(207.688125 142.300625)scale(0.1 -0.1)">
       <use xlink:href="#HelveticaNeue-Medium-30"/>
      </g>
     </g>
    </g>
    <g id="xtick_6">
     <g id="line2d_11">
      <g>
       <use xlink:href="#m81636ecc09" x="255.107813" y="129.91" style="stroke: #000000; stroke-width: 0.8"/>
      </g>
     </g>
     <g id="line2d_12">
      <g>
       <use xlink:href="#m81636ecc09" x="255.107813" y="8.95" style="stroke: #000000; stroke-width: 0.8"/>
      </g>
     </g>
     <g id="text_6">
      <!-- 25 -->
      <g transform="translate(249.548438 142.300625)scale(0.1 -0.1)">
       <use xlink:href="#HelveticaNeue-Medium-32"/>
       <use xlink:href="#HelveticaNeue-Medium-35" x="55.599991"/>
      </g>
     </g>
    </g>
    <g id="xtick_7">
     <g id="line2d_13">
      <g>
       <use xlink:href="#m81636ecc09" x="299.747813" y="129.91" style="stroke: #000000; stroke-width: 0.8"/>
      </g>
     </g>
     <g id="line2d_14">
      <g>
       <use xlink:href="#m81636ecc09" x="299.747813" y="8.95" style="stroke: #000000; stroke-width: 0.8"/>
      </g>
     </g>
     <g id="text_7">
      <!-- 50 -->
      <g transform="translate(294.188438 142.300625)scale(0.1 -0.1)">
       <use xlink:href="#HelveticaNeue-Medium-35"/>
       <use xlink:href="#HelveticaNeue-Medium-30" x="55.599991"/>
      </g>
     </g>
    </g>
    <g id="xtick_8">
     <g id="line2d_15">
      <g>
       <use xlink:href="#m81636ecc09" x="344.387813" y="129.91" style="stroke: #000000; stroke-width: 0.8"/>
      </g>
     </g>
     <g id="line2d_16">
      <g>
       <use xlink:href="#m81636ecc09" x="344.387813" y="8.95" style="stroke: #000000; stroke-width: 0.8"/>
      </g>
     </g>
     <g id="text_8">
      <!-- 75 -->
      <g transform="translate(338.828438 142.300625)scale(0.1 -0.1)">
       <use xlink:href="#HelveticaNeue-Medium-37"/>
       <use xlink:href="#HelveticaNeue-Medium-35" x="55.599991"/>
      </g>
     </g>
    </g>
    <g id="xtick_9">
     <g id="line2d_17">
      <g>
       <use xlink:href="#m81636ecc09" x="389.027813" y="129.91" style="stroke: #000000; stroke-width: 0.8"/>
      </g>
     </g>
     <g id="line2d_18">
      <g>
       <use xlink:href="#m81636ecc09" x="389.027813" y="8.95" style="stroke: #000000; stroke-width: 0.8"/>
      </g>
     </g>
     <g id="text_9">
      <!-- 100 -->
      <g transform="translate(380.68875 142.300625)scale(0.1 -0.1)">
       <use xlink:href="#HelveticaNeue-Medium-31"/>
       <use xlink:href="#HelveticaNeue-Medium-30" x="55.599991"/>
       <use xlink:href="#HelveticaNeue-Medium-30" x="111.199982"/>
      </g>
     </g>
    </g>
   </g>
   <g id="matplotlib.axis_2">
    <g id="ytick_1">
     <g id="line2d_19">
      <defs>
       <path id="m4d573c2617" d="M 1.75 0 
L -1.75 -0 
" style="stroke: #000000; stroke-width: 0.8"/>
      </defs>
      <g>
       <use xlink:href="#m4d573c2617" x="31.907813" y="124.411818" style="stroke: #000000; stroke-width: 0.8"/>
      </g>
     </g>
     <g id="line2d_20">
      <g>
       <use xlink:href="#m4d573c2617" x="389.027813" y="124.411818" style="stroke: #000000; stroke-width: 0.8"/>
      </g>
     </g>
     <g id="text_10">
      <!-- 0 -->
      <g transform="translate(21.098438 127.982131)scale(0.1 -0.1)">
       <use xlink:href="#HelveticaNeue-Medium-30"/>
      </g>
     </g>
    </g>
    <g id="ytick_2">
     <g id="line2d_21">
      <g>
       <use xlink:href="#m4d573c2617" x="31.907813" y="99.975455" style="stroke: #000000; stroke-width: 0.8"/>
      </g>
     </g>
     <g id="line2d_22">
      <g>
       <use xlink:href="#m4d573c2617" x="389.027813" y="99.975455" style="stroke: #000000; stroke-width: 0.8"/>
      </g>
     </g>
     <g id="text_11">
      <!-- 2 -->
      <g transform="translate(21.098438 103.545767)scale(0.1 -0.1)">
       <use xlink:href="#HelveticaNeue-Medium-32"/>
      </g>
     </g>
    </g>
    <g id="ytick_3">
     <g id="line2d_23">
      <g>
       <use xlink:href="#m4d573c2617" x="31.907813" y="75.539091" style="stroke: #000000; stroke-width: 0.8"/>
      </g>
     </g>
     <g id="line2d_24">
      <g>
       <use xlink:href="#m4d573c2617" x="389.027813" y="75.539091" style="stroke: #000000; stroke-width: 0.8"/>
      </g>
     </g>
     <g id="text_12">
      <!-- 4 -->
      <g transform="translate(21.098438 79.109403)scale(0.1 -0.1)">
       <defs>
        <path id="HelveticaNeue-Medium-34" d="M 3341 1638 
L 2765 1638 
L 2765 4480 
L 2074 4480 
L 154 1786 
L 154 1062 
L 2074 1062 
L 2074 0 
L 2765 0 
L 2765 1062 
L 3341 1062 
L 3341 1638 
z
M 2061 3610 
L 2074 3610 
L 2074 1638 
L 717 1638 
L 2061 3610 
z
" transform="scale(0.015625)"/>
       </defs>
       <use xlink:href="#HelveticaNeue-Medium-34"/>
      </g>
     </g>
    </g>
    <g id="ytick_4">
     <g id="line2d_25">
      <g>
       <use xlink:href="#m4d573c2617" x="31.907813" y="51.102727" style="stroke: #000000; stroke-width: 0.8"/>
      </g>
     </g>
     <g id="line2d_26">
      <g>
       <use xlink:href="#m4d573c2617" x="389.027813" y="51.102727" style="stroke: #000000; stroke-width: 0.8"/>
      </g>
     </g>
     <g id="text_13">
      <!-- 6 -->
      <g transform="translate(21.098438 54.67304)scale(0.1 -0.1)">
       <defs>
        <path id="HelveticaNeue-Medium-36" d="M 1824 518 
C 1293 518 1018 966 1018 1453 
C 1018 1946 1293 2368 1824 2368 
C 2349 2368 2611 1933 2611 1453 
C 2611 973 2349 518 1824 518 
z
M 3258 3347 
C 3219 4077 2618 4570 1907 4570 
C 640 4570 218 3322 218 2253 
C 218 947 531 -90 1850 -90 
C 2746 -90 3341 570 3341 1440 
C 3341 2298 2816 2944 1926 2944 
C 1530 2944 1158 2765 960 2413 
L 947 2426 
C 992 3014 1082 3962 1875 3962 
C 2253 3962 2496 3712 2528 3347 
L 3258 3347 
z
" transform="scale(0.015625)"/>
       </defs>
       <use xlink:href="#HelveticaNeue-Medium-36"/>
      </g>
     </g>
    </g>
    <g id="ytick_5">
     <g id="line2d_27">
      <g>
       <use xlink:href="#m4d573c2617" x="31.907813" y="26.666364" style="stroke: #000000; stroke-width: 0.8"/>
      </g>
     </g>
     <g id="line2d_28">
      <g>
       <use xlink:href="#m4d573c2617" x="389.027813" y="26.666364" style="stroke: #000000; stroke-width: 0.8"/>
      </g>
     </g>
     <g id="text_14">
      <!-- 8 -->
      <g transform="translate(21.098438 30.236676)scale(0.1 -0.1)">
       <defs>
        <path id="HelveticaNeue-Medium-38" d="M 1779 486 
C 1293 486 928 794 928 1318 
C 928 1811 1293 2106 1779 2106 
C 2266 2106 2630 1811 2630 1318 
C 2630 794 2266 486 1779 486 
z
M 1779 -90 
C 2688 -90 3360 442 3360 1318 
C 3360 1882 3040 2285 2541 2413 
L 2541 2426 
C 2944 2579 3174 2912 3174 3347 
C 3174 4109 2669 4570 1779 4570 
C 890 4570 384 4109 384 3347 
C 384 2912 614 2579 1018 2426 
L 1018 2413 
C 518 2285 198 1882 198 1318 
C 198 442 870 -90 1779 -90 
z
M 1779 3994 
C 2170 3994 2483 3750 2483 3309 
C 2483 2886 2182 2650 1779 2650 
C 1376 2650 1075 2886 1075 3309 
C 1075 3750 1389 3994 1779 3994 
z
" transform="scale(0.015625)"/>
       </defs>
       <use xlink:href="#HelveticaNeue-Medium-38"/>
      </g>
     </g>
    </g>
   </g>
   <g id="LineCollection_1">
    <path d="M 224.752613 124.411818 
L 249.751013 124.411818 
" clip-path="url(#p00ffda74b9)" style="fill: none; stroke: #ffa500; stroke-width: 1.5"/>
    <path d="M 189.040613 112.193636 
L 244.394213 112.193636 
" clip-path="url(#p00ffda74b9)" style="fill: none; stroke: #ffa500; stroke-width: 1.5"/>
    <path d="M 203.325413 99.975455 
L 228.323813 99.975455 
" clip-path="url(#p00ffda74b9)" style="fill: none; stroke: #ffa500; stroke-width: 1.5"/>
    <path d="M 224.752613 87.757273 
L 235.466213 87.757273 
" clip-path="url(#p00ffda74b9)" style="fill: none; stroke: #ffa500; stroke-width: 1.5"/>
    <path d="M 201.539813 75.539091 
L 222.967013 75.539091 
" clip-path="url(#p00ffda74b9)" style="fill: none; stroke: #ffa500; stroke-width: 1.5"/>
    <path d="M 197.968613 63.320909 
L 217.610213 63.320909 
" clip-path="url(#p00ffda74b9)" style="fill: none; stroke: #ffa500; stroke-width: 1.5"/>
    <path d="M 190.826213 51.102727 
L 226.538213 51.102727 
" clip-path="url(#p00ffda74b9)" style="fill: none; stroke: #ffa500; stroke-width: 1.5"/>
    <path d="M 174.755813 38.884545 
L 197.968613 38.884545 
" clip-path="url(#p00ffda74b9)" style="fill: none; stroke: #ffa500; stroke-width: 1.5"/>
    <path d="M 121.187813 26.666364 
L 165.827813 26.666364 
" clip-path="url(#p00ffda74b9)" style="fill: none; stroke: #ffa500; stroke-width: 1.5"/>
    <path d="M 181.898213 14.448182 
L 230.109413 14.448182 
" clip-path="url(#p00ffda74b9)" style="fill: none; stroke: #ffa500; stroke-width: 1.5"/>
   </g>
   <g id="line2d_29">
    <defs>
     <path id="mf2a9df90b2" d="M 0 2 
L 0 -2 
" style="stroke: #ffa500"/>
    </defs>
    <g clip-path="url(#p00ffda74b9)">
     <use xlink:href="#mf2a9df90b2" x="224.752613" y="124.411818" style="fill: #ffa500; stroke: #ffa500"/>
     <use xlink:href="#mf2a9df90b2" x="189.040613" y="112.193636" style="fill: #ffa500; stroke: #ffa500"/>
     <use xlink:href="#mf2a9df90b2" x="203.325413" y="99.975455" style="fill: #ffa500; stroke: #ffa500"/>
     <use xlink:href="#mf2a9df90b2" x="224.752613" y="87.757273" style="fill: #ffa500; stroke: #ffa500"/>
     <use xlink:href="#mf2a9df90b2" x="201.539813" y="75.539091" style="fill: #ffa500; stroke: #ffa500"/>
     <use xlink:href="#mf2a9df90b2" x="197.968613" y="63.320909" style="fill: #ffa500; stroke: #ffa500"/>
     <use xlink:href="#mf2a9df90b2" x="190.826213" y="51.102727" style="fill: #ffa500; stroke: #ffa500"/>
     <use xlink:href="#mf2a9df90b2" x="174.755813" y="38.884545" style="fill: #ffa500; stroke: #ffa500"/>
     <use xlink:href="#mf2a9df90b2" x="121.187813" y="26.666364" style="fill: #ffa500; stroke: #ffa500"/>
     <use xlink:href="#mf2a9df90b2" x="181.898213" y="14.448182" style="fill: #ffa500; stroke: #ffa500"/>
    </g>
   </g>
   <g id="line2d_30">
    <g clip-path="url(#p00ffda74b9)">
     <use xlink:href="#mf2a9df90b2" x="249.751013" y="124.411818" style="fill: #ffa500; stroke: #ffa500"/>
     <use xlink:href="#mf2a9df90b2" x="244.394213" y="112.193636" style="fill: #ffa500; stroke: #ffa500"/>
     <use xlink:href="#mf2a9df90b2" x="228.323813" y="99.975455" style="fill: #ffa500; stroke: #ffa500"/>
     <use xlink:href="#mf2a9df90b2" x="235.466213" y="87.757273" style="fill: #ffa500; stroke: #ffa500"/>
     <use xlink:href="#mf2a9df90b2" x="222.967013" y="75.539091" style="fill: #ffa500; stroke: #ffa500"/>
     <use xlink:href="#mf2a9df90b2" x="217.610213" y="63.320909" style="fill: #ffa500; stroke: #ffa500"/>
     <use xlink:href="#mf2a9df90b2" x="226.538213" y="51.102727" style="fill: #ffa500; stroke: #ffa500"/>
     <use xlink:href="#mf2a9df90b2" x="197.968613" y="38.884545" style="fill: #ffa500; stroke: #ffa500"/>
     <use xlink:href="#mf2a9df90b2" x="165.827813" y="26.666364" style="fill: #ffa500; stroke: #ffa500"/>
     <use xlink:href="#mf2a9df90b2" x="230.109413" y="14.448182" style="fill: #ffa500; stroke: #ffa500"/>
    </g>
   </g>
   <g id="line2d_31">
    <defs>
     <path id="m73afa93d7b" d="M 0 3 
C 0.795609 3 1.55874 2.683901 2.12132 2.12132 
C 2.683901 1.55874 3 0.795609 3 0 
C 3 -0.795609 2.683901 -1.55874 2.12132 -2.12132 
C 1.55874 -2.683901 0.795609 -3 0 -3 
C -0.795609 -3 -1.55874 -2.683901 -2.12132 -2.12132 
C -2.683901 -1.55874 -3 -0.795609 -3 0 
C -3 0.795609 -2.683901 1.55874 -2.12132 2.12132 
C -1.55874 2.683901 -0.795609 3 0 3 
z
" style="stroke: #ffa500"/>
    </defs>
    <g clip-path="url(#p00ffda74b9)">
     <use xlink:href="#m73afa93d7b" x="237.251813" y="124.411818" style="fill: #ffa500; stroke: #ffa500"/>
     <use xlink:href="#m73afa93d7b" x="217.610213" y="112.193636" style="fill: #ffa500; stroke: #ffa500"/>
     <use xlink:href="#m73afa93d7b" x="214.039013" y="99.975455" style="fill: #ffa500; stroke: #ffa500"/>
     <use xlink:href="#m73afa93d7b" x="230.109413" y="87.757273" style="fill: #ffa500; stroke: #ffa500"/>
     <use xlink:href="#m73afa93d7b" x="212.253413" y="75.539091" style="fill: #ffa500; stroke: #ffa500"/>
     <use xlink:href="#m73afa93d7b" x="206.896613" y="63.320909" style="fill: #ffa500; stroke: #ffa500"/>
     <use xlink:href="#m73afa93d7b" x="208.682213" y="51.102727" style="fill: #ffa500; stroke: #ffa500"/>
     <use xlink:href="#m73afa93d7b" x="185.469413" y="38.884545" style="fill: #ffa500; stroke: #ffa500"/>
     <use xlink:href="#m73afa93d7b" x="140.829413" y="26.666364" style="fill: #ffa500; stroke: #ffa500"/>
     <use xlink:href="#m73afa93d7b" x="205.111013" y="14.448182" style="fill: #ffa500; stroke: #ffa500"/>
    </g>
   </g>
   <g id="patch_3">
    <path d="M 31.907813 129.91 
L 31.907813 8.95 
" style="fill: none; stroke: #000000; stroke-width: 0.8; stroke-linejoin: miter; stroke-linecap: square"/>
   </g>
   <g id="patch_4">
    <path d="M 389.027813 129.91 
L 389.027813 8.95 
" style="fill: none; stroke: #000000; stroke-width: 0.8; stroke-linejoin: miter; stroke-linecap: square"/>
   </g>
   <g id="patch_5">
    <path d="M 31.907813 129.91 
L 389.027813 129.91 
" style="fill: none; stroke: #000000; stroke-width: 0.8; stroke-linejoin: miter; stroke-linecap: square"/>
   </g>
   <g id="patch_6">
    <path d="M 31.907813 8.95 
L 389.027813 8.95 
" style="fill: none; stroke: #000000; stroke-width: 0.8; stroke-linejoin: miter; stroke-linecap: square"/>
   </g>
  </g>
  <g id="axes_2">
   <g id="patch_7">
    <path d="M 31.907813 275.062 
L 389.027813 275.062 
L 389.027813 154.102 
L 31.907813 154.102 
z
" style="fill: #ffffff"/>
   </g>
   <g id="PolyCollection_1">
    <defs>
     <path id="md919f32e96" d="M 31.907813 -40.357557 
L 31.907813 -40.357557 
L 32.80285 -40.357557 
L 33.697888 -40.357557 
L 34.592925 -40.357557 
L 35.487963 -40.357557 
L 36.383 -40.357557 
L 37.278038 -40.357557 
L 38.173076 -40.357557 
L 39.068113 -40.357557 
L 39.963151 -40.357557 
L 40.858188 -40.357557 
L 41.753226 -40.357557 
L 42.648264 -40.357557 
L 43.543301 -40.357557 
L 44.438339 -40.357557 
L 45.333376 -40.357557 
L 46.228414 -40.357557 
L 47.123452 -40.357557 
L 48.018489 -40.357557 
L 48.913527 -40.357557 
L 49.808564 -40.357557 
L 50.703602 -40.357557 
L 51.59864 -40.357557 
L 52.493677 -40.357557 
L 53.388715 -40.357557 
L 54.283752 -40.357557 
L 55.17879 -40.357557 
L 56.073828 -40.357557 
L 56.968865 -40.357557 
L 57.863903 -40.357557 
L 58.75894 -40.357557 
L 59.653978 -40.357557 
L 60.549016 -40.357557 
L 61.444053 -40.357557 
L 62.339091 -40.357557 
L 63.234128 -40.357557 
L 64.129166 -40.357557 
L 65.024203 -40.357557 
L 65.919241 -40.357557 
L 66.814279 -40.357557 
L 67.709316 -40.357557 
L 68.604354 -40.357557 
L 69.499391 -40.357557 
L 70.394429 -40.357557 
L 71.289467 -40.357557 
L 72.184504 -40.357557 
L 73.079542 -40.357557 
L 73.974579 -40.357557 
L 74.869617 -40.357557 
L 75.764655 -40.357557 
L 76.659692 -40.357557 
L 77.55473 -40.357557 
L 78.449767 -40.357557 
L 79.344805 -40.357557 
L 80.239843 -40.357557 
L 81.13488 -40.357557 
L 82.029918 -40.357557 
L 82.924955 -40.357557 
L 83.819993 -40.357557 
L 84.715031 -40.357557 
L 85.610068 -40.357557 
L 86.505106 -40.357557 
L 87.400143 -40.357557 
L 88.295181 -40.357557 
L 89.190219 -40.357557 
L 90.085256 -40.357557 
L 90.980294 -40.357557 
L 91.875331 -40.357557 
L 92.770369 -40.357557 
L 93.665406 -40.357557 
L 94.560444 -40.357557 
L 95.455482 -40.357557 
L 96.350519 -40.357557 
L 97.245557 -40.357557 
L 98.140594 -40.357557 
L 99.035632 -40.357557 
L 99.93067 -40.357557 
L 100.825707 -40.357557 
L 101.720745 -40.357557 
L 102.615782 -40.357557 
L 103.51082 -40.357557 
L 104.405858 -40.357557 
L 105.300895 -40.357557 
L 106.195933 -40.357557 
L 107.09097 -40.357557 
L 107.986008 -40.357557 
L 108.881046 -40.357557 
L 109.776083 -40.357557 
L 110.671121 -40.357557 
L 111.566158 -40.357557 
L 112.461196 -40.357557 
L 113.356234 -40.357557 
L 114.251271 -40.357557 
L 115.146309 -40.357557 
L 116.041346 -40.357557 
L 116.936384 -40.357557 
L 117.831422 -40.357557 
L 118.726459 -40.357557 
L 119.621497 -40.357557 
L 120.516534 -40.357557 
L 121.411572 -40.357557 
L 122.306609 -40.357557 
L 123.201647 -40.357557 
L 124.096685 -40.357557 
L 124.991722 -40.357557 
L 125.88676 -40.357557 
L 126.781797 -40.357557 
L 127.676835 -40.357557 
L 128.571873 -40.357557 
L 129.46691 -40.357557 
L 130.361948 -40.357557 
L 131.256985 -40.357557 
L 132.152023 -40.357557 
L 133.047061 -40.357557 
L 133.942098 -40.357557 
L 134.837136 -40.357557 
L 135.732173 -40.357557 
L 136.627211 -40.357557 
L 137.522249 -40.357557 
L 138.417286 -40.357557 
L 139.312324 -40.357557 
L 140.207361 -40.357557 
L 141.102399 -40.357557 
L 141.997437 -40.357557 
L 142.892474 -40.357557 
L 143.787512 -40.357557 
L 144.682549 -40.357557 
L 145.577587 -40.357557 
L 146.472625 -40.357557 
L 147.367662 -40.357557 
L 148.2627 -40.357557 
L 149.157737 -40.357557 
L 150.052775 -40.357557 
L 150.947812 -40.357557 
L 151.84285 -40.357557 
L 152.737888 -40.357557 
L 153.632925 -40.357557 
L 154.527963 -40.357557 
L 155.423 -40.357557 
L 156.318038 -40.357557 
L 157.213076 -40.357558 
L 158.108113 -40.357558 
L 159.003151 -40.357559 
L 159.898188 -40.357561 
L 160.793226 -40.357564 
L 161.688264 -40.357568 
L 162.583301 -40.357577 
L 163.478339 -40.357591 
L 164.373376 -40.357614 
L 165.268414 -40.357652 
L 166.163452 -40.357715 
L 167.058489 -40.357816 
L 167.953527 -40.357978 
L 168.848564 -40.358236 
L 169.743602 -40.358641 
L 170.63864 -40.359274 
L 171.533677 -40.36025 
L 172.428715 -40.361742 
L 173.323752 -40.364001 
L 174.21879 -40.367389 
L 175.113828 -40.372419 
L 176.008865 -40.379816 
L 176.903903 -40.390587 
L 177.79894 -40.406114 
L 178.693978 -40.42828 
L 179.589016 -40.459607 
L 180.484053 -40.503442 
L 181.379091 -40.564166 
L 182.274128 -40.647441 
L 183.169166 -40.762557 
L 184.064203 -40.919355 
L 184.959241 -41.129647 
L 185.854279 -41.408819 
L 186.749316 -41.775634 
L 187.644354 -42.25262 
L 188.539391 -42.866385 
L 189.434429 -43.647806 
L 190.329467 -44.632041 
L 191.224504 -45.858296 
L 192.119542 -47.369291 
L 193.014579 -48.665977 
L 193.909617 -49.765874 
L 194.804655 -51.20787 
L 195.699692 -53.771833 
L 196.59473 -56.823458 
L 197.489767 -60.144181 
L 198.384805 -62.75603 
L 199.279843 -64.942294 
L 200.17488 -67.495446 
L 201.069918 -70.040191 
L 201.964955 -73.118509 
L 202.859993 -75.403982 
L 203.755031 -76.673706 
L 204.650068 -78.243657 
L 205.545106 -78.31936 
L 206.440143 -81.28551 
L 207.335181 -82.351576 
L 208.230219 -86.108894 
L 209.125256 -86.85531 
L 210.020294 -87.40288 
L 210.915331 -87.44426 
L 211.810369 -87.927734 
L 212.705406 -86.657661 
L 213.600444 -85.203598 
L 214.495482 -84.175356 
L 215.390519 -83.112 
L 216.285557 -83.289441 
L 217.180594 -83.347116 
L 218.075632 -81.843962 
L 218.97067 -81.265984 
L 219.865707 -80.662998 
L 220.760745 -78.315834 
L 221.655782 -75.766069 
L 222.55082 -73.437407 
L 223.445858 -71.096033 
L 224.340895 -67.074894 
L 225.235933 -63.602688 
L 226.13097 -60.724478 
L 227.026008 -58.101002 
L 227.921046 -55.72831 
L 228.816083 -53.772558 
L 229.711121 -51.413243 
L 230.606158 -50.436239 
L 231.501196 -49.442641 
L 232.396234 -48.274985 
L 233.291271 -46.526741 
L 234.186309 -45.099981 
L 235.081346 -43.973459 
L 235.976384 -43.233543 
L 236.871422 -42.6435 
L 237.766459 -42.204335 
L 238.661497 -41.841376 
L 239.556534 -41.549765 
L 240.451572 -41.291028 
L 241.346609 -41.070001 
L 242.241647 -40.852395 
L 243.136685 -40.706828 
L 244.031722 -40.602166 
L 244.92676 -40.52757 
L 245.821797 -40.477619 
L 246.716835 -40.442366 
L 247.611873 -40.417008 
L 248.50691 -40.398925 
L 249.401948 -40.386137 
L 250.296985 -40.377166 
L 251.192023 -40.371629 
L 252.087061 -40.367736 
L 252.982098 -40.364891 
L 253.877136 -40.362821 
L 254.772173 -40.36132 
L 255.667211 -40.360237 
L 256.562249 -40.359458 
L 257.457286 -40.358777 
L 258.352324 -40.358318 
L 259.247361 -40.358028 
L 260.142399 -40.357845 
L 261.037437 -40.357732 
L 261.932474 -40.357662 
L 262.827512 -40.357619 
L 263.722549 -40.357594 
L 264.617587 -40.357578 
L 265.512625 -40.357569 
L 266.407662 -40.357564 
L 267.3027 -40.357561 
L 268.197737 -40.357559 
L 269.092775 -40.357558 
L 269.987813 -40.357558 
L 270.88285 -40.357557 
L 271.777888 -40.357557 
L 272.672925 -40.357557 
L 273.567963 -40.357557 
L 274.463 -40.357557 
L 275.358038 -40.357557 
L 276.253076 -40.357557 
L 277.148113 -40.357557 
L 278.043151 -40.357557 
L 278.938188 -40.357557 
L 279.833226 -40.357557 
L 280.728264 -40.357557 
L 281.623301 -40.357557 
L 282.518339 -40.357557 
L 283.413376 -40.357557 
L 284.308414 -40.357557 
L 285.203452 -40.357557 
L 286.098489 -40.357557 
L 286.993527 -40.357557 
L 287.888564 -40.357557 
L 288.783602 -40.357557 
L 289.67864 -40.357557 
L 290.573677 -40.357557 
L 291.468715 -40.357557 
L 292.363752 -40.357557 
L 293.25879 -40.357557 
L 294.153828 -40.357557 
L 295.048865 -40.357557 
L 295.943903 -40.357557 
L 296.83894 -40.357557 
L 297.733978 -40.357557 
L 298.629016 -40.357557 
L 299.524053 -40.357557 
L 300.419091 -40.357557 
L 301.314128 -40.357557 
L 302.209166 -40.357557 
L 303.104203 -40.357557 
L 303.999241 -40.357557 
L 304.894279 -40.357557 
L 305.789316 -40.357557 
L 306.684354 -40.357557 
L 307.579391 -40.357557 
L 308.474429 -40.357557 
L 309.369467 -40.357557 
L 310.264504 -40.357557 
L 311.159542 -40.357557 
L 312.054579 -40.357557 
L 312.949617 -40.357557 
L 313.844655 -40.357557 
L 314.739692 -40.357557 
L 315.63473 -40.357557 
L 316.529767 -40.357557 
L 317.424805 -40.357557 
L 318.319843 -40.357557 
L 319.21488 -40.357557 
L 320.109918 -40.357557 
L 321.004955 -40.357557 
L 321.899993 -40.357557 
L 322.795031 -40.357557 
L 323.690068 -40.357557 
L 324.585106 -40.357557 
L 325.480143 -40.357557 
L 326.375181 -40.357557 
L 327.270219 -40.357557 
L 328.165256 -40.357557 
L 329.060294 -40.357557 
L 329.955331 -40.357557 
L 330.850369 -40.357557 
L 331.745406 -40.357557 
L 332.640444 -40.357557 
L 333.535482 -40.357557 
L 334.430519 -40.357557 
L 335.325557 -40.357557 
L 336.220594 -40.357557 
L 337.115632 -40.357557 
L 338.01067 -40.357557 
L 338.905707 -40.357557 
L 339.800745 -40.357557 
L 340.695782 -40.357557 
L 341.59082 -40.357557 
L 342.485858 -40.357557 
L 343.380895 -40.357557 
L 344.275933 -40.357557 
L 345.17097 -40.357557 
L 346.066008 -40.357557 
L 346.961046 -40.357557 
L 347.856083 -40.357557 
L 348.751121 -40.357557 
L 349.646158 -40.357557 
L 350.541196 -40.357557 
L 351.436234 -40.357557 
L 352.331271 -40.357557 
L 353.226309 -40.357557 
L 354.121346 -40.357557 
L 355.016384 -40.357557 
L 355.911422 -40.357557 
L 356.806459 -40.357557 
L 357.701497 -40.357557 
L 358.596534 -40.357557 
L 359.491572 -40.357557 
L 360.386609 -40.357557 
L 361.281647 -40.357557 
L 362.176685 -40.357557 
L 363.071722 -40.357557 
L 363.96676 -40.357557 
L 364.861797 -40.357557 
L 365.756835 -40.357557 
L 366.651873 -40.357557 
L 367.54691 -40.357557 
L 368.441948 -40.357557 
L 369.336985 -40.357557 
L 370.232023 -40.357557 
L 371.127061 -40.357557 
L 372.022098 -40.357557 
L 372.917136 -40.357557 
L 373.812173 -40.357557 
L 374.707211 -40.357557 
L 375.602249 -40.357557 
L 376.497286 -40.357557 
L 377.392324 -40.357557 
L 378.287361 -40.357557 
L 379.182399 -40.357557 
L 380.077437 -40.357557 
L 380.972474 -40.357557 
L 381.867512 -40.357557 
L 382.762549 -40.357557 
L 383.657587 -40.357557 
L 384.552625 -40.357557 
L 385.447662 -40.357557 
L 386.3427 -40.357557 
L 387.237737 -40.357557 
L 388.132775 -40.357557 
L 389.027813 -40.357557 
L 389.027813 -40.357557 
L 389.027813 -40.357557 
L 388.132775 -40.357557 
L 387.237737 -40.357557 
L 386.3427 -40.357557 
L 385.447662 -40.357557 
L 384.552625 -40.357557 
L 383.657587 -40.357557 
L 382.762549 -40.357557 
L 381.867512 -40.357557 
L 380.972474 -40.357557 
L 380.077437 -40.357557 
L 379.182399 -40.357557 
L 378.287361 -40.357557 
L 377.392324 -40.357557 
L 376.497286 -40.357557 
L 375.602249 -40.357557 
L 374.707211 -40.357557 
L 373.812173 -40.357557 
L 372.917136 -40.357557 
L 372.022098 -40.357557 
L 371.127061 -40.357557 
L 370.232023 -40.357557 
L 369.336985 -40.357557 
L 368.441948 -40.357557 
L 367.54691 -40.357557 
L 366.651873 -40.357557 
L 365.756835 -40.357557 
L 364.861797 -40.357557 
L 363.96676 -40.357557 
L 363.071722 -40.357557 
L 362.176685 -40.357557 
L 361.281647 -40.357557 
L 360.386609 -40.357557 
L 359.491572 -40.357557 
L 358.596534 -40.357557 
L 357.701497 -40.357557 
L 356.806459 -40.357557 
L 355.911422 -40.357557 
L 355.016384 -40.357557 
L 354.121346 -40.357557 
L 353.226309 -40.357557 
L 352.331271 -40.357557 
L 351.436234 -40.357557 
L 350.541196 -40.357557 
L 349.646158 -40.357557 
L 348.751121 -40.357558 
L 347.856083 -40.357558 
L 346.961046 -40.357558 
L 346.066008 -40.357558 
L 345.17097 -40.357559 
L 344.275933 -40.357559 
L 343.380895 -40.35756 
L 342.485858 -40.35756 
L 341.59082 -40.357561 
L 340.695782 -40.357562 
L 339.800745 -40.357564 
L 338.905707 -40.357565 
L 338.01067 -40.357568 
L 337.115632 -40.35757 
L 336.220594 -40.357573 
L 335.325557 -40.357577 
L 334.430519 -40.357582 
L 333.535482 -40.357588 
L 332.640444 -40.357595 
L 331.745406 -40.357604 
L 330.850369 -40.357615 
L 329.955331 -40.357628 
L 329.060294 -40.357644 
L 328.165256 -40.357664 
L 327.270219 -40.357688 
L 326.375181 -40.357716 
L 325.480143 -40.357751 
L 324.585106 -40.357793 
L 323.690068 -40.357844 
L 322.795031 -40.357905 
L 321.899993 -40.357978 
L 321.004955 -40.358066 
L 320.109918 -40.358171 
L 319.21488 -40.358297 
L 318.319843 -40.358447 
L 317.424805 -40.358626 
L 316.529767 -40.358839 
L 315.63473 -40.359092 
L 314.739692 -40.359393 
L 313.844655 -40.359749 
L 312.949617 -40.36017 
L 312.054579 -40.360667 
L 311.159542 -40.361282 
L 310.264504 -40.362112 
L 309.369467 -40.363118 
L 308.474429 -40.364334 
L 307.579391 -40.365801 
L 306.684354 -40.367566 
L 305.789316 -40.369682 
L 304.894279 -40.372182 
L 303.999241 -40.375168 
L 303.104203 -40.378726 
L 302.209166 -40.382957 
L 301.314128 -40.38798 
L 300.419091 -40.39393 
L 299.524053 -40.400964 
L 298.629016 -40.409261 
L 297.733978 -40.419027 
L 296.83894 -40.430497 
L 295.943903 -40.443941 
L 295.048865 -40.459663 
L 294.153828 -40.478009 
L 293.25879 -40.499368 
L 292.363752 -40.524179 
L 291.468715 -40.551059 
L 290.573677 -40.579869 
L 289.67864 -40.612562 
L 288.783602 -40.649594 
L 287.888564 -40.685943 
L 286.993527 -40.725584 
L 286.098489 -40.759017 
L 285.203452 -40.793056 
L 284.308414 -40.829829 
L 283.413376 -40.869535 
L 282.518339 -40.912382 
L 281.623301 -40.958593 
L 280.728264 -41.008399 
L 279.833226 -41.062047 
L 278.938188 -41.119792 
L 278.043151 -41.181903 
L 277.148113 -41.248658 
L 276.253076 -41.320349 
L 275.358038 -41.397277 
L 274.463 -41.479755 
L 273.567963 -41.568103 
L 272.672925 -41.656775 
L 271.777888 -41.765584 
L 270.88285 -41.902038 
L 269.987813 -42.049916 
L 269.092775 -42.209958 
L 268.197737 -42.38293 
L 267.3027 -42.587563 
L 266.407662 -42.858126 
L 265.512625 -43.158125 
L 264.617587 -43.490025 
L 263.722549 -43.85637 
L 262.827512 -44.25977 
L 261.932474 -44.702884 
L 261.037437 -45.188392 
L 260.142399 -45.718967 
L 259.247361 -46.265393 
L 258.352324 -46.693561 
L 257.457286 -47.415978 
L 256.562249 -48.245471 
L 255.667211 -49.14761 
L 254.772173 -50.125321 
L 253.877136 -51.181186 
L 252.982098 -52.317371 
L 252.087061 -53.535555 
L 251.192023 -54.836862 
L 250.296985 -56.221786 
L 249.401948 -57.544476 
L 248.50691 -58.672302 
L 247.611873 -59.840468 
L 246.716835 -61.459707 
L 245.821797 -63.229231 
L 244.92676 -65.070597 
L 244.031722 -66.78628 
L 243.136685 -67.784421 
L 242.241647 -68.641381 
L 241.346609 -70.125133 
L 240.451572 -71.352239 
L 239.556534 -72.586723 
L 238.661497 -73.717867 
L 237.766459 -74.784944 
L 236.871422 -76.548793 
L 235.976384 -78.316691 
L 235.081346 -81.635175 
L 234.186309 -84.039356 
L 233.291271 -85.873619 
L 232.396234 -87.072513 
L 231.501196 -89.021528 
L 230.606158 -94.263126 
L 229.711121 -98.187197 
L 228.816083 -99.402246 
L 227.921046 -101.255497 
L 227.026008 -101.903393 
L 226.13097 -102.849711 
L 225.235933 -103.638986 
L 224.340895 -104.264942 
L 223.445858 -107.050947 
L 222.55082 -110.789332 
L 221.655782 -115.823044 
L 220.760745 -117.742305 
L 219.865707 -123.792107 
L 218.97067 -135.097005 
L 218.075632 -145.309349 
L 217.180594 -144.366308 
L 216.285557 -147.162253 
L 215.390519 -150.321193 
L 214.495482 -148.527541 
L 213.600444 -145.31783 
L 212.705406 -138.94953 
L 211.810369 -134.789064 
L 210.915331 -133.823696 
L 210.020294 -136.304003 
L 209.125256 -138.217493 
L 208.230219 -139.528036 
L 207.335181 -136.644493 
L 206.440143 -131.665092 
L 205.545106 -124.974473 
L 204.650068 -121.496753 
L 203.755031 -118.948675 
L 202.859993 -117.461936 
L 201.964955 -114.977657 
L 201.069918 -115.740361 
L 200.17488 -115.663929 
L 199.279843 -112.282256 
L 198.384805 -108.115604 
L 197.489767 -103.83792 
L 196.59473 -102.272515 
L 195.699692 -100.089742 
L 194.804655 -97.800115 
L 193.909617 -94.123173 
L 193.014579 -89.972672 
L 192.119542 -86.248652 
L 191.224504 -84.667812 
L 190.329467 -83.044144 
L 189.434429 -81.386563 
L 188.539391 -79.633376 
L 187.644354 -77.77244 
L 186.749316 -75.915203 
L 185.854279 -74.070915 
L 184.959241 -72.06735 
L 184.064203 -69.858401 
L 183.169166 -69.190209 
L 182.274128 -67.905792 
L 181.379091 -66.303502 
L 180.484053 -64.739814 
L 179.589016 -63.331429 
L 178.693978 -61.851256 
L 177.79894 -60.402368 
L 176.903903 -58.521025 
L 176.008865 -56.721008 
L 175.113828 -55.08102 
L 174.21879 -53.559079 
L 173.323752 -52.153198 
L 172.428715 -50.86041 
L 171.533677 -49.676922 
L 170.63864 -48.89526 
L 169.743602 -48.309734 
L 168.848564 -47.756117 
L 167.953527 -47.05909 
L 167.058489 -46.393887 
L 166.163452 -45.783979 
L 165.268414 -45.35241 
L 164.373376 -44.998922 
L 163.478339 -44.593398 
L 162.583301 -44.219729 
L 161.688264 -43.78711 
L 160.793226 -43.341079 
L 159.898188 -42.947531 
L 159.003151 -42.601473 
L 158.108113 -42.298171 
L 157.213076 -42.033175 
L 156.318038 -41.866564 
L 155.423 -41.715293 
L 154.527963 -41.570423 
L 153.632925 -41.439149 
L 152.737888 -41.320429 
L 151.84285 -41.213273 
L 150.947812 -41.116743 
L 150.052775 -41.029955 
L 149.157737 -40.952076 
L 148.2627 -40.882325 
L 147.367662 -40.819975 
L 146.472625 -40.764345 
L 145.577587 -40.714805 
L 144.682549 -40.670772 
L 143.787512 -40.631707 
L 142.892474 -40.597114 
L 141.997437 -40.566537 
L 141.102399 -40.539561 
L 140.207361 -40.515804 
L 139.312324 -40.494922 
L 138.417286 -40.476599 
L 137.522249 -40.460551 
L 136.627211 -40.446521 
L 135.732173 -40.434277 
L 134.837136 -40.42361 
L 133.942098 -40.414335 
L 133.047061 -40.406283 
L 132.152023 -40.399306 
L 131.256985 -40.39327 
L 130.361948 -40.388042 
L 129.46691 -40.383172 
L 128.571873 -40.379039 
L 127.676835 -40.375539 
L 126.781797 -40.372581 
L 125.88676 -40.370087 
L 124.991722 -40.367987 
L 124.096685 -40.366223 
L 123.201647 -40.364744 
L 122.306609 -40.363507 
L 121.411572 -40.362473 
L 120.516534 -40.361612 
L 119.621497 -40.360896 
L 118.726459 -40.360301 
L 117.831422 -40.359809 
L 116.936384 -40.359401 
L 116.041346 -40.359065 
L 115.146309 -40.358788 
L 114.251271 -40.35856 
L 113.356234 -40.358373 
L 112.461196 -40.358219 
L 111.566158 -40.358094 
L 110.671121 -40.357991 
L 109.776083 -40.357908 
L 108.881046 -40.35784 
L 107.986008 -40.357785 
L 107.09097 -40.35774 
L 106.195933 -40.357704 
L 105.300895 -40.357675 
L 104.405858 -40.357651 
L 103.51082 -40.357632 
L 102.615782 -40.357617 
L 101.720745 -40.357605 
L 100.825707 -40.357595 
L 99.93067 -40.357587 
L 99.035632 -40.357581 
L 98.140594 -40.357576 
L 97.245557 -40.357572 
L 96.350519 -40.357569 
L 95.455482 -40.357566 
L 94.560444 -40.357564 
L 93.665406 -40.357563 
L 92.770369 -40.357561 
L 91.875331 -40.35756 
L 90.980294 -40.35756 
L 90.085256 -40.357559 
L 89.190219 -40.357559 
L 88.295181 -40.357558 
L 87.400143 -40.357558 
L 86.505106 -40.357558 
L 85.610068 -40.357557 
L 84.715031 -40.357557 
L 83.819993 -40.357557 
L 82.924955 -40.357557 
L 82.029918 -40.357557 
L 81.13488 -40.357557 
L 80.239843 -40.357557 
L 79.344805 -40.357557 
L 78.449767 -40.357557 
L 77.55473 -40.357557 
L 76.659692 -40.357557 
L 75.764655 -40.357557 
L 74.869617 -40.357557 
L 73.974579 -40.357557 
L 73.079542 -40.357557 
L 72.184504 -40.357557 
L 71.289467 -40.357557 
L 70.394429 -40.357557 
L 69.499391 -40.357557 
L 68.604354 -40.357557 
L 67.709316 -40.357557 
L 66.814279 -40.357557 
L 65.919241 -40.357557 
L 65.024203 -40.357557 
L 64.129166 -40.357557 
L 63.234128 -40.357557 
L 62.339091 -40.357557 
L 61.444053 -40.357557 
L 60.549016 -40.357557 
L 59.653978 -40.357557 
L 58.75894 -40.357557 
L 57.863903 -40.357557 
L 56.968865 -40.357557 
L 56.073828 -40.357557 
L 55.17879 -40.357557 
L 54.283752 -40.357557 
L 53.388715 -40.357557 
L 52.493677 -40.357557 
L 51.59864 -40.357557 
L 50.703602 -40.357557 
L 49.808564 -40.357557 
L 48.913527 -40.357557 
L 48.018489 -40.357557 
L 47.123452 -40.357557 
L 46.228414 -40.357557 
L 45.333376 -40.357557 
L 44.438339 -40.357557 
L 43.543301 -40.357557 
L 42.648264 -40.357557 
L 41.753226 -40.357557 
L 40.858188 -40.357557 
L 39.963151 -40.357557 
L 39.068113 -40.357557 
L 38.173076 -40.357557 
L 37.278038 -40.357557 
L 36.383 -40.357557 
L 35.487963 -40.357557 
L 34.592925 -40.357557 
L 33.697888 -40.357557 
L 32.80285 -40.357557 
L 31.907813 -40.357557 
z
" style="stroke: #000000; stroke-opacity: 0.1"/>
    </defs>
    <g clip-path="url(#p22e5fcac35)">
     <use xlink:href="#md919f32e96" x="0" y="309.921375" style="fill-opacity: 0.1; stroke: #000000; stroke-opacity: 0.1"/>
    </g>
   </g>
   <g id="matplotlib.axis_3">
    <g id="xtick_10">
     <g id="line2d_32">
      <g>
       <use xlink:href="#m81636ecc09" x="31.907813" y="275.062" style="stroke: #000000; stroke-width: 0.8"/>
      </g>
     </g>
     <g id="line2d_33">
      <g>
       <use xlink:href="#m81636ecc09" x="31.907813" y="154.102" style="stroke: #000000; stroke-width: 0.8"/>
      </g>
     </g>
     <g id="text_15">
      <!-- −100 -->
      <g transform="translate(20.56875 287.452625)scale(0.1 -0.1)">
       <use xlink:href="#HelveticaNeue-Medium-2212"/>
       <use xlink:href="#HelveticaNeue-Medium-31" x="59.999985"/>
       <use xlink:href="#HelveticaNeue-Medium-30" x="115.599976"/>
       <use xlink:href="#HelveticaNeue-Medium-30" x="171.199966"/>
      </g>
     </g>
    </g>
    <g id="xtick_11">
     <g id="line2d_34">
      <g>
       <use xlink:href="#m81636ecc09" x="76.547813" y="275.062" style="stroke: #000000; stroke-width: 0.8"/>
      </g>
     </g>
     <g id="line2d_35">
      <g>
       <use xlink:href="#m81636ecc09" x="76.547813" y="154.102" style="stroke: #000000; stroke-width: 0.8"/>
      </g>
     </g>
     <g id="text_16">
      <!-- −75 -->
      <g transform="translate(67.988438 287.452625)scale(0.1 -0.1)">
       <use xlink:href="#HelveticaNeue-Medium-2212"/>
       <use xlink:href="#HelveticaNeue-Medium-37" x="59.999985"/>
       <use xlink:href="#HelveticaNeue-Medium-35" x="115.599976"/>
      </g>
     </g>
    </g>
    <g id="xtick_12">
     <g id="line2d_36">
      <g>
       <use xlink:href="#m81636ecc09" x="121.187813" y="275.062" style="stroke: #000000; stroke-width: 0.8"/>
      </g>
     </g>
     <g id="line2d_37">
      <g>
       <use xlink:href="#m81636ecc09" x="121.187813" y="154.102" style="stroke: #000000; stroke-width: 0.8"/>
      </g>
     </g>
     <g id="text_17">
      <!-- −50 -->
      <g transform="translate(112.628438 287.452625)scale(0.1 -0.1)">
       <use xlink:href="#HelveticaNeue-Medium-2212"/>
       <use xlink:href="#HelveticaNeue-Medium-35" x="59.999985"/>
       <use xlink:href="#HelveticaNeue-Medium-30" x="115.599976"/>
      </g>
     </g>
    </g>
    <g id="xtick_13">
     <g id="line2d_38">
      <g>
       <use xlink:href="#m81636ecc09" x="165.827813" y="275.062" style="stroke: #000000; stroke-width: 0.8"/>
      </g>
     </g>
     <g id="line2d_39">
      <g>
       <use xlink:href="#m81636ecc09" x="165.827813" y="154.102" style="stroke: #000000; stroke-width: 0.8"/>
      </g>
     </g>
     <g id="text_18">
      <!-- −25 -->
      <g transform="translate(157.268438 287.452625)scale(0.1 -0.1)">
       <use xlink:href="#HelveticaNeue-Medium-2212"/>
       <use xlink:href="#HelveticaNeue-Medium-32" x="59.999985"/>
       <use xlink:href="#HelveticaNeue-Medium-35" x="115.599976"/>
      </g>
     </g>
    </g>
    <g id="xtick_14">
     <g id="line2d_40">
      <g>
       <use xlink:href="#m81636ecc09" x="210.467813" y="275.062" style="stroke: #000000; stroke-width: 0.8"/>
      </g>
     </g>
     <g id="line2d_41">
      <g>
       <use xlink:href="#m81636ecc09" x="210.467813" y="154.102" style="stroke: #000000; stroke-width: 0.8"/>
      </g>
     </g>
     <g id="text_19">
      <!-- 0 -->
      <g transform="translate(207.688125 287.452625)scale(0.1 -0.1)">
       <use xlink:href="#HelveticaNeue-Medium-30"/>
      </g>
     </g>
    </g>
    <g id="xtick_15">
     <g id="line2d_42">
      <g>
       <use xlink:href="#m81636ecc09" x="255.107813" y="275.062" style="stroke: #000000; stroke-width: 0.8"/>
      </g>
     </g>
     <g id="line2d_43">
      <g>
       <use xlink:href="#m81636ecc09" x="255.107813" y="154.102" style="stroke: #000000; stroke-width: 0.8"/>
      </g>
     </g>
     <g id="text_20">
      <!-- 25 -->
      <g transform="translate(249.548438 287.452625)scale(0.1 -0.1)">
       <use xlink:href="#HelveticaNeue-Medium-32"/>
       <use xlink:href="#HelveticaNeue-Medium-35" x="55.599991"/>
      </g>
     </g>
    </g>
    <g id="xtick_16">
     <g id="line2d_44">
      <g>
       <use xlink:href="#m81636ecc09" x="299.747813" y="275.062" style="stroke: #000000; stroke-width: 0.8"/>
      </g>
     </g>
     <g id="line2d_45">
      <g>
       <use xlink:href="#m81636ecc09" x="299.747813" y="154.102" style="stroke: #000000; stroke-width: 0.8"/>
      </g>
     </g>
     <g id="text_21">
      <!-- 50 -->
      <g transform="translate(294.188438 287.452625)scale(0.1 -0.1)">
       <use xlink:href="#HelveticaNeue-Medium-35"/>
       <use xlink:href="#HelveticaNeue-Medium-30" x="55.599991"/>
      </g>
     </g>
    </g>
    <g id="xtick_17">
     <g id="line2d_46">
      <g>
       <use xlink:href="#m81636ecc09" x="344.387813" y="275.062" style="stroke: #000000; stroke-width: 0.8"/>
      </g>
     </g>
     <g id="line2d_47">
      <g>
       <use xlink:href="#m81636ecc09" x="344.387813" y="154.102" style="stroke: #000000; stroke-width: 0.8"/>
      </g>
     </g>
     <g id="text_22">
      <!-- 75 -->
      <g transform="translate(338.828438 287.452625)scale(0.1 -0.1)">
       <use xlink:href="#HelveticaNeue-Medium-37"/>
       <use xlink:href="#HelveticaNeue-Medium-35" x="55.599991"/>
      </g>
     </g>
    </g>
    <g id="xtick_18">
     <g id="line2d_48">
      <g>
       <use xlink:href="#m81636ecc09" x="389.027813" y="275.062" style="stroke: #000000; stroke-width: 0.8"/>
      </g>
     </g>
     <g id="line2d_49">
      <g>
       <use xlink:href="#m81636ecc09" x="389.027813" y="154.102" style="stroke: #000000; stroke-width: 0.8"/>
      </g>
     </g>
     <g id="text_23">
      <!-- 100 -->
      <g transform="translate(380.68875 287.452625)scale(0.1 -0.1)">
       <use xlink:href="#HelveticaNeue-Medium-31"/>
       <use xlink:href="#HelveticaNeue-Medium-30" x="55.599991"/>
       <use xlink:href="#HelveticaNeue-Medium-30" x="111.199982"/>
      </g>
     </g>
    </g>
    <g id="text_24">
     <!-- Velocity [km/s] -->
     <g transform="translate(176.479531 300.671375)scale(0.1 -0.1)">
      <defs>
       <path id="HelveticaNeue-Medium-56" d="M 1491 0 
L 2381 0 
L 3942 4570 
L 3130 4570 
L 1958 954 
L 1946 954 
L 800 4570 
L -32 4570 
L 1491 0 
z
" transform="scale(0.015625)"/>
       <path id="HelveticaNeue-Medium-65" d="M 3386 1466 
C 3507 2458 2867 3398 1824 3398 
C 838 3398 224 2592 224 1651 
C 224 634 806 -90 1843 -90 
C 2566 -90 3181 314 3341 1037 
L 2650 1037 
C 2522 672 2266 486 1843 486 
C 1235 486 954 947 954 1466 
L 3386 1466 
z
M 954 1946 
C 973 2438 1318 2822 1824 2822 
C 2317 2822 2630 2406 2656 1946 
L 954 1946 
z
" transform="scale(0.015625)"/>
       <path id="HelveticaNeue-Medium-6c" d="M 403 0 
L 1133 0 
L 1133 4570 
L 403 4570 
L 403 0 
z
" transform="scale(0.015625)"/>
       <path id="HelveticaNeue-Medium-6f" d="M 1901 486 
C 1248 486 960 1082 960 1658 
C 960 2227 1248 2822 1901 2822 
C 2554 2822 2842 2227 2842 1658 
C 2842 1082 2554 486 1901 486 
z
M 1901 -90 
C 2963 -90 3571 640 3571 1658 
C 3571 2669 2963 3398 1901 3398 
C 838 3398 230 2669 230 1658 
C 230 640 838 -90 1901 -90 
z
" transform="scale(0.015625)"/>
       <path id="HelveticaNeue-Medium-63" d="M 3347 2202 
C 3277 3014 2624 3398 1856 3398 
C 768 3398 224 2618 224 1619 
C 224 646 794 -90 1830 -90 
C 2682 -90 3213 384 3347 1242 
L 2618 1242 
C 2547 768 2253 486 1830 486 
C 1197 486 954 1069 954 1619 
C 954 2624 1485 2822 1862 2822 
C 2266 2822 2560 2605 2618 2202 
L 3347 2202 
z
" transform="scale(0.015625)"/>
       <path id="HelveticaNeue-Medium-69" d="M 403 0 
L 1133 0 
L 1133 3309 
L 403 3309 
L 403 0 
z
M 403 3878 
L 1133 3878 
L 1133 4570 
L 403 4570 
L 403 3878 
z
" transform="scale(0.015625)"/>
       <path id="HelveticaNeue-Medium-74" d="M 51 2765 
L 602 2765 
L 602 813 
C 614 262 755 -32 1517 -32 
C 1677 -32 1830 -6 1990 6 
L 1990 570 
C 1888 544 1786 544 1683 544 
C 1357 544 1331 698 1331 998 
L 1331 2765 
L 1990 2765 
L 1990 3309 
L 1331 3309 
L 1331 4301 
L 602 4301 
L 602 3309 
L 51 3309 
L 51 2765 
z
" transform="scale(0.015625)"/>
       <path id="HelveticaNeue-Medium-79" d="M 1274 13 
L 1190 -243 
C 1101 -525 1018 -704 678 -704 
C 563 -704 448 -678 333 -659 
L 333 -1274 
C 499 -1299 666 -1312 838 -1312 
C 1600 -1312 1773 -774 2010 -179 
L 3296 3309 
L 2534 3309 
L 1696 838 
L 1683 838 
L 819 3309 
L 19 3309 
L 1274 13 
z
" transform="scale(0.015625)"/>
       <path id="HelveticaNeue-Medium-20" transform="scale(0.015625)"/>
       <path id="HelveticaNeue-Medium-5b" d="M 461 -1222 
L 1888 -1222 
L 1888 -646 
L 1152 -646 
L 1152 4102 
L 1888 4102 
L 1888 4678 
L 461 4678 
L 461 -1222 
z
" transform="scale(0.015625)"/>
       <path id="HelveticaNeue-Medium-6b" d="M 403 0 
L 1133 0 
L 1133 1184 
L 1568 1606 
L 2579 0 
L 3469 0 
L 2080 2093 
L 3347 3309 
L 2451 3309 
L 1133 1971 
L 1133 4570 
L 403 4570 
L 403 0 
z
" transform="scale(0.015625)"/>
       <path id="HelveticaNeue-Medium-6d" d="M 384 0 
L 1114 0 
L 1114 1965 
C 1114 2515 1459 2822 1837 2822 
C 2278 2822 2419 2579 2419 2125 
L 2419 0 
L 3149 0 
L 3149 1939 
C 3149 2496 3360 2822 3853 2822 
C 4422 2822 4454 2458 4454 1933 
L 4454 0 
L 5184 0 
L 5184 2285 
C 5184 3091 4774 3398 4077 3398 
C 3597 3398 3283 3187 3040 2848 
C 2893 3226 2515 3398 2112 3398 
C 1587 3398 1312 3174 1094 2848 
L 1075 2848 
L 1075 3309 
L 384 3309 
L 384 0 
z
" transform="scale(0.015625)"/>
       <path id="HelveticaNeue-Medium-2f" d="M -141 -109 
L 557 -109 
L 2394 4678 
L 1696 4678 
L -141 -109 
z
" transform="scale(0.015625)"/>
       <path id="HelveticaNeue-Medium-73" d="M 205 1062 
C 218 282 838 -90 1670 -90 
C 2355 -90 3149 198 3149 986 
C 3149 1638 2611 1830 2080 1952 
C 1542 2074 1005 2125 1005 2483 
C 1005 2771 1395 2822 1606 2822 
C 1926 2822 2214 2726 2278 2381 
L 3040 2381 
C 2950 3117 2336 3398 1658 3398 
C 1056 3398 275 3174 275 2451 
C 275 1779 800 1587 1338 1472 
C 1869 1350 2400 1306 2419 922 
C 2438 544 1958 486 1683 486 
C 1293 486 973 640 934 1062 
L 205 1062 
z
" transform="scale(0.015625)"/>
       <path id="HelveticaNeue-Medium-5d" d="M 1434 4678 
L 6 4678 
L 6 4102 
L 742 4102 
L 742 -646 
L 6 -646 
L 6 -1222 
L 1434 -1222 
L 1434 4678 
z
" transform="scale(0.015625)"/>
      </defs>
      <use xlink:href="#HelveticaNeue-Medium-56"/>
      <use xlink:href="#HelveticaNeue-Medium-65" x="61.099991"/>
      <use xlink:href="#HelveticaNeue-Medium-6c" x="116.699982"/>
      <use xlink:href="#HelveticaNeue-Medium-6f" x="140.799973"/>
      <use xlink:href="#HelveticaNeue-Medium-63" x="200.09996"/>
      <use xlink:href="#HelveticaNeue-Medium-69" x="255.699951"/>
      <use xlink:href="#HelveticaNeue-Medium-74" x="279.799942"/>
      <use xlink:href="#HelveticaNeue-Medium-79" x="313.09993"/>
      <use xlink:href="#HelveticaNeue-Medium-20" x="364.999924"/>
      <use xlink:href="#HelveticaNeue-Medium-5b" x="392.799911"/>
      <use xlink:href="#HelveticaNeue-Medium-6b" x="422.399902"/>
      <use xlink:href="#HelveticaNeue-Medium-6d" x="476.099899"/>
      <use xlink:href="#HelveticaNeue-Medium-2f" x="563.099884"/>
      <use xlink:href="#HelveticaNeue-Medium-73" x="598.299881"/>
      <use xlink:href="#HelveticaNeue-Medium-5d" x="650.199875"/>
     </g>
    </g>
   </g>
   <g id="matplotlib.axis_4">
    <g id="ytick_6">
     <g id="line2d_50">
      <g>
       <use xlink:href="#m4d573c2617" x="31.907813" y="269.563818" style="stroke: #000000; stroke-width: 0.8"/>
      </g>
     </g>
     <g id="line2d_51">
      <g>
       <use xlink:href="#m4d573c2617" x="389.027813" y="269.563818" style="stroke: #000000; stroke-width: 0.8"/>
      </g>
     </g>
     <g id="text_25">
      <!-- 0.00 -->
      <g transform="translate(7.2 273.134131)scale(0.1 -0.1)">
       <defs>
        <path id="HelveticaNeue-Medium-2e" d="M 442 0 
L 1331 0 
L 1331 864 
L 442 864 
L 442 0 
z
" transform="scale(0.015625)"/>
       </defs>
       <use xlink:href="#HelveticaNeue-Medium-30"/>
       <use xlink:href="#HelveticaNeue-Medium-2e" x="55.599991"/>
       <use xlink:href="#HelveticaNeue-Medium-30" x="83.399979"/>
       <use xlink:href="#HelveticaNeue-Medium-30" x="138.999969"/>
      </g>
     </g>
    </g>
    <g id="ytick_7">
     <g id="line2d_52">
      <g>
       <use xlink:href="#m4d573c2617" x="31.907813" y="238.273986" style="stroke: #000000; stroke-width: 0.8"/>
      </g>
     </g>
     <g id="line2d_53">
      <g>
       <use xlink:href="#m4d573c2617" x="389.027813" y="238.273986" style="stroke: #000000; stroke-width: 0.8"/>
      </g>
     </g>
     <g id="text_26">
      <!-- 0.02 -->
      <g transform="translate(7.2 241.844299)scale(0.1 -0.1)">
       <use xlink:href="#HelveticaNeue-Medium-30"/>
       <use xlink:href="#HelveticaNeue-Medium-2e" x="55.599991"/>
       <use xlink:href="#HelveticaNeue-Medium-30" x="83.399979"/>
       <use xlink:href="#HelveticaNeue-Medium-32" x="138.999969"/>
      </g>
     </g>
    </g>
    <g id="ytick_8">
     <g id="line2d_54">
      <g>
       <use xlink:href="#m4d573c2617" x="31.907813" y="206.984154" style="stroke: #000000; stroke-width: 0.8"/>
      </g>
     </g>
     <g id="line2d_55">
      <g>
       <use xlink:href="#m4d573c2617" x="389.027813" y="206.984154" style="stroke: #000000; stroke-width: 0.8"/>
      </g>
     </g>
     <g id="text_27">
      <!-- 0.04 -->
      <g transform="translate(7.2 210.554467)scale(0.1 -0.1)">
       <use xlink:href="#HelveticaNeue-Medium-30"/>
       <use xlink:href="#HelveticaNeue-Medium-2e" x="55.599991"/>
       <use xlink:href="#HelveticaNeue-Medium-30" x="83.399979"/>
       <use xlink:href="#HelveticaNeue-Medium-34" x="138.999969"/>
      </g>
     </g>
    </g>
    <g id="ytick_9">
     <g id="line2d_56">
      <g>
       <use xlink:href="#m4d573c2617" x="31.907813" y="175.694322" style="stroke: #000000; stroke-width: 0.8"/>
      </g>
     </g>
     <g id="line2d_57">
      <g>
       <use xlink:href="#m4d573c2617" x="389.027813" y="175.694322" style="stroke: #000000; stroke-width: 0.8"/>
      </g>
     </g>
     <g id="text_28">
      <!-- 0.06 -->
      <g transform="translate(7.2 179.264635)scale(0.1 -0.1)">
       <use xlink:href="#HelveticaNeue-Medium-30"/>
       <use xlink:href="#HelveticaNeue-Medium-2e" x="55.599991"/>
       <use xlink:href="#HelveticaNeue-Medium-30" x="83.399979"/>
       <use xlink:href="#HelveticaNeue-Medium-36" x="138.999969"/>
      </g>
     </g>
    </g>
   </g>
   <g id="line2d_58">
    <path d="M 31.907813 269.563818 
L 157.213076 269.458475 
L 162.583301 269.231947 
L 166.163452 268.880853 
L 168.848564 268.461949 
L 170.63864 268.066656 
L 172.428715 267.435028 
L 174.21879 266.491576 
L 176.008865 265.162454 
L 180.484053 261.697634 
L 182.274128 259.71719 
L 183.169166 258.393633 
L 184.959241 254.4968 
L 186.749316 250.365389 
L 187.644354 248.734962 
L 188.539391 247.738829 
L 191.224504 243.738861 
L 193.014579 240.229663 
L 195.699692 233.967539 
L 196.59473 232.814541 
L 197.489767 231.389337 
L 198.384805 228.043676 
L 200.17488 225.936142 
L 201.069918 223.218571 
L 201.964955 216.082108 
L 202.859993 211.926247 
L 203.755031 210.812835 
L 204.650068 206.898022 
L 205.545106 205.954962 
L 206.440143 205.889209 
L 207.335181 206.809968 
L 208.230219 205.711266 
L 210.020294 205.872137 
L 210.915331 206.120241 
L 211.810369 207.331128 
L 212.705406 206.54856 
L 213.600444 207.3205 
L 214.495482 207.754273 
L 215.390519 207.621435 
L 216.285557 207.771571 
L 217.180594 208.303379 
L 218.075632 211.218902 
L 219.865707 214.246602 
L 220.760745 215.37166 
L 222.55082 218.762168 
L 224.340895 223.104203 
L 225.235933 226.189097 
L 226.13097 228.370061 
L 227.026008 229.691904 
L 228.816083 234.539835 
L 230.606158 238.609229 
L 231.501196 240.287072 
L 232.396234 242.861118 
L 233.291271 244.371385 
L 235.081346 247.941528 
L 235.976384 249.265974 
L 236.871422 250.874588 
L 237.766459 253.231308 
L 239.556534 256.287495 
L 241.346609 258.702425 
L 244.031722 261.861366 
L 246.716835 264.52111 
L 248.50691 265.644937 
L 250.296985 266.685082 
L 252.087061 267.481081 
L 253.877136 268.07973 
L 256.562249 268.696239 
L 259.247361 269.07371 
L 262.827512 269.34681 
L 268.197737 269.506776 
L 279.833226 269.561483 
L 389.027813 269.563818 
L 389.027813 269.563818 
" clip-path="url(#p22e5fcac35)" style="fill: none; stroke: #000000; stroke-width: 1.5"/>
   </g>
   <g id="patch_8">
    <path d="M 31.907813 275.062 
L 31.907813 154.102 
" style="fill: none; stroke: #000000; stroke-width: 0.8; stroke-linejoin: miter; stroke-linecap: square"/>
   </g>
   <g id="patch_9">
    <path d="M 389.027813 275.062 
L 389.027813 154.102 
" style="fill: none; stroke: #000000; stroke-width: 0.8; stroke-linejoin: miter; stroke-linecap: square"/>
   </g>
   <g id="patch_10">
    <path d="M 31.907813 275.062 
L 389.027813 275.062 
" style="fill: none; stroke: #000000; stroke-width: 0.8; stroke-linejoin: miter; stroke-linecap: square"/>
   </g>
   <g id="patch_11">
    <path d="M 31.907813 154.102 
L 389.027813 154.102 
" style="fill: none; stroke: #000000; stroke-width: 0.8; stroke-linejoin: miter; stroke-linecap: square"/>
   </g>
  </g>
 </g>
 <defs>
  <clipPath id="p00ffda74b9">
   <rect x="31.907813" y="8.95" width="357.12" height="120.96"/>
  </clipPath>
  <clipPath id="p22e5fcac35">
   <rect x="31.907813" y="154.102" width="357.12" height="120.96"/>
  </clipPath>
 </defs>
</svg>
