<?xml version="1.0" encoding="utf-8" standalone="no"?>
<!DOCTYPE svg PUBLIC "-//W3C//DTD SVG 1.1//EN"
  "http://www.w3.org/Graphics/SVG/1.1/DTD/svg11.dtd">
<!-- Created with matplotlib (https://matplotlib.org/) -->
<svg height="310.86825pt" version="1.1" viewBox="0 0 391.245 310.86825" width="391.245pt" xmlns="http://www.w3.org/2000/svg" xmlns:xlink="http://www.w3.org/1999/xlink">
 <defs>
  <style type="text/css">
*{stroke-linecap:butt;stroke-linejoin:round;}
  </style>
 </defs>
 <g id="figure_1">
  <g id="patch_1">
   <path d="M 0 310.86825 
L 391.245 310.86825 
L 391.245 0 
L 0 0 
z
" style="fill:#ffffff;"/>
  </g>
  <g id="axes_1">
   <g id="patch_2">
    <path d="M 26.925 273.312 
L 384.045 273.312 
L 384.045 7.2 
L 26.925 7.2 
z
" style="fill:#ffffff;"/>
   </g>
   <g id="PolyCollection_1">
    <path clip-path="url(#p766f1cc451)" d="M 212.756566 254.781421 
L 212.756566 254.917948 
L 213.990647 254.923078 
L 215.224728 254.92753 
L 216.458809 254.931785 
L 217.692889 254.936356 
L 218.92697 254.941656 
L 220.161051 254.947922 
L 221.395132 254.955212 
L 222.629213 254.963487 
L 223.863294 254.972742 
L 225.097375 254.983157 
L 226.331456 254.995223 
L 227.565537 255.009819 
L 228.799618 255.028221 
L 230.033699 255.05201 
L 231.26778 255.082883 
L 232.50186 255.122371 
L 233.735941 255.171508 
L 234.970022 255.23053 
L 236.204103 255.298721 
L 237.438184 255.374492 
L 238.672265 255.455747 
L 239.906346 255.540506 
L 241.140427 255.627652 
L 242.374508 255.717606 
L 243.608589 255.81273 
L 244.84267 255.917288 
L 246.076751 256.036911 
L 247.310831 256.177631 
L 248.544912 256.34469 
L 249.778993 256.541357 
L 251.013074 256.768065 
L 252.247155 257.022052 
L 253.481236 257.297637 
L 254.715317 257.587071 
L 255.949398 257.881766 
L 257.183479 258.173623 
L 258.41756 258.456137 
L 259.651641 258.725068 
L 260.885722 258.978556 
L 262.119802 259.216768 
L 263.353883 259.44124 
L 264.587964 259.65413 
L 265.822045 259.857534 
L 267.056126 260.052945 
L 268.290207 260.240849 
L 269.524288 260.420454 
L 270.758369 260.589596 
L 271.99245 260.744912 
L 273.226531 260.882359 
L 274.460612 260.998038 
L 275.694692 261.089137 
L 276.928773 261.15468 
L 278.162854 261.195758 
L 279.396935 261.21509 
L 280.631016 261.216 
L 281.865097 261.201121 
L 283.099178 261.171255 
L 284.333259 261.124759 
L 285.56734 261.057626 
L 286.801421 260.964229 
L 288.035502 260.838526 
L 289.269583 260.675448 
L 290.503663 260.472184 
L 291.737744 260.229162 
L 292.971825 259.950515 
L 294.205906 259.643924 
L 295.439987 259.319788 
L 296.674068 258.989797 
L 297.908149 258.665166 
L 299.14223 258.354915 
L 300.376311 258.064649 
L 301.610392 257.796186 
L 302.844473 257.548149 
L 304.078554 257.317354 
L 305.312634 257.100537 
L 306.546715 256.895859 
L 307.780796 256.703692 
L 309.014877 256.526464 
L 310.248958 256.367652 
L 311.483039 256.230305 
L 312.71712 256.115653 
L 313.951201 256.022261 
L 315.185282 255.946009 
L 316.419363 255.880873 
L 317.653444 255.82022 
L 318.887525 255.758204 
L 320.121605 255.69086 
L 321.355686 255.61664 
L 322.589767 255.536325 
L 323.823848 255.452468 
L 325.057929 255.368565 
L 326.29201 255.288229 
L 327.526091 255.214515 
L 328.760172 255.149512 
L 329.994253 255.094191 
L 331.228334 255.048472 
L 332.462415 255.011458 
L 333.696496 254.981741 
L 334.930576 254.957737 
L 334.930576 254.741631 
L 334.930576 254.741631 
L 333.696496 254.717628 
L 332.462415 254.687911 
L 331.228334 254.650896 
L 329.994253 254.605178 
L 328.760172 254.549856 
L 327.526091 254.484853 
L 326.29201 254.41114 
L 325.057929 254.330803 
L 323.823848 254.246901 
L 322.589767 254.163043 
L 321.355686 254.082729 
L 320.121605 254.008508 
L 318.887525 253.941165 
L 317.653444 253.879149 
L 316.419363 253.818495 
L 315.185282 253.753359 
L 313.951201 253.677108 
L 312.71712 253.583716 
L 311.483039 253.469064 
L 310.248958 253.331717 
L 309.014877 253.172904 
L 307.780796 252.995677 
L 306.546715 252.803509 
L 305.312634 252.598831 
L 304.078554 252.382015 
L 302.844473 252.15122 
L 301.610392 251.903183 
L 300.376311 251.634719 
L 299.14223 251.344454 
L 297.908149 251.034202 
L 296.674068 250.709571 
L 295.439987 250.37958 
L 294.205906 250.055445 
L 292.971825 249.748854 
L 291.737744 249.470206 
L 290.503663 249.227184 
L 289.269583 249.023921 
L 288.035502 248.860842 
L 286.801421 248.73514 
L 285.56734 248.641742 
L 284.333259 248.574609 
L 283.099178 248.528113 
L 281.865097 248.498248 
L 280.631016 248.483368 
L 279.396935 248.484279 
L 278.162854 248.503611 
L 276.928773 248.544689 
L 275.694692 248.610231 
L 274.460612 248.70133 
L 273.226531 248.817009 
L 271.99245 248.954456 
L 270.758369 249.109773 
L 269.524288 249.278914 
L 268.290207 249.458519 
L 267.056126 249.646423 
L 265.822045 249.841835 
L 264.587964 250.045239 
L 263.353883 250.258128 
L 262.119802 250.4826 
L 260.885722 250.720812 
L 259.651641 250.9743 
L 258.41756 251.243231 
L 257.183479 251.525746 
L 255.949398 251.817602 
L 254.715317 252.112297 
L 253.481236 252.401731 
L 252.247155 252.677317 
L 251.013074 252.931303 
L 249.778993 253.158011 
L 248.544912 253.354679 
L 247.310831 253.521737 
L 246.076751 253.662458 
L 244.84267 253.78208 
L 243.608589 253.886638 
L 242.374508 253.981763 
L 241.140427 254.071717 
L 239.906346 254.158862 
L 238.672265 254.243622 
L 237.438184 254.324877 
L 236.204103 254.400648 
L 234.970022 254.468839 
L 233.735941 254.52786 
L 232.50186 254.576997 
L 231.26778 254.616486 
L 230.033699 254.647359 
L 228.799618 254.671147 
L 227.565537 254.689549 
L 226.331456 254.704145 
L 225.097375 254.716211 
L 223.863294 254.726626 
L 222.629213 254.735882 
L 221.395132 254.744157 
L 220.161051 254.751446 
L 218.92697 254.757712 
L 217.692889 254.763012 
L 216.458809 254.767583 
L 215.224728 254.771838 
L 213.990647 254.776291 
L 212.756566 254.781421 
z
" style="fill:#1f77b4;fill-opacity:0.3;"/>
   </g>
   <g id="PolyCollection_2">
    <path clip-path="url(#p766f1cc451)" d="M 117.882272 229.221855 
L 117.882272 229.546987 
L 120.406818 229.567529 
L 122.931363 229.588325 
L 125.455908 229.609858 
L 127.980454 229.632776 
L 130.504999 229.657742 
L 133.029545 229.685281 
L 135.55409 229.715675 
L 138.078636 229.748938 
L 140.603181 229.784895 
L 143.127727 229.823344 
L 145.652272 229.864277 
L 148.176818 229.908113 
L 150.701363 229.955873 
L 153.225909 230.009264 
L 155.750454 230.070626 
L 158.274999 230.142735 
L 160.799545 230.228487 
L 163.32409 230.330481 
L 165.848636 230.45059 
L 168.373181 230.589582 
L 170.897727 230.746868 
L 173.422272 230.92045 
L 175.946818 231.107077 
L 178.471363 231.302616 
L 180.995909 231.502552 
L 183.520454 231.702541 
L 186.045 231.898905 
L 188.569545 232.088967 
L 191.09409 232.271168 
L 193.618636 232.444963 
L 196.143181 232.610525 
L 198.667727 232.768349 
L 201.192272 232.918861 
L 203.716818 233.062148 
L 206.241363 233.197891 
L 208.765909 233.325546 
L 211.290454 233.444728 
L 213.815 233.555709 
L 216.339545 233.659874 
L 218.864091 233.759981 
L 221.388636 233.86011 
L 223.913181 233.965257 
L 226.437727 234.080624 
L 228.962272 234.210738 
L 231.486818 234.358548 
L 234.011363 234.524681 
L 236.535909 234.706954 
L 239.060454 234.900229 
L 241.585 235.096627 
L 244.109545 235.286087 
L 246.634091 235.457228 
L 249.158636 235.598444 
L 251.683182 235.699109 
L 254.207727 235.750737 
L 256.732272 235.747949 
L 259.256818 235.689079 
L 261.781363 235.576328 
L 264.305909 235.415454 
L 266.830454 235.215047 
L 269.355 234.985505 
L 271.879545 234.737884 
L 274.404091 234.482755 
L 276.928636 234.229226 
L 279.453182 233.984223 
L 281.977727 233.752093 
L 284.502273 233.534548 
L 287.026818 233.330932 
L 289.551363 233.138737 
L 292.075909 232.954296 
L 294.600454 232.773533 
L 297.125 232.592677 
L 299.649545 232.408845 
L 302.174091 232.220421 
L 304.698636 232.027201 
L 307.223182 231.830307 
L 309.747727 231.631911 
L 312.272273 231.434835 
L 314.796818 231.242112 
L 317.321364 231.05659 
L 319.845909 230.880625 
L 322.370454 230.715903 
L 324.895 230.563395 
L 327.419545 230.423414 
L 329.944091 230.295746 
L 332.468636 230.17982 
L 334.993182 230.074881 
L 337.517727 229.980148 
L 340.042273 229.894924 
L 342.566818 229.818671 
L 345.091364 229.751012 
L 347.615909 229.691697 
L 350.140454 229.640519 
L 352.665 229.597206 
L 355.189545 229.561326 
L 357.714091 229.532222 
L 360.238636 229.509005 
L 362.763182 229.490604 
L 365.287727 229.475872 
L 367.812273 229.463715 
L 367.812273 229.305127 
L 367.812273 229.305127 
L 365.287727 229.29297 
L 362.763182 229.278238 
L 360.238636 229.259837 
L 357.714091 229.23662 
L 355.189545 229.207516 
L 352.665 229.171636 
L 350.140454 229.128323 
L 347.615909 229.077145 
L 345.091364 229.017831 
L 342.566818 228.950172 
L 340.042273 228.873918 
L 337.517727 228.788695 
L 334.993182 228.693961 
L 332.468636 228.589022 
L 329.944091 228.473096 
L 327.419545 228.345428 
L 324.895 228.205447 
L 322.370454 228.052939 
L 319.845909 227.888217 
L 317.321364 227.712252 
L 314.796818 227.52673 
L 312.272273 227.334007 
L 309.747727 227.136931 
L 307.223182 226.938535 
L 304.698636 226.741641 
L 302.174091 226.548421 
L 299.649545 226.359997 
L 297.125 226.176165 
L 294.600454 225.995309 
L 292.075909 225.814546 
L 289.551363 225.630105 
L 287.026818 225.43791 
L 284.502273 225.234294 
L 281.977727 225.016749 
L 279.453182 224.784619 
L 276.928636 224.539616 
L 274.404091 224.286087 
L 271.879545 224.030958 
L 269.355 223.783337 
L 266.830454 223.553795 
L 264.305909 223.353388 
L 261.781363 223.192514 
L 259.256818 223.079763 
L 256.732272 223.020893 
L 254.207727 223.018105 
L 251.683182 223.069733 
L 249.158636 223.170398 
L 246.634091 223.311614 
L 244.109545 223.482755 
L 241.585 223.672215 
L 239.060454 223.868613 
L 236.535909 224.061888 
L 234.011363 224.244161 
L 231.486818 224.410294 
L 228.962272 224.558104 
L 226.437727 224.688218 
L 223.913181 224.803585 
L 221.388636 224.908732 
L 218.864091 225.008861 
L 216.339545 225.108968 
L 213.815 225.213133 
L 211.290454 225.324114 
L 208.765909 225.443296 
L 206.241363 225.570951 
L 203.716818 225.706694 
L 201.192272 225.849981 
L 198.667727 226.000493 
L 196.143181 226.158317 
L 193.618636 226.323879 
L 191.09409 226.497674 
L 188.569545 226.679875 
L 186.045 226.869937 
L 183.520454 227.066301 
L 180.995909 227.266291 
L 178.471363 227.466226 
L 175.946818 227.661765 
L 173.422272 227.848392 
L 170.897727 228.021974 
L 168.373181 228.179261 
L 165.848636 228.318252 
L 163.32409 228.438361 
L 160.799545 228.540355 
L 158.274999 228.626107 
L 155.750454 228.698216 
L 153.225909 228.759578 
L 150.701363 228.812969 
L 148.176818 228.860729 
L 145.652272 228.904565 
L 143.127727 228.945498 
L 140.603181 228.983947 
L 138.078636 229.019904 
L 135.55409 229.053168 
L 133.029545 229.083561 
L 130.504999 229.1111 
L 127.980454 229.136066 
L 125.455908 229.158984 
L 122.931363 229.180517 
L 120.406818 229.201313 
L 117.882272 229.221855 
z
" style="fill:#1f77b4;fill-opacity:0.3;"/>
   </g>
   <g id="PolyCollection_3">
    <path clip-path="url(#p766f1cc451)" d="M 198.702805 203.589578 
L 198.702805 204.248738 
L 199.771575 204.32346 
L 200.840345 204.405591 
L 201.909114 204.493308 
L 202.977884 204.584327 
L 204.046654 204.676148 
L 205.115423 204.766392 
L 206.184193 204.853158 
L 207.252963 204.935359 
L 208.321732 205.012971 
L 209.390502 205.087168 
L 210.459272 205.160327 
L 211.528041 205.235905 
L 212.596811 205.318208 
L 213.665581 205.412094 
L 214.73435 205.522597 
L 215.80312 205.654516 
L 216.87189 205.811964 
L 217.940659 205.997913 
L 219.009429 206.213773 
L 220.078199 206.459066 
L 221.146968 206.731277 
L 222.215738 207.025903 
L 223.284508 207.33675 
L 224.353277 207.656433 
L 225.422047 207.977018 
L 226.490817 208.290701 
L 227.559586 208.59043 
L 228.628356 208.87038 
L 229.697126 209.126239 
L 230.765895 209.355288 
L 231.834665 209.556297 
L 232.903435 209.729295 
L 233.972205 209.875253 
L 235.040974 209.995746 
L 236.109744 210.092642 
L 237.178514 210.167856 
L 238.247283 210.223192 
L 239.316053 210.260283 
L 240.384823 210.280597 
L 241.453592 210.285474 
L 242.522362 210.276135 
L 243.591132 210.25363 
L 244.659901 210.218709 
L 245.728671 210.171644 
L 246.797441 210.112078 
L 247.86621 210.038982 
L 248.93498 209.950779 
L 250.00375 209.845671 
L 251.072519 209.722107 
L 252.141289 209.579307 
L 253.210059 209.417691 
L 254.278828 209.239113 
L 255.347598 209.046816 
L 256.416368 208.845099 
L 257.485137 208.638784 
L 258.553907 208.432578 
L 259.622677 208.230467 
L 260.691446 208.035256 
L 261.760216 207.848328 
L 262.828986 207.669641 
L 263.897755 207.49794 
L 264.966525 207.331138 
L 266.035295 207.166798 
L 267.104064 207.002623 
L 268.172834 206.836909 
L 269.241604 206.668862 
L 270.310373 206.49876 
L 271.379143 206.327918 
L 272.447913 206.15848 
L 273.516682 205.993067 
L 274.585452 205.834365 
L 275.654222 205.684729 
L 276.722992 205.545873 
L 277.791761 205.418703 
L 278.860531 205.303312 
L 279.929301 205.199108 
L 280.99807 205.105034 
L 282.06684 205.019826 
L 283.13561 204.94224 
L 284.204379 204.871216 
L 285.273149 204.805948 
L 286.341919 204.745867 
L 287.410688 204.690556 
L 288.479458 204.639636 
L 289.548228 204.592656 
L 290.616997 204.549027 
L 291.685767 204.508009 
L 292.754537 204.468771 
L 293.823306 204.430486 
L 294.892076 204.392458 
L 295.960846 204.354222 
L 297.029615 204.315621 
L 298.098385 204.276812 
L 299.167155 204.23822 
L 300.235924 204.200445 
L 301.304694 204.164148 
L 302.373464 204.129943 
L 303.442233 204.098315 
L 304.511003 204.06958 
L 304.511003 203.768735 
L 304.511003 203.768735 
L 303.442233 203.74 
L 302.373464 203.708373 
L 301.304694 203.674168 
L 300.235924 203.637871 
L 299.167155 203.600096 
L 298.098385 203.561504 
L 297.029615 203.522695 
L 295.960846 203.484094 
L 294.892076 203.445858 
L 293.823306 203.407829 
L 292.754537 203.369545 
L 291.685767 203.330307 
L 290.616997 203.289289 
L 289.548228 203.245659 
L 288.479458 203.19868 
L 287.410688 203.14776 
L 286.341919 203.092449 
L 285.273149 203.032368 
L 284.204379 202.9671 
L 283.13561 202.896076 
L 282.06684 202.81849 
L 280.99807 202.733281 
L 279.929301 202.639208 
L 278.860531 202.535003 
L 277.791761 202.419613 
L 276.722992 202.292443 
L 275.654222 202.153587 
L 274.585452 202.003951 
L 273.516682 201.845249 
L 272.447913 201.679836 
L 271.379143 201.510397 
L 270.310373 201.339556 
L 269.241604 201.169454 
L 268.172834 201.001407 
L 267.104064 200.835693 
L 266.035295 200.671518 
L 264.966525 200.507177 
L 263.897755 200.340376 
L 262.828986 200.168674 
L 261.760216 199.989988 
L 260.691446 199.80306 
L 259.622677 199.607849 
L 258.553907 199.405737 
L 257.485137 199.199532 
L 256.416368 198.993217 
L 255.347598 198.7915 
L 254.278828 198.599203 
L 253.210059 198.420625 
L 252.141289 198.259009 
L 251.072519 198.116209 
L 250.00375 197.992645 
L 248.93498 197.887537 
L 247.86621 197.799334 
L 246.797441 197.726237 
L 245.728671 197.666672 
L 244.659901 197.619607 
L 243.591132 197.584686 
L 242.522362 197.562181 
L 241.453592 197.552842 
L 240.384823 197.557719 
L 239.316053 197.578033 
L 238.247283 197.615124 
L 237.178514 197.67046 
L 236.109744 197.745674 
L 235.040974 197.84257 
L 233.972205 197.963063 
L 232.903435 198.10902 
L 231.834665 198.282018 
L 230.765895 198.483028 
L 229.697126 198.712076 
L 228.628356 198.967936 
L 227.559586 199.247886 
L 226.490817 199.547615 
L 225.422047 199.861298 
L 224.353277 200.181883 
L 223.284508 200.501566 
L 222.215738 200.812413 
L 221.146968 201.107038 
L 220.078199 201.379249 
L 219.009429 201.624543 
L 217.940659 201.840402 
L 216.87189 202.026352 
L 215.80312 202.1838 
L 214.73435 202.315719 
L 213.665581 202.426222 
L 212.596811 202.520107 
L 211.528041 202.602411 
L 210.459272 202.677988 
L 209.390502 202.751148 
L 208.321732 202.825345 
L 207.252963 202.902957 
L 206.184193 202.985157 
L 205.115423 203.071924 
L 204.046654 203.162168 
L 202.977884 203.253989 
L 201.909114 203.345007 
L 200.840345 203.432725 
L 199.771575 203.514856 
L 198.702805 203.589578 
z
" style="fill:#1f77b4;fill-opacity:0.3;"/>
   </g>
   <g id="PolyCollection_4">
    <path clip-path="url(#p766f1cc451)" d="M 243.818804 178.347944 
L 243.818804 178.559845 
L 244.344261 178.575995 
L 244.869717 178.593119 
L 245.395174 178.611626 
L 245.920631 178.632038 
L 246.446088 178.654923 
L 246.971544 178.68086 
L 247.497001 178.710453 
L 248.022458 178.744397 
L 248.547914 178.783543 
L 249.073371 178.8289 
L 249.598828 178.881524 
L 250.124284 178.942282 
L 250.649741 179.01155 
L 251.175198 179.088957 
L 251.700655 179.173309 
L 252.226111 179.262795 
L 252.751568 179.355472 
L 253.277025 179.449919 
L 253.802481 179.545861 
L 254.327938 179.644528 
L 254.853395 179.74859 
L 255.378851 179.861628 
L 255.904308 179.987268 
L 256.429765 180.128205 
L 256.955222 180.285434 
L 257.480678 180.457898 
L 258.006135 180.64268 
L 258.531592 180.835675 
L 259.057048 181.032574 
L 259.582505 181.229883 
L 260.107962 181.425707 
L 260.633418 181.620131 
L 261.158875 181.815083 
L 261.684332 182.013751 
L 262.209788 182.219698 
L 262.735245 182.435878 
L 263.260702 182.663787 
L 263.786159 182.902924 
L 264.311615 183.150649 
L 264.837072 183.402426 
L 265.362529 183.65234 
L 265.887985 183.893725 
L 266.413442 184.119724 
L 266.938899 184.323687 
L 267.464355 184.499405 
L 267.989812 184.641244 
L 268.515269 184.74432 
L 269.040726 184.804784 
L 269.566182 184.820211 
L 270.091639 184.78998 
L 270.617096 184.71549 
L 271.142552 184.600052 
L 271.668009 184.448442 
L 272.193466 184.266193 
L 272.718922 184.058835 
L 273.244379 183.831294 
L 273.769836 183.587623 
L 274.295293 183.331097 
L 274.820749 183.064584 
L 275.346206 182.791003 
L 275.871663 182.513676 
L 276.397119 182.236441 
L 276.922576 181.9635 
L 277.448033 181.699087 
L 277.973489 181.447108 
L 278.498946 181.210869 
L 279.024403 180.992948 
L 279.54986 180.795174 
L 280.075316 180.61863 
L 280.600773 180.463577 
L 281.12623 180.329304 
L 281.651686 180.213945 
L 282.177143 180.114382 
L 282.7026 180.026371 
L 283.228056 179.944918 
L 283.753513 179.864905 
L 284.27897 179.781821 
L 284.804427 179.69246 
L 285.329883 179.595395 
L 285.85534 179.491136 
L 286.380797 179.381922 
L 286.906253 179.271203 
L 287.43171 179.162941 
L 287.957167 179.060893 
L 288.482623 178.968031 
L 289.00808 178.886218 
L 289.533537 178.816173 
L 290.058994 178.757674 
L 290.58445 178.709889 
L 291.109907 178.671706 
L 291.635364 178.641961 
L 292.16082 178.619518 
L 292.686277 178.603232 
L 293.211734 178.591862 
L 293.73719 178.584019 
L 294.262647 178.578196 
L 294.788104 178.572909 
L 295.313561 178.566886 
L 295.839017 178.559254 
L 295.839017 178.348536 
L 295.839017 178.348536 
L 295.313561 178.340904 
L 294.788104 178.33488 
L 294.262647 178.329593 
L 293.73719 178.323771 
L 293.211734 178.315927 
L 292.686277 178.304558 
L 292.16082 178.288272 
L 291.635364 178.265828 
L 291.109907 178.236083 
L 290.58445 178.1979 
L 290.058994 178.150115 
L 289.533537 178.091616 
L 289.00808 178.021571 
L 288.482623 177.939758 
L 287.957167 177.846897 
L 287.43171 177.744849 
L 286.906253 177.636587 
L 286.380797 177.525867 
L 285.85534 177.416653 
L 285.329883 177.312394 
L 284.804427 177.21533 
L 284.27897 177.125968 
L 283.753513 177.042885 
L 283.228056 176.962871 
L 282.7026 176.881419 
L 282.177143 176.793407 
L 281.651686 176.693845 
L 281.12623 176.578485 
L 280.600773 176.444213 
L 280.075316 176.28916 
L 279.54986 176.112615 
L 279.024403 175.914841 
L 278.498946 175.69692 
L 277.973489 175.460681 
L 277.448033 175.208703 
L 276.922576 174.94429 
L 276.397119 174.671348 
L 275.871663 174.394114 
L 275.346206 174.116787 
L 274.820749 173.843205 
L 274.295293 173.576692 
L 273.769836 173.320167 
L 273.244379 173.076496 
L 272.718922 172.848955 
L 272.193466 172.641596 
L 271.668009 172.459347 
L 271.142552 172.307737 
L 270.617096 172.192299 
L 270.091639 172.117809 
L 269.566182 172.087579 
L 269.040726 172.103005 
L 268.515269 172.163469 
L 267.989812 172.266546 
L 267.464355 172.408385 
L 266.938899 172.584102 
L 266.413442 172.788066 
L 265.887985 173.014064 
L 265.362529 173.255449 
L 264.837072 173.505364 
L 264.311615 173.757141 
L 263.786159 174.004866 
L 263.260702 174.244003 
L 262.735245 174.471912 
L 262.209788 174.688091 
L 261.684332 174.894038 
L 261.158875 175.092707 
L 260.633418 175.287658 
L 260.107962 175.482082 
L 259.582505 175.677907 
L 259.057048 175.875215 
L 258.531592 176.072115 
L 258.006135 176.26511 
L 257.480678 176.449891 
L 256.955222 176.622356 
L 256.429765 176.779585 
L 255.904308 176.920522 
L 255.378851 177.046161 
L 254.853395 177.1592 
L 254.327938 177.263262 
L 253.802481 177.361928 
L 253.277025 177.45787 
L 252.751568 177.552317 
L 252.226111 177.644994 
L 251.700655 177.734481 
L 251.175198 177.818832 
L 250.649741 177.896239 
L 250.124284 177.965508 
L 249.598828 178.026266 
L 249.073371 178.07889 
L 248.547914 178.124246 
L 248.022458 178.163392 
L 247.497001 178.197336 
L 246.971544 178.226929 
L 246.446088 178.252866 
L 245.920631 178.275752 
L 245.395174 178.296164 
L 244.869717 178.31467 
L 244.344261 178.331794 
L 243.818804 178.347944 
z
" style="fill:#1f77b4;fill-opacity:0.3;"/>
   </g>
   <g id="PolyCollection_5">
    <path clip-path="url(#p766f1cc451)" d="M 188.056611 152.875488 
L 188.056611 153.101775 
L 189.149037 153.111879 
L 190.241463 153.120554 
L 191.333888 153.12908 
L 192.426314 153.139355 
L 193.51874 153.153584 
L 194.611165 153.173858 
L 195.703591 153.201733 
L 196.796017 153.237895 
L 197.888442 153.281977 
L 198.980868 153.332578 
L 200.073294 153.387483 
L 201.165719 153.444062 
L 202.258145 153.499808 
L 203.35057 153.552935 
L 204.442996 153.602931 
L 205.535422 153.650932 
L 206.627847 153.699827 
L 207.720273 153.754015 
L 208.812699 153.818854 
L 209.905124 153.899902 
L 210.99755 154.002119 
L 212.089976 154.129206 
L 213.182401 154.283214 
L 214.274827 154.464487 
L 215.367253 154.671916 
L 216.459678 154.903375 
L 217.552104 155.15619 
L 218.64453 155.427456 
L 219.736955 155.714076 
L 220.829381 156.012516 
L 221.921806 156.318396 
L 223.014232 156.626166 
L 224.106658 156.929112 
L 225.199083 157.219872 
L 226.291509 157.491402 
L 227.383935 157.738177 
L 228.47636 157.957229 
L 229.568786 158.148686 
L 230.661212 158.315612 
L 231.753637 158.463163 
L 232.846063 158.597283 
L 233.938489 158.72329 
L 235.030914 158.844657 
L 236.12334 158.962242 
L 237.215765 159.07406 
L 238.308191 159.175617 
L 239.400617 159.260702 
L 240.493042 159.322521 
L 241.585468 159.354947 
L 242.677894 159.35366 
L 243.770319 159.316918 
L 244.862745 159.245783 
L 245.955171 159.143725 
L 247.047596 159.01572 
L 248.140022 158.867116 
L 249.232448 158.702579 
L 250.324873 158.52543 
L 251.417299 158.337515 
L 252.509725 158.139564 
L 253.60215 157.931861 
L 254.694576 157.714943 
L 255.787001 157.490079 
L 256.879427 157.259384 
L 257.971853 157.025545 
L 259.064278 156.791272 
L 260.156704 156.558677 
L 261.24913 156.328796 
L 262.341555 156.10143 
L 263.433981 155.875376 
L 264.526407 155.648999 
L 265.618832 155.420989 
L 266.711258 155.191088 
L 267.803684 154.96056 
L 268.896109 154.732279 
L 269.988535 154.510384 
L 271.08096 154.299596 
L 272.173386 154.104388 
L 273.265812 153.928228 
L 274.358237 153.773089 
L 275.450663 153.639322 
L 276.543089 153.525873 
L 277.635514 153.430736 
L 278.72794 153.351484 
L 279.820366 153.285735 
L 280.912791 153.231466 
L 282.005217 153.18715 
L 283.097643 153.151723 
L 284.190068 153.12444 
L 285.282494 153.104683 
L 286.37492 153.091756 
L 287.467345 153.084737 
L 288.559771 153.082418 
L 289.652196 153.083333 
L 290.744622 153.085879 
L 291.837048 153.088485 
L 292.929473 153.089795 
L 294.021899 153.088821 
L 295.114325 153.085038 
L 296.20675 153.078403 
L 296.20675 152.89886 
L 296.20675 152.89886 
L 295.114325 152.892225 
L 294.021899 152.888442 
L 292.929473 152.887468 
L 291.837048 152.888778 
L 290.744622 152.891384 
L 289.652196 152.89393 
L 288.559771 152.894845 
L 287.467345 152.892526 
L 286.37492 152.885507 
L 285.282494 152.87258 
L 284.190068 152.852823 
L 283.097643 152.825541 
L 282.005217 152.790113 
L 280.912791 152.745797 
L 279.820366 152.691528 
L 278.72794 152.625779 
L 277.635514 152.546527 
L 276.543089 152.45139 
L 275.450663 152.337941 
L 274.358237 152.204174 
L 273.265812 152.049036 
L 272.173386 151.872876 
L 271.08096 151.677667 
L 269.988535 151.466879 
L 268.896109 151.244984 
L 267.803684 151.016703 
L 266.711258 150.786175 
L 265.618832 150.556274 
L 264.526407 150.328265 
L 263.433981 150.101887 
L 262.341555 149.875833 
L 261.24913 149.648467 
L 260.156704 149.418586 
L 259.064278 149.185991 
L 257.971853 148.951718 
L 256.879427 148.717879 
L 255.787001 148.487184 
L 254.694576 148.26232 
L 253.60215 148.045402 
L 252.509725 147.837699 
L 251.417299 147.639749 
L 250.324873 147.451833 
L 249.232448 147.274685 
L 248.140022 147.110147 
L 247.047596 146.961543 
L 245.955171 146.833538 
L 244.862745 146.73148 
L 243.770319 146.660345 
L 242.677894 146.623603 
L 241.585468 146.622316 
L 240.493042 146.654742 
L 239.400617 146.716562 
L 238.308191 146.801647 
L 237.215765 146.903203 
L 236.12334 147.015021 
L 235.030914 147.132606 
L 233.938489 147.253974 
L 232.846063 147.37998 
L 231.753637 147.5141 
L 230.661212 147.661651 
L 229.568786 147.828578 
L 228.47636 148.020035 
L 227.383935 148.239086 
L 226.291509 148.485861 
L 225.199083 148.757391 
L 224.106658 149.048151 
L 223.014232 149.351097 
L 221.921806 149.658867 
L 220.829381 149.964748 
L 219.736955 150.263188 
L 218.64453 150.549807 
L 217.552104 150.821073 
L 216.459678 151.073888 
L 215.367253 151.305347 
L 214.274827 151.512776 
L 213.182401 151.69405 
L 212.089976 151.848057 
L 210.99755 151.975144 
L 209.905124 152.077361 
L 208.812699 152.15841 
L 207.720273 152.223248 
L 206.627847 152.277436 
L 205.535422 152.326331 
L 204.442996 152.374332 
L 203.35057 152.424328 
L 202.258145 152.477456 
L 201.165719 152.533202 
L 200.073294 152.58978 
L 198.980868 152.644685 
L 197.888442 152.695286 
L 196.796017 152.739368 
L 195.703591 152.77553 
L 194.611165 152.803405 
L 193.51874 152.823679 
L 192.426314 152.837908 
L 191.333888 152.848183 
L 190.241463 152.856709 
L 189.149037 152.865385 
L 188.056611 152.875488 
z
" style="fill:#1f77b4;fill-opacity:0.3;"/>
   </g>
   <g id="PolyCollection_6">
    <path clip-path="url(#p766f1cc451)" d="M 196.054744 127.230435 
L 196.054744 127.816302 
L 196.792755 127.852731 
L 197.530765 127.888629 
L 198.268775 127.924101 
L 199.006786 127.959843 
L 199.744796 127.99719 
L 200.482806 128.038072 
L 201.220817 128.084892 
L 201.958827 128.140318 
L 202.696837 128.207032 
L 203.434848 128.287458 
L 204.172858 128.383511 
L 204.910869 128.496405 
L 205.648879 128.626539 
L 206.386889 128.773478 
L 207.1249 128.936028 
L 207.86291 129.112382 
L 208.60092 129.300333 
L 209.338931 129.497498 
L 210.076941 129.701558 
L 210.814951 129.910466 
L 211.552962 130.122602 
L 212.290972 130.336873 
L 213.028982 130.552726 
L 213.766993 130.770083 
L 214.505003 130.989196 
L 215.243013 131.210439 
L 215.981024 131.434059 
L 216.719034 131.659932 
L 217.457044 131.887353 
L 218.195055 132.114907 
L 218.933065 132.340442 
L 219.671075 132.561162 
L 220.409086 132.773811 
L 221.147096 132.97494 
L 221.885106 133.16119 
L 222.623117 133.329561 
L 223.361127 133.477611 
L 224.099137 133.603582 
L 224.837148 133.706435 
L 225.575158 133.785836 
L 226.313168 133.842106 
L 227.051179 133.876195 
L 227.789189 133.889684 
L 228.527199 133.884834 
L 229.26521 133.864649 
L 230.00322 133.832908 
L 230.741231 133.794117 
L 231.479241 133.753315 
L 232.217251 133.715728 
L 232.955262 133.686265 
L 233.693272 133.668925 
L 234.431282 133.666197 
L 235.169293 133.678557 
L 235.907303 133.704177 
L 236.645313 133.738915 
L 237.383324 133.776613 
L 238.121334 133.809693 
L 238.859344 133.82995 
L 239.597355 133.829451 
L 240.335365 133.801385 
L 241.073375 133.740755 
L 241.811386 133.644814 
L 242.549396 133.51321 
L 243.287406 133.347841 
L 244.025417 133.152495 
L 244.763427 132.932362 
L 245.501437 132.693508 
L 246.239448 132.442403 
L 246.977458 132.185548 
L 247.715468 131.929213 
L 248.453479 131.679253 
L 249.191489 131.440955 
L 249.929499 131.218879 
L 250.66751 131.016646 
L 251.40552 130.83669 
L 252.14353 130.680009 
L 252.881541 130.545977 
L 253.619551 130.432288 
L 254.357561 130.335088 
L 255.095572 130.249319 
L 255.833582 130.169245 
L 256.571593 130.089092 
L 257.309603 130.003708 
L 258.047613 129.909123 
L 258.785624 129.802937 
L 259.523634 129.684453 
L 260.261644 129.554573 
L 260.999655 129.415484 
L 261.737665 129.270211 
L 262.475675 129.122126 
L 263.213686 128.974499 
L 263.951696 128.830165 
L 264.689706 128.69133 
L 265.427717 128.559516 
L 266.165727 128.435635 
L 266.903737 128.320127 
L 267.641748 128.213132 
L 268.379758 128.114643 
L 269.117768 128.024616 
L 269.117768 127.022121 
L 269.117768 127.022121 
L 268.379758 126.932093 
L 267.641748 126.833604 
L 266.903737 126.72661 
L 266.165727 126.611102 
L 265.427717 126.487221 
L 264.689706 126.355407 
L 263.951696 126.216572 
L 263.213686 126.072238 
L 262.475675 125.924611 
L 261.737665 125.776525 
L 260.999655 125.631253 
L 260.261644 125.492164 
L 259.523634 125.362284 
L 258.785624 125.243799 
L 258.047613 125.137613 
L 257.309603 125.043029 
L 256.571593 124.957645 
L 255.833582 124.877492 
L 255.095572 124.797418 
L 254.357561 124.711649 
L 253.619551 124.614449 
L 252.881541 124.50076 
L 252.14353 124.366728 
L 251.40552 124.210047 
L 250.66751 124.030091 
L 249.929499 123.827858 
L 249.191489 123.605782 
L 248.453479 123.367484 
L 247.715468 123.117524 
L 246.977458 122.861189 
L 246.239448 122.604334 
L 245.501437 122.353228 
L 244.763427 122.114374 
L 244.025417 121.894242 
L 243.287406 121.698896 
L 242.549396 121.533527 
L 241.811386 121.401923 
L 241.073375 121.305982 
L 240.335365 121.245352 
L 239.597355 121.217286 
L 238.859344 121.216786 
L 238.121334 121.237044 
L 237.383324 121.270124 
L 236.645313 121.307822 
L 235.907303 121.34256 
L 235.169293 121.36818 
L 234.431282 121.38054 
L 233.693272 121.377812 
L 232.955262 121.360472 
L 232.217251 121.331009 
L 231.479241 121.293422 
L 230.741231 121.25262 
L 230.00322 121.213829 
L 229.26521 121.182088 
L 228.527199 121.161903 
L 227.789189 121.157053 
L 227.051179 121.170542 
L 226.313168 121.20463 
L 225.575158 121.260901 
L 224.837148 121.340302 
L 224.099137 121.443155 
L 223.361127 121.569125 
L 222.623117 121.717176 
L 221.885106 121.885547 
L 221.147096 122.071797 
L 220.409086 122.272926 
L 219.671075 122.485575 
L 218.933065 122.706295 
L 218.195055 122.93183 
L 217.457044 123.159384 
L 216.719034 123.386805 
L 215.981024 123.612678 
L 215.243013 123.836298 
L 214.505003 124.05754 
L 213.766993 124.276654 
L 213.028982 124.494011 
L 212.290972 124.709864 
L 211.552962 124.924135 
L 210.814951 125.136271 
L 210.076941 125.345179 
L 209.338931 125.549239 
L 208.60092 125.746404 
L 207.86291 125.934354 
L 207.1249 126.110709 
L 206.386889 126.273259 
L 205.648879 126.420198 
L 204.910869 126.550332 
L 204.172858 126.663226 
L 203.434848 126.759279 
L 202.696837 126.839705 
L 201.958827 126.906419 
L 201.220817 126.961845 
L 200.482806 127.008664 
L 199.744796 127.049547 
L 199.006786 127.086894 
L 198.268775 127.122636 
L 197.530765 127.158108 
L 196.792755 127.194006 
L 196.054744 127.230435 
z
" style="fill:#1f77b4;fill-opacity:0.3;"/>
   </g>
   <g id="PolyCollection_7">
    <path clip-path="url(#p766f1cc451)" d="M 155.266918 101.973113 
L 155.266918 102.143098 
L 157.086117 102.161431 
L 158.905315 102.1854 
L 160.724514 102.216768 
L 162.543712 102.25685 
L 164.362911 102.306089 
L 166.18211 102.363848 
L 168.001308 102.428491 
L 169.820507 102.497804 
L 171.639705 102.569658 
L 173.458904 102.642688 
L 175.278103 102.716793 
L 177.097301 102.793263 
L 178.9165 102.874494 
L 180.735698 102.9634 
L 182.554897 103.062722 
L 184.374096 103.174478 
L 186.193294 103.299722 
L 188.012493 103.438678 
L 189.831692 103.591165 
L 191.65089 103.757158 
L 193.470089 103.937266 
L 195.289287 104.132939 
L 197.108486 104.346292 
L 198.927685 104.579536 
L 200.746883 104.834164 
L 202.566082 105.110094 
L 204.38528 105.405065 
L 206.204479 105.714478 
L 208.023678 106.03176 
L 209.842876 106.349174 
L 211.662075 106.658845 
L 213.481274 106.953731 
L 215.300472 107.228308 
L 217.119671 107.478814 
L 218.938869 107.70305 
L 220.758068 107.899816 
L 222.577267 108.068209 
L 224.396465 108.206983 
L 226.215664 108.314241 
L 228.034862 108.387542 
L 229.854061 108.424421 
L 231.67326 108.423118 
L 233.492458 108.383241 
L 235.311657 108.306128 
L 237.130855 108.194832 
L 238.950054 108.053792 
L 240.769253 107.888391 
L 242.588451 107.704552 
L 244.40765 107.508415 
L 246.226849 107.306026 
L 248.046047 107.102934 
L 249.865246 106.903642 
L 251.684444 106.711018 
L 253.503643 106.525842 
L 255.322842 106.346698 
L 257.14204 106.170286 
L 258.961239 105.992157 
L 260.780437 105.807682 
L 262.599636 105.613078 
L 264.418835 105.406262 
L 266.238033 105.187399 
L 268.057232 104.959017 
L 269.876431 104.72568 
L 271.695629 104.49326 
L 273.514828 104.267961 
L 275.334026 104.055326 
L 277.153225 103.859465 
L 278.972424 103.682678 
L 280.791622 103.525501 
L 282.610821 103.387073 
L 284.430019 103.265605 
L 286.249218 103.158774 
L 288.068417 103.063962 
L 289.887615 102.978363 
L 291.706814 102.899086 
L 293.526012 102.823369 
L 295.345211 102.748925 
L 297.16441 102.67434 
L 298.983608 102.599387 
L 300.802807 102.525089 
L 302.622006 102.45349 
L 304.441204 102.387168 
L 306.260403 102.328616 
L 308.079601 102.279679 
L 309.8988 102.241187 
L 311.717999 102.212856 
L 313.537197 102.193452 
L 315.356396 102.181126 
L 317.175594 102.173818 
L 318.994793 102.169603 
L 320.813992 102.166934 
L 322.63319 102.164728 
L 324.452389 102.162339 
L 326.271588 102.159439 
L 328.090786 102.155879 
L 329.909985 102.151567 
L 331.729183 102.146402 
L 333.548382 102.140276 
L 335.367581 102.133124 
L 335.367581 101.983087 
L 335.367581 101.983087 
L 333.548382 101.975935 
L 331.729183 101.969809 
L 329.909985 101.964643 
L 328.090786 101.960331 
L 326.271588 101.956771 
L 324.452389 101.953872 
L 322.63319 101.951483 
L 320.813992 101.949277 
L 318.994793 101.946607 
L 317.175594 101.942393 
L 315.356396 101.935084 
L 313.537197 101.922759 
L 311.717999 101.903355 
L 309.8988 101.875024 
L 308.079601 101.836532 
L 306.260403 101.787595 
L 304.441204 101.729043 
L 302.622006 101.66272 
L 300.802807 101.591122 
L 298.983608 101.516823 
L 297.16441 101.44187 
L 295.345211 101.367286 
L 293.526012 101.292841 
L 291.706814 101.217124 
L 289.887615 101.137847 
L 288.068417 101.052248 
L 286.249218 100.957437 
L 284.430019 100.850606 
L 282.610821 100.729137 
L 280.791622 100.590709 
L 278.972424 100.433533 
L 277.153225 100.256745 
L 275.334026 100.060884 
L 273.514828 99.848249 
L 271.695629 99.62295 
L 269.876431 99.39053 
L 268.057232 99.157194 
L 266.238033 98.928812 
L 264.418835 98.709949 
L 262.599636 98.503133 
L 260.780437 98.308528 
L 258.961239 98.124054 
L 257.14204 97.945924 
L 255.322842 97.769513 
L 253.503643 97.590368 
L 251.684444 97.405193 
L 249.865246 97.212568 
L 248.046047 97.013276 
L 246.226849 96.810184 
L 244.40765 96.607796 
L 242.588451 96.411658 
L 240.769253 96.227819 
L 238.950054 96.062418 
L 237.130855 95.921378 
L 235.311657 95.810082 
L 233.492458 95.73297 
L 231.67326 95.693092 
L 229.854061 95.691789 
L 228.034862 95.728668 
L 226.215664 95.801969 
L 224.396465 95.909227 
L 222.577267 96.048002 
L 220.758068 96.216394 
L 218.938869 96.413161 
L 217.119671 96.637396 
L 215.300472 96.887903 
L 213.481274 97.16248 
L 211.662075 97.457366 
L 209.842876 97.767037 
L 208.023678 98.084451 
L 206.204479 98.401732 
L 204.38528 98.711145 
L 202.566082 99.006117 
L 200.746883 99.282047 
L 198.927685 99.536674 
L 197.108486 99.769919 
L 195.289287 99.983271 
L 193.470089 100.178944 
L 191.65089 100.359052 
L 189.831692 100.525046 
L 188.012493 100.677533 
L 186.193294 100.816489 
L 184.374096 100.941733 
L 182.554897 101.053488 
L 180.735698 101.15281 
L 178.9165 101.241716 
L 177.097301 101.322948 
L 175.278103 101.399418 
L 173.458904 101.473523 
L 171.639705 101.546553 
L 169.820507 101.618406 
L 168.001308 101.68772 
L 166.18211 101.752362 
L 164.362911 101.810121 
L 162.543712 101.859361 
L 160.724514 101.899442 
L 158.905315 101.930811 
L 157.086117 101.954779 
L 155.266918 101.973113 
z
" style="fill:#1f77b4;fill-opacity:0.3;"/>
   </g>
   <g id="PolyCollection_8">
    <path clip-path="url(#p766f1cc451)" d="M 153.316588 76.461718 
L 153.316588 76.723966 
L 154.380032 76.742693 
L 155.443475 76.763892 
L 156.506919 76.7894 
L 157.570363 76.821719 
L 158.633806 76.863859 
L 159.69725 76.919066 
L 160.760693 76.99044 
L 161.824137 77.080498 
L 162.88758 77.190751 
L 163.951024 77.32137 
L 165.014467 77.471031 
L 166.077911 77.636986 
L 167.141355 77.815365 
L 168.204798 78.001667 
L 169.268242 78.191367 
L 170.331685 78.380505 
L 171.395129 78.56617 
L 172.458572 78.746789 
L 173.522016 78.92221 
L 174.58546 79.093587 
L 175.648903 79.263133 
L 176.712347 79.433799 
L 177.77579 79.60892 
L 178.839234 79.791863 
L 179.902677 79.985671 
L 180.966121 80.192691 
L 182.029564 80.414201 
L 183.093008 80.650049 
L 184.156452 80.898382 
L 185.219895 81.155523 
L 186.283339 81.416082 
L 187.346782 81.67332 
L 188.410226 81.919769 
L 189.473669 82.148026 
L 190.537113 82.351587 
L 191.600557 82.525597 
L 192.664 82.667386 
L 193.727444 82.776686 
L 194.790887 82.85553 
L 195.854331 82.90784 
L 196.917774 82.938796 
L 197.981218 82.954087 
L 199.044661 82.959158 
L 200.108105 82.958579 
L 201.171549 82.95561 
L 202.234992 82.952021 
L 203.298436 82.948161 
L 204.361879 82.943204 
L 205.425323 82.935464 
L 206.488766 82.922669 
L 207.55221 82.902091 
L 208.615654 82.870559 
L 209.679097 82.824422 
L 210.742541 82.7596 
L 211.805984 82.671862 
L 212.869428 82.557356 
L 213.932871 82.413324 
L 214.996315 82.238807 
L 216.059758 82.035111 
L 217.123202 81.805839 
L 218.186646 81.556452 
L 219.250089 81.293442 
L 220.313533 81.023362 
L 221.376976 80.751979 
L 222.44042 80.483785 
L 223.503863 80.221937 
L 224.567307 79.968577 
L 225.63075 79.725344 
L 226.694194 79.493834 
L 227.757638 79.275838 
L 228.821081 79.073251 
L 229.884525 78.887713 
L 230.947968 78.720101 
L 232.011412 78.570073 
L 233.074855 78.435833 
L 234.138299 78.314204 
L 235.201743 78.201027 
L 236.265186 78.091805 
L 237.32863 77.982445 
L 238.392073 77.869934 
L 239.455517 77.752823 
L 240.51896 77.63141 
L 241.582404 77.50761 
L 242.645847 77.384548 
L 243.709291 77.265981 
L 244.772735 77.15566 
L 245.836178 77.056761 
L 246.899622 76.971473 
L 247.963065 76.900797 
L 249.026509 76.844551 
L 250.089952 76.801549 
L 251.153396 76.769882 
L 252.21684 76.747252 
L 253.280283 76.731269 
L 254.343727 76.719705 
L 255.40717 76.710657 
L 256.470614 76.702647 
L 257.534057 76.694642 
L 258.597501 76.686047 
L 258.597501 76.499638 
L 258.597501 76.499638 
L 257.534057 76.491042 
L 256.470614 76.483038 
L 255.40717 76.475027 
L 254.343727 76.46598 
L 253.280283 76.454415 
L 252.21684 76.438432 
L 251.153396 76.415802 
L 250.089952 76.384136 
L 249.026509 76.341133 
L 247.963065 76.284887 
L 246.899622 76.214211 
L 245.836178 76.128923 
L 244.772735 76.030024 
L 243.709291 75.919703 
L 242.645847 75.801136 
L 241.582404 75.678074 
L 240.51896 75.554274 
L 239.455517 75.432861 
L 238.392073 75.31575 
L 237.32863 75.203239 
L 236.265186 75.093879 
L 235.201743 74.984657 
L 234.138299 74.87148 
L 233.074855 74.749851 
L 232.011412 74.615611 
L 230.947968 74.465584 
L 229.884525 74.297971 
L 228.821081 74.112433 
L 227.757638 73.909847 
L 226.694194 73.69185 
L 225.63075 73.46034 
L 224.567307 73.217107 
L 223.503863 72.963747 
L 222.44042 72.701899 
L 221.376976 72.433705 
L 220.313533 72.162322 
L 219.250089 71.892242 
L 218.186646 71.629232 
L 217.123202 71.379845 
L 216.059758 71.150574 
L 214.996315 70.946877 
L 213.932871 70.772361 
L 212.869428 70.628329 
L 211.805984 70.513823 
L 210.742541 70.426084 
L 209.679097 70.361263 
L 208.615654 70.315125 
L 207.55221 70.283593 
L 206.488766 70.263015 
L 205.425323 70.25022 
L 204.361879 70.242481 
L 203.298436 70.237523 
L 202.234992 70.233663 
L 201.171549 70.230074 
L 200.108105 70.227105 
L 199.044661 70.226526 
L 197.981218 70.231598 
L 196.917774 70.246888 
L 195.854331 70.277844 
L 194.790887 70.330154 
L 193.727444 70.408998 
L 192.664 70.518298 
L 191.600557 70.660087 
L 190.537113 70.834098 
L 189.473669 71.037658 
L 188.410226 71.265915 
L 187.346782 71.512365 
L 186.283339 71.769602 
L 185.219895 72.030161 
L 184.156452 72.287303 
L 183.093008 72.535635 
L 182.029564 72.771484 
L 180.966121 72.992993 
L 179.902677 73.200014 
L 178.839234 73.393821 
L 177.77579 73.576764 
L 176.712347 73.751885 
L 175.648903 73.922551 
L 174.58546 74.092097 
L 173.522016 74.263474 
L 172.458572 74.438895 
L 171.395129 74.619514 
L 170.331685 74.805179 
L 169.268242 74.994317 
L 168.204798 75.184017 
L 167.141355 75.37032 
L 166.077911 75.548698 
L 165.014467 75.714653 
L 163.951024 75.864314 
L 162.88758 75.994933 
L 161.824137 76.105186 
L 160.760693 76.195245 
L 159.69725 76.266618 
L 158.633806 76.321825 
L 157.570363 76.363965 
L 156.506919 76.396284 
L 155.443475 76.421793 
L 154.380032 76.442991 
L 153.316588 76.461718 
z
" style="fill:#1f77b4;fill-opacity:0.3;"/>
   </g>
   <g id="PolyCollection_9">
    <path clip-path="url(#p766f1cc451)" d="M 43.157727 51.034809 
L 43.157727 51.220349 
L 45.22882 51.238583 
L 47.299912 51.261675 
L 49.371004 51.291036 
L 51.442096 51.327885 
L 53.513189 51.373024 
L 55.584281 51.426701 
L 57.655373 51.488618 
L 59.726465 51.558115 
L 61.797558 51.634507 
L 63.86865 51.717494 
L 65.939742 51.807538 
L 68.010834 51.906089 
L 70.081927 52.015576 
L 72.153019 52.139142 
L 74.224111 52.280175 
L 76.295204 52.441738 
L 78.366296 52.626051 
L 80.437388 52.834137 
L 82.50848 53.065704 
L 84.579573 53.319271 
L 86.650665 53.592467 
L 88.721757 53.882374 
L 90.792849 54.185816 
L 92.863942 54.499501 
L 94.935034 54.819997 
L 97.006126 55.143579 
L 99.077218 55.466036 
L 101.148311 55.782528 
L 103.219403 56.087583 
L 105.290495 56.375263 
L 107.361587 56.639497 
L 109.43268 56.87453 
L 111.503772 57.075402 
L 113.574864 57.238387 
L 115.645957 57.361316 
L 117.717049 57.443749 
L 119.788141 57.486982 
L 121.859233 57.493895 
L 123.930326 57.468673 
L 126.001418 57.416418 
L 128.07251 57.342674 
L 130.143602 57.252927 
L 132.214695 57.152124 
L 134.285787 57.044309 
L 136.356879 56.932447 
L 138.427971 56.818477 
L 140.499064 56.703575 
L 142.570156 56.588522 
L 144.641248 56.474046 
L 146.712341 56.361005 
L 148.783433 56.25034 
L 150.854525 56.14283 
L 152.925617 56.038768 
L 154.99671 55.937685 
L 157.067802 55.838257 
L 159.138894 55.73842 
L 161.209986 55.635672 
L 163.281079 55.527454 
L 165.352171 55.411519 
L 167.423263 55.286218 
L 169.494355 55.150665 
L 171.565448 55.004797 
L 173.63654 54.849332 
L 175.707632 54.685643 
L 177.778724 54.515557 
L 179.849817 54.341091 
L 181.920909 54.164172 
L 183.992001 53.98639 
L 186.063094 53.808861 
L 188.134186 53.63222 
L 190.205278 53.456767 
L 192.27637 53.282705 
L 194.347463 53.110402 
L 196.418555 52.940582 
L 198.489647 52.77441 
L 200.560739 52.613424 
L 202.631832 52.459363 
L 204.702924 52.313936 
L 206.774016 52.178596 
L 208.845108 52.054386 
L 210.916201 51.941866 
L 212.987293 51.841153 
L 215.058385 51.752022 
L 217.129478 51.674051 
L 219.20057 51.60675 
L 221.271662 51.549638 
L 223.342754 51.502243 
L 225.413847 51.464033 
L 227.484939 51.434296 
L 229.556031 51.41203 
L 231.627123 51.395877 
L 233.698216 51.384151 
L 235.769308 51.374963 
L 237.8404 51.36642 
L 239.911492 51.35686 
L 241.982585 51.345055 
L 244.053677 51.33035 
L 246.124769 51.31269 
L 248.195861 51.292557 
L 248.195861 50.962601 
L 248.195861 50.962601 
L 246.124769 50.942468 
L 244.053677 50.924808 
L 241.982585 50.910103 
L 239.911492 50.898298 
L 237.8404 50.888738 
L 235.769308 50.880195 
L 233.698216 50.871007 
L 231.627123 50.859281 
L 229.556031 50.843128 
L 227.484939 50.820862 
L 225.413847 50.791125 
L 223.342754 50.752914 
L 221.271662 50.70552 
L 219.20057 50.648408 
L 217.129478 50.581107 
L 215.058385 50.503136 
L 212.987293 50.414005 
L 210.916201 50.313292 
L 208.845108 50.200772 
L 206.774016 50.076562 
L 204.702924 49.941222 
L 202.631832 49.795795 
L 200.560739 49.641734 
L 198.489647 49.480748 
L 196.418555 49.314576 
L 194.347463 49.144756 
L 192.27637 48.972452 
L 190.205278 48.798391 
L 188.134186 48.622938 
L 186.063094 48.446297 
L 183.992001 48.268768 
L 181.920909 48.090986 
L 179.849817 47.914067 
L 177.778724 47.739601 
L 175.707632 47.569515 
L 173.63654 47.405826 
L 171.565448 47.250361 
L 169.494355 47.104493 
L 167.423263 46.96894 
L 165.352171 46.843639 
L 163.281079 46.727704 
L 161.209986 46.619486 
L 159.138894 46.516738 
L 157.067802 46.416901 
L 154.99671 46.317473 
L 152.925617 46.21639 
L 150.854525 46.112328 
L 148.783433 46.004818 
L 146.712341 45.894153 
L 144.641248 45.781112 
L 142.570156 45.666636 
L 140.499064 45.551583 
L 138.427971 45.43668 
L 136.356879 45.322711 
L 134.285787 45.210849 
L 132.214695 45.103034 
L 130.143602 45.002231 
L 128.07251 44.912483 
L 126.001418 44.83874 
L 123.930326 44.786485 
L 121.859233 44.761263 
L 119.788141 44.768176 
L 117.717049 44.811408 
L 115.645957 44.893842 
L 113.574864 45.016771 
L 111.503772 45.179756 
L 109.43268 45.380628 
L 107.361587 45.61566 
L 105.290495 45.879895 
L 103.219403 46.167575 
L 101.148311 46.47263 
L 99.077218 46.789122 
L 97.006126 47.111579 
L 94.935034 47.435161 
L 92.863942 47.755657 
L 90.792849 48.069342 
L 88.721757 48.372784 
L 86.650665 48.662691 
L 84.579573 48.935887 
L 82.50848 49.189454 
L 80.437388 49.421021 
L 78.366296 49.629106 
L 76.295204 49.81342 
L 74.224111 49.974983 
L 72.153019 50.116016 
L 70.081927 50.239582 
L 68.010834 50.349069 
L 65.939742 50.44762 
L 63.86865 50.537664 
L 61.797558 50.620651 
L 59.726465 50.697043 
L 57.655373 50.76654 
L 55.584281 50.828457 
L 53.513189 50.882134 
L 51.442096 50.927273 
L 49.371004 50.964122 
L 47.299912 50.993483 
L 45.22882 51.016575 
L 43.157727 51.034809 
z
" style="fill:#1f77b4;fill-opacity:0.3;"/>
   </g>
   <g id="PolyCollection_10">
    <path clip-path="url(#p766f1cc451)" d="M 147.927215 25.248422 
L 147.927215 26.07621 
L 149.704537 26.138839 
L 151.48186 26.205552 
L 153.259183 26.276871 
L 155.036505 26.353682 
L 156.813828 26.43715 
L 158.59115 26.528563 
L 160.368473 26.629118 
L 162.145796 26.739693 
L 163.923118 26.860642 
L 165.700441 26.991667 
L 167.477764 27.131804 
L 169.255086 27.279521 
L 171.032409 27.432937 
L 172.809732 27.590105 
L 174.587054 27.749311 
L 176.364377 27.909326 
L 178.141699 28.069564 
L 179.919022 28.230102 
L 181.696345 28.391573 
L 183.473667 28.554946 
L 185.25099 28.721258 
L 187.028313 28.891337 
L 188.805635 29.065598 
L 190.582958 29.243927 
L 192.360281 29.425697 
L 194.137603 29.609873 
L 195.914926 29.795202 
L 197.692248 29.98041 
L 199.469571 30.164362 
L 201.246894 30.346147 
L 203.024216 30.525052 
L 204.801539 30.700456 
L 206.578862 30.871655 
L 208.356184 31.037691 
L 210.133507 31.197226 
L 211.91083 31.348508 
L 213.688152 31.489442 
L 215.465475 31.617763 
L 217.242798 31.731254 
L 219.02012 31.827981 
L 220.797443 31.906474 
L 222.574765 31.965837 
L 224.352088 32.005763 
L 226.129411 32.026479 
L 227.906733 32.028632 
L 229.684056 32.013177 
L 231.461379 31.98128 
L 233.238701 31.934253 
L 235.016024 31.873536 
L 236.793347 31.800691 
L 238.570669 31.717406 
L 240.347992 31.625466 
L 242.125314 31.526691 
L 243.902637 31.422822 
L 245.67996 31.315382 
L 247.457282 31.205512 
L 249.234605 31.093826 
L 251.011928 30.980294 
L 252.78925 30.864201 
L 254.566573 30.74418 
L 256.343896 30.618346 
L 258.121218 30.484516 
L 259.898541 30.340511 
L 261.675864 30.184498 
L 263.453186 30.015334 
L 265.230509 29.832854 
L 267.007831 29.638059 
L 268.785154 29.433146 
L 270.562477 29.22138 
L 272.339799 29.006803 
L 274.117122 28.79382 
L 275.894445 28.586735 
L 277.671767 28.389305 
L 279.44909 28.204377 
L 281.226413 28.03368 
L 283.003735 27.877773 
L 284.781058 27.736165 
L 286.55838 27.607545 
L 288.335703 27.490102 
L 290.113026 27.381839 
L 291.890348 27.280863 
L 293.667671 27.185586 
L 295.444994 27.094843 
L 297.222316 27.007906 
L 298.999639 26.924428 
L 300.776962 26.844339 
L 302.554284 26.767704 
L 304.331607 26.694605 
L 306.108929 26.625031 
L 307.886252 26.558816 
L 309.663575 26.495621 
L 311.440897 26.434961 
L 313.21822 26.376268 
L 314.995543 26.318973 
L 316.772865 26.262601 
L 318.550188 26.206853 
L 320.327511 26.151659 
L 322.104833 26.097202 
L 323.882156 26.043904 
L 323.882156 25.280728 
L 323.882156 25.280728 
L 322.104833 25.22743 
L 320.327511 25.172973 
L 318.550188 25.117778 
L 316.772865 25.06203 
L 314.995543 25.005659 
L 313.21822 24.948364 
L 311.440897 24.889671 
L 309.663575 24.829011 
L 307.886252 24.765816 
L 306.108929 24.699601 
L 304.331607 24.630026 
L 302.554284 24.556927 
L 300.776962 24.480293 
L 298.999639 24.400203 
L 297.222316 24.316726 
L 295.444994 24.229789 
L 293.667671 24.139045 
L 291.890348 24.043769 
L 290.113026 23.942792 
L 288.335703 23.83453 
L 286.55838 23.717086 
L 284.781058 23.588467 
L 283.003735 23.446858 
L 281.226413 23.290952 
L 279.44909 23.120255 
L 277.671767 22.935327 
L 275.894445 22.737896 
L 274.117122 22.530812 
L 272.339799 22.317828 
L 270.562477 22.103251 
L 268.785154 21.891486 
L 267.007831 21.686573 
L 265.230509 21.491778 
L 263.453186 21.309298 
L 261.675864 21.140133 
L 259.898541 20.98412 
L 258.121218 20.840116 
L 256.343896 20.706286 
L 254.566573 20.580451 
L 252.78925 20.460431 
L 251.011928 20.344337 
L 249.234605 20.230806 
L 247.457282 20.119119 
L 245.67996 20.00925 
L 243.902637 19.90181 
L 242.125314 19.797941 
L 240.347992 19.699165 
L 238.570669 19.607226 
L 236.793347 19.523941 
L 235.016024 19.451096 
L 233.238701 19.390378 
L 231.461379 19.343351 
L 229.684056 19.311454 
L 227.906733 19.296 
L 226.129411 19.298153 
L 224.352088 19.318868 
L 222.574765 19.358795 
L 220.797443 19.418158 
L 219.02012 19.496651 
L 217.242798 19.593377 
L 215.465475 19.706869 
L 213.688152 19.835189 
L 211.91083 19.976124 
L 210.133507 20.127405 
L 208.356184 20.286941 
L 206.578862 20.452977 
L 204.801539 20.624176 
L 203.024216 20.79958 
L 201.246894 20.978485 
L 199.469571 21.160269 
L 197.692248 21.344222 
L 195.914926 21.529429 
L 194.137603 21.714759 
L 192.360281 21.898935 
L 190.582958 22.080704 
L 188.805635 22.259034 
L 187.028313 22.433295 
L 185.25099 22.603374 
L 183.473667 22.769686 
L 181.696345 22.933059 
L 179.919022 23.09453 
L 178.141699 23.255068 
L 176.364377 23.415306 
L 174.587054 23.575321 
L 172.809732 23.734526 
L 171.032409 23.891694 
L 169.255086 24.045111 
L 167.477764 24.192828 
L 165.700441 24.332964 
L 163.923118 24.46399 
L 162.145796 24.584938 
L 160.368473 24.695513 
L 158.59115 24.796068 
L 156.813828 24.887481 
L 155.036505 24.970949 
L 153.259183 25.04776 
L 151.48186 25.11908 
L 149.704537 25.185792 
L 147.927215 25.248422 
z
" style="fill:#1f77b4;fill-opacity:0.3;"/>
   </g>
   <g id="matplotlib.axis_1">
    <g id="xtick_1">
     <g id="line2d_1">
      <defs>
       <path d="M 0 0 
L 0 3.5 
" id="m51e0614fef" style="stroke:#000000;stroke-width:0.8;"/>
      </defs>
      <g>
       <use style="stroke:#000000;stroke-width:0.8;" x="74.676692" xlink:href="#m51e0614fef" y="273.312"/>
      </g>
     </g>
     <g id="text_1">
      <!-- 60 -->
      <defs>
       <path d="M 10.59375 35.5 
L 73.1875 35.5 
L 73.1875 27.203125 
L 10.59375 27.203125 
z
" id="DejaVuSans-8722"/>
       <path d="M 33.015625 40.375 
Q 26.375 40.375 22.484375 35.828125 
Q 18.609375 31.296875 18.609375 23.390625 
Q 18.609375 15.53125 22.484375 10.953125 
Q 26.375 6.390625 33.015625 6.390625 
Q 39.65625 6.390625 43.53125 10.953125 
Q 47.40625 15.53125 47.40625 23.390625 
Q 47.40625 31.296875 43.53125 35.828125 
Q 39.65625 40.375 33.015625 40.375 
z
M 52.59375 71.296875 
L 52.59375 62.3125 
Q 48.875 64.0625 45.09375 64.984375 
Q 41.3125 65.921875 37.59375 65.921875 
Q 27.828125 65.921875 22.671875 59.328125 
Q 17.53125 52.734375 16.796875 39.40625 
Q 19.671875 43.65625 24.015625 45.921875 
Q 28.375 48.1875 33.59375 48.1875 
Q 44.578125 48.1875 50.953125 41.515625 
Q 57.328125 34.859375 57.328125 23.390625 
Q 57.328125 12.15625 50.6875 5.359375 
Q 44.046875 -1.421875 33.015625 -1.421875 
Q 20.359375 -1.421875 13.671875 8.265625 
Q 6.984375 17.96875 6.984375 36.375 
Q 6.984375 53.65625 15.1875 63.9375 
Q 23.390625 74.21875 37.203125 74.21875 
Q 40.921875 74.21875 44.703125 73.484375 
Q 48.484375 72.75 52.59375 71.296875 
z
" id="DejaVuSans-54"/>
       <path d="M 31.78125 66.40625 
Q 24.171875 66.40625 20.328125 58.90625 
Q 16.5 51.421875 16.5 36.375 
Q 16.5 21.390625 20.328125 13.890625 
Q 24.171875 6.390625 31.78125 6.390625 
Q 39.453125 6.390625 43.28125 13.890625 
Q 47.125 21.390625 47.125 36.375 
Q 47.125 51.421875 43.28125 58.90625 
Q 39.453125 66.40625 31.78125 66.40625 
z
M 31.78125 74.21875 
Q 44.046875 74.21875 50.515625 64.515625 
Q 56.984375 54.828125 56.984375 36.375 
Q 56.984375 17.96875 50.515625 8.265625 
Q 44.046875 -1.421875 31.78125 -1.421875 
Q 19.53125 -1.421875 13.0625 8.265625 
Q 6.59375 17.96875 6.59375 36.375 
Q 6.59375 54.828125 13.0625 64.515625 
Q 19.53125 74.21875 31.78125 74.21875 
z
" id="DejaVuSans-48"/>
      </defs>
      <g transform="translate(64.124348 287.910437)scale(0.1 -0.1)">
       <use xlink:href="#DejaVuSans-8722"/>
       <use x="83.789062" xlink:href="#DejaVuSans-54"/>
       <use x="147.412109" xlink:href="#DejaVuSans-48"/>
      </g>
     </g>
    </g>
    <g id="xtick_2">
     <g id="line2d_2">
      <g>
       <use style="stroke:#000000;stroke-width:0.8;" x="129.232087" xlink:href="#m51e0614fef" y="273.312"/>
      </g>
     </g>
     <g id="text_2">
      <!-- 40 -->
      <defs>
       <path d="M 37.796875 64.3125 
L 12.890625 25.390625 
L 37.796875 25.390625 
z
M 35.203125 72.90625 
L 47.609375 72.90625 
L 47.609375 25.390625 
L 58.015625 25.390625 
L 58.015625 17.1875 
L 47.609375 17.1875 
L 47.609375 0 
L 37.796875 0 
L 37.796875 17.1875 
L 4.890625 17.1875 
L 4.890625 26.703125 
z
" id="DejaVuSans-52"/>
      </defs>
      <g transform="translate(118.679743 287.910437)scale(0.1 -0.1)">
       <use xlink:href="#DejaVuSans-8722"/>
       <use x="83.789062" xlink:href="#DejaVuSans-52"/>
       <use x="147.412109" xlink:href="#DejaVuSans-48"/>
      </g>
     </g>
    </g>
    <g id="xtick_3">
     <g id="line2d_3">
      <g>
       <use style="stroke:#000000;stroke-width:0.8;" x="183.787482" xlink:href="#m51e0614fef" y="273.312"/>
      </g>
     </g>
     <g id="text_3">
      <!-- 20 -->
      <defs>
       <path d="M 19.1875 8.296875 
L 53.609375 8.296875 
L 53.609375 0 
L 7.328125 0 
L 7.328125 8.296875 
Q 12.9375 14.109375 22.625 23.890625 
Q 32.328125 33.6875 34.8125 36.53125 
Q 39.546875 41.84375 41.421875 45.53125 
Q 43.3125 49.21875 43.3125 52.78125 
Q 43.3125 58.59375 39.234375 62.25 
Q 35.15625 65.921875 28.609375 65.921875 
Q 23.96875 65.921875 18.8125 64.3125 
Q 13.671875 62.703125 7.8125 59.421875 
L 7.8125 69.390625 
Q 13.765625 71.78125 18.9375 73 
Q 24.125 74.21875 28.421875 74.21875 
Q 39.75 74.21875 46.484375 68.546875 
Q 53.21875 62.890625 53.21875 53.421875 
Q 53.21875 48.921875 51.53125 44.890625 
Q 49.859375 40.875 45.40625 35.40625 
Q 44.1875 33.984375 37.640625 27.21875 
Q 31.109375 20.453125 19.1875 8.296875 
z
" id="DejaVuSans-50"/>
      </defs>
      <g transform="translate(173.235138 287.910437)scale(0.1 -0.1)">
       <use xlink:href="#DejaVuSans-8722"/>
       <use x="83.789062" xlink:href="#DejaVuSans-50"/>
       <use x="147.412109" xlink:href="#DejaVuSans-48"/>
      </g>
     </g>
    </g>
    <g id="xtick_4">
     <g id="line2d_4">
      <g>
       <use style="stroke:#000000;stroke-width:0.8;" x="238.342877" xlink:href="#m51e0614fef" y="273.312"/>
      </g>
     </g>
     <g id="text_4">
      <!-- 0 -->
      <g transform="translate(235.161627 287.910437)scale(0.1 -0.1)">
       <use xlink:href="#DejaVuSans-48"/>
      </g>
     </g>
    </g>
    <g id="xtick_5">
     <g id="line2d_5">
      <g>
       <use style="stroke:#000000;stroke-width:0.8;" x="292.898272" xlink:href="#m51e0614fef" y="273.312"/>
      </g>
     </g>
     <g id="text_5">
      <!-- 20 -->
      <g transform="translate(286.535772 287.910437)scale(0.1 -0.1)">
       <use xlink:href="#DejaVuSans-50"/>
       <use x="63.623047" xlink:href="#DejaVuSans-48"/>
      </g>
     </g>
    </g>
    <g id="xtick_6">
     <g id="line2d_6">
      <g>
       <use style="stroke:#000000;stroke-width:0.8;" x="347.453667" xlink:href="#m51e0614fef" y="273.312"/>
      </g>
     </g>
     <g id="text_6">
      <!-- 40 -->
      <g transform="translate(341.091167 287.910437)scale(0.1 -0.1)">
       <use xlink:href="#DejaVuSans-52"/>
       <use x="63.623047" xlink:href="#DejaVuSans-48"/>
      </g>
     </g>
    </g>
    <g id="text_7">
     <!-- Velocity [km/s] -->
     <defs>
      <path d="M 28.609375 0 
L 0.78125 72.90625 
L 11.078125 72.90625 
L 34.1875 11.53125 
L 57.328125 72.90625 
L 67.578125 72.90625 
L 39.796875 0 
z
" id="DejaVuSans-86"/>
      <path d="M 56.203125 29.59375 
L 56.203125 25.203125 
L 14.890625 25.203125 
Q 15.484375 15.921875 20.484375 11.0625 
Q 25.484375 6.203125 34.421875 6.203125 
Q 39.59375 6.203125 44.453125 7.46875 
Q 49.3125 8.734375 54.109375 11.28125 
L 54.109375 2.78125 
Q 49.265625 0.734375 44.1875 -0.34375 
Q 39.109375 -1.421875 33.890625 -1.421875 
Q 20.796875 -1.421875 13.15625 6.1875 
Q 5.515625 13.8125 5.515625 26.8125 
Q 5.515625 40.234375 12.765625 48.109375 
Q 20.015625 56 32.328125 56 
Q 43.359375 56 49.78125 48.890625 
Q 56.203125 41.796875 56.203125 29.59375 
z
M 47.21875 32.234375 
Q 47.125 39.59375 43.09375 43.984375 
Q 39.0625 48.390625 32.421875 48.390625 
Q 24.90625 48.390625 20.390625 44.140625 
Q 15.875 39.890625 15.1875 32.171875 
z
" id="DejaVuSans-101"/>
      <path d="M 9.421875 75.984375 
L 18.40625 75.984375 
L 18.40625 0 
L 9.421875 0 
z
" id="DejaVuSans-108"/>
      <path d="M 30.609375 48.390625 
Q 23.390625 48.390625 19.1875 42.75 
Q 14.984375 37.109375 14.984375 27.296875 
Q 14.984375 17.484375 19.15625 11.84375 
Q 23.34375 6.203125 30.609375 6.203125 
Q 37.796875 6.203125 41.984375 11.859375 
Q 46.1875 17.53125 46.1875 27.296875 
Q 46.1875 37.015625 41.984375 42.703125 
Q 37.796875 48.390625 30.609375 48.390625 
z
M 30.609375 56 
Q 42.328125 56 49.015625 48.375 
Q 55.71875 40.765625 55.71875 27.296875 
Q 55.71875 13.875 49.015625 6.21875 
Q 42.328125 -1.421875 30.609375 -1.421875 
Q 18.84375 -1.421875 12.171875 6.21875 
Q 5.515625 13.875 5.515625 27.296875 
Q 5.515625 40.765625 12.171875 48.375 
Q 18.84375 56 30.609375 56 
z
" id="DejaVuSans-111"/>
      <path d="M 48.78125 52.59375 
L 48.78125 44.1875 
Q 44.96875 46.296875 41.140625 47.34375 
Q 37.3125 48.390625 33.40625 48.390625 
Q 24.65625 48.390625 19.8125 42.84375 
Q 14.984375 37.3125 14.984375 27.296875 
Q 14.984375 17.28125 19.8125 11.734375 
Q 24.65625 6.203125 33.40625 6.203125 
Q 37.3125 6.203125 41.140625 7.25 
Q 44.96875 8.296875 48.78125 10.40625 
L 48.78125 2.09375 
Q 45.015625 0.34375 40.984375 -0.53125 
Q 36.96875 -1.421875 32.421875 -1.421875 
Q 20.0625 -1.421875 12.78125 6.34375 
Q 5.515625 14.109375 5.515625 27.296875 
Q 5.515625 40.671875 12.859375 48.328125 
Q 20.21875 56 33.015625 56 
Q 37.15625 56 41.109375 55.140625 
Q 45.0625 54.296875 48.78125 52.59375 
z
" id="DejaVuSans-99"/>
      <path d="M 9.421875 54.6875 
L 18.40625 54.6875 
L 18.40625 0 
L 9.421875 0 
z
M 9.421875 75.984375 
L 18.40625 75.984375 
L 18.40625 64.59375 
L 9.421875 64.59375 
z
" id="DejaVuSans-105"/>
      <path d="M 18.3125 70.21875 
L 18.3125 54.6875 
L 36.8125 54.6875 
L 36.8125 47.703125 
L 18.3125 47.703125 
L 18.3125 18.015625 
Q 18.3125 11.328125 20.140625 9.421875 
Q 21.96875 7.515625 27.59375 7.515625 
L 36.8125 7.515625 
L 36.8125 0 
L 27.59375 0 
Q 17.1875 0 13.234375 3.875 
Q 9.28125 7.765625 9.28125 18.015625 
L 9.28125 47.703125 
L 2.6875 47.703125 
L 2.6875 54.6875 
L 9.28125 54.6875 
L 9.28125 70.21875 
z
" id="DejaVuSans-116"/>
      <path d="M 32.171875 -5.078125 
Q 28.375 -14.84375 24.75 -17.8125 
Q 21.140625 -20.796875 15.09375 -20.796875 
L 7.90625 -20.796875 
L 7.90625 -13.28125 
L 13.1875 -13.28125 
Q 16.890625 -13.28125 18.9375 -11.515625 
Q 21 -9.765625 23.484375 -3.21875 
L 25.09375 0.875 
L 2.984375 54.6875 
L 12.5 54.6875 
L 29.59375 11.921875 
L 46.6875 54.6875 
L 56.203125 54.6875 
z
" id="DejaVuSans-121"/>
      <path id="DejaVuSans-32"/>
      <path d="M 8.59375 75.984375 
L 29.296875 75.984375 
L 29.296875 69 
L 17.578125 69 
L 17.578125 -6.203125 
L 29.296875 -6.203125 
L 29.296875 -13.1875 
L 8.59375 -13.1875 
z
" id="DejaVuSans-91"/>
      <path d="M 9.078125 75.984375 
L 18.109375 75.984375 
L 18.109375 31.109375 
L 44.921875 54.6875 
L 56.390625 54.6875 
L 27.390625 29.109375 
L 57.625 0 
L 45.90625 0 
L 18.109375 26.703125 
L 18.109375 0 
L 9.078125 0 
z
" id="DejaVuSans-107"/>
      <path d="M 52 44.1875 
Q 55.375 50.25 60.0625 53.125 
Q 64.75 56 71.09375 56 
Q 79.640625 56 84.28125 50.015625 
Q 88.921875 44.046875 88.921875 33.015625 
L 88.921875 0 
L 79.890625 0 
L 79.890625 32.71875 
Q 79.890625 40.578125 77.09375 44.375 
Q 74.3125 48.1875 68.609375 48.1875 
Q 61.625 48.1875 57.5625 43.546875 
Q 53.515625 38.921875 53.515625 30.90625 
L 53.515625 0 
L 44.484375 0 
L 44.484375 32.71875 
Q 44.484375 40.625 41.703125 44.40625 
Q 38.921875 48.1875 33.109375 48.1875 
Q 26.21875 48.1875 22.15625 43.53125 
Q 18.109375 38.875 18.109375 30.90625 
L 18.109375 0 
L 9.078125 0 
L 9.078125 54.6875 
L 18.109375 54.6875 
L 18.109375 46.1875 
Q 21.1875 51.21875 25.484375 53.609375 
Q 29.78125 56 35.6875 56 
Q 41.65625 56 45.828125 52.96875 
Q 50 49.953125 52 44.1875 
z
" id="DejaVuSans-109"/>
      <path d="M 25.390625 72.90625 
L 33.6875 72.90625 
L 8.296875 -9.28125 
L 0 -9.28125 
z
" id="DejaVuSans-47"/>
      <path d="M 44.28125 53.078125 
L 44.28125 44.578125 
Q 40.484375 46.53125 36.375 47.5 
Q 32.28125 48.484375 27.875 48.484375 
Q 21.1875 48.484375 17.84375 46.4375 
Q 14.5 44.390625 14.5 40.28125 
Q 14.5 37.15625 16.890625 35.375 
Q 19.28125 33.59375 26.515625 31.984375 
L 29.59375 31.296875 
Q 39.15625 29.25 43.1875 25.515625 
Q 47.21875 21.78125 47.21875 15.09375 
Q 47.21875 7.46875 41.1875 3.015625 
Q 35.15625 -1.421875 24.609375 -1.421875 
Q 20.21875 -1.421875 15.453125 -0.5625 
Q 10.6875 0.296875 5.421875 2 
L 5.421875 11.28125 
Q 10.40625 8.6875 15.234375 7.390625 
Q 20.0625 6.109375 24.8125 6.109375 
Q 31.15625 6.109375 34.5625 8.28125 
Q 37.984375 10.453125 37.984375 14.40625 
Q 37.984375 18.0625 35.515625 20.015625 
Q 33.0625 21.96875 24.703125 23.78125 
L 21.578125 24.515625 
Q 13.234375 26.265625 9.515625 29.90625 
Q 5.8125 33.546875 5.8125 39.890625 
Q 5.8125 47.609375 11.28125 51.796875 
Q 16.75 56 26.8125 56 
Q 31.78125 56 36.171875 55.265625 
Q 40.578125 54.546875 44.28125 53.078125 
z
" id="DejaVuSans-115"/>
      <path d="M 30.421875 75.984375 
L 30.421875 -13.1875 
L 9.71875 -13.1875 
L 9.71875 -6.203125 
L 21.390625 -6.203125 
L 21.390625 69 
L 9.71875 69 
L 9.71875 75.984375 
z
" id="DejaVuSans-93"/>
     </defs>
     <g transform="translate(167.942031 301.588562)scale(0.1 -0.1)">
      <use xlink:href="#DejaVuSans-86"/>
      <use x="68.298828" xlink:href="#DejaVuSans-101"/>
      <use x="129.822266" xlink:href="#DejaVuSans-108"/>
      <use x="157.605469" xlink:href="#DejaVuSans-111"/>
      <use x="218.787109" xlink:href="#DejaVuSans-99"/>
      <use x="273.767578" xlink:href="#DejaVuSans-105"/>
      <use x="301.550781" xlink:href="#DejaVuSans-116"/>
      <use x="340.759766" xlink:href="#DejaVuSans-121"/>
      <use x="399.939453" xlink:href="#DejaVuSans-32"/>
      <use x="431.726562" xlink:href="#DejaVuSans-91"/>
      <use x="470.740234" xlink:href="#DejaVuSans-107"/>
      <use x="528.650391" xlink:href="#DejaVuSans-109"/>
      <use x="626.0625" xlink:href="#DejaVuSans-47"/>
      <use x="659.753906" xlink:href="#DejaVuSans-115"/>
      <use x="711.853516" xlink:href="#DejaVuSans-93"/>
     </g>
    </g>
   </g>
   <g id="matplotlib.axis_2">
    <g id="ytick_1">
     <g id="line2d_7">
      <defs>
       <path d="M 0 0 
L -3.5 0 
" id="mbb3e728333" style="stroke:#000000;stroke-width:0.8;"/>
      </defs>
      <g>
       <use style="stroke:#000000;stroke-width:0.8;" x="26.925" xlink:href="#mbb3e728333" y="229.384421"/>
      </g>
     </g>
     <g id="text_8">
      <!-- 2 -->
      <g transform="translate(13.5625 233.18364)scale(0.1 -0.1)">
       <use xlink:href="#DejaVuSans-50"/>
      </g>
     </g>
    </g>
    <g id="ytick_2">
     <g id="line2d_8">
      <g>
       <use style="stroke:#000000;stroke-width:0.8;" x="26.925" xlink:href="#mbb3e728333" y="178.453895"/>
      </g>
     </g>
     <g id="text_9">
      <!-- 4 -->
      <g transform="translate(13.5625 182.253113)scale(0.1 -0.1)">
       <use xlink:href="#DejaVuSans-52"/>
      </g>
     </g>
    </g>
    <g id="ytick_3">
     <g id="line2d_9">
      <g>
       <use style="stroke:#000000;stroke-width:0.8;" x="26.925" xlink:href="#mbb3e728333" y="127.523368"/>
      </g>
     </g>
     <g id="text_10">
      <!-- 6 -->
      <g transform="translate(13.5625 131.322587)scale(0.1 -0.1)">
       <use xlink:href="#DejaVuSans-54"/>
      </g>
     </g>
    </g>
    <g id="ytick_4">
     <g id="line2d_10">
      <g>
       <use style="stroke:#000000;stroke-width:0.8;" x="26.925" xlink:href="#mbb3e728333" y="76.592842"/>
      </g>
     </g>
     <g id="text_11">
      <!-- 8 -->
      <defs>
       <path d="M 31.78125 34.625 
Q 24.75 34.625 20.71875 30.859375 
Q 16.703125 27.09375 16.703125 20.515625 
Q 16.703125 13.921875 20.71875 10.15625 
Q 24.75 6.390625 31.78125 6.390625 
Q 38.8125 6.390625 42.859375 10.171875 
Q 46.921875 13.96875 46.921875 20.515625 
Q 46.921875 27.09375 42.890625 30.859375 
Q 38.875 34.625 31.78125 34.625 
z
M 21.921875 38.8125 
Q 15.578125 40.375 12.03125 44.71875 
Q 8.5 49.078125 8.5 55.328125 
Q 8.5 64.0625 14.71875 69.140625 
Q 20.953125 74.21875 31.78125 74.21875 
Q 42.671875 74.21875 48.875 69.140625 
Q 55.078125 64.0625 55.078125 55.328125 
Q 55.078125 49.078125 51.53125 44.71875 
Q 48 40.375 41.703125 38.8125 
Q 48.828125 37.15625 52.796875 32.3125 
Q 56.78125 27.484375 56.78125 20.515625 
Q 56.78125 9.90625 50.3125 4.234375 
Q 43.84375 -1.421875 31.78125 -1.421875 
Q 19.734375 -1.421875 13.25 4.234375 
Q 6.78125 9.90625 6.78125 20.515625 
Q 6.78125 27.484375 10.78125 32.3125 
Q 14.796875 37.15625 21.921875 38.8125 
z
M 18.3125 54.390625 
Q 18.3125 48.734375 21.84375 45.5625 
Q 25.390625 42.390625 31.78125 42.390625 
Q 38.140625 42.390625 41.71875 45.5625 
Q 45.3125 48.734375 45.3125 54.390625 
Q 45.3125 60.0625 41.71875 63.234375 
Q 38.140625 66.40625 31.78125 66.40625 
Q 25.390625 66.40625 21.84375 63.234375 
Q 18.3125 60.0625 18.3125 54.390625 
z
" id="DejaVuSans-56"/>
      </defs>
      <g transform="translate(13.5625 80.392061)scale(0.1 -0.1)">
       <use xlink:href="#DejaVuSans-56"/>
      </g>
     </g>
    </g>
    <g id="ytick_5">
     <g id="line2d_11">
      <g>
       <use style="stroke:#000000;stroke-width:0.8;" x="26.925" xlink:href="#mbb3e728333" y="25.662316"/>
      </g>
     </g>
     <g id="text_12">
      <!-- 10 -->
      <defs>
       <path d="M 12.40625 8.296875 
L 28.515625 8.296875 
L 28.515625 63.921875 
L 10.984375 60.40625 
L 10.984375 69.390625 
L 28.421875 72.90625 
L 38.28125 72.90625 
L 38.28125 8.296875 
L 54.390625 8.296875 
L 54.390625 0 
L 12.40625 0 
z
" id="DejaVuSans-49"/>
      </defs>
      <g transform="translate(7.2 29.461535)scale(0.1 -0.1)">
       <use xlink:href="#DejaVuSans-49"/>
       <use x="63.623047" xlink:href="#DejaVuSans-48"/>
      </g>
     </g>
    </g>
   </g>
   <g id="patch_3">
    <path d="M 26.925 273.312 
L 26.925 7.2 
" style="fill:none;stroke:#000000;stroke-linecap:square;stroke-linejoin:miter;stroke-width:0.8;"/>
   </g>
   <g id="patch_4">
    <path d="M 384.045 273.312 
L 384.045 7.2 
" style="fill:none;stroke:#000000;stroke-linecap:square;stroke-linejoin:miter;stroke-width:0.8;"/>
   </g>
   <g id="patch_5">
    <path d="M 26.925 273.312 
L 384.045 273.312 
" style="fill:none;stroke:#000000;stroke-linecap:square;stroke-linejoin:miter;stroke-width:0.8;"/>
   </g>
   <g id="patch_6">
    <path d="M 26.925 7.2 
L 384.045 7.2 
" style="fill:none;stroke:#000000;stroke-linecap:square;stroke-linejoin:miter;stroke-width:0.8;"/>
   </g>
  </g>
 </g>
 <defs>
  <clipPath id="p766f1cc451">
   <rect height="266.112" width="357.12" x="26.925" y="7.2"/>
  </clipPath>
 </defs>
</svg>
