<?xml version="1.0" encoding="utf-8" standalone="no"?>
<!DOCTYPE svg PUBLIC "-//W3C//DTD SVG 1.1//EN"
  "http://www.w3.org/Graphics/SVG/1.1/DTD/svg11.dtd">
<svg height="310.041687pt" version="1.1" viewBox="0 0 395.198125 310.041687" width="395.198125pt" xmlns="http://www.w3.org/2000/svg" xmlns:xlink="http://www.w3.org/1999/xlink">
 <metadata>
  <rdf:RDF xmlns:cc="http://creativecommons.org/ns#" xmlns:dc="http://purl.org/dc/elements/1.1/" xmlns:rdf="http://www.w3.org/1999/02/22-rdf-syntax-ns#">
   <cc:Work>
    <dc:type rdf:resource="http://purl.org/dc/dcmitype/StillImage"/>
    <dc:date>2021-09-16T10:54:29.800720</dc:date>
    <dc:format>image/svg+xml</dc:format>
    <dc:creator>
     <cc:Agent>
      <dc:title>Matplotlib v3.4.2, https://matplotlib.org/</dc:title>
     </cc:Agent>
    </dc:creator>
   </cc:Work>
  </rdf:RDF>
 </metadata>
 <defs>
  <style type="text/css">*{stroke-linecap:butt;stroke-linejoin:round;}</style>
 </defs>
 <g id="figure_1">
  <g id="patch_1">
   <path d="M 0 310.041687 
L 395.198125 310.041687 
L 395.198125 0 
L 0 0 
z
" style="fill:#ffffff;"/>
  </g>
  <g id="axes_1">
   <g id="patch_2">
    <path d="M 29.128125 275.062 
L 386.248125 275.062 
L 386.248125 8.95 
L 29.128125 8.95 
z
" style="fill:#ffffff;"/>
   </g>
   <g id="patch_3">
    <path clip-path="url(#pe8e25e59fb)" d="M 45.360852 275.062 
L 53.477216 275.062 
L 53.477216 21.622 
L 45.360852 21.622 
z
" style="fill:#008fd5;"/>
   </g>
   <g id="patch_4">
    <path clip-path="url(#pe8e25e59fb)" d="M 53.477216 275.062 
L 61.59358 275.062 
L 61.59358 29.460351 
L 53.477216 29.460351 
z
" style="fill:#008fd5;"/>
   </g>
   <g id="patch_5">
    <path clip-path="url(#pe8e25e59fb)" d="M 61.59358 275.062 
L 69.709943 275.062 
L 69.709943 45.137052 
L 61.59358 45.137052 
z
" style="fill:#008fd5;"/>
   </g>
   <g id="patch_6">
    <path clip-path="url(#pe8e25e59fb)" d="M 69.709943 275.062 
L 77.826307 275.062 
L 77.826307 89.554371 
L 69.709943 89.554371 
z
" style="fill:#008fd5;"/>
   </g>
   <g id="patch_7">
    <path clip-path="url(#pe8e25e59fb)" d="M 77.826307 275.062 
L 85.94267 275.062 
L 85.94267 131.358907 
L 77.826307 131.358907 
z
" style="fill:#008fd5;"/>
   </g>
   <g id="patch_8">
    <path clip-path="url(#pe8e25e59fb)" d="M 85.94267 275.062 
L 94.059034 275.062 
L 94.059034 89.554371 
L 85.94267 89.554371 
z
" style="fill:#008fd5;"/>
   </g>
   <g id="patch_9">
    <path clip-path="url(#pe8e25e59fb)" d="M 94.059034 275.062 
L 102.175398 275.062 
L 102.175398 97.392722 
L 94.059034 97.392722 
z
" style="fill:#008fd5;"/>
   </g>
   <g id="patch_10">
    <path clip-path="url(#pe8e25e59fb)" d="M 102.175398 275.062 
L 110.291761 275.062 
L 110.291761 131.358907 
L 102.175398 131.358907 
z
" style="fill:#008fd5;"/>
   </g>
   <g id="patch_11">
    <path clip-path="url(#pe8e25e59fb)" d="M 110.291761 275.062 
L 118.408125 275.062 
L 118.408125 136.584474 
L 110.291761 136.584474 
z
" style="fill:#008fd5;"/>
   </g>
   <g id="patch_12">
    <path clip-path="url(#pe8e25e59fb)" d="M 118.408125 275.062 
L 126.524489 275.062 
L 126.524489 92.167155 
L 118.408125 92.167155 
z
" style="fill:#008fd5;"/>
   </g>
   <g id="patch_13">
    <path clip-path="url(#pe8e25e59fb)" d="M 126.524489 275.062 
L 134.640852 275.062 
L 134.640852 131.358907 
L 126.524489 131.358907 
z
" style="fill:#008fd5;"/>
   </g>
   <g id="patch_14">
    <path clip-path="url(#pe8e25e59fb)" d="M 134.640852 275.062 
L 142.757216 275.062 
L 142.757216 144.422825 
L 134.640852 144.422825 
z
" style="fill:#008fd5;"/>
   </g>
   <g id="patch_15">
    <path clip-path="url(#pe8e25e59fb)" d="M 142.757216 275.062 
L 150.87358 275.062 
L 150.87358 175.776227 
L 142.757216 175.776227 
z
" style="fill:#008fd5;"/>
   </g>
   <g id="patch_16">
    <path clip-path="url(#pe8e25e59fb)" d="M 150.87358 275.062 
L 158.989943 275.062 
L 158.989943 186.227361 
L 150.87358 186.227361 
z
" style="fill:#008fd5;"/>
   </g>
   <g id="patch_17">
    <path clip-path="url(#pe8e25e59fb)" d="M 158.989943 275.062 
L 167.106307 275.062 
L 167.106307 178.38901 
L 158.989943 178.38901 
z
" style="fill:#008fd5;"/>
   </g>
   <g id="patch_18">
    <path clip-path="url(#pe8e25e59fb)" d="M 167.106307 275.062 
L 175.22267 275.062 
L 175.22267 230.64468 
L 167.106307 230.64468 
z
" style="fill:#008fd5;"/>
   </g>
   <g id="patch_19">
    <path clip-path="url(#pe8e25e59fb)" d="M 175.22267 275.062 
L 183.339034 275.062 
L 183.339034 214.967979 
L 175.22267 214.967979 
z
" style="fill:#008fd5;"/>
   </g>
   <g id="patch_20">
    <path clip-path="url(#pe8e25e59fb)" d="M 183.339034 275.062 
L 191.455398 275.062 
L 191.455398 230.64468 
L 183.339034 230.64468 
z
" style="fill:#008fd5;"/>
   </g>
   <g id="patch_21">
    <path clip-path="url(#pe8e25e59fb)" d="M 191.455398 275.062 
L 199.571761 275.062 
L 199.571761 225.419113 
L 191.455398 225.419113 
z
" style="fill:#008fd5;"/>
   </g>
   <g id="patch_22">
    <path clip-path="url(#pe8e25e59fb)" d="M 199.571761 275.062 
L 207.688125 275.062 
L 207.688125 220.193546 
L 199.571761 220.193546 
z
" style="fill:#008fd5;"/>
   </g>
   <g id="patch_23">
    <path clip-path="url(#pe8e25e59fb)" d="M 207.688125 275.062 
L 215.804489 275.062 
L 215.804489 251.546948 
L 207.688125 251.546948 
z
" style="fill:#008fd5;"/>
   </g>
   <g id="patch_24">
    <path clip-path="url(#pe8e25e59fb)" d="M 215.804489 275.062 
L 223.920852 275.062 
L 223.920852 241.095814 
L 215.804489 241.095814 
z
" style="fill:#008fd5;"/>
   </g>
   <g id="patch_25">
    <path clip-path="url(#pe8e25e59fb)" d="M 223.920852 275.062 
L 232.037216 275.062 
L 232.037216 251.546948 
L 223.920852 251.546948 
z
" style="fill:#008fd5;"/>
   </g>
   <g id="patch_26">
    <path clip-path="url(#pe8e25e59fb)" d="M 232.037216 275.062 
L 240.15358 275.062 
L 240.15358 246.321381 
L 232.037216 246.321381 
z
" style="fill:#008fd5;"/>
   </g>
   <g id="patch_27">
    <path clip-path="url(#pe8e25e59fb)" d="M 240.15358 275.062 
L 248.269943 275.062 
L 248.269943 261.998082 
L 240.15358 261.998082 
z
" style="fill:#008fd5;"/>
   </g>
   <g id="patch_28">
    <path clip-path="url(#pe8e25e59fb)" d="M 248.269943 275.062 
L 256.386307 275.062 
L 256.386307 251.546948 
L 248.269943 251.546948 
z
" style="fill:#008fd5;"/>
   </g>
   <g id="patch_29">
    <path clip-path="url(#pe8e25e59fb)" d="M 256.386307 275.062 
L 264.50267 275.062 
L 264.50267 267.223649 
L 256.386307 267.223649 
z
" style="fill:#008fd5;"/>
   </g>
   <g id="patch_30">
    <path clip-path="url(#pe8e25e59fb)" d="M 264.50267 275.062 
L 272.619034 275.062 
L 272.619034 261.998082 
L 264.50267 261.998082 
z
" style="fill:#008fd5;"/>
   </g>
   <g id="patch_31">
    <path clip-path="url(#pe8e25e59fb)" d="M 272.619034 275.062 
L 280.735398 275.062 
L 280.735398 261.998082 
L 272.619034 261.998082 
z
" style="fill:#008fd5;"/>
   </g>
   <g id="patch_32">
    <path clip-path="url(#pe8e25e59fb)" d="M 280.735398 275.062 
L 288.851761 275.062 
L 288.851761 275.062 
L 280.735398 275.062 
z
" style="fill:#008fd5;"/>
   </g>
   <g id="patch_33">
    <path clip-path="url(#pe8e25e59fb)" d="M 288.851761 275.062 
L 296.968125 275.062 
L 296.968125 272.449216 
L 288.851761 272.449216 
z
" style="fill:#008fd5;"/>
   </g>
   <g id="patch_34">
    <path clip-path="url(#pe8e25e59fb)" d="M 296.968125 275.062 
L 305.084489 275.062 
L 305.084489 259.385299 
L 296.968125 259.385299 
z
" style="fill:#008fd5;"/>
   </g>
   <g id="patch_35">
    <path clip-path="url(#pe8e25e59fb)" d="M 305.084489 275.062 
L 313.200852 275.062 
L 313.200852 272.449216 
L 305.084489 272.449216 
z
" style="fill:#008fd5;"/>
   </g>
   <g id="patch_36">
    <path clip-path="url(#pe8e25e59fb)" d="M 313.200852 275.062 
L 321.317216 275.062 
L 321.317216 272.449216 
L 313.200852 272.449216 
z
" style="fill:#008fd5;"/>
   </g>
   <g id="patch_37">
    <path clip-path="url(#pe8e25e59fb)" d="M 321.317216 275.062 
L 329.43358 275.062 
L 329.43358 275.062 
L 321.317216 275.062 
z
" style="fill:#008fd5;"/>
   </g>
   <g id="patch_38">
    <path clip-path="url(#pe8e25e59fb)" d="M 329.43358 275.062 
L 337.549943 275.062 
L 337.549943 264.610866 
L 329.43358 264.610866 
z
" style="fill:#008fd5;"/>
   </g>
   <g id="patch_39">
    <path clip-path="url(#pe8e25e59fb)" d="M 337.549943 275.062 
L 345.666307 275.062 
L 345.666307 275.062 
L 337.549943 275.062 
z
" style="fill:#008fd5;"/>
   </g>
   <g id="patch_40">
    <path clip-path="url(#pe8e25e59fb)" d="M 345.666307 275.062 
L 353.78267 275.062 
L 353.78267 275.062 
L 345.666307 275.062 
z
" style="fill:#008fd5;"/>
   </g>
   <g id="patch_41">
    <path clip-path="url(#pe8e25e59fb)" d="M 353.78267 275.062 
L 361.899034 275.062 
L 361.899034 275.062 
L 353.78267 275.062 
z
" style="fill:#008fd5;"/>
   </g>
   <g id="patch_42">
    <path clip-path="url(#pe8e25e59fb)" d="M 361.899034 275.062 
L 370.015398 275.062 
L 370.015398 272.449216 
L 361.899034 272.449216 
z
" style="fill:#008fd5;"/>
   </g>
   <g id="matplotlib.axis_1">
    <g id="xtick_1">
     <g id="line2d_1">
      <defs>
       <path d="M 0 1.75 
L 0 -1.75 
" id="m334d9942d8" style="stroke:#000000;stroke-width:0.8;"/>
      </defs>
      <g>
       <use style="stroke:#000000;stroke-width:0.8;" x="45.049262" xlink:href="#m334d9942d8" y="275.062"/>
      </g>
     </g>
     <g id="line2d_2">
      <g>
       <use style="stroke:#000000;stroke-width:0.8;" x="45.049262" xlink:href="#m334d9942d8" y="8.95"/>
      </g>
     </g>
     <g id="text_1">
      <!-- 0.0 -->
      <g transform="translate(38.100043 287.452625)scale(0.1 -0.1)">
       <defs>
        <path d="M 269 2227 
C 269 1229 358 -77 1779 -77 
C 3200 -77 3290 1229 3290 2227 
C 3290 3232 3200 4538 1779 4538 
C 358 4538 269 3232 269 2227 
z
M 845 2234 
C 845 2906 851 4058 1779 4058 
C 2707 4058 2714 2906 2714 2234 
C 2714 1555 2707 403 1779 403 
C 851 403 845 1555 845 2234 
z
" id="HelveticaNeue-Roman-30" transform="scale(0.015625)"/>
        <path d="M 531 0 
L 1242 0 
L 1242 710 
L 531 710 
L 531 0 
z
" id="HelveticaNeue-Roman-2e" transform="scale(0.015625)"/>
       </defs>
       <use xlink:href="#HelveticaNeue-Roman-30"/>
       <use x="55.599991" xlink:href="#HelveticaNeue-Roman-2e"/>
       <use x="83.399979" xlink:href="#HelveticaNeue-Roman-30"/>
      </g>
     </g>
    </g>
    <g id="xtick_2">
     <g id="line2d_3">
      <g>
       <use style="stroke:#000000;stroke-width:0.8;" x="106.578747" xlink:href="#m334d9942d8" y="275.062"/>
      </g>
     </g>
     <g id="line2d_4">
      <g>
       <use style="stroke:#000000;stroke-width:0.8;" x="106.578747" xlink:href="#m334d9942d8" y="8.95"/>
      </g>
     </g>
     <g id="text_2">
      <!-- 0.5 -->
      <g transform="translate(99.629528 287.452625)scale(0.1 -0.1)">
       <defs>
        <path d="M 3008 4461 
L 768 4461 
L 346 2106 
L 813 2080 
C 1024 2336 1312 2509 1658 2509 
C 2266 2509 2682 2080 2682 1478 
C 2682 755 2240 403 1722 403 
C 1178 403 800 755 768 1222 
L 224 1222 
C 243 403 883 -77 1670 -77 
C 2726 -77 3258 666 3258 1434 
C 3258 2470 2598 2989 1792 2989 
C 1485 2989 1146 2886 947 2662 
L 934 2675 
L 1178 3981 
L 3008 3981 
L 3008 4461 
z
" id="HelveticaNeue-Roman-35" transform="scale(0.015625)"/>
       </defs>
       <use xlink:href="#HelveticaNeue-Roman-30"/>
       <use x="55.599991" xlink:href="#HelveticaNeue-Roman-2e"/>
       <use x="83.399979" xlink:href="#HelveticaNeue-Roman-35"/>
      </g>
     </g>
    </g>
    <g id="xtick_3">
     <g id="line2d_5">
      <g>
       <use style="stroke:#000000;stroke-width:0.8;" x="168.108232" xlink:href="#m334d9942d8" y="275.062"/>
      </g>
     </g>
     <g id="line2d_6">
      <g>
       <use style="stroke:#000000;stroke-width:0.8;" x="168.108232" xlink:href="#m334d9942d8" y="8.95"/>
      </g>
     </g>
     <g id="text_3">
      <!-- 1.0 -->
      <g transform="translate(161.159014 287.452625)scale(0.1 -0.1)">
       <defs>
        <path d="M 2278 4538 
L 1862 4538 
C 1741 3853 1178 3686 557 3686 
L 557 3251 
L 1734 3251 
L 1734 0 
L 2278 0 
L 2278 4538 
z
" id="HelveticaNeue-Roman-31" transform="scale(0.015625)"/>
       </defs>
       <use xlink:href="#HelveticaNeue-Roman-31"/>
       <use x="55.599991" xlink:href="#HelveticaNeue-Roman-2e"/>
       <use x="83.399979" xlink:href="#HelveticaNeue-Roman-30"/>
      </g>
     </g>
    </g>
    <g id="xtick_4">
     <g id="line2d_7">
      <g>
       <use style="stroke:#000000;stroke-width:0.8;" x="229.637718" xlink:href="#m334d9942d8" y="275.062"/>
      </g>
     </g>
     <g id="line2d_8">
      <g>
       <use style="stroke:#000000;stroke-width:0.8;" x="229.637718" xlink:href="#m334d9942d8" y="8.95"/>
      </g>
     </g>
     <g id="text_4">
      <!-- 1.5 -->
      <g transform="translate(222.688499 287.452625)scale(0.1 -0.1)">
       <use xlink:href="#HelveticaNeue-Roman-31"/>
       <use x="55.599991" xlink:href="#HelveticaNeue-Roman-2e"/>
       <use x="83.399979" xlink:href="#HelveticaNeue-Roman-35"/>
      </g>
     </g>
    </g>
    <g id="xtick_5">
     <g id="line2d_9">
      <g>
       <use style="stroke:#000000;stroke-width:0.8;" x="291.167203" xlink:href="#m334d9942d8" y="275.062"/>
      </g>
     </g>
     <g id="line2d_10">
      <g>
       <use style="stroke:#000000;stroke-width:0.8;" x="291.167203" xlink:href="#m334d9942d8" y="8.95"/>
      </g>
     </g>
     <g id="text_5">
      <!-- 2.0 -->
      <g transform="translate(284.217985 287.452625)scale(0.1 -0.1)">
       <defs>
        <path d="M 826 2931 
C 806 3475 1075 4058 1709 4058 
C 2189 4058 2586 3731 2586 3238 
C 2586 2611 2195 2330 1427 1856 
C 787 1459 243 1075 154 0 
L 3117 0 
L 3117 480 
L 787 480 
C 896 1043 1491 1331 2061 1677 
C 2624 2029 3162 2432 3162 3232 
C 3162 4077 2534 4538 1741 4538 
C 781 4538 237 3853 282 2931 
L 826 2931 
z
" id="HelveticaNeue-Roman-32" transform="scale(0.015625)"/>
       </defs>
       <use xlink:href="#HelveticaNeue-Roman-32"/>
       <use x="55.599991" xlink:href="#HelveticaNeue-Roman-2e"/>
       <use x="83.399979" xlink:href="#HelveticaNeue-Roman-30"/>
      </g>
     </g>
    </g>
    <g id="xtick_6">
     <g id="line2d_11">
      <g>
       <use style="stroke:#000000;stroke-width:0.8;" x="352.696689" xlink:href="#m334d9942d8" y="275.062"/>
      </g>
     </g>
     <g id="line2d_12">
      <g>
       <use style="stroke:#000000;stroke-width:0.8;" x="352.696689" xlink:href="#m334d9942d8" y="8.95"/>
      </g>
     </g>
     <g id="text_6">
      <!-- 2.5 -->
      <g transform="translate(345.74747 287.452625)scale(0.1 -0.1)">
       <use xlink:href="#HelveticaNeue-Roman-32"/>
       <use x="55.599991" xlink:href="#HelveticaNeue-Roman-2e"/>
       <use x="83.399979" xlink:href="#HelveticaNeue-Roman-35"/>
      </g>
     </g>
    </g>
    <g id="text_7">
     <!-- ln(weights) -->
     <g transform="translate(183.8975 300.741687)scale(0.1 -0.1)">
      <defs>
       <path d="M 442 0 
L 986 0 
L 986 4570 
L 442 4570 
L 442 0 
z
" id="HelveticaNeue-Roman-6c" transform="scale(0.015625)"/>
       <path d="M 410 0 
L 954 0 
L 954 1869 
C 954 2464 1274 2906 1933 2906 
C 2349 2906 2605 2643 2605 2240 
L 2605 0 
L 3149 0 
L 3149 2176 
C 3149 2886 2880 3386 2010 3386 
C 1536 3386 1165 3194 934 2784 
L 922 2784 
L 922 3309 
L 410 3309 
L 410 0 
z
" id="HelveticaNeue-Roman-6e" transform="scale(0.015625)"/>
       <path d="M 1722 -1267 
C 1114 -288 877 653 877 1728 
C 877 2765 1114 3718 1722 4678 
L 1306 4678 
C 653 3808 301 2726 301 1728 
C 301 608 691 -307 1306 -1267 
L 1722 -1267 
z
" id="HelveticaNeue-Roman-28" transform="scale(0.015625)"/>
       <path d="M 4742 3309 
L 4179 3309 
L 3437 602 
L 3424 602 
L 2733 3309 
L 2138 3309 
L 1472 602 
L 1459 602 
L 710 3309 
L 109 3309 
L 1171 0 
L 1760 0 
L 2426 2630 
L 2438 2630 
L 3110 0 
L 3686 0 
L 4742 3309 
z
" id="HelveticaNeue-Roman-77" transform="scale(0.015625)"/>
       <path d="M 2694 1050 
C 2598 621 2285 403 1837 403 
C 1114 403 787 915 806 1491 
L 3283 1491 
C 3315 2291 2957 3386 1786 3386 
C 883 3386 230 2656 230 1664 
C 262 653 762 -77 1818 -77 
C 2560 -77 3085 320 3232 1050 
L 2694 1050 
z
M 806 1971 
C 845 2477 1184 2906 1754 2906 
C 2291 2906 2682 2490 2707 1971 
L 806 1971 
z
" id="HelveticaNeue-Roman-65" transform="scale(0.015625)"/>
       <path d="M 442 0 
L 986 0 
L 986 3309 
L 442 3309 
L 442 0 
z
M 986 4570 
L 442 4570 
L 442 3904 
L 986 3904 
L 986 4570 
z
" id="HelveticaNeue-Roman-69" transform="scale(0.015625)"/>
       <path d="M 1741 442 
C 1024 442 806 1107 806 1702 
C 806 2336 1088 2906 1786 2906 
C 2470 2906 2726 2304 2726 1722 
C 2726 1101 2458 442 1741 442 
z
M 3264 3309 
L 2752 3309 
L 2752 2835 
L 2746 2835 
C 2547 3200 2176 3386 1760 3386 
C 614 3386 230 2419 230 1638 
C 230 736 723 -38 1709 -38 
C 2125 -38 2560 160 2739 563 
L 2752 563 
L 2752 346 
C 2752 -397 2470 -909 1760 -909 
C 1402 -909 928 -768 902 -371 
L 358 -371 
C 390 -1094 1107 -1344 1728 -1344 
C 2771 -1344 3264 -794 3264 282 
L 3264 3309 
z
" id="HelveticaNeue-Roman-67" transform="scale(0.015625)"/>
       <path d="M 410 0 
L 954 0 
L 954 1869 
C 954 2464 1274 2906 1933 2906 
C 2349 2906 2605 2643 2605 2240 
L 2605 0 
L 3149 0 
L 3149 2176 
C 3149 2886 2880 3386 2010 3386 
C 1613 3386 1146 3219 966 2822 
L 954 2822 
L 954 4570 
L 410 4570 
L 410 0 
z
" id="HelveticaNeue-Roman-68" transform="scale(0.015625)"/>
       <path d="M 1165 4301 
L 621 4301 
L 621 3309 
L 58 3309 
L 58 2829 
L 621 2829 
L 621 723 
C 621 115 845 0 1408 0 
L 1824 0 
L 1824 480 
L 1574 480 
C 1235 480 1165 525 1165 774 
L 1165 2829 
L 1824 2829 
L 1824 3309 
L 1165 3309 
L 1165 4301 
z
" id="HelveticaNeue-Roman-74" transform="scale(0.015625)"/>
       <path d="M 198 1043 
C 230 224 858 -77 1600 -77 
C 2272 -77 3008 179 3008 966 
C 3008 1606 2470 1786 1926 1907 
C 1421 2029 845 2093 845 2483 
C 845 2816 1222 2906 1549 2906 
C 1907 2906 2278 2771 2317 2349 
L 2861 2349 
C 2816 3155 2234 3386 1504 3386 
C 928 3386 269 3110 269 2445 
C 269 1811 813 1632 1350 1510 
C 1894 1389 2432 1318 2432 896 
C 2432 480 1971 403 1632 403 
C 1184 403 762 557 742 1043 
L 198 1043 
z
" id="HelveticaNeue-Roman-73" transform="scale(0.015625)"/>
       <path d="M 352 -1267 
C 1005 -397 1357 685 1357 1683 
C 1357 2803 966 3718 352 4678 
L -64 4678 
C 544 3699 781 2758 781 1683 
C 781 646 544 -307 -64 -1267 
L 352 -1267 
z
" id="HelveticaNeue-Roman-29" transform="scale(0.015625)"/>
      </defs>
      <use xlink:href="#HelveticaNeue-Roman-6c"/>
      <use x="22.199997" xlink:href="#HelveticaNeue-Roman-6e"/>
      <use x="77.799988" xlink:href="#HelveticaNeue-Roman-28"/>
      <use x="103.699982" xlink:href="#HelveticaNeue-Roman-77"/>
      <use x="179.499969" xlink:href="#HelveticaNeue-Roman-65"/>
      <use x="233.199966" xlink:href="#HelveticaNeue-Roman-69"/>
      <use x="255.399963" xlink:href="#HelveticaNeue-Roman-67"/>
      <use x="312.799957" xlink:href="#HelveticaNeue-Roman-68"/>
      <use x="368.399948" xlink:href="#HelveticaNeue-Roman-74"/>
      <use x="399.899933" xlink:href="#HelveticaNeue-Roman-73"/>
      <use x="449.899918" xlink:href="#HelveticaNeue-Roman-29"/>
     </g>
    </g>
   </g>
   <g id="matplotlib.axis_2">
    <g id="ytick_1">
     <g id="line2d_13">
      <defs>
       <path d="M 1.75 0 
L -1.75 -0 
" id="me6cce73dac" style="stroke:#000000;stroke-width:0.8;"/>
      </defs>
      <g>
       <use style="stroke:#000000;stroke-width:0.8;" x="29.128125" xlink:href="#me6cce73dac" y="275.062"/>
      </g>
     </g>
     <g id="line2d_14">
      <g>
       <use style="stroke:#000000;stroke-width:0.8;" x="386.248125" xlink:href="#me6cce73dac" y="275.062"/>
      </g>
     </g>
     <g id="text_8">
      <!-- 0 -->
      <g transform="translate(18.31875 278.632312)scale(0.1 -0.1)">
       <use xlink:href="#HelveticaNeue-Roman-30"/>
      </g>
     </g>
    </g>
    <g id="ytick_2">
     <g id="line2d_15">
      <g>
       <use style="stroke:#000000;stroke-width:0.8;" x="29.128125" xlink:href="#me6cce73dac" y="222.80633"/>
      </g>
     </g>
     <g id="line2d_16">
      <g>
       <use style="stroke:#000000;stroke-width:0.8;" x="386.248125" xlink:href="#me6cce73dac" y="222.80633"/>
      </g>
     </g>
     <g id="text_9">
      <!-- 20 -->
      <g transform="translate(12.759375 226.376642)scale(0.1 -0.1)">
       <use xlink:href="#HelveticaNeue-Roman-32"/>
       <use x="55.599991" xlink:href="#HelveticaNeue-Roman-30"/>
      </g>
     </g>
    </g>
    <g id="ytick_3">
     <g id="line2d_17">
      <g>
       <use style="stroke:#000000;stroke-width:0.8;" x="29.128125" xlink:href="#me6cce73dac" y="170.55066"/>
      </g>
     </g>
     <g id="line2d_18">
      <g>
       <use style="stroke:#000000;stroke-width:0.8;" x="386.248125" xlink:href="#me6cce73dac" y="170.55066"/>
      </g>
     </g>
     <g id="text_10">
      <!-- 40 -->
      <g transform="translate(12.759375 174.120972)scale(0.1 -0.1)">
       <defs>
        <path d="M 2682 4538 
L 2246 4538 
L 179 1587 
L 179 1062 
L 2170 1062 
L 2170 0 
L 2682 0 
L 2682 1062 
L 3296 1062 
L 3296 1542 
L 2682 1542 
L 2682 4538 
z
M 646 1542 
L 2157 3763 
L 2170 3763 
L 2170 1542 
L 646 1542 
z
" id="HelveticaNeue-Roman-34" transform="scale(0.015625)"/>
       </defs>
       <use xlink:href="#HelveticaNeue-Roman-34"/>
       <use x="55.599991" xlink:href="#HelveticaNeue-Roman-30"/>
      </g>
     </g>
    </g>
    <g id="ytick_4">
     <g id="line2d_19">
      <g>
       <use style="stroke:#000000;stroke-width:0.8;" x="29.128125" xlink:href="#me6cce73dac" y="118.29499"/>
      </g>
     </g>
     <g id="line2d_20">
      <g>
       <use style="stroke:#000000;stroke-width:0.8;" x="386.248125" xlink:href="#me6cce73dac" y="118.29499"/>
      </g>
     </g>
     <g id="text_11">
      <!-- 60 -->
      <g transform="translate(12.759375 121.865302)scale(0.1 -0.1)">
       <defs>
        <path d="M 1830 2438 
C 2451 2438 2746 1971 2746 1408 
C 2746 870 2419 403 1830 403 
C 1235 403 890 851 890 1414 
C 890 1984 1222 2438 1830 2438 
z
M 3194 3379 
C 3130 4115 2662 4538 1914 4538 
C 621 4538 243 3354 243 2106 
C 243 1152 461 -77 1805 -77 
C 2950 -77 3322 787 3322 1446 
C 3322 2285 2803 2918 1933 2918 
C 1440 2918 1056 2739 800 2323 
L 787 2336 
C 813 3034 960 4058 1888 4058 
C 2317 4058 2598 3789 2650 3379 
L 3194 3379 
z
" id="HelveticaNeue-Roman-36" transform="scale(0.015625)"/>
       </defs>
       <use xlink:href="#HelveticaNeue-Roman-36"/>
       <use x="55.599991" xlink:href="#HelveticaNeue-Roman-30"/>
      </g>
     </g>
    </g>
    <g id="ytick_5">
     <g id="line2d_21">
      <g>
       <use style="stroke:#000000;stroke-width:0.8;" x="29.128125" xlink:href="#me6cce73dac" y="66.03932"/>
      </g>
     </g>
     <g id="line2d_22">
      <g>
       <use style="stroke:#000000;stroke-width:0.8;" x="386.248125" xlink:href="#me6cce73dac" y="66.03932"/>
      </g>
     </g>
     <g id="text_12">
      <!-- 80 -->
      <g transform="translate(12.759375 69.609632)scale(0.1 -0.1)">
       <defs>
        <path d="M 832 1280 
C 832 1805 1254 2150 1792 2150 
C 2304 2150 2726 1779 2726 1286 
C 2726 781 2342 403 1798 403 
C 1235 403 832 736 832 1280 
z
M 416 3379 
C 416 2970 672 2592 1050 2438 
C 544 2259 256 1843 256 1306 
C 256 378 928 -77 1798 -77 
C 2637 -77 3302 429 3302 1306 
C 3302 1869 3040 2266 2496 2438 
C 2867 2605 3123 2976 3123 3379 
C 3123 3955 2739 4538 1747 4538 
C 1050 4538 416 4128 416 3379 
z
M 992 3360 
C 992 3814 1350 4058 1786 4058 
C 2227 4058 2547 3814 2547 3360 
C 2547 2899 2227 2630 1798 2630 
C 1350 2630 992 2861 992 3360 
z
" id="HelveticaNeue-Roman-38" transform="scale(0.015625)"/>
       </defs>
       <use xlink:href="#HelveticaNeue-Roman-38"/>
       <use x="55.599991" xlink:href="#HelveticaNeue-Roman-30"/>
      </g>
     </g>
    </g>
    <g id="ytick_6">
     <g id="line2d_23">
      <g>
       <use style="stroke:#000000;stroke-width:0.8;" x="29.128125" xlink:href="#me6cce73dac" y="13.783649"/>
      </g>
     </g>
     <g id="line2d_24">
      <g>
       <use style="stroke:#000000;stroke-width:0.8;" x="386.248125" xlink:href="#me6cce73dac" y="13.783649"/>
      </g>
     </g>
     <g id="text_13">
      <!-- 100 -->
      <g transform="translate(7.2 17.353962)scale(0.1 -0.1)">
       <use xlink:href="#HelveticaNeue-Roman-31"/>
       <use x="55.599991" xlink:href="#HelveticaNeue-Roman-30"/>
       <use x="111.199982" xlink:href="#HelveticaNeue-Roman-30"/>
      </g>
     </g>
    </g>
   </g>
   <g id="patch_43">
    <path d="M 29.128125 275.062 
L 29.128125 8.95 
" style="fill:none;stroke:#000000;stroke-linecap:square;stroke-linejoin:miter;stroke-width:0.8;"/>
   </g>
   <g id="patch_44">
    <path d="M 386.248125 275.062 
L 386.248125 8.95 
" style="fill:none;stroke:#000000;stroke-linecap:square;stroke-linejoin:miter;stroke-width:0.8;"/>
   </g>
   <g id="patch_45">
    <path d="M 29.128125 275.062 
L 386.248125 275.062 
" style="fill:none;stroke:#000000;stroke-linecap:square;stroke-linejoin:miter;stroke-width:0.8;"/>
   </g>
   <g id="patch_46">
    <path d="M 29.128125 8.95 
L 386.248125 8.95 
" style="fill:none;stroke:#000000;stroke-linecap:square;stroke-linejoin:miter;stroke-width:0.8;"/>
   </g>
  </g>
 </g>
 <defs>
  <clipPath id="pe8e25e59fb">
   <rect height="266.112" width="357.12" x="29.128125" y="8.95"/>
  </clipPath>
 </defs>
</svg>
