<?xml version="1.0" encoding="utf-8" standalone="no"?>
<!DOCTYPE svg PUBLIC "-//W3C//DTD SVG 1.1//EN"
  "http://www.w3.org/Graphics/SVG/1.1/DTD/svg11.dtd">
<svg xmlns:xlink="http://www.w3.org/1999/xlink" width="421.929375pt" height="310.062pt" viewBox="0 0 421.929375 310.062" xmlns="http://www.w3.org/2000/svg" version="1.1">
 <metadata>
  <rdf:RDF xmlns:dc="http://purl.org/dc/elements/1.1/" xmlns:cc="http://creativecommons.org/ns#" xmlns:rdf="http://www.w3.org/1999/02/22-rdf-syntax-ns#">
   <cc:Work>
    <dc:type rdf:resource="http://purl.org/dc/dcmitype/StillImage"/>
    <dc:date>2024-03-23T12:12:52.382466</dc:date>
    <dc:format>image/svg+xml</dc:format>
    <dc:creator>
     <cc:Agent>
      <dc:title>Matplotlib v3.8.0, https://matplotlib.org/</dc:title>
     </cc:Agent>
    </dc:creator>
   </cc:Work>
  </rdf:RDF>
 </metadata>
 <defs>
  <style type="text/css">*{stroke-linejoin: round; stroke-linecap: butt}</style>
 </defs>
 <g id="figure_1">
  <g id="patch_1">
   <path d="M 0 310.062 
L 421.929375 310.062 
L 421.929375 0 
L 0 0 
z
" style="fill: #ffffff"/>
  </g>
  <g id="axes_1">
   <g id="patch_2">
    <path d="M 55.859375 275.062 
L 412.979375 275.062 
L 412.979375 8.95 
L 55.859375 8.95 
z
" style="fill: #ffffff"/>
   </g>
   <g id="PolyCollection_1">
    <defs>
     <path id="mf1832e6c61" d="M 76.664702 -94.93183 
L 76.664702 -60.572665 
L 77.466912 -61.082154 
L 78.269122 -61.591644 
L 79.071333 -62.101134 
L 79.873543 -62.610625 
L 80.675753 -63.120117 
L 81.477964 -63.629608 
L 82.280174 -64.139101 
L 83.082385 -64.648594 
L 83.884595 -65.158087 
L 84.686805 -65.667581 
L 85.489016 -66.177075 
L 86.291226 -66.68657 
L 87.093437 -67.196065 
L 87.895647 -67.705561 
L 88.697857 -68.215058 
L 89.500068 -68.724555 
L 90.302278 -69.234052 
L 91.104489 -69.74355 
L 91.906699 -70.253049 
L 92.708909 -70.762548 
L 93.51112 -71.272047 
L 94.31333 -71.781547 
L 95.115541 -72.291048 
L 95.917751 -72.800549 
L 96.719961 -73.31005 
L 97.522172 -73.819552 
L 98.324382 -74.329055 
L 99.126592 -74.838558 
L 99.928803 -75.348061 
L 100.731013 -75.857565 
L 101.533224 -76.36707 
L 102.335434 -76.876575 
L 103.137644 -77.386081 
L 103.939855 -77.895587 
L 104.742065 -78.405094 
L 105.544276 -78.914601 
L 106.346486 -79.424108 
L 107.148696 -79.933617 
L 107.950907 -80.443125 
L 108.753117 -80.952634 
L 109.555328 -81.462144 
L 110.357538 -81.971654 
L 111.159748 -82.481165 
L 111.961959 -82.990676 
L 112.764169 -83.500188 
L 113.56638 -84.0097 
L 114.36859 -84.519213 
L 115.1708 -85.028726 
L 115.973011 -85.53824 
L 116.775221 -86.047755 
L 117.577431 -86.557269 
L 118.379642 -87.066785 
L 119.181852 -87.576301 
L 119.984063 -88.085817 
L 120.786273 -88.595334 
L 121.588483 -89.104851 
L 122.390694 -89.614369 
L 123.192904 -90.123887 
L 123.995115 -90.633406 
L 124.797325 -91.142926 
L 125.599535 -91.652445 
L 126.401746 -92.161966 
L 127.203956 -92.671487 
L 128.006167 -93.181008 
L 128.808377 -93.69053 
L 129.610587 -94.200053 
L 130.412798 -94.709576 
L 131.215008 -95.219099 
L 132.017219 -95.728623 
L 132.819429 -96.238148 
L 133.621639 -96.747673 
L 134.42385 -97.257198 
L 135.22606 -97.766724 
L 136.02827 -98.276251 
L 136.830481 -98.785778 
L 137.632691 -99.295305 
L 138.434902 -99.804833 
L 139.237112 -100.314362 
L 140.039322 -100.824966 
L 140.841533 -101.343086 
L 141.643743 -101.861207 
L 142.445954 -102.379328 
L 143.248164 -102.897451 
L 144.050374 -103.415574 
L 144.852585 -103.933697 
L 145.654795 -104.451821 
L 146.457006 -104.969946 
L 147.259216 -105.488071 
L 148.061426 -106.006197 
L 148.863637 -106.524324 
L 149.665847 -107.042451 
L 150.468058 -107.560578 
L 151.270268 -108.078707 
L 152.072478 -108.596836 
L 152.874689 -109.114966 
L 153.676899 -109.633096 
L 154.479109 -110.151227 
L 155.28132 -110.669358 
L 156.08353 -111.18749 
L 156.885741 -111.705623 
L 157.687951 -112.223756 
L 158.490161 -112.74189 
L 159.292372 -113.260025 
L 160.094582 -113.77816 
L 160.896793 -114.296296 
L 161.699003 -114.814433 
L 162.501213 -115.33257 
L 163.303424 -115.850707 
L 164.105634 -116.368846 
L 164.907845 -116.886985 
L 165.710055 -117.405124 
L 166.512265 -117.923264 
L 167.314476 -118.441405 
L 168.116686 -118.959547 
L 168.918897 -119.477689 
L 169.721107 -119.999902 
L 170.523317 -120.529032 
L 171.325528 -121.05817 
L 172.127738 -121.587315 
L 172.929948 -122.116468 
L 173.732159 -122.645628 
L 174.534369 -123.174795 
L 175.33658 -123.703969 
L 176.13879 -124.233151 
L 176.941 -124.762339 
L 177.743211 -125.291536 
L 178.545421 -125.820739 
L 179.347632 -126.34995 
L 180.149842 -126.879168 
L 180.952052 -127.408394 
L 181.754263 -127.937627 
L 182.556473 -128.466867 
L 183.358684 -128.996114 
L 184.160894 -129.525369 
L 184.963104 -130.054631 
L 185.765315 -130.583901 
L 186.567525 -131.113177 
L 187.369736 -131.642462 
L 188.171946 -132.196733 
L 188.974156 -132.769975 
L 189.776367 -133.343224 
L 190.578577 -133.916481 
L 191.380787 -134.489745 
L 192.182998 -135.063016 
L 192.985208 -135.636295 
L 193.787419 -136.209581 
L 194.589629 -136.782874 
L 195.391839 -137.356174 
L 196.19405 -137.929482 
L 196.99626 -138.502798 
L 197.798471 -139.07612 
L 198.600681 -139.64945 
L 199.402891 -140.222787 
L 200.205102 -140.796132 
L 201.007312 -141.369483 
L 201.809523 -141.942842 
L 202.611733 -142.516209 
L 203.413943 -143.089582 
L 204.216154 -143.662963 
L 205.018364 -144.236351 
L 205.820575 -144.809747 
L 206.622785 -145.38315 
L 207.424995 -145.95656 
L 208.227206 -146.529977 
L 209.029416 -147.103402 
L 209.831626 -147.676834 
L 210.633837 -148.250273 
L 211.436047 -148.823719 
L 212.238258 -149.397173 
L 213.040468 -149.970634 
L 213.842678 -150.544102 
L 214.644889 -151.117578 
L 215.447099 -151.691061 
L 216.24931 -152.264551 
L 217.05152 -152.838048 
L 217.85373 -153.411553 
L 218.655941 -153.977449 
L 219.458151 -154.496425 
L 220.260362 -155.015402 
L 221.062572 -155.534378 
L 221.864782 -156.053355 
L 222.666993 -156.572331 
L 223.469203 -157.091308 
L 224.271414 -157.610284 
L 225.073624 -158.129261 
L 225.875834 -158.648238 
L 226.678045 -159.167214 
L 227.480255 -159.686191 
L 228.282466 -160.20763 
L 229.084676 -160.741547 
L 229.886886 -161.27547 
L 230.689097 -161.778517 
L 231.491307 -162.276921 
L 232.293517 -162.77534 
L 233.095728 -163.273776 
L 233.897938 -163.772227 
L 234.700149 -164.270694 
L 235.502359 -164.769177 
L 236.304569 -165.267676 
L 237.10678 -165.76619 
L 237.90899 -166.26472 
L 238.711201 -166.763267 
L 239.513411 -167.261829 
L 240.315621 -167.760406 
L 241.117832 -168.259 
L 241.920042 -168.742668 
L 242.722253 -169.22108 
L 243.524463 -169.699516 
L 244.326673 -170.170866 
L 245.128884 -170.624994 
L 245.931094 -171.079158 
L 246.733305 -171.533359 
L 247.535515 -171.987596 
L 248.337725 -172.501709 
L 249.139936 -172.993091 
L 249.942146 -173.43688 
L 250.744356 -173.880671 
L 251.546567 -174.324463 
L 252.348777 -174.768256 
L 253.150988 -175.212051 
L 253.953198 -175.655846 
L 254.755408 -176.099643 
L 255.557619 -176.543441 
L 256.359829 -176.987241 
L 257.16204 -177.431041 
L 257.96425 -177.896211 
L 258.76646 -178.333686 
L 259.568671 -178.75098 
L 260.370881 -179.168302 
L 261.173092 -179.669364 
L 261.975302 -180.173909 
L 262.777512 -180.611903 
L 263.579723 -181.056578 
L 264.381933 -181.525058 
L 265.184144 -181.993547 
L 265.986354 -182.462047 
L 266.788564 -182.930557 
L 267.590775 -183.431634 
L 268.392985 -183.951569 
L 269.195195 -184.471513 
L 269.997406 -184.991468 
L 270.799616 -185.511433 
L 271.601827 -186.031407 
L 272.404037 -186.552179 
L 273.206247 -187.085329 
L 274.008458 -187.618478 
L 274.810668 -188.151629 
L 275.612879 -188.694697 
L 276.415089 -189.264153 
L 277.217299 -189.833639 
L 278.01951 -190.37544 
L 278.82172 -190.934959 
L 279.623931 -191.483842 
L 280.426141 -192.009088 
L 281.228351 -192.534338 
L 282.030562 -193.059594 
L 282.832772 -193.584855 
L 283.634983 -194.110121 
L 284.437193 -194.635392 
L 285.239403 -195.160668 
L 286.041614 -195.624866 
L 286.843824 -196.069629 
L 287.646034 -196.514394 
L 288.448245 -196.959161 
L 289.250455 -197.403929 
L 290.052666 -197.8487 
L 290.854876 -198.293473 
L 291.657086 -198.738248 
L 292.459297 -199.183024 
L 293.261507 -199.628412 
L 294.063718 -200.081084 
L 294.865928 -200.533764 
L 295.668138 -200.986964 
L 296.470349 -201.484563 
L 297.272559 -201.98217 
L 298.07477 -202.480014 
L 298.87698 -202.887765 
L 299.67919 -203.289083 
L 300.481401 -203.681474 
L 301.283611 -204.063256 
L 302.085822 -204.472442 
L 302.888032 -204.89769 
L 303.690242 -205.322943 
L 304.492453 -205.748199 
L 305.294663 -206.173459 
L 306.096873 -206.598723 
L 306.899084 -207.023991 
L 307.701294 -207.449263 
L 308.503505 -207.874539 
L 309.305715 -208.299819 
L 310.107925 -208.725102 
L 310.910136 -209.15039 
L 311.712346 -209.575681 
L 312.514557 -210.000977 
L 313.316767 -210.426276 
L 314.118977 -210.851579 
L 314.921188 -211.276886 
L 315.723398 -211.702196 
L 316.525609 -212.127511 
L 317.327819 -212.55283 
L 318.130029 -212.956962 
L 318.93224 -213.311124 
L 319.73445 -213.665287 
L 320.536661 -214.019452 
L 321.338871 -214.373618 
L 322.141081 -214.729874 
L 322.943292 -215.098209 
L 323.745502 -215.466558 
L 324.547712 -215.83492 
L 325.349923 -216.203296 
L 326.152133 -216.571686 
L 326.954344 -216.94009 
L 327.756554 -217.308508 
L 328.558764 -217.676939 
L 329.360975 -218.049745 
L 330.163185 -218.478443 
L 330.965396 -218.907154 
L 331.767606 -219.335879 
L 332.569816 -219.709615 
L 333.372027 -220.052046 
L 334.174237 -220.394477 
L 334.976448 -220.736909 
L 335.778658 -221.07934 
L 336.580868 -221.421771 
L 337.383079 -221.764203 
L 338.185289 -222.106634 
L 338.9875 -222.449065 
L 339.78971 -222.791497 
L 340.59192 -223.133928 
L 341.394131 -223.47636 
L 342.196341 -223.818792 
L 342.998551 -224.161223 
L 343.800762 -224.505442 
L 344.602972 -224.860952 
L 345.405183 -225.23391 
L 346.207393 -225.671803 
L 347.009603 -226.133784 
L 347.811814 -226.595796 
L 348.614024 -227.057838 
L 349.416235 -227.524364 
L 350.218445 -227.994858 
L 351.020655 -228.465369 
L 351.822866 -228.935895 
L 352.625076 -229.406438 
L 353.427287 -229.876997 
L 354.229497 -230.347572 
L 355.031707 -230.818163 
L 355.833918 -231.28877 
L 356.636128 -231.759393 
L 357.438339 -232.230033 
L 358.240549 -232.700688 
L 359.042759 -233.171359 
L 359.84497 -233.642047 
L 360.64718 -234.112751 
L 361.44939 -234.58347 
L 362.251601 -235.054206 
L 363.053811 -235.524958 
L 363.856022 -235.995726 
L 364.658232 -236.466509 
L 365.460442 -236.937309 
L 366.262653 -237.408125 
L 367.064863 -237.878957 
L 367.867074 -238.349804 
L 368.669284 -238.820668 
L 369.471494 -239.291548 
L 370.273705 -239.762444 
L 371.075915 -240.233355 
L 371.878126 -240.640558 
L 372.680336 -241.047382 
L 373.482546 -241.454208 
L 374.284757 -241.861035 
L 375.086967 -242.267863 
L 375.889178 -242.674692 
L 376.691388 -243.081523 
L 377.493598 -243.488354 
L 378.295809 -243.895188 
L 379.098019 -244.302022 
L 379.90023 -244.708857 
L 380.70244 -245.115694 
L 381.50465 -245.522532 
L 382.306861 -245.929372 
L 383.109071 -246.336212 
L 383.911281 -246.743054 
L 384.713492 -247.149897 
L 385.515702 -247.556742 
L 386.317913 -247.970327 
L 387.120123 -248.384807 
L 387.922333 -248.799287 
L 388.724544 -249.213766 
L 389.526754 -249.628246 
L 390.328965 -250.042726 
L 391.131175 -250.457206 
L 391.933385 -250.871686 
L 392.735596 -251.286167 
L 393.537806 -251.700647 
L 394.340017 -252.115127 
L 395.142227 -252.529607 
L 395.944437 -252.944088 
L 396.746648 -253.358568 
L 396.746648 -270.477829 
L 396.746648 -270.477829 
L 395.944437 -269.944151 
L 395.142227 -269.410472 
L 394.340017 -268.919914 
L 393.537806 -268.441162 
L 392.735596 -267.962414 
L 391.933385 -267.483671 
L 391.131175 -267.004933 
L 390.328965 -266.526199 
L 389.526754 -266.04747 
L 388.724544 -265.568746 
L 387.922333 -265.090027 
L 387.120123 -264.611312 
L 386.317913 -264.132603 
L 385.515702 -263.653897 
L 384.713492 -263.175197 
L 383.911281 -262.696501 
L 383.109071 -262.21781 
L 382.306861 -261.739124 
L 381.50465 -261.260443 
L 380.70244 -260.781766 
L 379.90023 -260.303094 
L 379.098019 -259.824426 
L 378.295809 -259.345764 
L 377.493598 -258.844242 
L 376.691388 -258.330366 
L 375.889178 -257.816494 
L 375.086967 -257.302628 
L 374.284757 -256.788766 
L 373.482546 -256.274908 
L 372.680336 -255.761056 
L 371.878126 -255.247208 
L 371.075915 -254.733365 
L 370.273705 -254.219526 
L 369.471494 -253.705692 
L 368.669284 -253.191863 
L 367.867074 -252.678039 
L 367.064863 -252.16422 
L 366.262653 -251.650405 
L 365.460442 -251.136595 
L 364.658232 -250.62279 
L 363.856022 -250.108989 
L 363.053811 -249.595193 
L 362.251601 -249.081402 
L 361.44939 -248.567616 
L 360.64718 -248.053834 
L 359.84497 -247.565823 
L 359.042759 -247.10261 
L 358.240549 -246.639397 
L 357.438339 -246.176183 
L 356.636128 -245.71297 
L 355.833918 -245.249757 
L 355.031707 -244.786543 
L 354.229497 -244.32333 
L 353.427287 -243.860117 
L 352.625076 -243.396903 
L 351.822866 -242.93369 
L 351.020655 -242.470477 
L 350.218445 -242.007264 
L 349.416235 -241.54405 
L 348.614024 -241.080837 
L 347.811814 -240.617624 
L 347.009603 -240.154411 
L 346.207393 -239.691198 
L 345.405183 -239.233036 
L 344.602972 -238.775446 
L 343.800762 -238.317856 
L 342.998551 -237.860266 
L 342.196341 -237.402677 
L 341.394131 -236.945087 
L 340.59192 -236.487498 
L 339.78971 -236.029909 
L 338.9875 -235.57232 
L 338.185289 -235.114731 
L 337.383079 -234.657142 
L 336.580868 -234.199554 
L 335.778658 -233.741966 
L 334.976448 -233.284377 
L 334.174237 -232.826789 
L 333.372027 -232.369202 
L 332.569816 -231.911614 
L 331.767606 -231.454026 
L 330.965396 -230.996439 
L 330.163185 -230.538852 
L 329.360975 -230.081264 
L 328.558764 -229.623677 
L 327.756554 -229.166091 
L 326.954344 -228.708504 
L 326.152133 -228.250917 
L 325.349923 -227.793331 
L 324.547712 -227.335745 
L 323.745502 -226.878159 
L 322.943292 -226.400685 
L 322.141081 -225.917866 
L 321.338871 -225.43507 
L 320.536661 -224.952295 
L 319.73445 -224.469544 
L 318.93224 -223.986815 
L 318.130029 -223.504108 
L 317.327819 -222.990219 
L 316.525609 -222.430892 
L 315.723398 -221.908391 
L 314.921188 -221.447427 
L 314.118977 -220.986463 
L 313.316767 -220.484516 
L 312.514557 -219.898111 
L 311.712346 -219.25666 
L 310.910136 -218.615275 
L 310.107925 -217.973956 
L 309.305715 -217.430673 
L 308.503505 -216.988393 
L 307.701294 -216.546114 
L 306.899084 -216.103836 
L 306.096873 -215.661558 
L 305.294663 -215.222285 
L 304.492453 -214.805943 
L 303.690242 -214.389605 
L 302.888032 -213.973271 
L 302.085822 -213.556942 
L 301.283611 -213.140618 
L 300.481401 -212.724297 
L 299.67919 -212.307982 
L 298.87698 -211.89167 
L 298.07477 -211.475363 
L 297.272559 -211.059061 
L 296.470349 -210.642763 
L 295.668138 -210.226469 
L 294.865928 -209.810179 
L 294.063718 -209.3734 
L 293.261507 -208.923095 
L 292.459297 -208.472794 
L 291.657086 -208.019658 
L 290.854876 -207.530859 
L 290.052666 -207.009091 
L 289.250455 -206.44653 
L 288.448245 -205.931671 
L 287.646034 -205.489413 
L 286.843824 -205.047156 
L 286.041614 -204.6049 
L 285.239403 -204.162644 
L 284.437193 -203.72039 
L 283.634983 -203.278136 
L 282.832772 -202.835883 
L 282.030562 -202.393631 
L 281.228351 -201.95138 
L 280.426141 -201.508969 
L 279.623931 -201.088093 
L 278.82172 -200.6662 
L 278.01951 -200.244315 
L 277.217299 -199.822437 
L 276.415089 -199.400565 
L 275.612879 -198.9787 
L 274.810668 -198.537689 
L 274.008458 -198.085945 
L 273.206247 -197.634207 
L 272.404037 -197.182476 
L 271.601827 -196.730751 
L 270.799616 -196.279033 
L 269.997406 -195.819397 
L 269.195195 -195.326289 
L 268.392985 -194.833187 
L 267.590775 -194.392536 
L 266.788564 -193.968803 
L 265.986354 -193.545071 
L 265.184144 -193.121339 
L 264.381933 -192.697608 
L 263.579723 -192.273877 
L 262.777512 -191.850146 
L 261.975302 -191.426416 
L 261.173092 -191.002686 
L 260.370881 -190.578956 
L 259.568671 -190.15133 
L 258.76646 -189.717865 
L 257.96425 -189.2844 
L 257.16204 -188.848187 
L 256.359829 -188.407418 
L 255.557619 -187.966649 
L 254.755408 -187.51908 
L 253.953198 -187.067578 
L 253.150988 -186.611174 
L 252.348777 -186.153601 
L 251.546567 -185.696028 
L 250.744356 -185.24522 
L 249.942146 -184.796953 
L 249.139936 -184.348688 
L 248.337725 -183.962215 
L 247.535515 -183.582881 
L 246.733305 -183.15824 
L 245.931094 -182.725033 
L 245.128884 -182.291328 
L 244.326673 -181.857624 
L 243.524463 -181.42392 
L 242.722253 -180.990216 
L 241.920042 -180.556513 
L 241.117832 -180.12281 
L 240.315621 -179.689107 
L 239.513411 -179.255404 
L 238.711201 -178.859484 
L 237.90899 -178.497016 
L 237.10678 -178.109962 
L 236.304569 -177.704063 
L 235.502359 -177.298171 
L 234.700149 -176.85919 
L 233.897938 -176.396359 
L 233.095728 -175.871281 
L 232.293517 -175.352096 
L 231.491307 -174.918397 
L 230.689097 -174.484698 
L 229.886886 -174.050999 
L 229.084676 -173.6173 
L 228.282466 -173.183602 
L 227.480255 -172.749904 
L 226.678045 -172.316207 
L 225.875834 -171.88251 
L 225.073624 -171.448813 
L 224.271414 -171.015116 
L 223.469203 -170.58142 
L 222.666993 -170.147724 
L 221.864782 -169.714029 
L 221.062572 -169.280333 
L 220.260362 -168.846638 
L 219.458151 -168.412944 
L 218.655941 -167.979249 
L 217.85373 -167.545555 
L 217.05152 -167.111862 
L 216.24931 -166.678168 
L 215.447099 -166.244475 
L 214.644889 -165.810782 
L 213.842678 -165.37709 
L 213.040468 -164.943398 
L 212.238258 -164.509706 
L 211.436047 -164.076014 
L 210.633837 -163.642323 
L 209.831626 -163.208632 
L 209.029416 -162.774941 
L 208.227206 -162.341251 
L 207.424995 -161.907561 
L 206.622785 -161.473872 
L 205.820575 -161.040182 
L 205.018364 -160.606493 
L 204.216154 -160.172804 
L 203.413943 -159.739116 
L 202.611733 -159.305428 
L 201.809523 -158.87174 
L 201.007312 -158.438053 
L 200.205102 -158.004366 
L 199.402891 -157.570679 
L 198.600681 -157.136992 
L 197.798471 -156.703306 
L 196.99626 -156.26962 
L 196.19405 -155.835935 
L 195.391839 -155.402249 
L 194.589629 -154.968564 
L 193.787419 -154.53488 
L 192.985208 -154.101195 
L 192.182998 -153.667511 
L 191.380787 -153.233828 
L 190.578577 -152.800144 
L 189.776367 -152.366461 
L 188.974156 -151.932778 
L 188.171946 -151.499096 
L 187.369736 -151.065414 
L 186.567525 -150.631732 
L 185.765315 -150.198051 
L 184.963104 -149.764369 
L 184.160894 -149.330689 
L 183.358684 -148.897008 
L 182.556473 -148.463328 
L 181.754263 -148.029648 
L 180.952052 -147.595968 
L 180.149842 -147.162289 
L 179.347632 -146.72861 
L 178.545421 -146.294931 
L 177.743211 -145.861253 
L 176.941 -145.427575 
L 176.13879 -144.993897 
L 175.33658 -144.56022 
L 174.534369 -144.126543 
L 173.732159 -143.692866 
L 172.929948 -143.273056 
L 172.127738 -142.882952 
L 171.325528 -142.49285 
L 170.523317 -142.102751 
L 169.721107 -141.712653 
L 168.918897 -141.322558 
L 168.116686 -140.932464 
L 167.314476 -140.542373 
L 166.512265 -140.152283 
L 165.710055 -139.762196 
L 164.907845 -139.372111 
L 164.105634 -138.982028 
L 163.303424 -138.591946 
L 162.501213 -138.201867 
L 161.699003 -137.81179 
L 160.896793 -137.421715 
L 160.094582 -137.031642 
L 159.292372 -136.641571 
L 158.490161 -136.251502 
L 157.687951 -135.861435 
L 156.885741 -135.47137 
L 156.08353 -135.081308 
L 155.28132 -134.691247 
L 154.479109 -134.301188 
L 153.676899 -133.911131 
L 152.874689 -133.521077 
L 152.072478 -133.131024 
L 151.270268 -132.740973 
L 150.468058 -132.350925 
L 149.665847 -131.960878 
L 148.863637 -131.570834 
L 148.061426 -131.180791 
L 147.259216 -130.790751 
L 146.457006 -130.400713 
L 145.654795 -130.010676 
L 144.852585 -129.620642 
L 144.050374 -129.23391 
L 143.248164 -128.852128 
L 142.445954 -128.470345 
L 141.643743 -128.088563 
L 140.841533 -127.706781 
L 140.039322 -127.324998 
L 139.237112 -126.943216 
L 138.434902 -126.561433 
L 137.632691 -126.179651 
L 136.830481 -125.797869 
L 136.02827 -125.416086 
L 135.22606 -125.020571 
L 134.42385 -124.608327 
L 133.621639 -124.196085 
L 132.819429 -123.783845 
L 132.017219 -123.371607 
L 131.215008 -122.959371 
L 130.412798 -122.547137 
L 129.610587 -122.134904 
L 128.808377 -121.722674 
L 128.006167 -121.310445 
L 127.203956 -120.898219 
L 126.401746 -120.485994 
L 125.599535 -120.073771 
L 124.797325 -119.661551 
L 123.995115 -119.249332 
L 123.192904 -118.837115 
L 122.390694 -118.4249 
L 121.588483 -118.012687 
L 120.786273 -117.600475 
L 119.984063 -117.188266 
L 119.181852 -116.776059 
L 118.379642 -116.363853 
L 117.577431 -115.95165 
L 116.775221 -115.539448 
L 115.973011 -115.127249 
L 115.1708 -114.715051 
L 114.36859 -114.302855 
L 113.56638 -113.890661 
L 112.764169 -113.478469 
L 111.961959 -113.066279 
L 111.159748 -112.654091 
L 110.357538 -112.241905 
L 109.555328 -111.829721 
L 108.753117 -111.417538 
L 107.950907 -111.005358 
L 107.148696 -110.593179 
L 106.346486 -110.181003 
L 105.544276 -109.768828 
L 104.742065 -109.356656 
L 103.939855 -108.944485 
L 103.137644 -108.532316 
L 102.335434 -108.120149 
L 101.533224 -107.707984 
L 100.731013 -107.295821 
L 99.928803 -106.88366 
L 99.126592 -106.471501 
L 98.324382 -106.059344 
L 97.522172 -105.647188 
L 96.719961 -105.235035 
L 95.917751 -104.822884 
L 95.115541 -104.410734 
L 94.31333 -103.998587 
L 93.51112 -103.586441 
L 92.708909 -103.174297 
L 91.906699 -102.762156 
L 91.104489 -102.350016 
L 90.302278 -101.937878 
L 89.500068 -101.525742 
L 88.697857 -101.113608 
L 87.895647 -100.701476 
L 87.093437 -100.289346 
L 86.291226 -99.877218 
L 85.489016 -99.465091 
L 84.686805 -99.052967 
L 83.884595 -98.640845 
L 83.082385 -98.228724 
L 82.280174 -97.816606 
L 81.477964 -97.404489 
L 80.675753 -96.992374 
L 79.873543 -96.580262 
L 79.071333 -96.168151 
L 78.269122 -95.756042 
L 77.466912 -95.343935 
L 76.664702 -94.93183 
z
" style="stroke: #000000; stroke-opacity: 0.1"/>
    </defs>
    <g clip-path="url(#p2ab4cfffb9)">
     <use xlink:href="#mf1832e6c61" x="0" y="310.062" style="fill-opacity: 0.1; stroke: #000000; stroke-opacity: 0.1"/>
    </g>
   </g>
   <g id="matplotlib.axis_1">
    <g id="xtick_1">
     <g id="line2d_1">
      <defs>
       <path id="m7c77d1fc18" d="M 0 1.75 
L 0 -1.75 
" style="stroke: #000000; stroke-width: 0.8"/>
      </defs>
      <g>
       <use xlink:href="#m7c77d1fc18" x="76.664702" y="275.062" style="stroke: #000000; stroke-width: 0.8"/>
      </g>
     </g>
     <g id="line2d_2">
      <g>
       <use xlink:href="#m7c77d1fc18" x="76.664702" y="8.95" style="stroke: #000000; stroke-width: 0.8"/>
      </g>
     </g>
     <g id="text_1">
      <!-- 9.0 -->
      <g transform="translate(69.715483 287.452625) scale(0.1 -0.1)">
       <defs>
        <path id="HelveticaNeue-Medium-39" d="M 1030 1133 
Q 1056 858 1225 688 
Q 1395 518 1683 518 
Q 1978 518 2154 675 
Q 2330 832 2426 1065 
Q 2522 1299 2557 1564 
Q 2592 1830 2611 2054 
L 2598 2067 
Q 2451 1805 2195 1667 
Q 1939 1530 1632 1530 
Q 1312 1530 1053 1638 
Q 794 1747 608 1942 
Q 422 2138 320 2416 
Q 218 2694 218 3040 
Q 218 3366 320 3644 
Q 422 3923 620 4131 
Q 819 4339 1107 4454 
Q 1395 4570 1760 4570 
Q 2234 4570 2541 4387 
Q 2848 4205 3024 3888 
Q 3200 3571 3270 3142 
Q 3341 2714 3341 2227 
Q 3341 1824 3254 1414 
Q 3168 1005 2969 669 
Q 2771 333 2448 121 
Q 2125 -90 1651 -90 
Q 1382 -90 1145 0 
Q 909 90 726 250 
Q 544 410 429 634 
Q 314 858 301 1133 
L 1030 1133 
z
M 1728 3962 
Q 1530 3962 1382 3888 
Q 1235 3814 1139 3686 
Q 1043 3558 995 3392 
Q 947 3226 947 3046 
Q 947 2861 995 2691 
Q 1043 2522 1139 2394 
Q 1235 2266 1382 2186 
Q 1530 2106 1728 2106 
Q 1933 2106 2086 2182 
Q 2240 2259 2339 2390 
Q 2438 2522 2489 2691 
Q 2541 2861 2541 3046 
Q 2541 3226 2489 3392 
Q 2438 3558 2339 3683 
Q 2240 3808 2086 3885 
Q 1933 3962 1728 3962 
z
" transform="scale(0.015625)"/>
        <path id="HelveticaNeue-Medium-2e" d="M 442 864 
L 1331 864 
L 1331 0 
L 442 0 
L 442 864 
z
" transform="scale(0.015625)"/>
        <path id="HelveticaNeue-Medium-30" d="M 1779 4570 
Q 2259 4570 2563 4349 
Q 2867 4128 3036 3785 
Q 3206 3443 3267 3033 
Q 3328 2624 3328 2240 
Q 3328 1856 3267 1446 
Q 3206 1037 3036 694 
Q 2867 352 2563 131 
Q 2259 -90 1779 -90 
Q 1299 -90 995 131 
Q 691 352 521 694 
Q 352 1037 291 1446 
Q 230 1856 230 2240 
Q 230 2624 291 3033 
Q 352 3443 521 3785 
Q 691 4128 995 4349 
Q 1299 4570 1779 4570 
z
M 1779 518 
Q 2016 518 2176 656 
Q 2336 794 2429 1027 
Q 2522 1261 2560 1574 
Q 2598 1888 2598 2240 
Q 2598 2592 2560 2902 
Q 2522 3213 2429 3449 
Q 2336 3686 2176 3824 
Q 2016 3962 1779 3962 
Q 1536 3962 1379 3824 
Q 1222 3686 1129 3449 
Q 1037 3213 998 2902 
Q 960 2592 960 2240 
Q 960 1888 998 1574 
Q 1037 1261 1129 1027 
Q 1222 794 1379 656 
Q 1536 518 1779 518 
z
" transform="scale(0.015625)"/>
       </defs>
       <use xlink:href="#HelveticaNeue-Medium-39"/>
       <use xlink:href="#HelveticaNeue-Medium-2e" x="55.599991"/>
       <use xlink:href="#HelveticaNeue-Medium-30" x="83.399979"/>
      </g>
     </g>
    </g>
    <g id="xtick_2">
     <g id="line2d_3">
      <g>
       <use xlink:href="#m7c77d1fc18" x="122.390694" y="275.062" style="stroke: #000000; stroke-width: 0.8"/>
      </g>
     </g>
     <g id="line2d_4">
      <g>
       <use xlink:href="#m7c77d1fc18" x="122.390694" y="8.95" style="stroke: #000000; stroke-width: 0.8"/>
      </g>
     </g>
     <g id="text_2">
      <!-- 9.5 -->
      <g transform="translate(115.441475 287.452625) scale(0.1 -0.1)">
       <defs>
        <path id="HelveticaNeue-Medium-35" d="M 787 4480 
L 3104 4480 
L 3104 3827 
L 1331 3827 
L 1101 2688 
L 1114 2675 
Q 1261 2842 1488 2928 
Q 1715 3014 1939 3014 
Q 2272 3014 2534 2902 
Q 2797 2790 2976 2588 
Q 3155 2387 3248 2112 
Q 3341 1837 3341 1517 
Q 3341 1248 3254 963 
Q 3168 678 2979 444 
Q 2790 211 2496 60 
Q 2202 -90 1792 -90 
Q 1466 -90 1187 -3 
Q 909 83 697 256 
Q 486 429 361 681 
Q 237 934 224 1274 
L 954 1274 
Q 986 909 1203 713 
Q 1421 518 1779 518 
Q 2010 518 2170 595 
Q 2330 672 2429 806 
Q 2528 941 2569 1120 
Q 2611 1299 2611 1504 
Q 2611 1690 2560 1859 
Q 2509 2029 2406 2157 
Q 2304 2285 2141 2361 
Q 1978 2438 1760 2438 
Q 1530 2438 1328 2352 
Q 1126 2266 1037 2029 
L 307 2029 
L 787 4480 
z
" transform="scale(0.015625)"/>
       </defs>
       <use xlink:href="#HelveticaNeue-Medium-39"/>
       <use xlink:href="#HelveticaNeue-Medium-2e" x="55.599991"/>
       <use xlink:href="#HelveticaNeue-Medium-35" x="83.399979"/>
      </g>
     </g>
    </g>
    <g id="xtick_3">
     <g id="line2d_5">
      <g>
       <use xlink:href="#m7c77d1fc18" x="168.116686" y="275.062" style="stroke: #000000; stroke-width: 0.8"/>
      </g>
     </g>
     <g id="line2d_6">
      <g>
       <use xlink:href="#m7c77d1fc18" x="168.116686" y="8.95" style="stroke: #000000; stroke-width: 0.8"/>
      </g>
     </g>
     <g id="text_3">
      <!-- 10.0 -->
      <g transform="translate(158.38778 287.452625) scale(0.1 -0.1)">
       <defs>
        <path id="HelveticaNeue-Medium-31" d="M 339 3738 
Q 570 3738 787 3776 
Q 1005 3814 1181 3904 
Q 1357 3994 1481 4134 
Q 1606 4275 1645 4480 
L 2240 4480 
L 2240 0 
L 1440 0 
L 1440 3162 
L 339 3162 
L 339 3738 
z
" transform="scale(0.015625)"/>
       </defs>
       <use xlink:href="#HelveticaNeue-Medium-31"/>
       <use xlink:href="#HelveticaNeue-Medium-30" x="55.599991"/>
       <use xlink:href="#HelveticaNeue-Medium-2e" x="111.199982"/>
       <use xlink:href="#HelveticaNeue-Medium-30" x="138.999969"/>
      </g>
     </g>
    </g>
    <g id="xtick_4">
     <g id="line2d_7">
      <g>
       <use xlink:href="#m7c77d1fc18" x="213.842678" y="275.062" style="stroke: #000000; stroke-width: 0.8"/>
      </g>
     </g>
     <g id="line2d_8">
      <g>
       <use xlink:href="#m7c77d1fc18" x="213.842678" y="8.95" style="stroke: #000000; stroke-width: 0.8"/>
      </g>
     </g>
     <g id="text_4">
      <!-- 10.5 -->
      <g transform="translate(204.113772 287.452625) scale(0.1 -0.1)">
       <use xlink:href="#HelveticaNeue-Medium-31"/>
       <use xlink:href="#HelveticaNeue-Medium-30" x="55.599991"/>
       <use xlink:href="#HelveticaNeue-Medium-2e" x="111.199982"/>
       <use xlink:href="#HelveticaNeue-Medium-35" x="138.999969"/>
      </g>
     </g>
    </g>
    <g id="xtick_5">
     <g id="line2d_9">
      <g>
       <use xlink:href="#m7c77d1fc18" x="259.568671" y="275.062" style="stroke: #000000; stroke-width: 0.8"/>
      </g>
     </g>
     <g id="line2d_10">
      <g>
       <use xlink:href="#m7c77d1fc18" x="259.568671" y="8.95" style="stroke: #000000; stroke-width: 0.8"/>
      </g>
     </g>
     <g id="text_5">
      <!-- 11.0 -->
      <g transform="translate(249.839765 287.452625) scale(0.1 -0.1)">
       <use xlink:href="#HelveticaNeue-Medium-31"/>
       <use xlink:href="#HelveticaNeue-Medium-31" x="55.599991"/>
       <use xlink:href="#HelveticaNeue-Medium-2e" x="111.199982"/>
       <use xlink:href="#HelveticaNeue-Medium-30" x="138.999969"/>
      </g>
     </g>
    </g>
    <g id="xtick_6">
     <g id="line2d_11">
      <g>
       <use xlink:href="#m7c77d1fc18" x="305.294663" y="275.062" style="stroke: #000000; stroke-width: 0.8"/>
      </g>
     </g>
     <g id="line2d_12">
      <g>
       <use xlink:href="#m7c77d1fc18" x="305.294663" y="8.95" style="stroke: #000000; stroke-width: 0.8"/>
      </g>
     </g>
     <g id="text_6">
      <!-- 11.5 -->
      <g transform="translate(295.565757 287.452625) scale(0.1 -0.1)">
       <use xlink:href="#HelveticaNeue-Medium-31"/>
       <use xlink:href="#HelveticaNeue-Medium-31" x="55.599991"/>
       <use xlink:href="#HelveticaNeue-Medium-2e" x="111.199982"/>
       <use xlink:href="#HelveticaNeue-Medium-35" x="138.999969"/>
      </g>
     </g>
    </g>
    <g id="xtick_7">
     <g id="line2d_13">
      <g>
       <use xlink:href="#m7c77d1fc18" x="351.020655" y="275.062" style="stroke: #000000; stroke-width: 0.8"/>
      </g>
     </g>
     <g id="line2d_14">
      <g>
       <use xlink:href="#m7c77d1fc18" x="351.020655" y="8.95" style="stroke: #000000; stroke-width: 0.8"/>
      </g>
     </g>
     <g id="text_7">
      <!-- 12.0 -->
      <g transform="translate(341.291749 287.452625) scale(0.1 -0.1)">
       <defs>
        <path id="HelveticaNeue-Medium-32" d="M 3309 0 
L 250 0 
Q 256 557 518 973 
Q 781 1389 1235 1696 
Q 1453 1856 1689 2006 
Q 1926 2157 2124 2329 
Q 2323 2502 2451 2704 
Q 2579 2906 2586 3168 
Q 2586 3290 2557 3427 
Q 2528 3565 2445 3683 
Q 2362 3802 2214 3882 
Q 2067 3962 1830 3962 
Q 1613 3962 1469 3875 
Q 1325 3789 1238 3638 
Q 1152 3488 1110 3283 
Q 1069 3078 1062 2842 
L 333 2842 
Q 333 3213 432 3529 
Q 531 3846 729 4076 
Q 928 4307 1213 4438 
Q 1498 4570 1875 4570 
Q 2285 4570 2560 4435 
Q 2835 4301 3004 4096 
Q 3174 3891 3244 3651 
Q 3315 3411 3315 3194 
Q 3315 2925 3232 2707 
Q 3149 2490 3008 2307 
Q 2867 2125 2688 1971 
Q 2509 1818 2317 1683 
Q 2125 1549 1933 1427 
Q 1741 1306 1577 1184 
Q 1414 1062 1292 931 
Q 1171 800 1126 653 
L 3309 653 
L 3309 0 
z
" transform="scale(0.015625)"/>
       </defs>
       <use xlink:href="#HelveticaNeue-Medium-31"/>
       <use xlink:href="#HelveticaNeue-Medium-32" x="55.599991"/>
       <use xlink:href="#HelveticaNeue-Medium-2e" x="111.199982"/>
       <use xlink:href="#HelveticaNeue-Medium-30" x="138.999969"/>
      </g>
     </g>
    </g>
    <g id="xtick_8">
     <g id="line2d_15">
      <g>
       <use xlink:href="#m7c77d1fc18" x="396.746648" y="275.062" style="stroke: #000000; stroke-width: 0.8"/>
      </g>
     </g>
     <g id="line2d_16">
      <g>
       <use xlink:href="#m7c77d1fc18" x="396.746648" y="8.95" style="stroke: #000000; stroke-width: 0.8"/>
      </g>
     </g>
     <g id="text_8">
      <!-- 12.5 -->
      <g transform="translate(387.017741 287.452625) scale(0.1 -0.1)">
       <use xlink:href="#HelveticaNeue-Medium-31"/>
       <use xlink:href="#HelveticaNeue-Medium-32" x="55.599991"/>
       <use xlink:href="#HelveticaNeue-Medium-2e" x="111.199982"/>
       <use xlink:href="#HelveticaNeue-Medium-35" x="138.999969"/>
      </g>
     </g>
    </g>
    <g id="text_9">
     <!-- Bulge mass [log, $M_\odot$] -->
     <g transform="translate(184.319375 300.762) scale(0.1 -0.1)">
      <defs>
       <path id="HelveticaNeue-Medium-42" d="M 1286 2656 
L 2592 2656 
Q 2880 2656 3072 2819 
Q 3264 2982 3264 3290 
Q 3264 3635 3091 3776 
Q 2918 3917 2592 3917 
L 1286 3917 
L 1286 2656 
z
M 486 4570 
L 2707 4570 
Q 3322 4570 3693 4288 
Q 4064 4006 4064 3437 
Q 4064 3091 3894 2844 
Q 3725 2598 3411 2464 
L 3411 2451 
Q 3834 2362 4051 2051 
Q 4269 1741 4269 1274 
Q 4269 1005 4173 771 
Q 4077 538 3872 368 
Q 3667 198 3347 99 
Q 3027 0 2586 0 
L 486 0 
L 486 4570 
z
M 1286 653 
L 2701 653 
Q 3066 653 3267 841 
Q 3469 1030 3469 1376 
Q 3469 1715 3267 1897 
Q 3066 2080 2701 2080 
L 1286 2080 
L 1286 653 
z
" transform="scale(0.015625)"/>
       <path id="HelveticaNeue-Medium-75" d="M 3290 0 
L 2573 0 
L 2573 461 
L 2560 461 
Q 2426 211 2160 60 
Q 1894 -90 1619 -90 
Q 966 -90 675 233 
Q 384 557 384 1210 
L 384 3309 
L 1114 3309 
L 1114 1280 
Q 1114 845 1280 665 
Q 1446 486 1747 486 
Q 1978 486 2131 556 
Q 2285 627 2381 745 
Q 2477 864 2518 1030 
Q 2560 1197 2560 1389 
L 2560 3309 
L 3290 3309 
L 3290 0 
z
" transform="scale(0.015625)"/>
       <path id="HelveticaNeue-Medium-6c" d="M 403 4570 
L 1133 4570 
L 1133 0 
L 403 0 
L 403 4570 
z
" transform="scale(0.015625)"/>
       <path id="HelveticaNeue-Medium-67" d="M 3443 173 
Q 3443 -576 3024 -944 
Q 2605 -1312 1818 -1312 
Q 1568 -1312 1315 -1261 
Q 1062 -1210 854 -1088 
Q 646 -966 505 -768 
Q 365 -570 339 -282 
L 1069 -282 
Q 1101 -435 1177 -531 
Q 1254 -627 1360 -681 
Q 1466 -736 1594 -752 
Q 1722 -768 1862 -768 
Q 2304 -768 2509 -550 
Q 2714 -333 2714 77 
L 2714 582 
L 2701 582 
Q 2547 307 2281 153 
Q 2016 0 1709 0 
Q 1312 0 1033 137 
Q 755 275 572 515 
Q 390 755 307 1068 
Q 224 1382 224 1741 
Q 224 2074 326 2374 
Q 429 2675 621 2902 
Q 813 3130 1091 3264 
Q 1370 3398 1722 3398 
Q 2035 3398 2297 3267 
Q 2560 3136 2701 2854 
L 2714 2854 
L 2714 3309 
L 3443 3309 
L 3443 173 
z
M 1824 576 
Q 2067 576 2236 675 
Q 2406 774 2512 937 
Q 2618 1101 2666 1309 
Q 2714 1517 2714 1728 
Q 2714 1939 2662 2137 
Q 2611 2336 2505 2489 
Q 2400 2643 2230 2732 
Q 2061 2822 1824 2822 
Q 1581 2822 1414 2720 
Q 1248 2618 1145 2454 
Q 1043 2291 998 2083 
Q 954 1875 954 1670 
Q 954 1466 1005 1270 
Q 1056 1075 1161 921 
Q 1267 768 1430 672 
Q 1594 576 1824 576 
z
" transform="scale(0.015625)"/>
       <path id="HelveticaNeue-Medium-65" d="M 2656 1946 
Q 2643 2118 2582 2278 
Q 2522 2438 2416 2556 
Q 2310 2675 2160 2748 
Q 2010 2822 1824 2822 
Q 1632 2822 1475 2755 
Q 1318 2688 1206 2569 
Q 1094 2451 1027 2291 
Q 960 2131 954 1946 
L 2656 1946 
z
M 954 1466 
Q 954 1274 1008 1094 
Q 1062 915 1171 780 
Q 1280 646 1446 566 
Q 1613 486 1843 486 
Q 2163 486 2358 624 
Q 2554 762 2650 1037 
L 3341 1037 
Q 3283 768 3142 557 
Q 3002 346 2803 202 
Q 2605 58 2358 -16 
Q 2112 -90 1843 -90 
Q 1453 -90 1152 38 
Q 851 166 643 396 
Q 435 627 329 947 
Q 224 1267 224 1651 
Q 224 2003 336 2320 
Q 448 2637 656 2877 
Q 864 3117 1158 3257 
Q 1453 3398 1824 3398 
Q 2214 3398 2524 3235 
Q 2835 3072 3040 2803 
Q 3245 2534 3337 2185 
Q 3430 1837 3386 1466 
L 954 1466 
z
" transform="scale(0.015625)"/>
       <path id="HelveticaNeue-Medium-20" transform="scale(0.015625)"/>
       <path id="HelveticaNeue-Medium-6d" d="M 384 3309 
L 1075 3309 
L 1075 2848 
L 1094 2848 
Q 1178 2970 1274 3072 
Q 1370 3174 1488 3244 
Q 1606 3315 1760 3356 
Q 1914 3398 2112 3398 
Q 2413 3398 2672 3264 
Q 2931 3130 3040 2848 
Q 3226 3104 3469 3251 
Q 3712 3398 4077 3398 
Q 4602 3398 4893 3142 
Q 5184 2886 5184 2285 
L 5184 0 
L 4454 0 
L 4454 1933 
Q 4454 2131 4441 2294 
Q 4429 2458 4368 2576 
Q 4307 2694 4185 2758 
Q 4064 2822 3853 2822 
Q 3482 2822 3315 2592 
Q 3149 2362 3149 1939 
L 3149 0 
L 2419 0 
L 2419 2125 
Q 2419 2470 2294 2646 
Q 2170 2822 1837 2822 
Q 1696 2822 1565 2764 
Q 1434 2707 1334 2598 
Q 1235 2490 1174 2330 
Q 1114 2170 1114 1965 
L 1114 0 
L 384 0 
L 384 3309 
z
" transform="scale(0.015625)"/>
       <path id="HelveticaNeue-Medium-61" d="M 3155 736 
Q 3155 602 3190 544 
Q 3226 486 3328 486 
Q 3360 486 3405 486 
Q 3450 486 3507 499 
L 3507 -6 
Q 3469 -19 3408 -35 
Q 3347 -51 3283 -64 
Q 3219 -77 3155 -83 
Q 3091 -90 3046 -90 
Q 2822 -90 2675 0 
Q 2528 90 2483 314 
Q 2266 102 1949 6 
Q 1632 -90 1338 -90 
Q 1114 -90 909 -29 
Q 704 32 547 150 
Q 390 269 297 451 
Q 205 634 205 877 
Q 205 1184 317 1376 
Q 429 1568 611 1677 
Q 794 1786 1021 1834 
Q 1248 1882 1478 1907 
Q 1677 1946 1856 1962 
Q 2035 1978 2172 2016 
Q 2310 2054 2390 2134 
Q 2470 2214 2470 2374 
Q 2470 2515 2403 2604 
Q 2336 2694 2237 2742 
Q 2138 2790 2016 2806 
Q 1894 2822 1786 2822 
Q 1478 2822 1280 2694 
Q 1082 2566 1056 2298 
L 326 2298 
Q 346 2618 480 2829 
Q 614 3040 822 3168 
Q 1030 3296 1292 3347 
Q 1555 3398 1830 3398 
Q 2074 3398 2310 3347 
Q 2547 3296 2736 3181 
Q 2925 3066 3040 2883 
Q 3155 2701 3155 2438 
L 3155 736 
z
M 2426 1658 
Q 2259 1549 2016 1526 
Q 1773 1504 1530 1459 
Q 1414 1440 1305 1405 
Q 1197 1370 1113 1309 
Q 1030 1248 982 1149 
Q 934 1050 934 909 
Q 934 787 1004 704 
Q 1075 621 1174 573 
Q 1274 525 1392 505 
Q 1510 486 1606 486 
Q 1728 486 1869 518 
Q 2010 550 2134 627 
Q 2259 704 2342 822 
Q 2426 941 2426 1114 
L 2426 1658 
z
" transform="scale(0.015625)"/>
       <path id="HelveticaNeue-Medium-73" d="M 934 1062 
Q 966 742 1177 614 
Q 1389 486 1683 486 
Q 1786 486 1917 502 
Q 2048 518 2163 563 
Q 2278 608 2352 694 
Q 2426 781 2419 921 
Q 2413 1062 2317 1152 
Q 2221 1242 2070 1296 
Q 1920 1350 1728 1388 
Q 1536 1427 1338 1472 
Q 1133 1517 944 1581 
Q 755 1645 604 1753 
Q 454 1862 364 2032 
Q 275 2202 275 2451 
Q 275 2720 406 2902 
Q 538 3085 739 3197 
Q 941 3309 1187 3353 
Q 1434 3398 1658 3398 
Q 1914 3398 2147 3344 
Q 2381 3290 2569 3168 
Q 2758 3046 2883 2851 
Q 3008 2656 3040 2381 
L 2278 2381 
Q 2227 2643 2038 2732 
Q 1850 2822 1606 2822 
Q 1530 2822 1424 2809 
Q 1318 2797 1225 2761 
Q 1133 2726 1069 2659 
Q 1005 2592 1005 2483 
Q 1005 2349 1097 2265 
Q 1190 2182 1340 2128 
Q 1491 2074 1683 2035 
Q 1875 1997 2080 1952 
Q 2278 1907 2470 1843 
Q 2662 1779 2812 1670 
Q 2963 1562 3056 1395 
Q 3149 1229 3149 986 
Q 3149 691 3014 486 
Q 2880 282 2665 154 
Q 2451 26 2188 -32 
Q 1926 -90 1670 -90 
Q 1357 -90 1091 -19 
Q 826 51 630 195 
Q 435 339 323 553 
Q 211 768 205 1062 
L 934 1062 
z
" transform="scale(0.015625)"/>
       <path id="HelveticaNeue-Medium-5b" d="M 461 4678 
L 1888 4678 
L 1888 4102 
L 1152 4102 
L 1152 -646 
L 1888 -646 
L 1888 -1222 
L 461 -1222 
L 461 4678 
z
" transform="scale(0.015625)"/>
       <path id="HelveticaNeue-Medium-6f" d="M 1901 -90 
Q 1504 -90 1193 41 
Q 883 173 668 403 
Q 454 634 342 954 
Q 230 1274 230 1658 
Q 230 2035 342 2355 
Q 454 2675 668 2905 
Q 883 3136 1193 3267 
Q 1504 3398 1901 3398 
Q 2298 3398 2608 3267 
Q 2918 3136 3132 2905 
Q 3347 2675 3459 2355 
Q 3571 2035 3571 1658 
Q 3571 1274 3459 954 
Q 3347 634 3132 403 
Q 2918 173 2608 41 
Q 2298 -90 1901 -90 
z
M 1901 486 
Q 2144 486 2323 588 
Q 2502 691 2617 857 
Q 2733 1024 2787 1232 
Q 2842 1440 2842 1658 
Q 2842 1869 2787 2080 
Q 2733 2291 2617 2454 
Q 2502 2618 2323 2720 
Q 2144 2822 1901 2822 
Q 1658 2822 1478 2720 
Q 1299 2618 1184 2454 
Q 1069 2291 1014 2080 
Q 960 1869 960 1658 
Q 960 1440 1014 1232 
Q 1069 1024 1184 857 
Q 1299 691 1478 588 
Q 1658 486 1901 486 
z
" transform="scale(0.015625)"/>
       <path id="HelveticaNeue-Medium-2c" d="M 442 864 
L 1331 864 
L 1331 0 
Q 1325 -397 1088 -665 
Q 851 -934 467 -1011 
L 467 -621 
Q 678 -570 784 -387 
Q 890 -205 883 0 
L 442 0 
L 442 864 
z
" transform="scale(0.015625)"/>
       <path id="DejaVuSans-Oblique-4d" d="M 1081 4666 
L 2028 4666 
L 2572 1522 
L 4378 4666 
L 5350 4666 
L 4441 0 
L 3828 0 
L 4622 4091 
L 2791 897 
L 2175 897 
L 1581 4103 
L 788 0 
L 172 0 
L 1081 4666 
z
" transform="scale(0.015625)"/>
       <path id="DejaVuSans-2299" d="M 2350 2403 
L 3013 2403 
L 3013 1609 
L 2350 1609 
L 2350 2403 
z
M 3306 3522 
Q 3016 3644 2681 3644 
Q 2347 3644 2056 3522 
Q 1769 3400 1531 3163 
Q 1291 2922 1172 2634 
Q 1053 2347 1053 2006 
Q 1053 1675 1172 1387 
Q 1291 1100 1531 859 
Q 1769 622 2056 500 
Q 2347 378 2681 378 
Q 3016 378 3306 500 
Q 3594 622 3831 859 
Q 4072 1100 4190 1387 
Q 4309 1675 4309 2006 
Q 4309 2347 4190 2634 
Q 4072 2922 3831 3163 
Q 3594 3400 3306 3522 
z
M 1878 3956 
Q 2250 4113 2681 4113 
Q 3113 4113 3484 3956 
Q 3856 3800 4163 3494 
Q 4472 3184 4625 2813 
Q 4778 2444 4778 2006 
Q 4778 1578 4625 1206 
Q 4472 838 4163 528 
Q 3856 222 3484 65 
Q 3113 -91 2681 -91 
Q 2250 -91 1878 65 
Q 1506 222 1200 528 
Q 891 838 738 1206 
Q 584 1578 584 2006 
Q 584 2444 738 2813 
Q 891 3184 1200 3494 
Q 1506 3800 1878 3956 
z
" transform="scale(0.015625)"/>
       <path id="HelveticaNeue-Medium-5d" d="M 1434 -1222 
L 6 -1222 
L 6 -646 
L 742 -646 
L 742 4102 
L 6 4102 
L 6 4678 
L 1434 4678 
L 1434 -1222 
z
" transform="scale(0.015625)"/>
      </defs>
      <use xlink:href="#HelveticaNeue-Medium-42" transform="translate(0 0.90625)"/>
      <use xlink:href="#HelveticaNeue-Medium-75" transform="translate(70.399994 0.90625)"/>
      <use xlink:href="#HelveticaNeue-Medium-6c" transform="translate(127.799988 0.90625)"/>
      <use xlink:href="#HelveticaNeue-Medium-67" transform="translate(151.899979 0.90625)"/>
      <use xlink:href="#HelveticaNeue-Medium-65" transform="translate(211.199966 0.90625)"/>
      <use xlink:href="#HelveticaNeue-Medium-20" transform="translate(266.799957 0.90625)"/>
      <use xlink:href="#HelveticaNeue-Medium-6d" transform="translate(294.599945 0.90625)"/>
      <use xlink:href="#HelveticaNeue-Medium-61" transform="translate(381.59993 0.90625)"/>
      <use xlink:href="#HelveticaNeue-Medium-73" transform="translate(437.199921 0.90625)"/>
      <use xlink:href="#HelveticaNeue-Medium-73" transform="translate(489.099915 0.90625)"/>
      <use xlink:href="#HelveticaNeue-Medium-20" transform="translate(540.999908 0.90625)"/>
      <use xlink:href="#HelveticaNeue-Medium-5b" transform="translate(568.799896 0.90625)"/>
      <use xlink:href="#HelveticaNeue-Medium-6c" transform="translate(598.399887 0.90625)"/>
      <use xlink:href="#HelveticaNeue-Medium-6f" transform="translate(622.499878 0.90625)"/>
      <use xlink:href="#HelveticaNeue-Medium-67" transform="translate(681.799866 0.90625)"/>
      <use xlink:href="#HelveticaNeue-Medium-2c" transform="translate(741.099854 0.90625)"/>
      <use xlink:href="#HelveticaNeue-Medium-20" transform="translate(768.899841 0.90625)"/>
      <use xlink:href="#DejaVuSans-Oblique-4d" transform="translate(796.699829 0.90625)"/>
      <use xlink:href="#DejaVuSans-2299" transform="translate(896.616821 -15.5) scale(0.7)"/>
      <use xlink:href="#HelveticaNeue-Medium-5d" transform="translate(971.641235 0.90625)"/>
     </g>
    </g>
   </g>
   <g id="matplotlib.axis_2">
    <g id="ytick_1">
     <g id="line2d_17">
      <defs>
       <path id="m78060f31fc" d="M 1.75 0 
L -1.75 -0 
" style="stroke: #000000; stroke-width: 0.8"/>
      </defs>
      <g>
       <use xlink:href="#m78060f31fc" x="55.859375" y="224.639469" style="stroke: #000000; stroke-width: 0.8"/>
      </g>
     </g>
     <g id="line2d_18">
      <g>
       <use xlink:href="#m78060f31fc" x="412.979375" y="224.639469" style="stroke: #000000; stroke-width: 0.8"/>
      </g>
     </g>
     <g id="text_10">
      <!-- $\mathdefault{10^{2}}$ -->
      <g transform="translate(35.209375 228.209781) scale(0.1 -0.1)">
       <use xlink:href="#HelveticaNeue-Medium-31" transform="translate(0 0.823438)"/>
       <use xlink:href="#HelveticaNeue-Medium-30" transform="translate(55.599991 0.823438)"/>
       <use xlink:href="#HelveticaNeue-Medium-32" transform="translate(112.104786 37.015625) scale(0.7)"/>
      </g>
     </g>
    </g>
    <g id="ytick_2">
     <g id="line2d_19">
      <defs>
       <path id="m57cd5a7d46" d="M 1 0 
L -1 -0 
" style="stroke: #000000; stroke-width: 0.6"/>
      </defs>
      <g>
       <use xlink:href="#m57cd5a7d46" x="55.859375" y="270.039277" style="stroke: #000000; stroke-width: 0.6"/>
      </g>
     </g>
     <g id="line2d_20">
      <g>
       <use xlink:href="#m57cd5a7d46" x="412.979375" y="270.039277" style="stroke: #000000; stroke-width: 0.6"/>
      </g>
     </g>
    </g>
    <g id="ytick_3">
     <g id="line2d_21">
      <g>
       <use xlink:href="#m57cd5a7d46" x="55.859375" y="253.042569" style="stroke: #000000; stroke-width: 0.6"/>
      </g>
     </g>
     <g id="line2d_22">
      <g>
       <use xlink:href="#m57cd5a7d46" x="412.979375" y="253.042569" style="stroke: #000000; stroke-width: 0.6"/>
      </g>
     </g>
    </g>
    <g id="ytick_4">
     <g id="line2d_23">
      <g>
       <use xlink:href="#m57cd5a7d46" x="55.859375" y="238.050411" style="stroke: #000000; stroke-width: 0.6"/>
      </g>
     </g>
     <g id="line2d_24">
      <g>
       <use xlink:href="#m57cd5a7d46" x="412.979375" y="238.050411" style="stroke: #000000; stroke-width: 0.6"/>
      </g>
     </g>
    </g>
    <g id="ytick_5">
     <g id="line2d_25">
      <g>
       <use xlink:href="#m57cd5a7d46" x="55.859375" y="136.411379" style="stroke: #000000; stroke-width: 0.6"/>
      </g>
     </g>
     <g id="line2d_26">
      <g>
       <use xlink:href="#m57cd5a7d46" x="412.979375" y="136.411379" style="stroke: #000000; stroke-width: 0.6"/>
      </g>
     </g>
     <g id="text_11">
      <!-- $\mathdefault{2\times10^{2}}$ -->
      <g transform="translate(20.559375 139.981691) scale(0.1 -0.1)">
       <defs>
        <path id="HelveticaNeue-Medium-d7" d="M 352 2733 
L 902 3091 
L 1914 2074 
L 2938 3091 
L 3488 2733 
L 2368 1619 
L 3488 506 
L 2938 147 
L 1914 1171 
L 902 147 
L 352 506 
L 1466 1619 
L 352 2733 
z
" transform="scale(0.015625)"/>
       </defs>
       <use xlink:href="#HelveticaNeue-Medium-32" transform="translate(0 0.823438)"/>
       <use xlink:href="#HelveticaNeue-Medium-d7" transform="translate(75.082413 0.823438)"/>
       <use xlink:href="#HelveticaNeue-Medium-31" transform="translate(154.564819 0.823438)"/>
       <use xlink:href="#HelveticaNeue-Medium-30" transform="translate(210.16481 0.823438)"/>
       <use xlink:href="#HelveticaNeue-Medium-32" transform="translate(266.669606 37.015625) scale(0.7)"/>
      </g>
     </g>
    </g>
    <g id="ytick_6">
     <g id="line2d_27">
      <g>
       <use xlink:href="#m57cd5a7d46" x="55.859375" y="84.801255" style="stroke: #000000; stroke-width: 0.6"/>
      </g>
     </g>
     <g id="line2d_28">
      <g>
       <use xlink:href="#m57cd5a7d46" x="412.979375" y="84.801255" style="stroke: #000000; stroke-width: 0.6"/>
      </g>
     </g>
     <g id="text_12">
      <!-- $\mathdefault{3\times10^{2}}$ -->
      <g transform="translate(20.559375 88.371567) scale(0.1 -0.1)">
       <defs>
        <path id="HelveticaNeue-Medium-33" d="M 1459 2624 
Q 1638 2618 1817 2650 
Q 1997 2682 2137 2762 
Q 2278 2842 2364 2982 
Q 2451 3123 2451 3328 
Q 2451 3616 2256 3789 
Q 2061 3962 1754 3962 
Q 1562 3962 1421 3885 
Q 1280 3808 1187 3677 
Q 1094 3546 1049 3382 
Q 1005 3219 1011 3046 
L 282 3046 
Q 294 3373 403 3651 
Q 512 3930 701 4134 
Q 890 4339 1158 4454 
Q 1427 4570 1766 4570 
Q 2029 4570 2281 4493 
Q 2534 4416 2736 4269 
Q 2938 4122 3059 3894 
Q 3181 3667 3181 3373 
Q 3181 3034 3027 2781 
Q 2874 2528 2547 2413 
L 2547 2400 
Q 2931 2323 3145 2019 
Q 3360 1715 3360 1280 
Q 3360 960 3232 707 
Q 3104 454 2886 278 
Q 2669 102 2381 6 
Q 2093 -90 1773 -90 
Q 1382 -90 1091 22 
Q 800 134 605 339 
Q 410 544 307 832 
Q 205 1120 198 1472 
L 928 1472 
Q 915 1062 1129 790 
Q 1344 518 1773 518 
Q 2138 518 2384 726 
Q 2630 934 2630 1318 
Q 2630 1581 2528 1734 
Q 2426 1888 2259 1968 
Q 2093 2048 1885 2067 
Q 1677 2086 1459 2080 
L 1459 2624 
z
" transform="scale(0.015625)"/>
       </defs>
       <use xlink:href="#HelveticaNeue-Medium-33" transform="translate(0 0.823438)"/>
       <use xlink:href="#HelveticaNeue-Medium-d7" transform="translate(75.082413 0.823438)"/>
       <use xlink:href="#HelveticaNeue-Medium-31" transform="translate(154.564819 0.823438)"/>
       <use xlink:href="#HelveticaNeue-Medium-30" transform="translate(210.16481 0.823438)"/>
       <use xlink:href="#HelveticaNeue-Medium-32" transform="translate(266.669606 37.015625) scale(0.7)"/>
      </g>
     </g>
    </g>
    <g id="ytick_7">
     <g id="line2d_29">
      <g>
       <use xlink:href="#m57cd5a7d46" x="55.859375" y="48.183289" style="stroke: #000000; stroke-width: 0.6"/>
      </g>
     </g>
     <g id="line2d_30">
      <g>
       <use xlink:href="#m57cd5a7d46" x="412.979375" y="48.183289" style="stroke: #000000; stroke-width: 0.6"/>
      </g>
     </g>
     <g id="text_13">
      <!-- $\mathdefault{4\times10^{2}}$ -->
      <g transform="translate(20.559375 51.753602) scale(0.1 -0.1)">
       <defs>
        <path id="HelveticaNeue-Medium-34" d="M 717 1638 
L 2074 1638 
L 2074 3610 
L 2061 3610 
L 717 1638 
z
M 3341 1062 
L 2765 1062 
L 2765 0 
L 2074 0 
L 2074 1062 
L 154 1062 
L 154 1786 
L 2074 4480 
L 2765 4480 
L 2765 1638 
L 3341 1638 
L 3341 1062 
z
" transform="scale(0.015625)"/>
       </defs>
       <use xlink:href="#HelveticaNeue-Medium-34" transform="translate(0 0.823438)"/>
       <use xlink:href="#HelveticaNeue-Medium-d7" transform="translate(75.082413 0.823438)"/>
       <use xlink:href="#HelveticaNeue-Medium-31" transform="translate(154.564819 0.823438)"/>
       <use xlink:href="#HelveticaNeue-Medium-30" transform="translate(210.16481 0.823438)"/>
       <use xlink:href="#HelveticaNeue-Medium-32" transform="translate(266.669606 37.015625) scale(0.7)"/>
      </g>
     </g>
    </g>
    <g id="ytick_8">
     <g id="line2d_31">
      <g>
       <use xlink:href="#m57cd5a7d46" x="55.859375" y="19.780188" style="stroke: #000000; stroke-width: 0.6"/>
      </g>
     </g>
     <g id="line2d_32">
      <g>
       <use xlink:href="#m57cd5a7d46" x="412.979375" y="19.780188" style="stroke: #000000; stroke-width: 0.6"/>
      </g>
     </g>
    </g>
    <g id="text_14">
     <!-- Velocity dispersion [log, km/s] -->
     <g transform="translate(14.509375 211.107562) rotate(-90) scale(0.1 -0.1)">
      <defs>
       <path id="HelveticaNeue-Medium-56" d="M -32 4570 
L 800 4570 
L 1946 954 
L 1958 954 
L 3130 4570 
L 3942 4570 
L 2381 0 
L 1491 0 
L -32 4570 
z
" transform="scale(0.015625)"/>
       <path id="HelveticaNeue-Medium-63" d="M 2618 2202 
Q 2573 2509 2371 2665 
Q 2170 2822 1862 2822 
Q 1722 2822 1562 2774 
Q 1402 2726 1267 2595 
Q 1133 2464 1043 2230 
Q 954 1997 954 1619 
Q 954 1414 1002 1209 
Q 1050 1005 1155 845 
Q 1261 685 1427 585 
Q 1594 486 1830 486 
Q 2150 486 2358 684 
Q 2566 883 2618 1242 
L 3347 1242 
Q 3245 595 2857 252 
Q 2470 -90 1830 -90 
Q 1440 -90 1142 41 
Q 845 173 640 400 
Q 435 627 329 940 
Q 224 1254 224 1619 
Q 224 1990 326 2316 
Q 429 2643 633 2883 
Q 838 3123 1142 3260 
Q 1446 3398 1856 3398 
Q 2144 3398 2403 3324 
Q 2662 3251 2864 3104 
Q 3066 2957 3194 2733 
Q 3322 2509 3347 2202 
L 2618 2202 
z
" transform="scale(0.015625)"/>
       <path id="HelveticaNeue-Medium-69" d="M 403 4570 
L 1133 4570 
L 1133 3878 
L 403 3878 
L 403 4570 
z
M 403 3309 
L 1133 3309 
L 1133 0 
L 403 0 
L 403 3309 
z
" transform="scale(0.015625)"/>
       <path id="HelveticaNeue-Medium-74" d="M 51 3309 
L 602 3309 
L 602 4301 
L 1331 4301 
L 1331 3309 
L 1990 3309 
L 1990 2765 
L 1331 2765 
L 1331 998 
Q 1331 883 1340 800 
Q 1350 717 1385 659 
Q 1421 602 1491 573 
Q 1562 544 1683 544 
Q 1760 544 1837 547 
Q 1914 550 1990 570 
L 1990 6 
Q 1869 -6 1753 -19 
Q 1638 -32 1517 -32 
Q 1229 -32 1053 22 
Q 877 77 777 182 
Q 678 288 643 448 
Q 608 608 602 813 
L 602 2765 
L 51 2765 
L 51 3309 
z
" transform="scale(0.015625)"/>
       <path id="HelveticaNeue-Medium-79" d="M 19 3309 
L 819 3309 
L 1683 838 
L 1696 838 
L 2534 3309 
L 3296 3309 
L 2010 -179 
Q 1920 -403 1833 -608 
Q 1747 -813 1622 -969 
Q 1498 -1126 1312 -1219 
Q 1126 -1312 838 -1312 
Q 582 -1312 333 -1274 
L 333 -659 
Q 422 -672 505 -688 
Q 589 -704 678 -704 
Q 806 -704 889 -672 
Q 973 -640 1027 -579 
Q 1082 -518 1120 -435 
Q 1158 -352 1190 -243 
L 1274 13 
L 19 3309 
z
" transform="scale(0.015625)"/>
       <path id="HelveticaNeue-Medium-64" d="M 3501 0 
L 2810 0 
L 2810 448 
L 2797 448 
Q 2650 160 2368 35 
Q 2086 -90 1773 -90 
Q 1382 -90 1091 48 
Q 800 186 608 422 
Q 416 659 320 982 
Q 224 1306 224 1677 
Q 224 2125 345 2451 
Q 467 2778 668 2989 
Q 870 3200 1129 3299 
Q 1389 3398 1658 3398 
Q 1811 3398 1971 3369 
Q 2131 3341 2278 3277 
Q 2426 3213 2550 3113 
Q 2675 3014 2758 2880 
L 2771 2880 
L 2771 4570 
L 3501 4570 
L 3501 0 
z
M 954 1619 
Q 954 1408 1008 1203 
Q 1062 998 1174 838 
Q 1286 678 1459 582 
Q 1632 486 1869 486 
Q 2112 486 2288 588 
Q 2464 691 2576 857 
Q 2688 1024 2742 1232 
Q 2797 1440 2797 1658 
Q 2797 2208 2550 2515 
Q 2304 2822 1882 2822 
Q 1626 2822 1450 2716 
Q 1274 2611 1162 2441 
Q 1050 2272 1002 2057 
Q 954 1843 954 1619 
z
" transform="scale(0.015625)"/>
       <path id="HelveticaNeue-Medium-70" d="M 403 3309 
L 1094 3309 
L 1094 2861 
L 1107 2861 
Q 1261 3149 1536 3273 
Q 1811 3398 2131 3398 
Q 2522 3398 2813 3260 
Q 3104 3123 3296 2883 
Q 3488 2643 3584 2323 
Q 3680 2003 3680 1638 
Q 3680 1306 3593 992 
Q 3507 678 3331 438 
Q 3155 198 2886 54 
Q 2618 -90 2253 -90 
Q 2093 -90 1933 -61 
Q 1773 -32 1625 32 
Q 1478 96 1353 195 
Q 1229 294 1146 429 
L 1133 429 
L 1133 -1222 
L 403 -1222 
L 403 3309 
z
M 2950 1651 
Q 2950 1875 2892 2086 
Q 2835 2298 2720 2461 
Q 2605 2624 2432 2723 
Q 2259 2822 2035 2822 
Q 1574 2822 1340 2502 
Q 1107 2182 1107 1651 
Q 1107 1402 1168 1187 
Q 1229 973 1350 819 
Q 1472 666 1641 576 
Q 1811 486 2035 486 
Q 2285 486 2457 588 
Q 2630 691 2742 854 
Q 2854 1018 2902 1226 
Q 2950 1434 2950 1651 
z
" transform="scale(0.015625)"/>
       <path id="HelveticaNeue-Medium-72" d="M 384 3309 
L 1069 3309 
L 1069 2669 
L 1082 2669 
Q 1114 2803 1206 2931 
Q 1299 3059 1430 3164 
Q 1562 3270 1722 3334 
Q 1882 3398 2048 3398 
Q 2176 3398 2224 3392 
Q 2272 3386 2323 3379 
L 2323 2675 
Q 2246 2688 2166 2697 
Q 2086 2707 2010 2707 
Q 1824 2707 1661 2633 
Q 1498 2560 1376 2416 
Q 1254 2272 1184 2061 
Q 1114 1850 1114 1574 
L 1114 0 
L 384 0 
L 384 3309 
z
" transform="scale(0.015625)"/>
       <path id="HelveticaNeue-Medium-6e" d="M 384 3309 
L 1075 3309 
L 1075 2822 
L 1088 2810 
Q 1254 3085 1523 3241 
Q 1792 3398 2118 3398 
Q 2662 3398 2976 3116 
Q 3290 2835 3290 2272 
L 3290 0 
L 2560 0 
L 2560 2080 
Q 2547 2470 2393 2646 
Q 2240 2822 1914 2822 
Q 1728 2822 1581 2755 
Q 1434 2688 1331 2569 
Q 1229 2451 1171 2291 
Q 1114 2131 1114 1952 
L 1114 0 
L 384 0 
L 384 3309 
z
" transform="scale(0.015625)"/>
       <path id="HelveticaNeue-Medium-6b" d="M 403 4570 
L 1133 4570 
L 1133 1971 
L 2451 3309 
L 3347 3309 
L 2080 2093 
L 3469 0 
L 2579 0 
L 1568 1606 
L 1133 1184 
L 1133 0 
L 403 0 
L 403 4570 
z
" transform="scale(0.015625)"/>
       <path id="HelveticaNeue-Medium-2f" d="M 1696 4678 
L 2394 4678 
L 557 -109 
L -141 -109 
L 1696 4678 
z
" transform="scale(0.015625)"/>
      </defs>
      <use xlink:href="#HelveticaNeue-Medium-56"/>
      <use xlink:href="#HelveticaNeue-Medium-65" x="55.599991"/>
      <use xlink:href="#HelveticaNeue-Medium-6c" x="111.199982"/>
      <use xlink:href="#HelveticaNeue-Medium-6f" x="135.299973"/>
      <use xlink:href="#HelveticaNeue-Medium-63" x="194.59996"/>
      <use xlink:href="#HelveticaNeue-Medium-69" x="250.199951"/>
      <use xlink:href="#HelveticaNeue-Medium-74" x="274.299942"/>
      <use xlink:href="#HelveticaNeue-Medium-79" x="307.59993"/>
      <use xlink:href="#HelveticaNeue-Medium-20" x="359.499924"/>
      <use xlink:href="#HelveticaNeue-Medium-64" x="387.299911"/>
      <use xlink:href="#HelveticaNeue-Medium-69" x="448.399902"/>
      <use xlink:href="#HelveticaNeue-Medium-73" x="472.499893"/>
      <use xlink:href="#HelveticaNeue-Medium-70" x="524.399887"/>
      <use xlink:href="#HelveticaNeue-Medium-65" x="585.499878"/>
      <use xlink:href="#HelveticaNeue-Medium-72" x="641.099869"/>
      <use xlink:href="#HelveticaNeue-Medium-73" x="676.299866"/>
      <use xlink:href="#HelveticaNeue-Medium-69" x="728.19986"/>
      <use xlink:href="#HelveticaNeue-Medium-6f" x="752.29985"/>
      <use xlink:href="#HelveticaNeue-Medium-6e" x="811.599838"/>
      <use xlink:href="#HelveticaNeue-Medium-20" x="868.999832"/>
      <use xlink:href="#HelveticaNeue-Medium-5b" x="896.79982"/>
      <use xlink:href="#HelveticaNeue-Medium-6c" x="926.399811"/>
      <use xlink:href="#HelveticaNeue-Medium-6f" x="950.499802"/>
      <use xlink:href="#HelveticaNeue-Medium-67" x="1009.799789"/>
      <use xlink:href="#HelveticaNeue-Medium-2c" x="1069.099777"/>
      <use xlink:href="#HelveticaNeue-Medium-20" x="1096.899765"/>
      <use xlink:href="#HelveticaNeue-Medium-6b" x="1124.699753"/>
      <use xlink:href="#HelveticaNeue-Medium-6d" x="1178.39975"/>
      <use xlink:href="#HelveticaNeue-Medium-2f" x="1265.399734"/>
      <use xlink:href="#HelveticaNeue-Medium-73" x="1300.599731"/>
      <use xlink:href="#HelveticaNeue-Medium-5d" x="1352.499725"/>
     </g>
    </g>
   </g>
   <g id="LineCollection_1">
    <path d="M 72.092102 257.907603 
L 90.382499 257.907603 
" clip-path="url(#p2ab4cfffb9)" style="fill: none; stroke: #ffa500; stroke-width: 1.5"/>
    <path d="M 328.157659 120.854758 
L 344.619016 120.854758 
" clip-path="url(#p2ab4cfffb9)" style="fill: none; stroke: #ffa500; stroke-width: 1.5"/>
    <path d="M 276.030028 73.443361 
L 292.491385 73.443361 
" clip-path="url(#p2ab4cfffb9)" style="fill: none; stroke: #ffa500; stroke-width: 1.5"/>
    <path d="M 219.329798 159.364084 
L 235.791155 159.364084 
" clip-path="url(#p2ab4cfffb9)" style="fill: none; stroke: #ffa500; stroke-width: 1.5"/>
    <path d="M 297.063984 78.590939 
L 313.525342 78.590939 
" clip-path="url(#p2ab4cfffb9)" style="fill: none; stroke: #ffa500; stroke-width: 1.5"/>
    <path d="M 319.012461 95.414585 
L 335.473818 95.414585 
" clip-path="url(#p2ab4cfffb9)" style="fill: none; stroke: #ffa500; stroke-width: 1.5"/>
    <path d="M 281.517147 98.212197 
L 297.978504 98.212197 
" clip-path="url(#p2ab4cfffb9)" style="fill: none; stroke: #ffa500; stroke-width: 1.5"/>
    <path d="M 183.663524 153.408086 
L 200.124881 153.408086 
" clip-path="url(#p2ab4cfffb9)" style="fill: none; stroke: #ffa500; stroke-width: 1.5"/>
    <path d="M 256.825111 160.128568 
L 273.286468 160.128568 
" clip-path="url(#p2ab4cfffb9)" style="fill: none; stroke: #ffa500; stroke-width: 1.5"/>
    <path d="M 307.123703 86.080524 
L 323.58506 86.080524 
" clip-path="url(#p2ab4cfffb9)" style="fill: none; stroke: #ffa500; stroke-width: 1.5"/>
    <path d="M 205.612 177.344545 
L 222.073357 177.344545 
" clip-path="url(#p2ab4cfffb9)" style="fill: none; stroke: #ffa500; stroke-width: 1.5"/>
    <path d="M 243.107314 132.64895 
L 259.568671 132.64895 
" clip-path="url(#p2ab4cfffb9)" style="fill: none; stroke: #ffa500; stroke-width: 1.5"/>
    <path d="M 275.115508 119.176233 
L 291.576865 119.176233 
" clip-path="url(#p2ab4cfffb9)" style="fill: none; stroke: #ffa500; stroke-width: 1.5"/>
    <path d="M 252.252512 148.41583 
L 268.713869 148.41583 
" clip-path="url(#p2ab4cfffb9)" style="fill: none; stroke: #ffa500; stroke-width: 1.5"/>
    <path d="M 321.75602 98.212197 
L 338.217378 98.212197 
" clip-path="url(#p2ab4cfffb9)" style="fill: none; stroke: #ffa500; stroke-width: 1.5"/>
    <path d="M 310.781782 78.590939 
L 327.243139 78.590939 
" clip-path="url(#p2ab4cfffb9)" style="fill: none; stroke: #ffa500; stroke-width: 1.5"/>
    <path d="M 237.620194 112.148032 
L 254.081552 112.148032 
" clip-path="url(#p2ab4cfffb9)" style="fill: none; stroke: #ffa500; stroke-width: 1.5"/>
    <path d="M 308.038223 86.509821 
L 324.49958 86.509821 
" clip-path="url(#p2ab4cfffb9)" style="fill: none; stroke: #ffa500; stroke-width: 1.5"/>
    <path d="M 297.978504 148.41583 
L 314.439862 148.41583 
" clip-path="url(#p2ab4cfffb9)" style="fill: none; stroke: #ffa500; stroke-width: 1.5"/>
    <path d="M 240.363754 159.364084 
L 256.825111 159.364084 
" clip-path="url(#p2ab4cfffb9)" style="fill: none; stroke: #ffa500; stroke-width: 1.5"/>
    <path d="M 328.157659 84.801255 
L 344.619016 84.801255 
" clip-path="url(#p2ab4cfffb9)" style="fill: none; stroke: #ffa500; stroke-width: 1.5"/>
    <path d="M 237.620194 142.940309 
L 254.081552 142.940309 
" clip-path="url(#p2ab4cfffb9)" style="fill: none; stroke: #ffa500; stroke-width: 1.5"/>
    <path d="M 317.183421 75.005174 
L 333.644778 75.005174 
" clip-path="url(#p2ab4cfffb9)" style="fill: none; stroke: #ffa500; stroke-width: 1.5"/>
    <path d="M 126.048773 146.334809 
L 144.33917 146.334809 
" clip-path="url(#p2ab4cfffb9)" style="fill: none; stroke: #ffa500; stroke-width: 1.5"/>
    <path d="M 309.867262 54.712219 
L 326.32862 54.712219 
" clip-path="url(#p2ab4cfffb9)" style="fill: none; stroke: #ffa500; stroke-width: 1.5"/>
    <path d="M 248.594433 151.961636 
L 265.05579 151.961636 
" clip-path="url(#p2ab4cfffb9)" style="fill: none; stroke: #ffa500; stroke-width: 1.5"/>
    <path d="M 265.97031 63.374488 
L 282.431667 63.374488 
" clip-path="url(#p2ab4cfffb9)" style="fill: none; stroke: #ffa500; stroke-width: 1.5"/>
    <path d="M 351.020655 66.275724 
L 367.482013 66.275724 
" clip-path="url(#p2ab4cfffb9)" style="fill: none; stroke: #ffa500; stroke-width: 1.5"/>
    <path d="M 276.944548 123.127786 
L 293.405905 123.127786 
" clip-path="url(#p2ab4cfffb9)" style="fill: none; stroke: #ffa500; stroke-width: 1.5"/>
    <path d="M 255.910591 173.029345 
L 272.371949 173.029345 
" clip-path="url(#p2ab4cfffb9)" style="fill: none; stroke: #ffa500; stroke-width: 1.5"/>
    <path d="M 310.781782 71.517662 
L 327.243139 71.517662 
" clip-path="url(#p2ab4cfffb9)" style="fill: none; stroke: #ffa500; stroke-width: 1.5"/>
    <path d="M 306.209183 73.443361 
L 322.67054 73.443361 
" clip-path="url(#p2ab4cfffb9)" style="fill: none; stroke: #ffa500; stroke-width: 1.5"/>
    <path d="M 251.337992 147.718369 
L 267.799349 147.718369 
" clip-path="url(#p2ab4cfffb9)" style="fill: none; stroke: #ffa500; stroke-width: 1.5"/>
    <path d="M 212.013639 113.735823 
L 228.474996 113.735823 
" clip-path="url(#p2ab4cfffb9)" style="fill: none; stroke: #ffa500; stroke-width: 1.5"/>
    <path d="M 314.439862 77.384425 
L 330.901219 77.384425 
" clip-path="url(#p2ab4cfffb9)" style="fill: none; stroke: #ffa500; stroke-width: 1.5"/>
    <path d="M 274.200988 51.732692 
L 290.662346 51.732692 
" clip-path="url(#p2ab4cfffb9)" style="fill: none; stroke: #ffa500; stroke-width: 1.5"/>
    <path d="M 306.209183 100.112027 
L 324.49958 100.112027 
" clip-path="url(#p2ab4cfffb9)" style="fill: none; stroke: #ffa500; stroke-width: 1.5"/>
    <path d="M 310.781782 88.241633 
L 327.243139 88.241633 
" clip-path="url(#p2ab4cfffb9)" style="fill: none; stroke: #ffa500; stroke-width: 1.5"/>
    <path d="M 319.926981 104.493248 
L 336.388338 104.493248 
" clip-path="url(#p2ab4cfffb9)" style="fill: none; stroke: #ffa500; stroke-width: 1.5"/>
    <path d="M 306.209183 72.284449 
L 322.67054 72.284449 
" clip-path="url(#p2ab4cfffb9)" style="fill: none; stroke: #ffa500; stroke-width: 1.5"/>
    <path d="M 324.49958 89.997333 
L 342.789977 89.997333 
" clip-path="url(#p2ab4cfffb9)" style="fill: none; stroke: #ffa500; stroke-width: 1.5"/>
    <path d="M 322.67054 75.793327 
L 339.131897 75.793327 
" clip-path="url(#p2ab4cfffb9)" style="fill: none; stroke: #ffa500; stroke-width: 1.5"/>
   </g>
   <g id="LineCollection_2">
    <path d="M 81.237301 262.966 
L 81.237301 253.042569 
" clip-path="url(#p2ab4cfffb9)" style="fill: none; stroke: #ffa500; stroke-width: 1.5"/>
    <path d="M 336.388338 126.02737 
L 336.388338 115.884165 
" clip-path="url(#p2ab4cfffb9)" style="fill: none; stroke: #ffa500; stroke-width: 1.5"/>
    <path d="M 284.260707 76.984782 
L 284.260707 69.997809 
" clip-path="url(#p2ab4cfffb9)" style="fill: none; stroke: #ffa500; stroke-width: 1.5"/>
    <path d="M 227.560476 161.67145 
L 227.560476 157.0978 
" clip-path="url(#p2ab4cfffb9)" style="fill: none; stroke: #ffa500; stroke-width: 1.5"/>
    <path d="M 305.294663 79.808998 
L 305.294663 77.384425 
" clip-path="url(#p2ab4cfffb9)" style="fill: none; stroke: #ffa500; stroke-width: 1.5"/>
    <path d="M 327.243139 96.340307 
L 327.243139 94.495547 
" clip-path="url(#p2ab4cfffb9)" style="fill: none; stroke: #ffa500; stroke-width: 1.5"/>
    <path d="M 289.747826 103.016021 
L 289.747826 93.583097 
" clip-path="url(#p2ab4cfffb9)" style="fill: none; stroke: #ffa500; stroke-width: 1.5"/>
    <path d="M 191.894202 159.364084 
L 191.894202 147.718369 
" clip-path="url(#p2ab4cfffb9)" style="fill: none; stroke: #ffa500; stroke-width: 1.5"/>
    <path d="M 265.05579 173.029345 
L 265.05579 148.41583 
" clip-path="url(#p2ab4cfffb9)" style="fill: none; stroke: #ffa500; stroke-width: 1.5"/>
    <path d="M 315.354381 91.330185 
L 315.354381 81.038826 
" clip-path="url(#p2ab4cfffb9)" style="fill: none; stroke: #ffa500; stroke-width: 1.5"/>
    <path d="M 213.842678 183.642675 
L 213.842678 171.34341 
" clip-path="url(#p2ab4cfffb9)" style="fill: none; stroke: #ffa500; stroke-width: 1.5"/>
    <path d="M 251.337992 138.982905 
L 251.337992 126.615298 
" clip-path="url(#p2ab4cfffb9)" style="fill: none; stroke: #ffa500; stroke-width: 1.5"/>
    <path d="M 283.346187 125.442145 
L 283.346187 113.204356 
" clip-path="url(#p2ab4cfffb9)" style="fill: none; stroke: #ffa500; stroke-width: 1.5"/>
    <path d="M 260.483191 154.871162 
L 260.483191 142.272138 
" clip-path="url(#p2ab4cfffb9)" style="fill: none; stroke: #ffa500; stroke-width: 1.5"/>
    <path d="M 329.986699 111.62314 
L 329.986699 86.080524 
" clip-path="url(#p2ab4cfffb9)" style="fill: none; stroke: #ffa500; stroke-width: 1.5"/>
    <path d="M 319.012461 84.801255 
L 319.012461 72.669582 
" clip-path="url(#p2ab4cfffb9)" style="fill: none; stroke: #ffa500; stroke-width: 1.5"/>
    <path d="M 245.850873 118.621609 
L 245.850873 105.987819 
" clip-path="url(#p2ab4cfffb9)" style="fill: none; stroke: #ffa500; stroke-width: 1.5"/>
    <path d="M 316.268901 92.677142 
L 316.268901 80.627562 
" clip-path="url(#p2ab4cfffb9)" style="fill: none; stroke: #ffa500; stroke-width: 1.5"/>
    <path d="M 306.209183 151.961636 
L 306.209183 144.966127 
" clip-path="url(#p2ab4cfffb9)" style="fill: none; stroke: #ffa500; stroke-width: 1.5"/>
    <path d="M 248.594433 165.612515 
L 248.594433 153.408086 
" clip-path="url(#p2ab4cfffb9)" style="fill: none; stroke: #ffa500; stroke-width: 1.5"/>
    <path d="M 336.388338 87.806466 
L 336.388338 81.865363 
" clip-path="url(#p2ab4cfffb9)" style="fill: none; stroke: #ffa500; stroke-width: 1.5"/>
    <path d="M 245.850873 149.117133 
L 245.850873 137.049406 
" clip-path="url(#p2ab4cfffb9)" style="fill: none; stroke: #ffa500; stroke-width: 1.5"/>
    <path d="M 325.4141 86.509821 
L 325.4141 64.454717 
" clip-path="url(#p2ab4cfffb9)" style="fill: none; stroke: #ffa500; stroke-width: 1.5"/>
    <path d="M 135.193972 152.682807 
L 135.193972 140.288417 
" clip-path="url(#p2ab4cfffb9)" style="fill: none; stroke: #ffa500; stroke-width: 1.5"/>
    <path d="M 318.097941 61.241149 
L 318.097941 48.501903 
" clip-path="url(#p2ab4cfffb9)" style="fill: none; stroke: #ffa500; stroke-width: 1.5"/>
    <path d="M 256.825111 157.848754 
L 256.825111 146.334809 
" clip-path="url(#p2ab4cfffb9)" style="fill: none; stroke: #ffa500; stroke-width: 1.5"/>
    <path d="M 274.200988 68.495889 
L 274.200988 58.451202 
" clip-path="url(#p2ab4cfffb9)" style="fill: none; stroke: #ffa500; stroke-width: 1.5"/>
    <path d="M 359.251334 68.123162 
L 359.251334 64.454717 
" clip-path="url(#p2ab4cfffb9)" style="fill: none; stroke: #ffa500; stroke-width: 1.5"/>
    <path d="M 285.175226 129.596377 
L 285.175226 116.972088 
" clip-path="url(#p2ab4cfffb9)" style="fill: none; stroke: #ffa500; stroke-width: 1.5"/>
    <path d="M 264.14127 179.112438 
L 264.14127 167.223755 
" clip-path="url(#p2ab4cfffb9)" style="fill: none; stroke: #ffa500; stroke-width: 1.5"/>
    <path d="M 319.012461 72.284449 
L 319.012461 70.755467 
" clip-path="url(#p2ab4cfffb9)" style="fill: none; stroke: #ffa500; stroke-width: 1.5"/>
    <path d="M 314.439862 77.785327 
L 314.439862 69.244634 
" clip-path="url(#p2ab4cfffb9)" style="fill: none; stroke: #ffa500; stroke-width: 1.5"/>
    <path d="M 259.568671 154.137522 
L 259.568671 141.607457 
" clip-path="url(#p2ab4cfffb9)" style="fill: none; stroke: #ffa500; stroke-width: 1.5"/>
    <path d="M 220.244317 119.733286 
L 220.244317 108.008278 
" clip-path="url(#p2ab4cfffb9)" style="fill: none; stroke: #ffa500; stroke-width: 1.5"/>
    <path d="M 322.67054 78.187496 
L 322.67054 76.58639 
" clip-path="url(#p2ab4cfffb9)" style="fill: none; stroke: #ffa500; stroke-width: 1.5"/>
    <path d="M 282.431667 52.718138 
L 282.431667 50.754816 
" clip-path="url(#p2ab4cfffb9)" style="fill: none; stroke: #ffa500; stroke-width: 1.5"/>
    <path d="M 315.354381 106.489935 
L 315.354381 94.038505 
" clip-path="url(#p2ab4cfffb9)" style="fill: none; stroke: #ffa500; stroke-width: 1.5"/>
    <path d="M 319.012461 90.440068 
L 319.012461 86.080524 
" clip-path="url(#p2ab4cfffb9)" style="fill: none; stroke: #ffa500; stroke-width: 1.5"/>
    <path d="M 328.157659 118.06939 
L 328.157659 92.22657 
" clip-path="url(#p2ab4cfffb9)" style="fill: none; stroke: #ffa500; stroke-width: 1.5"/>
    <path d="M 314.439862 74.221872 
L 314.439862 70.376074 
" clip-path="url(#p2ab4cfffb9)" style="fill: none; stroke: #ffa500; stroke-width: 1.5"/>
    <path d="M 333.644778 96.340307 
L 333.644778 83.955496 
" clip-path="url(#p2ab4cfffb9)" style="fill: none; stroke: #ffa500; stroke-width: 1.5"/>
    <path d="M 330.901219 82.280653 
L 330.901219 69.620664 
" clip-path="url(#p2ab4cfffb9)" style="fill: none; stroke: #ffa500; stroke-width: 1.5"/>
   </g>
   <g id="line2d_33">
    <defs>
     <path id="mc9f01e210b" d="M 0 2 
L 0 -2 
" style="stroke: #ffa500"/>
    </defs>
    <g clip-path="url(#p2ab4cfffb9)">
     <use xlink:href="#mc9f01e210b" x="72.092102" y="257.907603" style="fill: #ffa500; stroke: #ffa500"/>
     <use xlink:href="#mc9f01e210b" x="328.157659" y="120.854758" style="fill: #ffa500; stroke: #ffa500"/>
     <use xlink:href="#mc9f01e210b" x="276.030028" y="73.443361" style="fill: #ffa500; stroke: #ffa500"/>
     <use xlink:href="#mc9f01e210b" x="219.329798" y="159.364084" style="fill: #ffa500; stroke: #ffa500"/>
     <use xlink:href="#mc9f01e210b" x="297.063984" y="78.590939" style="fill: #ffa500; stroke: #ffa500"/>
     <use xlink:href="#mc9f01e210b" x="319.012461" y="95.414585" style="fill: #ffa500; stroke: #ffa500"/>
     <use xlink:href="#mc9f01e210b" x="281.517147" y="98.212197" style="fill: #ffa500; stroke: #ffa500"/>
     <use xlink:href="#mc9f01e210b" x="183.663524" y="153.408086" style="fill: #ffa500; stroke: #ffa500"/>
     <use xlink:href="#mc9f01e210b" x="256.825111" y="160.128568" style="fill: #ffa500; stroke: #ffa500"/>
     <use xlink:href="#mc9f01e210b" x="307.123703" y="86.080524" style="fill: #ffa500; stroke: #ffa500"/>
     <use xlink:href="#mc9f01e210b" x="205.612" y="177.344545" style="fill: #ffa500; stroke: #ffa500"/>
     <use xlink:href="#mc9f01e210b" x="243.107314" y="132.64895" style="fill: #ffa500; stroke: #ffa500"/>
     <use xlink:href="#mc9f01e210b" x="275.115508" y="119.176233" style="fill: #ffa500; stroke: #ffa500"/>
     <use xlink:href="#mc9f01e210b" x="252.252512" y="148.41583" style="fill: #ffa500; stroke: #ffa500"/>
     <use xlink:href="#mc9f01e210b" x="321.75602" y="98.212197" style="fill: #ffa500; stroke: #ffa500"/>
     <use xlink:href="#mc9f01e210b" x="310.781782" y="78.590939" style="fill: #ffa500; stroke: #ffa500"/>
     <use xlink:href="#mc9f01e210b" x="237.620194" y="112.148032" style="fill: #ffa500; stroke: #ffa500"/>
     <use xlink:href="#mc9f01e210b" x="308.038223" y="86.509821" style="fill: #ffa500; stroke: #ffa500"/>
     <use xlink:href="#mc9f01e210b" x="297.978504" y="148.41583" style="fill: #ffa500; stroke: #ffa500"/>
     <use xlink:href="#mc9f01e210b" x="240.363754" y="159.364084" style="fill: #ffa500; stroke: #ffa500"/>
     <use xlink:href="#mc9f01e210b" x="328.157659" y="84.801255" style="fill: #ffa500; stroke: #ffa500"/>
     <use xlink:href="#mc9f01e210b" x="237.620194" y="142.940309" style="fill: #ffa500; stroke: #ffa500"/>
     <use xlink:href="#mc9f01e210b" x="317.183421" y="75.005174" style="fill: #ffa500; stroke: #ffa500"/>
     <use xlink:href="#mc9f01e210b" x="126.048773" y="146.334809" style="fill: #ffa500; stroke: #ffa500"/>
     <use xlink:href="#mc9f01e210b" x="309.867262" y="54.712219" style="fill: #ffa500; stroke: #ffa500"/>
     <use xlink:href="#mc9f01e210b" x="248.594433" y="151.961636" style="fill: #ffa500; stroke: #ffa500"/>
     <use xlink:href="#mc9f01e210b" x="265.97031" y="63.374488" style="fill: #ffa500; stroke: #ffa500"/>
     <use xlink:href="#mc9f01e210b" x="351.020655" y="66.275724" style="fill: #ffa500; stroke: #ffa500"/>
     <use xlink:href="#mc9f01e210b" x="276.944548" y="123.127786" style="fill: #ffa500; stroke: #ffa500"/>
     <use xlink:href="#mc9f01e210b" x="255.910591" y="173.029345" style="fill: #ffa500; stroke: #ffa500"/>
     <use xlink:href="#mc9f01e210b" x="310.781782" y="71.517662" style="fill: #ffa500; stroke: #ffa500"/>
     <use xlink:href="#mc9f01e210b" x="306.209183" y="73.443361" style="fill: #ffa500; stroke: #ffa500"/>
     <use xlink:href="#mc9f01e210b" x="251.337992" y="147.718369" style="fill: #ffa500; stroke: #ffa500"/>
     <use xlink:href="#mc9f01e210b" x="212.013639" y="113.735823" style="fill: #ffa500; stroke: #ffa500"/>
     <use xlink:href="#mc9f01e210b" x="314.439862" y="77.384425" style="fill: #ffa500; stroke: #ffa500"/>
     <use xlink:href="#mc9f01e210b" x="274.200988" y="51.732692" style="fill: #ffa500; stroke: #ffa500"/>
     <use xlink:href="#mc9f01e210b" x="306.209183" y="100.112027" style="fill: #ffa500; stroke: #ffa500"/>
     <use xlink:href="#mc9f01e210b" x="310.781782" y="88.241633" style="fill: #ffa500; stroke: #ffa500"/>
     <use xlink:href="#mc9f01e210b" x="319.926981" y="104.493248" style="fill: #ffa500; stroke: #ffa500"/>
     <use xlink:href="#mc9f01e210b" x="306.209183" y="72.284449" style="fill: #ffa500; stroke: #ffa500"/>
     <use xlink:href="#mc9f01e210b" x="324.49958" y="89.997333" style="fill: #ffa500; stroke: #ffa500"/>
     <use xlink:href="#mc9f01e210b" x="322.67054" y="75.793327" style="fill: #ffa500; stroke: #ffa500"/>
    </g>
   </g>
   <g id="line2d_34">
    <g clip-path="url(#p2ab4cfffb9)">
     <use xlink:href="#mc9f01e210b" x="90.382499" y="257.907603" style="fill: #ffa500; stroke: #ffa500"/>
     <use xlink:href="#mc9f01e210b" x="344.619016" y="120.854758" style="fill: #ffa500; stroke: #ffa500"/>
     <use xlink:href="#mc9f01e210b" x="292.491385" y="73.443361" style="fill: #ffa500; stroke: #ffa500"/>
     <use xlink:href="#mc9f01e210b" x="235.791155" y="159.364084" style="fill: #ffa500; stroke: #ffa500"/>
     <use xlink:href="#mc9f01e210b" x="313.525342" y="78.590939" style="fill: #ffa500; stroke: #ffa500"/>
     <use xlink:href="#mc9f01e210b" x="335.473818" y="95.414585" style="fill: #ffa500; stroke: #ffa500"/>
     <use xlink:href="#mc9f01e210b" x="297.978504" y="98.212197" style="fill: #ffa500; stroke: #ffa500"/>
     <use xlink:href="#mc9f01e210b" x="200.124881" y="153.408086" style="fill: #ffa500; stroke: #ffa500"/>
     <use xlink:href="#mc9f01e210b" x="273.286468" y="160.128568" style="fill: #ffa500; stroke: #ffa500"/>
     <use xlink:href="#mc9f01e210b" x="323.58506" y="86.080524" style="fill: #ffa500; stroke: #ffa500"/>
     <use xlink:href="#mc9f01e210b" x="222.073357" y="177.344545" style="fill: #ffa500; stroke: #ffa500"/>
     <use xlink:href="#mc9f01e210b" x="259.568671" y="132.64895" style="fill: #ffa500; stroke: #ffa500"/>
     <use xlink:href="#mc9f01e210b" x="291.576865" y="119.176233" style="fill: #ffa500; stroke: #ffa500"/>
     <use xlink:href="#mc9f01e210b" x="268.713869" y="148.41583" style="fill: #ffa500; stroke: #ffa500"/>
     <use xlink:href="#mc9f01e210b" x="338.217378" y="98.212197" style="fill: #ffa500; stroke: #ffa500"/>
     <use xlink:href="#mc9f01e210b" x="327.243139" y="78.590939" style="fill: #ffa500; stroke: #ffa500"/>
     <use xlink:href="#mc9f01e210b" x="254.081552" y="112.148032" style="fill: #ffa500; stroke: #ffa500"/>
     <use xlink:href="#mc9f01e210b" x="324.49958" y="86.509821" style="fill: #ffa500; stroke: #ffa500"/>
     <use xlink:href="#mc9f01e210b" x="314.439862" y="148.41583" style="fill: #ffa500; stroke: #ffa500"/>
     <use xlink:href="#mc9f01e210b" x="256.825111" y="159.364084" style="fill: #ffa500; stroke: #ffa500"/>
     <use xlink:href="#mc9f01e210b" x="344.619016" y="84.801255" style="fill: #ffa500; stroke: #ffa500"/>
     <use xlink:href="#mc9f01e210b" x="254.081552" y="142.940309" style="fill: #ffa500; stroke: #ffa500"/>
     <use xlink:href="#mc9f01e210b" x="333.644778" y="75.005174" style="fill: #ffa500; stroke: #ffa500"/>
     <use xlink:href="#mc9f01e210b" x="144.33917" y="146.334809" style="fill: #ffa500; stroke: #ffa500"/>
     <use xlink:href="#mc9f01e210b" x="326.32862" y="54.712219" style="fill: #ffa500; stroke: #ffa500"/>
     <use xlink:href="#mc9f01e210b" x="265.05579" y="151.961636" style="fill: #ffa500; stroke: #ffa500"/>
     <use xlink:href="#mc9f01e210b" x="282.431667" y="63.374488" style="fill: #ffa500; stroke: #ffa500"/>
     <use xlink:href="#mc9f01e210b" x="367.482013" y="66.275724" style="fill: #ffa500; stroke: #ffa500"/>
     <use xlink:href="#mc9f01e210b" x="293.405905" y="123.127786" style="fill: #ffa500; stroke: #ffa500"/>
     <use xlink:href="#mc9f01e210b" x="272.371949" y="173.029345" style="fill: #ffa500; stroke: #ffa500"/>
     <use xlink:href="#mc9f01e210b" x="327.243139" y="71.517662" style="fill: #ffa500; stroke: #ffa500"/>
     <use xlink:href="#mc9f01e210b" x="322.67054" y="73.443361" style="fill: #ffa500; stroke: #ffa500"/>
     <use xlink:href="#mc9f01e210b" x="267.799349" y="147.718369" style="fill: #ffa500; stroke: #ffa500"/>
     <use xlink:href="#mc9f01e210b" x="228.474996" y="113.735823" style="fill: #ffa500; stroke: #ffa500"/>
     <use xlink:href="#mc9f01e210b" x="330.901219" y="77.384425" style="fill: #ffa500; stroke: #ffa500"/>
     <use xlink:href="#mc9f01e210b" x="290.662346" y="51.732692" style="fill: #ffa500; stroke: #ffa500"/>
     <use xlink:href="#mc9f01e210b" x="324.49958" y="100.112027" style="fill: #ffa500; stroke: #ffa500"/>
     <use xlink:href="#mc9f01e210b" x="327.243139" y="88.241633" style="fill: #ffa500; stroke: #ffa500"/>
     <use xlink:href="#mc9f01e210b" x="336.388338" y="104.493248" style="fill: #ffa500; stroke: #ffa500"/>
     <use xlink:href="#mc9f01e210b" x="322.67054" y="72.284449" style="fill: #ffa500; stroke: #ffa500"/>
     <use xlink:href="#mc9f01e210b" x="342.789977" y="89.997333" style="fill: #ffa500; stroke: #ffa500"/>
     <use xlink:href="#mc9f01e210b" x="339.131897" y="75.793327" style="fill: #ffa500; stroke: #ffa500"/>
    </g>
   </g>
   <g id="line2d_35">
    <defs>
     <path id="m7f686c3d52" d="M 2 0 
L -2 -0 
" style="stroke: #ffa500"/>
    </defs>
    <g clip-path="url(#p2ab4cfffb9)">
     <use xlink:href="#m7f686c3d52" x="81.237301" y="262.966" style="fill: #ffa500; stroke: #ffa500"/>
     <use xlink:href="#m7f686c3d52" x="336.388338" y="126.02737" style="fill: #ffa500; stroke: #ffa500"/>
     <use xlink:href="#m7f686c3d52" x="284.260707" y="76.984782" style="fill: #ffa500; stroke: #ffa500"/>
     <use xlink:href="#m7f686c3d52" x="227.560476" y="161.67145" style="fill: #ffa500; stroke: #ffa500"/>
     <use xlink:href="#m7f686c3d52" x="305.294663" y="79.808998" style="fill: #ffa500; stroke: #ffa500"/>
     <use xlink:href="#m7f686c3d52" x="327.243139" y="96.340307" style="fill: #ffa500; stroke: #ffa500"/>
     <use xlink:href="#m7f686c3d52" x="289.747826" y="103.016021" style="fill: #ffa500; stroke: #ffa500"/>
     <use xlink:href="#m7f686c3d52" x="191.894202" y="159.364084" style="fill: #ffa500; stroke: #ffa500"/>
     <use xlink:href="#m7f686c3d52" x="265.05579" y="173.029345" style="fill: #ffa500; stroke: #ffa500"/>
     <use xlink:href="#m7f686c3d52" x="315.354381" y="91.330185" style="fill: #ffa500; stroke: #ffa500"/>
     <use xlink:href="#m7f686c3d52" x="213.842678" y="183.642675" style="fill: #ffa500; stroke: #ffa500"/>
     <use xlink:href="#m7f686c3d52" x="251.337992" y="138.982905" style="fill: #ffa500; stroke: #ffa500"/>
     <use xlink:href="#m7f686c3d52" x="283.346187" y="125.442145" style="fill: #ffa500; stroke: #ffa500"/>
     <use xlink:href="#m7f686c3d52" x="260.483191" y="154.871162" style="fill: #ffa500; stroke: #ffa500"/>
     <use xlink:href="#m7f686c3d52" x="329.986699" y="111.62314" style="fill: #ffa500; stroke: #ffa500"/>
     <use xlink:href="#m7f686c3d52" x="319.012461" y="84.801255" style="fill: #ffa500; stroke: #ffa500"/>
     <use xlink:href="#m7f686c3d52" x="245.850873" y="118.621609" style="fill: #ffa500; stroke: #ffa500"/>
     <use xlink:href="#m7f686c3d52" x="316.268901" y="92.677142" style="fill: #ffa500; stroke: #ffa500"/>
     <use xlink:href="#m7f686c3d52" x="306.209183" y="151.961636" style="fill: #ffa500; stroke: #ffa500"/>
     <use xlink:href="#m7f686c3d52" x="248.594433" y="165.612515" style="fill: #ffa500; stroke: #ffa500"/>
     <use xlink:href="#m7f686c3d52" x="336.388338" y="87.806466" style="fill: #ffa500; stroke: #ffa500"/>
     <use xlink:href="#m7f686c3d52" x="245.850873" y="149.117133" style="fill: #ffa500; stroke: #ffa500"/>
     <use xlink:href="#m7f686c3d52" x="325.4141" y="86.509821" style="fill: #ffa500; stroke: #ffa500"/>
     <use xlink:href="#m7f686c3d52" x="135.193972" y="152.682807" style="fill: #ffa500; stroke: #ffa500"/>
     <use xlink:href="#m7f686c3d52" x="318.097941" y="61.241149" style="fill: #ffa500; stroke: #ffa500"/>
     <use xlink:href="#m7f686c3d52" x="256.825111" y="157.848754" style="fill: #ffa500; stroke: #ffa500"/>
     <use xlink:href="#m7f686c3d52" x="274.200988" y="68.495889" style="fill: #ffa500; stroke: #ffa500"/>
     <use xlink:href="#m7f686c3d52" x="359.251334" y="68.123162" style="fill: #ffa500; stroke: #ffa500"/>
     <use xlink:href="#m7f686c3d52" x="285.175226" y="129.596377" style="fill: #ffa500; stroke: #ffa500"/>
     <use xlink:href="#m7f686c3d52" x="264.14127" y="179.112438" style="fill: #ffa500; stroke: #ffa500"/>
     <use xlink:href="#m7f686c3d52" x="319.012461" y="72.284449" style="fill: #ffa500; stroke: #ffa500"/>
     <use xlink:href="#m7f686c3d52" x="314.439862" y="77.785327" style="fill: #ffa500; stroke: #ffa500"/>
     <use xlink:href="#m7f686c3d52" x="259.568671" y="154.137522" style="fill: #ffa500; stroke: #ffa500"/>
     <use xlink:href="#m7f686c3d52" x="220.244317" y="119.733286" style="fill: #ffa500; stroke: #ffa500"/>
     <use xlink:href="#m7f686c3d52" x="322.67054" y="78.187496" style="fill: #ffa500; stroke: #ffa500"/>
     <use xlink:href="#m7f686c3d52" x="282.431667" y="52.718138" style="fill: #ffa500; stroke: #ffa500"/>
     <use xlink:href="#m7f686c3d52" x="315.354381" y="106.489935" style="fill: #ffa500; stroke: #ffa500"/>
     <use xlink:href="#m7f686c3d52" x="319.012461" y="90.440068" style="fill: #ffa500; stroke: #ffa500"/>
     <use xlink:href="#m7f686c3d52" x="328.157659" y="118.06939" style="fill: #ffa500; stroke: #ffa500"/>
     <use xlink:href="#m7f686c3d52" x="314.439862" y="74.221872" style="fill: #ffa500; stroke: #ffa500"/>
     <use xlink:href="#m7f686c3d52" x="333.644778" y="96.340307" style="fill: #ffa500; stroke: #ffa500"/>
     <use xlink:href="#m7f686c3d52" x="330.901219" y="82.280653" style="fill: #ffa500; stroke: #ffa500"/>
    </g>
   </g>
   <g id="line2d_36">
    <g clip-path="url(#p2ab4cfffb9)">
     <use xlink:href="#m7f686c3d52" x="81.237301" y="253.042569" style="fill: #ffa500; stroke: #ffa500"/>
     <use xlink:href="#m7f686c3d52" x="336.388338" y="115.884165" style="fill: #ffa500; stroke: #ffa500"/>
     <use xlink:href="#m7f686c3d52" x="284.260707" y="69.997809" style="fill: #ffa500; stroke: #ffa500"/>
     <use xlink:href="#m7f686c3d52" x="227.560476" y="157.0978" style="fill: #ffa500; stroke: #ffa500"/>
     <use xlink:href="#m7f686c3d52" x="305.294663" y="77.384425" style="fill: #ffa500; stroke: #ffa500"/>
     <use xlink:href="#m7f686c3d52" x="327.243139" y="94.495547" style="fill: #ffa500; stroke: #ffa500"/>
     <use xlink:href="#m7f686c3d52" x="289.747826" y="93.583097" style="fill: #ffa500; stroke: #ffa500"/>
     <use xlink:href="#m7f686c3d52" x="191.894202" y="147.718369" style="fill: #ffa500; stroke: #ffa500"/>
     <use xlink:href="#m7f686c3d52" x="265.05579" y="148.41583" style="fill: #ffa500; stroke: #ffa500"/>
     <use xlink:href="#m7f686c3d52" x="315.354381" y="81.038826" style="fill: #ffa500; stroke: #ffa500"/>
     <use xlink:href="#m7f686c3d52" x="213.842678" y="171.34341" style="fill: #ffa500; stroke: #ffa500"/>
     <use xlink:href="#m7f686c3d52" x="251.337992" y="126.615298" style="fill: #ffa500; stroke: #ffa500"/>
     <use xlink:href="#m7f686c3d52" x="283.346187" y="113.204356" style="fill: #ffa500; stroke: #ffa500"/>
     <use xlink:href="#m7f686c3d52" x="260.483191" y="142.272138" style="fill: #ffa500; stroke: #ffa500"/>
     <use xlink:href="#m7f686c3d52" x="329.986699" y="86.080524" style="fill: #ffa500; stroke: #ffa500"/>
     <use xlink:href="#m7f686c3d52" x="319.012461" y="72.669582" style="fill: #ffa500; stroke: #ffa500"/>
     <use xlink:href="#m7f686c3d52" x="245.850873" y="105.987819" style="fill: #ffa500; stroke: #ffa500"/>
     <use xlink:href="#m7f686c3d52" x="316.268901" y="80.627562" style="fill: #ffa500; stroke: #ffa500"/>
     <use xlink:href="#m7f686c3d52" x="306.209183" y="144.966127" style="fill: #ffa500; stroke: #ffa500"/>
     <use xlink:href="#m7f686c3d52" x="248.594433" y="153.408086" style="fill: #ffa500; stroke: #ffa500"/>
     <use xlink:href="#m7f686c3d52" x="336.388338" y="81.865363" style="fill: #ffa500; stroke: #ffa500"/>
     <use xlink:href="#m7f686c3d52" x="245.850873" y="137.049406" style="fill: #ffa500; stroke: #ffa500"/>
     <use xlink:href="#m7f686c3d52" x="325.4141" y="64.454717" style="fill: #ffa500; stroke: #ffa500"/>
     <use xlink:href="#m7f686c3d52" x="135.193972" y="140.288417" style="fill: #ffa500; stroke: #ffa500"/>
     <use xlink:href="#m7f686c3d52" x="318.097941" y="48.501903" style="fill: #ffa500; stroke: #ffa500"/>
     <use xlink:href="#m7f686c3d52" x="256.825111" y="146.334809" style="fill: #ffa500; stroke: #ffa500"/>
     <use xlink:href="#m7f686c3d52" x="274.200988" y="58.451202" style="fill: #ffa500; stroke: #ffa500"/>
     <use xlink:href="#m7f686c3d52" x="359.251334" y="64.454717" style="fill: #ffa500; stroke: #ffa500"/>
     <use xlink:href="#m7f686c3d52" x="285.175226" y="116.972088" style="fill: #ffa500; stroke: #ffa500"/>
     <use xlink:href="#m7f686c3d52" x="264.14127" y="167.223755" style="fill: #ffa500; stroke: #ffa500"/>
     <use xlink:href="#m7f686c3d52" x="319.012461" y="70.755467" style="fill: #ffa500; stroke: #ffa500"/>
     <use xlink:href="#m7f686c3d52" x="314.439862" y="69.244634" style="fill: #ffa500; stroke: #ffa500"/>
     <use xlink:href="#m7f686c3d52" x="259.568671" y="141.607457" style="fill: #ffa500; stroke: #ffa500"/>
     <use xlink:href="#m7f686c3d52" x="220.244317" y="108.008278" style="fill: #ffa500; stroke: #ffa500"/>
     <use xlink:href="#m7f686c3d52" x="322.67054" y="76.58639" style="fill: #ffa500; stroke: #ffa500"/>
     <use xlink:href="#m7f686c3d52" x="282.431667" y="50.754816" style="fill: #ffa500; stroke: #ffa500"/>
     <use xlink:href="#m7f686c3d52" x="315.354381" y="94.038505" style="fill: #ffa500; stroke: #ffa500"/>
     <use xlink:href="#m7f686c3d52" x="319.012461" y="86.080524" style="fill: #ffa500; stroke: #ffa500"/>
     <use xlink:href="#m7f686c3d52" x="328.157659" y="92.22657" style="fill: #ffa500; stroke: #ffa500"/>
     <use xlink:href="#m7f686c3d52" x="314.439862" y="70.376074" style="fill: #ffa500; stroke: #ffa500"/>
     <use xlink:href="#m7f686c3d52" x="333.644778" y="83.955496" style="fill: #ffa500; stroke: #ffa500"/>
     <use xlink:href="#m7f686c3d52" x="330.901219" y="69.620664" style="fill: #ffa500; stroke: #ffa500"/>
    </g>
   </g>
   <g id="line2d_37">
    <path d="M 76.664702 226.709425 
L 87.093437 221.09186 
L 128.808377 198.730569 
L 136.830481 194.254788 
L 198.600681 159.393303 
L 202.611733 157.067524 
L 217.05152 149.350602 
L 237.90899 138.096884 
L 242.722253 135.332018 
L 246.733305 133.130888 
L 255.557619 128.385414 
L 258.76646 126.400069 
L 268.392985 121.199815 
L 286.843824 110.359956 
L 289.250455 109.027329 
L 291.657086 107.619291 
L 292.459297 107.201693 
L 296.470349 104.569729 
L 303.690242 100.178181 
L 312.514557 94.741198 
L 318.93224 91.146111 
L 322.943292 89.072453 
L 330.163185 84.786112 
L 347.009603 74.85361 
L 376.691388 58.592066 
L 396.746648 48.071293 
L 396.746648 48.071293 
" clip-path="url(#p2ab4cfffb9)" style="fill: none; stroke: #000000; stroke-width: 1.5"/>
   </g>
   <g id="line2d_38">
    <path d="M 76.664702 253.98401 
L 87.895647 247.807917 
L 114.36859 233.78865 
L 135.22606 223.191677 
L 140.039322 220.52286 
L 154.479109 212.277846 
L 172.127738 202.767218 
L 195.391839 188.553847 
L 216.24931 177.275375 
L 234.700149 166.552559 
L 246.733305 160.188665 
L 252.348777 157.131331 
L 261.173092 152.796752 
L 263.579723 151.440933 
L 265.184144 150.416434 
L 277.217299 142.185129 
L 284.437193 137.74658 
L 292.459297 133.009482 
L 296.470349 131.040767 
L 301.283611 128.601289 
L 303.690242 127.221683 
L 306.096873 125.952032 
L 310.910136 122.948227 
L 314.118977 121.206781 
L 319.73445 117.499725 
L 326.954344 112.881321 
L 342.196341 103.891538 
L 359.84497 94.275176 
L 375.086967 85.464667 
L 396.746648 73.776781 
L 396.746648 73.776781 
" clip-path="url(#p2ab4cfffb9)" style="fill: none; stroke-dasharray: 5.55,2.4; stroke-dashoffset: 0; stroke: #ff0000; stroke-width: 1.5"/>
   </g>
   <g id="line2d_39">
    <path d="M 76.664702 201.88814 
L 83.884595 197.921196 
L 119.984063 178.124905 
L 138.434902 168.18022 
L 170.523317 150.119055 
L 181.754263 143.075979 
L 188.974156 138.617904 
L 196.19405 134.520226 
L 235.502359 111.881894 
L 242.722253 107.491066 
L 247.535515 104.561443 
L 250.744356 102.724963 
L 253.953198 100.683828 
L 268.392985 93.704608 
L 273.206247 91.006743 
L 275.612879 89.582452 
L 276.415089 89.034914 
L 279.623931 87.379403 
L 330.163185 58.72639 
L 335.778658 55.312549 
L 338.185289 53.864691 
L 340.59192 52.326962 
L 344.602972 50.163402 
L 368.669284 37.259076 
L 371.878126 35.473184 
L 378.295809 31.940704 
L 396.746648 21.046 
L 396.746648 21.046 
" clip-path="url(#p2ab4cfffb9)" style="fill: none; stroke-dasharray: 5.55,2.4; stroke-dashoffset: 0; stroke: #ff0000; stroke-width: 1.5"/>
   </g>
   <g id="line2d_40">
    <defs>
     <path id="m2d4000f145" d="M 0 3 
C 0.795609 3 1.55874 2.683901 2.12132 2.12132 
C 2.683901 1.55874 3 0.795609 3 0 
C 3 -0.795609 2.683901 -1.55874 2.12132 -2.12132 
C 1.55874 -2.683901 0.795609 -3 0 -3 
C -0.795609 -3 -1.55874 -2.683901 -2.12132 -2.12132 
C -2.683901 -1.55874 -3 -0.795609 -3 0 
C -3 0.795609 -2.683901 1.55874 -2.12132 2.12132 
C -1.55874 2.683901 -0.795609 3 0 3 
z
" style="stroke: #ffa500"/>
    </defs>
    <g clip-path="url(#p2ab4cfffb9)">
     <use xlink:href="#m2d4000f145" x="81.237301" y="257.907603" style="fill: #ffa500; stroke: #ffa500"/>
     <use xlink:href="#m2d4000f145" x="336.388338" y="120.854758" style="fill: #ffa500; stroke: #ffa500"/>
     <use xlink:href="#m2d4000f145" x="284.260707" y="73.443361" style="fill: #ffa500; stroke: #ffa500"/>
     <use xlink:href="#m2d4000f145" x="227.560476" y="159.364084" style="fill: #ffa500; stroke: #ffa500"/>
     <use xlink:href="#m2d4000f145" x="305.294663" y="78.590939" style="fill: #ffa500; stroke: #ffa500"/>
     <use xlink:href="#m2d4000f145" x="327.243139" y="95.414585" style="fill: #ffa500; stroke: #ffa500"/>
     <use xlink:href="#m2d4000f145" x="289.747826" y="98.212197" style="fill: #ffa500; stroke: #ffa500"/>
     <use xlink:href="#m2d4000f145" x="191.894202" y="153.408086" style="fill: #ffa500; stroke: #ffa500"/>
     <use xlink:href="#m2d4000f145" x="265.05579" y="160.128568" style="fill: #ffa500; stroke: #ffa500"/>
     <use xlink:href="#m2d4000f145" x="315.354381" y="86.080524" style="fill: #ffa500; stroke: #ffa500"/>
     <use xlink:href="#m2d4000f145" x="213.842678" y="177.344545" style="fill: #ffa500; stroke: #ffa500"/>
     <use xlink:href="#m2d4000f145" x="251.337992" y="132.64895" style="fill: #ffa500; stroke: #ffa500"/>
     <use xlink:href="#m2d4000f145" x="283.346187" y="119.176233" style="fill: #ffa500; stroke: #ffa500"/>
     <use xlink:href="#m2d4000f145" x="260.483191" y="148.41583" style="fill: #ffa500; stroke: #ffa500"/>
     <use xlink:href="#m2d4000f145" x="329.986699" y="98.212197" style="fill: #ffa500; stroke: #ffa500"/>
     <use xlink:href="#m2d4000f145" x="319.012461" y="78.590939" style="fill: #ffa500; stroke: #ffa500"/>
     <use xlink:href="#m2d4000f145" x="245.850873" y="112.148032" style="fill: #ffa500; stroke: #ffa500"/>
     <use xlink:href="#m2d4000f145" x="316.268901" y="86.509821" style="fill: #ffa500; stroke: #ffa500"/>
     <use xlink:href="#m2d4000f145" x="306.209183" y="148.41583" style="fill: #ffa500; stroke: #ffa500"/>
     <use xlink:href="#m2d4000f145" x="248.594433" y="159.364084" style="fill: #ffa500; stroke: #ffa500"/>
     <use xlink:href="#m2d4000f145" x="336.388338" y="84.801255" style="fill: #ffa500; stroke: #ffa500"/>
     <use xlink:href="#m2d4000f145" x="245.850873" y="142.940309" style="fill: #ffa500; stroke: #ffa500"/>
     <use xlink:href="#m2d4000f145" x="325.4141" y="75.005174" style="fill: #ffa500; stroke: #ffa500"/>
     <use xlink:href="#m2d4000f145" x="135.193972" y="146.334809" style="fill: #ffa500; stroke: #ffa500"/>
     <use xlink:href="#m2d4000f145" x="318.097941" y="54.712219" style="fill: #ffa500; stroke: #ffa500"/>
     <use xlink:href="#m2d4000f145" x="256.825111" y="151.961636" style="fill: #ffa500; stroke: #ffa500"/>
     <use xlink:href="#m2d4000f145" x="274.200988" y="63.374488" style="fill: #ffa500; stroke: #ffa500"/>
     <use xlink:href="#m2d4000f145" x="359.251334" y="66.275724" style="fill: #ffa500; stroke: #ffa500"/>
     <use xlink:href="#m2d4000f145" x="285.175226" y="123.127786" style="fill: #ffa500; stroke: #ffa500"/>
     <use xlink:href="#m2d4000f145" x="264.14127" y="173.029345" style="fill: #ffa500; stroke: #ffa500"/>
     <use xlink:href="#m2d4000f145" x="319.012461" y="71.517662" style="fill: #ffa500; stroke: #ffa500"/>
     <use xlink:href="#m2d4000f145" x="314.439862" y="73.443361" style="fill: #ffa500; stroke: #ffa500"/>
     <use xlink:href="#m2d4000f145" x="259.568671" y="147.718369" style="fill: #ffa500; stroke: #ffa500"/>
     <use xlink:href="#m2d4000f145" x="220.244317" y="113.735823" style="fill: #ffa500; stroke: #ffa500"/>
     <use xlink:href="#m2d4000f145" x="322.67054" y="77.384425" style="fill: #ffa500; stroke: #ffa500"/>
     <use xlink:href="#m2d4000f145" x="282.431667" y="51.732692" style="fill: #ffa500; stroke: #ffa500"/>
     <use xlink:href="#m2d4000f145" x="315.354381" y="100.112027" style="fill: #ffa500; stroke: #ffa500"/>
     <use xlink:href="#m2d4000f145" x="319.012461" y="88.241633" style="fill: #ffa500; stroke: #ffa500"/>
     <use xlink:href="#m2d4000f145" x="328.157659" y="104.493248" style="fill: #ffa500; stroke: #ffa500"/>
     <use xlink:href="#m2d4000f145" x="314.439862" y="72.284449" style="fill: #ffa500; stroke: #ffa500"/>
     <use xlink:href="#m2d4000f145" x="333.644778" y="89.997333" style="fill: #ffa500; stroke: #ffa500"/>
     <use xlink:href="#m2d4000f145" x="330.901219" y="75.793327" style="fill: #ffa500; stroke: #ffa500"/>
    </g>
   </g>
   <g id="patch_3">
    <path d="M 55.859375 275.062 
L 55.859375 8.95 
" style="fill: none; stroke: #000000; stroke-width: 0.8; stroke-linejoin: miter; stroke-linecap: square"/>
   </g>
   <g id="patch_4">
    <path d="M 412.979375 275.062 
L 412.979375 8.95 
" style="fill: none; stroke: #000000; stroke-width: 0.8; stroke-linejoin: miter; stroke-linecap: square"/>
   </g>
   <g id="patch_5">
    <path d="M 55.859375 275.062 
L 412.979375 275.062 
" style="fill: none; stroke: #000000; stroke-width: 0.8; stroke-linejoin: miter; stroke-linecap: square"/>
   </g>
   <g id="patch_6">
    <path d="M 55.859375 8.95 
L 412.979375 8.95 
" style="fill: none; stroke: #000000; stroke-width: 0.8; stroke-linejoin: miter; stroke-linecap: square"/>
   </g>
  </g>
 </g>
 <defs>
  <clipPath id="p2ab4cfffb9">
   <rect x="55.859375" y="8.95" width="357.12" height="266.112"/>
  </clipPath>
 </defs>
</svg>
