<?xml version="1.0" encoding="utf-8" standalone="no"?>
<!DOCTYPE svg PUBLIC "-//W3C//DTD SVG 1.1//EN"
  "http://www.w3.org/Graphics/SVG/1.1/DTD/svg11.dtd">
<svg xmlns:xlink="http://www.w3.org/1999/xlink" width="421.529375pt" height="310.062pt" viewBox="0 0 421.529375 310.062" xmlns="http://www.w3.org/2000/svg" version="1.1">
 <metadata>
  <rdf:RDF xmlns:dc="http://purl.org/dc/elements/1.1/" xmlns:cc="http://creativecommons.org/ns#" xmlns:rdf="http://www.w3.org/1999/02/22-rdf-syntax-ns#">
   <cc:Work>
    <dc:type rdf:resource="http://purl.org/dc/dcmitype/StillImage"/>
    <dc:date>2023-05-11T19:06:06.436796</dc:date>
    <dc:format>image/svg+xml</dc:format>
    <dc:creator>
     <cc:Agent>
      <dc:title>Matplotlib v3.5.1, https://matplotlib.org/</dc:title>
     </cc:Agent>
    </dc:creator>
   </cc:Work>
  </rdf:RDF>
 </metadata>
 <defs>
  <style type="text/css">*{stroke-linejoin: round; stroke-linecap: butt}</style>
 </defs>
 <g id="figure_1">
  <g id="patch_1">
   <path d="M 0 310.062 
L 421.529375 310.062 
L 421.529375 0 
L 0 0 
z
" style="fill: #ffffff"/>
  </g>
  <g id="axes_1">
   <g id="patch_2">
    <path d="M 55.459375 275.062 
L 412.579375 275.062 
L 412.579375 8.95 
L 55.459375 8.95 
z
" style="fill: #ffffff"/>
   </g>
   <g id="PolyCollection_1">
    <defs>
     <path id="m8a2e9f5ff1" d="M 76.264702 -101.895308 
L 76.264702 -53.445289 
L 77.066912 -53.995891 
L 77.869122 -54.546493 
L 78.671333 -55.097096 
L 79.473543 -55.6477 
L 80.275753 -56.198304 
L 81.077964 -56.748908 
L 81.880174 -57.299513 
L 82.682385 -57.850119 
L 83.484595 -58.400725 
L 84.286805 -58.951332 
L 85.089016 -59.501939 
L 85.891226 -60.052547 
L 86.693437 -60.603155 
L 87.495647 -61.153763 
L 88.297857 -61.704373 
L 89.100068 -62.254982 
L 89.902278 -62.805593 
L 90.704489 -63.356203 
L 91.506699 -63.906815 
L 92.308909 -64.457426 
L 93.11112 -65.008039 
L 93.91333 -65.568446 
L 94.715541 -66.130668 
L 95.517751 -66.692891 
L 96.319961 -67.255114 
L 97.122172 -67.817338 
L 97.924382 -68.379562 
L 98.726592 -68.941786 
L 99.528803 -69.504012 
L 100.331013 -70.066237 
L 101.133224 -70.628463 
L 101.935434 -71.19069 
L 102.737644 -71.752917 
L 103.539855 -72.315145 
L 104.342065 -72.877373 
L 105.144276 -73.439602 
L 105.946486 -74.001831 
L 106.748696 -74.564061 
L 107.550907 -75.126292 
L 108.353117 -75.688522 
L 109.155328 -76.250754 
L 109.957538 -76.812986 
L 110.759748 -77.375218 
L 111.561959 -77.937451 
L 112.364169 -78.499684 
L 113.16638 -79.061918 
L 113.96859 -79.624153 
L 114.7708 -80.186388 
L 115.573011 -80.748623 
L 116.375221 -81.310859 
L 117.177431 -81.873096 
L 117.979642 -82.435333 
L 118.781852 -82.99757 
L 119.584063 -83.559809 
L 120.386273 -84.122047 
L 121.188483 -84.684286 
L 121.990694 -85.246526 
L 122.792904 -85.808766 
L 123.595115 -86.371007 
L 124.397325 -86.933248 
L 125.199535 -87.49549 
L 126.001746 -88.057732 
L 126.803956 -88.619974 
L 127.606167 -89.182218 
L 128.408377 -89.744461 
L 129.210587 -90.306706 
L 130.012798 -90.86895 
L 130.815008 -91.431196 
L 131.617219 -91.993442 
L 132.419429 -92.555688 
L 133.221639 -93.117935 
L 134.02385 -93.680182 
L 134.82606 -94.24243 
L 135.62827 -94.804678 
L 136.430481 -95.366927 
L 137.232691 -95.929177 
L 138.034902 -96.491427 
L 138.837112 -97.053677 
L 139.639322 -97.615928 
L 140.441533 -98.17818 
L 141.243743 -98.740431 
L 142.045954 -99.302684 
L 142.848164 -99.864937 
L 143.650374 -100.427191 
L 144.452585 -100.989445 
L 145.254795 -101.551699 
L 146.057006 -102.113954 
L 146.859216 -102.67621 
L 147.661426 -103.238466 
L 148.463637 -103.800723 
L 149.265847 -104.36298 
L 150.068058 -104.925237 
L 150.870268 -105.487496 
L 151.672478 -106.049754 
L 152.474689 -106.612013 
L 153.276899 -107.174273 
L 154.079109 -107.736533 
L 154.88132 -108.298794 
L 155.68353 -108.861055 
L 156.485741 -109.423317 
L 157.287951 -109.985579 
L 158.090161 -110.547842 
L 158.892372 -111.110105 
L 159.694582 -111.672369 
L 160.496793 -112.234634 
L 161.299003 -112.796898 
L 162.101213 -113.359164 
L 162.903424 -113.92143 
L 163.705634 -114.483696 
L 164.507845 -115.045963 
L 165.310055 -115.60823 
L 166.112265 -116.170498 
L 166.914476 -116.732767 
L 167.716686 -117.295036 
L 168.518897 -117.857305 
L 169.321107 -118.419575 
L 170.123317 -118.981846 
L 170.925528 -119.544117 
L 171.727738 -120.106388 
L 172.529948 -120.66866 
L 173.332159 -121.230933 
L 174.134369 -121.793206 
L 174.93658 -122.355479 
L 175.73879 -122.917753 
L 176.541 -123.480028 
L 177.343211 -124.042303 
L 178.145421 -124.604579 
L 178.947632 -125.166855 
L 179.749842 -125.729132 
L 180.552052 -126.291409 
L 181.354263 -126.853686 
L 182.156473 -127.415965 
L 182.958684 -127.978243 
L 183.760894 -128.540523 
L 184.563104 -129.102802 
L 185.365315 -129.665082 
L 186.167525 -130.227363 
L 186.969736 -130.789644 
L 187.771946 -131.351926 
L 188.574156 -131.914209 
L 189.376367 -132.476491 
L 190.178577 -133.038775 
L 190.980787 -133.601058 
L 191.782998 -134.173307 
L 192.585208 -134.746725 
L 193.387419 -135.320143 
L 194.189629 -135.893563 
L 194.991839 -136.466985 
L 195.79405 -137.040408 
L 196.59626 -137.613833 
L 197.398471 -138.18726 
L 198.200681 -138.760687 
L 199.002891 -139.334117 
L 199.805102 -139.907548 
L 200.607312 -140.48098 
L 201.409523 -141.054414 
L 202.211733 -141.62785 
L 203.013943 -142.201287 
L 203.816154 -142.774726 
L 204.618364 -143.348166 
L 205.420575 -143.921607 
L 206.222785 -144.495051 
L 207.024995 -145.068495 
L 207.827206 -145.641942 
L 208.629416 -146.215389 
L 209.431626 -146.788839 
L 210.233837 -147.36229 
L 211.036047 -147.935742 
L 211.838258 -148.509196 
L 212.640468 -149.082651 
L 213.442678 -149.656108 
L 214.244889 -150.229567 
L 215.047099 -150.803027 
L 215.84931 -151.376489 
L 216.65152 -151.949952 
L 217.45373 -152.523417 
L 218.255941 -153.096883 
L 219.058151 -153.670351 
L 219.860362 -154.24382 
L 220.662572 -154.817291 
L 221.464782 -155.390763 
L 222.266993 -155.964237 
L 223.069203 -156.537713 
L 223.871414 -157.11119 
L 224.673624 -157.684668 
L 225.475834 -158.258148 
L 226.278045 -158.83163 
L 227.080255 -159.378419 
L 227.882466 -159.878181 
L 228.684676 -160.377965 
L 229.486886 -160.87777 
L 230.289097 -161.377596 
L 231.091307 -161.877443 
L 231.893517 -162.377311 
L 232.695728 -162.902721 
L 233.497938 -163.476973 
L 234.300149 -164.051247 
L 235.102359 -164.625543 
L 235.904569 -165.199859 
L 236.70678 -165.774196 
L 237.50899 -166.348555 
L 238.311201 -166.922935 
L 239.113411 -167.497336 
L 239.915621 -168.071758 
L 240.717832 -168.646201 
L 241.520042 -169.220666 
L 242.322253 -169.786918 
L 243.124463 -170.304831 
L 243.926673 -170.822748 
L 244.728884 -171.34067 
L 245.531094 -171.858595 
L 246.333305 -172.376525 
L 247.135515 -172.894459 
L 247.937725 -173.412397 
L 248.739936 -173.930339 
L 249.542146 -174.448285 
L 250.344356 -174.966235 
L 251.146567 -175.484189 
L 251.948777 -176.002147 
L 252.750988 -176.483057 
L 253.553198 -176.94299 
L 254.355408 -177.402924 
L 255.157619 -177.862858 
L 255.959829 -178.322792 
L 256.76204 -178.782727 
L 257.56425 -179.242662 
L 258.36646 -179.702597 
L 259.168671 -180.162533 
L 259.970881 -180.622469 
L 260.773092 -181.082406 
L 261.575302 -181.542342 
L 262.377512 -182.00228 
L 263.179723 -182.463118 
L 263.981933 -182.938088 
L 264.784144 -183.413069 
L 265.586354 -183.88806 
L 266.388564 -184.363062 
L 267.190775 -184.838074 
L 267.992985 -185.313097 
L 268.795195 -185.788131 
L 269.597406 -186.263174 
L 270.399616 -186.732978 
L 271.201827 -187.200931 
L 272.004037 -187.668897 
L 272.806247 -188.136876 
L 273.608458 -188.604867 
L 274.410668 -189.072871 
L 275.212879 -189.540888 
L 276.015089 -190.008918 
L 276.817299 -190.476961 
L 277.61951 -190.945016 
L 278.42172 -191.413084 
L 279.223931 -191.881165 
L 280.026141 -192.349259 
L 280.828351 -192.865712 
L 281.630562 -193.369982 
L 282.432772 -193.946829 
L 283.234983 -194.474582 
L 284.037193 -195.002345 
L 284.839403 -195.522516 
L 285.641614 -196.014704 
L 286.443824 -196.506918 
L 287.246034 -197.019903 
L 288.048245 -197.455221 
L 288.850455 -197.894058 
L 289.652666 -198.34963 
L 290.454876 -198.805204 
L 291.257086 -199.260779 
L 292.059297 -199.716356 
L 292.861507 -200.171934 
L 293.663718 -200.578906 
L 294.465928 -200.981712 
L 295.268138 -201.38452 
L 296.070349 -201.787329 
L 296.872559 -202.191396 
L 297.67477 -202.734101 
L 298.47698 -203.293212 
L 299.27919 -203.816618 
L 300.081401 -204.27221 
L 300.883611 -204.685322 
L 301.685822 -205.08072 
L 302.488032 -205.476127 
L 303.290242 -205.871541 
L 304.092453 -206.266963 
L 304.894663 -206.662392 
L 305.696873 -207.069461 
L 306.499084 -207.509883 
L 307.301294 -207.950313 
L 308.103505 -208.390751 
L 308.905715 -208.835441 
L 309.707925 -209.286008 
L 310.510136 -209.736577 
L 311.312346 -210.187148 
L 312.114557 -210.637719 
L 312.916767 -211.088291 
L 313.718977 -211.538864 
L 314.521188 -211.990802 
L 315.323398 -212.445403 
L 316.125609 -212.900004 
L 316.927819 -213.354605 
L 317.730029 -213.809206 
L 318.53224 -214.263808 
L 319.33445 -214.718409 
L 320.136661 -215.173011 
L 320.938871 -215.627612 
L 321.741081 -216.082214 
L 322.543292 -216.536816 
L 323.345502 -216.991418 
L 324.147712 -217.44602 
L 324.949923 -217.900622 
L 325.752133 -218.355224 
L 326.554344 -218.809827 
L 327.356554 -219.264429 
L 328.158764 -219.719032 
L 328.960975 -220.178365 
L 329.763185 -220.638333 
L 330.565396 -221.098302 
L 331.367606 -221.558272 
L 332.169816 -222.018241 
L 332.972027 -222.478211 
L 333.774237 -222.938181 
L 334.576448 -223.337399 
L 335.378658 -223.734759 
L 336.180868 -224.132131 
L 336.983079 -224.529515 
L 337.785289 -224.926911 
L 338.5875 -225.316747 
L 339.38971 -225.694183 
L 340.19192 -226.071619 
L 340.994131 -226.449054 
L 341.796341 -226.82649 
L 342.598551 -227.246159 
L 343.400762 -227.679076 
L 344.202972 -228.112 
L 345.005183 -228.54493 
L 345.807393 -228.977866 
L 346.609603 -229.410809 
L 347.411814 -229.843758 
L 348.214024 -230.276714 
L 349.016235 -230.709675 
L 349.818445 -231.142644 
L 350.620655 -231.575619 
L 351.422866 -232.0086 
L 352.225076 -232.441587 
L 353.027287 -232.880037 
L 353.829497 -233.323518 
L 354.631707 -233.766999 
L 355.433918 -234.21048 
L 356.236128 -234.653962 
L 357.038339 -235.097444 
L 357.840549 -235.540927 
L 358.642759 -235.982882 
L 359.44497 -236.400469 
L 360.24718 -236.818056 
L 361.04939 -237.235643 
L 361.851601 -237.653231 
L 362.653811 -238.070818 
L 363.456022 -238.488406 
L 364.258232 -238.905994 
L 365.060442 -239.323582 
L 365.862653 -239.741171 
L 366.664863 -240.15876 
L 367.467074 -240.576349 
L 368.269284 -240.993938 
L 369.071494 -241.411527 
L 369.873705 -241.829117 
L 370.675915 -242.246707 
L 371.478126 -242.664297 
L 372.280336 -243.081887 
L 373.082546 -243.499478 
L 373.884757 -243.917069 
L 374.686967 -244.33466 
L 375.489178 -244.752251 
L 376.291388 -245.169842 
L 377.093598 -245.587434 
L 377.895809 -246.005026 
L 378.698019 -246.422618 
L 379.50023 -246.840211 
L 380.30244 -247.257803 
L 381.10465 -247.675396 
L 381.906861 -248.092989 
L 382.709071 -248.510582 
L 383.511281 -248.928176 
L 384.313492 -249.34577 
L 385.115702 -249.763364 
L 385.917913 -250.180958 
L 386.720123 -250.598552 
L 387.522333 -251.016147 
L 388.324544 -251.405294 
L 389.126754 -251.790788 
L 389.928965 -252.176286 
L 390.731175 -252.561787 
L 391.533385 -252.947292 
L 392.335596 -253.332801 
L 393.137806 -253.718314 
L 393.940017 -254.103831 
L 394.742227 -254.489351 
L 395.544437 -254.874875 
L 396.346648 -255.260403 
L 396.346648 -276.315319 
L 396.346648 -276.315319 
L 395.544437 -275.733137 
L 394.742227 -275.150959 
L 393.940017 -274.568784 
L 393.137806 -273.986614 
L 392.335596 -273.404447 
L 391.533385 -272.822284 
L 390.731175 -272.240124 
L 389.928965 -271.657969 
L 389.126754 -271.075817 
L 388.324544 -270.493669 
L 387.522333 -269.911525 
L 386.720123 -269.329385 
L 385.917913 -268.747248 
L 385.115702 -268.165115 
L 384.313492 -267.571148 
L 383.511281 -266.975388 
L 382.709071 -266.379629 
L 381.906861 -265.78387 
L 381.10465 -265.188111 
L 380.30244 -264.592352 
L 379.50023 -263.996594 
L 378.698019 -263.400835 
L 377.895809 -262.805077 
L 377.093598 -262.209319 
L 376.291388 -261.613561 
L 375.489178 -261.017803 
L 374.686967 -260.422045 
L 373.884757 -259.826287 
L 373.082546 -259.23053 
L 372.280336 -258.634773 
L 371.478126 -258.039016 
L 370.675915 -257.443259 
L 369.873705 -256.847502 
L 369.071494 -256.251745 
L 368.269284 -255.655989 
L 367.467074 -255.060232 
L 366.664863 -254.464476 
L 365.862653 -253.86872 
L 365.060442 -253.281192 
L 364.258232 -252.735359 
L 363.456022 -252.189534 
L 362.653811 -251.643717 
L 361.851601 -251.097906 
L 361.04939 -250.553282 
L 360.24718 -250.023466 
L 359.44497 -249.493663 
L 358.642759 -248.96387 
L 357.840549 -248.43409 
L 357.038339 -247.904322 
L 356.236128 -247.374565 
L 355.433918 -246.84482 
L 354.631707 -246.315086 
L 353.829497 -245.785365 
L 353.027287 -245.255655 
L 352.225076 -244.725957 
L 351.422866 -244.19627 
L 350.620655 -243.666596 
L 349.818445 -243.136933 
L 349.016235 -242.607282 
L 348.214024 -242.077642 
L 347.411814 -241.576258 
L 346.609603 -241.123648 
L 345.807393 -240.671086 
L 345.005183 -240.218573 
L 344.202972 -239.766107 
L 343.400762 -239.31369 
L 342.598551 -238.814645 
L 341.796341 -238.250444 
L 340.994131 -237.686291 
L 340.19192 -237.122186 
L 339.38971 -236.55813 
L 338.5875 -235.994121 
L 337.785289 -235.450473 
L 336.983079 -234.961061 
L 336.180868 -234.471662 
L 335.378658 -233.982275 
L 334.576448 -233.492901 
L 333.774237 -233.003539 
L 332.972027 -232.51419 
L 332.169816 -232.024853 
L 331.367606 -231.535529 
L 330.565396 -231.037311 
L 329.763185 -230.515545 
L 328.960975 -229.993784 
L 328.158764 -229.472027 
L 327.356554 -228.950274 
L 326.554344 -228.428526 
L 325.752133 -227.906781 
L 324.949923 -227.385041 
L 324.147712 -226.863305 
L 323.345502 -226.341573 
L 322.543292 -225.819846 
L 321.741081 -225.298123 
L 320.938871 -224.776403 
L 320.136661 -224.254688 
L 319.33445 -223.732978 
L 318.53224 -223.211271 
L 317.730029 -222.689569 
L 316.927819 -222.148856 
L 316.125609 -221.604915 
L 315.323398 -221.061008 
L 314.521188 -220.517136 
L 313.718977 -219.973299 
L 312.916767 -219.429496 
L 312.114557 -218.885729 
L 311.312346 -218.253123 
L 310.510136 -217.614406 
L 309.707925 -216.975723 
L 308.905715 -216.337076 
L 308.103505 -215.698463 
L 307.301294 -215.231994 
L 306.499084 -214.82381 
L 305.696873 -214.415648 
L 304.894663 -214.007508 
L 304.092453 -213.59939 
L 303.290242 -213.191293 
L 302.488032 -212.78792 
L 301.685822 -212.29046 
L 300.883611 -211.803913 
L 300.081401 -211.320884 
L 299.27919 -210.837877 
L 298.47698 -210.354891 
L 297.67477 -209.871926 
L 296.872559 -209.388984 
L 296.070349 -208.906063 
L 295.268138 -208.423164 
L 294.465928 -207.983188 
L 293.663718 -207.602301 
L 292.861507 -207.180493 
L 292.059297 -206.758753 
L 291.257086 -206.33708 
L 290.454876 -205.915474 
L 289.652666 -205.493935 
L 288.850455 -205.100764 
L 288.048245 -204.726426 
L 287.246034 -204.352088 
L 286.443824 -203.97775 
L 285.641614 -203.603412 
L 284.839403 -203.229074 
L 284.037193 -202.781743 
L 283.234983 -202.276225 
L 282.432772 -201.770743 
L 281.630562 -201.265297 
L 280.828351 -200.759888 
L 280.026141 -200.254514 
L 279.223931 -199.749176 
L 278.42172 -199.243874 
L 277.61951 -198.738609 
L 276.817299 -198.23338 
L 276.015089 -197.728186 
L 275.212879 -197.223029 
L 274.410668 -196.717909 
L 273.608458 -196.212824 
L 272.806247 -195.707776 
L 272.004037 -195.181911 
L 271.201827 -194.644665 
L 270.399616 -194.107419 
L 269.597406 -193.570174 
L 268.795195 -193.032929 
L 267.992985 -192.606908 
L 267.190775 -192.197926 
L 266.388564 -191.788974 
L 265.586354 -191.380051 
L 264.784144 -190.971158 
L 263.981933 -190.562294 
L 263.179723 -190.153459 
L 262.377512 -189.744654 
L 261.575302 -189.335878 
L 260.773092 -188.927131 
L 259.970881 -188.518414 
L 259.168671 -188.109726 
L 258.36646 -187.701067 
L 257.56425 -187.292437 
L 256.76204 -186.883837 
L 255.959829 -186.475266 
L 255.157619 -186.066724 
L 254.355408 -185.68601 
L 253.553198 -185.308574 
L 252.750988 -184.931139 
L 251.948777 -184.553703 
L 251.146567 -184.176268 
L 250.344356 -183.798832 
L 249.542146 -183.421396 
L 248.739936 -183.043961 
L 247.937725 -182.666525 
L 247.135515 -182.28909 
L 246.333305 -181.911654 
L 245.531094 -181.534218 
L 244.728884 -181.156783 
L 243.926673 -180.779347 
L 243.124463 -180.401912 
L 242.322253 -180.024476 
L 241.520042 -179.64704 
L 240.717832 -179.269605 
L 239.915621 -178.892169 
L 239.113411 -178.514734 
L 238.311201 -178.137298 
L 237.50899 -177.759862 
L 236.70678 -177.382427 
L 235.904569 -177.004991 
L 235.102359 -176.627556 
L 234.300149 -176.25012 
L 233.497938 -175.872684 
L 232.695728 -175.495249 
L 231.893517 -175.117813 
L 231.091307 -174.740378 
L 230.289097 -174.362942 
L 229.486886 -173.985506 
L 228.684676 -173.608071 
L 227.882466 -173.230635 
L 227.080255 -172.8532 
L 226.278045 -172.475764 
L 225.475834 -172.098329 
L 224.673624 -171.720893 
L 223.871414 -171.343457 
L 223.069203 -170.966022 
L 222.266993 -170.588586 
L 221.464782 -170.211151 
L 220.662572 -169.833715 
L 219.860362 -169.456279 
L 219.058151 -169.078844 
L 218.255941 -168.701408 
L 217.45373 -168.323973 
L 216.65152 -167.946537 
L 215.84931 -167.569101 
L 215.047099 -167.191666 
L 214.244889 -166.81423 
L 213.442678 -166.436795 
L 212.640468 -166.059359 
L 211.838258 -165.681923 
L 211.036047 -165.304488 
L 210.233837 -164.927052 
L 209.431626 -164.549617 
L 208.629416 -164.172181 
L 207.827206 -163.794745 
L 207.024995 -163.41731 
L 206.222785 -163.039874 
L 205.420575 -162.662439 
L 204.618364 -162.285003 
L 203.816154 -161.907567 
L 203.013943 -161.530132 
L 202.211733 -161.152696 
L 201.409523 -160.775261 
L 200.607312 -160.397825 
L 199.805102 -160.020389 
L 199.002891 -159.642954 
L 198.200681 -159.265518 
L 197.398471 -158.888083 
L 196.59626 -158.510647 
L 195.79405 -158.133212 
L 194.991839 -157.755776 
L 194.189629 -157.37834 
L 193.387419 -157.000905 
L 192.585208 -156.623469 
L 191.782998 -156.246034 
L 190.980787 -155.868598 
L 190.178577 -155.491162 
L 189.376367 -155.113727 
L 188.574156 -154.736291 
L 187.771946 -154.358856 
L 186.969736 -153.98142 
L 186.167525 -153.603984 
L 185.365315 -153.226549 
L 184.563104 -152.849113 
L 183.760894 -152.471678 
L 182.958684 -152.094242 
L 182.156473 -151.716806 
L 181.354263 -151.339371 
L 180.552052 -150.961935 
L 179.749842 -150.5845 
L 178.947632 -150.207064 
L 178.145421 -149.829628 
L 177.343211 -149.452193 
L 176.541 -149.074757 
L 175.73879 -148.697322 
L 174.93658 -148.319886 
L 174.134369 -147.94245 
L 173.332159 -147.565015 
L 172.529948 -147.187579 
L 171.727738 -146.810144 
L 170.925528 -146.432708 
L 170.123317 -146.055272 
L 169.321107 -145.677837 
L 168.518897 -145.300401 
L 167.716686 -144.922966 
L 166.914476 -144.54553 
L 166.112265 -144.168095 
L 165.310055 -143.790659 
L 164.507845 -143.413223 
L 163.705634 -143.035788 
L 162.903424 -142.658352 
L 162.101213 -142.280917 
L 161.299003 -141.903481 
L 160.496793 -141.526045 
L 159.694582 -141.14861 
L 158.892372 -140.771174 
L 158.090161 -140.393739 
L 157.287951 -140.016303 
L 156.485741 -139.638867 
L 155.68353 -139.261432 
L 154.88132 -138.883996 
L 154.079109 -138.506561 
L 153.276899 -138.129125 
L 152.474689 -137.751689 
L 151.672478 -137.374254 
L 150.870268 -136.996818 
L 150.068058 -136.619383 
L 149.265847 -136.241947 
L 148.463637 -135.864511 
L 147.661426 -135.487076 
L 146.859216 -135.10964 
L 146.057006 -134.732205 
L 145.254795 -134.354769 
L 144.452585 -133.977333 
L 143.650374 -133.599898 
L 142.848164 -133.222462 
L 142.045954 -132.845027 
L 141.243743 -132.467591 
L 140.441533 -132.090155 
L 139.639322 -131.71272 
L 138.837112 -131.335284 
L 138.034902 -130.957849 
L 137.232691 -130.580413 
L 136.430481 -130.202978 
L 135.62827 -129.825542 
L 134.82606 -129.448106 
L 134.02385 -129.070671 
L 133.221639 -128.693235 
L 132.419429 -128.3158 
L 131.617219 -127.938364 
L 130.815008 -127.560928 
L 130.012798 -127.183493 
L 129.210587 -126.806057 
L 128.408377 -126.428622 
L 127.606167 -126.051186 
L 126.803956 -125.67375 
L 126.001746 -125.296315 
L 125.199535 -124.918879 
L 124.397325 -124.541444 
L 123.595115 -124.164008 
L 122.792904 -123.786572 
L 121.990694 -123.409137 
L 121.188483 -123.031701 
L 120.386273 -122.654266 
L 119.584063 -122.27683 
L 118.781852 -121.899394 
L 117.979642 -121.521959 
L 117.177431 -121.144523 
L 116.375221 -120.767088 
L 115.573011 -120.389652 
L 114.7708 -120.012216 
L 113.96859 -119.634781 
L 113.16638 -119.257345 
L 112.364169 -118.87991 
L 111.561959 -118.502474 
L 110.759748 -118.125038 
L 109.957538 -117.747603 
L 109.155328 -117.370167 
L 108.353117 -116.992732 
L 107.550907 -116.615296 
L 106.748696 -116.237861 
L 105.946486 -115.860425 
L 105.144276 -115.482989 
L 104.342065 -115.105554 
L 103.539855 -114.728118 
L 102.737644 -114.350683 
L 101.935434 -113.973247 
L 101.133224 -113.595811 
L 100.331013 -113.218376 
L 99.528803 -112.84094 
L 98.726592 -112.463505 
L 97.924382 -112.086069 
L 97.122172 -111.708633 
L 96.319961 -111.331198 
L 95.517751 -110.953762 
L 94.715541 -110.576327 
L 93.91333 -110.198891 
L 93.11112 -109.821455 
L 92.308909 -109.44402 
L 91.506699 -109.066584 
L 90.704489 -108.689149 
L 89.902278 -108.311713 
L 89.100068 -107.934277 
L 88.297857 -107.556842 
L 87.495647 -107.179406 
L 86.693437 -106.801971 
L 85.891226 -106.424535 
L 85.089016 -106.047099 
L 84.286805 -105.669664 
L 83.484595 -105.292228 
L 82.682385 -104.914793 
L 81.880174 -104.537357 
L 81.077964 -104.159921 
L 80.275753 -103.782486 
L 79.473543 -103.40505 
L 78.671333 -103.027615 
L 77.869122 -102.650179 
L 77.066912 -102.272744 
L 76.264702 -101.895308 
z
" style="stroke: #000000; stroke-opacity: 0.1"/>
    </defs>
    <g clip-path="url(#pbe4fed57a8)">
     <use xlink:href="#m8a2e9f5ff1" x="0" y="310.062" style="fill-opacity: 0.1; stroke: #000000; stroke-opacity: 0.1"/>
    </g>
   </g>
   <g id="matplotlib.axis_1">
    <g id="xtick_1">
     <g id="line2d_1">
      <defs>
       <path id="m2f74059e08" d="M 0 1.75 
L 0 -1.75 
" style="stroke: #000000; stroke-width: 0.8"/>
      </defs>
      <g>
       <use xlink:href="#m2f74059e08" x="76.264702" y="275.062" style="stroke: #000000; stroke-width: 0.8"/>
      </g>
     </g>
     <g id="line2d_2">
      <g>
       <use xlink:href="#m2f74059e08" x="76.264702" y="8.95" style="stroke: #000000; stroke-width: 0.8"/>
      </g>
     </g>
     <g id="text_1">
      <!-- 9.0 -->
      <g transform="translate(69.315483 287.452625)scale(0.1 -0.1)">
       <defs>
        <path id="HelveticaNeue-Medium-39" d="M 1728 3962 
C 2272 3962 2541 3526 2541 3046 
C 2541 2554 2272 2106 1728 2106 
C 1197 2106 947 2560 947 3046 
C 947 3533 1197 3962 1728 3962 
z
M 301 1133 
C 339 403 941 -90 1651 -90 
C 2918 -90 3341 1158 3341 2227 
C 3341 3533 3027 4570 1760 4570 
C 781 4570 218 3910 218 3040 
C 218 2125 787 1530 1632 1530 
C 2042 1530 2406 1722 2598 2067 
L 2611 2054 
C 2566 1466 2477 518 1683 518 
C 1306 518 1062 768 1030 1133 
L 301 1133 
z
" transform="scale(0.015625)"/>
        <path id="HelveticaNeue-Medium-2e" d="M 442 0 
L 1331 0 
L 1331 864 
L 442 864 
L 442 0 
z
" transform="scale(0.015625)"/>
        <path id="HelveticaNeue-Medium-30" d="M 1779 518 
C 1139 518 960 1306 960 2240 
C 960 3174 1139 3962 1779 3962 
C 2419 3962 2598 3174 2598 2240 
C 2598 1306 2419 518 1779 518 
z
M 1779 4570 
C 493 4570 230 3258 230 2240 
C 230 1222 493 -90 1779 -90 
C 3066 -90 3328 1222 3328 2240 
C 3328 3258 3066 4570 1779 4570 
z
" transform="scale(0.015625)"/>
       </defs>
       <use xlink:href="#HelveticaNeue-Medium-39"/>
       <use xlink:href="#HelveticaNeue-Medium-2e" x="55.599991"/>
       <use xlink:href="#HelveticaNeue-Medium-30" x="83.399979"/>
      </g>
     </g>
    </g>
    <g id="xtick_2">
     <g id="line2d_3">
      <g>
       <use xlink:href="#m2f74059e08" x="121.990694" y="275.062" style="stroke: #000000; stroke-width: 0.8"/>
      </g>
     </g>
     <g id="line2d_4">
      <g>
       <use xlink:href="#m2f74059e08" x="121.990694" y="8.95" style="stroke: #000000; stroke-width: 0.8"/>
      </g>
     </g>
     <g id="text_2">
      <!-- 9.5 -->
      <g transform="translate(115.041475 287.452625)scale(0.1 -0.1)">
       <defs>
        <path id="HelveticaNeue-Medium-35" d="M 307 2029 
L 1037 2029 
C 1152 2342 1453 2438 1760 2438 
C 2349 2438 2611 1997 2611 1504 
C 2611 960 2400 518 1779 518 
C 1306 518 998 794 954 1274 
L 224 1274 
C 256 378 928 -90 1792 -90 
C 2893 -90 3341 800 3341 1517 
C 3341 2374 2829 3014 1939 3014 
C 1638 3014 1312 2893 1114 2675 
L 1101 2688 
L 1331 3827 
L 3104 3827 
L 3104 4480 
L 787 4480 
L 307 2029 
z
" transform="scale(0.015625)"/>
       </defs>
       <use xlink:href="#HelveticaNeue-Medium-39"/>
       <use xlink:href="#HelveticaNeue-Medium-2e" x="55.599991"/>
       <use xlink:href="#HelveticaNeue-Medium-35" x="83.399979"/>
      </g>
     </g>
    </g>
    <g id="xtick_3">
     <g id="line2d_5">
      <g>
       <use xlink:href="#m2f74059e08" x="167.716686" y="275.062" style="stroke: #000000; stroke-width: 0.8"/>
      </g>
     </g>
     <g id="line2d_6">
      <g>
       <use xlink:href="#m2f74059e08" x="167.716686" y="8.95" style="stroke: #000000; stroke-width: 0.8"/>
      </g>
     </g>
     <g id="text_3">
      <!-- 10.0 -->
      <g transform="translate(157.98778 287.452625)scale(0.1 -0.1)">
       <defs>
        <path id="HelveticaNeue-Medium-31" d="M 339 3162 
L 1440 3162 
L 1440 0 
L 2240 0 
L 2240 4480 
L 1645 4480 
C 1536 3942 954 3731 339 3738 
L 339 3162 
z
" transform="scale(0.015625)"/>
       </defs>
       <use xlink:href="#HelveticaNeue-Medium-31"/>
       <use xlink:href="#HelveticaNeue-Medium-30" x="55.599991"/>
       <use xlink:href="#HelveticaNeue-Medium-2e" x="111.199982"/>
       <use xlink:href="#HelveticaNeue-Medium-30" x="138.999969"/>
      </g>
     </g>
    </g>
    <g id="xtick_4">
     <g id="line2d_7">
      <g>
       <use xlink:href="#m2f74059e08" x="213.442678" y="275.062" style="stroke: #000000; stroke-width: 0.8"/>
      </g>
     </g>
     <g id="line2d_8">
      <g>
       <use xlink:href="#m2f74059e08" x="213.442678" y="8.95" style="stroke: #000000; stroke-width: 0.8"/>
      </g>
     </g>
     <g id="text_4">
      <!-- 10.5 -->
      <g transform="translate(203.713772 287.452625)scale(0.1 -0.1)">
       <use xlink:href="#HelveticaNeue-Medium-31"/>
       <use xlink:href="#HelveticaNeue-Medium-30" x="55.599991"/>
       <use xlink:href="#HelveticaNeue-Medium-2e" x="111.199982"/>
       <use xlink:href="#HelveticaNeue-Medium-35" x="138.999969"/>
      </g>
     </g>
    </g>
    <g id="xtick_5">
     <g id="line2d_9">
      <g>
       <use xlink:href="#m2f74059e08" x="259.168671" y="275.062" style="stroke: #000000; stroke-width: 0.8"/>
      </g>
     </g>
     <g id="line2d_10">
      <g>
       <use xlink:href="#m2f74059e08" x="259.168671" y="8.95" style="stroke: #000000; stroke-width: 0.8"/>
      </g>
     </g>
     <g id="text_5">
      <!-- 11.0 -->
      <g transform="translate(249.439765 287.452625)scale(0.1 -0.1)">
       <use xlink:href="#HelveticaNeue-Medium-31"/>
       <use xlink:href="#HelveticaNeue-Medium-31" x="55.599991"/>
       <use xlink:href="#HelveticaNeue-Medium-2e" x="111.199982"/>
       <use xlink:href="#HelveticaNeue-Medium-30" x="138.999969"/>
      </g>
     </g>
    </g>
    <g id="xtick_6">
     <g id="line2d_11">
      <g>
       <use xlink:href="#m2f74059e08" x="304.894663" y="275.062" style="stroke: #000000; stroke-width: 0.8"/>
      </g>
     </g>
     <g id="line2d_12">
      <g>
       <use xlink:href="#m2f74059e08" x="304.894663" y="8.95" style="stroke: #000000; stroke-width: 0.8"/>
      </g>
     </g>
     <g id="text_6">
      <!-- 11.5 -->
      <g transform="translate(295.165757 287.452625)scale(0.1 -0.1)">
       <use xlink:href="#HelveticaNeue-Medium-31"/>
       <use xlink:href="#HelveticaNeue-Medium-31" x="55.599991"/>
       <use xlink:href="#HelveticaNeue-Medium-2e" x="111.199982"/>
       <use xlink:href="#HelveticaNeue-Medium-35" x="138.999969"/>
      </g>
     </g>
    </g>
    <g id="xtick_7">
     <g id="line2d_13">
      <g>
       <use xlink:href="#m2f74059e08" x="350.620655" y="275.062" style="stroke: #000000; stroke-width: 0.8"/>
      </g>
     </g>
     <g id="line2d_14">
      <g>
       <use xlink:href="#m2f74059e08" x="350.620655" y="8.95" style="stroke: #000000; stroke-width: 0.8"/>
      </g>
     </g>
     <g id="text_7">
      <!-- 12.0 -->
      <g transform="translate(340.891749 287.452625)scale(0.1 -0.1)">
       <defs>
        <path id="HelveticaNeue-Medium-32" d="M 3309 653 
L 1126 653 
C 1254 1050 1798 1325 2317 1683 
C 2829 2042 3315 2483 3315 3194 
C 3315 3770 2970 4570 1875 4570 
C 877 4570 333 3834 333 2842 
L 1062 2842 
C 1082 3469 1254 3962 1830 3962 
C 2458 3962 2592 3488 2586 3168 
C 2573 2470 1818 2118 1235 1696 
C 634 1293 256 736 250 0 
L 3309 0 
L 3309 653 
z
" transform="scale(0.015625)"/>
       </defs>
       <use xlink:href="#HelveticaNeue-Medium-31"/>
       <use xlink:href="#HelveticaNeue-Medium-32" x="55.599991"/>
       <use xlink:href="#HelveticaNeue-Medium-2e" x="111.199982"/>
       <use xlink:href="#HelveticaNeue-Medium-30" x="138.999969"/>
      </g>
     </g>
    </g>
    <g id="xtick_8">
     <g id="line2d_15">
      <g>
       <use xlink:href="#m2f74059e08" x="396.346648" y="275.062" style="stroke: #000000; stroke-width: 0.8"/>
      </g>
     </g>
     <g id="line2d_16">
      <g>
       <use xlink:href="#m2f74059e08" x="396.346648" y="8.95" style="stroke: #000000; stroke-width: 0.8"/>
      </g>
     </g>
     <g id="text_8">
      <!-- 12.5 -->
      <g transform="translate(386.617741 287.452625)scale(0.1 -0.1)">
       <use xlink:href="#HelveticaNeue-Medium-31"/>
       <use xlink:href="#HelveticaNeue-Medium-32" x="55.599991"/>
       <use xlink:href="#HelveticaNeue-Medium-2e" x="111.199982"/>
       <use xlink:href="#HelveticaNeue-Medium-35" x="138.999969"/>
      </g>
     </g>
    </g>
    <g id="text_9">
     <!-- Bulge mass [log, $M_\odot$] -->
     <g transform="translate(183.919375 300.762)scale(0.1 -0.1)">
      <defs>
       <path id="HelveticaNeue-Medium-42" d="M 1286 2080 
L 2701 2080 
C 3187 2080 3469 1824 3469 1376 
C 3469 915 3187 653 2701 653 
L 1286 653 
L 1286 2080 
z
M 486 0 
L 2586 0 
C 3770 0 4269 557 4269 1274 
C 4269 1894 3968 2330 3411 2451 
L 3411 2464 
C 3827 2643 4064 2976 4064 3437 
C 4064 4198 3526 4570 2707 4570 
L 486 4570 
L 486 0 
z
M 1286 3917 
L 2592 3917 
C 3027 3917 3264 3750 3264 3290 
C 3264 2880 2976 2656 2592 2656 
L 1286 2656 
L 1286 3917 
z
" transform="scale(0.015625)"/>
       <path id="HelveticaNeue-Medium-75" d="M 3290 3309 
L 2560 3309 
L 2560 1389 
C 2560 877 2355 486 1747 486 
C 1350 486 1114 698 1114 1280 
L 1114 3309 
L 384 3309 
L 384 1210 
C 384 346 755 -90 1619 -90 
C 1984 -90 2381 128 2560 461 
L 2573 461 
L 2573 0 
L 3290 0 
L 3290 3309 
z
" transform="scale(0.015625)"/>
       <path id="HelveticaNeue-Medium-6c" d="M 403 0 
L 1133 0 
L 1133 4570 
L 403 4570 
L 403 0 
z
" transform="scale(0.015625)"/>
       <path id="HelveticaNeue-Medium-67" d="M 1824 576 
C 1216 576 954 1126 954 1670 
C 954 2221 1178 2822 1824 2822 
C 2458 2822 2714 2298 2714 1728 
C 2714 1165 2470 576 1824 576 
z
M 3443 3309 
L 2714 3309 
L 2714 2854 
L 2701 2854 
C 2515 3226 2138 3398 1722 3398 
C 781 3398 224 2630 224 1741 
C 224 794 659 0 1709 0 
C 2118 0 2496 218 2701 582 
L 2714 582 
L 2714 77 
C 2714 -467 2451 -768 1862 -768 
C 1491 -768 1158 -698 1069 -282 
L 339 -282 
C 403 -1056 1152 -1312 1818 -1312 
C 2861 -1312 3443 -819 3443 173 
L 3443 3309 
z
" transform="scale(0.015625)"/>
       <path id="HelveticaNeue-Medium-65" d="M 3386 1466 
C 3507 2458 2867 3398 1824 3398 
C 838 3398 224 2592 224 1651 
C 224 634 806 -90 1843 -90 
C 2566 -90 3181 314 3341 1037 
L 2650 1037 
C 2522 672 2266 486 1843 486 
C 1235 486 954 947 954 1466 
L 3386 1466 
z
M 954 1946 
C 973 2438 1318 2822 1824 2822 
C 2317 2822 2630 2406 2656 1946 
L 954 1946 
z
" transform="scale(0.015625)"/>
       <path id="HelveticaNeue-Medium-20" transform="scale(0.015625)"/>
       <path id="HelveticaNeue-Medium-6d" d="M 384 0 
L 1114 0 
L 1114 1965 
C 1114 2515 1459 2822 1837 2822 
C 2278 2822 2419 2579 2419 2125 
L 2419 0 
L 3149 0 
L 3149 1939 
C 3149 2496 3360 2822 3853 2822 
C 4422 2822 4454 2458 4454 1933 
L 4454 0 
L 5184 0 
L 5184 2285 
C 5184 3091 4774 3398 4077 3398 
C 3597 3398 3283 3187 3040 2848 
C 2893 3226 2515 3398 2112 3398 
C 1587 3398 1312 3174 1094 2848 
L 1075 2848 
L 1075 3309 
L 384 3309 
L 384 0 
z
" transform="scale(0.015625)"/>
       <path id="HelveticaNeue-Medium-61" d="M 2426 1114 
C 2426 653 1926 486 1606 486 
C 1350 486 934 582 934 909 
C 934 1293 1216 1408 1530 1459 
C 1850 1517 2202 1510 2426 1658 
L 2426 1114 
z
M 3155 2438 
C 3155 3136 2477 3398 1830 3398 
C 1101 3398 378 3149 326 2298 
L 1056 2298 
C 1088 2656 1376 2822 1786 2822 
C 2080 2822 2470 2752 2470 2374 
C 2470 1946 2003 2003 1478 1907 
C 864 1837 205 1702 205 877 
C 205 230 742 -90 1338 -90 
C 1728 -90 2195 32 2483 314 
C 2541 13 2752 -90 3046 -90 
C 3168 -90 3398 -45 3507 -6 
L 3507 499 
C 3430 486 3373 486 3328 486 
C 3194 486 3155 557 3155 736 
L 3155 2438 
z
" transform="scale(0.015625)"/>
       <path id="HelveticaNeue-Medium-73" d="M 205 1062 
C 218 282 838 -90 1670 -90 
C 2355 -90 3149 198 3149 986 
C 3149 1638 2611 1830 2080 1952 
C 1542 2074 1005 2125 1005 2483 
C 1005 2771 1395 2822 1606 2822 
C 1926 2822 2214 2726 2278 2381 
L 3040 2381 
C 2950 3117 2336 3398 1658 3398 
C 1056 3398 275 3174 275 2451 
C 275 1779 800 1587 1338 1472 
C 1869 1350 2400 1306 2419 922 
C 2438 544 1958 486 1683 486 
C 1293 486 973 640 934 1062 
L 205 1062 
z
" transform="scale(0.015625)"/>
       <path id="HelveticaNeue-Medium-5b" d="M 461 -1222 
L 1888 -1222 
L 1888 -646 
L 1152 -646 
L 1152 4102 
L 1888 4102 
L 1888 4678 
L 461 4678 
L 461 -1222 
z
" transform="scale(0.015625)"/>
       <path id="HelveticaNeue-Medium-6f" d="M 1901 486 
C 1248 486 960 1082 960 1658 
C 960 2227 1248 2822 1901 2822 
C 2554 2822 2842 2227 2842 1658 
C 2842 1082 2554 486 1901 486 
z
M 1901 -90 
C 2963 -90 3571 640 3571 1658 
C 3571 2669 2963 3398 1901 3398 
C 838 3398 230 2669 230 1658 
C 230 640 838 -90 1901 -90 
z
" transform="scale(0.015625)"/>
       <path id="HelveticaNeue-Medium-2c" d="M 442 0 
L 883 0 
C 890 -275 749 -550 467 -621 
L 467 -1011 
C 973 -909 1325 -525 1331 0 
L 1331 864 
L 442 864 
L 442 0 
z
" transform="scale(0.015625)"/>
       <path id="DejaVuSans-Oblique-4d" d="M 1081 4666 
L 2028 4666 
L 2572 1522 
L 4378 4666 
L 5350 4666 
L 4441 0 
L 3828 0 
L 4622 4091 
L 2791 897 
L 2175 897 
L 1581 4103 
L 788 0 
L 172 0 
L 1081 4666 
z
" transform="scale(0.015625)"/>
       <path id="DejaVuSans-2299" d="M 2350 2403 
L 3013 2403 
L 3013 1609 
L 2350 1609 
L 2350 2403 
z
M 3306 3522 
Q 3016 3644 2681 3644 
Q 2347 3644 2056 3522 
Q 1769 3400 1531 3163 
Q 1291 2922 1172 2634 
Q 1053 2347 1053 2006 
Q 1053 1675 1172 1387 
Q 1291 1100 1531 859 
Q 1769 622 2056 500 
Q 2347 378 2681 378 
Q 3016 378 3306 500 
Q 3594 622 3831 859 
Q 4072 1100 4190 1387 
Q 4309 1675 4309 2006 
Q 4309 2347 4190 2634 
Q 4072 2922 3831 3163 
Q 3594 3400 3306 3522 
z
M 1878 3956 
Q 2250 4113 2681 4113 
Q 3113 4113 3484 3956 
Q 3856 3800 4163 3494 
Q 4472 3184 4625 2813 
Q 4778 2444 4778 2006 
Q 4778 1578 4625 1206 
Q 4472 838 4163 528 
Q 3856 222 3484 65 
Q 3113 -91 2681 -91 
Q 2250 -91 1878 65 
Q 1506 222 1200 528 
Q 891 838 738 1206 
Q 584 1578 584 2006 
Q 584 2444 738 2813 
Q 891 3184 1200 3494 
Q 1506 3800 1878 3956 
z
" transform="scale(0.015625)"/>
       <path id="HelveticaNeue-Medium-5d" d="M 1434 4678 
L 6 4678 
L 6 4102 
L 742 4102 
L 742 -646 
L 6 -646 
L 6 -1222 
L 1434 -1222 
L 1434 4678 
z
" transform="scale(0.015625)"/>
      </defs>
      <use xlink:href="#HelveticaNeue-Medium-42" transform="translate(0 0.90625)"/>
      <use xlink:href="#HelveticaNeue-Medium-75" transform="translate(70.399994 0.90625)"/>
      <use xlink:href="#HelveticaNeue-Medium-6c" transform="translate(127.799988 0.90625)"/>
      <use xlink:href="#HelveticaNeue-Medium-67" transform="translate(151.899979 0.90625)"/>
      <use xlink:href="#HelveticaNeue-Medium-65" transform="translate(211.199966 0.90625)"/>
      <use xlink:href="#HelveticaNeue-Medium-20" transform="translate(266.799957 0.90625)"/>
      <use xlink:href="#HelveticaNeue-Medium-6d" transform="translate(294.599945 0.90625)"/>
      <use xlink:href="#HelveticaNeue-Medium-61" transform="translate(381.59993 0.90625)"/>
      <use xlink:href="#HelveticaNeue-Medium-73" transform="translate(437.199921 0.90625)"/>
      <use xlink:href="#HelveticaNeue-Medium-73" transform="translate(489.099915 0.90625)"/>
      <use xlink:href="#HelveticaNeue-Medium-20" transform="translate(540.999908 0.90625)"/>
      <use xlink:href="#HelveticaNeue-Medium-5b" transform="translate(568.799896 0.90625)"/>
      <use xlink:href="#HelveticaNeue-Medium-6c" transform="translate(598.399887 0.90625)"/>
      <use xlink:href="#HelveticaNeue-Medium-6f" transform="translate(622.499878 0.90625)"/>
      <use xlink:href="#HelveticaNeue-Medium-67" transform="translate(681.799866 0.90625)"/>
      <use xlink:href="#HelveticaNeue-Medium-2c" transform="translate(741.099854 0.90625)"/>
      <use xlink:href="#HelveticaNeue-Medium-20" transform="translate(768.899841 0.90625)"/>
      <use xlink:href="#DejaVuSans-Oblique-4d" transform="translate(796.699829 0.90625)"/>
      <use xlink:href="#DejaVuSans-2299" transform="translate(896.616821 -15.5)scale(0.7)"/>
      <use xlink:href="#HelveticaNeue-Medium-5d" transform="translate(971.641235 0.90625)"/>
     </g>
    </g>
   </g>
   <g id="matplotlib.axis_2">
    <g id="ytick_1">
     <g id="line2d_17">
      <defs>
       <path id="m5d1c838cc4" d="M 1.75 0 
L -1.75 -0 
" style="stroke: #000000; stroke-width: 0.8"/>
      </defs>
      <g>
       <use xlink:href="#m5d1c838cc4" x="55.459375" y="225.021426" style="stroke: #000000; stroke-width: 0.8"/>
      </g>
     </g>
     <g id="line2d_18">
      <g>
       <use xlink:href="#m5d1c838cc4" x="412.579375" y="225.021426" style="stroke: #000000; stroke-width: 0.8"/>
      </g>
     </g>
     <g id="text_10">
      <!-- $\mathdefault{10^{2}}$ -->
      <g transform="translate(34.809375 228.591739)scale(0.1 -0.1)">
       <use xlink:href="#HelveticaNeue-Medium-31" transform="translate(0 0.823438)"/>
       <use xlink:href="#HelveticaNeue-Medium-30" transform="translate(55.599991 0.823438)"/>
       <use xlink:href="#HelveticaNeue-Medium-32" transform="translate(112.104786 37.015625)scale(0.7)"/>
      </g>
     </g>
    </g>
    <g id="ytick_2">
     <g id="line2d_19">
      <defs>
       <path id="m47cda20565" d="M 1 0 
L -1 -0 
" style="stroke: #000000; stroke-width: 0.6"/>
      </defs>
      <g>
       <use xlink:href="#m47cda20565" x="55.459375" y="269.968785" style="stroke: #000000; stroke-width: 0.6"/>
      </g>
     </g>
     <g id="line2d_20">
      <g>
       <use xlink:href="#m47cda20565" x="412.579375" y="269.968785" style="stroke: #000000; stroke-width: 0.6"/>
      </g>
     </g>
    </g>
    <g id="ytick_3">
     <g id="line2d_21">
      <g>
       <use xlink:href="#m47cda20565" x="55.459375" y="253.141465" style="stroke: #000000; stroke-width: 0.6"/>
      </g>
     </g>
     <g id="line2d_22">
      <g>
       <use xlink:href="#m47cda20565" x="412.579375" y="253.141465" style="stroke: #000000; stroke-width: 0.6"/>
      </g>
     </g>
    </g>
    <g id="ytick_4">
     <g id="line2d_23">
      <g>
       <use xlink:href="#m47cda20565" x="55.459375" y="238.298717" style="stroke: #000000; stroke-width: 0.6"/>
      </g>
     </g>
     <g id="line2d_24">
      <g>
       <use xlink:href="#m47cda20565" x="412.579375" y="238.298717" style="stroke: #000000; stroke-width: 0.6"/>
      </g>
     </g>
    </g>
    <g id="ytick_5">
     <g id="line2d_25">
      <g>
       <use xlink:href="#m47cda20565" x="55.459375" y="137.672608" style="stroke: #000000; stroke-width: 0.6"/>
      </g>
     </g>
     <g id="line2d_26">
      <g>
       <use xlink:href="#m47cda20565" x="412.579375" y="137.672608" style="stroke: #000000; stroke-width: 0.6"/>
      </g>
     </g>
     <g id="text_11">
      <!-- $\mathdefault{2\times10^{2}}$ -->
      <g transform="translate(20.559375 141.24292)scale(0.1 -0.1)">
       <defs>
        <path id="HelveticaNeue-Medium-d7" d="M 1466 1619 
L 352 506 
L 902 147 
L 1914 1171 
L 2938 147 
L 3488 506 
L 2368 1619 
L 3488 2733 
L 2938 3091 
L 1914 2074 
L 902 3091 
L 352 2733 
L 1466 1619 
z
" transform="scale(0.015625)"/>
       </defs>
       <use xlink:href="#HelveticaNeue-Medium-32" transform="translate(0 0.823438)"/>
       <use xlink:href="#HelveticaNeue-Medium-d7" transform="translate(72.999988 0.823438)"/>
       <use xlink:href="#HelveticaNeue-Medium-31" transform="translate(150.399969 0.823438)"/>
       <use xlink:href="#HelveticaNeue-Medium-30" transform="translate(205.99996 0.823438)"/>
       <use xlink:href="#HelveticaNeue-Medium-32" transform="translate(262.504756 37.015625)scale(0.7)"/>
      </g>
     </g>
    </g>
    <g id="ytick_6">
     <g id="line2d_27">
      <g>
       <use xlink:href="#m47cda20565" x="55.459375" y="86.576824" style="stroke: #000000; stroke-width: 0.6"/>
      </g>
     </g>
     <g id="line2d_28">
      <g>
       <use xlink:href="#m47cda20565" x="412.579375" y="86.576824" style="stroke: #000000; stroke-width: 0.6"/>
      </g>
     </g>
     <g id="text_12">
      <!-- $\mathdefault{3\times10^{2}}$ -->
      <g transform="translate(20.559375 90.147137)scale(0.1 -0.1)">
       <defs>
        <path id="HelveticaNeue-Medium-33" d="M 1459 2080 
C 2035 2106 2630 2016 2630 1318 
C 2630 806 2259 518 1773 518 
C 1203 518 909 928 928 1472 
L 198 1472 
C 218 538 736 -90 1773 -90 
C 2630 -90 3360 435 3360 1280 
C 3360 1856 3053 2298 2547 2400 
L 2547 2413 
C 2976 2566 3181 2925 3181 3373 
C 3181 4166 2464 4570 1766 4570 
C 864 4570 320 3917 282 3046 
L 1011 3046 
C 998 3507 1248 3962 1754 3962 
C 2157 3962 2451 3706 2451 3328 
C 2451 2778 1946 2605 1459 2624 
L 1459 2080 
z
" transform="scale(0.015625)"/>
       </defs>
       <use xlink:href="#HelveticaNeue-Medium-33" transform="translate(0 0.823438)"/>
       <use xlink:href="#HelveticaNeue-Medium-d7" transform="translate(72.999988 0.823438)"/>
       <use xlink:href="#HelveticaNeue-Medium-31" transform="translate(150.399969 0.823438)"/>
       <use xlink:href="#HelveticaNeue-Medium-30" transform="translate(205.99996 0.823438)"/>
       <use xlink:href="#HelveticaNeue-Medium-32" transform="translate(262.504756 37.015625)scale(0.7)"/>
      </g>
     </g>
    </g>
    <g id="ytick_7">
     <g id="line2d_29">
      <g>
       <use xlink:href="#m47cda20565" x="55.459375" y="50.323789" style="stroke: #000000; stroke-width: 0.6"/>
      </g>
     </g>
     <g id="line2d_30">
      <g>
       <use xlink:href="#m47cda20565" x="412.579375" y="50.323789" style="stroke: #000000; stroke-width: 0.6"/>
      </g>
     </g>
     <g id="text_13">
      <!-- $\mathdefault{4\times10^{2}}$ -->
      <g transform="translate(20.559375 53.894101)scale(0.1 -0.1)">
       <defs>
        <path id="HelveticaNeue-Medium-34" d="M 3341 1638 
L 2765 1638 
L 2765 4480 
L 2074 4480 
L 154 1786 
L 154 1062 
L 2074 1062 
L 2074 0 
L 2765 0 
L 2765 1062 
L 3341 1062 
L 3341 1638 
z
M 2061 3610 
L 2074 3610 
L 2074 1638 
L 717 1638 
L 2061 3610 
z
" transform="scale(0.015625)"/>
       </defs>
       <use xlink:href="#HelveticaNeue-Medium-34" transform="translate(0 0.823438)"/>
       <use xlink:href="#HelveticaNeue-Medium-d7" transform="translate(72.999988 0.823438)"/>
       <use xlink:href="#HelveticaNeue-Medium-31" transform="translate(150.399969 0.823438)"/>
       <use xlink:href="#HelveticaNeue-Medium-30" transform="translate(205.99996 0.823438)"/>
       <use xlink:href="#HelveticaNeue-Medium-32" transform="translate(262.504756 37.015625)scale(0.7)"/>
      </g>
     </g>
    </g>
    <g id="ytick_8">
     <g id="line2d_31">
      <g>
       <use xlink:href="#m47cda20565" x="55.459375" y="22.20375" style="stroke: #000000; stroke-width: 0.6"/>
      </g>
     </g>
     <g id="line2d_32">
      <g>
       <use xlink:href="#m47cda20565" x="412.579375" y="22.20375" style="stroke: #000000; stroke-width: 0.6"/>
      </g>
     </g>
    </g>
    <g id="text_14">
     <!-- Velocity dispersion [log, km/s] -->
     <g transform="translate(14.509375 211.382562)rotate(-90)scale(0.1 -0.1)">
      <defs>
       <path id="HelveticaNeue-Medium-56" d="M 1491 0 
L 2381 0 
L 3942 4570 
L 3130 4570 
L 1958 954 
L 1946 954 
L 800 4570 
L -32 4570 
L 1491 0 
z
" transform="scale(0.015625)"/>
       <path id="HelveticaNeue-Medium-63" d="M 3347 2202 
C 3277 3014 2624 3398 1856 3398 
C 768 3398 224 2618 224 1619 
C 224 646 794 -90 1830 -90 
C 2682 -90 3213 384 3347 1242 
L 2618 1242 
C 2547 768 2253 486 1830 486 
C 1197 486 954 1069 954 1619 
C 954 2624 1485 2822 1862 2822 
C 2266 2822 2560 2605 2618 2202 
L 3347 2202 
z
" transform="scale(0.015625)"/>
       <path id="HelveticaNeue-Medium-69" d="M 403 0 
L 1133 0 
L 1133 3309 
L 403 3309 
L 403 0 
z
M 403 3878 
L 1133 3878 
L 1133 4570 
L 403 4570 
L 403 3878 
z
" transform="scale(0.015625)"/>
       <path id="HelveticaNeue-Medium-74" d="M 51 2765 
L 602 2765 
L 602 813 
C 614 262 755 -32 1517 -32 
C 1677 -32 1830 -6 1990 6 
L 1990 570 
C 1888 544 1786 544 1683 544 
C 1357 544 1331 698 1331 998 
L 1331 2765 
L 1990 2765 
L 1990 3309 
L 1331 3309 
L 1331 4301 
L 602 4301 
L 602 3309 
L 51 3309 
L 51 2765 
z
" transform="scale(0.015625)"/>
       <path id="HelveticaNeue-Medium-79" d="M 1274 13 
L 1190 -243 
C 1101 -525 1018 -704 678 -704 
C 563 -704 448 -678 333 -659 
L 333 -1274 
C 499 -1299 666 -1312 838 -1312 
C 1600 -1312 1773 -774 2010 -179 
L 3296 3309 
L 2534 3309 
L 1696 838 
L 1683 838 
L 819 3309 
L 19 3309 
L 1274 13 
z
" transform="scale(0.015625)"/>
       <path id="HelveticaNeue-Medium-64" d="M 954 1619 
C 954 2214 1197 2822 1882 2822 
C 2445 2822 2797 2387 2797 1658 
C 2797 1082 2522 486 1869 486 
C 1235 486 954 1050 954 1619 
z
M 3501 4570 
L 2771 4570 
L 2771 2880 
L 2758 2880 
C 2534 3245 2074 3398 1658 3398 
C 934 3398 224 2874 224 1677 
C 224 685 730 -90 1773 -90 
C 2189 -90 2605 70 2797 448 
L 2810 448 
L 2810 0 
L 3501 0 
L 3501 4570 
z
" transform="scale(0.015625)"/>
       <path id="HelveticaNeue-Medium-70" d="M 2950 1651 
C 2950 1075 2701 486 2035 486 
C 1446 486 1107 986 1107 1651 
C 1107 2355 1421 2822 2035 2822 
C 2637 2822 2950 2253 2950 1651 
z
M 403 -1222 
L 1133 -1222 
L 1133 429 
L 1146 429 
C 1376 64 1830 -90 2253 -90 
C 3232 -90 3680 749 3680 1638 
C 3680 2605 3174 3398 2131 3398 
C 1709 3398 1312 3238 1107 2861 
L 1094 2861 
L 1094 3309 
L 403 3309 
L 403 -1222 
z
" transform="scale(0.015625)"/>
       <path id="HelveticaNeue-Medium-72" d="M 384 0 
L 1114 0 
L 1114 1574 
C 1114 2304 1510 2707 2010 2707 
C 2112 2707 2221 2688 2323 2675 
L 2323 3379 
C 2259 3386 2214 3398 2048 3398 
C 1600 3398 1165 3021 1082 2669 
L 1069 2669 
L 1069 3309 
L 384 3309 
L 384 0 
z
" transform="scale(0.015625)"/>
       <path id="HelveticaNeue-Medium-6e" d="M 384 0 
L 1114 0 
L 1114 1952 
C 1114 2438 1427 2822 1914 2822 
C 2342 2822 2547 2598 2560 2080 
L 2560 0 
L 3290 0 
L 3290 2272 
C 3290 3014 2835 3398 2118 3398 
C 1683 3398 1306 3174 1088 2810 
L 1075 2822 
L 1075 3309 
L 384 3309 
L 384 0 
z
" transform="scale(0.015625)"/>
       <path id="HelveticaNeue-Medium-6b" d="M 403 0 
L 1133 0 
L 1133 1184 
L 1568 1606 
L 2579 0 
L 3469 0 
L 2080 2093 
L 3347 3309 
L 2451 3309 
L 1133 1971 
L 1133 4570 
L 403 4570 
L 403 0 
z
" transform="scale(0.015625)"/>
       <path id="HelveticaNeue-Medium-2f" d="M -141 -109 
L 557 -109 
L 2394 4678 
L 1696 4678 
L -141 -109 
z
" transform="scale(0.015625)"/>
      </defs>
      <use xlink:href="#HelveticaNeue-Medium-56"/>
      <use xlink:href="#HelveticaNeue-Medium-65" x="61.099991"/>
      <use xlink:href="#HelveticaNeue-Medium-6c" x="116.699982"/>
      <use xlink:href="#HelveticaNeue-Medium-6f" x="140.799973"/>
      <use xlink:href="#HelveticaNeue-Medium-63" x="200.09996"/>
      <use xlink:href="#HelveticaNeue-Medium-69" x="255.699951"/>
      <use xlink:href="#HelveticaNeue-Medium-74" x="279.799942"/>
      <use xlink:href="#HelveticaNeue-Medium-79" x="313.09993"/>
      <use xlink:href="#HelveticaNeue-Medium-20" x="364.999924"/>
      <use xlink:href="#HelveticaNeue-Medium-64" x="392.799911"/>
      <use xlink:href="#HelveticaNeue-Medium-69" x="453.899902"/>
      <use xlink:href="#HelveticaNeue-Medium-73" x="477.999893"/>
      <use xlink:href="#HelveticaNeue-Medium-70" x="529.899887"/>
      <use xlink:href="#HelveticaNeue-Medium-65" x="590.999878"/>
      <use xlink:href="#HelveticaNeue-Medium-72" x="646.599869"/>
      <use xlink:href="#HelveticaNeue-Medium-73" x="681.799866"/>
      <use xlink:href="#HelveticaNeue-Medium-69" x="733.69986"/>
      <use xlink:href="#HelveticaNeue-Medium-6f" x="757.79985"/>
      <use xlink:href="#HelveticaNeue-Medium-6e" x="817.099838"/>
      <use xlink:href="#HelveticaNeue-Medium-20" x="874.499832"/>
      <use xlink:href="#HelveticaNeue-Medium-5b" x="902.29982"/>
      <use xlink:href="#HelveticaNeue-Medium-6c" x="931.899811"/>
      <use xlink:href="#HelveticaNeue-Medium-6f" x="955.999802"/>
      <use xlink:href="#HelveticaNeue-Medium-67" x="1015.299789"/>
      <use xlink:href="#HelveticaNeue-Medium-2c" x="1074.599777"/>
      <use xlink:href="#HelveticaNeue-Medium-20" x="1102.399765"/>
      <use xlink:href="#HelveticaNeue-Medium-6b" x="1130.199753"/>
      <use xlink:href="#HelveticaNeue-Medium-6d" x="1183.89975"/>
      <use xlink:href="#HelveticaNeue-Medium-2f" x="1270.899734"/>
      <use xlink:href="#HelveticaNeue-Medium-73" x="1306.099731"/>
      <use xlink:href="#HelveticaNeue-Medium-5d" x="1357.999725"/>
     </g>
    </g>
   </g>
   <g id="LineCollection_1">
    <path d="M 71.692102 257.958015 
L 89.982499 257.958015 
" clip-path="url(#pbe4fed57a8)" style="fill: none; stroke: #ffa500; stroke-width: 1.5"/>
    <path d="M 327.757659 122.271022 
L 344.219016 122.271022 
" clip-path="url(#pbe4fed57a8)" style="fill: none; stroke: #ffa500; stroke-width: 1.5"/>
    <path d="M 275.630028 75.332121 
L 292.091385 75.332121 
" clip-path="url(#pbe4fed57a8)" style="fill: none; stroke: #ffa500; stroke-width: 1.5"/>
    <path d="M 218.929798 160.396569 
L 235.391155 160.396569 
" clip-path="url(#pbe4fed57a8)" style="fill: none; stroke: #ffa500; stroke-width: 1.5"/>
    <path d="M 296.663984 80.4284 
L 313.125342 80.4284 
" clip-path="url(#pbe4fed57a8)" style="fill: none; stroke: #ffa500; stroke-width: 1.5"/>
    <path d="M 318.612461 97.084383 
L 335.073818 97.084383 
" clip-path="url(#pbe4fed57a8)" style="fill: none; stroke: #ffa500; stroke-width: 1.5"/>
    <path d="M 281.117147 99.854115 
L 297.578504 99.854115 
" clip-path="url(#pbe4fed57a8)" style="fill: none; stroke: #ffa500; stroke-width: 1.5"/>
    <path d="M 183.263524 154.499928 
L 199.724881 154.499928 
" clip-path="url(#pbe4fed57a8)" style="fill: none; stroke: #ffa500; stroke-width: 1.5"/>
    <path d="M 256.425111 161.153434 
L 272.886468 161.153434 
" clip-path="url(#pbe4fed57a8)" style="fill: none; stroke: #ffa500; stroke-width: 1.5"/>
    <path d="M 306.723703 87.843344 
L 323.18506 87.843344 
" clip-path="url(#pbe4fed57a8)" style="fill: none; stroke: #ffa500; stroke-width: 1.5"/>
    <path d="M 205.212 178.197839 
L 221.673357 178.197839 
" clip-path="url(#pbe4fed57a8)" style="fill: none; stroke: #ffa500; stroke-width: 1.5"/>
    <path d="M 242.707314 133.947675 
L 259.168671 133.947675 
" clip-path="url(#pbe4fed57a8)" style="fill: none; stroke: #ffa500; stroke-width: 1.5"/>
    <path d="M 274.715508 120.609226 
L 291.176865 120.609226 
" clip-path="url(#pbe4fed57a8)" style="fill: none; stroke: #ffa500; stroke-width: 1.5"/>
    <path d="M 251.852512 149.557423 
L 268.313869 149.557423 
" clip-path="url(#pbe4fed57a8)" style="fill: none; stroke: #ffa500; stroke-width: 1.5"/>
    <path d="M 321.35602 99.854115 
L 337.817378 99.854115 
" clip-path="url(#pbe4fed57a8)" style="fill: none; stroke: #ffa500; stroke-width: 1.5"/>
    <path d="M 310.381782 80.4284 
L 326.843139 80.4284 
" clip-path="url(#pbe4fed57a8)" style="fill: none; stroke: #ffa500; stroke-width: 1.5"/>
    <path d="M 237.220194 113.651067 
L 253.681552 113.651067 
" clip-path="url(#pbe4fed57a8)" style="fill: none; stroke: #ffa500; stroke-width: 1.5"/>
    <path d="M 307.638223 88.268362 
L 324.09958 88.268362 
" clip-path="url(#pbe4fed57a8)" style="fill: none; stroke: #ffa500; stroke-width: 1.5"/>
    <path d="M 297.578504 149.557423 
L 314.039862 149.557423 
" clip-path="url(#pbe4fed57a8)" style="fill: none; stroke: #ffa500; stroke-width: 1.5"/>
    <path d="M 239.963754 160.396569 
L 256.425111 160.396569 
" clip-path="url(#pbe4fed57a8)" style="fill: none; stroke: #ffa500; stroke-width: 1.5"/>
    <path d="M 327.757659 86.576824 
L 344.219016 86.576824 
" clip-path="url(#pbe4fed57a8)" style="fill: none; stroke: #ffa500; stroke-width: 1.5"/>
    <path d="M 237.220194 144.136471 
L 253.681552 144.136471 
" clip-path="url(#pbe4fed57a8)" style="fill: none; stroke: #ffa500; stroke-width: 1.5"/>
    <path d="M 316.783421 76.87837 
L 333.244778 76.87837 
" clip-path="url(#pbe4fed57a8)" style="fill: none; stroke: #ffa500; stroke-width: 1.5"/>
    <path d="M 125.648773 147.497142 
L 143.93917 147.497142 
" clip-path="url(#pbe4fed57a8)" style="fill: none; stroke: #ffa500; stroke-width: 1.5"/>
    <path d="M 309.467262 56.787652 
L 325.92862 56.787652 
" clip-path="url(#pbe4fed57a8)" style="fill: none; stroke: #ffa500; stroke-width: 1.5"/>
    <path d="M 248.194433 153.067893 
L 264.65579 153.067893 
" clip-path="url(#pbe4fed57a8)" style="fill: none; stroke: #ffa500; stroke-width: 1.5"/>
    <path d="M 265.57031 65.363594 
L 282.031667 65.363594 
" clip-path="url(#pbe4fed57a8)" style="fill: none; stroke: #ffa500; stroke-width: 1.5"/>
    <path d="M 350.620655 68.235916 
L 367.082013 68.235916 
" clip-path="url(#pbe4fed57a8)" style="fill: none; stroke: #ffa500; stroke-width: 1.5"/>
    <path d="M 276.544548 124.521398 
L 293.005905 124.521398 
" clip-path="url(#pbe4fed57a8)" style="fill: none; stroke: #ffa500; stroke-width: 1.5"/>
    <path d="M 255.510591 173.925643 
L 271.971949 173.925643 
" clip-path="url(#pbe4fed57a8)" style="fill: none; stroke: #ffa500; stroke-width: 1.5"/>
    <path d="M 310.381782 73.425614 
L 326.843139 73.425614 
" clip-path="url(#pbe4fed57a8)" style="fill: none; stroke: #ffa500; stroke-width: 1.5"/>
    <path d="M 305.809183 75.332121 
L 322.27054 75.332121 
" clip-path="url(#pbe4fed57a8)" style="fill: none; stroke: #ffa500; stroke-width: 1.5"/>
    <path d="M 250.937992 148.866914 
L 267.399349 148.866914 
" clip-path="url(#pbe4fed57a8)" style="fill: none; stroke: #ffa500; stroke-width: 1.5"/>
    <path d="M 211.613639 115.223034 
L 228.074996 115.223034 
" clip-path="url(#pbe4fed57a8)" style="fill: none; stroke: #ffa500; stroke-width: 1.5"/>
    <path d="M 314.039862 79.23391 
L 330.501219 79.23391 
" clip-path="url(#pbe4fed57a8)" style="fill: none; stroke: #ffa500; stroke-width: 1.5"/>
    <path d="M 273.800988 53.837818 
L 290.262346 53.837818 
" clip-path="url(#pbe4fed57a8)" style="fill: none; stroke: #ffa500; stroke-width: 1.5"/>
    <path d="M 305.809183 101.735011 
L 324.09958 101.735011 
" clip-path="url(#pbe4fed57a8)" style="fill: none; stroke: #ffa500; stroke-width: 1.5"/>
    <path d="M 310.381782 89.982916 
L 326.843139 89.982916 
" clip-path="url(#pbe4fed57a8)" style="fill: none; stroke: #ffa500; stroke-width: 1.5"/>
    <path d="M 319.526981 106.072569 
L 335.988338 106.072569 
" clip-path="url(#pbe4fed57a8)" style="fill: none; stroke: #ffa500; stroke-width: 1.5"/>
    <path d="M 305.809183 74.184759 
L 322.27054 74.184759 
" clip-path="url(#pbe4fed57a8)" style="fill: none; stroke: #ffa500; stroke-width: 1.5"/>
    <path d="M 324.09958 91.721118 
L 342.389977 91.721118 
" clip-path="url(#pbe4fed57a8)" style="fill: none; stroke: #ffa500; stroke-width: 1.5"/>
    <path d="M 322.27054 77.658668 
L 338.731897 77.658668 
" clip-path="url(#pbe4fed57a8)" style="fill: none; stroke: #ffa500; stroke-width: 1.5"/>
   </g>
   <g id="LineCollection_2">
    <path d="M 80.837301 262.966 
L 80.837301 253.141465 
" clip-path="url(#pbe4fed57a8)" style="fill: none; stroke: #ffa500; stroke-width: 1.5"/>
    <path d="M 335.988338 127.392085 
L 335.988338 117.349965 
" clip-path="url(#pbe4fed57a8)" style="fill: none; stroke: #ffa500; stroke-width: 1.5"/>
    <path d="M 283.860707 78.83825 
L 283.860707 71.920907 
" clip-path="url(#pbe4fed57a8)" style="fill: none; stroke: #ffa500; stroke-width: 1.5"/>
    <path d="M 227.160476 162.68094 
L 227.160476 158.152871 
" clip-path="url(#pbe4fed57a8)" style="fill: none; stroke: #ffa500; stroke-width: 1.5"/>
    <path d="M 304.894663 81.63432 
L 304.894663 79.23391 
" clip-path="url(#pbe4fed57a8)" style="fill: none; stroke: #ffa500; stroke-width: 1.5"/>
    <path d="M 326.843139 98.00088 
L 326.843139 96.174504 
" clip-path="url(#pbe4fed57a8)" style="fill: none; stroke: #ffa500; stroke-width: 1.5"/>
    <path d="M 289.347826 104.610064 
L 289.347826 95.271148 
" clip-path="url(#pbe4fed57a8)" style="fill: none; stroke: #ffa500; stroke-width: 1.5"/>
    <path d="M 191.494202 160.396569 
L 191.494202 148.866914 
" clip-path="url(#pbe4fed57a8)" style="fill: none; stroke: #ffa500; stroke-width: 1.5"/>
    <path d="M 264.65579 173.925643 
L 264.65579 149.557423 
" clip-path="url(#pbe4fed57a8)" style="fill: none; stroke: #ffa500; stroke-width: 1.5"/>
    <path d="M 314.954381 93.040688 
L 314.954381 82.851892 
" clip-path="url(#pbe4fed57a8)" style="fill: none; stroke: #ffa500; stroke-width: 1.5"/>
    <path d="M 213.442678 184.433202 
L 213.442678 172.25651 
" clip-path="url(#pbe4fed57a8)" style="fill: none; stroke: #ffa500; stroke-width: 1.5"/>
    <path d="M 250.937992 140.218507 
L 250.937992 127.974154 
" clip-path="url(#pbe4fed57a8)" style="fill: none; stroke: #ffa500; stroke-width: 1.5"/>
    <path d="M 282.946187 126.812692 
L 282.946187 114.696863 
" clip-path="url(#pbe4fed57a8)" style="fill: none; stroke: #ffa500; stroke-width: 1.5"/>
    <path d="M 260.083191 155.948423 
L 260.083191 143.474959 
" clip-path="url(#pbe4fed57a8)" style="fill: none; stroke: #ffa500; stroke-width: 1.5"/>
    <path d="M 329.586699 113.131405 
L 329.586699 87.843344 
" clip-path="url(#pbe4fed57a8)" style="fill: none; stroke: #ffa500; stroke-width: 1.5"/>
    <path d="M 318.612461 86.576824 
L 318.612461 74.566054 
" clip-path="url(#pbe4fed57a8)" style="fill: none; stroke: #ffa500; stroke-width: 1.5"/>
    <path d="M 245.450873 120.060128 
L 245.450873 107.552246 
" clip-path="url(#pbe4fed57a8)" style="fill: none; stroke: #ffa500; stroke-width: 1.5"/>
    <path d="M 315.868901 94.374221 
L 315.868901 82.444726 
" clip-path="url(#pbe4fed57a8)" style="fill: none; stroke: #ffa500; stroke-width: 1.5"/>
    <path d="M 305.809183 153.067893 
L 305.809183 146.1421 
" clip-path="url(#pbe4fed57a8)" style="fill: none; stroke: #ffa500; stroke-width: 1.5"/>
    <path d="M 248.194433 166.582729 
L 248.194433 154.499928 
" clip-path="url(#pbe4fed57a8)" style="fill: none; stroke: #ffa500; stroke-width: 1.5"/>
    <path d="M 335.988338 89.552085 
L 335.988338 83.670191 
" clip-path="url(#pbe4fed57a8)" style="fill: none; stroke: #ffa500; stroke-width: 1.5"/>
    <path d="M 245.450873 150.251737 
L 245.450873 138.304277 
" clip-path="url(#pbe4fed57a8)" style="fill: none; stroke: #ffa500; stroke-width: 1.5"/>
    <path d="M 325.0141 88.268362 
L 325.0141 66.433057 
" clip-path="url(#pbe4fed57a8)" style="fill: none; stroke: #ffa500; stroke-width: 1.5"/>
    <path d="M 134.793972 153.781876 
L 134.793972 141.511007 
" clip-path="url(#pbe4fed57a8)" style="fill: none; stroke: #ffa500; stroke-width: 1.5"/>
    <path d="M 317.697941 63.251516 
L 317.697941 50.639228 
" clip-path="url(#pbe4fed57a8)" style="fill: none; stroke: #ffa500; stroke-width: 1.5"/>
    <path d="M 256.425111 158.89634 
L 256.425111 147.497142 
" clip-path="url(#pbe4fed57a8)" style="fill: none; stroke: #ffa500; stroke-width: 1.5"/>
    <path d="M 273.800988 70.433955 
L 273.800988 60.489373 
" clip-path="url(#pbe4fed57a8)" style="fill: none; stroke: #ffa500; stroke-width: 1.5"/>
    <path d="M 358.851334 70.064943 
L 358.851334 66.433057 
" clip-path="url(#pbe4fed57a8)" style="fill: none; stroke: #ffa500; stroke-width: 1.5"/>
    <path d="M 284.775226 130.925523 
L 284.775226 118.427046 
" clip-path="url(#pbe4fed57a8)" style="fill: none; stroke: #ffa500; stroke-width: 1.5"/>
    <path d="M 263.74127 179.948113 
L 263.74127 168.177911 
" clip-path="url(#pbe4fed57a8)" style="fill: none; stroke: #ffa500; stroke-width: 1.5"/>
    <path d="M 318.612461 74.184759 
L 318.612461 72.671015 
" clip-path="url(#pbe4fed57a8)" style="fill: none; stroke: #ffa500; stroke-width: 1.5"/>
    <path d="M 314.039862 79.630816 
L 314.039862 71.175238 
" clip-path="url(#pbe4fed57a8)" style="fill: none; stroke: #ffa500; stroke-width: 1.5"/>
    <path d="M 259.168671 155.222094 
L 259.168671 142.816902 
" clip-path="url(#pbe4fed57a8)" style="fill: none; stroke: #ffa500; stroke-width: 1.5"/>
    <path d="M 219.844317 121.160726 
L 219.844317 109.552569 
" clip-path="url(#pbe4fed57a8)" style="fill: none; stroke: #ffa500; stroke-width: 1.5"/>
    <path d="M 322.27054 80.028977 
L 322.27054 78.443828 
" clip-path="url(#pbe4fed57a8)" style="fill: none; stroke: #ffa500; stroke-width: 1.5"/>
    <path d="M 282.031667 54.813444 
L 282.031667 52.869688 
" clip-path="url(#pbe4fed57a8)" style="fill: none; stroke: #ffa500; stroke-width: 1.5"/>
    <path d="M 314.954381 108.049358 
L 314.954381 95.722017 
" clip-path="url(#pbe4fed57a8)" style="fill: none; stroke: #ffa500; stroke-width: 1.5"/>
    <path d="M 318.612461 92.159441 
L 318.612461 87.843344 
" clip-path="url(#pbe4fed57a8)" style="fill: none; stroke: #ffa500; stroke-width: 1.5"/>
    <path d="M 327.757659 119.513413 
L 327.757659 93.92814 
" clip-path="url(#pbe4fed57a8)" style="fill: none; stroke: #ffa500; stroke-width: 1.5"/>
    <path d="M 314.039862 76.102874 
L 314.039862 72.295403 
" clip-path="url(#pbe4fed57a8)" style="fill: none; stroke: #ffa500; stroke-width: 1.5"/>
    <path d="M 333.244778 98.00088 
L 333.244778 85.739494 
" clip-path="url(#pbe4fed57a8)" style="fill: none; stroke: #ffa500; stroke-width: 1.5"/>
    <path d="M 330.501219 84.081342 
L 330.501219 71.547521 
" clip-path="url(#pbe4fed57a8)" style="fill: none; stroke: #ffa500; stroke-width: 1.5"/>
   </g>
   <g id="line2d_33">
    <defs>
     <path id="mf7f9bd21da" d="M 0 2 
L 0 -2 
" style="stroke: #ffa500"/>
    </defs>
    <g clip-path="url(#pbe4fed57a8)">
     <use xlink:href="#mf7f9bd21da" x="71.692102" y="257.958015" style="fill: #ffa500; stroke: #ffa500"/>
     <use xlink:href="#mf7f9bd21da" x="327.757659" y="122.271022" style="fill: #ffa500; stroke: #ffa500"/>
     <use xlink:href="#mf7f9bd21da" x="275.630028" y="75.332121" style="fill: #ffa500; stroke: #ffa500"/>
     <use xlink:href="#mf7f9bd21da" x="218.929798" y="160.396569" style="fill: #ffa500; stroke: #ffa500"/>
     <use xlink:href="#mf7f9bd21da" x="296.663984" y="80.4284" style="fill: #ffa500; stroke: #ffa500"/>
     <use xlink:href="#mf7f9bd21da" x="318.612461" y="97.084383" style="fill: #ffa500; stroke: #ffa500"/>
     <use xlink:href="#mf7f9bd21da" x="281.117147" y="99.854115" style="fill: #ffa500; stroke: #ffa500"/>
     <use xlink:href="#mf7f9bd21da" x="183.263524" y="154.499928" style="fill: #ffa500; stroke: #ffa500"/>
     <use xlink:href="#mf7f9bd21da" x="256.425111" y="161.153434" style="fill: #ffa500; stroke: #ffa500"/>
     <use xlink:href="#mf7f9bd21da" x="306.723703" y="87.843344" style="fill: #ffa500; stroke: #ffa500"/>
     <use xlink:href="#mf7f9bd21da" x="205.212" y="178.197839" style="fill: #ffa500; stroke: #ffa500"/>
     <use xlink:href="#mf7f9bd21da" x="242.707314" y="133.947675" style="fill: #ffa500; stroke: #ffa500"/>
     <use xlink:href="#mf7f9bd21da" x="274.715508" y="120.609226" style="fill: #ffa500; stroke: #ffa500"/>
     <use xlink:href="#mf7f9bd21da" x="251.852512" y="149.557423" style="fill: #ffa500; stroke: #ffa500"/>
     <use xlink:href="#mf7f9bd21da" x="321.35602" y="99.854115" style="fill: #ffa500; stroke: #ffa500"/>
     <use xlink:href="#mf7f9bd21da" x="310.381782" y="80.4284" style="fill: #ffa500; stroke: #ffa500"/>
     <use xlink:href="#mf7f9bd21da" x="237.220194" y="113.651067" style="fill: #ffa500; stroke: #ffa500"/>
     <use xlink:href="#mf7f9bd21da" x="307.638223" y="88.268362" style="fill: #ffa500; stroke: #ffa500"/>
     <use xlink:href="#mf7f9bd21da" x="297.578504" y="149.557423" style="fill: #ffa500; stroke: #ffa500"/>
     <use xlink:href="#mf7f9bd21da" x="239.963754" y="160.396569" style="fill: #ffa500; stroke: #ffa500"/>
     <use xlink:href="#mf7f9bd21da" x="327.757659" y="86.576824" style="fill: #ffa500; stroke: #ffa500"/>
     <use xlink:href="#mf7f9bd21da" x="237.220194" y="144.136471" style="fill: #ffa500; stroke: #ffa500"/>
     <use xlink:href="#mf7f9bd21da" x="316.783421" y="76.87837" style="fill: #ffa500; stroke: #ffa500"/>
     <use xlink:href="#mf7f9bd21da" x="125.648773" y="147.497142" style="fill: #ffa500; stroke: #ffa500"/>
     <use xlink:href="#mf7f9bd21da" x="309.467262" y="56.787652" style="fill: #ffa500; stroke: #ffa500"/>
     <use xlink:href="#mf7f9bd21da" x="248.194433" y="153.067893" style="fill: #ffa500; stroke: #ffa500"/>
     <use xlink:href="#mf7f9bd21da" x="265.57031" y="65.363594" style="fill: #ffa500; stroke: #ffa500"/>
     <use xlink:href="#mf7f9bd21da" x="350.620655" y="68.235916" style="fill: #ffa500; stroke: #ffa500"/>
     <use xlink:href="#mf7f9bd21da" x="276.544548" y="124.521398" style="fill: #ffa500; stroke: #ffa500"/>
     <use xlink:href="#mf7f9bd21da" x="255.510591" y="173.925643" style="fill: #ffa500; stroke: #ffa500"/>
     <use xlink:href="#mf7f9bd21da" x="310.381782" y="73.425614" style="fill: #ffa500; stroke: #ffa500"/>
     <use xlink:href="#mf7f9bd21da" x="305.809183" y="75.332121" style="fill: #ffa500; stroke: #ffa500"/>
     <use xlink:href="#mf7f9bd21da" x="250.937992" y="148.866914" style="fill: #ffa500; stroke: #ffa500"/>
     <use xlink:href="#mf7f9bd21da" x="211.613639" y="115.223034" style="fill: #ffa500; stroke: #ffa500"/>
     <use xlink:href="#mf7f9bd21da" x="314.039862" y="79.23391" style="fill: #ffa500; stroke: #ffa500"/>
     <use xlink:href="#mf7f9bd21da" x="273.800988" y="53.837818" style="fill: #ffa500; stroke: #ffa500"/>
     <use xlink:href="#mf7f9bd21da" x="305.809183" y="101.735011" style="fill: #ffa500; stroke: #ffa500"/>
     <use xlink:href="#mf7f9bd21da" x="310.381782" y="89.982916" style="fill: #ffa500; stroke: #ffa500"/>
     <use xlink:href="#mf7f9bd21da" x="319.526981" y="106.072569" style="fill: #ffa500; stroke: #ffa500"/>
     <use xlink:href="#mf7f9bd21da" x="305.809183" y="74.184759" style="fill: #ffa500; stroke: #ffa500"/>
     <use xlink:href="#mf7f9bd21da" x="324.09958" y="91.721118" style="fill: #ffa500; stroke: #ffa500"/>
     <use xlink:href="#mf7f9bd21da" x="322.27054" y="77.658668" style="fill: #ffa500; stroke: #ffa500"/>
    </g>
   </g>
   <g id="line2d_34">
    <g clip-path="url(#pbe4fed57a8)">
     <use xlink:href="#mf7f9bd21da" x="89.982499" y="257.958015" style="fill: #ffa500; stroke: #ffa500"/>
     <use xlink:href="#mf7f9bd21da" x="344.219016" y="122.271022" style="fill: #ffa500; stroke: #ffa500"/>
     <use xlink:href="#mf7f9bd21da" x="292.091385" y="75.332121" style="fill: #ffa500; stroke: #ffa500"/>
     <use xlink:href="#mf7f9bd21da" x="235.391155" y="160.396569" style="fill: #ffa500; stroke: #ffa500"/>
     <use xlink:href="#mf7f9bd21da" x="313.125342" y="80.4284" style="fill: #ffa500; stroke: #ffa500"/>
     <use xlink:href="#mf7f9bd21da" x="335.073818" y="97.084383" style="fill: #ffa500; stroke: #ffa500"/>
     <use xlink:href="#mf7f9bd21da" x="297.578504" y="99.854115" style="fill: #ffa500; stroke: #ffa500"/>
     <use xlink:href="#mf7f9bd21da" x="199.724881" y="154.499928" style="fill: #ffa500; stroke: #ffa500"/>
     <use xlink:href="#mf7f9bd21da" x="272.886468" y="161.153434" style="fill: #ffa500; stroke: #ffa500"/>
     <use xlink:href="#mf7f9bd21da" x="323.18506" y="87.843344" style="fill: #ffa500; stroke: #ffa500"/>
     <use xlink:href="#mf7f9bd21da" x="221.673357" y="178.197839" style="fill: #ffa500; stroke: #ffa500"/>
     <use xlink:href="#mf7f9bd21da" x="259.168671" y="133.947675" style="fill: #ffa500; stroke: #ffa500"/>
     <use xlink:href="#mf7f9bd21da" x="291.176865" y="120.609226" style="fill: #ffa500; stroke: #ffa500"/>
     <use xlink:href="#mf7f9bd21da" x="268.313869" y="149.557423" style="fill: #ffa500; stroke: #ffa500"/>
     <use xlink:href="#mf7f9bd21da" x="337.817378" y="99.854115" style="fill: #ffa500; stroke: #ffa500"/>
     <use xlink:href="#mf7f9bd21da" x="326.843139" y="80.4284" style="fill: #ffa500; stroke: #ffa500"/>
     <use xlink:href="#mf7f9bd21da" x="253.681552" y="113.651067" style="fill: #ffa500; stroke: #ffa500"/>
     <use xlink:href="#mf7f9bd21da" x="324.09958" y="88.268362" style="fill: #ffa500; stroke: #ffa500"/>
     <use xlink:href="#mf7f9bd21da" x="314.039862" y="149.557423" style="fill: #ffa500; stroke: #ffa500"/>
     <use xlink:href="#mf7f9bd21da" x="256.425111" y="160.396569" style="fill: #ffa500; stroke: #ffa500"/>
     <use xlink:href="#mf7f9bd21da" x="344.219016" y="86.576824" style="fill: #ffa500; stroke: #ffa500"/>
     <use xlink:href="#mf7f9bd21da" x="253.681552" y="144.136471" style="fill: #ffa500; stroke: #ffa500"/>
     <use xlink:href="#mf7f9bd21da" x="333.244778" y="76.87837" style="fill: #ffa500; stroke: #ffa500"/>
     <use xlink:href="#mf7f9bd21da" x="143.93917" y="147.497142" style="fill: #ffa500; stroke: #ffa500"/>
     <use xlink:href="#mf7f9bd21da" x="325.92862" y="56.787652" style="fill: #ffa500; stroke: #ffa500"/>
     <use xlink:href="#mf7f9bd21da" x="264.65579" y="153.067893" style="fill: #ffa500; stroke: #ffa500"/>
     <use xlink:href="#mf7f9bd21da" x="282.031667" y="65.363594" style="fill: #ffa500; stroke: #ffa500"/>
     <use xlink:href="#mf7f9bd21da" x="367.082013" y="68.235916" style="fill: #ffa500; stroke: #ffa500"/>
     <use xlink:href="#mf7f9bd21da" x="293.005905" y="124.521398" style="fill: #ffa500; stroke: #ffa500"/>
     <use xlink:href="#mf7f9bd21da" x="271.971949" y="173.925643" style="fill: #ffa500; stroke: #ffa500"/>
     <use xlink:href="#mf7f9bd21da" x="326.843139" y="73.425614" style="fill: #ffa500; stroke: #ffa500"/>
     <use xlink:href="#mf7f9bd21da" x="322.27054" y="75.332121" style="fill: #ffa500; stroke: #ffa500"/>
     <use xlink:href="#mf7f9bd21da" x="267.399349" y="148.866914" style="fill: #ffa500; stroke: #ffa500"/>
     <use xlink:href="#mf7f9bd21da" x="228.074996" y="115.223034" style="fill: #ffa500; stroke: #ffa500"/>
     <use xlink:href="#mf7f9bd21da" x="330.501219" y="79.23391" style="fill: #ffa500; stroke: #ffa500"/>
     <use xlink:href="#mf7f9bd21da" x="290.262346" y="53.837818" style="fill: #ffa500; stroke: #ffa500"/>
     <use xlink:href="#mf7f9bd21da" x="324.09958" y="101.735011" style="fill: #ffa500; stroke: #ffa500"/>
     <use xlink:href="#mf7f9bd21da" x="326.843139" y="89.982916" style="fill: #ffa500; stroke: #ffa500"/>
     <use xlink:href="#mf7f9bd21da" x="335.988338" y="106.072569" style="fill: #ffa500; stroke: #ffa500"/>
     <use xlink:href="#mf7f9bd21da" x="322.27054" y="74.184759" style="fill: #ffa500; stroke: #ffa500"/>
     <use xlink:href="#mf7f9bd21da" x="342.389977" y="91.721118" style="fill: #ffa500; stroke: #ffa500"/>
     <use xlink:href="#mf7f9bd21da" x="338.731897" y="77.658668" style="fill: #ffa500; stroke: #ffa500"/>
    </g>
   </g>
   <g id="line2d_35">
    <defs>
     <path id="mb5dd6b8f7f" d="M 2 0 
L -2 -0 
" style="stroke: #ffa500"/>
    </defs>
    <g clip-path="url(#pbe4fed57a8)">
     <use xlink:href="#mb5dd6b8f7f" x="80.837301" y="262.966" style="fill: #ffa500; stroke: #ffa500"/>
     <use xlink:href="#mb5dd6b8f7f" x="335.988338" y="127.392085" style="fill: #ffa500; stroke: #ffa500"/>
     <use xlink:href="#mb5dd6b8f7f" x="283.860707" y="78.83825" style="fill: #ffa500; stroke: #ffa500"/>
     <use xlink:href="#mb5dd6b8f7f" x="227.160476" y="162.68094" style="fill: #ffa500; stroke: #ffa500"/>
     <use xlink:href="#mb5dd6b8f7f" x="304.894663" y="81.63432" style="fill: #ffa500; stroke: #ffa500"/>
     <use xlink:href="#mb5dd6b8f7f" x="326.843139" y="98.00088" style="fill: #ffa500; stroke: #ffa500"/>
     <use xlink:href="#mb5dd6b8f7f" x="289.347826" y="104.610064" style="fill: #ffa500; stroke: #ffa500"/>
     <use xlink:href="#mb5dd6b8f7f" x="191.494202" y="160.396569" style="fill: #ffa500; stroke: #ffa500"/>
     <use xlink:href="#mb5dd6b8f7f" x="264.65579" y="173.925643" style="fill: #ffa500; stroke: #ffa500"/>
     <use xlink:href="#mb5dd6b8f7f" x="314.954381" y="93.040688" style="fill: #ffa500; stroke: #ffa500"/>
     <use xlink:href="#mb5dd6b8f7f" x="213.442678" y="184.433202" style="fill: #ffa500; stroke: #ffa500"/>
     <use xlink:href="#mb5dd6b8f7f" x="250.937992" y="140.218507" style="fill: #ffa500; stroke: #ffa500"/>
     <use xlink:href="#mb5dd6b8f7f" x="282.946187" y="126.812692" style="fill: #ffa500; stroke: #ffa500"/>
     <use xlink:href="#mb5dd6b8f7f" x="260.083191" y="155.948423" style="fill: #ffa500; stroke: #ffa500"/>
     <use xlink:href="#mb5dd6b8f7f" x="329.586699" y="113.131405" style="fill: #ffa500; stroke: #ffa500"/>
     <use xlink:href="#mb5dd6b8f7f" x="318.612461" y="86.576824" style="fill: #ffa500; stroke: #ffa500"/>
     <use xlink:href="#mb5dd6b8f7f" x="245.450873" y="120.060128" style="fill: #ffa500; stroke: #ffa500"/>
     <use xlink:href="#mb5dd6b8f7f" x="315.868901" y="94.374221" style="fill: #ffa500; stroke: #ffa500"/>
     <use xlink:href="#mb5dd6b8f7f" x="305.809183" y="153.067893" style="fill: #ffa500; stroke: #ffa500"/>
     <use xlink:href="#mb5dd6b8f7f" x="248.194433" y="166.582729" style="fill: #ffa500; stroke: #ffa500"/>
     <use xlink:href="#mb5dd6b8f7f" x="335.988338" y="89.552085" style="fill: #ffa500; stroke: #ffa500"/>
     <use xlink:href="#mb5dd6b8f7f" x="245.450873" y="150.251737" style="fill: #ffa500; stroke: #ffa500"/>
     <use xlink:href="#mb5dd6b8f7f" x="325.0141" y="88.268362" style="fill: #ffa500; stroke: #ffa500"/>
     <use xlink:href="#mb5dd6b8f7f" x="134.793972" y="153.781876" style="fill: #ffa500; stroke: #ffa500"/>
     <use xlink:href="#mb5dd6b8f7f" x="317.697941" y="63.251516" style="fill: #ffa500; stroke: #ffa500"/>
     <use xlink:href="#mb5dd6b8f7f" x="256.425111" y="158.89634" style="fill: #ffa500; stroke: #ffa500"/>
     <use xlink:href="#mb5dd6b8f7f" x="273.800988" y="70.433955" style="fill: #ffa500; stroke: #ffa500"/>
     <use xlink:href="#mb5dd6b8f7f" x="358.851334" y="70.064943" style="fill: #ffa500; stroke: #ffa500"/>
     <use xlink:href="#mb5dd6b8f7f" x="284.775226" y="130.925523" style="fill: #ffa500; stroke: #ffa500"/>
     <use xlink:href="#mb5dd6b8f7f" x="263.74127" y="179.948113" style="fill: #ffa500; stroke: #ffa500"/>
     <use xlink:href="#mb5dd6b8f7f" x="318.612461" y="74.184759" style="fill: #ffa500; stroke: #ffa500"/>
     <use xlink:href="#mb5dd6b8f7f" x="314.039862" y="79.630816" style="fill: #ffa500; stroke: #ffa500"/>
     <use xlink:href="#mb5dd6b8f7f" x="259.168671" y="155.222094" style="fill: #ffa500; stroke: #ffa500"/>
     <use xlink:href="#mb5dd6b8f7f" x="219.844317" y="121.160726" style="fill: #ffa500; stroke: #ffa500"/>
     <use xlink:href="#mb5dd6b8f7f" x="322.27054" y="80.028977" style="fill: #ffa500; stroke: #ffa500"/>
     <use xlink:href="#mb5dd6b8f7f" x="282.031667" y="54.813444" style="fill: #ffa500; stroke: #ffa500"/>
     <use xlink:href="#mb5dd6b8f7f" x="314.954381" y="108.049358" style="fill: #ffa500; stroke: #ffa500"/>
     <use xlink:href="#mb5dd6b8f7f" x="318.612461" y="92.159441" style="fill: #ffa500; stroke: #ffa500"/>
     <use xlink:href="#mb5dd6b8f7f" x="327.757659" y="119.513413" style="fill: #ffa500; stroke: #ffa500"/>
     <use xlink:href="#mb5dd6b8f7f" x="314.039862" y="76.102874" style="fill: #ffa500; stroke: #ffa500"/>
     <use xlink:href="#mb5dd6b8f7f" x="333.244778" y="98.00088" style="fill: #ffa500; stroke: #ffa500"/>
     <use xlink:href="#mb5dd6b8f7f" x="330.501219" y="84.081342" style="fill: #ffa500; stroke: #ffa500"/>
    </g>
   </g>
   <g id="line2d_36">
    <g clip-path="url(#pbe4fed57a8)">
     <use xlink:href="#mb5dd6b8f7f" x="80.837301" y="253.141465" style="fill: #ffa500; stroke: #ffa500"/>
     <use xlink:href="#mb5dd6b8f7f" x="335.988338" y="117.349965" style="fill: #ffa500; stroke: #ffa500"/>
     <use xlink:href="#mb5dd6b8f7f" x="283.860707" y="71.920907" style="fill: #ffa500; stroke: #ffa500"/>
     <use xlink:href="#mb5dd6b8f7f" x="227.160476" y="158.152871" style="fill: #ffa500; stroke: #ffa500"/>
     <use xlink:href="#mb5dd6b8f7f" x="304.894663" y="79.23391" style="fill: #ffa500; stroke: #ffa500"/>
     <use xlink:href="#mb5dd6b8f7f" x="326.843139" y="96.174504" style="fill: #ffa500; stroke: #ffa500"/>
     <use xlink:href="#mb5dd6b8f7f" x="289.347826" y="95.271148" style="fill: #ffa500; stroke: #ffa500"/>
     <use xlink:href="#mb5dd6b8f7f" x="191.494202" y="148.866914" style="fill: #ffa500; stroke: #ffa500"/>
     <use xlink:href="#mb5dd6b8f7f" x="264.65579" y="149.557423" style="fill: #ffa500; stroke: #ffa500"/>
     <use xlink:href="#mb5dd6b8f7f" x="314.954381" y="82.851892" style="fill: #ffa500; stroke: #ffa500"/>
     <use xlink:href="#mb5dd6b8f7f" x="213.442678" y="172.25651" style="fill: #ffa500; stroke: #ffa500"/>
     <use xlink:href="#mb5dd6b8f7f" x="250.937992" y="127.974154" style="fill: #ffa500; stroke: #ffa500"/>
     <use xlink:href="#mb5dd6b8f7f" x="282.946187" y="114.696863" style="fill: #ffa500; stroke: #ffa500"/>
     <use xlink:href="#mb5dd6b8f7f" x="260.083191" y="143.474959" style="fill: #ffa500; stroke: #ffa500"/>
     <use xlink:href="#mb5dd6b8f7f" x="329.586699" y="87.843344" style="fill: #ffa500; stroke: #ffa500"/>
     <use xlink:href="#mb5dd6b8f7f" x="318.612461" y="74.566054" style="fill: #ffa500; stroke: #ffa500"/>
     <use xlink:href="#mb5dd6b8f7f" x="245.450873" y="107.552246" style="fill: #ffa500; stroke: #ffa500"/>
     <use xlink:href="#mb5dd6b8f7f" x="315.868901" y="82.444726" style="fill: #ffa500; stroke: #ffa500"/>
     <use xlink:href="#mb5dd6b8f7f" x="305.809183" y="146.1421" style="fill: #ffa500; stroke: #ffa500"/>
     <use xlink:href="#mb5dd6b8f7f" x="248.194433" y="154.499928" style="fill: #ffa500; stroke: #ffa500"/>
     <use xlink:href="#mb5dd6b8f7f" x="335.988338" y="83.670191" style="fill: #ffa500; stroke: #ffa500"/>
     <use xlink:href="#mb5dd6b8f7f" x="245.450873" y="138.304277" style="fill: #ffa500; stroke: #ffa500"/>
     <use xlink:href="#mb5dd6b8f7f" x="325.0141" y="66.433057" style="fill: #ffa500; stroke: #ffa500"/>
     <use xlink:href="#mb5dd6b8f7f" x="134.793972" y="141.511007" style="fill: #ffa500; stroke: #ffa500"/>
     <use xlink:href="#mb5dd6b8f7f" x="317.697941" y="50.639228" style="fill: #ffa500; stroke: #ffa500"/>
     <use xlink:href="#mb5dd6b8f7f" x="256.425111" y="147.497142" style="fill: #ffa500; stroke: #ffa500"/>
     <use xlink:href="#mb5dd6b8f7f" x="273.800988" y="60.489373" style="fill: #ffa500; stroke: #ffa500"/>
     <use xlink:href="#mb5dd6b8f7f" x="358.851334" y="66.433057" style="fill: #ffa500; stroke: #ffa500"/>
     <use xlink:href="#mb5dd6b8f7f" x="284.775226" y="118.427046" style="fill: #ffa500; stroke: #ffa500"/>
     <use xlink:href="#mb5dd6b8f7f" x="263.74127" y="168.177911" style="fill: #ffa500; stroke: #ffa500"/>
     <use xlink:href="#mb5dd6b8f7f" x="318.612461" y="72.671015" style="fill: #ffa500; stroke: #ffa500"/>
     <use xlink:href="#mb5dd6b8f7f" x="314.039862" y="71.175238" style="fill: #ffa500; stroke: #ffa500"/>
     <use xlink:href="#mb5dd6b8f7f" x="259.168671" y="142.816902" style="fill: #ffa500; stroke: #ffa500"/>
     <use xlink:href="#mb5dd6b8f7f" x="219.844317" y="109.552569" style="fill: #ffa500; stroke: #ffa500"/>
     <use xlink:href="#mb5dd6b8f7f" x="322.27054" y="78.443828" style="fill: #ffa500; stroke: #ffa500"/>
     <use xlink:href="#mb5dd6b8f7f" x="282.031667" y="52.869688" style="fill: #ffa500; stroke: #ffa500"/>
     <use xlink:href="#mb5dd6b8f7f" x="314.954381" y="95.722017" style="fill: #ffa500; stroke: #ffa500"/>
     <use xlink:href="#mb5dd6b8f7f" x="318.612461" y="87.843344" style="fill: #ffa500; stroke: #ffa500"/>
     <use xlink:href="#mb5dd6b8f7f" x="327.757659" y="93.92814" style="fill: #ffa500; stroke: #ffa500"/>
     <use xlink:href="#mb5dd6b8f7f" x="314.039862" y="72.295403" style="fill: #ffa500; stroke: #ffa500"/>
     <use xlink:href="#mb5dd6b8f7f" x="333.244778" y="85.739494" style="fill: #ffa500; stroke: #ffa500"/>
     <use xlink:href="#mb5dd6b8f7f" x="330.501219" y="71.547521" style="fill: #ffa500; stroke: #ffa500"/>
    </g>
   </g>
   <g id="line2d_37">
    <path d="M 76.264702 234.444029 
L 166.914476 181.941152 
L 182.156473 172.729616 
L 192.585208 166.618309 
L 203.816154 160.114799 
L 215.047099 153.306672 
L 222.266993 148.714602 
L 231.893517 142.836529 
L 246.333305 134.785102 
L 261.575302 125.29784 
L 262.377512 124.901676 
L 267.992985 121.279587 
L 273.608458 117.846373 
L 277.61951 115.379844 
L 284.037193 111.398532 
L 292.059297 106.659715 
L 296.070349 104.548796 
L 297.67477 103.508385 
L 302.488032 100.742945 
L 306.499084 98.381836 
L 310.510136 95.921804 
L 319.33445 90.736393 
L 320.938871 89.921583 
L 322.543292 88.893989 
L 324.949923 87.262656 
L 328.158764 85.305983 
L 334.576448 82.021875 
L 345.807393 76.580735 
L 348.214024 75.280783 
L 387.522333 52.86092 
L 396.346648 47.662233 
L 396.346648 47.662233 
" clip-path="url(#pbe4fed57a8)" style="fill: none; stroke: #000000; stroke-width: 1.5"/>
   </g>
   <g id="line2d_38">
    <path d="M 76.264702 260.578452 
L 109.957538 240.842618 
L 124.397325 232.187176 
L 148.463637 217.67057 
L 187.771946 194.440985 
L 206.222785 183.30263 
L 212.640468 179.673326 
L 227.882466 170.781023 
L 234.300149 167.189005 
L 247.135515 159.686621 
L 254.355408 155.472771 
L 258.36646 153.128805 
L 267.190775 147.718438 
L 272.004037 145.001653 
L 275.212879 142.894631 
L 278.42172 140.875075 
L 287.246034 135.040764 
L 293.663718 131.085676 
L 297.67477 129.121585 
L 302.488032 126.096602 
L 304.092453 125.248982 
L 306.499084 124.007013 
L 311.312346 121.299088 
L 316.125609 118.929816 
L 319.33445 117.039682 
L 326.554344 113.610644 
L 328.158764 112.516163 
L 341.796341 102.510572 
L 345.005183 100.491647 
L 350.620655 97.308642 
L 396.346648 71.779626 
L 396.346648 71.779626 
" clip-path="url(#pbe4fed57a8)" style="fill: none; stroke-dasharray: 5.55,2.4; stroke-dashoffset: 0; stroke: #ff0000; stroke-width: 1.5"/>
   </g>
   <g id="line2d_39">
    <path d="M 76.264702 211.254748 
L 106.748696 193.421175 
L 122.792904 183.643691 
L 158.090161 163.30928 
L 166.914476 157.870488 
L 219.860362 124.886674 
L 232.695728 117.399385 
L 237.50899 114.454696 
L 267.992985 94.768643 
L 270.399616 93.325356 
L 273.608458 91.296069 
L 280.026141 87.136403 
L 287.246034 83.274159 
L 295.268138 78.475041 
L 303.290242 73.851785 
L 308.103505 70.981029 
L 312.114557 68.743774 
L 313.718977 67.64578 
L 316.125609 65.930456 
L 320.136661 63.958133 
L 329.763185 58.171898 
L 340.994131 51.615477 
L 349.016235 46.466387 
L 351.422866 45.276955 
L 369.873705 36.409255 
L 374.686967 33.835506 
L 396.346648 21.046 
L 396.346648 21.046 
" clip-path="url(#pbe4fed57a8)" style="fill: none; stroke-dasharray: 5.55,2.4; stroke-dashoffset: 0; stroke: #ff0000; stroke-width: 1.5"/>
   </g>
   <g id="line2d_40">
    <defs>
     <path id="m8f851a31a8" d="M 0 3 
C 0.795609 3 1.55874 2.683901 2.12132 2.12132 
C 2.683901 1.55874 3 0.795609 3 0 
C 3 -0.795609 2.683901 -1.55874 2.12132 -2.12132 
C 1.55874 -2.683901 0.795609 -3 0 -3 
C -0.795609 -3 -1.55874 -2.683901 -2.12132 -2.12132 
C -2.683901 -1.55874 -3 -0.795609 -3 0 
C -3 0.795609 -2.683901 1.55874 -2.12132 2.12132 
C -1.55874 2.683901 -0.795609 3 0 3 
z
" style="stroke: #ffa500"/>
    </defs>
    <g clip-path="url(#pbe4fed57a8)">
     <use xlink:href="#m8f851a31a8" x="80.837301" y="257.958015" style="fill: #ffa500; stroke: #ffa500"/>
     <use xlink:href="#m8f851a31a8" x="335.988338" y="122.271022" style="fill: #ffa500; stroke: #ffa500"/>
     <use xlink:href="#m8f851a31a8" x="283.860707" y="75.332121" style="fill: #ffa500; stroke: #ffa500"/>
     <use xlink:href="#m8f851a31a8" x="227.160476" y="160.396569" style="fill: #ffa500; stroke: #ffa500"/>
     <use xlink:href="#m8f851a31a8" x="304.894663" y="80.4284" style="fill: #ffa500; stroke: #ffa500"/>
     <use xlink:href="#m8f851a31a8" x="326.843139" y="97.084383" style="fill: #ffa500; stroke: #ffa500"/>
     <use xlink:href="#m8f851a31a8" x="289.347826" y="99.854115" style="fill: #ffa500; stroke: #ffa500"/>
     <use xlink:href="#m8f851a31a8" x="191.494202" y="154.499928" style="fill: #ffa500; stroke: #ffa500"/>
     <use xlink:href="#m8f851a31a8" x="264.65579" y="161.153434" style="fill: #ffa500; stroke: #ffa500"/>
     <use xlink:href="#m8f851a31a8" x="314.954381" y="87.843344" style="fill: #ffa500; stroke: #ffa500"/>
     <use xlink:href="#m8f851a31a8" x="213.442678" y="178.197839" style="fill: #ffa500; stroke: #ffa500"/>
     <use xlink:href="#m8f851a31a8" x="250.937992" y="133.947675" style="fill: #ffa500; stroke: #ffa500"/>
     <use xlink:href="#m8f851a31a8" x="282.946187" y="120.609226" style="fill: #ffa500; stroke: #ffa500"/>
     <use xlink:href="#m8f851a31a8" x="260.083191" y="149.557423" style="fill: #ffa500; stroke: #ffa500"/>
     <use xlink:href="#m8f851a31a8" x="329.586699" y="99.854115" style="fill: #ffa500; stroke: #ffa500"/>
     <use xlink:href="#m8f851a31a8" x="318.612461" y="80.4284" style="fill: #ffa500; stroke: #ffa500"/>
     <use xlink:href="#m8f851a31a8" x="245.450873" y="113.651067" style="fill: #ffa500; stroke: #ffa500"/>
     <use xlink:href="#m8f851a31a8" x="315.868901" y="88.268362" style="fill: #ffa500; stroke: #ffa500"/>
     <use xlink:href="#m8f851a31a8" x="305.809183" y="149.557423" style="fill: #ffa500; stroke: #ffa500"/>
     <use xlink:href="#m8f851a31a8" x="248.194433" y="160.396569" style="fill: #ffa500; stroke: #ffa500"/>
     <use xlink:href="#m8f851a31a8" x="335.988338" y="86.576824" style="fill: #ffa500; stroke: #ffa500"/>
     <use xlink:href="#m8f851a31a8" x="245.450873" y="144.136471" style="fill: #ffa500; stroke: #ffa500"/>
     <use xlink:href="#m8f851a31a8" x="325.0141" y="76.87837" style="fill: #ffa500; stroke: #ffa500"/>
     <use xlink:href="#m8f851a31a8" x="134.793972" y="147.497142" style="fill: #ffa500; stroke: #ffa500"/>
     <use xlink:href="#m8f851a31a8" x="317.697941" y="56.787652" style="fill: #ffa500; stroke: #ffa500"/>
     <use xlink:href="#m8f851a31a8" x="256.425111" y="153.067893" style="fill: #ffa500; stroke: #ffa500"/>
     <use xlink:href="#m8f851a31a8" x="273.800988" y="65.363594" style="fill: #ffa500; stroke: #ffa500"/>
     <use xlink:href="#m8f851a31a8" x="358.851334" y="68.235916" style="fill: #ffa500; stroke: #ffa500"/>
     <use xlink:href="#m8f851a31a8" x="284.775226" y="124.521398" style="fill: #ffa500; stroke: #ffa500"/>
     <use xlink:href="#m8f851a31a8" x="263.74127" y="173.925643" style="fill: #ffa500; stroke: #ffa500"/>
     <use xlink:href="#m8f851a31a8" x="318.612461" y="73.425614" style="fill: #ffa500; stroke: #ffa500"/>
     <use xlink:href="#m8f851a31a8" x="314.039862" y="75.332121" style="fill: #ffa500; stroke: #ffa500"/>
     <use xlink:href="#m8f851a31a8" x="259.168671" y="148.866914" style="fill: #ffa500; stroke: #ffa500"/>
     <use xlink:href="#m8f851a31a8" x="219.844317" y="115.223034" style="fill: #ffa500; stroke: #ffa500"/>
     <use xlink:href="#m8f851a31a8" x="322.27054" y="79.23391" style="fill: #ffa500; stroke: #ffa500"/>
     <use xlink:href="#m8f851a31a8" x="282.031667" y="53.837818" style="fill: #ffa500; stroke: #ffa500"/>
     <use xlink:href="#m8f851a31a8" x="314.954381" y="101.735011" style="fill: #ffa500; stroke: #ffa500"/>
     <use xlink:href="#m8f851a31a8" x="318.612461" y="89.982916" style="fill: #ffa500; stroke: #ffa500"/>
     <use xlink:href="#m8f851a31a8" x="327.757659" y="106.072569" style="fill: #ffa500; stroke: #ffa500"/>
     <use xlink:href="#m8f851a31a8" x="314.039862" y="74.184759" style="fill: #ffa500; stroke: #ffa500"/>
     <use xlink:href="#m8f851a31a8" x="333.244778" y="91.721118" style="fill: #ffa500; stroke: #ffa500"/>
     <use xlink:href="#m8f851a31a8" x="330.501219" y="77.658668" style="fill: #ffa500; stroke: #ffa500"/>
    </g>
   </g>
   <g id="patch_3">
    <path d="M 55.459375 275.062 
L 55.459375 8.95 
" style="fill: none; stroke: #000000; stroke-width: 0.8; stroke-linejoin: miter; stroke-linecap: square"/>
   </g>
   <g id="patch_4">
    <path d="M 412.579375 275.062 
L 412.579375 8.95 
" style="fill: none; stroke: #000000; stroke-width: 0.8; stroke-linejoin: miter; stroke-linecap: square"/>
   </g>
   <g id="patch_5">
    <path d="M 55.459375 275.062 
L 412.579375 275.062 
" style="fill: none; stroke: #000000; stroke-width: 0.8; stroke-linejoin: miter; stroke-linecap: square"/>
   </g>
   <g id="patch_6">
    <path d="M 55.459375 8.95 
L 412.579375 8.95 
" style="fill: none; stroke: #000000; stroke-width: 0.8; stroke-linejoin: miter; stroke-linecap: square"/>
   </g>
  </g>
 </g>
 <defs>
  <clipPath id="pbe4fed57a8">
   <rect x="55.459375" y="8.95" width="357.12" height="266.112"/>
  </clipPath>
 </defs>
</svg>
