<?xml version="1.0" encoding="utf-8" standalone="no"?>
<!DOCTYPE svg PUBLIC "-//W3C//DTD SVG 1.1//EN"
  "http://www.w3.org/Graphics/SVG/1.1/DTD/svg11.dtd">
<svg xmlns:xlink="http://www.w3.org/1999/xlink" width="404.566875pt" height="309.921375pt" viewBox="0 0 404.566875 309.921375" xmlns="http://www.w3.org/2000/svg" version="1.1">
 <metadata>
  <rdf:RDF xmlns:dc="http://purl.org/dc/elements/1.1/" xmlns:cc="http://creativecommons.org/ns#" xmlns:rdf="http://www.w3.org/1999/02/22-rdf-syntax-ns#">
   <cc:Work>
    <dc:type rdf:resource="http://purl.org/dc/dcmitype/StillImage"/>
    <dc:date>2026-01-22T19:55:57.813808</dc:date>
    <dc:format>image/svg+xml</dc:format>
    <dc:creator>
     <cc:Agent>
      <dc:title>Matplotlib v3.10.8, https://matplotlib.org/</dc:title>
     </cc:Agent>
    </dc:creator>
   </cc:Work>
  </rdf:RDF>
 </metadata>
 <defs>
  <style type="text/css">*{stroke-linejoin: round; stroke-linecap: butt}</style>
 </defs>
 <g id="figure_1">
  <g id="patch_1">
   <path d="M 0 309.921375 
L 404.566875 309.921375 
L 404.566875 0 
L 0 0 
z
" style="fill: #ffffff"/>
  </g>
  <g id="axes_1">
   <g id="patch_2">
    <path d="M 31.907813 129.91 
L 389.027813 129.91 
L 389.027813 8.95 
L 31.907813 8.95 
z
" style="fill: #ffffff"/>
   </g>
   <g id="matplotlib.axis_1">
    <g id="xtick_1">
     <g id="line2d_1">
      <defs>
       <path id="m6a7ce6b3a0" d="M 0 1.75 
L 0 -1.75 
" style="stroke: #000000; stroke-width: 0.8"/>
      </defs>
      <g>
       <use xlink:href="#m6a7ce6b3a0" x="31.907813" y="129.91" style="stroke: #000000; stroke-width: 0.8"/>
      </g>
     </g>
     <g id="line2d_2">
      <g>
       <use xlink:href="#m6a7ce6b3a0" x="31.907813" y="8.95" style="stroke: #000000; stroke-width: 0.8"/>
      </g>
     </g>
     <g id="text_1">
      <!-- −100 -->
      <g transform="translate(20.56875 142.300625) scale(0.1 -0.1)">
       <defs>
        <path id="HelveticaNeue-Medium-2212" d="M 307 1293 
L 307 1946 
L 3533 1946 
L 3533 1293 
L 307 1293 
z
" transform="scale(0.015625)"/>
        <path id="HelveticaNeue-Medium-31" d="M 339 3738 
Q 570 3738 787 3776 
Q 1005 3814 1181 3904 
Q 1357 3994 1481 4134 
Q 1606 4275 1645 4480 
L 2240 4480 
L 2240 0 
L 1440 0 
L 1440 3162 
L 339 3162 
L 339 3738 
z
" transform="scale(0.015625)"/>
        <path id="HelveticaNeue-Medium-30" d="M 1779 4570 
Q 2259 4570 2563 4349 
Q 2867 4128 3036 3785 
Q 3206 3443 3267 3033 
Q 3328 2624 3328 2240 
Q 3328 1856 3267 1446 
Q 3206 1037 3036 694 
Q 2867 352 2563 131 
Q 2259 -90 1779 -90 
Q 1299 -90 995 131 
Q 691 352 521 694 
Q 352 1037 291 1446 
Q 230 1856 230 2240 
Q 230 2624 291 3033 
Q 352 3443 521 3785 
Q 691 4128 995 4349 
Q 1299 4570 1779 4570 
z
M 1779 518 
Q 2016 518 2176 656 
Q 2336 794 2429 1027 
Q 2522 1261 2560 1574 
Q 2598 1888 2598 2240 
Q 2598 2592 2560 2902 
Q 2522 3213 2429 3449 
Q 2336 3686 2176 3824 
Q 2016 3962 1779 3962 
Q 1536 3962 1379 3824 
Q 1222 3686 1129 3449 
Q 1037 3213 998 2902 
Q 960 2592 960 2240 
Q 960 1888 998 1574 
Q 1037 1261 1129 1027 
Q 1222 794 1379 656 
Q 1536 518 1779 518 
z
" transform="scale(0.015625)"/>
       </defs>
       <use xlink:href="#HelveticaNeue-Medium-2212"/>
       <use xlink:href="#HelveticaNeue-Medium-31" transform="translate(59.999985 0)"/>
       <use xlink:href="#HelveticaNeue-Medium-30" transform="translate(115.599976 0)"/>
       <use xlink:href="#HelveticaNeue-Medium-30" transform="translate(171.199966 0)"/>
      </g>
     </g>
    </g>
    <g id="xtick_2">
     <g id="line2d_3">
      <g>
       <use xlink:href="#m6a7ce6b3a0" x="76.547813" y="129.91" style="stroke: #000000; stroke-width: 0.8"/>
      </g>
     </g>
     <g id="line2d_4">
      <g>
       <use xlink:href="#m6a7ce6b3a0" x="76.547813" y="8.95" style="stroke: #000000; stroke-width: 0.8"/>
      </g>
     </g>
     <g id="text_2">
      <!-- −75 -->
      <g transform="translate(67.988438 142.300625) scale(0.1 -0.1)">
       <defs>
        <path id="HelveticaNeue-Medium-37" d="M 224 4480 
L 3290 4480 
L 3290 3872 
Q 2938 3475 2650 3049 
Q 2362 2624 2147 2147 
Q 1933 1670 1798 1139 
Q 1664 608 1619 0 
L 819 0 
Q 858 531 1002 1049 
Q 1146 1568 1373 2054 
Q 1600 2541 1901 2989 
Q 2202 3437 2547 3827 
L 224 3827 
L 224 4480 
z
" transform="scale(0.015625)"/>
        <path id="HelveticaNeue-Medium-35" d="M 787 4480 
L 3104 4480 
L 3104 3827 
L 1331 3827 
L 1101 2688 
L 1114 2675 
Q 1261 2842 1488 2928 
Q 1715 3014 1939 3014 
Q 2272 3014 2534 2902 
Q 2797 2790 2976 2588 
Q 3155 2387 3248 2112 
Q 3341 1837 3341 1517 
Q 3341 1248 3254 963 
Q 3168 678 2979 444 
Q 2790 211 2496 60 
Q 2202 -90 1792 -90 
Q 1466 -90 1187 -3 
Q 909 83 697 256 
Q 486 429 361 681 
Q 237 934 224 1274 
L 954 1274 
Q 986 909 1203 713 
Q 1421 518 1779 518 
Q 2010 518 2170 595 
Q 2330 672 2429 806 
Q 2528 941 2569 1120 
Q 2611 1299 2611 1504 
Q 2611 1690 2560 1859 
Q 2509 2029 2406 2157 
Q 2304 2285 2141 2361 
Q 1978 2438 1760 2438 
Q 1530 2438 1328 2352 
Q 1126 2266 1037 2029 
L 307 2029 
L 787 4480 
z
" transform="scale(0.015625)"/>
       </defs>
       <use xlink:href="#HelveticaNeue-Medium-2212"/>
       <use xlink:href="#HelveticaNeue-Medium-37" transform="translate(59.999985 0)"/>
       <use xlink:href="#HelveticaNeue-Medium-35" transform="translate(115.599976 0)"/>
      </g>
     </g>
    </g>
    <g id="xtick_3">
     <g id="line2d_5">
      <g>
       <use xlink:href="#m6a7ce6b3a0" x="121.187813" y="129.91" style="stroke: #000000; stroke-width: 0.8"/>
      </g>
     </g>
     <g id="line2d_6">
      <g>
       <use xlink:href="#m6a7ce6b3a0" x="121.187813" y="8.95" style="stroke: #000000; stroke-width: 0.8"/>
      </g>
     </g>
     <g id="text_3">
      <!-- −50 -->
      <g transform="translate(112.628438 142.300625) scale(0.1 -0.1)">
       <use xlink:href="#HelveticaNeue-Medium-2212"/>
       <use xlink:href="#HelveticaNeue-Medium-35" transform="translate(59.999985 0)"/>
       <use xlink:href="#HelveticaNeue-Medium-30" transform="translate(115.599976 0)"/>
      </g>
     </g>
    </g>
    <g id="xtick_4">
     <g id="line2d_7">
      <g>
       <use xlink:href="#m6a7ce6b3a0" x="165.827813" y="129.91" style="stroke: #000000; stroke-width: 0.8"/>
      </g>
     </g>
     <g id="line2d_8">
      <g>
       <use xlink:href="#m6a7ce6b3a0" x="165.827813" y="8.95" style="stroke: #000000; stroke-width: 0.8"/>
      </g>
     </g>
     <g id="text_4">
      <!-- −25 -->
      <g transform="translate(157.268438 142.300625) scale(0.1 -0.1)">
       <defs>
        <path id="HelveticaNeue-Medium-32" d="M 3309 0 
L 250 0 
Q 256 557 518 973 
Q 781 1389 1235 1696 
Q 1453 1856 1689 2006 
Q 1926 2157 2124 2329 
Q 2323 2502 2451 2704 
Q 2579 2906 2586 3168 
Q 2586 3290 2557 3427 
Q 2528 3565 2445 3683 
Q 2362 3802 2214 3882 
Q 2067 3962 1830 3962 
Q 1613 3962 1469 3875 
Q 1325 3789 1238 3638 
Q 1152 3488 1110 3283 
Q 1069 3078 1062 2842 
L 333 2842 
Q 333 3213 432 3529 
Q 531 3846 729 4076 
Q 928 4307 1213 4438 
Q 1498 4570 1875 4570 
Q 2285 4570 2560 4435 
Q 2835 4301 3004 4096 
Q 3174 3891 3244 3651 
Q 3315 3411 3315 3194 
Q 3315 2925 3232 2707 
Q 3149 2490 3008 2307 
Q 2867 2125 2688 1971 
Q 2509 1818 2317 1683 
Q 2125 1549 1933 1427 
Q 1741 1306 1577 1184 
Q 1414 1062 1292 931 
Q 1171 800 1126 653 
L 3309 653 
L 3309 0 
z
" transform="scale(0.015625)"/>
       </defs>
       <use xlink:href="#HelveticaNeue-Medium-2212"/>
       <use xlink:href="#HelveticaNeue-Medium-32" transform="translate(59.999985 0)"/>
       <use xlink:href="#HelveticaNeue-Medium-35" transform="translate(115.599976 0)"/>
      </g>
     </g>
    </g>
    <g id="xtick_5">
     <g id="line2d_9">
      <g>
       <use xlink:href="#m6a7ce6b3a0" x="210.467813" y="129.91" style="stroke: #000000; stroke-width: 0.8"/>
      </g>
     </g>
     <g id="line2d_10">
      <g>
       <use xlink:href="#m6a7ce6b3a0" x="210.467813" y="8.95" style="stroke: #000000; stroke-width: 0.8"/>
      </g>
     </g>
     <g id="text_5">
      <!-- 0 -->
      <g transform="translate(207.688125 142.300625) scale(0.1 -0.1)">
       <use xlink:href="#HelveticaNeue-Medium-30"/>
      </g>
     </g>
    </g>
    <g id="xtick_6">
     <g id="line2d_11">
      <g>
       <use xlink:href="#m6a7ce6b3a0" x="255.107813" y="129.91" style="stroke: #000000; stroke-width: 0.8"/>
      </g>
     </g>
     <g id="line2d_12">
      <g>
       <use xlink:href="#m6a7ce6b3a0" x="255.107813" y="8.95" style="stroke: #000000; stroke-width: 0.8"/>
      </g>
     </g>
     <g id="text_6">
      <!-- 25 -->
      <g transform="translate(249.548438 142.300625) scale(0.1 -0.1)">
       <use xlink:href="#HelveticaNeue-Medium-32"/>
       <use xlink:href="#HelveticaNeue-Medium-35" transform="translate(55.599991 0)"/>
      </g>
     </g>
    </g>
    <g id="xtick_7">
     <g id="line2d_13">
      <g>
       <use xlink:href="#m6a7ce6b3a0" x="299.747813" y="129.91" style="stroke: #000000; stroke-width: 0.8"/>
      </g>
     </g>
     <g id="line2d_14">
      <g>
       <use xlink:href="#m6a7ce6b3a0" x="299.747813" y="8.95" style="stroke: #000000; stroke-width: 0.8"/>
      </g>
     </g>
     <g id="text_7">
      <!-- 50 -->
      <g transform="translate(294.188438 142.300625) scale(0.1 -0.1)">
       <use xlink:href="#HelveticaNeue-Medium-35"/>
       <use xlink:href="#HelveticaNeue-Medium-30" transform="translate(55.599991 0)"/>
      </g>
     </g>
    </g>
    <g id="xtick_8">
     <g id="line2d_15">
      <g>
       <use xlink:href="#m6a7ce6b3a0" x="344.387813" y="129.91" style="stroke: #000000; stroke-width: 0.8"/>
      </g>
     </g>
     <g id="line2d_16">
      <g>
       <use xlink:href="#m6a7ce6b3a0" x="344.387813" y="8.95" style="stroke: #000000; stroke-width: 0.8"/>
      </g>
     </g>
     <g id="text_8">
      <!-- 75 -->
      <g transform="translate(338.828438 142.300625) scale(0.1 -0.1)">
       <use xlink:href="#HelveticaNeue-Medium-37"/>
       <use xlink:href="#HelveticaNeue-Medium-35" transform="translate(55.599991 0)"/>
      </g>
     </g>
    </g>
    <g id="xtick_9">
     <g id="line2d_17">
      <g>
       <use xlink:href="#m6a7ce6b3a0" x="389.027813" y="129.91" style="stroke: #000000; stroke-width: 0.8"/>
      </g>
     </g>
     <g id="line2d_18">
      <g>
       <use xlink:href="#m6a7ce6b3a0" x="389.027813" y="8.95" style="stroke: #000000; stroke-width: 0.8"/>
      </g>
     </g>
     <g id="text_9">
      <!-- 100 -->
      <g transform="translate(380.68875 142.300625) scale(0.1 -0.1)">
       <use xlink:href="#HelveticaNeue-Medium-31"/>
       <use xlink:href="#HelveticaNeue-Medium-30" transform="translate(55.599991 0)"/>
       <use xlink:href="#HelveticaNeue-Medium-30" transform="translate(111.199982 0)"/>
      </g>
     </g>
    </g>
   </g>
   <g id="matplotlib.axis_2">
    <g id="ytick_1">
     <g id="line2d_19">
      <defs>
       <path id="m0fb050f933" d="M 1.75 0 
L -1.75 -0 
" style="stroke: #000000; stroke-width: 0.8"/>
      </defs>
      <g>
       <use xlink:href="#m0fb050f933" x="31.907813" y="124.411818" style="stroke: #000000; stroke-width: 0.8"/>
      </g>
     </g>
     <g id="line2d_20">
      <g>
       <use xlink:href="#m0fb050f933" x="389.027813" y="124.411818" style="stroke: #000000; stroke-width: 0.8"/>
      </g>
     </g>
     <g id="text_10">
      <!-- 0 -->
      <g transform="translate(21.098438 127.982131) scale(0.1 -0.1)">
       <use xlink:href="#HelveticaNeue-Medium-30"/>
      </g>
     </g>
    </g>
    <g id="ytick_2">
     <g id="line2d_21">
      <g>
       <use xlink:href="#m0fb050f933" x="31.907813" y="99.975455" style="stroke: #000000; stroke-width: 0.8"/>
      </g>
     </g>
     <g id="line2d_22">
      <g>
       <use xlink:href="#m0fb050f933" x="389.027813" y="99.975455" style="stroke: #000000; stroke-width: 0.8"/>
      </g>
     </g>
     <g id="text_11">
      <!-- 2 -->
      <g transform="translate(21.098438 103.545767) scale(0.1 -0.1)">
       <use xlink:href="#HelveticaNeue-Medium-32"/>
      </g>
     </g>
    </g>
    <g id="ytick_3">
     <g id="line2d_23">
      <g>
       <use xlink:href="#m0fb050f933" x="31.907813" y="75.539091" style="stroke: #000000; stroke-width: 0.8"/>
      </g>
     </g>
     <g id="line2d_24">
      <g>
       <use xlink:href="#m0fb050f933" x="389.027813" y="75.539091" style="stroke: #000000; stroke-width: 0.8"/>
      </g>
     </g>
     <g id="text_12">
      <!-- 4 -->
      <g transform="translate(21.098438 79.109403) scale(0.1 -0.1)">
       <defs>
        <path id="HelveticaNeue-Medium-34" d="M 717 1638 
L 2074 1638 
L 2074 3610 
L 2061 3610 
L 717 1638 
z
M 3341 1062 
L 2765 1062 
L 2765 0 
L 2074 0 
L 2074 1062 
L 154 1062 
L 154 1786 
L 2074 4480 
L 2765 4480 
L 2765 1638 
L 3341 1638 
L 3341 1062 
z
" transform="scale(0.015625)"/>
       </defs>
       <use xlink:href="#HelveticaNeue-Medium-34"/>
      </g>
     </g>
    </g>
    <g id="ytick_4">
     <g id="line2d_25">
      <g>
       <use xlink:href="#m0fb050f933" x="31.907813" y="51.102727" style="stroke: #000000; stroke-width: 0.8"/>
      </g>
     </g>
     <g id="line2d_26">
      <g>
       <use xlink:href="#m0fb050f933" x="389.027813" y="51.102727" style="stroke: #000000; stroke-width: 0.8"/>
      </g>
     </g>
     <g id="text_13">
      <!-- 6 -->
      <g transform="translate(21.098438 54.67304) scale(0.1 -0.1)">
       <defs>
        <path id="HelveticaNeue-Medium-36" d="M 2528 3347 
Q 2502 3622 2332 3792 
Q 2163 3962 1875 3962 
Q 1677 3962 1533 3888 
Q 1389 3814 1289 3692 
Q 1190 3571 1129 3414 
Q 1069 3258 1030 3085 
Q 992 2912 976 2742 
Q 960 2573 947 2426 
L 960 2413 
Q 1107 2682 1366 2813 
Q 1626 2944 1926 2944 
Q 2259 2944 2521 2829 
Q 2784 2714 2966 2512 
Q 3149 2310 3245 2035 
Q 3341 1760 3341 1440 
Q 3341 1114 3235 835 
Q 3130 557 2931 349 
Q 2733 141 2457 25 
Q 2182 -90 1850 -90 
Q 1357 -90 1040 92 
Q 723 275 540 592 
Q 358 909 288 1334 
Q 218 1760 218 2253 
Q 218 2656 304 3065 
Q 390 3475 588 3811 
Q 787 4147 1110 4358 
Q 1434 4570 1907 4570 
Q 2176 4570 2413 4480 
Q 2650 4390 2832 4230 
Q 3014 4070 3129 3846 
Q 3245 3622 3258 3347 
L 2528 3347 
z
M 1824 518 
Q 2022 518 2169 598 
Q 2317 678 2416 806 
Q 2515 934 2563 1104 
Q 2611 1274 2611 1453 
Q 2611 1632 2563 1798 
Q 2515 1965 2416 2089 
Q 2317 2214 2169 2291 
Q 2022 2368 1824 2368 
Q 1626 2368 1475 2294 
Q 1325 2221 1222 2096 
Q 1120 1971 1069 1804 
Q 1018 1638 1018 1453 
Q 1018 1267 1069 1100 
Q 1120 934 1222 803 
Q 1325 672 1475 595 
Q 1626 518 1824 518 
z
" transform="scale(0.015625)"/>
       </defs>
       <use xlink:href="#HelveticaNeue-Medium-36"/>
      </g>
     </g>
    </g>
    <g id="ytick_5">
     <g id="line2d_27">
      <g>
       <use xlink:href="#m0fb050f933" x="31.907813" y="26.666364" style="stroke: #000000; stroke-width: 0.8"/>
      </g>
     </g>
     <g id="line2d_28">
      <g>
       <use xlink:href="#m0fb050f933" x="389.027813" y="26.666364" style="stroke: #000000; stroke-width: 0.8"/>
      </g>
     </g>
     <g id="text_14">
      <!-- 8 -->
      <g transform="translate(21.098438 30.236676) scale(0.1 -0.1)">
       <defs>
        <path id="HelveticaNeue-Medium-38" d="M 1779 3994 
Q 1485 3994 1280 3818 
Q 1075 3642 1075 3309 
Q 1075 2989 1273 2819 
Q 1472 2650 1779 2650 
Q 2086 2650 2284 2819 
Q 2483 2989 2483 3309 
Q 2483 3642 2278 3818 
Q 2074 3994 1779 3994 
z
M 1779 -90 
Q 1440 -90 1149 6 
Q 858 102 646 284 
Q 435 467 316 729 
Q 198 992 198 1318 
Q 198 1741 419 2029 
Q 640 2317 1018 2413 
L 1018 2426 
Q 710 2541 547 2781 
Q 384 3021 384 3347 
Q 384 3923 745 4246 
Q 1107 4570 1779 4570 
Q 2451 4570 2812 4246 
Q 3174 3923 3174 3347 
Q 3174 3021 3011 2781 
Q 2848 2541 2541 2426 
L 2541 2413 
Q 2918 2317 3139 2029 
Q 3360 1741 3360 1318 
Q 3360 992 3241 729 
Q 3123 467 2912 284 
Q 2701 102 2409 6 
Q 2118 -90 1779 -90 
z
M 1779 486 
Q 2144 486 2387 704 
Q 2630 922 2630 1318 
Q 2630 1690 2387 1898 
Q 2144 2106 1779 2106 
Q 1414 2106 1171 1898 
Q 928 1690 928 1318 
Q 928 922 1171 704 
Q 1414 486 1779 486 
z
" transform="scale(0.015625)"/>
       </defs>
       <use xlink:href="#HelveticaNeue-Medium-38"/>
      </g>
     </g>
    </g>
   </g>
   <g id="LineCollection_1">
    <path d="M 224.752613 124.411818 
L 249.751013 124.411818 
" clip-path="url(#pd36161e230)" style="fill: none; stroke: #ffa500; stroke-width: 1.5"/>
    <path d="M 189.040613 112.193636 
L 244.394213 112.193636 
" clip-path="url(#pd36161e230)" style="fill: none; stroke: #ffa500; stroke-width: 1.5"/>
    <path d="M 203.325413 99.975455 
L 228.323813 99.975455 
" clip-path="url(#pd36161e230)" style="fill: none; stroke: #ffa500; stroke-width: 1.5"/>
    <path d="M 224.752613 87.757273 
L 235.466213 87.757273 
" clip-path="url(#pd36161e230)" style="fill: none; stroke: #ffa500; stroke-width: 1.5"/>
    <path d="M 201.539813 75.539091 
L 222.967013 75.539091 
" clip-path="url(#pd36161e230)" style="fill: none; stroke: #ffa500; stroke-width: 1.5"/>
    <path d="M 197.968613 63.320909 
L 217.610213 63.320909 
" clip-path="url(#pd36161e230)" style="fill: none; stroke: #ffa500; stroke-width: 1.5"/>
    <path d="M 190.826213 51.102727 
L 226.538213 51.102727 
" clip-path="url(#pd36161e230)" style="fill: none; stroke: #ffa500; stroke-width: 1.5"/>
    <path d="M 174.755813 38.884545 
L 197.968613 38.884545 
" clip-path="url(#pd36161e230)" style="fill: none; stroke: #ffa500; stroke-width: 1.5"/>
    <path d="M 121.187813 26.666364 
L 165.827813 26.666364 
" clip-path="url(#pd36161e230)" style="fill: none; stroke: #ffa500; stroke-width: 1.5"/>
    <path d="M 181.898213 14.448182 
L 230.109413 14.448182 
" clip-path="url(#pd36161e230)" style="fill: none; stroke: #ffa500; stroke-width: 1.5"/>
   </g>
   <g id="line2d_29">
    <defs>
     <path id="m0c2c1abbb5" d="M 0 2 
L 0 -2 
" style="stroke: #ffa500"/>
    </defs>
    <g clip-path="url(#pd36161e230)">
     <use xlink:href="#m0c2c1abbb5" x="224.752613" y="124.411818" style="fill: #ffa500; stroke: #ffa500"/>
     <use xlink:href="#m0c2c1abbb5" x="189.040613" y="112.193636" style="fill: #ffa500; stroke: #ffa500"/>
     <use xlink:href="#m0c2c1abbb5" x="203.325413" y="99.975455" style="fill: #ffa500; stroke: #ffa500"/>
     <use xlink:href="#m0c2c1abbb5" x="224.752613" y="87.757273" style="fill: #ffa500; stroke: #ffa500"/>
     <use xlink:href="#m0c2c1abbb5" x="201.539813" y="75.539091" style="fill: #ffa500; stroke: #ffa500"/>
     <use xlink:href="#m0c2c1abbb5" x="197.968613" y="63.320909" style="fill: #ffa500; stroke: #ffa500"/>
     <use xlink:href="#m0c2c1abbb5" x="190.826213" y="51.102727" style="fill: #ffa500; stroke: #ffa500"/>
     <use xlink:href="#m0c2c1abbb5" x="174.755813" y="38.884545" style="fill: #ffa500; stroke: #ffa500"/>
     <use xlink:href="#m0c2c1abbb5" x="121.187813" y="26.666364" style="fill: #ffa500; stroke: #ffa500"/>
     <use xlink:href="#m0c2c1abbb5" x="181.898213" y="14.448182" style="fill: #ffa500; stroke: #ffa500"/>
    </g>
   </g>
   <g id="line2d_30">
    <g clip-path="url(#pd36161e230)">
     <use xlink:href="#m0c2c1abbb5" x="249.751013" y="124.411818" style="fill: #ffa500; stroke: #ffa500"/>
     <use xlink:href="#m0c2c1abbb5" x="244.394213" y="112.193636" style="fill: #ffa500; stroke: #ffa500"/>
     <use xlink:href="#m0c2c1abbb5" x="228.323813" y="99.975455" style="fill: #ffa500; stroke: #ffa500"/>
     <use xlink:href="#m0c2c1abbb5" x="235.466213" y="87.757273" style="fill: #ffa500; stroke: #ffa500"/>
     <use xlink:href="#m0c2c1abbb5" x="222.967013" y="75.539091" style="fill: #ffa500; stroke: #ffa500"/>
     <use xlink:href="#m0c2c1abbb5" x="217.610213" y="63.320909" style="fill: #ffa500; stroke: #ffa500"/>
     <use xlink:href="#m0c2c1abbb5" x="226.538213" y="51.102727" style="fill: #ffa500; stroke: #ffa500"/>
     <use xlink:href="#m0c2c1abbb5" x="197.968613" y="38.884545" style="fill: #ffa500; stroke: #ffa500"/>
     <use xlink:href="#m0c2c1abbb5" x="165.827813" y="26.666364" style="fill: #ffa500; stroke: #ffa500"/>
     <use xlink:href="#m0c2c1abbb5" x="230.109413" y="14.448182" style="fill: #ffa500; stroke: #ffa500"/>
    </g>
   </g>
   <g id="line2d_31">
    <defs>
     <path id="m3f28e65b48" d="M 0 3 
C 0.795609 3 1.55874 2.683901 2.12132 2.12132 
C 2.683901 1.55874 3 0.795609 3 0 
C 3 -0.795609 2.683901 -1.55874 2.12132 -2.12132 
C 1.55874 -2.683901 0.795609 -3 0 -3 
C -0.795609 -3 -1.55874 -2.683901 -2.12132 -2.12132 
C -2.683901 -1.55874 -3 -0.795609 -3 0 
C -3 0.795609 -2.683901 1.55874 -2.12132 2.12132 
C -1.55874 2.683901 -0.795609 3 0 3 
z
" style="stroke: #ffa500"/>
    </defs>
    <g clip-path="url(#pd36161e230)">
     <use xlink:href="#m3f28e65b48" x="237.251813" y="124.411818" style="fill: #ffa500; stroke: #ffa500"/>
     <use xlink:href="#m3f28e65b48" x="217.610213" y="112.193636" style="fill: #ffa500; stroke: #ffa500"/>
     <use xlink:href="#m3f28e65b48" x="214.039013" y="99.975455" style="fill: #ffa500; stroke: #ffa500"/>
     <use xlink:href="#m3f28e65b48" x="230.109413" y="87.757273" style="fill: #ffa500; stroke: #ffa500"/>
     <use xlink:href="#m3f28e65b48" x="212.253413" y="75.539091" style="fill: #ffa500; stroke: #ffa500"/>
     <use xlink:href="#m3f28e65b48" x="206.896613" y="63.320909" style="fill: #ffa500; stroke: #ffa500"/>
     <use xlink:href="#m3f28e65b48" x="208.682213" y="51.102727" style="fill: #ffa500; stroke: #ffa500"/>
     <use xlink:href="#m3f28e65b48" x="185.469413" y="38.884545" style="fill: #ffa500; stroke: #ffa500"/>
     <use xlink:href="#m3f28e65b48" x="140.829413" y="26.666364" style="fill: #ffa500; stroke: #ffa500"/>
     <use xlink:href="#m3f28e65b48" x="205.111013" y="14.448182" style="fill: #ffa500; stroke: #ffa500"/>
    </g>
   </g>
   <g id="patch_3">
    <path d="M 31.907813 129.91 
L 31.907813 8.95 
" style="fill: none; stroke: #000000; stroke-width: 0.8; stroke-linejoin: miter; stroke-linecap: square"/>
   </g>
   <g id="patch_4">
    <path d="M 389.027813 129.91 
L 389.027813 8.95 
" style="fill: none; stroke: #000000; stroke-width: 0.8; stroke-linejoin: miter; stroke-linecap: square"/>
   </g>
   <g id="patch_5">
    <path d="M 31.907813 129.91 
L 389.027813 129.91 
" style="fill: none; stroke: #000000; stroke-width: 0.8; stroke-linejoin: miter; stroke-linecap: square"/>
   </g>
   <g id="patch_6">
    <path d="M 31.907813 8.95 
L 389.027813 8.95 
" style="fill: none; stroke: #000000; stroke-width: 0.8; stroke-linejoin: miter; stroke-linecap: square"/>
   </g>
  </g>
  <g id="axes_2">
   <g id="patch_7">
    <path d="M 31.907813 275.062 
L 389.027813 275.062 
L 389.027813 154.102 
L 31.907813 154.102 
z
" style="fill: #ffffff"/>
   </g>
   <g id="FillBetweenPolyCollection_1">
    <defs>
     <path id="m077624ffef" d="M 31.907813 -40.357557 
L 31.907813 -40.357557 
L 32.80285 -40.357557 
L 33.697888 -40.357557 
L 34.592925 -40.357557 
L 35.487963 -40.357557 
L 36.383 -40.357557 
L 37.278038 -40.357557 
L 38.173076 -40.357557 
L 39.068113 -40.357557 
L 39.963151 -40.357557 
L 40.858188 -40.357557 
L 41.753226 -40.357557 
L 42.648264 -40.357557 
L 43.543301 -40.357557 
L 44.438339 -40.357557 
L 45.333376 -40.357557 
L 46.228414 -40.357557 
L 47.123452 -40.357557 
L 48.018489 -40.357557 
L 48.913527 -40.357557 
L 49.808564 -40.357557 
L 50.703602 -40.357557 
L 51.59864 -40.357557 
L 52.493677 -40.357557 
L 53.388715 -40.357557 
L 54.283752 -40.357557 
L 55.17879 -40.357557 
L 56.073828 -40.357557 
L 56.968865 -40.357557 
L 57.863903 -40.357557 
L 58.75894 -40.357557 
L 59.653978 -40.357557 
L 60.549016 -40.357557 
L 61.444053 -40.357557 
L 62.339091 -40.357557 
L 63.234128 -40.357557 
L 64.129166 -40.357557 
L 65.024203 -40.357557 
L 65.919241 -40.357557 
L 66.814279 -40.357557 
L 67.709316 -40.357557 
L 68.604354 -40.357557 
L 69.499391 -40.357557 
L 70.394429 -40.357557 
L 71.289467 -40.357557 
L 72.184504 -40.357557 
L 73.079542 -40.357557 
L 73.974579 -40.357557 
L 74.869617 -40.357557 
L 75.764655 -40.357557 
L 76.659692 -40.357557 
L 77.55473 -40.357557 
L 78.449767 -40.357557 
L 79.344805 -40.357557 
L 80.239843 -40.357557 
L 81.13488 -40.357557 
L 82.029918 -40.357557 
L 82.924955 -40.357557 
L 83.819993 -40.357557 
L 84.715031 -40.357557 
L 85.610068 -40.357557 
L 86.505106 -40.357557 
L 87.400143 -40.357557 
L 88.295181 -40.357557 
L 89.190219 -40.357557 
L 90.085256 -40.357557 
L 90.980294 -40.357557 
L 91.875331 -40.357557 
L 92.770369 -40.357557 
L 93.665406 -40.357557 
L 94.560444 -40.357557 
L 95.455482 -40.357557 
L 96.350519 -40.357557 
L 97.245557 -40.357557 
L 98.140594 -40.357557 
L 99.035632 -40.357557 
L 99.93067 -40.357557 
L 100.825707 -40.357557 
L 101.720745 -40.357557 
L 102.615782 -40.357557 
L 103.51082 -40.357557 
L 104.405858 -40.357557 
L 105.300895 -40.357557 
L 106.195933 -40.357557 
L 107.09097 -40.357557 
L 107.986008 -40.357557 
L 108.881046 -40.357557 
L 109.776083 -40.357557 
L 110.671121 -40.357557 
L 111.566158 -40.357557 
L 112.461196 -40.357557 
L 113.356234 -40.357557 
L 114.251271 -40.357557 
L 115.146309 -40.357557 
L 116.041346 -40.357557 
L 116.936384 -40.357557 
L 117.831422 -40.357557 
L 118.726459 -40.357557 
L 119.621497 -40.357557 
L 120.516534 -40.357557 
L 121.411572 -40.357557 
L 122.306609 -40.357557 
L 123.201647 -40.357557 
L 124.096685 -40.357557 
L 124.991722 -40.357557 
L 125.88676 -40.357557 
L 126.781797 -40.357557 
L 127.676835 -40.357557 
L 128.571873 -40.357557 
L 129.46691 -40.357557 
L 130.361948 -40.357557 
L 131.256985 -40.357557 
L 132.152023 -40.357557 
L 133.047061 -40.357557 
L 133.942098 -40.357557 
L 134.837136 -40.357557 
L 135.732173 -40.357557 
L 136.627211 -40.357557 
L 137.522249 -40.357557 
L 138.417286 -40.357557 
L 139.312324 -40.357557 
L 140.207361 -40.357557 
L 141.102399 -40.357557 
L 141.997437 -40.357557 
L 142.892474 -40.357557 
L 143.787512 -40.357557 
L 144.682549 -40.357557 
L 145.577587 -40.357557 
L 146.472625 -40.357557 
L 147.367662 -40.357557 
L 148.2627 -40.357557 
L 149.157737 -40.357557 
L 150.052775 -40.357557 
L 150.947812 -40.357557 
L 151.84285 -40.357557 
L 152.737888 -40.357557 
L 153.632925 -40.357557 
L 154.527963 -40.357557 
L 155.423 -40.357558 
L 156.318038 -40.357559 
L 157.213076 -40.35756 
L 158.108113 -40.357562 
L 159.003151 -40.357567 
L 159.898188 -40.357574 
L 160.793226 -40.357587 
L 161.688264 -40.357608 
L 162.583301 -40.357644 
L 163.478339 -40.357704 
L 164.373376 -40.357803 
L 165.268414 -40.357963 
L 166.163452 -40.358222 
L 167.058489 -40.358637 
L 167.953527 -40.359292 
L 168.848564 -40.360317 
L 169.743602 -40.361906 
L 170.63864 -40.364343 
L 171.533677 -40.368042 
L 172.428715 -40.3736 
L 173.323752 -40.381864 
L 174.21879 -40.394024 
L 175.113828 -40.411917 
L 176.008865 -40.432886 
L 176.903903 -40.460713 
L 177.79894 -40.497975 
L 178.693978 -40.547546 
L 179.589016 -40.613054 
L 180.484053 -40.699038 
L 181.379091 -40.811119 
L 182.274128 -40.95619 
L 183.169166 -41.142609 
L 184.064203 -41.412124 
L 184.959241 -41.77692 
L 185.854279 -42.250735 
L 186.749316 -42.859686 
L 187.644354 -43.633958 
L 188.539391 -44.607746 
L 189.434429 -45.785325 
L 190.329467 -46.726638 
L 191.224504 -47.797877 
L 192.119542 -49.010267 
L 193.014579 -50.374712 
L 193.909617 -51.901499 
L 194.804655 -53.599969 
L 195.699692 -55.655399 
L 196.59473 -58.76067 
L 197.489767 -61.858591 
L 198.384805 -64.153895 
L 199.279843 -67.911975 
L 200.17488 -69.566963 
L 201.069918 -73.334949 
L 201.964955 -76.541662 
L 202.859993 -76.884627 
L 203.755031 -78.692905 
L 204.650068 -78.252579 
L 205.545106 -79.365186 
L 206.440143 -80.308669 
L 207.335181 -79.26973 
L 208.230219 -78.199046 
L 209.125256 -77.361563 
L 210.020294 -77.458775 
L 210.915331 -78.034663 
L 211.810369 -78.814702 
L 212.705406 -79.561111 
L 213.600444 -80.271056 
L 214.495482 -80.941786 
L 215.390519 -80.385074 
L 216.285557 -79.196434 
L 217.180594 -77.98266 
L 218.075632 -77.292023 
L 218.97067 -76.837775 
L 219.865707 -76.492399 
L 220.760745 -76.211908 
L 221.655782 -75.901615 
L 222.55082 -74.235076 
L 223.445858 -72.122357 
L 224.340895 -71.131783 
L 225.235933 -67.575689 
L 226.13097 -64.455882 
L 227.026008 -63.721673 
L 227.921046 -60.840471 
L 228.816083 -58.651004 
L 229.711121 -57.236019 
L 230.606158 -54.829459 
L 231.501196 -52.518535 
L 232.396234 -51.034312 
L 233.291271 -49.425708 
L 234.186309 -48.295082 
L 235.081346 -47.336931 
L 235.976384 -46.635908 
L 236.871422 -45.774726 
L 237.766459 -44.959364 
L 238.661497 -44.248517 
L 239.556534 -43.605552 
L 240.451572 -43.007329 
L 241.346609 -42.502362 
L 242.241647 -42.08876 
L 243.136685 -41.751204 
L 244.031722 -41.476569 
L 244.92676 -41.253742 
L 245.821797 -41.073401 
L 246.716835 -40.927791 
L 247.611873 -40.810497 
L 248.50691 -40.716238 
L 249.401948 -40.640681 
L 250.296985 -40.580279 
L 251.192023 -40.52314 
L 252.087061 -40.477033 
L 252.982098 -40.44311 
L 253.877136 -40.418351 
L 254.772173 -40.400425 
L 255.667211 -40.387552 
L 256.562249 -40.378381 
L 257.457286 -40.371902 
L 258.352324 -40.367361 
L 259.247361 -40.364205 
L 260.142399 -40.362029 
L 261.037437 -40.360542 
L 261.932474 -40.359533 
L 262.827512 -40.358855 
L 263.722549 -40.358403 
L 264.617587 -40.358104 
L 265.512625 -40.357907 
L 266.407662 -40.35778 
L 267.3027 -40.357698 
L 268.197737 -40.357645 
L 269.092775 -40.357612 
L 269.987813 -40.357591 
L 270.88285 -40.357577 
L 271.777888 -40.357569 
L 272.672925 -40.357564 
L 273.567963 -40.357561 
L 274.463 -40.357559 
L 275.358038 -40.357558 
L 276.253076 -40.357558 
L 277.148113 -40.357557 
L 278.043151 -40.357557 
L 278.938188 -40.357557 
L 279.833226 -40.357557 
L 280.728264 -40.357557 
L 281.623301 -40.357557 
L 282.518339 -40.357557 
L 283.413376 -40.357557 
L 284.308414 -40.357557 
L 285.203452 -40.357557 
L 286.098489 -40.357557 
L 286.993527 -40.357557 
L 287.888564 -40.357557 
L 288.783602 -40.357557 
L 289.67864 -40.357557 
L 290.573677 -40.357557 
L 291.468715 -40.357557 
L 292.363752 -40.357557 
L 293.25879 -40.357557 
L 294.153828 -40.357557 
L 295.048865 -40.357557 
L 295.943903 -40.357557 
L 296.83894 -40.357557 
L 297.733978 -40.357557 
L 298.629016 -40.357557 
L 299.524053 -40.357557 
L 300.419091 -40.357557 
L 301.314128 -40.357557 
L 302.209166 -40.357557 
L 303.104203 -40.357557 
L 303.999241 -40.357557 
L 304.894279 -40.357557 
L 305.789316 -40.357557 
L 306.684354 -40.357557 
L 307.579391 -40.357557 
L 308.474429 -40.357557 
L 309.369467 -40.357557 
L 310.264504 -40.357557 
L 311.159542 -40.357557 
L 312.054579 -40.357557 
L 312.949617 -40.357557 
L 313.844655 -40.357557 
L 314.739692 -40.357557 
L 315.63473 -40.357557 
L 316.529767 -40.357557 
L 317.424805 -40.357557 
L 318.319843 -40.357557 
L 319.21488 -40.357557 
L 320.109918 -40.357557 
L 321.004955 -40.357557 
L 321.899993 -40.357557 
L 322.795031 -40.357557 
L 323.690068 -40.357557 
L 324.585106 -40.357557 
L 325.480143 -40.357557 
L 326.375181 -40.357557 
L 327.270219 -40.357557 
L 328.165256 -40.357557 
L 329.060294 -40.357557 
L 329.955331 -40.357557 
L 330.850369 -40.357557 
L 331.745406 -40.357557 
L 332.640444 -40.357557 
L 333.535482 -40.357557 
L 334.430519 -40.357557 
L 335.325557 -40.357557 
L 336.220594 -40.357557 
L 337.115632 -40.357557 
L 338.01067 -40.357557 
L 338.905707 -40.357557 
L 339.800745 -40.357557 
L 340.695782 -40.357557 
L 341.59082 -40.357557 
L 342.485858 -40.357557 
L 343.380895 -40.357557 
L 344.275933 -40.357557 
L 345.17097 -40.357557 
L 346.066008 -40.357557 
L 346.961046 -40.357557 
L 347.856083 -40.357557 
L 348.751121 -40.357557 
L 349.646158 -40.357557 
L 350.541196 -40.357557 
L 351.436234 -40.357557 
L 352.331271 -40.357557 
L 353.226309 -40.357557 
L 354.121346 -40.357557 
L 355.016384 -40.357557 
L 355.911422 -40.357557 
L 356.806459 -40.357557 
L 357.701497 -40.357557 
L 358.596534 -40.357557 
L 359.491572 -40.357557 
L 360.386609 -40.357557 
L 361.281647 -40.357557 
L 362.176685 -40.357557 
L 363.071722 -40.357557 
L 363.96676 -40.357557 
L 364.861797 -40.357557 
L 365.756835 -40.357557 
L 366.651873 -40.357557 
L 367.54691 -40.357557 
L 368.441948 -40.357557 
L 369.336985 -40.357557 
L 370.232023 -40.357557 
L 371.127061 -40.357557 
L 372.022098 -40.357557 
L 372.917136 -40.357557 
L 373.812173 -40.357557 
L 374.707211 -40.357557 
L 375.602249 -40.357557 
L 376.497286 -40.357557 
L 377.392324 -40.357557 
L 378.287361 -40.357557 
L 379.182399 -40.357557 
L 380.077437 -40.357557 
L 380.972474 -40.357557 
L 381.867512 -40.357557 
L 382.762549 -40.357557 
L 383.657587 -40.357557 
L 384.552625 -40.357557 
L 385.447662 -40.357557 
L 386.3427 -40.357557 
L 387.237737 -40.357557 
L 388.132775 -40.357557 
L 389.027813 -40.357557 
L 389.027813 -40.357557 
L 389.027813 -40.357557 
L 388.132775 -40.357557 
L 387.237737 -40.357557 
L 386.3427 -40.357557 
L 385.447662 -40.357557 
L 384.552625 -40.357557 
L 383.657587 -40.357557 
L 382.762549 -40.357557 
L 381.867512 -40.357557 
L 380.972474 -40.357557 
L 380.077437 -40.357557 
L 379.182399 -40.357557 
L 378.287361 -40.357557 
L 377.392324 -40.357557 
L 376.497286 -40.357557 
L 375.602249 -40.357557 
L 374.707211 -40.357557 
L 373.812173 -40.357557 
L 372.917136 -40.357557 
L 372.022098 -40.357557 
L 371.127061 -40.357557 
L 370.232023 -40.357557 
L 369.336985 -40.357557 
L 368.441948 -40.357557 
L 367.54691 -40.357557 
L 366.651873 -40.357557 
L 365.756835 -40.357557 
L 364.861797 -40.357557 
L 363.96676 -40.357557 
L 363.071722 -40.357557 
L 362.176685 -40.357557 
L 361.281647 -40.357557 
L 360.386609 -40.357557 
L 359.491572 -40.357557 
L 358.596534 -40.357557 
L 357.701497 -40.357557 
L 356.806459 -40.357557 
L 355.911422 -40.357557 
L 355.016384 -40.357557 
L 354.121346 -40.357558 
L 353.226309 -40.357558 
L 352.331271 -40.357558 
L 351.436234 -40.357558 
L 350.541196 -40.357559 
L 349.646158 -40.357559 
L 348.751121 -40.35756 
L 347.856083 -40.35756 
L 346.961046 -40.357561 
L 346.066008 -40.357562 
L 345.17097 -40.357563 
L 344.275933 -40.357565 
L 343.380895 -40.357566 
L 342.485858 -40.357569 
L 341.59082 -40.357571 
L 340.695782 -40.357574 
L 339.800745 -40.357578 
L 338.905707 -40.357582 
L 338.01067 -40.357587 
L 337.115632 -40.357594 
L 336.220594 -40.357601 
L 335.325557 -40.35761 
L 334.430519 -40.357621 
L 333.535482 -40.357634 
L 332.640444 -40.357649 
L 331.745406 -40.357668 
L 330.850369 -40.357689 
L 329.955331 -40.357715 
L 329.060294 -40.357746 
L 328.165256 -40.357782 
L 327.270219 -40.357825 
L 326.375181 -40.357875 
L 325.480143 -40.357934 
L 324.585106 -40.358004 
L 323.690068 -40.358086 
L 322.795031 -40.358183 
L 321.899993 -40.358296 
L 321.004955 -40.358428 
L 320.109918 -40.358582 
L 319.21488 -40.358762 
L 318.319843 -40.358972 
L 317.424805 -40.359217 
L 316.529767 -40.359501 
L 315.63473 -40.359831 
L 314.739692 -40.360213 
L 313.844655 -40.360656 
L 312.949617 -40.361167 
L 312.054579 -40.361758 
L 311.159542 -40.362439 
L 310.264504 -40.363223 
L 309.369467 -40.364124 
L 308.474429 -40.365158 
L 307.579391 -40.366345 
L 306.684354 -40.367703 
L 305.789316 -40.369256 
L 304.894279 -40.371029 
L 303.999241 -40.373051 
L 303.104203 -40.375353 
L 302.209166 -40.377971 
L 301.314128 -40.380944 
L 300.419091 -40.384316 
L 299.524053 -40.388134 
L 298.629016 -40.392825 
L 297.733978 -40.398292 
L 296.83894 -40.404555 
L 295.943903 -40.411723 
L 295.048865 -40.419916 
L 294.153828 -40.429269 
L 293.25879 -40.439933 
L 292.363752 -40.452077 
L 291.468715 -40.465888 
L 290.573677 -40.481575 
L 289.67864 -40.499367 
L 288.783602 -40.519521 
L 287.888564 -40.542319 
L 286.993527 -40.568072 
L 286.098489 -40.597122 
L 285.203452 -40.629844 
L 284.308414 -40.666649 
L 283.413376 -40.707985 
L 282.518339 -40.754341 
L 281.623301 -40.806248 
L 280.728264 -40.864281 
L 279.833226 -40.929063 
L 278.938188 -41.001265 
L 278.043151 -41.081609 
L 277.148113 -41.170867 
L 276.253076 -41.269867 
L 275.358038 -41.37949 
L 274.463 -41.500673 
L 273.567963 -41.634408 
L 272.672925 -41.781741 
L 271.777888 -41.943773 
L 270.88285 -42.121658 
L 269.987813 -42.316599 
L 269.092775 -42.529848 
L 268.197737 -42.762701 
L 267.3027 -43.016493 
L 266.407662 -43.292593 
L 265.512625 -43.592398 
L 264.617587 -43.917323 
L 263.722549 -44.2688 
L 262.827512 -44.648258 
L 261.932474 -45.057122 
L 261.037437 -45.496796 
L 260.142399 -45.944079 
L 259.247361 -46.42008 
L 258.352324 -46.928222 
L 257.457286 -47.469644 
L 256.562249 -48.045404 
L 255.667211 -48.656466 
L 254.772173 -49.303688 
L 253.877136 -49.987798 
L 252.982098 -50.709387 
L 252.087061 -51.468883 
L 251.192023 -52.266542 
L 250.296985 -53.102429 
L 249.401948 -53.928463 
L 248.50691 -54.550944 
L 247.611873 -55.102999 
L 246.716835 -55.597896 
L 245.821797 -56.04521 
L 244.92676 -56.959812 
L 244.031722 -57.831866 
L 243.136685 -59.875686 
L 242.241647 -62.069948 
L 241.346609 -64.225116 
L 240.451572 -65.580553 
L 239.556534 -66.397492 
L 238.661497 -67.158044 
L 237.766459 -68.456357 
L 236.871422 -70.210771 
L 235.976384 -71.838049 
L 235.081346 -73.644197 
L 234.186309 -75.310997 
L 233.291271 -76.630069 
L 232.396234 -78.429585 
L 231.501196 -79.88006 
L 230.606158 -82.488443 
L 229.711121 -85.831687 
L 228.816083 -88.200474 
L 227.921046 -91.299708 
L 227.026008 -93.470744 
L 226.13097 -95.565665 
L 225.235933 -100.929535 
L 224.340895 -103.430378 
L 223.445858 -105.787245 
L 222.55082 -113.659782 
L 221.655782 -121.981169 
L 220.760745 -124.766173 
L 219.865707 -126.445572 
L 218.97067 -128.899756 
L 218.075632 -135.082093 
L 217.180594 -140.831715 
L 216.285557 -142.028733 
L 215.390519 -144.763252 
L 214.495482 -149.481606 
L 213.600444 -150.321193 
L 212.705406 -147.652495 
L 211.810369 -142.255604 
L 210.915331 -133.496575 
L 210.020294 -130.095388 
L 209.125256 -129.171909 
L 208.230219 -124.881038 
L 207.335181 -125.116462 
L 206.440143 -124.957756 
L 205.545106 -121.085595 
L 204.650068 -118.257481 
L 203.755031 -111.673374 
L 202.859993 -105.459151 
L 201.964955 -103.299194 
L 201.069918 -101.320745 
L 200.17488 -98.32954 
L 199.279843 -96.91994 
L 198.384805 -95.561042 
L 197.489767 -92.543014 
L 196.59473 -91.480223 
L 195.699692 -90.130417 
L 194.804655 -89.421101 
L 193.909617 -88.527145 
L 193.014579 -86.815379 
L 192.119542 -84.701482 
L 191.224504 -83.215075 
L 190.329467 -82.658656 
L 189.434429 -82.16524 
L 188.539391 -81.070411 
L 187.644354 -78.905176 
L 186.749316 -76.463957 
L 185.854279 -75.038994 
L 184.959241 -73.527605 
L 184.064203 -72.016208 
L 183.169166 -70.513253 
L 182.274128 -69.024269 
L 181.379091 -67.554429 
L 180.484053 -66.108526 
L 179.589016 -64.743536 
L 178.693978 -64.040475 
L 177.79894 -63.555856 
L 176.903903 -62.864517 
L 176.008865 -61.723386 
L 175.113828 -60.599422 
L 174.21879 -59.505407 
L 173.323752 -58.44329 
L 172.428715 -57.41473 
L 171.533677 -56.421111 
L 170.63864 -55.463543 
L 169.743602 -54.542878 
L 168.848564 -53.659717 
L 167.953527 -52.781045 
L 167.058489 -51.913089 
L 166.163452 -51.292884 
L 165.268414 -50.695006 
L 164.373376 -50.11962 
L 163.478339 -49.566791 
L 162.583301 -49.036486 
L 161.688264 -48.528582 
L 160.793226 -48.042876 
L 159.898188 -47.579087 
L 159.003151 -47.136869 
L 158.108113 -46.704194 
L 157.213076 -46.174419 
L 156.318038 -45.680645 
L 155.423 -45.221411 
L 154.527963 -44.7952 
L 153.632925 -44.400457 
L 152.737888 -44.0356 
L 151.84285 -43.699038 
L 150.947812 -43.389184 
L 150.052775 -43.104465 
L 149.157737 -42.84333 
L 148.2627 -42.604264 
L 147.367662 -42.385794 
L 146.472625 -42.186491 
L 145.577587 -42.004982 
L 144.682549 -41.839949 
L 143.787512 -41.690137 
L 142.892474 -41.554349 
L 141.997437 -41.431456 
L 141.102399 -41.320392 
L 140.207361 -41.220156 
L 139.312324 -41.129809 
L 138.417286 -41.048478 
L 137.522249 -40.975348 
L 136.627211 -40.909666 
L 135.732173 -40.850734 
L 134.837136 -40.79791 
L 133.942098 -40.750603 
L 133.047061 -40.708272 
L 132.152023 -40.670421 
L 131.256985 -40.636599 
L 130.361948 -40.606395 
L 129.46691 -40.579436 
L 128.571873 -40.555384 
L 127.676835 -40.533934 
L 126.781797 -40.514809 
L 125.88676 -40.49781 
L 124.991722 -40.48388 
L 124.096685 -40.471266 
L 123.201647 -40.459851 
L 122.306609 -40.449527 
L 121.411572 -40.440198 
L 120.516534 -40.43095 
L 119.621497 -40.421562 
L 118.726459 -40.413287 
L 117.831422 -40.406005 
L 116.936384 -40.399607 
L 116.041346 -40.393997 
L 115.146309 -40.389085 
L 114.251271 -40.384792 
L 113.356234 -40.381046 
L 112.461196 -40.377783 
L 111.566158 -40.374946 
L 110.671121 -40.372482 
L 109.776083 -40.370348 
L 108.881046 -40.368501 
L 107.986008 -40.366905 
L 107.09097 -40.36553 
L 106.195933 -40.364346 
L 105.300895 -40.363329 
L 104.405858 -40.362456 
L 103.51082 -40.361708 
L 102.615782 -40.361069 
L 101.720745 -40.360524 
L 100.825707 -40.360059 
L 99.93067 -40.359664 
L 99.035632 -40.359328 
L 98.140594 -40.359043 
L 97.245557 -40.358803 
L 96.350519 -40.358599 
L 95.455482 -40.358427 
L 94.560444 -40.358283 
L 93.665406 -40.358161 
L 92.770369 -40.358059 
L 91.875331 -40.357974 
L 90.980294 -40.357902 
L 90.085256 -40.357843 
L 89.190219 -40.357793 
L 88.295181 -40.357751 
L 87.400143 -40.357717 
L 86.505106 -40.357689 
L 85.610068 -40.357665 
L 84.715031 -40.357645 
L 83.819993 -40.357629 
L 82.924955 -40.357616 
L 82.029918 -40.357605 
L 81.13488 -40.357596 
L 80.239843 -40.357589 
L 79.344805 -40.357583 
L 78.449767 -40.357578 
L 77.55473 -40.357574 
L 76.659692 -40.357571 
L 75.764655 -40.357568 
L 74.869617 -40.357566 
L 73.974579 -40.357564 
L 73.079542 -40.357563 
L 72.184504 -40.357561 
L 71.289467 -40.35756 
L 70.394429 -40.35756 
L 69.499391 -40.357559 
L 68.604354 -40.357559 
L 67.709316 -40.357558 
L 66.814279 -40.357558 
L 65.919241 -40.357558 
L 65.024203 -40.357558 
L 64.129166 -40.357557 
L 63.234128 -40.357557 
L 62.339091 -40.357557 
L 61.444053 -40.357557 
L 60.549016 -40.357557 
L 59.653978 -40.357557 
L 58.75894 -40.357557 
L 57.863903 -40.357557 
L 56.968865 -40.357557 
L 56.073828 -40.357557 
L 55.17879 -40.357557 
L 54.283752 -40.357557 
L 53.388715 -40.357557 
L 52.493677 -40.357557 
L 51.59864 -40.357557 
L 50.703602 -40.357557 
L 49.808564 -40.357557 
L 48.913527 -40.357557 
L 48.018489 -40.357557 
L 47.123452 -40.357557 
L 46.228414 -40.357557 
L 45.333376 -40.357557 
L 44.438339 -40.357557 
L 43.543301 -40.357557 
L 42.648264 -40.357557 
L 41.753226 -40.357557 
L 40.858188 -40.357557 
L 39.963151 -40.357557 
L 39.068113 -40.357557 
L 38.173076 -40.357557 
L 37.278038 -40.357557 
L 36.383 -40.357557 
L 35.487963 -40.357557 
L 34.592925 -40.357557 
L 33.697888 -40.357557 
L 32.80285 -40.357557 
L 31.907813 -40.357557 
z
" style="stroke: #000000; stroke-opacity: 0.1"/>
    </defs>
    <g clip-path="url(#p61dd05a8de)">
     <use xlink:href="#m077624ffef" x="0" y="309.921375" style="fill-opacity: 0.1; stroke: #000000; stroke-opacity: 0.1"/>
    </g>
   </g>
   <g id="matplotlib.axis_3">
    <g id="xtick_10">
     <g id="line2d_32">
      <g>
       <use xlink:href="#m6a7ce6b3a0" x="31.907813" y="275.062" style="stroke: #000000; stroke-width: 0.8"/>
      </g>
     </g>
     <g id="line2d_33">
      <g>
       <use xlink:href="#m6a7ce6b3a0" x="31.907813" y="154.102" style="stroke: #000000; stroke-width: 0.8"/>
      </g>
     </g>
     <g id="text_15">
      <!-- −100 -->
      <g transform="translate(20.56875 287.452625) scale(0.1 -0.1)">
       <use xlink:href="#HelveticaNeue-Medium-2212"/>
       <use xlink:href="#HelveticaNeue-Medium-31" transform="translate(59.999985 0)"/>
       <use xlink:href="#HelveticaNeue-Medium-30" transform="translate(115.599976 0)"/>
       <use xlink:href="#HelveticaNeue-Medium-30" transform="translate(171.199966 0)"/>
      </g>
     </g>
    </g>
    <g id="xtick_11">
     <g id="line2d_34">
      <g>
       <use xlink:href="#m6a7ce6b3a0" x="76.547813" y="275.062" style="stroke: #000000; stroke-width: 0.8"/>
      </g>
     </g>
     <g id="line2d_35">
      <g>
       <use xlink:href="#m6a7ce6b3a0" x="76.547813" y="154.102" style="stroke: #000000; stroke-width: 0.8"/>
      </g>
     </g>
     <g id="text_16">
      <!-- −75 -->
      <g transform="translate(67.988438 287.452625) scale(0.1 -0.1)">
       <use xlink:href="#HelveticaNeue-Medium-2212"/>
       <use xlink:href="#HelveticaNeue-Medium-37" transform="translate(59.999985 0)"/>
       <use xlink:href="#HelveticaNeue-Medium-35" transform="translate(115.599976 0)"/>
      </g>
     </g>
    </g>
    <g id="xtick_12">
     <g id="line2d_36">
      <g>
       <use xlink:href="#m6a7ce6b3a0" x="121.187813" y="275.062" style="stroke: #000000; stroke-width: 0.8"/>
      </g>
     </g>
     <g id="line2d_37">
      <g>
       <use xlink:href="#m6a7ce6b3a0" x="121.187813" y="154.102" style="stroke: #000000; stroke-width: 0.8"/>
      </g>
     </g>
     <g id="text_17">
      <!-- −50 -->
      <g transform="translate(112.628438 287.452625) scale(0.1 -0.1)">
       <use xlink:href="#HelveticaNeue-Medium-2212"/>
       <use xlink:href="#HelveticaNeue-Medium-35" transform="translate(59.999985 0)"/>
       <use xlink:href="#HelveticaNeue-Medium-30" transform="translate(115.599976 0)"/>
      </g>
     </g>
    </g>
    <g id="xtick_13">
     <g id="line2d_38">
      <g>
       <use xlink:href="#m6a7ce6b3a0" x="165.827813" y="275.062" style="stroke: #000000; stroke-width: 0.8"/>
      </g>
     </g>
     <g id="line2d_39">
      <g>
       <use xlink:href="#m6a7ce6b3a0" x="165.827813" y="154.102" style="stroke: #000000; stroke-width: 0.8"/>
      </g>
     </g>
     <g id="text_18">
      <!-- −25 -->
      <g transform="translate(157.268438 287.452625) scale(0.1 -0.1)">
       <use xlink:href="#HelveticaNeue-Medium-2212"/>
       <use xlink:href="#HelveticaNeue-Medium-32" transform="translate(59.999985 0)"/>
       <use xlink:href="#HelveticaNeue-Medium-35" transform="translate(115.599976 0)"/>
      </g>
     </g>
    </g>
    <g id="xtick_14">
     <g id="line2d_40">
      <g>
       <use xlink:href="#m6a7ce6b3a0" x="210.467813" y="275.062" style="stroke: #000000; stroke-width: 0.8"/>
      </g>
     </g>
     <g id="line2d_41">
      <g>
       <use xlink:href="#m6a7ce6b3a0" x="210.467813" y="154.102" style="stroke: #000000; stroke-width: 0.8"/>
      </g>
     </g>
     <g id="text_19">
      <!-- 0 -->
      <g transform="translate(207.688125 287.452625) scale(0.1 -0.1)">
       <use xlink:href="#HelveticaNeue-Medium-30"/>
      </g>
     </g>
    </g>
    <g id="xtick_15">
     <g id="line2d_42">
      <g>
       <use xlink:href="#m6a7ce6b3a0" x="255.107813" y="275.062" style="stroke: #000000; stroke-width: 0.8"/>
      </g>
     </g>
     <g id="line2d_43">
      <g>
       <use xlink:href="#m6a7ce6b3a0" x="255.107813" y="154.102" style="stroke: #000000; stroke-width: 0.8"/>
      </g>
     </g>
     <g id="text_20">
      <!-- 25 -->
      <g transform="translate(249.548438 287.452625) scale(0.1 -0.1)">
       <use xlink:href="#HelveticaNeue-Medium-32"/>
       <use xlink:href="#HelveticaNeue-Medium-35" transform="translate(55.599991 0)"/>
      </g>
     </g>
    </g>
    <g id="xtick_16">
     <g id="line2d_44">
      <g>
       <use xlink:href="#m6a7ce6b3a0" x="299.747813" y="275.062" style="stroke: #000000; stroke-width: 0.8"/>
      </g>
     </g>
     <g id="line2d_45">
      <g>
       <use xlink:href="#m6a7ce6b3a0" x="299.747813" y="154.102" style="stroke: #000000; stroke-width: 0.8"/>
      </g>
     </g>
     <g id="text_21">
      <!-- 50 -->
      <g transform="translate(294.188438 287.452625) scale(0.1 -0.1)">
       <use xlink:href="#HelveticaNeue-Medium-35"/>
       <use xlink:href="#HelveticaNeue-Medium-30" transform="translate(55.599991 0)"/>
      </g>
     </g>
    </g>
    <g id="xtick_17">
     <g id="line2d_46">
      <g>
       <use xlink:href="#m6a7ce6b3a0" x="344.387813" y="275.062" style="stroke: #000000; stroke-width: 0.8"/>
      </g>
     </g>
     <g id="line2d_47">
      <g>
       <use xlink:href="#m6a7ce6b3a0" x="344.387813" y="154.102" style="stroke: #000000; stroke-width: 0.8"/>
      </g>
     </g>
     <g id="text_22">
      <!-- 75 -->
      <g transform="translate(338.828438 287.452625) scale(0.1 -0.1)">
       <use xlink:href="#HelveticaNeue-Medium-37"/>
       <use xlink:href="#HelveticaNeue-Medium-35" transform="translate(55.599991 0)"/>
      </g>
     </g>
    </g>
    <g id="xtick_18">
     <g id="line2d_48">
      <g>
       <use xlink:href="#m6a7ce6b3a0" x="389.027813" y="275.062" style="stroke: #000000; stroke-width: 0.8"/>
      </g>
     </g>
     <g id="line2d_49">
      <g>
       <use xlink:href="#m6a7ce6b3a0" x="389.027813" y="154.102" style="stroke: #000000; stroke-width: 0.8"/>
      </g>
     </g>
     <g id="text_23">
      <!-- 100 -->
      <g transform="translate(380.68875 287.452625) scale(0.1 -0.1)">
       <use xlink:href="#HelveticaNeue-Medium-31"/>
       <use xlink:href="#HelveticaNeue-Medium-30" transform="translate(55.599991 0)"/>
       <use xlink:href="#HelveticaNeue-Medium-30" transform="translate(111.199982 0)"/>
      </g>
     </g>
    </g>
    <g id="text_24">
     <!-- Velocity [km/s] -->
     <g transform="translate(176.754531 300.671375) scale(0.1 -0.1)">
      <defs>
       <path id="HelveticaNeue-Medium-56" d="M -32 4570 
L 800 4570 
L 1946 954 
L 1958 954 
L 3130 4570 
L 3942 4570 
L 2381 0 
L 1491 0 
L -32 4570 
z
" transform="scale(0.015625)"/>
       <path id="HelveticaNeue-Medium-65" d="M 2656 1946 
Q 2643 2118 2582 2278 
Q 2522 2438 2416 2556 
Q 2310 2675 2160 2748 
Q 2010 2822 1824 2822 
Q 1632 2822 1475 2755 
Q 1318 2688 1206 2569 
Q 1094 2451 1027 2291 
Q 960 2131 954 1946 
L 2656 1946 
z
M 954 1466 
Q 954 1274 1008 1094 
Q 1062 915 1171 780 
Q 1280 646 1446 566 
Q 1613 486 1843 486 
Q 2163 486 2358 624 
Q 2554 762 2650 1037 
L 3341 1037 
Q 3283 768 3142 557 
Q 3002 346 2803 202 
Q 2605 58 2358 -16 
Q 2112 -90 1843 -90 
Q 1453 -90 1152 38 
Q 851 166 643 396 
Q 435 627 329 947 
Q 224 1267 224 1651 
Q 224 2003 336 2320 
Q 448 2637 656 2877 
Q 864 3117 1158 3257 
Q 1453 3398 1824 3398 
Q 2214 3398 2524 3235 
Q 2835 3072 3040 2803 
Q 3245 2534 3337 2185 
Q 3430 1837 3386 1466 
L 954 1466 
z
" transform="scale(0.015625)"/>
       <path id="HelveticaNeue-Medium-6c" d="M 403 4570 
L 1133 4570 
L 1133 0 
L 403 0 
L 403 4570 
z
" transform="scale(0.015625)"/>
       <path id="HelveticaNeue-Medium-6f" d="M 1901 -90 
Q 1504 -90 1193 41 
Q 883 173 668 403 
Q 454 634 342 954 
Q 230 1274 230 1658 
Q 230 2035 342 2355 
Q 454 2675 668 2905 
Q 883 3136 1193 3267 
Q 1504 3398 1901 3398 
Q 2298 3398 2608 3267 
Q 2918 3136 3132 2905 
Q 3347 2675 3459 2355 
Q 3571 2035 3571 1658 
Q 3571 1274 3459 954 
Q 3347 634 3132 403 
Q 2918 173 2608 41 
Q 2298 -90 1901 -90 
z
M 1901 486 
Q 2144 486 2323 588 
Q 2502 691 2617 857 
Q 2733 1024 2787 1232 
Q 2842 1440 2842 1658 
Q 2842 1869 2787 2080 
Q 2733 2291 2617 2454 
Q 2502 2618 2323 2720 
Q 2144 2822 1901 2822 
Q 1658 2822 1478 2720 
Q 1299 2618 1184 2454 
Q 1069 2291 1014 2080 
Q 960 1869 960 1658 
Q 960 1440 1014 1232 
Q 1069 1024 1184 857 
Q 1299 691 1478 588 
Q 1658 486 1901 486 
z
" transform="scale(0.015625)"/>
       <path id="HelveticaNeue-Medium-63" d="M 2618 2202 
Q 2573 2509 2371 2665 
Q 2170 2822 1862 2822 
Q 1722 2822 1562 2774 
Q 1402 2726 1267 2595 
Q 1133 2464 1043 2230 
Q 954 1997 954 1619 
Q 954 1414 1002 1209 
Q 1050 1005 1155 845 
Q 1261 685 1427 585 
Q 1594 486 1830 486 
Q 2150 486 2358 684 
Q 2566 883 2618 1242 
L 3347 1242 
Q 3245 595 2857 252 
Q 2470 -90 1830 -90 
Q 1440 -90 1142 41 
Q 845 173 640 400 
Q 435 627 329 940 
Q 224 1254 224 1619 
Q 224 1990 326 2316 
Q 429 2643 633 2883 
Q 838 3123 1142 3260 
Q 1446 3398 1856 3398 
Q 2144 3398 2403 3324 
Q 2662 3251 2864 3104 
Q 3066 2957 3194 2733 
Q 3322 2509 3347 2202 
L 2618 2202 
z
" transform="scale(0.015625)"/>
       <path id="HelveticaNeue-Medium-69" d="M 403 4570 
L 1133 4570 
L 1133 3878 
L 403 3878 
L 403 4570 
z
M 403 3309 
L 1133 3309 
L 1133 0 
L 403 0 
L 403 3309 
z
" transform="scale(0.015625)"/>
       <path id="HelveticaNeue-Medium-74" d="M 51 3309 
L 602 3309 
L 602 4301 
L 1331 4301 
L 1331 3309 
L 1990 3309 
L 1990 2765 
L 1331 2765 
L 1331 998 
Q 1331 883 1340 800 
Q 1350 717 1385 659 
Q 1421 602 1491 573 
Q 1562 544 1683 544 
Q 1760 544 1837 547 
Q 1914 550 1990 570 
L 1990 6 
Q 1869 -6 1753 -19 
Q 1638 -32 1517 -32 
Q 1229 -32 1053 22 
Q 877 77 777 182 
Q 678 288 643 448 
Q 608 608 602 813 
L 602 2765 
L 51 2765 
L 51 3309 
z
" transform="scale(0.015625)"/>
       <path id="HelveticaNeue-Medium-79" d="M 19 3309 
L 819 3309 
L 1683 838 
L 1696 838 
L 2534 3309 
L 3296 3309 
L 2010 -179 
Q 1920 -403 1833 -608 
Q 1747 -813 1622 -969 
Q 1498 -1126 1312 -1219 
Q 1126 -1312 838 -1312 
Q 582 -1312 333 -1274 
L 333 -659 
Q 422 -672 505 -688 
Q 589 -704 678 -704 
Q 806 -704 889 -672 
Q 973 -640 1027 -579 
Q 1082 -518 1120 -435 
Q 1158 -352 1190 -243 
L 1274 13 
L 19 3309 
z
" transform="scale(0.015625)"/>
       <path id="HelveticaNeue-Medium-20" transform="scale(0.015625)"/>
       <path id="HelveticaNeue-Medium-5b" d="M 461 4678 
L 1888 4678 
L 1888 4102 
L 1152 4102 
L 1152 -646 
L 1888 -646 
L 1888 -1222 
L 461 -1222 
L 461 4678 
z
" transform="scale(0.015625)"/>
       <path id="HelveticaNeue-Medium-6b" d="M 403 4570 
L 1133 4570 
L 1133 1971 
L 2451 3309 
L 3347 3309 
L 2080 2093 
L 3469 0 
L 2579 0 
L 1568 1606 
L 1133 1184 
L 1133 0 
L 403 0 
L 403 4570 
z
" transform="scale(0.015625)"/>
       <path id="HelveticaNeue-Medium-6d" d="M 384 3309 
L 1075 3309 
L 1075 2848 
L 1094 2848 
Q 1178 2970 1274 3072 
Q 1370 3174 1488 3244 
Q 1606 3315 1760 3356 
Q 1914 3398 2112 3398 
Q 2413 3398 2672 3264 
Q 2931 3130 3040 2848 
Q 3226 3104 3469 3251 
Q 3712 3398 4077 3398 
Q 4602 3398 4893 3142 
Q 5184 2886 5184 2285 
L 5184 0 
L 4454 0 
L 4454 1933 
Q 4454 2131 4441 2294 
Q 4429 2458 4368 2576 
Q 4307 2694 4185 2758 
Q 4064 2822 3853 2822 
Q 3482 2822 3315 2592 
Q 3149 2362 3149 1939 
L 3149 0 
L 2419 0 
L 2419 2125 
Q 2419 2470 2294 2646 
Q 2170 2822 1837 2822 
Q 1696 2822 1565 2764 
Q 1434 2707 1334 2598 
Q 1235 2490 1174 2330 
Q 1114 2170 1114 1965 
L 1114 0 
L 384 0 
L 384 3309 
z
" transform="scale(0.015625)"/>
       <path id="HelveticaNeue-Medium-2f" d="M 1696 4678 
L 2394 4678 
L 557 -109 
L -141 -109 
L 1696 4678 
z
" transform="scale(0.015625)"/>
       <path id="HelveticaNeue-Medium-73" d="M 934 1062 
Q 966 742 1177 614 
Q 1389 486 1683 486 
Q 1786 486 1917 502 
Q 2048 518 2163 563 
Q 2278 608 2352 694 
Q 2426 781 2419 921 
Q 2413 1062 2317 1152 
Q 2221 1242 2070 1296 
Q 1920 1350 1728 1388 
Q 1536 1427 1338 1472 
Q 1133 1517 944 1581 
Q 755 1645 604 1753 
Q 454 1862 364 2032 
Q 275 2202 275 2451 
Q 275 2720 406 2902 
Q 538 3085 739 3197 
Q 941 3309 1187 3353 
Q 1434 3398 1658 3398 
Q 1914 3398 2147 3344 
Q 2381 3290 2569 3168 
Q 2758 3046 2883 2851 
Q 3008 2656 3040 2381 
L 2278 2381 
Q 2227 2643 2038 2732 
Q 1850 2822 1606 2822 
Q 1530 2822 1424 2809 
Q 1318 2797 1225 2761 
Q 1133 2726 1069 2659 
Q 1005 2592 1005 2483 
Q 1005 2349 1097 2265 
Q 1190 2182 1340 2128 
Q 1491 2074 1683 2035 
Q 1875 1997 2080 1952 
Q 2278 1907 2470 1843 
Q 2662 1779 2812 1670 
Q 2963 1562 3056 1395 
Q 3149 1229 3149 986 
Q 3149 691 3014 486 
Q 2880 282 2665 154 
Q 2451 26 2188 -32 
Q 1926 -90 1670 -90 
Q 1357 -90 1091 -19 
Q 826 51 630 195 
Q 435 339 323 553 
Q 211 768 205 1062 
L 934 1062 
z
" transform="scale(0.015625)"/>
       <path id="HelveticaNeue-Medium-5d" d="M 1434 -1222 
L 6 -1222 
L 6 -646 
L 742 -646 
L 742 4102 
L 6 4102 
L 6 4678 
L 1434 4678 
L 1434 -1222 
z
" transform="scale(0.015625)"/>
      </defs>
      <use xlink:href="#HelveticaNeue-Medium-56"/>
      <use xlink:href="#HelveticaNeue-Medium-65" transform="translate(55.599991 0)"/>
      <use xlink:href="#HelveticaNeue-Medium-6c" transform="translate(111.199982 0)"/>
      <use xlink:href="#HelveticaNeue-Medium-6f" transform="translate(135.299973 0)"/>
      <use xlink:href="#HelveticaNeue-Medium-63" transform="translate(194.59996 0)"/>
      <use xlink:href="#HelveticaNeue-Medium-69" transform="translate(250.199951 0)"/>
      <use xlink:href="#HelveticaNeue-Medium-74" transform="translate(274.299942 0)"/>
      <use xlink:href="#HelveticaNeue-Medium-79" transform="translate(307.59993 0)"/>
      <use xlink:href="#HelveticaNeue-Medium-20" transform="translate(359.499924 0)"/>
      <use xlink:href="#HelveticaNeue-Medium-5b" transform="translate(387.299911 0)"/>
      <use xlink:href="#HelveticaNeue-Medium-6b" transform="translate(416.899902 0)"/>
      <use xlink:href="#HelveticaNeue-Medium-6d" transform="translate(470.599899 0)"/>
      <use xlink:href="#HelveticaNeue-Medium-2f" transform="translate(557.599884 0)"/>
      <use xlink:href="#HelveticaNeue-Medium-73" transform="translate(592.799881 0)"/>
      <use xlink:href="#HelveticaNeue-Medium-5d" transform="translate(644.699875 0)"/>
     </g>
    </g>
   </g>
   <g id="matplotlib.axis_4">
    <g id="ytick_6">
     <g id="line2d_50">
      <g>
       <use xlink:href="#m0fb050f933" x="31.907813" y="269.563818" style="stroke: #000000; stroke-width: 0.8"/>
      </g>
     </g>
     <g id="line2d_51">
      <g>
       <use xlink:href="#m0fb050f933" x="389.027813" y="269.563818" style="stroke: #000000; stroke-width: 0.8"/>
      </g>
     </g>
     <g id="text_25">
      <!-- 0.00 -->
      <g transform="translate(7.2 273.134131) scale(0.1 -0.1)">
       <defs>
        <path id="HelveticaNeue-Medium-2e" d="M 442 864 
L 1331 864 
L 1331 0 
L 442 0 
L 442 864 
z
" transform="scale(0.015625)"/>
       </defs>
       <use xlink:href="#HelveticaNeue-Medium-30"/>
       <use xlink:href="#HelveticaNeue-Medium-2e" transform="translate(55.599991 0)"/>
       <use xlink:href="#HelveticaNeue-Medium-30" transform="translate(83.399979 0)"/>
       <use xlink:href="#HelveticaNeue-Medium-30" transform="translate(138.999969 0)"/>
      </g>
     </g>
    </g>
    <g id="ytick_7">
     <g id="line2d_52">
      <g>
       <use xlink:href="#m0fb050f933" x="31.907813" y="238.343869" style="stroke: #000000; stroke-width: 0.8"/>
      </g>
     </g>
     <g id="line2d_53">
      <g>
       <use xlink:href="#m0fb050f933" x="389.027813" y="238.343869" style="stroke: #000000; stroke-width: 0.8"/>
      </g>
     </g>
     <g id="text_26">
      <!-- 0.02 -->
      <g transform="translate(7.2 241.914181) scale(0.1 -0.1)">
       <use xlink:href="#HelveticaNeue-Medium-30"/>
       <use xlink:href="#HelveticaNeue-Medium-2e" transform="translate(55.599991 0)"/>
       <use xlink:href="#HelveticaNeue-Medium-30" transform="translate(83.399979 0)"/>
       <use xlink:href="#HelveticaNeue-Medium-32" transform="translate(138.999969 0)"/>
      </g>
     </g>
    </g>
    <g id="ytick_8">
     <g id="line2d_54">
      <g>
       <use xlink:href="#m0fb050f933" x="31.907813" y="207.123919" style="stroke: #000000; stroke-width: 0.8"/>
      </g>
     </g>
     <g id="line2d_55">
      <g>
       <use xlink:href="#m0fb050f933" x="389.027813" y="207.123919" style="stroke: #000000; stroke-width: 0.8"/>
      </g>
     </g>
     <g id="text_27">
      <!-- 0.04 -->
      <g transform="translate(7.2 210.694232) scale(0.1 -0.1)">
       <use xlink:href="#HelveticaNeue-Medium-30"/>
       <use xlink:href="#HelveticaNeue-Medium-2e" transform="translate(55.599991 0)"/>
       <use xlink:href="#HelveticaNeue-Medium-30" transform="translate(83.399979 0)"/>
       <use xlink:href="#HelveticaNeue-Medium-34" transform="translate(138.999969 0)"/>
      </g>
     </g>
    </g>
    <g id="ytick_9">
     <g id="line2d_56">
      <g>
       <use xlink:href="#m0fb050f933" x="31.907813" y="175.90397" style="stroke: #000000; stroke-width: 0.8"/>
      </g>
     </g>
     <g id="line2d_57">
      <g>
       <use xlink:href="#m0fb050f933" x="389.027813" y="175.90397" style="stroke: #000000; stroke-width: 0.8"/>
      </g>
     </g>
     <g id="text_28">
      <!-- 0.06 -->
      <g transform="translate(7.2 179.474282) scale(0.1 -0.1)">
       <use xlink:href="#HelveticaNeue-Medium-30"/>
       <use xlink:href="#HelveticaNeue-Medium-2e" transform="translate(55.599991 0)"/>
       <use xlink:href="#HelveticaNeue-Medium-30" transform="translate(83.399979 0)"/>
       <use xlink:href="#HelveticaNeue-Medium-36" transform="translate(138.999969 0)"/>
      </g>
     </g>
    </g>
   </g>
   <g id="line2d_58">
    <path d="M 31.907813 269.563818 
L 149.157737 269.453142 
L 155.423 269.19555 
L 160.793226 268.740926 
L 164.373376 268.225344 
L 166.163452 267.833298 
L 167.953527 267.216201 
L 169.743602 266.415365 
L 171.533677 265.391376 
L 175.113828 262.866573 
L 176.903903 261.36005 
L 178.693978 259.634919 
L 179.589016 258.640147 
L 181.379091 256.126665 
L 183.169166 253.178941 
L 185.854279 248.161608 
L 187.644354 245.767115 
L 188.539391 244.763583 
L 190.329467 241.97638 
L 193.014579 237.385249 
L 194.804655 235.866243 
L 195.699692 233.782422 
L 196.59473 229.356949 
L 197.489767 227.391826 
L 198.384805 226.499658 
L 199.279843 225.360129 
L 200.17488 223.394654 
L 201.069918 222.853657 
L 201.964955 220.862101 
L 202.859993 219.736092 
L 203.755031 215.824903 
L 204.650068 215.473049 
L 205.545106 214.780756 
L 206.440143 213.712192 
L 207.335181 210.212306 
L 208.230219 209.144108 
L 209.125256 208.336733 
L 210.020294 207.797094 
L 210.915331 206.385223 
L 211.810369 206.041332 
L 212.705406 206.541437 
L 213.600444 207.203581 
L 214.495482 208.089549 
L 216.285557 209.524887 
L 218.075632 211.658513 
L 218.97067 213.271258 
L 220.760745 217.339866 
L 221.655782 218.564517 
L 222.55082 221.085823 
L 223.445858 222.842796 
L 224.340895 225.880156 
L 225.235933 227.114614 
L 226.13097 228.968213 
L 227.026008 231.487875 
L 227.921046 233.505101 
L 231.501196 239.854515 
L 232.396234 242.516896 
L 234.186309 246.078182 
L 236.871422 250.922649 
L 238.661497 253.794289 
L 239.556534 255.594643 
L 241.346609 258.107947 
L 242.241647 259.222195 
L 244.031722 260.995209 
L 246.716835 263.422763 
L 248.50691 264.623784 
L 250.296985 265.736623 
L 252.087061 266.633012 
L 253.877136 267.345249 
L 256.562249 268.009781 
L 261.037437 268.781387 
L 264.617587 269.19212 
L 269.092775 269.420056 
L 278.043151 269.540543 
L 306.684354 269.563804 
L 389.027813 269.563818 
L 389.027813 269.563818 
" clip-path="url(#p61dd05a8de)" style="fill: none; stroke: #000000; stroke-width: 1.5"/>
   </g>
   <g id="patch_8">
    <path d="M 31.907813 275.062 
L 31.907813 154.102 
" style="fill: none; stroke: #000000; stroke-width: 0.8; stroke-linejoin: miter; stroke-linecap: square"/>
   </g>
   <g id="patch_9">
    <path d="M 389.027813 275.062 
L 389.027813 154.102 
" style="fill: none; stroke: #000000; stroke-width: 0.8; stroke-linejoin: miter; stroke-linecap: square"/>
   </g>
   <g id="patch_10">
    <path d="M 31.907813 275.062 
L 389.027813 275.062 
" style="fill: none; stroke: #000000; stroke-width: 0.8; stroke-linejoin: miter; stroke-linecap: square"/>
   </g>
   <g id="patch_11">
    <path d="M 31.907813 154.102 
L 389.027813 154.102 
" style="fill: none; stroke: #000000; stroke-width: 0.8; stroke-linejoin: miter; stroke-linecap: square"/>
   </g>
  </g>
 </g>
 <defs>
  <clipPath id="pd36161e230">
   <rect x="31.907813" y="8.95" width="357.12" height="120.96"/>
  </clipPath>
  <clipPath id="p61dd05a8de">
   <rect x="31.907813" y="154.102" width="357.12" height="120.96"/>
  </clipPath>
 </defs>
</svg>
