<?xml version="1.0" encoding="utf-8" standalone="no"?>
<!DOCTYPE svg PUBLIC "-//W3C//DTD SVG 1.1//EN"
  "http://www.w3.org/Graphics/SVG/1.1/DTD/svg11.dtd">
<!-- Created with matplotlib (https://matplotlib.org/) -->
<svg height="310.890125pt" version="1.1" viewBox="0 0 426.798125 310.890125" width="426.798125pt" xmlns="http://www.w3.org/2000/svg" xmlns:xlink="http://www.w3.org/1999/xlink">
 <defs>
  <style type="text/css">
*{stroke-linecap:butt;stroke-linejoin:round;}
  </style>
 </defs>
 <g id="figure_1">
  <g id="patch_1">
   <path d="M 0 310.890125 
L 426.798125 310.890125 
L 426.798125 0 
L 0 0 
z
" style="fill:#ffffff;"/>
  </g>
  <g id="axes_1">
   <g id="patch_2">
    <path d="M 62.478125 273.312 
L 419.598125 273.312 
L 419.598125 7.2 
L 62.478125 7.2 
z
" style="fill:#ffffff;"/>
   </g>
   <g id="PolyCollection_1">
    <defs>
     <path d="M 83.283452 -101.128073 
L 83.283452 -70.008934 
L 84.085662 -70.539676 
L 84.887872 -71.070419 
L 85.690083 -71.601161 
L 86.492293 -72.131903 
L 87.294503 -72.662645 
L 88.096714 -73.193388 
L 88.898924 -73.72413 
L 89.701135 -74.254872 
L 90.503345 -74.785614 
L 91.305555 -75.316357 
L 92.107766 -75.838304 
L 92.909976 -76.358606 
L 93.712187 -76.878909 
L 94.514397 -77.399212 
L 95.316607 -77.919515 
L 96.118818 -78.439818 
L 96.921028 -78.960122 
L 97.723239 -79.480426 
L 98.525449 -80.00073 
L 99.327659 -80.521035 
L 100.12987 -81.04134 
L 100.93208 -81.561645 
L 101.734291 -82.081951 
L 102.536501 -82.602256 
L 103.338711 -83.122562 
L 104.140922 -83.642869 
L 104.943132 -84.163175 
L 105.745342 -84.683482 
L 106.547553 -85.203789 
L 107.349763 -85.724097 
L 108.151974 -86.244404 
L 108.954184 -86.764713 
L 109.756394 -87.285021 
L 110.558605 -87.805329 
L 111.360815 -88.325638 
L 112.163026 -88.845948 
L 112.965236 -89.366257 
L 113.767446 -89.886567 
L 114.569657 -90.406877 
L 115.371867 -90.927187 
L 116.174078 -91.447498 
L 116.976288 -91.967809 
L 117.778498 -92.48812 
L 118.580709 -93.008431 
L 119.382919 -93.528743 
L 120.18513 -94.049055 
L 120.98734 -94.569368 
L 121.78955 -95.08968 
L 122.591761 -95.609993 
L 123.393971 -96.130306 
L 124.196181 -96.65062 
L 124.998392 -97.170934 
L 125.800602 -97.691248 
L 126.602813 -98.211562 
L 127.405023 -98.731877 
L 128.207233 -99.223566 
L 129.009444 -99.713344 
L 129.811654 -100.203126 
L 130.613865 -100.692911 
L 131.416075 -101.182701 
L 132.218285 -101.672494 
L 133.020496 -102.16229 
L 133.822706 -102.652091 
L 134.624917 -103.141894 
L 135.427127 -103.631702 
L 136.229337 -104.121514 
L 137.031548 -104.611329 
L 137.833758 -105.101147 
L 138.635969 -105.59097 
L 139.438179 -106.080796 
L 140.240389 -106.570626 
L 141.0426 -107.060459 
L 141.84481 -107.550296 
L 142.64702 -108.040137 
L 143.449231 -108.529981 
L 144.251441 -109.01983 
L 145.053652 -109.509682 
L 145.855862 -109.999537 
L 146.658072 -110.489397 
L 147.460283 -110.97926 
L 148.262493 -111.469126 
L 149.064704 -111.958997 
L 149.866914 -112.448871 
L 150.669124 -112.938748 
L 151.471335 -113.42863 
L 152.273545 -113.918515 
L 153.075756 -114.408404 
L 153.877966 -114.898297 
L 154.680176 -115.388193 
L 155.482387 -115.878093 
L 156.284597 -116.397837 
L 157.086808 -116.918916 
L 157.889018 -117.439998 
L 158.691228 -117.961084 
L 159.493439 -118.482174 
L 160.295649 -119.003267 
L 161.097859 -119.524364 
L 161.90007 -120.045465 
L 162.70228 -120.566569 
L 163.504491 -121.087678 
L 164.306701 -121.60879 
L 165.108911 -122.129905 
L 165.911122 -122.651024 
L 166.713332 -123.172147 
L 167.515543 -123.693274 
L 168.317753 -124.180343 
L 169.119963 -124.652708 
L 169.922174 -125.125073 
L 170.724384 -125.597438 
L 171.526595 -126.069803 
L 172.328805 -126.542169 
L 173.131015 -127.014534 
L 173.933226 -127.4869 
L 174.735436 -127.959265 
L 175.537647 -128.431631 
L 176.339857 -128.903997 
L 177.142067 -129.376363 
L 177.944278 -129.853394 
L 178.746488 -130.335127 
L 179.548698 -130.816863 
L 180.350909 -131.298603 
L 181.153119 -131.780347 
L 181.95533 -132.262095 
L 182.75754 -132.743846 
L 183.55975 -133.225601 
L 184.361961 -133.70736 
L 185.164171 -134.189122 
L 185.966382 -134.670888 
L 186.768592 -135.154469 
L 187.570802 -135.639392 
L 188.373013 -136.14923 
L 189.175223 -136.685166 
L 189.977434 -137.221102 
L 190.779644 -137.757038 
L 191.581854 -138.292975 
L 192.384065 -138.828912 
L 193.186275 -139.36485 
L 193.988486 -139.900787 
L 194.790696 -140.436725 
L 195.592906 -140.972663 
L 196.395117 -141.508602 
L 197.197327 -142.044541 
L 197.999537 -142.58048 
L 198.801748 -143.11642 
L 199.603958 -143.652359 
L 200.406169 -144.188299 
L 201.208379 -144.72424 
L 202.010589 -145.26018 
L 202.8128 -145.803108 
L 203.61501 -146.346474 
L 204.417221 -146.88984 
L 205.219431 -147.433207 
L 206.021641 -147.976575 
L 206.823852 -148.519943 
L 207.626062 -149.014445 
L 208.428273 -149.48791 
L 209.230483 -150.015332 
L 210.032693 -150.546456 
L 210.834904 -151.098716 
L 211.637114 -151.650977 
L 212.439325 -152.203241 
L 213.241535 -152.755505 
L 214.043745 -153.299326 
L 214.845956 -153.835271 
L 215.648166 -154.371217 
L 216.450376 -154.907163 
L 217.252587 -155.443109 
L 218.054797 -155.979056 
L 218.857008 -156.515003 
L 219.659218 -157.05095 
L 220.461428 -157.586897 
L 221.263639 -158.122845 
L 222.065849 -158.658793 
L 222.86806 -159.194741 
L 223.67027 -159.73069 
L 224.47248 -160.266639 
L 225.274691 -160.802588 
L 226.076901 -161.338538 
L 226.879112 -161.874488 
L 227.681322 -162.410438 
L 228.483532 -162.946388 
L 229.285743 -163.482339 
L 230.087953 -164.01829 
L 230.890164 -164.554241 
L 231.692374 -165.090193 
L 232.494584 -165.626145 
L 233.296795 -166.162097 
L 234.099005 -166.652925 
L 234.901216 -167.12301 
L 235.703426 -167.593101 
L 236.505636 -168.063197 
L 237.307847 -168.5333 
L 238.110057 -169.003408 
L 238.912267 -169.473523 
L 239.714478 -169.943643 
L 240.516688 -170.41377 
L 241.318899 -170.883902 
L 242.121109 -171.354041 
L 242.923319 -171.824185 
L 243.72553 -172.294336 
L 244.52774 -172.787159 
L 245.329951 -173.296974 
L 246.132161 -173.806796 
L 246.934371 -174.316623 
L 247.736582 -174.826456 
L 248.538792 -175.336296 
L 249.341003 -175.846141 
L 250.143213 -176.299194 
L 250.945423 -176.718916 
L 251.747634 -177.13864 
L 252.549844 -177.558367 
L 253.352055 -177.978096 
L 254.154265 -178.397829 
L 254.956475 -178.817564 
L 255.758686 -179.237302 
L 256.560896 -179.657042 
L 257.363106 -180.076786 
L 258.165317 -180.505405 
L 258.967527 -180.951882 
L 259.769738 -181.398362 
L 260.571948 -181.844844 
L 261.374158 -182.291329 
L 262.176369 -182.737816 
L 262.978579 -183.184307 
L 263.78079 -183.6308 
L 264.583 -184.077296 
L 265.38521 -184.523794 
L 266.187421 -184.970295 
L 266.989631 -185.416799 
L 267.791842 -185.863306 
L 268.594052 -186.309816 
L 269.396262 -186.756328 
L 270.198473 -187.202843 
L 271.000683 -187.64936 
L 271.802894 -188.09588 
L 272.605104 -188.542403 
L 273.407314 -188.988929 
L 274.209525 -189.435457 
L 275.011735 -189.881989 
L 275.813945 -190.328522 
L 276.616156 -190.775059 
L 277.418366 -191.221598 
L 278.220577 -191.66814 
L 279.022787 -192.114685 
L 279.824997 -192.561232 
L 280.627208 -193.007782 
L 281.429418 -193.454335 
L 282.231629 -193.900891 
L 283.033839 -194.347449 
L 283.836049 -194.79401 
L 284.63826 -195.240574 
L 285.44047 -195.68714 
L 286.242681 -196.133709 
L 287.044891 -196.566324 
L 287.847101 -196.99543 
L 288.649312 -197.424536 
L 289.451522 -197.853644 
L 290.253733 -198.282752 
L 291.055943 -198.711861 
L 291.858153 -199.14097 
L 292.660364 -199.595707 
L 293.462574 -200.055907 
L 294.264784 -200.516129 
L 295.066995 -200.976371 
L 295.869205 -201.436634 
L 296.671416 -201.896918 
L 297.473626 -202.357222 
L 298.275836 -202.817548 
L 299.078047 -203.277894 
L 299.880257 -203.738262 
L 300.682468 -204.19865 
L 301.484678 -204.659059 
L 302.286888 -205.11949 
L 303.089099 -205.579941 
L 303.891309 -206.093279 
L 304.69352 -206.605767 
L 305.49573 -207.031176 
L 306.29794 -207.456585 
L 307.100151 -207.881995 
L 307.902361 -208.307404 
L 308.704572 -208.732814 
L 309.506782 -209.158224 
L 310.308992 -209.583634 
L 311.111203 -210.009045 
L 311.913413 -210.434455 
L 312.715623 -210.859866 
L 313.517834 -211.285276 
L 314.320044 -211.710687 
L 315.122255 -212.136098 
L 315.924465 -212.561509 
L 316.726675 -212.986921 
L 317.528886 -213.412332 
L 318.331096 -213.837744 
L 319.133307 -214.261531 
L 319.935517 -214.676842 
L 320.737727 -215.092155 
L 321.539938 -215.50747 
L 322.342148 -215.922787 
L 323.144359 -216.338106 
L 323.946569 -216.753426 
L 324.748779 -217.115795 
L 325.55099 -217.483603 
L 326.3532 -217.863256 
L 327.155411 -218.302344 
L 327.957621 -218.765639 
L 328.759831 -219.218408 
L 329.562042 -219.662267 
L 330.364252 -220.076057 
L 331.166462 -220.491394 
L 331.968673 -220.906733 
L 332.770883 -221.327524 
L 333.573094 -221.760536 
L 334.375304 -222.19355 
L 335.177514 -222.626568 
L 335.979725 -223.059589 
L 336.781935 -223.492612 
L 337.584146 -223.925639 
L 338.386356 -224.358668 
L 339.188566 -224.7917 
L 339.990777 -225.224735 
L 340.792987 -225.657774 
L 341.595198 -226.090815 
L 342.397408 -226.523859 
L 343.199618 -226.958093 
L 344.001829 -227.418886 
L 344.804039 -227.879682 
L 345.60625 -228.340481 
L 346.40846 -228.801282 
L 347.21067 -229.262087 
L 348.012881 -229.722894 
L 348.815091 -230.183705 
L 349.617301 -230.644518 
L 350.419512 -231.104858 
L 351.221722 -231.536613 
L 352.023933 -231.968368 
L 352.826143 -232.400124 
L 353.628353 -232.831879 
L 354.430564 -233.263635 
L 355.232774 -233.674985 
L 356.034985 -234.067107 
L 356.837195 -234.459231 
L 357.639405 -234.851357 
L 358.441616 -235.243485 
L 359.243826 -235.635615 
L 360.046037 -236.027747 
L 360.848247 -236.419881 
L 361.650457 -236.812017 
L 362.452668 -237.204155 
L 363.254878 -237.596295 
L 364.057089 -237.988437 
L 364.859299 -238.381302 
L 365.661509 -238.796301 
L 366.46372 -239.211302 
L 367.26593 -239.626305 
L 368.06814 -240.04131 
L 368.870351 -240.456317 
L 369.672561 -240.871326 
L 370.474772 -241.286338 
L 371.276982 -241.701351 
L 372.079192 -242.116366 
L 372.881403 -242.531383 
L 373.683613 -242.946402 
L 374.485824 -243.361423 
L 375.288034 -243.776446 
L 376.090244 -244.191471 
L 376.892455 -244.606498 
L 377.694665 -245.021527 
L 378.496876 -245.436558 
L 379.299086 -245.849625 
L 380.101296 -246.249735 
L 380.903507 -246.649844 
L 381.705717 -247.049955 
L 382.507928 -247.450066 
L 383.310138 -247.850177 
L 384.112348 -248.250289 
L 384.914559 -248.650402 
L 385.716769 -249.050515 
L 386.51898 -249.44829 
L 387.32119 -249.830853 
L 388.1234 -250.213415 
L 388.925611 -250.595977 
L 389.727821 -250.978539 
L 390.530031 -251.361102 
L 391.332242 -251.743664 
L 392.134452 -252.126226 
L 392.936663 -252.508789 
L 393.738873 -252.891351 
L 394.541083 -253.273913 
L 395.343294 -253.656475 
L 396.145504 -254.039038 
L 396.947715 -254.4216 
L 397.749925 -254.804162 
L 398.552135 -255.186725 
L 399.354346 -255.569287 
L 400.156556 -255.951849 
L 400.958767 -256.334412 
L 401.760977 -256.716974 
L 402.563187 -257.099536 
L 403.365398 -257.482099 
L 403.365398 -276.641246 
L 403.365398 -276.641246 
L 402.563187 -276.122171 
L 401.760977 -275.599619 
L 400.958767 -275.077067 
L 400.156556 -274.554515 
L 399.354346 -274.031963 
L 398.552135 -273.509412 
L 397.749925 -272.98686 
L 396.947715 -272.464308 
L 396.145504 -271.941757 
L 395.343294 -271.419205 
L 394.541083 -270.896654 
L 393.738873 -270.374102 
L 392.936663 -269.851551 
L 392.134452 -269.329 
L 391.332242 -268.806449 
L 390.530031 -268.283898 
L 389.727821 -267.761346 
L 388.925611 -267.238795 
L 388.1234 -266.716244 
L 387.32119 -266.193694 
L 386.51898 -265.671143 
L 385.716769 -265.148592 
L 384.914559 -264.626041 
L 384.112348 -264.10349 
L 383.310138 -263.58094 
L 382.507928 -263.058389 
L 381.705717 -262.535839 
L 380.903507 -262.04755 
L 380.101296 -261.565388 
L 379.299086 -261.083228 
L 378.496876 -260.601072 
L 377.694665 -260.118918 
L 376.892455 -259.636766 
L 376.090244 -259.154617 
L 375.288034 -258.672471 
L 374.485824 -258.190327 
L 373.683613 -257.708185 
L 372.881403 -257.226047 
L 372.079192 -256.74391 
L 371.276982 -256.261777 
L 370.474772 -255.779645 
L 369.672561 -255.297517 
L 368.870351 -254.809307 
L 368.06814 -254.301305 
L 367.26593 -253.793305 
L 366.46372 -253.285307 
L 365.661509 -252.777312 
L 364.859299 -252.26932 
L 364.057089 -251.76133 
L 363.254878 -251.253342 
L 362.452668 -250.745357 
L 361.650457 -250.237375 
L 360.848247 -249.729396 
L 360.046037 -249.221418 
L 359.243826 -248.713444 
L 358.441616 -248.205472 
L 357.639405 -247.697502 
L 356.837195 -247.189536 
L 356.034985 -246.681571 
L 355.232774 -246.223499 
L 354.430564 -245.775431 
L 353.628353 -245.327364 
L 352.826143 -244.879298 
L 352.023933 -244.431234 
L 351.221722 -243.983171 
L 350.419512 -243.535109 
L 349.617301 -243.087048 
L 348.815091 -242.638989 
L 348.012881 -242.190931 
L 347.21067 -241.742874 
L 346.40846 -241.294819 
L 345.60625 -240.846765 
L 344.804039 -240.398712 
L 344.001829 -239.95066 
L 343.199618 -239.50261 
L 342.397408 -239.054561 
L 341.595198 -238.606513 
L 340.792987 -238.158467 
L 339.990777 -237.710422 
L 339.188566 -237.262378 
L 338.386356 -236.814335 
L 337.584146 -236.366294 
L 336.781935 -235.90616 
L 335.979725 -235.439804 
L 335.177514 -234.968976 
L 334.375304 -234.49163 
L 333.573094 -234.012976 
L 332.770883 -233.500263 
L 331.968673 -232.975967 
L 331.166462 -232.451672 
L 330.364252 -231.92738 
L 329.562042 -231.403089 
L 328.759831 -230.8788 
L 327.957621 -230.354513 
L 327.155411 -229.830228 
L 326.3532 -229.305945 
L 325.55099 -228.781663 
L 324.748779 -228.257384 
L 323.946569 -227.733106 
L 323.144359 -227.20883 
L 322.342148 -226.684557 
L 321.539938 -226.160285 
L 320.737727 -225.636014 
L 319.935517 -225.111746 
L 319.133307 -224.58748 
L 318.331096 -224.063215 
L 317.528886 -223.538953 
L 316.726675 -223.014692 
L 315.924465 -222.490433 
L 315.122255 -221.966176 
L 314.320044 -221.441921 
L 313.517834 -220.917667 
L 312.715623 -220.393416 
L 311.913413 -219.933006 
L 311.111203 -219.502616 
L 310.308992 -219.072236 
L 309.506782 -218.641864 
L 308.704572 -218.2115 
L 307.902361 -217.781145 
L 307.100151 -217.350798 
L 306.29794 -216.92046 
L 305.49573 -216.490131 
L 304.69352 -216.059809 
L 303.891309 -215.629497 
L 303.089099 -215.199193 
L 302.286888 -214.756964 
L 301.484678 -214.279517 
L 300.682468 -213.784992 
L 299.880257 -213.277092 
L 299.078047 -212.75126 
L 298.275836 -212.205202 
L 297.473626 -211.659149 
L 296.671416 -211.113102 
L 295.869205 -210.56706 
L 295.066995 -210.021024 
L 294.264784 -209.474994 
L 293.462574 -208.928969 
L 292.660364 -208.38295 
L 291.858153 -207.836936 
L 291.055943 -207.290928 
L 290.253733 -206.744925 
L 289.451522 -206.19846 
L 288.649312 -205.692995 
L 287.847101 -205.252754 
L 287.044891 -204.81253 
L 286.242681 -204.372323 
L 285.44047 -203.932133 
L 284.63826 -203.491959 
L 283.836049 -203.051803 
L 283.033839 -202.602389 
L 282.231629 -202.095759 
L 281.429418 -201.589145 
L 280.627208 -201.082548 
L 279.824997 -200.568366 
L 279.022787 -200.075666 
L 278.220577 -199.66211 
L 277.418366 -199.248568 
L 276.616156 -198.83504 
L 275.813945 -198.421525 
L 275.011735 -197.963247 
L 274.209525 -197.490225 
L 273.407314 -197.017217 
L 272.605104 -196.544222 
L 271.802894 -196.071241 
L 271.000683 -195.598273 
L 270.198473 -195.125319 
L 269.396262 -194.652378 
L 268.594052 -194.179451 
L 267.791842 -193.706538 
L 266.989631 -193.233638 
L 266.187421 -192.760752 
L 265.38521 -192.287879 
L 264.583 -191.828754 
L 263.78079 -191.444449 
L 262.978579 -191.060144 
L 262.176369 -190.675839 
L 261.374158 -190.291535 
L 260.571948 -189.90563 
L 259.769738 -189.508902 
L 258.967527 -189.107685 
L 258.165317 -188.706479 
L 257.363106 -188.305284 
L 256.560896 -187.9041 
L 255.758686 -187.502926 
L 254.956475 -187.101763 
L 254.154265 -186.70061 
L 253.352055 -186.299469 
L 252.549844 -185.898338 
L 251.747634 -185.497217 
L 250.945423 -185.096108 
L 250.143213 -184.695009 
L 249.341003 -184.293921 
L 248.538792 -183.88605 
L 247.736582 -183.432049 
L 246.934371 -182.978058 
L 246.132161 -182.555155 
L 245.329951 -182.195593 
L 244.52774 -181.836033 
L 243.72553 -181.476473 
L 242.923319 -181.116914 
L 242.121109 -180.757356 
L 241.318899 -180.3978 
L 240.516688 -180.038244 
L 239.714478 -179.67869 
L 238.912267 -179.321802 
L 238.110057 -178.9682 
L 237.307847 -178.614599 
L 236.505636 -178.260997 
L 235.703426 -177.907396 
L 234.901216 -177.553794 
L 234.099005 -177.200193 
L 233.296795 -176.807933 
L 232.494584 -176.404609 
L 231.692374 -176.00129 
L 230.890164 -175.597976 
L 230.087953 -175.194668 
L 229.285743 -174.796903 
L 228.483532 -174.42068 
L 227.681322 -174.044458 
L 226.879112 -173.668237 
L 226.076901 -173.292017 
L 225.274691 -172.915798 
L 224.47248 -172.53958 
L 223.67027 -172.163363 
L 222.86806 -171.787147 
L 222.065849 -171.410933 
L 221.263639 -171.034719 
L 220.461428 -170.658506 
L 219.659218 -170.282295 
L 218.857008 -169.906084 
L 218.054797 -169.529875 
L 217.252587 -169.153666 
L 216.450376 -168.770686 
L 215.648166 -168.386389 
L 214.845956 -168.002092 
L 214.043745 -167.617795 
L 213.241535 -167.233498 
L 212.439325 -166.849201 
L 211.637114 -166.464905 
L 210.834904 -166.072977 
L 210.032693 -165.678388 
L 209.230483 -165.283805 
L 208.428273 -164.889225 
L 207.626062 -164.494651 
L 206.823852 -164.100081 
L 206.021641 -163.705516 
L 205.219431 -163.310955 
L 204.417221 -162.916398 
L 203.61501 -162.521847 
L 202.8128 -162.1273 
L 202.010589 -161.732757 
L 201.208379 -161.308164 
L 200.406169 -160.866659 
L 199.603958 -160.425153 
L 198.801748 -159.983648 
L 197.999537 -159.542143 
L 197.197327 -159.100637 
L 196.395117 -158.659132 
L 195.592906 -158.217626 
L 194.790696 -157.776121 
L 193.988486 -157.334616 
L 193.186275 -156.89311 
L 192.384065 -156.451605 
L 191.581854 -156.0101 
L 190.779644 -155.568594 
L 189.977434 -155.127089 
L 189.175223 -154.685584 
L 188.373013 -154.244078 
L 187.570802 -153.802573 
L 186.768592 -153.361068 
L 185.966382 -152.919562 
L 185.164171 -152.478057 
L 184.361961 -152.036552 
L 183.55975 -151.595688 
L 182.75754 -151.16616 
L 181.95533 -150.736635 
L 181.153119 -150.307115 
L 180.350909 -149.877599 
L 179.548698 -149.448088 
L 178.746488 -149.018581 
L 177.944278 -148.589078 
L 177.142067 -148.159579 
L 176.339857 -147.730085 
L 175.537647 -147.300595 
L 174.735436 -146.871109 
L 173.933226 -146.441628 
L 173.131015 -146.012151 
L 172.328805 -145.582678 
L 171.526595 -145.15321 
L 170.724384 -144.723746 
L 169.922174 -144.294286 
L 169.119963 -143.86483 
L 168.317753 -143.435379 
L 167.515543 -143.005932 
L 166.713332 -142.57649 
L 165.911122 -142.147051 
L 165.108911 -141.717618 
L 164.306701 -141.288188 
L 163.504491 -140.869019 
L 162.70228 -140.459422 
L 161.90007 -140.049826 
L 161.097859 -139.640232 
L 160.295649 -139.230639 
L 159.493439 -138.821048 
L 158.691228 -138.411458 
L 157.889018 -138.001869 
L 157.086808 -137.592282 
L 156.284597 -137.182696 
L 155.482387 -136.773112 
L 154.680176 -136.363529 
L 153.877966 -135.953947 
L 153.075756 -135.544367 
L 152.273545 -135.134788 
L 151.471335 -134.72521 
L 150.669124 -134.315634 
L 149.866914 -133.906059 
L 149.064704 -133.496486 
L 148.262493 -133.086913 
L 147.460283 -132.677343 
L 146.658072 -132.267773 
L 145.855862 -131.858205 
L 145.053652 -131.448639 
L 144.251441 -131.039074 
L 143.449231 -130.62951 
L 142.64702 -130.219947 
L 141.84481 -129.810386 
L 141.0426 -129.400827 
L 140.240389 -128.991268 
L 139.438179 -128.581711 
L 138.635969 -128.172156 
L 137.833758 -127.762602 
L 137.031548 -127.353049 
L 136.229337 -126.943497 
L 135.427127 -126.533947 
L 134.624917 -126.137862 
L 133.822706 -125.752688 
L 133.020496 -125.367514 
L 132.218285 -124.982339 
L 131.416075 -124.597165 
L 130.613865 -124.21199 
L 129.811654 -123.826816 
L 129.009444 -123.436799 
L 128.207233 -123.045389 
L 127.405023 -122.653981 
L 126.602813 -122.262573 
L 125.800602 -121.871166 
L 124.998392 -121.47976 
L 124.196181 -121.088355 
L 123.393971 -120.696952 
L 122.591761 -120.305549 
L 121.78955 -119.914147 
L 120.98734 -119.522747 
L 120.18513 -119.131347 
L 119.382919 -118.739949 
L 118.580709 -118.348551 
L 117.778498 -117.957155 
L 116.976288 -117.565759 
L 116.174078 -117.174365 
L 115.371867 -116.782971 
L 114.569657 -116.391579 
L 113.767446 -116.000187 
L 112.965236 -115.608797 
L 112.163026 -115.217408 
L 111.360815 -114.826019 
L 110.558605 -114.434632 
L 109.756394 -114.043246 
L 108.954184 -113.65186 
L 108.151974 -113.260476 
L 107.349763 -112.869093 
L 106.547553 -112.477711 
L 105.745342 -112.08633 
L 104.943132 -111.69495 
L 104.140922 -111.303571 
L 103.338711 -110.912192 
L 102.536501 -110.520815 
L 101.734291 -110.129439 
L 100.93208 -109.738064 
L 100.12987 -109.34669 
L 99.327659 -108.955318 
L 98.525449 -108.563946 
L 97.723239 -108.172575 
L 96.921028 -107.781205 
L 96.118818 -107.389836 
L 95.316607 -106.998468 
L 94.514397 -106.607101 
L 93.712187 -106.215736 
L 92.909976 -105.824371 
L 92.107766 -105.433007 
L 91.305555 -105.041644 
L 90.503345 -104.650283 
L 89.701135 -104.258922 
L 88.898924 -103.867562 
L 88.096714 -103.476204 
L 87.294503 -103.084846 
L 86.492293 -102.69349 
L 85.690083 -102.302134 
L 84.887872 -101.910779 
L 84.085662 -101.519426 
L 83.283452 -101.128073 
z
" id="me9da005478" style="stroke:#000000;stroke-opacity:0.1;"/>
    </defs>
    <g clip-path="url(#p6ca00b2add)">
     <use style="fill-opacity:0.1;stroke:#000000;stroke-opacity:0.1;" x="0" xlink:href="#me9da005478" y="310.890125"/>
    </g>
   </g>
   <g id="matplotlib.axis_1">
    <g id="xtick_1">
     <g id="line2d_1">
      <defs>
       <path d="M 0 0 
L 0 3.5 
" id="m2976f56976" style="stroke:#000000;stroke-width:0.8;"/>
      </defs>
      <g>
       <use style="stroke:#000000;stroke-width:0.8;" x="83.283452" xlink:href="#m2976f56976" y="273.312"/>
      </g>
     </g>
     <g id="text_1">
      <!-- 9.0 -->
      <defs>
       <path d="M 10.984375 1.515625 
L 10.984375 10.5 
Q 14.703125 8.734375 18.5 7.8125 
Q 22.3125 6.890625 25.984375 6.890625 
Q 35.75 6.890625 40.890625 13.453125 
Q 46.046875 20.015625 46.78125 33.40625 
Q 43.953125 29.203125 39.59375 26.953125 
Q 35.25 24.703125 29.984375 24.703125 
Q 19.046875 24.703125 12.671875 31.3125 
Q 6.296875 37.9375 6.296875 49.421875 
Q 6.296875 60.640625 12.9375 67.421875 
Q 19.578125 74.21875 30.609375 74.21875 
Q 43.265625 74.21875 49.921875 64.515625 
Q 56.59375 54.828125 56.59375 36.375 
Q 56.59375 19.140625 48.40625 8.859375 
Q 40.234375 -1.421875 26.421875 -1.421875 
Q 22.703125 -1.421875 18.890625 -0.6875 
Q 15.09375 0.046875 10.984375 1.515625 
z
M 30.609375 32.421875 
Q 37.25 32.421875 41.125 36.953125 
Q 45.015625 41.5 45.015625 49.421875 
Q 45.015625 57.28125 41.125 61.84375 
Q 37.25 66.40625 30.609375 66.40625 
Q 23.96875 66.40625 20.09375 61.84375 
Q 16.21875 57.28125 16.21875 49.421875 
Q 16.21875 41.5 20.09375 36.953125 
Q 23.96875 32.421875 30.609375 32.421875 
z
" id="DejaVuSans-57"/>
       <path d="M 10.6875 12.40625 
L 21 12.40625 
L 21 0 
L 10.6875 0 
z
" id="DejaVuSans-46"/>
       <path d="M 31.78125 66.40625 
Q 24.171875 66.40625 20.328125 58.90625 
Q 16.5 51.421875 16.5 36.375 
Q 16.5 21.390625 20.328125 13.890625 
Q 24.171875 6.390625 31.78125 6.390625 
Q 39.453125 6.390625 43.28125 13.890625 
Q 47.125 21.390625 47.125 36.375 
Q 47.125 51.421875 43.28125 58.90625 
Q 39.453125 66.40625 31.78125 66.40625 
z
M 31.78125 74.21875 
Q 44.046875 74.21875 50.515625 64.515625 
Q 56.984375 54.828125 56.984375 36.375 
Q 56.984375 17.96875 50.515625 8.265625 
Q 44.046875 -1.421875 31.78125 -1.421875 
Q 19.53125 -1.421875 13.0625 8.265625 
Q 6.59375 17.96875 6.59375 36.375 
Q 6.59375 54.828125 13.0625 64.515625 
Q 19.53125 74.21875 31.78125 74.21875 
z
" id="DejaVuSans-48"/>
      </defs>
      <g transform="translate(75.331889 287.910437)scale(0.1 -0.1)">
       <use xlink:href="#DejaVuSans-57"/>
       <use x="63.623047" xlink:href="#DejaVuSans-46"/>
       <use x="95.410156" xlink:href="#DejaVuSans-48"/>
      </g>
     </g>
    </g>
    <g id="xtick_2">
     <g id="line2d_2">
      <g>
       <use style="stroke:#000000;stroke-width:0.8;" x="129.009444" xlink:href="#m2976f56976" y="273.312"/>
      </g>
     </g>
     <g id="text_2">
      <!-- 9.5 -->
      <defs>
       <path d="M 10.796875 72.90625 
L 49.515625 72.90625 
L 49.515625 64.59375 
L 19.828125 64.59375 
L 19.828125 46.734375 
Q 21.96875 47.46875 24.109375 47.828125 
Q 26.265625 48.1875 28.421875 48.1875 
Q 40.625 48.1875 47.75 41.5 
Q 54.890625 34.8125 54.890625 23.390625 
Q 54.890625 11.625 47.5625 5.09375 
Q 40.234375 -1.421875 26.90625 -1.421875 
Q 22.3125 -1.421875 17.546875 -0.640625 
Q 12.796875 0.140625 7.71875 1.703125 
L 7.71875 11.625 
Q 12.109375 9.234375 16.796875 8.0625 
Q 21.484375 6.890625 26.703125 6.890625 
Q 35.15625 6.890625 40.078125 11.328125 
Q 45.015625 15.765625 45.015625 23.390625 
Q 45.015625 31 40.078125 35.4375 
Q 35.15625 39.890625 26.703125 39.890625 
Q 22.75 39.890625 18.8125 39.015625 
Q 14.890625 38.140625 10.796875 36.28125 
z
" id="DejaVuSans-53"/>
      </defs>
      <g transform="translate(121.057881 287.910437)scale(0.1 -0.1)">
       <use xlink:href="#DejaVuSans-57"/>
       <use x="63.623047" xlink:href="#DejaVuSans-46"/>
       <use x="95.410156" xlink:href="#DejaVuSans-53"/>
      </g>
     </g>
    </g>
    <g id="xtick_3">
     <g id="line2d_3">
      <g>
       <use style="stroke:#000000;stroke-width:0.8;" x="174.735436" xlink:href="#m2976f56976" y="273.312"/>
      </g>
     </g>
     <g id="text_3">
      <!-- 10.0 -->
      <defs>
       <path d="M 12.40625 8.296875 
L 28.515625 8.296875 
L 28.515625 63.921875 
L 10.984375 60.40625 
L 10.984375 69.390625 
L 28.421875 72.90625 
L 38.28125 72.90625 
L 38.28125 8.296875 
L 54.390625 8.296875 
L 54.390625 0 
L 12.40625 0 
z
" id="DejaVuSans-49"/>
      </defs>
      <g transform="translate(163.602624 287.910437)scale(0.1 -0.1)">
       <use xlink:href="#DejaVuSans-49"/>
       <use x="63.623047" xlink:href="#DejaVuSans-48"/>
       <use x="127.246094" xlink:href="#DejaVuSans-46"/>
       <use x="159.033203" xlink:href="#DejaVuSans-48"/>
      </g>
     </g>
    </g>
    <g id="xtick_4">
     <g id="line2d_4">
      <g>
       <use style="stroke:#000000;stroke-width:0.8;" x="220.461428" xlink:href="#m2976f56976" y="273.312"/>
      </g>
     </g>
     <g id="text_4">
      <!-- 10.5 -->
      <g transform="translate(209.328616 287.910437)scale(0.1 -0.1)">
       <use xlink:href="#DejaVuSans-49"/>
       <use x="63.623047" xlink:href="#DejaVuSans-48"/>
       <use x="127.246094" xlink:href="#DejaVuSans-46"/>
       <use x="159.033203" xlink:href="#DejaVuSans-53"/>
      </g>
     </g>
    </g>
    <g id="xtick_5">
     <g id="line2d_5">
      <g>
       <use style="stroke:#000000;stroke-width:0.8;" x="266.187421" xlink:href="#m2976f56976" y="273.312"/>
      </g>
     </g>
     <g id="text_5">
      <!-- 11.0 -->
      <g transform="translate(255.054608 287.910437)scale(0.1 -0.1)">
       <use xlink:href="#DejaVuSans-49"/>
       <use x="63.623047" xlink:href="#DejaVuSans-49"/>
       <use x="127.246094" xlink:href="#DejaVuSans-46"/>
       <use x="159.033203" xlink:href="#DejaVuSans-48"/>
      </g>
     </g>
    </g>
    <g id="xtick_6">
     <g id="line2d_6">
      <g>
       <use style="stroke:#000000;stroke-width:0.8;" x="311.913413" xlink:href="#m2976f56976" y="273.312"/>
      </g>
     </g>
     <g id="text_6">
      <!-- 11.5 -->
      <g transform="translate(300.780601 287.910437)scale(0.1 -0.1)">
       <use xlink:href="#DejaVuSans-49"/>
       <use x="63.623047" xlink:href="#DejaVuSans-49"/>
       <use x="127.246094" xlink:href="#DejaVuSans-46"/>
       <use x="159.033203" xlink:href="#DejaVuSans-53"/>
      </g>
     </g>
    </g>
    <g id="xtick_7">
     <g id="line2d_7">
      <g>
       <use style="stroke:#000000;stroke-width:0.8;" x="357.639405" xlink:href="#m2976f56976" y="273.312"/>
      </g>
     </g>
     <g id="text_7">
      <!-- 12.0 -->
      <defs>
       <path d="M 19.1875 8.296875 
L 53.609375 8.296875 
L 53.609375 0 
L 7.328125 0 
L 7.328125 8.296875 
Q 12.9375 14.109375 22.625 23.890625 
Q 32.328125 33.6875 34.8125 36.53125 
Q 39.546875 41.84375 41.421875 45.53125 
Q 43.3125 49.21875 43.3125 52.78125 
Q 43.3125 58.59375 39.234375 62.25 
Q 35.15625 65.921875 28.609375 65.921875 
Q 23.96875 65.921875 18.8125 64.3125 
Q 13.671875 62.703125 7.8125 59.421875 
L 7.8125 69.390625 
Q 13.765625 71.78125 18.9375 73 
Q 24.125 74.21875 28.421875 74.21875 
Q 39.75 74.21875 46.484375 68.546875 
Q 53.21875 62.890625 53.21875 53.421875 
Q 53.21875 48.921875 51.53125 44.890625 
Q 49.859375 40.875 45.40625 35.40625 
Q 44.1875 33.984375 37.640625 27.21875 
Q 31.109375 20.453125 19.1875 8.296875 
z
" id="DejaVuSans-50"/>
      </defs>
      <g transform="translate(346.506593 287.910437)scale(0.1 -0.1)">
       <use xlink:href="#DejaVuSans-49"/>
       <use x="63.623047" xlink:href="#DejaVuSans-50"/>
       <use x="127.246094" xlink:href="#DejaVuSans-46"/>
       <use x="159.033203" xlink:href="#DejaVuSans-48"/>
      </g>
     </g>
    </g>
    <g id="xtick_8">
     <g id="line2d_8">
      <g>
       <use style="stroke:#000000;stroke-width:0.8;" x="403.365398" xlink:href="#m2976f56976" y="273.312"/>
      </g>
     </g>
     <g id="text_8">
      <!-- 12.5 -->
      <g transform="translate(392.232585 287.910437)scale(0.1 -0.1)">
       <use xlink:href="#DejaVuSans-49"/>
       <use x="63.623047" xlink:href="#DejaVuSans-50"/>
       <use x="127.246094" xlink:href="#DejaVuSans-46"/>
       <use x="159.033203" xlink:href="#DejaVuSans-53"/>
      </g>
     </g>
    </g>
    <g id="text_9">
     <!-- Bulge mass [log, $M_\odot$] -->
     <defs>
      <path d="M 19.671875 34.8125 
L 19.671875 8.109375 
L 35.5 8.109375 
Q 43.453125 8.109375 47.28125 11.40625 
Q 51.125 14.703125 51.125 21.484375 
Q 51.125 28.328125 47.28125 31.5625 
Q 43.453125 34.8125 35.5 34.8125 
z
M 19.671875 64.796875 
L 19.671875 42.828125 
L 34.28125 42.828125 
Q 41.5 42.828125 45.03125 45.53125 
Q 48.578125 48.25 48.578125 53.8125 
Q 48.578125 59.328125 45.03125 62.0625 
Q 41.5 64.796875 34.28125 64.796875 
z
M 9.8125 72.90625 
L 35.015625 72.90625 
Q 46.296875 72.90625 52.390625 68.21875 
Q 58.5 63.53125 58.5 54.890625 
Q 58.5 48.1875 55.375 44.234375 
Q 52.25 40.28125 46.1875 39.3125 
Q 53.46875 37.75 57.5 32.78125 
Q 61.53125 27.828125 61.53125 20.40625 
Q 61.53125 10.640625 54.890625 5.3125 
Q 48.25 0 35.984375 0 
L 9.8125 0 
z
" id="DejaVuSans-66"/>
      <path d="M 8.5 21.578125 
L 8.5 54.6875 
L 17.484375 54.6875 
L 17.484375 21.921875 
Q 17.484375 14.15625 20.5 10.265625 
Q 23.53125 6.390625 29.59375 6.390625 
Q 36.859375 6.390625 41.078125 11.03125 
Q 45.3125 15.671875 45.3125 23.6875 
L 45.3125 54.6875 
L 54.296875 54.6875 
L 54.296875 0 
L 45.3125 0 
L 45.3125 8.40625 
Q 42.046875 3.421875 37.71875 1 
Q 33.40625 -1.421875 27.6875 -1.421875 
Q 18.265625 -1.421875 13.375 4.4375 
Q 8.5 10.296875 8.5 21.578125 
z
M 31.109375 56 
z
" id="DejaVuSans-117"/>
      <path d="M 9.421875 75.984375 
L 18.40625 75.984375 
L 18.40625 0 
L 9.421875 0 
z
" id="DejaVuSans-108"/>
      <path d="M 45.40625 27.984375 
Q 45.40625 37.75 41.375 43.109375 
Q 37.359375 48.484375 30.078125 48.484375 
Q 22.859375 48.484375 18.828125 43.109375 
Q 14.796875 37.75 14.796875 27.984375 
Q 14.796875 18.265625 18.828125 12.890625 
Q 22.859375 7.515625 30.078125 7.515625 
Q 37.359375 7.515625 41.375 12.890625 
Q 45.40625 18.265625 45.40625 27.984375 
z
M 54.390625 6.78125 
Q 54.390625 -7.171875 48.1875 -13.984375 
Q 42 -20.796875 29.203125 -20.796875 
Q 24.46875 -20.796875 20.265625 -20.09375 
Q 16.0625 -19.390625 12.109375 -17.921875 
L 12.109375 -9.1875 
Q 16.0625 -11.328125 19.921875 -12.34375 
Q 23.78125 -13.375 27.78125 -13.375 
Q 36.625 -13.375 41.015625 -8.765625 
Q 45.40625 -4.15625 45.40625 5.171875 
L 45.40625 9.625 
Q 42.625 4.78125 38.28125 2.390625 
Q 33.9375 0 27.875 0 
Q 17.828125 0 11.671875 7.65625 
Q 5.515625 15.328125 5.515625 27.984375 
Q 5.515625 40.671875 11.671875 48.328125 
Q 17.828125 56 27.875 56 
Q 33.9375 56 38.28125 53.609375 
Q 42.625 51.21875 45.40625 46.390625 
L 45.40625 54.6875 
L 54.390625 54.6875 
z
" id="DejaVuSans-103"/>
      <path d="M 56.203125 29.59375 
L 56.203125 25.203125 
L 14.890625 25.203125 
Q 15.484375 15.921875 20.484375 11.0625 
Q 25.484375 6.203125 34.421875 6.203125 
Q 39.59375 6.203125 44.453125 7.46875 
Q 49.3125 8.734375 54.109375 11.28125 
L 54.109375 2.78125 
Q 49.265625 0.734375 44.1875 -0.34375 
Q 39.109375 -1.421875 33.890625 -1.421875 
Q 20.796875 -1.421875 13.15625 6.1875 
Q 5.515625 13.8125 5.515625 26.8125 
Q 5.515625 40.234375 12.765625 48.109375 
Q 20.015625 56 32.328125 56 
Q 43.359375 56 49.78125 48.890625 
Q 56.203125 41.796875 56.203125 29.59375 
z
M 47.21875 32.234375 
Q 47.125 39.59375 43.09375 43.984375 
Q 39.0625 48.390625 32.421875 48.390625 
Q 24.90625 48.390625 20.390625 44.140625 
Q 15.875 39.890625 15.1875 32.171875 
z
" id="DejaVuSans-101"/>
      <path id="DejaVuSans-32"/>
      <path d="M 52 44.1875 
Q 55.375 50.25 60.0625 53.125 
Q 64.75 56 71.09375 56 
Q 79.640625 56 84.28125 50.015625 
Q 88.921875 44.046875 88.921875 33.015625 
L 88.921875 0 
L 79.890625 0 
L 79.890625 32.71875 
Q 79.890625 40.578125 77.09375 44.375 
Q 74.3125 48.1875 68.609375 48.1875 
Q 61.625 48.1875 57.5625 43.546875 
Q 53.515625 38.921875 53.515625 30.90625 
L 53.515625 0 
L 44.484375 0 
L 44.484375 32.71875 
Q 44.484375 40.625 41.703125 44.40625 
Q 38.921875 48.1875 33.109375 48.1875 
Q 26.21875 48.1875 22.15625 43.53125 
Q 18.109375 38.875 18.109375 30.90625 
L 18.109375 0 
L 9.078125 0 
L 9.078125 54.6875 
L 18.109375 54.6875 
L 18.109375 46.1875 
Q 21.1875 51.21875 25.484375 53.609375 
Q 29.78125 56 35.6875 56 
Q 41.65625 56 45.828125 52.96875 
Q 50 49.953125 52 44.1875 
z
" id="DejaVuSans-109"/>
      <path d="M 34.28125 27.484375 
Q 23.390625 27.484375 19.1875 25 
Q 14.984375 22.515625 14.984375 16.5 
Q 14.984375 11.71875 18.140625 8.90625 
Q 21.296875 6.109375 26.703125 6.109375 
Q 34.1875 6.109375 38.703125 11.40625 
Q 43.21875 16.703125 43.21875 25.484375 
L 43.21875 27.484375 
z
M 52.203125 31.203125 
L 52.203125 0 
L 43.21875 0 
L 43.21875 8.296875 
Q 40.140625 3.328125 35.546875 0.953125 
Q 30.953125 -1.421875 24.3125 -1.421875 
Q 15.921875 -1.421875 10.953125 3.296875 
Q 6 8.015625 6 15.921875 
Q 6 25.140625 12.171875 29.828125 
Q 18.359375 34.515625 30.609375 34.515625 
L 43.21875 34.515625 
L 43.21875 35.40625 
Q 43.21875 41.609375 39.140625 45 
Q 35.0625 48.390625 27.6875 48.390625 
Q 23 48.390625 18.546875 47.265625 
Q 14.109375 46.140625 10.015625 43.890625 
L 10.015625 52.203125 
Q 14.9375 54.109375 19.578125 55.046875 
Q 24.21875 56 28.609375 56 
Q 40.484375 56 46.34375 49.84375 
Q 52.203125 43.703125 52.203125 31.203125 
z
" id="DejaVuSans-97"/>
      <path d="M 44.28125 53.078125 
L 44.28125 44.578125 
Q 40.484375 46.53125 36.375 47.5 
Q 32.28125 48.484375 27.875 48.484375 
Q 21.1875 48.484375 17.84375 46.4375 
Q 14.5 44.390625 14.5 40.28125 
Q 14.5 37.15625 16.890625 35.375 
Q 19.28125 33.59375 26.515625 31.984375 
L 29.59375 31.296875 
Q 39.15625 29.25 43.1875 25.515625 
Q 47.21875 21.78125 47.21875 15.09375 
Q 47.21875 7.46875 41.1875 3.015625 
Q 35.15625 -1.421875 24.609375 -1.421875 
Q 20.21875 -1.421875 15.453125 -0.5625 
Q 10.6875 0.296875 5.421875 2 
L 5.421875 11.28125 
Q 10.40625 8.6875 15.234375 7.390625 
Q 20.0625 6.109375 24.8125 6.109375 
Q 31.15625 6.109375 34.5625 8.28125 
Q 37.984375 10.453125 37.984375 14.40625 
Q 37.984375 18.0625 35.515625 20.015625 
Q 33.0625 21.96875 24.703125 23.78125 
L 21.578125 24.515625 
Q 13.234375 26.265625 9.515625 29.90625 
Q 5.8125 33.546875 5.8125 39.890625 
Q 5.8125 47.609375 11.28125 51.796875 
Q 16.75 56 26.8125 56 
Q 31.78125 56 36.171875 55.265625 
Q 40.578125 54.546875 44.28125 53.078125 
z
" id="DejaVuSans-115"/>
      <path d="M 8.59375 75.984375 
L 29.296875 75.984375 
L 29.296875 69 
L 17.578125 69 
L 17.578125 -6.203125 
L 29.296875 -6.203125 
L 29.296875 -13.1875 
L 8.59375 -13.1875 
z
" id="DejaVuSans-91"/>
      <path d="M 30.609375 48.390625 
Q 23.390625 48.390625 19.1875 42.75 
Q 14.984375 37.109375 14.984375 27.296875 
Q 14.984375 17.484375 19.15625 11.84375 
Q 23.34375 6.203125 30.609375 6.203125 
Q 37.796875 6.203125 41.984375 11.859375 
Q 46.1875 17.53125 46.1875 27.296875 
Q 46.1875 37.015625 41.984375 42.703125 
Q 37.796875 48.390625 30.609375 48.390625 
z
M 30.609375 56 
Q 42.328125 56 49.015625 48.375 
Q 55.71875 40.765625 55.71875 27.296875 
Q 55.71875 13.875 49.015625 6.21875 
Q 42.328125 -1.421875 30.609375 -1.421875 
Q 18.84375 -1.421875 12.171875 6.21875 
Q 5.515625 13.875 5.515625 27.296875 
Q 5.515625 40.765625 12.171875 48.375 
Q 18.84375 56 30.609375 56 
z
" id="DejaVuSans-111"/>
      <path d="M 11.71875 12.40625 
L 22.015625 12.40625 
L 22.015625 4 
L 14.015625 -11.625 
L 7.71875 -11.625 
L 11.71875 4 
z
" id="DejaVuSans-44"/>
      <path d="M 16.890625 72.90625 
L 31.6875 72.90625 
L 40.1875 23.78125 
L 68.40625 72.90625 
L 83.59375 72.90625 
L 69.390625 0 
L 59.8125 0 
L 72.21875 63.921875 
L 43.609375 14.015625 
L 33.984375 14.015625 
L 24.703125 64.109375 
L 12.3125 0 
L 2.6875 0 
z
" id="DejaVuSans-Oblique-77"/>
      <path d="M 36.71875 37.546875 
L 47.078125 37.546875 
L 47.078125 25.140625 
L 36.71875 25.140625 
z
M 51.65625 55.03125 
Q 47.125 56.9375 41.890625 56.9375 
Q 36.671875 56.9375 32.125 55.03125 
Q 27.640625 53.125 23.921875 49.421875 
Q 20.171875 45.65625 18.3125 41.15625 
Q 16.453125 36.671875 16.453125 31.34375 
Q 16.453125 26.171875 18.3125 21.671875 
Q 20.171875 17.1875 23.921875 13.421875 
Q 27.640625 9.71875 32.125 7.8125 
Q 36.671875 5.90625 41.890625 5.90625 
Q 47.125 5.90625 51.65625 7.8125 
Q 56.15625 9.71875 59.859375 13.421875 
Q 63.625 17.1875 65.46875 21.671875 
Q 67.328125 26.171875 67.328125 31.34375 
Q 67.328125 36.671875 65.46875 41.15625 
Q 63.625 45.65625 59.859375 49.421875 
Q 56.15625 53.125 51.65625 55.03125 
z
M 23.53125 59.375 
Q 35.15625 64.265625 41.890625 64.265625 
Q 48.640625 64.265625 54.4375 61.8125 
Q 60.25 59.375 65.046875 54.59375 
Q 69.875 49.75 72.265625 43.953125 
Q 74.65625 38.1875 74.65625 31.34375 
Q 74.65625 24.65625 72.265625 18.84375 
Q 69.875 13.09375 65.046875 8.25 
Q 60.25 3.46875 54.4375 1.015625 
Q 48.640625 -1.421875 41.890625 -1.421875 
Q 35.15625 -1.421875 29.34375 1.015625 
Q 23.53125 3.46875 18.75 8.25 
Q 13.921875 13.09375 11.53125 18.84375 
Q 9.125 24.65625 9.125 31.34375 
Q 9.125 38.1875 11.53125 43.953125 
Q 13.921875 49.75 18.75 54.59375 
Q 23.53125 59.375 35.15625 64.265625 
z
" id="DejaVuSans-8857"/>
      <path d="M 30.421875 75.984375 
L 30.421875 -13.1875 
L 9.71875 -13.1875 
L 9.71875 -6.203125 
L 21.390625 -6.203125 
L 21.390625 69 
L 9.71875 69 
L 9.71875 75.984375 
z
" id="DejaVuSans-93"/>
     </defs>
     <g transform="translate(186.988125 301.590125)scale(0.1 -0.1)">
      <use transform="translate(0 0.015625)" xlink:href="#DejaVuSans-66"/>
      <use transform="translate(68.603516 0.015625)" xlink:href="#DejaVuSans-117"/>
      <use transform="translate(131.982422 0.015625)" xlink:href="#DejaVuSans-108"/>
      <use transform="translate(159.765625 0.015625)" xlink:href="#DejaVuSans-103"/>
      <use transform="translate(223.242188 0.015625)" xlink:href="#DejaVuSans-101"/>
      <use transform="translate(284.765625 0.015625)" xlink:href="#DejaVuSans-32"/>
      <use transform="translate(316.552734 0.015625)" xlink:href="#DejaVuSans-109"/>
      <use transform="translate(413.964844 0.015625)" xlink:href="#DejaVuSans-97"/>
      <use transform="translate(475.244141 0.015625)" xlink:href="#DejaVuSans-115"/>
      <use transform="translate(527.34375 0.015625)" xlink:href="#DejaVuSans-115"/>
      <use transform="translate(579.443359 0.015625)" xlink:href="#DejaVuSans-32"/>
      <use transform="translate(611.230469 0.015625)" xlink:href="#DejaVuSans-91"/>
      <use transform="translate(650.244141 0.015625)" xlink:href="#DejaVuSans-108"/>
      <use transform="translate(678.027344 0.015625)" xlink:href="#DejaVuSans-111"/>
      <use transform="translate(739.208984 0.015625)" xlink:href="#DejaVuSans-103"/>
      <use transform="translate(802.685547 0.015625)" xlink:href="#DejaVuSans-44"/>
      <use transform="translate(834.472656 0.015625)" xlink:href="#DejaVuSans-32"/>
      <use transform="translate(866.259766 0.015625)" xlink:href="#DejaVuSans-Oblique-77"/>
      <use transform="translate(966.176758 -16.390625)scale(0.7)" xlink:href="#DejaVuSans-8857"/>
      <use transform="translate(1041.201172 0.015625)" xlink:href="#DejaVuSans-93"/>
     </g>
    </g>
   </g>
   <g id="matplotlib.axis_2">
    <g id="ytick_1">
     <g id="line2d_9">
      <defs>
       <path d="M 0 0 
L -3.5 0 
" id="me4d1d13478" style="stroke:#000000;stroke-width:0.8;"/>
      </defs>
      <g>
       <use style="stroke:#000000;stroke-width:0.8;" x="62.478125" xlink:href="#me4d1d13478" y="222.994575"/>
      </g>
     </g>
     <g id="text_10">
      <!-- $\mathdefault{10^{2}}$ -->
      <g transform="translate(37.878125 226.793794)scale(0.1 -0.1)">
       <use transform="translate(0 0.765625)" xlink:href="#DejaVuSans-49"/>
       <use transform="translate(63.623047 0.765625)" xlink:href="#DejaVuSans-48"/>
       <use transform="translate(128.203125 39.046875)scale(0.7)" xlink:href="#DejaVuSans-50"/>
      </g>
     </g>
    </g>
    <g id="ytick_2">
     <g id="line2d_10">
      <defs>
       <path d="M 0 0 
L -2 0 
" id="mf46caffd85" style="stroke:#000000;stroke-width:0.6;"/>
      </defs>
      <g>
       <use style="stroke:#000000;stroke-width:0.6;" x="62.478125" xlink:href="#mf46caffd85" y="268.269879"/>
      </g>
     </g>
    </g>
    <g id="ytick_3">
     <g id="line2d_11">
      <g>
       <use style="stroke:#000000;stroke-width:0.6;" x="62.478125" xlink:href="#mf46caffd85" y="251.319783"/>
      </g>
     </g>
    </g>
    <g id="ytick_4">
     <g id="line2d_12">
      <g>
       <use style="stroke:#000000;stroke-width:0.6;" x="62.478125" xlink:href="#mf46caffd85" y="236.36874"/>
      </g>
     </g>
    </g>
    <g id="ytick_5">
     <g id="line2d_13">
      <g>
       <use style="stroke:#000000;stroke-width:0.6;" x="62.478125" xlink:href="#mf46caffd85" y="135.008442"/>
      </g>
     </g>
     <g id="text_11">
      <!-- $\mathdefault{2\times10^{2}}$ -->
      <defs>
       <path d="M 70.125 53.71875 
L 47.796875 31.296875 
L 70.125 8.984375 
L 64.3125 3.078125 
L 41.890625 25.484375 
L 19.484375 3.078125 
L 13.71875 8.984375 
L 35.984375 31.296875 
L 13.71875 53.71875 
L 19.484375 59.625 
L 41.890625 37.203125 
L 64.3125 59.625 
z
" id="DejaVuSans-215"/>
      </defs>
      <g transform="translate(20.878125 138.807661)scale(0.1 -0.1)">
       <use transform="translate(0 0.765625)" xlink:href="#DejaVuSans-50"/>
       <use transform="translate(83.105469 0.765625)" xlink:href="#DejaVuSans-215"/>
       <use transform="translate(186.376953 0.765625)" xlink:href="#DejaVuSans-49"/>
       <use transform="translate(250 0.765625)" xlink:href="#DejaVuSans-48"/>
       <use transform="translate(314.580078 39.046875)scale(0.7)" xlink:href="#DejaVuSans-50"/>
      </g>
     </g>
    </g>
    <g id="ytick_6">
     <g id="line2d_14">
      <g>
       <use style="stroke:#000000;stroke-width:0.6;" x="62.478125" xlink:href="#mf46caffd85" y="83.539853"/>
      </g>
     </g>
     <g id="text_12">
      <!-- $\mathdefault{3\times10^{2}}$ -->
      <defs>
       <path d="M 40.578125 39.3125 
Q 47.65625 37.796875 51.625 33 
Q 55.609375 28.21875 55.609375 21.1875 
Q 55.609375 10.40625 48.1875 4.484375 
Q 40.765625 -1.421875 27.09375 -1.421875 
Q 22.515625 -1.421875 17.65625 -0.515625 
Q 12.796875 0.390625 7.625 2.203125 
L 7.625 11.71875 
Q 11.71875 9.328125 16.59375 8.109375 
Q 21.484375 6.890625 26.8125 6.890625 
Q 36.078125 6.890625 40.9375 10.546875 
Q 45.796875 14.203125 45.796875 21.1875 
Q 45.796875 27.640625 41.28125 31.265625 
Q 36.765625 34.90625 28.71875 34.90625 
L 20.21875 34.90625 
L 20.21875 43.015625 
L 29.109375 43.015625 
Q 36.375 43.015625 40.234375 45.921875 
Q 44.09375 48.828125 44.09375 54.296875 
Q 44.09375 59.90625 40.109375 62.90625 
Q 36.140625 65.921875 28.71875 65.921875 
Q 24.65625 65.921875 20.015625 65.03125 
Q 15.375 64.15625 9.8125 62.3125 
L 9.8125 71.09375 
Q 15.4375 72.65625 20.34375 73.4375 
Q 25.25 74.21875 29.59375 74.21875 
Q 40.828125 74.21875 47.359375 69.109375 
Q 53.90625 64.015625 53.90625 55.328125 
Q 53.90625 49.265625 50.4375 45.09375 
Q 46.96875 40.921875 40.578125 39.3125 
z
" id="DejaVuSans-51"/>
      </defs>
      <g transform="translate(20.878125 87.339072)scale(0.1 -0.1)">
       <use transform="translate(0 0.765625)" xlink:href="#DejaVuSans-51"/>
       <use transform="translate(83.105469 0.765625)" xlink:href="#DejaVuSans-215"/>
       <use transform="translate(186.376953 0.765625)" xlink:href="#DejaVuSans-49"/>
       <use transform="translate(250 0.765625)" xlink:href="#DejaVuSans-48"/>
       <use transform="translate(314.580078 39.046875)scale(0.7)" xlink:href="#DejaVuSans-50"/>
      </g>
     </g>
    </g>
    <g id="ytick_7">
     <g id="line2d_15">
      <g>
       <use style="stroke:#000000;stroke-width:0.6;" x="62.478125" xlink:href="#mf46caffd85" y="47.022308"/>
      </g>
     </g>
     <g id="text_13">
      <!-- $\mathdefault{4\times10^{2}}$ -->
      <defs>
       <path d="M 37.796875 64.3125 
L 12.890625 25.390625 
L 37.796875 25.390625 
z
M 35.203125 72.90625 
L 47.609375 72.90625 
L 47.609375 25.390625 
L 58.015625 25.390625 
L 58.015625 17.1875 
L 47.609375 17.1875 
L 47.609375 0 
L 37.796875 0 
L 37.796875 17.1875 
L 4.890625 17.1875 
L 4.890625 26.703125 
z
" id="DejaVuSans-52"/>
      </defs>
      <g transform="translate(20.878125 50.821527)scale(0.1 -0.1)">
       <use transform="translate(0 0.765625)" xlink:href="#DejaVuSans-52"/>
       <use transform="translate(83.105469 0.765625)" xlink:href="#DejaVuSans-215"/>
       <use transform="translate(186.376953 0.765625)" xlink:href="#DejaVuSans-49"/>
       <use transform="translate(250 0.765625)" xlink:href="#DejaVuSans-48"/>
       <use transform="translate(314.580078 39.046875)scale(0.7)" xlink:href="#DejaVuSans-50"/>
      </g>
     </g>
    </g>
    <g id="ytick_8">
     <g id="line2d_16">
      <g>
       <use style="stroke:#000000;stroke-width:0.6;" x="62.478125" xlink:href="#mf46caffd85" y="18.6971"/>
      </g>
     </g>
    </g>
    <g id="text_14">
     <!-- Velocity dispersion [log, km/s] -->
     <defs>
      <path d="M 28.609375 0 
L 0.78125 72.90625 
L 11.078125 72.90625 
L 34.1875 11.53125 
L 57.328125 72.90625 
L 67.578125 72.90625 
L 39.796875 0 
z
" id="DejaVuSans-86"/>
      <path d="M 48.78125 52.59375 
L 48.78125 44.1875 
Q 44.96875 46.296875 41.140625 47.34375 
Q 37.3125 48.390625 33.40625 48.390625 
Q 24.65625 48.390625 19.8125 42.84375 
Q 14.984375 37.3125 14.984375 27.296875 
Q 14.984375 17.28125 19.8125 11.734375 
Q 24.65625 6.203125 33.40625 6.203125 
Q 37.3125 6.203125 41.140625 7.25 
Q 44.96875 8.296875 48.78125 10.40625 
L 48.78125 2.09375 
Q 45.015625 0.34375 40.984375 -0.53125 
Q 36.96875 -1.421875 32.421875 -1.421875 
Q 20.0625 -1.421875 12.78125 6.34375 
Q 5.515625 14.109375 5.515625 27.296875 
Q 5.515625 40.671875 12.859375 48.328125 
Q 20.21875 56 33.015625 56 
Q 37.15625 56 41.109375 55.140625 
Q 45.0625 54.296875 48.78125 52.59375 
z
" id="DejaVuSans-99"/>
      <path d="M 9.421875 54.6875 
L 18.40625 54.6875 
L 18.40625 0 
L 9.421875 0 
z
M 9.421875 75.984375 
L 18.40625 75.984375 
L 18.40625 64.59375 
L 9.421875 64.59375 
z
" id="DejaVuSans-105"/>
      <path d="M 18.3125 70.21875 
L 18.3125 54.6875 
L 36.8125 54.6875 
L 36.8125 47.703125 
L 18.3125 47.703125 
L 18.3125 18.015625 
Q 18.3125 11.328125 20.140625 9.421875 
Q 21.96875 7.515625 27.59375 7.515625 
L 36.8125 7.515625 
L 36.8125 0 
L 27.59375 0 
Q 17.1875 0 13.234375 3.875 
Q 9.28125 7.765625 9.28125 18.015625 
L 9.28125 47.703125 
L 2.6875 47.703125 
L 2.6875 54.6875 
L 9.28125 54.6875 
L 9.28125 70.21875 
z
" id="DejaVuSans-116"/>
      <path d="M 32.171875 -5.078125 
Q 28.375 -14.84375 24.75 -17.8125 
Q 21.140625 -20.796875 15.09375 -20.796875 
L 7.90625 -20.796875 
L 7.90625 -13.28125 
L 13.1875 -13.28125 
Q 16.890625 -13.28125 18.9375 -11.515625 
Q 21 -9.765625 23.484375 -3.21875 
L 25.09375 0.875 
L 2.984375 54.6875 
L 12.5 54.6875 
L 29.59375 11.921875 
L 46.6875 54.6875 
L 56.203125 54.6875 
z
" id="DejaVuSans-121"/>
      <path d="M 45.40625 46.390625 
L 45.40625 75.984375 
L 54.390625 75.984375 
L 54.390625 0 
L 45.40625 0 
L 45.40625 8.203125 
Q 42.578125 3.328125 38.25 0.953125 
Q 33.9375 -1.421875 27.875 -1.421875 
Q 17.96875 -1.421875 11.734375 6.484375 
Q 5.515625 14.40625 5.515625 27.296875 
Q 5.515625 40.1875 11.734375 48.09375 
Q 17.96875 56 27.875 56 
Q 33.9375 56 38.25 53.625 
Q 42.578125 51.265625 45.40625 46.390625 
z
M 14.796875 27.296875 
Q 14.796875 17.390625 18.875 11.75 
Q 22.953125 6.109375 30.078125 6.109375 
Q 37.203125 6.109375 41.296875 11.75 
Q 45.40625 17.390625 45.40625 27.296875 
Q 45.40625 37.203125 41.296875 42.84375 
Q 37.203125 48.484375 30.078125 48.484375 
Q 22.953125 48.484375 18.875 42.84375 
Q 14.796875 37.203125 14.796875 27.296875 
z
" id="DejaVuSans-100"/>
      <path d="M 18.109375 8.203125 
L 18.109375 -20.796875 
L 9.078125 -20.796875 
L 9.078125 54.6875 
L 18.109375 54.6875 
L 18.109375 46.390625 
Q 20.953125 51.265625 25.265625 53.625 
Q 29.59375 56 35.59375 56 
Q 45.5625 56 51.78125 48.09375 
Q 58.015625 40.1875 58.015625 27.296875 
Q 58.015625 14.40625 51.78125 6.484375 
Q 45.5625 -1.421875 35.59375 -1.421875 
Q 29.59375 -1.421875 25.265625 0.953125 
Q 20.953125 3.328125 18.109375 8.203125 
z
M 48.6875 27.296875 
Q 48.6875 37.203125 44.609375 42.84375 
Q 40.53125 48.484375 33.40625 48.484375 
Q 26.265625 48.484375 22.1875 42.84375 
Q 18.109375 37.203125 18.109375 27.296875 
Q 18.109375 17.390625 22.1875 11.75 
Q 26.265625 6.109375 33.40625 6.109375 
Q 40.53125 6.109375 44.609375 11.75 
Q 48.6875 17.390625 48.6875 27.296875 
z
" id="DejaVuSans-112"/>
      <path d="M 41.109375 46.296875 
Q 39.59375 47.171875 37.8125 47.578125 
Q 36.03125 48 33.890625 48 
Q 26.265625 48 22.1875 43.046875 
Q 18.109375 38.09375 18.109375 28.8125 
L 18.109375 0 
L 9.078125 0 
L 9.078125 54.6875 
L 18.109375 54.6875 
L 18.109375 46.1875 
Q 20.953125 51.171875 25.484375 53.578125 
Q 30.03125 56 36.53125 56 
Q 37.453125 56 38.578125 55.875 
Q 39.703125 55.765625 41.0625 55.515625 
z
" id="DejaVuSans-114"/>
      <path d="M 54.890625 33.015625 
L 54.890625 0 
L 45.90625 0 
L 45.90625 32.71875 
Q 45.90625 40.484375 42.875 44.328125 
Q 39.84375 48.1875 33.796875 48.1875 
Q 26.515625 48.1875 22.3125 43.546875 
Q 18.109375 38.921875 18.109375 30.90625 
L 18.109375 0 
L 9.078125 0 
L 9.078125 54.6875 
L 18.109375 54.6875 
L 18.109375 46.1875 
Q 21.34375 51.125 25.703125 53.5625 
Q 30.078125 56 35.796875 56 
Q 45.21875 56 50.046875 50.171875 
Q 54.890625 44.34375 54.890625 33.015625 
z
" id="DejaVuSans-110"/>
      <path d="M 9.078125 75.984375 
L 18.109375 75.984375 
L 18.109375 31.109375 
L 44.921875 54.6875 
L 56.390625 54.6875 
L 27.390625 29.109375 
L 57.625 0 
L 45.90625 0 
L 18.109375 26.703125 
L 18.109375 0 
L 9.078125 0 
z
" id="DejaVuSans-107"/>
      <path d="M 25.390625 72.90625 
L 33.6875 72.90625 
L 8.296875 -9.28125 
L 0 -9.28125 
z
" id="DejaVuSans-47"/>
     </defs>
     <g transform="translate(14.798437 215.884906)rotate(-90)scale(0.1 -0.1)">
      <use xlink:href="#DejaVuSans-86"/>
      <use x="68.298828" xlink:href="#DejaVuSans-101"/>
      <use x="129.822266" xlink:href="#DejaVuSans-108"/>
      <use x="157.605469" xlink:href="#DejaVuSans-111"/>
      <use x="218.787109" xlink:href="#DejaVuSans-99"/>
      <use x="273.767578" xlink:href="#DejaVuSans-105"/>
      <use x="301.550781" xlink:href="#DejaVuSans-116"/>
      <use x="340.759766" xlink:href="#DejaVuSans-121"/>
      <use x="399.939453" xlink:href="#DejaVuSans-32"/>
      <use x="431.726562" xlink:href="#DejaVuSans-100"/>
      <use x="495.203125" xlink:href="#DejaVuSans-105"/>
      <use x="522.986328" xlink:href="#DejaVuSans-115"/>
      <use x="575.085938" xlink:href="#DejaVuSans-112"/>
      <use x="638.5625" xlink:href="#DejaVuSans-101"/>
      <use x="700.085938" xlink:href="#DejaVuSans-114"/>
      <use x="741.199219" xlink:href="#DejaVuSans-115"/>
      <use x="793.298828" xlink:href="#DejaVuSans-105"/>
      <use x="821.082031" xlink:href="#DejaVuSans-111"/>
      <use x="882.263672" xlink:href="#DejaVuSans-110"/>
      <use x="945.642578" xlink:href="#DejaVuSans-32"/>
      <use x="977.429688" xlink:href="#DejaVuSans-91"/>
      <use x="1016.443359" xlink:href="#DejaVuSans-108"/>
      <use x="1044.226562" xlink:href="#DejaVuSans-111"/>
      <use x="1105.408203" xlink:href="#DejaVuSans-103"/>
      <use x="1168.884766" xlink:href="#DejaVuSans-44"/>
      <use x="1200.671875" xlink:href="#DejaVuSans-32"/>
      <use x="1232.458984" xlink:href="#DejaVuSans-107"/>
      <use x="1290.369141" xlink:href="#DejaVuSans-109"/>
      <use x="1387.78125" xlink:href="#DejaVuSans-47"/>
      <use x="1421.472656" xlink:href="#DejaVuSans-115"/>
      <use x="1473.572266" xlink:href="#DejaVuSans-93"/>
     </g>
    </g>
   </g>
   <g id="LineCollection_1">
    <path clip-path="url(#p6ca00b2add)" d="M 78.710852 256.171476 
L 97.001249 256.171476 
" style="fill:none;stroke:#ffa500;stroke-width:1.5;"/>
    <path clip-path="url(#p6ca00b2add)" d="M 334.776409 119.494483 
L 351.237766 119.494483 
" style="fill:none;stroke:#ffa500;stroke-width:1.5;"/>
    <path clip-path="url(#p6ca00b2add)" d="M 282.648778 72.213107 
L 299.110135 72.213107 
" style="fill:none;stroke:#ffa500;stroke-width:1.5;"/>
    <path clip-path="url(#p6ca00b2add)" d="M 225.948548 157.898201 
L 242.409905 157.898201 
" style="fill:none;stroke:#ffa500;stroke-width:1.5;"/>
    <path clip-path="url(#p6ca00b2add)" d="M 303.682734 77.346568 
L 320.144092 77.346568 
" style="fill:none;stroke:#ffa500;stroke-width:1.5;"/>
    <path clip-path="url(#p6ca00b2add)" d="M 325.631211 94.124078 
L 342.092568 94.124078 
" style="fill:none;stroke:#ffa500;stroke-width:1.5;"/>
    <path clip-path="url(#p6ca00b2add)" d="M 288.135897 96.914018 
L 304.597254 96.914018 
" style="fill:none;stroke:#ffa500;stroke-width:1.5;"/>
    <path clip-path="url(#p6ca00b2add)" d="M 190.282274 151.958537 
L 206.743631 151.958537 
" style="fill:none;stroke:#ffa500;stroke-width:1.5;"/>
    <path clip-path="url(#p6ca00b2add)" d="M 263.443861 158.660589 
L 279.905218 158.660589 
" style="fill:none;stroke:#ffa500;stroke-width:1.5;"/>
    <path clip-path="url(#p6ca00b2add)" d="M 313.742453 84.815614 
L 330.20381 84.815614 
" style="fill:none;stroke:#ffa500;stroke-width:1.5;"/>
    <path clip-path="url(#p6ca00b2add)" d="M 212.23075 175.829353 
L 228.692107 175.829353 
" style="fill:none;stroke:#ffa500;stroke-width:1.5;"/>
    <path clip-path="url(#p6ca00b2add)" d="M 249.726064 131.256331 
L 266.187421 131.256331 
" style="fill:none;stroke:#ffa500;stroke-width:1.5;"/>
    <path clip-path="url(#p6ca00b2add)" d="M 281.734258 117.820562 
L 298.195615 117.820562 
" style="fill:none;stroke:#ffa500;stroke-width:1.5;"/>
    <path clip-path="url(#p6ca00b2add)" d="M 258.871262 146.979971 
L 275.332619 146.979971 
" style="fill:none;stroke:#ffa500;stroke-width:1.5;"/>
    <path clip-path="url(#p6ca00b2add)" d="M 328.37477 96.914018 
L 344.836128 96.914018 
" style="fill:none;stroke:#ffa500;stroke-width:1.5;"/>
    <path clip-path="url(#p6ca00b2add)" d="M 317.400532 77.346568 
L 333.861889 77.346568 
" style="fill:none;stroke:#ffa500;stroke-width:1.5;"/>
    <path clip-path="url(#p6ca00b2add)" d="M 244.238944 110.811635 
L 260.700302 110.811635 
" style="fill:none;stroke:#ffa500;stroke-width:1.5;"/>
    <path clip-path="url(#p6ca00b2add)" d="M 314.656973 85.243733 
L 331.11833 85.243733 
" style="fill:none;stroke:#ffa500;stroke-width:1.5;"/>
    <path clip-path="url(#p6ca00b2add)" d="M 304.597254 146.979971 
L 321.058612 146.979971 
" style="fill:none;stroke:#ffa500;stroke-width:1.5;"/>
    <path clip-path="url(#p6ca00b2add)" d="M 246.982504 157.898201 
L 263.443861 157.898201 
" style="fill:none;stroke:#ffa500;stroke-width:1.5;"/>
    <path clip-path="url(#p6ca00b2add)" d="M 334.776409 83.539853 
L 351.237766 83.539853 
" style="fill:none;stroke:#ffa500;stroke-width:1.5;"/>
    <path clip-path="url(#p6ca00b2add)" d="M 244.238944 141.519467 
L 260.700302 141.519467 
" style="fill:none;stroke:#ffa500;stroke-width:1.5;"/>
    <path clip-path="url(#p6ca00b2add)" d="M 323.802171 73.770637 
L 340.263528 73.770637 
" style="fill:none;stroke:#ffa500;stroke-width:1.5;"/>
    <path clip-path="url(#p6ca00b2add)" d="M 132.667523 144.904658 
L 150.95792 144.904658 
" style="fill:none;stroke:#ffa500;stroke-width:1.5;"/>
    <path clip-path="url(#p6ca00b2add)" d="M 316.486012 53.533333 
L 332.94737 53.533333 
" style="fill:none;stroke:#ffa500;stroke-width:1.5;"/>
    <path clip-path="url(#p6ca00b2add)" d="M 255.213183 150.516054 
L 271.67454 150.516054 
" style="fill:none;stroke:#ffa500;stroke-width:1.5;"/>
    <path clip-path="url(#p6ca00b2add)" d="M 272.58906 62.171847 
L 289.050417 62.171847 
" style="fill:none;stroke:#ffa500;stroke-width:1.5;"/>
    <path clip-path="url(#p6ca00b2add)" d="M 357.639405 65.065127 
L 374.100763 65.065127 
" style="fill:none;stroke:#ffa500;stroke-width:1.5;"/>
    <path clip-path="url(#p6ca00b2add)" d="M 283.563298 121.761278 
L 300.024655 121.761278 
" style="fill:none;stroke:#ffa500;stroke-width:1.5;"/>
    <path clip-path="url(#p6ca00b2add)" d="M 262.529341 171.525987 
L 278.990699 171.525987 
" style="fill:none;stroke:#ffa500;stroke-width:1.5;"/>
    <path clip-path="url(#p6ca00b2add)" d="M 317.400532 70.292689 
L 333.861889 70.292689 
" style="fill:none;stroke:#ffa500;stroke-width:1.5;"/>
    <path clip-path="url(#p6ca00b2add)" d="M 312.827933 72.213107 
L 329.28929 72.213107 
" style="fill:none;stroke:#ffa500;stroke-width:1.5;"/>
    <path clip-path="url(#p6ca00b2add)" d="M 257.956742 146.284424 
L 274.418099 146.284424 
" style="fill:none;stroke:#ffa500;stroke-width:1.5;"/>
    <path clip-path="url(#p6ca00b2add)" d="M 218.632389 112.395071 
L 235.093746 112.395071 
" style="fill:none;stroke:#ffa500;stroke-width:1.5;"/>
    <path clip-path="url(#p6ca00b2add)" d="M 321.058612 76.143364 
L 337.519969 76.143364 
" style="fill:none;stroke:#ffa500;stroke-width:1.5;"/>
    <path clip-path="url(#p6ca00b2add)" d="M 280.819738 50.561977 
L 297.281096 50.561977 
" style="fill:none;stroke:#ffa500;stroke-width:1.5;"/>
    <path clip-path="url(#p6ca00b2add)" d="M 312.827933 98.808637 
L 331.11833 98.808637 
" style="fill:none;stroke:#ffa500;stroke-width:1.5;"/>
    <path clip-path="url(#p6ca00b2add)" d="M 317.400532 86.970796 
L 333.861889 86.970796 
" style="fill:none;stroke:#ffa500;stroke-width:1.5;"/>
    <path clip-path="url(#p6ca00b2add)" d="M 326.545731 103.177843 
L 343.007088 103.177843 
" style="fill:none;stroke:#ffa500;stroke-width:1.5;"/>
    <path clip-path="url(#p6ca00b2add)" d="M 312.827933 71.057373 
L 329.28929 71.057373 
" style="fill:none;stroke:#ffa500;stroke-width:1.5;"/>
    <path clip-path="url(#p6ca00b2add)" d="M 331.11833 88.721681 
L 349.408727 88.721681 
" style="fill:none;stroke:#ffa500;stroke-width:1.5;"/>
    <path clip-path="url(#p6ca00b2add)" d="M 329.28929 74.556628 
L 345.750647 74.556628 
" style="fill:none;stroke:#ffa500;stroke-width:1.5;"/>
   </g>
   <g id="LineCollection_2">
    <path clip-path="url(#p6ca00b2add)" d="M 87.856051 261.216 
L 87.856051 251.319783 
" style="fill:none;stroke:#ffa500;stroke-width:1.5;"/>
    <path clip-path="url(#p6ca00b2add)" d="M 343.007088 124.65291 
L 343.007088 114.537521 
" style="fill:none;stroke:#ffa500;stroke-width:1.5;"/>
    <path clip-path="url(#p6ca00b2add)" d="M 290.879457 75.744816 
L 290.879457 68.777004 
" style="fill:none;stroke:#ffa500;stroke-width:1.5;"/>
    <path clip-path="url(#p6ca00b2add)" d="M 234.179226 160.19924 
L 234.179226 155.638133 
" style="fill:none;stroke:#ffa500;stroke-width:1.5;"/>
    <path clip-path="url(#p6ca00b2add)" d="M 311.913413 78.561287 
L 311.913413 76.143364 
" style="fill:none;stroke:#ffa500;stroke-width:1.5;"/>
    <path clip-path="url(#p6ca00b2add)" d="M 333.861889 95.047261 
L 333.861889 93.20756 
" style="fill:none;stroke:#ffa500;stroke-width:1.5;"/>
    <path clip-path="url(#p6ca00b2add)" d="M 296.366576 101.704668 
L 296.366576 92.297612 
" style="fill:none;stroke:#ffa500;stroke-width:1.5;"/>
    <path clip-path="url(#p6ca00b2add)" d="M 198.512952 157.898201 
L 198.512952 146.284424 
" style="fill:none;stroke:#ffa500;stroke-width:1.5;"/>
    <path clip-path="url(#p6ca00b2add)" d="M 271.67454 171.525987 
L 271.67454 146.979971 
" style="fill:none;stroke:#ffa500;stroke-width:1.5;"/>
    <path clip-path="url(#p6ca00b2add)" d="M 321.973131 90.050878 
L 321.973131 79.787743 
" style="fill:none;stroke:#ffa500;stroke-width:1.5;"/>
    <path clip-path="url(#p6ca00b2add)" d="M 220.461428 182.110211 
L 220.461428 169.844675 
" style="fill:none;stroke:#ffa500;stroke-width:1.5;"/>
    <path clip-path="url(#p6ca00b2add)" d="M 257.956742 137.572916 
L 257.956742 125.239226 
" style="fill:none;stroke:#ffa500;stroke-width:1.5;"/>
    <path clip-path="url(#p6ca00b2add)" d="M 289.964937 124.06929 
L 289.964937 111.865061 
" style="fill:none;stroke:#ffa500;stroke-width:1.5;"/>
    <path clip-path="url(#p6ca00b2add)" d="M 267.101941 153.417601 
L 267.101941 140.853128 
" style="fill:none;stroke:#ffa500;stroke-width:1.5;"/>
    <path clip-path="url(#p6ca00b2add)" d="M 336.605449 110.288182 
L 336.605449 84.815614 
" style="fill:none;stroke:#ffa500;stroke-width:1.5;"/>
    <path clip-path="url(#p6ca00b2add)" d="M 325.631211 83.539853 
L 325.631211 71.44145 
" style="fill:none;stroke:#ffa500;stroke-width:1.5;"/>
    <path clip-path="url(#p6ca00b2add)" d="M 252.469623 117.267458 
L 252.469623 104.668316 
" style="fill:none;stroke:#ffa500;stroke-width:1.5;"/>
    <path clip-path="url(#p6ca00b2add)" d="M 322.887651 91.394141 
L 322.887651 79.377606 
" style="fill:none;stroke:#ffa500;stroke-width:1.5;"/>
    <path clip-path="url(#p6ca00b2add)" d="M 312.827933 150.516054 
L 312.827933 143.539729 
" style="fill:none;stroke:#ffa500;stroke-width:1.5;"/>
    <path clip-path="url(#p6ca00b2add)" d="M 255.213183 164.129497 
L 255.213183 151.958537 
" style="fill:none;stroke:#ffa500;stroke-width:1.5;"/>
    <path clip-path="url(#p6ca00b2add)" d="M 343.007088 86.536822 
L 343.007088 80.612013 
" style="fill:none;stroke:#ffa500;stroke-width:1.5;"/>
    <path clip-path="url(#p6ca00b2add)" d="M 252.469623 147.679351 
L 252.469623 135.64472 
" style="fill:none;stroke:#ffa500;stroke-width:1.5;"/>
    <path clip-path="url(#p6ca00b2add)" d="M 332.03285 85.243733 
L 332.03285 63.249113 
" style="fill:none;stroke:#ffa500;stroke-width:1.5;"/>
    <path clip-path="url(#p6ca00b2add)" d="M 141.812722 151.235247 
L 141.812722 138.874847 
" style="fill:none;stroke:#ffa500;stroke-width:1.5;"/>
    <path clip-path="url(#p6ca00b2add)" d="M 324.716691 60.044358 
L 324.716691 47.340049 
" style="fill:none;stroke:#ffa500;stroke-width:1.5;"/>
    <path clip-path="url(#p6ca00b2add)" d="M 263.443861 156.387027 
L 263.443861 144.904658 
" style="fill:none;stroke:#ffa500;stroke-width:1.5;"/>
    <path clip-path="url(#p6ca00b2add)" d="M 280.819738 67.279203 
L 280.819738 57.262063 
" style="fill:none;stroke:#ffa500;stroke-width:1.5;"/>
    <path clip-path="url(#p6ca00b2add)" d="M 365.870084 66.907498 
L 365.870084 63.249113 
" style="fill:none;stroke:#ffa500;stroke-width:1.5;"/>
    <path clip-path="url(#p6ca00b2add)" d="M 291.793976 128.212129 
L 291.793976 115.622461 
" style="fill:none;stroke:#ffa500;stroke-width:1.5;"/>
    <path clip-path="url(#p6ca00b2add)" d="M 270.76002 177.592398 
L 270.76002 165.736318 
" style="fill:none;stroke:#ffa500;stroke-width:1.5;"/>
    <path clip-path="url(#p6ca00b2add)" d="M 325.631211 71.057373 
L 325.631211 69.532584 
" style="fill:none;stroke:#ffa500;stroke-width:1.5;"/>
    <path clip-path="url(#p6ca00b2add)" d="M 321.058612 76.543166 
L 321.058612 68.025894 
" style="fill:none;stroke:#ffa500;stroke-width:1.5;"/>
    <path clip-path="url(#p6ca00b2add)" d="M 266.187421 152.685973 
L 266.187421 140.19027 
" style="fill:none;stroke:#ffa500;stroke-width:1.5;"/>
    <path clip-path="url(#p6ca00b2add)" d="M 226.863067 118.376086 
L 226.863067 106.683233 
" style="fill:none;stroke:#ffa500;stroke-width:1.5;"/>
    <path clip-path="url(#p6ca00b2add)" d="M 329.28929 76.944232 
L 329.28929 75.347517 
" style="fill:none;stroke:#ffa500;stroke-width:1.5;"/>
    <path clip-path="url(#p6ca00b2add)" d="M 289.050417 51.544721 
L 289.050417 49.586783 
" style="fill:none;stroke:#ffa500;stroke-width:1.5;"/>
    <path clip-path="url(#p6ca00b2add)" d="M 321.973131 105.169055 
L 321.973131 92.751771 
" style="fill:none;stroke:#ffa500;stroke-width:1.5;"/>
    <path clip-path="url(#p6ca00b2add)" d="M 325.631211 89.163202 
L 325.631211 84.815614 
" style="fill:none;stroke:#ffa500;stroke-width:1.5;"/>
    <path clip-path="url(#p6ca00b2add)" d="M 334.776409 116.716754 
L 334.776409 90.944806 
" style="fill:none;stroke:#ffa500;stroke-width:1.5;"/>
    <path clip-path="url(#p6ca00b2add)" d="M 321.058612 72.989483 
L 321.058612 69.154232 
" style="fill:none;stroke:#ffa500;stroke-width:1.5;"/>
    <path clip-path="url(#p6ca00b2add)" d="M 340.263528 95.047261 
L 340.263528 82.696414 
" style="fill:none;stroke:#ffa500;stroke-width:1.5;"/>
    <path clip-path="url(#p6ca00b2add)" d="M 337.519969 81.026164 
L 337.519969 68.400893 
" style="fill:none;stroke:#ffa500;stroke-width:1.5;"/>
   </g>
   <g id="line2d_17">
    <path clip-path="url(#p6ca00b2add)" d="M 83.283452 224.496554 
L 150.669124 187.523407 
L 197.197327 161.274361 
L 229.285743 143.717292 
L 241.318899 136.523189 
L 246.934371 133.359764 
L 255.758686 128.233521 
L 259.769738 125.700671 
L 265.38521 122.383183 
L 268.594052 120.714292 
L 271.802894 118.742827 
L 282.231629 112.778518 
L 288.649312 109.272366 
L 291.055943 107.834051 
L 296.671416 105.069725 
L 303.891309 101.449245 
L 319.133307 93.44121 
L 323.144359 91.297851 
L 330.364252 86.878905 
L 342.397408 80.232102 
L 361.650457 70.03897 
L 383.310138 57.10569 
L 393.738873 51.366029 
L 403.365398 46.184602 
L 403.365398 46.184602 
" style="fill:none;stroke:#000000;stroke-linecap:square;stroke-width:1.5;"/>
   </g>
   <g id="line2d_18">
    <path clip-path="url(#p6ca00b2add)" d="M 83.283452 252.336312 
L 105.745342 239.445674 
L 112.965236 235.353694 
L 161.90007 207.235987 
L 177.944278 197.544601 
L 181.95533 195.1916 
L 189.175223 191.157851 
L 196.395117 187.299184 
L 211.637114 178.891047 
L 219.659218 174.176312 
L 226.879112 169.814868 
L 230.087953 168.118594 
L 232.494584 166.710995 
L 237.307847 163.904008 
L 239.714478 162.464113 
L 244.52774 159.444693 
L 252.549844 155.084776 
L 258.967527 151.262415 
L 262.978579 149.008277 
L 274.209525 142.162798 
L 286.242681 135.556042 
L 290.253733 133.760621 
L 297.473626 130.474569 
L 300.682468 128.550745 
L 304.69352 126.144772 
L 319.133307 118.168401 
L 325.55099 114.469037 
L 336.781935 108.379351 
L 343.199618 105.026924 
L 350.419512 101.196399 
L 355.232774 98.624657 
L 360.046037 96.021317 
L 367.26593 92.083679 
L 372.881403 88.836764 
L 389.727821 78.994681 
L 403.365398 71.136641 
L 403.365398 71.136641 
" style="fill:none;stroke:#ff0000;stroke-dasharray:5.55,2.4;stroke-dashoffset:0;stroke-width:1.5;"/>
   </g>
   <g id="line2d_19">
    <path clip-path="url(#p6ca00b2add)" d="M 83.283452 196.690535 
L 92.107766 191.883448 
L 118.580709 177.969991 
L 138.635969 167.517117 
L 156.284597 157.957821 
L 167.515543 151.644988 
L 181.95533 143.68383 
L 202.8128 131.722126 
L 207.626062 129.000647 
L 216.450376 124.012843 
L 226.076901 118.404415 
L 246.132161 107.089503 
L 250.143213 105.028042 
L 254.956475 102.297403 
L 258.165317 100.370521 
L 272.605104 92.074352 
L 275.813945 90.558839 
L 283.836049 86.792389 
L 291.055943 82.608336 
L 299.880257 77.474175 
L 315.924465 68.750731 
L 337.584146 56.231012 
L 351.221722 47.350171 
L 366.46372 38.433216 
L 384.914559 28.682052 
L 390.530031 25.740974 
L 403.365398 19.296 
L 403.365398 19.296 
" style="fill:none;stroke:#ff0000;stroke-dasharray:5.55,2.4;stroke-dashoffset:0;stroke-width:1.5;"/>
   </g>
   <g id="line2d_20">
    <defs>
     <path d="M 0 3 
C 0.795609 3 1.55874 2.683901 2.12132 2.12132 
C 2.683901 1.55874 3 0.795609 3 0 
C 3 -0.795609 2.683901 -1.55874 2.12132 -2.12132 
C 1.55874 -2.683901 0.795609 -3 0 -3 
C -0.795609 -3 -1.55874 -2.683901 -2.12132 -2.12132 
C -2.683901 -1.55874 -3 -0.795609 -3 0 
C -3 0.795609 -2.683901 1.55874 -2.12132 2.12132 
C -1.55874 2.683901 -0.795609 3 0 3 
z
" id="m96f5b83022" style="stroke:#ffa500;"/>
    </defs>
    <g clip-path="url(#p6ca00b2add)">
     <use style="fill:#ffa500;stroke:#ffa500;" x="87.856051" xlink:href="#m96f5b83022" y="256.171476"/>
     <use style="fill:#ffa500;stroke:#ffa500;" x="343.007088" xlink:href="#m96f5b83022" y="119.494483"/>
     <use style="fill:#ffa500;stroke:#ffa500;" x="290.879457" xlink:href="#m96f5b83022" y="72.213107"/>
     <use style="fill:#ffa500;stroke:#ffa500;" x="234.179226" xlink:href="#m96f5b83022" y="157.898201"/>
     <use style="fill:#ffa500;stroke:#ffa500;" x="311.913413" xlink:href="#m96f5b83022" y="77.346568"/>
     <use style="fill:#ffa500;stroke:#ffa500;" x="333.861889" xlink:href="#m96f5b83022" y="94.124078"/>
     <use style="fill:#ffa500;stroke:#ffa500;" x="296.366576" xlink:href="#m96f5b83022" y="96.914018"/>
     <use style="fill:#ffa500;stroke:#ffa500;" x="198.512952" xlink:href="#m96f5b83022" y="151.958537"/>
     <use style="fill:#ffa500;stroke:#ffa500;" x="271.67454" xlink:href="#m96f5b83022" y="158.660589"/>
     <use style="fill:#ffa500;stroke:#ffa500;" x="321.973131" xlink:href="#m96f5b83022" y="84.815614"/>
     <use style="fill:#ffa500;stroke:#ffa500;" x="220.461428" xlink:href="#m96f5b83022" y="175.829353"/>
     <use style="fill:#ffa500;stroke:#ffa500;" x="257.956742" xlink:href="#m96f5b83022" y="131.256331"/>
     <use style="fill:#ffa500;stroke:#ffa500;" x="289.964937" xlink:href="#m96f5b83022" y="117.820562"/>
     <use style="fill:#ffa500;stroke:#ffa500;" x="267.101941" xlink:href="#m96f5b83022" y="146.979971"/>
     <use style="fill:#ffa500;stroke:#ffa500;" x="336.605449" xlink:href="#m96f5b83022" y="96.914018"/>
     <use style="fill:#ffa500;stroke:#ffa500;" x="325.631211" xlink:href="#m96f5b83022" y="77.346568"/>
     <use style="fill:#ffa500;stroke:#ffa500;" x="252.469623" xlink:href="#m96f5b83022" y="110.811635"/>
     <use style="fill:#ffa500;stroke:#ffa500;" x="322.887651" xlink:href="#m96f5b83022" y="85.243733"/>
     <use style="fill:#ffa500;stroke:#ffa500;" x="312.827933" xlink:href="#m96f5b83022" y="146.979971"/>
     <use style="fill:#ffa500;stroke:#ffa500;" x="255.213183" xlink:href="#m96f5b83022" y="157.898201"/>
     <use style="fill:#ffa500;stroke:#ffa500;" x="343.007088" xlink:href="#m96f5b83022" y="83.539853"/>
     <use style="fill:#ffa500;stroke:#ffa500;" x="252.469623" xlink:href="#m96f5b83022" y="141.519467"/>
     <use style="fill:#ffa500;stroke:#ffa500;" x="332.03285" xlink:href="#m96f5b83022" y="73.770637"/>
     <use style="fill:#ffa500;stroke:#ffa500;" x="141.812722" xlink:href="#m96f5b83022" y="144.904658"/>
     <use style="fill:#ffa500;stroke:#ffa500;" x="324.716691" xlink:href="#m96f5b83022" y="53.533333"/>
     <use style="fill:#ffa500;stroke:#ffa500;" x="263.443861" xlink:href="#m96f5b83022" y="150.516054"/>
     <use style="fill:#ffa500;stroke:#ffa500;" x="280.819738" xlink:href="#m96f5b83022" y="62.171847"/>
     <use style="fill:#ffa500;stroke:#ffa500;" x="365.870084" xlink:href="#m96f5b83022" y="65.065127"/>
     <use style="fill:#ffa500;stroke:#ffa500;" x="291.793976" xlink:href="#m96f5b83022" y="121.761278"/>
     <use style="fill:#ffa500;stroke:#ffa500;" x="270.76002" xlink:href="#m96f5b83022" y="171.525987"/>
     <use style="fill:#ffa500;stroke:#ffa500;" x="325.631211" xlink:href="#m96f5b83022" y="70.292689"/>
     <use style="fill:#ffa500;stroke:#ffa500;" x="321.058612" xlink:href="#m96f5b83022" y="72.213107"/>
     <use style="fill:#ffa500;stroke:#ffa500;" x="266.187421" xlink:href="#m96f5b83022" y="146.284424"/>
     <use style="fill:#ffa500;stroke:#ffa500;" x="226.863067" xlink:href="#m96f5b83022" y="112.395071"/>
     <use style="fill:#ffa500;stroke:#ffa500;" x="329.28929" xlink:href="#m96f5b83022" y="76.143364"/>
     <use style="fill:#ffa500;stroke:#ffa500;" x="289.050417" xlink:href="#m96f5b83022" y="50.561977"/>
     <use style="fill:#ffa500;stroke:#ffa500;" x="321.973131" xlink:href="#m96f5b83022" y="98.808637"/>
     <use style="fill:#ffa500;stroke:#ffa500;" x="325.631211" xlink:href="#m96f5b83022" y="86.970796"/>
     <use style="fill:#ffa500;stroke:#ffa500;" x="334.776409" xlink:href="#m96f5b83022" y="103.177843"/>
     <use style="fill:#ffa500;stroke:#ffa500;" x="321.058612" xlink:href="#m96f5b83022" y="71.057373"/>
     <use style="fill:#ffa500;stroke:#ffa500;" x="340.263528" xlink:href="#m96f5b83022" y="88.721681"/>
     <use style="fill:#ffa500;stroke:#ffa500;" x="337.519969" xlink:href="#m96f5b83022" y="74.556628"/>
    </g>
   </g>
   <g id="patch_3">
    <path d="M 62.478125 273.312 
L 62.478125 7.2 
" style="fill:none;stroke:#000000;stroke-linecap:square;stroke-linejoin:miter;stroke-width:0.8;"/>
   </g>
   <g id="patch_4">
    <path d="M 419.598125 273.312 
L 419.598125 7.2 
" style="fill:none;stroke:#000000;stroke-linecap:square;stroke-linejoin:miter;stroke-width:0.8;"/>
   </g>
   <g id="patch_5">
    <path d="M 62.478125 273.312 
L 419.598125 273.312 
" style="fill:none;stroke:#000000;stroke-linecap:square;stroke-linejoin:miter;stroke-width:0.8;"/>
   </g>
   <g id="patch_6">
    <path d="M 62.478125 7.2 
L 419.598125 7.2 
" style="fill:none;stroke:#000000;stroke-linecap:square;stroke-linejoin:miter;stroke-width:0.8;"/>
   </g>
  </g>
 </g>
 <defs>
  <clipPath id="p6ca00b2add">
   <rect height="266.112" width="357.12" x="62.478125" y="7.2"/>
  </clipPath>
 </defs>
</svg>
