<?xml version="1.0" encoding="utf-8" standalone="no"?>
<!DOCTYPE svg PUBLIC "-//W3C//DTD SVG 1.1//EN"
  "http://www.w3.org/Graphics/SVG/1.1/DTD/svg11.dtd">
<svg xmlns:xlink="http://www.w3.org/1999/xlink" width="421.529375pt" height="310.062pt" viewBox="0 0 421.529375 310.062" xmlns="http://www.w3.org/2000/svg" version="1.1">
 <metadata>
  <rdf:RDF xmlns:dc="http://purl.org/dc/elements/1.1/" xmlns:cc="http://creativecommons.org/ns#" xmlns:rdf="http://www.w3.org/1999/02/22-rdf-syntax-ns#">
   <cc:Work>
    <dc:type rdf:resource="http://purl.org/dc/dcmitype/StillImage"/>
    <dc:date>2022-09-13T20:47:02.171470</dc:date>
    <dc:format>image/svg+xml</dc:format>
    <dc:creator>
     <cc:Agent>
      <dc:title>Matplotlib v3.5.1, https://matplotlib.org/</dc:title>
     </cc:Agent>
    </dc:creator>
   </cc:Work>
  </rdf:RDF>
 </metadata>
 <defs>
  <style type="text/css">*{stroke-linejoin: round; stroke-linecap: butt}</style>
 </defs>
 <g id="figure_1">
  <g id="patch_1">
   <path d="M 0 310.062 
L 421.529375 310.062 
L 421.529375 0 
L 0 0 
z
" style="fill: #ffffff"/>
  </g>
  <g id="axes_1">
   <g id="patch_2">
    <path d="M 55.459375 275.062 
L 412.579375 275.062 
L 412.579375 8.95 
L 55.459375 8.95 
z
" style="fill: #ffffff"/>
   </g>
   <g id="PolyCollection_1">
    <defs>
     <path id="me797f687dd" d="M 76.264702 -96.658781 
L 76.264702 -58.770836 
L 77.066912 -59.309337 
L 77.869122 -59.847838 
L 78.671333 -60.386339 
L 79.473543 -60.92484 
L 80.275753 -61.463342 
L 81.077964 -62.001843 
L 81.880174 -62.540344 
L 82.682385 -63.078846 
L 83.484595 -63.617347 
L 84.286805 -64.155848 
L 85.089016 -64.69435 
L 85.891226 -65.232852 
L 86.693437 -65.771353 
L 87.495647 -66.309855 
L 88.297857 -66.848356 
L 89.100068 -67.386858 
L 89.902278 -67.92536 
L 90.704489 -68.463862 
L 91.506699 -69.002364 
L 92.308909 -69.540865 
L 93.11112 -70.079367 
L 93.91333 -70.617869 
L 94.715541 -71.156371 
L 95.517751 -71.694873 
L 96.319961 -72.233376 
L 97.122172 -72.771878 
L 97.924382 -73.31038 
L 98.726592 -73.848882 
L 99.528803 -74.387384 
L 100.331013 -74.925887 
L 101.133224 -75.464389 
L 101.935434 -76.002892 
L 102.737644 -76.541394 
L 103.539855 -77.079896 
L 104.342065 -77.618399 
L 105.144276 -78.156902 
L 105.946486 -78.695404 
L 106.748696 -79.233907 
L 107.550907 -79.772409 
L 108.353117 -80.310912 
L 109.155328 -80.849415 
L 109.957538 -81.387918 
L 110.759748 -81.926421 
L 111.561959 -82.470999 
L 112.364169 -83.015805 
L 113.16638 -83.560612 
L 113.96859 -84.10542 
L 114.7708 -84.650228 
L 115.573011 -85.195037 
L 116.375221 -85.739847 
L 117.177431 -86.284657 
L 117.979642 -86.829469 
L 118.781852 -87.374281 
L 119.584063 -87.919094 
L 120.386273 -88.463908 
L 121.188483 -89.008723 
L 121.990694 -89.553538 
L 122.792904 -90.098354 
L 123.595115 -90.643172 
L 124.397325 -91.187989 
L 125.199535 -91.732808 
L 126.001746 -92.277627 
L 126.803956 -92.822448 
L 127.606167 -93.367269 
L 128.408377 -93.91209 
L 129.210587 -94.456913 
L 130.012798 -95.001737 
L 130.815008 -95.546561 
L 131.617219 -96.091386 
L 132.419429 -96.636212 
L 133.221639 -97.181038 
L 134.02385 -97.725866 
L 134.82606 -98.270694 
L 135.62827 -98.815523 
L 136.430481 -99.360353 
L 137.232691 -99.905183 
L 138.034902 -100.450014 
L 138.837112 -100.994847 
L 139.639322 -101.53968 
L 140.441533 -102.084513 
L 141.243743 -102.629348 
L 142.045954 -103.174183 
L 142.848164 -103.71902 
L 143.650374 -104.263856 
L 144.452585 -104.808694 
L 145.254795 -105.353533 
L 146.057006 -105.898372 
L 146.859216 -106.443212 
L 147.661426 -106.988053 
L 148.463637 -107.532895 
L 149.265847 -108.077738 
L 150.068058 -108.622581 
L 150.870268 -109.167425 
L 151.672478 -109.721193 
L 152.474689 -110.280506 
L 153.276899 -110.839819 
L 154.079109 -111.399133 
L 154.88132 -111.958448 
L 155.68353 -112.517763 
L 156.485741 -113.07708 
L 157.287951 -113.636397 
L 158.090161 -114.195715 
L 158.892372 -114.755034 
L 159.694582 -115.314354 
L 160.496793 -115.873674 
L 161.299003 -116.432995 
L 162.101213 -116.992317 
L 162.903424 -117.55164 
L 163.705634 -118.110964 
L 164.507845 -118.670288 
L 165.310055 -119.229613 
L 166.112265 -119.788939 
L 166.914476 -120.348266 
L 167.716686 -120.907594 
L 168.518897 -121.466922 
L 169.321107 -122.026251 
L 170.123317 -122.585581 
L 170.925528 -123.144912 
L 171.727738 -123.704244 
L 172.529948 -124.263576 
L 173.332159 -124.822909 
L 174.134369 -125.382243 
L 174.93658 -125.941578 
L 175.73879 -126.500914 
L 176.541 -127.06025 
L 177.343211 -127.619587 
L 178.145421 -128.178925 
L 178.947632 -128.738264 
L 179.749842 -129.297604 
L 180.552052 -129.856944 
L 181.354263 -130.416285 
L 182.156473 -130.975627 
L 182.958684 -131.53497 
L 183.760894 -132.094313 
L 184.563104 -132.653658 
L 185.365315 -133.213003 
L 186.167525 -133.772349 
L 186.969736 -134.331695 
L 187.771946 -134.891043 
L 188.574156 -135.450391 
L 189.376367 -136.00974 
L 190.178577 -136.56909 
L 190.980787 -137.128441 
L 191.782998 -137.687792 
L 192.585208 -138.247145 
L 193.387419 -138.806498 
L 194.189629 -139.365852 
L 194.991839 -139.925206 
L 195.79405 -140.484562 
L 196.59626 -141.043918 
L 197.398471 -141.603275 
L 198.200681 -142.153265 
L 199.002891 -142.657375 
L 199.805102 -143.161487 
L 200.607312 -143.665602 
L 201.409523 -144.169719 
L 202.211733 -144.673839 
L 203.013943 -145.177962 
L 203.816154 -145.682087 
L 204.618364 -146.186215 
L 205.420575 -146.690346 
L 206.222785 -147.194479 
L 207.024995 -147.698615 
L 207.827206 -148.202753 
L 208.629416 -148.706894 
L 209.431626 -149.211037 
L 210.233837 -149.715183 
L 211.036047 -150.219332 
L 211.838258 -150.723483 
L 212.640468 -151.227637 
L 213.442678 -151.731794 
L 214.244889 -152.235953 
L 215.047099 -152.740115 
L 215.84931 -153.244279 
L 216.65152 -153.748446 
L 217.45373 -154.252615 
L 218.255941 -154.756787 
L 219.058151 -155.260962 
L 219.860362 -155.76514 
L 220.662572 -156.26932 
L 221.464782 -156.773502 
L 222.266993 -157.277687 
L 223.069203 -157.74528 
L 223.871414 -158.261709 
L 224.673624 -158.751275 
L 225.475834 -159.23541 
L 226.278045 -159.719549 
L 227.080255 -160.203692 
L 227.882466 -160.687838 
L 228.684676 -161.171988 
L 229.486886 -161.656141 
L 230.289097 -162.140297 
L 231.091307 -162.624457 
L 231.893517 -163.10862 
L 232.695728 -163.592787 
L 233.497938 -164.076957 
L 234.300149 -164.561131 
L 235.102359 -165.045308 
L 235.904569 -165.529488 
L 236.70678 -166.013672 
L 237.50899 -166.49786 
L 238.311201 -166.982051 
L 239.113411 -167.466245 
L 239.915621 -167.950443 
L 240.717832 -168.434644 
L 241.520042 -168.925423 
L 242.322253 -169.428365 
L 243.124463 -169.931309 
L 243.926673 -170.434255 
L 244.728884 -170.937203 
L 245.531094 -171.440153 
L 246.333305 -171.943105 
L 247.135515 -172.446059 
L 247.937725 -172.949015 
L 248.739936 -173.451973 
L 249.542146 -173.954933 
L 250.344356 -174.457894 
L 251.146567 -174.960858 
L 251.948777 -175.438127 
L 252.750988 -175.911373 
L 253.553198 -176.384627 
L 254.355408 -176.857889 
L 255.157619 -177.331158 
L 255.959829 -177.792238 
L 256.76204 -178.188468 
L 257.56425 -178.635324 
L 258.36646 -179.133124 
L 259.168671 -179.607262 
L 259.970881 -180.030255 
L 260.773092 -180.415827 
L 261.575302 -180.801401 
L 262.377512 -181.186976 
L 263.179723 -181.572553 
L 263.981933 -181.958131 
L 264.784144 -182.367624 
L 265.586354 -182.795576 
L 266.388564 -183.223567 
L 267.190775 -183.651596 
L 267.992985 -184.153221 
L 268.795195 -184.681689 
L 269.597406 -185.210196 
L 270.399616 -185.738742 
L 271.201827 -186.281203 
L 272.004037 -186.838375 
L 272.806247 -187.317591 
L 273.608458 -187.790047 
L 274.410668 -188.210272 
L 275.212879 -188.629181 
L 276.015089 -189.048116 
L 276.817299 -189.467076 
L 277.61951 -189.930884 
L 278.42172 -190.461068 
L 279.223931 -190.991252 
L 280.026141 -191.521437 
L 280.828351 -192.049213 
L 281.630562 -192.564239 
L 282.432772 -193.079273 
L 283.234983 -193.594313 
L 284.037193 -194.10936 
L 284.839403 -194.624414 
L 285.641614 -195.139475 
L 286.443824 -195.654543 
L 287.246034 -196.169617 
L 288.048245 -196.684699 
L 288.850455 -197.10614 
L 289.652666 -197.515582 
L 290.454876 -197.925029 
L 291.257086 -198.33448 
L 292.059297 -198.743937 
L 292.861507 -199.153398 
L 293.663718 -199.562863 
L 294.465928 -199.979255 
L 295.268138 -200.412333 
L 296.070349 -200.941869 
L 296.872559 -201.471441 
L 297.67477 -202.010045 
L 298.47698 -202.552221 
L 299.27919 -203.094412 
L 300.081401 -203.636618 
L 300.883611 -204.081274 
L 301.685822 -204.483629 
L 302.488032 -204.88599 
L 303.290242 -205.288357 
L 304.092453 -205.690731 
L 304.894663 -206.09311 
L 305.696873 -206.495496 
L 306.499084 -206.897889 
L 307.301294 -207.300287 
L 308.103505 -207.702692 
L 308.905715 -208.105103 
L 309.707925 -208.50752 
L 310.510136 -208.948534 
L 311.312346 -209.391455 
L 312.114557 -209.834383 
L 312.916767 -210.277317 
L 313.718977 -210.720257 
L 314.521188 -211.163204 
L 315.323398 -211.606157 
L 316.125609 -212.049116 
L 316.927819 -212.492081 
L 317.730029 -212.935053 
L 318.53224 -213.378031 
L 319.33445 -213.821015 
L 320.136661 -214.264005 
L 320.938871 -214.707001 
L 321.741081 -215.150004 
L 322.543292 -215.593013 
L 323.345502 -216.036028 
L 324.147712 -216.47905 
L 324.949923 -216.922077 
L 325.752133 -217.336461 
L 326.554344 -217.719294 
L 327.356554 -218.102127 
L 328.158764 -218.48496 
L 328.960975 -218.867793 
L 329.763185 -219.250626 
L 330.565396 -219.633459 
L 331.367606 -220.016292 
L 332.169816 -220.399125 
L 332.972027 -220.781959 
L 333.774237 -221.164792 
L 334.576448 -221.547625 
L 335.378658 -221.930459 
L 336.180868 -222.313292 
L 336.983079 -222.696126 
L 337.785289 -223.07896 
L 338.5875 -223.461793 
L 339.38971 -223.844627 
L 340.19192 -224.227461 
L 340.994131 -224.610295 
L 341.796341 -224.993129 
L 342.598551 -225.375962 
L 343.400762 -225.758797 
L 344.202972 -226.141631 
L 345.005183 -226.524465 
L 345.807393 -226.907299 
L 346.609603 -227.290133 
L 347.411814 -227.672967 
L 348.214024 -228.055802 
L 349.016235 -228.438636 
L 349.818445 -228.82147 
L 350.620655 -229.204305 
L 351.422866 -229.58714 
L 352.225076 -229.979489 
L 353.027287 -230.373766 
L 353.829497 -230.768047 
L 354.631707 -231.162334 
L 355.433918 -231.556626 
L 356.236128 -231.950923 
L 357.038339 -232.345225 
L 357.840549 -232.739531 
L 358.642759 -233.114728 
L 359.44497 -233.489315 
L 360.24718 -233.863911 
L 361.04939 -234.238517 
L 361.851601 -234.613133 
L 362.653811 -234.987758 
L 363.456022 -235.362393 
L 364.258232 -235.758629 
L 365.060442 -236.183882 
L 365.862653 -236.609145 
L 366.664863 -237.015424 
L 367.467074 -237.391744 
L 368.269284 -237.768065 
L 369.071494 -238.144386 
L 369.873705 -238.520709 
L 370.675915 -238.897032 
L 371.478126 -239.273356 
L 372.280336 -239.649681 
L 373.082546 -240.026006 
L 373.884757 -240.402333 
L 374.686967 -240.77866 
L 375.489178 -241.154988 
L 376.291388 -241.531317 
L 377.093598 -241.907647 
L 377.895809 -242.283977 
L 378.698019 -242.660308 
L 379.50023 -243.03664 
L 380.30244 -243.412973 
L 381.10465 -243.789307 
L 381.906861 -244.165641 
L 382.709071 -244.541977 
L 383.511281 -244.918313 
L 384.313492 -245.29465 
L 385.115702 -245.670987 
L 385.917913 -246.049076 
L 386.720123 -246.431913 
L 387.522333 -246.81475 
L 388.324544 -247.197587 
L 389.126754 -247.580425 
L 389.928965 -247.963262 
L 390.731175 -248.346099 
L 391.533385 -248.728936 
L 392.335596 -249.111773 
L 393.137806 -249.494611 
L 393.940017 -249.877448 
L 394.742227 -250.260286 
L 395.544437 -250.643469 
L 396.346648 -251.028156 
L 396.346648 -272.11104 
L 396.346648 -272.11104 
L 395.544437 -271.551886 
L 394.742227 -270.992732 
L 393.940017 -270.433579 
L 393.137806 -269.874427 
L 392.335596 -269.315276 
L 391.533385 -268.755209 
L 390.731175 -268.190855 
L 389.928965 -267.626501 
L 389.126754 -267.062147 
L 388.324544 -266.497793 
L 387.522333 -265.93344 
L 386.720123 -265.415981 
L 385.917913 -264.924201 
L 385.115702 -264.432432 
L 384.313492 -263.940675 
L 383.511281 -263.448928 
L 382.709071 -262.957193 
L 381.906861 -262.465469 
L 381.10465 -261.973755 
L 380.30244 -261.482053 
L 379.50023 -260.990362 
L 378.698019 -260.498682 
L 377.895809 -260.007014 
L 377.093598 -259.515356 
L 376.291388 -259.023709 
L 375.489178 -258.532074 
L 374.686967 -258.040449 
L 373.884757 -257.548836 
L 373.082546 -257.057233 
L 372.280336 -256.565642 
L 371.478126 -256.074062 
L 370.675915 -255.582492 
L 369.873705 -255.090934 
L 369.071494 -254.599387 
L 368.269284 -254.107851 
L 367.467074 -253.616326 
L 366.664863 -253.124812 
L 365.862653 -252.633308 
L 365.060442 -252.141816 
L 364.258232 -251.650335 
L 363.456022 -251.158865 
L 362.653811 -250.667406 
L 361.851601 -250.175958 
L 361.04939 -249.64408 
L 360.24718 -249.099006 
L 359.44497 -248.553944 
L 358.642759 -248.008893 
L 357.840549 -247.463852 
L 357.038339 -246.918823 
L 356.236128 -246.373805 
L 355.433918 -245.828797 
L 354.631707 -245.283801 
L 353.829497 -244.738816 
L 353.027287 -244.193842 
L 352.225076 -243.648879 
L 351.422866 -243.103926 
L 350.620655 -242.557233 
L 349.818445 -241.998158 
L 349.016235 -241.439083 
L 348.214024 -240.880009 
L 347.411814 -240.320935 
L 346.609603 -239.761863 
L 345.807393 -239.202791 
L 345.005183 -238.64372 
L 344.202972 -238.08465 
L 343.400762 -237.525581 
L 342.598551 -236.966513 
L 341.796341 -236.407445 
L 340.994131 -235.848378 
L 340.19192 -235.332237 
L 339.38971 -234.855163 
L 338.5875 -234.378097 
L 337.785289 -233.90104 
L 336.983079 -233.42399 
L 336.180868 -232.946949 
L 335.378658 -232.469917 
L 334.576448 -231.992892 
L 333.774237 -231.515875 
L 332.972027 -231.038867 
L 332.169816 -230.561867 
L 331.367606 -230.084875 
L 330.565396 -229.607892 
L 329.763185 -229.130916 
L 328.960975 -228.653949 
L 328.158764 -228.17699 
L 327.356554 -227.700039 
L 326.554344 -227.223097 
L 325.752133 -226.746162 
L 324.949923 -226.269236 
L 324.147712 -225.754579 
L 323.345502 -225.256319 
L 322.543292 -224.8606 
L 321.741081 -224.43514 
L 320.938871 -223.991747 
L 320.136661 -223.548362 
L 319.33445 -223.104986 
L 318.53224 -222.661619 
L 317.730029 -222.21826 
L 316.927819 -221.77491 
L 316.125609 -221.331568 
L 315.323398 -220.888236 
L 314.521188 -220.444912 
L 313.718977 -220.001597 
L 312.916767 -219.55829 
L 312.114557 -219.114993 
L 311.312346 -218.671703 
L 310.510136 -218.228423 
L 309.707925 -217.785152 
L 308.905715 -217.341889 
L 308.103505 -216.898635 
L 307.301294 -216.455389 
L 306.499084 -216.012153 
L 305.696873 -215.568925 
L 304.894663 -215.125706 
L 304.092453 -214.682495 
L 303.290242 -214.224081 
L 302.488032 -213.76116 
L 301.685822 -213.29824 
L 300.883611 -212.83532 
L 300.081401 -212.3724 
L 299.27919 -211.90948 
L 298.47698 -211.446561 
L 297.67477 -210.983641 
L 296.872559 -210.516314 
L 296.070349 -210.034003 
L 295.268138 -209.551706 
L 294.465928 -209.069423 
L 293.663718 -208.587154 
L 292.861507 -208.104899 
L 292.059297 -207.622659 
L 291.257086 -207.140432 
L 290.454876 -206.685062 
L 289.652666 -206.293465 
L 288.850455 -205.901931 
L 288.048245 -205.510459 
L 287.246034 -205.119049 
L 286.443824 -204.600999 
L 285.641614 -204.082134 
L 284.839403 -203.56333 
L 284.037193 -203.04459 
L 283.234983 -202.546942 
L 282.432772 -202.110542 
L 281.630562 -201.671168 
L 280.828351 -201.200284 
L 280.026141 -200.729403 
L 279.223931 -200.258526 
L 278.42172 -199.787651 
L 277.61951 -199.31678 
L 276.817299 -198.845913 
L 276.015089 -198.403475 
L 275.212879 -197.990532 
L 274.410668 -197.57761 
L 273.608458 -197.164707 
L 272.806247 -196.751824 
L 272.004037 -196.338961 
L 271.201827 -195.926117 
L 270.399616 -195.513294 
L 269.597406 -195.047789 
L 268.795195 -194.563151 
L 267.992985 -194.078533 
L 267.190775 -193.593934 
L 266.388564 -193.109355 
L 265.586354 -192.624795 
L 264.784144 -192.140256 
L 263.981933 -191.655736 
L 263.179723 -191.171236 
L 262.377512 -190.685044 
L 261.575302 -190.297048 
L 260.773092 -189.904203 
L 259.970881 -189.511396 
L 259.168671 -189.118629 
L 258.36646 -188.725901 
L 257.56425 -188.333211 
L 256.76204 -187.926351 
L 255.959829 -187.432712 
L 255.157619 -186.939113 
L 254.355408 -186.445553 
L 253.553198 -185.929315 
L 252.750988 -185.411609 
L 251.948777 -184.893908 
L 251.146567 -184.376211 
L 250.344356 -183.893987 
L 249.542146 -183.477367 
L 248.739936 -183.060753 
L 247.937725 -182.644145 
L 247.135515 -182.227544 
L 246.333305 -181.81095 
L 245.531094 -181.394362 
L 244.728884 -180.97778 
L 243.926673 -180.561205 
L 243.124463 -180.144636 
L 242.322253 -179.728074 
L 241.520042 -179.311518 
L 240.717832 -178.864606 
L 239.915621 -178.406972 
L 239.113411 -177.939096 
L 238.311201 -177.459435 
L 237.50899 -176.979775 
L 236.70678 -176.500117 
L 235.904569 -176.020461 
L 235.102359 -175.521581 
L 234.300149 -175.021313 
L 233.497938 -174.521047 
L 232.695728 -174.020782 
L 231.893517 -173.520519 
L 231.091307 -173.020258 
L 230.289097 -172.519998 
L 229.486886 -172.01974 
L 228.684676 -171.520576 
L 227.882466 -171.120143 
L 227.080255 -170.719721 
L 226.278045 -170.31931 
L 225.475834 -169.890269 
L 224.673624 -169.436885 
L 223.871414 -168.983512 
L 223.069203 -168.582613 
L 222.266993 -168.187172 
L 221.464782 -167.791731 
L 220.662572 -167.39629 
L 219.860362 -167.00085 
L 219.058151 -166.60541 
L 218.255941 -166.20997 
L 217.45373 -165.814531 
L 216.65152 -165.419092 
L 215.84931 -165.023654 
L 215.047099 -164.628216 
L 214.244889 -164.232779 
L 213.442678 -163.837342 
L 212.640468 -163.441905 
L 211.838258 -163.046469 
L 211.036047 -162.651033 
L 210.233837 -162.255597 
L 209.431626 -161.860162 
L 208.629416 -161.464728 
L 207.827206 -161.069293 
L 207.024995 -160.67386 
L 206.222785 -160.278426 
L 205.420575 -159.882993 
L 204.618364 -159.487561 
L 203.816154 -159.092128 
L 203.013943 -158.696696 
L 202.211733 -158.301265 
L 201.409523 -157.905834 
L 200.607312 -157.510403 
L 199.805102 -157.114973 
L 199.002891 -156.719543 
L 198.200681 -156.324114 
L 197.398471 -155.928685 
L 196.59626 -155.533257 
L 195.79405 -155.137828 
L 194.991839 -154.742401 
L 194.189629 -154.346973 
L 193.387419 -153.951546 
L 192.585208 -153.55612 
L 191.782998 -153.160694 
L 190.980787 -152.765268 
L 190.178577 -152.369843 
L 189.376367 -151.974418 
L 188.574156 -151.578993 
L 187.771946 -151.183569 
L 186.969736 -150.788145 
L 186.167525 -150.392722 
L 185.365315 -149.997299 
L 184.563104 -149.601877 
L 183.760894 -149.206455 
L 182.958684 -148.811033 
L 182.156473 -148.415612 
L 181.354263 -148.020191 
L 180.552052 -147.62477 
L 179.749842 -147.22935 
L 178.947632 -146.833931 
L 178.145421 -146.438511 
L 177.343211 -146.043092 
L 176.541 -145.647674 
L 175.73879 -145.252256 
L 174.93658 -144.856838 
L 174.134369 -144.461421 
L 173.332159 -144.066004 
L 172.529948 -143.669444 
L 171.727738 -143.269745 
L 170.925528 -142.870046 
L 170.123317 -142.470347 
L 169.321107 -142.070648 
L 168.518897 -141.670949 
L 167.716686 -141.27125 
L 166.914476 -140.871551 
L 166.112265 -140.471852 
L 165.310055 -140.072153 
L 164.507845 -139.672454 
L 163.705634 -139.272755 
L 162.903424 -138.873056 
L 162.101213 -138.473357 
L 161.299003 -138.073658 
L 160.496793 -137.673959 
L 159.694582 -137.27426 
L 158.892372 -136.874561 
L 158.090161 -136.474862 
L 157.287951 -136.075164 
L 156.485741 -135.675465 
L 155.68353 -135.275766 
L 154.88132 -134.876067 
L 154.079109 -134.476368 
L 153.276899 -134.076669 
L 152.474689 -133.67697 
L 151.672478 -133.277272 
L 150.870268 -132.877573 
L 150.068058 -132.477874 
L 149.265847 -132.078175 
L 148.463637 -131.678476 
L 147.661426 -131.278778 
L 146.859216 -130.879079 
L 146.057006 -130.47938 
L 145.254795 -130.079681 
L 144.452585 -129.679983 
L 143.650374 -129.280284 
L 142.848164 -128.880585 
L 142.045954 -128.480886 
L 141.243743 -128.081188 
L 140.441533 -127.681489 
L 139.639322 -127.28179 
L 138.837112 -126.882092 
L 138.034902 -126.482393 
L 137.232691 -126.082694 
L 136.430481 -125.682996 
L 135.62827 -125.283297 
L 134.82606 -124.883598 
L 134.02385 -124.4839 
L 133.221639 -124.084201 
L 132.419429 -123.684503 
L 131.617219 -123.284804 
L 130.815008 -122.885106 
L 130.012798 -122.485407 
L 129.210587 -122.085708 
L 128.408377 -121.68601 
L 127.606167 -121.286311 
L 126.803956 -120.886613 
L 126.001746 -120.486914 
L 125.199535 -120.087216 
L 124.397325 -119.687517 
L 123.595115 -119.287819 
L 122.792904 -118.88812 
L 121.990694 -118.488422 
L 121.188483 -118.088724 
L 120.386273 -117.689025 
L 119.584063 -117.289327 
L 118.781852 -116.889628 
L 117.979642 -116.48993 
L 117.177431 -116.090231 
L 116.375221 -115.690533 
L 115.573011 -115.290835 
L 114.7708 -114.891136 
L 113.96859 -114.491438 
L 113.16638 -114.09174 
L 112.364169 -113.692041 
L 111.561959 -113.292343 
L 110.759748 -112.910194 
L 109.957538 -112.541363 
L 109.155328 -112.172534 
L 108.353117 -111.803708 
L 107.550907 -111.434884 
L 106.748696 -111.066062 
L 105.946486 -110.697242 
L 105.144276 -110.328425 
L 104.342065 -109.95961 
L 103.539855 -109.590797 
L 102.737644 -109.221987 
L 101.935434 -108.853178 
L 101.133224 -108.484373 
L 100.331013 -108.115569 
L 99.528803 -107.746768 
L 98.726592 -107.377969 
L 97.924382 -107.009172 
L 97.122172 -106.640377 
L 96.319961 -106.271585 
L 95.517751 -105.902795 
L 94.715541 -105.534008 
L 93.91333 -105.165222 
L 93.11112 -104.796439 
L 92.308909 -104.427658 
L 91.506699 -104.05888 
L 90.704489 -103.690104 
L 89.902278 -103.32133 
L 89.100068 -102.949407 
L 88.297857 -102.556226 
L 87.495647 -102.163047 
L 86.693437 -101.76987 
L 85.891226 -101.376696 
L 85.089016 -100.983524 
L 84.286805 -100.590354 
L 83.484595 -100.197186 
L 82.682385 -99.804021 
L 81.880174 -99.410858 
L 81.077964 -99.017697 
L 80.275753 -98.624539 
L 79.473543 -98.231383 
L 78.671333 -97.838229 
L 77.869122 -97.445077 
L 77.066912 -97.051928 
L 76.264702 -96.658781 
z
" style="stroke: #000000; stroke-opacity: 0.1"/>
    </defs>
    <g clip-path="url(#p5cfac54cba)">
     <use xlink:href="#me797f687dd" x="0" y="310.062" style="fill-opacity: 0.1; stroke: #000000; stroke-opacity: 0.1"/>
    </g>
   </g>
   <g id="matplotlib.axis_1">
    <g id="xtick_1">
     <g id="line2d_1">
      <defs>
       <path id="mba89b01a5d" d="M 0 1.75 
L 0 -1.75 
" style="stroke: #000000; stroke-width: 0.8"/>
      </defs>
      <g>
       <use xlink:href="#mba89b01a5d" x="76.264702" y="275.062" style="stroke: #000000; stroke-width: 0.8"/>
      </g>
     </g>
     <g id="line2d_2">
      <g>
       <use xlink:href="#mba89b01a5d" x="76.264702" y="8.95" style="stroke: #000000; stroke-width: 0.8"/>
      </g>
     </g>
     <g id="text_1">
      <!-- 9.0 -->
      <g transform="translate(69.315483 287.452625)scale(0.1 -0.1)">
       <defs>
        <path id="HelveticaNeue-Medium-39" d="M 1728 3962 
C 2272 3962 2541 3526 2541 3046 
C 2541 2554 2272 2106 1728 2106 
C 1197 2106 947 2560 947 3046 
C 947 3533 1197 3962 1728 3962 
z
M 301 1133 
C 339 403 941 -90 1651 -90 
C 2918 -90 3341 1158 3341 2227 
C 3341 3533 3027 4570 1760 4570 
C 781 4570 218 3910 218 3040 
C 218 2125 787 1530 1632 1530 
C 2042 1530 2406 1722 2598 2067 
L 2611 2054 
C 2566 1466 2477 518 1683 518 
C 1306 518 1062 768 1030 1133 
L 301 1133 
z
" transform="scale(0.015625)"/>
        <path id="HelveticaNeue-Medium-2e" d="M 442 0 
L 1331 0 
L 1331 864 
L 442 864 
L 442 0 
z
" transform="scale(0.015625)"/>
        <path id="HelveticaNeue-Medium-30" d="M 1779 518 
C 1139 518 960 1306 960 2240 
C 960 3174 1139 3962 1779 3962 
C 2419 3962 2598 3174 2598 2240 
C 2598 1306 2419 518 1779 518 
z
M 1779 4570 
C 493 4570 230 3258 230 2240 
C 230 1222 493 -90 1779 -90 
C 3066 -90 3328 1222 3328 2240 
C 3328 3258 3066 4570 1779 4570 
z
" transform="scale(0.015625)"/>
       </defs>
       <use xlink:href="#HelveticaNeue-Medium-39"/>
       <use xlink:href="#HelveticaNeue-Medium-2e" x="55.599991"/>
       <use xlink:href="#HelveticaNeue-Medium-30" x="83.399979"/>
      </g>
     </g>
    </g>
    <g id="xtick_2">
     <g id="line2d_3">
      <g>
       <use xlink:href="#mba89b01a5d" x="121.990694" y="275.062" style="stroke: #000000; stroke-width: 0.8"/>
      </g>
     </g>
     <g id="line2d_4">
      <g>
       <use xlink:href="#mba89b01a5d" x="121.990694" y="8.95" style="stroke: #000000; stroke-width: 0.8"/>
      </g>
     </g>
     <g id="text_2">
      <!-- 9.5 -->
      <g transform="translate(115.041475 287.452625)scale(0.1 -0.1)">
       <defs>
        <path id="HelveticaNeue-Medium-35" d="M 307 2029 
L 1037 2029 
C 1152 2342 1453 2438 1760 2438 
C 2349 2438 2611 1997 2611 1504 
C 2611 960 2400 518 1779 518 
C 1306 518 998 794 954 1274 
L 224 1274 
C 256 378 928 -90 1792 -90 
C 2893 -90 3341 800 3341 1517 
C 3341 2374 2829 3014 1939 3014 
C 1638 3014 1312 2893 1114 2675 
L 1101 2688 
L 1331 3827 
L 3104 3827 
L 3104 4480 
L 787 4480 
L 307 2029 
z
" transform="scale(0.015625)"/>
       </defs>
       <use xlink:href="#HelveticaNeue-Medium-39"/>
       <use xlink:href="#HelveticaNeue-Medium-2e" x="55.599991"/>
       <use xlink:href="#HelveticaNeue-Medium-35" x="83.399979"/>
      </g>
     </g>
    </g>
    <g id="xtick_3">
     <g id="line2d_5">
      <g>
       <use xlink:href="#mba89b01a5d" x="167.716686" y="275.062" style="stroke: #000000; stroke-width: 0.8"/>
      </g>
     </g>
     <g id="line2d_6">
      <g>
       <use xlink:href="#mba89b01a5d" x="167.716686" y="8.95" style="stroke: #000000; stroke-width: 0.8"/>
      </g>
     </g>
     <g id="text_3">
      <!-- 10.0 -->
      <g transform="translate(157.98778 287.452625)scale(0.1 -0.1)">
       <defs>
        <path id="HelveticaNeue-Medium-31" d="M 339 3162 
L 1440 3162 
L 1440 0 
L 2240 0 
L 2240 4480 
L 1645 4480 
C 1536 3942 954 3731 339 3738 
L 339 3162 
z
" transform="scale(0.015625)"/>
       </defs>
       <use xlink:href="#HelveticaNeue-Medium-31"/>
       <use xlink:href="#HelveticaNeue-Medium-30" x="55.599991"/>
       <use xlink:href="#HelveticaNeue-Medium-2e" x="111.199982"/>
       <use xlink:href="#HelveticaNeue-Medium-30" x="138.999969"/>
      </g>
     </g>
    </g>
    <g id="xtick_4">
     <g id="line2d_7">
      <g>
       <use xlink:href="#mba89b01a5d" x="213.442678" y="275.062" style="stroke: #000000; stroke-width: 0.8"/>
      </g>
     </g>
     <g id="line2d_8">
      <g>
       <use xlink:href="#mba89b01a5d" x="213.442678" y="8.95" style="stroke: #000000; stroke-width: 0.8"/>
      </g>
     </g>
     <g id="text_4">
      <!-- 10.5 -->
      <g transform="translate(203.713772 287.452625)scale(0.1 -0.1)">
       <use xlink:href="#HelveticaNeue-Medium-31"/>
       <use xlink:href="#HelveticaNeue-Medium-30" x="55.599991"/>
       <use xlink:href="#HelveticaNeue-Medium-2e" x="111.199982"/>
       <use xlink:href="#HelveticaNeue-Medium-35" x="138.999969"/>
      </g>
     </g>
    </g>
    <g id="xtick_5">
     <g id="line2d_9">
      <g>
       <use xlink:href="#mba89b01a5d" x="259.168671" y="275.062" style="stroke: #000000; stroke-width: 0.8"/>
      </g>
     </g>
     <g id="line2d_10">
      <g>
       <use xlink:href="#mba89b01a5d" x="259.168671" y="8.95" style="stroke: #000000; stroke-width: 0.8"/>
      </g>
     </g>
     <g id="text_5">
      <!-- 11.0 -->
      <g transform="translate(249.439765 287.452625)scale(0.1 -0.1)">
       <use xlink:href="#HelveticaNeue-Medium-31"/>
       <use xlink:href="#HelveticaNeue-Medium-31" x="55.599991"/>
       <use xlink:href="#HelveticaNeue-Medium-2e" x="111.199982"/>
       <use xlink:href="#HelveticaNeue-Medium-30" x="138.999969"/>
      </g>
     </g>
    </g>
    <g id="xtick_6">
     <g id="line2d_11">
      <g>
       <use xlink:href="#mba89b01a5d" x="304.894663" y="275.062" style="stroke: #000000; stroke-width: 0.8"/>
      </g>
     </g>
     <g id="line2d_12">
      <g>
       <use xlink:href="#mba89b01a5d" x="304.894663" y="8.95" style="stroke: #000000; stroke-width: 0.8"/>
      </g>
     </g>
     <g id="text_6">
      <!-- 11.5 -->
      <g transform="translate(295.165757 287.452625)scale(0.1 -0.1)">
       <use xlink:href="#HelveticaNeue-Medium-31"/>
       <use xlink:href="#HelveticaNeue-Medium-31" x="55.599991"/>
       <use xlink:href="#HelveticaNeue-Medium-2e" x="111.199982"/>
       <use xlink:href="#HelveticaNeue-Medium-35" x="138.999969"/>
      </g>
     </g>
    </g>
    <g id="xtick_7">
     <g id="line2d_13">
      <g>
       <use xlink:href="#mba89b01a5d" x="350.620655" y="275.062" style="stroke: #000000; stroke-width: 0.8"/>
      </g>
     </g>
     <g id="line2d_14">
      <g>
       <use xlink:href="#mba89b01a5d" x="350.620655" y="8.95" style="stroke: #000000; stroke-width: 0.8"/>
      </g>
     </g>
     <g id="text_7">
      <!-- 12.0 -->
      <g transform="translate(340.891749 287.452625)scale(0.1 -0.1)">
       <defs>
        <path id="HelveticaNeue-Medium-32" d="M 3309 653 
L 1126 653 
C 1254 1050 1798 1325 2317 1683 
C 2829 2042 3315 2483 3315 3194 
C 3315 3770 2970 4570 1875 4570 
C 877 4570 333 3834 333 2842 
L 1062 2842 
C 1082 3469 1254 3962 1830 3962 
C 2458 3962 2592 3488 2586 3168 
C 2573 2470 1818 2118 1235 1696 
C 634 1293 256 736 250 0 
L 3309 0 
L 3309 653 
z
" transform="scale(0.015625)"/>
       </defs>
       <use xlink:href="#HelveticaNeue-Medium-31"/>
       <use xlink:href="#HelveticaNeue-Medium-32" x="55.599991"/>
       <use xlink:href="#HelveticaNeue-Medium-2e" x="111.199982"/>
       <use xlink:href="#HelveticaNeue-Medium-30" x="138.999969"/>
      </g>
     </g>
    </g>
    <g id="xtick_8">
     <g id="line2d_15">
      <g>
       <use xlink:href="#mba89b01a5d" x="396.346648" y="275.062" style="stroke: #000000; stroke-width: 0.8"/>
      </g>
     </g>
     <g id="line2d_16">
      <g>
       <use xlink:href="#mba89b01a5d" x="396.346648" y="8.95" style="stroke: #000000; stroke-width: 0.8"/>
      </g>
     </g>
     <g id="text_8">
      <!-- 12.5 -->
      <g transform="translate(386.617741 287.452625)scale(0.1 -0.1)">
       <use xlink:href="#HelveticaNeue-Medium-31"/>
       <use xlink:href="#HelveticaNeue-Medium-32" x="55.599991"/>
       <use xlink:href="#HelveticaNeue-Medium-2e" x="111.199982"/>
       <use xlink:href="#HelveticaNeue-Medium-35" x="138.999969"/>
      </g>
     </g>
    </g>
    <g id="text_9">
     <!-- Bulge mass [log, $M_\odot$] -->
     <g transform="translate(183.919375 300.762)scale(0.1 -0.1)">
      <defs>
       <path id="HelveticaNeue-Medium-42" d="M 1286 2080 
L 2701 2080 
C 3187 2080 3469 1824 3469 1376 
C 3469 915 3187 653 2701 653 
L 1286 653 
L 1286 2080 
z
M 486 0 
L 2586 0 
C 3770 0 4269 557 4269 1274 
C 4269 1894 3968 2330 3411 2451 
L 3411 2464 
C 3827 2643 4064 2976 4064 3437 
C 4064 4198 3526 4570 2707 4570 
L 486 4570 
L 486 0 
z
M 1286 3917 
L 2592 3917 
C 3027 3917 3264 3750 3264 3290 
C 3264 2880 2976 2656 2592 2656 
L 1286 2656 
L 1286 3917 
z
" transform="scale(0.015625)"/>
       <path id="HelveticaNeue-Medium-75" d="M 3290 3309 
L 2560 3309 
L 2560 1389 
C 2560 877 2355 486 1747 486 
C 1350 486 1114 698 1114 1280 
L 1114 3309 
L 384 3309 
L 384 1210 
C 384 346 755 -90 1619 -90 
C 1984 -90 2381 128 2560 461 
L 2573 461 
L 2573 0 
L 3290 0 
L 3290 3309 
z
" transform="scale(0.015625)"/>
       <path id="HelveticaNeue-Medium-6c" d="M 403 0 
L 1133 0 
L 1133 4570 
L 403 4570 
L 403 0 
z
" transform="scale(0.015625)"/>
       <path id="HelveticaNeue-Medium-67" d="M 1824 576 
C 1216 576 954 1126 954 1670 
C 954 2221 1178 2822 1824 2822 
C 2458 2822 2714 2298 2714 1728 
C 2714 1165 2470 576 1824 576 
z
M 3443 3309 
L 2714 3309 
L 2714 2854 
L 2701 2854 
C 2515 3226 2138 3398 1722 3398 
C 781 3398 224 2630 224 1741 
C 224 794 659 0 1709 0 
C 2118 0 2496 218 2701 582 
L 2714 582 
L 2714 77 
C 2714 -467 2451 -768 1862 -768 
C 1491 -768 1158 -698 1069 -282 
L 339 -282 
C 403 -1056 1152 -1312 1818 -1312 
C 2861 -1312 3443 -819 3443 173 
L 3443 3309 
z
" transform="scale(0.015625)"/>
       <path id="HelveticaNeue-Medium-65" d="M 3386 1466 
C 3507 2458 2867 3398 1824 3398 
C 838 3398 224 2592 224 1651 
C 224 634 806 -90 1843 -90 
C 2566 -90 3181 314 3341 1037 
L 2650 1037 
C 2522 672 2266 486 1843 486 
C 1235 486 954 947 954 1466 
L 3386 1466 
z
M 954 1946 
C 973 2438 1318 2822 1824 2822 
C 2317 2822 2630 2406 2656 1946 
L 954 1946 
z
" transform="scale(0.015625)"/>
       <path id="HelveticaNeue-Medium-20" transform="scale(0.015625)"/>
       <path id="HelveticaNeue-Medium-6d" d="M 384 0 
L 1114 0 
L 1114 1965 
C 1114 2515 1459 2822 1837 2822 
C 2278 2822 2419 2579 2419 2125 
L 2419 0 
L 3149 0 
L 3149 1939 
C 3149 2496 3360 2822 3853 2822 
C 4422 2822 4454 2458 4454 1933 
L 4454 0 
L 5184 0 
L 5184 2285 
C 5184 3091 4774 3398 4077 3398 
C 3597 3398 3283 3187 3040 2848 
C 2893 3226 2515 3398 2112 3398 
C 1587 3398 1312 3174 1094 2848 
L 1075 2848 
L 1075 3309 
L 384 3309 
L 384 0 
z
" transform="scale(0.015625)"/>
       <path id="HelveticaNeue-Medium-61" d="M 2426 1114 
C 2426 653 1926 486 1606 486 
C 1350 486 934 582 934 909 
C 934 1293 1216 1408 1530 1459 
C 1850 1517 2202 1510 2426 1658 
L 2426 1114 
z
M 3155 2438 
C 3155 3136 2477 3398 1830 3398 
C 1101 3398 378 3149 326 2298 
L 1056 2298 
C 1088 2656 1376 2822 1786 2822 
C 2080 2822 2470 2752 2470 2374 
C 2470 1946 2003 2003 1478 1907 
C 864 1837 205 1702 205 877 
C 205 230 742 -90 1338 -90 
C 1728 -90 2195 32 2483 314 
C 2541 13 2752 -90 3046 -90 
C 3168 -90 3398 -45 3507 -6 
L 3507 499 
C 3430 486 3373 486 3328 486 
C 3194 486 3155 557 3155 736 
L 3155 2438 
z
" transform="scale(0.015625)"/>
       <path id="HelveticaNeue-Medium-73" d="M 205 1062 
C 218 282 838 -90 1670 -90 
C 2355 -90 3149 198 3149 986 
C 3149 1638 2611 1830 2080 1952 
C 1542 2074 1005 2125 1005 2483 
C 1005 2771 1395 2822 1606 2822 
C 1926 2822 2214 2726 2278 2381 
L 3040 2381 
C 2950 3117 2336 3398 1658 3398 
C 1056 3398 275 3174 275 2451 
C 275 1779 800 1587 1338 1472 
C 1869 1350 2400 1306 2419 922 
C 2438 544 1958 486 1683 486 
C 1293 486 973 640 934 1062 
L 205 1062 
z
" transform="scale(0.015625)"/>
       <path id="HelveticaNeue-Medium-5b" d="M 461 -1222 
L 1888 -1222 
L 1888 -646 
L 1152 -646 
L 1152 4102 
L 1888 4102 
L 1888 4678 
L 461 4678 
L 461 -1222 
z
" transform="scale(0.015625)"/>
       <path id="HelveticaNeue-Medium-6f" d="M 1901 486 
C 1248 486 960 1082 960 1658 
C 960 2227 1248 2822 1901 2822 
C 2554 2822 2842 2227 2842 1658 
C 2842 1082 2554 486 1901 486 
z
M 1901 -90 
C 2963 -90 3571 640 3571 1658 
C 3571 2669 2963 3398 1901 3398 
C 838 3398 230 2669 230 1658 
C 230 640 838 -90 1901 -90 
z
" transform="scale(0.015625)"/>
       <path id="HelveticaNeue-Medium-2c" d="M 442 0 
L 883 0 
C 890 -275 749 -550 467 -621 
L 467 -1011 
C 973 -909 1325 -525 1331 0 
L 1331 864 
L 442 864 
L 442 0 
z
" transform="scale(0.015625)"/>
       <path id="DejaVuSans-Oblique-4d" d="M 1081 4666 
L 2028 4666 
L 2572 1522 
L 4378 4666 
L 5350 4666 
L 4441 0 
L 3828 0 
L 4622 4091 
L 2791 897 
L 2175 897 
L 1581 4103 
L 788 0 
L 172 0 
L 1081 4666 
z
" transform="scale(0.015625)"/>
       <path id="DejaVuSans-2299" d="M 2350 2403 
L 3013 2403 
L 3013 1609 
L 2350 1609 
L 2350 2403 
z
M 3306 3522 
Q 3016 3644 2681 3644 
Q 2347 3644 2056 3522 
Q 1769 3400 1531 3163 
Q 1291 2922 1172 2634 
Q 1053 2347 1053 2006 
Q 1053 1675 1172 1387 
Q 1291 1100 1531 859 
Q 1769 622 2056 500 
Q 2347 378 2681 378 
Q 3016 378 3306 500 
Q 3594 622 3831 859 
Q 4072 1100 4190 1387 
Q 4309 1675 4309 2006 
Q 4309 2347 4190 2634 
Q 4072 2922 3831 3163 
Q 3594 3400 3306 3522 
z
M 1878 3956 
Q 2250 4113 2681 4113 
Q 3113 4113 3484 3956 
Q 3856 3800 4163 3494 
Q 4472 3184 4625 2813 
Q 4778 2444 4778 2006 
Q 4778 1578 4625 1206 
Q 4472 838 4163 528 
Q 3856 222 3484 65 
Q 3113 -91 2681 -91 
Q 2250 -91 1878 65 
Q 1506 222 1200 528 
Q 891 838 738 1206 
Q 584 1578 584 2006 
Q 584 2444 738 2813 
Q 891 3184 1200 3494 
Q 1506 3800 1878 3956 
z
" transform="scale(0.015625)"/>
       <path id="HelveticaNeue-Medium-5d" d="M 1434 4678 
L 6 4678 
L 6 4102 
L 742 4102 
L 742 -646 
L 6 -646 
L 6 -1222 
L 1434 -1222 
L 1434 4678 
z
" transform="scale(0.015625)"/>
      </defs>
      <use xlink:href="#HelveticaNeue-Medium-42" transform="translate(0 0.90625)"/>
      <use xlink:href="#HelveticaNeue-Medium-75" transform="translate(70.399994 0.90625)"/>
      <use xlink:href="#HelveticaNeue-Medium-6c" transform="translate(127.799988 0.90625)"/>
      <use xlink:href="#HelveticaNeue-Medium-67" transform="translate(151.899979 0.90625)"/>
      <use xlink:href="#HelveticaNeue-Medium-65" transform="translate(211.199966 0.90625)"/>
      <use xlink:href="#HelveticaNeue-Medium-20" transform="translate(266.799957 0.90625)"/>
      <use xlink:href="#HelveticaNeue-Medium-6d" transform="translate(294.599945 0.90625)"/>
      <use xlink:href="#HelveticaNeue-Medium-61" transform="translate(381.59993 0.90625)"/>
      <use xlink:href="#HelveticaNeue-Medium-73" transform="translate(437.199921 0.90625)"/>
      <use xlink:href="#HelveticaNeue-Medium-73" transform="translate(489.099915 0.90625)"/>
      <use xlink:href="#HelveticaNeue-Medium-20" transform="translate(540.999908 0.90625)"/>
      <use xlink:href="#HelveticaNeue-Medium-5b" transform="translate(568.799896 0.90625)"/>
      <use xlink:href="#HelveticaNeue-Medium-6c" transform="translate(598.399887 0.90625)"/>
      <use xlink:href="#HelveticaNeue-Medium-6f" transform="translate(622.499878 0.90625)"/>
      <use xlink:href="#HelveticaNeue-Medium-67" transform="translate(681.799866 0.90625)"/>
      <use xlink:href="#HelveticaNeue-Medium-2c" transform="translate(741.099854 0.90625)"/>
      <use xlink:href="#HelveticaNeue-Medium-20" transform="translate(768.899841 0.90625)"/>
      <use xlink:href="#DejaVuSans-Oblique-4d" transform="translate(796.699829 0.90625)"/>
      <use xlink:href="#DejaVuSans-2299" transform="translate(896.616821 -15.5)scale(0.7)"/>
      <use xlink:href="#HelveticaNeue-Medium-5d" transform="translate(971.641235 0.90625)"/>
     </g>
    </g>
   </g>
   <g id="matplotlib.axis_2">
    <g id="ytick_1">
     <g id="line2d_17">
      <defs>
       <path id="m3f99bcada6" d="M 1.75 0 
L -1.75 -0 
" style="stroke: #000000; stroke-width: 0.8"/>
      </defs>
      <g>
       <use xlink:href="#m3f99bcada6" x="55.459375" y="224.789731" style="stroke: #000000; stroke-width: 0.8"/>
      </g>
     </g>
     <g id="line2d_18">
      <g>
       <use xlink:href="#m3f99bcada6" x="412.579375" y="224.789731" style="stroke: #000000; stroke-width: 0.8"/>
      </g>
     </g>
     <g id="text_10">
      <!-- $\mathdefault{10^{2}}$ -->
      <g transform="translate(34.809375 228.360043)scale(0.1 -0.1)">
       <use xlink:href="#HelveticaNeue-Medium-31" transform="translate(0 0.823438)"/>
       <use xlink:href="#HelveticaNeue-Medium-30" transform="translate(55.599991 0.823438)"/>
       <use xlink:href="#HelveticaNeue-Medium-32" transform="translate(112.104786 37.015625)scale(0.7)"/>
      </g>
     </g>
    </g>
    <g id="ytick_2">
     <g id="line2d_19">
      <defs>
       <path id="m103da900d9" d="M 1 0 
L -1 -0 
" style="stroke: #000000; stroke-width: 0.6"/>
      </defs>
      <g>
       <use xlink:href="#m103da900d9" x="55.459375" y="270.011545" style="stroke: #000000; stroke-width: 0.6"/>
      </g>
     </g>
     <g id="line2d_20">
      <g>
       <use xlink:href="#m103da900d9" x="412.579375" y="270.011545" style="stroke: #000000; stroke-width: 0.6"/>
      </g>
     </g>
    </g>
    <g id="ytick_3">
     <g id="line2d_21">
      <g>
       <use xlink:href="#m103da900d9" x="55.459375" y="253.081475" style="stroke: #000000; stroke-width: 0.6"/>
      </g>
     </g>
     <g id="line2d_22">
      <g>
       <use xlink:href="#m103da900d9" x="412.579375" y="253.081475" style="stroke: #000000; stroke-width: 0.6"/>
      </g>
     </g>
    </g>
    <g id="ytick_4">
     <g id="line2d_23">
      <g>
       <use xlink:href="#m103da900d9" x="55.459375" y="238.148095" style="stroke: #000000; stroke-width: 0.6"/>
      </g>
     </g>
     <g id="line2d_24">
      <g>
       <use xlink:href="#m103da900d9" x="412.579375" y="238.148095" style="stroke: #000000; stroke-width: 0.6"/>
      </g>
     </g>
    </g>
    <g id="ytick_5">
     <g id="line2d_25">
      <g>
       <use xlink:href="#m103da900d9" x="55.459375" y="136.907547" style="stroke: #000000; stroke-width: 0.6"/>
      </g>
     </g>
     <g id="line2d_26">
      <g>
       <use xlink:href="#m103da900d9" x="412.579375" y="136.907547" style="stroke: #000000; stroke-width: 0.6"/>
      </g>
     </g>
     <g id="text_11">
      <!-- $\mathdefault{2\times10^{2}}$ -->
      <g transform="translate(20.559375 140.477859)scale(0.1 -0.1)">
       <defs>
        <path id="HelveticaNeue-Medium-d7" d="M 1466 1619 
L 352 506 
L 902 147 
L 1914 1171 
L 2938 147 
L 3488 506 
L 2368 1619 
L 3488 2733 
L 2938 3091 
L 1914 2074 
L 902 3091 
L 352 2733 
L 1466 1619 
z
" transform="scale(0.015625)"/>
       </defs>
       <use xlink:href="#HelveticaNeue-Medium-32" transform="translate(0 0.823438)"/>
       <use xlink:href="#HelveticaNeue-Medium-d7" transform="translate(72.999988 0.823438)"/>
       <use xlink:href="#HelveticaNeue-Medium-31" transform="translate(150.399969 0.823438)"/>
       <use xlink:href="#HelveticaNeue-Medium-30" transform="translate(205.99996 0.823438)"/>
       <use xlink:href="#HelveticaNeue-Medium-32" transform="translate(262.504756 37.015625)scale(0.7)"/>
      </g>
     </g>
    </g>
    <g id="ytick_6">
     <g id="line2d_27">
      <g>
       <use xlink:href="#m103da900d9" x="55.459375" y="85.499765" style="stroke: #000000; stroke-width: 0.6"/>
      </g>
     </g>
     <g id="line2d_28">
      <g>
       <use xlink:href="#m103da900d9" x="412.579375" y="85.499765" style="stroke: #000000; stroke-width: 0.6"/>
      </g>
     </g>
     <g id="text_12">
      <!-- $\mathdefault{3\times10^{2}}$ -->
      <g transform="translate(20.559375 89.070077)scale(0.1 -0.1)">
       <defs>
        <path id="HelveticaNeue-Medium-33" d="M 1459 2080 
C 2035 2106 2630 2016 2630 1318 
C 2630 806 2259 518 1773 518 
C 1203 518 909 928 928 1472 
L 198 1472 
C 218 538 736 -90 1773 -90 
C 2630 -90 3360 435 3360 1280 
C 3360 1856 3053 2298 2547 2400 
L 2547 2413 
C 2976 2566 3181 2925 3181 3373 
C 3181 4166 2464 4570 1766 4570 
C 864 4570 320 3917 282 3046 
L 1011 3046 
C 998 3507 1248 3962 1754 3962 
C 2157 3962 2451 3706 2451 3328 
C 2451 2778 1946 2605 1459 2624 
L 1459 2080 
z
" transform="scale(0.015625)"/>
       </defs>
       <use xlink:href="#HelveticaNeue-Medium-33" transform="translate(0 0.823438)"/>
       <use xlink:href="#HelveticaNeue-Medium-d7" transform="translate(72.999988 0.823438)"/>
       <use xlink:href="#HelveticaNeue-Medium-31" transform="translate(150.399969 0.823438)"/>
       <use xlink:href="#HelveticaNeue-Medium-30" transform="translate(205.99996 0.823438)"/>
       <use xlink:href="#HelveticaNeue-Medium-32" transform="translate(262.504756 37.015625)scale(0.7)"/>
      </g>
     </g>
    </g>
    <g id="ytick_7">
     <g id="line2d_29">
      <g>
       <use xlink:href="#m103da900d9" x="55.459375" y="49.025363" style="stroke: #000000; stroke-width: 0.6"/>
      </g>
     </g>
     <g id="line2d_30">
      <g>
       <use xlink:href="#m103da900d9" x="412.579375" y="49.025363" style="stroke: #000000; stroke-width: 0.6"/>
      </g>
     </g>
     <g id="text_13">
      <!-- $\mathdefault{4\times10^{2}}$ -->
      <g transform="translate(20.559375 52.595675)scale(0.1 -0.1)">
       <defs>
        <path id="HelveticaNeue-Medium-34" d="M 3341 1638 
L 2765 1638 
L 2765 4480 
L 2074 4480 
L 154 1786 
L 154 1062 
L 2074 1062 
L 2074 0 
L 2765 0 
L 2765 1062 
L 3341 1062 
L 3341 1638 
z
M 2061 3610 
L 2074 3610 
L 2074 1638 
L 717 1638 
L 2061 3610 
z
" transform="scale(0.015625)"/>
       </defs>
       <use xlink:href="#HelveticaNeue-Medium-34" transform="translate(0 0.823438)"/>
       <use xlink:href="#HelveticaNeue-Medium-d7" transform="translate(72.999988 0.823438)"/>
       <use xlink:href="#HelveticaNeue-Medium-31" transform="translate(150.399969 0.823438)"/>
       <use xlink:href="#HelveticaNeue-Medium-30" transform="translate(205.99996 0.823438)"/>
       <use xlink:href="#HelveticaNeue-Medium-32" transform="translate(262.504756 37.015625)scale(0.7)"/>
      </g>
     </g>
    </g>
    <g id="ytick_8">
     <g id="line2d_31">
      <g>
       <use xlink:href="#m103da900d9" x="55.459375" y="20.733618" style="stroke: #000000; stroke-width: 0.6"/>
      </g>
     </g>
     <g id="line2d_32">
      <g>
       <use xlink:href="#m103da900d9" x="412.579375" y="20.733618" style="stroke: #000000; stroke-width: 0.6"/>
      </g>
     </g>
    </g>
    <g id="text_14">
     <!-- Velocity dispersion [log, km/s] -->
     <g transform="translate(14.509375 211.382562)rotate(-90)scale(0.1 -0.1)">
      <defs>
       <path id="HelveticaNeue-Medium-56" d="M 1491 0 
L 2381 0 
L 3942 4570 
L 3130 4570 
L 1958 954 
L 1946 954 
L 800 4570 
L -32 4570 
L 1491 0 
z
" transform="scale(0.015625)"/>
       <path id="HelveticaNeue-Medium-63" d="M 3347 2202 
C 3277 3014 2624 3398 1856 3398 
C 768 3398 224 2618 224 1619 
C 224 646 794 -90 1830 -90 
C 2682 -90 3213 384 3347 1242 
L 2618 1242 
C 2547 768 2253 486 1830 486 
C 1197 486 954 1069 954 1619 
C 954 2624 1485 2822 1862 2822 
C 2266 2822 2560 2605 2618 2202 
L 3347 2202 
z
" transform="scale(0.015625)"/>
       <path id="HelveticaNeue-Medium-69" d="M 403 0 
L 1133 0 
L 1133 3309 
L 403 3309 
L 403 0 
z
M 403 3878 
L 1133 3878 
L 1133 4570 
L 403 4570 
L 403 3878 
z
" transform="scale(0.015625)"/>
       <path id="HelveticaNeue-Medium-74" d="M 51 2765 
L 602 2765 
L 602 813 
C 614 262 755 -32 1517 -32 
C 1677 -32 1830 -6 1990 6 
L 1990 570 
C 1888 544 1786 544 1683 544 
C 1357 544 1331 698 1331 998 
L 1331 2765 
L 1990 2765 
L 1990 3309 
L 1331 3309 
L 1331 4301 
L 602 4301 
L 602 3309 
L 51 3309 
L 51 2765 
z
" transform="scale(0.015625)"/>
       <path id="HelveticaNeue-Medium-79" d="M 1274 13 
L 1190 -243 
C 1101 -525 1018 -704 678 -704 
C 563 -704 448 -678 333 -659 
L 333 -1274 
C 499 -1299 666 -1312 838 -1312 
C 1600 -1312 1773 -774 2010 -179 
L 3296 3309 
L 2534 3309 
L 1696 838 
L 1683 838 
L 819 3309 
L 19 3309 
L 1274 13 
z
" transform="scale(0.015625)"/>
       <path id="HelveticaNeue-Medium-64" d="M 954 1619 
C 954 2214 1197 2822 1882 2822 
C 2445 2822 2797 2387 2797 1658 
C 2797 1082 2522 486 1869 486 
C 1235 486 954 1050 954 1619 
z
M 3501 4570 
L 2771 4570 
L 2771 2880 
L 2758 2880 
C 2534 3245 2074 3398 1658 3398 
C 934 3398 224 2874 224 1677 
C 224 685 730 -90 1773 -90 
C 2189 -90 2605 70 2797 448 
L 2810 448 
L 2810 0 
L 3501 0 
L 3501 4570 
z
" transform="scale(0.015625)"/>
       <path id="HelveticaNeue-Medium-70" d="M 2950 1651 
C 2950 1075 2701 486 2035 486 
C 1446 486 1107 986 1107 1651 
C 1107 2355 1421 2822 2035 2822 
C 2637 2822 2950 2253 2950 1651 
z
M 403 -1222 
L 1133 -1222 
L 1133 429 
L 1146 429 
C 1376 64 1830 -90 2253 -90 
C 3232 -90 3680 749 3680 1638 
C 3680 2605 3174 3398 2131 3398 
C 1709 3398 1312 3238 1107 2861 
L 1094 2861 
L 1094 3309 
L 403 3309 
L 403 -1222 
z
" transform="scale(0.015625)"/>
       <path id="HelveticaNeue-Medium-72" d="M 384 0 
L 1114 0 
L 1114 1574 
C 1114 2304 1510 2707 2010 2707 
C 2112 2707 2221 2688 2323 2675 
L 2323 3379 
C 2259 3386 2214 3398 2048 3398 
C 1600 3398 1165 3021 1082 2669 
L 1069 2669 
L 1069 3309 
L 384 3309 
L 384 0 
z
" transform="scale(0.015625)"/>
       <path id="HelveticaNeue-Medium-6e" d="M 384 0 
L 1114 0 
L 1114 1952 
C 1114 2438 1427 2822 1914 2822 
C 2342 2822 2547 2598 2560 2080 
L 2560 0 
L 3290 0 
L 3290 2272 
C 3290 3014 2835 3398 2118 3398 
C 1683 3398 1306 3174 1088 2810 
L 1075 2822 
L 1075 3309 
L 384 3309 
L 384 0 
z
" transform="scale(0.015625)"/>
       <path id="HelveticaNeue-Medium-6b" d="M 403 0 
L 1133 0 
L 1133 1184 
L 1568 1606 
L 2579 0 
L 3469 0 
L 2080 2093 
L 3347 3309 
L 2451 3309 
L 1133 1971 
L 1133 4570 
L 403 4570 
L 403 0 
z
" transform="scale(0.015625)"/>
       <path id="HelveticaNeue-Medium-2f" d="M -141 -109 
L 557 -109 
L 2394 4678 
L 1696 4678 
L -141 -109 
z
" transform="scale(0.015625)"/>
      </defs>
      <use xlink:href="#HelveticaNeue-Medium-56"/>
      <use xlink:href="#HelveticaNeue-Medium-65" x="61.099991"/>
      <use xlink:href="#HelveticaNeue-Medium-6c" x="116.699982"/>
      <use xlink:href="#HelveticaNeue-Medium-6f" x="140.799973"/>
      <use xlink:href="#HelveticaNeue-Medium-63" x="200.09996"/>
      <use xlink:href="#HelveticaNeue-Medium-69" x="255.699951"/>
      <use xlink:href="#HelveticaNeue-Medium-74" x="279.799942"/>
      <use xlink:href="#HelveticaNeue-Medium-79" x="313.09993"/>
      <use xlink:href="#HelveticaNeue-Medium-20" x="364.999924"/>
      <use xlink:href="#HelveticaNeue-Medium-64" x="392.799911"/>
      <use xlink:href="#HelveticaNeue-Medium-69" x="453.899902"/>
      <use xlink:href="#HelveticaNeue-Medium-73" x="477.999893"/>
      <use xlink:href="#HelveticaNeue-Medium-70" x="529.899887"/>
      <use xlink:href="#HelveticaNeue-Medium-65" x="590.999878"/>
      <use xlink:href="#HelveticaNeue-Medium-72" x="646.599869"/>
      <use xlink:href="#HelveticaNeue-Medium-73" x="681.799866"/>
      <use xlink:href="#HelveticaNeue-Medium-69" x="733.69986"/>
      <use xlink:href="#HelveticaNeue-Medium-6f" x="757.79985"/>
      <use xlink:href="#HelveticaNeue-Medium-6e" x="817.099838"/>
      <use xlink:href="#HelveticaNeue-Medium-20" x="874.499832"/>
      <use xlink:href="#HelveticaNeue-Medium-5b" x="902.29982"/>
      <use xlink:href="#HelveticaNeue-Medium-6c" x="931.899811"/>
      <use xlink:href="#HelveticaNeue-Medium-6f" x="955.999802"/>
      <use xlink:href="#HelveticaNeue-Medium-67" x="1015.299789"/>
      <use xlink:href="#HelveticaNeue-Medium-2c" x="1074.599777"/>
      <use xlink:href="#HelveticaNeue-Medium-20" x="1102.399765"/>
      <use xlink:href="#HelveticaNeue-Medium-6b" x="1130.199753"/>
      <use xlink:href="#HelveticaNeue-Medium-6d" x="1183.89975"/>
      <use xlink:href="#HelveticaNeue-Medium-2f" x="1270.899734"/>
      <use xlink:href="#HelveticaNeue-Medium-73" x="1306.099731"/>
      <use xlink:href="#HelveticaNeue-Medium-5d" x="1357.999725"/>
     </g>
    </g>
   </g>
   <g id="LineCollection_1">
    <path d="M 71.692102 257.927435 
L 89.982499 257.927435 
" clip-path="url(#p5cfac54cba)" style="fill: none; stroke: #ffa500; stroke-width: 1.5"/>
    <path d="M 327.757659 121.411916 
L 344.219016 121.411916 
" clip-path="url(#p5cfac54cba)" style="fill: none; stroke: #ffa500; stroke-width: 1.5"/>
    <path d="M 275.630028 74.1864 
L 292.091385 74.1864 
" clip-path="url(#p5cfac54cba)" style="fill: none; stroke: #ffa500; stroke-width: 1.5"/>
    <path d="M 218.929798 159.770264 
L 235.391155 159.770264 
" clip-path="url(#p5cfac54cba)" style="fill: none; stroke: #ffa500; stroke-width: 1.5"/>
    <path d="M 296.663984 79.313797 
L 313.125342 79.313797 
" clip-path="url(#p5cfac54cba)" style="fill: none; stroke: #ffa500; stroke-width: 1.5"/>
    <path d="M 318.612461 96.071485 
L 335.073818 96.071485 
" clip-path="url(#p5cfac54cba)" style="fill: none; stroke: #ffa500; stroke-width: 1.5"/>
    <path d="M 281.117147 98.858128 
L 297.578504 98.858128 
" clip-path="url(#p5cfac54cba)" style="fill: none; stroke: #ffa500; stroke-width: 1.5"/>
    <path d="M 183.263524 153.837617 
L 199.724881 153.837617 
" clip-path="url(#p5cfac54cba)" style="fill: none; stroke: #ffa500; stroke-width: 1.5"/>
    <path d="M 256.425111 160.531751 
L 272.886468 160.531751 
" clip-path="url(#p5cfac54cba)" style="fill: none; stroke: #ffa500; stroke-width: 1.5"/>
    <path d="M 306.723703 86.774018 
L 323.18506 86.774018 
" clip-path="url(#p5cfac54cba)" style="fill: none; stroke: #ffa500; stroke-width: 1.5"/>
    <path d="M 205.212 177.680231 
L 221.673357 177.680231 
" clip-path="url(#p5cfac54cba)" style="fill: none; stroke: #ffa500; stroke-width: 1.5"/>
    <path d="M 242.707314 133.159869 
L 259.168671 133.159869 
" clip-path="url(#p5cfac54cba)" style="fill: none; stroke: #ffa500; stroke-width: 1.5"/>
    <path d="M 274.715508 119.739973 
L 291.176865 119.739973 
" clip-path="url(#p5cfac54cba)" style="fill: none; stroke: #ffa500; stroke-width: 1.5"/>
    <path d="M 251.852512 148.864933 
L 268.313869 148.864933 
" clip-path="url(#p5cfac54cba)" style="fill: none; stroke: #ffa500; stroke-width: 1.5"/>
    <path d="M 321.35602 98.858128 
L 337.817378 98.858128 
" clip-path="url(#p5cfac54cba)" style="fill: none; stroke: #ffa500; stroke-width: 1.5"/>
    <path d="M 310.381782 79.313797 
L 326.843139 79.313797 
" clip-path="url(#p5cfac54cba)" style="fill: none; stroke: #ffa500; stroke-width: 1.5"/>
    <path d="M 237.220194 112.739327 
L 253.681552 112.739327 
" clip-path="url(#p5cfac54cba)" style="fill: none; stroke: #ffa500; stroke-width: 1.5"/>
    <path d="M 307.638223 87.201632 
L 324.09958 87.201632 
" clip-path="url(#p5cfac54cba)" style="fill: none; stroke: #ffa500; stroke-width: 1.5"/>
    <path d="M 297.578504 148.864933 
L 314.039862 148.864933 
" clip-path="url(#p5cfac54cba)" style="fill: none; stroke: #ffa500; stroke-width: 1.5"/>
    <path d="M 239.963754 159.770264 
L 256.425111 159.770264 
" clip-path="url(#p5cfac54cba)" style="fill: none; stroke: #ffa500; stroke-width: 1.5"/>
    <path d="M 327.757659 85.499765 
L 344.219016 85.499765 
" clip-path="url(#p5cfac54cba)" style="fill: none; stroke: #ffa500; stroke-width: 1.5"/>
    <path d="M 237.220194 143.41088 
L 253.681552 143.41088 
" clip-path="url(#p5cfac54cba)" style="fill: none; stroke: #ffa500; stroke-width: 1.5"/>
    <path d="M 316.783421 75.74209 
L 333.244778 75.74209 
" clip-path="url(#p5cfac54cba)" style="fill: none; stroke: #ffa500; stroke-width: 1.5"/>
    <path d="M 125.648773 146.792072 
L 143.93917 146.792072 
" clip-path="url(#p5cfac54cba)" style="fill: none; stroke: #ffa500; stroke-width: 1.5"/>
    <path d="M 309.467262 55.528695 
L 325.92862 55.528695 
" clip-path="url(#p5cfac54cba)" style="fill: none; stroke: #ffa500; stroke-width: 1.5"/>
    <path d="M 248.194433 152.396838 
L 264.65579 152.396838 
" clip-path="url(#p5cfac54cba)" style="fill: none; stroke: #ffa500; stroke-width: 1.5"/>
    <path d="M 265.57031 64.157003 
L 282.031667 64.157003 
" clip-path="url(#p5cfac54cba)" style="fill: none; stroke: #ffa500; stroke-width: 1.5"/>
    <path d="M 350.620655 67.046864 
L 367.082013 67.046864 
" clip-path="url(#p5cfac54cba)" style="fill: none; stroke: #ffa500; stroke-width: 1.5"/>
    <path d="M 276.544548 123.676034 
L 293.005905 123.676034 
" clip-path="url(#p5cfac54cba)" style="fill: none; stroke: #ffa500; stroke-width: 1.5"/>
    <path d="M 255.510591 173.381949 
L 271.971949 173.381949 
" clip-path="url(#p5cfac54cba)" style="fill: none; stroke: #ffa500; stroke-width: 1.5"/>
    <path d="M 310.381782 72.268251 
L 326.843139 72.268251 
" clip-path="url(#p5cfac54cba)" style="fill: none; stroke: #ffa500; stroke-width: 1.5"/>
    <path d="M 305.809183 74.1864 
L 322.27054 74.1864 
" clip-path="url(#p5cfac54cba)" style="fill: none; stroke: #ffa500; stroke-width: 1.5"/>
    <path d="M 250.937992 148.170207 
L 267.399349 148.170207 
" clip-path="url(#p5cfac54cba)" style="fill: none; stroke: #ffa500; stroke-width: 1.5"/>
    <path d="M 211.613639 114.320892 
L 228.074996 114.320892 
" clip-path="url(#p5cfac54cba)" style="fill: none; stroke: #ffa500; stroke-width: 1.5"/>
    <path d="M 314.039862 78.112013 
L 330.501219 78.112013 
" clip-path="url(#p5cfac54cba)" style="fill: none; stroke: #ffa500; stroke-width: 1.5"/>
    <path d="M 273.800988 52.560849 
L 290.262346 52.560849 
" clip-path="url(#p5cfac54cba)" style="fill: none; stroke: #ffa500; stroke-width: 1.5"/>
    <path d="M 305.809183 100.75051 
L 324.09958 100.75051 
" clip-path="url(#p5cfac54cba)" style="fill: none; stroke: #ffa500; stroke-width: 1.5"/>
    <path d="M 310.381782 88.926654 
L 326.843139 88.926654 
" clip-path="url(#p5cfac54cba)" style="fill: none; stroke: #ffa500; stroke-width: 1.5"/>
    <path d="M 319.526981 105.114553 
L 335.988338 105.114553 
" clip-path="url(#p5cfac54cba)" style="fill: none; stroke: #ffa500; stroke-width: 1.5"/>
    <path d="M 305.809183 73.032032 
L 322.27054 73.032032 
" clip-path="url(#p5cfac54cba)" style="fill: none; stroke: #ffa500; stroke-width: 1.5"/>
    <path d="M 324.09958 90.675471 
L 342.389977 90.675471 
" clip-path="url(#p5cfac54cba)" style="fill: none; stroke: #ffa500; stroke-width: 1.5"/>
    <path d="M 322.27054 76.527153 
L 338.731897 76.527153 
" clip-path="url(#p5cfac54cba)" style="fill: none; stroke: #ffa500; stroke-width: 1.5"/>
   </g>
   <g id="LineCollection_2">
    <path d="M 80.837301 262.966 
L 80.837301 253.081475 
" clip-path="url(#p5cfac54cba)" style="fill: none; stroke: #ffa500; stroke-width: 1.5"/>
    <path d="M 335.988338 126.564249 
L 335.988338 116.460811 
" clip-path="url(#p5cfac54cba)" style="fill: none; stroke: #ffa500; stroke-width: 1.5"/>
    <path d="M 283.860707 77.713937 
L 283.860707 70.754356 
" clip-path="url(#p5cfac54cba)" style="fill: none; stroke: #ffa500; stroke-width: 1.5"/>
    <path d="M 227.160476 162.068584 
L 227.160476 157.512865 
" clip-path="url(#p5cfac54cba)" style="fill: none; stroke: #ffa500; stroke-width: 1.5"/>
    <path d="M 304.894663 80.527081 
L 304.894663 78.112013 
" clip-path="url(#p5cfac54cba)" style="fill: none; stroke: #ffa500; stroke-width: 1.5"/>
    <path d="M 326.843139 96.993577 
L 326.843139 95.15605 
" clip-path="url(#p5cfac54cba)" style="fill: none; stroke: #ffa500; stroke-width: 1.5"/>
    <path d="M 289.347826 103.643119 
L 289.347826 94.247177 
" clip-path="url(#p5cfac54cba)" style="fill: none; stroke: #ffa500; stroke-width: 1.5"/>
    <path d="M 191.494202 159.770264 
L 191.494202 148.170207 
" clip-path="url(#p5cfac54cba)" style="fill: none; stroke: #ffa500; stroke-width: 1.5"/>
    <path d="M 264.65579 173.381949 
L 264.65579 148.864933 
" clip-path="url(#p5cfac54cba)" style="fill: none; stroke: #ffa500; stroke-width: 1.5"/>
    <path d="M 314.954381 92.003097 
L 314.954381 81.752087 
" clip-path="url(#p5cfac54cba)" style="fill: none; stroke: #ffa500; stroke-width: 1.5"/>
    <path d="M 213.442678 183.953669 
L 213.442678 171.702624 
" clip-path="url(#p5cfac54cba)" style="fill: none; stroke: #ffa500; stroke-width: 1.5"/>
    <path d="M 250.937992 139.468991 
L 250.937992 127.149873 
" clip-path="url(#p5cfac54cba)" style="fill: none; stroke: #ffa500; stroke-width: 1.5"/>
    <path d="M 282.946187 125.981319 
L 282.946187 113.791509 
" clip-path="url(#p5cfac54cba)" style="fill: none; stroke: #ffa500; stroke-width: 1.5"/>
    <path d="M 260.083191 155.294957 
L 260.083191 142.745328 
" clip-path="url(#p5cfac54cba)" style="fill: none; stroke: #ffa500; stroke-width: 1.5"/>
    <path d="M 329.586699 112.216492 
L 329.586699 86.774018 
" clip-path="url(#p5cfac54cba)" style="fill: none; stroke: #ffa500; stroke-width: 1.5"/>
    <path d="M 318.612461 85.499765 
L 318.612461 73.415655 
" clip-path="url(#p5cfac54cba)" style="fill: none; stroke: #ffa500; stroke-width: 1.5"/>
    <path d="M 245.450873 119.187523 
L 245.450873 106.603265 
" clip-path="url(#p5cfac54cba)" style="fill: none; stroke: #ffa500; stroke-width: 1.5"/>
    <path d="M 315.868901 93.344773 
L 315.868901 81.342435 
" clip-path="url(#p5cfac54cba)" style="fill: none; stroke: #ffa500; stroke-width: 1.5"/>
    <path d="M 305.809183 152.396838 
L 305.809183 145.428755 
" clip-path="url(#p5cfac54cba)" style="fill: none; stroke: #ffa500; stroke-width: 1.5"/>
    <path d="M 248.194433 165.994198 
L 248.194433 153.837617 
" clip-path="url(#p5cfac54cba)" style="fill: none; stroke: #ffa500; stroke-width: 1.5"/>
    <path d="M 335.988338 88.493193 
L 335.988338 82.575383 
" clip-path="url(#p5cfac54cba)" style="fill: none; stroke: #ffa500; stroke-width: 1.5"/>
    <path d="M 245.450873 149.563487 
L 245.450873 137.543073 
" clip-path="url(#p5cfac54cba)" style="fill: none; stroke: #ffa500; stroke-width: 1.5"/>
    <path d="M 325.0141 87.201632 
L 325.0141 65.232997 
" clip-path="url(#p5cfac54cba)" style="fill: none; stroke: #ffa500; stroke-width: 1.5"/>
    <path d="M 134.793972 153.115181 
L 134.793972 140.769384 
" clip-path="url(#p5cfac54cba)" style="fill: none; stroke: #ffa500; stroke-width: 1.5"/>
    <path d="M 317.697941 62.032028 
L 317.697941 49.342727 
" clip-path="url(#p5cfac54cba)" style="fill: none; stroke: #ffa500; stroke-width: 1.5"/>
    <path d="M 256.425111 158.260875 
L 256.425111 146.792072 
" clip-path="url(#p5cfac54cba)" style="fill: none; stroke: #ffa500; stroke-width: 1.5"/>
    <path d="M 273.800988 69.258325 
L 273.800988 59.253019 
" clip-path="url(#p5cfac54cba)" style="fill: none; stroke: #ffa500; stroke-width: 1.5"/>
    <path d="M 358.851334 68.887059 
L 358.851334 65.232997 
" clip-path="url(#p5cfac54cba)" style="fill: none; stroke: #ffa500; stroke-width: 1.5"/>
    <path d="M 284.775226 130.119263 
L 284.775226 117.544469 
" clip-path="url(#p5cfac54cba)" style="fill: none; stroke: #ffa500; stroke-width: 1.5"/>
    <path d="M 263.74127 179.441193 
L 263.74127 167.59912 
" clip-path="url(#p5cfac54cba)" style="fill: none; stroke: #ffa500; stroke-width: 1.5"/>
    <path d="M 318.612461 73.032032 
L 318.612461 71.509044 
" clip-path="url(#p5cfac54cba)" style="fill: none; stroke: #ffa500; stroke-width: 1.5"/>
    <path d="M 314.039862 78.511343 
L 314.039862 70.004134 
" clip-path="url(#p5cfac54cba)" style="fill: none; stroke: #ffa500; stroke-width: 1.5"/>
    <path d="M 259.168671 154.564193 
L 259.168671 142.083253 
" clip-path="url(#p5cfac54cba)" style="fill: none; stroke: #ffa500; stroke-width: 1.5"/>
    <path d="M 219.844317 120.294841 
L 219.844317 108.615803 
" clip-path="url(#p5cfac54cba)" style="fill: none; stroke: #ffa500; stroke-width: 1.5"/>
    <path d="M 322.27054 78.911935 
L 322.27054 77.317107 
" clip-path="url(#p5cfac54cba)" style="fill: none; stroke: #ffa500; stroke-width: 1.5"/>
    <path d="M 282.031667 53.542432 
L 282.031667 51.586807 
" clip-path="url(#p5cfac54cba)" style="fill: none; stroke: #ffa500; stroke-width: 1.5"/>
    <path d="M 314.954381 107.103413 
L 314.954381 94.700799 
" clip-path="url(#p5cfac54cba)" style="fill: none; stroke: #ffa500; stroke-width: 1.5"/>
    <path d="M 318.612461 91.11647 
L 318.612461 86.774018 
" clip-path="url(#p5cfac54cba)" style="fill: none; stroke: #ffa500; stroke-width: 1.5"/>
    <path d="M 327.757659 118.637469 
L 327.757659 92.895969 
" clip-path="url(#p5cfac54cba)" style="fill: none; stroke: #ffa500; stroke-width: 1.5"/>
    <path d="M 314.039862 74.961859 
L 314.039862 71.131139 
" clip-path="url(#p5cfac54cba)" style="fill: none; stroke: #ffa500; stroke-width: 1.5"/>
    <path d="M 333.244778 96.993577 
L 333.244778 84.657322 
" clip-path="url(#p5cfac54cba)" style="fill: none; stroke: #ffa500; stroke-width: 1.5"/>
    <path d="M 330.501219 82.989045 
L 330.501219 70.37869 
" clip-path="url(#p5cfac54cba)" style="fill: none; stroke: #ffa500; stroke-width: 1.5"/>
   </g>
   <g id="line2d_33">
    <defs>
     <path id="md0cec30570" d="M 0 2 
L 0 -2 
" style="stroke: #ffa500"/>
    </defs>
    <g clip-path="url(#p5cfac54cba)">
     <use xlink:href="#md0cec30570" x="71.692102" y="257.927435" style="fill: #ffa500; stroke: #ffa500"/>
     <use xlink:href="#md0cec30570" x="327.757659" y="121.411916" style="fill: #ffa500; stroke: #ffa500"/>
     <use xlink:href="#md0cec30570" x="275.630028" y="74.1864" style="fill: #ffa500; stroke: #ffa500"/>
     <use xlink:href="#md0cec30570" x="218.929798" y="159.770264" style="fill: #ffa500; stroke: #ffa500"/>
     <use xlink:href="#md0cec30570" x="296.663984" y="79.313797" style="fill: #ffa500; stroke: #ffa500"/>
     <use xlink:href="#md0cec30570" x="318.612461" y="96.071485" style="fill: #ffa500; stroke: #ffa500"/>
     <use xlink:href="#md0cec30570" x="281.117147" y="98.858128" style="fill: #ffa500; stroke: #ffa500"/>
     <use xlink:href="#md0cec30570" x="183.263524" y="153.837617" style="fill: #ffa500; stroke: #ffa500"/>
     <use xlink:href="#md0cec30570" x="256.425111" y="160.531751" style="fill: #ffa500; stroke: #ffa500"/>
     <use xlink:href="#md0cec30570" x="306.723703" y="86.774018" style="fill: #ffa500; stroke: #ffa500"/>
     <use xlink:href="#md0cec30570" x="205.212" y="177.680231" style="fill: #ffa500; stroke: #ffa500"/>
     <use xlink:href="#md0cec30570" x="242.707314" y="133.159869" style="fill: #ffa500; stroke: #ffa500"/>
     <use xlink:href="#md0cec30570" x="274.715508" y="119.739973" style="fill: #ffa500; stroke: #ffa500"/>
     <use xlink:href="#md0cec30570" x="251.852512" y="148.864933" style="fill: #ffa500; stroke: #ffa500"/>
     <use xlink:href="#md0cec30570" x="321.35602" y="98.858128" style="fill: #ffa500; stroke: #ffa500"/>
     <use xlink:href="#md0cec30570" x="310.381782" y="79.313797" style="fill: #ffa500; stroke: #ffa500"/>
     <use xlink:href="#md0cec30570" x="237.220194" y="112.739327" style="fill: #ffa500; stroke: #ffa500"/>
     <use xlink:href="#md0cec30570" x="307.638223" y="87.201632" style="fill: #ffa500; stroke: #ffa500"/>
     <use xlink:href="#md0cec30570" x="297.578504" y="148.864933" style="fill: #ffa500; stroke: #ffa500"/>
     <use xlink:href="#md0cec30570" x="239.963754" y="159.770264" style="fill: #ffa500; stroke: #ffa500"/>
     <use xlink:href="#md0cec30570" x="327.757659" y="85.499765" style="fill: #ffa500; stroke: #ffa500"/>
     <use xlink:href="#md0cec30570" x="237.220194" y="143.41088" style="fill: #ffa500; stroke: #ffa500"/>
     <use xlink:href="#md0cec30570" x="316.783421" y="75.74209" style="fill: #ffa500; stroke: #ffa500"/>
     <use xlink:href="#md0cec30570" x="125.648773" y="146.792072" style="fill: #ffa500; stroke: #ffa500"/>
     <use xlink:href="#md0cec30570" x="309.467262" y="55.528695" style="fill: #ffa500; stroke: #ffa500"/>
     <use xlink:href="#md0cec30570" x="248.194433" y="152.396838" style="fill: #ffa500; stroke: #ffa500"/>
     <use xlink:href="#md0cec30570" x="265.57031" y="64.157003" style="fill: #ffa500; stroke: #ffa500"/>
     <use xlink:href="#md0cec30570" x="350.620655" y="67.046864" style="fill: #ffa500; stroke: #ffa500"/>
     <use xlink:href="#md0cec30570" x="276.544548" y="123.676034" style="fill: #ffa500; stroke: #ffa500"/>
     <use xlink:href="#md0cec30570" x="255.510591" y="173.381949" style="fill: #ffa500; stroke: #ffa500"/>
     <use xlink:href="#md0cec30570" x="310.381782" y="72.268251" style="fill: #ffa500; stroke: #ffa500"/>
     <use xlink:href="#md0cec30570" x="305.809183" y="74.1864" style="fill: #ffa500; stroke: #ffa500"/>
     <use xlink:href="#md0cec30570" x="250.937992" y="148.170207" style="fill: #ffa500; stroke: #ffa500"/>
     <use xlink:href="#md0cec30570" x="211.613639" y="114.320892" style="fill: #ffa500; stroke: #ffa500"/>
     <use xlink:href="#md0cec30570" x="314.039862" y="78.112013" style="fill: #ffa500; stroke: #ffa500"/>
     <use xlink:href="#md0cec30570" x="273.800988" y="52.560849" style="fill: #ffa500; stroke: #ffa500"/>
     <use xlink:href="#md0cec30570" x="305.809183" y="100.75051" style="fill: #ffa500; stroke: #ffa500"/>
     <use xlink:href="#md0cec30570" x="310.381782" y="88.926654" style="fill: #ffa500; stroke: #ffa500"/>
     <use xlink:href="#md0cec30570" x="319.526981" y="105.114553" style="fill: #ffa500; stroke: #ffa500"/>
     <use xlink:href="#md0cec30570" x="305.809183" y="73.032032" style="fill: #ffa500; stroke: #ffa500"/>
     <use xlink:href="#md0cec30570" x="324.09958" y="90.675471" style="fill: #ffa500; stroke: #ffa500"/>
     <use xlink:href="#md0cec30570" x="322.27054" y="76.527153" style="fill: #ffa500; stroke: #ffa500"/>
    </g>
   </g>
   <g id="line2d_34">
    <g clip-path="url(#p5cfac54cba)">
     <use xlink:href="#md0cec30570" x="89.982499" y="257.927435" style="fill: #ffa500; stroke: #ffa500"/>
     <use xlink:href="#md0cec30570" x="344.219016" y="121.411916" style="fill: #ffa500; stroke: #ffa500"/>
     <use xlink:href="#md0cec30570" x="292.091385" y="74.1864" style="fill: #ffa500; stroke: #ffa500"/>
     <use xlink:href="#md0cec30570" x="235.391155" y="159.770264" style="fill: #ffa500; stroke: #ffa500"/>
     <use xlink:href="#md0cec30570" x="313.125342" y="79.313797" style="fill: #ffa500; stroke: #ffa500"/>
     <use xlink:href="#md0cec30570" x="335.073818" y="96.071485" style="fill: #ffa500; stroke: #ffa500"/>
     <use xlink:href="#md0cec30570" x="297.578504" y="98.858128" style="fill: #ffa500; stroke: #ffa500"/>
     <use xlink:href="#md0cec30570" x="199.724881" y="153.837617" style="fill: #ffa500; stroke: #ffa500"/>
     <use xlink:href="#md0cec30570" x="272.886468" y="160.531751" style="fill: #ffa500; stroke: #ffa500"/>
     <use xlink:href="#md0cec30570" x="323.18506" y="86.774018" style="fill: #ffa500; stroke: #ffa500"/>
     <use xlink:href="#md0cec30570" x="221.673357" y="177.680231" style="fill: #ffa500; stroke: #ffa500"/>
     <use xlink:href="#md0cec30570" x="259.168671" y="133.159869" style="fill: #ffa500; stroke: #ffa500"/>
     <use xlink:href="#md0cec30570" x="291.176865" y="119.739973" style="fill: #ffa500; stroke: #ffa500"/>
     <use xlink:href="#md0cec30570" x="268.313869" y="148.864933" style="fill: #ffa500; stroke: #ffa500"/>
     <use xlink:href="#md0cec30570" x="337.817378" y="98.858128" style="fill: #ffa500; stroke: #ffa500"/>
     <use xlink:href="#md0cec30570" x="326.843139" y="79.313797" style="fill: #ffa500; stroke: #ffa500"/>
     <use xlink:href="#md0cec30570" x="253.681552" y="112.739327" style="fill: #ffa500; stroke: #ffa500"/>
     <use xlink:href="#md0cec30570" x="324.09958" y="87.201632" style="fill: #ffa500; stroke: #ffa500"/>
     <use xlink:href="#md0cec30570" x="314.039862" y="148.864933" style="fill: #ffa500; stroke: #ffa500"/>
     <use xlink:href="#md0cec30570" x="256.425111" y="159.770264" style="fill: #ffa500; stroke: #ffa500"/>
     <use xlink:href="#md0cec30570" x="344.219016" y="85.499765" style="fill: #ffa500; stroke: #ffa500"/>
     <use xlink:href="#md0cec30570" x="253.681552" y="143.41088" style="fill: #ffa500; stroke: #ffa500"/>
     <use xlink:href="#md0cec30570" x="333.244778" y="75.74209" style="fill: #ffa500; stroke: #ffa500"/>
     <use xlink:href="#md0cec30570" x="143.93917" y="146.792072" style="fill: #ffa500; stroke: #ffa500"/>
     <use xlink:href="#md0cec30570" x="325.92862" y="55.528695" style="fill: #ffa500; stroke: #ffa500"/>
     <use xlink:href="#md0cec30570" x="264.65579" y="152.396838" style="fill: #ffa500; stroke: #ffa500"/>
     <use xlink:href="#md0cec30570" x="282.031667" y="64.157003" style="fill: #ffa500; stroke: #ffa500"/>
     <use xlink:href="#md0cec30570" x="367.082013" y="67.046864" style="fill: #ffa500; stroke: #ffa500"/>
     <use xlink:href="#md0cec30570" x="293.005905" y="123.676034" style="fill: #ffa500; stroke: #ffa500"/>
     <use xlink:href="#md0cec30570" x="271.971949" y="173.381949" style="fill: #ffa500; stroke: #ffa500"/>
     <use xlink:href="#md0cec30570" x="326.843139" y="72.268251" style="fill: #ffa500; stroke: #ffa500"/>
     <use xlink:href="#md0cec30570" x="322.27054" y="74.1864" style="fill: #ffa500; stroke: #ffa500"/>
     <use xlink:href="#md0cec30570" x="267.399349" y="148.170207" style="fill: #ffa500; stroke: #ffa500"/>
     <use xlink:href="#md0cec30570" x="228.074996" y="114.320892" style="fill: #ffa500; stroke: #ffa500"/>
     <use xlink:href="#md0cec30570" x="330.501219" y="78.112013" style="fill: #ffa500; stroke: #ffa500"/>
     <use xlink:href="#md0cec30570" x="290.262346" y="52.560849" style="fill: #ffa500; stroke: #ffa500"/>
     <use xlink:href="#md0cec30570" x="324.09958" y="100.75051" style="fill: #ffa500; stroke: #ffa500"/>
     <use xlink:href="#md0cec30570" x="326.843139" y="88.926654" style="fill: #ffa500; stroke: #ffa500"/>
     <use xlink:href="#md0cec30570" x="335.988338" y="105.114553" style="fill: #ffa500; stroke: #ffa500"/>
     <use xlink:href="#md0cec30570" x="322.27054" y="73.032032" style="fill: #ffa500; stroke: #ffa500"/>
     <use xlink:href="#md0cec30570" x="342.389977" y="90.675471" style="fill: #ffa500; stroke: #ffa500"/>
     <use xlink:href="#md0cec30570" x="338.731897" y="76.527153" style="fill: #ffa500; stroke: #ffa500"/>
    </g>
   </g>
   <g id="line2d_35">
    <defs>
     <path id="mf5f1d1dd09" d="M 2 0 
L -2 -0 
" style="stroke: #ffa500"/>
    </defs>
    <g clip-path="url(#p5cfac54cba)">
     <use xlink:href="#mf5f1d1dd09" x="80.837301" y="262.966" style="fill: #ffa500; stroke: #ffa500"/>
     <use xlink:href="#mf5f1d1dd09" x="335.988338" y="126.564249" style="fill: #ffa500; stroke: #ffa500"/>
     <use xlink:href="#mf5f1d1dd09" x="283.860707" y="77.713937" style="fill: #ffa500; stroke: #ffa500"/>
     <use xlink:href="#mf5f1d1dd09" x="227.160476" y="162.068584" style="fill: #ffa500; stroke: #ffa500"/>
     <use xlink:href="#mf5f1d1dd09" x="304.894663" y="80.527081" style="fill: #ffa500; stroke: #ffa500"/>
     <use xlink:href="#mf5f1d1dd09" x="326.843139" y="96.993577" style="fill: #ffa500; stroke: #ffa500"/>
     <use xlink:href="#mf5f1d1dd09" x="289.347826" y="103.643119" style="fill: #ffa500; stroke: #ffa500"/>
     <use xlink:href="#mf5f1d1dd09" x="191.494202" y="159.770264" style="fill: #ffa500; stroke: #ffa500"/>
     <use xlink:href="#mf5f1d1dd09" x="264.65579" y="173.381949" style="fill: #ffa500; stroke: #ffa500"/>
     <use xlink:href="#mf5f1d1dd09" x="314.954381" y="92.003097" style="fill: #ffa500; stroke: #ffa500"/>
     <use xlink:href="#mf5f1d1dd09" x="213.442678" y="183.953669" style="fill: #ffa500; stroke: #ffa500"/>
     <use xlink:href="#mf5f1d1dd09" x="250.937992" y="139.468991" style="fill: #ffa500; stroke: #ffa500"/>
     <use xlink:href="#mf5f1d1dd09" x="282.946187" y="125.981319" style="fill: #ffa500; stroke: #ffa500"/>
     <use xlink:href="#mf5f1d1dd09" x="260.083191" y="155.294957" style="fill: #ffa500; stroke: #ffa500"/>
     <use xlink:href="#mf5f1d1dd09" x="329.586699" y="112.216492" style="fill: #ffa500; stroke: #ffa500"/>
     <use xlink:href="#mf5f1d1dd09" x="318.612461" y="85.499765" style="fill: #ffa500; stroke: #ffa500"/>
     <use xlink:href="#mf5f1d1dd09" x="245.450873" y="119.187523" style="fill: #ffa500; stroke: #ffa500"/>
     <use xlink:href="#mf5f1d1dd09" x="315.868901" y="93.344773" style="fill: #ffa500; stroke: #ffa500"/>
     <use xlink:href="#mf5f1d1dd09" x="305.809183" y="152.396838" style="fill: #ffa500; stroke: #ffa500"/>
     <use xlink:href="#mf5f1d1dd09" x="248.194433" y="165.994198" style="fill: #ffa500; stroke: #ffa500"/>
     <use xlink:href="#mf5f1d1dd09" x="335.988338" y="88.493193" style="fill: #ffa500; stroke: #ffa500"/>
     <use xlink:href="#mf5f1d1dd09" x="245.450873" y="149.563487" style="fill: #ffa500; stroke: #ffa500"/>
     <use xlink:href="#mf5f1d1dd09" x="325.0141" y="87.201632" style="fill: #ffa500; stroke: #ffa500"/>
     <use xlink:href="#mf5f1d1dd09" x="134.793972" y="153.115181" style="fill: #ffa500; stroke: #ffa500"/>
     <use xlink:href="#mf5f1d1dd09" x="317.697941" y="62.032028" style="fill: #ffa500; stroke: #ffa500"/>
     <use xlink:href="#mf5f1d1dd09" x="256.425111" y="158.260875" style="fill: #ffa500; stroke: #ffa500"/>
     <use xlink:href="#mf5f1d1dd09" x="273.800988" y="69.258325" style="fill: #ffa500; stroke: #ffa500"/>
     <use xlink:href="#mf5f1d1dd09" x="358.851334" y="68.887059" style="fill: #ffa500; stroke: #ffa500"/>
     <use xlink:href="#mf5f1d1dd09" x="284.775226" y="130.119263" style="fill: #ffa500; stroke: #ffa500"/>
     <use xlink:href="#mf5f1d1dd09" x="263.74127" y="179.441193" style="fill: #ffa500; stroke: #ffa500"/>
     <use xlink:href="#mf5f1d1dd09" x="318.612461" y="73.032032" style="fill: #ffa500; stroke: #ffa500"/>
     <use xlink:href="#mf5f1d1dd09" x="314.039862" y="78.511343" style="fill: #ffa500; stroke: #ffa500"/>
     <use xlink:href="#mf5f1d1dd09" x="259.168671" y="154.564193" style="fill: #ffa500; stroke: #ffa500"/>
     <use xlink:href="#mf5f1d1dd09" x="219.844317" y="120.294841" style="fill: #ffa500; stroke: #ffa500"/>
     <use xlink:href="#mf5f1d1dd09" x="322.27054" y="78.911935" style="fill: #ffa500; stroke: #ffa500"/>
     <use xlink:href="#mf5f1d1dd09" x="282.031667" y="53.542432" style="fill: #ffa500; stroke: #ffa500"/>
     <use xlink:href="#mf5f1d1dd09" x="314.954381" y="107.103413" style="fill: #ffa500; stroke: #ffa500"/>
     <use xlink:href="#mf5f1d1dd09" x="318.612461" y="91.11647" style="fill: #ffa500; stroke: #ffa500"/>
     <use xlink:href="#mf5f1d1dd09" x="327.757659" y="118.637469" style="fill: #ffa500; stroke: #ffa500"/>
     <use xlink:href="#mf5f1d1dd09" x="314.039862" y="74.961859" style="fill: #ffa500; stroke: #ffa500"/>
     <use xlink:href="#mf5f1d1dd09" x="333.244778" y="96.993577" style="fill: #ffa500; stroke: #ffa500"/>
     <use xlink:href="#mf5f1d1dd09" x="330.501219" y="82.989045" style="fill: #ffa500; stroke: #ffa500"/>
    </g>
   </g>
   <g id="line2d_36">
    <g clip-path="url(#p5cfac54cba)">
     <use xlink:href="#mf5f1d1dd09" x="80.837301" y="253.081475" style="fill: #ffa500; stroke: #ffa500"/>
     <use xlink:href="#mf5f1d1dd09" x="335.988338" y="116.460811" style="fill: #ffa500; stroke: #ffa500"/>
     <use xlink:href="#mf5f1d1dd09" x="283.860707" y="70.754356" style="fill: #ffa500; stroke: #ffa500"/>
     <use xlink:href="#mf5f1d1dd09" x="227.160476" y="157.512865" style="fill: #ffa500; stroke: #ffa500"/>
     <use xlink:href="#mf5f1d1dd09" x="304.894663" y="78.112013" style="fill: #ffa500; stroke: #ffa500"/>
     <use xlink:href="#mf5f1d1dd09" x="326.843139" y="95.15605" style="fill: #ffa500; stroke: #ffa500"/>
     <use xlink:href="#mf5f1d1dd09" x="289.347826" y="94.247177" style="fill: #ffa500; stroke: #ffa500"/>
     <use xlink:href="#mf5f1d1dd09" x="191.494202" y="148.170207" style="fill: #ffa500; stroke: #ffa500"/>
     <use xlink:href="#mf5f1d1dd09" x="264.65579" y="148.864933" style="fill: #ffa500; stroke: #ffa500"/>
     <use xlink:href="#mf5f1d1dd09" x="314.954381" y="81.752087" style="fill: #ffa500; stroke: #ffa500"/>
     <use xlink:href="#mf5f1d1dd09" x="213.442678" y="171.702624" style="fill: #ffa500; stroke: #ffa500"/>
     <use xlink:href="#mf5f1d1dd09" x="250.937992" y="127.149873" style="fill: #ffa500; stroke: #ffa500"/>
     <use xlink:href="#mf5f1d1dd09" x="282.946187" y="113.791509" style="fill: #ffa500; stroke: #ffa500"/>
     <use xlink:href="#mf5f1d1dd09" x="260.083191" y="142.745328" style="fill: #ffa500; stroke: #ffa500"/>
     <use xlink:href="#mf5f1d1dd09" x="329.586699" y="86.774018" style="fill: #ffa500; stroke: #ffa500"/>
     <use xlink:href="#mf5f1d1dd09" x="318.612461" y="73.415655" style="fill: #ffa500; stroke: #ffa500"/>
     <use xlink:href="#mf5f1d1dd09" x="245.450873" y="106.603265" style="fill: #ffa500; stroke: #ffa500"/>
     <use xlink:href="#mf5f1d1dd09" x="315.868901" y="81.342435" style="fill: #ffa500; stroke: #ffa500"/>
     <use xlink:href="#mf5f1d1dd09" x="305.809183" y="145.428755" style="fill: #ffa500; stroke: #ffa500"/>
     <use xlink:href="#mf5f1d1dd09" x="248.194433" y="153.837617" style="fill: #ffa500; stroke: #ffa500"/>
     <use xlink:href="#mf5f1d1dd09" x="335.988338" y="82.575383" style="fill: #ffa500; stroke: #ffa500"/>
     <use xlink:href="#mf5f1d1dd09" x="245.450873" y="137.543073" style="fill: #ffa500; stroke: #ffa500"/>
     <use xlink:href="#mf5f1d1dd09" x="325.0141" y="65.232997" style="fill: #ffa500; stroke: #ffa500"/>
     <use xlink:href="#mf5f1d1dd09" x="134.793972" y="140.769384" style="fill: #ffa500; stroke: #ffa500"/>
     <use xlink:href="#mf5f1d1dd09" x="317.697941" y="49.342727" style="fill: #ffa500; stroke: #ffa500"/>
     <use xlink:href="#mf5f1d1dd09" x="256.425111" y="146.792072" style="fill: #ffa500; stroke: #ffa500"/>
     <use xlink:href="#mf5f1d1dd09" x="273.800988" y="59.253019" style="fill: #ffa500; stroke: #ffa500"/>
     <use xlink:href="#mf5f1d1dd09" x="358.851334" y="65.232997" style="fill: #ffa500; stroke: #ffa500"/>
     <use xlink:href="#mf5f1d1dd09" x="284.775226" y="117.544469" style="fill: #ffa500; stroke: #ffa500"/>
     <use xlink:href="#mf5f1d1dd09" x="263.74127" y="167.59912" style="fill: #ffa500; stroke: #ffa500"/>
     <use xlink:href="#mf5f1d1dd09" x="318.612461" y="71.509044" style="fill: #ffa500; stroke: #ffa500"/>
     <use xlink:href="#mf5f1d1dd09" x="314.039862" y="70.004134" style="fill: #ffa500; stroke: #ffa500"/>
     <use xlink:href="#mf5f1d1dd09" x="259.168671" y="142.083253" style="fill: #ffa500; stroke: #ffa500"/>
     <use xlink:href="#mf5f1d1dd09" x="219.844317" y="108.615803" style="fill: #ffa500; stroke: #ffa500"/>
     <use xlink:href="#mf5f1d1dd09" x="322.27054" y="77.317107" style="fill: #ffa500; stroke: #ffa500"/>
     <use xlink:href="#mf5f1d1dd09" x="282.031667" y="51.586807" style="fill: #ffa500; stroke: #ffa500"/>
     <use xlink:href="#mf5f1d1dd09" x="314.954381" y="94.700799" style="fill: #ffa500; stroke: #ffa500"/>
     <use xlink:href="#mf5f1d1dd09" x="318.612461" y="86.774018" style="fill: #ffa500; stroke: #ffa500"/>
     <use xlink:href="#mf5f1d1dd09" x="327.757659" y="92.895969" style="fill: #ffa500; stroke: #ffa500"/>
     <use xlink:href="#mf5f1d1dd09" x="314.039862" y="71.131139" style="fill: #ffa500; stroke: #ffa500"/>
     <use xlink:href="#mf5f1d1dd09" x="333.244778" y="84.657322" style="fill: #ffa500; stroke: #ffa500"/>
     <use xlink:href="#mf5f1d1dd09" x="330.501219" y="70.37869" style="fill: #ffa500; stroke: #ffa500"/>
    </g>
   </g>
   <g id="line2d_37">
    <path d="M 76.264702 229.847734 
L 162.903424 180.335921 
L 183.760894 167.66164 
L 202.211733 157.602989 
L 211.036047 152.60132 
L 224.673624 145.58084 
L 231.893517 141.691333 
L 255.157619 129.338377 
L 265.586354 123.323718 
L 270.399616 120.52214 
L 276.817299 117.307495 
L 282.432772 114.413726 
L 287.246034 111.613044 
L 292.861507 108.093384 
L 295.268138 106.654567 
L 301.685822 102.529082 
L 305.696873 100.393829 
L 311.312346 97.63334 
L 313.718977 96.246681 
L 318.53224 93.091713 
L 326.554344 87.892851 
L 337.785289 81.654051 
L 349.818445 74.42269 
L 373.082546 61.31667 
L 381.10465 56.941797 
L 396.346648 47.977601 
L 396.346648 47.977601 
" clip-path="url(#p5cfac54cba)" style="fill: none; stroke: #000000; stroke-width: 1.5"/>
   </g>
   <g id="line2d_38">
    <path d="M 76.264702 256.145005 
L 101.133224 241.767407 
L 124.397325 229.263291 
L 132.419429 224.536376 
L 149.265847 214.989076 
L 162.903424 206.860613 
L 171.727738 202.022553 
L 199.805102 187.58079 
L 223.069203 174.254361 
L 236.70678 166.507778 
L 254.355408 157.12046 
L 260.773092 153.078813 
L 264.784144 150.327897 
L 271.201827 146.658533 
L 284.037193 140.342044 
L 292.059297 135.566862 
L 298.47698 131.687013 
L 309.707925 125.49837 
L 313.718977 122.928046 
L 316.927819 121.053349 
L 324.949923 116.181827 
L 332.972027 112.035914 
L 336.983079 109.531844 
L 350.620655 102.150376 
L 395.544437 75.818295 
L 396.346648 75.390735 
L 396.346648 75.390735 
" clip-path="url(#p5cfac54cba)" style="fill: none; stroke-dasharray: 5.55,2.4; stroke-dashoffset: 0; stroke: #ff0000; stroke-width: 1.5"/>
   </g>
   <g id="line2d_39">
    <path d="M 76.264702 203.339626 
L 142.045954 164.888068 
L 168.518897 149.786767 
L 185.365315 139.36838 
L 192.585208 135.233906 
L 201.409523 130.466435 
L 204.618364 128.693461 
L 219.860362 120.559985 
L 230.289097 114.472691 
L 242.322253 106.608331 
L 244.728884 105.391504 
L 255.157619 100.211064 
L 264.784144 94.927754 
L 268.795195 92.83674 
L 290.454876 81.017484 
L 295.268138 78.598251 
L 301.685822 75.302246 
L 308.905715 71.369627 
L 312.916767 68.888678 
L 316.125609 66.803595 
L 322.543292 62.875925 
L 326.554344 60.746061 
L 328.158764 59.929404 
L 331.367606 58.034133 
L 342.598551 50.733756 
L 349.818445 46.790737 
L 354.631707 44.016733 
L 359.44497 41.523382 
L 371.478126 35.429381 
L 385.115702 27.856115 
L 396.346648 21.046 
L 396.346648 21.046 
" clip-path="url(#p5cfac54cba)" style="fill: none; stroke-dasharray: 5.55,2.4; stroke-dashoffset: 0; stroke: #ff0000; stroke-width: 1.5"/>
   </g>
   <g id="line2d_40">
    <defs>
     <path id="m39e5ae3dba" d="M 0 3 
C 0.795609 3 1.55874 2.683901 2.12132 2.12132 
C 2.683901 1.55874 3 0.795609 3 0 
C 3 -0.795609 2.683901 -1.55874 2.12132 -2.12132 
C 1.55874 -2.683901 0.795609 -3 0 -3 
C -0.795609 -3 -1.55874 -2.683901 -2.12132 -2.12132 
C -2.683901 -1.55874 -3 -0.795609 -3 0 
C -3 0.795609 -2.683901 1.55874 -2.12132 2.12132 
C -1.55874 2.683901 -0.795609 3 0 3 
z
" style="stroke: #ffa500"/>
    </defs>
    <g clip-path="url(#p5cfac54cba)">
     <use xlink:href="#m39e5ae3dba" x="80.837301" y="257.927435" style="fill: #ffa500; stroke: #ffa500"/>
     <use xlink:href="#m39e5ae3dba" x="335.988338" y="121.411916" style="fill: #ffa500; stroke: #ffa500"/>
     <use xlink:href="#m39e5ae3dba" x="283.860707" y="74.1864" style="fill: #ffa500; stroke: #ffa500"/>
     <use xlink:href="#m39e5ae3dba" x="227.160476" y="159.770264" style="fill: #ffa500; stroke: #ffa500"/>
     <use xlink:href="#m39e5ae3dba" x="304.894663" y="79.313797" style="fill: #ffa500; stroke: #ffa500"/>
     <use xlink:href="#m39e5ae3dba" x="326.843139" y="96.071485" style="fill: #ffa500; stroke: #ffa500"/>
     <use xlink:href="#m39e5ae3dba" x="289.347826" y="98.858128" style="fill: #ffa500; stroke: #ffa500"/>
     <use xlink:href="#m39e5ae3dba" x="191.494202" y="153.837617" style="fill: #ffa500; stroke: #ffa500"/>
     <use xlink:href="#m39e5ae3dba" x="264.65579" y="160.531751" style="fill: #ffa500; stroke: #ffa500"/>
     <use xlink:href="#m39e5ae3dba" x="314.954381" y="86.774018" style="fill: #ffa500; stroke: #ffa500"/>
     <use xlink:href="#m39e5ae3dba" x="213.442678" y="177.680231" style="fill: #ffa500; stroke: #ffa500"/>
     <use xlink:href="#m39e5ae3dba" x="250.937992" y="133.159869" style="fill: #ffa500; stroke: #ffa500"/>
     <use xlink:href="#m39e5ae3dba" x="282.946187" y="119.739973" style="fill: #ffa500; stroke: #ffa500"/>
     <use xlink:href="#m39e5ae3dba" x="260.083191" y="148.864933" style="fill: #ffa500; stroke: #ffa500"/>
     <use xlink:href="#m39e5ae3dba" x="329.586699" y="98.858128" style="fill: #ffa500; stroke: #ffa500"/>
     <use xlink:href="#m39e5ae3dba" x="318.612461" y="79.313797" style="fill: #ffa500; stroke: #ffa500"/>
     <use xlink:href="#m39e5ae3dba" x="245.450873" y="112.739327" style="fill: #ffa500; stroke: #ffa500"/>
     <use xlink:href="#m39e5ae3dba" x="315.868901" y="87.201632" style="fill: #ffa500; stroke: #ffa500"/>
     <use xlink:href="#m39e5ae3dba" x="305.809183" y="148.864933" style="fill: #ffa500; stroke: #ffa500"/>
     <use xlink:href="#m39e5ae3dba" x="248.194433" y="159.770264" style="fill: #ffa500; stroke: #ffa500"/>
     <use xlink:href="#m39e5ae3dba" x="335.988338" y="85.499765" style="fill: #ffa500; stroke: #ffa500"/>
     <use xlink:href="#m39e5ae3dba" x="245.450873" y="143.41088" style="fill: #ffa500; stroke: #ffa500"/>
     <use xlink:href="#m39e5ae3dba" x="325.0141" y="75.74209" style="fill: #ffa500; stroke: #ffa500"/>
     <use xlink:href="#m39e5ae3dba" x="134.793972" y="146.792072" style="fill: #ffa500; stroke: #ffa500"/>
     <use xlink:href="#m39e5ae3dba" x="317.697941" y="55.528695" style="fill: #ffa500; stroke: #ffa500"/>
     <use xlink:href="#m39e5ae3dba" x="256.425111" y="152.396838" style="fill: #ffa500; stroke: #ffa500"/>
     <use xlink:href="#m39e5ae3dba" x="273.800988" y="64.157003" style="fill: #ffa500; stroke: #ffa500"/>
     <use xlink:href="#m39e5ae3dba" x="358.851334" y="67.046864" style="fill: #ffa500; stroke: #ffa500"/>
     <use xlink:href="#m39e5ae3dba" x="284.775226" y="123.676034" style="fill: #ffa500; stroke: #ffa500"/>
     <use xlink:href="#m39e5ae3dba" x="263.74127" y="173.381949" style="fill: #ffa500; stroke: #ffa500"/>
     <use xlink:href="#m39e5ae3dba" x="318.612461" y="72.268251" style="fill: #ffa500; stroke: #ffa500"/>
     <use xlink:href="#m39e5ae3dba" x="314.039862" y="74.1864" style="fill: #ffa500; stroke: #ffa500"/>
     <use xlink:href="#m39e5ae3dba" x="259.168671" y="148.170207" style="fill: #ffa500; stroke: #ffa500"/>
     <use xlink:href="#m39e5ae3dba" x="219.844317" y="114.320892" style="fill: #ffa500; stroke: #ffa500"/>
     <use xlink:href="#m39e5ae3dba" x="322.27054" y="78.112013" style="fill: #ffa500; stroke: #ffa500"/>
     <use xlink:href="#m39e5ae3dba" x="282.031667" y="52.560849" style="fill: #ffa500; stroke: #ffa500"/>
     <use xlink:href="#m39e5ae3dba" x="314.954381" y="100.75051" style="fill: #ffa500; stroke: #ffa500"/>
     <use xlink:href="#m39e5ae3dba" x="318.612461" y="88.926654" style="fill: #ffa500; stroke: #ffa500"/>
     <use xlink:href="#m39e5ae3dba" x="327.757659" y="105.114553" style="fill: #ffa500; stroke: #ffa500"/>
     <use xlink:href="#m39e5ae3dba" x="314.039862" y="73.032032" style="fill: #ffa500; stroke: #ffa500"/>
     <use xlink:href="#m39e5ae3dba" x="333.244778" y="90.675471" style="fill: #ffa500; stroke: #ffa500"/>
     <use xlink:href="#m39e5ae3dba" x="330.501219" y="76.527153" style="fill: #ffa500; stroke: #ffa500"/>
    </g>
   </g>
   <g id="patch_3">
    <path d="M 55.459375 275.062 
L 55.459375 8.95 
" style="fill: none; stroke: #000000; stroke-width: 0.8; stroke-linejoin: miter; stroke-linecap: square"/>
   </g>
   <g id="patch_4">
    <path d="M 412.579375 275.062 
L 412.579375 8.95 
" style="fill: none; stroke: #000000; stroke-width: 0.8; stroke-linejoin: miter; stroke-linecap: square"/>
   </g>
   <g id="patch_5">
    <path d="M 55.459375 275.062 
L 412.579375 275.062 
" style="fill: none; stroke: #000000; stroke-width: 0.8; stroke-linejoin: miter; stroke-linecap: square"/>
   </g>
   <g id="patch_6">
    <path d="M 55.459375 8.95 
L 412.579375 8.95 
" style="fill: none; stroke: #000000; stroke-width: 0.8; stroke-linejoin: miter; stroke-linecap: square"/>
   </g>
  </g>
 </g>
 <defs>
  <clipPath id="p5cfac54cba">
   <rect x="55.459375" y="8.95" width="357.12" height="266.112"/>
  </clipPath>
 </defs>
</svg>
