<?xml version="1.0" encoding="utf-8" standalone="no"?>
<!DOCTYPE svg PUBLIC "-//W3C//DTD SVG 1.1//EN"
  "http://www.w3.org/Graphics/SVG/1.1/DTD/svg11.dtd">
<svg xmlns:xlink="http://www.w3.org/1999/xlink" width="389.63875pt" height="309.921375pt" viewBox="0 0 389.63875 309.921375" xmlns="http://www.w3.org/2000/svg" version="1.1">
 <metadata>
  <rdf:RDF xmlns:dc="http://purl.org/dc/elements/1.1/" xmlns:cc="http://creativecommons.org/ns#" xmlns:rdf="http://www.w3.org/1999/02/22-rdf-syntax-ns#">
   <cc:Work>
    <dc:type rdf:resource="http://purl.org/dc/dcmitype/StillImage"/>
    <dc:date>2022-09-09T09:41:03.207749</dc:date>
    <dc:format>image/svg+xml</dc:format>
    <dc:creator>
     <cc:Agent>
      <dc:title>Matplotlib v3.5.1, https://matplotlib.org/</dc:title>
     </cc:Agent>
    </dc:creator>
   </cc:Work>
  </rdf:RDF>
 </metadata>
 <defs>
  <style type="text/css">*{stroke-linejoin: round; stroke-linecap: butt}</style>
 </defs>
 <g id="figure_1">
  <g id="patch_1">
   <path d="M 0 309.921375 
L 389.63875 309.921375 
L 389.63875 0 
L 0 0 
z
" style="fill: #ffffff"/>
  </g>
  <g id="axes_1">
   <g id="patch_2">
    <path d="M 23.56875 275.062 
L 380.68875 275.062 
L 380.68875 8.95 
L 23.56875 8.95 
z
" style="fill: #ffffff"/>
   </g>
   <g id="PolyCollection_1">
    <path d="M 225.819558 256.46686 
L 225.819558 256.732508 
L 227.018602 256.758785 
L 228.217645 256.788951 
L 229.416689 256.823605 
L 230.615733 256.863352 
L 231.814777 256.908744 
L 233.013821 256.96027 
L 234.212865 257.018355 
L 235.411908 257.083415 
L 236.610952 257.155918 
L 237.809996 257.23646 
L 239.00904 257.325816 
L 240.208084 257.424954 
L 241.407127 257.534977 
L 242.606171 257.656998 
L 243.805215 257.791929 
L 245.004259 257.940223 
L 246.203303 258.101603 
L 247.402346 258.274853 
L 248.60139 258.457724 
L 249.800434 258.647032 
L 250.999478 258.838936 
L 252.198522 259.029386 
L 253.397566 259.214648 
L 254.596609 259.391802 
L 255.795653 259.559105 
L 256.994697 259.716126 
L 258.193741 259.863633 
L 259.392785 260.003239 
L 260.591828 260.136906 
L 261.790872 260.266425 
L 262.989916 260.393008 
L 264.18896 260.517116 
L 265.388004 260.638575 
L 266.587047 260.756954 
L 267.786091 260.8721 
L 268.985135 260.984646 
L 270.184179 261.096319 
L 271.383223 261.209906 
L 272.582267 261.328857 
L 273.78131 261.456594 
L 274.980354 261.595704 
L 276.179398 261.747191 
L 277.378442 261.91 
L 278.577486 262.080866 
L 279.776529 262.254543 
L 280.975573 262.424307 
L 282.174617 262.582637 
L 283.373661 262.721935 
L 284.572705 262.835171 
L 285.771749 262.916381 
L 286.970792 262.960996 
L 288.169836 262.966 
L 289.36888 262.929967 
L 290.567924 262.853009 
L 291.766968 262.736648 
L 292.966011 262.583632 
L 294.165055 262.397673 
L 295.364099 262.183113 
L 296.563143 261.944569 
L 297.762187 261.686596 
L 298.96123 261.413459 
L 300.160274 261.12908 
L 301.359318 260.837136 
L 302.558362 260.541285 
L 303.757406 260.245391 
L 304.95645 259.95364 
L 306.155493 259.670472 
L 307.354537 259.400305 
L 308.553581 259.147096 
L 309.752625 258.913869 
L 310.951669 258.702299 
L 312.150712 258.512503 
L 313.349756 258.343061 
L 314.5488 258.191305 
L 315.747844 258.05381 
L 316.946888 257.926996 
L 318.145931 257.807734 
L 319.344975 257.693815 
L 320.544019 257.584216 
L 321.743063 257.479105 
L 322.942107 257.3796 
L 324.141151 257.287362 
L 325.340194 257.204115 
L 326.539238 257.131217 
L 327.738282 257.069361 
L 328.937326 257.018442 
L 330.13637 256.977601 
L 331.335413 256.945379 
L 332.534457 256.919951 
L 333.733501 256.899363 
L 334.932545 256.881746 
L 336.131589 256.865485 
L 337.330632 256.849326 
L 338.529676 256.832432 
L 339.72872 256.814377 
L 340.927764 256.795107 
L 342.126808 256.774855 
L 343.325852 256.754055 
L 344.524895 256.733243 
L 344.524895 256.466126 
L 344.524895 256.466126 
L 343.325852 256.445314 
L 342.126808 256.424513 
L 340.927764 256.404262 
L 339.72872 256.384991 
L 338.529676 256.366937 
L 337.330632 256.350042 
L 336.131589 256.333883 
L 334.932545 256.317622 
L 333.733501 256.300006 
L 332.534457 256.279418 
L 331.335413 256.25399 
L 330.13637 256.221768 
L 328.937326 256.180926 
L 327.738282 256.130008 
L 326.539238 256.068151 
L 325.340194 255.995254 
L 324.141151 255.912006 
L 322.942107 255.819768 
L 321.743063 255.720263 
L 320.544019 255.615152 
L 319.344975 255.505554 
L 318.145931 255.391634 
L 316.946888 255.272372 
L 315.747844 255.145559 
L 314.5488 255.008063 
L 313.349756 254.856307 
L 312.150712 254.686865 
L 310.951669 254.497069 
L 309.752625 254.2855 
L 308.553581 254.052272 
L 307.354537 253.799064 
L 306.155493 253.528896 
L 304.95645 253.245729 
L 303.757406 252.953978 
L 302.558362 252.658083 
L 301.359318 252.362232 
L 300.160274 252.070289 
L 298.96123 251.785909 
L 297.762187 251.512773 
L 296.563143 251.254799 
L 295.364099 251.016255 
L 294.165055 250.801696 
L 292.966011 250.615736 
L 291.766968 250.46272 
L 290.567924 250.346359 
L 289.36888 250.269401 
L 288.169836 250.233368 
L 286.970792 250.238372 
L 285.771749 250.282987 
L 284.572705 250.364198 
L 283.373661 250.477434 
L 282.174617 250.616732 
L 280.975573 250.775062 
L 279.776529 250.944825 
L 278.577486 251.118502 
L 277.378442 251.289369 
L 276.179398 251.452177 
L 274.980354 251.603665 
L 273.78131 251.742774 
L 272.582267 251.870512 
L 271.383223 251.989462 
L 270.184179 252.103049 
L 268.985135 252.214722 
L 267.786091 252.327269 
L 266.587047 252.442415 
L 265.388004 252.560793 
L 264.18896 252.682252 
L 262.989916 252.806361 
L 261.790872 252.932944 
L 260.591828 253.062463 
L 259.392785 253.19613 
L 258.193741 253.335735 
L 256.994697 253.483242 
L 255.795653 253.640264 
L 254.596609 253.807566 
L 253.397566 253.98472 
L 252.198522 254.169982 
L 250.999478 254.360432 
L 249.800434 254.552336 
L 248.60139 254.741644 
L 247.402346 254.924516 
L 246.203303 255.097765 
L 245.004259 255.259146 
L 243.805215 255.40744 
L 242.606171 255.542371 
L 241.407127 255.664391 
L 240.208084 255.774415 
L 239.00904 255.873552 
L 237.809996 255.962909 
L 236.610952 256.043451 
L 235.411908 256.115954 
L 234.212865 256.181013 
L 233.013821 256.239099 
L 231.814777 256.290624 
L 230.615733 256.336017 
L 229.416689 256.375763 
L 228.217645 256.410418 
L 227.018602 256.440583 
L 225.819558 256.46686 
z
" clip-path="url(#pb955da8aef)" style="fill: #008fd5; fill-opacity: 0.3"/>
   </g>
   <g id="PolyCollection_2">
    <path d="M 110.683696 231.019008 
L 110.683696 231.249834 
L 113.247053 231.268431 
L 115.81041 231.288827 
L 118.373767 231.311324 
L 120.937123 231.336253 
L 123.50048 231.363934 
L 126.063837 231.394647 
L 128.627194 231.428626 
L 131.190551 231.466064 
L 133.753908 231.507125 
L 136.317264 231.55195 
L 138.880621 231.600639 
L 141.443978 231.653214 
L 144.007335 231.709569 
L 146.570692 231.769424 
L 149.134049 231.832322 
L 151.697405 231.897684 
L 154.260762 231.964926 
L 156.824119 232.033627 
L 159.387476 232.103697 
L 161.950833 232.175495 
L 164.51419 232.249848 
L 167.077546 232.327968 
L 169.640903 232.411268 
L 172.20426 232.501145 
L 174.767617 232.598791 
L 177.330974 232.705081 
L 179.894331 232.82057 
L 182.457687 232.94557 
L 185.021044 233.080279 
L 187.584401 233.224897 
L 190.147758 233.379702 
L 192.711115 233.545066 
L 195.274472 233.721415 
L 197.837829 233.909168 
L 200.401185 234.108658 
L 202.964542 234.320049 
L 205.527899 234.543252 
L 208.091256 234.777822 
L 210.654613 235.022829 
L 213.21797 235.276713 
L 215.781326 235.537129 
L 218.344683 235.800825 
L 220.90804 236.063583 
L 223.471397 236.320276 
L 226.034754 236.565062 
L 228.598111 236.79173 
L 231.161467 236.994175 
L 233.724824 237.166936 
L 236.288181 237.305729 
L 238.851538 237.40787 
L 241.414895 237.472523 
L 243.978252 237.500737 
L 246.541608 237.495264 
L 249.104965 237.460224 
L 251.668322 237.400662 
L 254.231679 237.32209 
L 256.795036 237.230035 
L 259.358393 237.129645 
L 261.921749 237.025343 
L 264.485106 236.920542 
L 267.048463 236.817427 
L 269.61182 236.716832 
L 272.175177 236.618229 
L 274.738534 236.519837 
L 277.30189 236.418868 
L 279.865247 236.311861 
L 282.428604 236.195083 
L 284.991961 236.064947 
L 287.555318 235.918408 
L 290.118675 235.753315 
L 292.682031 235.568684 
L 295.245388 235.364862 
L 297.808745 235.143556 
L 300.372102 234.907707 
L 302.935459 234.661205 
L 305.498816 234.40849 
L 308.062172 234.154118 
L 310.625529 233.902371 
L 313.188886 233.656998 
L 315.752243 233.421125 
L 318.3156 233.197301 
L 320.878957 232.987622 
L 323.442313 232.793833 
L 326.00567 232.617354 
L 328.569027 232.459183 
L 331.132384 232.319725 
L 333.695741 232.198602 
L 336.259098 232.094549 
L 338.822454 232.005436 
L 341.385811 231.928468 
L 343.949168 231.860514 
L 346.512525 231.798499 
L 349.075882 231.739789 
L 351.639239 231.682471 
L 354.202595 231.62549 
L 356.765952 231.568634 
L 359.329309 231.512379 
L 361.892666 231.457665 
L 364.456023 231.405636 
L 364.456023 230.863206 
L 364.456023 230.863206 
L 361.892666 230.811177 
L 359.329309 230.756463 
L 356.765952 230.700208 
L 354.202595 230.643352 
L 351.639239 230.586371 
L 349.075882 230.529053 
L 346.512525 230.470343 
L 343.949168 230.408328 
L 341.385811 230.340374 
L 338.822454 230.263406 
L 336.259098 230.174293 
L 333.695741 230.07024 
L 331.132384 229.949117 
L 328.569027 229.809659 
L 326.00567 229.651488 
L 323.442313 229.475009 
L 320.878957 229.28122 
L 318.3156 229.071541 
L 315.752243 228.847717 
L 313.188886 228.611845 
L 310.625529 228.366471 
L 308.062172 228.114724 
L 305.498816 227.860352 
L 302.935459 227.607637 
L 300.372102 227.361135 
L 297.808745 227.125286 
L 295.245388 226.90398 
L 292.682031 226.700158 
L 290.118675 226.515527 
L 287.555318 226.350434 
L 284.991961 226.203896 
L 282.428604 226.073759 
L 279.865247 225.956981 
L 277.30189 225.849974 
L 274.738534 225.749005 
L 272.175177 225.650613 
L 269.61182 225.55201 
L 267.048463 225.451416 
L 264.485106 225.3483 
L 261.921749 225.243499 
L 259.358393 225.139197 
L 256.795036 225.038807 
L 254.231679 224.946753 
L 251.668322 224.86818 
L 249.104965 224.808618 
L 246.541608 224.773578 
L 243.978252 224.768105 
L 241.414895 224.796319 
L 238.851538 224.860972 
L 236.288181 224.963113 
L 233.724824 225.101906 
L 231.161467 225.274667 
L 228.598111 225.477112 
L 226.034754 225.70378 
L 223.471397 225.948566 
L 220.90804 226.205259 
L 218.344683 226.468017 
L 215.781326 226.731713 
L 213.21797 226.992129 
L 210.654613 227.246013 
L 208.091256 227.49102 
L 205.527899 227.72559 
L 202.964542 227.948793 
L 200.401185 228.160184 
L 197.837829 228.359674 
L 195.274472 228.547427 
L 192.711115 228.723776 
L 190.147758 228.88914 
L 187.584401 229.043945 
L 185.021044 229.188563 
L 182.457687 229.323272 
L 179.894331 229.448272 
L 177.330974 229.563761 
L 174.767617 229.670051 
L 172.20426 229.767697 
L 169.640903 229.857574 
L 167.077546 229.940874 
L 164.51419 230.018994 
L 161.950833 230.093347 
L 159.387476 230.165145 
L 156.824119 230.235215 
L 154.260762 230.303917 
L 151.697405 230.371158 
L 149.134049 230.43652 
L 146.570692 230.499418 
L 144.007335 230.559273 
L 141.443978 230.615628 
L 138.880621 230.668203 
L 136.317264 230.716892 
L 133.753908 230.761717 
L 131.190551 230.802778 
L 128.627194 230.840216 
L 126.063837 230.874195 
L 123.50048 230.904908 
L 120.937123 230.932589 
L 118.373767 230.957518 
L 115.81041 230.980015 
L 113.247053 231.000411 
L 110.683696 231.019008 
z
" clip-path="url(#pb955da8aef)" style="fill: #008fd5; fill-opacity: 0.3"/>
   </g>
   <g id="PolyCollection_3">
    <path d="M 191.055386 205.610463 
L 191.055386 205.727853 
L 192.420447 205.732362 
L 193.785509 205.738211 
L 195.150571 205.747522 
L 196.515632 205.763001 
L 197.880694 205.787726 
L 199.245755 205.824884 
L 200.610817 205.877488 
L 201.975878 205.948122 
L 203.34094 206.03874 
L 204.706002 206.150511 
L 206.071063 206.283723 
L 207.436125 206.437725 
L 208.801186 206.610936 
L 210.166248 206.800948 
L 211.531309 207.004788 
L 212.896371 207.219346 
L 214.261433 207.441956 
L 215.626494 207.671011 
L 216.991556 207.906442 
L 218.356617 208.149872 
L 219.721679 208.404342 
L 221.08674 208.673612 
L 222.451802 208.961165 
L 223.816863 209.269139 
L 225.181925 209.597368 
L 226.546987 209.942694 
L 227.912048 210.298602 
L 229.27711 210.655201 
L 230.642171 210.999607 
L 232.007233 211.316804 
L 233.372294 211.591067 
L 234.737356 211.807925 
L 236.102418 211.956462 
L 237.467479 212.031555 
L 238.832541 212.035474 
L 240.197602 211.978317 
L 241.562664 211.876936 
L 242.927725 211.752367 
L 244.292787 211.626187 
L 245.657849 211.516551 
L 247.02291 211.434814 
L 248.387972 211.383541 
L 249.753033 211.356384 
L 251.118095 211.339843 
L 252.483156 211.31644 
L 253.848218 211.268473 
L 255.21328 211.181467 
L 256.578341 211.046537 
L 257.943403 210.861327 
L 259.308464 210.629544 
L 260.673526 210.359503 
L 262.038587 210.062235 
L 263.403649 209.749669 
L 264.768711 209.433208 
L 266.133772 209.122813 
L 267.498834 208.826542 
L 268.863895 208.550388 
L 270.228957 208.298305 
L 271.594018 208.072309 
L 272.95908 207.872617 
L 274.324142 207.697831 
L 275.689203 207.545169 
L 277.054265 207.410799 
L 278.419326 207.290257 
L 279.784388 207.178983 
L 281.149449 207.072897 
L 282.514511 206.968968 
L 283.879573 206.865668 
L 285.244634 206.763204 
L 286.609696 206.663453 
L 287.974757 206.569539 
L 289.339819 206.485119 
L 290.70488 206.413478 
L 292.069942 206.356658 
L 293.435004 206.314841 
L 294.800065 206.286179 
L 296.165127 206.26711 
L 297.530188 206.253097 
L 298.89525 206.239548 
L 300.260311 206.222674 
L 301.625373 206.200048 
L 302.990435 206.170781 
L 304.355496 206.135326 
L 305.720558 206.095057 
L 307.085619 206.051794 
L 308.450681 206.007402 
L 309.815742 205.963551 
L 311.180804 205.921631 
L 312.545866 205.882763 
L 313.910927 205.847846 
L 315.275989 205.817576 
L 316.64105 205.792417 
L 318.006112 205.772528 
L 319.371173 205.757698 
L 320.736235 205.74731 
L 322.101297 205.740391 
L 323.466358 205.73574 
L 324.83142 205.732118 
L 326.196481 205.728458 
L 326.196481 205.609858 
L 326.196481 205.609858 
L 324.83142 205.606198 
L 323.466358 205.602576 
L 322.101297 205.597925 
L 320.736235 205.591006 
L 319.371173 205.580618 
L 318.006112 205.565788 
L 316.64105 205.545899 
L 315.275989 205.520739 
L 313.910927 205.49047 
L 312.545866 205.455553 
L 311.180804 205.416685 
L 309.815742 205.374764 
L 308.450681 205.330914 
L 307.085619 205.286522 
L 305.720558 205.243259 
L 304.355496 205.20299 
L 302.990435 205.167534 
L 301.625373 205.138267 
L 300.260311 205.115642 
L 298.89525 205.098767 
L 297.530188 205.085219 
L 296.165127 205.071206 
L 294.800065 205.052137 
L 293.435004 205.023475 
L 292.069942 204.981658 
L 290.70488 204.924838 
L 289.339819 204.853197 
L 287.974757 204.768777 
L 286.609696 204.674863 
L 285.244634 204.575111 
L 283.879573 204.472648 
L 282.514511 204.369348 
L 281.149449 204.265419 
L 279.784388 204.159333 
L 278.419326 204.048059 
L 277.054265 203.927517 
L 275.689203 203.793146 
L 274.324142 203.640485 
L 272.95908 203.465698 
L 271.594018 203.266007 
L 270.228957 203.040011 
L 268.863895 202.787928 
L 267.498834 202.511774 
L 266.133772 202.215502 
L 264.768711 201.905108 
L 263.403649 201.588647 
L 262.038587 201.276081 
L 260.673526 200.978813 
L 259.308464 200.708771 
L 257.943403 200.476988 
L 256.578341 200.291779 
L 255.21328 200.156849 
L 253.848218 200.069842 
L 252.483156 200.021876 
L 251.118095 199.998473 
L 249.753033 199.981932 
L 248.387972 199.954775 
L 247.02291 199.903501 
L 245.657849 199.821765 
L 244.292787 199.712129 
L 242.927725 199.585949 
L 241.562664 199.461379 
L 240.197602 199.359999 
L 238.832541 199.302842 
L 237.467479 199.306761 
L 236.102418 199.381854 
L 234.737356 199.530391 
L 233.372294 199.747249 
L 232.007233 200.021512 
L 230.642171 200.338709 
L 229.27711 200.683115 
L 227.912048 201.039714 
L 226.546987 201.395622 
L 225.181925 201.740948 
L 223.816863 202.069177 
L 222.451802 202.37715 
L 221.08674 202.664704 
L 219.721679 202.933974 
L 218.356617 203.188444 
L 216.991556 203.431874 
L 215.626494 203.667305 
L 214.261433 203.89636 
L 212.896371 204.11897 
L 211.531309 204.333528 
L 210.166248 204.537368 
L 208.801186 204.72738 
L 207.436125 204.900591 
L 206.071063 205.054593 
L 204.706002 205.187805 
L 203.34094 205.299576 
L 201.975878 205.390194 
L 200.610817 205.460828 
L 199.245755 205.513432 
L 197.880694 205.55059 
L 196.515632 205.575315 
L 195.150571 205.590794 
L 193.785509 205.600105 
L 192.420447 205.605954 
L 191.055386 205.610463 
z
" clip-path="url(#pb955da8aef)" style="fill: #008fd5; fill-opacity: 0.3"/>
   </g>
   <g id="PolyCollection_4">
    <path d="M 248.236641 179.897284 
L 248.236641 180.510506 
L 248.769038 180.558208 
L 249.301435 180.607375 
L 249.833832 180.658341 
L 250.366229 180.711848 
L 250.898626 180.76888 
L 251.431023 180.830455 
L 251.96342 180.897431 
L 252.495817 180.970402 
L 253.028214 181.049722 
L 253.560611 181.13566 
L 254.093008 181.228659 
L 254.625405 181.329597 
L 255.157802 181.439972 
L 255.690199 181.561895 
L 256.222596 181.697864 
L 256.754993 181.850307 
L 257.28739 182.021016 
L 257.819786 182.210595 
L 258.352183 182.418102 
L 258.88458 182.641006 
L 259.416977 182.875493 
L 259.949374 183.117054 
L 260.481771 183.361162 
L 261.014168 183.603843 
L 261.546565 183.841954 
L 262.078962 184.073099 
L 262.611359 184.295267 
L 263.143756 184.506392 
L 263.676153 184.704075 
L 264.20855 184.885662 
L 264.740947 185.048729 
L 265.273344 185.191852 
L 265.805741 185.315397 
L 266.338138 185.422026 
L 266.870535 185.516646 
L 267.402931 185.60573 
L 267.935328 185.696101 
L 268.467725 185.793457 
L 269.000122 185.901026 
L 269.532519 186.018662 
L 270.064916 186.142632 
L 270.597313 186.26608 
L 271.12971 186.380036 
L 271.662107 186.474701 
L 272.194504 186.540712 
L 272.726901 186.570211 
L 273.259298 186.557591 
L 273.791695 186.499976 
L 274.324092 186.397447 
L 274.856489 186.253087 
L 275.388886 186.072816 
L 275.921283 185.864953 
L 276.45368 185.63944 
L 276.986077 185.406736 
L 277.518473 185.176473 
L 278.05087 184.956104 
L 278.583267 184.749837 
L 279.115664 184.558123 
L 279.648061 184.377884 
L 280.180458 184.20349 
L 280.712855 184.028274 
L 281.245252 183.846228 
L 281.777649 183.653465 
L 282.310046 183.449062 
L 282.842443 183.235094 
L 283.37484 183.015902 
L 283.907237 182.79685 
L 284.439634 182.582971 
L 284.972031 182.3779 
L 285.504428 182.18337 
L 286.036825 181.999334 
L 286.569222 181.824592 
L 287.101618 181.657641 
L 287.634015 181.497455 
L 288.166412 181.343953 
L 288.698809 181.198078 
L 289.231206 181.061511 
L 289.763603 180.936187 
L 290.296 180.823776 
L 290.828397 180.725286 
L 291.360794 180.640862 
L 291.893191 180.5698 
L 292.425588 180.510723 
L 292.957985 180.461862 
L 293.490382 180.421342 
L 294.022779 180.387452 
L 294.555176 180.358817 
L 295.087573 180.334491 
L 295.61997 180.31394 
L 296.152367 180.29695 
L 296.684764 180.283483 
L 297.21716 180.273509 
L 297.749557 180.266864 
L 298.281954 180.263156 
L 298.814351 180.261741 
L 299.346748 180.261775 
L 299.879145 180.262321 
L 300.411542 180.26249 
L 300.943939 180.261576 
L 300.943939 180.146213 
L 300.943939 180.146213 
L 300.411542 180.1453 
L 299.879145 180.145468 
L 299.346748 180.146014 
L 298.814351 180.146048 
L 298.281954 180.144633 
L 297.749557 180.140925 
L 297.21716 180.13428 
L 296.684764 180.124306 
L 296.152367 180.110839 
L 295.61997 180.09385 
L 295.087573 180.073298 
L 294.555176 180.048972 
L 294.022779 180.020338 
L 293.490382 179.986447 
L 292.957985 179.945928 
L 292.425588 179.897066 
L 291.893191 179.83799 
L 291.360794 179.766927 
L 290.828397 179.682503 
L 290.296 179.584013 
L 289.763603 179.471603 
L 289.231206 179.346278 
L 288.698809 179.209711 
L 288.166412 179.063836 
L 287.634015 178.910335 
L 287.101618 178.750149 
L 286.569222 178.583198 
L 286.036825 178.408455 
L 285.504428 178.224419 
L 284.972031 178.029889 
L 284.439634 177.824819 
L 283.907237 177.61094 
L 283.37484 177.391888 
L 282.842443 177.172696 
L 282.310046 176.958728 
L 281.777649 176.754325 
L 281.245252 176.561562 
L 280.712855 176.379516 
L 280.180458 176.204299 
L 279.648061 176.029906 
L 279.115664 175.849667 
L 278.583267 175.657952 
L 278.05087 175.451686 
L 277.518473 175.231317 
L 276.986077 175.001053 
L 276.45368 174.768349 
L 275.921283 174.542836 
L 275.388886 174.334973 
L 274.856489 174.154702 
L 274.324092 174.010342 
L 273.791695 173.907813 
L 273.259298 173.850198 
L 272.726901 173.837579 
L 272.194504 173.867077 
L 271.662107 173.933089 
L 271.12971 174.027753 
L 270.597313 174.14171 
L 270.064916 174.265157 
L 269.532519 174.389127 
L 269.000122 174.506764 
L 268.467725 174.614332 
L 267.935328 174.711689 
L 267.402931 174.802059 
L 266.870535 174.891144 
L 266.338138 174.985764 
L 265.805741 175.092392 
L 265.273344 175.215938 
L 264.740947 175.35906 
L 264.20855 175.522127 
L 263.676153 175.703714 
L 263.143756 175.901397 
L 262.611359 176.112522 
L 262.078962 176.33469 
L 261.546565 176.565835 
L 261.014168 176.803946 
L 260.481771 177.046628 
L 259.949374 177.290735 
L 259.416977 177.532296 
L 258.88458 177.766784 
L 258.352183 177.989688 
L 257.819786 178.197195 
L 257.28739 178.386774 
L 256.754993 178.557483 
L 256.222596 178.709926 
L 255.690199 178.845894 
L 255.157802 178.967818 
L 254.625405 179.078193 
L 254.093008 179.179131 
L 253.560611 179.272129 
L 253.028214 179.358068 
L 252.495817 179.437388 
L 251.96342 179.510359 
L 251.431023 179.577335 
L 250.898626 179.638909 
L 250.366229 179.695941 
L 249.833832 179.749448 
L 249.301435 179.800415 
L 248.769038 179.849582 
L 248.236641 179.897284 
z
" clip-path="url(#pb955da8aef)" style="fill: #008fd5; fill-opacity: 0.3"/>
   </g>
   <g id="PolyCollection_5">
    <path d="M 195.55681 154.575492 
L 195.55681 154.901772 
L 196.452486 154.926943 
L 197.348162 154.953736 
L 198.243838 154.982384 
L 199.139513 155.013153 
L 200.035189 155.046225 
L 200.930865 155.081578 
L 201.826541 155.118901 
L 202.722217 155.157581 
L 203.617893 155.196798 
L 204.513569 155.235716 
L 205.409244 155.273753 
L 206.30492 155.310847 
L 207.200596 155.347671 
L 208.096272 155.385711 
L 208.991948 155.427176 
L 209.887624 155.474739 
L 210.7833 155.531158 
L 211.678975 155.598839 
L 212.574651 155.679464 
L 213.470327 155.773742 
L 214.366003 155.881348 
L 215.261679 156.001062 
L 216.157355 156.13105 
L 217.053031 156.269224 
L 217.948706 156.413571 
L 218.844382 156.562388 
L 219.740058 156.714353 
L 220.635734 156.868447 
L 221.53141 157.023772 
L 222.427086 157.179334 
L 223.322762 157.333902 
L 224.218438 157.485991 
L 225.114113 157.634009 
L 226.009789 157.776548 
L 226.905465 157.912724 
L 227.801141 158.042508 
L 228.696817 158.166902 
L 229.592493 158.287927 
L 230.488169 158.408381 
L 231.383844 158.531402 
L 232.27952 158.659937 
L 233.175196 158.796224 
L 234.070872 158.941421 
L 234.966548 159.095453 
L 235.862224 159.257125 
L 236.7579 159.424454 
L 237.653575 159.595111 
L 238.549251 159.766851 
L 239.444927 159.937796 
L 240.340603 160.106481 
L 241.236279 160.271659 
L 242.131955 160.431901 
L 243.027631 160.585129 
L 243.923307 160.728201 
L 244.818982 160.856704 
L 245.714658 160.965025 
L 246.610334 161.046749 
L 247.50601 161.09533 
L 248.401686 161.104947 
L 249.297362 161.071366 
L 250.193038 160.992657 
L 251.088713 160.869612 
L 251.984389 160.705744 
L 252.880065 160.506882 
L 253.775741 160.28042 
L 254.671417 160.034394 
L 255.567093 159.776565 
L 256.462769 159.5137 
L 257.358444 159.251161 
L 258.25412 158.992818 
L 259.149796 158.741234 
L 260.045472 158.497993 
L 260.941148 158.264038 
L 261.836824 158.03992 
L 262.7325 157.825913 
L 263.628175 157.622013 
L 264.523851 157.427879 
L 265.419527 157.242787 
L 266.315203 157.065657 
L 267.210879 156.895164 
L 268.106555 156.729937 
L 269.002231 156.568796 
L 269.897907 156.410984 
L 270.793582 156.256342 
L 271.689258 156.105403 
L 272.584934 155.959377 
L 273.48061 155.820038 
L 274.376286 155.689512 
L 275.271962 155.569991 
L 276.167638 155.463417 
L 277.063313 155.371156 
L 277.958989 155.293738 
L 278.854665 155.230695 
L 279.750341 155.18055 
L 280.646017 155.140974 
L 281.541693 155.10908 
L 282.437369 155.081825 
L 283.333044 155.056425 
L 284.22872 155.030721 
L 284.22872 154.446542 
L 284.22872 154.446542 
L 283.333044 154.420838 
L 282.437369 154.395439 
L 281.541693 154.368183 
L 280.646017 154.336289 
L 279.750341 154.296713 
L 278.854665 154.246569 
L 277.958989 154.183525 
L 277.063313 154.106107 
L 276.167638 154.013846 
L 275.271962 153.907272 
L 274.376286 153.787752 
L 273.48061 153.657225 
L 272.584934 153.517886 
L 271.689258 153.37186 
L 270.793582 153.220921 
L 269.897907 153.066279 
L 269.002231 152.908467 
L 268.106555 152.747326 
L 267.210879 152.582099 
L 266.315203 152.411606 
L 265.419527 152.234476 
L 264.523851 152.049384 
L 263.628175 151.85525 
L 262.7325 151.65135 
L 261.836824 151.437343 
L 260.941148 151.213225 
L 260.045472 150.979271 
L 259.149796 150.73603 
L 258.25412 150.484446 
L 257.358444 150.226102 
L 256.462769 149.963563 
L 255.567093 149.700698 
L 254.671417 149.442869 
L 253.775741 149.196843 
L 252.880065 148.970381 
L 251.984389 148.771519 
L 251.088713 148.607651 
L 250.193038 148.484606 
L 249.297362 148.405898 
L 248.401686 148.372316 
L 247.50601 148.381933 
L 246.610334 148.430514 
L 245.714658 148.512238 
L 244.818982 148.620559 
L 243.923307 148.749062 
L 243.027631 148.892134 
L 242.131955 149.045362 
L 241.236279 149.205604 
L 240.340603 149.370782 
L 239.444927 149.539467 
L 238.549251 149.710412 
L 237.653575 149.882152 
L 236.7579 150.052809 
L 235.862224 150.220138 
L 234.966548 150.38181 
L 234.070872 150.535842 
L 233.175196 150.681039 
L 232.27952 150.817327 
L 231.383844 150.945861 
L 230.488169 151.068882 
L 229.592493 151.189336 
L 228.696817 151.310361 
L 227.801141 151.434755 
L 226.905465 151.564539 
L 226.009789 151.700716 
L 225.114113 151.843254 
L 224.218438 151.991273 
L 223.322762 152.143361 
L 222.427086 152.297929 
L 221.53141 152.453491 
L 220.635734 152.608816 
L 219.740058 152.76291 
L 218.844382 152.914875 
L 217.948706 153.063692 
L 217.053031 153.208039 
L 216.157355 153.346213 
L 215.261679 153.476202 
L 214.366003 153.595916 
L 213.470327 153.703522 
L 212.574651 153.797799 
L 211.678975 153.878424 
L 210.7833 153.946105 
L 209.887624 154.002524 
L 208.991948 154.050088 
L 208.096272 154.091552 
L 207.200596 154.129592 
L 206.30492 154.166416 
L 205.409244 154.20351 
L 204.513569 154.241547 
L 203.617893 154.280466 
L 202.722217 154.319682 
L 201.826541 154.358362 
L 200.930865 154.395685 
L 200.035189 154.431039 
L 199.139513 154.46411 
L 198.243838 154.494879 
L 197.348162 154.523527 
L 196.452486 154.55032 
L 195.55681 154.575492 
z
" clip-path="url(#pb955da8aef)" style="fill: #008fd5; fill-opacity: 0.3"/>
   </g>
   <g id="PolyCollection_6">
    <path d="M 197.576148 129.055918 
L 197.576148 129.490819 
L 198.540891 129.547051 
L 199.505634 129.612196 
L 200.470376 129.686019 
L 201.435119 129.767883 
L 202.399862 129.856857 
L 203.364605 129.95189 
L 204.329347 130.052023 
L 205.29409 130.156588 
L 206.258833 130.265379 
L 207.223575 130.378753 
L 208.188318 130.497675 
L 209.153061 130.623694 
L 210.117803 130.758825 
L 211.082546 130.905338 
L 212.047289 131.065416 
L 213.012031 131.24072 
L 213.976774 131.431913 
L 214.941517 131.638284 
L 215.906259 131.857572 
L 216.871002 132.086122 
L 217.835745 132.319392 
L 218.800487 132.552727 
L 219.76523 132.78224 
L 220.729973 133.005565 
L 221.694715 133.222275 
L 222.659458 133.433825 
L 223.624201 133.643014 
L 224.588943 133.853072 
L 225.553686 134.066581 
L 226.518429 134.284495 
L 227.483171 134.505442 
L 228.447914 134.725497 
L 229.412657 134.938429 
L 230.3774 135.136388 
L 231.342142 135.310885 
L 232.306885 135.453881 
L 233.271628 135.558799 
L 234.23637 135.621297 
L 235.201113 135.639684 
L 236.165856 135.614956 
L 237.130598 135.550478 
L 238.095341 135.451394 
L 239.060084 135.323894 
L 240.024826 135.174434 
L 240.989569 135.009031 
L 241.954312 134.832709 
L 242.919054 134.649168 
L 243.883797 134.460731 
L 244.84854 134.26859 
L 245.813282 134.073288 
L 246.778025 133.875352 
L 247.742768 133.675876 
L 248.70751 133.476883 
L 249.672253 133.281312 
L 250.636996 133.092615 
L 251.601738 132.914067 
L 252.566481 132.748008 
L 253.531224 132.595253 
L 254.495966 132.454861 
L 255.460709 132.324324 
L 256.425452 132.200075 
L 257.390194 132.078167 
L 258.354937 131.954911 
L 259.31968 131.827355 
L 260.284423 131.693541 
L 261.249165 131.5526 
L 262.213908 131.404721 
L 263.178651 131.251068 
L 264.143393 131.093648 
L 265.108136 130.935119 
L 266.072879 130.778513 
L 267.037621 130.626891 
L 268.002364 130.482968 
L 268.967107 130.348798 
L 269.931849 130.225568 
L 270.896592 130.113568 
L 271.861335 130.012317 
L 272.826077 129.920809 
L 273.79082 129.837801 
L 274.755563 129.762093 
L 275.720305 129.692721 
L 276.685048 129.62907 
L 277.649791 129.570881 
L 278.614533 129.518194 
L 279.579276 129.471237 
L 280.544019 129.430306 
L 281.508761 129.395649 
L 282.473504 129.367377 
L 283.438247 129.345415 
L 284.402989 129.329469 
L 285.367732 129.319032 
L 286.332475 129.3134 
L 287.297218 129.311698 
L 288.26196 129.312918 
L 289.226703 129.315973 
L 290.191446 129.319764 
L 291.156188 129.323271 
L 292.120931 129.325649 
L 293.085674 129.326309 
L 293.085674 129.220428 
L 293.085674 129.220428 
L 292.120931 129.221088 
L 291.156188 129.223466 
L 290.191446 129.226973 
L 289.226703 129.230764 
L 288.26196 129.233819 
L 287.297218 129.235039 
L 286.332475 129.233337 
L 285.367732 129.227705 
L 284.402989 129.217268 
L 283.438247 129.201322 
L 282.473504 129.179359 
L 281.508761 129.151088 
L 280.544019 129.116431 
L 279.579276 129.0755 
L 278.614533 129.028543 
L 277.649791 128.975856 
L 276.685048 128.917667 
L 275.720305 128.854016 
L 274.755563 128.784644 
L 273.79082 128.708936 
L 272.826077 128.625928 
L 271.861335 128.53442 
L 270.896592 128.433169 
L 269.931849 128.321169 
L 268.967107 128.197939 
L 268.002364 128.063769 
L 267.037621 127.919846 
L 266.072879 127.768223 
L 265.108136 127.611618 
L 264.143393 127.453089 
L 263.178651 127.295669 
L 262.213908 127.142016 
L 261.249165 126.994137 
L 260.284423 126.853196 
L 259.31968 126.719382 
L 258.354937 126.591825 
L 257.390194 126.46857 
L 256.425452 126.346662 
L 255.460709 126.222413 
L 254.495966 126.091876 
L 253.531224 125.951484 
L 252.566481 125.798729 
L 251.601738 125.63267 
L 250.636996 125.454122 
L 249.672253 125.265425 
L 248.70751 125.069853 
L 247.742768 124.870861 
L 246.778025 124.671385 
L 245.813282 124.473449 
L 244.84854 124.278147 
L 243.883797 124.086005 
L 242.919054 123.897569 
L 241.954312 123.714028 
L 240.989569 123.537706 
L 240.024826 123.372303 
L 239.060084 123.222843 
L 238.095341 123.095343 
L 237.130598 122.996259 
L 236.165856 122.931781 
L 235.201113 122.907053 
L 234.23637 122.925439 
L 233.271628 122.987938 
L 232.306885 123.092856 
L 231.342142 123.235852 
L 230.3774 123.410349 
L 229.412657 123.608308 
L 228.447914 123.82124 
L 227.483171 124.041295 
L 226.518429 124.262242 
L 225.553686 124.480156 
L 224.588943 124.693665 
L 223.624201 124.903722 
L 222.659458 125.112912 
L 221.694715 125.324462 
L 220.729973 125.541172 
L 219.76523 125.764497 
L 218.800487 125.99401 
L 217.835745 126.227345 
L 216.871002 126.460615 
L 215.906259 126.689165 
L 214.941517 126.908453 
L 213.976774 127.114823 
L 213.012031 127.306017 
L 212.047289 127.481321 
L 211.082546 127.641399 
L 210.117803 127.787912 
L 209.153061 127.923043 
L 208.188318 128.049061 
L 207.223575 128.167984 
L 206.258833 128.281358 
L 205.29409 128.390149 
L 204.329347 128.494714 
L 203.364605 128.594846 
L 202.399862 128.68988 
L 201.435119 128.778854 
L 200.470376 128.860718 
L 199.505634 128.934541 
L 198.540891 128.999686 
L 197.576148 129.055918 
z
" clip-path="url(#pb955da8aef)" style="fill: #008fd5; fill-opacity: 0.3"/>
   </g>
   <g id="PolyCollection_7">
    <path d="M 157.420511 103.624061 
L 157.420511 103.992149 
L 159.073693 104.015794 
L 160.726875 104.042756 
L 162.380056 104.074834 
L 164.033238 104.114065 
L 165.68642 104.162475 
L 167.339602 104.221794 
L 168.992784 104.293179 
L 170.645966 104.377003 
L 172.299148 104.472716 
L 173.95233 104.578832 
L 175.605512 104.693022 
L 177.258694 104.812319 
L 178.911876 104.933421 
L 180.565058 105.053062 
L 182.21824 105.168425 
L 183.871422 105.277573 
L 185.524603 105.379852 
L 187.177785 105.476208 
L 188.830967 105.569373 
L 190.484149 105.663834 
L 192.137331 105.765552 
L 193.790513 105.881395 
L 195.443695 106.018334 
L 197.096877 106.182472 
L 198.750059 106.378082 
L 200.403241 106.606793 
L 202.056423 106.86711 
L 203.709605 107.154373 
L 205.362787 107.461165 
L 207.015969 107.7781 
L 208.66915 108.094846 
L 210.322332 108.401183 
L 211.975514 108.687929 
L 213.628696 108.947632 
L 215.281878 109.174959 
L 216.93506 109.36684 
L 218.588242 109.522422 
L 220.241424 109.642898 
L 221.894606 109.731272 
L 223.547788 109.792068 
L 225.20097 109.830959 
L 226.854152 109.854313 
L 228.507334 109.868649 
L 230.160516 109.880044 
L 231.813697 109.893554 
L 233.466879 109.912744 
L 235.120061 109.939388 
L 236.773243 109.973414 
L 238.426425 110.013082 
L 240.079607 110.055365 
L 241.732789 110.096463 
L 243.385971 110.132351 
L 245.039153 110.159272 
L 246.692335 110.174084 
L 248.345517 110.174421 
L 249.998699 110.158642 
L 251.651881 110.125594 
L 253.305063 110.074263 
L 254.958244 110.003418 
L 256.611426 109.91136 
L 258.264608 109.795888 
L 259.91779 109.654527 
L 261.570972 109.485006 
L 263.224154 109.285895 
L 264.877336 109.057235 
L 266.530518 108.801005 
L 268.1837 108.521282 
L 269.836882 108.224038 
L 271.490064 107.916585 
L 273.143246 107.606811 
L 274.796428 107.302329 
L 276.44961 107.009734 
L 278.102791 106.73407 
L 279.755973 106.478571 
L 281.409155 106.244692 
L 283.062337 106.032352 
L 284.715519 105.840326 
L 286.368701 105.666704 
L 288.021883 105.509315 
L 289.675065 105.366087 
L 291.328247 105.235285 
L 292.981429 105.115619 
L 294.634611 105.006219 
L 296.287793 104.906515 
L 297.940975 104.816057 
L 299.594157 104.734327 
L 301.247338 104.660596 
L 302.90052 104.593864 
L 304.553702 104.532884 
L 306.206884 104.47628 
L 307.860066 104.4227 
L 309.513248 104.370982 
L 311.16643 104.320295 
L 312.819612 104.270202 
L 314.472794 104.220669 
L 316.125976 104.172006 
L 317.779158 104.124762 
L 319.43234 104.07961 
L 321.085522 104.037235 
L 321.085522 103.578975 
L 321.085522 103.578975 
L 319.43234 103.5366 
L 317.779158 103.491449 
L 316.125976 103.444204 
L 314.472794 103.395541 
L 312.819612 103.346009 
L 311.16643 103.295916 
L 309.513248 103.245228 
L 307.860066 103.193511 
L 306.206884 103.13993 
L 304.553702 103.083326 
L 302.90052 103.022347 
L 301.247338 102.955614 
L 299.594157 102.881884 
L 297.940975 102.800153 
L 296.287793 102.709695 
L 294.634611 102.609992 
L 292.981429 102.500591 
L 291.328247 102.380925 
L 289.675065 102.250123 
L 288.021883 102.106895 
L 286.368701 101.949506 
L 284.715519 101.775884 
L 283.062337 101.583859 
L 281.409155 101.371518 
L 279.755973 101.137639 
L 278.102791 100.882141 
L 276.44961 100.606476 
L 274.796428 100.313882 
L 273.143246 100.0094 
L 271.490064 99.699625 
L 269.836882 99.392173 
L 268.1837 99.094928 
L 266.530518 98.815206 
L 264.877336 98.558976 
L 263.224154 98.330316 
L 261.570972 98.131204 
L 259.91779 97.961684 
L 258.264608 97.820322 
L 256.611426 97.70485 
L 254.958244 97.612793 
L 253.305063 97.541948 
L 251.651881 97.490617 
L 249.998699 97.457568 
L 248.345517 97.441789 
L 246.692335 97.442127 
L 245.039153 97.456938 
L 243.385971 97.483859 
L 241.732789 97.519748 
L 240.079607 97.560846 
L 238.426425 97.603129 
L 236.773243 97.642796 
L 235.120061 97.676822 
L 233.466879 97.703466 
L 231.813697 97.722656 
L 230.160516 97.736167 
L 228.507334 97.747562 
L 226.854152 97.761897 
L 225.20097 97.785251 
L 223.547788 97.824142 
L 221.894606 97.884938 
L 220.241424 97.973313 
L 218.588242 98.093788 
L 216.93506 98.24937 
L 215.281878 98.441252 
L 213.628696 98.668579 
L 211.975514 98.928281 
L 210.322332 99.215028 
L 208.66915 99.521364 
L 207.015969 99.83811 
L 205.362787 100.155046 
L 203.709605 100.461837 
L 202.056423 100.749101 
L 200.403241 101.009418 
L 198.750059 101.238128 
L 197.096877 101.433738 
L 195.443695 101.597877 
L 193.790513 101.734815 
L 192.137331 101.850658 
L 190.484149 101.952376 
L 188.830967 102.046838 
L 187.177785 102.140003 
L 185.524603 102.236359 
L 183.871422 102.338637 
L 182.21824 102.447786 
L 180.565058 102.563148 
L 178.911876 102.682789 
L 177.258694 102.803892 
L 175.605512 102.923189 
L 173.95233 103.037378 
L 172.299148 103.143494 
L 170.645966 103.239208 
L 168.992784 103.323031 
L 167.339602 103.394417 
L 165.68642 103.453735 
L 164.033238 103.502145 
L 162.380056 103.541377 
L 160.726875 103.573455 
L 159.073693 103.600417 
L 157.420511 103.624061 
z
" clip-path="url(#pb955da8aef)" style="fill: #008fd5; fill-opacity: 0.3"/>
   </g>
   <g id="PolyCollection_8">
    <path d="M 158.083344 78.171656 
L 158.083344 78.514028 
L 159.215023 78.54371 
L 160.346701 78.576244 
L 161.478379 78.6133 
L 162.610057 78.657301 
L 163.741736 78.711187 
L 164.873414 78.778056 
L 166.005092 78.860746 
L 167.13677 78.961471 
L 168.268449 79.081616 
L 169.400127 79.221756 
L 170.531805 79.381901 
L 171.663484 79.561931 
L 172.795162 79.762058 
L 173.92684 79.983164 
L 175.058518 80.226802 
L 176.190197 80.494752 
L 177.321875 80.78814 
L 178.453553 81.106292 
L 179.585232 81.445684 
L 180.71691 81.799367 
L 181.848588 82.1572 
L 182.980266 82.507009 
L 184.111945 82.83649 
L 185.243623 83.135418 
L 186.375301 83.397553 
L 187.50698 83.621688 
L 188.638658 83.811458 
L 189.770336 83.97391 
L 190.902014 84.117214 
L 192.033693 84.248156 
L 193.165371 84.370136 
L 194.297049 84.482245 
L 195.428728 84.579623 
L 196.560406 84.654895 
L 197.692084 84.700197 
L 198.823762 84.709158 
L 199.955441 84.678335 
L 201.087119 84.607852 
L 202.218797 84.501236 
L 203.350476 84.36469 
L 204.482154 84.20604 
L 205.613832 84.033617 
L 206.74551 83.855215 
L 207.877189 83.677213 
L 209.008867 83.503935 
L 210.140545 83.337341 
L 211.272224 83.177125 
L 212.403902 83.021255 
L 213.53558 82.866867 
L 214.667258 82.711305 
L 215.798937 82.553004 
L 216.930615 82.391933 
L 218.062293 82.229457 
L 219.193972 82.067669 
L 220.32565 81.90843 
L 221.457328 81.752491 
L 222.589006 81.598991 
L 223.720685 81.445533 
L 224.852363 81.288801 
L 225.984041 81.125525 
L 227.11572 80.953487 
L 228.247398 80.772281 
L 229.379076 80.583628 
L 230.510754 80.391177 
L 231.642433 80.199873 
L 232.774111 80.015076 
L 233.905789 79.841628 
L 235.037467 79.683076 
L 236.169146 79.541186 
L 237.300824 79.415826 
L 238.432502 79.305209 
L 239.564181 79.206434 
L 240.695859 79.1162 
L 241.827537 79.03154 
L 242.959215 78.950398 
L 244.090894 78.871934 
L 245.222572 78.796495 
L 246.35425 78.725286 
L 247.485929 78.659869 
L 248.617607 78.601661 
L 249.749285 78.551567 
L 250.880963 78.509836 
L 252.012642 78.476136 
L 253.14432 78.449767 
L 254.275998 78.429903 
L 255.407677 78.415776 
L 256.539355 78.406738 
L 257.671033 78.402231 
L 258.802711 78.401689 
L 259.93439 78.404435 
L 261.066068 78.409628 
L 262.197746 78.416272 
L 263.329425 78.423285 
L 264.461103 78.429606 
L 265.592781 78.434306 
L 266.724459 78.436677 
L 267.856138 78.436299 
L 268.987816 78.43306 
L 270.119494 78.427151 
L 270.119494 78.258533 
L 270.119494 78.258533 
L 268.987816 78.252624 
L 267.856138 78.249386 
L 266.724459 78.249008 
L 265.592781 78.251379 
L 264.461103 78.256078 
L 263.329425 78.262399 
L 262.197746 78.269412 
L 261.066068 78.276056 
L 259.93439 78.281249 
L 258.802711 78.283995 
L 257.671033 78.283453 
L 256.539355 78.278946 
L 255.407677 78.269908 
L 254.275998 78.255781 
L 253.14432 78.235918 
L 252.012642 78.209549 
L 250.880963 78.175849 
L 249.749285 78.134117 
L 248.617607 78.084023 
L 247.485929 78.025815 
L 246.35425 77.960398 
L 245.222572 77.889189 
L 244.090894 77.81375 
L 242.959215 77.735286 
L 241.827537 77.654144 
L 240.695859 77.569484 
L 239.564181 77.479251 
L 238.432502 77.380476 
L 237.300824 77.269859 
L 236.169146 77.144498 
L 235.037467 77.002608 
L 233.905789 76.844056 
L 232.774111 76.670609 
L 231.642433 76.485812 
L 230.510754 76.294508 
L 229.379076 76.102056 
L 228.247398 75.913403 
L 227.11572 75.732198 
L 225.984041 75.560159 
L 224.852363 75.396883 
L 223.720685 75.240151 
L 222.589006 75.086693 
L 221.457328 74.933193 
L 220.32565 74.777254 
L 219.193972 74.618016 
L 218.062293 74.456227 
L 216.930615 74.293751 
L 215.798937 74.13268 
L 214.667258 73.974379 
L 213.53558 73.818817 
L 212.403902 73.664429 
L 211.272224 73.508559 
L 210.140545 73.348343 
L 209.008867 73.181749 
L 207.877189 73.008471 
L 206.74551 72.830469 
L 205.613832 72.652068 
L 204.482154 72.479645 
L 203.350476 72.320994 
L 202.218797 72.184448 
L 201.087119 72.077833 
L 199.955441 72.007349 
L 198.823762 71.976526 
L 197.692084 71.985487 
L 196.560406 72.030789 
L 195.428728 72.106061 
L 194.297049 72.203439 
L 193.165371 72.315548 
L 192.033693 72.437528 
L 190.902014 72.56847 
L 189.770336 72.711774 
L 188.638658 72.874226 
L 187.50698 73.063996 
L 186.375301 73.288132 
L 185.243623 73.550267 
L 184.111945 73.849194 
L 182.980266 74.178675 
L 181.848588 74.528484 
L 180.71691 74.886317 
L 179.585232 75.24 
L 178.453553 75.579392 
L 177.321875 75.897544 
L 176.190197 76.190932 
L 175.058518 76.458883 
L 173.92684 76.70252 
L 172.795162 76.923626 
L 171.663484 77.123754 
L 170.531805 77.303783 
L 169.400127 77.463929 
L 168.268449 77.604068 
L 167.13677 77.724213 
L 166.005092 77.824938 
L 164.873414 77.907628 
L 163.741736 77.974497 
L 162.610057 78.028384 
L 161.478379 78.072384 
L 160.346701 78.109441 
L 159.215023 78.141974 
L 158.083344 78.171656 
z
" clip-path="url(#pb955da8aef)" style="fill: #008fd5; fill-opacity: 0.3"/>
   </g>
   <g id="PolyCollection_9">
    <path d="M 39.801477 52.721764 
L 39.801477 53.033394 
L 41.948907 53.066698 
L 44.096337 53.104999 
L 46.243767 53.148802 
L 48.391197 53.198543 
L 50.538627 53.254516 
L 52.686057 53.316811 
L 54.833487 53.38529 
L 56.980917 53.459623 
L 59.128347 53.539406 
L 61.275777 53.62436 
L 63.423207 53.714577 
L 65.570637 53.810757 
L 67.718067 53.914357 
L 69.865497 54.027577 
L 72.012927 54.153125 
L 74.160357 54.293763 
L 76.307787 54.451706 
L 78.455217 54.628006 
L 80.602647 54.822085 
L 82.750077 55.031577 
L 84.897507 55.252578 
L 87.044937 55.480295 
L 89.192367 55.709978 
L 91.339797 55.937919 
L 93.487227 56.162256 
L 95.634657 56.383354 
L 97.782087 56.603626 
L 99.929517 56.826786 
L 102.076947 57.056725 
L 104.224377 57.296231 
L 106.371807 57.545907 
L 108.519237 57.803504 
L 110.666667 58.063834 
L 112.814097 58.319233 
L 114.961527 58.560442 
L 117.108957 58.777665 
L 119.256387 58.9616 
L 121.403817 59.104278 
L 123.551247 59.199643 
L 125.698677 59.243895 
L 127.846107 59.235646 
L 129.993537 59.175964 
L 132.140967 59.068298 
L 134.288397 58.918303 
L 136.435827 58.733514 
L 138.583257 58.522858 
L 140.730687 58.29603 
L 142.878117 58.062791 
L 145.025547 57.83225 
L 147.172977 57.612226 
L 149.320407 57.408742 
L 151.467837 57.225676 
L 153.615267 57.064603 
L 155.762697 56.924811 
L 157.910127 56.803502 
L 160.057557 56.696188 
L 162.204987 56.597245 
L 164.352417 56.500614 
L 166.499847 56.400576 
L 168.647277 56.292508 
L 170.794707 56.173514 
L 172.942137 56.042809 
L 175.089567 55.901774 
L 177.236997 55.753644 
L 179.384427 55.602862 
L 181.531857 55.454199 
L 183.679287 55.311828 
L 185.826717 55.178523 
L 187.974147 55.05517 
L 190.121577 54.940697 
L 192.269007 54.832428 
L 194.416437 54.726775 
L 196.563867 54.620089 
L 198.711297 54.509476 
L 200.858726 54.39339 
L 203.006156 54.271898 
L 205.153586 54.146591 
L 207.301016 54.020197 
L 209.448446 53.896039 
L 211.595876 53.77745 
L 213.743306 53.667286 
L 215.890736 53.567606 
L 218.038166 53.479541 
L 220.185596 53.403333 
L 222.333026 53.338493 
L 224.480456 53.28402 
L 226.627886 53.238628 
L 228.775316 53.200942 
L 230.922746 53.169635 
L 233.070176 53.143509 
L 235.217606 53.121522 
L 237.365036 53.102769 
L 239.512466 53.086445 
L 241.659896 53.071812 
L 243.807326 53.058183 
L 245.954756 53.044933 
L 248.102186 53.031546 
L 250.249616 53.017662 
L 252.397046 53.00313 
L 252.397046 52.752028 
L 252.397046 52.752028 
L 250.249616 52.737495 
L 248.102186 52.723612 
L 245.954756 52.710225 
L 243.807326 52.696975 
L 241.659896 52.683346 
L 239.512466 52.668713 
L 237.365036 52.652389 
L 235.217606 52.633636 
L 233.070176 52.611649 
L 230.922746 52.585523 
L 228.775316 52.554215 
L 226.627886 52.516529 
L 224.480456 52.471138 
L 222.333026 52.416665 
L 220.185596 52.351825 
L 218.038166 52.275617 
L 215.890736 52.187552 
L 213.743306 52.087872 
L 211.595876 51.977708 
L 209.448446 51.859119 
L 207.301016 51.734961 
L 205.153586 51.608567 
L 203.006156 51.48326 
L 200.858726 51.361768 
L 198.711297 51.245682 
L 196.563867 51.135069 
L 194.416437 51.028383 
L 192.269007 50.92273 
L 190.121577 50.814461 
L 187.974147 50.699988 
L 185.826717 50.576635 
L 183.679287 50.44333 
L 181.531857 50.300959 
L 179.384427 50.152296 
L 177.236997 50.001513 
L 175.089567 49.853384 
L 172.942137 49.712349 
L 170.794707 49.581644 
L 168.647277 49.46265 
L 166.499847 49.354582 
L 164.352417 49.254544 
L 162.204987 49.157913 
L 160.057557 49.05897 
L 157.910127 48.951656 
L 155.762697 48.830347 
L 153.615267 48.690554 
L 151.467837 48.529482 
L 149.320407 48.346416 
L 147.172977 48.142932 
L 145.025547 47.922908 
L 142.878117 47.692367 
L 140.730687 47.459128 
L 138.583257 47.2323 
L 136.435827 47.021644 
L 134.288397 46.836855 
L 132.140967 46.68686 
L 129.993537 46.579194 
L 127.846107 46.519512 
L 125.698677 46.511263 
L 123.551247 46.555515 
L 121.403817 46.65088 
L 119.256387 46.793558 
L 117.108957 46.977493 
L 114.961527 47.194715 
L 112.814097 47.435924 
L 110.666667 47.691324 
L 108.519237 47.951654 
L 106.371807 48.209251 
L 104.224377 48.458927 
L 102.076947 48.698433 
L 99.929517 48.928371 
L 97.782087 49.151532 
L 95.634657 49.371803 
L 93.487227 49.592902 
L 91.339797 49.817239 
L 89.192367 50.04518 
L 87.044937 50.274863 
L 84.897507 50.50258 
L 82.750077 50.723581 
L 80.602647 50.933073 
L 78.455217 51.127152 
L 76.307787 51.303452 
L 74.160357 51.461395 
L 72.012927 51.602033 
L 69.865497 51.727581 
L 67.718067 51.840801 
L 65.570637 51.944401 
L 63.423207 52.04058 
L 61.275777 52.130798 
L 59.128347 52.215752 
L 56.980917 52.295535 
L 54.833487 52.369868 
L 52.686057 52.438347 
L 50.538627 52.500642 
L 48.391197 52.556615 
L 46.243767 52.606356 
L 44.096337 52.650159 
L 41.948907 52.68846 
L 39.801477 52.721764 
z
" clip-path="url(#pb955da8aef)" style="fill: #008fd5; fill-opacity: 0.3"/>
   </g>
   <g id="PolyCollection_10">
    <path d="M 120.508099 27.288805 
L 120.508099 27.535826 
L 122.683028 27.557942 
L 124.857958 27.582072 
L 127.032888 27.608136 
L 129.207817 27.635888 
L 131.382747 27.664882 
L 133.557676 27.694472 
L 135.732606 27.723896 
L 137.907536 27.752398 
L 140.082465 27.779417 
L 142.257395 27.804776 
L 144.432324 27.828864 
L 146.607254 27.852758 
L 148.782184 27.878276 
L 150.957113 27.907919 
L 153.132043 27.944712 
L 155.306972 27.99193 
L 157.481902 28.052735 
L 159.656831 28.129745 
L 161.831761 28.224593 
L 164.006691 28.337544 
L 166.18162 28.46728 
L 168.35655 28.610936 
L 170.531479 28.764472 
L 172.706409 28.923365 
L 174.881339 29.08355 
L 177.056268 29.242423 
L 179.231198 29.399658 
L 181.406127 29.557611 
L 183.581057 29.721116 
L 185.755987 29.896659 
L 187.930916 30.091055 
L 190.105846 30.309898 
L 192.280775 30.556164 
L 194.455705 30.829271 
L 196.630635 31.124862 
L 198.805564 31.435318 
L 200.980494 31.750876 
L 203.155423 32.061063 
L 205.330353 32.356093 
L 207.505283 32.627935 
L 209.680212 32.870901 
L 211.855142 33.081737 
L 214.030071 33.259355 
L 216.205001 33.404408 
L 218.379931 33.518887 
L 220.55486 33.605815 
L 222.72979 33.669032 
L 224.904719 33.712954 
L 227.079649 33.7422 
L 229.254579 33.761033 
L 231.429508 33.77267 
L 233.604438 33.778632 
L 235.779367 33.778292 
L 237.954297 33.76881 
L 240.129227 33.745472 
L 242.304156 33.702382 
L 244.479086 33.633363 
L 246.654015 33.532895 
L 248.828945 33.396981 
L 251.003875 33.223845 
L 253.178804 33.014418 
L 255.353734 32.772575 
L 257.528663 32.50503 
L 259.703593 32.220829 
L 261.878523 31.930412 
L 264.053452 31.644324 
L 266.228382 31.371753 
L 268.403311 31.11921 
L 270.578241 30.889641 
L 272.753171 30.682238 
L 274.9281 30.492989 
L 277.10303 30.315875 
L 279.277959 30.144401 
L 281.452889 29.97308 
L 283.627819 29.798526 
L 285.802748 29.619937 
L 287.977678 29.438913 
L 290.152607 29.258768 
L 292.327537 29.083567 
L 294.502467 28.917178 
L 296.677396 28.762556 
L 298.852326 28.621381 
L 301.027255 28.494051 
L 303.202185 28.379949 
L 305.377115 28.277847 
L 307.552044 28.186324 
L 309.726974 28.104077 
L 311.901903 28.030097 
L 314.076833 27.963696 
L 316.251762 27.904423 
L 318.426692 27.851916 
L 320.601622 27.805762 
L 322.776551 27.765373 
L 324.951481 27.729949 
L 327.12641 27.698501 
L 329.30134 27.669946 
L 331.47627 27.64325 
L 333.651199 27.617577 
L 335.826129 27.592405 
L 335.826129 27.232227 
L 335.826129 27.232227 
L 333.651199 27.207055 
L 331.47627 27.181381 
L 329.30134 27.154686 
L 327.12641 27.126131 
L 324.951481 27.094682 
L 322.776551 27.059259 
L 320.601622 27.01887 
L 318.426692 26.972715 
L 316.251762 26.920209 
L 314.076833 26.860935 
L 311.901903 26.794534 
L 309.726974 26.720554 
L 307.552044 26.638307 
L 305.377115 26.546784 
L 303.202185 26.444683 
L 301.027255 26.33058 
L 298.852326 26.20325 
L 296.677396 26.062075 
L 294.502467 25.907454 
L 292.327537 25.741065 
L 290.152607 25.565863 
L 287.977678 25.385718 
L 285.802748 25.204694 
L 283.627819 25.026105 
L 281.452889 24.851552 
L 279.277959 24.68023 
L 277.10303 24.508756 
L 274.9281 24.331643 
L 272.753171 24.142394 
L 270.578241 23.93499 
L 268.403311 23.705422 
L 266.228382 23.452878 
L 264.053452 23.180308 
L 261.878523 22.89422 
L 259.703593 22.603803 
L 257.528663 22.319601 
L 255.353734 22.052056 
L 253.178804 21.810214 
L 251.003875 21.600787 
L 248.828945 21.42765 
L 246.654015 21.291736 
L 244.479086 21.191269 
L 242.304156 21.122249 
L 240.129227 21.07916 
L 237.954297 21.055822 
L 235.779367 21.04634 
L 233.604438 21.046 
L 231.429508 21.051961 
L 229.254579 21.063599 
L 227.079649 21.082431 
L 224.904719 21.111677 
L 222.72979 21.1556 
L 220.55486 21.218816 
L 218.379931 21.305744 
L 216.205001 21.420223 
L 214.030071 21.565277 
L 211.855142 21.742895 
L 209.680212 21.953731 
L 207.505283 22.196697 
L 205.330353 22.468539 
L 203.155423 22.763568 
L 200.980494 23.073756 
L 198.805564 23.389314 
L 196.630635 23.699769 
L 194.455705 23.995361 
L 192.280775 24.268468 
L 190.105846 24.514733 
L 187.930916 24.733577 
L 185.755987 24.927972 
L 183.581057 25.103516 
L 181.406127 25.267021 
L 179.231198 25.424974 
L 177.056268 25.582209 
L 174.881339 25.741081 
L 172.706409 25.901266 
L 170.531479 26.060159 
L 168.35655 26.213695 
L 166.18162 26.357352 
L 164.006691 26.487087 
L 161.831761 26.600038 
L 159.656831 26.694886 
L 157.481902 26.771897 
L 155.306972 26.832702 
L 153.132043 26.87992 
L 150.957113 26.916712 
L 148.782184 26.946356 
L 146.607254 26.971874 
L 144.432324 26.995768 
L 142.257395 27.019855 
L 140.082465 27.045214 
L 137.907536 27.072233 
L 135.732606 27.100736 
L 133.557676 27.130159 
L 131.382747 27.15975 
L 129.207817 27.188743 
L 127.032888 27.216496 
L 124.857958 27.242559 
L 122.683028 27.266689 
L 120.508099 27.288805 
z
" clip-path="url(#pb955da8aef)" style="fill: #008fd5; fill-opacity: 0.3"/>
   </g>
   <g id="matplotlib.axis_1">
    <g id="xtick_1">
     <g id="line2d_1">
      <defs>
       <path id="m0b14784798" d="M 0 1.75 
L 0 -1.75 
" style="stroke: #000000; stroke-width: 0.8"/>
      </defs>
      <g>
       <use xlink:href="#m0b14784798" x="74.09394" y="275.062" style="stroke: #000000; stroke-width: 0.8"/>
      </g>
     </g>
     <g id="line2d_2">
      <g>
       <use xlink:href="#m0b14784798" x="74.09394" y="8.95" style="stroke: #000000; stroke-width: 0.8"/>
      </g>
     </g>
     <g id="text_1">
      <!-- 60 -->
      <g transform="translate(65.534565 287.452625)scale(0.1 -0.1)">
       <defs>
        <path id="HelveticaNeue-Medium-2212" d="M 3533 1293 
L 3533 1946 
L 307 1946 
L 307 1293 
L 3533 1293 
z
" transform="scale(0.015625)"/>
        <path id="HelveticaNeue-Medium-36" d="M 1824 518 
C 1293 518 1018 966 1018 1453 
C 1018 1946 1293 2368 1824 2368 
C 2349 2368 2611 1933 2611 1453 
C 2611 973 2349 518 1824 518 
z
M 3258 3347 
C 3219 4077 2618 4570 1907 4570 
C 640 4570 218 3322 218 2253 
C 218 947 531 -90 1850 -90 
C 2746 -90 3341 570 3341 1440 
C 3341 2298 2816 2944 1926 2944 
C 1530 2944 1158 2765 960 2413 
L 947 2426 
C 992 3014 1082 3962 1875 3962 
C 2253 3962 2496 3712 2528 3347 
L 3258 3347 
z
" transform="scale(0.015625)"/>
        <path id="HelveticaNeue-Medium-30" d="M 1779 518 
C 1139 518 960 1306 960 2240 
C 960 3174 1139 3962 1779 3962 
C 2419 3962 2598 3174 2598 2240 
C 2598 1306 2419 518 1779 518 
z
M 1779 4570 
C 493 4570 230 3258 230 2240 
C 230 1222 493 -90 1779 -90 
C 3066 -90 3328 1222 3328 2240 
C 3328 3258 3066 4570 1779 4570 
z
" transform="scale(0.015625)"/>
       </defs>
       <use xlink:href="#HelveticaNeue-Medium-2212"/>
       <use xlink:href="#HelveticaNeue-Medium-36" x="59.999985"/>
       <use xlink:href="#HelveticaNeue-Medium-30" x="115.599976"/>
      </g>
     </g>
    </g>
    <g id="xtick_2">
     <g id="line2d_3">
      <g>
       <use xlink:href="#m0b14784798" x="129.688314" y="275.062" style="stroke: #000000; stroke-width: 0.8"/>
      </g>
     </g>
     <g id="line2d_4">
      <g>
       <use xlink:href="#m0b14784798" x="129.688314" y="8.95" style="stroke: #000000; stroke-width: 0.8"/>
      </g>
     </g>
     <g id="text_2">
      <!-- 40 -->
      <g transform="translate(121.128939 287.452625)scale(0.1 -0.1)">
       <defs>
        <path id="HelveticaNeue-Medium-34" d="M 3341 1638 
L 2765 1638 
L 2765 4480 
L 2074 4480 
L 154 1786 
L 154 1062 
L 2074 1062 
L 2074 0 
L 2765 0 
L 2765 1062 
L 3341 1062 
L 3341 1638 
z
M 2061 3610 
L 2074 3610 
L 2074 1638 
L 717 1638 
L 2061 3610 
z
" transform="scale(0.015625)"/>
       </defs>
       <use xlink:href="#HelveticaNeue-Medium-2212"/>
       <use xlink:href="#HelveticaNeue-Medium-34" x="59.999985"/>
       <use xlink:href="#HelveticaNeue-Medium-30" x="115.599976"/>
      </g>
     </g>
    </g>
    <g id="xtick_3">
     <g id="line2d_5">
      <g>
       <use xlink:href="#m0b14784798" x="185.282689" y="275.062" style="stroke: #000000; stroke-width: 0.8"/>
      </g>
     </g>
     <g id="line2d_6">
      <g>
       <use xlink:href="#m0b14784798" x="185.282689" y="8.95" style="stroke: #000000; stroke-width: 0.8"/>
      </g>
     </g>
     <g id="text_3">
      <!-- 20 -->
      <g transform="translate(176.723314 287.452625)scale(0.1 -0.1)">
       <defs>
        <path id="HelveticaNeue-Medium-32" d="M 3309 653 
L 1126 653 
C 1254 1050 1798 1325 2317 1683 
C 2829 2042 3315 2483 3315 3194 
C 3315 3770 2970 4570 1875 4570 
C 877 4570 333 3834 333 2842 
L 1062 2842 
C 1082 3469 1254 3962 1830 3962 
C 2458 3962 2592 3488 2586 3168 
C 2573 2470 1818 2118 1235 1696 
C 634 1293 256 736 250 0 
L 3309 0 
L 3309 653 
z
" transform="scale(0.015625)"/>
       </defs>
       <use xlink:href="#HelveticaNeue-Medium-2212"/>
       <use xlink:href="#HelveticaNeue-Medium-32" x="59.999985"/>
       <use xlink:href="#HelveticaNeue-Medium-30" x="115.599976"/>
      </g>
     </g>
    </g>
    <g id="xtick_4">
     <g id="line2d_7">
      <g>
       <use xlink:href="#m0b14784798" x="240.877064" y="275.062" style="stroke: #000000; stroke-width: 0.8"/>
      </g>
     </g>
     <g id="line2d_8">
      <g>
       <use xlink:href="#m0b14784798" x="240.877064" y="8.95" style="stroke: #000000; stroke-width: 0.8"/>
      </g>
     </g>
     <g id="text_4">
      <!-- 0 -->
      <g transform="translate(238.097376 287.452625)scale(0.1 -0.1)">
       <use xlink:href="#HelveticaNeue-Medium-30"/>
      </g>
     </g>
    </g>
    <g id="xtick_5">
     <g id="line2d_9">
      <g>
       <use xlink:href="#m0b14784798" x="296.471439" y="275.062" style="stroke: #000000; stroke-width: 0.8"/>
      </g>
     </g>
     <g id="line2d_10">
      <g>
       <use xlink:href="#m0b14784798" x="296.471439" y="8.95" style="stroke: #000000; stroke-width: 0.8"/>
      </g>
     </g>
     <g id="text_5">
      <!-- 20 -->
      <g transform="translate(290.912064 287.452625)scale(0.1 -0.1)">
       <use xlink:href="#HelveticaNeue-Medium-32"/>
       <use xlink:href="#HelveticaNeue-Medium-30" x="55.599991"/>
      </g>
     </g>
    </g>
    <g id="xtick_6">
     <g id="line2d_11">
      <g>
       <use xlink:href="#m0b14784798" x="352.065813" y="275.062" style="stroke: #000000; stroke-width: 0.8"/>
      </g>
     </g>
     <g id="line2d_12">
      <g>
       <use xlink:href="#m0b14784798" x="352.065813" y="8.95" style="stroke: #000000; stroke-width: 0.8"/>
      </g>
     </g>
     <g id="text_6">
      <!-- 40 -->
      <g transform="translate(346.506438 287.452625)scale(0.1 -0.1)">
       <use xlink:href="#HelveticaNeue-Medium-34"/>
       <use xlink:href="#HelveticaNeue-Medium-30" x="55.599991"/>
      </g>
     </g>
    </g>
    <g id="text_7">
     <!-- Velocity [km/s] -->
     <g transform="translate(168.140469 300.671375)scale(0.1 -0.1)">
      <defs>
       <path id="HelveticaNeue-Medium-56" d="M 1491 0 
L 2381 0 
L 3942 4570 
L 3130 4570 
L 1958 954 
L 1946 954 
L 800 4570 
L -32 4570 
L 1491 0 
z
" transform="scale(0.015625)"/>
       <path id="HelveticaNeue-Medium-65" d="M 3386 1466 
C 3507 2458 2867 3398 1824 3398 
C 838 3398 224 2592 224 1651 
C 224 634 806 -90 1843 -90 
C 2566 -90 3181 314 3341 1037 
L 2650 1037 
C 2522 672 2266 486 1843 486 
C 1235 486 954 947 954 1466 
L 3386 1466 
z
M 954 1946 
C 973 2438 1318 2822 1824 2822 
C 2317 2822 2630 2406 2656 1946 
L 954 1946 
z
" transform="scale(0.015625)"/>
       <path id="HelveticaNeue-Medium-6c" d="M 403 0 
L 1133 0 
L 1133 4570 
L 403 4570 
L 403 0 
z
" transform="scale(0.015625)"/>
       <path id="HelveticaNeue-Medium-6f" d="M 1901 486 
C 1248 486 960 1082 960 1658 
C 960 2227 1248 2822 1901 2822 
C 2554 2822 2842 2227 2842 1658 
C 2842 1082 2554 486 1901 486 
z
M 1901 -90 
C 2963 -90 3571 640 3571 1658 
C 3571 2669 2963 3398 1901 3398 
C 838 3398 230 2669 230 1658 
C 230 640 838 -90 1901 -90 
z
" transform="scale(0.015625)"/>
       <path id="HelveticaNeue-Medium-63" d="M 3347 2202 
C 3277 3014 2624 3398 1856 3398 
C 768 3398 224 2618 224 1619 
C 224 646 794 -90 1830 -90 
C 2682 -90 3213 384 3347 1242 
L 2618 1242 
C 2547 768 2253 486 1830 486 
C 1197 486 954 1069 954 1619 
C 954 2624 1485 2822 1862 2822 
C 2266 2822 2560 2605 2618 2202 
L 3347 2202 
z
" transform="scale(0.015625)"/>
       <path id="HelveticaNeue-Medium-69" d="M 403 0 
L 1133 0 
L 1133 3309 
L 403 3309 
L 403 0 
z
M 403 3878 
L 1133 3878 
L 1133 4570 
L 403 4570 
L 403 3878 
z
" transform="scale(0.015625)"/>
       <path id="HelveticaNeue-Medium-74" d="M 51 2765 
L 602 2765 
L 602 813 
C 614 262 755 -32 1517 -32 
C 1677 -32 1830 -6 1990 6 
L 1990 570 
C 1888 544 1786 544 1683 544 
C 1357 544 1331 698 1331 998 
L 1331 2765 
L 1990 2765 
L 1990 3309 
L 1331 3309 
L 1331 4301 
L 602 4301 
L 602 3309 
L 51 3309 
L 51 2765 
z
" transform="scale(0.015625)"/>
       <path id="HelveticaNeue-Medium-79" d="M 1274 13 
L 1190 -243 
C 1101 -525 1018 -704 678 -704 
C 563 -704 448 -678 333 -659 
L 333 -1274 
C 499 -1299 666 -1312 838 -1312 
C 1600 -1312 1773 -774 2010 -179 
L 3296 3309 
L 2534 3309 
L 1696 838 
L 1683 838 
L 819 3309 
L 19 3309 
L 1274 13 
z
" transform="scale(0.015625)"/>
       <path id="HelveticaNeue-Medium-20" transform="scale(0.015625)"/>
       <path id="HelveticaNeue-Medium-5b" d="M 461 -1222 
L 1888 -1222 
L 1888 -646 
L 1152 -646 
L 1152 4102 
L 1888 4102 
L 1888 4678 
L 461 4678 
L 461 -1222 
z
" transform="scale(0.015625)"/>
       <path id="HelveticaNeue-Medium-6b" d="M 403 0 
L 1133 0 
L 1133 1184 
L 1568 1606 
L 2579 0 
L 3469 0 
L 2080 2093 
L 3347 3309 
L 2451 3309 
L 1133 1971 
L 1133 4570 
L 403 4570 
L 403 0 
z
" transform="scale(0.015625)"/>
       <path id="HelveticaNeue-Medium-6d" d="M 384 0 
L 1114 0 
L 1114 1965 
C 1114 2515 1459 2822 1837 2822 
C 2278 2822 2419 2579 2419 2125 
L 2419 0 
L 3149 0 
L 3149 1939 
C 3149 2496 3360 2822 3853 2822 
C 4422 2822 4454 2458 4454 1933 
L 4454 0 
L 5184 0 
L 5184 2285 
C 5184 3091 4774 3398 4077 3398 
C 3597 3398 3283 3187 3040 2848 
C 2893 3226 2515 3398 2112 3398 
C 1587 3398 1312 3174 1094 2848 
L 1075 2848 
L 1075 3309 
L 384 3309 
L 384 0 
z
" transform="scale(0.015625)"/>
       <path id="HelveticaNeue-Medium-2f" d="M -141 -109 
L 557 -109 
L 2394 4678 
L 1696 4678 
L -141 -109 
z
" transform="scale(0.015625)"/>
       <path id="HelveticaNeue-Medium-73" d="M 205 1062 
C 218 282 838 -90 1670 -90 
C 2355 -90 3149 198 3149 986 
C 3149 1638 2611 1830 2080 1952 
C 1542 2074 1005 2125 1005 2483 
C 1005 2771 1395 2822 1606 2822 
C 1926 2822 2214 2726 2278 2381 
L 3040 2381 
C 2950 3117 2336 3398 1658 3398 
C 1056 3398 275 3174 275 2451 
C 275 1779 800 1587 1338 1472 
C 1869 1350 2400 1306 2419 922 
C 2438 544 1958 486 1683 486 
C 1293 486 973 640 934 1062 
L 205 1062 
z
" transform="scale(0.015625)"/>
       <path id="HelveticaNeue-Medium-5d" d="M 1434 4678 
L 6 4678 
L 6 4102 
L 742 4102 
L 742 -646 
L 6 -646 
L 6 -1222 
L 1434 -1222 
L 1434 4678 
z
" transform="scale(0.015625)"/>
      </defs>
      <use xlink:href="#HelveticaNeue-Medium-56"/>
      <use xlink:href="#HelveticaNeue-Medium-65" x="61.099991"/>
      <use xlink:href="#HelveticaNeue-Medium-6c" x="116.699982"/>
      <use xlink:href="#HelveticaNeue-Medium-6f" x="140.799973"/>
      <use xlink:href="#HelveticaNeue-Medium-63" x="200.09996"/>
      <use xlink:href="#HelveticaNeue-Medium-69" x="255.699951"/>
      <use xlink:href="#HelveticaNeue-Medium-74" x="279.799942"/>
      <use xlink:href="#HelveticaNeue-Medium-79" x="313.09993"/>
      <use xlink:href="#HelveticaNeue-Medium-20" x="364.999924"/>
      <use xlink:href="#HelveticaNeue-Medium-5b" x="392.799911"/>
      <use xlink:href="#HelveticaNeue-Medium-6b" x="422.399902"/>
      <use xlink:href="#HelveticaNeue-Medium-6d" x="476.099899"/>
      <use xlink:href="#HelveticaNeue-Medium-2f" x="563.099884"/>
      <use xlink:href="#HelveticaNeue-Medium-73" x="598.299881"/>
      <use xlink:href="#HelveticaNeue-Medium-5d" x="650.199875"/>
     </g>
    </g>
   </g>
   <g id="matplotlib.axis_2">
    <g id="ytick_1">
     <g id="line2d_13">
      <defs>
       <path id="m7707db9a0e" d="M 1.75 0 
L -1.75 -0 
" style="stroke: #000000; stroke-width: 0.8"/>
      </defs>
      <g>
       <use xlink:href="#m7707db9a0e" x="23.56875" y="231.134421" style="stroke: #000000; stroke-width: 0.8"/>
      </g>
     </g>
     <g id="line2d_14">
      <g>
       <use xlink:href="#m7707db9a0e" x="380.68875" y="231.134421" style="stroke: #000000; stroke-width: 0.8"/>
      </g>
     </g>
     <g id="text_8">
      <!-- 2 -->
      <g transform="translate(12.759375 234.704734)scale(0.1 -0.1)">
       <use xlink:href="#HelveticaNeue-Medium-32"/>
      </g>
     </g>
    </g>
    <g id="ytick_2">
     <g id="line2d_15">
      <g>
       <use xlink:href="#m7707db9a0e" x="23.56875" y="180.203895" style="stroke: #000000; stroke-width: 0.8"/>
      </g>
     </g>
     <g id="line2d_16">
      <g>
       <use xlink:href="#m7707db9a0e" x="380.68875" y="180.203895" style="stroke: #000000; stroke-width: 0.8"/>
      </g>
     </g>
     <g id="text_9">
      <!-- 4 -->
      <g transform="translate(12.759375 183.774207)scale(0.1 -0.1)">
       <use xlink:href="#HelveticaNeue-Medium-34"/>
      </g>
     </g>
    </g>
    <g id="ytick_3">
     <g id="line2d_17">
      <g>
       <use xlink:href="#m7707db9a0e" x="23.56875" y="129.273368" style="stroke: #000000; stroke-width: 0.8"/>
      </g>
     </g>
     <g id="line2d_18">
      <g>
       <use xlink:href="#m7707db9a0e" x="380.68875" y="129.273368" style="stroke: #000000; stroke-width: 0.8"/>
      </g>
     </g>
     <g id="text_10">
      <!-- 6 -->
      <g transform="translate(12.759375 132.843681)scale(0.1 -0.1)">
       <use xlink:href="#HelveticaNeue-Medium-36"/>
      </g>
     </g>
    </g>
    <g id="ytick_4">
     <g id="line2d_19">
      <g>
       <use xlink:href="#m7707db9a0e" x="23.56875" y="78.342842" style="stroke: #000000; stroke-width: 0.8"/>
      </g>
     </g>
     <g id="line2d_20">
      <g>
       <use xlink:href="#m7707db9a0e" x="380.68875" y="78.342842" style="stroke: #000000; stroke-width: 0.8"/>
      </g>
     </g>
     <g id="text_11">
      <!-- 8 -->
      <g transform="translate(12.759375 81.913155)scale(0.1 -0.1)">
       <defs>
        <path id="HelveticaNeue-Medium-38" d="M 1779 486 
C 1293 486 928 794 928 1318 
C 928 1811 1293 2106 1779 2106 
C 2266 2106 2630 1811 2630 1318 
C 2630 794 2266 486 1779 486 
z
M 1779 -90 
C 2688 -90 3360 442 3360 1318 
C 3360 1882 3040 2285 2541 2413 
L 2541 2426 
C 2944 2579 3174 2912 3174 3347 
C 3174 4109 2669 4570 1779 4570 
C 890 4570 384 4109 384 3347 
C 384 2912 614 2579 1018 2426 
L 1018 2413 
C 518 2285 198 1882 198 1318 
C 198 442 870 -90 1779 -90 
z
M 1779 3994 
C 2170 3994 2483 3750 2483 3309 
C 2483 2886 2182 2650 1779 2650 
C 1376 2650 1075 2886 1075 3309 
C 1075 3750 1389 3994 1779 3994 
z
" transform="scale(0.015625)"/>
       </defs>
       <use xlink:href="#HelveticaNeue-Medium-38"/>
      </g>
     </g>
    </g>
    <g id="ytick_5">
     <g id="line2d_21">
      <g>
       <use xlink:href="#m7707db9a0e" x="23.56875" y="27.412316" style="stroke: #000000; stroke-width: 0.8"/>
      </g>
     </g>
     <g id="line2d_22">
      <g>
       <use xlink:href="#m7707db9a0e" x="380.68875" y="27.412316" style="stroke: #000000; stroke-width: 0.8"/>
      </g>
     </g>
     <g id="text_12">
      <!-- 10 -->
      <g transform="translate(7.2 30.982628)scale(0.1 -0.1)">
       <defs>
        <path id="HelveticaNeue-Medium-31" d="M 339 3162 
L 1440 3162 
L 1440 0 
L 2240 0 
L 2240 4480 
L 1645 4480 
C 1536 3942 954 3731 339 3738 
L 339 3162 
z
" transform="scale(0.015625)"/>
       </defs>
       <use xlink:href="#HelveticaNeue-Medium-31"/>
       <use xlink:href="#HelveticaNeue-Medium-30" x="55.599991"/>
      </g>
     </g>
    </g>
   </g>
   <g id="patch_3">
    <path d="M 23.56875 275.062 
L 23.56875 8.95 
" style="fill: none; stroke: #000000; stroke-width: 0.8; stroke-linejoin: miter; stroke-linecap: square"/>
   </g>
   <g id="patch_4">
    <path d="M 380.68875 275.062 
L 380.68875 8.95 
" style="fill: none; stroke: #000000; stroke-width: 0.8; stroke-linejoin: miter; stroke-linecap: square"/>
   </g>
   <g id="patch_5">
    <path d="M 23.56875 275.062 
L 380.68875 275.062 
" style="fill: none; stroke: #000000; stroke-width: 0.8; stroke-linejoin: miter; stroke-linecap: square"/>
   </g>
   <g id="patch_6">
    <path d="M 23.56875 8.95 
L 380.68875 8.95 
" style="fill: none; stroke: #000000; stroke-width: 0.8; stroke-linejoin: miter; stroke-linecap: square"/>
   </g>
  </g>
 </g>
 <defs>
  <clipPath id="pb955da8aef">
   <rect x="23.56875" y="8.95" width="357.12" height="266.112"/>
  </clipPath>
 </defs>
</svg>
