<?xml version="1.0" encoding="utf-8" standalone="no"?>
<!DOCTYPE svg PUBLIC "-//W3C//DTD SVG 1.1//EN"
  "http://www.w3.org/Graphics/SVG/1.1/DTD/svg11.dtd">
<svg height="310.062pt" version="1.1" viewBox="0 0 421.529375 310.062" width="421.529375pt" xmlns="http://www.w3.org/2000/svg" xmlns:xlink="http://www.w3.org/1999/xlink">
 <metadata>
  <rdf:RDF xmlns:cc="http://creativecommons.org/ns#" xmlns:dc="http://purl.org/dc/elements/1.1/" xmlns:rdf="http://www.w3.org/1999/02/22-rdf-syntax-ns#">
   <cc:Work>
    <dc:type rdf:resource="http://purl.org/dc/dcmitype/StillImage"/>
    <dc:date>2022-04-07T18:41:08.021564</dc:date>
    <dc:format>image/svg+xml</dc:format>
    <dc:creator>
     <cc:Agent>
      <dc:title>Matplotlib v3.4.2, https://matplotlib.org/</dc:title>
     </cc:Agent>
    </dc:creator>
   </cc:Work>
  </rdf:RDF>
 </metadata>
 <defs>
  <style type="text/css">*{stroke-linecap:butt;stroke-linejoin:round;}</style>
 </defs>
 <g id="figure_1">
  <g id="patch_1">
   <path d="M 0 310.062 
L 421.529375 310.062 
L 421.529375 0 
L 0 0 
z
" style="fill:#ffffff;"/>
  </g>
  <g id="axes_1">
   <g id="patch_2">
    <path d="M 55.459375 275.062 
L 412.579375 275.062 
L 412.579375 8.95 
L 55.459375 8.95 
z
" style="fill:#ffffff;"/>
   </g>
   <g id="PolyCollection_1">
    <defs>
     <path d="M 76.264702 -94.880623 
L 76.264702 -58.436554 
L 77.066912 -58.961461 
L 77.869122 -59.486368 
L 78.671333 -60.011276 
L 79.473543 -60.536186 
L 80.275753 -61.061096 
L 81.077964 -61.586006 
L 81.880174 -62.110918 
L 82.682385 -62.635831 
L 83.484595 -63.160744 
L 84.286805 -63.685658 
L 85.089016 -64.210573 
L 85.891226 -64.735489 
L 86.693437 -65.260406 
L 87.495647 -65.785323 
L 88.297857 -66.310242 
L 89.100068 -66.835161 
L 89.902278 -67.360081 
L 90.704489 -67.885002 
L 91.506699 -68.409924 
L 92.308909 -68.934846 
L 93.11112 -69.45977 
L 93.91333 -69.984694 
L 94.715541 -70.509619 
L 95.517751 -71.034545 
L 96.319961 -71.559472 
L 97.122172 -72.084399 
L 97.924382 -72.609328 
L 98.726592 -73.134257 
L 99.528803 -73.659187 
L 100.331013 -74.184118 
L 101.133224 -74.70905 
L 101.935434 -75.233983 
L 102.737644 -75.758916 
L 103.539855 -76.28385 
L 104.342065 -76.808785 
L 105.144276 -77.333721 
L 105.946486 -77.858658 
L 106.748696 -78.383596 
L 107.550907 -78.908534 
L 108.353117 -79.433474 
L 109.155328 -79.958414 
L 109.957538 -80.483355 
L 110.759748 -81.008296 
L 111.561959 -81.533239 
L 112.364169 -82.058183 
L 113.16638 -82.583127 
L 113.96859 -83.121286 
L 114.7708 -83.66088 
L 115.573011 -84.200477 
L 116.375221 -84.740077 
L 117.177431 -85.27968 
L 117.979642 -85.819285 
L 118.781852 -86.358894 
L 119.584063 -86.898505 
L 120.386273 -87.438119 
L 121.188483 -87.977736 
L 121.990694 -88.517356 
L 122.792904 -89.056979 
L 123.595115 -89.596604 
L 124.397325 -90.136233 
L 125.199535 -90.675864 
L 126.001746 -91.215498 
L 126.803956 -91.755135 
L 127.606167 -92.294775 
L 128.408377 -92.834417 
L 129.210587 -93.374063 
L 130.012798 -93.913711 
L 130.815008 -94.453362 
L 131.617219 -94.993016 
L 132.419429 -95.532673 
L 133.221639 -96.072333 
L 134.02385 -96.611995 
L 134.82606 -97.151661 
L 135.62827 -97.691329 
L 136.430481 -98.231 
L 137.232691 -98.770674 
L 138.034902 -99.310351 
L 138.837112 -99.850031 
L 139.639322 -100.389713 
L 140.441533 -100.929399 
L 141.243743 -101.469087 
L 142.045954 -102.008778 
L 142.848164 -102.548472 
L 143.650374 -103.088169 
L 144.452585 -103.627869 
L 145.254795 -104.167571 
L 146.057006 -104.707277 
L 146.859216 -105.246985 
L 147.661426 -105.786696 
L 148.463637 -106.32641 
L 149.265847 -106.866127 
L 150.068058 -107.405847 
L 150.870268 -107.94557 
L 151.672478 -108.485295 
L 152.474689 -109.025024 
L 153.276899 -109.564755 
L 154.079109 -110.104489 
L 154.88132 -110.644226 
L 155.68353 -111.183966 
L 156.485741 -111.723709 
L 157.287951 -112.263454 
L 158.090161 -112.803203 
L 158.892372 -113.342954 
L 159.694582 -113.882708 
L 160.496793 -114.422465 
L 161.299003 -114.962225 
L 162.101213 -115.501988 
L 162.903424 -116.041754 
L 163.705634 -116.581523 
L 164.507845 -117.121294 
L 165.310055 -117.661069 
L 166.112265 -118.200846 
L 166.914476 -118.740626 
L 167.716686 -119.280409 
L 168.518897 -119.820195 
L 169.321107 -120.359984 
L 170.123317 -120.899775 
L 170.925528 -121.43957 
L 171.727738 -121.979367 
L 172.529948 -122.519168 
L 173.332159 -123.058971 
L 174.134369 -123.598777 
L 174.93658 -124.138586 
L 175.73879 -124.678398 
L 176.541 -125.218212 
L 177.343211 -125.75803 
L 178.145421 -126.29785 
L 178.947632 -126.837674 
L 179.749842 -127.3775 
L 180.552052 -127.917329 
L 181.354263 -128.457161 
L 182.156473 -128.996996 
L 182.958684 -129.536834 
L 183.760894 -130.076675 
L 184.563104 -130.616519 
L 185.365315 -131.156365 
L 186.167525 -131.696215 
L 186.969736 -132.236067 
L 187.771946 -132.775922 
L 188.574156 -133.31578 
L 189.376367 -133.855641 
L 190.178577 -134.395505 
L 190.980787 -134.935372 
L 191.782998 -135.475242 
L 192.585208 -136.015114 
L 193.387419 -136.55499 
L 194.189629 -137.094868 
L 194.991839 -137.63475 
L 195.79405 -138.197992 
L 196.59626 -138.765322 
L 197.398471 -139.332654 
L 198.200681 -139.899989 
L 199.002891 -140.467327 
L 199.805102 -141.034667 
L 200.607312 -141.548467 
L 201.409523 -142.034391 
L 202.211733 -142.520319 
L 203.013943 -143.006251 
L 203.816154 -143.492186 
L 204.618364 -143.992277 
L 205.420575 -144.510764 
L 206.222785 -145.029256 
L 207.024995 -145.547751 
L 207.827206 -146.06625 
L 208.629416 -146.584754 
L 209.431626 -147.103262 
L 210.233837 -147.621773 
L 211.036047 -148.140289 
L 211.838258 -148.658809 
L 212.640468 -149.177333 
L 213.442678 -149.695861 
L 214.244889 -150.214393 
L 215.047099 -150.732929 
L 215.84931 -151.251469 
L 216.65152 -151.770013 
L 217.45373 -152.288561 
L 218.255941 -152.807114 
L 219.058151 -153.309496 
L 219.860362 -153.804193 
L 220.662572 -154.298892 
L 221.464782 -154.793591 
L 222.266993 -155.288291 
L 223.069203 -155.782992 
L 223.871414 -156.277694 
L 224.673624 -156.772397 
L 225.475834 -157.267101 
L 226.278045 -157.764607 
L 227.080255 -158.279457 
L 227.882466 -158.794313 
L 228.684676 -159.309176 
L 229.486886 -159.824045 
L 230.289097 -160.338921 
L 231.091307 -160.853804 
L 231.893517 -161.368694 
L 232.695728 -161.883591 
L 233.497938 -162.398494 
L 234.300149 -162.913404 
L 235.102359 -163.428321 
L 235.904569 -163.943244 
L 236.70678 -164.458175 
L 237.50899 -164.973112 
L 238.311201 -165.488055 
L 239.113411 -166.003006 
L 239.915621 -166.517963 
L 240.717832 -167.072317 
L 241.520042 -167.629198 
L 242.322253 -168.186085 
L 243.124463 -168.732144 
L 243.926673 -169.228455 
L 244.728884 -169.724765 
L 245.531094 -170.221076 
L 246.333305 -170.699944 
L 247.135515 -171.170876 
L 247.937725 -171.641811 
L 248.739936 -172.112747 
L 249.542146 -172.583685 
L 250.344356 -173.054625 
L 251.146567 -173.525567 
L 251.948777 -174.013093 
L 252.750988 -174.505462 
L 253.553198 -174.997833 
L 254.355408 -175.490205 
L 255.157619 -175.98258 
L 255.959829 -176.474956 
L 256.76204 -176.934005 
L 257.56425 -177.362103 
L 258.36646 -177.877034 
L 259.168671 -178.425052 
L 259.970881 -178.936862 
L 260.773092 -179.429249 
L 261.575302 -179.921637 
L 262.377512 -180.414028 
L 263.179723 -180.90642 
L 263.981933 -181.398813 
L 264.784144 -181.891209 
L 265.586354 -182.383606 
L 266.388564 -182.876005 
L 267.190775 -183.368406 
L 267.992985 -183.860808 
L 268.795195 -184.332375 
L 269.597406 -184.801987 
L 270.399616 -185.2716 
L 271.201827 -185.741213 
L 272.004037 -186.210826 
L 272.806247 -186.680439 
L 273.608458 -187.150053 
L 274.410668 -187.619666 
L 275.212879 -188.089279 
L 276.015089 -188.558893 
L 276.817299 -189.028506 
L 277.61951 -189.49812 
L 278.42172 -189.967733 
L 279.223931 -190.437347 
L 280.026141 -190.906961 
L 280.828351 -191.376575 
L 281.630562 -191.846189 
L 282.432772 -192.315803 
L 283.234983 -192.785417 
L 284.037193 -193.255032 
L 284.839403 -193.756012 
L 285.641614 -194.266024 
L 286.443824 -194.776082 
L 287.246034 -195.286185 
L 288.048245 -195.796334 
L 288.850455 -196.396289 
L 289.652666 -197.015619 
L 290.454876 -197.634995 
L 291.257086 -198.254417 
L 292.059297 -198.828569 
L 292.861507 -199.318924 
L 293.663718 -199.809278 
L 294.465928 -200.299634 
L 295.268138 -200.78999 
L 296.070349 -201.247048 
L 296.872559 -201.64161 
L 297.67477 -202.036184 
L 298.47698 -202.430771 
L 299.27919 -202.82537 
L 300.081401 -203.219981 
L 300.883611 -203.614604 
L 301.685822 -204.00924 
L 302.488032 -204.403888 
L 303.290242 -204.798548 
L 304.092453 -205.219209 
L 304.894663 -205.670344 
L 305.696873 -206.099431 
L 306.499084 -206.535582 
L 307.301294 -207.049352 
L 308.103505 -207.508063 
L 308.905715 -207.956827 
L 309.707925 -208.405607 
L 310.510136 -208.854401 
L 311.312346 -209.303212 
L 312.114557 -209.752037 
L 312.916767 -210.200878 
L 313.718977 -210.649734 
L 314.521188 -211.100435 
L 315.323398 -211.570053 
L 316.125609 -212.03967 
L 316.927819 -212.489673 
L 317.730029 -212.866076 
L 318.53224 -213.242495 
L 319.33445 -213.61893 
L 320.136661 -213.995381 
L 320.938871 -214.371847 
L 321.741081 -214.748329 
L 322.543292 -215.124827 
L 323.345502 -215.50134 
L 324.147712 -215.87787 
L 324.949923 -216.254414 
L 325.752133 -216.630975 
L 326.554344 -217.059097 
L 327.356554 -217.499612 
L 328.158764 -217.940144 
L 328.960975 -218.380691 
L 329.763185 -218.821254 
L 330.565396 -219.261832 
L 331.367606 -219.702426 
L 332.169816 -220.143036 
L 332.972027 -220.593316 
L 333.774237 -221.058899 
L 334.576448 -221.524483 
L 335.378658 -221.953898 
L 336.180868 -222.370002 
L 336.983079 -222.786113 
L 337.785289 -223.20223 
L 338.5875 -223.618355 
L 339.38971 -224.034487 
L 340.19192 -224.450626 
L 340.994131 -224.866772 
L 341.796341 -225.282925 
L 342.598551 -225.699085 
L 343.400762 -226.115252 
L 344.202972 -226.531427 
L 345.005183 -226.972142 
L 345.807393 -227.43119 
L 346.609603 -227.890245 
L 347.411814 -228.349307 
L 348.214024 -228.808376 
L 349.016235 -229.267452 
L 349.818445 -229.726536 
L 350.620655 -230.185626 
L 351.422866 -230.644723 
L 352.225076 -231.103828 
L 353.027287 -231.562939 
L 353.829497 -232.022057 
L 354.631707 -232.481183 
L 355.433918 -232.940316 
L 356.236128 -233.399455 
L 357.038339 -233.858602 
L 357.840549 -234.317756 
L 358.642759 -234.776916 
L 359.44497 -235.234124 
L 360.24718 -235.625955 
L 361.04939 -236.017785 
L 361.851601 -236.409616 
L 362.653811 -236.801447 
L 363.456022 -237.203009 
L 364.258232 -237.616272 
L 365.060442 -238.029552 
L 365.862653 -238.442849 
L 366.664863 -238.856163 
L 367.467074 -239.269495 
L 368.269284 -239.682844 
L 369.071494 -240.096211 
L 369.873705 -240.509595 
L 370.675915 -240.922996 
L 371.478126 -241.336414 
L 372.280336 -241.755183 
L 373.082546 -242.235825 
L 373.884757 -242.716485 
L 374.686967 -243.176361 
L 375.489178 -243.574645 
L 376.291388 -243.972929 
L 377.093598 -244.371214 
L 377.895809 -244.769499 
L 378.698019 -245.167784 
L 379.50023 -245.566069 
L 380.30244 -245.964354 
L 381.10465 -246.36264 
L 381.906861 -246.760925 
L 382.709071 -247.159211 
L 383.511281 -247.557497 
L 384.313492 -247.955783 
L 385.115702 -248.354069 
L 385.917913 -248.752356 
L 386.720123 -249.150642 
L 387.522333 -249.548929 
L 388.324544 -249.947216 
L 389.126754 -250.345503 
L 389.928965 -250.74379 
L 390.731175 -251.142078 
L 391.533385 -251.540365 
L 392.335596 -251.938653 
L 393.137806 -252.336941 
L 393.940017 -252.735229 
L 394.742227 -253.133517 
L 395.544437 -253.531806 
L 396.346648 -253.930094 
L 396.346648 -276.602184 
L 396.346648 -276.602184 
L 395.544437 -276.075485 
L 394.742227 -275.548787 
L 393.940017 -275.022089 
L 393.137806 -274.495391 
L 392.335596 -273.968693 
L 391.533385 -273.441996 
L 390.731175 -272.915299 
L 389.928965 -272.388603 
L 389.126754 -271.861907 
L 388.324544 -271.335211 
L 387.522333 -270.808516 
L 386.720123 -270.281821 
L 385.917913 -269.755127 
L 385.115702 -269.228433 
L 384.313492 -268.701739 
L 383.511281 -268.175046 
L 382.709071 -267.648353 
L 381.906861 -267.12166 
L 381.10465 -266.594968 
L 380.30244 -266.068276 
L 379.50023 -265.541585 
L 378.698019 -265.014894 
L 377.895809 -264.483221 
L 377.093598 -263.949912 
L 376.291388 -263.416606 
L 375.489178 -262.883303 
L 374.686967 -262.350003 
L 373.884757 -261.816707 
L 373.082546 -261.283413 
L 372.280336 -260.750122 
L 371.478126 -260.216835 
L 370.675915 -259.683551 
L 369.873705 -259.149913 
L 369.071494 -258.588227 
L 368.269284 -258.026543 
L 367.467074 -257.464863 
L 366.664863 -256.903187 
L 365.862653 -256.341513 
L 365.060442 -255.779842 
L 364.258232 -255.216202 
L 363.456022 -254.641071 
L 362.653811 -254.065941 
L 361.851601 -253.49081 
L 361.04939 -252.91568 
L 360.24718 -252.34055 
L 359.44497 -251.765421 
L 358.642759 -251.190292 
L 357.840549 -250.615163 
L 357.038339 -250.040034 
L 356.236128 -249.464906 
L 355.433918 -248.889778 
L 354.631707 -248.314651 
L 353.829497 -247.739524 
L 353.027287 -247.164397 
L 352.225076 -246.589271 
L 351.422866 -246.014144 
L 350.620655 -245.439019 
L 349.818445 -244.863893 
L 349.016235 -244.288768 
L 348.214024 -243.713643 
L 347.411814 -243.137853 
L 346.609603 -242.553474 
L 345.807393 -241.969095 
L 345.005183 -241.384716 
L 344.202972 -240.800337 
L 343.400762 -240.215959 
L 342.598551 -239.631581 
L 341.796341 -239.047203 
L 340.994131 -238.462826 
L 340.19192 -237.961375 
L 339.38971 -237.431859 
L 338.5875 -236.879521 
L 337.785289 -236.327195 
L 336.983079 -235.749747 
L 336.180868 -235.159924 
L 335.378658 -234.570111 
L 334.576448 -233.954266 
L 333.774237 -233.31407 
L 332.972027 -232.673883 
L 332.169816 -232.192449 
L 331.367606 -231.708213 
L 330.565396 -231.163793 
L 329.763185 -230.619395 
L 328.960975 -230.07502 
L 328.158764 -229.530668 
L 327.356554 -228.986339 
L 326.554344 -228.442032 
L 325.752133 -227.897748 
L 324.949923 -227.353487 
L 324.147712 -226.809249 
L 323.345502 -226.277955 
L 322.543292 -225.799762 
L 321.741081 -225.321572 
L 320.938871 -224.843385 
L 320.136661 -224.365201 
L 319.33445 -223.887019 
L 318.53224 -223.408841 
L 317.730029 -222.930666 
L 316.927819 -222.452494 
L 316.125609 -221.961152 
L 315.323398 -221.461974 
L 314.521188 -220.9628 
L 313.718977 -220.463629 
L 312.916767 -219.964461 
L 312.114557 -219.465297 
L 311.312346 -218.966137 
L 310.510136 -218.46698 
L 309.707925 -217.997214 
L 308.905715 -217.547386 
L 308.103505 -217.097577 
L 307.301294 -216.647784 
L 306.499084 -216.198008 
L 305.696873 -215.74825 
L 304.894663 -215.298509 
L 304.092453 -214.848785 
L 303.290242 -214.399078 
L 302.488032 -213.949389 
L 301.685822 -213.499716 
L 300.883611 -213.042919 
L 300.081401 -212.526598 
L 299.27919 -212.010295 
L 298.47698 -211.494009 
L 297.67477 -210.97774 
L 296.872559 -210.461392 
L 296.070349 -209.913542 
L 295.268138 -209.365694 
L 294.465928 -208.817848 
L 293.663718 -208.270004 
L 292.861507 -207.722161 
L 292.059297 -207.174321 
L 291.257086 -206.626482 
L 290.454876 -206.078645 
L 289.652666 -205.542258 
L 288.850455 -205.03547 
L 288.048245 -204.528691 
L 287.246034 -204.003897 
L 286.443824 -203.541458 
L 285.641614 -203.068099 
L 284.839403 -202.594747 
L 284.037193 -202.121401 
L 283.234983 -201.648062 
L 282.432772 -201.174729 
L 281.630562 -200.701404 
L 280.828351 -200.228085 
L 280.026141 -199.754315 
L 279.223931 -199.252922 
L 278.42172 -198.751534 
L 277.61951 -198.283967 
L 276.817299 -197.827861 
L 276.015089 -197.371773 
L 275.212879 -196.919565 
L 274.410668 -196.495157 
L 273.608458 -196.070751 
L 272.806247 -195.646347 
L 272.004037 -195.221916 
L 271.201827 -194.771662 
L 270.399616 -194.291202 
L 269.597406 -193.787238 
L 268.795195 -193.283285 
L 267.992985 -192.779344 
L 267.190775 -192.275413 
L 266.388564 -191.771494 
L 265.586354 -191.267585 
L 264.784144 -190.854548 
L 263.981933 -190.448201 
L 263.179723 -190.041857 
L 262.377512 -189.635513 
L 261.575302 -189.229171 
L 260.773092 -188.82283 
L 259.970881 -188.41649 
L 259.168671 -188.010151 
L 258.36646 -187.603814 
L 257.56425 -187.197478 
L 256.76204 -186.791144 
L 255.959829 -186.38481 
L 255.157619 -185.978478 
L 254.355408 -185.572148 
L 253.553198 -185.165818 
L 252.750988 -184.75949 
L 251.948777 -184.353163 
L 251.146567 -183.946837 
L 250.344356 -183.540513 
L 249.542146 -183.126877 
L 248.739936 -182.702312 
L 247.937725 -182.323587 
L 247.135515 -181.943371 
L 246.333305 -181.553147 
L 245.531094 -181.162925 
L 244.728884 -180.772706 
L 243.926673 -180.38249 
L 243.124463 -179.967663 
L 242.322253 -179.551498 
L 241.520042 -179.126061 
L 240.717832 -178.66411 
L 239.915621 -178.202167 
L 239.113411 -177.740233 
L 238.311201 -177.278306 
L 237.50899 -176.816387 
L 236.70678 -176.354477 
L 235.904569 -175.909449 
L 235.102359 -175.484906 
L 234.300149 -175.060365 
L 233.497938 -174.635824 
L 232.695728 -174.211285 
L 231.893517 -173.786747 
L 231.091307 -173.362211 
L 230.289097 -172.963491 
L 229.486886 -172.571855 
L 228.684676 -172.180219 
L 227.882466 -171.788582 
L 227.080255 -171.396946 
L 226.278045 -171.005311 
L 225.475834 -170.613675 
L 224.673624 -170.222039 
L 223.871414 -169.830404 
L 223.069203 -169.438769 
L 222.266993 -169.047133 
L 221.464782 -168.655498 
L 220.662572 -168.263863 
L 219.860362 -167.872229 
L 219.058151 -167.480594 
L 218.255941 -167.08896 
L 217.45373 -166.697325 
L 216.65152 -166.305691 
L 215.84931 -165.914057 
L 215.047099 -165.522423 
L 214.244889 -165.13079 
L 213.442678 -164.739156 
L 212.640468 -164.347522 
L 211.838258 -163.955889 
L 211.036047 -163.564256 
L 210.233837 -163.172623 
L 209.431626 -162.78099 
L 208.629416 -162.389357 
L 207.827206 -161.997725 
L 207.024995 -161.606092 
L 206.222785 -161.21446 
L 205.420575 -160.843103 
L 204.618364 -160.47249 
L 203.816154 -160.101879 
L 203.013943 -159.73127 
L 202.211733 -159.360662 
L 201.409523 -158.990056 
L 200.607312 -158.619452 
L 199.805102 -158.24885 
L 199.002891 -157.878249 
L 198.200681 -157.507651 
L 197.398471 -157.137054 
L 196.59626 -156.753612 
L 195.79405 -156.361482 
L 194.991839 -155.969354 
L 194.189629 -155.56608 
L 193.387419 -155.162753 
L 192.585208 -154.759426 
L 191.782998 -154.3561 
L 190.980787 -153.952774 
L 190.178577 -153.54647 
L 189.376367 -153.133304 
L 188.574156 -152.720138 
L 187.771946 -152.306972 
L 186.969736 -151.893807 
L 186.167525 -151.480643 
L 185.365315 -151.067478 
L 184.563104 -150.654314 
L 183.760894 -150.248811 
L 182.958684 -149.857183 
L 182.156473 -149.465555 
L 181.354263 -149.073927 
L 180.552052 -148.682299 
L 179.749842 -148.290671 
L 178.947632 -147.899044 
L 178.145421 -147.507416 
L 177.343211 -147.115789 
L 176.541 -146.724162 
L 175.73879 -146.317557 
L 174.93658 -145.887853 
L 174.134369 -145.458151 
L 173.332159 -145.027597 
L 172.529948 -144.595746 
L 171.727738 -144.163898 
L 170.925528 -143.732052 
L 170.123317 -143.300207 
L 169.321107 -142.868365 
L 168.518897 -142.436525 
L 167.716686 -142.004687 
L 166.914476 -141.568295 
L 166.112265 -141.14165 
L 165.310055 -140.723056 
L 164.507845 -140.304461 
L 163.705634 -139.885867 
L 162.903424 -139.467273 
L 162.101213 -139.048679 
L 161.299003 -138.630085 
L 160.496793 -138.222565 
L 159.694582 -137.837321 
L 158.892372 -137.45208 
L 158.090161 -137.066843 
L 157.287951 -136.681609 
L 156.485741 -136.296378 
L 155.68353 -135.911151 
L 154.88132 -135.525928 
L 154.079109 -135.125674 
L 153.276899 -134.710504 
L 152.474689 -134.295337 
L 151.672478 -133.880174 
L 150.870268 -133.465014 
L 150.068058 -133.049858 
L 149.265847 -132.634705 
L 148.463637 -132.219556 
L 147.661426 -131.80441 
L 146.859216 -131.389267 
L 146.057006 -130.974128 
L 145.254795 -130.558993 
L 144.452585 -130.143861 
L 143.650374 -129.728732 
L 142.848164 -129.313607 
L 142.045954 -128.898485 
L 141.243743 -128.483367 
L 140.441533 -128.064695 
L 139.639322 -127.644289 
L 138.837112 -127.223883 
L 138.034902 -126.803479 
L 137.232691 -126.383075 
L 136.430481 -125.962672 
L 135.62827 -125.54227 
L 134.82606 -125.121869 
L 134.02385 -124.701469 
L 133.221639 -124.28107 
L 132.419429 -123.860671 
L 131.617219 -123.440274 
L 130.815008 -123.019878 
L 130.012798 -122.599482 
L 129.210587 -122.179087 
L 128.408377 -121.758693 
L 127.606167 -121.3383 
L 126.803956 -120.917908 
L 126.001746 -120.497517 
L 125.199535 -120.081221 
L 124.397325 -119.668085 
L 123.595115 -119.25495 
L 122.792904 -118.841815 
L 121.990694 -118.42868 
L 121.188483 -118.015545 
L 120.386273 -117.602412 
L 119.584063 -117.189278 
L 118.781852 -116.776145 
L 117.979642 -116.363012 
L 117.177431 -115.949879 
L 116.375221 -115.536747 
L 115.573011 -115.123616 
L 114.7708 -114.710484 
L 113.96859 -114.297353 
L 113.16638 -113.884223 
L 112.364169 -113.471093 
L 111.561959 -113.057963 
L 110.759748 -112.644833 
L 109.957538 -112.231704 
L 109.155328 -111.818575 
L 108.353117 -111.405447 
L 107.550907 -110.992319 
L 106.748696 -110.579192 
L 105.946486 -110.166064 
L 105.144276 -109.752938 
L 104.342065 -109.339811 
L 103.539855 -108.926685 
L 102.737644 -108.513559 
L 101.935434 -108.100434 
L 101.133224 -107.687309 
L 100.331013 -107.274185 
L 99.528803 -106.86106 
L 98.726592 -106.447936 
L 97.924382 -106.034813 
L 97.122172 -105.62169 
L 96.319961 -105.208567 
L 95.517751 -104.795445 
L 94.715541 -104.382323 
L 93.91333 -103.969202 
L 93.11112 -103.55608 
L 92.308909 -103.14296 
L 91.506699 -102.729839 
L 90.704489 -102.316719 
L 89.902278 -101.903599 
L 89.100068 -101.49048 
L 88.297857 -101.077361 
L 87.495647 -100.664243 
L 86.693437 -100.251125 
L 85.891226 -99.838007 
L 85.089016 -99.424889 
L 84.286805 -99.011772 
L 83.484595 -98.598656 
L 82.682385 -98.185539 
L 81.880174 -97.772423 
L 81.077964 -97.359308 
L 80.275753 -96.946193 
L 79.473543 -96.533078 
L 78.671333 -96.119964 
L 77.869122 -95.70685 
L 77.066912 -95.293736 
L 76.264702 -94.880623 
z
" id="m4da68188e3" style="stroke:#000000;stroke-opacity:0.1;"/>
    </defs>
    <g clip-path="url(#pb25aebbc56)">
     <use style="fill-opacity:0.1;stroke:#000000;stroke-opacity:0.1;" x="0" xlink:href="#m4da68188e3" y="310.062"/>
    </g>
   </g>
   <g id="matplotlib.axis_1">
    <g id="xtick_1">
     <g id="line2d_1">
      <defs>
       <path d="M 0 1.75 
L 0 -1.75 
" id="m30db92145a" style="stroke:#000000;stroke-width:0.8;"/>
      </defs>
      <g>
       <use style="stroke:#000000;stroke-width:0.8;" x="76.264702" xlink:href="#m30db92145a" y="275.062"/>
      </g>
     </g>
     <g id="line2d_2">
      <g>
       <use style="stroke:#000000;stroke-width:0.8;" x="76.264702" xlink:href="#m30db92145a" y="8.95"/>
      </g>
     </g>
     <g id="text_1">
      <!-- 9.0 -->
      <g transform="translate(69.315483 287.452625)scale(0.1 -0.1)">
       <defs>
        <path d="M 1728 3962 
C 2272 3962 2541 3526 2541 3046 
C 2541 2554 2272 2106 1728 2106 
C 1197 2106 947 2560 947 3046 
C 947 3533 1197 3962 1728 3962 
z
M 301 1133 
C 339 403 941 -90 1651 -90 
C 2918 -90 3341 1158 3341 2227 
C 3341 3533 3027 4570 1760 4570 
C 781 4570 218 3910 218 3040 
C 218 2125 787 1530 1632 1530 
C 2042 1530 2406 1722 2598 2067 
L 2611 2054 
C 2566 1466 2477 518 1683 518 
C 1306 518 1062 768 1030 1133 
L 301 1133 
z
" id="HelveticaNeue-Medium-39" transform="scale(0.015625)"/>
        <path d="M 442 0 
L 1331 0 
L 1331 864 
L 442 864 
L 442 0 
z
" id="HelveticaNeue-Medium-2e" transform="scale(0.015625)"/>
        <path d="M 1779 518 
C 1139 518 960 1306 960 2240 
C 960 3174 1139 3962 1779 3962 
C 2419 3962 2598 3174 2598 2240 
C 2598 1306 2419 518 1779 518 
z
M 1779 4570 
C 493 4570 230 3258 230 2240 
C 230 1222 493 -90 1779 -90 
C 3066 -90 3328 1222 3328 2240 
C 3328 3258 3066 4570 1779 4570 
z
" id="HelveticaNeue-Medium-30" transform="scale(0.015625)"/>
       </defs>
       <use xlink:href="#HelveticaNeue-Medium-39"/>
       <use x="55.599991" xlink:href="#HelveticaNeue-Medium-2e"/>
       <use x="83.399979" xlink:href="#HelveticaNeue-Medium-30"/>
      </g>
     </g>
    </g>
    <g id="xtick_2">
     <g id="line2d_3">
      <g>
       <use style="stroke:#000000;stroke-width:0.8;" x="121.990694" xlink:href="#m30db92145a" y="275.062"/>
      </g>
     </g>
     <g id="line2d_4">
      <g>
       <use style="stroke:#000000;stroke-width:0.8;" x="121.990694" xlink:href="#m30db92145a" y="8.95"/>
      </g>
     </g>
     <g id="text_2">
      <!-- 9.5 -->
      <g transform="translate(115.041475 287.452625)scale(0.1 -0.1)">
       <defs>
        <path d="M 307 2029 
L 1037 2029 
C 1152 2342 1453 2438 1760 2438 
C 2349 2438 2611 1997 2611 1504 
C 2611 960 2400 518 1779 518 
C 1306 518 998 794 954 1274 
L 224 1274 
C 256 378 928 -90 1792 -90 
C 2893 -90 3341 800 3341 1517 
C 3341 2374 2829 3014 1939 3014 
C 1638 3014 1312 2893 1114 2675 
L 1101 2688 
L 1331 3827 
L 3104 3827 
L 3104 4480 
L 787 4480 
L 307 2029 
z
" id="HelveticaNeue-Medium-35" transform="scale(0.015625)"/>
       </defs>
       <use xlink:href="#HelveticaNeue-Medium-39"/>
       <use x="55.599991" xlink:href="#HelveticaNeue-Medium-2e"/>
       <use x="83.399979" xlink:href="#HelveticaNeue-Medium-35"/>
      </g>
     </g>
    </g>
    <g id="xtick_3">
     <g id="line2d_5">
      <g>
       <use style="stroke:#000000;stroke-width:0.8;" x="167.716686" xlink:href="#m30db92145a" y="275.062"/>
      </g>
     </g>
     <g id="line2d_6">
      <g>
       <use style="stroke:#000000;stroke-width:0.8;" x="167.716686" xlink:href="#m30db92145a" y="8.95"/>
      </g>
     </g>
     <g id="text_3">
      <!-- 10.0 -->
      <g transform="translate(157.98778 287.452625)scale(0.1 -0.1)">
       <defs>
        <path d="M 339 3162 
L 1440 3162 
L 1440 0 
L 2240 0 
L 2240 4480 
L 1645 4480 
C 1536 3942 954 3731 339 3738 
L 339 3162 
z
" id="HelveticaNeue-Medium-31" transform="scale(0.015625)"/>
       </defs>
       <use xlink:href="#HelveticaNeue-Medium-31"/>
       <use x="55.599991" xlink:href="#HelveticaNeue-Medium-30"/>
       <use x="111.199982" xlink:href="#HelveticaNeue-Medium-2e"/>
       <use x="138.999969" xlink:href="#HelveticaNeue-Medium-30"/>
      </g>
     </g>
    </g>
    <g id="xtick_4">
     <g id="line2d_7">
      <g>
       <use style="stroke:#000000;stroke-width:0.8;" x="213.442678" xlink:href="#m30db92145a" y="275.062"/>
      </g>
     </g>
     <g id="line2d_8">
      <g>
       <use style="stroke:#000000;stroke-width:0.8;" x="213.442678" xlink:href="#m30db92145a" y="8.95"/>
      </g>
     </g>
     <g id="text_4">
      <!-- 10.5 -->
      <g transform="translate(203.713772 287.452625)scale(0.1 -0.1)">
       <use xlink:href="#HelveticaNeue-Medium-31"/>
       <use x="55.599991" xlink:href="#HelveticaNeue-Medium-30"/>
       <use x="111.199982" xlink:href="#HelveticaNeue-Medium-2e"/>
       <use x="138.999969" xlink:href="#HelveticaNeue-Medium-35"/>
      </g>
     </g>
    </g>
    <g id="xtick_5">
     <g id="line2d_9">
      <g>
       <use style="stroke:#000000;stroke-width:0.8;" x="259.168671" xlink:href="#m30db92145a" y="275.062"/>
      </g>
     </g>
     <g id="line2d_10">
      <g>
       <use style="stroke:#000000;stroke-width:0.8;" x="259.168671" xlink:href="#m30db92145a" y="8.95"/>
      </g>
     </g>
     <g id="text_5">
      <!-- 11.0 -->
      <g transform="translate(249.439765 287.452625)scale(0.1 -0.1)">
       <use xlink:href="#HelveticaNeue-Medium-31"/>
       <use x="55.599991" xlink:href="#HelveticaNeue-Medium-31"/>
       <use x="111.199982" xlink:href="#HelveticaNeue-Medium-2e"/>
       <use x="138.999969" xlink:href="#HelveticaNeue-Medium-30"/>
      </g>
     </g>
    </g>
    <g id="xtick_6">
     <g id="line2d_11">
      <g>
       <use style="stroke:#000000;stroke-width:0.8;" x="304.894663" xlink:href="#m30db92145a" y="275.062"/>
      </g>
     </g>
     <g id="line2d_12">
      <g>
       <use style="stroke:#000000;stroke-width:0.8;" x="304.894663" xlink:href="#m30db92145a" y="8.95"/>
      </g>
     </g>
     <g id="text_6">
      <!-- 11.5 -->
      <g transform="translate(295.165757 287.452625)scale(0.1 -0.1)">
       <use xlink:href="#HelveticaNeue-Medium-31"/>
       <use x="55.599991" xlink:href="#HelveticaNeue-Medium-31"/>
       <use x="111.199982" xlink:href="#HelveticaNeue-Medium-2e"/>
       <use x="138.999969" xlink:href="#HelveticaNeue-Medium-35"/>
      </g>
     </g>
    </g>
    <g id="xtick_7">
     <g id="line2d_13">
      <g>
       <use style="stroke:#000000;stroke-width:0.8;" x="350.620655" xlink:href="#m30db92145a" y="275.062"/>
      </g>
     </g>
     <g id="line2d_14">
      <g>
       <use style="stroke:#000000;stroke-width:0.8;" x="350.620655" xlink:href="#m30db92145a" y="8.95"/>
      </g>
     </g>
     <g id="text_7">
      <!-- 12.0 -->
      <g transform="translate(340.891749 287.452625)scale(0.1 -0.1)">
       <defs>
        <path d="M 3309 653 
L 1126 653 
C 1254 1050 1798 1325 2317 1683 
C 2829 2042 3315 2483 3315 3194 
C 3315 3770 2970 4570 1875 4570 
C 877 4570 333 3834 333 2842 
L 1062 2842 
C 1082 3469 1254 3962 1830 3962 
C 2458 3962 2592 3488 2586 3168 
C 2573 2470 1818 2118 1235 1696 
C 634 1293 256 736 250 0 
L 3309 0 
L 3309 653 
z
" id="HelveticaNeue-Medium-32" transform="scale(0.015625)"/>
       </defs>
       <use xlink:href="#HelveticaNeue-Medium-31"/>
       <use x="55.599991" xlink:href="#HelveticaNeue-Medium-32"/>
       <use x="111.199982" xlink:href="#HelveticaNeue-Medium-2e"/>
       <use x="138.999969" xlink:href="#HelveticaNeue-Medium-30"/>
      </g>
     </g>
    </g>
    <g id="xtick_8">
     <g id="line2d_15">
      <g>
       <use style="stroke:#000000;stroke-width:0.8;" x="396.346648" xlink:href="#m30db92145a" y="275.062"/>
      </g>
     </g>
     <g id="line2d_16">
      <g>
       <use style="stroke:#000000;stroke-width:0.8;" x="396.346648" xlink:href="#m30db92145a" y="8.95"/>
      </g>
     </g>
     <g id="text_8">
      <!-- 12.5 -->
      <g transform="translate(386.617741 287.452625)scale(0.1 -0.1)">
       <use xlink:href="#HelveticaNeue-Medium-31"/>
       <use x="55.599991" xlink:href="#HelveticaNeue-Medium-32"/>
       <use x="111.199982" xlink:href="#HelveticaNeue-Medium-2e"/>
       <use x="138.999969" xlink:href="#HelveticaNeue-Medium-35"/>
      </g>
     </g>
    </g>
    <g id="text_9">
     <!-- Bulge mass [log, $M_\odot$] -->
     <g transform="translate(183.919375 300.762)scale(0.1 -0.1)">
      <defs>
       <path d="M 1286 2080 
L 2701 2080 
C 3187 2080 3469 1824 3469 1376 
C 3469 915 3187 653 2701 653 
L 1286 653 
L 1286 2080 
z
M 486 0 
L 2586 0 
C 3770 0 4269 557 4269 1274 
C 4269 1894 3968 2330 3411 2451 
L 3411 2464 
C 3827 2643 4064 2976 4064 3437 
C 4064 4198 3526 4570 2707 4570 
L 486 4570 
L 486 0 
z
M 1286 3917 
L 2592 3917 
C 3027 3917 3264 3750 3264 3290 
C 3264 2880 2976 2656 2592 2656 
L 1286 2656 
L 1286 3917 
z
" id="HelveticaNeue-Medium-42" transform="scale(0.015625)"/>
       <path d="M 3290 3309 
L 2560 3309 
L 2560 1389 
C 2560 877 2355 486 1747 486 
C 1350 486 1114 698 1114 1280 
L 1114 3309 
L 384 3309 
L 384 1210 
C 384 346 755 -90 1619 -90 
C 1984 -90 2381 128 2560 461 
L 2573 461 
L 2573 0 
L 3290 0 
L 3290 3309 
z
" id="HelveticaNeue-Medium-75" transform="scale(0.015625)"/>
       <path d="M 403 0 
L 1133 0 
L 1133 4570 
L 403 4570 
L 403 0 
z
" id="HelveticaNeue-Medium-6c" transform="scale(0.015625)"/>
       <path d="M 1824 576 
C 1216 576 954 1126 954 1670 
C 954 2221 1178 2822 1824 2822 
C 2458 2822 2714 2298 2714 1728 
C 2714 1165 2470 576 1824 576 
z
M 3443 3309 
L 2714 3309 
L 2714 2854 
L 2701 2854 
C 2515 3226 2138 3398 1722 3398 
C 781 3398 224 2630 224 1741 
C 224 794 659 0 1709 0 
C 2118 0 2496 218 2701 582 
L 2714 582 
L 2714 77 
C 2714 -467 2451 -768 1862 -768 
C 1491 -768 1158 -698 1069 -282 
L 339 -282 
C 403 -1056 1152 -1312 1818 -1312 
C 2861 -1312 3443 -819 3443 173 
L 3443 3309 
z
" id="HelveticaNeue-Medium-67" transform="scale(0.015625)"/>
       <path d="M 3386 1466 
C 3507 2458 2867 3398 1824 3398 
C 838 3398 224 2592 224 1651 
C 224 634 806 -90 1843 -90 
C 2566 -90 3181 314 3341 1037 
L 2650 1037 
C 2522 672 2266 486 1843 486 
C 1235 486 954 947 954 1466 
L 3386 1466 
z
M 954 1946 
C 973 2438 1318 2822 1824 2822 
C 2317 2822 2630 2406 2656 1946 
L 954 1946 
z
" id="HelveticaNeue-Medium-65" transform="scale(0.015625)"/>
       <path id="HelveticaNeue-Medium-20" transform="scale(0.015625)"/>
       <path d="M 384 0 
L 1114 0 
L 1114 1965 
C 1114 2515 1459 2822 1837 2822 
C 2278 2822 2419 2579 2419 2125 
L 2419 0 
L 3149 0 
L 3149 1939 
C 3149 2496 3360 2822 3853 2822 
C 4422 2822 4454 2458 4454 1933 
L 4454 0 
L 5184 0 
L 5184 2285 
C 5184 3091 4774 3398 4077 3398 
C 3597 3398 3283 3187 3040 2848 
C 2893 3226 2515 3398 2112 3398 
C 1587 3398 1312 3174 1094 2848 
L 1075 2848 
L 1075 3309 
L 384 3309 
L 384 0 
z
" id="HelveticaNeue-Medium-6d" transform="scale(0.015625)"/>
       <path d="M 2426 1114 
C 2426 653 1926 486 1606 486 
C 1350 486 934 582 934 909 
C 934 1293 1216 1408 1530 1459 
C 1850 1517 2202 1510 2426 1658 
L 2426 1114 
z
M 3155 2438 
C 3155 3136 2477 3398 1830 3398 
C 1101 3398 378 3149 326 2298 
L 1056 2298 
C 1088 2656 1376 2822 1786 2822 
C 2080 2822 2470 2752 2470 2374 
C 2470 1946 2003 2003 1478 1907 
C 864 1837 205 1702 205 877 
C 205 230 742 -90 1338 -90 
C 1728 -90 2195 32 2483 314 
C 2541 13 2752 -90 3046 -90 
C 3168 -90 3398 -45 3507 -6 
L 3507 499 
C 3430 486 3373 486 3328 486 
C 3194 486 3155 557 3155 736 
L 3155 2438 
z
" id="HelveticaNeue-Medium-61" transform="scale(0.015625)"/>
       <path d="M 205 1062 
C 218 282 838 -90 1670 -90 
C 2355 -90 3149 198 3149 986 
C 3149 1638 2611 1830 2080 1952 
C 1542 2074 1005 2125 1005 2483 
C 1005 2771 1395 2822 1606 2822 
C 1926 2822 2214 2726 2278 2381 
L 3040 2381 
C 2950 3117 2336 3398 1658 3398 
C 1056 3398 275 3174 275 2451 
C 275 1779 800 1587 1338 1472 
C 1869 1350 2400 1306 2419 922 
C 2438 544 1958 486 1683 486 
C 1293 486 973 640 934 1062 
L 205 1062 
z
" id="HelveticaNeue-Medium-73" transform="scale(0.015625)"/>
       <path d="M 461 -1222 
L 1888 -1222 
L 1888 -646 
L 1152 -646 
L 1152 4102 
L 1888 4102 
L 1888 4678 
L 461 4678 
L 461 -1222 
z
" id="HelveticaNeue-Medium-5b" transform="scale(0.015625)"/>
       <path d="M 1901 486 
C 1248 486 960 1082 960 1658 
C 960 2227 1248 2822 1901 2822 
C 2554 2822 2842 2227 2842 1658 
C 2842 1082 2554 486 1901 486 
z
M 1901 -90 
C 2963 -90 3571 640 3571 1658 
C 3571 2669 2963 3398 1901 3398 
C 838 3398 230 2669 230 1658 
C 230 640 838 -90 1901 -90 
z
" id="HelveticaNeue-Medium-6f" transform="scale(0.015625)"/>
       <path d="M 442 0 
L 883 0 
C 890 -275 749 -550 467 -621 
L 467 -1011 
C 973 -909 1325 -525 1331 0 
L 1331 864 
L 442 864 
L 442 0 
z
" id="HelveticaNeue-Medium-2c" transform="scale(0.015625)"/>
       <path d="M 1081 4666 
L 2028 4666 
L 2572 1522 
L 4378 4666 
L 5350 4666 
L 4441 0 
L 3828 0 
L 4622 4091 
L 2791 897 
L 2175 897 
L 1581 4103 
L 788 0 
L 172 0 
L 1081 4666 
z
" id="DejaVuSans-Oblique-4d" transform="scale(0.015625)"/>
       <path d="M 2350 2403 
L 3013 2403 
L 3013 1609 
L 2350 1609 
L 2350 2403 
z
M 3306 3522 
Q 3016 3644 2681 3644 
Q 2347 3644 2056 3522 
Q 1769 3400 1531 3163 
Q 1291 2922 1172 2634 
Q 1053 2347 1053 2006 
Q 1053 1675 1172 1387 
Q 1291 1100 1531 859 
Q 1769 622 2056 500 
Q 2347 378 2681 378 
Q 3016 378 3306 500 
Q 3594 622 3831 859 
Q 4072 1100 4190 1387 
Q 4309 1675 4309 2006 
Q 4309 2347 4190 2634 
Q 4072 2922 3831 3163 
Q 3594 3400 3306 3522 
z
M 1878 3956 
Q 2250 4113 2681 4113 
Q 3113 4113 3484 3956 
Q 3856 3800 4163 3494 
Q 4472 3184 4625 2813 
Q 4778 2444 4778 2006 
Q 4778 1578 4625 1206 
Q 4472 838 4163 528 
Q 3856 222 3484 65 
Q 3113 -91 2681 -91 
Q 2250 -91 1878 65 
Q 1506 222 1200 528 
Q 891 838 738 1206 
Q 584 1578 584 2006 
Q 584 2444 738 2813 
Q 891 3184 1200 3494 
Q 1506 3800 1878 3956 
z
" id="DejaVuSans-2299" transform="scale(0.015625)"/>
       <path d="M 1434 4678 
L 6 4678 
L 6 4102 
L 742 4102 
L 742 -646 
L 6 -646 
L 6 -1222 
L 1434 -1222 
L 1434 4678 
z
" id="HelveticaNeue-Medium-5d" transform="scale(0.015625)"/>
      </defs>
      <use transform="translate(0 0.90625)" xlink:href="#HelveticaNeue-Medium-42"/>
      <use transform="translate(70.399994 0.90625)" xlink:href="#HelveticaNeue-Medium-75"/>
      <use transform="translate(127.799988 0.90625)" xlink:href="#HelveticaNeue-Medium-6c"/>
      <use transform="translate(151.899979 0.90625)" xlink:href="#HelveticaNeue-Medium-67"/>
      <use transform="translate(211.199966 0.90625)" xlink:href="#HelveticaNeue-Medium-65"/>
      <use transform="translate(266.799957 0.90625)" xlink:href="#HelveticaNeue-Medium-20"/>
      <use transform="translate(294.599945 0.90625)" xlink:href="#HelveticaNeue-Medium-6d"/>
      <use transform="translate(381.59993 0.90625)" xlink:href="#HelveticaNeue-Medium-61"/>
      <use transform="translate(437.199921 0.90625)" xlink:href="#HelveticaNeue-Medium-73"/>
      <use transform="translate(489.099915 0.90625)" xlink:href="#HelveticaNeue-Medium-73"/>
      <use transform="translate(540.999908 0.90625)" xlink:href="#HelveticaNeue-Medium-20"/>
      <use transform="translate(568.799896 0.90625)" xlink:href="#HelveticaNeue-Medium-5b"/>
      <use transform="translate(598.399887 0.90625)" xlink:href="#HelveticaNeue-Medium-6c"/>
      <use transform="translate(622.499878 0.90625)" xlink:href="#HelveticaNeue-Medium-6f"/>
      <use transform="translate(681.799866 0.90625)" xlink:href="#HelveticaNeue-Medium-67"/>
      <use transform="translate(741.099854 0.90625)" xlink:href="#HelveticaNeue-Medium-2c"/>
      <use transform="translate(768.899841 0.90625)" xlink:href="#HelveticaNeue-Medium-20"/>
      <use transform="translate(796.699829 0.90625)" xlink:href="#DejaVuSans-Oblique-4d"/>
      <use transform="translate(896.616821 -15.5)scale(0.7)" xlink:href="#DejaVuSans-2299"/>
      <use transform="translate(971.641235 0.90625)" xlink:href="#HelveticaNeue-Medium-5d"/>
     </g>
    </g>
   </g>
   <g id="matplotlib.axis_2">
    <g id="ytick_1">
     <g id="line2d_17">
      <defs>
       <path d="M 1.75 0 
L -1.75 -0 
" id="m0a62ebd754" style="stroke:#000000;stroke-width:0.8;"/>
      </defs>
      <g>
       <use style="stroke:#000000;stroke-width:0.8;" x="55.459375" xlink:href="#m0a62ebd754" y="225.155528"/>
      </g>
     </g>
     <g id="line2d_18">
      <g>
       <use style="stroke:#000000;stroke-width:0.8;" x="412.579375" xlink:href="#m0a62ebd754" y="225.155528"/>
      </g>
     </g>
     <g id="text_10">
      <!-- $\mathdefault{10^{2}}$ -->
      <g transform="translate(34.809375 228.725841)scale(0.1 -0.1)">
       <use transform="translate(0 0.823438)" xlink:href="#HelveticaNeue-Medium-31"/>
       <use transform="translate(55.599991 0.823438)" xlink:href="#HelveticaNeue-Medium-30"/>
       <use transform="translate(112.104786 37.015625)scale(0.7)" xlink:href="#HelveticaNeue-Medium-32"/>
      </g>
     </g>
    </g>
    <g id="ytick_2">
     <g id="line2d_19">
      <defs>
       <path d="M 1 0 
L -1 -0 
" id="m8025052e1f" style="stroke:#000000;stroke-width:0.6;"/>
      </defs>
      <g>
       <use style="stroke:#000000;stroke-width:0.6;" x="55.459375" xlink:href="#m8025052e1f" y="269.944036"/>
      </g>
     </g>
     <g id="line2d_20">
      <g>
       <use style="stroke:#000000;stroke-width:0.6;" x="412.579375" xlink:href="#m8025052e1f" y="269.944036"/>
      </g>
     </g>
    </g>
    <g id="ytick_3">
     <g id="line2d_21">
      <g>
       <use style="stroke:#000000;stroke-width:0.6;" x="55.459375" xlink:href="#m8025052e1f" y="253.176187"/>
      </g>
     </g>
     <g id="line2d_22">
      <g>
       <use style="stroke:#000000;stroke-width:0.6;" x="412.579375" xlink:href="#m8025052e1f" y="253.176187"/>
      </g>
     </g>
    </g>
    <g id="ytick_4">
     <g id="line2d_23">
      <g>
       <use style="stroke:#000000;stroke-width:0.6;" x="55.459375" xlink:href="#m8025052e1f" y="238.385895"/>
      </g>
     </g>
     <g id="line2d_24">
      <g>
       <use style="stroke:#000000;stroke-width:0.6;" x="412.579375" xlink:href="#m8025052e1f" y="238.385895"/>
      </g>
     </g>
    </g>
    <g id="ytick_5">
     <g id="line2d_25">
      <g>
       <use style="stroke:#000000;stroke-width:0.6;" x="55.459375" xlink:href="#m8025052e1f" y="138.115413"/>
      </g>
     </g>
     <g id="line2d_26">
      <g>
       <use style="stroke:#000000;stroke-width:0.6;" x="412.579375" xlink:href="#m8025052e1f" y="138.115413"/>
      </g>
     </g>
     <g id="text_11">
      <!-- $\mathdefault{2\times10^{2}}$ -->
      <g transform="translate(20.559375 141.685725)scale(0.1 -0.1)">
       <defs>
        <path d="M 1466 1619 
L 352 506 
L 902 147 
L 1914 1171 
L 2938 147 
L 3488 506 
L 2368 1619 
L 3488 2733 
L 2938 3091 
L 1914 2074 
L 902 3091 
L 352 2733 
L 1466 1619 
z
" id="HelveticaNeue-Medium-d7" transform="scale(0.015625)"/>
       </defs>
       <use transform="translate(0 0.823438)" xlink:href="#HelveticaNeue-Medium-32"/>
       <use transform="translate(72.999988 0.823438)" xlink:href="#HelveticaNeue-Medium-d7"/>
       <use transform="translate(150.399969 0.823438)" xlink:href="#HelveticaNeue-Medium-31"/>
       <use transform="translate(205.99996 0.823438)" xlink:href="#HelveticaNeue-Medium-30"/>
       <use transform="translate(262.504756 37.015625)scale(0.7)" xlink:href="#HelveticaNeue-Medium-32"/>
      </g>
     </g>
    </g>
    <g id="ytick_6">
     <g id="line2d_27">
      <g>
       <use style="stroke:#000000;stroke-width:0.6;" x="55.459375" xlink:href="#m8025052e1f" y="87.200209"/>
      </g>
     </g>
     <g id="line2d_28">
      <g>
       <use style="stroke:#000000;stroke-width:0.6;" x="412.579375" xlink:href="#m8025052e1f" y="87.200209"/>
      </g>
     </g>
     <g id="text_12">
      <!-- $\mathdefault{3\times10^{2}}$ -->
      <g transform="translate(20.559375 90.770522)scale(0.1 -0.1)">
       <defs>
        <path d="M 1459 2080 
C 2035 2106 2630 2016 2630 1318 
C 2630 806 2259 518 1773 518 
C 1203 518 909 928 928 1472 
L 198 1472 
C 218 538 736 -90 1773 -90 
C 2630 -90 3360 435 3360 1280 
C 3360 1856 3053 2298 2547 2400 
L 2547 2413 
C 2976 2566 3181 2925 3181 3373 
C 3181 4166 2464 4570 1766 4570 
C 864 4570 320 3917 282 3046 
L 1011 3046 
C 998 3507 1248 3962 1754 3962 
C 2157 3962 2451 3706 2451 3328 
C 2451 2778 1946 2605 1459 2624 
L 1459 2080 
z
" id="HelveticaNeue-Medium-33" transform="scale(0.015625)"/>
       </defs>
       <use transform="translate(0 0.823438)" xlink:href="#HelveticaNeue-Medium-33"/>
       <use transform="translate(72.999988 0.823438)" xlink:href="#HelveticaNeue-Medium-d7"/>
       <use transform="translate(150.399969 0.823438)" xlink:href="#HelveticaNeue-Medium-31"/>
       <use transform="translate(205.99996 0.823438)" xlink:href="#HelveticaNeue-Medium-30"/>
       <use transform="translate(262.504756 37.015625)scale(0.7)" xlink:href="#HelveticaNeue-Medium-32"/>
      </g>
     </g>
    </g>
    <g id="ytick_7">
     <g id="line2d_29">
      <g>
       <use style="stroke:#000000;stroke-width:0.6;" x="55.459375" xlink:href="#m8025052e1f" y="51.075298"/>
      </g>
     </g>
     <g id="line2d_30">
      <g>
       <use style="stroke:#000000;stroke-width:0.6;" x="412.579375" xlink:href="#m8025052e1f" y="51.075298"/>
      </g>
     </g>
     <g id="text_13">
      <!-- $\mathdefault{4\times10^{2}}$ -->
      <g transform="translate(20.559375 54.64561)scale(0.1 -0.1)">
       <defs>
        <path d="M 3341 1638 
L 2765 1638 
L 2765 4480 
L 2074 4480 
L 154 1786 
L 154 1062 
L 2074 1062 
L 2074 0 
L 2765 0 
L 2765 1062 
L 3341 1062 
L 3341 1638 
z
M 2061 3610 
L 2074 3610 
L 2074 1638 
L 717 1638 
L 2061 3610 
z
" id="HelveticaNeue-Medium-34" transform="scale(0.015625)"/>
       </defs>
       <use transform="translate(0 0.823438)" xlink:href="#HelveticaNeue-Medium-34"/>
       <use transform="translate(72.999988 0.823438)" xlink:href="#HelveticaNeue-Medium-d7"/>
       <use transform="translate(150.399969 0.823438)" xlink:href="#HelveticaNeue-Medium-31"/>
       <use transform="translate(205.99996 0.823438)" xlink:href="#HelveticaNeue-Medium-30"/>
       <use transform="translate(262.504756 37.015625)scale(0.7)" xlink:href="#HelveticaNeue-Medium-32"/>
      </g>
     </g>
    </g>
    <g id="ytick_8">
     <g id="line2d_31">
      <g>
       <use style="stroke:#000000;stroke-width:0.6;" x="55.459375" xlink:href="#m8025052e1f" y="23.054639"/>
      </g>
     </g>
     <g id="line2d_32">
      <g>
       <use style="stroke:#000000;stroke-width:0.6;" x="412.579375" xlink:href="#m8025052e1f" y="23.054639"/>
      </g>
     </g>
    </g>
    <g id="text_14">
     <!-- Velocity dispersion [log, km/s] -->
     <g transform="translate(14.509375 211.382562)rotate(-90)scale(0.1 -0.1)">
      <defs>
       <path d="M 1491 0 
L 2381 0 
L 3942 4570 
L 3130 4570 
L 1958 954 
L 1946 954 
L 800 4570 
L -32 4570 
L 1491 0 
z
" id="HelveticaNeue-Medium-56" transform="scale(0.015625)"/>
       <path d="M 3347 2202 
C 3277 3014 2624 3398 1856 3398 
C 768 3398 224 2618 224 1619 
C 224 646 794 -90 1830 -90 
C 2682 -90 3213 384 3347 1242 
L 2618 1242 
C 2547 768 2253 486 1830 486 
C 1197 486 954 1069 954 1619 
C 954 2624 1485 2822 1862 2822 
C 2266 2822 2560 2605 2618 2202 
L 3347 2202 
z
" id="HelveticaNeue-Medium-63" transform="scale(0.015625)"/>
       <path d="M 403 0 
L 1133 0 
L 1133 3309 
L 403 3309 
L 403 0 
z
M 403 3878 
L 1133 3878 
L 1133 4570 
L 403 4570 
L 403 3878 
z
" id="HelveticaNeue-Medium-69" transform="scale(0.015625)"/>
       <path d="M 51 2765 
L 602 2765 
L 602 813 
C 614 262 755 -32 1517 -32 
C 1677 -32 1830 -6 1990 6 
L 1990 570 
C 1888 544 1786 544 1683 544 
C 1357 544 1331 698 1331 998 
L 1331 2765 
L 1990 2765 
L 1990 3309 
L 1331 3309 
L 1331 4301 
L 602 4301 
L 602 3309 
L 51 3309 
L 51 2765 
z
" id="HelveticaNeue-Medium-74" transform="scale(0.015625)"/>
       <path d="M 1274 13 
L 1190 -243 
C 1101 -525 1018 -704 678 -704 
C 563 -704 448 -678 333 -659 
L 333 -1274 
C 499 -1299 666 -1312 838 -1312 
C 1600 -1312 1773 -774 2010 -179 
L 3296 3309 
L 2534 3309 
L 1696 838 
L 1683 838 
L 819 3309 
L 19 3309 
L 1274 13 
z
" id="HelveticaNeue-Medium-79" transform="scale(0.015625)"/>
       <path d="M 954 1619 
C 954 2214 1197 2822 1882 2822 
C 2445 2822 2797 2387 2797 1658 
C 2797 1082 2522 486 1869 486 
C 1235 486 954 1050 954 1619 
z
M 3501 4570 
L 2771 4570 
L 2771 2880 
L 2758 2880 
C 2534 3245 2074 3398 1658 3398 
C 934 3398 224 2874 224 1677 
C 224 685 730 -90 1773 -90 
C 2189 -90 2605 70 2797 448 
L 2810 448 
L 2810 0 
L 3501 0 
L 3501 4570 
z
" id="HelveticaNeue-Medium-64" transform="scale(0.015625)"/>
       <path d="M 2950 1651 
C 2950 1075 2701 486 2035 486 
C 1446 486 1107 986 1107 1651 
C 1107 2355 1421 2822 2035 2822 
C 2637 2822 2950 2253 2950 1651 
z
M 403 -1222 
L 1133 -1222 
L 1133 429 
L 1146 429 
C 1376 64 1830 -90 2253 -90 
C 3232 -90 3680 749 3680 1638 
C 3680 2605 3174 3398 2131 3398 
C 1709 3398 1312 3238 1107 2861 
L 1094 2861 
L 1094 3309 
L 403 3309 
L 403 -1222 
z
" id="HelveticaNeue-Medium-70" transform="scale(0.015625)"/>
       <path d="M 384 0 
L 1114 0 
L 1114 1574 
C 1114 2304 1510 2707 2010 2707 
C 2112 2707 2221 2688 2323 2675 
L 2323 3379 
C 2259 3386 2214 3398 2048 3398 
C 1600 3398 1165 3021 1082 2669 
L 1069 2669 
L 1069 3309 
L 384 3309 
L 384 0 
z
" id="HelveticaNeue-Medium-72" transform="scale(0.015625)"/>
       <path d="M 384 0 
L 1114 0 
L 1114 1952 
C 1114 2438 1427 2822 1914 2822 
C 2342 2822 2547 2598 2560 2080 
L 2560 0 
L 3290 0 
L 3290 2272 
C 3290 3014 2835 3398 2118 3398 
C 1683 3398 1306 3174 1088 2810 
L 1075 2822 
L 1075 3309 
L 384 3309 
L 384 0 
z
" id="HelveticaNeue-Medium-6e" transform="scale(0.015625)"/>
       <path d="M 403 0 
L 1133 0 
L 1133 1184 
L 1568 1606 
L 2579 0 
L 3469 0 
L 2080 2093 
L 3347 3309 
L 2451 3309 
L 1133 1971 
L 1133 4570 
L 403 4570 
L 403 0 
z
" id="HelveticaNeue-Medium-6b" transform="scale(0.015625)"/>
       <path d="M -141 -109 
L 557 -109 
L 2394 4678 
L 1696 4678 
L -141 -109 
z
" id="HelveticaNeue-Medium-2f" transform="scale(0.015625)"/>
      </defs>
      <use xlink:href="#HelveticaNeue-Medium-56"/>
      <use x="61.099991" xlink:href="#HelveticaNeue-Medium-65"/>
      <use x="116.699982" xlink:href="#HelveticaNeue-Medium-6c"/>
      <use x="140.799973" xlink:href="#HelveticaNeue-Medium-6f"/>
      <use x="200.09996" xlink:href="#HelveticaNeue-Medium-63"/>
      <use x="255.699951" xlink:href="#HelveticaNeue-Medium-69"/>
      <use x="279.799942" xlink:href="#HelveticaNeue-Medium-74"/>
      <use x="313.09993" xlink:href="#HelveticaNeue-Medium-79"/>
      <use x="364.999924" xlink:href="#HelveticaNeue-Medium-20"/>
      <use x="392.799911" xlink:href="#HelveticaNeue-Medium-64"/>
      <use x="453.899902" xlink:href="#HelveticaNeue-Medium-69"/>
      <use x="477.999893" xlink:href="#HelveticaNeue-Medium-73"/>
      <use x="529.899887" xlink:href="#HelveticaNeue-Medium-70"/>
      <use x="590.999878" xlink:href="#HelveticaNeue-Medium-65"/>
      <use x="646.599869" xlink:href="#HelveticaNeue-Medium-72"/>
      <use x="681.799866" xlink:href="#HelveticaNeue-Medium-73"/>
      <use x="733.69986" xlink:href="#HelveticaNeue-Medium-69"/>
      <use x="757.79985" xlink:href="#HelveticaNeue-Medium-6f"/>
      <use x="817.099838" xlink:href="#HelveticaNeue-Medium-6e"/>
      <use x="874.499832" xlink:href="#HelveticaNeue-Medium-20"/>
      <use x="902.29982" xlink:href="#HelveticaNeue-Medium-5b"/>
      <use x="931.899811" xlink:href="#HelveticaNeue-Medium-6c"/>
      <use x="955.999802" xlink:href="#HelveticaNeue-Medium-6f"/>
      <use x="1015.299789" xlink:href="#HelveticaNeue-Medium-67"/>
      <use x="1074.599777" xlink:href="#HelveticaNeue-Medium-2c"/>
      <use x="1102.399765" xlink:href="#HelveticaNeue-Medium-20"/>
      <use x="1130.199753" xlink:href="#HelveticaNeue-Medium-6b"/>
      <use x="1183.89975" xlink:href="#HelveticaNeue-Medium-6d"/>
      <use x="1270.899734" xlink:href="#HelveticaNeue-Medium-2f"/>
      <use x="1306.099731" xlink:href="#HelveticaNeue-Medium-73"/>
      <use x="1357.999725" xlink:href="#HelveticaNeue-Medium-5d"/>
     </g>
    </g>
   </g>
   <g id="LineCollection_1">
    <path clip-path="url(#pb25aebbc56)" d="M 71.692102 257.975714 
L 89.982499 257.975714 
" style="fill:none;stroke:#ffa500;stroke-width:1.5;"/>
    <path clip-path="url(#pb25aebbc56)" d="M 327.757659 122.768258 
L 344.219016 122.768258 
" style="fill:none;stroke:#ffa500;stroke-width:1.5;"/>
    <path clip-path="url(#pb25aebbc56)" d="M 275.630028 75.995247 
L 292.091385 75.995247 
" style="fill:none;stroke:#ffa500;stroke-width:1.5;"/>
    <path clip-path="url(#pb25aebbc56)" d="M 218.929798 160.759064 
L 235.391155 160.759064 
" style="fill:none;stroke:#ffa500;stroke-width:1.5;"/>
    <path clip-path="url(#pb25aebbc56)" d="M 296.663984 81.073514 
L 313.125342 81.073514 
" style="fill:none;stroke:#ffa500;stroke-width:1.5;"/>
    <path clip-path="url(#pb25aebbc56)" d="M 318.612461 97.670633 
L 335.073818 97.670633 
" style="fill:none;stroke:#ffa500;stroke-width:1.5;"/>
    <path clip-path="url(#pb25aebbc56)" d="M 281.117147 100.430576 
L 297.578504 100.430576 
" style="fill:none;stroke:#ffa500;stroke-width:1.5;"/>
    <path clip-path="url(#pb25aebbc56)" d="M 183.263524 154.883263 
L 199.724881 154.883263 
" style="fill:none;stroke:#ffa500;stroke-width:1.5;"/>
    <path clip-path="url(#pb25aebbc56)" d="M 256.425111 161.513255 
L 272.886468 161.513255 
" style="fill:none;stroke:#ffa500;stroke-width:1.5;"/>
    <path clip-path="url(#pb25aebbc56)" d="M 306.723703 88.462254 
L 323.18506 88.462254 
" style="fill:none;stroke:#ffa500;stroke-width:1.5;"/>
    <path clip-path="url(#pb25aebbc56)" d="M 205.212 178.497422 
L 221.673357 178.497422 
" style="fill:none;stroke:#ffa500;stroke-width:1.5;"/>
    <path clip-path="url(#pb25aebbc56)" d="M 242.707314 134.403645 
L 259.168671 134.403645 
" style="fill:none;stroke:#ffa500;stroke-width:1.5;"/>
    <path clip-path="url(#pb25aebbc56)" d="M 274.715508 121.112335 
L 291.176865 121.112335 
" style="fill:none;stroke:#ffa500;stroke-width:1.5;"/>
    <path clip-path="url(#pb25aebbc56)" d="M 251.852512 149.958226 
L 268.313869 149.958226 
" style="fill:none;stroke:#ffa500;stroke-width:1.5;"/>
    <path clip-path="url(#pb25aebbc56)" d="M 321.35602 100.430576 
L 337.817378 100.430576 
" style="fill:none;stroke:#ffa500;stroke-width:1.5;"/>
    <path clip-path="url(#pb25aebbc56)" d="M 310.381782 81.073514 
L 326.843139 81.073514 
" style="fill:none;stroke:#ffa500;stroke-width:1.5;"/>
    <path clip-path="url(#pb25aebbc56)" d="M 237.220194 114.178768 
L 253.681552 114.178768 
" style="fill:none;stroke:#ffa500;stroke-width:1.5;"/>
    <path clip-path="url(#pb25aebbc56)" d="M 307.638223 88.88577 
L 324.09958 88.88577 
" style="fill:none;stroke:#ffa500;stroke-width:1.5;"/>
    <path clip-path="url(#pb25aebbc56)" d="M 297.578504 149.958226 
L 314.039862 149.958226 
" style="fill:none;stroke:#ffa500;stroke-width:1.5;"/>
    <path clip-path="url(#pb25aebbc56)" d="M 239.963754 160.759064 
L 256.425111 160.759064 
" style="fill:none;stroke:#ffa500;stroke-width:1.5;"/>
    <path clip-path="url(#pb25aebbc56)" d="M 327.757659 87.200209 
L 344.219016 87.200209 
" style="fill:none;stroke:#ffa500;stroke-width:1.5;"/>
    <path clip-path="url(#pb25aebbc56)" d="M 237.220194 144.556432 
L 253.681552 144.556432 
" style="fill:none;stroke:#ffa500;stroke-width:1.5;"/>
    <path clip-path="url(#pb25aebbc56)" d="M 316.783421 77.536031 
L 333.244778 77.536031 
" style="fill:none;stroke:#ffa500;stroke-width:1.5;"/>
    <path clip-path="url(#pb25aebbc56)" d="M 125.648773 147.905226 
L 143.93917 147.905226 
" style="fill:none;stroke:#ffa500;stroke-width:1.5;"/>
    <path clip-path="url(#pb25aebbc56)" d="M 309.467262 57.516317 
L 325.92862 57.516317 
" style="fill:none;stroke:#ffa500;stroke-width:1.5;"/>
    <path clip-path="url(#pb25aebbc56)" d="M 248.194433 153.456289 
L 264.65579 153.456289 
" style="fill:none;stroke:#ffa500;stroke-width:1.5;"/>
    <path clip-path="url(#pb25aebbc56)" d="M 265.57031 66.06195 
L 282.031667 66.06195 
" style="fill:none;stroke:#ffa500;stroke-width:1.5;"/>
    <path clip-path="url(#pb25aebbc56)" d="M 350.620655 68.924121 
L 367.082013 68.924121 
" style="fill:none;stroke:#ffa500;stroke-width:1.5;"/>
    <path clip-path="url(#pb25aebbc56)" d="M 276.544548 125.010681 
L 293.005905 125.010681 
" style="fill:none;stroke:#ffa500;stroke-width:1.5;"/>
    <path clip-path="url(#pb25aebbc56)" d="M 255.510591 174.240325 
L 271.971949 174.240325 
" style="fill:none;stroke:#ffa500;stroke-width:1.5;"/>
    <path clip-path="url(#pb25aebbc56)" d="M 310.381782 74.095478 
L 326.843139 74.095478 
" style="fill:none;stroke:#ffa500;stroke-width:1.5;"/>
    <path clip-path="url(#pb25aebbc56)" d="M 305.809183 75.995247 
L 322.27054 75.995247 
" style="fill:none;stroke:#ffa500;stroke-width:1.5;"/>
    <path clip-path="url(#pb25aebbc56)" d="M 250.937992 149.270156 
L 267.399349 149.270156 
" style="fill:none;stroke:#ffa500;stroke-width:1.5;"/>
    <path clip-path="url(#pb25aebbc56)" d="M 211.613639 115.745179 
L 228.074996 115.745179 
" style="fill:none;stroke:#ffa500;stroke-width:1.5;"/>
    <path clip-path="url(#pb25aebbc56)" d="M 314.039862 79.883246 
L 330.501219 79.883246 
" style="fill:none;stroke:#ffa500;stroke-width:1.5;"/>
    <path clip-path="url(#pb25aebbc56)" d="M 273.800988 54.576908 
L 290.262346 54.576908 
" style="fill:none;stroke:#ffa500;stroke-width:1.5;"/>
    <path clip-path="url(#pb25aebbc56)" d="M 305.809183 102.304825 
L 324.09958 102.304825 
" style="fill:none;stroke:#ffa500;stroke-width:1.5;"/>
    <path clip-path="url(#pb25aebbc56)" d="M 310.381782 90.594263 
L 326.843139 90.594263 
" style="fill:none;stroke:#ffa500;stroke-width:1.5;"/>
    <path clip-path="url(#pb25aebbc56)" d="M 319.526981 106.627053 
L 335.988338 106.627053 
" style="fill:none;stroke:#ffa500;stroke-width:1.5;"/>
    <path clip-path="url(#pb25aebbc56)" d="M 305.809183 74.85194 
L 322.27054 74.85194 
" style="fill:none;stroke:#ffa500;stroke-width:1.5;"/>
    <path clip-path="url(#pb25aebbc56)" d="M 324.09958 92.326323 
L 342.389977 92.326323 
" style="fill:none;stroke:#ffa500;stroke-width:1.5;"/>
    <path clip-path="url(#pb25aebbc56)" d="M 322.27054 78.313571 
L 338.731897 78.313571 
" style="fill:none;stroke:#ffa500;stroke-width:1.5;"/>
   </g>
   <g id="LineCollection_2">
    <path clip-path="url(#pb25aebbc56)" d="M 80.837301 262.966 
L 80.837301 253.176187 
" style="fill:none;stroke:#ffa500;stroke-width:1.5;"/>
    <path clip-path="url(#pb25aebbc56)" d="M 335.988338 127.871223 
L 335.988338 117.864594 
" style="fill:none;stroke:#ffa500;stroke-width:1.5;"/>
    <path clip-path="url(#pb25aebbc56)" d="M 283.860707 79.488984 
L 283.860707 72.596089 
" style="fill:none;stroke:#ffa500;stroke-width:1.5;"/>
    <path clip-path="url(#pb25aebbc56)" d="M 227.160476 163.035362 
L 227.160476 158.523296 
" style="fill:none;stroke:#ffa500;stroke-width:1.5;"/>
    <path clip-path="url(#pb25aebbc56)" d="M 304.894663 82.275173 
L 304.894663 79.883246 
" style="fill:none;stroke:#ffa500;stroke-width:1.5;"/>
    <path clip-path="url(#pb25aebbc56)" d="M 326.843139 98.583891 
L 326.843139 96.76397 
" style="fill:none;stroke:#ffa500;stroke-width:1.5;"/>
    <path clip-path="url(#pb25aebbc56)" d="M 289.347826 105.169718 
L 289.347826 95.863806 
" style="fill:none;stroke:#ffa500;stroke-width:1.5;"/>
    <path clip-path="url(#pb25aebbc56)" d="M 191.494202 160.759064 
L 191.494202 149.270156 
" style="fill:none;stroke:#ffa500;stroke-width:1.5;"/>
    <path clip-path="url(#pb25aebbc56)" d="M 264.65579 174.240325 
L 264.65579 149.958226 
" style="fill:none;stroke:#ffa500;stroke-width:1.5;"/>
    <path clip-path="url(#pb25aebbc56)" d="M 314.954381 93.641229 
L 314.954381 83.488441 
" style="fill:none;stroke:#ffa500;stroke-width:1.5;"/>
    <path clip-path="url(#pb25aebbc56)" d="M 213.442678 184.710749 
L 213.442678 172.57709 
" style="fill:none;stroke:#ffa500;stroke-width:1.5;"/>
    <path clip-path="url(#pb25aebbc56)" d="M 250.937992 140.652314 
L 250.937992 128.451235 
" style="fill:none;stroke:#ffa500;stroke-width:1.5;"/>
    <path clip-path="url(#pb25aebbc56)" d="M 282.946187 127.293878 
L 282.946187 115.220868 
" style="fill:none;stroke:#ffa500;stroke-width:1.5;"/>
    <path clip-path="url(#pb25aebbc56)" d="M 260.083191 156.326639 
L 260.083191 143.897258 
" style="fill:none;stroke:#ffa500;stroke-width:1.5;"/>
    <path clip-path="url(#pb25aebbc56)" d="M 329.586699 113.660943 
L 329.586699 88.462254 
" style="fill:none;stroke:#ffa500;stroke-width:1.5;"/>
    <path clip-path="url(#pb25aebbc56)" d="M 318.612461 87.200209 
L 318.612461 75.231887 
" style="fill:none;stroke:#ffa500;stroke-width:1.5;"/>
    <path clip-path="url(#pb25aebbc56)" d="M 245.450873 120.565178 
L 245.450873 108.101501 
" style="fill:none;stroke:#ffa500;stroke-width:1.5;"/>
    <path clip-path="url(#pb25aebbc56)" d="M 315.868901 94.970049 
L 315.868901 83.082715 
" style="fill:none;stroke:#ffa500;stroke-width:1.5;"/>
    <path clip-path="url(#pb25aebbc56)" d="M 305.809183 153.456289 
L 305.809183 146.554973 
" style="fill:none;stroke:#ffa500;stroke-width:1.5;"/>
    <path clip-path="url(#pb25aebbc56)" d="M 248.194433 166.923361 
L 248.194433 154.883263 
" style="fill:none;stroke:#ffa500;stroke-width:1.5;"/>
    <path clip-path="url(#pb25aebbc56)" d="M 335.988338 90.164956 
L 335.988338 84.303849 
" style="fill:none;stroke:#ffa500;stroke-width:1.5;"/>
    <path clip-path="url(#pb25aebbc56)" d="M 245.450873 150.650086 
L 245.450873 138.74485 
" style="fill:none;stroke:#ffa500;stroke-width:1.5;"/>
    <path clip-path="url(#pb25aebbc56)" d="M 325.0141 88.88577 
L 325.0141 67.127634 
" style="fill:none;stroke:#ffa500;stroke-width:1.5;"/>
    <path clip-path="url(#pb25aebbc56)" d="M 134.793972 154.167749 
L 134.793972 141.940247 
" style="fill:none;stroke:#ffa500;stroke-width:1.5;"/>
    <path clip-path="url(#pb25aebbc56)" d="M 317.697941 63.957336 
L 317.697941 51.389622 
" style="fill:none;stroke:#ffa500;stroke-width:1.5;"/>
    <path clip-path="url(#pb25aebbc56)" d="M 256.425111 159.264138 
L 256.425111 147.905226 
" style="fill:none;stroke:#ffa500;stroke-width:1.5;"/>
    <path clip-path="url(#pb25aebbc56)" d="M 273.800988 71.114392 
L 273.800988 61.204955 
" style="fill:none;stroke:#ffa500;stroke-width:1.5;"/>
    <path clip-path="url(#pb25aebbc56)" d="M 358.851334 70.746684 
L 358.851334 67.127634 
" style="fill:none;stroke:#ffa500;stroke-width:1.5;"/>
    <path clip-path="url(#pb25aebbc56)" d="M 284.775226 131.392173 
L 284.775226 118.937868 
" style="fill:none;stroke:#ffa500;stroke-width:1.5;"/>
    <path clip-path="url(#pb25aebbc56)" d="M 263.74127 180.24151 
L 263.74127 168.512906 
" style="fill:none;stroke:#ffa500;stroke-width:1.5;"/>
    <path clip-path="url(#pb25aebbc56)" d="M 318.612461 74.85194 
L 318.612461 73.343545 
" style="fill:none;stroke:#ffa500;stroke-width:1.5;"/>
    <path clip-path="url(#pb25aebbc56)" d="M 314.039862 80.27875 
L 314.039862 71.853055 
" style="fill:none;stroke:#ffa500;stroke-width:1.5;"/>
    <path clip-path="url(#pb25aebbc56)" d="M 259.168671 155.602877 
L 259.168671 143.241526 
" style="fill:none;stroke:#ffa500;stroke-width:1.5;"/>
    <path clip-path="url(#pb25aebbc56)" d="M 219.844317 121.661887 
L 219.844317 110.094754 
" style="fill:none;stroke:#ffa500;stroke-width:1.5;"/>
    <path clip-path="url(#pb25aebbc56)" d="M 322.27054 80.675503 
L 322.27054 79.095956 
" style="fill:none;stroke:#ffa500;stroke-width:1.5;"/>
    <path clip-path="url(#pb25aebbc56)" d="M 282.031667 55.549086 
L 282.031667 53.612199 
" style="fill:none;stroke:#ffa500;stroke-width:1.5;"/>
    <path clip-path="url(#pb25aebbc56)" d="M 314.954381 108.596856 
L 314.954381 96.313081 
" style="fill:none;stroke:#ffa500;stroke-width:1.5;"/>
    <path clip-path="url(#pb25aebbc56)" d="M 318.612461 92.763097 
L 318.612461 88.462254 
" style="fill:none;stroke:#ffa500;stroke-width:1.5;"/>
    <path clip-path="url(#pb25aebbc56)" d="M 327.757659 120.020395 
L 327.757659 94.525544 
" style="fill:none;stroke:#ffa500;stroke-width:1.5;"/>
    <path clip-path="url(#pb25aebbc56)" d="M 314.039862 76.763276 
L 314.039862 72.969261 
" style="fill:none;stroke:#ffa500;stroke-width:1.5;"/>
    <path clip-path="url(#pb25aebbc56)" d="M 333.244778 98.583891 
L 333.244778 86.365839 
" style="fill:none;stroke:#ffa500;stroke-width:1.5;"/>
    <path clip-path="url(#pb25aebbc56)" d="M 330.501219 84.713547 
L 330.501219 72.224022 
" style="fill:none;stroke:#ffa500;stroke-width:1.5;"/>
   </g>
   <g id="line2d_33">
    <defs>
     <path d="M 0 2 
L 0 -2 
" id="mfcbc3de61f" style="stroke:#ffa500;"/>
    </defs>
    <g clip-path="url(#pb25aebbc56)">
     <use style="fill:#ffa500;stroke:#ffa500;" x="71.692102" xlink:href="#mfcbc3de61f" y="257.975714"/>
     <use style="fill:#ffa500;stroke:#ffa500;" x="327.757659" xlink:href="#mfcbc3de61f" y="122.768258"/>
     <use style="fill:#ffa500;stroke:#ffa500;" x="275.630028" xlink:href="#mfcbc3de61f" y="75.995247"/>
     <use style="fill:#ffa500;stroke:#ffa500;" x="218.929798" xlink:href="#mfcbc3de61f" y="160.759064"/>
     <use style="fill:#ffa500;stroke:#ffa500;" x="296.663984" xlink:href="#mfcbc3de61f" y="81.073514"/>
     <use style="fill:#ffa500;stroke:#ffa500;" x="318.612461" xlink:href="#mfcbc3de61f" y="97.670633"/>
     <use style="fill:#ffa500;stroke:#ffa500;" x="281.117147" xlink:href="#mfcbc3de61f" y="100.430576"/>
     <use style="fill:#ffa500;stroke:#ffa500;" x="183.263524" xlink:href="#mfcbc3de61f" y="154.883263"/>
     <use style="fill:#ffa500;stroke:#ffa500;" x="256.425111" xlink:href="#mfcbc3de61f" y="161.513255"/>
     <use style="fill:#ffa500;stroke:#ffa500;" x="306.723703" xlink:href="#mfcbc3de61f" y="88.462254"/>
     <use style="fill:#ffa500;stroke:#ffa500;" x="205.212" xlink:href="#mfcbc3de61f" y="178.497422"/>
     <use style="fill:#ffa500;stroke:#ffa500;" x="242.707314" xlink:href="#mfcbc3de61f" y="134.403645"/>
     <use style="fill:#ffa500;stroke:#ffa500;" x="274.715508" xlink:href="#mfcbc3de61f" y="121.112335"/>
     <use style="fill:#ffa500;stroke:#ffa500;" x="251.852512" xlink:href="#mfcbc3de61f" y="149.958226"/>
     <use style="fill:#ffa500;stroke:#ffa500;" x="321.35602" xlink:href="#mfcbc3de61f" y="100.430576"/>
     <use style="fill:#ffa500;stroke:#ffa500;" x="310.381782" xlink:href="#mfcbc3de61f" y="81.073514"/>
     <use style="fill:#ffa500;stroke:#ffa500;" x="237.220194" xlink:href="#mfcbc3de61f" y="114.178768"/>
     <use style="fill:#ffa500;stroke:#ffa500;" x="307.638223" xlink:href="#mfcbc3de61f" y="88.88577"/>
     <use style="fill:#ffa500;stroke:#ffa500;" x="297.578504" xlink:href="#mfcbc3de61f" y="149.958226"/>
     <use style="fill:#ffa500;stroke:#ffa500;" x="239.963754" xlink:href="#mfcbc3de61f" y="160.759064"/>
     <use style="fill:#ffa500;stroke:#ffa500;" x="327.757659" xlink:href="#mfcbc3de61f" y="87.200209"/>
     <use style="fill:#ffa500;stroke:#ffa500;" x="237.220194" xlink:href="#mfcbc3de61f" y="144.556432"/>
     <use style="fill:#ffa500;stroke:#ffa500;" x="316.783421" xlink:href="#mfcbc3de61f" y="77.536031"/>
     <use style="fill:#ffa500;stroke:#ffa500;" x="125.648773" xlink:href="#mfcbc3de61f" y="147.905226"/>
     <use style="fill:#ffa500;stroke:#ffa500;" x="309.467262" xlink:href="#mfcbc3de61f" y="57.516317"/>
     <use style="fill:#ffa500;stroke:#ffa500;" x="248.194433" xlink:href="#mfcbc3de61f" y="153.456289"/>
     <use style="fill:#ffa500;stroke:#ffa500;" x="265.57031" xlink:href="#mfcbc3de61f" y="66.06195"/>
     <use style="fill:#ffa500;stroke:#ffa500;" x="350.620655" xlink:href="#mfcbc3de61f" y="68.924121"/>
     <use style="fill:#ffa500;stroke:#ffa500;" x="276.544548" xlink:href="#mfcbc3de61f" y="125.010681"/>
     <use style="fill:#ffa500;stroke:#ffa500;" x="255.510591" xlink:href="#mfcbc3de61f" y="174.240325"/>
     <use style="fill:#ffa500;stroke:#ffa500;" x="310.381782" xlink:href="#mfcbc3de61f" y="74.095478"/>
     <use style="fill:#ffa500;stroke:#ffa500;" x="305.809183" xlink:href="#mfcbc3de61f" y="75.995247"/>
     <use style="fill:#ffa500;stroke:#ffa500;" x="250.937992" xlink:href="#mfcbc3de61f" y="149.270156"/>
     <use style="fill:#ffa500;stroke:#ffa500;" x="211.613639" xlink:href="#mfcbc3de61f" y="115.745179"/>
     <use style="fill:#ffa500;stroke:#ffa500;" x="314.039862" xlink:href="#mfcbc3de61f" y="79.883246"/>
     <use style="fill:#ffa500;stroke:#ffa500;" x="273.800988" xlink:href="#mfcbc3de61f" y="54.576908"/>
     <use style="fill:#ffa500;stroke:#ffa500;" x="305.809183" xlink:href="#mfcbc3de61f" y="102.304825"/>
     <use style="fill:#ffa500;stroke:#ffa500;" x="310.381782" xlink:href="#mfcbc3de61f" y="90.594263"/>
     <use style="fill:#ffa500;stroke:#ffa500;" x="319.526981" xlink:href="#mfcbc3de61f" y="106.627053"/>
     <use style="fill:#ffa500;stroke:#ffa500;" x="305.809183" xlink:href="#mfcbc3de61f" y="74.85194"/>
     <use style="fill:#ffa500;stroke:#ffa500;" x="324.09958" xlink:href="#mfcbc3de61f" y="92.326323"/>
     <use style="fill:#ffa500;stroke:#ffa500;" x="322.27054" xlink:href="#mfcbc3de61f" y="78.313571"/>
    </g>
   </g>
   <g id="line2d_34">
    <g clip-path="url(#pb25aebbc56)">
     <use style="fill:#ffa500;stroke:#ffa500;" x="89.982499" xlink:href="#mfcbc3de61f" y="257.975714"/>
     <use style="fill:#ffa500;stroke:#ffa500;" x="344.219016" xlink:href="#mfcbc3de61f" y="122.768258"/>
     <use style="fill:#ffa500;stroke:#ffa500;" x="292.091385" xlink:href="#mfcbc3de61f" y="75.995247"/>
     <use style="fill:#ffa500;stroke:#ffa500;" x="235.391155" xlink:href="#mfcbc3de61f" y="160.759064"/>
     <use style="fill:#ffa500;stroke:#ffa500;" x="313.125342" xlink:href="#mfcbc3de61f" y="81.073514"/>
     <use style="fill:#ffa500;stroke:#ffa500;" x="335.073818" xlink:href="#mfcbc3de61f" y="97.670633"/>
     <use style="fill:#ffa500;stroke:#ffa500;" x="297.578504" xlink:href="#mfcbc3de61f" y="100.430576"/>
     <use style="fill:#ffa500;stroke:#ffa500;" x="199.724881" xlink:href="#mfcbc3de61f" y="154.883263"/>
     <use style="fill:#ffa500;stroke:#ffa500;" x="272.886468" xlink:href="#mfcbc3de61f" y="161.513255"/>
     <use style="fill:#ffa500;stroke:#ffa500;" x="323.18506" xlink:href="#mfcbc3de61f" y="88.462254"/>
     <use style="fill:#ffa500;stroke:#ffa500;" x="221.673357" xlink:href="#mfcbc3de61f" y="178.497422"/>
     <use style="fill:#ffa500;stroke:#ffa500;" x="259.168671" xlink:href="#mfcbc3de61f" y="134.403645"/>
     <use style="fill:#ffa500;stroke:#ffa500;" x="291.176865" xlink:href="#mfcbc3de61f" y="121.112335"/>
     <use style="fill:#ffa500;stroke:#ffa500;" x="268.313869" xlink:href="#mfcbc3de61f" y="149.958226"/>
     <use style="fill:#ffa500;stroke:#ffa500;" x="337.817378" xlink:href="#mfcbc3de61f" y="100.430576"/>
     <use style="fill:#ffa500;stroke:#ffa500;" x="326.843139" xlink:href="#mfcbc3de61f" y="81.073514"/>
     <use style="fill:#ffa500;stroke:#ffa500;" x="253.681552" xlink:href="#mfcbc3de61f" y="114.178768"/>
     <use style="fill:#ffa500;stroke:#ffa500;" x="324.09958" xlink:href="#mfcbc3de61f" y="88.88577"/>
     <use style="fill:#ffa500;stroke:#ffa500;" x="314.039862" xlink:href="#mfcbc3de61f" y="149.958226"/>
     <use style="fill:#ffa500;stroke:#ffa500;" x="256.425111" xlink:href="#mfcbc3de61f" y="160.759064"/>
     <use style="fill:#ffa500;stroke:#ffa500;" x="344.219016" xlink:href="#mfcbc3de61f" y="87.200209"/>
     <use style="fill:#ffa500;stroke:#ffa500;" x="253.681552" xlink:href="#mfcbc3de61f" y="144.556432"/>
     <use style="fill:#ffa500;stroke:#ffa500;" x="333.244778" xlink:href="#mfcbc3de61f" y="77.536031"/>
     <use style="fill:#ffa500;stroke:#ffa500;" x="143.93917" xlink:href="#mfcbc3de61f" y="147.905226"/>
     <use style="fill:#ffa500;stroke:#ffa500;" x="325.92862" xlink:href="#mfcbc3de61f" y="57.516317"/>
     <use style="fill:#ffa500;stroke:#ffa500;" x="264.65579" xlink:href="#mfcbc3de61f" y="153.456289"/>
     <use style="fill:#ffa500;stroke:#ffa500;" x="282.031667" xlink:href="#mfcbc3de61f" y="66.06195"/>
     <use style="fill:#ffa500;stroke:#ffa500;" x="367.082013" xlink:href="#mfcbc3de61f" y="68.924121"/>
     <use style="fill:#ffa500;stroke:#ffa500;" x="293.005905" xlink:href="#mfcbc3de61f" y="125.010681"/>
     <use style="fill:#ffa500;stroke:#ffa500;" x="271.971949" xlink:href="#mfcbc3de61f" y="174.240325"/>
     <use style="fill:#ffa500;stroke:#ffa500;" x="326.843139" xlink:href="#mfcbc3de61f" y="74.095478"/>
     <use style="fill:#ffa500;stroke:#ffa500;" x="322.27054" xlink:href="#mfcbc3de61f" y="75.995247"/>
     <use style="fill:#ffa500;stroke:#ffa500;" x="267.399349" xlink:href="#mfcbc3de61f" y="149.270156"/>
     <use style="fill:#ffa500;stroke:#ffa500;" x="228.074996" xlink:href="#mfcbc3de61f" y="115.745179"/>
     <use style="fill:#ffa500;stroke:#ffa500;" x="330.501219" xlink:href="#mfcbc3de61f" y="79.883246"/>
     <use style="fill:#ffa500;stroke:#ffa500;" x="290.262346" xlink:href="#mfcbc3de61f" y="54.576908"/>
     <use style="fill:#ffa500;stroke:#ffa500;" x="324.09958" xlink:href="#mfcbc3de61f" y="102.304825"/>
     <use style="fill:#ffa500;stroke:#ffa500;" x="326.843139" xlink:href="#mfcbc3de61f" y="90.594263"/>
     <use style="fill:#ffa500;stroke:#ffa500;" x="335.988338" xlink:href="#mfcbc3de61f" y="106.627053"/>
     <use style="fill:#ffa500;stroke:#ffa500;" x="322.27054" xlink:href="#mfcbc3de61f" y="74.85194"/>
     <use style="fill:#ffa500;stroke:#ffa500;" x="342.389977" xlink:href="#mfcbc3de61f" y="92.326323"/>
     <use style="fill:#ffa500;stroke:#ffa500;" x="338.731897" xlink:href="#mfcbc3de61f" y="78.313571"/>
    </g>
   </g>
   <g id="line2d_35">
    <defs>
     <path d="M 2 0 
L -2 -0 
" id="m55f0bf57ce" style="stroke:#ffa500;"/>
    </defs>
    <g clip-path="url(#pb25aebbc56)">
     <use style="fill:#ffa500;stroke:#ffa500;" x="80.837301" xlink:href="#m55f0bf57ce" y="262.966"/>
     <use style="fill:#ffa500;stroke:#ffa500;" x="335.988338" xlink:href="#m55f0bf57ce" y="127.871223"/>
     <use style="fill:#ffa500;stroke:#ffa500;" x="283.860707" xlink:href="#m55f0bf57ce" y="79.488984"/>
     <use style="fill:#ffa500;stroke:#ffa500;" x="227.160476" xlink:href="#m55f0bf57ce" y="163.035362"/>
     <use style="fill:#ffa500;stroke:#ffa500;" x="304.894663" xlink:href="#m55f0bf57ce" y="82.275173"/>
     <use style="fill:#ffa500;stroke:#ffa500;" x="326.843139" xlink:href="#m55f0bf57ce" y="98.583891"/>
     <use style="fill:#ffa500;stroke:#ffa500;" x="289.347826" xlink:href="#m55f0bf57ce" y="105.169718"/>
     <use style="fill:#ffa500;stroke:#ffa500;" x="191.494202" xlink:href="#m55f0bf57ce" y="160.759064"/>
     <use style="fill:#ffa500;stroke:#ffa500;" x="264.65579" xlink:href="#m55f0bf57ce" y="174.240325"/>
     <use style="fill:#ffa500;stroke:#ffa500;" x="314.954381" xlink:href="#m55f0bf57ce" y="93.641229"/>
     <use style="fill:#ffa500;stroke:#ffa500;" x="213.442678" xlink:href="#m55f0bf57ce" y="184.710749"/>
     <use style="fill:#ffa500;stroke:#ffa500;" x="250.937992" xlink:href="#m55f0bf57ce" y="140.652314"/>
     <use style="fill:#ffa500;stroke:#ffa500;" x="282.946187" xlink:href="#m55f0bf57ce" y="127.293878"/>
     <use style="fill:#ffa500;stroke:#ffa500;" x="260.083191" xlink:href="#m55f0bf57ce" y="156.326639"/>
     <use style="fill:#ffa500;stroke:#ffa500;" x="329.586699" xlink:href="#m55f0bf57ce" y="113.660943"/>
     <use style="fill:#ffa500;stroke:#ffa500;" x="318.612461" xlink:href="#m55f0bf57ce" y="87.200209"/>
     <use style="fill:#ffa500;stroke:#ffa500;" x="245.450873" xlink:href="#m55f0bf57ce" y="120.565178"/>
     <use style="fill:#ffa500;stroke:#ffa500;" x="315.868901" xlink:href="#m55f0bf57ce" y="94.970049"/>
     <use style="fill:#ffa500;stroke:#ffa500;" x="305.809183" xlink:href="#m55f0bf57ce" y="153.456289"/>
     <use style="fill:#ffa500;stroke:#ffa500;" x="248.194433" xlink:href="#m55f0bf57ce" y="166.923361"/>
     <use style="fill:#ffa500;stroke:#ffa500;" x="335.988338" xlink:href="#m55f0bf57ce" y="90.164956"/>
     <use style="fill:#ffa500;stroke:#ffa500;" x="245.450873" xlink:href="#m55f0bf57ce" y="150.650086"/>
     <use style="fill:#ffa500;stroke:#ffa500;" x="325.0141" xlink:href="#m55f0bf57ce" y="88.88577"/>
     <use style="fill:#ffa500;stroke:#ffa500;" x="134.793972" xlink:href="#m55f0bf57ce" y="154.167749"/>
     <use style="fill:#ffa500;stroke:#ffa500;" x="317.697941" xlink:href="#m55f0bf57ce" y="63.957336"/>
     <use style="fill:#ffa500;stroke:#ffa500;" x="256.425111" xlink:href="#m55f0bf57ce" y="159.264138"/>
     <use style="fill:#ffa500;stroke:#ffa500;" x="273.800988" xlink:href="#m55f0bf57ce" y="71.114392"/>
     <use style="fill:#ffa500;stroke:#ffa500;" x="358.851334" xlink:href="#m55f0bf57ce" y="70.746684"/>
     <use style="fill:#ffa500;stroke:#ffa500;" x="284.775226" xlink:href="#m55f0bf57ce" y="131.392173"/>
     <use style="fill:#ffa500;stroke:#ffa500;" x="263.74127" xlink:href="#m55f0bf57ce" y="180.24151"/>
     <use style="fill:#ffa500;stroke:#ffa500;" x="318.612461" xlink:href="#m55f0bf57ce" y="74.85194"/>
     <use style="fill:#ffa500;stroke:#ffa500;" x="314.039862" xlink:href="#m55f0bf57ce" y="80.27875"/>
     <use style="fill:#ffa500;stroke:#ffa500;" x="259.168671" xlink:href="#m55f0bf57ce" y="155.602877"/>
     <use style="fill:#ffa500;stroke:#ffa500;" x="219.844317" xlink:href="#m55f0bf57ce" y="121.661887"/>
     <use style="fill:#ffa500;stroke:#ffa500;" x="322.27054" xlink:href="#m55f0bf57ce" y="80.675503"/>
     <use style="fill:#ffa500;stroke:#ffa500;" x="282.031667" xlink:href="#m55f0bf57ce" y="55.549086"/>
     <use style="fill:#ffa500;stroke:#ffa500;" x="314.954381" xlink:href="#m55f0bf57ce" y="108.596856"/>
     <use style="fill:#ffa500;stroke:#ffa500;" x="318.612461" xlink:href="#m55f0bf57ce" y="92.763097"/>
     <use style="fill:#ffa500;stroke:#ffa500;" x="327.757659" xlink:href="#m55f0bf57ce" y="120.020395"/>
     <use style="fill:#ffa500;stroke:#ffa500;" x="314.039862" xlink:href="#m55f0bf57ce" y="76.763276"/>
     <use style="fill:#ffa500;stroke:#ffa500;" x="333.244778" xlink:href="#m55f0bf57ce" y="98.583891"/>
     <use style="fill:#ffa500;stroke:#ffa500;" x="330.501219" xlink:href="#m55f0bf57ce" y="84.713547"/>
    </g>
   </g>
   <g id="line2d_36">
    <g clip-path="url(#pb25aebbc56)">
     <use style="fill:#ffa500;stroke:#ffa500;" x="80.837301" xlink:href="#m55f0bf57ce" y="253.176187"/>
     <use style="fill:#ffa500;stroke:#ffa500;" x="335.988338" xlink:href="#m55f0bf57ce" y="117.864594"/>
     <use style="fill:#ffa500;stroke:#ffa500;" x="283.860707" xlink:href="#m55f0bf57ce" y="72.596089"/>
     <use style="fill:#ffa500;stroke:#ffa500;" x="227.160476" xlink:href="#m55f0bf57ce" y="158.523296"/>
     <use style="fill:#ffa500;stroke:#ffa500;" x="304.894663" xlink:href="#m55f0bf57ce" y="79.883246"/>
     <use style="fill:#ffa500;stroke:#ffa500;" x="326.843139" xlink:href="#m55f0bf57ce" y="96.76397"/>
     <use style="fill:#ffa500;stroke:#ffa500;" x="289.347826" xlink:href="#m55f0bf57ce" y="95.863806"/>
     <use style="fill:#ffa500;stroke:#ffa500;" x="191.494202" xlink:href="#m55f0bf57ce" y="149.270156"/>
     <use style="fill:#ffa500;stroke:#ffa500;" x="264.65579" xlink:href="#m55f0bf57ce" y="149.958226"/>
     <use style="fill:#ffa500;stroke:#ffa500;" x="314.954381" xlink:href="#m55f0bf57ce" y="83.488441"/>
     <use style="fill:#ffa500;stroke:#ffa500;" x="213.442678" xlink:href="#m55f0bf57ce" y="172.57709"/>
     <use style="fill:#ffa500;stroke:#ffa500;" x="250.937992" xlink:href="#m55f0bf57ce" y="128.451235"/>
     <use style="fill:#ffa500;stroke:#ffa500;" x="282.946187" xlink:href="#m55f0bf57ce" y="115.220868"/>
     <use style="fill:#ffa500;stroke:#ffa500;" x="260.083191" xlink:href="#m55f0bf57ce" y="143.897258"/>
     <use style="fill:#ffa500;stroke:#ffa500;" x="329.586699" xlink:href="#m55f0bf57ce" y="88.462254"/>
     <use style="fill:#ffa500;stroke:#ffa500;" x="318.612461" xlink:href="#m55f0bf57ce" y="75.231887"/>
     <use style="fill:#ffa500;stroke:#ffa500;" x="245.450873" xlink:href="#m55f0bf57ce" y="108.101501"/>
     <use style="fill:#ffa500;stroke:#ffa500;" x="315.868901" xlink:href="#m55f0bf57ce" y="83.082715"/>
     <use style="fill:#ffa500;stroke:#ffa500;" x="305.809183" xlink:href="#m55f0bf57ce" y="146.554973"/>
     <use style="fill:#ffa500;stroke:#ffa500;" x="248.194433" xlink:href="#m55f0bf57ce" y="154.883263"/>
     <use style="fill:#ffa500;stroke:#ffa500;" x="335.988338" xlink:href="#m55f0bf57ce" y="84.303849"/>
     <use style="fill:#ffa500;stroke:#ffa500;" x="245.450873" xlink:href="#m55f0bf57ce" y="138.74485"/>
     <use style="fill:#ffa500;stroke:#ffa500;" x="325.0141" xlink:href="#m55f0bf57ce" y="67.127634"/>
     <use style="fill:#ffa500;stroke:#ffa500;" x="134.793972" xlink:href="#m55f0bf57ce" y="141.940247"/>
     <use style="fill:#ffa500;stroke:#ffa500;" x="317.697941" xlink:href="#m55f0bf57ce" y="51.389622"/>
     <use style="fill:#ffa500;stroke:#ffa500;" x="256.425111" xlink:href="#m55f0bf57ce" y="147.905226"/>
     <use style="fill:#ffa500;stroke:#ffa500;" x="273.800988" xlink:href="#m55f0bf57ce" y="61.204955"/>
     <use style="fill:#ffa500;stroke:#ffa500;" x="358.851334" xlink:href="#m55f0bf57ce" y="67.127634"/>
     <use style="fill:#ffa500;stroke:#ffa500;" x="284.775226" xlink:href="#m55f0bf57ce" y="118.937868"/>
     <use style="fill:#ffa500;stroke:#ffa500;" x="263.74127" xlink:href="#m55f0bf57ce" y="168.512906"/>
     <use style="fill:#ffa500;stroke:#ffa500;" x="318.612461" xlink:href="#m55f0bf57ce" y="73.343545"/>
     <use style="fill:#ffa500;stroke:#ffa500;" x="314.039862" xlink:href="#m55f0bf57ce" y="71.853055"/>
     <use style="fill:#ffa500;stroke:#ffa500;" x="259.168671" xlink:href="#m55f0bf57ce" y="143.241526"/>
     <use style="fill:#ffa500;stroke:#ffa500;" x="219.844317" xlink:href="#m55f0bf57ce" y="110.094754"/>
     <use style="fill:#ffa500;stroke:#ffa500;" x="322.27054" xlink:href="#m55f0bf57ce" y="79.095956"/>
     <use style="fill:#ffa500;stroke:#ffa500;" x="282.031667" xlink:href="#m55f0bf57ce" y="53.612199"/>
     <use style="fill:#ffa500;stroke:#ffa500;" x="314.954381" xlink:href="#m55f0bf57ce" y="96.313081"/>
     <use style="fill:#ffa500;stroke:#ffa500;" x="318.612461" xlink:href="#m55f0bf57ce" y="88.462254"/>
     <use style="fill:#ffa500;stroke:#ffa500;" x="327.757659" xlink:href="#m55f0bf57ce" y="94.525544"/>
     <use style="fill:#ffa500;stroke:#ffa500;" x="314.039862" xlink:href="#m55f0bf57ce" y="72.969261"/>
     <use style="fill:#ffa500;stroke:#ffa500;" x="333.244778" xlink:href="#m55f0bf57ce" y="86.365839"/>
     <use style="fill:#ffa500;stroke:#ffa500;" x="330.501219" xlink:href="#m55f0bf57ce" y="72.224022"/>
    </g>
   </g>
   <g id="line2d_37">
    <path clip-path="url(#pb25aebbc56)" d="M 76.264702 236.648257 
L 83.484595 232.331236 
L 173.332159 178.352275 
L 178.947632 174.93443 
L 204.618364 159.120596 
L 219.860362 150.789349 
L 235.904569 140.465758 
L 245.531094 134.044746 
L 255.157619 128.342649 
L 258.36646 126.629836 
L 261.575302 124.772061 
L 272.806247 119.224459 
L 277.61951 116.622781 
L 283.234983 113.174977 
L 300.883611 102.86951 
L 303.290242 101.566477 
L 307.301294 98.821726 
L 314.521188 94.642113 
L 332.169816 84.933774 
L 338.5875 81.268367 
L 345.005183 77.204667 
L 396.346648 47.170703 
L 396.346648 47.170703 
" style="fill:none;stroke:#000000;stroke-width:1.5;"/>
   </g>
   <g id="line2d_38">
    <path clip-path="url(#pb25aebbc56)" d="M 76.264702 261.915873 
L 146.859216 220.658655 
L 170.123317 206.62118 
L 203.013943 185.812898 
L 216.65152 178.304033 
L 227.080255 171.779427 
L 239.915621 163.378889 
L 241.520042 162.32086 
L 245.531094 159.85151 
L 257.56425 151.969841 
L 260.773092 150.299779 
L 263.179723 149.12837 
L 267.190775 146.941222 
L 270.399616 144.925535 
L 272.806247 143.679481 
L 276.015089 142.005783 
L 278.42172 140.386259 
L 282.432772 137.687911 
L 286.443824 135.33775 
L 297.67477 129.289175 
L 308.905715 122.847554 
L 312.114557 121.091589 
L 315.323398 119.083474 
L 318.53224 117.345437 
L 327.356554 112.614361 
L 331.367606 110.412537 
L 340.994131 105.190062 
L 346.609603 101.430534 
L 355.433918 96.424548 
L 360.24718 93.77023 
L 369.873705 88.294984 
L 385.115702 78.399628 
L 396.346648 71.918287 
L 396.346648 71.918287 
" style="fill:none;stroke:#ff0000;stroke-dasharray:5.55,2.4;stroke-dashoffset:0;stroke-width:1.5;"/>
   </g>
   <g id="line2d_39">
    <path clip-path="url(#pb25aebbc56)" d="M 76.264702 208.376871 
L 150.068058 164.441714 
L 158.892372 159.472506 
L 174.93658 149.100382 
L 199.002891 135.353486 
L 217.45373 124.889889 
L 225.475834 120.343612 
L 231.893517 116.969721 
L 240.717832 112.065365 
L 255.959829 102.550792 
L 268.795195 95.583147 
L 272.004037 93.364683 
L 274.410668 92.039267 
L 278.42172 89.576432 
L 280.828351 88.119883 
L 291.257086 82.353925 
L 305.696873 73.865205 
L 317.730029 66.993458 
L 322.543292 64.049957 
L 335.378658 56.831734 
L 342.598551 52.902451 
L 346.609603 50.487939 
L 354.631707 45.586199 
L 396.346648 21.046 
L 396.346648 21.046 
" style="fill:none;stroke:#ff0000;stroke-dasharray:5.55,2.4;stroke-dashoffset:0;stroke-width:1.5;"/>
   </g>
   <g id="line2d_40">
    <defs>
     <path d="M 0 3 
C 0.795609 3 1.55874 2.683901 2.12132 2.12132 
C 2.683901 1.55874 3 0.795609 3 0 
C 3 -0.795609 2.683901 -1.55874 2.12132 -2.12132 
C 1.55874 -2.683901 0.795609 -3 0 -3 
C -0.795609 -3 -1.55874 -2.683901 -2.12132 -2.12132 
C -2.683901 -1.55874 -3 -0.795609 -3 0 
C -3 0.795609 -2.683901 1.55874 -2.12132 2.12132 
C -1.55874 2.683901 -0.795609 3 0 3 
z
" id="m9d035170d8" style="stroke:#ffa500;"/>
    </defs>
    <g clip-path="url(#pb25aebbc56)">
     <use style="fill:#ffa500;stroke:#ffa500;" x="80.837301" xlink:href="#m9d035170d8" y="257.975714"/>
     <use style="fill:#ffa500;stroke:#ffa500;" x="335.988338" xlink:href="#m9d035170d8" y="122.768258"/>
     <use style="fill:#ffa500;stroke:#ffa500;" x="283.860707" xlink:href="#m9d035170d8" y="75.995247"/>
     <use style="fill:#ffa500;stroke:#ffa500;" x="227.160476" xlink:href="#m9d035170d8" y="160.759064"/>
     <use style="fill:#ffa500;stroke:#ffa500;" x="304.894663" xlink:href="#m9d035170d8" y="81.073514"/>
     <use style="fill:#ffa500;stroke:#ffa500;" x="326.843139" xlink:href="#m9d035170d8" y="97.670633"/>
     <use style="fill:#ffa500;stroke:#ffa500;" x="289.347826" xlink:href="#m9d035170d8" y="100.430576"/>
     <use style="fill:#ffa500;stroke:#ffa500;" x="191.494202" xlink:href="#m9d035170d8" y="154.883263"/>
     <use style="fill:#ffa500;stroke:#ffa500;" x="264.65579" xlink:href="#m9d035170d8" y="161.513255"/>
     <use style="fill:#ffa500;stroke:#ffa500;" x="314.954381" xlink:href="#m9d035170d8" y="88.462254"/>
     <use style="fill:#ffa500;stroke:#ffa500;" x="213.442678" xlink:href="#m9d035170d8" y="178.497422"/>
     <use style="fill:#ffa500;stroke:#ffa500;" x="250.937992" xlink:href="#m9d035170d8" y="134.403645"/>
     <use style="fill:#ffa500;stroke:#ffa500;" x="282.946187" xlink:href="#m9d035170d8" y="121.112335"/>
     <use style="fill:#ffa500;stroke:#ffa500;" x="260.083191" xlink:href="#m9d035170d8" y="149.958226"/>
     <use style="fill:#ffa500;stroke:#ffa500;" x="329.586699" xlink:href="#m9d035170d8" y="100.430576"/>
     <use style="fill:#ffa500;stroke:#ffa500;" x="318.612461" xlink:href="#m9d035170d8" y="81.073514"/>
     <use style="fill:#ffa500;stroke:#ffa500;" x="245.450873" xlink:href="#m9d035170d8" y="114.178768"/>
     <use style="fill:#ffa500;stroke:#ffa500;" x="315.868901" xlink:href="#m9d035170d8" y="88.88577"/>
     <use style="fill:#ffa500;stroke:#ffa500;" x="305.809183" xlink:href="#m9d035170d8" y="149.958226"/>
     <use style="fill:#ffa500;stroke:#ffa500;" x="248.194433" xlink:href="#m9d035170d8" y="160.759064"/>
     <use style="fill:#ffa500;stroke:#ffa500;" x="335.988338" xlink:href="#m9d035170d8" y="87.200209"/>
     <use style="fill:#ffa500;stroke:#ffa500;" x="245.450873" xlink:href="#m9d035170d8" y="144.556432"/>
     <use style="fill:#ffa500;stroke:#ffa500;" x="325.0141" xlink:href="#m9d035170d8" y="77.536031"/>
     <use style="fill:#ffa500;stroke:#ffa500;" x="134.793972" xlink:href="#m9d035170d8" y="147.905226"/>
     <use style="fill:#ffa500;stroke:#ffa500;" x="317.697941" xlink:href="#m9d035170d8" y="57.516317"/>
     <use style="fill:#ffa500;stroke:#ffa500;" x="256.425111" xlink:href="#m9d035170d8" y="153.456289"/>
     <use style="fill:#ffa500;stroke:#ffa500;" x="273.800988" xlink:href="#m9d035170d8" y="66.06195"/>
     <use style="fill:#ffa500;stroke:#ffa500;" x="358.851334" xlink:href="#m9d035170d8" y="68.924121"/>
     <use style="fill:#ffa500;stroke:#ffa500;" x="284.775226" xlink:href="#m9d035170d8" y="125.010681"/>
     <use style="fill:#ffa500;stroke:#ffa500;" x="263.74127" xlink:href="#m9d035170d8" y="174.240325"/>
     <use style="fill:#ffa500;stroke:#ffa500;" x="318.612461" xlink:href="#m9d035170d8" y="74.095478"/>
     <use style="fill:#ffa500;stroke:#ffa500;" x="314.039862" xlink:href="#m9d035170d8" y="75.995247"/>
     <use style="fill:#ffa500;stroke:#ffa500;" x="259.168671" xlink:href="#m9d035170d8" y="149.270156"/>
     <use style="fill:#ffa500;stroke:#ffa500;" x="219.844317" xlink:href="#m9d035170d8" y="115.745179"/>
     <use style="fill:#ffa500;stroke:#ffa500;" x="322.27054" xlink:href="#m9d035170d8" y="79.883246"/>
     <use style="fill:#ffa500;stroke:#ffa500;" x="282.031667" xlink:href="#m9d035170d8" y="54.576908"/>
     <use style="fill:#ffa500;stroke:#ffa500;" x="314.954381" xlink:href="#m9d035170d8" y="102.304825"/>
     <use style="fill:#ffa500;stroke:#ffa500;" x="318.612461" xlink:href="#m9d035170d8" y="90.594263"/>
     <use style="fill:#ffa500;stroke:#ffa500;" x="327.757659" xlink:href="#m9d035170d8" y="106.627053"/>
     <use style="fill:#ffa500;stroke:#ffa500;" x="314.039862" xlink:href="#m9d035170d8" y="74.85194"/>
     <use style="fill:#ffa500;stroke:#ffa500;" x="333.244778" xlink:href="#m9d035170d8" y="92.326323"/>
     <use style="fill:#ffa500;stroke:#ffa500;" x="330.501219" xlink:href="#m9d035170d8" y="78.313571"/>
    </g>
   </g>
   <g id="patch_3">
    <path d="M 55.459375 275.062 
L 55.459375 8.95 
" style="fill:none;stroke:#000000;stroke-linecap:square;stroke-linejoin:miter;stroke-width:0.8;"/>
   </g>
   <g id="patch_4">
    <path d="M 412.579375 275.062 
L 412.579375 8.95 
" style="fill:none;stroke:#000000;stroke-linecap:square;stroke-linejoin:miter;stroke-width:0.8;"/>
   </g>
   <g id="patch_5">
    <path d="M 55.459375 275.062 
L 412.579375 275.062 
" style="fill:none;stroke:#000000;stroke-linecap:square;stroke-linejoin:miter;stroke-width:0.8;"/>
   </g>
   <g id="patch_6">
    <path d="M 55.459375 8.95 
L 412.579375 8.95 
" style="fill:none;stroke:#000000;stroke-linecap:square;stroke-linejoin:miter;stroke-width:0.8;"/>
   </g>
  </g>
 </g>
 <defs>
  <clipPath id="pb25aebbc56">
   <rect height="266.112" width="357.12" x="55.459375" y="8.95"/>
  </clipPath>
 </defs>
</svg>
