<?xml version="1.0" encoding="utf-8" standalone="no"?>
<!DOCTYPE svg PUBLIC "-//W3C//DTD SVG 1.1//EN"
  "http://www.w3.org/Graphics/SVG/1.1/DTD/svg11.dtd">
<svg xmlns:xlink="http://www.w3.org/1999/xlink" width="421.929375pt" height="310.062pt" viewBox="0 0 421.929375 310.062" xmlns="http://www.w3.org/2000/svg" version="1.1">
 <metadata>
  <rdf:RDF xmlns:dc="http://purl.org/dc/elements/1.1/" xmlns:cc="http://creativecommons.org/ns#" xmlns:rdf="http://www.w3.org/1999/02/22-rdf-syntax-ns#">
   <cc:Work>
    <dc:type rdf:resource="http://purl.org/dc/dcmitype/StillImage"/>
    <dc:date>2024-05-30T00:13:17.502634</dc:date>
    <dc:format>image/svg+xml</dc:format>
    <dc:creator>
     <cc:Agent>
      <dc:title>Matplotlib v3.9.0, https://matplotlib.org/</dc:title>
     </cc:Agent>
    </dc:creator>
   </cc:Work>
  </rdf:RDF>
 </metadata>
 <defs>
  <style type="text/css">*{stroke-linejoin: round; stroke-linecap: butt}</style>
 </defs>
 <g id="figure_1">
  <g id="patch_1">
   <path d="M 0 310.062 
L 421.929375 310.062 
L 421.929375 0 
L 0 0 
z
" style="fill: #ffffff"/>
  </g>
  <g id="axes_1">
   <g id="patch_2">
    <path d="M 55.859375 275.062 
L 412.979375 275.062 
L 412.979375 8.95 
L 55.859375 8.95 
z
" style="fill: #ffffff"/>
   </g>
   <g id="matplotlib.axis_1">
    <g id="xtick_1">
     <g id="line2d_1">
      <defs>
       <path id="maa26ebf696" d="M 0 1.75 
L 0 -1.75 
" style="stroke: #000000; stroke-width: 0.8"/>
      </defs>
      <g>
       <use xlink:href="#maa26ebf696" x="77.117714" y="275.062" style="stroke: #000000; stroke-width: 0.8"/>
      </g>
     </g>
     <g id="line2d_2">
      <g>
       <use xlink:href="#maa26ebf696" x="77.117714" y="8.95" style="stroke: #000000; stroke-width: 0.8"/>
      </g>
     </g>
     <g id="text_1">
      <!-- 9.0 -->
      <g transform="translate(70.168496 287.452625) scale(0.1 -0.1)">
       <defs>
        <path id="HelveticaNeue-Medium-39" d="M 1030 1133 
Q 1056 858 1225 688 
Q 1395 518 1683 518 
Q 1978 518 2154 675 
Q 2330 832 2426 1065 
Q 2522 1299 2557 1564 
Q 2592 1830 2611 2054 
L 2598 2067 
Q 2451 1805 2195 1667 
Q 1939 1530 1632 1530 
Q 1312 1530 1053 1638 
Q 794 1747 608 1942 
Q 422 2138 320 2416 
Q 218 2694 218 3040 
Q 218 3366 320 3644 
Q 422 3923 620 4131 
Q 819 4339 1107 4454 
Q 1395 4570 1760 4570 
Q 2234 4570 2541 4387 
Q 2848 4205 3024 3888 
Q 3200 3571 3270 3142 
Q 3341 2714 3341 2227 
Q 3341 1824 3254 1414 
Q 3168 1005 2969 669 
Q 2771 333 2448 121 
Q 2125 -90 1651 -90 
Q 1382 -90 1145 0 
Q 909 90 726 250 
Q 544 410 429 634 
Q 314 858 301 1133 
L 1030 1133 
z
M 1728 3962 
Q 1530 3962 1382 3888 
Q 1235 3814 1139 3686 
Q 1043 3558 995 3392 
Q 947 3226 947 3046 
Q 947 2861 995 2691 
Q 1043 2522 1139 2394 
Q 1235 2266 1382 2186 
Q 1530 2106 1728 2106 
Q 1933 2106 2086 2182 
Q 2240 2259 2339 2390 
Q 2438 2522 2489 2691 
Q 2541 2861 2541 3046 
Q 2541 3226 2489 3392 
Q 2438 3558 2339 3683 
Q 2240 3808 2086 3885 
Q 1933 3962 1728 3962 
z
" transform="scale(0.015625)"/>
        <path id="HelveticaNeue-Medium-2e" d="M 442 864 
L 1331 864 
L 1331 0 
L 442 0 
L 442 864 
z
" transform="scale(0.015625)"/>
        <path id="HelveticaNeue-Medium-30" d="M 1779 4570 
Q 2259 4570 2563 4349 
Q 2867 4128 3036 3785 
Q 3206 3443 3267 3033 
Q 3328 2624 3328 2240 
Q 3328 1856 3267 1446 
Q 3206 1037 3036 694 
Q 2867 352 2563 131 
Q 2259 -90 1779 -90 
Q 1299 -90 995 131 
Q 691 352 521 694 
Q 352 1037 291 1446 
Q 230 1856 230 2240 
Q 230 2624 291 3033 
Q 352 3443 521 3785 
Q 691 4128 995 4349 
Q 1299 4570 1779 4570 
z
M 1779 518 
Q 2016 518 2176 656 
Q 2336 794 2429 1027 
Q 2522 1261 2560 1574 
Q 2598 1888 2598 2240 
Q 2598 2592 2560 2902 
Q 2522 3213 2429 3449 
Q 2336 3686 2176 3824 
Q 2016 3962 1779 3962 
Q 1536 3962 1379 3824 
Q 1222 3686 1129 3449 
Q 1037 3213 998 2902 
Q 960 2592 960 2240 
Q 960 1888 998 1574 
Q 1037 1261 1129 1027 
Q 1222 794 1379 656 
Q 1536 518 1779 518 
z
" transform="scale(0.015625)"/>
       </defs>
       <use xlink:href="#HelveticaNeue-Medium-39"/>
       <use xlink:href="#HelveticaNeue-Medium-2e" x="55.599991"/>
       <use xlink:href="#HelveticaNeue-Medium-30" x="83.399979"/>
      </g>
     </g>
    </g>
    <g id="xtick_2">
     <g id="line2d_3">
      <g>
       <use xlink:href="#maa26ebf696" x="127.373836" y="275.062" style="stroke: #000000; stroke-width: 0.8"/>
      </g>
     </g>
     <g id="line2d_4">
      <g>
       <use xlink:href="#maa26ebf696" x="127.373836" y="8.95" style="stroke: #000000; stroke-width: 0.8"/>
      </g>
     </g>
     <g id="text_2">
      <!-- 9.5 -->
      <g transform="translate(120.424617 287.452625) scale(0.1 -0.1)">
       <defs>
        <path id="HelveticaNeue-Medium-35" d="M 787 4480 
L 3104 4480 
L 3104 3827 
L 1331 3827 
L 1101 2688 
L 1114 2675 
Q 1261 2842 1488 2928 
Q 1715 3014 1939 3014 
Q 2272 3014 2534 2902 
Q 2797 2790 2976 2588 
Q 3155 2387 3248 2112 
Q 3341 1837 3341 1517 
Q 3341 1248 3254 963 
Q 3168 678 2979 444 
Q 2790 211 2496 60 
Q 2202 -90 1792 -90 
Q 1466 -90 1187 -3 
Q 909 83 697 256 
Q 486 429 361 681 
Q 237 934 224 1274 
L 954 1274 
Q 986 909 1203 713 
Q 1421 518 1779 518 
Q 2010 518 2170 595 
Q 2330 672 2429 806 
Q 2528 941 2569 1120 
Q 2611 1299 2611 1504 
Q 2611 1690 2560 1859 
Q 2509 2029 2406 2157 
Q 2304 2285 2141 2361 
Q 1978 2438 1760 2438 
Q 1530 2438 1328 2352 
Q 1126 2266 1037 2029 
L 307 2029 
L 787 4480 
z
" transform="scale(0.015625)"/>
       </defs>
       <use xlink:href="#HelveticaNeue-Medium-39"/>
       <use xlink:href="#HelveticaNeue-Medium-2e" x="55.599991"/>
       <use xlink:href="#HelveticaNeue-Medium-35" x="83.399979"/>
      </g>
     </g>
    </g>
    <g id="xtick_3">
     <g id="line2d_5">
      <g>
       <use xlink:href="#maa26ebf696" x="177.629958" y="275.062" style="stroke: #000000; stroke-width: 0.8"/>
      </g>
     </g>
     <g id="line2d_6">
      <g>
       <use xlink:href="#maa26ebf696" x="177.629958" y="8.95" style="stroke: #000000; stroke-width: 0.8"/>
      </g>
     </g>
     <g id="text_3">
      <!-- 10.0 -->
      <g transform="translate(167.901051 287.452625) scale(0.1 -0.1)">
       <defs>
        <path id="HelveticaNeue-Medium-31" d="M 339 3738 
Q 570 3738 787 3776 
Q 1005 3814 1181 3904 
Q 1357 3994 1481 4134 
Q 1606 4275 1645 4480 
L 2240 4480 
L 2240 0 
L 1440 0 
L 1440 3162 
L 339 3162 
L 339 3738 
z
" transform="scale(0.015625)"/>
       </defs>
       <use xlink:href="#HelveticaNeue-Medium-31"/>
       <use xlink:href="#HelveticaNeue-Medium-30" x="55.599991"/>
       <use xlink:href="#HelveticaNeue-Medium-2e" x="111.199982"/>
       <use xlink:href="#HelveticaNeue-Medium-30" x="138.999969"/>
      </g>
     </g>
    </g>
    <g id="xtick_4">
     <g id="line2d_7">
      <g>
       <use xlink:href="#maa26ebf696" x="227.886079" y="275.062" style="stroke: #000000; stroke-width: 0.8"/>
      </g>
     </g>
     <g id="line2d_8">
      <g>
       <use xlink:href="#maa26ebf696" x="227.886079" y="8.95" style="stroke: #000000; stroke-width: 0.8"/>
      </g>
     </g>
     <g id="text_4">
      <!-- 10.5 -->
      <g transform="translate(218.157173 287.452625) scale(0.1 -0.1)">
       <use xlink:href="#HelveticaNeue-Medium-31"/>
       <use xlink:href="#HelveticaNeue-Medium-30" x="55.599991"/>
       <use xlink:href="#HelveticaNeue-Medium-2e" x="111.199982"/>
       <use xlink:href="#HelveticaNeue-Medium-35" x="138.999969"/>
      </g>
     </g>
    </g>
    <g id="xtick_5">
     <g id="line2d_9">
      <g>
       <use xlink:href="#maa26ebf696" x="278.142201" y="275.062" style="stroke: #000000; stroke-width: 0.8"/>
      </g>
     </g>
     <g id="line2d_10">
      <g>
       <use xlink:href="#maa26ebf696" x="278.142201" y="8.95" style="stroke: #000000; stroke-width: 0.8"/>
      </g>
     </g>
     <g id="text_5">
      <!-- 11.0 -->
      <g transform="translate(268.413295 287.452625) scale(0.1 -0.1)">
       <use xlink:href="#HelveticaNeue-Medium-31"/>
       <use xlink:href="#HelveticaNeue-Medium-31" x="55.599991"/>
       <use xlink:href="#HelveticaNeue-Medium-2e" x="111.199982"/>
       <use xlink:href="#HelveticaNeue-Medium-30" x="138.999969"/>
      </g>
     </g>
    </g>
    <g id="xtick_6">
     <g id="line2d_11">
      <g>
       <use xlink:href="#maa26ebf696" x="328.398322" y="275.062" style="stroke: #000000; stroke-width: 0.8"/>
      </g>
     </g>
     <g id="line2d_12">
      <g>
       <use xlink:href="#maa26ebf696" x="328.398322" y="8.95" style="stroke: #000000; stroke-width: 0.8"/>
      </g>
     </g>
     <g id="text_6">
      <!-- 11.5 -->
      <g transform="translate(318.669416 287.452625) scale(0.1 -0.1)">
       <use xlink:href="#HelveticaNeue-Medium-31"/>
       <use xlink:href="#HelveticaNeue-Medium-31" x="55.599991"/>
       <use xlink:href="#HelveticaNeue-Medium-2e" x="111.199982"/>
       <use xlink:href="#HelveticaNeue-Medium-35" x="138.999969"/>
      </g>
     </g>
    </g>
    <g id="xtick_7">
     <g id="line2d_13">
      <g>
       <use xlink:href="#maa26ebf696" x="378.654444" y="275.062" style="stroke: #000000; stroke-width: 0.8"/>
      </g>
     </g>
     <g id="line2d_14">
      <g>
       <use xlink:href="#maa26ebf696" x="378.654444" y="8.95" style="stroke: #000000; stroke-width: 0.8"/>
      </g>
     </g>
     <g id="text_7">
      <!-- 12.0 -->
      <g transform="translate(368.925538 287.452625) scale(0.1 -0.1)">
       <defs>
        <path id="HelveticaNeue-Medium-32" d="M 3309 0 
L 250 0 
Q 256 557 518 973 
Q 781 1389 1235 1696 
Q 1453 1856 1689 2006 
Q 1926 2157 2124 2329 
Q 2323 2502 2451 2704 
Q 2579 2906 2586 3168 
Q 2586 3290 2557 3427 
Q 2528 3565 2445 3683 
Q 2362 3802 2214 3882 
Q 2067 3962 1830 3962 
Q 1613 3962 1469 3875 
Q 1325 3789 1238 3638 
Q 1152 3488 1110 3283 
Q 1069 3078 1062 2842 
L 333 2842 
Q 333 3213 432 3529 
Q 531 3846 729 4076 
Q 928 4307 1213 4438 
Q 1498 4570 1875 4570 
Q 2285 4570 2560 4435 
Q 2835 4301 3004 4096 
Q 3174 3891 3244 3651 
Q 3315 3411 3315 3194 
Q 3315 2925 3232 2707 
Q 3149 2490 3008 2307 
Q 2867 2125 2688 1971 
Q 2509 1818 2317 1683 
Q 2125 1549 1933 1427 
Q 1741 1306 1577 1184 
Q 1414 1062 1292 931 
Q 1171 800 1126 653 
L 3309 653 
L 3309 0 
z
" transform="scale(0.015625)"/>
       </defs>
       <use xlink:href="#HelveticaNeue-Medium-31"/>
       <use xlink:href="#HelveticaNeue-Medium-32" x="55.599991"/>
       <use xlink:href="#HelveticaNeue-Medium-2e" x="111.199982"/>
       <use xlink:href="#HelveticaNeue-Medium-30" x="138.999969"/>
      </g>
     </g>
    </g>
    <g id="text_8">
     <!-- Bulge mass [log, $M_\odot$] -->
     <g transform="translate(184.319375 300.762) scale(0.1 -0.1)">
      <defs>
       <path id="HelveticaNeue-Medium-42" d="M 1286 2656 
L 2592 2656 
Q 2880 2656 3072 2819 
Q 3264 2982 3264 3290 
Q 3264 3635 3091 3776 
Q 2918 3917 2592 3917 
L 1286 3917 
L 1286 2656 
z
M 486 4570 
L 2707 4570 
Q 3322 4570 3693 4288 
Q 4064 4006 4064 3437 
Q 4064 3091 3894 2844 
Q 3725 2598 3411 2464 
L 3411 2451 
Q 3834 2362 4051 2051 
Q 4269 1741 4269 1274 
Q 4269 1005 4173 771 
Q 4077 538 3872 368 
Q 3667 198 3347 99 
Q 3027 0 2586 0 
L 486 0 
L 486 4570 
z
M 1286 653 
L 2701 653 
Q 3066 653 3267 841 
Q 3469 1030 3469 1376 
Q 3469 1715 3267 1897 
Q 3066 2080 2701 2080 
L 1286 2080 
L 1286 653 
z
" transform="scale(0.015625)"/>
       <path id="HelveticaNeue-Medium-75" d="M 3290 0 
L 2573 0 
L 2573 461 
L 2560 461 
Q 2426 211 2160 60 
Q 1894 -90 1619 -90 
Q 966 -90 675 233 
Q 384 557 384 1210 
L 384 3309 
L 1114 3309 
L 1114 1280 
Q 1114 845 1280 665 
Q 1446 486 1747 486 
Q 1978 486 2131 556 
Q 2285 627 2381 745 
Q 2477 864 2518 1030 
Q 2560 1197 2560 1389 
L 2560 3309 
L 3290 3309 
L 3290 0 
z
" transform="scale(0.015625)"/>
       <path id="HelveticaNeue-Medium-6c" d="M 403 4570 
L 1133 4570 
L 1133 0 
L 403 0 
L 403 4570 
z
" transform="scale(0.015625)"/>
       <path id="HelveticaNeue-Medium-67" d="M 3443 173 
Q 3443 -576 3024 -944 
Q 2605 -1312 1818 -1312 
Q 1568 -1312 1315 -1261 
Q 1062 -1210 854 -1088 
Q 646 -966 505 -768 
Q 365 -570 339 -282 
L 1069 -282 
Q 1101 -435 1177 -531 
Q 1254 -627 1360 -681 
Q 1466 -736 1594 -752 
Q 1722 -768 1862 -768 
Q 2304 -768 2509 -550 
Q 2714 -333 2714 77 
L 2714 582 
L 2701 582 
Q 2547 307 2281 153 
Q 2016 0 1709 0 
Q 1312 0 1033 137 
Q 755 275 572 515 
Q 390 755 307 1068 
Q 224 1382 224 1741 
Q 224 2074 326 2374 
Q 429 2675 621 2902 
Q 813 3130 1091 3264 
Q 1370 3398 1722 3398 
Q 2035 3398 2297 3267 
Q 2560 3136 2701 2854 
L 2714 2854 
L 2714 3309 
L 3443 3309 
L 3443 173 
z
M 1824 576 
Q 2067 576 2236 675 
Q 2406 774 2512 937 
Q 2618 1101 2666 1309 
Q 2714 1517 2714 1728 
Q 2714 1939 2662 2137 
Q 2611 2336 2505 2489 
Q 2400 2643 2230 2732 
Q 2061 2822 1824 2822 
Q 1581 2822 1414 2720 
Q 1248 2618 1145 2454 
Q 1043 2291 998 2083 
Q 954 1875 954 1670 
Q 954 1466 1005 1270 
Q 1056 1075 1161 921 
Q 1267 768 1430 672 
Q 1594 576 1824 576 
z
" transform="scale(0.015625)"/>
       <path id="HelveticaNeue-Medium-65" d="M 2656 1946 
Q 2643 2118 2582 2278 
Q 2522 2438 2416 2556 
Q 2310 2675 2160 2748 
Q 2010 2822 1824 2822 
Q 1632 2822 1475 2755 
Q 1318 2688 1206 2569 
Q 1094 2451 1027 2291 
Q 960 2131 954 1946 
L 2656 1946 
z
M 954 1466 
Q 954 1274 1008 1094 
Q 1062 915 1171 780 
Q 1280 646 1446 566 
Q 1613 486 1843 486 
Q 2163 486 2358 624 
Q 2554 762 2650 1037 
L 3341 1037 
Q 3283 768 3142 557 
Q 3002 346 2803 202 
Q 2605 58 2358 -16 
Q 2112 -90 1843 -90 
Q 1453 -90 1152 38 
Q 851 166 643 396 
Q 435 627 329 947 
Q 224 1267 224 1651 
Q 224 2003 336 2320 
Q 448 2637 656 2877 
Q 864 3117 1158 3257 
Q 1453 3398 1824 3398 
Q 2214 3398 2524 3235 
Q 2835 3072 3040 2803 
Q 3245 2534 3337 2185 
Q 3430 1837 3386 1466 
L 954 1466 
z
" transform="scale(0.015625)"/>
       <path id="HelveticaNeue-Medium-20" transform="scale(0.015625)"/>
       <path id="HelveticaNeue-Medium-6d" d="M 384 3309 
L 1075 3309 
L 1075 2848 
L 1094 2848 
Q 1178 2970 1274 3072 
Q 1370 3174 1488 3244 
Q 1606 3315 1760 3356 
Q 1914 3398 2112 3398 
Q 2413 3398 2672 3264 
Q 2931 3130 3040 2848 
Q 3226 3104 3469 3251 
Q 3712 3398 4077 3398 
Q 4602 3398 4893 3142 
Q 5184 2886 5184 2285 
L 5184 0 
L 4454 0 
L 4454 1933 
Q 4454 2131 4441 2294 
Q 4429 2458 4368 2576 
Q 4307 2694 4185 2758 
Q 4064 2822 3853 2822 
Q 3482 2822 3315 2592 
Q 3149 2362 3149 1939 
L 3149 0 
L 2419 0 
L 2419 2125 
Q 2419 2470 2294 2646 
Q 2170 2822 1837 2822 
Q 1696 2822 1565 2764 
Q 1434 2707 1334 2598 
Q 1235 2490 1174 2330 
Q 1114 2170 1114 1965 
L 1114 0 
L 384 0 
L 384 3309 
z
" transform="scale(0.015625)"/>
       <path id="HelveticaNeue-Medium-61" d="M 3155 736 
Q 3155 602 3190 544 
Q 3226 486 3328 486 
Q 3360 486 3405 486 
Q 3450 486 3507 499 
L 3507 -6 
Q 3469 -19 3408 -35 
Q 3347 -51 3283 -64 
Q 3219 -77 3155 -83 
Q 3091 -90 3046 -90 
Q 2822 -90 2675 0 
Q 2528 90 2483 314 
Q 2266 102 1949 6 
Q 1632 -90 1338 -90 
Q 1114 -90 909 -29 
Q 704 32 547 150 
Q 390 269 297 451 
Q 205 634 205 877 
Q 205 1184 317 1376 
Q 429 1568 611 1677 
Q 794 1786 1021 1834 
Q 1248 1882 1478 1907 
Q 1677 1946 1856 1962 
Q 2035 1978 2172 2016 
Q 2310 2054 2390 2134 
Q 2470 2214 2470 2374 
Q 2470 2515 2403 2604 
Q 2336 2694 2237 2742 
Q 2138 2790 2016 2806 
Q 1894 2822 1786 2822 
Q 1478 2822 1280 2694 
Q 1082 2566 1056 2298 
L 326 2298 
Q 346 2618 480 2829 
Q 614 3040 822 3168 
Q 1030 3296 1292 3347 
Q 1555 3398 1830 3398 
Q 2074 3398 2310 3347 
Q 2547 3296 2736 3181 
Q 2925 3066 3040 2883 
Q 3155 2701 3155 2438 
L 3155 736 
z
M 2426 1658 
Q 2259 1549 2016 1526 
Q 1773 1504 1530 1459 
Q 1414 1440 1305 1405 
Q 1197 1370 1113 1309 
Q 1030 1248 982 1149 
Q 934 1050 934 909 
Q 934 787 1004 704 
Q 1075 621 1174 573 
Q 1274 525 1392 505 
Q 1510 486 1606 486 
Q 1728 486 1869 518 
Q 2010 550 2134 627 
Q 2259 704 2342 822 
Q 2426 941 2426 1114 
L 2426 1658 
z
" transform="scale(0.015625)"/>
       <path id="HelveticaNeue-Medium-73" d="M 934 1062 
Q 966 742 1177 614 
Q 1389 486 1683 486 
Q 1786 486 1917 502 
Q 2048 518 2163 563 
Q 2278 608 2352 694 
Q 2426 781 2419 921 
Q 2413 1062 2317 1152 
Q 2221 1242 2070 1296 
Q 1920 1350 1728 1388 
Q 1536 1427 1338 1472 
Q 1133 1517 944 1581 
Q 755 1645 604 1753 
Q 454 1862 364 2032 
Q 275 2202 275 2451 
Q 275 2720 406 2902 
Q 538 3085 739 3197 
Q 941 3309 1187 3353 
Q 1434 3398 1658 3398 
Q 1914 3398 2147 3344 
Q 2381 3290 2569 3168 
Q 2758 3046 2883 2851 
Q 3008 2656 3040 2381 
L 2278 2381 
Q 2227 2643 2038 2732 
Q 1850 2822 1606 2822 
Q 1530 2822 1424 2809 
Q 1318 2797 1225 2761 
Q 1133 2726 1069 2659 
Q 1005 2592 1005 2483 
Q 1005 2349 1097 2265 
Q 1190 2182 1340 2128 
Q 1491 2074 1683 2035 
Q 1875 1997 2080 1952 
Q 2278 1907 2470 1843 
Q 2662 1779 2812 1670 
Q 2963 1562 3056 1395 
Q 3149 1229 3149 986 
Q 3149 691 3014 486 
Q 2880 282 2665 154 
Q 2451 26 2188 -32 
Q 1926 -90 1670 -90 
Q 1357 -90 1091 -19 
Q 826 51 630 195 
Q 435 339 323 553 
Q 211 768 205 1062 
L 934 1062 
z
" transform="scale(0.015625)"/>
       <path id="HelveticaNeue-Medium-5b" d="M 461 4678 
L 1888 4678 
L 1888 4102 
L 1152 4102 
L 1152 -646 
L 1888 -646 
L 1888 -1222 
L 461 -1222 
L 461 4678 
z
" transform="scale(0.015625)"/>
       <path id="HelveticaNeue-Medium-6f" d="M 1901 -90 
Q 1504 -90 1193 41 
Q 883 173 668 403 
Q 454 634 342 954 
Q 230 1274 230 1658 
Q 230 2035 342 2355 
Q 454 2675 668 2905 
Q 883 3136 1193 3267 
Q 1504 3398 1901 3398 
Q 2298 3398 2608 3267 
Q 2918 3136 3132 2905 
Q 3347 2675 3459 2355 
Q 3571 2035 3571 1658 
Q 3571 1274 3459 954 
Q 3347 634 3132 403 
Q 2918 173 2608 41 
Q 2298 -90 1901 -90 
z
M 1901 486 
Q 2144 486 2323 588 
Q 2502 691 2617 857 
Q 2733 1024 2787 1232 
Q 2842 1440 2842 1658 
Q 2842 1869 2787 2080 
Q 2733 2291 2617 2454 
Q 2502 2618 2323 2720 
Q 2144 2822 1901 2822 
Q 1658 2822 1478 2720 
Q 1299 2618 1184 2454 
Q 1069 2291 1014 2080 
Q 960 1869 960 1658 
Q 960 1440 1014 1232 
Q 1069 1024 1184 857 
Q 1299 691 1478 588 
Q 1658 486 1901 486 
z
" transform="scale(0.015625)"/>
       <path id="HelveticaNeue-Medium-2c" d="M 442 864 
L 1331 864 
L 1331 0 
Q 1325 -397 1088 -665 
Q 851 -934 467 -1011 
L 467 -621 
Q 678 -570 784 -387 
Q 890 -205 883 0 
L 442 0 
L 442 864 
z
" transform="scale(0.015625)"/>
       <path id="DejaVuSans-Oblique-4d" d="M 1081 4666 
L 2028 4666 
L 2572 1522 
L 4378 4666 
L 5350 4666 
L 4441 0 
L 3828 0 
L 4622 4091 
L 2791 897 
L 2175 897 
L 1581 4103 
L 788 0 
L 172 0 
L 1081 4666 
z
" transform="scale(0.015625)"/>
       <path id="DejaVuSans-2299" d="M 2350 2403 
L 3013 2403 
L 3013 1609 
L 2350 1609 
L 2350 2403 
z
M 3306 3522 
Q 3016 3644 2681 3644 
Q 2347 3644 2056 3522 
Q 1769 3400 1531 3163 
Q 1291 2922 1172 2634 
Q 1053 2347 1053 2006 
Q 1053 1675 1172 1387 
Q 1291 1100 1531 859 
Q 1769 622 2056 500 
Q 2347 378 2681 378 
Q 3016 378 3306 500 
Q 3594 622 3831 859 
Q 4072 1100 4190 1387 
Q 4309 1675 4309 2006 
Q 4309 2347 4190 2634 
Q 4072 2922 3831 3163 
Q 3594 3400 3306 3522 
z
M 1878 3956 
Q 2250 4113 2681 4113 
Q 3113 4113 3484 3956 
Q 3856 3800 4163 3494 
Q 4472 3184 4625 2813 
Q 4778 2444 4778 2006 
Q 4778 1578 4625 1206 
Q 4472 838 4163 528 
Q 3856 222 3484 65 
Q 3113 -91 2681 -91 
Q 2250 -91 1878 65 
Q 1506 222 1200 528 
Q 891 838 738 1206 
Q 584 1578 584 2006 
Q 584 2444 738 2813 
Q 891 3184 1200 3494 
Q 1506 3800 1878 3956 
z
" transform="scale(0.015625)"/>
       <path id="HelveticaNeue-Medium-5d" d="M 1434 -1222 
L 6 -1222 
L 6 -646 
L 742 -646 
L 742 4102 
L 6 4102 
L 6 4678 
L 1434 4678 
L 1434 -1222 
z
" transform="scale(0.015625)"/>
      </defs>
      <use xlink:href="#HelveticaNeue-Medium-42" transform="translate(0 0.90625)"/>
      <use xlink:href="#HelveticaNeue-Medium-75" transform="translate(70.399994 0.90625)"/>
      <use xlink:href="#HelveticaNeue-Medium-6c" transform="translate(127.799988 0.90625)"/>
      <use xlink:href="#HelveticaNeue-Medium-67" transform="translate(151.899979 0.90625)"/>
      <use xlink:href="#HelveticaNeue-Medium-65" transform="translate(211.199966 0.90625)"/>
      <use xlink:href="#HelveticaNeue-Medium-20" transform="translate(266.799957 0.90625)"/>
      <use xlink:href="#HelveticaNeue-Medium-6d" transform="translate(294.599945 0.90625)"/>
      <use xlink:href="#HelveticaNeue-Medium-61" transform="translate(381.59993 0.90625)"/>
      <use xlink:href="#HelveticaNeue-Medium-73" transform="translate(437.199921 0.90625)"/>
      <use xlink:href="#HelveticaNeue-Medium-73" transform="translate(489.099915 0.90625)"/>
      <use xlink:href="#HelveticaNeue-Medium-20" transform="translate(540.999908 0.90625)"/>
      <use xlink:href="#HelveticaNeue-Medium-5b" transform="translate(568.799896 0.90625)"/>
      <use xlink:href="#HelveticaNeue-Medium-6c" transform="translate(598.399887 0.90625)"/>
      <use xlink:href="#HelveticaNeue-Medium-6f" transform="translate(622.499878 0.90625)"/>
      <use xlink:href="#HelveticaNeue-Medium-67" transform="translate(681.799866 0.90625)"/>
      <use xlink:href="#HelveticaNeue-Medium-2c" transform="translate(741.099854 0.90625)"/>
      <use xlink:href="#HelveticaNeue-Medium-20" transform="translate(768.899841 0.90625)"/>
      <use xlink:href="#DejaVuSans-Oblique-4d" transform="translate(796.699829 0.90625)"/>
      <use xlink:href="#DejaVuSans-2299" transform="translate(896.616821 -15.5) scale(0.7)"/>
      <use xlink:href="#HelveticaNeue-Medium-5d" transform="translate(971.641235 0.90625)"/>
     </g>
    </g>
   </g>
   <g id="matplotlib.axis_2">
    <g id="ytick_1">
     <g id="line2d_15">
      <defs>
       <path id="madb043484d" d="M 1.75 0 
L -1.75 -0 
" style="stroke: #000000; stroke-width: 0.8"/>
      </defs>
      <g>
       <use xlink:href="#madb043484d" x="55.859375" y="219.732869" style="stroke: #000000; stroke-width: 0.8"/>
      </g>
     </g>
     <g id="line2d_16">
      <g>
       <use xlink:href="#madb043484d" x="412.979375" y="219.732869" style="stroke: #000000; stroke-width: 0.8"/>
      </g>
     </g>
     <g id="text_9">
      <!-- $\mathdefault{10^{2}}$ -->
      <g transform="translate(35.209375 223.303181) scale(0.1 -0.1)">
       <use xlink:href="#HelveticaNeue-Medium-31" transform="translate(0 0.823438)"/>
       <use xlink:href="#HelveticaNeue-Medium-30" transform="translate(55.599991 0.823438)"/>
       <use xlink:href="#HelveticaNeue-Medium-32" transform="translate(112.104786 37.015625) scale(0.7)"/>
      </g>
     </g>
    </g>
    <g id="ytick_2">
     <g id="line2d_17">
      <defs>
       <path id="mcb688feebc" d="M 1 0 
L -1 -0 
" style="stroke: #000000; stroke-width: 0.6"/>
      </defs>
      <g>
       <use xlink:href="#mcb688feebc" x="55.859375" y="270.944805" style="stroke: #000000; stroke-width: 0.6"/>
      </g>
     </g>
     <g id="line2d_18">
      <g>
       <use xlink:href="#mcb688feebc" x="412.979375" y="270.944805" style="stroke: #000000; stroke-width: 0.6"/>
      </g>
     </g>
    </g>
    <g id="ytick_3">
     <g id="line2d_19">
      <g>
       <use xlink:href="#mcb688feebc" x="55.859375" y="251.772162" style="stroke: #000000; stroke-width: 0.6"/>
      </g>
     </g>
     <g id="line2d_20">
      <g>
       <use xlink:href="#mcb688feebc" x="412.979375" y="251.772162" style="stroke: #000000; stroke-width: 0.6"/>
      </g>
     </g>
    </g>
    <g id="ytick_4">
     <g id="line2d_21">
      <g>
       <use xlink:href="#mcb688feebc" x="55.859375" y="234.860693" style="stroke: #000000; stroke-width: 0.6"/>
      </g>
     </g>
     <g id="line2d_22">
      <g>
       <use xlink:href="#mcb688feebc" x="412.979375" y="234.860693" style="stroke: #000000; stroke-width: 0.6"/>
      </g>
     </g>
    </g>
    <g id="ytick_5">
     <g id="line2d_23">
      <g>
       <use xlink:href="#mcb688feebc" x="55.859375" y="120.209733" style="stroke: #000000; stroke-width: 0.6"/>
      </g>
     </g>
     <g id="line2d_24">
      <g>
       <use xlink:href="#mcb688feebc" x="412.979375" y="120.209733" style="stroke: #000000; stroke-width: 0.6"/>
      </g>
     </g>
     <g id="text_10">
      <!-- $\mathdefault{2\times10^{2}}$ -->
      <g transform="translate(20.559375 123.780045) scale(0.1 -0.1)">
       <defs>
        <path id="HelveticaNeue-Medium-d7" d="M 352 2733 
L 902 3091 
L 1914 2074 
L 2938 3091 
L 3488 2733 
L 2368 1619 
L 3488 506 
L 2938 147 
L 1914 1171 
L 902 147 
L 352 506 
L 1466 1619 
L 352 2733 
z
" transform="scale(0.015625)"/>
       </defs>
       <use xlink:href="#HelveticaNeue-Medium-32" transform="translate(0 0.823438)"/>
       <use xlink:href="#HelveticaNeue-Medium-d7" transform="translate(75.082413 0.823438)"/>
       <use xlink:href="#HelveticaNeue-Medium-31" transform="translate(154.564819 0.823438)"/>
       <use xlink:href="#HelveticaNeue-Medium-30" transform="translate(210.16481 0.823438)"/>
       <use xlink:href="#HelveticaNeue-Medium-32" transform="translate(266.669606 37.015625) scale(0.7)"/>
      </g>
     </g>
    </g>
    <g id="ytick_6">
     <g id="line2d_25">
      <g>
       <use xlink:href="#mcb688feebc" x="55.859375" y="61.99243" style="stroke: #000000; stroke-width: 0.6"/>
      </g>
     </g>
     <g id="line2d_26">
      <g>
       <use xlink:href="#mcb688feebc" x="412.979375" y="61.99243" style="stroke: #000000; stroke-width: 0.6"/>
      </g>
     </g>
     <g id="text_11">
      <!-- $\mathdefault{3\times10^{2}}$ -->
      <g transform="translate(20.559375 65.562743) scale(0.1 -0.1)">
       <defs>
        <path id="HelveticaNeue-Medium-33" d="M 1459 2624 
Q 1638 2618 1817 2650 
Q 1997 2682 2137 2762 
Q 2278 2842 2364 2982 
Q 2451 3123 2451 3328 
Q 2451 3616 2256 3789 
Q 2061 3962 1754 3962 
Q 1562 3962 1421 3885 
Q 1280 3808 1187 3677 
Q 1094 3546 1049 3382 
Q 1005 3219 1011 3046 
L 282 3046 
Q 294 3373 403 3651 
Q 512 3930 701 4134 
Q 890 4339 1158 4454 
Q 1427 4570 1766 4570 
Q 2029 4570 2281 4493 
Q 2534 4416 2736 4269 
Q 2938 4122 3059 3894 
Q 3181 3667 3181 3373 
Q 3181 3034 3027 2781 
Q 2874 2528 2547 2413 
L 2547 2400 
Q 2931 2323 3145 2019 
Q 3360 1715 3360 1280 
Q 3360 960 3232 707 
Q 3104 454 2886 278 
Q 2669 102 2381 6 
Q 2093 -90 1773 -90 
Q 1382 -90 1091 22 
Q 800 134 605 339 
Q 410 544 307 832 
Q 205 1120 198 1472 
L 928 1472 
Q 915 1062 1129 790 
Q 1344 518 1773 518 
Q 2138 518 2384 726 
Q 2630 934 2630 1318 
Q 2630 1581 2528 1734 
Q 2426 1888 2259 1968 
Q 2093 2048 1885 2067 
Q 1677 2086 1459 2080 
L 1459 2624 
z
" transform="scale(0.015625)"/>
       </defs>
       <use xlink:href="#HelveticaNeue-Medium-33" transform="translate(0 0.823438)"/>
       <use xlink:href="#HelveticaNeue-Medium-d7" transform="translate(75.082413 0.823438)"/>
       <use xlink:href="#HelveticaNeue-Medium-31" transform="translate(154.564819 0.823438)"/>
       <use xlink:href="#HelveticaNeue-Medium-30" transform="translate(210.16481 0.823438)"/>
       <use xlink:href="#HelveticaNeue-Medium-32" transform="translate(266.669606 37.015625) scale(0.7)"/>
      </g>
     </g>
    </g>
    <g id="ytick_7">
     <g id="line2d_27">
      <g>
       <use xlink:href="#mcb688feebc" x="55.859375" y="20.686597" style="stroke: #000000; stroke-width: 0.6"/>
      </g>
     </g>
     <g id="line2d_28">
      <g>
       <use xlink:href="#mcb688feebc" x="412.979375" y="20.686597" style="stroke: #000000; stroke-width: 0.6"/>
      </g>
     </g>
     <g id="text_12">
      <!-- $\mathdefault{4\times10^{2}}$ -->
      <g transform="translate(20.559375 24.256909) scale(0.1 -0.1)">
       <defs>
        <path id="HelveticaNeue-Medium-34" d="M 717 1638 
L 2074 1638 
L 2074 3610 
L 2061 3610 
L 717 1638 
z
M 3341 1062 
L 2765 1062 
L 2765 0 
L 2074 0 
L 2074 1062 
L 154 1062 
L 154 1786 
L 2074 4480 
L 2765 4480 
L 2765 1638 
L 3341 1638 
L 3341 1062 
z
" transform="scale(0.015625)"/>
       </defs>
       <use xlink:href="#HelveticaNeue-Medium-34" transform="translate(0 0.823438)"/>
       <use xlink:href="#HelveticaNeue-Medium-d7" transform="translate(75.082413 0.823438)"/>
       <use xlink:href="#HelveticaNeue-Medium-31" transform="translate(154.564819 0.823438)"/>
       <use xlink:href="#HelveticaNeue-Medium-30" transform="translate(210.16481 0.823438)"/>
       <use xlink:href="#HelveticaNeue-Medium-32" transform="translate(266.669606 37.015625) scale(0.7)"/>
      </g>
     </g>
    </g>
    <g id="text_13">
     <!-- Velocity dispersion [km/s] -->
     <g transform="translate(14.509375 201.1935) rotate(-90) scale(0.1 -0.1)">
      <defs>
       <path id="HelveticaNeue-Medium-56" d="M -32 4570 
L 800 4570 
L 1946 954 
L 1958 954 
L 3130 4570 
L 3942 4570 
L 2381 0 
L 1491 0 
L -32 4570 
z
" transform="scale(0.015625)"/>
       <path id="HelveticaNeue-Medium-63" d="M 2618 2202 
Q 2573 2509 2371 2665 
Q 2170 2822 1862 2822 
Q 1722 2822 1562 2774 
Q 1402 2726 1267 2595 
Q 1133 2464 1043 2230 
Q 954 1997 954 1619 
Q 954 1414 1002 1209 
Q 1050 1005 1155 845 
Q 1261 685 1427 585 
Q 1594 486 1830 486 
Q 2150 486 2358 684 
Q 2566 883 2618 1242 
L 3347 1242 
Q 3245 595 2857 252 
Q 2470 -90 1830 -90 
Q 1440 -90 1142 41 
Q 845 173 640 400 
Q 435 627 329 940 
Q 224 1254 224 1619 
Q 224 1990 326 2316 
Q 429 2643 633 2883 
Q 838 3123 1142 3260 
Q 1446 3398 1856 3398 
Q 2144 3398 2403 3324 
Q 2662 3251 2864 3104 
Q 3066 2957 3194 2733 
Q 3322 2509 3347 2202 
L 2618 2202 
z
" transform="scale(0.015625)"/>
       <path id="HelveticaNeue-Medium-69" d="M 403 4570 
L 1133 4570 
L 1133 3878 
L 403 3878 
L 403 4570 
z
M 403 3309 
L 1133 3309 
L 1133 0 
L 403 0 
L 403 3309 
z
" transform="scale(0.015625)"/>
       <path id="HelveticaNeue-Medium-74" d="M 51 3309 
L 602 3309 
L 602 4301 
L 1331 4301 
L 1331 3309 
L 1990 3309 
L 1990 2765 
L 1331 2765 
L 1331 998 
Q 1331 883 1340 800 
Q 1350 717 1385 659 
Q 1421 602 1491 573 
Q 1562 544 1683 544 
Q 1760 544 1837 547 
Q 1914 550 1990 570 
L 1990 6 
Q 1869 -6 1753 -19 
Q 1638 -32 1517 -32 
Q 1229 -32 1053 22 
Q 877 77 777 182 
Q 678 288 643 448 
Q 608 608 602 813 
L 602 2765 
L 51 2765 
L 51 3309 
z
" transform="scale(0.015625)"/>
       <path id="HelveticaNeue-Medium-79" d="M 19 3309 
L 819 3309 
L 1683 838 
L 1696 838 
L 2534 3309 
L 3296 3309 
L 2010 -179 
Q 1920 -403 1833 -608 
Q 1747 -813 1622 -969 
Q 1498 -1126 1312 -1219 
Q 1126 -1312 838 -1312 
Q 582 -1312 333 -1274 
L 333 -659 
Q 422 -672 505 -688 
Q 589 -704 678 -704 
Q 806 -704 889 -672 
Q 973 -640 1027 -579 
Q 1082 -518 1120 -435 
Q 1158 -352 1190 -243 
L 1274 13 
L 19 3309 
z
" transform="scale(0.015625)"/>
       <path id="HelveticaNeue-Medium-64" d="M 3501 0 
L 2810 0 
L 2810 448 
L 2797 448 
Q 2650 160 2368 35 
Q 2086 -90 1773 -90 
Q 1382 -90 1091 48 
Q 800 186 608 422 
Q 416 659 320 982 
Q 224 1306 224 1677 
Q 224 2125 345 2451 
Q 467 2778 668 2989 
Q 870 3200 1129 3299 
Q 1389 3398 1658 3398 
Q 1811 3398 1971 3369 
Q 2131 3341 2278 3277 
Q 2426 3213 2550 3113 
Q 2675 3014 2758 2880 
L 2771 2880 
L 2771 4570 
L 3501 4570 
L 3501 0 
z
M 954 1619 
Q 954 1408 1008 1203 
Q 1062 998 1174 838 
Q 1286 678 1459 582 
Q 1632 486 1869 486 
Q 2112 486 2288 588 
Q 2464 691 2576 857 
Q 2688 1024 2742 1232 
Q 2797 1440 2797 1658 
Q 2797 2208 2550 2515 
Q 2304 2822 1882 2822 
Q 1626 2822 1450 2716 
Q 1274 2611 1162 2441 
Q 1050 2272 1002 2057 
Q 954 1843 954 1619 
z
" transform="scale(0.015625)"/>
       <path id="HelveticaNeue-Medium-70" d="M 403 3309 
L 1094 3309 
L 1094 2861 
L 1107 2861 
Q 1261 3149 1536 3273 
Q 1811 3398 2131 3398 
Q 2522 3398 2813 3260 
Q 3104 3123 3296 2883 
Q 3488 2643 3584 2323 
Q 3680 2003 3680 1638 
Q 3680 1306 3593 992 
Q 3507 678 3331 438 
Q 3155 198 2886 54 
Q 2618 -90 2253 -90 
Q 2093 -90 1933 -61 
Q 1773 -32 1625 32 
Q 1478 96 1353 195 
Q 1229 294 1146 429 
L 1133 429 
L 1133 -1222 
L 403 -1222 
L 403 3309 
z
M 2950 1651 
Q 2950 1875 2892 2086 
Q 2835 2298 2720 2461 
Q 2605 2624 2432 2723 
Q 2259 2822 2035 2822 
Q 1574 2822 1340 2502 
Q 1107 2182 1107 1651 
Q 1107 1402 1168 1187 
Q 1229 973 1350 819 
Q 1472 666 1641 576 
Q 1811 486 2035 486 
Q 2285 486 2457 588 
Q 2630 691 2742 854 
Q 2854 1018 2902 1226 
Q 2950 1434 2950 1651 
z
" transform="scale(0.015625)"/>
       <path id="HelveticaNeue-Medium-72" d="M 384 3309 
L 1069 3309 
L 1069 2669 
L 1082 2669 
Q 1114 2803 1206 2931 
Q 1299 3059 1430 3164 
Q 1562 3270 1722 3334 
Q 1882 3398 2048 3398 
Q 2176 3398 2224 3392 
Q 2272 3386 2323 3379 
L 2323 2675 
Q 2246 2688 2166 2697 
Q 2086 2707 2010 2707 
Q 1824 2707 1661 2633 
Q 1498 2560 1376 2416 
Q 1254 2272 1184 2061 
Q 1114 1850 1114 1574 
L 1114 0 
L 384 0 
L 384 3309 
z
" transform="scale(0.015625)"/>
       <path id="HelveticaNeue-Medium-6e" d="M 384 3309 
L 1075 3309 
L 1075 2822 
L 1088 2810 
Q 1254 3085 1523 3241 
Q 1792 3398 2118 3398 
Q 2662 3398 2976 3116 
Q 3290 2835 3290 2272 
L 3290 0 
L 2560 0 
L 2560 2080 
Q 2547 2470 2393 2646 
Q 2240 2822 1914 2822 
Q 1728 2822 1581 2755 
Q 1434 2688 1331 2569 
Q 1229 2451 1171 2291 
Q 1114 2131 1114 1952 
L 1114 0 
L 384 0 
L 384 3309 
z
" transform="scale(0.015625)"/>
       <path id="HelveticaNeue-Medium-6b" d="M 403 4570 
L 1133 4570 
L 1133 1971 
L 2451 3309 
L 3347 3309 
L 2080 2093 
L 3469 0 
L 2579 0 
L 1568 1606 
L 1133 1184 
L 1133 0 
L 403 0 
L 403 4570 
z
" transform="scale(0.015625)"/>
       <path id="HelveticaNeue-Medium-2f" d="M 1696 4678 
L 2394 4678 
L 557 -109 
L -141 -109 
L 1696 4678 
z
" transform="scale(0.015625)"/>
      </defs>
      <use xlink:href="#HelveticaNeue-Medium-56"/>
      <use xlink:href="#HelveticaNeue-Medium-65" x="55.599991"/>
      <use xlink:href="#HelveticaNeue-Medium-6c" x="111.199982"/>
      <use xlink:href="#HelveticaNeue-Medium-6f" x="135.299973"/>
      <use xlink:href="#HelveticaNeue-Medium-63" x="194.59996"/>
      <use xlink:href="#HelveticaNeue-Medium-69" x="250.199951"/>
      <use xlink:href="#HelveticaNeue-Medium-74" x="274.299942"/>
      <use xlink:href="#HelveticaNeue-Medium-79" x="307.59993"/>
      <use xlink:href="#HelveticaNeue-Medium-20" x="359.499924"/>
      <use xlink:href="#HelveticaNeue-Medium-64" x="387.299911"/>
      <use xlink:href="#HelveticaNeue-Medium-69" x="448.399902"/>
      <use xlink:href="#HelveticaNeue-Medium-73" x="472.499893"/>
      <use xlink:href="#HelveticaNeue-Medium-70" x="524.399887"/>
      <use xlink:href="#HelveticaNeue-Medium-65" x="585.499878"/>
      <use xlink:href="#HelveticaNeue-Medium-72" x="641.099869"/>
      <use xlink:href="#HelveticaNeue-Medium-73" x="676.299866"/>
      <use xlink:href="#HelveticaNeue-Medium-69" x="728.19986"/>
      <use xlink:href="#HelveticaNeue-Medium-6f" x="752.29985"/>
      <use xlink:href="#HelveticaNeue-Medium-6e" x="811.599838"/>
      <use xlink:href="#HelveticaNeue-Medium-20" x="868.999832"/>
      <use xlink:href="#HelveticaNeue-Medium-5b" x="896.79982"/>
      <use xlink:href="#HelveticaNeue-Medium-6b" x="926.399811"/>
      <use xlink:href="#HelveticaNeue-Medium-6d" x="980.099808"/>
      <use xlink:href="#HelveticaNeue-Medium-2f" x="1067.099792"/>
      <use xlink:href="#HelveticaNeue-Medium-73" x="1102.299789"/>
      <use xlink:href="#HelveticaNeue-Medium-5d" x="1154.199783"/>
     </g>
    </g>
   </g>
   <g id="LineCollection_1">
    <path d="M 72.092102 257.260023 
L 92.194551 257.260023 
" clip-path="url(#p8451767592)" style="fill: none; stroke: #ffa500; stroke-width: 1.5"/>
    <path d="M 353.526383 102.661537 
L 371.618587 102.661537 
" clip-path="url(#p8451767592)" style="fill: none; stroke: #ffa500; stroke-width: 1.5"/>
    <path d="M 296.234405 49.180487 
L 314.326608 49.180487 
" clip-path="url(#p8451767592)" style="fill: none; stroke: #ffa500; stroke-width: 1.5"/>
    <path d="M 233.916814 146.100865 
L 252.009018 146.100865 
" clip-path="url(#p8451767592)" style="fill: none; stroke: #ffa500; stroke-width: 1.5"/>
    <path d="M 319.35222 54.987064 
L 337.444424 54.987064 
" clip-path="url(#p8451767592)" style="fill: none; stroke: #ffa500; stroke-width: 1.5"/>
    <path d="M 343.475159 73.96449 
L 361.567363 73.96449 
" clip-path="url(#p8451767592)" style="fill: none; stroke: #ffa500; stroke-width: 1.5"/>
    <path d="M 302.265139 77.120255 
L 320.357343 77.120255 
" clip-path="url(#p8451767592)" style="fill: none; stroke: #ffa500; stroke-width: 1.5"/>
    <path d="M 194.717039 139.382375 
L 212.809243 139.382375 
" clip-path="url(#p8451767592)" style="fill: none; stroke: #ffa500; stroke-width: 1.5"/>
    <path d="M 275.126833 146.963219 
L 293.219037 146.963219 
" clip-path="url(#p8451767592)" style="fill: none; stroke: #ffa500; stroke-width: 1.5"/>
    <path d="M 330.408567 63.435473 
L 348.500771 63.435473 
" clip-path="url(#p8451767592)" style="fill: none; stroke: #ffa500; stroke-width: 1.5"/>
    <path d="M 218.839977 166.383203 
L 236.932181 166.383203 
" clip-path="url(#p8451767592)" style="fill: none; stroke: #ffa500; stroke-width: 1.5"/>
    <path d="M 260.049997 115.965635 
L 278.142201 115.965635 
" clip-path="url(#p8451767592)" style="fill: none; stroke: #ffa500; stroke-width: 1.5"/>
    <path d="M 295.229282 100.768127 
L 313.321486 100.768127 
" clip-path="url(#p8451767592)" style="fill: none; stroke: #ffa500; stroke-width: 1.5"/>
    <path d="M 270.101221 133.751005 
L 288.193425 133.751005 
" clip-path="url(#p8451767592)" style="fill: none; stroke: #ffa500; stroke-width: 1.5"/>
    <path d="M 346.490526 77.120255 
L 364.58273 77.120255 
" clip-path="url(#p8451767592)" style="fill: none; stroke: #ffa500; stroke-width: 1.5"/>
    <path d="M 334.429057 54.987064 
L 352.521261 54.987064 
" clip-path="url(#p8451767592)" style="fill: none; stroke: #ffa500; stroke-width: 1.5"/>
    <path d="M 254.019262 92.840169 
L 272.111466 92.840169 
" clip-path="url(#p8451767592)" style="fill: none; stroke: #ffa500; stroke-width: 1.5"/>
    <path d="M 331.41369 63.919728 
L 349.505893 63.919728 
" clip-path="url(#p8451767592)" style="fill: none; stroke: #ffa500; stroke-width: 1.5"/>
    <path d="M 320.357343 133.751005 
L 338.449547 133.751005 
" clip-path="url(#p8451767592)" style="fill: none; stroke: #ffa500; stroke-width: 1.5"/>
    <path d="M 257.03463 146.100865 
L 275.126833 146.100865 
" clip-path="url(#p8451767592)" style="fill: none; stroke: #ffa500; stroke-width: 1.5"/>
    <path d="M 353.526383 61.99243 
L 371.618587 61.99243 
" clip-path="url(#p8451767592)" style="fill: none; stroke: #ffa500; stroke-width: 1.5"/>
    <path d="M 254.019262 127.574503 
L 272.111466 127.574503 
" clip-path="url(#p8451767592)" style="fill: none; stroke: #ffa500; stroke-width: 1.5"/>
    <path d="M 341.464914 50.942246 
L 359.557118 50.942246 
" clip-path="url(#p8451767592)" style="fill: none; stroke: #ffa500; stroke-width: 1.5"/>
    <path d="M 131.394326 131.40357 
L 151.496774 131.40357 
" clip-path="url(#p8451767592)" style="fill: none; stroke: #ffa500; stroke-width: 1.5"/>
    <path d="M 333.423935 28.051367 
L 351.516138 28.051367 
" clip-path="url(#p8451767592)" style="fill: none; stroke: #ffa500; stroke-width: 1.5"/>
    <path d="M 266.080732 137.750749 
L 284.172935 137.750749 
" clip-path="url(#p8451767592)" style="fill: none; stroke: #ffa500; stroke-width: 1.5"/>
    <path d="M 285.178058 37.822587 
L 303.270262 37.822587 
" clip-path="url(#p8451767592)" style="fill: none; stroke: #ffa500; stroke-width: 1.5"/>
    <path d="M 378.654444 41.095243 
L 396.746648 41.095243 
" clip-path="url(#p8451767592)" style="fill: none; stroke: #ffa500; stroke-width: 1.5"/>
    <path d="M 297.239527 105.225562 
L 315.331731 105.225562 
" clip-path="url(#p8451767592)" style="fill: none; stroke: #ffa500; stroke-width: 1.5"/>
    <path d="M 274.121711 161.515566 
L 292.213915 161.515566 
" clip-path="url(#p8451767592)" style="fill: none; stroke: #ffa500; stroke-width: 1.5"/>
    <path d="M 334.429057 47.008259 
L 352.521261 47.008259 
" clip-path="url(#p8451767592)" style="fill: none; stroke: #ffa500; stroke-width: 1.5"/>
    <path d="M 329.403445 49.180487 
L 347.495649 49.180487 
" clip-path="url(#p8451767592)" style="fill: none; stroke: #ffa500; stroke-width: 1.5"/>
    <path d="M 269.096099 132.964255 
L 287.188303 132.964255 
" clip-path="url(#p8451767592)" style="fill: none; stroke: #ffa500; stroke-width: 1.5"/>
    <path d="M 225.875834 94.63123 
L 243.968038 94.63123 
" clip-path="url(#p8451767592)" style="fill: none; stroke: #ffa500; stroke-width: 1.5"/>
    <path d="M 338.449547 53.626091 
L 356.54175 53.626091 
" clip-path="url(#p8451767592)" style="fill: none; stroke: #ffa500; stroke-width: 1.5"/>
    <path d="M 294.22416 24.690397 
L 312.316363 24.690397 
" clip-path="url(#p8451767592)" style="fill: none; stroke: #ffa500; stroke-width: 1.5"/>
    <path d="M 329.403445 79.263302 
L 349.505893 79.263302 
" clip-path="url(#p8451767592)" style="fill: none; stroke: #ffa500; stroke-width: 1.5"/>
    <path d="M 334.429057 65.873248 
L 352.521261 65.873248 
" clip-path="url(#p8451767592)" style="fill: none; stroke: #ffa500; stroke-width: 1.5"/>
    <path d="M 344.480281 84.205411 
L 362.572485 84.205411 
" clip-path="url(#p8451767592)" style="fill: none; stroke: #ffa500; stroke-width: 1.5"/>
    <path d="M 329.403445 47.873211 
L 347.495649 47.873211 
" clip-path="url(#p8451767592)" style="fill: none; stroke: #ffa500; stroke-width: 1.5"/>
    <path d="M 349.505893 67.853715 
L 369.608342 67.853715 
" clip-path="url(#p8451767592)" style="fill: none; stroke: #ffa500; stroke-width: 1.5"/>
    <path d="M 347.495649 51.831298 
L 365.587852 51.831298 
" clip-path="url(#p8451767592)" style="fill: none; stroke: #ffa500; stroke-width: 1.5"/>
   </g>
   <g id="LineCollection_2">
    <path d="M 82.143327 262.966 
L 82.143327 251.772162 
" clip-path="url(#p8451767592)" style="fill: none; stroke: #ffa500; stroke-width: 1.5"/>
    <path d="M 362.572485 108.496353 
L 362.572485 97.054605 
" clip-path="url(#p8451767592)" style="fill: none; stroke: #ffa500; stroke-width: 1.5"/>
    <path d="M 305.280506 53.175285 
L 305.280506 45.293832 
" clip-path="url(#p8451767592)" style="fill: none; stroke: #ffa500; stroke-width: 1.5"/>
    <path d="M 242.962916 148.703623 
L 242.962916 143.54445 
" clip-path="url(#p8451767592)" style="fill: none; stroke: #ffa500; stroke-width: 1.5"/>
    <path d="M 328.398322 56.36106 
L 328.398322 53.626091 
" clip-path="url(#p8451767592)" style="fill: none; stroke: #ffa500; stroke-width: 1.5"/>
    <path d="M 352.521261 75.008724 
L 352.521261 72.927795 
" clip-path="url(#p8451767592)" style="fill: none; stroke: #ffa500; stroke-width: 1.5"/>
    <path d="M 311.311241 82.539069 
L 311.311241 71.898533 
" clip-path="url(#p8451767592)" style="fill: none; stroke: #ffa500; stroke-width: 1.5"/>
    <path d="M 203.763141 146.100865 
L 203.763141 132.964255 
" clip-path="url(#p8451767592)" style="fill: none; stroke: #ffa500; stroke-width: 1.5"/>
    <path d="M 284.172935 161.515566 
L 284.172935 133.751005 
" clip-path="url(#p8451767592)" style="fill: none; stroke: #ffa500; stroke-width: 1.5"/>
    <path d="M 339.454669 69.3572 
L 339.454669 57.748332 
" clip-path="url(#p8451767592)" style="fill: none; stroke: #ffa500; stroke-width: 1.5"/>
    <path d="M 227.886079 173.487626 
L 227.886079 159.613796 
" clip-path="url(#p8451767592)" style="fill: none; stroke: #ffa500; stroke-width: 1.5"/>
    <path d="M 269.096099 123.110468 
L 269.096099 109.159548 
" clip-path="url(#p8451767592)" style="fill: none; stroke: #ffa500; stroke-width: 1.5"/>
    <path d="M 304.275384 107.836207 
L 304.275384 94.031724 
" clip-path="url(#p8451767592)" style="fill: none; stroke: #ffa500; stroke-width: 1.5"/>
    <path d="M 279.147323 141.032756 
L 279.147323 126.820792 
" clip-path="url(#p8451767592)" style="fill: none; stroke: #ffa500; stroke-width: 1.5"/>
    <path d="M 355.536628 92.248079 
L 355.536628 63.435473 
" clip-path="url(#p8451767592)" style="fill: none; stroke: #ffa500; stroke-width: 1.5"/>
    <path d="M 343.475159 61.99243 
L 343.475159 48.307648 
" clip-path="url(#p8451767592)" style="fill: none; stroke: #ffa500; stroke-width: 1.5"/>
    <path d="M 263.065364 100.142499 
L 263.065364 85.891319 
" clip-path="url(#p8451767592)" style="fill: none; stroke: #ffa500; stroke-width: 1.5"/>
    <path d="M 340.459792 70.876596 
L 340.459792 57.284417 
" clip-path="url(#p8451767592)" style="fill: none; stroke: #ffa500; stroke-width: 1.5"/>
    <path d="M 329.403445 137.750749 
L 329.403445 129.859668 
" clip-path="url(#p8451767592)" style="fill: none; stroke: #ffa500; stroke-width: 1.5"/>
    <path d="M 266.080732 153.149227 
L 266.080732 139.382375 
" clip-path="url(#p8451767592)" style="fill: none; stroke: #ffa500; stroke-width: 1.5"/>
    <path d="M 362.572485 65.382371 
L 362.572485 58.680683 
" clip-path="url(#p8451767592)" style="fill: none; stroke: #ffa500; stroke-width: 1.5"/>
    <path d="M 263.065364 134.54209 
L 263.065364 120.929441 
" clip-path="url(#p8451767592)" style="fill: none; stroke: #ffa500; stroke-width: 1.5"/>
    <path d="M 350.511016 63.919728 
L 350.511016 39.041108 
" clip-path="url(#p8451767592)" style="fill: none; stroke: #ffa500; stroke-width: 1.5"/>
    <path d="M 141.44555 138.564244 
L 141.44555 124.583112 
" clip-path="url(#p8451767592)" style="fill: none; stroke: #ffa500; stroke-width: 1.5"/>
    <path d="M 342.470036 35.416137 
L 342.470036 21.046 
" clip-path="url(#p8451767592)" style="fill: none; stroke: #ffa500; stroke-width: 1.5"/>
    <path d="M 275.126833 144.391541 
L 275.126833 131.40357 
" clip-path="url(#p8451767592)" style="fill: none; stroke: #ffa500; stroke-width: 1.5"/>
    <path d="M 294.22416 43.599635 
L 294.22416 32.269018 
" clip-path="url(#p8451767592)" style="fill: none; stroke: #ffa500; stroke-width: 1.5"/>
    <path d="M 387.700546 43.179191 
L 387.700546 39.041108 
" clip-path="url(#p8451767592)" style="fill: none; stroke: #ffa500; stroke-width: 1.5"/>
    <path d="M 306.285629 112.522267 
L 306.285629 98.281805 
" clip-path="url(#p8451767592)" style="fill: none; stroke: #ffa500; stroke-width: 1.5"/>
    <path d="M 283.167813 168.377423 
L 283.167813 154.966739 
" clip-path="url(#p8451767592)" style="fill: none; stroke: #ffa500; stroke-width: 1.5"/>
    <path d="M 343.475159 47.873211 
L 343.475159 46.148487 
" clip-path="url(#p8451767592)" style="fill: none; stroke: #ffa500; stroke-width: 1.5"/>
    <path d="M 338.449547 54.078317 
L 338.449547 44.444235 
" clip-path="url(#p8451767592)" style="fill: none; stroke: #ffa500; stroke-width: 1.5"/>
    <path d="M 278.142201 140.205194 
L 278.142201 126.071017 
" clip-path="url(#p8451767592)" style="fill: none; stroke: #ffa500; stroke-width: 1.5"/>
    <path d="M 234.921936 101.396494 
L 234.921936 88.170439 
" clip-path="url(#p8451767592)" style="fill: none; stroke: #ffa500; stroke-width: 1.5"/>
    <path d="M 347.495649 54.531971 
L 347.495649 52.72589 
" clip-path="url(#p8451767592)" style="fill: none; stroke: #ffa500; stroke-width: 1.5"/>
    <path d="M 303.270262 25.802002 
L 303.270262 23.587332 
" clip-path="url(#p8451767592)" style="fill: none; stroke: #ffa500; stroke-width: 1.5"/>
    <path d="M 339.454669 86.457717 
L 339.454669 72.412242 
" clip-path="url(#p8451767592)" style="fill: none; stroke: #ffa500; stroke-width: 1.5"/>
    <path d="M 343.475159 68.353129 
L 343.475159 63.435473 
" clip-path="url(#p8451767592)" style="fill: none; stroke: #ffa500; stroke-width: 1.5"/>
    <path d="M 353.526383 99.519584 
L 353.526383 70.368342 
" clip-path="url(#p8451767592)" style="fill: none; stroke: #ffa500; stroke-width: 1.5"/>
    <path d="M 338.449547 50.058664 
L 338.449547 45.720524 
" clip-path="url(#p8451767592)" style="fill: none; stroke: #ffa500; stroke-width: 1.5"/>
    <path d="M 359.557118 75.008724 
L 359.557118 61.038397 
" clip-path="url(#p8451767592)" style="fill: none; stroke: #ffa500; stroke-width: 1.5"/>
    <path d="M 356.54175 59.149139 
L 356.54175 44.868405 
" clip-path="url(#p8451767592)" style="fill: none; stroke: #ffa500; stroke-width: 1.5"/>
   </g>
   <g id="line2d_29">
    <defs>
     <path id="m03ccb4d531" d="M 0 2 
L 0 -2 
" style="stroke: #ffa500"/>
    </defs>
    <g clip-path="url(#p8451767592)">
     <use xlink:href="#m03ccb4d531" x="72.092102" y="257.260023" style="fill: #ffa500; stroke: #ffa500"/>
     <use xlink:href="#m03ccb4d531" x="353.526383" y="102.661537" style="fill: #ffa500; stroke: #ffa500"/>
     <use xlink:href="#m03ccb4d531" x="296.234405" y="49.180487" style="fill: #ffa500; stroke: #ffa500"/>
     <use xlink:href="#m03ccb4d531" x="233.916814" y="146.100865" style="fill: #ffa500; stroke: #ffa500"/>
     <use xlink:href="#m03ccb4d531" x="319.35222" y="54.987064" style="fill: #ffa500; stroke: #ffa500"/>
     <use xlink:href="#m03ccb4d531" x="343.475159" y="73.96449" style="fill: #ffa500; stroke: #ffa500"/>
     <use xlink:href="#m03ccb4d531" x="302.265139" y="77.120255" style="fill: #ffa500; stroke: #ffa500"/>
     <use xlink:href="#m03ccb4d531" x="194.717039" y="139.382375" style="fill: #ffa500; stroke: #ffa500"/>
     <use xlink:href="#m03ccb4d531" x="275.126833" y="146.963219" style="fill: #ffa500; stroke: #ffa500"/>
     <use xlink:href="#m03ccb4d531" x="330.408567" y="63.435473" style="fill: #ffa500; stroke: #ffa500"/>
     <use xlink:href="#m03ccb4d531" x="218.839977" y="166.383203" style="fill: #ffa500; stroke: #ffa500"/>
     <use xlink:href="#m03ccb4d531" x="260.049997" y="115.965635" style="fill: #ffa500; stroke: #ffa500"/>
     <use xlink:href="#m03ccb4d531" x="295.229282" y="100.768127" style="fill: #ffa500; stroke: #ffa500"/>
     <use xlink:href="#m03ccb4d531" x="270.101221" y="133.751005" style="fill: #ffa500; stroke: #ffa500"/>
     <use xlink:href="#m03ccb4d531" x="346.490526" y="77.120255" style="fill: #ffa500; stroke: #ffa500"/>
     <use xlink:href="#m03ccb4d531" x="334.429057" y="54.987064" style="fill: #ffa500; stroke: #ffa500"/>
     <use xlink:href="#m03ccb4d531" x="254.019262" y="92.840169" style="fill: #ffa500; stroke: #ffa500"/>
     <use xlink:href="#m03ccb4d531" x="331.41369" y="63.919728" style="fill: #ffa500; stroke: #ffa500"/>
     <use xlink:href="#m03ccb4d531" x="320.357343" y="133.751005" style="fill: #ffa500; stroke: #ffa500"/>
     <use xlink:href="#m03ccb4d531" x="257.03463" y="146.100865" style="fill: #ffa500; stroke: #ffa500"/>
     <use xlink:href="#m03ccb4d531" x="353.526383" y="61.99243" style="fill: #ffa500; stroke: #ffa500"/>
     <use xlink:href="#m03ccb4d531" x="254.019262" y="127.574503" style="fill: #ffa500; stroke: #ffa500"/>
     <use xlink:href="#m03ccb4d531" x="341.464914" y="50.942246" style="fill: #ffa500; stroke: #ffa500"/>
     <use xlink:href="#m03ccb4d531" x="131.394326" y="131.40357" style="fill: #ffa500; stroke: #ffa500"/>
     <use xlink:href="#m03ccb4d531" x="333.423935" y="28.051367" style="fill: #ffa500; stroke: #ffa500"/>
     <use xlink:href="#m03ccb4d531" x="266.080732" y="137.750749" style="fill: #ffa500; stroke: #ffa500"/>
     <use xlink:href="#m03ccb4d531" x="285.178058" y="37.822587" style="fill: #ffa500; stroke: #ffa500"/>
     <use xlink:href="#m03ccb4d531" x="378.654444" y="41.095243" style="fill: #ffa500; stroke: #ffa500"/>
     <use xlink:href="#m03ccb4d531" x="297.239527" y="105.225562" style="fill: #ffa500; stroke: #ffa500"/>
     <use xlink:href="#m03ccb4d531" x="274.121711" y="161.515566" style="fill: #ffa500; stroke: #ffa500"/>
     <use xlink:href="#m03ccb4d531" x="334.429057" y="47.008259" style="fill: #ffa500; stroke: #ffa500"/>
     <use xlink:href="#m03ccb4d531" x="329.403445" y="49.180487" style="fill: #ffa500; stroke: #ffa500"/>
     <use xlink:href="#m03ccb4d531" x="269.096099" y="132.964255" style="fill: #ffa500; stroke: #ffa500"/>
     <use xlink:href="#m03ccb4d531" x="225.875834" y="94.63123" style="fill: #ffa500; stroke: #ffa500"/>
     <use xlink:href="#m03ccb4d531" x="338.449547" y="53.626091" style="fill: #ffa500; stroke: #ffa500"/>
     <use xlink:href="#m03ccb4d531" x="294.22416" y="24.690397" style="fill: #ffa500; stroke: #ffa500"/>
     <use xlink:href="#m03ccb4d531" x="329.403445" y="79.263302" style="fill: #ffa500; stroke: #ffa500"/>
     <use xlink:href="#m03ccb4d531" x="334.429057" y="65.873248" style="fill: #ffa500; stroke: #ffa500"/>
     <use xlink:href="#m03ccb4d531" x="344.480281" y="84.205411" style="fill: #ffa500; stroke: #ffa500"/>
     <use xlink:href="#m03ccb4d531" x="329.403445" y="47.873211" style="fill: #ffa500; stroke: #ffa500"/>
     <use xlink:href="#m03ccb4d531" x="349.505893" y="67.853715" style="fill: #ffa500; stroke: #ffa500"/>
     <use xlink:href="#m03ccb4d531" x="347.495649" y="51.831298" style="fill: #ffa500; stroke: #ffa500"/>
    </g>
   </g>
   <g id="line2d_30">
    <g clip-path="url(#p8451767592)">
     <use xlink:href="#m03ccb4d531" x="92.194551" y="257.260023" style="fill: #ffa500; stroke: #ffa500"/>
     <use xlink:href="#m03ccb4d531" x="371.618587" y="102.661537" style="fill: #ffa500; stroke: #ffa500"/>
     <use xlink:href="#m03ccb4d531" x="314.326608" y="49.180487" style="fill: #ffa500; stroke: #ffa500"/>
     <use xlink:href="#m03ccb4d531" x="252.009018" y="146.100865" style="fill: #ffa500; stroke: #ffa500"/>
     <use xlink:href="#m03ccb4d531" x="337.444424" y="54.987064" style="fill: #ffa500; stroke: #ffa500"/>
     <use xlink:href="#m03ccb4d531" x="361.567363" y="73.96449" style="fill: #ffa500; stroke: #ffa500"/>
     <use xlink:href="#m03ccb4d531" x="320.357343" y="77.120255" style="fill: #ffa500; stroke: #ffa500"/>
     <use xlink:href="#m03ccb4d531" x="212.809243" y="139.382375" style="fill: #ffa500; stroke: #ffa500"/>
     <use xlink:href="#m03ccb4d531" x="293.219037" y="146.963219" style="fill: #ffa500; stroke: #ffa500"/>
     <use xlink:href="#m03ccb4d531" x="348.500771" y="63.435473" style="fill: #ffa500; stroke: #ffa500"/>
     <use xlink:href="#m03ccb4d531" x="236.932181" y="166.383203" style="fill: #ffa500; stroke: #ffa500"/>
     <use xlink:href="#m03ccb4d531" x="278.142201" y="115.965635" style="fill: #ffa500; stroke: #ffa500"/>
     <use xlink:href="#m03ccb4d531" x="313.321486" y="100.768127" style="fill: #ffa500; stroke: #ffa500"/>
     <use xlink:href="#m03ccb4d531" x="288.193425" y="133.751005" style="fill: #ffa500; stroke: #ffa500"/>
     <use xlink:href="#m03ccb4d531" x="364.58273" y="77.120255" style="fill: #ffa500; stroke: #ffa500"/>
     <use xlink:href="#m03ccb4d531" x="352.521261" y="54.987064" style="fill: #ffa500; stroke: #ffa500"/>
     <use xlink:href="#m03ccb4d531" x="272.111466" y="92.840169" style="fill: #ffa500; stroke: #ffa500"/>
     <use xlink:href="#m03ccb4d531" x="349.505893" y="63.919728" style="fill: #ffa500; stroke: #ffa500"/>
     <use xlink:href="#m03ccb4d531" x="338.449547" y="133.751005" style="fill: #ffa500; stroke: #ffa500"/>
     <use xlink:href="#m03ccb4d531" x="275.126833" y="146.100865" style="fill: #ffa500; stroke: #ffa500"/>
     <use xlink:href="#m03ccb4d531" x="371.618587" y="61.99243" style="fill: #ffa500; stroke: #ffa500"/>
     <use xlink:href="#m03ccb4d531" x="272.111466" y="127.574503" style="fill: #ffa500; stroke: #ffa500"/>
     <use xlink:href="#m03ccb4d531" x="359.557118" y="50.942246" style="fill: #ffa500; stroke: #ffa500"/>
     <use xlink:href="#m03ccb4d531" x="151.496774" y="131.40357" style="fill: #ffa500; stroke: #ffa500"/>
     <use xlink:href="#m03ccb4d531" x="351.516138" y="28.051367" style="fill: #ffa500; stroke: #ffa500"/>
     <use xlink:href="#m03ccb4d531" x="284.172935" y="137.750749" style="fill: #ffa500; stroke: #ffa500"/>
     <use xlink:href="#m03ccb4d531" x="303.270262" y="37.822587" style="fill: #ffa500; stroke: #ffa500"/>
     <use xlink:href="#m03ccb4d531" x="396.746648" y="41.095243" style="fill: #ffa500; stroke: #ffa500"/>
     <use xlink:href="#m03ccb4d531" x="315.331731" y="105.225562" style="fill: #ffa500; stroke: #ffa500"/>
     <use xlink:href="#m03ccb4d531" x="292.213915" y="161.515566" style="fill: #ffa500; stroke: #ffa500"/>
     <use xlink:href="#m03ccb4d531" x="352.521261" y="47.008259" style="fill: #ffa500; stroke: #ffa500"/>
     <use xlink:href="#m03ccb4d531" x="347.495649" y="49.180487" style="fill: #ffa500; stroke: #ffa500"/>
     <use xlink:href="#m03ccb4d531" x="287.188303" y="132.964255" style="fill: #ffa500; stroke: #ffa500"/>
     <use xlink:href="#m03ccb4d531" x="243.968038" y="94.63123" style="fill: #ffa500; stroke: #ffa500"/>
     <use xlink:href="#m03ccb4d531" x="356.54175" y="53.626091" style="fill: #ffa500; stroke: #ffa500"/>
     <use xlink:href="#m03ccb4d531" x="312.316363" y="24.690397" style="fill: #ffa500; stroke: #ffa500"/>
     <use xlink:href="#m03ccb4d531" x="349.505893" y="79.263302" style="fill: #ffa500; stroke: #ffa500"/>
     <use xlink:href="#m03ccb4d531" x="352.521261" y="65.873248" style="fill: #ffa500; stroke: #ffa500"/>
     <use xlink:href="#m03ccb4d531" x="362.572485" y="84.205411" style="fill: #ffa500; stroke: #ffa500"/>
     <use xlink:href="#m03ccb4d531" x="347.495649" y="47.873211" style="fill: #ffa500; stroke: #ffa500"/>
     <use xlink:href="#m03ccb4d531" x="369.608342" y="67.853715" style="fill: #ffa500; stroke: #ffa500"/>
     <use xlink:href="#m03ccb4d531" x="365.587852" y="51.831298" style="fill: #ffa500; stroke: #ffa500"/>
    </g>
   </g>
   <g id="line2d_31">
    <defs>
     <path id="m1ce034194f" d="M 2 0 
L -2 -0 
" style="stroke: #ffa500"/>
    </defs>
    <g clip-path="url(#p8451767592)">
     <use xlink:href="#m1ce034194f" x="82.143327" y="262.966" style="fill: #ffa500; stroke: #ffa500"/>
     <use xlink:href="#m1ce034194f" x="362.572485" y="108.496353" style="fill: #ffa500; stroke: #ffa500"/>
     <use xlink:href="#m1ce034194f" x="305.280506" y="53.175285" style="fill: #ffa500; stroke: #ffa500"/>
     <use xlink:href="#m1ce034194f" x="242.962916" y="148.703623" style="fill: #ffa500; stroke: #ffa500"/>
     <use xlink:href="#m1ce034194f" x="328.398322" y="56.36106" style="fill: #ffa500; stroke: #ffa500"/>
     <use xlink:href="#m1ce034194f" x="352.521261" y="75.008724" style="fill: #ffa500; stroke: #ffa500"/>
     <use xlink:href="#m1ce034194f" x="311.311241" y="82.539069" style="fill: #ffa500; stroke: #ffa500"/>
     <use xlink:href="#m1ce034194f" x="203.763141" y="146.100865" style="fill: #ffa500; stroke: #ffa500"/>
     <use xlink:href="#m1ce034194f" x="284.172935" y="161.515566" style="fill: #ffa500; stroke: #ffa500"/>
     <use xlink:href="#m1ce034194f" x="339.454669" y="69.3572" style="fill: #ffa500; stroke: #ffa500"/>
     <use xlink:href="#m1ce034194f" x="227.886079" y="173.487626" style="fill: #ffa500; stroke: #ffa500"/>
     <use xlink:href="#m1ce034194f" x="269.096099" y="123.110468" style="fill: #ffa500; stroke: #ffa500"/>
     <use xlink:href="#m1ce034194f" x="304.275384" y="107.836207" style="fill: #ffa500; stroke: #ffa500"/>
     <use xlink:href="#m1ce034194f" x="279.147323" y="141.032756" style="fill: #ffa500; stroke: #ffa500"/>
     <use xlink:href="#m1ce034194f" x="355.536628" y="92.248079" style="fill: #ffa500; stroke: #ffa500"/>
     <use xlink:href="#m1ce034194f" x="343.475159" y="61.99243" style="fill: #ffa500; stroke: #ffa500"/>
     <use xlink:href="#m1ce034194f" x="263.065364" y="100.142499" style="fill: #ffa500; stroke: #ffa500"/>
     <use xlink:href="#m1ce034194f" x="340.459792" y="70.876596" style="fill: #ffa500; stroke: #ffa500"/>
     <use xlink:href="#m1ce034194f" x="329.403445" y="137.750749" style="fill: #ffa500; stroke: #ffa500"/>
     <use xlink:href="#m1ce034194f" x="266.080732" y="153.149227" style="fill: #ffa500; stroke: #ffa500"/>
     <use xlink:href="#m1ce034194f" x="362.572485" y="65.382371" style="fill: #ffa500; stroke: #ffa500"/>
     <use xlink:href="#m1ce034194f" x="263.065364" y="134.54209" style="fill: #ffa500; stroke: #ffa500"/>
     <use xlink:href="#m1ce034194f" x="350.511016" y="63.919728" style="fill: #ffa500; stroke: #ffa500"/>
     <use xlink:href="#m1ce034194f" x="141.44555" y="138.564244" style="fill: #ffa500; stroke: #ffa500"/>
     <use xlink:href="#m1ce034194f" x="342.470036" y="35.416137" style="fill: #ffa500; stroke: #ffa500"/>
     <use xlink:href="#m1ce034194f" x="275.126833" y="144.391541" style="fill: #ffa500; stroke: #ffa500"/>
     <use xlink:href="#m1ce034194f" x="294.22416" y="43.599635" style="fill: #ffa500; stroke: #ffa500"/>
     <use xlink:href="#m1ce034194f" x="387.700546" y="43.179191" style="fill: #ffa500; stroke: #ffa500"/>
     <use xlink:href="#m1ce034194f" x="306.285629" y="112.522267" style="fill: #ffa500; stroke: #ffa500"/>
     <use xlink:href="#m1ce034194f" x="283.167813" y="168.377423" style="fill: #ffa500; stroke: #ffa500"/>
     <use xlink:href="#m1ce034194f" x="343.475159" y="47.873211" style="fill: #ffa500; stroke: #ffa500"/>
     <use xlink:href="#m1ce034194f" x="338.449547" y="54.078317" style="fill: #ffa500; stroke: #ffa500"/>
     <use xlink:href="#m1ce034194f" x="278.142201" y="140.205194" style="fill: #ffa500; stroke: #ffa500"/>
     <use xlink:href="#m1ce034194f" x="234.921936" y="101.396494" style="fill: #ffa500; stroke: #ffa500"/>
     <use xlink:href="#m1ce034194f" x="347.495649" y="54.531971" style="fill: #ffa500; stroke: #ffa500"/>
     <use xlink:href="#m1ce034194f" x="303.270262" y="25.802002" style="fill: #ffa500; stroke: #ffa500"/>
     <use xlink:href="#m1ce034194f" x="339.454669" y="86.457717" style="fill: #ffa500; stroke: #ffa500"/>
     <use xlink:href="#m1ce034194f" x="343.475159" y="68.353129" style="fill: #ffa500; stroke: #ffa500"/>
     <use xlink:href="#m1ce034194f" x="353.526383" y="99.519584" style="fill: #ffa500; stroke: #ffa500"/>
     <use xlink:href="#m1ce034194f" x="338.449547" y="50.058664" style="fill: #ffa500; stroke: #ffa500"/>
     <use xlink:href="#m1ce034194f" x="359.557118" y="75.008724" style="fill: #ffa500; stroke: #ffa500"/>
     <use xlink:href="#m1ce034194f" x="356.54175" y="59.149139" style="fill: #ffa500; stroke: #ffa500"/>
    </g>
   </g>
   <g id="line2d_32">
    <g clip-path="url(#p8451767592)">
     <use xlink:href="#m1ce034194f" x="82.143327" y="251.772162" style="fill: #ffa500; stroke: #ffa500"/>
     <use xlink:href="#m1ce034194f" x="362.572485" y="97.054605" style="fill: #ffa500; stroke: #ffa500"/>
     <use xlink:href="#m1ce034194f" x="305.280506" y="45.293832" style="fill: #ffa500; stroke: #ffa500"/>
     <use xlink:href="#m1ce034194f" x="242.962916" y="143.54445" style="fill: #ffa500; stroke: #ffa500"/>
     <use xlink:href="#m1ce034194f" x="328.398322" y="53.626091" style="fill: #ffa500; stroke: #ffa500"/>
     <use xlink:href="#m1ce034194f" x="352.521261" y="72.927795" style="fill: #ffa500; stroke: #ffa500"/>
     <use xlink:href="#m1ce034194f" x="311.311241" y="71.898533" style="fill: #ffa500; stroke: #ffa500"/>
     <use xlink:href="#m1ce034194f" x="203.763141" y="132.964255" style="fill: #ffa500; stroke: #ffa500"/>
     <use xlink:href="#m1ce034194f" x="284.172935" y="133.751005" style="fill: #ffa500; stroke: #ffa500"/>
     <use xlink:href="#m1ce034194f" x="339.454669" y="57.748332" style="fill: #ffa500; stroke: #ffa500"/>
     <use xlink:href="#m1ce034194f" x="227.886079" y="159.613796" style="fill: #ffa500; stroke: #ffa500"/>
     <use xlink:href="#m1ce034194f" x="269.096099" y="109.159548" style="fill: #ffa500; stroke: #ffa500"/>
     <use xlink:href="#m1ce034194f" x="304.275384" y="94.031724" style="fill: #ffa500; stroke: #ffa500"/>
     <use xlink:href="#m1ce034194f" x="279.147323" y="126.820792" style="fill: #ffa500; stroke: #ffa500"/>
     <use xlink:href="#m1ce034194f" x="355.536628" y="63.435473" style="fill: #ffa500; stroke: #ffa500"/>
     <use xlink:href="#m1ce034194f" x="343.475159" y="48.307648" style="fill: #ffa500; stroke: #ffa500"/>
     <use xlink:href="#m1ce034194f" x="263.065364" y="85.891319" style="fill: #ffa500; stroke: #ffa500"/>
     <use xlink:href="#m1ce034194f" x="340.459792" y="57.284417" style="fill: #ffa500; stroke: #ffa500"/>
     <use xlink:href="#m1ce034194f" x="329.403445" y="129.859668" style="fill: #ffa500; stroke: #ffa500"/>
     <use xlink:href="#m1ce034194f" x="266.080732" y="139.382375" style="fill: #ffa500; stroke: #ffa500"/>
     <use xlink:href="#m1ce034194f" x="362.572485" y="58.680683" style="fill: #ffa500; stroke: #ffa500"/>
     <use xlink:href="#m1ce034194f" x="263.065364" y="120.929441" style="fill: #ffa500; stroke: #ffa500"/>
     <use xlink:href="#m1ce034194f" x="350.511016" y="39.041108" style="fill: #ffa500; stroke: #ffa500"/>
     <use xlink:href="#m1ce034194f" x="141.44555" y="124.583112" style="fill: #ffa500; stroke: #ffa500"/>
     <use xlink:href="#m1ce034194f" x="342.470036" y="21.046" style="fill: #ffa500; stroke: #ffa500"/>
     <use xlink:href="#m1ce034194f" x="275.126833" y="131.40357" style="fill: #ffa500; stroke: #ffa500"/>
     <use xlink:href="#m1ce034194f" x="294.22416" y="32.269018" style="fill: #ffa500; stroke: #ffa500"/>
     <use xlink:href="#m1ce034194f" x="387.700546" y="39.041108" style="fill: #ffa500; stroke: #ffa500"/>
     <use xlink:href="#m1ce034194f" x="306.285629" y="98.281805" style="fill: #ffa500; stroke: #ffa500"/>
     <use xlink:href="#m1ce034194f" x="283.167813" y="154.966739" style="fill: #ffa500; stroke: #ffa500"/>
     <use xlink:href="#m1ce034194f" x="343.475159" y="46.148487" style="fill: #ffa500; stroke: #ffa500"/>
     <use xlink:href="#m1ce034194f" x="338.449547" y="44.444235" style="fill: #ffa500; stroke: #ffa500"/>
     <use xlink:href="#m1ce034194f" x="278.142201" y="126.071017" style="fill: #ffa500; stroke: #ffa500"/>
     <use xlink:href="#m1ce034194f" x="234.921936" y="88.170439" style="fill: #ffa500; stroke: #ffa500"/>
     <use xlink:href="#m1ce034194f" x="347.495649" y="52.72589" style="fill: #ffa500; stroke: #ffa500"/>
     <use xlink:href="#m1ce034194f" x="303.270262" y="23.587332" style="fill: #ffa500; stroke: #ffa500"/>
     <use xlink:href="#m1ce034194f" x="339.454669" y="72.412242" style="fill: #ffa500; stroke: #ffa500"/>
     <use xlink:href="#m1ce034194f" x="343.475159" y="63.435473" style="fill: #ffa500; stroke: #ffa500"/>
     <use xlink:href="#m1ce034194f" x="353.526383" y="70.368342" style="fill: #ffa500; stroke: #ffa500"/>
     <use xlink:href="#m1ce034194f" x="338.449547" y="45.720524" style="fill: #ffa500; stroke: #ffa500"/>
     <use xlink:href="#m1ce034194f" x="359.557118" y="61.038397" style="fill: #ffa500; stroke: #ffa500"/>
     <use xlink:href="#m1ce034194f" x="356.54175" y="44.868405" style="fill: #ffa500; stroke: #ffa500"/>
    </g>
   </g>
   <g id="line2d_33">
    <defs>
     <path id="md97071296d" d="M 0 3 
C 0.795609 3 1.55874 2.683901 2.12132 2.12132 
C 2.683901 1.55874 3 0.795609 3 0 
C 3 -0.795609 2.683901 -1.55874 2.12132 -2.12132 
C 1.55874 -2.683901 0.795609 -3 0 -3 
C -0.795609 -3 -1.55874 -2.683901 -2.12132 -2.12132 
C -2.683901 -1.55874 -3 -0.795609 -3 0 
C -3 0.795609 -2.683901 1.55874 -2.12132 2.12132 
C -1.55874 2.683901 -0.795609 3 0 3 
z
" style="stroke: #ffa500"/>
    </defs>
    <g clip-path="url(#p8451767592)">
     <use xlink:href="#md97071296d" x="82.143327" y="257.260023" style="fill: #ffa500; stroke: #ffa500"/>
     <use xlink:href="#md97071296d" x="362.572485" y="102.661537" style="fill: #ffa500; stroke: #ffa500"/>
     <use xlink:href="#md97071296d" x="305.280506" y="49.180487" style="fill: #ffa500; stroke: #ffa500"/>
     <use xlink:href="#md97071296d" x="242.962916" y="146.100865" style="fill: #ffa500; stroke: #ffa500"/>
     <use xlink:href="#md97071296d" x="328.398322" y="54.987064" style="fill: #ffa500; stroke: #ffa500"/>
     <use xlink:href="#md97071296d" x="352.521261" y="73.96449" style="fill: #ffa500; stroke: #ffa500"/>
     <use xlink:href="#md97071296d" x="311.311241" y="77.120255" style="fill: #ffa500; stroke: #ffa500"/>
     <use xlink:href="#md97071296d" x="203.763141" y="139.382375" style="fill: #ffa500; stroke: #ffa500"/>
     <use xlink:href="#md97071296d" x="284.172935" y="146.963219" style="fill: #ffa500; stroke: #ffa500"/>
     <use xlink:href="#md97071296d" x="339.454669" y="63.435473" style="fill: #ffa500; stroke: #ffa500"/>
     <use xlink:href="#md97071296d" x="227.886079" y="166.383203" style="fill: #ffa500; stroke: #ffa500"/>
     <use xlink:href="#md97071296d" x="269.096099" y="115.965635" style="fill: #ffa500; stroke: #ffa500"/>
     <use xlink:href="#md97071296d" x="304.275384" y="100.768127" style="fill: #ffa500; stroke: #ffa500"/>
     <use xlink:href="#md97071296d" x="279.147323" y="133.751005" style="fill: #ffa500; stroke: #ffa500"/>
     <use xlink:href="#md97071296d" x="355.536628" y="77.120255" style="fill: #ffa500; stroke: #ffa500"/>
     <use xlink:href="#md97071296d" x="343.475159" y="54.987064" style="fill: #ffa500; stroke: #ffa500"/>
     <use xlink:href="#md97071296d" x="263.065364" y="92.840169" style="fill: #ffa500; stroke: #ffa500"/>
     <use xlink:href="#md97071296d" x="340.459792" y="63.919728" style="fill: #ffa500; stroke: #ffa500"/>
     <use xlink:href="#md97071296d" x="329.403445" y="133.751005" style="fill: #ffa500; stroke: #ffa500"/>
     <use xlink:href="#md97071296d" x="266.080732" y="146.100865" style="fill: #ffa500; stroke: #ffa500"/>
     <use xlink:href="#md97071296d" x="362.572485" y="61.99243" style="fill: #ffa500; stroke: #ffa500"/>
     <use xlink:href="#md97071296d" x="263.065364" y="127.574503" style="fill: #ffa500; stroke: #ffa500"/>
     <use xlink:href="#md97071296d" x="350.511016" y="50.942246" style="fill: #ffa500; stroke: #ffa500"/>
     <use xlink:href="#md97071296d" x="141.44555" y="131.40357" style="fill: #ffa500; stroke: #ffa500"/>
     <use xlink:href="#md97071296d" x="342.470036" y="28.051367" style="fill: #ffa500; stroke: #ffa500"/>
     <use xlink:href="#md97071296d" x="275.126833" y="137.750749" style="fill: #ffa500; stroke: #ffa500"/>
     <use xlink:href="#md97071296d" x="294.22416" y="37.822587" style="fill: #ffa500; stroke: #ffa500"/>
     <use xlink:href="#md97071296d" x="387.700546" y="41.095243" style="fill: #ffa500; stroke: #ffa500"/>
     <use xlink:href="#md97071296d" x="306.285629" y="105.225562" style="fill: #ffa500; stroke: #ffa500"/>
     <use xlink:href="#md97071296d" x="283.167813" y="161.515566" style="fill: #ffa500; stroke: #ffa500"/>
     <use xlink:href="#md97071296d" x="343.475159" y="47.008259" style="fill: #ffa500; stroke: #ffa500"/>
     <use xlink:href="#md97071296d" x="338.449547" y="49.180487" style="fill: #ffa500; stroke: #ffa500"/>
     <use xlink:href="#md97071296d" x="278.142201" y="132.964255" style="fill: #ffa500; stroke: #ffa500"/>
     <use xlink:href="#md97071296d" x="234.921936" y="94.63123" style="fill: #ffa500; stroke: #ffa500"/>
     <use xlink:href="#md97071296d" x="347.495649" y="53.626091" style="fill: #ffa500; stroke: #ffa500"/>
     <use xlink:href="#md97071296d" x="303.270262" y="24.690397" style="fill: #ffa500; stroke: #ffa500"/>
     <use xlink:href="#md97071296d" x="339.454669" y="79.263302" style="fill: #ffa500; stroke: #ffa500"/>
     <use xlink:href="#md97071296d" x="343.475159" y="65.873248" style="fill: #ffa500; stroke: #ffa500"/>
     <use xlink:href="#md97071296d" x="353.526383" y="84.205411" style="fill: #ffa500; stroke: #ffa500"/>
     <use xlink:href="#md97071296d" x="338.449547" y="47.873211" style="fill: #ffa500; stroke: #ffa500"/>
     <use xlink:href="#md97071296d" x="359.557118" y="67.853715" style="fill: #ffa500; stroke: #ffa500"/>
     <use xlink:href="#md97071296d" x="356.54175" y="51.831298" style="fill: #ffa500; stroke: #ffa500"/>
    </g>
   </g>
   <g id="patch_3">
    <path d="M 55.859375 275.062 
L 55.859375 8.95 
" style="fill: none; stroke: #000000; stroke-width: 0.8; stroke-linejoin: miter; stroke-linecap: square"/>
   </g>
   <g id="patch_4">
    <path d="M 412.979375 275.062 
L 412.979375 8.95 
" style="fill: none; stroke: #000000; stroke-width: 0.8; stroke-linejoin: miter; stroke-linecap: square"/>
   </g>
   <g id="patch_5">
    <path d="M 55.859375 275.062 
L 412.979375 275.062 
" style="fill: none; stroke: #000000; stroke-width: 0.8; stroke-linejoin: miter; stroke-linecap: square"/>
   </g>
   <g id="patch_6">
    <path d="M 55.859375 8.95 
L 412.979375 8.95 
" style="fill: none; stroke: #000000; stroke-width: 0.8; stroke-linejoin: miter; stroke-linecap: square"/>
   </g>
  </g>
 </g>
 <defs>
  <clipPath id="p8451767592">
   <rect x="55.859375" y="8.95" width="357.12" height="266.112"/>
  </clipPath>
 </defs>
</svg>
