<?xml version="1.0" encoding="utf-8" standalone="no"?>
<!DOCTYPE svg PUBLIC "-//W3C//DTD SVG 1.1//EN"
  "http://www.w3.org/Graphics/SVG/1.1/DTD/svg11.dtd">
<svg xmlns:xlink="http://www.w3.org/1999/xlink" width="389.63875pt" height="309.921375pt" viewBox="0 0 389.63875 309.921375" xmlns="http://www.w3.org/2000/svg" version="1.1">
 <metadata>
  <rdf:RDF xmlns:dc="http://purl.org/dc/elements/1.1/" xmlns:cc="http://creativecommons.org/ns#" xmlns:rdf="http://www.w3.org/1999/02/22-rdf-syntax-ns#">
   <cc:Work>
    <dc:type rdf:resource="http://purl.org/dc/dcmitype/StillImage"/>
    <dc:date>2024-02-15T15:30:47.312282</dc:date>
    <dc:format>image/svg+xml</dc:format>
    <dc:creator>
     <cc:Agent>
      <dc:title>Matplotlib v3.8.0, https://matplotlib.org/</dc:title>
     </cc:Agent>
    </dc:creator>
   </cc:Work>
  </rdf:RDF>
 </metadata>
 <defs>
  <style type="text/css">*{stroke-linejoin: round; stroke-linecap: butt}</style>
 </defs>
 <g id="figure_1">
  <g id="patch_1">
   <path d="M 0 309.921375 
L 389.63875 309.921375 
L 389.63875 0 
L 0 0 
z
" style="fill: #ffffff"/>
  </g>
  <g id="axes_1">
   <g id="patch_2">
    <path d="M 23.56875 275.062 
L 380.68875 275.062 
L 380.68875 8.95 
L 23.56875 8.95 
z
" style="fill: #ffffff"/>
   </g>
   <g id="PolyCollection_1">
    <path d="M 174.670253 256.540369 
L 174.670253 256.658999 
L 176.461552 256.660967 
L 178.252851 256.661505 
L 180.04415 256.661574 
L 181.835449 256.662257 
L 183.626749 256.664525 
L 185.418048 256.669172 
L 187.209347 256.676976 
L 189.000646 256.689009 
L 190.791945 256.70694 
L 192.583244 256.73312 
L 194.374544 256.770304 
L 196.165843 256.821045 
L 197.957142 256.88698 
L 199.748441 256.968322 
L 201.53974 257.063889 
L 203.33104 257.171729 
L 205.122339 257.290187 
L 206.913638 257.418913 
L 208.704937 257.559338 
L 210.496236 257.71428 
L 212.287536 257.886818 
L 214.078835 258.07891 
L 215.870134 258.290481 
L 217.661433 258.519453 
L 219.452732 258.762765 
L 221.244032 259.017851 
L 223.035331 259.283759 
L 224.82663 259.561188 
L 226.617929 259.851239 
L 228.409228 260.15335 
L 230.200528 260.463357 
L 231.991827 260.772683 
L 233.783126 261.069233 
L 235.574425 261.339831 
L 237.365724 261.573435 
L 239.157024 261.76401 
L 240.948323 261.912162 
L 242.739622 262.025052 
L 244.530921 262.114716 
L 246.32222 262.195288 
L 248.11352 262.27982 
L 249.904819 262.377351 
L 251.696118 262.490762 
L 253.487417 262.615846 
L 255.278716 262.741798 
L 257.070016 262.853168 
L 258.861315 262.932932 
L 260.652614 262.966 
L 262.443913 262.942226 
L 264.235212 262.858015 
L 266.026512 262.716054 
L 267.817811 262.52335 
L 269.60911 262.288448 
L 271.400409 262.018996 
L 273.191708 261.720636 
L 274.983007 261.397537 
L 276.774307 261.054082 
L 278.565606 260.696669 
L 280.356905 260.334575 
L 282.148204 259.979284 
L 283.939503 259.642497 
L 285.730803 259.33363 
L 287.522102 259.057887 
L 289.313401 258.815689 
L 291.1047 258.603634 
L 292.895999 258.416484 
L 294.687299 258.249262 
L 296.478598 258.098619 
L 298.269897 257.963025 
L 300.061196 257.841948 
L 301.852495 257.734611 
L 303.643795 257.639035 
L 305.435094 257.551829 
L 307.226393 257.468811 
L 309.017692 257.386139 
L 310.808991 257.301419 
L 312.600291 257.214351 
L 314.39159 257.12665 
L 316.182889 257.041344 
L 317.974188 256.96175 
L 319.765487 256.890538 
L 321.556787 256.829178 
L 323.348086 256.777886 
L 325.139385 256.735934 
L 326.930684 256.702134 
L 328.721983 256.675257 
L 330.513283 256.654279 
L 332.304582 256.638447 
L 334.095881 256.627231 
L 335.88718 256.620226 
L 337.678479 256.617078 
L 339.469779 256.617405 
L 341.261078 256.620728 
L 343.052377 256.626393 
L 344.843676 256.63351 
L 346.634975 256.640963 
L 348.426275 256.647511 
L 350.217574 256.651995 
L 352.008873 256.653576 
L 352.008873 256.545793 
L 352.008873 256.545793 
L 350.217574 256.547374 
L 348.426275 256.551857 
L 346.634975 256.558406 
L 344.843676 256.565858 
L 343.052377 256.572976 
L 341.261078 256.57864 
L 339.469779 256.581964 
L 337.678479 256.582291 
L 335.88718 256.579142 
L 334.095881 256.572138 
L 332.304582 256.560921 
L 330.513283 256.54509 
L 328.721983 256.524111 
L 326.930684 256.497234 
L 325.139385 256.463434 
L 323.348086 256.421483 
L 321.556787 256.37019 
L 319.765487 256.308831 
L 317.974188 256.237618 
L 316.182889 256.158024 
L 314.39159 256.072719 
L 312.600291 255.985018 
L 310.808991 255.897949 
L 309.017692 255.81323 
L 307.226393 255.730557 
L 305.435094 255.64754 
L 303.643795 255.560333 
L 301.852495 255.464757 
L 300.061196 255.357421 
L 298.269897 255.236344 
L 296.478598 255.10075 
L 294.687299 254.950107 
L 292.895999 254.782885 
L 291.1047 254.595734 
L 289.313401 254.38368 
L 287.522102 254.141482 
L 285.730803 253.865739 
L 283.939503 253.556872 
L 282.148204 253.220084 
L 280.356905 252.864793 
L 278.565606 252.502699 
L 276.774307 252.145287 
L 274.983007 251.801831 
L 273.191708 251.478732 
L 271.400409 251.180372 
L 269.60911 250.91092 
L 267.817811 250.676019 
L 266.026512 250.483315 
L 264.235212 250.341354 
L 262.443913 250.257143 
L 260.652614 250.233368 
L 258.861315 250.266436 
L 257.070016 250.3462 
L 255.278716 250.457571 
L 253.487417 250.583523 
L 251.696118 250.708606 
L 249.904819 250.822018 
L 248.11352 250.919548 
L 246.32222 251.004081 
L 244.530921 251.084653 
L 242.739622 251.174316 
L 240.948323 251.287206 
L 239.157024 251.435358 
L 237.365724 251.625934 
L 235.574425 251.859537 
L 233.783126 252.130136 
L 231.991827 252.426685 
L 230.200528 252.736012 
L 228.409228 253.046018 
L 226.617929 253.34813 
L 224.82663 253.638181 
L 223.035331 253.915609 
L 221.244032 254.181517 
L 219.452732 254.436604 
L 217.661433 254.679915 
L 215.870134 254.908887 
L 214.078835 255.120458 
L 212.287536 255.312551 
L 210.496236 255.485088 
L 208.704937 255.640031 
L 206.913638 255.780455 
L 205.122339 255.909182 
L 203.33104 256.027639 
L 201.53974 256.13548 
L 199.748441 256.231046 
L 197.957142 256.312389 
L 196.165843 256.378323 
L 194.374544 256.429065 
L 192.583244 256.466248 
L 190.791945 256.492429 
L 189.000646 256.51036 
L 187.209347 256.522392 
L 185.418048 256.530196 
L 183.626749 256.534844 
L 181.835449 256.537111 
L 180.04415 256.537794 
L 178.252851 256.537864 
L 176.461552 256.538402 
L 174.670253 256.540369 
z
" clip-path="url(#p962f8d2c4c)" style="fill: #008fd5; fill-opacity: 0.3"/>
   </g>
   <g id="PolyCollection_2">
    <path d="M 62.315605 230.919621 
L 62.315605 231.349221 
L 65.538104 231.381533 
L 68.760603 231.416506 
L 71.983103 231.455046 
L 75.205602 231.498324 
L 78.428101 231.547674 
L 81.650601 231.604484 
L 84.8731 231.670093 
L 88.095599 231.745711 
L 91.318099 231.832355 
L 94.540598 231.930778 
L 97.763097 232.0414 
L 100.985597 232.16421 
L 104.208096 232.298691 
L 107.430595 232.443773 
L 110.653094 232.597879 
L 113.875594 232.759054 
L 117.098093 232.925198 
L 120.320592 233.09434 
L 123.543092 233.264901 
L 126.765591 233.43588 
L 129.98809 233.606908 
L 133.21059 233.77816 
L 136.433089 233.95015 
L 139.655588 234.123462 
L 142.878088 234.298486 
L 146.100587 234.475217 
L 149.323086 234.653167 
L 152.545586 234.831382 
L 155.768085 235.008553 
L 158.990584 235.183189 
L 162.213084 235.353795 
L 165.435583 235.519044 
L 168.658082 235.677908 
L 171.880582 235.829776 
L 175.103081 235.974542 
L 178.32558 236.112675 
L 181.548079 236.245228 
L 184.770579 236.37376 
L 187.993078 236.500101 
L 191.215577 236.62598 
L 194.438077 236.752524 
L 197.660576 236.879739 
L 200.883075 237.006108 
L 204.105575 237.128448 
L 207.328074 237.242101 
L 210.550573 237.341476 
L 213.773073 237.420836 
L 216.995572 237.475138 
L 220.218071 237.500737 
L 223.440571 237.495762 
L 226.66307 237.460097 
L 229.885569 237.394996 
L 233.108069 237.302472 
L 236.330568 237.184675 
L 239.553067 237.043432 
L 242.775567 236.880086 
L 245.998066 236.695638 
L 249.220565 236.491111 
L 252.443064 236.267984 
L 255.665564 236.028554 
L 258.888063 235.776094 
L 262.110562 235.514801 
L 265.333062 235.249556 
L 268.555561 234.985577 
L 271.77806 234.728037 
L 275.00056 234.481703 
L 278.223059 234.250601 
L 281.445558 234.03771 
L 284.668058 233.844683 
L 287.890557 233.67164 
L 291.113056 233.517074 
L 294.335556 233.377965 
L 297.558055 233.250108 
L 300.780554 233.128684 
L 304.003054 233.008962 
L 307.225553 232.887031 
L 310.448052 232.760411 
L 313.670551 232.628409 
L 316.893051 232.492166 
L 320.11555 232.354375 
L 323.338049 232.218744 
L 326.560549 232.089323 
L 329.783048 231.969817 
L 333.005547 231.863022 
L 336.228047 231.770463 
L 339.450546 231.692287 
L 342.673045 231.627405 
L 345.895545 231.573814 
L 349.118044 231.529039 
L 352.340543 231.490576 
L 355.563043 231.456265 
L 358.785542 231.424524 
L 362.008041 231.394423 
L 365.230541 231.365614 
L 368.45304 231.338158 
L 371.675539 231.312321 
L 374.898039 231.288394 
L 378.120538 231.266566 
L 381.343037 231.246882 
L 381.343037 231.02196 
L 381.343037 231.02196 
L 378.120538 231.002276 
L 374.898039 230.980448 
L 371.675539 230.956521 
L 368.45304 230.930684 
L 365.230541 230.903228 
L 362.008041 230.874419 
L 358.785542 230.844318 
L 355.563043 230.812578 
L 352.340543 230.778266 
L 349.118044 230.739803 
L 345.895545 230.695028 
L 342.673045 230.641437 
L 339.450546 230.576555 
L 336.228047 230.498379 
L 333.005547 230.40582 
L 329.783048 230.299025 
L 326.560549 230.179519 
L 323.338049 230.050098 
L 320.11555 229.914467 
L 316.893051 229.776676 
L 313.670551 229.640433 
L 310.448052 229.508431 
L 307.225553 229.381811 
L 304.003054 229.25988 
L 300.780554 229.140158 
L 297.558055 229.018734 
L 294.335556 228.890878 
L 291.113056 228.751768 
L 287.890557 228.597202 
L 284.668058 228.424159 
L 281.445558 228.231132 
L 278.223059 228.018241 
L 275.00056 227.787139 
L 271.77806 227.540805 
L 268.555561 227.283265 
L 265.333062 227.019286 
L 262.110562 226.754041 
L 258.888063 226.492748 
L 255.665564 226.240288 
L 252.443064 226.000858 
L 249.220565 225.777731 
L 245.998066 225.573204 
L 242.775567 225.388756 
L 239.553067 225.22541 
L 236.330568 225.084167 
L 233.108069 224.96637 
L 229.885569 224.873846 
L 226.66307 224.808745 
L 223.440571 224.77308 
L 220.218071 224.768105 
L 216.995572 224.793704 
L 213.773073 224.848006 
L 210.550573 224.927366 
L 207.328074 225.026741 
L 204.105575 225.140394 
L 200.883075 225.262734 
L 197.660576 225.389103 
L 194.438077 225.516318 
L 191.215577 225.642862 
L 187.993078 225.768741 
L 184.770579 225.895082 
L 181.548079 226.023614 
L 178.32558 226.156167 
L 175.103081 226.2943 
L 171.880582 226.439066 
L 168.658082 226.590934 
L 165.435583 226.749798 
L 162.213084 226.915047 
L 158.990584 227.085654 
L 155.768085 227.260289 
L 152.545586 227.43746 
L 149.323086 227.615675 
L 146.100587 227.793625 
L 142.878088 227.970357 
L 139.655588 228.14538 
L 136.433089 228.318692 
L 133.21059 228.490682 
L 129.98809 228.661934 
L 126.765591 228.832963 
L 123.543092 229.003942 
L 120.320592 229.174502 
L 117.098093 229.343644 
L 113.875594 229.509788 
L 110.653094 229.670964 
L 107.430595 229.825069 
L 104.208096 229.970152 
L 100.985597 230.104632 
L 97.763097 230.227442 
L 94.540598 230.338064 
L 91.318099 230.436487 
L 88.095599 230.523131 
L 84.8731 230.598749 
L 81.650601 230.664358 
L 78.428101 230.721168 
L 75.205602 230.770518 
L 71.983103 230.813796 
L 68.760603 230.852337 
L 65.538104 230.887309 
L 62.315605 230.919621 
z
" clip-path="url(#p962f8d2c4c)" style="fill: #008fd5; fill-opacity: 0.3"/>
   </g>
   <g id="PolyCollection_3">
    <path d="M 147.212507 205.491083 
L 147.212507 205.847233 
L 148.568588 205.867983 
L 149.92467 205.88915 
L 151.280752 205.911119 
L 152.636834 205.934491 
L 153.992915 205.96007 
L 155.348997 205.98885 
L 156.705079 206.022022 
L 158.061161 206.060973 
L 159.417242 206.107295 
L 160.773324 206.162761 
L 162.129406 206.229261 
L 163.485488 206.30868 
L 164.841569 206.402718 
L 166.197651 206.512663 
L 167.553733 206.639164 
L 168.909815 206.782044 
L 170.265896 206.940205 
L 171.621978 207.111672 
L 172.97806 207.293788 
L 174.334141 207.48355 
L 175.690223 207.678041 
L 177.046305 207.874881 
L 178.402387 208.072633 
L 179.758468 208.271061 
L 181.11455 208.471213 
L 182.470632 208.675258 
L 183.826714 208.886111 
L 185.182795 209.10686 
L 186.538877 209.340075 
L 187.894959 209.587112 
L 189.251041 209.847506 
L 190.607122 210.118607 
L 191.963204 210.395529 
L 193.319286 210.671466 
L 194.675368 210.938351 
L 196.031449 211.187763 
L 197.387531 211.411911 
L 198.743613 211.604547 
L 200.099694 211.761606 
L 201.455776 211.881507 
L 202.811858 211.965056 
L 204.16794 212.01502 
L 205.524021 212.035474 
L 206.880103 212.03107 
L 208.236185 212.006358 
L 209.592267 211.965263 
L 210.948348 211.910778 
L 212.30443 211.844868 
L 213.660512 211.768575 
L 215.016594 211.682234 
L 216.372675 211.585773 
L 217.728757 211.479005 
L 219.084839 211.36189 
L 220.440921 211.234727 
L 221.797002 211.098273 
L 223.153084 210.953789 
L 224.509166 210.803011 
L 225.865247 210.648057 
L 227.221329 210.491266 
L 228.577411 210.334991 
L 229.933493 210.181359 
L 231.289574 210.032042 
L 232.645656 209.888071 
L 234.001738 209.749761 
L 235.35782 209.616749 
L 236.713901 209.488152 
L 238.069983 209.362809 
L 239.426065 209.239547 
L 240.782147 209.117389 
L 242.138228 208.995667 
L 243.49431 208.874011 
L 244.850392 208.752245 
L 246.206473 208.630227 
L 247.562555 208.50772 
L 248.918637 208.38433 
L 250.274719 208.259545 
L 251.6308 208.132872 
L 252.986882 208.004018 
L 254.342964 207.873067 
L 255.699046 207.7406 
L 257.055127 207.607714 
L 258.411209 207.475954 
L 259.767291 207.347135 
L 261.123373 207.223137 
L 262.479454 207.105663 
L 263.835536 206.996045 
L 265.191618 206.895088 
L 266.5477 206.802997 
L 267.903781 206.719375 
L 269.259863 206.643295 
L 270.615945 206.573432 
L 271.972026 206.508231 
L 273.328108 206.446097 
L 274.68419 206.385584 
L 276.040272 206.325551 
L 277.396353 206.265287 
L 278.752435 206.204569 
L 280.108517 206.143661 
L 281.464599 206.083252 
L 281.464599 205.255063 
L 281.464599 205.255063 
L 280.108517 205.194655 
L 278.752435 205.133747 
L 277.396353 205.073028 
L 276.040272 205.012765 
L 274.68419 204.952732 
L 273.328108 204.892219 
L 271.972026 204.830085 
L 270.615945 204.764884 
L 269.259863 204.695021 
L 267.903781 204.618941 
L 266.5477 204.535318 
L 265.191618 204.443227 
L 263.835536 204.342271 
L 262.479454 204.232653 
L 261.123373 204.115179 
L 259.767291 203.991181 
L 258.411209 203.862362 
L 257.055127 203.730601 
L 255.699046 203.597716 
L 254.342964 203.465249 
L 252.986882 203.334298 
L 251.6308 203.205444 
L 250.274719 203.078771 
L 248.918637 202.953986 
L 247.562555 202.830595 
L 246.206473 202.708089 
L 244.850392 202.586071 
L 243.49431 202.464305 
L 242.138228 202.342649 
L 240.782147 202.220926 
L 239.426065 202.098768 
L 238.069983 201.975507 
L 236.713901 201.850164 
L 235.35782 201.721567 
L 234.001738 201.588555 
L 232.645656 201.450245 
L 231.289574 201.306274 
L 229.933493 201.156956 
L 228.577411 201.003325 
L 227.221329 200.84705 
L 225.865247 200.690259 
L 224.509166 200.535304 
L 223.153084 200.384527 
L 221.797002 200.240043 
L 220.440921 200.103589 
L 219.084839 199.976425 
L 217.728757 199.859311 
L 216.372675 199.752543 
L 215.016594 199.656082 
L 213.660512 199.569741 
L 212.30443 199.493447 
L 210.948348 199.427538 
L 209.592267 199.373053 
L 208.236185 199.331958 
L 206.880103 199.307246 
L 205.524021 199.302842 
L 204.16794 199.323296 
L 202.811858 199.37326 
L 201.455776 199.456809 
L 200.099694 199.57671 
L 198.743613 199.733769 
L 197.387531 199.926405 
L 196.031449 200.150553 
L 194.675368 200.399964 
L 193.319286 200.66685 
L 191.963204 200.942787 
L 190.607122 201.219709 
L 189.251041 201.49081 
L 187.894959 201.751204 
L 186.538877 201.99824 
L 185.182795 202.231456 
L 183.826714 202.452204 
L 182.470632 202.663058 
L 181.11455 202.867103 
L 179.758468 203.067255 
L 178.402387 203.265683 
L 177.046305 203.463434 
L 175.690223 203.660275 
L 174.334141 203.854766 
L 172.97806 204.044528 
L 171.621978 204.226644 
L 170.265896 204.39811 
L 168.909815 204.556271 
L 167.553733 204.699152 
L 166.197651 204.825653 
L 164.841569 204.935598 
L 163.485488 205.029636 
L 162.129406 205.109055 
L 160.773324 205.175554 
L 159.417242 205.23102 
L 158.061161 205.277343 
L 156.705079 205.316294 
L 155.348997 205.349466 
L 153.992915 205.378246 
L 152.636834 205.403825 
L 151.280752 205.427197 
L 149.92467 205.449166 
L 148.568588 205.470332 
L 147.212507 205.491083 
z
" clip-path="url(#p962f8d2c4c)" style="fill: #008fd5; fill-opacity: 0.3"/>
   </g>
   <g id="PolyCollection_4">
    <path d="M 210.113769 180.011665 
L 210.113769 180.396125 
L 210.711462 180.41893 
L 211.309155 180.440966 
L 211.906847 180.462025 
L 212.50454 180.482098 
L 213.102233 180.501407 
L 213.699925 180.520441 
L 214.297618 180.539972 
L 214.895311 180.561054 
L 215.493003 180.584987 
L 216.090696 180.613248 
L 216.688389 180.647377 
L 217.286081 180.688858 
L 217.883774 180.738998 
L 218.481467 180.798846 
L 219.079159 180.869159 
L 219.676852 180.950425 
L 220.274545 181.042929 
L 220.872237 181.146834 
L 221.46993 181.262246 
L 222.067623 181.389236 
L 222.665315 181.52782 
L 223.263008 181.6779 
L 223.860701 181.839193 
L 224.458393 182.011186 
L 225.056086 182.193136 
L 225.653778 182.384127 
L 226.251471 182.583164 
L 226.849164 182.789266 
L 227.446856 183.001514 
L 228.044549 183.219026 
L 228.642242 183.440829 
L 229.239934 183.665684 
L 229.837627 183.891886 
L 230.43532 184.117148 
L 231.033012 184.33862 
L 231.630705 184.553097 
L 232.228398 184.757403 
L 232.82609 184.948886 
L 233.423783 185.125907 
L 234.021476 185.288178 
L 234.619168 185.436837 
L 235.216861 185.574202 
L 235.814554 185.703212 
L 236.412246 185.826697 
L 237.009939 185.946614 
L 237.607632 186.063466 
L 238.205324 186.176045 
L 238.803017 186.281562 
L 239.40071 186.376149 
L 239.998402 186.455576 
L 240.596095 186.516029 
L 241.193787 186.554721 
L 241.79148 186.570211 
L 242.389173 186.56237 
L 242.986865 186.532026 
L 243.584558 186.480423 
L 244.182251 186.408676 
L 244.779943 186.317388 
L 245.377636 186.20655 
L 245.975329 186.075759 
L 246.573021 185.924672 
L 247.170714 185.753568 
L 247.768407 185.563833 
L 248.366099 185.35822 
L 248.963792 185.140795 
L 249.561485 184.916575 
L 250.159177 184.690936 
L 250.75687 184.468951 
L 251.354563 184.254804 
L 251.952255 184.051396 
L 252.549948 183.860218 
L 253.147641 183.68147 
L 253.745333 183.514342 
L 254.343026 183.357377 
L 254.940719 183.208802 
L 255.538411 183.066782 
L 256.136104 182.929564 
L 256.733796 182.79556 
L 257.331489 182.663393 
L 257.929182 182.531959 
L 258.526874 182.400501 
L 259.124567 182.268695 
L 259.72226 182.136706 
L 260.319952 182.00517 
L 260.917645 181.875111 
L 261.515338 181.747771 
L 262.11303 181.624423 
L 262.710723 181.506192 
L 263.308416 181.393926 
L 263.906108 181.288143 
L 264.503801 181.189038 
L 265.101494 181.096529 
L 265.699186 181.010325 
L 266.296879 180.929985 
L 266.894572 180.854979 
L 267.492264 180.784738 
L 268.089957 180.718717 
L 268.68765 180.65646 
L 269.285342 180.597671 
L 269.285342 179.810118 
L 269.285342 179.810118 
L 268.68765 179.751329 
L 268.089957 179.689073 
L 267.492264 179.623051 
L 266.894572 179.55281 
L 266.296879 179.477804 
L 265.699186 179.397465 
L 265.101494 179.31126 
L 264.503801 179.218751 
L 263.906108 179.119646 
L 263.308416 179.013864 
L 262.710723 178.901598 
L 262.11303 178.783366 
L 261.515338 178.660019 
L 260.917645 178.532679 
L 260.319952 178.402619 
L 259.72226 178.271084 
L 259.124567 178.139094 
L 258.526874 178.007288 
L 257.929182 177.87583 
L 257.331489 177.744396 
L 256.733796 177.61223 
L 256.136104 177.478226 
L 255.538411 177.341007 
L 254.940719 177.198987 
L 254.343026 177.050413 
L 253.745333 176.893447 
L 253.147641 176.726319 
L 252.549948 176.547571 
L 251.952255 176.356394 
L 251.354563 176.152985 
L 250.75687 175.938838 
L 250.159177 175.716854 
L 249.561485 175.491215 
L 248.963792 175.266994 
L 248.366099 175.04957 
L 247.768407 174.843957 
L 247.170714 174.654222 
L 246.573021 174.483118 
L 245.975329 174.332031 
L 245.377636 174.20124 
L 244.779943 174.090402 
L 244.182251 173.999113 
L 243.584558 173.927366 
L 242.986865 173.875764 
L 242.389173 173.84542 
L 241.79148 173.837579 
L 241.193787 173.853069 
L 240.596095 173.89176 
L 239.998402 173.952213 
L 239.40071 174.031641 
L 238.803017 174.126227 
L 238.205324 174.231745 
L 237.607632 174.344323 
L 237.009939 174.461175 
L 236.412246 174.581092 
L 235.814554 174.704577 
L 235.216861 174.833588 
L 234.619168 174.970952 
L 234.021476 175.119612 
L 233.423783 175.281883 
L 232.82609 175.458904 
L 232.228398 175.650387 
L 231.630705 175.854692 
L 231.033012 176.069169 
L 230.43532 176.290641 
L 229.837627 176.515904 
L 229.239934 176.742106 
L 228.642242 176.96696 
L 228.044549 177.188764 
L 227.446856 177.406275 
L 226.849164 177.618524 
L 226.251471 177.824626 
L 225.653778 178.023663 
L 225.056086 178.214654 
L 224.458393 178.396603 
L 223.860701 178.568596 
L 223.263008 178.729889 
L 222.665315 178.87997 
L 222.067623 179.018554 
L 221.46993 179.145544 
L 220.872237 179.260955 
L 220.274545 179.364861 
L 219.676852 179.457365 
L 219.079159 179.538631 
L 218.481467 179.608944 
L 217.883774 179.668792 
L 217.286081 179.718932 
L 216.688389 179.760412 
L 216.090696 179.794541 
L 215.493003 179.822802 
L 214.895311 179.846736 
L 214.297618 179.867817 
L 213.699925 179.887348 
L 213.102233 179.906382 
L 212.50454 179.925692 
L 211.906847 179.945764 
L 211.309155 179.966824 
L 210.711462 179.98886 
L 210.113769 180.011665 
z
" clip-path="url(#p962f8d2c4c)" style="fill: #008fd5; fill-opacity: 0.3"/>
   </g>
   <g id="PolyCollection_5">
    <path d="M 142.695655 154.623453 
L 142.695655 154.85381 
L 144.023166 154.869322 
L 145.350678 154.884555 
L 146.678189 154.899929 
L 148.005701 154.916323 
L 149.333213 154.935045 
L 150.660724 154.957716 
L 151.988236 154.986082 
L 153.315748 155.021798 
L 154.643259 155.066218 
L 155.970771 155.120235 
L 157.298282 155.184202 
L 158.625794 155.257912 
L 159.953306 155.340636 
L 161.280817 155.431169 
L 162.608329 155.527886 
L 163.93584 155.62883 
L 165.263352 155.731885 
L 166.590864 155.835064 
L 167.918375 155.936945 
L 169.245887 156.037163 
L 170.573399 156.136854 
L 171.90091 156.238863 
L 173.228422 156.347589 
L 174.555933 156.468393 
L 175.883445 156.606665 
L 177.210957 156.766742 
L 178.538468 156.950971 
L 179.86598 157.159179 
L 181.193491 157.388721 
L 182.521003 157.635083 
L 183.848515 157.892892 
L 185.176026 158.157011 
L 186.503538 158.42345 
L 187.83105 158.68982 
L 189.158561 158.955251 
L 190.486073 159.21979 
L 191.813584 159.483464 
L 193.141096 159.745241 
L 194.468608 160.002199 
L 195.796119 160.249133 
L 197.123631 160.478787 
L 198.451142 160.682712 
L 199.778654 160.852582 
L 201.106166 160.981654 
L 202.433677 161.065965 
L 203.761189 161.104947 
L 205.088701 161.101273 
L 206.416212 161.060019 
L 207.743724 160.987435 
L 209.071235 160.889708 
L 210.398747 160.772099 
L 211.726259 160.638639 
L 213.05377 160.492372 
L 214.381282 160.335913 
L 215.708793 160.172008 
L 217.036305 160.003807 
L 218.363817 159.834693 
L 219.691328 159.667706 
L 221.01884 159.504768 
L 222.346352 159.345983 
L 223.673863 159.18932 
L 225.001375 159.030824 
L 226.328886 158.865373 
L 227.656398 158.687819 
L 228.98391 158.494234 
L 230.311421 158.282939 
L 231.638933 158.055063 
L 232.966444 157.814488 
L 234.293956 157.567209 
L 235.621468 157.320271 
L 236.948979 157.08056 
L 238.276491 156.853718 
L 239.604003 156.643429 
L 240.931514 156.451175 
L 242.259026 156.276467 
L 243.586537 156.117422 
L 244.914049 155.971503 
L 246.241561 155.836231 
L 247.569072 155.709734 
L 248.896584 155.591038 
L 250.224095 155.480094 
L 251.551607 155.377587 
L 252.879119 155.284595 
L 254.20663 155.202193 
L 255.534142 155.131109 
L 256.861653 155.071484 
L 258.189165 155.022811 
L 259.516677 154.984026 
L 260.844188 154.953732 
L 262.1717 154.930455 
L 263.499212 154.912847 
L 264.826723 154.899787 
L 266.154235 154.890349 
L 267.481746 154.883687 
L 268.809258 154.878899 
L 270.13677 154.874966 
L 271.464281 154.870791 
L 272.791793 154.865345 
L 274.119304 154.857858 
L 274.119304 154.619406 
L 274.119304 154.619406 
L 272.791793 154.611918 
L 271.464281 154.606472 
L 270.13677 154.602298 
L 268.809258 154.598365 
L 267.481746 154.593577 
L 266.154235 154.586914 
L 264.826723 154.577477 
L 263.499212 154.564417 
L 262.1717 154.546808 
L 260.844188 154.523531 
L 259.516677 154.493237 
L 258.189165 154.454453 
L 256.861653 154.405779 
L 255.534142 154.346154 
L 254.20663 154.27507 
L 252.879119 154.192668 
L 251.551607 154.099676 
L 250.224095 153.997169 
L 248.896584 153.886225 
L 247.569072 153.767529 
L 246.241561 153.641033 
L 244.914049 153.505761 
L 243.586537 153.359841 
L 242.259026 153.200796 
L 240.931514 153.026088 
L 239.604003 152.833834 
L 238.276491 152.623545 
L 236.948979 152.396703 
L 235.621468 152.156992 
L 234.293956 151.910054 
L 232.966444 151.662775 
L 231.638933 151.4222 
L 230.311421 151.194325 
L 228.98391 150.98303 
L 227.656398 150.789444 
L 226.328886 150.61189 
L 225.001375 150.446439 
L 223.673863 150.287943 
L 222.346352 150.13128 
L 221.01884 149.972495 
L 219.691328 149.809557 
L 218.363817 149.64257 
L 217.036305 149.473456 
L 215.708793 149.305255 
L 214.381282 149.14135 
L 213.05377 148.984891 
L 211.726259 148.838624 
L 210.398747 148.705164 
L 209.071235 148.587555 
L 207.743724 148.489828 
L 206.416212 148.417244 
L 205.088701 148.37599 
L 203.761189 148.372316 
L 202.433677 148.411298 
L 201.106166 148.495609 
L 199.778654 148.624681 
L 198.451142 148.794551 
L 197.123631 148.998476 
L 195.796119 149.228131 
L 194.468608 149.475064 
L 193.141096 149.732022 
L 191.813584 149.993799 
L 190.486073 150.257473 
L 189.158561 150.522012 
L 187.83105 150.787443 
L 186.503538 151.053814 
L 185.176026 151.320252 
L 183.848515 151.584372 
L 182.521003 151.84218 
L 181.193491 152.088542 
L 179.86598 152.318084 
L 178.538468 152.526292 
L 177.210957 152.710521 
L 175.883445 152.870598 
L 174.555933 153.00887 
L 173.228422 153.129674 
L 171.90091 153.2384 
L 170.573399 153.34041 
L 169.245887 153.4401 
L 167.918375 153.540318 
L 166.590864 153.642199 
L 165.263352 153.745378 
L 163.93584 153.848433 
L 162.608329 153.949378 
L 161.280817 154.046094 
L 159.953306 154.136627 
L 158.625794 154.219351 
L 157.298282 154.293061 
L 155.970771 154.357028 
L 154.643259 154.411045 
L 153.315748 154.455465 
L 151.988236 154.491181 
L 150.660724 154.519547 
L 149.333213 154.542218 
L 148.005701 154.56094 
L 146.678189 154.577334 
L 145.350678 154.592708 
L 144.023166 154.607941 
L 142.695655 154.623453 
z
" clip-path="url(#p962f8d2c4c)" style="fill: #008fd5; fill-opacity: 0.3"/>
   </g>
   <g id="PolyCollection_6">
    <path d="M 141.069941 129.155246 
L 141.069941 129.391491 
L 142.287651 129.4143 
L 143.50536 129.43987 
L 144.72307 129.468384 
L 145.94078 129.499974 
L 147.158489 129.534769 
L 148.376199 129.573029 
L 149.593909 129.615321 
L 150.811618 129.662697 
L 152.029328 129.716808 
L 153.247038 129.779896 
L 154.464747 129.854652 
L 155.682457 129.943925 
L 156.900166 130.050366 
L 158.117876 130.17604 
L 159.335586 130.322105 
L 160.553295 130.488617 
L 161.771005 130.674488 
L 162.988715 130.877621 
L 164.206424 131.095178 
L 165.424134 131.323927 
L 166.641844 131.560608 
L 167.859553 131.802242 
L 169.077263 132.046342 
L 170.294973 132.291013 
L 171.512682 132.534964 
L 172.730392 132.77747 
L 173.948102 133.018315 
L 175.165811 133.25773 
L 176.383521 133.496285 
L 177.601231 133.734667 
L 178.81894 133.973321 
L 180.03665 134.211949 
L 181.25436 134.448962 
L 182.472069 134.681059 
L 183.689779 134.903083 
L 184.907489 135.108292 
L 186.125198 135.289038 
L 187.342908 135.437762 
L 188.560618 135.548089 
L 189.778327 135.615827 
L 190.996037 135.639684 
L 192.213746 135.621592 
L 193.431456 135.566604 
L 194.649166 135.482391 
L 195.866875 135.378358 
L 197.084585 135.264484 
L 198.302295 135.149982 
L 199.520004 135.041951 
L 200.737714 134.944254 
L 201.955424 134.85684 
L 203.173133 134.775716 
L 204.390843 134.693645 
L 205.608553 134.601491 
L 206.826262 134.48998 
L 208.043972 134.351515 
L 209.261682 134.18166 
L 210.479391 133.979979 
L 211.697101 133.750075 
L 212.914811 133.498866 
L 214.13252 133.235315 
L 215.35023 132.968938 
L 216.56794 132.708408 
L 217.785649 132.460511 
L 219.003359 132.229583 
L 220.221069 132.017414 
L 221.438778 131.823541 
L 222.656488 131.645804 
L 223.874198 131.481036 
L 225.091907 131.325779 
L 226.309617 131.176935 
L 227.527327 131.032268 
L 228.745036 130.890672 
L 229.962746 130.752163 
L 231.180455 130.61762 
L 232.398165 130.48834 
L 233.615875 130.365562 
L 234.833584 130.250092 
L 236.051294 130.142153 
L 237.269004 130.041473 
L 238.486713 129.947551 
L 239.704423 129.859989 
L 240.922133 129.778739 
L 242.139842 129.704181 
L 243.357552 129.637021 
L 244.575262 129.578046 
L 245.792971 129.527855 
L 247.010681 129.486637 
L 248.228391 129.454068 
L 249.4461 129.429342 
L 250.66381 129.41129 
L 251.88152 129.398553 
L 253.099229 129.389746 
L 254.316939 129.383583 
L 255.534649 129.378948 
L 256.752358 129.374921 
L 257.970068 129.370778 
L 259.187778 129.365979 
L 260.405487 129.36017 
L 261.623197 129.353189 
L 261.623197 129.193548 
L 261.623197 129.193548 
L 260.405487 129.186567 
L 259.187778 129.180758 
L 257.970068 129.175959 
L 256.752358 129.171816 
L 255.534649 129.167789 
L 254.316939 129.163154 
L 253.099229 129.156991 
L 251.88152 129.148184 
L 250.66381 129.135447 
L 249.4461 129.117395 
L 248.228391 129.092668 
L 247.010681 129.0601 
L 245.792971 129.018882 
L 244.575262 128.968691 
L 243.357552 128.909716 
L 242.139842 128.842556 
L 240.922133 128.767998 
L 239.704423 128.686748 
L 238.486713 128.599186 
L 237.269004 128.505264 
L 236.051294 128.404583 
L 234.833584 128.296645 
L 233.615875 128.181175 
L 232.398165 128.058397 
L 231.180455 127.929117 
L 229.962746 127.794573 
L 228.745036 127.656065 
L 227.527327 127.514469 
L 226.309617 127.369802 
L 225.091907 127.220958 
L 223.874198 127.0657 
L 222.656488 126.900933 
L 221.438778 126.723196 
L 220.221069 126.529323 
L 219.003359 126.317154 
L 217.785649 126.086226 
L 216.56794 125.838329 
L 215.35023 125.577799 
L 214.13252 125.311422 
L 212.914811 125.047871 
L 211.697101 124.796661 
L 210.479391 124.566757 
L 209.261682 124.365077 
L 208.043972 124.195222 
L 206.826262 124.056757 
L 205.608553 123.945246 
L 204.390843 123.853092 
L 203.173133 123.771021 
L 201.955424 123.689897 
L 200.737714 123.602483 
L 199.520004 123.504786 
L 198.302295 123.396755 
L 197.084585 123.282253 
L 195.866875 123.168379 
L 194.649166 123.064346 
L 193.431456 122.980133 
L 192.213746 122.925145 
L 190.996037 122.907053 
L 189.778327 122.93091 
L 188.560618 122.998648 
L 187.342908 123.108975 
L 186.125198 123.257698 
L 184.907489 123.438445 
L 183.689779 123.643654 
L 182.472069 123.865678 
L 181.25436 124.097775 
L 180.03665 124.334788 
L 178.81894 124.573415 
L 177.601231 124.81207 
L 176.383521 125.050452 
L 175.165811 125.289007 
L 173.948102 125.528422 
L 172.730392 125.769267 
L 171.512682 126.011772 
L 170.294973 126.255724 
L 169.077263 126.500395 
L 167.859553 126.744495 
L 166.641844 126.986129 
L 165.424134 127.22281 
L 164.206424 127.451559 
L 162.988715 127.669115 
L 161.771005 127.872249 
L 160.553295 128.05812 
L 159.335586 128.224632 
L 158.117876 128.370697 
L 156.900166 128.496371 
L 155.682457 128.602812 
L 154.464747 128.692085 
L 153.247038 128.76684 
L 152.029328 128.829929 
L 150.811618 128.88404 
L 149.593909 128.931416 
L 148.376199 128.973708 
L 147.158489 129.011968 
L 145.94078 129.046763 
L 144.72307 129.078353 
L 143.50536 129.106867 
L 142.287651 129.132437 
L 141.069941 129.155246 
z
" clip-path="url(#p962f8d2c4c)" style="fill: #008fd5; fill-opacity: 0.3"/>
   </g>
   <g id="PolyCollection_7">
    <path d="M 104.429727 103.615228 
L 104.429727 104.000983 
L 106.457377 104.032274 
L 108.485028 104.065275 
L 110.512678 104.099859 
L 112.540328 104.135913 
L 114.567979 104.17334 
L 116.595629 104.21212 
L 118.62328 104.252419 
L 120.65093 104.294762 
L 122.678581 104.340222 
L 124.706231 104.39058 
L 126.733881 104.448411 
L 128.761532 104.517027 
L 130.789182 104.600266 
L 132.816833 104.702096 
L 134.844483 104.826107 
L 136.872134 104.974928 
L 138.899784 105.149719 
L 140.927435 105.349813 
L 142.955085 105.57264 
L 144.982735 105.813947 
L 147.010386 106.06831 
L 149.038036 106.329828 
L 151.065687 106.59286 
L 153.093337 106.852644 
L 155.120988 107.105672 
L 157.148638 107.349772 
L 159.176288 107.583926 
L 161.203939 107.807908 
L 163.231589 108.02189 
L 165.25924 108.226103 
L 167.28689 108.420642 
L 169.314541 108.605379 
L 171.342191 108.779959 
L 173.369841 108.943792 
L 175.397492 109.096023 
L 177.425142 109.235473 
L 179.452793 109.360625 
L 181.480443 109.469746 
L 183.508094 109.56118 
L 185.535744 109.633837 
L 187.563394 109.687769 
L 189.591045 109.724687 
L 191.618695 109.748236 
L 193.646346 109.763849 
L 195.673996 109.778133 
L 197.701647 109.797823 
L 199.729297 109.82848 
L 201.756947 109.873193 
L 203.784598 109.931591 
L 205.812248 109.999404 
L 207.839899 110.068712 
L 209.867549 110.128871 
L 211.8952 110.167956 
L 213.92285 110.174421 
L 215.9505 110.138669 
L 217.978151 110.054247 
L 220.005801 109.918477 
L 222.033452 109.732519 
L 224.061102 109.500945 
L 226.088753 109.231009 
L 228.116403 108.931811 
L 230.144054 108.613487 
L 232.171704 108.286479 
L 234.199354 107.960877 
L 236.227005 107.645805 
L 238.254655 107.348826 
L 240.282306 107.075416 
L 242.309956 106.828595 
L 244.337607 106.608813 
L 246.365257 106.414177 
L 248.392907 106.240986 
L 250.420558 106.084498 
L 252.448208 105.939759 
L 254.475859 105.80233 
L 256.503509 105.668772 
L 258.53116 105.536854 
L 260.55881 105.405499 
L 262.58646 105.274575 
L 264.614111 105.144628 
L 266.641761 105.016646 
L 268.669412 104.891902 
L 270.697062 104.771847 
L 272.724713 104.658027 
L 274.752363 104.55198 
L 276.780013 104.455106 
L 278.807664 104.368503 
L 280.835314 104.292838 
L 282.862965 104.228263 
L 284.890615 104.17441 
L 286.918266 104.130463 
L 288.945916 104.095272 
L 290.973566 104.067482 
L 293.001217 104.045638 
L 295.028867 104.028264 
L 297.056518 104.013919 
L 299.084168 104.001252 
L 301.111819 103.989067 
L 303.139469 103.976407 
L 305.16712 103.96263 
L 305.16712 103.65358 
L 305.16712 103.65358 
L 303.139469 103.639804 
L 301.111819 103.627143 
L 299.084168 103.614958 
L 297.056518 103.602291 
L 295.028867 103.587946 
L 293.001217 103.570572 
L 290.973566 103.548729 
L 288.945916 103.520939 
L 286.918266 103.485748 
L 284.890615 103.441801 
L 282.862965 103.387947 
L 280.835314 103.323372 
L 278.807664 103.247708 
L 276.780013 103.161105 
L 274.752363 103.06423 
L 272.724713 102.958184 
L 270.697062 102.844364 
L 268.669412 102.724309 
L 266.641761 102.599565 
L 264.614111 102.471583 
L 262.58646 102.341635 
L 260.55881 102.210711 
L 258.53116 102.079357 
L 256.503509 101.947439 
L 254.475859 101.81388 
L 252.448208 101.676451 
L 250.420558 101.531713 
L 248.392907 101.375225 
L 246.365257 101.202034 
L 244.337607 101.007398 
L 242.309956 100.787616 
L 240.282306 100.540794 
L 238.254655 100.267385 
L 236.227005 99.970406 
L 234.199354 99.655334 
L 232.171704 99.329732 
L 230.144054 99.002723 
L 228.116403 98.684399 
L 226.088753 98.385202 
L 224.061102 98.115265 
L 222.033452 97.883691 
L 220.005801 97.697734 
L 217.978151 97.561964 
L 215.9505 97.477541 
L 213.92285 97.441789 
L 211.8952 97.448254 
L 209.867549 97.487339 
L 207.839899 97.547499 
L 205.812248 97.616806 
L 203.784598 97.684619 
L 201.756947 97.743018 
L 199.729297 97.787731 
L 197.701647 97.818388 
L 195.673996 97.838078 
L 193.646346 97.852362 
L 191.618695 97.867974 
L 189.591045 97.891523 
L 187.563394 97.928442 
L 185.535744 97.982373 
L 183.508094 98.05503 
L 181.480443 98.146464 
L 179.452793 98.255585 
L 177.425142 98.380738 
L 175.397492 98.520187 
L 173.369841 98.672418 
L 171.342191 98.836252 
L 169.314541 99.010832 
L 167.28689 99.195569 
L 165.25924 99.390108 
L 163.231589 99.594321 
L 161.203939 99.808302 
L 159.176288 100.032285 
L 157.148638 100.266438 
L 155.120988 100.510539 
L 153.093337 100.763566 
L 151.065687 101.02335 
L 149.038036 101.286382 
L 147.010386 101.547901 
L 144.982735 101.802264 
L 142.955085 102.043571 
L 140.927435 102.266398 
L 138.899784 102.466492 
L 136.872134 102.641282 
L 134.844483 102.790104 
L 132.816833 102.914114 
L 130.789182 103.015945 
L 128.761532 103.099183 
L 126.733881 103.1678 
L 124.706231 103.22563 
L 122.678581 103.275988 
L 120.65093 103.321448 
L 118.62328 103.363792 
L 116.595629 103.404091 
L 114.567979 103.44287 
L 112.540328 103.480298 
L 110.512678 103.516351 
L 108.485028 103.550936 
L 106.457377 103.583936 
L 104.429727 103.615228 
z
" clip-path="url(#p962f8d2c4c)" style="fill: #008fd5; fill-opacity: 0.3"/>
   </g>
   <g id="PolyCollection_8">
    <path d="M 88.040281 78.121233 
L 88.040281 78.564452 
L 89.679083 78.59445 
L 91.317884 78.624368 
L 92.956685 78.656995 
L 94.595487 78.696684 
L 96.234288 78.748738 
L 97.873089 78.818405 
L 99.51189 78.909695 
L 101.150692 79.024288 
L 102.789493 79.160858 
L 104.428294 79.315029 
L 106.067096 79.480069 
L 107.705897 79.648226 
L 109.344698 79.812417 
L 110.9835 79.967862 
L 112.622301 80.113236 
L 114.261102 80.251046 
L 115.899904 80.387111 
L 117.538705 80.529342 
L 119.177506 80.686141 
L 120.816307 80.864881 
L 122.455109 81.070827 
L 124.09391 81.306683 
L 125.732711 81.572708 
L 127.371513 81.86713 
L 129.010314 82.186523 
L 130.649115 82.52585 
L 132.287917 82.878132 
L 133.926718 83.233939 
L 135.565519 83.581092 
L 137.204321 83.905019 
L 138.843122 84.189998 
L 140.481923 84.421244 
L 142.120724 84.587411 
L 143.759526 84.682884 
L 145.398327 84.709158 
L 147.037128 84.674816 
L 148.67593 84.593954 
L 150.314731 84.483331 
L 151.953532 84.35892 
L 153.592334 84.232723 
L 155.231135 84.110697 
L 156.869936 83.992337 
L 158.508738 83.871971 
L 160.147539 83.741319 
L 161.78634 83.592478 
L 163.425141 83.420446 
L 165.063943 83.224488 
L 166.702744 83.008135 
L 168.341545 82.778026 
L 169.980347 82.542138 
L 171.619148 82.308024 
L 173.257949 82.081511 
L 174.896751 81.866076 
L 176.535552 81.662882 
L 178.174353 81.471313 
L 179.813154 81.289777 
L 181.451956 81.116535 
L 183.090757 80.950325 
L 184.729558 80.790584 
L 186.36836 80.637201 
L 188.007161 80.489936 
L 189.645962 80.347765 
L 191.284764 80.208545 
L 192.923565 80.06924 
L 194.562366 79.926729 
L 196.201168 79.778917 
L 197.839969 79.625719 
L 199.47877 79.469476 
L 201.117571 79.314622 
L 202.756373 79.16669 
L 204.395174 79.031022 
L 206.033975 78.91161 
L 207.672777 78.810413 
L 209.311578 78.727278 
L 210.950379 78.660378 
L 212.589181 78.606913 
L 214.227982 78.563823 
L 215.866783 78.528339 
L 217.505585 78.498274 
L 219.144386 78.472113 
L 220.783187 78.448942 
L 222.421988 78.428318 
L 224.06079 78.410114 
L 225.699591 78.394376 
L 227.338392 78.381201 
L 228.977194 78.37066 
L 230.615995 78.362753 
L 232.254796 78.357407 
L 233.893598 78.354501 
L 235.532399 78.353889 
L 237.1712 78.355412 
L 238.810002 78.35887 
L 240.448803 78.363971 
L 242.087604 78.370274 
L 243.726405 78.377153 
L 245.365207 78.38382 
L 247.004008 78.389413 
L 248.642809 78.393144 
L 250.281611 78.394451 
L 250.281611 78.291233 
L 250.281611 78.291233 
L 248.642809 78.292541 
L 247.004008 78.296271 
L 245.365207 78.301865 
L 243.726405 78.308531 
L 242.087604 78.31541 
L 240.448803 78.321713 
L 238.810002 78.326815 
L 237.1712 78.330272 
L 235.532399 78.331795 
L 233.893598 78.331184 
L 232.254796 78.328277 
L 230.615995 78.322931 
L 228.977194 78.315024 
L 227.338392 78.304483 
L 225.699591 78.291308 
L 224.06079 78.27557 
L 222.421988 78.257366 
L 220.783187 78.236742 
L 219.144386 78.213571 
L 217.505585 78.18741 
L 215.866783 78.157345 
L 214.227982 78.121861 
L 212.589181 78.078771 
L 210.950379 78.025306 
L 209.311578 77.958406 
L 207.672777 77.875272 
L 206.033975 77.774074 
L 204.395174 77.654662 
L 202.756373 77.518994 
L 201.117571 77.371062 
L 199.47877 77.216208 
L 197.839969 77.059965 
L 196.201168 76.906767 
L 194.562366 76.758955 
L 192.923565 76.616444 
L 191.284764 76.477139 
L 189.645962 76.337919 
L 188.007161 76.195748 
L 186.36836 76.048483 
L 184.729558 75.8951 
L 183.090757 75.735359 
L 181.451956 75.569149 
L 179.813154 75.395908 
L 178.174353 75.214371 
L 176.535552 75.022802 
L 174.896751 74.819609 
L 173.257949 74.604173 
L 171.619148 74.37766 
L 169.980347 74.143546 
L 168.341545 73.907658 
L 166.702744 73.677549 
L 165.063943 73.461197 
L 163.425141 73.265238 
L 161.78634 73.093206 
L 160.147539 72.944365 
L 158.508738 72.813713 
L 156.869936 72.693348 
L 155.231135 72.574987 
L 153.592334 72.452961 
L 151.953532 72.326764 
L 150.314731 72.202353 
L 148.67593 72.09173 
L 147.037128 72.010868 
L 145.398327 71.976526 
L 143.759526 72.0028 
L 142.120724 72.098273 
L 140.481923 72.26444 
L 138.843122 72.495686 
L 137.204321 72.780665 
L 135.565519 73.104592 
L 133.926718 73.451745 
L 132.287917 73.807552 
L 130.649115 74.159834 
L 129.010314 74.499161 
L 127.371513 74.818554 
L 125.732711 75.112977 
L 124.09391 75.379001 
L 122.455109 75.614857 
L 120.816307 75.820803 
L 119.177506 75.999543 
L 117.538705 76.156343 
L 115.899904 76.298573 
L 114.261102 76.434639 
L 112.622301 76.572448 
L 110.9835 76.717823 
L 109.344698 76.873267 
L 107.705897 77.037458 
L 106.067096 77.205616 
L 104.428294 77.370656 
L 102.789493 77.524826 
L 101.150692 77.661396 
L 99.51189 77.775989 
L 97.873089 77.867279 
L 96.234288 77.936946 
L 94.595487 77.989 
L 92.956685 78.02869 
L 91.317884 78.061316 
L 89.679083 78.091234 
L 88.040281 78.121233 
z
" clip-path="url(#p962f8d2c4c)" style="fill: #008fd5; fill-opacity: 0.3"/>
   </g>
   <g id="PolyCollection_9">
    <path d="M -52.226169 52.653759 
L -52.226169 53.101399 
L -49.615168 53.143748 
L -47.004167 53.190007 
L -44.393166 53.239997 
L -41.782165 53.293618 
L -39.171164 53.350928 
L -36.560163 53.412231 
L -33.949162 53.478137 
L -31.338161 53.549615 
L -28.72716 53.628 
L -26.116159 53.714983 
L -23.505158 53.812562 
L -20.894158 53.922974 
L -18.283157 54.048606 
L -15.672156 54.191883 
L -13.061155 54.355128 
L -10.450154 54.540385 
L -7.839153 54.749193 
L -5.228152 54.98232 
L -2.617151 55.239453 
L -0.00615 55.518913 
L 2.604851 55.817419 
L 5.215852 56.130004 
L 7.826853 56.450114 
L 10.437854 56.769958 
L 13.048855 57.08109 
L 15.659856 57.375178 
L 18.270856 57.644853 
L 20.881857 57.88452 
L 23.492858 58.09097 
L 26.103859 58.263704 
L 28.71486 58.404887 
L 31.325861 58.518929 
L 33.936862 58.611765 
L 36.547863 58.689945 
L 39.158864 58.759688 
L 41.769865 58.826033 
L 44.380866 58.892237 
L 46.991867 58.959468 
L 49.602868 59.026839 
L 52.213869 59.091721 
L 54.82487 59.150267 
L 57.435871 59.198028 
L 60.046871 59.230554 
L 62.657872 59.243895 
L 65.268873 59.234938 
L 67.879874 59.201584 
L 70.490875 59.142784 
L 73.101876 59.058493 
L 75.712877 58.949604 
L 78.323878 58.817894 
L 80.934879 58.666012 
L 83.54588 58.497484 
L 86.156881 58.316693 
L 88.767882 58.128783 
L 91.378883 57.939432 
L 93.989884 57.754485 
L 96.600885 57.579452 
L 99.211886 57.418947 
L 101.822886 57.276137 
L 104.433887 57.152327 
L 107.044888 57.046748 
L 109.655889 56.956635 
L 112.26689 56.877567 
L 114.877891 56.804059 
L 117.488892 56.73029 
L 120.099893 56.65086 
L 122.710894 56.561445 
L 125.321895 56.459274 
L 127.932896 56.343342 
L 130.543897 56.214368 
L 133.154898 56.074521 
L 135.765899 55.926982 
L 138.3769 55.775417 
L 140.9879 55.623443 
L 143.598901 55.474162 
L 146.209902 55.32981 
L 148.820903 55.191562 
L 151.431904 55.059501 
L 154.042905 54.932755 
L 156.653906 54.80976 
L 159.264907 54.688618 
L 161.875908 54.567477 
L 164.486909 54.444888 
L 167.09791 54.320078 
L 169.708911 54.193088 
L 172.319912 54.064795 
L 174.930913 53.93679 
L 177.541914 53.811163 
L 180.152915 53.690238 
L 182.763915 53.576289 
L 185.374916 53.471287 
L 187.985917 53.37671 
L 190.596918 53.293425 
L 193.207919 53.221656 
L 195.81892 53.161027 
L 198.429921 53.110667 
L 201.040922 53.069357 
L 203.651923 53.035697 
L 206.262924 53.008258 
L 206.262924 52.7469 
L 206.262924 52.7469 
L 203.651923 52.719461 
L 201.040922 52.6858 
L 198.429921 52.644491 
L 195.81892 52.594131 
L 193.207919 52.533502 
L 190.596918 52.461733 
L 187.985917 52.378448 
L 185.374916 52.283871 
L 182.763915 52.178869 
L 180.152915 52.06492 
L 177.541914 51.943995 
L 174.930913 51.818368 
L 172.319912 51.690362 
L 169.708911 51.56207 
L 167.09791 51.43508 
L 164.486909 51.310269 
L 161.875908 51.187681 
L 159.264907 51.06654 
L 156.653906 50.945397 
L 154.042905 50.822403 
L 151.431904 50.695657 
L 148.820903 50.563596 
L 146.209902 50.425348 
L 143.598901 50.280996 
L 140.9879 50.131715 
L 138.3769 49.979741 
L 135.765899 49.828176 
L 133.154898 49.680637 
L 130.543897 49.54079 
L 127.932896 49.411815 
L 125.321895 49.295884 
L 122.710894 49.193713 
L 120.099893 49.104298 
L 117.488892 49.024868 
L 114.877891 48.951099 
L 112.26689 48.877591 
L 109.655889 48.798523 
L 107.044888 48.708409 
L 104.433887 48.602831 
L 101.822886 48.479021 
L 99.211886 48.336211 
L 96.600885 48.175706 
L 93.989884 48.000673 
L 91.378883 47.815725 
L 88.767882 47.626375 
L 86.156881 47.438464 
L 83.54588 47.257674 
L 80.934879 47.089146 
L 78.323878 46.937264 
L 75.712877 46.805554 
L 73.101876 46.696665 
L 70.490875 46.612374 
L 67.879874 46.553574 
L 65.268873 46.52022 
L 62.657872 46.511263 
L 60.046871 46.524604 
L 57.435871 46.55713 
L 54.82487 46.604891 
L 52.213869 46.663437 
L 49.602868 46.728319 
L 46.991867 46.79569 
L 44.380866 46.862921 
L 41.769865 46.929125 
L 39.158864 46.99547 
L 36.547863 47.065212 
L 33.936862 47.143393 
L 31.325861 47.236229 
L 28.71486 47.350271 
L 26.103859 47.491454 
L 23.492858 47.664188 
L 20.881857 47.870638 
L 18.270856 48.110304 
L 15.659856 48.37998 
L 13.048855 48.674068 
L 10.437854 48.9852 
L 7.826853 49.305044 
L 5.215852 49.625154 
L 2.604851 49.937738 
L -0.00615 50.236245 
L -2.617151 50.515705 
L -5.228152 50.772838 
L -7.839153 51.005965 
L -10.450154 51.214773 
L -13.061155 51.40003 
L -15.672156 51.563275 
L -18.283157 51.706551 
L -20.894158 51.832184 
L -23.505158 51.942596 
L -26.116159 52.040175 
L -28.72716 52.127158 
L -31.338161 52.205543 
L -33.949162 52.277021 
L -36.560163 52.342927 
L -39.171164 52.40423 
L -41.782165 52.46154 
L -44.393166 52.515161 
L -47.004167 52.56515 
L -49.615168 52.611409 
L -52.226169 52.653759 
z
" clip-path="url(#p962f8d2c4c)" style="fill: #008fd5; fill-opacity: 0.3"/>
   </g>
   <g id="PolyCollection_10">
    <path d="M 80.443836 26.811151 
L 80.443836 28.013481 
L 83.202579 28.132843 
L 85.961322 28.256504 
L 88.720065 28.380524 
L 91.478809 28.501307 
L 94.237552 28.616221 
L 96.996295 28.72412 
L 99.755039 28.825623 
L 102.513782 28.923072 
L 105.272525 29.020156 
L 108.031268 29.121268 
L 110.790012 29.230727 
L 113.548755 29.352058 
L 116.307498 29.487478 
L 119.066242 29.637704 
L 121.824985 29.802081 
L 124.583728 29.978957 
L 127.342471 30.166159 
L 130.101215 30.361417 
L 132.859958 30.56262 
L 135.618701 30.767869 
L 138.377445 30.975376 
L 141.136188 31.18331 
L 143.894931 31.38971 
L 146.653674 31.592541 
L 149.412418 31.789892 
L 152.171161 31.980249 
L 154.929904 32.162719 
L 157.688647 32.337106 
L 160.447391 32.50377 
L 163.206134 32.663302 
L 165.964877 32.816112 
L 168.723621 32.96209 
L 171.482364 33.100433 
L 174.241107 33.229736 
L 176.99985 33.34828 
L 179.758594 33.454413 
L 182.517337 33.546865 
L 185.27608 33.624849 
L 188.034824 33.687895 
L 190.793567 33.73545 
L 193.55231 33.766388 
L 196.311053 33.778632 
L 199.069797 33.769059 
L 201.82854 33.733805 
L 204.587283 33.668934 
L 207.346027 33.571345 
L 210.10477 33.439678 
L 212.863513 33.274967 
L 215.622256 33.080865 
L 218.381 32.863344 
L 221.139743 32.629936 
L 223.898486 32.388679 
L 226.65723 32.147002 
L 229.415973 31.910777 
L 232.174716 31.683709 
L 234.933459 31.467151 
L 237.692203 31.26033 
L 240.450946 31.060891 
L 243.209689 30.865636 
L 245.968433 30.671311 
L 248.727176 30.475312 
L 251.485919 30.27621 
L 254.244662 30.074028 
L 257.003406 29.870259 
L 259.762149 29.667611 
L 262.520892 29.469581 
L 265.279636 29.279901 
L 268.038379 29.101991 
L 270.797122 28.938498 
L 273.555865 28.790997 
L 276.314609 28.659879 
L 279.073352 28.544427 
L 281.832095 28.443034 
L 284.590839 28.353503 
L 287.349582 28.273379 
L 290.108325 28.200257 
L 292.867068 28.13203 
L 295.625812 28.067059 
L 298.384555 28.004257 
L 301.143298 27.943095 
L 303.902041 27.883541 
L 306.660785 27.825967 
L 309.419528 27.771021 
L 312.178271 27.719517 
L 314.937015 27.672315 
L 317.695758 27.630241 
L 320.454501 27.594003 
L 323.213244 27.564123 
L 325.971988 27.540878 
L 328.730731 27.524245 
L 331.489474 27.513852 
L 334.248218 27.508963 
L 337.006961 27.508495 
L 339.765704 27.511085 
L 342.524447 27.51521 
L 345.283191 27.519336 
L 348.041934 27.522094 
L 350.800677 27.522442 
L 353.559421 27.519771 
L 353.559421 27.304861 
L 353.559421 27.304861 
L 350.800677 27.30219 
L 348.041934 27.302537 
L 345.283191 27.305296 
L 342.524447 27.309422 
L 339.765704 27.313546 
L 337.006961 27.316137 
L 334.248218 27.315669 
L 331.489474 27.31078 
L 328.730731 27.300386 
L 325.971988 27.283753 
L 323.213244 27.260509 
L 320.454501 27.230629 
L 317.695758 27.19439 
L 314.937015 27.152316 
L 312.178271 27.105115 
L 309.419528 27.05361 
L 306.660785 26.998665 
L 303.902041 26.94109 
L 301.143298 26.881537 
L 298.384555 26.820374 
L 295.625812 26.757572 
L 292.867068 26.692601 
L 290.108325 26.624375 
L 287.349582 26.551253 
L 284.590839 26.471129 
L 281.832095 26.381597 
L 279.073352 26.280204 
L 276.314609 26.164753 
L 273.555865 26.033635 
L 270.797122 25.886133 
L 268.038379 25.722641 
L 265.279636 25.544731 
L 262.520892 25.355051 
L 259.762149 25.157021 
L 257.003406 24.954373 
L 254.244662 24.750603 
L 251.485919 24.548422 
L 248.727176 24.349319 
L 245.968433 24.15332 
L 243.209689 23.958995 
L 240.450946 23.76374 
L 237.692203 23.564301 
L 234.933459 23.35748 
L 232.174716 23.140923 
L 229.415973 22.913855 
L 226.65723 22.67763 
L 223.898486 22.435953 
L 221.139743 22.194696 
L 218.381 21.961287 
L 215.622256 21.743766 
L 212.863513 21.549665 
L 210.10477 21.384954 
L 207.346027 21.253286 
L 204.587283 21.155698 
L 201.82854 21.090827 
L 199.069797 21.055572 
L 196.311053 21.046 
L 193.55231 21.058244 
L 190.793567 21.089181 
L 188.034824 21.136736 
L 185.27608 21.199782 
L 182.517337 21.277767 
L 179.758594 21.370218 
L 176.99985 21.476352 
L 174.241107 21.594896 
L 171.482364 21.724199 
L 168.723621 21.862542 
L 165.964877 22.008519 
L 163.206134 22.16133 
L 160.447391 22.320861 
L 157.688647 22.487526 
L 154.929904 22.661913 
L 152.171161 22.844383 
L 149.412418 23.034739 
L 146.653674 23.23209 
L 143.894931 23.434922 
L 141.136188 23.641322 
L 138.377445 23.849256 
L 135.618701 24.056763 
L 132.859958 24.262012 
L 130.101215 24.463214 
L 127.342471 24.658472 
L 124.583728 24.845674 
L 121.824985 25.02255 
L 119.066242 25.186927 
L 116.307498 25.337154 
L 113.548755 25.472574 
L 110.790012 25.593904 
L 108.031268 25.703364 
L 105.272525 25.804475 
L 102.513782 25.90156 
L 99.755039 25.999009 
L 96.996295 26.100511 
L 94.237552 26.208411 
L 91.478809 26.323325 
L 88.720065 26.444107 
L 85.961322 26.568127 
L 83.202579 26.691788 
L 80.443836 26.811151 
z
" clip-path="url(#p962f8d2c4c)" style="fill: #008fd5; fill-opacity: 0.3"/>
   </g>
   <g id="matplotlib.axis_1">
    <g id="xtick_1">
     <g id="line2d_1">
      <defs>
       <path id="mb58517b04d" d="M 0 1.75 
L 0 -1.75 
" style="stroke: #000000; stroke-width: 0.8"/>
      </defs>
      <g>
       <use xlink:href="#mb58517b04d" x="59.28075" y="275.062" style="stroke: #000000; stroke-width: 0.8"/>
      </g>
     </g>
     <g id="line2d_2">
      <g>
       <use xlink:href="#mb58517b04d" x="59.28075" y="8.95" style="stroke: #000000; stroke-width: 0.8"/>
      </g>
     </g>
     <g id="text_1">
      <!-- 40 -->
      <g transform="translate(50.721375 287.452625) scale(0.1 -0.1)">
       <defs>
        <path id="HelveticaNeue-Medium-2212" d="M 307 1293 
L 307 1946 
L 3533 1946 
L 3533 1293 
L 307 1293 
z
" transform="scale(0.015625)"/>
        <path id="HelveticaNeue-Medium-34" d="M 717 1638 
L 2074 1638 
L 2074 3610 
L 2061 3610 
L 717 1638 
z
M 3341 1062 
L 2765 1062 
L 2765 0 
L 2074 0 
L 2074 1062 
L 154 1062 
L 154 1786 
L 2074 4480 
L 2765 4480 
L 2765 1638 
L 3341 1638 
L 3341 1062 
z
" transform="scale(0.015625)"/>
        <path id="HelveticaNeue-Medium-30" d="M 1779 4570 
Q 2259 4570 2563 4349 
Q 2867 4128 3036 3785 
Q 3206 3443 3267 3033 
Q 3328 2624 3328 2240 
Q 3328 1856 3267 1446 
Q 3206 1037 3036 694 
Q 2867 352 2563 131 
Q 2259 -90 1779 -90 
Q 1299 -90 995 131 
Q 691 352 521 694 
Q 352 1037 291 1446 
Q 230 1856 230 2240 
Q 230 2624 291 3033 
Q 352 3443 521 3785 
Q 691 4128 995 4349 
Q 1299 4570 1779 4570 
z
M 1779 518 
Q 2016 518 2176 656 
Q 2336 794 2429 1027 
Q 2522 1261 2560 1574 
Q 2598 1888 2598 2240 
Q 2598 2592 2560 2902 
Q 2522 3213 2429 3449 
Q 2336 3686 2176 3824 
Q 2016 3962 1779 3962 
Q 1536 3962 1379 3824 
Q 1222 3686 1129 3449 
Q 1037 3213 998 2902 
Q 960 2592 960 2240 
Q 960 1888 998 1574 
Q 1037 1261 1129 1027 
Q 1222 794 1379 656 
Q 1536 518 1779 518 
z
" transform="scale(0.015625)"/>
       </defs>
       <use xlink:href="#HelveticaNeue-Medium-2212"/>
       <use xlink:href="#HelveticaNeue-Medium-34" x="59.999985"/>
       <use xlink:href="#HelveticaNeue-Medium-30" x="115.599976"/>
      </g>
     </g>
    </g>
    <g id="xtick_2">
     <g id="line2d_3">
      <g>
       <use xlink:href="#mb58517b04d" x="130.70475" y="275.062" style="stroke: #000000; stroke-width: 0.8"/>
      </g>
     </g>
     <g id="line2d_4">
      <g>
       <use xlink:href="#mb58517b04d" x="130.70475" y="8.95" style="stroke: #000000; stroke-width: 0.8"/>
      </g>
     </g>
     <g id="text_2">
      <!-- 20 -->
      <g transform="translate(122.145375 287.452625) scale(0.1 -0.1)">
       <defs>
        <path id="HelveticaNeue-Medium-32" d="M 3309 0 
L 250 0 
Q 256 557 518 973 
Q 781 1389 1235 1696 
Q 1453 1856 1689 2006 
Q 1926 2157 2124 2329 
Q 2323 2502 2451 2704 
Q 2579 2906 2586 3168 
Q 2586 3290 2557 3427 
Q 2528 3565 2445 3683 
Q 2362 3802 2214 3882 
Q 2067 3962 1830 3962 
Q 1613 3962 1469 3875 
Q 1325 3789 1238 3638 
Q 1152 3488 1110 3283 
Q 1069 3078 1062 2842 
L 333 2842 
Q 333 3213 432 3529 
Q 531 3846 729 4076 
Q 928 4307 1213 4438 
Q 1498 4570 1875 4570 
Q 2285 4570 2560 4435 
Q 2835 4301 3004 4096 
Q 3174 3891 3244 3651 
Q 3315 3411 3315 3194 
Q 3315 2925 3232 2707 
Q 3149 2490 3008 2307 
Q 2867 2125 2688 1971 
Q 2509 1818 2317 1683 
Q 2125 1549 1933 1427 
Q 1741 1306 1577 1184 
Q 1414 1062 1292 931 
Q 1171 800 1126 653 
L 3309 653 
L 3309 0 
z
" transform="scale(0.015625)"/>
       </defs>
       <use xlink:href="#HelveticaNeue-Medium-2212"/>
       <use xlink:href="#HelveticaNeue-Medium-32" x="59.999985"/>
       <use xlink:href="#HelveticaNeue-Medium-30" x="115.599976"/>
      </g>
     </g>
    </g>
    <g id="xtick_3">
     <g id="line2d_5">
      <g>
       <use xlink:href="#mb58517b04d" x="202.12875" y="275.062" style="stroke: #000000; stroke-width: 0.8"/>
      </g>
     </g>
     <g id="line2d_6">
      <g>
       <use xlink:href="#mb58517b04d" x="202.12875" y="8.95" style="stroke: #000000; stroke-width: 0.8"/>
      </g>
     </g>
     <g id="text_3">
      <!-- 0 -->
      <g transform="translate(199.349063 287.452625) scale(0.1 -0.1)">
       <use xlink:href="#HelveticaNeue-Medium-30"/>
      </g>
     </g>
    </g>
    <g id="xtick_4">
     <g id="line2d_7">
      <g>
       <use xlink:href="#mb58517b04d" x="273.55275" y="275.062" style="stroke: #000000; stroke-width: 0.8"/>
      </g>
     </g>
     <g id="line2d_8">
      <g>
       <use xlink:href="#mb58517b04d" x="273.55275" y="8.95" style="stroke: #000000; stroke-width: 0.8"/>
      </g>
     </g>
     <g id="text_4">
      <!-- 20 -->
      <g transform="translate(267.993375 287.452625) scale(0.1 -0.1)">
       <use xlink:href="#HelveticaNeue-Medium-32"/>
       <use xlink:href="#HelveticaNeue-Medium-30" x="55.599991"/>
      </g>
     </g>
    </g>
    <g id="xtick_5">
     <g id="line2d_9">
      <g>
       <use xlink:href="#mb58517b04d" x="344.97675" y="275.062" style="stroke: #000000; stroke-width: 0.8"/>
      </g>
     </g>
     <g id="line2d_10">
      <g>
       <use xlink:href="#mb58517b04d" x="344.97675" y="8.95" style="stroke: #000000; stroke-width: 0.8"/>
      </g>
     </g>
     <g id="text_5">
      <!-- 40 -->
      <g transform="translate(339.417375 287.452625) scale(0.1 -0.1)">
       <use xlink:href="#HelveticaNeue-Medium-34"/>
       <use xlink:href="#HelveticaNeue-Medium-30" x="55.599991"/>
      </g>
     </g>
    </g>
    <g id="text_6">
     <!-- Velocity [km/s] -->
     <g transform="translate(168.415469 300.671375) scale(0.1 -0.1)">
      <defs>
       <path id="HelveticaNeue-Medium-56" d="M -32 4570 
L 800 4570 
L 1946 954 
L 1958 954 
L 3130 4570 
L 3942 4570 
L 2381 0 
L 1491 0 
L -32 4570 
z
" transform="scale(0.015625)"/>
       <path id="HelveticaNeue-Medium-65" d="M 2656 1946 
Q 2643 2118 2582 2278 
Q 2522 2438 2416 2556 
Q 2310 2675 2160 2748 
Q 2010 2822 1824 2822 
Q 1632 2822 1475 2755 
Q 1318 2688 1206 2569 
Q 1094 2451 1027 2291 
Q 960 2131 954 1946 
L 2656 1946 
z
M 954 1466 
Q 954 1274 1008 1094 
Q 1062 915 1171 780 
Q 1280 646 1446 566 
Q 1613 486 1843 486 
Q 2163 486 2358 624 
Q 2554 762 2650 1037 
L 3341 1037 
Q 3283 768 3142 557 
Q 3002 346 2803 202 
Q 2605 58 2358 -16 
Q 2112 -90 1843 -90 
Q 1453 -90 1152 38 
Q 851 166 643 396 
Q 435 627 329 947 
Q 224 1267 224 1651 
Q 224 2003 336 2320 
Q 448 2637 656 2877 
Q 864 3117 1158 3257 
Q 1453 3398 1824 3398 
Q 2214 3398 2524 3235 
Q 2835 3072 3040 2803 
Q 3245 2534 3337 2185 
Q 3430 1837 3386 1466 
L 954 1466 
z
" transform="scale(0.015625)"/>
       <path id="HelveticaNeue-Medium-6c" d="M 403 4570 
L 1133 4570 
L 1133 0 
L 403 0 
L 403 4570 
z
" transform="scale(0.015625)"/>
       <path id="HelveticaNeue-Medium-6f" d="M 1901 -90 
Q 1504 -90 1193 41 
Q 883 173 668 403 
Q 454 634 342 954 
Q 230 1274 230 1658 
Q 230 2035 342 2355 
Q 454 2675 668 2905 
Q 883 3136 1193 3267 
Q 1504 3398 1901 3398 
Q 2298 3398 2608 3267 
Q 2918 3136 3132 2905 
Q 3347 2675 3459 2355 
Q 3571 2035 3571 1658 
Q 3571 1274 3459 954 
Q 3347 634 3132 403 
Q 2918 173 2608 41 
Q 2298 -90 1901 -90 
z
M 1901 486 
Q 2144 486 2323 588 
Q 2502 691 2617 857 
Q 2733 1024 2787 1232 
Q 2842 1440 2842 1658 
Q 2842 1869 2787 2080 
Q 2733 2291 2617 2454 
Q 2502 2618 2323 2720 
Q 2144 2822 1901 2822 
Q 1658 2822 1478 2720 
Q 1299 2618 1184 2454 
Q 1069 2291 1014 2080 
Q 960 1869 960 1658 
Q 960 1440 1014 1232 
Q 1069 1024 1184 857 
Q 1299 691 1478 588 
Q 1658 486 1901 486 
z
" transform="scale(0.015625)"/>
       <path id="HelveticaNeue-Medium-63" d="M 2618 2202 
Q 2573 2509 2371 2665 
Q 2170 2822 1862 2822 
Q 1722 2822 1562 2774 
Q 1402 2726 1267 2595 
Q 1133 2464 1043 2230 
Q 954 1997 954 1619 
Q 954 1414 1002 1209 
Q 1050 1005 1155 845 
Q 1261 685 1427 585 
Q 1594 486 1830 486 
Q 2150 486 2358 684 
Q 2566 883 2618 1242 
L 3347 1242 
Q 3245 595 2857 252 
Q 2470 -90 1830 -90 
Q 1440 -90 1142 41 
Q 845 173 640 400 
Q 435 627 329 940 
Q 224 1254 224 1619 
Q 224 1990 326 2316 
Q 429 2643 633 2883 
Q 838 3123 1142 3260 
Q 1446 3398 1856 3398 
Q 2144 3398 2403 3324 
Q 2662 3251 2864 3104 
Q 3066 2957 3194 2733 
Q 3322 2509 3347 2202 
L 2618 2202 
z
" transform="scale(0.015625)"/>
       <path id="HelveticaNeue-Medium-69" d="M 403 4570 
L 1133 4570 
L 1133 3878 
L 403 3878 
L 403 4570 
z
M 403 3309 
L 1133 3309 
L 1133 0 
L 403 0 
L 403 3309 
z
" transform="scale(0.015625)"/>
       <path id="HelveticaNeue-Medium-74" d="M 51 3309 
L 602 3309 
L 602 4301 
L 1331 4301 
L 1331 3309 
L 1990 3309 
L 1990 2765 
L 1331 2765 
L 1331 998 
Q 1331 883 1340 800 
Q 1350 717 1385 659 
Q 1421 602 1491 573 
Q 1562 544 1683 544 
Q 1760 544 1837 547 
Q 1914 550 1990 570 
L 1990 6 
Q 1869 -6 1753 -19 
Q 1638 -32 1517 -32 
Q 1229 -32 1053 22 
Q 877 77 777 182 
Q 678 288 643 448 
Q 608 608 602 813 
L 602 2765 
L 51 2765 
L 51 3309 
z
" transform="scale(0.015625)"/>
       <path id="HelveticaNeue-Medium-79" d="M 19 3309 
L 819 3309 
L 1683 838 
L 1696 838 
L 2534 3309 
L 3296 3309 
L 2010 -179 
Q 1920 -403 1833 -608 
Q 1747 -813 1622 -969 
Q 1498 -1126 1312 -1219 
Q 1126 -1312 838 -1312 
Q 582 -1312 333 -1274 
L 333 -659 
Q 422 -672 505 -688 
Q 589 -704 678 -704 
Q 806 -704 889 -672 
Q 973 -640 1027 -579 
Q 1082 -518 1120 -435 
Q 1158 -352 1190 -243 
L 1274 13 
L 19 3309 
z
" transform="scale(0.015625)"/>
       <path id="HelveticaNeue-Medium-20" transform="scale(0.015625)"/>
       <path id="HelveticaNeue-Medium-5b" d="M 461 4678 
L 1888 4678 
L 1888 4102 
L 1152 4102 
L 1152 -646 
L 1888 -646 
L 1888 -1222 
L 461 -1222 
L 461 4678 
z
" transform="scale(0.015625)"/>
       <path id="HelveticaNeue-Medium-6b" d="M 403 4570 
L 1133 4570 
L 1133 1971 
L 2451 3309 
L 3347 3309 
L 2080 2093 
L 3469 0 
L 2579 0 
L 1568 1606 
L 1133 1184 
L 1133 0 
L 403 0 
L 403 4570 
z
" transform="scale(0.015625)"/>
       <path id="HelveticaNeue-Medium-6d" d="M 384 3309 
L 1075 3309 
L 1075 2848 
L 1094 2848 
Q 1178 2970 1274 3072 
Q 1370 3174 1488 3244 
Q 1606 3315 1760 3356 
Q 1914 3398 2112 3398 
Q 2413 3398 2672 3264 
Q 2931 3130 3040 2848 
Q 3226 3104 3469 3251 
Q 3712 3398 4077 3398 
Q 4602 3398 4893 3142 
Q 5184 2886 5184 2285 
L 5184 0 
L 4454 0 
L 4454 1933 
Q 4454 2131 4441 2294 
Q 4429 2458 4368 2576 
Q 4307 2694 4185 2758 
Q 4064 2822 3853 2822 
Q 3482 2822 3315 2592 
Q 3149 2362 3149 1939 
L 3149 0 
L 2419 0 
L 2419 2125 
Q 2419 2470 2294 2646 
Q 2170 2822 1837 2822 
Q 1696 2822 1565 2764 
Q 1434 2707 1334 2598 
Q 1235 2490 1174 2330 
Q 1114 2170 1114 1965 
L 1114 0 
L 384 0 
L 384 3309 
z
" transform="scale(0.015625)"/>
       <path id="HelveticaNeue-Medium-2f" d="M 1696 4678 
L 2394 4678 
L 557 -109 
L -141 -109 
L 1696 4678 
z
" transform="scale(0.015625)"/>
       <path id="HelveticaNeue-Medium-73" d="M 934 1062 
Q 966 742 1177 614 
Q 1389 486 1683 486 
Q 1786 486 1917 502 
Q 2048 518 2163 563 
Q 2278 608 2352 694 
Q 2426 781 2419 921 
Q 2413 1062 2317 1152 
Q 2221 1242 2070 1296 
Q 1920 1350 1728 1388 
Q 1536 1427 1338 1472 
Q 1133 1517 944 1581 
Q 755 1645 604 1753 
Q 454 1862 364 2032 
Q 275 2202 275 2451 
Q 275 2720 406 2902 
Q 538 3085 739 3197 
Q 941 3309 1187 3353 
Q 1434 3398 1658 3398 
Q 1914 3398 2147 3344 
Q 2381 3290 2569 3168 
Q 2758 3046 2883 2851 
Q 3008 2656 3040 2381 
L 2278 2381 
Q 2227 2643 2038 2732 
Q 1850 2822 1606 2822 
Q 1530 2822 1424 2809 
Q 1318 2797 1225 2761 
Q 1133 2726 1069 2659 
Q 1005 2592 1005 2483 
Q 1005 2349 1097 2265 
Q 1190 2182 1340 2128 
Q 1491 2074 1683 2035 
Q 1875 1997 2080 1952 
Q 2278 1907 2470 1843 
Q 2662 1779 2812 1670 
Q 2963 1562 3056 1395 
Q 3149 1229 3149 986 
Q 3149 691 3014 486 
Q 2880 282 2665 154 
Q 2451 26 2188 -32 
Q 1926 -90 1670 -90 
Q 1357 -90 1091 -19 
Q 826 51 630 195 
Q 435 339 323 553 
Q 211 768 205 1062 
L 934 1062 
z
" transform="scale(0.015625)"/>
       <path id="HelveticaNeue-Medium-5d" d="M 1434 -1222 
L 6 -1222 
L 6 -646 
L 742 -646 
L 742 4102 
L 6 4102 
L 6 4678 
L 1434 4678 
L 1434 -1222 
z
" transform="scale(0.015625)"/>
      </defs>
      <use xlink:href="#HelveticaNeue-Medium-56"/>
      <use xlink:href="#HelveticaNeue-Medium-65" x="55.599991"/>
      <use xlink:href="#HelveticaNeue-Medium-6c" x="111.199982"/>
      <use xlink:href="#HelveticaNeue-Medium-6f" x="135.299973"/>
      <use xlink:href="#HelveticaNeue-Medium-63" x="194.59996"/>
      <use xlink:href="#HelveticaNeue-Medium-69" x="250.199951"/>
      <use xlink:href="#HelveticaNeue-Medium-74" x="274.299942"/>
      <use xlink:href="#HelveticaNeue-Medium-79" x="307.59993"/>
      <use xlink:href="#HelveticaNeue-Medium-20" x="359.499924"/>
      <use xlink:href="#HelveticaNeue-Medium-5b" x="387.299911"/>
      <use xlink:href="#HelveticaNeue-Medium-6b" x="416.899902"/>
      <use xlink:href="#HelveticaNeue-Medium-6d" x="470.599899"/>
      <use xlink:href="#HelveticaNeue-Medium-2f" x="557.599884"/>
      <use xlink:href="#HelveticaNeue-Medium-73" x="592.799881"/>
      <use xlink:href="#HelveticaNeue-Medium-5d" x="644.699875"/>
     </g>
    </g>
   </g>
   <g id="matplotlib.axis_2">
    <g id="ytick_1">
     <g id="line2d_11">
      <defs>
       <path id="mc32db2eea2" d="M 1.75 0 
L -1.75 -0 
" style="stroke: #000000; stroke-width: 0.8"/>
      </defs>
      <g>
       <use xlink:href="#mc32db2eea2" x="23.56875" y="231.134421" style="stroke: #000000; stroke-width: 0.8"/>
      </g>
     </g>
     <g id="line2d_12">
      <g>
       <use xlink:href="#mc32db2eea2" x="380.68875" y="231.134421" style="stroke: #000000; stroke-width: 0.8"/>
      </g>
     </g>
     <g id="text_7">
      <!-- 2 -->
      <g transform="translate(12.759375 234.704734) scale(0.1 -0.1)">
       <use xlink:href="#HelveticaNeue-Medium-32"/>
      </g>
     </g>
    </g>
    <g id="ytick_2">
     <g id="line2d_13">
      <g>
       <use xlink:href="#mc32db2eea2" x="23.56875" y="180.203895" style="stroke: #000000; stroke-width: 0.8"/>
      </g>
     </g>
     <g id="line2d_14">
      <g>
       <use xlink:href="#mc32db2eea2" x="380.68875" y="180.203895" style="stroke: #000000; stroke-width: 0.8"/>
      </g>
     </g>
     <g id="text_8">
      <!-- 4 -->
      <g transform="translate(12.759375 183.774207) scale(0.1 -0.1)">
       <use xlink:href="#HelveticaNeue-Medium-34"/>
      </g>
     </g>
    </g>
    <g id="ytick_3">
     <g id="line2d_15">
      <g>
       <use xlink:href="#mc32db2eea2" x="23.56875" y="129.273368" style="stroke: #000000; stroke-width: 0.8"/>
      </g>
     </g>
     <g id="line2d_16">
      <g>
       <use xlink:href="#mc32db2eea2" x="380.68875" y="129.273368" style="stroke: #000000; stroke-width: 0.8"/>
      </g>
     </g>
     <g id="text_9">
      <!-- 6 -->
      <g transform="translate(12.759375 132.843681) scale(0.1 -0.1)">
       <defs>
        <path id="HelveticaNeue-Medium-36" d="M 2528 3347 
Q 2502 3622 2332 3792 
Q 2163 3962 1875 3962 
Q 1677 3962 1533 3888 
Q 1389 3814 1289 3692 
Q 1190 3571 1129 3414 
Q 1069 3258 1030 3085 
Q 992 2912 976 2742 
Q 960 2573 947 2426 
L 960 2413 
Q 1107 2682 1366 2813 
Q 1626 2944 1926 2944 
Q 2259 2944 2521 2829 
Q 2784 2714 2966 2512 
Q 3149 2310 3245 2035 
Q 3341 1760 3341 1440 
Q 3341 1114 3235 835 
Q 3130 557 2931 349 
Q 2733 141 2457 25 
Q 2182 -90 1850 -90 
Q 1357 -90 1040 92 
Q 723 275 540 592 
Q 358 909 288 1334 
Q 218 1760 218 2253 
Q 218 2656 304 3065 
Q 390 3475 588 3811 
Q 787 4147 1110 4358 
Q 1434 4570 1907 4570 
Q 2176 4570 2413 4480 
Q 2650 4390 2832 4230 
Q 3014 4070 3129 3846 
Q 3245 3622 3258 3347 
L 2528 3347 
z
M 1824 518 
Q 2022 518 2169 598 
Q 2317 678 2416 806 
Q 2515 934 2563 1104 
Q 2611 1274 2611 1453 
Q 2611 1632 2563 1798 
Q 2515 1965 2416 2089 
Q 2317 2214 2169 2291 
Q 2022 2368 1824 2368 
Q 1626 2368 1475 2294 
Q 1325 2221 1222 2096 
Q 1120 1971 1069 1804 
Q 1018 1638 1018 1453 
Q 1018 1267 1069 1100 
Q 1120 934 1222 803 
Q 1325 672 1475 595 
Q 1626 518 1824 518 
z
" transform="scale(0.015625)"/>
       </defs>
       <use xlink:href="#HelveticaNeue-Medium-36"/>
      </g>
     </g>
    </g>
    <g id="ytick_4">
     <g id="line2d_17">
      <g>
       <use xlink:href="#mc32db2eea2" x="23.56875" y="78.342842" style="stroke: #000000; stroke-width: 0.8"/>
      </g>
     </g>
     <g id="line2d_18">
      <g>
       <use xlink:href="#mc32db2eea2" x="380.68875" y="78.342842" style="stroke: #000000; stroke-width: 0.8"/>
      </g>
     </g>
     <g id="text_10">
      <!-- 8 -->
      <g transform="translate(12.759375 81.913155) scale(0.1 -0.1)">
       <defs>
        <path id="HelveticaNeue-Medium-38" d="M 1779 3994 
Q 1485 3994 1280 3818 
Q 1075 3642 1075 3309 
Q 1075 2989 1273 2819 
Q 1472 2650 1779 2650 
Q 2086 2650 2284 2819 
Q 2483 2989 2483 3309 
Q 2483 3642 2278 3818 
Q 2074 3994 1779 3994 
z
M 1779 -90 
Q 1440 -90 1149 6 
Q 858 102 646 284 
Q 435 467 316 729 
Q 198 992 198 1318 
Q 198 1741 419 2029 
Q 640 2317 1018 2413 
L 1018 2426 
Q 710 2541 547 2781 
Q 384 3021 384 3347 
Q 384 3923 745 4246 
Q 1107 4570 1779 4570 
Q 2451 4570 2812 4246 
Q 3174 3923 3174 3347 
Q 3174 3021 3011 2781 
Q 2848 2541 2541 2426 
L 2541 2413 
Q 2918 2317 3139 2029 
Q 3360 1741 3360 1318 
Q 3360 992 3241 729 
Q 3123 467 2912 284 
Q 2701 102 2409 6 
Q 2118 -90 1779 -90 
z
M 1779 486 
Q 2144 486 2387 704 
Q 2630 922 2630 1318 
Q 2630 1690 2387 1898 
Q 2144 2106 1779 2106 
Q 1414 2106 1171 1898 
Q 928 1690 928 1318 
Q 928 922 1171 704 
Q 1414 486 1779 486 
z
" transform="scale(0.015625)"/>
       </defs>
       <use xlink:href="#HelveticaNeue-Medium-38"/>
      </g>
     </g>
    </g>
    <g id="ytick_5">
     <g id="line2d_19">
      <g>
       <use xlink:href="#mc32db2eea2" x="23.56875" y="27.412316" style="stroke: #000000; stroke-width: 0.8"/>
      </g>
     </g>
     <g id="line2d_20">
      <g>
       <use xlink:href="#mc32db2eea2" x="380.68875" y="27.412316" style="stroke: #000000; stroke-width: 0.8"/>
      </g>
     </g>
     <g id="text_11">
      <!-- 10 -->
      <g transform="translate(7.2 30.982628) scale(0.1 -0.1)">
       <defs>
        <path id="HelveticaNeue-Medium-31" d="M 339 3738 
Q 570 3738 787 3776 
Q 1005 3814 1181 3904 
Q 1357 3994 1481 4134 
Q 1606 4275 1645 4480 
L 2240 4480 
L 2240 0 
L 1440 0 
L 1440 3162 
L 339 3162 
L 339 3738 
z
" transform="scale(0.015625)"/>
       </defs>
       <use xlink:href="#HelveticaNeue-Medium-31"/>
       <use xlink:href="#HelveticaNeue-Medium-30" x="55.599991"/>
      </g>
     </g>
    </g>
   </g>
   <g id="patch_3">
    <path d="M 23.56875 275.062 
L 23.56875 8.95 
" style="fill: none; stroke: #000000; stroke-width: 0.8; stroke-linejoin: miter; stroke-linecap: square"/>
   </g>
   <g id="patch_4">
    <path d="M 380.68875 275.062 
L 380.68875 8.95 
" style="fill: none; stroke: #000000; stroke-width: 0.8; stroke-linejoin: miter; stroke-linecap: square"/>
   </g>
   <g id="patch_5">
    <path d="M 23.56875 275.062 
L 380.68875 275.062 
" style="fill: none; stroke: #000000; stroke-width: 0.8; stroke-linejoin: miter; stroke-linecap: square"/>
   </g>
   <g id="patch_6">
    <path d="M 23.56875 8.95 
L 380.68875 8.95 
" style="fill: none; stroke: #000000; stroke-width: 0.8; stroke-linejoin: miter; stroke-linecap: square"/>
   </g>
  </g>
 </g>
 <defs>
  <clipPath id="p962f8d2c4c">
   <rect x="23.56875" y="8.95" width="357.12" height="266.112"/>
  </clipPath>
 </defs>
</svg>
