<?xml version="1.0" encoding="utf-8" standalone="no"?>
<!DOCTYPE svg PUBLIC "-//W3C//DTD SVG 1.1//EN"
  "http://www.w3.org/Graphics/SVG/1.1/DTD/svg11.dtd">
<!-- Created with matplotlib (https://matplotlib.org/) -->
<svg height="310.86825pt" version="1.1" viewBox="0 0 406.940312 310.86825" width="406.940312pt" xmlns="http://www.w3.org/2000/svg" xmlns:xlink="http://www.w3.org/1999/xlink">
 <metadata>
  <rdf:RDF xmlns:cc="http://creativecommons.org/ns#" xmlns:dc="http://purl.org/dc/elements/1.1/" xmlns:rdf="http://www.w3.org/1999/02/22-rdf-syntax-ns#">
   <cc:Work>
    <dc:type rdf:resource="http://purl.org/dc/dcmitype/StillImage"/>
    <dc:date>2020-12-07T13:49:07.950624</dc:date>
    <dc:format>image/svg+xml</dc:format>
    <dc:creator>
     <cc:Agent>
      <dc:title>Matplotlib v3.3.2, https://matplotlib.org/</dc:title>
     </cc:Agent>
    </dc:creator>
   </cc:Work>
  </rdf:RDF>
 </metadata>
 <defs>
  <style type="text/css">*{stroke-linecap:butt;stroke-linejoin:round;}</style>
 </defs>
 <g id="figure_1">
  <g id="patch_1">
   <path d="M 0 310.86825 
L 406.940312 310.86825 
L 406.940312 0 
L 0 0 
z
" style="fill:#ffffff;"/>
  </g>
  <g id="axes_1">
   <g id="patch_2">
    <path d="M 42.620313 273.312 
L 399.740313 273.312 
L 399.740313 7.2 
L 42.620313 7.2 
z
" style="fill:#ffffff;"/>
   </g>
   <g id="matplotlib.axis_1">
    <g id="xtick_1">
     <g id="line2d_1">
      <defs>
       <path d="M 0 0 
L 0 3.5 
" id="m765dc0c002" style="stroke:#000000;stroke-width:0.8;"/>
      </defs>
      <g>
       <use style="stroke:#000000;stroke-width:0.8;" x="51.813462" xlink:href="#m765dc0c002" y="273.312"/>
      </g>
     </g>
     <g id="text_1">
      <!-- 0 -->
      <g transform="translate(48.632212 287.910437)scale(0.1 -0.1)">
       <defs>
        <path d="M 31.78125 66.40625 
Q 24.171875 66.40625 20.328125 58.90625 
Q 16.5 51.421875 16.5 36.375 
Q 16.5 21.390625 20.328125 13.890625 
Q 24.171875 6.390625 31.78125 6.390625 
Q 39.453125 6.390625 43.28125 13.890625 
Q 47.125 21.390625 47.125 36.375 
Q 47.125 51.421875 43.28125 58.90625 
Q 39.453125 66.40625 31.78125 66.40625 
z
M 31.78125 74.21875 
Q 44.046875 74.21875 50.515625 64.515625 
Q 56.984375 54.828125 56.984375 36.375 
Q 56.984375 17.96875 50.515625 8.265625 
Q 44.046875 -1.421875 31.78125 -1.421875 
Q 19.53125 -1.421875 13.0625 8.265625 
Q 6.59375 17.96875 6.59375 36.375 
Q 6.59375 54.828125 13.0625 64.515625 
Q 19.53125 74.21875 31.78125 74.21875 
z
" id="DejaVuSans-48"/>
       </defs>
       <use xlink:href="#DejaVuSans-48"/>
      </g>
     </g>
    </g>
    <g id="xtick_2">
     <g id="line2d_2">
      <g>
       <use style="stroke:#000000;stroke-width:0.8;" x="120.210359" xlink:href="#m765dc0c002" y="273.312"/>
      </g>
     </g>
     <g id="text_2">
      <!-- 1 -->
      <g transform="translate(117.029109 287.910437)scale(0.1 -0.1)">
       <defs>
        <path d="M 12.40625 8.296875 
L 28.515625 8.296875 
L 28.515625 63.921875 
L 10.984375 60.40625 
L 10.984375 69.390625 
L 28.421875 72.90625 
L 38.28125 72.90625 
L 38.28125 8.296875 
L 54.390625 8.296875 
L 54.390625 0 
L 12.40625 0 
z
" id="DejaVuSans-49"/>
       </defs>
       <use xlink:href="#DejaVuSans-49"/>
      </g>
     </g>
    </g>
    <g id="xtick_3">
     <g id="line2d_3">
      <g>
       <use style="stroke:#000000;stroke-width:0.8;" x="188.607257" xlink:href="#m765dc0c002" y="273.312"/>
      </g>
     </g>
     <g id="text_3">
      <!-- 2 -->
      <g transform="translate(185.426007 287.910437)scale(0.1 -0.1)">
       <defs>
        <path d="M 19.1875 8.296875 
L 53.609375 8.296875 
L 53.609375 0 
L 7.328125 0 
L 7.328125 8.296875 
Q 12.9375 14.109375 22.625 23.890625 
Q 32.328125 33.6875 34.8125 36.53125 
Q 39.546875 41.84375 41.421875 45.53125 
Q 43.3125 49.21875 43.3125 52.78125 
Q 43.3125 58.59375 39.234375 62.25 
Q 35.15625 65.921875 28.609375 65.921875 
Q 23.96875 65.921875 18.8125 64.3125 
Q 13.671875 62.703125 7.8125 59.421875 
L 7.8125 69.390625 
Q 13.765625 71.78125 18.9375 73 
Q 24.125 74.21875 28.421875 74.21875 
Q 39.75 74.21875 46.484375 68.546875 
Q 53.21875 62.890625 53.21875 53.421875 
Q 53.21875 48.921875 51.53125 44.890625 
Q 49.859375 40.875 45.40625 35.40625 
Q 44.1875 33.984375 37.640625 27.21875 
Q 31.109375 20.453125 19.1875 8.296875 
z
" id="DejaVuSans-50"/>
       </defs>
       <use xlink:href="#DejaVuSans-50"/>
      </g>
     </g>
    </g>
    <g id="xtick_4">
     <g id="line2d_4">
      <g>
       <use style="stroke:#000000;stroke-width:0.8;" x="257.004154" xlink:href="#m765dc0c002" y="273.312"/>
      </g>
     </g>
     <g id="text_4">
      <!-- 3 -->
      <g transform="translate(253.822904 287.910437)scale(0.1 -0.1)">
       <defs>
        <path d="M 40.578125 39.3125 
Q 47.65625 37.796875 51.625 33 
Q 55.609375 28.21875 55.609375 21.1875 
Q 55.609375 10.40625 48.1875 4.484375 
Q 40.765625 -1.421875 27.09375 -1.421875 
Q 22.515625 -1.421875 17.65625 -0.515625 
Q 12.796875 0.390625 7.625 2.203125 
L 7.625 11.71875 
Q 11.71875 9.328125 16.59375 8.109375 
Q 21.484375 6.890625 26.8125 6.890625 
Q 36.078125 6.890625 40.9375 10.546875 
Q 45.796875 14.203125 45.796875 21.1875 
Q 45.796875 27.640625 41.28125 31.265625 
Q 36.765625 34.90625 28.71875 34.90625 
L 20.21875 34.90625 
L 20.21875 43.015625 
L 29.109375 43.015625 
Q 36.375 43.015625 40.234375 45.921875 
Q 44.09375 48.828125 44.09375 54.296875 
Q 44.09375 59.90625 40.109375 62.90625 
Q 36.140625 65.921875 28.71875 65.921875 
Q 24.65625 65.921875 20.015625 65.03125 
Q 15.375 64.15625 9.8125 62.3125 
L 9.8125 71.09375 
Q 15.4375 72.65625 20.34375 73.4375 
Q 25.25 74.21875 29.59375 74.21875 
Q 40.828125 74.21875 47.359375 69.109375 
Q 53.90625 64.015625 53.90625 55.328125 
Q 53.90625 49.265625 50.4375 45.09375 
Q 46.96875 40.921875 40.578125 39.3125 
z
" id="DejaVuSans-51"/>
       </defs>
       <use xlink:href="#DejaVuSans-51"/>
      </g>
     </g>
    </g>
    <g id="xtick_5">
     <g id="line2d_5">
      <g>
       <use style="stroke:#000000;stroke-width:0.8;" x="325.401052" xlink:href="#m765dc0c002" y="273.312"/>
      </g>
     </g>
     <g id="text_5">
      <!-- 4 -->
      <g transform="translate(322.219802 287.910437)scale(0.1 -0.1)">
       <defs>
        <path d="M 37.796875 64.3125 
L 12.890625 25.390625 
L 37.796875 25.390625 
z
M 35.203125 72.90625 
L 47.609375 72.90625 
L 47.609375 25.390625 
L 58.015625 25.390625 
L 58.015625 17.1875 
L 47.609375 17.1875 
L 47.609375 0 
L 37.796875 0 
L 37.796875 17.1875 
L 4.890625 17.1875 
L 4.890625 26.703125 
z
" id="DejaVuSans-52"/>
       </defs>
       <use xlink:href="#DejaVuSans-52"/>
      </g>
     </g>
    </g>
    <g id="xtick_6">
     <g id="line2d_6">
      <g>
       <use style="stroke:#000000;stroke-width:0.8;" x="393.797949" xlink:href="#m765dc0c002" y="273.312"/>
      </g>
     </g>
     <g id="text_6">
      <!-- 5 -->
      <g transform="translate(390.616699 287.910437)scale(0.1 -0.1)">
       <defs>
        <path d="M 10.796875 72.90625 
L 49.515625 72.90625 
L 49.515625 64.59375 
L 19.828125 64.59375 
L 19.828125 46.734375 
Q 21.96875 47.46875 24.109375 47.828125 
Q 26.265625 48.1875 28.421875 48.1875 
Q 40.625 48.1875 47.75 41.5 
Q 54.890625 34.8125 54.890625 23.390625 
Q 54.890625 11.625 47.5625 5.09375 
Q 40.234375 -1.421875 26.90625 -1.421875 
Q 22.3125 -1.421875 17.546875 -0.640625 
Q 12.796875 0.140625 7.71875 1.703125 
L 7.71875 11.625 
Q 12.109375 9.234375 16.796875 8.0625 
Q 21.484375 6.890625 26.703125 6.890625 
Q 35.15625 6.890625 40.078125 11.328125 
Q 45.015625 15.765625 45.015625 23.390625 
Q 45.015625 31 40.078125 35.4375 
Q 35.15625 39.890625 26.703125 39.890625 
Q 22.75 39.890625 18.8125 39.015625 
Q 14.890625 38.140625 10.796875 36.28125 
z
" id="DejaVuSans-53"/>
       </defs>
       <use xlink:href="#DejaVuSans-53"/>
      </g>
     </g>
    </g>
    <g id="text_7">
     <!-- x -->
     <g transform="translate(218.220938 301.588562)scale(0.1 -0.1)">
      <defs>
       <path d="M 54.890625 54.6875 
L 35.109375 28.078125 
L 55.90625 0 
L 45.3125 0 
L 29.390625 21.484375 
L 13.484375 0 
L 2.875 0 
L 24.125 28.609375 
L 4.6875 54.6875 
L 15.28125 54.6875 
L 29.78125 35.203125 
L 44.28125 54.6875 
z
" id="DejaVuSans-120"/>
      </defs>
      <use xlink:href="#DejaVuSans-120"/>
     </g>
    </g>
   </g>
   <g id="matplotlib.axis_2">
    <g id="ytick_1">
     <g id="line2d_7">
      <defs>
       <path d="M 0 0 
L -3.5 0 
" id="m32cd72d8cd" style="stroke:#000000;stroke-width:0.8;"/>
      </defs>
      <g>
       <use style="stroke:#000000;stroke-width:0.8;" x="42.620313" xlink:href="#m32cd72d8cd" y="255.007639"/>
      </g>
     </g>
     <g id="text_8">
      <!-- −2 -->
      <g transform="translate(20.878125 258.806858)scale(0.1 -0.1)">
       <defs>
        <path d="M 10.59375 35.5 
L 73.1875 35.5 
L 73.1875 27.203125 
L 10.59375 27.203125 
z
" id="DejaVuSans-8722"/>
       </defs>
       <use xlink:href="#DejaVuSans-8722"/>
       <use x="83.789062" xlink:href="#DejaVuSans-50"/>
      </g>
     </g>
    </g>
    <g id="ytick_2">
     <g id="line2d_8">
      <g>
       <use style="stroke:#000000;stroke-width:0.8;" x="42.620313" xlink:href="#m32cd72d8cd" y="217.075841"/>
      </g>
     </g>
     <g id="text_9">
      <!-- −1 -->
      <g transform="translate(20.878125 220.87506)scale(0.1 -0.1)">
       <use xlink:href="#DejaVuSans-8722"/>
       <use x="83.789062" xlink:href="#DejaVuSans-49"/>
      </g>
     </g>
    </g>
    <g id="ytick_3">
     <g id="line2d_9">
      <g>
       <use style="stroke:#000000;stroke-width:0.8;" x="42.620313" xlink:href="#m32cd72d8cd" y="179.144043"/>
      </g>
     </g>
     <g id="text_10">
      <!-- 0 -->
      <g transform="translate(29.257813 182.943262)scale(0.1 -0.1)">
       <use xlink:href="#DejaVuSans-48"/>
      </g>
     </g>
    </g>
    <g id="ytick_4">
     <g id="line2d_10">
      <g>
       <use style="stroke:#000000;stroke-width:0.8;" x="42.620313" xlink:href="#m32cd72d8cd" y="141.212245"/>
      </g>
     </g>
     <g id="text_11">
      <!-- 1 -->
      <g transform="translate(29.257813 145.011464)scale(0.1 -0.1)">
       <use xlink:href="#DejaVuSans-49"/>
      </g>
     </g>
    </g>
    <g id="ytick_5">
     <g id="line2d_11">
      <g>
       <use style="stroke:#000000;stroke-width:0.8;" x="42.620313" xlink:href="#m32cd72d8cd" y="103.280447"/>
      </g>
     </g>
     <g id="text_12">
      <!-- 2 -->
      <g transform="translate(29.257813 107.079666)scale(0.1 -0.1)">
       <use xlink:href="#DejaVuSans-50"/>
      </g>
     </g>
    </g>
    <g id="ytick_6">
     <g id="line2d_12">
      <g>
       <use style="stroke:#000000;stroke-width:0.8;" x="42.620313" xlink:href="#m32cd72d8cd" y="65.348649"/>
      </g>
     </g>
     <g id="text_13">
      <!-- 3 -->
      <g transform="translate(29.257813 69.147867)scale(0.1 -0.1)">
       <use xlink:href="#DejaVuSans-51"/>
      </g>
     </g>
    </g>
    <g id="ytick_7">
     <g id="line2d_13">
      <g>
       <use style="stroke:#000000;stroke-width:0.8;" x="42.620313" xlink:href="#m32cd72d8cd" y="27.416851"/>
      </g>
     </g>
     <g id="text_14">
      <!-- 4 -->
      <g transform="translate(29.257813 31.216069)scale(0.1 -0.1)">
       <use xlink:href="#DejaVuSans-52"/>
      </g>
     </g>
    </g>
    <g id="text_15">
     <!-- y -->
     <g transform="translate(14.798438 143.215375)rotate(-90)scale(0.1 -0.1)">
      <defs>
       <path d="M 32.171875 -5.078125 
Q 28.375 -14.84375 24.75 -17.8125 
Q 21.140625 -20.796875 15.09375 -20.796875 
L 7.90625 -20.796875 
L 7.90625 -13.28125 
L 13.1875 -13.28125 
Q 16.890625 -13.28125 18.9375 -11.515625 
Q 21 -9.765625 23.484375 -3.21875 
L 25.09375 0.875 
L 2.984375 54.6875 
L 12.5 54.6875 
L 29.59375 11.921875 
L 46.6875 54.6875 
L 56.203125 54.6875 
z
" id="DejaVuSans-121"/>
      </defs>
      <use xlink:href="#DejaVuSans-121"/>
     </g>
    </g>
   </g>
   <g id="LineCollection_1">
    <path clip-path="url(#pb7fd788858)" d="M 179.900372 171.206164 
L 179.900372 95.342568 
" style="fill:none;stroke:#1f77b4;stroke-width:1.5;"/>
    <path clip-path="url(#pb7fd788858)" d="M 376.943006 165.772907 
L 376.943006 89.90931 
" style="fill:none;stroke:#1f77b4;stroke-width:1.5;"/>
    <path clip-path="url(#pb7fd788858)" d="M 302.144035 221.720323 
L 302.144035 145.856726 
" style="fill:none;stroke:#1f77b4;stroke-width:1.5;"/>
    <path clip-path="url(#pb7fd788858)" d="M 256.545377 261.216 
L 256.545377 185.352404 
" style="fill:none;stroke:#1f77b4;stroke-width:1.5;"/>
    <path clip-path="url(#pb7fd788858)" d="M 105.169417 163.482339 
L 105.169417 87.618743 
" style="fill:none;stroke:#1f77b4;stroke-width:1.5;"/>
    <path clip-path="url(#pb7fd788858)" d="M 105.161168 172.007119 
L 105.161168 96.143523 
" style="fill:none;stroke:#1f77b4;stroke-width:1.5;"/>
    <path clip-path="url(#pb7fd788858)" d="M 71.677156 174.667171 
L 71.677156 98.803575 
" style="fill:none;stroke:#1f77b4;stroke-width:1.5;"/>
    <path clip-path="url(#pb7fd788858)" d="M 348.032267 201.197629 
L 348.032267 125.334033 
" style="fill:none;stroke:#1f77b4;stroke-width:1.5;"/>
    <path clip-path="url(#pb7fd788858)" d="M 257.385471 236.323455 
L 257.385471 160.459859 
" style="fill:none;stroke:#1f77b4;stroke-width:1.5;"/>
    <path clip-path="url(#pb7fd788858)" d="M 293.963299 166.477022 
L 293.963299 90.613426 
" style="fill:none;stroke:#1f77b4;stroke-width:1.5;"/>
    <path clip-path="url(#pb7fd788858)" d="M 58.85304 187.956082 
L 58.85304 112.092486 
" style="fill:none;stroke:#1f77b4;stroke-width:1.5;"/>
    <path clip-path="url(#pb7fd788858)" d="M 383.507585 214.750232 
L 383.507585 138.886636 
" style="fill:none;stroke:#1f77b4;stroke-width:1.5;"/>
    <path clip-path="url(#pb7fd788858)" d="M 336.495931 136.480622 
L 336.495931 60.617026 
" style="fill:none;stroke:#1f77b4;stroke-width:1.5;"/>
    <path clip-path="url(#pb7fd788858)" d="M 124.430144 187.275183 
L 124.430144 111.411587 
" style="fill:none;stroke:#1f77b4;stroke-width:1.5;"/>
    <path clip-path="url(#pb7fd788858)" d="M 113.99478 238.421517 
L 113.99478 162.557921 
" style="fill:none;stroke:#1f77b4;stroke-width:1.5;"/>
    <path clip-path="url(#pb7fd788858)" d="M 114.534959 168.979789 
L 114.534959 93.116193 
" style="fill:none;stroke:#1f77b4;stroke-width:1.5;"/>
    <path clip-path="url(#pb7fd788858)" d="M 155.859589 244.59894 
L 155.859589 168.735344 
" style="fill:none;stroke:#1f77b4;stroke-width:1.5;"/>
    <path clip-path="url(#pb7fd788858)" d="M 231.272021 177.19808 
L 231.272021 101.334484 
" style="fill:none;stroke:#1f77b4;stroke-width:1.5;"/>
    <path clip-path="url(#pb7fd788858)" d="M 199.531958 131.615774 
L 199.531958 55.752178 
" style="fill:none;stroke:#1f77b4;stroke-width:1.5;"/>
    <path clip-path="url(#pb7fd788858)" d="M 151.40931 242.34324 
L 151.40931 166.479644 
" style="fill:none;stroke:#1f77b4;stroke-width:1.5;"/>
    <path clip-path="url(#pb7fd788858)" d="M 261.05766 170.913631 
L 261.05766 95.050034 
" style="fill:none;stroke:#1f77b4;stroke-width:1.5;"/>
    <path clip-path="url(#pb7fd788858)" d="M 99.518198 162.723702 
L 99.518198 86.860106 
" style="fill:none;stroke:#1f77b4;stroke-width:1.5;"/>
    <path clip-path="url(#pb7fd788858)" d="M 151.7224 179.81461 
L 151.7224 103.951014 
" style="fill:none;stroke:#1f77b4;stroke-width:1.5;"/>
    <path clip-path="url(#pb7fd788858)" d="M 177.103529 111.795948 
L 177.103529 35.932351 
" style="fill:none;stroke:#1f77b4;stroke-width:1.5;"/>
    <path clip-path="url(#pb7fd788858)" d="M 207.782322 190.315384 
L 207.782322 114.451788 
" style="fill:none;stroke:#1f77b4;stroke-width:1.5;"/>
    <path clip-path="url(#pb7fd788858)" d="M 320.33146 217.452234 
L 320.33146 141.588638 
" style="fill:none;stroke:#1f77b4;stroke-width:1.5;"/>
    <path clip-path="url(#pb7fd788858)" d="M 120.098798 234.248321 
L 120.098798 158.384725 
" style="fill:none;stroke:#1f77b4;stroke-width:1.5;"/>
    <path clip-path="url(#pb7fd788858)" d="M 227.673663 234.326059 
L 227.673663 158.462463 
" style="fill:none;stroke:#1f77b4;stroke-width:1.5;"/>
    <path clip-path="url(#pb7fd788858)" d="M 254.410054 215.386526 
L 254.410054 139.522929 
" style="fill:none;stroke:#1f77b4;stroke-width:1.5;"/>
    <path clip-path="url(#pb7fd788858)" d="M 67.698783 175.593231 
L 67.698783 99.729635 
" style="fill:none;stroke:#1f77b4;stroke-width:1.5;"/>
    <path clip-path="url(#pb7fd788858)" d="M 259.584377 198.276995 
L 259.584377 122.413399 
" style="fill:none;stroke:#1f77b4;stroke-width:1.5;"/>
    <path clip-path="url(#pb7fd788858)" d="M 110.130067 157.281904 
L 110.130067 81.418307 
" style="fill:none;stroke:#1f77b4;stroke-width:1.5;"/>
    <path clip-path="url(#pb7fd788858)" d="M 74.060098 181.327836 
L 74.060098 105.46424 
" style="fill:none;stroke:#1f77b4;stroke-width:1.5;"/>
    <path clip-path="url(#pb7fd788858)" d="M 376.317596 141.046765 
L 376.317596 65.183169 
" style="fill:none;stroke:#1f77b4;stroke-width:1.5;"/>
    <path clip-path="url(#pb7fd788858)" d="M 382.044637 199.374385 
L 382.044637 123.510788 
" style="fill:none;stroke:#1f77b4;stroke-width:1.5;"/>
    <path clip-path="url(#pb7fd788858)" d="M 328.272814 95.159596 
L 328.272814 19.296 
" style="fill:none;stroke:#1f77b4;stroke-width:1.5;"/>
    <path clip-path="url(#pb7fd788858)" d="M 155.986646 183.777572 
L 155.986646 107.913976 
" style="fill:none;stroke:#1f77b4;stroke-width:1.5;"/>
    <path clip-path="url(#pb7fd788858)" d="M 85.21581 207.409617 
L 85.21581 131.546021 
" style="fill:none;stroke:#1f77b4;stroke-width:1.5;"/>
    <path clip-path="url(#pb7fd788858)" d="M 285.810543 220.901396 
L 285.810543 145.0378 
" style="fill:none;stroke:#1f77b4;stroke-width:1.5;"/>
    <path clip-path="url(#pb7fd788858)" d="M 202.338787 158.64938 
L 202.338787 82.785784 
" style="fill:none;stroke:#1f77b4;stroke-width:1.5;"/>
    <path clip-path="url(#pb7fd788858)" d="M 93.548645 183.683079 
L 93.548645 107.819483 
" style="fill:none;stroke:#1f77b4;stroke-width:1.5;"/>
    <path clip-path="url(#pb7fd788858)" d="M 221.156284 168.740442 
L 221.156284 92.876845 
" style="fill:none;stroke:#1f77b4;stroke-width:1.5;"/>
    <path clip-path="url(#pb7fd788858)" d="M 63.573803 175.465512 
L 63.573803 99.601916 
" style="fill:none;stroke:#1f77b4;stroke-width:1.5;"/>
    <path clip-path="url(#pb7fd788858)" d="M 362.786933 213.000149 
L 362.786933 137.136553 
" style="fill:none;stroke:#1f77b4;stroke-width:1.5;"/>
    <path clip-path="url(#pb7fd788858)" d="M 140.312201 246.825377 
L 140.312201 170.961781 
" style="fill:none;stroke:#1f77b4;stroke-width:1.5;"/>
    <path clip-path="url(#pb7fd788858)" d="M 278.385806 245.238177 
L 278.385806 169.374581 
" style="fill:none;stroke:#1f77b4;stroke-width:1.5;"/>
    <path clip-path="url(#pb7fd788858)" d="M 158.413814 222.072132 
L 158.413814 146.208536 
" style="fill:none;stroke:#1f77b4;stroke-width:1.5;"/>
    <path clip-path="url(#pb7fd788858)" d="M 229.668657 172.993947 
L 229.668657 97.130351 
" style="fill:none;stroke:#1f77b4;stroke-width:1.5;"/>
    <path clip-path="url(#pb7fd788858)" d="M 238.779896 204.575418 
L 238.779896 128.711822 
" style="fill:none;stroke:#1f77b4;stroke-width:1.5;"/>
    <path clip-path="url(#pb7fd788858)" d="M 115.030818 241.735234 
L 115.030818 165.871638 
" style="fill:none;stroke:#1f77b4;stroke-width:1.5;"/>
   </g>
   <g id="line2d_14">
    <defs>
     <path d="M 0 3 
C 0.795609 3 1.55874 2.683901 2.12132 2.12132 
C 2.683901 1.55874 3 0.795609 3 0 
C 3 -0.795609 2.683901 -1.55874 2.12132 -2.12132 
C 1.55874 -2.683901 0.795609 -3 0 -3 
C -0.795609 -3 -1.55874 -2.683901 -2.12132 -2.12132 
C -2.683901 -1.55874 -3 -0.795609 -3 0 
C -3 0.795609 -2.683901 1.55874 -2.12132 2.12132 
C -1.55874 2.683901 -0.795609 3 0 3 
z
" id="m877fe6e5f4" style="stroke:#1f77b4;"/>
    </defs>
    <g clip-path="url(#pb7fd788858)">
     <use style="fill:#1f77b4;stroke:#1f77b4;" x="179.900372" xlink:href="#m877fe6e5f4" y="133.274366"/>
     <use style="fill:#1f77b4;stroke:#1f77b4;" x="376.943006" xlink:href="#m877fe6e5f4" y="127.841109"/>
     <use style="fill:#1f77b4;stroke:#1f77b4;" x="302.144035" xlink:href="#m877fe6e5f4" y="183.788524"/>
     <use style="fill:#1f77b4;stroke:#1f77b4;" x="256.545377" xlink:href="#m877fe6e5f4" y="223.284202"/>
     <use style="fill:#1f77b4;stroke:#1f77b4;" x="105.169417" xlink:href="#m877fe6e5f4" y="125.550541"/>
     <use style="fill:#1f77b4;stroke:#1f77b4;" x="105.161168" xlink:href="#m877fe6e5f4" y="134.075321"/>
     <use style="fill:#1f77b4;stroke:#1f77b4;" x="71.677156" xlink:href="#m877fe6e5f4" y="136.735373"/>
     <use style="fill:#1f77b4;stroke:#1f77b4;" x="348.032267" xlink:href="#m877fe6e5f4" y="163.265831"/>
     <use style="fill:#1f77b4;stroke:#1f77b4;" x="257.385471" xlink:href="#m877fe6e5f4" y="198.391657"/>
     <use style="fill:#1f77b4;stroke:#1f77b4;" x="293.963299" xlink:href="#m877fe6e5f4" y="128.545224"/>
     <use style="fill:#1f77b4;stroke:#1f77b4;" x="58.85304" xlink:href="#m877fe6e5f4" y="150.024284"/>
     <use style="fill:#1f77b4;stroke:#1f77b4;" x="383.507585" xlink:href="#m877fe6e5f4" y="176.818434"/>
     <use style="fill:#1f77b4;stroke:#1f77b4;" x="336.495931" xlink:href="#m877fe6e5f4" y="98.548824"/>
     <use style="fill:#1f77b4;stroke:#1f77b4;" x="124.430144" xlink:href="#m877fe6e5f4" y="149.343385"/>
     <use style="fill:#1f77b4;stroke:#1f77b4;" x="113.99478" xlink:href="#m877fe6e5f4" y="200.489719"/>
     <use style="fill:#1f77b4;stroke:#1f77b4;" x="114.534959" xlink:href="#m877fe6e5f4" y="131.047991"/>
     <use style="fill:#1f77b4;stroke:#1f77b4;" x="155.859589" xlink:href="#m877fe6e5f4" y="206.667142"/>
     <use style="fill:#1f77b4;stroke:#1f77b4;" x="231.272021" xlink:href="#m877fe6e5f4" y="139.266282"/>
     <use style="fill:#1f77b4;stroke:#1f77b4;" x="199.531958" xlink:href="#m877fe6e5f4" y="93.683976"/>
     <use style="fill:#1f77b4;stroke:#1f77b4;" x="151.40931" xlink:href="#m877fe6e5f4" y="204.411442"/>
     <use style="fill:#1f77b4;stroke:#1f77b4;" x="261.05766" xlink:href="#m877fe6e5f4" y="132.981833"/>
     <use style="fill:#1f77b4;stroke:#1f77b4;" x="99.518198" xlink:href="#m877fe6e5f4" y="124.791904"/>
     <use style="fill:#1f77b4;stroke:#1f77b4;" x="151.7224" xlink:href="#m877fe6e5f4" y="141.882812"/>
     <use style="fill:#1f77b4;stroke:#1f77b4;" x="177.103529" xlink:href="#m877fe6e5f4" y="73.86415"/>
     <use style="fill:#1f77b4;stroke:#1f77b4;" x="207.782322" xlink:href="#m877fe6e5f4" y="152.383586"/>
     <use style="fill:#1f77b4;stroke:#1f77b4;" x="320.33146" xlink:href="#m877fe6e5f4" y="179.520436"/>
     <use style="fill:#1f77b4;stroke:#1f77b4;" x="120.098798" xlink:href="#m877fe6e5f4" y="196.316523"/>
     <use style="fill:#1f77b4;stroke:#1f77b4;" x="227.673663" xlink:href="#m877fe6e5f4" y="196.394261"/>
     <use style="fill:#1f77b4;stroke:#1f77b4;" x="254.410054" xlink:href="#m877fe6e5f4" y="177.454728"/>
     <use style="fill:#1f77b4;stroke:#1f77b4;" x="67.698783" xlink:href="#m877fe6e5f4" y="137.661433"/>
     <use style="fill:#1f77b4;stroke:#1f77b4;" x="259.584377" xlink:href="#m877fe6e5f4" y="160.345197"/>
     <use style="fill:#1f77b4;stroke:#1f77b4;" x="110.130067" xlink:href="#m877fe6e5f4" y="119.350105"/>
     <use style="fill:#1f77b4;stroke:#1f77b4;" x="74.060098" xlink:href="#m877fe6e5f4" y="143.396038"/>
     <use style="fill:#1f77b4;stroke:#1f77b4;" x="376.317596" xlink:href="#m877fe6e5f4" y="103.114967"/>
     <use style="fill:#1f77b4;stroke:#1f77b4;" x="382.044637" xlink:href="#m877fe6e5f4" y="161.442587"/>
     <use style="fill:#1f77b4;stroke:#1f77b4;" x="328.272814" xlink:href="#m877fe6e5f4" y="57.227798"/>
     <use style="fill:#1f77b4;stroke:#1f77b4;" x="155.986646" xlink:href="#m877fe6e5f4" y="145.845774"/>
     <use style="fill:#1f77b4;stroke:#1f77b4;" x="85.21581" xlink:href="#m877fe6e5f4" y="169.477819"/>
     <use style="fill:#1f77b4;stroke:#1f77b4;" x="285.810543" xlink:href="#m877fe6e5f4" y="182.969598"/>
     <use style="fill:#1f77b4;stroke:#1f77b4;" x="202.338787" xlink:href="#m877fe6e5f4" y="120.717582"/>
     <use style="fill:#1f77b4;stroke:#1f77b4;" x="93.548645" xlink:href="#m877fe6e5f4" y="145.751281"/>
     <use style="fill:#1f77b4;stroke:#1f77b4;" x="221.156284" xlink:href="#m877fe6e5f4" y="130.808644"/>
     <use style="fill:#1f77b4;stroke:#1f77b4;" x="63.573803" xlink:href="#m877fe6e5f4" y="137.533714"/>
     <use style="fill:#1f77b4;stroke:#1f77b4;" x="362.786933" xlink:href="#m877fe6e5f4" y="175.068351"/>
     <use style="fill:#1f77b4;stroke:#1f77b4;" x="140.312201" xlink:href="#m877fe6e5f4" y="208.893579"/>
     <use style="fill:#1f77b4;stroke:#1f77b4;" x="278.385806" xlink:href="#m877fe6e5f4" y="207.306379"/>
     <use style="fill:#1f77b4;stroke:#1f77b4;" x="158.413814" xlink:href="#m877fe6e5f4" y="184.140334"/>
     <use style="fill:#1f77b4;stroke:#1f77b4;" x="229.668657" xlink:href="#m877fe6e5f4" y="135.062149"/>
     <use style="fill:#1f77b4;stroke:#1f77b4;" x="238.779896" xlink:href="#m877fe6e5f4" y="166.64362"/>
     <use style="fill:#1f77b4;stroke:#1f77b4;" x="115.030818" xlink:href="#m877fe6e5f4" y="203.803436"/>
    </g>
   </g>
   <g id="patch_3">
    <path d="M 42.620313 273.312 
L 42.620313 7.2 
" style="fill:none;stroke:#000000;stroke-linecap:square;stroke-linejoin:miter;stroke-width:0.8;"/>
   </g>
   <g id="patch_4">
    <path d="M 399.740313 273.312 
L 399.740313 7.2 
" style="fill:none;stroke:#000000;stroke-linecap:square;stroke-linejoin:miter;stroke-width:0.8;"/>
   </g>
   <g id="patch_5">
    <path d="M 42.620312 273.312 
L 399.740312 273.312 
" style="fill:none;stroke:#000000;stroke-linecap:square;stroke-linejoin:miter;stroke-width:0.8;"/>
   </g>
   <g id="patch_6">
    <path d="M 42.620312 7.2 
L 399.740312 7.2 
" style="fill:none;stroke:#000000;stroke-linecap:square;stroke-linejoin:miter;stroke-width:0.8;"/>
   </g>
  </g>
 </g>
 <defs>
  <clipPath id="pb7fd788858">
   <rect height="266.112" width="357.12" x="42.620313" y="7.2"/>
  </clipPath>
 </defs>
</svg>
