<?xml version="1.0" encoding="utf-8" standalone="no"?>
<!DOCTYPE svg PUBLIC "-//W3C//DTD SVG 1.1//EN"
  "http://www.w3.org/Graphics/SVG/1.1/DTD/svg11.dtd">
<!-- Created with matplotlib (https://matplotlib.org/) -->
<svg height="310.86825pt" version="1.1" viewBox="0 0 391.245 310.86825" width="391.245pt" xmlns="http://www.w3.org/2000/svg" xmlns:xlink="http://www.w3.org/1999/xlink">
 <defs>
  <style type="text/css">
*{stroke-linecap:butt;stroke-linejoin:round;}
  </style>
 </defs>
 <g id="figure_1">
  <g id="patch_1">
   <path d="M 0 310.86825 
L 391.245 310.86825 
L 391.245 0 
L 0 0 
z
" style="fill:#ffffff;"/>
  </g>
  <g id="axes_1">
   <g id="patch_2">
    <path d="M 26.925 273.312 
L 384.045 273.312 
L 384.045 7.2 
L 26.925 7.2 
z
" style="fill:#ffffff;"/>
   </g>
   <g id="PolyCollection_1">
    <path clip-path="url(#p6c5fb1c7cb)" d="M 236.693709 254.6371 
L 236.693709 255.062269 
L 237.898647 255.107391 
L 239.103585 255.161025 
L 240.308524 255.225161 
L 241.513462 255.3015 
L 242.7184 255.390911 
L 243.923338 255.492953 
L 245.128277 255.605638 
L 246.333215 255.725554 
L 247.538153 255.848385 
L 248.743092 255.969749 
L 249.94803 256.086166 
L 251.152968 256.195903 
L 252.357906 256.299475 
L 253.562845 256.39967 
L 254.767783 256.501088 
L 255.972721 256.609305 
L 257.17766 256.729891 
L 258.382598 256.867482 
L 259.587536 257.025115 
L 260.792475 257.203928 
L 261.997413 257.403227 
L 263.202351 257.620881 
L 264.407289 257.853894 
L 265.612228 258.099045 
L 266.817166 258.353416 
L 268.022104 258.614713 
L 269.227043 258.881281 
L 270.431981 259.151805 
L 271.636919 259.424767 
L 272.841857 259.697812 
L 274.046796 259.9672 
L 275.251734 260.227549 
L 276.456672 260.47198 
L 277.661611 260.692685 
L 278.866549 260.881823 
L 280.071487 261.032517 
L 281.276426 261.139748 
L 282.481364 261.200919 
L 283.686302 261.216 
L 284.89124 261.187273 
L 286.096179 261.118828 
L 287.301117 261.015979 
L 288.506055 260.884786 
L 289.710994 260.731748 
L 290.915932 260.563636 
L 292.12087 260.387376 
L 293.325809 260.209825 
L 294.530747 260.037385 
L 295.735685 259.875432 
L 296.940623 259.727666 
L 298.145562 259.595525 
L 299.3505 259.477816 
L 300.555438 259.370676 
L 301.760377 259.267945 
L 302.965315 259.161906 
L 304.170253 259.044342 
L 305.375191 258.907739 
L 306.58013 258.746481 
L 307.785068 258.557803 
L 308.990006 258.342354 
L 310.194945 258.104226 
L 311.399883 257.85042 
L 312.604821 257.589846 
L 313.80976 257.332025 
L 315.014698 257.08574 
L 316.219636 256.857888 
L 317.424574 256.652744 
L 318.629513 256.47174 
L 319.834451 256.313771 
L 321.039389 256.175911 
L 322.244328 256.054338 
L 323.449266 255.945245 
L 324.654204 255.845533 
L 325.859142 255.753151 
L 327.064081 255.66709 
L 328.269019 255.587099 
L 329.473957 255.513284 
L 330.678896 255.445751 
L 331.883834 255.384397 
L 333.088772 255.328886 
L 334.293711 255.278752 
L 335.498649 255.233555 
L 336.703587 255.19299 
L 337.908525 255.156899 
L 339.113464 255.125194 
L 340.318402 255.097727 
L 341.52334 255.074185 
L 342.728279 255.054046 
L 343.933217 255.036633 
L 345.138155 255.021231 
L 346.343094 255.00722 
L 347.548032 254.99418 
L 348.75297 254.981916 
L 349.957908 254.970405 
L 351.162847 254.959699 
L 352.367785 254.949812 
L 353.572723 254.940656 
L 354.777662 254.932032 
L 355.9826 254.923685 
L 355.9826 254.775683 
L 355.9826 254.775683 
L 354.777662 254.767336 
L 353.572723 254.758713 
L 352.367785 254.749557 
L 351.162847 254.73967 
L 349.957908 254.728963 
L 348.75297 254.717453 
L 347.548032 254.705188 
L 346.343094 254.692148 
L 345.138155 254.678137 
L 343.933217 254.662735 
L 342.728279 254.645323 
L 341.52334 254.625184 
L 340.318402 254.601642 
L 339.113464 254.574175 
L 337.908525 254.54247 
L 336.703587 254.506379 
L 335.498649 254.465814 
L 334.293711 254.420617 
L 333.088772 254.370483 
L 331.883834 254.314971 
L 330.678896 254.253618 
L 329.473957 254.186084 
L 328.269019 254.112269 
L 327.064081 254.032278 
L 325.859142 253.946218 
L 324.654204 253.853836 
L 323.449266 253.754123 
L 322.244328 253.645031 
L 321.039389 253.523458 
L 319.834451 253.385598 
L 318.629513 253.227629 
L 317.424574 253.046624 
L 316.219636 252.84148 
L 315.014698 252.613629 
L 313.80976 252.367343 
L 312.604821 252.109523 
L 311.399883 251.848949 
L 310.194945 251.595142 
L 308.990006 251.357014 
L 307.785068 251.141566 
L 306.58013 250.952888 
L 305.375191 250.791629 
L 304.170253 250.655027 
L 302.965315 250.537462 
L 301.760377 250.431424 
L 300.555438 250.328692 
L 299.3505 250.221553 
L 298.145562 250.103843 
L 296.940623 249.971703 
L 295.735685 249.823937 
L 294.530747 249.661983 
L 293.325809 249.489543 
L 292.12087 249.311992 
L 290.915932 249.135732 
L 289.710994 248.96762 
L 288.506055 248.814582 
L 287.301117 248.68339 
L 286.096179 248.580541 
L 284.89124 248.512095 
L 283.686302 248.483368 
L 282.481364 248.498449 
L 281.276426 248.559621 
L 280.071487 248.666852 
L 278.866549 248.817546 
L 277.661611 249.006683 
L 276.456672 249.227389 
L 275.251734 249.471819 
L 274.046796 249.732168 
L 272.841857 250.001557 
L 271.636919 250.274602 
L 270.431981 250.547564 
L 269.227043 250.818087 
L 268.022104 251.084655 
L 266.817166 251.345953 
L 265.612228 251.600324 
L 264.407289 251.845474 
L 263.202351 252.078488 
L 261.997413 252.296141 
L 260.792475 252.495441 
L 259.587536 252.674253 
L 258.382598 252.831887 
L 257.17766 252.969477 
L 255.972721 253.090063 
L 254.767783 253.198281 
L 253.562845 253.299698 
L 252.357906 253.399894 
L 251.152968 253.503465 
L 249.94803 253.613202 
L 248.743092 253.729619 
L 247.538153 253.850983 
L 246.333215 253.973814 
L 245.128277 254.09373 
L 243.923338 254.206416 
L 242.7184 254.308458 
L 241.513462 254.397868 
L 240.308524 254.474208 
L 239.103585 254.538344 
L 237.898647 254.591977 
L 236.693709 254.6371 
z
" style="fill:#1f77b4;fill-opacity:0.3;"/>
   </g>
   <g id="PolyCollection_2">
    <path clip-path="url(#p6c5fb1c7cb)" d="M 149.56272 229.097172 
L 149.56272 229.671671 
L 151.767261 229.717632 
L 153.971802 229.766734 
L 156.176343 229.818822 
L 158.380884 229.873666 
L 160.585425 229.930912 
L 162.789966 229.990044 
L 164.994507 230.0504 
L 167.199048 230.111219 
L 169.403589 230.171732 
L 171.60813 230.231276 
L 173.812671 230.289395 
L 176.017212 230.34593 
L 178.221753 230.401067 
L 180.426294 230.45536 
L 182.630834 230.509732 
L 184.835375 230.565483 
L 187.039916 230.624304 
L 189.244457 230.688298 
L 191.448998 230.759988 
L 193.653539 230.842262 
L 195.85808 230.938248 
L 198.062621 231.051074 
L 200.267162 231.183527 
L 202.471703 231.337645 
L 204.676244 231.514294 
L 206.880785 231.712802 
L 209.085326 231.930715 
L 211.289867 232.163745 
L 213.494407 232.405923 
L 215.698948 232.649989 
L 217.903489 232.887983 
L 220.10803 233.112009 
L 222.312571 233.315087 
L 224.517112 233.492016 
L 226.721653 233.640114 
L 228.926194 233.759729 
L 231.130735 233.854407 
L 233.335276 233.930636 
L 235.539817 233.997164 
L 237.744358 234.063934 
L 239.948899 234.140769 
L 242.15344 234.235992 
L 244.357981 234.355181 
L 246.562521 234.500244 
L 248.767062 234.668986 
L 250.971603 234.855219 
L 253.176144 235.049425 
L 255.380685 235.239875 
L 257.585226 235.41406 
L 259.789767 235.560206 
L 261.994308 235.668678 
L 264.198849 235.733057 
L 266.40339 235.750737 
L 268.607931 235.722961 
L 270.812472 235.654324 
L 273.017013 235.551829 
L 275.221554 235.423684 
L 277.426095 235.278054 
L 279.630635 235.121977 
L 281.835176 234.960611 
L 284.039717 234.796898 
L 286.244258 234.631656 
L 288.448799 234.464009 
L 290.65334 234.292024 
L 292.857881 234.113401 
L 295.062422 233.926094 
L 297.266963 233.728747 
L 299.471504 233.520934 
L 301.676045 233.303209 
L 303.880586 233.077014 
L 306.085127 232.844503 
L 308.289668 232.608354 
L 310.494208 232.371585 
L 312.698749 232.137405 
L 314.90329 231.909089 
L 317.107831 231.689867 
L 319.312372 231.482809 
L 321.516913 231.290689 
L 323.721454 231.115829 
L 325.925995 230.959935 
L 328.130536 230.823932 
L 330.335077 230.707845 
L 332.539618 230.610737 
L 334.744159 230.530734 
L 336.9487 230.465156 
L 339.153241 230.410737 
L 341.357782 230.363914 
L 343.562322 230.321157 
L 345.766863 230.27927 
L 347.971404 230.235659 
L 350.175945 230.188497 
L 352.380486 230.136804 
L 354.585027 230.080422 
L 356.789568 230.019912 
L 358.994109 229.956395 
L 361.19865 229.891362 
L 363.403191 229.826478 
L 365.607732 229.763404 
L 367.812273 229.703648 
L 367.812273 229.065194 
L 367.812273 229.065194 
L 365.607732 229.005438 
L 363.403191 228.942364 
L 361.19865 228.87748 
L 358.994109 228.812447 
L 356.789568 228.748931 
L 354.585027 228.68842 
L 352.380486 228.632038 
L 350.175945 228.580345 
L 347.971404 228.533183 
L 345.766863 228.489572 
L 343.562322 228.447685 
L 341.357782 228.404928 
L 339.153241 228.358106 
L 336.9487 228.303686 
L 334.744159 228.238108 
L 332.539618 228.158105 
L 330.335077 228.060997 
L 328.130536 227.94491 
L 325.925995 227.808908 
L 323.721454 227.653013 
L 321.516913 227.478153 
L 319.312372 227.286033 
L 317.107831 227.078975 
L 314.90329 226.859754 
L 312.698749 226.631437 
L 310.494208 226.397257 
L 308.289668 226.160488 
L 306.085127 225.924339 
L 303.880586 225.691828 
L 301.676045 225.465633 
L 299.471504 225.247908 
L 297.266963 225.040095 
L 295.062422 224.842748 
L 292.857881 224.655441 
L 290.65334 224.476818 
L 288.448799 224.304833 
L 286.244258 224.137186 
L 284.039717 223.971944 
L 281.835176 223.808231 
L 279.630635 223.646865 
L 277.426095 223.490788 
L 275.221554 223.345158 
L 273.017013 223.217013 
L 270.812472 223.114518 
L 268.607931 223.045881 
L 266.40339 223.018105 
L 264.198849 223.035785 
L 261.994308 223.100164 
L 259.789767 223.208636 
L 257.585226 223.354782 
L 255.380685 223.528967 
L 253.176144 223.719417 
L 250.971603 223.913623 
L 248.767062 224.099856 
L 246.562521 224.268598 
L 244.357981 224.413661 
L 242.15344 224.53285 
L 239.948899 224.628074 
L 237.744358 224.704908 
L 235.539817 224.771678 
L 233.335276 224.838206 
L 231.130735 224.914435 
L 228.926194 225.009113 
L 226.721653 225.128728 
L 224.517112 225.276826 
L 222.312571 225.453755 
L 220.10803 225.656833 
L 217.903489 225.880859 
L 215.698948 226.118853 
L 213.494407 226.362919 
L 211.289867 226.605097 
L 209.085326 226.838127 
L 206.880785 227.056041 
L 204.676244 227.254548 
L 202.471703 227.431197 
L 200.267162 227.585315 
L 198.062621 227.717768 
L 195.85808 227.830594 
L 193.653539 227.92658 
L 191.448998 228.008854 
L 189.244457 228.080544 
L 187.039916 228.144539 
L 184.835375 228.203359 
L 182.630834 228.25911 
L 180.426294 228.313482 
L 178.221753 228.367775 
L 176.017212 228.422912 
L 173.812671 228.479447 
L 171.60813 228.537566 
L 169.403589 228.59711 
L 167.199048 228.657624 
L 164.994507 228.718442 
L 162.789966 228.778798 
L 160.585425 228.83793 
L 158.380884 228.895176 
L 156.176343 228.95002 
L 153.971802 229.002108 
L 151.767261 229.05121 
L 149.56272 229.097172 
z
" style="fill:#1f77b4;fill-opacity:0.3;"/>
   </g>
   <g id="PolyCollection_3">
    <path clip-path="url(#p6c5fb1c7cb)" d="M 204.415764 203.805241 
L 204.415764 204.033075 
L 205.484224 204.051255 
L 206.552684 204.072568 
L 207.621144 204.098312 
L 208.689605 204.129954 
L 209.758065 204.168944 
L 210.826525 204.21648 
L 211.894985 204.273277 
L 212.963445 204.33941 
L 214.031905 204.414265 
L 215.100366 204.496643 
L 216.168826 204.584995 
L 217.237286 204.677763 
L 218.305746 204.773736 
L 219.374206 204.872343 
L 220.442667 204.973814 
L 221.511127 205.079185 
L 222.579587 205.190159 
L 223.648047 205.308877 
L 224.716507 205.437664 
L 225.784967 205.578802 
L 226.853428 205.734344 
L 227.921888 205.905963 
L 228.990348 206.094814 
L 230.058808 206.301384 
L 231.127268 206.525365 
L 232.195729 206.765561 
L 233.264189 207.019895 
L 234.332649 207.285517 
L 235.401109 207.559018 
L 236.469569 207.836686 
L 237.538029 208.114724 
L 238.60649 208.389395 
L 239.67495 208.657064 
L 240.74341 208.914162 
L 241.81187 209.157158 
L 242.88033 209.382576 
L 243.948791 209.587119 
L 245.017251 209.767873 
L 246.085711 209.92254 
L 247.154171 210.049651 
L 248.222631 210.14868 
L 249.291091 210.220045 
L 250.359552 210.265004 
L 251.428012 210.285474 
L 252.496472 210.2838 
L 253.564932 210.26251 
L 254.633392 210.22405 
L 255.701852 210.17052 
L 256.770313 210.103436 
L 257.838773 210.023564 
L 258.907233 209.930905 
L 259.975693 209.824888 
L 261.044153 209.704806 
L 262.112614 209.570433 
L 263.181074 209.42272 
L 264.249534 209.264349 
L 265.317994 209.099983 
L 266.386454 208.936046 
L 267.454914 208.780005 
L 268.523375 208.639262 
L 269.591835 208.519862 
L 270.660295 208.42529 
L 271.728755 208.35565 
L 272.797215 208.307383 
L 273.865676 208.273602 
L 274.934136 208.244961 
L 276.002596 208.210889 
L 277.071056 208.160948 
L 278.139516 208.086104 
L 279.207976 207.979734 
L 280.276437 207.838261 
L 281.344897 207.66139 
L 282.413357 207.451982 
L 283.481817 207.215615 
L 284.550277 206.959911 
L 285.618738 206.693724 
L 286.687198 206.426252 
L 287.755658 206.166176 
L 288.824118 205.920894 
L 289.892578 205.695932 
L 290.961038 205.494612 
L 292.029499 205.317996 
L 293.097959 205.165113 
L 294.166419 205.033424 
L 295.234879 204.919431 
L 296.303339 204.819326 
L 297.3718 204.729573 
L 298.44026 204.647321 
L 299.50872 204.570621 
L 300.57718 204.49843 
L 301.64564 204.43046 
L 302.7141 204.366922 
L 303.782561 204.308247 
L 304.851021 204.254847 
L 305.919481 204.206947 
L 306.987941 204.164514 
L 308.056401 204.127268 
L 309.124861 204.094739 
L 310.193322 204.066371 
L 310.193322 203.771945 
L 310.193322 203.771945 
L 309.124861 203.743577 
L 308.056401 203.711048 
L 306.987941 203.673801 
L 305.919481 203.631369 
L 304.851021 203.583469 
L 303.782561 203.530068 
L 302.7141 203.471394 
L 301.64564 203.407856 
L 300.57718 203.339886 
L 299.50872 203.267695 
L 298.44026 203.190994 
L 297.3718 203.108742 
L 296.303339 203.018989 
L 295.234879 202.918885 
L 294.166419 202.804891 
L 293.097959 202.673202 
L 292.029499 202.52032 
L 290.961038 202.343704 
L 289.892578 202.142384 
L 288.824118 201.917422 
L 287.755658 201.672139 
L 286.687198 201.412064 
L 285.618738 201.144592 
L 284.550277 200.878405 
L 283.481817 200.622701 
L 282.413357 200.386333 
L 281.344897 200.176926 
L 280.276437 200.000055 
L 279.207976 199.858581 
L 278.139516 199.752212 
L 277.071056 199.677368 
L 276.002596 199.627427 
L 274.934136 199.593355 
L 273.865676 199.564714 
L 272.797215 199.530933 
L 271.728755 199.482666 
L 270.660295 199.413026 
L 269.591835 199.318454 
L 268.523375 199.199053 
L 267.454914 199.058311 
L 266.386454 198.90227 
L 265.317994 198.738332 
L 264.249534 198.573966 
L 263.181074 198.415596 
L 262.112614 198.267882 
L 261.044153 198.13351 
L 259.975693 198.013427 
L 258.907233 197.907411 
L 257.838773 197.814752 
L 256.770313 197.73488 
L 255.701852 197.667796 
L 254.633392 197.614266 
L 253.564932 197.575806 
L 252.496472 197.554516 
L 251.428012 197.552842 
L 250.359552 197.573312 
L 249.291091 197.618271 
L 248.222631 197.689636 
L 247.154171 197.788664 
L 246.085711 197.915776 
L 245.017251 198.070443 
L 243.948791 198.251197 
L 242.88033 198.45574 
L 241.81187 198.681158 
L 240.74341 198.924153 
L 239.67495 199.181252 
L 238.60649 199.44892 
L 237.538029 199.723592 
L 236.469569 200.00163 
L 235.401109 200.279297 
L 234.332649 200.552799 
L 233.264189 200.818421 
L 232.195729 201.072754 
L 231.127268 201.312951 
L 230.058808 201.536932 
L 228.990348 201.743502 
L 227.921888 201.932353 
L 226.853428 202.103972 
L 225.784967 202.259514 
L 224.716507 202.400652 
L 223.648047 202.529439 
L 222.579587 202.648157 
L 221.511127 202.759131 
L 220.442667 202.864502 
L 219.374206 202.965973 
L 218.305746 203.064579 
L 217.237286 203.160553 
L 216.168826 203.253321 
L 215.100366 203.341673 
L 214.031905 203.42405 
L 212.963445 203.498906 
L 211.894985 203.565039 
L 210.826525 203.621836 
L 209.758065 203.669371 
L 208.689605 203.708362 
L 207.621144 203.740004 
L 206.552684 203.765747 
L 205.484224 203.787061 
L 204.415764 203.805241 
z
" style="fill:#1f77b4;fill-opacity:0.3;"/>
   </g>
   <g id="PolyCollection_4">
    <path clip-path="url(#p6c5fb1c7cb)" d="M 257.89666 178.027222 
L 257.89666 178.880568 
L 258.361168 178.957102 
L 258.825676 179.03754 
L 259.290184 179.120421 
L 259.754692 179.204335 
L 260.2192 179.288191 
L 260.683708 179.371517 
L 261.148216 179.454743 
L 261.612724 179.539374 
L 262.077232 179.627969 
L 262.54174 179.723889 
L 263.006248 179.830826 
L 263.470756 179.952205 
L 263.935264 180.090581 
L 264.399773 180.247181 
L 264.864281 180.421684 
L 265.328789 180.6123 
L 265.793297 180.816103 
L 266.257805 181.029533 
L 266.722313 181.248942 
L 267.186821 181.47106 
L 267.651329 181.693291 
L 268.115837 181.913802 
L 268.580345 182.13142 
L 269.044853 182.345373 
L 269.509361 182.554984 
L 269.973869 182.75939 
L 270.438377 182.957364 
L 270.902886 183.147283 
L 271.367394 183.32725 
L 271.831902 183.495335 
L 272.29641 183.64987 
L 272.760918 183.789754 
L 273.225426 183.914667 
L 273.689934 184.02519 
L 274.154442 184.12276 
L 274.61895 184.209496 
L 275.083458 184.287901 
L 275.547966 184.360498 
L 276.012474 184.429459 
L 276.476982 184.49628 
L 276.94149 184.561549 
L 277.405999 184.624807 
L 277.870507 184.684497 
L 278.335015 184.737971 
L 278.799523 184.781557 
L 279.264031 184.810696 
L 279.728539 184.820211 
L 280.193047 184.804725 
L 280.657555 184.759281 
L 281.122063 184.680089 
L 281.586571 184.565287 
L 282.051079 184.415567 
L 282.515587 184.234444 
L 282.980095 184.028075 
L 283.444603 183.80457 
L 283.909112 183.572882 
L 284.37362 183.341493 
L 284.838128 183.117134 
L 285.302636 182.903835 
L 285.767144 182.70247 
L 286.231652 182.510924 
L 286.69616 182.324781 
L 287.160668 182.138424 
L 287.625176 181.946259 
L 288.089684 181.743861 
L 288.554192 181.528805 
L 289.0187 181.301073 
L 289.483208 181.063022 
L 289.947717 180.818948 
L 290.412225 180.574396 
L 290.876733 180.335358 
L 291.341241 180.107503 
L 291.805749 179.895563 
L 292.270257 179.702933 
L 292.734765 179.531535 
L 293.199273 179.381884 
L 293.663781 179.253336 
L 294.128289 179.14442 
L 294.592797 179.053184 
L 295.057305 178.977487 
L 295.521813 178.915201 
L 295.986321 178.864319 
L 296.45083 178.822983 
L 296.915338 178.789467 
L 297.379846 178.762163 
L 297.844354 178.739576 
L 298.308862 178.720357 
L 298.77337 178.70335 
L 299.237878 178.687642 
L 299.702386 178.672593 
L 300.166894 178.657838 
L 300.631402 178.643243 
L 301.09591 178.628838 
L 301.560418 178.61473 
L 302.024926 178.60103 
L 302.489434 178.587798 
L 302.953943 178.575021 
L 303.418451 178.562629 
L 303.882959 178.550538 
L 303.882959 178.357252 
L 303.882959 178.357252 
L 303.418451 178.345161 
L 302.953943 178.332769 
L 302.489434 178.319991 
L 302.024926 178.306759 
L 301.560418 178.29306 
L 301.09591 178.278952 
L 300.631402 178.264546 
L 300.166894 178.249951 
L 299.702386 178.235196 
L 299.237878 178.220148 
L 298.77337 178.204439 
L 298.308862 178.187432 
L 297.844354 178.168214 
L 297.379846 178.145627 
L 296.915338 178.118322 
L 296.45083 178.084807 
L 295.986321 178.04347 
L 295.521813 177.992588 
L 295.057305 177.930303 
L 294.592797 177.854605 
L 294.128289 177.76337 
L 293.663781 177.654454 
L 293.199273 177.525906 
L 292.734765 177.376254 
L 292.270257 177.204856 
L 291.805749 177.012227 
L 291.341241 176.800286 
L 290.876733 176.572432 
L 290.412225 176.333394 
L 289.947717 176.088842 
L 289.483208 175.844767 
L 289.0187 175.606716 
L 288.554192 175.378985 
L 288.089684 175.163928 
L 287.625176 174.96153 
L 287.160668 174.769366 
L 286.69616 174.583008 
L 286.231652 174.396866 
L 285.767144 174.205319 
L 285.302636 174.003955 
L 284.838128 173.790655 
L 284.37362 173.566297 
L 283.909112 173.334907 
L 283.444603 173.10322 
L 282.980095 172.879714 
L 282.515587 172.673346 
L 282.051079 172.492222 
L 281.586571 172.342502 
L 281.122063 172.227701 
L 280.657555 172.148508 
L 280.193047 172.103065 
L 279.728539 172.087579 
L 279.264031 172.097093 
L 278.799523 172.126233 
L 278.335015 172.169818 
L 277.870507 172.223292 
L 277.405999 172.282982 
L 276.94149 172.346241 
L 276.476982 172.41151 
L 276.012474 172.478331 
L 275.547966 172.547291 
L 275.083458 172.619888 
L 274.61895 172.698293 
L 274.154442 172.785029 
L 273.689934 172.882599 
L 273.225426 172.993122 
L 272.760918 173.118036 
L 272.29641 173.257919 
L 271.831902 173.412455 
L 271.367394 173.580539 
L 270.902886 173.760507 
L 270.438377 173.950426 
L 269.973869 174.148399 
L 269.509361 174.352805 
L 269.044853 174.562416 
L 268.580345 174.776369 
L 268.115837 174.993987 
L 267.651329 175.214499 
L 267.186821 175.436729 
L 266.722313 175.658847 
L 266.257805 175.878256 
L 265.793297 176.091686 
L 265.328789 176.295489 
L 264.864281 176.486105 
L 264.399773 176.660608 
L 263.935264 176.817208 
L 263.470756 176.955585 
L 263.006248 177.076963 
L 262.54174 177.1839 
L 262.077232 177.27982 
L 261.612724 177.368415 
L 261.148216 177.453047 
L 260.683708 177.536273 
L 260.2192 177.619598 
L 259.754692 177.703454 
L 259.290184 177.787369 
L 258.825676 177.870249 
L 258.361168 177.950687 
L 257.89666 178.027222 
z
" style="fill:#1f77b4;fill-opacity:0.3;"/>
   </g>
   <g id="PolyCollection_5">
    <path clip-path="url(#p6c5fb1c7cb)" d="M 205.066028 152.936227 
L 205.066028 153.041036 
L 205.937492 153.041073 
L 206.808956 153.040009 
L 207.680421 153.038498 
L 208.551885 153.03747 
L 209.423349 153.038073 
L 210.294814 153.041607 
L 211.166278 153.049434 
L 212.037742 153.062885 
L 212.909206 153.083166 
L 213.780671 153.111255 
L 214.652135 153.147812 
L 215.523599 153.193116 
L 216.395063 153.247031 
L 217.266528 153.309046 
L 218.137992 153.378368 
L 219.009456 153.454086 
L 219.880921 153.535365 
L 220.752385 153.621634 
L 221.623849 153.712734 
L 222.495313 153.808961 
L 223.366778 153.911017 
L 224.238242 154.019857 
L 225.109706 154.136483 
L 225.981171 154.261734 
L 226.852635 154.396135 
L 227.724099 154.539823 
L 228.595563 154.692569 
L 229.467028 154.853851 
L 230.338492 155.022932 
L 231.209956 155.198893 
L 232.081421 155.380601 
L 232.952885 155.566623 
L 233.824349 155.755157 
L 234.695813 155.944046 
L 235.567278 156.13094 
L 236.438742 156.313622 
L 237.310206 156.490455 
L 238.18167 156.660846 
L 239.053135 156.825589 
L 239.924599 156.986969 
L 240.796063 157.148542 
L 241.667528 157.314602 
L 242.538992 157.489393 
L 243.410456 157.67621 
L 244.28192 157.876542 
L 245.153385 158.089394 
L 246.024849 158.310913 
L 246.896313 158.534387 
L 247.767778 158.750655 
L 248.639242 158.948904 
L 249.510706 159.117793 
L 250.38217 159.246788 
L 251.253635 159.327519 
L 252.125099 159.354947 
L 252.996563 159.328119 
L 253.868028 159.250343 
L 254.739492 159.128721 
L 255.610956 158.973103 
L 256.48242 158.794666 
L 257.353885 158.604393 
L 258.225349 158.411735 
L 259.096813 158.223697 
L 259.968277 158.044455 
L 260.839742 157.875486 
L 261.711206 157.716096 
L 262.58267 157.564159 
L 263.454135 157.416879 
L 264.325599 157.271429 
L 265.197063 157.12539 
L 266.068527 156.976963 
L 266.939992 156.825003 
L 267.811456 156.668934 
L 268.68292 156.508629 
L 269.554385 156.344321 
L 270.425849 156.176565 
L 271.297313 156.006275 
L 272.168777 155.83477 
L 273.040242 155.663808 
L 273.911706 155.495516 
L 274.78317 155.332223 
L 275.654635 155.176179 
L 276.526099 155.029227 
L 277.397563 154.892515 
L 278.269027 154.766329 
L 279.140492 154.650098 
L 280.011956 154.542578 
L 280.88342 154.442164 
L 281.754885 154.347227 
L 282.626349 154.256389 
L 283.497813 154.168666 
L 284.369277 154.083453 
L 285.240742 154.000391 
L 286.112206 153.91921 
L 286.98367 153.839596 
L 287.855134 153.761171 
L 288.726599 153.683583 
L 289.598063 153.606662 
L 290.469527 153.530586 
L 291.340992 153.455979 
L 291.340992 152.521284 
L 291.340992 152.521284 
L 290.469527 152.446677 
L 289.598063 152.370601 
L 288.726599 152.29368 
L 287.855134 152.216092 
L 286.98367 152.137667 
L 286.112206 152.058053 
L 285.240742 151.976872 
L 284.369277 151.893811 
L 283.497813 151.808597 
L 282.626349 151.720874 
L 281.754885 151.630036 
L 280.88342 151.535099 
L 280.011956 151.434685 
L 279.140492 151.327166 
L 278.269027 151.210934 
L 277.397563 151.084748 
L 276.526099 150.948037 
L 275.654635 150.801084 
L 274.78317 150.64504 
L 273.911706 150.481747 
L 273.040242 150.313456 
L 272.168777 150.142493 
L 271.297313 149.970988 
L 270.425849 149.800698 
L 269.554385 149.632942 
L 268.68292 149.468634 
L 267.811456 149.308329 
L 266.939992 149.15226 
L 266.068527 149.0003 
L 265.197063 148.851874 
L 264.325599 148.705835 
L 263.454135 148.560384 
L 262.58267 148.413104 
L 261.711206 148.261167 
L 260.839742 148.101777 
L 259.968277 147.932808 
L 259.096813 147.753566 
L 258.225349 147.565528 
L 257.353885 147.37287 
L 256.48242 147.182597 
L 255.610956 147.00416 
L 254.739492 146.848542 
L 253.868028 146.72692 
L 252.996563 146.649144 
L 252.125099 146.622316 
L 251.253635 146.649744 
L 250.38217 146.730475 
L 249.510706 146.85947 
L 248.639242 147.028359 
L 247.767778 147.226608 
L 246.896313 147.442876 
L 246.024849 147.666351 
L 245.153385 147.887869 
L 244.28192 148.100721 
L 243.410456 148.301053 
L 242.538992 148.487871 
L 241.667528 148.662661 
L 240.796063 148.828721 
L 239.924599 148.990294 
L 239.053135 149.151674 
L 238.18167 149.316417 
L 237.310206 149.486808 
L 236.438742 149.663641 
L 235.567278 149.846323 
L 234.695813 150.033217 
L 233.824349 150.222107 
L 232.952885 150.410641 
L 232.081421 150.596662 
L 231.209956 150.77837 
L 230.338492 150.954332 
L 229.467028 151.123412 
L 228.595563 151.284694 
L 227.724099 151.43744 
L 226.852635 151.581128 
L 225.981171 151.715529 
L 225.109706 151.84078 
L 224.238242 151.957406 
L 223.366778 152.066246 
L 222.495313 152.168302 
L 221.623849 152.264529 
L 220.752385 152.355629 
L 219.880921 152.441899 
L 219.009456 152.523177 
L 218.137992 152.598895 
L 217.266528 152.668217 
L 216.395063 152.730232 
L 215.523599 152.784147 
L 214.652135 152.829451 
L 213.780671 152.866008 
L 212.909206 152.894097 
L 212.037742 152.914378 
L 211.166278 152.927829 
L 210.294814 152.935656 
L 209.423349 152.93919 
L 208.551885 152.939794 
L 207.680421 152.938765 
L 206.808956 152.937254 
L 205.937492 152.93619 
L 205.066028 152.936227 
z
" style="fill:#1f77b4;fill-opacity:0.3;"/>
   </g>
   <g id="PolyCollection_6">
    <path clip-path="url(#p6c5fb1c7cb)" d="M 208.344158 127.349155 
L 208.344158 127.697582 
L 209.216632 127.726338 
L 210.089107 127.758635 
L 210.961581 127.795851 
L 211.834056 127.839654 
L 212.706531 127.891842 
L 213.579005 127.954213 
L 214.45148 128.028468 
L 215.323954 128.116202 
L 216.196429 128.21895 
L 217.068904 128.338245 
L 217.941378 128.475609 
L 218.813853 128.632428 
L 219.686327 128.809664 
L 220.558802 129.007463 
L 221.431277 129.224739 
L 222.303751 129.458923 
L 223.176226 129.705986 
L 224.0487 129.960859 
L 224.921175 130.218185 
L 225.79365 130.473265 
L 226.666124 130.722919 
L 227.538599 130.966005 
L 228.411073 131.203396 
L 229.283548 131.437394 
L 230.156023 131.670719 
L 231.028497 131.905398 
L 231.900972 132.141857 
L 232.773446 132.378515 
L 233.645921 132.611956 
L 234.518396 132.83757 
L 235.39087 133.050427 
L 236.263345 133.246027 
L 237.135819 133.420714 
L 238.008294 133.571639 
L 238.880769 133.696409 
L 239.753243 133.792667 
L 240.625718 133.857906 
L 241.498192 133.889684 
L 242.370667 133.886239 
L 243.243142 133.847289 
L 244.115616 133.774687 
L 244.988091 133.672619 
L 245.860565 133.547202 
L 246.73304 133.405528 
L 247.605515 133.254423 
L 248.477989 133.099258 
L 249.350464 132.943151 
L 250.222938 132.786736 
L 251.095413 132.628528 
L 251.967888 132.465748 
L 252.840362 132.295394 
L 253.712837 132.115289 
L 254.585311 131.924904 
L 255.457786 131.725767 
L 256.330261 131.521403 
L 257.202735 131.316772 
L 258.07521 131.117307 
L 258.947684 130.927739 
L 259.820159 130.750951 
L 260.692634 130.587176 
L 261.565108 130.433753 
L 262.437583 130.285615 
L 263.310057 130.136427 
L 264.182532 129.980143 
L 265.055007 129.812611 
L 265.927481 129.632772 
L 266.799956 129.443159 
L 267.67243 129.249523 
L 268.544905 129.059702 
L 269.41738 128.882026 
L 270.289854 128.72368 
L 271.162329 128.589408 
L 272.034803 128.480847 
L 272.907278 128.396576 
L 273.779753 128.332762 
L 274.652227 128.284175 
L 275.524702 128.245278 
L 276.397176 128.211119 
L 277.269651 128.177906 
L 278.142125 128.143198 
L 279.0146 128.105825 
L 279.887075 128.065623 
L 280.759549 128.023138 
L 281.632024 127.979348 
L 282.504498 127.935443 
L 283.376973 127.892656 
L 284.249448 127.852118 
L 285.121922 127.814739 
L 285.994397 127.781119 
L 286.866871 127.751516 
L 287.739346 127.725863 
L 288.611821 127.703842 
L 289.484295 127.684971 
L 290.35677 127.668702 
L 291.229244 127.654477 
L 292.101719 127.641772 
L 292.974194 127.630115 
L 293.846668 127.619108 
L 294.719143 127.60845 
L 294.719143 127.438287 
L 294.719143 127.438287 
L 293.846668 127.427629 
L 292.974194 127.416622 
L 292.101719 127.404965 
L 291.229244 127.39226 
L 290.35677 127.378035 
L 289.484295 127.361766 
L 288.611821 127.342895 
L 287.739346 127.320873 
L 286.866871 127.295221 
L 285.994397 127.265618 
L 285.121922 127.231998 
L 284.249448 127.194619 
L 283.376973 127.154081 
L 282.504498 127.111294 
L 281.632024 127.067389 
L 280.759549 127.023599 
L 279.887075 126.981114 
L 279.0146 126.940912 
L 278.142125 126.903539 
L 277.269651 126.868831 
L 276.397176 126.835618 
L 275.524702 126.801459 
L 274.652227 126.762562 
L 273.779753 126.713975 
L 272.907278 126.650161 
L 272.034803 126.56589 
L 271.162329 126.457329 
L 270.289854 126.323056 
L 269.41738 126.16471 
L 268.544905 125.987035 
L 267.67243 125.797214 
L 266.799956 125.603578 
L 265.927481 125.413965 
L 265.055007 125.234126 
L 264.182532 125.066594 
L 263.310057 124.91031 
L 262.437583 124.761122 
L 261.565108 124.612984 
L 260.692634 124.459561 
L 259.820159 124.295785 
L 258.947684 124.118998 
L 258.07521 123.92943 
L 257.202735 123.729965 
L 256.330261 123.525334 
L 255.457786 123.32097 
L 254.585311 123.121833 
L 253.712837 122.931447 
L 252.840362 122.751343 
L 251.967888 122.580989 
L 251.095413 122.418209 
L 250.222938 122.26 
L 249.350464 122.103585 
L 248.477989 121.947479 
L 247.605515 121.792314 
L 246.73304 121.641209 
L 245.860565 121.499535 
L 244.988091 121.374118 
L 244.115616 121.27205 
L 243.243142 121.199447 
L 242.370667 121.160498 
L 241.498192 121.157053 
L 240.625718 121.188831 
L 239.753243 121.25407 
L 238.880769 121.350328 
L 238.008294 121.475097 
L 237.135819 121.626022 
L 236.263345 121.80071 
L 235.39087 121.99631 
L 234.518396 122.209167 
L 233.645921 122.434781 
L 232.773446 122.668222 
L 231.900972 122.90488 
L 231.028497 123.141339 
L 230.156023 123.376017 
L 229.283548 123.609343 
L 228.411073 123.84334 
L 227.538599 124.080732 
L 226.666124 124.323818 
L 225.79365 124.573472 
L 224.921175 124.828552 
L 224.0487 125.085878 
L 223.176226 125.340751 
L 222.303751 125.587814 
L 221.431277 125.821997 
L 220.558802 126.039274 
L 219.686327 126.237072 
L 218.813853 126.414309 
L 217.941378 126.571128 
L 217.068904 126.708492 
L 216.196429 126.827786 
L 215.323954 126.930535 
L 214.45148 127.018269 
L 213.579005 127.092524 
L 212.706531 127.154895 
L 211.834056 127.207083 
L 210.961581 127.250885 
L 210.089107 127.288102 
L 209.216632 127.320399 
L 208.344158 127.349155 
z
" style="fill:#1f77b4;fill-opacity:0.3;"/>
   </g>
   <g id="PolyCollection_7">
    <path clip-path="url(#p6c5fb1c7cb)" d="M 184.274828 101.698911 
L 184.274828 102.4173 
L 185.569828 102.468673 
L 186.864828 102.519707 
L 188.159828 102.569876 
L 189.454827 102.619194 
L 190.749827 102.66824 
L 192.044827 102.718077 
L 193.339827 102.770078 
L 194.634827 102.825701 
L 195.929827 102.886245 
L 197.224827 102.952666 
L 198.519827 103.025459 
L 199.814827 103.104665 
L 201.109826 103.189957 
L 202.404826 103.28082 
L 203.699826 103.376746 
L 204.994826 103.477432 
L 206.289826 103.582914 
L 207.584826 103.693635 
L 208.879826 103.810416 
L 210.174826 103.934351 
L 211.469825 104.066644 
L 212.764825 104.208406 
L 214.059825 104.360474 
L 215.354825 104.523261 
L 216.649825 104.696671 
L 217.944825 104.880098 
L 219.239825 105.072495 
L 220.534825 105.272484 
L 221.829824 105.478477 
L 223.124824 105.688779 
L 224.419824 105.901644 
L 225.714824 106.115279 
L 227.009824 106.32784 
L 228.304824 106.537423 
L 229.599824 106.74211 
L 230.894824 106.940058 
L 232.189823 107.129632 
L 233.484823 107.309532 
L 234.779823 107.478849 
L 236.074823 107.637032 
L 237.369823 107.783723 
L 238.664823 107.918514 
L 239.959823 108.040699 
L 241.254823 108.149102 
L 242.549822 108.24207 
L 243.844822 108.31766 
L 245.139822 108.374003 
L 246.434822 108.40974 
L 247.729822 108.424421 
L 249.024822 108.41874 
L 250.319822 108.394519 
L 251.614822 108.354431 
L 252.909822 108.301516 
L 254.204821 108.238615 
L 255.499821 108.16785 
L 256.794821 108.090287 
L 258.089821 108.005859 
L 259.384821 107.913544 
L 260.679821 107.811749 
L 261.974821 107.698795 
L 263.269821 107.573363 
L 264.56482 107.434819 
L 265.85982 107.283339 
L 267.15482 107.119841 
L 268.44982 106.945767 
L 269.74482 106.76279 
L 271.03982 106.572544 
L 272.33482 106.376419 
L 273.62982 106.175492 
L 274.924819 105.970562 
L 276.219819 105.762278 
L 277.514819 105.551314 
L 278.809819 105.338539 
L 280.104819 105.125143 
L 281.399819 104.912702 
L 282.694819 104.703169 
L 283.989819 104.498782 
L 285.284818 104.301927 
L 286.579818 104.114935 
L 287.874818 103.939878 
L 289.169818 103.778356 
L 290.464818 103.631326 
L 291.759818 103.498999 
L 293.054818 103.380812 
L 294.349818 103.2755 
L 295.644818 103.181249 
L 296.939817 103.095913 
L 298.234817 103.01726 
L 299.529817 102.943216 
L 300.824817 102.872067 
L 302.119817 102.802589 
L 303.414817 102.734109 
L 304.709817 102.666485 
L 306.004817 102.600018 
L 307.299816 102.535327 
L 308.594816 102.473208 
L 309.889816 102.414492 
L 311.184816 102.359935 
L 312.479816 102.310133 
L 312.479816 101.806078 
L 312.479816 101.806078 
L 311.184816 101.756276 
L 309.889816 101.701718 
L 308.594816 101.643003 
L 307.299816 101.580883 
L 306.004817 101.516193 
L 304.709817 101.449725 
L 303.414817 101.382101 
L 302.119817 101.313622 
L 300.824817 101.244144 
L 299.529817 101.172994 
L 298.234817 101.098951 
L 296.939817 101.020298 
L 295.644818 100.934961 
L 294.349818 100.84071 
L 293.054818 100.735399 
L 291.759818 100.617212 
L 290.464818 100.484885 
L 289.169818 100.337855 
L 287.874818 100.176332 
L 286.579818 100.001276 
L 285.284818 99.814284 
L 283.989819 99.617428 
L 282.694819 99.413042 
L 281.399819 99.203508 
L 280.104819 98.991068 
L 278.809819 98.777672 
L 277.514819 98.564897 
L 276.219819 98.353933 
L 274.924819 98.145649 
L 273.62982 97.940718 
L 272.33482 97.739791 
L 271.03982 97.543667 
L 269.74482 97.35342 
L 268.44982 97.170444 
L 267.15482 96.996369 
L 265.85982 96.832871 
L 264.56482 96.681391 
L 263.269821 96.542847 
L 261.974821 96.417416 
L 260.679821 96.304461 
L 259.384821 96.202667 
L 258.089821 96.110351 
L 256.794821 96.025923 
L 255.499821 95.948361 
L 254.204821 95.877595 
L 252.909822 95.814694 
L 251.614822 95.76178 
L 250.319822 95.721691 
L 249.024822 95.69747 
L 247.729822 95.691789 
L 246.434822 95.706471 
L 245.139822 95.742208 
L 243.844822 95.798551 
L 242.549822 95.874141 
L 241.254823 95.967108 
L 239.959823 96.075511 
L 238.664823 96.197696 
L 237.369823 96.332488 
L 236.074823 96.479178 
L 234.779823 96.637361 
L 233.484823 96.806679 
L 232.189823 96.986578 
L 230.894824 97.176153 
L 229.599824 97.3741 
L 228.304824 97.578787 
L 227.009824 97.788371 
L 225.714824 98.000931 
L 224.419824 98.214567 
L 223.124824 98.427431 
L 221.829824 98.637734 
L 220.534825 98.843727 
L 219.239825 99.043715 
L 217.944825 99.236112 
L 216.649825 99.41954 
L 215.354825 99.592949 
L 214.059825 99.755736 
L 212.764825 99.907805 
L 211.469825 100.049567 
L 210.174826 100.181859 
L 208.879826 100.305795 
L 207.584826 100.422576 
L 206.289826 100.533297 
L 204.994826 100.638779 
L 203.699826 100.739464 
L 202.404826 100.835391 
L 201.109826 100.926253 
L 199.814827 101.011546 
L 198.519827 101.090751 
L 197.224827 101.163545 
L 195.929827 101.229965 
L 194.634827 101.29051 
L 193.339827 101.346132 
L 192.044827 101.398134 
L 190.749827 101.447971 
L 189.454827 101.497017 
L 188.159828 101.546335 
L 186.864828 101.596503 
L 185.569828 101.647537 
L 184.274828 101.698911 
z
" style="fill:#1f77b4;fill-opacity:0.3;"/>
   </g>
   <g id="PolyCollection_8">
    <path clip-path="url(#p6c5fb1c7cb)" d="M 166.227172 76.496603 
L 166.227172 76.689082 
L 167.261187 76.698169 
L 168.295202 76.706027 
L 169.329217 76.713185 
L 170.363232 76.720674 
L 171.397247 76.730004 
L 172.431262 76.743104 
L 173.465277 76.762207 
L 174.499292 76.789713 
L 175.533306 76.828035 
L 176.567321 76.87944 
L 177.601336 76.945875 
L 178.635351 77.028801 
L 179.669366 77.129029 
L 180.703381 77.246588 
L 181.737396 77.380663 
L 182.771411 77.529624 
L 183.805426 77.691193 
L 184.839441 77.862719 
L 185.873456 78.041556 
L 186.907471 78.225443 
L 187.941486 78.412832 
L 188.9755 78.603053 
L 190.009515 78.796311 
L 191.04353 78.993499 
L 192.077545 79.1959 
L 193.11156 79.404866 
L 194.145575 79.621567 
L 195.17959 79.846847 
L 196.213605 80.081174 
L 197.24762 80.324606 
L 198.281635 80.576679 
L 199.31565 80.836146 
L 200.349665 81.100593 
L 201.38368 81.366068 
L 202.417694 81.626909 
L 203.451709 81.875997 
L 204.485724 82.105528 
L 205.519739 82.30824 
L 206.553754 82.478828 
L 207.587769 82.615128 
L 208.621784 82.718671 
L 209.655799 82.794304 
L 210.689814 82.848906 
L 211.723829 82.889454 
L 212.757844 82.920992 
L 213.791859 82.945071 
L 214.825874 82.959158 
L 215.859888 82.957198 
L 216.893903 82.931192 
L 217.927918 82.873359 
L 218.961933 82.778269 
L 219.995948 82.644385 
L 221.029963 82.474626 
L 222.063978 82.275858 
L 223.097993 82.057532 
L 224.132008 81.829888 
L 225.166023 81.602193 
L 226.200038 81.381449 
L 227.234053 81.171764 
L 228.268068 80.974403 
L 229.302082 80.788342 
L 230.336097 80.611078 
L 231.370112 80.439445 
L 232.404127 80.270274 
L 233.438142 80.10083 
L 234.472157 79.929026 
L 235.506172 79.753474 
L 236.540187 79.573425 
L 237.574202 79.388659 
L 238.608217 79.199376 
L 239.642232 79.006121 
L 240.676247 78.809777 
L 241.710262 78.611633 
L 242.744276 78.413485 
L 243.778291 78.217729 
L 244.812306 78.02736 
L 245.846321 77.845826 
L 246.880336 77.676722 
L 247.914351 77.523372 
L 248.948366 77.388378 
L 249.982381 77.273257 
L 251.016396 77.178245 
L 252.050411 77.10232 
L 253.084426 77.043421 
L 254.118441 76.998793 
L 255.152455 76.965375 
L 256.18647 76.940149 
L 257.220485 76.920405 
L 258.2545 76.903908 
L 259.288515 76.888969 
L 260.32253 76.874448 
L 261.356545 76.859689 
L 262.39056 76.844405 
L 263.424575 76.828539 
L 264.45859 76.812118 
L 265.492605 76.795156 
L 266.52662 76.777614 
L 267.560635 76.759436 
L 268.594649 76.74063 
L 268.594649 76.445054 
L 268.594649 76.445054 
L 267.560635 76.426248 
L 266.52662 76.40807 
L 265.492605 76.390528 
L 264.45859 76.373566 
L 263.424575 76.357146 
L 262.39056 76.341279 
L 261.356545 76.325996 
L 260.32253 76.311236 
L 259.288515 76.296715 
L 258.2545 76.281776 
L 257.220485 76.265279 
L 256.18647 76.245535 
L 255.152455 76.220309 
L 254.118441 76.186891 
L 253.084426 76.142263 
L 252.050411 76.083364 
L 251.016396 76.00744 
L 249.982381 75.912428 
L 248.948366 75.797306 
L 247.914351 75.662312 
L 246.880336 75.508962 
L 245.846321 75.339858 
L 244.812306 75.158324 
L 243.778291 74.967955 
L 242.744276 74.7722 
L 241.710262 74.574051 
L 240.676247 74.375907 
L 239.642232 74.179563 
L 238.608217 73.986308 
L 237.574202 73.797025 
L 236.540187 73.61226 
L 235.506172 73.43221 
L 234.472157 73.256658 
L 233.438142 73.084854 
L 232.404127 72.91541 
L 231.370112 72.74624 
L 230.336097 72.574607 
L 229.302082 72.397342 
L 228.268068 72.211281 
L 227.234053 72.01392 
L 226.200038 71.804235 
L 225.166023 71.583492 
L 224.132008 71.355796 
L 223.097993 71.128152 
L 222.063978 70.909827 
L 221.029963 70.711058 
L 219.995948 70.541299 
L 218.961933 70.407415 
L 217.927918 70.312325 
L 216.893903 70.254492 
L 215.859888 70.228486 
L 214.825874 70.226526 
L 213.791859 70.240614 
L 212.757844 70.264693 
L 211.723829 70.29623 
L 210.689814 70.336778 
L 209.655799 70.39138 
L 208.621784 70.467014 
L 207.587769 70.570556 
L 206.553754 70.706857 
L 205.519739 70.877444 
L 204.485724 71.080156 
L 203.451709 71.309687 
L 202.417694 71.558775 
L 201.38368 71.819617 
L 200.349665 72.085091 
L 199.31565 72.349539 
L 198.281635 72.609005 
L 197.24762 72.861078 
L 196.213605 73.104511 
L 195.17959 73.338837 
L 194.145575 73.564117 
L 193.11156 73.780818 
L 192.077545 73.989784 
L 191.04353 74.192185 
L 190.009515 74.389373 
L 188.9755 74.582632 
L 187.941486 74.772852 
L 186.907471 74.960241 
L 185.873456 75.144129 
L 184.839441 75.322965 
L 183.805426 75.494491 
L 182.771411 75.65606 
L 181.737396 75.805021 
L 180.703381 75.939096 
L 179.669366 76.056655 
L 178.635351 76.156883 
L 177.601336 76.239809 
L 176.567321 76.306244 
L 175.533306 76.357649 
L 174.499292 76.395971 
L 173.465277 76.423477 
L 172.431262 76.44258 
L 171.397247 76.45568 
L 170.363232 76.465011 
L 169.329217 76.472499 
L 168.295202 76.479657 
L 167.261187 76.487515 
L 166.227172 76.496603 
z
" style="fill:#1f77b4;fill-opacity:0.3;"/>
   </g>
   <g id="PolyCollection_9">
    <path clip-path="url(#p6c5fb1c7cb)" d="M 43.157727 51.075637 
L 43.157727 51.179521 
L 45.202267 51.178396 
L 47.246807 51.175146 
L 49.291347 51.170239 
L 51.335887 51.164362 
L 53.380426 51.158319 
L 55.424966 51.152941 
L 57.469506 51.149033 
L 59.514046 51.147356 
L 61.558586 51.148653 
L 63.603126 51.153682 
L 65.647665 51.163242 
L 67.692205 51.178166 
L 69.736745 51.199284 
L 71.781285 51.227379 
L 73.825825 51.263159 
L 75.870365 51.307281 
L 77.914904 51.360437 
L 79.959444 51.423477 
L 82.003984 51.497534 
L 84.048524 51.58407 
L 86.093064 51.684822 
L 88.137604 51.801617 
L 90.182143 51.936115 
L 92.226683 52.089563 
L 94.271223 52.262631 
L 96.315763 52.455391 
L 98.360303 52.667438 
L 100.404843 52.898082 
L 102.449382 53.146522 
L 104.493922 53.41194 
L 106.538462 53.693459 
L 108.583002 53.989979 
L 110.627542 54.299935 
L 112.672082 54.621027 
L 114.716621 54.949976 
L 116.761161 55.282366 
L 118.805701 55.612621 
L 120.850241 55.934188 
L 122.894781 56.239939 
L 124.939321 56.52276 
L 126.98386 56.776221 
L 129.0284 56.995142 
L 131.07294 57.175911 
L 133.11748 57.316475 
L 135.16202 57.416077 
L 137.20656 57.474912 
L 139.251099 57.493895 
L 141.295639 57.474645 
L 143.340179 57.419651 
L 145.384719 57.332432 
L 147.429259 57.217503 
L 149.473799 57.080022 
L 151.518338 56.925164 
L 153.562878 56.757415 
L 155.607418 56.580039 
L 157.651958 56.394941 
L 159.696498 56.202987 
L 161.741038 56.00472 
L 163.785577 55.801236 
L 165.830117 55.59495 
L 167.874657 55.38994 
L 169.919197 55.19172 
L 171.963737 55.006392 
L 174.008277 54.839374 
L 176.052816 54.694024 
L 178.097356 54.57061 
L 180.141896 54.465961 
L 182.186436 54.373972 
L 184.230976 54.286874 
L 186.275516 54.196916 
L 188.320055 54.097997 
L 190.364595 53.986803 
L 192.409135 53.863194 
L 194.453675 53.729784 
L 196.498215 53.590931 
L 198.542754 53.451446 
L 200.587294 53.315377 
L 202.631834 53.185144 
L 204.676374 53.061188 
L 206.720914 52.942135 
L 208.765454 52.825371 
L 210.809993 52.707857 
L 212.854533 52.586992 
L 214.899073 52.461327 
L 216.943613 52.331014 
L 218.988153 52.197905 
L 221.032693 52.065305 
L 223.077232 51.937423 
L 225.121772 51.818641 
L 227.166312 51.712753 
L 229.210852 51.622316 
L 231.255392 51.548253 
L 233.299932 51.489784 
L 235.344471 51.444673 
L 237.389011 51.40974 
L 239.433551 51.381489 
L 241.478091 51.356726 
L 243.522631 51.333022 
L 245.567171 51.308965 
L 245.567171 50.946193 
L 245.567171 50.946193 
L 243.522631 50.922136 
L 241.478091 50.898432 
L 239.433551 50.873669 
L 237.389011 50.845418 
L 235.344471 50.810485 
L 233.299932 50.765374 
L 231.255392 50.706905 
L 229.210852 50.632842 
L 227.166312 50.542405 
L 225.121772 50.436517 
L 223.077232 50.317735 
L 221.032693 50.189853 
L 218.988153 50.057253 
L 216.943613 49.924144 
L 214.899073 49.793831 
L 212.854533 49.668166 
L 210.809993 49.547301 
L 208.765454 49.429787 
L 206.720914 49.313023 
L 204.676374 49.19397 
L 202.631834 49.070014 
L 200.587294 48.939781 
L 198.542754 48.803712 
L 196.498215 48.664227 
L 194.453675 48.525374 
L 192.409135 48.391964 
L 190.364595 48.268354 
L 188.320055 48.157161 
L 186.275516 48.058242 
L 184.230976 47.968284 
L 182.186436 47.881186 
L 180.141896 47.789197 
L 178.097356 47.684548 
L 176.052816 47.561134 
L 174.008277 47.415784 
L 171.963737 47.248765 
L 169.919197 47.063438 
L 167.874657 46.865218 
L 165.830117 46.660208 
L 163.785577 46.453921 
L 161.741038 46.250438 
L 159.696498 46.052171 
L 157.651958 45.860217 
L 155.607418 45.675119 
L 153.562878 45.497743 
L 151.518338 45.329994 
L 149.473799 45.175136 
L 147.429259 45.037655 
L 145.384719 44.922726 
L 143.340179 44.835507 
L 141.295639 44.780513 
L 139.251099 44.761263 
L 137.20656 44.780246 
L 135.16202 44.839081 
L 133.11748 44.938683 
L 131.07294 45.079247 
L 129.0284 45.260016 
L 126.98386 45.478937 
L 124.939321 45.732398 
L 122.894781 46.015219 
L 120.850241 46.32097 
L 118.805701 46.642537 
L 116.761161 46.972792 
L 114.716621 47.305182 
L 112.672082 47.634131 
L 110.627542 47.955223 
L 108.583002 48.265179 
L 106.538462 48.561699 
L 104.493922 48.843218 
L 102.449382 49.108636 
L 100.404843 49.357076 
L 98.360303 49.587719 
L 96.315763 49.799767 
L 94.271223 49.992527 
L 92.226683 50.165595 
L 90.182143 50.319043 
L 88.137604 50.453541 
L 86.093064 50.570336 
L 84.048524 50.671088 
L 82.003984 50.757624 
L 79.959444 50.831681 
L 77.914904 50.894721 
L 75.870365 50.947877 
L 73.825825 50.991999 
L 71.781285 51.027779 
L 69.736745 51.055874 
L 67.692205 51.076992 
L 65.647665 51.091916 
L 63.603126 51.101476 
L 61.558586 51.106505 
L 59.514046 51.107801 
L 57.469506 51.106125 
L 55.424966 51.102217 
L 53.380426 51.096839 
L 51.335887 51.090796 
L 49.291347 51.084918 
L 47.246807 51.080012 
L 45.202267 51.076762 
L 43.157727 51.075637 
z
" style="fill:#1f77b4;fill-opacity:0.3;"/>
   </g>
   <g id="PolyCollection_10">
    <path clip-path="url(#p6c5fb1c7cb)" d="M 147.271149 25.505051 
L 147.271149 25.819581 
L 149.235922 25.85015 
L 151.200694 25.884158 
L 153.165467 25.921473 
L 155.130239 25.961871 
L 157.095012 26.005095 
L 159.059784 26.050943 
L 161.024557 26.09938 
L 162.989329 26.150643 
L 164.954102 26.205325 
L 166.918874 26.26442 
L 168.883647 26.329316 
L 170.848419 26.401741 
L 172.813192 26.483669 
L 174.777964 26.577182 
L 176.742736 26.684311 
L 178.707509 26.806847 
L 180.672281 26.946143 
L 182.637054 27.102908 
L 184.601826 27.277036 
L 186.566599 27.467485 
L 188.531371 27.672255 
L 190.496144 27.888482 
L 192.460916 28.112674 
L 194.425689 28.341052 
L 196.390461 28.569978 
L 198.355234 28.796391 
L 200.320006 29.018185 
L 202.284779 29.234445 
L 204.249551 29.445505 
L 206.214324 29.652774 
L 208.179096 29.85836 
L 210.143869 30.064543 
L 212.108641 30.273158 
L 214.073414 30.485021 
L 216.038186 30.699476 
L 218.002958 30.914169 
L 219.967731 31.125084 
L 221.932503 31.326858 
L 223.897276 31.513316 
L 225.862048 31.678157 
L 227.826821 31.815661 
L 229.791593 31.921328 
L 231.756366 31.992333 
L 233.721138 32.027765 
L 235.685911 32.028632 
L 237.650683 31.997666 
L 239.615456 31.938998 
L 241.580228 31.857754 
L 243.545001 31.759637 
L 245.509773 31.650511 
L 247.474546 31.535994 
L 249.439318 31.421042 
L 251.404091 31.309548 
L 253.368863 31.203965 
L 255.333635 31.105032 
L 257.298408 31.011673 
L 259.26318 30.921125 
L 261.227953 30.829334 
L 263.192725 30.731565 
L 265.157498 30.623138 
L 267.12227 30.500169 
L 269.087043 30.360171 
L 271.051815 30.202413 
L 273.016588 30.027995 
L 274.98136 29.839653 
L 276.946133 29.641327 
L 278.910905 29.437611 
L 280.875678 29.233157 
L 282.84045 29.032129 
L 284.805223 28.837789 
L 286.769995 28.652249 
L 288.734768 28.47643 
L 290.69954 28.310207 
L 292.664313 28.152712 
L 294.629085 28.002722 
L 296.593857 27.859045 
L 298.55863 27.720841 
L 300.523402 27.587791 
L 302.488175 27.460113 
L 304.452947 27.33843 
L 306.41772 27.223542 
L 308.382492 27.116164 
L 310.347265 27.016712 
L 312.312037 26.925167 
L 314.27681 26.841053 
L 316.241582 26.763504 
L 318.206355 26.691398 
L 320.171127 26.623524 
L 322.1359 26.558726 
L 324.100672 26.496015 
L 326.065445 26.434639 
L 328.030217 26.374105 
L 329.99499 26.314166 
L 331.959762 26.254797 
L 333.924535 26.196161 
L 335.889307 26.138571 
L 337.854079 26.082462 
L 339.818852 26.028355 
L 341.783624 25.976822 
L 341.783624 25.34781 
L 341.783624 25.34781 
L 339.818852 25.296277 
L 337.854079 25.242169 
L 335.889307 25.186061 
L 333.924535 25.128471 
L 331.959762 25.069834 
L 329.99499 25.010466 
L 328.030217 24.950526 
L 326.065445 24.889992 
L 324.100672 24.828617 
L 322.1359 24.765906 
L 320.171127 24.701107 
L 318.206355 24.633233 
L 316.241582 24.561128 
L 314.27681 24.483578 
L 312.312037 24.399464 
L 310.347265 24.30792 
L 308.382492 24.208468 
L 306.41772 24.10109 
L 304.452947 23.986201 
L 302.488175 23.864519 
L 300.523402 23.736841 
L 298.55863 23.60379 
L 296.593857 23.465586 
L 294.629085 23.32191 
L 292.664313 23.171919 
L 290.69954 23.014425 
L 288.734768 22.848202 
L 286.769995 22.672382 
L 284.805223 22.486843 
L 282.84045 22.292502 
L 280.875678 22.091475 
L 278.910905 21.88702 
L 276.946133 21.683305 
L 274.98136 21.484979 
L 273.016588 21.296636 
L 271.051815 21.122219 
L 269.087043 20.96446 
L 267.12227 20.824462 
L 265.157498 20.701494 
L 263.192725 20.593067 
L 261.227953 20.495297 
L 259.26318 20.403507 
L 257.298408 20.312959 
L 255.333635 20.219599 
L 253.368863 20.120667 
L 251.404091 20.015083 
L 249.439318 19.903589 
L 247.474546 19.788638 
L 245.509773 19.67412 
L 243.545001 19.564995 
L 241.580228 19.466878 
L 239.615456 19.385633 
L 237.650683 19.326965 
L 235.685911 19.296 
L 233.721138 19.296867 
L 231.756366 19.332299 
L 229.791593 19.403304 
L 227.826821 19.50897 
L 225.862048 19.646475 
L 223.897276 19.811315 
L 221.932503 19.997773 
L 219.967731 20.199547 
L 218.002958 20.410463 
L 216.038186 20.625156 
L 214.073414 20.839611 
L 212.108641 21.051473 
L 210.143869 21.260088 
L 208.179096 21.466271 
L 206.214324 21.671858 
L 204.249551 21.879126 
L 202.284779 22.090186 
L 200.320006 22.306447 
L 198.355234 22.52824 
L 196.390461 22.754654 
L 194.425689 22.98358 
L 192.460916 23.211958 
L 190.496144 23.43615 
L 188.531371 23.652377 
L 186.566599 23.857146 
L 184.601826 24.047595 
L 182.637054 24.221724 
L 180.672281 24.378489 
L 178.707509 24.517785 
L 176.742736 24.640321 
L 174.777964 24.74745 
L 172.813192 24.840962 
L 170.848419 24.92289 
L 168.883647 24.995316 
L 166.918874 25.060212 
L 164.954102 25.119307 
L 162.989329 25.173989 
L 161.024557 25.225252 
L 159.059784 25.273688 
L 157.095012 25.319536 
L 155.130239 25.36276 
L 153.165467 25.403159 
L 151.200694 25.440474 
L 149.235922 25.474482 
L 147.271149 25.505051 
z
" style="fill:#1f77b4;fill-opacity:0.3;"/>
   </g>
   <g id="matplotlib.axis_1">
    <g id="xtick_1">
     <g id="line2d_1">
      <defs>
       <path d="M 0 0 
L 0 3.5 
" id="mf772e180f7" style="stroke:#000000;stroke-width:0.8;"/>
      </defs>
      <g>
       <use style="stroke:#000000;stroke-width:0.8;" x="45.505276" xlink:href="#mf772e180f7" y="273.312"/>
      </g>
     </g>
     <g id="text_1">
      <!-- 80 -->
      <defs>
       <path d="M 10.59375 35.5 
L 73.1875 35.5 
L 73.1875 27.203125 
L 10.59375 27.203125 
z
" id="DejaVuSans-8722"/>
       <path d="M 31.78125 34.625 
Q 24.75 34.625 20.71875 30.859375 
Q 16.703125 27.09375 16.703125 20.515625 
Q 16.703125 13.921875 20.71875 10.15625 
Q 24.75 6.390625 31.78125 6.390625 
Q 38.8125 6.390625 42.859375 10.171875 
Q 46.921875 13.96875 46.921875 20.515625 
Q 46.921875 27.09375 42.890625 30.859375 
Q 38.875 34.625 31.78125 34.625 
z
M 21.921875 38.8125 
Q 15.578125 40.375 12.03125 44.71875 
Q 8.5 49.078125 8.5 55.328125 
Q 8.5 64.0625 14.71875 69.140625 
Q 20.953125 74.21875 31.78125 74.21875 
Q 42.671875 74.21875 48.875 69.140625 
Q 55.078125 64.0625 55.078125 55.328125 
Q 55.078125 49.078125 51.53125 44.71875 
Q 48 40.375 41.703125 38.8125 
Q 48.828125 37.15625 52.796875 32.3125 
Q 56.78125 27.484375 56.78125 20.515625 
Q 56.78125 9.90625 50.3125 4.234375 
Q 43.84375 -1.421875 31.78125 -1.421875 
Q 19.734375 -1.421875 13.25 4.234375 
Q 6.78125 9.90625 6.78125 20.515625 
Q 6.78125 27.484375 10.78125 32.3125 
Q 14.796875 37.15625 21.921875 38.8125 
z
M 18.3125 54.390625 
Q 18.3125 48.734375 21.84375 45.5625 
Q 25.390625 42.390625 31.78125 42.390625 
Q 38.140625 42.390625 41.71875 45.5625 
Q 45.3125 48.734375 45.3125 54.390625 
Q 45.3125 60.0625 41.71875 63.234375 
Q 38.140625 66.40625 31.78125 66.40625 
Q 25.390625 66.40625 21.84375 63.234375 
Q 18.3125 60.0625 18.3125 54.390625 
z
" id="DejaVuSans-56"/>
       <path d="M 31.78125 66.40625 
Q 24.171875 66.40625 20.328125 58.90625 
Q 16.5 51.421875 16.5 36.375 
Q 16.5 21.390625 20.328125 13.890625 
Q 24.171875 6.390625 31.78125 6.390625 
Q 39.453125 6.390625 43.28125 13.890625 
Q 47.125 21.390625 47.125 36.375 
Q 47.125 51.421875 43.28125 58.90625 
Q 39.453125 66.40625 31.78125 66.40625 
z
M 31.78125 74.21875 
Q 44.046875 74.21875 50.515625 64.515625 
Q 56.984375 54.828125 56.984375 36.375 
Q 56.984375 17.96875 50.515625 8.265625 
Q 44.046875 -1.421875 31.78125 -1.421875 
Q 19.53125 -1.421875 13.0625 8.265625 
Q 6.59375 17.96875 6.59375 36.375 
Q 6.59375 54.828125 13.0625 64.515625 
Q 19.53125 74.21875 31.78125 74.21875 
z
" id="DejaVuSans-48"/>
      </defs>
      <g transform="translate(34.952932 287.910437)scale(0.1 -0.1)">
       <use xlink:href="#DejaVuSans-8722"/>
       <use x="83.789062" xlink:href="#DejaVuSans-56"/>
       <use x="147.412109" xlink:href="#DejaVuSans-48"/>
      </g>
     </g>
    </g>
    <g id="xtick_2">
     <g id="line2d_2">
      <g>
       <use style="stroke:#000000;stroke-width:0.8;" x="96.59487" xlink:href="#mf772e180f7" y="273.312"/>
      </g>
     </g>
     <g id="text_2">
      <!-- 60 -->
      <defs>
       <path d="M 33.015625 40.375 
Q 26.375 40.375 22.484375 35.828125 
Q 18.609375 31.296875 18.609375 23.390625 
Q 18.609375 15.53125 22.484375 10.953125 
Q 26.375 6.390625 33.015625 6.390625 
Q 39.65625 6.390625 43.53125 10.953125 
Q 47.40625 15.53125 47.40625 23.390625 
Q 47.40625 31.296875 43.53125 35.828125 
Q 39.65625 40.375 33.015625 40.375 
z
M 52.59375 71.296875 
L 52.59375 62.3125 
Q 48.875 64.0625 45.09375 64.984375 
Q 41.3125 65.921875 37.59375 65.921875 
Q 27.828125 65.921875 22.671875 59.328125 
Q 17.53125 52.734375 16.796875 39.40625 
Q 19.671875 43.65625 24.015625 45.921875 
Q 28.375 48.1875 33.59375 48.1875 
Q 44.578125 48.1875 50.953125 41.515625 
Q 57.328125 34.859375 57.328125 23.390625 
Q 57.328125 12.15625 50.6875 5.359375 
Q 44.046875 -1.421875 33.015625 -1.421875 
Q 20.359375 -1.421875 13.671875 8.265625 
Q 6.984375 17.96875 6.984375 36.375 
Q 6.984375 53.65625 15.1875 63.9375 
Q 23.390625 74.21875 37.203125 74.21875 
Q 40.921875 74.21875 44.703125 73.484375 
Q 48.484375 72.75 52.59375 71.296875 
z
" id="DejaVuSans-54"/>
      </defs>
      <g transform="translate(86.042527 287.910437)scale(0.1 -0.1)">
       <use xlink:href="#DejaVuSans-8722"/>
       <use x="83.789062" xlink:href="#DejaVuSans-54"/>
       <use x="147.412109" xlink:href="#DejaVuSans-48"/>
      </g>
     </g>
    </g>
    <g id="xtick_3">
     <g id="line2d_3">
      <g>
       <use style="stroke:#000000;stroke-width:0.8;" x="147.684465" xlink:href="#mf772e180f7" y="273.312"/>
      </g>
     </g>
     <g id="text_3">
      <!-- 40 -->
      <defs>
       <path d="M 37.796875 64.3125 
L 12.890625 25.390625 
L 37.796875 25.390625 
z
M 35.203125 72.90625 
L 47.609375 72.90625 
L 47.609375 25.390625 
L 58.015625 25.390625 
L 58.015625 17.1875 
L 47.609375 17.1875 
L 47.609375 0 
L 37.796875 0 
L 37.796875 17.1875 
L 4.890625 17.1875 
L 4.890625 26.703125 
z
" id="DejaVuSans-52"/>
      </defs>
      <g transform="translate(137.132121 287.910437)scale(0.1 -0.1)">
       <use xlink:href="#DejaVuSans-8722"/>
       <use x="83.789062" xlink:href="#DejaVuSans-52"/>
       <use x="147.412109" xlink:href="#DejaVuSans-48"/>
      </g>
     </g>
    </g>
    <g id="xtick_4">
     <g id="line2d_4">
      <g>
       <use style="stroke:#000000;stroke-width:0.8;" x="198.77406" xlink:href="#mf772e180f7" y="273.312"/>
      </g>
     </g>
     <g id="text_4">
      <!-- 20 -->
      <defs>
       <path d="M 19.1875 8.296875 
L 53.609375 8.296875 
L 53.609375 0 
L 7.328125 0 
L 7.328125 8.296875 
Q 12.9375 14.109375 22.625 23.890625 
Q 32.328125 33.6875 34.8125 36.53125 
Q 39.546875 41.84375 41.421875 45.53125 
Q 43.3125 49.21875 43.3125 52.78125 
Q 43.3125 58.59375 39.234375 62.25 
Q 35.15625 65.921875 28.609375 65.921875 
Q 23.96875 65.921875 18.8125 64.3125 
Q 13.671875 62.703125 7.8125 59.421875 
L 7.8125 69.390625 
Q 13.765625 71.78125 18.9375 73 
Q 24.125 74.21875 28.421875 74.21875 
Q 39.75 74.21875 46.484375 68.546875 
Q 53.21875 62.890625 53.21875 53.421875 
Q 53.21875 48.921875 51.53125 44.890625 
Q 49.859375 40.875 45.40625 35.40625 
Q 44.1875 33.984375 37.640625 27.21875 
Q 31.109375 20.453125 19.1875 8.296875 
z
" id="DejaVuSans-50"/>
      </defs>
      <g transform="translate(188.221716 287.910437)scale(0.1 -0.1)">
       <use xlink:href="#DejaVuSans-8722"/>
       <use x="83.789062" xlink:href="#DejaVuSans-50"/>
       <use x="147.412109" xlink:href="#DejaVuSans-48"/>
      </g>
     </g>
    </g>
    <g id="xtick_5">
     <g id="line2d_5">
      <g>
       <use style="stroke:#000000;stroke-width:0.8;" x="249.863655" xlink:href="#mf772e180f7" y="273.312"/>
      </g>
     </g>
     <g id="text_5">
      <!-- 0 -->
      <g transform="translate(246.682405 287.910437)scale(0.1 -0.1)">
       <use xlink:href="#DejaVuSans-48"/>
      </g>
     </g>
    </g>
    <g id="xtick_6">
     <g id="line2d_6">
      <g>
       <use style="stroke:#000000;stroke-width:0.8;" x="300.953249" xlink:href="#mf772e180f7" y="273.312"/>
      </g>
     </g>
     <g id="text_6">
      <!-- 20 -->
      <g transform="translate(294.590749 287.910437)scale(0.1 -0.1)">
       <use xlink:href="#DejaVuSans-50"/>
       <use x="63.623047" xlink:href="#DejaVuSans-48"/>
      </g>
     </g>
    </g>
    <g id="xtick_7">
     <g id="line2d_7">
      <g>
       <use style="stroke:#000000;stroke-width:0.8;" x="352.042844" xlink:href="#mf772e180f7" y="273.312"/>
      </g>
     </g>
     <g id="text_7">
      <!-- 40 -->
      <g transform="translate(345.680344 287.910437)scale(0.1 -0.1)">
       <use xlink:href="#DejaVuSans-52"/>
       <use x="63.623047" xlink:href="#DejaVuSans-48"/>
      </g>
     </g>
    </g>
    <g id="text_8">
     <!-- Velocity [km/s] -->
     <defs>
      <path d="M 28.609375 0 
L 0.78125 72.90625 
L 11.078125 72.90625 
L 34.1875 11.53125 
L 57.328125 72.90625 
L 67.578125 72.90625 
L 39.796875 0 
z
" id="DejaVuSans-86"/>
      <path d="M 56.203125 29.59375 
L 56.203125 25.203125 
L 14.890625 25.203125 
Q 15.484375 15.921875 20.484375 11.0625 
Q 25.484375 6.203125 34.421875 6.203125 
Q 39.59375 6.203125 44.453125 7.46875 
Q 49.3125 8.734375 54.109375 11.28125 
L 54.109375 2.78125 
Q 49.265625 0.734375 44.1875 -0.34375 
Q 39.109375 -1.421875 33.890625 -1.421875 
Q 20.796875 -1.421875 13.15625 6.1875 
Q 5.515625 13.8125 5.515625 26.8125 
Q 5.515625 40.234375 12.765625 48.109375 
Q 20.015625 56 32.328125 56 
Q 43.359375 56 49.78125 48.890625 
Q 56.203125 41.796875 56.203125 29.59375 
z
M 47.21875 32.234375 
Q 47.125 39.59375 43.09375 43.984375 
Q 39.0625 48.390625 32.421875 48.390625 
Q 24.90625 48.390625 20.390625 44.140625 
Q 15.875 39.890625 15.1875 32.171875 
z
" id="DejaVuSans-101"/>
      <path d="M 9.421875 75.984375 
L 18.40625 75.984375 
L 18.40625 0 
L 9.421875 0 
z
" id="DejaVuSans-108"/>
      <path d="M 30.609375 48.390625 
Q 23.390625 48.390625 19.1875 42.75 
Q 14.984375 37.109375 14.984375 27.296875 
Q 14.984375 17.484375 19.15625 11.84375 
Q 23.34375 6.203125 30.609375 6.203125 
Q 37.796875 6.203125 41.984375 11.859375 
Q 46.1875 17.53125 46.1875 27.296875 
Q 46.1875 37.015625 41.984375 42.703125 
Q 37.796875 48.390625 30.609375 48.390625 
z
M 30.609375 56 
Q 42.328125 56 49.015625 48.375 
Q 55.71875 40.765625 55.71875 27.296875 
Q 55.71875 13.875 49.015625 6.21875 
Q 42.328125 -1.421875 30.609375 -1.421875 
Q 18.84375 -1.421875 12.171875 6.21875 
Q 5.515625 13.875 5.515625 27.296875 
Q 5.515625 40.765625 12.171875 48.375 
Q 18.84375 56 30.609375 56 
z
" id="DejaVuSans-111"/>
      <path d="M 48.78125 52.59375 
L 48.78125 44.1875 
Q 44.96875 46.296875 41.140625 47.34375 
Q 37.3125 48.390625 33.40625 48.390625 
Q 24.65625 48.390625 19.8125 42.84375 
Q 14.984375 37.3125 14.984375 27.296875 
Q 14.984375 17.28125 19.8125 11.734375 
Q 24.65625 6.203125 33.40625 6.203125 
Q 37.3125 6.203125 41.140625 7.25 
Q 44.96875 8.296875 48.78125 10.40625 
L 48.78125 2.09375 
Q 45.015625 0.34375 40.984375 -0.53125 
Q 36.96875 -1.421875 32.421875 -1.421875 
Q 20.0625 -1.421875 12.78125 6.34375 
Q 5.515625 14.109375 5.515625 27.296875 
Q 5.515625 40.671875 12.859375 48.328125 
Q 20.21875 56 33.015625 56 
Q 37.15625 56 41.109375 55.140625 
Q 45.0625 54.296875 48.78125 52.59375 
z
" id="DejaVuSans-99"/>
      <path d="M 9.421875 54.6875 
L 18.40625 54.6875 
L 18.40625 0 
L 9.421875 0 
z
M 9.421875 75.984375 
L 18.40625 75.984375 
L 18.40625 64.59375 
L 9.421875 64.59375 
z
" id="DejaVuSans-105"/>
      <path d="M 18.3125 70.21875 
L 18.3125 54.6875 
L 36.8125 54.6875 
L 36.8125 47.703125 
L 18.3125 47.703125 
L 18.3125 18.015625 
Q 18.3125 11.328125 20.140625 9.421875 
Q 21.96875 7.515625 27.59375 7.515625 
L 36.8125 7.515625 
L 36.8125 0 
L 27.59375 0 
Q 17.1875 0 13.234375 3.875 
Q 9.28125 7.765625 9.28125 18.015625 
L 9.28125 47.703125 
L 2.6875 47.703125 
L 2.6875 54.6875 
L 9.28125 54.6875 
L 9.28125 70.21875 
z
" id="DejaVuSans-116"/>
      <path d="M 32.171875 -5.078125 
Q 28.375 -14.84375 24.75 -17.8125 
Q 21.140625 -20.796875 15.09375 -20.796875 
L 7.90625 -20.796875 
L 7.90625 -13.28125 
L 13.1875 -13.28125 
Q 16.890625 -13.28125 18.9375 -11.515625 
Q 21 -9.765625 23.484375 -3.21875 
L 25.09375 0.875 
L 2.984375 54.6875 
L 12.5 54.6875 
L 29.59375 11.921875 
L 46.6875 54.6875 
L 56.203125 54.6875 
z
" id="DejaVuSans-121"/>
      <path id="DejaVuSans-32"/>
      <path d="M 8.59375 75.984375 
L 29.296875 75.984375 
L 29.296875 69 
L 17.578125 69 
L 17.578125 -6.203125 
L 29.296875 -6.203125 
L 29.296875 -13.1875 
L 8.59375 -13.1875 
z
" id="DejaVuSans-91"/>
      <path d="M 9.078125 75.984375 
L 18.109375 75.984375 
L 18.109375 31.109375 
L 44.921875 54.6875 
L 56.390625 54.6875 
L 27.390625 29.109375 
L 57.625 0 
L 45.90625 0 
L 18.109375 26.703125 
L 18.109375 0 
L 9.078125 0 
z
" id="DejaVuSans-107"/>
      <path d="M 52 44.1875 
Q 55.375 50.25 60.0625 53.125 
Q 64.75 56 71.09375 56 
Q 79.640625 56 84.28125 50.015625 
Q 88.921875 44.046875 88.921875 33.015625 
L 88.921875 0 
L 79.890625 0 
L 79.890625 32.71875 
Q 79.890625 40.578125 77.09375 44.375 
Q 74.3125 48.1875 68.609375 48.1875 
Q 61.625 48.1875 57.5625 43.546875 
Q 53.515625 38.921875 53.515625 30.90625 
L 53.515625 0 
L 44.484375 0 
L 44.484375 32.71875 
Q 44.484375 40.625 41.703125 44.40625 
Q 38.921875 48.1875 33.109375 48.1875 
Q 26.21875 48.1875 22.15625 43.53125 
Q 18.109375 38.875 18.109375 30.90625 
L 18.109375 0 
L 9.078125 0 
L 9.078125 54.6875 
L 18.109375 54.6875 
L 18.109375 46.1875 
Q 21.1875 51.21875 25.484375 53.609375 
Q 29.78125 56 35.6875 56 
Q 41.65625 56 45.828125 52.96875 
Q 50 49.953125 52 44.1875 
z
" id="DejaVuSans-109"/>
      <path d="M 25.390625 72.90625 
L 33.6875 72.90625 
L 8.296875 -9.28125 
L 0 -9.28125 
z
" id="DejaVuSans-47"/>
      <path d="M 44.28125 53.078125 
L 44.28125 44.578125 
Q 40.484375 46.53125 36.375 47.5 
Q 32.28125 48.484375 27.875 48.484375 
Q 21.1875 48.484375 17.84375 46.4375 
Q 14.5 44.390625 14.5 40.28125 
Q 14.5 37.15625 16.890625 35.375 
Q 19.28125 33.59375 26.515625 31.984375 
L 29.59375 31.296875 
Q 39.15625 29.25 43.1875 25.515625 
Q 47.21875 21.78125 47.21875 15.09375 
Q 47.21875 7.46875 41.1875 3.015625 
Q 35.15625 -1.421875 24.609375 -1.421875 
Q 20.21875 -1.421875 15.453125 -0.5625 
Q 10.6875 0.296875 5.421875 2 
L 5.421875 11.28125 
Q 10.40625 8.6875 15.234375 7.390625 
Q 20.0625 6.109375 24.8125 6.109375 
Q 31.15625 6.109375 34.5625 8.28125 
Q 37.984375 10.453125 37.984375 14.40625 
Q 37.984375 18.0625 35.515625 20.015625 
Q 33.0625 21.96875 24.703125 23.78125 
L 21.578125 24.515625 
Q 13.234375 26.265625 9.515625 29.90625 
Q 5.8125 33.546875 5.8125 39.890625 
Q 5.8125 47.609375 11.28125 51.796875 
Q 16.75 56 26.8125 56 
Q 31.78125 56 36.171875 55.265625 
Q 40.578125 54.546875 44.28125 53.078125 
z
" id="DejaVuSans-115"/>
      <path d="M 30.421875 75.984375 
L 30.421875 -13.1875 
L 9.71875 -13.1875 
L 9.71875 -6.203125 
L 21.390625 -6.203125 
L 21.390625 69 
L 9.71875 69 
L 9.71875 75.984375 
z
" id="DejaVuSans-93"/>
     </defs>
     <g transform="translate(167.942031 301.588562)scale(0.1 -0.1)">
      <use xlink:href="#DejaVuSans-86"/>
      <use x="68.298828" xlink:href="#DejaVuSans-101"/>
      <use x="129.822266" xlink:href="#DejaVuSans-108"/>
      <use x="157.605469" xlink:href="#DejaVuSans-111"/>
      <use x="218.787109" xlink:href="#DejaVuSans-99"/>
      <use x="273.767578" xlink:href="#DejaVuSans-105"/>
      <use x="301.550781" xlink:href="#DejaVuSans-116"/>
      <use x="340.759766" xlink:href="#DejaVuSans-121"/>
      <use x="399.939453" xlink:href="#DejaVuSans-32"/>
      <use x="431.726562" xlink:href="#DejaVuSans-91"/>
      <use x="470.740234" xlink:href="#DejaVuSans-107"/>
      <use x="528.650391" xlink:href="#DejaVuSans-109"/>
      <use x="626.0625" xlink:href="#DejaVuSans-47"/>
      <use x="659.753906" xlink:href="#DejaVuSans-115"/>
      <use x="711.853516" xlink:href="#DejaVuSans-93"/>
     </g>
    </g>
   </g>
   <g id="matplotlib.axis_2">
    <g id="ytick_1">
     <g id="line2d_8">
      <defs>
       <path d="M 0 0 
L -3.5 0 
" id="m4632d8a588" style="stroke:#000000;stroke-width:0.8;"/>
      </defs>
      <g>
       <use style="stroke:#000000;stroke-width:0.8;" x="26.925" xlink:href="#m4632d8a588" y="229.384421"/>
      </g>
     </g>
     <g id="text_9">
      <!-- 2 -->
      <g transform="translate(13.5625 233.18364)scale(0.1 -0.1)">
       <use xlink:href="#DejaVuSans-50"/>
      </g>
     </g>
    </g>
    <g id="ytick_2">
     <g id="line2d_9">
      <g>
       <use style="stroke:#000000;stroke-width:0.8;" x="26.925" xlink:href="#m4632d8a588" y="178.453895"/>
      </g>
     </g>
     <g id="text_10">
      <!-- 4 -->
      <g transform="translate(13.5625 182.253113)scale(0.1 -0.1)">
       <use xlink:href="#DejaVuSans-52"/>
      </g>
     </g>
    </g>
    <g id="ytick_3">
     <g id="line2d_10">
      <g>
       <use style="stroke:#000000;stroke-width:0.8;" x="26.925" xlink:href="#m4632d8a588" y="127.523368"/>
      </g>
     </g>
     <g id="text_11">
      <!-- 6 -->
      <g transform="translate(13.5625 131.322587)scale(0.1 -0.1)">
       <use xlink:href="#DejaVuSans-54"/>
      </g>
     </g>
    </g>
    <g id="ytick_4">
     <g id="line2d_11">
      <g>
       <use style="stroke:#000000;stroke-width:0.8;" x="26.925" xlink:href="#m4632d8a588" y="76.592842"/>
      </g>
     </g>
     <g id="text_12">
      <!-- 8 -->
      <g transform="translate(13.5625 80.392061)scale(0.1 -0.1)">
       <use xlink:href="#DejaVuSans-56"/>
      </g>
     </g>
    </g>
    <g id="ytick_5">
     <g id="line2d_12">
      <g>
       <use style="stroke:#000000;stroke-width:0.8;" x="26.925" xlink:href="#m4632d8a588" y="25.662316"/>
      </g>
     </g>
     <g id="text_13">
      <!-- 10 -->
      <defs>
       <path d="M 12.40625 8.296875 
L 28.515625 8.296875 
L 28.515625 63.921875 
L 10.984375 60.40625 
L 10.984375 69.390625 
L 28.421875 72.90625 
L 38.28125 72.90625 
L 38.28125 8.296875 
L 54.390625 8.296875 
L 54.390625 0 
L 12.40625 0 
z
" id="DejaVuSans-49"/>
      </defs>
      <g transform="translate(7.2 29.461535)scale(0.1 -0.1)">
       <use xlink:href="#DejaVuSans-49"/>
       <use x="63.623047" xlink:href="#DejaVuSans-48"/>
      </g>
     </g>
    </g>
   </g>
   <g id="patch_3">
    <path d="M 26.925 273.312 
L 26.925 7.2 
" style="fill:none;stroke:#000000;stroke-linecap:square;stroke-linejoin:miter;stroke-width:0.8;"/>
   </g>
   <g id="patch_4">
    <path d="M 384.045 273.312 
L 384.045 7.2 
" style="fill:none;stroke:#000000;stroke-linecap:square;stroke-linejoin:miter;stroke-width:0.8;"/>
   </g>
   <g id="patch_5">
    <path d="M 26.925 273.312 
L 384.045 273.312 
" style="fill:none;stroke:#000000;stroke-linecap:square;stroke-linejoin:miter;stroke-width:0.8;"/>
   </g>
   <g id="patch_6">
    <path d="M 26.925 7.2 
L 384.045 7.2 
" style="fill:none;stroke:#000000;stroke-linecap:square;stroke-linejoin:miter;stroke-width:0.8;"/>
   </g>
  </g>
 </g>
 <defs>
  <clipPath id="p6c5fb1c7cb">
   <rect height="266.112" width="357.12" x="26.925" y="7.2"/>
  </clipPath>
 </defs>
</svg>
