<?xml version="1.0" encoding="utf-8" standalone="no"?>
<!DOCTYPE svg PUBLIC "-//W3C//DTD SVG 1.1//EN"
  "http://www.w3.org/Graphics/SVG/1.1/DTD/svg11.dtd">
<svg xmlns:xlink="http://www.w3.org/1999/xlink" width="402.68875pt" height="309.612pt" viewBox="0 0 402.68875 309.612" xmlns="http://www.w3.org/2000/svg" version="1.1">
 <metadata>
  <rdf:RDF xmlns:dc="http://purl.org/dc/elements/1.1/" xmlns:cc="http://creativecommons.org/ns#" xmlns:rdf="http://www.w3.org/1999/02/22-rdf-syntax-ns#">
   <cc:Work>
    <dc:type rdf:resource="http://purl.org/dc/dcmitype/StillImage"/>
    <dc:date>2022-09-08T23:27:02.321356</dc:date>
    <dc:format>image/svg+xml</dc:format>
    <dc:creator>
     <cc:Agent>
      <dc:title>Matplotlib v3.5.1, https://matplotlib.org/</dc:title>
     </cc:Agent>
    </dc:creator>
   </cc:Work>
  </rdf:RDF>
 </metadata>
 <defs>
  <style type="text/css">*{stroke-linejoin: round; stroke-linecap: butt}</style>
 </defs>
 <g id="figure_1">
  <g id="patch_1">
   <path d="M 0 309.612 
L 402.68875 309.612 
L 402.68875 0 
L 0 0 
z
" style="fill: #ffffff"/>
  </g>
  <g id="axes_1">
   <g id="patch_2">
    <path d="M 36.61875 275.062 
L 393.73875 275.062 
L 393.73875 8.95 
L 36.61875 8.95 
z
" style="fill: #ffffff"/>
   </g>
   <g id="matplotlib.axis_1">
    <g id="xtick_1">
     <g id="line2d_1">
      <defs>
       <path id="me3a83be41b" d="M 0 1.75 
L 0 -1.75 
" style="stroke: #000000; stroke-width: 0.8"/>
      </defs>
      <g>
       <use xlink:href="#me3a83be41b" x="45.8119" y="275.062" style="stroke: #000000; stroke-width: 0.8"/>
      </g>
     </g>
     <g id="line2d_2">
      <g>
       <use xlink:href="#me3a83be41b" x="45.8119" y="8.95" style="stroke: #000000; stroke-width: 0.8"/>
      </g>
     </g>
     <g id="text_1">
      <!-- 0 -->
      <g transform="translate(43.032212 287.452625)scale(0.1 -0.1)">
       <defs>
        <path id="HelveticaNeue-Medium-30" d="M 1779 518 
C 1139 518 960 1306 960 2240 
C 960 3174 1139 3962 1779 3962 
C 2419 3962 2598 3174 2598 2240 
C 2598 1306 2419 518 1779 518 
z
M 1779 4570 
C 493 4570 230 3258 230 2240 
C 230 1222 493 -90 1779 -90 
C 3066 -90 3328 1222 3328 2240 
C 3328 3258 3066 4570 1779 4570 
z
" transform="scale(0.015625)"/>
       </defs>
       <use xlink:href="#HelveticaNeue-Medium-30"/>
      </g>
     </g>
    </g>
    <g id="xtick_2">
     <g id="line2d_3">
      <g>
       <use xlink:href="#me3a83be41b" x="114.208797" y="275.062" style="stroke: #000000; stroke-width: 0.8"/>
      </g>
     </g>
     <g id="line2d_4">
      <g>
       <use xlink:href="#me3a83be41b" x="114.208797" y="8.95" style="stroke: #000000; stroke-width: 0.8"/>
      </g>
     </g>
     <g id="text_2">
      <!-- 1 -->
      <g transform="translate(111.429109 287.452625)scale(0.1 -0.1)">
       <defs>
        <path id="HelveticaNeue-Medium-31" d="M 339 3162 
L 1440 3162 
L 1440 0 
L 2240 0 
L 2240 4480 
L 1645 4480 
C 1536 3942 954 3731 339 3738 
L 339 3162 
z
" transform="scale(0.015625)"/>
       </defs>
       <use xlink:href="#HelveticaNeue-Medium-31"/>
      </g>
     </g>
    </g>
    <g id="xtick_3">
     <g id="line2d_5">
      <g>
       <use xlink:href="#me3a83be41b" x="182.605694" y="275.062" style="stroke: #000000; stroke-width: 0.8"/>
      </g>
     </g>
     <g id="line2d_6">
      <g>
       <use xlink:href="#me3a83be41b" x="182.605694" y="8.95" style="stroke: #000000; stroke-width: 0.8"/>
      </g>
     </g>
     <g id="text_3">
      <!-- 2 -->
      <g transform="translate(179.826007 287.452625)scale(0.1 -0.1)">
       <defs>
        <path id="HelveticaNeue-Medium-32" d="M 3309 653 
L 1126 653 
C 1254 1050 1798 1325 2317 1683 
C 2829 2042 3315 2483 3315 3194 
C 3315 3770 2970 4570 1875 4570 
C 877 4570 333 3834 333 2842 
L 1062 2842 
C 1082 3469 1254 3962 1830 3962 
C 2458 3962 2592 3488 2586 3168 
C 2573 2470 1818 2118 1235 1696 
C 634 1293 256 736 250 0 
L 3309 0 
L 3309 653 
z
" transform="scale(0.015625)"/>
       </defs>
       <use xlink:href="#HelveticaNeue-Medium-32"/>
      </g>
     </g>
    </g>
    <g id="xtick_4">
     <g id="line2d_7">
      <g>
       <use xlink:href="#me3a83be41b" x="251.002592" y="275.062" style="stroke: #000000; stroke-width: 0.8"/>
      </g>
     </g>
     <g id="line2d_8">
      <g>
       <use xlink:href="#me3a83be41b" x="251.002592" y="8.95" style="stroke: #000000; stroke-width: 0.8"/>
      </g>
     </g>
     <g id="text_4">
      <!-- 3 -->
      <g transform="translate(248.222904 287.452625)scale(0.1 -0.1)">
       <defs>
        <path id="HelveticaNeue-Medium-33" d="M 1459 2080 
C 2035 2106 2630 2016 2630 1318 
C 2630 806 2259 518 1773 518 
C 1203 518 909 928 928 1472 
L 198 1472 
C 218 538 736 -90 1773 -90 
C 2630 -90 3360 435 3360 1280 
C 3360 1856 3053 2298 2547 2400 
L 2547 2413 
C 2976 2566 3181 2925 3181 3373 
C 3181 4166 2464 4570 1766 4570 
C 864 4570 320 3917 282 3046 
L 1011 3046 
C 998 3507 1248 3962 1754 3962 
C 2157 3962 2451 3706 2451 3328 
C 2451 2778 1946 2605 1459 2624 
L 1459 2080 
z
" transform="scale(0.015625)"/>
       </defs>
       <use xlink:href="#HelveticaNeue-Medium-33"/>
      </g>
     </g>
    </g>
    <g id="xtick_5">
     <g id="line2d_9">
      <g>
       <use xlink:href="#me3a83be41b" x="319.399489" y="275.062" style="stroke: #000000; stroke-width: 0.8"/>
      </g>
     </g>
     <g id="line2d_10">
      <g>
       <use xlink:href="#me3a83be41b" x="319.399489" y="8.95" style="stroke: #000000; stroke-width: 0.8"/>
      </g>
     </g>
     <g id="text_5">
      <!-- 4 -->
      <g transform="translate(316.619802 287.452625)scale(0.1 -0.1)">
       <defs>
        <path id="HelveticaNeue-Medium-34" d="M 3341 1638 
L 2765 1638 
L 2765 4480 
L 2074 4480 
L 154 1786 
L 154 1062 
L 2074 1062 
L 2074 0 
L 2765 0 
L 2765 1062 
L 3341 1062 
L 3341 1638 
z
M 2061 3610 
L 2074 3610 
L 2074 1638 
L 717 1638 
L 2061 3610 
z
" transform="scale(0.015625)"/>
       </defs>
       <use xlink:href="#HelveticaNeue-Medium-34"/>
      </g>
     </g>
    </g>
    <g id="xtick_6">
     <g id="line2d_11">
      <g>
       <use xlink:href="#me3a83be41b" x="387.796386" y="275.062" style="stroke: #000000; stroke-width: 0.8"/>
      </g>
     </g>
     <g id="line2d_12">
      <g>
       <use xlink:href="#me3a83be41b" x="387.796386" y="8.95" style="stroke: #000000; stroke-width: 0.8"/>
      </g>
     </g>
     <g id="text_6">
      <!-- 5 -->
      <g transform="translate(385.016699 287.452625)scale(0.1 -0.1)">
       <defs>
        <path id="HelveticaNeue-Medium-35" d="M 307 2029 
L 1037 2029 
C 1152 2342 1453 2438 1760 2438 
C 2349 2438 2611 1997 2611 1504 
C 2611 960 2400 518 1779 518 
C 1306 518 998 794 954 1274 
L 224 1274 
C 256 378 928 -90 1792 -90 
C 2893 -90 3341 800 3341 1517 
C 3341 2374 2829 3014 1939 3014 
C 1638 3014 1312 2893 1114 2675 
L 1101 2688 
L 1331 3827 
L 3104 3827 
L 3104 4480 
L 787 4480 
L 307 2029 
z
" transform="scale(0.015625)"/>
       </defs>
       <use xlink:href="#HelveticaNeue-Medium-35"/>
      </g>
     </g>
    </g>
    <g id="text_7">
     <!-- x -->
     <g transform="translate(212.493594 300.502625)scale(0.1 -0.1)">
      <defs>
       <path id="HelveticaNeue-Medium-78" d="M 26 0 
L 883 0 
L 1696 1222 
L 2534 0 
L 3411 0 
L 2144 1779 
L 3270 3309 
L 2426 3309 
L 1702 2291 
L 1011 3309 
L 128 3309 
L 1274 1741 
L 26 0 
z
" transform="scale(0.015625)"/>
      </defs>
      <use xlink:href="#HelveticaNeue-Medium-78"/>
     </g>
    </g>
   </g>
   <g id="matplotlib.axis_2">
    <g id="ytick_1">
     <g id="line2d_13">
      <defs>
       <path id="m44d584b308" d="M 1.75 0 
L -1.75 -0 
" style="stroke: #000000; stroke-width: 0.8"/>
      </defs>
      <g>
       <use xlink:href="#m44d584b308" x="36.61875" y="246.477408" style="stroke: #000000; stroke-width: 0.8"/>
      </g>
     </g>
     <g id="line2d_14">
      <g>
       <use xlink:href="#m44d584b308" x="393.73875" y="246.477408" style="stroke: #000000; stroke-width: 0.8"/>
      </g>
     </g>
     <g id="text_8">
      <!-- 10 -->
      <g transform="translate(20.25 250.04772)scale(0.1 -0.1)">
       <use xlink:href="#HelveticaNeue-Medium-31"/>
       <use xlink:href="#HelveticaNeue-Medium-30" x="55.599991"/>
      </g>
     </g>
    </g>
    <g id="ytick_2">
     <g id="line2d_15">
      <g>
       <use xlink:href="#m44d584b308" x="36.61875" y="202.638995" style="stroke: #000000; stroke-width: 0.8"/>
      </g>
     </g>
     <g id="line2d_16">
      <g>
       <use xlink:href="#m44d584b308" x="393.73875" y="202.638995" style="stroke: #000000; stroke-width: 0.8"/>
      </g>
     </g>
     <g id="text_9">
      <!-- 12 -->
      <g transform="translate(20.25 206.209307)scale(0.1 -0.1)">
       <use xlink:href="#HelveticaNeue-Medium-31"/>
       <use xlink:href="#HelveticaNeue-Medium-32" x="55.599991"/>
      </g>
     </g>
    </g>
    <g id="ytick_3">
     <g id="line2d_17">
      <g>
       <use xlink:href="#m44d584b308" x="36.61875" y="158.800582" style="stroke: #000000; stroke-width: 0.8"/>
      </g>
     </g>
     <g id="line2d_18">
      <g>
       <use xlink:href="#m44d584b308" x="393.73875" y="158.800582" style="stroke: #000000; stroke-width: 0.8"/>
      </g>
     </g>
     <g id="text_10">
      <!-- 14 -->
      <g transform="translate(20.25 162.370895)scale(0.1 -0.1)">
       <use xlink:href="#HelveticaNeue-Medium-31"/>
       <use xlink:href="#HelveticaNeue-Medium-34" x="55.599991"/>
      </g>
     </g>
    </g>
    <g id="ytick_4">
     <g id="line2d_19">
      <g>
       <use xlink:href="#m44d584b308" x="36.61875" y="114.96217" style="stroke: #000000; stroke-width: 0.8"/>
      </g>
     </g>
     <g id="line2d_20">
      <g>
       <use xlink:href="#m44d584b308" x="393.73875" y="114.96217" style="stroke: #000000; stroke-width: 0.8"/>
      </g>
     </g>
     <g id="text_11">
      <!-- 16 -->
      <g transform="translate(20.25 118.532482)scale(0.1 -0.1)">
       <defs>
        <path id="HelveticaNeue-Medium-36" d="M 1824 518 
C 1293 518 1018 966 1018 1453 
C 1018 1946 1293 2368 1824 2368 
C 2349 2368 2611 1933 2611 1453 
C 2611 973 2349 518 1824 518 
z
M 3258 3347 
C 3219 4077 2618 4570 1907 4570 
C 640 4570 218 3322 218 2253 
C 218 947 531 -90 1850 -90 
C 2746 -90 3341 570 3341 1440 
C 3341 2298 2816 2944 1926 2944 
C 1530 2944 1158 2765 960 2413 
L 947 2426 
C 992 3014 1082 3962 1875 3962 
C 2253 3962 2496 3712 2528 3347 
L 3258 3347 
z
" transform="scale(0.015625)"/>
       </defs>
       <use xlink:href="#HelveticaNeue-Medium-31"/>
       <use xlink:href="#HelveticaNeue-Medium-36" x="55.599991"/>
      </g>
     </g>
    </g>
    <g id="ytick_5">
     <g id="line2d_21">
      <g>
       <use xlink:href="#m44d584b308" x="36.61875" y="71.123757" style="stroke: #000000; stroke-width: 0.8"/>
      </g>
     </g>
     <g id="line2d_22">
      <g>
       <use xlink:href="#m44d584b308" x="393.73875" y="71.123757" style="stroke: #000000; stroke-width: 0.8"/>
      </g>
     </g>
     <g id="text_12">
      <!-- 18 -->
      <g transform="translate(20.25 74.694069)scale(0.1 -0.1)">
       <defs>
        <path id="HelveticaNeue-Medium-38" d="M 1779 486 
C 1293 486 928 794 928 1318 
C 928 1811 1293 2106 1779 2106 
C 2266 2106 2630 1811 2630 1318 
C 2630 794 2266 486 1779 486 
z
M 1779 -90 
C 2688 -90 3360 442 3360 1318 
C 3360 1882 3040 2285 2541 2413 
L 2541 2426 
C 2944 2579 3174 2912 3174 3347 
C 3174 4109 2669 4570 1779 4570 
C 890 4570 384 4109 384 3347 
C 384 2912 614 2579 1018 2426 
L 1018 2413 
C 518 2285 198 1882 198 1318 
C 198 442 870 -90 1779 -90 
z
M 1779 3994 
C 2170 3994 2483 3750 2483 3309 
C 2483 2886 2182 2650 1779 2650 
C 1376 2650 1075 2886 1075 3309 
C 1075 3750 1389 3994 1779 3994 
z
" transform="scale(0.015625)"/>
       </defs>
       <use xlink:href="#HelveticaNeue-Medium-31"/>
       <use xlink:href="#HelveticaNeue-Medium-38" x="55.599991"/>
      </g>
     </g>
    </g>
    <g id="ytick_6">
     <g id="line2d_23">
      <g>
       <use xlink:href="#m44d584b308" x="36.61875" y="27.285344" style="stroke: #000000; stroke-width: 0.8"/>
      </g>
     </g>
     <g id="line2d_24">
      <g>
       <use xlink:href="#m44d584b308" x="393.73875" y="27.285344" style="stroke: #000000; stroke-width: 0.8"/>
      </g>
     </g>
     <g id="text_13">
      <!-- 20 -->
      <g transform="translate(20.25 30.855657)scale(0.1 -0.1)">
       <use xlink:href="#HelveticaNeue-Medium-32"/>
       <use xlink:href="#HelveticaNeue-Medium-30" x="55.599991"/>
      </g>
     </g>
    </g>
    <g id="text_14">
     <!-- y -->
     <g transform="translate(14.2 144.601312)rotate(-90)scale(0.1 -0.1)">
      <defs>
       <path id="HelveticaNeue-Medium-79" d="M 1274 13 
L 1190 -243 
C 1101 -525 1018 -704 678 -704 
C 563 -704 448 -678 333 -659 
L 333 -1274 
C 499 -1299 666 -1312 838 -1312 
C 1600 -1312 1773 -774 2010 -179 
L 3296 3309 
L 2534 3309 
L 1696 838 
L 1683 838 
L 819 3309 
L 19 3309 
L 1274 13 
z
" transform="scale(0.015625)"/>
      </defs>
      <use xlink:href="#HelveticaNeue-Medium-79"/>
     </g>
    </g>
   </g>
   <g id="LineCollection_1">
    <path d="M 173.89881 111.138535 
L 173.89881 67.300122 
" clip-path="url(#p8e5c5cf982)" style="fill: none; stroke: #008fd5; stroke-width: 1.5"/>
    <path d="M 370.941444 255.161754 
L 370.941444 211.323342 
" clip-path="url(#p8e5c5cf982)" style="fill: none; stroke: #008fd5; stroke-width: 1.5"/>
    <path d="M 296.142472 190.310919 
L 296.142472 146.472506 
" clip-path="url(#p8e5c5cf982)" style="fill: none; stroke: #008fd5; stroke-width: 1.5"/>
    <path d="M 250.543814 182.846248 
L 250.543814 139.007835 
" clip-path="url(#p8e5c5cf982)" style="fill: none; stroke: #008fd5; stroke-width: 1.5"/>
    <path d="M 99.167854 106.866271 
L 99.167854 63.027858 
" clip-path="url(#p8e5c5cf982)" style="fill: none; stroke: #008fd5; stroke-width: 1.5"/>
    <path d="M 99.159606 78.00654 
L 99.159606 34.168127 
" clip-path="url(#p8e5c5cf982)" style="fill: none; stroke: #008fd5; stroke-width: 1.5"/>
    <path d="M 65.675594 67.846836 
L 65.675594 24.008424 
" clip-path="url(#p8e5c5cf982)" style="fill: none; stroke: #008fd5; stroke-width: 1.5"/>
    <path d="M 342.030704 208.850576 
L 342.030704 165.012163 
" clip-path="url(#p8e5c5cf982)" style="fill: none; stroke: #008fd5; stroke-width: 1.5"/>
    <path d="M 251.383908 150.236089 
L 251.383908 106.397676 
" clip-path="url(#p8e5c5cf982)" style="fill: none; stroke: #008fd5; stroke-width: 1.5"/>
    <path d="M 287.961737 197.530639 
L 287.961737 153.692227 
" clip-path="url(#p8e5c5cf982)" style="fill: none; stroke: #008fd5; stroke-width: 1.5"/>
    <path d="M 52.851477 64.884413 
L 52.851477 21.046 
" clip-path="url(#p8e5c5cf982)" style="fill: none; stroke: #008fd5; stroke-width: 1.5"/>
    <path d="M 377.506023 252.533164 
L 377.506023 208.694751 
" clip-path="url(#p8e5c5cf982)" style="fill: none; stroke: #008fd5; stroke-width: 1.5"/>
    <path d="M 330.494369 213.418217 
L 330.494369 169.579804 
" clip-path="url(#p8e5c5cf982)" style="fill: none; stroke: #008fd5; stroke-width: 1.5"/>
    <path d="M 118.428581 114.368284 
L 118.428581 70.529871 
" clip-path="url(#p8e5c5cf982)" style="fill: none; stroke: #008fd5; stroke-width: 1.5"/>
    <path d="M 107.993218 104.27395 
L 107.993218 60.435538 
" clip-path="url(#p8e5c5cf982)" style="fill: none; stroke: #008fd5; stroke-width: 1.5"/>
    <path d="M 108.533397 93.618798 
L 108.533397 49.780386 
" clip-path="url(#p8e5c5cf982)" style="fill: none; stroke: #008fd5; stroke-width: 1.5"/>
    <path d="M 149.858027 145.016958 
L 149.858027 101.178546 
" clip-path="url(#p8e5c5cf982)" style="fill: none; stroke: #008fd5; stroke-width: 1.5"/>
    <path d="M 225.270459 119.471986 
L 225.270459 75.633574 
" clip-path="url(#p8e5c5cf982)" style="fill: none; stroke: #008fd5; stroke-width: 1.5"/>
    <path d="M 193.530395 171.139068 
L 193.530395 127.300655 
" clip-path="url(#p8e5c5cf982)" style="fill: none; stroke: #008fd5; stroke-width: 1.5"/>
    <path d="M 145.407748 151.477914 
L 145.407748 107.639501 
" clip-path="url(#p8e5c5cf982)" style="fill: none; stroke: #008fd5; stroke-width: 1.5"/>
    <path d="M 255.056098 155.377126 
L 255.056098 111.538714 
" clip-path="url(#p8e5c5cf982)" style="fill: none; stroke: #008fd5; stroke-width: 1.5"/>
    <path d="M 93.516636 81.995863 
L 93.516636 38.157451 
" clip-path="url(#p8e5c5cf982)" style="fill: none; stroke: #008fd5; stroke-width: 1.5"/>
    <path d="M 145.720837 111.339569 
L 145.720837 67.501156 
" clip-path="url(#p8e5c5cf982)" style="fill: none; stroke: #008fd5; stroke-width: 1.5"/>
    <path d="M 171.101967 123.961219 
L 171.101967 80.122806 
" clip-path="url(#p8e5c5cf982)" style="fill: none; stroke: #008fd5; stroke-width: 1.5"/>
    <path d="M 201.780759 153.559904 
L 201.780759 109.721491 
" clip-path="url(#p8e5c5cf982)" style="fill: none; stroke: #008fd5; stroke-width: 1.5"/>
    <path d="M 314.329898 231.594387 
L 314.329898 187.755974 
" clip-path="url(#p8e5c5cf982)" style="fill: none; stroke: #008fd5; stroke-width: 1.5"/>
    <path d="M 114.097235 107.727492 
L 114.097235 63.889079 
" clip-path="url(#p8e5c5cf982)" style="fill: none; stroke: #008fd5; stroke-width: 1.5"/>
    <path d="M 221.6721 178.326144 
L 221.6721 134.487732 
" clip-path="url(#p8e5c5cf982)" style="fill: none; stroke: #008fd5; stroke-width: 1.5"/>
    <path d="M 248.408492 155.930829 
L 248.408492 112.092416 
" clip-path="url(#p8e5c5cf982)" style="fill: none; stroke: #008fd5; stroke-width: 1.5"/>
    <path d="M 61.69722 87.263359 
L 61.69722 43.424946 
" clip-path="url(#p8e5c5cf982)" style="fill: none; stroke: #008fd5; stroke-width: 1.5"/>
    <path d="M 253.582814 198.089312 
L 253.582814 154.250899 
" clip-path="url(#p8e5c5cf982)" style="fill: none; stroke: #008fd5; stroke-width: 1.5"/>
    <path d="M 104.128505 111.556865 
L 104.128505 67.718452 
" clip-path="url(#p8e5c5cf982)" style="fill: none; stroke: #008fd5; stroke-width: 1.5"/>
    <path d="M 68.058535 78.027865 
L 68.058535 34.189453 
" clip-path="url(#p8e5c5cf982)" style="fill: none; stroke: #008fd5; stroke-width: 1.5"/>
    <path d="M 370.316033 254.214644 
L 370.316033 210.376231 
" clip-path="url(#p8e5c5cf982)" style="fill: none; stroke: #008fd5; stroke-width: 1.5"/>
    <path d="M 376.043075 262.966 
L 376.043075 219.127587 
" clip-path="url(#p8e5c5cf982)" style="fill: none; stroke: #008fd5; stroke-width: 1.5"/>
    <path d="M 322.271252 210.804275 
L 322.271252 166.965862 
" clip-path="url(#p8e5c5cf982)" style="fill: none; stroke: #008fd5; stroke-width: 1.5"/>
    <path d="M 149.985083 121.776139 
L 149.985083 77.937726 
" clip-path="url(#p8e5c5cf982)" style="fill: none; stroke: #008fd5; stroke-width: 1.5"/>
    <path d="M 79.214247 103.546338 
L 79.214247 59.707926 
" clip-path="url(#p8e5c5cf982)" style="fill: none; stroke: #008fd5; stroke-width: 1.5"/>
    <path d="M 279.80898 204.029749 
L 279.80898 160.191336 
" clip-path="url(#p8e5c5cf982)" style="fill: none; stroke: #008fd5; stroke-width: 1.5"/>
    <path d="M 196.337224 145.430078 
L 196.337224 101.591665 
" clip-path="url(#p8e5c5cf982)" style="fill: none; stroke: #008fd5; stroke-width: 1.5"/>
    <path d="M 87.547083 128.19714 
L 87.547083 84.358727 
" clip-path="url(#p8e5c5cf982)" style="fill: none; stroke: #008fd5; stroke-width: 1.5"/>
    <path d="M 215.154721 190.985661 
L 215.154721 147.147248 
" clip-path="url(#p8e5c5cf982)" style="fill: none; stroke: #008fd5; stroke-width: 1.5"/>
    <path d="M 57.57224 97.822904 
L 57.57224 53.984491 
" clip-path="url(#p8e5c5cf982)" style="fill: none; stroke: #008fd5; stroke-width: 1.5"/>
    <path d="M 356.785371 239.263931 
L 356.785371 195.425518 
" clip-path="url(#p8e5c5cf982)" style="fill: none; stroke: #008fd5; stroke-width: 1.5"/>
    <path d="M 134.310639 112.537577 
L 134.310639 68.699164 
" clip-path="url(#p8e5c5cf982)" style="fill: none; stroke: #008fd5; stroke-width: 1.5"/>
    <path d="M 272.384243 157.47279 
L 272.384243 113.634377 
" clip-path="url(#p8e5c5cf982)" style="fill: none; stroke: #008fd5; stroke-width: 1.5"/>
    <path d="M 152.412252 109.558274 
L 152.412252 65.719861 
" clip-path="url(#p8e5c5cf982)" style="fill: none; stroke: #008fd5; stroke-width: 1.5"/>
    <path d="M 223.667095 168.015578 
L 223.667095 124.177166 
" clip-path="url(#p8e5c5cf982)" style="fill: none; stroke: #008fd5; stroke-width: 1.5"/>
    <path d="M 232.778334 169.624881 
L 232.778334 125.786468 
" clip-path="url(#p8e5c5cf982)" style="fill: none; stroke: #008fd5; stroke-width: 1.5"/>
    <path d="M 109.029256 128.881351 
L 109.029256 85.042939 
" clip-path="url(#p8e5c5cf982)" style="fill: none; stroke: #008fd5; stroke-width: 1.5"/>
   </g>
   <g id="line2d_25">
    <defs>
     <path id="m0a3c9cf5a8" d="M 2 0 
L -2 -0 
" style="stroke: #008fd5"/>
    </defs>
    <g clip-path="url(#p8e5c5cf982)">
     <use xlink:href="#m0a3c9cf5a8" x="173.89881" y="111.138535" style="fill: #008fd5; stroke: #008fd5"/>
     <use xlink:href="#m0a3c9cf5a8" x="370.941444" y="255.161754" style="fill: #008fd5; stroke: #008fd5"/>
     <use xlink:href="#m0a3c9cf5a8" x="296.142472" y="190.310919" style="fill: #008fd5; stroke: #008fd5"/>
     <use xlink:href="#m0a3c9cf5a8" x="250.543814" y="182.846248" style="fill: #008fd5; stroke: #008fd5"/>
     <use xlink:href="#m0a3c9cf5a8" x="99.167854" y="106.866271" style="fill: #008fd5; stroke: #008fd5"/>
     <use xlink:href="#m0a3c9cf5a8" x="99.159606" y="78.00654" style="fill: #008fd5; stroke: #008fd5"/>
     <use xlink:href="#m0a3c9cf5a8" x="65.675594" y="67.846836" style="fill: #008fd5; stroke: #008fd5"/>
     <use xlink:href="#m0a3c9cf5a8" x="342.030704" y="208.850576" style="fill: #008fd5; stroke: #008fd5"/>
     <use xlink:href="#m0a3c9cf5a8" x="251.383908" y="150.236089" style="fill: #008fd5; stroke: #008fd5"/>
     <use xlink:href="#m0a3c9cf5a8" x="287.961737" y="197.530639" style="fill: #008fd5; stroke: #008fd5"/>
     <use xlink:href="#m0a3c9cf5a8" x="52.851477" y="64.884413" style="fill: #008fd5; stroke: #008fd5"/>
     <use xlink:href="#m0a3c9cf5a8" x="377.506023" y="252.533164" style="fill: #008fd5; stroke: #008fd5"/>
     <use xlink:href="#m0a3c9cf5a8" x="330.494369" y="213.418217" style="fill: #008fd5; stroke: #008fd5"/>
     <use xlink:href="#m0a3c9cf5a8" x="118.428581" y="114.368284" style="fill: #008fd5; stroke: #008fd5"/>
     <use xlink:href="#m0a3c9cf5a8" x="107.993218" y="104.27395" style="fill: #008fd5; stroke: #008fd5"/>
     <use xlink:href="#m0a3c9cf5a8" x="108.533397" y="93.618798" style="fill: #008fd5; stroke: #008fd5"/>
     <use xlink:href="#m0a3c9cf5a8" x="149.858027" y="145.016958" style="fill: #008fd5; stroke: #008fd5"/>
     <use xlink:href="#m0a3c9cf5a8" x="225.270459" y="119.471986" style="fill: #008fd5; stroke: #008fd5"/>
     <use xlink:href="#m0a3c9cf5a8" x="193.530395" y="171.139068" style="fill: #008fd5; stroke: #008fd5"/>
     <use xlink:href="#m0a3c9cf5a8" x="145.407748" y="151.477914" style="fill: #008fd5; stroke: #008fd5"/>
     <use xlink:href="#m0a3c9cf5a8" x="255.056098" y="155.377126" style="fill: #008fd5; stroke: #008fd5"/>
     <use xlink:href="#m0a3c9cf5a8" x="93.516636" y="81.995863" style="fill: #008fd5; stroke: #008fd5"/>
     <use xlink:href="#m0a3c9cf5a8" x="145.720837" y="111.339569" style="fill: #008fd5; stroke: #008fd5"/>
     <use xlink:href="#m0a3c9cf5a8" x="171.101967" y="123.961219" style="fill: #008fd5; stroke: #008fd5"/>
     <use xlink:href="#m0a3c9cf5a8" x="201.780759" y="153.559904" style="fill: #008fd5; stroke: #008fd5"/>
     <use xlink:href="#m0a3c9cf5a8" x="314.329898" y="231.594387" style="fill: #008fd5; stroke: #008fd5"/>
     <use xlink:href="#m0a3c9cf5a8" x="114.097235" y="107.727492" style="fill: #008fd5; stroke: #008fd5"/>
     <use xlink:href="#m0a3c9cf5a8" x="221.6721" y="178.326144" style="fill: #008fd5; stroke: #008fd5"/>
     <use xlink:href="#m0a3c9cf5a8" x="248.408492" y="155.930829" style="fill: #008fd5; stroke: #008fd5"/>
     <use xlink:href="#m0a3c9cf5a8" x="61.69722" y="87.263359" style="fill: #008fd5; stroke: #008fd5"/>
     <use xlink:href="#m0a3c9cf5a8" x="253.582814" y="198.089312" style="fill: #008fd5; stroke: #008fd5"/>
     <use xlink:href="#m0a3c9cf5a8" x="104.128505" y="111.556865" style="fill: #008fd5; stroke: #008fd5"/>
     <use xlink:href="#m0a3c9cf5a8" x="68.058535" y="78.027865" style="fill: #008fd5; stroke: #008fd5"/>
     <use xlink:href="#m0a3c9cf5a8" x="370.316033" y="254.214644" style="fill: #008fd5; stroke: #008fd5"/>
     <use xlink:href="#m0a3c9cf5a8" x="376.043075" y="262.966" style="fill: #008fd5; stroke: #008fd5"/>
     <use xlink:href="#m0a3c9cf5a8" x="322.271252" y="210.804275" style="fill: #008fd5; stroke: #008fd5"/>
     <use xlink:href="#m0a3c9cf5a8" x="149.985083" y="121.776139" style="fill: #008fd5; stroke: #008fd5"/>
     <use xlink:href="#m0a3c9cf5a8" x="79.214247" y="103.546338" style="fill: #008fd5; stroke: #008fd5"/>
     <use xlink:href="#m0a3c9cf5a8" x="279.80898" y="204.029749" style="fill: #008fd5; stroke: #008fd5"/>
     <use xlink:href="#m0a3c9cf5a8" x="196.337224" y="145.430078" style="fill: #008fd5; stroke: #008fd5"/>
     <use xlink:href="#m0a3c9cf5a8" x="87.547083" y="128.19714" style="fill: #008fd5; stroke: #008fd5"/>
     <use xlink:href="#m0a3c9cf5a8" x="215.154721" y="190.985661" style="fill: #008fd5; stroke: #008fd5"/>
     <use xlink:href="#m0a3c9cf5a8" x="57.57224" y="97.822904" style="fill: #008fd5; stroke: #008fd5"/>
     <use xlink:href="#m0a3c9cf5a8" x="356.785371" y="239.263931" style="fill: #008fd5; stroke: #008fd5"/>
     <use xlink:href="#m0a3c9cf5a8" x="134.310639" y="112.537577" style="fill: #008fd5; stroke: #008fd5"/>
     <use xlink:href="#m0a3c9cf5a8" x="272.384243" y="157.47279" style="fill: #008fd5; stroke: #008fd5"/>
     <use xlink:href="#m0a3c9cf5a8" x="152.412252" y="109.558274" style="fill: #008fd5; stroke: #008fd5"/>
     <use xlink:href="#m0a3c9cf5a8" x="223.667095" y="168.015578" style="fill: #008fd5; stroke: #008fd5"/>
     <use xlink:href="#m0a3c9cf5a8" x="232.778334" y="169.624881" style="fill: #008fd5; stroke: #008fd5"/>
     <use xlink:href="#m0a3c9cf5a8" x="109.029256" y="128.881351" style="fill: #008fd5; stroke: #008fd5"/>
    </g>
   </g>
   <g id="line2d_26">
    <g clip-path="url(#p8e5c5cf982)">
     <use xlink:href="#m0a3c9cf5a8" x="173.89881" y="67.300122" style="fill: #008fd5; stroke: #008fd5"/>
     <use xlink:href="#m0a3c9cf5a8" x="370.941444" y="211.323342" style="fill: #008fd5; stroke: #008fd5"/>
     <use xlink:href="#m0a3c9cf5a8" x="296.142472" y="146.472506" style="fill: #008fd5; stroke: #008fd5"/>
     <use xlink:href="#m0a3c9cf5a8" x="250.543814" y="139.007835" style="fill: #008fd5; stroke: #008fd5"/>
     <use xlink:href="#m0a3c9cf5a8" x="99.167854" y="63.027858" style="fill: #008fd5; stroke: #008fd5"/>
     <use xlink:href="#m0a3c9cf5a8" x="99.159606" y="34.168127" style="fill: #008fd5; stroke: #008fd5"/>
     <use xlink:href="#m0a3c9cf5a8" x="65.675594" y="24.008424" style="fill: #008fd5; stroke: #008fd5"/>
     <use xlink:href="#m0a3c9cf5a8" x="342.030704" y="165.012163" style="fill: #008fd5; stroke: #008fd5"/>
     <use xlink:href="#m0a3c9cf5a8" x="251.383908" y="106.397676" style="fill: #008fd5; stroke: #008fd5"/>
     <use xlink:href="#m0a3c9cf5a8" x="287.961737" y="153.692227" style="fill: #008fd5; stroke: #008fd5"/>
     <use xlink:href="#m0a3c9cf5a8" x="52.851477" y="21.046" style="fill: #008fd5; stroke: #008fd5"/>
     <use xlink:href="#m0a3c9cf5a8" x="377.506023" y="208.694751" style="fill: #008fd5; stroke: #008fd5"/>
     <use xlink:href="#m0a3c9cf5a8" x="330.494369" y="169.579804" style="fill: #008fd5; stroke: #008fd5"/>
     <use xlink:href="#m0a3c9cf5a8" x="118.428581" y="70.529871" style="fill: #008fd5; stroke: #008fd5"/>
     <use xlink:href="#m0a3c9cf5a8" x="107.993218" y="60.435538" style="fill: #008fd5; stroke: #008fd5"/>
     <use xlink:href="#m0a3c9cf5a8" x="108.533397" y="49.780386" style="fill: #008fd5; stroke: #008fd5"/>
     <use xlink:href="#m0a3c9cf5a8" x="149.858027" y="101.178546" style="fill: #008fd5; stroke: #008fd5"/>
     <use xlink:href="#m0a3c9cf5a8" x="225.270459" y="75.633574" style="fill: #008fd5; stroke: #008fd5"/>
     <use xlink:href="#m0a3c9cf5a8" x="193.530395" y="127.300655" style="fill: #008fd5; stroke: #008fd5"/>
     <use xlink:href="#m0a3c9cf5a8" x="145.407748" y="107.639501" style="fill: #008fd5; stroke: #008fd5"/>
     <use xlink:href="#m0a3c9cf5a8" x="255.056098" y="111.538714" style="fill: #008fd5; stroke: #008fd5"/>
     <use xlink:href="#m0a3c9cf5a8" x="93.516636" y="38.157451" style="fill: #008fd5; stroke: #008fd5"/>
     <use xlink:href="#m0a3c9cf5a8" x="145.720837" y="67.501156" style="fill: #008fd5; stroke: #008fd5"/>
     <use xlink:href="#m0a3c9cf5a8" x="171.101967" y="80.122806" style="fill: #008fd5; stroke: #008fd5"/>
     <use xlink:href="#m0a3c9cf5a8" x="201.780759" y="109.721491" style="fill: #008fd5; stroke: #008fd5"/>
     <use xlink:href="#m0a3c9cf5a8" x="314.329898" y="187.755974" style="fill: #008fd5; stroke: #008fd5"/>
     <use xlink:href="#m0a3c9cf5a8" x="114.097235" y="63.889079" style="fill: #008fd5; stroke: #008fd5"/>
     <use xlink:href="#m0a3c9cf5a8" x="221.6721" y="134.487732" style="fill: #008fd5; stroke: #008fd5"/>
     <use xlink:href="#m0a3c9cf5a8" x="248.408492" y="112.092416" style="fill: #008fd5; stroke: #008fd5"/>
     <use xlink:href="#m0a3c9cf5a8" x="61.69722" y="43.424946" style="fill: #008fd5; stroke: #008fd5"/>
     <use xlink:href="#m0a3c9cf5a8" x="253.582814" y="154.250899" style="fill: #008fd5; stroke: #008fd5"/>
     <use xlink:href="#m0a3c9cf5a8" x="104.128505" y="67.718452" style="fill: #008fd5; stroke: #008fd5"/>
     <use xlink:href="#m0a3c9cf5a8" x="68.058535" y="34.189453" style="fill: #008fd5; stroke: #008fd5"/>
     <use xlink:href="#m0a3c9cf5a8" x="370.316033" y="210.376231" style="fill: #008fd5; stroke: #008fd5"/>
     <use xlink:href="#m0a3c9cf5a8" x="376.043075" y="219.127587" style="fill: #008fd5; stroke: #008fd5"/>
     <use xlink:href="#m0a3c9cf5a8" x="322.271252" y="166.965862" style="fill: #008fd5; stroke: #008fd5"/>
     <use xlink:href="#m0a3c9cf5a8" x="149.985083" y="77.937726" style="fill: #008fd5; stroke: #008fd5"/>
     <use xlink:href="#m0a3c9cf5a8" x="79.214247" y="59.707926" style="fill: #008fd5; stroke: #008fd5"/>
     <use xlink:href="#m0a3c9cf5a8" x="279.80898" y="160.191336" style="fill: #008fd5; stroke: #008fd5"/>
     <use xlink:href="#m0a3c9cf5a8" x="196.337224" y="101.591665" style="fill: #008fd5; stroke: #008fd5"/>
     <use xlink:href="#m0a3c9cf5a8" x="87.547083" y="84.358727" style="fill: #008fd5; stroke: #008fd5"/>
     <use xlink:href="#m0a3c9cf5a8" x="215.154721" y="147.147248" style="fill: #008fd5; stroke: #008fd5"/>
     <use xlink:href="#m0a3c9cf5a8" x="57.57224" y="53.984491" style="fill: #008fd5; stroke: #008fd5"/>
     <use xlink:href="#m0a3c9cf5a8" x="356.785371" y="195.425518" style="fill: #008fd5; stroke: #008fd5"/>
     <use xlink:href="#m0a3c9cf5a8" x="134.310639" y="68.699164" style="fill: #008fd5; stroke: #008fd5"/>
     <use xlink:href="#m0a3c9cf5a8" x="272.384243" y="113.634377" style="fill: #008fd5; stroke: #008fd5"/>
     <use xlink:href="#m0a3c9cf5a8" x="152.412252" y="65.719861" style="fill: #008fd5; stroke: #008fd5"/>
     <use xlink:href="#m0a3c9cf5a8" x="223.667095" y="124.177166" style="fill: #008fd5; stroke: #008fd5"/>
     <use xlink:href="#m0a3c9cf5a8" x="232.778334" y="125.786468" style="fill: #008fd5; stroke: #008fd5"/>
     <use xlink:href="#m0a3c9cf5a8" x="109.029256" y="85.042939" style="fill: #008fd5; stroke: #008fd5"/>
    </g>
   </g>
   <g id="line2d_27">
    <defs>
     <path id="m1785138a44" d="M 0 3 
C 0.795609 3 1.55874 2.683901 2.12132 2.12132 
C 2.683901 1.55874 3 0.795609 3 0 
C 3 -0.795609 2.683901 -1.55874 2.12132 -2.12132 
C 1.55874 -2.683901 0.795609 -3 0 -3 
C -0.795609 -3 -1.55874 -2.683901 -2.12132 -2.12132 
C -2.683901 -1.55874 -3 -0.795609 -3 0 
C -3 0.795609 -2.683901 1.55874 -2.12132 2.12132 
C -1.55874 2.683901 -0.795609 3 0 3 
z
" style="stroke: #008fd5"/>
    </defs>
    <g clip-path="url(#p8e5c5cf982)">
     <use xlink:href="#m1785138a44" x="173.89881" y="89.219328" style="fill: #008fd5; stroke: #008fd5"/>
     <use xlink:href="#m1785138a44" x="370.941444" y="233.242548" style="fill: #008fd5; stroke: #008fd5"/>
     <use xlink:href="#m1785138a44" x="296.142472" y="168.391712" style="fill: #008fd5; stroke: #008fd5"/>
     <use xlink:href="#m1785138a44" x="250.543814" y="160.927042" style="fill: #008fd5; stroke: #008fd5"/>
     <use xlink:href="#m1785138a44" x="99.167854" y="84.947064" style="fill: #008fd5; stroke: #008fd5"/>
     <use xlink:href="#m1785138a44" x="99.159606" y="56.087334" style="fill: #008fd5; stroke: #008fd5"/>
     <use xlink:href="#m1785138a44" x="65.675594" y="45.92763" style="fill: #008fd5; stroke: #008fd5"/>
     <use xlink:href="#m1785138a44" x="342.030704" y="186.93137" style="fill: #008fd5; stroke: #008fd5"/>
     <use xlink:href="#m1785138a44" x="251.383908" y="128.316882" style="fill: #008fd5; stroke: #008fd5"/>
     <use xlink:href="#m1785138a44" x="287.961737" y="175.611433" style="fill: #008fd5; stroke: #008fd5"/>
     <use xlink:href="#m1785138a44" x="52.851477" y="42.965206" style="fill: #008fd5; stroke: #008fd5"/>
     <use xlink:href="#m1785138a44" x="377.506023" y="230.613958" style="fill: #008fd5; stroke: #008fd5"/>
     <use xlink:href="#m1785138a44" x="330.494369" y="191.49901" style="fill: #008fd5; stroke: #008fd5"/>
     <use xlink:href="#m1785138a44" x="118.428581" y="92.449077" style="fill: #008fd5; stroke: #008fd5"/>
     <use xlink:href="#m1785138a44" x="107.993218" y="82.354744" style="fill: #008fd5; stroke: #008fd5"/>
     <use xlink:href="#m1785138a44" x="108.533397" y="71.699592" style="fill: #008fd5; stroke: #008fd5"/>
     <use xlink:href="#m1785138a44" x="149.858027" y="123.097752" style="fill: #008fd5; stroke: #008fd5"/>
     <use xlink:href="#m1785138a44" x="225.270459" y="97.55278" style="fill: #008fd5; stroke: #008fd5"/>
     <use xlink:href="#m1785138a44" x="193.530395" y="149.219862" style="fill: #008fd5; stroke: #008fd5"/>
     <use xlink:href="#m1785138a44" x="145.407748" y="129.558708" style="fill: #008fd5; stroke: #008fd5"/>
     <use xlink:href="#m1785138a44" x="255.056098" y="133.45792" style="fill: #008fd5; stroke: #008fd5"/>
     <use xlink:href="#m1785138a44" x="93.516636" y="60.076657" style="fill: #008fd5; stroke: #008fd5"/>
     <use xlink:href="#m1785138a44" x="145.720837" y="89.420362" style="fill: #008fd5; stroke: #008fd5"/>
     <use xlink:href="#m1785138a44" x="171.101967" y="102.042013" style="fill: #008fd5; stroke: #008fd5"/>
     <use xlink:href="#m1785138a44" x="201.780759" y="131.640698" style="fill: #008fd5; stroke: #008fd5"/>
     <use xlink:href="#m1785138a44" x="314.329898" y="209.67518" style="fill: #008fd5; stroke: #008fd5"/>
     <use xlink:href="#m1785138a44" x="114.097235" y="85.808285" style="fill: #008fd5; stroke: #008fd5"/>
     <use xlink:href="#m1785138a44" x="221.6721" y="156.406938" style="fill: #008fd5; stroke: #008fd5"/>
     <use xlink:href="#m1785138a44" x="248.408492" y="134.011623" style="fill: #008fd5; stroke: #008fd5"/>
     <use xlink:href="#m1785138a44" x="61.69722" y="65.344152" style="fill: #008fd5; stroke: #008fd5"/>
     <use xlink:href="#m1785138a44" x="253.582814" y="176.170106" style="fill: #008fd5; stroke: #008fd5"/>
     <use xlink:href="#m1785138a44" x="104.128505" y="89.637659" style="fill: #008fd5; stroke: #008fd5"/>
     <use xlink:href="#m1785138a44" x="68.058535" y="56.108659" style="fill: #008fd5; stroke: #008fd5"/>
     <use xlink:href="#m1785138a44" x="370.316033" y="232.295438" style="fill: #008fd5; stroke: #008fd5"/>
     <use xlink:href="#m1785138a44" x="376.043075" y="241.046794" style="fill: #008fd5; stroke: #008fd5"/>
     <use xlink:href="#m1785138a44" x="322.271252" y="188.885068" style="fill: #008fd5; stroke: #008fd5"/>
     <use xlink:href="#m1785138a44" x="149.985083" y="99.856933" style="fill: #008fd5; stroke: #008fd5"/>
     <use xlink:href="#m1785138a44" x="79.214247" y="81.627132" style="fill: #008fd5; stroke: #008fd5"/>
     <use xlink:href="#m1785138a44" x="279.80898" y="182.110542" style="fill: #008fd5; stroke: #008fd5"/>
     <use xlink:href="#m1785138a44" x="196.337224" y="123.510872" style="fill: #008fd5; stroke: #008fd5"/>
     <use xlink:href="#m1785138a44" x="87.547083" y="106.277934" style="fill: #008fd5; stroke: #008fd5"/>
     <use xlink:href="#m1785138a44" x="215.154721" y="169.066455" style="fill: #008fd5; stroke: #008fd5"/>
     <use xlink:href="#m1785138a44" x="57.57224" y="75.903697" style="fill: #008fd5; stroke: #008fd5"/>
     <use xlink:href="#m1785138a44" x="356.785371" y="217.344725" style="fill: #008fd5; stroke: #008fd5"/>
     <use xlink:href="#m1785138a44" x="134.310639" y="90.618371" style="fill: #008fd5; stroke: #008fd5"/>
     <use xlink:href="#m1785138a44" x="272.384243" y="135.553584" style="fill: #008fd5; stroke: #008fd5"/>
     <use xlink:href="#m1785138a44" x="152.412252" y="87.639067" style="fill: #008fd5; stroke: #008fd5"/>
     <use xlink:href="#m1785138a44" x="223.667095" y="146.096372" style="fill: #008fd5; stroke: #008fd5"/>
     <use xlink:href="#m1785138a44" x="232.778334" y="147.705674" style="fill: #008fd5; stroke: #008fd5"/>
     <use xlink:href="#m1785138a44" x="109.029256" y="106.962145" style="fill: #008fd5; stroke: #008fd5"/>
    </g>
   </g>
   <g id="patch_3">
    <path d="M 36.61875 275.062 
L 36.61875 8.95 
" style="fill: none; stroke: #000000; stroke-width: 0.8; stroke-linejoin: miter; stroke-linecap: square"/>
   </g>
   <g id="patch_4">
    <path d="M 393.73875 275.062 
L 393.73875 8.95 
" style="fill: none; stroke: #000000; stroke-width: 0.8; stroke-linejoin: miter; stroke-linecap: square"/>
   </g>
   <g id="patch_5">
    <path d="M 36.61875 275.062 
L 393.73875 275.062 
" style="fill: none; stroke: #000000; stroke-width: 0.8; stroke-linejoin: miter; stroke-linecap: square"/>
   </g>
   <g id="patch_6">
    <path d="M 36.61875 8.95 
L 393.73875 8.95 
" style="fill: none; stroke: #000000; stroke-width: 0.8; stroke-linejoin: miter; stroke-linecap: square"/>
   </g>
  </g>
 </g>
 <defs>
  <clipPath id="p8e5c5cf982">
   <rect x="36.61875" y="8.95" width="357.12" height="266.112"/>
  </clipPath>
 </defs>
</svg>
