<?xml version="1.0" encoding="utf-8" standalone="no"?>
<!DOCTYPE svg PUBLIC "-//W3C//DTD SVG 1.1//EN"
  "http://www.w3.org/Graphics/SVG/1.1/DTD/svg11.dtd">
<svg xmlns:xlink="http://www.w3.org/1999/xlink" width="421.529375pt" height="310.062pt" viewBox="0 0 421.529375 310.062" xmlns="http://www.w3.org/2000/svg" version="1.1">
 <metadata>
  <rdf:RDF xmlns:dc="http://purl.org/dc/elements/1.1/" xmlns:cc="http://creativecommons.org/ns#" xmlns:rdf="http://www.w3.org/1999/02/22-rdf-syntax-ns#">
   <cc:Work>
    <dc:type rdf:resource="http://purl.org/dc/dcmitype/StillImage"/>
    <dc:date>2023-06-23T00:34:36.263985</dc:date>
    <dc:format>image/svg+xml</dc:format>
    <dc:creator>
     <cc:Agent>
      <dc:title>Matplotlib v3.5.1, https://matplotlib.org/</dc:title>
     </cc:Agent>
    </dc:creator>
   </cc:Work>
  </rdf:RDF>
 </metadata>
 <defs>
  <style type="text/css">*{stroke-linejoin: round; stroke-linecap: butt}</style>
 </defs>
 <g id="figure_1">
  <g id="patch_1">
   <path d="M 0 310.062 
L 421.529375 310.062 
L 421.529375 0 
L 0 0 
z
" style="fill: #ffffff"/>
  </g>
  <g id="axes_1">
   <g id="patch_2">
    <path d="M 55.459375 275.062 
L 412.579375 275.062 
L 412.579375 8.95 
L 55.459375 8.95 
z
" style="fill: #ffffff"/>
   </g>
   <g id="PolyCollection_1">
    <defs>
     <path id="m38fb91473e" d="M 76.264702 -95.6499 
L 76.264702 -63.225906 
L 77.066912 -63.749575 
L 77.869122 -64.273245 
L 78.671333 -64.796914 
L 79.473543 -65.320583 
L 80.275753 -65.844253 
L 81.077964 -66.367922 
L 81.880174 -66.891592 
L 82.682385 -67.415261 
L 83.484595 -67.938931 
L 84.286805 -68.462601 
L 85.089016 -68.98627 
L 85.891226 -69.50994 
L 86.693437 -70.03361 
L 87.495647 -70.55728 
L 88.297857 -71.08095 
L 89.100068 -71.60462 
L 89.902278 -72.128291 
L 90.704489 -72.651961 
L 91.506699 -73.175631 
L 92.308909 -73.699301 
L 93.11112 -74.222972 
L 93.91333 -74.746642 
L 94.715541 -75.270313 
L 95.517751 -75.793984 
L 96.319961 -76.317654 
L 97.122172 -76.841325 
L 97.924382 -77.364996 
L 98.726592 -77.888667 
L 99.528803 -78.412338 
L 100.331013 -78.936009 
L 101.133224 -79.45968 
L 101.935434 -79.983351 
L 102.737644 -80.507022 
L 103.539855 -81.030693 
L 104.342065 -81.554365 
L 105.144276 -82.078036 
L 105.946486 -82.601708 
L 106.748696 -83.125379 
L 107.550907 -83.649051 
L 108.353117 -84.172723 
L 109.155328 -84.696394 
L 109.957538 -85.220066 
L 110.759748 -85.743738 
L 111.561959 -86.26741 
L 112.364169 -86.791082 
L 113.16638 -87.314754 
L 113.96859 -87.838426 
L 114.7708 -88.362098 
L 115.573011 -88.88577 
L 116.375221 -89.409443 
L 117.177431 -89.933115 
L 117.979642 -90.456788 
L 118.781852 -90.98046 
L 119.584063 -91.504133 
L 120.386273 -92.027805 
L 121.188483 -92.551478 
L 121.990694 -93.075151 
L 122.792904 -93.598824 
L 123.595115 -94.122497 
L 124.397325 -94.64617 
L 125.199535 -95.169843 
L 126.001746 -95.693516 
L 126.803956 -96.217189 
L 127.606167 -96.740862 
L 128.408377 -97.264535 
L 129.210587 -97.788209 
L 130.012798 -98.311882 
L 130.815008 -98.835556 
L 131.617219 -99.359229 
L 132.419429 -99.882903 
L 133.221639 -100.406577 
L 134.02385 -100.93025 
L 134.82606 -101.453924 
L 135.62827 -101.977598 
L 136.430481 -102.501272 
L 137.232691 -103.024946 
L 138.034902 -103.54862 
L 138.837112 -104.072294 
L 139.639322 -104.595968 
L 140.441533 -105.119643 
L 141.243743 -105.643317 
L 142.045954 -106.166991 
L 142.848164 -106.690666 
L 143.650374 -107.214341 
L 144.452585 -107.738015 
L 145.254795 -108.26169 
L 146.057006 -108.785365 
L 146.859216 -109.309039 
L 147.661426 -109.832714 
L 148.463637 -110.356389 
L 149.265847 -110.880064 
L 150.068058 -111.403739 
L 150.870268 -111.927414 
L 151.672478 -112.451089 
L 152.474689 -112.974765 
L 153.276899 -113.49844 
L 154.079109 -114.022115 
L 154.88132 -114.545791 
L 155.68353 -115.069466 
L 156.485741 -115.593142 
L 157.287951 -116.116818 
L 158.090161 -116.640493 
L 158.892372 -117.164169 
L 159.694582 -117.687845 
L 160.496793 -118.211521 
L 161.299003 -118.735197 
L 162.101213 -119.258873 
L 162.903424 -119.782549 
L 163.705634 -120.306225 
L 164.507845 -120.829901 
L 165.310055 -121.353578 
L 166.112265 -121.877254 
L 166.914476 -122.40093 
L 167.716686 -122.924607 
L 168.518897 -123.448283 
L 169.321107 -123.97196 
L 170.123317 -124.495637 
L 170.925528 -125.019314 
L 171.727738 -125.54299 
L 172.529948 -126.066667 
L 173.332159 -126.590344 
L 174.134369 -127.11515 
L 174.93658 -127.651899 
L 175.73879 -128.188654 
L 176.541 -128.725415 
L 177.343211 -129.262183 
L 178.145421 -129.798958 
L 178.947632 -130.335739 
L 179.749842 -130.872527 
L 180.552052 -131.409321 
L 181.354263 -131.946122 
L 182.156473 -132.48293 
L 182.958684 -133.019744 
L 183.760894 -133.556564 
L 184.563104 -134.093391 
L 185.365315 -134.630225 
L 186.167525 -135.167065 
L 186.969736 -135.703911 
L 187.771946 -136.240765 
L 188.574156 -136.777624 
L 189.376367 -137.314491 
L 190.178577 -137.851364 
L 190.980787 -138.388243 
L 191.782998 -138.925129 
L 192.585208 -139.462022 
L 193.387419 -139.998921 
L 194.189629 -140.535827 
L 194.991839 -141.072739 
L 195.79405 -141.609658 
L 196.59626 -142.146583 
L 197.398471 -142.683516 
L 198.200681 -143.220454 
L 199.002891 -143.757399 
L 199.805102 -144.294351 
L 200.607312 -144.83131 
L 201.409523 -145.368275 
L 202.211733 -145.905246 
L 203.013943 -146.442224 
L 203.816154 -146.979209 
L 204.618364 -147.547493 
L 205.420575 -148.125878 
L 206.222785 -148.70427 
L 207.024995 -149.225568 
L 207.827206 -149.711432 
L 208.629416 -150.197298 
L 209.431626 -150.683167 
L 210.233837 -151.169038 
L 211.036047 -151.675493 
L 211.838258 -152.188163 
L 212.640468 -152.700835 
L 213.442678 -153.213511 
L 214.244889 -153.726189 
L 215.047099 -154.23887 
L 215.84931 -154.745106 
L 216.65152 -155.239126 
L 217.45373 -155.733147 
L 218.255941 -156.227168 
L 219.058151 -156.721191 
L 219.860362 -157.215214 
L 220.662572 -157.709237 
L 221.464782 -158.203262 
L 222.266993 -158.697286 
L 223.069203 -159.191312 
L 223.871414 -159.685338 
L 224.673624 -160.179365 
L 225.475834 -160.619703 
L 226.278045 -161.052081 
L 227.080255 -161.484462 
L 227.882466 -161.916848 
L 228.684676 -162.349237 
L 229.486886 -162.781631 
L 230.289097 -163.214028 
L 231.091307 -163.64643 
L 231.893517 -164.078836 
L 232.695728 -164.511245 
L 233.497938 -164.973689 
L 234.300149 -165.438466 
L 235.102359 -165.903247 
L 235.904569 -166.368032 
L 236.70678 -166.832821 
L 237.50899 -167.297614 
L 238.311201 -167.762411 
L 239.113411 -168.229178 
L 239.915621 -168.7165 
L 240.717832 -169.203826 
L 241.520042 -169.691156 
L 242.322253 -170.178489 
L 243.124463 -170.665826 
L 243.926673 -171.153167 
L 244.728884 -171.640511 
L 245.531094 -172.12786 
L 246.333305 -172.652341 
L 247.135515 -173.181659 
L 247.937725 -173.70603 
L 248.739936 -174.212049 
L 249.542146 -174.718085 
L 250.344356 -175.234054 
L 251.146567 -175.75236 
L 251.948777 -176.27067 
L 252.750988 -176.788983 
L 253.553198 -177.307301 
L 254.355408 -177.825621 
L 255.157619 -178.343946 
L 255.959829 -178.862274 
L 256.76204 -179.380606 
L 257.56425 -179.898941 
L 258.36646 -180.41728 
L 259.168671 -180.935623 
L 259.970881 -181.45397 
L 260.773092 -181.940088 
L 261.575302 -182.430148 
L 262.377512 -182.920272 
L 263.179723 -183.410458 
L 263.981933 -183.905365 
L 264.784144 -184.523476 
L 265.586354 -185.00292 
L 266.388564 -185.414239 
L 267.190775 -185.825561 
L 267.992985 -186.236885 
L 268.795195 -186.651947 
L 269.597406 -187.131553 
L 270.399616 -187.660451 
L 271.201827 -188.059554 
L 272.004037 -188.451432 
L 272.806247 -188.843315 
L 273.608458 -189.235258 
L 274.410668 -189.666065 
L 275.212879 -190.096878 
L 276.015089 -190.527696 
L 276.817299 -190.958521 
L 277.61951 -191.401093 
L 278.42172 -191.852354 
L 279.223931 -192.303615 
L 280.026141 -192.754878 
L 280.828351 -193.206143 
L 281.630562 -193.657408 
L 282.432772 -194.108675 
L 283.234983 -194.559943 
L 284.037193 -195.011213 
L 284.839403 -195.46698 
L 285.641614 -195.936711 
L 286.443824 -196.374423 
L 287.246034 -196.783684 
L 288.048245 -197.18659 
L 288.850455 -197.589497 
L 289.652666 -197.992403 
L 290.454876 -198.395309 
L 291.257086 -198.798215 
L 292.059297 -199.201121 
L 292.861507 -199.604028 
L 293.663718 -200.006934 
L 294.465928 -200.40984 
L 295.268138 -200.812746 
L 296.070349 -201.215653 
L 296.872559 -201.606429 
L 297.67477 -201.996604 
L 298.47698 -202.386785 
L 299.27919 -202.77697 
L 300.081401 -203.16716 
L 300.883611 -203.557354 
L 301.685822 -203.947554 
L 302.488032 -204.337759 
L 303.290242 -204.727968 
L 304.092453 -205.118183 
L 304.894663 -205.508402 
L 305.696873 -205.931649 
L 306.499084 -206.369201 
L 307.301294 -206.80679 
L 308.103505 -207.244415 
L 308.905715 -207.662152 
L 309.707925 -208.065058 
L 310.510136 -208.467965 
L 311.312346 -208.870871 
L 312.114557 -209.273777 
L 312.916767 -209.676683 
L 313.718977 -210.07959 
L 314.521188 -210.482496 
L 315.323398 -210.885402 
L 316.125609 -211.288308 
L 316.927819 -211.691214 
L 317.730029 -212.094121 
L 318.53224 -212.497027 
L 319.33445 -212.899933 
L 320.136661 -213.302839 
L 320.938871 -213.705746 
L 321.741081 -214.108652 
L 322.543292 -214.511558 
L 323.345502 -214.914464 
L 324.147712 -215.31737 
L 324.949923 -215.720277 
L 325.752133 -216.123183 
L 326.554344 -216.526089 
L 327.356554 -216.928995 
L 328.158764 -217.331902 
L 328.960975 -217.734808 
L 329.763185 -218.137714 
L 330.565396 -218.54062 
L 331.367606 -218.943526 
L 332.169816 -219.346433 
L 332.972027 -219.749339 
L 333.774237 -220.152245 
L 334.576448 -220.555151 
L 335.378658 -220.958058 
L 336.180868 -221.360964 
L 336.983079 -221.76387 
L 337.785289 -222.166776 
L 338.5875 -222.569682 
L 339.38971 -222.972589 
L 340.19192 -223.375495 
L 340.994131 -223.778401 
L 341.796341 -224.181307 
L 342.598551 -224.584214 
L 343.400762 -224.98712 
L 344.202972 -225.390026 
L 345.005183 -225.792932 
L 345.807393 -226.195838 
L 346.609603 -226.598745 
L 347.411814 -227.001651 
L 348.214024 -227.404557 
L 349.016235 -227.807463 
L 349.818445 -228.21037 
L 350.620655 -228.613276 
L 351.422866 -229.016182 
L 352.225076 -229.419088 
L 353.027287 -229.821994 
L 353.829497 -230.224901 
L 354.631707 -230.627807 
L 355.433918 -231.030713 
L 356.236128 -231.433619 
L 357.038339 -231.836526 
L 357.840549 -232.239432 
L 358.642759 -232.642338 
L 359.44497 -233.045244 
L 360.24718 -233.44815 
L 361.04939 -233.851057 
L 361.851601 -234.253963 
L 362.653811 -234.656869 
L 363.456022 -235.059775 
L 364.258232 -235.462682 
L 365.060442 -235.865588 
L 365.862653 -236.268494 
L 366.664863 -236.6714 
L 367.467074 -237.074306 
L 368.269284 -237.477213 
L 369.071494 -237.880119 
L 369.873705 -238.283025 
L 370.675915 -238.685931 
L 371.478126 -239.088838 
L 372.280336 -239.491744 
L 373.082546 -239.89465 
L 373.884757 -240.297556 
L 374.686967 -240.700462 
L 375.489178 -241.103369 
L 376.291388 -241.506275 
L 377.093598 -241.909181 
L 377.895809 -242.312087 
L 378.698019 -242.714994 
L 379.50023 -243.1179 
L 380.30244 -243.520806 
L 381.10465 -243.923712 
L 381.906861 -244.326618 
L 382.709071 -244.729525 
L 383.511281 -245.132431 
L 384.313492 -245.535337 
L 385.115702 -245.938243 
L 385.917913 -246.34115 
L 386.720123 -246.744056 
L 387.522333 -247.146962 
L 388.324544 -247.549868 
L 389.126754 -247.952774 
L 389.928965 -248.355681 
L 390.731175 -248.758587 
L 391.533385 -249.161493 
L 392.335596 -249.564399 
L 393.137806 -249.967306 
L 393.940017 -250.370212 
L 394.742227 -250.773118 
L 395.544437 -251.176024 
L 396.346648 -251.57893 
L 396.346648 -272.097894 
L 396.346648 -272.097894 
L 395.544437 -271.581632 
L 394.742227 -271.065369 
L 393.940017 -270.549107 
L 393.137806 -270.032845 
L 392.335596 -269.516583 
L 391.533385 -269.00032 
L 390.731175 -268.484058 
L 389.928965 -267.967797 
L 389.126754 -267.451535 
L 388.324544 -266.935273 
L 387.522333 -266.419011 
L 386.720123 -265.90275 
L 385.917913 -265.386488 
L 385.115702 -264.884793 
L 384.313492 -264.383867 
L 383.511281 -263.882941 
L 382.709071 -263.382016 
L 381.906861 -262.881092 
L 381.10465 -262.380169 
L 380.30244 -261.874107 
L 379.50023 -261.357484 
L 378.698019 -260.840862 
L 377.895809 -260.324242 
L 377.093598 -259.807622 
L 376.291388 -259.291003 
L 375.489178 -258.774386 
L 374.686967 -258.257769 
L 373.884757 -257.741153 
L 373.082546 -257.224538 
L 372.280336 -256.707924 
L 371.478126 -256.191311 
L 370.675915 -255.674699 
L 369.873705 -255.158088 
L 369.071494 -254.641478 
L 368.269284 -254.124869 
L 367.467074 -253.608261 
L 366.664863 -253.093435 
L 365.862653 -252.582789 
L 365.060442 -252.072143 
L 364.258232 -251.561498 
L 363.456022 -251.050853 
L 362.653811 -250.540209 
L 361.851601 -250.029566 
L 361.04939 -249.518922 
L 360.24718 -249.00828 
L 359.44497 -248.497638 
L 358.642759 -247.986996 
L 357.840549 -247.476355 
L 357.038339 -246.965714 
L 356.236128 -246.455074 
L 355.433918 -245.944434 
L 354.631707 -245.433795 
L 353.829497 -244.923156 
L 353.027287 -244.412518 
L 352.225076 -243.90188 
L 351.422866 -243.391243 
L 350.620655 -242.880606 
L 349.818445 -242.36997 
L 349.016235 -241.859334 
L 348.214024 -241.348699 
L 347.411814 -240.838064 
L 346.609603 -240.32743 
L 345.807393 -239.808852 
L 345.005183 -239.284239 
L 344.202972 -238.759629 
L 343.400762 -238.235022 
L 342.598551 -237.710417 
L 341.796341 -237.185816 
L 340.994131 -236.661218 
L 340.19192 -236.136622 
L 339.38971 -235.61203 
L 338.5875 -235.08744 
L 337.785289 -234.562854 
L 336.983079 -234.104098 
L 336.180868 -233.649502 
L 335.378658 -233.194929 
L 334.576448 -232.692434 
L 333.774237 -232.158658 
L 332.972027 -231.624906 
L 332.169816 -231.097592 
L 331.367606 -230.693348 
L 330.565396 -230.289104 
L 329.763185 -229.884861 
L 328.960975 -229.476003 
L 328.158764 -229.0528 
L 327.356554 -228.629615 
L 326.554344 -228.201552 
L 325.752133 -227.709088 
L 324.949923 -227.216643 
L 324.147712 -226.724217 
L 323.345502 -226.231809 
L 322.543292 -225.73942 
L 321.741081 -225.227204 
L 320.938871 -224.714576 
L 320.136661 -224.201948 
L 319.33445 -223.689321 
L 318.53224 -223.176695 
L 317.730029 -222.664069 
L 316.927819 -222.151444 
L 316.125609 -221.638819 
L 315.323398 -221.126195 
L 314.521188 -220.613572 
L 313.718977 -220.100949 
L 312.916767 -219.588327 
L 312.114557 -219.075706 
L 311.312346 -218.563085 
L 310.510136 -218.050465 
L 309.707925 -217.537845 
L 308.905715 -217.025226 
L 308.103505 -216.512608 
L 307.301294 -215.999991 
L 306.499084 -215.487374 
L 305.696873 -214.974757 
L 304.894663 -214.462142 
L 304.092453 -213.949526 
L 303.290242 -213.436912 
L 302.488032 -212.924298 
L 301.685822 -212.411685 
L 300.883611 -211.899072 
L 300.081401 -211.38646 
L 299.27919 -210.873849 
L 298.47698 -210.410853 
L 297.67477 -209.992421 
L 296.872559 -209.574001 
L 296.070349 -209.155594 
L 295.268138 -208.7372 
L 294.465928 -208.318818 
L 293.663718 -207.900448 
L 292.861507 -207.462872 
L 292.059297 -207.009434 
L 291.257086 -206.493968 
L 290.454876 -205.885688 
L 289.652666 -205.277501 
L 288.850455 -204.669407 
L 288.048245 -204.172808 
L 287.246034 -203.730422 
L 286.443824 -203.288042 
L 285.641614 -202.845668 
L 284.839403 -202.403301 
L 284.037193 -201.960939 
L 283.234983 -201.518583 
L 282.432772 -201.076232 
L 281.630562 -200.633888 
L 280.828351 -200.19155 
L 280.026141 -199.749217 
L 279.223931 -199.306891 
L 278.42172 -198.86457 
L 277.61951 -198.422255 
L 276.817299 -197.979946 
L 276.015089 -197.502125 
L 275.212879 -197.020753 
L 274.410668 -196.539387 
L 273.608458 -196.051972 
L 272.806247 -195.548737 
L 272.004037 -195.045503 
L 271.201827 -194.542271 
L 270.399616 -194.039041 
L 269.597406 -193.535813 
L 268.795195 -193.032587 
L 267.992985 -192.54774 
L 267.190775 -192.076537 
L 266.388564 -191.630093 
L 265.586354 -191.183652 
L 264.784144 -190.737216 
L 263.981933 -190.321266 
L 263.179723 -189.941872 
L 262.377512 -189.56248 
L 261.575302 -189.18309 
L 260.773092 -188.8037 
L 259.970881 -188.408831 
L 259.168671 -187.917961 
L 258.36646 -187.370694 
L 257.56425 -186.823491 
L 256.76204 -186.276351 
L 255.959829 -185.822319 
L 255.157619 -185.380287 
L 254.355408 -184.933902 
L 253.553198 -184.487521 
L 252.750988 -184.041143 
L 251.948777 -183.59477 
L 251.146567 -183.148401 
L 250.344356 -182.702035 
L 249.542146 -182.255674 
L 248.739936 -181.809316 
L 247.937725 -181.362963 
L 247.135515 -180.916613 
L 246.333305 -180.469212 
L 245.531094 -180.02107 
L 244.728884 -179.661131 
L 243.926673 -179.301203 
L 243.124463 -178.941284 
L 242.322253 -178.581376 
L 241.520042 -178.221477 
L 240.717832 -177.861588 
L 239.915621 -177.501709 
L 239.113411 -177.14184 
L 238.311201 -176.781981 
L 237.50899 -176.422131 
L 236.70678 -176.062292 
L 235.904569 -175.702462 
L 235.102359 -175.342643 
L 234.300149 -174.982833 
L 233.497938 -174.623033 
L 232.695728 -174.263243 
L 231.893517 -173.903463 
L 231.091307 -173.543693 
L 230.289097 -173.146748 
L 229.486886 -172.736434 
L 228.684676 -172.326129 
L 227.882466 -171.915834 
L 227.080255 -171.50555 
L 226.278045 -171.095274 
L 225.475834 -170.685009 
L 224.673624 -170.274754 
L 223.871414 -169.854804 
L 223.069203 -169.431708 
L 222.266993 -169.008613 
L 221.464782 -168.585519 
L 220.662572 -168.162425 
L 219.860362 -167.739332 
L 219.058151 -167.31624 
L 218.255941 -166.893149 
L 217.45373 -166.470059 
L 216.65152 -166.046969 
L 215.84931 -165.623881 
L 215.047099 -165.200793 
L 214.244889 -164.777706 
L 213.442678 -164.35462 
L 212.640468 -163.931535 
L 211.838258 -163.508451 
L 211.036047 -163.085367 
L 210.233837 -162.662284 
L 209.431626 -162.239202 
L 208.629416 -161.816121 
L 207.827206 -161.393041 
L 207.024995 -160.969962 
L 206.222785 -160.546883 
L 205.420575 -160.123806 
L 204.618364 -159.700729 
L 203.816154 -159.277653 
L 203.013943 -158.854577 
L 202.211733 -158.431503 
L 201.409523 -158.00843 
L 200.607312 -157.585357 
L 199.805102 -157.162285 
L 199.002891 -156.739214 
L 198.200681 -156.316144 
L 197.398471 -155.893075 
L 196.59626 -155.470006 
L 195.79405 -155.046939 
L 194.991839 -154.623872 
L 194.189629 -154.200806 
L 193.387419 -153.777741 
L 192.585208 -153.354676 
L 191.782998 -152.931613 
L 190.980787 -152.50855 
L 190.178577 -152.085489 
L 189.376367 -151.662428 
L 188.574156 -151.239368 
L 187.771946 -150.816309 
L 186.969736 -150.39325 
L 186.167525 -149.970193 
L 185.365315 -149.547136 
L 184.563104 -149.12408 
L 183.760894 -148.701025 
L 182.958684 -148.277971 
L 182.156473 -147.854917 
L 181.354263 -147.431865 
L 180.552052 -147.008813 
L 179.749842 -146.585762 
L 178.947632 -146.162712 
L 178.145421 -145.739663 
L 177.343211 -145.316615 
L 176.541 -144.893568 
L 175.73879 -144.470521 
L 174.93658 -144.047475 
L 174.134369 -143.62443 
L 173.332159 -143.201386 
L 172.529948 -142.778343 
L 171.727738 -142.355301 
L 170.925528 -141.932259 
L 170.123317 -141.509218 
L 169.321107 -141.086178 
L 168.518897 -140.663139 
L 167.716686 -140.240101 
L 166.914476 -139.817064 
L 166.112265 -139.394027 
L 165.310055 -138.970992 
L 164.507845 -138.547957 
L 163.705634 -138.124923 
L 162.903424 -137.70189 
L 162.101213 -137.278857 
L 161.299003 -136.871318 
L 160.496793 -136.487981 
L 159.694582 -136.104645 
L 158.892372 -135.72131 
L 158.090161 -135.337975 
L 157.287951 -134.954642 
L 156.485741 -134.571309 
L 155.68353 -134.187977 
L 154.88132 -133.804646 
L 154.079109 -133.421316 
L 153.276899 -133.037986 
L 152.474689 -132.654658 
L 151.672478 -132.27133 
L 150.870268 -131.888003 
L 150.068058 -131.504677 
L 149.265847 -131.121352 
L 148.463637 -130.738028 
L 147.661426 -130.354705 
L 146.859216 -129.971382 
L 146.057006 -129.58806 
L 145.254795 -129.204739 
L 144.452585 -128.821419 
L 143.650374 -128.4381 
L 142.848164 -128.054781 
L 142.045954 -127.671464 
L 141.243743 -127.288147 
L 140.441533 -126.904831 
L 139.639322 -126.521516 
L 138.837112 -126.138202 
L 138.034902 -125.754888 
L 137.232691 -125.371576 
L 136.430481 -124.988264 
L 135.62827 -124.604953 
L 134.82606 -124.221643 
L 134.02385 -123.838334 
L 133.221639 -123.455026 
L 132.419429 -123.071718 
L 131.617219 -122.688411 
L 130.815008 -122.305105 
L 130.012798 -121.9218 
L 129.210587 -121.538496 
L 128.408377 -121.155193 
L 127.606167 -120.77189 
L 126.803956 -120.388589 
L 126.001746 -120.005288 
L 125.199535 -119.621988 
L 124.397325 -119.238689 
L 123.595115 -118.85539 
L 122.792904 -118.472093 
L 121.990694 -118.088796 
L 121.188483 -117.7055 
L 120.386273 -117.322205 
L 119.584063 -116.938911 
L 118.781852 -116.555618 
L 117.979642 -116.172326 
L 117.177431 -115.789034 
L 116.375221 -115.405743 
L 115.573011 -115.022453 
L 114.7708 -114.639164 
L 113.96859 -114.255876 
L 113.16638 -113.872588 
L 112.364169 -113.489302 
L 111.561959 -113.106016 
L 110.759748 -112.722731 
L 109.957538 -112.339447 
L 109.155328 -111.956164 
L 108.353117 -111.572881 
L 107.550907 -111.1896 
L 106.748696 -110.806319 
L 105.946486 -110.423039 
L 105.144276 -110.03976 
L 104.342065 -109.656481 
L 103.539855 -109.273204 
L 102.737644 -108.889927 
L 101.935434 -108.506652 
L 101.133224 -108.118949 
L 100.331013 -107.730843 
L 99.528803 -107.34274 
L 98.726592 -106.954641 
L 97.924382 -106.566544 
L 97.122172 -106.178451 
L 96.319961 -105.79036 
L 95.517751 -105.402273 
L 94.715541 -105.014189 
L 93.91333 -104.626107 
L 93.11112 -104.238029 
L 92.308909 -103.849954 
L 91.506699 -103.461882 
L 90.704489 -103.073813 
L 89.902278 -102.685747 
L 89.100068 -102.297684 
L 88.297857 -101.895286 
L 87.495647 -101.47906 
L 86.693437 -101.062838 
L 85.891226 -100.646618 
L 85.089016 -100.230402 
L 84.286805 -99.814189 
L 83.484595 -99.397979 
L 82.682385 -98.981771 
L 81.880174 -98.565567 
L 81.077964 -98.149366 
L 80.275753 -97.733168 
L 79.473543 -97.316973 
L 78.671333 -96.900781 
L 77.869122 -96.484593 
L 77.066912 -96.068407 
L 76.264702 -95.6499 
z
" style="stroke: #000000; stroke-opacity: 0.1"/>
    </defs>
    <g clip-path="url(#p14a3630ce0)">
     <use xlink:href="#m38fb91473e" x="0" y="310.062" style="fill-opacity: 0.1; stroke: #000000; stroke-opacity: 0.1"/>
    </g>
   </g>
   <g id="matplotlib.axis_1">
    <g id="xtick_1">
     <g id="line2d_1">
      <defs>
       <path id="md9da3ac175" d="M 0 1.75 
L 0 -1.75 
" style="stroke: #000000; stroke-width: 0.8"/>
      </defs>
      <g>
       <use xlink:href="#md9da3ac175" x="76.264702" y="275.062" style="stroke: #000000; stroke-width: 0.8"/>
      </g>
     </g>
     <g id="line2d_2">
      <g>
       <use xlink:href="#md9da3ac175" x="76.264702" y="8.95" style="stroke: #000000; stroke-width: 0.8"/>
      </g>
     </g>
     <g id="text_1">
      <!-- 9.0 -->
      <g transform="translate(69.315483 287.452625)scale(0.1 -0.1)">
       <defs>
        <path id="HelveticaNeue-Medium-39" d="M 1030 1133 
Q 1056 858 1225 688 
Q 1395 518 1683 518 
Q 1978 518 2154 675 
Q 2330 832 2426 1065 
Q 2522 1299 2557 1564 
Q 2592 1830 2611 2054 
L 2598 2067 
Q 2451 1805 2195 1667 
Q 1939 1530 1632 1530 
Q 1312 1530 1053 1638 
Q 794 1747 608 1942 
Q 422 2138 320 2416 
Q 218 2694 218 3040 
Q 218 3366 320 3644 
Q 422 3923 620 4131 
Q 819 4339 1107 4454 
Q 1395 4570 1760 4570 
Q 2234 4570 2541 4387 
Q 2848 4205 3024 3888 
Q 3200 3571 3270 3142 
Q 3341 2714 3341 2227 
Q 3341 1824 3254 1414 
Q 3168 1005 2969 669 
Q 2771 333 2448 121 
Q 2125 -90 1651 -90 
Q 1382 -90 1145 0 
Q 909 90 726 250 
Q 544 410 429 634 
Q 314 858 301 1133 
L 1030 1133 
z
M 1728 3962 
Q 1530 3962 1382 3888 
Q 1235 3814 1139 3686 
Q 1043 3558 995 3392 
Q 947 3226 947 3046 
Q 947 2861 995 2691 
Q 1043 2522 1139 2394 
Q 1235 2266 1382 2186 
Q 1530 2106 1728 2106 
Q 1933 2106 2086 2182 
Q 2240 2259 2339 2390 
Q 2438 2522 2489 2691 
Q 2541 2861 2541 3046 
Q 2541 3226 2489 3392 
Q 2438 3558 2339 3683 
Q 2240 3808 2086 3885 
Q 1933 3962 1728 3962 
z
" transform="scale(0.015625)"/>
        <path id="HelveticaNeue-Medium-2e" d="M 442 864 
L 1331 864 
L 1331 0 
L 442 0 
L 442 864 
z
" transform="scale(0.015625)"/>
        <path id="HelveticaNeue-Medium-30" d="M 1779 4570 
Q 2259 4570 2563 4349 
Q 2867 4128 3036 3785 
Q 3206 3443 3267 3033 
Q 3328 2624 3328 2240 
Q 3328 1856 3267 1446 
Q 3206 1037 3036 694 
Q 2867 352 2563 131 
Q 2259 -90 1779 -90 
Q 1299 -90 995 131 
Q 691 352 521 694 
Q 352 1037 291 1446 
Q 230 1856 230 2240 
Q 230 2624 291 3033 
Q 352 3443 521 3785 
Q 691 4128 995 4349 
Q 1299 4570 1779 4570 
z
M 1779 518 
Q 2016 518 2176 656 
Q 2336 794 2429 1027 
Q 2522 1261 2560 1574 
Q 2598 1888 2598 2240 
Q 2598 2592 2560 2902 
Q 2522 3213 2429 3449 
Q 2336 3686 2176 3824 
Q 2016 3962 1779 3962 
Q 1536 3962 1379 3824 
Q 1222 3686 1129 3449 
Q 1037 3213 998 2902 
Q 960 2592 960 2240 
Q 960 1888 998 1574 
Q 1037 1261 1129 1027 
Q 1222 794 1379 656 
Q 1536 518 1779 518 
z
" transform="scale(0.015625)"/>
       </defs>
       <use xlink:href="#HelveticaNeue-Medium-39"/>
       <use xlink:href="#HelveticaNeue-Medium-2e" x="55.599991"/>
       <use xlink:href="#HelveticaNeue-Medium-30" x="83.399979"/>
      </g>
     </g>
    </g>
    <g id="xtick_2">
     <g id="line2d_3">
      <g>
       <use xlink:href="#md9da3ac175" x="121.990694" y="275.062" style="stroke: #000000; stroke-width: 0.8"/>
      </g>
     </g>
     <g id="line2d_4">
      <g>
       <use xlink:href="#md9da3ac175" x="121.990694" y="8.95" style="stroke: #000000; stroke-width: 0.8"/>
      </g>
     </g>
     <g id="text_2">
      <!-- 9.5 -->
      <g transform="translate(115.041475 287.452625)scale(0.1 -0.1)">
       <defs>
        <path id="HelveticaNeue-Medium-35" d="M 787 4480 
L 3104 4480 
L 3104 3827 
L 1331 3827 
L 1101 2688 
L 1114 2675 
Q 1261 2842 1488 2928 
Q 1715 3014 1939 3014 
Q 2272 3014 2534 2902 
Q 2797 2790 2976 2588 
Q 3155 2387 3248 2112 
Q 3341 1837 3341 1517 
Q 3341 1248 3254 963 
Q 3168 678 2979 444 
Q 2790 211 2496 60 
Q 2202 -90 1792 -90 
Q 1466 -90 1187 -3 
Q 909 83 697 256 
Q 486 429 361 681 
Q 237 934 224 1274 
L 954 1274 
Q 986 909 1203 713 
Q 1421 518 1779 518 
Q 2010 518 2170 595 
Q 2330 672 2429 806 
Q 2528 941 2569 1120 
Q 2611 1299 2611 1504 
Q 2611 1690 2560 1859 
Q 2509 2029 2406 2157 
Q 2304 2285 2141 2361 
Q 1978 2438 1760 2438 
Q 1530 2438 1328 2352 
Q 1126 2266 1037 2029 
L 307 2029 
L 787 4480 
z
" transform="scale(0.015625)"/>
       </defs>
       <use xlink:href="#HelveticaNeue-Medium-39"/>
       <use xlink:href="#HelveticaNeue-Medium-2e" x="55.599991"/>
       <use xlink:href="#HelveticaNeue-Medium-35" x="83.399979"/>
      </g>
     </g>
    </g>
    <g id="xtick_3">
     <g id="line2d_5">
      <g>
       <use xlink:href="#md9da3ac175" x="167.716686" y="275.062" style="stroke: #000000; stroke-width: 0.8"/>
      </g>
     </g>
     <g id="line2d_6">
      <g>
       <use xlink:href="#md9da3ac175" x="167.716686" y="8.95" style="stroke: #000000; stroke-width: 0.8"/>
      </g>
     </g>
     <g id="text_3">
      <!-- 10.0 -->
      <g transform="translate(157.98778 287.452625)scale(0.1 -0.1)">
       <defs>
        <path id="HelveticaNeue-Medium-31" d="M 339 3738 
Q 570 3738 787 3776 
Q 1005 3814 1181 3904 
Q 1357 3994 1481 4134 
Q 1606 4275 1645 4480 
L 2240 4480 
L 2240 0 
L 1440 0 
L 1440 3162 
L 339 3162 
L 339 3738 
z
" transform="scale(0.015625)"/>
       </defs>
       <use xlink:href="#HelveticaNeue-Medium-31"/>
       <use xlink:href="#HelveticaNeue-Medium-30" x="55.599991"/>
       <use xlink:href="#HelveticaNeue-Medium-2e" x="111.199982"/>
       <use xlink:href="#HelveticaNeue-Medium-30" x="138.999969"/>
      </g>
     </g>
    </g>
    <g id="xtick_4">
     <g id="line2d_7">
      <g>
       <use xlink:href="#md9da3ac175" x="213.442678" y="275.062" style="stroke: #000000; stroke-width: 0.8"/>
      </g>
     </g>
     <g id="line2d_8">
      <g>
       <use xlink:href="#md9da3ac175" x="213.442678" y="8.95" style="stroke: #000000; stroke-width: 0.8"/>
      </g>
     </g>
     <g id="text_4">
      <!-- 10.5 -->
      <g transform="translate(203.713772 287.452625)scale(0.1 -0.1)">
       <use xlink:href="#HelveticaNeue-Medium-31"/>
       <use xlink:href="#HelveticaNeue-Medium-30" x="55.599991"/>
       <use xlink:href="#HelveticaNeue-Medium-2e" x="111.199982"/>
       <use xlink:href="#HelveticaNeue-Medium-35" x="138.999969"/>
      </g>
     </g>
    </g>
    <g id="xtick_5">
     <g id="line2d_9">
      <g>
       <use xlink:href="#md9da3ac175" x="259.168671" y="275.062" style="stroke: #000000; stroke-width: 0.8"/>
      </g>
     </g>
     <g id="line2d_10">
      <g>
       <use xlink:href="#md9da3ac175" x="259.168671" y="8.95" style="stroke: #000000; stroke-width: 0.8"/>
      </g>
     </g>
     <g id="text_5">
      <!-- 11.0 -->
      <g transform="translate(249.439765 287.452625)scale(0.1 -0.1)">
       <use xlink:href="#HelveticaNeue-Medium-31"/>
       <use xlink:href="#HelveticaNeue-Medium-31" x="55.599991"/>
       <use xlink:href="#HelveticaNeue-Medium-2e" x="111.199982"/>
       <use xlink:href="#HelveticaNeue-Medium-30" x="138.999969"/>
      </g>
     </g>
    </g>
    <g id="xtick_6">
     <g id="line2d_11">
      <g>
       <use xlink:href="#md9da3ac175" x="304.894663" y="275.062" style="stroke: #000000; stroke-width: 0.8"/>
      </g>
     </g>
     <g id="line2d_12">
      <g>
       <use xlink:href="#md9da3ac175" x="304.894663" y="8.95" style="stroke: #000000; stroke-width: 0.8"/>
      </g>
     </g>
     <g id="text_6">
      <!-- 11.5 -->
      <g transform="translate(295.165757 287.452625)scale(0.1 -0.1)">
       <use xlink:href="#HelveticaNeue-Medium-31"/>
       <use xlink:href="#HelveticaNeue-Medium-31" x="55.599991"/>
       <use xlink:href="#HelveticaNeue-Medium-2e" x="111.199982"/>
       <use xlink:href="#HelveticaNeue-Medium-35" x="138.999969"/>
      </g>
     </g>
    </g>
    <g id="xtick_7">
     <g id="line2d_13">
      <g>
       <use xlink:href="#md9da3ac175" x="350.620655" y="275.062" style="stroke: #000000; stroke-width: 0.8"/>
      </g>
     </g>
     <g id="line2d_14">
      <g>
       <use xlink:href="#md9da3ac175" x="350.620655" y="8.95" style="stroke: #000000; stroke-width: 0.8"/>
      </g>
     </g>
     <g id="text_7">
      <!-- 12.0 -->
      <g transform="translate(340.891749 287.452625)scale(0.1 -0.1)">
       <defs>
        <path id="HelveticaNeue-Medium-32" d="M 3309 0 
L 250 0 
Q 256 557 518 973 
Q 781 1389 1235 1696 
Q 1453 1856 1689 2006 
Q 1926 2157 2124 2329 
Q 2323 2502 2451 2704 
Q 2579 2906 2586 3168 
Q 2586 3290 2557 3427 
Q 2528 3565 2445 3683 
Q 2362 3802 2214 3882 
Q 2067 3962 1830 3962 
Q 1613 3962 1469 3875 
Q 1325 3789 1238 3638 
Q 1152 3488 1110 3283 
Q 1069 3078 1062 2842 
L 333 2842 
Q 333 3213 432 3529 
Q 531 3846 729 4076 
Q 928 4307 1213 4438 
Q 1498 4570 1875 4570 
Q 2285 4570 2560 4435 
Q 2835 4301 3004 4096 
Q 3174 3891 3244 3651 
Q 3315 3411 3315 3194 
Q 3315 2925 3232 2707 
Q 3149 2490 3008 2307 
Q 2867 2125 2688 1971 
Q 2509 1818 2317 1683 
Q 2125 1549 1933 1427 
Q 1741 1306 1577 1184 
Q 1414 1062 1292 931 
Q 1171 800 1126 653 
L 3309 653 
L 3309 0 
z
" transform="scale(0.015625)"/>
       </defs>
       <use xlink:href="#HelveticaNeue-Medium-31"/>
       <use xlink:href="#HelveticaNeue-Medium-32" x="55.599991"/>
       <use xlink:href="#HelveticaNeue-Medium-2e" x="111.199982"/>
       <use xlink:href="#HelveticaNeue-Medium-30" x="138.999969"/>
      </g>
     </g>
    </g>
    <g id="xtick_8">
     <g id="line2d_15">
      <g>
       <use xlink:href="#md9da3ac175" x="396.346648" y="275.062" style="stroke: #000000; stroke-width: 0.8"/>
      </g>
     </g>
     <g id="line2d_16">
      <g>
       <use xlink:href="#md9da3ac175" x="396.346648" y="8.95" style="stroke: #000000; stroke-width: 0.8"/>
      </g>
     </g>
     <g id="text_8">
      <!-- 12.5 -->
      <g transform="translate(386.617741 287.452625)scale(0.1 -0.1)">
       <use xlink:href="#HelveticaNeue-Medium-31"/>
       <use xlink:href="#HelveticaNeue-Medium-32" x="55.599991"/>
       <use xlink:href="#HelveticaNeue-Medium-2e" x="111.199982"/>
       <use xlink:href="#HelveticaNeue-Medium-35" x="138.999969"/>
      </g>
     </g>
    </g>
    <g id="text_9">
     <!-- Bulge mass [log, $M_\odot$] -->
     <g transform="translate(183.919375 300.762)scale(0.1 -0.1)">
      <defs>
       <path id="HelveticaNeue-Medium-42" d="M 1286 2656 
L 2592 2656 
Q 2880 2656 3072 2819 
Q 3264 2982 3264 3290 
Q 3264 3635 3091 3776 
Q 2918 3917 2592 3917 
L 1286 3917 
L 1286 2656 
z
M 486 4570 
L 2707 4570 
Q 3322 4570 3693 4288 
Q 4064 4006 4064 3437 
Q 4064 3091 3894 2844 
Q 3725 2598 3411 2464 
L 3411 2451 
Q 3834 2362 4051 2051 
Q 4269 1741 4269 1274 
Q 4269 1005 4173 771 
Q 4077 538 3872 368 
Q 3667 198 3347 99 
Q 3027 0 2586 0 
L 486 0 
L 486 4570 
z
M 1286 653 
L 2701 653 
Q 3066 653 3267 841 
Q 3469 1030 3469 1376 
Q 3469 1715 3267 1897 
Q 3066 2080 2701 2080 
L 1286 2080 
L 1286 653 
z
" transform="scale(0.015625)"/>
       <path id="HelveticaNeue-Medium-75" d="M 3290 0 
L 2573 0 
L 2573 461 
L 2560 461 
Q 2426 211 2160 60 
Q 1894 -90 1619 -90 
Q 966 -90 675 233 
Q 384 557 384 1210 
L 384 3309 
L 1114 3309 
L 1114 1280 
Q 1114 845 1280 665 
Q 1446 486 1747 486 
Q 1978 486 2131 556 
Q 2285 627 2381 745 
Q 2477 864 2518 1030 
Q 2560 1197 2560 1389 
L 2560 3309 
L 3290 3309 
L 3290 0 
z
" transform="scale(0.015625)"/>
       <path id="HelveticaNeue-Medium-6c" d="M 403 4570 
L 1133 4570 
L 1133 0 
L 403 0 
L 403 4570 
z
" transform="scale(0.015625)"/>
       <path id="HelveticaNeue-Medium-67" d="M 3443 173 
Q 3443 -576 3024 -944 
Q 2605 -1312 1818 -1312 
Q 1568 -1312 1315 -1261 
Q 1062 -1210 854 -1088 
Q 646 -966 505 -768 
Q 365 -570 339 -282 
L 1069 -282 
Q 1101 -435 1177 -531 
Q 1254 -627 1360 -681 
Q 1466 -736 1594 -752 
Q 1722 -768 1862 -768 
Q 2304 -768 2509 -550 
Q 2714 -333 2714 77 
L 2714 582 
L 2701 582 
Q 2547 307 2281 153 
Q 2016 0 1709 0 
Q 1312 0 1033 137 
Q 755 275 572 515 
Q 390 755 307 1068 
Q 224 1382 224 1741 
Q 224 2074 326 2374 
Q 429 2675 621 2902 
Q 813 3130 1091 3264 
Q 1370 3398 1722 3398 
Q 2035 3398 2297 3267 
Q 2560 3136 2701 2854 
L 2714 2854 
L 2714 3309 
L 3443 3309 
L 3443 173 
z
M 1824 576 
Q 2067 576 2236 675 
Q 2406 774 2512 937 
Q 2618 1101 2666 1309 
Q 2714 1517 2714 1728 
Q 2714 1939 2662 2137 
Q 2611 2336 2505 2489 
Q 2400 2643 2230 2732 
Q 2061 2822 1824 2822 
Q 1581 2822 1414 2720 
Q 1248 2618 1145 2454 
Q 1043 2291 998 2083 
Q 954 1875 954 1670 
Q 954 1466 1005 1270 
Q 1056 1075 1161 921 
Q 1267 768 1430 672 
Q 1594 576 1824 576 
z
" transform="scale(0.015625)"/>
       <path id="HelveticaNeue-Medium-65" d="M 2656 1946 
Q 2643 2118 2582 2278 
Q 2522 2438 2416 2556 
Q 2310 2675 2160 2748 
Q 2010 2822 1824 2822 
Q 1632 2822 1475 2755 
Q 1318 2688 1206 2569 
Q 1094 2451 1027 2291 
Q 960 2131 954 1946 
L 2656 1946 
z
M 954 1466 
Q 954 1274 1008 1094 
Q 1062 915 1171 780 
Q 1280 646 1446 566 
Q 1613 486 1843 486 
Q 2163 486 2358 624 
Q 2554 762 2650 1037 
L 3341 1037 
Q 3283 768 3142 557 
Q 3002 346 2803 202 
Q 2605 58 2358 -16 
Q 2112 -90 1843 -90 
Q 1453 -90 1152 38 
Q 851 166 643 396 
Q 435 627 329 947 
Q 224 1267 224 1651 
Q 224 2003 336 2320 
Q 448 2637 656 2877 
Q 864 3117 1158 3257 
Q 1453 3398 1824 3398 
Q 2214 3398 2524 3235 
Q 2835 3072 3040 2803 
Q 3245 2534 3337 2185 
Q 3430 1837 3386 1466 
L 954 1466 
z
" transform="scale(0.015625)"/>
       <path id="HelveticaNeue-Medium-20" transform="scale(0.015625)"/>
       <path id="HelveticaNeue-Medium-6d" d="M 384 3309 
L 1075 3309 
L 1075 2848 
L 1094 2848 
Q 1178 2970 1274 3072 
Q 1370 3174 1488 3244 
Q 1606 3315 1760 3356 
Q 1914 3398 2112 3398 
Q 2413 3398 2672 3264 
Q 2931 3130 3040 2848 
Q 3226 3104 3469 3251 
Q 3712 3398 4077 3398 
Q 4602 3398 4893 3142 
Q 5184 2886 5184 2285 
L 5184 0 
L 4454 0 
L 4454 1933 
Q 4454 2131 4441 2294 
Q 4429 2458 4368 2576 
Q 4307 2694 4185 2758 
Q 4064 2822 3853 2822 
Q 3482 2822 3315 2592 
Q 3149 2362 3149 1939 
L 3149 0 
L 2419 0 
L 2419 2125 
Q 2419 2470 2294 2646 
Q 2170 2822 1837 2822 
Q 1696 2822 1565 2764 
Q 1434 2707 1334 2598 
Q 1235 2490 1174 2330 
Q 1114 2170 1114 1965 
L 1114 0 
L 384 0 
L 384 3309 
z
" transform="scale(0.015625)"/>
       <path id="HelveticaNeue-Medium-61" d="M 3155 736 
Q 3155 602 3190 544 
Q 3226 486 3328 486 
Q 3360 486 3405 486 
Q 3450 486 3507 499 
L 3507 -6 
Q 3469 -19 3408 -35 
Q 3347 -51 3283 -64 
Q 3219 -77 3155 -83 
Q 3091 -90 3046 -90 
Q 2822 -90 2675 0 
Q 2528 90 2483 314 
Q 2266 102 1949 6 
Q 1632 -90 1338 -90 
Q 1114 -90 909 -29 
Q 704 32 547 150 
Q 390 269 297 451 
Q 205 634 205 877 
Q 205 1184 317 1376 
Q 429 1568 611 1677 
Q 794 1786 1021 1834 
Q 1248 1882 1478 1907 
Q 1677 1946 1856 1962 
Q 2035 1978 2172 2016 
Q 2310 2054 2390 2134 
Q 2470 2214 2470 2374 
Q 2470 2515 2403 2604 
Q 2336 2694 2237 2742 
Q 2138 2790 2016 2806 
Q 1894 2822 1786 2822 
Q 1478 2822 1280 2694 
Q 1082 2566 1056 2298 
L 326 2298 
Q 346 2618 480 2829 
Q 614 3040 822 3168 
Q 1030 3296 1292 3347 
Q 1555 3398 1830 3398 
Q 2074 3398 2310 3347 
Q 2547 3296 2736 3181 
Q 2925 3066 3040 2883 
Q 3155 2701 3155 2438 
L 3155 736 
z
M 2426 1658 
Q 2259 1549 2016 1526 
Q 1773 1504 1530 1459 
Q 1414 1440 1305 1405 
Q 1197 1370 1113 1309 
Q 1030 1248 982 1149 
Q 934 1050 934 909 
Q 934 787 1004 704 
Q 1075 621 1174 573 
Q 1274 525 1392 505 
Q 1510 486 1606 486 
Q 1728 486 1869 518 
Q 2010 550 2134 627 
Q 2259 704 2342 822 
Q 2426 941 2426 1114 
L 2426 1658 
z
" transform="scale(0.015625)"/>
       <path id="HelveticaNeue-Medium-73" d="M 934 1062 
Q 966 742 1177 614 
Q 1389 486 1683 486 
Q 1786 486 1917 502 
Q 2048 518 2163 563 
Q 2278 608 2352 694 
Q 2426 781 2419 921 
Q 2413 1062 2317 1152 
Q 2221 1242 2070 1296 
Q 1920 1350 1728 1388 
Q 1536 1427 1338 1472 
Q 1133 1517 944 1581 
Q 755 1645 604 1753 
Q 454 1862 364 2032 
Q 275 2202 275 2451 
Q 275 2720 406 2902 
Q 538 3085 739 3197 
Q 941 3309 1187 3353 
Q 1434 3398 1658 3398 
Q 1914 3398 2147 3344 
Q 2381 3290 2569 3168 
Q 2758 3046 2883 2851 
Q 3008 2656 3040 2381 
L 2278 2381 
Q 2227 2643 2038 2732 
Q 1850 2822 1606 2822 
Q 1530 2822 1424 2809 
Q 1318 2797 1225 2761 
Q 1133 2726 1069 2659 
Q 1005 2592 1005 2483 
Q 1005 2349 1097 2265 
Q 1190 2182 1340 2128 
Q 1491 2074 1683 2035 
Q 1875 1997 2080 1952 
Q 2278 1907 2470 1843 
Q 2662 1779 2812 1670 
Q 2963 1562 3056 1395 
Q 3149 1229 3149 986 
Q 3149 691 3014 486 
Q 2880 282 2665 154 
Q 2451 26 2188 -32 
Q 1926 -90 1670 -90 
Q 1357 -90 1091 -19 
Q 826 51 630 195 
Q 435 339 323 553 
Q 211 768 205 1062 
L 934 1062 
z
" transform="scale(0.015625)"/>
       <path id="HelveticaNeue-Medium-5b" d="M 461 4678 
L 1888 4678 
L 1888 4102 
L 1152 4102 
L 1152 -646 
L 1888 -646 
L 1888 -1222 
L 461 -1222 
L 461 4678 
z
" transform="scale(0.015625)"/>
       <path id="HelveticaNeue-Medium-6f" d="M 1901 -90 
Q 1504 -90 1193 41 
Q 883 173 668 403 
Q 454 634 342 954 
Q 230 1274 230 1658 
Q 230 2035 342 2355 
Q 454 2675 668 2905 
Q 883 3136 1193 3267 
Q 1504 3398 1901 3398 
Q 2298 3398 2608 3267 
Q 2918 3136 3132 2905 
Q 3347 2675 3459 2355 
Q 3571 2035 3571 1658 
Q 3571 1274 3459 954 
Q 3347 634 3132 403 
Q 2918 173 2608 41 
Q 2298 -90 1901 -90 
z
M 1901 486 
Q 2144 486 2323 588 
Q 2502 691 2617 857 
Q 2733 1024 2787 1232 
Q 2842 1440 2842 1658 
Q 2842 1869 2787 2080 
Q 2733 2291 2617 2454 
Q 2502 2618 2323 2720 
Q 2144 2822 1901 2822 
Q 1658 2822 1478 2720 
Q 1299 2618 1184 2454 
Q 1069 2291 1014 2080 
Q 960 1869 960 1658 
Q 960 1440 1014 1232 
Q 1069 1024 1184 857 
Q 1299 691 1478 588 
Q 1658 486 1901 486 
z
" transform="scale(0.015625)"/>
       <path id="HelveticaNeue-Medium-2c" d="M 442 864 
L 1331 864 
L 1331 0 
Q 1325 -397 1088 -665 
Q 851 -934 467 -1011 
L 467 -621 
Q 678 -570 784 -387 
Q 890 -205 883 0 
L 442 0 
L 442 864 
z
" transform="scale(0.015625)"/>
       <path id="DejaVuSans-Oblique-4d" d="M 1081 4666 
L 2028 4666 
L 2572 1522 
L 4378 4666 
L 5350 4666 
L 4441 0 
L 3828 0 
L 4622 4091 
L 2791 897 
L 2175 897 
L 1581 4103 
L 788 0 
L 172 0 
L 1081 4666 
z
" transform="scale(0.015625)"/>
       <path id="DejaVuSans-2299" d="M 2350 2403 
L 3013 2403 
L 3013 1609 
L 2350 1609 
L 2350 2403 
z
M 3306 3522 
Q 3016 3644 2681 3644 
Q 2347 3644 2056 3522 
Q 1769 3400 1531 3163 
Q 1291 2922 1172 2634 
Q 1053 2347 1053 2006 
Q 1053 1675 1172 1387 
Q 1291 1100 1531 859 
Q 1769 622 2056 500 
Q 2347 378 2681 378 
Q 3016 378 3306 500 
Q 3594 622 3831 859 
Q 4072 1100 4190 1387 
Q 4309 1675 4309 2006 
Q 4309 2347 4190 2634 
Q 4072 2922 3831 3163 
Q 3594 3400 3306 3522 
z
M 1878 3956 
Q 2250 4113 2681 4113 
Q 3113 4113 3484 3956 
Q 3856 3800 4163 3494 
Q 4472 3184 4625 2813 
Q 4778 2444 4778 2006 
Q 4778 1578 4625 1206 
Q 4472 838 4163 528 
Q 3856 222 3484 65 
Q 3113 -91 2681 -91 
Q 2250 -91 1878 65 
Q 1506 222 1200 528 
Q 891 838 738 1206 
Q 584 1578 584 2006 
Q 584 2444 738 2813 
Q 891 3184 1200 3494 
Q 1506 3800 1878 3956 
z
" transform="scale(0.015625)"/>
       <path id="HelveticaNeue-Medium-5d" d="M 1434 -1222 
L 6 -1222 
L 6 -646 
L 742 -646 
L 742 4102 
L 6 4102 
L 6 4678 
L 1434 4678 
L 1434 -1222 
z
" transform="scale(0.015625)"/>
      </defs>
      <use xlink:href="#HelveticaNeue-Medium-42" transform="translate(0 0.90625)"/>
      <use xlink:href="#HelveticaNeue-Medium-75" transform="translate(70.399994 0.90625)"/>
      <use xlink:href="#HelveticaNeue-Medium-6c" transform="translate(127.799988 0.90625)"/>
      <use xlink:href="#HelveticaNeue-Medium-67" transform="translate(151.899979 0.90625)"/>
      <use xlink:href="#HelveticaNeue-Medium-65" transform="translate(211.199966 0.90625)"/>
      <use xlink:href="#HelveticaNeue-Medium-20" transform="translate(266.799957 0.90625)"/>
      <use xlink:href="#HelveticaNeue-Medium-6d" transform="translate(294.599945 0.90625)"/>
      <use xlink:href="#HelveticaNeue-Medium-61" transform="translate(381.59993 0.90625)"/>
      <use xlink:href="#HelveticaNeue-Medium-73" transform="translate(437.199921 0.90625)"/>
      <use xlink:href="#HelveticaNeue-Medium-73" transform="translate(489.099915 0.90625)"/>
      <use xlink:href="#HelveticaNeue-Medium-20" transform="translate(540.999908 0.90625)"/>
      <use xlink:href="#HelveticaNeue-Medium-5b" transform="translate(568.799896 0.90625)"/>
      <use xlink:href="#HelveticaNeue-Medium-6c" transform="translate(598.399887 0.90625)"/>
      <use xlink:href="#HelveticaNeue-Medium-6f" transform="translate(622.499878 0.90625)"/>
      <use xlink:href="#HelveticaNeue-Medium-67" transform="translate(681.799866 0.90625)"/>
      <use xlink:href="#HelveticaNeue-Medium-2c" transform="translate(741.099854 0.90625)"/>
      <use xlink:href="#HelveticaNeue-Medium-20" transform="translate(768.899841 0.90625)"/>
      <use xlink:href="#DejaVuSans-Oblique-4d" transform="translate(796.699829 0.90625)"/>
      <use xlink:href="#DejaVuSans-2299" transform="translate(896.616821 -15.5)scale(0.7)"/>
      <use xlink:href="#HelveticaNeue-Medium-5d" transform="translate(971.641235 0.90625)"/>
     </g>
    </g>
   </g>
   <g id="matplotlib.axis_2">
    <g id="ytick_1">
     <g id="line2d_17">
      <defs>
       <path id="m78e8efd032" d="M 1.75 0 
L -1.75 -0 
" style="stroke: #000000; stroke-width: 0.8"/>
      </defs>
      <g>
       <use xlink:href="#m78e8efd032" x="55.459375" y="225.153049" style="stroke: #000000; stroke-width: 0.8"/>
      </g>
     </g>
     <g id="line2d_18">
      <g>
       <use xlink:href="#m78e8efd032" x="412.579375" y="225.153049" style="stroke: #000000; stroke-width: 0.8"/>
      </g>
     </g>
     <g id="text_10">
      <!-- $\mathdefault{10^{2}}$ -->
      <g transform="translate(34.809375 228.723362)scale(0.1 -0.1)">
       <use xlink:href="#HelveticaNeue-Medium-31" transform="translate(0 0.823438)"/>
       <use xlink:href="#HelveticaNeue-Medium-30" transform="translate(55.599991 0.823438)"/>
       <use xlink:href="#HelveticaNeue-Medium-32" transform="translate(112.104786 37.015625)scale(0.7)"/>
      </g>
     </g>
    </g>
    <g id="ytick_2">
     <g id="line2d_19">
      <defs>
       <path id="m54cc3581f0" d="M 1 0 
L -1 -0 
" style="stroke: #000000; stroke-width: 0.6"/>
      </defs>
      <g>
       <use xlink:href="#m54cc3581f0" x="55.459375" y="269.944494" style="stroke: #000000; stroke-width: 0.6"/>
      </g>
     </g>
     <g id="line2d_20">
      <g>
       <use xlink:href="#m54cc3581f0" x="412.579375" y="269.944494" style="stroke: #000000; stroke-width: 0.6"/>
      </g>
     </g>
    </g>
    <g id="ytick_3">
     <g id="line2d_21">
      <g>
       <use xlink:href="#m54cc3581f0" x="55.459375" y="253.175545" style="stroke: #000000; stroke-width: 0.6"/>
      </g>
     </g>
     <g id="line2d_22">
      <g>
       <use xlink:href="#m54cc3581f0" x="412.579375" y="253.175545" style="stroke: #000000; stroke-width: 0.6"/>
      </g>
     </g>
    </g>
    <g id="ytick_4">
     <g id="line2d_23">
      <g>
       <use xlink:href="#m54cc3581f0" x="55.459375" y="238.384283" style="stroke: #000000; stroke-width: 0.6"/>
      </g>
     </g>
     <g id="line2d_24">
      <g>
       <use xlink:href="#m54cc3581f0" x="412.579375" y="238.384283" style="stroke: #000000; stroke-width: 0.6"/>
      </g>
     </g>
    </g>
    <g id="ytick_5">
     <g id="line2d_25">
      <g>
       <use xlink:href="#m54cc3581f0" x="55.459375" y="138.107227" style="stroke: #000000; stroke-width: 0.6"/>
      </g>
     </g>
     <g id="line2d_26">
      <g>
       <use xlink:href="#m54cc3581f0" x="412.579375" y="138.107227" style="stroke: #000000; stroke-width: 0.6"/>
      </g>
     </g>
     <g id="text_11">
      <!-- $\mathdefault{2\times10^{2}}$ -->
      <g transform="translate(20.559375 141.67754)scale(0.1 -0.1)">
       <defs>
        <path id="HelveticaNeue-Medium-d7" d="M 352 2733 
L 902 3091 
L 1914 2074 
L 2938 3091 
L 3488 2733 
L 2368 1619 
L 3488 506 
L 2938 147 
L 1914 1171 
L 902 147 
L 352 506 
L 1466 1619 
L 352 2733 
z
" transform="scale(0.015625)"/>
       </defs>
       <use xlink:href="#HelveticaNeue-Medium-32" transform="translate(0 0.823438)"/>
       <use xlink:href="#HelveticaNeue-Medium-d7" transform="translate(72.999988 0.823438)"/>
       <use xlink:href="#HelveticaNeue-Medium-31" transform="translate(150.399969 0.823438)"/>
       <use xlink:href="#HelveticaNeue-Medium-30" transform="translate(205.99996 0.823438)"/>
       <use xlink:href="#HelveticaNeue-Medium-32" transform="translate(262.504756 37.015625)scale(0.7)"/>
      </g>
     </g>
    </g>
    <g id="ytick_6">
     <g id="line2d_27">
      <g>
       <use xlink:href="#m54cc3581f0" x="55.459375" y="87.188685" style="stroke: #000000; stroke-width: 0.6"/>
      </g>
     </g>
     <g id="line2d_28">
      <g>
       <use xlink:href="#m54cc3581f0" x="412.579375" y="87.188685" style="stroke: #000000; stroke-width: 0.6"/>
      </g>
     </g>
     <g id="text_12">
      <!-- $\mathdefault{3\times10^{2}}$ -->
      <g transform="translate(20.559375 90.758998)scale(0.1 -0.1)">
       <defs>
        <path id="HelveticaNeue-Medium-33" d="M 1459 2624 
Q 1638 2618 1817 2650 
Q 1997 2682 2137 2762 
Q 2278 2842 2364 2982 
Q 2451 3123 2451 3328 
Q 2451 3616 2256 3789 
Q 2061 3962 1754 3962 
Q 1562 3962 1421 3885 
Q 1280 3808 1187 3677 
Q 1094 3546 1049 3382 
Q 1005 3219 1011 3046 
L 282 3046 
Q 294 3373 403 3651 
Q 512 3930 701 4134 
Q 890 4339 1158 4454 
Q 1427 4570 1766 4570 
Q 2029 4570 2281 4493 
Q 2534 4416 2736 4269 
Q 2938 4122 3059 3894 
Q 3181 3667 3181 3373 
Q 3181 3034 3027 2781 
Q 2874 2528 2547 2413 
L 2547 2400 
Q 2931 2323 3145 2019 
Q 3360 1715 3360 1280 
Q 3360 960 3232 707 
Q 3104 454 2886 278 
Q 2669 102 2381 6 
Q 2093 -90 1773 -90 
Q 1382 -90 1091 22 
Q 800 134 605 339 
Q 410 544 307 832 
Q 205 1120 198 1472 
L 928 1472 
Q 915 1062 1129 790 
Q 1344 518 1773 518 
Q 2138 518 2384 726 
Q 2630 934 2630 1318 
Q 2630 1581 2528 1734 
Q 2426 1888 2259 1968 
Q 2093 2048 1885 2067 
Q 1677 2086 1459 2080 
L 1459 2624 
z
" transform="scale(0.015625)"/>
       </defs>
       <use xlink:href="#HelveticaNeue-Medium-33" transform="translate(0 0.823438)"/>
       <use xlink:href="#HelveticaNeue-Medium-d7" transform="translate(72.999988 0.823438)"/>
       <use xlink:href="#HelveticaNeue-Medium-31" transform="translate(150.399969 0.823438)"/>
       <use xlink:href="#HelveticaNeue-Medium-30" transform="translate(205.99996 0.823438)"/>
       <use xlink:href="#HelveticaNeue-Medium-32" transform="translate(262.504756 37.015625)scale(0.7)"/>
      </g>
     </g>
    </g>
    <g id="ytick_7">
     <g id="line2d_29">
      <g>
       <use xlink:href="#m54cc3581f0" x="55.459375" y="51.061405" style="stroke: #000000; stroke-width: 0.6"/>
      </g>
     </g>
     <g id="line2d_30">
      <g>
       <use xlink:href="#m54cc3581f0" x="412.579375" y="51.061405" style="stroke: #000000; stroke-width: 0.6"/>
      </g>
     </g>
     <g id="text_13">
      <!-- $\mathdefault{4\times10^{2}}$ -->
      <g transform="translate(20.559375 54.631718)scale(0.1 -0.1)">
       <defs>
        <path id="HelveticaNeue-Medium-34" d="M 717 1638 
L 2074 1638 
L 2074 3610 
L 2061 3610 
L 717 1638 
z
M 3341 1062 
L 2765 1062 
L 2765 0 
L 2074 0 
L 2074 1062 
L 154 1062 
L 154 1786 
L 2074 4480 
L 2765 4480 
L 2765 1638 
L 3341 1638 
L 3341 1062 
z
" transform="scale(0.015625)"/>
       </defs>
       <use xlink:href="#HelveticaNeue-Medium-34" transform="translate(0 0.823438)"/>
       <use xlink:href="#HelveticaNeue-Medium-d7" transform="translate(72.999988 0.823438)"/>
       <use xlink:href="#HelveticaNeue-Medium-31" transform="translate(150.399969 0.823438)"/>
       <use xlink:href="#HelveticaNeue-Medium-30" transform="translate(205.99996 0.823438)"/>
       <use xlink:href="#HelveticaNeue-Medium-32" transform="translate(262.504756 37.015625)scale(0.7)"/>
      </g>
     </g>
    </g>
    <g id="ytick_8">
     <g id="line2d_31">
      <g>
       <use xlink:href="#m54cc3581f0" x="55.459375" y="23.038909" style="stroke: #000000; stroke-width: 0.6"/>
      </g>
     </g>
     <g id="line2d_32">
      <g>
       <use xlink:href="#m54cc3581f0" x="412.579375" y="23.038909" style="stroke: #000000; stroke-width: 0.6"/>
      </g>
     </g>
    </g>
    <g id="text_14">
     <!-- Velocity dispersion [log, km/s] -->
     <g transform="translate(14.509375 211.107562)rotate(-90)scale(0.1 -0.1)">
      <defs>
       <path id="HelveticaNeue-Medium-56" d="M -32 4570 
L 800 4570 
L 1946 954 
L 1958 954 
L 3130 4570 
L 3942 4570 
L 2381 0 
L 1491 0 
L -32 4570 
z
" transform="scale(0.015625)"/>
       <path id="HelveticaNeue-Medium-63" d="M 2618 2202 
Q 2573 2509 2371 2665 
Q 2170 2822 1862 2822 
Q 1722 2822 1562 2774 
Q 1402 2726 1267 2595 
Q 1133 2464 1043 2230 
Q 954 1997 954 1619 
Q 954 1414 1002 1209 
Q 1050 1005 1155 845 
Q 1261 685 1427 585 
Q 1594 486 1830 486 
Q 2150 486 2358 684 
Q 2566 883 2618 1242 
L 3347 1242 
Q 3245 595 2857 252 
Q 2470 -90 1830 -90 
Q 1440 -90 1142 41 
Q 845 173 640 400 
Q 435 627 329 940 
Q 224 1254 224 1619 
Q 224 1990 326 2316 
Q 429 2643 633 2883 
Q 838 3123 1142 3260 
Q 1446 3398 1856 3398 
Q 2144 3398 2403 3324 
Q 2662 3251 2864 3104 
Q 3066 2957 3194 2733 
Q 3322 2509 3347 2202 
L 2618 2202 
z
" transform="scale(0.015625)"/>
       <path id="HelveticaNeue-Medium-69" d="M 403 4570 
L 1133 4570 
L 1133 3878 
L 403 3878 
L 403 4570 
z
M 403 3309 
L 1133 3309 
L 1133 0 
L 403 0 
L 403 3309 
z
" transform="scale(0.015625)"/>
       <path id="HelveticaNeue-Medium-74" d="M 51 3309 
L 602 3309 
L 602 4301 
L 1331 4301 
L 1331 3309 
L 1990 3309 
L 1990 2765 
L 1331 2765 
L 1331 998 
Q 1331 883 1340 800 
Q 1350 717 1385 659 
Q 1421 602 1491 573 
Q 1562 544 1683 544 
Q 1760 544 1837 547 
Q 1914 550 1990 570 
L 1990 6 
Q 1869 -6 1753 -19 
Q 1638 -32 1517 -32 
Q 1229 -32 1053 22 
Q 877 77 777 182 
Q 678 288 643 448 
Q 608 608 602 813 
L 602 2765 
L 51 2765 
L 51 3309 
z
" transform="scale(0.015625)"/>
       <path id="HelveticaNeue-Medium-79" d="M 19 3309 
L 819 3309 
L 1683 838 
L 1696 838 
L 2534 3309 
L 3296 3309 
L 2010 -179 
Q 1920 -403 1833 -608 
Q 1747 -813 1622 -969 
Q 1498 -1126 1312 -1219 
Q 1126 -1312 838 -1312 
Q 582 -1312 333 -1274 
L 333 -659 
Q 422 -672 505 -688 
Q 589 -704 678 -704 
Q 806 -704 889 -672 
Q 973 -640 1027 -579 
Q 1082 -518 1120 -435 
Q 1158 -352 1190 -243 
L 1274 13 
L 19 3309 
z
" transform="scale(0.015625)"/>
       <path id="HelveticaNeue-Medium-64" d="M 3501 0 
L 2810 0 
L 2810 448 
L 2797 448 
Q 2650 160 2368 35 
Q 2086 -90 1773 -90 
Q 1382 -90 1091 48 
Q 800 186 608 422 
Q 416 659 320 982 
Q 224 1306 224 1677 
Q 224 2125 345 2451 
Q 467 2778 668 2989 
Q 870 3200 1129 3299 
Q 1389 3398 1658 3398 
Q 1811 3398 1971 3369 
Q 2131 3341 2278 3277 
Q 2426 3213 2550 3113 
Q 2675 3014 2758 2880 
L 2771 2880 
L 2771 4570 
L 3501 4570 
L 3501 0 
z
M 954 1619 
Q 954 1408 1008 1203 
Q 1062 998 1174 838 
Q 1286 678 1459 582 
Q 1632 486 1869 486 
Q 2112 486 2288 588 
Q 2464 691 2576 857 
Q 2688 1024 2742 1232 
Q 2797 1440 2797 1658 
Q 2797 2208 2550 2515 
Q 2304 2822 1882 2822 
Q 1626 2822 1450 2716 
Q 1274 2611 1162 2441 
Q 1050 2272 1002 2057 
Q 954 1843 954 1619 
z
" transform="scale(0.015625)"/>
       <path id="HelveticaNeue-Medium-70" d="M 403 3309 
L 1094 3309 
L 1094 2861 
L 1107 2861 
Q 1261 3149 1536 3273 
Q 1811 3398 2131 3398 
Q 2522 3398 2813 3260 
Q 3104 3123 3296 2883 
Q 3488 2643 3584 2323 
Q 3680 2003 3680 1638 
Q 3680 1306 3593 992 
Q 3507 678 3331 438 
Q 3155 198 2886 54 
Q 2618 -90 2253 -90 
Q 2093 -90 1933 -61 
Q 1773 -32 1625 32 
Q 1478 96 1353 195 
Q 1229 294 1146 429 
L 1133 429 
L 1133 -1222 
L 403 -1222 
L 403 3309 
z
M 2950 1651 
Q 2950 1875 2892 2086 
Q 2835 2298 2720 2461 
Q 2605 2624 2432 2723 
Q 2259 2822 2035 2822 
Q 1574 2822 1340 2502 
Q 1107 2182 1107 1651 
Q 1107 1402 1168 1187 
Q 1229 973 1350 819 
Q 1472 666 1641 576 
Q 1811 486 2035 486 
Q 2285 486 2457 588 
Q 2630 691 2742 854 
Q 2854 1018 2902 1226 
Q 2950 1434 2950 1651 
z
" transform="scale(0.015625)"/>
       <path id="HelveticaNeue-Medium-72" d="M 384 3309 
L 1069 3309 
L 1069 2669 
L 1082 2669 
Q 1114 2803 1206 2931 
Q 1299 3059 1430 3164 
Q 1562 3270 1722 3334 
Q 1882 3398 2048 3398 
Q 2176 3398 2224 3392 
Q 2272 3386 2323 3379 
L 2323 2675 
Q 2246 2688 2166 2697 
Q 2086 2707 2010 2707 
Q 1824 2707 1661 2633 
Q 1498 2560 1376 2416 
Q 1254 2272 1184 2061 
Q 1114 1850 1114 1574 
L 1114 0 
L 384 0 
L 384 3309 
z
" transform="scale(0.015625)"/>
       <path id="HelveticaNeue-Medium-6e" d="M 384 3309 
L 1075 3309 
L 1075 2822 
L 1088 2810 
Q 1254 3085 1523 3241 
Q 1792 3398 2118 3398 
Q 2662 3398 2976 3116 
Q 3290 2835 3290 2272 
L 3290 0 
L 2560 0 
L 2560 2080 
Q 2547 2470 2393 2646 
Q 2240 2822 1914 2822 
Q 1728 2822 1581 2755 
Q 1434 2688 1331 2569 
Q 1229 2451 1171 2291 
Q 1114 2131 1114 1952 
L 1114 0 
L 384 0 
L 384 3309 
z
" transform="scale(0.015625)"/>
       <path id="HelveticaNeue-Medium-6b" d="M 403 4570 
L 1133 4570 
L 1133 1971 
L 2451 3309 
L 3347 3309 
L 2080 2093 
L 3469 0 
L 2579 0 
L 1568 1606 
L 1133 1184 
L 1133 0 
L 403 0 
L 403 4570 
z
" transform="scale(0.015625)"/>
       <path id="HelveticaNeue-Medium-2f" d="M 1696 4678 
L 2394 4678 
L 557 -109 
L -141 -109 
L 1696 4678 
z
" transform="scale(0.015625)"/>
      </defs>
      <use xlink:href="#HelveticaNeue-Medium-56"/>
      <use xlink:href="#HelveticaNeue-Medium-65" x="55.599991"/>
      <use xlink:href="#HelveticaNeue-Medium-6c" x="111.199982"/>
      <use xlink:href="#HelveticaNeue-Medium-6f" x="135.299973"/>
      <use xlink:href="#HelveticaNeue-Medium-63" x="194.59996"/>
      <use xlink:href="#HelveticaNeue-Medium-69" x="250.199951"/>
      <use xlink:href="#HelveticaNeue-Medium-74" x="274.299942"/>
      <use xlink:href="#HelveticaNeue-Medium-79" x="307.59993"/>
      <use xlink:href="#HelveticaNeue-Medium-20" x="359.499924"/>
      <use xlink:href="#HelveticaNeue-Medium-64" x="387.299911"/>
      <use xlink:href="#HelveticaNeue-Medium-69" x="448.399902"/>
      <use xlink:href="#HelveticaNeue-Medium-73" x="472.499893"/>
      <use xlink:href="#HelveticaNeue-Medium-70" x="524.399887"/>
      <use xlink:href="#HelveticaNeue-Medium-65" x="585.499878"/>
      <use xlink:href="#HelveticaNeue-Medium-72" x="641.099869"/>
      <use xlink:href="#HelveticaNeue-Medium-73" x="676.299866"/>
      <use xlink:href="#HelveticaNeue-Medium-69" x="728.19986"/>
      <use xlink:href="#HelveticaNeue-Medium-6f" x="752.29985"/>
      <use xlink:href="#HelveticaNeue-Medium-6e" x="811.599838"/>
      <use xlink:href="#HelveticaNeue-Medium-20" x="868.999832"/>
      <use xlink:href="#HelveticaNeue-Medium-5b" x="896.79982"/>
      <use xlink:href="#HelveticaNeue-Medium-6c" x="926.399811"/>
      <use xlink:href="#HelveticaNeue-Medium-6f" x="950.499802"/>
      <use xlink:href="#HelveticaNeue-Medium-67" x="1009.799789"/>
      <use xlink:href="#HelveticaNeue-Medium-2c" x="1069.099777"/>
      <use xlink:href="#HelveticaNeue-Medium-20" x="1096.899765"/>
      <use xlink:href="#HelveticaNeue-Medium-6b" x="1124.699753"/>
      <use xlink:href="#HelveticaNeue-Medium-6d" x="1178.39975"/>
      <use xlink:href="#HelveticaNeue-Medium-2f" x="1265.399734"/>
      <use xlink:href="#HelveticaNeue-Medium-73" x="1300.599731"/>
      <use xlink:href="#HelveticaNeue-Medium-5d" x="1352.499725"/>
     </g>
    </g>
   </g>
   <g id="LineCollection_1">
    <path d="M 71.692102 257.975387 
L 89.982499 257.975387 
" clip-path="url(#p14a3630ce0)" style="fill: none; stroke: #ffa500; stroke-width: 1.5"/>
    <path d="M 327.757659 122.759066 
L 344.219016 122.759066 
" clip-path="url(#p14a3630ce0)" style="fill: none; stroke: #ffa500; stroke-width: 1.5"/>
    <path d="M 275.630028 75.982988 
L 292.091385 75.982988 
" clip-path="url(#p14a3630ce0)" style="fill: none; stroke: #ffa500; stroke-width: 1.5"/>
    <path d="M 218.929798 160.752363 
L 235.391155 160.752363 
" clip-path="url(#p14a3630ce0)" style="fill: none; stroke: #ffa500; stroke-width: 1.5"/>
    <path d="M 296.663984 81.061588 
L 313.125342 81.061588 
" clip-path="url(#p14a3630ce0)" style="fill: none; stroke: #ffa500; stroke-width: 1.5"/>
    <path d="M 318.612461 97.659796 
L 335.073818 97.659796 
" clip-path="url(#p14a3630ce0)" style="fill: none; stroke: #ffa500; stroke-width: 1.5"/>
    <path d="M 281.117147 100.41992 
L 297.578504 100.41992 
" clip-path="url(#p14a3630ce0)" style="fill: none; stroke: #ffa500; stroke-width: 1.5"/>
    <path d="M 183.263524 154.876176 
L 199.724881 154.876176 
" clip-path="url(#p14a3630ce0)" style="fill: none; stroke: #ffa500; stroke-width: 1.5"/>
    <path d="M 256.425111 161.506603 
L 272.886468 161.506603 
" clip-path="url(#p14a3630ce0)" style="fill: none; stroke: #ffa500; stroke-width: 1.5"/>
    <path d="M 306.723703 88.450812 
L 323.18506 88.450812 
" clip-path="url(#p14a3630ce0)" style="fill: none; stroke: #ffa500; stroke-width: 1.5"/>
    <path d="M 205.212 178.491884 
L 221.673357 178.491884 
" clip-path="url(#p14a3630ce0)" style="fill: none; stroke: #ffa500; stroke-width: 1.5"/>
    <path d="M 242.707314 134.395216 
L 259.168671 134.395216 
" clip-path="url(#p14a3630ce0)" style="fill: none; stroke: #ffa500; stroke-width: 1.5"/>
    <path d="M 274.715508 121.103035 
L 291.176865 121.103035 
" clip-path="url(#p14a3630ce0)" style="fill: none; stroke: #ffa500; stroke-width: 1.5"/>
    <path d="M 251.852512 149.950816 
L 268.313869 149.950816 
" clip-path="url(#p14a3630ce0)" style="fill: none; stroke: #ffa500; stroke-width: 1.5"/>
    <path d="M 321.35602 100.41992 
L 337.817378 100.41992 
" clip-path="url(#p14a3630ce0)" style="fill: none; stroke: #ffa500; stroke-width: 1.5"/>
    <path d="M 310.381782 81.061588 
L 326.843139 81.061588 
" clip-path="url(#p14a3630ce0)" style="fill: none; stroke: #ffa500; stroke-width: 1.5"/>
    <path d="M 237.220194 114.169013 
L 253.681552 114.169013 
" clip-path="url(#p14a3630ce0)" style="fill: none; stroke: #ffa500; stroke-width: 1.5"/>
    <path d="M 307.638223 88.874356 
L 324.09958 88.874356 
" clip-path="url(#p14a3630ce0)" style="fill: none; stroke: #ffa500; stroke-width: 1.5"/>
    <path d="M 297.578504 149.950816 
L 314.039862 149.950816 
" clip-path="url(#p14a3630ce0)" style="fill: none; stroke: #ffa500; stroke-width: 1.5"/>
    <path d="M 239.963754 160.752363 
L 256.425111 160.752363 
" clip-path="url(#p14a3630ce0)" style="fill: none; stroke: #ffa500; stroke-width: 1.5"/>
    <path d="M 327.757659 87.188685 
L 344.219016 87.188685 
" clip-path="url(#p14a3630ce0)" style="fill: none; stroke: #ffa500; stroke-width: 1.5"/>
    <path d="M 237.220194 144.548668 
L 253.681552 144.548668 
" clip-path="url(#p14a3630ce0)" style="fill: none; stroke: #ffa500; stroke-width: 1.5"/>
    <path d="M 316.783421 77.523873 
L 333.244778 77.523873 
" clip-path="url(#p14a3630ce0)" style="fill: none; stroke: #ffa500; stroke-width: 1.5"/>
    <path d="M 125.648773 147.897682 
L 143.93917 147.897682 
" clip-path="url(#p14a3630ce0)" style="fill: none; stroke: #ffa500; stroke-width: 1.5"/>
    <path d="M 309.467262 57.502846 
L 325.92862 57.502846 
" clip-path="url(#p14a3630ce0)" style="fill: none; stroke: #ffa500; stroke-width: 1.5"/>
    <path d="M 248.194433 153.449109 
L 264.65579 153.449109 
" clip-path="url(#p14a3630ce0)" style="fill: none; stroke: #ffa500; stroke-width: 1.5"/>
    <path d="M 265.57031 66.04904 
L 282.031667 66.04904 
" clip-path="url(#p14a3630ce0)" style="fill: none; stroke: #ffa500; stroke-width: 1.5"/>
    <path d="M 350.620655 68.911399 
L 367.082013 68.911399 
" clip-path="url(#p14a3630ce0)" style="fill: none; stroke: #ffa500; stroke-width: 1.5"/>
    <path d="M 276.544548 125.001636 
L 293.005905 125.001636 
" clip-path="url(#p14a3630ce0)" style="fill: none; stroke: #ffa500; stroke-width: 1.5"/>
    <path d="M 255.510591 174.234507 
L 271.971949 174.234507 
" clip-path="url(#p14a3630ce0)" style="fill: none; stroke: #ffa500; stroke-width: 1.5"/>
    <path d="M 310.381782 74.083095 
L 326.843139 74.083095 
" clip-path="url(#p14a3630ce0)" style="fill: none; stroke: #ffa500; stroke-width: 1.5"/>
    <path d="M 305.809183 75.982988 
L 322.27054 75.982988 
" clip-path="url(#p14a3630ce0)" style="fill: none; stroke: #ffa500; stroke-width: 1.5"/>
    <path d="M 250.937992 149.262702 
L 267.399349 149.262702 
" clip-path="url(#p14a3630ce0)" style="fill: none; stroke: #ffa500; stroke-width: 1.5"/>
    <path d="M 211.613639 115.735527 
L 228.074996 115.735527 
" clip-path="url(#p14a3630ce0)" style="fill: none; stroke: #ffa500; stroke-width: 1.5"/>
    <path d="M 314.039862 79.871242 
L 330.501219 79.871242 
" clip-path="url(#p14a3630ce0)" style="fill: none; stroke: #ffa500; stroke-width: 1.5"/>
    <path d="M 273.800988 54.563245 
L 290.262346 54.563245 
" clip-path="url(#p14a3630ce0)" style="fill: none; stroke: #ffa500; stroke-width: 1.5"/>
    <path d="M 305.809183 102.294291 
L 324.09958 102.294291 
" clip-path="url(#p14a3630ce0)" style="fill: none; stroke: #ffa500; stroke-width: 1.5"/>
    <path d="M 310.381782 90.582962 
L 326.843139 90.582962 
" clip-path="url(#p14a3630ce0)" style="fill: none; stroke: #ffa500; stroke-width: 1.5"/>
    <path d="M 319.526981 106.616803 
L 335.988338 106.616803 
" clip-path="url(#p14a3630ce0)" style="fill: none; stroke: #ffa500; stroke-width: 1.5"/>
    <path d="M 305.809183 74.839606 
L 322.27054 74.839606 
" clip-path="url(#p14a3630ce0)" style="fill: none; stroke: #ffa500; stroke-width: 1.5"/>
    <path d="M 324.09958 92.315135 
L 342.389977 92.315135 
" clip-path="url(#p14a3630ce0)" style="fill: none; stroke: #ffa500; stroke-width: 1.5"/>
    <path d="M 322.27054 78.301465 
L 338.731897 78.301465 
" clip-path="url(#p14a3630ce0)" style="fill: none; stroke: #ffa500; stroke-width: 1.5"/>
   </g>
   <g id="LineCollection_2">
    <path d="M 80.837301 262.966 
L 80.837301 253.175545 
" clip-path="url(#p14a3630ce0)" style="fill: none; stroke: #ffa500; stroke-width: 1.5"/>
    <path d="M 335.988338 127.862365 
L 335.988338 117.85508 
" clip-path="url(#p14a3630ce0)" style="fill: none; stroke: #ffa500; stroke-width: 1.5"/>
    <path d="M 283.860707 79.476954 
L 283.860707 72.583607 
" clip-path="url(#p14a3630ce0)" style="fill: none; stroke: #ffa500; stroke-width: 1.5"/>
    <path d="M 227.160476 163.02881 
L 227.160476 158.516448 
" clip-path="url(#p14a3630ce0)" style="fill: none; stroke: #ffa500; stroke-width: 1.5"/>
    <path d="M 304.894663 82.263326 
L 304.894663 79.871242 
" clip-path="url(#p14a3630ce0)" style="fill: none; stroke: #ffa500; stroke-width: 1.5"/>
    <path d="M 326.843139 98.573113 
L 326.843139 96.753073 
" clip-path="url(#p14a3630ce0)" style="fill: none; stroke: #ffa500; stroke-width: 1.5"/>
    <path d="M 289.347826 105.159372 
L 289.347826 95.85285 
" clip-path="url(#p14a3630ce0)" style="fill: none; stroke: #ffa500; stroke-width: 1.5"/>
    <path d="M 191.494202 160.752363 
L 191.494202 149.262702 
" clip-path="url(#p14a3630ce0)" style="fill: none; stroke: #ffa500; stroke-width: 1.5"/>
    <path d="M 264.65579 174.234507 
L 264.65579 149.950816 
" clip-path="url(#p14a3630ce0)" style="fill: none; stroke: #ffa500; stroke-width: 1.5"/>
    <path d="M 314.954381 93.630127 
L 314.954381 83.476674 
" clip-path="url(#p14a3630ce0)" style="fill: none; stroke: #ffa500; stroke-width: 1.5"/>
    <path d="M 213.442678 184.705618 
L 213.442678 172.571164 
" clip-path="url(#p14a3630ce0)" style="fill: none; stroke: #ffa500; stroke-width: 1.5"/>
    <path d="M 250.937992 140.644295 
L 250.937992 128.442415 
" clip-path="url(#p14a3630ce0)" style="fill: none; stroke: #ffa500; stroke-width: 1.5"/>
    <path d="M 282.946187 127.284982 
L 282.946187 115.211181 
" clip-path="url(#p14a3630ce0)" style="fill: none; stroke: #ffa500; stroke-width: 1.5"/>
    <path d="M 260.083191 156.319647 
L 260.083191 143.889451 
" clip-path="url(#p14a3630ce0)" style="fill: none; stroke: #ffa500; stroke-width: 1.5"/>
    <path d="M 329.586699 113.651154 
L 329.586699 88.450812 
" clip-path="url(#p14a3630ce0)" style="fill: none; stroke: #ffa500; stroke-width: 1.5"/>
    <path d="M 318.612461 87.188685 
L 318.612461 75.219578 
" clip-path="url(#p14a3630ce0)" style="fill: none; stroke: #ffa500; stroke-width: 1.5"/>
    <path d="M 245.450873 120.555842 
L 245.450873 108.091347 
" clip-path="url(#p14a3630ce0)" style="fill: none; stroke: #ffa500; stroke-width: 1.5"/>
    <path d="M 315.868901 94.959034 
L 315.868901 83.07092 
" clip-path="url(#p14a3630ce0)" style="fill: none; stroke: #ffa500; stroke-width: 1.5"/>
    <path d="M 305.809183 153.449109 
L 305.809183 146.547341 
" clip-path="url(#p14a3630ce0)" style="fill: none; stroke: #ffa500; stroke-width: 1.5"/>
    <path d="M 248.194433 166.917064 
L 248.194433 154.876176 
" clip-path="url(#p14a3630ce0)" style="fill: none; stroke: #ffa500; stroke-width: 1.5"/>
    <path d="M 335.988338 90.153626 
L 335.988338 84.292135 
" clip-path="url(#p14a3630ce0)" style="fill: none; stroke: #ffa500; stroke-width: 1.5"/>
    <path d="M 245.450873 150.642722 
L 245.450873 138.736705 
" clip-path="url(#p14a3630ce0)" style="fill: none; stroke: #ffa500; stroke-width: 1.5"/>
    <path d="M 325.0141 88.874356 
L 325.0141 67.114793 
" clip-path="url(#p14a3630ce0)" style="fill: none; stroke: #ffa500; stroke-width: 1.5"/>
    <path d="M 134.793972 154.160615 
L 134.793972 141.932312 
" clip-path="url(#p14a3630ce0)" style="fill: none; stroke: #ffa500; stroke-width: 1.5"/>
    <path d="M 317.697941 63.944288 
L 317.697941 51.37575 
" clip-path="url(#p14a3630ce0)" style="fill: none; stroke: #ffa500; stroke-width: 1.5"/>
    <path d="M 256.425111 159.257338 
L 256.425111 147.897682 
" clip-path="url(#p14a3630ce0)" style="fill: none; stroke: #ffa500; stroke-width: 1.5"/>
    <path d="M 273.800988 71.101813 
L 273.800988 61.191727 
" clip-path="url(#p14a3630ce0)" style="fill: none; stroke: #ffa500; stroke-width: 1.5"/>
    <path d="M 358.851334 70.734081 
L 358.851334 67.114793 
" clip-path="url(#p14a3630ce0)" style="fill: none; stroke: #ffa500; stroke-width: 1.5"/>
    <path d="M 284.775226 131.383547 
L 284.775226 118.928425 
" clip-path="url(#p14a3630ce0)" style="fill: none; stroke: #ffa500; stroke-width: 1.5"/>
    <path d="M 263.74127 180.236086 
L 263.74127 168.506713 
" clip-path="url(#p14a3630ce0)" style="fill: none; stroke: #ffa500; stroke-width: 1.5"/>
    <path d="M 318.612461 74.839606 
L 318.612461 73.331113 
" clip-path="url(#p14a3630ce0)" style="fill: none; stroke: #ffa500; stroke-width: 1.5"/>
    <path d="M 314.039862 80.266772 
L 314.039862 71.840525 
" clip-path="url(#p14a3630ce0)" style="fill: none; stroke: #ffa500; stroke-width: 1.5"/>
    <path d="M 259.168671 155.595838 
L 259.168671 143.233677 
" clip-path="url(#p14a3630ce0)" style="fill: none; stroke: #ffa500; stroke-width: 1.5"/>
    <path d="M 219.844317 121.652622 
L 219.844317 110.084731 
" clip-path="url(#p14a3630ce0)" style="fill: none; stroke: #ffa500; stroke-width: 1.5"/>
    <path d="M 322.27054 80.663551 
L 322.27054 79.083901 
" clip-path="url(#p14a3630ce0)" style="fill: none; stroke: #ffa500; stroke-width: 1.5"/>
    <path d="M 282.031667 55.535486 
L 282.031667 53.598473 
" clip-path="url(#p14a3630ce0)" style="fill: none; stroke: #ffa500; stroke-width: 1.5"/>
    <path d="M 314.954381 108.586735 
L 314.954381 96.302155 
" clip-path="url(#p14a3630ce0)" style="fill: none; stroke: #ffa500; stroke-width: 1.5"/>
    <path d="M 318.612461 92.751937 
L 318.612461 88.450812 
" clip-path="url(#p14a3630ce0)" style="fill: none; stroke: #ffa500; stroke-width: 1.5"/>
    <path d="M 327.757659 120.011023 
L 327.757659 94.514501 
" clip-path="url(#p14a3630ce0)" style="fill: none; stroke: #ffa500; stroke-width: 1.5"/>
    <path d="M 314.039862 76.751067 
L 314.039862 72.956804 
" clip-path="url(#p14a3630ce0)" style="fill: none; stroke: #ffa500; stroke-width: 1.5"/>
    <path d="M 333.244778 98.573113 
L 333.244778 86.35426 
" clip-path="url(#p14a3630ce0)" style="fill: none; stroke: #ffa500; stroke-width: 1.5"/>
    <path d="M 330.501219 84.70186 
L 330.501219 72.211516 
" clip-path="url(#p14a3630ce0)" style="fill: none; stroke: #ffa500; stroke-width: 1.5"/>
   </g>
   <g id="line2d_33">
    <defs>
     <path id="m0782eef2a5" d="M 0 2 
L 0 -2 
" style="stroke: #ffa500"/>
    </defs>
    <g clip-path="url(#p14a3630ce0)">
     <use xlink:href="#m0782eef2a5" x="71.692102" y="257.975387" style="fill: #ffa500; stroke: #ffa500"/>
     <use xlink:href="#m0782eef2a5" x="327.757659" y="122.759066" style="fill: #ffa500; stroke: #ffa500"/>
     <use xlink:href="#m0782eef2a5" x="275.630028" y="75.982988" style="fill: #ffa500; stroke: #ffa500"/>
     <use xlink:href="#m0782eef2a5" x="218.929798" y="160.752363" style="fill: #ffa500; stroke: #ffa500"/>
     <use xlink:href="#m0782eef2a5" x="296.663984" y="81.061588" style="fill: #ffa500; stroke: #ffa500"/>
     <use xlink:href="#m0782eef2a5" x="318.612461" y="97.659796" style="fill: #ffa500; stroke: #ffa500"/>
     <use xlink:href="#m0782eef2a5" x="281.117147" y="100.41992" style="fill: #ffa500; stroke: #ffa500"/>
     <use xlink:href="#m0782eef2a5" x="183.263524" y="154.876176" style="fill: #ffa500; stroke: #ffa500"/>
     <use xlink:href="#m0782eef2a5" x="256.425111" y="161.506603" style="fill: #ffa500; stroke: #ffa500"/>
     <use xlink:href="#m0782eef2a5" x="306.723703" y="88.450812" style="fill: #ffa500; stroke: #ffa500"/>
     <use xlink:href="#m0782eef2a5" x="205.212" y="178.491884" style="fill: #ffa500; stroke: #ffa500"/>
     <use xlink:href="#m0782eef2a5" x="242.707314" y="134.395216" style="fill: #ffa500; stroke: #ffa500"/>
     <use xlink:href="#m0782eef2a5" x="274.715508" y="121.103035" style="fill: #ffa500; stroke: #ffa500"/>
     <use xlink:href="#m0782eef2a5" x="251.852512" y="149.950816" style="fill: #ffa500; stroke: #ffa500"/>
     <use xlink:href="#m0782eef2a5" x="321.35602" y="100.41992" style="fill: #ffa500; stroke: #ffa500"/>
     <use xlink:href="#m0782eef2a5" x="310.381782" y="81.061588" style="fill: #ffa500; stroke: #ffa500"/>
     <use xlink:href="#m0782eef2a5" x="237.220194" y="114.169013" style="fill: #ffa500; stroke: #ffa500"/>
     <use xlink:href="#m0782eef2a5" x="307.638223" y="88.874356" style="fill: #ffa500; stroke: #ffa500"/>
     <use xlink:href="#m0782eef2a5" x="297.578504" y="149.950816" style="fill: #ffa500; stroke: #ffa500"/>
     <use xlink:href="#m0782eef2a5" x="239.963754" y="160.752363" style="fill: #ffa500; stroke: #ffa500"/>
     <use xlink:href="#m0782eef2a5" x="327.757659" y="87.188685" style="fill: #ffa500; stroke: #ffa500"/>
     <use xlink:href="#m0782eef2a5" x="237.220194" y="144.548668" style="fill: #ffa500; stroke: #ffa500"/>
     <use xlink:href="#m0782eef2a5" x="316.783421" y="77.523873" style="fill: #ffa500; stroke: #ffa500"/>
     <use xlink:href="#m0782eef2a5" x="125.648773" y="147.897682" style="fill: #ffa500; stroke: #ffa500"/>
     <use xlink:href="#m0782eef2a5" x="309.467262" y="57.502846" style="fill: #ffa500; stroke: #ffa500"/>
     <use xlink:href="#m0782eef2a5" x="248.194433" y="153.449109" style="fill: #ffa500; stroke: #ffa500"/>
     <use xlink:href="#m0782eef2a5" x="265.57031" y="66.04904" style="fill: #ffa500; stroke: #ffa500"/>
     <use xlink:href="#m0782eef2a5" x="350.620655" y="68.911399" style="fill: #ffa500; stroke: #ffa500"/>
     <use xlink:href="#m0782eef2a5" x="276.544548" y="125.001636" style="fill: #ffa500; stroke: #ffa500"/>
     <use xlink:href="#m0782eef2a5" x="255.510591" y="174.234507" style="fill: #ffa500; stroke: #ffa500"/>
     <use xlink:href="#m0782eef2a5" x="310.381782" y="74.083095" style="fill: #ffa500; stroke: #ffa500"/>
     <use xlink:href="#m0782eef2a5" x="305.809183" y="75.982988" style="fill: #ffa500; stroke: #ffa500"/>
     <use xlink:href="#m0782eef2a5" x="250.937992" y="149.262702" style="fill: #ffa500; stroke: #ffa500"/>
     <use xlink:href="#m0782eef2a5" x="211.613639" y="115.735527" style="fill: #ffa500; stroke: #ffa500"/>
     <use xlink:href="#m0782eef2a5" x="314.039862" y="79.871242" style="fill: #ffa500; stroke: #ffa500"/>
     <use xlink:href="#m0782eef2a5" x="273.800988" y="54.563245" style="fill: #ffa500; stroke: #ffa500"/>
     <use xlink:href="#m0782eef2a5" x="305.809183" y="102.294291" style="fill: #ffa500; stroke: #ffa500"/>
     <use xlink:href="#m0782eef2a5" x="310.381782" y="90.582962" style="fill: #ffa500; stroke: #ffa500"/>
     <use xlink:href="#m0782eef2a5" x="319.526981" y="106.616803" style="fill: #ffa500; stroke: #ffa500"/>
     <use xlink:href="#m0782eef2a5" x="305.809183" y="74.839606" style="fill: #ffa500; stroke: #ffa500"/>
     <use xlink:href="#m0782eef2a5" x="324.09958" y="92.315135" style="fill: #ffa500; stroke: #ffa500"/>
     <use xlink:href="#m0782eef2a5" x="322.27054" y="78.301465" style="fill: #ffa500; stroke: #ffa500"/>
    </g>
   </g>
   <g id="line2d_34">
    <g clip-path="url(#p14a3630ce0)">
     <use xlink:href="#m0782eef2a5" x="89.982499" y="257.975387" style="fill: #ffa500; stroke: #ffa500"/>
     <use xlink:href="#m0782eef2a5" x="344.219016" y="122.759066" style="fill: #ffa500; stroke: #ffa500"/>
     <use xlink:href="#m0782eef2a5" x="292.091385" y="75.982988" style="fill: #ffa500; stroke: #ffa500"/>
     <use xlink:href="#m0782eef2a5" x="235.391155" y="160.752363" style="fill: #ffa500; stroke: #ffa500"/>
     <use xlink:href="#m0782eef2a5" x="313.125342" y="81.061588" style="fill: #ffa500; stroke: #ffa500"/>
     <use xlink:href="#m0782eef2a5" x="335.073818" y="97.659796" style="fill: #ffa500; stroke: #ffa500"/>
     <use xlink:href="#m0782eef2a5" x="297.578504" y="100.41992" style="fill: #ffa500; stroke: #ffa500"/>
     <use xlink:href="#m0782eef2a5" x="199.724881" y="154.876176" style="fill: #ffa500; stroke: #ffa500"/>
     <use xlink:href="#m0782eef2a5" x="272.886468" y="161.506603" style="fill: #ffa500; stroke: #ffa500"/>
     <use xlink:href="#m0782eef2a5" x="323.18506" y="88.450812" style="fill: #ffa500; stroke: #ffa500"/>
     <use xlink:href="#m0782eef2a5" x="221.673357" y="178.491884" style="fill: #ffa500; stroke: #ffa500"/>
     <use xlink:href="#m0782eef2a5" x="259.168671" y="134.395216" style="fill: #ffa500; stroke: #ffa500"/>
     <use xlink:href="#m0782eef2a5" x="291.176865" y="121.103035" style="fill: #ffa500; stroke: #ffa500"/>
     <use xlink:href="#m0782eef2a5" x="268.313869" y="149.950816" style="fill: #ffa500; stroke: #ffa500"/>
     <use xlink:href="#m0782eef2a5" x="337.817378" y="100.41992" style="fill: #ffa500; stroke: #ffa500"/>
     <use xlink:href="#m0782eef2a5" x="326.843139" y="81.061588" style="fill: #ffa500; stroke: #ffa500"/>
     <use xlink:href="#m0782eef2a5" x="253.681552" y="114.169013" style="fill: #ffa500; stroke: #ffa500"/>
     <use xlink:href="#m0782eef2a5" x="324.09958" y="88.874356" style="fill: #ffa500; stroke: #ffa500"/>
     <use xlink:href="#m0782eef2a5" x="314.039862" y="149.950816" style="fill: #ffa500; stroke: #ffa500"/>
     <use xlink:href="#m0782eef2a5" x="256.425111" y="160.752363" style="fill: #ffa500; stroke: #ffa500"/>
     <use xlink:href="#m0782eef2a5" x="344.219016" y="87.188685" style="fill: #ffa500; stroke: #ffa500"/>
     <use xlink:href="#m0782eef2a5" x="253.681552" y="144.548668" style="fill: #ffa500; stroke: #ffa500"/>
     <use xlink:href="#m0782eef2a5" x="333.244778" y="77.523873" style="fill: #ffa500; stroke: #ffa500"/>
     <use xlink:href="#m0782eef2a5" x="143.93917" y="147.897682" style="fill: #ffa500; stroke: #ffa500"/>
     <use xlink:href="#m0782eef2a5" x="325.92862" y="57.502846" style="fill: #ffa500; stroke: #ffa500"/>
     <use xlink:href="#m0782eef2a5" x="264.65579" y="153.449109" style="fill: #ffa500; stroke: #ffa500"/>
     <use xlink:href="#m0782eef2a5" x="282.031667" y="66.04904" style="fill: #ffa500; stroke: #ffa500"/>
     <use xlink:href="#m0782eef2a5" x="367.082013" y="68.911399" style="fill: #ffa500; stroke: #ffa500"/>
     <use xlink:href="#m0782eef2a5" x="293.005905" y="125.001636" style="fill: #ffa500; stroke: #ffa500"/>
     <use xlink:href="#m0782eef2a5" x="271.971949" y="174.234507" style="fill: #ffa500; stroke: #ffa500"/>
     <use xlink:href="#m0782eef2a5" x="326.843139" y="74.083095" style="fill: #ffa500; stroke: #ffa500"/>
     <use xlink:href="#m0782eef2a5" x="322.27054" y="75.982988" style="fill: #ffa500; stroke: #ffa500"/>
     <use xlink:href="#m0782eef2a5" x="267.399349" y="149.262702" style="fill: #ffa500; stroke: #ffa500"/>
     <use xlink:href="#m0782eef2a5" x="228.074996" y="115.735527" style="fill: #ffa500; stroke: #ffa500"/>
     <use xlink:href="#m0782eef2a5" x="330.501219" y="79.871242" style="fill: #ffa500; stroke: #ffa500"/>
     <use xlink:href="#m0782eef2a5" x="290.262346" y="54.563245" style="fill: #ffa500; stroke: #ffa500"/>
     <use xlink:href="#m0782eef2a5" x="324.09958" y="102.294291" style="fill: #ffa500; stroke: #ffa500"/>
     <use xlink:href="#m0782eef2a5" x="326.843139" y="90.582962" style="fill: #ffa500; stroke: #ffa500"/>
     <use xlink:href="#m0782eef2a5" x="335.988338" y="106.616803" style="fill: #ffa500; stroke: #ffa500"/>
     <use xlink:href="#m0782eef2a5" x="322.27054" y="74.839606" style="fill: #ffa500; stroke: #ffa500"/>
     <use xlink:href="#m0782eef2a5" x="342.389977" y="92.315135" style="fill: #ffa500; stroke: #ffa500"/>
     <use xlink:href="#m0782eef2a5" x="338.731897" y="78.301465" style="fill: #ffa500; stroke: #ffa500"/>
    </g>
   </g>
   <g id="line2d_35">
    <defs>
     <path id="m7b2c4c1101" d="M 2 0 
L -2 -0 
" style="stroke: #ffa500"/>
    </defs>
    <g clip-path="url(#p14a3630ce0)">
     <use xlink:href="#m7b2c4c1101" x="80.837301" y="262.966" style="fill: #ffa500; stroke: #ffa500"/>
     <use xlink:href="#m7b2c4c1101" x="335.988338" y="127.862365" style="fill: #ffa500; stroke: #ffa500"/>
     <use xlink:href="#m7b2c4c1101" x="283.860707" y="79.476954" style="fill: #ffa500; stroke: #ffa500"/>
     <use xlink:href="#m7b2c4c1101" x="227.160476" y="163.02881" style="fill: #ffa500; stroke: #ffa500"/>
     <use xlink:href="#m7b2c4c1101" x="304.894663" y="82.263326" style="fill: #ffa500; stroke: #ffa500"/>
     <use xlink:href="#m7b2c4c1101" x="326.843139" y="98.573113" style="fill: #ffa500; stroke: #ffa500"/>
     <use xlink:href="#m7b2c4c1101" x="289.347826" y="105.159372" style="fill: #ffa500; stroke: #ffa500"/>
     <use xlink:href="#m7b2c4c1101" x="191.494202" y="160.752363" style="fill: #ffa500; stroke: #ffa500"/>
     <use xlink:href="#m7b2c4c1101" x="264.65579" y="174.234507" style="fill: #ffa500; stroke: #ffa500"/>
     <use xlink:href="#m7b2c4c1101" x="314.954381" y="93.630127" style="fill: #ffa500; stroke: #ffa500"/>
     <use xlink:href="#m7b2c4c1101" x="213.442678" y="184.705618" style="fill: #ffa500; stroke: #ffa500"/>
     <use xlink:href="#m7b2c4c1101" x="250.937992" y="140.644295" style="fill: #ffa500; stroke: #ffa500"/>
     <use xlink:href="#m7b2c4c1101" x="282.946187" y="127.284982" style="fill: #ffa500; stroke: #ffa500"/>
     <use xlink:href="#m7b2c4c1101" x="260.083191" y="156.319647" style="fill: #ffa500; stroke: #ffa500"/>
     <use xlink:href="#m7b2c4c1101" x="329.586699" y="113.651154" style="fill: #ffa500; stroke: #ffa500"/>
     <use xlink:href="#m7b2c4c1101" x="318.612461" y="87.188685" style="fill: #ffa500; stroke: #ffa500"/>
     <use xlink:href="#m7b2c4c1101" x="245.450873" y="120.555842" style="fill: #ffa500; stroke: #ffa500"/>
     <use xlink:href="#m7b2c4c1101" x="315.868901" y="94.959034" style="fill: #ffa500; stroke: #ffa500"/>
     <use xlink:href="#m7b2c4c1101" x="305.809183" y="153.449109" style="fill: #ffa500; stroke: #ffa500"/>
     <use xlink:href="#m7b2c4c1101" x="248.194433" y="166.917064" style="fill: #ffa500; stroke: #ffa500"/>
     <use xlink:href="#m7b2c4c1101" x="335.988338" y="90.153626" style="fill: #ffa500; stroke: #ffa500"/>
     <use xlink:href="#m7b2c4c1101" x="245.450873" y="150.642722" style="fill: #ffa500; stroke: #ffa500"/>
     <use xlink:href="#m7b2c4c1101" x="325.0141" y="88.874356" style="fill: #ffa500; stroke: #ffa500"/>
     <use xlink:href="#m7b2c4c1101" x="134.793972" y="154.160615" style="fill: #ffa500; stroke: #ffa500"/>
     <use xlink:href="#m7b2c4c1101" x="317.697941" y="63.944288" style="fill: #ffa500; stroke: #ffa500"/>
     <use xlink:href="#m7b2c4c1101" x="256.425111" y="159.257338" style="fill: #ffa500; stroke: #ffa500"/>
     <use xlink:href="#m7b2c4c1101" x="273.800988" y="71.101813" style="fill: #ffa500; stroke: #ffa500"/>
     <use xlink:href="#m7b2c4c1101" x="358.851334" y="70.734081" style="fill: #ffa500; stroke: #ffa500"/>
     <use xlink:href="#m7b2c4c1101" x="284.775226" y="131.383547" style="fill: #ffa500; stroke: #ffa500"/>
     <use xlink:href="#m7b2c4c1101" x="263.74127" y="180.236086" style="fill: #ffa500; stroke: #ffa500"/>
     <use xlink:href="#m7b2c4c1101" x="318.612461" y="74.839606" style="fill: #ffa500; stroke: #ffa500"/>
     <use xlink:href="#m7b2c4c1101" x="314.039862" y="80.266772" style="fill: #ffa500; stroke: #ffa500"/>
     <use xlink:href="#m7b2c4c1101" x="259.168671" y="155.595838" style="fill: #ffa500; stroke: #ffa500"/>
     <use xlink:href="#m7b2c4c1101" x="219.844317" y="121.652622" style="fill: #ffa500; stroke: #ffa500"/>
     <use xlink:href="#m7b2c4c1101" x="322.27054" y="80.663551" style="fill: #ffa500; stroke: #ffa500"/>
     <use xlink:href="#m7b2c4c1101" x="282.031667" y="55.535486" style="fill: #ffa500; stroke: #ffa500"/>
     <use xlink:href="#m7b2c4c1101" x="314.954381" y="108.586735" style="fill: #ffa500; stroke: #ffa500"/>
     <use xlink:href="#m7b2c4c1101" x="318.612461" y="92.751937" style="fill: #ffa500; stroke: #ffa500"/>
     <use xlink:href="#m7b2c4c1101" x="327.757659" y="120.011023" style="fill: #ffa500; stroke: #ffa500"/>
     <use xlink:href="#m7b2c4c1101" x="314.039862" y="76.751067" style="fill: #ffa500; stroke: #ffa500"/>
     <use xlink:href="#m7b2c4c1101" x="333.244778" y="98.573113" style="fill: #ffa500; stroke: #ffa500"/>
     <use xlink:href="#m7b2c4c1101" x="330.501219" y="84.70186" style="fill: #ffa500; stroke: #ffa500"/>
    </g>
   </g>
   <g id="line2d_36">
    <g clip-path="url(#p14a3630ce0)">
     <use xlink:href="#m7b2c4c1101" x="80.837301" y="253.175545" style="fill: #ffa500; stroke: #ffa500"/>
     <use xlink:href="#m7b2c4c1101" x="335.988338" y="117.85508" style="fill: #ffa500; stroke: #ffa500"/>
     <use xlink:href="#m7b2c4c1101" x="283.860707" y="72.583607" style="fill: #ffa500; stroke: #ffa500"/>
     <use xlink:href="#m7b2c4c1101" x="227.160476" y="158.516448" style="fill: #ffa500; stroke: #ffa500"/>
     <use xlink:href="#m7b2c4c1101" x="304.894663" y="79.871242" style="fill: #ffa500; stroke: #ffa500"/>
     <use xlink:href="#m7b2c4c1101" x="326.843139" y="96.753073" style="fill: #ffa500; stroke: #ffa500"/>
     <use xlink:href="#m7b2c4c1101" x="289.347826" y="95.85285" style="fill: #ffa500; stroke: #ffa500"/>
     <use xlink:href="#m7b2c4c1101" x="191.494202" y="149.262702" style="fill: #ffa500; stroke: #ffa500"/>
     <use xlink:href="#m7b2c4c1101" x="264.65579" y="149.950816" style="fill: #ffa500; stroke: #ffa500"/>
     <use xlink:href="#m7b2c4c1101" x="314.954381" y="83.476674" style="fill: #ffa500; stroke: #ffa500"/>
     <use xlink:href="#m7b2c4c1101" x="213.442678" y="172.571164" style="fill: #ffa500; stroke: #ffa500"/>
     <use xlink:href="#m7b2c4c1101" x="250.937992" y="128.442415" style="fill: #ffa500; stroke: #ffa500"/>
     <use xlink:href="#m7b2c4c1101" x="282.946187" y="115.211181" style="fill: #ffa500; stroke: #ffa500"/>
     <use xlink:href="#m7b2c4c1101" x="260.083191" y="143.889451" style="fill: #ffa500; stroke: #ffa500"/>
     <use xlink:href="#m7b2c4c1101" x="329.586699" y="88.450812" style="fill: #ffa500; stroke: #ffa500"/>
     <use xlink:href="#m7b2c4c1101" x="318.612461" y="75.219578" style="fill: #ffa500; stroke: #ffa500"/>
     <use xlink:href="#m7b2c4c1101" x="245.450873" y="108.091347" style="fill: #ffa500; stroke: #ffa500"/>
     <use xlink:href="#m7b2c4c1101" x="315.868901" y="83.07092" style="fill: #ffa500; stroke: #ffa500"/>
     <use xlink:href="#m7b2c4c1101" x="305.809183" y="146.547341" style="fill: #ffa500; stroke: #ffa500"/>
     <use xlink:href="#m7b2c4c1101" x="248.194433" y="154.876176" style="fill: #ffa500; stroke: #ffa500"/>
     <use xlink:href="#m7b2c4c1101" x="335.988338" y="84.292135" style="fill: #ffa500; stroke: #ffa500"/>
     <use xlink:href="#m7b2c4c1101" x="245.450873" y="138.736705" style="fill: #ffa500; stroke: #ffa500"/>
     <use xlink:href="#m7b2c4c1101" x="325.0141" y="67.114793" style="fill: #ffa500; stroke: #ffa500"/>
     <use xlink:href="#m7b2c4c1101" x="134.793972" y="141.932312" style="fill: #ffa500; stroke: #ffa500"/>
     <use xlink:href="#m7b2c4c1101" x="317.697941" y="51.37575" style="fill: #ffa500; stroke: #ffa500"/>
     <use xlink:href="#m7b2c4c1101" x="256.425111" y="147.897682" style="fill: #ffa500; stroke: #ffa500"/>
     <use xlink:href="#m7b2c4c1101" x="273.800988" y="61.191727" style="fill: #ffa500; stroke: #ffa500"/>
     <use xlink:href="#m7b2c4c1101" x="358.851334" y="67.114793" style="fill: #ffa500; stroke: #ffa500"/>
     <use xlink:href="#m7b2c4c1101" x="284.775226" y="118.928425" style="fill: #ffa500; stroke: #ffa500"/>
     <use xlink:href="#m7b2c4c1101" x="263.74127" y="168.506713" style="fill: #ffa500; stroke: #ffa500"/>
     <use xlink:href="#m7b2c4c1101" x="318.612461" y="73.331113" style="fill: #ffa500; stroke: #ffa500"/>
     <use xlink:href="#m7b2c4c1101" x="314.039862" y="71.840525" style="fill: #ffa500; stroke: #ffa500"/>
     <use xlink:href="#m7b2c4c1101" x="259.168671" y="143.233677" style="fill: #ffa500; stroke: #ffa500"/>
     <use xlink:href="#m7b2c4c1101" x="219.844317" y="110.084731" style="fill: #ffa500; stroke: #ffa500"/>
     <use xlink:href="#m7b2c4c1101" x="322.27054" y="79.083901" style="fill: #ffa500; stroke: #ffa500"/>
     <use xlink:href="#m7b2c4c1101" x="282.031667" y="53.598473" style="fill: #ffa500; stroke: #ffa500"/>
     <use xlink:href="#m7b2c4c1101" x="314.954381" y="96.302155" style="fill: #ffa500; stroke: #ffa500"/>
     <use xlink:href="#m7b2c4c1101" x="318.612461" y="88.450812" style="fill: #ffa500; stroke: #ffa500"/>
     <use xlink:href="#m7b2c4c1101" x="327.757659" y="94.514501" style="fill: #ffa500; stroke: #ffa500"/>
     <use xlink:href="#m7b2c4c1101" x="314.039862" y="72.956804" style="fill: #ffa500; stroke: #ffa500"/>
     <use xlink:href="#m7b2c4c1101" x="333.244778" y="86.35426" style="fill: #ffa500; stroke: #ffa500"/>
     <use xlink:href="#m7b2c4c1101" x="330.501219" y="72.211516" style="fill: #ffa500; stroke: #ffa500"/>
    </g>
   </g>
   <g id="line2d_37">
    <path d="M 76.264702 234.298752 
L 122.792904 206.952978 
L 167.716686 180.0806 
L 175.73879 175.600827 
L 195.79405 164.353208 
L 206.222785 158.367752 
L 223.069203 148.638475 
L 225.475834 147.158277 
L 231.091307 143.699851 
L 236.70678 140.283808 
L 244.728884 135.450714 
L 249.542146 132.749798 
L 256.76204 128.588752 
L 259.970881 126.796061 
L 267.992985 122.10421 
L 270.399616 120.633851 
L 273.608458 118.478957 
L 278.42172 115.984195 
L 288.048245 109.885145 
L 296.872559 104.184172 
L 300.883611 101.762406 
L 312.114557 95.199687 
L 315.323398 93.323011 
L 332.169816 83.296976 
L 345.005183 76.295618 
L 351.422866 72.217989 
L 371.478126 60.912438 
L 385.115702 53.058027 
L 396.346648 46.983442 
L 396.346648 46.983442 
" clip-path="url(#p14a3630ce0)" style="fill: none; stroke: #000000; stroke-width: 1.5"/>
   </g>
   <g id="line2d_38">
    <path d="M 76.264702 258.89754 
L 91.506699 249.839846 
L 133.221639 225.926381 
L 182.156473 196.917264 
L 187.771946 193.90709 
L 196.59626 189.195243 
L 208.629416 182.084904 
L 211.838258 180.25247 
L 219.860362 175.65936 
L 239.915621 163.082481 
L 247.135515 159.039505 
L 257.56425 152.625731 
L 259.970881 151.201039 
L 265.586354 148.227527 
L 270.399616 145.88962 
L 274.410668 143.598896 
L 281.630562 139.310942 
L 289.652666 134.44446 
L 304.894663 125.980346 
L 311.312346 122.195479 
L 316.125609 118.800606 
L 319.33445 116.616486 
L 338.5875 105.377865 
L 345.807393 101.319166 
L 353.829497 96.564977 
L 362.653811 91.747318 
L 365.862653 90.008301 
L 373.884757 84.942869 
L 377.093598 82.754543 
L 380.30244 80.882743 
L 396.346648 71.855117 
L 396.346648 71.855117 
" clip-path="url(#p14a3630ce0)" style="fill: none; stroke-dasharray: 5.55,2.4; stroke-dashoffset: 0; stroke: #ff0000; stroke-width: 1.5"/>
   </g>
   <g id="line2d_39">
    <path d="M 76.264702 207.799909 
L 113.16638 186.684408 
L 142.848164 169.574922 
L 176.541 150.018513 
L 182.958684 146.368946 
L 198.200681 137.122959 
L 203.816154 133.725329 
L 207.024995 131.84753 
L 208.629416 130.893743 
L 215.047099 127.254808 
L 226.278045 120.382935 
L 233.497938 115.930858 
L 236.70678 114.075072 
L 242.322253 110.328247 
L 262.377512 98.465169 
L 268.795195 94.694564 
L 273.608458 92.147324 
L 279.223931 89.406174 
L 288.850455 83.97463 
L 302.488032 75.734513 
L 319.33445 65.867818 
L 324.147712 62.929515 
L 326.554344 61.54874 
L 331.367606 58.564352 
L 337.785289 54.574128 
L 348.214024 49.047695 
L 358.642759 43.15122 
L 389.126754 25.339721 
L 396.346648 21.046 
L 396.346648 21.046 
" clip-path="url(#p14a3630ce0)" style="fill: none; stroke-dasharray: 5.55,2.4; stroke-dashoffset: 0; stroke: #ff0000; stroke-width: 1.5"/>
   </g>
   <g id="line2d_40">
    <defs>
     <path id="mc1979b7e32" d="M 0 3 
C 0.795609 3 1.55874 2.683901 2.12132 2.12132 
C 2.683901 1.55874 3 0.795609 3 0 
C 3 -0.795609 2.683901 -1.55874 2.12132 -2.12132 
C 1.55874 -2.683901 0.795609 -3 0 -3 
C -0.795609 -3 -1.55874 -2.683901 -2.12132 -2.12132 
C -2.683901 -1.55874 -3 -0.795609 -3 0 
C -3 0.795609 -2.683901 1.55874 -2.12132 2.12132 
C -1.55874 2.683901 -0.795609 3 0 3 
z
" style="stroke: #ffa500"/>
    </defs>
    <g clip-path="url(#p14a3630ce0)">
     <use xlink:href="#mc1979b7e32" x="80.837301" y="257.975387" style="fill: #ffa500; stroke: #ffa500"/>
     <use xlink:href="#mc1979b7e32" x="335.988338" y="122.759066" style="fill: #ffa500; stroke: #ffa500"/>
     <use xlink:href="#mc1979b7e32" x="283.860707" y="75.982988" style="fill: #ffa500; stroke: #ffa500"/>
     <use xlink:href="#mc1979b7e32" x="227.160476" y="160.752363" style="fill: #ffa500; stroke: #ffa500"/>
     <use xlink:href="#mc1979b7e32" x="304.894663" y="81.061588" style="fill: #ffa500; stroke: #ffa500"/>
     <use xlink:href="#mc1979b7e32" x="326.843139" y="97.659796" style="fill: #ffa500; stroke: #ffa500"/>
     <use xlink:href="#mc1979b7e32" x="289.347826" y="100.41992" style="fill: #ffa500; stroke: #ffa500"/>
     <use xlink:href="#mc1979b7e32" x="191.494202" y="154.876176" style="fill: #ffa500; stroke: #ffa500"/>
     <use xlink:href="#mc1979b7e32" x="264.65579" y="161.506603" style="fill: #ffa500; stroke: #ffa500"/>
     <use xlink:href="#mc1979b7e32" x="314.954381" y="88.450812" style="fill: #ffa500; stroke: #ffa500"/>
     <use xlink:href="#mc1979b7e32" x="213.442678" y="178.491884" style="fill: #ffa500; stroke: #ffa500"/>
     <use xlink:href="#mc1979b7e32" x="250.937992" y="134.395216" style="fill: #ffa500; stroke: #ffa500"/>
     <use xlink:href="#mc1979b7e32" x="282.946187" y="121.103035" style="fill: #ffa500; stroke: #ffa500"/>
     <use xlink:href="#mc1979b7e32" x="260.083191" y="149.950816" style="fill: #ffa500; stroke: #ffa500"/>
     <use xlink:href="#mc1979b7e32" x="329.586699" y="100.41992" style="fill: #ffa500; stroke: #ffa500"/>
     <use xlink:href="#mc1979b7e32" x="318.612461" y="81.061588" style="fill: #ffa500; stroke: #ffa500"/>
     <use xlink:href="#mc1979b7e32" x="245.450873" y="114.169013" style="fill: #ffa500; stroke: #ffa500"/>
     <use xlink:href="#mc1979b7e32" x="315.868901" y="88.874356" style="fill: #ffa500; stroke: #ffa500"/>
     <use xlink:href="#mc1979b7e32" x="305.809183" y="149.950816" style="fill: #ffa500; stroke: #ffa500"/>
     <use xlink:href="#mc1979b7e32" x="248.194433" y="160.752363" style="fill: #ffa500; stroke: #ffa500"/>
     <use xlink:href="#mc1979b7e32" x="335.988338" y="87.188685" style="fill: #ffa500; stroke: #ffa500"/>
     <use xlink:href="#mc1979b7e32" x="245.450873" y="144.548668" style="fill: #ffa500; stroke: #ffa500"/>
     <use xlink:href="#mc1979b7e32" x="325.0141" y="77.523873" style="fill: #ffa500; stroke: #ffa500"/>
     <use xlink:href="#mc1979b7e32" x="134.793972" y="147.897682" style="fill: #ffa500; stroke: #ffa500"/>
     <use xlink:href="#mc1979b7e32" x="317.697941" y="57.502846" style="fill: #ffa500; stroke: #ffa500"/>
     <use xlink:href="#mc1979b7e32" x="256.425111" y="153.449109" style="fill: #ffa500; stroke: #ffa500"/>
     <use xlink:href="#mc1979b7e32" x="273.800988" y="66.04904" style="fill: #ffa500; stroke: #ffa500"/>
     <use xlink:href="#mc1979b7e32" x="358.851334" y="68.911399" style="fill: #ffa500; stroke: #ffa500"/>
     <use xlink:href="#mc1979b7e32" x="284.775226" y="125.001636" style="fill: #ffa500; stroke: #ffa500"/>
     <use xlink:href="#mc1979b7e32" x="263.74127" y="174.234507" style="fill: #ffa500; stroke: #ffa500"/>
     <use xlink:href="#mc1979b7e32" x="318.612461" y="74.083095" style="fill: #ffa500; stroke: #ffa500"/>
     <use xlink:href="#mc1979b7e32" x="314.039862" y="75.982988" style="fill: #ffa500; stroke: #ffa500"/>
     <use xlink:href="#mc1979b7e32" x="259.168671" y="149.262702" style="fill: #ffa500; stroke: #ffa500"/>
     <use xlink:href="#mc1979b7e32" x="219.844317" y="115.735527" style="fill: #ffa500; stroke: #ffa500"/>
     <use xlink:href="#mc1979b7e32" x="322.27054" y="79.871242" style="fill: #ffa500; stroke: #ffa500"/>
     <use xlink:href="#mc1979b7e32" x="282.031667" y="54.563245" style="fill: #ffa500; stroke: #ffa500"/>
     <use xlink:href="#mc1979b7e32" x="314.954381" y="102.294291" style="fill: #ffa500; stroke: #ffa500"/>
     <use xlink:href="#mc1979b7e32" x="318.612461" y="90.582962" style="fill: #ffa500; stroke: #ffa500"/>
     <use xlink:href="#mc1979b7e32" x="327.757659" y="106.616803" style="fill: #ffa500; stroke: #ffa500"/>
     <use xlink:href="#mc1979b7e32" x="314.039862" y="74.839606" style="fill: #ffa500; stroke: #ffa500"/>
     <use xlink:href="#mc1979b7e32" x="333.244778" y="92.315135" style="fill: #ffa500; stroke: #ffa500"/>
     <use xlink:href="#mc1979b7e32" x="330.501219" y="78.301465" style="fill: #ffa500; stroke: #ffa500"/>
    </g>
   </g>
   <g id="patch_3">
    <path d="M 55.459375 275.062 
L 55.459375 8.95 
" style="fill: none; stroke: #000000; stroke-width: 0.8; stroke-linejoin: miter; stroke-linecap: square"/>
   </g>
   <g id="patch_4">
    <path d="M 412.579375 275.062 
L 412.579375 8.95 
" style="fill: none; stroke: #000000; stroke-width: 0.8; stroke-linejoin: miter; stroke-linecap: square"/>
   </g>
   <g id="patch_5">
    <path d="M 55.459375 275.062 
L 412.579375 275.062 
" style="fill: none; stroke: #000000; stroke-width: 0.8; stroke-linejoin: miter; stroke-linecap: square"/>
   </g>
   <g id="patch_6">
    <path d="M 55.459375 8.95 
L 412.579375 8.95 
" style="fill: none; stroke: #000000; stroke-width: 0.8; stroke-linejoin: miter; stroke-linecap: square"/>
   </g>
  </g>
 </g>
 <defs>
  <clipPath id="p14a3630ce0">
   <rect x="55.459375" y="8.95" width="357.12" height="266.112"/>
  </clipPath>
 </defs>
</svg>
