<?xml version="1.0" encoding="utf-8" standalone="no"?>
<!DOCTYPE svg PUBLIC "-//W3C//DTD SVG 1.1//EN"
  "http://www.w3.org/Graphics/SVG/1.1/DTD/svg11.dtd">
<!-- Created with matplotlib (https://matplotlib.org/) -->
<svg height="310.86825pt" version="1.1" viewBox="0 0 391.488883 310.86825" width="391.488883pt" xmlns="http://www.w3.org/2000/svg" xmlns:xlink="http://www.w3.org/1999/xlink">
 <metadata>
  <rdf:RDF xmlns:cc="http://creativecommons.org/ns#" xmlns:dc="http://purl.org/dc/elements/1.1/" xmlns:rdf="http://www.w3.org/1999/02/22-rdf-syntax-ns#">
   <cc:Work>
    <dc:type rdf:resource="http://purl.org/dc/dcmitype/StillImage"/>
    <dc:date>2020-11-30T22:10:37.955880</dc:date>
    <dc:format>image/svg+xml</dc:format>
    <dc:creator>
     <cc:Agent>
      <dc:title>Matplotlib v3.3.2, https://matplotlib.org/</dc:title>
     </cc:Agent>
    </dc:creator>
   </cc:Work>
  </rdf:RDF>
 </metadata>
 <defs>
  <style type="text/css">*{stroke-linecap:butt;stroke-linejoin:round;}</style>
 </defs>
 <g id="figure_1">
  <g id="patch_1">
   <path d="M 0 310.86825 
L 391.488883 310.86825 
L 391.488883 0 
L 0 0 
z
" style="fill:#ffffff;"/>
  </g>
  <g id="axes_1">
   <g id="patch_2">
    <path d="M 26.925 273.312 
L 384.045 273.312 
L 384.045 7.2 
L 26.925 7.2 
z
" style="fill:#ffffff;"/>
   </g>
   <g id="PolyCollection_1">
    <path clip-path="url(#pbb80920815)" d="M 207.340252 254.647959 
L 207.340252 255.051409 
L 208.291917 255.073872 
L 209.243581 255.096113 
L 210.195246 255.118578 
L 211.14691 255.142089 
L 212.098575 255.167798 
L 213.05024 255.197115 
L 214.001904 255.231586 
L 214.953569 255.27277 
L 215.905233 255.32212 
L 216.856898 255.380886 
L 217.808563 255.450064 
L 218.760227 255.530384 
L 219.711892 255.622336 
L 220.663556 255.726216 
L 221.615221 255.842172 
L 222.566886 255.970231 
L 223.51855 256.110289 
L 224.470215 256.262059 
L 225.42188 256.424985 
L 226.373544 256.598147 
L 227.325209 256.780181 
L 228.276873 256.969244 
L 229.228538 257.163058 
L 230.180203 257.359036 
L 231.131867 257.554495 
L 232.083532 257.746918 
L 233.035196 257.934237 
L 233.986861 258.115086 
L 234.938526 258.288973 
L 235.89019 258.456339 
L 236.841855 258.61848 
L 237.79352 258.777329 
L 238.745184 258.935136 
L 239.696849 259.094069 
L 240.648513 259.255825 
L 241.600178 259.421285 
L 242.551843 259.590305 
L 243.503507 259.761663 
L 244.455172 259.933186 
L 245.406836 260.102042 
L 246.358501 260.265128 
L 247.310166 260.419485 
L 248.26183 260.562652 
L 249.213495 260.692887 
L 250.16516 260.809206 
L 251.116824 260.911256 
L 252.068489 260.999053 
L 253.020153 261.072664 
L 253.971818 261.131931 
L 254.923483 261.176287 
L 255.875147 261.204741 
L 256.826812 261.216 
L 257.778476 261.208714 
L 258.730141 261.181766 
L 259.681806 261.134532 
L 260.63347 261.067053 
L 261.585135 260.980079 
L 262.536799 260.874976 
L 263.488464 260.753544 
L 264.440129 260.617784 
L 265.391793 260.469693 
L 266.343458 260.311125 
L 267.295123 260.143769 
L 268.246787 259.969231 
L 269.198452 259.789207 
L 270.150116 259.605686 
L 271.101781 259.421126 
L 272.053446 259.238526 
L 273.00511 259.061362 
L 273.956775 258.893355 
L 274.908439 258.738077 
L 275.860104 258.598466 
L 276.811769 258.476311 
L 277.763433 258.371824 
L 278.715098 258.283383 
L 279.666763 258.207524 
L 280.618427 258.139222 
L 281.570092 258.072425 
L 282.521756 258.000771 
L 283.473421 257.918384 
L 284.425086 257.820605 
L 285.37675 257.704554 
L 286.328415 257.569414 
L 287.280079 257.41643 
L 288.231744 257.248611 
L 289.183409 257.070232 
L 290.135073 256.886214 
L 291.086738 256.701499 
L 292.038403 256.520516 
L 292.990067 256.346814 
L 293.941732 256.182873 
L 294.893396 256.030115 
L 295.845061 255.889049 
L 296.796726 255.759518 
L 297.74839 255.640968 
L 298.700055 255.532697 
L 299.651719 255.434041 
L 300.603384 255.344484 
L 301.555049 255.263683 
L 301.555049 254.435685 
L 301.555049 254.435685 
L 300.603384 254.354884 
L 299.651719 254.265327 
L 298.700055 254.166672 
L 297.74839 254.0584 
L 296.796726 253.93985 
L 295.845061 253.810319 
L 294.893396 253.669254 
L 293.941732 253.516496 
L 292.990067 253.352555 
L 292.038403 253.178852 
L 291.086738 252.99787 
L 290.135073 252.813154 
L 289.183409 252.629136 
L 288.231744 252.450758 
L 287.280079 252.282939 
L 286.328415 252.129954 
L 285.37675 251.994815 
L 284.425086 251.878763 
L 283.473421 251.780985 
L 282.521756 251.698597 
L 281.570092 251.626943 
L 280.618427 251.560146 
L 279.666763 251.491845 
L 278.715098 251.415986 
L 277.763433 251.327544 
L 276.811769 251.223057 
L 275.860104 251.100903 
L 274.908439 250.961292 
L 273.956775 250.806014 
L 273.00511 250.638006 
L 272.053446 250.460843 
L 271.101781 250.278242 
L 270.150116 250.093682 
L 269.198452 249.910162 
L 268.246787 249.730138 
L 267.295123 249.5556 
L 266.343458 249.388243 
L 265.391793 249.229675 
L 264.440129 249.081584 
L 263.488464 248.945825 
L 262.536799 248.824392 
L 261.585135 248.719289 
L 260.63347 248.632315 
L 259.681806 248.564837 
L 258.730141 248.517603 
L 257.778476 248.490654 
L 256.826812 248.483368 
L 255.875147 248.494627 
L 254.923483 248.523081 
L 253.971818 248.567438 
L 253.020153 248.626704 
L 252.068489 248.700316 
L 251.116824 248.788113 
L 250.16516 248.890163 
L 249.213495 249.006482 
L 248.26183 249.136716 
L 247.310166 249.279883 
L 246.358501 249.43424 
L 245.406836 249.597326 
L 244.455172 249.766183 
L 243.503507 249.937706 
L 242.551843 250.109063 
L 241.600178 250.278083 
L 240.648513 250.443543 
L 239.696849 250.605299 
L 238.745184 250.764233 
L 237.79352 250.922039 
L 236.841855 251.080889 
L 235.89019 251.243029 
L 234.938526 251.410395 
L 233.986861 251.584282 
L 233.035196 251.765131 
L 232.083532 251.95245 
L 231.131867 252.144873 
L 230.180203 252.340332 
L 229.228538 252.536311 
L 228.276873 252.730124 
L 227.325209 252.919187 
L 226.373544 253.101221 
L 225.42188 253.274384 
L 224.470215 253.43731 
L 223.51855 253.589079 
L 222.566886 253.729137 
L 221.615221 253.857197 
L 220.663556 253.973152 
L 219.711892 254.077032 
L 218.760227 254.168984 
L 217.808563 254.249305 
L 216.856898 254.318483 
L 215.905233 254.377248 
L 214.953569 254.426598 
L 214.001904 254.467782 
L 213.05024 254.502253 
L 212.098575 254.53157 
L 211.14691 254.55728 
L 210.195246 254.58079 
L 209.243581 254.603256 
L 208.291917 254.625496 
L 207.340252 254.647959 
z
" style="fill:#1f77b4;fill-opacity:0.3;"/>
   </g>
   <g id="PolyCollection_2">
    <path clip-path="url(#pbb80920815)" d="M 52.89309 229.333255 
L 52.89309 229.435588 
L 56.074092 229.434113 
L 59.255094 229.429895 
L 62.436096 229.423873 
L 65.617098 229.41737 
L 68.798099 229.411855 
L 71.979101 229.408744 
L 75.160103 229.409256 
L 78.341105 229.414313 
L 81.522107 229.424418 
L 84.703109 229.439499 
L 87.88411 229.458729 
L 91.065112 229.480447 
L 94.246114 229.502299 
L 97.427116 229.521691 
L 100.608118 229.536523 
L 103.78912 229.546014 
L 106.970122 229.551368 
L 110.151123 229.556009 
L 113.332125 229.565227 
L 116.513127 229.585277 
L 119.694129 229.622109 
L 122.875131 229.680043 
L 126.056133 229.760731 
L 129.237134 229.862706 
L 132.418136 229.981708 
L 135.599138 230.111805 
L 138.78014 230.247038 
L 141.961142 230.383133 
L 145.142144 230.51865 
L 148.323146 230.655086 
L 151.504147 230.795823 
L 154.685149 230.944292 
L 157.866151 231.102149 
L 161.047153 231.268336 
L 164.228155 231.439546 
L 167.409157 231.612061 
L 170.590158 231.784231 
L 173.77116 231.958517 
L 176.952162 232.14207 
L 180.133164 232.34529 
L 183.314166 232.578664 
L 186.495168 232.848896 
L 189.676169 233.155802 
L 192.857171 233.491208 
L 196.038173 233.840423 
L 199.219175 234.185783 
L 202.400177 234.51097 
L 205.581179 234.804422 
L 208.762181 235.060566 
L 211.943182 235.278517 
L 215.124184 235.459027 
L 218.305186 235.601247 
L 221.486188 235.700899 
L 224.66719 235.750737 
L 227.848192 235.743054 
L 231.029193 235.673018 
L 234.210195 235.541334 
L 237.391197 235.355145 
L 240.572199 235.126915 
L 243.753201 234.871894 
L 246.934203 234.605134 
L 250.115205 234.339032 
L 253.296206 234.081965 
L 256.477208 233.838113 
L 259.65821 233.608212 
L 262.839212 233.390722 
L 266.020214 233.182987 
L 269.201216 232.982035 
L 272.382217 232.784946 
L 275.563219 232.588882 
L 278.744221 232.391024 
L 281.925223 232.188661 
L 285.106225 231.97956 
L 288.287227 231.762559 
L 291.468228 231.538153 
L 294.64923 231.308747 
L 297.830232 231.078405 
L 301.011234 230.85214 
L 304.192236 230.635036 
L 307.373238 230.431549 
L 310.55424 230.245178 
L 313.735241 230.07844 
L 316.916243 229.932953 
L 320.097245 229.809447 
L 323.278247 229.707662 
L 326.459249 229.626291 
L 329.640251 229.563105 
L 332.821252 229.515303 
L 336.002254 229.48 
L 339.183256 229.454657 
L 342.364258 229.437312 
L 345.54526 229.426548 
L 348.726262 229.421285 
L 351.907264 229.420492 
L 355.088265 229.422969 
L 358.269267 229.427275 
L 361.450269 229.431829 
L 364.631271 229.435141 
L 367.812273 229.436098 
L 367.812273 229.332744 
L 367.812273 229.332744 
L 364.631271 229.333702 
L 361.450269 229.337013 
L 358.269267 229.341567 
L 355.088265 229.345873 
L 351.907264 229.34835 
L 348.726262 229.347557 
L 345.54526 229.342294 
L 342.364258 229.33153 
L 339.183256 229.314185 
L 336.002254 229.288842 
L 332.821252 229.253539 
L 329.640251 229.205737 
L 326.459249 229.142551 
L 323.278247 229.061181 
L 320.097245 228.959395 
L 316.916243 228.835889 
L 313.735241 228.690403 
L 310.55424 228.523664 
L 307.373238 228.337293 
L 304.192236 228.133806 
L 301.011234 227.916702 
L 297.830232 227.690437 
L 294.64923 227.460095 
L 291.468228 227.230689 
L 288.287227 227.006283 
L 285.106225 226.789282 
L 281.925223 226.580181 
L 278.744221 226.377819 
L 275.563219 226.17996 
L 272.382217 225.983896 
L 269.201216 225.786807 
L 266.020214 225.585855 
L 262.839212 225.37812 
L 259.65821 225.16063 
L 256.477208 224.930729 
L 253.296206 224.686878 
L 250.115205 224.42981 
L 246.934203 224.163708 
L 243.753201 223.896948 
L 240.572199 223.641927 
L 237.391197 223.413697 
L 234.210195 223.227508 
L 231.029193 223.095825 
L 227.848192 223.025788 
L 224.66719 223.018105 
L 221.486188 223.067943 
L 218.305186 223.167595 
L 215.124184 223.309815 
L 211.943182 223.490325 
L 208.762181 223.708276 
L 205.581179 223.96442 
L 202.400177 224.257872 
L 199.219175 224.583059 
L 196.038173 224.928419 
L 192.857171 225.277634 
L 189.676169 225.613041 
L 186.495168 225.919946 
L 183.314166 226.190179 
L 180.133164 226.423552 
L 176.952162 226.626772 
L 173.77116 226.810325 
L 170.590158 226.984612 
L 167.409157 227.156781 
L 164.228155 227.329296 
L 161.047153 227.500506 
L 157.866151 227.666693 
L 154.685149 227.82455 
L 151.504147 227.973019 
L 148.323146 228.113756 
L 145.142144 228.250192 
L 141.961142 228.385709 
L 138.78014 228.521804 
L 135.599138 228.657037 
L 132.418136 228.787134 
L 129.237134 228.906137 
L 126.056133 229.008111 
L 122.875131 229.088799 
L 119.694129 229.146733 
L 116.513127 229.183565 
L 113.332125 229.203615 
L 110.151123 229.212833 
L 106.970122 229.217474 
L 103.78912 229.222828 
L 100.608118 229.232319 
L 97.427116 229.247151 
L 94.246114 229.266543 
L 91.065112 229.288395 
L 87.88411 229.310113 
L 84.703109 229.329343 
L 81.522107 229.344424 
L 78.341105 229.354529 
L 75.160103 229.359586 
L 71.979101 229.360098 
L 68.798099 229.356987 
L 65.617098 229.351472 
L 62.436096 229.344969 
L 59.255094 229.338947 
L 56.074092 229.334729 
L 52.89309 229.333255 
z
" style="fill:#1f77b4;fill-opacity:0.3;"/>
   </g>
   <g id="PolyCollection_3">
    <path clip-path="url(#pbb80920815)" d="M 174.851684 203.821009 
L 174.851684 204.017307 
L 175.904458 204.031886 
L 176.957231 204.048444 
L 178.010005 204.067748 
L 179.062779 204.090811 
L 180.115552 204.118896 
L 181.168326 204.15349 
L 182.221099 204.196247 
L 183.273873 204.248877 
L 184.326647 204.312995 
L 185.37942 204.389943 
L 186.432194 204.480606 
L 187.484967 204.585274 
L 188.537741 204.703597 
L 189.590515 204.834645 
L 190.643288 204.977103 
L 191.696062 205.129554 
L 192.748835 205.29081 
L 193.801609 205.460195 
L 194.854383 205.637707 
L 195.907156 205.823995 
L 196.95993 206.020143 
L 198.012703 206.227285 
L 199.065477 206.446151 
L 200.11825 206.676668 
L 201.171024 206.917712 
L 202.223798 207.167122 
L 203.276571 207.421962 
L 204.329345 207.678982 
L 205.382118 207.935139 
L 206.434892 208.18803 
L 207.487666 208.436093 
L 208.540439 208.678495 
L 209.593213 208.91473 
L 210.645986 209.144025 
L 211.69876 209.364729 
L 212.751534 209.573857 
L 213.804307 209.766944 
L 214.857081 209.938277 
L 215.909854 210.081467 
L 216.962628 210.190258 
L 218.015402 210.259409 
L 219.068175 210.285474 
L 220.120949 210.267345 
L 221.173722 210.206481 
L 222.226496 210.10682 
L 223.27927 209.974415 
L 224.332043 209.816886 
L 225.384817 209.642778 
L 226.43759 209.460889 
L 227.490364 209.279646 
L 228.543138 209.106536 
L 229.595911 208.947622 
L 230.648685 208.807166 
L 231.701458 208.687365 
L 232.754232 208.588243 
L 233.807005 208.50771 
L 234.859779 208.441819 
L 235.912553 208.38519 
L 236.965326 208.3316 
L 238.0181 208.274649 
L 239.070873 208.208442 
L 240.123647 208.128197 
L 241.176421 208.030711 
L 242.229194 207.914616 
L 243.281968 207.780424 
L 244.334741 207.630356 
L 245.387515 207.467989 
L 246.440289 207.297803 
L 247.493062 207.124658 
L 248.545836 206.953296 
L 249.598609 206.787895 
L 250.651383 206.631714 
L 251.704157 206.48686 
L 252.75693 206.354171 
L 253.809704 206.233238 
L 254.862477 206.122537 
L 255.915251 206.019694 
L 256.968025 205.921833 
L 258.020798 205.825991 
L 259.073572 205.729544 
L 260.126345 205.630596 
L 261.179119 205.52825 
L 262.231893 205.422742 
L 263.284666 205.315382 
L 264.33744 205.20832 
L 265.390213 205.104184 
L 266.442987 205.005627 
L 267.495761 204.914889 
L 268.548534 204.833441 
L 269.601308 204.761769 
L 270.654081 204.699346 
L 271.706855 204.644762 
L 272.759628 204.596 
L 273.812402 204.550787 
L 274.865176 204.506953 
L 275.917949 204.462737 
L 276.970723 204.417001 
L 278.023496 204.369318 
L 279.07627 204.319948 
L 279.07627 203.518368 
L 279.07627 203.518368 
L 278.023496 203.468998 
L 276.970723 203.421315 
L 275.917949 203.375579 
L 274.865176 203.331363 
L 273.812402 203.287529 
L 272.759628 203.242316 
L 271.706855 203.193554 
L 270.654081 203.13897 
L 269.601308 203.076546 
L 268.548534 203.004875 
L 267.495761 202.923426 
L 266.442987 202.832688 
L 265.390213 202.734132 
L 264.33744 202.629996 
L 263.284666 202.522934 
L 262.231893 202.415573 
L 261.179119 202.310066 
L 260.126345 202.20772 
L 259.073572 202.108771 
L 258.020798 202.012325 
L 256.968025 201.916482 
L 255.915251 201.818621 
L 254.862477 201.715779 
L 253.809704 201.605078 
L 252.75693 201.484145 
L 251.704157 201.351456 
L 250.651383 201.206602 
L 249.598609 201.050421 
L 248.545836 200.885019 
L 247.493062 200.713658 
L 246.440289 200.540513 
L 245.387515 200.370326 
L 244.334741 200.20796 
L 243.281968 200.057891 
L 242.229194 199.9237 
L 241.176421 199.807605 
L 240.123647 199.710119 
L 239.070873 199.629874 
L 238.0181 199.563667 
L 236.965326 199.506716 
L 235.912553 199.453126 
L 234.859779 199.396497 
L 233.807005 199.330605 
L 232.754232 199.250073 
L 231.701458 199.150951 
L 230.648685 199.03115 
L 229.595911 198.890693 
L 228.543138 198.73178 
L 227.490364 198.55867 
L 226.43759 198.377427 
L 225.384817 198.195538 
L 224.332043 198.021429 
L 223.27927 197.863901 
L 222.226496 197.731495 
L 221.173722 197.631835 
L 220.120949 197.570971 
L 219.068175 197.552842 
L 218.015402 197.578907 
L 216.962628 197.648058 
L 215.909854 197.756849 
L 214.857081 197.900038 
L 213.804307 198.071372 
L 212.751534 198.264459 
L 211.69876 198.473587 
L 210.645986 198.694291 
L 209.593213 198.923586 
L 208.540439 199.159821 
L 207.487666 199.402223 
L 206.434892 199.650286 
L 205.382118 199.903177 
L 204.329345 200.159334 
L 203.276571 200.416353 
L 202.223798 200.671194 
L 201.171024 200.920604 
L 200.11825 201.161648 
L 199.065477 201.392164 
L 198.012703 201.611031 
L 196.95993 201.818173 
L 195.907156 202.01432 
L 194.854383 202.200609 
L 193.801609 202.37812 
L 192.748835 202.547506 
L 191.696062 202.708762 
L 190.643288 202.861213 
L 189.590515 203.00367 
L 188.537741 203.134719 
L 187.484967 203.253042 
L 186.432194 203.35771 
L 185.37942 203.448372 
L 184.326647 203.52532 
L 183.273873 203.589439 
L 182.221099 203.642069 
L 181.168326 203.684826 
L 180.115552 203.71942 
L 179.062779 203.747505 
L 178.010005 203.770568 
L 176.957231 203.789872 
L 175.904458 203.80643 
L 174.851684 203.821009 
z
" style="fill:#1f77b4;fill-opacity:0.3;"/>
   </g>
   <g id="PolyCollection_4">
    <path clip-path="url(#pbb80920815)" d="M 217.503833 178.400369 
L 217.503833 178.50742 
L 218.044737 178.506127 
L 218.585641 178.50231 
L 219.126545 178.496747 
L 219.667449 178.490532 
L 220.208353 178.484861 
L 220.749257 178.480842 
L 221.290161 178.479346 
L 221.831064 178.480928 
L 222.371968 178.485804 
L 222.912872 178.49388 
L 223.453776 178.504804 
L 223.99468 178.518053 
L 224.535584 178.533039 
L 225.076488 178.549221 
L 225.617392 178.566221 
L 226.158296 178.583923 
L 226.6992 178.602549 
L 227.240104 178.62271 
L 227.781008 178.645436 
L 228.321912 178.672143 
L 228.862816 178.704548 
L 229.40372 178.744532 
L 229.944624 178.793972 
L 230.485527 178.854619 
L 231.026431 178.928045 
L 231.567335 179.015684 
L 232.108239 179.118907 
L 232.649143 179.239065 
L 233.190047 179.377425 
L 233.730951 179.534961 
L 234.271855 179.712007 
L 234.812759 179.907811 
L 235.353663 180.120117 
L 235.894567 180.344907 
L 236.435471 180.57651 
L 236.976375 180.808224 
L 237.517279 181.033469 
L 238.058183 181.247307 
L 238.599087 181.447886 
L 239.13999 181.637294 
L 239.680894 181.821352 
L 240.221798 182.008226 
L 240.762702 182.206142 
L 241.303606 182.420921 
L 241.84451 182.654164 
L 242.385414 182.90273 
L 242.926318 183.159647 
L 243.467222 183.416034 
L 244.008126 183.663231 
L 244.54903 183.894329 
L 245.089934 184.104648 
L 245.630838 184.291243 
L 246.171742 184.452014 
L 246.712646 184.585062 
L 247.25355 184.688691 
L 247.794453 184.761963 
L 248.335357 184.805248 
L 248.876261 184.820211 
L 249.417165 184.808967 
L 249.958069 184.772732 
L 250.498973 184.710654 
L 251.039877 184.619524 
L 251.580781 184.494644 
L 252.121685 184.331512 
L 252.662589 184.127611 
L 253.203493 183.88359 
L 253.744397 183.603468 
L 254.285301 183.293984 
L 254.826205 182.963522 
L 255.367109 182.621064 
L 255.908013 182.275439 
L 256.448917 181.934857 
L 256.98982 181.606622 
L 257.530724 181.296882 
L 258.071628 181.010425 
L 258.612532 180.75054 
L 259.153436 180.518991 
L 259.69434 180.316062 
L 260.235244 180.140621 
L 260.776148 179.990159 
L 261.317052 179.8609 
L 261.857956 179.748084 
L 262.39886 179.64652 
L 262.939764 179.551327 
L 263.480668 179.458681 
L 264.021572 179.366297 
L 264.562476 179.273503 
L 265.10338 179.180931 
L 265.644283 179.089999 
L 266.185187 179.002419 
L 266.726091 178.919874 
L 267.266995 178.843878 
L 267.807899 178.775706 
L 268.348803 178.716315 
L 268.889707 178.666189 
L 269.430611 178.625198 
L 269.971515 178.592539 
L 270.512419 178.566852 
L 271.053323 178.546489 
L 271.053323 178.3613 
L 271.053323 178.3613 
L 270.512419 178.340937 
L 269.971515 178.31525 
L 269.430611 178.282591 
L 268.889707 178.2416 
L 268.348803 178.191475 
L 267.807899 178.132083 
L 267.266995 178.063911 
L 266.726091 177.987915 
L 266.185187 177.905371 
L 265.644283 177.81779 
L 265.10338 177.726858 
L 264.562476 177.634286 
L 264.021572 177.541493 
L 263.480668 177.449108 
L 262.939764 177.356462 
L 262.39886 177.26127 
L 261.857956 177.159705 
L 261.317052 177.04689 
L 260.776148 176.91763 
L 260.235244 176.767168 
L 259.69434 176.591727 
L 259.153436 176.388799 
L 258.612532 176.157249 
L 258.071628 175.897365 
L 257.530724 175.610908 
L 256.98982 175.301168 
L 256.448917 174.972932 
L 255.908013 174.632351 
L 255.367109 174.286726 
L 254.826205 173.944268 
L 254.285301 173.613805 
L 253.744397 173.304321 
L 253.203493 173.024199 
L 252.662589 172.780178 
L 252.121685 172.576277 
L 251.580781 172.413145 
L 251.039877 172.288266 
L 250.498973 172.197136 
L 249.958069 172.135057 
L 249.417165 172.098823 
L 248.876261 172.087579 
L 248.335357 172.102541 
L 247.794453 172.145826 
L 247.25355 172.219098 
L 246.712646 172.322728 
L 246.171742 172.455775 
L 245.630838 172.616547 
L 245.089934 172.803142 
L 244.54903 173.01346 
L 244.008126 173.244559 
L 243.467222 173.491756 
L 242.926318 173.748142 
L 242.385414 174.00506 
L 241.84451 174.253626 
L 241.303606 174.486869 
L 240.762702 174.701648 
L 240.221798 174.899564 
L 239.680894 175.086438 
L 239.13999 175.270496 
L 238.599087 175.459903 
L 238.058183 175.660482 
L 237.517279 175.87432 
L 236.976375 176.099566 
L 236.435471 176.331279 
L 235.894567 176.562883 
L 235.353663 176.787673 
L 234.812759 176.999979 
L 234.271855 177.195783 
L 233.730951 177.372828 
L 233.190047 177.530365 
L 232.649143 177.668724 
L 232.108239 177.788882 
L 231.567335 177.892105 
L 231.026431 177.979745 
L 230.485527 178.053171 
L 229.944624 178.113817 
L 229.40372 178.163258 
L 228.862816 178.203241 
L 228.321912 178.235647 
L 227.781008 178.262353 
L 227.240104 178.285079 
L 226.6992 178.305241 
L 226.158296 178.323866 
L 225.617392 178.341568 
L 225.076488 178.358569 
L 224.535584 178.374751 
L 223.99468 178.389736 
L 223.453776 178.402986 
L 222.912872 178.41391 
L 222.371968 178.421985 
L 221.831064 178.426862 
L 221.290161 178.428443 
L 220.749257 178.426947 
L 220.208353 178.422929 
L 219.667449 178.417258 
L 219.126545 178.411042 
L 218.585641 178.40548 
L 218.044737 178.401662 
L 217.503833 178.400369 
z
" style="fill:#1f77b4;fill-opacity:0.3;"/>
   </g>
   <g id="PolyCollection_5">
    <path clip-path="url(#pbb80920815)" d="M 179.282305 152.803223 
L 179.282305 153.17404 
L 180.112536 153.217875 
L 180.942768 153.26958 
L 181.772999 153.329346 
L 182.60323 153.396826 
L 183.433461 153.471071 
L 184.263692 153.550553 
L 185.093923 153.633298 
L 185.924155 153.717128 
L 186.754386 153.799965 
L 187.584617 153.880168 
L 188.414848 153.95683 
L 189.245079 154.02999 
L 190.07531 154.100719 
L 190.905542 154.171068 
L 191.735773 154.24389 
L 192.566004 154.32257 
L 193.396235 154.410697 
L 194.226466 154.51173 
L 195.056697 154.628678 
L 195.886929 154.763829 
L 196.71716 154.918519 
L 197.547391 155.092969 
L 198.377622 155.286187 
L 199.207853 155.495941 
L 200.038084 155.718836 
L 200.868316 155.950483 
L 201.698547 156.185781 
L 202.528778 156.419278 
L 203.359009 156.645596 
L 204.18924 156.859853 
L 205.019471 157.058059 
L 205.849702 157.237419 
L 206.679934 157.396537 
L 207.510165 157.535487 
L 208.340396 157.655769 
L 209.170627 157.760161 
L 210.000858 157.852469 
L 210.831089 157.937204 
L 211.661321 158.019192 
L 212.491552 158.10313 
L 213.321783 158.193126 
L 214.152014 158.292242 
L 214.982245 158.402101 
L 215.812476 158.522593 
L 216.642708 158.65175 
L 217.472939 158.785802 
L 218.30317 158.919442 
L 219.133401 159.046271 
L 219.963632 159.159389 
L 220.793863 159.252048 
L 221.624095 159.318299 
L 222.454326 159.353546 
L 223.284557 159.354947 
L 224.114788 159.321627 
L 224.945019 159.254682 
L 225.77525 159.156996 
L 226.605482 159.032903 
L 227.435713 158.887736 
L 228.265944 158.727307 
L 229.096175 158.557389 
L 229.926406 158.383221 
L 230.756637 158.209111 
L 231.586869 158.038165 
L 232.4171 157.872176 
L 233.247331 157.711679 
L 234.077562 157.55616 
L 234.907793 157.404376 
L 235.738024 157.254723 
L 236.568256 157.105585 
L 237.398487 156.955617 
L 238.228718 156.803912 
L 239.058949 156.65007 
L 239.88918 156.494177 
L 240.719411 156.336734 
L 241.549643 156.178577 
L 242.379874 156.020796 
L 243.210105 155.864664 
L 244.040336 155.711541 
L 244.870567 155.562764 
L 245.700798 155.419484 
L 246.531029 155.282479 
L 247.361261 155.151986 
L 248.191492 155.02758 
L 249.021723 154.90816 
L 249.851954 154.792076 
L 250.682185 154.677369 
L 251.512416 154.562111 
L 252.342648 154.444766 
L 253.172879 154.324498 
L 254.00311 154.201366 
L 254.833341 154.07636 
L 255.663572 153.951279 
L 256.493803 153.828473 
L 257.324035 153.710512 
L 258.154266 153.599838 
L 258.984497 153.498477 
L 259.814728 153.407837 
L 260.644959 153.328627 
L 261.47519 153.260877 
L 261.47519 152.716386 
L 261.47519 152.716386 
L 260.644959 152.648637 
L 259.814728 152.569426 
L 258.984497 152.478786 
L 258.154266 152.377425 
L 257.324035 152.266751 
L 256.493803 152.14879 
L 255.663572 152.025984 
L 254.833341 151.900903 
L 254.00311 151.775898 
L 253.172879 151.652765 
L 252.342648 151.532498 
L 251.512416 151.415152 
L 250.682185 151.299895 
L 249.851954 151.185187 
L 249.021723 151.069103 
L 248.191492 150.949683 
L 247.361261 150.825277 
L 246.531029 150.694784 
L 245.700798 150.55778 
L 244.870567 150.414499 
L 244.040336 150.265722 
L 243.210105 150.1126 
L 242.379874 149.956467 
L 241.549643 149.798686 
L 240.719411 149.640529 
L 239.88918 149.483086 
L 239.058949 149.327193 
L 238.228718 149.173351 
L 237.398487 149.021646 
L 236.568256 148.871678 
L 235.738024 148.72254 
L 234.907793 148.572887 
L 234.077562 148.421103 
L 233.247331 148.265584 
L 232.4171 148.105087 
L 231.586869 147.939098 
L 230.756637 147.768152 
L 229.926406 147.594042 
L 229.096175 147.419874 
L 228.265944 147.249956 
L 227.435713 147.089528 
L 226.605482 146.94436 
L 225.77525 146.820268 
L 224.945019 146.722582 
L 224.114788 146.655636 
L 223.284557 146.622316 
L 222.454326 146.623717 
L 221.624095 146.658964 
L 220.793863 146.725215 
L 219.963632 146.817874 
L 219.133401 146.930992 
L 218.30317 147.057821 
L 217.472939 147.191461 
L 216.642708 147.325513 
L 215.812476 147.45467 
L 214.982245 147.575162 
L 214.152014 147.685021 
L 213.321783 147.784137 
L 212.491552 147.874133 
L 211.661321 147.958071 
L 210.831089 148.040059 
L 210.000858 148.124795 
L 209.170627 148.217103 
L 208.340396 148.321494 
L 207.510165 148.441776 
L 206.679934 148.580726 
L 205.849702 148.739844 
L 205.019471 148.919205 
L 204.18924 149.11741 
L 203.359009 149.331667 
L 202.528778 149.557985 
L 201.698547 149.791483 
L 200.868316 150.02678 
L 200.038084 150.258428 
L 199.207853 150.481322 
L 198.377622 150.691077 
L 197.547391 150.884294 
L 196.71716 151.058744 
L 195.886929 151.213434 
L 195.056697 151.348585 
L 194.226466 151.465533 
L 193.396235 151.566566 
L 192.566004 151.654693 
L 191.735773 151.733373 
L 190.905542 151.806195 
L 190.07531 151.876544 
L 189.245079 151.947273 
L 188.414848 152.020433 
L 187.584617 152.097095 
L 186.754386 152.177298 
L 185.924155 152.260135 
L 185.093923 152.343965 
L 184.263692 152.42671 
L 183.433461 152.506192 
L 182.60323 152.580437 
L 181.772999 152.647917 
L 180.942768 152.707683 
L 180.112536 152.759388 
L 179.282305 152.803223 
z
" style="fill:#1f77b4;fill-opacity:0.3;"/>
   </g>
   <g id="PolyCollection_6">
    <path clip-path="url(#pbb80920815)" d="M 166.488821 127.4312 
L 166.488821 127.615536 
L 167.479679 127.626943 
L 168.470536 127.639057 
L 169.461394 127.652649 
L 170.452251 127.668786 
L 171.443109 127.688764 
L 172.433966 127.714012 
L 173.424824 127.745945 
L 174.415681 127.785798 
L 175.406539 127.83446 
L 176.397396 127.892351 
L 177.388254 127.959403 
L 178.379111 128.035178 
L 179.369969 128.119131 
L 180.360826 128.210976 
L 181.351684 128.311062 
L 182.342541 128.420637 
L 183.333399 128.541897 
L 184.324256 128.677754 
L 185.315114 128.831342 
L 186.305971 129.005366 
L 187.296829 129.20146 
L 188.287686 129.419699 
L 189.278544 129.658422 
L 190.269401 129.914416 
L 191.260259 130.1834 
L 192.251116 130.460715 
L 193.241974 130.742015 
L 194.232831 131.023806 
L 195.223689 131.303673 
L 196.214546 131.580162 
L 197.205404 131.852356 
L 198.196261 132.11928 
L 199.187119 132.379316 
L 200.177976 132.629816 
L 201.168834 132.867043 
L 202.159691 133.086474 
L 203.150549 133.283427 
L 204.141406 133.453824 
L 205.132264 133.594935 
L 206.123122 133.705861 
L 207.113979 133.787663 
L 208.104837 133.843055 
L 209.095694 133.875766 
L 210.086552 133.889684 
L 211.077409 133.888008 
L 212.068267 133.872587 
L 213.059124 133.843601 
L 214.049982 133.799635 
L 215.040839 133.738127 
L 216.031697 133.656098 
L 217.022554 133.550993 
L 218.013412 133.421489 
L 219.004269 133.268109 
L 219.995127 133.093538 
L 220.985984 132.902593 
L 221.976842 132.701831 
L 222.967699 132.498849 
L 223.958557 132.301391 
L 224.949414 132.116375 
L 225.940272 131.949014 
L 226.931129 131.802164 
L 227.921987 131.676008 
L 228.912844 131.568104 
L 229.903702 131.473778 
L 230.894559 131.386755 
L 231.885417 131.299934 
L 232.876274 131.20619 
L 233.867132 131.099119 
L 234.857989 130.973682 
L 235.848847 130.826694 
L 236.839704 130.657131 
L 237.830562 130.466208 
L 238.821419 130.257212 
L 239.812277 130.035094 
L 240.803134 129.80589 
L 241.793992 129.576039 
L 242.784849 129.351731 
L 243.775707 129.138366 
L 244.766565 128.940182 
L 245.757422 128.760072 
L 246.74828 128.599566 
L 247.739137 128.458938 
L 248.729995 128.337404 
L 249.720852 128.233376 
L 250.71171 128.144752 
L 251.702567 128.069205 
L 252.693425 128.004455 
L 253.684282 127.948474 
L 254.67514 127.899612 
L 255.665997 127.856635 
L 256.656855 127.81867 
L 257.647712 127.785106 
L 258.63857 127.755468 
L 259.629427 127.729313 
L 260.620285 127.706167 
L 261.611142 127.685509 
L 262.602 127.6668 
L 263.592857 127.649543 
L 264.583715 127.633345 
L 264.583715 127.413392 
L 264.583715 127.413392 
L 263.592857 127.397194 
L 262.602 127.379937 
L 261.611142 127.361228 
L 260.620285 127.34057 
L 259.629427 127.317424 
L 258.63857 127.291269 
L 257.647712 127.261631 
L 256.656855 127.228067 
L 255.665997 127.190102 
L 254.67514 127.147125 
L 253.684282 127.098263 
L 252.693425 127.042281 
L 251.702567 126.977531 
L 250.71171 126.901985 
L 249.720852 126.813361 
L 248.729995 126.709333 
L 247.739137 126.587799 
L 246.74828 126.447171 
L 245.757422 126.286665 
L 244.766565 126.106555 
L 243.775707 125.90837 
L 242.784849 125.695005 
L 241.793992 125.470698 
L 240.803134 125.240847 
L 239.812277 125.011643 
L 238.821419 124.789525 
L 237.830562 124.580529 
L 236.839704 124.389606 
L 235.848847 124.220043 
L 234.857989 124.073055 
L 233.867132 123.947618 
L 232.876274 123.840546 
L 231.885417 123.746802 
L 230.894559 123.659982 
L 229.903702 123.572959 
L 228.912844 123.478632 
L 227.921987 123.370729 
L 226.931129 123.244573 
L 225.940272 123.097723 
L 224.949414 122.930362 
L 223.958557 122.745346 
L 222.967699 122.547888 
L 221.976842 122.344906 
L 220.985984 122.144143 
L 219.995127 121.953199 
L 219.004269 121.778628 
L 218.013412 121.625247 
L 217.022554 121.495744 
L 216.031697 121.390639 
L 215.040839 121.30861 
L 214.049982 121.247102 
L 213.059124 121.203135 
L 212.068267 121.17415 
L 211.077409 121.158729 
L 210.086552 121.157053 
L 209.095694 121.170971 
L 208.104837 121.203682 
L 207.113979 121.259074 
L 206.123122 121.340875 
L 205.132264 121.451802 
L 204.141406 121.592913 
L 203.150549 121.76331 
L 202.159691 121.960262 
L 201.168834 122.179694 
L 200.177976 122.416921 
L 199.187119 122.667421 
L 198.196261 122.927457 
L 197.205404 123.194381 
L 196.214546 123.466575 
L 195.223689 123.743064 
L 194.232831 124.022931 
L 193.241974 124.304722 
L 192.251116 124.586022 
L 191.260259 124.863336 
L 190.269401 125.132321 
L 189.278544 125.388314 
L 188.287686 125.627038 
L 187.296829 125.845277 
L 186.305971 126.04137 
L 185.315114 126.215395 
L 184.324256 126.368983 
L 183.333399 126.50484 
L 182.342541 126.6261 
L 181.351684 126.735675 
L 180.360826 126.83576 
L 179.369969 126.927606 
L 178.379111 127.011559 
L 177.388254 127.087334 
L 176.397396 127.154386 
L 175.406539 127.212277 
L 174.415681 127.260939 
L 173.424824 127.300792 
L 172.433966 127.332725 
L 171.443109 127.357972 
L 170.452251 127.377951 
L 169.461394 127.394088 
L 168.470536 127.40768 
L 167.479679 127.419794 
L 166.488821 127.4312 
z
" style="fill:#1f77b4;fill-opacity:0.3;"/>
   </g>
   <g id="PolyCollection_7">
    <path clip-path="url(#pbb80920815)" d="M 144.989899 101.823593 
L 144.989899 102.292618 
L 146.284075 102.344069 
L 147.578251 102.40323 
L 148.872428 102.470141 
L 150.166604 102.544489 
L 151.460781 102.625582 
L 152.754957 102.712378 
L 154.049134 102.803556 
L 155.34331 102.897639 
L 156.637487 102.993144 
L 157.931663 103.088735 
L 159.22584 103.183363 
L 160.520016 103.276366 
L 161.814193 103.367511 
L 163.108369 103.456972 
L 164.402545 103.54527 
L 165.696722 103.633158 
L 166.990898 103.721511 
L 168.285075 103.811206 
L 169.579251 103.903041 
L 170.873428 103.997674 
L 172.167604 104.095606 
L 173.461781 104.197182 
L 174.755957 104.302617 
L 176.050134 104.412028 
L 177.34431 104.525472 
L 178.638487 104.642979 
L 179.932663 104.764574 
L 181.22684 104.890287 
L 182.521016 105.020134 
L 183.815192 105.154071 
L 185.109369 105.291908 
L 186.403545 105.433209 
L 187.697722 105.577189 
L 188.991898 105.722641 
L 190.286075 105.867935 
L 191.580251 106.011098 
L 192.874428 106.150004 
L 194.168604 106.282647 
L 195.462781 106.40746 
L 196.756957 106.523615 
L 198.051134 106.631247 
L 199.34531 106.731545 
L 200.639486 106.82667 
L 201.933663 106.91951 
L 203.227839 107.013293 
L 204.522016 107.111123 
L 205.816192 107.215516 
L 207.110369 107.327993 
L 208.404545 107.4488 
L 209.698722 107.576794 
L 210.992898 107.709481 
L 212.287075 107.843216 
L 213.581251 107.97351 
L 214.875428 108.095416 
L 216.169604 108.203942 
L 217.46378 108.294459 
L 218.757957 108.363074 
L 220.052133 108.406927 
L 221.34631 108.424421 
L 222.640486 108.415322 
L 223.934663 108.380746 
L 225.228839 108.322995 
L 226.523016 108.245262 
L 227.817192 108.151207 
L 229.111369 108.044471 
L 230.405545 107.928177 
L 231.699722 107.804504 
L 232.993898 107.674404 
L 234.288074 107.537514 
L 235.582251 107.39229 
L 236.876427 107.236338 
L 238.170604 107.066895 
L 239.46478 106.881384 
L 240.758957 106.677952 
L 242.053133 106.455919 
L 243.34731 106.216068 
L 244.641486 105.960753 
L 245.935663 105.693803 
L 247.229839 105.420253 
L 248.524016 105.145942 
L 249.818192 104.877014 
L 251.112369 104.619402 
L 252.406545 104.378336 
L 253.700721 104.157941 
L 254.994898 103.960952 
L 256.289074 103.78857 
L 257.583251 103.640479 
L 258.877427 103.514988 
L 260.171604 103.409291 
L 261.46578 103.319803 
L 262.759957 103.242526 
L 264.054133 103.173421 
L 265.34831 103.108741 
L 266.642486 103.045311 
L 267.936663 102.98072 
L 269.230839 102.913437 
L 270.525015 102.84283 
L 271.819192 102.769106 
L 273.113368 102.693177 
L 273.113368 101.423034 
L 273.113368 101.423034 
L 271.819192 101.347104 
L 270.525015 101.27338 
L 269.230839 101.202773 
L 267.936663 101.13549 
L 266.642486 101.070899 
L 265.34831 101.007469 
L 264.054133 100.94279 
L 262.759957 100.873684 
L 261.46578 100.796407 
L 260.171604 100.706919 
L 258.877427 100.601223 
L 257.583251 100.475732 
L 256.289074 100.327641 
L 254.994898 100.155259 
L 253.700721 99.958269 
L 252.406545 99.737875 
L 251.112369 99.496809 
L 249.818192 99.239196 
L 248.524016 98.970268 
L 247.229839 98.695957 
L 245.935663 98.422408 
L 244.641486 98.155457 
L 243.34731 97.900142 
L 242.053133 97.660292 
L 240.758957 97.438258 
L 239.46478 97.234827 
L 238.170604 97.049316 
L 236.876427 96.879873 
L 235.582251 96.723921 
L 234.288074 96.578696 
L 232.993898 96.441806 
L 231.699722 96.311706 
L 230.405545 96.188033 
L 229.111369 96.071739 
L 227.817192 95.965004 
L 226.523016 95.870948 
L 225.228839 95.793215 
L 223.934663 95.735465 
L 222.640486 95.700888 
L 221.34631 95.691789 
L 220.052133 95.709283 
L 218.757957 95.753137 
L 217.46378 95.821751 
L 216.169604 95.912269 
L 214.875428 96.020795 
L 213.581251 96.142701 
L 212.287075 96.272995 
L 210.992898 96.40673 
L 209.698722 96.539417 
L 208.404545 96.667411 
L 207.110369 96.788218 
L 205.816192 96.900694 
L 204.522016 97.005087 
L 203.227839 97.102918 
L 201.933663 97.1967 
L 200.639486 97.28954 
L 199.34531 97.384666 
L 198.051134 97.484963 
L 196.756957 97.592595 
L 195.462781 97.70875 
L 194.168604 97.833563 
L 192.874428 97.966207 
L 191.580251 98.105113 
L 190.286075 98.248275 
L 188.991898 98.393569 
L 187.697722 98.539022 
L 186.403545 98.683002 
L 185.109369 98.824303 
L 183.815192 98.962139 
L 182.521016 99.096076 
L 181.22684 99.225924 
L 179.932663 99.351637 
L 178.638487 99.473231 
L 177.34431 99.590738 
L 176.050134 99.704183 
L 174.755957 99.813594 
L 173.461781 99.919029 
L 172.167604 100.020605 
L 170.873428 100.118537 
L 169.579251 100.21317 
L 168.285075 100.305004 
L 166.990898 100.394699 
L 165.696722 100.483052 
L 164.402545 100.570941 
L 163.108369 100.659238 
L 161.814193 100.7487 
L 160.520016 100.839844 
L 159.22584 100.932848 
L 157.931663 101.027476 
L 156.637487 101.123067 
L 155.34331 101.218571 
L 154.049134 101.312655 
L 152.754957 101.403833 
L 151.460781 101.490628 
L 150.166604 101.571722 
L 148.872428 101.646069 
L 147.578251 101.712981 
L 146.284075 101.772141 
L 144.989899 101.823593 
z
" style="fill:#1f77b4;fill-opacity:0.3;"/>
   </g>
   <g id="PolyCollection_8">
    <path clip-path="url(#pbb80920815)" d="M 131.77454 76.476899 
L 131.77454 76.708786 
L 132.87951 76.731528 
L 133.984481 76.757707 
L 135.089451 76.788118 
L 136.194421 76.823576 
L 137.299391 76.864793 
L 138.404362 76.912265 
L 139.509332 76.96619 
L 140.614302 77.026429 
L 141.719273 77.092526 
L 142.824243 77.163809 
L 143.929213 77.239564 
L 145.034184 77.319297 
L 146.139154 77.403033 
L 147.244124 77.49159 
L 148.349095 77.5867 
L 149.454065 77.690905 
L 150.559035 77.80717 
L 151.664006 77.938239 
L 152.768976 78.085894 
L 153.873946 78.250308 
L 154.978917 78.429714 
L 156.083887 78.62055 
L 157.188857 78.818106 
L 158.293827 79.017557 
L 159.398798 79.215136 
L 160.503768 79.409146 
L 161.608738 79.600529 
L 162.713709 79.792831 
L 163.818679 79.991517 
L 164.923649 80.202775 
L 166.02862 80.432043 
L 167.13359 80.68255 
L 168.23856 80.954155 
L 169.343531 81.242728 
L 170.448501 81.540202 
L 171.553471 81.835347 
L 172.658442 82.115174 
L 173.763412 82.366763 
L 174.868382 82.579185 
L 175.973352 82.745121 
L 177.078323 82.861838 
L 178.183293 82.931263 
L 179.288263 82.959158 
L 180.393234 82.953605 
L 181.498204 82.923185 
L 182.603174 82.875271 
L 183.708145 82.814828 
L 184.813115 82.743893 
L 185.918085 82.661767 
L 187.023056 82.565773 
L 188.128026 82.452322 
L 189.232996 82.318006 
L 190.337967 82.160491 
L 191.442937 81.979013 
L 192.547907 81.774467 
L 193.652878 81.549108 
L 194.757848 81.306042 
L 195.862818 81.048664 
L 196.967788 80.780225 
L 198.072759 80.503641 
L 199.177729 80.221563 
L 200.282699 79.936657 
L 201.38767 79.651961 
L 202.49264 79.371174 
L 203.59761 79.098729 
L 204.702581 78.839604 
L 205.807551 78.598853 
L 206.912521 78.380978 
L 208.017492 78.189271 
L 209.122462 78.025275 
L 210.227432 77.888507 
L 211.332403 77.77648 
L 212.437373 77.685035 
L 213.542343 77.608924 
L 214.647313 77.542528 
L 215.752284 77.480595 
L 216.857254 77.418877 
L 217.962224 77.354572 
L 219.067195 77.286498 
L 220.172165 77.215011 
L 221.277135 77.141687 
L 222.382106 77.068874 
L 223.487076 76.999192 
L 224.592046 76.935102 
L 225.697017 76.87858 
L 226.801987 76.830935 
L 227.906957 76.792751 
L 229.011928 76.76392 
L 230.116898 76.743745 
L 231.221868 76.731067 
L 232.326839 76.724408 
L 233.431809 76.722109 
L 234.536779 76.722463 
L 235.641749 76.723823 
L 236.74672 76.724711 
L 237.85169 76.723912 
L 238.95666 76.720562 
L 240.061631 76.714216 
L 241.166601 76.70488 
L 241.166601 76.480804 
L 241.166601 76.480804 
L 240.061631 76.471468 
L 238.95666 76.465122 
L 237.85169 76.461772 
L 236.74672 76.460973 
L 235.641749 76.461861 
L 234.536779 76.463221 
L 233.431809 76.463575 
L 232.326839 76.461276 
L 231.221868 76.454617 
L 230.116898 76.441939 
L 229.011928 76.421764 
L 227.906957 76.392934 
L 226.801987 76.354749 
L 225.697017 76.307104 
L 224.592046 76.250582 
L 223.487076 76.186492 
L 222.382106 76.116811 
L 221.277135 76.043997 
L 220.172165 75.970673 
L 219.067195 75.899186 
L 217.962224 75.831112 
L 216.857254 75.766807 
L 215.752284 75.70509 
L 214.647313 75.643156 
L 213.542343 75.57676 
L 212.437373 75.50065 
L 211.332403 75.409205 
L 210.227432 75.297177 
L 209.122462 75.160409 
L 208.017492 74.996414 
L 206.912521 74.804706 
L 205.807551 74.586831 
L 204.702581 74.34608 
L 203.59761 74.086955 
L 202.49264 73.814511 
L 201.38767 73.533723 
L 200.282699 73.249028 
L 199.177729 72.964121 
L 198.072759 72.682043 
L 196.967788 72.405459 
L 195.862818 72.13702 
L 194.757848 71.879642 
L 193.652878 71.636576 
L 192.547907 71.411217 
L 191.442937 71.206671 
L 190.337967 71.025194 
L 189.232996 70.867678 
L 188.128026 70.733363 
L 187.023056 70.619911 
L 185.918085 70.523917 
L 184.813115 70.441791 
L 183.708145 70.370856 
L 182.603174 70.310413 
L 181.498204 70.2625 
L 180.393234 70.232079 
L 179.288263 70.226526 
L 178.183293 70.254421 
L 177.078323 70.323846 
L 175.973352 70.440563 
L 174.868382 70.6065 
L 173.763412 70.818921 
L 172.658442 71.07051 
L 171.553471 71.350338 
L 170.448501 71.645482 
L 169.343531 71.942956 
L 168.23856 72.231529 
L 167.13359 72.503134 
L 166.02862 72.753641 
L 164.923649 72.982909 
L 163.818679 73.194167 
L 162.713709 73.392853 
L 161.608738 73.585155 
L 160.503768 73.776538 
L 159.398798 73.970548 
L 158.293827 74.168127 
L 157.188857 74.367578 
L 156.083887 74.565134 
L 154.978917 74.75597 
L 153.873946 74.935376 
L 152.768976 75.09979 
L 151.664006 75.247445 
L 150.559035 75.378514 
L 149.454065 75.494779 
L 148.349095 75.598984 
L 147.244124 75.694094 
L 146.139154 75.782651 
L 145.034184 75.866388 
L 143.929213 75.94612 
L 142.824243 76.021875 
L 141.719273 76.093158 
L 140.614302 76.159256 
L 139.509332 76.219494 
L 138.404362 76.273419 
L 137.299391 76.320891 
L 136.194421 76.362108 
L 135.089451 76.397566 
L 133.984481 76.427977 
L 132.87951 76.454157 
L 131.77454 76.476899 
z
" style="fill:#1f77b4;fill-opacity:0.3;"/>
   </g>
   <g id="PolyCollection_9">
    <path clip-path="url(#pbb80920815)" d="M 43.157727 50.928658 
L 43.157727 51.3265 
L 44.962554 51.370189 
L 46.76738 51.420151 
L 48.572206 51.47719 
L 50.377032 51.542421 
L 52.181859 51.617292 
L 53.986685 51.703518 
L 55.791511 51.802894 
L 57.596338 51.917007 
L 59.401164 52.046869 
L 61.20599 52.192582 
L 63.010817 52.353105 
L 64.815643 52.526229 
L 66.620469 52.708789 
L 68.425295 52.897104 
L 70.230122 53.087567 
L 72.034948 53.27726 
L 73.839774 53.464467 
L 75.644601 53.648983 
L 77.449427 53.832159 
L 79.254253 54.016683 
L 81.059079 54.206154 
L 82.863906 54.404507 
L 84.668732 54.615384 
L 86.473558 54.841515 
L 88.278385 55.084164 
L 90.083211 55.342695 
L 91.888037 55.614316 
L 93.692864 55.894031 
L 95.49769 56.174851 
L 97.302516 56.448269 
L 99.107342 56.704967 
L 100.912169 56.935695 
L 102.716995 57.132232 
L 104.521821 57.288301 
L 106.326648 57.400326 
L 108.131474 57.467905 
L 109.9363 57.493895 
L 111.741126 57.48403 
L 113.545953 57.446068 
L 115.350779 57.388554 
L 117.155605 57.319394 
L 118.960432 57.24452 
L 120.765258 57.166951 
L 122.570084 57.086495 
L 124.374911 57.000169 
L 126.179737 56.903255 
L 127.984563 56.790704 
L 129.789389 56.658531 
L 131.594216 56.504832 
L 133.399042 56.330207 
L 135.203868 56.137541 
L 137.008695 55.931293 
L 138.813521 55.716545 
L 140.618347 55.49812 
L 142.423173 55.279975 
L 144.228 55.064974 
L 146.032826 54.855008 
L 147.837652 54.651326 
L 149.642479 54.45491 
L 151.447305 54.266756 
L 153.252131 54.087974 
L 155.056958 53.919683 
L 156.861784 53.762779 
L 158.66661 53.617632 
L 160.471436 53.483839 
L 162.276263 53.360112 
L 164.081089 53.244361 
L 165.885915 53.133969 
L 167.690742 53.026211 
L 169.495568 52.918728 
L 171.300394 52.809933 
L 173.10522 52.699251 
L 174.910047 52.587149 
L 176.714873 52.474942 
L 178.519699 52.364452 
L 180.324526 52.257601 
L 182.129352 52.156044 
L 183.934178 52.060913 
L 185.739005 51.972714 
L 187.543831 51.891362 
L 189.348657 51.816337 
L 191.153483 51.746894 
L 192.95831 51.682278 
L 194.763136 51.621909 
L 196.567962 51.565492 
L 198.372789 51.513053 
L 200.177615 51.464901 
L 201.982441 51.421523 
L 203.787267 51.383445 
L 205.592094 51.351077 
L 207.39692 51.324574 
L 209.201746 51.303736 
L 211.006573 51.287972 
L 212.811399 51.276327 
L 214.616225 51.267588 
L 216.421052 51.260437 
L 218.225878 51.253635 
L 220.030704 51.24618 
L 221.83553 51.237438 
L 221.83553 51.01772 
L 221.83553 51.01772 
L 220.030704 51.008978 
L 218.225878 51.001523 
L 216.421052 50.99472 
L 214.616225 50.98757 
L 212.811399 50.978831 
L 211.006573 50.967186 
L 209.201746 50.951421 
L 207.39692 50.930584 
L 205.592094 50.904081 
L 203.787267 50.871713 
L 201.982441 50.833635 
L 200.177615 50.790257 
L 198.372789 50.742104 
L 196.567962 50.689666 
L 194.763136 50.633249 
L 192.95831 50.57288 
L 191.153483 50.508264 
L 189.348657 50.438821 
L 187.543831 50.363796 
L 185.739005 50.282444 
L 183.934178 50.194244 
L 182.129352 50.099114 
L 180.324526 49.997557 
L 178.519699 49.890706 
L 176.714873 49.780215 
L 174.910047 49.668009 
L 173.10522 49.555907 
L 171.300394 49.445225 
L 169.495568 49.33643 
L 167.690742 49.228947 
L 165.885915 49.121189 
L 164.081089 49.010796 
L 162.276263 48.895046 
L 160.471436 48.771319 
L 158.66661 48.637526 
L 156.861784 48.492379 
L 155.056958 48.335475 
L 153.252131 48.167184 
L 151.447305 47.988401 
L 149.642479 47.800248 
L 147.837652 47.603832 
L 146.032826 47.40015 
L 144.228 47.190184 
L 142.423173 46.975183 
L 140.618347 46.757038 
L 138.813521 46.538613 
L 137.008695 46.323865 
L 135.203868 46.117617 
L 133.399042 45.924951 
L 131.594216 45.750326 
L 129.789389 45.596627 
L 127.984563 45.464454 
L 126.179737 45.351903 
L 124.374911 45.254989 
L 122.570084 45.168662 
L 120.765258 45.088207 
L 118.960432 45.010638 
L 117.155605 44.935764 
L 115.350779 44.866604 
L 113.545953 44.80909 
L 111.741126 44.771128 
L 109.9363 44.761263 
L 108.131474 44.787253 
L 106.326648 44.854832 
L 104.521821 44.966856 
L 102.716995 45.122926 
L 100.912169 45.319463 
L 99.107342 45.550191 
L 97.302516 45.806889 
L 95.49769 46.080307 
L 93.692864 46.361127 
L 91.888037 46.640842 
L 90.083211 46.912463 
L 88.278385 47.170994 
L 86.473558 47.413643 
L 84.668732 47.639774 
L 82.863906 47.850651 
L 81.059079 48.049004 
L 79.254253 48.238475 
L 77.449427 48.422999 
L 75.644601 48.606174 
L 73.839774 48.79069 
L 72.034948 48.977897 
L 70.230122 49.167591 
L 68.425295 49.358054 
L 66.620469 49.546369 
L 64.815643 49.728929 
L 63.010817 49.902053 
L 61.20599 50.062576 
L 59.401164 50.208289 
L 57.596338 50.338151 
L 55.791511 50.452263 
L 53.986685 50.55164 
L 52.181859 50.637866 
L 50.377032 50.712737 
L 48.572206 50.777968 
L 46.76738 50.835007 
L 44.962554 50.884969 
L 43.157727 50.928658 
z
" style="fill:#1f77b4;fill-opacity:0.3;"/>
   </g>
   <g id="PolyCollection_10">
    <path clip-path="url(#pbb80920815)" d="M 106.905681 25.456262 
L 106.905681 25.86837 
L 109.054403 25.90768 
L 111.203125 25.94918 
L 113.351846 25.99182 
L 115.500568 26.034359 
L 117.64929 26.075433 
L 119.798011 26.113665 
L 121.946733 26.147822 
L 124.095455 26.177018 
L 126.244177 26.200944 
L 128.392898 26.220078 
L 130.54162 26.235839 
L 132.690342 26.250629 
L 134.839063 26.267736 
L 136.987785 26.291056 
L 139.136507 26.324689 
L 141.285229 26.37243 
L 143.43395 26.437252 
L 145.582672 26.520873 
L 147.731394 26.62349 
L 149.880115 26.743763 
L 152.028837 26.879054 
L 154.177559 27.025897 
L 156.32628 27.180628 
L 158.475002 27.340024 
L 160.623724 27.501847 
L 162.772446 27.66517 
L 164.921167 27.830425 
L 167.069889 27.999196 
L 169.218611 28.173819 
L 171.367332 28.356897 
L 173.516054 28.550849 
L 175.664776 28.757549 
L 177.813498 28.978091 
L 179.962219 29.212648 
L 182.110941 29.460392 
L 184.259663 29.719435 
L 186.408384 29.986792 
L 188.557106 30.258389 
L 190.705828 30.529164 
L 192.85455 30.793291 
L 195.003271 31.044549 
L 197.151993 31.27678 
L 199.300715 31.484371 
L 201.449436 31.662646 
L 203.598158 31.808095 
L 205.74688 31.918377 
L 207.895601 31.992128 
L 210.044323 32.028632 
L 212.193045 32.027499 
L 214.341767 31.988475 
L 216.490488 31.911479 
L 218.63921 31.796881 
L 220.787932 31.645973 
L 222.936653 31.461467 
L 225.085375 31.247857 
L 227.234097 31.011485 
L 229.382819 30.760221 
L 231.53154 30.502781 
L 233.680262 30.247809 
L 235.828984 30.002909 
L 237.977705 29.773847 
L 240.126427 29.564075 
L 242.275149 29.374662 
L 244.423871 29.204597 
L 246.572592 29.051338 
L 248.721314 28.911463 
L 250.870036 28.781251 
L 253.018757 28.657109 
L 255.167479 28.535805 
L 257.316201 28.414545 
L 259.464922 28.290984 
L 261.613644 28.163227 
L 263.762366 28.029901 
L 265.911088 27.890293 
L 268.059809 27.74452 
L 270.208531 27.59366 
L 272.357253 27.439777 
L 274.505974 27.285776 
L 276.654696 27.135091 
L 278.803418 26.991242 
L 280.95214 26.857347 
L 283.100861 26.735708 
L 285.249583 26.627534 
L 287.398305 26.53287 
L 289.547026 26.450735 
L 291.695748 26.379401 
L 293.84447 26.31676 
L 295.993191 26.260687 
L 298.141913 26.209329 
L 300.290635 26.161279 
L 302.439357 26.115639 
L 304.588078 26.071968 
L 306.7368 26.030165 
L 308.885522 25.990328 
L 311.034243 25.952618 
L 313.182965 25.917172 
L 315.331687 25.884058 
L 317.480409 25.853285 
L 319.62913 25.824831 
L 319.62913 25.4998 
L 319.62913 25.4998 
L 317.480409 25.471347 
L 315.331687 25.440573 
L 313.182965 25.40746 
L 311.034243 25.372014 
L 308.885522 25.334304 
L 306.7368 25.294466 
L 304.588078 25.252664 
L 302.439357 25.208992 
L 300.290635 25.163353 
L 298.141913 25.115303 
L 295.993191 25.063944 
L 293.84447 25.007872 
L 291.695748 24.945231 
L 289.547026 24.873896 
L 287.398305 24.791761 
L 285.249583 24.697098 
L 283.100861 24.588923 
L 280.95214 24.467285 
L 278.803418 24.33339 
L 276.654696 24.18954 
L 274.505974 24.038855 
L 272.357253 23.884855 
L 270.208531 23.730972 
L 268.059809 23.580112 
L 265.911088 23.434339 
L 263.762366 23.294731 
L 261.613644 23.161405 
L 259.464922 23.033648 
L 257.316201 22.910086 
L 255.167479 22.788827 
L 253.018757 22.667522 
L 250.870036 22.543381 
L 248.721314 22.413169 
L 246.572592 22.273294 
L 244.423871 22.120035 
L 242.275149 21.949969 
L 240.126427 21.760557 
L 237.977705 21.550785 
L 235.828984 21.321723 
L 233.680262 21.076823 
L 231.53154 20.82185 
L 229.382819 20.56441 
L 227.234097 20.313146 
L 225.085375 20.076775 
L 222.936653 19.863165 
L 220.787932 19.678659 
L 218.63921 19.527751 
L 216.490488 19.413153 
L 214.341767 19.336156 
L 212.193045 19.297133 
L 210.044323 19.296 
L 207.895601 19.332503 
L 205.74688 19.406254 
L 203.598158 19.516537 
L 201.449436 19.661985 
L 199.300715 19.84026 
L 197.151993 20.047851 
L 195.003271 20.280083 
L 192.85455 20.531341 
L 190.705828 20.795468 
L 188.557106 21.066242 
L 186.408384 21.33784 
L 184.259663 21.605197 
L 182.110941 21.86424 
L 179.962219 22.111983 
L 177.813498 22.34654 
L 175.664776 22.567083 
L 173.516054 22.773783 
L 171.367332 22.967735 
L 169.218611 23.150813 
L 167.069889 23.325435 
L 164.921167 23.494207 
L 162.772446 23.659462 
L 160.623724 23.822785 
L 158.475002 23.984608 
L 156.32628 24.144003 
L 154.177559 24.298734 
L 152.028837 24.445578 
L 149.880115 24.580868 
L 147.731394 24.701141 
L 145.582672 24.803759 
L 143.43395 24.887379 
L 141.285229 24.952202 
L 139.136507 24.999943 
L 136.987785 25.033576 
L 134.839063 25.056896 
L 132.690342 25.074002 
L 130.54162 25.088793 
L 128.392898 25.104553 
L 126.244177 25.123687 
L 124.095455 25.147613 
L 121.946733 25.17681 
L 119.798011 25.210967 
L 117.64929 25.249199 
L 115.500568 25.290273 
L 113.351846 25.332812 
L 111.203125 25.375452 
L 109.054403 25.416952 
L 106.905681 25.456262 
z
" style="fill:#1f77b4;fill-opacity:0.3;"/>
   </g>
   <g id="matplotlib.axis_1">
    <g id="xtick_1">
     <g id="line2d_1">
      <defs>
       <path d="M 0 0 
L 0 3.5 
" id="m692679f4d8" style="stroke:#000000;stroke-width:0.8;"/>
      </defs>
      <g>
       <use style="stroke:#000000;stroke-width:0.8;" x="59.972753" xlink:href="#m692679f4d8" y="273.312"/>
      </g>
     </g>
     <g id="text_1">
      <!-- 60 -->
      <g transform="translate(49.420409 287.910437)scale(0.1 -0.1)">
       <defs>
        <path d="M 10.59375 35.5 
L 73.1875 35.5 
L 73.1875 27.203125 
L 10.59375 27.203125 
z
" id="DejaVuSans-8722"/>
        <path d="M 33.015625 40.375 
Q 26.375 40.375 22.484375 35.828125 
Q 18.609375 31.296875 18.609375 23.390625 
Q 18.609375 15.53125 22.484375 10.953125 
Q 26.375 6.390625 33.015625 6.390625 
Q 39.65625 6.390625 43.53125 10.953125 
Q 47.40625 15.53125 47.40625 23.390625 
Q 47.40625 31.296875 43.53125 35.828125 
Q 39.65625 40.375 33.015625 40.375 
z
M 52.59375 71.296875 
L 52.59375 62.3125 
Q 48.875 64.0625 45.09375 64.984375 
Q 41.3125 65.921875 37.59375 65.921875 
Q 27.828125 65.921875 22.671875 59.328125 
Q 17.53125 52.734375 16.796875 39.40625 
Q 19.671875 43.65625 24.015625 45.921875 
Q 28.375 48.1875 33.59375 48.1875 
Q 44.578125 48.1875 50.953125 41.515625 
Q 57.328125 34.859375 57.328125 23.390625 
Q 57.328125 12.15625 50.6875 5.359375 
Q 44.046875 -1.421875 33.015625 -1.421875 
Q 20.359375 -1.421875 13.671875 8.265625 
Q 6.984375 17.96875 6.984375 36.375 
Q 6.984375 53.65625 15.1875 63.9375 
Q 23.390625 74.21875 37.203125 74.21875 
Q 40.921875 74.21875 44.703125 73.484375 
Q 48.484375 72.75 52.59375 71.296875 
z
" id="DejaVuSans-54"/>
        <path d="M 31.78125 66.40625 
Q 24.171875 66.40625 20.328125 58.90625 
Q 16.5 51.421875 16.5 36.375 
Q 16.5 21.390625 20.328125 13.890625 
Q 24.171875 6.390625 31.78125 6.390625 
Q 39.453125 6.390625 43.28125 13.890625 
Q 47.125 21.390625 47.125 36.375 
Q 47.125 51.421875 43.28125 58.90625 
Q 39.453125 66.40625 31.78125 66.40625 
z
M 31.78125 74.21875 
Q 44.046875 74.21875 50.515625 64.515625 
Q 56.984375 54.828125 56.984375 36.375 
Q 56.984375 17.96875 50.515625 8.265625 
Q 44.046875 -1.421875 31.78125 -1.421875 
Q 19.53125 -1.421875 13.0625 8.265625 
Q 6.59375 17.96875 6.59375 36.375 
Q 6.59375 54.828125 13.0625 64.515625 
Q 19.53125 74.21875 31.78125 74.21875 
z
" id="DejaVuSans-48"/>
       </defs>
       <use xlink:href="#DejaVuSans-8722"/>
       <use x="83.789062" xlink:href="#DejaVuSans-54"/>
       <use x="147.412109" xlink:href="#DejaVuSans-48"/>
      </g>
     </g>
    </g>
    <g id="xtick_2">
     <g id="line2d_2">
      <g>
       <use style="stroke:#000000;stroke-width:0.8;" x="112.965025" xlink:href="#m692679f4d8" y="273.312"/>
      </g>
     </g>
     <g id="text_2">
      <!-- 40 -->
      <g transform="translate(102.412681 287.910437)scale(0.1 -0.1)">
       <defs>
        <path d="M 37.796875 64.3125 
L 12.890625 25.390625 
L 37.796875 25.390625 
z
M 35.203125 72.90625 
L 47.609375 72.90625 
L 47.609375 25.390625 
L 58.015625 25.390625 
L 58.015625 17.1875 
L 47.609375 17.1875 
L 47.609375 0 
L 37.796875 0 
L 37.796875 17.1875 
L 4.890625 17.1875 
L 4.890625 26.703125 
z
" id="DejaVuSans-52"/>
       </defs>
       <use xlink:href="#DejaVuSans-8722"/>
       <use x="83.789062" xlink:href="#DejaVuSans-52"/>
       <use x="147.412109" xlink:href="#DejaVuSans-48"/>
      </g>
     </g>
    </g>
    <g id="xtick_3">
     <g id="line2d_3">
      <g>
       <use style="stroke:#000000;stroke-width:0.8;" x="165.957296" xlink:href="#m692679f4d8" y="273.312"/>
      </g>
     </g>
     <g id="text_3">
      <!-- 20 -->
      <g transform="translate(155.404953 287.910437)scale(0.1 -0.1)">
       <defs>
        <path d="M 19.1875 8.296875 
L 53.609375 8.296875 
L 53.609375 0 
L 7.328125 0 
L 7.328125 8.296875 
Q 12.9375 14.109375 22.625 23.890625 
Q 32.328125 33.6875 34.8125 36.53125 
Q 39.546875 41.84375 41.421875 45.53125 
Q 43.3125 49.21875 43.3125 52.78125 
Q 43.3125 58.59375 39.234375 62.25 
Q 35.15625 65.921875 28.609375 65.921875 
Q 23.96875 65.921875 18.8125 64.3125 
Q 13.671875 62.703125 7.8125 59.421875 
L 7.8125 69.390625 
Q 13.765625 71.78125 18.9375 73 
Q 24.125 74.21875 28.421875 74.21875 
Q 39.75 74.21875 46.484375 68.546875 
Q 53.21875 62.890625 53.21875 53.421875 
Q 53.21875 48.921875 51.53125 44.890625 
Q 49.859375 40.875 45.40625 35.40625 
Q 44.1875 33.984375 37.640625 27.21875 
Q 31.109375 20.453125 19.1875 8.296875 
z
" id="DejaVuSans-50"/>
       </defs>
       <use xlink:href="#DejaVuSans-8722"/>
       <use x="83.789062" xlink:href="#DejaVuSans-50"/>
       <use x="147.412109" xlink:href="#DejaVuSans-48"/>
      </g>
     </g>
    </g>
    <g id="xtick_4">
     <g id="line2d_4">
      <g>
       <use style="stroke:#000000;stroke-width:0.8;" x="218.949568" xlink:href="#m692679f4d8" y="273.312"/>
      </g>
     </g>
     <g id="text_4">
      <!-- 0 -->
      <g transform="translate(215.768318 287.910437)scale(0.1 -0.1)">
       <use xlink:href="#DejaVuSans-48"/>
      </g>
     </g>
    </g>
    <g id="xtick_5">
     <g id="line2d_5">
      <g>
       <use style="stroke:#000000;stroke-width:0.8;" x="271.94184" xlink:href="#m692679f4d8" y="273.312"/>
      </g>
     </g>
     <g id="text_5">
      <!-- 20 -->
      <g transform="translate(265.57934 287.910437)scale(0.1 -0.1)">
       <use xlink:href="#DejaVuSans-50"/>
       <use x="63.623047" xlink:href="#DejaVuSans-48"/>
      </g>
     </g>
    </g>
    <g id="xtick_6">
     <g id="line2d_6">
      <g>
       <use style="stroke:#000000;stroke-width:0.8;" x="324.934111" xlink:href="#m692679f4d8" y="273.312"/>
      </g>
     </g>
     <g id="text_6">
      <!-- 40 -->
      <g transform="translate(318.571611 287.910437)scale(0.1 -0.1)">
       <use xlink:href="#DejaVuSans-52"/>
       <use x="63.623047" xlink:href="#DejaVuSans-48"/>
      </g>
     </g>
    </g>
    <g id="xtick_7">
     <g id="line2d_7">
      <g>
       <use style="stroke:#000000;stroke-width:0.8;" x="377.926383" xlink:href="#m692679f4d8" y="273.312"/>
      </g>
     </g>
     <g id="text_7">
      <!-- 60 -->
      <g transform="translate(371.563883 287.910437)scale(0.1 -0.1)">
       <use xlink:href="#DejaVuSans-54"/>
       <use x="63.623047" xlink:href="#DejaVuSans-48"/>
      </g>
     </g>
    </g>
    <g id="text_8">
     <!-- Velocity [km/s] -->
     <g transform="translate(168.324063 301.588562)scale(0.1 -0.1)">
      <defs>
       <path d="M 28.609375 0 
L 0.78125 72.90625 
L 11.078125 72.90625 
L 34.1875 11.53125 
L 57.328125 72.90625 
L 67.578125 72.90625 
L 39.796875 0 
z
" id="DejaVuSans-86"/>
       <path d="M 56.203125 29.59375 
L 56.203125 25.203125 
L 14.890625 25.203125 
Q 15.484375 15.921875 20.484375 11.0625 
Q 25.484375 6.203125 34.421875 6.203125 
Q 39.59375 6.203125 44.453125 7.46875 
Q 49.3125 8.734375 54.109375 11.28125 
L 54.109375 2.78125 
Q 49.265625 0.734375 44.1875 -0.34375 
Q 39.109375 -1.421875 33.890625 -1.421875 
Q 20.796875 -1.421875 13.15625 6.1875 
Q 5.515625 13.8125 5.515625 26.8125 
Q 5.515625 40.234375 12.765625 48.109375 
Q 20.015625 56 32.328125 56 
Q 43.359375 56 49.78125 48.890625 
Q 56.203125 41.796875 56.203125 29.59375 
z
M 47.21875 32.234375 
Q 47.125 39.59375 43.09375 43.984375 
Q 39.0625 48.390625 32.421875 48.390625 
Q 24.90625 48.390625 20.390625 44.140625 
Q 15.875 39.890625 15.1875 32.171875 
z
" id="DejaVuSans-101"/>
       <path d="M 9.421875 75.984375 
L 18.40625 75.984375 
L 18.40625 0 
L 9.421875 0 
z
" id="DejaVuSans-108"/>
       <path d="M 30.609375 48.390625 
Q 23.390625 48.390625 19.1875 42.75 
Q 14.984375 37.109375 14.984375 27.296875 
Q 14.984375 17.484375 19.15625 11.84375 
Q 23.34375 6.203125 30.609375 6.203125 
Q 37.796875 6.203125 41.984375 11.859375 
Q 46.1875 17.53125 46.1875 27.296875 
Q 46.1875 37.015625 41.984375 42.703125 
Q 37.796875 48.390625 30.609375 48.390625 
z
M 30.609375 56 
Q 42.328125 56 49.015625 48.375 
Q 55.71875 40.765625 55.71875 27.296875 
Q 55.71875 13.875 49.015625 6.21875 
Q 42.328125 -1.421875 30.609375 -1.421875 
Q 18.84375 -1.421875 12.171875 6.21875 
Q 5.515625 13.875 5.515625 27.296875 
Q 5.515625 40.765625 12.171875 48.375 
Q 18.84375 56 30.609375 56 
z
" id="DejaVuSans-111"/>
       <path d="M 48.78125 52.59375 
L 48.78125 44.1875 
Q 44.96875 46.296875 41.140625 47.34375 
Q 37.3125 48.390625 33.40625 48.390625 
Q 24.65625 48.390625 19.8125 42.84375 
Q 14.984375 37.3125 14.984375 27.296875 
Q 14.984375 17.28125 19.8125 11.734375 
Q 24.65625 6.203125 33.40625 6.203125 
Q 37.3125 6.203125 41.140625 7.25 
Q 44.96875 8.296875 48.78125 10.40625 
L 48.78125 2.09375 
Q 45.015625 0.34375 40.984375 -0.53125 
Q 36.96875 -1.421875 32.421875 -1.421875 
Q 20.0625 -1.421875 12.78125 6.34375 
Q 5.515625 14.109375 5.515625 27.296875 
Q 5.515625 40.671875 12.859375 48.328125 
Q 20.21875 56 33.015625 56 
Q 37.15625 56 41.109375 55.140625 
Q 45.0625 54.296875 48.78125 52.59375 
z
" id="DejaVuSans-99"/>
       <path d="M 9.421875 54.6875 
L 18.40625 54.6875 
L 18.40625 0 
L 9.421875 0 
z
M 9.421875 75.984375 
L 18.40625 75.984375 
L 18.40625 64.59375 
L 9.421875 64.59375 
z
" id="DejaVuSans-105"/>
       <path d="M 18.3125 70.21875 
L 18.3125 54.6875 
L 36.8125 54.6875 
L 36.8125 47.703125 
L 18.3125 47.703125 
L 18.3125 18.015625 
Q 18.3125 11.328125 20.140625 9.421875 
Q 21.96875 7.515625 27.59375 7.515625 
L 36.8125 7.515625 
L 36.8125 0 
L 27.59375 0 
Q 17.1875 0 13.234375 3.875 
Q 9.28125 7.765625 9.28125 18.015625 
L 9.28125 47.703125 
L 2.6875 47.703125 
L 2.6875 54.6875 
L 9.28125 54.6875 
L 9.28125 70.21875 
z
" id="DejaVuSans-116"/>
       <path d="M 32.171875 -5.078125 
Q 28.375 -14.84375 24.75 -17.8125 
Q 21.140625 -20.796875 15.09375 -20.796875 
L 7.90625 -20.796875 
L 7.90625 -13.28125 
L 13.1875 -13.28125 
Q 16.890625 -13.28125 18.9375 -11.515625 
Q 21 -9.765625 23.484375 -3.21875 
L 25.09375 0.875 
L 2.984375 54.6875 
L 12.5 54.6875 
L 29.59375 11.921875 
L 46.6875 54.6875 
L 56.203125 54.6875 
z
" id="DejaVuSans-121"/>
       <path id="DejaVuSans-32"/>
       <path d="M 8.59375 75.984375 
L 29.296875 75.984375 
L 29.296875 69 
L 17.578125 69 
L 17.578125 -6.203125 
L 29.296875 -6.203125 
L 29.296875 -13.1875 
L 8.59375 -13.1875 
z
" id="DejaVuSans-91"/>
       <path d="M 9.078125 75.984375 
L 18.109375 75.984375 
L 18.109375 31.109375 
L 44.921875 54.6875 
L 56.390625 54.6875 
L 27.390625 29.109375 
L 57.625 0 
L 45.90625 0 
L 18.109375 26.703125 
L 18.109375 0 
L 9.078125 0 
z
" id="DejaVuSans-107"/>
       <path d="M 52 44.1875 
Q 55.375 50.25 60.0625 53.125 
Q 64.75 56 71.09375 56 
Q 79.640625 56 84.28125 50.015625 
Q 88.921875 44.046875 88.921875 33.015625 
L 88.921875 0 
L 79.890625 0 
L 79.890625 32.71875 
Q 79.890625 40.578125 77.09375 44.375 
Q 74.3125 48.1875 68.609375 48.1875 
Q 61.625 48.1875 57.5625 43.546875 
Q 53.515625 38.921875 53.515625 30.90625 
L 53.515625 0 
L 44.484375 0 
L 44.484375 32.71875 
Q 44.484375 40.625 41.703125 44.40625 
Q 38.921875 48.1875 33.109375 48.1875 
Q 26.21875 48.1875 22.15625 43.53125 
Q 18.109375 38.875 18.109375 30.90625 
L 18.109375 0 
L 9.078125 0 
L 9.078125 54.6875 
L 18.109375 54.6875 
L 18.109375 46.1875 
Q 21.1875 51.21875 25.484375 53.609375 
Q 29.78125 56 35.6875 56 
Q 41.65625 56 45.828125 52.96875 
Q 50 49.953125 52 44.1875 
z
" id="DejaVuSans-109"/>
       <path d="M 25.390625 72.90625 
L 33.6875 72.90625 
L 8.296875 -9.28125 
L 0 -9.28125 
z
" id="DejaVuSans-47"/>
       <path d="M 44.28125 53.078125 
L 44.28125 44.578125 
Q 40.484375 46.53125 36.375 47.5 
Q 32.28125 48.484375 27.875 48.484375 
Q 21.1875 48.484375 17.84375 46.4375 
Q 14.5 44.390625 14.5 40.28125 
Q 14.5 37.15625 16.890625 35.375 
Q 19.28125 33.59375 26.515625 31.984375 
L 29.59375 31.296875 
Q 39.15625 29.25 43.1875 25.515625 
Q 47.21875 21.78125 47.21875 15.09375 
Q 47.21875 7.46875 41.1875 3.015625 
Q 35.15625 -1.421875 24.609375 -1.421875 
Q 20.21875 -1.421875 15.453125 -0.5625 
Q 10.6875 0.296875 5.421875 2 
L 5.421875 11.28125 
Q 10.40625 8.6875 15.234375 7.390625 
Q 20.0625 6.109375 24.8125 6.109375 
Q 31.15625 6.109375 34.5625 8.28125 
Q 37.984375 10.453125 37.984375 14.40625 
Q 37.984375 18.0625 35.515625 20.015625 
Q 33.0625 21.96875 24.703125 23.78125 
L 21.578125 24.515625 
Q 13.234375 26.265625 9.515625 29.90625 
Q 5.8125 33.546875 5.8125 39.890625 
Q 5.8125 47.609375 11.28125 51.796875 
Q 16.75 56 26.8125 56 
Q 31.78125 56 36.171875 55.265625 
Q 40.578125 54.546875 44.28125 53.078125 
z
" id="DejaVuSans-115"/>
       <path d="M 30.421875 75.984375 
L 30.421875 -13.1875 
L 9.71875 -13.1875 
L 9.71875 -6.203125 
L 21.390625 -6.203125 
L 21.390625 69 
L 9.71875 69 
L 9.71875 75.984375 
z
" id="DejaVuSans-93"/>
      </defs>
      <use xlink:href="#DejaVuSans-86"/>
      <use x="60.658203" xlink:href="#DejaVuSans-101"/>
      <use x="122.181641" xlink:href="#DejaVuSans-108"/>
      <use x="149.964844" xlink:href="#DejaVuSans-111"/>
      <use x="211.146484" xlink:href="#DejaVuSans-99"/>
      <use x="266.126953" xlink:href="#DejaVuSans-105"/>
      <use x="293.910156" xlink:href="#DejaVuSans-116"/>
      <use x="333.119141" xlink:href="#DejaVuSans-121"/>
      <use x="392.298828" xlink:href="#DejaVuSans-32"/>
      <use x="424.085938" xlink:href="#DejaVuSans-91"/>
      <use x="463.099609" xlink:href="#DejaVuSans-107"/>
      <use x="521.009766" xlink:href="#DejaVuSans-109"/>
      <use x="618.421875" xlink:href="#DejaVuSans-47"/>
      <use x="652.113281" xlink:href="#DejaVuSans-115"/>
      <use x="704.212891" xlink:href="#DejaVuSans-93"/>
     </g>
    </g>
   </g>
   <g id="matplotlib.axis_2">
    <g id="ytick_1">
     <g id="line2d_8">
      <defs>
       <path d="M 0 0 
L -3.5 0 
" id="me442f33478" style="stroke:#000000;stroke-width:0.8;"/>
      </defs>
      <g>
       <use style="stroke:#000000;stroke-width:0.8;" x="26.925" xlink:href="#me442f33478" y="229.384421"/>
      </g>
     </g>
     <g id="text_9">
      <!-- 2 -->
      <g transform="translate(13.5625 233.18364)scale(0.1 -0.1)">
       <use xlink:href="#DejaVuSans-50"/>
      </g>
     </g>
    </g>
    <g id="ytick_2">
     <g id="line2d_9">
      <g>
       <use style="stroke:#000000;stroke-width:0.8;" x="26.925" xlink:href="#me442f33478" y="178.453895"/>
      </g>
     </g>
     <g id="text_10">
      <!-- 4 -->
      <g transform="translate(13.5625 182.253113)scale(0.1 -0.1)">
       <use xlink:href="#DejaVuSans-52"/>
      </g>
     </g>
    </g>
    <g id="ytick_3">
     <g id="line2d_10">
      <g>
       <use style="stroke:#000000;stroke-width:0.8;" x="26.925" xlink:href="#me442f33478" y="127.523368"/>
      </g>
     </g>
     <g id="text_11">
      <!-- 6 -->
      <g transform="translate(13.5625 131.322587)scale(0.1 -0.1)">
       <use xlink:href="#DejaVuSans-54"/>
      </g>
     </g>
    </g>
    <g id="ytick_4">
     <g id="line2d_11">
      <g>
       <use style="stroke:#000000;stroke-width:0.8;" x="26.925" xlink:href="#me442f33478" y="76.592842"/>
      </g>
     </g>
     <g id="text_12">
      <!-- 8 -->
      <g transform="translate(13.5625 80.392061)scale(0.1 -0.1)">
       <defs>
        <path d="M 31.78125 34.625 
Q 24.75 34.625 20.71875 30.859375 
Q 16.703125 27.09375 16.703125 20.515625 
Q 16.703125 13.921875 20.71875 10.15625 
Q 24.75 6.390625 31.78125 6.390625 
Q 38.8125 6.390625 42.859375 10.171875 
Q 46.921875 13.96875 46.921875 20.515625 
Q 46.921875 27.09375 42.890625 30.859375 
Q 38.875 34.625 31.78125 34.625 
z
M 21.921875 38.8125 
Q 15.578125 40.375 12.03125 44.71875 
Q 8.5 49.078125 8.5 55.328125 
Q 8.5 64.0625 14.71875 69.140625 
Q 20.953125 74.21875 31.78125 74.21875 
Q 42.671875 74.21875 48.875 69.140625 
Q 55.078125 64.0625 55.078125 55.328125 
Q 55.078125 49.078125 51.53125 44.71875 
Q 48 40.375 41.703125 38.8125 
Q 48.828125 37.15625 52.796875 32.3125 
Q 56.78125 27.484375 56.78125 20.515625 
Q 56.78125 9.90625 50.3125 4.234375 
Q 43.84375 -1.421875 31.78125 -1.421875 
Q 19.734375 -1.421875 13.25 4.234375 
Q 6.78125 9.90625 6.78125 20.515625 
Q 6.78125 27.484375 10.78125 32.3125 
Q 14.796875 37.15625 21.921875 38.8125 
z
M 18.3125 54.390625 
Q 18.3125 48.734375 21.84375 45.5625 
Q 25.390625 42.390625 31.78125 42.390625 
Q 38.140625 42.390625 41.71875 45.5625 
Q 45.3125 48.734375 45.3125 54.390625 
Q 45.3125 60.0625 41.71875 63.234375 
Q 38.140625 66.40625 31.78125 66.40625 
Q 25.390625 66.40625 21.84375 63.234375 
Q 18.3125 60.0625 18.3125 54.390625 
z
" id="DejaVuSans-56"/>
       </defs>
       <use xlink:href="#DejaVuSans-56"/>
      </g>
     </g>
    </g>
    <g id="ytick_5">
     <g id="line2d_12">
      <g>
       <use style="stroke:#000000;stroke-width:0.8;" x="26.925" xlink:href="#me442f33478" y="25.662316"/>
      </g>
     </g>
     <g id="text_13">
      <!-- 10 -->
      <g transform="translate(7.2 29.461535)scale(0.1 -0.1)">
       <defs>
        <path d="M 12.40625 8.296875 
L 28.515625 8.296875 
L 28.515625 63.921875 
L 10.984375 60.40625 
L 10.984375 69.390625 
L 28.421875 72.90625 
L 38.28125 72.90625 
L 38.28125 8.296875 
L 54.390625 8.296875 
L 54.390625 0 
L 12.40625 0 
z
" id="DejaVuSans-49"/>
       </defs>
       <use xlink:href="#DejaVuSans-49"/>
       <use x="63.623047" xlink:href="#DejaVuSans-48"/>
      </g>
     </g>
    </g>
   </g>
   <g id="patch_3">
    <path d="M 26.925 273.312 
L 26.925 7.2 
" style="fill:none;stroke:#000000;stroke-linecap:square;stroke-linejoin:miter;stroke-width:0.8;"/>
   </g>
   <g id="patch_4">
    <path d="M 384.045 273.312 
L 384.045 7.2 
" style="fill:none;stroke:#000000;stroke-linecap:square;stroke-linejoin:miter;stroke-width:0.8;"/>
   </g>
   <g id="patch_5">
    <path d="M 26.925 273.312 
L 384.045 273.312 
" style="fill:none;stroke:#000000;stroke-linecap:square;stroke-linejoin:miter;stroke-width:0.8;"/>
   </g>
   <g id="patch_6">
    <path d="M 26.925 7.2 
L 384.045 7.2 
" style="fill:none;stroke:#000000;stroke-linecap:square;stroke-linejoin:miter;stroke-width:0.8;"/>
   </g>
  </g>
 </g>
 <defs>
  <clipPath id="pbb80920815">
   <rect height="266.112" width="357.12" x="26.925" y="7.2"/>
  </clipPath>
 </defs>
</svg>
