<?xml version="1.0" encoding="utf-8" standalone="no"?>
<!DOCTYPE svg PUBLIC "-//W3C//DTD SVG 1.1//EN"
  "http://www.w3.org/Graphics/SVG/1.1/DTD/svg11.dtd">
<svg height="309.752625pt" version="1.1" viewBox="0 0 403.199688 309.752625" width="403.199688pt" xmlns="http://www.w3.org/2000/svg" xmlns:xlink="http://www.w3.org/1999/xlink">
 <metadata>
  <rdf:RDF xmlns:cc="http://creativecommons.org/ns#" xmlns:dc="http://purl.org/dc/elements/1.1/" xmlns:rdf="http://www.w3.org/1999/02/22-rdf-syntax-ns#">
   <cc:Work>
    <dc:type rdf:resource="http://purl.org/dc/dcmitype/StillImage"/>
    <dc:date>2021-09-16T10:39:09.059525</dc:date>
    <dc:format>image/svg+xml</dc:format>
    <dc:creator>
     <cc:Agent>
      <dc:title>Matplotlib v3.4.2, https://matplotlib.org/</dc:title>
     </cc:Agent>
    </dc:creator>
   </cc:Work>
  </rdf:RDF>
 </metadata>
 <defs>
  <style type="text/css">*{stroke-linecap:butt;stroke-linejoin:round;}</style>
 </defs>
 <g id="figure_1">
  <g id="patch_1">
   <path d="M 0 309.752625 
L 403.199688 309.752625 
L 403.199688 0 
L 0 0 
z
" style="fill:#ffffff;"/>
  </g>
  <g id="axes_1">
   <g id="patch_2">
    <path d="M 37.129688 275.062 
L 394.249688 275.062 
L 394.249688 8.95 
L 37.129688 8.95 
z
" style="fill:#ffffff;"/>
   </g>
   <g id="matplotlib.axis_1">
    <g id="xtick_1">
     <g id="line2d_1">
      <defs>
       <path d="M 0 1.75 
L 0 -1.75 
" id="m629b796131" style="stroke:#000000;stroke-width:0.8;"/>
      </defs>
      <g>
       <use style="stroke:#000000;stroke-width:0.8;" x="46.322837" xlink:href="#m629b796131" y="275.062"/>
      </g>
     </g>
     <g id="line2d_2">
      <g>
       <use style="stroke:#000000;stroke-width:0.8;" x="46.322837" xlink:href="#m629b796131" y="8.95"/>
      </g>
     </g>
     <g id="text_1">
      <!-- 0 -->
      <g transform="translate(43.54315 287.452625)scale(0.1 -0.1)">
       <defs>
        <path d="M 269 2227 
C 269 1229 358 -77 1779 -77 
C 3200 -77 3290 1229 3290 2227 
C 3290 3232 3200 4538 1779 4538 
C 358 4538 269 3232 269 2227 
z
M 845 2234 
C 845 2906 851 4058 1779 4058 
C 2707 4058 2714 2906 2714 2234 
C 2714 1555 2707 403 1779 403 
C 851 403 845 1555 845 2234 
z
" id="HelveticaNeue-Roman-30" transform="scale(0.015625)"/>
       </defs>
       <use xlink:href="#HelveticaNeue-Roman-30"/>
      </g>
     </g>
    </g>
    <g id="xtick_2">
     <g id="line2d_3">
      <g>
       <use style="stroke:#000000;stroke-width:0.8;" x="114.719734" xlink:href="#m629b796131" y="275.062"/>
      </g>
     </g>
     <g id="line2d_4">
      <g>
       <use style="stroke:#000000;stroke-width:0.8;" x="114.719734" xlink:href="#m629b796131" y="8.95"/>
      </g>
     </g>
     <g id="text_2">
      <!-- 1 -->
      <g transform="translate(111.940047 287.452625)scale(0.1 -0.1)">
       <defs>
        <path d="M 2278 4538 
L 1862 4538 
C 1741 3853 1178 3686 557 3686 
L 557 3251 
L 1734 3251 
L 1734 0 
L 2278 0 
L 2278 4538 
z
" id="HelveticaNeue-Roman-31" transform="scale(0.015625)"/>
       </defs>
       <use xlink:href="#HelveticaNeue-Roman-31"/>
      </g>
     </g>
    </g>
    <g id="xtick_3">
     <g id="line2d_5">
      <g>
       <use style="stroke:#000000;stroke-width:0.8;" x="183.116632" xlink:href="#m629b796131" y="275.062"/>
      </g>
     </g>
     <g id="line2d_6">
      <g>
       <use style="stroke:#000000;stroke-width:0.8;" x="183.116632" xlink:href="#m629b796131" y="8.95"/>
      </g>
     </g>
     <g id="text_3">
      <!-- 2 -->
      <g transform="translate(180.336944 287.452625)scale(0.1 -0.1)">
       <defs>
        <path d="M 826 2931 
C 806 3475 1075 4058 1709 4058 
C 2189 4058 2586 3731 2586 3238 
C 2586 2611 2195 2330 1427 1856 
C 787 1459 243 1075 154 0 
L 3117 0 
L 3117 480 
L 787 480 
C 896 1043 1491 1331 2061 1677 
C 2624 2029 3162 2432 3162 3232 
C 3162 4077 2534 4538 1741 4538 
C 781 4538 237 3853 282 2931 
L 826 2931 
z
" id="HelveticaNeue-Roman-32" transform="scale(0.015625)"/>
       </defs>
       <use xlink:href="#HelveticaNeue-Roman-32"/>
      </g>
     </g>
    </g>
    <g id="xtick_4">
     <g id="line2d_7">
      <g>
       <use style="stroke:#000000;stroke-width:0.8;" x="251.513529" xlink:href="#m629b796131" y="275.062"/>
      </g>
     </g>
     <g id="line2d_8">
      <g>
       <use style="stroke:#000000;stroke-width:0.8;" x="251.513529" xlink:href="#m629b796131" y="8.95"/>
      </g>
     </g>
     <g id="text_4">
      <!-- 3 -->
      <g transform="translate(248.733842 287.452625)scale(0.1 -0.1)">
       <defs>
        <path d="M 1395 2131 
C 1498 2144 1613 2150 1722 2150 
C 2259 2150 2688 1850 2688 1280 
C 2688 730 2234 403 1702 403 
C 1082 403 755 813 736 1402 
L 192 1402 
C 173 467 781 -77 1702 -77 
C 2554 -77 3264 397 3264 1306 
C 3264 1850 2995 2285 2445 2406 
L 2445 2419 
C 2790 2579 3072 2925 3072 3322 
C 3072 4160 2477 4538 1690 4538 
C 781 4538 320 3936 288 3072 
L 832 3072 
C 838 3603 1094 4058 1690 4058 
C 2150 4058 2496 3802 2496 3328 
C 2496 2835 2093 2586 1632 2586 
C 1555 2586 1478 2586 1395 2592 
L 1395 2131 
z
" id="HelveticaNeue-Roman-33" transform="scale(0.015625)"/>
       </defs>
       <use xlink:href="#HelveticaNeue-Roman-33"/>
      </g>
     </g>
    </g>
    <g id="xtick_5">
     <g id="line2d_9">
      <g>
       <use style="stroke:#000000;stroke-width:0.8;" x="319.910427" xlink:href="#m629b796131" y="275.062"/>
      </g>
     </g>
     <g id="line2d_10">
      <g>
       <use style="stroke:#000000;stroke-width:0.8;" x="319.910427" xlink:href="#m629b796131" y="8.95"/>
      </g>
     </g>
     <g id="text_5">
      <!-- 4 -->
      <g transform="translate(317.130739 287.452625)scale(0.1 -0.1)">
       <defs>
        <path d="M 2682 4538 
L 2246 4538 
L 179 1587 
L 179 1062 
L 2170 1062 
L 2170 0 
L 2682 0 
L 2682 1062 
L 3296 1062 
L 3296 1542 
L 2682 1542 
L 2682 4538 
z
M 646 1542 
L 2157 3763 
L 2170 3763 
L 2170 1542 
L 646 1542 
z
" id="HelveticaNeue-Roman-34" transform="scale(0.015625)"/>
       </defs>
       <use xlink:href="#HelveticaNeue-Roman-34"/>
      </g>
     </g>
    </g>
    <g id="xtick_6">
     <g id="line2d_11">
      <g>
       <use style="stroke:#000000;stroke-width:0.8;" x="388.307324" xlink:href="#m629b796131" y="275.062"/>
      </g>
     </g>
     <g id="line2d_12">
      <g>
       <use style="stroke:#000000;stroke-width:0.8;" x="388.307324" xlink:href="#m629b796131" y="8.95"/>
      </g>
     </g>
     <g id="text_6">
      <!-- 5 -->
      <g transform="translate(385.527636 287.452625)scale(0.1 -0.1)">
       <defs>
        <path d="M 3008 4461 
L 768 4461 
L 346 2106 
L 813 2080 
C 1024 2336 1312 2509 1658 2509 
C 2266 2509 2682 2080 2682 1478 
C 2682 755 2240 403 1722 403 
C 1178 403 800 755 768 1222 
L 224 1222 
C 243 403 883 -77 1670 -77 
C 2726 -77 3258 666 3258 1434 
C 3258 2470 2598 2989 1792 2989 
C 1485 2989 1146 2886 947 2662 
L 934 2675 
L 1178 3981 
L 3008 3981 
L 3008 4461 
z
" id="HelveticaNeue-Roman-35" transform="scale(0.015625)"/>
       </defs>
       <use xlink:href="#HelveticaNeue-Roman-35"/>
      </g>
     </g>
    </g>
    <g id="text_7">
     <!-- x -->
     <g transform="translate(213.099844 300.572937)scale(0.1 -0.1)">
      <defs>
       <path d="M 58 0 
L 717 0 
L 1638 1370 
L 2560 0 
L 3258 0 
L 1978 1786 
L 3117 3309 
L 2464 3309 
L 1638 2150 
L 845 3309 
L 147 3309 
L 1299 1741 
L 58 0 
z
" id="HelveticaNeue-Roman-78" transform="scale(0.015625)"/>
      </defs>
      <use xlink:href="#HelveticaNeue-Roman-78"/>
     </g>
    </g>
   </g>
   <g id="matplotlib.axis_2">
    <g id="ytick_1">
     <g id="line2d_13">
      <defs>
       <path d="M 1.75 0 
L -1.75 -0 
" id="mbd2285020a" style="stroke:#000000;stroke-width:0.8;"/>
      </defs>
      <g>
       <use style="stroke:#000000;stroke-width:0.8;" x="37.129688" xlink:href="#mbd2285020a" y="256.757639"/>
      </g>
     </g>
     <g id="line2d_14">
      <g>
       <use style="stroke:#000000;stroke-width:0.8;" x="394.249688" xlink:href="#mbd2285020a" y="256.757639"/>
      </g>
     </g>
     <g id="text_8">
      <!-- −2 -->
      <g transform="translate(20.320312 260.327952)scale(0.1 -0.1)">
       <defs>
        <path d="M 307 1402 
L 3533 1402 
L 3533 1837 
L 307 1837 
L 307 1402 
z
" id="HelveticaNeue-Roman-2212" transform="scale(0.015625)"/>
       </defs>
       <use xlink:href="#HelveticaNeue-Roman-2212"/>
       <use x="59.999985" xlink:href="#HelveticaNeue-Roman-32"/>
      </g>
     </g>
    </g>
    <g id="ytick_2">
     <g id="line2d_15">
      <g>
       <use style="stroke:#000000;stroke-width:0.8;" x="37.129688" xlink:href="#mbd2285020a" y="218.825841"/>
      </g>
     </g>
     <g id="line2d_16">
      <g>
       <use style="stroke:#000000;stroke-width:0.8;" x="394.249688" xlink:href="#mbd2285020a" y="218.825841"/>
      </g>
     </g>
     <g id="text_9">
      <!-- −1 -->
      <g transform="translate(20.320312 222.396154)scale(0.1 -0.1)">
       <use xlink:href="#HelveticaNeue-Roman-2212"/>
       <use x="59.999985" xlink:href="#HelveticaNeue-Roman-31"/>
      </g>
     </g>
    </g>
    <g id="ytick_3">
     <g id="line2d_17">
      <g>
       <use style="stroke:#000000;stroke-width:0.8;" x="37.129688" xlink:href="#mbd2285020a" y="180.894043"/>
      </g>
     </g>
     <g id="line2d_18">
      <g>
       <use style="stroke:#000000;stroke-width:0.8;" x="394.249688" xlink:href="#mbd2285020a" y="180.894043"/>
      </g>
     </g>
     <g id="text_10">
      <!-- 0 -->
      <g transform="translate(26.320313 184.464355)scale(0.1 -0.1)">
       <use xlink:href="#HelveticaNeue-Roman-30"/>
      </g>
     </g>
    </g>
    <g id="ytick_4">
     <g id="line2d_19">
      <g>
       <use style="stroke:#000000;stroke-width:0.8;" x="37.129688" xlink:href="#mbd2285020a" y="142.962245"/>
      </g>
     </g>
     <g id="line2d_20">
      <g>
       <use style="stroke:#000000;stroke-width:0.8;" x="394.249688" xlink:href="#mbd2285020a" y="142.962245"/>
      </g>
     </g>
     <g id="text_11">
      <!-- 1 -->
      <g transform="translate(26.320313 146.532557)scale(0.1 -0.1)">
       <use xlink:href="#HelveticaNeue-Roman-31"/>
      </g>
     </g>
    </g>
    <g id="ytick_5">
     <g id="line2d_21">
      <g>
       <use style="stroke:#000000;stroke-width:0.8;" x="37.129688" xlink:href="#mbd2285020a" y="105.030447"/>
      </g>
     </g>
     <g id="line2d_22">
      <g>
       <use style="stroke:#000000;stroke-width:0.8;" x="394.249688" xlink:href="#mbd2285020a" y="105.030447"/>
      </g>
     </g>
     <g id="text_12">
      <!-- 2 -->
      <g transform="translate(26.320313 108.600759)scale(0.1 -0.1)">
       <use xlink:href="#HelveticaNeue-Roman-32"/>
      </g>
     </g>
    </g>
    <g id="ytick_6">
     <g id="line2d_23">
      <g>
       <use style="stroke:#000000;stroke-width:0.8;" x="37.129688" xlink:href="#mbd2285020a" y="67.098649"/>
      </g>
     </g>
     <g id="line2d_24">
      <g>
       <use style="stroke:#000000;stroke-width:0.8;" x="394.249688" xlink:href="#mbd2285020a" y="67.098649"/>
      </g>
     </g>
     <g id="text_13">
      <!-- 3 -->
      <g transform="translate(26.320313 70.668961)scale(0.1 -0.1)">
       <use xlink:href="#HelveticaNeue-Roman-33"/>
      </g>
     </g>
    </g>
    <g id="ytick_7">
     <g id="line2d_25">
      <g>
       <use style="stroke:#000000;stroke-width:0.8;" x="37.129688" xlink:href="#mbd2285020a" y="29.166851"/>
      </g>
     </g>
     <g id="line2d_26">
      <g>
       <use style="stroke:#000000;stroke-width:0.8;" x="394.249688" xlink:href="#mbd2285020a" y="29.166851"/>
      </g>
     </g>
     <g id="text_14">
      <!-- 4 -->
      <g transform="translate(26.320313 32.737163)scale(0.1 -0.1)">
       <use xlink:href="#HelveticaNeue-Roman-34"/>
      </g>
     </g>
    </g>
    <g id="text_15">
     <!-- y -->
     <g transform="translate(14.25 144.506)rotate(-90)scale(0.1 -0.1)">
      <defs>
       <path d="M 3149 3309 
L 2573 3309 
L 1645 602 
L 1632 602 
L 666 3309 
L 51 3309 
L 1363 19 
L 1139 -544 
C 1037 -736 915 -845 691 -845 
C 582 -845 474 -800 371 -768 
L 371 -1267 
C 493 -1312 621 -1325 749 -1325 
C 1235 -1325 1459 -1088 1709 -442 
L 3149 3309 
z
" id="HelveticaNeue-Roman-79" transform="scale(0.015625)"/>
      </defs>
      <use xlink:href="#HelveticaNeue-Roman-79"/>
     </g>
    </g>
   </g>
   <g id="LineCollection_1">
    <path clip-path="url(#pf7ec6596f8)" d="M 174.409747 172.956164 
L 174.409747 97.092568 
" style="fill:none;stroke:#008fd5;stroke-width:1.5;"/>
    <path clip-path="url(#pf7ec6596f8)" d="M 371.452381 167.522907 
L 371.452381 91.65931 
" style="fill:none;stroke:#008fd5;stroke-width:1.5;"/>
    <path clip-path="url(#pf7ec6596f8)" d="M 296.65341 223.470323 
L 296.65341 147.606726 
" style="fill:none;stroke:#008fd5;stroke-width:1.5;"/>
    <path clip-path="url(#pf7ec6596f8)" d="M 251.054752 262.966 
L 251.054752 187.102404 
" style="fill:none;stroke:#008fd5;stroke-width:1.5;"/>
    <path clip-path="url(#pf7ec6596f8)" d="M 99.678792 165.232339 
L 99.678792 89.368743 
" style="fill:none;stroke:#008fd5;stroke-width:1.5;"/>
    <path clip-path="url(#pf7ec6596f8)" d="M 99.670543 173.757119 
L 99.670543 97.893523 
" style="fill:none;stroke:#008fd5;stroke-width:1.5;"/>
    <path clip-path="url(#pf7ec6596f8)" d="M 66.186531 176.417171 
L 66.186531 100.553575 
" style="fill:none;stroke:#008fd5;stroke-width:1.5;"/>
    <path clip-path="url(#pf7ec6596f8)" d="M 342.541642 202.947629 
L 342.541642 127.084033 
" style="fill:none;stroke:#008fd5;stroke-width:1.5;"/>
    <path clip-path="url(#pf7ec6596f8)" d="M 251.894846 238.073455 
L 251.894846 162.209859 
" style="fill:none;stroke:#008fd5;stroke-width:1.5;"/>
    <path clip-path="url(#pf7ec6596f8)" d="M 288.472674 168.227022 
L 288.472674 92.363426 
" style="fill:none;stroke:#008fd5;stroke-width:1.5;"/>
    <path clip-path="url(#pf7ec6596f8)" d="M 53.362415 189.706082 
L 53.362415 113.842486 
" style="fill:none;stroke:#008fd5;stroke-width:1.5;"/>
    <path clip-path="url(#pf7ec6596f8)" d="M 378.01696 216.500232 
L 378.01696 140.636636 
" style="fill:none;stroke:#008fd5;stroke-width:1.5;"/>
    <path clip-path="url(#pf7ec6596f8)" d="M 331.005306 138.230622 
L 331.005306 62.367026 
" style="fill:none;stroke:#008fd5;stroke-width:1.5;"/>
    <path clip-path="url(#pf7ec6596f8)" d="M 118.939519 189.025183 
L 118.939519 113.161587 
" style="fill:none;stroke:#008fd5;stroke-width:1.5;"/>
    <path clip-path="url(#pf7ec6596f8)" d="M 108.504155 240.171517 
L 108.504155 164.307921 
" style="fill:none;stroke:#008fd5;stroke-width:1.5;"/>
    <path clip-path="url(#pf7ec6596f8)" d="M 109.044334 170.729789 
L 109.044334 94.866193 
" style="fill:none;stroke:#008fd5;stroke-width:1.5;"/>
    <path clip-path="url(#pf7ec6596f8)" d="M 150.368964 246.34894 
L 150.368964 170.485344 
" style="fill:none;stroke:#008fd5;stroke-width:1.5;"/>
    <path clip-path="url(#pf7ec6596f8)" d="M 225.781396 178.94808 
L 225.781396 103.084484 
" style="fill:none;stroke:#008fd5;stroke-width:1.5;"/>
    <path clip-path="url(#pf7ec6596f8)" d="M 194.041333 133.365774 
L 194.041333 57.502178 
" style="fill:none;stroke:#008fd5;stroke-width:1.5;"/>
    <path clip-path="url(#pf7ec6596f8)" d="M 145.918685 244.09324 
L 145.918685 168.229644 
" style="fill:none;stroke:#008fd5;stroke-width:1.5;"/>
    <path clip-path="url(#pf7ec6596f8)" d="M 255.567035 172.663631 
L 255.567035 96.800034 
" style="fill:none;stroke:#008fd5;stroke-width:1.5;"/>
    <path clip-path="url(#pf7ec6596f8)" d="M 94.027573 164.473702 
L 94.027573 88.610106 
" style="fill:none;stroke:#008fd5;stroke-width:1.5;"/>
    <path clip-path="url(#pf7ec6596f8)" d="M 146.231775 181.56461 
L 146.231775 105.701014 
" style="fill:none;stroke:#008fd5;stroke-width:1.5;"/>
    <path clip-path="url(#pf7ec6596f8)" d="M 171.612904 113.545948 
L 171.612904 37.682351 
" style="fill:none;stroke:#008fd5;stroke-width:1.5;"/>
    <path clip-path="url(#pf7ec6596f8)" d="M 202.291697 192.065384 
L 202.291697 116.201788 
" style="fill:none;stroke:#008fd5;stroke-width:1.5;"/>
    <path clip-path="url(#pf7ec6596f8)" d="M 314.840835 219.202234 
L 314.840835 143.338638 
" style="fill:none;stroke:#008fd5;stroke-width:1.5;"/>
    <path clip-path="url(#pf7ec6596f8)" d="M 114.608173 235.998321 
L 114.608173 160.134725 
" style="fill:none;stroke:#008fd5;stroke-width:1.5;"/>
    <path clip-path="url(#pf7ec6596f8)" d="M 222.183038 236.076059 
L 222.183038 160.212463 
" style="fill:none;stroke:#008fd5;stroke-width:1.5;"/>
    <path clip-path="url(#pf7ec6596f8)" d="M 248.919429 217.136526 
L 248.919429 141.272929 
" style="fill:none;stroke:#008fd5;stroke-width:1.5;"/>
    <path clip-path="url(#pf7ec6596f8)" d="M 62.208158 177.343231 
L 62.208158 101.479635 
" style="fill:none;stroke:#008fd5;stroke-width:1.5;"/>
    <path clip-path="url(#pf7ec6596f8)" d="M 254.093752 200.026995 
L 254.093752 124.163399 
" style="fill:none;stroke:#008fd5;stroke-width:1.5;"/>
    <path clip-path="url(#pf7ec6596f8)" d="M 104.639442 159.031904 
L 104.639442 83.168307 
" style="fill:none;stroke:#008fd5;stroke-width:1.5;"/>
    <path clip-path="url(#pf7ec6596f8)" d="M 68.569473 183.077836 
L 68.569473 107.21424 
" style="fill:none;stroke:#008fd5;stroke-width:1.5;"/>
    <path clip-path="url(#pf7ec6596f8)" d="M 370.826971 142.796765 
L 370.826971 66.933169 
" style="fill:none;stroke:#008fd5;stroke-width:1.5;"/>
    <path clip-path="url(#pf7ec6596f8)" d="M 376.554012 201.124385 
L 376.554012 125.260788 
" style="fill:none;stroke:#008fd5;stroke-width:1.5;"/>
    <path clip-path="url(#pf7ec6596f8)" d="M 322.782189 96.909596 
L 322.782189 21.046 
" style="fill:none;stroke:#008fd5;stroke-width:1.5;"/>
    <path clip-path="url(#pf7ec6596f8)" d="M 150.496021 185.527572 
L 150.496021 109.663976 
" style="fill:none;stroke:#008fd5;stroke-width:1.5;"/>
    <path clip-path="url(#pf7ec6596f8)" d="M 79.725185 209.159617 
L 79.725185 133.296021 
" style="fill:none;stroke:#008fd5;stroke-width:1.5;"/>
    <path clip-path="url(#pf7ec6596f8)" d="M 280.319918 222.651396 
L 280.319918 146.7878 
" style="fill:none;stroke:#008fd5;stroke-width:1.5;"/>
    <path clip-path="url(#pf7ec6596f8)" d="M 196.848162 160.39938 
L 196.848162 84.535784 
" style="fill:none;stroke:#008fd5;stroke-width:1.5;"/>
    <path clip-path="url(#pf7ec6596f8)" d="M 88.05802 185.433079 
L 88.05802 109.569483 
" style="fill:none;stroke:#008fd5;stroke-width:1.5;"/>
    <path clip-path="url(#pf7ec6596f8)" d="M 215.665659 170.490442 
L 215.665659 94.626845 
" style="fill:none;stroke:#008fd5;stroke-width:1.5;"/>
    <path clip-path="url(#pf7ec6596f8)" d="M 58.083178 177.215512 
L 58.083178 101.351916 
" style="fill:none;stroke:#008fd5;stroke-width:1.5;"/>
    <path clip-path="url(#pf7ec6596f8)" d="M 357.296308 214.750149 
L 357.296308 138.886553 
" style="fill:none;stroke:#008fd5;stroke-width:1.5;"/>
    <path clip-path="url(#pf7ec6596f8)" d="M 134.821576 248.575377 
L 134.821576 172.711781 
" style="fill:none;stroke:#008fd5;stroke-width:1.5;"/>
    <path clip-path="url(#pf7ec6596f8)" d="M 272.895181 246.988177 
L 272.895181 171.124581 
" style="fill:none;stroke:#008fd5;stroke-width:1.5;"/>
    <path clip-path="url(#pf7ec6596f8)" d="M 152.923189 223.822132 
L 152.923189 147.958536 
" style="fill:none;stroke:#008fd5;stroke-width:1.5;"/>
    <path clip-path="url(#pf7ec6596f8)" d="M 224.178032 174.743947 
L 224.178032 98.880351 
" style="fill:none;stroke:#008fd5;stroke-width:1.5;"/>
    <path clip-path="url(#pf7ec6596f8)" d="M 233.289271 206.325418 
L 233.289271 130.461822 
" style="fill:none;stroke:#008fd5;stroke-width:1.5;"/>
    <path clip-path="url(#pf7ec6596f8)" d="M 109.540193 243.485234 
L 109.540193 167.621638 
" style="fill:none;stroke:#008fd5;stroke-width:1.5;"/>
   </g>
   <g id="line2d_27">
    <defs>
     <path d="M 2 0 
L -2 -0 
" id="me671b87b18" style="stroke:#008fd5;"/>
    </defs>
    <g clip-path="url(#pf7ec6596f8)">
     <use style="fill:#008fd5;stroke:#008fd5;" x="174.409747" xlink:href="#me671b87b18" y="172.956164"/>
     <use style="fill:#008fd5;stroke:#008fd5;" x="371.452381" xlink:href="#me671b87b18" y="167.522907"/>
     <use style="fill:#008fd5;stroke:#008fd5;" x="296.65341" xlink:href="#me671b87b18" y="223.470323"/>
     <use style="fill:#008fd5;stroke:#008fd5;" x="251.054752" xlink:href="#me671b87b18" y="262.966"/>
     <use style="fill:#008fd5;stroke:#008fd5;" x="99.678792" xlink:href="#me671b87b18" y="165.232339"/>
     <use style="fill:#008fd5;stroke:#008fd5;" x="99.670543" xlink:href="#me671b87b18" y="173.757119"/>
     <use style="fill:#008fd5;stroke:#008fd5;" x="66.186531" xlink:href="#me671b87b18" y="176.417171"/>
     <use style="fill:#008fd5;stroke:#008fd5;" x="342.541642" xlink:href="#me671b87b18" y="202.947629"/>
     <use style="fill:#008fd5;stroke:#008fd5;" x="251.894846" xlink:href="#me671b87b18" y="238.073455"/>
     <use style="fill:#008fd5;stroke:#008fd5;" x="288.472674" xlink:href="#me671b87b18" y="168.227022"/>
     <use style="fill:#008fd5;stroke:#008fd5;" x="53.362415" xlink:href="#me671b87b18" y="189.706082"/>
     <use style="fill:#008fd5;stroke:#008fd5;" x="378.01696" xlink:href="#me671b87b18" y="216.500232"/>
     <use style="fill:#008fd5;stroke:#008fd5;" x="331.005306" xlink:href="#me671b87b18" y="138.230622"/>
     <use style="fill:#008fd5;stroke:#008fd5;" x="118.939519" xlink:href="#me671b87b18" y="189.025183"/>
     <use style="fill:#008fd5;stroke:#008fd5;" x="108.504155" xlink:href="#me671b87b18" y="240.171517"/>
     <use style="fill:#008fd5;stroke:#008fd5;" x="109.044334" xlink:href="#me671b87b18" y="170.729789"/>
     <use style="fill:#008fd5;stroke:#008fd5;" x="150.368964" xlink:href="#me671b87b18" y="246.34894"/>
     <use style="fill:#008fd5;stroke:#008fd5;" x="225.781396" xlink:href="#me671b87b18" y="178.94808"/>
     <use style="fill:#008fd5;stroke:#008fd5;" x="194.041333" xlink:href="#me671b87b18" y="133.365774"/>
     <use style="fill:#008fd5;stroke:#008fd5;" x="145.918685" xlink:href="#me671b87b18" y="244.09324"/>
     <use style="fill:#008fd5;stroke:#008fd5;" x="255.567035" xlink:href="#me671b87b18" y="172.663631"/>
     <use style="fill:#008fd5;stroke:#008fd5;" x="94.027573" xlink:href="#me671b87b18" y="164.473702"/>
     <use style="fill:#008fd5;stroke:#008fd5;" x="146.231775" xlink:href="#me671b87b18" y="181.56461"/>
     <use style="fill:#008fd5;stroke:#008fd5;" x="171.612904" xlink:href="#me671b87b18" y="113.545948"/>
     <use style="fill:#008fd5;stroke:#008fd5;" x="202.291697" xlink:href="#me671b87b18" y="192.065384"/>
     <use style="fill:#008fd5;stroke:#008fd5;" x="314.840835" xlink:href="#me671b87b18" y="219.202234"/>
     <use style="fill:#008fd5;stroke:#008fd5;" x="114.608173" xlink:href="#me671b87b18" y="235.998321"/>
     <use style="fill:#008fd5;stroke:#008fd5;" x="222.183038" xlink:href="#me671b87b18" y="236.076059"/>
     <use style="fill:#008fd5;stroke:#008fd5;" x="248.919429" xlink:href="#me671b87b18" y="217.136526"/>
     <use style="fill:#008fd5;stroke:#008fd5;" x="62.208158" xlink:href="#me671b87b18" y="177.343231"/>
     <use style="fill:#008fd5;stroke:#008fd5;" x="254.093752" xlink:href="#me671b87b18" y="200.026995"/>
     <use style="fill:#008fd5;stroke:#008fd5;" x="104.639442" xlink:href="#me671b87b18" y="159.031904"/>
     <use style="fill:#008fd5;stroke:#008fd5;" x="68.569473" xlink:href="#me671b87b18" y="183.077836"/>
     <use style="fill:#008fd5;stroke:#008fd5;" x="370.826971" xlink:href="#me671b87b18" y="142.796765"/>
     <use style="fill:#008fd5;stroke:#008fd5;" x="376.554012" xlink:href="#me671b87b18" y="201.124385"/>
     <use style="fill:#008fd5;stroke:#008fd5;" x="322.782189" xlink:href="#me671b87b18" y="96.909596"/>
     <use style="fill:#008fd5;stroke:#008fd5;" x="150.496021" xlink:href="#me671b87b18" y="185.527572"/>
     <use style="fill:#008fd5;stroke:#008fd5;" x="79.725185" xlink:href="#me671b87b18" y="209.159617"/>
     <use style="fill:#008fd5;stroke:#008fd5;" x="280.319918" xlink:href="#me671b87b18" y="222.651396"/>
     <use style="fill:#008fd5;stroke:#008fd5;" x="196.848162" xlink:href="#me671b87b18" y="160.39938"/>
     <use style="fill:#008fd5;stroke:#008fd5;" x="88.05802" xlink:href="#me671b87b18" y="185.433079"/>
     <use style="fill:#008fd5;stroke:#008fd5;" x="215.665659" xlink:href="#me671b87b18" y="170.490442"/>
     <use style="fill:#008fd5;stroke:#008fd5;" x="58.083178" xlink:href="#me671b87b18" y="177.215512"/>
     <use style="fill:#008fd5;stroke:#008fd5;" x="357.296308" xlink:href="#me671b87b18" y="214.750149"/>
     <use style="fill:#008fd5;stroke:#008fd5;" x="134.821576" xlink:href="#me671b87b18" y="248.575377"/>
     <use style="fill:#008fd5;stroke:#008fd5;" x="272.895181" xlink:href="#me671b87b18" y="246.988177"/>
     <use style="fill:#008fd5;stroke:#008fd5;" x="152.923189" xlink:href="#me671b87b18" y="223.822132"/>
     <use style="fill:#008fd5;stroke:#008fd5;" x="224.178032" xlink:href="#me671b87b18" y="174.743947"/>
     <use style="fill:#008fd5;stroke:#008fd5;" x="233.289271" xlink:href="#me671b87b18" y="206.325418"/>
     <use style="fill:#008fd5;stroke:#008fd5;" x="109.540193" xlink:href="#me671b87b18" y="243.485234"/>
    </g>
   </g>
   <g id="line2d_28">
    <g clip-path="url(#pf7ec6596f8)">
     <use style="fill:#008fd5;stroke:#008fd5;" x="174.409747" xlink:href="#me671b87b18" y="97.092568"/>
     <use style="fill:#008fd5;stroke:#008fd5;" x="371.452381" xlink:href="#me671b87b18" y="91.65931"/>
     <use style="fill:#008fd5;stroke:#008fd5;" x="296.65341" xlink:href="#me671b87b18" y="147.606726"/>
     <use style="fill:#008fd5;stroke:#008fd5;" x="251.054752" xlink:href="#me671b87b18" y="187.102404"/>
     <use style="fill:#008fd5;stroke:#008fd5;" x="99.678792" xlink:href="#me671b87b18" y="89.368743"/>
     <use style="fill:#008fd5;stroke:#008fd5;" x="99.670543" xlink:href="#me671b87b18" y="97.893523"/>
     <use style="fill:#008fd5;stroke:#008fd5;" x="66.186531" xlink:href="#me671b87b18" y="100.553575"/>
     <use style="fill:#008fd5;stroke:#008fd5;" x="342.541642" xlink:href="#me671b87b18" y="127.084033"/>
     <use style="fill:#008fd5;stroke:#008fd5;" x="251.894846" xlink:href="#me671b87b18" y="162.209859"/>
     <use style="fill:#008fd5;stroke:#008fd5;" x="288.472674" xlink:href="#me671b87b18" y="92.363426"/>
     <use style="fill:#008fd5;stroke:#008fd5;" x="53.362415" xlink:href="#me671b87b18" y="113.842486"/>
     <use style="fill:#008fd5;stroke:#008fd5;" x="378.01696" xlink:href="#me671b87b18" y="140.636636"/>
     <use style="fill:#008fd5;stroke:#008fd5;" x="331.005306" xlink:href="#me671b87b18" y="62.367026"/>
     <use style="fill:#008fd5;stroke:#008fd5;" x="118.939519" xlink:href="#me671b87b18" y="113.161587"/>
     <use style="fill:#008fd5;stroke:#008fd5;" x="108.504155" xlink:href="#me671b87b18" y="164.307921"/>
     <use style="fill:#008fd5;stroke:#008fd5;" x="109.044334" xlink:href="#me671b87b18" y="94.866193"/>
     <use style="fill:#008fd5;stroke:#008fd5;" x="150.368964" xlink:href="#me671b87b18" y="170.485344"/>
     <use style="fill:#008fd5;stroke:#008fd5;" x="225.781396" xlink:href="#me671b87b18" y="103.084484"/>
     <use style="fill:#008fd5;stroke:#008fd5;" x="194.041333" xlink:href="#me671b87b18" y="57.502178"/>
     <use style="fill:#008fd5;stroke:#008fd5;" x="145.918685" xlink:href="#me671b87b18" y="168.229644"/>
     <use style="fill:#008fd5;stroke:#008fd5;" x="255.567035" xlink:href="#me671b87b18" y="96.800034"/>
     <use style="fill:#008fd5;stroke:#008fd5;" x="94.027573" xlink:href="#me671b87b18" y="88.610106"/>
     <use style="fill:#008fd5;stroke:#008fd5;" x="146.231775" xlink:href="#me671b87b18" y="105.701014"/>
     <use style="fill:#008fd5;stroke:#008fd5;" x="171.612904" xlink:href="#me671b87b18" y="37.682351"/>
     <use style="fill:#008fd5;stroke:#008fd5;" x="202.291697" xlink:href="#me671b87b18" y="116.201788"/>
     <use style="fill:#008fd5;stroke:#008fd5;" x="314.840835" xlink:href="#me671b87b18" y="143.338638"/>
     <use style="fill:#008fd5;stroke:#008fd5;" x="114.608173" xlink:href="#me671b87b18" y="160.134725"/>
     <use style="fill:#008fd5;stroke:#008fd5;" x="222.183038" xlink:href="#me671b87b18" y="160.212463"/>
     <use style="fill:#008fd5;stroke:#008fd5;" x="248.919429" xlink:href="#me671b87b18" y="141.272929"/>
     <use style="fill:#008fd5;stroke:#008fd5;" x="62.208158" xlink:href="#me671b87b18" y="101.479635"/>
     <use style="fill:#008fd5;stroke:#008fd5;" x="254.093752" xlink:href="#me671b87b18" y="124.163399"/>
     <use style="fill:#008fd5;stroke:#008fd5;" x="104.639442" xlink:href="#me671b87b18" y="83.168307"/>
     <use style="fill:#008fd5;stroke:#008fd5;" x="68.569473" xlink:href="#me671b87b18" y="107.21424"/>
     <use style="fill:#008fd5;stroke:#008fd5;" x="370.826971" xlink:href="#me671b87b18" y="66.933169"/>
     <use style="fill:#008fd5;stroke:#008fd5;" x="376.554012" xlink:href="#me671b87b18" y="125.260788"/>
     <use style="fill:#008fd5;stroke:#008fd5;" x="322.782189" xlink:href="#me671b87b18" y="21.046"/>
     <use style="fill:#008fd5;stroke:#008fd5;" x="150.496021" xlink:href="#me671b87b18" y="109.663976"/>
     <use style="fill:#008fd5;stroke:#008fd5;" x="79.725185" xlink:href="#me671b87b18" y="133.296021"/>
     <use style="fill:#008fd5;stroke:#008fd5;" x="280.319918" xlink:href="#me671b87b18" y="146.7878"/>
     <use style="fill:#008fd5;stroke:#008fd5;" x="196.848162" xlink:href="#me671b87b18" y="84.535784"/>
     <use style="fill:#008fd5;stroke:#008fd5;" x="88.05802" xlink:href="#me671b87b18" y="109.569483"/>
     <use style="fill:#008fd5;stroke:#008fd5;" x="215.665659" xlink:href="#me671b87b18" y="94.626845"/>
     <use style="fill:#008fd5;stroke:#008fd5;" x="58.083178" xlink:href="#me671b87b18" y="101.351916"/>
     <use style="fill:#008fd5;stroke:#008fd5;" x="357.296308" xlink:href="#me671b87b18" y="138.886553"/>
     <use style="fill:#008fd5;stroke:#008fd5;" x="134.821576" xlink:href="#me671b87b18" y="172.711781"/>
     <use style="fill:#008fd5;stroke:#008fd5;" x="272.895181" xlink:href="#me671b87b18" y="171.124581"/>
     <use style="fill:#008fd5;stroke:#008fd5;" x="152.923189" xlink:href="#me671b87b18" y="147.958536"/>
     <use style="fill:#008fd5;stroke:#008fd5;" x="224.178032" xlink:href="#me671b87b18" y="98.880351"/>
     <use style="fill:#008fd5;stroke:#008fd5;" x="233.289271" xlink:href="#me671b87b18" y="130.461822"/>
     <use style="fill:#008fd5;stroke:#008fd5;" x="109.540193" xlink:href="#me671b87b18" y="167.621638"/>
    </g>
   </g>
   <g id="line2d_29">
    <defs>
     <path d="M 0 3 
C 0.795609 3 1.55874 2.683901 2.12132 2.12132 
C 2.683901 1.55874 3 0.795609 3 0 
C 3 -0.795609 2.683901 -1.55874 2.12132 -2.12132 
C 1.55874 -2.683901 0.795609 -3 0 -3 
C -0.795609 -3 -1.55874 -2.683901 -2.12132 -2.12132 
C -2.683901 -1.55874 -3 -0.795609 -3 0 
C -3 0.795609 -2.683901 1.55874 -2.12132 2.12132 
C -1.55874 2.683901 -0.795609 3 0 3 
z
" id="me74ebbb0b3" style="stroke:#008fd5;"/>
    </defs>
    <g clip-path="url(#pf7ec6596f8)">
     <use style="fill:#008fd5;stroke:#008fd5;" x="174.409747" xlink:href="#me74ebbb0b3" y="135.024366"/>
     <use style="fill:#008fd5;stroke:#008fd5;" x="371.452381" xlink:href="#me74ebbb0b3" y="129.591109"/>
     <use style="fill:#008fd5;stroke:#008fd5;" x="296.65341" xlink:href="#me74ebbb0b3" y="185.538524"/>
     <use style="fill:#008fd5;stroke:#008fd5;" x="251.054752" xlink:href="#me74ebbb0b3" y="225.034202"/>
     <use style="fill:#008fd5;stroke:#008fd5;" x="99.678792" xlink:href="#me74ebbb0b3" y="127.300541"/>
     <use style="fill:#008fd5;stroke:#008fd5;" x="99.670543" xlink:href="#me74ebbb0b3" y="135.825321"/>
     <use style="fill:#008fd5;stroke:#008fd5;" x="66.186531" xlink:href="#me74ebbb0b3" y="138.485373"/>
     <use style="fill:#008fd5;stroke:#008fd5;" x="342.541642" xlink:href="#me74ebbb0b3" y="165.015831"/>
     <use style="fill:#008fd5;stroke:#008fd5;" x="251.894846" xlink:href="#me74ebbb0b3" y="200.141657"/>
     <use style="fill:#008fd5;stroke:#008fd5;" x="288.472674" xlink:href="#me74ebbb0b3" y="130.295224"/>
     <use style="fill:#008fd5;stroke:#008fd5;" x="53.362415" xlink:href="#me74ebbb0b3" y="151.774284"/>
     <use style="fill:#008fd5;stroke:#008fd5;" x="378.01696" xlink:href="#me74ebbb0b3" y="178.568434"/>
     <use style="fill:#008fd5;stroke:#008fd5;" x="331.005306" xlink:href="#me74ebbb0b3" y="100.298824"/>
     <use style="fill:#008fd5;stroke:#008fd5;" x="118.939519" xlink:href="#me74ebbb0b3" y="151.093385"/>
     <use style="fill:#008fd5;stroke:#008fd5;" x="108.504155" xlink:href="#me74ebbb0b3" y="202.239719"/>
     <use style="fill:#008fd5;stroke:#008fd5;" x="109.044334" xlink:href="#me74ebbb0b3" y="132.797991"/>
     <use style="fill:#008fd5;stroke:#008fd5;" x="150.368964" xlink:href="#me74ebbb0b3" y="208.417142"/>
     <use style="fill:#008fd5;stroke:#008fd5;" x="225.781396" xlink:href="#me74ebbb0b3" y="141.016282"/>
     <use style="fill:#008fd5;stroke:#008fd5;" x="194.041333" xlink:href="#me74ebbb0b3" y="95.433976"/>
     <use style="fill:#008fd5;stroke:#008fd5;" x="145.918685" xlink:href="#me74ebbb0b3" y="206.161442"/>
     <use style="fill:#008fd5;stroke:#008fd5;" x="255.567035" xlink:href="#me74ebbb0b3" y="134.731833"/>
     <use style="fill:#008fd5;stroke:#008fd5;" x="94.027573" xlink:href="#me74ebbb0b3" y="126.541904"/>
     <use style="fill:#008fd5;stroke:#008fd5;" x="146.231775" xlink:href="#me74ebbb0b3" y="143.632812"/>
     <use style="fill:#008fd5;stroke:#008fd5;" x="171.612904" xlink:href="#me74ebbb0b3" y="75.61415"/>
     <use style="fill:#008fd5;stroke:#008fd5;" x="202.291697" xlink:href="#me74ebbb0b3" y="154.133586"/>
     <use style="fill:#008fd5;stroke:#008fd5;" x="314.840835" xlink:href="#me74ebbb0b3" y="181.270436"/>
     <use style="fill:#008fd5;stroke:#008fd5;" x="114.608173" xlink:href="#me74ebbb0b3" y="198.066523"/>
     <use style="fill:#008fd5;stroke:#008fd5;" x="222.183038" xlink:href="#me74ebbb0b3" y="198.144261"/>
     <use style="fill:#008fd5;stroke:#008fd5;" x="248.919429" xlink:href="#me74ebbb0b3" y="179.204728"/>
     <use style="fill:#008fd5;stroke:#008fd5;" x="62.208158" xlink:href="#me74ebbb0b3" y="139.411433"/>
     <use style="fill:#008fd5;stroke:#008fd5;" x="254.093752" xlink:href="#me74ebbb0b3" y="162.095197"/>
     <use style="fill:#008fd5;stroke:#008fd5;" x="104.639442" xlink:href="#me74ebbb0b3" y="121.100105"/>
     <use style="fill:#008fd5;stroke:#008fd5;" x="68.569473" xlink:href="#me74ebbb0b3" y="145.146038"/>
     <use style="fill:#008fd5;stroke:#008fd5;" x="370.826971" xlink:href="#me74ebbb0b3" y="104.864967"/>
     <use style="fill:#008fd5;stroke:#008fd5;" x="376.554012" xlink:href="#me74ebbb0b3" y="163.192587"/>
     <use style="fill:#008fd5;stroke:#008fd5;" x="322.782189" xlink:href="#me74ebbb0b3" y="58.977798"/>
     <use style="fill:#008fd5;stroke:#008fd5;" x="150.496021" xlink:href="#me74ebbb0b3" y="147.595774"/>
     <use style="fill:#008fd5;stroke:#008fd5;" x="79.725185" xlink:href="#me74ebbb0b3" y="171.227819"/>
     <use style="fill:#008fd5;stroke:#008fd5;" x="280.319918" xlink:href="#me74ebbb0b3" y="184.719598"/>
     <use style="fill:#008fd5;stroke:#008fd5;" x="196.848162" xlink:href="#me74ebbb0b3" y="122.467582"/>
     <use style="fill:#008fd5;stroke:#008fd5;" x="88.05802" xlink:href="#me74ebbb0b3" y="147.501281"/>
     <use style="fill:#008fd5;stroke:#008fd5;" x="215.665659" xlink:href="#me74ebbb0b3" y="132.558644"/>
     <use style="fill:#008fd5;stroke:#008fd5;" x="58.083178" xlink:href="#me74ebbb0b3" y="139.283714"/>
     <use style="fill:#008fd5;stroke:#008fd5;" x="357.296308" xlink:href="#me74ebbb0b3" y="176.818351"/>
     <use style="fill:#008fd5;stroke:#008fd5;" x="134.821576" xlink:href="#me74ebbb0b3" y="210.643579"/>
     <use style="fill:#008fd5;stroke:#008fd5;" x="272.895181" xlink:href="#me74ebbb0b3" y="209.056379"/>
     <use style="fill:#008fd5;stroke:#008fd5;" x="152.923189" xlink:href="#me74ebbb0b3" y="185.890334"/>
     <use style="fill:#008fd5;stroke:#008fd5;" x="224.178032" xlink:href="#me74ebbb0b3" y="136.812149"/>
     <use style="fill:#008fd5;stroke:#008fd5;" x="233.289271" xlink:href="#me74ebbb0b3" y="168.39362"/>
     <use style="fill:#008fd5;stroke:#008fd5;" x="109.540193" xlink:href="#me74ebbb0b3" y="205.553436"/>
    </g>
   </g>
   <g id="patch_3">
    <path d="M 37.129688 275.062 
L 37.129688 8.95 
" style="fill:none;stroke:#000000;stroke-linecap:square;stroke-linejoin:miter;stroke-width:0.8;"/>
   </g>
   <g id="patch_4">
    <path d="M 394.249688 275.062 
L 394.249688 8.95 
" style="fill:none;stroke:#000000;stroke-linecap:square;stroke-linejoin:miter;stroke-width:0.8;"/>
   </g>
   <g id="patch_5">
    <path d="M 37.129688 275.062 
L 394.249688 275.062 
" style="fill:none;stroke:#000000;stroke-linecap:square;stroke-linejoin:miter;stroke-width:0.8;"/>
   </g>
   <g id="patch_6">
    <path d="M 37.129688 8.95 
L 394.249688 8.95 
" style="fill:none;stroke:#000000;stroke-linecap:square;stroke-linejoin:miter;stroke-width:0.8;"/>
   </g>
  </g>
 </g>
 <defs>
  <clipPath id="pf7ec6596f8">
   <rect height="266.112" width="357.12" x="37.129688" y="8.95"/>
  </clipPath>
 </defs>
</svg>
