<?xml version="1.0" encoding="utf-8" standalone="no"?>
<!DOCTYPE svg PUBLIC "-//W3C//DTD SVG 1.1//EN"
  "http://www.w3.org/Graphics/SVG/1.1/DTD/svg11.dtd">
<svg xmlns:xlink="http://www.w3.org/1999/xlink" width="403.129375pt" height="309.612pt" viewBox="0 0 403.129375 309.612" xmlns="http://www.w3.org/2000/svg" version="1.1">
 <metadata>
  <rdf:RDF xmlns:dc="http://purl.org/dc/elements/1.1/" xmlns:cc="http://creativecommons.org/ns#" xmlns:rdf="http://www.w3.org/1999/02/22-rdf-syntax-ns#">
   <cc:Work>
    <dc:type rdf:resource="http://purl.org/dc/dcmitype/StillImage"/>
    <dc:date>2022-09-06T14:19:30.256504</dc:date>
    <dc:format>image/svg+xml</dc:format>
    <dc:creator>
     <cc:Agent>
      <dc:title>Matplotlib v3.5.1, https://matplotlib.org/</dc:title>
     </cc:Agent>
    </dc:creator>
   </cc:Work>
  </rdf:RDF>
 </metadata>
 <defs>
  <style type="text/css">*{stroke-linejoin: round; stroke-linecap: butt}</style>
 </defs>
 <g id="figure_1">
  <g id="patch_1">
   <path d="M 0 309.612 
L 403.129375 309.612 
L 403.129375 0 
L 0 0 
z
" style="fill: #ffffff"/>
  </g>
  <g id="axes_1">
   <g id="patch_2">
    <path d="M 37.059375 275.062 
L 394.179375 275.062 
L 394.179375 8.95 
L 37.059375 8.95 
z
" style="fill: #ffffff"/>
   </g>
   <g id="matplotlib.axis_1">
    <g id="xtick_1">
     <g id="line2d_1">
      <defs>
       <path id="m0a94505b83" d="M 0 1.75 
L 0 -1.75 
" style="stroke: #000000; stroke-width: 0.8"/>
      </defs>
      <g>
       <use xlink:href="#m0a94505b83" x="46.252525" y="275.062" style="stroke: #000000; stroke-width: 0.8"/>
      </g>
     </g>
     <g id="line2d_2">
      <g>
       <use xlink:href="#m0a94505b83" x="46.252525" y="8.95" style="stroke: #000000; stroke-width: 0.8"/>
      </g>
     </g>
     <g id="text_1">
      <!-- 0 -->
      <g transform="translate(43.472837 287.452625)scale(0.1 -0.1)">
       <defs>
        <path id="HelveticaNeue-Medium-30" d="M 1779 518 
C 1139 518 960 1306 960 2240 
C 960 3174 1139 3962 1779 3962 
C 2419 3962 2598 3174 2598 2240 
C 2598 1306 2419 518 1779 518 
z
M 1779 4570 
C 493 4570 230 3258 230 2240 
C 230 1222 493 -90 1779 -90 
C 3066 -90 3328 1222 3328 2240 
C 3328 3258 3066 4570 1779 4570 
z
" transform="scale(0.015625)"/>
       </defs>
       <use xlink:href="#HelveticaNeue-Medium-30"/>
      </g>
     </g>
    </g>
    <g id="xtick_2">
     <g id="line2d_3">
      <g>
       <use xlink:href="#m0a94505b83" x="114.649422" y="275.062" style="stroke: #000000; stroke-width: 0.8"/>
      </g>
     </g>
     <g id="line2d_4">
      <g>
       <use xlink:href="#m0a94505b83" x="114.649422" y="8.95" style="stroke: #000000; stroke-width: 0.8"/>
      </g>
     </g>
     <g id="text_2">
      <!-- 1 -->
      <g transform="translate(111.869734 287.452625)scale(0.1 -0.1)">
       <defs>
        <path id="HelveticaNeue-Medium-31" d="M 339 3162 
L 1440 3162 
L 1440 0 
L 2240 0 
L 2240 4480 
L 1645 4480 
C 1536 3942 954 3731 339 3738 
L 339 3162 
z
" transform="scale(0.015625)"/>
       </defs>
       <use xlink:href="#HelveticaNeue-Medium-31"/>
      </g>
     </g>
    </g>
    <g id="xtick_3">
     <g id="line2d_5">
      <g>
       <use xlink:href="#m0a94505b83" x="183.046319" y="275.062" style="stroke: #000000; stroke-width: 0.8"/>
      </g>
     </g>
     <g id="line2d_6">
      <g>
       <use xlink:href="#m0a94505b83" x="183.046319" y="8.95" style="stroke: #000000; stroke-width: 0.8"/>
      </g>
     </g>
     <g id="text_3">
      <!-- 2 -->
      <g transform="translate(180.266632 287.452625)scale(0.1 -0.1)">
       <defs>
        <path id="HelveticaNeue-Medium-32" d="M 3309 653 
L 1126 653 
C 1254 1050 1798 1325 2317 1683 
C 2829 2042 3315 2483 3315 3194 
C 3315 3770 2970 4570 1875 4570 
C 877 4570 333 3834 333 2842 
L 1062 2842 
C 1082 3469 1254 3962 1830 3962 
C 2458 3962 2592 3488 2586 3168 
C 2573 2470 1818 2118 1235 1696 
C 634 1293 256 736 250 0 
L 3309 0 
L 3309 653 
z
" transform="scale(0.015625)"/>
       </defs>
       <use xlink:href="#HelveticaNeue-Medium-32"/>
      </g>
     </g>
    </g>
    <g id="xtick_4">
     <g id="line2d_7">
      <g>
       <use xlink:href="#m0a94505b83" x="251.443217" y="275.062" style="stroke: #000000; stroke-width: 0.8"/>
      </g>
     </g>
     <g id="line2d_8">
      <g>
       <use xlink:href="#m0a94505b83" x="251.443217" y="8.95" style="stroke: #000000; stroke-width: 0.8"/>
      </g>
     </g>
     <g id="text_4">
      <!-- 3 -->
      <g transform="translate(248.663529 287.452625)scale(0.1 -0.1)">
       <defs>
        <path id="HelveticaNeue-Medium-33" d="M 1459 2080 
C 2035 2106 2630 2016 2630 1318 
C 2630 806 2259 518 1773 518 
C 1203 518 909 928 928 1472 
L 198 1472 
C 218 538 736 -90 1773 -90 
C 2630 -90 3360 435 3360 1280 
C 3360 1856 3053 2298 2547 2400 
L 2547 2413 
C 2976 2566 3181 2925 3181 3373 
C 3181 4166 2464 4570 1766 4570 
C 864 4570 320 3917 282 3046 
L 1011 3046 
C 998 3507 1248 3962 1754 3962 
C 2157 3962 2451 3706 2451 3328 
C 2451 2778 1946 2605 1459 2624 
L 1459 2080 
z
" transform="scale(0.015625)"/>
       </defs>
       <use xlink:href="#HelveticaNeue-Medium-33"/>
      </g>
     </g>
    </g>
    <g id="xtick_5">
     <g id="line2d_9">
      <g>
       <use xlink:href="#m0a94505b83" x="319.840114" y="275.062" style="stroke: #000000; stroke-width: 0.8"/>
      </g>
     </g>
     <g id="line2d_10">
      <g>
       <use xlink:href="#m0a94505b83" x="319.840114" y="8.95" style="stroke: #000000; stroke-width: 0.8"/>
      </g>
     </g>
     <g id="text_5">
      <!-- 4 -->
      <g transform="translate(317.060427 287.452625)scale(0.1 -0.1)">
       <defs>
        <path id="HelveticaNeue-Medium-34" d="M 3341 1638 
L 2765 1638 
L 2765 4480 
L 2074 4480 
L 154 1786 
L 154 1062 
L 2074 1062 
L 2074 0 
L 2765 0 
L 2765 1062 
L 3341 1062 
L 3341 1638 
z
M 2061 3610 
L 2074 3610 
L 2074 1638 
L 717 1638 
L 2061 3610 
z
" transform="scale(0.015625)"/>
       </defs>
       <use xlink:href="#HelveticaNeue-Medium-34"/>
      </g>
     </g>
    </g>
    <g id="xtick_6">
     <g id="line2d_11">
      <g>
       <use xlink:href="#m0a94505b83" x="388.237011" y="275.062" style="stroke: #000000; stroke-width: 0.8"/>
      </g>
     </g>
     <g id="line2d_12">
      <g>
       <use xlink:href="#m0a94505b83" x="388.237011" y="8.95" style="stroke: #000000; stroke-width: 0.8"/>
      </g>
     </g>
     <g id="text_6">
      <!-- 5 -->
      <g transform="translate(385.457324 287.452625)scale(0.1 -0.1)">
       <defs>
        <path id="HelveticaNeue-Medium-35" d="M 307 2029 
L 1037 2029 
C 1152 2342 1453 2438 1760 2438 
C 2349 2438 2611 1997 2611 1504 
C 2611 960 2400 518 1779 518 
C 1306 518 998 794 954 1274 
L 224 1274 
C 256 378 928 -90 1792 -90 
C 2893 -90 3341 800 3341 1517 
C 3341 2374 2829 3014 1939 3014 
C 1638 3014 1312 2893 1114 2675 
L 1101 2688 
L 1331 3827 
L 3104 3827 
L 3104 4480 
L 787 4480 
L 307 2029 
z
" transform="scale(0.015625)"/>
       </defs>
       <use xlink:href="#HelveticaNeue-Medium-35"/>
      </g>
     </g>
    </g>
    <g id="text_7">
     <!-- x -->
     <g transform="translate(212.934219 300.502625)scale(0.1 -0.1)">
      <defs>
       <path id="HelveticaNeue-Medium-78" d="M 26 0 
L 883 0 
L 1696 1222 
L 2534 0 
L 3411 0 
L 2144 1779 
L 3270 3309 
L 2426 3309 
L 1702 2291 
L 1011 3309 
L 128 3309 
L 1274 1741 
L 26 0 
z
" transform="scale(0.015625)"/>
      </defs>
      <use xlink:href="#HelveticaNeue-Medium-78"/>
     </g>
    </g>
   </g>
   <g id="matplotlib.axis_2">
    <g id="ytick_1">
     <g id="line2d_13">
      <defs>
       <path id="m94225c5adc" d="M 1.75 0 
L -1.75 -0 
" style="stroke: #000000; stroke-width: 0.8"/>
      </defs>
      <g>
       <use xlink:href="#m94225c5adc" x="37.059375" y="264.571505" style="stroke: #000000; stroke-width: 0.8"/>
      </g>
     </g>
     <g id="line2d_14">
      <g>
       <use xlink:href="#m94225c5adc" x="394.179375" y="264.571505" style="stroke: #000000; stroke-width: 0.8"/>
      </g>
     </g>
     <g id="text_8">
      <!-- −6 -->
      <g transform="translate(20.25 268.141818)scale(0.1 -0.1)">
       <defs>
        <path id="HelveticaNeue-Medium-2212" d="M 3533 1293 
L 3533 1946 
L 307 1946 
L 307 1293 
L 3533 1293 
z
" transform="scale(0.015625)"/>
        <path id="HelveticaNeue-Medium-36" d="M 1824 518 
C 1293 518 1018 966 1018 1453 
C 1018 1946 1293 2368 1824 2368 
C 2349 2368 2611 1933 2611 1453 
C 2611 973 2349 518 1824 518 
z
M 3258 3347 
C 3219 4077 2618 4570 1907 4570 
C 640 4570 218 3322 218 2253 
C 218 947 531 -90 1850 -90 
C 2746 -90 3341 570 3341 1440 
C 3341 2298 2816 2944 1926 2944 
C 1530 2944 1158 2765 960 2413 
L 947 2426 
C 992 3014 1082 3962 1875 3962 
C 2253 3962 2496 3712 2528 3347 
L 3258 3347 
z
" transform="scale(0.015625)"/>
       </defs>
       <use xlink:href="#HelveticaNeue-Medium-2212"/>
       <use xlink:href="#HelveticaNeue-Medium-36" x="59.999985"/>
      </g>
     </g>
    </g>
    <g id="ytick_2">
     <g id="line2d_15">
      <g>
       <use xlink:href="#m94225c5adc" x="37.059375" y="228.460866" style="stroke: #000000; stroke-width: 0.8"/>
      </g>
     </g>
     <g id="line2d_16">
      <g>
       <use xlink:href="#m94225c5adc" x="394.179375" y="228.460866" style="stroke: #000000; stroke-width: 0.8"/>
      </g>
     </g>
     <g id="text_9">
      <!-- −4 -->
      <g transform="translate(20.25 232.031178)scale(0.1 -0.1)">
       <use xlink:href="#HelveticaNeue-Medium-2212"/>
       <use xlink:href="#HelveticaNeue-Medium-34" x="59.999985"/>
      </g>
     </g>
    </g>
    <g id="ytick_3">
     <g id="line2d_17">
      <g>
       <use xlink:href="#m94225c5adc" x="37.059375" y="192.350226" style="stroke: #000000; stroke-width: 0.8"/>
      </g>
     </g>
     <g id="line2d_18">
      <g>
       <use xlink:href="#m94225c5adc" x="394.179375" y="192.350226" style="stroke: #000000; stroke-width: 0.8"/>
      </g>
     </g>
     <g id="text_10">
      <!-- −2 -->
      <g transform="translate(20.25 195.920539)scale(0.1 -0.1)">
       <use xlink:href="#HelveticaNeue-Medium-2212"/>
       <use xlink:href="#HelveticaNeue-Medium-32" x="59.999985"/>
      </g>
     </g>
    </g>
    <g id="ytick_4">
     <g id="line2d_19">
      <g>
       <use xlink:href="#m94225c5adc" x="37.059375" y="156.239587" style="stroke: #000000; stroke-width: 0.8"/>
      </g>
     </g>
     <g id="line2d_20">
      <g>
       <use xlink:href="#m94225c5adc" x="394.179375" y="156.239587" style="stroke: #000000; stroke-width: 0.8"/>
      </g>
     </g>
     <g id="text_11">
      <!-- 0 -->
      <g transform="translate(26.25 159.809899)scale(0.1 -0.1)">
       <use xlink:href="#HelveticaNeue-Medium-30"/>
      </g>
     </g>
    </g>
    <g id="ytick_5">
     <g id="line2d_21">
      <g>
       <use xlink:href="#m94225c5adc" x="37.059375" y="120.128947" style="stroke: #000000; stroke-width: 0.8"/>
      </g>
     </g>
     <g id="line2d_22">
      <g>
       <use xlink:href="#m94225c5adc" x="394.179375" y="120.128947" style="stroke: #000000; stroke-width: 0.8"/>
      </g>
     </g>
     <g id="text_12">
      <!-- 2 -->
      <g transform="translate(26.25 123.69926)scale(0.1 -0.1)">
       <use xlink:href="#HelveticaNeue-Medium-32"/>
      </g>
     </g>
    </g>
    <g id="ytick_6">
     <g id="line2d_23">
      <g>
       <use xlink:href="#m94225c5adc" x="37.059375" y="84.018308" style="stroke: #000000; stroke-width: 0.8"/>
      </g>
     </g>
     <g id="line2d_24">
      <g>
       <use xlink:href="#m94225c5adc" x="394.179375" y="84.018308" style="stroke: #000000; stroke-width: 0.8"/>
      </g>
     </g>
     <g id="text_13">
      <!-- 4 -->
      <g transform="translate(26.25 87.58862)scale(0.1 -0.1)">
       <use xlink:href="#HelveticaNeue-Medium-34"/>
      </g>
     </g>
    </g>
    <g id="ytick_7">
     <g id="line2d_25">
      <g>
       <use xlink:href="#m94225c5adc" x="37.059375" y="47.907668" style="stroke: #000000; stroke-width: 0.8"/>
      </g>
     </g>
     <g id="line2d_26">
      <g>
       <use xlink:href="#m94225c5adc" x="394.179375" y="47.907668" style="stroke: #000000; stroke-width: 0.8"/>
      </g>
     </g>
     <g id="text_14">
      <!-- 6 -->
      <g transform="translate(26.25 51.477981)scale(0.1 -0.1)">
       <use xlink:href="#HelveticaNeue-Medium-36"/>
      </g>
     </g>
    </g>
    <g id="ytick_8">
     <g id="line2d_27">
      <g>
       <use xlink:href="#m94225c5adc" x="37.059375" y="11.797029" style="stroke: #000000; stroke-width: 0.8"/>
      </g>
     </g>
     <g id="line2d_28">
      <g>
       <use xlink:href="#m94225c5adc" x="394.179375" y="11.797029" style="stroke: #000000; stroke-width: 0.8"/>
      </g>
     </g>
     <g id="text_15">
      <!-- 8 -->
      <g transform="translate(26.25 15.367341)scale(0.1 -0.1)">
       <defs>
        <path id="HelveticaNeue-Medium-38" d="M 1779 486 
C 1293 486 928 794 928 1318 
C 928 1811 1293 2106 1779 2106 
C 2266 2106 2630 1811 2630 1318 
C 2630 794 2266 486 1779 486 
z
M 1779 -90 
C 2688 -90 3360 442 3360 1318 
C 3360 1882 3040 2285 2541 2413 
L 2541 2426 
C 2944 2579 3174 2912 3174 3347 
C 3174 4109 2669 4570 1779 4570 
C 890 4570 384 4109 384 3347 
C 384 2912 614 2579 1018 2426 
L 1018 2413 
C 518 2285 198 1882 198 1318 
C 198 442 870 -90 1779 -90 
z
M 1779 3994 
C 2170 3994 2483 3750 2483 3309 
C 2483 2886 2182 2650 1779 2650 
C 1376 2650 1075 2886 1075 3309 
C 1075 3750 1389 3994 1779 3994 
z
" transform="scale(0.015625)"/>
       </defs>
       <use xlink:href="#HelveticaNeue-Medium-38"/>
      </g>
     </g>
    </g>
    <g id="text_16">
     <!-- y -->
     <g transform="translate(14.2 144.601312)rotate(-90)scale(0.1 -0.1)">
      <defs>
       <path id="HelveticaNeue-Medium-79" d="M 1274 13 
L 1190 -243 
C 1101 -525 1018 -704 678 -704 
C 563 -704 448 -678 333 -659 
L 333 -1274 
C 499 -1299 666 -1312 838 -1312 
C 1600 -1312 1773 -774 2010 -179 
L 3296 3309 
L 2534 3309 
L 1696 838 
L 1683 838 
L 819 3309 
L 19 3309 
L 1274 13 
z
" transform="scale(0.015625)"/>
      </defs>
      <use xlink:href="#HelveticaNeue-Medium-79"/>
     </g>
    </g>
   </g>
   <g id="LineCollection_1">
    <path d="M 174.339435 217.887539 
L 174.339435 181.7769 
" clip-path="url(#pc6200d18ec)" style="fill: none; stroke: #ffa500; stroke-width: 1.5"/>
    <path d="M 371.382069 173.163388 
L 371.382069 137.052749 
" clip-path="url(#pc6200d18ec)" style="fill: none; stroke: #ffa500; stroke-width: 1.5"/>
    <path d="M 296.583097 62.173028 
L 296.583097 26.062388 
" clip-path="url(#pc6200d18ec)" style="fill: none; stroke: #ffa500; stroke-width: 1.5"/>
    <path d="M 250.984439 183.099545 
L 250.984439 146.988906 
" clip-path="url(#pc6200d18ec)" style="fill: none; stroke: #ffa500; stroke-width: 1.5"/>
    <path d="M 99.608479 124.775255 
L 99.608479 88.664616 
" clip-path="url(#pc6200d18ec)" style="fill: none; stroke: #ffa500; stroke-width: 1.5"/>
    <path d="M 99.600231 111.083925 
L 99.600231 74.973286 
" clip-path="url(#pc6200d18ec)" style="fill: none; stroke: #ffa500; stroke-width: 1.5"/>
    <path d="M 66.116219 113.503272 
L 66.116219 77.392633 
" clip-path="url(#pc6200d18ec)" style="fill: none; stroke: #ffa500; stroke-width: 1.5"/>
    <path d="M 342.471329 131.042314 
L 342.471329 94.931675 
" clip-path="url(#pc6200d18ec)" style="fill: none; stroke: #ffa500; stroke-width: 1.5"/>
    <path d="M 251.824533 169.942612 
L 251.824533 133.831973 
" clip-path="url(#pc6200d18ec)" style="fill: none; stroke: #ffa500; stroke-width: 1.5"/>
    <path d="M 288.402362 101.879526 
L 288.402362 65.768887 
" clip-path="url(#pc6200d18ec)" style="fill: none; stroke: #ffa500; stroke-width: 1.5"/>
    <path d="M 53.292102 113.04649 
L 53.292102 76.935851 
" clip-path="url(#pc6200d18ec)" style="fill: none; stroke: #ffa500; stroke-width: 1.5"/>
    <path d="M 377.946648 192.246935 
L 377.946648 156.136296 
" clip-path="url(#pc6200d18ec)" style="fill: none; stroke: #ffa500; stroke-width: 1.5"/>
    <path d="M 330.934994 138.06575 
L 330.934994 101.95511 
" clip-path="url(#pc6200d18ec)" style="fill: none; stroke: #ffa500; stroke-width: 1.5"/>
    <path d="M 118.869206 73.956696 
L 118.869206 37.846057 
" clip-path="url(#pc6200d18ec)" style="fill: none; stroke: #ffa500; stroke-width: 1.5"/>
    <path d="M 108.433843 71.668211 
L 108.433843 35.557571 
" clip-path="url(#pc6200d18ec)" style="fill: none; stroke: #ffa500; stroke-width: 1.5"/>
    <path d="M 108.974022 73.019814 
L 108.974022 36.909174 
" clip-path="url(#pc6200d18ec)" style="fill: none; stroke: #ffa500; stroke-width: 1.5"/>
    <path d="M 150.298652 170.389445 
L 150.298652 134.278805 
" clip-path="url(#pc6200d18ec)" style="fill: none; stroke: #ffa500; stroke-width: 1.5"/>
    <path d="M 225.711084 201.404714 
L 225.711084 165.294074 
" clip-path="url(#pc6200d18ec)" style="fill: none; stroke: #ffa500; stroke-width: 1.5"/>
    <path d="M 193.97102 224.770656 
L 193.97102 188.660017 
" clip-path="url(#pc6200d18ec)" style="fill: none; stroke: #ffa500; stroke-width: 1.5"/>
    <path d="M 145.848373 120.4609 
L 145.848373 84.35026 
" clip-path="url(#pc6200d18ec)" style="fill: none; stroke: #ffa500; stroke-width: 1.5"/>
    <path d="M 255.496723 177.16905 
L 255.496723 141.05841 
" clip-path="url(#pc6200d18ec)" style="fill: none; stroke: #ffa500; stroke-width: 1.5"/>
    <path d="M 93.957261 105.468615 
L 93.957261 69.357976 
" clip-path="url(#pc6200d18ec)" style="fill: none; stroke: #ffa500; stroke-width: 1.5"/>
    <path d="M 146.161462 159.221745 
L 146.161462 123.111105 
" clip-path="url(#pc6200d18ec)" style="fill: none; stroke: #ffa500; stroke-width: 1.5"/>
    <path d="M 171.542592 247.826671 
L 171.542592 211.716032 
" clip-path="url(#pc6200d18ec)" style="fill: none; stroke: #ffa500; stroke-width: 1.5"/>
    <path d="M 202.221384 204.481094 
L 202.221384 168.370454 
" clip-path="url(#pc6200d18ec)" style="fill: none; stroke: #ffa500; stroke-width: 1.5"/>
    <path d="M 314.770523 57.156639 
L 314.770523 21.046 
" clip-path="url(#pc6200d18ec)" style="fill: none; stroke: #ffa500; stroke-width: 1.5"/>
    <path d="M 114.53786 87.414336 
L 114.53786 51.303697 
" clip-path="url(#pc6200d18ec)" style="fill: none; stroke: #ffa500; stroke-width: 1.5"/>
    <path d="M 222.112725 179.335781 
L 222.112725 143.225141 
" clip-path="url(#pc6200d18ec)" style="fill: none; stroke: #ffa500; stroke-width: 1.5"/>
    <path d="M 248.849117 174.607608 
L 248.849117 138.496969 
" clip-path="url(#pc6200d18ec)" style="fill: none; stroke: #ffa500; stroke-width: 1.5"/>
    <path d="M 62.137845 119.002417 
L 62.137845 82.891778 
" clip-path="url(#pc6200d18ec)" style="fill: none; stroke: #ffa500; stroke-width: 1.5"/>
    <path d="M 254.023439 165.248407 
L 254.023439 129.137768 
" clip-path="url(#pc6200d18ec)" style="fill: none; stroke: #ffa500; stroke-width: 1.5"/>
    <path d="M 104.56913 65.932195 
L 104.56913 29.821556 
" clip-path="url(#pc6200d18ec)" style="fill: none; stroke: #ffa500; stroke-width: 1.5"/>
    <path d="M 68.49916 105.212158 
L 68.49916 69.101518 
" clip-path="url(#pc6200d18ec)" style="fill: none; stroke: #ffa500; stroke-width: 1.5"/>
    <path d="M 370.756658 147.31763 
L 370.756658 111.206991 
" clip-path="url(#pc6200d18ec)" style="fill: none; stroke: #ffa500; stroke-width: 1.5"/>
    <path d="M 376.4837 230.285777 
L 376.4837 194.175138 
" clip-path="url(#pc6200d18ec)" style="fill: none; stroke: #ffa500; stroke-width: 1.5"/>
    <path d="M 322.711877 88.328759 
L 322.711877 52.218119 
" clip-path="url(#pc6200d18ec)" style="fill: none; stroke: #ffa500; stroke-width: 1.5"/>
    <path d="M 150.425708 154.166769 
L 150.425708 118.05613 
" clip-path="url(#pc6200d18ec)" style="fill: none; stroke: #ffa500; stroke-width: 1.5"/>
    <path d="M 79.654872 110.399309 
L 79.654872 74.288669 
" clip-path="url(#pc6200d18ec)" style="fill: none; stroke: #ffa500; stroke-width: 1.5"/>
    <path d="M 280.249605 89.214347 
L 280.249605 53.103707 
" clip-path="url(#pc6200d18ec)" style="fill: none; stroke: #ffa500; stroke-width: 1.5"/>
    <path d="M 196.777849 262.966 
L 196.777849 226.855361 
" clip-path="url(#pc6200d18ec)" style="fill: none; stroke: #ffa500; stroke-width: 1.5"/>
    <path d="M 87.987708 108.535005 
L 87.987708 72.424365 
" clip-path="url(#pc6200d18ec)" style="fill: none; stroke: #ffa500; stroke-width: 1.5"/>
    <path d="M 215.595346 195.703533 
L 215.595346 159.592894 
" clip-path="url(#pc6200d18ec)" style="fill: none; stroke: #ffa500; stroke-width: 1.5"/>
    <path d="M 58.012865 84.783748 
L 58.012865 48.673109 
" clip-path="url(#pc6200d18ec)" style="fill: none; stroke: #ffa500; stroke-width: 1.5"/>
    <path d="M 357.225996 174.505529 
L 357.225996 138.394889 
" clip-path="url(#pc6200d18ec)" style="fill: none; stroke: #ffa500; stroke-width: 1.5"/>
    <path d="M 134.751264 117.784904 
L 134.751264 81.674265 
" clip-path="url(#pc6200d18ec)" style="fill: none; stroke: #ffa500; stroke-width: 1.5"/>
    <path d="M 272.824868 124.442126 
L 272.824868 88.331487 
" clip-path="url(#pc6200d18ec)" style="fill: none; stroke: #ffa500; stroke-width: 1.5"/>
    <path d="M 152.852877 148.824466 
L 152.852877 112.713826 
" clip-path="url(#pc6200d18ec)" style="fill: none; stroke: #ffa500; stroke-width: 1.5"/>
    <path d="M 224.10772 190.546717 
L 224.10772 154.436077 
" clip-path="url(#pc6200d18ec)" style="fill: none; stroke: #ffa500; stroke-width: 1.5"/>
    <path d="M 233.218959 202.969342 
L 233.218959 166.858703 
" clip-path="url(#pc6200d18ec)" style="fill: none; stroke: #ffa500; stroke-width: 1.5"/>
    <path d="M 109.469881 80.16498 
L 109.469881 44.054341 
" clip-path="url(#pc6200d18ec)" style="fill: none; stroke: #ffa500; stroke-width: 1.5"/>
   </g>
   <g id="line2d_29">
    <defs>
     <path id="me8418bf412" d="M 2 0 
L -2 -0 
" style="stroke: #ffa500"/>
    </defs>
    <g clip-path="url(#pc6200d18ec)">
     <use xlink:href="#me8418bf412" x="174.339435" y="217.887539" style="fill: #ffa500; stroke: #ffa500"/>
     <use xlink:href="#me8418bf412" x="371.382069" y="173.163388" style="fill: #ffa500; stroke: #ffa500"/>
     <use xlink:href="#me8418bf412" x="296.583097" y="62.173028" style="fill: #ffa500; stroke: #ffa500"/>
     <use xlink:href="#me8418bf412" x="250.984439" y="183.099545" style="fill: #ffa500; stroke: #ffa500"/>
     <use xlink:href="#me8418bf412" x="99.608479" y="124.775255" style="fill: #ffa500; stroke: #ffa500"/>
     <use xlink:href="#me8418bf412" x="99.600231" y="111.083925" style="fill: #ffa500; stroke: #ffa500"/>
     <use xlink:href="#me8418bf412" x="66.116219" y="113.503272" style="fill: #ffa500; stroke: #ffa500"/>
     <use xlink:href="#me8418bf412" x="342.471329" y="131.042314" style="fill: #ffa500; stroke: #ffa500"/>
     <use xlink:href="#me8418bf412" x="251.824533" y="169.942612" style="fill: #ffa500; stroke: #ffa500"/>
     <use xlink:href="#me8418bf412" x="288.402362" y="101.879526" style="fill: #ffa500; stroke: #ffa500"/>
     <use xlink:href="#me8418bf412" x="53.292102" y="113.04649" style="fill: #ffa500; stroke: #ffa500"/>
     <use xlink:href="#me8418bf412" x="377.946648" y="192.246935" style="fill: #ffa500; stroke: #ffa500"/>
     <use xlink:href="#me8418bf412" x="330.934994" y="138.06575" style="fill: #ffa500; stroke: #ffa500"/>
     <use xlink:href="#me8418bf412" x="118.869206" y="73.956696" style="fill: #ffa500; stroke: #ffa500"/>
     <use xlink:href="#me8418bf412" x="108.433843" y="71.668211" style="fill: #ffa500; stroke: #ffa500"/>
     <use xlink:href="#me8418bf412" x="108.974022" y="73.019814" style="fill: #ffa500; stroke: #ffa500"/>
     <use xlink:href="#me8418bf412" x="150.298652" y="170.389445" style="fill: #ffa500; stroke: #ffa500"/>
     <use xlink:href="#me8418bf412" x="225.711084" y="201.404714" style="fill: #ffa500; stroke: #ffa500"/>
     <use xlink:href="#me8418bf412" x="193.97102" y="224.770656" style="fill: #ffa500; stroke: #ffa500"/>
     <use xlink:href="#me8418bf412" x="145.848373" y="120.4609" style="fill: #ffa500; stroke: #ffa500"/>
     <use xlink:href="#me8418bf412" x="255.496723" y="177.16905" style="fill: #ffa500; stroke: #ffa500"/>
     <use xlink:href="#me8418bf412" x="93.957261" y="105.468615" style="fill: #ffa500; stroke: #ffa500"/>
     <use xlink:href="#me8418bf412" x="146.161462" y="159.221745" style="fill: #ffa500; stroke: #ffa500"/>
     <use xlink:href="#me8418bf412" x="171.542592" y="247.826671" style="fill: #ffa500; stroke: #ffa500"/>
     <use xlink:href="#me8418bf412" x="202.221384" y="204.481094" style="fill: #ffa500; stroke: #ffa500"/>
     <use xlink:href="#me8418bf412" x="314.770523" y="57.156639" style="fill: #ffa500; stroke: #ffa500"/>
     <use xlink:href="#me8418bf412" x="114.53786" y="87.414336" style="fill: #ffa500; stroke: #ffa500"/>
     <use xlink:href="#me8418bf412" x="222.112725" y="179.335781" style="fill: #ffa500; stroke: #ffa500"/>
     <use xlink:href="#me8418bf412" x="248.849117" y="174.607608" style="fill: #ffa500; stroke: #ffa500"/>
     <use xlink:href="#me8418bf412" x="62.137845" y="119.002417" style="fill: #ffa500; stroke: #ffa500"/>
     <use xlink:href="#me8418bf412" x="254.023439" y="165.248407" style="fill: #ffa500; stroke: #ffa500"/>
     <use xlink:href="#me8418bf412" x="104.56913" y="65.932195" style="fill: #ffa500; stroke: #ffa500"/>
     <use xlink:href="#me8418bf412" x="68.49916" y="105.212158" style="fill: #ffa500; stroke: #ffa500"/>
     <use xlink:href="#me8418bf412" x="370.756658" y="147.31763" style="fill: #ffa500; stroke: #ffa500"/>
     <use xlink:href="#me8418bf412" x="376.4837" y="230.285777" style="fill: #ffa500; stroke: #ffa500"/>
     <use xlink:href="#me8418bf412" x="322.711877" y="88.328759" style="fill: #ffa500; stroke: #ffa500"/>
     <use xlink:href="#me8418bf412" x="150.425708" y="154.166769" style="fill: #ffa500; stroke: #ffa500"/>
     <use xlink:href="#me8418bf412" x="79.654872" y="110.399309" style="fill: #ffa500; stroke: #ffa500"/>
     <use xlink:href="#me8418bf412" x="280.249605" y="89.214347" style="fill: #ffa500; stroke: #ffa500"/>
     <use xlink:href="#me8418bf412" x="196.777849" y="262.966" style="fill: #ffa500; stroke: #ffa500"/>
     <use xlink:href="#me8418bf412" x="87.987708" y="108.535005" style="fill: #ffa500; stroke: #ffa500"/>
     <use xlink:href="#me8418bf412" x="215.595346" y="195.703533" style="fill: #ffa500; stroke: #ffa500"/>
     <use xlink:href="#me8418bf412" x="58.012865" y="84.783748" style="fill: #ffa500; stroke: #ffa500"/>
     <use xlink:href="#me8418bf412" x="357.225996" y="174.505529" style="fill: #ffa500; stroke: #ffa500"/>
     <use xlink:href="#me8418bf412" x="134.751264" y="117.784904" style="fill: #ffa500; stroke: #ffa500"/>
     <use xlink:href="#me8418bf412" x="272.824868" y="124.442126" style="fill: #ffa500; stroke: #ffa500"/>
     <use xlink:href="#me8418bf412" x="152.852877" y="148.824466" style="fill: #ffa500; stroke: #ffa500"/>
     <use xlink:href="#me8418bf412" x="224.10772" y="190.546717" style="fill: #ffa500; stroke: #ffa500"/>
     <use xlink:href="#me8418bf412" x="233.218959" y="202.969342" style="fill: #ffa500; stroke: #ffa500"/>
     <use xlink:href="#me8418bf412" x="109.469881" y="80.16498" style="fill: #ffa500; stroke: #ffa500"/>
    </g>
   </g>
   <g id="line2d_30">
    <g clip-path="url(#pc6200d18ec)">
     <use xlink:href="#me8418bf412" x="174.339435" y="181.7769" style="fill: #ffa500; stroke: #ffa500"/>
     <use xlink:href="#me8418bf412" x="371.382069" y="137.052749" style="fill: #ffa500; stroke: #ffa500"/>
     <use xlink:href="#me8418bf412" x="296.583097" y="26.062388" style="fill: #ffa500; stroke: #ffa500"/>
     <use xlink:href="#me8418bf412" x="250.984439" y="146.988906" style="fill: #ffa500; stroke: #ffa500"/>
     <use xlink:href="#me8418bf412" x="99.608479" y="88.664616" style="fill: #ffa500; stroke: #ffa500"/>
     <use xlink:href="#me8418bf412" x="99.600231" y="74.973286" style="fill: #ffa500; stroke: #ffa500"/>
     <use xlink:href="#me8418bf412" x="66.116219" y="77.392633" style="fill: #ffa500; stroke: #ffa500"/>
     <use xlink:href="#me8418bf412" x="342.471329" y="94.931675" style="fill: #ffa500; stroke: #ffa500"/>
     <use xlink:href="#me8418bf412" x="251.824533" y="133.831973" style="fill: #ffa500; stroke: #ffa500"/>
     <use xlink:href="#me8418bf412" x="288.402362" y="65.768887" style="fill: #ffa500; stroke: #ffa500"/>
     <use xlink:href="#me8418bf412" x="53.292102" y="76.935851" style="fill: #ffa500; stroke: #ffa500"/>
     <use xlink:href="#me8418bf412" x="377.946648" y="156.136296" style="fill: #ffa500; stroke: #ffa500"/>
     <use xlink:href="#me8418bf412" x="330.934994" y="101.95511" style="fill: #ffa500; stroke: #ffa500"/>
     <use xlink:href="#me8418bf412" x="118.869206" y="37.846057" style="fill: #ffa500; stroke: #ffa500"/>
     <use xlink:href="#me8418bf412" x="108.433843" y="35.557571" style="fill: #ffa500; stroke: #ffa500"/>
     <use xlink:href="#me8418bf412" x="108.974022" y="36.909174" style="fill: #ffa500; stroke: #ffa500"/>
     <use xlink:href="#me8418bf412" x="150.298652" y="134.278805" style="fill: #ffa500; stroke: #ffa500"/>
     <use xlink:href="#me8418bf412" x="225.711084" y="165.294074" style="fill: #ffa500; stroke: #ffa500"/>
     <use xlink:href="#me8418bf412" x="193.97102" y="188.660017" style="fill: #ffa500; stroke: #ffa500"/>
     <use xlink:href="#me8418bf412" x="145.848373" y="84.35026" style="fill: #ffa500; stroke: #ffa500"/>
     <use xlink:href="#me8418bf412" x="255.496723" y="141.05841" style="fill: #ffa500; stroke: #ffa500"/>
     <use xlink:href="#me8418bf412" x="93.957261" y="69.357976" style="fill: #ffa500; stroke: #ffa500"/>
     <use xlink:href="#me8418bf412" x="146.161462" y="123.111105" style="fill: #ffa500; stroke: #ffa500"/>
     <use xlink:href="#me8418bf412" x="171.542592" y="211.716032" style="fill: #ffa500; stroke: #ffa500"/>
     <use xlink:href="#me8418bf412" x="202.221384" y="168.370454" style="fill: #ffa500; stroke: #ffa500"/>
     <use xlink:href="#me8418bf412" x="314.770523" y="21.046" style="fill: #ffa500; stroke: #ffa500"/>
     <use xlink:href="#me8418bf412" x="114.53786" y="51.303697" style="fill: #ffa500; stroke: #ffa500"/>
     <use xlink:href="#me8418bf412" x="222.112725" y="143.225141" style="fill: #ffa500; stroke: #ffa500"/>
     <use xlink:href="#me8418bf412" x="248.849117" y="138.496969" style="fill: #ffa500; stroke: #ffa500"/>
     <use xlink:href="#me8418bf412" x="62.137845" y="82.891778" style="fill: #ffa500; stroke: #ffa500"/>
     <use xlink:href="#me8418bf412" x="254.023439" y="129.137768" style="fill: #ffa500; stroke: #ffa500"/>
     <use xlink:href="#me8418bf412" x="104.56913" y="29.821556" style="fill: #ffa500; stroke: #ffa500"/>
     <use xlink:href="#me8418bf412" x="68.49916" y="69.101518" style="fill: #ffa500; stroke: #ffa500"/>
     <use xlink:href="#me8418bf412" x="370.756658" y="111.206991" style="fill: #ffa500; stroke: #ffa500"/>
     <use xlink:href="#me8418bf412" x="376.4837" y="194.175138" style="fill: #ffa500; stroke: #ffa500"/>
     <use xlink:href="#me8418bf412" x="322.711877" y="52.218119" style="fill: #ffa500; stroke: #ffa500"/>
     <use xlink:href="#me8418bf412" x="150.425708" y="118.05613" style="fill: #ffa500; stroke: #ffa500"/>
     <use xlink:href="#me8418bf412" x="79.654872" y="74.288669" style="fill: #ffa500; stroke: #ffa500"/>
     <use xlink:href="#me8418bf412" x="280.249605" y="53.103707" style="fill: #ffa500; stroke: #ffa500"/>
     <use xlink:href="#me8418bf412" x="196.777849" y="226.855361" style="fill: #ffa500; stroke: #ffa500"/>
     <use xlink:href="#me8418bf412" x="87.987708" y="72.424365" style="fill: #ffa500; stroke: #ffa500"/>
     <use xlink:href="#me8418bf412" x="215.595346" y="159.592894" style="fill: #ffa500; stroke: #ffa500"/>
     <use xlink:href="#me8418bf412" x="58.012865" y="48.673109" style="fill: #ffa500; stroke: #ffa500"/>
     <use xlink:href="#me8418bf412" x="357.225996" y="138.394889" style="fill: #ffa500; stroke: #ffa500"/>
     <use xlink:href="#me8418bf412" x="134.751264" y="81.674265" style="fill: #ffa500; stroke: #ffa500"/>
     <use xlink:href="#me8418bf412" x="272.824868" y="88.331487" style="fill: #ffa500; stroke: #ffa500"/>
     <use xlink:href="#me8418bf412" x="152.852877" y="112.713826" style="fill: #ffa500; stroke: #ffa500"/>
     <use xlink:href="#me8418bf412" x="224.10772" y="154.436077" style="fill: #ffa500; stroke: #ffa500"/>
     <use xlink:href="#me8418bf412" x="233.218959" y="166.858703" style="fill: #ffa500; stroke: #ffa500"/>
     <use xlink:href="#me8418bf412" x="109.469881" y="44.054341" style="fill: #ffa500; stroke: #ffa500"/>
    </g>
   </g>
   <g id="line2d_31">
    <defs>
     <path id="m6d4b9e8b5b" d="M 0 3 
C 0.795609 3 1.55874 2.683901 2.12132 2.12132 
C 2.683901 1.55874 3 0.795609 3 0 
C 3 -0.795609 2.683901 -1.55874 2.12132 -2.12132 
C 1.55874 -2.683901 0.795609 -3 0 -3 
C -0.795609 -3 -1.55874 -2.683901 -2.12132 -2.12132 
C -2.683901 -1.55874 -3 -0.795609 -3 0 
C -3 0.795609 -2.683901 1.55874 -2.12132 2.12132 
C -1.55874 2.683901 -0.795609 3 0 3 
z
" style="stroke: #ffa500"/>
    </defs>
    <g clip-path="url(#pc6200d18ec)">
     <use xlink:href="#m6d4b9e8b5b" x="174.339435" y="199.83222" style="fill: #ffa500; stroke: #ffa500"/>
     <use xlink:href="#m6d4b9e8b5b" x="371.382069" y="155.108068" style="fill: #ffa500; stroke: #ffa500"/>
     <use xlink:href="#m6d4b9e8b5b" x="296.583097" y="44.117708" style="fill: #ffa500; stroke: #ffa500"/>
     <use xlink:href="#m6d4b9e8b5b" x="250.984439" y="165.044225" style="fill: #ffa500; stroke: #ffa500"/>
     <use xlink:href="#m6d4b9e8b5b" x="99.608479" y="106.719936" style="fill: #ffa500; stroke: #ffa500"/>
     <use xlink:href="#m6d4b9e8b5b" x="99.600231" y="93.028605" style="fill: #ffa500; stroke: #ffa500"/>
     <use xlink:href="#m6d4b9e8b5b" x="66.116219" y="95.447952" style="fill: #ffa500; stroke: #ffa500"/>
     <use xlink:href="#m6d4b9e8b5b" x="342.471329" y="112.986995" style="fill: #ffa500; stroke: #ffa500"/>
     <use xlink:href="#m6d4b9e8b5b" x="251.824533" y="151.887293" style="fill: #ffa500; stroke: #ffa500"/>
     <use xlink:href="#m6d4b9e8b5b" x="288.402362" y="83.824207" style="fill: #ffa500; stroke: #ffa500"/>
     <use xlink:href="#m6d4b9e8b5b" x="53.292102" y="94.991171" style="fill: #ffa500; stroke: #ffa500"/>
     <use xlink:href="#m6d4b9e8b5b" x="377.946648" y="174.191615" style="fill: #ffa500; stroke: #ffa500"/>
     <use xlink:href="#m6d4b9e8b5b" x="330.934994" y="120.01043" style="fill: #ffa500; stroke: #ffa500"/>
     <use xlink:href="#m6d4b9e8b5b" x="118.869206" y="55.901376" style="fill: #ffa500; stroke: #ffa500"/>
     <use xlink:href="#m6d4b9e8b5b" x="108.433843" y="53.612891" style="fill: #ffa500; stroke: #ffa500"/>
     <use xlink:href="#m6d4b9e8b5b" x="108.974022" y="54.964494" style="fill: #ffa500; stroke: #ffa500"/>
     <use xlink:href="#m6d4b9e8b5b" x="150.298652" y="152.334125" style="fill: #ffa500; stroke: #ffa500"/>
     <use xlink:href="#m6d4b9e8b5b" x="225.711084" y="183.349394" style="fill: #ffa500; stroke: #ffa500"/>
     <use xlink:href="#m6d4b9e8b5b" x="193.97102" y="206.715337" style="fill: #ffa500; stroke: #ffa500"/>
     <use xlink:href="#m6d4b9e8b5b" x="145.848373" y="102.40558" style="fill: #ffa500; stroke: #ffa500"/>
     <use xlink:href="#m6d4b9e8b5b" x="255.496723" y="159.11373" style="fill: #ffa500; stroke: #ffa500"/>
     <use xlink:href="#m6d4b9e8b5b" x="93.957261" y="87.413296" style="fill: #ffa500; stroke: #ffa500"/>
     <use xlink:href="#m6d4b9e8b5b" x="146.161462" y="141.166425" style="fill: #ffa500; stroke: #ffa500"/>
     <use xlink:href="#m6d4b9e8b5b" x="171.542592" y="229.771352" style="fill: #ffa500; stroke: #ffa500"/>
     <use xlink:href="#m6d4b9e8b5b" x="202.221384" y="186.425774" style="fill: #ffa500; stroke: #ffa500"/>
     <use xlink:href="#m6d4b9e8b5b" x="314.770523" y="39.10132" style="fill: #ffa500; stroke: #ffa500"/>
     <use xlink:href="#m6d4b9e8b5b" x="114.53786" y="69.359016" style="fill: #ffa500; stroke: #ffa500"/>
     <use xlink:href="#m6d4b9e8b5b" x="222.112725" y="161.280461" style="fill: #ffa500; stroke: #ffa500"/>
     <use xlink:href="#m6d4b9e8b5b" x="248.849117" y="156.552289" style="fill: #ffa500; stroke: #ffa500"/>
     <use xlink:href="#m6d4b9e8b5b" x="62.137845" y="100.947097" style="fill: #ffa500; stroke: #ffa500"/>
     <use xlink:href="#m6d4b9e8b5b" x="254.023439" y="147.193087" style="fill: #ffa500; stroke: #ffa500"/>
     <use xlink:href="#m6d4b9e8b5b" x="104.56913" y="47.876875" style="fill: #ffa500; stroke: #ffa500"/>
     <use xlink:href="#m6d4b9e8b5b" x="68.49916" y="87.156838" style="fill: #ffa500; stroke: #ffa500"/>
     <use xlink:href="#m6d4b9e8b5b" x="370.756658" y="129.262311" style="fill: #ffa500; stroke: #ffa500"/>
     <use xlink:href="#m6d4b9e8b5b" x="376.4837" y="212.230458" style="fill: #ffa500; stroke: #ffa500"/>
     <use xlink:href="#m6d4b9e8b5b" x="322.711877" y="70.273439" style="fill: #ffa500; stroke: #ffa500"/>
     <use xlink:href="#m6d4b9e8b5b" x="150.425708" y="136.111449" style="fill: #ffa500; stroke: #ffa500"/>
     <use xlink:href="#m6d4b9e8b5b" x="79.654872" y="92.343989" style="fill: #ffa500; stroke: #ffa500"/>
     <use xlink:href="#m6d4b9e8b5b" x="280.249605" y="71.159027" style="fill: #ffa500; stroke: #ffa500"/>
     <use xlink:href="#m6d4b9e8b5b" x="196.777849" y="244.91068" style="fill: #ffa500; stroke: #ffa500"/>
     <use xlink:href="#m6d4b9e8b5b" x="87.987708" y="90.479685" style="fill: #ffa500; stroke: #ffa500"/>
     <use xlink:href="#m6d4b9e8b5b" x="215.595346" y="177.648213" style="fill: #ffa500; stroke: #ffa500"/>
     <use xlink:href="#m6d4b9e8b5b" x="58.012865" y="66.728429" style="fill: #ffa500; stroke: #ffa500"/>
     <use xlink:href="#m6d4b9e8b5b" x="357.225996" y="156.450209" style="fill: #ffa500; stroke: #ffa500"/>
     <use xlink:href="#m6d4b9e8b5b" x="134.751264" y="99.729585" style="fill: #ffa500; stroke: #ffa500"/>
     <use xlink:href="#m6d4b9e8b5b" x="272.824868" y="106.386807" style="fill: #ffa500; stroke: #ffa500"/>
     <use xlink:href="#m6d4b9e8b5b" x="152.852877" y="130.769146" style="fill: #ffa500; stroke: #ffa500"/>
     <use xlink:href="#m6d4b9e8b5b" x="224.10772" y="172.491397" style="fill: #ffa500; stroke: #ffa500"/>
     <use xlink:href="#m6d4b9e8b5b" x="233.218959" y="184.914023" style="fill: #ffa500; stroke: #ffa500"/>
     <use xlink:href="#m6d4b9e8b5b" x="109.469881" y="62.109661" style="fill: #ffa500; stroke: #ffa500"/>
    </g>
   </g>
   <g id="patch_3">
    <path d="M 37.059375 275.062 
L 37.059375 8.95 
" style="fill: none; stroke: #000000; stroke-width: 0.8; stroke-linejoin: miter; stroke-linecap: square"/>
   </g>
   <g id="patch_4">
    <path d="M 394.179375 275.062 
L 394.179375 8.95 
" style="fill: none; stroke: #000000; stroke-width: 0.8; stroke-linejoin: miter; stroke-linecap: square"/>
   </g>
   <g id="patch_5">
    <path d="M 37.059375 275.062 
L 394.179375 275.062 
" style="fill: none; stroke: #000000; stroke-width: 0.8; stroke-linejoin: miter; stroke-linecap: square"/>
   </g>
   <g id="patch_6">
    <path d="M 37.059375 8.95 
L 394.179375 8.95 
" style="fill: none; stroke: #000000; stroke-width: 0.8; stroke-linejoin: miter; stroke-linecap: square"/>
   </g>
  </g>
 </g>
 <defs>
  <clipPath id="pc6200d18ec">
   <rect x="37.059375" y="8.95" width="357.12" height="266.112"/>
  </clipPath>
 </defs>
</svg>
