<?xml version="1.0" encoding="utf-8" standalone="no"?>
<!DOCTYPE svg PUBLIC "-//W3C//DTD SVG 1.1//EN"
  "http://www.w3.org/Graphics/SVG/1.1/DTD/svg11.dtd">
<svg xmlns:xlink="http://www.w3.org/1999/xlink" width="606.657812pt" height="329.540625pt" viewBox="0 0 606.657812 329.540625" xmlns="http://www.w3.org/2000/svg" version="1.1">
 <metadata>
  <rdf:RDF xmlns:dc="http://purl.org/dc/elements/1.1/" xmlns:cc="http://creativecommons.org/ns#" xmlns:rdf="http://www.w3.org/1999/02/22-rdf-syntax-ns#">
   <cc:Work>
    <dc:type rdf:resource="http://purl.org/dc/dcmitype/StillImage"/>
    <dc:date>2022-09-09T09:41:56.597337</dc:date>
    <dc:format>image/svg+xml</dc:format>
    <dc:creator>
     <cc:Agent>
      <dc:title>Matplotlib v3.5.1, https://matplotlib.org/</dc:title>
     </cc:Agent>
    </dc:creator>
   </cc:Work>
  </rdf:RDF>
 </metadata>
 <defs>
  <style type="text/css">*{stroke-linejoin: round; stroke-linecap: butt}</style>
 </defs>
 <g id="figure_1">
  <g id="patch_1">
   <path d="M -0 329.540625 
L 606.657812 329.540625 
L 606.657812 0 
L -0 0 
z
" style="fill: #ffffff"/>
  </g>
  <g id="axes_1">
   <g id="patch_2">
    <path d="M 39.707813 294.540625 
L 597.707813 294.540625 
L 597.707813 17.340625 
L 39.707813 17.340625 
z
" style="fill: #ffffff"/>
   </g>
   <g id="PolyCollection_1">
    <defs>
     <path id="m30d9abdaa2" d="M 65.071449 -95.945334 
L 65.071449 -88.079655 
L 81.504248 -173.19806 
L 102.728025 -260.530246 
L 130.139586 -284.648797 
L 165.542979 -239.95972 
L 211.268219 -170.749583 
L 270.324638 -112.862709 
L 346.598935 -76.329749 
L 445.110979 -56.86781 
L 572.344176 -47.6 
L 572.344176 -48.221475 
L 572.344176 -48.221475 
L 445.110979 -58.268104 
L 346.598935 -79.24088 
L 270.324638 -118.326234 
L 211.268219 -179.646528 
L 165.542979 -252.27951 
L 130.139586 -299.6 
L 102.728025 -277.453196 
L 81.504248 -188.244907 
L 65.071449 -95.945334 
z
" style="stroke: #000000; stroke-opacity: 0.5"/>
    </defs>
    <g clip-path="url(#pfd3850a659)">
     <use xlink:href="#m30d9abdaa2" x="0" y="329.540625" style="fill-opacity: 0.5; stroke: #000000; stroke-opacity: 0.5"/>
    </g>
   </g>
   <g id="matplotlib.axis_1">
    <g id="xtick_1">
     <g id="line2d_1">
      <defs>
       <path id="mdea77411e4" d="M 0 1.75 
L 0 -1.75 
" style="stroke: #000000; stroke-width: 0.8"/>
      </defs>
      <g>
       <use xlink:href="#mdea77411e4" x="121.435085" y="294.540625" style="stroke: #000000; stroke-width: 0.8"/>
      </g>
     </g>
     <g id="line2d_2">
      <g>
       <use xlink:href="#mdea77411e4" x="121.435085" y="17.340625" style="stroke: #000000; stroke-width: 0.8"/>
      </g>
     </g>
     <g id="text_1">
      <!-- 20 -->
      <g transform="translate(115.87571 306.93125)scale(0.1 -0.1)">
       <defs>
        <path id="HelveticaNeue-Medium-32" d="M 3309 653 
L 1126 653 
C 1254 1050 1798 1325 2317 1683 
C 2829 2042 3315 2483 3315 3194 
C 3315 3770 2970 4570 1875 4570 
C 877 4570 333 3834 333 2842 
L 1062 2842 
C 1082 3469 1254 3962 1830 3962 
C 2458 3962 2592 3488 2586 3168 
C 2573 2470 1818 2118 1235 1696 
C 634 1293 256 736 250 0 
L 3309 0 
L 3309 653 
z
" transform="scale(0.015625)"/>
        <path id="HelveticaNeue-Medium-30" d="M 1779 518 
C 1139 518 960 1306 960 2240 
C 960 3174 1139 3962 1779 3962 
C 2419 3962 2598 3174 2598 2240 
C 2598 1306 2419 518 1779 518 
z
M 1779 4570 
C 493 4570 230 3258 230 2240 
C 230 1222 493 -90 1779 -90 
C 3066 -90 3328 1222 3328 2240 
C 3328 3258 3066 4570 1779 4570 
z
" transform="scale(0.015625)"/>
       </defs>
       <use xlink:href="#HelveticaNeue-Medium-32"/>
       <use xlink:href="#HelveticaNeue-Medium-30" x="55.599991"/>
      </g>
     </g>
    </g>
    <g id="xtick_2">
     <g id="line2d_3">
      <g>
       <use xlink:href="#mdea77411e4" x="234.162358" y="294.540625" style="stroke: #000000; stroke-width: 0.8"/>
      </g>
     </g>
     <g id="line2d_4">
      <g>
       <use xlink:href="#mdea77411e4" x="234.162358" y="17.340625" style="stroke: #000000; stroke-width: 0.8"/>
      </g>
     </g>
     <g id="text_2">
      <!-- 40 -->
      <g transform="translate(228.602983 306.93125)scale(0.1 -0.1)">
       <defs>
        <path id="HelveticaNeue-Medium-34" d="M 3341 1638 
L 2765 1638 
L 2765 4480 
L 2074 4480 
L 154 1786 
L 154 1062 
L 2074 1062 
L 2074 0 
L 2765 0 
L 2765 1062 
L 3341 1062 
L 3341 1638 
z
M 2061 3610 
L 2074 3610 
L 2074 1638 
L 717 1638 
L 2061 3610 
z
" transform="scale(0.015625)"/>
       </defs>
       <use xlink:href="#HelveticaNeue-Medium-34"/>
       <use xlink:href="#HelveticaNeue-Medium-30" x="55.599991"/>
      </g>
     </g>
    </g>
    <g id="xtick_3">
     <g id="line2d_5">
      <g>
       <use xlink:href="#mdea77411e4" x="346.889631" y="294.540625" style="stroke: #000000; stroke-width: 0.8"/>
      </g>
     </g>
     <g id="line2d_6">
      <g>
       <use xlink:href="#mdea77411e4" x="346.889631" y="17.340625" style="stroke: #000000; stroke-width: 0.8"/>
      </g>
     </g>
     <g id="text_3">
      <!-- 60 -->
      <g transform="translate(341.330256 306.93125)scale(0.1 -0.1)">
       <defs>
        <path id="HelveticaNeue-Medium-36" d="M 1824 518 
C 1293 518 1018 966 1018 1453 
C 1018 1946 1293 2368 1824 2368 
C 2349 2368 2611 1933 2611 1453 
C 2611 973 2349 518 1824 518 
z
M 3258 3347 
C 3219 4077 2618 4570 1907 4570 
C 640 4570 218 3322 218 2253 
C 218 947 531 -90 1850 -90 
C 2746 -90 3341 570 3341 1440 
C 3341 2298 2816 2944 1926 2944 
C 1530 2944 1158 2765 960 2413 
L 947 2426 
C 992 3014 1082 3962 1875 3962 
C 2253 3962 2496 3712 2528 3347 
L 3258 3347 
z
" transform="scale(0.015625)"/>
       </defs>
       <use xlink:href="#HelveticaNeue-Medium-36"/>
       <use xlink:href="#HelveticaNeue-Medium-30" x="55.599991"/>
      </g>
     </g>
    </g>
    <g id="xtick_4">
     <g id="line2d_7">
      <g>
       <use xlink:href="#mdea77411e4" x="459.616903" y="294.540625" style="stroke: #000000; stroke-width: 0.8"/>
      </g>
     </g>
     <g id="line2d_8">
      <g>
       <use xlink:href="#mdea77411e4" x="459.616903" y="17.340625" style="stroke: #000000; stroke-width: 0.8"/>
      </g>
     </g>
     <g id="text_4">
      <!-- 80 -->
      <g transform="translate(454.057528 306.93125)scale(0.1 -0.1)">
       <defs>
        <path id="HelveticaNeue-Medium-38" d="M 1779 486 
C 1293 486 928 794 928 1318 
C 928 1811 1293 2106 1779 2106 
C 2266 2106 2630 1811 2630 1318 
C 2630 794 2266 486 1779 486 
z
M 1779 -90 
C 2688 -90 3360 442 3360 1318 
C 3360 1882 3040 2285 2541 2413 
L 2541 2426 
C 2944 2579 3174 2912 3174 3347 
C 3174 4109 2669 4570 1779 4570 
C 890 4570 384 4109 384 3347 
C 384 2912 614 2579 1018 2426 
L 1018 2413 
C 518 2285 198 1882 198 1318 
C 198 442 870 -90 1779 -90 
z
M 1779 3994 
C 2170 3994 2483 3750 2483 3309 
C 2483 2886 2182 2650 1779 2650 
C 1376 2650 1075 2886 1075 3309 
C 1075 3750 1389 3994 1779 3994 
z
" transform="scale(0.015625)"/>
       </defs>
       <use xlink:href="#HelveticaNeue-Medium-38"/>
       <use xlink:href="#HelveticaNeue-Medium-30" x="55.599991"/>
      </g>
     </g>
    </g>
    <g id="xtick_5">
     <g id="line2d_9">
      <g>
       <use xlink:href="#mdea77411e4" x="572.344176" y="294.540625" style="stroke: #000000; stroke-width: 0.8"/>
      </g>
     </g>
     <g id="line2d_10">
      <g>
       <use xlink:href="#mdea77411e4" x="572.344176" y="17.340625" style="stroke: #000000; stroke-width: 0.8"/>
      </g>
     </g>
     <g id="text_5">
      <!-- 100 -->
      <g transform="translate(564.005114 306.93125)scale(0.1 -0.1)">
       <defs>
        <path id="HelveticaNeue-Medium-31" d="M 339 3162 
L 1440 3162 
L 1440 0 
L 2240 0 
L 2240 4480 
L 1645 4480 
C 1536 3942 954 3731 339 3738 
L 339 3162 
z
" transform="scale(0.015625)"/>
       </defs>
       <use xlink:href="#HelveticaNeue-Medium-31"/>
       <use xlink:href="#HelveticaNeue-Medium-30" x="55.599991"/>
       <use xlink:href="#HelveticaNeue-Medium-30" x="111.199982"/>
      </g>
     </g>
    </g>
    <g id="text_6">
     <!-- Wavelength [$\mu$m] -->
     <g transform="translate(279.557812 320.240625)scale(0.1 -0.1)">
      <defs>
       <path id="HelveticaNeue-Medium-57" d="M 1242 0 
L 2067 0 
L 3002 3494 
L 3014 3494 
L 3930 0 
L 4742 0 
L 6003 4570 
L 5190 4570 
L 4339 1075 
L 4326 1075 
L 3430 4570 
L 2611 4570 
L 1690 1075 
L 1677 1075 
L 851 4570 
L 38 4570 
L 1242 0 
z
" transform="scale(0.015625)"/>
       <path id="HelveticaNeue-Medium-61" d="M 2426 1114 
C 2426 653 1926 486 1606 486 
C 1350 486 934 582 934 909 
C 934 1293 1216 1408 1530 1459 
C 1850 1517 2202 1510 2426 1658 
L 2426 1114 
z
M 3155 2438 
C 3155 3136 2477 3398 1830 3398 
C 1101 3398 378 3149 326 2298 
L 1056 2298 
C 1088 2656 1376 2822 1786 2822 
C 2080 2822 2470 2752 2470 2374 
C 2470 1946 2003 2003 1478 1907 
C 864 1837 205 1702 205 877 
C 205 230 742 -90 1338 -90 
C 1728 -90 2195 32 2483 314 
C 2541 13 2752 -90 3046 -90 
C 3168 -90 3398 -45 3507 -6 
L 3507 499 
C 3430 486 3373 486 3328 486 
C 3194 486 3155 557 3155 736 
L 3155 2438 
z
" transform="scale(0.015625)"/>
       <path id="HelveticaNeue-Medium-76" d="M 1261 0 
L 2080 0 
L 3264 3309 
L 2509 3309 
L 1702 768 
L 1690 768 
L 851 3309 
L 58 3309 
L 1261 0 
z
" transform="scale(0.015625)"/>
       <path id="HelveticaNeue-Medium-65" d="M 3386 1466 
C 3507 2458 2867 3398 1824 3398 
C 838 3398 224 2592 224 1651 
C 224 634 806 -90 1843 -90 
C 2566 -90 3181 314 3341 1037 
L 2650 1037 
C 2522 672 2266 486 1843 486 
C 1235 486 954 947 954 1466 
L 3386 1466 
z
M 954 1946 
C 973 2438 1318 2822 1824 2822 
C 2317 2822 2630 2406 2656 1946 
L 954 1946 
z
" transform="scale(0.015625)"/>
       <path id="HelveticaNeue-Medium-6c" d="M 403 0 
L 1133 0 
L 1133 4570 
L 403 4570 
L 403 0 
z
" transform="scale(0.015625)"/>
       <path id="HelveticaNeue-Medium-6e" d="M 384 0 
L 1114 0 
L 1114 1952 
C 1114 2438 1427 2822 1914 2822 
C 2342 2822 2547 2598 2560 2080 
L 2560 0 
L 3290 0 
L 3290 2272 
C 3290 3014 2835 3398 2118 3398 
C 1683 3398 1306 3174 1088 2810 
L 1075 2822 
L 1075 3309 
L 384 3309 
L 384 0 
z
" transform="scale(0.015625)"/>
       <path id="HelveticaNeue-Medium-67" d="M 1824 576 
C 1216 576 954 1126 954 1670 
C 954 2221 1178 2822 1824 2822 
C 2458 2822 2714 2298 2714 1728 
C 2714 1165 2470 576 1824 576 
z
M 3443 3309 
L 2714 3309 
L 2714 2854 
L 2701 2854 
C 2515 3226 2138 3398 1722 3398 
C 781 3398 224 2630 224 1741 
C 224 794 659 0 1709 0 
C 2118 0 2496 218 2701 582 
L 2714 582 
L 2714 77 
C 2714 -467 2451 -768 1862 -768 
C 1491 -768 1158 -698 1069 -282 
L 339 -282 
C 403 -1056 1152 -1312 1818 -1312 
C 2861 -1312 3443 -819 3443 173 
L 3443 3309 
z
" transform="scale(0.015625)"/>
       <path id="HelveticaNeue-Medium-74" d="M 51 2765 
L 602 2765 
L 602 813 
C 614 262 755 -32 1517 -32 
C 1677 -32 1830 -6 1990 6 
L 1990 570 
C 1888 544 1786 544 1683 544 
C 1357 544 1331 698 1331 998 
L 1331 2765 
L 1990 2765 
L 1990 3309 
L 1331 3309 
L 1331 4301 
L 602 4301 
L 602 3309 
L 51 3309 
L 51 2765 
z
" transform="scale(0.015625)"/>
       <path id="HelveticaNeue-Medium-68" d="M 384 0 
L 1114 0 
L 1114 1952 
C 1114 2438 1427 2822 1914 2822 
C 2342 2822 2547 2598 2560 2080 
L 2560 0 
L 3290 0 
L 3290 2272 
C 3290 3014 2835 3398 2118 3398 
C 1683 3398 1306 3174 1126 2874 
L 1114 2874 
L 1114 4570 
L 384 4570 
L 384 0 
z
" transform="scale(0.015625)"/>
       <path id="HelveticaNeue-Medium-20" transform="scale(0.015625)"/>
       <path id="HelveticaNeue-Medium-5b" d="M 461 -1222 
L 1888 -1222 
L 1888 -646 
L 1152 -646 
L 1152 4102 
L 1888 4102 
L 1888 4678 
L 461 4678 
L 461 -1222 
z
" transform="scale(0.015625)"/>
       <path id="DejaVuSans-Oblique-3bc" d="M -84 -1331 
L 856 3500 
L 1434 3500 
L 1009 1322 
Q 997 1256 987 1175 
Q 978 1094 978 1013 
Q 978 722 1161 565 
Q 1344 409 1684 409 
Q 2147 409 2431 671 
Q 2716 934 2816 1459 
L 3213 3500 
L 3788 3500 
L 3266 809 
Q 3253 750 3248 706 
Q 3244 663 3244 628 
Q 3244 531 3283 486 
Q 3322 441 3406 441 
Q 3438 441 3492 456 
Q 3547 472 3647 513 
L 3559 50 
Q 3422 -19 3297 -55 
Q 3172 -91 3053 -91 
Q 2847 -91 2730 40 
Q 2613 172 2613 403 
Q 2438 153 2195 31 
Q 1953 -91 1625 -91 
Q 1334 -91 1117 43 
Q 900 178 831 397 
L 494 -1331 
L -84 -1331 
z
" transform="scale(0.015625)"/>
       <path id="HelveticaNeue-Medium-6d" d="M 384 0 
L 1114 0 
L 1114 1965 
C 1114 2515 1459 2822 1837 2822 
C 2278 2822 2419 2579 2419 2125 
L 2419 0 
L 3149 0 
L 3149 1939 
C 3149 2496 3360 2822 3853 2822 
C 4422 2822 4454 2458 4454 1933 
L 4454 0 
L 5184 0 
L 5184 2285 
C 5184 3091 4774 3398 4077 3398 
C 3597 3398 3283 3187 3040 2848 
C 2893 3226 2515 3398 2112 3398 
C 1587 3398 1312 3174 1094 2848 
L 1075 2848 
L 1075 3309 
L 384 3309 
L 384 0 
z
" transform="scale(0.015625)"/>
       <path id="HelveticaNeue-Medium-5d" d="M 1434 4678 
L 6 4678 
L 6 4102 
L 742 4102 
L 742 -646 
L 6 -646 
L 6 -1222 
L 1434 -1222 
L 1434 4678 
z
" transform="scale(0.015625)"/>
      </defs>
      <use xlink:href="#HelveticaNeue-Medium-57" transform="translate(0 0.90625)"/>
      <use xlink:href="#HelveticaNeue-Medium-61" transform="translate(94.399994 0.90625)"/>
      <use xlink:href="#HelveticaNeue-Medium-76" transform="translate(149.999985 0.90625)"/>
      <use xlink:href="#HelveticaNeue-Medium-65" transform="translate(201.899979 0.90625)"/>
      <use xlink:href="#HelveticaNeue-Medium-6c" transform="translate(257.499969 0.90625)"/>
      <use xlink:href="#HelveticaNeue-Medium-65" transform="translate(281.59996 0.90625)"/>
      <use xlink:href="#HelveticaNeue-Medium-6e" transform="translate(337.199951 0.90625)"/>
      <use xlink:href="#HelveticaNeue-Medium-67" transform="translate(394.599945 0.90625)"/>
      <use xlink:href="#HelveticaNeue-Medium-74" transform="translate(453.899933 0.90625)"/>
      <use xlink:href="#HelveticaNeue-Medium-68" transform="translate(487.199921 0.90625)"/>
      <use xlink:href="#HelveticaNeue-Medium-20" transform="translate(544.599915 0.90625)"/>
      <use xlink:href="#HelveticaNeue-Medium-5b" transform="translate(572.399902 0.90625)"/>
      <use xlink:href="#DejaVuSans-Oblique-3bc" transform="translate(601.999893 0.90625)"/>
      <use xlink:href="#HelveticaNeue-Medium-6d" transform="translate(665.62294 0.90625)"/>
      <use xlink:href="#HelveticaNeue-Medium-5d" transform="translate(752.622925 0.90625)"/>
     </g>
    </g>
   </g>
   <g id="matplotlib.axis_2">
    <g id="ytick_1">
     <g id="line2d_11">
      <defs>
       <path id="m7948cd1816" d="M 1.75 0 
L -1.75 -0 
" style="stroke: #000000; stroke-width: 0.8"/>
      </defs>
      <g>
       <use xlink:href="#m7948cd1816" x="39.707813" y="288.864127" style="stroke: #000000; stroke-width: 0.8"/>
      </g>
     </g>
     <g id="line2d_12">
      <g>
       <use xlink:href="#m7948cd1816" x="597.707813" y="288.864127" style="stroke: #000000; stroke-width: 0.8"/>
      </g>
     </g>
     <g id="text_7">
      <!-- 0.0 -->
      <g transform="translate(20.559375 292.434439)scale(0.1 -0.1)">
       <defs>
        <path id="HelveticaNeue-Medium-2e" d="M 442 0 
L 1331 0 
L 1331 864 
L 442 864 
L 442 0 
z
" transform="scale(0.015625)"/>
       </defs>
       <use xlink:href="#HelveticaNeue-Medium-30"/>
       <use xlink:href="#HelveticaNeue-Medium-2e" x="55.599991"/>
       <use xlink:href="#HelveticaNeue-Medium-30" x="83.399979"/>
      </g>
     </g>
    </g>
    <g id="ytick_2">
     <g id="line2d_13">
      <g>
       <use xlink:href="#m7948cd1816" x="39.707813" y="235.227277" style="stroke: #000000; stroke-width: 0.8"/>
      </g>
     </g>
     <g id="line2d_14">
      <g>
       <use xlink:href="#m7948cd1816" x="597.707813" y="235.227277" style="stroke: #000000; stroke-width: 0.8"/>
      </g>
     </g>
     <g id="text_8">
      <!-- 0.2 -->
      <g transform="translate(20.559375 238.797589)scale(0.1 -0.1)">
       <use xlink:href="#HelveticaNeue-Medium-30"/>
       <use xlink:href="#HelveticaNeue-Medium-2e" x="55.599991"/>
       <use xlink:href="#HelveticaNeue-Medium-32" x="83.399979"/>
      </g>
     </g>
    </g>
    <g id="ytick_3">
     <g id="line2d_15">
      <g>
       <use xlink:href="#m7948cd1816" x="39.707813" y="181.590426" style="stroke: #000000; stroke-width: 0.8"/>
      </g>
     </g>
     <g id="line2d_16">
      <g>
       <use xlink:href="#m7948cd1816" x="597.707813" y="181.590426" style="stroke: #000000; stroke-width: 0.8"/>
      </g>
     </g>
     <g id="text_9">
      <!-- 0.4 -->
      <g transform="translate(20.559375 185.160739)scale(0.1 -0.1)">
       <use xlink:href="#HelveticaNeue-Medium-30"/>
       <use xlink:href="#HelveticaNeue-Medium-2e" x="55.599991"/>
       <use xlink:href="#HelveticaNeue-Medium-34" x="83.399979"/>
      </g>
     </g>
    </g>
    <g id="ytick_4">
     <g id="line2d_17">
      <g>
       <use xlink:href="#m7948cd1816" x="39.707813" y="127.953576" style="stroke: #000000; stroke-width: 0.8"/>
      </g>
     </g>
     <g id="line2d_18">
      <g>
       <use xlink:href="#m7948cd1816" x="597.707813" y="127.953576" style="stroke: #000000; stroke-width: 0.8"/>
      </g>
     </g>
     <g id="text_10">
      <!-- 0.6 -->
      <g transform="translate(20.559375 131.523888)scale(0.1 -0.1)">
       <use xlink:href="#HelveticaNeue-Medium-30"/>
       <use xlink:href="#HelveticaNeue-Medium-2e" x="55.599991"/>
       <use xlink:href="#HelveticaNeue-Medium-36" x="83.399979"/>
      </g>
     </g>
    </g>
    <g id="ytick_5">
     <g id="line2d_19">
      <g>
       <use xlink:href="#m7948cd1816" x="39.707813" y="74.316726" style="stroke: #000000; stroke-width: 0.8"/>
      </g>
     </g>
     <g id="line2d_20">
      <g>
       <use xlink:href="#m7948cd1816" x="597.707813" y="74.316726" style="stroke: #000000; stroke-width: 0.8"/>
      </g>
     </g>
     <g id="text_11">
      <!-- 0.8 -->
      <g transform="translate(20.559375 77.887038)scale(0.1 -0.1)">
       <use xlink:href="#HelveticaNeue-Medium-30"/>
       <use xlink:href="#HelveticaNeue-Medium-2e" x="55.599991"/>
       <use xlink:href="#HelveticaNeue-Medium-38" x="83.399979"/>
      </g>
     </g>
    </g>
    <g id="ytick_6">
     <g id="line2d_21">
      <g>
       <use xlink:href="#m7948cd1816" x="39.707813" y="20.679875" style="stroke: #000000; stroke-width: 0.8"/>
      </g>
     </g>
     <g id="line2d_22">
      <g>
       <use xlink:href="#m7948cd1816" x="597.707813" y="20.679875" style="stroke: #000000; stroke-width: 0.8"/>
      </g>
     </g>
     <g id="text_12">
      <!-- 1.0 -->
      <g transform="translate(20.559375 24.250188)scale(0.1 -0.1)">
       <use xlink:href="#HelveticaNeue-Medium-31"/>
       <use xlink:href="#HelveticaNeue-Medium-2e" x="55.599991"/>
       <use xlink:href="#HelveticaNeue-Medium-30" x="83.399979"/>
      </g>
     </g>
    </g>
    <g id="text_13">
     <!-- Spectral flux density [Jy] -->
     <g transform="translate(14.509375 212.713281)rotate(-90)scale(0.1 -0.1)">
      <defs>
       <path id="HelveticaNeue-Medium-53" d="M 211 1523 
C 230 390 1075 -109 2118 -109 
C 3027 -109 3936 301 3936 1325 
C 3936 1798 3648 2310 3046 2490 
C 2810 2560 1798 2822 1728 2842 
C 1402 2931 1184 3110 1184 3430 
C 1184 3891 1651 4026 2022 4026 
C 2573 4026 2970 3808 3008 3219 
L 3808 3219 
C 3808 4173 3008 4678 2054 4678 
C 1229 4678 384 4250 384 3334 
C 384 2861 614 2387 1395 2176 
C 2022 2003 2438 1920 2758 1798 
C 2944 1728 3136 1587 3136 1235 
C 3136 890 2874 544 2170 544 
C 1530 544 1011 819 1011 1523 
L 211 1523 
z
" transform="scale(0.015625)"/>
       <path id="HelveticaNeue-Medium-70" d="M 2950 1651 
C 2950 1075 2701 486 2035 486 
C 1446 486 1107 986 1107 1651 
C 1107 2355 1421 2822 2035 2822 
C 2637 2822 2950 2253 2950 1651 
z
M 403 -1222 
L 1133 -1222 
L 1133 429 
L 1146 429 
C 1376 64 1830 -90 2253 -90 
C 3232 -90 3680 749 3680 1638 
C 3680 2605 3174 3398 2131 3398 
C 1709 3398 1312 3238 1107 2861 
L 1094 2861 
L 1094 3309 
L 403 3309 
L 403 -1222 
z
" transform="scale(0.015625)"/>
       <path id="HelveticaNeue-Medium-63" d="M 3347 2202 
C 3277 3014 2624 3398 1856 3398 
C 768 3398 224 2618 224 1619 
C 224 646 794 -90 1830 -90 
C 2682 -90 3213 384 3347 1242 
L 2618 1242 
C 2547 768 2253 486 1830 486 
C 1197 486 954 1069 954 1619 
C 954 2624 1485 2822 1862 2822 
C 2266 2822 2560 2605 2618 2202 
L 3347 2202 
z
" transform="scale(0.015625)"/>
       <path id="HelveticaNeue-Medium-72" d="M 384 0 
L 1114 0 
L 1114 1574 
C 1114 2304 1510 2707 2010 2707 
C 2112 2707 2221 2688 2323 2675 
L 2323 3379 
C 2259 3386 2214 3398 2048 3398 
C 1600 3398 1165 3021 1082 2669 
L 1069 2669 
L 1069 3309 
L 384 3309 
L 384 0 
z
" transform="scale(0.015625)"/>
       <path id="HelveticaNeue-Medium-66" d="M 58 2765 
L 602 2765 
L 602 0 
L 1331 0 
L 1331 2765 
L 1952 2765 
L 1952 3309 
L 1331 3309 
L 1331 3648 
C 1331 3923 1491 3994 1690 3994 
C 1837 3994 1933 3981 2029 3955 
L 2029 4525 
C 1914 4557 1747 4570 1517 4570 
C 1043 4570 602 4429 602 3584 
L 602 3309 
L 58 3309 
L 58 2765 
z
" transform="scale(0.015625)"/>
       <path id="HelveticaNeue-Medium-75" d="M 3290 3309 
L 2560 3309 
L 2560 1389 
C 2560 877 2355 486 1747 486 
C 1350 486 1114 698 1114 1280 
L 1114 3309 
L 384 3309 
L 384 1210 
C 384 346 755 -90 1619 -90 
C 1984 -90 2381 128 2560 461 
L 2573 461 
L 2573 0 
L 3290 0 
L 3290 3309 
z
" transform="scale(0.015625)"/>
       <path id="HelveticaNeue-Medium-78" d="M 26 0 
L 883 0 
L 1696 1222 
L 2534 0 
L 3411 0 
L 2144 1779 
L 3270 3309 
L 2426 3309 
L 1702 2291 
L 1011 3309 
L 128 3309 
L 1274 1741 
L 26 0 
z
" transform="scale(0.015625)"/>
       <path id="HelveticaNeue-Medium-64" d="M 954 1619 
C 954 2214 1197 2822 1882 2822 
C 2445 2822 2797 2387 2797 1658 
C 2797 1082 2522 486 1869 486 
C 1235 486 954 1050 954 1619 
z
M 3501 4570 
L 2771 4570 
L 2771 2880 
L 2758 2880 
C 2534 3245 2074 3398 1658 3398 
C 934 3398 224 2874 224 1677 
C 224 685 730 -90 1773 -90 
C 2189 -90 2605 70 2797 448 
L 2810 448 
L 2810 0 
L 3501 0 
L 3501 4570 
z
" transform="scale(0.015625)"/>
       <path id="HelveticaNeue-Medium-73" d="M 205 1062 
C 218 282 838 -90 1670 -90 
C 2355 -90 3149 198 3149 986 
C 3149 1638 2611 1830 2080 1952 
C 1542 2074 1005 2125 1005 2483 
C 1005 2771 1395 2822 1606 2822 
C 1926 2822 2214 2726 2278 2381 
L 3040 2381 
C 2950 3117 2336 3398 1658 3398 
C 1056 3398 275 3174 275 2451 
C 275 1779 800 1587 1338 1472 
C 1869 1350 2400 1306 2419 922 
C 2438 544 1958 486 1683 486 
C 1293 486 973 640 934 1062 
L 205 1062 
z
" transform="scale(0.015625)"/>
       <path id="HelveticaNeue-Medium-69" d="M 403 0 
L 1133 0 
L 1133 3309 
L 403 3309 
L 403 0 
z
M 403 3878 
L 1133 3878 
L 1133 4570 
L 403 4570 
L 403 3878 
z
" transform="scale(0.015625)"/>
       <path id="HelveticaNeue-Medium-79" d="M 1274 13 
L 1190 -243 
C 1101 -525 1018 -704 678 -704 
C 563 -704 448 -678 333 -659 
L 333 -1274 
C 499 -1299 666 -1312 838 -1312 
C 1600 -1312 1773 -774 2010 -179 
L 3296 3309 
L 2534 3309 
L 1696 838 
L 1683 838 
L 819 3309 
L 19 3309 
L 1274 13 
z
" transform="scale(0.015625)"/>
       <path id="HelveticaNeue-Medium-4a" d="M 2950 4570 
L 2150 4570 
L 2150 1427 
C 2150 858 2029 544 1510 544 
C 1024 544 883 845 883 1363 
L 883 1600 
L 83 1600 
L 83 1357 
C 83 525 480 -109 1446 -109 
C 2758 -109 2950 678 2950 1472 
L 2950 4570 
z
" transform="scale(0.015625)"/>
      </defs>
      <use xlink:href="#HelveticaNeue-Medium-53"/>
      <use xlink:href="#HelveticaNeue-Medium-70" x="64.799988"/>
      <use xlink:href="#HelveticaNeue-Medium-65" x="125.899979"/>
      <use xlink:href="#HelveticaNeue-Medium-63" x="181.499969"/>
      <use xlink:href="#HelveticaNeue-Medium-74" x="237.09996"/>
      <use xlink:href="#HelveticaNeue-Medium-72" x="270.399948"/>
      <use xlink:href="#HelveticaNeue-Medium-61" x="305.599945"/>
      <use xlink:href="#HelveticaNeue-Medium-6c" x="361.199936"/>
      <use xlink:href="#HelveticaNeue-Medium-20" x="385.299927"/>
      <use xlink:href="#HelveticaNeue-Medium-66" x="413.099915"/>
      <use xlink:href="#HelveticaNeue-Medium-6c" x="444.599899"/>
      <use xlink:href="#HelveticaNeue-Medium-75" x="468.69989"/>
      <use xlink:href="#HelveticaNeue-Medium-78" x="526.099884"/>
      <use xlink:href="#HelveticaNeue-Medium-20" x="579.799881"/>
      <use xlink:href="#HelveticaNeue-Medium-64" x="607.599869"/>
      <use xlink:href="#HelveticaNeue-Medium-65" x="668.69986"/>
      <use xlink:href="#HelveticaNeue-Medium-6e" x="724.29985"/>
      <use xlink:href="#HelveticaNeue-Medium-73" x="781.699844"/>
      <use xlink:href="#HelveticaNeue-Medium-69" x="833.599838"/>
      <use xlink:href="#HelveticaNeue-Medium-74" x="857.699829"/>
      <use xlink:href="#HelveticaNeue-Medium-79" x="890.999817"/>
      <use xlink:href="#HelveticaNeue-Medium-20" x="942.899811"/>
      <use xlink:href="#HelveticaNeue-Medium-5b" x="970.699799"/>
      <use xlink:href="#HelveticaNeue-Medium-4a" x="1000.299789"/>
      <use xlink:href="#HelveticaNeue-Medium-79" x="1053.999786"/>
      <use xlink:href="#HelveticaNeue-Medium-5d" x="1105.89978"/>
     </g>
    </g>
    <g id="text_14">
     <!-- 1e−7 -->
     <g transform="translate(39.707813 14.340625)scale(0.1 -0.1)">
      <defs>
       <path id="HelveticaNeue-Medium-2212" d="M 3533 1293 
L 3533 1946 
L 307 1946 
L 307 1293 
L 3533 1293 
z
" transform="scale(0.015625)"/>
       <path id="HelveticaNeue-Medium-37" d="M 224 3827 
L 2547 3827 
C 1626 2790 915 1414 819 0 
L 1619 0 
C 1734 1619 2355 2816 3290 3872 
L 3290 4480 
L 224 4480 
L 224 3827 
z
" transform="scale(0.015625)"/>
      </defs>
      <use xlink:href="#HelveticaNeue-Medium-31"/>
      <use xlink:href="#HelveticaNeue-Medium-65" x="55.599991"/>
      <use xlink:href="#HelveticaNeue-Medium-2212" x="111.199982"/>
      <use xlink:href="#HelveticaNeue-Medium-37" x="171.199966"/>
     </g>
    </g>
   </g>
   <g id="LineCollection_1">
    <path d="M 65.071449 231.849791 
L 65.071449 221.621867 
" clip-path="url(#pfd3850a659)" style="fill: none; stroke: #008fd5; stroke-width: 1.5"/>
    <path d="M 81.504248 172.051689 
L 81.504248 144.839652 
" clip-path="url(#pfd3850a659)" style="fill: none; stroke: #008fd5; stroke-width: 1.5"/>
    <path d="M 102.728025 101.63613 
L 102.728025 58.06911 
" clip-path="url(#pfd3850a659)" style="fill: none; stroke: #008fd5; stroke-width: 1.5"/>
    <path d="M 130.139586 98.890813 
L 130.139586 51.636939 
" clip-path="url(#pfd3850a659)" style="fill: none; stroke: #008fd5; stroke-width: 1.5"/>
    <path d="M 165.542979 97.856702 
L 165.542979 59.677725 
" clip-path="url(#pfd3850a659)" style="fill: none; stroke: #008fd5; stroke-width: 1.5"/>
    <path d="M 211.268219 203.164485 
L 211.268219 178.37736 
" clip-path="url(#pfd3850a659)" style="fill: none; stroke: #008fd5; stroke-width: 1.5"/>
    <path d="M 270.324638 212.490119 
L 270.324638 198.773329 
" clip-path="url(#pfd3850a659)" style="fill: none; stroke: #008fd5; stroke-width: 1.5"/>
    <path d="M 346.598935 258.32248 
L 346.598935 251.5594 
" clip-path="url(#pfd3850a659)" style="fill: none; stroke: #008fd5; stroke-width: 1.5"/>
    <path d="M 445.110979 271.884616 
L 445.110979 268.81613 
" clip-path="url(#pfd3850a659)" style="fill: none; stroke: #008fd5; stroke-width: 1.5"/>
    <path d="M 572.344176 280.446042 
L 572.344176 279.134996 
" clip-path="url(#pfd3850a659)" style="fill: none; stroke: #008fd5; stroke-width: 1.5"/>
   </g>
   <g id="line2d_23">
    <defs>
     <path id="m5f8d48c136" d="M 2 0 
L -2 -0 
" style="stroke: #008fd5"/>
    </defs>
    <g clip-path="url(#pfd3850a659)">
     <use xlink:href="#m5f8d48c136" x="65.071449" y="231.849791" style="fill: #008fd5; stroke: #008fd5"/>
     <use xlink:href="#m5f8d48c136" x="81.504248" y="172.051689" style="fill: #008fd5; stroke: #008fd5"/>
     <use xlink:href="#m5f8d48c136" x="102.728025" y="101.63613" style="fill: #008fd5; stroke: #008fd5"/>
     <use xlink:href="#m5f8d48c136" x="130.139586" y="98.890813" style="fill: #008fd5; stroke: #008fd5"/>
     <use xlink:href="#m5f8d48c136" x="165.542979" y="97.856702" style="fill: #008fd5; stroke: #008fd5"/>
     <use xlink:href="#m5f8d48c136" x="211.268219" y="203.164485" style="fill: #008fd5; stroke: #008fd5"/>
     <use xlink:href="#m5f8d48c136" x="270.324638" y="212.490119" style="fill: #008fd5; stroke: #008fd5"/>
     <use xlink:href="#m5f8d48c136" x="346.598935" y="258.32248" style="fill: #008fd5; stroke: #008fd5"/>
     <use xlink:href="#m5f8d48c136" x="445.110979" y="271.884616" style="fill: #008fd5; stroke: #008fd5"/>
     <use xlink:href="#m5f8d48c136" x="572.344176" y="280.446042" style="fill: #008fd5; stroke: #008fd5"/>
    </g>
   </g>
   <g id="line2d_24">
    <g clip-path="url(#pfd3850a659)">
     <use xlink:href="#m5f8d48c136" x="65.071449" y="221.621867" style="fill: #008fd5; stroke: #008fd5"/>
     <use xlink:href="#m5f8d48c136" x="81.504248" y="144.839652" style="fill: #008fd5; stroke: #008fd5"/>
     <use xlink:href="#m5f8d48c136" x="102.728025" y="58.06911" style="fill: #008fd5; stroke: #008fd5"/>
     <use xlink:href="#m5f8d48c136" x="130.139586" y="51.636939" style="fill: #008fd5; stroke: #008fd5"/>
     <use xlink:href="#m5f8d48c136" x="165.542979" y="59.677725" style="fill: #008fd5; stroke: #008fd5"/>
     <use xlink:href="#m5f8d48c136" x="211.268219" y="178.37736" style="fill: #008fd5; stroke: #008fd5"/>
     <use xlink:href="#m5f8d48c136" x="270.324638" y="198.773329" style="fill: #008fd5; stroke: #008fd5"/>
     <use xlink:href="#m5f8d48c136" x="346.598935" y="251.5594" style="fill: #008fd5; stroke: #008fd5"/>
     <use xlink:href="#m5f8d48c136" x="445.110979" y="268.81613" style="fill: #008fd5; stroke: #008fd5"/>
     <use xlink:href="#m5f8d48c136" x="572.344176" y="279.134996" style="fill: #008fd5; stroke: #008fd5"/>
    </g>
   </g>
   <g id="line2d_25">
    <path d="M 65.071449 237.76009 
L 81.504248 149.08418 
L 102.728025 60.742444 
L 130.139586 37.322433 
L 165.542979 83.122273 
L 211.268219 154.181357 
L 270.324638 213.808269 
L 346.598935 251.708767 
L 445.110979 271.960592 
L 572.344176 281.625253 
" clip-path="url(#pfd3850a659)" style="fill: none; stroke: #000000; stroke-width: 1.5"/>
   </g>
   <g id="line2d_26">
    <defs>
     <path id="m33f6030714" d="M -3 3 
L 3 -3 
M -3 -3 
L 3 3 
" style="stroke: #008fd5"/>
    </defs>
    <g clip-path="url(#pfd3850a659)">
     <use xlink:href="#m33f6030714" x="65.071449" y="226.735829" style="fill: #008fd5; stroke: #008fd5"/>
     <use xlink:href="#m33f6030714" x="81.504248" y="158.445671" style="fill: #008fd5; stroke: #008fd5"/>
     <use xlink:href="#m33f6030714" x="102.728025" y="79.85262" style="fill: #008fd5; stroke: #008fd5"/>
     <use xlink:href="#m33f6030714" x="130.139586" y="75.263876" style="fill: #008fd5; stroke: #008fd5"/>
     <use xlink:href="#m33f6030714" x="165.542979" y="78.767213" style="fill: #008fd5; stroke: #008fd5"/>
     <use xlink:href="#m33f6030714" x="211.268219" y="190.770923" style="fill: #008fd5; stroke: #008fd5"/>
     <use xlink:href="#m33f6030714" x="270.324638" y="205.631724" style="fill: #008fd5; stroke: #008fd5"/>
     <use xlink:href="#m33f6030714" x="346.598935" y="254.94094" style="fill: #008fd5; stroke: #008fd5"/>
     <use xlink:href="#m33f6030714" x="445.110979" y="270.350373" style="fill: #008fd5; stroke: #008fd5"/>
     <use xlink:href="#m33f6030714" x="572.344176" y="279.790519" style="fill: #008fd5; stroke: #008fd5"/>
    </g>
   </g>
   <g id="patch_3">
    <path d="M 39.707813 294.540625 
L 39.707813 17.340625 
" style="fill: none; stroke: #000000; stroke-width: 0.8; stroke-linejoin: miter; stroke-linecap: square"/>
   </g>
   <g id="patch_4">
    <path d="M 597.707813 294.540625 
L 597.707813 17.340625 
" style="fill: none; stroke: #000000; stroke-width: 0.8; stroke-linejoin: miter; stroke-linecap: square"/>
   </g>
   <g id="patch_5">
    <path d="M 39.707813 294.540625 
L 597.707813 294.540625 
" style="fill: none; stroke: #000000; stroke-width: 0.8; stroke-linejoin: miter; stroke-linecap: square"/>
   </g>
   <g id="patch_6">
    <path d="M 39.707813 17.340625 
L 597.707813 17.340625 
" style="fill: none; stroke: #000000; stroke-width: 0.8; stroke-linejoin: miter; stroke-linecap: square"/>
   </g>
  </g>
 </g>
 <defs>
  <clipPath id="pfd3850a659">
   <rect x="39.707813" y="17.340625" width="558" height="277.2"/>
  </clipPath>
 </defs>
</svg>
