<?xml version="1.0" encoding="utf-8" standalone="no"?>
<!DOCTYPE svg PUBLIC "-//W3C//DTD SVG 1.1//EN"
  "http://www.w3.org/Graphics/SVG/1.1/DTD/svg11.dtd">
<svg height="310.062pt" version="1.1" viewBox="0 0 421.529375 310.062" width="421.529375pt" xmlns="http://www.w3.org/2000/svg" xmlns:xlink="http://www.w3.org/1999/xlink">
 <metadata>
  <rdf:RDF xmlns:cc="http://creativecommons.org/ns#" xmlns:dc="http://purl.org/dc/elements/1.1/" xmlns:rdf="http://www.w3.org/1999/02/22-rdf-syntax-ns#">
   <cc:Work>
    <dc:type rdf:resource="http://purl.org/dc/dcmitype/StillImage"/>
    <dc:date>2022-07-15T13:18:08.910496</dc:date>
    <dc:format>image/svg+xml</dc:format>
    <dc:creator>
     <cc:Agent>
      <dc:title>Matplotlib v3.4.2, https://matplotlib.org/</dc:title>
     </cc:Agent>
    </dc:creator>
   </cc:Work>
  </rdf:RDF>
 </metadata>
 <defs>
  <style type="text/css">*{stroke-linecap:butt;stroke-linejoin:round;}</style>
 </defs>
 <g id="figure_1">
  <g id="patch_1">
   <path d="M 0 310.062 
L 421.529375 310.062 
L 421.529375 0 
L 0 0 
z
" style="fill:#ffffff;"/>
  </g>
  <g id="axes_1">
   <g id="patch_2">
    <path d="M 55.459375 275.062 
L 412.579375 275.062 
L 412.579375 8.95 
L 55.459375 8.95 
z
" style="fill:#ffffff;"/>
   </g>
   <g id="PolyCollection_1">
    <defs>
     <path d="M 76.264702 -91.376919 
L 76.264702 -62.321709 
L 77.066912 -62.848261 
L 77.869122 -63.374813 
L 78.671333 -63.901366 
L 79.473543 -64.424697 
L 80.275753 -64.927035 
L 81.077964 -65.429373 
L 81.880174 -65.931711 
L 82.682385 -66.434049 
L 83.484595 -66.936387 
L 84.286805 -67.438726 
L 85.089016 -67.941065 
L 85.891226 -68.443403 
L 86.693437 -68.945742 
L 87.495647 -69.448081 
L 88.297857 -69.950421 
L 89.100068 -70.45276 
L 89.902278 -70.955099 
L 90.704489 -71.457439 
L 91.506699 -71.959779 
L 92.308909 -72.462118 
L 93.11112 -72.964458 
L 93.91333 -73.466799 
L 94.715541 -73.969139 
L 95.517751 -74.471479 
L 96.319961 -74.97382 
L 97.122172 -75.476161 
L 97.924382 -75.978501 
L 98.726592 -76.480842 
L 99.528803 -76.983183 
L 100.331013 -77.485525 
L 101.133224 -77.987866 
L 101.935434 -78.490207 
L 102.737644 -78.992549 
L 103.539855 -79.494891 
L 104.342065 -79.997233 
L 105.144276 -80.499575 
L 105.946486 -81.001917 
L 106.748696 -81.504259 
L 107.550907 -82.006602 
L 108.353117 -82.508944 
L 109.155328 -83.011287 
L 109.957538 -83.51363 
L 110.759748 -84.015973 
L 111.561959 -84.518316 
L 112.364169 -85.020659 
L 113.16638 -85.523002 
L 113.96859 -86.025346 
L 114.7708 -86.52769 
L 115.573011 -87.030033 
L 116.375221 -87.532377 
L 117.177431 -88.034721 
L 117.979642 -88.537065 
L 118.781852 -89.03941 
L 119.584063 -89.541754 
L 120.386273 -90.044099 
L 121.188483 -90.546444 
L 121.990694 -91.048788 
L 122.792904 -91.551133 
L 123.595115 -92.053479 
L 124.397325 -92.555824 
L 125.199535 -93.058169 
L 126.001746 -93.560515 
L 126.803956 -94.06286 
L 127.606167 -94.565206 
L 128.408377 -95.067552 
L 129.210587 -95.569898 
L 130.012798 -96.072244 
L 130.815008 -96.574591 
L 131.617219 -97.076937 
L 132.419429 -97.579284 
L 133.221639 -98.081631 
L 134.02385 -98.583978 
L 134.82606 -99.086325 
L 135.62827 -99.588672 
L 136.430481 -100.091019 
L 137.232691 -100.593366 
L 138.034902 -101.095714 
L 138.837112 -101.598062 
L 139.639322 -102.10041 
L 140.441533 -102.602758 
L 141.243743 -103.105106 
L 142.045954 -103.607454 
L 142.848164 -104.109802 
L 143.650374 -104.612151 
L 144.452585 -105.114499 
L 145.254795 -105.616848 
L 146.057006 -106.119197 
L 146.859216 -106.621546 
L 147.661426 -107.123895 
L 148.463637 -107.626245 
L 149.265847 -108.128594 
L 150.068058 -108.630944 
L 150.870268 -109.133293 
L 151.672478 -109.635643 
L 152.474689 -110.137993 
L 153.276899 -110.640343 
L 154.079109 -111.148324 
L 154.88132 -111.656592 
L 155.68353 -112.164861 
L 156.485741 -112.673129 
L 157.287951 -113.181398 
L 158.090161 -113.689666 
L 158.892372 -114.197935 
L 159.694582 -114.706204 
L 160.496793 -115.214473 
L 161.299003 -115.722742 
L 162.101213 -116.231012 
L 162.903424 -116.739281 
L 163.705634 -117.247551 
L 164.507845 -117.755821 
L 165.310055 -118.26409 
L 166.112265 -118.772361 
L 166.914476 -119.280631 
L 167.716686 -119.788901 
L 168.518897 -120.297171 
L 169.321107 -120.805442 
L 170.123317 -121.313713 
L 170.925528 -121.821984 
L 171.727738 -122.330255 
L 172.529948 -122.838526 
L 173.332159 -123.346797 
L 174.134369 -123.855068 
L 174.93658 -124.36334 
L 175.73879 -124.871611 
L 176.541 -125.379883 
L 177.343211 -125.888155 
L 178.145421 -126.396427 
L 178.947632 -126.904699 
L 179.749842 -127.412972 
L 180.552052 -127.921244 
L 181.354263 -128.429517 
L 182.156473 -128.93779 
L 182.958684 -129.446063 
L 183.760894 -129.954336 
L 184.563104 -130.462609 
L 185.365315 -130.970882 
L 186.167525 -131.479155 
L 186.969736 -131.987429 
L 187.771946 -132.495703 
L 188.574156 -133.003976 
L 189.376367 -133.51225 
L 190.178577 -134.020524 
L 190.980787 -134.528799 
L 191.782998 -135.037073 
L 192.585208 -135.545348 
L 193.387419 -136.053622 
L 194.189629 -136.561897 
L 194.991839 -137.070172 
L 195.79405 -137.579794 
L 196.59626 -138.093784 
L 197.398471 -138.607774 
L 198.200681 -139.121764 
L 199.002891 -139.635755 
L 199.805102 -140.149746 
L 200.607312 -140.663738 
L 201.409523 -141.179252 
L 202.211733 -141.698481 
L 203.013943 -142.217711 
L 203.816154 -142.736945 
L 204.618364 -143.25618 
L 205.420575 -143.775418 
L 206.222785 -144.294658 
L 207.024995 -144.813901 
L 207.827206 -145.333146 
L 208.629416 -145.852393 
L 209.431626 -146.386083 
L 210.233837 -146.930199 
L 211.036047 -147.474319 
L 211.838258 -148.01844 
L 212.640468 -148.562564 
L 213.442678 -149.10669 
L 214.244889 -149.650819 
L 215.047099 -150.19495 
L 215.84931 -150.739084 
L 216.65152 -151.28322 
L 217.45373 -151.827358 
L 218.255941 -152.371499 
L 219.058151 -152.915642 
L 219.860362 -153.459787 
L 220.662572 -154.005784 
L 221.464782 -154.553541 
L 222.266993 -155.101299 
L 223.069203 -155.649058 
L 223.871414 -156.196818 
L 224.673624 -156.744579 
L 225.475834 -157.29234 
L 226.278045 -157.840103 
L 227.080255 -158.387866 
L 227.882466 -158.93563 
L 228.684676 -159.483394 
L 229.486886 -160.03116 
L 230.289097 -160.578926 
L 231.091307 -161.126694 
L 231.893517 -161.674462 
L 232.695728 -162.222231 
L 233.497938 -162.770001 
L 234.300149 -163.317771 
L 235.102359 -163.865543 
L 235.904569 -164.413315 
L 236.70678 -164.961088 
L 237.50899 -165.486506 
L 238.311201 -165.975859 
L 239.113411 -166.465214 
L 239.915621 -166.954572 
L 240.717832 -167.443934 
L 241.520042 -167.933299 
L 242.322253 -168.422666 
L 243.124463 -168.912037 
L 243.926673 -169.401411 
L 244.728884 -169.890788 
L 245.531094 -170.380168 
L 246.333305 -170.869551 
L 247.135515 -171.358937 
L 247.937725 -171.840929 
L 248.739936 -172.30452 
L 249.542146 -172.76812 
L 250.344356 -173.231728 
L 251.146567 -173.695345 
L 251.948777 -174.158971 
L 252.750988 -174.629395 
L 253.553198 -175.140313 
L 254.355408 -175.651239 
L 255.157619 -176.162174 
L 255.959829 -176.672578 
L 256.76204 -177.154546 
L 257.56425 -177.649075 
L 258.36646 -178.14361 
L 259.168671 -178.638153 
L 259.970881 -179.132703 
L 260.773092 -179.652475 
L 261.575302 -180.175842 
L 262.377512 -180.609197 
L 263.179723 -181.052665 
L 263.981933 -181.519915 
L 264.784144 -181.98717 
L 265.586354 -182.45443 
L 266.388564 -182.921693 
L 267.190775 -183.388962 
L 267.992985 -183.868199 
L 268.795195 -184.353986 
L 269.597406 -184.839775 
L 270.399616 -185.328848 
L 271.201827 -185.819475 
L 272.004037 -186.310105 
L 272.806247 -186.80074 
L 273.608458 -187.301857 
L 274.410668 -187.824183 
L 275.212879 -188.346512 
L 276.015089 -188.869325 
L 276.817299 -189.398117 
L 277.61951 -189.926908 
L 278.42172 -190.455701 
L 279.223931 -190.984494 
L 280.026141 -191.513289 
L 280.828351 -192.042083 
L 281.630562 -192.447408 
L 282.432772 -192.815885 
L 283.234983 -193.285369 
L 284.037193 -193.789879 
L 284.839403 -194.303515 
L 285.641614 -194.817151 
L 286.443824 -195.330788 
L 287.246034 -195.844425 
L 288.048245 -196.358062 
L 288.850455 -196.8717 
L 289.652666 -197.385338 
L 290.454876 -197.898976 
L 291.257086 -198.412615 
L 292.059297 -198.892122 
L 292.861507 -199.395995 
L 293.663718 -199.900758 
L 294.465928 -200.403649 
L 295.268138 -200.89603 
L 296.070349 -201.38842 
L 296.872559 -201.880821 
L 297.67477 -202.373231 
L 298.47698 -202.865651 
L 299.27919 -203.358081 
L 300.081401 -203.850521 
L 300.883611 -204.349482 
L 301.685822 -204.853438 
L 302.488032 -205.273545 
L 303.290242 -205.666579 
L 304.092453 -206.059629 
L 304.894663 -206.452694 
L 305.696873 -206.845775 
L 306.499084 -207.238871 
L 307.301294 -207.631982 
L 308.103505 -208.02511 
L 308.905715 -208.418252 
L 309.707925 -208.845576 
L 310.510136 -209.302268 
L 311.312346 -209.758976 
L 312.114557 -210.215699 
L 312.916767 -210.672438 
L 313.718977 -211.136773 
L 314.521188 -211.620446 
L 315.323398 -212.104119 
L 316.125609 -212.587793 
L 316.927819 -213.055622 
L 317.730029 -213.493376 
L 318.53224 -213.931138 
L 319.33445 -214.368908 
L 320.136661 -214.806687 
L 320.938871 -215.244474 
L 321.741081 -215.688443 
L 322.543292 -216.155434 
L 323.345502 -216.564035 
L 324.147712 -216.972636 
L 324.949923 -217.381238 
L 325.752133 -217.78984 
L 326.554344 -218.205739 
L 327.356554 -218.623759 
L 328.158764 -219.04178 
L 328.960975 -219.4598 
L 329.763185 -219.877822 
L 330.565396 -220.295843 
L 331.367606 -220.713865 
L 332.169816 -221.131887 
L 332.972027 -221.54991 
L 333.774237 -221.967933 
L 334.576448 -222.385956 
L 335.378658 -222.803979 
L 336.180868 -223.222003 
L 336.983079 -223.640027 
L 337.785289 -224.058052 
L 338.5875 -224.476077 
L 339.38971 -224.894102 
L 340.19192 -225.312128 
L 340.994131 -225.730154 
L 341.796341 -226.14818 
L 342.598551 -226.566207 
L 343.400762 -226.977438 
L 344.202972 -227.381778 
L 345.005183 -227.786119 
L 345.807393 -228.19046 
L 346.609603 -228.594801 
L 347.411814 -228.999142 
L 348.214024 -229.403483 
L 349.016235 -229.807824 
L 349.818445 -230.212164 
L 350.620655 -230.616505 
L 351.422866 -231.020846 
L 352.225076 -231.410407 
L 353.027287 -231.797905 
L 353.829497 -232.185403 
L 354.631707 -232.572902 
L 355.433918 -232.960402 
L 356.236128 -233.347903 
L 357.038339 -233.735404 
L 357.840549 -234.122905 
L 358.642759 -234.510408 
L 359.44497 -234.897911 
L 360.24718 -235.285414 
L 361.04939 -235.672919 
L 361.851601 -236.060424 
L 362.653811 -236.44793 
L 363.456022 -236.836592 
L 364.258232 -237.237171 
L 365.060442 -237.637751 
L 365.862653 -238.038332 
L 366.664863 -238.438913 
L 367.467074 -238.839495 
L 368.269284 -239.243378 
L 369.071494 -239.65247 
L 369.873705 -240.061562 
L 370.675915 -240.470655 
L 371.478126 -240.879747 
L 372.280336 -241.288841 
L 373.082546 -241.697935 
L 373.884757 -242.112271 
L 374.686967 -242.536139 
L 375.489178 -242.973229 
L 376.291388 -243.415207 
L 377.093598 -243.857185 
L 377.895809 -244.299165 
L 378.698019 -244.741145 
L 379.50023 -245.183125 
L 380.30244 -245.609758 
L 381.10465 -246.017947 
L 381.906861 -246.426138 
L 382.709071 -246.834328 
L 383.511281 -247.24252 
L 384.313492 -247.650712 
L 385.115702 -248.058904 
L 385.917913 -248.469439 
L 386.720123 -248.889093 
L 387.522333 -249.308747 
L 388.324544 -249.728402 
L 389.126754 -250.148058 
L 389.928965 -250.567714 
L 390.731175 -250.98737 
L 391.533385 -251.407027 
L 392.335596 -251.826685 
L 393.137806 -252.246343 
L 393.940017 -252.666001 
L 394.742227 -253.08566 
L 395.544437 -253.50532 
L 396.346648 -253.92498 
L 396.346648 -271.822793 
L 396.346648 -271.822793 
L 395.544437 -271.307784 
L 394.742227 -270.792777 
L 393.940017 -270.277772 
L 393.137806 -269.762768 
L 392.335596 -269.247767 
L 391.533385 -268.732767 
L 390.731175 -268.217769 
L 389.928965 -267.702773 
L 389.126754 -267.185483 
L 388.324544 -266.656452 
L 387.522333 -266.127422 
L 386.720123 -265.598393 
L 385.917913 -265.069365 
L 385.115702 -264.540338 
L 384.313492 -264.011312 
L 383.511281 -263.482288 
L 382.709071 -262.953265 
L 381.906861 -262.424243 
L 381.10465 -261.895222 
L 380.30244 -261.366202 
L 379.50023 -260.837183 
L 378.698019 -260.308166 
L 377.895809 -259.77915 
L 377.093598 -259.250135 
L 376.291388 -258.721121 
L 375.489178 -258.192108 
L 374.686967 -257.663096 
L 373.884757 -257.134086 
L 373.082546 -256.605076 
L 372.280336 -256.076068 
L 371.478126 -255.547061 
L 370.675915 -255.018055 
L 369.873705 -254.489051 
L 369.071494 -253.960047 
L 368.269284 -253.431045 
L 367.467074 -252.928968 
L 366.664863 -252.443964 
L 365.862653 -251.958969 
L 365.060442 -251.473983 
L 364.258232 -250.942655 
L 363.456022 -250.407967 
L 362.653811 -249.873289 
L 361.851601 -249.338621 
L 361.04939 -248.803963 
L 360.24718 -248.269313 
L 359.44497 -247.735288 
L 358.642759 -247.224083 
L 357.840549 -246.712881 
L 357.038339 -246.201683 
L 356.236128 -245.69049 
L 355.433918 -245.1793 
L 354.631707 -244.668115 
L 353.829497 -244.156933 
L 353.027287 -243.645756 
L 352.225076 -243.134583 
L 351.422866 -242.623414 
L 350.620655 -242.112249 
L 349.818445 -241.601088 
L 349.016235 -241.089931 
L 348.214024 -240.578778 
L 347.411814 -240.06763 
L 346.609603 -239.556485 
L 345.807393 -239.045345 
L 345.005183 -238.534208 
L 344.202972 -238.016381 
L 343.400762 -237.487214 
L 342.598551 -236.958049 
L 341.796341 -236.428885 
L 340.994131 -235.899722 
L 340.19192 -235.37056 
L 339.38971 -234.8414 
L 338.5875 -234.312241 
L 337.785289 -233.783083 
L 336.983079 -233.253926 
L 336.180868 -232.763035 
L 335.378658 -232.302593 
L 334.576448 -231.842169 
L 333.774237 -231.381764 
L 332.972027 -230.921376 
L 332.169816 -230.461006 
L 331.367606 -230.000655 
L 330.565396 -229.540322 
L 329.763185 -229.080007 
L 328.960975 -228.61971 
L 328.158764 -228.159431 
L 327.356554 -227.68503 
L 326.554344 -227.156441 
L 325.752133 -226.62787 
L 324.949923 -226.099316 
L 324.147712 -225.625612 
L 323.345502 -225.18613 
L 322.543292 -224.746647 
L 321.741081 -224.307165 
L 320.938871 -223.867682 
L 320.136661 -223.4282 
L 319.33445 -222.984286 
L 318.53224 -222.524997 
L 317.730029 -222.065718 
L 316.927819 -221.60645 
L 316.125609 -221.147193 
L 315.323398 -220.670386 
L 314.521188 -220.139611 
L 313.718977 -219.608836 
L 312.916767 -219.078061 
L 312.114557 -218.547286 
L 311.312346 -218.016511 
L 310.510136 -217.485736 
L 309.707925 -216.95496 
L 308.905715 -216.424185 
L 308.103505 -215.89341 
L 307.301294 -215.362635 
L 306.499084 -214.83186 
L 305.696873 -214.301085 
L 304.894663 -213.77031 
L 304.092453 -213.241455 
L 303.290242 -212.728042 
L 302.488032 -212.214639 
L 301.685822 -211.701244 
L 300.883611 -211.187859 
L 300.081401 -210.674483 
L 299.27919 -210.158587 
L 298.47698 -209.630558 
L 297.67477 -209.10253 
L 296.872559 -208.574502 
L 296.070349 -208.046475 
L 295.268138 -207.518447 
L 294.465928 -206.99042 
L 293.663718 -206.462393 
L 292.861507 -205.934366 
L 292.059297 -205.40634 
L 291.257086 -204.878313 
L 290.454876 -204.350287 
L 289.652666 -203.822261 
L 288.850455 -203.294236 
L 288.048245 -202.76621 
L 287.246034 -202.238185 
L 286.443824 -201.71016 
L 285.641614 -201.182136 
L 284.839403 -200.66311 
L 284.037193 -200.169427 
L 283.234983 -199.675744 
L 282.432772 -199.23101 
L 281.630562 -198.79868 
L 280.828351 -198.366364 
L 280.026141 -197.934064 
L 279.223931 -197.501779 
L 278.42172 -197.06951 
L 277.61951 -196.592356 
L 276.817299 -196.097197 
L 276.015089 -195.602053 
L 275.212879 -195.141188 
L 274.410668 -194.724246 
L 273.608458 -194.307304 
L 272.806247 -193.890363 
L 272.004037 -193.473421 
L 271.201827 -193.05648 
L 270.399616 -192.639539 
L 269.597406 -192.222598 
L 268.795195 -191.805657 
L 267.992985 -191.388716 
L 267.190775 -190.983901 
L 266.388564 -190.595428 
L 265.586354 -190.206956 
L 264.784144 -189.818486 
L 263.981933 -189.430016 
L 263.179723 -189.041548 
L 262.377512 -188.65308 
L 261.575302 -188.264613 
L 260.773092 -187.876147 
L 259.970881 -187.487682 
L 259.168671 -187.099218 
L 258.36646 -186.710755 
L 257.56425 -186.322293 
L 256.76204 -185.933832 
L 255.959829 -185.545372 
L 255.157619 -185.156913 
L 254.355408 -184.768455 
L 253.553198 -184.364486 
L 252.750988 -183.960291 
L 251.948777 -183.556098 
L 251.146567 -183.151905 
L 250.344356 -182.747713 
L 249.542146 -182.343523 
L 248.739936 -181.939333 
L 247.937725 -181.535144 
L 247.135515 -181.130956 
L 246.333305 -180.72677 
L 245.531094 -180.322584 
L 244.728884 -179.911349 
L 243.926673 -179.493697 
L 243.124463 -179.076047 
L 242.322253 -178.658399 
L 241.520042 -178.240752 
L 240.717832 -177.823107 
L 239.915621 -177.405465 
L 239.113411 -176.987824 
L 238.311201 -176.563555 
L 237.50899 -176.123975 
L 236.70678 -175.684397 
L 235.904569 -175.24342 
L 235.102359 -174.78808 
L 234.300149 -174.332742 
L 233.497938 -173.877405 
L 232.695728 -173.401737 
L 231.893517 -172.924187 
L 231.091307 -172.499621 
L 230.289097 -172.093937 
L 229.486886 -171.662548 
L 228.684676 -171.231166 
L 227.882466 -170.799793 
L 227.080255 -170.368427 
L 226.278045 -169.937069 
L 225.475834 -169.505719 
L 224.673624 -169.087082 
L 223.871414 -168.747678 
L 223.069203 -168.405249 
L 222.266993 -168.04566 
L 221.464782 -167.686096 
L 220.662572 -167.326556 
L 219.860362 -166.919108 
L 219.058151 -166.480219 
L 218.255941 -166.041354 
L 217.45373 -165.587253 
L 216.65152 -165.132002 
L 215.84931 -164.676756 
L 215.047099 -164.221514 
L 214.244889 -163.766276 
L 213.442678 -163.311042 
L 212.640468 -162.855813 
L 211.838258 -162.400588 
L 211.036047 -161.945368 
L 210.233837 -161.490152 
L 209.431626 -161.03494 
L 208.629416 -160.579733 
L 207.827206 -160.12453 
L 207.024995 -159.701521 
L 206.222785 -159.284588 
L 205.420575 -158.867655 
L 204.618364 -158.450723 
L 203.816154 -158.033791 
L 203.013943 -157.616858 
L 202.211733 -157.199926 
L 201.409523 -156.782994 
L 200.607312 -156.366062 
L 199.805102 -155.949131 
L 199.002891 -155.532199 
L 198.200681 -155.115267 
L 197.398471 -154.698336 
L 196.59626 -154.281405 
L 195.79405 -153.864473 
L 194.991839 -153.447542 
L 194.189629 -153.030611 
L 193.387419 -152.61368 
L 192.585208 -152.196749 
L 191.782998 -151.779819 
L 190.980787 -151.362888 
L 190.178577 -150.945958 
L 189.376367 -150.522766 
L 188.574156 -150.099407 
L 187.771946 -149.676049 
L 186.969736 -149.252692 
L 186.167525 -148.829335 
L 185.365315 -148.405979 
L 184.563104 -147.982624 
L 183.760894 -147.559269 
L 182.958684 -147.135915 
L 182.156473 -146.712561 
L 181.354263 -146.289208 
L 180.552052 -145.865855 
L 179.749842 -145.442504 
L 178.947632 -145.019153 
L 178.145421 -144.595802 
L 177.343211 -144.172452 
L 176.541 -143.749103 
L 175.73879 -143.325754 
L 174.93658 -142.902406 
L 174.134369 -142.479059 
L 173.332159 -142.055712 
L 172.529948 -141.632365 
L 171.727738 -141.20902 
L 170.925528 -140.785675 
L 170.123317 -140.36233 
L 169.321107 -139.938987 
L 168.518897 -139.515644 
L 167.716686 -139.092301 
L 166.914476 -138.668959 
L 166.112265 -138.245618 
L 165.310055 -137.822277 
L 164.507845 -137.398937 
L 163.705634 -136.975598 
L 162.903424 -136.552259 
L 162.101213 -136.128921 
L 161.299003 -135.705583 
L 160.496793 -135.282246 
L 159.694582 -134.85891 
L 158.892372 -134.435574 
L 158.090161 -134.012239 
L 157.287951 -133.588904 
L 156.485741 -133.16557 
L 155.68353 -132.742237 
L 154.88132 -132.318905 
L 154.079109 -131.895572 
L 153.276899 -131.472241 
L 152.474689 -131.04891 
L 151.672478 -130.62558 
L 150.870268 -130.20225 
L 150.068058 -129.778922 
L 149.265847 -129.355593 
L 148.463637 -128.932265 
L 147.661426 -128.508938 
L 146.859216 -128.085612 
L 146.057006 -127.664411 
L 145.254795 -127.252737 
L 144.452585 -126.841066 
L 143.650374 -126.429396 
L 142.848164 -126.00396 
L 142.045954 -125.571091 
L 141.243743 -125.142388 
L 140.441533 -124.726632 
L 139.639322 -124.310877 
L 138.837112 -123.895121 
L 138.034902 -123.479366 
L 137.232691 -123.063611 
L 136.430481 -122.647856 
L 135.62827 -122.232102 
L 134.82606 -121.816348 
L 134.02385 -121.400594 
L 133.221639 -120.98484 
L 132.419429 -120.569087 
L 131.617219 -120.153334 
L 130.815008 -119.737581 
L 130.012798 -119.321829 
L 129.210587 -118.906077 
L 128.408377 -118.490325 
L 127.606167 -118.074573 
L 126.803956 -117.658822 
L 126.001746 -117.243071 
L 125.199535 -116.827321 
L 124.397325 -116.41157 
L 123.595115 -115.99582 
L 122.792904 -115.58007 
L 121.990694 -115.164321 
L 121.188483 -114.748571 
L 120.386273 -114.332822 
L 119.584063 -113.917074 
L 118.781852 -113.501325 
L 117.979642 -113.085577 
L 117.177431 -112.669829 
L 116.375221 -112.254082 
L 115.573011 -111.838335 
L 114.7708 -111.422588 
L 113.96859 -111.006841 
L 113.16638 -110.591095 
L 112.364169 -110.175348 
L 111.561959 -109.759603 
L 110.759748 -109.343857 
L 109.957538 -108.928112 
L 109.155328 -108.515943 
L 108.353117 -108.110938 
L 107.550907 -107.705933 
L 106.748696 -107.300929 
L 105.946486 -106.889532 
L 105.144276 -106.477886 
L 104.342065 -106.066242 
L 103.539855 -105.654599 
L 102.737644 -105.242957 
L 101.935434 -104.831317 
L 101.133224 -104.419677 
L 100.331013 -104.008039 
L 99.528803 -103.596402 
L 98.726592 -103.184767 
L 97.924382 -102.773132 
L 97.122172 -102.361499 
L 96.319961 -101.949867 
L 95.517751 -101.538237 
L 94.715541 -101.126607 
L 93.91333 -100.714979 
L 93.11112 -100.303352 
L 92.308909 -99.891726 
L 91.506699 -99.480102 
L 90.704489 -99.068479 
L 89.902278 -98.656857 
L 89.100068 -98.245236 
L 88.297857 -97.819202 
L 87.495647 -97.389708 
L 86.693437 -96.960215 
L 85.891226 -96.530723 
L 85.089016 -96.101233 
L 84.286805 -95.671744 
L 83.484595 -95.242256 
L 82.682385 -94.812769 
L 81.880174 -94.383283 
L 81.077964 -93.953799 
L 80.275753 -93.524316 
L 79.473543 -93.094834 
L 78.671333 -92.665354 
L 77.869122 -92.235874 
L 77.066912 -91.806396 
L 76.264702 -91.376919 
z
" id="m97252806c0" style="stroke:#000000;stroke-opacity:0.1;"/>
    </defs>
    <g clip-path="url(#pc006a05008)">
     <use style="fill-opacity:0.1;stroke:#000000;stroke-opacity:0.1;" x="0" xlink:href="#m97252806c0" y="310.062"/>
    </g>
   </g>
   <g id="matplotlib.axis_1">
    <g id="xtick_1">
     <g id="line2d_1">
      <defs>
       <path d="M 0 1.75 
L 0 -1.75 
" id="mc8e29f090b" style="stroke:#000000;stroke-width:0.8;"/>
      </defs>
      <g>
       <use style="stroke:#000000;stroke-width:0.8;" x="76.264702" xlink:href="#mc8e29f090b" y="275.062"/>
      </g>
     </g>
     <g id="line2d_2">
      <g>
       <use style="stroke:#000000;stroke-width:0.8;" x="76.264702" xlink:href="#mc8e29f090b" y="8.95"/>
      </g>
     </g>
     <g id="text_1">
      <!-- 9.0 -->
      <g transform="translate(69.315483 287.452625)scale(0.1 -0.1)">
       <defs>
        <path d="M 1728 3962 
C 2272 3962 2541 3526 2541 3046 
C 2541 2554 2272 2106 1728 2106 
C 1197 2106 947 2560 947 3046 
C 947 3533 1197 3962 1728 3962 
z
M 301 1133 
C 339 403 941 -90 1651 -90 
C 2918 -90 3341 1158 3341 2227 
C 3341 3533 3027 4570 1760 4570 
C 781 4570 218 3910 218 3040 
C 218 2125 787 1530 1632 1530 
C 2042 1530 2406 1722 2598 2067 
L 2611 2054 
C 2566 1466 2477 518 1683 518 
C 1306 518 1062 768 1030 1133 
L 301 1133 
z
" id="HelveticaNeue-Medium-39" transform="scale(0.015625)"/>
        <path d="M 442 0 
L 1331 0 
L 1331 864 
L 442 864 
L 442 0 
z
" id="HelveticaNeue-Medium-2e" transform="scale(0.015625)"/>
        <path d="M 1779 518 
C 1139 518 960 1306 960 2240 
C 960 3174 1139 3962 1779 3962 
C 2419 3962 2598 3174 2598 2240 
C 2598 1306 2419 518 1779 518 
z
M 1779 4570 
C 493 4570 230 3258 230 2240 
C 230 1222 493 -90 1779 -90 
C 3066 -90 3328 1222 3328 2240 
C 3328 3258 3066 4570 1779 4570 
z
" id="HelveticaNeue-Medium-30" transform="scale(0.015625)"/>
       </defs>
       <use xlink:href="#HelveticaNeue-Medium-39"/>
       <use x="55.599991" xlink:href="#HelveticaNeue-Medium-2e"/>
       <use x="83.399979" xlink:href="#HelveticaNeue-Medium-30"/>
      </g>
     </g>
    </g>
    <g id="xtick_2">
     <g id="line2d_3">
      <g>
       <use style="stroke:#000000;stroke-width:0.8;" x="121.990694" xlink:href="#mc8e29f090b" y="275.062"/>
      </g>
     </g>
     <g id="line2d_4">
      <g>
       <use style="stroke:#000000;stroke-width:0.8;" x="121.990694" xlink:href="#mc8e29f090b" y="8.95"/>
      </g>
     </g>
     <g id="text_2">
      <!-- 9.5 -->
      <g transform="translate(115.041475 287.452625)scale(0.1 -0.1)">
       <defs>
        <path d="M 307 2029 
L 1037 2029 
C 1152 2342 1453 2438 1760 2438 
C 2349 2438 2611 1997 2611 1504 
C 2611 960 2400 518 1779 518 
C 1306 518 998 794 954 1274 
L 224 1274 
C 256 378 928 -90 1792 -90 
C 2893 -90 3341 800 3341 1517 
C 3341 2374 2829 3014 1939 3014 
C 1638 3014 1312 2893 1114 2675 
L 1101 2688 
L 1331 3827 
L 3104 3827 
L 3104 4480 
L 787 4480 
L 307 2029 
z
" id="HelveticaNeue-Medium-35" transform="scale(0.015625)"/>
       </defs>
       <use xlink:href="#HelveticaNeue-Medium-39"/>
       <use x="55.599991" xlink:href="#HelveticaNeue-Medium-2e"/>
       <use x="83.399979" xlink:href="#HelveticaNeue-Medium-35"/>
      </g>
     </g>
    </g>
    <g id="xtick_3">
     <g id="line2d_5">
      <g>
       <use style="stroke:#000000;stroke-width:0.8;" x="167.716686" xlink:href="#mc8e29f090b" y="275.062"/>
      </g>
     </g>
     <g id="line2d_6">
      <g>
       <use style="stroke:#000000;stroke-width:0.8;" x="167.716686" xlink:href="#mc8e29f090b" y="8.95"/>
      </g>
     </g>
     <g id="text_3">
      <!-- 10.0 -->
      <g transform="translate(157.98778 287.452625)scale(0.1 -0.1)">
       <defs>
        <path d="M 339 3162 
L 1440 3162 
L 1440 0 
L 2240 0 
L 2240 4480 
L 1645 4480 
C 1536 3942 954 3731 339 3738 
L 339 3162 
z
" id="HelveticaNeue-Medium-31" transform="scale(0.015625)"/>
       </defs>
       <use xlink:href="#HelveticaNeue-Medium-31"/>
       <use x="55.599991" xlink:href="#HelveticaNeue-Medium-30"/>
       <use x="111.199982" xlink:href="#HelveticaNeue-Medium-2e"/>
       <use x="138.999969" xlink:href="#HelveticaNeue-Medium-30"/>
      </g>
     </g>
    </g>
    <g id="xtick_4">
     <g id="line2d_7">
      <g>
       <use style="stroke:#000000;stroke-width:0.8;" x="213.442678" xlink:href="#mc8e29f090b" y="275.062"/>
      </g>
     </g>
     <g id="line2d_8">
      <g>
       <use style="stroke:#000000;stroke-width:0.8;" x="213.442678" xlink:href="#mc8e29f090b" y="8.95"/>
      </g>
     </g>
     <g id="text_4">
      <!-- 10.5 -->
      <g transform="translate(203.713772 287.452625)scale(0.1 -0.1)">
       <use xlink:href="#HelveticaNeue-Medium-31"/>
       <use x="55.599991" xlink:href="#HelveticaNeue-Medium-30"/>
       <use x="111.199982" xlink:href="#HelveticaNeue-Medium-2e"/>
       <use x="138.999969" xlink:href="#HelveticaNeue-Medium-35"/>
      </g>
     </g>
    </g>
    <g id="xtick_5">
     <g id="line2d_9">
      <g>
       <use style="stroke:#000000;stroke-width:0.8;" x="259.168671" xlink:href="#mc8e29f090b" y="275.062"/>
      </g>
     </g>
     <g id="line2d_10">
      <g>
       <use style="stroke:#000000;stroke-width:0.8;" x="259.168671" xlink:href="#mc8e29f090b" y="8.95"/>
      </g>
     </g>
     <g id="text_5">
      <!-- 11.0 -->
      <g transform="translate(249.439765 287.452625)scale(0.1 -0.1)">
       <use xlink:href="#HelveticaNeue-Medium-31"/>
       <use x="55.599991" xlink:href="#HelveticaNeue-Medium-31"/>
       <use x="111.199982" xlink:href="#HelveticaNeue-Medium-2e"/>
       <use x="138.999969" xlink:href="#HelveticaNeue-Medium-30"/>
      </g>
     </g>
    </g>
    <g id="xtick_6">
     <g id="line2d_11">
      <g>
       <use style="stroke:#000000;stroke-width:0.8;" x="304.894663" xlink:href="#mc8e29f090b" y="275.062"/>
      </g>
     </g>
     <g id="line2d_12">
      <g>
       <use style="stroke:#000000;stroke-width:0.8;" x="304.894663" xlink:href="#mc8e29f090b" y="8.95"/>
      </g>
     </g>
     <g id="text_6">
      <!-- 11.5 -->
      <g transform="translate(295.165757 287.452625)scale(0.1 -0.1)">
       <use xlink:href="#HelveticaNeue-Medium-31"/>
       <use x="55.599991" xlink:href="#HelveticaNeue-Medium-31"/>
       <use x="111.199982" xlink:href="#HelveticaNeue-Medium-2e"/>
       <use x="138.999969" xlink:href="#HelveticaNeue-Medium-35"/>
      </g>
     </g>
    </g>
    <g id="xtick_7">
     <g id="line2d_13">
      <g>
       <use style="stroke:#000000;stroke-width:0.8;" x="350.620655" xlink:href="#mc8e29f090b" y="275.062"/>
      </g>
     </g>
     <g id="line2d_14">
      <g>
       <use style="stroke:#000000;stroke-width:0.8;" x="350.620655" xlink:href="#mc8e29f090b" y="8.95"/>
      </g>
     </g>
     <g id="text_7">
      <!-- 12.0 -->
      <g transform="translate(340.891749 287.452625)scale(0.1 -0.1)">
       <defs>
        <path d="M 3309 653 
L 1126 653 
C 1254 1050 1798 1325 2317 1683 
C 2829 2042 3315 2483 3315 3194 
C 3315 3770 2970 4570 1875 4570 
C 877 4570 333 3834 333 2842 
L 1062 2842 
C 1082 3469 1254 3962 1830 3962 
C 2458 3962 2592 3488 2586 3168 
C 2573 2470 1818 2118 1235 1696 
C 634 1293 256 736 250 0 
L 3309 0 
L 3309 653 
z
" id="HelveticaNeue-Medium-32" transform="scale(0.015625)"/>
       </defs>
       <use xlink:href="#HelveticaNeue-Medium-31"/>
       <use x="55.599991" xlink:href="#HelveticaNeue-Medium-32"/>
       <use x="111.199982" xlink:href="#HelveticaNeue-Medium-2e"/>
       <use x="138.999969" xlink:href="#HelveticaNeue-Medium-30"/>
      </g>
     </g>
    </g>
    <g id="xtick_8">
     <g id="line2d_15">
      <g>
       <use style="stroke:#000000;stroke-width:0.8;" x="396.346648" xlink:href="#mc8e29f090b" y="275.062"/>
      </g>
     </g>
     <g id="line2d_16">
      <g>
       <use style="stroke:#000000;stroke-width:0.8;" x="396.346648" xlink:href="#mc8e29f090b" y="8.95"/>
      </g>
     </g>
     <g id="text_8">
      <!-- 12.5 -->
      <g transform="translate(386.617741 287.452625)scale(0.1 -0.1)">
       <use xlink:href="#HelveticaNeue-Medium-31"/>
       <use x="55.599991" xlink:href="#HelveticaNeue-Medium-32"/>
       <use x="111.199982" xlink:href="#HelveticaNeue-Medium-2e"/>
       <use x="138.999969" xlink:href="#HelveticaNeue-Medium-35"/>
      </g>
     </g>
    </g>
    <g id="text_9">
     <!-- Bulge mass [log, $M_\odot$] -->
     <g transform="translate(183.919375 300.762)scale(0.1 -0.1)">
      <defs>
       <path d="M 1286 2080 
L 2701 2080 
C 3187 2080 3469 1824 3469 1376 
C 3469 915 3187 653 2701 653 
L 1286 653 
L 1286 2080 
z
M 486 0 
L 2586 0 
C 3770 0 4269 557 4269 1274 
C 4269 1894 3968 2330 3411 2451 
L 3411 2464 
C 3827 2643 4064 2976 4064 3437 
C 4064 4198 3526 4570 2707 4570 
L 486 4570 
L 486 0 
z
M 1286 3917 
L 2592 3917 
C 3027 3917 3264 3750 3264 3290 
C 3264 2880 2976 2656 2592 2656 
L 1286 2656 
L 1286 3917 
z
" id="HelveticaNeue-Medium-42" transform="scale(0.015625)"/>
       <path d="M 3290 3309 
L 2560 3309 
L 2560 1389 
C 2560 877 2355 486 1747 486 
C 1350 486 1114 698 1114 1280 
L 1114 3309 
L 384 3309 
L 384 1210 
C 384 346 755 -90 1619 -90 
C 1984 -90 2381 128 2560 461 
L 2573 461 
L 2573 0 
L 3290 0 
L 3290 3309 
z
" id="HelveticaNeue-Medium-75" transform="scale(0.015625)"/>
       <path d="M 403 0 
L 1133 0 
L 1133 4570 
L 403 4570 
L 403 0 
z
" id="HelveticaNeue-Medium-6c" transform="scale(0.015625)"/>
       <path d="M 1824 576 
C 1216 576 954 1126 954 1670 
C 954 2221 1178 2822 1824 2822 
C 2458 2822 2714 2298 2714 1728 
C 2714 1165 2470 576 1824 576 
z
M 3443 3309 
L 2714 3309 
L 2714 2854 
L 2701 2854 
C 2515 3226 2138 3398 1722 3398 
C 781 3398 224 2630 224 1741 
C 224 794 659 0 1709 0 
C 2118 0 2496 218 2701 582 
L 2714 582 
L 2714 77 
C 2714 -467 2451 -768 1862 -768 
C 1491 -768 1158 -698 1069 -282 
L 339 -282 
C 403 -1056 1152 -1312 1818 -1312 
C 2861 -1312 3443 -819 3443 173 
L 3443 3309 
z
" id="HelveticaNeue-Medium-67" transform="scale(0.015625)"/>
       <path d="M 3386 1466 
C 3507 2458 2867 3398 1824 3398 
C 838 3398 224 2592 224 1651 
C 224 634 806 -90 1843 -90 
C 2566 -90 3181 314 3341 1037 
L 2650 1037 
C 2522 672 2266 486 1843 486 
C 1235 486 954 947 954 1466 
L 3386 1466 
z
M 954 1946 
C 973 2438 1318 2822 1824 2822 
C 2317 2822 2630 2406 2656 1946 
L 954 1946 
z
" id="HelveticaNeue-Medium-65" transform="scale(0.015625)"/>
       <path id="HelveticaNeue-Medium-20" transform="scale(0.015625)"/>
       <path d="M 384 0 
L 1114 0 
L 1114 1965 
C 1114 2515 1459 2822 1837 2822 
C 2278 2822 2419 2579 2419 2125 
L 2419 0 
L 3149 0 
L 3149 1939 
C 3149 2496 3360 2822 3853 2822 
C 4422 2822 4454 2458 4454 1933 
L 4454 0 
L 5184 0 
L 5184 2285 
C 5184 3091 4774 3398 4077 3398 
C 3597 3398 3283 3187 3040 2848 
C 2893 3226 2515 3398 2112 3398 
C 1587 3398 1312 3174 1094 2848 
L 1075 2848 
L 1075 3309 
L 384 3309 
L 384 0 
z
" id="HelveticaNeue-Medium-6d" transform="scale(0.015625)"/>
       <path d="M 2426 1114 
C 2426 653 1926 486 1606 486 
C 1350 486 934 582 934 909 
C 934 1293 1216 1408 1530 1459 
C 1850 1517 2202 1510 2426 1658 
L 2426 1114 
z
M 3155 2438 
C 3155 3136 2477 3398 1830 3398 
C 1101 3398 378 3149 326 2298 
L 1056 2298 
C 1088 2656 1376 2822 1786 2822 
C 2080 2822 2470 2752 2470 2374 
C 2470 1946 2003 2003 1478 1907 
C 864 1837 205 1702 205 877 
C 205 230 742 -90 1338 -90 
C 1728 -90 2195 32 2483 314 
C 2541 13 2752 -90 3046 -90 
C 3168 -90 3398 -45 3507 -6 
L 3507 499 
C 3430 486 3373 486 3328 486 
C 3194 486 3155 557 3155 736 
L 3155 2438 
z
" id="HelveticaNeue-Medium-61" transform="scale(0.015625)"/>
       <path d="M 205 1062 
C 218 282 838 -90 1670 -90 
C 2355 -90 3149 198 3149 986 
C 3149 1638 2611 1830 2080 1952 
C 1542 2074 1005 2125 1005 2483 
C 1005 2771 1395 2822 1606 2822 
C 1926 2822 2214 2726 2278 2381 
L 3040 2381 
C 2950 3117 2336 3398 1658 3398 
C 1056 3398 275 3174 275 2451 
C 275 1779 800 1587 1338 1472 
C 1869 1350 2400 1306 2419 922 
C 2438 544 1958 486 1683 486 
C 1293 486 973 640 934 1062 
L 205 1062 
z
" id="HelveticaNeue-Medium-73" transform="scale(0.015625)"/>
       <path d="M 461 -1222 
L 1888 -1222 
L 1888 -646 
L 1152 -646 
L 1152 4102 
L 1888 4102 
L 1888 4678 
L 461 4678 
L 461 -1222 
z
" id="HelveticaNeue-Medium-5b" transform="scale(0.015625)"/>
       <path d="M 1901 486 
C 1248 486 960 1082 960 1658 
C 960 2227 1248 2822 1901 2822 
C 2554 2822 2842 2227 2842 1658 
C 2842 1082 2554 486 1901 486 
z
M 1901 -90 
C 2963 -90 3571 640 3571 1658 
C 3571 2669 2963 3398 1901 3398 
C 838 3398 230 2669 230 1658 
C 230 640 838 -90 1901 -90 
z
" id="HelveticaNeue-Medium-6f" transform="scale(0.015625)"/>
       <path d="M 442 0 
L 883 0 
C 890 -275 749 -550 467 -621 
L 467 -1011 
C 973 -909 1325 -525 1331 0 
L 1331 864 
L 442 864 
L 442 0 
z
" id="HelveticaNeue-Medium-2c" transform="scale(0.015625)"/>
       <path d="M 1081 4666 
L 2028 4666 
L 2572 1522 
L 4378 4666 
L 5350 4666 
L 4441 0 
L 3828 0 
L 4622 4091 
L 2791 897 
L 2175 897 
L 1581 4103 
L 788 0 
L 172 0 
L 1081 4666 
z
" id="DejaVuSans-Oblique-4d" transform="scale(0.015625)"/>
       <path d="M 2350 2403 
L 3013 2403 
L 3013 1609 
L 2350 1609 
L 2350 2403 
z
M 3306 3522 
Q 3016 3644 2681 3644 
Q 2347 3644 2056 3522 
Q 1769 3400 1531 3163 
Q 1291 2922 1172 2634 
Q 1053 2347 1053 2006 
Q 1053 1675 1172 1387 
Q 1291 1100 1531 859 
Q 1769 622 2056 500 
Q 2347 378 2681 378 
Q 3016 378 3306 500 
Q 3594 622 3831 859 
Q 4072 1100 4190 1387 
Q 4309 1675 4309 2006 
Q 4309 2347 4190 2634 
Q 4072 2922 3831 3163 
Q 3594 3400 3306 3522 
z
M 1878 3956 
Q 2250 4113 2681 4113 
Q 3113 4113 3484 3956 
Q 3856 3800 4163 3494 
Q 4472 3184 4625 2813 
Q 4778 2444 4778 2006 
Q 4778 1578 4625 1206 
Q 4472 838 4163 528 
Q 3856 222 3484 65 
Q 3113 -91 2681 -91 
Q 2250 -91 1878 65 
Q 1506 222 1200 528 
Q 891 838 738 1206 
Q 584 1578 584 2006 
Q 584 2444 738 2813 
Q 891 3184 1200 3494 
Q 1506 3800 1878 3956 
z
" id="DejaVuSans-2299" transform="scale(0.015625)"/>
       <path d="M 1434 4678 
L 6 4678 
L 6 4102 
L 742 4102 
L 742 -646 
L 6 -646 
L 6 -1222 
L 1434 -1222 
L 1434 4678 
z
" id="HelveticaNeue-Medium-5d" transform="scale(0.015625)"/>
      </defs>
      <use transform="translate(0 0.90625)" xlink:href="#HelveticaNeue-Medium-42"/>
      <use transform="translate(70.399994 0.90625)" xlink:href="#HelveticaNeue-Medium-75"/>
      <use transform="translate(127.799988 0.90625)" xlink:href="#HelveticaNeue-Medium-6c"/>
      <use transform="translate(151.899979 0.90625)" xlink:href="#HelveticaNeue-Medium-67"/>
      <use transform="translate(211.199966 0.90625)" xlink:href="#HelveticaNeue-Medium-65"/>
      <use transform="translate(266.799957 0.90625)" xlink:href="#HelveticaNeue-Medium-20"/>
      <use transform="translate(294.599945 0.90625)" xlink:href="#HelveticaNeue-Medium-6d"/>
      <use transform="translate(381.59993 0.90625)" xlink:href="#HelveticaNeue-Medium-61"/>
      <use transform="translate(437.199921 0.90625)" xlink:href="#HelveticaNeue-Medium-73"/>
      <use transform="translate(489.099915 0.90625)" xlink:href="#HelveticaNeue-Medium-73"/>
      <use transform="translate(540.999908 0.90625)" xlink:href="#HelveticaNeue-Medium-20"/>
      <use transform="translate(568.799896 0.90625)" xlink:href="#HelveticaNeue-Medium-5b"/>
      <use transform="translate(598.399887 0.90625)" xlink:href="#HelveticaNeue-Medium-6c"/>
      <use transform="translate(622.499878 0.90625)" xlink:href="#HelveticaNeue-Medium-6f"/>
      <use transform="translate(681.799866 0.90625)" xlink:href="#HelveticaNeue-Medium-67"/>
      <use transform="translate(741.099854 0.90625)" xlink:href="#HelveticaNeue-Medium-2c"/>
      <use transform="translate(768.899841 0.90625)" xlink:href="#HelveticaNeue-Medium-20"/>
      <use transform="translate(796.699829 0.90625)" xlink:href="#DejaVuSans-Oblique-4d"/>
      <use transform="translate(896.616821 -15.5)scale(0.7)" xlink:href="#DejaVuSans-2299"/>
      <use transform="translate(971.641235 0.90625)" xlink:href="#HelveticaNeue-Medium-5d"/>
     </g>
    </g>
   </g>
   <g id="matplotlib.axis_2">
    <g id="ytick_1">
     <g id="line2d_17">
      <defs>
       <path d="M 1.75 0 
L -1.75 -0 
" id="mb82f38f7cb" style="stroke:#000000;stroke-width:0.8;"/>
      </defs>
      <g>
       <use style="stroke:#000000;stroke-width:0.8;" x="55.459375" xlink:href="#mb82f38f7cb" y="225.252257"/>
      </g>
     </g>
     <g id="line2d_18">
      <g>
       <use style="stroke:#000000;stroke-width:0.8;" x="412.579375" xlink:href="#mb82f38f7cb" y="225.252257"/>
      </g>
     </g>
     <g id="text_10">
      <!-- $\mathdefault{10^{2}}$ -->
      <g transform="translate(34.809375 228.82257)scale(0.1 -0.1)">
       <use transform="translate(0 0.823438)" xlink:href="#HelveticaNeue-Medium-31"/>
       <use transform="translate(55.599991 0.823438)" xlink:href="#HelveticaNeue-Medium-30"/>
       <use transform="translate(112.104786 37.015625)scale(0.7)" xlink:href="#HelveticaNeue-Medium-32"/>
      </g>
     </g>
    </g>
    <g id="ytick_2">
     <g id="line2d_19">
      <defs>
       <path d="M 1 0 
L -1 -0 
" id="mc6692ddbe2" style="stroke:#000000;stroke-width:0.6;"/>
      </defs>
      <g>
       <use style="stroke:#000000;stroke-width:0.6;" x="55.459375" xlink:href="#mc6692ddbe2" y="269.926185"/>
      </g>
     </g>
     <g id="line2d_20">
      <g>
       <use style="stroke:#000000;stroke-width:0.6;" x="412.579375" xlink:href="#mc6692ddbe2" y="269.926185"/>
      </g>
     </g>
    </g>
    <g id="ytick_3">
     <g id="line2d_21">
      <g>
       <use style="stroke:#000000;stroke-width:0.6;" x="55.459375" xlink:href="#mc6692ddbe2" y="253.201231"/>
      </g>
     </g>
     <g id="line2d_22">
      <g>
       <use style="stroke:#000000;stroke-width:0.6;" x="412.579375" xlink:href="#mc6692ddbe2" y="253.201231"/>
      </g>
     </g>
    </g>
    <g id="ytick_4">
     <g id="line2d_23">
      <g>
       <use style="stroke:#000000;stroke-width:0.6;" x="55.459375" xlink:href="#mc6692ddbe2" y="238.448777"/>
      </g>
     </g>
     <g id="line2d_24">
      <g>
       <use style="stroke:#000000;stroke-width:0.6;" x="412.579375" xlink:href="#mc6692ddbe2" y="238.448777"/>
      </g>
     </g>
    </g>
    <g id="ytick_5">
     <g id="line2d_25">
      <g>
       <use style="stroke:#000000;stroke-width:0.6;" x="55.459375" xlink:href="#mc6692ddbe2" y="138.434813"/>
      </g>
     </g>
     <g id="line2d_26">
      <g>
       <use style="stroke:#000000;stroke-width:0.6;" x="412.579375" xlink:href="#mc6692ddbe2" y="138.434813"/>
      </g>
     </g>
     <g id="text_11">
      <!-- $\mathdefault{2\times10^{2}}$ -->
      <g transform="translate(20.559375 142.005126)scale(0.1 -0.1)">
       <defs>
        <path d="M 1466 1619 
L 352 506 
L 902 147 
L 1914 1171 
L 2938 147 
L 3488 506 
L 2368 1619 
L 3488 2733 
L 2938 3091 
L 1914 2074 
L 902 3091 
L 352 2733 
L 1466 1619 
z
" id="HelveticaNeue-Medium-d7" transform="scale(0.015625)"/>
       </defs>
       <use transform="translate(0 0.823438)" xlink:href="#HelveticaNeue-Medium-32"/>
       <use transform="translate(72.999988 0.823438)" xlink:href="#HelveticaNeue-Medium-d7"/>
       <use transform="translate(150.399969 0.823438)" xlink:href="#HelveticaNeue-Medium-31"/>
       <use transform="translate(205.99996 0.823438)" xlink:href="#HelveticaNeue-Medium-30"/>
       <use transform="translate(262.504756 37.015625)scale(0.7)" xlink:href="#HelveticaNeue-Medium-32"/>
      </g>
     </g>
    </g>
    <g id="ytick_6">
     <g id="line2d_27">
      <g>
       <use style="stroke:#000000;stroke-width:0.6;" x="55.459375" xlink:href="#mc6692ddbe2" y="87.649864"/>
      </g>
     </g>
     <g id="line2d_28">
      <g>
       <use style="stroke:#000000;stroke-width:0.6;" x="412.579375" xlink:href="#mc6692ddbe2" y="87.649864"/>
      </g>
     </g>
     <g id="text_12">
      <!-- $\mathdefault{3\times10^{2}}$ -->
      <g transform="translate(20.559375 91.220176)scale(0.1 -0.1)">
       <defs>
        <path d="M 1459 2080 
C 2035 2106 2630 2016 2630 1318 
C 2630 806 2259 518 1773 518 
C 1203 518 909 928 928 1472 
L 198 1472 
C 218 538 736 -90 1773 -90 
C 2630 -90 3360 435 3360 1280 
C 3360 1856 3053 2298 2547 2400 
L 2547 2413 
C 2976 2566 3181 2925 3181 3373 
C 3181 4166 2464 4570 1766 4570 
C 864 4570 320 3917 282 3046 
L 1011 3046 
C 998 3507 1248 3962 1754 3962 
C 2157 3962 2451 3706 2451 3328 
C 2451 2778 1946 2605 1459 2624 
L 1459 2080 
z
" id="HelveticaNeue-Medium-33" transform="scale(0.015625)"/>
       </defs>
       <use transform="translate(0 0.823438)" xlink:href="#HelveticaNeue-Medium-33"/>
       <use transform="translate(72.999988 0.823438)" xlink:href="#HelveticaNeue-Medium-d7"/>
       <use transform="translate(150.399969 0.823438)" xlink:href="#HelveticaNeue-Medium-31"/>
       <use transform="translate(205.99996 0.823438)" xlink:href="#HelveticaNeue-Medium-30"/>
       <use transform="translate(262.504756 37.015625)scale(0.7)" xlink:href="#HelveticaNeue-Medium-32"/>
      </g>
     </g>
    </g>
    <g id="ytick_7">
     <g id="line2d_29">
      <g>
       <use style="stroke:#000000;stroke-width:0.6;" x="55.459375" xlink:href="#mc6692ddbe2" y="51.617369"/>
      </g>
     </g>
     <g id="line2d_30">
      <g>
       <use style="stroke:#000000;stroke-width:0.6;" x="412.579375" xlink:href="#mc6692ddbe2" y="51.617369"/>
      </g>
     </g>
     <g id="text_13">
      <!-- $\mathdefault{4\times10^{2}}$ -->
      <g transform="translate(20.559375 55.187681)scale(0.1 -0.1)">
       <defs>
        <path d="M 3341 1638 
L 2765 1638 
L 2765 4480 
L 2074 4480 
L 154 1786 
L 154 1062 
L 2074 1062 
L 2074 0 
L 2765 0 
L 2765 1062 
L 3341 1062 
L 3341 1638 
z
M 2061 3610 
L 2074 3610 
L 2074 1638 
L 717 1638 
L 2061 3610 
z
" id="HelveticaNeue-Medium-34" transform="scale(0.015625)"/>
       </defs>
       <use transform="translate(0 0.823438)" xlink:href="#HelveticaNeue-Medium-34"/>
       <use transform="translate(72.999988 0.823438)" xlink:href="#HelveticaNeue-Medium-d7"/>
       <use transform="translate(150.399969 0.823438)" xlink:href="#HelveticaNeue-Medium-31"/>
       <use transform="translate(205.99996 0.823438)" xlink:href="#HelveticaNeue-Medium-30"/>
       <use transform="translate(262.504756 37.015625)scale(0.7)" xlink:href="#HelveticaNeue-Medium-32"/>
      </g>
     </g>
    </g>
    <g id="ytick_8">
     <g id="line2d_31">
      <g>
       <use style="stroke:#000000;stroke-width:0.6;" x="55.459375" xlink:href="#mc6692ddbe2" y="23.668395"/>
      </g>
     </g>
     <g id="line2d_32">
      <g>
       <use style="stroke:#000000;stroke-width:0.6;" x="412.579375" xlink:href="#mc6692ddbe2" y="23.668395"/>
      </g>
     </g>
    </g>
    <g id="text_14">
     <!-- Velocity dispersion [log, km/s] -->
     <g transform="translate(14.509375 211.382562)rotate(-90)scale(0.1 -0.1)">
      <defs>
       <path d="M 1491 0 
L 2381 0 
L 3942 4570 
L 3130 4570 
L 1958 954 
L 1946 954 
L 800 4570 
L -32 4570 
L 1491 0 
z
" id="HelveticaNeue-Medium-56" transform="scale(0.015625)"/>
       <path d="M 3347 2202 
C 3277 3014 2624 3398 1856 3398 
C 768 3398 224 2618 224 1619 
C 224 646 794 -90 1830 -90 
C 2682 -90 3213 384 3347 1242 
L 2618 1242 
C 2547 768 2253 486 1830 486 
C 1197 486 954 1069 954 1619 
C 954 2624 1485 2822 1862 2822 
C 2266 2822 2560 2605 2618 2202 
L 3347 2202 
z
" id="HelveticaNeue-Medium-63" transform="scale(0.015625)"/>
       <path d="M 403 0 
L 1133 0 
L 1133 3309 
L 403 3309 
L 403 0 
z
M 403 3878 
L 1133 3878 
L 1133 4570 
L 403 4570 
L 403 3878 
z
" id="HelveticaNeue-Medium-69" transform="scale(0.015625)"/>
       <path d="M 51 2765 
L 602 2765 
L 602 813 
C 614 262 755 -32 1517 -32 
C 1677 -32 1830 -6 1990 6 
L 1990 570 
C 1888 544 1786 544 1683 544 
C 1357 544 1331 698 1331 998 
L 1331 2765 
L 1990 2765 
L 1990 3309 
L 1331 3309 
L 1331 4301 
L 602 4301 
L 602 3309 
L 51 3309 
L 51 2765 
z
" id="HelveticaNeue-Medium-74" transform="scale(0.015625)"/>
       <path d="M 1274 13 
L 1190 -243 
C 1101 -525 1018 -704 678 -704 
C 563 -704 448 -678 333 -659 
L 333 -1274 
C 499 -1299 666 -1312 838 -1312 
C 1600 -1312 1773 -774 2010 -179 
L 3296 3309 
L 2534 3309 
L 1696 838 
L 1683 838 
L 819 3309 
L 19 3309 
L 1274 13 
z
" id="HelveticaNeue-Medium-79" transform="scale(0.015625)"/>
       <path d="M 954 1619 
C 954 2214 1197 2822 1882 2822 
C 2445 2822 2797 2387 2797 1658 
C 2797 1082 2522 486 1869 486 
C 1235 486 954 1050 954 1619 
z
M 3501 4570 
L 2771 4570 
L 2771 2880 
L 2758 2880 
C 2534 3245 2074 3398 1658 3398 
C 934 3398 224 2874 224 1677 
C 224 685 730 -90 1773 -90 
C 2189 -90 2605 70 2797 448 
L 2810 448 
L 2810 0 
L 3501 0 
L 3501 4570 
z
" id="HelveticaNeue-Medium-64" transform="scale(0.015625)"/>
       <path d="M 2950 1651 
C 2950 1075 2701 486 2035 486 
C 1446 486 1107 986 1107 1651 
C 1107 2355 1421 2822 2035 2822 
C 2637 2822 2950 2253 2950 1651 
z
M 403 -1222 
L 1133 -1222 
L 1133 429 
L 1146 429 
C 1376 64 1830 -90 2253 -90 
C 3232 -90 3680 749 3680 1638 
C 3680 2605 3174 3398 2131 3398 
C 1709 3398 1312 3238 1107 2861 
L 1094 2861 
L 1094 3309 
L 403 3309 
L 403 -1222 
z
" id="HelveticaNeue-Medium-70" transform="scale(0.015625)"/>
       <path d="M 384 0 
L 1114 0 
L 1114 1574 
C 1114 2304 1510 2707 2010 2707 
C 2112 2707 2221 2688 2323 2675 
L 2323 3379 
C 2259 3386 2214 3398 2048 3398 
C 1600 3398 1165 3021 1082 2669 
L 1069 2669 
L 1069 3309 
L 384 3309 
L 384 0 
z
" id="HelveticaNeue-Medium-72" transform="scale(0.015625)"/>
       <path d="M 384 0 
L 1114 0 
L 1114 1952 
C 1114 2438 1427 2822 1914 2822 
C 2342 2822 2547 2598 2560 2080 
L 2560 0 
L 3290 0 
L 3290 2272 
C 3290 3014 2835 3398 2118 3398 
C 1683 3398 1306 3174 1088 2810 
L 1075 2822 
L 1075 3309 
L 384 3309 
L 384 0 
z
" id="HelveticaNeue-Medium-6e" transform="scale(0.015625)"/>
       <path d="M 403 0 
L 1133 0 
L 1133 1184 
L 1568 1606 
L 2579 0 
L 3469 0 
L 2080 2093 
L 3347 3309 
L 2451 3309 
L 1133 1971 
L 1133 4570 
L 403 4570 
L 403 0 
z
" id="HelveticaNeue-Medium-6b" transform="scale(0.015625)"/>
       <path d="M -141 -109 
L 557 -109 
L 2394 4678 
L 1696 4678 
L -141 -109 
z
" id="HelveticaNeue-Medium-2f" transform="scale(0.015625)"/>
      </defs>
      <use xlink:href="#HelveticaNeue-Medium-56"/>
      <use x="61.099991" xlink:href="#HelveticaNeue-Medium-65"/>
      <use x="116.699982" xlink:href="#HelveticaNeue-Medium-6c"/>
      <use x="140.799973" xlink:href="#HelveticaNeue-Medium-6f"/>
      <use x="200.09996" xlink:href="#HelveticaNeue-Medium-63"/>
      <use x="255.699951" xlink:href="#HelveticaNeue-Medium-69"/>
      <use x="279.799942" xlink:href="#HelveticaNeue-Medium-74"/>
      <use x="313.09993" xlink:href="#HelveticaNeue-Medium-79"/>
      <use x="364.999924" xlink:href="#HelveticaNeue-Medium-20"/>
      <use x="392.799911" xlink:href="#HelveticaNeue-Medium-64"/>
      <use x="453.899902" xlink:href="#HelveticaNeue-Medium-69"/>
      <use x="477.999893" xlink:href="#HelveticaNeue-Medium-73"/>
      <use x="529.899887" xlink:href="#HelveticaNeue-Medium-70"/>
      <use x="590.999878" xlink:href="#HelveticaNeue-Medium-65"/>
      <use x="646.599869" xlink:href="#HelveticaNeue-Medium-72"/>
      <use x="681.799866" xlink:href="#HelveticaNeue-Medium-73"/>
      <use x="733.69986" xlink:href="#HelveticaNeue-Medium-69"/>
      <use x="757.79985" xlink:href="#HelveticaNeue-Medium-6f"/>
      <use x="817.099838" xlink:href="#HelveticaNeue-Medium-6e"/>
      <use x="874.499832" xlink:href="#HelveticaNeue-Medium-20"/>
      <use x="902.29982" xlink:href="#HelveticaNeue-Medium-5b"/>
      <use x="931.899811" xlink:href="#HelveticaNeue-Medium-6c"/>
      <use x="955.999802" xlink:href="#HelveticaNeue-Medium-6f"/>
      <use x="1015.299789" xlink:href="#HelveticaNeue-Medium-67"/>
      <use x="1074.599777" xlink:href="#HelveticaNeue-Medium-2c"/>
      <use x="1102.399765" xlink:href="#HelveticaNeue-Medium-20"/>
      <use x="1130.199753" xlink:href="#HelveticaNeue-Medium-6b"/>
      <use x="1183.89975" xlink:href="#HelveticaNeue-Medium-6d"/>
      <use x="1270.899734" xlink:href="#HelveticaNeue-Medium-2f"/>
      <use x="1306.099731" xlink:href="#HelveticaNeue-Medium-73"/>
      <use x="1357.999725" xlink:href="#HelveticaNeue-Medium-5d"/>
     </g>
    </g>
   </g>
   <g id="LineCollection_1">
    <path clip-path="url(#pc006a05008)" d="M 71.692102 257.98848 
L 89.982499 257.98848 
" style="fill:none;stroke:#ffa500;stroke-width:1.5;"/>
    <path clip-path="url(#pc006a05008)" d="M 327.757659 123.126921 
L 344.219016 123.126921 
" style="fill:none;stroke:#ffa500;stroke-width:1.5;"/>
    <path clip-path="url(#pc006a05008)" d="M 275.630028 76.473567 
L 292.091385 76.473567 
" style="fill:none;stroke:#ffa500;stroke-width:1.5;"/>
    <path clip-path="url(#pc006a05008)" d="M 218.929798 161.020536 
L 235.391155 161.020536 
" style="fill:none;stroke:#ffa500;stroke-width:1.5;"/>
    <path clip-path="url(#pc006a05008)" d="M 296.663984 81.538842 
L 313.125342 81.538842 
" style="fill:none;stroke:#ffa500;stroke-width:1.5;"/>
    <path clip-path="url(#pc006a05008)" d="M 318.612461 98.093502 
L 335.073818 98.093502 
" style="fill:none;stroke:#ffa500;stroke-width:1.5;"/>
    <path clip-path="url(#pc006a05008)" d="M 281.117147 100.846384 
L 297.578504 100.846384 
" style="fill:none;stroke:#ffa500;stroke-width:1.5;"/>
    <path clip-path="url(#pc006a05008)" d="M 183.263524 155.159766 
L 199.724881 155.159766 
" style="fill:none;stroke:#ffa500;stroke-width:1.5;"/>
    <path clip-path="url(#pc006a05008)" d="M 256.425111 161.772797 
L 272.886468 161.772797 
" style="fill:none;stroke:#ffa500;stroke-width:1.5;"/>
    <path clip-path="url(#pc006a05008)" d="M 306.723703 88.908679 
L 323.18506 88.908679 
" style="fill:none;stroke:#ffa500;stroke-width:1.5;"/>
    <path clip-path="url(#pc006a05008)" d="M 205.212 178.713514 
L 221.673357 178.713514 
" style="fill:none;stroke:#ffa500;stroke-width:1.5;"/>
    <path clip-path="url(#pc006a05008)" d="M 242.707314 134.732541 
L 259.168671 134.732541 
" style="fill:none;stroke:#ffa500;stroke-width:1.5;"/>
    <path clip-path="url(#pc006a05008)" d="M 274.715508 121.475234 
L 291.176865 121.475234 
" style="fill:none;stroke:#ffa500;stroke-width:1.5;"/>
    <path clip-path="url(#pc006a05008)" d="M 251.852512 150.247329 
L 268.313869 150.247329 
" style="fill:none;stroke:#ffa500;stroke-width:1.5;"/>
    <path clip-path="url(#pc006a05008)" d="M 321.35602 100.846384 
L 337.817378 100.846384 
" style="fill:none;stroke:#ffa500;stroke-width:1.5;"/>
    <path clip-path="url(#pc006a05008)" d="M 310.381782 81.538842 
L 326.843139 81.538842 
" style="fill:none;stroke:#ffa500;stroke-width:1.5;"/>
    <path clip-path="url(#pc006a05008)" d="M 237.220194 114.559404 
L 253.681552 114.559404 
" style="fill:none;stroke:#ffa500;stroke-width:1.5;"/>
    <path clip-path="url(#pc006a05008)" d="M 307.638223 89.331112 
L 324.09958 89.331112 
" style="fill:none;stroke:#ffa500;stroke-width:1.5;"/>
    <path clip-path="url(#pc006a05008)" d="M 297.578504 150.247329 
L 314.039862 150.247329 
" style="fill:none;stroke:#ffa500;stroke-width:1.5;"/>
    <path clip-path="url(#pc006a05008)" d="M 239.963754 161.020536 
L 256.425111 161.020536 
" style="fill:none;stroke:#ffa500;stroke-width:1.5;"/>
    <path clip-path="url(#pc006a05008)" d="M 327.757659 87.649864 
L 344.219016 87.649864 
" style="fill:none;stroke:#ffa500;stroke-width:1.5;"/>
    <path clip-path="url(#pc006a05008)" d="M 237.220194 144.859354 
L 253.681552 144.859354 
" style="fill:none;stroke:#ffa500;stroke-width:1.5;"/>
    <path clip-path="url(#pc006a05008)" d="M 316.783421 78.010409 
L 333.244778 78.010409 
" style="fill:none;stroke:#ffa500;stroke-width:1.5;"/>
    <path clip-path="url(#pc006a05008)" d="M 125.648773 148.199582 
L 143.93917 148.199582 
" style="fill:none;stroke:#ffa500;stroke-width:1.5;"/>
    <path clip-path="url(#pc006a05008)" d="M 309.467262 58.04191 
L 325.92862 58.04191 
" style="fill:none;stroke:#ffa500;stroke-width:1.5;"/>
    <path clip-path="url(#pc006a05008)" d="M 248.194433 153.736443 
L 264.65579 153.736443 
" style="fill:none;stroke:#ffa500;stroke-width:1.5;"/>
    <path clip-path="url(#pc006a05008)" d="M 265.57031 66.565681 
L 282.031667 66.565681 
" style="fill:none;stroke:#ffa500;stroke-width:1.5;"/>
    <path clip-path="url(#pc006a05008)" d="M 350.620655 69.420531 
L 367.082013 69.420531 
" style="fill:none;stroke:#ffa500;stroke-width:1.5;"/>
    <path clip-path="url(#pc006a05008)" d="M 276.544548 125.363607 
L 293.005905 125.363607 
" style="fill:none;stroke:#ffa500;stroke-width:1.5;"/>
    <path clip-path="url(#pc006a05008)" d="M 255.510591 174.467308 
L 271.971949 174.467308 
" style="fill:none;stroke:#ffa500;stroke-width:1.5;"/>
    <path clip-path="url(#pc006a05008)" d="M 310.381782 74.578658 
L 326.843139 74.578658 
" style="fill:none;stroke:#ffa500;stroke-width:1.5;"/>
    <path clip-path="url(#pc006a05008)" d="M 305.809183 76.473567 
L 322.27054 76.473567 
" style="fill:none;stroke:#ffa500;stroke-width:1.5;"/>
    <path clip-path="url(#pc006a05008)" d="M 250.937992 149.56102 
L 267.399349 149.56102 
" style="fill:none;stroke:#ffa500;stroke-width:1.5;"/>
    <path clip-path="url(#pc006a05008)" d="M 211.613639 116.121808 
L 228.074996 116.121808 
" style="fill:none;stroke:#ffa500;stroke-width:1.5;"/>
    <path clip-path="url(#pc006a05008)" d="M 314.039862 80.351619 
L 330.501219 80.351619 
" style="fill:none;stroke:#ffa500;stroke-width:1.5;"/>
    <path clip-path="url(#pc006a05008)" d="M 273.800988 55.110021 
L 290.262346 55.110021 
" style="fill:none;stroke:#ffa500;stroke-width:1.5;"/>
    <path clip-path="url(#pc006a05008)" d="M 305.809183 102.715838 
L 324.09958 102.715838 
" style="fill:none;stroke:#ffa500;stroke-width:1.5;"/>
    <path clip-path="url(#pc006a05008)" d="M 310.381782 91.035235 
L 326.843139 91.035235 
" style="fill:none;stroke:#ffa500;stroke-width:1.5;"/>
    <path clip-path="url(#pc006a05008)" d="M 319.526981 107.027009 
L 335.988338 107.027009 
" style="fill:none;stroke:#ffa500;stroke-width:1.5;"/>
    <path clip-path="url(#pc006a05008)" d="M 305.809183 75.333185 
L 322.27054 75.333185 
" style="fill:none;stroke:#ffa500;stroke-width:1.5;"/>
    <path clip-path="url(#pc006a05008)" d="M 324.09958 92.762863 
L 342.389977 92.762863 
" style="fill:none;stroke:#ffa500;stroke-width:1.5;"/>
    <path clip-path="url(#pc006a05008)" d="M 322.27054 78.78596 
L 338.731897 78.78596 
" style="fill:none;stroke:#ffa500;stroke-width:1.5;"/>
   </g>
   <g id="LineCollection_2">
    <path clip-path="url(#pc006a05008)" d="M 80.837301 262.966 
L 80.837301 253.201231 
" style="fill:none;stroke:#ffa500;stroke-width:1.5;"/>
    <path clip-path="url(#pc006a05008)" d="M 335.988338 128.21683 
L 335.988338 118.235801 
" style="fill:none;stroke:#ffa500;stroke-width:1.5;"/>
    <path clip-path="url(#pc006a05008)" d="M 283.860707 79.958366 
L 283.860707 73.083104 
" style="fill:none;stroke:#ffa500;stroke-width:1.5;"/>
    <path clip-path="url(#pc006a05008)" d="M 227.160476 163.291011 
L 227.160476 158.790487 
" style="fill:none;stroke:#ffa500;stroke-width:1.5;"/>
    <path clip-path="url(#pc006a05008)" d="M 304.894663 82.737427 
L 304.894663 80.351619 
" style="fill:none;stroke:#ffa500;stroke-width:1.5;"/>
    <path clip-path="url(#pc006a05008)" d="M 326.843139 99.004423 
L 326.843139 97.189158 
" style="fill:none;stroke:#ffa500;stroke-width:1.5;"/>
    <path clip-path="url(#pc006a05008)" d="M 289.347826 105.573401 
L 289.347826 96.291297 
" style="fill:none;stroke:#ffa500;stroke-width:1.5;"/>
    <path clip-path="url(#pc006a05008)" d="M 191.494202 161.020536 
L 191.494202 149.56102 
" style="fill:none;stroke:#ffa500;stroke-width:1.5;"/>
    <path clip-path="url(#pc006a05008)" d="M 264.65579 174.467308 
L 264.65579 150.247329 
" style="fill:none;stroke:#ffa500;stroke-width:1.5;"/>
    <path clip-path="url(#pc006a05008)" d="M 314.954381 94.074405 
L 314.954381 83.947591 
" style="fill:none;stroke:#ffa500;stroke-width:1.5;"/>
    <path clip-path="url(#pc006a05008)" d="M 213.442678 184.910946 
L 213.442678 172.808329 
" style="fill:none;stroke:#ffa500;stroke-width:1.5;"/>
    <path clip-path="url(#pc006a05008)" d="M 250.937992 140.965224 
L 250.937992 128.795358 
" style="fill:none;stroke:#ffa500;stroke-width:1.5;"/>
    <path clip-path="url(#pc006a05008)" d="M 282.946187 127.640962 
L 282.946187 115.598838 
" style="fill:none;stroke:#ffa500;stroke-width:1.5;"/>
    <path clip-path="url(#pc006a05008)" d="M 260.083191 156.59945 
L 260.083191 144.201867 
" style="fill:none;stroke:#ffa500;stroke-width:1.5;"/>
    <path clip-path="url(#pc006a05008)" d="M 329.586699 114.042904 
L 329.586699 88.908679 
" style="fill:none;stroke:#ffa500;stroke-width:1.5;"/>
    <path clip-path="url(#pc006a05008)" d="M 318.612461 87.649864 
L 318.612461 75.712159 
" style="fill:none;stroke:#ffa500;stroke-width:1.5;"/>
    <path clip-path="url(#pc006a05008)" d="M 245.450873 120.929477 
L 245.450873 108.497684 
" style="fill:none;stroke:#ffa500;stroke-width:1.5;"/>
    <path clip-path="url(#pc006a05008)" d="M 315.868901 95.399826 
L 315.868901 83.542903 
" style="fill:none;stroke:#ffa500;stroke-width:1.5;"/>
    <path clip-path="url(#pc006a05008)" d="M 305.809183 153.736443 
L 305.809183 146.852783 
" style="fill:none;stroke:#ffa500;stroke-width:1.5;"/>
    <path clip-path="url(#pc006a05008)" d="M 248.194433 167.169063 
L 248.194433 155.159766 
" style="fill:none;stroke:#ffa500;stroke-width:1.5;"/>
    <path clip-path="url(#pc006a05008)" d="M 335.988338 90.607025 
L 335.988338 84.760913 
" style="fill:none;stroke:#ffa500;stroke-width:1.5;"/>
    <path clip-path="url(#pc006a05008)" d="M 245.450873 150.937419 
L 245.450873 139.062639 
" style="fill:none;stroke:#ffa500;stroke-width:1.5;"/>
    <path clip-path="url(#pc006a05008)" d="M 325.0141 89.331112 
L 325.0141 67.628639 
" style="fill:none;stroke:#ffa500;stroke-width:1.5;"/>
    <path clip-path="url(#pc006a05008)" d="M 134.793972 154.446083 
L 134.793972 142.249862 
" style="fill:none;stroke:#ffa500;stroke-width:1.5;"/>
    <path clip-path="url(#pc006a05008)" d="M 317.697941 64.466452 
L 317.697941 51.930889 
" style="fill:none;stroke:#ffa500;stroke-width:1.5;"/>
    <path clip-path="url(#pc006a05008)" d="M 256.425111 159.529434 
L 256.425111 148.199582 
" style="fill:none;stroke:#ffa500;stroke-width:1.5;"/>
    <path clip-path="url(#pc006a05008)" d="M 273.800988 71.605198 
L 273.800988 61.721112 
" style="fill:none;stroke:#ffa500;stroke-width:1.5;"/>
    <path clip-path="url(#pc006a05008)" d="M 358.851334 71.23843 
L 358.851334 67.628639 
" style="fill:none;stroke:#ffa500;stroke-width:1.5;"/>
    <path clip-path="url(#pc006a05008)" d="M 284.775226 131.728773 
L 284.775226 119.30633 
" style="fill:none;stroke:#ffa500;stroke-width:1.5;"/>
    <path clip-path="url(#pc006a05008)" d="M 263.74127 180.453141 
L 263.74127 168.754541 
" style="fill:none;stroke:#ffa500;stroke-width:1.5;"/>
    <path clip-path="url(#pc006a05008)" d="M 318.612461 75.333185 
L 318.612461 73.828649 
" style="fill:none;stroke:#ffa500;stroke-width:1.5;"/>
    <path clip-path="url(#pc006a05008)" d="M 314.039862 80.746111 
L 314.039862 72.341971 
" style="fill:none;stroke:#ffa500;stroke-width:1.5;"/>
    <path clip-path="url(#pc006a05008)" d="M 259.168671 155.87754 
L 259.168671 143.547813 
" style="fill:none;stroke:#ffa500;stroke-width:1.5;"/>
    <path clip-path="url(#pc006a05008)" d="M 219.844317 122.02338 
L 219.844317 110.485839 
" style="fill:none;stroke:#ffa500;stroke-width:1.5;"/>
    <path clip-path="url(#pc006a05008)" d="M 322.27054 81.14185 
L 322.27054 79.566343 
" style="fill:none;stroke:#ffa500;stroke-width:1.5;"/>
    <path clip-path="url(#pc006a05008)" d="M 282.031667 56.079712 
L 282.031667 54.14778 
" style="fill:none;stroke:#ffa500;stroke-width:1.5;"/>
    <path clip-path="url(#pc006a05008)" d="M 314.954381 108.991772 
L 314.954381 96.739423 
" style="fill:none;stroke:#ffa500;stroke-width:1.5;"/>
    <path clip-path="url(#pc006a05008)" d="M 318.612461 93.19852 
L 318.612461 88.908679 
" style="fill:none;stroke:#ffa500;stroke-width:1.5;"/>
    <path clip-path="url(#pc006a05008)" d="M 327.757659 120.386087 
L 327.757659 94.956459 
" style="fill:none;stroke:#ffa500;stroke-width:1.5;"/>
    <path clip-path="url(#pc006a05008)" d="M 314.039862 77.239631 
L 314.039862 73.455322 
" style="fill:none;stroke:#ffa500;stroke-width:1.5;"/>
    <path clip-path="url(#pc006a05008)" d="M 333.244778 99.004423 
L 333.244778 86.817628 
" style="fill:none;stroke:#ffa500;stroke-width:1.5;"/>
    <path clip-path="url(#pc006a05008)" d="M 330.501219 85.169563 
L 330.501219 72.71199 
" style="fill:none;stroke:#ffa500;stroke-width:1.5;"/>
   </g>
   <g id="line2d_33">
    <defs>
     <path d="M 0 2 
L 0 -2 
" id="m52ca0e97c4" style="stroke:#ffa500;"/>
    </defs>
    <g clip-path="url(#pc006a05008)">
     <use style="fill:#ffa500;stroke:#ffa500;" x="71.692102" xlink:href="#m52ca0e97c4" y="257.98848"/>
     <use style="fill:#ffa500;stroke:#ffa500;" x="327.757659" xlink:href="#m52ca0e97c4" y="123.126921"/>
     <use style="fill:#ffa500;stroke:#ffa500;" x="275.630028" xlink:href="#m52ca0e97c4" y="76.473567"/>
     <use style="fill:#ffa500;stroke:#ffa500;" x="218.929798" xlink:href="#m52ca0e97c4" y="161.020536"/>
     <use style="fill:#ffa500;stroke:#ffa500;" x="296.663984" xlink:href="#m52ca0e97c4" y="81.538842"/>
     <use style="fill:#ffa500;stroke:#ffa500;" x="318.612461" xlink:href="#m52ca0e97c4" y="98.093502"/>
     <use style="fill:#ffa500;stroke:#ffa500;" x="281.117147" xlink:href="#m52ca0e97c4" y="100.846384"/>
     <use style="fill:#ffa500;stroke:#ffa500;" x="183.263524" xlink:href="#m52ca0e97c4" y="155.159766"/>
     <use style="fill:#ffa500;stroke:#ffa500;" x="256.425111" xlink:href="#m52ca0e97c4" y="161.772797"/>
     <use style="fill:#ffa500;stroke:#ffa500;" x="306.723703" xlink:href="#m52ca0e97c4" y="88.908679"/>
     <use style="fill:#ffa500;stroke:#ffa500;" x="205.212" xlink:href="#m52ca0e97c4" y="178.713514"/>
     <use style="fill:#ffa500;stroke:#ffa500;" x="242.707314" xlink:href="#m52ca0e97c4" y="134.732541"/>
     <use style="fill:#ffa500;stroke:#ffa500;" x="274.715508" xlink:href="#m52ca0e97c4" y="121.475234"/>
     <use style="fill:#ffa500;stroke:#ffa500;" x="251.852512" xlink:href="#m52ca0e97c4" y="150.247329"/>
     <use style="fill:#ffa500;stroke:#ffa500;" x="321.35602" xlink:href="#m52ca0e97c4" y="100.846384"/>
     <use style="fill:#ffa500;stroke:#ffa500;" x="310.381782" xlink:href="#m52ca0e97c4" y="81.538842"/>
     <use style="fill:#ffa500;stroke:#ffa500;" x="237.220194" xlink:href="#m52ca0e97c4" y="114.559404"/>
     <use style="fill:#ffa500;stroke:#ffa500;" x="307.638223" xlink:href="#m52ca0e97c4" y="89.331112"/>
     <use style="fill:#ffa500;stroke:#ffa500;" x="297.578504" xlink:href="#m52ca0e97c4" y="150.247329"/>
     <use style="fill:#ffa500;stroke:#ffa500;" x="239.963754" xlink:href="#m52ca0e97c4" y="161.020536"/>
     <use style="fill:#ffa500;stroke:#ffa500;" x="327.757659" xlink:href="#m52ca0e97c4" y="87.649864"/>
     <use style="fill:#ffa500;stroke:#ffa500;" x="237.220194" xlink:href="#m52ca0e97c4" y="144.859354"/>
     <use style="fill:#ffa500;stroke:#ffa500;" x="316.783421" xlink:href="#m52ca0e97c4" y="78.010409"/>
     <use style="fill:#ffa500;stroke:#ffa500;" x="125.648773" xlink:href="#m52ca0e97c4" y="148.199582"/>
     <use style="fill:#ffa500;stroke:#ffa500;" x="309.467262" xlink:href="#m52ca0e97c4" y="58.04191"/>
     <use style="fill:#ffa500;stroke:#ffa500;" x="248.194433" xlink:href="#m52ca0e97c4" y="153.736443"/>
     <use style="fill:#ffa500;stroke:#ffa500;" x="265.57031" xlink:href="#m52ca0e97c4" y="66.565681"/>
     <use style="fill:#ffa500;stroke:#ffa500;" x="350.620655" xlink:href="#m52ca0e97c4" y="69.420531"/>
     <use style="fill:#ffa500;stroke:#ffa500;" x="276.544548" xlink:href="#m52ca0e97c4" y="125.363607"/>
     <use style="fill:#ffa500;stroke:#ffa500;" x="255.510591" xlink:href="#m52ca0e97c4" y="174.467308"/>
     <use style="fill:#ffa500;stroke:#ffa500;" x="310.381782" xlink:href="#m52ca0e97c4" y="74.578658"/>
     <use style="fill:#ffa500;stroke:#ffa500;" x="305.809183" xlink:href="#m52ca0e97c4" y="76.473567"/>
     <use style="fill:#ffa500;stroke:#ffa500;" x="250.937992" xlink:href="#m52ca0e97c4" y="149.56102"/>
     <use style="fill:#ffa500;stroke:#ffa500;" x="211.613639" xlink:href="#m52ca0e97c4" y="116.121808"/>
     <use style="fill:#ffa500;stroke:#ffa500;" x="314.039862" xlink:href="#m52ca0e97c4" y="80.351619"/>
     <use style="fill:#ffa500;stroke:#ffa500;" x="273.800988" xlink:href="#m52ca0e97c4" y="55.110021"/>
     <use style="fill:#ffa500;stroke:#ffa500;" x="305.809183" xlink:href="#m52ca0e97c4" y="102.715838"/>
     <use style="fill:#ffa500;stroke:#ffa500;" x="310.381782" xlink:href="#m52ca0e97c4" y="91.035235"/>
     <use style="fill:#ffa500;stroke:#ffa500;" x="319.526981" xlink:href="#m52ca0e97c4" y="107.027009"/>
     <use style="fill:#ffa500;stroke:#ffa500;" x="305.809183" xlink:href="#m52ca0e97c4" y="75.333185"/>
     <use style="fill:#ffa500;stroke:#ffa500;" x="324.09958" xlink:href="#m52ca0e97c4" y="92.762863"/>
     <use style="fill:#ffa500;stroke:#ffa500;" x="322.27054" xlink:href="#m52ca0e97c4" y="78.78596"/>
    </g>
   </g>
   <g id="line2d_34">
    <g clip-path="url(#pc006a05008)">
     <use style="fill:#ffa500;stroke:#ffa500;" x="89.982499" xlink:href="#m52ca0e97c4" y="257.98848"/>
     <use style="fill:#ffa500;stroke:#ffa500;" x="344.219016" xlink:href="#m52ca0e97c4" y="123.126921"/>
     <use style="fill:#ffa500;stroke:#ffa500;" x="292.091385" xlink:href="#m52ca0e97c4" y="76.473567"/>
     <use style="fill:#ffa500;stroke:#ffa500;" x="235.391155" xlink:href="#m52ca0e97c4" y="161.020536"/>
     <use style="fill:#ffa500;stroke:#ffa500;" x="313.125342" xlink:href="#m52ca0e97c4" y="81.538842"/>
     <use style="fill:#ffa500;stroke:#ffa500;" x="335.073818" xlink:href="#m52ca0e97c4" y="98.093502"/>
     <use style="fill:#ffa500;stroke:#ffa500;" x="297.578504" xlink:href="#m52ca0e97c4" y="100.846384"/>
     <use style="fill:#ffa500;stroke:#ffa500;" x="199.724881" xlink:href="#m52ca0e97c4" y="155.159766"/>
     <use style="fill:#ffa500;stroke:#ffa500;" x="272.886468" xlink:href="#m52ca0e97c4" y="161.772797"/>
     <use style="fill:#ffa500;stroke:#ffa500;" x="323.18506" xlink:href="#m52ca0e97c4" y="88.908679"/>
     <use style="fill:#ffa500;stroke:#ffa500;" x="221.673357" xlink:href="#m52ca0e97c4" y="178.713514"/>
     <use style="fill:#ffa500;stroke:#ffa500;" x="259.168671" xlink:href="#m52ca0e97c4" y="134.732541"/>
     <use style="fill:#ffa500;stroke:#ffa500;" x="291.176865" xlink:href="#m52ca0e97c4" y="121.475234"/>
     <use style="fill:#ffa500;stroke:#ffa500;" x="268.313869" xlink:href="#m52ca0e97c4" y="150.247329"/>
     <use style="fill:#ffa500;stroke:#ffa500;" x="337.817378" xlink:href="#m52ca0e97c4" y="100.846384"/>
     <use style="fill:#ffa500;stroke:#ffa500;" x="326.843139" xlink:href="#m52ca0e97c4" y="81.538842"/>
     <use style="fill:#ffa500;stroke:#ffa500;" x="253.681552" xlink:href="#m52ca0e97c4" y="114.559404"/>
     <use style="fill:#ffa500;stroke:#ffa500;" x="324.09958" xlink:href="#m52ca0e97c4" y="89.331112"/>
     <use style="fill:#ffa500;stroke:#ffa500;" x="314.039862" xlink:href="#m52ca0e97c4" y="150.247329"/>
     <use style="fill:#ffa500;stroke:#ffa500;" x="256.425111" xlink:href="#m52ca0e97c4" y="161.020536"/>
     <use style="fill:#ffa500;stroke:#ffa500;" x="344.219016" xlink:href="#m52ca0e97c4" y="87.649864"/>
     <use style="fill:#ffa500;stroke:#ffa500;" x="253.681552" xlink:href="#m52ca0e97c4" y="144.859354"/>
     <use style="fill:#ffa500;stroke:#ffa500;" x="333.244778" xlink:href="#m52ca0e97c4" y="78.010409"/>
     <use style="fill:#ffa500;stroke:#ffa500;" x="143.93917" xlink:href="#m52ca0e97c4" y="148.199582"/>
     <use style="fill:#ffa500;stroke:#ffa500;" x="325.92862" xlink:href="#m52ca0e97c4" y="58.04191"/>
     <use style="fill:#ffa500;stroke:#ffa500;" x="264.65579" xlink:href="#m52ca0e97c4" y="153.736443"/>
     <use style="fill:#ffa500;stroke:#ffa500;" x="282.031667" xlink:href="#m52ca0e97c4" y="66.565681"/>
     <use style="fill:#ffa500;stroke:#ffa500;" x="367.082013" xlink:href="#m52ca0e97c4" y="69.420531"/>
     <use style="fill:#ffa500;stroke:#ffa500;" x="293.005905" xlink:href="#m52ca0e97c4" y="125.363607"/>
     <use style="fill:#ffa500;stroke:#ffa500;" x="271.971949" xlink:href="#m52ca0e97c4" y="174.467308"/>
     <use style="fill:#ffa500;stroke:#ffa500;" x="326.843139" xlink:href="#m52ca0e97c4" y="74.578658"/>
     <use style="fill:#ffa500;stroke:#ffa500;" x="322.27054" xlink:href="#m52ca0e97c4" y="76.473567"/>
     <use style="fill:#ffa500;stroke:#ffa500;" x="267.399349" xlink:href="#m52ca0e97c4" y="149.56102"/>
     <use style="fill:#ffa500;stroke:#ffa500;" x="228.074996" xlink:href="#m52ca0e97c4" y="116.121808"/>
     <use style="fill:#ffa500;stroke:#ffa500;" x="330.501219" xlink:href="#m52ca0e97c4" y="80.351619"/>
     <use style="fill:#ffa500;stroke:#ffa500;" x="290.262346" xlink:href="#m52ca0e97c4" y="55.110021"/>
     <use style="fill:#ffa500;stroke:#ffa500;" x="324.09958" xlink:href="#m52ca0e97c4" y="102.715838"/>
     <use style="fill:#ffa500;stroke:#ffa500;" x="326.843139" xlink:href="#m52ca0e97c4" y="91.035235"/>
     <use style="fill:#ffa500;stroke:#ffa500;" x="335.988338" xlink:href="#m52ca0e97c4" y="107.027009"/>
     <use style="fill:#ffa500;stroke:#ffa500;" x="322.27054" xlink:href="#m52ca0e97c4" y="75.333185"/>
     <use style="fill:#ffa500;stroke:#ffa500;" x="342.389977" xlink:href="#m52ca0e97c4" y="92.762863"/>
     <use style="fill:#ffa500;stroke:#ffa500;" x="338.731897" xlink:href="#m52ca0e97c4" y="78.78596"/>
    </g>
   </g>
   <g id="line2d_35">
    <defs>
     <path d="M 2 0 
L -2 -0 
" id="m8d31f8cb70" style="stroke:#ffa500;"/>
    </defs>
    <g clip-path="url(#pc006a05008)">
     <use style="fill:#ffa500;stroke:#ffa500;" x="80.837301" xlink:href="#m8d31f8cb70" y="262.966"/>
     <use style="fill:#ffa500;stroke:#ffa500;" x="335.988338" xlink:href="#m8d31f8cb70" y="128.21683"/>
     <use style="fill:#ffa500;stroke:#ffa500;" x="283.860707" xlink:href="#m8d31f8cb70" y="79.958366"/>
     <use style="fill:#ffa500;stroke:#ffa500;" x="227.160476" xlink:href="#m8d31f8cb70" y="163.291011"/>
     <use style="fill:#ffa500;stroke:#ffa500;" x="304.894663" xlink:href="#m8d31f8cb70" y="82.737427"/>
     <use style="fill:#ffa500;stroke:#ffa500;" x="326.843139" xlink:href="#m8d31f8cb70" y="99.004423"/>
     <use style="fill:#ffa500;stroke:#ffa500;" x="289.347826" xlink:href="#m8d31f8cb70" y="105.573401"/>
     <use style="fill:#ffa500;stroke:#ffa500;" x="191.494202" xlink:href="#m8d31f8cb70" y="161.020536"/>
     <use style="fill:#ffa500;stroke:#ffa500;" x="264.65579" xlink:href="#m8d31f8cb70" y="174.467308"/>
     <use style="fill:#ffa500;stroke:#ffa500;" x="314.954381" xlink:href="#m8d31f8cb70" y="94.074405"/>
     <use style="fill:#ffa500;stroke:#ffa500;" x="213.442678" xlink:href="#m8d31f8cb70" y="184.910946"/>
     <use style="fill:#ffa500;stroke:#ffa500;" x="250.937992" xlink:href="#m8d31f8cb70" y="140.965224"/>
     <use style="fill:#ffa500;stroke:#ffa500;" x="282.946187" xlink:href="#m8d31f8cb70" y="127.640962"/>
     <use style="fill:#ffa500;stroke:#ffa500;" x="260.083191" xlink:href="#m8d31f8cb70" y="156.59945"/>
     <use style="fill:#ffa500;stroke:#ffa500;" x="329.586699" xlink:href="#m8d31f8cb70" y="114.042904"/>
     <use style="fill:#ffa500;stroke:#ffa500;" x="318.612461" xlink:href="#m8d31f8cb70" y="87.649864"/>
     <use style="fill:#ffa500;stroke:#ffa500;" x="245.450873" xlink:href="#m8d31f8cb70" y="120.929477"/>
     <use style="fill:#ffa500;stroke:#ffa500;" x="315.868901" xlink:href="#m8d31f8cb70" y="95.399826"/>
     <use style="fill:#ffa500;stroke:#ffa500;" x="305.809183" xlink:href="#m8d31f8cb70" y="153.736443"/>
     <use style="fill:#ffa500;stroke:#ffa500;" x="248.194433" xlink:href="#m8d31f8cb70" y="167.169063"/>
     <use style="fill:#ffa500;stroke:#ffa500;" x="335.988338" xlink:href="#m8d31f8cb70" y="90.607025"/>
     <use style="fill:#ffa500;stroke:#ffa500;" x="245.450873" xlink:href="#m8d31f8cb70" y="150.937419"/>
     <use style="fill:#ffa500;stroke:#ffa500;" x="325.0141" xlink:href="#m8d31f8cb70" y="89.331112"/>
     <use style="fill:#ffa500;stroke:#ffa500;" x="134.793972" xlink:href="#m8d31f8cb70" y="154.446083"/>
     <use style="fill:#ffa500;stroke:#ffa500;" x="317.697941" xlink:href="#m8d31f8cb70" y="64.466452"/>
     <use style="fill:#ffa500;stroke:#ffa500;" x="256.425111" xlink:href="#m8d31f8cb70" y="159.529434"/>
     <use style="fill:#ffa500;stroke:#ffa500;" x="273.800988" xlink:href="#m8d31f8cb70" y="71.605198"/>
     <use style="fill:#ffa500;stroke:#ffa500;" x="358.851334" xlink:href="#m8d31f8cb70" y="71.23843"/>
     <use style="fill:#ffa500;stroke:#ffa500;" x="284.775226" xlink:href="#m8d31f8cb70" y="131.728773"/>
     <use style="fill:#ffa500;stroke:#ffa500;" x="263.74127" xlink:href="#m8d31f8cb70" y="180.453141"/>
     <use style="fill:#ffa500;stroke:#ffa500;" x="318.612461" xlink:href="#m8d31f8cb70" y="75.333185"/>
     <use style="fill:#ffa500;stroke:#ffa500;" x="314.039862" xlink:href="#m8d31f8cb70" y="80.746111"/>
     <use style="fill:#ffa500;stroke:#ffa500;" x="259.168671" xlink:href="#m8d31f8cb70" y="155.87754"/>
     <use style="fill:#ffa500;stroke:#ffa500;" x="219.844317" xlink:href="#m8d31f8cb70" y="122.02338"/>
     <use style="fill:#ffa500;stroke:#ffa500;" x="322.27054" xlink:href="#m8d31f8cb70" y="81.14185"/>
     <use style="fill:#ffa500;stroke:#ffa500;" x="282.031667" xlink:href="#m8d31f8cb70" y="56.079712"/>
     <use style="fill:#ffa500;stroke:#ffa500;" x="314.954381" xlink:href="#m8d31f8cb70" y="108.991772"/>
     <use style="fill:#ffa500;stroke:#ffa500;" x="318.612461" xlink:href="#m8d31f8cb70" y="93.19852"/>
     <use style="fill:#ffa500;stroke:#ffa500;" x="327.757659" xlink:href="#m8d31f8cb70" y="120.386087"/>
     <use style="fill:#ffa500;stroke:#ffa500;" x="314.039862" xlink:href="#m8d31f8cb70" y="77.239631"/>
     <use style="fill:#ffa500;stroke:#ffa500;" x="333.244778" xlink:href="#m8d31f8cb70" y="99.004423"/>
     <use style="fill:#ffa500;stroke:#ffa500;" x="330.501219" xlink:href="#m8d31f8cb70" y="85.169563"/>
    </g>
   </g>
   <g id="line2d_36">
    <g clip-path="url(#pc006a05008)">
     <use style="fill:#ffa500;stroke:#ffa500;" x="80.837301" xlink:href="#m8d31f8cb70" y="253.201231"/>
     <use style="fill:#ffa500;stroke:#ffa500;" x="335.988338" xlink:href="#m8d31f8cb70" y="118.235801"/>
     <use style="fill:#ffa500;stroke:#ffa500;" x="283.860707" xlink:href="#m8d31f8cb70" y="73.083104"/>
     <use style="fill:#ffa500;stroke:#ffa500;" x="227.160476" xlink:href="#m8d31f8cb70" y="158.790487"/>
     <use style="fill:#ffa500;stroke:#ffa500;" x="304.894663" xlink:href="#m8d31f8cb70" y="80.351619"/>
     <use style="fill:#ffa500;stroke:#ffa500;" x="326.843139" xlink:href="#m8d31f8cb70" y="97.189158"/>
     <use style="fill:#ffa500;stroke:#ffa500;" x="289.347826" xlink:href="#m8d31f8cb70" y="96.291297"/>
     <use style="fill:#ffa500;stroke:#ffa500;" x="191.494202" xlink:href="#m8d31f8cb70" y="149.56102"/>
     <use style="fill:#ffa500;stroke:#ffa500;" x="264.65579" xlink:href="#m8d31f8cb70" y="150.247329"/>
     <use style="fill:#ffa500;stroke:#ffa500;" x="314.954381" xlink:href="#m8d31f8cb70" y="83.947591"/>
     <use style="fill:#ffa500;stroke:#ffa500;" x="213.442678" xlink:href="#m8d31f8cb70" y="172.808329"/>
     <use style="fill:#ffa500;stroke:#ffa500;" x="250.937992" xlink:href="#m8d31f8cb70" y="128.795358"/>
     <use style="fill:#ffa500;stroke:#ffa500;" x="282.946187" xlink:href="#m8d31f8cb70" y="115.598838"/>
     <use style="fill:#ffa500;stroke:#ffa500;" x="260.083191" xlink:href="#m8d31f8cb70" y="144.201867"/>
     <use style="fill:#ffa500;stroke:#ffa500;" x="329.586699" xlink:href="#m8d31f8cb70" y="88.908679"/>
     <use style="fill:#ffa500;stroke:#ffa500;" x="318.612461" xlink:href="#m8d31f8cb70" y="75.712159"/>
     <use style="fill:#ffa500;stroke:#ffa500;" x="245.450873" xlink:href="#m8d31f8cb70" y="108.497684"/>
     <use style="fill:#ffa500;stroke:#ffa500;" x="315.868901" xlink:href="#m8d31f8cb70" y="83.542903"/>
     <use style="fill:#ffa500;stroke:#ffa500;" x="305.809183" xlink:href="#m8d31f8cb70" y="146.852783"/>
     <use style="fill:#ffa500;stroke:#ffa500;" x="248.194433" xlink:href="#m8d31f8cb70" y="155.159766"/>
     <use style="fill:#ffa500;stroke:#ffa500;" x="335.988338" xlink:href="#m8d31f8cb70" y="84.760913"/>
     <use style="fill:#ffa500;stroke:#ffa500;" x="245.450873" xlink:href="#m8d31f8cb70" y="139.062639"/>
     <use style="fill:#ffa500;stroke:#ffa500;" x="325.0141" xlink:href="#m8d31f8cb70" y="67.628639"/>
     <use style="fill:#ffa500;stroke:#ffa500;" x="134.793972" xlink:href="#m8d31f8cb70" y="142.249862"/>
     <use style="fill:#ffa500;stroke:#ffa500;" x="317.697941" xlink:href="#m8d31f8cb70" y="51.930889"/>
     <use style="fill:#ffa500;stroke:#ffa500;" x="256.425111" xlink:href="#m8d31f8cb70" y="148.199582"/>
     <use style="fill:#ffa500;stroke:#ffa500;" x="273.800988" xlink:href="#m8d31f8cb70" y="61.721112"/>
     <use style="fill:#ffa500;stroke:#ffa500;" x="358.851334" xlink:href="#m8d31f8cb70" y="67.628639"/>
     <use style="fill:#ffa500;stroke:#ffa500;" x="284.775226" xlink:href="#m8d31f8cb70" y="119.30633"/>
     <use style="fill:#ffa500;stroke:#ffa500;" x="263.74127" xlink:href="#m8d31f8cb70" y="168.754541"/>
     <use style="fill:#ffa500;stroke:#ffa500;" x="318.612461" xlink:href="#m8d31f8cb70" y="73.828649"/>
     <use style="fill:#ffa500;stroke:#ffa500;" x="314.039862" xlink:href="#m8d31f8cb70" y="72.341971"/>
     <use style="fill:#ffa500;stroke:#ffa500;" x="259.168671" xlink:href="#m8d31f8cb70" y="143.547813"/>
     <use style="fill:#ffa500;stroke:#ffa500;" x="219.844317" xlink:href="#m8d31f8cb70" y="110.485839"/>
     <use style="fill:#ffa500;stroke:#ffa500;" x="322.27054" xlink:href="#m8d31f8cb70" y="79.566343"/>
     <use style="fill:#ffa500;stroke:#ffa500;" x="282.031667" xlink:href="#m8d31f8cb70" y="54.14778"/>
     <use style="fill:#ffa500;stroke:#ffa500;" x="314.954381" xlink:href="#m8d31f8cb70" y="96.739423"/>
     <use style="fill:#ffa500;stroke:#ffa500;" x="318.612461" xlink:href="#m8d31f8cb70" y="88.908679"/>
     <use style="fill:#ffa500;stroke:#ffa500;" x="327.757659" xlink:href="#m8d31f8cb70" y="94.956459"/>
     <use style="fill:#ffa500;stroke:#ffa500;" x="314.039862" xlink:href="#m8d31f8cb70" y="73.455322"/>
     <use style="fill:#ffa500;stroke:#ffa500;" x="333.244778" xlink:href="#m8d31f8cb70" y="86.817628"/>
     <use style="fill:#ffa500;stroke:#ffa500;" x="330.501219" xlink:href="#m8d31f8cb70" y="72.71199"/>
    </g>
   </g>
   <g id="line2d_37">
    <path clip-path="url(#pc006a05008)" d="M 76.264702 232.841754 
L 175.73879 175.777664 
L 189.376367 167.808953 
L 199.805102 161.936429 
L 227.882466 145.31754 
L 239.113411 138.700691 
L 245.531094 134.885072 
L 250.344356 132.134296 
L 255.157619 129.199744 
L 258.36646 127.128617 
L 261.575302 125.338389 
L 264.784144 123.374233 
L 276.015089 117.085643 
L 280.026141 114.954354 
L 292.861507 107.606481 
L 296.872559 105.39302 
L 300.081401 103.48917 
L 305.696873 100.51207 
L 309.707925 98.09898 
L 320.938871 91.275736 
L 323.345502 89.95768 
L 328.960975 86.953655 
L 336.180868 82.583238 
L 342.598551 78.500634 
L 350.620655 73.416564 
L 389.126754 50.497449 
L 396.346648 46.341308 
L 396.346648 46.341308 
" style="fill:none;stroke:#000000;stroke-width:1.5;"/>
   </g>
   <g id="line2d_38">
    <path clip-path="url(#pc006a05008)" d="M 76.264702 258.903118 
L 128.408377 227.627771 
L 140.441533 220.666598 
L 162.903424 207.89929 
L 180.552052 197.556228 
L 201.409523 185.29952 
L 206.222785 182.357038 
L 229.486886 168.447285 
L 262.377512 150.758442 
L 268.795195 147.584725 
L 276.817299 143.30167 
L 281.630562 140.810579 
L 288.048245 137.058059 
L 299.27919 129.954988 
L 306.499084 125.273395 
L 324.949923 114.644455 
L 332.972027 109.946143 
L 342.598551 104.523539 
L 348.214024 101.112388 
L 352.225076 98.849183 
L 357.840549 95.474078 
L 360.24718 93.988434 
L 366.664863 90.35819 
L 373.082546 86.800214 
L 396.346648 73.792931 
L 396.346648 73.792931 
" style="fill:none;stroke:#ff0000;stroke-dasharray:5.55,2.4;stroke-dashoffset:0;stroke-width:1.5;"/>
   </g>
   <g id="line2d_39">
    <path clip-path="url(#pc006a05008)" d="M 76.264702 206.973364 
L 162.903424 157.266702 
L 184.563104 144.201859 
L 198.200681 136.276615 
L 201.409523 134.439876 
L 211.838258 127.913725 
L 219.860362 122.706594 
L 223.069203 120.922765 
L 227.080255 118.731631 
L 236.70678 112.844171 
L 243.926673 109.302356 
L 249.542146 105.931052 
L 256.76204 101.556592 
L 264.784144 96.933662 
L 273.608458 91.646299 
L 276.817299 89.946247 
L 289.652666 83.243407 
L 293.663718 81.046731 
L 299.27919 77.995761 
L 301.685822 76.677921 
L 307.301294 73.68474 
L 310.510136 71.883304 
L 320.136661 66.710073 
L 328.960975 61.336944 
L 349.818445 48.617336 
L 396.346648 21.046 
L 396.346648 21.046 
" style="fill:none;stroke:#ff0000;stroke-dasharray:5.55,2.4;stroke-dashoffset:0;stroke-width:1.5;"/>
   </g>
   <g id="line2d_40">
    <defs>
     <path d="M 0 3 
C 0.795609 3 1.55874 2.683901 2.12132 2.12132 
C 2.683901 1.55874 3 0.795609 3 0 
C 3 -0.795609 2.683901 -1.55874 2.12132 -2.12132 
C 1.55874 -2.683901 0.795609 -3 0 -3 
C -0.795609 -3 -1.55874 -2.683901 -2.12132 -2.12132 
C -2.683901 -1.55874 -3 -0.795609 -3 0 
C -3 0.795609 -2.683901 1.55874 -2.12132 2.12132 
C -1.55874 2.683901 -0.795609 3 0 3 
z
" id="m62325053f4" style="stroke:#ffa500;"/>
    </defs>
    <g clip-path="url(#pc006a05008)">
     <use style="fill:#ffa500;stroke:#ffa500;" x="80.837301" xlink:href="#m62325053f4" y="257.98848"/>
     <use style="fill:#ffa500;stroke:#ffa500;" x="335.988338" xlink:href="#m62325053f4" y="123.126921"/>
     <use style="fill:#ffa500;stroke:#ffa500;" x="283.860707" xlink:href="#m62325053f4" y="76.473567"/>
     <use style="fill:#ffa500;stroke:#ffa500;" x="227.160476" xlink:href="#m62325053f4" y="161.020536"/>
     <use style="fill:#ffa500;stroke:#ffa500;" x="304.894663" xlink:href="#m62325053f4" y="81.538842"/>
     <use style="fill:#ffa500;stroke:#ffa500;" x="326.843139" xlink:href="#m62325053f4" y="98.093502"/>
     <use style="fill:#ffa500;stroke:#ffa500;" x="289.347826" xlink:href="#m62325053f4" y="100.846384"/>
     <use style="fill:#ffa500;stroke:#ffa500;" x="191.494202" xlink:href="#m62325053f4" y="155.159766"/>
     <use style="fill:#ffa500;stroke:#ffa500;" x="264.65579" xlink:href="#m62325053f4" y="161.772797"/>
     <use style="fill:#ffa500;stroke:#ffa500;" x="314.954381" xlink:href="#m62325053f4" y="88.908679"/>
     <use style="fill:#ffa500;stroke:#ffa500;" x="213.442678" xlink:href="#m62325053f4" y="178.713514"/>
     <use style="fill:#ffa500;stroke:#ffa500;" x="250.937992" xlink:href="#m62325053f4" y="134.732541"/>
     <use style="fill:#ffa500;stroke:#ffa500;" x="282.946187" xlink:href="#m62325053f4" y="121.475234"/>
     <use style="fill:#ffa500;stroke:#ffa500;" x="260.083191" xlink:href="#m62325053f4" y="150.247329"/>
     <use style="fill:#ffa500;stroke:#ffa500;" x="329.586699" xlink:href="#m62325053f4" y="100.846384"/>
     <use style="fill:#ffa500;stroke:#ffa500;" x="318.612461" xlink:href="#m62325053f4" y="81.538842"/>
     <use style="fill:#ffa500;stroke:#ffa500;" x="245.450873" xlink:href="#m62325053f4" y="114.559404"/>
     <use style="fill:#ffa500;stroke:#ffa500;" x="315.868901" xlink:href="#m62325053f4" y="89.331112"/>
     <use style="fill:#ffa500;stroke:#ffa500;" x="305.809183" xlink:href="#m62325053f4" y="150.247329"/>
     <use style="fill:#ffa500;stroke:#ffa500;" x="248.194433" xlink:href="#m62325053f4" y="161.020536"/>
     <use style="fill:#ffa500;stroke:#ffa500;" x="335.988338" xlink:href="#m62325053f4" y="87.649864"/>
     <use style="fill:#ffa500;stroke:#ffa500;" x="245.450873" xlink:href="#m62325053f4" y="144.859354"/>
     <use style="fill:#ffa500;stroke:#ffa500;" x="325.0141" xlink:href="#m62325053f4" y="78.010409"/>
     <use style="fill:#ffa500;stroke:#ffa500;" x="134.793972" xlink:href="#m62325053f4" y="148.199582"/>
     <use style="fill:#ffa500;stroke:#ffa500;" x="317.697941" xlink:href="#m62325053f4" y="58.04191"/>
     <use style="fill:#ffa500;stroke:#ffa500;" x="256.425111" xlink:href="#m62325053f4" y="153.736443"/>
     <use style="fill:#ffa500;stroke:#ffa500;" x="273.800988" xlink:href="#m62325053f4" y="66.565681"/>
     <use style="fill:#ffa500;stroke:#ffa500;" x="358.851334" xlink:href="#m62325053f4" y="69.420531"/>
     <use style="fill:#ffa500;stroke:#ffa500;" x="284.775226" xlink:href="#m62325053f4" y="125.363607"/>
     <use style="fill:#ffa500;stroke:#ffa500;" x="263.74127" xlink:href="#m62325053f4" y="174.467308"/>
     <use style="fill:#ffa500;stroke:#ffa500;" x="318.612461" xlink:href="#m62325053f4" y="74.578658"/>
     <use style="fill:#ffa500;stroke:#ffa500;" x="314.039862" xlink:href="#m62325053f4" y="76.473567"/>
     <use style="fill:#ffa500;stroke:#ffa500;" x="259.168671" xlink:href="#m62325053f4" y="149.56102"/>
     <use style="fill:#ffa500;stroke:#ffa500;" x="219.844317" xlink:href="#m62325053f4" y="116.121808"/>
     <use style="fill:#ffa500;stroke:#ffa500;" x="322.27054" xlink:href="#m62325053f4" y="80.351619"/>
     <use style="fill:#ffa500;stroke:#ffa500;" x="282.031667" xlink:href="#m62325053f4" y="55.110021"/>
     <use style="fill:#ffa500;stroke:#ffa500;" x="314.954381" xlink:href="#m62325053f4" y="102.715838"/>
     <use style="fill:#ffa500;stroke:#ffa500;" x="318.612461" xlink:href="#m62325053f4" y="91.035235"/>
     <use style="fill:#ffa500;stroke:#ffa500;" x="327.757659" xlink:href="#m62325053f4" y="107.027009"/>
     <use style="fill:#ffa500;stroke:#ffa500;" x="314.039862" xlink:href="#m62325053f4" y="75.333185"/>
     <use style="fill:#ffa500;stroke:#ffa500;" x="333.244778" xlink:href="#m62325053f4" y="92.762863"/>
     <use style="fill:#ffa500;stroke:#ffa500;" x="330.501219" xlink:href="#m62325053f4" y="78.78596"/>
    </g>
   </g>
   <g id="patch_3">
    <path d="M 55.459375 275.062 
L 55.459375 8.95 
" style="fill:none;stroke:#000000;stroke-linecap:square;stroke-linejoin:miter;stroke-width:0.8;"/>
   </g>
   <g id="patch_4">
    <path d="M 412.579375 275.062 
L 412.579375 8.95 
" style="fill:none;stroke:#000000;stroke-linecap:square;stroke-linejoin:miter;stroke-width:0.8;"/>
   </g>
   <g id="patch_5">
    <path d="M 55.459375 275.062 
L 412.579375 275.062 
" style="fill:none;stroke:#000000;stroke-linecap:square;stroke-linejoin:miter;stroke-width:0.8;"/>
   </g>
   <g id="patch_6">
    <path d="M 55.459375 8.95 
L 412.579375 8.95 
" style="fill:none;stroke:#000000;stroke-linecap:square;stroke-linejoin:miter;stroke-width:0.8;"/>
   </g>
  </g>
 </g>
 <defs>
  <clipPath id="pc006a05008">
   <rect height="266.112" width="357.12" x="55.459375" y="8.95"/>
  </clipPath>
 </defs>
</svg>
