<?xml version="1.0" encoding="utf-8" standalone="no"?>
<!DOCTYPE svg PUBLIC "-//W3C//DTD SVG 1.1//EN"
  "http://www.w3.org/Graphics/SVG/1.1/DTD/svg11.dtd">
<svg xmlns:xlink="http://www.w3.org/1999/xlink" width="384.079375pt" height="309.921375pt" viewBox="0 0 384.079375 309.921375" xmlns="http://www.w3.org/2000/svg" version="1.1">
 <metadata>
  <rdf:RDF xmlns:dc="http://purl.org/dc/elements/1.1/" xmlns:cc="http://creativecommons.org/ns#" xmlns:rdf="http://www.w3.org/1999/02/22-rdf-syntax-ns#">
   <cc:Work>
    <dc:type rdf:resource="http://purl.org/dc/dcmitype/StillImage"/>
    <dc:date>2024-04-22T15:29:43.525202</dc:date>
    <dc:format>image/svg+xml</dc:format>
    <dc:creator>
     <cc:Agent>
      <dc:title>Matplotlib v3.8.0, https://matplotlib.org/</dc:title>
     </cc:Agent>
    </dc:creator>
   </cc:Work>
  </rdf:RDF>
 </metadata>
 <defs>
  <style type="text/css">*{stroke-linejoin: round; stroke-linecap: butt}</style>
 </defs>
 <g id="figure_1">
  <g id="patch_1">
   <path d="M 0 309.921375 
L 384.079375 309.921375 
L 384.079375 0 
L 0 0 
z
" style="fill: #ffffff"/>
  </g>
  <g id="axes_1">
   <g id="patch_2">
    <path d="M 18.009375 275.062 
L 375.129375 275.062 
L 375.129375 8.95 
L 18.009375 8.95 
z
" style="fill: #ffffff"/>
   </g>
   <g id="matplotlib.axis_1">
    <g id="xtick_1">
     <g id="line2d_1">
      <defs>
       <path id="md8af49635c" d="M 0 1.75 
L 0 -1.75 
" style="stroke: #000000; stroke-width: 0.8"/>
      </defs>
      <g>
       <use xlink:href="#md8af49635c" x="53.721375" y="275.062" style="stroke: #000000; stroke-width: 0.8"/>
      </g>
     </g>
     <g id="line2d_2">
      <g>
       <use xlink:href="#md8af49635c" x="53.721375" y="8.95" style="stroke: #000000; stroke-width: 0.8"/>
      </g>
     </g>
     <g id="text_1">
      <!-- −40 -->
      <g transform="translate(45.162 287.452625) scale(0.1 -0.1)">
       <defs>
        <path id="HelveticaNeue-Medium-2212" d="M 307 1293 
L 307 1946 
L 3533 1946 
L 3533 1293 
L 307 1293 
z
" transform="scale(0.015625)"/>
        <path id="HelveticaNeue-Medium-34" d="M 717 1638 
L 2074 1638 
L 2074 3610 
L 2061 3610 
L 717 1638 
z
M 3341 1062 
L 2765 1062 
L 2765 0 
L 2074 0 
L 2074 1062 
L 154 1062 
L 154 1786 
L 2074 4480 
L 2765 4480 
L 2765 1638 
L 3341 1638 
L 3341 1062 
z
" transform="scale(0.015625)"/>
        <path id="HelveticaNeue-Medium-30" d="M 1779 4570 
Q 2259 4570 2563 4349 
Q 2867 4128 3036 3785 
Q 3206 3443 3267 3033 
Q 3328 2624 3328 2240 
Q 3328 1856 3267 1446 
Q 3206 1037 3036 694 
Q 2867 352 2563 131 
Q 2259 -90 1779 -90 
Q 1299 -90 995 131 
Q 691 352 521 694 
Q 352 1037 291 1446 
Q 230 1856 230 2240 
Q 230 2624 291 3033 
Q 352 3443 521 3785 
Q 691 4128 995 4349 
Q 1299 4570 1779 4570 
z
M 1779 518 
Q 2016 518 2176 656 
Q 2336 794 2429 1027 
Q 2522 1261 2560 1574 
Q 2598 1888 2598 2240 
Q 2598 2592 2560 2902 
Q 2522 3213 2429 3449 
Q 2336 3686 2176 3824 
Q 2016 3962 1779 3962 
Q 1536 3962 1379 3824 
Q 1222 3686 1129 3449 
Q 1037 3213 998 2902 
Q 960 2592 960 2240 
Q 960 1888 998 1574 
Q 1037 1261 1129 1027 
Q 1222 794 1379 656 
Q 1536 518 1779 518 
z
" transform="scale(0.015625)"/>
       </defs>
       <use xlink:href="#HelveticaNeue-Medium-2212"/>
       <use xlink:href="#HelveticaNeue-Medium-34" x="59.999985"/>
       <use xlink:href="#HelveticaNeue-Medium-30" x="115.599976"/>
      </g>
     </g>
    </g>
    <g id="xtick_2">
     <g id="line2d_3">
      <g>
       <use xlink:href="#md8af49635c" x="125.145375" y="275.062" style="stroke: #000000; stroke-width: 0.8"/>
      </g>
     </g>
     <g id="line2d_4">
      <g>
       <use xlink:href="#md8af49635c" x="125.145375" y="8.95" style="stroke: #000000; stroke-width: 0.8"/>
      </g>
     </g>
     <g id="text_2">
      <!-- −20 -->
      <g transform="translate(116.586 287.452625) scale(0.1 -0.1)">
       <defs>
        <path id="HelveticaNeue-Medium-32" d="M 3309 0 
L 250 0 
Q 256 557 518 973 
Q 781 1389 1235 1696 
Q 1453 1856 1689 2006 
Q 1926 2157 2124 2329 
Q 2323 2502 2451 2704 
Q 2579 2906 2586 3168 
Q 2586 3290 2557 3427 
Q 2528 3565 2445 3683 
Q 2362 3802 2214 3882 
Q 2067 3962 1830 3962 
Q 1613 3962 1469 3875 
Q 1325 3789 1238 3638 
Q 1152 3488 1110 3283 
Q 1069 3078 1062 2842 
L 333 2842 
Q 333 3213 432 3529 
Q 531 3846 729 4076 
Q 928 4307 1213 4438 
Q 1498 4570 1875 4570 
Q 2285 4570 2560 4435 
Q 2835 4301 3004 4096 
Q 3174 3891 3244 3651 
Q 3315 3411 3315 3194 
Q 3315 2925 3232 2707 
Q 3149 2490 3008 2307 
Q 2867 2125 2688 1971 
Q 2509 1818 2317 1683 
Q 2125 1549 1933 1427 
Q 1741 1306 1577 1184 
Q 1414 1062 1292 931 
Q 1171 800 1126 653 
L 3309 653 
L 3309 0 
z
" transform="scale(0.015625)"/>
       </defs>
       <use xlink:href="#HelveticaNeue-Medium-2212"/>
       <use xlink:href="#HelveticaNeue-Medium-32" x="59.999985"/>
       <use xlink:href="#HelveticaNeue-Medium-30" x="115.599976"/>
      </g>
     </g>
    </g>
    <g id="xtick_3">
     <g id="line2d_5">
      <g>
       <use xlink:href="#md8af49635c" x="196.569375" y="275.062" style="stroke: #000000; stroke-width: 0.8"/>
      </g>
     </g>
     <g id="line2d_6">
      <g>
       <use xlink:href="#md8af49635c" x="196.569375" y="8.95" style="stroke: #000000; stroke-width: 0.8"/>
      </g>
     </g>
     <g id="text_3">
      <!-- 0 -->
      <g transform="translate(193.789688 287.452625) scale(0.1 -0.1)">
       <use xlink:href="#HelveticaNeue-Medium-30"/>
      </g>
     </g>
    </g>
    <g id="xtick_4">
     <g id="line2d_7">
      <g>
       <use xlink:href="#md8af49635c" x="267.993375" y="275.062" style="stroke: #000000; stroke-width: 0.8"/>
      </g>
     </g>
     <g id="line2d_8">
      <g>
       <use xlink:href="#md8af49635c" x="267.993375" y="8.95" style="stroke: #000000; stroke-width: 0.8"/>
      </g>
     </g>
     <g id="text_4">
      <!-- 20 -->
      <g transform="translate(262.434 287.452625) scale(0.1 -0.1)">
       <use xlink:href="#HelveticaNeue-Medium-32"/>
       <use xlink:href="#HelveticaNeue-Medium-30" x="55.599991"/>
      </g>
     </g>
    </g>
    <g id="xtick_5">
     <g id="line2d_9">
      <g>
       <use xlink:href="#md8af49635c" x="339.417375" y="275.062" style="stroke: #000000; stroke-width: 0.8"/>
      </g>
     </g>
     <g id="line2d_10">
      <g>
       <use xlink:href="#md8af49635c" x="339.417375" y="8.95" style="stroke: #000000; stroke-width: 0.8"/>
      </g>
     </g>
     <g id="text_5">
      <!-- 40 -->
      <g transform="translate(333.858 287.452625) scale(0.1 -0.1)">
       <use xlink:href="#HelveticaNeue-Medium-34"/>
       <use xlink:href="#HelveticaNeue-Medium-30" x="55.599991"/>
      </g>
     </g>
    </g>
    <g id="text_6">
     <!-- Velocity [km/s] -->
     <g transform="translate(162.856094 300.671375) scale(0.1 -0.1)">
      <defs>
       <path id="HelveticaNeue-Medium-56" d="M -32 4570 
L 800 4570 
L 1946 954 
L 1958 954 
L 3130 4570 
L 3942 4570 
L 2381 0 
L 1491 0 
L -32 4570 
z
" transform="scale(0.015625)"/>
       <path id="HelveticaNeue-Medium-65" d="M 2656 1946 
Q 2643 2118 2582 2278 
Q 2522 2438 2416 2556 
Q 2310 2675 2160 2748 
Q 2010 2822 1824 2822 
Q 1632 2822 1475 2755 
Q 1318 2688 1206 2569 
Q 1094 2451 1027 2291 
Q 960 2131 954 1946 
L 2656 1946 
z
M 954 1466 
Q 954 1274 1008 1094 
Q 1062 915 1171 780 
Q 1280 646 1446 566 
Q 1613 486 1843 486 
Q 2163 486 2358 624 
Q 2554 762 2650 1037 
L 3341 1037 
Q 3283 768 3142 557 
Q 3002 346 2803 202 
Q 2605 58 2358 -16 
Q 2112 -90 1843 -90 
Q 1453 -90 1152 38 
Q 851 166 643 396 
Q 435 627 329 947 
Q 224 1267 224 1651 
Q 224 2003 336 2320 
Q 448 2637 656 2877 
Q 864 3117 1158 3257 
Q 1453 3398 1824 3398 
Q 2214 3398 2524 3235 
Q 2835 3072 3040 2803 
Q 3245 2534 3337 2185 
Q 3430 1837 3386 1466 
L 954 1466 
z
" transform="scale(0.015625)"/>
       <path id="HelveticaNeue-Medium-6c" d="M 403 4570 
L 1133 4570 
L 1133 0 
L 403 0 
L 403 4570 
z
" transform="scale(0.015625)"/>
       <path id="HelveticaNeue-Medium-6f" d="M 1901 -90 
Q 1504 -90 1193 41 
Q 883 173 668 403 
Q 454 634 342 954 
Q 230 1274 230 1658 
Q 230 2035 342 2355 
Q 454 2675 668 2905 
Q 883 3136 1193 3267 
Q 1504 3398 1901 3398 
Q 2298 3398 2608 3267 
Q 2918 3136 3132 2905 
Q 3347 2675 3459 2355 
Q 3571 2035 3571 1658 
Q 3571 1274 3459 954 
Q 3347 634 3132 403 
Q 2918 173 2608 41 
Q 2298 -90 1901 -90 
z
M 1901 486 
Q 2144 486 2323 588 
Q 2502 691 2617 857 
Q 2733 1024 2787 1232 
Q 2842 1440 2842 1658 
Q 2842 1869 2787 2080 
Q 2733 2291 2617 2454 
Q 2502 2618 2323 2720 
Q 2144 2822 1901 2822 
Q 1658 2822 1478 2720 
Q 1299 2618 1184 2454 
Q 1069 2291 1014 2080 
Q 960 1869 960 1658 
Q 960 1440 1014 1232 
Q 1069 1024 1184 857 
Q 1299 691 1478 588 
Q 1658 486 1901 486 
z
" transform="scale(0.015625)"/>
       <path id="HelveticaNeue-Medium-63" d="M 2618 2202 
Q 2573 2509 2371 2665 
Q 2170 2822 1862 2822 
Q 1722 2822 1562 2774 
Q 1402 2726 1267 2595 
Q 1133 2464 1043 2230 
Q 954 1997 954 1619 
Q 954 1414 1002 1209 
Q 1050 1005 1155 845 
Q 1261 685 1427 585 
Q 1594 486 1830 486 
Q 2150 486 2358 684 
Q 2566 883 2618 1242 
L 3347 1242 
Q 3245 595 2857 252 
Q 2470 -90 1830 -90 
Q 1440 -90 1142 41 
Q 845 173 640 400 
Q 435 627 329 940 
Q 224 1254 224 1619 
Q 224 1990 326 2316 
Q 429 2643 633 2883 
Q 838 3123 1142 3260 
Q 1446 3398 1856 3398 
Q 2144 3398 2403 3324 
Q 2662 3251 2864 3104 
Q 3066 2957 3194 2733 
Q 3322 2509 3347 2202 
L 2618 2202 
z
" transform="scale(0.015625)"/>
       <path id="HelveticaNeue-Medium-69" d="M 403 4570 
L 1133 4570 
L 1133 3878 
L 403 3878 
L 403 4570 
z
M 403 3309 
L 1133 3309 
L 1133 0 
L 403 0 
L 403 3309 
z
" transform="scale(0.015625)"/>
       <path id="HelveticaNeue-Medium-74" d="M 51 3309 
L 602 3309 
L 602 4301 
L 1331 4301 
L 1331 3309 
L 1990 3309 
L 1990 2765 
L 1331 2765 
L 1331 998 
Q 1331 883 1340 800 
Q 1350 717 1385 659 
Q 1421 602 1491 573 
Q 1562 544 1683 544 
Q 1760 544 1837 547 
Q 1914 550 1990 570 
L 1990 6 
Q 1869 -6 1753 -19 
Q 1638 -32 1517 -32 
Q 1229 -32 1053 22 
Q 877 77 777 182 
Q 678 288 643 448 
Q 608 608 602 813 
L 602 2765 
L 51 2765 
L 51 3309 
z
" transform="scale(0.015625)"/>
       <path id="HelveticaNeue-Medium-79" d="M 19 3309 
L 819 3309 
L 1683 838 
L 1696 838 
L 2534 3309 
L 3296 3309 
L 2010 -179 
Q 1920 -403 1833 -608 
Q 1747 -813 1622 -969 
Q 1498 -1126 1312 -1219 
Q 1126 -1312 838 -1312 
Q 582 -1312 333 -1274 
L 333 -659 
Q 422 -672 505 -688 
Q 589 -704 678 -704 
Q 806 -704 889 -672 
Q 973 -640 1027 -579 
Q 1082 -518 1120 -435 
Q 1158 -352 1190 -243 
L 1274 13 
L 19 3309 
z
" transform="scale(0.015625)"/>
       <path id="HelveticaNeue-Medium-20" transform="scale(0.015625)"/>
       <path id="HelveticaNeue-Medium-5b" d="M 461 4678 
L 1888 4678 
L 1888 4102 
L 1152 4102 
L 1152 -646 
L 1888 -646 
L 1888 -1222 
L 461 -1222 
L 461 4678 
z
" transform="scale(0.015625)"/>
       <path id="HelveticaNeue-Medium-6b" d="M 403 4570 
L 1133 4570 
L 1133 1971 
L 2451 3309 
L 3347 3309 
L 2080 2093 
L 3469 0 
L 2579 0 
L 1568 1606 
L 1133 1184 
L 1133 0 
L 403 0 
L 403 4570 
z
" transform="scale(0.015625)"/>
       <path id="HelveticaNeue-Medium-6d" d="M 384 3309 
L 1075 3309 
L 1075 2848 
L 1094 2848 
Q 1178 2970 1274 3072 
Q 1370 3174 1488 3244 
Q 1606 3315 1760 3356 
Q 1914 3398 2112 3398 
Q 2413 3398 2672 3264 
Q 2931 3130 3040 2848 
Q 3226 3104 3469 3251 
Q 3712 3398 4077 3398 
Q 4602 3398 4893 3142 
Q 5184 2886 5184 2285 
L 5184 0 
L 4454 0 
L 4454 1933 
Q 4454 2131 4441 2294 
Q 4429 2458 4368 2576 
Q 4307 2694 4185 2758 
Q 4064 2822 3853 2822 
Q 3482 2822 3315 2592 
Q 3149 2362 3149 1939 
L 3149 0 
L 2419 0 
L 2419 2125 
Q 2419 2470 2294 2646 
Q 2170 2822 1837 2822 
Q 1696 2822 1565 2764 
Q 1434 2707 1334 2598 
Q 1235 2490 1174 2330 
Q 1114 2170 1114 1965 
L 1114 0 
L 384 0 
L 384 3309 
z
" transform="scale(0.015625)"/>
       <path id="HelveticaNeue-Medium-2f" d="M 1696 4678 
L 2394 4678 
L 557 -109 
L -141 -109 
L 1696 4678 
z
" transform="scale(0.015625)"/>
       <path id="HelveticaNeue-Medium-73" d="M 934 1062 
Q 966 742 1177 614 
Q 1389 486 1683 486 
Q 1786 486 1917 502 
Q 2048 518 2163 563 
Q 2278 608 2352 694 
Q 2426 781 2419 921 
Q 2413 1062 2317 1152 
Q 2221 1242 2070 1296 
Q 1920 1350 1728 1388 
Q 1536 1427 1338 1472 
Q 1133 1517 944 1581 
Q 755 1645 604 1753 
Q 454 1862 364 2032 
Q 275 2202 275 2451 
Q 275 2720 406 2902 
Q 538 3085 739 3197 
Q 941 3309 1187 3353 
Q 1434 3398 1658 3398 
Q 1914 3398 2147 3344 
Q 2381 3290 2569 3168 
Q 2758 3046 2883 2851 
Q 3008 2656 3040 2381 
L 2278 2381 
Q 2227 2643 2038 2732 
Q 1850 2822 1606 2822 
Q 1530 2822 1424 2809 
Q 1318 2797 1225 2761 
Q 1133 2726 1069 2659 
Q 1005 2592 1005 2483 
Q 1005 2349 1097 2265 
Q 1190 2182 1340 2128 
Q 1491 2074 1683 2035 
Q 1875 1997 2080 1952 
Q 2278 1907 2470 1843 
Q 2662 1779 2812 1670 
Q 2963 1562 3056 1395 
Q 3149 1229 3149 986 
Q 3149 691 3014 486 
Q 2880 282 2665 154 
Q 2451 26 2188 -32 
Q 1926 -90 1670 -90 
Q 1357 -90 1091 -19 
Q 826 51 630 195 
Q 435 339 323 553 
Q 211 768 205 1062 
L 934 1062 
z
" transform="scale(0.015625)"/>
       <path id="HelveticaNeue-Medium-5d" d="M 1434 -1222 
L 6 -1222 
L 6 -646 
L 742 -646 
L 742 4102 
L 6 4102 
L 6 4678 
L 1434 4678 
L 1434 -1222 
z
" transform="scale(0.015625)"/>
      </defs>
      <use xlink:href="#HelveticaNeue-Medium-56"/>
      <use xlink:href="#HelveticaNeue-Medium-65" x="55.599991"/>
      <use xlink:href="#HelveticaNeue-Medium-6c" x="111.199982"/>
      <use xlink:href="#HelveticaNeue-Medium-6f" x="135.299973"/>
      <use xlink:href="#HelveticaNeue-Medium-63" x="194.59996"/>
      <use xlink:href="#HelveticaNeue-Medium-69" x="250.199951"/>
      <use xlink:href="#HelveticaNeue-Medium-74" x="274.299942"/>
      <use xlink:href="#HelveticaNeue-Medium-79" x="307.59993"/>
      <use xlink:href="#HelveticaNeue-Medium-20" x="359.499924"/>
      <use xlink:href="#HelveticaNeue-Medium-5b" x="387.299911"/>
      <use xlink:href="#HelveticaNeue-Medium-6b" x="416.899902"/>
      <use xlink:href="#HelveticaNeue-Medium-6d" x="470.599899"/>
      <use xlink:href="#HelveticaNeue-Medium-2f" x="557.599884"/>
      <use xlink:href="#HelveticaNeue-Medium-73" x="592.799881"/>
      <use xlink:href="#HelveticaNeue-Medium-5d" x="644.699875"/>
     </g>
    </g>
   </g>
   <g id="matplotlib.axis_2">
    <g id="ytick_1">
     <g id="line2d_11">
      <defs>
       <path id="mebf9a8c4d8" d="M 1.75 0 
L -1.75 -0 
" style="stroke: #000000; stroke-width: 0.8"/>
      </defs>
      <g>
       <use xlink:href="#mebf9a8c4d8" x="18.009375" y="262.966" style="stroke: #000000; stroke-width: 0.8"/>
      </g>
     </g>
     <g id="line2d_12">
      <g>
       <use xlink:href="#mebf9a8c4d8" x="375.129375" y="262.966" style="stroke: #000000; stroke-width: 0.8"/>
      </g>
     </g>
     <g id="text_7">
      <!-- 0 -->
      <g transform="translate(7.2 266.536312) scale(0.1 -0.1)">
       <use xlink:href="#HelveticaNeue-Medium-30"/>
      </g>
     </g>
    </g>
    <g id="ytick_2">
     <g id="line2d_13">
      <g>
       <use xlink:href="#mebf9a8c4d8" x="18.009375" y="209.206" style="stroke: #000000; stroke-width: 0.8"/>
      </g>
     </g>
     <g id="line2d_14">
      <g>
       <use xlink:href="#mebf9a8c4d8" x="375.129375" y="209.206" style="stroke: #000000; stroke-width: 0.8"/>
      </g>
     </g>
     <g id="text_8">
      <!-- 2 -->
      <g transform="translate(7.2 212.776312) scale(0.1 -0.1)">
       <use xlink:href="#HelveticaNeue-Medium-32"/>
      </g>
     </g>
    </g>
    <g id="ytick_3">
     <g id="line2d_15">
      <g>
       <use xlink:href="#mebf9a8c4d8" x="18.009375" y="155.446" style="stroke: #000000; stroke-width: 0.8"/>
      </g>
     </g>
     <g id="line2d_16">
      <g>
       <use xlink:href="#mebf9a8c4d8" x="375.129375" y="155.446" style="stroke: #000000; stroke-width: 0.8"/>
      </g>
     </g>
     <g id="text_9">
      <!-- 4 -->
      <g transform="translate(7.2 159.016312) scale(0.1 -0.1)">
       <use xlink:href="#HelveticaNeue-Medium-34"/>
      </g>
     </g>
    </g>
    <g id="ytick_4">
     <g id="line2d_17">
      <g>
       <use xlink:href="#mebf9a8c4d8" x="18.009375" y="101.686" style="stroke: #000000; stroke-width: 0.8"/>
      </g>
     </g>
     <g id="line2d_18">
      <g>
       <use xlink:href="#mebf9a8c4d8" x="375.129375" y="101.686" style="stroke: #000000; stroke-width: 0.8"/>
      </g>
     </g>
     <g id="text_10">
      <!-- 6 -->
      <g transform="translate(7.2 105.256312) scale(0.1 -0.1)">
       <defs>
        <path id="HelveticaNeue-Medium-36" d="M 2528 3347 
Q 2502 3622 2332 3792 
Q 2163 3962 1875 3962 
Q 1677 3962 1533 3888 
Q 1389 3814 1289 3692 
Q 1190 3571 1129 3414 
Q 1069 3258 1030 3085 
Q 992 2912 976 2742 
Q 960 2573 947 2426 
L 960 2413 
Q 1107 2682 1366 2813 
Q 1626 2944 1926 2944 
Q 2259 2944 2521 2829 
Q 2784 2714 2966 2512 
Q 3149 2310 3245 2035 
Q 3341 1760 3341 1440 
Q 3341 1114 3235 835 
Q 3130 557 2931 349 
Q 2733 141 2457 25 
Q 2182 -90 1850 -90 
Q 1357 -90 1040 92 
Q 723 275 540 592 
Q 358 909 288 1334 
Q 218 1760 218 2253 
Q 218 2656 304 3065 
Q 390 3475 588 3811 
Q 787 4147 1110 4358 
Q 1434 4570 1907 4570 
Q 2176 4570 2413 4480 
Q 2650 4390 2832 4230 
Q 3014 4070 3129 3846 
Q 3245 3622 3258 3347 
L 2528 3347 
z
M 1824 518 
Q 2022 518 2169 598 
Q 2317 678 2416 806 
Q 2515 934 2563 1104 
Q 2611 1274 2611 1453 
Q 2611 1632 2563 1798 
Q 2515 1965 2416 2089 
Q 2317 2214 2169 2291 
Q 2022 2368 1824 2368 
Q 1626 2368 1475 2294 
Q 1325 2221 1222 2096 
Q 1120 1971 1069 1804 
Q 1018 1638 1018 1453 
Q 1018 1267 1069 1100 
Q 1120 934 1222 803 
Q 1325 672 1475 595 
Q 1626 518 1824 518 
z
" transform="scale(0.015625)"/>
       </defs>
       <use xlink:href="#HelveticaNeue-Medium-36"/>
      </g>
     </g>
    </g>
    <g id="ytick_5">
     <g id="line2d_19">
      <g>
       <use xlink:href="#mebf9a8c4d8" x="18.009375" y="47.926" style="stroke: #000000; stroke-width: 0.8"/>
      </g>
     </g>
     <g id="line2d_20">
      <g>
       <use xlink:href="#mebf9a8c4d8" x="375.129375" y="47.926" style="stroke: #000000; stroke-width: 0.8"/>
      </g>
     </g>
     <g id="text_11">
      <!-- 8 -->
      <g transform="translate(7.2 51.496312) scale(0.1 -0.1)">
       <defs>
        <path id="HelveticaNeue-Medium-38" d="M 1779 3994 
Q 1485 3994 1280 3818 
Q 1075 3642 1075 3309 
Q 1075 2989 1273 2819 
Q 1472 2650 1779 2650 
Q 2086 2650 2284 2819 
Q 2483 2989 2483 3309 
Q 2483 3642 2278 3818 
Q 2074 3994 1779 3994 
z
M 1779 -90 
Q 1440 -90 1149 6 
Q 858 102 646 284 
Q 435 467 316 729 
Q 198 992 198 1318 
Q 198 1741 419 2029 
Q 640 2317 1018 2413 
L 1018 2426 
Q 710 2541 547 2781 
Q 384 3021 384 3347 
Q 384 3923 745 4246 
Q 1107 4570 1779 4570 
Q 2451 4570 2812 4246 
Q 3174 3923 3174 3347 
Q 3174 3021 3011 2781 
Q 2848 2541 2541 2426 
L 2541 2413 
Q 2918 2317 3139 2029 
Q 3360 1741 3360 1318 
Q 3360 992 3241 729 
Q 3123 467 2912 284 
Q 2701 102 2409 6 
Q 2118 -90 1779 -90 
z
M 1779 486 
Q 2144 486 2387 704 
Q 2630 922 2630 1318 
Q 2630 1690 2387 1898 
Q 2144 2106 1779 2106 
Q 1414 2106 1171 1898 
Q 928 1690 928 1318 
Q 928 922 1171 704 
Q 1414 486 1779 486 
z
" transform="scale(0.015625)"/>
       </defs>
       <use xlink:href="#HelveticaNeue-Medium-38"/>
      </g>
     </g>
    </g>
   </g>
   <g id="LineCollection_1">
    <path d="M 225.138975 262.966 
L 275.135775 262.966 
" clip-path="url(#p160850c375)" style="fill: none; stroke: #ffa500; stroke-width: 1.5"/>
    <path d="M 153.714975 236.086 
L 264.422175 236.086 
" clip-path="url(#p160850c375)" style="fill: none; stroke: #ffa500; stroke-width: 1.5"/>
    <path d="M 182.284575 209.206 
L 232.281375 209.206 
" clip-path="url(#p160850c375)" style="fill: none; stroke: #ffa500; stroke-width: 1.5"/>
    <path d="M 225.138975 182.326 
L 246.566175 182.326 
" clip-path="url(#p160850c375)" style="fill: none; stroke: #ffa500; stroke-width: 1.5"/>
    <path d="M 178.713375 155.446 
L 221.567775 155.446 
" clip-path="url(#p160850c375)" style="fill: none; stroke: #ffa500; stroke-width: 1.5"/>
    <path d="M 171.570975 128.566 
L 210.854175 128.566 
" clip-path="url(#p160850c375)" style="fill: none; stroke: #ffa500; stroke-width: 1.5"/>
    <path d="M 157.286175 101.686 
L 228.710175 101.686 
" clip-path="url(#p160850c375)" style="fill: none; stroke: #ffa500; stroke-width: 1.5"/>
    <path d="M 125.145375 74.806 
L 171.570975 74.806 
" clip-path="url(#p160850c375)" style="fill: none; stroke: #ffa500; stroke-width: 1.5"/>
    <path d="M 18.009375 47.926 
L 107.289375 47.926 
" clip-path="url(#p160850c375)" style="fill: none; stroke: #ffa500; stroke-width: 1.5"/>
    <path d="M 139.430175 21.046 
L 235.852575 21.046 
" clip-path="url(#p160850c375)" style="fill: none; stroke: #ffa500; stroke-width: 1.5"/>
   </g>
   <g id="line2d_21">
    <defs>
     <path id="meb49c7626f" d="M 0 2 
L 0 -2 
" style="stroke: #ffa500"/>
    </defs>
    <g clip-path="url(#p160850c375)">
     <use xlink:href="#meb49c7626f" x="225.138975" y="262.966" style="fill: #ffa500; stroke: #ffa500"/>
     <use xlink:href="#meb49c7626f" x="153.714975" y="236.086" style="fill: #ffa500; stroke: #ffa500"/>
     <use xlink:href="#meb49c7626f" x="182.284575" y="209.206" style="fill: #ffa500; stroke: #ffa500"/>
     <use xlink:href="#meb49c7626f" x="225.138975" y="182.326" style="fill: #ffa500; stroke: #ffa500"/>
     <use xlink:href="#meb49c7626f" x="178.713375" y="155.446" style="fill: #ffa500; stroke: #ffa500"/>
     <use xlink:href="#meb49c7626f" x="171.570975" y="128.566" style="fill: #ffa500; stroke: #ffa500"/>
     <use xlink:href="#meb49c7626f" x="157.286175" y="101.686" style="fill: #ffa500; stroke: #ffa500"/>
     <use xlink:href="#meb49c7626f" x="125.145375" y="74.806" style="fill: #ffa500; stroke: #ffa500"/>
     <use xlink:href="#meb49c7626f" x="18.009375" y="47.926" style="fill: #ffa500; stroke: #ffa500"/>
     <use xlink:href="#meb49c7626f" x="139.430175" y="21.046" style="fill: #ffa500; stroke: #ffa500"/>
    </g>
   </g>
   <g id="line2d_22">
    <g clip-path="url(#p160850c375)">
     <use xlink:href="#meb49c7626f" x="275.135775" y="262.966" style="fill: #ffa500; stroke: #ffa500"/>
     <use xlink:href="#meb49c7626f" x="264.422175" y="236.086" style="fill: #ffa500; stroke: #ffa500"/>
     <use xlink:href="#meb49c7626f" x="232.281375" y="209.206" style="fill: #ffa500; stroke: #ffa500"/>
     <use xlink:href="#meb49c7626f" x="246.566175" y="182.326" style="fill: #ffa500; stroke: #ffa500"/>
     <use xlink:href="#meb49c7626f" x="221.567775" y="155.446" style="fill: #ffa500; stroke: #ffa500"/>
     <use xlink:href="#meb49c7626f" x="210.854175" y="128.566" style="fill: #ffa500; stroke: #ffa500"/>
     <use xlink:href="#meb49c7626f" x="228.710175" y="101.686" style="fill: #ffa500; stroke: #ffa500"/>
     <use xlink:href="#meb49c7626f" x="171.570975" y="74.806" style="fill: #ffa500; stroke: #ffa500"/>
     <use xlink:href="#meb49c7626f" x="107.289375" y="47.926" style="fill: #ffa500; stroke: #ffa500"/>
     <use xlink:href="#meb49c7626f" x="235.852575" y="21.046" style="fill: #ffa500; stroke: #ffa500"/>
    </g>
   </g>
   <g id="line2d_23">
    <defs>
     <path id="mc7d0b1e77a" d="M 0 3 
C 0.795609 3 1.55874 2.683901 2.12132 2.12132 
C 2.683901 1.55874 3 0.795609 3 0 
C 3 -0.795609 2.683901 -1.55874 2.12132 -2.12132 
C 1.55874 -2.683901 0.795609 -3 0 -3 
C -0.795609 -3 -1.55874 -2.683901 -2.12132 -2.12132 
C -2.683901 -1.55874 -3 -0.795609 -3 0 
C -3 0.795609 -2.683901 1.55874 -2.12132 2.12132 
C -1.55874 2.683901 -0.795609 3 0 3 
z
" style="stroke: #ffa500"/>
    </defs>
    <g clip-path="url(#p160850c375)">
     <use xlink:href="#mc7d0b1e77a" x="250.137375" y="262.966" style="fill: #ffa500; stroke: #ffa500"/>
     <use xlink:href="#mc7d0b1e77a" x="210.854175" y="236.086" style="fill: #ffa500; stroke: #ffa500"/>
     <use xlink:href="#mc7d0b1e77a" x="203.711775" y="209.206" style="fill: #ffa500; stroke: #ffa500"/>
     <use xlink:href="#mc7d0b1e77a" x="235.852575" y="182.326" style="fill: #ffa500; stroke: #ffa500"/>
     <use xlink:href="#mc7d0b1e77a" x="200.140575" y="155.446" style="fill: #ffa500; stroke: #ffa500"/>
     <use xlink:href="#mc7d0b1e77a" x="189.426975" y="128.566" style="fill: #ffa500; stroke: #ffa500"/>
     <use xlink:href="#mc7d0b1e77a" x="192.998175" y="101.686" style="fill: #ffa500; stroke: #ffa500"/>
     <use xlink:href="#mc7d0b1e77a" x="146.572575" y="74.806" style="fill: #ffa500; stroke: #ffa500"/>
     <use xlink:href="#mc7d0b1e77a" x="57.292575" y="47.926" style="fill: #ffa500; stroke: #ffa500"/>
     <use xlink:href="#mc7d0b1e77a" x="185.855775" y="21.046" style="fill: #ffa500; stroke: #ffa500"/>
    </g>
   </g>
   <g id="patch_3">
    <path d="M 18.009375 275.062 
L 18.009375 8.95 
" style="fill: none; stroke: #000000; stroke-width: 0.8; stroke-linejoin: miter; stroke-linecap: square"/>
   </g>
   <g id="patch_4">
    <path d="M 375.129375 275.062 
L 375.129375 8.95 
" style="fill: none; stroke: #000000; stroke-width: 0.8; stroke-linejoin: miter; stroke-linecap: square"/>
   </g>
   <g id="patch_5">
    <path d="M 18.009375 275.062 
L 375.129375 275.062 
" style="fill: none; stroke: #000000; stroke-width: 0.8; stroke-linejoin: miter; stroke-linecap: square"/>
   </g>
   <g id="patch_6">
    <path d="M 18.009375 8.95 
L 375.129375 8.95 
" style="fill: none; stroke: #000000; stroke-width: 0.8; stroke-linejoin: miter; stroke-linecap: square"/>
   </g>
  </g>
 </g>
 <defs>
  <clipPath id="p160850c375">
   <rect x="18.009375" y="8.95" width="357.12" height="266.112"/>
  </clipPath>
 </defs>
</svg>
