<?xml version="1.0" encoding="utf-8" standalone="no"?>
<!DOCTYPE svg PUBLIC "-//W3C//DTD SVG 1.1//EN"
  "http://www.w3.org/Graphics/SVG/1.1/DTD/svg11.dtd">
<svg xmlns:xlink="http://www.w3.org/1999/xlink" width="403.129375pt" height="322.43075pt" viewBox="0 0 403.129375 322.43075" xmlns="http://www.w3.org/2000/svg" version="1.1">
 <metadata>
  <rdf:RDF xmlns:dc="http://purl.org/dc/elements/1.1/" xmlns:cc="http://creativecommons.org/ns#" xmlns:rdf="http://www.w3.org/1999/02/22-rdf-syntax-ns#">
   <cc:Work>
    <dc:type rdf:resource="http://purl.org/dc/dcmitype/StillImage"/>
    <dc:date>2026-01-22T19:56:52.145643</dc:date>
    <dc:format>image/svg+xml</dc:format>
    <dc:creator>
     <cc:Agent>
      <dc:title>Matplotlib v3.10.8, https://matplotlib.org/</dc:title>
     </cc:Agent>
    </dc:creator>
   </cc:Work>
  </rdf:RDF>
 </metadata>
 <defs>
  <style type="text/css">*{stroke-linejoin: round; stroke-linecap: butt}</style>
 </defs>
 <g id="figure_1">
  <g id="patch_1">
   <path d="M 0 322.43075 
L 403.129375 322.43075 
L 403.129375 0 
L 0 0 
z
" style="fill: #ffffff"/>
  </g>
  <g id="axes_1">
   <g id="patch_2">
    <path d="M 37.059375 287.88075 
L 394.179375 287.88075 
L 394.179375 21.76875 
L 37.059375 21.76875 
z
" style="fill: #ffffff"/>
   </g>
   <g id="FillBetweenPolyCollection_1">
    <defs>
     <path id="m94fa311372" d="M 53.292102 -208.505788 
L 53.292102 -191.418557 
L 54.105773 -193.346619 
L 54.919443 -195.195605 
L 55.733114 -196.968827 
L 56.546784 -198.666387 
L 57.360455 -200.077433 
L 58.174126 -201.414817 
L 58.987796 -202.744498 
L 59.801467 -204.074996 
L 60.615137 -205.339057 
L 61.428808 -206.364081 
L 62.242478 -207.34332 
L 63.056149 -208.342962 
L 63.869819 -209.14512 
L 64.68349 -209.740154 
L 65.49716 -210.320724 
L 66.310831 -210.99003 
L 67.124501 -211.505425 
L 67.938172 -212.023692 
L 68.751843 -212.386927 
L 69.565513 -212.73488 
L 70.379184 -212.97743 
L 71.192854 -213.187747 
L 72.006525 -213.426359 
L 72.820195 -213.583877 
L 73.633866 -213.645196 
L 74.447536 -213.769707 
L 75.261207 -213.946341 
L 76.074877 -214.043273 
L 76.888548 -214.135142 
L 77.702218 -214.243511 
L 78.515889 -214.315214 
L 79.32956 -214.376193 
L 80.14323 -214.398484 
L 80.956901 -214.489601 
L 81.770571 -214.627928 
L 82.584242 -214.757895 
L 83.397912 -214.820395 
L 84.211583 -214.922076 
L 85.025253 -215.110011 
L 85.838924 -215.352935 
L 86.652594 -215.620391 
L 87.466265 -215.855161 
L 88.279935 -216.179525 
L 89.093606 -216.476529 
L 89.907277 -216.832087 
L 90.720947 -217.256194 
L 91.534618 -217.606983 
L 92.348288 -218.104587 
L 93.161959 -218.572132 
L 93.975629 -219.072966 
L 94.7893 -219.62185 
L 95.60297 -220.190963 
L 96.416641 -220.808432 
L 97.230311 -221.464246 
L 98.043982 -222.099344 
L 98.857653 -222.735954 
L 99.671323 -223.415251 
L 100.484994 -224.071399 
L 101.298664 -224.77197 
L 102.112335 -225.54958 
L 102.926005 -226.299653 
L 103.739676 -227.011764 
L 104.553346 -227.844077 
L 105.367017 -228.634445 
L 106.180687 -229.367744 
L 106.994358 -230.119674 
L 107.808028 -230.911771 
L 108.621699 -231.689846 
L 109.43537 -232.404714 
L 110.24904 -233.02467 
L 111.062711 -233.662826 
L 111.876381 -234.150856 
L 112.690052 -234.648423 
L 113.503722 -235.171688 
L 114.317393 -235.582865 
L 115.131063 -235.972583 
L 115.944734 -236.320465 
L 116.758404 -236.563051 
L 117.572075 -236.693385 
L 118.385745 -236.80993 
L 119.199416 -236.788185 
L 120.013087 -236.819659 
L 120.826757 -236.701524 
L 121.640428 -236.519641 
L 122.454098 -236.338674 
L 123.267769 -236.045563 
L 124.081439 -235.567979 
L 124.89511 -235.025406 
L 125.70878 -234.346836 
L 126.522451 -233.586286 
L 127.336121 -232.637881 
L 128.149792 -231.636484 
L 128.963462 -230.610183 
L 129.777133 -229.408259 
L 130.590804 -228.14824 
L 131.404474 -226.738135 
L 132.218145 -225.195511 
L 133.031815 -223.522297 
L 133.845486 -221.832213 
L 134.659156 -220.036619 
L 135.472827 -218.119178 
L 136.286497 -216.09317 
L 137.100168 -213.97013 
L 137.913838 -211.717073 
L 138.727509 -209.409659 
L 139.54118 -206.978096 
L 140.35485 -204.555261 
L 141.168521 -202.02526 
L 141.982191 -199.304602 
L 142.795862 -196.555479 
L 143.609532 -193.791592 
L 144.423203 -190.998257 
L 145.236873 -188.0338 
L 146.050544 -185.05652 
L 146.864214 -182.012172 
L 147.677885 -178.957517 
L 148.491555 -175.905058 
L 149.305226 -172.692401 
L 150.118897 -169.502606 
L 150.932567 -166.155541 
L 151.746238 -162.911039 
L 152.559908 -159.636042 
L 153.373579 -156.228824 
L 154.187249 -153.035374 
L 155.00092 -149.765238 
L 155.81459 -146.535615 
L 156.628261 -143.300165 
L 157.441931 -140.042954 
L 158.255602 -136.860623 
L 159.069272 -133.767124 
L 159.882943 -130.6592 
L 160.696614 -127.52509 
L 161.510284 -124.431052 
L 162.323955 -121.461765 
L 163.137625 -118.640129 
L 163.951296 -115.889819 
L 164.764966 -113.19379 
L 165.578637 -110.622683 
L 166.392307 -108.068524 
L 167.205978 -105.590483 
L 168.019648 -103.164554 
L 168.833319 -100.977334 
L 169.646989 -98.798742 
L 170.46066 -96.784792 
L 171.274331 -94.865412 
L 172.088001 -92.99211 
L 172.901672 -91.474159 
L 173.715342 -89.983873 
L 174.529013 -88.544291 
L 175.342683 -87.335126 
L 176.156354 -86.224914 
L 176.970024 -85.187054 
L 177.783695 -84.289482 
L 178.597365 -83.533369 
L 179.411036 -82.892715 
L 180.224707 -82.318388 
L 181.038377 -81.988147 
L 181.852048 -81.840929 
L 182.665718 -81.702307 
L 183.479389 -81.675616 
L 184.293059 -81.733202 
L 185.10673 -81.997963 
L 185.9204 -82.231364 
L 186.734071 -82.681156 
L 187.547741 -83.102606 
L 188.361412 -83.763966 
L 189.175082 -84.457185 
L 189.988753 -85.122589 
L 190.802424 -85.992131 
L 191.616094 -86.894592 
L 192.429765 -87.818446 
L 193.243435 -88.839609 
L 194.057106 -89.953975 
L 194.870776 -91.090665 
L 195.684447 -92.254692 
L 196.498117 -93.344368 
L 197.311788 -94.503129 
L 198.125458 -95.706807 
L 198.939129 -96.942566 
L 199.752799 -98.231081 
L 200.56647 -99.526797 
L 201.380141 -100.859682 
L 202.193811 -102.082266 
L 203.007482 -103.408516 
L 203.821152 -104.727647 
L 204.634823 -105.978627 
L 205.448493 -107.243918 
L 206.262164 -108.476211 
L 207.075834 -109.670643 
L 207.889505 -110.930905 
L 208.703175 -112.135234 
L 209.516846 -113.254908 
L 210.330516 -114.465295 
L 211.144187 -115.591925 
L 211.957858 -116.630283 
L 212.771528 -117.675994 
L 213.585199 -118.716826 
L 214.398869 -119.791459 
L 215.21254 -120.647656 
L 216.02621 -121.508408 
L 216.839881 -122.394356 
L 217.653551 -123.235985 
L 218.467222 -123.950646 
L 219.280892 -124.688349 
L 220.094563 -125.314429 
L 220.908234 -126.024163 
L 221.721904 -126.570832 
L 222.535575 -127.17097 
L 223.349245 -127.747577 
L 224.162916 -128.188828 
L 224.976586 -128.687509 
L 225.790257 -129.22025 
L 226.603927 -129.732026 
L 227.417598 -130.176127 
L 228.231268 -130.573104 
L 229.044939 -130.971306 
L 229.858609 -131.349011 
L 230.67228 -131.779948 
L 231.485951 -132.219325 
L 232.299621 -132.578974 
L 233.113292 -133.046252 
L 233.926962 -133.517181 
L 234.740633 -133.985509 
L 235.554303 -134.486357 
L 236.367974 -135.046559 
L 237.181644 -135.464045 
L 237.995315 -135.96991 
L 238.808985 -136.499538 
L 239.622656 -137.090435 
L 240.436326 -137.686425 
L 241.249997 -138.297495 
L 242.063668 -138.973146 
L 242.877338 -139.678256 
L 243.691009 -140.491166 
L 244.504679 -141.359727 
L 245.31835 -142.34903 
L 246.13202 -143.379585 
L 246.945691 -144.561389 
L 247.759361 -145.753582 
L 248.573032 -146.911705 
L 249.386702 -148.149701 
L 250.200373 -149.383726 
L 251.014043 -150.799192 
L 251.827714 -152.192678 
L 252.641385 -153.705453 
L 253.455055 -155.283243 
L 254.268726 -157.037957 
L 255.082396 -158.872823 
L 255.896067 -160.72602 
L 256.709737 -162.639497 
L 257.523408 -164.628703 
L 258.337078 -166.664165 
L 259.150749 -168.737136 
L 259.964419 -170.86432 
L 260.77809 -173.010744 
L 261.591761 -175.252141 
L 262.405431 -177.652316 
L 263.219102 -179.982261 
L 264.032772 -182.400135 
L 264.846443 -184.871271 
L 265.660113 -187.464322 
L 266.473784 -190.041981 
L 267.287454 -192.599911 
L 268.101125 -195.200551 
L 268.914795 -197.817839 
L 269.728466 -200.500393 
L 270.542136 -203.145978 
L 271.355807 -205.832943 
L 272.169478 -208.521849 
L 272.983148 -211.116666 
L 273.796819 -213.653009 
L 274.610489 -216.236689 
L 275.42416 -218.809967 
L 276.23783 -221.341263 
L 277.051501 -224.001372 
L 277.865171 -226.531526 
L 278.678842 -228.980773 
L 279.492512 -231.471835 
L 280.306183 -233.802104 
L 281.119853 -236.1441 
L 281.933524 -238.313675 
L 282.747195 -240.455069 
L 283.560865 -242.450767 
L 284.374536 -244.429507 
L 285.188206 -246.413814 
L 286.001877 -248.27857 
L 286.815547 -249.93226 
L 287.629218 -251.510051 
L 288.442888 -253.024222 
L 289.256559 -254.368632 
L 290.070229 -255.56121 
L 290.8839 -256.646589 
L 291.69757 -257.631315 
L 292.511241 -258.493909 
L 293.324912 -259.287639 
L 294.138582 -259.880004 
L 294.952253 -260.37694 
L 295.765923 -260.672648 
L 296.579594 -260.771556 
L 297.393264 -260.818678 
L 298.206935 -260.690414 
L 299.020605 -260.435977 
L 299.834276 -260.062879 
L 300.647946 -259.561116 
L 301.461617 -258.92193 
L 302.275288 -258.111907 
L 303.088958 -257.2279 
L 303.902629 -256.130581 
L 304.716299 -254.963747 
L 305.52997 -253.722609 
L 306.34364 -252.303251 
L 307.157311 -250.757885 
L 307.970981 -248.997699 
L 308.784652 -247.233037 
L 309.598322 -245.415372 
L 310.411993 -243.46126 
L 311.225663 -241.401931 
L 312.039334 -239.131956 
L 312.853005 -237.031143 
L 313.666675 -234.772609 
L 314.480346 -232.470762 
L 315.294016 -230.125798 
L 316.107687 -227.818293 
L 316.921357 -225.328733 
L 317.735028 -222.917725 
L 318.548698 -220.378994 
L 319.362369 -217.861589 
L 320.176039 -215.379024 
L 320.98971 -212.911948 
L 321.80338 -210.379768 
L 322.617051 -207.871221 
L 323.430722 -205.493558 
L 324.244392 -203.12792 
L 325.058063 -200.708883 
L 325.871733 -198.201482 
L 326.685404 -195.830088 
L 327.499074 -193.459629 
L 328.312745 -191.171816 
L 329.126415 -188.812744 
L 329.940086 -186.515279 
L 330.753756 -184.350109 
L 331.567427 -182.116357 
L 332.381097 -180.017631 
L 333.194768 -177.911671 
L 334.008439 -175.856299 
L 334.822109 -173.804356 
L 335.63578 -171.906763 
L 336.44945 -169.913968 
L 337.263121 -168.041598 
L 338.076791 -166.283676 
L 338.890462 -164.505027 
L 339.704132 -162.946561 
L 340.517803 -161.287447 
L 341.331473 -159.738129 
L 342.145144 -158.28228 
L 342.958815 -156.945134 
L 343.772485 -155.594673 
L 344.586156 -154.257233 
L 345.399826 -153.052279 
L 346.213497 -151.932277 
L 347.027167 -150.864863 
L 347.840838 -149.80503 
L 348.654508 -148.883787 
L 349.468179 -147.886925 
L 350.281849 -146.987384 
L 351.09552 -146.126875 
L 351.90919 -145.380655 
L 352.722861 -144.621933 
L 353.536532 -143.904059 
L 354.350202 -143.305154 
L 355.163873 -142.615648 
L 355.977543 -141.976741 
L 356.791214 -141.396791 
L 357.604884 -140.922836 
L 358.418555 -140.369629 
L 359.232225 -139.836534 
L 360.045896 -139.388389 
L 360.859566 -139.089754 
L 361.673237 -138.56846 
L 362.486907 -138.104378 
L 363.300578 -137.622393 
L 364.114249 -137.152648 
L 364.927919 -136.697599 
L 365.74159 -136.206543 
L 366.55526 -135.681099 
L 367.368931 -135.146524 
L 368.182601 -134.426271 
L 368.996272 -133.749551 
L 369.809942 -133.018166 
L 370.623613 -132.320007 
L 371.437283 -131.411564 
L 372.250954 -130.500668 
L 373.064624 -129.537446 
L 373.878295 -128.513901 
L 374.691966 -127.365041 
L 375.505636 -126.220005 
L 376.319307 -125.035914 
L 377.132977 -123.910482 
L 377.946648 -122.683539 
L 377.946648 -138.478958 
L 377.946648 -138.478958 
L 377.132977 -139.270335 
L 376.319307 -140.245752 
L 375.505636 -141.207447 
L 374.691966 -142.110675 
L 373.878295 -142.970789 
L 373.064624 -143.803498 
L 372.250954 -144.61605 
L 371.437283 -145.459223 
L 370.623613 -146.139264 
L 369.809942 -146.949612 
L 368.996272 -147.68957 
L 368.182601 -148.445625 
L 367.368931 -149.155966 
L 366.55526 -149.902073 
L 365.74159 -150.574694 
L 364.927919 -151.266343 
L 364.114249 -151.952036 
L 363.300578 -152.616093 
L 362.486907 -153.326382 
L 361.673237 -154.058485 
L 360.859566 -154.783982 
L 360.045896 -155.455098 
L 359.232225 -156.05728 
L 358.418555 -156.734264 
L 357.604884 -157.358704 
L 356.791214 -157.978337 
L 355.977543 -158.661126 
L 355.163873 -159.200383 
L 354.350202 -159.801622 
L 353.536532 -160.480476 
L 352.722861 -161.215884 
L 351.90919 -162.016397 
L 351.09552 -162.87387 
L 350.281849 -163.711764 
L 349.468179 -164.549984 
L 348.654508 -165.428375 
L 347.840838 -166.470405 
L 347.027167 -167.626337 
L 346.213497 -168.643049 
L 345.399826 -169.853845 
L 344.586156 -171.029505 
L 343.772485 -172.177758 
L 342.958815 -173.445295 
L 342.145144 -174.762056 
L 341.331473 -176.322841 
L 340.517803 -177.814914 
L 339.704132 -179.363504 
L 338.890462 -181.140359 
L 338.076791 -182.717517 
L 337.263121 -184.543238 
L 336.44945 -186.30696 
L 335.63578 -188.394753 
L 334.822109 -190.454773 
L 334.008439 -192.6513 
L 333.194768 -194.792073 
L 332.381097 -196.938815 
L 331.567427 -199.133334 
L 330.753756 -201.47779 
L 329.940086 -203.798906 
L 329.126415 -206.271908 
L 328.312745 -208.716834 
L 327.499074 -211.094506 
L 326.685404 -213.517058 
L 325.871733 -216.043334 
L 325.058063 -218.610204 
L 324.244392 -221.120175 
L 323.430722 -223.621653 
L 322.617051 -226.102525 
L 321.80338 -228.695877 
L 320.98971 -231.108527 
L 320.176039 -233.670768 
L 319.362369 -236.100664 
L 318.548698 -238.496638 
L 317.735028 -240.86405 
L 316.921357 -243.211167 
L 316.107687 -245.441001 
L 315.294016 -247.703921 
L 314.480346 -249.957563 
L 313.666675 -252.12758 
L 312.853005 -254.206105 
L 312.039334 -256.10668 
L 311.225663 -257.968214 
L 310.411993 -259.715412 
L 309.598322 -261.342491 
L 308.784652 -263.047292 
L 307.970981 -264.490552 
L 307.157311 -266.026861 
L 306.34364 -267.455221 
L 305.52997 -268.741087 
L 304.716299 -269.760448 
L 303.902629 -270.811296 
L 303.088958 -271.648925 
L 302.275288 -272.417693 
L 301.461617 -273.135161 
L 300.647946 -273.775761 
L 299.834276 -274.308403 
L 299.020605 -274.670248 
L 298.206935 -274.822552 
L 297.393264 -274.83814 
L 296.579594 -274.782465 
L 295.765923 -274.662038 
L 294.952253 -274.284257 
L 294.138582 -273.997526 
L 293.324912 -273.406146 
L 292.511241 -272.641538 
L 291.69757 -271.864047 
L 290.8839 -271.063308 
L 290.070229 -270.079328 
L 289.256559 -268.954159 
L 288.442888 -267.732749 
L 287.629218 -266.471285 
L 286.815547 -265.005539 
L 286.001877 -263.477714 
L 285.188206 -261.827794 
L 284.374536 -260.041624 
L 283.560865 -258.199524 
L 282.747195 -256.160109 
L 281.933524 -254.13759 
L 281.119853 -252.02373 
L 280.306183 -249.78736 
L 279.492512 -247.447866 
L 278.678842 -245.09169 
L 277.865171 -242.559525 
L 277.051501 -240.002422 
L 276.23783 -237.384032 
L 275.42416 -234.877269 
L 274.610489 -232.192953 
L 273.796819 -229.532195 
L 272.983148 -226.848662 
L 272.169478 -224.121794 
L 271.355807 -221.345887 
L 270.542136 -218.723179 
L 269.728466 -215.970308 
L 268.914795 -213.233957 
L 268.101125 -210.527578 
L 267.287454 -207.768765 
L 266.473784 -204.985891 
L 265.660113 -202.322744 
L 264.846443 -199.552984 
L 264.032772 -196.831624 
L 263.219102 -194.336665 
L 262.405431 -191.820684 
L 261.591761 -189.356819 
L 260.77809 -187.014142 
L 259.964419 -184.627667 
L 259.150749 -182.240475 
L 258.337078 -180.055999 
L 257.523408 -177.873979 
L 256.709737 -175.658617 
L 255.896067 -173.613194 
L 255.082396 -171.725976 
L 254.268726 -169.920821 
L 253.455055 -168.205398 
L 252.641385 -166.609383 
L 251.827714 -164.991503 
L 251.014043 -163.469141 
L 250.200373 -162.067757 
L 249.386702 -160.811029 
L 248.573032 -159.50538 
L 247.759361 -158.314024 
L 246.945691 -157.037055 
L 246.13202 -155.968736 
L 245.31835 -154.983234 
L 244.504679 -154.025242 
L 243.691009 -153.234198 
L 242.877338 -152.387095 
L 242.063668 -151.648673 
L 241.249997 -150.877952 
L 240.436326 -150.185177 
L 239.622656 -149.570109 
L 238.808985 -148.980158 
L 237.995315 -148.509361 
L 237.181644 -148.004752 
L 236.367974 -147.585497 
L 235.554303 -147.086892 
L 234.740633 -146.682274 
L 233.926962 -146.260613 
L 233.113292 -145.865574 
L 232.299621 -145.468615 
L 231.485951 -145.131988 
L 230.67228 -144.847753 
L 229.858609 -144.431157 
L 229.044939 -144.121175 
L 228.231268 -143.76675 
L 227.417598 -143.360359 
L 226.603927 -142.969531 
L 225.790257 -142.599996 
L 224.976586 -142.203168 
L 224.162916 -141.755967 
L 223.349245 -141.281098 
L 222.535575 -140.731028 
L 221.721904 -140.134561 
L 220.908234 -139.519174 
L 220.094563 -138.872504 
L 219.280892 -138.213108 
L 218.467222 -137.535018 
L 217.653551 -136.729982 
L 216.839881 -135.934047 
L 216.02621 -135.098786 
L 215.21254 -134.212461 
L 214.398869 -133.223158 
L 213.585199 -132.283463 
L 212.771528 -131.179274 
L 211.957858 -130.18236 
L 211.144187 -129.005018 
L 210.330516 -127.902521 
L 209.516846 -126.790014 
L 208.703175 -125.544725 
L 207.889505 -124.308991 
L 207.075834 -123.048042 
L 206.262164 -121.736079 
L 205.448493 -120.392563 
L 204.634823 -118.987025 
L 203.821152 -117.652369 
L 203.007482 -116.4031 
L 202.193811 -115.159296 
L 201.380141 -113.795873 
L 200.56647 -112.484107 
L 199.752799 -111.309203 
L 198.939129 -110.079594 
L 198.125458 -108.774651 
L 197.311788 -107.511998 
L 196.498117 -106.336717 
L 195.684447 -105.132118 
L 194.870776 -104.098411 
L 194.057106 -103.062033 
L 193.243435 -102.069415 
L 192.429765 -101.139949 
L 191.616094 -100.229321 
L 190.802424 -99.391947 
L 189.988753 -98.751238 
L 189.175082 -98.115408 
L 188.361412 -97.66353 
L 187.547741 -97.165933 
L 186.734071 -96.744384 
L 185.9204 -96.456086 
L 185.10673 -96.279842 
L 184.293059 -96.183243 
L 183.479389 -96.163848 
L 182.665718 -96.320107 
L 181.852048 -96.602282 
L 181.038377 -96.960319 
L 180.224707 -97.467404 
L 179.411036 -98.074255 
L 178.597365 -98.759909 
L 177.783695 -99.431512 
L 176.970024 -100.355455 
L 176.156354 -101.368237 
L 175.342683 -102.570645 
L 174.529013 -103.76681 
L 173.715342 -105.1607 
L 172.901672 -106.677952 
L 172.088001 -108.305885 
L 171.274331 -109.991364 
L 170.46066 -111.790157 
L 169.646989 -113.728757 
L 168.833319 -115.838995 
L 168.019648 -117.963448 
L 167.205978 -120.157455 
L 166.392307 -122.489767 
L 165.578637 -124.909601 
L 164.764966 -127.288077 
L 163.951296 -129.946229 
L 163.137625 -132.621883 
L 162.323955 -135.373707 
L 161.510284 -138.200379 
L 160.696614 -141.105046 
L 159.882943 -144.05942 
L 159.069272 -147.059186 
L 158.255602 -150.157308 
L 157.441931 -153.276666 
L 156.628261 -156.376105 
L 155.81459 -159.548496 
L 155.00092 -162.792787 
L 154.187249 -166.014513 
L 153.373579 -169.279579 
L 152.559908 -172.60726 
L 151.746238 -175.881197 
L 150.932567 -179.131261 
L 150.118897 -182.350275 
L 149.305226 -185.540056 
L 148.491555 -188.783253 
L 147.677885 -192.011668 
L 146.864214 -195.148365 
L 146.050544 -198.277242 
L 145.236873 -201.278682 
L 144.423203 -204.419581 
L 143.609532 -207.363666 
L 142.795862 -210.273152 
L 141.982191 -213.108995 
L 141.168521 -215.837266 
L 140.35485 -218.414389 
L 139.54118 -220.922799 
L 138.727509 -223.481856 
L 137.913838 -225.847205 
L 137.100168 -227.990947 
L 136.286497 -230.105787 
L 135.472827 -232.201249 
L 134.659156 -234.092216 
L 133.845486 -235.875559 
L 133.031815 -237.574144 
L 132.218145 -239.103423 
L 131.404474 -240.543179 
L 130.590804 -241.825307 
L 129.777133 -243.055697 
L 128.963462 -244.195986 
L 128.149792 -245.215093 
L 127.336121 -246.028892 
L 126.522451 -246.704896 
L 125.70878 -247.380374 
L 124.89511 -247.966519 
L 124.081439 -248.44521 
L 123.267769 -248.8319 
L 122.454098 -249.162547 
L 121.640428 -249.284896 
L 120.826757 -249.368281 
L 120.013087 -249.311406 
L 119.199416 -249.242381 
L 118.385745 -249.090254 
L 117.572075 -248.788725 
L 116.758404 -248.481928 
L 115.944734 -248.038703 
L 115.131063 -247.514995 
L 114.317393 -247.052744 
L 113.503722 -246.530196 
L 112.690052 -245.963743 
L 111.876381 -245.269715 
L 111.062711 -244.601814 
L 110.24904 -243.904592 
L 109.43537 -243.19258 
L 108.621699 -242.421172 
L 107.808028 -241.641428 
L 106.994358 -240.864269 
L 106.180687 -240.083485 
L 105.367017 -239.328307 
L 104.553346 -238.539423 
L 103.739676 -237.758603 
L 102.926005 -236.968981 
L 102.112335 -236.242057 
L 101.298664 -235.500947 
L 100.484994 -234.827121 
L 99.671323 -234.155426 
L 98.857653 -233.457746 
L 98.043982 -232.853291 
L 97.230311 -232.245955 
L 96.416641 -231.72208 
L 95.60297 -231.227988 
L 94.7893 -230.707231 
L 93.975629 -230.226682 
L 93.161959 -229.80031 
L 92.348288 -229.361255 
L 91.534618 -228.951615 
L 90.720947 -228.596853 
L 89.907277 -228.250777 
L 89.093606 -228.016885 
L 88.279935 -227.775353 
L 87.466265 -227.574824 
L 86.652594 -227.34251 
L 85.838924 -227.148718 
L 85.025253 -227.07798 
L 84.211583 -227.006558 
L 83.397912 -226.937367 
L 82.584242 -226.898245 
L 81.770571 -226.947497 
L 80.956901 -226.944338 
L 80.14323 -226.960952 
L 79.32956 -226.956225 
L 78.515889 -226.980494 
L 77.702218 -226.989812 
L 76.888548 -226.946318 
L 76.074877 -226.931829 
L 75.261207 -226.944451 
L 74.447536 -226.816732 
L 73.633866 -226.69905 
L 72.820195 -226.590435 
L 72.006525 -226.555616 
L 71.192854 -226.270765 
L 70.379184 -226.082242 
L 69.565513 -225.801158 
L 68.751843 -225.489486 
L 67.938172 -225.120557 
L 67.124501 -224.808647 
L 66.310831 -224.342912 
L 65.49716 -223.7895 
L 64.68349 -223.217408 
L 63.869819 -222.515304 
L 63.056149 -221.897221 
L 62.242478 -221.192572 
L 61.428808 -220.425365 
L 60.615137 -219.609968 
L 59.801467 -218.598333 
L 58.987796 -217.577483 
L 58.174126 -216.492947 
L 57.360455 -215.336346 
L 56.546784 -214.106285 
L 55.733114 -212.751356 
L 54.919443 -211.31685 
L 54.105773 -209.954786 
L 53.292102 -208.505788 
z
" style="stroke: #000000; stroke-opacity: 0.3"/>
    </defs>
    <g clip-path="url(#pd001261c52)">
     <use xlink:href="#m94fa311372" x="0" y="322.43075" style="fill-opacity: 0.3; stroke: #000000; stroke-opacity: 0.3"/>
    </g>
   </g>
   <g id="FillBetweenPolyCollection_2">
    <defs>
     <path id="mbaf8879be6" d="M 53.292102 -219.943372 
L 53.292102 -178.818069 
L 54.105773 -181.245592 
L 54.919443 -183.330205 
L 55.733114 -185.334031 
L 56.546784 -187.225097 
L 57.360455 -188.80576 
L 58.174126 -190.624576 
L 58.987796 -192.310959 
L 59.801467 -193.607888 
L 60.615137 -195.042188 
L 61.428808 -196.471633 
L 62.242478 -197.717251 
L 63.056149 -198.709961 
L 63.869819 -199.59515 
L 64.68349 -200.404688 
L 65.49716 -201.094649 
L 66.310831 -201.577113 
L 67.124501 -202.460451 
L 67.938172 -203.080138 
L 68.751843 -203.320705 
L 69.565513 -203.677564 
L 70.379184 -204.328916 
L 71.192854 -204.514084 
L 72.006525 -204.74738 
L 72.820195 -204.984631 
L 73.633866 -205.267942 
L 74.447536 -205.571047 
L 75.261207 -205.743568 
L 76.074877 -206.018477 
L 76.888548 -206.214475 
L 77.702218 -206.471235 
L 78.515889 -206.529313 
L 79.32956 -206.888956 
L 80.14323 -206.952053 
L 80.956901 -207.097879 
L 81.770571 -207.208973 
L 82.584242 -207.1384 
L 83.397912 -207.237256 
L 84.211583 -207.167922 
L 85.025253 -207.630618 
L 85.838924 -207.858 
L 86.652594 -207.958937 
L 87.466265 -208.362709 
L 88.279935 -208.561978 
L 89.093606 -208.921407 
L 89.907277 -209.16333 
L 90.720947 -209.676945 
L 91.534618 -210.098959 
L 92.348288 -210.619895 
L 93.161959 -211.368372 
L 93.975629 -211.796878 
L 94.7893 -212.393525 
L 95.60297 -213.001703 
L 96.416641 -213.629823 
L 97.230311 -214.380505 
L 98.043982 -215.25716 
L 98.857653 -215.975678 
L 99.671323 -216.578349 
L 100.484994 -217.229486 
L 101.298664 -217.917723 
L 102.112335 -218.701055 
L 102.926005 -219.497369 
L 103.739676 -220.183212 
L 104.553346 -220.944209 
L 105.367017 -221.818085 
L 106.180687 -222.59988 
L 106.994358 -223.333165 
L 107.808028 -223.870708 
L 108.621699 -224.522743 
L 109.43537 -225.076051 
L 110.24904 -225.698689 
L 111.062711 -226.143594 
L 111.876381 -226.651156 
L 112.690052 -227.19684 
L 113.503722 -227.436044 
L 114.317393 -227.738681 
L 115.131063 -227.996643 
L 115.944734 -228.299536 
L 116.758404 -228.536975 
L 117.572075 -228.75299 
L 118.385745 -228.770638 
L 119.199416 -228.746562 
L 120.013087 -228.589498 
L 120.826757 -228.344009 
L 121.640428 -228.011816 
L 122.454098 -227.632001 
L 123.267769 -227.174244 
L 124.081439 -226.5333 
L 124.89511 -225.750173 
L 125.70878 -224.899836 
L 126.522451 -224.02549 
L 127.336121 -223.170098 
L 128.149792 -222.183408 
L 128.963462 -220.901533 
L 129.777133 -219.514508 
L 130.590804 -218.352082 
L 131.404474 -216.996383 
L 132.218145 -215.089857 
L 133.031815 -213.425507 
L 133.845486 -211.613744 
L 134.659156 -209.865701 
L 135.472827 -207.902658 
L 136.286497 -205.86862 
L 137.100168 -203.85695 
L 137.913838 -201.558193 
L 138.727509 -199.432807 
L 139.54118 -197.026609 
L 140.35485 -194.528285 
L 141.168521 -191.978801 
L 141.982191 -189.436184 
L 142.795862 -186.723923 
L 143.609532 -183.999472 
L 144.423203 -181.143859 
L 145.236873 -178.181381 
L 146.050544 -175.120071 
L 146.864214 -172.264312 
L 147.677885 -169.284717 
L 148.491555 -166.43897 
L 149.305226 -163.070271 
L 150.118897 -159.984602 
L 150.932567 -156.873559 
L 151.746238 -153.550729 
L 152.559908 -150.02452 
L 153.373579 -146.833013 
L 154.187249 -143.778375 
L 155.00092 -140.494161 
L 155.81459 -136.950815 
L 156.628261 -133.760544 
L 157.441931 -130.465624 
L 158.255602 -127.201393 
L 159.069272 -124.059636 
L 159.882943 -120.905564 
L 160.696614 -117.916304 
L 161.510284 -115.056277 
L 162.323955 -112.160135 
L 163.137625 -109.3631 
L 163.951296 -106.474245 
L 164.764966 -103.851109 
L 165.578637 -101.163693 
L 166.392307 -98.493232 
L 167.205978 -95.967978 
L 168.019648 -93.511942 
L 168.833319 -91.045161 
L 169.646989 -88.830546 
L 170.46066 -86.888024 
L 171.274331 -85.139479 
L 172.088001 -83.437172 
L 172.901672 -81.960151 
L 173.715342 -80.609389 
L 174.529013 -79.161302 
L 175.342683 -77.596548 
L 176.156354 -76.452326 
L 176.970024 -75.543416 
L 177.783695 -74.683706 
L 178.597365 -74.076878 
L 179.411036 -73.522583 
L 180.224707 -73.112214 
L 181.038377 -72.877699 
L 181.852048 -72.860216 
L 182.665718 -72.88442 
L 183.479389 -72.943305 
L 184.293059 -72.858249 
L 185.10673 -73.384634 
L 185.9204 -73.806358 
L 186.734071 -74.220498 
L 187.547741 -74.741832 
L 188.361412 -75.385337 
L 189.175082 -76.186401 
L 189.988753 -77.017028 
L 190.802424 -77.838186 
L 191.616094 -78.625947 
L 192.429765 -79.460759 
L 193.243435 -80.479369 
L 194.057106 -81.44774 
L 194.870776 -82.432803 
L 195.684447 -83.472987 
L 196.498117 -84.604621 
L 197.311788 -85.937817 
L 198.125458 -87.122702 
L 198.939129 -88.397097 
L 199.752799 -89.668533 
L 200.56647 -90.887044 
L 201.380141 -91.90614 
L 202.193811 -93.071352 
L 203.007482 -94.462171 
L 203.821152 -95.65196 
L 204.634823 -96.806751 
L 205.448493 -98.071393 
L 206.262164 -99.368949 
L 207.075834 -100.586032 
L 207.889505 -101.857613 
L 208.703175 -103.114989 
L 209.516846 -104.214349 
L 210.330516 -105.554199 
L 211.144187 -106.720581 
L 211.957858 -107.721924 
L 212.771528 -108.588922 
L 213.585199 -109.423487 
L 214.398869 -110.372935 
L 215.21254 -111.342764 
L 216.02621 -112.422408 
L 216.839881 -113.149841 
L 217.653551 -113.877119 
L 218.467222 -114.684678 
L 219.280892 -115.422121 
L 220.094563 -116.214448 
L 220.908234 -117.025658 
L 221.721904 -117.729251 
L 222.535575 -118.413294 
L 223.349245 -119.018445 
L 224.162916 -119.652578 
L 224.976586 -120.178972 
L 225.790257 -120.749973 
L 226.603927 -121.21225 
L 227.417598 -121.825072 
L 228.231268 -122.232168 
L 229.044939 -122.771801 
L 229.858609 -123.133357 
L 230.67228 -123.6105 
L 231.485951 -123.916298 
L 232.299621 -124.365177 
L 233.113292 -124.940716 
L 233.926962 -125.352223 
L 234.740633 -125.930669 
L 235.554303 -126.486991 
L 236.367974 -126.908992 
L 237.181644 -127.454815 
L 237.995315 -127.98084 
L 238.808985 -128.699064 
L 239.622656 -129.457567 
L 240.436326 -129.931154 
L 241.249997 -130.563161 
L 242.063668 -131.217106 
L 242.877338 -131.946959 
L 243.691009 -132.761684 
L 244.504679 -133.429739 
L 245.31835 -134.499642 
L 246.13202 -135.329169 
L 246.945691 -136.498174 
L 247.759361 -137.646327 
L 248.573032 -138.75753 
L 249.386702 -139.848595 
L 250.200373 -141.099941 
L 251.014043 -142.511834 
L 251.827714 -144.094959 
L 252.641385 -145.474701 
L 253.455055 -147.089628 
L 254.268726 -148.721768 
L 255.082396 -150.447832 
L 255.896067 -152.20237 
L 256.709737 -153.908942 
L 257.523408 -156.093158 
L 258.337078 -158.042035 
L 259.150749 -160.072995 
L 259.964419 -162.117153 
L 260.77809 -164.185351 
L 261.591761 -166.321557 
L 262.405431 -168.725707 
L 263.219102 -171.171533 
L 264.032772 -173.200885 
L 264.846443 -175.57299 
L 265.660113 -177.779048 
L 266.473784 -180.431484 
L 267.287454 -182.834943 
L 268.101125 -185.186503 
L 268.914795 -187.598425 
L 269.728466 -190.11497 
L 270.542136 -192.745784 
L 271.355807 -195.187907 
L 272.169478 -197.774552 
L 272.983148 -200.179895 
L 273.796819 -202.953476 
L 274.610489 -205.500257 
L 275.42416 -208.099223 
L 276.23783 -210.6691 
L 277.051501 -213.081324 
L 277.865171 -215.368715 
L 278.678842 -217.711565 
L 279.492512 -219.925499 
L 280.306183 -222.104197 
L 281.119853 -224.598791 
L 281.933524 -227.034952 
L 282.747195 -229.290008 
L 283.560865 -231.458952 
L 284.374536 -233.462167 
L 285.188206 -235.389733 
L 286.001877 -237.158267 
L 286.815547 -238.753297 
L 287.629218 -240.42696 
L 288.442888 -242.057726 
L 289.256559 -243.657045 
L 290.070229 -245.135391 
L 290.8839 -246.244041 
L 291.69757 -247.587395 
L 292.511241 -248.523794 
L 293.324912 -249.316258 
L 294.138582 -250.103273 
L 294.952253 -250.300095 
L 295.765923 -250.860532 
L 296.579594 -250.803374 
L 297.393264 -250.851453 
L 298.206935 -250.578534 
L 299.020605 -250.140999 
L 299.834276 -249.49941 
L 300.647946 -248.472876 
L 301.461617 -247.851393 
L 302.275288 -246.919386 
L 303.088958 -245.831421 
L 303.902629 -244.512086 
L 304.716299 -242.85763 
L 305.52997 -241.213341 
L 306.34364 -239.680116 
L 307.157311 -237.854958 
L 307.970981 -235.863074 
L 308.784652 -234.04098 
L 309.598322 -232.163823 
L 310.411993 -229.971552 
L 311.225663 -227.831416 
L 312.039334 -225.569966 
L 312.853005 -223.342015 
L 313.666675 -221.456115 
L 314.480346 -219.57922 
L 315.294016 -217.550573 
L 316.107687 -215.50174 
L 316.921357 -212.819218 
L 317.735028 -210.393252 
L 318.548698 -207.756135 
L 319.362369 -205.588945 
L 320.176039 -203.593861 
L 320.98971 -201.077412 
L 321.80338 -198.411671 
L 322.617051 -196.213845 
L 323.430722 -193.989412 
L 324.244392 -191.546083 
L 325.058063 -189.0525 
L 325.871733 -186.794333 
L 326.685404 -184.679571 
L 327.499074 -182.26682 
L 328.312745 -179.84351 
L 329.126415 -177.710707 
L 329.940086 -175.825393 
L 330.753756 -173.680171 
L 331.567427 -171.291217 
L 332.381097 -169.464828 
L 333.194768 -167.427685 
L 334.008439 -165.565371 
L 334.822109 -163.379615 
L 335.63578 -161.564616 
L 336.44945 -159.381518 
L 337.263121 -157.466823 
L 338.076791 -155.960073 
L 338.890462 -154.32432 
L 339.704132 -152.615389 
L 340.517803 -151.023591 
L 341.331473 -149.481128 
L 342.145144 -147.910962 
L 342.958815 -146.523271 
L 343.772485 -145.255684 
L 344.586156 -144.075481 
L 345.399826 -142.854487 
L 346.213497 -141.808331 
L 347.027167 -140.820579 
L 347.840838 -139.975387 
L 348.654508 -138.927379 
L 349.468179 -137.925751 
L 350.281849 -137.243217 
L 351.09552 -136.368087 
L 351.90919 -135.792881 
L 352.722861 -135.097927 
L 353.536532 -134.375622 
L 354.350202 -133.290484 
L 355.163873 -133.071676 
L 355.977543 -132.600038 
L 356.791214 -131.961603 
L 357.604884 -131.531796 
L 358.418555 -130.868396 
L 359.232225 -130.097705 
L 360.045896 -129.741524 
L 360.859566 -129.229722 
L 361.673237 -128.893323 
L 362.486907 -128.290693 
L 363.300578 -127.67671 
L 364.114249 -127.262473 
L 364.927919 -126.894734 
L 365.74159 -126.274924 
L 366.55526 -125.58611 
L 367.368931 -125.024632 
L 368.182601 -124.279306 
L 368.996272 -123.506875 
L 369.809942 -123.029385 
L 370.623613 -121.86749 
L 371.437283 -121.200226 
L 372.250954 -120.271841 
L 373.064624 -119.056607 
L 373.878295 -117.887389 
L 374.691966 -116.480345 
L 375.505636 -114.744969 
L 376.319307 -113.016914 
L 377.132977 -111.166251 
L 377.946648 -109.04219 
L 377.946648 -148.835396 
L 377.946648 -148.835396 
L 377.132977 -149.565684 
L 376.319307 -150.32689 
L 375.505636 -150.976338 
L 374.691966 -151.710228 
L 373.878295 -152.555965 
L 373.064624 -153.344541 
L 372.250954 -154.133456 
L 371.437283 -154.917108 
L 370.623613 -155.639002 
L 369.809942 -156.42633 
L 368.996272 -157.095434 
L 368.182601 -157.960315 
L 367.368931 -158.683752 
L 366.55526 -159.394305 
L 365.74159 -160.002776 
L 364.927919 -160.709568 
L 364.114249 -161.3869 
L 363.300578 -162.275841 
L 362.486907 -163.20995 
L 361.673237 -164.014548 
L 360.859566 -164.546385 
L 360.045896 -165.761744 
L 359.232225 -166.876536 
L 358.418555 -167.606897 
L 357.604884 -168.682311 
L 356.791214 -169.394474 
L 355.977543 -170.469254 
L 355.163873 -171.151194 
L 354.350202 -172.30194 
L 353.536532 -173.370609 
L 352.722861 -174.254882 
L 351.90919 -175.167943 
L 351.09552 -176.190348 
L 350.281849 -176.855714 
L 349.468179 -177.534102 
L 348.654508 -178.637367 
L 347.840838 -179.440667 
L 347.027167 -180.297015 
L 346.213497 -181.089022 
L 345.399826 -182.415115 
L 344.586156 -183.610768 
L 343.772485 -184.654893 
L 342.958815 -185.844166 
L 342.145144 -186.752843 
L 341.331473 -188.215392 
L 340.517803 -189.907395 
L 339.704132 -191.030719 
L 338.890462 -192.761202 
L 338.076791 -194.586379 
L 337.263121 -196.685522 
L 336.44945 -199.063264 
L 335.63578 -201.073047 
L 334.822109 -203.139245 
L 334.008439 -205.396903 
L 333.194768 -207.648863 
L 332.381097 -210.004877 
L 331.567427 -212.519012 
L 330.753756 -215.02779 
L 329.940086 -217.412692 
L 329.126415 -219.702097 
L 328.312745 -222.320977 
L 327.499074 -224.588356 
L 326.685404 -226.986133 
L 325.871733 -229.32793 
L 325.058063 -231.619389 
L 324.244392 -234.101686 
L 323.430722 -236.667401 
L 322.617051 -239.13988 
L 321.80338 -241.463389 
L 320.98971 -243.549779 
L 320.176039 -245.83703 
L 319.362369 -247.927696 
L 318.548698 -249.964574 
L 317.735028 -251.95602 
L 316.921357 -254.31977 
L 316.107687 -256.468189 
L 315.294016 -258.703686 
L 314.480346 -260.814773 
L 313.666675 -262.813077 
L 312.853005 -264.71267 
L 312.039334 -266.509891 
L 311.225663 -268.219599 
L 310.411993 -269.729755 
L 309.598322 -271.304453 
L 308.784652 -272.873757 
L 307.970981 -274.107616 
L 307.157311 -275.65422 
L 306.34364 -276.79763 
L 305.52997 -278.071098 
L 304.716299 -278.977468 
L 303.902629 -280.180846 
L 303.088958 -281.007306 
L 302.275288 -281.642182 
L 301.461617 -282.24435 
L 300.647946 -282.803621 
L 299.834276 -283.337605 
L 299.020605 -283.600767 
L 298.206935 -283.832269 
L 297.393264 -283.917981 
L 296.579594 -283.882756 
L 295.765923 -283.727175 
L 294.952253 -283.594531 
L 294.138582 -283.560417 
L 293.324912 -282.996303 
L 292.511241 -282.606694 
L 291.69757 -281.945156 
L 290.8839 -281.23442 
L 290.070229 -280.217447 
L 289.256559 -279.030983 
L 288.442888 -277.832415 
L 287.629218 -276.521036 
L 286.815547 -274.951424 
L 286.001877 -273.408623 
L 285.188206 -271.573378 
L 284.374536 -269.699714 
L 283.560865 -267.889664 
L 282.747195 -266.013674 
L 281.933524 -264.136602 
L 281.119853 -262.122046 
L 280.306183 -260.024449 
L 279.492512 -258.103397 
L 278.678842 -255.915842 
L 277.865171 -253.854021 
L 277.051501 -251.557021 
L 276.23783 -248.948806 
L 275.42416 -246.489883 
L 274.610489 -244.157345 
L 273.796819 -241.560349 
L 272.983148 -239.036431 
L 272.169478 -236.629908 
L 271.355807 -233.864419 
L 270.542136 -230.957743 
L 269.728466 -227.986615 
L 268.914795 -225.412289 
L 268.101125 -222.831813 
L 267.287454 -219.631384 
L 266.473784 -216.464173 
L 265.660113 -213.477771 
L 264.846443 -210.578595 
L 264.032772 -207.851312 
L 263.219102 -205.409039 
L 262.405431 -202.750108 
L 261.591761 -199.896896 
L 260.77809 -197.061434 
L 259.964419 -194.590371 
L 259.150749 -192.132582 
L 258.337078 -189.531797 
L 257.523408 -187.240576 
L 256.709737 -185.208411 
L 255.896067 -182.946131 
L 255.082396 -180.938868 
L 254.268726 -178.884414 
L 253.455055 -176.98991 
L 252.641385 -175.502393 
L 251.827714 -173.611265 
L 251.014043 -172.06634 
L 250.200373 -170.653407 
L 249.386702 -169.270634 
L 248.573032 -167.927725 
L 247.759361 -166.622762 
L 246.945691 -165.385344 
L 246.13202 -164.565241 
L 245.31835 -163.467891 
L 244.504679 -162.370347 
L 243.691009 -161.402981 
L 242.877338 -160.630335 
L 242.063668 -159.788588 
L 241.249997 -159.284423 
L 240.436326 -158.686968 
L 239.622656 -158.297143 
L 238.808985 -157.801231 
L 237.995315 -157.208 
L 237.181644 -156.875871 
L 236.367974 -156.334423 
L 235.554303 -155.829877 
L 234.740633 -155.445926 
L 233.926962 -155.00032 
L 233.113292 -154.614596 
L 232.299621 -154.246321 
L 231.485951 -153.840913 
L 230.67228 -153.644578 
L 229.858609 -153.105108 
L 229.044939 -152.824111 
L 228.231268 -152.452064 
L 227.417598 -152.054542 
L 226.603927 -151.508296 
L 225.790257 -151.161911 
L 224.976586 -150.54866 
L 224.162916 -150.084715 
L 223.349245 -149.733032 
L 222.535575 -148.985372 
L 221.721904 -148.608552 
L 220.908234 -148.116566 
L 220.094563 -147.554894 
L 219.280892 -146.921665 
L 218.467222 -146.278564 
L 217.653551 -145.403868 
L 216.839881 -144.600951 
L 216.02621 -143.76736 
L 215.21254 -142.751408 
L 214.398869 -141.689282 
L 213.585199 -140.723127 
L 212.771528 -139.804431 
L 211.957858 -138.862179 
L 211.144187 -137.795098 
L 210.330516 -136.718214 
L 209.516846 -135.593333 
L 208.703175 -134.292978 
L 207.889505 -133.111351 
L 207.075834 -131.966553 
L 206.262164 -130.755974 
L 205.448493 -129.429744 
L 204.634823 -128.009875 
L 203.821152 -126.609907 
L 203.007482 -125.276836 
L 202.193811 -124.064003 
L 201.380141 -122.889963 
L 200.56647 -121.606345 
L 199.752799 -120.368379 
L 198.939129 -118.969425 
L 198.125458 -117.626252 
L 197.311788 -116.625876 
L 196.498117 -115.48299 
L 195.684447 -114.309147 
L 194.870776 -113.36415 
L 194.057106 -112.271014 
L 193.243435 -111.357359 
L 192.429765 -110.435477 
L 191.616094 -109.481631 
L 190.802424 -108.626908 
L 189.988753 -107.947735 
L 189.175082 -107.434314 
L 188.361412 -106.966238 
L 187.547741 -106.692287 
L 186.734071 -106.515408 
L 185.9204 -106.587493 
L 185.10673 -106.38692 
L 184.293059 -106.458345 
L 183.479389 -106.75913 
L 182.665718 -106.880979 
L 181.852048 -107.220153 
L 181.038377 -107.471918 
L 180.224707 -107.900398 
L 179.411036 -108.337141 
L 178.597365 -109.108929 
L 177.783695 -109.790596 
L 176.970024 -110.638578 
L 176.156354 -111.514931 
L 175.342683 -112.708704 
L 174.529013 -113.834468 
L 173.715342 -115.189334 
L 172.901672 -116.611789 
L 172.088001 -118.137727 
L 171.274331 -119.963885 
L 170.46066 -121.586796 
L 169.646989 -123.594079 
L 168.833319 -125.665175 
L 168.019648 -127.810708 
L 167.205978 -129.855557 
L 166.392307 -132.194417 
L 165.578637 -134.614662 
L 164.764966 -137.214609 
L 163.951296 -139.644172 
L 163.137625 -142.234288 
L 162.323955 -144.967461 
L 161.510284 -147.588417 
L 160.696614 -150.174439 
L 159.882943 -153.051636 
L 159.069272 -156.244148 
L 158.255602 -159.256276 
L 157.441931 -162.345806 
L 156.628261 -165.41508 
L 155.81459 -168.584221 
L 155.00092 -171.812202 
L 154.187249 -175.044562 
L 153.373579 -178.425699 
L 152.559908 -181.800198 
L 151.746238 -185.135183 
L 150.932567 -188.49561 
L 150.118897 -191.762892 
L 149.305226 -195.018118 
L 148.491555 -198.19888 
L 147.677885 -201.284817 
L 146.864214 -204.368018 
L 146.050544 -207.403918 
L 145.236873 -210.436042 
L 144.423203 -213.422214 
L 143.609532 -216.295914 
L 142.795862 -219.324239 
L 141.982191 -222.13431 
L 141.168521 -224.607123 
L 140.35485 -227.237102 
L 139.54118 -229.562311 
L 138.727509 -231.738345 
L 137.913838 -233.996659 
L 137.100168 -236.246474 
L 136.286497 -238.352224 
L 135.472827 -240.301472 
L 134.659156 -242.207448 
L 133.845486 -244.128171 
L 133.031815 -245.80254 
L 132.218145 -247.362224 
L 131.404474 -248.85687 
L 130.590804 -250.371413 
L 129.777133 -251.596047 
L 128.963462 -252.61452 
L 128.149792 -253.65269 
L 127.336121 -254.322281 
L 126.522451 -255.213533 
L 125.70878 -256.068822 
L 124.89511 -256.557847 
L 124.081439 -256.842732 
L 123.267769 -257.257685 
L 122.454098 -257.471826 
L 121.640428 -257.631276 
L 120.826757 -257.709858 
L 120.013087 -257.596876 
L 119.199416 -257.296009 
L 118.385745 -256.948643 
L 117.572075 -256.455242 
L 116.758404 -255.892767 
L 115.944734 -255.51625 
L 115.131063 -255.060592 
L 114.317393 -254.344024 
L 113.503722 -253.829976 
L 112.690052 -253.315147 
L 111.876381 -252.615718 
L 111.062711 -252.078548 
L 110.24904 -251.319853 
L 109.43537 -250.338719 
L 108.621699 -249.479545 
L 107.808028 -248.988508 
L 106.994358 -248.135895 
L 106.180687 -247.262196 
L 105.367017 -246.321201 
L 104.553346 -245.712371 
L 103.739676 -244.956385 
L 102.926005 -244.31257 
L 102.112335 -243.482939 
L 101.298664 -242.704853 
L 100.484994 -242.150944 
L 99.671323 -241.521662 
L 98.857653 -240.82477 
L 98.043982 -240.017875 
L 97.230311 -239.576818 
L 96.416641 -239.182349 
L 95.60297 -238.737904 
L 94.7893 -238.245332 
L 93.975629 -237.80421 
L 93.161959 -237.294057 
L 92.348288 -237.080905 
L 91.534618 -236.879124 
L 90.720947 -236.609521 
L 89.907277 -236.471177 
L 89.093606 -236.352805 
L 88.279935 -236.182195 
L 87.466265 -236.188403 
L 86.652594 -236.055469 
L 85.838924 -236.092243 
L 85.025253 -236.098964 
L 84.211583 -236.066795 
L 83.397912 -236.043529 
L 82.584242 -236.134293 
L 81.770571 -236.21509 
L 80.956901 -236.281844 
L 80.14323 -236.473781 
L 79.32956 -236.547741 
L 78.515889 -236.662217 
L 77.702218 -236.534657 
L 76.888548 -236.717215 
L 76.074877 -236.856833 
L 75.261207 -236.982241 
L 74.447536 -236.867028 
L 73.633866 -236.835631 
L 72.820195 -236.640404 
L 72.006525 -236.388548 
L 71.192854 -235.835703 
L 70.379184 -235.58418 
L 69.565513 -234.829772 
L 68.751843 -234.390687 
L 67.938172 -234.302715 
L 67.124501 -234.069606 
L 66.310831 -233.449466 
L 65.49716 -233.000524 
L 64.68349 -232.451914 
L 63.869819 -232.067553 
L 63.056149 -231.501125 
L 62.242478 -230.614175 
L 61.428808 -229.978648 
L 60.615137 -229.27744 
L 59.801467 -228.4347 
L 58.987796 -227.527927 
L 58.174126 -226.596874 
L 57.360455 -225.594764 
L 56.546784 -224.68912 
L 55.733114 -223.574666 
L 54.919443 -222.431537 
L 54.105773 -221.319752 
L 53.292102 -219.943372 
z
" style="stroke: #808080; stroke-opacity: 0.2"/>
    </defs>
    <g clip-path="url(#pd001261c52)">
     <use xlink:href="#mbaf8879be6" x="0" y="322.43075" style="fill: #808080; fill-opacity: 0.2; stroke: #808080; stroke-opacity: 0.2"/>
    </g>
   </g>
   <g id="matplotlib.axis_1">
    <g id="xtick_1">
     <g id="line2d_1">
      <defs>
       <path id="m934bfc6181" d="M 0 1.75 
L 0 -1.75 
" style="stroke: #000000; stroke-width: 0.8"/>
      </defs>
      <g>
       <use xlink:href="#m934bfc6181" x="53.292102" y="287.88075" style="stroke: #000000; stroke-width: 0.8"/>
      </g>
     </g>
     <g id="line2d_2">
      <g>
       <use xlink:href="#m934bfc6181" x="53.292102" y="21.76875" style="stroke: #000000; stroke-width: 0.8"/>
      </g>
     </g>
     <g id="text_1">
      <!-- 0 -->
      <g transform="translate(50.512415 300.271375) scale(0.1 -0.1)">
       <defs>
        <path id="HelveticaNeue-Medium-30" d="M 1779 4570 
Q 2259 4570 2563 4349 
Q 2867 4128 3036 3785 
Q 3206 3443 3267 3033 
Q 3328 2624 3328 2240 
Q 3328 1856 3267 1446 
Q 3206 1037 3036 694 
Q 2867 352 2563 131 
Q 2259 -90 1779 -90 
Q 1299 -90 995 131 
Q 691 352 521 694 
Q 352 1037 291 1446 
Q 230 1856 230 2240 
Q 230 2624 291 3033 
Q 352 3443 521 3785 
Q 691 4128 995 4349 
Q 1299 4570 1779 4570 
z
M 1779 518 
Q 2016 518 2176 656 
Q 2336 794 2429 1027 
Q 2522 1261 2560 1574 
Q 2598 1888 2598 2240 
Q 2598 2592 2560 2902 
Q 2522 3213 2429 3449 
Q 2336 3686 2176 3824 
Q 2016 3962 1779 3962 
Q 1536 3962 1379 3824 
Q 1222 3686 1129 3449 
Q 1037 3213 998 2902 
Q 960 2592 960 2240 
Q 960 1888 998 1574 
Q 1037 1261 1129 1027 
Q 1222 794 1379 656 
Q 1536 518 1779 518 
z
" transform="scale(0.015625)"/>
       </defs>
       <use xlink:href="#HelveticaNeue-Medium-30"/>
      </g>
     </g>
    </g>
    <g id="xtick_2">
     <g id="line2d_3">
      <g>
       <use xlink:href="#m934bfc6181" x="118.223011" y="287.88075" style="stroke: #000000; stroke-width: 0.8"/>
      </g>
     </g>
     <g id="line2d_4">
      <g>
       <use xlink:href="#m934bfc6181" x="118.223011" y="21.76875" style="stroke: #000000; stroke-width: 0.8"/>
      </g>
     </g>
     <g id="text_2">
      <!-- 1 -->
      <g transform="translate(115.443324 300.271375) scale(0.1 -0.1)">
       <defs>
        <path id="HelveticaNeue-Medium-31" d="M 339 3738 
Q 570 3738 787 3776 
Q 1005 3814 1181 3904 
Q 1357 3994 1481 4134 
Q 1606 4275 1645 4480 
L 2240 4480 
L 2240 0 
L 1440 0 
L 1440 3162 
L 339 3162 
L 339 3738 
z
" transform="scale(0.015625)"/>
       </defs>
       <use xlink:href="#HelveticaNeue-Medium-31"/>
      </g>
     </g>
    </g>
    <g id="xtick_3">
     <g id="line2d_5">
      <g>
       <use xlink:href="#m934bfc6181" x="183.15392" y="287.88075" style="stroke: #000000; stroke-width: 0.8"/>
      </g>
     </g>
     <g id="line2d_6">
      <g>
       <use xlink:href="#m934bfc6181" x="183.15392" y="21.76875" style="stroke: #000000; stroke-width: 0.8"/>
      </g>
     </g>
     <g id="text_3">
      <!-- 2 -->
      <g transform="translate(180.374233 300.271375) scale(0.1 -0.1)">
       <defs>
        <path id="HelveticaNeue-Medium-32" d="M 3309 0 
L 250 0 
Q 256 557 518 973 
Q 781 1389 1235 1696 
Q 1453 1856 1689 2006 
Q 1926 2157 2124 2329 
Q 2323 2502 2451 2704 
Q 2579 2906 2586 3168 
Q 2586 3290 2557 3427 
Q 2528 3565 2445 3683 
Q 2362 3802 2214 3882 
Q 2067 3962 1830 3962 
Q 1613 3962 1469 3875 
Q 1325 3789 1238 3638 
Q 1152 3488 1110 3283 
Q 1069 3078 1062 2842 
L 333 2842 
Q 333 3213 432 3529 
Q 531 3846 729 4076 
Q 928 4307 1213 4438 
Q 1498 4570 1875 4570 
Q 2285 4570 2560 4435 
Q 2835 4301 3004 4096 
Q 3174 3891 3244 3651 
Q 3315 3411 3315 3194 
Q 3315 2925 3232 2707 
Q 3149 2490 3008 2307 
Q 2867 2125 2688 1971 
Q 2509 1818 2317 1683 
Q 2125 1549 1933 1427 
Q 1741 1306 1577 1184 
Q 1414 1062 1292 931 
Q 1171 800 1126 653 
L 3309 653 
L 3309 0 
z
" transform="scale(0.015625)"/>
       </defs>
       <use xlink:href="#HelveticaNeue-Medium-32"/>
      </g>
     </g>
    </g>
    <g id="xtick_4">
     <g id="line2d_7">
      <g>
       <use xlink:href="#m934bfc6181" x="248.08483" y="287.88075" style="stroke: #000000; stroke-width: 0.8"/>
      </g>
     </g>
     <g id="line2d_8">
      <g>
       <use xlink:href="#m934bfc6181" x="248.08483" y="21.76875" style="stroke: #000000; stroke-width: 0.8"/>
      </g>
     </g>
     <g id="text_4">
      <!-- 3 -->
      <g transform="translate(245.305142 300.271375) scale(0.1 -0.1)">
       <defs>
        <path id="HelveticaNeue-Medium-33" d="M 1459 2624 
Q 1638 2618 1817 2650 
Q 1997 2682 2137 2762 
Q 2278 2842 2364 2982 
Q 2451 3123 2451 3328 
Q 2451 3616 2256 3789 
Q 2061 3962 1754 3962 
Q 1562 3962 1421 3885 
Q 1280 3808 1187 3677 
Q 1094 3546 1049 3382 
Q 1005 3219 1011 3046 
L 282 3046 
Q 294 3373 403 3651 
Q 512 3930 701 4134 
Q 890 4339 1158 4454 
Q 1427 4570 1766 4570 
Q 2029 4570 2281 4493 
Q 2534 4416 2736 4269 
Q 2938 4122 3059 3894 
Q 3181 3667 3181 3373 
Q 3181 3034 3027 2781 
Q 2874 2528 2547 2413 
L 2547 2400 
Q 2931 2323 3145 2019 
Q 3360 1715 3360 1280 
Q 3360 960 3232 707 
Q 3104 454 2886 278 
Q 2669 102 2381 6 
Q 2093 -90 1773 -90 
Q 1382 -90 1091 22 
Q 800 134 605 339 
Q 410 544 307 832 
Q 205 1120 198 1472 
L 928 1472 
Q 915 1062 1129 790 
Q 1344 518 1773 518 
Q 2138 518 2384 726 
Q 2630 934 2630 1318 
Q 2630 1581 2528 1734 
Q 2426 1888 2259 1968 
Q 2093 2048 1885 2067 
Q 1677 2086 1459 2080 
L 1459 2624 
z
" transform="scale(0.015625)"/>
       </defs>
       <use xlink:href="#HelveticaNeue-Medium-33"/>
      </g>
     </g>
    </g>
    <g id="xtick_5">
     <g id="line2d_9">
      <g>
       <use xlink:href="#m934bfc6181" x="313.015739" y="287.88075" style="stroke: #000000; stroke-width: 0.8"/>
      </g>
     </g>
     <g id="line2d_10">
      <g>
       <use xlink:href="#m934bfc6181" x="313.015739" y="21.76875" style="stroke: #000000; stroke-width: 0.8"/>
      </g>
     </g>
     <g id="text_5">
      <!-- 4 -->
      <g transform="translate(310.236051 300.271375) scale(0.1 -0.1)">
       <defs>
        <path id="HelveticaNeue-Medium-34" d="M 717 1638 
L 2074 1638 
L 2074 3610 
L 2061 3610 
L 717 1638 
z
M 3341 1062 
L 2765 1062 
L 2765 0 
L 2074 0 
L 2074 1062 
L 154 1062 
L 154 1786 
L 2074 4480 
L 2765 4480 
L 2765 1638 
L 3341 1638 
L 3341 1062 
z
" transform="scale(0.015625)"/>
       </defs>
       <use xlink:href="#HelveticaNeue-Medium-34"/>
      </g>
     </g>
    </g>
    <g id="xtick_6">
     <g id="line2d_11">
      <g>
       <use xlink:href="#m934bfc6181" x="377.946648" y="287.88075" style="stroke: #000000; stroke-width: 0.8"/>
      </g>
     </g>
     <g id="line2d_12">
      <g>
       <use xlink:href="#m934bfc6181" x="377.946648" y="21.76875" style="stroke: #000000; stroke-width: 0.8"/>
      </g>
     </g>
     <g id="text_6">
      <!-- 5 -->
      <g transform="translate(375.16696 300.271375) scale(0.1 -0.1)">
       <defs>
        <path id="HelveticaNeue-Medium-35" d="M 787 4480 
L 3104 4480 
L 3104 3827 
L 1331 3827 
L 1101 2688 
L 1114 2675 
Q 1261 2842 1488 2928 
Q 1715 3014 1939 3014 
Q 2272 3014 2534 2902 
Q 2797 2790 2976 2588 
Q 3155 2387 3248 2112 
Q 3341 1837 3341 1517 
Q 3341 1248 3254 963 
Q 3168 678 2979 444 
Q 2790 211 2496 60 
Q 2202 -90 1792 -90 
Q 1466 -90 1187 -3 
Q 909 83 697 256 
Q 486 429 361 681 
Q 237 934 224 1274 
L 954 1274 
Q 986 909 1203 713 
Q 1421 518 1779 518 
Q 2010 518 2170 595 
Q 2330 672 2429 806 
Q 2528 941 2569 1120 
Q 2611 1299 2611 1504 
Q 2611 1690 2560 1859 
Q 2509 2029 2406 2157 
Q 2304 2285 2141 2361 
Q 1978 2438 1760 2438 
Q 1530 2438 1328 2352 
Q 1126 2266 1037 2029 
L 307 2029 
L 787 4480 
z
" transform="scale(0.015625)"/>
       </defs>
       <use xlink:href="#HelveticaNeue-Medium-35"/>
      </g>
     </g>
    </g>
    <g id="text_7">
     <!-- x -->
     <g transform="translate(212.934219 313.321375) scale(0.1 -0.1)">
      <defs>
       <path id="HelveticaNeue-Medium-78" d="M 1274 1741 
L 128 3309 
L 1011 3309 
L 1702 2291 
L 2426 3309 
L 3270 3309 
L 2144 1779 
L 3411 0 
L 2534 0 
L 1696 1222 
L 883 0 
L 26 0 
L 1274 1741 
z
" transform="scale(0.015625)"/>
      </defs>
      <use xlink:href="#HelveticaNeue-Medium-78"/>
     </g>
    </g>
   </g>
   <g id="matplotlib.axis_2">
    <g id="ytick_1">
     <g id="line2d_13">
      <defs>
       <path id="m7d738a1ef9" d="M 1.75 0 
L -1.75 -0 
" style="stroke: #000000; stroke-width: 0.8"/>
      </defs>
      <g>
       <use xlink:href="#m7d738a1ef9" x="37.059375" y="277.390255" style="stroke: #000000; stroke-width: 0.8"/>
      </g>
     </g>
     <g id="line2d_14">
      <g>
       <use xlink:href="#m7d738a1ef9" x="394.179375" y="277.390255" style="stroke: #000000; stroke-width: 0.8"/>
      </g>
     </g>
     <g id="text_8">
      <!-- 6 -->
      <g transform="translate(20.25 280.960568) scale(0.1 -0.1)">
       <defs>
        <path id="HelveticaNeue-Medium-2212" d="M 307 1293 
L 307 1946 
L 3533 1946 
L 3533 1293 
L 307 1293 
z
" transform="scale(0.015625)"/>
        <path id="HelveticaNeue-Medium-36" d="M 2528 3347 
Q 2502 3622 2332 3792 
Q 2163 3962 1875 3962 
Q 1677 3962 1533 3888 
Q 1389 3814 1289 3692 
Q 1190 3571 1129 3414 
Q 1069 3258 1030 3085 
Q 992 2912 976 2742 
Q 960 2573 947 2426 
L 960 2413 
Q 1107 2682 1366 2813 
Q 1626 2944 1926 2944 
Q 2259 2944 2521 2829 
Q 2784 2714 2966 2512 
Q 3149 2310 3245 2035 
Q 3341 1760 3341 1440 
Q 3341 1114 3235 835 
Q 3130 557 2931 349 
Q 2733 141 2457 25 
Q 2182 -90 1850 -90 
Q 1357 -90 1040 92 
Q 723 275 540 592 
Q 358 909 288 1334 
Q 218 1760 218 2253 
Q 218 2656 304 3065 
Q 390 3475 588 3811 
Q 787 4147 1110 4358 
Q 1434 4570 1907 4570 
Q 2176 4570 2413 4480 
Q 2650 4390 2832 4230 
Q 3014 4070 3129 3846 
Q 3245 3622 3258 3347 
L 2528 3347 
z
M 1824 518 
Q 2022 518 2169 598 
Q 2317 678 2416 806 
Q 2515 934 2563 1104 
Q 2611 1274 2611 1453 
Q 2611 1632 2563 1798 
Q 2515 1965 2416 2089 
Q 2317 2214 2169 2291 
Q 2022 2368 1824 2368 
Q 1626 2368 1475 2294 
Q 1325 2221 1222 2096 
Q 1120 1971 1069 1804 
Q 1018 1638 1018 1453 
Q 1018 1267 1069 1100 
Q 1120 934 1222 803 
Q 1325 672 1475 595 
Q 1626 518 1824 518 
z
" transform="scale(0.015625)"/>
       </defs>
       <use xlink:href="#HelveticaNeue-Medium-2212"/>
       <use xlink:href="#HelveticaNeue-Medium-36" transform="translate(59.999985 0)"/>
      </g>
     </g>
    </g>
    <g id="ytick_2">
     <g id="line2d_15">
      <g>
       <use xlink:href="#m7d738a1ef9" x="37.059375" y="241.279616" style="stroke: #000000; stroke-width: 0.8"/>
      </g>
     </g>
     <g id="line2d_16">
      <g>
       <use xlink:href="#m7d738a1ef9" x="394.179375" y="241.279616" style="stroke: #000000; stroke-width: 0.8"/>
      </g>
     </g>
     <g id="text_9">
      <!-- 4 -->
      <g transform="translate(20.25 244.849928) scale(0.1 -0.1)">
       <use xlink:href="#HelveticaNeue-Medium-2212"/>
       <use xlink:href="#HelveticaNeue-Medium-34" transform="translate(59.999985 0)"/>
      </g>
     </g>
    </g>
    <g id="ytick_3">
     <g id="line2d_17">
      <g>
       <use xlink:href="#m7d738a1ef9" x="37.059375" y="205.168976" style="stroke: #000000; stroke-width: 0.8"/>
      </g>
     </g>
     <g id="line2d_18">
      <g>
       <use xlink:href="#m7d738a1ef9" x="394.179375" y="205.168976" style="stroke: #000000; stroke-width: 0.8"/>
      </g>
     </g>
     <g id="text_10">
      <!-- 2 -->
      <g transform="translate(20.25 208.739289) scale(0.1 -0.1)">
       <use xlink:href="#HelveticaNeue-Medium-2212"/>
       <use xlink:href="#HelveticaNeue-Medium-32" transform="translate(59.999985 0)"/>
      </g>
     </g>
    </g>
    <g id="ytick_4">
     <g id="line2d_19">
      <g>
       <use xlink:href="#m7d738a1ef9" x="37.059375" y="169.058337" style="stroke: #000000; stroke-width: 0.8"/>
      </g>
     </g>
     <g id="line2d_20">
      <g>
       <use xlink:href="#m7d738a1ef9" x="394.179375" y="169.058337" style="stroke: #000000; stroke-width: 0.8"/>
      </g>
     </g>
     <g id="text_11">
      <!-- 0 -->
      <g transform="translate(26.25 172.628649) scale(0.1 -0.1)">
       <use xlink:href="#HelveticaNeue-Medium-30"/>
      </g>
     </g>
    </g>
    <g id="ytick_5">
     <g id="line2d_21">
      <g>
       <use xlink:href="#m7d738a1ef9" x="37.059375" y="132.947697" style="stroke: #000000; stroke-width: 0.8"/>
      </g>
     </g>
     <g id="line2d_22">
      <g>
       <use xlink:href="#m7d738a1ef9" x="394.179375" y="132.947697" style="stroke: #000000; stroke-width: 0.8"/>
      </g>
     </g>
     <g id="text_12">
      <!-- 2 -->
      <g transform="translate(26.25 136.51801) scale(0.1 -0.1)">
       <use xlink:href="#HelveticaNeue-Medium-32"/>
      </g>
     </g>
    </g>
    <g id="ytick_6">
     <g id="line2d_23">
      <g>
       <use xlink:href="#m7d738a1ef9" x="37.059375" y="96.837058" style="stroke: #000000; stroke-width: 0.8"/>
      </g>
     </g>
     <g id="line2d_24">
      <g>
       <use xlink:href="#m7d738a1ef9" x="394.179375" y="96.837058" style="stroke: #000000; stroke-width: 0.8"/>
      </g>
     </g>
     <g id="text_13">
      <!-- 4 -->
      <g transform="translate(26.25 100.40737) scale(0.1 -0.1)">
       <use xlink:href="#HelveticaNeue-Medium-34"/>
      </g>
     </g>
    </g>
    <g id="ytick_7">
     <g id="line2d_25">
      <g>
       <use xlink:href="#m7d738a1ef9" x="37.059375" y="60.726418" style="stroke: #000000; stroke-width: 0.8"/>
      </g>
     </g>
     <g id="line2d_26">
      <g>
       <use xlink:href="#m7d738a1ef9" x="394.179375" y="60.726418" style="stroke: #000000; stroke-width: 0.8"/>
      </g>
     </g>
     <g id="text_14">
      <!-- 6 -->
      <g transform="translate(26.25 64.296731) scale(0.1 -0.1)">
       <use xlink:href="#HelveticaNeue-Medium-36"/>
      </g>
     </g>
    </g>
    <g id="ytick_8">
     <g id="line2d_27">
      <g>
       <use xlink:href="#m7d738a1ef9" x="37.059375" y="24.615779" style="stroke: #000000; stroke-width: 0.8"/>
      </g>
     </g>
     <g id="line2d_28">
      <g>
       <use xlink:href="#m7d738a1ef9" x="394.179375" y="24.615779" style="stroke: #000000; stroke-width: 0.8"/>
      </g>
     </g>
     <g id="text_15">
      <!-- 8 -->
      <g transform="translate(26.25 28.186091) scale(0.1 -0.1)">
       <defs>
        <path id="HelveticaNeue-Medium-38" d="M 1779 3994 
Q 1485 3994 1280 3818 
Q 1075 3642 1075 3309 
Q 1075 2989 1273 2819 
Q 1472 2650 1779 2650 
Q 2086 2650 2284 2819 
Q 2483 2989 2483 3309 
Q 2483 3642 2278 3818 
Q 2074 3994 1779 3994 
z
M 1779 -90 
Q 1440 -90 1149 6 
Q 858 102 646 284 
Q 435 467 316 729 
Q 198 992 198 1318 
Q 198 1741 419 2029 
Q 640 2317 1018 2413 
L 1018 2426 
Q 710 2541 547 2781 
Q 384 3021 384 3347 
Q 384 3923 745 4246 
Q 1107 4570 1779 4570 
Q 2451 4570 2812 4246 
Q 3174 3923 3174 3347 
Q 3174 3021 3011 2781 
Q 2848 2541 2541 2426 
L 2541 2413 
Q 2918 2317 3139 2029 
Q 3360 1741 3360 1318 
Q 3360 992 3241 729 
Q 3123 467 2912 284 
Q 2701 102 2409 6 
Q 2118 -90 1779 -90 
z
M 1779 486 
Q 2144 486 2387 704 
Q 2630 922 2630 1318 
Q 2630 1690 2387 1898 
Q 2144 2106 1779 2106 
Q 1414 2106 1171 1898 
Q 928 1690 928 1318 
Q 928 922 1171 704 
Q 1414 486 1779 486 
z
" transform="scale(0.015625)"/>
       </defs>
       <use xlink:href="#HelveticaNeue-Medium-38"/>
      </g>
     </g>
    </g>
    <g id="text_16">
     <!-- y -->
     <g transform="translate(14.2 157.420062) rotate(-90) scale(0.1 -0.1)">
      <defs>
       <path id="HelveticaNeue-Medium-79" d="M 19 3309 
L 819 3309 
L 1683 838 
L 1696 838 
L 2534 3309 
L 3296 3309 
L 2010 -179 
Q 1920 -403 1833 -608 
Q 1747 -813 1622 -969 
Q 1498 -1126 1312 -1219 
Q 1126 -1312 838 -1312 
Q 582 -1312 333 -1274 
L 333 -659 
Q 422 -672 505 -688 
Q 589 -704 678 -704 
Q 806 -704 889 -672 
Q 973 -640 1027 -579 
Q 1082 -518 1120 -435 
Q 1158 -352 1190 -243 
L 1274 13 
L 19 3309 
z
" transform="scale(0.015625)"/>
      </defs>
      <use xlink:href="#HelveticaNeue-Medium-79"/>
     </g>
    </g>
   </g>
   <g id="LineCollection_1">
    <path d="M 174.888254 230.706289 
L 174.888254 194.59565 
" clip-path="url(#pd001261c52)" style="fill: none; stroke: #ffa500; stroke-width: 1.5"/>
    <path d="M 361.945823 185.982138 
L 361.945823 149.871499 
" clip-path="url(#pd001261c52)" style="fill: none; stroke: #ffa500; stroke-width: 1.5"/>
    <path d="M 290.937263 74.991778 
L 290.937263 38.881138 
" clip-path="url(#pd001261c52)" style="fill: none; stroke: #ffa500; stroke-width: 1.5"/>
    <path d="M 247.6493 195.918295 
L 247.6493 159.807656 
" clip-path="url(#pd001261c52)" style="fill: none; stroke: #ffa500; stroke-width: 1.5"/>
    <path d="M 103.944263 137.594005 
L 103.944263 101.483366 
" clip-path="url(#pd001261c52)" style="fill: none; stroke: #ffa500; stroke-width: 1.5"/>
    <path d="M 103.936432 123.902675 
L 103.936432 87.792036 
" clip-path="url(#pd001261c52)" style="fill: none; stroke: #ffa500; stroke-width: 1.5"/>
    <path d="M 72.149211 126.322022 
L 72.149211 90.211383 
" clip-path="url(#pd001261c52)" style="fill: none; stroke: #ffa500; stroke-width: 1.5"/>
    <path d="M 334.500125 143.861064 
L 334.500125 107.750425 
" clip-path="url(#pd001261c52)" style="fill: none; stroke: #ffa500; stroke-width: 1.5"/>
    <path d="M 248.446823 182.761362 
L 248.446823 146.650723 
" clip-path="url(#pd001261c52)" style="fill: none; stroke: #ffa500; stroke-width: 1.5"/>
    <path d="M 283.171083 114.698276 
L 283.171083 78.587637 
" clip-path="url(#pd001261c52)" style="fill: none; stroke: #ffa500; stroke-width: 1.5"/>
    <path d="M 59.974952 125.86524 
L 59.974952 89.754601 
" clip-path="url(#pd001261c52)" style="fill: none; stroke: #ffa500; stroke-width: 1.5"/>
    <path d="M 368.177744 205.065685 
L 368.177744 168.955046 
" clip-path="url(#pd001261c52)" style="fill: none; stroke: #ffa500; stroke-width: 1.5"/>
    <path d="M 323.548389 150.8845 
L 323.548389 114.77386 
" clip-path="url(#pd001261c52)" style="fill: none; stroke: #ffa500; stroke-width: 1.5"/>
    <path d="M 122.22896 86.775446 
L 122.22896 50.664807 
" clip-path="url(#pd001261c52)" style="fill: none; stroke: #ffa500; stroke-width: 1.5"/>
    <path d="M 112.322404 84.486961 
L 112.322404 48.376321 
" clip-path="url(#pd001261c52)" style="fill: none; stroke: #ffa500; stroke-width: 1.5"/>
    <path d="M 112.83521 85.838564 
L 112.83521 49.727924 
" clip-path="url(#pd001261c52)" style="fill: none; stroke: #ffa500; stroke-width: 1.5"/>
    <path d="M 152.065729 183.208195 
L 152.065729 147.097555 
" clip-path="url(#pd001261c52)" style="fill: none; stroke: #ffa500; stroke-width: 1.5"/>
    <path d="M 223.656663 214.223464 
L 223.656663 178.112824 
" clip-path="url(#pd001261c52)" style="fill: none; stroke: #ffa500; stroke-width: 1.5"/>
    <path d="M 193.525016 237.589406 
L 193.525016 201.478767 
" clip-path="url(#pd001261c52)" style="fill: none; stroke: #ffa500; stroke-width: 1.5"/>
    <path d="M 147.840966 133.27965 
L 147.840966 97.16901 
" clip-path="url(#pd001261c52)" style="fill: none; stroke: #ffa500; stroke-width: 1.5"/>
    <path d="M 251.932926 189.9878 
L 251.932926 153.87716 
" clip-path="url(#pd001261c52)" style="fill: none; stroke: #ffa500; stroke-width: 1.5"/>
    <path d="M 98.579418 118.287365 
L 98.579418 82.176726 
" clip-path="url(#pd001261c52)" style="fill: none; stroke: #ffa500; stroke-width: 1.5"/>
    <path d="M 148.13819 172.040495 
L 148.13819 135.929855 
" clip-path="url(#pd001261c52)" style="fill: none; stroke: #ffa500; stroke-width: 1.5"/>
    <path d="M 172.23314 260.645421 
L 172.23314 224.534782 
" clip-path="url(#pd001261c52)" style="fill: none; stroke: #ffa500; stroke-width: 1.5"/>
    <path d="M 201.357296 217.299844 
L 201.357296 181.189204 
" clip-path="url(#pd001261c52)" style="fill: none; stroke: #ffa500; stroke-width: 1.5"/>
    <path d="M 308.203047 69.975389 
L 308.203047 33.86475 
" clip-path="url(#pd001261c52)" style="fill: none; stroke: #ffa500; stroke-width: 1.5"/>
    <path d="M 118.117103 100.233086 
L 118.117103 64.122447 
" clip-path="url(#pd001261c52)" style="fill: none; stroke: #ffa500; stroke-width: 1.5"/>
    <path d="M 220.24065 192.154531 
L 220.24065 156.043891 
" clip-path="url(#pd001261c52)" style="fill: none; stroke: #ffa500; stroke-width: 1.5"/>
    <path d="M 245.622185 187.426358 
L 245.622185 151.315719 
" clip-path="url(#pd001261c52)" style="fill: none; stroke: #ffa500; stroke-width: 1.5"/>
    <path d="M 68.37244 131.821167 
L 68.37244 95.710528 
" clip-path="url(#pd001261c52)" style="fill: none; stroke: #ffa500; stroke-width: 1.5"/>
    <path d="M 250.5343 178.067157 
L 250.5343 141.956518 
" clip-path="url(#pd001261c52)" style="fill: none; stroke: #ffa500; stroke-width: 1.5"/>
    <path d="M 108.653534 78.750945 
L 108.653534 42.640306 
" clip-path="url(#pd001261c52)" style="fill: none; stroke: #ffa500; stroke-width: 1.5"/>
    <path d="M 74.411398 118.030908 
L 74.411398 81.920268 
" clip-path="url(#pd001261c52)" style="fill: none; stroke: #ffa500; stroke-width: 1.5"/>
    <path d="M 361.352105 160.13638 
L 361.352105 124.025741 
" clip-path="url(#pd001261c52)" style="fill: none; stroke: #ffa500; stroke-width: 1.5"/>
    <path d="M 366.788931 243.104527 
L 366.788931 206.993888 
" clip-path="url(#pd001261c52)" style="fill: none; stroke: #ffa500; stroke-width: 1.5"/>
    <path d="M 315.741976 101.147509 
L 315.741976 65.036869 
" clip-path="url(#pd001261c52)" style="fill: none; stroke: #ffa500; stroke-width: 1.5"/>
    <path d="M 152.186347 166.985519 
L 152.186347 130.87488 
" clip-path="url(#pd001261c52)" style="fill: none; stroke: #ffa500; stroke-width: 1.5"/>
    <path d="M 85.001798 123.218059 
L 85.001798 87.107419 
" clip-path="url(#pd001261c52)" style="fill: none; stroke: #ffa500; stroke-width: 1.5"/>
    <path d="M 275.431464 102.033097 
L 275.431464 65.922457 
" clip-path="url(#pd001261c52)" style="fill: none; stroke: #ffa500; stroke-width: 1.5"/>
    <path d="M 196.18961 275.78475 
L 196.18961 239.674111 
" clip-path="url(#pd001261c52)" style="fill: none; stroke: #ffa500; stroke-width: 1.5"/>
    <path d="M 92.91237 121.353755 
L 92.91237 85.243115 
" clip-path="url(#pd001261c52)" style="fill: none; stroke: #ffa500; stroke-width: 1.5"/>
    <path d="M 214.053537 208.522283 
L 214.053537 172.411644 
" clip-path="url(#pd001261c52)" style="fill: none; stroke: #ffa500; stroke-width: 1.5"/>
    <path d="M 64.456492 97.602498 
L 64.456492 61.491859 
" clip-path="url(#pd001261c52)" style="fill: none; stroke: #ffa500; stroke-width: 1.5"/>
    <path d="M 348.507104 187.324279 
L 348.507104 151.213639 
" clip-path="url(#pd001261c52)" style="fill: none; stroke: #ffa500; stroke-width: 1.5"/>
    <path d="M 137.3062 130.603654 
L 137.3062 94.493015 
" clip-path="url(#pd001261c52)" style="fill: none; stroke: #ffa500; stroke-width: 1.5"/>
    <path d="M 268.382973 137.260876 
L 268.382973 101.150237 
" clip-path="url(#pd001261c52)" style="fill: none; stroke: #ffa500; stroke-width: 1.5"/>
    <path d="M 154.49052 161.643216 
L 154.49052 125.532576 
" clip-path="url(#pd001261c52)" style="fill: none; stroke: #ffa500; stroke-width: 1.5"/>
    <path d="M 222.134549 203.365467 
L 222.134549 167.254827 
" clip-path="url(#pd001261c52)" style="fill: none; stroke: #ffa500; stroke-width: 1.5"/>
    <path d="M 230.78408 215.788092 
L 230.78408 179.677453 
" clip-path="url(#pd001261c52)" style="fill: none; stroke: #ffa500; stroke-width: 1.5"/>
    <path d="M 113.305942 92.98373 
L 113.305942 56.873091 
" clip-path="url(#pd001261c52)" style="fill: none; stroke: #ffa500; stroke-width: 1.5"/>
   </g>
   <g id="line2d_29">
    <defs>
     <path id="m8e2f854bae" d="M 2 0 
L -2 -0 
" style="stroke: #ffa500"/>
    </defs>
    <g clip-path="url(#pd001261c52)">
     <use xlink:href="#m8e2f854bae" x="174.888254" y="230.706289" style="fill: #ffa500; stroke: #ffa500"/>
     <use xlink:href="#m8e2f854bae" x="361.945823" y="185.982138" style="fill: #ffa500; stroke: #ffa500"/>
     <use xlink:href="#m8e2f854bae" x="290.937263" y="74.991778" style="fill: #ffa500; stroke: #ffa500"/>
     <use xlink:href="#m8e2f854bae" x="247.6493" y="195.918295" style="fill: #ffa500; stroke: #ffa500"/>
     <use xlink:href="#m8e2f854bae" x="103.944263" y="137.594005" style="fill: #ffa500; stroke: #ffa500"/>
     <use xlink:href="#m8e2f854bae" x="103.936432" y="123.902675" style="fill: #ffa500; stroke: #ffa500"/>
     <use xlink:href="#m8e2f854bae" x="72.149211" y="126.322022" style="fill: #ffa500; stroke: #ffa500"/>
     <use xlink:href="#m8e2f854bae" x="334.500125" y="143.861064" style="fill: #ffa500; stroke: #ffa500"/>
     <use xlink:href="#m8e2f854bae" x="248.446823" y="182.761362" style="fill: #ffa500; stroke: #ffa500"/>
     <use xlink:href="#m8e2f854bae" x="283.171083" y="114.698276" style="fill: #ffa500; stroke: #ffa500"/>
     <use xlink:href="#m8e2f854bae" x="59.974952" y="125.86524" style="fill: #ffa500; stroke: #ffa500"/>
     <use xlink:href="#m8e2f854bae" x="368.177744" y="205.065685" style="fill: #ffa500; stroke: #ffa500"/>
     <use xlink:href="#m8e2f854bae" x="323.548389" y="150.8845" style="fill: #ffa500; stroke: #ffa500"/>
     <use xlink:href="#m8e2f854bae" x="122.22896" y="86.775446" style="fill: #ffa500; stroke: #ffa500"/>
     <use xlink:href="#m8e2f854bae" x="112.322404" y="84.486961" style="fill: #ffa500; stroke: #ffa500"/>
     <use xlink:href="#m8e2f854bae" x="112.83521" y="85.838564" style="fill: #ffa500; stroke: #ffa500"/>
     <use xlink:href="#m8e2f854bae" x="152.065729" y="183.208195" style="fill: #ffa500; stroke: #ffa500"/>
     <use xlink:href="#m8e2f854bae" x="223.656663" y="214.223464" style="fill: #ffa500; stroke: #ffa500"/>
     <use xlink:href="#m8e2f854bae" x="193.525016" y="237.589406" style="fill: #ffa500; stroke: #ffa500"/>
     <use xlink:href="#m8e2f854bae" x="147.840966" y="133.27965" style="fill: #ffa500; stroke: #ffa500"/>
     <use xlink:href="#m8e2f854bae" x="251.932926" y="189.9878" style="fill: #ffa500; stroke: #ffa500"/>
     <use xlink:href="#m8e2f854bae" x="98.579418" y="118.287365" style="fill: #ffa500; stroke: #ffa500"/>
     <use xlink:href="#m8e2f854bae" x="148.13819" y="172.040495" style="fill: #ffa500; stroke: #ffa500"/>
     <use xlink:href="#m8e2f854bae" x="172.23314" y="260.645421" style="fill: #ffa500; stroke: #ffa500"/>
     <use xlink:href="#m8e2f854bae" x="201.357296" y="217.299844" style="fill: #ffa500; stroke: #ffa500"/>
     <use xlink:href="#m8e2f854bae" x="308.203047" y="69.975389" style="fill: #ffa500; stroke: #ffa500"/>
     <use xlink:href="#m8e2f854bae" x="118.117103" y="100.233086" style="fill: #ffa500; stroke: #ffa500"/>
     <use xlink:href="#m8e2f854bae" x="220.24065" y="192.154531" style="fill: #ffa500; stroke: #ffa500"/>
     <use xlink:href="#m8e2f854bae" x="245.622185" y="187.426358" style="fill: #ffa500; stroke: #ffa500"/>
     <use xlink:href="#m8e2f854bae" x="68.37244" y="131.821167" style="fill: #ffa500; stroke: #ffa500"/>
     <use xlink:href="#m8e2f854bae" x="250.5343" y="178.067157" style="fill: #ffa500; stroke: #ffa500"/>
     <use xlink:href="#m8e2f854bae" x="108.653534" y="78.750945" style="fill: #ffa500; stroke: #ffa500"/>
     <use xlink:href="#m8e2f854bae" x="74.411398" y="118.030908" style="fill: #ffa500; stroke: #ffa500"/>
     <use xlink:href="#m8e2f854bae" x="361.352105" y="160.13638" style="fill: #ffa500; stroke: #ffa500"/>
     <use xlink:href="#m8e2f854bae" x="366.788931" y="243.104527" style="fill: #ffa500; stroke: #ffa500"/>
     <use xlink:href="#m8e2f854bae" x="315.741976" y="101.147509" style="fill: #ffa500; stroke: #ffa500"/>
     <use xlink:href="#m8e2f854bae" x="152.186347" y="166.985519" style="fill: #ffa500; stroke: #ffa500"/>
     <use xlink:href="#m8e2f854bae" x="85.001798" y="123.218059" style="fill: #ffa500; stroke: #ffa500"/>
     <use xlink:href="#m8e2f854bae" x="275.431464" y="102.033097" style="fill: #ffa500; stroke: #ffa500"/>
     <use xlink:href="#m8e2f854bae" x="196.18961" y="275.78475" style="fill: #ffa500; stroke: #ffa500"/>
     <use xlink:href="#m8e2f854bae" x="92.91237" y="121.353755" style="fill: #ffa500; stroke: #ffa500"/>
     <use xlink:href="#m8e2f854bae" x="214.053537" y="208.522283" style="fill: #ffa500; stroke: #ffa500"/>
     <use xlink:href="#m8e2f854bae" x="64.456492" y="97.602498" style="fill: #ffa500; stroke: #ffa500"/>
     <use xlink:href="#m8e2f854bae" x="348.507104" y="187.324279" style="fill: #ffa500; stroke: #ffa500"/>
     <use xlink:href="#m8e2f854bae" x="137.3062" y="130.603654" style="fill: #ffa500; stroke: #ffa500"/>
     <use xlink:href="#m8e2f854bae" x="268.382973" y="137.260876" style="fill: #ffa500; stroke: #ffa500"/>
     <use xlink:href="#m8e2f854bae" x="154.49052" y="161.643216" style="fill: #ffa500; stroke: #ffa500"/>
     <use xlink:href="#m8e2f854bae" x="222.134549" y="203.365467" style="fill: #ffa500; stroke: #ffa500"/>
     <use xlink:href="#m8e2f854bae" x="230.78408" y="215.788092" style="fill: #ffa500; stroke: #ffa500"/>
     <use xlink:href="#m8e2f854bae" x="113.305942" y="92.98373" style="fill: #ffa500; stroke: #ffa500"/>
    </g>
   </g>
   <g id="line2d_30">
    <g clip-path="url(#pd001261c52)">
     <use xlink:href="#m8e2f854bae" x="174.888254" y="194.59565" style="fill: #ffa500; stroke: #ffa500"/>
     <use xlink:href="#m8e2f854bae" x="361.945823" y="149.871499" style="fill: #ffa500; stroke: #ffa500"/>
     <use xlink:href="#m8e2f854bae" x="290.937263" y="38.881138" style="fill: #ffa500; stroke: #ffa500"/>
     <use xlink:href="#m8e2f854bae" x="247.6493" y="159.807656" style="fill: #ffa500; stroke: #ffa500"/>
     <use xlink:href="#m8e2f854bae" x="103.944263" y="101.483366" style="fill: #ffa500; stroke: #ffa500"/>
     <use xlink:href="#m8e2f854bae" x="103.936432" y="87.792036" style="fill: #ffa500; stroke: #ffa500"/>
     <use xlink:href="#m8e2f854bae" x="72.149211" y="90.211383" style="fill: #ffa500; stroke: #ffa500"/>
     <use xlink:href="#m8e2f854bae" x="334.500125" y="107.750425" style="fill: #ffa500; stroke: #ffa500"/>
     <use xlink:href="#m8e2f854bae" x="248.446823" y="146.650723" style="fill: #ffa500; stroke: #ffa500"/>
     <use xlink:href="#m8e2f854bae" x="283.171083" y="78.587637" style="fill: #ffa500; stroke: #ffa500"/>
     <use xlink:href="#m8e2f854bae" x="59.974952" y="89.754601" style="fill: #ffa500; stroke: #ffa500"/>
     <use xlink:href="#m8e2f854bae" x="368.177744" y="168.955046" style="fill: #ffa500; stroke: #ffa500"/>
     <use xlink:href="#m8e2f854bae" x="323.548389" y="114.77386" style="fill: #ffa500; stroke: #ffa500"/>
     <use xlink:href="#m8e2f854bae" x="122.22896" y="50.664807" style="fill: #ffa500; stroke: #ffa500"/>
     <use xlink:href="#m8e2f854bae" x="112.322404" y="48.376321" style="fill: #ffa500; stroke: #ffa500"/>
     <use xlink:href="#m8e2f854bae" x="112.83521" y="49.727924" style="fill: #ffa500; stroke: #ffa500"/>
     <use xlink:href="#m8e2f854bae" x="152.065729" y="147.097555" style="fill: #ffa500; stroke: #ffa500"/>
     <use xlink:href="#m8e2f854bae" x="223.656663" y="178.112824" style="fill: #ffa500; stroke: #ffa500"/>
     <use xlink:href="#m8e2f854bae" x="193.525016" y="201.478767" style="fill: #ffa500; stroke: #ffa500"/>
     <use xlink:href="#m8e2f854bae" x="147.840966" y="97.16901" style="fill: #ffa500; stroke: #ffa500"/>
     <use xlink:href="#m8e2f854bae" x="251.932926" y="153.87716" style="fill: #ffa500; stroke: #ffa500"/>
     <use xlink:href="#m8e2f854bae" x="98.579418" y="82.176726" style="fill: #ffa500; stroke: #ffa500"/>
     <use xlink:href="#m8e2f854bae" x="148.13819" y="135.929855" style="fill: #ffa500; stroke: #ffa500"/>
     <use xlink:href="#m8e2f854bae" x="172.23314" y="224.534782" style="fill: #ffa500; stroke: #ffa500"/>
     <use xlink:href="#m8e2f854bae" x="201.357296" y="181.189204" style="fill: #ffa500; stroke: #ffa500"/>
     <use xlink:href="#m8e2f854bae" x="308.203047" y="33.86475" style="fill: #ffa500; stroke: #ffa500"/>
     <use xlink:href="#m8e2f854bae" x="118.117103" y="64.122447" style="fill: #ffa500; stroke: #ffa500"/>
     <use xlink:href="#m8e2f854bae" x="220.24065" y="156.043891" style="fill: #ffa500; stroke: #ffa500"/>
     <use xlink:href="#m8e2f854bae" x="245.622185" y="151.315719" style="fill: #ffa500; stroke: #ffa500"/>
     <use xlink:href="#m8e2f854bae" x="68.37244" y="95.710528" style="fill: #ffa500; stroke: #ffa500"/>
     <use xlink:href="#m8e2f854bae" x="250.5343" y="141.956518" style="fill: #ffa500; stroke: #ffa500"/>
     <use xlink:href="#m8e2f854bae" x="108.653534" y="42.640306" style="fill: #ffa500; stroke: #ffa500"/>
     <use xlink:href="#m8e2f854bae" x="74.411398" y="81.920268" style="fill: #ffa500; stroke: #ffa500"/>
     <use xlink:href="#m8e2f854bae" x="361.352105" y="124.025741" style="fill: #ffa500; stroke: #ffa500"/>
     <use xlink:href="#m8e2f854bae" x="366.788931" y="206.993888" style="fill: #ffa500; stroke: #ffa500"/>
     <use xlink:href="#m8e2f854bae" x="315.741976" y="65.036869" style="fill: #ffa500; stroke: #ffa500"/>
     <use xlink:href="#m8e2f854bae" x="152.186347" y="130.87488" style="fill: #ffa500; stroke: #ffa500"/>
     <use xlink:href="#m8e2f854bae" x="85.001798" y="87.107419" style="fill: #ffa500; stroke: #ffa500"/>
     <use xlink:href="#m8e2f854bae" x="275.431464" y="65.922457" style="fill: #ffa500; stroke: #ffa500"/>
     <use xlink:href="#m8e2f854bae" x="196.18961" y="239.674111" style="fill: #ffa500; stroke: #ffa500"/>
     <use xlink:href="#m8e2f854bae" x="92.91237" y="85.243115" style="fill: #ffa500; stroke: #ffa500"/>
     <use xlink:href="#m8e2f854bae" x="214.053537" y="172.411644" style="fill: #ffa500; stroke: #ffa500"/>
     <use xlink:href="#m8e2f854bae" x="64.456492" y="61.491859" style="fill: #ffa500; stroke: #ffa500"/>
     <use xlink:href="#m8e2f854bae" x="348.507104" y="151.213639" style="fill: #ffa500; stroke: #ffa500"/>
     <use xlink:href="#m8e2f854bae" x="137.3062" y="94.493015" style="fill: #ffa500; stroke: #ffa500"/>
     <use xlink:href="#m8e2f854bae" x="268.382973" y="101.150237" style="fill: #ffa500; stroke: #ffa500"/>
     <use xlink:href="#m8e2f854bae" x="154.49052" y="125.532576" style="fill: #ffa500; stroke: #ffa500"/>
     <use xlink:href="#m8e2f854bae" x="222.134549" y="167.254827" style="fill: #ffa500; stroke: #ffa500"/>
     <use xlink:href="#m8e2f854bae" x="230.78408" y="179.677453" style="fill: #ffa500; stroke: #ffa500"/>
     <use xlink:href="#m8e2f854bae" x="113.305942" y="56.873091" style="fill: #ffa500; stroke: #ffa500"/>
    </g>
   </g>
   <g id="line2d_31">
    <path d="M 53.292102 122.482527 
L 55.733114 117.620361 
L 57.360455 114.740326 
L 58.987796 112.186665 
L 61.428808 109.117732 
L 63.056149 107.378213 
L 64.68349 105.98032 
L 67.124501 104.221739 
L 68.751843 103.403923 
L 70.379184 102.921469 
L 72.820195 102.441606 
L 76.074877 102.138461 
L 81.770571 101.773191 
L 86.652594 101.032702 
L 89.907277 100.029275 
L 92.348288 98.934779 
L 93.975629 98.028041 
L 97.230311 95.661583 
L 98.857653 94.332471 
L 101.298664 92.193413 
L 105.367017 88.429529 
L 107.808028 86.095313 
L 111.062711 83.154232 
L 112.690052 81.911557 
L 114.317393 80.936411 
L 116.758404 79.773759 
L 117.572075 79.490157 
L 120.013087 79.21041 
L 120.826757 79.245954 
L 122.454098 79.710672 
L 123.267769 79.959645 
L 124.89511 80.862443 
L 126.522451 82.14542 
L 128.149792 83.942286 
L 129.777133 86.057954 
L 131.404474 88.748987 
L 133.845486 93.506491 
L 135.472827 97.227031 
L 137.100168 101.407744 
L 139.54118 108.409712 
L 141.982191 116.148281 
L 144.423203 124.660518 
L 147.677885 136.891124 
L 161.510284 191.169044 
L 163.951296 199.567629 
L 166.392307 207.284913 
L 168.833319 214.073321 
L 171.274331 220.077708 
L 172.901672 223.386949 
L 174.529013 226.209677 
L 176.156354 228.630768 
L 176.970024 229.687764 
L 178.597365 231.305458 
L 180.224707 232.535544 
L 181.038377 232.985496 
L 182.665718 233.501354 
L 184.293059 233.594616 
L 185.9204 233.26571 
L 188.361412 231.996867 
L 189.988753 230.651462 
L 191.616094 229.048191 
L 193.243435 227.214164 
L 194.870776 225.158089 
L 198.125458 220.304271 
L 201.380141 215.210978 
L 207.889505 204.810057 
L 211.144187 200.196778 
L 214.398869 196.099374 
L 216.02621 194.293978 
L 218.467222 191.783646 
L 220.908234 189.67516 
L 222.535575 188.479199 
L 224.976586 186.954536 
L 228.231268 185.155854 
L 237.995315 180.338173 
L 240.436326 178.620865 
L 242.063668 177.270392 
L 243.691009 175.671616 
L 246.13202 172.883291 
L 247.759361 170.598259 
L 249.386702 168.11788 
L 251.014043 165.243074 
L 252.641385 162.184289 
L 255.896067 155.049914 
L 258.337078 148.968307 
L 261.591761 140.118993 
L 264.846443 130.426249 
L 271.355807 109.147438 
L 277.051501 90.470225 
L 280.306183 80.740986 
L 282.747195 74.0923 
L 285.188206 68.200202 
L 286.815547 64.79081 
L 288.442888 61.781205 
L 290.070229 59.346287 
L 291.69757 57.336698 
L 293.324912 55.904348 
L 294.952253 54.872675 
L 295.765923 54.539958 
L 297.393264 54.495174 
L 299.020605 54.826349 
L 299.834276 55.184926 
L 301.461617 56.266422 
L 303.088958 57.745506 
L 304.716299 59.883924 
L 306.34364 62.305797 
L 307.970981 65.342561 
L 309.598322 68.756838 
L 312.039334 74.360603 
L 313.666675 78.573522 
L 317.735028 90.361715 
L 322.617051 105.367671 
L 325.871733 115.639961 
L 329.940086 127.760348 
L 332.381097 134.315835 
L 334.822109 140.567234 
L 338.890462 149.75695 
L 340.517803 153.050486 
L 343.772485 158.762038 
L 346.213497 162.389334 
L 347.840838 164.6349 
L 350.281849 167.369258 
L 353.536532 170.627156 
L 355.163873 172.003239 
L 357.604884 173.669218 
L 360.045896 175.182274 
L 364.114249 178.087696 
L 367.368931 180.544918 
L 374.691966 187.673859 
L 377.946648 191.627116 
L 377.946648 191.627116 
" clip-path="url(#pd001261c52)" style="fill: none; stroke: #000000; stroke-width: 1.5"/>
   </g>
   <g id="line2d_32">
    <defs>
     <path id="m3c37625455" d="M 0 3 
C 0.795609 3 1.55874 2.683901 2.12132 2.12132 
C 2.683901 1.55874 3 0.795609 3 0 
C 3 -0.795609 2.683901 -1.55874 2.12132 -2.12132 
C 1.55874 -2.683901 0.795609 -3 0 -3 
C -0.795609 -3 -1.55874 -2.683901 -2.12132 -2.12132 
C -2.683901 -1.55874 -3 -0.795609 -3 0 
C -3 0.795609 -2.683901 1.55874 -2.12132 2.12132 
C -1.55874 2.683901 -0.795609 3 0 3 
z
" style="stroke: #ffa500"/>
    </defs>
    <g clip-path="url(#pd001261c52)">
     <use xlink:href="#m3c37625455" x="174.888254" y="212.65097" style="fill: #ffa500; stroke: #ffa500"/>
     <use xlink:href="#m3c37625455" x="361.945823" y="167.926818" style="fill: #ffa500; stroke: #ffa500"/>
     <use xlink:href="#m3c37625455" x="290.937263" y="56.936458" style="fill: #ffa500; stroke: #ffa500"/>
     <use xlink:href="#m3c37625455" x="247.6493" y="177.862975" style="fill: #ffa500; stroke: #ffa500"/>
     <use xlink:href="#m3c37625455" x="103.944263" y="119.538686" style="fill: #ffa500; stroke: #ffa500"/>
     <use xlink:href="#m3c37625455" x="103.936432" y="105.847355" style="fill: #ffa500; stroke: #ffa500"/>
     <use xlink:href="#m3c37625455" x="72.149211" y="108.266702" style="fill: #ffa500; stroke: #ffa500"/>
     <use xlink:href="#m3c37625455" x="334.500125" y="125.805745" style="fill: #ffa500; stroke: #ffa500"/>
     <use xlink:href="#m3c37625455" x="248.446823" y="164.706043" style="fill: #ffa500; stroke: #ffa500"/>
     <use xlink:href="#m3c37625455" x="283.171083" y="96.642957" style="fill: #ffa500; stroke: #ffa500"/>
     <use xlink:href="#m3c37625455" x="59.974952" y="107.809921" style="fill: #ffa500; stroke: #ffa500"/>
     <use xlink:href="#m3c37625455" x="368.177744" y="187.010365" style="fill: #ffa500; stroke: #ffa500"/>
     <use xlink:href="#m3c37625455" x="323.548389" y="132.82918" style="fill: #ffa500; stroke: #ffa500"/>
     <use xlink:href="#m3c37625455" x="122.22896" y="68.720126" style="fill: #ffa500; stroke: #ffa500"/>
     <use xlink:href="#m3c37625455" x="112.322404" y="66.431641" style="fill: #ffa500; stroke: #ffa500"/>
     <use xlink:href="#m3c37625455" x="112.83521" y="67.783244" style="fill: #ffa500; stroke: #ffa500"/>
     <use xlink:href="#m3c37625455" x="152.065729" y="165.152875" style="fill: #ffa500; stroke: #ffa500"/>
     <use xlink:href="#m3c37625455" x="223.656663" y="196.168144" style="fill: #ffa500; stroke: #ffa500"/>
     <use xlink:href="#m3c37625455" x="193.525016" y="219.534087" style="fill: #ffa500; stroke: #ffa500"/>
     <use xlink:href="#m3c37625455" x="147.840966" y="115.22433" style="fill: #ffa500; stroke: #ffa500"/>
     <use xlink:href="#m3c37625455" x="251.932926" y="171.93248" style="fill: #ffa500; stroke: #ffa500"/>
     <use xlink:href="#m3c37625455" x="98.579418" y="100.232046" style="fill: #ffa500; stroke: #ffa500"/>
     <use xlink:href="#m3c37625455" x="148.13819" y="153.985175" style="fill: #ffa500; stroke: #ffa500"/>
     <use xlink:href="#m3c37625455" x="172.23314" y="242.590102" style="fill: #ffa500; stroke: #ffa500"/>
     <use xlink:href="#m3c37625455" x="201.357296" y="199.244524" style="fill: #ffa500; stroke: #ffa500"/>
     <use xlink:href="#m3c37625455" x="308.203047" y="51.92007" style="fill: #ffa500; stroke: #ffa500"/>
     <use xlink:href="#m3c37625455" x="118.117103" y="82.177766" style="fill: #ffa500; stroke: #ffa500"/>
     <use xlink:href="#m3c37625455" x="220.24065" y="174.099211" style="fill: #ffa500; stroke: #ffa500"/>
     <use xlink:href="#m3c37625455" x="245.622185" y="169.371039" style="fill: #ffa500; stroke: #ffa500"/>
     <use xlink:href="#m3c37625455" x="68.37244" y="113.765847" style="fill: #ffa500; stroke: #ffa500"/>
     <use xlink:href="#m3c37625455" x="250.5343" y="160.011837" style="fill: #ffa500; stroke: #ffa500"/>
     <use xlink:href="#m3c37625455" x="108.653534" y="60.695625" style="fill: #ffa500; stroke: #ffa500"/>
     <use xlink:href="#m3c37625455" x="74.411398" y="99.975588" style="fill: #ffa500; stroke: #ffa500"/>
     <use xlink:href="#m3c37625455" x="361.352105" y="142.081061" style="fill: #ffa500; stroke: #ffa500"/>
     <use xlink:href="#m3c37625455" x="366.788931" y="225.049208" style="fill: #ffa500; stroke: #ffa500"/>
     <use xlink:href="#m3c37625455" x="315.741976" y="83.092189" style="fill: #ffa500; stroke: #ffa500"/>
     <use xlink:href="#m3c37625455" x="152.186347" y="148.930199" style="fill: #ffa500; stroke: #ffa500"/>
     <use xlink:href="#m3c37625455" x="85.001798" y="105.162739" style="fill: #ffa500; stroke: #ffa500"/>
     <use xlink:href="#m3c37625455" x="275.431464" y="83.977777" style="fill: #ffa500; stroke: #ffa500"/>
     <use xlink:href="#m3c37625455" x="196.18961" y="257.72943" style="fill: #ffa500; stroke: #ffa500"/>
     <use xlink:href="#m3c37625455" x="92.91237" y="103.298435" style="fill: #ffa500; stroke: #ffa500"/>
     <use xlink:href="#m3c37625455" x="214.053537" y="190.466963" style="fill: #ffa500; stroke: #ffa500"/>
     <use xlink:href="#m3c37625455" x="64.456492" y="79.547179" style="fill: #ffa500; stroke: #ffa500"/>
     <use xlink:href="#m3c37625455" x="348.507104" y="169.268959" style="fill: #ffa500; stroke: #ffa500"/>
     <use xlink:href="#m3c37625455" x="137.3062" y="112.548335" style="fill: #ffa500; stroke: #ffa500"/>
     <use xlink:href="#m3c37625455" x="268.382973" y="119.205557" style="fill: #ffa500; stroke: #ffa500"/>
     <use xlink:href="#m3c37625455" x="154.49052" y="143.587896" style="fill: #ffa500; stroke: #ffa500"/>
     <use xlink:href="#m3c37625455" x="222.134549" y="185.310147" style="fill: #ffa500; stroke: #ffa500"/>
     <use xlink:href="#m3c37625455" x="230.78408" y="197.732773" style="fill: #ffa500; stroke: #ffa500"/>
     <use xlink:href="#m3c37625455" x="113.305942" y="74.928411" style="fill: #ffa500; stroke: #ffa500"/>
    </g>
   </g>
   <g id="patch_3">
    <path d="M 37.059375 287.88075 
L 37.059375 21.76875 
" style="fill: none; stroke: #000000; stroke-width: 0.8; stroke-linejoin: miter; stroke-linecap: square"/>
   </g>
   <g id="patch_4">
    <path d="M 394.179375 287.88075 
L 394.179375 21.76875 
" style="fill: none; stroke: #000000; stroke-width: 0.8; stroke-linejoin: miter; stroke-linecap: square"/>
   </g>
   <g id="patch_5">
    <path d="M 37.059375 287.88075 
L 394.179375 287.88075 
" style="fill: none; stroke: #000000; stroke-width: 0.8; stroke-linejoin: miter; stroke-linecap: square"/>
   </g>
   <g id="patch_6">
    <path d="M 37.059375 21.76875 
L 394.179375 21.76875 
" style="fill: none; stroke: #000000; stroke-width: 0.8; stroke-linejoin: miter; stroke-linecap: square"/>
   </g>
   <g id="text_17">
    <!-- 2-sine fit -->
    <g transform="translate(191.608125 15.76875) scale(0.12 -0.12)">
     <defs>
      <path id="HelveticaNeue-Medium-2d" d="M 314 2086 
L 2176 2086 
L 2176 1395 
L 314 1395 
L 314 2086 
z
" transform="scale(0.015625)"/>
      <path id="HelveticaNeue-Medium-73" d="M 934 1062 
Q 966 742 1177 614 
Q 1389 486 1683 486 
Q 1786 486 1917 502 
Q 2048 518 2163 563 
Q 2278 608 2352 694 
Q 2426 781 2419 921 
Q 2413 1062 2317 1152 
Q 2221 1242 2070 1296 
Q 1920 1350 1728 1388 
Q 1536 1427 1338 1472 
Q 1133 1517 944 1581 
Q 755 1645 604 1753 
Q 454 1862 364 2032 
Q 275 2202 275 2451 
Q 275 2720 406 2902 
Q 538 3085 739 3197 
Q 941 3309 1187 3353 
Q 1434 3398 1658 3398 
Q 1914 3398 2147 3344 
Q 2381 3290 2569 3168 
Q 2758 3046 2883 2851 
Q 3008 2656 3040 2381 
L 2278 2381 
Q 2227 2643 2038 2732 
Q 1850 2822 1606 2822 
Q 1530 2822 1424 2809 
Q 1318 2797 1225 2761 
Q 1133 2726 1069 2659 
Q 1005 2592 1005 2483 
Q 1005 2349 1097 2265 
Q 1190 2182 1340 2128 
Q 1491 2074 1683 2035 
Q 1875 1997 2080 1952 
Q 2278 1907 2470 1843 
Q 2662 1779 2812 1670 
Q 2963 1562 3056 1395 
Q 3149 1229 3149 986 
Q 3149 691 3014 486 
Q 2880 282 2665 154 
Q 2451 26 2188 -32 
Q 1926 -90 1670 -90 
Q 1357 -90 1091 -19 
Q 826 51 630 195 
Q 435 339 323 553 
Q 211 768 205 1062 
L 934 1062 
z
" transform="scale(0.015625)"/>
      <path id="HelveticaNeue-Medium-69" d="M 403 4570 
L 1133 4570 
L 1133 3878 
L 403 3878 
L 403 4570 
z
M 403 3309 
L 1133 3309 
L 1133 0 
L 403 0 
L 403 3309 
z
" transform="scale(0.015625)"/>
      <path id="HelveticaNeue-Medium-6e" d="M 384 3309 
L 1075 3309 
L 1075 2822 
L 1088 2810 
Q 1254 3085 1523 3241 
Q 1792 3398 2118 3398 
Q 2662 3398 2976 3116 
Q 3290 2835 3290 2272 
L 3290 0 
L 2560 0 
L 2560 2080 
Q 2547 2470 2393 2646 
Q 2240 2822 1914 2822 
Q 1728 2822 1581 2755 
Q 1434 2688 1331 2569 
Q 1229 2451 1171 2291 
Q 1114 2131 1114 1952 
L 1114 0 
L 384 0 
L 384 3309 
z
" transform="scale(0.015625)"/>
      <path id="HelveticaNeue-Medium-65" d="M 2656 1946 
Q 2643 2118 2582 2278 
Q 2522 2438 2416 2556 
Q 2310 2675 2160 2748 
Q 2010 2822 1824 2822 
Q 1632 2822 1475 2755 
Q 1318 2688 1206 2569 
Q 1094 2451 1027 2291 
Q 960 2131 954 1946 
L 2656 1946 
z
M 954 1466 
Q 954 1274 1008 1094 
Q 1062 915 1171 780 
Q 1280 646 1446 566 
Q 1613 486 1843 486 
Q 2163 486 2358 624 
Q 2554 762 2650 1037 
L 3341 1037 
Q 3283 768 3142 557 
Q 3002 346 2803 202 
Q 2605 58 2358 -16 
Q 2112 -90 1843 -90 
Q 1453 -90 1152 38 
Q 851 166 643 396 
Q 435 627 329 947 
Q 224 1267 224 1651 
Q 224 2003 336 2320 
Q 448 2637 656 2877 
Q 864 3117 1158 3257 
Q 1453 3398 1824 3398 
Q 2214 3398 2524 3235 
Q 2835 3072 3040 2803 
Q 3245 2534 3337 2185 
Q 3430 1837 3386 1466 
L 954 1466 
z
" transform="scale(0.015625)"/>
      <path id="HelveticaNeue-Medium-20" transform="scale(0.015625)"/>
      <path id="HelveticaNeue-Medium-66" d="M 58 3309 
L 602 3309 
L 602 3584 
Q 602 3898 678 4093 
Q 755 4288 883 4393 
Q 1011 4499 1174 4534 
Q 1338 4570 1517 4570 
Q 1869 4570 2029 4525 
L 2029 3955 
Q 1958 3974 1878 3984 
Q 1798 3994 1690 3994 
Q 1542 3994 1436 3923 
Q 1331 3853 1331 3648 
L 1331 3309 
L 1952 3309 
L 1952 2765 
L 1331 2765 
L 1331 0 
L 602 0 
L 602 2765 
L 58 2765 
L 58 3309 
z
" transform="scale(0.015625)"/>
      <path id="HelveticaNeue-Medium-74" d="M 51 3309 
L 602 3309 
L 602 4301 
L 1331 4301 
L 1331 3309 
L 1990 3309 
L 1990 2765 
L 1331 2765 
L 1331 998 
Q 1331 883 1340 800 
Q 1350 717 1385 659 
Q 1421 602 1491 573 
Q 1562 544 1683 544 
Q 1760 544 1837 547 
Q 1914 550 1990 570 
L 1990 6 
Q 1869 -6 1753 -19 
Q 1638 -32 1517 -32 
Q 1229 -32 1053 22 
Q 877 77 777 182 
Q 678 288 643 448 
Q 608 608 602 813 
L 602 2765 
L 51 2765 
L 51 3309 
z
" transform="scale(0.015625)"/>
     </defs>
     <use xlink:href="#HelveticaNeue-Medium-32"/>
     <use xlink:href="#HelveticaNeue-Medium-2d" transform="translate(55.599991 0)"/>
     <use xlink:href="#HelveticaNeue-Medium-73" transform="translate(94.499985 0)"/>
     <use xlink:href="#HelveticaNeue-Medium-69" transform="translate(146.399979 0)"/>
     <use xlink:href="#HelveticaNeue-Medium-6e" transform="translate(170.499969 0)"/>
     <use xlink:href="#HelveticaNeue-Medium-65" transform="translate(227.899963 0)"/>
     <use xlink:href="#HelveticaNeue-Medium-20" transform="translate(283.499954 0)"/>
     <use xlink:href="#HelveticaNeue-Medium-66" transform="translate(311.299942 0)"/>
     <use xlink:href="#HelveticaNeue-Medium-69" transform="translate(342.799927 0)"/>
     <use xlink:href="#HelveticaNeue-Medium-74" transform="translate(366.899918 0)"/>
    </g>
   </g>
  </g>
 </g>
 <defs>
  <clipPath id="pd001261c52">
   <rect x="37.059375" y="21.76875" width="357.12" height="266.112"/>
  </clipPath>
 </defs>
</svg>
