<?xml version="1.0" encoding="utf-8" standalone="no"?>
<!DOCTYPE svg PUBLIC "-//W3C//DTD SVG 1.1//EN"
  "http://www.w3.org/Graphics/SVG/1.1/DTD/svg11.dtd">
<!-- Created with matplotlib (https://matplotlib.org/) -->
<svg height="310.890125pt" version="1.1" viewBox="0 0 426.798125 310.890125" width="426.798125pt" xmlns="http://www.w3.org/2000/svg" xmlns:xlink="http://www.w3.org/1999/xlink">
 <defs>
  <style type="text/css">
*{stroke-linecap:butt;stroke-linejoin:round;}
  </style>
 </defs>
 <g id="figure_1">
  <g id="patch_1">
   <path d="M 0 310.890125 
L 426.798125 310.890125 
L 426.798125 0 
L 0 0 
z
" style="fill:#ffffff;"/>
  </g>
  <g id="axes_1">
   <g id="patch_2">
    <path d="M 62.478125 273.312 
L 419.598125 273.312 
L 419.598125 7.2 
L 62.478125 7.2 
z
" style="fill:#ffffff;"/>
   </g>
   <g id="PolyCollection_1">
    <defs>
     <path d="M 83.283452 -90.764022 
L 83.283452 -60.041399 
L 84.085662 -60.569833 
L 84.887872 -61.098268 
L 85.690083 -61.626703 
L 86.492293 -62.155138 
L 87.294503 -62.683573 
L 88.096714 -63.212008 
L 88.898924 -63.740443 
L 89.701135 -64.268879 
L 90.503345 -64.797314 
L 91.305555 -65.325749 
L 92.107766 -65.854185 
L 92.909976 -66.38262 
L 93.712187 -66.911056 
L 94.514397 -67.439492 
L 95.316607 -67.967927 
L 96.118818 -68.496363 
L 96.921028 -69.024799 
L 97.723239 -69.553235 
L 98.525449 -70.081671 
L 99.327659 -70.610107 
L 100.12987 -71.138543 
L 100.93208 -71.666979 
L 101.734291 -72.195416 
L 102.536501 -72.723852 
L 103.338711 -73.252289 
L 104.140922 -73.780725 
L 104.943132 -74.309162 
L 105.745342 -74.837598 
L 106.547553 -75.366035 
L 107.349763 -75.894472 
L 108.151974 -76.422909 
L 108.954184 -76.951345 
L 109.756394 -77.479782 
L 110.558605 -78.008219 
L 111.360815 -78.536657 
L 112.163026 -79.065094 
L 112.965236 -79.593531 
L 113.767446 -80.121968 
L 114.569657 -80.650406 
L 115.371867 -81.178843 
L 116.174078 -81.707281 
L 116.976288 -82.235718 
L 117.778498 -82.764156 
L 118.580709 -83.292594 
L 119.382919 -83.821032 
L 120.18513 -84.34947 
L 120.98734 -84.877907 
L 121.78955 -85.406346 
L 122.591761 -85.934784 
L 123.393971 -86.463222 
L 124.196181 -86.99166 
L 124.998392 -87.520098 
L 125.800602 -88.048537 
L 126.602813 -88.576975 
L 127.405023 -89.105414 
L 128.207233 -89.633852 
L 129.009444 -90.162291 
L 129.811654 -90.69073 
L 130.613865 -91.219168 
L 131.416075 -91.747607 
L 132.218285 -92.276046 
L 133.020496 -92.804485 
L 133.822706 -93.332924 
L 134.624917 -93.861363 
L 135.427127 -94.389802 
L 136.229337 -94.918242 
L 137.031548 -95.446681 
L 137.833758 -95.975121 
L 138.635969 -96.50356 
L 139.438179 -97.032 
L 140.240389 -97.560439 
L 141.0426 -98.088879 
L 141.84481 -98.617319 
L 142.64702 -99.145758 
L 143.449231 -99.674198 
L 144.251441 -100.202638 
L 145.053652 -100.731078 
L 145.855862 -101.259518 
L 146.658072 -101.787959 
L 147.460283 -102.316399 
L 148.262493 -102.844839 
L 149.064704 -103.373279 
L 149.866914 -103.90172 
L 150.669124 -104.43016 
L 151.471335 -104.958601 
L 152.273545 -105.487042 
L 153.075756 -106.015482 
L 153.877966 -106.543923 
L 154.680176 -107.072364 
L 155.482387 -107.600805 
L 156.284597 -108.129246 
L 157.086808 -108.657687 
L 157.889018 -109.186128 
L 158.691228 -109.714569 
L 159.493439 -110.243011 
L 160.295649 -110.771452 
L 161.097859 -111.299893 
L 161.90007 -111.828335 
L 162.70228 -112.356776 
L 163.504491 -112.885218 
L 164.306701 -113.41366 
L 165.108911 -113.942102 
L 165.911122 -114.470543 
L 166.713332 -114.998985 
L 167.515543 -115.527427 
L 168.317753 -116.055869 
L 169.119963 -116.584311 
L 169.922174 -117.112754 
L 170.724384 -117.641196 
L 171.526595 -118.169638 
L 172.328805 -118.69808 
L 173.131015 -119.226523 
L 173.933226 -119.754965 
L 174.735436 -120.283408 
L 175.537647 -120.811851 
L 176.339857 -121.340293 
L 177.142067 -121.868736 
L 177.944278 -122.397179 
L 178.746488 -122.925622 
L 179.548698 -123.454065 
L 180.350909 -123.982508 
L 181.153119 -124.510951 
L 181.95533 -125.039394 
L 182.75754 -125.567838 
L 183.55975 -126.096281 
L 184.361961 -126.624724 
L 185.164171 -127.153168 
L 185.966382 -127.681612 
L 186.768592 -128.210055 
L 187.570802 -128.738499 
L 188.373013 -129.266943 
L 189.175223 -129.795386 
L 189.977434 -130.32383 
L 190.779644 -130.852274 
L 191.581854 -131.380718 
L 192.384065 -131.909162 
L 193.186275 -132.437607 
L 193.988486 -132.956232 
L 194.790696 -133.434287 
L 195.592906 -133.912347 
L 196.395117 -134.39041 
L 197.197327 -134.868478 
L 197.999537 -135.34655 
L 198.801748 -135.824627 
L 199.603958 -136.302707 
L 200.406169 -136.780792 
L 201.208379 -137.258881 
L 202.010589 -137.736974 
L 202.8128 -138.216022 
L 203.61501 -138.696504 
L 204.417221 -139.176992 
L 205.219431 -139.657486 
L 206.021641 -140.137987 
L 206.823852 -140.618493 
L 207.626062 -141.099006 
L 208.428273 -141.579525 
L 209.230483 -142.060049 
L 210.032693 -142.54058 
L 210.834904 -143.021117 
L 211.637114 -143.504134 
L 212.439325 -144.024223 
L 213.241535 -144.544319 
L 214.043745 -145.073187 
L 214.845956 -145.604991 
L 215.648166 -146.136795 
L 216.450376 -146.6686 
L 217.252587 -147.200405 
L 218.054797 -147.73221 
L 218.857008 -148.264015 
L 219.659218 -148.79582 
L 220.461428 -149.327626 
L 221.263639 -149.859431 
L 222.065849 -150.391237 
L 222.86806 -150.923043 
L 223.67027 -151.454849 
L 224.47248 -151.986656 
L 225.274691 -152.518462 
L 226.076901 -153.050269 
L 226.879112 -153.582076 
L 227.681322 -154.113883 
L 228.483532 -154.64569 
L 229.285743 -155.177497 
L 230.087953 -155.709305 
L 230.890164 -156.241113 
L 231.692374 -156.772921 
L 232.494584 -157.304729 
L 233.296795 -157.836537 
L 234.099005 -158.368346 
L 234.901216 -158.900154 
L 235.703426 -159.431963 
L 236.505636 -159.963772 
L 237.307847 -160.495581 
L 238.110057 -161.02739 
L 238.912267 -161.5592 
L 239.714478 -162.09101 
L 240.516688 -162.62282 
L 241.318899 -163.15463 
L 242.121109 -163.68644 
L 242.923319 -164.21825 
L 243.72553 -164.750061 
L 244.52774 -165.281871 
L 245.329951 -165.822211 
L 246.132161 -166.364521 
L 246.934371 -166.87164 
L 247.736582 -167.377699 
L 248.538792 -167.883768 
L 249.341003 -168.389847 
L 250.143213 -168.895935 
L 250.945423 -169.402033 
L 251.747634 -169.943118 
L 252.549844 -170.498774 
L 253.352055 -171.062252 
L 254.154265 -171.637466 
L 254.956475 -172.212679 
L 255.758686 -172.728763 
L 256.560896 -173.22011 
L 257.363106 -173.7641 
L 258.165317 -174.308136 
L 258.967527 -174.852218 
L 259.769738 -175.395273 
L 260.571948 -175.919987 
L 261.374158 -176.449937 
L 262.176369 -176.981752 
L 262.978579 -177.513567 
L 263.78079 -178.045382 
L 264.583 -178.530387 
L 265.38521 -178.967841 
L 266.187421 -179.405311 
L 266.989631 -179.849538 
L 267.791842 -180.30669 
L 268.594052 -180.763897 
L 269.396262 -181.297984 
L 270.198473 -181.873239 
L 271.000683 -182.454888 
L 271.802894 -182.989152 
L 272.605104 -183.461538 
L 273.407314 -183.93393 
L 274.209525 -184.410229 
L 275.011735 -184.890243 
L 275.813945 -185.37027 
L 276.616156 -185.85031 
L 277.418366 -186.382812 
L 278.220577 -186.921303 
L 279.022787 -187.470548 
L 279.824997 -188.022253 
L 280.627208 -188.573961 
L 281.429418 -189.12567 
L 282.231629 -189.677381 
L 283.033839 -190.229094 
L 283.836049 -190.780808 
L 284.63826 -191.332524 
L 285.44047 -191.884243 
L 286.242681 -192.435962 
L 287.044891 -192.987684 
L 287.847101 -193.539408 
L 288.649312 -194.091133 
L 289.451522 -194.623584 
L 290.253733 -195.083197 
L 291.055943 -195.542819 
L 291.858153 -196.002449 
L 292.660364 -196.462087 
L 293.462574 -196.921734 
L 294.264784 -197.381389 
L 295.066995 -197.841053 
L 295.869205 -198.300725 
L 296.671416 -198.754897 
L 297.473626 -199.198006 
L 298.275836 -199.641115 
L 299.078047 -200.084225 
L 299.880257 -200.527334 
L 300.682468 -200.970443 
L 301.484678 -201.413552 
L 302.286888 -201.856661 
L 303.089099 -202.29977 
L 303.891309 -202.742879 
L 304.69352 -203.182229 
L 305.49573 -203.60647 
L 306.29794 -204.030721 
L 307.100151 -204.454984 
L 307.902361 -204.879258 
L 308.704572 -205.303542 
L 309.506782 -205.727838 
L 310.308992 -206.122458 
L 311.111203 -206.504068 
L 311.913413 -206.903078 
L 312.715623 -207.302104 
L 313.517834 -207.701148 
L 314.320044 -208.100208 
L 315.122255 -208.499285 
L 315.924465 -208.951345 
L 316.726675 -209.416307 
L 317.528886 -209.881286 
L 318.331096 -210.346282 
L 319.133307 -210.811295 
L 319.935517 -211.276324 
L 320.737727 -211.741371 
L 321.539938 -212.218717 
L 322.342148 -212.701097 
L 323.144359 -213.183477 
L 323.946569 -213.638938 
L 324.748779 -214.08538 
L 325.55099 -214.531822 
L 326.3532 -214.978265 
L 327.155411 -215.424708 
L 327.957621 -215.871151 
L 328.759831 -216.317595 
L 329.562042 -216.764039 
L 330.364252 -217.210483 
L 331.166462 -217.656928 
L 331.968673 -218.103373 
L 332.770883 -218.549818 
L 333.573094 -218.996264 
L 334.375304 -219.44271 
L 335.177514 -219.889156 
L 335.979725 -220.335603 
L 336.781935 -220.78205 
L 337.584146 -221.228498 
L 338.386356 -221.674946 
L 339.188566 -222.121394 
L 339.990777 -222.567842 
L 340.792987 -223.014291 
L 341.595198 -223.46074 
L 342.397408 -223.90719 
L 343.199618 -224.35364 
L 344.001829 -224.80009 
L 344.804039 -225.24654 
L 345.60625 -225.692991 
L 346.40846 -226.139442 
L 347.21067 -226.585894 
L 348.012881 -227.007771 
L 348.815091 -227.429065 
L 349.617301 -227.850363 
L 350.419512 -228.271664 
L 351.221722 -228.692968 
L 352.023933 -229.114275 
L 352.826143 -229.535585 
L 353.628353 -229.956898 
L 354.430564 -230.390891 
L 355.232774 -230.840137 
L 356.034985 -231.289386 
L 356.837195 -231.693139 
L 357.639405 -232.042729 
L 358.441616 -232.420433 
L 359.243826 -232.815557 
L 360.046037 -233.210689 
L 360.848247 -233.605829 
L 361.650457 -234.000977 
L 362.452668 -234.396133 
L 363.254878 -234.791298 
L 364.057089 -235.18647 
L 364.859299 -235.581651 
L 365.661509 -235.976839 
L 366.46372 -236.372036 
L 367.26593 -236.76724 
L 368.06814 -237.162453 
L 368.870351 -237.557674 
L 369.672561 -237.952903 
L 370.474772 -238.34814 
L 371.276982 -238.743385 
L 372.079192 -239.138638 
L 372.881403 -239.533899 
L 373.683613 -239.929168 
L 374.485824 -240.324445 
L 375.288034 -240.71973 
L 376.090244 -241.115023 
L 376.892455 -241.510324 
L 377.694665 -241.905634 
L 378.496876 -242.300951 
L 379.299086 -242.696276 
L 380.101296 -243.106016 
L 380.903507 -243.528688 
L 381.705717 -243.951364 
L 382.507928 -244.374045 
L 383.310138 -244.796729 
L 384.112348 -245.219417 
L 384.914559 -245.64211 
L 385.716769 -246.064806 
L 386.51898 -246.487506 
L 387.32119 -246.910211 
L 388.1234 -247.332919 
L 388.925611 -247.755631 
L 389.727821 -248.178348 
L 390.530031 -248.601068 
L 391.332242 -249.023792 
L 392.134452 -249.446521 
L 392.936663 -249.869253 
L 393.738873 -250.29199 
L 394.541083 -250.71473 
L 395.343294 -251.137475 
L 396.145504 -251.560223 
L 396.947715 -251.982976 
L 397.749925 -252.405732 
L 398.552135 -252.828493 
L 399.354346 -253.251257 
L 400.156556 -253.674026 
L 400.958767 -254.096798 
L 401.760977 -254.519575 
L 402.563187 -254.942356 
L 403.365398 -255.365141 
L 403.365398 -274.336274 
L 403.365398 -274.336274 
L 402.563187 -273.783316 
L 401.760977 -273.230359 
L 400.958767 -272.69193 
L 400.156556 -272.166882 
L 399.354346 -271.641835 
L 398.552135 -271.116788 
L 397.749925 -270.59174 
L 396.947715 -270.066693 
L 396.145504 -269.541646 
L 395.343294 -269.016599 
L 394.541083 -268.491551 
L 393.738873 -267.966504 
L 392.936663 -267.441457 
L 392.134452 -266.91641 
L 391.332242 -266.391363 
L 390.530031 -265.866316 
L 389.727821 -265.341269 
L 388.925611 -264.816222 
L 388.1234 -264.291175 
L 387.32119 -263.766128 
L 386.51898 -263.241081 
L 385.716769 -262.716035 
L 384.914559 -262.190988 
L 384.112348 -261.665941 
L 383.310138 -261.140894 
L 382.507928 -260.615848 
L 381.705717 -260.090801 
L 380.903507 -259.565754 
L 380.101296 -259.040708 
L 379.299086 -258.515661 
L 378.496876 -257.990615 
L 377.694665 -257.465568 
L 376.892455 -256.940522 
L 376.090244 -256.415475 
L 375.288034 -255.890429 
L 374.485824 -255.365382 
L 373.683613 -254.840336 
L 372.881403 -254.31529 
L 372.079192 -253.790243 
L 371.276982 -253.265197 
L 370.474772 -252.740151 
L 369.672561 -252.215105 
L 368.870351 -251.690058 
L 368.06814 -251.165012 
L 367.26593 -250.639966 
L 366.46372 -250.11492 
L 365.661509 -249.589874 
L 364.859299 -249.064828 
L 364.057089 -248.539782 
L 363.254878 -248.014736 
L 362.452668 -247.48969 
L 361.650457 -246.964644 
L 360.848247 -246.439599 
L 360.046037 -245.914553 
L 359.243826 -245.389507 
L 358.441616 -244.864461 
L 357.639405 -244.339416 
L 356.837195 -243.81437 
L 356.034985 -243.289324 
L 355.232774 -242.764279 
L 354.430564 -242.239233 
L 353.628353 -241.714187 
L 352.826143 -241.189142 
L 352.023933 -240.664096 
L 351.221722 -240.139051 
L 350.419512 -239.614005 
L 349.617301 -239.08896 
L 348.815091 -238.563915 
L 348.012881 -238.038869 
L 347.21067 -237.513824 
L 346.40846 -236.988779 
L 345.60625 -236.463733 
L 344.804039 -235.938688 
L 344.001829 -235.413643 
L 343.199618 -234.950096 
L 342.397408 -234.50742 
L 341.595198 -234.06476 
L 340.792987 -233.556285 
L 339.990777 -233.018133 
L 339.188566 -232.455871 
L 338.386356 -231.907208 
L 337.584146 -231.420546 
L 336.781935 -230.910296 
L 335.979725 -230.392507 
L 335.177514 -229.87472 
L 334.375304 -229.356938 
L 333.573094 -228.839159 
L 332.770883 -228.321385 
L 331.968673 -227.821084 
L 331.166462 -227.349716 
L 330.364252 -226.838031 
L 329.562042 -226.284835 
L 328.759831 -225.731666 
L 327.957621 -225.184548 
L 327.155411 -224.673772 
L 326.3532 -224.163006 
L 325.55099 -223.652251 
L 324.748779 -223.141505 
L 323.946569 -222.619023 
L 323.144359 -222.071626 
L 322.342148 -221.52424 
L 321.539938 -220.976865 
L 320.737727 -220.4295 
L 319.935517 -219.882145 
L 319.133307 -219.334801 
L 318.331096 -218.787467 
L 317.528886 -218.240144 
L 316.726675 -217.692831 
L 315.924465 -217.131824 
L 315.122255 -216.532961 
L 314.320044 -215.986994 
L 313.517834 -215.46195 
L 312.715623 -214.947412 
L 311.913413 -214.437799 
L 311.111203 -213.928188 
L 310.308992 -213.418577 
L 309.506782 -212.908967 
L 308.704572 -212.392679 
L 307.902361 -211.86885 
L 307.100151 -211.399656 
L 306.29794 -210.910263 
L 305.49573 -210.420877 
L 304.69352 -210.064655 
L 303.891309 -209.70202 
L 303.089099 -209.290697 
L 302.286888 -208.879386 
L 301.484678 -208.468089 
L 300.682468 -208.056804 
L 299.880257 -207.645532 
L 299.078047 -207.234273 
L 298.275836 -206.823027 
L 297.473626 -206.399478 
L 296.671416 -205.943066 
L 295.869205 -205.486673 
L 295.066995 -205.030298 
L 294.264784 -204.573942 
L 293.462574 -204.117604 
L 292.660364 -203.661284 
L 291.858153 -203.15903 
L 291.055943 -202.634157 
L 290.253733 -202.109302 
L 289.451522 -201.584466 
L 288.649312 -201.059648 
L 287.847101 -200.519173 
L 287.044891 -199.97323 
L 286.242681 -199.427288 
L 285.44047 -198.881346 
L 284.63826 -198.335404 
L 283.836049 -197.834479 
L 283.033839 -197.381316 
L 282.231629 -196.928166 
L 281.429418 -196.47503 
L 280.627208 -196.021908 
L 279.824997 -195.568799 
L 279.022787 -195.115703 
L 278.220577 -194.610054 
L 277.418366 -194.098091 
L 276.616156 -193.586142 
L 275.813945 -193.088077 
L 275.011735 -192.652233 
L 274.209525 -192.21639 
L 273.407314 -191.780547 
L 272.605104 -191.344703 
L 271.802894 -190.90886 
L 271.000683 -190.473016 
L 270.198473 -190.037173 
L 269.396262 -189.60133 
L 268.594052 -189.165486 
L 267.791842 -188.729643 
L 266.989631 -188.2938 
L 266.187421 -187.857957 
L 265.38521 -187.422114 
L 264.583 -186.986271 
L 263.78079 -186.550427 
L 262.978579 -186.114584 
L 262.176369 -185.678741 
L 261.374158 -185.242898 
L 260.571948 -184.807055 
L 259.769738 -184.371212 
L 258.967527 -183.93537 
L 258.165317 -183.499527 
L 257.363106 -183.063684 
L 256.560896 -182.627841 
L 255.758686 -182.191998 
L 254.956475 -181.756155 
L 254.154265 -181.320313 
L 253.352055 -180.88447 
L 252.549844 -180.448627 
L 251.747634 -180.014161 
L 250.945423 -179.645085 
L 250.143213 -179.276018 
L 249.341003 -178.90291 
L 248.538792 -178.524801 
L 247.736582 -178.146712 
L 246.934371 -177.703721 
L 246.132161 -177.245272 
L 245.329951 -176.778785 
L 244.52774 -176.3123 
L 243.72553 -175.845818 
L 242.923319 -175.379338 
L 242.121109 -174.912861 
L 241.318899 -174.446386 
L 240.516688 -173.979913 
L 239.714478 -173.513444 
L 238.912267 -173.046976 
L 238.110057 -172.603465 
L 237.307847 -172.190824 
L 236.505636 -171.803427 
L 235.703426 -171.416035 
L 234.901216 -171.028646 
L 234.099005 -170.641262 
L 233.296795 -170.253882 
L 232.494584 -169.866507 
L 231.692374 -169.479135 
L 230.890164 -169.091768 
L 230.087953 -168.704405 
L 229.285743 -168.317047 
L 228.483532 -167.902379 
L 227.681322 -167.482067 
L 226.879112 -167.06176 
L 226.076901 -166.641456 
L 225.274691 -166.221157 
L 224.47248 -165.800863 
L 223.67027 -165.380572 
L 222.86806 -164.960286 
L 222.065849 -164.540004 
L 221.263639 -164.119727 
L 220.461428 -163.699453 
L 219.659218 -163.279184 
L 218.857008 -162.858919 
L 218.054797 -162.438658 
L 217.252587 -162.018402 
L 216.450376 -161.59815 
L 215.648166 -161.177902 
L 214.845956 -160.757659 
L 214.043745 -160.337419 
L 213.241535 -159.917184 
L 212.439325 -159.496953 
L 211.637114 -159.073791 
L 210.834904 -158.641765 
L 210.032693 -158.209739 
L 209.230483 -157.777714 
L 208.428273 -157.345688 
L 207.626062 -156.913662 
L 206.823852 -156.481637 
L 206.021641 -156.049611 
L 205.219431 -155.617585 
L 204.417221 -155.18556 
L 203.61501 -154.753534 
L 202.8128 -154.321508 
L 202.010589 -153.889483 
L 201.208379 -153.457457 
L 200.406169 -153.025431 
L 199.603958 -152.593406 
L 198.801748 -152.16138 
L 197.999537 -151.729354 
L 197.197327 -151.297329 
L 196.395117 -150.865303 
L 195.592906 -150.433277 
L 194.790696 -150.001252 
L 193.988486 -149.569226 
L 193.186275 -149.1372 
L 192.384065 -148.705175 
L 191.581854 -148.273149 
L 190.779644 -147.841123 
L 189.977434 -147.409098 
L 189.175223 -146.977072 
L 188.373013 -146.545046 
L 187.570802 -146.113021 
L 186.768592 -145.680995 
L 185.966382 -145.248969 
L 185.164171 -144.816944 
L 184.361961 -144.384918 
L 183.55975 -143.952892 
L 182.75754 -143.520867 
L 181.95533 -143.088841 
L 181.153119 -142.656815 
L 180.350909 -142.22479 
L 179.548698 -141.792764 
L 178.746488 -141.360739 
L 177.944278 -140.928713 
L 177.142067 -140.496687 
L 176.339857 -140.064662 
L 175.537647 -139.632636 
L 174.735436 -139.20061 
L 173.933226 -138.768585 
L 173.131015 -138.336559 
L 172.328805 -137.904533 
L 171.526595 -137.472508 
L 170.724384 -137.040482 
L 169.922174 -136.608456 
L 169.119963 -136.176431 
L 168.317753 -135.744405 
L 167.515543 -135.312379 
L 166.713332 -134.880354 
L 165.911122 -134.448328 
L 165.108911 -134.016302 
L 164.306701 -133.584277 
L 163.504491 -133.152251 
L 162.70228 -132.720225 
L 161.90007 -132.2882 
L 161.097859 -131.856174 
L 160.295649 -131.424148 
L 159.493439 -130.992123 
L 158.691228 -130.560097 
L 157.889018 -130.128071 
L 157.086808 -129.696046 
L 156.284597 -129.26402 
L 155.482387 -128.831994 
L 154.680176 -128.399969 
L 153.877966 -127.967943 
L 153.075756 -127.535917 
L 152.273545 -127.104974 
L 151.471335 -126.678693 
L 150.669124 -126.252412 
L 149.866914 -125.826131 
L 149.064704 -125.399851 
L 148.262493 -124.97357 
L 147.460283 -124.54729 
L 146.658072 -124.121009 
L 145.855862 -123.694729 
L 145.053652 -123.268449 
L 144.251441 -122.842503 
L 143.449231 -122.426854 
L 142.64702 -122.011206 
L 141.84481 -121.595558 
L 141.0426 -121.17991 
L 140.240389 -120.764263 
L 139.438179 -120.348617 
L 138.635969 -119.932971 
L 137.833758 -119.517326 
L 137.031548 -119.101681 
L 136.229337 -118.686037 
L 135.427127 -118.270394 
L 134.624917 -117.854751 
L 133.822706 -117.439108 
L 133.020496 -117.023467 
L 132.218285 -116.607825 
L 131.416075 -116.192185 
L 130.613865 -115.776544 
L 129.811654 -115.360905 
L 129.009444 -114.945266 
L 128.207233 -114.529627 
L 127.405023 -114.113989 
L 126.602813 -113.698352 
L 125.800602 -113.282715 
L 124.998392 -112.867079 
L 124.196181 -112.451443 
L 123.393971 -112.035808 
L 122.591761 -111.620174 
L 121.78955 -111.20454 
L 120.98734 -110.788906 
L 120.18513 -110.373274 
L 119.382919 -109.957641 
L 118.580709 -109.542009 
L 117.778498 -109.126378 
L 116.976288 -108.710748 
L 116.174078 -108.295118 
L 115.371867 -107.879488 
L 114.569657 -107.463859 
L 113.767446 -107.048231 
L 112.965236 -106.632603 
L 112.163026 -106.216976 
L 111.360815 -105.801349 
L 110.558605 -105.385723 
L 109.756394 -104.970097 
L 108.954184 -104.554472 
L 108.151974 -104.138848 
L 107.349763 -103.723224 
L 106.547553 -103.3076 
L 105.745342 -102.891978 
L 104.943132 -102.476355 
L 104.140922 -102.060734 
L 103.338711 -101.645113 
L 102.536501 -101.229492 
L 101.734291 -100.813872 
L 100.93208 -100.397981 
L 100.12987 -99.980218 
L 99.327659 -99.560032 
L 98.525449 -99.123739 
L 97.723239 -98.683753 
L 96.921028 -98.243767 
L 96.118818 -97.803781 
L 95.316607 -97.363795 
L 94.514397 -96.923809 
L 93.712187 -96.483823 
L 92.909976 -96.043837 
L 92.107766 -95.603852 
L 91.305555 -95.163867 
L 90.503345 -94.723882 
L 89.701135 -94.283897 
L 88.898924 -93.843912 
L 88.096714 -93.403927 
L 87.294503 -92.963942 
L 86.492293 -92.523958 
L 85.690083 -92.083974 
L 84.887872 -91.643989 
L 84.085662 -91.204005 
L 83.283452 -90.764022 
z
" id="m902fe88154" style="stroke:#000000;stroke-opacity:0.1;"/>
    </defs>
    <g clip-path="url(#p98ecfe6856)">
     <use style="fill-opacity:0.1;stroke:#000000;stroke-opacity:0.1;" x="0" xlink:href="#m902fe88154" y="310.890125"/>
    </g>
   </g>
   <g id="matplotlib.axis_1">
    <g id="xtick_1">
     <g id="line2d_1">
      <defs>
       <path d="M 0 0 
L 0 3.5 
" id="mc407ff9153" style="stroke:#000000;stroke-width:0.8;"/>
      </defs>
      <g>
       <use style="stroke:#000000;stroke-width:0.8;" x="83.283452" xlink:href="#mc407ff9153" y="273.312"/>
      </g>
     </g>
     <g id="text_1">
      <!-- 9.0 -->
      <defs>
       <path d="M 10.984375 1.515625 
L 10.984375 10.5 
Q 14.703125 8.734375 18.5 7.8125 
Q 22.3125 6.890625 25.984375 6.890625 
Q 35.75 6.890625 40.890625 13.453125 
Q 46.046875 20.015625 46.78125 33.40625 
Q 43.953125 29.203125 39.59375 26.953125 
Q 35.25 24.703125 29.984375 24.703125 
Q 19.046875 24.703125 12.671875 31.3125 
Q 6.296875 37.9375 6.296875 49.421875 
Q 6.296875 60.640625 12.9375 67.421875 
Q 19.578125 74.21875 30.609375 74.21875 
Q 43.265625 74.21875 49.921875 64.515625 
Q 56.59375 54.828125 56.59375 36.375 
Q 56.59375 19.140625 48.40625 8.859375 
Q 40.234375 -1.421875 26.421875 -1.421875 
Q 22.703125 -1.421875 18.890625 -0.6875 
Q 15.09375 0.046875 10.984375 1.515625 
z
M 30.609375 32.421875 
Q 37.25 32.421875 41.125 36.953125 
Q 45.015625 41.5 45.015625 49.421875 
Q 45.015625 57.28125 41.125 61.84375 
Q 37.25 66.40625 30.609375 66.40625 
Q 23.96875 66.40625 20.09375 61.84375 
Q 16.21875 57.28125 16.21875 49.421875 
Q 16.21875 41.5 20.09375 36.953125 
Q 23.96875 32.421875 30.609375 32.421875 
z
" id="DejaVuSans-57"/>
       <path d="M 10.6875 12.40625 
L 21 12.40625 
L 21 0 
L 10.6875 0 
z
" id="DejaVuSans-46"/>
       <path d="M 31.78125 66.40625 
Q 24.171875 66.40625 20.328125 58.90625 
Q 16.5 51.421875 16.5 36.375 
Q 16.5 21.390625 20.328125 13.890625 
Q 24.171875 6.390625 31.78125 6.390625 
Q 39.453125 6.390625 43.28125 13.890625 
Q 47.125 21.390625 47.125 36.375 
Q 47.125 51.421875 43.28125 58.90625 
Q 39.453125 66.40625 31.78125 66.40625 
z
M 31.78125 74.21875 
Q 44.046875 74.21875 50.515625 64.515625 
Q 56.984375 54.828125 56.984375 36.375 
Q 56.984375 17.96875 50.515625 8.265625 
Q 44.046875 -1.421875 31.78125 -1.421875 
Q 19.53125 -1.421875 13.0625 8.265625 
Q 6.59375 17.96875 6.59375 36.375 
Q 6.59375 54.828125 13.0625 64.515625 
Q 19.53125 74.21875 31.78125 74.21875 
z
" id="DejaVuSans-48"/>
      </defs>
      <g transform="translate(75.331889 287.910437)scale(0.1 -0.1)">
       <use xlink:href="#DejaVuSans-57"/>
       <use x="63.623047" xlink:href="#DejaVuSans-46"/>
       <use x="95.410156" xlink:href="#DejaVuSans-48"/>
      </g>
     </g>
    </g>
    <g id="xtick_2">
     <g id="line2d_2">
      <g>
       <use style="stroke:#000000;stroke-width:0.8;" x="129.009444" xlink:href="#mc407ff9153" y="273.312"/>
      </g>
     </g>
     <g id="text_2">
      <!-- 9.5 -->
      <defs>
       <path d="M 10.796875 72.90625 
L 49.515625 72.90625 
L 49.515625 64.59375 
L 19.828125 64.59375 
L 19.828125 46.734375 
Q 21.96875 47.46875 24.109375 47.828125 
Q 26.265625 48.1875 28.421875 48.1875 
Q 40.625 48.1875 47.75 41.5 
Q 54.890625 34.8125 54.890625 23.390625 
Q 54.890625 11.625 47.5625 5.09375 
Q 40.234375 -1.421875 26.90625 -1.421875 
Q 22.3125 -1.421875 17.546875 -0.640625 
Q 12.796875 0.140625 7.71875 1.703125 
L 7.71875 11.625 
Q 12.109375 9.234375 16.796875 8.0625 
Q 21.484375 6.890625 26.703125 6.890625 
Q 35.15625 6.890625 40.078125 11.328125 
Q 45.015625 15.765625 45.015625 23.390625 
Q 45.015625 31 40.078125 35.4375 
Q 35.15625 39.890625 26.703125 39.890625 
Q 22.75 39.890625 18.8125 39.015625 
Q 14.890625 38.140625 10.796875 36.28125 
z
" id="DejaVuSans-53"/>
      </defs>
      <g transform="translate(121.057881 287.910437)scale(0.1 -0.1)">
       <use xlink:href="#DejaVuSans-57"/>
       <use x="63.623047" xlink:href="#DejaVuSans-46"/>
       <use x="95.410156" xlink:href="#DejaVuSans-53"/>
      </g>
     </g>
    </g>
    <g id="xtick_3">
     <g id="line2d_3">
      <g>
       <use style="stroke:#000000;stroke-width:0.8;" x="174.735436" xlink:href="#mc407ff9153" y="273.312"/>
      </g>
     </g>
     <g id="text_3">
      <!-- 10.0 -->
      <defs>
       <path d="M 12.40625 8.296875 
L 28.515625 8.296875 
L 28.515625 63.921875 
L 10.984375 60.40625 
L 10.984375 69.390625 
L 28.421875 72.90625 
L 38.28125 72.90625 
L 38.28125 8.296875 
L 54.390625 8.296875 
L 54.390625 0 
L 12.40625 0 
z
" id="DejaVuSans-49"/>
      </defs>
      <g transform="translate(163.602624 287.910437)scale(0.1 -0.1)">
       <use xlink:href="#DejaVuSans-49"/>
       <use x="63.623047" xlink:href="#DejaVuSans-48"/>
       <use x="127.246094" xlink:href="#DejaVuSans-46"/>
       <use x="159.033203" xlink:href="#DejaVuSans-48"/>
      </g>
     </g>
    </g>
    <g id="xtick_4">
     <g id="line2d_4">
      <g>
       <use style="stroke:#000000;stroke-width:0.8;" x="220.461428" xlink:href="#mc407ff9153" y="273.312"/>
      </g>
     </g>
     <g id="text_4">
      <!-- 10.5 -->
      <g transform="translate(209.328616 287.910437)scale(0.1 -0.1)">
       <use xlink:href="#DejaVuSans-49"/>
       <use x="63.623047" xlink:href="#DejaVuSans-48"/>
       <use x="127.246094" xlink:href="#DejaVuSans-46"/>
       <use x="159.033203" xlink:href="#DejaVuSans-53"/>
      </g>
     </g>
    </g>
    <g id="xtick_5">
     <g id="line2d_5">
      <g>
       <use style="stroke:#000000;stroke-width:0.8;" x="266.187421" xlink:href="#mc407ff9153" y="273.312"/>
      </g>
     </g>
     <g id="text_5">
      <!-- 11.0 -->
      <g transform="translate(255.054608 287.910437)scale(0.1 -0.1)">
       <use xlink:href="#DejaVuSans-49"/>
       <use x="63.623047" xlink:href="#DejaVuSans-49"/>
       <use x="127.246094" xlink:href="#DejaVuSans-46"/>
       <use x="159.033203" xlink:href="#DejaVuSans-48"/>
      </g>
     </g>
    </g>
    <g id="xtick_6">
     <g id="line2d_6">
      <g>
       <use style="stroke:#000000;stroke-width:0.8;" x="311.913413" xlink:href="#mc407ff9153" y="273.312"/>
      </g>
     </g>
     <g id="text_6">
      <!-- 11.5 -->
      <g transform="translate(300.780601 287.910437)scale(0.1 -0.1)">
       <use xlink:href="#DejaVuSans-49"/>
       <use x="63.623047" xlink:href="#DejaVuSans-49"/>
       <use x="127.246094" xlink:href="#DejaVuSans-46"/>
       <use x="159.033203" xlink:href="#DejaVuSans-53"/>
      </g>
     </g>
    </g>
    <g id="xtick_7">
     <g id="line2d_7">
      <g>
       <use style="stroke:#000000;stroke-width:0.8;" x="357.639405" xlink:href="#mc407ff9153" y="273.312"/>
      </g>
     </g>
     <g id="text_7">
      <!-- 12.0 -->
      <defs>
       <path d="M 19.1875 8.296875 
L 53.609375 8.296875 
L 53.609375 0 
L 7.328125 0 
L 7.328125 8.296875 
Q 12.9375 14.109375 22.625 23.890625 
Q 32.328125 33.6875 34.8125 36.53125 
Q 39.546875 41.84375 41.421875 45.53125 
Q 43.3125 49.21875 43.3125 52.78125 
Q 43.3125 58.59375 39.234375 62.25 
Q 35.15625 65.921875 28.609375 65.921875 
Q 23.96875 65.921875 18.8125 64.3125 
Q 13.671875 62.703125 7.8125 59.421875 
L 7.8125 69.390625 
Q 13.765625 71.78125 18.9375 73 
Q 24.125 74.21875 28.421875 74.21875 
Q 39.75 74.21875 46.484375 68.546875 
Q 53.21875 62.890625 53.21875 53.421875 
Q 53.21875 48.921875 51.53125 44.890625 
Q 49.859375 40.875 45.40625 35.40625 
Q 44.1875 33.984375 37.640625 27.21875 
Q 31.109375 20.453125 19.1875 8.296875 
z
" id="DejaVuSans-50"/>
      </defs>
      <g transform="translate(346.506593 287.910437)scale(0.1 -0.1)">
       <use xlink:href="#DejaVuSans-49"/>
       <use x="63.623047" xlink:href="#DejaVuSans-50"/>
       <use x="127.246094" xlink:href="#DejaVuSans-46"/>
       <use x="159.033203" xlink:href="#DejaVuSans-48"/>
      </g>
     </g>
    </g>
    <g id="xtick_8">
     <g id="line2d_8">
      <g>
       <use style="stroke:#000000;stroke-width:0.8;" x="403.365398" xlink:href="#mc407ff9153" y="273.312"/>
      </g>
     </g>
     <g id="text_8">
      <!-- 12.5 -->
      <g transform="translate(392.232585 287.910437)scale(0.1 -0.1)">
       <use xlink:href="#DejaVuSans-49"/>
       <use x="63.623047" xlink:href="#DejaVuSans-50"/>
       <use x="127.246094" xlink:href="#DejaVuSans-46"/>
       <use x="159.033203" xlink:href="#DejaVuSans-53"/>
      </g>
     </g>
    </g>
    <g id="text_9">
     <!-- Bulge mass [log, $M_\odot$] -->
     <defs>
      <path d="M 19.671875 34.8125 
L 19.671875 8.109375 
L 35.5 8.109375 
Q 43.453125 8.109375 47.28125 11.40625 
Q 51.125 14.703125 51.125 21.484375 
Q 51.125 28.328125 47.28125 31.5625 
Q 43.453125 34.8125 35.5 34.8125 
z
M 19.671875 64.796875 
L 19.671875 42.828125 
L 34.28125 42.828125 
Q 41.5 42.828125 45.03125 45.53125 
Q 48.578125 48.25 48.578125 53.8125 
Q 48.578125 59.328125 45.03125 62.0625 
Q 41.5 64.796875 34.28125 64.796875 
z
M 9.8125 72.90625 
L 35.015625 72.90625 
Q 46.296875 72.90625 52.390625 68.21875 
Q 58.5 63.53125 58.5 54.890625 
Q 58.5 48.1875 55.375 44.234375 
Q 52.25 40.28125 46.1875 39.3125 
Q 53.46875 37.75 57.5 32.78125 
Q 61.53125 27.828125 61.53125 20.40625 
Q 61.53125 10.640625 54.890625 5.3125 
Q 48.25 0 35.984375 0 
L 9.8125 0 
z
" id="DejaVuSans-66"/>
      <path d="M 8.5 21.578125 
L 8.5 54.6875 
L 17.484375 54.6875 
L 17.484375 21.921875 
Q 17.484375 14.15625 20.5 10.265625 
Q 23.53125 6.390625 29.59375 6.390625 
Q 36.859375 6.390625 41.078125 11.03125 
Q 45.3125 15.671875 45.3125 23.6875 
L 45.3125 54.6875 
L 54.296875 54.6875 
L 54.296875 0 
L 45.3125 0 
L 45.3125 8.40625 
Q 42.046875 3.421875 37.71875 1 
Q 33.40625 -1.421875 27.6875 -1.421875 
Q 18.265625 -1.421875 13.375 4.4375 
Q 8.5 10.296875 8.5 21.578125 
z
M 31.109375 56 
z
" id="DejaVuSans-117"/>
      <path d="M 9.421875 75.984375 
L 18.40625 75.984375 
L 18.40625 0 
L 9.421875 0 
z
" id="DejaVuSans-108"/>
      <path d="M 45.40625 27.984375 
Q 45.40625 37.75 41.375 43.109375 
Q 37.359375 48.484375 30.078125 48.484375 
Q 22.859375 48.484375 18.828125 43.109375 
Q 14.796875 37.75 14.796875 27.984375 
Q 14.796875 18.265625 18.828125 12.890625 
Q 22.859375 7.515625 30.078125 7.515625 
Q 37.359375 7.515625 41.375 12.890625 
Q 45.40625 18.265625 45.40625 27.984375 
z
M 54.390625 6.78125 
Q 54.390625 -7.171875 48.1875 -13.984375 
Q 42 -20.796875 29.203125 -20.796875 
Q 24.46875 -20.796875 20.265625 -20.09375 
Q 16.0625 -19.390625 12.109375 -17.921875 
L 12.109375 -9.1875 
Q 16.0625 -11.328125 19.921875 -12.34375 
Q 23.78125 -13.375 27.78125 -13.375 
Q 36.625 -13.375 41.015625 -8.765625 
Q 45.40625 -4.15625 45.40625 5.171875 
L 45.40625 9.625 
Q 42.625 4.78125 38.28125 2.390625 
Q 33.9375 0 27.875 0 
Q 17.828125 0 11.671875 7.65625 
Q 5.515625 15.328125 5.515625 27.984375 
Q 5.515625 40.671875 11.671875 48.328125 
Q 17.828125 56 27.875 56 
Q 33.9375 56 38.28125 53.609375 
Q 42.625 51.21875 45.40625 46.390625 
L 45.40625 54.6875 
L 54.390625 54.6875 
z
" id="DejaVuSans-103"/>
      <path d="M 56.203125 29.59375 
L 56.203125 25.203125 
L 14.890625 25.203125 
Q 15.484375 15.921875 20.484375 11.0625 
Q 25.484375 6.203125 34.421875 6.203125 
Q 39.59375 6.203125 44.453125 7.46875 
Q 49.3125 8.734375 54.109375 11.28125 
L 54.109375 2.78125 
Q 49.265625 0.734375 44.1875 -0.34375 
Q 39.109375 -1.421875 33.890625 -1.421875 
Q 20.796875 -1.421875 13.15625 6.1875 
Q 5.515625 13.8125 5.515625 26.8125 
Q 5.515625 40.234375 12.765625 48.109375 
Q 20.015625 56 32.328125 56 
Q 43.359375 56 49.78125 48.890625 
Q 56.203125 41.796875 56.203125 29.59375 
z
M 47.21875 32.234375 
Q 47.125 39.59375 43.09375 43.984375 
Q 39.0625 48.390625 32.421875 48.390625 
Q 24.90625 48.390625 20.390625 44.140625 
Q 15.875 39.890625 15.1875 32.171875 
z
" id="DejaVuSans-101"/>
      <path id="DejaVuSans-32"/>
      <path d="M 52 44.1875 
Q 55.375 50.25 60.0625 53.125 
Q 64.75 56 71.09375 56 
Q 79.640625 56 84.28125 50.015625 
Q 88.921875 44.046875 88.921875 33.015625 
L 88.921875 0 
L 79.890625 0 
L 79.890625 32.71875 
Q 79.890625 40.578125 77.09375 44.375 
Q 74.3125 48.1875 68.609375 48.1875 
Q 61.625 48.1875 57.5625 43.546875 
Q 53.515625 38.921875 53.515625 30.90625 
L 53.515625 0 
L 44.484375 0 
L 44.484375 32.71875 
Q 44.484375 40.625 41.703125 44.40625 
Q 38.921875 48.1875 33.109375 48.1875 
Q 26.21875 48.1875 22.15625 43.53125 
Q 18.109375 38.875 18.109375 30.90625 
L 18.109375 0 
L 9.078125 0 
L 9.078125 54.6875 
L 18.109375 54.6875 
L 18.109375 46.1875 
Q 21.1875 51.21875 25.484375 53.609375 
Q 29.78125 56 35.6875 56 
Q 41.65625 56 45.828125 52.96875 
Q 50 49.953125 52 44.1875 
z
" id="DejaVuSans-109"/>
      <path d="M 34.28125 27.484375 
Q 23.390625 27.484375 19.1875 25 
Q 14.984375 22.515625 14.984375 16.5 
Q 14.984375 11.71875 18.140625 8.90625 
Q 21.296875 6.109375 26.703125 6.109375 
Q 34.1875 6.109375 38.703125 11.40625 
Q 43.21875 16.703125 43.21875 25.484375 
L 43.21875 27.484375 
z
M 52.203125 31.203125 
L 52.203125 0 
L 43.21875 0 
L 43.21875 8.296875 
Q 40.140625 3.328125 35.546875 0.953125 
Q 30.953125 -1.421875 24.3125 -1.421875 
Q 15.921875 -1.421875 10.953125 3.296875 
Q 6 8.015625 6 15.921875 
Q 6 25.140625 12.171875 29.828125 
Q 18.359375 34.515625 30.609375 34.515625 
L 43.21875 34.515625 
L 43.21875 35.40625 
Q 43.21875 41.609375 39.140625 45 
Q 35.0625 48.390625 27.6875 48.390625 
Q 23 48.390625 18.546875 47.265625 
Q 14.109375 46.140625 10.015625 43.890625 
L 10.015625 52.203125 
Q 14.9375 54.109375 19.578125 55.046875 
Q 24.21875 56 28.609375 56 
Q 40.484375 56 46.34375 49.84375 
Q 52.203125 43.703125 52.203125 31.203125 
z
" id="DejaVuSans-97"/>
      <path d="M 44.28125 53.078125 
L 44.28125 44.578125 
Q 40.484375 46.53125 36.375 47.5 
Q 32.28125 48.484375 27.875 48.484375 
Q 21.1875 48.484375 17.84375 46.4375 
Q 14.5 44.390625 14.5 40.28125 
Q 14.5 37.15625 16.890625 35.375 
Q 19.28125 33.59375 26.515625 31.984375 
L 29.59375 31.296875 
Q 39.15625 29.25 43.1875 25.515625 
Q 47.21875 21.78125 47.21875 15.09375 
Q 47.21875 7.46875 41.1875 3.015625 
Q 35.15625 -1.421875 24.609375 -1.421875 
Q 20.21875 -1.421875 15.453125 -0.5625 
Q 10.6875 0.296875 5.421875 2 
L 5.421875 11.28125 
Q 10.40625 8.6875 15.234375 7.390625 
Q 20.0625 6.109375 24.8125 6.109375 
Q 31.15625 6.109375 34.5625 8.28125 
Q 37.984375 10.453125 37.984375 14.40625 
Q 37.984375 18.0625 35.515625 20.015625 
Q 33.0625 21.96875 24.703125 23.78125 
L 21.578125 24.515625 
Q 13.234375 26.265625 9.515625 29.90625 
Q 5.8125 33.546875 5.8125 39.890625 
Q 5.8125 47.609375 11.28125 51.796875 
Q 16.75 56 26.8125 56 
Q 31.78125 56 36.171875 55.265625 
Q 40.578125 54.546875 44.28125 53.078125 
z
" id="DejaVuSans-115"/>
      <path d="M 8.59375 75.984375 
L 29.296875 75.984375 
L 29.296875 69 
L 17.578125 69 
L 17.578125 -6.203125 
L 29.296875 -6.203125 
L 29.296875 -13.1875 
L 8.59375 -13.1875 
z
" id="DejaVuSans-91"/>
      <path d="M 30.609375 48.390625 
Q 23.390625 48.390625 19.1875 42.75 
Q 14.984375 37.109375 14.984375 27.296875 
Q 14.984375 17.484375 19.15625 11.84375 
Q 23.34375 6.203125 30.609375 6.203125 
Q 37.796875 6.203125 41.984375 11.859375 
Q 46.1875 17.53125 46.1875 27.296875 
Q 46.1875 37.015625 41.984375 42.703125 
Q 37.796875 48.390625 30.609375 48.390625 
z
M 30.609375 56 
Q 42.328125 56 49.015625 48.375 
Q 55.71875 40.765625 55.71875 27.296875 
Q 55.71875 13.875 49.015625 6.21875 
Q 42.328125 -1.421875 30.609375 -1.421875 
Q 18.84375 -1.421875 12.171875 6.21875 
Q 5.515625 13.875 5.515625 27.296875 
Q 5.515625 40.765625 12.171875 48.375 
Q 18.84375 56 30.609375 56 
z
" id="DejaVuSans-111"/>
      <path d="M 11.71875 12.40625 
L 22.015625 12.40625 
L 22.015625 4 
L 14.015625 -11.625 
L 7.71875 -11.625 
L 11.71875 4 
z
" id="DejaVuSans-44"/>
      <path d="M 16.890625 72.90625 
L 31.6875 72.90625 
L 40.1875 23.78125 
L 68.40625 72.90625 
L 83.59375 72.90625 
L 69.390625 0 
L 59.8125 0 
L 72.21875 63.921875 
L 43.609375 14.015625 
L 33.984375 14.015625 
L 24.703125 64.109375 
L 12.3125 0 
L 2.6875 0 
z
" id="DejaVuSans-Oblique-77"/>
      <path d="M 36.71875 37.546875 
L 47.078125 37.546875 
L 47.078125 25.140625 
L 36.71875 25.140625 
z
M 51.65625 55.03125 
Q 47.125 56.9375 41.890625 56.9375 
Q 36.671875 56.9375 32.125 55.03125 
Q 27.640625 53.125 23.921875 49.421875 
Q 20.171875 45.65625 18.3125 41.15625 
Q 16.453125 36.671875 16.453125 31.34375 
Q 16.453125 26.171875 18.3125 21.671875 
Q 20.171875 17.1875 23.921875 13.421875 
Q 27.640625 9.71875 32.125 7.8125 
Q 36.671875 5.90625 41.890625 5.90625 
Q 47.125 5.90625 51.65625 7.8125 
Q 56.15625 9.71875 59.859375 13.421875 
Q 63.625 17.1875 65.46875 21.671875 
Q 67.328125 26.171875 67.328125 31.34375 
Q 67.328125 36.671875 65.46875 41.15625 
Q 63.625 45.65625 59.859375 49.421875 
Q 56.15625 53.125 51.65625 55.03125 
z
M 23.53125 59.375 
Q 35.15625 64.265625 41.890625 64.265625 
Q 48.640625 64.265625 54.4375 61.8125 
Q 60.25 59.375 65.046875 54.59375 
Q 69.875 49.75 72.265625 43.953125 
Q 74.65625 38.1875 74.65625 31.34375 
Q 74.65625 24.65625 72.265625 18.84375 
Q 69.875 13.09375 65.046875 8.25 
Q 60.25 3.46875 54.4375 1.015625 
Q 48.640625 -1.421875 41.890625 -1.421875 
Q 35.15625 -1.421875 29.34375 1.015625 
Q 23.53125 3.46875 18.75 8.25 
Q 13.921875 13.09375 11.53125 18.84375 
Q 9.125 24.65625 9.125 31.34375 
Q 9.125 38.1875 11.53125 43.953125 
Q 13.921875 49.75 18.75 54.59375 
Q 23.53125 59.375 35.15625 64.265625 
z
" id="DejaVuSans-8857"/>
      <path d="M 30.421875 75.984375 
L 30.421875 -13.1875 
L 9.71875 -13.1875 
L 9.71875 -6.203125 
L 21.390625 -6.203125 
L 21.390625 69 
L 9.71875 69 
L 9.71875 75.984375 
z
" id="DejaVuSans-93"/>
     </defs>
     <g transform="translate(186.988125 301.590125)scale(0.1 -0.1)">
      <use transform="translate(0 0.015625)" xlink:href="#DejaVuSans-66"/>
      <use transform="translate(68.603516 0.015625)" xlink:href="#DejaVuSans-117"/>
      <use transform="translate(131.982422 0.015625)" xlink:href="#DejaVuSans-108"/>
      <use transform="translate(159.765625 0.015625)" xlink:href="#DejaVuSans-103"/>
      <use transform="translate(223.242188 0.015625)" xlink:href="#DejaVuSans-101"/>
      <use transform="translate(284.765625 0.015625)" xlink:href="#DejaVuSans-32"/>
      <use transform="translate(316.552734 0.015625)" xlink:href="#DejaVuSans-109"/>
      <use transform="translate(413.964844 0.015625)" xlink:href="#DejaVuSans-97"/>
      <use transform="translate(475.244141 0.015625)" xlink:href="#DejaVuSans-115"/>
      <use transform="translate(527.34375 0.015625)" xlink:href="#DejaVuSans-115"/>
      <use transform="translate(579.443359 0.015625)" xlink:href="#DejaVuSans-32"/>
      <use transform="translate(611.230469 0.015625)" xlink:href="#DejaVuSans-91"/>
      <use transform="translate(650.244141 0.015625)" xlink:href="#DejaVuSans-108"/>
      <use transform="translate(678.027344 0.015625)" xlink:href="#DejaVuSans-111"/>
      <use transform="translate(739.208984 0.015625)" xlink:href="#DejaVuSans-103"/>
      <use transform="translate(802.685547 0.015625)" xlink:href="#DejaVuSans-44"/>
      <use transform="translate(834.472656 0.015625)" xlink:href="#DejaVuSans-32"/>
      <use transform="translate(866.259766 0.015625)" xlink:href="#DejaVuSans-Oblique-77"/>
      <use transform="translate(966.176758 -16.390625)scale(0.7)" xlink:href="#DejaVuSans-8857"/>
      <use transform="translate(1041.201172 0.015625)" xlink:href="#DejaVuSans-93"/>
     </g>
    </g>
   </g>
   <g id="matplotlib.axis_2">
    <g id="ytick_1">
     <g id="line2d_9">
      <defs>
       <path d="M 0 0 
L -3.5 0 
" id="m896c0bad2e" style="stroke:#000000;stroke-width:0.8;"/>
      </defs>
      <g>
       <use style="stroke:#000000;stroke-width:0.8;" x="62.478125" xlink:href="#m896c0bad2e" y="223.019459"/>
      </g>
     </g>
     <g id="text_10">
      <!-- $\mathdefault{10^{2}}$ -->
      <g transform="translate(37.878125 226.818678)scale(0.1 -0.1)">
       <use transform="translate(0 0.765625)" xlink:href="#DejaVuSans-49"/>
       <use transform="translate(63.623047 0.765625)" xlink:href="#DejaVuSans-48"/>
       <use transform="translate(128.203125 39.046875)scale(0.7)" xlink:href="#DejaVuSans-50"/>
      </g>
     </g>
    </g>
    <g id="ytick_2">
     <g id="line2d_10">
      <defs>
       <path d="M 0 0 
L -2 0 
" id="m8c5a5c6e76" style="stroke:#000000;stroke-width:0.6;"/>
      </defs>
      <g>
       <use style="stroke:#000000;stroke-width:0.6;" x="62.478125" xlink:href="#m8c5a5c6e76" y="267.193967"/>
      </g>
     </g>
    </g>
    <g id="ytick_3">
     <g id="line2d_11">
      <g>
       <use style="stroke:#000000;stroke-width:0.6;" x="62.478125" xlink:href="#m8c5a5c6e76" y="250.655986"/>
      </g>
     </g>
    </g>
    <g id="ytick_4">
     <g id="line2d_12">
      <g>
       <use style="stroke:#000000;stroke-width:0.6;" x="62.478125" xlink:href="#m8c5a5c6e76" y="236.068452"/>
      </g>
     </g>
    </g>
    <g id="ytick_5">
     <g id="line2d_13">
      <g>
       <use style="stroke:#000000;stroke-width:0.6;" x="62.478125" xlink:href="#m8c5a5c6e76" y="137.172568"/>
      </g>
     </g>
     <g id="text_11">
      <!-- $\mathdefault{2\times10^{2}}$ -->
      <defs>
       <path d="M 70.125 53.71875 
L 47.796875 31.296875 
L 70.125 8.984375 
L 64.3125 3.078125 
L 41.890625 25.484375 
L 19.484375 3.078125 
L 13.71875 8.984375 
L 35.984375 31.296875 
L 13.71875 53.71875 
L 19.484375 59.625 
L 41.890625 37.203125 
L 64.3125 59.625 
z
" id="DejaVuSans-215"/>
      </defs>
      <g transform="translate(20.878125 140.971787)scale(0.1 -0.1)">
       <use transform="translate(0 0.765625)" xlink:href="#DejaVuSans-50"/>
       <use transform="translate(83.105469 0.765625)" xlink:href="#DejaVuSans-215"/>
       <use transform="translate(186.376953 0.765625)" xlink:href="#DejaVuSans-49"/>
       <use transform="translate(250 0.765625)" xlink:href="#DejaVuSans-48"/>
       <use transform="translate(314.580078 39.046875)scale(0.7)" xlink:href="#DejaVuSans-50"/>
      </g>
     </g>
    </g>
    <g id="ytick_6">
     <g id="line2d_14">
      <g>
       <use style="stroke:#000000;stroke-width:0.6;" x="62.478125" xlink:href="#m8c5a5c6e76" y="86.955356"/>
      </g>
     </g>
     <g id="text_12">
      <!-- $\mathdefault{3\times10^{2}}$ -->
      <defs>
       <path d="M 40.578125 39.3125 
Q 47.65625 37.796875 51.625 33 
Q 55.609375 28.21875 55.609375 21.1875 
Q 55.609375 10.40625 48.1875 4.484375 
Q 40.765625 -1.421875 27.09375 -1.421875 
Q 22.515625 -1.421875 17.65625 -0.515625 
Q 12.796875 0.390625 7.625 2.203125 
L 7.625 11.71875 
Q 11.71875 9.328125 16.59375 8.109375 
Q 21.484375 6.890625 26.8125 6.890625 
Q 36.078125 6.890625 40.9375 10.546875 
Q 45.796875 14.203125 45.796875 21.1875 
Q 45.796875 27.640625 41.28125 31.265625 
Q 36.765625 34.90625 28.71875 34.90625 
L 20.21875 34.90625 
L 20.21875 43.015625 
L 29.109375 43.015625 
Q 36.375 43.015625 40.234375 45.921875 
Q 44.09375 48.828125 44.09375 54.296875 
Q 44.09375 59.90625 40.109375 62.90625 
Q 36.140625 65.921875 28.71875 65.921875 
Q 24.65625 65.921875 20.015625 65.03125 
Q 15.375 64.15625 9.8125 62.3125 
L 9.8125 71.09375 
Q 15.4375 72.65625 20.34375 73.4375 
Q 25.25 74.21875 29.59375 74.21875 
Q 40.828125 74.21875 47.359375 69.109375 
Q 53.90625 64.015625 53.90625 55.328125 
Q 53.90625 49.265625 50.4375 45.09375 
Q 46.96875 40.921875 40.578125 39.3125 
z
" id="DejaVuSans-51"/>
      </defs>
      <g transform="translate(20.878125 90.754575)scale(0.1 -0.1)">
       <use transform="translate(0 0.765625)" xlink:href="#DejaVuSans-51"/>
       <use transform="translate(83.105469 0.765625)" xlink:href="#DejaVuSans-215"/>
       <use transform="translate(186.376953 0.765625)" xlink:href="#DejaVuSans-49"/>
       <use transform="translate(250 0.765625)" xlink:href="#DejaVuSans-48"/>
       <use transform="translate(314.580078 39.046875)scale(0.7)" xlink:href="#DejaVuSans-50"/>
      </g>
     </g>
    </g>
    <g id="ytick_7">
     <g id="line2d_15">
      <g>
       <use style="stroke:#000000;stroke-width:0.6;" x="62.478125" xlink:href="#m8c5a5c6e76" y="51.325677"/>
      </g>
     </g>
     <g id="text_13">
      <!-- $\mathdefault{4\times10^{2}}$ -->
      <defs>
       <path d="M 37.796875 64.3125 
L 12.890625 25.390625 
L 37.796875 25.390625 
z
M 35.203125 72.90625 
L 47.609375 72.90625 
L 47.609375 25.390625 
L 58.015625 25.390625 
L 58.015625 17.1875 
L 47.609375 17.1875 
L 47.609375 0 
L 37.796875 0 
L 37.796875 17.1875 
L 4.890625 17.1875 
L 4.890625 26.703125 
z
" id="DejaVuSans-52"/>
      </defs>
      <g transform="translate(20.878125 55.124896)scale(0.1 -0.1)">
       <use transform="translate(0 0.765625)" xlink:href="#DejaVuSans-52"/>
       <use transform="translate(83.105469 0.765625)" xlink:href="#DejaVuSans-215"/>
       <use transform="translate(186.376953 0.765625)" xlink:href="#DejaVuSans-49"/>
       <use transform="translate(250 0.765625)" xlink:href="#DejaVuSans-48"/>
       <use transform="translate(314.580078 39.046875)scale(0.7)" xlink:href="#DejaVuSans-50"/>
      </g>
     </g>
    </g>
    <g id="ytick_8">
     <g id="line2d_16">
      <g>
       <use style="stroke:#000000;stroke-width:0.6;" x="62.478125" xlink:href="#m8c5a5c6e76" y="23.689151"/>
      </g>
     </g>
    </g>
    <g id="text_14">
     <!-- Velocity dispersion [log, km/s] -->
     <defs>
      <path d="M 28.609375 0 
L 0.78125 72.90625 
L 11.078125 72.90625 
L 34.1875 11.53125 
L 57.328125 72.90625 
L 67.578125 72.90625 
L 39.796875 0 
z
" id="DejaVuSans-86"/>
      <path d="M 48.78125 52.59375 
L 48.78125 44.1875 
Q 44.96875 46.296875 41.140625 47.34375 
Q 37.3125 48.390625 33.40625 48.390625 
Q 24.65625 48.390625 19.8125 42.84375 
Q 14.984375 37.3125 14.984375 27.296875 
Q 14.984375 17.28125 19.8125 11.734375 
Q 24.65625 6.203125 33.40625 6.203125 
Q 37.3125 6.203125 41.140625 7.25 
Q 44.96875 8.296875 48.78125 10.40625 
L 48.78125 2.09375 
Q 45.015625 0.34375 40.984375 -0.53125 
Q 36.96875 -1.421875 32.421875 -1.421875 
Q 20.0625 -1.421875 12.78125 6.34375 
Q 5.515625 14.109375 5.515625 27.296875 
Q 5.515625 40.671875 12.859375 48.328125 
Q 20.21875 56 33.015625 56 
Q 37.15625 56 41.109375 55.140625 
Q 45.0625 54.296875 48.78125 52.59375 
z
" id="DejaVuSans-99"/>
      <path d="M 9.421875 54.6875 
L 18.40625 54.6875 
L 18.40625 0 
L 9.421875 0 
z
M 9.421875 75.984375 
L 18.40625 75.984375 
L 18.40625 64.59375 
L 9.421875 64.59375 
z
" id="DejaVuSans-105"/>
      <path d="M 18.3125 70.21875 
L 18.3125 54.6875 
L 36.8125 54.6875 
L 36.8125 47.703125 
L 18.3125 47.703125 
L 18.3125 18.015625 
Q 18.3125 11.328125 20.140625 9.421875 
Q 21.96875 7.515625 27.59375 7.515625 
L 36.8125 7.515625 
L 36.8125 0 
L 27.59375 0 
Q 17.1875 0 13.234375 3.875 
Q 9.28125 7.765625 9.28125 18.015625 
L 9.28125 47.703125 
L 2.6875 47.703125 
L 2.6875 54.6875 
L 9.28125 54.6875 
L 9.28125 70.21875 
z
" id="DejaVuSans-116"/>
      <path d="M 32.171875 -5.078125 
Q 28.375 -14.84375 24.75 -17.8125 
Q 21.140625 -20.796875 15.09375 -20.796875 
L 7.90625 -20.796875 
L 7.90625 -13.28125 
L 13.1875 -13.28125 
Q 16.890625 -13.28125 18.9375 -11.515625 
Q 21 -9.765625 23.484375 -3.21875 
L 25.09375 0.875 
L 2.984375 54.6875 
L 12.5 54.6875 
L 29.59375 11.921875 
L 46.6875 54.6875 
L 56.203125 54.6875 
z
" id="DejaVuSans-121"/>
      <path d="M 45.40625 46.390625 
L 45.40625 75.984375 
L 54.390625 75.984375 
L 54.390625 0 
L 45.40625 0 
L 45.40625 8.203125 
Q 42.578125 3.328125 38.25 0.953125 
Q 33.9375 -1.421875 27.875 -1.421875 
Q 17.96875 -1.421875 11.734375 6.484375 
Q 5.515625 14.40625 5.515625 27.296875 
Q 5.515625 40.1875 11.734375 48.09375 
Q 17.96875 56 27.875 56 
Q 33.9375 56 38.25 53.625 
Q 42.578125 51.265625 45.40625 46.390625 
z
M 14.796875 27.296875 
Q 14.796875 17.390625 18.875 11.75 
Q 22.953125 6.109375 30.078125 6.109375 
Q 37.203125 6.109375 41.296875 11.75 
Q 45.40625 17.390625 45.40625 27.296875 
Q 45.40625 37.203125 41.296875 42.84375 
Q 37.203125 48.484375 30.078125 48.484375 
Q 22.953125 48.484375 18.875 42.84375 
Q 14.796875 37.203125 14.796875 27.296875 
z
" id="DejaVuSans-100"/>
      <path d="M 18.109375 8.203125 
L 18.109375 -20.796875 
L 9.078125 -20.796875 
L 9.078125 54.6875 
L 18.109375 54.6875 
L 18.109375 46.390625 
Q 20.953125 51.265625 25.265625 53.625 
Q 29.59375 56 35.59375 56 
Q 45.5625 56 51.78125 48.09375 
Q 58.015625 40.1875 58.015625 27.296875 
Q 58.015625 14.40625 51.78125 6.484375 
Q 45.5625 -1.421875 35.59375 -1.421875 
Q 29.59375 -1.421875 25.265625 0.953125 
Q 20.953125 3.328125 18.109375 8.203125 
z
M 48.6875 27.296875 
Q 48.6875 37.203125 44.609375 42.84375 
Q 40.53125 48.484375 33.40625 48.484375 
Q 26.265625 48.484375 22.1875 42.84375 
Q 18.109375 37.203125 18.109375 27.296875 
Q 18.109375 17.390625 22.1875 11.75 
Q 26.265625 6.109375 33.40625 6.109375 
Q 40.53125 6.109375 44.609375 11.75 
Q 48.6875 17.390625 48.6875 27.296875 
z
" id="DejaVuSans-112"/>
      <path d="M 41.109375 46.296875 
Q 39.59375 47.171875 37.8125 47.578125 
Q 36.03125 48 33.890625 48 
Q 26.265625 48 22.1875 43.046875 
Q 18.109375 38.09375 18.109375 28.8125 
L 18.109375 0 
L 9.078125 0 
L 9.078125 54.6875 
L 18.109375 54.6875 
L 18.109375 46.1875 
Q 20.953125 51.171875 25.484375 53.578125 
Q 30.03125 56 36.53125 56 
Q 37.453125 56 38.578125 55.875 
Q 39.703125 55.765625 41.0625 55.515625 
z
" id="DejaVuSans-114"/>
      <path d="M 54.890625 33.015625 
L 54.890625 0 
L 45.90625 0 
L 45.90625 32.71875 
Q 45.90625 40.484375 42.875 44.328125 
Q 39.84375 48.1875 33.796875 48.1875 
Q 26.515625 48.1875 22.3125 43.546875 
Q 18.109375 38.921875 18.109375 30.90625 
L 18.109375 0 
L 9.078125 0 
L 9.078125 54.6875 
L 18.109375 54.6875 
L 18.109375 46.1875 
Q 21.34375 51.125 25.703125 53.5625 
Q 30.078125 56 35.796875 56 
Q 45.21875 56 50.046875 50.171875 
Q 54.890625 44.34375 54.890625 33.015625 
z
" id="DejaVuSans-110"/>
      <path d="M 9.078125 75.984375 
L 18.109375 75.984375 
L 18.109375 31.109375 
L 44.921875 54.6875 
L 56.390625 54.6875 
L 27.390625 29.109375 
L 57.625 0 
L 45.90625 0 
L 18.109375 26.703125 
L 18.109375 0 
L 9.078125 0 
z
" id="DejaVuSans-107"/>
      <path d="M 25.390625 72.90625 
L 33.6875 72.90625 
L 8.296875 -9.28125 
L 0 -9.28125 
z
" id="DejaVuSans-47"/>
     </defs>
     <g transform="translate(14.798437 215.884906)rotate(-90)scale(0.1 -0.1)">
      <use xlink:href="#DejaVuSans-86"/>
      <use x="68.298828" xlink:href="#DejaVuSans-101"/>
      <use x="129.822266" xlink:href="#DejaVuSans-108"/>
      <use x="157.605469" xlink:href="#DejaVuSans-111"/>
      <use x="218.787109" xlink:href="#DejaVuSans-99"/>
      <use x="273.767578" xlink:href="#DejaVuSans-105"/>
      <use x="301.550781" xlink:href="#DejaVuSans-116"/>
      <use x="340.759766" xlink:href="#DejaVuSans-121"/>
      <use x="399.939453" xlink:href="#DejaVuSans-32"/>
      <use x="431.726562" xlink:href="#DejaVuSans-100"/>
      <use x="495.203125" xlink:href="#DejaVuSans-105"/>
      <use x="522.986328" xlink:href="#DejaVuSans-115"/>
      <use x="575.085938" xlink:href="#DejaVuSans-112"/>
      <use x="638.5625" xlink:href="#DejaVuSans-101"/>
      <use x="700.085938" xlink:href="#DejaVuSans-114"/>
      <use x="741.199219" xlink:href="#DejaVuSans-115"/>
      <use x="793.298828" xlink:href="#DejaVuSans-105"/>
      <use x="821.082031" xlink:href="#DejaVuSans-111"/>
      <use x="882.263672" xlink:href="#DejaVuSans-110"/>
      <use x="945.642578" xlink:href="#DejaVuSans-32"/>
      <use x="977.429688" xlink:href="#DejaVuSans-91"/>
      <use x="1016.443359" xlink:href="#DejaVuSans-108"/>
      <use x="1044.226562" xlink:href="#DejaVuSans-111"/>
      <use x="1105.408203" xlink:href="#DejaVuSans-103"/>
      <use x="1168.884766" xlink:href="#DejaVuSans-44"/>
      <use x="1200.671875" xlink:href="#DejaVuSans-32"/>
      <use x="1232.458984" xlink:href="#DejaVuSans-107"/>
      <use x="1290.369141" xlink:href="#DejaVuSans-109"/>
      <use x="1387.78125" xlink:href="#DejaVuSans-47"/>
      <use x="1421.472656" xlink:href="#DejaVuSans-115"/>
      <use x="1473.572266" xlink:href="#DejaVuSans-93"/>
     </g>
    </g>
   </g>
   <g id="LineCollection_1">
    <path clip-path="url(#p98ecfe6856)" d="M 78.710852 255.389717 
L 97.001249 255.389717 
" style="fill:none;stroke:#ffa500;stroke-width:1.5;"/>
    <path clip-path="url(#p98ecfe6856)" d="M 334.776409 122.035806 
L 351.237766 122.035806 
" style="fill:none;stroke:#ffa500;stroke-width:1.5;"/>
    <path clip-path="url(#p98ecfe6856)" d="M 282.648778 75.904001 
L 299.110135 75.904001 
" style="fill:none;stroke:#ffa500;stroke-width:1.5;"/>
    <path clip-path="url(#p98ecfe6856)" d="M 225.948548 159.5058 
L 242.409905 159.5058 
" style="fill:none;stroke:#ffa500;stroke-width:1.5;"/>
    <path clip-path="url(#p98ecfe6856)" d="M 303.682734 80.912651 
L 320.144092 80.912651 
" style="fill:none;stroke:#ffa500;stroke-width:1.5;"/>
    <path clip-path="url(#p98ecfe6856)" d="M 325.631211 97.282242 
L 342.092568 97.282242 
" style="fill:none;stroke:#ffa500;stroke-width:1.5;"/>
    <path clip-path="url(#p98ecfe6856)" d="M 288.135897 100.004349 
L 304.597254 100.004349 
" style="fill:none;stroke:#ffa500;stroke-width:1.5;"/>
    <path clip-path="url(#p98ecfe6856)" d="M 190.282274 153.710549 
L 206.743631 153.710549 
" style="fill:none;stroke:#ffa500;stroke-width:1.5;"/>
    <path clip-path="url(#p98ecfe6856)" d="M 263.443861 160.249651 
L 279.905218 160.249651 
" style="fill:none;stroke:#ffa500;stroke-width:1.5;"/>
    <path clip-path="url(#p98ecfe6856)" d="M 313.742453 88.200099 
L 330.20381 88.200099 
" style="fill:none;stroke:#ffa500;stroke-width:1.5;"/>
    <path clip-path="url(#p98ecfe6856)" d="M 212.23075 177.000985 
L 228.692107 177.000985 
" style="fill:none;stroke:#ffa500;stroke-width:1.5;"/>
    <path clip-path="url(#p98ecfe6856)" d="M 249.726064 133.511685 
L 266.187421 133.511685 
" style="fill:none;stroke:#ffa500;stroke-width:1.5;"/>
    <path clip-path="url(#p98ecfe6856)" d="M 281.734258 120.402584 
L 298.195615 120.402584 
" style="fill:none;stroke:#ffa500;stroke-width:1.5;"/>
    <path clip-path="url(#p98ecfe6856)" d="M 258.871262 148.853029 
L 275.332619 148.853029 
" style="fill:none;stroke:#ffa500;stroke-width:1.5;"/>
    <path clip-path="url(#p98ecfe6856)" d="M 328.37477 100.004349 
L 344.836128 100.004349 
" style="fill:none;stroke:#ffa500;stroke-width:1.5;"/>
    <path clip-path="url(#p98ecfe6856)" d="M 317.400532 80.912651 
L 333.861889 80.912651 
" style="fill:none;stroke:#ffa500;stroke-width:1.5;"/>
    <path clip-path="url(#p98ecfe6856)" d="M 244.238944 113.564068 
L 260.700302 113.564068 
" style="fill:none;stroke:#ffa500;stroke-width:1.5;"/>
    <path clip-path="url(#p98ecfe6856)" d="M 314.656973 88.617809 
L 331.11833 88.617809 
" style="fill:none;stroke:#ffa500;stroke-width:1.5;"/>
    <path clip-path="url(#p98ecfe6856)" d="M 304.597254 148.853029 
L 321.058612 148.853029 
" style="fill:none;stroke:#ffa500;stroke-width:1.5;"/>
    <path clip-path="url(#p98ecfe6856)" d="M 246.982504 159.5058 
L 263.443861 159.5058 
" style="fill:none;stroke:#ffa500;stroke-width:1.5;"/>
    <path clip-path="url(#p98ecfe6856)" d="M 334.776409 86.955356 
L 351.237766 86.955356 
" style="fill:none;stroke:#ffa500;stroke-width:1.5;"/>
    <path clip-path="url(#p98ecfe6856)" d="M 244.238944 143.525288 
L 260.700302 143.525288 
" style="fill:none;stroke:#ffa500;stroke-width:1.5;"/>
    <path clip-path="url(#p98ecfe6856)" d="M 323.802171 77.423663 
L 340.263528 77.423663 
" style="fill:none;stroke:#ffa500;stroke-width:1.5;"/>
    <path clip-path="url(#p98ecfe6856)" d="M 132.667523 146.828174 
L 150.95792 146.828174 
" style="fill:none;stroke:#ffa500;stroke-width:1.5;"/>
    <path clip-path="url(#p98ecfe6856)" d="M 316.486012 57.678397 
L 332.94737 57.678397 
" style="fill:none;stroke:#ffa500;stroke-width:1.5;"/>
    <path clip-path="url(#p98ecfe6856)" d="M 255.213183 152.303138 
L 271.67454 152.303138 
" style="fill:none;stroke:#ffa500;stroke-width:1.5;"/>
    <path clip-path="url(#p98ecfe6856)" d="M 272.58906 66.106879 
L 289.050417 66.106879 
" style="fill:none;stroke:#ffa500;stroke-width:1.5;"/>
    <path clip-path="url(#p98ecfe6856)" d="M 357.639405 68.929813 
L 374.100763 68.929813 
" style="fill:none;stroke:#ffa500;stroke-width:1.5;"/>
    <path clip-path="url(#p98ecfe6856)" d="M 283.563298 124.247488 
L 300.024655 124.247488 
" style="fill:none;stroke:#ffa500;stroke-width:1.5;"/>
    <path clip-path="url(#p98ecfe6856)" d="M 262.529341 172.802247 
L 278.990699 172.802247 
" style="fill:none;stroke:#ffa500;stroke-width:1.5;"/>
    <path clip-path="url(#p98ecfe6856)" d="M 317.400532 74.030276 
L 333.861889 74.030276 
" style="fill:none;stroke:#ffa500;stroke-width:1.5;"/>
    <path clip-path="url(#p98ecfe6856)" d="M 312.827933 75.904001 
L 329.28929 75.904001 
" style="fill:none;stroke:#ffa500;stroke-width:1.5;"/>
    <path clip-path="url(#p98ecfe6856)" d="M 257.956742 148.174393 
L 274.418099 148.174393 
" style="fill:none;stroke:#ffa500;stroke-width:1.5;"/>
    <path clip-path="url(#p98ecfe6856)" d="M 218.632389 115.109006 
L 235.093746 115.109006 
" style="fill:none;stroke:#ffa500;stroke-width:1.5;"/>
    <path clip-path="url(#p98ecfe6856)" d="M 321.058612 79.7387 
L 337.519969 79.7387 
" style="fill:none;stroke:#ffa500;stroke-width:1.5;"/>
    <path clip-path="url(#p98ecfe6856)" d="M 280.819738 54.779284 
L 297.281096 54.779284 
" style="fill:none;stroke:#ffa500;stroke-width:1.5;"/>
    <path clip-path="url(#p98ecfe6856)" d="M 312.827933 101.852904 
L 331.11833 101.852904 
" style="fill:none;stroke:#ffa500;stroke-width:1.5;"/>
    <path clip-path="url(#p98ecfe6856)" d="M 317.400532 90.302881 
L 333.861889 90.302881 
" style="fill:none;stroke:#ffa500;stroke-width:1.5;"/>
    <path clip-path="url(#p98ecfe6856)" d="M 326.545731 106.115879 
L 343.007088 106.115879 
" style="fill:none;stroke:#ffa500;stroke-width:1.5;"/>
    <path clip-path="url(#p98ecfe6856)" d="M 312.827933 74.776368 
L 329.28929 74.776368 
" style="fill:none;stroke:#ffa500;stroke-width:1.5;"/>
    <path clip-path="url(#p98ecfe6856)" d="M 331.11833 92.011196 
L 349.408727 92.011196 
" style="fill:none;stroke:#ffa500;stroke-width:1.5;"/>
    <path clip-path="url(#p98ecfe6856)" d="M 329.28929 78.190544 
L 345.750647 78.190544 
" style="fill:none;stroke:#ffa500;stroke-width:1.5;"/>
   </g>
   <g id="LineCollection_2">
    <path clip-path="url(#p98ecfe6856)" d="M 87.856051 260.311591 
L 87.856051 250.655986 
" style="fill:none;stroke:#ffa500;stroke-width:1.5;"/>
    <path clip-path="url(#p98ecfe6856)" d="M 343.007088 127.068815 
L 343.007088 117.199366 
" style="fill:none;stroke:#ffa500;stroke-width:1.5;"/>
    <path clip-path="url(#p98ecfe6856)" d="M 290.879457 79.349843 
L 290.879457 72.551442 
" style="fill:none;stroke:#ffa500;stroke-width:1.5;"/>
    <path clip-path="url(#p98ecfe6856)" d="M 234.179226 161.750893 
L 234.179226 157.300681 
" style="fill:none;stroke:#ffa500;stroke-width:1.5;"/>
    <path clip-path="url(#p98ecfe6856)" d="M 311.913413 82.097836 
L 311.913413 79.7387 
" style="fill:none;stroke:#ffa500;stroke-width:1.5;"/>
    <path clip-path="url(#p98ecfe6856)" d="M 333.861889 98.18298 
L 333.861889 96.388008 
" style="fill:none;stroke:#ffa500;stroke-width:1.5;"/>
    <path clip-path="url(#p98ecfe6856)" d="M 296.366576 104.678522 
L 296.366576 95.500184 
" style="fill:none;stroke:#ffa500;stroke-width:1.5;"/>
    <path clip-path="url(#p98ecfe6856)" d="M 198.512952 159.5058 
L 198.512952 148.174393 
" style="fill:none;stroke:#ffa500;stroke-width:1.5;"/>
    <path clip-path="url(#p98ecfe6856)" d="M 271.67454 172.802247 
L 271.67454 148.853029 
" style="fill:none;stroke:#ffa500;stroke-width:1.5;"/>
    <path clip-path="url(#p98ecfe6856)" d="M 321.973131 93.308076 
L 321.973131 83.294472 
" style="fill:none;stroke:#ffa500;stroke-width:1.5;"/>
    <path clip-path="url(#p98ecfe6856)" d="M 220.461428 183.129133 
L 220.461428 171.161814 
" style="fill:none;stroke:#ffa500;stroke-width:1.5;"/>
    <path clip-path="url(#p98ecfe6856)" d="M 257.956742 139.674692 
L 257.956742 127.640875 
" style="fill:none;stroke:#ffa500;stroke-width:1.5;"/>
    <path clip-path="url(#p98ecfe6856)" d="M 289.964937 126.499384 
L 289.964937 114.591882 
" style="fill:none;stroke:#ffa500;stroke-width:1.5;"/>
    <path clip-path="url(#p98ecfe6856)" d="M 267.101941 155.134138 
L 267.101941 142.875151 
" style="fill:none;stroke:#ffa500;stroke-width:1.5;"/>
    <path clip-path="url(#p98ecfe6856)" d="M 336.605449 113.053342 
L 336.605449 88.200099 
" style="fill:none;stroke:#ffa500;stroke-width:1.5;"/>
    <path clip-path="url(#p98ecfe6856)" d="M 325.631211 86.955356 
L 325.631211 75.151106 
" style="fill:none;stroke:#ffa500;stroke-width:1.5;"/>
    <path clip-path="url(#p98ecfe6856)" d="M 252.469623 119.862928 
L 252.469623 107.570114 
" style="fill:none;stroke:#ffa500;stroke-width:1.5;"/>
    <path clip-path="url(#p98ecfe6856)" d="M 322.887651 94.61868 
L 322.887651 82.894308 
" style="fill:none;stroke:#ffa500;stroke-width:1.5;"/>
    <path clip-path="url(#p98ecfe6856)" d="M 312.827933 152.303138 
L 312.827933 145.496431 
" style="fill:none;stroke:#ffa500;stroke-width:1.5;"/>
    <path clip-path="url(#p98ecfe6856)" d="M 255.213183 165.585592 
L 255.213183 153.710549 
" style="fill:none;stroke:#ffa500;stroke-width:1.5;"/>
    <path clip-path="url(#p98ecfe6856)" d="M 343.007088 89.879459 
L 343.007088 84.098702 
" style="fill:none;stroke:#ffa500;stroke-width:1.5;"/>
    <path clip-path="url(#p98ecfe6856)" d="M 252.469623 149.535405 
L 252.469623 137.793376 
" style="fill:none;stroke:#ffa500;stroke-width:1.5;"/>
    <path clip-path="url(#p98ecfe6856)" d="M 332.03285 88.617809 
L 332.03285 67.157953 
" style="fill:none;stroke:#ffa500;stroke-width:1.5;"/>
    <path clip-path="url(#p98ecfe6856)" d="M 141.812722 153.004844 
L 141.812722 140.944968 
" style="fill:none;stroke:#ffa500;stroke-width:1.5;"/>
    <path clip-path="url(#p98ecfe6856)" d="M 324.716691 64.031117 
L 324.716691 51.635692 
" style="fill:none;stroke:#ffa500;stroke-width:1.5;"/>
    <path clip-path="url(#p98ecfe6856)" d="M 263.443861 158.031367 
L 263.443861 146.828174 
" style="fill:none;stroke:#ffa500;stroke-width:1.5;"/>
    <path clip-path="url(#p98ecfe6856)" d="M 280.819738 71.090058 
L 280.819738 61.316468 
" style="fill:none;stroke:#ffa500;stroke-width:1.5;"/>
    <path clip-path="url(#p98ecfe6856)" d="M 365.870084 70.72739 
L 365.870084 67.157953 
" style="fill:none;stroke:#ffa500;stroke-width:1.5;"/>
    <path clip-path="url(#p98ecfe6856)" d="M 291.793976 130.541497 
L 291.793976 118.257927 
" style="fill:none;stroke:#ffa500;stroke-width:1.5;"/>
    <path clip-path="url(#p98ecfe6856)" d="M 270.76002 178.721163 
L 270.76002 167.153345 
" style="fill:none;stroke:#ffa500;stroke-width:1.5;"/>
    <path clip-path="url(#p98ecfe6856)" d="M 325.631211 74.776368 
L 325.631211 73.288652 
" style="fill:none;stroke:#ffa500;stroke-width:1.5;"/>
    <path clip-path="url(#p98ecfe6856)" d="M 321.058612 80.128782 
L 321.058612 71.818594 
" style="fill:none;stroke:#ffa500;stroke-width:1.5;"/>
    <path clip-path="url(#p98ecfe6856)" d="M 266.187421 154.420299 
L 266.187421 142.228408 
" style="fill:none;stroke:#ffa500;stroke-width:1.5;"/>
    <path clip-path="url(#p98ecfe6856)" d="M 226.863067 120.944602 
L 226.863067 109.536042 
" style="fill:none;stroke:#ffa500;stroke-width:1.5;"/>
    <path clip-path="url(#p98ecfe6856)" d="M 329.28929 80.520097 
L 329.28929 78.962203 
" style="fill:none;stroke:#ffa500;stroke-width:1.5;"/>
    <path clip-path="url(#p98ecfe6856)" d="M 289.050417 55.738135 
L 289.050417 53.8278 
" style="fill:none;stroke:#ffa500;stroke-width:1.5;"/>
    <path clip-path="url(#p98ecfe6856)" d="M 321.973131 108.058678 
L 321.973131 95.943301 
" style="fill:none;stroke:#ffa500;stroke-width:1.5;"/>
    <path clip-path="url(#p98ecfe6856)" d="M 325.631211 92.441982 
L 325.631211 88.200099 
" style="fill:none;stroke:#ffa500;stroke-width:1.5;"/>
    <path clip-path="url(#p98ecfe6856)" d="M 334.776409 119.325613 
L 334.776409 94.180269 
" style="fill:none;stroke:#ffa500;stroke-width:1.5;"/>
    <path clip-path="url(#p98ecfe6856)" d="M 321.058612 76.661502 
L 321.058612 72.919498 
" style="fill:none;stroke:#ffa500;stroke-width:1.5;"/>
    <path clip-path="url(#p98ecfe6856)" d="M 340.263528 98.18298 
L 340.263528 86.132424 
" style="fill:none;stroke:#ffa500;stroke-width:1.5;"/>
    <path clip-path="url(#p98ecfe6856)" d="M 337.519969 84.502783 
L 337.519969 72.184476 
" style="fill:none;stroke:#ffa500;stroke-width:1.5;"/>
   </g>
   <g id="line2d_17">
    <path clip-path="url(#p98ecfe6856)" d="M 83.283452 233.048831 
L 154.680176 191.332979 
L 195.592906 168.168439 
L 210.032693 160.357277 
L 213.241535 158.491538 
L 221.263639 153.836405 
L 233.296795 146.963363 
L 240.516688 142.750153 
L 255.758686 133.224569 
L 266.989631 126.337047 
L 270.198473 124.467128 
L 279.022787 119.517213 
L 286.242681 115.868086 
L 287.847101 114.992042 
L 295.066995 110.262881 
L 301.484678 106.501451 
L 307.100151 103.153053 
L 312.715623 99.90675 
L 319.133307 95.743532 
L 325.55099 92.009478 
L 327.957621 90.66826 
L 335.177514 86.389947 
L 340.792987 82.932533 
L 352.023933 76.376125 
L 366.46372 68.011881 
L 399.354346 50.081212 
L 403.365398 47.837222 
L 403.365398 47.837222 
" style="fill:none;stroke:#000000;stroke-linecap:square;stroke-width:1.5;"/>
   </g>
   <g id="line2d_18">
    <path clip-path="url(#p98ecfe6856)" d="M 83.283452 261.216 
L 102.536501 250.313671 
L 119.382919 240.391959 
L 138.635969 229.161888 
L 148.262493 223.536092 
L 177.944278 205.803522 
L 191.581854 198.273557 
L 206.823852 188.935271 
L 219.659218 181.974081 
L 227.681322 177.241865 
L 233.296795 173.691511 
L 242.923319 167.491915 
L 262.978579 155.409702 
L 269.396262 151.096268 
L 273.407314 148.580234 
L 277.418366 146.222732 
L 286.242681 141.914777 
L 289.451522 139.925821 
L 299.078047 133.611394 
L 304.69352 130.390267 
L 311.913413 125.848627 
L 315.122255 123.892058 
L 322.342148 119.236363 
L 356.034985 98.939074 
L 364.859299 93.861713 
L 378.496876 86.461259 
L 385.716769 82.285396 
L 397.749925 74.987321 
L 403.365398 71.870397 
L 403.365398 71.870397 
" style="fill:none;stroke:#ff0000;stroke-dasharray:5.55,2.4;stroke-dashoffset:0;stroke-width:1.5;"/>
   </g>
   <g id="line2d_19">
    <path clip-path="url(#p98ecfe6856)" d="M 83.283452 207.997646 
L 168.317753 159.895924 
L 193.988486 143.90361 
L 216.450376 131.863883 
L 224.47248 127.2841 
L 236.505636 119.512346 
L 243.72553 114.936307 
L 255.758686 107.640393 
L 268.594052 99.345428 
L 279.022787 92.745089 
L 284.63826 90.051236 
L 289.451522 87.643926 
L 294.264784 84.914459 
L 300.682468 81.121191 
L 311.111203 74.560724 
L 314.320044 72.49944 
L 319.133307 69.314464 
L 324.748779 65.695285 
L 330.364252 62.209825 
L 333.573094 60.288035 
L 338.386356 57.142823 
L 344.001829 54.014195 
L 352.023933 48.92173 
L 357.639405 45.63064 
L 371.276982 37.973777 
L 396.947715 22.964393 
L 403.365398 19.296 
L 403.365398 19.296 
" style="fill:none;stroke:#ff0000;stroke-dasharray:5.55,2.4;stroke-dashoffset:0;stroke-width:1.5;"/>
   </g>
   <g id="line2d_20">
    <defs>
     <path d="M 0 3 
C 0.795609 3 1.55874 2.683901 2.12132 2.12132 
C 2.683901 1.55874 3 0.795609 3 0 
C 3 -0.795609 2.683901 -1.55874 2.12132 -2.12132 
C 1.55874 -2.683901 0.795609 -3 0 -3 
C -0.795609 -3 -1.55874 -2.683901 -2.12132 -2.12132 
C -2.683901 -1.55874 -3 -0.795609 -3 0 
C -3 0.795609 -2.683901 1.55874 -2.12132 2.12132 
C -1.55874 2.683901 -0.795609 3 0 3 
z
" id="maf82db1342" style="stroke:#ffa500;"/>
    </defs>
    <g clip-path="url(#p98ecfe6856)">
     <use style="fill:#ffa500;stroke:#ffa500;" x="87.856051" xlink:href="#maf82db1342" y="255.389717"/>
     <use style="fill:#ffa500;stroke:#ffa500;" x="343.007088" xlink:href="#maf82db1342" y="122.035806"/>
     <use style="fill:#ffa500;stroke:#ffa500;" x="290.879457" xlink:href="#maf82db1342" y="75.904001"/>
     <use style="fill:#ffa500;stroke:#ffa500;" x="234.179226" xlink:href="#maf82db1342" y="159.5058"/>
     <use style="fill:#ffa500;stroke:#ffa500;" x="311.913413" xlink:href="#maf82db1342" y="80.912651"/>
     <use style="fill:#ffa500;stroke:#ffa500;" x="333.861889" xlink:href="#maf82db1342" y="97.282242"/>
     <use style="fill:#ffa500;stroke:#ffa500;" x="296.366576" xlink:href="#maf82db1342" y="100.004349"/>
     <use style="fill:#ffa500;stroke:#ffa500;" x="198.512952" xlink:href="#maf82db1342" y="153.710549"/>
     <use style="fill:#ffa500;stroke:#ffa500;" x="271.67454" xlink:href="#maf82db1342" y="160.249651"/>
     <use style="fill:#ffa500;stroke:#ffa500;" x="321.973131" xlink:href="#maf82db1342" y="88.200099"/>
     <use style="fill:#ffa500;stroke:#ffa500;" x="220.461428" xlink:href="#maf82db1342" y="177.000985"/>
     <use style="fill:#ffa500;stroke:#ffa500;" x="257.956742" xlink:href="#maf82db1342" y="133.511685"/>
     <use style="fill:#ffa500;stroke:#ffa500;" x="289.964937" xlink:href="#maf82db1342" y="120.402584"/>
     <use style="fill:#ffa500;stroke:#ffa500;" x="267.101941" xlink:href="#maf82db1342" y="148.853029"/>
     <use style="fill:#ffa500;stroke:#ffa500;" x="336.605449" xlink:href="#maf82db1342" y="100.004349"/>
     <use style="fill:#ffa500;stroke:#ffa500;" x="325.631211" xlink:href="#maf82db1342" y="80.912651"/>
     <use style="fill:#ffa500;stroke:#ffa500;" x="252.469623" xlink:href="#maf82db1342" y="113.564068"/>
     <use style="fill:#ffa500;stroke:#ffa500;" x="322.887651" xlink:href="#maf82db1342" y="88.617809"/>
     <use style="fill:#ffa500;stroke:#ffa500;" x="312.827933" xlink:href="#maf82db1342" y="148.853029"/>
     <use style="fill:#ffa500;stroke:#ffa500;" x="255.213183" xlink:href="#maf82db1342" y="159.5058"/>
     <use style="fill:#ffa500;stroke:#ffa500;" x="343.007088" xlink:href="#maf82db1342" y="86.955356"/>
     <use style="fill:#ffa500;stroke:#ffa500;" x="252.469623" xlink:href="#maf82db1342" y="143.525288"/>
     <use style="fill:#ffa500;stroke:#ffa500;" x="332.03285" xlink:href="#maf82db1342" y="77.423663"/>
     <use style="fill:#ffa500;stroke:#ffa500;" x="141.812722" xlink:href="#maf82db1342" y="146.828174"/>
     <use style="fill:#ffa500;stroke:#ffa500;" x="324.716691" xlink:href="#maf82db1342" y="57.678397"/>
     <use style="fill:#ffa500;stroke:#ffa500;" x="263.443861" xlink:href="#maf82db1342" y="152.303138"/>
     <use style="fill:#ffa500;stroke:#ffa500;" x="280.819738" xlink:href="#maf82db1342" y="66.106879"/>
     <use style="fill:#ffa500;stroke:#ffa500;" x="365.870084" xlink:href="#maf82db1342" y="68.929813"/>
     <use style="fill:#ffa500;stroke:#ffa500;" x="291.793976" xlink:href="#maf82db1342" y="124.247488"/>
     <use style="fill:#ffa500;stroke:#ffa500;" x="270.76002" xlink:href="#maf82db1342" y="172.802247"/>
     <use style="fill:#ffa500;stroke:#ffa500;" x="325.631211" xlink:href="#maf82db1342" y="74.030276"/>
     <use style="fill:#ffa500;stroke:#ffa500;" x="321.058612" xlink:href="#maf82db1342" y="75.904001"/>
     <use style="fill:#ffa500;stroke:#ffa500;" x="266.187421" xlink:href="#maf82db1342" y="148.174393"/>
     <use style="fill:#ffa500;stroke:#ffa500;" x="226.863067" xlink:href="#maf82db1342" y="115.109006"/>
     <use style="fill:#ffa500;stroke:#ffa500;" x="329.28929" xlink:href="#maf82db1342" y="79.7387"/>
     <use style="fill:#ffa500;stroke:#ffa500;" x="289.050417" xlink:href="#maf82db1342" y="54.779284"/>
     <use style="fill:#ffa500;stroke:#ffa500;" x="321.973131" xlink:href="#maf82db1342" y="101.852904"/>
     <use style="fill:#ffa500;stroke:#ffa500;" x="325.631211" xlink:href="#maf82db1342" y="90.302881"/>
     <use style="fill:#ffa500;stroke:#ffa500;" x="334.776409" xlink:href="#maf82db1342" y="106.115879"/>
     <use style="fill:#ffa500;stroke:#ffa500;" x="321.058612" xlink:href="#maf82db1342" y="74.776368"/>
     <use style="fill:#ffa500;stroke:#ffa500;" x="340.263528" xlink:href="#maf82db1342" y="92.011196"/>
     <use style="fill:#ffa500;stroke:#ffa500;" x="337.519969" xlink:href="#maf82db1342" y="78.190544"/>
    </g>
   </g>
   <g id="patch_3">
    <path d="M 62.478125 273.312 
L 62.478125 7.2 
" style="fill:none;stroke:#000000;stroke-linecap:square;stroke-linejoin:miter;stroke-width:0.8;"/>
   </g>
   <g id="patch_4">
    <path d="M 419.598125 273.312 
L 419.598125 7.2 
" style="fill:none;stroke:#000000;stroke-linecap:square;stroke-linejoin:miter;stroke-width:0.8;"/>
   </g>
   <g id="patch_5">
    <path d="M 62.478125 273.312 
L 419.598125 273.312 
" style="fill:none;stroke:#000000;stroke-linecap:square;stroke-linejoin:miter;stroke-width:0.8;"/>
   </g>
   <g id="patch_6">
    <path d="M 62.478125 7.2 
L 419.598125 7.2 
" style="fill:none;stroke:#000000;stroke-linecap:square;stroke-linejoin:miter;stroke-width:0.8;"/>
   </g>
  </g>
 </g>
 <defs>
  <clipPath id="p98ecfe6856">
   <rect height="266.112" width="357.12" x="62.478125" y="7.2"/>
  </clipPath>
 </defs>
</svg>
