<?xml version="1.0" encoding="utf-8" standalone="no"?>
<!DOCTYPE svg PUBLIC "-//W3C//DTD SVG 1.1//EN"
  "http://www.w3.org/Graphics/SVG/1.1/DTD/svg11.dtd">
<!-- Created with matplotlib (https://matplotlib.org/) -->
<svg height="310.86825pt" version="1.1" viewBox="0 0 391.245 310.86825" width="391.245pt" xmlns="http://www.w3.org/2000/svg" xmlns:xlink="http://www.w3.org/1999/xlink">
 <defs>
  <style type="text/css">
*{stroke-linecap:butt;stroke-linejoin:round;}
  </style>
 </defs>
 <g id="figure_1">
  <g id="patch_1">
   <path d="M 0 310.86825 
L 391.245 310.86825 
L 391.245 0 
L 0 0 
z
" style="fill:#ffffff;"/>
  </g>
  <g id="axes_1">
   <g id="patch_2">
    <path d="M 26.925 273.312 
L 384.045 273.312 
L 384.045 7.2 
L 26.925 7.2 
z
" style="fill:#ffffff;"/>
   </g>
   <g id="PolyCollection_1">
    <path clip-path="url(#p600dd29488)" d="M 191.025594 254.662213 
L 191.025594 255.037156 
L 192.372644 255.07538 
L 193.719695 255.119389 
L 195.066745 255.169897 
L 196.413796 255.227622 
L 197.760846 255.293207 
L 199.107897 255.367117 
L 200.454947 255.449521 
L 201.801998 255.540194 
L 203.149048 255.638448 
L 204.496099 255.743121 
L 205.843149 255.852647 
L 207.1902 255.965199 
L 208.53725 256.078882 
L 209.884301 256.191954 
L 211.231351 256.303023 
L 212.578402 256.411177 
L 213.925452 256.516033 
L 215.272502 256.617684 
L 216.619553 256.716576 
L 217.966603 256.813324 
L 219.313654 256.908523 
L 220.660704 257.002585 
L 222.007755 257.095647 
L 223.354805 257.187566 
L 224.701856 257.278029 
L 226.048906 257.366767 
L 227.395957 257.453837 
L 228.743007 257.539933 
L 230.090058 257.626621 
L 231.437108 257.716428 
L 232.784159 257.81271 
L 234.131209 257.91928 
L 235.47826 258.039837 
L 236.82531 258.177305 
L 238.172361 258.333241 
L 239.519411 258.507457 
L 240.866462 258.697974 
L 242.213512 258.901326 
L 243.560563 259.11315 
L 244.907613 259.328895 
L 246.254664 259.544466 
L 247.601714 259.756633 
L 248.948765 259.963092 
L 250.295815 260.162208 
L 251.642866 260.352525 
L 252.989916 260.532236 
L 254.336967 260.698779 
L 255.684017 260.848722 
L 257.031067 260.977986 
L 258.378118 261.082348 
L 259.725168 261.158137 
L 261.072219 261.202915 
L 262.419269 261.216 
L 263.76632 261.198703 
L 265.11337 261.154214 
L 266.460421 261.087176 
L 267.807471 261.003015 
L 269.154522 260.907175 
L 270.501572 260.80438 
L 271.848623 260.698054 
L 273.195673 260.589995 
L 274.542724 260.480333 
L 275.889774 260.367769 
L 277.236825 260.250025 
L 278.583875 260.124415 
L 279.930926 259.988428 
L 281.277976 259.840214 
L 282.625027 259.678903 
L 283.972077 259.504712 
L 285.319128 259.318844 
L 286.666178 259.123225 
L 288.013229 258.920152 
L 289.360279 258.711919 
L 290.70733 258.500509 
L 292.05438 258.2874 
L 293.401431 258.073519 
L 294.748481 257.85933 
L 296.095531 257.645037 
L 297.442582 257.430839 
L 298.789632 257.217195 
L 300.136683 257.005017 
L 301.483733 256.795773 
L 302.830784 256.591474 
L 304.177834 256.394538 
L 305.524885 256.207579 
L 306.871935 256.033144 
L 308.218986 255.873444 
L 309.566036 255.730133 
L 310.913087 255.604145 
L 312.260137 255.495618 
L 313.607188 255.403904 
L 314.954238 255.327659 
L 316.301289 255.264989 
L 317.648339 255.21365 
L 318.99539 255.17126 
L 320.34244 255.135513 
L 321.689491 255.104364 
L 323.036541 255.076176 
L 324.383592 255.049789 
L 324.383592 254.649579 
L 324.383592 254.649579 
L 323.036541 254.623193 
L 321.689491 254.595004 
L 320.34244 254.563856 
L 318.99539 254.528108 
L 317.648339 254.485718 
L 316.301289 254.434379 
L 314.954238 254.371709 
L 313.607188 254.295464 
L 312.260137 254.20375 
L 310.913087 254.095223 
L 309.566036 253.969235 
L 308.218986 253.825924 
L 306.871935 253.666225 
L 305.524885 253.491789 
L 304.177834 253.304831 
L 302.830784 253.107895 
L 301.483733 252.903595 
L 300.136683 252.694351 
L 298.789632 252.482173 
L 297.442582 252.268529 
L 296.095531 252.054332 
L 294.748481 251.840038 
L 293.401431 251.625849 
L 292.05438 251.411968 
L 290.70733 251.19886 
L 289.360279 250.987449 
L 288.013229 250.779216 
L 286.666178 250.576143 
L 285.319128 250.380525 
L 283.972077 250.194656 
L 282.625027 250.020465 
L 281.277976 249.859155 
L 279.930926 249.710941 
L 278.583875 249.574953 
L 277.236825 249.449343 
L 275.889774 249.331599 
L 274.542724 249.219036 
L 273.195673 249.109374 
L 271.848623 249.001314 
L 270.501572 248.894988 
L 269.154522 248.792193 
L 267.807471 248.696354 
L 266.460421 248.612193 
L 265.11337 248.545154 
L 263.76632 248.500665 
L 262.419269 248.483368 
L 261.072219 248.496454 
L 259.725168 248.541232 
L 258.378118 248.61702 
L 257.031067 248.721383 
L 255.684017 248.850646 
L 254.336967 249.00059 
L 252.989916 249.167132 
L 251.642866 249.346843 
L 250.295815 249.537161 
L 248.948765 249.736277 
L 247.601714 249.942736 
L 246.254664 250.154902 
L 244.907613 250.370474 
L 243.560563 250.586218 
L 242.213512 250.798042 
L 240.866462 251.001394 
L 239.519411 251.191911 
L 238.172361 251.366127 
L 236.82531 251.522064 
L 235.47826 251.659532 
L 234.131209 251.780088 
L 232.784159 251.886658 
L 231.437108 251.98294 
L 230.090058 252.072748 
L 228.743007 252.159436 
L 227.395957 252.245532 
L 226.048906 252.332602 
L 224.701856 252.421339 
L 223.354805 252.511802 
L 222.007755 252.603722 
L 220.660704 252.696784 
L 219.313654 252.790846 
L 217.966603 252.886044 
L 216.619553 252.982792 
L 215.272502 253.081685 
L 213.925452 253.183336 
L 212.578402 253.288191 
L 211.231351 253.396345 
L 209.884301 253.507414 
L 208.53725 253.620487 
L 207.1902 253.73417 
L 205.843149 253.846721 
L 204.496099 253.956248 
L 203.149048 254.060921 
L 201.801998 254.159174 
L 200.454947 254.249847 
L 199.107897 254.332252 
L 197.760846 254.406161 
L 196.413796 254.471747 
L 195.066745 254.529472 
L 193.719695 254.57998 
L 192.372644 254.623988 
L 191.025594 254.662213 
z
" style="fill:#1f77b4;fill-opacity:0.3;"/>
   </g>
   <g id="PolyCollection_2">
    <path clip-path="url(#p600dd29488)" d="M 45.523901 229.261081 
L 45.523901 229.507761 
L 48.712846 229.525191 
L 51.901792 229.543719 
L 55.090737 229.563803 
L 58.279683 229.586174 
L 61.468628 229.61181 
L 64.657573 229.641866 
L 67.846519 229.67754 
L 71.035464 229.719897 
L 74.224409 229.769677 
L 77.413355 229.82713 
L 80.6023 229.89193 
L 83.791245 229.963201 
L 86.980191 230.039671 
L 90.169136 230.119934 
L 93.358081 230.202762 
L 96.547027 230.287417 
L 99.735972 230.373868 
L 102.924917 230.462887 
L 106.113863 230.555981 
L 109.302808 230.655186 
L 112.491754 230.762771 
L 115.680699 230.880891 
L 118.869644 231.01127 
L 122.05859 231.154961 
L 125.247535 231.312207 
L 128.43648 231.482441 
L 131.625426 231.664382 
L 134.814371 231.856224 
L 138.003316 232.055859 
L 141.192262 232.261086 
L 144.381207 232.469755 
L 147.570152 232.679828 
L 150.759098 232.889353 
L 153.948043 233.096392 
L 157.136989 233.298953 
L 160.325934 233.494984 
L 163.514879 233.682458 
L 166.703825 233.859556 
L 169.89277 234.024896 
L 173.081715 234.177747 
L 176.270661 234.318144 
L 179.459606 234.446863 
L 182.648551 234.56525 
L 185.837497 234.674944 
L 189.026442 234.777585 
L 192.215387 234.874573 
L 195.404333 234.966959 
L 198.593278 235.055455 
L 201.782224 235.140544 
L 204.971169 235.222606 
L 208.160114 235.301967 
L 211.34906 235.378852 
L 214.538005 235.453195 
L 217.72695 235.524384 
L 220.915896 235.591002 
L 224.104841 235.650661 
L 227.293786 235.700001 
L 230.482732 235.73488 
L 233.671677 235.750737 
L 236.860622 235.743074 
L 240.049568 235.707973 
L 243.238513 235.642561 
L 246.427458 235.545364 
L 249.616404 235.416499 
L 252.805349 235.257699 
L 255.994295 235.072183 
L 259.18324 234.864403 
L 262.372185 234.639693 
L 265.561131 234.403873 
L 268.750076 234.16283 
L 271.939021 233.922121 
L 275.127967 233.686606 
L 278.316912 233.460166 
L 281.505857 233.245498 
L 284.694803 233.044015 
L 287.883748 232.855838 
L 291.072693 232.679891 
L 294.261639 232.514068 
L 297.450584 232.355494 
L 300.63953 232.200844 
L 303.828475 232.046731 
L 307.01742 231.890125 
L 310.206366 231.728764 
L 313.395311 231.561501 
L 316.584256 231.388518 
L 319.773202 231.211365 
L 322.962147 231.032784 
L 326.151092 230.856347 
L 329.340038 230.685961 
L 332.528983 230.525328 
L 335.717928 230.377461 
L 338.906874 230.244334 
L 342.095819 230.126737 
L 345.284764 230.02432 
L 348.47371 229.935823 
L 351.662655 229.859403 
L 354.851601 229.792996 
L 358.040546 229.734646 
L 361.229491 229.682732 
L 361.229491 229.086111 
L 361.229491 229.086111 
L 358.040546 229.034196 
L 354.851601 228.975846 
L 351.662655 228.909439 
L 348.47371 228.833019 
L 345.284764 228.744522 
L 342.095819 228.642105 
L 338.906874 228.524508 
L 335.717928 228.391381 
L 332.528983 228.243514 
L 329.340038 228.082881 
L 326.151092 227.912495 
L 322.962147 227.736058 
L 319.773202 227.557477 
L 316.584256 227.380324 
L 313.395311 227.207341 
L 310.206366 227.040078 
L 307.01742 226.878717 
L 303.828475 226.722111 
L 300.63953 226.567998 
L 297.450584 226.413348 
L 294.261639 226.254774 
L 291.072693 226.088951 
L 287.883748 225.913004 
L 284.694803 225.724827 
L 281.505857 225.523344 
L 278.316912 225.308676 
L 275.127967 225.082236 
L 271.939021 224.846721 
L 268.750076 224.606012 
L 265.561131 224.36497 
L 262.372185 224.129149 
L 259.18324 223.904439 
L 255.994295 223.696659 
L 252.805349 223.511144 
L 249.616404 223.352344 
L 246.427458 223.223478 
L 243.238513 223.126281 
L 240.049568 223.060869 
L 236.860622 223.025768 
L 233.671677 223.018105 
L 230.482732 223.033962 
L 227.293786 223.068841 
L 224.104841 223.118181 
L 220.915896 223.17784 
L 217.72695 223.244458 
L 214.538005 223.315647 
L 211.34906 223.38999 
L 208.160114 223.466875 
L 204.971169 223.546237 
L 201.782224 223.628298 
L 198.593278 223.713388 
L 195.404333 223.801883 
L 192.215387 223.894269 
L 189.026442 223.991257 
L 185.837497 224.093898 
L 182.648551 224.203592 
L 179.459606 224.321979 
L 176.270661 224.450698 
L 173.081715 224.591095 
L 169.89277 224.743946 
L 166.703825 224.909286 
L 163.514879 225.086384 
L 160.325934 225.273858 
L 157.136989 225.469889 
L 153.948043 225.67245 
L 150.759098 225.879489 
L 147.570152 226.089014 
L 144.381207 226.299087 
L 141.192262 226.507756 
L 138.003316 226.712983 
L 134.814371 226.912619 
L 131.625426 227.10446 
L 128.43648 227.286401 
L 125.247535 227.456635 
L 122.05859 227.613882 
L 118.869644 227.757572 
L 115.680699 227.887951 
L 112.491754 228.006071 
L 109.302808 228.113656 
L 106.113863 228.212862 
L 102.924917 228.305955 
L 99.735972 228.394974 
L 96.547027 228.481425 
L 93.358081 228.56608 
L 90.169136 228.648908 
L 86.980191 228.729171 
L 83.791245 228.805641 
L 80.6023 228.876912 
L 77.413355 228.941712 
L 74.224409 228.999165 
L 71.035464 229.048945 
L 67.846519 229.091303 
L 64.657573 229.126976 
L 61.468628 229.157032 
L 58.279683 229.182668 
L 55.090737 229.205039 
L 51.901792 229.225124 
L 48.712846 229.243651 
L 45.523901 229.261081 
z
" style="fill:#1f77b4;fill-opacity:0.3;"/>
   </g>
   <g id="PolyCollection_3">
    <path clip-path="url(#p600dd29488)" d="M 160.129498 203.647804 
L 160.129498 204.190512 
L 161.559159 204.243489 
L 162.988819 204.302642 
L 164.41848 204.368928 
L 165.84814 204.443634 
L 167.277801 204.52827 
L 168.707461 204.624384 
L 170.137122 204.733323 
L 171.566782 204.856025 
L 172.996443 204.992877 
L 174.426103 205.143713 
L 175.855764 205.307958 
L 177.285424 205.484886 
L 178.715085 205.673919 
L 180.144745 205.874847 
L 181.574406 206.08788 
L 183.004066 206.31349 
L 184.433727 206.552063 
L 185.863387 206.803482 
L 187.293048 207.066775 
L 188.722708 207.339979 
L 190.152369 207.620275 
L 191.582029 207.904358 
L 193.01169 208.188891 
L 194.44135 208.47086 
L 195.871011 208.747633 
L 197.300671 209.016674 
L 198.730332 209.274971 
L 200.159992 209.518396 
L 201.589652 209.741268 
L 203.019313 209.936372 
L 204.448973 210.095538 
L 205.878634 210.210717 
L 207.308294 210.275319 
L 208.737955 210.285474 
L 210.167615 210.240894 
L 211.597276 210.145118 
L 213.026936 210.005096 
L 214.456597 209.830234 
L 215.886257 209.631148 
L 217.315918 209.418385 
L 218.745578 209.201365 
L 220.175239 208.987678 
L 221.604899 208.782771 
L 223.03456 208.589987 
L 224.46422 208.410853 
L 225.893881 208.24552 
L 227.323541 208.093241 
L 228.753202 207.952823 
L 230.182862 207.822986 
L 231.612523 207.702581 
L 233.042183 207.590626 
L 234.471844 207.486181 
L 235.901504 207.388095 
L 237.331165 207.294714 
L 238.760825 207.203682 
L 240.190486 207.111944 
L 241.620146 207.016019 
L 243.049807 206.912516 
L 244.479467 206.7988 
L 245.909128 206.673618 
L 247.338788 206.537503 
L 248.768449 206.392812 
L 250.198109 206.24336 
L 251.62777 206.093724 
L 253.05743 205.948385 
L 254.487091 205.810928 
L 255.916751 205.683484 
L 257.346412 205.566543 
L 258.776072 205.459138 
L 260.205733 205.359316 
L 261.635393 205.264742 
L 263.065054 205.173278 
L 264.494714 205.083411 
L 265.924375 204.994448 
L 267.354035 204.906511 
L 268.783696 204.820347 
L 270.213356 204.73706 
L 271.643017 204.657828 
L 273.072677 204.583659 
L 274.502338 204.515232 
L 275.931998 204.452832 
L 277.361659 204.396369 
L 278.791319 204.345461 
L 280.22098 204.299558 
L 281.65064 204.258071 
L 283.080301 204.220476 
L 284.509961 204.186387 
L 285.939622 204.15557 
L 287.369282 204.127919 
L 288.798943 204.103403 
L 290.228603 204.081997 
L 291.658264 204.063616 
L 293.087924 204.048075 
L 294.517585 204.035069 
L 295.947245 204.024174 
L 297.376906 204.014887 
L 298.806566 204.006676 
L 300.236227 203.99904 
L 301.665887 203.991573 
L 301.665887 203.846743 
L 301.665887 203.846743 
L 300.236227 203.839276 
L 298.806566 203.83164 
L 297.376906 203.823429 
L 295.947245 203.814142 
L 294.517585 203.803247 
L 293.087924 203.79024 
L 291.658264 203.7747 
L 290.228603 203.756319 
L 288.798943 203.734912 
L 287.369282 203.710397 
L 285.939622 203.682746 
L 284.509961 203.651929 
L 283.080301 203.61784 
L 281.65064 203.580245 
L 280.22098 203.538758 
L 278.791319 203.492855 
L 277.361659 203.441947 
L 275.931998 203.385484 
L 274.502338 203.323084 
L 273.072677 203.254657 
L 271.643017 203.180488 
L 270.213356 203.101256 
L 268.783696 203.017969 
L 267.354035 202.931805 
L 265.924375 202.843867 
L 264.494714 202.754905 
L 263.065054 202.665037 
L 261.635393 202.573574 
L 260.205733 202.479 
L 258.776072 202.379177 
L 257.346412 202.271773 
L 255.916751 202.154832 
L 254.487091 202.027388 
L 253.05743 201.889931 
L 251.62777 201.744592 
L 250.198109 201.594956 
L 248.768449 201.445504 
L 247.338788 201.300813 
L 245.909128 201.164698 
L 244.479467 201.039516 
L 243.049807 200.9258 
L 241.620146 200.822297 
L 240.190486 200.726371 
L 238.760825 200.634634 
L 237.331165 200.543602 
L 235.901504 200.450221 
L 234.471844 200.352134 
L 233.042183 200.24769 
L 231.612523 200.135735 
L 230.182862 200.015329 
L 228.753202 199.885493 
L 227.323541 199.745075 
L 225.893881 199.592795 
L 224.46422 199.427462 
L 223.03456 199.248329 
L 221.604899 199.055545 
L 220.175239 198.850637 
L 218.745578 198.63695 
L 217.315918 198.419931 
L 215.886257 198.207168 
L 214.456597 198.008081 
L 213.026936 197.83322 
L 211.597276 197.693198 
L 210.167615 197.597422 
L 208.737955 197.552842 
L 207.308294 197.562997 
L 205.878634 197.627599 
L 204.448973 197.742777 
L 203.019313 197.901943 
L 201.589652 198.097048 
L 200.159992 198.31992 
L 198.730332 198.563344 
L 197.300671 198.821641 
L 195.871011 199.090682 
L 194.44135 199.367456 
L 193.01169 199.649425 
L 191.582029 199.933958 
L 190.152369 200.21804 
L 188.722708 200.498336 
L 187.293048 200.771541 
L 185.863387 201.034834 
L 184.433727 201.286252 
L 183.004066 201.524826 
L 181.574406 201.750436 
L 180.144745 201.963469 
L 178.715085 202.164397 
L 177.285424 202.35343 
L 175.855764 202.530358 
L 174.426103 202.694602 
L 172.996443 202.845439 
L 171.566782 202.982291 
L 170.137122 203.104993 
L 168.707461 203.213932 
L 167.277801 203.310045 
L 165.84814 203.394682 
L 164.41848 203.469388 
L 162.988819 203.535673 
L 161.559159 203.594826 
L 160.129498 203.647804 
z
" style="fill:#1f77b4;fill-opacity:0.3;"/>
   </g>
   <g id="PolyCollection_4">
    <path clip-path="url(#p600dd29488)" d="M 211.725943 178.379286 
L 211.725943 178.528504 
L 212.447146 178.538843 
L 213.168348 178.551869 
L 213.889551 178.569352 
L 214.610754 178.593221 
L 215.331957 178.625298 
L 216.053159 178.667057 
L 216.774362 178.719447 
L 217.495565 178.782831 
L 218.216767 178.857018 
L 218.93797 178.941385 
L 219.659173 179.035057 
L 220.380376 179.137108 
L 221.101578 179.246781 
L 221.822781 179.363715 
L 222.543984 179.488151 
L 223.265187 179.621087 
L 223.986389 179.764335 
L 224.707592 179.92043 
L 225.428795 180.092336 
L 226.149998 180.282978 
L 226.8712 180.494627 
L 227.592403 180.728266 
L 228.313606 180.983061 
L 229.034809 181.256067 
L 229.756011 181.542286 
L 230.477214 181.835075 
L 231.198417 182.126889 
L 231.91962 182.410194 
L 232.640822 182.678398 
L 233.362025 182.926578 
L 234.083228 183.151882 
L 234.80443 183.353522 
L 235.525633 183.532433 
L 236.246836 183.690749 
L 236.968039 183.831286 
L 237.689241 183.957179 
L 238.410444 184.071698 
L 239.131647 184.178142 
L 239.85285 184.279625 
L 240.574052 184.378614 
L 241.295255 184.476217 
L 242.016458 184.571405 
L 242.737661 184.66049 
L 243.458863 184.737168 
L 244.180066 184.793283 
L 244.901269 184.820211 
L 245.622472 184.810496 
L 246.343674 184.759312 
L 247.064877 184.665306 
L 247.78608 184.530662 
L 248.507283 184.36043 
L 249.228485 184.161398 
L 249.949688 183.94087 
L 250.670891 183.705668 
L 251.392093 183.461555 
L 252.113296 183.21311 
L 252.834499 182.963953 
L 253.555702 182.717124 
L 254.276904 182.475432 
L 254.998107 182.241575 
L 255.71931 182.017995 
L 256.440513 181.806511 
L 257.161715 181.6079 
L 257.882918 181.421643 
L 258.604121 181.245987 
L 259.325324 181.078362 
L 260.046526 180.916025 
L 260.767729 180.756717 
L 261.488932 180.599096 
L 262.210135 180.44282 
L 262.931337 180.288312 
L 263.65254 180.136334 
L 264.373743 179.987587 
L 265.094945 179.84247 
L 265.816148 179.701075 
L 266.537351 179.563379 
L 267.258554 179.429515 
L 267.979756 179.300008 
L 268.700959 179.175897 
L 269.422162 179.058684 
L 270.143365 178.950154 
L 270.864567 178.852108 
L 271.58577 178.766094 
L 272.306973 178.693175 
L 273.028176 178.633808 
L 273.749378 178.587808 
L 274.470581 178.554413 
L 275.191784 178.532391 
L 275.912987 178.520168 
L 276.634189 178.515951 
L 277.355392 178.517819 
L 278.076595 178.523808 
L 278.797798 178.53199 
L 279.519 178.540556 
L 280.240203 178.547925 
L 280.961406 178.552839 
L 281.682608 178.554465 
L 282.403811 178.552445 
L 283.125014 178.546898 
L 283.125014 178.360891 
L 283.125014 178.360891 
L 282.403811 178.355345 
L 281.682608 178.353324 
L 280.961406 178.354951 
L 280.240203 178.359865 
L 279.519 178.367233 
L 278.797798 178.3758 
L 278.076595 178.383981 
L 277.355392 178.389971 
L 276.634189 178.391839 
L 275.912987 178.387621 
L 275.191784 178.375399 
L 274.470581 178.353376 
L 273.749378 178.319981 
L 273.028176 178.273981 
L 272.306973 178.214614 
L 271.58577 178.141696 
L 270.864567 178.055681 
L 270.143365 177.957636 
L 269.422162 177.849105 
L 268.700959 177.731892 
L 267.979756 177.607781 
L 267.258554 177.478275 
L 266.537351 177.34441 
L 265.816148 177.206714 
L 265.094945 177.065319 
L 264.373743 176.920202 
L 263.65254 176.771455 
L 262.931337 176.619478 
L 262.210135 176.464969 
L 261.488932 176.308693 
L 260.767729 176.151072 
L 260.046526 175.991765 
L 259.325324 175.829428 
L 258.604121 175.661802 
L 257.882918 175.486146 
L 257.161715 175.299889 
L 256.440513 175.101279 
L 255.71931 174.889795 
L 254.998107 174.666215 
L 254.276904 174.432358 
L 253.555702 174.190665 
L 252.834499 173.943837 
L 252.113296 173.694679 
L 251.392093 173.446235 
L 250.670891 173.202122 
L 249.949688 172.966919 
L 249.228485 172.746391 
L 248.507283 172.547359 
L 247.78608 172.377127 
L 247.064877 172.242483 
L 246.343674 172.148477 
L 245.622472 172.097293 
L 244.901269 172.087579 
L 244.180066 172.114506 
L 243.458863 172.170622 
L 242.737661 172.247299 
L 242.016458 172.336384 
L 241.295255 172.431572 
L 240.574052 172.529175 
L 239.85285 172.628164 
L 239.131647 172.729647 
L 238.410444 172.836091 
L 237.689241 172.950611 
L 236.968039 173.076503 
L 236.246836 173.21704 
L 235.525633 173.375356 
L 234.80443 173.554268 
L 234.083228 173.755907 
L 233.362025 173.981211 
L 232.640822 174.229392 
L 231.91962 174.497595 
L 231.198417 174.780901 
L 230.477214 175.072714 
L 229.756011 175.365504 
L 229.034809 175.651722 
L 228.313606 175.924729 
L 227.592403 176.179523 
L 226.8712 176.413163 
L 226.149998 176.624812 
L 225.428795 176.815453 
L 224.707592 176.98736 
L 223.986389 177.143454 
L 223.265187 177.286703 
L 222.543984 177.419638 
L 221.822781 177.544074 
L 221.101578 177.661009 
L 220.380376 177.770682 
L 219.659173 177.872732 
L 218.93797 177.966404 
L 218.216767 178.050772 
L 217.495565 178.124958 
L 216.774362 178.188342 
L 216.053159 178.240733 
L 215.331957 178.282491 
L 214.610754 178.314569 
L 213.889551 178.338438 
L 213.168348 178.355921 
L 212.447146 178.368947 
L 211.725943 178.379286 
z
" style="fill:#1f77b4;fill-opacity:0.3;"/>
   </g>
   <g id="PolyCollection_5">
    <path clip-path="url(#p600dd29488)" d="M 153.400943 152.738011 
L 153.400943 153.239252 
L 154.585713 153.2717 
L 155.770482 153.304353 
L 156.955251 153.337924 
L 158.140021 153.373671 
L 159.32479 153.413275 
L 160.50956 153.458635 
L 161.694329 153.5116 
L 162.879099 153.573705 
L 164.063868 153.645951 
L 165.248638 153.728685 
L 166.433407 153.821607 
L 167.618176 153.923905 
L 168.802946 154.03448 
L 169.987715 154.152221 
L 171.172485 154.27624 
L 172.357254 154.406028 
L 173.542024 154.541499 
L 174.726793 154.682904 
L 175.911563 154.830665 
L 177.096332 154.985177 
L 178.281101 155.146624 
L 179.465871 155.314878 
L 180.65064 155.48949 
L 181.83541 155.669799 
L 183.020179 155.855107 
L 184.204949 156.044918 
L 185.389718 156.239138 
L 186.574487 156.438228 
L 187.759257 156.643212 
L 188.944026 156.855541 
L 190.128796 157.076775 
L 191.313565 157.308113 
L 192.498335 157.54981 
L 193.683104 157.800572 
L 194.867874 158.057038 
L 196.052643 158.313499 
L 197.237412 158.561959 
L 198.422182 158.792658 
L 199.606951 158.995018 
L 200.791721 159.15895 
L 201.97649 159.276265 
L 203.16126 159.341943 
L 204.346029 159.354947 
L 205.530799 159.318397 
L 206.715568 159.239032 
L 207.900337 159.12608 
L 209.085107 158.989771 
L 210.269876 158.839826 
L 211.454646 158.68423 
L 212.639415 158.528492 
L 213.824185 158.375478 
L 215.008954 158.225761 
L 216.193724 158.07831 
L 217.378493 157.93132 
L 218.563262 157.782976 
L 219.748032 157.632001 
L 220.932801 157.477905 
L 222.117571 157.32094 
L 223.30234 157.161814 
L 224.48711 157.001278 
L 225.671879 156.839704 
L 226.856648 156.67679 
L 228.041418 156.511485 
L 229.226187 156.342176 
L 230.410957 156.167115 
L 231.595726 155.98501 
L 232.780496 155.795616 
L 233.965265 155.600182 
L 235.150035 155.401614 
L 236.334804 155.204271 
L 237.519573 155.013415 
L 238.704343 154.834423 
L 239.889112 154.67191 
L 241.073882 154.528977 
L 242.258651 154.406715 
L 243.443421 154.304088 
L 244.62819 154.218193 
L 245.81296 154.144829 
L 246.997729 154.07925 
L 248.182498 154.016945 
L 249.367268 153.954293 
L 250.552037 153.888997 
L 251.736807 153.820229 
L 252.921576 153.748511 
L 254.106346 153.675378 
L 255.291115 153.602929 
L 256.475885 153.533361 
L 257.660654 153.468567 
L 258.845423 153.409881 
L 260.030193 153.357964 
L 261.214962 153.312831 
L 262.399732 153.273986 
L 263.584501 153.240598 
L 264.769271 153.211689 
L 265.95404 153.186286 
L 267.138809 153.163536 
L 268.323579 153.142762 
L 269.508348 153.123486 
L 270.693118 153.105425 
L 270.693118 152.871838 
L 270.693118 152.871838 
L 269.508348 152.853777 
L 268.323579 152.834501 
L 267.138809 152.813727 
L 265.95404 152.790977 
L 264.769271 152.765575 
L 263.584501 152.736665 
L 262.399732 152.703277 
L 261.214962 152.664432 
L 260.030193 152.6193 
L 258.845423 152.567382 
L 257.660654 152.508696 
L 256.475885 152.443903 
L 255.291115 152.374334 
L 254.106346 152.301886 
L 252.921576 152.228752 
L 251.736807 152.157034 
L 250.552037 152.088266 
L 249.367268 152.02297 
L 248.182498 151.960318 
L 246.997729 151.898013 
L 245.81296 151.832434 
L 244.62819 151.75907 
L 243.443421 151.673175 
L 242.258651 151.570548 
L 241.073882 151.448286 
L 239.889112 151.305353 
L 238.704343 151.142841 
L 237.519573 150.963848 
L 236.334804 150.772992 
L 235.150035 150.575649 
L 233.965265 150.377081 
L 232.780496 150.181647 
L 231.595726 149.992253 
L 230.410957 149.810148 
L 229.226187 149.635088 
L 228.041418 149.465778 
L 226.856648 149.300473 
L 225.671879 149.137559 
L 224.48711 148.975985 
L 223.30234 148.815449 
L 222.117571 148.656323 
L 220.932801 148.499358 
L 219.748032 148.345263 
L 218.563262 148.194287 
L 217.378493 148.045944 
L 216.193724 147.898953 
L 215.008954 147.751502 
L 213.824185 147.601785 
L 212.639415 147.448771 
L 211.454646 147.293033 
L 210.269876 147.137437 
L 209.085107 146.987493 
L 207.900337 146.851183 
L 206.715568 146.738231 
L 205.530799 146.658866 
L 204.346029 146.622316 
L 203.16126 146.63532 
L 201.97649 146.700998 
L 200.791721 146.818314 
L 199.606951 146.982245 
L 198.422182 147.184606 
L 197.237412 147.415304 
L 196.052643 147.663765 
L 194.867874 147.920225 
L 193.683104 148.176691 
L 192.498335 148.427453 
L 191.313565 148.66915 
L 190.128796 148.900488 
L 188.944026 149.121722 
L 187.759257 149.334051 
L 186.574487 149.539035 
L 185.389718 149.738125 
L 184.204949 149.932346 
L 183.020179 150.122156 
L 181.83541 150.307465 
L 180.65064 150.487773 
L 179.465871 150.662386 
L 178.281101 150.830639 
L 177.096332 150.992086 
L 175.911563 151.146598 
L 174.726793 151.294359 
L 173.542024 151.435764 
L 172.357254 151.571235 
L 171.172485 151.701024 
L 169.987715 151.825042 
L 168.802946 151.942783 
L 167.618176 152.053359 
L 166.433407 152.155656 
L 165.248638 152.248578 
L 164.063868 152.331312 
L 162.879099 152.403558 
L 161.694329 152.465663 
L 160.50956 152.518628 
L 159.32479 152.563988 
L 158.140021 152.603593 
L 156.955251 152.63934 
L 155.770482 152.67291 
L 154.585713 152.705563 
L 153.400943 152.738011 
z
" style="fill:#1f77b4;fill-opacity:0.3;"/>
   </g>
   <g id="PolyCollection_6">
    <path clip-path="url(#p600dd29488)" d="M 148.314209 127.332728 
L 148.314209 127.714009 
L 149.385573 127.751925 
L 150.456937 127.794898 
L 151.528301 127.843367 
L 152.599665 127.897729 
L 153.671029 127.958276 
L 154.742393 128.025139 
L 155.813757 128.098244 
L 156.885122 128.177293 
L 157.956486 128.261774 
L 159.02785 128.351003 
L 160.099214 128.444198 
L 161.170578 128.540565 
L 162.241942 128.639408 
L 163.313306 128.740242 
L 164.38467 128.8429 
L 165.456034 128.947641 
L 166.527398 129.055239 
L 167.598762 129.167042 
L 168.670126 129.284977 
L 169.74149 129.411488 
L 170.812854 129.549368 
L 171.884218 129.701512 
L 172.955582 129.870573 
L 174.026946 130.058605 
L 175.09831 130.266737 
L 176.169674 130.494946 
L 177.241038 130.741989 
L 178.312402 131.005496 
L 179.383766 131.282181 
L 180.45513 131.568123 
L 181.526494 131.859004 
L 182.597858 132.150242 
L 183.669222 132.436991 
L 184.740586 132.714032 
L 185.81195 132.975652 
L 186.883314 133.21563 
L 187.954678 133.427436 
L 189.026042 133.60472 
L 190.097406 133.742031 
L 191.168771 133.835648 
L 192.240135 133.88432 
L 193.311499 133.889684 
L 194.382863 133.856215 
L 195.454227 133.79065 
L 196.525591 133.700988 
L 197.596955 133.59527 
L 198.668319 133.48042 
L 199.739683 133.361415 
L 200.811047 133.240941 
L 201.882411 133.11959 
L 202.953775 132.996481 
L 204.025139 132.870121 
L 205.096503 132.739237 
L 206.167867 132.603397 
L 207.239231 132.463272 
L 208.310595 132.320525 
L 209.381959 132.177402 
L 210.453323 132.036164 
L 211.524687 131.898529 
L 212.596051 131.765236 
L 213.667415 131.635844 
L 214.738779 131.508771 
L 215.810143 131.38156 
L 216.881507 131.251316 
L 217.952871 131.115231 
L 219.024235 130.971124 
L 220.095599 130.8179 
L 221.166963 130.655869 
L 222.238327 130.486847 
L 223.309691 130.314002 
L 224.381056 130.141463 
L 225.45242 129.973718 
L 226.523784 129.814924 
L 227.595148 129.668248 
L 228.666512 129.535373 
L 229.737876 129.416294 
L 230.80924 129.309423 
L 231.880604 129.211988 
L 232.951968 129.120626 
L 234.023332 129.032027 
L 235.094696 128.94349 
L 236.16606 128.853287 
L 237.237424 128.760788 
L 238.308788 128.666345 
L 239.380152 128.571037 
L 240.451516 128.476319 
L 241.52288 128.383708 
L 242.594244 128.294546 
L 243.665608 128.209865 
L 244.736972 128.13037 
L 245.808336 128.05648 
L 246.8797 127.988407 
L 247.951064 127.926227 
L 249.022428 127.869925 
L 250.093792 127.819407 
L 251.165156 127.774499 
L 252.23652 127.734933 
L 253.307884 127.700353 
L 254.379248 127.670332 
L 254.379248 127.376405 
L 254.379248 127.376405 
L 253.307884 127.346384 
L 252.23652 127.311804 
L 251.165156 127.272238 
L 250.093792 127.22733 
L 249.022428 127.176812 
L 247.951064 127.12051 
L 246.8797 127.05833 
L 245.808336 126.990257 
L 244.736972 126.916367 
L 243.665608 126.836872 
L 242.594244 126.752191 
L 241.52288 126.663028 
L 240.451516 126.570418 
L 239.380152 126.4757 
L 238.308788 126.380391 
L 237.237424 126.285949 
L 236.16606 126.193449 
L 235.094696 126.103247 
L 234.023332 126.01471 
L 232.951968 125.926111 
L 231.880604 125.834749 
L 230.80924 125.737314 
L 229.737876 125.630443 
L 228.666512 125.511364 
L 227.595148 125.378489 
L 226.523784 125.231812 
L 225.45242 125.073019 
L 224.381056 124.905274 
L 223.309691 124.732735 
L 222.238327 124.55989 
L 221.166963 124.390867 
L 220.095599 124.228837 
L 219.024235 124.075613 
L 217.952871 123.931506 
L 216.881507 123.795421 
L 215.810143 123.665176 
L 214.738779 123.537966 
L 213.667415 123.410892 
L 212.596051 123.281501 
L 211.524687 123.148208 
L 210.453323 123.010573 
L 209.381959 122.869335 
L 208.310595 122.726212 
L 207.239231 122.583465 
L 206.167867 122.44334 
L 205.096503 122.3075 
L 204.025139 122.176616 
L 202.953775 122.050255 
L 201.882411 121.927147 
L 200.811047 121.805796 
L 199.739683 121.685322 
L 198.668319 121.566317 
L 197.596955 121.451467 
L 196.525591 121.345749 
L 195.454227 121.256087 
L 194.382863 121.190522 
L 193.311499 121.157053 
L 192.240135 121.162417 
L 191.168771 121.211089 
L 190.097406 121.304706 
L 189.026042 121.442017 
L 187.954678 121.619301 
L 186.883314 121.831107 
L 185.81195 122.071085 
L 184.740586 122.332705 
L 183.669222 122.609746 
L 182.597858 122.896495 
L 181.526494 123.187733 
L 180.45513 123.478614 
L 179.383766 123.764556 
L 178.312402 124.041241 
L 177.241038 124.304748 
L 176.169674 124.551791 
L 175.09831 124.78 
L 174.026946 124.988132 
L 172.955582 125.176164 
L 171.884218 125.345225 
L 170.812854 125.497368 
L 169.74149 125.635249 
L 168.670126 125.761759 
L 167.598762 125.879695 
L 166.527398 125.991498 
L 165.456034 126.099096 
L 164.38467 126.203837 
L 163.313306 126.306495 
L 162.241942 126.407328 
L 161.170578 126.506172 
L 160.099214 126.602539 
L 159.02785 126.695733 
L 157.956486 126.784963 
L 156.885122 126.869444 
L 155.813757 126.948493 
L 154.742393 127.021598 
L 153.671029 127.088461 
L 152.599665 127.149008 
L 151.528301 127.20337 
L 150.456937 127.251839 
L 149.385573 127.294812 
L 148.314209 127.332728 
z
" style="fill:#1f77b4;fill-opacity:0.3;"/>
   </g>
   <g id="PolyCollection_7">
    <path clip-path="url(#p600dd29488)" d="M 113.411154 101.825771 
L 113.411154 102.290439 
L 115.490773 102.329175 
L 117.570392 102.37159 
L 119.650011 102.418661 
L 121.72963 102.471637 
L 123.809248 102.531915 
L 125.888867 102.600873 
L 127.968486 102.679704 
L 130.048105 102.769265 
L 132.127724 102.869973 
L 134.207342 102.98177 
L 136.286961 103.104123 
L 138.36658 103.236087 
L 140.446199 103.376368 
L 142.525817 103.5234 
L 144.605436 103.675429 
L 146.685055 103.830617 
L 148.764674 103.987223 
L 150.844293 104.14385 
L 152.923911 104.299774 
L 155.00353 104.455257 
L 157.083149 104.611762 
L 159.162768 104.771951 
L 161.242386 104.9394 
L 163.322005 105.118029 
L 165.401624 105.311351 
L 167.481243 105.521702 
L 169.560862 105.749614 
L 171.64048 105.993504 
L 173.720099 106.249707 
L 175.799718 106.512855 
L 177.879337 106.776495 
L 179.958956 107.033823 
L 182.038574 107.278412 
L 184.118193 107.504827 
L 186.197812 107.709046 
L 188.277431 107.88862 
L 190.357049 108.042534 
L 192.436668 108.170769 
L 194.516287 108.273649 
L 196.595906 108.3511 
L 198.675525 108.402087 
L 200.755143 108.424421 
L 202.834762 108.415103 
L 204.914381 108.371192 
L 206.994 108.290987 
L 209.073619 108.175195 
L 211.153237 108.027655 
L 213.232856 107.855343 
L 215.312475 107.66754 
L 217.392094 107.47435 
L 219.471712 107.284917 
L 221.551331 107.105845 
L 223.63095 106.940213 
L 225.710569 106.787422 
L 227.790188 106.643824 
L 229.869806 106.503903 
L 231.949425 106.361628 
L 234.029044 106.211643 
L 236.108663 106.050056 
L 238.188281 105.874784 
L 240.2679 105.685516 
L 242.347519 105.48346 
L 244.427138 105.271008 
L 246.506757 105.051407 
L 248.586375 104.82846 
L 250.665994 104.606227 
L 252.745613 104.388724 
L 254.825232 104.179634 
L 256.904851 103.982055 
L 258.984469 103.79835 
L 261.064088 103.630108 
L 263.143707 103.478194 
L 265.223326 103.342843 
L 267.302944 103.223728 
L 269.382563 103.119973 
L 271.462182 103.030127 
L 273.541801 102.952134 
L 275.62142 102.883401 
L 277.701038 102.820979 
L 279.780657 102.761884 
L 281.860276 102.703496 
L 283.939895 102.643938 
L 286.019514 102.582347 
L 288.099132 102.518949 
L 290.178751 102.454943 
L 292.25837 102.392201 
L 294.337989 102.332891 
L 296.417607 102.279078 
L 298.497226 102.232414 
L 300.576845 102.19393 
L 302.656464 102.163956 
L 304.736083 102.14216 
L 306.815701 102.127646 
L 308.89532 102.119113 
L 310.974939 102.115023 
L 313.054558 102.113776 
L 315.134176 102.113865 
L 317.213795 102.114023 
L 319.293414 102.113314 
L 319.293414 102.002896 
L 319.293414 102.002896 
L 317.213795 102.002188 
L 315.134176 102.002345 
L 313.054558 102.002435 
L 310.974939 102.001187 
L 308.89532 101.997097 
L 306.815701 101.988564 
L 304.736083 101.97405 
L 302.656464 101.952254 
L 300.576845 101.922281 
L 298.497226 101.883796 
L 296.417607 101.837132 
L 294.337989 101.78332 
L 292.25837 101.724009 
L 290.178751 101.661268 
L 288.099132 101.597261 
L 286.019514 101.533864 
L 283.939895 101.472272 
L 281.860276 101.412715 
L 279.780657 101.354327 
L 277.701038 101.295232 
L 275.62142 101.232809 
L 273.541801 101.164076 
L 271.462182 101.086084 
L 269.382563 100.996237 
L 267.302944 100.892483 
L 265.223326 100.773368 
L 263.143707 100.638016 
L 261.064088 100.486102 
L 258.984469 100.31786 
L 256.904851 100.134156 
L 254.825232 99.936577 
L 252.745613 99.727486 
L 250.665994 99.509984 
L 248.586375 99.28775 
L 246.506757 99.064803 
L 244.427138 98.845203 
L 242.347519 98.63275 
L 240.2679 98.430694 
L 238.188281 98.241426 
L 236.108663 98.066154 
L 234.029044 97.904568 
L 231.949425 97.754583 
L 229.869806 97.612308 
L 227.790188 97.472386 
L 225.710569 97.328788 
L 223.63095 97.175997 
L 221.551331 97.010366 
L 219.471712 96.831293 
L 217.392094 96.64186 
L 215.312475 96.44867 
L 213.232856 96.260868 
L 211.153237 96.088555 
L 209.073619 95.941015 
L 206.994 95.825223 
L 204.914381 95.745019 
L 202.834762 95.701107 
L 200.755143 95.691789 
L 198.675525 95.714124 
L 196.595906 95.765111 
L 194.516287 95.842562 
L 192.436668 95.945441 
L 190.357049 96.073677 
L 188.277431 96.22759 
L 186.197812 96.407164 
L 184.118193 96.611383 
L 182.038574 96.837799 
L 179.958956 97.082388 
L 177.879337 97.339715 
L 175.799718 97.603355 
L 173.720099 97.866503 
L 171.64048 98.122706 
L 169.560862 98.366597 
L 167.481243 98.594509 
L 165.401624 98.804859 
L 163.322005 98.998182 
L 161.242386 99.176811 
L 159.162768 99.34426 
L 157.083149 99.504449 
L 155.00353 99.660953 
L 152.923911 99.816436 
L 150.844293 99.97236 
L 148.764674 100.128988 
L 146.685055 100.285593 
L 144.605436 100.440781 
L 142.525817 100.59281 
L 140.446199 100.739843 
L 138.36658 100.880124 
L 136.286961 101.012087 
L 134.207342 101.134441 
L 132.127724 101.246237 
L 130.048105 101.346946 
L 127.968486 101.436506 
L 125.888867 101.515337 
L 123.809248 101.584296 
L 121.72963 101.644574 
L 119.650011 101.69755 
L 117.570392 101.74462 
L 115.490773 101.787036 
L 113.411154 101.825771 
z
" style="fill:#1f77b4;fill-opacity:0.3;"/>
   </g>
   <g id="PolyCollection_8">
    <path clip-path="url(#p600dd29488)" d="M 97.54367 76.089077 
L 97.54367 77.096608 
L 98.930284 77.173218 
L 100.316899 77.2464 
L 101.703513 77.314035 
L 103.090128 77.375139 
L 104.476742 77.430158 
L 105.863357 77.481059 
L 107.249971 77.531191 
L 108.636586 77.584917 
L 110.0232 77.647093 
L 111.409815 77.722444 
L 112.796429 77.814949 
L 114.183044 77.927326 
L 115.569658 78.060675 
L 116.956272 78.214364 
L 118.342887 78.386146 
L 119.729501 78.572516 
L 121.116116 78.769241 
L 122.50273 78.97201 
L 123.889345 79.177083 
L 125.275959 79.38186 
L 126.662574 79.585264 
L 128.049188 79.787864 
L 129.435803 79.991707 
L 130.822417 80.199861 
L 132.209031 80.415733 
L 133.595646 80.642256 
L 134.98226 80.881086 
L 136.368875 81.131936 
L 137.755489 81.392164 
L 139.142104 81.656692 
L 140.528718 81.918278 
L 141.915333 82.168117 
L 143.301947 82.396698 
L 144.688562 82.594796 
L 146.075176 82.754479 
L 147.461791 82.869966 
L 148.848405 82.938216 
L 150.235019 82.959158 
L 151.621634 82.935542 
L 153.008248 82.872453 
L 154.394863 82.776599 
L 155.781477 82.655519 
L 157.168092 82.516829 
L 158.554706 82.3676 
L 159.941321 82.213883 
L 161.327935 82.060377 
L 162.71455 81.910199 
L 164.101164 81.764749 
L 165.487778 81.623704 
L 166.874393 81.485189 
L 168.261007 81.346192 
L 169.647622 81.203208 
L 171.034236 81.053063 
L 172.420851 80.893731 
L 173.807465 80.724985 
L 175.19408 80.548664 
L 176.580694 80.368489 
L 177.967309 80.189416 
L 179.353923 80.016668 
L 180.740538 79.85467 
L 182.127152 79.706113 
L 183.513766 79.571363 
L 184.900381 79.448348 
L 186.286995 79.332929 
L 187.67361 79.219682 
L 189.060224 79.102925 
L 190.446839 78.977772 
L 191.833453 78.841022 
L 193.220068 78.691695 
L 194.606682 78.531144 
L 195.993297 78.362745 
L 197.379911 78.191259 
L 198.766525 78.022021 
L 200.15314 77.860146 
L 201.539754 77.709873 
L 202.926369 77.57416 
L 204.312983 77.454532 
L 205.699598 77.351159 
L 207.086212 77.26308 
L 208.472827 77.188517 
L 209.859441 77.125201 
L 211.246056 77.070691 
L 212.63267 77.02265 
L 214.019284 76.979075 
L 215.405899 76.93845 
L 216.792513 76.899839 
L 218.179128 76.862883 
L 219.565742 76.827724 
L 220.952357 76.794863 
L 222.338971 76.764976 
L 223.725586 76.738721 
L 225.1122 76.716576 
L 226.498815 76.69872 
L 227.885429 76.68498 
L 229.272044 76.674848 
L 230.658658 76.667558 
L 232.045272 76.662202 
L 233.431887 76.65787 
L 234.818501 76.653774 
L 234.818501 76.53191 
L 234.818501 76.53191 
L 233.431887 76.527814 
L 232.045272 76.523482 
L 230.658658 76.518126 
L 229.272044 76.510836 
L 227.885429 76.500704 
L 226.498815 76.486964 
L 225.1122 76.469108 
L 223.725586 76.446963 
L 222.338971 76.420708 
L 220.952357 76.390821 
L 219.565742 76.35796 
L 218.179128 76.322802 
L 216.792513 76.285845 
L 215.405899 76.247234 
L 214.019284 76.206609 
L 212.63267 76.163034 
L 211.246056 76.114994 
L 209.859441 76.060483 
L 208.472827 75.997167 
L 207.086212 75.922604 
L 205.699598 75.834525 
L 204.312983 75.731152 
L 202.926369 75.611524 
L 201.539754 75.475811 
L 200.15314 75.325538 
L 198.766525 75.163663 
L 197.379911 74.994426 
L 195.993297 74.822939 
L 194.606682 74.65454 
L 193.220068 74.493989 
L 191.833453 74.344662 
L 190.446839 74.207912 
L 189.060224 74.082759 
L 187.67361 73.966002 
L 186.286995 73.852755 
L 184.900381 73.737336 
L 183.513766 73.614321 
L 182.127152 73.479572 
L 180.740538 73.331014 
L 179.353923 73.169016 
L 177.967309 72.996269 
L 176.580694 72.817195 
L 175.19408 72.63702 
L 173.807465 72.460699 
L 172.420851 72.291953 
L 171.034236 72.132621 
L 169.647622 71.982476 
L 168.261007 71.839493 
L 166.874393 71.700495 
L 165.487778 71.56198 
L 164.101164 71.420935 
L 162.71455 71.275485 
L 161.327935 71.125307 
L 159.941321 70.971801 
L 158.554706 70.818085 
L 157.168092 70.668855 
L 155.781477 70.530166 
L 154.394863 70.409085 
L 153.008248 70.313231 
L 151.621634 70.250142 
L 150.235019 70.226526 
L 148.848405 70.247469 
L 147.461791 70.315718 
L 146.075176 70.431205 
L 144.688562 70.590889 
L 143.301947 70.788987 
L 141.915333 71.017567 
L 140.528718 71.267406 
L 139.142104 71.528992 
L 137.755489 71.79352 
L 136.368875 72.053748 
L 134.98226 72.304598 
L 133.595646 72.543428 
L 132.209031 72.769951 
L 130.822417 72.985823 
L 129.435803 73.193978 
L 128.049188 73.39782 
L 126.662574 73.60042 
L 125.275959 73.803824 
L 123.889345 74.008602 
L 122.50273 74.213675 
L 121.116116 74.416443 
L 119.729501 74.613169 
L 118.342887 74.799538 
L 116.956272 74.97132 
L 115.569658 75.125009 
L 114.183044 75.258359 
L 112.796429 75.370735 
L 111.409815 75.46324 
L 110.0232 75.538591 
L 108.636586 75.600767 
L 107.249971 75.654493 
L 105.863357 75.704625 
L 104.476742 75.755526 
L 103.090128 75.810545 
L 101.703513 75.871649 
L 100.316899 75.939284 
L 98.930284 76.012466 
L 97.54367 76.089077 
z
" style="fill:#1f77b4;fill-opacity:0.3;"/>
   </g>
   <g id="PolyCollection_9">
    <path clip-path="url(#p600dd29488)" d="M -50.546754 50.907586 
L -50.546754 51.347572 
L -47.969914 51.388201 
L -45.393073 51.430766 
L -42.816233 51.474501 
L -40.239392 51.518765 
L -37.662552 51.563142 
L -35.085711 51.607501 
L -32.508871 51.652009 
L -29.93203 51.697101 
L -27.35519 51.743437 
L -24.77835 51.791863 
L -22.201509 51.843418 
L -19.624669 51.899403 
L -17.047828 51.9615 
L -14.470988 52.031902 
L -11.894147 52.113396 
L -9.317307 52.209323 
L -6.740466 52.323372 
L -4.163626 52.459184 
L -1.586785 52.619832 
L 0.990055 52.807256 
L 3.566895 53.021801 
L 6.143736 53.261974 
L 8.720576 53.524518 
L 11.297417 53.804796 
L 13.874257 54.097421 
L 16.451098 54.396962 
L 19.027938 54.698558 
L 21.604779 54.998285 
L 24.181619 55.293188 
L 26.75846 55.580993 
L 29.3353 55.859626 
L 31.91214 56.126698 
L 34.488981 56.379166 
L 37.065821 56.613281 
L 39.642662 56.824882 
L 42.219502 57.009969 
L 44.796343 57.165379 
L 47.373183 57.289377 
L 49.950024 57.381974 
L 52.526864 57.444864 
L 55.103705 57.480993 
L 57.680545 57.493895 
L 60.257385 57.486967 
L 62.834226 57.462922 
L 65.411066 57.423546 
L 67.987907 57.36983 
L 70.564747 57.302398 
L 73.141588 57.222067 
L 75.718428 57.130325 
L 78.295269 57.029558 
L 80.872109 56.922916 
L 83.44895 56.813834 
L 86.02579 56.705338 
L 88.60263 56.599318 
L 91.179471 56.49599 
L 93.756311 56.393688 
L 96.333152 56.289069 
L 98.909992 56.177709 
L 101.486833 56.054962 
L 104.063673 55.916917 
L 106.640514 55.761261 
L 109.217354 55.587846 
L 111.794195 55.398862 
L 114.371035 55.198536 
L 116.947876 54.992434 
L 119.524716 54.786477 
L 122.101556 54.585888 
L 124.678397 54.394311 
L 127.255237 54.213283 
L 129.832078 54.042189 
L 132.408918 53.878698 
L 134.985759 53.719557 
L 137.562599 53.561534 
L 140.13944 53.40228 
L 142.71628 53.240892 
L 145.293121 53.078079 
L 147.869961 52.915909 
L 150.446801 52.757266 
L 153.023642 52.605162 
L 155.600482 52.462092 
L 158.177323 52.329585 
L 160.754163 52.208022 
L 163.331004 52.096729 
L 165.907844 51.994294 
L 168.484685 51.899011 
L 171.061525 51.809326 
L 173.638366 51.724205 
L 176.215206 51.643334 
L 178.792046 51.567124 
L 181.368887 51.496545 
L 183.945727 51.432823 
L 186.522568 51.377104 
L 189.099408 51.330139 
L 191.676249 51.292084 
L 194.253089 51.262436 
L 196.82993 51.24011 
L 199.40677 51.223627 
L 201.983611 51.211359 
L 204.560451 51.201765 
L 204.560451 51.053393 
L 204.560451 51.053393 
L 201.983611 51.043799 
L 199.40677 51.03153 
L 196.82993 51.015048 
L 194.253089 50.992722 
L 191.676249 50.963074 
L 189.099408 50.925019 
L 186.522568 50.878054 
L 183.945727 50.822335 
L 181.368887 50.758613 
L 178.792046 50.688034 
L 176.215206 50.611824 
L 173.638366 50.530953 
L 171.061525 50.445832 
L 168.484685 50.356147 
L 165.907844 50.260864 
L 163.331004 50.158429 
L 160.754163 50.047136 
L 158.177323 49.925572 
L 155.600482 49.793066 
L 153.023642 49.649996 
L 150.446801 49.497892 
L 147.869961 49.339249 
L 145.293121 49.177079 
L 142.71628 49.014266 
L 140.13944 48.852878 
L 137.562599 48.693624 
L 134.985759 48.535601 
L 132.408918 48.37646 
L 129.832078 48.212969 
L 127.255237 48.041875 
L 124.678397 47.860847 
L 122.101556 47.66927 
L 119.524716 47.468681 
L 116.947876 47.262724 
L 114.371035 47.056622 
L 111.794195 46.856296 
L 109.217354 46.667311 
L 106.640514 46.493897 
L 104.063673 46.338241 
L 101.486833 46.200196 
L 98.909992 46.077449 
L 96.333152 45.966089 
L 93.756311 45.86147 
L 91.179471 45.759168 
L 88.60263 45.65584 
L 86.02579 45.54982 
L 83.44895 45.441324 
L 80.872109 45.332242 
L 78.295269 45.2256 
L 75.718428 45.124833 
L 73.141588 45.033091 
L 70.564747 44.952759 
L 67.987907 44.885328 
L 65.411066 44.831612 
L 62.834226 44.792236 
L 60.257385 44.76819 
L 57.680545 44.761263 
L 55.103705 44.774165 
L 52.526864 44.810294 
L 49.950024 44.873183 
L 47.373183 44.965781 
L 44.796343 45.089779 
L 42.219502 45.245189 
L 39.642662 45.430276 
L 37.065821 45.641877 
L 34.488981 45.875992 
L 31.91214 46.12846 
L 29.3353 46.395532 
L 26.75846 46.674165 
L 24.181619 46.96197 
L 21.604779 47.256873 
L 19.027938 47.5566 
L 16.451098 47.858196 
L 13.874257 48.157737 
L 11.297417 48.450362 
L 8.720576 48.73064 
L 6.143736 48.993183 
L 3.566895 49.233357 
L 0.990055 49.447902 
L -1.586785 49.635326 
L -4.163626 49.795974 
L -6.740466 49.931786 
L -9.317307 50.045835 
L -11.894147 50.141762 
L -14.470988 50.223256 
L -17.047828 50.293658 
L -19.624669 50.355755 
L -22.201509 50.41174 
L -24.77835 50.463295 
L -27.35519 50.511721 
L -29.93203 50.558057 
L -32.508871 50.603149 
L -35.085711 50.647656 
L -37.662552 50.692016 
L -40.239392 50.736393 
L -42.816233 50.780657 
L -45.393073 50.824392 
L -47.969914 50.866957 
L -50.546754 50.907586 
z
" style="fill:#1f77b4;fill-opacity:0.3;"/>
   </g>
   <g id="PolyCollection_10">
    <path clip-path="url(#p600dd29488)" d="M 58.390549 25.469569 
L 58.390549 25.855062 
L 61.476755 25.887741 
L 64.562961 25.921359 
L 67.649167 25.955573 
L 70.735373 25.990302 
L 73.821579 26.025815 
L 76.907785 26.06282 
L 79.993991 26.102551 
L 83.080197 26.146846 
L 86.166403 26.198195 
L 89.252609 26.259697 
L 92.338815 26.334899 
L 95.425021 26.427475 
L 98.511226 26.540765 
L 101.597432 26.677222 
L 104.683638 26.837875 
L 107.769844 27.021936 
L 110.85605 27.226652 
L 113.942256 27.44747 
L 117.028462 27.678509 
L 120.114668 27.913276 
L 123.200874 28.145491 
L 126.28708 28.369909 
L 129.373286 28.583005 
L 132.459492 28.783433 
L 135.545698 28.972211 
L 138.631903 29.152561 
L 141.718109 29.329444 
L 144.804315 29.508784 
L 147.890521 29.696489 
L 150.976727 29.897391 
L 154.062933 30.114282 
L 157.149139 30.347202 
L 160.235345 30.593112 
L 163.321551 30.846002 
L 166.407757 31.097411 
L 169.493963 31.337258 
L 172.580169 31.554872 
L 175.666374 31.740088 
L 178.75258 31.88431 
L 181.838786 31.981447 
L 184.924992 32.028632 
L 188.011198 32.026642 
L 191.097404 31.979936 
L 194.18361 31.896233 
L 197.269816 31.785643 
L 200.356022 31.659409 
L 203.442228 31.528414 
L 206.528434 31.401688 
L 209.61464 31.28516 
L 212.700846 31.180883 
L 215.787051 31.086907 
L 218.873257 30.997804 
L 221.959463 30.905782 
L 225.045669 30.802144 
L 228.131875 30.678844 
L 231.218081 30.52984 
L 234.304287 30.352039 
L 237.390493 30.145723 
L 240.476699 29.91446 
L 243.562905 29.664572 
L 246.649111 29.404298 
L 249.735317 29.142775 
L 252.821523 28.888965 
L 255.907728 28.650626 
L 258.993934 28.433443 
L 262.08014 28.240412 
L 265.166346 28.071596 
L 268.252552 27.924299 
L 271.338758 27.793664 
L 274.424964 27.673602 
L 277.51117 27.557896 
L 280.597376 27.441254 
L 283.683582 27.320136 
L 286.769788 27.193195 
L 289.855994 27.061276 
L 292.942199 26.927023 
L 296.028405 26.794178 
L 299.114611 26.66677 
L 302.200817 26.548335 
L 305.287023 26.441337 
L 308.373229 26.346875 
L 311.459435 26.264703 
L 314.545641 26.193527 
L 317.631847 26.131464 
L 320.718053 26.076529 
L 323.804259 26.027055 
L 326.890465 25.981922 
L 329.976671 25.940615 
L 333.062876 25.903104 
L 336.149082 25.869642 
L 339.235288 25.840534 
L 342.321494 25.815952 
L 345.4077 25.795815 
L 348.493906 25.779756 
L 351.580112 25.767152 
L 354.666318 25.757199 
L 357.752524 25.749022 
L 360.83873 25.741787 
L 363.924936 25.734808 
L 363.924936 25.589824 
L 363.924936 25.589824 
L 360.83873 25.582844 
L 357.752524 25.575609 
L 354.666318 25.567432 
L 351.580112 25.55748 
L 348.493906 25.544875 
L 345.4077 25.528817 
L 342.321494 25.50868 
L 339.235288 25.484097 
L 336.149082 25.45499 
L 333.062876 25.421528 
L 329.976671 25.384017 
L 326.890465 25.342709 
L 323.804259 25.297577 
L 320.718053 25.248102 
L 317.631847 25.193168 
L 314.545641 25.131104 
L 311.459435 25.059929 
L 308.373229 24.977757 
L 305.287023 24.883294 
L 302.200817 24.776297 
L 299.114611 24.657862 
L 296.028405 24.530454 
L 292.942199 24.397609 
L 289.855994 24.263355 
L 286.769788 24.131437 
L 283.683582 24.004495 
L 280.597376 23.883377 
L 277.51117 23.766735 
L 274.424964 23.651029 
L 271.338758 23.530968 
L 268.252552 23.400333 
L 265.166346 23.253036 
L 262.08014 23.08422 
L 258.993934 22.891189 
L 255.907728 22.674006 
L 252.821523 22.435667 
L 249.735317 22.181857 
L 246.649111 21.920334 
L 243.562905 21.66006 
L 240.476699 21.410172 
L 237.390493 21.178909 
L 234.304287 20.972593 
L 231.218081 20.794791 
L 228.131875 20.645787 
L 225.045669 20.522488 
L 221.959463 20.41885 
L 218.873257 20.326827 
L 215.787051 20.237725 
L 212.700846 20.143748 
L 209.61464 20.039472 
L 206.528434 19.922943 
L 203.442228 19.796218 
L 200.356022 19.665223 
L 197.269816 19.538989 
L 194.18361 19.428399 
L 191.097404 19.344696 
L 188.011198 19.297989 
L 184.924992 19.296 
L 181.838786 19.343184 
L 178.75258 19.440321 
L 175.666374 19.584544 
L 172.580169 19.76976 
L 169.493963 19.987374 
L 166.407757 20.227221 
L 163.321551 20.47863 
L 160.235345 20.73152 
L 157.149139 20.977429 
L 154.062933 21.210349 
L 150.976727 21.427241 
L 147.890521 21.628143 
L 144.804315 21.815848 
L 141.718109 21.995188 
L 138.631903 22.172071 
L 135.545698 22.352421 
L 132.459492 22.541198 
L 129.373286 22.741627 
L 126.28708 22.954722 
L 123.200874 23.17914 
L 120.114668 23.411356 
L 117.028462 23.646123 
L 113.942256 23.877162 
L 110.85605 24.097979 
L 107.769844 24.302695 
L 104.683638 24.486757 
L 101.597432 24.64741 
L 98.511226 24.783866 
L 95.425021 24.897156 
L 92.338815 24.989733 
L 89.252609 25.064935 
L 86.166403 25.126437 
L 83.080197 25.177786 
L 79.993991 25.222081 
L 76.907785 25.261811 
L 73.821579 25.298816 
L 70.735373 25.33433 
L 67.649167 25.369058 
L 64.562961 25.403272 
L 61.476755 25.436891 
L 58.390549 25.469569 
z
" style="fill:#1f77b4;fill-opacity:0.3;"/>
   </g>
   <g id="matplotlib.axis_1">
    <g id="xtick_1">
     <g id="line2d_1">
      <defs>
       <path d="M 0 0 
L 0 3.5 
" id="m7edb8ce5e5" style="stroke:#000000;stroke-width:0.8;"/>
      </defs>
      <g>
       <use style="stroke:#000000;stroke-width:0.8;" x="62.637" xlink:href="#m7edb8ce5e5" y="273.312"/>
      </g>
     </g>
     <g id="text_1">
      <!-- 40 -->
      <defs>
       <path d="M 10.59375 35.5 
L 73.1875 35.5 
L 73.1875 27.203125 
L 10.59375 27.203125 
z
" id="DejaVuSans-8722"/>
       <path d="M 37.796875 64.3125 
L 12.890625 25.390625 
L 37.796875 25.390625 
z
M 35.203125 72.90625 
L 47.609375 72.90625 
L 47.609375 25.390625 
L 58.015625 25.390625 
L 58.015625 17.1875 
L 47.609375 17.1875 
L 47.609375 0 
L 37.796875 0 
L 37.796875 17.1875 
L 4.890625 17.1875 
L 4.890625 26.703125 
z
" id="DejaVuSans-52"/>
       <path d="M 31.78125 66.40625 
Q 24.171875 66.40625 20.328125 58.90625 
Q 16.5 51.421875 16.5 36.375 
Q 16.5 21.390625 20.328125 13.890625 
Q 24.171875 6.390625 31.78125 6.390625 
Q 39.453125 6.390625 43.28125 13.890625 
Q 47.125 21.390625 47.125 36.375 
Q 47.125 51.421875 43.28125 58.90625 
Q 39.453125 66.40625 31.78125 66.40625 
z
M 31.78125 74.21875 
Q 44.046875 74.21875 50.515625 64.515625 
Q 56.984375 54.828125 56.984375 36.375 
Q 56.984375 17.96875 50.515625 8.265625 
Q 44.046875 -1.421875 31.78125 -1.421875 
Q 19.53125 -1.421875 13.0625 8.265625 
Q 6.59375 17.96875 6.59375 36.375 
Q 6.59375 54.828125 13.0625 64.515625 
Q 19.53125 74.21875 31.78125 74.21875 
z
" id="DejaVuSans-48"/>
      </defs>
      <g transform="translate(52.084656 287.910437)scale(0.1 -0.1)">
       <use xlink:href="#DejaVuSans-8722"/>
       <use x="83.789062" xlink:href="#DejaVuSans-52"/>
       <use x="147.412109" xlink:href="#DejaVuSans-48"/>
      </g>
     </g>
    </g>
    <g id="xtick_2">
     <g id="line2d_2">
      <g>
       <use style="stroke:#000000;stroke-width:0.8;" x="134.061" xlink:href="#m7edb8ce5e5" y="273.312"/>
      </g>
     </g>
     <g id="text_2">
      <!-- 20 -->
      <defs>
       <path d="M 19.1875 8.296875 
L 53.609375 8.296875 
L 53.609375 0 
L 7.328125 0 
L 7.328125 8.296875 
Q 12.9375 14.109375 22.625 23.890625 
Q 32.328125 33.6875 34.8125 36.53125 
Q 39.546875 41.84375 41.421875 45.53125 
Q 43.3125 49.21875 43.3125 52.78125 
Q 43.3125 58.59375 39.234375 62.25 
Q 35.15625 65.921875 28.609375 65.921875 
Q 23.96875 65.921875 18.8125 64.3125 
Q 13.671875 62.703125 7.8125 59.421875 
L 7.8125 69.390625 
Q 13.765625 71.78125 18.9375 73 
Q 24.125 74.21875 28.421875 74.21875 
Q 39.75 74.21875 46.484375 68.546875 
Q 53.21875 62.890625 53.21875 53.421875 
Q 53.21875 48.921875 51.53125 44.890625 
Q 49.859375 40.875 45.40625 35.40625 
Q 44.1875 33.984375 37.640625 27.21875 
Q 31.109375 20.453125 19.1875 8.296875 
z
" id="DejaVuSans-50"/>
      </defs>
      <g transform="translate(123.508656 287.910437)scale(0.1 -0.1)">
       <use xlink:href="#DejaVuSans-8722"/>
       <use x="83.789062" xlink:href="#DejaVuSans-50"/>
       <use x="147.412109" xlink:href="#DejaVuSans-48"/>
      </g>
     </g>
    </g>
    <g id="xtick_3">
     <g id="line2d_3">
      <g>
       <use style="stroke:#000000;stroke-width:0.8;" x="205.485" xlink:href="#m7edb8ce5e5" y="273.312"/>
      </g>
     </g>
     <g id="text_3">
      <!-- 0 -->
      <g transform="translate(202.30375 287.910437)scale(0.1 -0.1)">
       <use xlink:href="#DejaVuSans-48"/>
      </g>
     </g>
    </g>
    <g id="xtick_4">
     <g id="line2d_4">
      <g>
       <use style="stroke:#000000;stroke-width:0.8;" x="276.909" xlink:href="#m7edb8ce5e5" y="273.312"/>
      </g>
     </g>
     <g id="text_4">
      <!-- 20 -->
      <g transform="translate(270.5465 287.910437)scale(0.1 -0.1)">
       <use xlink:href="#DejaVuSans-50"/>
       <use x="63.623047" xlink:href="#DejaVuSans-48"/>
      </g>
     </g>
    </g>
    <g id="xtick_5">
     <g id="line2d_5">
      <g>
       <use style="stroke:#000000;stroke-width:0.8;" x="348.333" xlink:href="#m7edb8ce5e5" y="273.312"/>
      </g>
     </g>
     <g id="text_5">
      <!-- 40 -->
      <g transform="translate(341.9705 287.910437)scale(0.1 -0.1)">
       <use xlink:href="#DejaVuSans-52"/>
       <use x="63.623047" xlink:href="#DejaVuSans-48"/>
      </g>
     </g>
    </g>
    <g id="text_6">
     <!-- Velocity [km/s] -->
     <defs>
      <path d="M 28.609375 0 
L 0.78125 72.90625 
L 11.078125 72.90625 
L 34.1875 11.53125 
L 57.328125 72.90625 
L 67.578125 72.90625 
L 39.796875 0 
z
" id="DejaVuSans-86"/>
      <path d="M 56.203125 29.59375 
L 56.203125 25.203125 
L 14.890625 25.203125 
Q 15.484375 15.921875 20.484375 11.0625 
Q 25.484375 6.203125 34.421875 6.203125 
Q 39.59375 6.203125 44.453125 7.46875 
Q 49.3125 8.734375 54.109375 11.28125 
L 54.109375 2.78125 
Q 49.265625 0.734375 44.1875 -0.34375 
Q 39.109375 -1.421875 33.890625 -1.421875 
Q 20.796875 -1.421875 13.15625 6.1875 
Q 5.515625 13.8125 5.515625 26.8125 
Q 5.515625 40.234375 12.765625 48.109375 
Q 20.015625 56 32.328125 56 
Q 43.359375 56 49.78125 48.890625 
Q 56.203125 41.796875 56.203125 29.59375 
z
M 47.21875 32.234375 
Q 47.125 39.59375 43.09375 43.984375 
Q 39.0625 48.390625 32.421875 48.390625 
Q 24.90625 48.390625 20.390625 44.140625 
Q 15.875 39.890625 15.1875 32.171875 
z
" id="DejaVuSans-101"/>
      <path d="M 9.421875 75.984375 
L 18.40625 75.984375 
L 18.40625 0 
L 9.421875 0 
z
" id="DejaVuSans-108"/>
      <path d="M 30.609375 48.390625 
Q 23.390625 48.390625 19.1875 42.75 
Q 14.984375 37.109375 14.984375 27.296875 
Q 14.984375 17.484375 19.15625 11.84375 
Q 23.34375 6.203125 30.609375 6.203125 
Q 37.796875 6.203125 41.984375 11.859375 
Q 46.1875 17.53125 46.1875 27.296875 
Q 46.1875 37.015625 41.984375 42.703125 
Q 37.796875 48.390625 30.609375 48.390625 
z
M 30.609375 56 
Q 42.328125 56 49.015625 48.375 
Q 55.71875 40.765625 55.71875 27.296875 
Q 55.71875 13.875 49.015625 6.21875 
Q 42.328125 -1.421875 30.609375 -1.421875 
Q 18.84375 -1.421875 12.171875 6.21875 
Q 5.515625 13.875 5.515625 27.296875 
Q 5.515625 40.765625 12.171875 48.375 
Q 18.84375 56 30.609375 56 
z
" id="DejaVuSans-111"/>
      <path d="M 48.78125 52.59375 
L 48.78125 44.1875 
Q 44.96875 46.296875 41.140625 47.34375 
Q 37.3125 48.390625 33.40625 48.390625 
Q 24.65625 48.390625 19.8125 42.84375 
Q 14.984375 37.3125 14.984375 27.296875 
Q 14.984375 17.28125 19.8125 11.734375 
Q 24.65625 6.203125 33.40625 6.203125 
Q 37.3125 6.203125 41.140625 7.25 
Q 44.96875 8.296875 48.78125 10.40625 
L 48.78125 2.09375 
Q 45.015625 0.34375 40.984375 -0.53125 
Q 36.96875 -1.421875 32.421875 -1.421875 
Q 20.0625 -1.421875 12.78125 6.34375 
Q 5.515625 14.109375 5.515625 27.296875 
Q 5.515625 40.671875 12.859375 48.328125 
Q 20.21875 56 33.015625 56 
Q 37.15625 56 41.109375 55.140625 
Q 45.0625 54.296875 48.78125 52.59375 
z
" id="DejaVuSans-99"/>
      <path d="M 9.421875 54.6875 
L 18.40625 54.6875 
L 18.40625 0 
L 9.421875 0 
z
M 9.421875 75.984375 
L 18.40625 75.984375 
L 18.40625 64.59375 
L 9.421875 64.59375 
z
" id="DejaVuSans-105"/>
      <path d="M 18.3125 70.21875 
L 18.3125 54.6875 
L 36.8125 54.6875 
L 36.8125 47.703125 
L 18.3125 47.703125 
L 18.3125 18.015625 
Q 18.3125 11.328125 20.140625 9.421875 
Q 21.96875 7.515625 27.59375 7.515625 
L 36.8125 7.515625 
L 36.8125 0 
L 27.59375 0 
Q 17.1875 0 13.234375 3.875 
Q 9.28125 7.765625 9.28125 18.015625 
L 9.28125 47.703125 
L 2.6875 47.703125 
L 2.6875 54.6875 
L 9.28125 54.6875 
L 9.28125 70.21875 
z
" id="DejaVuSans-116"/>
      <path d="M 32.171875 -5.078125 
Q 28.375 -14.84375 24.75 -17.8125 
Q 21.140625 -20.796875 15.09375 -20.796875 
L 7.90625 -20.796875 
L 7.90625 -13.28125 
L 13.1875 -13.28125 
Q 16.890625 -13.28125 18.9375 -11.515625 
Q 21 -9.765625 23.484375 -3.21875 
L 25.09375 0.875 
L 2.984375 54.6875 
L 12.5 54.6875 
L 29.59375 11.921875 
L 46.6875 54.6875 
L 56.203125 54.6875 
z
" id="DejaVuSans-121"/>
      <path id="DejaVuSans-32"/>
      <path d="M 8.59375 75.984375 
L 29.296875 75.984375 
L 29.296875 69 
L 17.578125 69 
L 17.578125 -6.203125 
L 29.296875 -6.203125 
L 29.296875 -13.1875 
L 8.59375 -13.1875 
z
" id="DejaVuSans-91"/>
      <path d="M 9.078125 75.984375 
L 18.109375 75.984375 
L 18.109375 31.109375 
L 44.921875 54.6875 
L 56.390625 54.6875 
L 27.390625 29.109375 
L 57.625 0 
L 45.90625 0 
L 18.109375 26.703125 
L 18.109375 0 
L 9.078125 0 
z
" id="DejaVuSans-107"/>
      <path d="M 52 44.1875 
Q 55.375 50.25 60.0625 53.125 
Q 64.75 56 71.09375 56 
Q 79.640625 56 84.28125 50.015625 
Q 88.921875 44.046875 88.921875 33.015625 
L 88.921875 0 
L 79.890625 0 
L 79.890625 32.71875 
Q 79.890625 40.578125 77.09375 44.375 
Q 74.3125 48.1875 68.609375 48.1875 
Q 61.625 48.1875 57.5625 43.546875 
Q 53.515625 38.921875 53.515625 30.90625 
L 53.515625 0 
L 44.484375 0 
L 44.484375 32.71875 
Q 44.484375 40.625 41.703125 44.40625 
Q 38.921875 48.1875 33.109375 48.1875 
Q 26.21875 48.1875 22.15625 43.53125 
Q 18.109375 38.875 18.109375 30.90625 
L 18.109375 0 
L 9.078125 0 
L 9.078125 54.6875 
L 18.109375 54.6875 
L 18.109375 46.1875 
Q 21.1875 51.21875 25.484375 53.609375 
Q 29.78125 56 35.6875 56 
Q 41.65625 56 45.828125 52.96875 
Q 50 49.953125 52 44.1875 
z
" id="DejaVuSans-109"/>
      <path d="M 25.390625 72.90625 
L 33.6875 72.90625 
L 8.296875 -9.28125 
L 0 -9.28125 
z
" id="DejaVuSans-47"/>
      <path d="M 44.28125 53.078125 
L 44.28125 44.578125 
Q 40.484375 46.53125 36.375 47.5 
Q 32.28125 48.484375 27.875 48.484375 
Q 21.1875 48.484375 17.84375 46.4375 
Q 14.5 44.390625 14.5 40.28125 
Q 14.5 37.15625 16.890625 35.375 
Q 19.28125 33.59375 26.515625 31.984375 
L 29.59375 31.296875 
Q 39.15625 29.25 43.1875 25.515625 
Q 47.21875 21.78125 47.21875 15.09375 
Q 47.21875 7.46875 41.1875 3.015625 
Q 35.15625 -1.421875 24.609375 -1.421875 
Q 20.21875 -1.421875 15.453125 -0.5625 
Q 10.6875 0.296875 5.421875 2 
L 5.421875 11.28125 
Q 10.40625 8.6875 15.234375 7.390625 
Q 20.0625 6.109375 24.8125 6.109375 
Q 31.15625 6.109375 34.5625 8.28125 
Q 37.984375 10.453125 37.984375 14.40625 
Q 37.984375 18.0625 35.515625 20.015625 
Q 33.0625 21.96875 24.703125 23.78125 
L 21.578125 24.515625 
Q 13.234375 26.265625 9.515625 29.90625 
Q 5.8125 33.546875 5.8125 39.890625 
Q 5.8125 47.609375 11.28125 51.796875 
Q 16.75 56 26.8125 56 
Q 31.78125 56 36.171875 55.265625 
Q 40.578125 54.546875 44.28125 53.078125 
z
" id="DejaVuSans-115"/>
      <path d="M 30.421875 75.984375 
L 30.421875 -13.1875 
L 9.71875 -13.1875 
L 9.71875 -6.203125 
L 21.390625 -6.203125 
L 21.390625 69 
L 9.71875 69 
L 9.71875 75.984375 
z
" id="DejaVuSans-93"/>
     </defs>
     <g transform="translate(167.942031 301.588562)scale(0.1 -0.1)">
      <use xlink:href="#DejaVuSans-86"/>
      <use x="68.298828" xlink:href="#DejaVuSans-101"/>
      <use x="129.822266" xlink:href="#DejaVuSans-108"/>
      <use x="157.605469" xlink:href="#DejaVuSans-111"/>
      <use x="218.787109" xlink:href="#DejaVuSans-99"/>
      <use x="273.767578" xlink:href="#DejaVuSans-105"/>
      <use x="301.550781" xlink:href="#DejaVuSans-116"/>
      <use x="340.759766" xlink:href="#DejaVuSans-121"/>
      <use x="399.939453" xlink:href="#DejaVuSans-32"/>
      <use x="431.726562" xlink:href="#DejaVuSans-91"/>
      <use x="470.740234" xlink:href="#DejaVuSans-107"/>
      <use x="528.650391" xlink:href="#DejaVuSans-109"/>
      <use x="626.0625" xlink:href="#DejaVuSans-47"/>
      <use x="659.753906" xlink:href="#DejaVuSans-115"/>
      <use x="711.853516" xlink:href="#DejaVuSans-93"/>
     </g>
    </g>
   </g>
   <g id="matplotlib.axis_2">
    <g id="ytick_1">
     <g id="line2d_6">
      <defs>
       <path d="M 0 0 
L -3.5 0 
" id="m02089e2975" style="stroke:#000000;stroke-width:0.8;"/>
      </defs>
      <g>
       <use style="stroke:#000000;stroke-width:0.8;" x="26.925" xlink:href="#m02089e2975" y="229.384421"/>
      </g>
     </g>
     <g id="text_7">
      <!-- 2 -->
      <g transform="translate(13.5625 233.18364)scale(0.1 -0.1)">
       <use xlink:href="#DejaVuSans-50"/>
      </g>
     </g>
    </g>
    <g id="ytick_2">
     <g id="line2d_7">
      <g>
       <use style="stroke:#000000;stroke-width:0.8;" x="26.925" xlink:href="#m02089e2975" y="178.453895"/>
      </g>
     </g>
     <g id="text_8">
      <!-- 4 -->
      <g transform="translate(13.5625 182.253113)scale(0.1 -0.1)">
       <use xlink:href="#DejaVuSans-52"/>
      </g>
     </g>
    </g>
    <g id="ytick_3">
     <g id="line2d_8">
      <g>
       <use style="stroke:#000000;stroke-width:0.8;" x="26.925" xlink:href="#m02089e2975" y="127.523368"/>
      </g>
     </g>
     <g id="text_9">
      <!-- 6 -->
      <defs>
       <path d="M 33.015625 40.375 
Q 26.375 40.375 22.484375 35.828125 
Q 18.609375 31.296875 18.609375 23.390625 
Q 18.609375 15.53125 22.484375 10.953125 
Q 26.375 6.390625 33.015625 6.390625 
Q 39.65625 6.390625 43.53125 10.953125 
Q 47.40625 15.53125 47.40625 23.390625 
Q 47.40625 31.296875 43.53125 35.828125 
Q 39.65625 40.375 33.015625 40.375 
z
M 52.59375 71.296875 
L 52.59375 62.3125 
Q 48.875 64.0625 45.09375 64.984375 
Q 41.3125 65.921875 37.59375 65.921875 
Q 27.828125 65.921875 22.671875 59.328125 
Q 17.53125 52.734375 16.796875 39.40625 
Q 19.671875 43.65625 24.015625 45.921875 
Q 28.375 48.1875 33.59375 48.1875 
Q 44.578125 48.1875 50.953125 41.515625 
Q 57.328125 34.859375 57.328125 23.390625 
Q 57.328125 12.15625 50.6875 5.359375 
Q 44.046875 -1.421875 33.015625 -1.421875 
Q 20.359375 -1.421875 13.671875 8.265625 
Q 6.984375 17.96875 6.984375 36.375 
Q 6.984375 53.65625 15.1875 63.9375 
Q 23.390625 74.21875 37.203125 74.21875 
Q 40.921875 74.21875 44.703125 73.484375 
Q 48.484375 72.75 52.59375 71.296875 
z
" id="DejaVuSans-54"/>
      </defs>
      <g transform="translate(13.5625 131.322587)scale(0.1 -0.1)">
       <use xlink:href="#DejaVuSans-54"/>
      </g>
     </g>
    </g>
    <g id="ytick_4">
     <g id="line2d_9">
      <g>
       <use style="stroke:#000000;stroke-width:0.8;" x="26.925" xlink:href="#m02089e2975" y="76.592842"/>
      </g>
     </g>
     <g id="text_10">
      <!-- 8 -->
      <defs>
       <path d="M 31.78125 34.625 
Q 24.75 34.625 20.71875 30.859375 
Q 16.703125 27.09375 16.703125 20.515625 
Q 16.703125 13.921875 20.71875 10.15625 
Q 24.75 6.390625 31.78125 6.390625 
Q 38.8125 6.390625 42.859375 10.171875 
Q 46.921875 13.96875 46.921875 20.515625 
Q 46.921875 27.09375 42.890625 30.859375 
Q 38.875 34.625 31.78125 34.625 
z
M 21.921875 38.8125 
Q 15.578125 40.375 12.03125 44.71875 
Q 8.5 49.078125 8.5 55.328125 
Q 8.5 64.0625 14.71875 69.140625 
Q 20.953125 74.21875 31.78125 74.21875 
Q 42.671875 74.21875 48.875 69.140625 
Q 55.078125 64.0625 55.078125 55.328125 
Q 55.078125 49.078125 51.53125 44.71875 
Q 48 40.375 41.703125 38.8125 
Q 48.828125 37.15625 52.796875 32.3125 
Q 56.78125 27.484375 56.78125 20.515625 
Q 56.78125 9.90625 50.3125 4.234375 
Q 43.84375 -1.421875 31.78125 -1.421875 
Q 19.734375 -1.421875 13.25 4.234375 
Q 6.78125 9.90625 6.78125 20.515625 
Q 6.78125 27.484375 10.78125 32.3125 
Q 14.796875 37.15625 21.921875 38.8125 
z
M 18.3125 54.390625 
Q 18.3125 48.734375 21.84375 45.5625 
Q 25.390625 42.390625 31.78125 42.390625 
Q 38.140625 42.390625 41.71875 45.5625 
Q 45.3125 48.734375 45.3125 54.390625 
Q 45.3125 60.0625 41.71875 63.234375 
Q 38.140625 66.40625 31.78125 66.40625 
Q 25.390625 66.40625 21.84375 63.234375 
Q 18.3125 60.0625 18.3125 54.390625 
z
" id="DejaVuSans-56"/>
      </defs>
      <g transform="translate(13.5625 80.392061)scale(0.1 -0.1)">
       <use xlink:href="#DejaVuSans-56"/>
      </g>
     </g>
    </g>
    <g id="ytick_5">
     <g id="line2d_10">
      <g>
       <use style="stroke:#000000;stroke-width:0.8;" x="26.925" xlink:href="#m02089e2975" y="25.662316"/>
      </g>
     </g>
     <g id="text_11">
      <!-- 10 -->
      <defs>
       <path d="M 12.40625 8.296875 
L 28.515625 8.296875 
L 28.515625 63.921875 
L 10.984375 60.40625 
L 10.984375 69.390625 
L 28.421875 72.90625 
L 38.28125 72.90625 
L 38.28125 8.296875 
L 54.390625 8.296875 
L 54.390625 0 
L 12.40625 0 
z
" id="DejaVuSans-49"/>
      </defs>
      <g transform="translate(7.2 29.461535)scale(0.1 -0.1)">
       <use xlink:href="#DejaVuSans-49"/>
       <use x="63.623047" xlink:href="#DejaVuSans-48"/>
      </g>
     </g>
    </g>
   </g>
   <g id="patch_3">
    <path d="M 26.925 273.312 
L 26.925 7.2 
" style="fill:none;stroke:#000000;stroke-linecap:square;stroke-linejoin:miter;stroke-width:0.8;"/>
   </g>
   <g id="patch_4">
    <path d="M 384.045 273.312 
L 384.045 7.2 
" style="fill:none;stroke:#000000;stroke-linecap:square;stroke-linejoin:miter;stroke-width:0.8;"/>
   </g>
   <g id="patch_5">
    <path d="M 26.925 273.312 
L 384.045 273.312 
" style="fill:none;stroke:#000000;stroke-linecap:square;stroke-linejoin:miter;stroke-width:0.8;"/>
   </g>
   <g id="patch_6">
    <path d="M 26.925 7.2 
L 384.045 7.2 
" style="fill:none;stroke:#000000;stroke-linecap:square;stroke-linejoin:miter;stroke-width:0.8;"/>
   </g>
  </g>
 </g>
 <defs>
  <clipPath id="p600dd29488">
   <rect height="266.112" width="357.12" x="26.925" y="7.2"/>
  </clipPath>
 </defs>
</svg>
