<?xml version="1.0" encoding="utf-8" standalone="no"?>
<!DOCTYPE svg PUBLIC "-//W3C//DTD SVG 1.1//EN"
  "http://www.w3.org/Graphics/SVG/1.1/DTD/svg11.dtd">
<svg xmlns:xlink="http://www.w3.org/1999/xlink" width="421.929375pt" height="310.062pt" viewBox="0 0 421.929375 310.062" xmlns="http://www.w3.org/2000/svg" version="1.1">
 <metadata>
  <rdf:RDF xmlns:dc="http://purl.org/dc/elements/1.1/" xmlns:cc="http://creativecommons.org/ns#" xmlns:rdf="http://www.w3.org/1999/02/22-rdf-syntax-ns#">
   <cc:Work>
    <dc:type rdf:resource="http://purl.org/dc/dcmitype/StillImage"/>
    <dc:date>2024-05-29T23:51:26.851493</dc:date>
    <dc:format>image/svg+xml</dc:format>
    <dc:creator>
     <cc:Agent>
      <dc:title>Matplotlib v3.9.0, https://matplotlib.org/</dc:title>
     </cc:Agent>
    </dc:creator>
   </cc:Work>
  </rdf:RDF>
 </metadata>
 <defs>
  <style type="text/css">*{stroke-linejoin: round; stroke-linecap: butt}</style>
 </defs>
 <g id="figure_1">
  <g id="patch_1">
   <path d="M 0 310.062 
L 421.929375 310.062 
L 421.929375 0 
L 0 0 
z
" style="fill: #ffffff"/>
  </g>
  <g id="axes_1">
   <g id="patch_2">
    <path d="M 55.859375 275.062 
L 412.979375 275.062 
L 412.979375 8.95 
L 55.859375 8.95 
z
" style="fill: #ffffff"/>
   </g>
   <g id="PolyCollection_1">
    <defs>
     <path id="m2a13314bf8" d="M 76.664702 -90.642214 
L 76.664702 -54.289683 
L 77.466912 -54.834134 
L 78.269122 -55.378584 
L 79.071333 -55.923035 
L 79.873543 -56.467485 
L 80.675753 -57.011935 
L 81.477964 -57.556386 
L 82.280174 -58.100836 
L 83.082385 -58.645287 
L 83.884595 -59.189737 
L 84.686805 -59.734187 
L 85.489016 -60.278638 
L 86.291226 -60.823088 
L 87.093437 -61.367539 
L 87.895647 -61.911989 
L 88.697857 -62.456439 
L 89.500068 -63.00089 
L 90.302278 -63.54534 
L 91.104489 -64.089791 
L 91.906699 -64.634241 
L 92.708909 -65.178691 
L 93.51112 -65.723142 
L 94.31333 -66.267592 
L 95.115541 -66.812043 
L 95.917751 -67.356493 
L 96.719961 -67.900943 
L 97.522172 -68.445394 
L 98.324382 -68.989844 
L 99.126592 -69.534295 
L 99.928803 -70.078745 
L 100.731013 -70.623196 
L 101.533224 -71.167646 
L 102.335434 -71.712096 
L 103.137644 -72.256547 
L 103.939855 -72.800997 
L 104.742065 -73.345448 
L 105.544276 -73.889898 
L 106.346486 -74.434349 
L 107.148696 -74.978799 
L 107.950907 -75.523249 
L 108.753117 -76.0677 
L 109.555328 -76.61215 
L 110.357538 -77.156601 
L 111.159748 -77.701051 
L 111.961959 -78.245502 
L 112.764169 -78.792984 
L 113.56638 -79.341047 
L 114.36859 -79.88911 
L 115.1708 -80.437173 
L 115.973011 -80.985236 
L 116.775221 -81.5333 
L 117.577431 -82.081365 
L 118.379642 -82.629429 
L 119.181852 -83.177494 
L 119.984063 -83.72556 
L 120.786273 -84.273625 
L 121.588483 -84.821691 
L 122.390694 -85.369758 
L 123.192904 -85.917825 
L 123.995115 -86.465892 
L 124.797325 -87.01396 
L 125.599535 -87.562027 
L 126.401746 -88.110096 
L 127.203956 -88.658164 
L 128.006167 -89.206233 
L 128.808377 -89.754303 
L 129.610587 -90.302373 
L 130.412798 -90.850443 
L 131.215008 -91.398513 
L 132.017219 -91.946584 
L 132.819429 -92.494655 
L 133.621639 -93.042727 
L 134.42385 -93.590799 
L 135.22606 -94.138871 
L 136.02827 -94.686944 
L 136.830481 -95.235017 
L 137.632691 -95.78309 
L 138.434902 -96.331164 
L 139.237112 -96.879458 
L 140.039322 -97.429126 
L 140.841533 -97.978795 
L 141.643743 -98.528465 
L 142.445954 -99.078135 
L 143.248164 -99.627806 
L 144.050374 -100.177478 
L 144.852585 -100.727151 
L 145.654795 -101.276825 
L 146.457006 -101.826499 
L 147.259216 -102.376174 
L 148.061426 -102.92585 
L 148.863637 -103.475527 
L 149.665847 -104.025205 
L 150.468058 -104.574883 
L 151.270268 -105.124562 
L 152.072478 -105.674242 
L 152.874689 -106.223923 
L 153.676899 -106.773604 
L 154.479109 -107.323286 
L 155.28132 -107.872969 
L 156.08353 -108.422653 
L 156.885741 -108.972338 
L 157.687951 -109.530607 
L 158.490161 -110.094488 
L 159.292372 -110.658369 
L 160.094582 -111.222251 
L 160.896793 -111.786134 
L 161.699003 -112.350018 
L 162.501213 -112.913902 
L 163.303424 -113.477788 
L 164.105634 -114.022695 
L 164.907845 -114.538648 
L 165.710055 -115.055318 
L 166.512265 -115.574738 
L 167.314476 -116.094161 
L 168.116686 -116.642201 
L 168.918897 -117.199098 
L 169.721107 -117.756898 
L 170.523317 -118.314699 
L 171.325528 -118.872501 
L 172.127738 -119.430302 
L 172.929948 -119.988104 
L 173.732159 -120.545907 
L 174.534369 -121.10371 
L 175.33658 -121.661513 
L 176.13879 -122.219316 
L 176.941 -122.77712 
L 177.743211 -123.334925 
L 178.545421 -123.892729 
L 179.347632 -124.450534 
L 180.149842 -125.00834 
L 180.952052 -125.566146 
L 181.754263 -126.123952 
L 182.556473 -126.681758 
L 183.358684 -127.239565 
L 184.160894 -127.797372 
L 184.963104 -128.35518 
L 185.765315 -128.912988 
L 186.567525 -129.470796 
L 187.369736 -130.028605 
L 188.171946 -130.586414 
L 188.974156 -131.144223 
L 189.776367 -131.702033 
L 190.578577 -132.259843 
L 191.380787 -132.817654 
L 192.182998 -133.375465 
L 192.985208 -133.933276 
L 193.787419 -134.491088 
L 194.589629 -135.0489 
L 195.391839 -135.606712 
L 196.19405 -136.164525 
L 196.99626 -136.722338 
L 197.798471 -137.280151 
L 198.600681 -137.837965 
L 199.402891 -138.395779 
L 200.205102 -138.953594 
L 201.007312 -139.511409 
L 201.809523 -140.069224 
L 202.611733 -140.627039 
L 203.413943 -141.184855 
L 204.216154 -141.742672 
L 205.018364 -142.300489 
L 205.820575 -142.858306 
L 206.622785 -143.416123 
L 207.424995 -143.973941 
L 208.227206 -144.526737 
L 209.029416 -145.02904 
L 209.831626 -145.531347 
L 210.633837 -146.033658 
L 211.436047 -146.535973 
L 212.238258 -147.038292 
L 213.040468 -147.540614 
L 213.842678 -148.04294 
L 214.644889 -148.54527 
L 215.447099 -149.047603 
L 216.24931 -149.549941 
L 217.05152 -150.052282 
L 217.85373 -150.554626 
L 218.655941 -151.056975 
L 219.458151 -151.54928 
L 220.260362 -152.037639 
L 221.062572 -152.539304 
L 221.864782 -153.046873 
L 222.666993 -153.534447 
L 223.469203 -154.02202 
L 224.271414 -154.509595 
L 225.073624 -155.005824 
L 225.875834 -155.559705 
L 226.678045 -156.168956 
L 227.480255 -156.778236 
L 228.282466 -157.351031 
L 229.084676 -157.884575 
L 229.886886 -158.418123 
L 230.689097 -158.951674 
L 231.491307 -159.485229 
L 232.293517 -160.018788 
L 233.095728 -160.552351 
L 233.897938 -161.085917 
L 234.700149 -161.619488 
L 235.502359 -162.15944 
L 236.304569 -162.710867 
L 237.10678 -163.262295 
L 237.90899 -163.813724 
L 238.711201 -164.365155 
L 239.513411 -164.916587 
L 240.315621 -165.468021 
L 241.117832 -166.019456 
L 241.920042 -166.570893 
L 242.722253 -167.122331 
L 243.524463 -167.67377 
L 244.326673 -168.225211 
L 245.128884 -168.776653 
L 245.931094 -169.328097 
L 246.733305 -169.879542 
L 247.535515 -170.430989 
L 248.337725 -170.982437 
L 249.139936 -171.533886 
L 249.942146 -172.085337 
L 250.744356 -172.636789 
L 251.546567 -173.188243 
L 252.348777 -173.739698 
L 253.150988 -174.291154 
L 253.953198 -174.842612 
L 254.755408 -175.394072 
L 255.557619 -175.945533 
L 256.359829 -176.496995 
L 257.16204 -177.048459 
L 257.96425 -177.609153 
L 258.76646 -178.153476 
L 259.568671 -178.677111 
L 260.370881 -179.209761 
L 261.173092 -179.742414 
L 261.975302 -180.275072 
L 262.777512 -180.807735 
L 263.579723 -181.340402 
L 264.381933 -181.873073 
L 265.184144 -182.405748 
L 265.986354 -182.938428 
L 266.788564 -183.471112 
L 267.590775 -183.906331 
L 268.392985 -184.331228 
L 269.195195 -184.756132 
L 269.997406 -185.181045 
L 270.799616 -185.605966 
L 271.601827 -186.030895 
L 272.404037 -186.455833 
L 273.206247 -186.9129 
L 274.008458 -187.383661 
L 274.810668 -187.869094 
L 275.612879 -188.367983 
L 276.415089 -188.866877 
L 277.217299 -189.382463 
L 278.01951 -189.914457 
L 278.82172 -190.446455 
L 279.623931 -190.978457 
L 280.426141 -191.510463 
L 281.228351 -192.042473 
L 282.030562 -192.574488 
L 282.832772 -193.106507 
L 283.634983 -193.63853 
L 284.437193 -194.170558 
L 285.239403 -194.621473 
L 286.041614 -195.052989 
L 286.843824 -195.484511 
L 287.646034 -195.91604 
L 288.448245 -196.347576 
L 289.250455 -196.779118 
L 290.052666 -197.210667 
L 290.854876 -197.642222 
L 291.657086 -198.113369 
L 292.459297 -198.567629 
L 293.261507 -198.978165 
L 294.063718 -199.3887 
L 294.865928 -199.799235 
L 295.668138 -200.209771 
L 296.470349 -200.620306 
L 297.272559 -201.030842 
L 298.07477 -201.441377 
L 298.87698 -201.851913 
L 299.67919 -202.262449 
L 300.481401 -202.672985 
L 301.283611 -203.083521 
L 302.085822 -203.494057 
L 302.888032 -203.904593 
L 303.690242 -204.315129 
L 304.492453 -204.729565 
L 305.294663 -205.144833 
L 306.096873 -205.560101 
L 306.899084 -205.975369 
L 307.701294 -206.356556 
L 308.503505 -206.749153 
L 309.305715 -207.148264 
L 310.107925 -207.582323 
L 310.910136 -207.988887 
L 311.712346 -208.386298 
L 312.514557 -208.783713 
L 313.316767 -209.188661 
L 314.118977 -209.614653 
L 314.921188 -210.044442 
L 315.723398 -210.518543 
L 316.525609 -210.958596 
L 317.327819 -211.373866 
L 318.130029 -211.789978 
L 318.93224 -212.225966 
L 319.73445 -212.686753 
L 320.536661 -213.176144 
L 321.338871 -213.665547 
L 322.141081 -214.15496 
L 322.943292 -214.644385 
L 323.745502 -215.13382 
L 324.547712 -215.623267 
L 325.349923 -216.112725 
L 326.152133 -216.602193 
L 326.954344 -216.990473 
L 327.756554 -217.364231 
L 328.558764 -217.737994 
L 329.360975 -218.11176 
L 330.163185 -218.48553 
L 330.965396 -218.859305 
L 331.767606 -219.233083 
L 332.569816 -219.606865 
L 333.372027 -219.980651 
L 334.174237 -220.354441 
L 334.976448 -220.728235 
L 335.778658 -221.102032 
L 336.580868 -221.475834 
L 337.383079 -221.84964 
L 338.185289 -222.218278 
L 338.9875 -222.580743 
L 339.78971 -222.943208 
L 340.59192 -223.305672 
L 341.394131 -223.668137 
L 342.196341 -224.030979 
L 342.998551 -224.481429 
L 343.800762 -224.932375 
L 344.602972 -225.392496 
L 345.405183 -225.852622 
L 346.207393 -226.312754 
L 347.009603 -226.738898 
L 347.811814 -227.154171 
L 348.614024 -227.569443 
L 349.416235 -227.984716 
L 350.218445 -228.399989 
L 351.020655 -228.815263 
L 351.822866 -229.230536 
L 352.625076 -229.645809 
L 353.427287 -230.061083 
L 354.229497 -230.476356 
L 355.031707 -230.89163 
L 355.833918 -231.306903 
L 356.636128 -231.722177 
L 357.438339 -232.137451 
L 358.240549 -232.552725 
L 359.042759 -232.967999 
L 359.84497 -233.383273 
L 360.64718 -233.798547 
L 361.44939 -234.213821 
L 362.251601 -234.629096 
L 363.053811 -235.04437 
L 363.856022 -235.459644 
L 364.658232 -235.874919 
L 365.460442 -236.290194 
L 366.262653 -236.705469 
L 367.064863 -237.120743 
L 367.867074 -237.536018 
L 368.669284 -237.951293 
L 369.471494 -238.366569 
L 370.273705 -238.769127 
L 371.075915 -239.158896 
L 371.878126 -239.548665 
L 372.680336 -239.938435 
L 373.482546 -240.328206 
L 374.284757 -240.717978 
L 375.086967 -241.10775 
L 375.889178 -241.497523 
L 376.691388 -241.887297 
L 377.493598 -242.277072 
L 378.295809 -242.666847 
L 379.098019 -243.056623 
L 379.90023 -243.4464 
L 380.70244 -243.836178 
L 381.50465 -244.225956 
L 382.306861 -244.615736 
L 383.109071 -245.005516 
L 383.911281 -245.395296 
L 384.713492 -245.785078 
L 385.515702 -246.17486 
L 386.317913 -246.564643 
L 387.120123 -246.954427 
L 387.922333 -247.344212 
L 388.724544 -247.733997 
L 389.526754 -248.123783 
L 390.328965 -248.51357 
L 391.131175 -248.903358 
L 391.933385 -249.293146 
L 392.735596 -249.693735 
L 393.537806 -250.097573 
L 394.340017 -250.501411 
L 395.142227 -250.90525 
L 395.944437 -251.30909 
L 396.746648 -251.712931 
L 396.746648 -276.677833 
L 396.746648 -276.677833 
L 395.944437 -276.121263 
L 395.142227 -275.564694 
L 394.340017 -275.008126 
L 393.537806 -274.451558 
L 392.735596 -273.894991 
L 391.933385 -273.338424 
L 391.131175 -272.781859 
L 390.328965 -272.225294 
L 389.526754 -271.668729 
L 388.724544 -271.112165 
L 387.922333 -270.555602 
L 387.120123 -269.99904 
L 386.317913 -269.442478 
L 385.515702 -268.885917 
L 384.713492 -268.329357 
L 383.911281 -267.767246 
L 383.109071 -267.20259 
L 382.306861 -266.637934 
L 381.50465 -266.073278 
L 380.70244 -265.508622 
L 379.90023 -264.943967 
L 379.098019 -264.379313 
L 378.295809 -263.814658 
L 377.493598 -263.250004 
L 376.691388 -262.685351 
L 375.889178 -262.120698 
L 375.086967 -261.556045 
L 374.284757 -260.991392 
L 373.482546 -260.42674 
L 372.680336 -259.862088 
L 371.878126 -259.297436 
L 371.075915 -258.732785 
L 370.273705 -258.168134 
L 369.471494 -257.603484 
L 368.669284 -257.038834 
L 367.867074 -256.474184 
L 367.064863 -255.909535 
L 366.262653 -255.344885 
L 365.460442 -254.780237 
L 364.658232 -254.215588 
L 363.856022 -253.65094 
L 363.053811 -253.086293 
L 362.251601 -252.521645 
L 361.44939 -251.956998 
L 360.64718 -251.392352 
L 359.84497 -250.827705 
L 359.042759 -250.263059 
L 358.240549 -249.698414 
L 357.438339 -249.133769 
L 356.636128 -248.569124 
L 355.833918 -248.004479 
L 355.031707 -247.439835 
L 354.229497 -246.875191 
L 353.427287 -246.310548 
L 352.625076 -245.745904 
L 351.822866 -245.17965 
L 351.020655 -244.605536 
L 350.218445 -244.031423 
L 349.416235 -243.45731 
L 348.614024 -242.883198 
L 347.811814 -242.309086 
L 347.009603 -241.734974 
L 346.207393 -241.160863 
L 345.405183 -240.586751 
L 344.602972 -240.012641 
L 343.800762 -239.43853 
L 342.998551 -238.86442 
L 342.196341 -238.290311 
L 341.394131 -237.716201 
L 340.59192 -237.142092 
L 339.78971 -236.567984 
L 338.9875 -235.993875 
L 338.185289 -235.419768 
L 337.383079 -234.84566 
L 336.580868 -234.271553 
L 335.778658 -233.697446 
L 334.976448 -233.123339 
L 334.174237 -232.549233 
L 333.372027 -231.975127 
L 332.569816 -231.401022 
L 331.767606 -230.826917 
L 330.965396 -230.252812 
L 330.163185 -229.678707 
L 329.360975 -229.104603 
L 328.558764 -228.5305 
L 327.756554 -227.956396 
L 326.954344 -227.442989 
L 326.152133 -227.045052 
L 325.349923 -226.647172 
L 324.547712 -226.138451 
L 323.745502 -225.620237 
L 322.943292 -225.102079 
L 322.141081 -224.583978 
L 321.338871 -224.065933 
L 320.536661 -223.547945 
L 319.73445 -223.030014 
L 318.93224 -222.512139 
L 318.130029 -221.967483 
L 317.327819 -221.404603 
L 316.525609 -220.841723 
L 315.723398 -220.278843 
L 314.921188 -219.715963 
L 314.118977 -219.153083 
L 313.316767 -218.590203 
L 312.514557 -218.027323 
L 311.712346 -217.464443 
L 310.910136 -216.903604 
L 310.107925 -216.389835 
L 309.305715 -215.876073 
L 308.503505 -215.362317 
L 307.701294 -214.85445 
L 306.899084 -214.376289 
L 306.096873 -213.898145 
L 305.294663 -213.420018 
L 304.492453 -212.941909 
L 303.690242 -212.463817 
L 302.888032 -211.985744 
L 302.085822 -211.507687 
L 301.283611 -211.029648 
L 300.481401 -210.551627 
L 299.67919 -210.073623 
L 298.87698 -209.595637 
L 298.07477 -209.103769 
L 297.272559 -208.558761 
L 296.470349 -208.01377 
L 295.668138 -207.468796 
L 294.865928 -206.92384 
L 294.063718 -206.378901 
L 293.261507 -205.83398 
L 292.459297 -205.292316 
L 291.657086 -204.842456 
L 290.854876 -204.392595 
L 290.052666 -203.942735 
L 289.250455 -203.492875 
L 288.448245 -203.043015 
L 287.646034 -202.593155 
L 286.843824 -202.143295 
L 286.041614 -201.693435 
L 285.239403 -201.243575 
L 284.437193 -200.793715 
L 283.634983 -200.343856 
L 282.832772 -199.878354 
L 282.030562 -199.410784 
L 281.228351 -198.943224 
L 280.426141 -198.475675 
L 279.623931 -198.008137 
L 278.82172 -197.54061 
L 278.01951 -197.07278 
L 277.217299 -196.556566 
L 276.415089 -195.949077 
L 275.612879 -195.329994 
L 274.810668 -194.710924 
L 274.008458 -194.091868 
L 273.206247 -193.472826 
L 272.404037 -192.853798 
L 271.601827 -192.289119 
L 270.799616 -191.889796 
L 269.997406 -191.490513 
L 269.195195 -191.091272 
L 268.392985 -190.692072 
L 267.590775 -190.321394 
L 266.788564 -189.958929 
L 265.986354 -189.596464 
L 265.184144 -189.234 
L 264.381933 -188.871535 
L 263.579723 -188.509071 
L 262.777512 -188.11314 
L 261.975302 -187.604605 
L 261.173092 -187.214646 
L 260.370881 -186.877268 
L 259.568671 -186.539891 
L 258.76646 -186.189673 
L 257.96425 -185.826641 
L 257.16204 -185.402464 
L 256.359829 -184.978304 
L 255.557619 -184.554163 
L 254.755408 -184.130041 
L 253.953198 -183.699068 
L 253.150988 -183.24921 
L 252.348777 -182.799351 
L 251.546567 -182.349493 
L 250.744356 -181.899635 
L 249.942146 -181.449776 
L 249.139936 -180.999918 
L 248.337725 -180.55006 
L 247.535515 -180.135222 
L 246.733305 -179.739405 
L 245.931094 -179.364612 
L 245.128884 -178.989834 
L 244.326673 -178.615068 
L 243.524463 -178.240316 
L 242.722253 -177.812671 
L 241.920042 -177.380429 
L 241.117832 -177.00209 
L 240.315621 -176.623752 
L 239.513411 -176.245416 
L 238.711201 -175.86708 
L 237.90899 -175.483975 
L 237.10678 -175.071971 
L 236.304569 -174.659989 
L 235.502359 -174.206883 
L 234.700149 -173.718751 
L 233.897938 -173.230641 
L 233.095728 -172.742554 
L 232.293517 -172.254489 
L 231.491307 -171.766447 
L 230.689097 -171.278428 
L 229.886886 -170.790431 
L 229.084676 -170.306884 
L 228.282466 -169.867368 
L 227.480255 -169.42786 
L 226.678045 -168.988357 
L 225.875834 -168.548861 
L 225.073624 -168.109371 
L 224.271414 -167.669888 
L 223.469203 -167.230411 
L 222.666993 -166.79094 
L 221.864782 -166.351476 
L 221.062572 -165.912019 
L 220.260362 -165.472567 
L 219.458151 -165.033122 
L 218.655941 -164.593684 
L 217.85373 -164.154252 
L 217.05152 -163.714826 
L 216.24931 -163.275407 
L 215.447099 -162.835994 
L 214.644889 -162.396587 
L 213.842678 -161.957187 
L 213.040468 -161.517794 
L 212.238258 -161.078407 
L 211.436047 -160.639026 
L 210.633837 -160.199651 
L 209.831626 -159.760284 
L 209.029416 -159.320922 
L 208.227206 -158.881567 
L 207.424995 -158.442218 
L 206.622785 -158.002876 
L 205.820575 -157.56354 
L 205.018364 -157.124211 
L 204.216154 -156.684888 
L 203.413943 -156.245572 
L 202.611733 -155.806262 
L 201.809523 -155.366958 
L 201.007312 -154.927661 
L 200.205102 -154.488371 
L 199.402891 -154.049087 
L 198.600681 -153.609809 
L 197.798471 -153.170538 
L 196.99626 -152.731273 
L 196.19405 -152.292015 
L 195.391839 -151.852763 
L 194.589629 -151.413517 
L 193.787419 -150.974278 
L 192.985208 -150.535046 
L 192.182998 -150.09582 
L 191.380787 -149.656601 
L 190.578577 -149.217388 
L 189.776367 -148.778181 
L 188.974156 -148.338981 
L 188.171946 -147.899787 
L 187.369736 -147.4606 
L 186.567525 -147.02142 
L 185.765315 -146.582246 
L 184.963104 -146.143078 
L 184.160894 -145.703917 
L 183.358684 -145.264762 
L 182.556473 -144.825614 
L 181.754263 -144.386473 
L 180.952052 -143.947338 
L 180.149842 -143.508209 
L 179.347632 -143.069087 
L 178.545421 -142.629971 
L 177.743211 -142.190862 
L 176.941 -141.75176 
L 176.13879 -141.312664 
L 175.33658 -140.873574 
L 174.534369 -140.434491 
L 173.732159 -139.995415 
L 172.929948 -139.556345 
L 172.127738 -139.117281 
L 171.325528 -138.678224 
L 170.523317 -138.239174 
L 169.721107 -137.80013 
L 168.918897 -137.361093 
L 168.116686 -136.922062 
L 167.314476 -136.483675 
L 166.512265 -136.048798 
L 165.710055 -135.613926 
L 164.907845 -135.17906 
L 164.105634 -134.744199 
L 163.303424 -134.309344 
L 162.501213 -133.874495 
L 161.699003 -133.439651 
L 160.896793 -133.01711 
L 160.094582 -132.613498 
L 159.292372 -132.209887 
L 158.490161 -131.806277 
L 157.687951 -131.402667 
L 156.885741 -130.999059 
L 156.08353 -130.595451 
L 155.28132 -130.191844 
L 154.479109 -129.788238 
L 153.676899 -129.384632 
L 152.874689 -128.981028 
L 152.072478 -128.577424 
L 151.270268 -128.173821 
L 150.468058 -127.770219 
L 149.665847 -127.366617 
L 148.863637 -126.963016 
L 148.061426 -126.559417 
L 147.259216 -126.155817 
L 146.457006 -125.752219 
L 145.654795 -125.348622 
L 144.852585 -124.945025 
L 144.050374 -124.541429 
L 143.248164 -124.137834 
L 142.445954 -123.73424 
L 141.643743 -123.330646 
L 140.841533 -122.927053 
L 140.039322 -122.523461 
L 139.237112 -122.11987 
L 138.434902 -121.71628 
L 137.632691 -121.31269 
L 136.830481 -120.909102 
L 136.02827 -120.505514 
L 135.22606 -120.101926 
L 134.42385 -119.69834 
L 133.621639 -119.294754 
L 132.819429 -118.89117 
L 132.017219 -118.487586 
L 131.215008 -118.084002 
L 130.412798 -117.68042 
L 129.610587 -117.276838 
L 128.808377 -116.873258 
L 128.006167 -116.469678 
L 127.203956 -116.066098 
L 126.401746 -115.66252 
L 125.599535 -115.258942 
L 124.797325 -114.855365 
L 123.995115 -114.451789 
L 123.192904 -114.048214 
L 122.390694 -113.64464 
L 121.588483 -113.241066 
L 120.786273 -112.837493 
L 119.984063 -112.433921 
L 119.181852 -112.03035 
L 118.379642 -111.626779 
L 117.577431 -111.22321 
L 116.775221 -110.819641 
L 115.973011 -110.416073 
L 115.1708 -110.012505 
L 114.36859 -109.608939 
L 113.56638 -109.205373 
L 112.764169 -108.801808 
L 111.961959 -108.398244 
L 111.159748 -107.994681 
L 110.357538 -107.591118 
L 109.555328 -107.187557 
L 108.753117 -106.783996 
L 107.950907 -106.380436 
L 107.148696 -105.976876 
L 106.346486 -105.573318 
L 105.544276 -105.16976 
L 104.742065 -104.766203 
L 103.939855 -104.362647 
L 103.137644 -103.959092 
L 102.335434 -103.555537 
L 101.533224 -103.151983 
L 100.731013 -102.74843 
L 99.928803 -102.344878 
L 99.126592 -101.941327 
L 98.324382 -101.537776 
L 97.522172 -101.134227 
L 96.719961 -100.730678 
L 95.917751 -100.32713 
L 95.115541 -99.923582 
L 94.31333 -99.520036 
L 93.51112 -99.11649 
L 92.708909 -98.712945 
L 91.906699 -98.309401 
L 91.104489 -97.905857 
L 90.302278 -97.502315 
L 89.500068 -97.098773 
L 88.697857 -96.695232 
L 87.895647 -96.291692 
L 87.093437 -95.888153 
L 86.291226 -95.484614 
L 85.489016 -95.081076 
L 84.686805 -94.677539 
L 83.884595 -94.274003 
L 83.082385 -93.870468 
L 82.280174 -93.466933 
L 81.477964 -93.0634 
L 80.675753 -92.659867 
L 79.873543 -92.256334 
L 79.071333 -91.852803 
L 78.269122 -91.449272 
L 77.466912 -91.045743 
L 76.664702 -90.642214 
z
" style="stroke: #000000; stroke-opacity: 0.1"/>
    </defs>
    <g clip-path="url(#p05b49c0987)">
     <use xlink:href="#m2a13314bf8" x="0" y="310.062" style="fill-opacity: 0.1; stroke: #000000; stroke-opacity: 0.1"/>
    </g>
   </g>
   <g id="matplotlib.axis_1">
    <g id="xtick_1">
     <g id="line2d_1">
      <defs>
       <path id="m99a32ad62f" d="M 0 1.75 
L 0 -1.75 
" style="stroke: #000000; stroke-width: 0.8"/>
      </defs>
      <g>
       <use xlink:href="#m99a32ad62f" x="76.664702" y="275.062" style="stroke: #000000; stroke-width: 0.8"/>
      </g>
     </g>
     <g id="line2d_2">
      <g>
       <use xlink:href="#m99a32ad62f" x="76.664702" y="8.95" style="stroke: #000000; stroke-width: 0.8"/>
      </g>
     </g>
     <g id="text_1">
      <!-- 9.0 -->
      <g transform="translate(69.715483 287.452625) scale(0.1 -0.1)">
       <defs>
        <path id="HelveticaNeue-Medium-39" d="M 1030 1133 
Q 1056 858 1225 688 
Q 1395 518 1683 518 
Q 1978 518 2154 675 
Q 2330 832 2426 1065 
Q 2522 1299 2557 1564 
Q 2592 1830 2611 2054 
L 2598 2067 
Q 2451 1805 2195 1667 
Q 1939 1530 1632 1530 
Q 1312 1530 1053 1638 
Q 794 1747 608 1942 
Q 422 2138 320 2416 
Q 218 2694 218 3040 
Q 218 3366 320 3644 
Q 422 3923 620 4131 
Q 819 4339 1107 4454 
Q 1395 4570 1760 4570 
Q 2234 4570 2541 4387 
Q 2848 4205 3024 3888 
Q 3200 3571 3270 3142 
Q 3341 2714 3341 2227 
Q 3341 1824 3254 1414 
Q 3168 1005 2969 669 
Q 2771 333 2448 121 
Q 2125 -90 1651 -90 
Q 1382 -90 1145 0 
Q 909 90 726 250 
Q 544 410 429 634 
Q 314 858 301 1133 
L 1030 1133 
z
M 1728 3962 
Q 1530 3962 1382 3888 
Q 1235 3814 1139 3686 
Q 1043 3558 995 3392 
Q 947 3226 947 3046 
Q 947 2861 995 2691 
Q 1043 2522 1139 2394 
Q 1235 2266 1382 2186 
Q 1530 2106 1728 2106 
Q 1933 2106 2086 2182 
Q 2240 2259 2339 2390 
Q 2438 2522 2489 2691 
Q 2541 2861 2541 3046 
Q 2541 3226 2489 3392 
Q 2438 3558 2339 3683 
Q 2240 3808 2086 3885 
Q 1933 3962 1728 3962 
z
" transform="scale(0.015625)"/>
        <path id="HelveticaNeue-Medium-2e" d="M 442 864 
L 1331 864 
L 1331 0 
L 442 0 
L 442 864 
z
" transform="scale(0.015625)"/>
        <path id="HelveticaNeue-Medium-30" d="M 1779 4570 
Q 2259 4570 2563 4349 
Q 2867 4128 3036 3785 
Q 3206 3443 3267 3033 
Q 3328 2624 3328 2240 
Q 3328 1856 3267 1446 
Q 3206 1037 3036 694 
Q 2867 352 2563 131 
Q 2259 -90 1779 -90 
Q 1299 -90 995 131 
Q 691 352 521 694 
Q 352 1037 291 1446 
Q 230 1856 230 2240 
Q 230 2624 291 3033 
Q 352 3443 521 3785 
Q 691 4128 995 4349 
Q 1299 4570 1779 4570 
z
M 1779 518 
Q 2016 518 2176 656 
Q 2336 794 2429 1027 
Q 2522 1261 2560 1574 
Q 2598 1888 2598 2240 
Q 2598 2592 2560 2902 
Q 2522 3213 2429 3449 
Q 2336 3686 2176 3824 
Q 2016 3962 1779 3962 
Q 1536 3962 1379 3824 
Q 1222 3686 1129 3449 
Q 1037 3213 998 2902 
Q 960 2592 960 2240 
Q 960 1888 998 1574 
Q 1037 1261 1129 1027 
Q 1222 794 1379 656 
Q 1536 518 1779 518 
z
" transform="scale(0.015625)"/>
       </defs>
       <use xlink:href="#HelveticaNeue-Medium-39"/>
       <use xlink:href="#HelveticaNeue-Medium-2e" x="55.599991"/>
       <use xlink:href="#HelveticaNeue-Medium-30" x="83.399979"/>
      </g>
     </g>
    </g>
    <g id="xtick_2">
     <g id="line2d_3">
      <g>
       <use xlink:href="#m99a32ad62f" x="122.390694" y="275.062" style="stroke: #000000; stroke-width: 0.8"/>
      </g>
     </g>
     <g id="line2d_4">
      <g>
       <use xlink:href="#m99a32ad62f" x="122.390694" y="8.95" style="stroke: #000000; stroke-width: 0.8"/>
      </g>
     </g>
     <g id="text_2">
      <!-- 9.5 -->
      <g transform="translate(115.441475 287.452625) scale(0.1 -0.1)">
       <defs>
        <path id="HelveticaNeue-Medium-35" d="M 787 4480 
L 3104 4480 
L 3104 3827 
L 1331 3827 
L 1101 2688 
L 1114 2675 
Q 1261 2842 1488 2928 
Q 1715 3014 1939 3014 
Q 2272 3014 2534 2902 
Q 2797 2790 2976 2588 
Q 3155 2387 3248 2112 
Q 3341 1837 3341 1517 
Q 3341 1248 3254 963 
Q 3168 678 2979 444 
Q 2790 211 2496 60 
Q 2202 -90 1792 -90 
Q 1466 -90 1187 -3 
Q 909 83 697 256 
Q 486 429 361 681 
Q 237 934 224 1274 
L 954 1274 
Q 986 909 1203 713 
Q 1421 518 1779 518 
Q 2010 518 2170 595 
Q 2330 672 2429 806 
Q 2528 941 2569 1120 
Q 2611 1299 2611 1504 
Q 2611 1690 2560 1859 
Q 2509 2029 2406 2157 
Q 2304 2285 2141 2361 
Q 1978 2438 1760 2438 
Q 1530 2438 1328 2352 
Q 1126 2266 1037 2029 
L 307 2029 
L 787 4480 
z
" transform="scale(0.015625)"/>
       </defs>
       <use xlink:href="#HelveticaNeue-Medium-39"/>
       <use xlink:href="#HelveticaNeue-Medium-2e" x="55.599991"/>
       <use xlink:href="#HelveticaNeue-Medium-35" x="83.399979"/>
      </g>
     </g>
    </g>
    <g id="xtick_3">
     <g id="line2d_5">
      <g>
       <use xlink:href="#m99a32ad62f" x="168.116686" y="275.062" style="stroke: #000000; stroke-width: 0.8"/>
      </g>
     </g>
     <g id="line2d_6">
      <g>
       <use xlink:href="#m99a32ad62f" x="168.116686" y="8.95" style="stroke: #000000; stroke-width: 0.8"/>
      </g>
     </g>
     <g id="text_3">
      <!-- 10.0 -->
      <g transform="translate(158.38778 287.452625) scale(0.1 -0.1)">
       <defs>
        <path id="HelveticaNeue-Medium-31" d="M 339 3738 
Q 570 3738 787 3776 
Q 1005 3814 1181 3904 
Q 1357 3994 1481 4134 
Q 1606 4275 1645 4480 
L 2240 4480 
L 2240 0 
L 1440 0 
L 1440 3162 
L 339 3162 
L 339 3738 
z
" transform="scale(0.015625)"/>
       </defs>
       <use xlink:href="#HelveticaNeue-Medium-31"/>
       <use xlink:href="#HelveticaNeue-Medium-30" x="55.599991"/>
       <use xlink:href="#HelveticaNeue-Medium-2e" x="111.199982"/>
       <use xlink:href="#HelveticaNeue-Medium-30" x="138.999969"/>
      </g>
     </g>
    </g>
    <g id="xtick_4">
     <g id="line2d_7">
      <g>
       <use xlink:href="#m99a32ad62f" x="213.842678" y="275.062" style="stroke: #000000; stroke-width: 0.8"/>
      </g>
     </g>
     <g id="line2d_8">
      <g>
       <use xlink:href="#m99a32ad62f" x="213.842678" y="8.95" style="stroke: #000000; stroke-width: 0.8"/>
      </g>
     </g>
     <g id="text_4">
      <!-- 10.5 -->
      <g transform="translate(204.113772 287.452625) scale(0.1 -0.1)">
       <use xlink:href="#HelveticaNeue-Medium-31"/>
       <use xlink:href="#HelveticaNeue-Medium-30" x="55.599991"/>
       <use xlink:href="#HelveticaNeue-Medium-2e" x="111.199982"/>
       <use xlink:href="#HelveticaNeue-Medium-35" x="138.999969"/>
      </g>
     </g>
    </g>
    <g id="xtick_5">
     <g id="line2d_9">
      <g>
       <use xlink:href="#m99a32ad62f" x="259.568671" y="275.062" style="stroke: #000000; stroke-width: 0.8"/>
      </g>
     </g>
     <g id="line2d_10">
      <g>
       <use xlink:href="#m99a32ad62f" x="259.568671" y="8.95" style="stroke: #000000; stroke-width: 0.8"/>
      </g>
     </g>
     <g id="text_5">
      <!-- 11.0 -->
      <g transform="translate(249.839765 287.452625) scale(0.1 -0.1)">
       <use xlink:href="#HelveticaNeue-Medium-31"/>
       <use xlink:href="#HelveticaNeue-Medium-31" x="55.599991"/>
       <use xlink:href="#HelveticaNeue-Medium-2e" x="111.199982"/>
       <use xlink:href="#HelveticaNeue-Medium-30" x="138.999969"/>
      </g>
     </g>
    </g>
    <g id="xtick_6">
     <g id="line2d_11">
      <g>
       <use xlink:href="#m99a32ad62f" x="305.294663" y="275.062" style="stroke: #000000; stroke-width: 0.8"/>
      </g>
     </g>
     <g id="line2d_12">
      <g>
       <use xlink:href="#m99a32ad62f" x="305.294663" y="8.95" style="stroke: #000000; stroke-width: 0.8"/>
      </g>
     </g>
     <g id="text_6">
      <!-- 11.5 -->
      <g transform="translate(295.565757 287.452625) scale(0.1 -0.1)">
       <use xlink:href="#HelveticaNeue-Medium-31"/>
       <use xlink:href="#HelveticaNeue-Medium-31" x="55.599991"/>
       <use xlink:href="#HelveticaNeue-Medium-2e" x="111.199982"/>
       <use xlink:href="#HelveticaNeue-Medium-35" x="138.999969"/>
      </g>
     </g>
    </g>
    <g id="xtick_7">
     <g id="line2d_13">
      <g>
       <use xlink:href="#m99a32ad62f" x="351.020655" y="275.062" style="stroke: #000000; stroke-width: 0.8"/>
      </g>
     </g>
     <g id="line2d_14">
      <g>
       <use xlink:href="#m99a32ad62f" x="351.020655" y="8.95" style="stroke: #000000; stroke-width: 0.8"/>
      </g>
     </g>
     <g id="text_7">
      <!-- 12.0 -->
      <g transform="translate(341.291749 287.452625) scale(0.1 -0.1)">
       <defs>
        <path id="HelveticaNeue-Medium-32" d="M 3309 0 
L 250 0 
Q 256 557 518 973 
Q 781 1389 1235 1696 
Q 1453 1856 1689 2006 
Q 1926 2157 2124 2329 
Q 2323 2502 2451 2704 
Q 2579 2906 2586 3168 
Q 2586 3290 2557 3427 
Q 2528 3565 2445 3683 
Q 2362 3802 2214 3882 
Q 2067 3962 1830 3962 
Q 1613 3962 1469 3875 
Q 1325 3789 1238 3638 
Q 1152 3488 1110 3283 
Q 1069 3078 1062 2842 
L 333 2842 
Q 333 3213 432 3529 
Q 531 3846 729 4076 
Q 928 4307 1213 4438 
Q 1498 4570 1875 4570 
Q 2285 4570 2560 4435 
Q 2835 4301 3004 4096 
Q 3174 3891 3244 3651 
Q 3315 3411 3315 3194 
Q 3315 2925 3232 2707 
Q 3149 2490 3008 2307 
Q 2867 2125 2688 1971 
Q 2509 1818 2317 1683 
Q 2125 1549 1933 1427 
Q 1741 1306 1577 1184 
Q 1414 1062 1292 931 
Q 1171 800 1126 653 
L 3309 653 
L 3309 0 
z
" transform="scale(0.015625)"/>
       </defs>
       <use xlink:href="#HelveticaNeue-Medium-31"/>
       <use xlink:href="#HelveticaNeue-Medium-32" x="55.599991"/>
       <use xlink:href="#HelveticaNeue-Medium-2e" x="111.199982"/>
       <use xlink:href="#HelveticaNeue-Medium-30" x="138.999969"/>
      </g>
     </g>
    </g>
    <g id="xtick_8">
     <g id="line2d_15">
      <g>
       <use xlink:href="#m99a32ad62f" x="396.746648" y="275.062" style="stroke: #000000; stroke-width: 0.8"/>
      </g>
     </g>
     <g id="line2d_16">
      <g>
       <use xlink:href="#m99a32ad62f" x="396.746648" y="8.95" style="stroke: #000000; stroke-width: 0.8"/>
      </g>
     </g>
     <g id="text_8">
      <!-- 12.5 -->
      <g transform="translate(387.017741 287.452625) scale(0.1 -0.1)">
       <use xlink:href="#HelveticaNeue-Medium-31"/>
       <use xlink:href="#HelveticaNeue-Medium-32" x="55.599991"/>
       <use xlink:href="#HelveticaNeue-Medium-2e" x="111.199982"/>
       <use xlink:href="#HelveticaNeue-Medium-35" x="138.999969"/>
      </g>
     </g>
    </g>
    <g id="text_9">
     <!-- Bulge mass [log, $M_\odot$] -->
     <g transform="translate(184.319375 300.762) scale(0.1 -0.1)">
      <defs>
       <path id="HelveticaNeue-Medium-42" d="M 1286 2656 
L 2592 2656 
Q 2880 2656 3072 2819 
Q 3264 2982 3264 3290 
Q 3264 3635 3091 3776 
Q 2918 3917 2592 3917 
L 1286 3917 
L 1286 2656 
z
M 486 4570 
L 2707 4570 
Q 3322 4570 3693 4288 
Q 4064 4006 4064 3437 
Q 4064 3091 3894 2844 
Q 3725 2598 3411 2464 
L 3411 2451 
Q 3834 2362 4051 2051 
Q 4269 1741 4269 1274 
Q 4269 1005 4173 771 
Q 4077 538 3872 368 
Q 3667 198 3347 99 
Q 3027 0 2586 0 
L 486 0 
L 486 4570 
z
M 1286 653 
L 2701 653 
Q 3066 653 3267 841 
Q 3469 1030 3469 1376 
Q 3469 1715 3267 1897 
Q 3066 2080 2701 2080 
L 1286 2080 
L 1286 653 
z
" transform="scale(0.015625)"/>
       <path id="HelveticaNeue-Medium-75" d="M 3290 0 
L 2573 0 
L 2573 461 
L 2560 461 
Q 2426 211 2160 60 
Q 1894 -90 1619 -90 
Q 966 -90 675 233 
Q 384 557 384 1210 
L 384 3309 
L 1114 3309 
L 1114 1280 
Q 1114 845 1280 665 
Q 1446 486 1747 486 
Q 1978 486 2131 556 
Q 2285 627 2381 745 
Q 2477 864 2518 1030 
Q 2560 1197 2560 1389 
L 2560 3309 
L 3290 3309 
L 3290 0 
z
" transform="scale(0.015625)"/>
       <path id="HelveticaNeue-Medium-6c" d="M 403 4570 
L 1133 4570 
L 1133 0 
L 403 0 
L 403 4570 
z
" transform="scale(0.015625)"/>
       <path id="HelveticaNeue-Medium-67" d="M 3443 173 
Q 3443 -576 3024 -944 
Q 2605 -1312 1818 -1312 
Q 1568 -1312 1315 -1261 
Q 1062 -1210 854 -1088 
Q 646 -966 505 -768 
Q 365 -570 339 -282 
L 1069 -282 
Q 1101 -435 1177 -531 
Q 1254 -627 1360 -681 
Q 1466 -736 1594 -752 
Q 1722 -768 1862 -768 
Q 2304 -768 2509 -550 
Q 2714 -333 2714 77 
L 2714 582 
L 2701 582 
Q 2547 307 2281 153 
Q 2016 0 1709 0 
Q 1312 0 1033 137 
Q 755 275 572 515 
Q 390 755 307 1068 
Q 224 1382 224 1741 
Q 224 2074 326 2374 
Q 429 2675 621 2902 
Q 813 3130 1091 3264 
Q 1370 3398 1722 3398 
Q 2035 3398 2297 3267 
Q 2560 3136 2701 2854 
L 2714 2854 
L 2714 3309 
L 3443 3309 
L 3443 173 
z
M 1824 576 
Q 2067 576 2236 675 
Q 2406 774 2512 937 
Q 2618 1101 2666 1309 
Q 2714 1517 2714 1728 
Q 2714 1939 2662 2137 
Q 2611 2336 2505 2489 
Q 2400 2643 2230 2732 
Q 2061 2822 1824 2822 
Q 1581 2822 1414 2720 
Q 1248 2618 1145 2454 
Q 1043 2291 998 2083 
Q 954 1875 954 1670 
Q 954 1466 1005 1270 
Q 1056 1075 1161 921 
Q 1267 768 1430 672 
Q 1594 576 1824 576 
z
" transform="scale(0.015625)"/>
       <path id="HelveticaNeue-Medium-65" d="M 2656 1946 
Q 2643 2118 2582 2278 
Q 2522 2438 2416 2556 
Q 2310 2675 2160 2748 
Q 2010 2822 1824 2822 
Q 1632 2822 1475 2755 
Q 1318 2688 1206 2569 
Q 1094 2451 1027 2291 
Q 960 2131 954 1946 
L 2656 1946 
z
M 954 1466 
Q 954 1274 1008 1094 
Q 1062 915 1171 780 
Q 1280 646 1446 566 
Q 1613 486 1843 486 
Q 2163 486 2358 624 
Q 2554 762 2650 1037 
L 3341 1037 
Q 3283 768 3142 557 
Q 3002 346 2803 202 
Q 2605 58 2358 -16 
Q 2112 -90 1843 -90 
Q 1453 -90 1152 38 
Q 851 166 643 396 
Q 435 627 329 947 
Q 224 1267 224 1651 
Q 224 2003 336 2320 
Q 448 2637 656 2877 
Q 864 3117 1158 3257 
Q 1453 3398 1824 3398 
Q 2214 3398 2524 3235 
Q 2835 3072 3040 2803 
Q 3245 2534 3337 2185 
Q 3430 1837 3386 1466 
L 954 1466 
z
" transform="scale(0.015625)"/>
       <path id="HelveticaNeue-Medium-20" transform="scale(0.015625)"/>
       <path id="HelveticaNeue-Medium-6d" d="M 384 3309 
L 1075 3309 
L 1075 2848 
L 1094 2848 
Q 1178 2970 1274 3072 
Q 1370 3174 1488 3244 
Q 1606 3315 1760 3356 
Q 1914 3398 2112 3398 
Q 2413 3398 2672 3264 
Q 2931 3130 3040 2848 
Q 3226 3104 3469 3251 
Q 3712 3398 4077 3398 
Q 4602 3398 4893 3142 
Q 5184 2886 5184 2285 
L 5184 0 
L 4454 0 
L 4454 1933 
Q 4454 2131 4441 2294 
Q 4429 2458 4368 2576 
Q 4307 2694 4185 2758 
Q 4064 2822 3853 2822 
Q 3482 2822 3315 2592 
Q 3149 2362 3149 1939 
L 3149 0 
L 2419 0 
L 2419 2125 
Q 2419 2470 2294 2646 
Q 2170 2822 1837 2822 
Q 1696 2822 1565 2764 
Q 1434 2707 1334 2598 
Q 1235 2490 1174 2330 
Q 1114 2170 1114 1965 
L 1114 0 
L 384 0 
L 384 3309 
z
" transform="scale(0.015625)"/>
       <path id="HelveticaNeue-Medium-61" d="M 3155 736 
Q 3155 602 3190 544 
Q 3226 486 3328 486 
Q 3360 486 3405 486 
Q 3450 486 3507 499 
L 3507 -6 
Q 3469 -19 3408 -35 
Q 3347 -51 3283 -64 
Q 3219 -77 3155 -83 
Q 3091 -90 3046 -90 
Q 2822 -90 2675 0 
Q 2528 90 2483 314 
Q 2266 102 1949 6 
Q 1632 -90 1338 -90 
Q 1114 -90 909 -29 
Q 704 32 547 150 
Q 390 269 297 451 
Q 205 634 205 877 
Q 205 1184 317 1376 
Q 429 1568 611 1677 
Q 794 1786 1021 1834 
Q 1248 1882 1478 1907 
Q 1677 1946 1856 1962 
Q 2035 1978 2172 2016 
Q 2310 2054 2390 2134 
Q 2470 2214 2470 2374 
Q 2470 2515 2403 2604 
Q 2336 2694 2237 2742 
Q 2138 2790 2016 2806 
Q 1894 2822 1786 2822 
Q 1478 2822 1280 2694 
Q 1082 2566 1056 2298 
L 326 2298 
Q 346 2618 480 2829 
Q 614 3040 822 3168 
Q 1030 3296 1292 3347 
Q 1555 3398 1830 3398 
Q 2074 3398 2310 3347 
Q 2547 3296 2736 3181 
Q 2925 3066 3040 2883 
Q 3155 2701 3155 2438 
L 3155 736 
z
M 2426 1658 
Q 2259 1549 2016 1526 
Q 1773 1504 1530 1459 
Q 1414 1440 1305 1405 
Q 1197 1370 1113 1309 
Q 1030 1248 982 1149 
Q 934 1050 934 909 
Q 934 787 1004 704 
Q 1075 621 1174 573 
Q 1274 525 1392 505 
Q 1510 486 1606 486 
Q 1728 486 1869 518 
Q 2010 550 2134 627 
Q 2259 704 2342 822 
Q 2426 941 2426 1114 
L 2426 1658 
z
" transform="scale(0.015625)"/>
       <path id="HelveticaNeue-Medium-73" d="M 934 1062 
Q 966 742 1177 614 
Q 1389 486 1683 486 
Q 1786 486 1917 502 
Q 2048 518 2163 563 
Q 2278 608 2352 694 
Q 2426 781 2419 921 
Q 2413 1062 2317 1152 
Q 2221 1242 2070 1296 
Q 1920 1350 1728 1388 
Q 1536 1427 1338 1472 
Q 1133 1517 944 1581 
Q 755 1645 604 1753 
Q 454 1862 364 2032 
Q 275 2202 275 2451 
Q 275 2720 406 2902 
Q 538 3085 739 3197 
Q 941 3309 1187 3353 
Q 1434 3398 1658 3398 
Q 1914 3398 2147 3344 
Q 2381 3290 2569 3168 
Q 2758 3046 2883 2851 
Q 3008 2656 3040 2381 
L 2278 2381 
Q 2227 2643 2038 2732 
Q 1850 2822 1606 2822 
Q 1530 2822 1424 2809 
Q 1318 2797 1225 2761 
Q 1133 2726 1069 2659 
Q 1005 2592 1005 2483 
Q 1005 2349 1097 2265 
Q 1190 2182 1340 2128 
Q 1491 2074 1683 2035 
Q 1875 1997 2080 1952 
Q 2278 1907 2470 1843 
Q 2662 1779 2812 1670 
Q 2963 1562 3056 1395 
Q 3149 1229 3149 986 
Q 3149 691 3014 486 
Q 2880 282 2665 154 
Q 2451 26 2188 -32 
Q 1926 -90 1670 -90 
Q 1357 -90 1091 -19 
Q 826 51 630 195 
Q 435 339 323 553 
Q 211 768 205 1062 
L 934 1062 
z
" transform="scale(0.015625)"/>
       <path id="HelveticaNeue-Medium-5b" d="M 461 4678 
L 1888 4678 
L 1888 4102 
L 1152 4102 
L 1152 -646 
L 1888 -646 
L 1888 -1222 
L 461 -1222 
L 461 4678 
z
" transform="scale(0.015625)"/>
       <path id="HelveticaNeue-Medium-6f" d="M 1901 -90 
Q 1504 -90 1193 41 
Q 883 173 668 403 
Q 454 634 342 954 
Q 230 1274 230 1658 
Q 230 2035 342 2355 
Q 454 2675 668 2905 
Q 883 3136 1193 3267 
Q 1504 3398 1901 3398 
Q 2298 3398 2608 3267 
Q 2918 3136 3132 2905 
Q 3347 2675 3459 2355 
Q 3571 2035 3571 1658 
Q 3571 1274 3459 954 
Q 3347 634 3132 403 
Q 2918 173 2608 41 
Q 2298 -90 1901 -90 
z
M 1901 486 
Q 2144 486 2323 588 
Q 2502 691 2617 857 
Q 2733 1024 2787 1232 
Q 2842 1440 2842 1658 
Q 2842 1869 2787 2080 
Q 2733 2291 2617 2454 
Q 2502 2618 2323 2720 
Q 2144 2822 1901 2822 
Q 1658 2822 1478 2720 
Q 1299 2618 1184 2454 
Q 1069 2291 1014 2080 
Q 960 1869 960 1658 
Q 960 1440 1014 1232 
Q 1069 1024 1184 857 
Q 1299 691 1478 588 
Q 1658 486 1901 486 
z
" transform="scale(0.015625)"/>
       <path id="HelveticaNeue-Medium-2c" d="M 442 864 
L 1331 864 
L 1331 0 
Q 1325 -397 1088 -665 
Q 851 -934 467 -1011 
L 467 -621 
Q 678 -570 784 -387 
Q 890 -205 883 0 
L 442 0 
L 442 864 
z
" transform="scale(0.015625)"/>
       <path id="DejaVuSans-Oblique-4d" d="M 1081 4666 
L 2028 4666 
L 2572 1522 
L 4378 4666 
L 5350 4666 
L 4441 0 
L 3828 0 
L 4622 4091 
L 2791 897 
L 2175 897 
L 1581 4103 
L 788 0 
L 172 0 
L 1081 4666 
z
" transform="scale(0.015625)"/>
       <path id="DejaVuSans-2299" d="M 2350 2403 
L 3013 2403 
L 3013 1609 
L 2350 1609 
L 2350 2403 
z
M 3306 3522 
Q 3016 3644 2681 3644 
Q 2347 3644 2056 3522 
Q 1769 3400 1531 3163 
Q 1291 2922 1172 2634 
Q 1053 2347 1053 2006 
Q 1053 1675 1172 1387 
Q 1291 1100 1531 859 
Q 1769 622 2056 500 
Q 2347 378 2681 378 
Q 3016 378 3306 500 
Q 3594 622 3831 859 
Q 4072 1100 4190 1387 
Q 4309 1675 4309 2006 
Q 4309 2347 4190 2634 
Q 4072 2922 3831 3163 
Q 3594 3400 3306 3522 
z
M 1878 3956 
Q 2250 4113 2681 4113 
Q 3113 4113 3484 3956 
Q 3856 3800 4163 3494 
Q 4472 3184 4625 2813 
Q 4778 2444 4778 2006 
Q 4778 1578 4625 1206 
Q 4472 838 4163 528 
Q 3856 222 3484 65 
Q 3113 -91 2681 -91 
Q 2250 -91 1878 65 
Q 1506 222 1200 528 
Q 891 838 738 1206 
Q 584 1578 584 2006 
Q 584 2444 738 2813 
Q 891 3184 1200 3494 
Q 1506 3800 1878 3956 
z
" transform="scale(0.015625)"/>
       <path id="HelveticaNeue-Medium-5d" d="M 1434 -1222 
L 6 -1222 
L 6 -646 
L 742 -646 
L 742 4102 
L 6 4102 
L 6 4678 
L 1434 4678 
L 1434 -1222 
z
" transform="scale(0.015625)"/>
      </defs>
      <use xlink:href="#HelveticaNeue-Medium-42" transform="translate(0 0.90625)"/>
      <use xlink:href="#HelveticaNeue-Medium-75" transform="translate(70.399994 0.90625)"/>
      <use xlink:href="#HelveticaNeue-Medium-6c" transform="translate(127.799988 0.90625)"/>
      <use xlink:href="#HelveticaNeue-Medium-67" transform="translate(151.899979 0.90625)"/>
      <use xlink:href="#HelveticaNeue-Medium-65" transform="translate(211.199966 0.90625)"/>
      <use xlink:href="#HelveticaNeue-Medium-20" transform="translate(266.799957 0.90625)"/>
      <use xlink:href="#HelveticaNeue-Medium-6d" transform="translate(294.599945 0.90625)"/>
      <use xlink:href="#HelveticaNeue-Medium-61" transform="translate(381.59993 0.90625)"/>
      <use xlink:href="#HelveticaNeue-Medium-73" transform="translate(437.199921 0.90625)"/>
      <use xlink:href="#HelveticaNeue-Medium-73" transform="translate(489.099915 0.90625)"/>
      <use xlink:href="#HelveticaNeue-Medium-20" transform="translate(540.999908 0.90625)"/>
      <use xlink:href="#HelveticaNeue-Medium-5b" transform="translate(568.799896 0.90625)"/>
      <use xlink:href="#HelveticaNeue-Medium-6c" transform="translate(598.399887 0.90625)"/>
      <use xlink:href="#HelveticaNeue-Medium-6f" transform="translate(622.499878 0.90625)"/>
      <use xlink:href="#HelveticaNeue-Medium-67" transform="translate(681.799866 0.90625)"/>
      <use xlink:href="#HelveticaNeue-Medium-2c" transform="translate(741.099854 0.90625)"/>
      <use xlink:href="#HelveticaNeue-Medium-20" transform="translate(768.899841 0.90625)"/>
      <use xlink:href="#DejaVuSans-Oblique-4d" transform="translate(796.699829 0.90625)"/>
      <use xlink:href="#DejaVuSans-2299" transform="translate(896.616821 -15.5) scale(0.7)"/>
      <use xlink:href="#HelveticaNeue-Medium-5d" transform="translate(971.641235 0.90625)"/>
     </g>
    </g>
   </g>
   <g id="matplotlib.axis_2">
    <g id="ytick_1">
     <g id="line2d_17">
      <defs>
       <path id="m9b472eaed2" d="M 1.75 0 
L -1.75 -0 
" style="stroke: #000000; stroke-width: 0.8"/>
      </defs>
      <g>
       <use xlink:href="#m9b472eaed2" x="55.859375" y="225.454945" style="stroke: #000000; stroke-width: 0.8"/>
      </g>
     </g>
     <g id="line2d_18">
      <g>
       <use xlink:href="#m9b472eaed2" x="412.979375" y="225.454945" style="stroke: #000000; stroke-width: 0.8"/>
      </g>
     </g>
     <g id="text_10">
      <!-- $\mathdefault{10^{2}}$ -->
      <g transform="translate(35.209375 229.025257) scale(0.1 -0.1)">
       <use xlink:href="#HelveticaNeue-Medium-31" transform="translate(0 0.823438)"/>
       <use xlink:href="#HelveticaNeue-Medium-30" transform="translate(55.599991 0.823438)"/>
       <use xlink:href="#HelveticaNeue-Medium-32" transform="translate(112.104786 37.015625) scale(0.7)"/>
      </g>
     </g>
    </g>
    <g id="ytick_2">
     <g id="line2d_19">
      <defs>
       <path id="m8a2d461b8e" d="M 1 0 
L -1 -0 
" style="stroke: #000000; stroke-width: 0.6"/>
      </defs>
      <g>
       <use xlink:href="#m8a2d461b8e" x="55.859375" y="269.888778" style="stroke: #000000; stroke-width: 0.6"/>
      </g>
     </g>
     <g id="line2d_20">
      <g>
       <use xlink:href="#m8a2d461b8e" x="412.979375" y="269.888778" style="stroke: #000000; stroke-width: 0.6"/>
      </g>
     </g>
    </g>
    <g id="ytick_3">
     <g id="line2d_21">
      <g>
       <use xlink:href="#m8a2d461b8e" x="55.859375" y="253.253711" style="stroke: #000000; stroke-width: 0.6"/>
      </g>
     </g>
     <g id="line2d_22">
      <g>
       <use xlink:href="#m8a2d461b8e" x="412.979375" y="253.253711" style="stroke: #000000; stroke-width: 0.6"/>
      </g>
     </g>
    </g>
    <g id="ytick_4">
     <g id="line2d_23">
      <g>
       <use xlink:href="#m8a2d461b8e" x="55.859375" y="238.580542" style="stroke: #000000; stroke-width: 0.6"/>
      </g>
     </g>
     <g id="line2d_24">
      <g>
       <use xlink:href="#m8a2d461b8e" x="412.979375" y="238.580542" style="stroke: #000000; stroke-width: 0.6"/>
      </g>
     </g>
    </g>
    <g id="ytick_5">
     <g id="line2d_25">
      <g>
       <use xlink:href="#m8a2d461b8e" x="55.859375" y="139.10409" style="stroke: #000000; stroke-width: 0.6"/>
      </g>
     </g>
     <g id="line2d_26">
      <g>
       <use xlink:href="#m8a2d461b8e" x="412.979375" y="139.10409" style="stroke: #000000; stroke-width: 0.6"/>
      </g>
     </g>
     <g id="text_11">
      <!-- $\mathdefault{2\times10^{2}}$ -->
      <g transform="translate(20.559375 142.674402) scale(0.1 -0.1)">
       <defs>
        <path id="HelveticaNeue-Medium-d7" d="M 352 2733 
L 902 3091 
L 1914 2074 
L 2938 3091 
L 3488 2733 
L 2368 1619 
L 3488 506 
L 2938 147 
L 1914 1171 
L 902 147 
L 352 506 
L 1466 1619 
L 352 2733 
z
" transform="scale(0.015625)"/>
       </defs>
       <use xlink:href="#HelveticaNeue-Medium-32" transform="translate(0 0.823438)"/>
       <use xlink:href="#HelveticaNeue-Medium-d7" transform="translate(75.082413 0.823438)"/>
       <use xlink:href="#HelveticaNeue-Medium-31" transform="translate(154.564819 0.823438)"/>
       <use xlink:href="#HelveticaNeue-Medium-30" transform="translate(210.16481 0.823438)"/>
       <use xlink:href="#HelveticaNeue-Medium-32" transform="translate(266.669606 37.015625) scale(0.7)"/>
      </g>
     </g>
    </g>
    <g id="ytick_6">
     <g id="line2d_27">
      <g>
       <use xlink:href="#m8a2d461b8e" x="55.859375" y="88.592078" style="stroke: #000000; stroke-width: 0.6"/>
      </g>
     </g>
     <g id="line2d_28">
      <g>
       <use xlink:href="#m8a2d461b8e" x="412.979375" y="88.592078" style="stroke: #000000; stroke-width: 0.6"/>
      </g>
     </g>
     <g id="text_12">
      <!-- $\mathdefault{3\times10^{2}}$ -->
      <g transform="translate(20.559375 92.16239) scale(0.1 -0.1)">
       <defs>
        <path id="HelveticaNeue-Medium-33" d="M 1459 2624 
Q 1638 2618 1817 2650 
Q 1997 2682 2137 2762 
Q 2278 2842 2364 2982 
Q 2451 3123 2451 3328 
Q 2451 3616 2256 3789 
Q 2061 3962 1754 3962 
Q 1562 3962 1421 3885 
Q 1280 3808 1187 3677 
Q 1094 3546 1049 3382 
Q 1005 3219 1011 3046 
L 282 3046 
Q 294 3373 403 3651 
Q 512 3930 701 4134 
Q 890 4339 1158 4454 
Q 1427 4570 1766 4570 
Q 2029 4570 2281 4493 
Q 2534 4416 2736 4269 
Q 2938 4122 3059 3894 
Q 3181 3667 3181 3373 
Q 3181 3034 3027 2781 
Q 2874 2528 2547 2413 
L 2547 2400 
Q 2931 2323 3145 2019 
Q 3360 1715 3360 1280 
Q 3360 960 3232 707 
Q 3104 454 2886 278 
Q 2669 102 2381 6 
Q 2093 -90 1773 -90 
Q 1382 -90 1091 22 
Q 800 134 605 339 
Q 410 544 307 832 
Q 205 1120 198 1472 
L 928 1472 
Q 915 1062 1129 790 
Q 1344 518 1773 518 
Q 2138 518 2384 726 
Q 2630 934 2630 1318 
Q 2630 1581 2528 1734 
Q 2426 1888 2259 1968 
Q 2093 2048 1885 2067 
Q 1677 2086 1459 2080 
L 1459 2624 
z
" transform="scale(0.015625)"/>
       </defs>
       <use xlink:href="#HelveticaNeue-Medium-33" transform="translate(0 0.823438)"/>
       <use xlink:href="#HelveticaNeue-Medium-d7" transform="translate(75.082413 0.823438)"/>
       <use xlink:href="#HelveticaNeue-Medium-31" transform="translate(154.564819 0.823438)"/>
       <use xlink:href="#HelveticaNeue-Medium-30" transform="translate(210.16481 0.823438)"/>
       <use xlink:href="#HelveticaNeue-Medium-32" transform="translate(266.669606 37.015625) scale(0.7)"/>
      </g>
     </g>
    </g>
    <g id="ytick_7">
     <g id="line2d_29">
      <g>
       <use xlink:href="#m8a2d461b8e" x="55.859375" y="52.753235" style="stroke: #000000; stroke-width: 0.6"/>
      </g>
     </g>
     <g id="line2d_30">
      <g>
       <use xlink:href="#m8a2d461b8e" x="412.979375" y="52.753235" style="stroke: #000000; stroke-width: 0.6"/>
      </g>
     </g>
     <g id="text_13">
      <!-- $\mathdefault{4\times10^{2}}$ -->
      <g transform="translate(20.559375 56.323547) scale(0.1 -0.1)">
       <defs>
        <path id="HelveticaNeue-Medium-34" d="M 717 1638 
L 2074 1638 
L 2074 3610 
L 2061 3610 
L 717 1638 
z
M 3341 1062 
L 2765 1062 
L 2765 0 
L 2074 0 
L 2074 1062 
L 154 1062 
L 154 1786 
L 2074 4480 
L 2765 4480 
L 2765 1638 
L 3341 1638 
L 3341 1062 
z
" transform="scale(0.015625)"/>
       </defs>
       <use xlink:href="#HelveticaNeue-Medium-34" transform="translate(0 0.823438)"/>
       <use xlink:href="#HelveticaNeue-Medium-d7" transform="translate(75.082413 0.823438)"/>
       <use xlink:href="#HelveticaNeue-Medium-31" transform="translate(154.564819 0.823438)"/>
       <use xlink:href="#HelveticaNeue-Medium-30" transform="translate(210.16481 0.823438)"/>
       <use xlink:href="#HelveticaNeue-Medium-32" transform="translate(266.669606 37.015625) scale(0.7)"/>
      </g>
     </g>
    </g>
    <g id="ytick_8">
     <g id="line2d_31">
      <g>
       <use xlink:href="#m8a2d461b8e" x="55.859375" y="24.954469" style="stroke: #000000; stroke-width: 0.6"/>
      </g>
     </g>
     <g id="line2d_32">
      <g>
       <use xlink:href="#m8a2d461b8e" x="412.979375" y="24.954469" style="stroke: #000000; stroke-width: 0.6"/>
      </g>
     </g>
    </g>
    <g id="text_14">
     <!-- Velocity dispersion [log, km/s] -->
     <g transform="translate(14.509375 211.107562) rotate(-90) scale(0.1 -0.1)">
      <defs>
       <path id="HelveticaNeue-Medium-56" d="M -32 4570 
L 800 4570 
L 1946 954 
L 1958 954 
L 3130 4570 
L 3942 4570 
L 2381 0 
L 1491 0 
L -32 4570 
z
" transform="scale(0.015625)"/>
       <path id="HelveticaNeue-Medium-63" d="M 2618 2202 
Q 2573 2509 2371 2665 
Q 2170 2822 1862 2822 
Q 1722 2822 1562 2774 
Q 1402 2726 1267 2595 
Q 1133 2464 1043 2230 
Q 954 1997 954 1619 
Q 954 1414 1002 1209 
Q 1050 1005 1155 845 
Q 1261 685 1427 585 
Q 1594 486 1830 486 
Q 2150 486 2358 684 
Q 2566 883 2618 1242 
L 3347 1242 
Q 3245 595 2857 252 
Q 2470 -90 1830 -90 
Q 1440 -90 1142 41 
Q 845 173 640 400 
Q 435 627 329 940 
Q 224 1254 224 1619 
Q 224 1990 326 2316 
Q 429 2643 633 2883 
Q 838 3123 1142 3260 
Q 1446 3398 1856 3398 
Q 2144 3398 2403 3324 
Q 2662 3251 2864 3104 
Q 3066 2957 3194 2733 
Q 3322 2509 3347 2202 
L 2618 2202 
z
" transform="scale(0.015625)"/>
       <path id="HelveticaNeue-Medium-69" d="M 403 4570 
L 1133 4570 
L 1133 3878 
L 403 3878 
L 403 4570 
z
M 403 3309 
L 1133 3309 
L 1133 0 
L 403 0 
L 403 3309 
z
" transform="scale(0.015625)"/>
       <path id="HelveticaNeue-Medium-74" d="M 51 3309 
L 602 3309 
L 602 4301 
L 1331 4301 
L 1331 3309 
L 1990 3309 
L 1990 2765 
L 1331 2765 
L 1331 998 
Q 1331 883 1340 800 
Q 1350 717 1385 659 
Q 1421 602 1491 573 
Q 1562 544 1683 544 
Q 1760 544 1837 547 
Q 1914 550 1990 570 
L 1990 6 
Q 1869 -6 1753 -19 
Q 1638 -32 1517 -32 
Q 1229 -32 1053 22 
Q 877 77 777 182 
Q 678 288 643 448 
Q 608 608 602 813 
L 602 2765 
L 51 2765 
L 51 3309 
z
" transform="scale(0.015625)"/>
       <path id="HelveticaNeue-Medium-79" d="M 19 3309 
L 819 3309 
L 1683 838 
L 1696 838 
L 2534 3309 
L 3296 3309 
L 2010 -179 
Q 1920 -403 1833 -608 
Q 1747 -813 1622 -969 
Q 1498 -1126 1312 -1219 
Q 1126 -1312 838 -1312 
Q 582 -1312 333 -1274 
L 333 -659 
Q 422 -672 505 -688 
Q 589 -704 678 -704 
Q 806 -704 889 -672 
Q 973 -640 1027 -579 
Q 1082 -518 1120 -435 
Q 1158 -352 1190 -243 
L 1274 13 
L 19 3309 
z
" transform="scale(0.015625)"/>
       <path id="HelveticaNeue-Medium-64" d="M 3501 0 
L 2810 0 
L 2810 448 
L 2797 448 
Q 2650 160 2368 35 
Q 2086 -90 1773 -90 
Q 1382 -90 1091 48 
Q 800 186 608 422 
Q 416 659 320 982 
Q 224 1306 224 1677 
Q 224 2125 345 2451 
Q 467 2778 668 2989 
Q 870 3200 1129 3299 
Q 1389 3398 1658 3398 
Q 1811 3398 1971 3369 
Q 2131 3341 2278 3277 
Q 2426 3213 2550 3113 
Q 2675 3014 2758 2880 
L 2771 2880 
L 2771 4570 
L 3501 4570 
L 3501 0 
z
M 954 1619 
Q 954 1408 1008 1203 
Q 1062 998 1174 838 
Q 1286 678 1459 582 
Q 1632 486 1869 486 
Q 2112 486 2288 588 
Q 2464 691 2576 857 
Q 2688 1024 2742 1232 
Q 2797 1440 2797 1658 
Q 2797 2208 2550 2515 
Q 2304 2822 1882 2822 
Q 1626 2822 1450 2716 
Q 1274 2611 1162 2441 
Q 1050 2272 1002 2057 
Q 954 1843 954 1619 
z
" transform="scale(0.015625)"/>
       <path id="HelveticaNeue-Medium-70" d="M 403 3309 
L 1094 3309 
L 1094 2861 
L 1107 2861 
Q 1261 3149 1536 3273 
Q 1811 3398 2131 3398 
Q 2522 3398 2813 3260 
Q 3104 3123 3296 2883 
Q 3488 2643 3584 2323 
Q 3680 2003 3680 1638 
Q 3680 1306 3593 992 
Q 3507 678 3331 438 
Q 3155 198 2886 54 
Q 2618 -90 2253 -90 
Q 2093 -90 1933 -61 
Q 1773 -32 1625 32 
Q 1478 96 1353 195 
Q 1229 294 1146 429 
L 1133 429 
L 1133 -1222 
L 403 -1222 
L 403 3309 
z
M 2950 1651 
Q 2950 1875 2892 2086 
Q 2835 2298 2720 2461 
Q 2605 2624 2432 2723 
Q 2259 2822 2035 2822 
Q 1574 2822 1340 2502 
Q 1107 2182 1107 1651 
Q 1107 1402 1168 1187 
Q 1229 973 1350 819 
Q 1472 666 1641 576 
Q 1811 486 2035 486 
Q 2285 486 2457 588 
Q 2630 691 2742 854 
Q 2854 1018 2902 1226 
Q 2950 1434 2950 1651 
z
" transform="scale(0.015625)"/>
       <path id="HelveticaNeue-Medium-72" d="M 384 3309 
L 1069 3309 
L 1069 2669 
L 1082 2669 
Q 1114 2803 1206 2931 
Q 1299 3059 1430 3164 
Q 1562 3270 1722 3334 
Q 1882 3398 2048 3398 
Q 2176 3398 2224 3392 
Q 2272 3386 2323 3379 
L 2323 2675 
Q 2246 2688 2166 2697 
Q 2086 2707 2010 2707 
Q 1824 2707 1661 2633 
Q 1498 2560 1376 2416 
Q 1254 2272 1184 2061 
Q 1114 1850 1114 1574 
L 1114 0 
L 384 0 
L 384 3309 
z
" transform="scale(0.015625)"/>
       <path id="HelveticaNeue-Medium-6e" d="M 384 3309 
L 1075 3309 
L 1075 2822 
L 1088 2810 
Q 1254 3085 1523 3241 
Q 1792 3398 2118 3398 
Q 2662 3398 2976 3116 
Q 3290 2835 3290 2272 
L 3290 0 
L 2560 0 
L 2560 2080 
Q 2547 2470 2393 2646 
Q 2240 2822 1914 2822 
Q 1728 2822 1581 2755 
Q 1434 2688 1331 2569 
Q 1229 2451 1171 2291 
Q 1114 2131 1114 1952 
L 1114 0 
L 384 0 
L 384 3309 
z
" transform="scale(0.015625)"/>
       <path id="HelveticaNeue-Medium-6b" d="M 403 4570 
L 1133 4570 
L 1133 1971 
L 2451 3309 
L 3347 3309 
L 2080 2093 
L 3469 0 
L 2579 0 
L 1568 1606 
L 1133 1184 
L 1133 0 
L 403 0 
L 403 4570 
z
" transform="scale(0.015625)"/>
       <path id="HelveticaNeue-Medium-2f" d="M 1696 4678 
L 2394 4678 
L 557 -109 
L -141 -109 
L 1696 4678 
z
" transform="scale(0.015625)"/>
      </defs>
      <use xlink:href="#HelveticaNeue-Medium-56"/>
      <use xlink:href="#HelveticaNeue-Medium-65" x="55.599991"/>
      <use xlink:href="#HelveticaNeue-Medium-6c" x="111.199982"/>
      <use xlink:href="#HelveticaNeue-Medium-6f" x="135.299973"/>
      <use xlink:href="#HelveticaNeue-Medium-63" x="194.59996"/>
      <use xlink:href="#HelveticaNeue-Medium-69" x="250.199951"/>
      <use xlink:href="#HelveticaNeue-Medium-74" x="274.299942"/>
      <use xlink:href="#HelveticaNeue-Medium-79" x="307.59993"/>
      <use xlink:href="#HelveticaNeue-Medium-20" x="359.499924"/>
      <use xlink:href="#HelveticaNeue-Medium-64" x="387.299911"/>
      <use xlink:href="#HelveticaNeue-Medium-69" x="448.399902"/>
      <use xlink:href="#HelveticaNeue-Medium-73" x="472.499893"/>
      <use xlink:href="#HelveticaNeue-Medium-70" x="524.399887"/>
      <use xlink:href="#HelveticaNeue-Medium-65" x="585.499878"/>
      <use xlink:href="#HelveticaNeue-Medium-72" x="641.099869"/>
      <use xlink:href="#HelveticaNeue-Medium-73" x="676.299866"/>
      <use xlink:href="#HelveticaNeue-Medium-69" x="728.19986"/>
      <use xlink:href="#HelveticaNeue-Medium-6f" x="752.29985"/>
      <use xlink:href="#HelveticaNeue-Medium-6e" x="811.599838"/>
      <use xlink:href="#HelveticaNeue-Medium-20" x="868.999832"/>
      <use xlink:href="#HelveticaNeue-Medium-5b" x="896.79982"/>
      <use xlink:href="#HelveticaNeue-Medium-6c" x="926.399811"/>
      <use xlink:href="#HelveticaNeue-Medium-6f" x="950.499802"/>
      <use xlink:href="#HelveticaNeue-Medium-67" x="1009.799789"/>
      <use xlink:href="#HelveticaNeue-Medium-2c" x="1069.099777"/>
      <use xlink:href="#HelveticaNeue-Medium-20" x="1096.899765"/>
      <use xlink:href="#HelveticaNeue-Medium-6b" x="1124.699753"/>
      <use xlink:href="#HelveticaNeue-Medium-6d" x="1178.39975"/>
      <use xlink:href="#HelveticaNeue-Medium-2f" x="1265.399734"/>
      <use xlink:href="#HelveticaNeue-Medium-73" x="1300.599731"/>
      <use xlink:href="#HelveticaNeue-Medium-5d" x="1352.499725"/>
     </g>
    </g>
   </g>
   <g id="LineCollection_1">
    <path d="M 72.092102 258.015231 
L 90.382499 258.015231 
" clip-path="url(#p05b49c0987)" style="fill: none; stroke: #ffa500; stroke-width: 1.5"/>
    <path d="M 328.157659 123.878468 
L 344.619016 123.878468 
" clip-path="url(#p05b49c0987)" style="fill: none; stroke: #ffa500; stroke-width: 1.5"/>
    <path d="M 276.030028 77.475846 
L 292.491385 77.475846 
" clip-path="url(#p05b49c0987)" style="fill: none; stroke: #ffa500; stroke-width: 1.5"/>
    <path d="M 219.329798 161.568429 
L 235.791155 161.568429 
" clip-path="url(#p05b49c0987)" style="fill: none; stroke: #ffa500; stroke-width: 1.5"/>
    <path d="M 297.063984 82.513899 
L 313.525342 82.513899 
" clip-path="url(#p05b49c0987)" style="fill: none; stroke: #ffa500; stroke-width: 1.5"/>
    <path d="M 319.012461 98.979588 
L 335.473818 98.979588 
" clip-path="url(#p05b49c0987)" style="fill: none; stroke: #ffa500; stroke-width: 1.5"/>
    <path d="M 281.517147 101.717675 
L 297.978504 101.717675 
" clip-path="url(#p05b49c0987)" style="fill: none; stroke: #ffa500; stroke-width: 1.5"/>
    <path d="M 183.663524 155.739157 
L 200.124881 155.739157 
" clip-path="url(#p05b49c0987)" style="fill: none; stroke: #ffa500; stroke-width: 1.5"/>
    <path d="M 256.825111 162.316647 
L 273.286468 162.316647 
" clip-path="url(#p05b49c0987)" style="fill: none; stroke: #ffa500; stroke-width: 1.5"/>
    <path d="M 307.123703 89.844128 
L 323.58506 89.844128 
" clip-path="url(#p05b49c0987)" style="fill: none; stroke: #ffa500; stroke-width: 1.5"/>
    <path d="M 205.612 179.166319 
L 222.073357 179.166319 
" clip-path="url(#p05b49c0987)" style="fill: none; stroke: #ffa500; stroke-width: 1.5"/>
    <path d="M 243.107314 135.421715 
L 259.568671 135.421715 
" clip-path="url(#p05b49c0987)" style="fill: none; stroke: #ffa500; stroke-width: 1.5"/>
    <path d="M 275.115508 122.235658 
L 291.576865 122.235658 
" clip-path="url(#p05b49c0987)" style="fill: none; stroke: #ffa500; stroke-width: 1.5"/>
    <path d="M 252.252512 150.853121 
L 268.713869 150.853121 
" clip-path="url(#p05b49c0987)" style="fill: none; stroke: #ffa500; stroke-width: 1.5"/>
    <path d="M 321.75602 101.717675 
L 338.217378 101.717675 
" clip-path="url(#p05b49c0987)" style="fill: none; stroke: #ffa500; stroke-width: 1.5"/>
    <path d="M 310.781782 82.513899 
L 327.243139 82.513899 
" clip-path="url(#p05b49c0987)" style="fill: none; stroke: #ffa500; stroke-width: 1.5"/>
    <path d="M 237.620194 115.356996 
L 254.081552 115.356996 
" clip-path="url(#p05b49c0987)" style="fill: none; stroke: #ffa500; stroke-width: 1.5"/>
    <path d="M 308.038223 90.26429 
L 324.49958 90.26429 
" clip-path="url(#p05b49c0987)" style="fill: none; stroke: #ffa500; stroke-width: 1.5"/>
    <path d="M 297.978504 150.853121 
L 314.439862 150.853121 
" clip-path="url(#p05b49c0987)" style="fill: none; stroke: #ffa500; stroke-width: 1.5"/>
    <path d="M 240.363754 161.568429 
L 256.825111 161.568429 
" clip-path="url(#p05b49c0987)" style="fill: none; stroke: #ffa500; stroke-width: 1.5"/>
    <path d="M 328.157659 88.592078 
L 344.619016 88.592078 
" clip-path="url(#p05b49c0987)" style="fill: none; stroke: #ffa500; stroke-width: 1.5"/>
    <path d="M 237.620194 145.494103 
L 254.081552 145.494103 
" clip-path="url(#p05b49c0987)" style="fill: none; stroke: #ffa500; stroke-width: 1.5"/>
    <path d="M 317.183421 79.004429 
L 333.644778 79.004429 
" clip-path="url(#p05b49c0987)" style="fill: none; stroke: #ffa500; stroke-width: 1.5"/>
    <path d="M 126.048773 148.816379 
L 144.33917 148.816379 
" clip-path="url(#p05b49c0987)" style="fill: none; stroke: #ffa500; stroke-width: 1.5"/>
    <path d="M 309.867262 59.143248 
L 326.32862 59.143248 
" clip-path="url(#p05b49c0987)" style="fill: none; stroke: #ffa500; stroke-width: 1.5"/>
    <path d="M 248.594433 154.323483 
L 265.05579 154.323483 
" clip-path="url(#p05b49c0987)" style="fill: none; stroke: #ffa500; stroke-width: 1.5"/>
    <path d="M 265.97031 67.621209 
L 282.431667 67.621209 
" clip-path="url(#p05b49c0987)" style="fill: none; stroke: #ffa500; stroke-width: 1.5"/>
    <path d="M 351.020655 70.460716 
L 367.482013 70.460716 
" clip-path="url(#p05b49c0987)" style="fill: none; stroke: #ffa500; stroke-width: 1.5"/>
    <path d="M 276.944548 126.103133 
L 293.405905 126.103133 
" clip-path="url(#p05b49c0987)" style="fill: none; stroke: #ffa500; stroke-width: 1.5"/>
    <path d="M 255.910591 174.942933 
L 272.371949 174.942933 
" clip-path="url(#p05b49c0987)" style="fill: none; stroke: #ffa500; stroke-width: 1.5"/>
    <path d="M 310.781782 75.591121 
L 327.243139 75.591121 
" clip-path="url(#p05b49c0987)" style="fill: none; stroke: #ffa500; stroke-width: 1.5"/>
    <path d="M 306.209183 77.475846 
L 322.67054 77.475846 
" clip-path="url(#p05b49c0987)" style="fill: none; stroke: #ffa500; stroke-width: 1.5"/>
    <path d="M 251.337992 150.1705 
L 267.799349 150.1705 
" clip-path="url(#p05b49c0987)" style="fill: none; stroke: #ffa500; stroke-width: 1.5"/>
    <path d="M 212.013639 116.911003 
L 228.474996 116.911003 
" clip-path="url(#p05b49c0987)" style="fill: none; stroke: #ffa500; stroke-width: 1.5"/>
    <path d="M 314.439862 81.333057 
L 330.901219 81.333057 
" clip-path="url(#p05b49c0987)" style="fill: none; stroke: #ffa500; stroke-width: 1.5"/>
    <path d="M 274.200988 56.227116 
L 290.662346 56.227116 
" clip-path="url(#p05b49c0987)" style="fill: none; stroke: #ffa500; stroke-width: 1.5"/>
    <path d="M 306.209183 103.577082 
L 324.49958 103.577082 
" clip-path="url(#p05b49c0987)" style="fill: none; stroke: #ffa500; stroke-width: 1.5"/>
    <path d="M 310.781782 91.959254 
L 327.243139 91.959254 
" clip-path="url(#p05b49c0987)" style="fill: none; stroke: #ffa500; stroke-width: 1.5"/>
    <path d="M 319.926981 107.865083 
L 336.388338 107.865083 
" clip-path="url(#p05b49c0987)" style="fill: none; stroke: #ffa500; stroke-width: 1.5"/>
    <path d="M 306.209183 76.341593 
L 322.67054 76.341593 
" clip-path="url(#p05b49c0987)" style="fill: none; stroke: #ffa500; stroke-width: 1.5"/>
    <path d="M 324.49958 93.677598 
L 342.789977 93.677598 
" clip-path="url(#p05b49c0987)" style="fill: none; stroke: #ffa500; stroke-width: 1.5"/>
    <path d="M 322.67054 79.775812 
L 339.131897 79.775812 
" clip-path="url(#p05b49c0987)" style="fill: none; stroke: #ffa500; stroke-width: 1.5"/>
   </g>
   <g id="LineCollection_2">
    <path d="M 81.237301 262.966 
L 81.237301 253.253711 
" clip-path="url(#p05b49c0987)" style="fill: none; stroke: #ffa500; stroke-width: 1.5"/>
    <path d="M 336.388338 128.941022 
L 336.388338 119.013635 
" clip-path="url(#p05b49c0987)" style="fill: none; stroke: #ffa500; stroke-width: 1.5"/>
    <path d="M 284.260707 80.941917 
L 284.260707 74.103605 
" clip-path="url(#p05b49c0987)" style="fill: none; stroke: #ffa500; stroke-width: 1.5"/>
    <path d="M 227.560476 163.826701 
L 227.560476 159.350365 
" clip-path="url(#p05b49c0987)" style="fill: none; stroke: #ffa500; stroke-width: 1.5"/>
    <path d="M 305.294663 83.706042 
L 305.294663 81.333057 
" clip-path="url(#p05b49c0987)" style="fill: none; stroke: #ffa500; stroke-width: 1.5"/>
    <path d="M 327.243139 99.885613 
L 327.243139 98.080104 
" clip-path="url(#p05b49c0987)" style="fill: none; stroke: #ffa500; stroke-width: 1.5"/>
    <path d="M 289.747826 106.419288 
L 289.747826 97.187068 
" clip-path="url(#p05b49c0987)" style="fill: none; stroke: #ffa500; stroke-width: 1.5"/>
    <path d="M 191.894202 161.568429 
L 191.894202 150.1705 
" clip-path="url(#p05b49c0987)" style="fill: none; stroke: #ffa500; stroke-width: 1.5"/>
    <path d="M 265.05579 174.942933 
L 265.05579 150.853121 
" clip-path="url(#p05b49c0987)" style="fill: none; stroke: #ffa500; stroke-width: 1.5"/>
    <path d="M 315.354381 94.982091 
L 315.354381 84.909703 
" clip-path="url(#p05b49c0987)" style="fill: none; stroke: #ffa500; stroke-width: 1.5"/>
    <path d="M 213.842678 185.330443 
L 213.842678 173.29287 
" clip-path="url(#p05b49c0987)" style="fill: none; stroke: #ffa500; stroke-width: 1.5"/>
    <path d="M 251.337992 141.620902 
L 251.337992 129.516441 
" clip-path="url(#p05b49c0987)" style="fill: none; stroke: #ffa500; stroke-width: 1.5"/>
    <path d="M 283.346187 128.368249 
L 283.346187 116.390844 
" clip-path="url(#p05b49c0987)" style="fill: none; stroke: #ffa500; stroke-width: 1.5"/>
    <path d="M 260.483191 157.171103 
L 260.483191 144.840149 
" clip-path="url(#p05b49c0987)" style="fill: none; stroke: #ffa500; stroke-width: 1.5"/>
    <path d="M 329.986699 114.843272 
L 329.986699 89.844128 
" clip-path="url(#p05b49c0987)" style="fill: none; stroke: #ffa500; stroke-width: 1.5"/>
    <path d="M 319.012461 88.592078 
L 319.012461 76.718531 
" clip-path="url(#p05b49c0987)" style="fill: none; stroke: #ffa500; stroke-width: 1.5"/>
    <path d="M 245.850873 121.692834 
L 245.850873 109.327854 
" clip-path="url(#p05b49c0987)" style="fill: none; stroke: #ffa500; stroke-width: 1.5"/>
    <path d="M 316.268901 96.300389 
L 316.268901 84.507189 
" clip-path="url(#p05b49c0987)" style="fill: none; stroke: #ffa500; stroke-width: 1.5"/>
    <path d="M 306.209183 154.323483 
L 306.209183 147.476818 
" clip-path="url(#p05b49c0987)" style="fill: none; stroke: #ffa500; stroke-width: 1.5"/>
    <path d="M 248.594433 167.683912 
L 248.594433 155.739157 
" clip-path="url(#p05b49c0987)" style="fill: none; stroke: #ffa500; stroke-width: 1.5"/>
    <path d="M 336.388338 91.533346 
L 336.388338 85.718653 
" clip-path="url(#p05b49c0987)" style="fill: none; stroke: #ffa500; stroke-width: 1.5"/>
    <path d="M 245.850873 151.539503 
L 245.850873 139.728542 
" clip-path="url(#p05b49c0987)" style="fill: none; stroke: #ffa500; stroke-width: 1.5"/>
    <path d="M 325.4141 90.26429 
L 325.4141 68.678454 
" clip-path="url(#p05b49c0987)" style="fill: none; stroke: #ffa500; stroke-width: 1.5"/>
    <path d="M 135.193972 155.029309 
L 135.193972 142.898635 
" clip-path="url(#p05b49c0987)" style="fill: none; stroke: #ffa500; stroke-width: 1.5"/>
    <path d="M 318.097941 65.533262 
L 318.097941 53.06507 
" clip-path="url(#p05b49c0987)" style="fill: none; stroke: #ffa500; stroke-width: 1.5"/>
    <path d="M 256.825111 160.08534 
L 256.825111 148.816379 
" clip-path="url(#p05b49c0987)" style="fill: none; stroke: #ffa500; stroke-width: 1.5"/>
    <path d="M 274.200988 72.633642 
L 274.200988 62.802677 
" clip-path="url(#p05b49c0987)" style="fill: none; stroke: #ffa500; stroke-width: 1.5"/>
    <path d="M 359.251334 72.268845 
L 359.251334 68.678454 
" clip-path="url(#p05b49c0987)" style="fill: none; stroke: #ffa500; stroke-width: 1.5"/>
    <path d="M 285.175226 132.434091 
L 285.175226 120.07841 
" clip-path="url(#p05b49c0987)" style="fill: none; stroke: #ffa500; stroke-width: 1.5"/>
    <path d="M 264.14127 180.896596 
L 264.14127 169.260869 
" clip-path="url(#p05b49c0987)" style="fill: none; stroke: #ffa500; stroke-width: 1.5"/>
    <path d="M 319.012461 76.341593 
L 319.012461 74.845143 
" clip-path="url(#p05b49c0987)" style="fill: none; stroke: #ffa500; stroke-width: 1.5"/>
    <path d="M 314.439862 81.725429 
L 314.439862 73.366456 
" clip-path="url(#p05b49c0987)" style="fill: none; stroke: #ffa500; stroke-width: 1.5"/>
    <path d="M 259.568671 156.453073 
L 259.568671 144.18961 
" clip-path="url(#p05b49c0987)" style="fill: none; stroke: #ffa500; stroke-width: 1.5"/>
    <path d="M 220.244317 122.780858 
L 220.244317 111.305324 
" clip-path="url(#p05b49c0987)" style="fill: none; stroke: #ffa500; stroke-width: 1.5"/>
    <path d="M 322.67054 82.11904 
L 322.67054 80.552001 
" clip-path="url(#p05b49c0987)" style="fill: none; stroke: #ffa500; stroke-width: 1.5"/>
    <path d="M 282.431667 57.191596 
L 282.431667 55.270047 
" clip-path="url(#p05b49c0987)" style="fill: none; stroke: #ffa500; stroke-width: 1.5"/>
    <path d="M 315.354381 109.819287 
L 315.354381 97.632786 
" clip-path="url(#p05b49c0987)" style="fill: none; stroke: #ffa500; stroke-width: 1.5"/>
    <path d="M 319.012461 94.110913 
L 319.012461 89.844128 
" clip-path="url(#p05b49c0987)" style="fill: none; stroke: #ffa500; stroke-width: 1.5"/>
    <path d="M 328.157659 121.152364 
L 328.157659 95.859404 
" clip-path="url(#p05b49c0987)" style="fill: none; stroke: #ffa500; stroke-width: 1.5"/>
    <path d="M 314.439862 78.237793 
L 314.439862 74.473823 
" clip-path="url(#p05b49c0987)" style="fill: none; stroke: #ffa500; stroke-width: 1.5"/>
    <path d="M 333.644778 99.885613 
L 333.644778 87.764314 
" clip-path="url(#p05b49c0987)" style="fill: none; stroke: #ffa500; stroke-width: 1.5"/>
    <path d="M 330.901219 86.125107 
L 330.901219 73.734485 
" clip-path="url(#p05b49c0987)" style="fill: none; stroke: #ffa500; stroke-width: 1.5"/>
   </g>
   <g id="line2d_33">
    <defs>
     <path id="m1eb23a9f4c" d="M 0 2 
L 0 -2 
" style="stroke: #ffa500"/>
    </defs>
    <g clip-path="url(#p05b49c0987)">
     <use xlink:href="#m1eb23a9f4c" x="72.092102" y="258.015231" style="fill: #ffa500; stroke: #ffa500"/>
     <use xlink:href="#m1eb23a9f4c" x="328.157659" y="123.878468" style="fill: #ffa500; stroke: #ffa500"/>
     <use xlink:href="#m1eb23a9f4c" x="276.030028" y="77.475846" style="fill: #ffa500; stroke: #ffa500"/>
     <use xlink:href="#m1eb23a9f4c" x="219.329798" y="161.568429" style="fill: #ffa500; stroke: #ffa500"/>
     <use xlink:href="#m1eb23a9f4c" x="297.063984" y="82.513899" style="fill: #ffa500; stroke: #ffa500"/>
     <use xlink:href="#m1eb23a9f4c" x="319.012461" y="98.979588" style="fill: #ffa500; stroke: #ffa500"/>
     <use xlink:href="#m1eb23a9f4c" x="281.517147" y="101.717675" style="fill: #ffa500; stroke: #ffa500"/>
     <use xlink:href="#m1eb23a9f4c" x="183.663524" y="155.739157" style="fill: #ffa500; stroke: #ffa500"/>
     <use xlink:href="#m1eb23a9f4c" x="256.825111" y="162.316647" style="fill: #ffa500; stroke: #ffa500"/>
     <use xlink:href="#m1eb23a9f4c" x="307.123703" y="89.844128" style="fill: #ffa500; stroke: #ffa500"/>
     <use xlink:href="#m1eb23a9f4c" x="205.612" y="179.166319" style="fill: #ffa500; stroke: #ffa500"/>
     <use xlink:href="#m1eb23a9f4c" x="243.107314" y="135.421715" style="fill: #ffa500; stroke: #ffa500"/>
     <use xlink:href="#m1eb23a9f4c" x="275.115508" y="122.235658" style="fill: #ffa500; stroke: #ffa500"/>
     <use xlink:href="#m1eb23a9f4c" x="252.252512" y="150.853121" style="fill: #ffa500; stroke: #ffa500"/>
     <use xlink:href="#m1eb23a9f4c" x="321.75602" y="101.717675" style="fill: #ffa500; stroke: #ffa500"/>
     <use xlink:href="#m1eb23a9f4c" x="310.781782" y="82.513899" style="fill: #ffa500; stroke: #ffa500"/>
     <use xlink:href="#m1eb23a9f4c" x="237.620194" y="115.356996" style="fill: #ffa500; stroke: #ffa500"/>
     <use xlink:href="#m1eb23a9f4c" x="308.038223" y="90.26429" style="fill: #ffa500; stroke: #ffa500"/>
     <use xlink:href="#m1eb23a9f4c" x="297.978504" y="150.853121" style="fill: #ffa500; stroke: #ffa500"/>
     <use xlink:href="#m1eb23a9f4c" x="240.363754" y="161.568429" style="fill: #ffa500; stroke: #ffa500"/>
     <use xlink:href="#m1eb23a9f4c" x="328.157659" y="88.592078" style="fill: #ffa500; stroke: #ffa500"/>
     <use xlink:href="#m1eb23a9f4c" x="237.620194" y="145.494103" style="fill: #ffa500; stroke: #ffa500"/>
     <use xlink:href="#m1eb23a9f4c" x="317.183421" y="79.004429" style="fill: #ffa500; stroke: #ffa500"/>
     <use xlink:href="#m1eb23a9f4c" x="126.048773" y="148.816379" style="fill: #ffa500; stroke: #ffa500"/>
     <use xlink:href="#m1eb23a9f4c" x="309.867262" y="59.143248" style="fill: #ffa500; stroke: #ffa500"/>
     <use xlink:href="#m1eb23a9f4c" x="248.594433" y="154.323483" style="fill: #ffa500; stroke: #ffa500"/>
     <use xlink:href="#m1eb23a9f4c" x="265.97031" y="67.621209" style="fill: #ffa500; stroke: #ffa500"/>
     <use xlink:href="#m1eb23a9f4c" x="351.020655" y="70.460716" style="fill: #ffa500; stroke: #ffa500"/>
     <use xlink:href="#m1eb23a9f4c" x="276.944548" y="126.103133" style="fill: #ffa500; stroke: #ffa500"/>
     <use xlink:href="#m1eb23a9f4c" x="255.910591" y="174.942933" style="fill: #ffa500; stroke: #ffa500"/>
     <use xlink:href="#m1eb23a9f4c" x="310.781782" y="75.591121" style="fill: #ffa500; stroke: #ffa500"/>
     <use xlink:href="#m1eb23a9f4c" x="306.209183" y="77.475846" style="fill: #ffa500; stroke: #ffa500"/>
     <use xlink:href="#m1eb23a9f4c" x="251.337992" y="150.1705" style="fill: #ffa500; stroke: #ffa500"/>
     <use xlink:href="#m1eb23a9f4c" x="212.013639" y="116.911003" style="fill: #ffa500; stroke: #ffa500"/>
     <use xlink:href="#m1eb23a9f4c" x="314.439862" y="81.333057" style="fill: #ffa500; stroke: #ffa500"/>
     <use xlink:href="#m1eb23a9f4c" x="274.200988" y="56.227116" style="fill: #ffa500; stroke: #ffa500"/>
     <use xlink:href="#m1eb23a9f4c" x="306.209183" y="103.577082" style="fill: #ffa500; stroke: #ffa500"/>
     <use xlink:href="#m1eb23a9f4c" x="310.781782" y="91.959254" style="fill: #ffa500; stroke: #ffa500"/>
     <use xlink:href="#m1eb23a9f4c" x="319.926981" y="107.865083" style="fill: #ffa500; stroke: #ffa500"/>
     <use xlink:href="#m1eb23a9f4c" x="306.209183" y="76.341593" style="fill: #ffa500; stroke: #ffa500"/>
     <use xlink:href="#m1eb23a9f4c" x="324.49958" y="93.677598" style="fill: #ffa500; stroke: #ffa500"/>
     <use xlink:href="#m1eb23a9f4c" x="322.67054" y="79.775812" style="fill: #ffa500; stroke: #ffa500"/>
    </g>
   </g>
   <g id="line2d_34">
    <g clip-path="url(#p05b49c0987)">
     <use xlink:href="#m1eb23a9f4c" x="90.382499" y="258.015231" style="fill: #ffa500; stroke: #ffa500"/>
     <use xlink:href="#m1eb23a9f4c" x="344.619016" y="123.878468" style="fill: #ffa500; stroke: #ffa500"/>
     <use xlink:href="#m1eb23a9f4c" x="292.491385" y="77.475846" style="fill: #ffa500; stroke: #ffa500"/>
     <use xlink:href="#m1eb23a9f4c" x="235.791155" y="161.568429" style="fill: #ffa500; stroke: #ffa500"/>
     <use xlink:href="#m1eb23a9f4c" x="313.525342" y="82.513899" style="fill: #ffa500; stroke: #ffa500"/>
     <use xlink:href="#m1eb23a9f4c" x="335.473818" y="98.979588" style="fill: #ffa500; stroke: #ffa500"/>
     <use xlink:href="#m1eb23a9f4c" x="297.978504" y="101.717675" style="fill: #ffa500; stroke: #ffa500"/>
     <use xlink:href="#m1eb23a9f4c" x="200.124881" y="155.739157" style="fill: #ffa500; stroke: #ffa500"/>
     <use xlink:href="#m1eb23a9f4c" x="273.286468" y="162.316647" style="fill: #ffa500; stroke: #ffa500"/>
     <use xlink:href="#m1eb23a9f4c" x="323.58506" y="89.844128" style="fill: #ffa500; stroke: #ffa500"/>
     <use xlink:href="#m1eb23a9f4c" x="222.073357" y="179.166319" style="fill: #ffa500; stroke: #ffa500"/>
     <use xlink:href="#m1eb23a9f4c" x="259.568671" y="135.421715" style="fill: #ffa500; stroke: #ffa500"/>
     <use xlink:href="#m1eb23a9f4c" x="291.576865" y="122.235658" style="fill: #ffa500; stroke: #ffa500"/>
     <use xlink:href="#m1eb23a9f4c" x="268.713869" y="150.853121" style="fill: #ffa500; stroke: #ffa500"/>
     <use xlink:href="#m1eb23a9f4c" x="338.217378" y="101.717675" style="fill: #ffa500; stroke: #ffa500"/>
     <use xlink:href="#m1eb23a9f4c" x="327.243139" y="82.513899" style="fill: #ffa500; stroke: #ffa500"/>
     <use xlink:href="#m1eb23a9f4c" x="254.081552" y="115.356996" style="fill: #ffa500; stroke: #ffa500"/>
     <use xlink:href="#m1eb23a9f4c" x="324.49958" y="90.26429" style="fill: #ffa500; stroke: #ffa500"/>
     <use xlink:href="#m1eb23a9f4c" x="314.439862" y="150.853121" style="fill: #ffa500; stroke: #ffa500"/>
     <use xlink:href="#m1eb23a9f4c" x="256.825111" y="161.568429" style="fill: #ffa500; stroke: #ffa500"/>
     <use xlink:href="#m1eb23a9f4c" x="344.619016" y="88.592078" style="fill: #ffa500; stroke: #ffa500"/>
     <use xlink:href="#m1eb23a9f4c" x="254.081552" y="145.494103" style="fill: #ffa500; stroke: #ffa500"/>
     <use xlink:href="#m1eb23a9f4c" x="333.644778" y="79.004429" style="fill: #ffa500; stroke: #ffa500"/>
     <use xlink:href="#m1eb23a9f4c" x="144.33917" y="148.816379" style="fill: #ffa500; stroke: #ffa500"/>
     <use xlink:href="#m1eb23a9f4c" x="326.32862" y="59.143248" style="fill: #ffa500; stroke: #ffa500"/>
     <use xlink:href="#m1eb23a9f4c" x="265.05579" y="154.323483" style="fill: #ffa500; stroke: #ffa500"/>
     <use xlink:href="#m1eb23a9f4c" x="282.431667" y="67.621209" style="fill: #ffa500; stroke: #ffa500"/>
     <use xlink:href="#m1eb23a9f4c" x="367.482013" y="70.460716" style="fill: #ffa500; stroke: #ffa500"/>
     <use xlink:href="#m1eb23a9f4c" x="293.405905" y="126.103133" style="fill: #ffa500; stroke: #ffa500"/>
     <use xlink:href="#m1eb23a9f4c" x="272.371949" y="174.942933" style="fill: #ffa500; stroke: #ffa500"/>
     <use xlink:href="#m1eb23a9f4c" x="327.243139" y="75.591121" style="fill: #ffa500; stroke: #ffa500"/>
     <use xlink:href="#m1eb23a9f4c" x="322.67054" y="77.475846" style="fill: #ffa500; stroke: #ffa500"/>
     <use xlink:href="#m1eb23a9f4c" x="267.799349" y="150.1705" style="fill: #ffa500; stroke: #ffa500"/>
     <use xlink:href="#m1eb23a9f4c" x="228.474996" y="116.911003" style="fill: #ffa500; stroke: #ffa500"/>
     <use xlink:href="#m1eb23a9f4c" x="330.901219" y="81.333057" style="fill: #ffa500; stroke: #ffa500"/>
     <use xlink:href="#m1eb23a9f4c" x="290.662346" y="56.227116" style="fill: #ffa500; stroke: #ffa500"/>
     <use xlink:href="#m1eb23a9f4c" x="324.49958" y="103.577082" style="fill: #ffa500; stroke: #ffa500"/>
     <use xlink:href="#m1eb23a9f4c" x="327.243139" y="91.959254" style="fill: #ffa500; stroke: #ffa500"/>
     <use xlink:href="#m1eb23a9f4c" x="336.388338" y="107.865083" style="fill: #ffa500; stroke: #ffa500"/>
     <use xlink:href="#m1eb23a9f4c" x="322.67054" y="76.341593" style="fill: #ffa500; stroke: #ffa500"/>
     <use xlink:href="#m1eb23a9f4c" x="342.789977" y="93.677598" style="fill: #ffa500; stroke: #ffa500"/>
     <use xlink:href="#m1eb23a9f4c" x="339.131897" y="79.775812" style="fill: #ffa500; stroke: #ffa500"/>
    </g>
   </g>
   <g id="line2d_35">
    <defs>
     <path id="m96fd385cf9" d="M 2 0 
L -2 -0 
" style="stroke: #ffa500"/>
    </defs>
    <g clip-path="url(#p05b49c0987)">
     <use xlink:href="#m96fd385cf9" x="81.237301" y="262.966" style="fill: #ffa500; stroke: #ffa500"/>
     <use xlink:href="#m96fd385cf9" x="336.388338" y="128.941022" style="fill: #ffa500; stroke: #ffa500"/>
     <use xlink:href="#m96fd385cf9" x="284.260707" y="80.941917" style="fill: #ffa500; stroke: #ffa500"/>
     <use xlink:href="#m96fd385cf9" x="227.560476" y="163.826701" style="fill: #ffa500; stroke: #ffa500"/>
     <use xlink:href="#m96fd385cf9" x="305.294663" y="83.706042" style="fill: #ffa500; stroke: #ffa500"/>
     <use xlink:href="#m96fd385cf9" x="327.243139" y="99.885613" style="fill: #ffa500; stroke: #ffa500"/>
     <use xlink:href="#m96fd385cf9" x="289.747826" y="106.419288" style="fill: #ffa500; stroke: #ffa500"/>
     <use xlink:href="#m96fd385cf9" x="191.894202" y="161.568429" style="fill: #ffa500; stroke: #ffa500"/>
     <use xlink:href="#m96fd385cf9" x="265.05579" y="174.942933" style="fill: #ffa500; stroke: #ffa500"/>
     <use xlink:href="#m96fd385cf9" x="315.354381" y="94.982091" style="fill: #ffa500; stroke: #ffa500"/>
     <use xlink:href="#m96fd385cf9" x="213.842678" y="185.330443" style="fill: #ffa500; stroke: #ffa500"/>
     <use xlink:href="#m96fd385cf9" x="251.337992" y="141.620902" style="fill: #ffa500; stroke: #ffa500"/>
     <use xlink:href="#m96fd385cf9" x="283.346187" y="128.368249" style="fill: #ffa500; stroke: #ffa500"/>
     <use xlink:href="#m96fd385cf9" x="260.483191" y="157.171103" style="fill: #ffa500; stroke: #ffa500"/>
     <use xlink:href="#m96fd385cf9" x="329.986699" y="114.843272" style="fill: #ffa500; stroke: #ffa500"/>
     <use xlink:href="#m96fd385cf9" x="319.012461" y="88.592078" style="fill: #ffa500; stroke: #ffa500"/>
     <use xlink:href="#m96fd385cf9" x="245.850873" y="121.692834" style="fill: #ffa500; stroke: #ffa500"/>
     <use xlink:href="#m96fd385cf9" x="316.268901" y="96.300389" style="fill: #ffa500; stroke: #ffa500"/>
     <use xlink:href="#m96fd385cf9" x="306.209183" y="154.323483" style="fill: #ffa500; stroke: #ffa500"/>
     <use xlink:href="#m96fd385cf9" x="248.594433" y="167.683912" style="fill: #ffa500; stroke: #ffa500"/>
     <use xlink:href="#m96fd385cf9" x="336.388338" y="91.533346" style="fill: #ffa500; stroke: #ffa500"/>
     <use xlink:href="#m96fd385cf9" x="245.850873" y="151.539503" style="fill: #ffa500; stroke: #ffa500"/>
     <use xlink:href="#m96fd385cf9" x="325.4141" y="90.26429" style="fill: #ffa500; stroke: #ffa500"/>
     <use xlink:href="#m96fd385cf9" x="135.193972" y="155.029309" style="fill: #ffa500; stroke: #ffa500"/>
     <use xlink:href="#m96fd385cf9" x="318.097941" y="65.533262" style="fill: #ffa500; stroke: #ffa500"/>
     <use xlink:href="#m96fd385cf9" x="256.825111" y="160.08534" style="fill: #ffa500; stroke: #ffa500"/>
     <use xlink:href="#m96fd385cf9" x="274.200988" y="72.633642" style="fill: #ffa500; stroke: #ffa500"/>
     <use xlink:href="#m96fd385cf9" x="359.251334" y="72.268845" style="fill: #ffa500; stroke: #ffa500"/>
     <use xlink:href="#m96fd385cf9" x="285.175226" y="132.434091" style="fill: #ffa500; stroke: #ffa500"/>
     <use xlink:href="#m96fd385cf9" x="264.14127" y="180.896596" style="fill: #ffa500; stroke: #ffa500"/>
     <use xlink:href="#m96fd385cf9" x="319.012461" y="76.341593" style="fill: #ffa500; stroke: #ffa500"/>
     <use xlink:href="#m96fd385cf9" x="314.439862" y="81.725429" style="fill: #ffa500; stroke: #ffa500"/>
     <use xlink:href="#m96fd385cf9" x="259.568671" y="156.453073" style="fill: #ffa500; stroke: #ffa500"/>
     <use xlink:href="#m96fd385cf9" x="220.244317" y="122.780858" style="fill: #ffa500; stroke: #ffa500"/>
     <use xlink:href="#m96fd385cf9" x="322.67054" y="82.11904" style="fill: #ffa500; stroke: #ffa500"/>
     <use xlink:href="#m96fd385cf9" x="282.431667" y="57.191596" style="fill: #ffa500; stroke: #ffa500"/>
     <use xlink:href="#m96fd385cf9" x="315.354381" y="109.819287" style="fill: #ffa500; stroke: #ffa500"/>
     <use xlink:href="#m96fd385cf9" x="319.012461" y="94.110913" style="fill: #ffa500; stroke: #ffa500"/>
     <use xlink:href="#m96fd385cf9" x="328.157659" y="121.152364" style="fill: #ffa500; stroke: #ffa500"/>
     <use xlink:href="#m96fd385cf9" x="314.439862" y="78.237793" style="fill: #ffa500; stroke: #ffa500"/>
     <use xlink:href="#m96fd385cf9" x="333.644778" y="99.885613" style="fill: #ffa500; stroke: #ffa500"/>
     <use xlink:href="#m96fd385cf9" x="330.901219" y="86.125107" style="fill: #ffa500; stroke: #ffa500"/>
    </g>
   </g>
   <g id="line2d_36">
    <g clip-path="url(#p05b49c0987)">
     <use xlink:href="#m96fd385cf9" x="81.237301" y="253.253711" style="fill: #ffa500; stroke: #ffa500"/>
     <use xlink:href="#m96fd385cf9" x="336.388338" y="119.013635" style="fill: #ffa500; stroke: #ffa500"/>
     <use xlink:href="#m96fd385cf9" x="284.260707" y="74.103605" style="fill: #ffa500; stroke: #ffa500"/>
     <use xlink:href="#m96fd385cf9" x="227.560476" y="159.350365" style="fill: #ffa500; stroke: #ffa500"/>
     <use xlink:href="#m96fd385cf9" x="305.294663" y="81.333057" style="fill: #ffa500; stroke: #ffa500"/>
     <use xlink:href="#m96fd385cf9" x="327.243139" y="98.080104" style="fill: #ffa500; stroke: #ffa500"/>
     <use xlink:href="#m96fd385cf9" x="289.747826" y="97.187068" style="fill: #ffa500; stroke: #ffa500"/>
     <use xlink:href="#m96fd385cf9" x="191.894202" y="150.1705" style="fill: #ffa500; stroke: #ffa500"/>
     <use xlink:href="#m96fd385cf9" x="265.05579" y="150.853121" style="fill: #ffa500; stroke: #ffa500"/>
     <use xlink:href="#m96fd385cf9" x="315.354381" y="84.909703" style="fill: #ffa500; stroke: #ffa500"/>
     <use xlink:href="#m96fd385cf9" x="213.842678" y="173.29287" style="fill: #ffa500; stroke: #ffa500"/>
     <use xlink:href="#m96fd385cf9" x="251.337992" y="129.516441" style="fill: #ffa500; stroke: #ffa500"/>
     <use xlink:href="#m96fd385cf9" x="283.346187" y="116.390844" style="fill: #ffa500; stroke: #ffa500"/>
     <use xlink:href="#m96fd385cf9" x="260.483191" y="144.840149" style="fill: #ffa500; stroke: #ffa500"/>
     <use xlink:href="#m96fd385cf9" x="329.986699" y="89.844128" style="fill: #ffa500; stroke: #ffa500"/>
     <use xlink:href="#m96fd385cf9" x="319.012461" y="76.718531" style="fill: #ffa500; stroke: #ffa500"/>
     <use xlink:href="#m96fd385cf9" x="245.850873" y="109.327854" style="fill: #ffa500; stroke: #ffa500"/>
     <use xlink:href="#m96fd385cf9" x="316.268901" y="84.507189" style="fill: #ffa500; stroke: #ffa500"/>
     <use xlink:href="#m96fd385cf9" x="306.209183" y="147.476818" style="fill: #ffa500; stroke: #ffa500"/>
     <use xlink:href="#m96fd385cf9" x="248.594433" y="155.739157" style="fill: #ffa500; stroke: #ffa500"/>
     <use xlink:href="#m96fd385cf9" x="336.388338" y="85.718653" style="fill: #ffa500; stroke: #ffa500"/>
     <use xlink:href="#m96fd385cf9" x="245.850873" y="139.728542" style="fill: #ffa500; stroke: #ffa500"/>
     <use xlink:href="#m96fd385cf9" x="325.4141" y="68.678454" style="fill: #ffa500; stroke: #ffa500"/>
     <use xlink:href="#m96fd385cf9" x="135.193972" y="142.898635" style="fill: #ffa500; stroke: #ffa500"/>
     <use xlink:href="#m96fd385cf9" x="318.097941" y="53.06507" style="fill: #ffa500; stroke: #ffa500"/>
     <use xlink:href="#m96fd385cf9" x="256.825111" y="148.816379" style="fill: #ffa500; stroke: #ffa500"/>
     <use xlink:href="#m96fd385cf9" x="274.200988" y="62.802677" style="fill: #ffa500; stroke: #ffa500"/>
     <use xlink:href="#m96fd385cf9" x="359.251334" y="68.678454" style="fill: #ffa500; stroke: #ffa500"/>
     <use xlink:href="#m96fd385cf9" x="285.175226" y="120.07841" style="fill: #ffa500; stroke: #ffa500"/>
     <use xlink:href="#m96fd385cf9" x="264.14127" y="169.260869" style="fill: #ffa500; stroke: #ffa500"/>
     <use xlink:href="#m96fd385cf9" x="319.012461" y="74.845143" style="fill: #ffa500; stroke: #ffa500"/>
     <use xlink:href="#m96fd385cf9" x="314.439862" y="73.366456" style="fill: #ffa500; stroke: #ffa500"/>
     <use xlink:href="#m96fd385cf9" x="259.568671" y="144.18961" style="fill: #ffa500; stroke: #ffa500"/>
     <use xlink:href="#m96fd385cf9" x="220.244317" y="111.305324" style="fill: #ffa500; stroke: #ffa500"/>
     <use xlink:href="#m96fd385cf9" x="322.67054" y="80.552001" style="fill: #ffa500; stroke: #ffa500"/>
     <use xlink:href="#m96fd385cf9" x="282.431667" y="55.270047" style="fill: #ffa500; stroke: #ffa500"/>
     <use xlink:href="#m96fd385cf9" x="315.354381" y="97.632786" style="fill: #ffa500; stroke: #ffa500"/>
     <use xlink:href="#m96fd385cf9" x="319.012461" y="89.844128" style="fill: #ffa500; stroke: #ffa500"/>
     <use xlink:href="#m96fd385cf9" x="328.157659" y="95.859404" style="fill: #ffa500; stroke: #ffa500"/>
     <use xlink:href="#m96fd385cf9" x="314.439862" y="74.473823" style="fill: #ffa500; stroke: #ffa500"/>
     <use xlink:href="#m96fd385cf9" x="333.644778" y="87.764314" style="fill: #ffa500; stroke: #ffa500"/>
     <use xlink:href="#m96fd385cf9" x="330.901219" y="73.734485" style="fill: #ffa500; stroke: #ffa500"/>
    </g>
   </g>
   <g id="line2d_37">
    <path d="M 76.664702 237.595473 
L 98.324382 224.392723 
L 140.841533 199.207355 
L 208.227206 158.456078 
L 213.040468 155.532098 
L 227.480255 146.649219 
L 245.931094 135.875161 
L 251.546567 132.536594 
L 253.953198 131.115825 
L 257.96425 128.764034 
L 260.370881 127.18145 
L 265.986354 123.808237 
L 268.392985 122.433609 
L 273.206247 119.752923 
L 278.82172 116.346816 
L 280.426141 115.399984 
L 282.832772 113.98416 
L 285.239403 112.734205 
L 291.657086 108.896062 
L 301.283611 104.096797 
L 303.690242 102.702656 
L 312.514557 97.191617 
L 315.723398 95.255369 
L 327.756554 88.349163 
L 354.229497 73.162886 
L 366.262653 65.738089 
L 370.273705 63.52172 
L 375.086967 60.964747 
L 396.746648 48.070749 
L 396.746648 48.070749 
" clip-path="url(#p05b49c0987)" style="fill: none; stroke: #000000; stroke-width: 1.5"/>
   </g>
   <g id="line2d_38">
    <path d="M 76.664702 261.116126 
L 91.104489 252.676497 
L 140.841533 222.68164 
L 158.490161 212.621992 
L 176.13879 201.52028 
L 184.963104 196.50224 
L 211.436047 181.871978 
L 237.90899 165.840951 
L 275.612879 143.567313 
L 290.854876 134.745453 
L 295.668138 132.285072 
L 297.272559 131.314905 
L 304.492453 126.7418 
L 306.899084 125.245156 
L 314.921188 120.163079 
L 318.93224 118.066607 
L 324.547712 115.057295 
L 330.163185 111.897943 
L 352.625076 99.271973 
L 357.438339 96.336494 
L 382.306861 80.924022 
L 395.944437 72.518287 
L 396.746648 72.055373 
L 396.746648 72.055373 
" clip-path="url(#p05b49c0987)" style="fill: none; stroke-dasharray: 5.55,2.4; stroke-dashoffset: 0; stroke: #ff0000; stroke-width: 1.5"/>
   </g>
   <g id="line2d_39">
    <path d="M 76.664702 213.479939 
L 136.02827 177.374868 
L 162.501213 160.887049 
L 171.325528 155.599737 
L 176.13879 152.57947 
L 192.985208 142.035428 
L 205.820575 134.513626 
L 216.24931 128.307096 
L 230.689097 119.907593 
L 236.304569 116.338913 
L 242.722253 112.241271 
L 246.733305 109.906766 
L 250.744356 107.528867 
L 273.206247 93.790654 
L 277.217299 91.260658 
L 284.437193 86.696058 
L 286.041614 85.8876 
L 290.052666 83.778918 
L 292.459297 82.349292 
L 300.481401 77.891984 
L 306.899084 73.923407 
L 308.503505 72.926208 
L 311.712346 71.180191 
L 316.525609 68.348368 
L 318.93224 66.963315 
L 323.745502 64.342805 
L 347.009603 51.002159 
L 360.64718 42.882094 
L 368.669284 37.896223 
L 385.515702 27.975332 
L 396.746648 21.046 
L 396.746648 21.046 
" clip-path="url(#p05b49c0987)" style="fill: none; stroke-dasharray: 5.55,2.4; stroke-dashoffset: 0; stroke: #ff0000; stroke-width: 1.5"/>
   </g>
   <g id="line2d_40">
    <defs>
     <path id="m236aebc36e" d="M 0 3 
C 0.795609 3 1.55874 2.683901 2.12132 2.12132 
C 2.683901 1.55874 3 0.795609 3 0 
C 3 -0.795609 2.683901 -1.55874 2.12132 -2.12132 
C 1.55874 -2.683901 0.795609 -3 0 -3 
C -0.795609 -3 -1.55874 -2.683901 -2.12132 -2.12132 
C -2.683901 -1.55874 -3 -0.795609 -3 0 
C -3 0.795609 -2.683901 1.55874 -2.12132 2.12132 
C -1.55874 2.683901 -0.795609 3 0 3 
z
" style="stroke: #ffa500"/>
    </defs>
    <g clip-path="url(#p05b49c0987)">
     <use xlink:href="#m236aebc36e" x="81.237301" y="258.015231" style="fill: #ffa500; stroke: #ffa500"/>
     <use xlink:href="#m236aebc36e" x="336.388338" y="123.878468" style="fill: #ffa500; stroke: #ffa500"/>
     <use xlink:href="#m236aebc36e" x="284.260707" y="77.475846" style="fill: #ffa500; stroke: #ffa500"/>
     <use xlink:href="#m236aebc36e" x="227.560476" y="161.568429" style="fill: #ffa500; stroke: #ffa500"/>
     <use xlink:href="#m236aebc36e" x="305.294663" y="82.513899" style="fill: #ffa500; stroke: #ffa500"/>
     <use xlink:href="#m236aebc36e" x="327.243139" y="98.979588" style="fill: #ffa500; stroke: #ffa500"/>
     <use xlink:href="#m236aebc36e" x="289.747826" y="101.717675" style="fill: #ffa500; stroke: #ffa500"/>
     <use xlink:href="#m236aebc36e" x="191.894202" y="155.739157" style="fill: #ffa500; stroke: #ffa500"/>
     <use xlink:href="#m236aebc36e" x="265.05579" y="162.316647" style="fill: #ffa500; stroke: #ffa500"/>
     <use xlink:href="#m236aebc36e" x="315.354381" y="89.844128" style="fill: #ffa500; stroke: #ffa500"/>
     <use xlink:href="#m236aebc36e" x="213.842678" y="179.166319" style="fill: #ffa500; stroke: #ffa500"/>
     <use xlink:href="#m236aebc36e" x="251.337992" y="135.421715" style="fill: #ffa500; stroke: #ffa500"/>
     <use xlink:href="#m236aebc36e" x="283.346187" y="122.235658" style="fill: #ffa500; stroke: #ffa500"/>
     <use xlink:href="#m236aebc36e" x="260.483191" y="150.853121" style="fill: #ffa500; stroke: #ffa500"/>
     <use xlink:href="#m236aebc36e" x="329.986699" y="101.717675" style="fill: #ffa500; stroke: #ffa500"/>
     <use xlink:href="#m236aebc36e" x="319.012461" y="82.513899" style="fill: #ffa500; stroke: #ffa500"/>
     <use xlink:href="#m236aebc36e" x="245.850873" y="115.356996" style="fill: #ffa500; stroke: #ffa500"/>
     <use xlink:href="#m236aebc36e" x="316.268901" y="90.26429" style="fill: #ffa500; stroke: #ffa500"/>
     <use xlink:href="#m236aebc36e" x="306.209183" y="150.853121" style="fill: #ffa500; stroke: #ffa500"/>
     <use xlink:href="#m236aebc36e" x="248.594433" y="161.568429" style="fill: #ffa500; stroke: #ffa500"/>
     <use xlink:href="#m236aebc36e" x="336.388338" y="88.592078" style="fill: #ffa500; stroke: #ffa500"/>
     <use xlink:href="#m236aebc36e" x="245.850873" y="145.494103" style="fill: #ffa500; stroke: #ffa500"/>
     <use xlink:href="#m236aebc36e" x="325.4141" y="79.004429" style="fill: #ffa500; stroke: #ffa500"/>
     <use xlink:href="#m236aebc36e" x="135.193972" y="148.816379" style="fill: #ffa500; stroke: #ffa500"/>
     <use xlink:href="#m236aebc36e" x="318.097941" y="59.143248" style="fill: #ffa500; stroke: #ffa500"/>
     <use xlink:href="#m236aebc36e" x="256.825111" y="154.323483" style="fill: #ffa500; stroke: #ffa500"/>
     <use xlink:href="#m236aebc36e" x="274.200988" y="67.621209" style="fill: #ffa500; stroke: #ffa500"/>
     <use xlink:href="#m236aebc36e" x="359.251334" y="70.460716" style="fill: #ffa500; stroke: #ffa500"/>
     <use xlink:href="#m236aebc36e" x="285.175226" y="126.103133" style="fill: #ffa500; stroke: #ffa500"/>
     <use xlink:href="#m236aebc36e" x="264.14127" y="174.942933" style="fill: #ffa500; stroke: #ffa500"/>
     <use xlink:href="#m236aebc36e" x="319.012461" y="75.591121" style="fill: #ffa500; stroke: #ffa500"/>
     <use xlink:href="#m236aebc36e" x="314.439862" y="77.475846" style="fill: #ffa500; stroke: #ffa500"/>
     <use xlink:href="#m236aebc36e" x="259.568671" y="150.1705" style="fill: #ffa500; stroke: #ffa500"/>
     <use xlink:href="#m236aebc36e" x="220.244317" y="116.911003" style="fill: #ffa500; stroke: #ffa500"/>
     <use xlink:href="#m236aebc36e" x="322.67054" y="81.333057" style="fill: #ffa500; stroke: #ffa500"/>
     <use xlink:href="#m236aebc36e" x="282.431667" y="56.227116" style="fill: #ffa500; stroke: #ffa500"/>
     <use xlink:href="#m236aebc36e" x="315.354381" y="103.577082" style="fill: #ffa500; stroke: #ffa500"/>
     <use xlink:href="#m236aebc36e" x="319.012461" y="91.959254" style="fill: #ffa500; stroke: #ffa500"/>
     <use xlink:href="#m236aebc36e" x="328.157659" y="107.865083" style="fill: #ffa500; stroke: #ffa500"/>
     <use xlink:href="#m236aebc36e" x="314.439862" y="76.341593" style="fill: #ffa500; stroke: #ffa500"/>
     <use xlink:href="#m236aebc36e" x="333.644778" y="93.677598" style="fill: #ffa500; stroke: #ffa500"/>
     <use xlink:href="#m236aebc36e" x="330.901219" y="79.775812" style="fill: #ffa500; stroke: #ffa500"/>
    </g>
   </g>
   <g id="patch_3">
    <path d="M 55.859375 275.062 
L 55.859375 8.95 
" style="fill: none; stroke: #000000; stroke-width: 0.8; stroke-linejoin: miter; stroke-linecap: square"/>
   </g>
   <g id="patch_4">
    <path d="M 412.979375 275.062 
L 412.979375 8.95 
" style="fill: none; stroke: #000000; stroke-width: 0.8; stroke-linejoin: miter; stroke-linecap: square"/>
   </g>
   <g id="patch_5">
    <path d="M 55.859375 275.062 
L 412.979375 275.062 
" style="fill: none; stroke: #000000; stroke-width: 0.8; stroke-linejoin: miter; stroke-linecap: square"/>
   </g>
   <g id="patch_6">
    <path d="M 55.859375 8.95 
L 412.979375 8.95 
" style="fill: none; stroke: #000000; stroke-width: 0.8; stroke-linejoin: miter; stroke-linecap: square"/>
   </g>
  </g>
 </g>
 <defs>
  <clipPath id="p05b49c0987">
   <rect x="55.859375" y="8.95" width="357.12" height="266.112"/>
  </clipPath>
 </defs>
</svg>
