<?xml version="1.0" encoding="utf-8" standalone="no"?>
<!DOCTYPE svg PUBLIC "-//W3C//DTD SVG 1.1//EN"
  "http://www.w3.org/Graphics/SVG/1.1/DTD/svg11.dtd">
<!-- Created with matplotlib (https://matplotlib.org/) -->
<svg height="310.890125pt" version="1.1" viewBox="0 0 414.485625 310.890125" width="414.485625pt" xmlns="http://www.w3.org/2000/svg" xmlns:xlink="http://www.w3.org/1999/xlink">
 <metadata>
  <rdf:RDF xmlns:cc="http://creativecommons.org/ns#" xmlns:dc="http://purl.org/dc/elements/1.1/" xmlns:rdf="http://www.w3.org/1999/02/22-rdf-syntax-ns#">
   <cc:Work>
    <dc:type rdf:resource="http://purl.org/dc/dcmitype/StillImage"/>
    <dc:date>2020-11-30T22:16:43.224063</dc:date>
    <dc:format>image/svg+xml</dc:format>
    <dc:creator>
     <cc:Agent>
      <dc:title>Matplotlib v3.3.2, https://matplotlib.org/</dc:title>
     </cc:Agent>
    </dc:creator>
   </cc:Work>
  </rdf:RDF>
 </metadata>
 <defs>
  <style type="text/css">*{stroke-linecap:butt;stroke-linejoin:round;}</style>
 </defs>
 <g id="figure_1">
  <g id="patch_1">
   <path d="M 0 310.890125 
L 414.485625 310.890125 
L 414.485625 0 
L 0 0 
z
" style="fill:#ffffff;"/>
  </g>
  <g id="axes_1">
   <g id="patch_2">
    <path d="M 50.165625 273.312 
L 407.285625 273.312 
L 407.285625 7.2 
L 50.165625 7.2 
z
" style="fill:#ffffff;"/>
   </g>
   <g id="matplotlib.axis_1">
    <g id="xtick_1">
     <g id="line2d_1">
      <defs>
       <path d="M 0 0 
L 0 3.5 
" id="mdc77a8cef9" style="stroke:#000000;stroke-width:0.8;"/>
      </defs>
      <g>
       <use style="stroke:#000000;stroke-width:0.8;" x="74.23633" xlink:href="#mdc77a8cef9" y="273.312"/>
      </g>
     </g>
     <g id="text_1">
      <!-- 6 -->
      <g transform="translate(71.05508 287.910437)scale(0.1 -0.1)">
       <defs>
        <path d="M 33.015625 40.375 
Q 26.375 40.375 22.484375 35.828125 
Q 18.609375 31.296875 18.609375 23.390625 
Q 18.609375 15.53125 22.484375 10.953125 
Q 26.375 6.390625 33.015625 6.390625 
Q 39.65625 6.390625 43.53125 10.953125 
Q 47.40625 15.53125 47.40625 23.390625 
Q 47.40625 31.296875 43.53125 35.828125 
Q 39.65625 40.375 33.015625 40.375 
z
M 52.59375 71.296875 
L 52.59375 62.3125 
Q 48.875 64.0625 45.09375 64.984375 
Q 41.3125 65.921875 37.59375 65.921875 
Q 27.828125 65.921875 22.671875 59.328125 
Q 17.53125 52.734375 16.796875 39.40625 
Q 19.671875 43.65625 24.015625 45.921875 
Q 28.375 48.1875 33.59375 48.1875 
Q 44.578125 48.1875 50.953125 41.515625 
Q 57.328125 34.859375 57.328125 23.390625 
Q 57.328125 12.15625 50.6875 5.359375 
Q 44.046875 -1.421875 33.015625 -1.421875 
Q 20.359375 -1.421875 13.671875 8.265625 
Q 6.984375 17.96875 6.984375 36.375 
Q 6.984375 53.65625 15.1875 63.9375 
Q 23.390625 74.21875 37.203125 74.21875 
Q 40.921875 74.21875 44.703125 73.484375 
Q 48.484375 72.75 52.59375 71.296875 
z
" id="DejaVuSans-54"/>
       </defs>
       <use xlink:href="#DejaVuSans-54"/>
      </g>
     </g>
    </g>
    <g id="xtick_2">
     <g id="line2d_2">
      <g>
       <use style="stroke:#000000;stroke-width:0.8;" x="138.292337" xlink:href="#mdc77a8cef9" y="273.312"/>
      </g>
     </g>
     <g id="text_2">
      <!-- 7 -->
      <g transform="translate(135.111087 287.910437)scale(0.1 -0.1)">
       <defs>
        <path d="M 8.203125 72.90625 
L 55.078125 72.90625 
L 55.078125 68.703125 
L 28.609375 0 
L 18.3125 0 
L 43.21875 64.59375 
L 8.203125 64.59375 
z
" id="DejaVuSans-55"/>
       </defs>
       <use xlink:href="#DejaVuSans-55"/>
      </g>
     </g>
    </g>
    <g id="xtick_3">
     <g id="line2d_3">
      <g>
       <use style="stroke:#000000;stroke-width:0.8;" x="202.348345" xlink:href="#mdc77a8cef9" y="273.312"/>
      </g>
     </g>
     <g id="text_3">
      <!-- 8 -->
      <g transform="translate(199.167095 287.910437)scale(0.1 -0.1)">
       <defs>
        <path d="M 31.78125 34.625 
Q 24.75 34.625 20.71875 30.859375 
Q 16.703125 27.09375 16.703125 20.515625 
Q 16.703125 13.921875 20.71875 10.15625 
Q 24.75 6.390625 31.78125 6.390625 
Q 38.8125 6.390625 42.859375 10.171875 
Q 46.921875 13.96875 46.921875 20.515625 
Q 46.921875 27.09375 42.890625 30.859375 
Q 38.875 34.625 31.78125 34.625 
z
M 21.921875 38.8125 
Q 15.578125 40.375 12.03125 44.71875 
Q 8.5 49.078125 8.5 55.328125 
Q 8.5 64.0625 14.71875 69.140625 
Q 20.953125 74.21875 31.78125 74.21875 
Q 42.671875 74.21875 48.875 69.140625 
Q 55.078125 64.0625 55.078125 55.328125 
Q 55.078125 49.078125 51.53125 44.71875 
Q 48 40.375 41.703125 38.8125 
Q 48.828125 37.15625 52.796875 32.3125 
Q 56.78125 27.484375 56.78125 20.515625 
Q 56.78125 9.90625 50.3125 4.234375 
Q 43.84375 -1.421875 31.78125 -1.421875 
Q 19.734375 -1.421875 13.25 4.234375 
Q 6.78125 9.90625 6.78125 20.515625 
Q 6.78125 27.484375 10.78125 32.3125 
Q 14.796875 37.15625 21.921875 38.8125 
z
M 18.3125 54.390625 
Q 18.3125 48.734375 21.84375 45.5625 
Q 25.390625 42.390625 31.78125 42.390625 
Q 38.140625 42.390625 41.71875 45.5625 
Q 45.3125 48.734375 45.3125 54.390625 
Q 45.3125 60.0625 41.71875 63.234375 
Q 38.140625 66.40625 31.78125 66.40625 
Q 25.390625 66.40625 21.84375 63.234375 
Q 18.3125 60.0625 18.3125 54.390625 
z
" id="DejaVuSans-56"/>
       </defs>
       <use xlink:href="#DejaVuSans-56"/>
      </g>
     </g>
    </g>
    <g id="xtick_4">
     <g id="line2d_4">
      <g>
       <use style="stroke:#000000;stroke-width:0.8;" x="266.404353" xlink:href="#mdc77a8cef9" y="273.312"/>
      </g>
     </g>
     <g id="text_4">
      <!-- 9 -->
      <g transform="translate(263.223103 287.910437)scale(0.1 -0.1)">
       <defs>
        <path d="M 10.984375 1.515625 
L 10.984375 10.5 
Q 14.703125 8.734375 18.5 7.8125 
Q 22.3125 6.890625 25.984375 6.890625 
Q 35.75 6.890625 40.890625 13.453125 
Q 46.046875 20.015625 46.78125 33.40625 
Q 43.953125 29.203125 39.59375 26.953125 
Q 35.25 24.703125 29.984375 24.703125 
Q 19.046875 24.703125 12.671875 31.3125 
Q 6.296875 37.9375 6.296875 49.421875 
Q 6.296875 60.640625 12.9375 67.421875 
Q 19.578125 74.21875 30.609375 74.21875 
Q 43.265625 74.21875 49.921875 64.515625 
Q 56.59375 54.828125 56.59375 36.375 
Q 56.59375 19.140625 48.40625 8.859375 
Q 40.234375 -1.421875 26.421875 -1.421875 
Q 22.703125 -1.421875 18.890625 -0.6875 
Q 15.09375 0.046875 10.984375 1.515625 
z
M 30.609375 32.421875 
Q 37.25 32.421875 41.125 36.953125 
Q 45.015625 41.5 45.015625 49.421875 
Q 45.015625 57.28125 41.125 61.84375 
Q 37.25 66.40625 30.609375 66.40625 
Q 23.96875 66.40625 20.09375 61.84375 
Q 16.21875 57.28125 16.21875 49.421875 
Q 16.21875 41.5 20.09375 36.953125 
Q 23.96875 32.421875 30.609375 32.421875 
z
" id="DejaVuSans-57"/>
       </defs>
       <use xlink:href="#DejaVuSans-57"/>
      </g>
     </g>
    </g>
    <g id="xtick_5">
     <g id="line2d_5">
      <g>
       <use style="stroke:#000000;stroke-width:0.8;" x="330.460361" xlink:href="#mdc77a8cef9" y="273.312"/>
      </g>
     </g>
     <g id="text_5">
      <!-- 10 -->
      <g transform="translate(324.097861 287.910437)scale(0.1 -0.1)">
       <defs>
        <path d="M 12.40625 8.296875 
L 28.515625 8.296875 
L 28.515625 63.921875 
L 10.984375 60.40625 
L 10.984375 69.390625 
L 28.421875 72.90625 
L 38.28125 72.90625 
L 38.28125 8.296875 
L 54.390625 8.296875 
L 54.390625 0 
L 12.40625 0 
z
" id="DejaVuSans-49"/>
        <path d="M 31.78125 66.40625 
Q 24.171875 66.40625 20.328125 58.90625 
Q 16.5 51.421875 16.5 36.375 
Q 16.5 21.390625 20.328125 13.890625 
Q 24.171875 6.390625 31.78125 6.390625 
Q 39.453125 6.390625 43.28125 13.890625 
Q 47.125 21.390625 47.125 36.375 
Q 47.125 51.421875 43.28125 58.90625 
Q 39.453125 66.40625 31.78125 66.40625 
z
M 31.78125 74.21875 
Q 44.046875 74.21875 50.515625 64.515625 
Q 56.984375 54.828125 56.984375 36.375 
Q 56.984375 17.96875 50.515625 8.265625 
Q 44.046875 -1.421875 31.78125 -1.421875 
Q 19.53125 -1.421875 13.0625 8.265625 
Q 6.59375 17.96875 6.59375 36.375 
Q 6.59375 54.828125 13.0625 64.515625 
Q 19.53125 74.21875 31.78125 74.21875 
z
" id="DejaVuSans-48"/>
       </defs>
       <use xlink:href="#DejaVuSans-49"/>
       <use x="63.623047" xlink:href="#DejaVuSans-48"/>
      </g>
     </g>
    </g>
    <g id="xtick_6">
     <g id="line2d_6">
      <g>
       <use style="stroke:#000000;stroke-width:0.8;" x="394.516368" xlink:href="#mdc77a8cef9" y="273.312"/>
      </g>
     </g>
     <g id="text_6">
      <!-- 11 -->
      <g transform="translate(388.153868 287.910437)scale(0.1 -0.1)">
       <use xlink:href="#DejaVuSans-49"/>
       <use x="63.623047" xlink:href="#DejaVuSans-49"/>
      </g>
     </g>
    </g>
    <g id="text_7">
     <!-- Black Hole mass [log, $M_\odot$] -->
     <g transform="translate(162.525625 301.590125)scale(0.1 -0.1)">
      <defs>
       <path d="M 19.671875 34.8125 
L 19.671875 8.109375 
L 35.5 8.109375 
Q 43.453125 8.109375 47.28125 11.40625 
Q 51.125 14.703125 51.125 21.484375 
Q 51.125 28.328125 47.28125 31.5625 
Q 43.453125 34.8125 35.5 34.8125 
z
M 19.671875 64.796875 
L 19.671875 42.828125 
L 34.28125 42.828125 
Q 41.5 42.828125 45.03125 45.53125 
Q 48.578125 48.25 48.578125 53.8125 
Q 48.578125 59.328125 45.03125 62.0625 
Q 41.5 64.796875 34.28125 64.796875 
z
M 9.8125 72.90625 
L 35.015625 72.90625 
Q 46.296875 72.90625 52.390625 68.21875 
Q 58.5 63.53125 58.5 54.890625 
Q 58.5 48.1875 55.375 44.234375 
Q 52.25 40.28125 46.1875 39.3125 
Q 53.46875 37.75 57.5 32.78125 
Q 61.53125 27.828125 61.53125 20.40625 
Q 61.53125 10.640625 54.890625 5.3125 
Q 48.25 0 35.984375 0 
L 9.8125 0 
z
" id="DejaVuSans-66"/>
       <path d="M 9.421875 75.984375 
L 18.40625 75.984375 
L 18.40625 0 
L 9.421875 0 
z
" id="DejaVuSans-108"/>
       <path d="M 34.28125 27.484375 
Q 23.390625 27.484375 19.1875 25 
Q 14.984375 22.515625 14.984375 16.5 
Q 14.984375 11.71875 18.140625 8.90625 
Q 21.296875 6.109375 26.703125 6.109375 
Q 34.1875 6.109375 38.703125 11.40625 
Q 43.21875 16.703125 43.21875 25.484375 
L 43.21875 27.484375 
z
M 52.203125 31.203125 
L 52.203125 0 
L 43.21875 0 
L 43.21875 8.296875 
Q 40.140625 3.328125 35.546875 0.953125 
Q 30.953125 -1.421875 24.3125 -1.421875 
Q 15.921875 -1.421875 10.953125 3.296875 
Q 6 8.015625 6 15.921875 
Q 6 25.140625 12.171875 29.828125 
Q 18.359375 34.515625 30.609375 34.515625 
L 43.21875 34.515625 
L 43.21875 35.40625 
Q 43.21875 41.609375 39.140625 45 
Q 35.0625 48.390625 27.6875 48.390625 
Q 23 48.390625 18.546875 47.265625 
Q 14.109375 46.140625 10.015625 43.890625 
L 10.015625 52.203125 
Q 14.9375 54.109375 19.578125 55.046875 
Q 24.21875 56 28.609375 56 
Q 40.484375 56 46.34375 49.84375 
Q 52.203125 43.703125 52.203125 31.203125 
z
" id="DejaVuSans-97"/>
       <path d="M 48.78125 52.59375 
L 48.78125 44.1875 
Q 44.96875 46.296875 41.140625 47.34375 
Q 37.3125 48.390625 33.40625 48.390625 
Q 24.65625 48.390625 19.8125 42.84375 
Q 14.984375 37.3125 14.984375 27.296875 
Q 14.984375 17.28125 19.8125 11.734375 
Q 24.65625 6.203125 33.40625 6.203125 
Q 37.3125 6.203125 41.140625 7.25 
Q 44.96875 8.296875 48.78125 10.40625 
L 48.78125 2.09375 
Q 45.015625 0.34375 40.984375 -0.53125 
Q 36.96875 -1.421875 32.421875 -1.421875 
Q 20.0625 -1.421875 12.78125 6.34375 
Q 5.515625 14.109375 5.515625 27.296875 
Q 5.515625 40.671875 12.859375 48.328125 
Q 20.21875 56 33.015625 56 
Q 37.15625 56 41.109375 55.140625 
Q 45.0625 54.296875 48.78125 52.59375 
z
" id="DejaVuSans-99"/>
       <path d="M 9.078125 75.984375 
L 18.109375 75.984375 
L 18.109375 31.109375 
L 44.921875 54.6875 
L 56.390625 54.6875 
L 27.390625 29.109375 
L 57.625 0 
L 45.90625 0 
L 18.109375 26.703125 
L 18.109375 0 
L 9.078125 0 
z
" id="DejaVuSans-107"/>
       <path id="DejaVuSans-32"/>
       <path d="M 9.8125 72.90625 
L 19.671875 72.90625 
L 19.671875 43.015625 
L 55.515625 43.015625 
L 55.515625 72.90625 
L 65.375 72.90625 
L 65.375 0 
L 55.515625 0 
L 55.515625 34.71875 
L 19.671875 34.71875 
L 19.671875 0 
L 9.8125 0 
z
" id="DejaVuSans-72"/>
       <path d="M 30.609375 48.390625 
Q 23.390625 48.390625 19.1875 42.75 
Q 14.984375 37.109375 14.984375 27.296875 
Q 14.984375 17.484375 19.15625 11.84375 
Q 23.34375 6.203125 30.609375 6.203125 
Q 37.796875 6.203125 41.984375 11.859375 
Q 46.1875 17.53125 46.1875 27.296875 
Q 46.1875 37.015625 41.984375 42.703125 
Q 37.796875 48.390625 30.609375 48.390625 
z
M 30.609375 56 
Q 42.328125 56 49.015625 48.375 
Q 55.71875 40.765625 55.71875 27.296875 
Q 55.71875 13.875 49.015625 6.21875 
Q 42.328125 -1.421875 30.609375 -1.421875 
Q 18.84375 -1.421875 12.171875 6.21875 
Q 5.515625 13.875 5.515625 27.296875 
Q 5.515625 40.765625 12.171875 48.375 
Q 18.84375 56 30.609375 56 
z
" id="DejaVuSans-111"/>
       <path d="M 56.203125 29.59375 
L 56.203125 25.203125 
L 14.890625 25.203125 
Q 15.484375 15.921875 20.484375 11.0625 
Q 25.484375 6.203125 34.421875 6.203125 
Q 39.59375 6.203125 44.453125 7.46875 
Q 49.3125 8.734375 54.109375 11.28125 
L 54.109375 2.78125 
Q 49.265625 0.734375 44.1875 -0.34375 
Q 39.109375 -1.421875 33.890625 -1.421875 
Q 20.796875 -1.421875 13.15625 6.1875 
Q 5.515625 13.8125 5.515625 26.8125 
Q 5.515625 40.234375 12.765625 48.109375 
Q 20.015625 56 32.328125 56 
Q 43.359375 56 49.78125 48.890625 
Q 56.203125 41.796875 56.203125 29.59375 
z
M 47.21875 32.234375 
Q 47.125 39.59375 43.09375 43.984375 
Q 39.0625 48.390625 32.421875 48.390625 
Q 24.90625 48.390625 20.390625 44.140625 
Q 15.875 39.890625 15.1875 32.171875 
z
" id="DejaVuSans-101"/>
       <path d="M 52 44.1875 
Q 55.375 50.25 60.0625 53.125 
Q 64.75 56 71.09375 56 
Q 79.640625 56 84.28125 50.015625 
Q 88.921875 44.046875 88.921875 33.015625 
L 88.921875 0 
L 79.890625 0 
L 79.890625 32.71875 
Q 79.890625 40.578125 77.09375 44.375 
Q 74.3125 48.1875 68.609375 48.1875 
Q 61.625 48.1875 57.5625 43.546875 
Q 53.515625 38.921875 53.515625 30.90625 
L 53.515625 0 
L 44.484375 0 
L 44.484375 32.71875 
Q 44.484375 40.625 41.703125 44.40625 
Q 38.921875 48.1875 33.109375 48.1875 
Q 26.21875 48.1875 22.15625 43.53125 
Q 18.109375 38.875 18.109375 30.90625 
L 18.109375 0 
L 9.078125 0 
L 9.078125 54.6875 
L 18.109375 54.6875 
L 18.109375 46.1875 
Q 21.1875 51.21875 25.484375 53.609375 
Q 29.78125 56 35.6875 56 
Q 41.65625 56 45.828125 52.96875 
Q 50 49.953125 52 44.1875 
z
" id="DejaVuSans-109"/>
       <path d="M 44.28125 53.078125 
L 44.28125 44.578125 
Q 40.484375 46.53125 36.375 47.5 
Q 32.28125 48.484375 27.875 48.484375 
Q 21.1875 48.484375 17.84375 46.4375 
Q 14.5 44.390625 14.5 40.28125 
Q 14.5 37.15625 16.890625 35.375 
Q 19.28125 33.59375 26.515625 31.984375 
L 29.59375 31.296875 
Q 39.15625 29.25 43.1875 25.515625 
Q 47.21875 21.78125 47.21875 15.09375 
Q 47.21875 7.46875 41.1875 3.015625 
Q 35.15625 -1.421875 24.609375 -1.421875 
Q 20.21875 -1.421875 15.453125 -0.5625 
Q 10.6875 0.296875 5.421875 2 
L 5.421875 11.28125 
Q 10.40625 8.6875 15.234375 7.390625 
Q 20.0625 6.109375 24.8125 6.109375 
Q 31.15625 6.109375 34.5625 8.28125 
Q 37.984375 10.453125 37.984375 14.40625 
Q 37.984375 18.0625 35.515625 20.015625 
Q 33.0625 21.96875 24.703125 23.78125 
L 21.578125 24.515625 
Q 13.234375 26.265625 9.515625 29.90625 
Q 5.8125 33.546875 5.8125 39.890625 
Q 5.8125 47.609375 11.28125 51.796875 
Q 16.75 56 26.8125 56 
Q 31.78125 56 36.171875 55.265625 
Q 40.578125 54.546875 44.28125 53.078125 
z
" id="DejaVuSans-115"/>
       <path d="M 8.59375 75.984375 
L 29.296875 75.984375 
L 29.296875 69 
L 17.578125 69 
L 17.578125 -6.203125 
L 29.296875 -6.203125 
L 29.296875 -13.1875 
L 8.59375 -13.1875 
z
" id="DejaVuSans-91"/>
       <path d="M 45.40625 27.984375 
Q 45.40625 37.75 41.375 43.109375 
Q 37.359375 48.484375 30.078125 48.484375 
Q 22.859375 48.484375 18.828125 43.109375 
Q 14.796875 37.75 14.796875 27.984375 
Q 14.796875 18.265625 18.828125 12.890625 
Q 22.859375 7.515625 30.078125 7.515625 
Q 37.359375 7.515625 41.375 12.890625 
Q 45.40625 18.265625 45.40625 27.984375 
z
M 54.390625 6.78125 
Q 54.390625 -7.171875 48.1875 -13.984375 
Q 42 -20.796875 29.203125 -20.796875 
Q 24.46875 -20.796875 20.265625 -20.09375 
Q 16.0625 -19.390625 12.109375 -17.921875 
L 12.109375 -9.1875 
Q 16.0625 -11.328125 19.921875 -12.34375 
Q 23.78125 -13.375 27.78125 -13.375 
Q 36.625 -13.375 41.015625 -8.765625 
Q 45.40625 -4.15625 45.40625 5.171875 
L 45.40625 9.625 
Q 42.625 4.78125 38.28125 2.390625 
Q 33.9375 0 27.875 0 
Q 17.828125 0 11.671875 7.65625 
Q 5.515625 15.328125 5.515625 27.984375 
Q 5.515625 40.671875 11.671875 48.328125 
Q 17.828125 56 27.875 56 
Q 33.9375 56 38.28125 53.609375 
Q 42.625 51.21875 45.40625 46.390625 
L 45.40625 54.6875 
L 54.390625 54.6875 
z
" id="DejaVuSans-103"/>
       <path d="M 11.71875 12.40625 
L 22.015625 12.40625 
L 22.015625 4 
L 14.015625 -11.625 
L 7.71875 -11.625 
L 11.71875 4 
z
" id="DejaVuSans-44"/>
       <path d="M 16.890625 72.90625 
L 31.6875 72.90625 
L 40.1875 23.78125 
L 68.40625 72.90625 
L 83.59375 72.90625 
L 69.390625 0 
L 59.8125 0 
L 72.21875 63.921875 
L 43.609375 14.015625 
L 33.984375 14.015625 
L 24.703125 64.109375 
L 12.3125 0 
L 2.6875 0 
z
" id="DejaVuSans-Oblique-77"/>
       <path d="M 36.71875 37.546875 
L 47.078125 37.546875 
L 47.078125 25.140625 
L 36.71875 25.140625 
z
M 51.65625 55.03125 
Q 47.125 56.9375 41.890625 56.9375 
Q 36.671875 56.9375 32.125 55.03125 
Q 27.640625 53.125 23.921875 49.421875 
Q 20.171875 45.65625 18.3125 41.15625 
Q 16.453125 36.671875 16.453125 31.34375 
Q 16.453125 26.171875 18.3125 21.671875 
Q 20.171875 17.1875 23.921875 13.421875 
Q 27.640625 9.71875 32.125 7.8125 
Q 36.671875 5.90625 41.890625 5.90625 
Q 47.125 5.90625 51.65625 7.8125 
Q 56.15625 9.71875 59.859375 13.421875 
Q 63.625 17.1875 65.46875 21.671875 
Q 67.328125 26.171875 67.328125 31.34375 
Q 67.328125 36.671875 65.46875 41.15625 
Q 63.625 45.65625 59.859375 49.421875 
Q 56.15625 53.125 51.65625 55.03125 
z
M 23.53125 59.375 
Q 35.15625 64.265625 41.890625 64.265625 
Q 48.640625 64.265625 54.4375 61.8125 
Q 60.25 59.375 65.046875 54.59375 
Q 69.875 49.75 72.265625 43.953125 
Q 74.65625 38.1875 74.65625 31.34375 
Q 74.65625 24.65625 72.265625 18.84375 
Q 69.875 13.09375 65.046875 8.25 
Q 60.25 3.46875 54.4375 1.015625 
Q 48.640625 -1.421875 41.890625 -1.421875 
Q 35.15625 -1.421875 29.34375 1.015625 
Q 23.53125 3.46875 18.75 8.25 
Q 13.921875 13.09375 11.53125 18.84375 
Q 9.125 24.65625 9.125 31.34375 
Q 9.125 38.1875 11.53125 43.953125 
Q 13.921875 49.75 18.75 54.59375 
Q 23.53125 59.375 35.15625 64.265625 
z
" id="DejaVuSans-8857"/>
       <path d="M 30.421875 75.984375 
L 30.421875 -13.1875 
L 9.71875 -13.1875 
L 9.71875 -6.203125 
L 21.390625 -6.203125 
L 21.390625 69 
L 9.71875 69 
L 9.71875 75.984375 
z
" id="DejaVuSans-93"/>
      </defs>
      <use transform="translate(0 0.015625)" xlink:href="#DejaVuSans-66"/>
      <use transform="translate(68.603516 0.015625)" xlink:href="#DejaVuSans-108"/>
      <use transform="translate(96.386719 0.015625)" xlink:href="#DejaVuSans-97"/>
      <use transform="translate(157.666016 0.015625)" xlink:href="#DejaVuSans-99"/>
      <use transform="translate(212.646484 0.015625)" xlink:href="#DejaVuSans-107"/>
      <use transform="translate(270.556641 0.015625)" xlink:href="#DejaVuSans-32"/>
      <use transform="translate(302.34375 0.015625)" xlink:href="#DejaVuSans-72"/>
      <use transform="translate(377.539062 0.015625)" xlink:href="#DejaVuSans-111"/>
      <use transform="translate(438.720703 0.015625)" xlink:href="#DejaVuSans-108"/>
      <use transform="translate(466.503906 0.015625)" xlink:href="#DejaVuSans-101"/>
      <use transform="translate(528.027344 0.015625)" xlink:href="#DejaVuSans-32"/>
      <use transform="translate(559.814453 0.015625)" xlink:href="#DejaVuSans-109"/>
      <use transform="translate(657.226562 0.015625)" xlink:href="#DejaVuSans-97"/>
      <use transform="translate(718.505859 0.015625)" xlink:href="#DejaVuSans-115"/>
      <use transform="translate(770.605469 0.015625)" xlink:href="#DejaVuSans-115"/>
      <use transform="translate(822.705078 0.015625)" xlink:href="#DejaVuSans-32"/>
      <use transform="translate(854.492188 0.015625)" xlink:href="#DejaVuSans-91"/>
      <use transform="translate(893.505859 0.015625)" xlink:href="#DejaVuSans-108"/>
      <use transform="translate(921.289062 0.015625)" xlink:href="#DejaVuSans-111"/>
      <use transform="translate(982.470703 0.015625)" xlink:href="#DejaVuSans-103"/>
      <use transform="translate(1045.947266 0.015625)" xlink:href="#DejaVuSans-44"/>
      <use transform="translate(1077.734375 0.015625)" xlink:href="#DejaVuSans-32"/>
      <use transform="translate(1109.521484 0.015625)" xlink:href="#DejaVuSans-Oblique-77"/>
      <use transform="translate(1209.438477 -16.390625)scale(0.7)" xlink:href="#DejaVuSans-8857"/>
      <use transform="translate(1284.462891 0.015625)" xlink:href="#DejaVuSans-93"/>
     </g>
    </g>
   </g>
   <g id="matplotlib.axis_2">
    <g id="ytick_1">
     <g id="line2d_7">
      <defs>
       <path d="M 0 0 
L -3.5 0 
" id="m4dae2c0079" style="stroke:#000000;stroke-width:0.8;"/>
      </defs>
      <g>
       <use style="stroke:#000000;stroke-width:0.8;" x="50.165625" xlink:href="#m4dae2c0079" y="257.471108"/>
      </g>
     </g>
     <g id="text_8">
      <!-- 9.0 -->
      <g transform="translate(27.2625 261.270327)scale(0.1 -0.1)">
       <defs>
        <path d="M 10.6875 12.40625 
L 21 12.40625 
L 21 0 
L 10.6875 0 
z
" id="DejaVuSans-46"/>
       </defs>
       <use xlink:href="#DejaVuSans-57"/>
       <use x="63.623047" xlink:href="#DejaVuSans-46"/>
       <use x="95.410156" xlink:href="#DejaVuSans-48"/>
      </g>
     </g>
    </g>
    <g id="ytick_2">
     <g id="line2d_8">
      <g>
       <use style="stroke:#000000;stroke-width:0.8;" x="50.165625" xlink:href="#m4dae2c0079" y="220.022192"/>
      </g>
     </g>
     <g id="text_9">
      <!-- 9.5 -->
      <g transform="translate(27.2625 223.821411)scale(0.1 -0.1)">
       <defs>
        <path d="M 10.796875 72.90625 
L 49.515625 72.90625 
L 49.515625 64.59375 
L 19.828125 64.59375 
L 19.828125 46.734375 
Q 21.96875 47.46875 24.109375 47.828125 
Q 26.265625 48.1875 28.421875 48.1875 
Q 40.625 48.1875 47.75 41.5 
Q 54.890625 34.8125 54.890625 23.390625 
Q 54.890625 11.625 47.5625 5.09375 
Q 40.234375 -1.421875 26.90625 -1.421875 
Q 22.3125 -1.421875 17.546875 -0.640625 
Q 12.796875 0.140625 7.71875 1.703125 
L 7.71875 11.625 
Q 12.109375 9.234375 16.796875 8.0625 
Q 21.484375 6.890625 26.703125 6.890625 
Q 35.15625 6.890625 40.078125 11.328125 
Q 45.015625 15.765625 45.015625 23.390625 
Q 45.015625 31 40.078125 35.4375 
Q 35.15625 39.890625 26.703125 39.890625 
Q 22.75 39.890625 18.8125 39.015625 
Q 14.890625 38.140625 10.796875 36.28125 
z
" id="DejaVuSans-53"/>
       </defs>
       <use xlink:href="#DejaVuSans-57"/>
       <use x="63.623047" xlink:href="#DejaVuSans-46"/>
       <use x="95.410156" xlink:href="#DejaVuSans-53"/>
      </g>
     </g>
    </g>
    <g id="ytick_3">
     <g id="line2d_9">
      <g>
       <use style="stroke:#000000;stroke-width:0.8;" x="50.165625" xlink:href="#m4dae2c0079" y="182.573276"/>
      </g>
     </g>
     <g id="text_10">
      <!-- 10.0 -->
      <g transform="translate(20.9 186.372494)scale(0.1 -0.1)">
       <use xlink:href="#DejaVuSans-49"/>
       <use x="63.623047" xlink:href="#DejaVuSans-48"/>
       <use x="127.246094" xlink:href="#DejaVuSans-46"/>
       <use x="159.033203" xlink:href="#DejaVuSans-48"/>
      </g>
     </g>
    </g>
    <g id="ytick_4">
     <g id="line2d_10">
      <g>
       <use style="stroke:#000000;stroke-width:0.8;" x="50.165625" xlink:href="#m4dae2c0079" y="145.124359"/>
      </g>
     </g>
     <g id="text_11">
      <!-- 10.5 -->
      <g transform="translate(20.9 148.923578)scale(0.1 -0.1)">
       <use xlink:href="#DejaVuSans-49"/>
       <use x="63.623047" xlink:href="#DejaVuSans-48"/>
       <use x="127.246094" xlink:href="#DejaVuSans-46"/>
       <use x="159.033203" xlink:href="#DejaVuSans-53"/>
      </g>
     </g>
    </g>
    <g id="ytick_5">
     <g id="line2d_11">
      <g>
       <use style="stroke:#000000;stroke-width:0.8;" x="50.165625" xlink:href="#m4dae2c0079" y="107.675443"/>
      </g>
     </g>
     <g id="text_12">
      <!-- 11.0 -->
      <g transform="translate(20.9 111.474661)scale(0.1 -0.1)">
       <use xlink:href="#DejaVuSans-49"/>
       <use x="63.623047" xlink:href="#DejaVuSans-49"/>
       <use x="127.246094" xlink:href="#DejaVuSans-46"/>
       <use x="159.033203" xlink:href="#DejaVuSans-48"/>
      </g>
     </g>
    </g>
    <g id="ytick_6">
     <g id="line2d_12">
      <g>
       <use style="stroke:#000000;stroke-width:0.8;" x="50.165625" xlink:href="#m4dae2c0079" y="70.226526"/>
      </g>
     </g>
     <g id="text_13">
      <!-- 11.5 -->
      <g transform="translate(20.9 74.025745)scale(0.1 -0.1)">
       <use xlink:href="#DejaVuSans-49"/>
       <use x="63.623047" xlink:href="#DejaVuSans-49"/>
       <use x="127.246094" xlink:href="#DejaVuSans-46"/>
       <use x="159.033203" xlink:href="#DejaVuSans-53"/>
      </g>
     </g>
    </g>
    <g id="ytick_7">
     <g id="line2d_13">
      <g>
       <use style="stroke:#000000;stroke-width:0.8;" x="50.165625" xlink:href="#m4dae2c0079" y="32.77761"/>
      </g>
     </g>
     <g id="text_14">
      <!-- 12.0 -->
      <g transform="translate(20.9 36.576829)scale(0.1 -0.1)">
       <defs>
        <path d="M 19.1875 8.296875 
L 53.609375 8.296875 
L 53.609375 0 
L 7.328125 0 
L 7.328125 8.296875 
Q 12.9375 14.109375 22.625 23.890625 
Q 32.328125 33.6875 34.8125 36.53125 
Q 39.546875 41.84375 41.421875 45.53125 
Q 43.3125 49.21875 43.3125 52.78125 
Q 43.3125 58.59375 39.234375 62.25 
Q 35.15625 65.921875 28.609375 65.921875 
Q 23.96875 65.921875 18.8125 64.3125 
Q 13.671875 62.703125 7.8125 59.421875 
L 7.8125 69.390625 
Q 13.765625 71.78125 18.9375 73 
Q 24.125 74.21875 28.421875 74.21875 
Q 39.75 74.21875 46.484375 68.546875 
Q 53.21875 62.890625 53.21875 53.421875 
Q 53.21875 48.921875 51.53125 44.890625 
Q 49.859375 40.875 45.40625 35.40625 
Q 44.1875 33.984375 37.640625 27.21875 
Q 31.109375 20.453125 19.1875 8.296875 
z
" id="DejaVuSans-50"/>
       </defs>
       <use xlink:href="#DejaVuSans-49"/>
       <use x="63.623047" xlink:href="#DejaVuSans-50"/>
       <use x="127.246094" xlink:href="#DejaVuSans-46"/>
       <use x="159.033203" xlink:href="#DejaVuSans-48"/>
      </g>
     </g>
    </g>
    <g id="text_15">
     <!-- Bulge mass [log, $M_\odot$] -->
     <g transform="translate(14.8 194.306)rotate(-90)scale(0.1 -0.1)">
      <defs>
       <path d="M 8.5 21.578125 
L 8.5 54.6875 
L 17.484375 54.6875 
L 17.484375 21.921875 
Q 17.484375 14.15625 20.5 10.265625 
Q 23.53125 6.390625 29.59375 6.390625 
Q 36.859375 6.390625 41.078125 11.03125 
Q 45.3125 15.671875 45.3125 23.6875 
L 45.3125 54.6875 
L 54.296875 54.6875 
L 54.296875 0 
L 45.3125 0 
L 45.3125 8.40625 
Q 42.046875 3.421875 37.71875 1 
Q 33.40625 -1.421875 27.6875 -1.421875 
Q 18.265625 -1.421875 13.375 4.4375 
Q 8.5 10.296875 8.5 21.578125 
z
M 31.109375 56 
z
" id="DejaVuSans-117"/>
      </defs>
      <use transform="translate(0 0.015625)" xlink:href="#DejaVuSans-66"/>
      <use transform="translate(68.603516 0.015625)" xlink:href="#DejaVuSans-117"/>
      <use transform="translate(131.982422 0.015625)" xlink:href="#DejaVuSans-108"/>
      <use transform="translate(159.765625 0.015625)" xlink:href="#DejaVuSans-103"/>
      <use transform="translate(223.242188 0.015625)" xlink:href="#DejaVuSans-101"/>
      <use transform="translate(284.765625 0.015625)" xlink:href="#DejaVuSans-32"/>
      <use transform="translate(316.552734 0.015625)" xlink:href="#DejaVuSans-109"/>
      <use transform="translate(413.964844 0.015625)" xlink:href="#DejaVuSans-97"/>
      <use transform="translate(475.244141 0.015625)" xlink:href="#DejaVuSans-115"/>
      <use transform="translate(527.34375 0.015625)" xlink:href="#DejaVuSans-115"/>
      <use transform="translate(579.443359 0.015625)" xlink:href="#DejaVuSans-32"/>
      <use transform="translate(611.230469 0.015625)" xlink:href="#DejaVuSans-91"/>
      <use transform="translate(650.244141 0.015625)" xlink:href="#DejaVuSans-108"/>
      <use transform="translate(678.027344 0.015625)" xlink:href="#DejaVuSans-111"/>
      <use transform="translate(739.208984 0.015625)" xlink:href="#DejaVuSans-103"/>
      <use transform="translate(802.685547 0.015625)" xlink:href="#DejaVuSans-44"/>
      <use transform="translate(834.472656 0.015625)" xlink:href="#DejaVuSans-32"/>
      <use transform="translate(866.259766 0.015625)" xlink:href="#DejaVuSans-Oblique-77"/>
      <use transform="translate(966.176758 -16.390625)scale(0.7)" xlink:href="#DejaVuSans-8857"/>
      <use transform="translate(1041.201172 0.015625)" xlink:href="#DejaVuSans-93"/>
     </g>
    </g>
   </g>
   <g id="LineCollection_1">
    <path clip-path="url(#p19e368037d)" d="M 89.562118 253.726217 
L 114.142975 253.726217 
" style="fill:none;stroke:#ffa500;stroke-width:1.5;"/>
    <path clip-path="url(#p19e368037d)" d="M 212.681039 44.761263 
L 222.382413 44.761263 
" style="fill:none;stroke:#ffa500;stroke-width:1.5;"/>
    <path clip-path="url(#p19e368037d)" d="M 273.407301 87.453028 
L 281.190462 87.453028 
" style="fill:none;stroke:#ffa500;stroke-width:1.5;"/>
    <path clip-path="url(#p19e368037d)" d="M 248.989 133.889684 
L 254.241094 133.889684 
" style="fill:none;stroke:#ffa500;stroke-width:1.5;"/>
    <path clip-path="url(#p19e368037d)" d="M 243.298576 70.226526 
L 282.51204 70.226526 
" style="fill:none;stroke:#ffa500;stroke-width:1.5;"/>
    <path clip-path="url(#p19e368037d)" d="M 305.102101 52.251046 
L 311.726544 52.251046 
" style="fill:none;stroke:#ffa500;stroke-width:1.5;"/>
    <path clip-path="url(#p19e368037d)" d="M 299.97892 82.959158 
L 309.689229 82.959158 
" style="fill:none;stroke:#ffa500;stroke-width:1.5;"/>
    <path clip-path="url(#p19e368037d)" d="M 129.250384 163.099839 
L 223.021525 163.099839 
" style="fill:none;stroke:#ffa500;stroke-width:1.5;"/>
    <path clip-path="url(#p19e368037d)" d="M 139.421612 103.181573 
L 141.752021 103.181573 
" style="fill:none;stroke:#ffa500;stroke-width:1.5;"/>
    <path clip-path="url(#p19e368037d)" d="M 302.140374 61.987765 
L 307.053068 61.987765 
" style="fill:none;stroke:#ffa500;stroke-width:1.5;"/>
    <path clip-path="url(#p19e368037d)" d="M 206.593407 145.124359 
L 238.951298 145.124359 
" style="fill:none;stroke:#ffa500;stroke-width:1.5;"/>
    <path clip-path="url(#p19e368037d)" d="M 235.797324 114.416248 
L 250.008069 114.416248 
" style="fill:none;stroke:#ffa500;stroke-width:1.5;"/>
    <path clip-path="url(#p19e368037d)" d="M 203.204758 88.202006 
L 222.794935 88.202006 
" style="fill:none;stroke:#ffa500;stroke-width:1.5;"/>
    <path clip-path="url(#p19e368037d)" d="M 239.733148 106.926464 
L 251.762739 106.926464 
" style="fill:none;stroke:#ffa500;stroke-width:1.5;"/>
    <path clip-path="url(#p19e368037d)" d="M 321.433686 50.004111 
L 338.093795 50.004111 
" style="fill:none;stroke:#ffa500;stroke-width:1.5;"/>
    <path clip-path="url(#p19e368037d)" d="M 243.565454 58.991851 
L 255.042691 58.991851 
" style="fill:none;stroke:#ffa500;stroke-width:1.5;"/>
    <path clip-path="url(#p19e368037d)" d="M 258.169104 118.910118 
L 276.307598 118.910118 
" style="fill:none;stroke:#ffa500;stroke-width:1.5;"/>
    <path clip-path="url(#p19e368037d)" d="M 261.434108 61.238786 
L 266.983384 61.238786 
" style="fill:none;stroke:#ffa500;stroke-width:1.5;"/>
    <path clip-path="url(#p19e368037d)" d="M 66.398352 69.477548 
L 216.945858 69.477548 
" style="fill:none;stroke:#ffa500;stroke-width:1.5;"/>
    <path clip-path="url(#p19e368037d)" d="M 187.401769 116.663183 
L 198.21559 116.663183 
" style="fill:none;stroke:#ffa500;stroke-width:1.5;"/>
    <path clip-path="url(#p19e368037d)" d="M 286.614846 44.761263 
L 293.45377 44.761263 
" style="fill:none;stroke:#ffa500;stroke-width:1.5;"/>
    <path clip-path="url(#p19e368037d)" d="M 188.1376 118.910118 
L 218.700083 118.910118 
" style="fill:none;stroke:#ffa500;stroke-width:1.5;"/>
    <path clip-path="url(#p19e368037d)" d="M 315.268649 53.749003 
L 318.662678 53.749003 
" style="fill:none;stroke:#ffa500;stroke-width:1.5;"/>
    <path clip-path="url(#p19e368037d)" d="M 240.913905 209.536495 
L 263.473311 209.536495 
" style="fill:none;stroke:#ffa500;stroke-width:1.5;"/>
    <path clip-path="url(#p19e368037d)" d="M 304.034792 59.74083 
L 316.574167 59.74083 
" style="fill:none;stroke:#ffa500;stroke-width:1.5;"/>
    <path clip-path="url(#p19e368037d)" d="M 215.645233 109.922378 
L 229.81935 109.922378 
" style="fill:none;stroke:#ffa500;stroke-width:1.5;"/>
    <path clip-path="url(#p19e368037d)" d="M 279.748093 95.691789 
L 284.60578 95.691789 
" style="fill:none;stroke:#ffa500;stroke-width:1.5;"/>
    <path clip-path="url(#p19e368037d)" d="M 335.113747 26.036805 
L 391.052898 26.036805 
" style="fill:none;stroke:#ffa500;stroke-width:1.5;"/>
    <path clip-path="url(#p19e368037d)" d="M 250.539839 86.70405 
L 282.696218 86.70405 
" style="fill:none;stroke:#ffa500;stroke-width:1.5;"/>
    <path clip-path="url(#p19e368037d)" d="M 181.991952 103.930551 
L 192.27692 103.930551 
" style="fill:none;stroke:#ffa500;stroke-width:1.5;"/>
    <path clip-path="url(#p19e368037d)" d="M 305.022363 58.991851 
L 324.354599 58.991851 
" style="fill:none;stroke:#ffa500;stroke-width:1.5;"/>
    <path clip-path="url(#p19e368037d)" d="M 301.981926 62.736743 
L 311.935802 62.736743 
" style="fill:none;stroke:#ffa500;stroke-width:1.5;"/>
    <path clip-path="url(#p19e368037d)" d="M 224.099902 107.675443 
L 239.790591 107.675443 
" style="fill:none;stroke:#ffa500;stroke-width:1.5;"/>
    <path clip-path="url(#p19e368037d)" d="M 238.788395 139.881511 
L 256.879958 139.881511 
" style="fill:none;stroke:#ffa500;stroke-width:1.5;"/>
    <path clip-path="url(#p19e368037d)" d="M 292.37141 55.995938 
L 313.321755 55.995938 
" style="fill:none;stroke:#ffa500;stroke-width:1.5;"/>
    <path clip-path="url(#p19e368037d)" d="M 279.745678 88.950985 
L 288.401736 88.950985 
" style="fill:none;stroke:#ffa500;stroke-width:1.5;"/>
    <path clip-path="url(#p19e368037d)" d="M 225.922307 61.987765 
L 254.565466 61.987765 
" style="fill:none;stroke:#ffa500;stroke-width:1.5;"/>
    <path clip-path="url(#p19e368037d)" d="M 278.295491 58.991851 
L 290.938544 58.991851 
" style="fill:none;stroke:#ffa500;stroke-width:1.5;"/>
    <path clip-path="url(#p19e368037d)" d="M 265.57405 51.502068 
L 284.706861 51.502068 
" style="fill:none;stroke:#ffa500;stroke-width:1.5;"/>
    <path clip-path="url(#p19e368037d)" d="M 286.749287 62.736743 
L 293.888728 62.736743 
" style="fill:none;stroke:#ffa500;stroke-width:1.5;"/>
    <path clip-path="url(#p19e368037d)" d="M 300.139441 47.008198 
L 307.264869 47.008198 
" style="fill:none;stroke:#ffa500;stroke-width:1.5;"/>
    <path clip-path="url(#p19e368037d)" d="M 269.722162 49.255133 
L 278.098656 49.255133 
" style="fill:none;stroke:#ffa500;stroke-width:1.5;"/>
   </g>
   <g id="LineCollection_2">
    <path clip-path="url(#p19e368037d)" d="M 99.164755 261.216 
L 99.164755 246.236433 
" style="fill:none;stroke:#ffa500;stroke-width:1.5;"/>
    <path clip-path="url(#p19e368037d)" d="M 216.945858 51.502068 
L 216.945858 38.020458 
" style="fill:none;stroke:#ffa500;stroke-width:1.5;"/>
    <path clip-path="url(#p19e368037d)" d="M 277.122033 94.193833 
L 277.122033 80.712223 
" style="fill:none;stroke:#ffa500;stroke-width:1.5;"/>
    <path clip-path="url(#p19e368037d)" d="M 251.726047 140.630489 
L 251.726047 127.148879 
" style="fill:none;stroke:#ffa500;stroke-width:1.5;"/>
    <path clip-path="url(#p19e368037d)" d="M 262.879729 76.967331 
L 262.879729 63.485721 
" style="fill:none;stroke:#ffa500;stroke-width:1.5;"/>
    <path clip-path="url(#p19e368037d)" d="M 309.158724 58.991851 
L 309.158724 45.510241 
" style="fill:none;stroke:#ffa500;stroke-width:1.5;"/>
    <path clip-path="url(#p19e368037d)" d="M 304.050771 89.699963 
L 304.050771 76.218353 
" style="fill:none;stroke:#ffa500;stroke-width:1.5;"/>
    <path clip-path="url(#p19e368037d)" d="M 148.628927 169.840644 
L 148.628927 156.359034 
" style="fill:none;stroke:#ffa500;stroke-width:1.5;"/>
    <path clip-path="url(#p19e368037d)" d="M 140.43333 109.922378 
L 140.43333 96.440768 
" style="fill:none;stroke:#ffa500;stroke-width:1.5;"/>
    <path clip-path="url(#p19e368037d)" d="M 302.951056 68.72857 
L 302.951056 55.24696 
" style="fill:none;stroke:#ffa500;stroke-width:1.5;"/>
    <path clip-path="url(#p19e368037d)" d="M 218.389251 151.865164 
L 218.389251 138.383554 
" style="fill:none;stroke:#ffa500;stroke-width:1.5;"/>
    <path clip-path="url(#p19e368037d)" d="M 242.004992 121.157053 
L 242.004992 107.675443 
" style="fill:none;stroke:#ffa500;stroke-width:1.5;"/>
    <path clip-path="url(#p19e368037d)" d="M 211.106119 94.942811 
L 211.106119 81.461201 
" style="fill:none;stroke:#ffa500;stroke-width:1.5;"/>
    <path clip-path="url(#p19e368037d)" d="M 245.102717 113.667269 
L 245.102717 100.185659 
" style="fill:none;stroke:#ffa500;stroke-width:1.5;"/>
    <path clip-path="url(#p19e368037d)" d="M 327.806128 56.744916 
L 327.806128 43.263307 
" style="fill:none;stroke:#ffa500;stroke-width:1.5;"/>
    <path clip-path="url(#p19e368037d)" d="M 248.690027 65.732656 
L 248.690027 52.251046 
" style="fill:none;stroke:#ffa500;stroke-width:1.5;"/>
    <path clip-path="url(#p19e368037d)" d="M 265.785498 125.650923 
L 265.785498 112.169313 
" style="fill:none;stroke:#ffa500;stroke-width:1.5;"/>
    <path clip-path="url(#p19e368037d)" d="M 264.235527 67.979591 
L 264.235527 54.497981 
" style="fill:none;stroke:#ffa500;stroke-width:1.5;"/>
    <path clip-path="url(#p19e368037d)" d="M 145.591094 76.218353 
L 145.591094 62.736743 
" style="fill:none;stroke:#ffa500;stroke-width:1.5;"/>
    <path clip-path="url(#p19e368037d)" d="M 192.266521 123.403988 
L 192.266521 109.922378 
" style="fill:none;stroke:#ffa500;stroke-width:1.5;"/>
    <path clip-path="url(#p19e368037d)" d="M 292.336384 51.502068 
L 292.336384 38.020458 
" style="fill:none;stroke:#ffa500;stroke-width:1.5;"/>
    <path clip-path="url(#p19e368037d)" d="M 199.417303 125.650923 
L 199.417303 112.169313 
" style="fill:none;stroke:#ffa500;stroke-width:1.5;"/>
    <path clip-path="url(#p19e368037d)" d="M 316.936543 60.489808 
L 316.936543 47.008198 
" style="fill:none;stroke:#ffa500;stroke-width:1.5;"/>
    <path clip-path="url(#p19e368037d)" d="M 252.193608 217.026279 
L 252.193608 202.046712 
" style="fill:none;stroke:#ffa500;stroke-width:1.5;"/>
    <path clip-path="url(#p19e368037d)" d="M 309.574387 66.481635 
L 309.574387 53.000025 
" style="fill:none;stroke:#ffa500;stroke-width:1.5;"/>
    <path clip-path="url(#p19e368037d)" d="M 221.907935 116.663183 
L 221.907935 103.181573 
" style="fill:none;stroke:#ffa500;stroke-width:1.5;"/>
    <path clip-path="url(#p19e368037d)" d="M 281.329153 102.432594 
L 281.329153 88.950985 
" style="fill:none;stroke:#ffa500;stroke-width:1.5;"/>
    <path clip-path="url(#p19e368037d)" d="M 350.834228 32.77761 
L 350.834228 19.296 
" style="fill:none;stroke:#ffa500;stroke-width:1.5;"/>
    <path clip-path="url(#p19e368037d)" d="M 262.046374 93.444854 
L 262.046374 79.963245 
" style="fill:none;stroke:#ffa500;stroke-width:1.5;"/>
    <path clip-path="url(#p19e368037d)" d="M 186.661814 110.671356 
L 186.661814 97.189746 
" style="fill:none;stroke:#ffa500;stroke-width:1.5;"/>
    <path clip-path="url(#p19e368037d)" d="M 309.750644 65.732656 
L 309.750644 52.251046 
" style="fill:none;stroke:#ffa500;stroke-width:1.5;"/>
    <path clip-path="url(#p19e368037d)" d="M 302.725798 69.477548 
L 302.725798 55.995938 
" style="fill:none;stroke:#ffa500;stroke-width:1.5;"/>
    <path clip-path="url(#p19e368037d)" d="M 230.287183 114.416248 
L 230.287183 100.934638 
" style="fill:none;stroke:#ffa500;stroke-width:1.5;"/>
    <path clip-path="url(#p19e368037d)" d="M 246.388705 146.622316 
L 246.388705 133.140706 
" style="fill:none;stroke:#ffa500;stroke-width:1.5;"/>
    <path clip-path="url(#p19e368037d)" d="M 303.100221 62.736743 
L 303.100221 49.255133 
" style="fill:none;stroke:#ffa500;stroke-width:1.5;"/>
    <path clip-path="url(#p19e368037d)" d="M 287.044434 95.691789 
L 287.044434 82.21018 
" style="fill:none;stroke:#ffa500;stroke-width:1.5;"/>
    <path clip-path="url(#p19e368037d)" d="M 240.634312 69.477548 
L 240.634312 54.497981 
" style="fill:none;stroke:#ffa500;stroke-width:1.5;"/>
    <path clip-path="url(#p19e368037d)" d="M 289.575194 65.732656 
L 289.575194 52.251046 
" style="fill:none;stroke:#ffa500;stroke-width:1.5;"/>
    <path clip-path="url(#p19e368037d)" d="M 274.546179 58.242873 
L 274.546179 44.761263 
" style="fill:none;stroke:#ffa500;stroke-width:1.5;"/>
    <path clip-path="url(#p19e368037d)" d="M 291.671353 69.477548 
L 291.671353 55.995938 
" style="fill:none;stroke:#ffa500;stroke-width:1.5;"/>
    <path clip-path="url(#p19e368037d)" d="M 303.100221 54.497981 
L 303.100221 39.518415 
" style="fill:none;stroke:#ffa500;stroke-width:1.5;"/>
    <path clip-path="url(#p19e368037d)" d="M 273.703109 55.995938 
L 273.703109 42.514328 
" style="fill:none;stroke:#ffa500;stroke-width:1.5;"/>
   </g>
   <g id="line2d_14">
    <defs>
     <path d="M 0 3 
C 0.795609 3 1.55874 2.683901 2.12132 2.12132 
C 2.683901 1.55874 3 0.795609 3 0 
C 3 -0.795609 2.683901 -1.55874 2.12132 -2.12132 
C 1.55874 -2.683901 0.795609 -3 0 -3 
C -0.795609 -3 -1.55874 -2.683901 -2.12132 -2.12132 
C -2.683901 -1.55874 -3 -0.795609 -3 0 
C -3 0.795609 -2.683901 1.55874 -2.12132 2.12132 
C -1.55874 2.683901 -0.795609 3 0 3 
z
" id="mf8c92b1eff" style="stroke:#ffa500;"/>
    </defs>
    <g clip-path="url(#p19e368037d)">
     <use style="fill:#ffa500;stroke:#ffa500;" x="99.164755" xlink:href="#mf8c92b1eff" y="253.726217"/>
     <use style="fill:#ffa500;stroke:#ffa500;" x="216.945858" xlink:href="#mf8c92b1eff" y="44.761263"/>
     <use style="fill:#ffa500;stroke:#ffa500;" x="277.122033" xlink:href="#mf8c92b1eff" y="87.453028"/>
     <use style="fill:#ffa500;stroke:#ffa500;" x="251.726047" xlink:href="#mf8c92b1eff" y="133.889684"/>
     <use style="fill:#ffa500;stroke:#ffa500;" x="262.879729" xlink:href="#mf8c92b1eff" y="70.226526"/>
     <use style="fill:#ffa500;stroke:#ffa500;" x="309.158724" xlink:href="#mf8c92b1eff" y="52.251046"/>
     <use style="fill:#ffa500;stroke:#ffa500;" x="304.050771" xlink:href="#mf8c92b1eff" y="82.959158"/>
     <use style="fill:#ffa500;stroke:#ffa500;" x="148.628927" xlink:href="#mf8c92b1eff" y="163.099839"/>
     <use style="fill:#ffa500;stroke:#ffa500;" x="140.43333" xlink:href="#mf8c92b1eff" y="103.181573"/>
     <use style="fill:#ffa500;stroke:#ffa500;" x="302.951056" xlink:href="#mf8c92b1eff" y="61.987765"/>
     <use style="fill:#ffa500;stroke:#ffa500;" x="218.389251" xlink:href="#mf8c92b1eff" y="145.124359"/>
     <use style="fill:#ffa500;stroke:#ffa500;" x="242.004992" xlink:href="#mf8c92b1eff" y="114.416248"/>
     <use style="fill:#ffa500;stroke:#ffa500;" x="211.106119" xlink:href="#mf8c92b1eff" y="88.202006"/>
     <use style="fill:#ffa500;stroke:#ffa500;" x="245.102717" xlink:href="#mf8c92b1eff" y="106.926464"/>
     <use style="fill:#ffa500;stroke:#ffa500;" x="327.806128" xlink:href="#mf8c92b1eff" y="50.004111"/>
     <use style="fill:#ffa500;stroke:#ffa500;" x="248.690027" xlink:href="#mf8c92b1eff" y="58.991851"/>
     <use style="fill:#ffa500;stroke:#ffa500;" x="265.785498" xlink:href="#mf8c92b1eff" y="118.910118"/>
     <use style="fill:#ffa500;stroke:#ffa500;" x="264.235527" xlink:href="#mf8c92b1eff" y="61.238786"/>
     <use style="fill:#ffa500;stroke:#ffa500;" x="145.591094" xlink:href="#mf8c92b1eff" y="69.477548"/>
     <use style="fill:#ffa500;stroke:#ffa500;" x="192.266521" xlink:href="#mf8c92b1eff" y="116.663183"/>
     <use style="fill:#ffa500;stroke:#ffa500;" x="292.336384" xlink:href="#mf8c92b1eff" y="44.761263"/>
     <use style="fill:#ffa500;stroke:#ffa500;" x="199.417303" xlink:href="#mf8c92b1eff" y="118.910118"/>
     <use style="fill:#ffa500;stroke:#ffa500;" x="316.936543" xlink:href="#mf8c92b1eff" y="53.749003"/>
     <use style="fill:#ffa500;stroke:#ffa500;" x="252.193608" xlink:href="#mf8c92b1eff" y="209.536495"/>
     <use style="fill:#ffa500;stroke:#ffa500;" x="309.574387" xlink:href="#mf8c92b1eff" y="59.74083"/>
     <use style="fill:#ffa500;stroke:#ffa500;" x="221.907935" xlink:href="#mf8c92b1eff" y="109.922378"/>
     <use style="fill:#ffa500;stroke:#ffa500;" x="281.329153" xlink:href="#mf8c92b1eff" y="95.691789"/>
     <use style="fill:#ffa500;stroke:#ffa500;" x="350.834228" xlink:href="#mf8c92b1eff" y="26.036805"/>
     <use style="fill:#ffa500;stroke:#ffa500;" x="262.046374" xlink:href="#mf8c92b1eff" y="86.70405"/>
     <use style="fill:#ffa500;stroke:#ffa500;" x="186.661814" xlink:href="#mf8c92b1eff" y="103.930551"/>
     <use style="fill:#ffa500;stroke:#ffa500;" x="309.750644" xlink:href="#mf8c92b1eff" y="58.991851"/>
     <use style="fill:#ffa500;stroke:#ffa500;" x="302.725798" xlink:href="#mf8c92b1eff" y="62.736743"/>
     <use style="fill:#ffa500;stroke:#ffa500;" x="230.287183" xlink:href="#mf8c92b1eff" y="107.675443"/>
     <use style="fill:#ffa500;stroke:#ffa500;" x="246.388705" xlink:href="#mf8c92b1eff" y="139.881511"/>
     <use style="fill:#ffa500;stroke:#ffa500;" x="303.100221" xlink:href="#mf8c92b1eff" y="55.995938"/>
     <use style="fill:#ffa500;stroke:#ffa500;" x="287.044434" xlink:href="#mf8c92b1eff" y="88.950985"/>
     <use style="fill:#ffa500;stroke:#ffa500;" x="240.634312" xlink:href="#mf8c92b1eff" y="61.987765"/>
     <use style="fill:#ffa500;stroke:#ffa500;" x="289.575194" xlink:href="#mf8c92b1eff" y="58.991851"/>
     <use style="fill:#ffa500;stroke:#ffa500;" x="274.546179" xlink:href="#mf8c92b1eff" y="51.502068"/>
     <use style="fill:#ffa500;stroke:#ffa500;" x="291.671353" xlink:href="#mf8c92b1eff" y="62.736743"/>
     <use style="fill:#ffa500;stroke:#ffa500;" x="303.100221" xlink:href="#mf8c92b1eff" y="47.008198"/>
     <use style="fill:#ffa500;stroke:#ffa500;" x="273.703109" xlink:href="#mf8c92b1eff" y="49.255133"/>
    </g>
   </g>
   <g id="patch_3">
    <path d="M 50.165625 273.312 
L 50.165625 7.2 
" style="fill:none;stroke:#000000;stroke-linecap:square;stroke-linejoin:miter;stroke-width:0.8;"/>
   </g>
   <g id="patch_4">
    <path d="M 407.285625 273.312 
L 407.285625 7.2 
" style="fill:none;stroke:#000000;stroke-linecap:square;stroke-linejoin:miter;stroke-width:0.8;"/>
   </g>
   <g id="patch_5">
    <path d="M 50.165625 273.312 
L 407.285625 273.312 
" style="fill:none;stroke:#000000;stroke-linecap:square;stroke-linejoin:miter;stroke-width:0.8;"/>
   </g>
   <g id="patch_6">
    <path d="M 50.165625 7.2 
L 407.285625 7.2 
" style="fill:none;stroke:#000000;stroke-linecap:square;stroke-linejoin:miter;stroke-width:0.8;"/>
   </g>
  </g>
 </g>
 <defs>
  <clipPath id="p19e368037d">
   <rect height="266.112" width="357.12" x="50.165625" y="7.2"/>
  </clipPath>
 </defs>
</svg>
