<?xml version="1.0" encoding="utf-8" standalone="no"?>
<!DOCTYPE svg PUBLIC "-//W3C//DTD SVG 1.1//EN"
  "http://www.w3.org/Graphics/SVG/1.1/DTD/svg11.dtd">
<svg xmlns:xlink="http://www.w3.org/1999/xlink" width="421.529375pt" height="310.062pt" viewBox="0 0 421.529375 310.062" xmlns="http://www.w3.org/2000/svg" version="1.1">
 <metadata>
  <rdf:RDF xmlns:dc="http://purl.org/dc/elements/1.1/" xmlns:cc="http://creativecommons.org/ns#" xmlns:rdf="http://www.w3.org/1999/02/22-rdf-syntax-ns#">
   <cc:Work>
    <dc:type rdf:resource="http://purl.org/dc/dcmitype/StillImage"/>
    <dc:date>2022-09-20T21:46:26.909962</dc:date>
    <dc:format>image/svg+xml</dc:format>
    <dc:creator>
     <cc:Agent>
      <dc:title>Matplotlib v3.5.1, https://matplotlib.org/</dc:title>
     </cc:Agent>
    </dc:creator>
   </cc:Work>
  </rdf:RDF>
 </metadata>
 <defs>
  <style type="text/css">*{stroke-linejoin: round; stroke-linecap: butt}</style>
 </defs>
 <g id="figure_1">
  <g id="patch_1">
   <path d="M 0 310.062 
L 421.529375 310.062 
L 421.529375 0 
L 0 0 
z
" style="fill: #ffffff"/>
  </g>
  <g id="axes_1">
   <g id="patch_2">
    <path d="M 55.459375 275.062 
L 412.579375 275.062 
L 412.579375 8.95 
L 55.459375 8.95 
z
" style="fill: #ffffff"/>
   </g>
   <g id="PolyCollection_1">
    <defs>
     <path id="mbd67113bdf" d="M 76.264702 -91.589745 
L 76.264702 -62.327519 
L 77.066912 -62.847107 
L 77.869122 -63.366696 
L 78.671333 -63.886284 
L 79.473543 -64.405873 
L 80.275753 -64.925462 
L 81.077964 -65.445051 
L 81.880174 -65.96464 
L 82.682385 -66.484228 
L 83.484595 -67.003817 
L 84.286805 -67.523406 
L 85.089016 -68.042995 
L 85.891226 -68.562584 
L 86.693437 -69.082173 
L 87.495647 -69.601763 
L 88.297857 -70.121352 
L 89.100068 -70.640941 
L 89.902278 -71.16053 
L 90.704489 -71.680119 
L 91.506699 -72.199709 
L 92.308909 -72.719298 
L 93.11112 -73.238887 
L 93.91333 -73.758477 
L 94.715541 -74.278066 
L 95.517751 -74.797656 
L 96.319961 -75.317245 
L 97.122172 -75.836835 
L 97.924382 -76.356424 
L 98.726592 -76.876014 
L 99.528803 -77.395604 
L 100.331013 -77.915194 
L 101.133224 -78.434783 
L 101.935434 -78.954373 
L 102.737644 -79.473963 
L 103.539855 -79.993553 
L 104.342065 -80.513143 
L 105.144276 -81.032733 
L 105.946486 -81.552323 
L 106.748696 -82.071913 
L 107.550907 -82.591503 
L 108.353117 -83.111093 
L 109.155328 -83.630683 
L 109.957538 -84.150273 
L 110.759748 -84.669864 
L 111.561959 -85.189454 
L 112.364169 -85.709044 
L 113.16638 -86.228635 
L 113.96859 -86.748225 
L 114.7708 -87.267815 
L 115.573011 -87.787406 
L 116.375221 -88.306996 
L 117.177431 -88.826587 
L 117.979642 -89.346178 
L 118.781852 -89.865768 
L 119.584063 -90.385359 
L 120.386273 -90.90495 
L 121.188483 -91.42454 
L 121.990694 -91.944131 
L 122.792904 -92.463722 
L 123.595115 -92.983313 
L 124.397325 -93.502904 
L 125.199535 -94.022495 
L 126.001746 -94.542086 
L 126.803956 -95.061677 
L 127.606167 -95.581268 
L 128.408377 -96.100859 
L 129.210587 -96.62045 
L 130.012798 -97.140041 
L 130.815008 -97.659632 
L 131.617219 -98.179224 
L 132.419429 -98.698815 
L 133.221639 -99.218406 
L 134.02385 -99.737998 
L 134.82606 -100.257589 
L 135.62827 -100.777181 
L 136.430481 -101.296772 
L 137.232691 -101.816364 
L 138.034902 -102.335955 
L 138.837112 -102.855547 
L 139.639322 -103.375138 
L 140.441533 -103.89473 
L 141.243743 -104.414322 
L 142.045954 -104.923803 
L 142.848164 -105.411261 
L 143.650374 -105.898721 
L 144.452585 -106.386184 
L 145.254795 -106.87365 
L 146.057006 -107.361119 
L 146.859216 -107.84859 
L 147.661426 -108.336065 
L 148.463637 -108.823541 
L 149.265847 -109.311021 
L 150.068058 -109.798504 
L 150.870268 -110.285989 
L 151.672478 -110.773477 
L 152.474689 -111.260967 
L 153.276899 -111.748461 
L 154.079109 -112.235957 
L 154.88132 -112.729383 
L 155.68353 -113.22443 
L 156.485741 -113.719486 
L 157.287951 -114.214551 
L 158.090161 -114.709625 
L 158.892372 -115.204707 
L 159.694582 -115.699799 
L 160.496793 -116.1949 
L 161.299003 -116.690009 
L 162.101213 -117.185127 
L 162.903424 -117.680255 
L 163.705634 -118.175391 
L 164.507845 -118.670536 
L 165.310055 -119.16569 
L 166.112265 -119.660853 
L 166.914476 -120.156025 
L 167.716686 -120.651206 
L 168.518897 -121.146395 
L 169.321107 -121.641594 
L 170.123317 -122.176942 
L 170.925528 -122.720297 
L 171.727738 -123.263661 
L 172.529948 -123.807033 
L 173.332159 -124.350415 
L 174.134369 -124.893805 
L 174.93658 -125.437204 
L 175.73879 -125.980612 
L 176.541 -126.52403 
L 177.343211 -127.067456 
L 178.145421 -127.610891 
L 178.947632 -128.154335 
L 179.749842 -128.697787 
L 180.552052 -129.241249 
L 181.354263 -129.78472 
L 182.156473 -130.335253 
L 182.958684 -130.888218 
L 183.760894 -131.441185 
L 184.563104 -131.994154 
L 185.365315 -132.547125 
L 186.167525 -133.100097 
L 186.969736 -133.653071 
L 187.771946 -134.206047 
L 188.574156 -134.759024 
L 189.376367 -135.312004 
L 190.178577 -135.827278 
L 190.980787 -136.317058 
L 191.782998 -136.806841 
L 192.585208 -137.296625 
L 193.387419 -137.786413 
L 194.189629 -138.276202 
L 194.991839 -138.765994 
L 195.79405 -139.255789 
L 196.59626 -139.745585 
L 197.398471 -140.235385 
L 198.200681 -140.725186 
L 199.002891 -141.21499 
L 199.805102 -141.704797 
L 200.607312 -142.194606 
L 201.409523 -142.684417 
L 202.211733 -143.174231 
L 203.013943 -143.664047 
L 203.816154 -144.153866 
L 204.618364 -144.643687 
L 205.420575 -145.133511 
L 206.222785 -145.623337 
L 207.024995 -146.113165 
L 207.827206 -146.602996 
L 208.629416 -147.092829 
L 209.431626 -147.582665 
L 210.233837 -148.072503 
L 211.036047 -148.562343 
L 211.838258 -149.052186 
L 212.640468 -149.542032 
L 213.442678 -150.03188 
L 214.244889 -150.513972 
L 215.047099 -150.955856 
L 215.84931 -151.397755 
L 216.65152 -151.852494 
L 217.45373 -152.354886 
L 218.255941 -152.857292 
L 219.058151 -153.359712 
L 219.860362 -153.860013 
L 220.662572 -154.328348 
L 221.464782 -154.816818 
L 222.266993 -155.306716 
L 223.069203 -155.796617 
L 223.871414 -156.286521 
L 224.673624 -156.776427 
L 225.475834 -157.266335 
L 226.278045 -157.756246 
L 227.080255 -158.246159 
L 227.882466 -158.736075 
L 228.684676 -159.225994 
L 229.486886 -159.715914 
L 230.289097 -160.216681 
L 231.091307 -160.731883 
L 231.893517 -161.247087 
L 232.695728 -161.762294 
L 233.497938 -162.277504 
L 234.300149 -162.792715 
L 235.102359 -163.30793 
L 235.904569 -163.823146 
L 236.70678 -164.338366 
L 237.50899 -164.853587 
L 238.311201 -165.368811 
L 239.113411 -165.884038 
L 239.915621 -166.399267 
L 240.717832 -166.914499 
L 241.520042 -167.429732 
L 242.322253 -167.944969 
L 243.124463 -168.460208 
L 243.926673 -168.975449 
L 244.728884 -169.490693 
L 245.531094 -170.005939 
L 246.333305 -170.521188 
L 247.135515 -171.036439 
L 247.937725 -171.551693 
L 248.739936 -172.066949 
L 249.542146 -172.582207 
L 250.344356 -173.07133 
L 251.146567 -173.575527 
L 251.948777 -174.079753 
L 252.750988 -174.584008 
L 253.553198 -175.088292 
L 254.355408 -175.592604 
L 255.157619 -176.096946 
L 255.959829 -176.61451 
L 256.76204 -177.085842 
L 257.56425 -177.528927 
L 258.36646 -177.983594 
L 259.168671 -178.438271 
L 259.970881 -178.892959 
L 260.773092 -179.347658 
L 261.575302 -179.802367 
L 262.377512 -180.257087 
L 263.179723 -180.711819 
L 263.981933 -181.166561 
L 264.784144 -181.621313 
L 265.586354 -182.088622 
L 266.388564 -182.563683 
L 267.190775 -183.038744 
L 267.992985 -183.513805 
L 268.795195 -183.988866 
L 269.597406 -184.463927 
L 270.399616 -184.938988 
L 271.201827 -185.414049 
L 272.004037 -185.88911 
L 272.806247 -186.364172 
L 273.608458 -186.800391 
L 274.410668 -187.222506 
L 275.212879 -187.644629 
L 276.015089 -188.066759 
L 276.817299 -188.488896 
L 277.61951 -188.91104 
L 278.42172 -189.339238 
L 279.223931 -189.768985 
L 280.026141 -190.198749 
L 280.828351 -190.635226 
L 281.630562 -191.129593 
L 282.432772 -191.62839 
L 283.234983 -192.138198 
L 284.037193 -192.648008 
L 284.839403 -193.157819 
L 285.641614 -193.667632 
L 286.443824 -194.177447 
L 287.246034 -194.691063 
L 288.048245 -195.21567 
L 288.850455 -195.740278 
L 289.652666 -196.264888 
L 290.454876 -196.7895 
L 291.257086 -197.306262 
L 292.059297 -197.71397 
L 292.861507 -198.157929 
L 293.663718 -198.539011 
L 294.465928 -198.920094 
L 295.268138 -199.301176 
L 296.070349 -199.695531 
L 296.872559 -200.112592 
L 297.67477 -200.573342 
L 298.47698 -201.034105 
L 299.27919 -201.49488 
L 300.081401 -201.955667 
L 300.883611 -202.416466 
L 301.685822 -202.877278 
L 302.488032 -203.338102 
L 303.290242 -203.798939 
L 304.092453 -204.259787 
L 304.894663 -204.720648 
L 305.696873 -205.181522 
L 306.499084 -205.642407 
L 307.301294 -206.103305 
L 308.103505 -206.564215 
L 308.905715 -207.025138 
L 309.707925 -207.486072 
L 310.510136 -207.947019 
L 311.312346 -208.407978 
L 312.114557 -208.86895 
L 312.916767 -209.329933 
L 313.718977 -209.790929 
L 314.521188 -210.251937 
L 315.323398 -210.712957 
L 316.125609 -211.17399 
L 316.927819 -211.635034 
L 317.730029 -212.096091 
L 318.53224 -212.576352 
L 319.33445 -213.056669 
L 320.136661 -213.536986 
L 320.938871 -214.017303 
L 321.741081 -214.497621 
L 322.543292 -214.977938 
L 323.345502 -215.458255 
L 324.147712 -215.938572 
L 324.949923 -216.3766 
L 325.752133 -216.810347 
L 326.554344 -217.244098 
L 327.356554 -217.677853 
L 328.158764 -218.111613 
L 328.960975 -218.545376 
L 329.763185 -218.979143 
L 330.565396 -219.412914 
L 331.367606 -219.84669 
L 332.169816 -220.280469 
L 332.972027 -220.714253 
L 333.774237 -221.14804 
L 334.576448 -221.581832 
L 335.378658 -222.015627 
L 336.180868 -222.449427 
L 336.983079 -222.883231 
L 337.785289 -223.317039 
L 338.5875 -223.75085 
L 339.38971 -224.184666 
L 340.19192 -224.618486 
L 340.994131 -225.05231 
L 341.796341 -225.486138 
L 342.598551 -225.91997 
L 343.400762 -226.353806 
L 344.202972 -226.787646 
L 345.005183 -227.221491 
L 345.807393 -227.655339 
L 346.609603 -228.089191 
L 347.411814 -228.523048 
L 348.214024 -228.956908 
L 349.016235 -229.390773 
L 349.818445 -229.824641 
L 350.620655 -230.258514 
L 351.422866 -230.692391 
L 352.225076 -231.126272 
L 353.027287 -231.560157 
L 353.829497 -231.994046 
L 354.631707 -232.427939 
L 355.433918 -232.861836 
L 356.236128 -233.295737 
L 357.038339 -233.729642 
L 357.840549 -234.163552 
L 358.642759 -234.597465 
L 359.44497 -235.031382 
L 360.24718 -235.465304 
L 361.04939 -235.89923 
L 361.851601 -236.361779 
L 362.653811 -236.767719 
L 363.456022 -237.166854 
L 364.258232 -237.58253 
L 365.060442 -237.998207 
L 365.862653 -238.413885 
L 366.664863 -238.829565 
L 367.467074 -239.245246 
L 368.269284 -239.660928 
L 369.071494 -240.076612 
L 369.873705 -240.492297 
L 370.675915 -240.907984 
L 371.478126 -241.323671 
L 372.280336 -241.73936 
L 373.082546 -242.155051 
L 373.884757 -242.570743 
L 374.686967 -242.986436 
L 375.489178 -243.40213 
L 376.291388 -243.817826 
L 377.093598 -244.233523 
L 377.895809 -244.649222 
L 378.698019 -245.064921 
L 379.50023 -245.480623 
L 380.30244 -245.896325 
L 381.10465 -246.312029 
L 381.906861 -246.727734 
L 382.709071 -247.143441 
L 383.511281 -247.559149 
L 384.313492 -247.974858 
L 385.115702 -248.390568 
L 385.917913 -248.80628 
L 386.720123 -249.221993 
L 387.522333 -249.637708 
L 388.324544 -250.053424 
L 389.126754 -250.469141 
L 389.928965 -250.88486 
L 390.731175 -251.30058 
L 391.533385 -251.716301 
L 392.335596 -252.132023 
L 393.137806 -252.547747 
L 393.940017 -252.963473 
L 394.742227 -253.379199 
L 395.544437 -253.794927 
L 396.346648 -254.210656 
L 396.346648 -269.885516 
L 396.346648 -269.885516 
L 395.544437 -269.374024 
L 394.742227 -268.862533 
L 393.940017 -268.351044 
L 393.137806 -267.839556 
L 392.335596 -267.3397 
L 391.533385 -266.882324 
L 390.731175 -266.424949 
L 389.928965 -265.967576 
L 389.126754 -265.510205 
L 388.324544 -265.052835 
L 387.522333 -264.595467 
L 386.720123 -264.138101 
L 385.917913 -263.680736 
L 385.115702 -263.223373 
L 384.313492 -262.766011 
L 383.511281 -262.308651 
L 382.709071 -261.851293 
L 381.906861 -261.393936 
L 381.10465 -260.936581 
L 380.30244 -260.479228 
L 379.50023 -260.021876 
L 378.698019 -259.564525 
L 377.895809 -259.107177 
L 377.093598 -258.64983 
L 376.291388 -258.192484 
L 375.489178 -257.735141 
L 374.686967 -257.273856 
L 373.884757 -256.796053 
L 373.082546 -256.318251 
L 372.280336 -255.840451 
L 371.478126 -255.362653 
L 370.675915 -254.884856 
L 369.873705 -254.407061 
L 369.071494 -253.929267 
L 368.269284 -253.451476 
L 367.467074 -252.973685 
L 366.664863 -252.495897 
L 365.862653 -252.01811 
L 365.060442 -251.540324 
L 364.258232 -251.06254 
L 363.456022 -250.584758 
L 362.653811 -250.106978 
L 361.851601 -249.629199 
L 361.04939 -249.151421 
L 360.24718 -248.673646 
L 359.44497 -248.195872 
L 358.642759 -247.717729 
L 357.840549 -247.22678 
L 357.038339 -246.735832 
L 356.236128 -246.244885 
L 355.433918 -245.75394 
L 354.631707 -245.262995 
L 353.829497 -244.772051 
L 353.027287 -244.281109 
L 352.225076 -243.790167 
L 351.422866 -243.299226 
L 350.620655 -242.808287 
L 349.818445 -242.317348 
L 349.016235 -241.826411 
L 348.214024 -241.335474 
L 347.411814 -240.844538 
L 346.609603 -240.353604 
L 345.807393 -239.862671 
L 345.005183 -239.371738 
L 344.202972 -238.880807 
L 343.400762 -238.389876 
L 342.598551 -237.898947 
L 341.796341 -237.408019 
L 340.994131 -236.917092 
L 340.19192 -236.426165 
L 339.38971 -235.93524 
L 338.5875 -235.444316 
L 337.785289 -234.941472 
L 336.983079 -234.434239 
L 336.180868 -233.927007 
L 335.378658 -233.419776 
L 334.576448 -232.912546 
L 333.774237 -232.405317 
L 332.972027 -231.898089 
L 332.169816 -231.390862 
L 331.367606 -230.883636 
L 330.565396 -230.394506 
L 329.763185 -229.914722 
L 328.960975 -229.434938 
L 328.158764 -228.955155 
L 327.356554 -228.475372 
L 326.554344 -227.995588 
L 325.752133 -227.515805 
L 324.949923 -227.036022 
L 324.147712 -226.556238 
L 323.345502 -226.076455 
L 322.543292 -225.596672 
L 321.741081 -225.116889 
L 320.938871 -224.637106 
L 320.136661 -224.157323 
L 319.33445 -223.67754 
L 318.53224 -223.197757 
L 317.730029 -222.717975 
L 316.927819 -222.238192 
L 316.125609 -221.758409 
L 315.323398 -221.278627 
L 314.521188 -220.798844 
L 313.718977 -220.319062 
L 312.916767 -219.83928 
L 312.114557 -219.359497 
L 311.312346 -218.879715 
L 310.510136 -218.399933 
L 309.707925 -217.920151 
L 308.905715 -217.440368 
L 308.103505 -216.960586 
L 307.301294 -216.420178 
L 306.499084 -215.828352 
L 305.696873 -215.236554 
L 304.894663 -214.644782 
L 304.092453 -214.053037 
L 303.290242 -213.46132 
L 302.488032 -212.972875 
L 301.685822 -212.511459 
L 300.883611 -212.050044 
L 300.081401 -211.5873 
L 299.27919 -211.124481 
L 298.47698 -210.661662 
L 297.67477 -210.198845 
L 296.872559 -209.736028 
L 296.070349 -209.273213 
L 295.268138 -208.810399 
L 294.465928 -208.347586 
L 293.663718 -207.884773 
L 292.861507 -207.421962 
L 292.059297 -206.959152 
L 291.257086 -206.496343 
L 290.454876 -206.019382 
L 289.652666 -205.540852 
L 288.850455 -205.062337 
L 288.048245 -204.583835 
L 287.246034 -204.126048 
L 286.443824 -203.669121 
L 285.641614 -203.212195 
L 284.839403 -202.755268 
L 284.037193 -202.298341 
L 283.234983 -201.841415 
L 282.432772 -201.384488 
L 281.630562 -200.927561 
L 280.828351 -200.470635 
L 280.026141 -200.037427 
L 279.223931 -199.578231 
L 278.42172 -199.130668 
L 277.61951 -198.66927 
L 276.817299 -198.207874 
L 276.015089 -197.746477 
L 275.212879 -197.285082 
L 274.410668 -196.823686 
L 273.608458 -196.362292 
L 272.806247 -195.901368 
L 272.004037 -195.444441 
L 271.201827 -194.987515 
L 270.399616 -194.530588 
L 269.597406 -194.073661 
L 268.795195 -193.616735 
L 267.992985 -193.159808 
L 267.190775 -192.702881 
L 266.388564 -192.245955 
L 265.586354 -191.789028 
L 264.784144 -191.332101 
L 263.981933 -190.874332 
L 263.179723 -190.390474 
L 262.377512 -189.906618 
L 261.575302 -189.422763 
L 260.773092 -188.93891 
L 259.970881 -188.455059 
L 259.168671 -187.971208 
L 258.36646 -187.48736 
L 257.56425 -187.003513 
L 256.76204 -186.519667 
L 255.959829 -186.035823 
L 255.157619 -185.551981 
L 254.355408 -185.06814 
L 253.553198 -184.5843 
L 252.750988 -184.100462 
L 251.948777 -183.616626 
L 251.146567 -183.132791 
L 250.344356 -182.648958 
L 249.542146 -182.165126 
L 248.739936 -181.68241 
L 247.937725 -181.236431 
L 247.135515 -180.818937 
L 246.333305 -180.401447 
L 245.531094 -179.983959 
L 244.728884 -179.566475 
L 243.926673 -179.148995 
L 243.124463 -178.731517 
L 242.322253 -178.314043 
L 241.520042 -177.896572 
L 240.717832 -177.479105 
L 239.915621 -177.073381 
L 239.113411 -176.669155 
L 238.311201 -176.253522 
L 237.50899 -175.799927 
L 236.70678 -175.353382 
L 235.904569 -174.906841 
L 235.102359 -174.460302 
L 234.300149 -174.013767 
L 233.497938 -173.567236 
L 232.695728 -173.104081 
L 231.893517 -172.633472 
L 231.091307 -172.162867 
L 230.289097 -171.692269 
L 229.486886 -171.227328 
L 228.684676 -170.770402 
L 227.882466 -170.313475 
L 227.080255 -169.856548 
L 226.278045 -169.399622 
L 225.475834 -168.942695 
L 224.673624 -168.485768 
L 223.871414 -168.028842 
L 223.069203 -167.571915 
L 222.266993 -167.114988 
L 221.464782 -166.658062 
L 220.662572 -166.201135 
L 219.860362 -165.744208 
L 219.058151 -165.287282 
L 218.255941 -164.830355 
L 217.45373 -164.373428 
L 216.65152 -163.916502 
L 215.84931 -163.459575 
L 215.047099 -163.002648 
L 214.244889 -162.545722 
L 213.442678 -162.088795 
L 212.640468 -161.635093 
L 211.838258 -161.18377 
L 211.036047 -160.732447 
L 210.233837 -160.281125 
L 209.431626 -159.829805 
L 208.629416 -159.378485 
L 207.827206 -158.93253 
L 207.024995 -158.5502 
L 206.222785 -158.167874 
L 205.420575 -157.779383 
L 204.618364 -157.361909 
L 203.816154 -156.94444 
L 203.013943 -156.526976 
L 202.211733 -156.109517 
L 201.409523 -155.692062 
L 200.607312 -155.274612 
L 199.805102 -154.857167 
L 199.002891 -154.439727 
L 198.200681 -154.022292 
L 197.398471 -153.604861 
L 196.59626 -153.187435 
L 195.79405 -152.770014 
L 194.991839 -152.352598 
L 194.189629 -151.935187 
L 193.387419 -151.51778 
L 192.585208 -151.100378 
L 191.782998 -150.682981 
L 190.980787 -150.265589 
L 190.178577 -149.848201 
L 189.376367 -149.430818 
L 188.574156 -149.013441 
L 187.771946 -148.596067 
L 186.969736 -148.178699 
L 186.167525 -147.761336 
L 185.365315 -147.343977 
L 184.563104 -146.926623 
L 183.760894 -146.509274 
L 182.958684 -146.09193 
L 182.156473 -145.67459 
L 181.354263 -145.257256 
L 180.552052 -144.839926 
L 179.749842 -144.428044 
L 178.947632 -144.047 
L 178.145421 -143.665956 
L 177.343211 -143.284913 
L 176.541 -142.90387 
L 175.73879 -142.522827 
L 174.93658 -142.141785 
L 174.134369 -141.760743 
L 173.332159 -141.379701 
L 172.529948 -140.998659 
L 171.727738 -140.617617 
L 170.925528 -140.236576 
L 170.123317 -139.855535 
L 169.321107 -139.474495 
L 168.518897 -139.093454 
L 167.716686 -138.710055 
L 166.914476 -138.321145 
L 166.112265 -137.932235 
L 165.310055 -137.543326 
L 164.507845 -137.154417 
L 163.705634 -136.765509 
L 162.903424 -136.376602 
L 162.101213 -135.987696 
L 161.299003 -135.59879 
L 160.496793 -135.209885 
L 159.694582 -134.820981 
L 158.892372 -134.432077 
L 158.090161 -134.043174 
L 157.287951 -133.654272 
L 156.485741 -133.265371 
L 155.68353 -132.87647 
L 154.88132 -132.48757 
L 154.079109 -132.098671 
L 153.276899 -131.709349 
L 152.474689 -131.31141 
L 151.672478 -130.913477 
L 150.870268 -130.51555 
L 150.068058 -130.117629 
L 149.265847 -129.719714 
L 148.463637 -129.321804 
L 147.661426 -128.9239 
L 146.859216 -128.526002 
L 146.057006 -128.12811 
L 145.254795 -127.730223 
L 144.452585 -127.332342 
L 143.650374 -126.934467 
L 142.848164 -126.536598 
L 142.045954 -126.138734 
L 141.243743 -125.740876 
L 140.441533 -125.343024 
L 139.639322 -124.945178 
L 138.837112 -124.547337 
L 138.034902 -124.149502 
L 137.232691 -123.751673 
L 136.430481 -123.35385 
L 135.62827 -122.956032 
L 134.82606 -122.55822 
L 134.02385 -122.160414 
L 133.221639 -121.762613 
L 132.419429 -121.364819 
L 131.617219 -120.929868 
L 130.815008 -120.493574 
L 130.012798 -120.057285 
L 129.210587 -119.621002 
L 128.408377 -119.184725 
L 127.606167 -118.748454 
L 126.803956 -118.312188 
L 126.001746 -117.875928 
L 125.199535 -117.439674 
L 124.397325 -117.003426 
L 123.595115 -116.567183 
L 122.792904 -116.130946 
L 121.990694 -115.694715 
L 121.188483 -115.258489 
L 120.386273 -114.82227 
L 119.584063 -114.386056 
L 118.781852 -113.949848 
L 117.979642 -113.513645 
L 117.177431 -113.077449 
L 116.375221 -112.641258 
L 115.573011 -112.205073 
L 114.7708 -111.768893 
L 113.96859 -111.33272 
L 113.16638 -110.896552 
L 112.364169 -110.46039 
L 111.561959 -110.024234 
L 110.759748 -109.588083 
L 109.957538 -109.151938 
L 109.155328 -108.715799 
L 108.353117 -108.279666 
L 107.550907 -107.843539 
L 106.748696 -107.407417 
L 105.946486 -106.971302 
L 105.144276 -106.535191 
L 104.342065 -106.099087 
L 103.539855 -105.662989 
L 102.737644 -105.226896 
L 101.935434 -104.790809 
L 101.133224 -104.354728 
L 100.331013 -103.918653 
L 99.528803 -103.482583 
L 98.726592 -103.04652 
L 97.924382 -102.610462 
L 97.122172 -102.17441 
L 96.319961 -101.738364 
L 95.517751 -101.302323 
L 94.715541 -100.866289 
L 93.91333 -100.43026 
L 93.11112 -99.99283 
L 92.308909 -99.551919 
L 91.506699 -99.111011 
L 90.704489 -98.670105 
L 89.902278 -98.229201 
L 89.100068 -97.79759 
L 88.297857 -97.409594 
L 87.495647 -97.021598 
L 86.693437 -96.633604 
L 85.891226 -96.24561 
L 85.089016 -95.857617 
L 84.286805 -95.469624 
L 83.484595 -95.081633 
L 82.682385 -94.693642 
L 81.880174 -94.305652 
L 81.077964 -93.917663 
L 80.275753 -93.529675 
L 79.473543 -93.141687 
L 78.671333 -92.7537 
L 77.869122 -92.365714 
L 77.066912 -91.977729 
L 76.264702 -91.589745 
z
" style="stroke: #000000; stroke-opacity: 0.1"/>
    </defs>
    <g clip-path="url(#p9cc3b19ed3)">
     <use xlink:href="#mbd67113bdf" x="0" y="310.062" style="fill-opacity: 0.1; stroke: #000000; stroke-opacity: 0.1"/>
    </g>
   </g>
   <g id="matplotlib.axis_1">
    <g id="xtick_1">
     <g id="line2d_1">
      <defs>
       <path id="mea0722820b" d="M 0 1.75 
L 0 -1.75 
" style="stroke: #000000; stroke-width: 0.8"/>
      </defs>
      <g>
       <use xlink:href="#mea0722820b" x="76.264702" y="275.062" style="stroke: #000000; stroke-width: 0.8"/>
      </g>
     </g>
     <g id="line2d_2">
      <g>
       <use xlink:href="#mea0722820b" x="76.264702" y="8.95" style="stroke: #000000; stroke-width: 0.8"/>
      </g>
     </g>
     <g id="text_1">
      <!-- 9.0 -->
      <g transform="translate(69.315483 287.452625)scale(0.1 -0.1)">
       <defs>
        <path id="HelveticaNeue-Medium-39" d="M 1728 3962 
C 2272 3962 2541 3526 2541 3046 
C 2541 2554 2272 2106 1728 2106 
C 1197 2106 947 2560 947 3046 
C 947 3533 1197 3962 1728 3962 
z
M 301 1133 
C 339 403 941 -90 1651 -90 
C 2918 -90 3341 1158 3341 2227 
C 3341 3533 3027 4570 1760 4570 
C 781 4570 218 3910 218 3040 
C 218 2125 787 1530 1632 1530 
C 2042 1530 2406 1722 2598 2067 
L 2611 2054 
C 2566 1466 2477 518 1683 518 
C 1306 518 1062 768 1030 1133 
L 301 1133 
z
" transform="scale(0.015625)"/>
        <path id="HelveticaNeue-Medium-2e" d="M 442 0 
L 1331 0 
L 1331 864 
L 442 864 
L 442 0 
z
" transform="scale(0.015625)"/>
        <path id="HelveticaNeue-Medium-30" d="M 1779 518 
C 1139 518 960 1306 960 2240 
C 960 3174 1139 3962 1779 3962 
C 2419 3962 2598 3174 2598 2240 
C 2598 1306 2419 518 1779 518 
z
M 1779 4570 
C 493 4570 230 3258 230 2240 
C 230 1222 493 -90 1779 -90 
C 3066 -90 3328 1222 3328 2240 
C 3328 3258 3066 4570 1779 4570 
z
" transform="scale(0.015625)"/>
       </defs>
       <use xlink:href="#HelveticaNeue-Medium-39"/>
       <use xlink:href="#HelveticaNeue-Medium-2e" x="55.599991"/>
       <use xlink:href="#HelveticaNeue-Medium-30" x="83.399979"/>
      </g>
     </g>
    </g>
    <g id="xtick_2">
     <g id="line2d_3">
      <g>
       <use xlink:href="#mea0722820b" x="121.990694" y="275.062" style="stroke: #000000; stroke-width: 0.8"/>
      </g>
     </g>
     <g id="line2d_4">
      <g>
       <use xlink:href="#mea0722820b" x="121.990694" y="8.95" style="stroke: #000000; stroke-width: 0.8"/>
      </g>
     </g>
     <g id="text_2">
      <!-- 9.5 -->
      <g transform="translate(115.041475 287.452625)scale(0.1 -0.1)">
       <defs>
        <path id="HelveticaNeue-Medium-35" d="M 307 2029 
L 1037 2029 
C 1152 2342 1453 2438 1760 2438 
C 2349 2438 2611 1997 2611 1504 
C 2611 960 2400 518 1779 518 
C 1306 518 998 794 954 1274 
L 224 1274 
C 256 378 928 -90 1792 -90 
C 2893 -90 3341 800 3341 1517 
C 3341 2374 2829 3014 1939 3014 
C 1638 3014 1312 2893 1114 2675 
L 1101 2688 
L 1331 3827 
L 3104 3827 
L 3104 4480 
L 787 4480 
L 307 2029 
z
" transform="scale(0.015625)"/>
       </defs>
       <use xlink:href="#HelveticaNeue-Medium-39"/>
       <use xlink:href="#HelveticaNeue-Medium-2e" x="55.599991"/>
       <use xlink:href="#HelveticaNeue-Medium-35" x="83.399979"/>
      </g>
     </g>
    </g>
    <g id="xtick_3">
     <g id="line2d_5">
      <g>
       <use xlink:href="#mea0722820b" x="167.716686" y="275.062" style="stroke: #000000; stroke-width: 0.8"/>
      </g>
     </g>
     <g id="line2d_6">
      <g>
       <use xlink:href="#mea0722820b" x="167.716686" y="8.95" style="stroke: #000000; stroke-width: 0.8"/>
      </g>
     </g>
     <g id="text_3">
      <!-- 10.0 -->
      <g transform="translate(157.98778 287.452625)scale(0.1 -0.1)">
       <defs>
        <path id="HelveticaNeue-Medium-31" d="M 339 3162 
L 1440 3162 
L 1440 0 
L 2240 0 
L 2240 4480 
L 1645 4480 
C 1536 3942 954 3731 339 3738 
L 339 3162 
z
" transform="scale(0.015625)"/>
       </defs>
       <use xlink:href="#HelveticaNeue-Medium-31"/>
       <use xlink:href="#HelveticaNeue-Medium-30" x="55.599991"/>
       <use xlink:href="#HelveticaNeue-Medium-2e" x="111.199982"/>
       <use xlink:href="#HelveticaNeue-Medium-30" x="138.999969"/>
      </g>
     </g>
    </g>
    <g id="xtick_4">
     <g id="line2d_7">
      <g>
       <use xlink:href="#mea0722820b" x="213.442678" y="275.062" style="stroke: #000000; stroke-width: 0.8"/>
      </g>
     </g>
     <g id="line2d_8">
      <g>
       <use xlink:href="#mea0722820b" x="213.442678" y="8.95" style="stroke: #000000; stroke-width: 0.8"/>
      </g>
     </g>
     <g id="text_4">
      <!-- 10.5 -->
      <g transform="translate(203.713772 287.452625)scale(0.1 -0.1)">
       <use xlink:href="#HelveticaNeue-Medium-31"/>
       <use xlink:href="#HelveticaNeue-Medium-30" x="55.599991"/>
       <use xlink:href="#HelveticaNeue-Medium-2e" x="111.199982"/>
       <use xlink:href="#HelveticaNeue-Medium-35" x="138.999969"/>
      </g>
     </g>
    </g>
    <g id="xtick_5">
     <g id="line2d_9">
      <g>
       <use xlink:href="#mea0722820b" x="259.168671" y="275.062" style="stroke: #000000; stroke-width: 0.8"/>
      </g>
     </g>
     <g id="line2d_10">
      <g>
       <use xlink:href="#mea0722820b" x="259.168671" y="8.95" style="stroke: #000000; stroke-width: 0.8"/>
      </g>
     </g>
     <g id="text_5">
      <!-- 11.0 -->
      <g transform="translate(249.439765 287.452625)scale(0.1 -0.1)">
       <use xlink:href="#HelveticaNeue-Medium-31"/>
       <use xlink:href="#HelveticaNeue-Medium-31" x="55.599991"/>
       <use xlink:href="#HelveticaNeue-Medium-2e" x="111.199982"/>
       <use xlink:href="#HelveticaNeue-Medium-30" x="138.999969"/>
      </g>
     </g>
    </g>
    <g id="xtick_6">
     <g id="line2d_11">
      <g>
       <use xlink:href="#mea0722820b" x="304.894663" y="275.062" style="stroke: #000000; stroke-width: 0.8"/>
      </g>
     </g>
     <g id="line2d_12">
      <g>
       <use xlink:href="#mea0722820b" x="304.894663" y="8.95" style="stroke: #000000; stroke-width: 0.8"/>
      </g>
     </g>
     <g id="text_6">
      <!-- 11.5 -->
      <g transform="translate(295.165757 287.452625)scale(0.1 -0.1)">
       <use xlink:href="#HelveticaNeue-Medium-31"/>
       <use xlink:href="#HelveticaNeue-Medium-31" x="55.599991"/>
       <use xlink:href="#HelveticaNeue-Medium-2e" x="111.199982"/>
       <use xlink:href="#HelveticaNeue-Medium-35" x="138.999969"/>
      </g>
     </g>
    </g>
    <g id="xtick_7">
     <g id="line2d_13">
      <g>
       <use xlink:href="#mea0722820b" x="350.620655" y="275.062" style="stroke: #000000; stroke-width: 0.8"/>
      </g>
     </g>
     <g id="line2d_14">
      <g>
       <use xlink:href="#mea0722820b" x="350.620655" y="8.95" style="stroke: #000000; stroke-width: 0.8"/>
      </g>
     </g>
     <g id="text_7">
      <!-- 12.0 -->
      <g transform="translate(340.891749 287.452625)scale(0.1 -0.1)">
       <defs>
        <path id="HelveticaNeue-Medium-32" d="M 3309 653 
L 1126 653 
C 1254 1050 1798 1325 2317 1683 
C 2829 2042 3315 2483 3315 3194 
C 3315 3770 2970 4570 1875 4570 
C 877 4570 333 3834 333 2842 
L 1062 2842 
C 1082 3469 1254 3962 1830 3962 
C 2458 3962 2592 3488 2586 3168 
C 2573 2470 1818 2118 1235 1696 
C 634 1293 256 736 250 0 
L 3309 0 
L 3309 653 
z
" transform="scale(0.015625)"/>
       </defs>
       <use xlink:href="#HelveticaNeue-Medium-31"/>
       <use xlink:href="#HelveticaNeue-Medium-32" x="55.599991"/>
       <use xlink:href="#HelveticaNeue-Medium-2e" x="111.199982"/>
       <use xlink:href="#HelveticaNeue-Medium-30" x="138.999969"/>
      </g>
     </g>
    </g>
    <g id="xtick_8">
     <g id="line2d_15">
      <g>
       <use xlink:href="#mea0722820b" x="396.346648" y="275.062" style="stroke: #000000; stroke-width: 0.8"/>
      </g>
     </g>
     <g id="line2d_16">
      <g>
       <use xlink:href="#mea0722820b" x="396.346648" y="8.95" style="stroke: #000000; stroke-width: 0.8"/>
      </g>
     </g>
     <g id="text_8">
      <!-- 12.5 -->
      <g transform="translate(386.617741 287.452625)scale(0.1 -0.1)">
       <use xlink:href="#HelveticaNeue-Medium-31"/>
       <use xlink:href="#HelveticaNeue-Medium-32" x="55.599991"/>
       <use xlink:href="#HelveticaNeue-Medium-2e" x="111.199982"/>
       <use xlink:href="#HelveticaNeue-Medium-35" x="138.999969"/>
      </g>
     </g>
    </g>
    <g id="text_9">
     <!-- Bulge mass [log, $M_\odot$] -->
     <g transform="translate(183.919375 300.762)scale(0.1 -0.1)">
      <defs>
       <path id="HelveticaNeue-Medium-42" d="M 1286 2080 
L 2701 2080 
C 3187 2080 3469 1824 3469 1376 
C 3469 915 3187 653 2701 653 
L 1286 653 
L 1286 2080 
z
M 486 0 
L 2586 0 
C 3770 0 4269 557 4269 1274 
C 4269 1894 3968 2330 3411 2451 
L 3411 2464 
C 3827 2643 4064 2976 4064 3437 
C 4064 4198 3526 4570 2707 4570 
L 486 4570 
L 486 0 
z
M 1286 3917 
L 2592 3917 
C 3027 3917 3264 3750 3264 3290 
C 3264 2880 2976 2656 2592 2656 
L 1286 2656 
L 1286 3917 
z
" transform="scale(0.015625)"/>
       <path id="HelveticaNeue-Medium-75" d="M 3290 3309 
L 2560 3309 
L 2560 1389 
C 2560 877 2355 486 1747 486 
C 1350 486 1114 698 1114 1280 
L 1114 3309 
L 384 3309 
L 384 1210 
C 384 346 755 -90 1619 -90 
C 1984 -90 2381 128 2560 461 
L 2573 461 
L 2573 0 
L 3290 0 
L 3290 3309 
z
" transform="scale(0.015625)"/>
       <path id="HelveticaNeue-Medium-6c" d="M 403 0 
L 1133 0 
L 1133 4570 
L 403 4570 
L 403 0 
z
" transform="scale(0.015625)"/>
       <path id="HelveticaNeue-Medium-67" d="M 1824 576 
C 1216 576 954 1126 954 1670 
C 954 2221 1178 2822 1824 2822 
C 2458 2822 2714 2298 2714 1728 
C 2714 1165 2470 576 1824 576 
z
M 3443 3309 
L 2714 3309 
L 2714 2854 
L 2701 2854 
C 2515 3226 2138 3398 1722 3398 
C 781 3398 224 2630 224 1741 
C 224 794 659 0 1709 0 
C 2118 0 2496 218 2701 582 
L 2714 582 
L 2714 77 
C 2714 -467 2451 -768 1862 -768 
C 1491 -768 1158 -698 1069 -282 
L 339 -282 
C 403 -1056 1152 -1312 1818 -1312 
C 2861 -1312 3443 -819 3443 173 
L 3443 3309 
z
" transform="scale(0.015625)"/>
       <path id="HelveticaNeue-Medium-65" d="M 3386 1466 
C 3507 2458 2867 3398 1824 3398 
C 838 3398 224 2592 224 1651 
C 224 634 806 -90 1843 -90 
C 2566 -90 3181 314 3341 1037 
L 2650 1037 
C 2522 672 2266 486 1843 486 
C 1235 486 954 947 954 1466 
L 3386 1466 
z
M 954 1946 
C 973 2438 1318 2822 1824 2822 
C 2317 2822 2630 2406 2656 1946 
L 954 1946 
z
" transform="scale(0.015625)"/>
       <path id="HelveticaNeue-Medium-20" transform="scale(0.015625)"/>
       <path id="HelveticaNeue-Medium-6d" d="M 384 0 
L 1114 0 
L 1114 1965 
C 1114 2515 1459 2822 1837 2822 
C 2278 2822 2419 2579 2419 2125 
L 2419 0 
L 3149 0 
L 3149 1939 
C 3149 2496 3360 2822 3853 2822 
C 4422 2822 4454 2458 4454 1933 
L 4454 0 
L 5184 0 
L 5184 2285 
C 5184 3091 4774 3398 4077 3398 
C 3597 3398 3283 3187 3040 2848 
C 2893 3226 2515 3398 2112 3398 
C 1587 3398 1312 3174 1094 2848 
L 1075 2848 
L 1075 3309 
L 384 3309 
L 384 0 
z
" transform="scale(0.015625)"/>
       <path id="HelveticaNeue-Medium-61" d="M 2426 1114 
C 2426 653 1926 486 1606 486 
C 1350 486 934 582 934 909 
C 934 1293 1216 1408 1530 1459 
C 1850 1517 2202 1510 2426 1658 
L 2426 1114 
z
M 3155 2438 
C 3155 3136 2477 3398 1830 3398 
C 1101 3398 378 3149 326 2298 
L 1056 2298 
C 1088 2656 1376 2822 1786 2822 
C 2080 2822 2470 2752 2470 2374 
C 2470 1946 2003 2003 1478 1907 
C 864 1837 205 1702 205 877 
C 205 230 742 -90 1338 -90 
C 1728 -90 2195 32 2483 314 
C 2541 13 2752 -90 3046 -90 
C 3168 -90 3398 -45 3507 -6 
L 3507 499 
C 3430 486 3373 486 3328 486 
C 3194 486 3155 557 3155 736 
L 3155 2438 
z
" transform="scale(0.015625)"/>
       <path id="HelveticaNeue-Medium-73" d="M 205 1062 
C 218 282 838 -90 1670 -90 
C 2355 -90 3149 198 3149 986 
C 3149 1638 2611 1830 2080 1952 
C 1542 2074 1005 2125 1005 2483 
C 1005 2771 1395 2822 1606 2822 
C 1926 2822 2214 2726 2278 2381 
L 3040 2381 
C 2950 3117 2336 3398 1658 3398 
C 1056 3398 275 3174 275 2451 
C 275 1779 800 1587 1338 1472 
C 1869 1350 2400 1306 2419 922 
C 2438 544 1958 486 1683 486 
C 1293 486 973 640 934 1062 
L 205 1062 
z
" transform="scale(0.015625)"/>
       <path id="HelveticaNeue-Medium-5b" d="M 461 -1222 
L 1888 -1222 
L 1888 -646 
L 1152 -646 
L 1152 4102 
L 1888 4102 
L 1888 4678 
L 461 4678 
L 461 -1222 
z
" transform="scale(0.015625)"/>
       <path id="HelveticaNeue-Medium-6f" d="M 1901 486 
C 1248 486 960 1082 960 1658 
C 960 2227 1248 2822 1901 2822 
C 2554 2822 2842 2227 2842 1658 
C 2842 1082 2554 486 1901 486 
z
M 1901 -90 
C 2963 -90 3571 640 3571 1658 
C 3571 2669 2963 3398 1901 3398 
C 838 3398 230 2669 230 1658 
C 230 640 838 -90 1901 -90 
z
" transform="scale(0.015625)"/>
       <path id="HelveticaNeue-Medium-2c" d="M 442 0 
L 883 0 
C 890 -275 749 -550 467 -621 
L 467 -1011 
C 973 -909 1325 -525 1331 0 
L 1331 864 
L 442 864 
L 442 0 
z
" transform="scale(0.015625)"/>
       <path id="DejaVuSans-Oblique-4d" d="M 1081 4666 
L 2028 4666 
L 2572 1522 
L 4378 4666 
L 5350 4666 
L 4441 0 
L 3828 0 
L 4622 4091 
L 2791 897 
L 2175 897 
L 1581 4103 
L 788 0 
L 172 0 
L 1081 4666 
z
" transform="scale(0.015625)"/>
       <path id="DejaVuSans-2299" d="M 2350 2403 
L 3013 2403 
L 3013 1609 
L 2350 1609 
L 2350 2403 
z
M 3306 3522 
Q 3016 3644 2681 3644 
Q 2347 3644 2056 3522 
Q 1769 3400 1531 3163 
Q 1291 2922 1172 2634 
Q 1053 2347 1053 2006 
Q 1053 1675 1172 1387 
Q 1291 1100 1531 859 
Q 1769 622 2056 500 
Q 2347 378 2681 378 
Q 3016 378 3306 500 
Q 3594 622 3831 859 
Q 4072 1100 4190 1387 
Q 4309 1675 4309 2006 
Q 4309 2347 4190 2634 
Q 4072 2922 3831 3163 
Q 3594 3400 3306 3522 
z
M 1878 3956 
Q 2250 4113 2681 4113 
Q 3113 4113 3484 3956 
Q 3856 3800 4163 3494 
Q 4472 3184 4625 2813 
Q 4778 2444 4778 2006 
Q 4778 1578 4625 1206 
Q 4472 838 4163 528 
Q 3856 222 3484 65 
Q 3113 -91 2681 -91 
Q 2250 -91 1878 65 
Q 1506 222 1200 528 
Q 891 838 738 1206 
Q 584 1578 584 2006 
Q 584 2444 738 2813 
Q 891 3184 1200 3494 
Q 1506 3800 1878 3956 
z
" transform="scale(0.015625)"/>
       <path id="HelveticaNeue-Medium-5d" d="M 1434 4678 
L 6 4678 
L 6 4102 
L 742 4102 
L 742 -646 
L 6 -646 
L 6 -1222 
L 1434 -1222 
L 1434 4678 
z
" transform="scale(0.015625)"/>
      </defs>
      <use xlink:href="#HelveticaNeue-Medium-42" transform="translate(0 0.90625)"/>
      <use xlink:href="#HelveticaNeue-Medium-75" transform="translate(70.399994 0.90625)"/>
      <use xlink:href="#HelveticaNeue-Medium-6c" transform="translate(127.799988 0.90625)"/>
      <use xlink:href="#HelveticaNeue-Medium-67" transform="translate(151.899979 0.90625)"/>
      <use xlink:href="#HelveticaNeue-Medium-65" transform="translate(211.199966 0.90625)"/>
      <use xlink:href="#HelveticaNeue-Medium-20" transform="translate(266.799957 0.90625)"/>
      <use xlink:href="#HelveticaNeue-Medium-6d" transform="translate(294.599945 0.90625)"/>
      <use xlink:href="#HelveticaNeue-Medium-61" transform="translate(381.59993 0.90625)"/>
      <use xlink:href="#HelveticaNeue-Medium-73" transform="translate(437.199921 0.90625)"/>
      <use xlink:href="#HelveticaNeue-Medium-73" transform="translate(489.099915 0.90625)"/>
      <use xlink:href="#HelveticaNeue-Medium-20" transform="translate(540.999908 0.90625)"/>
      <use xlink:href="#HelveticaNeue-Medium-5b" transform="translate(568.799896 0.90625)"/>
      <use xlink:href="#HelveticaNeue-Medium-6c" transform="translate(598.399887 0.90625)"/>
      <use xlink:href="#HelveticaNeue-Medium-6f" transform="translate(622.499878 0.90625)"/>
      <use xlink:href="#HelveticaNeue-Medium-67" transform="translate(681.799866 0.90625)"/>
      <use xlink:href="#HelveticaNeue-Medium-2c" transform="translate(741.099854 0.90625)"/>
      <use xlink:href="#HelveticaNeue-Medium-20" transform="translate(768.899841 0.90625)"/>
      <use xlink:href="#DejaVuSans-Oblique-4d" transform="translate(796.699829 0.90625)"/>
      <use xlink:href="#DejaVuSans-2299" transform="translate(896.616821 -15.5)scale(0.7)"/>
      <use xlink:href="#HelveticaNeue-Medium-5d" transform="translate(971.641235 0.90625)"/>
     </g>
    </g>
   </g>
   <g id="matplotlib.axis_2">
    <g id="ytick_1">
     <g id="line2d_17">
      <defs>
       <path id="m4a2b0d935a" d="M 1.75 0 
L -1.75 -0 
" style="stroke: #000000; stroke-width: 0.8"/>
      </defs>
      <g>
       <use xlink:href="#m4a2b0d935a" x="55.459375" y="225.233191" style="stroke: #000000; stroke-width: 0.8"/>
      </g>
     </g>
     <g id="line2d_18">
      <g>
       <use xlink:href="#m4a2b0d935a" x="412.579375" y="225.233191" style="stroke: #000000; stroke-width: 0.8"/>
      </g>
     </g>
     <g id="text_10">
      <!-- $\mathdefault{10^{2}}$ -->
      <g transform="translate(34.809375 228.803503)scale(0.1 -0.1)">
       <use xlink:href="#HelveticaNeue-Medium-31" transform="translate(0 0.823438)"/>
       <use xlink:href="#HelveticaNeue-Medium-30" transform="translate(55.599991 0.823438)"/>
       <use xlink:href="#HelveticaNeue-Medium-32" transform="translate(112.104786 37.015625)scale(0.7)"/>
      </g>
     </g>
    </g>
    <g id="ytick_2">
     <g id="line2d_19">
      <defs>
       <path id="m216bbdd6f6" d="M 1 0 
L -1 -0 
" style="stroke: #000000; stroke-width: 0.6"/>
      </defs>
      <g>
       <use xlink:href="#m216bbdd6f6" x="55.459375" y="269.929704" style="stroke: #000000; stroke-width: 0.6"/>
      </g>
     </g>
     <g id="line2d_20">
      <g>
       <use xlink:href="#m216bbdd6f6" x="412.579375" y="269.929704" style="stroke: #000000; stroke-width: 0.6"/>
      </g>
     </g>
    </g>
    <g id="ytick_3">
     <g id="line2d_21">
      <g>
       <use xlink:href="#m216bbdd6f6" x="55.459375" y="253.196295" style="stroke: #000000; stroke-width: 0.6"/>
      </g>
     </g>
     <g id="line2d_22">
      <g>
       <use xlink:href="#m216bbdd6f6" x="412.579375" y="253.196295" style="stroke: #000000; stroke-width: 0.6"/>
      </g>
     </g>
    </g>
    <g id="ytick_4">
     <g id="line2d_23">
      <g>
       <use xlink:href="#m216bbdd6f6" x="55.459375" y="238.436382" style="stroke: #000000; stroke-width: 0.6"/>
      </g>
     </g>
     <g id="line2d_24">
      <g>
       <use xlink:href="#m216bbdd6f6" x="412.579375" y="238.436382" style="stroke: #000000; stroke-width: 0.6"/>
      </g>
     </g>
    </g>
    <g id="ytick_5">
     <g id="line2d_25">
      <g>
       <use xlink:href="#m216bbdd6f6" x="55.459375" y="138.371855" style="stroke: #000000; stroke-width: 0.6"/>
      </g>
     </g>
     <g id="line2d_26">
      <g>
       <use xlink:href="#m216bbdd6f6" x="412.579375" y="138.371855" style="stroke: #000000; stroke-width: 0.6"/>
      </g>
     </g>
     <g id="text_11">
      <!-- $\mathdefault{2\times10^{2}}$ -->
      <g transform="translate(20.559375 141.942168)scale(0.1 -0.1)">
       <defs>
        <path id="HelveticaNeue-Medium-d7" d="M 1466 1619 
L 352 506 
L 902 147 
L 1914 1171 
L 2938 147 
L 3488 506 
L 2368 1619 
L 3488 2733 
L 2938 3091 
L 1914 2074 
L 902 3091 
L 352 2733 
L 1466 1619 
z
" transform="scale(0.015625)"/>
       </defs>
       <use xlink:href="#HelveticaNeue-Medium-32" transform="translate(0 0.823438)"/>
       <use xlink:href="#HelveticaNeue-Medium-d7" transform="translate(72.999988 0.823438)"/>
       <use xlink:href="#HelveticaNeue-Medium-31" transform="translate(150.399969 0.823438)"/>
       <use xlink:href="#HelveticaNeue-Medium-30" transform="translate(205.99996 0.823438)"/>
       <use xlink:href="#HelveticaNeue-Medium-32" transform="translate(262.504756 37.015625)scale(0.7)"/>
      </g>
     </g>
    </g>
    <g id="ytick_6">
     <g id="line2d_27">
      <g>
       <use xlink:href="#m216bbdd6f6" x="55.459375" y="87.561231" style="stroke: #000000; stroke-width: 0.6"/>
      </g>
     </g>
     <g id="line2d_28">
      <g>
       <use xlink:href="#m216bbdd6f6" x="412.579375" y="87.561231" style="stroke: #000000; stroke-width: 0.6"/>
      </g>
     </g>
     <g id="text_12">
      <!-- $\mathdefault{3\times10^{2}}$ -->
      <g transform="translate(20.559375 91.131544)scale(0.1 -0.1)">
       <defs>
        <path id="HelveticaNeue-Medium-33" d="M 1459 2080 
C 2035 2106 2630 2016 2630 1318 
C 2630 806 2259 518 1773 518 
C 1203 518 909 928 928 1472 
L 198 1472 
C 218 538 736 -90 1773 -90 
C 2630 -90 3360 435 3360 1280 
C 3360 1856 3053 2298 2547 2400 
L 2547 2413 
C 2976 2566 3181 2925 3181 3373 
C 3181 4166 2464 4570 1766 4570 
C 864 4570 320 3917 282 3046 
L 1011 3046 
C 998 3507 1248 3962 1754 3962 
C 2157 3962 2451 3706 2451 3328 
C 2451 2778 1946 2605 1459 2624 
L 1459 2080 
z
" transform="scale(0.015625)"/>
       </defs>
       <use xlink:href="#HelveticaNeue-Medium-33" transform="translate(0 0.823438)"/>
       <use xlink:href="#HelveticaNeue-Medium-d7" transform="translate(72.999988 0.823438)"/>
       <use xlink:href="#HelveticaNeue-Medium-31" transform="translate(150.399969 0.823438)"/>
       <use xlink:href="#HelveticaNeue-Medium-30" transform="translate(205.99996 0.823438)"/>
       <use xlink:href="#HelveticaNeue-Medium-32" transform="translate(262.504756 37.015625)scale(0.7)"/>
      </g>
     </g>
    </g>
    <g id="ytick_7">
     <g id="line2d_29">
      <g>
       <use xlink:href="#m216bbdd6f6" x="55.459375" y="51.51052" style="stroke: #000000; stroke-width: 0.6"/>
      </g>
     </g>
     <g id="line2d_30">
      <g>
       <use xlink:href="#m216bbdd6f6" x="412.579375" y="51.51052" style="stroke: #000000; stroke-width: 0.6"/>
      </g>
     </g>
     <g id="text_13">
      <!-- $\mathdefault{4\times10^{2}}$ -->
      <g transform="translate(20.559375 55.080832)scale(0.1 -0.1)">
       <defs>
        <path id="HelveticaNeue-Medium-34" d="M 3341 1638 
L 2765 1638 
L 2765 4480 
L 2074 4480 
L 154 1786 
L 154 1062 
L 2074 1062 
L 2074 0 
L 2765 0 
L 2765 1062 
L 3341 1062 
L 3341 1638 
z
M 2061 3610 
L 2074 3610 
L 2074 1638 
L 717 1638 
L 2061 3610 
z
" transform="scale(0.015625)"/>
       </defs>
       <use xlink:href="#HelveticaNeue-Medium-34" transform="translate(0 0.823438)"/>
       <use xlink:href="#HelveticaNeue-Medium-d7" transform="translate(72.999988 0.823438)"/>
       <use xlink:href="#HelveticaNeue-Medium-31" transform="translate(150.399969 0.823438)"/>
       <use xlink:href="#HelveticaNeue-Medium-30" transform="translate(205.99996 0.823438)"/>
       <use xlink:href="#HelveticaNeue-Medium-32" transform="translate(262.504756 37.015625)scale(0.7)"/>
      </g>
     </g>
    </g>
    <g id="ytick_8">
     <g id="line2d_31">
      <g>
       <use xlink:href="#m216bbdd6f6" x="55.459375" y="23.547416" style="stroke: #000000; stroke-width: 0.6"/>
      </g>
     </g>
     <g id="line2d_32">
      <g>
       <use xlink:href="#m216bbdd6f6" x="412.579375" y="23.547416" style="stroke: #000000; stroke-width: 0.6"/>
      </g>
     </g>
    </g>
    <g id="text_14">
     <!-- Velocity dispersion [log, km/s] -->
     <g transform="translate(14.509375 211.382562)rotate(-90)scale(0.1 -0.1)">
      <defs>
       <path id="HelveticaNeue-Medium-56" d="M 1491 0 
L 2381 0 
L 3942 4570 
L 3130 4570 
L 1958 954 
L 1946 954 
L 800 4570 
L -32 4570 
L 1491 0 
z
" transform="scale(0.015625)"/>
       <path id="HelveticaNeue-Medium-63" d="M 3347 2202 
C 3277 3014 2624 3398 1856 3398 
C 768 3398 224 2618 224 1619 
C 224 646 794 -90 1830 -90 
C 2682 -90 3213 384 3347 1242 
L 2618 1242 
C 2547 768 2253 486 1830 486 
C 1197 486 954 1069 954 1619 
C 954 2624 1485 2822 1862 2822 
C 2266 2822 2560 2605 2618 2202 
L 3347 2202 
z
" transform="scale(0.015625)"/>
       <path id="HelveticaNeue-Medium-69" d="M 403 0 
L 1133 0 
L 1133 3309 
L 403 3309 
L 403 0 
z
M 403 3878 
L 1133 3878 
L 1133 4570 
L 403 4570 
L 403 3878 
z
" transform="scale(0.015625)"/>
       <path id="HelveticaNeue-Medium-74" d="M 51 2765 
L 602 2765 
L 602 813 
C 614 262 755 -32 1517 -32 
C 1677 -32 1830 -6 1990 6 
L 1990 570 
C 1888 544 1786 544 1683 544 
C 1357 544 1331 698 1331 998 
L 1331 2765 
L 1990 2765 
L 1990 3309 
L 1331 3309 
L 1331 4301 
L 602 4301 
L 602 3309 
L 51 3309 
L 51 2765 
z
" transform="scale(0.015625)"/>
       <path id="HelveticaNeue-Medium-79" d="M 1274 13 
L 1190 -243 
C 1101 -525 1018 -704 678 -704 
C 563 -704 448 -678 333 -659 
L 333 -1274 
C 499 -1299 666 -1312 838 -1312 
C 1600 -1312 1773 -774 2010 -179 
L 3296 3309 
L 2534 3309 
L 1696 838 
L 1683 838 
L 819 3309 
L 19 3309 
L 1274 13 
z
" transform="scale(0.015625)"/>
       <path id="HelveticaNeue-Medium-64" d="M 954 1619 
C 954 2214 1197 2822 1882 2822 
C 2445 2822 2797 2387 2797 1658 
C 2797 1082 2522 486 1869 486 
C 1235 486 954 1050 954 1619 
z
M 3501 4570 
L 2771 4570 
L 2771 2880 
L 2758 2880 
C 2534 3245 2074 3398 1658 3398 
C 934 3398 224 2874 224 1677 
C 224 685 730 -90 1773 -90 
C 2189 -90 2605 70 2797 448 
L 2810 448 
L 2810 0 
L 3501 0 
L 3501 4570 
z
" transform="scale(0.015625)"/>
       <path id="HelveticaNeue-Medium-70" d="M 2950 1651 
C 2950 1075 2701 486 2035 486 
C 1446 486 1107 986 1107 1651 
C 1107 2355 1421 2822 2035 2822 
C 2637 2822 2950 2253 2950 1651 
z
M 403 -1222 
L 1133 -1222 
L 1133 429 
L 1146 429 
C 1376 64 1830 -90 2253 -90 
C 3232 -90 3680 749 3680 1638 
C 3680 2605 3174 3398 2131 3398 
C 1709 3398 1312 3238 1107 2861 
L 1094 2861 
L 1094 3309 
L 403 3309 
L 403 -1222 
z
" transform="scale(0.015625)"/>
       <path id="HelveticaNeue-Medium-72" d="M 384 0 
L 1114 0 
L 1114 1574 
C 1114 2304 1510 2707 2010 2707 
C 2112 2707 2221 2688 2323 2675 
L 2323 3379 
C 2259 3386 2214 3398 2048 3398 
C 1600 3398 1165 3021 1082 2669 
L 1069 2669 
L 1069 3309 
L 384 3309 
L 384 0 
z
" transform="scale(0.015625)"/>
       <path id="HelveticaNeue-Medium-6e" d="M 384 0 
L 1114 0 
L 1114 1952 
C 1114 2438 1427 2822 1914 2822 
C 2342 2822 2547 2598 2560 2080 
L 2560 0 
L 3290 0 
L 3290 2272 
C 3290 3014 2835 3398 2118 3398 
C 1683 3398 1306 3174 1088 2810 
L 1075 2822 
L 1075 3309 
L 384 3309 
L 384 0 
z
" transform="scale(0.015625)"/>
       <path id="HelveticaNeue-Medium-6b" d="M 403 0 
L 1133 0 
L 1133 1184 
L 1568 1606 
L 2579 0 
L 3469 0 
L 2080 2093 
L 3347 3309 
L 2451 3309 
L 1133 1971 
L 1133 4570 
L 403 4570 
L 403 0 
z
" transform="scale(0.015625)"/>
       <path id="HelveticaNeue-Medium-2f" d="M -141 -109 
L 557 -109 
L 2394 4678 
L 1696 4678 
L -141 -109 
z
" transform="scale(0.015625)"/>
      </defs>
      <use xlink:href="#HelveticaNeue-Medium-56"/>
      <use xlink:href="#HelveticaNeue-Medium-65" x="61.099991"/>
      <use xlink:href="#HelveticaNeue-Medium-6c" x="116.699982"/>
      <use xlink:href="#HelveticaNeue-Medium-6f" x="140.799973"/>
      <use xlink:href="#HelveticaNeue-Medium-63" x="200.09996"/>
      <use xlink:href="#HelveticaNeue-Medium-69" x="255.699951"/>
      <use xlink:href="#HelveticaNeue-Medium-74" x="279.799942"/>
      <use xlink:href="#HelveticaNeue-Medium-79" x="313.09993"/>
      <use xlink:href="#HelveticaNeue-Medium-20" x="364.999924"/>
      <use xlink:href="#HelveticaNeue-Medium-64" x="392.799911"/>
      <use xlink:href="#HelveticaNeue-Medium-69" x="453.899902"/>
      <use xlink:href="#HelveticaNeue-Medium-73" x="477.999893"/>
      <use xlink:href="#HelveticaNeue-Medium-70" x="529.899887"/>
      <use xlink:href="#HelveticaNeue-Medium-65" x="590.999878"/>
      <use xlink:href="#HelveticaNeue-Medium-72" x="646.599869"/>
      <use xlink:href="#HelveticaNeue-Medium-73" x="681.799866"/>
      <use xlink:href="#HelveticaNeue-Medium-69" x="733.69986"/>
      <use xlink:href="#HelveticaNeue-Medium-6f" x="757.79985"/>
      <use xlink:href="#HelveticaNeue-Medium-6e" x="817.099838"/>
      <use xlink:href="#HelveticaNeue-Medium-20" x="874.499832"/>
      <use xlink:href="#HelveticaNeue-Medium-5b" x="902.29982"/>
      <use xlink:href="#HelveticaNeue-Medium-6c" x="931.899811"/>
      <use xlink:href="#HelveticaNeue-Medium-6f" x="955.999802"/>
      <use xlink:href="#HelveticaNeue-Medium-67" x="1015.299789"/>
      <use xlink:href="#HelveticaNeue-Medium-2c" x="1074.599777"/>
      <use xlink:href="#HelveticaNeue-Medium-20" x="1102.399765"/>
      <use xlink:href="#HelveticaNeue-Medium-6b" x="1130.199753"/>
      <use xlink:href="#HelveticaNeue-Medium-6d" x="1183.89975"/>
      <use xlink:href="#HelveticaNeue-Medium-2f" x="1270.899734"/>
      <use xlink:href="#HelveticaNeue-Medium-73" x="1306.099731"/>
      <use xlink:href="#HelveticaNeue-Medium-5d" x="1357.999725"/>
     </g>
    </g>
   </g>
   <g id="LineCollection_1">
    <path d="M 71.692102 257.985964 
L 89.982499 257.985964 
" clip-path="url(#p9cc3b19ed3)" style="fill: none; stroke: #ffa500; stroke-width: 1.5"/>
    <path d="M 327.757659 123.056224 
L 344.219016 123.056224 
" clip-path="url(#p9cc3b19ed3)" style="fill: none; stroke: #ffa500; stroke-width: 1.5"/>
    <path d="M 275.630028 76.379284 
L 292.091385 76.379284 
" clip-path="url(#p9cc3b19ed3)" style="fill: none; stroke: #ffa500; stroke-width: 1.5"/>
    <path d="M 218.929798 160.968996 
L 235.391155 160.968996 
" clip-path="url(#p9cc3b19ed3)" style="fill: none; stroke: #ffa500; stroke-width: 1.5"/>
    <path d="M 296.663984 81.44712 
L 313.125342 81.44712 
" clip-path="url(#p9cc3b19ed3)" style="fill: none; stroke: #ffa500; stroke-width: 1.5"/>
    <path d="M 318.612461 98.010149 
L 335.073818 98.010149 
" clip-path="url(#p9cc3b19ed3)" style="fill: none; stroke: #ffa500; stroke-width: 1.5"/>
    <path d="M 281.117147 100.764423 
L 297.578504 100.764423 
" clip-path="url(#p9cc3b19ed3)" style="fill: none; stroke: #ffa500; stroke-width: 1.5"/>
    <path d="M 183.263524 155.105264 
L 199.724881 155.105264 
" clip-path="url(#p9cc3b19ed3)" style="fill: none; stroke: #ffa500; stroke-width: 1.5"/>
    <path d="M 256.425111 161.721638 
L 272.886468 161.721638 
" clip-path="url(#p9cc3b19ed3)" style="fill: none; stroke: #ffa500; stroke-width: 1.5"/>
    <path d="M 306.723703 88.820683 
L 323.18506 88.820683 
" clip-path="url(#p9cc3b19ed3)" style="fill: none; stroke: #ffa500; stroke-width: 1.5"/>
    <path d="M 205.212 178.67092 
L 221.673357 178.67092 
" clip-path="url(#p9cc3b19ed3)" style="fill: none; stroke: #ffa500; stroke-width: 1.5"/>
    <path d="M 242.707314 134.667711 
L 259.168671 134.667711 
" clip-path="url(#p9cc3b19ed3)" style="fill: none; stroke: #ffa500; stroke-width: 1.5"/>
    <path d="M 274.715508 121.403702 
L 291.176865 121.403702 
" clip-path="url(#p9cc3b19ed3)" style="fill: none; stroke: #ffa500; stroke-width: 1.5"/>
    <path d="M 251.852512 150.190343 
L 268.313869 150.190343 
" clip-path="url(#p9cc3b19ed3)" style="fill: none; stroke: #ffa500; stroke-width: 1.5"/>
    <path d="M 321.35602 100.764423 
L 337.817378 100.764423 
" clip-path="url(#p9cc3b19ed3)" style="fill: none; stroke: #ffa500; stroke-width: 1.5"/>
    <path d="M 310.381782 81.44712 
L 326.843139 81.44712 
" clip-path="url(#p9cc3b19ed3)" style="fill: none; stroke: #ffa500; stroke-width: 1.5"/>
    <path d="M 237.220194 114.484376 
L 253.681552 114.484376 
" clip-path="url(#p9cc3b19ed3)" style="fill: none; stroke: #ffa500; stroke-width: 1.5"/>
    <path d="M 307.638223 89.243329 
L 324.09958 89.243329 
" clip-path="url(#p9cc3b19ed3)" style="fill: none; stroke: #ffa500; stroke-width: 1.5"/>
    <path d="M 297.578504 150.190343 
L 314.039862 150.190343 
" clip-path="url(#p9cc3b19ed3)" style="fill: none; stroke: #ffa500; stroke-width: 1.5"/>
    <path d="M 239.963754 160.968996 
L 256.425111 160.968996 
" clip-path="url(#p9cc3b19ed3)" style="fill: none; stroke: #ffa500; stroke-width: 1.5"/>
    <path d="M 327.757659 87.561231 
L 344.219016 87.561231 
" clip-path="url(#p9cc3b19ed3)" style="fill: none; stroke: #ffa500; stroke-width: 1.5"/>
    <path d="M 237.220194 144.799645 
L 253.681552 144.799645 
" clip-path="url(#p9cc3b19ed3)" style="fill: none; stroke: #ffa500; stroke-width: 1.5"/>
    <path d="M 316.783421 77.916903 
L 333.244778 77.916903 
" clip-path="url(#p9cc3b19ed3)" style="fill: none; stroke: #ffa500; stroke-width: 1.5"/>
    <path d="M 125.648773 148.14156 
L 143.93917 148.14156 
" clip-path="url(#p9cc3b19ed3)" style="fill: none; stroke: #ffa500; stroke-width: 1.5"/>
    <path d="M 309.467262 57.938309 
L 325.92862 57.938309 
" clip-path="url(#p9cc3b19ed3)" style="fill: none; stroke: #ffa500; stroke-width: 1.5"/>
    <path d="M 248.194433 153.681221 
L 264.65579 153.681221 
" clip-path="url(#p9cc3b19ed3)" style="fill: none; stroke: #ffa500; stroke-width: 1.5"/>
    <path d="M 265.57031 66.466389 
L 282.031667 66.466389 
" clip-path="url(#p9cc3b19ed3)" style="fill: none; stroke: #ffa500; stroke-width: 1.5"/>
    <path d="M 350.620655 69.322682 
L 367.082013 69.322682 
" clip-path="url(#p9cc3b19ed3)" style="fill: none; stroke: #ffa500; stroke-width: 1.5"/>
    <path d="M 276.544548 125.294041 
L 293.005905 125.294041 
" clip-path="url(#p9cc3b19ed3)" style="fill: none; stroke: #ffa500; stroke-width: 1.5"/>
    <path d="M 255.510591 174.422567 
L 271.971949 174.422567 
" clip-path="url(#p9cc3b19ed3)" style="fill: none; stroke: #ffa500; stroke-width: 1.5"/>
    <path d="M 310.381782 74.483417 
L 326.843139 74.483417 
" clip-path="url(#p9cc3b19ed3)" style="fill: none; stroke: #ffa500; stroke-width: 1.5"/>
    <path d="M 305.809183 76.379284 
L 322.27054 76.379284 
" clip-path="url(#p9cc3b19ed3)" style="fill: none; stroke: #ffa500; stroke-width: 1.5"/>
    <path d="M 250.937992 149.503687 
L 267.399349 149.503687 
" clip-path="url(#p9cc3b19ed3)" style="fill: none; stroke: #ffa500; stroke-width: 1.5"/>
    <path d="M 211.613639 116.04757 
L 228.074996 116.04757 
" clip-path="url(#p9cc3b19ed3)" style="fill: none; stroke: #ffa500; stroke-width: 1.5"/>
    <path d="M 314.039862 80.259297 
L 330.501219 80.259297 
" clip-path="url(#p9cc3b19ed3)" style="fill: none; stroke: #ffa500; stroke-width: 1.5"/>
    <path d="M 273.800988 55.004938 
L 290.262346 55.004938 
" clip-path="url(#p9cc3b19ed3)" style="fill: none; stroke: #ffa500; stroke-width: 1.5"/>
    <path d="M 305.809183 102.634822 
L 324.09958 102.634822 
" clip-path="url(#p9cc3b19ed3)" style="fill: none; stroke: #ffa500; stroke-width: 1.5"/>
    <path d="M 310.381782 90.948314 
L 326.843139 90.948314 
" clip-path="url(#p9cc3b19ed3)" style="fill: none; stroke: #ffa500; stroke-width: 1.5"/>
    <path d="M 319.526981 106.948172 
L 335.988338 106.948172 
" clip-path="url(#p9cc3b19ed3)" style="fill: none; stroke: #ffa500; stroke-width: 1.5"/>
    <path d="M 305.809183 75.238325 
L 322.27054 75.238325 
" clip-path="url(#p9cc3b19ed3)" style="fill: none; stroke: #ffa500; stroke-width: 1.5"/>
    <path d="M 324.09958 92.676816 
L 342.389977 92.676816 
" clip-path="url(#p9cc3b19ed3)" style="fill: none; stroke: #ffa500; stroke-width: 1.5"/>
    <path d="M 322.27054 78.692846 
L 338.731897 78.692846 
" clip-path="url(#p9cc3b19ed3)" style="fill: none; stroke: #ffa500; stroke-width: 1.5"/>
   </g>
   <g id="LineCollection_2">
    <path d="M 80.837301 262.966 
L 80.837301 253.196295 
" clip-path="url(#p9cc3b19ed3)" style="fill: none; stroke: #ffa500; stroke-width: 1.5"/>
    <path d="M 335.988338 128.148707 
L 335.988338 118.162631 
" clip-path="url(#p9cc3b19ed3)" style="fill: none; stroke: #ffa500; stroke-width: 1.5"/>
    <path d="M 283.860707 79.865845 
L 283.860707 72.987107 
" clip-path="url(#p9cc3b19ed3)" style="fill: none; stroke: #ffa500; stroke-width: 1.5"/>
    <path d="M 227.160476 163.240619 
L 227.160476 158.73782 
" clip-path="url(#p9cc3b19ed3)" style="fill: none; stroke: #ffa500; stroke-width: 1.5"/>
    <path d="M 304.894663 82.64631 
L 304.894663 80.259297 
" clip-path="url(#p9cc3b19ed3)" style="fill: none; stroke: #ffa500; stroke-width: 1.5"/>
    <path d="M 326.843139 98.921531 
L 326.843139 97.105348 
" clip-path="url(#p9cc3b19ed3)" style="fill: none; stroke: #ffa500; stroke-width: 1.5"/>
    <path d="M 289.347826 105.49383 
L 289.347826 96.207033 
" clip-path="url(#p9cc3b19ed3)" style="fill: none; stroke: #ffa500; stroke-width: 1.5"/>
    <path d="M 191.494202 160.968996 
L 191.494202 149.503687 
" clip-path="url(#p9cc3b19ed3)" style="fill: none; stroke: #ffa500; stroke-width: 1.5"/>
    <path d="M 264.65579 174.422567 
L 264.65579 150.190343 
" clip-path="url(#p9cc3b19ed3)" style="fill: none; stroke: #ffa500; stroke-width: 1.5"/>
    <path d="M 314.954381 93.989021 
L 314.954381 83.857087 
" clip-path="url(#p9cc3b19ed3)" style="fill: none; stroke: #ffa500; stroke-width: 1.5"/>
    <path d="M 213.442678 184.871484 
L 213.442678 172.762749 
" clip-path="url(#p9cc3b19ed3)" style="fill: none; stroke: #ffa500; stroke-width: 1.5"/>
    <path d="M 250.937992 140.903546 
L 250.937992 128.727527 
" clip-path="url(#p9cc3b19ed3)" style="fill: none; stroke: #ffa500; stroke-width: 1.5"/>
    <path d="M 282.946187 127.572547 
L 282.946187 115.524335 
" clip-path="url(#p9cc3b19ed3)" style="fill: none; stroke: #ffa500; stroke-width: 1.5"/>
    <path d="M 260.083191 156.545675 
L 260.083191 144.141825 
" clip-path="url(#p9cc3b19ed3)" style="fill: none; stroke: #ffa500; stroke-width: 1.5"/>
    <path d="M 329.586699 113.967615 
L 329.586699 88.820683 
" clip-path="url(#p9cc3b19ed3)" style="fill: none; stroke: #ffa500; stroke-width: 1.5"/>
    <path d="M 318.612461 87.561231 
L 318.612461 75.617492 
" clip-path="url(#p9cc3b19ed3)" style="fill: none; stroke: #ffa500; stroke-width: 1.5"/>
    <path d="M 245.450873 120.857669 
L 245.450873 108.419591 
" clip-path="url(#p9cc3b19ed3)" style="fill: none; stroke: #ffa500; stroke-width: 1.5"/>
    <path d="M 315.868901 95.315111 
L 315.868901 83.452194 
" clip-path="url(#p9cc3b19ed3)" style="fill: none; stroke: #ffa500; stroke-width: 1.5"/>
    <path d="M 305.809183 153.681221 
L 305.809183 146.794081 
" clip-path="url(#p9cc3b19ed3)" style="fill: none; stroke: #ffa500; stroke-width: 1.5"/>
    <path d="M 248.194433 167.120632 
L 248.194433 155.105264 
" clip-path="url(#p9cc3b19ed3)" style="fill: none; stroke: #ffa500; stroke-width: 1.5"/>
    <path d="M 335.988338 90.519888 
L 335.988338 84.67082 
" clip-path="url(#p9cc3b19ed3)" style="fill: none; stroke: #ffa500; stroke-width: 1.5"/>
    <path d="M 245.450873 150.880782 
L 245.450873 138.999999 
" clip-path="url(#p9cc3b19ed3)" style="fill: none; stroke: #ffa500; stroke-width: 1.5"/>
    <path d="M 325.0141 89.243329 
L 325.0141 67.529884 
" clip-path="url(#p9cc3b19ed3)" style="fill: none; stroke: #ffa500; stroke-width: 1.5"/>
    <path d="M 134.793972 154.39122 
L 134.793972 142.188833 
" clip-path="url(#p9cc3b19ed3)" style="fill: none; stroke: #ffa500; stroke-width: 1.5"/>
    <path d="M 317.697941 64.366098 
L 317.697941 51.824198 
" clip-path="url(#p9cc3b19ed3)" style="fill: none; stroke: #ffa500; stroke-width: 1.5"/>
    <path d="M 256.425111 159.47714 
L 256.425111 148.14156 
" clip-path="url(#p9cc3b19ed3)" style="fill: none; stroke: #ffa500; stroke-width: 1.5"/>
    <path d="M 273.800988 71.508454 
L 273.800988 61.619371 
" clip-path="url(#p9cc3b19ed3)" style="fill: none; stroke: #ffa500; stroke-width: 1.5"/>
    <path d="M 358.851334 71.141501 
L 358.851334 67.529884 
" clip-path="url(#p9cc3b19ed3)" style="fill: none; stroke: #ffa500; stroke-width: 1.5"/>
    <path d="M 284.775226 131.662425 
L 284.775226 119.233701 
" clip-path="url(#p9cc3b19ed3)" style="fill: none; stroke: #ffa500; stroke-width: 1.5"/>
    <path d="M 263.74127 180.411426 
L 263.74127 168.706912 
" clip-path="url(#p9cc3b19ed3)" style="fill: none; stroke: #ffa500; stroke-width: 1.5"/>
    <path d="M 318.612461 75.238325 
L 318.612461 73.733029 
" clip-path="url(#p9cc3b19ed3)" style="fill: none; stroke: #ffa500; stroke-width: 1.5"/>
    <path d="M 314.039862 80.653988 
L 314.039862 72.2456 
" clip-path="url(#p9cc3b19ed3)" style="fill: none; stroke: #ffa500; stroke-width: 1.5"/>
    <path d="M 259.168671 155.8234 
L 259.168671 143.48744 
" clip-path="url(#p9cc3b19ed3)" style="fill: none; stroke: #ffa500; stroke-width: 1.5"/>
    <path d="M 219.844317 121.952125 
L 219.844317 110.408751 
" clip-path="url(#p9cc3b19ed3)" style="fill: none; stroke: #ffa500; stroke-width: 1.5"/>
    <path d="M 322.27054 81.049927 
L 322.27054 79.473624 
" clip-path="url(#p9cc3b19ed3)" style="fill: none; stroke: #ffa500; stroke-width: 1.5"/>
    <path d="M 282.031667 55.975119 
L 282.031667 54.04221 
" clip-path="url(#p9cc3b19ed3)" style="fill: none; stroke: #ffa500; stroke-width: 1.5"/>
    <path d="M 314.954381 108.913929 
L 314.954381 96.655385 
" clip-path="url(#p9cc3b19ed3)" style="fill: none; stroke: #ffa500; stroke-width: 1.5"/>
    <path d="M 318.612461 93.112692 
L 318.612461 88.820683 
" clip-path="url(#p9cc3b19ed3)" style="fill: none; stroke: #ffa500; stroke-width: 1.5"/>
    <path d="M 327.757659 120.314004 
L 327.757659 94.87152 
" clip-path="url(#p9cc3b19ed3)" style="fill: none; stroke: #ffa500; stroke-width: 1.5"/>
    <path d="M 314.039862 77.145735 
L 314.039862 73.359513 
" clip-path="url(#p9cc3b19ed3)" style="fill: none; stroke: #ffa500; stroke-width: 1.5"/>
    <path d="M 333.244778 98.921531 
L 333.244778 86.728574 
" clip-path="url(#p9cc3b19ed3)" style="fill: none; stroke: #ffa500; stroke-width: 1.5"/>
    <path d="M 330.501219 85.079677 
L 330.501219 72.615805 
" clip-path="url(#p9cc3b19ed3)" style="fill: none; stroke: #ffa500; stroke-width: 1.5"/>
   </g>
   <g id="line2d_33">
    <defs>
     <path id="m3544df2074" d="M 0 2 
L 0 -2 
" style="stroke: #ffa500"/>
    </defs>
    <g clip-path="url(#p9cc3b19ed3)">
     <use xlink:href="#m3544df2074" x="71.692102" y="257.985964" style="fill: #ffa500; stroke: #ffa500"/>
     <use xlink:href="#m3544df2074" x="327.757659" y="123.056224" style="fill: #ffa500; stroke: #ffa500"/>
     <use xlink:href="#m3544df2074" x="275.630028" y="76.379284" style="fill: #ffa500; stroke: #ffa500"/>
     <use xlink:href="#m3544df2074" x="218.929798" y="160.968996" style="fill: #ffa500; stroke: #ffa500"/>
     <use xlink:href="#m3544df2074" x="296.663984" y="81.44712" style="fill: #ffa500; stroke: #ffa500"/>
     <use xlink:href="#m3544df2074" x="318.612461" y="98.010149" style="fill: #ffa500; stroke: #ffa500"/>
     <use xlink:href="#m3544df2074" x="281.117147" y="100.764423" style="fill: #ffa500; stroke: #ffa500"/>
     <use xlink:href="#m3544df2074" x="183.263524" y="155.105264" style="fill: #ffa500; stroke: #ffa500"/>
     <use xlink:href="#m3544df2074" x="256.425111" y="161.721638" style="fill: #ffa500; stroke: #ffa500"/>
     <use xlink:href="#m3544df2074" x="306.723703" y="88.820683" style="fill: #ffa500; stroke: #ffa500"/>
     <use xlink:href="#m3544df2074" x="205.212" y="178.67092" style="fill: #ffa500; stroke: #ffa500"/>
     <use xlink:href="#m3544df2074" x="242.707314" y="134.667711" style="fill: #ffa500; stroke: #ffa500"/>
     <use xlink:href="#m3544df2074" x="274.715508" y="121.403702" style="fill: #ffa500; stroke: #ffa500"/>
     <use xlink:href="#m3544df2074" x="251.852512" y="150.190343" style="fill: #ffa500; stroke: #ffa500"/>
     <use xlink:href="#m3544df2074" x="321.35602" y="100.764423" style="fill: #ffa500; stroke: #ffa500"/>
     <use xlink:href="#m3544df2074" x="310.381782" y="81.44712" style="fill: #ffa500; stroke: #ffa500"/>
     <use xlink:href="#m3544df2074" x="237.220194" y="114.484376" style="fill: #ffa500; stroke: #ffa500"/>
     <use xlink:href="#m3544df2074" x="307.638223" y="89.243329" style="fill: #ffa500; stroke: #ffa500"/>
     <use xlink:href="#m3544df2074" x="297.578504" y="150.190343" style="fill: #ffa500; stroke: #ffa500"/>
     <use xlink:href="#m3544df2074" x="239.963754" y="160.968996" style="fill: #ffa500; stroke: #ffa500"/>
     <use xlink:href="#m3544df2074" x="327.757659" y="87.561231" style="fill: #ffa500; stroke: #ffa500"/>
     <use xlink:href="#m3544df2074" x="237.220194" y="144.799645" style="fill: #ffa500; stroke: #ffa500"/>
     <use xlink:href="#m3544df2074" x="316.783421" y="77.916903" style="fill: #ffa500; stroke: #ffa500"/>
     <use xlink:href="#m3544df2074" x="125.648773" y="148.14156" style="fill: #ffa500; stroke: #ffa500"/>
     <use xlink:href="#m3544df2074" x="309.467262" y="57.938309" style="fill: #ffa500; stroke: #ffa500"/>
     <use xlink:href="#m3544df2074" x="248.194433" y="153.681221" style="fill: #ffa500; stroke: #ffa500"/>
     <use xlink:href="#m3544df2074" x="265.57031" y="66.466389" style="fill: #ffa500; stroke: #ffa500"/>
     <use xlink:href="#m3544df2074" x="350.620655" y="69.322682" style="fill: #ffa500; stroke: #ffa500"/>
     <use xlink:href="#m3544df2074" x="276.544548" y="125.294041" style="fill: #ffa500; stroke: #ffa500"/>
     <use xlink:href="#m3544df2074" x="255.510591" y="174.422567" style="fill: #ffa500; stroke: #ffa500"/>
     <use xlink:href="#m3544df2074" x="310.381782" y="74.483417" style="fill: #ffa500; stroke: #ffa500"/>
     <use xlink:href="#m3544df2074" x="305.809183" y="76.379284" style="fill: #ffa500; stroke: #ffa500"/>
     <use xlink:href="#m3544df2074" x="250.937992" y="149.503687" style="fill: #ffa500; stroke: #ffa500"/>
     <use xlink:href="#m3544df2074" x="211.613639" y="116.04757" style="fill: #ffa500; stroke: #ffa500"/>
     <use xlink:href="#m3544df2074" x="314.039862" y="80.259297" style="fill: #ffa500; stroke: #ffa500"/>
     <use xlink:href="#m3544df2074" x="273.800988" y="55.004938" style="fill: #ffa500; stroke: #ffa500"/>
     <use xlink:href="#m3544df2074" x="305.809183" y="102.634822" style="fill: #ffa500; stroke: #ffa500"/>
     <use xlink:href="#m3544df2074" x="310.381782" y="90.948314" style="fill: #ffa500; stroke: #ffa500"/>
     <use xlink:href="#m3544df2074" x="319.526981" y="106.948172" style="fill: #ffa500; stroke: #ffa500"/>
     <use xlink:href="#m3544df2074" x="305.809183" y="75.238325" style="fill: #ffa500; stroke: #ffa500"/>
     <use xlink:href="#m3544df2074" x="324.09958" y="92.676816" style="fill: #ffa500; stroke: #ffa500"/>
     <use xlink:href="#m3544df2074" x="322.27054" y="78.692846" style="fill: #ffa500; stroke: #ffa500"/>
    </g>
   </g>
   <g id="line2d_34">
    <g clip-path="url(#p9cc3b19ed3)">
     <use xlink:href="#m3544df2074" x="89.982499" y="257.985964" style="fill: #ffa500; stroke: #ffa500"/>
     <use xlink:href="#m3544df2074" x="344.219016" y="123.056224" style="fill: #ffa500; stroke: #ffa500"/>
     <use xlink:href="#m3544df2074" x="292.091385" y="76.379284" style="fill: #ffa500; stroke: #ffa500"/>
     <use xlink:href="#m3544df2074" x="235.391155" y="160.968996" style="fill: #ffa500; stroke: #ffa500"/>
     <use xlink:href="#m3544df2074" x="313.125342" y="81.44712" style="fill: #ffa500; stroke: #ffa500"/>
     <use xlink:href="#m3544df2074" x="335.073818" y="98.010149" style="fill: #ffa500; stroke: #ffa500"/>
     <use xlink:href="#m3544df2074" x="297.578504" y="100.764423" style="fill: #ffa500; stroke: #ffa500"/>
     <use xlink:href="#m3544df2074" x="199.724881" y="155.105264" style="fill: #ffa500; stroke: #ffa500"/>
     <use xlink:href="#m3544df2074" x="272.886468" y="161.721638" style="fill: #ffa500; stroke: #ffa500"/>
     <use xlink:href="#m3544df2074" x="323.18506" y="88.820683" style="fill: #ffa500; stroke: #ffa500"/>
     <use xlink:href="#m3544df2074" x="221.673357" y="178.67092" style="fill: #ffa500; stroke: #ffa500"/>
     <use xlink:href="#m3544df2074" x="259.168671" y="134.667711" style="fill: #ffa500; stroke: #ffa500"/>
     <use xlink:href="#m3544df2074" x="291.176865" y="121.403702" style="fill: #ffa500; stroke: #ffa500"/>
     <use xlink:href="#m3544df2074" x="268.313869" y="150.190343" style="fill: #ffa500; stroke: #ffa500"/>
     <use xlink:href="#m3544df2074" x="337.817378" y="100.764423" style="fill: #ffa500; stroke: #ffa500"/>
     <use xlink:href="#m3544df2074" x="326.843139" y="81.44712" style="fill: #ffa500; stroke: #ffa500"/>
     <use xlink:href="#m3544df2074" x="253.681552" y="114.484376" style="fill: #ffa500; stroke: #ffa500"/>
     <use xlink:href="#m3544df2074" x="324.09958" y="89.243329" style="fill: #ffa500; stroke: #ffa500"/>
     <use xlink:href="#m3544df2074" x="314.039862" y="150.190343" style="fill: #ffa500; stroke: #ffa500"/>
     <use xlink:href="#m3544df2074" x="256.425111" y="160.968996" style="fill: #ffa500; stroke: #ffa500"/>
     <use xlink:href="#m3544df2074" x="344.219016" y="87.561231" style="fill: #ffa500; stroke: #ffa500"/>
     <use xlink:href="#m3544df2074" x="253.681552" y="144.799645" style="fill: #ffa500; stroke: #ffa500"/>
     <use xlink:href="#m3544df2074" x="333.244778" y="77.916903" style="fill: #ffa500; stroke: #ffa500"/>
     <use xlink:href="#m3544df2074" x="143.93917" y="148.14156" style="fill: #ffa500; stroke: #ffa500"/>
     <use xlink:href="#m3544df2074" x="325.92862" y="57.938309" style="fill: #ffa500; stroke: #ffa500"/>
     <use xlink:href="#m3544df2074" x="264.65579" y="153.681221" style="fill: #ffa500; stroke: #ffa500"/>
     <use xlink:href="#m3544df2074" x="282.031667" y="66.466389" style="fill: #ffa500; stroke: #ffa500"/>
     <use xlink:href="#m3544df2074" x="367.082013" y="69.322682" style="fill: #ffa500; stroke: #ffa500"/>
     <use xlink:href="#m3544df2074" x="293.005905" y="125.294041" style="fill: #ffa500; stroke: #ffa500"/>
     <use xlink:href="#m3544df2074" x="271.971949" y="174.422567" style="fill: #ffa500; stroke: #ffa500"/>
     <use xlink:href="#m3544df2074" x="326.843139" y="74.483417" style="fill: #ffa500; stroke: #ffa500"/>
     <use xlink:href="#m3544df2074" x="322.27054" y="76.379284" style="fill: #ffa500; stroke: #ffa500"/>
     <use xlink:href="#m3544df2074" x="267.399349" y="149.503687" style="fill: #ffa500; stroke: #ffa500"/>
     <use xlink:href="#m3544df2074" x="228.074996" y="116.04757" style="fill: #ffa500; stroke: #ffa500"/>
     <use xlink:href="#m3544df2074" x="330.501219" y="80.259297" style="fill: #ffa500; stroke: #ffa500"/>
     <use xlink:href="#m3544df2074" x="290.262346" y="55.004938" style="fill: #ffa500; stroke: #ffa500"/>
     <use xlink:href="#m3544df2074" x="324.09958" y="102.634822" style="fill: #ffa500; stroke: #ffa500"/>
     <use xlink:href="#m3544df2074" x="326.843139" y="90.948314" style="fill: #ffa500; stroke: #ffa500"/>
     <use xlink:href="#m3544df2074" x="335.988338" y="106.948172" style="fill: #ffa500; stroke: #ffa500"/>
     <use xlink:href="#m3544df2074" x="322.27054" y="75.238325" style="fill: #ffa500; stroke: #ffa500"/>
     <use xlink:href="#m3544df2074" x="342.389977" y="92.676816" style="fill: #ffa500; stroke: #ffa500"/>
     <use xlink:href="#m3544df2074" x="338.731897" y="78.692846" style="fill: #ffa500; stroke: #ffa500"/>
    </g>
   </g>
   <g id="line2d_35">
    <defs>
     <path id="mc7354b60ba" d="M 2 0 
L -2 -0 
" style="stroke: #ffa500"/>
    </defs>
    <g clip-path="url(#p9cc3b19ed3)">
     <use xlink:href="#mc7354b60ba" x="80.837301" y="262.966" style="fill: #ffa500; stroke: #ffa500"/>
     <use xlink:href="#mc7354b60ba" x="335.988338" y="128.148707" style="fill: #ffa500; stroke: #ffa500"/>
     <use xlink:href="#mc7354b60ba" x="283.860707" y="79.865845" style="fill: #ffa500; stroke: #ffa500"/>
     <use xlink:href="#mc7354b60ba" x="227.160476" y="163.240619" style="fill: #ffa500; stroke: #ffa500"/>
     <use xlink:href="#mc7354b60ba" x="304.894663" y="82.64631" style="fill: #ffa500; stroke: #ffa500"/>
     <use xlink:href="#mc7354b60ba" x="326.843139" y="98.921531" style="fill: #ffa500; stroke: #ffa500"/>
     <use xlink:href="#mc7354b60ba" x="289.347826" y="105.49383" style="fill: #ffa500; stroke: #ffa500"/>
     <use xlink:href="#mc7354b60ba" x="191.494202" y="160.968996" style="fill: #ffa500; stroke: #ffa500"/>
     <use xlink:href="#mc7354b60ba" x="264.65579" y="174.422567" style="fill: #ffa500; stroke: #ffa500"/>
     <use xlink:href="#mc7354b60ba" x="314.954381" y="93.989021" style="fill: #ffa500; stroke: #ffa500"/>
     <use xlink:href="#mc7354b60ba" x="213.442678" y="184.871484" style="fill: #ffa500; stroke: #ffa500"/>
     <use xlink:href="#mc7354b60ba" x="250.937992" y="140.903546" style="fill: #ffa500; stroke: #ffa500"/>
     <use xlink:href="#mc7354b60ba" x="282.946187" y="127.572547" style="fill: #ffa500; stroke: #ffa500"/>
     <use xlink:href="#mc7354b60ba" x="260.083191" y="156.545675" style="fill: #ffa500; stroke: #ffa500"/>
     <use xlink:href="#mc7354b60ba" x="329.586699" y="113.967615" style="fill: #ffa500; stroke: #ffa500"/>
     <use xlink:href="#mc7354b60ba" x="318.612461" y="87.561231" style="fill: #ffa500; stroke: #ffa500"/>
     <use xlink:href="#mc7354b60ba" x="245.450873" y="120.857669" style="fill: #ffa500; stroke: #ffa500"/>
     <use xlink:href="#mc7354b60ba" x="315.868901" y="95.315111" style="fill: #ffa500; stroke: #ffa500"/>
     <use xlink:href="#mc7354b60ba" x="305.809183" y="153.681221" style="fill: #ffa500; stroke: #ffa500"/>
     <use xlink:href="#mc7354b60ba" x="248.194433" y="167.120632" style="fill: #ffa500; stroke: #ffa500"/>
     <use xlink:href="#mc7354b60ba" x="335.988338" y="90.519888" style="fill: #ffa500; stroke: #ffa500"/>
     <use xlink:href="#mc7354b60ba" x="245.450873" y="150.880782" style="fill: #ffa500; stroke: #ffa500"/>
     <use xlink:href="#mc7354b60ba" x="325.0141" y="89.243329" style="fill: #ffa500; stroke: #ffa500"/>
     <use xlink:href="#mc7354b60ba" x="134.793972" y="154.39122" style="fill: #ffa500; stroke: #ffa500"/>
     <use xlink:href="#mc7354b60ba" x="317.697941" y="64.366098" style="fill: #ffa500; stroke: #ffa500"/>
     <use xlink:href="#mc7354b60ba" x="256.425111" y="159.47714" style="fill: #ffa500; stroke: #ffa500"/>
     <use xlink:href="#mc7354b60ba" x="273.800988" y="71.508454" style="fill: #ffa500; stroke: #ffa500"/>
     <use xlink:href="#mc7354b60ba" x="358.851334" y="71.141501" style="fill: #ffa500; stroke: #ffa500"/>
     <use xlink:href="#mc7354b60ba" x="284.775226" y="131.662425" style="fill: #ffa500; stroke: #ffa500"/>
     <use xlink:href="#mc7354b60ba" x="263.74127" y="180.411426" style="fill: #ffa500; stroke: #ffa500"/>
     <use xlink:href="#mc7354b60ba" x="318.612461" y="75.238325" style="fill: #ffa500; stroke: #ffa500"/>
     <use xlink:href="#mc7354b60ba" x="314.039862" y="80.653988" style="fill: #ffa500; stroke: #ffa500"/>
     <use xlink:href="#mc7354b60ba" x="259.168671" y="155.8234" style="fill: #ffa500; stroke: #ffa500"/>
     <use xlink:href="#mc7354b60ba" x="219.844317" y="121.952125" style="fill: #ffa500; stroke: #ffa500"/>
     <use xlink:href="#mc7354b60ba" x="322.27054" y="81.049927" style="fill: #ffa500; stroke: #ffa500"/>
     <use xlink:href="#mc7354b60ba" x="282.031667" y="55.975119" style="fill: #ffa500; stroke: #ffa500"/>
     <use xlink:href="#mc7354b60ba" x="314.954381" y="108.913929" style="fill: #ffa500; stroke: #ffa500"/>
     <use xlink:href="#mc7354b60ba" x="318.612461" y="93.112692" style="fill: #ffa500; stroke: #ffa500"/>
     <use xlink:href="#mc7354b60ba" x="327.757659" y="120.314004" style="fill: #ffa500; stroke: #ffa500"/>
     <use xlink:href="#mc7354b60ba" x="314.039862" y="77.145735" style="fill: #ffa500; stroke: #ffa500"/>
     <use xlink:href="#mc7354b60ba" x="333.244778" y="98.921531" style="fill: #ffa500; stroke: #ffa500"/>
     <use xlink:href="#mc7354b60ba" x="330.501219" y="85.079677" style="fill: #ffa500; stroke: #ffa500"/>
    </g>
   </g>
   <g id="line2d_36">
    <g clip-path="url(#p9cc3b19ed3)">
     <use xlink:href="#mc7354b60ba" x="80.837301" y="253.196295" style="fill: #ffa500; stroke: #ffa500"/>
     <use xlink:href="#mc7354b60ba" x="335.988338" y="118.162631" style="fill: #ffa500; stroke: #ffa500"/>
     <use xlink:href="#mc7354b60ba" x="283.860707" y="72.987107" style="fill: #ffa500; stroke: #ffa500"/>
     <use xlink:href="#mc7354b60ba" x="227.160476" y="158.73782" style="fill: #ffa500; stroke: #ffa500"/>
     <use xlink:href="#mc7354b60ba" x="304.894663" y="80.259297" style="fill: #ffa500; stroke: #ffa500"/>
     <use xlink:href="#mc7354b60ba" x="326.843139" y="97.105348" style="fill: #ffa500; stroke: #ffa500"/>
     <use xlink:href="#mc7354b60ba" x="289.347826" y="96.207033" style="fill: #ffa500; stroke: #ffa500"/>
     <use xlink:href="#mc7354b60ba" x="191.494202" y="149.503687" style="fill: #ffa500; stroke: #ffa500"/>
     <use xlink:href="#mc7354b60ba" x="264.65579" y="150.190343" style="fill: #ffa500; stroke: #ffa500"/>
     <use xlink:href="#mc7354b60ba" x="314.954381" y="83.857087" style="fill: #ffa500; stroke: #ffa500"/>
     <use xlink:href="#mc7354b60ba" x="213.442678" y="172.762749" style="fill: #ffa500; stroke: #ffa500"/>
     <use xlink:href="#mc7354b60ba" x="250.937992" y="128.727527" style="fill: #ffa500; stroke: #ffa500"/>
     <use xlink:href="#mc7354b60ba" x="282.946187" y="115.524335" style="fill: #ffa500; stroke: #ffa500"/>
     <use xlink:href="#mc7354b60ba" x="260.083191" y="144.141825" style="fill: #ffa500; stroke: #ffa500"/>
     <use xlink:href="#mc7354b60ba" x="329.586699" y="88.820683" style="fill: #ffa500; stroke: #ffa500"/>
     <use xlink:href="#mc7354b60ba" x="318.612461" y="75.617492" style="fill: #ffa500; stroke: #ffa500"/>
     <use xlink:href="#mc7354b60ba" x="245.450873" y="108.419591" style="fill: #ffa500; stroke: #ffa500"/>
     <use xlink:href="#mc7354b60ba" x="315.868901" y="83.452194" style="fill: #ffa500; stroke: #ffa500"/>
     <use xlink:href="#mc7354b60ba" x="305.809183" y="146.794081" style="fill: #ffa500; stroke: #ffa500"/>
     <use xlink:href="#mc7354b60ba" x="248.194433" y="155.105264" style="fill: #ffa500; stroke: #ffa500"/>
     <use xlink:href="#mc7354b60ba" x="335.988338" y="84.67082" style="fill: #ffa500; stroke: #ffa500"/>
     <use xlink:href="#mc7354b60ba" x="245.450873" y="138.999999" style="fill: #ffa500; stroke: #ffa500"/>
     <use xlink:href="#mc7354b60ba" x="325.0141" y="67.529884" style="fill: #ffa500; stroke: #ffa500"/>
     <use xlink:href="#mc7354b60ba" x="134.793972" y="142.188833" style="fill: #ffa500; stroke: #ffa500"/>
     <use xlink:href="#mc7354b60ba" x="317.697941" y="51.824198" style="fill: #ffa500; stroke: #ffa500"/>
     <use xlink:href="#mc7354b60ba" x="256.425111" y="148.14156" style="fill: #ffa500; stroke: #ffa500"/>
     <use xlink:href="#mc7354b60ba" x="273.800988" y="61.619371" style="fill: #ffa500; stroke: #ffa500"/>
     <use xlink:href="#mc7354b60ba" x="358.851334" y="67.529884" style="fill: #ffa500; stroke: #ffa500"/>
     <use xlink:href="#mc7354b60ba" x="284.775226" y="119.233701" style="fill: #ffa500; stroke: #ffa500"/>
     <use xlink:href="#mc7354b60ba" x="263.74127" y="168.706912" style="fill: #ffa500; stroke: #ffa500"/>
     <use xlink:href="#mc7354b60ba" x="318.612461" y="73.733029" style="fill: #ffa500; stroke: #ffa500"/>
     <use xlink:href="#mc7354b60ba" x="314.039862" y="72.2456" style="fill: #ffa500; stroke: #ffa500"/>
     <use xlink:href="#mc7354b60ba" x="259.168671" y="143.48744" style="fill: #ffa500; stroke: #ffa500"/>
     <use xlink:href="#mc7354b60ba" x="219.844317" y="110.408751" style="fill: #ffa500; stroke: #ffa500"/>
     <use xlink:href="#mc7354b60ba" x="322.27054" y="79.473624" style="fill: #ffa500; stroke: #ffa500"/>
     <use xlink:href="#mc7354b60ba" x="282.031667" y="54.04221" style="fill: #ffa500; stroke: #ffa500"/>
     <use xlink:href="#mc7354b60ba" x="314.954381" y="96.655385" style="fill: #ffa500; stroke: #ffa500"/>
     <use xlink:href="#mc7354b60ba" x="318.612461" y="88.820683" style="fill: #ffa500; stroke: #ffa500"/>
     <use xlink:href="#mc7354b60ba" x="327.757659" y="94.87152" style="fill: #ffa500; stroke: #ffa500"/>
     <use xlink:href="#mc7354b60ba" x="314.039862" y="73.359513" style="fill: #ffa500; stroke: #ffa500"/>
     <use xlink:href="#mc7354b60ba" x="333.244778" y="86.728574" style="fill: #ffa500; stroke: #ffa500"/>
     <use xlink:href="#mc7354b60ba" x="330.501219" y="72.615805" style="fill: #ffa500; stroke: #ffa500"/>
    </g>
   </g>
   <g id="line2d_37">
    <path d="M 76.264702 231.752292 
L 97.122172 220.259583 
L 134.02385 198.52038 
L 163.705634 180.581852 
L 177.343211 172.811819 
L 185.365315 168.026365 
L 199.805102 160.335543 
L 207.024995 156.666742 
L 213.442678 153.239855 
L 245.531094 134.734331 
L 248.739936 132.975086 
L 252.750988 130.736304 
L 261.575302 126.204204 
L 271.201827 120.437267 
L 276.817299 116.918468 
L 281.630562 113.667048 
L 284.839403 111.82424 
L 301.685822 102.605764 
L 312.916767 95.915717 
L 317.730029 93.008086 
L 321.741081 90.639876 
L 345.807393 76.752384 
L 352.225076 73.442669 
L 357.038339 70.475856 
L 361.851601 67.613812 
L 396.346648 47.448765 
L 396.346648 47.448765 
" clip-path="url(#p9cc3b19ed3)" style="fill: none; stroke: #000000; stroke-width: 1.5"/>
   </g>
   <g id="line2d_38">
    <path d="M 76.264702 259.034826 
L 99.528803 246.026219 
L 109.957538 239.91008 
L 148.463637 216.372631 
L 150.870268 214.972418 
L 165.310055 206.279689 
L 177.343211 199.409241 
L 183.760894 195.81987 
L 197.398471 187.81044 
L 209.431626 180.76623 
L 234.300149 168.064454 
L 249.542146 159.04813 
L 259.168671 154.004141 
L 264.784144 150.59667 
L 271.201827 146.384426 
L 294.465928 132.854548 
L 312.916767 120.897485 
L 319.33445 116.799774 
L 336.180868 106.881708 
L 355.433918 97.058555 
L 359.44497 94.844317 
L 396.346648 75.286454 
L 396.346648 75.286454 
" clip-path="url(#p9cc3b19ed3)" style="fill: none; stroke-dasharray: 5.55,2.4; stroke-dashoffset: 0; stroke: #ff0000; stroke-width: 1.5"/>
   </g>
   <g id="line2d_39">
    <path d="M 76.264702 205.9558 
L 89.902278 197.980982 
L 121.990694 179.397364 
L 134.02385 172.279059 
L 143.650374 167.007687 
L 150.870268 162.998864 
L 195.79405 136.652241 
L 200.607312 133.734579 
L 207.024995 130.232219 
L 213.442678 126.672012 
L 231.091307 116.402324 
L 243.124463 109.051 
L 255.959829 101.6892 
L 264.784144 96.958353 
L 267.992985 94.883534 
L 278.42172 89.297302 
L 285.641614 85.627722 
L 292.059297 81.990634 
L 302.488032 75.537807 
L 314.521188 68.837956 
L 321.741081 64.561642 
L 336.983079 55.947715 
L 344.202972 52.19243 
L 372.280336 35.309991 
L 377.895809 31.853753 
L 396.346648 21.046 
L 396.346648 21.046 
" clip-path="url(#p9cc3b19ed3)" style="fill: none; stroke-dasharray: 5.55,2.4; stroke-dashoffset: 0; stroke: #ff0000; stroke-width: 1.5"/>
   </g>
   <g id="line2d_40">
    <defs>
     <path id="m86c8a09970" d="M 0 3 
C 0.795609 3 1.55874 2.683901 2.12132 2.12132 
C 2.683901 1.55874 3 0.795609 3 0 
C 3 -0.795609 2.683901 -1.55874 2.12132 -2.12132 
C 1.55874 -2.683901 0.795609 -3 0 -3 
C -0.795609 -3 -1.55874 -2.683901 -2.12132 -2.12132 
C -2.683901 -1.55874 -3 -0.795609 -3 0 
C -3 0.795609 -2.683901 1.55874 -2.12132 2.12132 
C -1.55874 2.683901 -0.795609 3 0 3 
z
" style="stroke: #ffa500"/>
    </defs>
    <g clip-path="url(#p9cc3b19ed3)">
     <use xlink:href="#m86c8a09970" x="80.837301" y="257.985964" style="fill: #ffa500; stroke: #ffa500"/>
     <use xlink:href="#m86c8a09970" x="335.988338" y="123.056224" style="fill: #ffa500; stroke: #ffa500"/>
     <use xlink:href="#m86c8a09970" x="283.860707" y="76.379284" style="fill: #ffa500; stroke: #ffa500"/>
     <use xlink:href="#m86c8a09970" x="227.160476" y="160.968996" style="fill: #ffa500; stroke: #ffa500"/>
     <use xlink:href="#m86c8a09970" x="304.894663" y="81.44712" style="fill: #ffa500; stroke: #ffa500"/>
     <use xlink:href="#m86c8a09970" x="326.843139" y="98.010149" style="fill: #ffa500; stroke: #ffa500"/>
     <use xlink:href="#m86c8a09970" x="289.347826" y="100.764423" style="fill: #ffa500; stroke: #ffa500"/>
     <use xlink:href="#m86c8a09970" x="191.494202" y="155.105264" style="fill: #ffa500; stroke: #ffa500"/>
     <use xlink:href="#m86c8a09970" x="264.65579" y="161.721638" style="fill: #ffa500; stroke: #ffa500"/>
     <use xlink:href="#m86c8a09970" x="314.954381" y="88.820683" style="fill: #ffa500; stroke: #ffa500"/>
     <use xlink:href="#m86c8a09970" x="213.442678" y="178.67092" style="fill: #ffa500; stroke: #ffa500"/>
     <use xlink:href="#m86c8a09970" x="250.937992" y="134.667711" style="fill: #ffa500; stroke: #ffa500"/>
     <use xlink:href="#m86c8a09970" x="282.946187" y="121.403702" style="fill: #ffa500; stroke: #ffa500"/>
     <use xlink:href="#m86c8a09970" x="260.083191" y="150.190343" style="fill: #ffa500; stroke: #ffa500"/>
     <use xlink:href="#m86c8a09970" x="329.586699" y="100.764423" style="fill: #ffa500; stroke: #ffa500"/>
     <use xlink:href="#m86c8a09970" x="318.612461" y="81.44712" style="fill: #ffa500; stroke: #ffa500"/>
     <use xlink:href="#m86c8a09970" x="245.450873" y="114.484376" style="fill: #ffa500; stroke: #ffa500"/>
     <use xlink:href="#m86c8a09970" x="315.868901" y="89.243329" style="fill: #ffa500; stroke: #ffa500"/>
     <use xlink:href="#m86c8a09970" x="305.809183" y="150.190343" style="fill: #ffa500; stroke: #ffa500"/>
     <use xlink:href="#m86c8a09970" x="248.194433" y="160.968996" style="fill: #ffa500; stroke: #ffa500"/>
     <use xlink:href="#m86c8a09970" x="335.988338" y="87.561231" style="fill: #ffa500; stroke: #ffa500"/>
     <use xlink:href="#m86c8a09970" x="245.450873" y="144.799645" style="fill: #ffa500; stroke: #ffa500"/>
     <use xlink:href="#m86c8a09970" x="325.0141" y="77.916903" style="fill: #ffa500; stroke: #ffa500"/>
     <use xlink:href="#m86c8a09970" x="134.793972" y="148.14156" style="fill: #ffa500; stroke: #ffa500"/>
     <use xlink:href="#m86c8a09970" x="317.697941" y="57.938309" style="fill: #ffa500; stroke: #ffa500"/>
     <use xlink:href="#m86c8a09970" x="256.425111" y="153.681221" style="fill: #ffa500; stroke: #ffa500"/>
     <use xlink:href="#m86c8a09970" x="273.800988" y="66.466389" style="fill: #ffa500; stroke: #ffa500"/>
     <use xlink:href="#m86c8a09970" x="358.851334" y="69.322682" style="fill: #ffa500; stroke: #ffa500"/>
     <use xlink:href="#m86c8a09970" x="284.775226" y="125.294041" style="fill: #ffa500; stroke: #ffa500"/>
     <use xlink:href="#m86c8a09970" x="263.74127" y="174.422567" style="fill: #ffa500; stroke: #ffa500"/>
     <use xlink:href="#m86c8a09970" x="318.612461" y="74.483417" style="fill: #ffa500; stroke: #ffa500"/>
     <use xlink:href="#m86c8a09970" x="314.039862" y="76.379284" style="fill: #ffa500; stroke: #ffa500"/>
     <use xlink:href="#m86c8a09970" x="259.168671" y="149.503687" style="fill: #ffa500; stroke: #ffa500"/>
     <use xlink:href="#m86c8a09970" x="219.844317" y="116.04757" style="fill: #ffa500; stroke: #ffa500"/>
     <use xlink:href="#m86c8a09970" x="322.27054" y="80.259297" style="fill: #ffa500; stroke: #ffa500"/>
     <use xlink:href="#m86c8a09970" x="282.031667" y="55.004938" style="fill: #ffa500; stroke: #ffa500"/>
     <use xlink:href="#m86c8a09970" x="314.954381" y="102.634822" style="fill: #ffa500; stroke: #ffa500"/>
     <use xlink:href="#m86c8a09970" x="318.612461" y="90.948314" style="fill: #ffa500; stroke: #ffa500"/>
     <use xlink:href="#m86c8a09970" x="327.757659" y="106.948172" style="fill: #ffa500; stroke: #ffa500"/>
     <use xlink:href="#m86c8a09970" x="314.039862" y="75.238325" style="fill: #ffa500; stroke: #ffa500"/>
     <use xlink:href="#m86c8a09970" x="333.244778" y="92.676816" style="fill: #ffa500; stroke: #ffa500"/>
     <use xlink:href="#m86c8a09970" x="330.501219" y="78.692846" style="fill: #ffa500; stroke: #ffa500"/>
    </g>
   </g>
   <g id="patch_3">
    <path d="M 55.459375 275.062 
L 55.459375 8.95 
" style="fill: none; stroke: #000000; stroke-width: 0.8; stroke-linejoin: miter; stroke-linecap: square"/>
   </g>
   <g id="patch_4">
    <path d="M 412.579375 275.062 
L 412.579375 8.95 
" style="fill: none; stroke: #000000; stroke-width: 0.8; stroke-linejoin: miter; stroke-linecap: square"/>
   </g>
   <g id="patch_5">
    <path d="M 55.459375 275.062 
L 412.579375 275.062 
" style="fill: none; stroke: #000000; stroke-width: 0.8; stroke-linejoin: miter; stroke-linecap: square"/>
   </g>
   <g id="patch_6">
    <path d="M 55.459375 8.95 
L 412.579375 8.95 
" style="fill: none; stroke: #000000; stroke-width: 0.8; stroke-linejoin: miter; stroke-linecap: square"/>
   </g>
  </g>
 </g>
 <defs>
  <clipPath id="p9cc3b19ed3">
   <rect x="55.459375" y="8.95" width="357.12" height="266.112"/>
  </clipPath>
 </defs>
</svg>
