<?xml version="1.0" encoding="utf-8" standalone="no"?>
<!DOCTYPE svg PUBLIC "-//W3C//DTD SVG 1.1//EN"
  "http://www.w3.org/Graphics/SVG/1.1/DTD/svg11.dtd">
<svg height="310.86825pt" version="1.1" viewBox="0 0 406.940312 310.86825" width="406.940312pt" xmlns="http://www.w3.org/2000/svg" xmlns:xlink="http://www.w3.org/1999/xlink">
 <metadata>
  <rdf:RDF xmlns:cc="http://creativecommons.org/ns#" xmlns:dc="http://purl.org/dc/elements/1.1/" xmlns:rdf="http://www.w3.org/1999/02/22-rdf-syntax-ns#">
   <cc:Work>
    <dc:type rdf:resource="http://purl.org/dc/dcmitype/StillImage"/>
    <dc:date>2021-06-19T23:16:04.411126</dc:date>
    <dc:format>image/svg+xml</dc:format>
    <dc:creator>
     <cc:Agent>
      <dc:title>Matplotlib v3.4.2, https://matplotlib.org/</dc:title>
     </cc:Agent>
    </dc:creator>
   </cc:Work>
  </rdf:RDF>
 </metadata>
 <defs>
  <style type="text/css">*{stroke-linecap:butt;stroke-linejoin:round;}</style>
 </defs>
 <g id="figure_1">
  <g id="patch_1">
   <path d="M 0 310.86825 
L 406.940312 310.86825 
L 406.940312 0 
L 0 0 
z
" style="fill:#ffffff;"/>
  </g>
  <g id="axes_1">
   <g id="patch_2">
    <path d="M 42.620313 273.312 
L 399.740313 273.312 
L 399.740313 7.2 
L 42.620313 7.2 
z
" style="fill:#ffffff;"/>
   </g>
   <g id="matplotlib.axis_1">
    <g id="xtick_1">
     <g id="line2d_1">
      <defs>
       <path d="M 0 0 
L 0 3.5 
" id="m690a181772" style="stroke:#000000;stroke-width:0.8;"/>
      </defs>
      <g>
       <use style="stroke:#000000;stroke-width:0.8;" x="51.813462" xlink:href="#m690a181772" y="273.312"/>
      </g>
     </g>
     <g id="text_1">
      <!-- 0 -->
      <g transform="translate(48.632212 287.910437)scale(0.1 -0.1)">
       <defs>
        <path d="M 2034 4250 
Q 1547 4250 1301 3770 
Q 1056 3291 1056 2328 
Q 1056 1369 1301 889 
Q 1547 409 2034 409 
Q 2525 409 2770 889 
Q 3016 1369 3016 2328 
Q 3016 3291 2770 3770 
Q 2525 4250 2034 4250 
z
M 2034 4750 
Q 2819 4750 3233 4129 
Q 3647 3509 3647 2328 
Q 3647 1150 3233 529 
Q 2819 -91 2034 -91 
Q 1250 -91 836 529 
Q 422 1150 422 2328 
Q 422 3509 836 4129 
Q 1250 4750 2034 4750 
z
" id="DejaVuSans-30" transform="scale(0.015625)"/>
       </defs>
       <use xlink:href="#DejaVuSans-30"/>
      </g>
     </g>
    </g>
    <g id="xtick_2">
     <g id="line2d_2">
      <g>
       <use style="stroke:#000000;stroke-width:0.8;" x="120.210359" xlink:href="#m690a181772" y="273.312"/>
      </g>
     </g>
     <g id="text_2">
      <!-- 1 -->
      <g transform="translate(117.029109 287.910437)scale(0.1 -0.1)">
       <defs>
        <path d="M 794 531 
L 1825 531 
L 1825 4091 
L 703 3866 
L 703 4441 
L 1819 4666 
L 2450 4666 
L 2450 531 
L 3481 531 
L 3481 0 
L 794 0 
L 794 531 
z
" id="DejaVuSans-31" transform="scale(0.015625)"/>
       </defs>
       <use xlink:href="#DejaVuSans-31"/>
      </g>
     </g>
    </g>
    <g id="xtick_3">
     <g id="line2d_3">
      <g>
       <use style="stroke:#000000;stroke-width:0.8;" x="188.607257" xlink:href="#m690a181772" y="273.312"/>
      </g>
     </g>
     <g id="text_3">
      <!-- 2 -->
      <g transform="translate(185.426007 287.910437)scale(0.1 -0.1)">
       <defs>
        <path d="M 1228 531 
L 3431 531 
L 3431 0 
L 469 0 
L 469 531 
Q 828 903 1448 1529 
Q 2069 2156 2228 2338 
Q 2531 2678 2651 2914 
Q 2772 3150 2772 3378 
Q 2772 3750 2511 3984 
Q 2250 4219 1831 4219 
Q 1534 4219 1204 4116 
Q 875 4013 500 3803 
L 500 4441 
Q 881 4594 1212 4672 
Q 1544 4750 1819 4750 
Q 2544 4750 2975 4387 
Q 3406 4025 3406 3419 
Q 3406 3131 3298 2873 
Q 3191 2616 2906 2266 
Q 2828 2175 2409 1742 
Q 1991 1309 1228 531 
z
" id="DejaVuSans-32" transform="scale(0.015625)"/>
       </defs>
       <use xlink:href="#DejaVuSans-32"/>
      </g>
     </g>
    </g>
    <g id="xtick_4">
     <g id="line2d_4">
      <g>
       <use style="stroke:#000000;stroke-width:0.8;" x="257.004154" xlink:href="#m690a181772" y="273.312"/>
      </g>
     </g>
     <g id="text_4">
      <!-- 3 -->
      <g transform="translate(253.822904 287.910437)scale(0.1 -0.1)">
       <defs>
        <path d="M 2597 2516 
Q 3050 2419 3304 2112 
Q 3559 1806 3559 1356 
Q 3559 666 3084 287 
Q 2609 -91 1734 -91 
Q 1441 -91 1130 -33 
Q 819 25 488 141 
L 488 750 
Q 750 597 1062 519 
Q 1375 441 1716 441 
Q 2309 441 2620 675 
Q 2931 909 2931 1356 
Q 2931 1769 2642 2001 
Q 2353 2234 1838 2234 
L 1294 2234 
L 1294 2753 
L 1863 2753 
Q 2328 2753 2575 2939 
Q 2822 3125 2822 3475 
Q 2822 3834 2567 4026 
Q 2313 4219 1838 4219 
Q 1578 4219 1281 4162 
Q 984 4106 628 3988 
L 628 4550 
Q 988 4650 1302 4700 
Q 1616 4750 1894 4750 
Q 2613 4750 3031 4423 
Q 3450 4097 3450 3541 
Q 3450 3153 3228 2886 
Q 3006 2619 2597 2516 
z
" id="DejaVuSans-33" transform="scale(0.015625)"/>
       </defs>
       <use xlink:href="#DejaVuSans-33"/>
      </g>
     </g>
    </g>
    <g id="xtick_5">
     <g id="line2d_5">
      <g>
       <use style="stroke:#000000;stroke-width:0.8;" x="325.401052" xlink:href="#m690a181772" y="273.312"/>
      </g>
     </g>
     <g id="text_5">
      <!-- 4 -->
      <g transform="translate(322.219802 287.910437)scale(0.1 -0.1)">
       <defs>
        <path d="M 2419 4116 
L 825 1625 
L 2419 1625 
L 2419 4116 
z
M 2253 4666 
L 3047 4666 
L 3047 1625 
L 3713 1625 
L 3713 1100 
L 3047 1100 
L 3047 0 
L 2419 0 
L 2419 1100 
L 313 1100 
L 313 1709 
L 2253 4666 
z
" id="DejaVuSans-34" transform="scale(0.015625)"/>
       </defs>
       <use xlink:href="#DejaVuSans-34"/>
      </g>
     </g>
    </g>
    <g id="xtick_6">
     <g id="line2d_6">
      <g>
       <use style="stroke:#000000;stroke-width:0.8;" x="393.797949" xlink:href="#m690a181772" y="273.312"/>
      </g>
     </g>
     <g id="text_6">
      <!-- 5 -->
      <g transform="translate(390.616699 287.910437)scale(0.1 -0.1)">
       <defs>
        <path d="M 691 4666 
L 3169 4666 
L 3169 4134 
L 1269 4134 
L 1269 2991 
Q 1406 3038 1543 3061 
Q 1681 3084 1819 3084 
Q 2600 3084 3056 2656 
Q 3513 2228 3513 1497 
Q 3513 744 3044 326 
Q 2575 -91 1722 -91 
Q 1428 -91 1123 -41 
Q 819 9 494 109 
L 494 744 
Q 775 591 1075 516 
Q 1375 441 1709 441 
Q 2250 441 2565 725 
Q 2881 1009 2881 1497 
Q 2881 1984 2565 2268 
Q 2250 2553 1709 2553 
Q 1456 2553 1204 2497 
Q 953 2441 691 2322 
L 691 4666 
z
" id="DejaVuSans-35" transform="scale(0.015625)"/>
       </defs>
       <use xlink:href="#DejaVuSans-35"/>
      </g>
     </g>
    </g>
    <g id="text_7">
     <!-- x -->
     <g transform="translate(218.220938 301.588562)scale(0.1 -0.1)">
      <defs>
       <path d="M 3513 3500 
L 2247 1797 
L 3578 0 
L 2900 0 
L 1881 1375 
L 863 0 
L 184 0 
L 1544 1831 
L 300 3500 
L 978 3500 
L 1906 2253 
L 2834 3500 
L 3513 3500 
z
" id="DejaVuSans-78" transform="scale(0.015625)"/>
      </defs>
      <use xlink:href="#DejaVuSans-78"/>
     </g>
    </g>
   </g>
   <g id="matplotlib.axis_2">
    <g id="ytick_1">
     <g id="line2d_7">
      <defs>
       <path d="M 0 0 
L -3.5 0 
" id="m45c2c8f476" style="stroke:#000000;stroke-width:0.8;"/>
      </defs>
      <g>
       <use style="stroke:#000000;stroke-width:0.8;" x="42.620313" xlink:href="#m45c2c8f476" y="255.150565"/>
      </g>
     </g>
     <g id="text_8">
      <!-- −3 -->
      <g transform="translate(20.878125 258.949784)scale(0.1 -0.1)">
       <defs>
        <path d="M 678 2272 
L 4684 2272 
L 4684 1741 
L 678 1741 
L 678 2272 
z
" id="DejaVuSans-2212" transform="scale(0.015625)"/>
       </defs>
       <use xlink:href="#DejaVuSans-2212"/>
       <use x="83.789062" xlink:href="#DejaVuSans-33"/>
      </g>
     </g>
    </g>
    <g id="ytick_2">
     <g id="line2d_8">
      <g>
       <use style="stroke:#000000;stroke-width:0.8;" x="42.620313" xlink:href="#m45c2c8f476" y="223.35279"/>
      </g>
     </g>
     <g id="text_9">
      <!-- −2 -->
      <g transform="translate(20.878125 227.152008)scale(0.1 -0.1)">
       <use xlink:href="#DejaVuSans-2212"/>
       <use x="83.789062" xlink:href="#DejaVuSans-32"/>
      </g>
     </g>
    </g>
    <g id="ytick_3">
     <g id="line2d_9">
      <g>
       <use style="stroke:#000000;stroke-width:0.8;" x="42.620313" xlink:href="#m45c2c8f476" y="191.555014"/>
      </g>
     </g>
     <g id="text_10">
      <!-- −1 -->
      <g transform="translate(20.878125 195.354233)scale(0.1 -0.1)">
       <use xlink:href="#DejaVuSans-2212"/>
       <use x="83.789062" xlink:href="#DejaVuSans-31"/>
      </g>
     </g>
    </g>
    <g id="ytick_4">
     <g id="line2d_10">
      <g>
       <use style="stroke:#000000;stroke-width:0.8;" x="42.620313" xlink:href="#m45c2c8f476" y="159.757239"/>
      </g>
     </g>
     <g id="text_11">
      <!-- 0 -->
      <g transform="translate(29.257813 163.556458)scale(0.1 -0.1)">
       <use xlink:href="#DejaVuSans-30"/>
      </g>
     </g>
    </g>
    <g id="ytick_5">
     <g id="line2d_11">
      <g>
       <use style="stroke:#000000;stroke-width:0.8;" x="42.620313" xlink:href="#m45c2c8f476" y="127.959464"/>
      </g>
     </g>
     <g id="text_12">
      <!-- 1 -->
      <g transform="translate(29.257813 131.758682)scale(0.1 -0.1)">
       <use xlink:href="#DejaVuSans-31"/>
      </g>
     </g>
    </g>
    <g id="ytick_6">
     <g id="line2d_12">
      <g>
       <use style="stroke:#000000;stroke-width:0.8;" x="42.620313" xlink:href="#m45c2c8f476" y="96.161688"/>
      </g>
     </g>
     <g id="text_13">
      <!-- 2 -->
      <g transform="translate(29.257813 99.960907)scale(0.1 -0.1)">
       <use xlink:href="#DejaVuSans-32"/>
      </g>
     </g>
    </g>
    <g id="ytick_7">
     <g id="line2d_13">
      <g>
       <use style="stroke:#000000;stroke-width:0.8;" x="42.620313" xlink:href="#m45c2c8f476" y="64.363913"/>
      </g>
     </g>
     <g id="text_14">
      <!-- 3 -->
      <g transform="translate(29.257813 68.163132)scale(0.1 -0.1)">
       <use xlink:href="#DejaVuSans-33"/>
      </g>
     </g>
    </g>
    <g id="ytick_8">
     <g id="line2d_14">
      <g>
       <use style="stroke:#000000;stroke-width:0.8;" x="42.620313" xlink:href="#m45c2c8f476" y="32.566138"/>
      </g>
     </g>
     <g id="text_15">
      <!-- 4 -->
      <g transform="translate(29.257813 36.365356)scale(0.1 -0.1)">
       <use xlink:href="#DejaVuSans-34"/>
      </g>
     </g>
    </g>
    <g id="text_16">
     <!-- y -->
     <g transform="translate(14.798438 143.215375)rotate(-90)scale(0.1 -0.1)">
      <defs>
       <path d="M 2059 -325 
Q 1816 -950 1584 -1140 
Q 1353 -1331 966 -1331 
L 506 -1331 
L 506 -850 
L 844 -850 
Q 1081 -850 1212 -737 
Q 1344 -625 1503 -206 
L 1606 56 
L 191 3500 
L 800 3500 
L 1894 763 
L 2988 3500 
L 3597 3500 
L 2059 -325 
z
" id="DejaVuSans-79" transform="scale(0.015625)"/>
      </defs>
      <use xlink:href="#DejaVuSans-79"/>
     </g>
    </g>
   </g>
   <g id="LineCollection_1">
    <path clip-path="url(#pc3b14fff47)" d="M 179.900372 156.413937 
L 179.900372 92.818386 
" style="fill:none;stroke:#ffa500;stroke-width:1.5;"/>
    <path clip-path="url(#pc3b14fff47)" d="M 376.943006 168.802094 
L 376.943006 105.206544 
" style="fill:none;stroke:#ffa500;stroke-width:1.5;"/>
    <path clip-path="url(#pc3b14fff47)" d="M 302.144035 135.323843 
L 302.144035 71.728292 
" style="fill:none;stroke:#ffa500;stroke-width:1.5;"/>
    <path clip-path="url(#pc3b14fff47)" d="M 256.545377 169.733688 
L 256.545377 106.138138 
" style="fill:none;stroke:#ffa500;stroke-width:1.5;"/>
    <path clip-path="url(#pc3b14fff47)" d="M 105.169417 178.209774 
L 105.169417 114.614223 
" style="fill:none;stroke:#ffa500;stroke-width:1.5;"/>
    <path clip-path="url(#pc3b14fff47)" d="M 105.161168 154.085054 
L 105.161168 90.489503 
" style="fill:none;stroke:#ffa500;stroke-width:1.5;"/>
    <path clip-path="url(#pc3b14fff47)" d="M 71.677156 158.051278 
L 71.677156 94.455727 
" style="fill:none;stroke:#ffa500;stroke-width:1.5;"/>
    <path clip-path="url(#pc3b14fff47)" d="M 348.032267 116.217165 
L 348.032267 52.621614 
" style="fill:none;stroke:#ffa500;stroke-width:1.5;"/>
    <path clip-path="url(#pc3b14fff47)" d="M 257.385471 148.496795 
L 257.385471 84.901244 
" style="fill:none;stroke:#ffa500;stroke-width:1.5;"/>
    <path clip-path="url(#pc3b14fff47)" d="M 293.963299 189.914402 
L 293.963299 126.318851 
" style="fill:none;stroke:#ffa500;stroke-width:1.5;"/>
    <path clip-path="url(#pc3b14fff47)" d="M 58.85304 143.330848 
L 58.85304 79.735298 
" style="fill:none;stroke:#ffa500;stroke-width:1.5;"/>
    <path clip-path="url(#pc3b14fff47)" d="M 383.507585 191.131092 
L 383.507585 127.535541 
" style="fill:none;stroke:#ffa500;stroke-width:1.5;"/>
    <path clip-path="url(#pc3b14fff47)" d="M 336.495931 162.682882 
L 336.495931 99.087331 
" style="fill:none;stroke:#ffa500;stroke-width:1.5;"/>
    <path clip-path="url(#pc3b14fff47)" d="M 124.430144 117.57379 
L 124.430144 53.978239 
" style="fill:none;stroke:#ffa500;stroke-width:1.5;"/>
    <path clip-path="url(#pc3b14fff47)" d="M 113.99478 99.930382 
L 113.99478 36.334831 
" style="fill:none;stroke:#ffa500;stroke-width:1.5;"/>
    <path clip-path="url(#pc3b14fff47)" d="M 114.534959 103.259785 
L 114.534959 39.664234 
" style="fill:none;stroke:#ffa500;stroke-width:1.5;"/>
    <path clip-path="url(#pc3b14fff47)" d="M 155.859589 187.713416 
L 155.859589 124.117865 
" style="fill:none;stroke:#ffa500;stroke-width:1.5;"/>
    <path clip-path="url(#pc3b14fff47)" d="M 231.272021 189.877034 
L 231.272021 126.281483 
" style="fill:none;stroke:#ffa500;stroke-width:1.5;"/>
    <path clip-path="url(#pc3b14fff47)" d="M 199.531958 177.331801 
L 199.531958 113.73625 
" style="fill:none;stroke:#ffa500;stroke-width:1.5;"/>
    <path clip-path="url(#pc3b14fff47)" d="M 151.40931 126.112256 
L 151.40931 62.516705 
" style="fill:none;stroke:#ffa500;stroke-width:1.5;"/>
    <path clip-path="url(#pc3b14fff47)" d="M 261.05766 171.45087 
L 261.05766 107.855319 
" style="fill:none;stroke:#ffa500;stroke-width:1.5;"/>
    <path clip-path="url(#pc3b14fff47)" d="M 99.518198 137.215811 
L 99.518198 73.62026 
" style="fill:none;stroke:#ffa500;stroke-width:1.5;"/>
    <path clip-path="url(#pc3b14fff47)" d="M 151.7224 192.584738 
L 151.7224 128.989187 
" style="fill:none;stroke:#ffa500;stroke-width:1.5;"/>
    <path clip-path="url(#pc3b14fff47)" d="M 177.103529 216.11917 
L 177.103529 152.523619 
" style="fill:none;stroke:#ffa500;stroke-width:1.5;"/>
    <path clip-path="url(#pc3b14fff47)" d="M 207.782322 162.480927 
L 207.782322 98.885377 
" style="fill:none;stroke:#ffa500;stroke-width:1.5;"/>
    <path clip-path="url(#pc3b14fff47)" d="M 320.33146 89.933564 
L 320.33146 26.338013 
" style="fill:none;stroke:#ffa500;stroke-width:1.5;"/>
    <path clip-path="url(#pc3b14fff47)" d="M 120.098798 137.214351 
L 120.098798 73.6188 
" style="fill:none;stroke:#ffa500;stroke-width:1.5;"/>
    <path clip-path="url(#pc3b14fff47)" d="M 227.673663 150.231155 
L 227.673663 86.635604 
" style="fill:none;stroke:#ffa500;stroke-width:1.5;"/>
    <path clip-path="url(#pc3b14fff47)" d="M 254.410054 150.528883 
L 254.410054 86.933332 
" style="fill:none;stroke:#ffa500;stroke-width:1.5;"/>
    <path clip-path="url(#pc3b14fff47)" d="M 67.698783 166.892533 
L 67.698783 103.296982 
" style="fill:none;stroke:#ffa500;stroke-width:1.5;"/>
    <path clip-path="url(#pc3b14fff47)" d="M 259.584377 146.006921 
L 259.584377 82.41137 
" style="fill:none;stroke:#ffa500;stroke-width:1.5;"/>
    <path clip-path="url(#pc3b14fff47)" d="M 110.130067 82.891551 
L 110.130067 19.296 
" style="fill:none;stroke:#ffa500;stroke-width:1.5;"/>
    <path clip-path="url(#pc3b14fff47)" d="M 74.060098 142.874524 
L 74.060098 79.278974 
" style="fill:none;stroke:#ffa500;stroke-width:1.5;"/>
    <path clip-path="url(#pc3b14fff47)" d="M 376.317596 124.023839 
L 376.317596 60.428288 
" style="fill:none;stroke:#ffa500;stroke-width:1.5;"/>
    <path clip-path="url(#pc3b14fff47)" d="M 382.044637 261.216 
L 382.044637 197.620449 
" style="fill:none;stroke:#ffa500;stroke-width:1.5;"/>
    <path clip-path="url(#pc3b14fff47)" d="M 328.272814 110.191085 
L 328.272814 46.595535 
" style="fill:none;stroke:#ffa500;stroke-width:1.5;"/>
    <path clip-path="url(#pc3b14fff47)" d="M 155.986646 158.371484 
L 155.986646 94.775934 
" style="fill:none;stroke:#ffa500;stroke-width:1.5;"/>
    <path clip-path="url(#pc3b14fff47)" d="M 85.21581 144.837242 
L 85.21581 81.241691 
" style="fill:none;stroke:#ffa500;stroke-width:1.5;"/>
    <path clip-path="url(#pc3b14fff47)" d="M 285.810543 134.744455 
L 285.810543 71.148905 
" style="fill:none;stroke:#ffa500;stroke-width:1.5;"/>
    <path clip-path="url(#pc3b14fff47)" d="M 202.338787 251.423475 
L 202.338787 187.827924 
" style="fill:none;stroke:#ffa500;stroke-width:1.5;"/>
    <path clip-path="url(#pc3b14fff47)" d="M 93.548645 139.342439 
L 93.548645 75.746889 
" style="fill:none;stroke:#ffa500;stroke-width:1.5;"/>
    <path clip-path="url(#pc3b14fff47)" d="M 221.156284 173.876563 
L 221.156284 110.281012 
" style="fill:none;stroke:#ffa500;stroke-width:1.5;"/>
    <path clip-path="url(#pc3b14fff47)" d="M 63.573803 102.679013 
L 63.573803 39.083462 
" style="fill:none;stroke:#ffa500;stroke-width:1.5;"/>
    <path clip-path="url(#pc3b14fff47)" d="M 362.786933 179.025849 
L 362.786933 115.430299 
" style="fill:none;stroke:#ffa500;stroke-width:1.5;"/>
    <path clip-path="url(#pc3b14fff47)" d="M 140.312201 173.492494 
L 140.312201 109.896943 
" style="fill:none;stroke:#ffa500;stroke-width:1.5;"/>
    <path clip-path="url(#pc3b14fff47)" d="M 278.385806 158.285166 
L 278.385806 94.689615 
" style="fill:none;stroke:#ffa500;stroke-width:1.5;"/>
    <path clip-path="url(#pc3b14fff47)" d="M 158.413814 134.150354 
L 158.413814 70.554803 
" style="fill:none;stroke:#ffa500;stroke-width:1.5;"/>
    <path clip-path="url(#pc3b14fff47)" d="M 229.668657 170.557356 
L 229.668657 106.961806 
" style="fill:none;stroke:#ffa500;stroke-width:1.5;"/>
    <path clip-path="url(#pc3b14fff47)" d="M 238.779896 191.756577 
L 238.779896 128.161027 
" style="fill:none;stroke:#ffa500;stroke-width:1.5;"/>
    <path clip-path="url(#pc3b14fff47)" d="M 115.030818 116.703674 
L 115.030818 53.108123 
" style="fill:none;stroke:#ffa500;stroke-width:1.5;"/>
   </g>
   <g id="line2d_15">
    <defs>
     <path d="M 0 3 
C 0.795609 3 1.55874 2.683901 2.12132 2.12132 
C 2.683901 1.55874 3 0.795609 3 0 
C 3 -0.795609 2.683901 -1.55874 2.12132 -2.12132 
C 1.55874 -2.683901 0.795609 -3 0 -3 
C -0.795609 -3 -1.55874 -2.683901 -2.12132 -2.12132 
C -2.683901 -1.55874 -3 -0.795609 -3 0 
C -3 0.795609 -2.683901 1.55874 -2.12132 2.12132 
C -1.55874 2.683901 -0.795609 3 0 3 
z
" id="m44609842fb" style="stroke:#ffa500;"/>
    </defs>
    <g clip-path="url(#pc3b14fff47)">
     <use style="fill:#ffa500;stroke:#ffa500;" x="179.900372" xlink:href="#m44609842fb" y="124.616161"/>
     <use style="fill:#ffa500;stroke:#ffa500;" x="376.943006" xlink:href="#m44609842fb" y="137.004319"/>
     <use style="fill:#ffa500;stroke:#ffa500;" x="302.144035" xlink:href="#m44609842fb" y="103.526068"/>
     <use style="fill:#ffa500;stroke:#ffa500;" x="256.545377" xlink:href="#m44609842fb" y="137.935913"/>
     <use style="fill:#ffa500;stroke:#ffa500;" x="105.169417" xlink:href="#m44609842fb" y="146.411998"/>
     <use style="fill:#ffa500;stroke:#ffa500;" x="105.161168" xlink:href="#m44609842fb" y="122.287278"/>
     <use style="fill:#ffa500;stroke:#ffa500;" x="71.677156" xlink:href="#m44609842fb" y="126.253502"/>
     <use style="fill:#ffa500;stroke:#ffa500;" x="348.032267" xlink:href="#m44609842fb" y="84.419389"/>
     <use style="fill:#ffa500;stroke:#ffa500;" x="257.385471" xlink:href="#m44609842fb" y="116.69902"/>
     <use style="fill:#ffa500;stroke:#ffa500;" x="293.963299" xlink:href="#m44609842fb" y="158.116626"/>
     <use style="fill:#ffa500;stroke:#ffa500;" x="58.85304" xlink:href="#m44609842fb" y="111.533073"/>
     <use style="fill:#ffa500;stroke:#ffa500;" x="383.507585" xlink:href="#m44609842fb" y="159.333316"/>
     <use style="fill:#ffa500;stroke:#ffa500;" x="336.495931" xlink:href="#m44609842fb" y="130.885107"/>
     <use style="fill:#ffa500;stroke:#ffa500;" x="124.430144" xlink:href="#m44609842fb" y="85.776014"/>
     <use style="fill:#ffa500;stroke:#ffa500;" x="113.99478" xlink:href="#m44609842fb" y="68.132606"/>
     <use style="fill:#ffa500;stroke:#ffa500;" x="114.534959" xlink:href="#m44609842fb" y="71.462009"/>
     <use style="fill:#ffa500;stroke:#ffa500;" x="155.859589" xlink:href="#m44609842fb" y="155.915641"/>
     <use style="fill:#ffa500;stroke:#ffa500;" x="231.272021" xlink:href="#m44609842fb" y="158.079258"/>
     <use style="fill:#ffa500;stroke:#ffa500;" x="199.531958" xlink:href="#m44609842fb" y="145.534026"/>
     <use style="fill:#ffa500;stroke:#ffa500;" x="151.40931" xlink:href="#m44609842fb" y="94.314481"/>
     <use style="fill:#ffa500;stroke:#ffa500;" x="261.05766" xlink:href="#m44609842fb" y="139.653094"/>
     <use style="fill:#ffa500;stroke:#ffa500;" x="99.518198" xlink:href="#m44609842fb" y="105.418036"/>
     <use style="fill:#ffa500;stroke:#ffa500;" x="151.7224" xlink:href="#m44609842fb" y="160.786962"/>
     <use style="fill:#ffa500;stroke:#ffa500;" x="177.103529" xlink:href="#m44609842fb" y="184.321394"/>
     <use style="fill:#ffa500;stroke:#ffa500;" x="207.782322" xlink:href="#m44609842fb" y="130.683152"/>
     <use style="fill:#ffa500;stroke:#ffa500;" x="320.33146" xlink:href="#m44609842fb" y="58.135789"/>
     <use style="fill:#ffa500;stroke:#ffa500;" x="120.098798" xlink:href="#m44609842fb" y="105.416575"/>
     <use style="fill:#ffa500;stroke:#ffa500;" x="227.673663" xlink:href="#m44609842fb" y="118.433379"/>
     <use style="fill:#ffa500;stroke:#ffa500;" x="254.410054" xlink:href="#m44609842fb" y="118.731108"/>
     <use style="fill:#ffa500;stroke:#ffa500;" x="67.698783" xlink:href="#m44609842fb" y="135.094757"/>
     <use style="fill:#ffa500;stroke:#ffa500;" x="259.584377" xlink:href="#m44609842fb" y="114.209145"/>
     <use style="fill:#ffa500;stroke:#ffa500;" x="110.130067" xlink:href="#m44609842fb" y="51.093775"/>
     <use style="fill:#ffa500;stroke:#ffa500;" x="74.060098" xlink:href="#m44609842fb" y="111.076749"/>
     <use style="fill:#ffa500;stroke:#ffa500;" x="376.317596" xlink:href="#m44609842fb" y="92.226063"/>
     <use style="fill:#ffa500;stroke:#ffa500;" x="382.044637" xlink:href="#m44609842fb" y="229.418225"/>
     <use style="fill:#ffa500;stroke:#ffa500;" x="328.272814" xlink:href="#m44609842fb" y="78.39331"/>
     <use style="fill:#ffa500;stroke:#ffa500;" x="155.986646" xlink:href="#m44609842fb" y="126.573709"/>
     <use style="fill:#ffa500;stroke:#ffa500;" x="85.21581" xlink:href="#m44609842fb" y="113.039467"/>
     <use style="fill:#ffa500;stroke:#ffa500;" x="285.810543" xlink:href="#m44609842fb" y="102.94668"/>
     <use style="fill:#ffa500;stroke:#ffa500;" x="202.338787" xlink:href="#m44609842fb" y="219.625699"/>
     <use style="fill:#ffa500;stroke:#ffa500;" x="93.548645" xlink:href="#m44609842fb" y="107.544664"/>
     <use style="fill:#ffa500;stroke:#ffa500;" x="221.156284" xlink:href="#m44609842fb" y="142.078788"/>
     <use style="fill:#ffa500;stroke:#ffa500;" x="63.573803" xlink:href="#m44609842fb" y="70.881237"/>
     <use style="fill:#ffa500;stroke:#ffa500;" x="362.786933" xlink:href="#m44609842fb" y="147.228074"/>
     <use style="fill:#ffa500;stroke:#ffa500;" x="140.312201" xlink:href="#m44609842fb" y="141.694718"/>
     <use style="fill:#ffa500;stroke:#ffa500;" x="278.385806" xlink:href="#m44609842fb" y="126.48739"/>
     <use style="fill:#ffa500;stroke:#ffa500;" x="158.413814" xlink:href="#m44609842fb" y="102.352579"/>
     <use style="fill:#ffa500;stroke:#ffa500;" x="229.668657" xlink:href="#m44609842fb" y="138.759581"/>
     <use style="fill:#ffa500;stroke:#ffa500;" x="238.779896" xlink:href="#m44609842fb" y="159.958802"/>
     <use style="fill:#ffa500;stroke:#ffa500;" x="115.030818" xlink:href="#m44609842fb" y="84.905898"/>
    </g>
   </g>
   <g id="patch_3">
    <path d="M 42.620313 273.312 
L 42.620313 7.2 
" style="fill:none;stroke:#000000;stroke-linecap:square;stroke-linejoin:miter;stroke-width:0.8;"/>
   </g>
   <g id="patch_4">
    <path d="M 399.740313 273.312 
L 399.740313 7.2 
" style="fill:none;stroke:#000000;stroke-linecap:square;stroke-linejoin:miter;stroke-width:0.8;"/>
   </g>
   <g id="patch_5">
    <path d="M 42.620312 273.312 
L 399.740312 273.312 
" style="fill:none;stroke:#000000;stroke-linecap:square;stroke-linejoin:miter;stroke-width:0.8;"/>
   </g>
   <g id="patch_6">
    <path d="M 42.620312 7.2 
L 399.740312 7.2 
" style="fill:none;stroke:#000000;stroke-linecap:square;stroke-linejoin:miter;stroke-width:0.8;"/>
   </g>
  </g>
 </g>
 <defs>
  <clipPath id="pc3b14fff47">
   <rect height="266.112" width="357.12" x="42.620313" y="7.2"/>
  </clipPath>
 </defs>
</svg>
