<?xml version="1.0" encoding="utf-8" standalone="no"?>
<!DOCTYPE svg PUBLIC "-//W3C//DTD SVG 1.1//EN"
  "http://www.w3.org/Graphics/SVG/1.1/DTD/svg11.dtd">
<svg xmlns:xlink="http://www.w3.org/1999/xlink" width="361.85pt" height="378.77pt" viewBox="0 0 361.85 378.77" xmlns="http://www.w3.org/2000/svg" version="1.1">
 <metadata>
  <rdf:RDF xmlns:dc="http://purl.org/dc/elements/1.1/" xmlns:cc="http://creativecommons.org/ns#" xmlns:rdf="http://www.w3.org/1999/02/22-rdf-syntax-ns#">
   <cc:Work>
    <dc:type rdf:resource="http://purl.org/dc/dcmitype/StillImage"/>
    <dc:date>2024-05-29T21:37:51.522828</dc:date>
    <dc:format>image/svg+xml</dc:format>
    <dc:creator>
     <cc:Agent>
      <dc:title>Matplotlib v3.9.0, https://matplotlib.org/</dc:title>
     </cc:Agent>
    </dc:creator>
   </cc:Work>
  </rdf:RDF>
 </metadata>
 <defs>
  <style type="text/css">*{stroke-linejoin: round; stroke-linecap: butt}</style>
 </defs>
 <g id="figure_1">
  <g id="patch_1">
   <path d="M 0 378.77 
L 361.85 378.77 
L 361.85 0 
L 0 0 
z
" style="fill: #ffffff"/>
  </g>
  <g id="axes_1">
   <g id="patch_2">
    <path d="M 59.45 168.12 
L 203.45 168.12 
L 203.45 24.12 
L 59.45 24.12 
z
" style="fill: #ffffff"/>
   </g>
   <g id="matplotlib.axis_1">
    <g id="xtick_1">
     <g id="line2d_1">
      <defs>
       <path id="md7df61ea32" d="M 0 1.75 
L 0 -1.75 
" style="stroke: #000000; stroke-width: 0.8"/>
      </defs>
      <g>
       <use xlink:href="#md7df61ea32" x="65.577652" y="168.12" style="stroke: #000000; stroke-width: 0.8"/>
      </g>
     </g>
     <g id="line2d_2">
      <g>
       <use xlink:href="#md7df61ea32" x="65.577652" y="24.12" style="stroke: #000000; stroke-width: 0.8"/>
      </g>
     </g>
    </g>
    <g id="xtick_2">
     <g id="line2d_3">
      <g>
       <use xlink:href="#md7df61ea32" x="101.713744" y="168.12" style="stroke: #000000; stroke-width: 0.8"/>
      </g>
     </g>
     <g id="line2d_4">
      <g>
       <use xlink:href="#md7df61ea32" x="101.713744" y="24.12" style="stroke: #000000; stroke-width: 0.8"/>
      </g>
     </g>
    </g>
    <g id="xtick_3">
     <g id="line2d_5">
      <g>
       <use xlink:href="#md7df61ea32" x="137.849836" y="168.12" style="stroke: #000000; stroke-width: 0.8"/>
      </g>
     </g>
     <g id="line2d_6">
      <g>
       <use xlink:href="#md7df61ea32" x="137.849836" y="24.12" style="stroke: #000000; stroke-width: 0.8"/>
      </g>
     </g>
    </g>
    <g id="xtick_4">
     <g id="line2d_7">
      <g>
       <use xlink:href="#md7df61ea32" x="173.985928" y="168.12" style="stroke: #000000; stroke-width: 0.8"/>
      </g>
     </g>
     <g id="line2d_8">
      <g>
       <use xlink:href="#md7df61ea32" x="173.985928" y="24.12" style="stroke: #000000; stroke-width: 0.8"/>
      </g>
     </g>
    </g>
   </g>
   <g id="matplotlib.axis_2"/>
   <g id="patch_3">
    <path d="M 59.45 168.12 
L 59.45 168.114843 
L 66.65 168.114843 
L 66.65 168.097163 
L 73.85 168.097163 
L 73.85 168.059737 
L 81.05 168.059737 
L 81.05 168.002223 
L 88.25 168.002223 
L 88.25 167.898588 
L 95.45 167.898588 
L 95.45 166.997358 
L 102.65 166.997358 
L 102.65 166.322148 
L 109.85 166.322148 
L 109.85 159.838546 
L 117.05 159.838546 
L 117.05 140.41769 
L 124.25 140.41769 
L 124.25 97.96191 
L 131.45 97.96191 
L 131.45 52.102771 
L 138.65 52.102771 
L 138.65 37.210909 
L 145.85 37.210909 
L 145.85 100.745749 
L 153.05 100.745749 
L 153.05 150.179064 
L 160.25 150.179064 
L 160.25 164.43599 
L 167.45 164.43599 
L 167.45 166.845108 
L 174.65 166.845108 
L 174.65 167.907999 
L 181.85 167.907999 
L 181.85 168.064214 
L 189.05 168.064214 
L 189.05 168.083384 
L 196.25 168.083384 
L 196.25 168.10697 
L 203.45 168.10697 
L 203.45 168.12 
" clip-path="url(#p044fa29bd8)" style="fill: none; stroke: #800080; stroke-linejoin: miter"/>
   </g>
   <g id="line2d_9">
    <path d="M 128.160507 168.12 
L 128.160507 24.12 
" clip-path="url(#p044fa29bd8)" style="fill: none; stroke-dasharray: 5.55,2.4; stroke-dashoffset: 0; stroke: #800080; stroke-width: 1.5"/>
   </g>
   <g id="line2d_10">
    <path d="M 138.5953 168.12 
L 138.5953 24.12 
" clip-path="url(#p044fa29bd8)" style="fill: none; stroke-dasharray: 5.55,2.4; stroke-dashoffset: 0; stroke: #800080; stroke-width: 1.5"/>
   </g>
   <g id="line2d_11">
    <path d="M 147.313829 168.12 
L 147.313829 24.12 
" clip-path="url(#p044fa29bd8)" style="fill: none; stroke-dasharray: 5.55,2.4; stroke-dashoffset: 0; stroke: #800080; stroke-width: 1.5"/>
   </g>
   <g id="patch_4">
    <path d="M 59.45 168.12 
L 59.45 24.12 
" style="fill: none; stroke: #000000; stroke-width: 0.8; stroke-linejoin: miter; stroke-linecap: square"/>
   </g>
   <g id="patch_5">
    <path d="M 203.45 168.12 
L 203.45 24.12 
" style="fill: none; stroke: #000000; stroke-width: 0.8; stroke-linejoin: miter; stroke-linecap: square"/>
   </g>
   <g id="patch_6">
    <path d="M 59.45 168.12 
L 203.45 168.12 
" style="fill: none; stroke: #000000; stroke-width: 0.8; stroke-linejoin: miter; stroke-linecap: square"/>
   </g>
   <g id="patch_7">
    <path d="M 59.45 24.12 
L 203.45 24.12 
" style="fill: none; stroke: #000000; stroke-width: 0.8; stroke-linejoin: miter; stroke-linecap: square"/>
   </g>
   <g id="text_1">
    <!-- mean = ${0.31}_{-4.33}^{+3.62}$ -->
    <g transform="translate(82.67 18.12) scale(0.12 -0.12)">
     <defs>
      <path id="HelveticaNeue-Medium-6d" d="M 384 3309 
L 1075 3309 
L 1075 2848 
L 1094 2848 
Q 1178 2970 1274 3072 
Q 1370 3174 1488 3244 
Q 1606 3315 1760 3356 
Q 1914 3398 2112 3398 
Q 2413 3398 2672 3264 
Q 2931 3130 3040 2848 
Q 3226 3104 3469 3251 
Q 3712 3398 4077 3398 
Q 4602 3398 4893 3142 
Q 5184 2886 5184 2285 
L 5184 0 
L 4454 0 
L 4454 1933 
Q 4454 2131 4441 2294 
Q 4429 2458 4368 2576 
Q 4307 2694 4185 2758 
Q 4064 2822 3853 2822 
Q 3482 2822 3315 2592 
Q 3149 2362 3149 1939 
L 3149 0 
L 2419 0 
L 2419 2125 
Q 2419 2470 2294 2646 
Q 2170 2822 1837 2822 
Q 1696 2822 1565 2764 
Q 1434 2707 1334 2598 
Q 1235 2490 1174 2330 
Q 1114 2170 1114 1965 
L 1114 0 
L 384 0 
L 384 3309 
z
" transform="scale(0.015625)"/>
      <path id="HelveticaNeue-Medium-65" d="M 2656 1946 
Q 2643 2118 2582 2278 
Q 2522 2438 2416 2556 
Q 2310 2675 2160 2748 
Q 2010 2822 1824 2822 
Q 1632 2822 1475 2755 
Q 1318 2688 1206 2569 
Q 1094 2451 1027 2291 
Q 960 2131 954 1946 
L 2656 1946 
z
M 954 1466 
Q 954 1274 1008 1094 
Q 1062 915 1171 780 
Q 1280 646 1446 566 
Q 1613 486 1843 486 
Q 2163 486 2358 624 
Q 2554 762 2650 1037 
L 3341 1037 
Q 3283 768 3142 557 
Q 3002 346 2803 202 
Q 2605 58 2358 -16 
Q 2112 -90 1843 -90 
Q 1453 -90 1152 38 
Q 851 166 643 396 
Q 435 627 329 947 
Q 224 1267 224 1651 
Q 224 2003 336 2320 
Q 448 2637 656 2877 
Q 864 3117 1158 3257 
Q 1453 3398 1824 3398 
Q 2214 3398 2524 3235 
Q 2835 3072 3040 2803 
Q 3245 2534 3337 2185 
Q 3430 1837 3386 1466 
L 954 1466 
z
" transform="scale(0.015625)"/>
      <path id="HelveticaNeue-Medium-61" d="M 3155 736 
Q 3155 602 3190 544 
Q 3226 486 3328 486 
Q 3360 486 3405 486 
Q 3450 486 3507 499 
L 3507 -6 
Q 3469 -19 3408 -35 
Q 3347 -51 3283 -64 
Q 3219 -77 3155 -83 
Q 3091 -90 3046 -90 
Q 2822 -90 2675 0 
Q 2528 90 2483 314 
Q 2266 102 1949 6 
Q 1632 -90 1338 -90 
Q 1114 -90 909 -29 
Q 704 32 547 150 
Q 390 269 297 451 
Q 205 634 205 877 
Q 205 1184 317 1376 
Q 429 1568 611 1677 
Q 794 1786 1021 1834 
Q 1248 1882 1478 1907 
Q 1677 1946 1856 1962 
Q 2035 1978 2172 2016 
Q 2310 2054 2390 2134 
Q 2470 2214 2470 2374 
Q 2470 2515 2403 2604 
Q 2336 2694 2237 2742 
Q 2138 2790 2016 2806 
Q 1894 2822 1786 2822 
Q 1478 2822 1280 2694 
Q 1082 2566 1056 2298 
L 326 2298 
Q 346 2618 480 2829 
Q 614 3040 822 3168 
Q 1030 3296 1292 3347 
Q 1555 3398 1830 3398 
Q 2074 3398 2310 3347 
Q 2547 3296 2736 3181 
Q 2925 3066 3040 2883 
Q 3155 2701 3155 2438 
L 3155 736 
z
M 2426 1658 
Q 2259 1549 2016 1526 
Q 1773 1504 1530 1459 
Q 1414 1440 1305 1405 
Q 1197 1370 1113 1309 
Q 1030 1248 982 1149 
Q 934 1050 934 909 
Q 934 787 1004 704 
Q 1075 621 1174 573 
Q 1274 525 1392 505 
Q 1510 486 1606 486 
Q 1728 486 1869 518 
Q 2010 550 2134 627 
Q 2259 704 2342 822 
Q 2426 941 2426 1114 
L 2426 1658 
z
" transform="scale(0.015625)"/>
      <path id="HelveticaNeue-Medium-6e" d="M 384 3309 
L 1075 3309 
L 1075 2822 
L 1088 2810 
Q 1254 3085 1523 3241 
Q 1792 3398 2118 3398 
Q 2662 3398 2976 3116 
Q 3290 2835 3290 2272 
L 3290 0 
L 2560 0 
L 2560 2080 
Q 2547 2470 2393 2646 
Q 2240 2822 1914 2822 
Q 1728 2822 1581 2755 
Q 1434 2688 1331 2569 
Q 1229 2451 1171 2291 
Q 1114 2131 1114 1952 
L 1114 0 
L 384 0 
L 384 3309 
z
" transform="scale(0.015625)"/>
      <path id="HelveticaNeue-Medium-20" transform="scale(0.015625)"/>
      <path id="HelveticaNeue-Medium-3d" d="M 3533 646 
L 307 646 
L 307 1299 
L 3533 1299 
L 3533 646 
z
M 3533 1939 
L 307 1939 
L 307 2592 
L 3533 2592 
L 3533 1939 
z
" transform="scale(0.015625)"/>
      <path id="DejaVuSans-30" d="M 2034 4250 
Q 1547 4250 1301 3770 
Q 1056 3291 1056 2328 
Q 1056 1369 1301 889 
Q 1547 409 2034 409 
Q 2525 409 2770 889 
Q 3016 1369 3016 2328 
Q 3016 3291 2770 3770 
Q 2525 4250 2034 4250 
z
M 2034 4750 
Q 2819 4750 3233 4129 
Q 3647 3509 3647 2328 
Q 3647 1150 3233 529 
Q 2819 -91 2034 -91 
Q 1250 -91 836 529 
Q 422 1150 422 2328 
Q 422 3509 836 4129 
Q 1250 4750 2034 4750 
z
" transform="scale(0.015625)"/>
      <path id="DejaVuSans-2e" d="M 684 794 
L 1344 794 
L 1344 0 
L 684 0 
L 684 794 
z
" transform="scale(0.015625)"/>
      <path id="DejaVuSans-33" d="M 2597 2516 
Q 3050 2419 3304 2112 
Q 3559 1806 3559 1356 
Q 3559 666 3084 287 
Q 2609 -91 1734 -91 
Q 1441 -91 1130 -33 
Q 819 25 488 141 
L 488 750 
Q 750 597 1062 519 
Q 1375 441 1716 441 
Q 2309 441 2620 675 
Q 2931 909 2931 1356 
Q 2931 1769 2642 2001 
Q 2353 2234 1838 2234 
L 1294 2234 
L 1294 2753 
L 1863 2753 
Q 2328 2753 2575 2939 
Q 2822 3125 2822 3475 
Q 2822 3834 2567 4026 
Q 2313 4219 1838 4219 
Q 1578 4219 1281 4162 
Q 984 4106 628 3988 
L 628 4550 
Q 988 4650 1302 4700 
Q 1616 4750 1894 4750 
Q 2613 4750 3031 4423 
Q 3450 4097 3450 3541 
Q 3450 3153 3228 2886 
Q 3006 2619 2597 2516 
z
" transform="scale(0.015625)"/>
      <path id="DejaVuSans-31" d="M 794 531 
L 1825 531 
L 1825 4091 
L 703 3866 
L 703 4441 
L 1819 4666 
L 2450 4666 
L 2450 531 
L 3481 531 
L 3481 0 
L 794 0 
L 794 531 
z
" transform="scale(0.015625)"/>
      <path id="DejaVuSans-2b" d="M 2944 4013 
L 2944 2272 
L 4684 2272 
L 4684 1741 
L 2944 1741 
L 2944 0 
L 2419 0 
L 2419 1741 
L 678 1741 
L 678 2272 
L 2419 2272 
L 2419 4013 
L 2944 4013 
z
" transform="scale(0.015625)"/>
      <path id="DejaVuSans-36" d="M 2113 2584 
Q 1688 2584 1439 2293 
Q 1191 2003 1191 1497 
Q 1191 994 1439 701 
Q 1688 409 2113 409 
Q 2538 409 2786 701 
Q 3034 994 3034 1497 
Q 3034 2003 2786 2293 
Q 2538 2584 2113 2584 
z
M 3366 4563 
L 3366 3988 
Q 3128 4100 2886 4159 
Q 2644 4219 2406 4219 
Q 1781 4219 1451 3797 
Q 1122 3375 1075 2522 
Q 1259 2794 1537 2939 
Q 1816 3084 2150 3084 
Q 2853 3084 3261 2657 
Q 3669 2231 3669 1497 
Q 3669 778 3244 343 
Q 2819 -91 2113 -91 
Q 1303 -91 875 529 
Q 447 1150 447 2328 
Q 447 3434 972 4092 
Q 1497 4750 2381 4750 
Q 2619 4750 2861 4703 
Q 3103 4656 3366 4563 
z
" transform="scale(0.015625)"/>
      <path id="DejaVuSans-32" d="M 1228 531 
L 3431 531 
L 3431 0 
L 469 0 
L 469 531 
Q 828 903 1448 1529 
Q 2069 2156 2228 2338 
Q 2531 2678 2651 2914 
Q 2772 3150 2772 3378 
Q 2772 3750 2511 3984 
Q 2250 4219 1831 4219 
Q 1534 4219 1204 4116 
Q 875 4013 500 3803 
L 500 4441 
Q 881 4594 1212 4672 
Q 1544 4750 1819 4750 
Q 2544 4750 2975 4387 
Q 3406 4025 3406 3419 
Q 3406 3131 3298 2873 
Q 3191 2616 2906 2266 
Q 2828 2175 2409 1742 
Q 1991 1309 1228 531 
z
" transform="scale(0.015625)"/>
      <path id="DejaVuSans-2212" d="M 678 2272 
L 4684 2272 
L 4684 1741 
L 678 1741 
L 678 2272 
z
" transform="scale(0.015625)"/>
      <path id="DejaVuSans-34" d="M 2419 4116 
L 825 1625 
L 2419 1625 
L 2419 4116 
z
M 2253 4666 
L 3047 4666 
L 3047 1625 
L 3713 1625 
L 3713 1100 
L 3047 1100 
L 3047 0 
L 2419 0 
L 2419 1100 
L 313 1100 
L 313 1709 
L 2253 4666 
z
" transform="scale(0.015625)"/>
     </defs>
     <use xlink:href="#HelveticaNeue-Medium-6d" transform="translate(0 0.765625)"/>
     <use xlink:href="#HelveticaNeue-Medium-65" transform="translate(86.999985 0.765625)"/>
     <use xlink:href="#HelveticaNeue-Medium-61" transform="translate(142.599976 0.765625)"/>
     <use xlink:href="#HelveticaNeue-Medium-6e" transform="translate(198.199966 0.765625)"/>
     <use xlink:href="#HelveticaNeue-Medium-20" transform="translate(255.59996 0.765625)"/>
     <use xlink:href="#HelveticaNeue-Medium-3d" transform="translate(283.399948 0.765625)"/>
     <use xlink:href="#HelveticaNeue-Medium-20" transform="translate(343.399933 0.765625)"/>
     <use xlink:href="#DejaVuSans-30" transform="translate(371.199921 0.765625)"/>
     <use xlink:href="#DejaVuSans-2e" transform="translate(434.822968 0.765625)"/>
     <use xlink:href="#DejaVuSans-33" transform="translate(466.610077 0.765625)"/>
     <use xlink:href="#DejaVuSans-31" transform="translate(530.233124 0.765625)"/>
     <use xlink:href="#DejaVuSans-2b" transform="translate(594.813202 39.046875) scale(0.7)"/>
     <use xlink:href="#DejaVuSans-33" transform="translate(653.465546 39.046875) scale(0.7)"/>
     <use xlink:href="#DejaVuSans-2e" transform="translate(698.001678 39.046875) scale(0.7)"/>
     <use xlink:href="#DejaVuSans-36" transform="translate(720.252655 39.046875) scale(0.7)"/>
     <use xlink:href="#DejaVuSans-32" transform="translate(764.788788 39.046875) scale(0.7)"/>
     <use xlink:href="#DejaVuSans-2212" transform="translate(594.813202 -26.578125) scale(0.7)"/>
     <use xlink:href="#DejaVuSans-34" transform="translate(653.465546 -26.578125) scale(0.7)"/>
     <use xlink:href="#DejaVuSans-2e" transform="translate(698.001678 -26.578125) scale(0.7)"/>
     <use xlink:href="#DejaVuSans-33" transform="translate(720.252655 -26.578125) scale(0.7)"/>
     <use xlink:href="#DejaVuSans-33" transform="translate(764.788788 -26.578125) scale(0.7)"/>
    </g>
   </g>
  </g>
  <g id="axes_2">
   <g id="matplotlib.axis_3"/>
   <g id="matplotlib.axis_4"/>
  </g>
  <g id="axes_3">
   <g id="patch_8">
    <path d="M 59.45 319.32 
L 203.45 319.32 
L 203.45 175.32 
L 59.45 175.32 
z
" style="fill: #ffffff"/>
   </g>
   <g id="QuadContourSet_1">
    <path d="M 127.85 328.792128 
L 135.05 330.007338 
L 142.25 330.090822 
L 149.45 330.04034 
L 156.65 328.172939 
L 161.992011 322.92 
L 161.992011 315.72 
L 163.85 310.898191 
L 166.17941 308.52 
L 171.05 303.356504 
L 173.074078 301.32 
L 173.746915 294.12 
L 177.164249 286.92 
L 177.512828 279.72 
L 178.031192 272.52 
L 177.85874 265.32 
L 178.25 261.808444 
L 180.203898 258.12 
L 178.25 255.886349 
L 171.05 251.806825 
L 168.866498 250.92 
L 163.85 247.831276 
L 159.736896 243.72 
L 156.65 239.07822 
L 149.521124 243.72 
L 149.45 243.728153 
L 149.421961 243.72 
L 142.25 237.309851 
L 135.05 239.242423 
L 127.85 237.822169 
L 124.77651 236.52 
L 120.65 229.32 
L 113.45 232.223804 
L 109.153804 236.52 
L 108.148031 243.72 
L 108.820709 250.92 
L 106.25 256.038407 
L 103.106823 250.92 
L 100.111187 243.72 
L 99.05 242.122027 
L 97.619997 243.72 
L 91.85 249.408953 
L 86.858531 250.92 
L 91.85 252.609669 
L 93.747291 258.12 
L 92.257045 265.32 
L 91.992157 272.52 
L 91.85 276.290572 
L 90.760326 279.72 
L 91.85 280.641061 
L 93.806458 286.92 
L 99.05 293.513309 
L 99.228731 294.12 
L 103.233942 301.32 
L 106.25 304.336058 
L 113.45 308.253777 
L 113.766397 308.52 
L 120.65 315.31475 
L 121.977872 315.72 
L 121.977872 322.92 
z
M 135.05 232.616399 
L 139.154436 229.32 
L 135.05 226.023601 
L 128.945093 229.32 
z
" clip-path="url(#p1e4d258868)" style="fill: #ffffff"/>
   </g>
   <g id="matplotlib.axis_5">
    <g id="xtick_5">
     <g id="line2d_12">
      <g>
       <use xlink:href="#md7df61ea32" x="65.577652" y="319.32" style="stroke: #000000; stroke-width: 0.8"/>
      </g>
     </g>
     <g id="line2d_13">
      <g>
       <use xlink:href="#md7df61ea32" x="65.577652" y="175.32" style="stroke: #000000; stroke-width: 0.8"/>
      </g>
     </g>
     <g id="text_2">
      <!-- −30 -->
      <g transform="translate(61.374786 341.723969) rotate(-45) scale(0.1 -0.1)">
       <defs>
        <path id="HelveticaNeue-Medium-2212" d="M 307 1293 
L 307 1946 
L 3533 1946 
L 3533 1293 
L 307 1293 
z
" transform="scale(0.015625)"/>
        <path id="HelveticaNeue-Medium-33" d="M 1459 2624 
Q 1638 2618 1817 2650 
Q 1997 2682 2137 2762 
Q 2278 2842 2364 2982 
Q 2451 3123 2451 3328 
Q 2451 3616 2256 3789 
Q 2061 3962 1754 3962 
Q 1562 3962 1421 3885 
Q 1280 3808 1187 3677 
Q 1094 3546 1049 3382 
Q 1005 3219 1011 3046 
L 282 3046 
Q 294 3373 403 3651 
Q 512 3930 701 4134 
Q 890 4339 1158 4454 
Q 1427 4570 1766 4570 
Q 2029 4570 2281 4493 
Q 2534 4416 2736 4269 
Q 2938 4122 3059 3894 
Q 3181 3667 3181 3373 
Q 3181 3034 3027 2781 
Q 2874 2528 2547 2413 
L 2547 2400 
Q 2931 2323 3145 2019 
Q 3360 1715 3360 1280 
Q 3360 960 3232 707 
Q 3104 454 2886 278 
Q 2669 102 2381 6 
Q 2093 -90 1773 -90 
Q 1382 -90 1091 22 
Q 800 134 605 339 
Q 410 544 307 832 
Q 205 1120 198 1472 
L 928 1472 
Q 915 1062 1129 790 
Q 1344 518 1773 518 
Q 2138 518 2384 726 
Q 2630 934 2630 1318 
Q 2630 1581 2528 1734 
Q 2426 1888 2259 1968 
Q 2093 2048 1885 2067 
Q 1677 2086 1459 2080 
L 1459 2624 
z
" transform="scale(0.015625)"/>
        <path id="HelveticaNeue-Medium-30" d="M 1779 4570 
Q 2259 4570 2563 4349 
Q 2867 4128 3036 3785 
Q 3206 3443 3267 3033 
Q 3328 2624 3328 2240 
Q 3328 1856 3267 1446 
Q 3206 1037 3036 694 
Q 2867 352 2563 131 
Q 2259 -90 1779 -90 
Q 1299 -90 995 131 
Q 691 352 521 694 
Q 352 1037 291 1446 
Q 230 1856 230 2240 
Q 230 2624 291 3033 
Q 352 3443 521 3785 
Q 691 4128 995 4349 
Q 1299 4570 1779 4570 
z
M 1779 518 
Q 2016 518 2176 656 
Q 2336 794 2429 1027 
Q 2522 1261 2560 1574 
Q 2598 1888 2598 2240 
Q 2598 2592 2560 2902 
Q 2522 3213 2429 3449 
Q 2336 3686 2176 3824 
Q 2016 3962 1779 3962 
Q 1536 3962 1379 3824 
Q 1222 3686 1129 3449 
Q 1037 3213 998 2902 
Q 960 2592 960 2240 
Q 960 1888 998 1574 
Q 1037 1261 1129 1027 
Q 1222 794 1379 656 
Q 1536 518 1779 518 
z
" transform="scale(0.015625)"/>
       </defs>
       <use xlink:href="#HelveticaNeue-Medium-2212"/>
       <use xlink:href="#HelveticaNeue-Medium-33" x="59.999985"/>
       <use xlink:href="#HelveticaNeue-Medium-30" x="115.599976"/>
      </g>
     </g>
    </g>
    <g id="xtick_6">
     <g id="line2d_14">
      <g>
       <use xlink:href="#md7df61ea32" x="101.713744" y="319.32" style="stroke: #000000; stroke-width: 0.8"/>
      </g>
     </g>
     <g id="line2d_15">
      <g>
       <use xlink:href="#md7df61ea32" x="101.713744" y="175.32" style="stroke: #000000; stroke-width: 0.8"/>
      </g>
     </g>
     <g id="text_3">
      <!-- −15 -->
      <g transform="translate(97.510878 341.723969) rotate(-45) scale(0.1 -0.1)">
       <defs>
        <path id="HelveticaNeue-Medium-31" d="M 339 3738 
Q 570 3738 787 3776 
Q 1005 3814 1181 3904 
Q 1357 3994 1481 4134 
Q 1606 4275 1645 4480 
L 2240 4480 
L 2240 0 
L 1440 0 
L 1440 3162 
L 339 3162 
L 339 3738 
z
" transform="scale(0.015625)"/>
        <path id="HelveticaNeue-Medium-35" d="M 787 4480 
L 3104 4480 
L 3104 3827 
L 1331 3827 
L 1101 2688 
L 1114 2675 
Q 1261 2842 1488 2928 
Q 1715 3014 1939 3014 
Q 2272 3014 2534 2902 
Q 2797 2790 2976 2588 
Q 3155 2387 3248 2112 
Q 3341 1837 3341 1517 
Q 3341 1248 3254 963 
Q 3168 678 2979 444 
Q 2790 211 2496 60 
Q 2202 -90 1792 -90 
Q 1466 -90 1187 -3 
Q 909 83 697 256 
Q 486 429 361 681 
Q 237 934 224 1274 
L 954 1274 
Q 986 909 1203 713 
Q 1421 518 1779 518 
Q 2010 518 2170 595 
Q 2330 672 2429 806 
Q 2528 941 2569 1120 
Q 2611 1299 2611 1504 
Q 2611 1690 2560 1859 
Q 2509 2029 2406 2157 
Q 2304 2285 2141 2361 
Q 1978 2438 1760 2438 
Q 1530 2438 1328 2352 
Q 1126 2266 1037 2029 
L 307 2029 
L 787 4480 
z
" transform="scale(0.015625)"/>
       </defs>
       <use xlink:href="#HelveticaNeue-Medium-2212"/>
       <use xlink:href="#HelveticaNeue-Medium-31" x="59.999985"/>
       <use xlink:href="#HelveticaNeue-Medium-35" x="115.599976"/>
      </g>
     </g>
    </g>
    <g id="xtick_7">
     <g id="line2d_16">
      <g>
       <use xlink:href="#md7df61ea32" x="137.849836" y="319.32" style="stroke: #000000; stroke-width: 0.8"/>
      </g>
     </g>
     <g id="line2d_17">
      <g>
       <use xlink:href="#md7df61ea32" x="137.849836" y="175.32" style="stroke: #000000; stroke-width: 0.8"/>
      </g>
     </g>
     <g id="text_4">
      <!-- 0 -->
      <g transform="translate(137.733826 333.550256) rotate(-45) scale(0.1 -0.1)">
       <use xlink:href="#HelveticaNeue-Medium-30"/>
      </g>
     </g>
    </g>
    <g id="xtick_8">
     <g id="line2d_18">
      <g>
       <use xlink:href="#md7df61ea32" x="173.985928" y="319.32" style="stroke: #000000; stroke-width: 0.8"/>
      </g>
     </g>
     <g id="line2d_19">
      <g>
       <use xlink:href="#md7df61ea32" x="173.985928" y="175.32" style="stroke: #000000; stroke-width: 0.8"/>
      </g>
     </g>
     <g id="text_5">
      <!-- 15 -->
      <g transform="translate(171.904382 337.481328) rotate(-45) scale(0.1 -0.1)">
       <use xlink:href="#HelveticaNeue-Medium-31"/>
       <use xlink:href="#HelveticaNeue-Medium-35" x="55.599991"/>
      </g>
     </g>
    </g>
    <g id="text_6">
     <!-- mean -->
     <g transform="translate(118.670312 369.660625) scale(0.1 -0.1)">
      <use xlink:href="#HelveticaNeue-Medium-6d"/>
      <use xlink:href="#HelveticaNeue-Medium-65" x="86.999985"/>
      <use xlink:href="#HelveticaNeue-Medium-61" x="142.599976"/>
      <use xlink:href="#HelveticaNeue-Medium-6e" x="198.199966"/>
     </g>
    </g>
   </g>
   <g id="matplotlib.axis_6">
    <g id="ytick_1">
     <g id="line2d_20">
      <defs>
       <path id="m5e3267087d" d="M 1.75 0 
L -1.75 -0 
" style="stroke: #000000; stroke-width: 0.8"/>
      </defs>
      <g>
       <use xlink:href="#m5e3267087d" x="59.45" y="280.81939" style="stroke: #000000; stroke-width: 0.8"/>
      </g>
     </g>
     <g id="line2d_21">
      <g>
       <use xlink:href="#m5e3267087d" x="203.45" y="280.81939" style="stroke: #000000; stroke-width: 0.8"/>
      </g>
     </g>
     <g id="text_7">
      <!-- 15 -->
      <g transform="translate(44.987724 290.160405) rotate(-45) scale(0.1 -0.1)">
       <use xlink:href="#HelveticaNeue-Medium-31"/>
       <use xlink:href="#HelveticaNeue-Medium-35" x="55.599991"/>
      </g>
     </g>
    </g>
    <g id="ytick_2">
     <g id="line2d_22">
      <g>
       <use xlink:href="#m5e3267087d" x="59.45" y="239.565843" style="stroke: #000000; stroke-width: 0.8"/>
      </g>
     </g>
     <g id="line2d_23">
      <g>
       <use xlink:href="#m5e3267087d" x="203.45" y="239.565843" style="stroke: #000000; stroke-width: 0.8"/>
      </g>
     </g>
     <g id="text_8">
      <!-- 30 -->
      <g transform="translate(44.987724 248.906859) rotate(-45) scale(0.1 -0.1)">
       <use xlink:href="#HelveticaNeue-Medium-33"/>
       <use xlink:href="#HelveticaNeue-Medium-30" x="55.599991"/>
      </g>
     </g>
    </g>
    <g id="ytick_3">
     <g id="line2d_24">
      <g>
       <use xlink:href="#m5e3267087d" x="59.45" y="198.312297" style="stroke: #000000; stroke-width: 0.8"/>
      </g>
     </g>
     <g id="line2d_25">
      <g>
       <use xlink:href="#m5e3267087d" x="203.45" y="198.312297" style="stroke: #000000; stroke-width: 0.8"/>
      </g>
     </g>
     <g id="text_9">
      <!-- 45 -->
      <g transform="translate(44.987724 207.653312) rotate(-45) scale(0.1 -0.1)">
       <defs>
        <path id="HelveticaNeue-Medium-34" d="M 717 1638 
L 2074 1638 
L 2074 3610 
L 2061 3610 
L 717 1638 
z
M 3341 1062 
L 2765 1062 
L 2765 0 
L 2074 0 
L 2074 1062 
L 154 1062 
L 154 1786 
L 2074 4480 
L 2765 4480 
L 2765 1638 
L 3341 1638 
L 3341 1062 
z
" transform="scale(0.015625)"/>
       </defs>
       <use xlink:href="#HelveticaNeue-Medium-34"/>
       <use xlink:href="#HelveticaNeue-Medium-35" x="55.599991"/>
      </g>
     </g>
    </g>
    <g id="text_10">
     <!-- scatter -->
     <g transform="translate(14.340625 263.344219) rotate(-90) scale(0.1 -0.1)">
      <defs>
       <path id="HelveticaNeue-Medium-73" d="M 934 1062 
Q 966 742 1177 614 
Q 1389 486 1683 486 
Q 1786 486 1917 502 
Q 2048 518 2163 563 
Q 2278 608 2352 694 
Q 2426 781 2419 921 
Q 2413 1062 2317 1152 
Q 2221 1242 2070 1296 
Q 1920 1350 1728 1388 
Q 1536 1427 1338 1472 
Q 1133 1517 944 1581 
Q 755 1645 604 1753 
Q 454 1862 364 2032 
Q 275 2202 275 2451 
Q 275 2720 406 2902 
Q 538 3085 739 3197 
Q 941 3309 1187 3353 
Q 1434 3398 1658 3398 
Q 1914 3398 2147 3344 
Q 2381 3290 2569 3168 
Q 2758 3046 2883 2851 
Q 3008 2656 3040 2381 
L 2278 2381 
Q 2227 2643 2038 2732 
Q 1850 2822 1606 2822 
Q 1530 2822 1424 2809 
Q 1318 2797 1225 2761 
Q 1133 2726 1069 2659 
Q 1005 2592 1005 2483 
Q 1005 2349 1097 2265 
Q 1190 2182 1340 2128 
Q 1491 2074 1683 2035 
Q 1875 1997 2080 1952 
Q 2278 1907 2470 1843 
Q 2662 1779 2812 1670 
Q 2963 1562 3056 1395 
Q 3149 1229 3149 986 
Q 3149 691 3014 486 
Q 2880 282 2665 154 
Q 2451 26 2188 -32 
Q 1926 -90 1670 -90 
Q 1357 -90 1091 -19 
Q 826 51 630 195 
Q 435 339 323 553 
Q 211 768 205 1062 
L 934 1062 
z
" transform="scale(0.015625)"/>
       <path id="HelveticaNeue-Medium-63" d="M 2618 2202 
Q 2573 2509 2371 2665 
Q 2170 2822 1862 2822 
Q 1722 2822 1562 2774 
Q 1402 2726 1267 2595 
Q 1133 2464 1043 2230 
Q 954 1997 954 1619 
Q 954 1414 1002 1209 
Q 1050 1005 1155 845 
Q 1261 685 1427 585 
Q 1594 486 1830 486 
Q 2150 486 2358 684 
Q 2566 883 2618 1242 
L 3347 1242 
Q 3245 595 2857 252 
Q 2470 -90 1830 -90 
Q 1440 -90 1142 41 
Q 845 173 640 400 
Q 435 627 329 940 
Q 224 1254 224 1619 
Q 224 1990 326 2316 
Q 429 2643 633 2883 
Q 838 3123 1142 3260 
Q 1446 3398 1856 3398 
Q 2144 3398 2403 3324 
Q 2662 3251 2864 3104 
Q 3066 2957 3194 2733 
Q 3322 2509 3347 2202 
L 2618 2202 
z
" transform="scale(0.015625)"/>
       <path id="HelveticaNeue-Medium-74" d="M 51 3309 
L 602 3309 
L 602 4301 
L 1331 4301 
L 1331 3309 
L 1990 3309 
L 1990 2765 
L 1331 2765 
L 1331 998 
Q 1331 883 1340 800 
Q 1350 717 1385 659 
Q 1421 602 1491 573 
Q 1562 544 1683 544 
Q 1760 544 1837 547 
Q 1914 550 1990 570 
L 1990 6 
Q 1869 -6 1753 -19 
Q 1638 -32 1517 -32 
Q 1229 -32 1053 22 
Q 877 77 777 182 
Q 678 288 643 448 
Q 608 608 602 813 
L 602 2765 
L 51 2765 
L 51 3309 
z
" transform="scale(0.015625)"/>
       <path id="HelveticaNeue-Medium-72" d="M 384 3309 
L 1069 3309 
L 1069 2669 
L 1082 2669 
Q 1114 2803 1206 2931 
Q 1299 3059 1430 3164 
Q 1562 3270 1722 3334 
Q 1882 3398 2048 3398 
Q 2176 3398 2224 3392 
Q 2272 3386 2323 3379 
L 2323 2675 
Q 2246 2688 2166 2697 
Q 2086 2707 2010 2707 
Q 1824 2707 1661 2633 
Q 1498 2560 1376 2416 
Q 1254 2272 1184 2061 
Q 1114 1850 1114 1574 
L 1114 0 
L 384 0 
L 384 3309 
z
" transform="scale(0.015625)"/>
      </defs>
      <use xlink:href="#HelveticaNeue-Medium-73"/>
      <use xlink:href="#HelveticaNeue-Medium-63" x="51.899994"/>
      <use xlink:href="#HelveticaNeue-Medium-61" x="107.499985"/>
      <use xlink:href="#HelveticaNeue-Medium-74" x="163.099976"/>
      <use xlink:href="#HelveticaNeue-Medium-74" x="196.399963"/>
      <use xlink:href="#HelveticaNeue-Medium-65" x="229.699951"/>
      <use xlink:href="#HelveticaNeue-Medium-72" x="285.299942"/>
     </g>
    </g>
   </g>
   <g id="QuadContourSet_2">
    <path d="M 127.85 328.792128 
L 135.05 330.007338 
L 142.25 330.090822 
L 149.45 330.04034 
L 156.65 328.172939 
L 161.992011 322.92 
L 161.992011 315.72 
L 163.85 310.898191 
L 166.17941 308.52 
L 171.05 303.356504 
L 173.074078 301.32 
L 173.746915 294.12 
L 177.164249 286.92 
L 177.512828 279.72 
L 178.031192 272.52 
L 177.85874 265.32 
L 178.25 261.808444 
L 180.203898 258.12 
L 178.25 255.886349 
L 171.05 251.806825 
L 168.866498 250.92 
L 163.85 247.831276 
L 159.736896 243.72 
L 156.65 239.07822 
L 149.521124 243.72 
L 149.45 243.728153 
L 149.421961 243.72 
L 142.25 237.309851 
L 135.05 239.242423 
L 127.85 237.822169 
L 124.77651 236.52 
L 120.65 229.32 
L 113.45 232.223804 
L 109.153804 236.52 
L 108.148031 243.72 
L 108.820709 250.92 
L 106.25 256.038407 
L 103.106823 250.92 
L 100.111187 243.72 
L 99.05 242.122027 
L 97.619997 243.72 
L 91.85 249.408953 
L 86.858531 250.92 
L 91.85 252.609669 
L 93.747291 258.12 
L 92.257045 265.32 
L 91.992157 272.52 
L 91.85 276.290572 
L 90.760326 279.72 
L 91.85 280.641061 
L 93.806458 286.92 
L 99.05 293.513309 
L 99.228731 294.12 
L 103.233942 301.32 
L 106.25 304.336058 
L 113.45 308.253777 
L 113.766397 308.52 
L 120.65 315.31475 
L 121.977872 315.72 
L 121.977872 322.92 
L 127.85 328.792128 
z
M 135.05 232.616399 
L 139.154436 229.32 
L 135.05 226.023601 
L 128.945093 229.32 
L 135.05 232.616399 
z
" clip-path="url(#p1e4d258868)" style="fill: none; stroke: #000080; stroke-width: 1.5"/>
    <path d="M 135.05 327.288694 
L 142.25 329.386717 
L 149.45 328.118075 
L 154.869815 322.92 
L 154.869815 315.72 
L 156.65 308.52 
L 156.65 308.52 
L 163.022851 301.32 
L 163.784431 294.12 
L 162.794118 286.92 
L 161.077906 279.72 
L 157.892968 272.52 
L 156.65 271.49633 
L 155.081847 272.52 
L 149.45 273.372952 
L 147.641759 272.52 
L 142.25 267.442095 
L 135.05 265.995362 
L 127.85 266.153517 
L 122.259842 265.32 
L 120.65 264.451429 
L 118.044383 265.32 
L 113.950864 272.52 
L 113.45 273.79724 
L 109.327482 279.72 
L 109.520348 286.92 
L 109.373858 294.12 
L 113.45 300.165361 
L 113.763076 301.32 
L 120.65 307.971412 
L 121.036771 308.52 
L 127.85 314.770392 
L 130.276285 315.72 
L 130.276285 322.92 
L 135.05 327.288694 
z
" clip-path="url(#p1e4d258868)" style="fill: none; stroke-dasharray: 9.6,2.4,1.5,2.4; stroke-dashoffset: 0; stroke: #000080; stroke-width: 1.5"/>
    <path d="M 135.05 311.696715 
L 142.25 314.618299 
L 149.45 309.237848 
L 150.023391 308.52 
L 152.179936 301.32 
L 151.780664 294.12 
L 149.45 290.544924 
L 144.003734 286.92 
L 142.25 285.450608 
L 139.620734 286.92 
L 135.05 287.643283 
L 127.85 286.92 
L 124.115738 294.12 
L 124.076032 301.32 
L 127.85 305.476343 
L 131.100246 308.52 
L 135.05 311.696715 
z
" clip-path="url(#p1e4d258868)" style="fill: none; stroke-dasharray: 1.5,2.475; stroke-dashoffset: 0; stroke: #000080; stroke-width: 1.5"/>
    <path d="M 142.25 309.679241 
L 143.707167 308.52 
L 146.762936 301.32 
L 142.25 294.12 
L 142.25 294.12 
L 135.05 292.776673 
L 133.0112 294.12 
L 129.479993 301.32 
L 135.05 306.622794 
L 139.606761 308.52 
L 142.25 309.679241 
z
" clip-path="url(#p1e4d258868)" style="fill: none; stroke-dasharray: 5.55,2.4; stroke-dashoffset: 0; stroke: #800080; stroke-width: 1.5"/>
   </g>
   <g id="patch_9">
    <path d="M 59.45 319.32 
L 59.45 175.32 
" style="fill: none; stroke: #000000; stroke-width: 0.8; stroke-linejoin: miter; stroke-linecap: square"/>
   </g>
   <g id="patch_10">
    <path d="M 203.45 319.32 
L 203.45 175.32 
" style="fill: none; stroke: #000000; stroke-width: 0.8; stroke-linejoin: miter; stroke-linecap: square"/>
   </g>
   <g id="patch_11">
    <path d="M 59.45 319.32 
L 203.45 319.32 
" style="fill: none; stroke: #000000; stroke-width: 0.8; stroke-linejoin: miter; stroke-linecap: square"/>
   </g>
   <g id="patch_12">
    <path d="M 59.45 175.32 
L 203.45 175.32 
" style="fill: none; stroke: #000000; stroke-width: 0.8; stroke-linejoin: miter; stroke-linecap: square"/>
   </g>
  </g>
  <g id="axes_4">
   <g id="patch_13">
    <path d="M 210.65 319.32 
L 354.65 319.32 
L 354.65 175.32 
L 210.65 175.32 
z
" style="fill: #ffffff"/>
   </g>
   <g id="matplotlib.axis_7">
    <g id="xtick_9">
     <g id="line2d_26">
      <g>
       <use xlink:href="#md7df61ea32" x="249.15061" y="319.32" style="stroke: #000000; stroke-width: 0.8"/>
      </g>
     </g>
     <g id="line2d_27">
      <g>
       <use xlink:href="#md7df61ea32" x="249.15061" y="175.32" style="stroke: #000000; stroke-width: 0.8"/>
      </g>
     </g>
     <g id="text_11">
      <!-- 15 -->
      <g transform="translate(247.069064 337.481328) rotate(-45) scale(0.1 -0.1)">
       <use xlink:href="#HelveticaNeue-Medium-31"/>
       <use xlink:href="#HelveticaNeue-Medium-35" x="55.599991"/>
      </g>
     </g>
    </g>
    <g id="xtick_10">
     <g id="line2d_28">
      <g>
       <use xlink:href="#md7df61ea32" x="290.404157" y="319.32" style="stroke: #000000; stroke-width: 0.8"/>
      </g>
     </g>
     <g id="line2d_29">
      <g>
       <use xlink:href="#md7df61ea32" x="290.404157" y="175.32" style="stroke: #000000; stroke-width: 0.8"/>
      </g>
     </g>
     <g id="text_12">
      <!-- 30 -->
      <g transform="translate(288.322611 337.481328) rotate(-45) scale(0.1 -0.1)">
       <use xlink:href="#HelveticaNeue-Medium-33"/>
       <use xlink:href="#HelveticaNeue-Medium-30" x="55.599991"/>
      </g>
     </g>
    </g>
    <g id="xtick_11">
     <g id="line2d_30">
      <g>
       <use xlink:href="#md7df61ea32" x="331.657703" y="319.32" style="stroke: #000000; stroke-width: 0.8"/>
      </g>
     </g>
     <g id="line2d_31">
      <g>
       <use xlink:href="#md7df61ea32" x="331.657703" y="175.32" style="stroke: #000000; stroke-width: 0.8"/>
      </g>
     </g>
     <g id="text_13">
      <!-- 45 -->
      <g transform="translate(329.576158 337.481328) rotate(-45) scale(0.1 -0.1)">
       <use xlink:href="#HelveticaNeue-Medium-34"/>
       <use xlink:href="#HelveticaNeue-Medium-35" x="55.599991"/>
      </g>
     </g>
    </g>
    <g id="text_14">
     <!-- scatter -->
     <g transform="translate(266.625781 369.660625) scale(0.1 -0.1)">
      <use xlink:href="#HelveticaNeue-Medium-73"/>
      <use xlink:href="#HelveticaNeue-Medium-63" x="51.899994"/>
      <use xlink:href="#HelveticaNeue-Medium-61" x="107.499985"/>
      <use xlink:href="#HelveticaNeue-Medium-74" x="163.099976"/>
      <use xlink:href="#HelveticaNeue-Medium-74" x="196.399963"/>
      <use xlink:href="#HelveticaNeue-Medium-65" x="229.699951"/>
      <use xlink:href="#HelveticaNeue-Medium-72" x="285.299942"/>
     </g>
    </g>
   </g>
   <g id="matplotlib.axis_8"/>
   <g id="patch_14">
    <path d="M 210.65 319.32 
L 210.65 303.199828 
L 217.85 303.199828 
L 217.85 247.558098 
L 225.05 247.558098 
L 225.05 188.410909 
L 232.25 188.410909 
L 232.25 212.543188 
L 239.45 212.543188 
L 239.45 260.268874 
L 246.65 260.268874 
L 246.65 286.254312 
L 253.85 286.254312 
L 253.85 303.069404 
L 261.05 303.069404 
L 261.05 313.912737 
L 268.25 313.912737 
L 268.25 316.577326 
L 275.45 316.577326 
L 275.45 317.210395 
L 282.65 317.210395 
L 282.65 318.434466 
L 289.85 318.434466 
L 289.85 319.034937 
L 297.05 319.034937 
L 297.05 319.012455 
L 304.25 319.012455 
L 304.25 319.129572 
L 311.45 319.129572 
L 311.45 319.282212 
L 318.65 319.282212 
L 318.65 319.245428 
L 325.85 319.245428 
L 325.85 319.301291 
L 333.05 319.301291 
L 333.05 319.312352 
L 340.25 319.312352 
L 340.25 319.310533 
L 347.45 319.310533 
L 347.45 319.313702 
L 354.65 319.313702 
L 354.65 319.32 
" clip-path="url(#pe2e27a3500)" style="fill: none; stroke: #800080; stroke-linejoin: miter"/>
   </g>
   <g id="line2d_32">
    <path d="M 223.842619 319.32 
L 223.842619 175.32 
" clip-path="url(#pe2e27a3500)" style="fill: none; stroke-dasharray: 5.55,2.4; stroke-dashoffset: 0; stroke: #800080; stroke-width: 1.5"/>
   </g>
   <g id="line2d_33">
    <path d="M 232.484193 319.32 
L 232.484193 175.32 
" clip-path="url(#pe2e27a3500)" style="fill: none; stroke-dasharray: 5.55,2.4; stroke-dashoffset: 0; stroke: #800080; stroke-width: 1.5"/>
   </g>
   <g id="line2d_34">
    <path d="M 244.772594 319.32 
L 244.772594 175.32 
" clip-path="url(#pe2e27a3500)" style="fill: none; stroke-dasharray: 5.55,2.4; stroke-dashoffset: 0; stroke: #800080; stroke-width: 1.5"/>
   </g>
   <g id="patch_15">
    <path d="M 210.65 319.32 
L 210.65 175.32 
" style="fill: none; stroke: #000000; stroke-width: 0.8; stroke-linejoin: miter; stroke-linecap: square"/>
   </g>
   <g id="patch_16">
    <path d="M 354.65 319.32 
L 354.65 175.32 
" style="fill: none; stroke: #000000; stroke-width: 0.8; stroke-linejoin: miter; stroke-linecap: square"/>
   </g>
   <g id="patch_17">
    <path d="M 210.65 319.32 
L 354.65 319.32 
" style="fill: none; stroke: #000000; stroke-width: 0.8; stroke-linejoin: miter; stroke-linecap: square"/>
   </g>
   <g id="patch_18">
    <path d="M 210.65 175.32 
L 354.65 175.32 
" style="fill: none; stroke: #000000; stroke-width: 0.8; stroke-linejoin: miter; stroke-linecap: square"/>
   </g>
   <g id="text_15">
    <!-- scatter = ${8.94}_{-3.14}^{+4.47}$ -->
    <g transform="translate(230.03 169.32) scale(0.12 -0.12)">
     <defs>
      <path id="DejaVuSans-38" d="M 2034 2216 
Q 1584 2216 1326 1975 
Q 1069 1734 1069 1313 
Q 1069 891 1326 650 
Q 1584 409 2034 409 
Q 2484 409 2743 651 
Q 3003 894 3003 1313 
Q 3003 1734 2745 1975 
Q 2488 2216 2034 2216 
z
M 1403 2484 
Q 997 2584 770 2862 
Q 544 3141 544 3541 
Q 544 4100 942 4425 
Q 1341 4750 2034 4750 
Q 2731 4750 3128 4425 
Q 3525 4100 3525 3541 
Q 3525 3141 3298 2862 
Q 3072 2584 2669 2484 
Q 3125 2378 3379 2068 
Q 3634 1759 3634 1313 
Q 3634 634 3220 271 
Q 2806 -91 2034 -91 
Q 1263 -91 848 271 
Q 434 634 434 1313 
Q 434 1759 690 2068 
Q 947 2378 1403 2484 
z
M 1172 3481 
Q 1172 3119 1398 2916 
Q 1625 2713 2034 2713 
Q 2441 2713 2670 2916 
Q 2900 3119 2900 3481 
Q 2900 3844 2670 4047 
Q 2441 4250 2034 4250 
Q 1625 4250 1398 4047 
Q 1172 3844 1172 3481 
z
" transform="scale(0.015625)"/>
      <path id="DejaVuSans-39" d="M 703 97 
L 703 672 
Q 941 559 1184 500 
Q 1428 441 1663 441 
Q 2288 441 2617 861 
Q 2947 1281 2994 2138 
Q 2813 1869 2534 1725 
Q 2256 1581 1919 1581 
Q 1219 1581 811 2004 
Q 403 2428 403 3163 
Q 403 3881 828 4315 
Q 1253 4750 1959 4750 
Q 2769 4750 3195 4129 
Q 3622 3509 3622 2328 
Q 3622 1225 3098 567 
Q 2575 -91 1691 -91 
Q 1453 -91 1209 -44 
Q 966 3 703 97 
z
M 1959 2075 
Q 2384 2075 2632 2365 
Q 2881 2656 2881 3163 
Q 2881 3666 2632 3958 
Q 2384 4250 1959 4250 
Q 1534 4250 1286 3958 
Q 1038 3666 1038 3163 
Q 1038 2656 1286 2365 
Q 1534 2075 1959 2075 
z
" transform="scale(0.015625)"/>
      <path id="DejaVuSans-37" d="M 525 4666 
L 3525 4666 
L 3525 4397 
L 1831 0 
L 1172 0 
L 2766 4134 
L 525 4134 
L 525 4666 
z
" transform="scale(0.015625)"/>
     </defs>
     <use xlink:href="#HelveticaNeue-Medium-73" transform="translate(0 0.684375)"/>
     <use xlink:href="#HelveticaNeue-Medium-63" transform="translate(51.899994 0.684375)"/>
     <use xlink:href="#HelveticaNeue-Medium-61" transform="translate(107.499985 0.684375)"/>
     <use xlink:href="#HelveticaNeue-Medium-74" transform="translate(163.099976 0.684375)"/>
     <use xlink:href="#HelveticaNeue-Medium-74" transform="translate(196.399963 0.684375)"/>
     <use xlink:href="#HelveticaNeue-Medium-65" transform="translate(229.699951 0.684375)"/>
     <use xlink:href="#HelveticaNeue-Medium-72" transform="translate(285.299942 0.684375)"/>
     <use xlink:href="#HelveticaNeue-Medium-20" transform="translate(320.499939 0.684375)"/>
     <use xlink:href="#HelveticaNeue-Medium-3d" transform="translate(348.299927 0.684375)"/>
     <use xlink:href="#HelveticaNeue-Medium-20" transform="translate(408.299911 0.684375)"/>
     <use xlink:href="#DejaVuSans-38" transform="translate(436.099899 0.684375)"/>
     <use xlink:href="#DejaVuSans-2e" transform="translate(499.722946 0.684375)"/>
     <use xlink:href="#DejaVuSans-39" transform="translate(531.510056 0.684375)"/>
     <use xlink:href="#DejaVuSans-34" transform="translate(595.133102 0.684375)"/>
     <use xlink:href="#DejaVuSans-2b" transform="translate(659.713181 38.965625) scale(0.7)"/>
     <use xlink:href="#DejaVuSans-34" transform="translate(718.365524 38.965625) scale(0.7)"/>
     <use xlink:href="#DejaVuSans-2e" transform="translate(762.901657 38.965625) scale(0.7)"/>
     <use xlink:href="#DejaVuSans-34" transform="translate(785.152634 38.965625) scale(0.7)"/>
     <use xlink:href="#DejaVuSans-37" transform="translate(829.688766 38.965625) scale(0.7)"/>
     <use xlink:href="#DejaVuSans-2212" transform="translate(659.713181 -26.659375) scale(0.7)"/>
     <use xlink:href="#DejaVuSans-33" transform="translate(718.365524 -26.659375) scale(0.7)"/>
     <use xlink:href="#DejaVuSans-2e" transform="translate(762.901657 -26.659375) scale(0.7)"/>
     <use xlink:href="#DejaVuSans-31" transform="translate(785.152634 -26.659375) scale(0.7)"/>
     <use xlink:href="#DejaVuSans-34" transform="translate(829.688766 -26.659375) scale(0.7)"/>
    </g>
   </g>
   <g id="legend_1">
    <g id="text_16">
     <!-- credible prob level -->
     <g transform="translate(263.350812 78.394934) scale(0.1 -0.1)">
      <defs>
       <path id="HelveticaNeue-Medium-64" d="M 3501 0 
L 2810 0 
L 2810 448 
L 2797 448 
Q 2650 160 2368 35 
Q 2086 -90 1773 -90 
Q 1382 -90 1091 48 
Q 800 186 608 422 
Q 416 659 320 982 
Q 224 1306 224 1677 
Q 224 2125 345 2451 
Q 467 2778 668 2989 
Q 870 3200 1129 3299 
Q 1389 3398 1658 3398 
Q 1811 3398 1971 3369 
Q 2131 3341 2278 3277 
Q 2426 3213 2550 3113 
Q 2675 3014 2758 2880 
L 2771 2880 
L 2771 4570 
L 3501 4570 
L 3501 0 
z
M 954 1619 
Q 954 1408 1008 1203 
Q 1062 998 1174 838 
Q 1286 678 1459 582 
Q 1632 486 1869 486 
Q 2112 486 2288 588 
Q 2464 691 2576 857 
Q 2688 1024 2742 1232 
Q 2797 1440 2797 1658 
Q 2797 2208 2550 2515 
Q 2304 2822 1882 2822 
Q 1626 2822 1450 2716 
Q 1274 2611 1162 2441 
Q 1050 2272 1002 2057 
Q 954 1843 954 1619 
z
" transform="scale(0.015625)"/>
       <path id="HelveticaNeue-Medium-69" d="M 403 4570 
L 1133 4570 
L 1133 3878 
L 403 3878 
L 403 4570 
z
M 403 3309 
L 1133 3309 
L 1133 0 
L 403 0 
L 403 3309 
z
" transform="scale(0.015625)"/>
       <path id="HelveticaNeue-Medium-62" d="M 403 4570 
L 1133 4570 
L 1133 2880 
L 1146 2880 
Q 1222 3002 1331 3098 
Q 1440 3194 1571 3261 
Q 1702 3328 1846 3363 
Q 1990 3398 2131 3398 
Q 2522 3398 2813 3260 
Q 3104 3123 3296 2883 
Q 3488 2643 3584 2323 
Q 3680 2003 3680 1638 
Q 3680 1306 3593 992 
Q 3507 678 3331 438 
Q 3155 198 2886 54 
Q 2618 -90 2253 -90 
Q 2086 -90 1916 -67 
Q 1747 -45 1593 19 
Q 1440 83 1315 185 
Q 1190 288 1107 454 
L 1094 454 
L 1094 0 
L 403 0 
L 403 4570 
z
M 2950 1651 
Q 2950 1875 2892 2086 
Q 2835 2298 2720 2461 
Q 2605 2624 2432 2723 
Q 2259 2822 2035 2822 
Q 1574 2822 1340 2502 
Q 1107 2182 1107 1651 
Q 1107 1402 1168 1187 
Q 1229 973 1350 819 
Q 1472 666 1641 576 
Q 1811 486 2035 486 
Q 2285 486 2457 588 
Q 2630 691 2742 854 
Q 2854 1018 2902 1226 
Q 2950 1434 2950 1651 
z
" transform="scale(0.015625)"/>
       <path id="HelveticaNeue-Medium-6c" d="M 403 4570 
L 1133 4570 
L 1133 0 
L 403 0 
L 403 4570 
z
" transform="scale(0.015625)"/>
       <path id="HelveticaNeue-Medium-70" d="M 403 3309 
L 1094 3309 
L 1094 2861 
L 1107 2861 
Q 1261 3149 1536 3273 
Q 1811 3398 2131 3398 
Q 2522 3398 2813 3260 
Q 3104 3123 3296 2883 
Q 3488 2643 3584 2323 
Q 3680 2003 3680 1638 
Q 3680 1306 3593 992 
Q 3507 678 3331 438 
Q 3155 198 2886 54 
Q 2618 -90 2253 -90 
Q 2093 -90 1933 -61 
Q 1773 -32 1625 32 
Q 1478 96 1353 195 
Q 1229 294 1146 429 
L 1133 429 
L 1133 -1222 
L 403 -1222 
L 403 3309 
z
M 2950 1651 
Q 2950 1875 2892 2086 
Q 2835 2298 2720 2461 
Q 2605 2624 2432 2723 
Q 2259 2822 2035 2822 
Q 1574 2822 1340 2502 
Q 1107 2182 1107 1651 
Q 1107 1402 1168 1187 
Q 1229 973 1350 819 
Q 1472 666 1641 576 
Q 1811 486 2035 486 
Q 2285 486 2457 588 
Q 2630 691 2742 854 
Q 2854 1018 2902 1226 
Q 2950 1434 2950 1651 
z
" transform="scale(0.015625)"/>
       <path id="HelveticaNeue-Medium-6f" d="M 1901 -90 
Q 1504 -90 1193 41 
Q 883 173 668 403 
Q 454 634 342 954 
Q 230 1274 230 1658 
Q 230 2035 342 2355 
Q 454 2675 668 2905 
Q 883 3136 1193 3267 
Q 1504 3398 1901 3398 
Q 2298 3398 2608 3267 
Q 2918 3136 3132 2905 
Q 3347 2675 3459 2355 
Q 3571 2035 3571 1658 
Q 3571 1274 3459 954 
Q 3347 634 3132 403 
Q 2918 173 2608 41 
Q 2298 -90 1901 -90 
z
M 1901 486 
Q 2144 486 2323 588 
Q 2502 691 2617 857 
Q 2733 1024 2787 1232 
Q 2842 1440 2842 1658 
Q 2842 1869 2787 2080 
Q 2733 2291 2617 2454 
Q 2502 2618 2323 2720 
Q 2144 2822 1901 2822 
Q 1658 2822 1478 2720 
Q 1299 2618 1184 2454 
Q 1069 2291 1014 2080 
Q 960 1869 960 1658 
Q 960 1440 1014 1232 
Q 1069 1024 1184 857 
Q 1299 691 1478 588 
Q 1658 486 1901 486 
z
" transform="scale(0.015625)"/>
       <path id="HelveticaNeue-Medium-76" d="M 58 3309 
L 851 3309 
L 1690 768 
L 1702 768 
L 2509 3309 
L 3264 3309 
L 2080 0 
L 1261 0 
L 58 3309 
z
" transform="scale(0.015625)"/>
      </defs>
      <use xlink:href="#HelveticaNeue-Medium-63"/>
      <use xlink:href="#HelveticaNeue-Medium-72" x="55.599991"/>
      <use xlink:href="#HelveticaNeue-Medium-65" x="89.049988"/>
      <use xlink:href="#HelveticaNeue-Medium-64" x="144.649979"/>
      <use xlink:href="#HelveticaNeue-Medium-69" x="205.749969"/>
      <use xlink:href="#HelveticaNeue-Medium-62" x="229.84996"/>
      <use xlink:href="#HelveticaNeue-Medium-6c" x="290.949951"/>
      <use xlink:href="#HelveticaNeue-Medium-65" x="315.049942"/>
      <use xlink:href="#HelveticaNeue-Medium-20" x="370.649933"/>
      <use xlink:href="#HelveticaNeue-Medium-70" x="398.449921"/>
      <use xlink:href="#HelveticaNeue-Medium-72" x="459.549911"/>
      <use xlink:href="#HelveticaNeue-Medium-6f" x="492.999908"/>
      <use xlink:href="#HelveticaNeue-Medium-62" x="552.299896"/>
      <use xlink:href="#HelveticaNeue-Medium-20" x="613.399887"/>
      <use xlink:href="#HelveticaNeue-Medium-6c" x="641.199875"/>
      <use xlink:href="#HelveticaNeue-Medium-65" x="665.299866"/>
      <use xlink:href="#HelveticaNeue-Medium-76" x="720.899857"/>
      <use xlink:href="#HelveticaNeue-Medium-65" x="772.79985"/>
      <use xlink:href="#HelveticaNeue-Medium-6c" x="828.399841"/>
     </g>
    </g>
    <g id="line2d_35">
     <path d="M 266.793573 87.58525 
L 272.624573 87.58525 
L 278.455573 87.58525 
" style="fill: none; stroke-dasharray: 5.55,2.4; stroke-dashoffset: 0; stroke: #800080; stroke-width: 1.5"/>
    </g>
    <g id="text_17">
     <!-- 68.3% marginal -->
     <g transform="translate(287.618573 90.50075) scale(0.0833 -0.0833)">
      <defs>
       <path id="HelveticaNeue-Medium-36" d="M 2528 3347 
Q 2502 3622 2332 3792 
Q 2163 3962 1875 3962 
Q 1677 3962 1533 3888 
Q 1389 3814 1289 3692 
Q 1190 3571 1129 3414 
Q 1069 3258 1030 3085 
Q 992 2912 976 2742 
Q 960 2573 947 2426 
L 960 2413 
Q 1107 2682 1366 2813 
Q 1626 2944 1926 2944 
Q 2259 2944 2521 2829 
Q 2784 2714 2966 2512 
Q 3149 2310 3245 2035 
Q 3341 1760 3341 1440 
Q 3341 1114 3235 835 
Q 3130 557 2931 349 
Q 2733 141 2457 25 
Q 2182 -90 1850 -90 
Q 1357 -90 1040 92 
Q 723 275 540 592 
Q 358 909 288 1334 
Q 218 1760 218 2253 
Q 218 2656 304 3065 
Q 390 3475 588 3811 
Q 787 4147 1110 4358 
Q 1434 4570 1907 4570 
Q 2176 4570 2413 4480 
Q 2650 4390 2832 4230 
Q 3014 4070 3129 3846 
Q 3245 3622 3258 3347 
L 2528 3347 
z
M 1824 518 
Q 2022 518 2169 598 
Q 2317 678 2416 806 
Q 2515 934 2563 1104 
Q 2611 1274 2611 1453 
Q 2611 1632 2563 1798 
Q 2515 1965 2416 2089 
Q 2317 2214 2169 2291 
Q 2022 2368 1824 2368 
Q 1626 2368 1475 2294 
Q 1325 2221 1222 2096 
Q 1120 1971 1069 1804 
Q 1018 1638 1018 1453 
Q 1018 1267 1069 1100 
Q 1120 934 1222 803 
Q 1325 672 1475 595 
Q 1626 518 1824 518 
z
" transform="scale(0.015625)"/>
       <path id="HelveticaNeue-Medium-38" d="M 1779 3994 
Q 1485 3994 1280 3818 
Q 1075 3642 1075 3309 
Q 1075 2989 1273 2819 
Q 1472 2650 1779 2650 
Q 2086 2650 2284 2819 
Q 2483 2989 2483 3309 
Q 2483 3642 2278 3818 
Q 2074 3994 1779 3994 
z
M 1779 -90 
Q 1440 -90 1149 6 
Q 858 102 646 284 
Q 435 467 316 729 
Q 198 992 198 1318 
Q 198 1741 419 2029 
Q 640 2317 1018 2413 
L 1018 2426 
Q 710 2541 547 2781 
Q 384 3021 384 3347 
Q 384 3923 745 4246 
Q 1107 4570 1779 4570 
Q 2451 4570 2812 4246 
Q 3174 3923 3174 3347 
Q 3174 3021 3011 2781 
Q 2848 2541 2541 2426 
L 2541 2413 
Q 2918 2317 3139 2029 
Q 3360 1741 3360 1318 
Q 3360 992 3241 729 
Q 3123 467 2912 284 
Q 2701 102 2409 6 
Q 2118 -90 1779 -90 
z
M 1779 486 
Q 2144 486 2387 704 
Q 2630 922 2630 1318 
Q 2630 1690 2387 1898 
Q 2144 2106 1779 2106 
Q 1414 2106 1171 1898 
Q 928 1690 928 1318 
Q 928 922 1171 704 
Q 1414 486 1779 486 
z
" transform="scale(0.015625)"/>
       <path id="HelveticaNeue-Medium-2e" d="M 442 864 
L 1331 864 
L 1331 0 
L 442 0 
L 442 864 
z
" transform="scale(0.015625)"/>
       <path id="HelveticaNeue-Medium-25" d="M 1101 3296 
Q 1101 3117 1126 2960 
Q 1152 2803 1209 2688 
Q 1267 2573 1360 2505 
Q 1453 2438 1587 2438 
Q 1722 2438 1818 2505 
Q 1914 2573 1971 2688 
Q 2029 2803 2057 2960 
Q 2086 3117 2086 3296 
Q 2086 3456 2064 3609 
Q 2042 3763 1984 3884 
Q 1926 4006 1830 4080 
Q 1734 4154 1587 4154 
Q 1440 4154 1344 4080 
Q 1248 4006 1193 3884 
Q 1139 3763 1120 3609 
Q 1101 3456 1101 3296 
z
M 1594 2022 
Q 1306 2022 1101 2124 
Q 896 2227 768 2400 
Q 640 2573 582 2803 
Q 525 3034 525 3296 
Q 525 3552 585 3785 
Q 646 4019 777 4192 
Q 909 4365 1110 4467 
Q 1312 4570 1594 4570 
Q 1875 4570 2076 4467 
Q 2278 4365 2409 4192 
Q 2541 4019 2601 3785 
Q 2662 3552 2662 3296 
Q 2662 3034 2604 2803 
Q 2547 2573 2419 2400 
Q 2291 2227 2086 2124 
Q 1882 2022 1594 2022 
z
M 4314 1184 
Q 4314 1005 4339 848 
Q 4365 691 4422 576 
Q 4480 461 4573 393 
Q 4666 326 4800 326 
Q 4934 326 5030 393 
Q 5126 461 5184 576 
Q 5242 691 5270 848 
Q 5299 1005 5299 1184 
Q 5299 1344 5276 1497 
Q 5254 1651 5196 1772 
Q 5139 1894 5043 1968 
Q 4947 2042 4800 2042 
Q 4653 2042 4557 1968 
Q 4461 1894 4406 1772 
Q 4352 1651 4333 1497 
Q 4314 1344 4314 1184 
z
M 4806 -90 
Q 4518 -90 4313 12 
Q 4109 115 3981 288 
Q 3853 461 3795 691 
Q 3738 922 3738 1184 
Q 3738 1440 3798 1673 
Q 3859 1907 3990 2080 
Q 4122 2253 4323 2355 
Q 4525 2458 4806 2458 
Q 5088 2458 5289 2355 
Q 5491 2253 5622 2080 
Q 5754 1907 5814 1673 
Q 5875 1440 5875 1184 
Q 5875 922 5817 691 
Q 5760 461 5632 288 
Q 5504 115 5299 12 
Q 5094 -90 4806 -90 
z
M 4154 4634 
L 4640 4634 
L 2163 -154 
L 1664 -154 
L 4154 4634 
z
" transform="scale(0.015625)"/>
       <path id="HelveticaNeue-Medium-67" d="M 3443 173 
Q 3443 -576 3024 -944 
Q 2605 -1312 1818 -1312 
Q 1568 -1312 1315 -1261 
Q 1062 -1210 854 -1088 
Q 646 -966 505 -768 
Q 365 -570 339 -282 
L 1069 -282 
Q 1101 -435 1177 -531 
Q 1254 -627 1360 -681 
Q 1466 -736 1594 -752 
Q 1722 -768 1862 -768 
Q 2304 -768 2509 -550 
Q 2714 -333 2714 77 
L 2714 582 
L 2701 582 
Q 2547 307 2281 153 
Q 2016 0 1709 0 
Q 1312 0 1033 137 
Q 755 275 572 515 
Q 390 755 307 1068 
Q 224 1382 224 1741 
Q 224 2074 326 2374 
Q 429 2675 621 2902 
Q 813 3130 1091 3264 
Q 1370 3398 1722 3398 
Q 2035 3398 2297 3267 
Q 2560 3136 2701 2854 
L 2714 2854 
L 2714 3309 
L 3443 3309 
L 3443 173 
z
M 1824 576 
Q 2067 576 2236 675 
Q 2406 774 2512 937 
Q 2618 1101 2666 1309 
Q 2714 1517 2714 1728 
Q 2714 1939 2662 2137 
Q 2611 2336 2505 2489 
Q 2400 2643 2230 2732 
Q 2061 2822 1824 2822 
Q 1581 2822 1414 2720 
Q 1248 2618 1145 2454 
Q 1043 2291 998 2083 
Q 954 1875 954 1670 
Q 954 1466 1005 1270 
Q 1056 1075 1161 921 
Q 1267 768 1430 672 
Q 1594 576 1824 576 
z
" transform="scale(0.015625)"/>
      </defs>
      <use xlink:href="#HelveticaNeue-Medium-36"/>
      <use xlink:href="#HelveticaNeue-Medium-38" x="55.599991"/>
      <use xlink:href="#HelveticaNeue-Medium-2e" x="111.199982"/>
      <use xlink:href="#HelveticaNeue-Medium-33" x="138.999969"/>
      <use xlink:href="#HelveticaNeue-Medium-25" x="194.59996"/>
      <use xlink:href="#HelveticaNeue-Medium-20" x="294.599945"/>
      <use xlink:href="#HelveticaNeue-Medium-6d" x="322.399933"/>
      <use xlink:href="#HelveticaNeue-Medium-61" x="409.399918"/>
      <use xlink:href="#HelveticaNeue-Medium-72" x="464.999908"/>
      <use xlink:href="#HelveticaNeue-Medium-67" x="500.199905"/>
      <use xlink:href="#HelveticaNeue-Medium-69" x="559.499893"/>
      <use xlink:href="#HelveticaNeue-Medium-6e" x="583.599884"/>
      <use xlink:href="#HelveticaNeue-Medium-61" x="640.999878"/>
      <use xlink:href="#HelveticaNeue-Medium-6c" x="696.599869"/>
     </g>
    </g>
    <g id="line2d_36">
     <path d="M 266.793573 99.406041 
L 272.624573 99.406041 
L 278.455573 99.406041 
" style="fill: none; stroke-dasharray: 5.55,2.4; stroke-dashoffset: 0; stroke: #800080; stroke-width: 1.5"/>
    </g>
    <g id="text_18">
     <!-- 39.3% -->
     <g transform="translate(287.618573 102.321541) scale(0.0833 -0.0833)">
      <defs>
       <path id="HelveticaNeue-Medium-39" d="M 1030 1133 
Q 1056 858 1225 688 
Q 1395 518 1683 518 
Q 1978 518 2154 675 
Q 2330 832 2426 1065 
Q 2522 1299 2557 1564 
Q 2592 1830 2611 2054 
L 2598 2067 
Q 2451 1805 2195 1667 
Q 1939 1530 1632 1530 
Q 1312 1530 1053 1638 
Q 794 1747 608 1942 
Q 422 2138 320 2416 
Q 218 2694 218 3040 
Q 218 3366 320 3644 
Q 422 3923 620 4131 
Q 819 4339 1107 4454 
Q 1395 4570 1760 4570 
Q 2234 4570 2541 4387 
Q 2848 4205 3024 3888 
Q 3200 3571 3270 3142 
Q 3341 2714 3341 2227 
Q 3341 1824 3254 1414 
Q 3168 1005 2969 669 
Q 2771 333 2448 121 
Q 2125 -90 1651 -90 
Q 1382 -90 1145 0 
Q 909 90 726 250 
Q 544 410 429 634 
Q 314 858 301 1133 
L 1030 1133 
z
M 1728 3962 
Q 1530 3962 1382 3888 
Q 1235 3814 1139 3686 
Q 1043 3558 995 3392 
Q 947 3226 947 3046 
Q 947 2861 995 2691 
Q 1043 2522 1139 2394 
Q 1235 2266 1382 2186 
Q 1530 2106 1728 2106 
Q 1933 2106 2086 2182 
Q 2240 2259 2339 2390 
Q 2438 2522 2489 2691 
Q 2541 2861 2541 3046 
Q 2541 3226 2489 3392 
Q 2438 3558 2339 3683 
Q 2240 3808 2086 3885 
Q 1933 3962 1728 3962 
z
" transform="scale(0.015625)"/>
      </defs>
      <use xlink:href="#HelveticaNeue-Medium-33"/>
      <use xlink:href="#HelveticaNeue-Medium-39" x="55.599991"/>
      <use xlink:href="#HelveticaNeue-Medium-2e" x="111.199982"/>
      <use xlink:href="#HelveticaNeue-Medium-33" x="138.999969"/>
      <use xlink:href="#HelveticaNeue-Medium-25" x="194.59996"/>
     </g>
    </g>
    <g id="line2d_37">
     <path d="M 266.793573 111.109691 
L 272.624573 111.109691 
L 278.455573 111.109691 
" style="fill: none; stroke-dasharray: 1.5,2.475; stroke-dashoffset: 0; stroke: #000080; stroke-width: 1.5"/>
    </g>
    <g id="text_19">
     <!-- 68.3% -->
     <g transform="translate(287.618573 114.025191) scale(0.0833 -0.0833)">
      <use xlink:href="#HelveticaNeue-Medium-36"/>
      <use xlink:href="#HelveticaNeue-Medium-38" x="55.599991"/>
      <use xlink:href="#HelveticaNeue-Medium-2e" x="111.199982"/>
      <use xlink:href="#HelveticaNeue-Medium-33" x="138.999969"/>
      <use xlink:href="#HelveticaNeue-Medium-25" x="194.59996"/>
     </g>
    </g>
    <g id="line2d_38">
     <path d="M 266.793573 122.813341 
L 272.624573 122.813341 
L 278.455573 122.813341 
" style="fill: none; stroke-dasharray: 9.6,2.4,1.5,2.4; stroke-dashoffset: 0; stroke: #000080; stroke-width: 1.5"/>
    </g>
    <g id="text_20">
     <!-- 95.5% -->
     <g transform="translate(287.618573 125.728841) scale(0.0833 -0.0833)">
      <use xlink:href="#HelveticaNeue-Medium-39"/>
      <use xlink:href="#HelveticaNeue-Medium-35" x="55.599991"/>
      <use xlink:href="#HelveticaNeue-Medium-2e" x="111.199982"/>
      <use xlink:href="#HelveticaNeue-Medium-35" x="138.999969"/>
      <use xlink:href="#HelveticaNeue-Medium-25" x="194.59996"/>
     </g>
    </g>
    <g id="line2d_39">
     <path d="M 266.793573 134.516991 
L 272.624573 134.516991 
L 278.455573 134.516991 
" style="fill: none; stroke: #000080; stroke-width: 1.5"/>
    </g>
    <g id="text_21">
     <!-- 99.7% -->
     <g transform="translate(287.618573 137.432491) scale(0.0833 -0.0833)">
      <defs>
       <path id="HelveticaNeue-Medium-37" d="M 224 4480 
L 3290 4480 
L 3290 3872 
Q 2938 3475 2650 3049 
Q 2362 2624 2147 2147 
Q 1933 1670 1798 1139 
Q 1664 608 1619 0 
L 819 0 
Q 858 531 1002 1049 
Q 1146 1568 1373 2054 
Q 1600 2541 1901 2989 
Q 2202 3437 2547 3827 
L 224 3827 
L 224 4480 
z
" transform="scale(0.015625)"/>
      </defs>
      <use xlink:href="#HelveticaNeue-Medium-39"/>
      <use xlink:href="#HelveticaNeue-Medium-39" x="55.599991"/>
      <use xlink:href="#HelveticaNeue-Medium-2e" x="111.199982"/>
      <use xlink:href="#HelveticaNeue-Medium-37" x="138.999969"/>
      <use xlink:href="#HelveticaNeue-Medium-25" x="194.59996"/>
     </g>
    </g>
   </g>
  </g>
 </g>
 <defs>
  <clipPath id="p044fa29bd8">
   <rect x="59.45" y="24.12" width="144" height="144"/>
  </clipPath>
  <clipPath id="p1e4d258868">
   <rect x="59.45" y="175.32" width="144" height="144"/>
  </clipPath>
  <clipPath id="pe2e27a3500">
   <rect x="210.65" y="175.32" width="144" height="144"/>
  </clipPath>
 </defs>
</svg>
