<?xml version="1.0" encoding="utf-8" standalone="no"?>
<!DOCTYPE svg PUBLIC "-//W3C//DTD SVG 1.1//EN"
  "http://www.w3.org/Graphics/SVG/1.1/DTD/svg11.dtd">
<svg xmlns:xlink="http://www.w3.org/1999/xlink" width="567.705527pt" height="567.178125pt" viewBox="0 0 567.705527 567.178125" xmlns="http://www.w3.org/2000/svg" version="1.1">
 <metadata>
  <rdf:RDF xmlns:dc="http://purl.org/dc/elements/1.1/" xmlns:cc="http://creativecommons.org/ns#" xmlns:rdf="http://www.w3.org/1999/02/22-rdf-syntax-ns#">
   <cc:Work>
    <dc:type rdf:resource="http://purl.org/dc/dcmitype/StillImage"/>
    <dc:date>2022-09-09T09:42:17.211215</dc:date>
    <dc:format>image/svg+xml</dc:format>
    <dc:creator>
     <cc:Agent>
      <dc:title>Matplotlib v3.5.1, https://matplotlib.org/</dc:title>
     </cc:Agent>
    </dc:creator>
   </cc:Work>
  </rdf:RDF>
 </metadata>
 <defs>
  <style type="text/css">*{stroke-linejoin: round; stroke-linecap: butt}</style>
 </defs>
 <g id="figure_1">
  <g id="patch_1">
   <path d="M 0 567.178125 
L 567.705527 567.178125 
L 567.705527 0 
L 0 0 
z
" style="fill: #ffffff"/>
  </g>
  <g id="axes_1">
   <g id="patch_2">
    <path d="M 39.69 525.85 
L 300.097764 525.85 
L 300.097764 266.525 
L 39.69 266.525 
z
" style="fill: #ffffff"/>
   </g>
   <g id="matplotlib.axis_1">
    <g id="xtick_1">
     <g id="line2d_1">
      <defs>
       <path id="m2cb8806280" d="M 0 0 
L 0 -3.5 
" style="stroke: #000000; stroke-width: 0.8"/>
      </defs>
      <g>
       <use xlink:href="#m2cb8806280" x="60.035712" y="525.85" style="stroke: #000000; stroke-width: 0.8"/>
      </g>
     </g>
     <g id="line2d_2">
      <defs>
       <path id="m38113c591b" d="M 0 0 
L 0 3.5 
" style="stroke: #000000; stroke-width: 0.8"/>
      </defs>
      <g>
       <use xlink:href="#m38113c591b" x="60.035712" y="266.525" style="stroke: #000000; stroke-width: 0.8"/>
      </g>
     </g>
     <g id="text_1">
      <!-- $\mathdefault{−20}$ -->
      <g transform="translate(50.575712 537.204687)scale(0.11 -0.11)">
       <defs>
        <path id="HelveticaNeue-Medium-2212" d="M 3533 1293 
L 3533 1946 
L 307 1946 
L 307 1293 
L 3533 1293 
z
" transform="scale(0.015625)"/>
        <path id="HelveticaNeue-Medium-32" d="M 3309 653 
L 1126 653 
C 1254 1050 1798 1325 2317 1683 
C 2829 2042 3315 2483 3315 3194 
C 3315 3770 2970 4570 1875 4570 
C 877 4570 333 3834 333 2842 
L 1062 2842 
C 1082 3469 1254 3962 1830 3962 
C 2458 3962 2592 3488 2586 3168 
C 2573 2470 1818 2118 1235 1696 
C 634 1293 256 736 250 0 
L 3309 0 
L 3309 653 
z
" transform="scale(0.015625)"/>
        <path id="HelveticaNeue-Medium-30" d="M 1779 518 
C 1139 518 960 1306 960 2240 
C 960 3174 1139 3962 1779 3962 
C 2419 3962 2598 3174 2598 2240 
C 2598 1306 2419 518 1779 518 
z
M 1779 4570 
C 493 4570 230 3258 230 2240 
C 230 1222 493 -90 1779 -90 
C 3066 -90 3328 1222 3328 2240 
C 3328 3258 3066 4570 1779 4570 
z
" transform="scale(0.015625)"/>
       </defs>
       <use xlink:href="#HelveticaNeue-Medium-2212" transform="translate(0 0.59375)"/>
       <use xlink:href="#HelveticaNeue-Medium-32" transform="translate(59.999985 0.59375)"/>
       <use xlink:href="#HelveticaNeue-Medium-30" transform="translate(115.599976 0.59375)"/>
      </g>
     </g>
    </g>
    <g id="xtick_2">
     <g id="line2d_3">
      <g>
       <use xlink:href="#m2cb8806280" x="122.293725" y="525.85" style="stroke: #000000; stroke-width: 0.8"/>
      </g>
     </g>
     <g id="line2d_4">
      <g>
       <use xlink:href="#m38113c591b" x="122.293725" y="266.525" style="stroke: #000000; stroke-width: 0.8"/>
      </g>
     </g>
     <g id="text_2">
      <!-- $\mathdefault{−10}$ -->
      <g transform="translate(112.833725 537.204687)scale(0.11 -0.11)">
       <defs>
        <path id="HelveticaNeue-Medium-31" d="M 339 3162 
L 1440 3162 
L 1440 0 
L 2240 0 
L 2240 4480 
L 1645 4480 
C 1536 3942 954 3731 339 3738 
L 339 3162 
z
" transform="scale(0.015625)"/>
       </defs>
       <use xlink:href="#HelveticaNeue-Medium-2212" transform="translate(0 0.59375)"/>
       <use xlink:href="#HelveticaNeue-Medium-31" transform="translate(59.999985 0.59375)"/>
       <use xlink:href="#HelveticaNeue-Medium-30" transform="translate(115.599976 0.59375)"/>
      </g>
     </g>
    </g>
    <g id="xtick_3">
     <g id="line2d_5">
      <g>
       <use xlink:href="#m2cb8806280" x="184.551738" y="525.85" style="stroke: #000000; stroke-width: 0.8"/>
      </g>
     </g>
     <g id="line2d_6">
      <g>
       <use xlink:href="#m38113c591b" x="184.551738" y="266.525" style="stroke: #000000; stroke-width: 0.8"/>
      </g>
     </g>
     <g id="text_3">
      <!-- $\mathdefault{0}$ -->
      <g transform="translate(181.471738 537.204687)scale(0.11 -0.11)">
       <use xlink:href="#HelveticaNeue-Medium-30" transform="translate(0 0.59375)"/>
      </g>
     </g>
    </g>
    <g id="xtick_4">
     <g id="line2d_7">
      <g>
       <use xlink:href="#m2cb8806280" x="246.809752" y="525.85" style="stroke: #000000; stroke-width: 0.8"/>
      </g>
     </g>
     <g id="line2d_8">
      <g>
       <use xlink:href="#m38113c591b" x="246.809752" y="266.525" style="stroke: #000000; stroke-width: 0.8"/>
      </g>
     </g>
     <g id="text_4">
      <!-- $\mathdefault{10}$ -->
      <g transform="translate(240.649752 537.204687)scale(0.11 -0.11)">
       <use xlink:href="#HelveticaNeue-Medium-31" transform="translate(0 0.59375)"/>
       <use xlink:href="#HelveticaNeue-Medium-30" transform="translate(55.599991 0.59375)"/>
      </g>
     </g>
    </g>
    <g id="text_5">
     <!-- mean -->
     <g transform="translate(152.002319 557.305)scale(0.14 -0.14)">
      <defs>
       <path id="HelveticaNeue-Medium-6d" d="M 384 0 
L 1114 0 
L 1114 1965 
C 1114 2515 1459 2822 1837 2822 
C 2278 2822 2419 2579 2419 2125 
L 2419 0 
L 3149 0 
L 3149 1939 
C 3149 2496 3360 2822 3853 2822 
C 4422 2822 4454 2458 4454 1933 
L 4454 0 
L 5184 0 
L 5184 2285 
C 5184 3091 4774 3398 4077 3398 
C 3597 3398 3283 3187 3040 2848 
C 2893 3226 2515 3398 2112 3398 
C 1587 3398 1312 3174 1094 2848 
L 1075 2848 
L 1075 3309 
L 384 3309 
L 384 0 
z
" transform="scale(0.015625)"/>
       <path id="HelveticaNeue-Medium-65" d="M 3386 1466 
C 3507 2458 2867 3398 1824 3398 
C 838 3398 224 2592 224 1651 
C 224 634 806 -90 1843 -90 
C 2566 -90 3181 314 3341 1037 
L 2650 1037 
C 2522 672 2266 486 1843 486 
C 1235 486 954 947 954 1466 
L 3386 1466 
z
M 954 1946 
C 973 2438 1318 2822 1824 2822 
C 2317 2822 2630 2406 2656 1946 
L 954 1946 
z
" transform="scale(0.015625)"/>
       <path id="HelveticaNeue-Medium-61" d="M 2426 1114 
C 2426 653 1926 486 1606 486 
C 1350 486 934 582 934 909 
C 934 1293 1216 1408 1530 1459 
C 1850 1517 2202 1510 2426 1658 
L 2426 1114 
z
M 3155 2438 
C 3155 3136 2477 3398 1830 3398 
C 1101 3398 378 3149 326 2298 
L 1056 2298 
C 1088 2656 1376 2822 1786 2822 
C 2080 2822 2470 2752 2470 2374 
C 2470 1946 2003 2003 1478 1907 
C 864 1837 205 1702 205 877 
C 205 230 742 -90 1338 -90 
C 1728 -90 2195 32 2483 314 
C 2541 13 2752 -90 3046 -90 
C 3168 -90 3398 -45 3507 -6 
L 3507 499 
C 3430 486 3373 486 3328 486 
C 3194 486 3155 557 3155 736 
L 3155 2438 
z
" transform="scale(0.015625)"/>
       <path id="HelveticaNeue-Medium-6e" d="M 384 0 
L 1114 0 
L 1114 1952 
C 1114 2438 1427 2822 1914 2822 
C 2342 2822 2547 2598 2560 2080 
L 2560 0 
L 3290 0 
L 3290 2272 
C 3290 3014 2835 3398 2118 3398 
C 1683 3398 1306 3174 1088 2810 
L 1075 2822 
L 1075 3309 
L 384 3309 
L 384 0 
z
" transform="scale(0.015625)"/>
      </defs>
      <use xlink:href="#HelveticaNeue-Medium-6d"/>
      <use xlink:href="#HelveticaNeue-Medium-65" x="86.999985"/>
      <use xlink:href="#HelveticaNeue-Medium-61" x="142.599976"/>
      <use xlink:href="#HelveticaNeue-Medium-6e" x="198.199966"/>
     </g>
    </g>
   </g>
   <g id="matplotlib.axis_2">
    <g id="ytick_1">
     <g id="line2d_9">
      <defs>
       <path id="m11d3d62fee" d="M 0 0 
L 3.5 0 
" style="stroke: #000000; stroke-width: 0.8"/>
      </defs>
      <g>
       <use xlink:href="#m11d3d62fee" x="39.69" y="513.479881" style="stroke: #000000; stroke-width: 0.8"/>
      </g>
     </g>
     <g id="line2d_10">
      <defs>
       <path id="m6ba43ecf34" d="M 0 0 
L -3.5 0 
" style="stroke: #000000; stroke-width: 0.8"/>
      </defs>
      <g>
       <use xlink:href="#m6ba43ecf34" x="300.097764" y="513.479881" style="stroke: #000000; stroke-width: 0.8"/>
      </g>
     </g>
     <g id="text_6">
      <!-- $\mathdefault{0}$ -->
      <g transform="translate(30.03 517.407225)scale(0.11 -0.11)">
       <use xlink:href="#HelveticaNeue-Medium-30" transform="translate(0 0.59375)"/>
      </g>
     </g>
    </g>
    <g id="ytick_2">
     <g id="line2d_11">
      <g>
       <use xlink:href="#m11d3d62fee" x="39.69" y="455.719712" style="stroke: #000000; stroke-width: 0.8"/>
      </g>
     </g>
     <g id="line2d_12">
      <g>
       <use xlink:href="#m6ba43ecf34" x="300.097764" y="455.719712" style="stroke: #000000; stroke-width: 0.8"/>
      </g>
     </g>
     <g id="text_7">
      <!-- $\mathdefault{10}$ -->
      <g transform="translate(23.87 459.647056)scale(0.11 -0.11)">
       <use xlink:href="#HelveticaNeue-Medium-31" transform="translate(0 0.59375)"/>
       <use xlink:href="#HelveticaNeue-Medium-30" transform="translate(55.599991 0.59375)"/>
      </g>
     </g>
    </g>
    <g id="ytick_3">
     <g id="line2d_13">
      <g>
       <use xlink:href="#m11d3d62fee" x="39.69" y="397.959543" style="stroke: #000000; stroke-width: 0.8"/>
      </g>
     </g>
     <g id="line2d_14">
      <g>
       <use xlink:href="#m6ba43ecf34" x="300.097764" y="397.959543" style="stroke: #000000; stroke-width: 0.8"/>
      </g>
     </g>
     <g id="text_8">
      <!-- $\mathdefault{20}$ -->
      <g transform="translate(23.87 401.886887)scale(0.11 -0.11)">
       <use xlink:href="#HelveticaNeue-Medium-32" transform="translate(0 0.59375)"/>
       <use xlink:href="#HelveticaNeue-Medium-30" transform="translate(55.599991 0.59375)"/>
      </g>
     </g>
    </g>
    <g id="ytick_4">
     <g id="line2d_15">
      <g>
       <use xlink:href="#m11d3d62fee" x="39.69" y="340.199374" style="stroke: #000000; stroke-width: 0.8"/>
      </g>
     </g>
     <g id="line2d_16">
      <g>
       <use xlink:href="#m6ba43ecf34" x="300.097764" y="340.199374" style="stroke: #000000; stroke-width: 0.8"/>
      </g>
     </g>
     <g id="text_9">
      <!-- $\mathdefault{30}$ -->
      <g transform="translate(23.87 344.126718)scale(0.11 -0.11)">
       <defs>
        <path id="HelveticaNeue-Medium-33" d="M 1459 2080 
C 2035 2106 2630 2016 2630 1318 
C 2630 806 2259 518 1773 518 
C 1203 518 909 928 928 1472 
L 198 1472 
C 218 538 736 -90 1773 -90 
C 2630 -90 3360 435 3360 1280 
C 3360 1856 3053 2298 2547 2400 
L 2547 2413 
C 2976 2566 3181 2925 3181 3373 
C 3181 4166 2464 4570 1766 4570 
C 864 4570 320 3917 282 3046 
L 1011 3046 
C 998 3507 1248 3962 1754 3962 
C 2157 3962 2451 3706 2451 3328 
C 2451 2778 1946 2605 1459 2624 
L 1459 2080 
z
" transform="scale(0.015625)"/>
       </defs>
       <use xlink:href="#HelveticaNeue-Medium-33" transform="translate(0 0.59375)"/>
       <use xlink:href="#HelveticaNeue-Medium-30" transform="translate(55.599991 0.59375)"/>
      </g>
     </g>
    </g>
    <g id="ytick_5">
     <g id="line2d_17">
      <g>
       <use xlink:href="#m11d3d62fee" x="39.69" y="282.439206" style="stroke: #000000; stroke-width: 0.8"/>
      </g>
     </g>
     <g id="line2d_18">
      <g>
       <use xlink:href="#m6ba43ecf34" x="300.097764" y="282.439206" style="stroke: #000000; stroke-width: 0.8"/>
      </g>
     </g>
     <g id="text_10">
      <!-- $\mathdefault{40}$ -->
      <g transform="translate(23.87 286.366549)scale(0.11 -0.11)">
       <defs>
        <path id="HelveticaNeue-Medium-34" d="M 3341 1638 
L 2765 1638 
L 2765 4480 
L 2074 4480 
L 154 1786 
L 154 1062 
L 2074 1062 
L 2074 0 
L 2765 0 
L 2765 1062 
L 3341 1062 
L 3341 1638 
z
M 2061 3610 
L 2074 3610 
L 2074 1638 
L 717 1638 
L 2061 3610 
z
" transform="scale(0.015625)"/>
       </defs>
       <use xlink:href="#HelveticaNeue-Medium-34" transform="translate(0 0.59375)"/>
       <use xlink:href="#HelveticaNeue-Medium-30" transform="translate(55.599991 0.59375)"/>
      </g>
     </g>
    </g>
    <g id="text_11">
     <!-- scatter -->
     <g transform="translate(17.196875 418.621406)rotate(-90)scale(0.14 -0.14)">
      <defs>
       <path id="HelveticaNeue-Medium-73" d="M 205 1062 
C 218 282 838 -90 1670 -90 
C 2355 -90 3149 198 3149 986 
C 3149 1638 2611 1830 2080 1952 
C 1542 2074 1005 2125 1005 2483 
C 1005 2771 1395 2822 1606 2822 
C 1926 2822 2214 2726 2278 2381 
L 3040 2381 
C 2950 3117 2336 3398 1658 3398 
C 1056 3398 275 3174 275 2451 
C 275 1779 800 1587 1338 1472 
C 1869 1350 2400 1306 2419 922 
C 2438 544 1958 486 1683 486 
C 1293 486 973 640 934 1062 
L 205 1062 
z
" transform="scale(0.015625)"/>
       <path id="HelveticaNeue-Medium-63" d="M 3347 2202 
C 3277 3014 2624 3398 1856 3398 
C 768 3398 224 2618 224 1619 
C 224 646 794 -90 1830 -90 
C 2682 -90 3213 384 3347 1242 
L 2618 1242 
C 2547 768 2253 486 1830 486 
C 1197 486 954 1069 954 1619 
C 954 2624 1485 2822 1862 2822 
C 2266 2822 2560 2605 2618 2202 
L 3347 2202 
z
" transform="scale(0.015625)"/>
       <path id="HelveticaNeue-Medium-74" d="M 51 2765 
L 602 2765 
L 602 813 
C 614 262 755 -32 1517 -32 
C 1677 -32 1830 -6 1990 6 
L 1990 570 
C 1888 544 1786 544 1683 544 
C 1357 544 1331 698 1331 998 
L 1331 2765 
L 1990 2765 
L 1990 3309 
L 1331 3309 
L 1331 4301 
L 602 4301 
L 602 3309 
L 51 3309 
L 51 2765 
z
" transform="scale(0.015625)"/>
       <path id="HelveticaNeue-Medium-72" d="M 384 0 
L 1114 0 
L 1114 1574 
C 1114 2304 1510 2707 2010 2707 
C 2112 2707 2221 2688 2323 2675 
L 2323 3379 
C 2259 3386 2214 3398 2048 3398 
C 1600 3398 1165 3021 1082 2669 
L 1069 2669 
L 1069 3309 
L 384 3309 
L 384 0 
z
" transform="scale(0.015625)"/>
      </defs>
      <use xlink:href="#HelveticaNeue-Medium-73"/>
      <use xlink:href="#HelveticaNeue-Medium-63" x="51.899994"/>
      <use xlink:href="#HelveticaNeue-Medium-61" x="107.499985"/>
      <use xlink:href="#HelveticaNeue-Medium-74" x="163.099976"/>
      <use xlink:href="#HelveticaNeue-Medium-74" x="196.399963"/>
      <use xlink:href="#HelveticaNeue-Medium-65" x="229.699951"/>
      <use xlink:href="#HelveticaNeue-Medium-72" x="285.299942"/>
     </g>
    </g>
   </g>
   <g id="PathCollection_1">
    <path d="M 195.969741 500.886901 
L 197.221364 501.001252 
L 198.472987 501.08344 
L 199.72461 501.125175 
L 200.976233 501.131486 
L 202.227856 501.106488 
L 203.479479 501.036703 
L 204.731102 500.928051 
L 205.982725 500.779173 
L 206.231968 500.741504 
L 207.234348 500.59244 
L 208.485971 500.366533 
L 209.737594 500.08854 
L 210.989217 499.749545 
L 211.770643 499.503589 
L 212.240841 499.352654 
L 213.492464 498.878136 
L 214.744087 498.312243 
L 214.84101 498.265674 
L 215.99571 497.699691 
L 217.172032 497.02776 
L 217.247333 496.982584 
L 218.498956 496.136283 
L 218.966428 495.789845 
L 219.750579 495.160593 
L 220.427156 494.55193 
L 221.002202 493.980456 
L 221.631893 493.314015 
L 222.253825 492.582855 
L 222.665543 492.076101 
L 223.505448 490.94117 
L 223.578403 490.838186 
L 224.359975 489.600271 
L 224.757071 488.849527 
L 225.007413 488.362356 
L 225.635314 487.124442 
L 226.008694 486.190766 
L 226.128774 485.886527 
L 226.562441 484.648612 
L 226.933433 483.410697 
L 227.241159 482.172783 
L 227.260317 482.07709 
L 227.490724 480.934868 
L 227.679225 479.696953 
L 227.854676 478.459038 
L 227.965336 477.221124 
L 228.039544 475.983209 
L 228.066458 474.745294 
L 228.067065 473.507379 
L 228.056233 472.269465 
L 228.019552 471.03155 
L 227.927972 469.793635 
L 227.803427 468.55572 
L 227.638424 467.317806 
L 227.437467 466.079891 
L 227.260317 465.110441 
L 227.212752 464.841976 
L 226.97234 463.604061 
L 226.686838 462.366147 
L 226.366432 461.128232 
L 226.008694 459.920201 
L 226.000105 459.890317 
L 225.622486 458.652402 
L 225.201365 457.414488 
L 224.757071 456.219209 
L 224.741159 456.176573 
L 224.265274 454.938658 
L 223.725572 453.700743 
L 223.505448 453.23825 
L 223.14198 452.462829 
L 222.513869 451.224914 
L 222.253825 450.716463 
L 221.884793 449.986999 
L 221.149704 448.749084 
L 221.002202 448.50344 
L 220.404317 447.51117 
L 219.750579 446.498081 
L 219.60191 446.273255 
L 218.741893 445.03534 
L 218.498956 444.702477 
L 217.827521 443.797425 
L 217.247333 443.056604 
L 216.85102 442.559511 
L 215.99571 441.520719 
L 215.828832 441.321596 
L 214.755912 440.083681 
L 214.744087 440.070652 
L 213.555322 438.845766 
L 213.492464 438.782784 
L 212.324202 437.607852 
L 212.240841 437.526206 
L 210.989217 436.377447 
L 210.980651 436.369937 
L 209.737594 435.322598 
L 209.510196 435.132022 
L 208.485971 434.275781 
L 207.993937 433.894107 
L 207.234348 433.329692 
L 206.246805 432.656193 
L 205.982725 432.471061 
L 204.731102 431.614352 
L 204.423559 431.418278 
L 203.479479 430.81287 
L 202.407288 430.180363 
L 202.227856 430.076381 
L 200.976233 429.377011 
L 200.140436 428.942448 
L 199.72461 428.716424 
L 198.472987 428.084617 
L 197.643601 427.704534 
L 197.221364 427.517278 
L 195.969741 427.000829 
L 194.718117 426.522026 
L 194.575119 426.466619 
L 193.466494 426.018281 
L 192.214871 425.606532 
L 190.978231 425.228704 
L 190.963248 425.223975 
L 189.711625 424.849435 
L 188.460002 424.521535 
L 187.208379 424.225414 
L 185.956756 423.999024 
L 185.908053 423.990789 
L 184.705133 423.774378 
L 183.45351 423.552955 
L 182.201887 423.380138 
L 180.950264 423.264579 
L 179.698641 423.128436 
L 178.447018 423.038456 
L 177.195394 422.994719 
L 175.943771 422.989719 
L 174.692148 423.009054 
L 173.440525 423.066722 
L 172.188902 423.173563 
L 170.937279 423.291332 
L 169.685656 423.471507 
L 168.434033 423.690928 
L 167.18241 423.924185 
L 166.903739 423.990789 
L 165.930787 424.211975 
L 164.679164 424.538445 
L 163.427541 424.885692 
L 162.420545 425.228704 
L 162.175918 425.312616 
L 160.924295 425.778652 
L 159.672671 426.310623 
L 159.32667 426.466619 
L 158.421048 426.879589 
L 157.169425 427.580422 
L 156.957173 427.704534 
L 155.917802 428.336932 
L 154.968817 428.942448 
L 154.666179 429.141014 
L 153.414556 430.076859 
L 153.282473 430.180363 
L 152.162933 431.118815 
L 151.845607 431.418278 
L 150.91131 432.36599 
L 150.643024 432.656193 
L 149.659687 433.795209 
L 149.580787 433.894107 
L 148.643678 435.132022 
L 148.408064 435.489163 
L 147.849584 436.369937 
L 147.173571 437.607852 
L 147.156441 437.641916 
L 146.565231 438.845766 
L 146.028784 440.083681 
L 145.904818 440.421766 
L 145.578776 441.321596 
L 145.207751 442.559511 
L 144.894937 443.797425 
L 144.653195 444.983865 
L 144.642903 445.03534 
L 144.463511 446.273255 
L 144.331283 447.51117 
L 144.279717 448.749084 
L 144.246386 449.986999 
L 144.256456 451.224914 
L 144.329415 452.462829 
L 144.442731 453.700743 
L 144.604719 454.938658 
L 144.653195 455.230439 
L 144.804822 456.176573 
L 145.038416 457.414488 
L 145.31601 458.652402 
L 145.634408 459.890317 
L 145.904818 460.789603 
L 146.001663 461.128232 
L 146.397745 462.366147 
L 146.840723 463.604061 
L 147.156441 464.394376 
L 147.327606 464.841976 
L 147.861173 466.079891 
L 148.408064 467.198703 
L 148.465886 467.317806 
L 149.094734 468.55572 
L 149.659687 469.574232 
L 149.777057 469.793635 
L 150.494368 471.03155 
L 150.91131 471.716399 
L 151.240279 472.269465 
L 152.027278 473.507379 
L 152.162933 473.706106 
L 152.869713 474.745294 
L 153.414556 475.495562 
L 153.759868 475.983209 
L 154.666179 477.154963 
L 154.717122 477.221124 
L 155.703358 478.459038 
L 155.917802 478.715272 
L 156.725734 479.696953 
L 157.169425 480.214885 
L 157.802237 480.934868 
L 158.421048 481.598992 
L 158.957795 482.172783 
L 159.672671 482.8939 
L 160.196543 483.410697 
L 160.924295 484.117472 
L 161.483286 484.648612 
L 162.175918 485.287724 
L 162.84789 485.886527 
L 163.427541 486.382385 
L 164.319057 487.124442 
L 164.679164 487.421206 
L 165.85269 488.362356 
L 165.930787 488.424751 
L 167.18241 489.385747 
L 167.473523 489.600271 
L 168.434033 490.291855 
L 169.231544 490.838186 
L 169.685656 491.148494 
L 170.937279 491.973044 
L 171.104644 492.076101 
L 172.188902 492.75011 
L 173.153525 493.314015 
L 173.440525 493.481275 
L 174.692148 494.193721 
L 175.384488 494.55193 
L 175.943771 494.8488 
L 177.195394 495.477061 
L 177.86228 495.789845 
L 178.447018 496.066303 
L 179.698641 496.61249 
L 180.709933 497.02776 
L 180.950264 497.130358 
L 182.201887 497.618923 
L 183.45351 498.067806 
L 184.051643 498.265674 
L 184.705133 498.489663 
L 185.956756 498.882169 
L 187.208379 499.240155 
L 188.25117 499.503589 
L 188.460002 499.558625 
L 189.711625 499.861629 
L 190.963248 500.129817 
L 192.214871 500.363678 
L 193.466494 500.568137 
L 194.718117 500.740601 
L 194.726389 500.741504 
L 195.969741 500.886901 
z
" clip-path="url(#p5a2881a4e6)" style="fill: none; stroke: #e41a1c; stroke-width: 1.142857"/>
   </g>
   <g id="PathCollection_2">
    <path d="M 204.801012 507.479996 
L 206.140789 507.706781 
L 207.480565 507.915003 
L 208.820342 508.093776 
L 210.160119 508.240978 
L 211.499896 508.357805 
L 212.839672 508.430605 
L 214.179449 508.470317 
L 215.519226 508.478957 
L 216.859003 508.433981 
L 218.198779 508.357309 
L 219.538556 508.219251 
L 220.878333 508.030541 
L 222.21811 507.782193 
L 223.557886 507.465406 
L 223.805601 507.393855 
L 224.897663 507.069623 
L 226.23744 506.574919 
L 226.889637 506.298947 
L 227.577217 505.982391 
L 228.916993 505.235233 
L 228.968025 505.204039 
L 230.25677 504.328949 
L 230.537304 504.10913 
L 231.596547 503.181224 
L 231.769811 503.014222 
L 232.788137 501.919314 
L 232.936323 501.732862 
L 233.597783 500.824406 
L 234.2761 499.743486 
L 234.284617 499.729498 
L 234.839261 498.63459 
L 235.337243 497.539681 
L 235.615877 496.726374 
L 235.711391 496.444773 
L 236.02727 495.349865 
L 236.267564 494.254957 
L 236.446432 493.160049 
L 236.558393 492.065141 
L 236.639119 490.970232 
L 236.650397 489.875324 
L 236.636383 488.780416 
L 236.59936 487.685508 
L 236.505797 486.5906 
L 236.365473 485.495692 
L 236.193571 484.400783 
L 236.000244 483.305875 
L 235.785751 482.210967 
L 235.615877 481.473858 
L 235.537489 481.116059 
L 235.272061 480.021151 
L 234.987145 478.926243 
L 234.671992 477.831334 
L 234.340534 476.736426 
L 234.2761 476.546265 
L 233.98113 475.641518 
L 233.581612 474.54661 
L 233.182158 473.451702 
L 232.936323 472.819947 
L 232.761949 472.356793 
L 232.332663 471.261885 
L 231.860947 470.166977 
L 231.596547 469.577973 
L 231.371081 469.072069 
L 230.850251 467.977161 
L 230.284613 466.882253 
L 230.25677 466.830328 
L 229.710738 465.787344 
L 229.116603 464.692436 
L 228.916993 464.344027 
L 228.495604 463.597528 
L 227.864868 462.50262 
L 227.577217 462.025164 
L 227.202524 461.407712 
L 226.505661 460.312804 
L 226.23744 459.902884 
L 225.792696 459.217895 
L 225.032792 458.122987 
L 224.897663 457.941101 
L 224.203686 457.028079 
L 223.557886 456.226349 
L 223.318072 455.933171 
L 222.42127 454.838263 
L 222.21811 454.589342 
L 221.523765 453.743355 
L 220.878333 453.009126 
L 220.543285 452.648446 
L 219.538556 451.585486 
L 219.508339 451.553538 
L 218.468758 450.45863 
L 218.198779 450.17774 
L 217.395551 449.363722 
L 216.859003 448.84104 
L 216.24734 448.268814 
L 215.519226 447.56934 
L 215.077814 447.173906 
L 214.179449 446.403936 
L 213.78586 446.078997 
L 212.839672 445.342048 
L 212.366007 444.984089 
L 211.499896 444.316288 
L 210.900419 443.889181 
L 210.160119 443.361439 
L 209.328091 442.794273 
L 208.820342 442.448201 
L 207.676072 441.699365 
L 207.480565 441.571968 
L 206.140789 440.779123 
L 205.826412 440.604457 
L 204.801012 440.038221 
L 203.763662 439.509548 
L 203.461235 439.35204 
L 202.121458 438.696427 
L 201.507914 438.41464 
L 200.781682 438.077797 
L 199.441905 437.494401 
L 198.997717 437.319732 
L 198.102128 436.965029 
L 196.762351 436.483385 
L 196.008755 436.224824 
L 195.422575 436.013153 
L 194.082798 435.59956 
L 192.743021 435.1877 
L 192.526329 435.129916 
L 191.403244 434.82097 
L 190.063468 434.485776 
L 188.723691 434.116493 
L 188.324843 434.035008 
L 187.383914 433.835308 
L 186.044137 433.571008 
L 184.704361 433.35424 
L 183.364584 433.166181 
L 182.024807 433.004526 
L 181.294264 432.940099 
L 180.685031 432.884936 
L 179.345254 432.77899 
L 178.005477 432.69732 
L 176.6657 432.654778 
L 175.325924 432.646707 
L 173.986147 432.692622 
L 172.64637 432.725217 
L 171.306593 432.771983 
L 169.966817 432.899829 
L 169.61412 432.940099 
L 168.62704 433.051346 
L 167.287263 433.230559 
L 165.947486 433.483786 
L 164.60771 433.793076 
L 163.645621 434.035008 
L 163.267933 434.131003 
L 161.928156 434.53335 
L 160.588379 434.973174 
L 160.1831 435.129916 
L 159.248603 435.489662 
L 157.908826 436.045387 
L 157.531602 436.224824 
L 156.569049 436.700405 
L 155.456408 437.319732 
L 155.229272 437.453199 
L 153.889496 438.370841 
L 153.828911 438.41464 
L 152.549719 439.395157 
L 152.413393 439.509548 
L 151.261796 440.604457 
L 151.209942 440.660727 
L 150.366228 441.699365 
L 149.870165 442.345314 
L 149.546661 442.794273 
L 148.83282 443.889181 
L 148.530389 444.42309 
L 148.219029 444.984089 
L 147.723891 446.078997 
L 147.300428 447.173906 
L 147.190612 447.527239 
L 146.972486 448.268814 
L 146.718329 449.363722 
L 146.497054 450.45863 
L 146.333435 451.553538 
L 146.24816 452.648446 
L 146.19717 453.743355 
L 146.187839 454.838263 
L 146.222419 455.933171 
L 146.295833 457.028079 
L 146.414594 458.122987 
L 146.596398 459.217895 
L 146.81661 460.312804 
L 147.10144 461.407712 
L 147.190612 461.742377 
L 147.385515 462.50262 
L 147.696006 463.597528 
L 148.047072 464.692436 
L 148.462382 465.787344 
L 148.530389 465.948564 
L 148.907555 466.882253 
L 149.37887 467.977161 
L 149.870165 469.024581 
L 149.891497 469.072069 
L 150.419585 470.166977 
L 151.005391 471.261885 
L 151.209942 471.614573 
L 151.636266 472.356793 
L 152.303508 473.451702 
L 152.549719 473.825387 
L 153.004781 474.54661 
L 153.752656 475.641518 
L 153.889496 475.826009 
L 154.539836 476.736426 
L 155.229272 477.652745 
L 155.362872 477.831334 
L 156.234626 478.926243 
L 156.569049 479.323042 
L 157.13339 480.021151 
L 157.908826 480.933739 
L 158.061114 481.116059 
L 159.012494 482.210967 
L 159.248603 482.467928 
L 160.018912 483.305875 
L 160.588379 483.880825 
L 161.098607 484.400783 
L 161.928156 485.218472 
L 162.210908 485.495692 
L 163.267933 486.486524 
L 163.379973 486.5906 
L 164.587743 487.685508 
L 164.60771 487.702828 
L 165.841903 488.780416 
L 165.947486 488.868504 
L 167.180186 489.875324 
L 167.287263 489.962217 
L 168.557208 490.970232 
L 168.62704 491.02395 
L 169.960167 492.065141 
L 169.966817 492.070164 
L 171.306593 493.051264 
L 171.461191 493.160049 
L 172.64637 493.990264 
L 173.036181 494.254957 
L 173.986147 494.875972 
L 174.722223 495.349865 
L 175.325924 495.743539 
L 176.454217 496.444773 
L 176.6657 496.574832 
L 178.005477 497.34924 
L 178.338303 497.539681 
L 179.345254 498.108576 
L 180.320746 498.63459 
L 180.685031 498.835504 
L 182.024807 499.54151 
L 182.399104 499.729498 
L 183.364584 500.21769 
L 184.638859 500.824406 
L 184.704361 500.856097 
L 186.044137 501.476988 
L 187.068766 501.919314 
L 187.383914 502.059143 
L 188.723691 502.629536 
L 189.694014 503.014222 
L 190.063468 503.16492 
L 191.403244 503.686932 
L 192.567704 504.10913 
L 192.743021 504.174566 
L 194.082798 504.642218 
L 195.422575 505.082742 
L 195.81454 505.204039 
L 196.762351 505.506635 
L 198.102128 505.90159 
L 199.441905 506.263768 
L 199.582426 506.298947 
L 200.781682 506.613721 
L 202.121458 506.927456 
L 203.461235 507.218978 
L 204.37223 507.393855 
L 204.801012 507.479996 
z
" clip-path="url(#p5a2881a4e6)" style="fill: none; stroke: #377eb8; stroke-width: 1.142857"/>
   </g>
   <g id="PathCollection_3">
    <path d="M 192.30478 506.95772 
L 193.679415 507.122943 
L 195.05405 507.257009 
L 196.428685 507.368897 
L 197.80332 507.455549 
L 199.177955 507.512225 
L 200.55259 507.540645 
L 201.927224 507.546429 
L 203.301859 507.531794 
L 204.676494 507.49106 
L 206.051129 507.416618 
L 207.425764 507.315728 
L 208.800399 507.189967 
L 210.175034 507.028781 
L 211.411211 506.850869 
L 211.549668 506.83157 
L 212.924303 506.60542 
L 214.298938 506.33421 
L 215.673573 506.027862 
L 216.187181 505.89659 
L 217.048208 505.674099 
L 218.422843 505.261188 
L 219.38846 504.942312 
L 219.797477 504.802151 
L 221.172112 504.281286 
L 221.871693 503.988033 
L 222.546747 503.691561 
L 223.896047 503.033754 
L 223.921382 503.020736 
L 225.296017 502.23434 
L 225.548168 502.079476 
L 226.670652 501.342947 
L 226.980713 501.125197 
L 228.045287 500.322346 
L 228.236706 500.170918 
L 229.320541 499.21664 
L 229.419921 499.122624 
L 230.277308 498.262361 
L 230.794556 497.66385 
L 231.095788 497.308082 
L 231.816528 496.353804 
L 232.169191 495.829051 
L 232.452774 495.399525 
L 232.995579 494.445247 
L 233.458947 493.490968 
L 233.543826 493.292564 
L 233.868531 492.536689 
L 234.191046 491.582411 
L 234.493384 490.628132 
L 234.744342 489.673853 
L 234.918461 488.778623 
L 234.930267 488.719575 
L 235.068525 487.765296 
L 235.149256 486.811017 
L 235.218091 485.856739 
L 235.215692 484.90246 
L 235.18006 483.948181 
L 235.110369 482.993903 
L 235.005234 482.039624 
L 234.918461 481.460876 
L 234.864413 481.085346 
L 234.694762 480.131067 
L 234.496207 479.176788 
L 234.287016 478.22251 
L 234.035826 477.268231 
L 233.737707 476.313952 
L 233.543826 475.746923 
L 233.416178 475.359674 
L 233.084826 474.405395 
L 232.716197 473.451116 
L 232.313097 472.496838 
L 232.169191 472.178159 
L 231.887853 471.542559 
L 231.464622 470.58828 
L 230.974602 469.634002 
L 230.794556 469.302283 
L 230.462321 468.679723 
L 229.941697 467.725445 
L 229.419921 466.878605 
L 229.353644 466.771166 
L 228.771985 465.816887 
L 228.131046 464.862609 
L 228.045287 464.741723 
L 227.461025 463.90833 
L 226.748507 462.954051 
L 226.670652 462.851923 
L 226.026198 461.999773 
L 225.296017 461.113491 
L 225.239018 461.045494 
L 224.47047 460.091215 
L 223.921382 459.469291 
L 223.618639 459.136937 
L 222.681382 458.182658 
L 222.546747 458.051399 
L 221.692782 457.228379 
L 221.172112 456.727619 
L 220.692894 456.274101 
L 219.797477 455.434426 
L 219.675286 455.319822 
L 218.632743 454.365544 
L 218.422843 454.180374 
L 217.48229 453.411265 
L 217.048208 453.050289 
L 216.323231 452.456986 
L 215.673573 451.96198 
L 215.047915 451.502708 
L 214.298938 450.966129 
L 213.695792 450.548429 
L 212.924303 450.025867 
L 212.231414 449.59415 
L 211.549668 449.161214 
L 210.696925 448.639872 
L 210.175034 448.316536 
L 209.08436 447.685593 
L 208.800399 447.527649 
L 207.425764 446.816138 
L 207.258518 446.731314 
L 206.051129 446.108684 
L 205.323699 445.777036 
L 204.676494 445.474807 
L 203.301859 444.871106 
L 203.189679 444.822757 
L 201.927224 444.27646 
L 200.91035 443.868478 
L 200.55259 443.715812 
L 199.177955 443.20689 
L 198.313485 442.9142 
L 197.80332 442.750039 
L 196.428685 442.351875 
L 195.05405 441.989465 
L 194.930152 441.959921 
L 193.679415 441.625455 
L 192.30478 441.294844 
L 190.991194 441.005642 
L 190.930146 440.99227 
L 189.555511 440.730734 
L 188.180876 440.538881 
L 186.806241 440.372785 
L 185.431606 440.206275 
L 184.056971 440.107167 
L 182.956749 440.051364 
L 182.682337 440.036794 
L 181.307702 439.986056 
L 179.933067 439.991678 
L 178.558432 440.032976 
L 178.334401 440.051364 
L 177.183797 440.142503 
L 175.809162 440.244944 
L 174.434527 440.402719 
L 173.059893 440.591272 
L 171.685258 440.822824 
L 170.774702 441.005642 
L 170.310623 441.099127 
L 168.935988 441.421654 
L 167.561353 441.811494 
L 167.049152 441.959921 
L 166.186718 442.193888 
L 164.812083 442.641485 
L 164.044969 442.9142 
L 163.437449 443.151968 
L 162.062814 443.790404 
L 161.903899 443.868478 
L 160.688179 444.456121 
L 159.994652 444.822757 
L 159.313544 445.194411 
L 158.3801 445.777036 
L 157.938909 446.049732 
L 156.930509 446.731314 
L 156.564274 446.990041 
L 155.620221 447.685593 
L 155.18964 448.03076 
L 154.469495 448.639872 
L 153.815005 449.2122 
L 153.399343 449.59415 
L 152.44037 450.540385 
L 152.432647 450.548429 
L 151.582771 451.502708 
L 151.065735 452.138388 
L 150.825697 452.456986 
L 150.097659 453.411265 
L 149.6911 454.06381 
L 149.500616 454.365544 
L 148.918426 455.319822 
L 148.36983 456.274101 
L 148.316465 456.373986 
L 147.863456 457.228379 
L 147.402606 458.182658 
L 146.999552 459.136937 
L 146.94183 459.292534 
L 146.650354 460.091215 
L 146.346951 461.045494 
L 146.064702 461.999773 
L 145.841375 462.954051 
L 145.671801 463.90833 
L 145.567196 464.554265 
L 145.51683 464.862609 
L 145.391235 465.816887 
L 145.325699 466.771166 
L 145.262054 467.725445 
L 145.234303 468.679723 
L 145.246282 469.634002 
L 145.298285 470.58828 
L 145.381441 471.542559 
L 145.5196 472.496838 
L 145.567196 472.782479 
L 145.674212 473.451116 
L 145.90066 474.405395 
L 146.160552 475.359674 
L 146.432186 476.313952 
L 146.733329 477.268231 
L 146.94183 477.818645 
L 147.091045 478.22251 
L 147.499668 479.176788 
L 147.919113 480.131067 
L 148.316465 480.937585 
L 148.385571 481.085346 
L 148.882233 482.039624 
L 149.468439 482.993903 
L 149.6911 483.342631 
L 150.061416 483.948181 
L 150.675895 484.90246 
L 151.065735 485.446874 
L 151.366317 485.856739 
L 152.119706 486.811017 
L 152.44037 487.190303 
L 152.903846 487.765296 
L 153.739628 488.719575 
L 153.815005 488.802666 
L 154.604623 489.673853 
L 155.18964 490.260713 
L 155.55954 490.628132 
L 156.564274 491.562003 
L 156.585661 491.582411 
L 157.620255 492.536689 
L 157.938909 492.810734 
L 158.748743 493.490968 
L 159.313544 493.950023 
L 159.930773 494.445247 
L 160.688179 495.013093 
L 161.222361 495.399525 
L 162.062814 495.989006 
L 162.597088 496.353804 
L 163.437449 496.905294 
L 164.077102 497.308082 
L 164.812083 497.747986 
L 165.694582 498.262361 
L 166.186718 498.548925 
L 167.390222 499.21664 
L 167.561353 499.310162 
L 168.935988 500.033875 
L 169.20789 500.170918 
L 170.310623 500.713369 
L 171.217498 501.125197 
L 171.685258 501.337014 
L 173.059893 501.929619 
L 173.429545 502.079476 
L 174.434527 502.491955 
L 175.809162 503.013224 
L 175.866803 503.033754 
L 177.183797 503.503901 
L 178.558432 503.955869 
L 178.663509 503.988033 
L 179.933067 504.381564 
L 181.307702 504.76977 
L 181.972436 504.942312 
L 182.682337 505.132947 
L 184.056971 505.476493 
L 185.431606 505.789858 
L 185.946058 505.89659 
L 186.806241 506.078245 
L 188.180876 506.338115 
L 189.555511 506.569414 
L 190.930146 506.773248 
L 191.530115 506.850869 
L 192.30478 506.95772 
z
" clip-path="url(#p5a2881a4e6)" style="fill: none; stroke: #4daf4a; stroke-width: 1.142857"/>
   </g>
   <g id="patch_3">
    <path d="M 39.69 525.85 
L 39.69 266.525 
" style="fill: none; stroke: #000000; stroke-width: 0.8; stroke-linejoin: miter; stroke-linecap: square"/>
   </g>
   <g id="patch_4">
    <path d="M 300.097764 525.85 
L 300.097764 266.525 
" style="fill: none; stroke: #000000; stroke-width: 0.8; stroke-linejoin: miter; stroke-linecap: square"/>
   </g>
   <g id="patch_5">
    <path d="M 39.69 525.85 
L 300.097764 525.85 
" style="fill: none; stroke: #000000; stroke-width: 0.8; stroke-linejoin: miter; stroke-linecap: square"/>
   </g>
   <g id="patch_6">
    <path d="M 39.69 266.525 
L 300.097764 266.525 
" style="fill: none; stroke: #000000; stroke-width: 0.8; stroke-linejoin: miter; stroke-linecap: square"/>
   </g>
  </g>
  <g id="axes_2">
   <g id="patch_7">
    <path d="M 39.69 266.525 
L 300.097764 266.525 
L 300.097764 7.2 
L 39.69 7.2 
z
" style="fill: #ffffff"/>
   </g>
   <g id="matplotlib.axis_3">
    <g id="xtick_5">
     <g id="line2d_19">
      <g>
       <use xlink:href="#m2cb8806280" x="60.035712" y="266.525" style="stroke: #000000; stroke-width: 0.8"/>
      </g>
     </g>
    </g>
    <g id="xtick_6">
     <g id="line2d_20">
      <g>
       <use xlink:href="#m2cb8806280" x="122.293725" y="266.525" style="stroke: #000000; stroke-width: 0.8"/>
      </g>
     </g>
    </g>
    <g id="xtick_7">
     <g id="line2d_21">
      <g>
       <use xlink:href="#m2cb8806280" x="184.551738" y="266.525" style="stroke: #000000; stroke-width: 0.8"/>
      </g>
     </g>
    </g>
    <g id="xtick_8">
     <g id="line2d_22">
      <g>
       <use xlink:href="#m2cb8806280" x="246.809752" y="266.525" style="stroke: #000000; stroke-width: 0.8"/>
      </g>
     </g>
    </g>
   </g>
   <g id="matplotlib.axis_4">
    <g id="ytick_6"/>
    <g id="ytick_7"/>
    <g id="ytick_8"/>
    <g id="ytick_9"/>
    <g id="ytick_10"/>
   </g>
   <g id="line2d_23">
    <path d="M 39.421425 266.097884 
L 49.093058 266.100599 
L 69.0603 266.415909 
L 72.180181 266.215952 
L 75.612051 265.754293 
L 82.163802 264.751061 
L 86.219648 264.756882 
L 88.403565 264.675319 
L 91.211459 264.155837 
L 95.579293 262.770641 
L 96.515257 262.53739 
L 97.451222 262.357541 
L 99.947127 262.180684 
L 102.755021 262.310385 
L 104.002973 262.37279 
L 104.938938 262.434896 
L 108.370807 262.640629 
L 109.61876 262.412206 
L 110.242736 262.29516 
L 112.114665 261.655946 
L 113.05063 261.140002 
L 113.986594 260.44481 
L 116.170511 258.147864 
L 118.354428 255.015231 
L 120.538345 251.961921 
L 122.410274 250.330587 
L 124.282203 249.748111 
L 124.90618 249.775507 
L 125.218168 249.610564 
L 127.402085 249.82752 
L 127.714073 249.757732 
L 128.338049 249.837285 
L 128.962026 249.560273 
L 129.586002 249.175473 
L 130.521966 248.479019 
L 131.145943 248.015441 
L 132.393895 246.608091 
L 132.705883 246.373486 
L 133.641848 244.979703 
L 135.513777 241.581274 
L 138.009682 235.99675 
L 138.633658 234.326488 
L 140.817576 227.881509 
L 141.441552 225.986387 
L 142.689504 222.190779 
L 145.497398 213.604217 
L 145.809386 212.897795 
L 146.74535 210.152318 
L 148.617279 205.143571 
L 148.929268 204.071123 
L 149.241256 203.491327 
L 150.489208 198.934384 
L 152.985114 187.173282 
L 154.857043 176.15285 
L 158.288912 154.365022 
L 159.536865 147.777206 
L 160.472829 144.135539 
L 162.344758 139.273784 
L 162.656746 138.923828 
L 162.968735 138.361978 
L 163.280723 138.082074 
L 163.904699 136.739292 
L 165.152652 135.100722 
L 166.400604 131.896485 
L 167.336569 128.767694 
L 168.272533 123.921166 
L 169.208498 118.690837 
L 170.144462 111.54126 
L 177.32019 49.914906 
L 179.504107 36.978653 
L 180.752059 32.313913 
L 181.064048 31.960253 
L 181.376036 31.001687 
L 181.688024 30.560487 
L 182.000012 30.664864 
L 182.312 31.030079 
L 182.623988 30.943613 
L 182.935977 31.325426 
L 183.559953 32.858671 
L 184.495917 35.386545 
L 185.74387 39.687422 
L 186.367846 42.111813 
L 186.679834 42.949022 
L 187.615799 46.308946 
L 188.551763 48.323608 
L 188.863752 48.76484 
L 189.799716 50.795681 
L 190.423692 50.98926 
L 190.73568 50.770476 
L 191.047669 50.708446 
L 191.359657 50.381689 
L 191.671645 50.643955 
L 191.983633 50.380139 
L 192.607609 50.290706 
L 193.231586 49.764348 
L 194.791526 50.915621 
L 195.103515 51.299099 
L 195.415503 51.358365 
L 196.975444 55.309482 
L 198.535384 62.04647 
L 199.783337 69.65289 
L 200.719301 76.105673 
L 202.903219 91.987317 
L 204.463159 103.952151 
L 206.959065 120.122316 
L 207.895029 125.343129 
L 208.830993 130.048068 
L 211.950875 143.881683 
L 214.44678 153.368212 
L 216.006721 160.438482 
L 217.566662 167.369953 
L 219.750579 178.140177 
L 221.31052 183.961231 
L 221.934496 186.133912 
L 222.558472 188.617414 
L 223.182449 190.405102 
L 224.118413 193.147214 
L 225.054378 195.98961 
L 230.046188 209.611753 
L 231.918117 215.232478 
L 232.854081 217.792208 
L 233.478058 219.618247 
L 234.72601 223.34863 
L 237.533904 232.745605 
L 238.781856 236.542393 
L 240.653785 242.210292 
L 243.149691 248.404197 
L 245.02162 252.303688 
L 245.957584 253.713421 
L 247.829513 256.231267 
L 250.949395 259.11978 
L 251.573371 259.568047 
L 254.381264 261.329541 
L 256.877169 262.851103 
L 259.373075 263.900608 
L 260.933015 264.302265 
L 263.740909 264.821239 
L 267.796755 265.04004 
L 274.348506 265.160153 
L 282.14821 265.626971 
L 287.140021 265.483501 
L 289.323938 265.530289 
L 291.507855 265.813716 
L 293.691772 266.184922 
L 296.499665 266.445496 
L 300.243523 266.521189 
L 300.243523 266.521189 
" clip-path="url(#pd482cde870)" style="fill: none; stroke: #e41a1c; stroke-width: 1.142857"/>
   </g>
   <g id="line2d_24">
    <path d="M 39.584144 266.40636 
L 50.270927 266.43931 
L 57.618089 266.272108 
L 65.967138 265.844271 
L 80.327502 265.093508 
L 86.338817 264.934684 
L 92.684094 264.287336 
L 95.355789 263.728924 
L 102.702952 261.63788 
L 104.372762 260.924691 
L 105.374648 260.613333 
L 107.044457 259.841839 
L 110.050115 258.71035 
L 111.052001 258.337632 
L 113.723696 257.42134 
L 115.059544 256.927169 
L 115.727468 256.683717 
L 121.070859 253.354668 
L 123.408593 251.24003 
L 124.74444 249.805648 
L 129.085946 244.471093 
L 130.421793 242.6437 
L 132.425565 239.850125 
L 134.429337 236.791156 
L 135.097261 235.757368 
L 136.433108 233.622966 
L 140.10669 227.442809 
L 144.114233 218.985554 
L 145.116119 216.473612 
L 148.7897 206.736861 
L 149.791586 203.732891 
L 151.127434 199.406308 
L 152.463282 194.6294 
L 153.799129 189.401796 
L 154.801015 185.292236 
L 155.468939 183.008087 
L 160.144406 162.418949 
L 161.814216 154.872188 
L 165.153836 138.70843 
L 166.489683 132.254008 
L 171.165151 109.457294 
L 172.500998 102.749346 
L 173.836846 96.209266 
L 176.17458 85.225476 
L 178.178351 76.124571 
L 180.182123 67.208263 
L 180.850047 64.442441 
L 183.521743 53.806368 
L 183.855705 52.910685 
L 185.191552 48.152185 
L 186.193438 45.051085 
L 187.195324 42.453096 
L 187.529286 41.718466 
L 188.19721 39.974316 
L 189.533058 36.762309 
L 189.86702 36.380302 
L 192.204753 32.450524 
L 192.872677 31.86543 
L 193.206639 31.409154 
L 193.540601 31.255521 
L 194.208525 30.676221 
L 195.210411 30.63729 
L 195.544373 30.944831 
L 196.88022 30.560487 
L 197.214182 30.781627 
L 197.548144 30.808216 
L 198.883992 32.155229 
L 199.885878 33.574134 
L 200.21984 33.85677 
L 201.88965 37.212503 
L 202.557573 39.106621 
L 203.225497 41.126964 
L 203.893421 42.828402 
L 206.565117 52.8497 
L 211.574546 74.490642 
L 213.578318 83.481521 
L 215.582089 92.019584 
L 216.917937 98.076165 
L 220.257556 111.739293 
L 223.931138 129.941484 
L 226.602833 144.648243 
L 232.94811 184.582451 
L 237.289616 209.821776 
L 239.961311 222.648014 
L 241.965083 230.805615 
L 243.634893 236.452752 
L 245.638664 242.136603 
L 248.31036 248.13822 
L 249.312246 250.034534 
L 250.982055 252.817517 
L 254.655637 257.591105 
L 254.989599 257.74483 
L 256.99337 259.555005 
L 259.999028 261.873691 
L 262.336761 263.139796 
L 263.672609 263.776107 
L 266.010343 264.565794 
L 268.682038 265.219906 
L 272.689582 265.84164 
L 277.365049 266.253591 
L 278.700897 266.292607 
L 287.717869 266.414409 
L 300.408423 266.346329 
L 300.408423 266.346329 
" clip-path="url(#pd482cde870)" style="fill: none; stroke: #377eb8; stroke-width: 1.142857"/>
   </g>
   <g id="line2d_25">
    <path d="M 39.506659 266.525 
L 65.548129 266.416821 
L 75.827656 266.147365 
L 87.135136 265.468079 
L 91.246947 265.070271 
L 93.302853 264.824116 
L 100.841173 263.819825 
L 102.211777 263.576116 
L 104.267682 263.149579 
L 108.036842 262.279775 
L 111.463352 261.0764 
L 112.148653 260.803612 
L 113.861908 260.008908 
L 116.603115 258.342362 
L 119.344323 256.468007 
L 120.714926 255.378837 
L 123.113483 253.099523 
L 125.85469 250.131189 
L 126.882643 248.904788 
L 128.253246 247.195879 
L 129.281199 245.712492 
L 130.651803 243.801095 
L 133.39301 239.522602 
L 136.819519 233.308563 
L 137.847472 231.355809 
L 139.560727 227.777551 
L 141.616632 223.212201 
L 142.987236 220.10886 
L 144.70049 215.856368 
L 146.413745 210.956984 
L 148.812301 203.612784 
L 152.23881 191.623182 
L 153.609414 186.304542 
L 157.035923 171.395686 
L 162.860989 141.366321 
L 168.000753 110.820605 
L 171.769913 87.774374 
L 177.252327 59.05032 
L 179.993535 47.385273 
L 180.336186 46.475279 
L 181.021487 44.085005 
L 182.734742 38.912271 
L 185.133298 33.081485 
L 185.475949 32.808699 
L 185.8186 32.045326 
L 186.161251 31.922207 
L 186.846553 31.261812 
L 187.189204 31.050477 
L 188.217157 30.993839 
L 188.902458 30.560487 
L 189.245109 30.760323 
L 189.58776 30.742903 
L 190.273062 31.058745 
L 190.958364 31.733432 
L 191.643666 32.780894 
L 192.671619 34.239611 
L 194.384873 38.180171 
L 198.154033 50.069433 
L 199.524637 55.372304 
L 199.867288 56.581086 
L 200.55259 59.641537 
L 201.923193 65.37473 
L 204.32175 75.147269 
L 205.007052 77.932576 
L 209.804164 97.065927 
L 210.489466 99.939019 
L 214.258626 114.970321 
L 215.286579 119.104638 
L 216.999834 126.72683 
L 218.370437 132.192511 
L 219.39839 136.741143 
L 221.111645 144.444876 
L 232.076474 196.513378 
L 234.132379 205.433097 
L 237.901539 220.669409 
L 240.300096 228.782275 
L 242.01335 234.162546 
L 244.069256 239.739728 
L 246.467812 244.835652 
L 248.181067 248.163594 
L 249.894321 251.135118 
L 251.607576 253.461442 
L 254.691434 257.023381 
L 256.062038 258.292232 
L 259.145896 260.690173 
L 262.229754 262.430031 
L 264.970962 263.551903 
L 267.369518 264.337699 
L 270.110725 264.909823 
L 274.907838 265.607142 
L 281.075555 266.062229 
L 291.697733 266.323222 
L 300.264006 266.437778 
L 300.264006 266.437778 
" clip-path="url(#pd482cde870)" style="fill: none; stroke: #4daf4a; stroke-width: 1.142857"/>
   </g>
   <g id="patch_8">
    <path d="M 39.69 266.525 
L 39.69 7.2 
" style="fill: none; stroke: #000000; stroke-width: 0.8; stroke-linejoin: miter; stroke-linecap: square"/>
   </g>
   <g id="patch_9">
    <path d="M 300.097764 266.525 
L 300.097764 7.2 
" style="fill: none; stroke: #000000; stroke-width: 0.8; stroke-linejoin: miter; stroke-linecap: square"/>
   </g>
   <g id="patch_10">
    <path d="M 39.69 266.525 
L 300.097764 266.525 
" style="fill: none; stroke: #000000; stroke-width: 0.8; stroke-linejoin: miter; stroke-linecap: square"/>
   </g>
   <g id="patch_11">
    <path d="M 39.69 7.2 
L 300.097764 7.2 
" style="fill: none; stroke: #000000; stroke-width: 0.8; stroke-linejoin: miter; stroke-linecap: square"/>
   </g>
  </g>
  <g id="axes_3">
   <g id="patch_12">
    <path d="M 300.097764 525.85 
L 560.505527 525.85 
L 560.505527 266.525 
L 300.097764 266.525 
z
" style="fill: #ffffff"/>
   </g>
   <g id="matplotlib.axis_5">
    <g id="xtick_9">
     <g id="line2d_26">
      <g>
       <use xlink:href="#m2cb8806280" x="312.519532" y="525.85" style="stroke: #000000; stroke-width: 0.8"/>
      </g>
     </g>
     <g id="text_12">
      <!-- $\mathdefault{0}$ -->
      <g transform="translate(309.439532 537.204687)scale(0.11 -0.11)">
       <use xlink:href="#HelveticaNeue-Medium-30" transform="translate(0 0.59375)"/>
      </g>
     </g>
    </g>
    <g id="xtick_10">
     <g id="line2d_27">
      <g>
       <use xlink:href="#m2cb8806280" x="370.520868" y="525.85" style="stroke: #000000; stroke-width: 0.8"/>
      </g>
     </g>
     <g id="text_13">
      <!-- $\mathdefault{10}$ -->
      <g transform="translate(364.360868 537.204687)scale(0.11 -0.11)">
       <use xlink:href="#HelveticaNeue-Medium-31" transform="translate(0 0.59375)"/>
       <use xlink:href="#HelveticaNeue-Medium-30" transform="translate(55.599991 0.59375)"/>
      </g>
     </g>
    </g>
    <g id="xtick_11">
     <g id="line2d_28">
      <g>
       <use xlink:href="#m2cb8806280" x="428.522203" y="525.85" style="stroke: #000000; stroke-width: 0.8"/>
      </g>
     </g>
     <g id="text_14">
      <!-- $\mathdefault{20}$ -->
      <g transform="translate(422.362203 537.204687)scale(0.11 -0.11)">
       <use xlink:href="#HelveticaNeue-Medium-32" transform="translate(0 0.59375)"/>
       <use xlink:href="#HelveticaNeue-Medium-30" transform="translate(55.599991 0.59375)"/>
      </g>
     </g>
    </g>
    <g id="xtick_12">
     <g id="line2d_29">
      <g>
       <use xlink:href="#m2cb8806280" x="486.523539" y="525.85" style="stroke: #000000; stroke-width: 0.8"/>
      </g>
     </g>
     <g id="text_15">
      <!-- $\mathdefault{30}$ -->
      <g transform="translate(480.363539 537.204687)scale(0.11 -0.11)">
       <use xlink:href="#HelveticaNeue-Medium-33" transform="translate(0 0.59375)"/>
       <use xlink:href="#HelveticaNeue-Medium-30" transform="translate(55.599991 0.59375)"/>
      </g>
     </g>
    </g>
    <g id="xtick_13">
     <g id="line2d_30">
      <g>
       <use xlink:href="#m2cb8806280" x="544.524875" y="525.85" style="stroke: #000000; stroke-width: 0.8"/>
      </g>
     </g>
     <g id="text_16">
      <!-- $\mathdefault{40}$ -->
      <g transform="translate(538.364875 537.204687)scale(0.11 -0.11)">
       <use xlink:href="#HelveticaNeue-Medium-34" transform="translate(0 0.59375)"/>
       <use xlink:href="#HelveticaNeue-Medium-30" transform="translate(55.599991 0.59375)"/>
      </g>
     </g>
    </g>
    <g id="text_17">
     <!-- scatter -->
     <g transform="translate(407.867739 557.305)scale(0.14 -0.14)">
      <use xlink:href="#HelveticaNeue-Medium-73"/>
      <use xlink:href="#HelveticaNeue-Medium-63" x="51.899994"/>
      <use xlink:href="#HelveticaNeue-Medium-61" x="107.499985"/>
      <use xlink:href="#HelveticaNeue-Medium-74" x="163.099976"/>
      <use xlink:href="#HelveticaNeue-Medium-74" x="196.399963"/>
      <use xlink:href="#HelveticaNeue-Medium-65" x="229.699951"/>
      <use xlink:href="#HelveticaNeue-Medium-72" x="285.299942"/>
     </g>
    </g>
   </g>
   <g id="matplotlib.axis_6">
    <g id="ytick_11"/>
    <g id="ytick_12"/>
    <g id="ytick_13"/>
    <g id="ytick_14"/>
    <g id="ytick_15"/>
   </g>
   <g id="line2d_31">
    <path d="M 300.063014 525.85 
L 312.457394 525.761949 
L 313.386973 525.534018 
L 314.316551 524.923882 
L 314.93627 524.1369 
L 315.555989 522.875628 
L 316.175708 521.041469 
L 317.105287 517.06626 
L 318.344725 510.136449 
L 319.894022 501.138588 
L 320.513741 498.574498 
L 321.44332 495.725341 
L 322.063039 494.874791 
L 322.682758 494.33944 
L 323.302477 494.263784 
L 323.922196 493.803073 
L 324.541915 493.815101 
L 325.781353 492.83299 
L 327.020791 490.568722 
L 327.330651 489.58978 
L 327.64051 488.989019 
L 328.570089 484.870182 
L 329.809527 476.708522 
L 330.739105 468.934896 
L 332.288403 452.330964 
L 334.14756 430.176887 
L 335.386998 418.227512 
L 336.626436 408.060359 
L 337.556014 401.946964 
L 338.795452 392.56144 
L 340.34475 380.380303 
L 340.964469 374.650215 
L 342.513766 361.003656 
L 344.682783 346.022893 
L 345.922221 338.762295 
L 346.232081 337.042426 
L 346.8518 334.693739 
L 347.161659 333.301344 
L 347.471519 333.008487 
L 348.710957 328.192851 
L 349.640535 325.463907 
L 349.950395 325.026772 
L 350.260254 324.131904 
L 350.570114 323.737262 
L 351.189833 322.279832 
L 351.499692 321.980519 
L 351.809552 322.10803 
L 352.119411 321.611786 
L 352.429271 321.91327 
L 352.73913 321.233145 
L 353.04899 320.967421 
L 353.358849 320.984162 
L 353.668709 320.468387 
L 353.978568 320.386288 
L 354.288428 319.814348 
L 354.598287 319.60437 
L 355.218006 318.166684 
L 356.457444 313.909573 
L 356.767304 313.352255 
L 358.006742 306.498973 
L 359.24618 298.588976 
L 360.175758 292.597279 
L 360.485618 291.032768 
L 360.795477 290.258121 
L 361.105337 289.885487 
L 361.415196 290.020208 
L 361.725056 290.620219 
L 362.344775 292.582074 
L 363.274353 300.209856 
L 363.894072 307.935958 
L 365.133511 327.455323 
L 367.302527 362.14299 
L 368.541965 376.802862 
L 370.091263 386.164051 
L 370.401122 387.102414 
L 371.020841 388.18478 
L 371.64056 388.673072 
L 372.260279 388.333139 
L 372.570139 388.323843 
L 372.879998 388.006658 
L 374.429296 384.638086 
L 374.739155 384.433662 
L 375.358874 383.173737 
L 376.288453 381.66468 
L 376.598312 381.270544 
L 376.908172 380.692751 
L 377.218031 380.493452 
L 377.83775 381.504624 
L 378.767329 383.965069 
L 380.006767 388.520868 
L 381.246205 393.32426 
L 381.865924 395.282026 
L 382.175783 396.163826 
L 382.485643 396.394643 
L 383.105362 397.815981 
L 384.03494 398.319265 
L 384.3448 398.706069 
L 384.654659 399.492838 
L 384.964519 399.460256 
L 385.274378 399.140174 
L 385.894097 400.384025 
L 386.823676 404.637025 
L 388.063114 413.861694 
L 389.302552 424.922483 
L 389.922271 430.897898 
L 391.161709 440.662994 
L 391.471569 442.687762 
L 392.711007 447.521627 
L 393.020866 448.114097 
L 393.330726 448.218631 
L 393.640585 448.478958 
L 393.950445 448.302779 
L 394.260304 448.331429 
L 394.570164 448.146168 
L 394.880023 447.744112 
L 395.189883 447.067752 
L 395.809602 446.984463 
L 396.429321 446.495098 
L 396.73918 446.335657 
L 397.04904 446.360749 
L 397.668759 447.111808 
L 397.978618 447.914986 
L 398.598337 450.214665 
L 399.218056 452.711108 
L 400.147635 458.212826 
L 402.316651 473.398952 
L 403.24623 478.105923 
L 404.485668 483.837438 
L 405.105387 485.817337 
L 406.964544 490.034002 
L 407.274403 490.529298 
L 407.584263 491.33381 
L 408.513842 492.319343 
L 409.133561 492.693551 
L 409.75328 492.610561 
L 410.372999 491.965117 
L 410.682858 491.633362 
L 411.302577 490.743237 
L 412.232156 489.967767 
L 412.542015 489.843802 
L 412.851875 490.142688 
L 413.161734 490.259243 
L 414.091313 491.270612 
L 414.401172 491.898755 
L 415.020891 493.516053 
L 416.570189 497.666597 
L 418.739205 504.226726 
L 420.288503 509.139971 
L 422.14766 513.934547 
L 423.077238 515.511189 
L 423.696957 516.149125 
L 424.316676 516.72771 
L 424.936395 516.882331 
L 426.175833 516.464973 
L 426.795552 516.144806 
L 428.03499 514.491269 
L 429.894147 512.201772 
L 431.133586 510.794534 
L 432.063164 509.908212 
L 432.682883 509.554082 
L 433.612462 509.555263 
L 434.232181 509.775292 
L 434.54204 510.01377 
L 435.781478 511.694894 
L 438.570214 517.250878 
L 439.499792 518.405159 
L 440.429371 519.275025 
L 441.668809 519.977757 
L 443.527966 520.161638 
L 444.457544 520.024633 
L 446.006842 519.626659 
L 449.105437 519.213313 
L 450.964594 519.265715 
L 451.894172 519.26448 
L 453.133611 519.28079 
L 454.063189 519.557741 
L 457.471644 520.432895 
L 459.64066 520.702512 
L 460.260379 520.854695 
L 461.189958 521.155879 
L 461.809677 521.384104 
L 463.049115 522.07016 
L 464.598412 522.941691 
L 465.527991 523.289915 
L 466.767429 523.60219 
L 468.936445 523.551624 
L 470.485743 523.414136 
L 473.584338 523.78823 
L 476.992793 524.360563 
L 478.54209 524.442226 
L 485.04914 524.366922 
L 488.767454 524.132934 
L 490.006892 524.233866 
L 491.556189 524.650486 
L 493.105487 525.207181 
L 494.654784 525.560281 
L 496.204082 525.709387 
L 498.373099 525.675492 
L 500.232256 525.414577 
L 502.711132 524.951377 
L 504.260429 524.927091 
L 507.049165 525.210751 
L 512.626636 525.808705 
L 517.274528 525.85 
L 538.654834 525.754941 
L 543.302727 525.496793 
L 547.64076 525.723002 
L 549.499917 525.587442 
L 553.528091 525.095632 
L 555.077388 525.338208 
L 557.246405 525.718363 
L 560.654859 525.783394 
L 560.654859 525.783394 
" clip-path="url(#pd204e1cd8c)" style="fill: none; stroke: #e41a1c; stroke-width: 1.142857"/>
   </g>
   <g id="line2d_32">
    <path d="M 299.875328 525.85 
L 310.837882 525.764577 
L 311.660074 525.56372 
L 312.208202 525.297446 
L 312.756329 524.827387 
L 313.304457 524.060747 
L 313.852585 522.789546 
L 314.400713 520.866099 
L 314.94884 518.201745 
L 315.496968 514.449839 
L 316.045096 509.613119 
L 316.593224 503.34945 
L 317.415415 491.733217 
L 318.511671 472.813185 
L 320.430118 438.385237 
L 321.252309 427.111489 
L 322.074501 419.023763 
L 322.622629 415.873344 
L 323.170756 413.869885 
L 323.44482 413.181007 
L 323.718884 412.907397 
L 324.267012 412.771297 
L 324.81514 413.423074 
L 325.089203 413.833579 
L 325.363267 414.007646 
L 325.637331 414.029361 
L 325.911395 413.937878 
L 326.185459 414.068722 
L 326.459523 413.928404 
L 327.281714 412.567849 
L 327.555778 411.95652 
L 327.829842 410.974131 
L 328.103906 410.533184 
L 329.200162 404.068548 
L 330.570481 391.055401 
L 333.859247 354.085916 
L 334.955503 344.191754 
L 336.051758 337.637094 
L 337.148014 333.091133 
L 337.422078 332.522938 
L 337.696141 332.26727 
L 337.970205 332.276059 
L 338.518333 331.501138 
L 338.792397 331.755574 
L 339.340525 330.89461 
L 340.710844 331.421718 
L 340.984908 331.348791 
L 341.533036 330.60408 
L 342.081163 330.028128 
L 342.355227 330.06826 
L 342.903355 328.711365 
L 343.177419 328.612215 
L 344.547738 325.674389 
L 344.821802 325.221698 
L 345.36993 323.273815 
L 345.918057 321.481759 
L 347.014313 317.844004 
L 347.288377 317.633529 
L 347.562441 316.396421 
L 348.658696 314.068735 
L 348.93276 313.109959 
L 349.206824 312.804776 
L 350.029016 310.508751 
L 350.577143 309.41473 
L 351.125271 307.526201 
L 353.591846 298.034476 
L 353.86591 297.080787 
L 354.414037 293.965717 
L 355.236229 291.99574 
L 355.784357 290.355049 
L 356.058421 290.82624 
L 356.606548 289.885487 
L 356.880612 289.886587 
L 357.154676 290.03069 
L 357.42874 290.462853 
L 357.976868 292.117319 
L 358.799059 295.900189 
L 359.347187 299.187244 
L 360.443443 307.795244 
L 362.36189 326.921083 
L 363.732209 342.440278 
L 366.198784 367.115861 
L 367.020975 373.588953 
L 368.939422 386.121561 
L 369.213486 387.209011 
L 370.035678 391.7898 
L 371.405997 397.046046 
L 373.324444 401.698681 
L 373.598508 402.033715 
L 374.968828 404.603589 
L 375.242891 405.076849 
L 376.887275 410.337619 
L 378.531658 417.870637 
L 381.54636 434.514661 
L 382.368552 438.201161 
L 383.464807 441.704214 
L 384.286999 443.638853 
L 384.561063 444.042754 
L 385.383255 445.887624 
L 385.657318 446.262553 
L 386.205446 447.415838 
L 386.47951 447.628984 
L 387.027638 448.561668 
L 387.301702 448.834815 
L 387.575766 449.639867 
L 387.849829 449.971097 
L 388.123893 450.793136 
L 388.672021 451.371608 
L 390.04234 454.012035 
L 390.316404 454.799304 
L 391.138596 456.202617 
L 391.686724 457.212697 
L 392.234851 458.155673 
L 392.782979 458.653256 
L 393.057043 458.919551 
L 393.331107 459.440503 
L 393.879235 459.870613 
L 394.701426 461.2254 
L 394.97549 461.68728 
L 395.249554 461.492457 
L 395.797682 462.18724 
L 396.071745 462.56248 
L 397.442065 465.641133 
L 398.53832 468.564887 
L 399.90864 473.069023 
L 401.827087 480.629002 
L 402.375214 482.431923 
L 403.745534 487.194935 
L 406.760236 495.660569 
L 408.40462 499.172207 
L 409.226811 500.453988 
L 410.049003 501.519745 
L 410.59713 501.912001 
L 411.693386 502.578966 
L 412.515578 502.679597 
L 413.885897 502.089157 
L 414.159961 502.275628 
L 414.708089 502.069037 
L 415.804344 501.671655 
L 416.352472 501.743327 
L 417.174663 501.928412 
L 419.367174 504.008828 
L 420.46343 505.446552 
L 421.559685 506.677323 
L 422.930005 507.970539 
L 423.752196 508.296539 
L 424.02626 508.297968 
L 424.300324 508.481386 
L 425.122516 508.512283 
L 425.396579 508.239425 
L 425.670643 508.184948 
L 426.218771 507.848529 
L 426.492835 507.943293 
L 427.040963 507.631416 
L 427.58909 507.471845 
L 427.863154 507.330352 
L 429.233474 507.470933 
L 430.055665 507.949786 
L 431.425985 509.357638 
L 433.892559 513.221705 
L 435.811006 516.891681 
L 436.633198 518.190867 
L 437.181326 518.989099 
L 438.551645 520.475753 
L 439.647901 520.993259 
L 440.470092 521.022896 
L 441.566348 520.656671 
L 442.662603 520.046596 
L 445.95137 518.224285 
L 447.321689 517.956284 
L 448.14388 518.079281 
L 449.5142 518.548177 
L 450.884519 519.320455 
L 452.254839 520.331276 
L 453.625158 521.296077 
L 454.447349 521.932591 
L 458.284244 524.107503 
L 460.202691 524.469233 
L 461.298946 524.440777 
L 462.395202 524.244878 
L 465.958032 523.394487 
L 467.054287 523.435742 
L 468.972735 523.871517 
L 471.439309 524.550688 
L 473.083693 524.757491 
L 475.550267 524.785685 
L 478.56497 524.740519 
L 480.757481 524.93426 
L 482.949992 525.100084 
L 485.416567 525.121981 
L 490.897844 525.01495 
L 495.008802 525.52383 
L 496.379121 525.597319 
L 498.571632 525.507364 
L 503.778846 525.120379 
L 509.808251 525.347747 
L 514.193273 525.081539 
L 516.385784 525.031539 
L 518.304231 525.229063 
L 522.415189 525.772322 
L 525.703955 525.848351 
L 532.007424 525.749318 
L 536.940574 525.518395 
L 546.532809 525.85 
L 558.317556 525.85 
L 558.317556 525.85 
" clip-path="url(#pd204e1cd8c)" style="fill: none; stroke: #377eb8; stroke-width: 1.142857"/>
   </g>
   <g id="line2d_33">
    <path d="M 299.957568 525.85 
L 307.601191 525.760271 
L 309.273234 525.485697 
L 310.228687 525.159877 
L 311.18414 524.614927 
L 312.139593 523.664496 
L 312.856182 522.610126 
L 313.572772 521.254177 
L 314.289362 519.406796 
L 315.005951 517.017123 
L 315.961404 512.72408 
L 316.916857 507.151263 
L 317.87231 500.142556 
L 318.827763 491.491837 
L 319.783216 481.244649 
L 321.216395 463.531693 
L 323.127301 436.165248 
L 326.232523 390.864905 
L 327.665702 372.166489 
L 329.098882 355.833162 
L 331.009787 338.716483 
L 331.96524 331.137025 
L 333.39842 322.200494 
L 333.876146 320.00197 
L 337.459094 305.802381 
L 337.697958 305.151374 
L 338.175684 303.391286 
L 340.80318 295.681707 
L 341.997496 293.086669 
L 342.475222 292.583217 
L 342.952949 291.667685 
L 343.430675 291.019186 
L 343.669538 291.121352 
L 343.908402 290.851431 
L 344.147265 290.382574 
L 345.341581 289.885487 
L 345.580444 290.043522 
L 347.252487 292.353069 
L 348.446803 294.5731 
L 350.835435 303.156019 
L 352.029751 308.368939 
L 353.701794 318.228427 
L 354.657247 324.245467 
L 355.6127 329.692365 
L 358.479058 348.642958 
L 359.434511 354.416035 
L 362.778596 374.332241 
L 366.361545 391.04804 
L 368.033587 398.442 
L 369.466767 404.994008 
L 370.661083 409.959738 
L 372.333125 417.548178 
L 374.005168 424.936872 
L 377.588116 440.072455 
L 378.543569 443.511251 
L 379.499022 447.255286 
L 380.454475 450.890492 
L 381.409928 454.32592 
L 384.754013 465.274299 
L 387.620372 473.5256 
L 388.814688 476.393005 
L 389.770141 478.753248 
L 390.009004 478.926465 
L 390.486731 479.883793 
L 393.114226 484.852629 
L 393.591952 485.605492 
L 394.308542 486.889306 
L 394.547405 487.163639 
L 395.502858 488.747214 
L 399.085807 495.014969 
L 402.191029 499.248578 
L 402.668755 499.553203 
L 404.818524 501.454341 
L 406.01284 502.239504 
L 407.923746 502.926456 
L 411.267831 504.631242 
L 411.984421 505.072029 
L 412.462147 505.53938 
L 413.4176 506.137345 
L 414.611916 507.227249 
L 414.85078 507.31982 
L 415.567369 508.060788 
L 417.717138 510.427854 
L 418.911454 511.693354 
L 421.300087 514.158461 
L 423.688719 515.966673 
L 425.360761 517.078117 
L 428.465983 518.223272 
L 431.332342 519.101168 
L 433.959838 520.228613 
L 440.409145 522.65543 
L 442.558914 523.10986 
L 443.992093 523.333111 
L 448.291631 523.541635 
L 452.113443 523.534499 
L 454.740938 523.541182 
L 457.368434 523.788364 
L 460.951382 524.402455 
L 462.145698 524.630115 
L 465.489783 525.068058 
L 468.117279 525.163775 
L 471.93909 525.099259 
L 478.149534 524.858649 
L 482.449072 524.924619 
L 491.764738 525.226631 
L 500.841541 525.297121 
L 505.857668 525.618141 
L 511.112659 525.822321 
L 521.861505 525.85 
L 526.161043 525.85 
L 526.161043 525.85 
" clip-path="url(#pd204e1cd8c)" style="fill: none; stroke: #4daf4a; stroke-width: 1.142857"/>
   </g>
   <g id="patch_13">
    <path d="M 300.097764 525.85 
L 300.097764 266.525 
" style="fill: none; stroke: #000000; stroke-width: 0.8; stroke-linejoin: miter; stroke-linecap: square"/>
   </g>
   <g id="patch_14">
    <path d="M 560.505527 525.85 
L 560.505527 266.525 
" style="fill: none; stroke: #000000; stroke-width: 0.8; stroke-linejoin: miter; stroke-linecap: square"/>
   </g>
   <g id="patch_15">
    <path d="M 300.097764 525.85 
L 560.505527 525.85 
" style="fill: none; stroke: #000000; stroke-width: 0.8; stroke-linejoin: miter; stroke-linecap: square"/>
   </g>
   <g id="patch_16">
    <path d="M 300.097764 266.525 
L 560.505527 266.525 
" style="fill: none; stroke: #000000; stroke-width: 0.8; stroke-linejoin: miter; stroke-linecap: square"/>
   </g>
  </g>
  <g id="legend_1">
   <g id="patch_17">
    <path d="M 417.574277 61.38 
L 558.105527 61.38 
Q 560.505527 61.38 560.505527 58.98 
L 560.505527 9.6 
Q 560.505527 7.2 558.105527 7.2 
L 417.574277 7.2 
Q 415.174277 7.2 415.174277 9.6 
L 415.174277 58.98 
Q 415.174277 61.38 417.574277 61.38 
z
" style="fill: #ffffff; opacity: 0.9; stroke: #cccccc; stroke-linejoin: miter"/>
   </g>
   <g id="line2d_34">
    <path d="M 423.574277 16.36875 
L 431.974277 16.36875 
L 440.374277 16.36875 
" style="fill: none; stroke: #e41a1c; stroke-width: 1.142857"/>
   </g>
   <g id="text_18">
    <!-- Gaussian -->
    <g transform="translate(453.574277 20.56875)scale(0.12 -0.12)">
     <defs>
      <path id="HelveticaNeue-Medium-47" d="M 4474 2406 
L 2528 2406 
L 2528 1798 
L 3744 1798 
C 3731 1024 3283 531 2464 544 
C 1485 544 1075 1408 1075 2285 
C 1075 3162 1485 4026 2464 4026 
C 3040 4026 3565 3718 3642 3117 
L 4422 3117 
C 4301 4147 3462 4678 2464 4678 
C 1094 4678 275 3590 275 2285 
C 275 979 1094 -109 2464 -109 
C 3021 -109 3411 51 3840 538 
L 3962 0 
L 4474 0 
L 4474 2406 
z
" transform="scale(0.015625)"/>
      <path id="HelveticaNeue-Medium-75" d="M 3290 3309 
L 2560 3309 
L 2560 1389 
C 2560 877 2355 486 1747 486 
C 1350 486 1114 698 1114 1280 
L 1114 3309 
L 384 3309 
L 384 1210 
C 384 346 755 -90 1619 -90 
C 1984 -90 2381 128 2560 461 
L 2573 461 
L 2573 0 
L 3290 0 
L 3290 3309 
z
" transform="scale(0.015625)"/>
      <path id="HelveticaNeue-Medium-69" d="M 403 0 
L 1133 0 
L 1133 3309 
L 403 3309 
L 403 0 
z
M 403 3878 
L 1133 3878 
L 1133 4570 
L 403 4570 
L 403 3878 
z
" transform="scale(0.015625)"/>
     </defs>
     <use xlink:href="#HelveticaNeue-Medium-47"/>
     <use xlink:href="#HelveticaNeue-Medium-61" x="75.899994"/>
     <use xlink:href="#HelveticaNeue-Medium-75" x="131.499985"/>
     <use xlink:href="#HelveticaNeue-Medium-73" x="188.899979"/>
     <use xlink:href="#HelveticaNeue-Medium-73" x="240.799973"/>
     <use xlink:href="#HelveticaNeue-Medium-69" x="292.699966"/>
     <use xlink:href="#HelveticaNeue-Medium-61" x="316.799957"/>
     <use xlink:href="#HelveticaNeue-Medium-6e" x="372.399948"/>
    </g>
   </g>
   <g id="line2d_35">
    <path d="M 423.574277 33.22875 
L 431.974277 33.22875 
L 440.374277 33.22875 
" style="fill: none; stroke: #377eb8; stroke-width: 1.142857"/>
   </g>
   <g id="text_19">
    <!-- Gaussian + Outlier -->
    <g transform="translate(453.574277 37.42875)scale(0.12 -0.12)">
     <defs>
      <path id="HelveticaNeue-Medium-20" transform="scale(0.015625)"/>
      <path id="HelveticaNeue-Medium-2b" d="M 1594 1946 
L 307 1946 
L 307 1293 
L 1594 1293 
L 1594 0 
L 2246 0 
L 2246 1293 
L 3533 1293 
L 3533 1946 
L 2246 1946 
L 2246 3238 
L 1594 3238 
L 1594 1946 
z
" transform="scale(0.015625)"/>
      <path id="HelveticaNeue-Medium-4f" d="M 2432 4678 
C 1062 4678 243 3590 243 2285 
C 243 979 1062 -109 2432 -109 
C 3802 -109 4621 979 4621 2285 
C 4621 3590 3802 4678 2432 4678 
z
M 2432 4026 
C 3411 4026 3821 3162 3821 2285 
C 3821 1408 3411 544 2432 544 
C 1453 544 1043 1408 1043 2285 
C 1043 3162 1453 4026 2432 4026 
z
" transform="scale(0.015625)"/>
      <path id="HelveticaNeue-Medium-6c" d="M 403 0 
L 1133 0 
L 1133 4570 
L 403 4570 
L 403 0 
z
" transform="scale(0.015625)"/>
     </defs>
     <use xlink:href="#HelveticaNeue-Medium-47"/>
     <use xlink:href="#HelveticaNeue-Medium-61" x="75.899994"/>
     <use xlink:href="#HelveticaNeue-Medium-75" x="131.499985"/>
     <use xlink:href="#HelveticaNeue-Medium-73" x="188.899979"/>
     <use xlink:href="#HelveticaNeue-Medium-73" x="240.799973"/>
     <use xlink:href="#HelveticaNeue-Medium-69" x="292.699966"/>
     <use xlink:href="#HelveticaNeue-Medium-61" x="316.799957"/>
     <use xlink:href="#HelveticaNeue-Medium-6e" x="372.399948"/>
     <use xlink:href="#HelveticaNeue-Medium-20" x="429.799942"/>
     <use xlink:href="#HelveticaNeue-Medium-2b" x="457.59993"/>
     <use xlink:href="#HelveticaNeue-Medium-20" x="517.599915"/>
     <use xlink:href="#HelveticaNeue-Medium-4f" x="545.399902"/>
     <use xlink:href="#HelveticaNeue-Medium-75" x="621.399887"/>
     <use xlink:href="#HelveticaNeue-Medium-74" x="678.799881"/>
     <use xlink:href="#HelveticaNeue-Medium-6c" x="712.099869"/>
     <use xlink:href="#HelveticaNeue-Medium-69" x="736.19986"/>
     <use xlink:href="#HelveticaNeue-Medium-65" x="760.29985"/>
     <use xlink:href="#HelveticaNeue-Medium-72" x="815.899841"/>
    </g>
   </g>
   <g id="line2d_36">
    <path d="M 423.574277 50.08875 
L 431.974277 50.08875 
L 440.374277 50.08875 
" style="fill: none; stroke: #4daf4a; stroke-width: 1.142857"/>
   </g>
   <g id="text_20">
    <!-- Student-t -->
    <g transform="translate(453.574277 54.28875)scale(0.12 -0.12)">
     <defs>
      <path id="HelveticaNeue-Medium-53" d="M 211 1523 
C 230 390 1075 -109 2118 -109 
C 3027 -109 3936 301 3936 1325 
C 3936 1798 3648 2310 3046 2490 
C 2810 2560 1798 2822 1728 2842 
C 1402 2931 1184 3110 1184 3430 
C 1184 3891 1651 4026 2022 4026 
C 2573 4026 2970 3808 3008 3219 
L 3808 3219 
C 3808 4173 3008 4678 2054 4678 
C 1229 4678 384 4250 384 3334 
C 384 2861 614 2387 1395 2176 
C 2022 2003 2438 1920 2758 1798 
C 2944 1728 3136 1587 3136 1235 
C 3136 890 2874 544 2170 544 
C 1530 544 1011 819 1011 1523 
L 211 1523 
z
" transform="scale(0.015625)"/>
      <path id="HelveticaNeue-Medium-64" d="M 954 1619 
C 954 2214 1197 2822 1882 2822 
C 2445 2822 2797 2387 2797 1658 
C 2797 1082 2522 486 1869 486 
C 1235 486 954 1050 954 1619 
z
M 3501 4570 
L 2771 4570 
L 2771 2880 
L 2758 2880 
C 2534 3245 2074 3398 1658 3398 
C 934 3398 224 2874 224 1677 
C 224 685 730 -90 1773 -90 
C 2189 -90 2605 70 2797 448 
L 2810 448 
L 2810 0 
L 3501 0 
L 3501 4570 
z
" transform="scale(0.015625)"/>
      <path id="HelveticaNeue-Medium-2d" d="M 314 1395 
L 2176 1395 
L 2176 2086 
L 314 2086 
L 314 1395 
z
" transform="scale(0.015625)"/>
     </defs>
     <use xlink:href="#HelveticaNeue-Medium-53"/>
     <use xlink:href="#HelveticaNeue-Medium-74" x="64.799988"/>
     <use xlink:href="#HelveticaNeue-Medium-75" x="98.099976"/>
     <use xlink:href="#HelveticaNeue-Medium-64" x="155.499969"/>
     <use xlink:href="#HelveticaNeue-Medium-65" x="216.59996"/>
     <use xlink:href="#HelveticaNeue-Medium-6e" x="272.199951"/>
     <use xlink:href="#HelveticaNeue-Medium-74" x="329.599945"/>
     <use xlink:href="#HelveticaNeue-Medium-2d" x="362.899933"/>
     <use xlink:href="#HelveticaNeue-Medium-74" x="401.799927"/>
    </g>
   </g>
  </g>
 </g>
 <defs>
  <clipPath id="p5a2881a4e6">
   <rect x="39.69" y="266.525" width="260.407764" height="259.325"/>
  </clipPath>
  <clipPath id="pd482cde870">
   <rect x="39.69" y="7.2" width="260.407764" height="259.325"/>
  </clipPath>
  <clipPath id="pd204e1cd8c">
   <rect x="300.097764" y="266.525" width="260.407764" height="259.325"/>
  </clipPath>
 </defs>
</svg>
