<?xml version="1.0" encoding="utf-8" standalone="no"?>
<!DOCTYPE svg PUBLIC "-//W3C//DTD SVG 1.1//EN"
  "http://www.w3.org/Graphics/SVG/1.1/DTD/svg11.dtd">
<svg xmlns:xlink="http://www.w3.org/1999/xlink" width="389.63875pt" height="309.921375pt" viewBox="0 0 389.63875 309.921375" xmlns="http://www.w3.org/2000/svg" version="1.1">
 <metadata>
  <rdf:RDF xmlns:dc="http://purl.org/dc/elements/1.1/" xmlns:cc="http://creativecommons.org/ns#" xmlns:rdf="http://www.w3.org/1999/02/22-rdf-syntax-ns#">
   <cc:Work>
    <dc:type rdf:resource="http://purl.org/dc/dcmitype/StillImage"/>
    <dc:date>2022-09-19T17:51:37.382920</dc:date>
    <dc:format>image/svg+xml</dc:format>
    <dc:creator>
     <cc:Agent>
      <dc:title>Matplotlib v3.5.1, https://matplotlib.org/</dc:title>
     </cc:Agent>
    </dc:creator>
   </cc:Work>
  </rdf:RDF>
 </metadata>
 <defs>
  <style type="text/css">*{stroke-linejoin: round; stroke-linecap: butt}</style>
 </defs>
 <g id="figure_1">
  <g id="patch_1">
   <path d="M 0 309.921375 
L 389.63875 309.921375 
L 389.63875 0 
L 0 0 
z
" style="fill: #ffffff"/>
  </g>
  <g id="axes_1">
   <g id="patch_2">
    <path d="M 23.56875 275.062 
L 380.68875 275.062 
L 380.68875 8.95 
L 23.56875 8.95 
z
" style="fill: #ffffff"/>
   </g>
   <g id="PolyCollection_1">
    <path d="M 213.147148 256.541477 
L 213.147148 256.657892 
L 214.298036 256.660155 
L 215.448925 256.662321 
L 216.599813 256.66534 
L 217.750702 256.670434 
L 218.90159 256.678996 
L 220.052478 256.692466 
L 221.203367 256.712184 
L 222.354255 256.739245 
L 223.505144 256.774362 
L 224.656032 256.817762 
L 225.80692 256.869119 
L 226.957809 256.927542 
L 228.108697 256.99163 
L 229.259586 257.059603 
L 230.410474 257.129492 
L 231.561362 257.199399 
L 232.712251 257.26777 
L 233.863139 257.333661 
L 235.014028 257.396919 
L 236.164916 257.45824 
L 237.315804 257.519068 
L 238.466693 257.58131 
L 239.617581 257.646917 
L 240.76847 257.717395 
L 241.919358 257.793353 
L 243.070246 257.874217 
L 244.221135 257.958189 
L 245.372023 258.042519 
L 246.522912 258.124057 
L 247.6738 258.200015 
L 248.824688 258.268763 
L 249.975577 258.330514 
L 251.126465 258.38773 
L 252.277354 258.445135 
L 253.428242 258.509314 
L 254.57913 258.587936 
L 255.730019 258.688727 
L 256.880907 258.818348 
L 258.031796 258.981371 
L 259.182684 259.179511 
L 260.333572 259.411254 
L 261.484461 259.671949 
L 262.635349 259.954365 
L 263.786238 260.249635 
L 264.937126 260.548423 
L 266.088014 260.842112 
L 267.238903 261.123777 
L 268.389791 261.388754 
L 269.54068 261.634703 
L 270.691568 261.861158 
L 271.842457 262.068725 
L 272.993345 262.258141 
L 274.144233 262.42945 
L 275.295122 262.58154 
L 276.44601 262.712138 
L 277.596899 262.818264 
L 278.747787 262.896995 
L 279.898675 262.946345 
L 281.049564 262.966 
L 282.200452 262.957743 
L 283.351341 262.925438 
L 284.502229 262.874571 
L 285.653117 262.811435 
L 286.804006 262.742081 
L 287.954894 262.671253 
L 289.105783 262.60147 
L 290.256671 262.532462 
L 291.407559 262.461064 
L 292.558448 262.38164 
L 293.709336 262.286981 
L 294.860225 262.169545 
L 296.011113 262.022823 
L 297.162001 261.842571 
L 298.31289 261.627699 
L 299.463778 261.380647 
L 300.614667 261.107206 
L 301.765555 260.815848 
L 302.916443 260.516704 
L 304.067332 260.220365 
L 305.21822 259.936711 
L 306.369109 259.673901 
L 307.519997 259.437644 
L 308.670885 259.230794 
L 309.821774 259.053283 
L 310.972662 258.902371 
L 312.123551 258.773158 
L 313.274439 258.659298 
L 314.425327 258.553826 
L 315.576216 258.450008 
L 316.727104 258.342127 
L 317.877993 258.226098 
L 319.028881 258.099855 
L 320.179769 257.963453 
L 321.330658 257.818892 
L 322.481546 257.669684 
L 323.632435 257.520263 
L 324.783323 257.375328 
L 325.934211 257.239224 
L 327.0851 257.115461 
L 327.0851 256.083907 
L 327.0851 256.083907 
L 325.934211 255.960144 
L 324.783323 255.82404 
L 323.632435 255.679105 
L 322.481546 255.529685 
L 321.330658 255.380477 
L 320.179769 255.235915 
L 319.028881 255.099514 
L 317.877993 254.97327 
L 316.727104 254.857242 
L 315.576216 254.74936 
L 314.425327 254.645543 
L 313.274439 254.54007 
L 312.123551 254.42621 
L 310.972662 254.296997 
L 309.821774 254.146085 
L 308.670885 253.968574 
L 307.519997 253.761724 
L 306.369109 253.525468 
L 305.21822 253.262658 
L 304.067332 252.979003 
L 302.916443 252.682664 
L 301.765555 252.38352 
L 300.614667 252.092163 
L 299.463778 251.818721 
L 298.31289 251.571669 
L 297.162001 251.356797 
L 296.011113 251.176545 
L 294.860225 251.029823 
L 293.709336 250.912387 
L 292.558448 250.817728 
L 291.407559 250.738304 
L 290.256671 250.666906 
L 289.105783 250.597898 
L 287.954894 250.528116 
L 286.804006 250.457287 
L 285.653117 250.387934 
L 284.502229 250.324797 
L 283.351341 250.273931 
L 282.200452 250.241625 
L 281.049564 250.233368 
L 279.898675 250.253024 
L 278.747787 250.302373 
L 277.596899 250.381104 
L 276.44601 250.48723 
L 275.295122 250.617829 
L 274.144233 250.769919 
L 272.993345 250.941228 
L 271.842457 251.130643 
L 270.691568 251.338211 
L 269.54068 251.564666 
L 268.389791 251.810614 
L 267.238903 252.075592 
L 266.088014 252.357256 
L 264.937126 252.650946 
L 263.786238 252.949734 
L 262.635349 253.245004 
L 261.484461 253.52742 
L 260.333572 253.788115 
L 259.182684 254.019858 
L 258.031796 254.217998 
L 256.880907 254.381021 
L 255.730019 254.510641 
L 254.57913 254.611432 
L 253.428242 254.690054 
L 252.277354 254.754233 
L 251.126465 254.811638 
L 249.975577 254.868854 
L 248.824688 254.930606 
L 247.6738 254.999353 
L 246.522912 255.075311 
L 245.372023 255.15685 
L 244.221135 255.241179 
L 243.070246 255.325151 
L 241.919358 255.406015 
L 240.76847 255.481974 
L 239.617581 255.552451 
L 238.466693 255.618058 
L 237.315804 255.6803 
L 236.164916 255.741128 
L 235.014028 255.80245 
L 233.863139 255.865707 
L 232.712251 255.931598 
L 231.561362 255.99997 
L 230.410474 256.069876 
L 229.259586 256.139765 
L 228.108697 256.207738 
L 226.957809 256.271827 
L 225.80692 256.33025 
L 224.656032 256.381606 
L 223.505144 256.425006 
L 222.354255 256.460123 
L 221.203367 256.487184 
L 220.052478 256.506903 
L 218.90159 256.520373 
L 217.750702 256.528935 
L 216.599813 256.534028 
L 215.448925 256.537048 
L 214.298036 256.539213 
L 213.147148 256.541477 
z
" clip-path="url(#p3c430e73db)" style="fill: #008fd5; fill-opacity: 0.3"/>
   </g>
   <g id="PolyCollection_2">
    <path d="M 122.564774 230.939727 
L 122.564774 231.329115 
L 125.008119 231.355704 
L 127.451465 231.383845 
L 129.894811 231.414036 
L 132.338157 231.446951 
L 134.781503 231.483391 
L 137.224849 231.524202 
L 139.668195 231.570196 
L 142.111541 231.622098 
L 144.554887 231.680506 
L 146.998233 231.745902 
L 149.441579 231.818701 
L 151.884925 231.899325 
L 154.328271 231.988307 
L 156.771617 232.086355 
L 159.214963 232.194387 
L 161.658309 232.313469 
L 164.101655 232.444671 
L 166.545001 232.588836 
L 168.988347 232.746301 
L 171.431693 232.916631 
L 173.875038 233.09843 
L 176.318384 233.289283 
L 178.76173 233.485864 
L 181.205076 233.684209 
L 183.648422 233.880111 
L 186.091768 234.069589 
L 188.535114 234.24934 
L 190.97846 234.417121 
L 193.421806 234.571988 
L 195.865152 234.714377 
L 198.308498 234.845998 
L 200.751844 234.969582 
L 203.19519 235.088496 
L 205.638536 235.206291 
L 208.081882 235.326254 
L 210.525228 235.451028 
L 212.968574 235.582361 
L 215.41192 235.721016 
L 217.855266 235.866843 
L 220.298612 236.018967 
L 222.741958 236.176025 
L 225.185303 236.336365 
L 227.628649 236.498135 
L 230.071995 236.65924 
L 232.515341 236.817175 
L 234.958687 236.968824 
L 237.402033 237.11032 
L 239.845379 237.237079 
L 242.288725 237.344066 
L 244.732071 237.426297 
L 247.175417 237.479489 
L 249.618763 237.500737 
L 252.062109 237.489047 
L 254.505455 237.445586 
L 256.948801 237.373562 
L 259.392147 237.277752 
L 261.835493 237.163745 
L 264.278839 237.037061 
L 266.722185 236.902323 
L 269.165531 236.762648 
L 271.608877 236.619375 
L 274.052223 236.472161 
L 276.495568 236.319428 
L 278.938914 236.159016 
L 281.38226 235.988919 
L 283.825606 235.807905 
L 286.268952 235.615919 
L 288.712298 235.414166 
L 291.155644 235.204908 
L 293.59899 234.991036 
L 296.042336 234.775547 
L 298.485682 234.561073 
L 300.929028 234.349554 
L 303.372374 234.142139 
L 305.81572 233.939278 
L 308.259066 233.740977 
L 310.702412 233.547111 
L 313.145758 233.357715 
L 315.589104 233.173187 
L 318.03245 232.994367 
L 320.475796 232.822514 
L 322.919142 232.659187 
L 325.362487 232.506081 
L 327.805833 232.364845 
L 330.249179 232.236912 
L 332.692525 232.123343 
L 335.135871 232.024702 
L 337.579217 231.940965 
L 340.022563 231.871464 
L 342.465909 231.814884 
L 344.909255 231.769309 
L 347.352601 231.732348 
L 349.795947 231.701306 
L 352.239293 231.673418 
L 354.682639 231.646106 
L 357.125985 231.617227 
L 359.569331 231.585276 
L 362.012677 231.549516 
L 364.456023 231.510004 
L 364.456023 230.758838 
L 364.456023 230.758838 
L 362.012677 230.719326 
L 359.569331 230.683566 
L 357.125985 230.651615 
L 354.682639 230.622736 
L 352.239293 230.595424 
L 349.795947 230.567536 
L 347.352601 230.536494 
L 344.909255 230.499533 
L 342.465909 230.453958 
L 340.022563 230.397378 
L 337.579217 230.327877 
L 335.135871 230.24414 
L 332.692525 230.145499 
L 330.249179 230.03193 
L 327.805833 229.903997 
L 325.362487 229.762761 
L 322.919142 229.609655 
L 320.475796 229.446328 
L 318.03245 229.274476 
L 315.589104 229.095655 
L 313.145758 228.911127 
L 310.702412 228.721731 
L 308.259066 228.527865 
L 305.81572 228.329564 
L 303.372374 228.126703 
L 300.929028 227.919288 
L 298.485682 227.707769 
L 296.042336 227.493295 
L 293.59899 227.277806 
L 291.155644 227.063934 
L 288.712298 226.854676 
L 286.268952 226.652924 
L 283.825606 226.460937 
L 281.38226 226.279924 
L 278.938914 226.109826 
L 276.495568 225.949414 
L 274.052223 225.796681 
L 271.608877 225.649468 
L 269.165531 225.506194 
L 266.722185 225.36652 
L 264.278839 225.231781 
L 261.835493 225.105097 
L 259.392147 224.99109 
L 256.948801 224.89528 
L 254.505455 224.823256 
L 252.062109 224.779795 
L 249.618763 224.768105 
L 247.175417 224.789353 
L 244.732071 224.842545 
L 242.288725 224.924776 
L 239.845379 225.031763 
L 237.402033 225.158522 
L 234.958687 225.300018 
L 232.515341 225.451667 
L 230.071995 225.609602 
L 227.628649 225.770707 
L 225.185303 225.932478 
L 222.741958 226.092817 
L 220.298612 226.249875 
L 217.855266 226.401999 
L 215.41192 226.547826 
L 212.968574 226.686481 
L 210.525228 226.817814 
L 208.081882 226.942588 
L 205.638536 227.062551 
L 203.19519 227.180346 
L 200.751844 227.29926 
L 198.308498 227.422844 
L 195.865152 227.554466 
L 193.421806 227.696854 
L 190.97846 227.851721 
L 188.535114 228.019502 
L 186.091768 228.199254 
L 183.648422 228.388731 
L 181.205076 228.584633 
L 178.76173 228.782978 
L 176.318384 228.979559 
L 173.875038 229.170412 
L 171.431693 229.352211 
L 168.988347 229.522541 
L 166.545001 229.680006 
L 164.101655 229.824171 
L 161.658309 229.955374 
L 159.214963 230.074455 
L 156.771617 230.182487 
L 154.328271 230.280535 
L 151.884925 230.369517 
L 149.441579 230.450142 
L 146.998233 230.52294 
L 144.554887 230.588336 
L 142.111541 230.646744 
L 139.668195 230.698646 
L 137.224849 230.744641 
L 134.781503 230.785451 
L 132.338157 230.821891 
L 129.894811 230.854807 
L 127.451465 230.884997 
L 125.008119 230.913139 
L 122.564774 230.939727 
z
" clip-path="url(#p3c430e73db)" style="fill: #008fd5; fill-opacity: 0.3"/>
   </g>
   <g id="PolyCollection_3">
    <path d="M 187.796426 205.613615 
L 187.796426 205.7247 
L 189.040587 205.726395 
L 190.284748 205.727656 
L 191.528909 205.729604 
L 192.77307 205.733635 
L 194.017231 205.741229 
L 195.261392 205.753723 
L 196.505553 205.772119 
L 197.749714 205.79697 
L 198.993876 205.828408 
L 200.238037 205.866317 
L 201.482198 205.91065 
L 202.726359 205.961803 
L 203.97052 206.020954 
L 205.214681 206.090249 
L 206.458842 206.172726 
L 207.703003 206.271975 
L 208.947164 206.391581 
L 210.191326 206.534479 
L 211.435487 206.702399 
L 212.679648 206.895553 
L 213.923809 207.11262 
L 215.16797 207.351034 
L 216.412131 207.607446 
L 217.656292 207.878224 
L 218.900453 208.159847 
L 220.144614 208.449113 
L 221.388775 208.74318 
L 222.632937 209.039504 
L 223.877098 209.335777 
L 225.121259 209.629936 
L 226.36542 209.920233 
L 227.609581 210.205279 
L 228.853742 210.483937 
L 230.097903 210.754945 
L 231.342064 211.016263 
L 232.586225 211.264271 
L 233.830387 211.493113 
L 235.074548 211.69454 
L 236.318709 211.858538 
L 237.56287 211.974853 
L 238.807031 212.035172 
L 240.051192 212.035474 
L 241.295353 211.977839 
L 242.539514 211.871089 
L 243.783675 211.729873 
L 245.027837 211.572243 
L 246.271998 211.416234 
L 247.516159 211.276255 
L 248.76032 211.160212 
L 250.004481 211.068102 
L 251.248642 210.992444 
L 252.492803 210.920411 
L 253.736964 210.837088 
L 254.981125 210.729008 
L 256.225286 210.58707 
L 257.469448 210.408178 
L 258.713609 210.19534 
L 259.95777 209.956411 
L 261.201931 209.702035 
L 262.446092 209.443444 
L 263.690253 209.19071 
L 264.934414 208.951737 
L 266.178575 208.731994 
L 267.422736 208.53475 
L 268.666898 208.361476 
L 269.911059 208.21219 
L 271.15522 208.085605 
L 272.399381 207.979156 
L 273.643542 207.889009 
L 274.887703 207.810212 
L 276.131864 207.737048 
L 277.376025 207.663612 
L 278.620186 207.584526 
L 279.864348 207.495657 
L 281.108509 207.394681 
L 282.35267 207.281369 
L 283.596831 207.1575 
L 284.840992 207.026432 
L 286.085153 206.89243 
L 287.329314 206.759903 
L 288.573475 206.632734 
L 289.817636 206.513844 
L 291.061797 206.405028 
L 292.305959 206.307078 
L 293.55012 206.220054 
L 294.794281 206.14362 
L 296.038442 206.077315 
L 297.282603 206.020695 
L 298.526764 205.973339 
L 299.770925 205.934749 
L 301.015086 205.904215 
L 302.259247 205.880715 
L 303.503409 205.8629 
L 304.74757 205.84917 
L 305.991731 205.837841 
L 307.235892 205.827347 
L 308.480053 205.816432 
L 309.724214 205.80429 
L 310.968375 205.79062 
L 310.968375 205.547695 
L 310.968375 205.547695 
L 309.724214 205.534026 
L 308.480053 205.521884 
L 307.235892 205.510969 
L 305.991731 205.500475 
L 304.74757 205.489146 
L 303.503409 205.475416 
L 302.259247 205.4576 
L 301.015086 205.434101 
L 299.770925 205.403567 
L 298.526764 205.364976 
L 297.282603 205.317621 
L 296.038442 205.261001 
L 294.794281 205.194695 
L 293.55012 205.118261 
L 292.305959 205.031237 
L 291.061797 204.933287 
L 289.817636 204.824472 
L 288.573475 204.705581 
L 287.329314 204.578413 
L 286.085153 204.445886 
L 284.840992 204.311884 
L 283.596831 204.180816 
L 282.35267 204.056946 
L 281.108509 203.943634 
L 279.864348 203.842659 
L 278.620186 203.75379 
L 277.376025 203.674704 
L 276.131864 203.601268 
L 274.887703 203.528103 
L 273.643542 203.449306 
L 272.399381 203.35916 
L 271.15522 203.252711 
L 269.911059 203.126126 
L 268.666898 202.976839 
L 267.422736 202.803566 
L 266.178575 202.606321 
L 264.934414 202.386579 
L 263.690253 202.147606 
L 262.446092 201.894872 
L 261.201931 201.636281 
L 259.95777 201.381905 
L 258.713609 201.142976 
L 257.469448 200.930137 
L 256.225286 200.751246 
L 254.981125 200.609308 
L 253.736964 200.501228 
L 252.492803 200.417905 
L 251.248642 200.345871 
L 250.004481 200.270214 
L 248.76032 200.178104 
L 247.516159 200.06206 
L 246.271998 199.922082 
L 245.027837 199.766073 
L 243.783675 199.608443 
L 242.539514 199.467227 
L 241.295353 199.360477 
L 240.051192 199.302842 
L 238.807031 199.303144 
L 237.56287 199.363463 
L 236.318709 199.479778 
L 235.074548 199.643776 
L 233.830387 199.845203 
L 232.586225 200.074045 
L 231.342064 200.322053 
L 230.097903 200.583371 
L 228.853742 200.854379 
L 227.609581 201.133037 
L 226.36542 201.418083 
L 225.121259 201.70838 
L 223.877098 202.002539 
L 222.632937 202.298812 
L 221.388775 202.595135 
L 220.144614 202.889202 
L 218.900453 203.178469 
L 217.656292 203.460091 
L 216.412131 203.73087 
L 215.16797 203.987282 
L 213.923809 204.225696 
L 212.679648 204.442763 
L 211.435487 204.635917 
L 210.191326 204.803837 
L 208.947164 204.946735 
L 207.703003 205.066341 
L 206.458842 205.16559 
L 205.214681 205.248067 
L 203.97052 205.317361 
L 202.726359 205.376513 
L 201.482198 205.427666 
L 200.238037 205.471999 
L 198.993876 205.509908 
L 197.749714 205.541346 
L 196.505553 205.566197 
L 195.261392 205.584592 
L 194.017231 205.597087 
L 192.77307 205.604681 
L 191.528909 205.608712 
L 190.284748 205.61066 
L 189.040587 205.611921 
L 187.796426 205.613615 
z
" clip-path="url(#p3c430e73db)" style="fill: #008fd5; fill-opacity: 0.3"/>
   </g>
   <g id="PolyCollection_4">
    <path d="M 243.231167 180.058505 
L 243.231167 180.349285 
L 243.77396 180.371299 
L 244.316752 180.393466 
L 244.859544 180.415633 
L 245.402337 180.437748 
L 245.945129 180.459818 
L 246.487922 180.481871 
L 247.030714 180.50394 
L 247.573506 180.526075 
L 248.116299 180.548384 
L 248.659091 180.571088 
L 249.201884 180.594582 
L 249.744676 180.619494 
L 250.287468 180.646731 
L 250.830261 180.677512 
L 251.373053 180.713393 
L 251.915846 180.756269 
L 252.458638 180.808378 
L 253.00143 180.872292 
L 253.544223 180.950901 
L 254.087015 181.047352 
L 254.629808 181.164908 
L 255.1726 181.306691 
L 255.715392 181.475263 
L 256.258185 181.672108 
L 256.800977 181.897083 
L 257.34377 182.147997 
L 257.886562 182.420465 
L 258.429355 182.708135 
L 258.972147 183.003302 
L 259.514939 183.297814 
L 260.057732 183.58407 
L 260.600524 183.855937 
L 261.143317 184.1094 
L 261.686109 184.342865 
L 262.228901 184.557126 
L 262.771694 184.75502 
L 263.314486 184.940844 
L 263.857279 185.119569 
L 264.400071 185.295874 
L 264.942863 185.473106 
L 265.485656 185.652303 
L 266.028448 185.831542 
L 266.571241 186.005874 
L 267.114033 186.168009 
L 267.656825 186.309723 
L 268.199618 186.423667 
L 268.74241 186.5051 
L 269.285203 186.553002 
L 269.827995 186.570211 
L 270.370787 186.562517 
L 270.91358 186.537038 
L 271.456372 186.500382 
L 271.999165 186.457177 
L 272.541957 186.409371 
L 273.084749 186.356395 
L 273.627542 186.295991 
L 274.170334 186.225314 
L 274.713127 186.141905 
L 275.255919 186.044264 
L 275.798711 185.931926 
L 276.341504 185.805178 
L 276.884296 185.664599 
L 277.427089 185.510634 
L 277.969881 185.343355 
L 278.512674 185.162428 
L 279.055466 184.967278 
L 279.598258 184.75738 
L 280.141051 184.532602 
L 280.683843 184.293541 
L 281.226636 184.041757 
L 281.769428 183.779853 
L 282.31222 183.511361 
L 282.855013 183.24041 
L 283.397805 182.97126 
L 283.940598 182.7078 
L 284.48339 182.453139 
L 285.026182 182.209399 
L 285.568975 181.977754 
L 286.111767 181.758685 
L 286.65456 181.552358 
L 287.197352 181.359012 
L 287.740144 181.17924 
L 288.282937 181.014093 
L 288.825729 180.864997 
L 289.368522 180.73352 
L 289.911314 180.621063 
L 290.454106 180.528546 
L 290.996899 180.45617 
L 291.539691 180.40327 
L 292.082484 180.368289 
L 292.625276 180.348845 
L 293.168068 180.341885 
L 293.710861 180.343898 
L 294.253653 180.351185 
L 294.796446 180.360166 
L 295.339238 180.367697 
L 295.88203 180.371359 
L 296.424823 180.369664 
L 296.967615 180.36214 
L 296.967615 180.04565 
L 296.967615 180.04565 
L 296.424823 180.038125 
L 295.88203 180.036431 
L 295.339238 180.040093 
L 294.796446 180.047624 
L 294.253653 180.056605 
L 293.710861 180.063892 
L 293.168068 180.065905 
L 292.625276 180.058945 
L 292.082484 180.039501 
L 291.539691 180.00452 
L 290.996899 179.951619 
L 290.454106 179.879243 
L 289.911314 179.786727 
L 289.368522 179.674269 
L 288.825729 179.542793 
L 288.282937 179.393696 
L 287.740144 179.228549 
L 287.197352 179.048777 
L 286.65456 178.855432 
L 286.111767 178.649105 
L 285.568975 178.430035 
L 285.026182 178.19839 
L 284.48339 177.954651 
L 283.940598 177.699989 
L 283.397805 177.436529 
L 282.855013 177.16738 
L 282.31222 176.896428 
L 281.769428 176.627936 
L 281.226636 176.366033 
L 280.683843 176.114248 
L 280.141051 175.875187 
L 279.598258 175.65041 
L 279.055466 175.440511 
L 278.512674 175.245361 
L 277.969881 175.064435 
L 277.427089 174.897156 
L 276.884296 174.743191 
L 276.341504 174.602611 
L 275.798711 174.475864 
L 275.255919 174.363526 
L 274.713127 174.265884 
L 274.170334 174.182475 
L 273.627542 174.111798 
L 273.084749 174.051394 
L 272.541957 173.998419 
L 271.999165 173.950613 
L 271.456372 173.907407 
L 270.91358 173.870751 
L 270.370787 173.845273 
L 269.827995 173.837579 
L 269.285203 173.854787 
L 268.74241 173.90269 
L 268.199618 173.984122 
L 267.656825 174.098066 
L 267.114033 174.23978 
L 266.571241 174.401916 
L 266.028448 174.576247 
L 265.485656 174.755487 
L 264.942863 174.934683 
L 264.400071 175.111915 
L 263.857279 175.288221 
L 263.314486 175.466945 
L 262.771694 175.65277 
L 262.228901 175.850664 
L 261.686109 176.064924 
L 261.143317 176.29839 
L 260.600524 176.551852 
L 260.057732 176.82372 
L 259.514939 177.109976 
L 258.972147 177.404487 
L 258.429355 177.699655 
L 257.886562 177.987324 
L 257.34377 178.259792 
L 256.800977 178.510707 
L 256.258185 178.735682 
L 255.715392 178.932527 
L 255.1726 179.101099 
L 254.629808 179.242881 
L 254.087015 179.360438 
L 253.544223 179.456888 
L 253.00143 179.535497 
L 252.458638 179.599411 
L 251.915846 179.65152 
L 251.373053 179.694396 
L 250.830261 179.730277 
L 250.287468 179.761059 
L 249.744676 179.788295 
L 249.201884 179.813207 
L 248.659091 179.836701 
L 248.116299 179.859406 
L 247.573506 179.881715 
L 247.030714 179.90385 
L 246.487922 179.925918 
L 245.945129 179.947971 
L 245.402337 179.970042 
L 244.859544 179.992157 
L 244.316752 180.014324 
L 243.77396 180.036491 
L 243.231167 180.058505 
z
" clip-path="url(#p3c430e73db)" style="fill: #008fd5; fill-opacity: 0.3"/>
   </g>
   <g id="PolyCollection_5">
    <path d="M 188.482486 154.58085 
L 188.482486 154.896413 
L 189.564585 154.929908 
L 190.646684 154.968125 
L 191.728783 155.010976 
L 192.810882 155.058062 
L 193.892981 155.108702 
L 194.97508 155.162064 
L 196.057179 155.21736 
L 197.139278 155.274087 
L 198.221378 155.332237 
L 199.303477 155.392433 
L 200.385576 155.45595 
L 201.467675 155.524599 
L 202.549774 155.600513 
L 203.631873 155.685882 
L 204.713972 155.782692 
L 205.796071 155.89253 
L 206.87817 156.01649 
L 207.960269 156.155197 
L 209.042368 156.308909 
L 210.124467 156.477698 
L 211.206566 156.661629 
L 212.288666 156.860916 
L 213.370765 157.075996 
L 214.452864 157.307491 
L 215.534963 157.556033 
L 216.617062 157.821947 
L 217.699161 158.104822 
L 218.78126 158.403043 
L 219.863359 158.713384 
L 220.945458 159.030796 
L 222.027557 159.348489 
L 223.109656 159.658378 
L 224.191755 159.951834 
L 225.273854 160.220643 
L 226.355953 160.457948 
L 227.438053 160.658968 
L 228.520152 160.821326 
L 229.602251 160.944927 
L 230.68435 161.03146 
L 231.766449 161.083713 
L 232.848548 161.104947 
L 233.930647 161.098527 
L 235.012746 161.067907 
L 236.094845 161.016907 
L 237.176944 160.950106 
L 238.259043 160.873105 
L 239.341142 160.792456 
L 240.423241 160.71519 
L 241.505341 160.647983 
L 242.58744 160.596184 
L 243.669539 160.562939 
L 244.751638 160.548633 
L 245.833737 160.550804 
L 246.915836 160.5645 
L 247.997935 160.583006 
L 249.080034 160.598741 
L 250.162133 160.604158 
L 251.244232 160.592496 
L 252.326331 160.558297 
L 253.40843 160.497701 
L 254.490529 160.408528 
L 255.572628 160.290234 
L 256.654728 160.143763 
L 257.736827 159.971346 
L 258.818926 159.776232 
L 259.901025 159.562348 
L 260.983124 159.333909 
L 262.065223 159.095006 
L 263.147322 158.849245 
L 264.229421 158.599507 
L 265.31152 158.347891 
L 266.393619 158.095864 
L 267.475718 157.844559 
L 268.557817 157.595149 
L 269.639916 157.34918 
L 270.722016 157.108745 
L 271.804115 156.876453 
L 272.886214 156.655193 
L 273.968313 156.447743 
L 275.050412 156.256352 
L 276.132511 156.082391 
L 277.21461 155.926181 
L 278.296709 155.787022 
L 279.378808 155.663415 
L 280.460907 155.5534 
L 281.543006 155.454933 
L 282.625105 155.366198 
L 283.707204 155.285814 
L 284.789303 155.2129 
L 285.871403 155.147023 
L 286.953502 155.088059 
L 288.035601 155.036018 
L 289.1177 154.99087 
L 290.199799 154.952417 
L 291.281898 154.920216 
L 292.363997 154.893574 
L 293.446096 154.871605 
L 294.528195 154.853327 
L 295.610294 154.837783 
L 295.610294 154.63948 
L 295.610294 154.63948 
L 294.528195 154.623936 
L 293.446096 154.605658 
L 292.363997 154.583689 
L 291.281898 154.557047 
L 290.199799 154.524846 
L 289.1177 154.486393 
L 288.035601 154.441245 
L 286.953502 154.389204 
L 285.871403 154.33024 
L 284.789303 154.264363 
L 283.707204 154.191449 
L 282.625105 154.111065 
L 281.543006 154.02233 
L 280.460907 153.923863 
L 279.378808 153.813848 
L 278.296709 153.690241 
L 277.21461 153.551082 
L 276.132511 153.394872 
L 275.050412 153.220911 
L 273.968313 153.02952 
L 272.886214 152.82207 
L 271.804115 152.60081 
L 270.722016 152.368518 
L 269.639916 152.128083 
L 268.557817 151.882114 
L 267.475718 151.632705 
L 266.393619 151.381399 
L 265.31152 151.129372 
L 264.229421 150.877756 
L 263.147322 150.628018 
L 262.065223 150.382257 
L 260.983124 150.143354 
L 259.901025 149.914915 
L 258.818926 149.701031 
L 257.736827 149.505917 
L 256.654728 149.333501 
L 255.572628 149.187029 
L 254.490529 149.068735 
L 253.40843 148.979562 
L 252.326331 148.918966 
L 251.244232 148.884768 
L 250.162133 148.873105 
L 249.080034 148.878522 
L 247.997935 148.894257 
L 246.915836 148.912763 
L 245.833737 148.926459 
L 244.751638 148.92863 
L 243.669539 148.914325 
L 242.58744 148.881079 
L 241.505341 148.829281 
L 240.423241 148.762073 
L 239.341142 148.684807 
L 238.259043 148.604159 
L 237.176944 148.527157 
L 236.094845 148.460356 
L 235.012746 148.409356 
L 233.930647 148.378736 
L 232.848548 148.372316 
L 231.766449 148.39355 
L 230.68435 148.445803 
L 229.602251 148.532336 
L 228.520152 148.655937 
L 227.438053 148.818295 
L 226.355953 149.019315 
L 225.273854 149.25662 
L 224.191755 149.525429 
L 223.109656 149.818885 
L 222.027557 150.128774 
L 220.945458 150.446467 
L 219.863359 150.763879 
L 218.78126 151.07422 
L 217.699161 151.372441 
L 216.617062 151.655317 
L 215.534963 151.92123 
L 214.452864 152.169772 
L 213.370765 152.401267 
L 212.288666 152.616347 
L 211.206566 152.815634 
L 210.124467 152.999565 
L 209.042368 153.168354 
L 207.960269 153.322066 
L 206.87817 153.460773 
L 205.796071 153.584734 
L 204.713972 153.694571 
L 203.631873 153.791381 
L 202.549774 153.87675 
L 201.467675 153.952664 
L 200.385576 154.021313 
L 199.303477 154.08483 
L 198.221378 154.145026 
L 197.139278 154.203176 
L 196.057179 154.259903 
L 194.97508 154.315199 
L 193.892981 154.368561 
L 192.810882 154.419201 
L 191.728783 154.466287 
L 190.646684 154.509138 
L 189.564585 154.547355 
L 188.482486 154.58085 
z
" clip-path="url(#p3c430e73db)" style="fill: #008fd5; fill-opacity: 0.3"/>
   </g>
   <g id="PolyCollection_6">
    <path d="M 183.316489 129.183163 
L 183.316489 129.363574 
L 184.344488 129.378332 
L 185.372486 129.393929 
L 186.400485 129.41019 
L 187.428484 129.426772 
L 188.456482 129.443216 
L 189.484481 129.459113 
L 190.51248 129.474342 
L 191.540478 129.489303 
L 192.568477 129.505067 
L 193.596476 129.523386 
L 194.624474 129.54659 
L 195.652473 129.577432 
L 196.680471 129.618929 
L 197.70847 129.674248 
L 198.736469 129.74657 
L 199.764467 129.838865 
L 200.792466 129.953486 
L 201.820465 130.091605 
L 202.848463 130.252611 
L 203.876462 130.433677 
L 204.904461 130.629718 
L 205.932459 130.833874 
L 206.960458 131.038473 
L 207.988457 131.236267 
L 209.016455 131.421628 
L 210.044454 131.591408 
L 211.072453 131.745266 
L 212.100451 131.885451 
L 213.12845 132.016175 
L 214.156449 132.142801 
L 215.184447 132.271087 
L 216.212446 132.406644 
L 217.240445 132.554683 
L 218.268443 132.719979 
L 219.296442 132.90688 
L 220.324441 133.119141 
L 221.352439 133.359369 
L 222.380438 133.628031 
L 223.408437 133.922196 
L 224.436435 134.234414 
L 225.464434 134.552263 
L 226.492433 134.859035 
L 227.520431 135.135671 
L 228.54843 135.363659 
L 229.576429 135.52817 
L 230.604427 135.620582 
L 231.632426 135.639684 
L 232.660425 135.591282 
L 233.688423 135.486438 
L 234.716422 135.338947 
L 235.74442 135.162762 
L 236.772419 134.970001 
L 237.800418 134.769842 
L 238.828416 134.568348 
L 239.856415 134.369013 
L 240.884414 134.173666 
L 241.912412 133.983363 
L 242.940411 133.798927 
L 243.96841 133.620989 
L 244.996408 133.449526 
L 246.024407 133.283207 
L 247.052406 133.118912 
L 248.080404 132.951842 
L 249.108403 132.776403 
L 250.136402 132.587724 
L 251.1644 132.383337 
L 252.192399 132.164397 
L 253.220398 131.935916 
L 254.248396 131.705803 
L 255.276395 131.482982 
L 256.304394 131.275169 
L 257.332392 131.087066 
L 258.360391 130.919509 
L 259.38839 130.769811 
L 260.416388 130.633064 
L 261.444387 130.503906 
L 262.472386 130.378132 
L 263.500384 130.253694 
L 264.528383 130.130867 
L 265.556382 130.011698 
L 266.58438 129.899057 
L 267.612379 129.795655 
L 268.640378 129.703362 
L 269.668376 129.62294 
L 270.696375 129.554166 
L 271.724374 129.496192 
L 272.752372 129.447937 
L 273.780371 129.408396 
L 274.80837 129.376762 
L 275.836368 129.352413 
L 276.864367 129.334798 
L 277.892365 129.323291 
L 278.920364 129.317088 
L 279.948363 129.315155 
L 280.976361 129.316247 
L 282.00436 129.318996 
L 283.032359 129.322052 
L 284.060357 129.324243 
L 285.088356 129.324724 
L 285.088356 129.222012 
L 285.088356 129.222012 
L 284.060357 129.222494 
L 283.032359 129.224685 
L 282.00436 129.227741 
L 280.976361 129.23049 
L 279.948363 129.231582 
L 278.920364 129.229649 
L 277.892365 129.223446 
L 276.864367 129.211939 
L 275.836368 129.194323 
L 274.80837 129.169975 
L 273.780371 129.138341 
L 272.752372 129.0988 
L 271.724374 129.050545 
L 270.696375 128.99257 
L 269.668376 128.923797 
L 268.640378 128.843375 
L 267.612379 128.751082 
L 266.58438 128.64768 
L 265.556382 128.535039 
L 264.528383 128.41587 
L 263.500384 128.293042 
L 262.472386 128.168605 
L 261.444387 128.042831 
L 260.416388 127.913673 
L 259.38839 127.776926 
L 258.360391 127.627228 
L 257.332392 127.459671 
L 256.304394 127.271568 
L 255.276395 127.063755 
L 254.248396 126.840934 
L 253.220398 126.610821 
L 252.192399 126.38234 
L 251.1644 126.1634 
L 250.136402 125.959013 
L 249.108403 125.770334 
L 248.080404 125.594895 
L 247.052406 125.427825 
L 246.024407 125.26353 
L 244.996408 125.097211 
L 243.96841 124.925748 
L 242.940411 124.747809 
L 241.912412 124.563374 
L 240.884414 124.37307 
L 239.856415 124.177724 
L 238.828416 123.978389 
L 237.800418 123.776895 
L 236.772419 123.576735 
L 235.74442 123.383975 
L 234.716422 123.20779 
L 233.688423 123.060299 
L 232.660425 122.955455 
L 231.632426 122.907053 
L 230.604427 122.926155 
L 229.576429 123.018567 
L 228.54843 123.183078 
L 227.520431 123.411066 
L 226.492433 123.687702 
L 225.464434 123.994474 
L 224.436435 124.312323 
L 223.408437 124.62454 
L 222.380438 124.918706 
L 221.352439 125.187368 
L 220.324441 125.427596 
L 219.296442 125.639857 
L 218.268443 125.826758 
L 217.240445 125.992054 
L 216.212446 126.140093 
L 215.184447 126.27565 
L 214.156449 126.403936 
L 213.12845 126.530562 
L 212.100451 126.661286 
L 211.072453 126.801471 
L 210.044454 126.955329 
L 209.016455 127.125109 
L 207.988457 127.31047 
L 206.960458 127.508263 
L 205.932459 127.712863 
L 204.904461 127.917019 
L 203.876462 128.11306 
L 202.848463 128.294126 
L 201.820465 128.455132 
L 200.792466 128.593251 
L 199.764467 128.707872 
L 198.736469 128.800166 
L 197.70847 128.872489 
L 196.680471 128.927808 
L 195.652473 128.969305 
L 194.624474 129.000147 
L 193.596476 129.023351 
L 192.568477 129.04167 
L 191.540478 129.057434 
L 190.51248 129.072395 
L 189.484481 129.087624 
L 188.456482 129.103521 
L 187.428484 129.119965 
L 186.400485 129.136547 
L 185.372486 129.152808 
L 184.344488 129.168404 
L 183.316489 129.183163 
z
" clip-path="url(#p3c430e73db)" style="fill: #008fd5; fill-opacity: 0.3"/>
   </g>
   <g id="PolyCollection_7">
    <path d="M 151.426977 103.655543 
L 151.426977 103.960668 
L 153.078446 103.981598 
L 154.729916 104.002488 
L 156.381385 104.023413 
L 158.032854 104.044714 
L 159.684324 104.06699 
L 161.335793 104.091047 
L 162.987263 104.117818 
L 164.638732 104.148266 
L 166.290202 104.183286 
L 167.941671 104.223625 
L 169.59314 104.269844 
L 171.24461 104.322324 
L 172.896079 104.381304 
L 174.547549 104.446923 
L 176.199018 104.519242 
L 177.850487 104.598195 
L 179.501957 104.683496 
L 181.153426 104.774522 
L 182.804896 104.870232 
L 184.456365 104.969191 
L 186.107835 105.069737 
L 187.759304 105.170282 
L 189.410773 105.269689 
L 191.062243 105.367614 
L 192.713712 105.464713 
L 194.365182 105.562645 
L 196.016651 105.663855 
L 197.668121 105.771181 
L 199.31959 105.88741 
L 200.971059 106.014878 
L 202.622529 106.155214 
L 204.273998 106.30926 
L 205.925468 106.477139 
L 207.576937 106.658406 
L 209.228406 106.852179 
L 210.879876 107.057216 
L 212.531345 107.271888 
L 214.182815 107.494107 
L 215.834284 107.721269 
L 217.485754 107.950292 
L 219.137223 108.177798 
L 220.788692 108.400445 
L 222.440162 108.615345 
L 224.091631 108.820462 
L 225.743101 109.014842 
L 227.39457 109.198569 
L 229.04604 109.372378 
L 230.697509 109.536953 
L 232.348978 109.692034 
L 234.000448 109.835568 
L 235.651917 109.963145 
L 237.303387 110.067961 
L 238.954856 110.14143 
L 240.606325 110.174421 
L 242.257795 110.158905 
L 243.909264 110.089655 
L 245.560734 109.965595 
L 247.212203 109.790426 
L 248.863673 109.572333 
L 250.515142 109.322797 
L 252.166611 109.054772 
L 253.818081 108.780647 
L 255.46955 108.510468 
L 257.12102 108.250796 
L 258.772489 108.004418 
L 260.423958 107.770871 
L 262.075428 107.547557 
L 263.726897 107.331103 
L 265.378367 107.118597 
L 267.029836 106.908455 
L 268.681306 106.700768 
L 270.332775 106.497175 
L 271.984244 106.300386 
L 273.635714 106.113548 
L 275.287183 105.939619 
L 276.938653 105.780871 
L 278.590122 105.638568 
L 280.241592 105.512814 
L 281.893061 105.402558 
L 283.54453 105.305703 
L 285.196 105.219328 
L 286.847469 105.140001 
L 288.498939 105.064162 
L 290.150408 104.988564 
L 291.801877 104.910678 
L 293.453347 104.829018 
L 295.104816 104.743293 
L 296.756286 104.65436 
L 298.407755 104.563984 
L 300.059225 104.47446 
L 301.710694 104.388193 
L 303.362163 104.307313 
L 305.013633 104.233407 
L 306.665102 104.167396 
L 308.316572 104.109541 
L 309.968041 104.059566 
L 311.619511 104.016816 
L 313.27098 103.98044 
L 314.922449 103.949539 
L 314.922449 103.666671 
L 314.922449 103.666671 
L 313.27098 103.635771 
L 311.619511 103.599394 
L 309.968041 103.556645 
L 308.316572 103.506669 
L 306.665102 103.448815 
L 305.013633 103.382803 
L 303.362163 103.308898 
L 301.710694 103.228018 
L 300.059225 103.141751 
L 298.407755 103.052227 
L 296.756286 102.96185 
L 295.104816 102.872917 
L 293.453347 102.787193 
L 291.801877 102.705533 
L 290.150408 102.627647 
L 288.498939 102.552048 
L 286.847469 102.47621 
L 285.196 102.396882 
L 283.54453 102.310508 
L 281.893061 102.213653 
L 280.241592 102.103396 
L 278.590122 101.977643 
L 276.938653 101.835339 
L 275.287183 101.676592 
L 273.635714 101.502663 
L 271.984244 101.315825 
L 270.332775 101.119036 
L 268.681306 100.915442 
L 267.029836 100.707756 
L 265.378367 100.497614 
L 263.726897 100.285108 
L 262.075428 100.068653 
L 260.423958 99.84534 
L 258.772489 99.611793 
L 257.12102 99.365414 
L 255.46955 99.105742 
L 253.818081 98.835563 
L 252.166611 98.561439 
L 250.515142 98.293414 
L 248.863673 98.043877 
L 247.212203 97.825784 
L 245.560734 97.650615 
L 243.909264 97.526556 
L 242.257795 97.457306 
L 240.606325 97.441789 
L 238.954856 97.474781 
L 237.303387 97.548249 
L 235.651917 97.653065 
L 234.000448 97.780643 
L 232.348978 97.924177 
L 230.697509 98.079258 
L 229.04604 98.243832 
L 227.39457 98.417642 
L 225.743101 98.601369 
L 224.091631 98.795748 
L 222.440162 99.000865 
L 220.788692 99.215766 
L 219.137223 99.438413 
L 217.485754 99.665918 
L 215.834284 99.894941 
L 214.182815 100.122104 
L 212.531345 100.344323 
L 210.879876 100.558994 
L 209.228406 100.764031 
L 207.576937 100.957805 
L 205.925468 101.139071 
L 204.273998 101.306951 
L 202.622529 101.460997 
L 200.971059 101.601333 
L 199.31959 101.728801 
L 197.668121 101.84503 
L 196.016651 101.952356 
L 194.365182 102.053565 
L 192.713712 102.151498 
L 191.062243 102.248597 
L 189.410773 102.346521 
L 187.759304 102.445928 
L 186.107835 102.546474 
L 184.456365 102.647019 
L 182.804896 102.745978 
L 181.153426 102.841688 
L 179.501957 102.932715 
L 177.850487 103.018016 
L 176.199018 103.096968 
L 174.547549 103.169287 
L 172.896079 103.234907 
L 171.24461 103.293886 
L 169.59314 103.346366 
L 167.941671 103.392586 
L 166.290202 103.432925 
L 164.638732 103.467944 
L 162.987263 103.498393 
L 161.335793 103.525164 
L 159.684324 103.54922 
L 158.032854 103.571497 
L 156.381385 103.592798 
L 154.729916 103.613723 
L 153.078446 103.634613 
L 151.426977 103.655543 
z
" clip-path="url(#p3c430e73db)" style="fill: #008fd5; fill-opacity: 0.3"/>
   </g>
   <g id="PolyCollection_8">
    <path d="M 150.37541 78.201503 
L 150.37541 78.484181 
L 151.430776 78.514601 
L 152.486142 78.550635 
L 153.541508 78.593064 
L 154.596874 78.642563 
L 155.65224 78.699637 
L 156.707605 78.764594 
L 157.762971 78.837575 
L 158.818337 78.918621 
L 159.873703 79.007786 
L 160.929069 79.10525 
L 161.984435 79.211426 
L 163.039801 79.327005 
L 164.095167 79.452934 
L 165.150533 79.590303 
L 166.205899 79.740161 
L 167.261265 79.903267 
L 168.316631 80.079861 
L 169.371997 80.269468 
L 170.427363 80.470833 
L 171.482729 80.681992 
L 172.538095 80.900517 
L 173.593461 81.123879 
L 174.648827 81.34988 
L 175.704193 81.577048 
L 176.759559 81.8049 
L 177.814925 82.033984 
L 178.870291 82.265657 
L 179.925657 82.501609 
L 180.981023 82.7432 
L 182.036389 82.990738 
L 183.091755 83.242832 
L 184.147121 83.495979 
L 185.202487 83.744494 
L 186.257853 83.980843 
L 187.313219 84.196361 
L 188.368585 84.382255 
L 189.423951 84.530733 
L 190.479317 84.636069 
L 191.534683 84.695406 
L 192.590049 84.709158 
L 193.645415 84.680913 
L 194.700781 84.616882 
L 195.756147 84.524974 
L 196.811513 84.413685 
L 197.866879 84.291005 
L 198.922245 84.163529 
L 199.977611 84.035911 
L 201.032977 83.910731 
L 202.088343 83.788721 
L 203.143709 83.669271 
L 204.199075 83.551057 
L 205.254441 83.432642 
L 206.309807 83.312944 
L 207.365172 83.191495 
L 208.420538 83.068491 
L 209.475904 82.94467 
L 210.53127 82.821083 
L 211.586636 82.698833 
L 212.642002 82.578828 
L 213.697368 82.461579 
L 214.752734 82.347069 
L 215.8081 82.234687 
L 216.863466 82.123236 
L 217.918832 82.011021 
L 218.974198 81.896018 
L 220.029564 81.77611 
L 221.08493 81.64938 
L 222.140296 81.514408 
L 223.195662 81.370517 
L 224.251028 81.217928 
L 225.306394 81.057772 
L 226.36176 80.891968 
L 227.417126 80.722991 
L 228.472492 80.553588 
L 229.527858 80.386495 
L 230.583224 80.224212 
L 231.63859 80.06886 
L 232.693956 79.922104 
L 233.749322 79.785139 
L 234.804688 79.658685 
L 235.860054 79.542997 
L 236.91542 79.437863 
L 237.970786 79.342636 
L 239.026152 79.256299 
L 240.081518 79.177592 
L 241.136884 79.105182 
L 242.19225 79.037855 
L 243.247616 78.974694 
L 244.302982 78.915171 
L 245.358348 78.859161 
L 246.413714 78.806844 
L 247.46908 78.758543 
L 248.524446 78.714537 
L 249.579812 78.674905 
L 250.635178 78.639437 
L 251.690544 78.607641 
L 252.74591 78.57883 
L 253.801276 78.552266 
L 254.856642 78.527302 
L 254.856642 78.158382 
L 254.856642 78.158382 
L 253.801276 78.133418 
L 252.74591 78.106854 
L 251.690544 78.078044 
L 250.635178 78.046247 
L 249.579812 78.010779 
L 248.524446 77.971147 
L 247.46908 77.927142 
L 246.413714 77.87884 
L 245.358348 77.826523 
L 244.302982 77.770513 
L 243.247616 77.71099 
L 242.19225 77.647829 
L 241.136884 77.580503 
L 240.081518 77.508092 
L 239.026152 77.429385 
L 237.970786 77.343049 
L 236.91542 77.247822 
L 235.860054 77.142688 
L 234.804688 77.026999 
L 233.749322 76.900546 
L 232.693956 76.76358 
L 231.63859 76.616824 
L 230.583224 76.461472 
L 229.527858 76.299189 
L 228.472492 76.132096 
L 227.417126 75.962693 
L 226.36176 75.793716 
L 225.306394 75.627912 
L 224.251028 75.467756 
L 223.195662 75.315167 
L 222.140296 75.171277 
L 221.08493 75.036304 
L 220.029564 74.909574 
L 218.974198 74.789666 
L 217.918832 74.674663 
L 216.863466 74.562449 
L 215.8081 74.450998 
L 214.752734 74.338615 
L 213.697368 74.224105 
L 212.642002 74.106856 
L 211.586636 73.986851 
L 210.53127 73.864602 
L 209.475904 73.741014 
L 208.420538 73.617193 
L 207.365172 73.494189 
L 206.309807 73.372741 
L 205.254441 73.253043 
L 204.199075 73.134627 
L 203.143709 73.016413 
L 202.088343 72.896963 
L 201.032977 72.774953 
L 199.977611 72.649773 
L 198.922245 72.522155 
L 197.866879 72.394679 
L 196.811513 72.271999 
L 195.756147 72.160711 
L 194.700781 72.068802 
L 193.645415 72.004771 
L 192.590049 71.976526 
L 191.534683 71.990278 
L 190.479317 72.049616 
L 189.423951 72.154951 
L 188.368585 72.303429 
L 187.313219 72.489323 
L 186.257853 72.704842 
L 185.202487 72.941191 
L 184.147121 73.189705 
L 183.091755 73.442852 
L 182.036389 73.694946 
L 180.981023 73.942484 
L 179.925657 74.184076 
L 178.870291 74.420027 
L 177.814925 74.6517 
L 176.759559 74.880784 
L 175.704193 75.108636 
L 174.648827 75.335804 
L 173.593461 75.561805 
L 172.538095 75.785167 
L 171.482729 76.003692 
L 170.427363 76.214852 
L 169.371997 76.416216 
L 168.316631 76.605824 
L 167.261265 76.782417 
L 166.205899 76.945524 
L 165.150533 77.095381 
L 164.095167 77.232751 
L 163.039801 77.35868 
L 161.984435 77.474258 
L 160.929069 77.580434 
L 159.873703 77.677898 
L 158.818337 77.767063 
L 157.762971 77.848109 
L 156.707605 77.92109 
L 155.65224 77.986047 
L 154.596874 78.043121 
L 153.541508 78.09262 
L 152.486142 78.13505 
L 151.430776 78.171083 
L 150.37541 78.201503 
z
" clip-path="url(#p3c430e73db)" style="fill: #008fd5; fill-opacity: 0.3"/>
   </g>
   <g id="PolyCollection_9">
    <path d="M 39.801477 52.551931 
L 39.801477 53.203227 
L 41.962413 53.268624 
L 44.123348 53.340766 
L 46.284283 53.419873 
L 48.445219 53.506264 
L 50.606154 53.600275 
L 52.767089 53.70215 
L 54.928025 53.811944 
L 57.08896 53.929477 
L 59.249896 54.05435 
L 61.410831 54.186038 
L 63.571766 54.324007 
L 65.732702 54.467816 
L 67.893637 54.617172 
L 70.054572 54.771921 
L 72.215508 54.93199 
L 74.376443 55.097331 
L 76.537378 55.267915 
L 78.698314 55.443805 
L 80.859249 55.625305 
L 83.020184 55.813134 
L 85.18112 56.008545 
L 87.342055 56.213311 
L 89.502991 56.429507 
L 91.663926 56.659093 
L 93.824861 56.903337 
L 95.985797 57.162168 
L 98.146732 57.433602 
L 100.307667 57.713356 
L 102.468603 57.99476 
L 104.629538 58.269062 
L 106.790473 58.526107 
L 108.951409 58.755382 
L 111.112344 58.947271 
L 113.27328 59.094334 
L 115.434215 59.192383 
L 117.59515 59.241078 
L 119.756086 59.243895 
L 121.917021 59.207413 
L 124.077956 59.140037 
L 126.238892 59.050437 
L 128.399827 58.946073 
L 130.560762 58.832155 
L 132.721698 58.711264 
L 134.882633 58.583685 
L 137.043568 58.448291 
L 139.204504 58.303691 
L 141.365439 58.149292 
L 143.526375 57.98599 
L 145.68731 57.816323 
L 147.848245 57.644095 
L 150.009181 57.47359 
L 152.170116 57.308618 
L 154.331051 57.15163 
L 156.491987 57.003106 
L 158.652922 56.86137 
L 160.813857 56.722843 
L 162.974793 56.582691 
L 165.135728 56.435729 
L 167.296664 56.277394 
L 169.457599 56.104605 
L 171.618534 55.916361 
L 173.77947 55.713972 
L 175.940405 55.500914 
L 178.10134 55.282358 
L 180.262276 55.064472 
L 182.423211 54.853637 
L 184.584146 54.655704 
L 186.745082 54.475401 
L 188.906017 54.315947 
L 191.066952 54.178919 
L 193.227888 54.064319 
L 195.388823 53.970817 
L 197.549759 53.896079 
L 199.710694 53.837134 
L 201.871629 53.790687 
L 204.032565 53.753389 
L 206.1935 53.722023 
L 208.354435 53.693629 
L 210.515371 53.665608 
L 212.676306 53.635799 
L 214.837241 53.602556 
L 216.998177 53.564824 
L 219.159112 53.522187 
L 221.320048 53.474872 
L 223.480983 53.423703 
L 225.641918 53.369991 
L 227.802854 53.31537 
L 229.963789 53.261601 
L 232.124724 53.210377 
L 234.28566 53.163138 
L 236.446595 53.120945 
L 238.60753 53.0844 
L 240.768466 53.053634 
L 242.929401 53.02835 
L 245.090336 53.007911 
L 247.251272 52.991459 
L 249.412207 52.978038 
L 251.573143 52.966721 
L 253.734078 52.956714 
L 253.734078 52.798444 
L 253.734078 52.798444 
L 251.573143 52.788437 
L 249.412207 52.77712 
L 247.251272 52.763699 
L 245.090336 52.747247 
L 242.929401 52.726808 
L 240.768466 52.701524 
L 238.60753 52.670758 
L 236.446595 52.634213 
L 234.28566 52.59202 
L 232.124724 52.544781 
L 229.963789 52.493557 
L 227.802854 52.439788 
L 225.641918 52.385166 
L 223.480983 52.331455 
L 221.320048 52.280286 
L 219.159112 52.232971 
L 216.998177 52.190334 
L 214.837241 52.152602 
L 212.676306 52.119359 
L 210.515371 52.089549 
L 208.354435 52.061529 
L 206.1935 52.033135 
L 204.032565 52.001769 
L 201.871629 51.964471 
L 199.710694 51.918024 
L 197.549759 51.859078 
L 195.388823 51.784341 
L 193.227888 51.690839 
L 191.066952 51.576239 
L 188.906017 51.43921 
L 186.745082 51.279757 
L 184.584146 51.099453 
L 182.423211 50.901521 
L 180.262276 50.690686 
L 178.10134 50.4728 
L 175.940405 50.254244 
L 173.77947 50.041186 
L 171.618534 49.838797 
L 169.457599 49.650552 
L 167.296664 49.477764 
L 165.135728 49.319429 
L 162.974793 49.172467 
L 160.813857 49.032315 
L 158.652922 48.893788 
L 156.491987 48.752052 
L 154.331051 48.603528 
L 152.170116 48.44654 
L 150.009181 48.281568 
L 147.848245 48.111063 
L 145.68731 47.938835 
L 143.526375 47.769168 
L 141.365439 47.605866 
L 139.204504 47.451467 
L 137.043568 47.306867 
L 134.882633 47.171473 
L 132.721698 47.043894 
L 130.560762 46.923003 
L 128.399827 46.809085 
L 126.238892 46.704721 
L 124.077956 46.615121 
L 121.917021 46.547745 
L 119.756086 46.511263 
L 117.59515 46.51408 
L 115.434215 46.562775 
L 113.27328 46.660824 
L 111.112344 46.807887 
L 108.951409 46.999776 
L 106.790473 47.229051 
L 104.629538 47.486096 
L 102.468603 47.760398 
L 100.307667 48.041802 
L 98.146732 48.321556 
L 95.985797 48.59299 
L 93.824861 48.851821 
L 91.663926 49.096065 
L 89.502991 49.325651 
L 87.342055 49.541847 
L 85.18112 49.746613 
L 83.020184 49.942024 
L 80.859249 50.129853 
L 78.698314 50.311353 
L 76.537378 50.487243 
L 74.376443 50.657827 
L 72.215508 50.823168 
L 70.054572 50.983237 
L 67.893637 51.137986 
L 65.732702 51.287342 
L 63.571766 51.43115 
L 61.410831 51.569119 
L 59.249896 51.700808 
L 57.08896 51.825681 
L 54.928025 51.943214 
L 52.767089 52.053008 
L 50.606154 52.154883 
L 48.445219 52.248894 
L 46.284283 52.335285 
L 44.123348 52.414392 
L 41.962413 52.486534 
L 39.801477 52.551931 
z
" clip-path="url(#p3c430e73db)" style="fill: #008fd5; fill-opacity: 0.3"/>
   </g>
   <g id="PolyCollection_10">
    <path d="M 100.502987 27.352226 
L 100.502987 27.472405 
L 102.875883 27.474467 
L 105.248779 27.476096 
L 107.621674 27.478197 
L 109.99457 27.481942 
L 112.367466 27.488666 
L 114.740361 27.499754 
L 117.113257 27.516533 
L 119.486153 27.540174 
L 121.859048 27.571616 
L 124.231944 27.611505 
L 126.60484 27.66014 
L 128.977736 27.717424 
L 131.350631 27.782822 
L 133.723527 27.85536 
L 136.096423 27.933661 
L 138.469318 28.016061 
L 140.842214 28.100808 
L 143.21511 28.186317 
L 145.588006 28.271455 
L 147.960901 28.355793 
L 150.333797 28.439745 
L 152.706693 28.524562 
L 155.079588 28.612134 
L 157.452484 28.70465 
L 159.82538 28.804177 
L 162.198275 28.912261 
L 164.571171 29.029645 
L 166.944067 29.156188 
L 169.316963 29.290988 
L 171.689858 29.432687 
L 174.062754 29.579879 
L 176.43565 29.731547 
L 178.808545 29.88742 
L 181.181441 30.048228 
L 183.554337 30.215776 
L 185.927232 30.392831 
L 188.300128 30.582809 
L 190.673024 30.78925 
L 193.04592 31.015133 
L 195.418815 31.262103 
L 197.791711 31.529731 
L 200.164607 31.814966 
L 202.537502 32.111922 
L 204.910398 32.412096 
L 207.283294 32.705045 
L 209.65619 32.979432 
L 212.029085 33.224286 
L 214.401981 33.430233 
L 216.774877 33.590514 
L 219.147772 33.701594 
L 221.520668 33.763317 
L 223.893564 33.778632 
L 226.266459 33.753012 
L 228.639355 33.693715 
L 231.012251 33.609014 
L 233.385147 33.507503 
L 235.758042 33.397488 
L 238.130938 33.286488 
L 240.503834 33.180803 
L 242.876729 33.085167 
L 245.249625 33.002491 
L 247.622521 32.933742 
L 249.995416 32.877963 
L 252.368312 32.832457 
L 254.741208 32.793083 
L 257.114104 32.754656 
L 259.486999 32.711371 
L 261.859895 32.657218 
L 264.232791 32.586387 
L 266.605686 32.493623 
L 268.978582 32.374569 
L 271.351478 32.226092 
L 273.724373 32.046577 
L 276.097269 31.836189 
L 278.470165 31.59704 
L 280.843061 31.333217 
L 283.215956 31.05062 
L 285.588852 30.756575 
L 287.961748 30.459248 
L 290.334643 30.166907 
L 292.707539 29.887147 
L 295.080435 29.626204 
L 297.453331 29.388449 
L 299.826226 29.176157 
L 302.199122 28.989557 
L 304.572018 28.827117 
L 306.944913 28.686008 
L 309.317809 28.562639 
L 311.690705 28.453185 
L 314.0636 28.354042 
L 316.436496 28.262172 
L 318.809392 28.175311 
L 321.182288 28.09205 
L 323.555183 28.011796 
L 325.928079 27.93464 
L 328.300975 27.861155 
L 330.67387 27.792175 
L 333.046766 27.728579 
L 335.419662 27.671115 
L 335.419662 27.153516 
L 335.419662 27.153516 
L 333.046766 27.096052 
L 330.67387 27.032456 
L 328.300975 26.963477 
L 325.928079 26.889992 
L 323.555183 26.812836 
L 321.182288 26.732582 
L 318.809392 26.64932 
L 316.436496 26.562459 
L 314.0636 26.470589 
L 311.690705 26.371447 
L 309.317809 26.261993 
L 306.944913 26.138623 
L 304.572018 25.997514 
L 302.199122 25.835074 
L 299.826226 25.648474 
L 297.453331 25.436183 
L 295.080435 25.198428 
L 292.707539 24.937484 
L 290.334643 24.657725 
L 287.961748 24.365383 
L 285.588852 24.068056 
L 283.215956 23.774012 
L 280.843061 23.491415 
L 278.470165 23.227592 
L 276.097269 22.988442 
L 273.724373 22.778054 
L 271.351478 22.598539 
L 268.978582 22.450062 
L 266.605686 22.331009 
L 264.232791 22.238245 
L 261.859895 22.167413 
L 259.486999 22.113261 
L 257.114104 22.069975 
L 254.741208 22.031549 
L 252.368312 21.992175 
L 249.995416 21.946668 
L 247.622521 21.89089 
L 245.249625 21.822141 
L 242.876729 21.739465 
L 240.503834 21.643828 
L 238.130938 21.538144 
L 235.758042 21.427144 
L 233.385147 21.317129 
L 231.012251 21.215617 
L 228.639355 21.130917 
L 226.266459 21.071619 
L 223.893564 21.046 
L 221.520668 21.061315 
L 219.147772 21.123038 
L 216.774877 21.234118 
L 214.401981 21.394399 
L 212.029085 21.600346 
L 209.65619 21.845199 
L 207.283294 22.119587 
L 204.910398 22.412536 
L 202.537502 22.71271 
L 200.164607 23.009666 
L 197.791711 23.294901 
L 195.418815 23.562528 
L 193.04592 23.809498 
L 190.673024 24.035382 
L 188.300128 24.241823 
L 185.927232 24.431801 
L 183.554337 24.608856 
L 181.181441 24.776403 
L 178.808545 24.937211 
L 176.43565 25.093085 
L 174.062754 25.244752 
L 171.689858 25.391945 
L 169.316963 25.533644 
L 166.944067 25.668444 
L 164.571171 25.794987 
L 162.198275 25.912371 
L 159.82538 26.020455 
L 157.452484 26.119982 
L 155.079588 26.212498 
L 152.706693 26.30007 
L 150.333797 26.384886 
L 147.960901 26.468839 
L 145.588006 26.553176 
L 143.21511 26.638314 
L 140.842214 26.723823 
L 138.469318 26.80857 
L 136.096423 26.890971 
L 133.723527 26.969272 
L 131.350631 27.041809 
L 128.977736 27.107208 
L 126.60484 27.164491 
L 124.231944 27.213127 
L 121.859048 27.253016 
L 119.486153 27.284458 
L 117.113257 27.308098 
L 114.740361 27.324877 
L 112.367466 27.335966 
L 109.99457 27.34269 
L 107.621674 27.346434 
L 105.248779 27.348536 
L 102.875883 27.350164 
L 100.502987 27.352226 
z
" clip-path="url(#p3c430e73db)" style="fill: #008fd5; fill-opacity: 0.3"/>
   </g>
   <g id="matplotlib.axis_1">
    <g id="xtick_1">
     <g id="line2d_1">
      <defs>
       <path id="m93f25a1576" d="M 0 1.75 
L 0 -1.75 
" style="stroke: #000000; stroke-width: 0.8"/>
      </defs>
      <g>
       <use xlink:href="#m93f25a1576" x="64.282548" y="275.062" style="stroke: #000000; stroke-width: 0.8"/>
      </g>
     </g>
     <g id="line2d_2">
      <g>
       <use xlink:href="#m93f25a1576" x="64.282548" y="8.95" style="stroke: #000000; stroke-width: 0.8"/>
      </g>
     </g>
     <g id="text_1">
      <!-- 60 -->
      <g transform="translate(55.723173 287.452625)scale(0.1 -0.1)">
       <defs>
        <path id="HelveticaNeue-Medium-2212" d="M 3533 1293 
L 3533 1946 
L 307 1946 
L 307 1293 
L 3533 1293 
z
" transform="scale(0.015625)"/>
        <path id="HelveticaNeue-Medium-36" d="M 1824 518 
C 1293 518 1018 966 1018 1453 
C 1018 1946 1293 2368 1824 2368 
C 2349 2368 2611 1933 2611 1453 
C 2611 973 2349 518 1824 518 
z
M 3258 3347 
C 3219 4077 2618 4570 1907 4570 
C 640 4570 218 3322 218 2253 
C 218 947 531 -90 1850 -90 
C 2746 -90 3341 570 3341 1440 
C 3341 2298 2816 2944 1926 2944 
C 1530 2944 1158 2765 960 2413 
L 947 2426 
C 992 3014 1082 3962 1875 3962 
C 2253 3962 2496 3712 2528 3347 
L 3258 3347 
z
" transform="scale(0.015625)"/>
        <path id="HelveticaNeue-Medium-30" d="M 1779 518 
C 1139 518 960 1306 960 2240 
C 960 3174 1139 3962 1779 3962 
C 2419 3962 2598 3174 2598 2240 
C 2598 1306 2419 518 1779 518 
z
M 1779 4570 
C 493 4570 230 3258 230 2240 
C 230 1222 493 -90 1779 -90 
C 3066 -90 3328 1222 3328 2240 
C 3328 3258 3066 4570 1779 4570 
z
" transform="scale(0.015625)"/>
       </defs>
       <use xlink:href="#HelveticaNeue-Medium-2212"/>
       <use xlink:href="#HelveticaNeue-Medium-36" x="59.999985"/>
       <use xlink:href="#HelveticaNeue-Medium-30" x="115.599976"/>
      </g>
     </g>
    </g>
    <g id="xtick_2">
     <g id="line2d_3">
      <g>
       <use xlink:href="#m93f25a1576" x="122.495267" y="275.062" style="stroke: #000000; stroke-width: 0.8"/>
      </g>
     </g>
     <g id="line2d_4">
      <g>
       <use xlink:href="#m93f25a1576" x="122.495267" y="8.95" style="stroke: #000000; stroke-width: 0.8"/>
      </g>
     </g>
     <g id="text_2">
      <!-- 40 -->
      <g transform="translate(113.935892 287.452625)scale(0.1 -0.1)">
       <defs>
        <path id="HelveticaNeue-Medium-34" d="M 3341 1638 
L 2765 1638 
L 2765 4480 
L 2074 4480 
L 154 1786 
L 154 1062 
L 2074 1062 
L 2074 0 
L 2765 0 
L 2765 1062 
L 3341 1062 
L 3341 1638 
z
M 2061 3610 
L 2074 3610 
L 2074 1638 
L 717 1638 
L 2061 3610 
z
" transform="scale(0.015625)"/>
       </defs>
       <use xlink:href="#HelveticaNeue-Medium-2212"/>
       <use xlink:href="#HelveticaNeue-Medium-34" x="59.999985"/>
       <use xlink:href="#HelveticaNeue-Medium-30" x="115.599976"/>
      </g>
     </g>
    </g>
    <g id="xtick_3">
     <g id="line2d_5">
      <g>
       <use xlink:href="#m93f25a1576" x="180.707987" y="275.062" style="stroke: #000000; stroke-width: 0.8"/>
      </g>
     </g>
     <g id="line2d_6">
      <g>
       <use xlink:href="#m93f25a1576" x="180.707987" y="8.95" style="stroke: #000000; stroke-width: 0.8"/>
      </g>
     </g>
     <g id="text_3">
      <!-- 20 -->
      <g transform="translate(172.148612 287.452625)scale(0.1 -0.1)">
       <defs>
        <path id="HelveticaNeue-Medium-32" d="M 3309 653 
L 1126 653 
C 1254 1050 1798 1325 2317 1683 
C 2829 2042 3315 2483 3315 3194 
C 3315 3770 2970 4570 1875 4570 
C 877 4570 333 3834 333 2842 
L 1062 2842 
C 1082 3469 1254 3962 1830 3962 
C 2458 3962 2592 3488 2586 3168 
C 2573 2470 1818 2118 1235 1696 
C 634 1293 256 736 250 0 
L 3309 0 
L 3309 653 
z
" transform="scale(0.015625)"/>
       </defs>
       <use xlink:href="#HelveticaNeue-Medium-2212"/>
       <use xlink:href="#HelveticaNeue-Medium-32" x="59.999985"/>
       <use xlink:href="#HelveticaNeue-Medium-30" x="115.599976"/>
      </g>
     </g>
    </g>
    <g id="xtick_4">
     <g id="line2d_7">
      <g>
       <use xlink:href="#m93f25a1576" x="238.920706" y="275.062" style="stroke: #000000; stroke-width: 0.8"/>
      </g>
     </g>
     <g id="line2d_8">
      <g>
       <use xlink:href="#m93f25a1576" x="238.920706" y="8.95" style="stroke: #000000; stroke-width: 0.8"/>
      </g>
     </g>
     <g id="text_4">
      <!-- 0 -->
      <g transform="translate(236.141019 287.452625)scale(0.1 -0.1)">
       <use xlink:href="#HelveticaNeue-Medium-30"/>
      </g>
     </g>
    </g>
    <g id="xtick_5">
     <g id="line2d_9">
      <g>
       <use xlink:href="#m93f25a1576" x="297.133425" y="275.062" style="stroke: #000000; stroke-width: 0.8"/>
      </g>
     </g>
     <g id="line2d_10">
      <g>
       <use xlink:href="#m93f25a1576" x="297.133425" y="8.95" style="stroke: #000000; stroke-width: 0.8"/>
      </g>
     </g>
     <g id="text_5">
      <!-- 20 -->
      <g transform="translate(291.57405 287.452625)scale(0.1 -0.1)">
       <use xlink:href="#HelveticaNeue-Medium-32"/>
       <use xlink:href="#HelveticaNeue-Medium-30" x="55.599991"/>
      </g>
     </g>
    </g>
    <g id="xtick_6">
     <g id="line2d_11">
      <g>
       <use xlink:href="#m93f25a1576" x="355.346145" y="275.062" style="stroke: #000000; stroke-width: 0.8"/>
      </g>
     </g>
     <g id="line2d_12">
      <g>
       <use xlink:href="#m93f25a1576" x="355.346145" y="8.95" style="stroke: #000000; stroke-width: 0.8"/>
      </g>
     </g>
     <g id="text_6">
      <!-- 40 -->
      <g transform="translate(349.78677 287.452625)scale(0.1 -0.1)">
       <use xlink:href="#HelveticaNeue-Medium-34"/>
       <use xlink:href="#HelveticaNeue-Medium-30" x="55.599991"/>
      </g>
     </g>
    </g>
    <g id="text_7">
     <!-- Velocity [km/s] -->
     <g transform="translate(168.140469 300.671375)scale(0.1 -0.1)">
      <defs>
       <path id="HelveticaNeue-Medium-56" d="M 1491 0 
L 2381 0 
L 3942 4570 
L 3130 4570 
L 1958 954 
L 1946 954 
L 800 4570 
L -32 4570 
L 1491 0 
z
" transform="scale(0.015625)"/>
       <path id="HelveticaNeue-Medium-65" d="M 3386 1466 
C 3507 2458 2867 3398 1824 3398 
C 838 3398 224 2592 224 1651 
C 224 634 806 -90 1843 -90 
C 2566 -90 3181 314 3341 1037 
L 2650 1037 
C 2522 672 2266 486 1843 486 
C 1235 486 954 947 954 1466 
L 3386 1466 
z
M 954 1946 
C 973 2438 1318 2822 1824 2822 
C 2317 2822 2630 2406 2656 1946 
L 954 1946 
z
" transform="scale(0.015625)"/>
       <path id="HelveticaNeue-Medium-6c" d="M 403 0 
L 1133 0 
L 1133 4570 
L 403 4570 
L 403 0 
z
" transform="scale(0.015625)"/>
       <path id="HelveticaNeue-Medium-6f" d="M 1901 486 
C 1248 486 960 1082 960 1658 
C 960 2227 1248 2822 1901 2822 
C 2554 2822 2842 2227 2842 1658 
C 2842 1082 2554 486 1901 486 
z
M 1901 -90 
C 2963 -90 3571 640 3571 1658 
C 3571 2669 2963 3398 1901 3398 
C 838 3398 230 2669 230 1658 
C 230 640 838 -90 1901 -90 
z
" transform="scale(0.015625)"/>
       <path id="HelveticaNeue-Medium-63" d="M 3347 2202 
C 3277 3014 2624 3398 1856 3398 
C 768 3398 224 2618 224 1619 
C 224 646 794 -90 1830 -90 
C 2682 -90 3213 384 3347 1242 
L 2618 1242 
C 2547 768 2253 486 1830 486 
C 1197 486 954 1069 954 1619 
C 954 2624 1485 2822 1862 2822 
C 2266 2822 2560 2605 2618 2202 
L 3347 2202 
z
" transform="scale(0.015625)"/>
       <path id="HelveticaNeue-Medium-69" d="M 403 0 
L 1133 0 
L 1133 3309 
L 403 3309 
L 403 0 
z
M 403 3878 
L 1133 3878 
L 1133 4570 
L 403 4570 
L 403 3878 
z
" transform="scale(0.015625)"/>
       <path id="HelveticaNeue-Medium-74" d="M 51 2765 
L 602 2765 
L 602 813 
C 614 262 755 -32 1517 -32 
C 1677 -32 1830 -6 1990 6 
L 1990 570 
C 1888 544 1786 544 1683 544 
C 1357 544 1331 698 1331 998 
L 1331 2765 
L 1990 2765 
L 1990 3309 
L 1331 3309 
L 1331 4301 
L 602 4301 
L 602 3309 
L 51 3309 
L 51 2765 
z
" transform="scale(0.015625)"/>
       <path id="HelveticaNeue-Medium-79" d="M 1274 13 
L 1190 -243 
C 1101 -525 1018 -704 678 -704 
C 563 -704 448 -678 333 -659 
L 333 -1274 
C 499 -1299 666 -1312 838 -1312 
C 1600 -1312 1773 -774 2010 -179 
L 3296 3309 
L 2534 3309 
L 1696 838 
L 1683 838 
L 819 3309 
L 19 3309 
L 1274 13 
z
" transform="scale(0.015625)"/>
       <path id="HelveticaNeue-Medium-20" transform="scale(0.015625)"/>
       <path id="HelveticaNeue-Medium-5b" d="M 461 -1222 
L 1888 -1222 
L 1888 -646 
L 1152 -646 
L 1152 4102 
L 1888 4102 
L 1888 4678 
L 461 4678 
L 461 -1222 
z
" transform="scale(0.015625)"/>
       <path id="HelveticaNeue-Medium-6b" d="M 403 0 
L 1133 0 
L 1133 1184 
L 1568 1606 
L 2579 0 
L 3469 0 
L 2080 2093 
L 3347 3309 
L 2451 3309 
L 1133 1971 
L 1133 4570 
L 403 4570 
L 403 0 
z
" transform="scale(0.015625)"/>
       <path id="HelveticaNeue-Medium-6d" d="M 384 0 
L 1114 0 
L 1114 1965 
C 1114 2515 1459 2822 1837 2822 
C 2278 2822 2419 2579 2419 2125 
L 2419 0 
L 3149 0 
L 3149 1939 
C 3149 2496 3360 2822 3853 2822 
C 4422 2822 4454 2458 4454 1933 
L 4454 0 
L 5184 0 
L 5184 2285 
C 5184 3091 4774 3398 4077 3398 
C 3597 3398 3283 3187 3040 2848 
C 2893 3226 2515 3398 2112 3398 
C 1587 3398 1312 3174 1094 2848 
L 1075 2848 
L 1075 3309 
L 384 3309 
L 384 0 
z
" transform="scale(0.015625)"/>
       <path id="HelveticaNeue-Medium-2f" d="M -141 -109 
L 557 -109 
L 2394 4678 
L 1696 4678 
L -141 -109 
z
" transform="scale(0.015625)"/>
       <path id="HelveticaNeue-Medium-73" d="M 205 1062 
C 218 282 838 -90 1670 -90 
C 2355 -90 3149 198 3149 986 
C 3149 1638 2611 1830 2080 1952 
C 1542 2074 1005 2125 1005 2483 
C 1005 2771 1395 2822 1606 2822 
C 1926 2822 2214 2726 2278 2381 
L 3040 2381 
C 2950 3117 2336 3398 1658 3398 
C 1056 3398 275 3174 275 2451 
C 275 1779 800 1587 1338 1472 
C 1869 1350 2400 1306 2419 922 
C 2438 544 1958 486 1683 486 
C 1293 486 973 640 934 1062 
L 205 1062 
z
" transform="scale(0.015625)"/>
       <path id="HelveticaNeue-Medium-5d" d="M 1434 4678 
L 6 4678 
L 6 4102 
L 742 4102 
L 742 -646 
L 6 -646 
L 6 -1222 
L 1434 -1222 
L 1434 4678 
z
" transform="scale(0.015625)"/>
      </defs>
      <use xlink:href="#HelveticaNeue-Medium-56"/>
      <use xlink:href="#HelveticaNeue-Medium-65" x="61.099991"/>
      <use xlink:href="#HelveticaNeue-Medium-6c" x="116.699982"/>
      <use xlink:href="#HelveticaNeue-Medium-6f" x="140.799973"/>
      <use xlink:href="#HelveticaNeue-Medium-63" x="200.09996"/>
      <use xlink:href="#HelveticaNeue-Medium-69" x="255.699951"/>
      <use xlink:href="#HelveticaNeue-Medium-74" x="279.799942"/>
      <use xlink:href="#HelveticaNeue-Medium-79" x="313.09993"/>
      <use xlink:href="#HelveticaNeue-Medium-20" x="364.999924"/>
      <use xlink:href="#HelveticaNeue-Medium-5b" x="392.799911"/>
      <use xlink:href="#HelveticaNeue-Medium-6b" x="422.399902"/>
      <use xlink:href="#HelveticaNeue-Medium-6d" x="476.099899"/>
      <use xlink:href="#HelveticaNeue-Medium-2f" x="563.099884"/>
      <use xlink:href="#HelveticaNeue-Medium-73" x="598.299881"/>
      <use xlink:href="#HelveticaNeue-Medium-5d" x="650.199875"/>
     </g>
    </g>
   </g>
   <g id="matplotlib.axis_2">
    <g id="ytick_1">
     <g id="line2d_13">
      <defs>
       <path id="m1d883b0c8b" d="M 1.75 0 
L -1.75 -0 
" style="stroke: #000000; stroke-width: 0.8"/>
      </defs>
      <g>
       <use xlink:href="#m1d883b0c8b" x="23.56875" y="231.134421" style="stroke: #000000; stroke-width: 0.8"/>
      </g>
     </g>
     <g id="line2d_14">
      <g>
       <use xlink:href="#m1d883b0c8b" x="380.68875" y="231.134421" style="stroke: #000000; stroke-width: 0.8"/>
      </g>
     </g>
     <g id="text_8">
      <!-- 2 -->
      <g transform="translate(12.759375 234.704734)scale(0.1 -0.1)">
       <use xlink:href="#HelveticaNeue-Medium-32"/>
      </g>
     </g>
    </g>
    <g id="ytick_2">
     <g id="line2d_15">
      <g>
       <use xlink:href="#m1d883b0c8b" x="23.56875" y="180.203895" style="stroke: #000000; stroke-width: 0.8"/>
      </g>
     </g>
     <g id="line2d_16">
      <g>
       <use xlink:href="#m1d883b0c8b" x="380.68875" y="180.203895" style="stroke: #000000; stroke-width: 0.8"/>
      </g>
     </g>
     <g id="text_9">
      <!-- 4 -->
      <g transform="translate(12.759375 183.774207)scale(0.1 -0.1)">
       <use xlink:href="#HelveticaNeue-Medium-34"/>
      </g>
     </g>
    </g>
    <g id="ytick_3">
     <g id="line2d_17">
      <g>
       <use xlink:href="#m1d883b0c8b" x="23.56875" y="129.273368" style="stroke: #000000; stroke-width: 0.8"/>
      </g>
     </g>
     <g id="line2d_18">
      <g>
       <use xlink:href="#m1d883b0c8b" x="380.68875" y="129.273368" style="stroke: #000000; stroke-width: 0.8"/>
      </g>
     </g>
     <g id="text_10">
      <!-- 6 -->
      <g transform="translate(12.759375 132.843681)scale(0.1 -0.1)">
       <use xlink:href="#HelveticaNeue-Medium-36"/>
      </g>
     </g>
    </g>
    <g id="ytick_4">
     <g id="line2d_19">
      <g>
       <use xlink:href="#m1d883b0c8b" x="23.56875" y="78.342842" style="stroke: #000000; stroke-width: 0.8"/>
      </g>
     </g>
     <g id="line2d_20">
      <g>
       <use xlink:href="#m1d883b0c8b" x="380.68875" y="78.342842" style="stroke: #000000; stroke-width: 0.8"/>
      </g>
     </g>
     <g id="text_11">
      <!-- 8 -->
      <g transform="translate(12.759375 81.913155)scale(0.1 -0.1)">
       <defs>
        <path id="HelveticaNeue-Medium-38" d="M 1779 486 
C 1293 486 928 794 928 1318 
C 928 1811 1293 2106 1779 2106 
C 2266 2106 2630 1811 2630 1318 
C 2630 794 2266 486 1779 486 
z
M 1779 -90 
C 2688 -90 3360 442 3360 1318 
C 3360 1882 3040 2285 2541 2413 
L 2541 2426 
C 2944 2579 3174 2912 3174 3347 
C 3174 4109 2669 4570 1779 4570 
C 890 4570 384 4109 384 3347 
C 384 2912 614 2579 1018 2426 
L 1018 2413 
C 518 2285 198 1882 198 1318 
C 198 442 870 -90 1779 -90 
z
M 1779 3994 
C 2170 3994 2483 3750 2483 3309 
C 2483 2886 2182 2650 1779 2650 
C 1376 2650 1075 2886 1075 3309 
C 1075 3750 1389 3994 1779 3994 
z
" transform="scale(0.015625)"/>
       </defs>
       <use xlink:href="#HelveticaNeue-Medium-38"/>
      </g>
     </g>
    </g>
    <g id="ytick_5">
     <g id="line2d_21">
      <g>
       <use xlink:href="#m1d883b0c8b" x="23.56875" y="27.412316" style="stroke: #000000; stroke-width: 0.8"/>
      </g>
     </g>
     <g id="line2d_22">
      <g>
       <use xlink:href="#m1d883b0c8b" x="380.68875" y="27.412316" style="stroke: #000000; stroke-width: 0.8"/>
      </g>
     </g>
     <g id="text_12">
      <!-- 10 -->
      <g transform="translate(7.2 30.982628)scale(0.1 -0.1)">
       <defs>
        <path id="HelveticaNeue-Medium-31" d="M 339 3162 
L 1440 3162 
L 1440 0 
L 2240 0 
L 2240 4480 
L 1645 4480 
C 1536 3942 954 3731 339 3738 
L 339 3162 
z
" transform="scale(0.015625)"/>
       </defs>
       <use xlink:href="#HelveticaNeue-Medium-31"/>
       <use xlink:href="#HelveticaNeue-Medium-30" x="55.599991"/>
      </g>
     </g>
    </g>
   </g>
   <g id="patch_3">
    <path d="M 23.56875 275.062 
L 23.56875 8.95 
" style="fill: none; stroke: #000000; stroke-width: 0.8; stroke-linejoin: miter; stroke-linecap: square"/>
   </g>
   <g id="patch_4">
    <path d="M 380.68875 275.062 
L 380.68875 8.95 
" style="fill: none; stroke: #000000; stroke-width: 0.8; stroke-linejoin: miter; stroke-linecap: square"/>
   </g>
   <g id="patch_5">
    <path d="M 23.56875 275.062 
L 380.68875 275.062 
" style="fill: none; stroke: #000000; stroke-width: 0.8; stroke-linejoin: miter; stroke-linecap: square"/>
   </g>
   <g id="patch_6">
    <path d="M 23.56875 8.95 
L 380.68875 8.95 
" style="fill: none; stroke: #000000; stroke-width: 0.8; stroke-linejoin: miter; stroke-linecap: square"/>
   </g>
  </g>
 </g>
 <defs>
  <clipPath id="p3c430e73db">
   <rect x="23.56875" y="8.95" width="357.12" height="266.112"/>
  </clipPath>
 </defs>
</svg>
