<?xml version="1.0" encoding="utf-8" standalone="no"?>
<!DOCTYPE svg PUBLIC "-//W3C//DTD SVG 1.1//EN"
  "http://www.w3.org/Graphics/SVG/1.1/DTD/svg11.dtd">
<svg xmlns:xlink="http://www.w3.org/1999/xlink" width="403.12pt" height="309.59325pt" viewBox="0 0 403.12 309.59325" xmlns="http://www.w3.org/2000/svg" version="1.1">
 <metadata>
  <rdf:RDF xmlns:dc="http://purl.org/dc/elements/1.1/" xmlns:cc="http://creativecommons.org/ns#" xmlns:rdf="http://www.w3.org/1999/02/22-rdf-syntax-ns#">
   <cc:Work>
    <dc:type rdf:resource="http://purl.org/dc/dcmitype/StillImage"/>
    <dc:date>2026-09-25T17:13:42.009823</dc:date>
    <dc:format>image/svg+xml</dc:format>
    <dc:creator>
     <cc:Agent>
      <dc:title>Matplotlib v3.10.8, https://matplotlib.org/</dc:title>
     </cc:Agent>
    </dc:creator>
   </cc:Work>
  </rdf:RDF>
 </metadata>
 <defs>
  <style type="text/css">*{stroke-linejoin: round; stroke-linecap: butt}</style>
 </defs>
 <g id="figure_1">
  <g id="patch_1">
   <path d="M 0 309.59325 
L 403.12 309.59325 
L 403.12 0 
L 0 0 
z
" style="fill: #ffffff"/>
  </g>
  <g id="axes_1">
   <g id="patch_2">
    <path d="M 37.05 275.062 
L 394.17 275.062 
L 394.17 8.95 
L 37.05 8.95 
z
" style="fill: #ffffff"/>
   </g>
   <g id="matplotlib.axis_1">
    <g id="xtick_1">
     <g id="line2d_1">
      <defs>
       <path id="m52ca5ba9ae" d="M 0 1.75 
L 0 -1.75 
" style="stroke: #000000; stroke-width: 0.8"/>
      </defs>
      <g>
       <use xlink:href="#m52ca5ba9ae" x="46.24315" y="275.062" style="stroke: #000000; stroke-width: 0.8"/>
      </g>
     </g>
     <g id="line2d_2">
      <g>
       <use xlink:href="#m52ca5ba9ae" x="46.24315" y="8.95" style="stroke: #000000; stroke-width: 0.8"/>
      </g>
     </g>
     <g id="text_1">
      <!-- 0 -->
      <g transform="translate(43.463462 287.452625) scale(0.1 -0.1)">
       <defs>
        <path id="HelveticaNeue-Light-30" d="M 1779 4518 
Q 1293 4518 985 4304 
Q 678 4090 508 3757 
Q 339 3424 278 3014 
Q 218 2605 218 2208 
Q 218 1818 278 1408 
Q 339 998 508 665 
Q 678 333 985 121 
Q 1293 -90 1779 -90 
Q 2272 -90 2576 121 
Q 2880 333 3049 665 
Q 3219 998 3280 1408 
Q 3341 1818 3341 2214 
Q 3341 2605 3280 3014 
Q 3219 3424 3049 3757 
Q 2880 4090 2576 4304 
Q 2272 4518 1779 4518 
z
M 1779 4179 
Q 2163 4179 2393 3980 
Q 2624 3782 2742 3488 
Q 2861 3194 2899 2848 
Q 2938 2502 2938 2214 
Q 2938 1920 2899 1577 
Q 2861 1235 2742 937 
Q 2624 640 2393 441 
Q 2163 243 1779 243 
Q 1395 243 1164 441 
Q 934 640 816 937 
Q 698 1235 659 1577 
Q 621 1920 621 2214 
Q 621 2502 659 2848 
Q 698 3194 816 3488 
Q 934 3782 1164 3980 
Q 1395 4179 1779 4179 
z
" transform="scale(0.015625)"/>
       </defs>
       <use xlink:href="#HelveticaNeue-Light-30"/>
      </g>
     </g>
    </g>
    <g id="xtick_2">
     <g id="line2d_3">
      <g>
       <use xlink:href="#m52ca5ba9ae" x="114.640047" y="275.062" style="stroke: #000000; stroke-width: 0.8"/>
      </g>
     </g>
     <g id="line2d_4">
      <g>
       <use xlink:href="#m52ca5ba9ae" x="114.640047" y="8.95" style="stroke: #000000; stroke-width: 0.8"/>
      </g>
     </g>
     <g id="text_2">
      <!-- 1 -->
      <g transform="translate(111.860359 287.452625) scale(0.1 -0.1)">
       <defs>
        <path id="HelveticaNeue-Light-31" d="M 621 3616 
L 621 3328 
L 1805 3328 
L 1805 0 
L 2208 0 
L 2208 4480 
L 1882 4480 
Q 1837 4173 1731 4003 
Q 1626 3834 1469 3750 
Q 1312 3667 1097 3644 
Q 883 3622 621 3616 
z
" transform="scale(0.015625)"/>
       </defs>
       <use xlink:href="#HelveticaNeue-Light-31"/>
      </g>
     </g>
    </g>
    <g id="xtick_3">
     <g id="line2d_5">
      <g>
       <use xlink:href="#m52ca5ba9ae" x="183.036944" y="275.062" style="stroke: #000000; stroke-width: 0.8"/>
      </g>
     </g>
     <g id="line2d_6">
      <g>
       <use xlink:href="#m52ca5ba9ae" x="183.036944" y="8.95" style="stroke: #000000; stroke-width: 0.8"/>
      </g>
     </g>
     <g id="text_3">
      <!-- 2 -->
      <g transform="translate(180.257257 287.452625) scale(0.1 -0.1)">
       <defs>
        <path id="HelveticaNeue-Light-32" d="M 3181 0 
L 3181 371 
L 691 371 
Q 730 595 883 784 
Q 1037 973 1238 1133 
Q 1440 1293 1657 1424 
Q 1875 1555 2035 1664 
Q 2259 1805 2460 1968 
Q 2662 2131 2819 2323 
Q 2976 2515 3069 2745 
Q 3162 2976 3162 3258 
Q 3162 3571 3056 3808 
Q 2950 4045 2761 4201 
Q 2573 4358 2320 4438 
Q 2067 4518 1773 4518 
Q 1408 4518 1136 4400 
Q 864 4282 685 4070 
Q 506 3859 419 3568 
Q 333 3277 339 2931 
L 742 2931 
Q 736 3181 790 3405 
Q 845 3629 966 3801 
Q 1088 3974 1283 4076 
Q 1478 4179 1754 4179 
Q 1958 4179 2140 4118 
Q 2323 4058 2460 3939 
Q 2598 3821 2678 3651 
Q 2758 3482 2758 3264 
Q 2758 2995 2665 2800 
Q 2573 2605 2387 2419 
Q 2202 2234 1968 2070 
Q 1734 1907 1497 1750 
Q 1261 1594 1037 1424 
Q 813 1254 633 1049 
Q 454 845 345 589 
Q 237 333 230 0 
L 3181 0 
z
" transform="scale(0.015625)"/>
       </defs>
       <use xlink:href="#HelveticaNeue-Light-32"/>
      </g>
     </g>
    </g>
    <g id="xtick_4">
     <g id="line2d_7">
      <g>
       <use xlink:href="#m52ca5ba9ae" x="251.433842" y="275.062" style="stroke: #000000; stroke-width: 0.8"/>
      </g>
     </g>
     <g id="line2d_8">
      <g>
       <use xlink:href="#m52ca5ba9ae" x="251.433842" y="8.95" style="stroke: #000000; stroke-width: 0.8"/>
      </g>
     </g>
     <g id="text_4">
      <!-- 3 -->
      <g transform="translate(248.654154 287.452625) scale(0.1 -0.1)">
       <defs>
        <path id="HelveticaNeue-Light-33" d="M 614 1427 
L 211 1427 
Q 186 1062 291 780 
Q 397 499 605 307 
Q 813 115 1104 12 
Q 1395 -90 1741 -90 
Q 2048 -90 2329 -3 
Q 2611 83 2822 256 
Q 3034 429 3158 681 
Q 3283 934 3283 1267 
Q 3283 1709 3043 2006 
Q 2803 2304 2362 2374 
L 2362 2387 
Q 2726 2477 2921 2745 
Q 3117 3014 3117 3379 
Q 3117 3680 2998 3894 
Q 2880 4109 2685 4246 
Q 2490 4384 2240 4451 
Q 1990 4518 1728 4518 
Q 1402 4518 1139 4406 
Q 877 4294 694 4099 
Q 512 3904 413 3635 
Q 314 3366 314 3046 
L 717 3046 
Q 710 3296 774 3504 
Q 838 3712 969 3862 
Q 1101 4013 1293 4096 
Q 1485 4179 1734 4179 
Q 1939 4179 2115 4131 
Q 2291 4083 2425 3977 
Q 2560 3872 2637 3715 
Q 2714 3558 2714 3334 
Q 2714 3123 2630 2969 
Q 2547 2816 2416 2717 
Q 2285 2618 2121 2570 
Q 1958 2522 1805 2522 
L 1466 2522 
L 1466 2182 
L 1805 2182 
Q 2029 2182 2224 2124 
Q 2419 2067 2566 1948 
Q 2714 1830 2797 1654 
Q 2880 1478 2880 1235 
Q 2880 998 2784 812 
Q 2688 627 2528 499 
Q 2368 371 2163 307 
Q 1958 243 1734 243 
Q 1466 243 1251 329 
Q 1037 416 893 569 
Q 749 723 675 940 
Q 602 1158 614 1427 
z
" transform="scale(0.015625)"/>
       </defs>
       <use xlink:href="#HelveticaNeue-Light-33"/>
      </g>
     </g>
    </g>
    <g id="xtick_5">
     <g id="line2d_9">
      <g>
       <use xlink:href="#m52ca5ba9ae" x="319.830739" y="275.062" style="stroke: #000000; stroke-width: 0.8"/>
      </g>
     </g>
     <g id="line2d_10">
      <g>
       <use xlink:href="#m52ca5ba9ae" x="319.830739" y="8.95" style="stroke: #000000; stroke-width: 0.8"/>
      </g>
     </g>
     <g id="text_5">
      <!-- 4 -->
      <g transform="translate(317.051052 287.452625) scale(0.1 -0.1)">
       <defs>
        <path id="HelveticaNeue-Light-34" d="M 2259 1453 
L 557 1453 
L 2246 3891 
L 2259 3891 
L 2259 1453 
z
M 192 1504 
L 192 1114 
L 2259 1114 
L 2259 0 
L 2630 0 
L 2630 1114 
L 3302 1114 
L 3302 1453 
L 2630 1453 
L 2630 4480 
L 2266 4480 
L 192 1504 
z
" transform="scale(0.015625)"/>
       </defs>
       <use xlink:href="#HelveticaNeue-Light-34"/>
      </g>
     </g>
    </g>
    <g id="xtick_6">
     <g id="line2d_11">
      <g>
       <use xlink:href="#m52ca5ba9ae" x="388.227636" y="275.062" style="stroke: #000000; stroke-width: 0.8"/>
      </g>
     </g>
     <g id="line2d_12">
      <g>
       <use xlink:href="#m52ca5ba9ae" x="388.227636" y="8.95" style="stroke: #000000; stroke-width: 0.8"/>
      </g>
     </g>
     <g id="text_6">
      <!-- 5 -->
      <g transform="translate(385.447949 287.452625) scale(0.1 -0.1)">
       <defs>
        <path id="HelveticaNeue-Light-35" d="M 634 1280 
L 230 1280 
Q 237 960 352 704 
Q 467 448 662 272 
Q 858 96 1123 3 
Q 1389 -90 1702 -90 
Q 2022 -90 2307 22 
Q 2592 134 2803 336 
Q 3014 538 3136 816 
Q 3258 1094 3258 1421 
Q 3258 1760 3152 2045 
Q 3046 2330 2851 2534 
Q 2656 2739 2377 2854 
Q 2099 2970 1754 2970 
Q 1485 2970 1229 2861 
Q 973 2752 806 2554 
L 794 2566 
L 1082 4051 
L 3040 4051 
L 3040 4422 
L 800 4422 
L 365 2099 
L 710 2099 
Q 877 2355 1139 2492 
Q 1402 2630 1709 2630 
Q 1958 2630 2169 2540 
Q 2381 2451 2531 2294 
Q 2682 2138 2768 1926 
Q 2854 1715 2854 1466 
Q 2854 1222 2777 1001 
Q 2701 781 2553 611 
Q 2406 442 2201 342 
Q 1997 243 1734 243 
Q 1504 243 1305 316 
Q 1107 390 960 528 
Q 813 666 726 858 
Q 640 1050 634 1280 
z
" transform="scale(0.015625)"/>
       </defs>
       <use xlink:href="#HelveticaNeue-Light-35"/>
      </g>
     </g>
    </g>
    <g id="text_7">
     <!-- x -->
     <g transform="translate(213.205313 300.49325) scale(0.1 -0.1)">
      <defs>
       <path id="HelveticaNeue-Light-78" d="M 1286 1715 
L 6 0 
L 506 0 
L 1523 1389 
L 2560 0 
L 3072 0 
L 1786 1722 
L 2976 3302 
L 2470 3302 
L 1549 2048 
L 608 3302 
L 102 3302 
L 1286 1715 
z
" transform="scale(0.015625)"/>
      </defs>
      <use xlink:href="#HelveticaNeue-Light-78"/>
     </g>
    </g>
   </g>
   <g id="matplotlib.axis_2">
    <g id="ytick_1">
     <g id="line2d_13">
      <defs>
       <path id="mcf1d3547b1" d="M 1.75 0 
L -1.75 -0 
" style="stroke: #000000; stroke-width: 0.8"/>
      </defs>
      <g>
       <use xlink:href="#mcf1d3547b1" x="37.05" y="256.900565" style="stroke: #000000; stroke-width: 0.8"/>
      </g>
     </g>
     <g id="line2d_14">
      <g>
       <use xlink:href="#mcf1d3547b1" x="394.17" y="256.900565" style="stroke: #000000; stroke-width: 0.8"/>
      </g>
     </g>
     <g id="text_8">
      <!-- −3 -->
      <g transform="translate(20.240625 260.470877) scale(0.1 -0.1)">
       <defs>
        <path id="HelveticaNeue-Light-2212" d="M 3533 1440 
L 3533 1779 
L 314 1779 
L 314 1440 
L 3533 1440 
z
" transform="scale(0.015625)"/>
       </defs>
       <use xlink:href="#HelveticaNeue-Light-2212"/>
       <use xlink:href="#HelveticaNeue-Light-33" transform="translate(59.999985 0)"/>
      </g>
     </g>
    </g>
    <g id="ytick_2">
     <g id="line2d_15">
      <g>
       <use xlink:href="#mcf1d3547b1" x="37.05" y="225.10279" style="stroke: #000000; stroke-width: 0.8"/>
      </g>
     </g>
     <g id="line2d_16">
      <g>
       <use xlink:href="#mcf1d3547b1" x="394.17" y="225.10279" style="stroke: #000000; stroke-width: 0.8"/>
      </g>
     </g>
     <g id="text_9">
      <!-- −2 -->
      <g transform="translate(20.240625 228.673102) scale(0.1 -0.1)">
       <use xlink:href="#HelveticaNeue-Light-2212"/>
       <use xlink:href="#HelveticaNeue-Light-32" transform="translate(59.999985 0)"/>
      </g>
     </g>
    </g>
    <g id="ytick_3">
     <g id="line2d_17">
      <g>
       <use xlink:href="#mcf1d3547b1" x="37.05" y="193.305014" style="stroke: #000000; stroke-width: 0.8"/>
      </g>
     </g>
     <g id="line2d_18">
      <g>
       <use xlink:href="#mcf1d3547b1" x="394.17" y="193.305014" style="stroke: #000000; stroke-width: 0.8"/>
      </g>
     </g>
     <g id="text_10">
      <!-- −1 -->
      <g transform="translate(20.240625 196.875327) scale(0.1 -0.1)">
       <use xlink:href="#HelveticaNeue-Light-2212"/>
       <use xlink:href="#HelveticaNeue-Light-31" transform="translate(59.999985 0)"/>
      </g>
     </g>
    </g>
    <g id="ytick_4">
     <g id="line2d_19">
      <g>
       <use xlink:href="#mcf1d3547b1" x="37.05" y="161.507239" style="stroke: #000000; stroke-width: 0.8"/>
      </g>
     </g>
     <g id="line2d_20">
      <g>
       <use xlink:href="#mcf1d3547b1" x="394.17" y="161.507239" style="stroke: #000000; stroke-width: 0.8"/>
      </g>
     </g>
     <g id="text_11">
      <!-- 0 -->
      <g transform="translate(26.240625 165.077551) scale(0.1 -0.1)">
       <use xlink:href="#HelveticaNeue-Light-30"/>
      </g>
     </g>
    </g>
    <g id="ytick_5">
     <g id="line2d_21">
      <g>
       <use xlink:href="#mcf1d3547b1" x="37.05" y="129.709464" style="stroke: #000000; stroke-width: 0.8"/>
      </g>
     </g>
     <g id="line2d_22">
      <g>
       <use xlink:href="#mcf1d3547b1" x="394.17" y="129.709464" style="stroke: #000000; stroke-width: 0.8"/>
      </g>
     </g>
     <g id="text_12">
      <!-- 1 -->
      <g transform="translate(26.240625 133.279776) scale(0.1 -0.1)">
       <use xlink:href="#HelveticaNeue-Light-31"/>
      </g>
     </g>
    </g>
    <g id="ytick_6">
     <g id="line2d_23">
      <g>
       <use xlink:href="#mcf1d3547b1" x="37.05" y="97.911688" style="stroke: #000000; stroke-width: 0.8"/>
      </g>
     </g>
     <g id="line2d_24">
      <g>
       <use xlink:href="#mcf1d3547b1" x="394.17" y="97.911688" style="stroke: #000000; stroke-width: 0.8"/>
      </g>
     </g>
     <g id="text_13">
      <!-- 2 -->
      <g transform="translate(26.240625 101.482001) scale(0.1 -0.1)">
       <use xlink:href="#HelveticaNeue-Light-32"/>
      </g>
     </g>
    </g>
    <g id="ytick_7">
     <g id="line2d_25">
      <g>
       <use xlink:href="#mcf1d3547b1" x="37.05" y="66.113913" style="stroke: #000000; stroke-width: 0.8"/>
      </g>
     </g>
     <g id="line2d_26">
      <g>
       <use xlink:href="#mcf1d3547b1" x="394.17" y="66.113913" style="stroke: #000000; stroke-width: 0.8"/>
      </g>
     </g>
     <g id="text_14">
      <!-- 3 -->
      <g transform="translate(26.240625 69.684225) scale(0.1 -0.1)">
       <use xlink:href="#HelveticaNeue-Light-33"/>
      </g>
     </g>
    </g>
    <g id="ytick_8">
     <g id="line2d_27">
      <g>
       <use xlink:href="#mcf1d3547b1" x="37.05" y="34.316138" style="stroke: #000000; stroke-width: 0.8"/>
      </g>
     </g>
     <g id="line2d_28">
      <g>
       <use xlink:href="#mcf1d3547b1" x="394.17" y="34.316138" style="stroke: #000000; stroke-width: 0.8"/>
      </g>
     </g>
     <g id="text_15">
      <!-- 4 -->
      <g transform="translate(26.240625 37.88645) scale(0.1 -0.1)">
       <use xlink:href="#HelveticaNeue-Light-34"/>
      </g>
     </g>
    </g>
    <g id="text_16">
     <!-- y -->
     <g transform="translate(14.340625 144.320844) rotate(-90) scale(0.1 -0.1)">
      <defs>
       <path id="HelveticaNeue-Light-79" d="M 13 3302 
L 1331 13 
L 1190 -358 
Q 1139 -474 1094 -570 
Q 1050 -666 986 -733 
Q 922 -800 835 -838 
Q 749 -877 614 -877 
Q 544 -877 477 -867 
Q 410 -858 339 -845 
L 339 -1184 
Q 390 -1203 457 -1206 
Q 525 -1210 646 -1216 
Q 838 -1216 963 -1181 
Q 1088 -1146 1181 -1066 
Q 1274 -986 1350 -848 
Q 1427 -710 1517 -499 
L 2950 3302 
L 2547 3302 
L 1530 486 
L 442 3302 
L 13 3302 
z
" transform="scale(0.015625)"/>
      </defs>
      <use xlink:href="#HelveticaNeue-Light-79"/>
     </g>
    </g>
   </g>
   <g id="LineCollection_1">
    <path d="M 174.33006 158.163937 
L 174.33006 94.568386 
" clip-path="url(#p37350b5306)" style="fill: none; stroke: #ffa500; stroke-width: 1.5"/>
    <path d="M 371.372694 170.552094 
L 371.372694 106.956544 
" clip-path="url(#p37350b5306)" style="fill: none; stroke: #ffa500; stroke-width: 1.5"/>
    <path d="M 296.573722 137.073843 
L 296.573722 73.478292 
" clip-path="url(#p37350b5306)" style="fill: none; stroke: #ffa500; stroke-width: 1.5"/>
    <path d="M 250.975064 171.483688 
L 250.975064 107.888138 
" clip-path="url(#p37350b5306)" style="fill: none; stroke: #ffa500; stroke-width: 1.5"/>
    <path d="M 99.599104 179.959774 
L 99.599104 116.364223 
" clip-path="url(#p37350b5306)" style="fill: none; stroke: #ffa500; stroke-width: 1.5"/>
    <path d="M 99.590856 155.835054 
L 99.590856 92.239503 
" clip-path="url(#p37350b5306)" style="fill: none; stroke: #ffa500; stroke-width: 1.5"/>
    <path d="M 66.106844 159.801278 
L 66.106844 96.205727 
" clip-path="url(#p37350b5306)" style="fill: none; stroke: #ffa500; stroke-width: 1.5"/>
    <path d="M 342.461954 117.967165 
L 342.461954 54.371614 
" clip-path="url(#p37350b5306)" style="fill: none; stroke: #ffa500; stroke-width: 1.5"/>
    <path d="M 251.815158 150.246795 
L 251.815158 86.651244 
" clip-path="url(#p37350b5306)" style="fill: none; stroke: #ffa500; stroke-width: 1.5"/>
    <path d="M 288.392987 191.664402 
L 288.392987 128.068851 
" clip-path="url(#p37350b5306)" style="fill: none; stroke: #ffa500; stroke-width: 1.5"/>
    <path d="M 53.282727 145.080848 
L 53.282727 81.485298 
" clip-path="url(#p37350b5306)" style="fill: none; stroke: #ffa500; stroke-width: 1.5"/>
    <path d="M 377.937273 192.881092 
L 377.937273 129.285541 
" clip-path="url(#p37350b5306)" style="fill: none; stroke: #ffa500; stroke-width: 1.5"/>
    <path d="M 330.925619 164.432882 
L 330.925619 100.837331 
" clip-path="url(#p37350b5306)" style="fill: none; stroke: #ffa500; stroke-width: 1.5"/>
    <path d="M 118.859831 119.32379 
L 118.859831 55.728239 
" clip-path="url(#p37350b5306)" style="fill: none; stroke: #ffa500; stroke-width: 1.5"/>
    <path d="M 108.424468 101.680382 
L 108.424468 38.084831 
" clip-path="url(#p37350b5306)" style="fill: none; stroke: #ffa500; stroke-width: 1.5"/>
    <path d="M 108.964647 105.009785 
L 108.964647 41.414234 
" clip-path="url(#p37350b5306)" style="fill: none; stroke: #ffa500; stroke-width: 1.5"/>
    <path d="M 150.289277 189.463416 
L 150.289277 125.867865 
" clip-path="url(#p37350b5306)" style="fill: none; stroke: #ffa500; stroke-width: 1.5"/>
    <path d="M 225.701709 191.627034 
L 225.701709 128.031483 
" clip-path="url(#p37350b5306)" style="fill: none; stroke: #ffa500; stroke-width: 1.5"/>
    <path d="M 193.961645 179.081801 
L 193.961645 115.48625 
" clip-path="url(#p37350b5306)" style="fill: none; stroke: #ffa500; stroke-width: 1.5"/>
    <path d="M 145.838998 127.862256 
L 145.838998 64.266705 
" clip-path="url(#p37350b5306)" style="fill: none; stroke: #ffa500; stroke-width: 1.5"/>
    <path d="M 255.487348 173.20087 
L 255.487348 109.605319 
" clip-path="url(#p37350b5306)" style="fill: none; stroke: #ffa500; stroke-width: 1.5"/>
    <path d="M 93.947886 138.965811 
L 93.947886 75.37026 
" clip-path="url(#p37350b5306)" style="fill: none; stroke: #ffa500; stroke-width: 1.5"/>
    <path d="M 146.152087 194.334738 
L 146.152087 130.739187 
" clip-path="url(#p37350b5306)" style="fill: none; stroke: #ffa500; stroke-width: 1.5"/>
    <path d="M 171.533217 217.86917 
L 171.533217 154.273619 
" clip-path="url(#p37350b5306)" style="fill: none; stroke: #ffa500; stroke-width: 1.5"/>
    <path d="M 202.212009 164.230927 
L 202.212009 100.635377 
" clip-path="url(#p37350b5306)" style="fill: none; stroke: #ffa500; stroke-width: 1.5"/>
    <path d="M 314.761148 91.683564 
L 314.761148 28.088013 
" clip-path="url(#p37350b5306)" style="fill: none; stroke: #ffa500; stroke-width: 1.5"/>
    <path d="M 114.528485 138.964351 
L 114.528485 75.3688 
" clip-path="url(#p37350b5306)" style="fill: none; stroke: #ffa500; stroke-width: 1.5"/>
    <path d="M 222.10335 151.981155 
L 222.10335 88.385604 
" clip-path="url(#p37350b5306)" style="fill: none; stroke: #ffa500; stroke-width: 1.5"/>
    <path d="M 248.839742 152.278883 
L 248.839742 88.683332 
" clip-path="url(#p37350b5306)" style="fill: none; stroke: #ffa500; stroke-width: 1.5"/>
    <path d="M 62.12847 168.642533 
L 62.12847 105.046982 
" clip-path="url(#p37350b5306)" style="fill: none; stroke: #ffa500; stroke-width: 1.5"/>
    <path d="M 254.014064 147.756921 
L 254.014064 84.16137 
" clip-path="url(#p37350b5306)" style="fill: none; stroke: #ffa500; stroke-width: 1.5"/>
    <path d="M 104.559755 84.641551 
L 104.559755 21.046 
" clip-path="url(#p37350b5306)" style="fill: none; stroke: #ffa500; stroke-width: 1.5"/>
    <path d="M 68.489785 144.624524 
L 68.489785 81.028974 
" clip-path="url(#p37350b5306)" style="fill: none; stroke: #ffa500; stroke-width: 1.5"/>
    <path d="M 370.747283 125.773839 
L 370.747283 62.178288 
" clip-path="url(#p37350b5306)" style="fill: none; stroke: #ffa500; stroke-width: 1.5"/>
    <path d="M 376.474325 262.966 
L 376.474325 199.370449 
" clip-path="url(#p37350b5306)" style="fill: none; stroke: #ffa500; stroke-width: 1.5"/>
    <path d="M 322.702502 111.941085 
L 322.702502 48.345535 
" clip-path="url(#p37350b5306)" style="fill: none; stroke: #ffa500; stroke-width: 1.5"/>
    <path d="M 150.416333 160.121484 
L 150.416333 96.525934 
" clip-path="url(#p37350b5306)" style="fill: none; stroke: #ffa500; stroke-width: 1.5"/>
    <path d="M 79.645497 146.587242 
L 79.645497 82.991691 
" clip-path="url(#p37350b5306)" style="fill: none; stroke: #ffa500; stroke-width: 1.5"/>
    <path d="M 280.24023 136.494455 
L 280.24023 72.898905 
" clip-path="url(#p37350b5306)" style="fill: none; stroke: #ffa500; stroke-width: 1.5"/>
    <path d="M 196.768474 253.173475 
L 196.768474 189.577924 
" clip-path="url(#p37350b5306)" style="fill: none; stroke: #ffa500; stroke-width: 1.5"/>
    <path d="M 87.978333 141.092439 
L 87.978333 77.496889 
" clip-path="url(#p37350b5306)" style="fill: none; stroke: #ffa500; stroke-width: 1.5"/>
    <path d="M 215.585971 175.626563 
L 215.585971 112.031012 
" clip-path="url(#p37350b5306)" style="fill: none; stroke: #ffa500; stroke-width: 1.5"/>
    <path d="M 58.00349 104.429013 
L 58.00349 40.833462 
" clip-path="url(#p37350b5306)" style="fill: none; stroke: #ffa500; stroke-width: 1.5"/>
    <path d="M 357.216621 180.775849 
L 357.216621 117.180299 
" clip-path="url(#p37350b5306)" style="fill: none; stroke: #ffa500; stroke-width: 1.5"/>
    <path d="M 134.741889 175.242494 
L 134.741889 111.646943 
" clip-path="url(#p37350b5306)" style="fill: none; stroke: #ffa500; stroke-width: 1.5"/>
    <path d="M 272.815493 160.035166 
L 272.815493 96.439615 
" clip-path="url(#p37350b5306)" style="fill: none; stroke: #ffa500; stroke-width: 1.5"/>
    <path d="M 152.843502 135.900354 
L 152.843502 72.304803 
" clip-path="url(#p37350b5306)" style="fill: none; stroke: #ffa500; stroke-width: 1.5"/>
    <path d="M 224.098345 172.307356 
L 224.098345 108.711806 
" clip-path="url(#p37350b5306)" style="fill: none; stroke: #ffa500; stroke-width: 1.5"/>
    <path d="M 233.209584 193.506577 
L 233.209584 129.911027 
" clip-path="url(#p37350b5306)" style="fill: none; stroke: #ffa500; stroke-width: 1.5"/>
    <path d="M 109.460506 118.453674 
L 109.460506 54.858123 
" clip-path="url(#p37350b5306)" style="fill: none; stroke: #ffa500; stroke-width: 1.5"/>
   </g>
   <g id="line2d_29">
    <defs>
     <path id="m14b046363d" d="M 2 0 
L -2 -0 
" style="stroke: #ffa500"/>
    </defs>
    <g clip-path="url(#p37350b5306)">
     <use xlink:href="#m14b046363d" x="174.33006" y="158.163937" style="fill: #ffa500; stroke: #ffa500"/>
     <use xlink:href="#m14b046363d" x="371.372694" y="170.552094" style="fill: #ffa500; stroke: #ffa500"/>
     <use xlink:href="#m14b046363d" x="296.573722" y="137.073843" style="fill: #ffa500; stroke: #ffa500"/>
     <use xlink:href="#m14b046363d" x="250.975064" y="171.483688" style="fill: #ffa500; stroke: #ffa500"/>
     <use xlink:href="#m14b046363d" x="99.599104" y="179.959774" style="fill: #ffa500; stroke: #ffa500"/>
     <use xlink:href="#m14b046363d" x="99.590856" y="155.835054" style="fill: #ffa500; stroke: #ffa500"/>
     <use xlink:href="#m14b046363d" x="66.106844" y="159.801278" style="fill: #ffa500; stroke: #ffa500"/>
     <use xlink:href="#m14b046363d" x="342.461954" y="117.967165" style="fill: #ffa500; stroke: #ffa500"/>
     <use xlink:href="#m14b046363d" x="251.815158" y="150.246795" style="fill: #ffa500; stroke: #ffa500"/>
     <use xlink:href="#m14b046363d" x="288.392987" y="191.664402" style="fill: #ffa500; stroke: #ffa500"/>
     <use xlink:href="#m14b046363d" x="53.282727" y="145.080848" style="fill: #ffa500; stroke: #ffa500"/>
     <use xlink:href="#m14b046363d" x="377.937273" y="192.881092" style="fill: #ffa500; stroke: #ffa500"/>
     <use xlink:href="#m14b046363d" x="330.925619" y="164.432882" style="fill: #ffa500; stroke: #ffa500"/>
     <use xlink:href="#m14b046363d" x="118.859831" y="119.32379" style="fill: #ffa500; stroke: #ffa500"/>
     <use xlink:href="#m14b046363d" x="108.424468" y="101.680382" style="fill: #ffa500; stroke: #ffa500"/>
     <use xlink:href="#m14b046363d" x="108.964647" y="105.009785" style="fill: #ffa500; stroke: #ffa500"/>
     <use xlink:href="#m14b046363d" x="150.289277" y="189.463416" style="fill: #ffa500; stroke: #ffa500"/>
     <use xlink:href="#m14b046363d" x="225.701709" y="191.627034" style="fill: #ffa500; stroke: #ffa500"/>
     <use xlink:href="#m14b046363d" x="193.961645" y="179.081801" style="fill: #ffa500; stroke: #ffa500"/>
     <use xlink:href="#m14b046363d" x="145.838998" y="127.862256" style="fill: #ffa500; stroke: #ffa500"/>
     <use xlink:href="#m14b046363d" x="255.487348" y="173.20087" style="fill: #ffa500; stroke: #ffa500"/>
     <use xlink:href="#m14b046363d" x="93.947886" y="138.965811" style="fill: #ffa500; stroke: #ffa500"/>
     <use xlink:href="#m14b046363d" x="146.152087" y="194.334738" style="fill: #ffa500; stroke: #ffa500"/>
     <use xlink:href="#m14b046363d" x="171.533217" y="217.86917" style="fill: #ffa500; stroke: #ffa500"/>
     <use xlink:href="#m14b046363d" x="202.212009" y="164.230927" style="fill: #ffa500; stroke: #ffa500"/>
     <use xlink:href="#m14b046363d" x="314.761148" y="91.683564" style="fill: #ffa500; stroke: #ffa500"/>
     <use xlink:href="#m14b046363d" x="114.528485" y="138.964351" style="fill: #ffa500; stroke: #ffa500"/>
     <use xlink:href="#m14b046363d" x="222.10335" y="151.981155" style="fill: #ffa500; stroke: #ffa500"/>
     <use xlink:href="#m14b046363d" x="248.839742" y="152.278883" style="fill: #ffa500; stroke: #ffa500"/>
     <use xlink:href="#m14b046363d" x="62.12847" y="168.642533" style="fill: #ffa500; stroke: #ffa500"/>
     <use xlink:href="#m14b046363d" x="254.014064" y="147.756921" style="fill: #ffa500; stroke: #ffa500"/>
     <use xlink:href="#m14b046363d" x="104.559755" y="84.641551" style="fill: #ffa500; stroke: #ffa500"/>
     <use xlink:href="#m14b046363d" x="68.489785" y="144.624524" style="fill: #ffa500; stroke: #ffa500"/>
     <use xlink:href="#m14b046363d" x="370.747283" y="125.773839" style="fill: #ffa500; stroke: #ffa500"/>
     <use xlink:href="#m14b046363d" x="376.474325" y="262.966" style="fill: #ffa500; stroke: #ffa500"/>
     <use xlink:href="#m14b046363d" x="322.702502" y="111.941085" style="fill: #ffa500; stroke: #ffa500"/>
     <use xlink:href="#m14b046363d" x="150.416333" y="160.121484" style="fill: #ffa500; stroke: #ffa500"/>
     <use xlink:href="#m14b046363d" x="79.645497" y="146.587242" style="fill: #ffa500; stroke: #ffa500"/>
     <use xlink:href="#m14b046363d" x="280.24023" y="136.494455" style="fill: #ffa500; stroke: #ffa500"/>
     <use xlink:href="#m14b046363d" x="196.768474" y="253.173475" style="fill: #ffa500; stroke: #ffa500"/>
     <use xlink:href="#m14b046363d" x="87.978333" y="141.092439" style="fill: #ffa500; stroke: #ffa500"/>
     <use xlink:href="#m14b046363d" x="215.585971" y="175.626563" style="fill: #ffa500; stroke: #ffa500"/>
     <use xlink:href="#m14b046363d" x="58.00349" y="104.429013" style="fill: #ffa500; stroke: #ffa500"/>
     <use xlink:href="#m14b046363d" x="357.216621" y="180.775849" style="fill: #ffa500; stroke: #ffa500"/>
     <use xlink:href="#m14b046363d" x="134.741889" y="175.242494" style="fill: #ffa500; stroke: #ffa500"/>
     <use xlink:href="#m14b046363d" x="272.815493" y="160.035166" style="fill: #ffa500; stroke: #ffa500"/>
     <use xlink:href="#m14b046363d" x="152.843502" y="135.900354" style="fill: #ffa500; stroke: #ffa500"/>
     <use xlink:href="#m14b046363d" x="224.098345" y="172.307356" style="fill: #ffa500; stroke: #ffa500"/>
     <use xlink:href="#m14b046363d" x="233.209584" y="193.506577" style="fill: #ffa500; stroke: #ffa500"/>
     <use xlink:href="#m14b046363d" x="109.460506" y="118.453674" style="fill: #ffa500; stroke: #ffa500"/>
    </g>
   </g>
   <g id="line2d_30">
    <g clip-path="url(#p37350b5306)">
     <use xlink:href="#m14b046363d" x="174.33006" y="94.568386" style="fill: #ffa500; stroke: #ffa500"/>
     <use xlink:href="#m14b046363d" x="371.372694" y="106.956544" style="fill: #ffa500; stroke: #ffa500"/>
     <use xlink:href="#m14b046363d" x="296.573722" y="73.478292" style="fill: #ffa500; stroke: #ffa500"/>
     <use xlink:href="#m14b046363d" x="250.975064" y="107.888138" style="fill: #ffa500; stroke: #ffa500"/>
     <use xlink:href="#m14b046363d" x="99.599104" y="116.364223" style="fill: #ffa500; stroke: #ffa500"/>
     <use xlink:href="#m14b046363d" x="99.590856" y="92.239503" style="fill: #ffa500; stroke: #ffa500"/>
     <use xlink:href="#m14b046363d" x="66.106844" y="96.205727" style="fill: #ffa500; stroke: #ffa500"/>
     <use xlink:href="#m14b046363d" x="342.461954" y="54.371614" style="fill: #ffa500; stroke: #ffa500"/>
     <use xlink:href="#m14b046363d" x="251.815158" y="86.651244" style="fill: #ffa500; stroke: #ffa500"/>
     <use xlink:href="#m14b046363d" x="288.392987" y="128.068851" style="fill: #ffa500; stroke: #ffa500"/>
     <use xlink:href="#m14b046363d" x="53.282727" y="81.485298" style="fill: #ffa500; stroke: #ffa500"/>
     <use xlink:href="#m14b046363d" x="377.937273" y="129.285541" style="fill: #ffa500; stroke: #ffa500"/>
     <use xlink:href="#m14b046363d" x="330.925619" y="100.837331" style="fill: #ffa500; stroke: #ffa500"/>
     <use xlink:href="#m14b046363d" x="118.859831" y="55.728239" style="fill: #ffa500; stroke: #ffa500"/>
     <use xlink:href="#m14b046363d" x="108.424468" y="38.084831" style="fill: #ffa500; stroke: #ffa500"/>
     <use xlink:href="#m14b046363d" x="108.964647" y="41.414234" style="fill: #ffa500; stroke: #ffa500"/>
     <use xlink:href="#m14b046363d" x="150.289277" y="125.867865" style="fill: #ffa500; stroke: #ffa500"/>
     <use xlink:href="#m14b046363d" x="225.701709" y="128.031483" style="fill: #ffa500; stroke: #ffa500"/>
     <use xlink:href="#m14b046363d" x="193.961645" y="115.48625" style="fill: #ffa500; stroke: #ffa500"/>
     <use xlink:href="#m14b046363d" x="145.838998" y="64.266705" style="fill: #ffa500; stroke: #ffa500"/>
     <use xlink:href="#m14b046363d" x="255.487348" y="109.605319" style="fill: #ffa500; stroke: #ffa500"/>
     <use xlink:href="#m14b046363d" x="93.947886" y="75.37026" style="fill: #ffa500; stroke: #ffa500"/>
     <use xlink:href="#m14b046363d" x="146.152087" y="130.739187" style="fill: #ffa500; stroke: #ffa500"/>
     <use xlink:href="#m14b046363d" x="171.533217" y="154.273619" style="fill: #ffa500; stroke: #ffa500"/>
     <use xlink:href="#m14b046363d" x="202.212009" y="100.635377" style="fill: #ffa500; stroke: #ffa500"/>
     <use xlink:href="#m14b046363d" x="314.761148" y="28.088013" style="fill: #ffa500; stroke: #ffa500"/>
     <use xlink:href="#m14b046363d" x="114.528485" y="75.3688" style="fill: #ffa500; stroke: #ffa500"/>
     <use xlink:href="#m14b046363d" x="222.10335" y="88.385604" style="fill: #ffa500; stroke: #ffa500"/>
     <use xlink:href="#m14b046363d" x="248.839742" y="88.683332" style="fill: #ffa500; stroke: #ffa500"/>
     <use xlink:href="#m14b046363d" x="62.12847" y="105.046982" style="fill: #ffa500; stroke: #ffa500"/>
     <use xlink:href="#m14b046363d" x="254.014064" y="84.16137" style="fill: #ffa500; stroke: #ffa500"/>
     <use xlink:href="#m14b046363d" x="104.559755" y="21.046" style="fill: #ffa500; stroke: #ffa500"/>
     <use xlink:href="#m14b046363d" x="68.489785" y="81.028974" style="fill: #ffa500; stroke: #ffa500"/>
     <use xlink:href="#m14b046363d" x="370.747283" y="62.178288" style="fill: #ffa500; stroke: #ffa500"/>
     <use xlink:href="#m14b046363d" x="376.474325" y="199.370449" style="fill: #ffa500; stroke: #ffa500"/>
     <use xlink:href="#m14b046363d" x="322.702502" y="48.345535" style="fill: #ffa500; stroke: #ffa500"/>
     <use xlink:href="#m14b046363d" x="150.416333" y="96.525934" style="fill: #ffa500; stroke: #ffa500"/>
     <use xlink:href="#m14b046363d" x="79.645497" y="82.991691" style="fill: #ffa500; stroke: #ffa500"/>
     <use xlink:href="#m14b046363d" x="280.24023" y="72.898905" style="fill: #ffa500; stroke: #ffa500"/>
     <use xlink:href="#m14b046363d" x="196.768474" y="189.577924" style="fill: #ffa500; stroke: #ffa500"/>
     <use xlink:href="#m14b046363d" x="87.978333" y="77.496889" style="fill: #ffa500; stroke: #ffa500"/>
     <use xlink:href="#m14b046363d" x="215.585971" y="112.031012" style="fill: #ffa500; stroke: #ffa500"/>
     <use xlink:href="#m14b046363d" x="58.00349" y="40.833462" style="fill: #ffa500; stroke: #ffa500"/>
     <use xlink:href="#m14b046363d" x="357.216621" y="117.180299" style="fill: #ffa500; stroke: #ffa500"/>
     <use xlink:href="#m14b046363d" x="134.741889" y="111.646943" style="fill: #ffa500; stroke: #ffa500"/>
     <use xlink:href="#m14b046363d" x="272.815493" y="96.439615" style="fill: #ffa500; stroke: #ffa500"/>
     <use xlink:href="#m14b046363d" x="152.843502" y="72.304803" style="fill: #ffa500; stroke: #ffa500"/>
     <use xlink:href="#m14b046363d" x="224.098345" y="108.711806" style="fill: #ffa500; stroke: #ffa500"/>
     <use xlink:href="#m14b046363d" x="233.209584" y="129.911027" style="fill: #ffa500; stroke: #ffa500"/>
     <use xlink:href="#m14b046363d" x="109.460506" y="54.858123" style="fill: #ffa500; stroke: #ffa500"/>
    </g>
   </g>
   <g id="line2d_31">
    <defs>
     <path id="m723a4245d2" d="M 0 3 
C 0.795609 3 1.55874 2.683901 2.12132 2.12132 
C 2.683901 1.55874 3 0.795609 3 0 
C 3 -0.795609 2.683901 -1.55874 2.12132 -2.12132 
C 1.55874 -2.683901 0.795609 -3 0 -3 
C -0.795609 -3 -1.55874 -2.683901 -2.12132 -2.12132 
C -2.683901 -1.55874 -3 -0.795609 -3 0 
C -3 0.795609 -2.683901 1.55874 -2.12132 2.12132 
C -1.55874 2.683901 -0.795609 3 0 3 
z
" style="stroke: #ffa500"/>
    </defs>
    <g clip-path="url(#p37350b5306)">
     <use xlink:href="#m723a4245d2" x="174.33006" y="126.366161" style="fill: #ffa500; stroke: #ffa500"/>
     <use xlink:href="#m723a4245d2" x="371.372694" y="138.754319" style="fill: #ffa500; stroke: #ffa500"/>
     <use xlink:href="#m723a4245d2" x="296.573722" y="105.276068" style="fill: #ffa500; stroke: #ffa500"/>
     <use xlink:href="#m723a4245d2" x="250.975064" y="139.685913" style="fill: #ffa500; stroke: #ffa500"/>
     <use xlink:href="#m723a4245d2" x="99.599104" y="148.161998" style="fill: #ffa500; stroke: #ffa500"/>
     <use xlink:href="#m723a4245d2" x="99.590856" y="124.037278" style="fill: #ffa500; stroke: #ffa500"/>
     <use xlink:href="#m723a4245d2" x="66.106844" y="128.003502" style="fill: #ffa500; stroke: #ffa500"/>
     <use xlink:href="#m723a4245d2" x="342.461954" y="86.169389" style="fill: #ffa500; stroke: #ffa500"/>
     <use xlink:href="#m723a4245d2" x="251.815158" y="118.44902" style="fill: #ffa500; stroke: #ffa500"/>
     <use xlink:href="#m723a4245d2" x="288.392987" y="159.866626" style="fill: #ffa500; stroke: #ffa500"/>
     <use xlink:href="#m723a4245d2" x="53.282727" y="113.283073" style="fill: #ffa500; stroke: #ffa500"/>
     <use xlink:href="#m723a4245d2" x="377.937273" y="161.083316" style="fill: #ffa500; stroke: #ffa500"/>
     <use xlink:href="#m723a4245d2" x="330.925619" y="132.635107" style="fill: #ffa500; stroke: #ffa500"/>
     <use xlink:href="#m723a4245d2" x="118.859831" y="87.526014" style="fill: #ffa500; stroke: #ffa500"/>
     <use xlink:href="#m723a4245d2" x="108.424468" y="69.882606" style="fill: #ffa500; stroke: #ffa500"/>
     <use xlink:href="#m723a4245d2" x="108.964647" y="73.212009" style="fill: #ffa500; stroke: #ffa500"/>
     <use xlink:href="#m723a4245d2" x="150.289277" y="157.665641" style="fill: #ffa500; stroke: #ffa500"/>
     <use xlink:href="#m723a4245d2" x="225.701709" y="159.829258" style="fill: #ffa500; stroke: #ffa500"/>
     <use xlink:href="#m723a4245d2" x="193.961645" y="147.284026" style="fill: #ffa500; stroke: #ffa500"/>
     <use xlink:href="#m723a4245d2" x="145.838998" y="96.064481" style="fill: #ffa500; stroke: #ffa500"/>
     <use xlink:href="#m723a4245d2" x="255.487348" y="141.403094" style="fill: #ffa500; stroke: #ffa500"/>
     <use xlink:href="#m723a4245d2" x="93.947886" y="107.168036" style="fill: #ffa500; stroke: #ffa500"/>
     <use xlink:href="#m723a4245d2" x="146.152087" y="162.536962" style="fill: #ffa500; stroke: #ffa500"/>
     <use xlink:href="#m723a4245d2" x="171.533217" y="186.071394" style="fill: #ffa500; stroke: #ffa500"/>
     <use xlink:href="#m723a4245d2" x="202.212009" y="132.433152" style="fill: #ffa500; stroke: #ffa500"/>
     <use xlink:href="#m723a4245d2" x="314.761148" y="59.885789" style="fill: #ffa500; stroke: #ffa500"/>
     <use xlink:href="#m723a4245d2" x="114.528485" y="107.166575" style="fill: #ffa500; stroke: #ffa500"/>
     <use xlink:href="#m723a4245d2" x="222.10335" y="120.183379" style="fill: #ffa500; stroke: #ffa500"/>
     <use xlink:href="#m723a4245d2" x="248.839742" y="120.481108" style="fill: #ffa500; stroke: #ffa500"/>
     <use xlink:href="#m723a4245d2" x="62.12847" y="136.844757" style="fill: #ffa500; stroke: #ffa500"/>
     <use xlink:href="#m723a4245d2" x="254.014064" y="115.959145" style="fill: #ffa500; stroke: #ffa500"/>
     <use xlink:href="#m723a4245d2" x="104.559755" y="52.843775" style="fill: #ffa500; stroke: #ffa500"/>
     <use xlink:href="#m723a4245d2" x="68.489785" y="112.826749" style="fill: #ffa500; stroke: #ffa500"/>
     <use xlink:href="#m723a4245d2" x="370.747283" y="93.976063" style="fill: #ffa500; stroke: #ffa500"/>
     <use xlink:href="#m723a4245d2" x="376.474325" y="231.168225" style="fill: #ffa500; stroke: #ffa500"/>
     <use xlink:href="#m723a4245d2" x="322.702502" y="80.14331" style="fill: #ffa500; stroke: #ffa500"/>
     <use xlink:href="#m723a4245d2" x="150.416333" y="128.323709" style="fill: #ffa500; stroke: #ffa500"/>
     <use xlink:href="#m723a4245d2" x="79.645497" y="114.789467" style="fill: #ffa500; stroke: #ffa500"/>
     <use xlink:href="#m723a4245d2" x="280.24023" y="104.69668" style="fill: #ffa500; stroke: #ffa500"/>
     <use xlink:href="#m723a4245d2" x="196.768474" y="221.375699" style="fill: #ffa500; stroke: #ffa500"/>
     <use xlink:href="#m723a4245d2" x="87.978333" y="109.294664" style="fill: #ffa500; stroke: #ffa500"/>
     <use xlink:href="#m723a4245d2" x="215.585971" y="143.828788" style="fill: #ffa500; stroke: #ffa500"/>
     <use xlink:href="#m723a4245d2" x="58.00349" y="72.631237" style="fill: #ffa500; stroke: #ffa500"/>
     <use xlink:href="#m723a4245d2" x="357.216621" y="148.978074" style="fill: #ffa500; stroke: #ffa500"/>
     <use xlink:href="#m723a4245d2" x="134.741889" y="143.444718" style="fill: #ffa500; stroke: #ffa500"/>
     <use xlink:href="#m723a4245d2" x="272.815493" y="128.23739" style="fill: #ffa500; stroke: #ffa500"/>
     <use xlink:href="#m723a4245d2" x="152.843502" y="104.102579" style="fill: #ffa500; stroke: #ffa500"/>
     <use xlink:href="#m723a4245d2" x="224.098345" y="140.509581" style="fill: #ffa500; stroke: #ffa500"/>
     <use xlink:href="#m723a4245d2" x="233.209584" y="161.708802" style="fill: #ffa500; stroke: #ffa500"/>
     <use xlink:href="#m723a4245d2" x="109.460506" y="86.655898" style="fill: #ffa500; stroke: #ffa500"/>
    </g>
   </g>
   <g id="patch_3">
    <path d="M 37.05 275.062 
L 37.05 8.95 
" style="fill: none; stroke: #000000; stroke-width: 0.8; stroke-linejoin: miter; stroke-linecap: square"/>
   </g>
   <g id="patch_4">
    <path d="M 394.17 275.062 
L 394.17 8.95 
" style="fill: none; stroke: #000000; stroke-width: 0.8; stroke-linejoin: miter; stroke-linecap: square"/>
   </g>
   <g id="patch_5">
    <path d="M 37.05 275.062 
L 394.17 275.062 
" style="fill: none; stroke: #000000; stroke-width: 0.8; stroke-linejoin: miter; stroke-linecap: square"/>
   </g>
   <g id="patch_6">
    <path d="M 37.05 8.95 
L 394.17 8.95 
" style="fill: none; stroke: #000000; stroke-width: 0.8; stroke-linejoin: miter; stroke-linecap: square"/>
   </g>
  </g>
 </g>
 <defs>
  <clipPath id="p37350b5306">
   <rect x="37.05" y="8.95" width="357.12" height="266.112"/>
  </clipPath>
 </defs>
</svg>
