<?xml version="1.0" encoding="utf-8" standalone="no"?>
<!DOCTYPE svg PUBLIC "-//W3C//DTD SVG 1.1//EN"
  "http://www.w3.org/Graphics/SVG/1.1/DTD/svg11.dtd">
<!-- Created with matplotlib (https://matplotlib.org/) -->
<svg height="310.86825pt" version="1.1" viewBox="0 0 391.245 310.86825" width="391.245pt" xmlns="http://www.w3.org/2000/svg" xmlns:xlink="http://www.w3.org/1999/xlink">
 <metadata>
  <rdf:RDF xmlns:cc="http://creativecommons.org/ns#" xmlns:dc="http://purl.org/dc/elements/1.1/" xmlns:rdf="http://www.w3.org/1999/02/22-rdf-syntax-ns#">
   <cc:Work>
    <dc:type rdf:resource="http://purl.org/dc/dcmitype/StillImage"/>
    <dc:date>2020-12-21T01:46:33.894583</dc:date>
    <dc:format>image/svg+xml</dc:format>
    <dc:creator>
     <cc:Agent>
      <dc:title>Matplotlib v3.3.2, https://matplotlib.org/</dc:title>
     </cc:Agent>
    </dc:creator>
   </cc:Work>
  </rdf:RDF>
 </metadata>
 <defs>
  <style type="text/css">*{stroke-linecap:butt;stroke-linejoin:round;}</style>
 </defs>
 <g id="figure_1">
  <g id="patch_1">
   <path d="M 0 310.86825 
L 391.245 310.86825 
L 391.245 0 
L 0 0 
z
" style="fill:#ffffff;"/>
  </g>
  <g id="axes_1">
   <g id="patch_2">
    <path d="M 26.925 273.312 
L 384.045 273.312 
L 384.045 7.2 
L 26.925 7.2 
z
" style="fill:#ffffff;"/>
   </g>
   <g id="PolyCollection_1">
    <path clip-path="url(#p092d80e782)" d="M 219.716055 254.634062 
L 219.716055 255.065307 
L 220.828573 255.101739 
L 221.94109 255.141902 
L 223.053608 255.186273 
L 224.166125 255.235296 
L 225.278643 255.289273 
L 226.39116 255.348287 
L 227.503678 255.412169 
L 228.616195 255.480516 
L 229.728713 255.552776 
L 230.84123 255.628356 
L 231.953748 255.706749 
L 233.066265 255.787651 
L 234.178783 255.871025 
L 235.291301 255.957111 
L 236.403818 256.046383 
L 237.516336 256.139454 
L 238.628853 256.236976 
L 239.741371 256.339555 
L 240.853888 256.447721 
L 241.966406 256.561962 
L 243.078923 256.682802 
L 244.191441 256.810885 
L 245.303958 256.947015 
L 246.416476 257.092099 
L 247.528993 257.246977 
L 248.641511 257.412166 
L 249.754028 257.587575 
L 250.866546 257.772288 
L 251.979063 257.964512 
L 253.091581 258.161723 
L 254.204098 258.361021 
L 255.316616 258.559623 
L 256.429133 258.755378 
L 257.541651 258.947167 
L 258.654169 259.135092 
L 259.766686 259.320367 
L 260.879204 259.504922 
L 261.991721 259.690782 
L 263.104239 259.879333 
L 264.216756 260.070634 
L 265.329274 260.262928 
L 266.441791 260.452476 
L 267.554309 260.633804 
L 268.666826 260.800325 
L 269.779344 260.945241 
L 270.891861 261.062541 
L 272.004379 261.147857 
L 273.116896 261.198993 
L 274.229414 261.216 
L 275.341931 261.200795 
L 276.454449 261.156452 
L 277.566966 261.086352 
L 278.679484 260.993423 
L 279.792001 260.879642 
L 280.904519 260.745895 
L 282.017037 260.592192 
L 283.129554 260.418141 
L 284.242072 260.223546 
L 285.354589 260.008987 
L 286.467107 259.776256 
L 287.579624 259.528564 
L 288.692142 259.270482 
L 289.804659 259.007618 
L 290.917177 258.746074 
L 292.029694 258.491776 
L 293.142212 258.249769 
L 294.254729 258.023621 
L 295.367247 257.81504 
L 296.479764 257.623783 
L 297.592282 257.44789 
L 298.704799 257.284192 
L 299.817317 257.129004 
L 300.929834 256.978853 
L 302.042352 256.831109 
L 303.15487 256.684396 
L 304.267387 256.538724 
L 305.379905 256.39534 
L 306.492422 256.256352 
L 307.60494 256.124224 
L 308.717457 256.001244 
L 309.829975 255.889079 
L 310.942492 255.788484 
L 312.05501 255.699224 
L 313.167527 255.620186 
L 314.280045 255.549668 
L 315.392562 255.485751 
L 316.50508 255.426682 
L 317.617597 255.371168 
L 318.730115 255.318537 
L 319.842632 255.268731 
L 320.95515 255.222154 
L 322.067667 255.17942 
L 323.180185 255.141086 
L 324.292702 255.107432 
L 325.40522 255.078336 
L 326.517738 255.053276 
L 327.630255 255.031434 
L 328.742773 255.011872 
L 329.85529 254.993721 
L 329.85529 254.705648 
L 329.85529 254.705648 
L 328.742773 254.687497 
L 327.630255 254.667935 
L 326.517738 254.646092 
L 325.40522 254.621032 
L 324.292702 254.591936 
L 323.180185 254.558282 
L 322.067667 254.519949 
L 320.95515 254.477215 
L 319.842632 254.430637 
L 318.730115 254.380832 
L 317.617597 254.328201 
L 316.50508 254.272686 
L 315.392562 254.213617 
L 314.280045 254.149701 
L 313.167527 254.079183 
L 312.05501 254.000145 
L 310.942492 253.910884 
L 309.829975 253.810289 
L 308.717457 253.698124 
L 307.60494 253.575144 
L 306.492422 253.443016 
L 305.379905 253.304028 
L 304.267387 253.160644 
L 303.15487 253.014972 
L 302.042352 252.868259 
L 300.929834 252.720515 
L 299.817317 252.570364 
L 298.704799 252.415176 
L 297.592282 252.251479 
L 296.479764 252.075585 
L 295.367247 251.884329 
L 294.254729 251.675748 
L 293.142212 251.4496 
L 292.029694 251.207592 
L 290.917177 250.953294 
L 289.804659 250.691751 
L 288.692142 250.428886 
L 287.579624 250.170804 
L 286.467107 249.923113 
L 285.354589 249.690381 
L 284.242072 249.475822 
L 283.129554 249.281227 
L 282.017037 249.107176 
L 280.904519 248.953473 
L 279.792001 248.819726 
L 278.679484 248.705945 
L 277.566966 248.613016 
L 276.454449 248.542917 
L 275.341931 248.498574 
L 274.229414 248.483368 
L 273.116896 248.500375 
L 272.004379 248.551511 
L 270.891861 248.636828 
L 269.779344 248.754128 
L 268.666826 248.899044 
L 267.554309 249.065564 
L 266.441791 249.246892 
L 265.329274 249.436441 
L 264.216756 249.628734 
L 263.104239 249.820036 
L 261.991721 250.008587 
L 260.879204 250.194446 
L 259.766686 250.379001 
L 258.654169 250.564276 
L 257.541651 250.752201 
L 256.429133 250.943991 
L 255.316616 251.139745 
L 254.204098 251.338348 
L 253.091581 251.537646 
L 251.979063 251.734856 
L 250.866546 251.927081 
L 249.754028 252.111794 
L 248.641511 252.287202 
L 247.528993 252.452391 
L 246.416476 252.60727 
L 245.303958 252.752353 
L 244.191441 252.888483 
L 243.078923 253.016566 
L 241.966406 253.137406 
L 240.853888 253.251647 
L 239.741371 253.359814 
L 238.628853 253.462392 
L 237.516336 253.559914 
L 236.403818 253.652986 
L 235.291301 253.742258 
L 234.178783 253.828344 
L 233.066265 253.911717 
L 231.953748 253.99262 
L 230.84123 254.071013 
L 229.728713 254.146592 
L 228.616195 254.218852 
L 227.503678 254.2872 
L 226.39116 254.351081 
L 225.278643 254.410095 
L 224.166125 254.464072 
L 223.053608 254.513095 
L 221.94109 254.557467 
L 220.828573 254.597629 
L 219.716055 254.634062 
z
" style="fill:#1f77b4;fill-opacity:0.3;"/>
   </g>
   <g id="PolyCollection_2">
    <path clip-path="url(#p092d80e782)" d="M 124.269006 229.253558 
L 124.269006 229.515284 
L 126.729039 229.534996 
L 129.189072 229.557663 
L 131.649105 229.58481 
L 134.109138 229.618254 
L 136.569171 229.659877 
L 139.029204 229.711331 
L 141.489237 229.773736 
L 143.94927 229.847408 
L 146.409303 229.931706 
L 148.869336 230.025025 
L 151.329369 230.124971 
L 153.789402 230.228707 
L 156.249435 230.333432 
L 158.709468 230.436915 
L 161.169501 230.537979 
L 163.629534 230.636837 
L 166.089567 230.735195 
L 168.5496 230.836059 
L 171.009633 230.943291 
L 173.469666 231.060966 
L 175.929699 231.192688 
L 178.389732 231.340996 
L 180.849765 231.506986 
L 183.309798 231.690228 
L 185.769831 231.888931 
L 188.229864 232.100298 
L 190.689897 232.320924 
L 193.14993 232.547122 
L 195.609963 232.775119 
L 198.069996 233.001118 
L 200.530029 233.221293 
L 202.990062 233.431829 
L 205.450095 233.629085 
L 207.910128 233.809926 
L 210.370161 233.972192 
L 212.830194 234.115192 
L 215.290227 234.240077 
L 217.75026 234.349951 
L 220.210293 234.44962 
L 222.670326 234.544961 
L 225.130359 234.642006 
L 227.590392 234.745895 
L 230.050425 234.859906 
L 232.510458 234.984765 
L 234.970491 235.118367 
L 237.430524 235.255958 
L 239.890557 235.390716 
L 242.35059 235.514619 
L 244.810623 235.61941 
L 247.270656 235.697509 
L 249.730689 235.74273 
L 252.190722 235.750737 
L 254.650755 235.719218 
L 257.110788 235.647831 
L 259.570821 235.537975 
L 262.030854 235.392481 
L 264.490887 235.21528 
L 266.95092 235.01109 
L 269.410953 234.785144 
L 271.870986 234.542929 
L 274.331019 234.289937 
L 276.791052 234.031402 
L 279.251085 233.77206 
L 281.711118 233.515943 
L 284.171151 233.266278 
L 286.631184 233.025495 
L 289.091217 232.79537 
L 291.55125 232.577236 
L 294.011283 232.372203 
L 296.471316 232.181292 
L 298.931349 232.005432 
L 301.391382 231.8453 
L 303.851415 231.701038 
L 306.311448 231.571958 
L 308.771481 231.456324 
L 311.231514 231.351327 
L 313.691547 231.253294 
L 316.15158 231.158114 
L 318.611613 231.061803 
L 321.071646 230.961086 
L 323.531679 230.853866 
L 325.991712 230.739483 
L 328.451745 230.618733 
L 330.911778 230.493655 
L 333.371811 230.367162 
L 335.831844 230.242607 
L 338.291877 230.123356 
L 340.75191 230.012437 
L 343.211943 229.912285 
L 345.671976 229.824575 
L 348.132009 229.750141 
L 350.592042 229.688971 
L 353.052075 229.640263 
L 355.512108 229.602545 
L 357.972141 229.573863 
L 360.432174 229.552015 
L 362.892207 229.534807 
L 365.35224 229.52029 
L 367.812273 229.506945 
L 367.812273 229.261897 
L 367.812273 229.261897 
L 365.35224 229.248552 
L 362.892207 229.234035 
L 360.432174 229.216827 
L 357.972141 229.194979 
L 355.512108 229.166297 
L 353.052075 229.128579 
L 350.592042 229.079871 
L 348.132009 229.018701 
L 345.671976 228.944268 
L 343.211943 228.856557 
L 340.75191 228.756405 
L 338.291877 228.645486 
L 335.831844 228.526235 
L 333.371811 228.40168 
L 330.911778 228.275187 
L 328.451745 228.150109 
L 325.991712 228.02936 
L 323.531679 227.914977 
L 321.071646 227.807756 
L 318.611613 227.707039 
L 316.15158 227.610728 
L 313.691547 227.515548 
L 311.231514 227.417515 
L 308.771481 227.312518 
L 306.311448 227.196884 
L 303.851415 227.067804 
L 301.391382 226.923542 
L 298.931349 226.76341 
L 296.471316 226.58755 
L 294.011283 226.396639 
L 291.55125 226.191606 
L 289.091217 225.973472 
L 286.631184 225.743347 
L 284.171151 225.502564 
L 281.711118 225.252899 
L 279.251085 224.996782 
L 276.791052 224.73744 
L 274.331019 224.478905 
L 271.870986 224.225913 
L 269.410953 223.983698 
L 266.95092 223.757752 
L 264.490887 223.553562 
L 262.030854 223.376361 
L 259.570821 223.230867 
L 257.110788 223.121012 
L 254.650755 223.049624 
L 252.190722 223.018105 
L 249.730689 223.026112 
L 247.270656 223.071333 
L 244.810623 223.149432 
L 242.35059 223.254223 
L 239.890557 223.378126 
L 237.430524 223.512884 
L 234.970491 223.650475 
L 232.510458 223.784077 
L 230.050425 223.908936 
L 227.590392 224.022947 
L 225.130359 224.126836 
L 222.670326 224.223881 
L 220.210293 224.319222 
L 217.75026 224.418891 
L 215.290227 224.528765 
L 212.830194 224.65365 
L 210.370161 224.79665 
L 207.910128 224.958917 
L 205.450095 225.139757 
L 202.990062 225.337013 
L 200.530029 225.547549 
L 198.069996 225.767724 
L 195.609963 225.993723 
L 193.14993 226.22172 
L 190.689897 226.447918 
L 188.229864 226.668544 
L 185.769831 226.879911 
L 183.309798 227.078615 
L 180.849765 227.261856 
L 178.389732 227.427847 
L 175.929699 227.576154 
L 173.469666 227.707876 
L 171.009633 227.825551 
L 168.5496 227.932783 
L 166.089567 228.033647 
L 163.629534 228.132005 
L 161.169501 228.230863 
L 158.709468 228.331927 
L 156.249435 228.43541 
L 153.789402 228.540135 
L 151.329369 228.643871 
L 148.869336 228.743817 
L 146.409303 228.837136 
L 143.94927 228.921434 
L 141.489237 228.995106 
L 139.029204 229.057511 
L 136.569171 229.108966 
L 134.109138 229.150588 
L 131.649105 229.184032 
L 129.189072 229.211179 
L 126.729039 229.233846 
L 124.269006 229.253558 
z
" style="fill:#1f77b4;fill-opacity:0.3;"/>
   </g>
   <g id="PolyCollection_3">
    <path clip-path="url(#p092d80e782)" d="M 196.762832 203.698135 
L 196.762832 204.140181 
L 197.789964 204.18101 
L 198.817096 204.225835 
L 199.844227 204.275036 
L 200.871359 204.329224 
L 201.898491 204.389255 
L 202.925622 204.456244 
L 203.952754 204.531562 
L 204.979885 204.616836 
L 206.007017 204.713937 
L 207.034149 204.824958 
L 208.06128 204.952171 
L 209.088412 205.09793 
L 210.115543 205.264517 
L 211.142675 205.45393 
L 212.169807 205.667614 
L 213.196938 205.906166 
L 214.22407 206.169087 
L 215.251202 206.454595 
L 216.278333 206.75958 
L 217.305465 207.079687 
L 218.332596 207.409548 
L 219.359728 207.743099 
L 220.38686 208.073945 
L 221.413991 208.395735 
L 222.441123 208.702497 
L 223.468254 208.988932 
L 224.495386 209.250654 
L 225.522518 209.484366 
L 226.549649 209.687957 
L 227.576781 209.860486 
L 228.603913 210.002043 
L 229.631044 210.113501 
L 230.658176 210.196185 
L 231.685307 210.25155 
L 232.712439 210.280941 
L 233.739571 210.285474 
L 234.766702 210.266057 
L 235.793834 210.223495 
L 236.820965 210.158602 
L 237.848097 210.072261 
L 238.875229 209.965403 
L 239.90236 209.838949 
L 240.929492 209.693765 
L 241.956624 209.530725 
L 242.983755 209.350885 
L 244.010887 209.155761 
L 245.038018 208.947601 
L 246.06515 208.729575 
L 247.092282 208.505774 
L 248.119413 208.280988 
L 249.146545 208.060316 
L 250.173676 207.848663 
L 251.200808 207.650244 
L 252.22794 207.468198 
L 253.255071 207.304361 
L 254.282203 207.15923 
L 255.309334 207.032089 
L 256.336466 206.921252 
L 257.363598 206.824349 
L 258.390729 206.738605 
L 259.417861 206.661069 
L 260.444993 206.588788 
L 261.472124 206.518922 
L 262.499256 206.448852 
L 263.526387 206.376268 
L 264.553519 206.299283 
L 265.580651 206.216519 
L 266.607782 206.127174 
L 267.634914 206.031024 
L 268.662045 205.928353 
L 269.689177 205.819836 
L 270.716309 205.706394 
L 271.74344 205.589075 
L 272.770572 205.468989 
L 273.797704 205.347307 
L 274.824835 205.225307 
L 275.851967 205.104422 
L 276.879098 204.986244 
L 277.90623 204.872468 
L 278.933362 204.76476 
L 279.960493 204.664588 
L 280.987625 204.573066 
L 282.014756 204.490849 
L 283.041888 204.418124 
L 284.06902 204.35468 
L 285.096151 204.300048 
L 286.123283 204.253653 
L 287.150415 204.214925 
L 288.177546 204.183357 
L 289.204678 204.158476 
L 290.231809 204.139756 
L 291.258941 204.126512 
L 292.286073 204.117809 
L 293.313204 204.112432 
L 294.340336 204.10894 
L 295.367467 204.105794 
L 296.394599 204.101547 
L 297.421731 204.095035 
L 298.448862 204.085543 
L 298.448862 203.752773 
L 298.448862 203.752773 
L 297.421731 203.743281 
L 296.394599 203.736769 
L 295.367467 203.732521 
L 294.340336 203.729376 
L 293.313204 203.725884 
L 292.286073 203.720507 
L 291.258941 203.711804 
L 290.231809 203.69856 
L 289.204678 203.67984 
L 288.177546 203.654959 
L 287.150415 203.623391 
L 286.123283 203.584663 
L 285.096151 203.538268 
L 284.06902 203.483636 
L 283.041888 203.420192 
L 282.014756 203.347466 
L 280.987625 203.26525 
L 279.960493 203.173728 
L 278.933362 203.073556 
L 277.90623 202.965848 
L 276.879098 202.852072 
L 275.851967 202.733894 
L 274.824835 202.613008 
L 273.797704 202.491009 
L 272.770572 202.369327 
L 271.74344 202.24924 
L 270.716309 202.131922 
L 269.689177 202.01848 
L 268.662045 201.909963 
L 267.634914 201.807292 
L 266.607782 201.711141 
L 265.580651 201.621797 
L 264.553519 201.539033 
L 263.526387 201.462047 
L 262.499256 201.389464 
L 261.472124 201.319393 
L 260.444993 201.249528 
L 259.417861 201.177246 
L 258.390729 201.099711 
L 257.363598 201.013967 
L 256.336466 200.917063 
L 255.309334 200.806227 
L 254.282203 200.679086 
L 253.255071 200.533955 
L 252.22794 200.370118 
L 251.200808 200.188072 
L 250.173676 199.989653 
L 249.146545 199.777999 
L 248.119413 199.557328 
L 247.092282 199.332542 
L 246.06515 199.10874 
L 245.038018 198.890715 
L 244.010887 198.682555 
L 242.983755 198.48743 
L 241.956624 198.307591 
L 240.929492 198.144551 
L 239.90236 197.999367 
L 238.875229 197.872912 
L 237.848097 197.766055 
L 236.820965 197.679714 
L 235.793834 197.614821 
L 234.766702 197.572259 
L 233.739571 197.552842 
L 232.712439 197.557375 
L 231.685307 197.586766 
L 230.658176 197.642131 
L 229.631044 197.724815 
L 228.603913 197.836273 
L 227.576781 197.97783 
L 226.549649 198.150358 
L 225.522518 198.353949 
L 224.495386 198.587662 
L 223.468254 198.849384 
L 222.441123 199.135819 
L 221.413991 199.44258 
L 220.38686 199.76437 
L 219.359728 200.095217 
L 218.332596 200.428767 
L 217.305465 200.758629 
L 216.278333 201.078736 
L 215.251202 201.38372 
L 214.22407 201.669229 
L 213.196938 201.932149 
L 212.169807 202.170702 
L 211.142675 202.384385 
L 210.115543 202.573799 
L 209.088412 202.740386 
L 208.06128 202.886144 
L 207.034149 203.013358 
L 206.007017 203.124379 
L 204.979885 203.22148 
L 203.952754 203.306753 
L 202.925622 203.382072 
L 201.898491 203.449061 
L 200.871359 203.509092 
L 199.844227 203.563279 
L 198.817096 203.612481 
L 197.789964 203.657306 
L 196.762832 203.698135 
z
" style="fill:#1f77b4;fill-opacity:0.3;"/>
   </g>
   <g id="PolyCollection_4">
    <path clip-path="url(#p092d80e782)" d="M 238.434741 178.364356 
L 238.434741 178.543434 
L 238.871389 178.556018 
L 239.308038 178.569951 
L 239.744686 178.585546 
L 240.181335 178.603034 
L 240.617983 178.6225 
L 241.054632 178.643858 
L 241.49128 178.666882 
L 241.927929 178.691285 
L 242.364577 178.71685 
L 242.801226 178.743567 
L 243.237874 178.77177 
L 243.674523 178.802233 
L 244.111171 178.836214 
L 244.54782 178.875437 
L 244.984468 178.922003 
L 245.421117 178.978247 
L 245.857765 179.046556 
L 246.294414 179.129167 
L 246.731062 179.227995 
L 247.167711 179.344489 
L 247.604359 179.479572 
L 248.041008 179.633633 
L 248.477656 179.806578 
L 248.914305 179.997868 
L 249.350953 180.206534 
L 249.787602 180.431101 
L 250.22425 180.669466 
L 250.660899 180.918742 
L 251.097547 181.175176 
L 251.534196 181.434212 
L 251.970844 181.690776 
L 252.407493 181.939764 
L 252.844141 182.176676 
L 253.28079 182.398253 
L 253.717438 182.602964 
L 254.154087 182.791205 
L 254.590735 182.96514 
L 255.027384 183.128217 
L 255.464032 183.284442 
L 255.900681 183.437596 
L 256.337329 183.590544 
L 256.773977 183.744767 
L 257.210626 183.900183 
L 257.647274 184.055225 
L 258.083923 184.207093 
L 258.520571 184.352075 
L 258.95722 184.48584 
L 259.393868 184.603673 
L 259.830517 184.700666 
L 260.267165 184.771945 
L 260.703814 184.81301 
L 261.140462 184.820211 
L 261.577111 184.791314 
L 262.013759 184.726042 
L 262.450408 184.626413 
L 262.887056 184.496724 
L 263.323705 184.343125 
L 263.760353 184.172824 
L 264.197002 183.993097 
L 264.63365 183.810315 
L 265.070299 183.629231 
L 265.506947 183.45266 
L 265.943596 183.281573 
L 266.380244 183.115537 
L 266.816893 182.953322 
L 267.253541 182.793512 
L 267.69019 182.634987 
L 268.126838 182.477194 
L 268.563487 182.320232 
L 269.000135 182.164783 
L 269.436784 182.011964 
L 269.873432 181.863147 
L 270.310081 181.719773 
L 270.746729 181.583148 
L 271.183378 181.454242 
L 271.620026 181.333471 
L 272.056675 181.220497 
L 272.493323 181.114094 
L 272.929972 181.012135 
L 273.36662 180.91172 
L 273.803269 180.809487 
L 274.239917 180.702052 
L 274.676566 180.586509 
L 275.113214 180.460923 
L 275.549863 180.324694 
L 275.986511 180.178721 
L 276.42316 180.025346 
L 276.859808 179.868058 
L 277.296457 179.711044 
L 277.733105 179.558637 
L 278.169754 179.414782 
L 278.606402 179.282593 
L 279.043051 179.164074 
L 279.479699 179.060022 
L 279.916348 178.970121 
L 280.352996 178.893173 
L 280.789645 178.827433 
L 281.226293 178.770953 
L 281.662942 178.721893 
L 281.662942 178.185897 
L 281.662942 178.185897 
L 281.226293 178.136836 
L 280.789645 178.080356 
L 280.352996 178.014616 
L 279.916348 177.937669 
L 279.479699 177.847767 
L 279.043051 177.743716 
L 278.606402 177.625197 
L 278.169754 177.493008 
L 277.733105 177.349152 
L 277.296457 177.196745 
L 276.859808 177.039732 
L 276.42316 176.882444 
L 275.986511 176.729068 
L 275.549863 176.583095 
L 275.113214 176.446866 
L 274.676566 176.321281 
L 274.239917 176.205738 
L 273.803269 176.098302 
L 273.36662 175.99607 
L 272.929972 175.895655 
L 272.493323 175.793695 
L 272.056675 175.687293 
L 271.620026 175.574318 
L 271.183378 175.453547 
L 270.746729 175.324642 
L 270.310081 175.188017 
L 269.873432 175.044642 
L 269.436784 174.895826 
L 269.000135 174.743007 
L 268.563487 174.587558 
L 268.126838 174.430596 
L 267.69019 174.272803 
L 267.253541 174.114278 
L 266.816893 173.954468 
L 266.380244 173.792252 
L 265.943596 173.626216 
L 265.506947 173.45513 
L 265.070299 173.278558 
L 264.63365 173.097475 
L 264.197002 172.914692 
L 263.760353 172.734965 
L 263.323705 172.564665 
L 262.887056 172.411066 
L 262.450408 172.281376 
L 262.013759 172.181747 
L 261.577111 172.116476 
L 261.140462 172.087579 
L 260.703814 172.094779 
L 260.267165 172.135845 
L 259.830517 172.207124 
L 259.393868 172.304116 
L 258.95722 172.421949 
L 258.520571 172.555715 
L 258.083923 172.700697 
L 257.647274 172.852565 
L 257.210626 173.007606 
L 256.773977 173.163022 
L 256.337329 173.317245 
L 255.900681 173.470193 
L 255.464032 173.623348 
L 255.027384 173.779573 
L 254.590735 173.94265 
L 254.154087 174.116585 
L 253.717438 174.304825 
L 253.28079 174.509536 
L 252.844141 174.731113 
L 252.407493 174.968026 
L 251.970844 175.217014 
L 251.534196 175.473578 
L 251.097547 175.732614 
L 250.660899 175.989047 
L 250.22425 176.238323 
L 249.787602 176.476688 
L 249.350953 176.701256 
L 248.914305 176.909921 
L 248.477656 177.101212 
L 248.041008 177.274156 
L 247.604359 177.428218 
L 247.167711 177.5633 
L 246.731062 177.679795 
L 246.294414 177.778622 
L 245.857765 177.861234 
L 245.421117 177.929542 
L 244.984468 177.985786 
L 244.54782 178.032352 
L 244.111171 178.071575 
L 243.674523 178.105557 
L 243.237874 178.136019 
L 242.801226 178.164222 
L 242.364577 178.19094 
L 241.927929 178.216504 
L 241.49128 178.240908 
L 241.054632 178.263931 
L 240.617983 178.285289 
L 240.181335 178.304755 
L 239.744686 178.322244 
L 239.308038 178.337839 
L 238.871389 178.351772 
L 238.434741 178.364356 
z
" style="fill:#1f77b4;fill-opacity:0.3;"/>
   </g>
   <g id="PolyCollection_5">
    <path clip-path="url(#p092d80e782)" d="M 191.644108 152.78278 
L 191.644108 153.194483 
L 192.57873 153.235785 
L 193.513351 153.282346 
L 194.447972 153.334711 
L 195.382593 153.393534 
L 196.317215 153.459529 
L 197.251836 153.53339 
L 198.186457 153.615667 
L 199.121079 153.706633 
L 200.0557 153.806162 
L 200.990321 153.913668 
L 201.924943 154.028127 
L 202.859564 154.148208 
L 203.794185 154.272499 
L 204.728807 154.399797 
L 205.663428 154.529384 
L 206.598049 154.661251 
L 207.532671 154.796193 
L 208.467292 154.935769 
L 209.401913 155.082124 
L 210.336535 155.237701 
L 211.271156 155.404889 
L 212.205777 155.585645 
L 213.140399 155.781128 
L 214.07502 155.991401 
L 215.009641 156.21523 
L 215.944263 156.450027 
L 216.878884 156.691978 
L 217.813505 156.936345 
L 218.748127 157.177941 
L 219.682748 157.411682 
L 220.617369 157.633153 
L 221.551991 157.839065 
L 222.486612 158.027539 
L 223.421233 158.198155 
L 224.355855 158.351778 
L 225.290476 158.490185 
L 226.225097 158.615587 
L 227.159719 158.730123 
L 228.09434 158.835439 
L 229.028961 158.932417 
L 229.963583 159.02112 
L 230.898204 159.100942 
L 231.832825 159.170916 
L 232.767447 159.230078 
L 233.702068 159.277789 
L 234.636689 159.313878 
L 235.57131 159.33858 
L 236.505932 159.352249 
L 237.440553 159.354947 
L 238.375174 159.346049 
L 239.309796 159.323995 
L 240.244417 159.286332 
L 241.179038 159.230059 
L 242.11366 159.152236 
L 243.048281 159.050695 
L 243.982902 158.924676 
L 244.917524 158.7752 
L 245.852145 158.605068 
L 246.786766 158.418466 
L 247.721388 158.220297 
L 248.656009 158.015391 
L 249.59063 157.807823 
L 250.525252 157.600489 
L 251.459873 157.395005 
L 252.394494 157.19192 
L 253.329116 156.99109 
L 254.263737 156.792095 
L 255.198358 156.594539 
L 256.13298 156.39818 
L 257.067601 156.202909 
L 258.002222 156.008646 
L 258.936844 155.815259 
L 259.871465 155.622559 
L 260.806086 155.430407 
L 261.740708 155.238876 
L 262.675329 155.048419 
L 263.60995 154.85996 
L 264.544572 154.674881 
L 265.479193 154.494905 
L 266.413814 154.321916 
L 267.348436 154.157768 
L 268.283057 154.004129 
L 269.217678 153.862392 
L 270.1523 153.733641 
L 271.086921 153.61865 
L 272.021542 153.517903 
L 272.956164 153.431581 
L 273.890785 153.35955 
L 274.825406 153.301317 
L 275.760027 153.255995 
L 276.694649 153.222296 
L 277.62927 153.198557 
L 278.563891 153.182811 
L 279.498513 153.172908 
L 280.433134 153.166662 
L 281.367755 153.162019 
L 282.302377 153.157213 
L 283.236998 153.150902 
L 284.171619 153.142255 
L 284.171619 152.835009 
L 284.171619 152.835009 
L 283.236998 152.826361 
L 282.302377 152.82005 
L 281.367755 152.815244 
L 280.433134 152.810601 
L 279.498513 152.804355 
L 278.563891 152.794452 
L 277.62927 152.778706 
L 276.694649 152.754967 
L 275.760027 152.721268 
L 274.825406 152.675946 
L 273.890785 152.617713 
L 272.956164 152.545682 
L 272.021542 152.459361 
L 271.086921 152.358613 
L 270.1523 152.243622 
L 269.217678 152.114871 
L 268.283057 151.973134 
L 267.348436 151.819495 
L 266.413814 151.655347 
L 265.479193 151.482358 
L 264.544572 151.302383 
L 263.60995 151.117303 
L 262.675329 150.928844 
L 261.740708 150.738387 
L 260.806086 150.546856 
L 259.871465 150.354704 
L 258.936844 150.162004 
L 258.002222 149.968617 
L 257.067601 149.774354 
L 256.13298 149.579083 
L 255.198358 149.382724 
L 254.263737 149.185168 
L 253.329116 148.986174 
L 252.394494 148.785344 
L 251.459873 148.582258 
L 250.525252 148.376774 
L 249.59063 148.16944 
L 248.656009 147.961873 
L 247.721388 147.756966 
L 246.786766 147.558797 
L 245.852145 147.372195 
L 244.917524 147.202063 
L 243.982902 147.052588 
L 243.048281 146.926568 
L 242.11366 146.825027 
L 241.179038 146.747204 
L 240.244417 146.690931 
L 239.309796 146.653268 
L 238.375174 146.631214 
L 237.440553 146.622316 
L 236.505932 146.625015 
L 235.57131 146.638683 
L 234.636689 146.663385 
L 233.702068 146.699475 
L 232.767447 146.747185 
L 231.832825 146.806347 
L 230.898204 146.876321 
L 229.963583 146.956143 
L 229.028961 147.044847 
L 228.09434 147.141824 
L 227.159719 147.24714 
L 226.225097 147.361676 
L 225.290476 147.487078 
L 224.355855 147.625486 
L 223.421233 147.779108 
L 222.486612 147.949725 
L 221.551991 148.138198 
L 220.617369 148.34411 
L 219.682748 148.565581 
L 218.748127 148.799322 
L 217.813505 149.040918 
L 216.878884 149.285286 
L 215.944263 149.527236 
L 215.009641 149.762034 
L 214.07502 149.985862 
L 213.140399 150.196136 
L 212.205777 150.391619 
L 211.271156 150.572374 
L 210.336535 150.739562 
L 209.401913 150.895139 
L 208.467292 151.041494 
L 207.532671 151.18107 
L 206.598049 151.316012 
L 205.663428 151.447879 
L 204.728807 151.577467 
L 203.794185 151.704764 
L 202.859564 151.829055 
L 201.924943 151.949136 
L 200.990321 152.063595 
L 200.0557 152.171101 
L 199.121079 152.27063 
L 198.186457 152.361596 
L 197.251836 152.443873 
L 196.317215 152.517734 
L 195.382593 152.583729 
L 194.447972 152.642552 
L 193.513351 152.694917 
L 192.57873 152.741478 
L 191.644108 152.78278 
z
" style="fill:#1f77b4;fill-opacity:0.3;"/>
   </g>
   <g id="PolyCollection_6">
    <path clip-path="url(#p092d80e782)" d="M 189.534778 127.320068 
L 189.534778 127.726669 
L 190.441286 127.771149 
L 191.347793 127.823751 
L 192.2543 127.885756 
L 193.160808 127.957988 
L 194.067315 128.040467 
L 194.973822 128.132168 
L 195.88033 128.230986 
L 196.786837 128.333953 
L 197.693345 128.437686 
L 198.599852 128.53899 
L 199.506359 128.635483 
L 200.412867 128.726111 
L 201.319374 128.811451 
L 202.225881 128.89374 
L 203.132389 128.976628 
L 204.038896 129.06472 
L 204.945403 129.162968 
L 205.851911 129.276013 
L 206.758418 129.407561 
L 207.664925 129.559888 
L 208.571433 129.733558 
L 209.47794 129.927424 
L 210.384447 130.13895 
L 211.290955 130.364811 
L 212.197462 130.601671 
L 213.103969 130.846939 
L 214.010477 131.099298 
L 214.916984 131.35882 
L 215.823491 131.626546 
L 216.729999 131.903579 
L 217.636506 132.189844 
L 218.543013 132.482825 
L 219.449521 132.776613 
L 220.356028 133.061608 
L 221.262536 133.325053 
L 222.169043 133.552425 
L 223.07555 133.729445 
L 223.982058 133.844317 
L 224.888565 133.889684 
L 225.795072 133.863884 
L 226.70158 133.771208 
L 227.608087 133.621176 
L 228.514594 133.427029 
L 229.421102 133.203839 
L 230.327609 132.966651 
L 231.234116 132.728963 
L 232.140624 132.501708 
L 233.047131 132.292712 
L 233.953638 132.106529 
L 234.860146 131.944507 
L 235.766653 131.805017 
L 236.67316 131.683827 
L 237.579668 131.574687 
L 238.486175 131.470115 
L 239.392682 131.362369 
L 240.29919 131.244456 
L 241.205697 131.110999 
L 242.112205 130.958792 
L 243.018712 130.786955 
L 243.925219 130.596713 
L 244.831727 130.390946 
L 245.738234 130.173687 
L 246.644741 129.949695 
L 247.551249 129.724174 
L 248.457756 129.502587 
L 249.364263 129.29047 
L 250.270771 129.093166 
L 251.177278 128.915438 
L 252.083785 128.761003 
L 252.990293 128.632091 
L 253.8968 128.529125 
L 254.803307 128.450613 
L 255.709815 128.39327 
L 256.616322 128.352366 
L 257.522829 128.322246 
L 258.429337 128.296953 
L 259.335844 128.270891 
L 260.242351 128.239431 
L 261.148859 128.199412 
L 262.055366 128.149432 
L 262.961873 128.089902 
L 263.868381 128.02283 
L 264.774888 127.951381 
L 265.681396 127.879301 
L 266.587903 127.810307 
L 267.49441 127.747573 
L 268.400918 127.693376 
L 269.307425 127.648967 
L 270.213932 127.614611 
L 271.12044 127.589777 
L 272.026947 127.573371 
L 272.933454 127.563978 
L 273.839962 127.560041 
L 274.746469 127.560001 
L 275.652976 127.562371 
L 276.559484 127.565799 
L 277.465991 127.569126 
L 278.372498 127.571439 
L 279.279006 127.572129 
L 279.279006 127.474608 
L 279.279006 127.474608 
L 278.372498 127.475298 
L 277.465991 127.477611 
L 276.559484 127.480938 
L 275.652976 127.484366 
L 274.746469 127.486736 
L 273.839962 127.486695 
L 272.933454 127.482759 
L 272.026947 127.473365 
L 271.12044 127.45696 
L 270.213932 127.432126 
L 269.307425 127.39777 
L 268.400918 127.353361 
L 267.49441 127.299164 
L 266.587903 127.236429 
L 265.681396 127.167436 
L 264.774888 127.095356 
L 263.868381 127.023907 
L 262.961873 126.956835 
L 262.055366 126.897305 
L 261.148859 126.847325 
L 260.242351 126.807306 
L 259.335844 126.775846 
L 258.429337 126.749783 
L 257.522829 126.724491 
L 256.616322 126.694371 
L 255.709815 126.653467 
L 254.803307 126.596124 
L 253.8968 126.517612 
L 252.990293 126.414646 
L 252.083785 126.285734 
L 251.177278 126.131299 
L 250.270771 125.953571 
L 249.364263 125.756267 
L 248.457756 125.54415 
L 247.551249 125.322562 
L 246.644741 125.097042 
L 245.738234 124.87305 
L 244.831727 124.655791 
L 243.925219 124.450024 
L 243.018712 124.259782 
L 242.112205 124.087944 
L 241.205697 123.935738 
L 240.29919 123.802281 
L 239.392682 123.684367 
L 238.486175 123.576621 
L 237.579668 123.472049 
L 236.67316 123.362909 
L 235.766653 123.24172 
L 234.860146 123.102229 
L 233.953638 122.940208 
L 233.047131 122.754025 
L 232.140624 122.545029 
L 231.234116 122.317774 
L 230.327609 122.080086 
L 229.421102 121.842898 
L 228.514594 121.619708 
L 227.608087 121.42556 
L 226.70158 121.275529 
L 225.795072 121.182853 
L 224.888565 121.157053 
L 223.982058 121.20242 
L 223.07555 121.317291 
L 222.169043 121.494312 
L 221.262536 121.721684 
L 220.356028 121.985129 
L 219.449521 122.270124 
L 218.543013 122.563912 
L 217.636506 122.856893 
L 216.729999 123.143158 
L 215.823491 123.42019 
L 214.916984 123.687917 
L 214.010477 123.947439 
L 213.103969 124.199798 
L 212.197462 124.445065 
L 211.290955 124.681925 
L 210.384447 124.907787 
L 209.47794 125.119312 
L 208.571433 125.313179 
L 207.664925 125.486849 
L 206.758418 125.639176 
L 205.851911 125.770724 
L 204.945403 125.883769 
L 204.038896 125.982017 
L 203.132389 126.070109 
L 202.225881 126.152997 
L 201.319374 126.235285 
L 200.412867 126.320626 
L 199.506359 126.411254 
L 198.599852 126.507747 
L 197.693345 126.609051 
L 196.786837 126.712784 
L 195.88033 126.815751 
L 194.973822 126.914568 
L 194.067315 127.006269 
L 193.160808 127.088749 
L 192.2543 127.160981 
L 191.347793 127.222986 
L 190.441286 127.275588 
L 189.534778 127.320068 
z
" style="fill:#1f77b4;fill-opacity:0.3;"/>
   </g>
   <g id="PolyCollection_7">
    <path clip-path="url(#p092d80e782)" d="M 144.550583 101.947371 
L 144.550583 102.168839 
L 146.18892 102.17213 
L 147.827257 102.173499 
L 149.465594 102.174437 
L 151.103932 102.17684 
L 152.742269 102.182693 
L 154.380606 102.193733 
L 156.018943 102.21114 
L 157.65728 102.235324 
L 159.295617 102.265838 
L 160.933955 102.301447 
L 162.572292 102.340371 
L 164.210629 102.380681 
L 165.848966 102.420814 
L 167.487303 102.460104 
L 169.12564 102.499218 
L 170.763977 102.54035 
L 172.402315 102.587087 
L 174.040652 102.643931 
L 175.678989 102.715555 
L 177.317326 102.805972 
L 178.955663 102.917798 
L 180.594 103.051787 
L 182.232338 103.206721 
L 183.870675 103.379641 
L 185.509012 103.566315 
L 187.147349 103.76183 
L 188.785686 103.961157 
L 190.424023 104.159649 
L 192.06236 104.353428 
L 193.700698 104.539711 
L 195.339035 104.717086 
L 196.977372 104.885768 
L 198.615709 105.047791 
L 200.254046 105.207048 
L 201.892383 105.369093 
L 203.530721 105.540603 
L 205.169058 105.728494 
L 206.807395 105.938759 
L 208.445732 106.175192 
L 210.084069 106.438232 
L 211.722406 106.724168 
L 213.360744 107.024908 
L 214.999081 107.328439 
L 216.637418 107.619982 
L 218.275755 107.883744 
L 219.914092 108.105013 
L 221.552429 108.272278 
L 223.190766 108.378967 
L 224.829104 108.424421 
L 226.467441 108.413827 
L 228.105778 108.35705 
L 229.744115 108.266554 
L 231.382452 108.154866 
L 233.020789 108.032183 
L 234.659127 107.904723 
L 236.297464 107.774192 
L 237.935801 107.638469 
L 239.574138 107.49321 
L 241.212475 107.333842 
L 242.850812 107.157346 
L 244.48915 106.96332 
L 246.127487 106.754138 
L 247.765824 106.534279 
L 249.404161 106.309192 
L 251.042498 106.084105 
L 252.680835 105.863146 
L 254.319172 105.648944 
L 255.95751 105.442676 
L 257.595847 105.244394 
L 259.234184 105.053438 
L 260.872521 104.868765 
L 262.510858 104.689178 
L 264.149195 104.51345 
L 265.787533 104.34043 
L 267.42587 104.169146 
L 269.064207 103.998929 
L 270.702544 103.829535 
L 272.340881 103.661234 
L 273.979218 103.494868 
L 275.617555 103.331862 
L 277.255893 103.174183 
L 278.89423 103.024226 
L 280.532567 102.884618 
L 282.170904 102.75793 
L 283.809241 102.646343 
L 285.447578 102.551323 
L 287.085916 102.473385 
L 288.724253 102.412004 
L 290.36259 102.365678 
L 292.000927 102.332147 
L 293.639264 102.308693 
L 295.277601 102.292453 
L 296.915939 102.280704 
L 298.554276 102.271063 
L 300.192613 102.26162 
L 301.83095 102.250995 
L 303.469287 102.238345 
L 305.107624 102.22335 
L 306.745961 102.206156 
L 306.745961 101.910054 
L 306.745961 101.910054 
L 305.107624 101.892861 
L 303.469287 101.877865 
L 301.83095 101.865216 
L 300.192613 101.85459 
L 298.554276 101.845148 
L 296.915939 101.835507 
L 295.277601 101.823757 
L 293.639264 101.807517 
L 292.000927 101.784063 
L 290.36259 101.750533 
L 288.724253 101.704207 
L 287.085916 101.642825 
L 285.447578 101.564888 
L 283.809241 101.469868 
L 282.170904 101.35828 
L 280.532567 101.231593 
L 278.89423 101.091985 
L 277.255893 100.942028 
L 275.617555 100.784348 
L 273.979218 100.621342 
L 272.340881 100.454976 
L 270.702544 100.286675 
L 269.064207 100.117281 
L 267.42587 99.947065 
L 265.787533 99.77578 
L 264.149195 99.60276 
L 262.510858 99.427033 
L 260.872521 99.247446 
L 259.234184 99.062773 
L 257.595847 98.871816 
L 255.95751 98.673535 
L 254.319172 98.467266 
L 252.680835 98.253064 
L 251.042498 98.032106 
L 249.404161 97.807019 
L 247.765824 97.581932 
L 246.127487 97.362073 
L 244.48915 97.15289 
L 242.850812 96.958864 
L 241.212475 96.782368 
L 239.574138 96.623001 
L 237.935801 96.477741 
L 236.297464 96.342018 
L 234.659127 96.211487 
L 233.020789 96.084027 
L 231.382452 95.961345 
L 229.744115 95.849656 
L 228.105778 95.75916 
L 226.467441 95.702383 
L 224.829104 95.691789 
L 223.190766 95.737243 
L 221.552429 95.843932 
L 219.914092 96.011197 
L 218.275755 96.232466 
L 216.637418 96.496228 
L 214.999081 96.787772 
L 213.360744 97.091302 
L 211.722406 97.392042 
L 210.084069 97.677979 
L 208.445732 97.941019 
L 206.807395 98.177452 
L 205.169058 98.387717 
L 203.530721 98.575608 
L 201.892383 98.747118 
L 200.254046 98.909163 
L 198.615709 99.06842 
L 196.977372 99.230442 
L 195.339035 99.399124 
L 193.700698 99.576499 
L 192.06236 99.762782 
L 190.424023 99.956562 
L 188.785686 100.155054 
L 187.147349 100.354381 
L 185.509012 100.549895 
L 183.870675 100.73657 
L 182.232338 100.909489 
L 180.594 101.064423 
L 178.955663 101.198412 
L 177.317326 101.310238 
L 175.678989 101.400656 
L 174.040652 101.47228 
L 172.402315 101.529123 
L 170.763977 101.575861 
L 169.12564 101.616993 
L 167.487303 101.656107 
L 165.848966 101.695397 
L 164.210629 101.735529 
L 162.572292 101.775839 
L 160.933955 101.814763 
L 159.295617 101.850372 
L 157.65728 101.880886 
L 156.018943 101.90507 
L 154.380606 101.922478 
L 152.742269 101.933518 
L 151.103932 101.939371 
L 149.465594 101.941773 
L 147.827257 101.942712 
L 146.18892 101.944081 
L 144.550583 101.947371 
z
" style="fill:#1f77b4;fill-opacity:0.3;"/>
   </g>
   <g id="PolyCollection_8">
    <path clip-path="url(#p092d80e782)" d="M 152.58805 76.382344 
L 152.58805 76.80334 
L 153.468419 76.834904 
L 154.348787 76.867943 
L 155.229156 76.902598 
L 156.109525 76.939309 
L 156.989893 76.978841 
L 157.870262 77.022274 
L 158.750631 77.070964 
L 159.631 77.126464 
L 160.511368 77.190441 
L 161.391737 77.264578 
L 162.272106 77.350482 
L 163.152474 77.449603 
L 164.032843 77.563169 
L 164.913212 77.692134 
L 165.79358 77.837133 
L 166.673949 77.998455 
L 167.554318 78.176022 
L 168.434686 78.369387 
L 169.315055 78.577739 
L 170.195424 78.799937 
L 171.075793 79.034556 
L 171.956161 79.279962 
L 172.83653 79.534389 
L 173.716899 79.796023 
L 174.597267 80.063059 
L 175.477636 80.333721 
L 176.358005 80.606216 
L 177.238373 80.878639 
L 178.118742 81.148817 
L 178.999111 81.414142 
L 179.87948 81.671425 
L 180.759848 81.916837 
L 181.640217 82.145969 
L 182.520586 82.35405 
L 183.400954 82.536322 
L 184.281323 82.688532 
L 185.161692 82.80749 
L 186.04206 82.891599 
L 186.922429 82.941277 
L 187.802798 82.959158 
L 188.683167 82.950038 
L 189.563535 82.92051 
L 190.443904 82.878322 
L 191.324273 82.831506 
L 192.204641 82.787413 
L 193.08501 82.751763 
L 193.965379 82.727889 
L 194.845747 82.716294 
L 195.726116 82.714619 
L 196.606485 82.718036 
L 197.486854 82.720032 
L 198.367222 82.713424 
L 199.247591 82.691462 
L 200.12796 82.648798 
L 201.008328 82.582161 
L 201.888697 82.490635 
L 202.769066 82.375509 
L 203.649434 82.23978 
L 204.529803 82.087439 
L 205.410172 81.922717 
L 206.29054 81.749452 
L 207.170909 81.570703 
L 208.051278 81.388639 
L 208.931647 81.204689 
L 209.812015 81.019851 
L 210.692384 80.835056 
L 211.572753 80.651457 
L 212.453121 80.470581 
L 213.33349 80.294307 
L 214.213859 80.124691 
L 215.094227 79.963684 
L 215.974596 79.812837 
L 216.854965 79.673046 
L 217.735334 79.544385 
L 218.615702 79.426072 
L 219.496071 79.316541 
L 220.37644 79.213614 
L 221.256808 79.114732 
L 222.137177 79.017226 
L 223.017546 78.918574 
L 223.897914 78.816646 
L 224.778283 78.709899 
L 225.658652 78.597523 
L 226.539021 78.479519 
L 227.419389 78.356691 
L 228.299758 78.230563 
L 229.180127 78.103198 
L 230.060495 77.976962 
L 230.940864 77.854237 
L 231.821233 77.737137 
L 232.701601 77.627269 
L 233.58197 77.525579 
L 234.462339 77.432308 
L 235.342708 77.347063 
L 236.223076 77.268979 
L 237.103445 77.196946 
L 237.983814 77.129842 
L 238.864182 77.066737 
L 239.744551 77.007026 
L 239.744551 76.178658 
L 239.744551 76.178658 
L 238.864182 76.118947 
L 237.983814 76.055842 
L 237.103445 75.988738 
L 236.223076 75.916706 
L 235.342708 75.838622 
L 234.462339 75.753376 
L 233.58197 75.660106 
L 232.701601 75.558415 
L 231.821233 75.448547 
L 230.940864 75.331447 
L 230.060495 75.208722 
L 229.180127 75.082487 
L 228.299758 74.955122 
L 227.419389 74.828993 
L 226.539021 74.706165 
L 225.658652 74.588161 
L 224.778283 74.475785 
L 223.897914 74.369038 
L 223.017546 74.26711 
L 222.137177 74.168458 
L 221.256808 74.070952 
L 220.37644 73.972071 
L 219.496071 73.869143 
L 218.615702 73.759612 
L 217.735334 73.641299 
L 216.854965 73.512639 
L 215.974596 73.372847 
L 215.094227 73.222 
L 214.213859 73.060993 
L 213.33349 72.891377 
L 212.453121 72.715104 
L 211.572753 72.534228 
L 210.692384 72.350628 
L 209.812015 72.165833 
L 208.931647 71.980996 
L 208.051278 71.797045 
L 207.170909 71.614982 
L 206.29054 71.436232 
L 205.410172 71.262968 
L 204.529803 71.098245 
L 203.649434 70.945904 
L 202.769066 70.810175 
L 201.888697 70.695049 
L 201.008328 70.603523 
L 200.12796 70.536886 
L 199.247591 70.494222 
L 198.367222 70.47226 
L 197.486854 70.465652 
L 196.606485 70.467648 
L 195.726116 70.471066 
L 194.845747 70.46939 
L 193.965379 70.457795 
L 193.08501 70.433921 
L 192.204641 70.398271 
L 191.324273 70.354178 
L 190.443904 70.307363 
L 189.563535 70.265174 
L 188.683167 70.235646 
L 187.802798 70.226526 
L 186.922429 70.244407 
L 186.04206 70.294085 
L 185.161692 70.378195 
L 184.281323 70.497152 
L 183.400954 70.649362 
L 182.520586 70.831634 
L 181.640217 71.039716 
L 180.759848 71.268847 
L 179.87948 71.514259 
L 178.999111 71.771542 
L 178.118742 72.036867 
L 177.238373 72.307045 
L 176.358005 72.579468 
L 175.477636 72.851964 
L 174.597267 73.122625 
L 173.716899 73.389661 
L 172.83653 73.651296 
L 171.956161 73.905722 
L 171.075793 74.151128 
L 170.195424 74.385747 
L 169.315055 74.607945 
L 168.434686 74.816297 
L 167.554318 75.009662 
L 166.673949 75.18723 
L 165.79358 75.348551 
L 164.913212 75.49355 
L 164.032843 75.622515 
L 163.152474 75.736082 
L 162.272106 75.835203 
L 161.391737 75.921106 
L 160.511368 75.995243 
L 159.631 76.05922 
L 158.750631 76.11472 
L 157.870262 76.16341 
L 156.989893 76.206844 
L 156.109525 76.246375 
L 155.229156 76.283087 
L 154.348787 76.317742 
L 153.468419 76.35078 
L 152.58805 76.382344 
z
" style="fill:#1f77b4;fill-opacity:0.3;"/>
   </g>
   <g id="PolyCollection_9">
    <path clip-path="url(#p092d80e782)" d="M 43.157727 51.010196 
L 43.157727 51.244962 
L 45.140529 51.26308 
L 47.123332 51.281945 
L 49.106134 51.301767 
L 51.088936 51.322987 
L 53.071738 51.346291 
L 55.054541 51.372627 
L 57.037343 51.403207 
L 59.020145 51.439508 
L 61.002947 51.483256 
L 62.985749 51.53641 
L 64.968552 51.601121 
L 66.951354 51.679668 
L 68.934156 51.774374 
L 70.916958 51.887471 
L 72.899761 52.020947 
L 74.882563 52.176365 
L 76.865365 52.354672 
L 78.848167 52.556044 
L 80.830969 52.779778 
L 82.813772 53.024283 
L 84.796574 53.287191 
L 86.779376 53.565614 
L 88.762178 53.856498 
L 90.744981 54.157018 
L 92.727783 54.46488 
L 94.710585 54.778377 
L 96.693387 55.09611 
L 98.676189 55.416366 
L 100.658992 55.736289 
L 102.641794 56.05114 
L 104.624596 56.353972 
L 106.607398 56.635979 
L 108.590201 56.887586 
L 110.573003 57.100061 
L 112.555805 57.267228 
L 114.538607 57.38673 
L 116.521409 57.460418 
L 118.504212 57.493682 
L 120.487014 57.493895 
L 122.469816 57.46844 
L 124.452618 57.422934 
L 126.43542 57.360202 
L 128.418223 57.280341 
L 130.401025 57.181828 
L 132.383827 57.063313 
L 134.366629 56.925493 
L 136.349432 56.772428 
L 138.332234 56.611768 
L 140.315036 56.453723 
L 142.297838 56.308941 
L 144.28064 56.185844 
L 146.263443 56.088173 
L 148.246245 56.013489 
L 150.229047 55.953166 
L 152.211849 55.893972 
L 154.194652 55.8209 
L 156.177454 55.720525 
L 158.160256 55.583976 
L 160.143058 55.408751 
L 162.12586 55.198941 
L 164.108663 54.963893 
L 166.091465 54.715797 
L 168.074267 54.466929 
L 170.057069 54.227314 
L 172.039872 54.003355 
L 174.022674 53.797595 
L 176.005476 53.609456 
L 177.988278 53.43653 
L 179.97108 53.27592 
L 181.953883 53.125229 
L 183.936685 52.982999 
L 185.919487 52.848625 
L 187.902289 52.721943 
L 189.885092 52.602741 
L 191.867894 52.490412 
L 193.850696 52.383854 
L 195.833498 52.281615 
L 197.8163 52.182185 
L 199.799103 52.084323 
L 201.781905 51.987323 
L 203.764707 51.891167 
L 205.747509 51.796561 
L 207.730311 51.704861 
L 209.713114 51.617918 
L 211.695916 51.537851 
L 213.678718 51.466773 
L 215.66152 51.406492 
L 217.644323 51.358222 
L 219.627125 51.32236 
L 221.609927 51.298364 
L 223.592729 51.284765 
L 225.575531 51.279327 
L 227.558334 51.279321 
L 229.541136 51.281873 
L 231.523938 51.284326 
L 233.50674 51.284552 
L 235.489543 51.281161 
L 237.472345 51.273579 
L 239.455147 51.261998 
L 239.455147 50.99316 
L 239.455147 50.99316 
L 237.472345 50.981579 
L 235.489543 50.973997 
L 233.50674 50.970606 
L 231.523938 50.970832 
L 229.541136 50.973285 
L 227.558334 50.975837 
L 225.575531 50.975831 
L 223.592729 50.970393 
L 221.609927 50.956794 
L 219.627125 50.932798 
L 217.644323 50.896936 
L 215.66152 50.848666 
L 213.678718 50.788385 
L 211.695916 50.717307 
L 209.713114 50.63724 
L 207.730311 50.550297 
L 205.747509 50.458597 
L 203.764707 50.363991 
L 201.781905 50.267835 
L 199.799103 50.170835 
L 197.8163 50.072973 
L 195.833498 49.973543 
L 193.850696 49.871304 
L 191.867894 49.764746 
L 189.885092 49.652417 
L 187.902289 49.533215 
L 185.919487 49.406533 
L 183.936685 49.272159 
L 181.953883 49.129928 
L 179.97108 48.979238 
L 177.988278 48.818628 
L 176.005476 48.645702 
L 174.022674 48.457563 
L 172.039872 48.251802 
L 170.057069 48.027844 
L 168.074267 47.788229 
L 166.091465 47.53936 
L 164.108663 47.291264 
L 162.12586 47.056217 
L 160.143058 46.846407 
L 158.160256 46.671182 
L 156.177454 46.534632 
L 154.194652 46.434258 
L 152.211849 46.361186 
L 150.229047 46.301991 
L 148.246245 46.241668 
L 146.263443 46.166985 
L 144.28064 46.069314 
L 142.297838 45.946217 
L 140.315036 45.801435 
L 138.332234 45.64339 
L 136.349432 45.48273 
L 134.366629 45.329665 
L 132.383827 45.191845 
L 130.401025 45.073329 
L 128.418223 44.974816 
L 126.43542 44.894956 
L 124.452618 44.832224 
L 122.469816 44.786718 
L 120.487014 44.761263 
L 118.504212 44.761476 
L 116.521409 44.79474 
L 114.538607 44.868428 
L 112.555805 44.98793 
L 110.573003 45.155097 
L 108.590201 45.367572 
L 106.607398 45.619178 
L 104.624596 45.901186 
L 102.641794 46.204018 
L 100.658992 46.518869 
L 98.676189 46.838791 
L 96.693387 47.159048 
L 94.710585 47.476781 
L 92.727783 47.790278 
L 90.744981 48.09814 
L 88.762178 48.39866 
L 86.779376 48.689544 
L 84.796574 48.967967 
L 82.813772 49.230875 
L 80.830969 49.47538 
L 78.848167 49.699114 
L 76.865365 49.900486 
L 74.882563 50.078793 
L 72.899761 50.234211 
L 70.916958 50.367687 
L 68.934156 50.480784 
L 66.951354 50.57549 
L 64.968552 50.654037 
L 62.985749 50.718748 
L 61.002947 50.771902 
L 59.020145 50.81565 
L 57.037343 50.851951 
L 55.054541 50.882531 
L 53.071738 50.908867 
L 51.088936 50.932171 
L 49.106134 50.953391 
L 47.123332 50.973213 
L 45.140529 50.992078 
L 43.157727 51.010196 
z
" style="fill:#1f77b4;fill-opacity:0.3;"/>
   </g>
   <g id="PolyCollection_10">
    <path clip-path="url(#p092d80e782)" d="M 130.028227 25.454049 
L 130.028227 25.870583 
L 131.931261 25.907327 
L 133.834296 25.947069 
L 135.73733 25.98995 
L 137.640365 26.036339 
L 139.543399 26.086841 
L 141.446434 26.14226 
L 143.349468 26.203488 
L 145.252503 26.271346 
L 147.155537 26.346411 
L 149.058572 26.42885 
L 150.961606 26.518323 
L 152.864641 26.613999 
L 154.767675 26.714671 
L 156.67071 26.819001 
L 158.573744 26.925808 
L 160.476779 27.034378 
L 162.379813 27.14469 
L 164.282848 27.257542 
L 166.185882 27.374509 
L 168.088917 27.497775 
L 169.991951 27.629861 
L 171.894986 27.773308 
L 173.79802 27.930375 
L 175.701055 28.1028 
L 177.604089 28.291638 
L 179.507124 28.497172 
L 181.410158 28.718882 
L 183.313193 28.955436 
L 185.216227 29.204709 
L 187.119262 29.463798 
L 189.022296 29.729075 
L 190.925331 29.99628 
L 192.828365 30.260686 
L 194.7314 30.517336 
L 196.634434 30.761354 
L 198.537469 30.988288 
L 200.440503 31.194455 
L 202.343538 31.377224 
L 204.246572 31.535179 
L 206.149607 31.668147 
L 208.052641 31.777044 
L 209.955676 31.863593 
L 211.85871 31.929928 
L 213.761745 31.978179 
L 215.664779 32.010092 
L 217.567814 32.026781 
L 219.470848 32.028632 
L 221.373883 32.015389 
L 223.276917 31.986402 
L 225.179952 31.940959 
L 227.082986 31.878639 
L 228.986021 31.799587 
L 230.889055 31.704636 
L 232.79209 31.595242 
L 234.695124 31.473245 
L 236.598159 31.340517 
L 238.501193 31.198615 
L 240.404228 31.048548 
L 242.307262 30.890735 
L 244.210297 30.725208 
L 246.113331 30.551985 
L 248.016366 30.371511 
L 249.9194 30.18502 
L 251.822435 29.994693 
L 253.725469 29.803537 
L 255.628504 29.614993 
L 257.531538 29.432386 
L 259.434573 29.258339 
L 261.337607 29.094302 
L 263.240642 28.940316 
L 265.143676 28.795045 
L 267.046711 28.656066 
L 268.949745 28.520344 
L 270.85278 28.384789 
L 272.755814 28.2468 
L 274.658849 28.104703 
L 276.561883 27.958024 
L 278.464918 27.807566 
L 280.367952 27.655289 
L 282.270987 27.504017 
L 284.174021 27.357015 
L 286.077056 27.217509 
L 287.98009 27.088227 
L 289.883125 26.97103 
L 291.786159 26.866687 
L 293.689193 26.774834 
L 295.592228 26.69411 
L 297.495262 26.622429 
L 299.398297 26.557338 
L 301.301331 26.496389 
L 303.204366 26.437457 
L 305.1074 26.378971 
L 307.010435 26.32001 
L 308.913469 26.260303 
L 310.816504 26.200122 
L 312.719538 26.140138 
L 314.622573 26.081247 
L 316.525607 26.024427 
L 318.428642 25.970609 
L 318.428642 25.354023 
L 318.428642 25.354023 
L 316.525607 25.300205 
L 314.622573 25.243384 
L 312.719538 25.184494 
L 310.816504 25.124509 
L 308.913469 25.064329 
L 307.010435 25.004621 
L 305.1074 24.945661 
L 303.204366 24.887174 
L 301.301331 24.828243 
L 299.398297 24.767293 
L 297.495262 24.702202 
L 295.592228 24.630521 
L 293.689193 24.549797 
L 291.786159 24.457945 
L 289.883125 24.353601 
L 287.98009 24.236404 
L 286.077056 24.107123 
L 284.174021 23.967617 
L 282.270987 23.820614 
L 280.367952 23.669342 
L 278.464918 23.517066 
L 276.561883 23.366608 
L 274.658849 23.219928 
L 272.755814 23.077832 
L 270.85278 22.939843 
L 268.949745 22.804288 
L 267.046711 22.668565 
L 265.143676 22.529586 
L 263.240642 22.384315 
L 261.337607 22.23033 
L 259.434573 22.066293 
L 257.531538 21.892246 
L 255.628504 21.709639 
L 253.725469 21.521095 
L 251.822435 21.329938 
L 249.9194 21.139612 
L 248.016366 20.953121 
L 246.113331 20.772646 
L 244.210297 20.599423 
L 242.307262 20.433897 
L 240.404228 20.276084 
L 238.501193 20.126016 
L 236.598159 19.984115 
L 234.695124 19.851387 
L 232.79209 19.729389 
L 230.889055 19.619996 
L 228.986021 19.525045 
L 227.082986 19.445993 
L 225.179952 19.383673 
L 223.276917 19.33823 
L 221.373883 19.309243 
L 219.470848 19.296 
L 217.567814 19.29785 
L 215.664779 19.31454 
L 213.761745 19.346453 
L 211.85871 19.394703 
L 209.955676 19.461039 
L 208.052641 19.547588 
L 206.149607 19.656485 
L 204.246572 19.789452 
L 202.343538 19.947408 
L 200.440503 20.130176 
L 198.537469 20.336344 
L 196.634434 20.563278 
L 194.7314 20.807295 
L 192.828365 21.063946 
L 190.925331 21.328351 
L 189.022296 21.595557 
L 187.119262 21.860834 
L 185.216227 22.119923 
L 183.313193 22.369196 
L 181.410158 22.60575 
L 179.507124 22.827459 
L 177.604089 23.032993 
L 175.701055 23.221831 
L 173.79802 23.394257 
L 171.894986 23.551324 
L 169.991951 23.69477 
L 168.088917 23.826857 
L 166.185882 23.950123 
L 164.282848 24.067089 
L 162.379813 24.179941 
L 160.476779 24.290254 
L 158.573744 24.398823 
L 156.67071 24.505631 
L 154.767675 24.60996 
L 152.864641 24.710633 
L 150.961606 24.806308 
L 149.058572 24.895782 
L 147.155537 24.97822 
L 145.252503 25.053285 
L 143.349468 25.121144 
L 141.446434 25.182371 
L 139.543399 25.23779 
L 137.640365 25.288293 
L 135.73733 25.334681 
L 133.834296 25.377562 
L 131.931261 25.417304 
L 130.028227 25.454049 
z
" style="fill:#1f77b4;fill-opacity:0.3;"/>
   </g>
   <g id="matplotlib.axis_1">
    <g id="xtick_1">
     <g id="line2d_1">
      <defs>
       <path d="M 0 0 
L 0 3.5 
" id="m5183e188bf" style="stroke:#000000;stroke-width:0.8;"/>
      </defs>
      <g>
       <use style="stroke:#000000;stroke-width:0.8;" x="73.507876" xlink:href="#m5183e188bf" y="273.312"/>
      </g>
     </g>
     <g id="text_1">
      <!-- 60 -->
      <g transform="translate(62.955532 287.910437)scale(0.1 -0.1)">
       <defs>
        <path d="M 10.59375 35.5 
L 73.1875 35.5 
L 73.1875 27.203125 
L 10.59375 27.203125 
z
" id="DejaVuSans-8722"/>
        <path d="M 33.015625 40.375 
Q 26.375 40.375 22.484375 35.828125 
Q 18.609375 31.296875 18.609375 23.390625 
Q 18.609375 15.53125 22.484375 10.953125 
Q 26.375 6.390625 33.015625 6.390625 
Q 39.65625 6.390625 43.53125 10.953125 
Q 47.40625 15.53125 47.40625 23.390625 
Q 47.40625 31.296875 43.53125 35.828125 
Q 39.65625 40.375 33.015625 40.375 
z
M 52.59375 71.296875 
L 52.59375 62.3125 
Q 48.875 64.0625 45.09375 64.984375 
Q 41.3125 65.921875 37.59375 65.921875 
Q 27.828125 65.921875 22.671875 59.328125 
Q 17.53125 52.734375 16.796875 39.40625 
Q 19.671875 43.65625 24.015625 45.921875 
Q 28.375 48.1875 33.59375 48.1875 
Q 44.578125 48.1875 50.953125 41.515625 
Q 57.328125 34.859375 57.328125 23.390625 
Q 57.328125 12.15625 50.6875 5.359375 
Q 44.046875 -1.421875 33.015625 -1.421875 
Q 20.359375 -1.421875 13.671875 8.265625 
Q 6.984375 17.96875 6.984375 36.375 
Q 6.984375 53.65625 15.1875 63.9375 
Q 23.390625 74.21875 37.203125 74.21875 
Q 40.921875 74.21875 44.703125 73.484375 
Q 48.484375 72.75 52.59375 71.296875 
z
" id="DejaVuSans-54"/>
        <path d="M 31.78125 66.40625 
Q 24.171875 66.40625 20.328125 58.90625 
Q 16.5 51.421875 16.5 36.375 
Q 16.5 21.390625 20.328125 13.890625 
Q 24.171875 6.390625 31.78125 6.390625 
Q 39.453125 6.390625 43.28125 13.890625 
Q 47.125 21.390625 47.125 36.375 
Q 47.125 51.421875 43.28125 58.90625 
Q 39.453125 66.40625 31.78125 66.40625 
z
M 31.78125 74.21875 
Q 44.046875 74.21875 50.515625 64.515625 
Q 56.984375 54.828125 56.984375 36.375 
Q 56.984375 17.96875 50.515625 8.265625 
Q 44.046875 -1.421875 31.78125 -1.421875 
Q 19.53125 -1.421875 13.0625 8.265625 
Q 6.59375 17.96875 6.59375 36.375 
Q 6.59375 54.828125 13.0625 64.515625 
Q 19.53125 74.21875 31.78125 74.21875 
z
" id="DejaVuSans-48"/>
       </defs>
       <use xlink:href="#DejaVuSans-8722"/>
       <use x="83.789062" xlink:href="#DejaVuSans-54"/>
       <use x="147.412109" xlink:href="#DejaVuSans-48"/>
      </g>
     </g>
    </g>
    <g id="xtick_2">
     <g id="line2d_2">
      <g>
       <use style="stroke:#000000;stroke-width:0.8;" x="126.629068" xlink:href="#m5183e188bf" y="273.312"/>
      </g>
     </g>
     <g id="text_2">
      <!-- 40 -->
      <g transform="translate(116.076724 287.910437)scale(0.1 -0.1)">
       <defs>
        <path d="M 37.796875 64.3125 
L 12.890625 25.390625 
L 37.796875 25.390625 
z
M 35.203125 72.90625 
L 47.609375 72.90625 
L 47.609375 25.390625 
L 58.015625 25.390625 
L 58.015625 17.1875 
L 47.609375 17.1875 
L 47.609375 0 
L 37.796875 0 
L 37.796875 17.1875 
L 4.890625 17.1875 
L 4.890625 26.703125 
z
" id="DejaVuSans-52"/>
       </defs>
       <use xlink:href="#DejaVuSans-8722"/>
       <use x="83.789062" xlink:href="#DejaVuSans-52"/>
       <use x="147.412109" xlink:href="#DejaVuSans-48"/>
      </g>
     </g>
    </g>
    <g id="xtick_3">
     <g id="line2d_3">
      <g>
       <use style="stroke:#000000;stroke-width:0.8;" x="179.750259" xlink:href="#m5183e188bf" y="273.312"/>
      </g>
     </g>
     <g id="text_3">
      <!-- 20 -->
      <g transform="translate(169.197916 287.910437)scale(0.1 -0.1)">
       <defs>
        <path d="M 19.1875 8.296875 
L 53.609375 8.296875 
L 53.609375 0 
L 7.328125 0 
L 7.328125 8.296875 
Q 12.9375 14.109375 22.625 23.890625 
Q 32.328125 33.6875 34.8125 36.53125 
Q 39.546875 41.84375 41.421875 45.53125 
Q 43.3125 49.21875 43.3125 52.78125 
Q 43.3125 58.59375 39.234375 62.25 
Q 35.15625 65.921875 28.609375 65.921875 
Q 23.96875 65.921875 18.8125 64.3125 
Q 13.671875 62.703125 7.8125 59.421875 
L 7.8125 69.390625 
Q 13.765625 71.78125 18.9375 73 
Q 24.125 74.21875 28.421875 74.21875 
Q 39.75 74.21875 46.484375 68.546875 
Q 53.21875 62.890625 53.21875 53.421875 
Q 53.21875 48.921875 51.53125 44.890625 
Q 49.859375 40.875 45.40625 35.40625 
Q 44.1875 33.984375 37.640625 27.21875 
Q 31.109375 20.453125 19.1875 8.296875 
z
" id="DejaVuSans-50"/>
       </defs>
       <use xlink:href="#DejaVuSans-8722"/>
       <use x="83.789062" xlink:href="#DejaVuSans-50"/>
       <use x="147.412109" xlink:href="#DejaVuSans-48"/>
      </g>
     </g>
    </g>
    <g id="xtick_4">
     <g id="line2d_4">
      <g>
       <use style="stroke:#000000;stroke-width:0.8;" x="232.871451" xlink:href="#m5183e188bf" y="273.312"/>
      </g>
     </g>
     <g id="text_4">
      <!-- 0 -->
      <g transform="translate(229.690201 287.910437)scale(0.1 -0.1)">
       <use xlink:href="#DejaVuSans-48"/>
      </g>
     </g>
    </g>
    <g id="xtick_5">
     <g id="line2d_5">
      <g>
       <use style="stroke:#000000;stroke-width:0.8;" x="285.992643" xlink:href="#m5183e188bf" y="273.312"/>
      </g>
     </g>
     <g id="text_5">
      <!-- 20 -->
      <g transform="translate(279.630143 287.910437)scale(0.1 -0.1)">
       <use xlink:href="#DejaVuSans-50"/>
       <use x="63.623047" xlink:href="#DejaVuSans-48"/>
      </g>
     </g>
    </g>
    <g id="xtick_6">
     <g id="line2d_6">
      <g>
       <use style="stroke:#000000;stroke-width:0.8;" x="339.113835" xlink:href="#m5183e188bf" y="273.312"/>
      </g>
     </g>
     <g id="text_6">
      <!-- 40 -->
      <g transform="translate(332.751335 287.910437)scale(0.1 -0.1)">
       <use xlink:href="#DejaVuSans-52"/>
       <use x="63.623047" xlink:href="#DejaVuSans-48"/>
      </g>
     </g>
    </g>
    <g id="text_7">
     <!-- Velocity [km/s] -->
     <g transform="translate(168.324063 301.588562)scale(0.1 -0.1)">
      <defs>
       <path d="M 28.609375 0 
L 0.78125 72.90625 
L 11.078125 72.90625 
L 34.1875 11.53125 
L 57.328125 72.90625 
L 67.578125 72.90625 
L 39.796875 0 
z
" id="DejaVuSans-86"/>
       <path d="M 56.203125 29.59375 
L 56.203125 25.203125 
L 14.890625 25.203125 
Q 15.484375 15.921875 20.484375 11.0625 
Q 25.484375 6.203125 34.421875 6.203125 
Q 39.59375 6.203125 44.453125 7.46875 
Q 49.3125 8.734375 54.109375 11.28125 
L 54.109375 2.78125 
Q 49.265625 0.734375 44.1875 -0.34375 
Q 39.109375 -1.421875 33.890625 -1.421875 
Q 20.796875 -1.421875 13.15625 6.1875 
Q 5.515625 13.8125 5.515625 26.8125 
Q 5.515625 40.234375 12.765625 48.109375 
Q 20.015625 56 32.328125 56 
Q 43.359375 56 49.78125 48.890625 
Q 56.203125 41.796875 56.203125 29.59375 
z
M 47.21875 32.234375 
Q 47.125 39.59375 43.09375 43.984375 
Q 39.0625 48.390625 32.421875 48.390625 
Q 24.90625 48.390625 20.390625 44.140625 
Q 15.875 39.890625 15.1875 32.171875 
z
" id="DejaVuSans-101"/>
       <path d="M 9.421875 75.984375 
L 18.40625 75.984375 
L 18.40625 0 
L 9.421875 0 
z
" id="DejaVuSans-108"/>
       <path d="M 30.609375 48.390625 
Q 23.390625 48.390625 19.1875 42.75 
Q 14.984375 37.109375 14.984375 27.296875 
Q 14.984375 17.484375 19.15625 11.84375 
Q 23.34375 6.203125 30.609375 6.203125 
Q 37.796875 6.203125 41.984375 11.859375 
Q 46.1875 17.53125 46.1875 27.296875 
Q 46.1875 37.015625 41.984375 42.703125 
Q 37.796875 48.390625 30.609375 48.390625 
z
M 30.609375 56 
Q 42.328125 56 49.015625 48.375 
Q 55.71875 40.765625 55.71875 27.296875 
Q 55.71875 13.875 49.015625 6.21875 
Q 42.328125 -1.421875 30.609375 -1.421875 
Q 18.84375 -1.421875 12.171875 6.21875 
Q 5.515625 13.875 5.515625 27.296875 
Q 5.515625 40.765625 12.171875 48.375 
Q 18.84375 56 30.609375 56 
z
" id="DejaVuSans-111"/>
       <path d="M 48.78125 52.59375 
L 48.78125 44.1875 
Q 44.96875 46.296875 41.140625 47.34375 
Q 37.3125 48.390625 33.40625 48.390625 
Q 24.65625 48.390625 19.8125 42.84375 
Q 14.984375 37.3125 14.984375 27.296875 
Q 14.984375 17.28125 19.8125 11.734375 
Q 24.65625 6.203125 33.40625 6.203125 
Q 37.3125 6.203125 41.140625 7.25 
Q 44.96875 8.296875 48.78125 10.40625 
L 48.78125 2.09375 
Q 45.015625 0.34375 40.984375 -0.53125 
Q 36.96875 -1.421875 32.421875 -1.421875 
Q 20.0625 -1.421875 12.78125 6.34375 
Q 5.515625 14.109375 5.515625 27.296875 
Q 5.515625 40.671875 12.859375 48.328125 
Q 20.21875 56 33.015625 56 
Q 37.15625 56 41.109375 55.140625 
Q 45.0625 54.296875 48.78125 52.59375 
z
" id="DejaVuSans-99"/>
       <path d="M 9.421875 54.6875 
L 18.40625 54.6875 
L 18.40625 0 
L 9.421875 0 
z
M 9.421875 75.984375 
L 18.40625 75.984375 
L 18.40625 64.59375 
L 9.421875 64.59375 
z
" id="DejaVuSans-105"/>
       <path d="M 18.3125 70.21875 
L 18.3125 54.6875 
L 36.8125 54.6875 
L 36.8125 47.703125 
L 18.3125 47.703125 
L 18.3125 18.015625 
Q 18.3125 11.328125 20.140625 9.421875 
Q 21.96875 7.515625 27.59375 7.515625 
L 36.8125 7.515625 
L 36.8125 0 
L 27.59375 0 
Q 17.1875 0 13.234375 3.875 
Q 9.28125 7.765625 9.28125 18.015625 
L 9.28125 47.703125 
L 2.6875 47.703125 
L 2.6875 54.6875 
L 9.28125 54.6875 
L 9.28125 70.21875 
z
" id="DejaVuSans-116"/>
       <path d="M 32.171875 -5.078125 
Q 28.375 -14.84375 24.75 -17.8125 
Q 21.140625 -20.796875 15.09375 -20.796875 
L 7.90625 -20.796875 
L 7.90625 -13.28125 
L 13.1875 -13.28125 
Q 16.890625 -13.28125 18.9375 -11.515625 
Q 21 -9.765625 23.484375 -3.21875 
L 25.09375 0.875 
L 2.984375 54.6875 
L 12.5 54.6875 
L 29.59375 11.921875 
L 46.6875 54.6875 
L 56.203125 54.6875 
z
" id="DejaVuSans-121"/>
       <path id="DejaVuSans-32"/>
       <path d="M 8.59375 75.984375 
L 29.296875 75.984375 
L 29.296875 69 
L 17.578125 69 
L 17.578125 -6.203125 
L 29.296875 -6.203125 
L 29.296875 -13.1875 
L 8.59375 -13.1875 
z
" id="DejaVuSans-91"/>
       <path d="M 9.078125 75.984375 
L 18.109375 75.984375 
L 18.109375 31.109375 
L 44.921875 54.6875 
L 56.390625 54.6875 
L 27.390625 29.109375 
L 57.625 0 
L 45.90625 0 
L 18.109375 26.703125 
L 18.109375 0 
L 9.078125 0 
z
" id="DejaVuSans-107"/>
       <path d="M 52 44.1875 
Q 55.375 50.25 60.0625 53.125 
Q 64.75 56 71.09375 56 
Q 79.640625 56 84.28125 50.015625 
Q 88.921875 44.046875 88.921875 33.015625 
L 88.921875 0 
L 79.890625 0 
L 79.890625 32.71875 
Q 79.890625 40.578125 77.09375 44.375 
Q 74.3125 48.1875 68.609375 48.1875 
Q 61.625 48.1875 57.5625 43.546875 
Q 53.515625 38.921875 53.515625 30.90625 
L 53.515625 0 
L 44.484375 0 
L 44.484375 32.71875 
Q 44.484375 40.625 41.703125 44.40625 
Q 38.921875 48.1875 33.109375 48.1875 
Q 26.21875 48.1875 22.15625 43.53125 
Q 18.109375 38.875 18.109375 30.90625 
L 18.109375 0 
L 9.078125 0 
L 9.078125 54.6875 
L 18.109375 54.6875 
L 18.109375 46.1875 
Q 21.1875 51.21875 25.484375 53.609375 
Q 29.78125 56 35.6875 56 
Q 41.65625 56 45.828125 52.96875 
Q 50 49.953125 52 44.1875 
z
" id="DejaVuSans-109"/>
       <path d="M 25.390625 72.90625 
L 33.6875 72.90625 
L 8.296875 -9.28125 
L 0 -9.28125 
z
" id="DejaVuSans-47"/>
       <path d="M 44.28125 53.078125 
L 44.28125 44.578125 
Q 40.484375 46.53125 36.375 47.5 
Q 32.28125 48.484375 27.875 48.484375 
Q 21.1875 48.484375 17.84375 46.4375 
Q 14.5 44.390625 14.5 40.28125 
Q 14.5 37.15625 16.890625 35.375 
Q 19.28125 33.59375 26.515625 31.984375 
L 29.59375 31.296875 
Q 39.15625 29.25 43.1875 25.515625 
Q 47.21875 21.78125 47.21875 15.09375 
Q 47.21875 7.46875 41.1875 3.015625 
Q 35.15625 -1.421875 24.609375 -1.421875 
Q 20.21875 -1.421875 15.453125 -0.5625 
Q 10.6875 0.296875 5.421875 2 
L 5.421875 11.28125 
Q 10.40625 8.6875 15.234375 7.390625 
Q 20.0625 6.109375 24.8125 6.109375 
Q 31.15625 6.109375 34.5625 8.28125 
Q 37.984375 10.453125 37.984375 14.40625 
Q 37.984375 18.0625 35.515625 20.015625 
Q 33.0625 21.96875 24.703125 23.78125 
L 21.578125 24.515625 
Q 13.234375 26.265625 9.515625 29.90625 
Q 5.8125 33.546875 5.8125 39.890625 
Q 5.8125 47.609375 11.28125 51.796875 
Q 16.75 56 26.8125 56 
Q 31.78125 56 36.171875 55.265625 
Q 40.578125 54.546875 44.28125 53.078125 
z
" id="DejaVuSans-115"/>
       <path d="M 30.421875 75.984375 
L 30.421875 -13.1875 
L 9.71875 -13.1875 
L 9.71875 -6.203125 
L 21.390625 -6.203125 
L 21.390625 69 
L 9.71875 69 
L 9.71875 75.984375 
z
" id="DejaVuSans-93"/>
      </defs>
      <use xlink:href="#DejaVuSans-86"/>
      <use x="60.658203" xlink:href="#DejaVuSans-101"/>
      <use x="122.181641" xlink:href="#DejaVuSans-108"/>
      <use x="149.964844" xlink:href="#DejaVuSans-111"/>
      <use x="211.146484" xlink:href="#DejaVuSans-99"/>
      <use x="266.126953" xlink:href="#DejaVuSans-105"/>
      <use x="293.910156" xlink:href="#DejaVuSans-116"/>
      <use x="333.119141" xlink:href="#DejaVuSans-121"/>
      <use x="392.298828" xlink:href="#DejaVuSans-32"/>
      <use x="424.085938" xlink:href="#DejaVuSans-91"/>
      <use x="463.099609" xlink:href="#DejaVuSans-107"/>
      <use x="521.009766" xlink:href="#DejaVuSans-109"/>
      <use x="618.421875" xlink:href="#DejaVuSans-47"/>
      <use x="652.113281" xlink:href="#DejaVuSans-115"/>
      <use x="704.212891" xlink:href="#DejaVuSans-93"/>
     </g>
    </g>
   </g>
   <g id="matplotlib.axis_2">
    <g id="ytick_1">
     <g id="line2d_7">
      <defs>
       <path d="M 0 0 
L -3.5 0 
" id="m5318686f21" style="stroke:#000000;stroke-width:0.8;"/>
      </defs>
      <g>
       <use style="stroke:#000000;stroke-width:0.8;" x="26.925" xlink:href="#m5318686f21" y="229.384421"/>
      </g>
     </g>
     <g id="text_8">
      <!-- 2 -->
      <g transform="translate(13.5625 233.18364)scale(0.1 -0.1)">
       <use xlink:href="#DejaVuSans-50"/>
      </g>
     </g>
    </g>
    <g id="ytick_2">
     <g id="line2d_8">
      <g>
       <use style="stroke:#000000;stroke-width:0.8;" x="26.925" xlink:href="#m5318686f21" y="178.453895"/>
      </g>
     </g>
     <g id="text_9">
      <!-- 4 -->
      <g transform="translate(13.5625 182.253113)scale(0.1 -0.1)">
       <use xlink:href="#DejaVuSans-52"/>
      </g>
     </g>
    </g>
    <g id="ytick_3">
     <g id="line2d_9">
      <g>
       <use style="stroke:#000000;stroke-width:0.8;" x="26.925" xlink:href="#m5318686f21" y="127.523368"/>
      </g>
     </g>
     <g id="text_10">
      <!-- 6 -->
      <g transform="translate(13.5625 131.322587)scale(0.1 -0.1)">
       <use xlink:href="#DejaVuSans-54"/>
      </g>
     </g>
    </g>
    <g id="ytick_4">
     <g id="line2d_10">
      <g>
       <use style="stroke:#000000;stroke-width:0.8;" x="26.925" xlink:href="#m5318686f21" y="76.592842"/>
      </g>
     </g>
     <g id="text_11">
      <!-- 8 -->
      <g transform="translate(13.5625 80.392061)scale(0.1 -0.1)">
       <defs>
        <path d="M 31.78125 34.625 
Q 24.75 34.625 20.71875 30.859375 
Q 16.703125 27.09375 16.703125 20.515625 
Q 16.703125 13.921875 20.71875 10.15625 
Q 24.75 6.390625 31.78125 6.390625 
Q 38.8125 6.390625 42.859375 10.171875 
Q 46.921875 13.96875 46.921875 20.515625 
Q 46.921875 27.09375 42.890625 30.859375 
Q 38.875 34.625 31.78125 34.625 
z
M 21.921875 38.8125 
Q 15.578125 40.375 12.03125 44.71875 
Q 8.5 49.078125 8.5 55.328125 
Q 8.5 64.0625 14.71875 69.140625 
Q 20.953125 74.21875 31.78125 74.21875 
Q 42.671875 74.21875 48.875 69.140625 
Q 55.078125 64.0625 55.078125 55.328125 
Q 55.078125 49.078125 51.53125 44.71875 
Q 48 40.375 41.703125 38.8125 
Q 48.828125 37.15625 52.796875 32.3125 
Q 56.78125 27.484375 56.78125 20.515625 
Q 56.78125 9.90625 50.3125 4.234375 
Q 43.84375 -1.421875 31.78125 -1.421875 
Q 19.734375 -1.421875 13.25 4.234375 
Q 6.78125 9.90625 6.78125 20.515625 
Q 6.78125 27.484375 10.78125 32.3125 
Q 14.796875 37.15625 21.921875 38.8125 
z
M 18.3125 54.390625 
Q 18.3125 48.734375 21.84375 45.5625 
Q 25.390625 42.390625 31.78125 42.390625 
Q 38.140625 42.390625 41.71875 45.5625 
Q 45.3125 48.734375 45.3125 54.390625 
Q 45.3125 60.0625 41.71875 63.234375 
Q 38.140625 66.40625 31.78125 66.40625 
Q 25.390625 66.40625 21.84375 63.234375 
Q 18.3125 60.0625 18.3125 54.390625 
z
" id="DejaVuSans-56"/>
       </defs>
       <use xlink:href="#DejaVuSans-56"/>
      </g>
     </g>
    </g>
    <g id="ytick_5">
     <g id="line2d_11">
      <g>
       <use style="stroke:#000000;stroke-width:0.8;" x="26.925" xlink:href="#m5318686f21" y="25.662316"/>
      </g>
     </g>
     <g id="text_12">
      <!-- 10 -->
      <g transform="translate(7.2 29.461535)scale(0.1 -0.1)">
       <defs>
        <path d="M 12.40625 8.296875 
L 28.515625 8.296875 
L 28.515625 63.921875 
L 10.984375 60.40625 
L 10.984375 69.390625 
L 28.421875 72.90625 
L 38.28125 72.90625 
L 38.28125 8.296875 
L 54.390625 8.296875 
L 54.390625 0 
L 12.40625 0 
z
" id="DejaVuSans-49"/>
       </defs>
       <use xlink:href="#DejaVuSans-49"/>
       <use x="63.623047" xlink:href="#DejaVuSans-48"/>
      </g>
     </g>
    </g>
   </g>
   <g id="patch_3">
    <path d="M 26.925 273.312 
L 26.925 7.2 
" style="fill:none;stroke:#000000;stroke-linecap:square;stroke-linejoin:miter;stroke-width:0.8;"/>
   </g>
   <g id="patch_4">
    <path d="M 384.045 273.312 
L 384.045 7.2 
" style="fill:none;stroke:#000000;stroke-linecap:square;stroke-linejoin:miter;stroke-width:0.8;"/>
   </g>
   <g id="patch_5">
    <path d="M 26.925 273.312 
L 384.045 273.312 
" style="fill:none;stroke:#000000;stroke-linecap:square;stroke-linejoin:miter;stroke-width:0.8;"/>
   </g>
   <g id="patch_6">
    <path d="M 26.925 7.2 
L 384.045 7.2 
" style="fill:none;stroke:#000000;stroke-linecap:square;stroke-linejoin:miter;stroke-width:0.8;"/>
   </g>
  </g>
 </g>
 <defs>
  <clipPath id="p092d80e782">
   <rect height="266.112" width="357.12" x="26.925" y="7.2"/>
  </clipPath>
 </defs>
</svg>
