<?xml version="1.0" encoding="utf-8" standalone="no"?>
<!DOCTYPE svg PUBLIC "-//W3C//DTD SVG 1.1//EN"
  "http://www.w3.org/Graphics/SVG/1.1/DTD/svg11.dtd">
<!-- Created with matplotlib (https://matplotlib.org/) -->
<svg height="310.86825pt" version="1.1" viewBox="0 0 406.940312 310.86825" width="406.940312pt" xmlns="http://www.w3.org/2000/svg" xmlns:xlink="http://www.w3.org/1999/xlink">
 <defs>
  <style type="text/css">
*{stroke-linecap:butt;stroke-linejoin:round;}
  </style>
 </defs>
 <g id="figure_1">
  <g id="patch_1">
   <path d="M 0 310.86825 
L 406.940312 310.86825 
L 406.940312 0 
L 0 0 
z
" style="fill:#ffffff;"/>
  </g>
  <g id="axes_1">
   <g id="patch_2">
    <path d="M 42.620313 273.312 
L 399.740313 273.312 
L 399.740313 7.2 
L 42.620313 7.2 
z
" style="fill:#ffffff;"/>
   </g>
   <g id="PolyCollection_1">
    <defs>
     <path d="M 58.85304 -215.680446 
L 58.85304 -136.377277 
L 62.132379 -137.138829 
L 65.411717 -140.133907 
L 68.691056 -142.449182 
L 71.970395 -144.75531 
L 75.249734 -147.266443 
L 78.529073 -148.887638 
L 81.808412 -152.1987 
L 85.087751 -152.279941 
L 88.367089 -154.821864 
L 91.646428 -155.592067 
L 94.925767 -157.184326 
L 98.205106 -157.387887 
L 101.484445 -159.699502 
L 104.763784 -158.011948 
L 108.043122 -158.687555 
L 111.322461 -159.99246 
L 114.6018 -159.411036 
L 117.881139 -159.906053 
L 121.160478 -158.411242 
L 124.439817 -158.494438 
L 127.719155 -157.258757 
L 130.998494 -155.323169 
L 134.277833 -154.696758 
L 137.557172 -151.828271 
L 140.836511 -150.327136 
L 144.11585 -148.427779 
L 147.395189 -146.782152 
L 150.674527 -144.402508 
L 153.953866 -143.940501 
L 157.233205 -139.338443 
L 160.512544 -137.126463 
L 163.791883 -135.08255 
L 167.071222 -131.988085 
L 170.35056 -130.981435 
L 173.629899 -127.887173 
L 176.909238 -126.163864 
L 180.188577 -124.616913 
L 183.467916 -123.011641 
L 186.747255 -119.738193 
L 190.026593 -117.62844 
L 193.305932 -116.457765 
L 196.585271 -115.846308 
L 199.86461 -114.923999 
L 203.143949 -113.935747 
L 206.423288 -113.780016 
L 209.702627 -114.523906 
L 212.981965 -113.180606 
L 216.261304 -114.244085 
L 219.540643 -113.871667 
L 222.819982 -116.3631 
L 226.099321 -117.346263 
L 229.37866 -120.365144 
L 232.657998 -120.100057 
L 235.937337 -123.433927 
L 239.216676 -124.831373 
L 242.496015 -127.478341 
L 245.775354 -129.484196 
L 249.054693 -131.309363 
L 252.334032 -135.116663 
L 255.61337 -136.582701 
L 258.892709 -139.736795 
L 262.172048 -140.235026 
L 265.451387 -145.241179 
L 268.730726 -144.591471 
L 272.010065 -145.983063 
L 275.289403 -148.33102 
L 278.568742 -149.051835 
L 281.848081 -151.685547 
L 285.12742 -153.915891 
L 288.406759 -153.808832 
L 291.686098 -154.259988 
L 294.965436 -156.08578 
L 298.244775 -156.108455 
L 301.524114 -156.378104 
L 304.803453 -157.28496 
L 308.082792 -156.331731 
L 311.362131 -157.030895 
L 314.64147 -153.955704 
L 317.920808 -154.269436 
L 321.200147 -154.330492 
L 324.479486 -152.304108 
L 327.758825 -151.572051 
L 331.038164 -150.778322 
L 334.317503 -146.805572 
L 337.596841 -146.417452 
L 340.87618 -143.65381 
L 344.155519 -140.540473 
L 347.434858 -139.127294 
L 350.714197 -137.261023 
L 353.993536 -136.512868 
L 357.272874 -133.915601 
L 360.552213 -131.719401 
L 363.831552 -128.181657 
L 367.110891 -127.321995 
L 370.39023 -123.907997 
L 373.669569 -123.249887 
L 376.948908 -121.685793 
L 380.228246 -121.107696 
L 383.507585 -119.456827 
L 383.507585 -199.545186 
L 383.507585 -199.545186 
L 380.228246 -200.045891 
L 376.948908 -201.207368 
L 373.669569 -201.992799 
L 370.39023 -203.344666 
L 367.110891 -206.453175 
L 363.831552 -207.244144 
L 360.552213 -210.166925 
L 357.272874 -211.266303 
L 353.993536 -213.478899 
L 350.714197 -216.502909 
L 347.434858 -218.556131 
L 344.155519 -220.475296 
L 340.87618 -223.165777 
L 337.596841 -225.558936 
L 334.317503 -227.369303 
L 331.038164 -228.846988 
L 327.758825 -230.702682 
L 324.479486 -231.718039 
L 321.200147 -233.513094 
L 317.920808 -234.748643 
L 314.64147 -235.211804 
L 311.362131 -236.51297 
L 308.082792 -238.353657 
L 304.803453 -236.787127 
L 301.524114 -237.477252 
L 298.244775 -236.215073 
L 294.965436 -235.61144 
L 291.686098 -235.224876 
L 288.406759 -233.271071 
L 285.12742 -232.246889 
L 281.848081 -231.880419 
L 278.568742 -230.3305 
L 275.289403 -227.177377 
L 272.010065 -224.287194 
L 268.730726 -222.378919 
L 265.451387 -222.357023 
L 262.172048 -219.447868 
L 258.892709 -218.073163 
L 255.61337 -213.977929 
L 252.334032 -213.008966 
L 249.054693 -208.927726 
L 245.775354 -208.516939 
L 242.496015 -206.394399 
L 239.216676 -203.618225 
L 235.937337 -201.842113 
L 232.657998 -200.860046 
L 229.37866 -201.675696 
L 226.099321 -198.670507 
L 222.819982 -197.621918 
L 219.540643 -196.796041 
L 216.261304 -195.397638 
L 212.981965 -196.694285 
L 209.702627 -195.832549 
L 206.423288 -195.450897 
L 203.143949 -196.291644 
L 199.86461 -197.612399 
L 196.585271 -197.697245 
L 193.305932 -198.883026 
L 190.026593 -199.220156 
L 186.747255 -200.765041 
L 183.467916 -201.610091 
L 180.188577 -204.223381 
L 176.909238 -205.870098 
L 173.629899 -207.726823 
L 170.35056 -209.305608 
L 167.071222 -210.479399 
L 163.791883 -214.343358 
L 160.512544 -216.139758 
L 157.233205 -216.84994 
L 153.953866 -220.170986 
L 150.674527 -222.573766 
L 147.395189 -225.289996 
L 144.11585 -226.663163 
L 140.836511 -228.724693 
L 137.557172 -229.914746 
L 134.277833 -232.378445 
L 130.998494 -233.346523 
L 127.719155 -235.899781 
L 124.439817 -236.934536 
L 121.160478 -236.486003 
L 117.881139 -238.636048 
L 114.6018 -238.24334 
L 111.322461 -237.575227 
L 108.043122 -237.995122 
L 104.763784 -237.954085 
L 101.484445 -238.158527 
L 98.205106 -236.428784 
L 94.925767 -235.521801 
L 91.646428 -233.563368 
L 88.367089 -233.095962 
L 85.087751 -230.983697 
L 81.808412 -228.221582 
L 78.529073 -226.735863 
L 75.249734 -226.104849 
L 71.970395 -223.283622 
L 68.691056 -223.125551 
L 65.411717 -219.634421 
L 62.132379 -217.849501 
L 58.85304 -215.680446 
z
" id="ma1c477ea43" style="stroke:#008000;stroke-opacity:0.5;"/>
    </defs>
    <g clip-path="url(#pf1ac96de44)">
     <use style="fill:#008000;fill-opacity:0.5;stroke:#008000;stroke-opacity:0.5;" x="0" xlink:href="#ma1c477ea43" y="310.86825"/>
    </g>
   </g>
   <g id="PolyCollection_2">
    <defs>
     <path d="M 58.85304 -269.714806 
L 58.85304 -82.638891 
L 62.132379 -82.148291 
L 65.411717 -87.817155 
L 68.691056 -89.138493 
L 71.970395 -93.985818 
L 75.249734 -96.904163 
L 78.529073 -98.314219 
L 81.808412 -96.840622 
L 85.087751 -100.307897 
L 88.367089 -98.156277 
L 91.646428 -104.638696 
L 94.925767 -105.484605 
L 98.205106 -102.920571 
L 101.484445 -104.649317 
L 104.763784 -111.002073 
L 108.043122 -102.9192 
L 111.322461 -108.125367 
L 114.6018 -105.601866 
L 117.881139 -108.862551 
L 121.160478 -107.23385 
L 124.439817 -105.739897 
L 127.719155 -103.485278 
L 130.998494 -104.499099 
L 134.277833 -103.048998 
L 137.557172 -100.029461 
L 140.836511 -97.241073 
L 144.11585 -94.774245 
L 147.395189 -93.996349 
L 150.674527 -92.671215 
L 153.953866 -91.939261 
L 157.233205 -84.53088 
L 160.512544 -85.203134 
L 163.791883 -83.792635 
L 167.071222 -80.331829 
L 170.35056 -76.438429 
L 173.629899 -72.664231 
L 176.909238 -75.680071 
L 180.188577 -68.897047 
L 183.467916 -69.632014 
L 186.747255 -66.207536 
L 190.026593 -65.361922 
L 193.305932 -63.926512 
L 196.585271 -65.752808 
L 199.86461 -59.546873 
L 203.143949 -59.792241 
L 206.423288 -61.933504 
L 209.702627 -59.473779 
L 212.981965 -57.716581 
L 216.261304 -61.408252 
L 219.540643 -64.731136 
L 222.819982 -67.351199 
L 226.099321 -64.861244 
L 229.37866 -67.376997 
L 232.657998 -65.489192 
L 235.937337 -68.705373 
L 239.216676 -75.837192 
L 242.496015 -74.48425 
L 245.775354 -75.844614 
L 249.054693 -81.67226 
L 252.334032 -86.087915 
L 255.61337 -84.585051 
L 258.892709 -89.769222 
L 262.172048 -90.106124 
L 265.451387 -91.009442 
L 268.730726 -92.414894 
L 272.010065 -94.488911 
L 275.289403 -96.349651 
L 278.568742 -93.583417 
L 281.848081 -101.22164 
L 285.12742 -101.261619 
L 288.406759 -98.578792 
L 291.686098 -101.533181 
L 294.965436 -99.201185 
L 298.244775 -99.614412 
L 301.524114 -102.858436 
L 304.803453 -102.812617 
L 308.082792 -102.916289 
L 311.362131 -101.983054 
L 314.64147 -102.305528 
L 317.920808 -99.533392 
L 321.200147 -103.818802 
L 324.479486 -97.866061 
L 327.758825 -97.884691 
L 331.038164 -98.799357 
L 334.317503 -90.867499 
L 337.596841 -93.001587 
L 340.87618 -90.494719 
L 344.155519 -84.779496 
L 347.434858 -88.686898 
L 350.714197 -82.622607 
L 353.993536 -79.864469 
L 357.272874 -80.759872 
L 360.552213 -80.151141 
L 363.831552 -73.526703 
L 367.110891 -76.111765 
L 370.39023 -74.666859 
L 373.669569 -69.93253 
L 376.948908 -70.017626 
L 380.228246 -67.283721 
L 383.507585 -64.71878 
L 383.507585 -253.387215 
L 383.507585 -253.387215 
L 380.228246 -255.003301 
L 376.948908 -255.932086 
L 373.669569 -256.097425 
L 370.39023 -253.945311 
L 367.110891 -258.069771 
L 363.831552 -259.312576 
L 360.552213 -262.886718 
L 357.272874 -265.260018 
L 353.993536 -269.374681 
L 350.714197 -271.554791 
L 347.434858 -273.220845 
L 344.155519 -272.17657 
L 340.87618 -273.460609 
L 337.596841 -275.93324 
L 334.317503 -280.207607 
L 331.038164 -280.10838 
L 327.758825 -281.829188 
L 324.479486 -286.015057 
L 321.200147 -288.769843 
L 317.920808 -286.544811 
L 314.64147 -291.19965 
L 311.362131 -287.580334 
L 308.082792 -287.656891 
L 304.803453 -289.561312 
L 301.524114 -287.760001 
L 298.244775 -291.57225 
L 294.965436 -288.610586 
L 291.686098 -285.586747 
L 288.406759 -289.172632 
L 285.12742 -284.822434 
L 281.848081 -283.981668 
L 278.568742 -281.651069 
L 275.289403 -278.145223 
L 272.010065 -276.253077 
L 268.730726 -274.306616 
L 265.451387 -274.818243 
L 262.172048 -273.289225 
L 258.892709 -267.151248 
L 255.61337 -265.417769 
L 252.334032 -265.318598 
L 249.054693 -260.004885 
L 245.775354 -259.499598 
L 242.496015 -259.97715 
L 239.216676 -258.795673 
L 235.937337 -255.63428 
L 232.657998 -251.207315 
L 229.37866 -255.274066 
L 226.099321 -253.817798 
L 222.819982 -251.730614 
L 219.540643 -252.537261 
L 216.261304 -248.315393 
L 212.981965 -249.371726 
L 209.702627 -253.222401 
L 206.423288 -251.560605 
L 203.143949 -249.715249 
L 199.86461 -252.554269 
L 196.585271 -249.11182 
L 193.305932 -256.106736 
L 190.026593 -254.132538 
L 186.747255 -255.586651 
L 183.467916 -253.523571 
L 180.188577 -256.933057 
L 176.909238 -258.431452 
L 173.629899 -261.648631 
L 170.35056 -260.449531 
L 167.071222 -264.323377 
L 163.791883 -265.872363 
L 160.512544 -270.585705 
L 157.233205 -271.33506 
L 153.953866 -273.323999 
L 150.674527 -274.359281 
L 147.395189 -275.975019 
L 144.11585 -280.949524 
L 140.836511 -277.87807 
L 137.557172 -282.035392 
L 134.277833 -284.991277 
L 130.998494 -284.90928 
L 127.719155 -287.890954 
L 124.439817 -289.421358 
L 121.160478 -287.983311 
L 117.881139 -290.333144 
L 114.6018 -289.709206 
L 111.322461 -288.885019 
L 108.043122 -291.423363 
L 104.763784 -289.514368 
L 101.484445 -290.382691 
L 98.205106 -287.094306 
L 94.925767 -287.267059 
L 91.646428 -283.694965 
L 88.367089 -284.359987 
L 85.087751 -283.784689 
L 81.808412 -281.096672 
L 78.529073 -278.224092 
L 75.249734 -283.356534 
L 71.970395 -272.884129 
L 68.691056 -274.8962 
L 65.411717 -274.372599 
L 62.132379 -270.712335 
L 58.85304 -269.714806 
z
" id="mb26b0f760c" style="stroke:#008000;stroke-opacity:0.5;"/>
    </defs>
    <g clip-path="url(#pf1ac96de44)">
     <use style="fill:#008000;fill-opacity:0.5;stroke:#008000;stroke-opacity:0.5;" x="0" xlink:href="#mb26b0f760c" y="310.86825"/>
    </g>
   </g>
   <g id="PathCollection_1">
    <defs>
     <path d="M 0 3 
C 0.795609 3 1.55874 2.683901 2.12132 2.12132 
C 2.683901 1.55874 3 0.795609 3 0 
C 3 -0.795609 2.683901 -1.55874 2.12132 -2.12132 
C 1.55874 -2.683901 0.795609 -3 0 -3 
C -0.795609 -3 -1.55874 -2.683901 -2.12132 -2.12132 
C -2.683901 -1.55874 -3 -0.795609 -3 0 
C -3 0.795609 -2.683901 1.55874 -2.12132 2.12132 
C -1.55874 2.683901 -0.795609 3 0 3 
z
" id="mf0ef78b418" style="stroke:#1f77b4;"/>
    </defs>
    <g clip-path="url(#pf1ac96de44)">
     <use style="fill:#1f77b4;stroke:#1f77b4;" x="180.449192" xlink:href="#mf0ef78b418" y="21.629087"/>
     <use style="fill:#1f77b4;stroke:#1f77b4;" x="367.506761" xlink:href="#mf0ef78b418" y="149.447258"/>
     <use style="fill:#1f77b4;stroke:#1f77b4;" x="296.4982" xlink:href="#mf0ef78b418" y="109.745366"/>
     <use style="fill:#1f77b4;stroke:#1f77b4;" x="253.210238" xlink:href="#mf0ef78b418" y="150.552036"/>
     <use style="fill:#1f77b4;stroke:#1f77b4;" x="109.505201" xlink:href="#mf0ef78b418" y="160.603835"/>
     <use style="fill:#1f77b4;stroke:#1f77b4;" x="109.49737" xlink:href="#mf0ef78b418" y="131.994304"/>
     <use style="fill:#1f77b4;stroke:#1f77b4;" x="77.710148" xlink:href="#mf0ef78b418" y="136.697854"/>
     <use style="fill:#1f77b4;stroke:#1f77b4;" x="340.061063" xlink:href="#mf0ef78b418" y="87.086736"/>
     <use style="fill:#1f77b4;stroke:#1f77b4;" x="254.007761" xlink:href="#mf0ef78b418" y="125.367183"/>
     <use style="fill:#1f77b4;stroke:#1f77b4;" x="288.732021" xlink:href="#mf0ef78b418" y="174.484365"/>
     <use style="fill:#1f77b4;stroke:#1f77b4;" x="65.535889" xlink:href="#mf0ef78b418" y="119.240881"/>
     <use style="fill:#1f77b4;stroke:#1f77b4;" x="373.738682" xlink:href="#mf0ef78b418" y="175.927239"/>
     <use style="fill:#1f77b4;stroke:#1f77b4;" x="329.109327" xlink:href="#mf0ef78b418" y="142.190478"/>
     <use style="fill:#1f77b4;stroke:#1f77b4;" x="127.789897" xlink:href="#mf0ef78b418" y="88.695559"/>
     <use style="fill:#1f77b4;stroke:#1f77b4;" x="117.883342" xlink:href="#mf0ef78b418" y="67.772224"/>
     <use style="fill:#1f77b4;stroke:#1f77b4;" x="118.396148" xlink:href="#mf0ef78b418" y="71.720566"/>
     <use style="fill:#1f77b4;stroke:#1f77b4;" x="157.626667" xlink:href="#mf0ef78b418" y="171.874214"/>
     <use style="fill:#1f77b4;stroke:#1f77b4;" x="229.217601" xlink:href="#mf0ef78b418" y="174.44005"/>
     <use style="fill:#1f77b4;stroke:#1f77b4;" x="199.085953" xlink:href="#mf0ef78b418" y="159.562646"/>
     <use style="fill:#1f77b4;stroke:#1f77b4;" x="153.401904" xlink:href="#mf0ef78b418" y="98.821335"/>
     <use style="fill:#1f77b4;stroke:#1f77b4;" x="257.493863" xlink:href="#mf0ef78b418" y="152.588443"/>
     <use style="fill:#1f77b4;stroke:#1f77b4;" x="104.140356" xlink:href="#mf0ef78b418" y="111.989052"/>
     <use style="fill:#1f77b4;stroke:#1f77b4;" x="153.699128" xlink:href="#mf0ef78b418" y="177.651119"/>
     <use style="fill:#1f77b4;stroke:#1f77b4;" x="177.794077" xlink:href="#mf0ef78b418" y="205.560626"/>
     <use style="fill:#1f77b4;stroke:#1f77b4;" x="206.918233" xlink:href="#mf0ef78b418" y="141.95098"/>
     <use style="fill:#1f77b4;stroke:#1f77b4;" x="313.763985" xlink:href="#mf0ef78b418" y="55.916987"/>
     <use style="fill:#1f77b4;stroke:#1f77b4;" x="123.678041" xlink:href="#mf0ef78b418" y="111.987321"/>
     <use style="fill:#1f77b4;stroke:#1f77b4;" x="225.801588" xlink:href="#mf0ef78b418" y="127.423962"/>
     <use style="fill:#1f77b4;stroke:#1f77b4;" x="251.183122" xlink:href="#mf0ef78b418" y="127.777038"/>
     <use style="fill:#1f77b4;stroke:#1f77b4;" x="73.933377" xlink:href="#mf0ef78b418" y="147.182707"/>
     <use style="fill:#1f77b4;stroke:#1f77b4;" x="256.095238" xlink:href="#mf0ef78b418" y="122.414438"/>
     <use style="fill:#1f77b4;stroke:#1f77b4;" x="114.214472" xlink:href="#mf0ef78b418" y="47.565857"/>
     <use style="fill:#1f77b4;stroke:#1f77b4;" x="79.972335" xlink:href="#mf0ef78b418" y="118.699726"/>
     <use style="fill:#1f77b4;stroke:#1f77b4;" x="366.913043" xlink:href="#mf0ef78b418" y="96.344679"/>
     <use style="fill:#1f77b4;stroke:#1f77b4;" x="372.349869" xlink:href="#mf0ef78b418" y="259.041003"/>
     <use style="fill:#1f77b4;stroke:#1f77b4;" x="321.302913" xlink:href="#mf0ef78b418" y="79.940403"/>
     <use style="fill:#1f77b4;stroke:#1f77b4;" x="157.747285" xlink:href="#mf0ef78b418" y="137.077587"/>
     <use style="fill:#1f77b4;stroke:#1f77b4;" x="90.562736" xlink:href="#mf0ef78b418" y="121.027315"/>
     <use style="fill:#1f77b4;stroke:#1f77b4;" x="280.992402" xlink:href="#mf0ef78b418" y="109.058269"/>
     <use style="fill:#1f77b4;stroke:#1f77b4;" x="201.750548" xlink:href="#mf0ef78b418" y="247.428037"/>
     <use style="fill:#1f77b4;stroke:#1f77b4;" x="98.473307" xlink:href="#mf0ef78b418" y="114.511023"/>
     <use style="fill:#1f77b4;stroke:#1f77b4;" x="219.614474" xlink:href="#mf0ef78b418" y="155.465076"/>
     <use style="fill:#1f77b4;stroke:#1f77b4;" x="70.017429" xlink:href="#mf0ef78b418" y="71.031828"/>
     <use style="fill:#1f77b4;stroke:#1f77b4;" x="354.068042" xlink:href="#mf0ef78b418" y="161.571619"/>
     <use style="fill:#1f77b4;stroke:#1f77b4;" x="142.867137" xlink:href="#mf0ef78b418" y="155.009608"/>
     <use style="fill:#1f77b4;stroke:#1f77b4;" x="273.943911" xlink:href="#mf0ef78b418" y="136.975222"/>
     <use style="fill:#1f77b4;stroke:#1f77b4;" x="160.051457" xlink:href="#mf0ef78b418" y="108.353724"/>
     <use style="fill:#1f77b4;stroke:#1f77b4;" x="227.695487" xlink:href="#mf0ef78b418" y="151.528825"/>
     <use style="fill:#1f77b4;stroke:#1f77b4;" x="236.345017" xlink:href="#mf0ef78b418" y="176.669003"/>
     <use style="fill:#1f77b4;stroke:#1f77b4;" x="118.866879" xlink:href="#mf0ef78b418" y="87.663688"/>
    </g>
   </g>
   <g id="matplotlib.axis_1">
    <g id="xtick_1">
     <g id="line2d_1">
      <defs>
       <path d="M 0 0 
L 0 3.5 
" id="m9306f919c3" style="stroke:#000000;stroke-width:0.8;"/>
      </defs>
      <g>
       <use style="stroke:#000000;stroke-width:0.8;" x="58.85304" xlink:href="#m9306f919c3" y="273.312"/>
      </g>
     </g>
     <g id="text_1">
      <!-- 0 -->
      <defs>
       <path d="M 31.78125 66.40625 
Q 24.171875 66.40625 20.328125 58.90625 
Q 16.5 51.421875 16.5 36.375 
Q 16.5 21.390625 20.328125 13.890625 
Q 24.171875 6.390625 31.78125 6.390625 
Q 39.453125 6.390625 43.28125 13.890625 
Q 47.125 21.390625 47.125 36.375 
Q 47.125 51.421875 43.28125 58.90625 
Q 39.453125 66.40625 31.78125 66.40625 
z
M 31.78125 74.21875 
Q 44.046875 74.21875 50.515625 64.515625 
Q 56.984375 54.828125 56.984375 36.375 
Q 56.984375 17.96875 50.515625 8.265625 
Q 44.046875 -1.421875 31.78125 -1.421875 
Q 19.53125 -1.421875 13.0625 8.265625 
Q 6.59375 17.96875 6.59375 36.375 
Q 6.59375 54.828125 13.0625 64.515625 
Q 19.53125 74.21875 31.78125 74.21875 
z
" id="DejaVuSans-48"/>
      </defs>
      <g transform="translate(55.67179 287.910437)scale(0.1 -0.1)">
       <use xlink:href="#DejaVuSans-48"/>
      </g>
     </g>
    </g>
    <g id="xtick_2">
     <g id="line2d_2">
      <g>
       <use style="stroke:#000000;stroke-width:0.8;" x="123.783949" xlink:href="#m9306f919c3" y="273.312"/>
      </g>
     </g>
     <g id="text_2">
      <!-- 1 -->
      <defs>
       <path d="M 12.40625 8.296875 
L 28.515625 8.296875 
L 28.515625 63.921875 
L 10.984375 60.40625 
L 10.984375 69.390625 
L 28.421875 72.90625 
L 38.28125 72.90625 
L 38.28125 8.296875 
L 54.390625 8.296875 
L 54.390625 0 
L 12.40625 0 
z
" id="DejaVuSans-49"/>
      </defs>
      <g transform="translate(120.602699 287.910437)scale(0.1 -0.1)">
       <use xlink:href="#DejaVuSans-49"/>
      </g>
     </g>
    </g>
    <g id="xtick_3">
     <g id="line2d_3">
      <g>
       <use style="stroke:#000000;stroke-width:0.8;" x="188.714858" xlink:href="#m9306f919c3" y="273.312"/>
      </g>
     </g>
     <g id="text_3">
      <!-- 2 -->
      <defs>
       <path d="M 19.1875 8.296875 
L 53.609375 8.296875 
L 53.609375 0 
L 7.328125 0 
L 7.328125 8.296875 
Q 12.9375 14.109375 22.625 23.890625 
Q 32.328125 33.6875 34.8125 36.53125 
Q 39.546875 41.84375 41.421875 45.53125 
Q 43.3125 49.21875 43.3125 52.78125 
Q 43.3125 58.59375 39.234375 62.25 
Q 35.15625 65.921875 28.609375 65.921875 
Q 23.96875 65.921875 18.8125 64.3125 
Q 13.671875 62.703125 7.8125 59.421875 
L 7.8125 69.390625 
Q 13.765625 71.78125 18.9375 73 
Q 24.125 74.21875 28.421875 74.21875 
Q 39.75 74.21875 46.484375 68.546875 
Q 53.21875 62.890625 53.21875 53.421875 
Q 53.21875 48.921875 51.53125 44.890625 
Q 49.859375 40.875 45.40625 35.40625 
Q 44.1875 33.984375 37.640625 27.21875 
Q 31.109375 20.453125 19.1875 8.296875 
z
" id="DejaVuSans-50"/>
      </defs>
      <g transform="translate(185.533608 287.910437)scale(0.1 -0.1)">
       <use xlink:href="#DejaVuSans-50"/>
      </g>
     </g>
    </g>
    <g id="xtick_4">
     <g id="line2d_4">
      <g>
       <use style="stroke:#000000;stroke-width:0.8;" x="253.645767" xlink:href="#m9306f919c3" y="273.312"/>
      </g>
     </g>
     <g id="text_4">
      <!-- 3 -->
      <defs>
       <path d="M 40.578125 39.3125 
Q 47.65625 37.796875 51.625 33 
Q 55.609375 28.21875 55.609375 21.1875 
Q 55.609375 10.40625 48.1875 4.484375 
Q 40.765625 -1.421875 27.09375 -1.421875 
Q 22.515625 -1.421875 17.65625 -0.515625 
Q 12.796875 0.390625 7.625 2.203125 
L 7.625 11.71875 
Q 11.71875 9.328125 16.59375 8.109375 
Q 21.484375 6.890625 26.8125 6.890625 
Q 36.078125 6.890625 40.9375 10.546875 
Q 45.796875 14.203125 45.796875 21.1875 
Q 45.796875 27.640625 41.28125 31.265625 
Q 36.765625 34.90625 28.71875 34.90625 
L 20.21875 34.90625 
L 20.21875 43.015625 
L 29.109375 43.015625 
Q 36.375 43.015625 40.234375 45.921875 
Q 44.09375 48.828125 44.09375 54.296875 
Q 44.09375 59.90625 40.109375 62.90625 
Q 36.140625 65.921875 28.71875 65.921875 
Q 24.65625 65.921875 20.015625 65.03125 
Q 15.375 64.15625 9.8125 62.3125 
L 9.8125 71.09375 
Q 15.4375 72.65625 20.34375 73.4375 
Q 25.25 74.21875 29.59375 74.21875 
Q 40.828125 74.21875 47.359375 69.109375 
Q 53.90625 64.015625 53.90625 55.328125 
Q 53.90625 49.265625 50.4375 45.09375 
Q 46.96875 40.921875 40.578125 39.3125 
z
" id="DejaVuSans-51"/>
      </defs>
      <g transform="translate(250.464517 287.910437)scale(0.1 -0.1)">
       <use xlink:href="#DejaVuSans-51"/>
      </g>
     </g>
    </g>
    <g id="xtick_5">
     <g id="line2d_5">
      <g>
       <use style="stroke:#000000;stroke-width:0.8;" x="318.576676" xlink:href="#m9306f919c3" y="273.312"/>
      </g>
     </g>
     <g id="text_5">
      <!-- 4 -->
      <defs>
       <path d="M 37.796875 64.3125 
L 12.890625 25.390625 
L 37.796875 25.390625 
z
M 35.203125 72.90625 
L 47.609375 72.90625 
L 47.609375 25.390625 
L 58.015625 25.390625 
L 58.015625 17.1875 
L 47.609375 17.1875 
L 47.609375 0 
L 37.796875 0 
L 37.796875 17.1875 
L 4.890625 17.1875 
L 4.890625 26.703125 
z
" id="DejaVuSans-52"/>
      </defs>
      <g transform="translate(315.395426 287.910437)scale(0.1 -0.1)">
       <use xlink:href="#DejaVuSans-52"/>
      </g>
     </g>
    </g>
    <g id="xtick_6">
     <g id="line2d_6">
      <g>
       <use style="stroke:#000000;stroke-width:0.8;" x="383.507585" xlink:href="#m9306f919c3" y="273.312"/>
      </g>
     </g>
     <g id="text_6">
      <!-- 5 -->
      <defs>
       <path d="M 10.796875 72.90625 
L 49.515625 72.90625 
L 49.515625 64.59375 
L 19.828125 64.59375 
L 19.828125 46.734375 
Q 21.96875 47.46875 24.109375 47.828125 
Q 26.265625 48.1875 28.421875 48.1875 
Q 40.625 48.1875 47.75 41.5 
Q 54.890625 34.8125 54.890625 23.390625 
Q 54.890625 11.625 47.5625 5.09375 
Q 40.234375 -1.421875 26.90625 -1.421875 
Q 22.3125 -1.421875 17.546875 -0.640625 
Q 12.796875 0.140625 7.71875 1.703125 
L 7.71875 11.625 
Q 12.109375 9.234375 16.796875 8.0625 
Q 21.484375 6.890625 26.703125 6.890625 
Q 35.15625 6.890625 40.078125 11.328125 
Q 45.015625 15.765625 45.015625 23.390625 
Q 45.015625 31 40.078125 35.4375 
Q 35.15625 39.890625 26.703125 39.890625 
Q 22.75 39.890625 18.8125 39.015625 
Q 14.890625 38.140625 10.796875 36.28125 
z
" id="DejaVuSans-53"/>
      </defs>
      <g transform="translate(380.326335 287.910437)scale(0.1 -0.1)">
       <use xlink:href="#DejaVuSans-53"/>
      </g>
     </g>
    </g>
    <g id="text_7">
     <!-- x -->
     <defs>
      <path d="M 54.890625 54.6875 
L 35.109375 28.078125 
L 55.90625 0 
L 45.3125 0 
L 29.390625 21.484375 
L 13.484375 0 
L 2.875 0 
L 24.125 28.609375 
L 4.6875 54.6875 
L 15.28125 54.6875 
L 29.78125 35.203125 
L 44.28125 54.6875 
z
" id="DejaVuSans-120"/>
     </defs>
     <g transform="translate(218.220938 301.588562)scale(0.1 -0.1)">
      <use xlink:href="#DejaVuSans-120"/>
     </g>
    </g>
   </g>
   <g id="matplotlib.axis_2">
    <g id="ytick_1">
     <g id="line2d_7">
      <defs>
       <path d="M 0 0 
L -3.5 0 
" id="m3c2c1241c2" style="stroke:#000000;stroke-width:0.8;"/>
      </defs>
      <g>
       <use style="stroke:#000000;stroke-width:0.8;" x="42.620313" xlink:href="#m3c2c1241c2" y="251.847997"/>
      </g>
     </g>
     <g id="text_8">
      <!-- −2 -->
      <defs>
       <path d="M 10.59375 35.5 
L 73.1875 35.5 
L 73.1875 27.203125 
L 10.59375 27.203125 
z
" id="DejaVuSans-8722"/>
      </defs>
      <g transform="translate(20.878125 255.647216)scale(0.1 -0.1)">
       <use xlink:href="#DejaVuSans-8722"/>
       <use x="83.789062" xlink:href="#DejaVuSans-50"/>
      </g>
     </g>
    </g>
    <g id="ytick_2">
     <g id="line2d_8">
      <g>
       <use style="stroke:#000000;stroke-width:0.8;" x="42.620313" xlink:href="#m3c2c1241c2" y="214.138983"/>
      </g>
     </g>
     <g id="text_9">
      <!-- −1 -->
      <g transform="translate(20.878125 217.938202)scale(0.1 -0.1)">
       <use xlink:href="#DejaVuSans-8722"/>
       <use x="83.789062" xlink:href="#DejaVuSans-49"/>
      </g>
     </g>
    </g>
    <g id="ytick_3">
     <g id="line2d_9">
      <g>
       <use style="stroke:#000000;stroke-width:0.8;" x="42.620313" xlink:href="#m3c2c1241c2" y="176.429969"/>
      </g>
     </g>
     <g id="text_10">
      <!-- 0 -->
      <g transform="translate(29.257813 180.229188)scale(0.1 -0.1)">
       <use xlink:href="#DejaVuSans-48"/>
      </g>
     </g>
    </g>
    <g id="ytick_4">
     <g id="line2d_10">
      <g>
       <use style="stroke:#000000;stroke-width:0.8;" x="42.620313" xlink:href="#m3c2c1241c2" y="138.720955"/>
      </g>
     </g>
     <g id="text_11">
      <!-- 1 -->
      <g transform="translate(29.257813 142.520174)scale(0.1 -0.1)">
       <use xlink:href="#DejaVuSans-49"/>
      </g>
     </g>
    </g>
    <g id="ytick_5">
     <g id="line2d_11">
      <g>
       <use style="stroke:#000000;stroke-width:0.8;" x="42.620313" xlink:href="#m3c2c1241c2" y="101.011941"/>
      </g>
     </g>
     <g id="text_12">
      <!-- 2 -->
      <g transform="translate(29.257813 104.811159)scale(0.1 -0.1)">
       <use xlink:href="#DejaVuSans-50"/>
      </g>
     </g>
    </g>
    <g id="ytick_6">
     <g id="line2d_12">
      <g>
       <use style="stroke:#000000;stroke-width:0.8;" x="42.620313" xlink:href="#m3c2c1241c2" y="63.302926"/>
      </g>
     </g>
     <g id="text_13">
      <!-- 3 -->
      <g transform="translate(29.257813 67.102145)scale(0.1 -0.1)">
       <use xlink:href="#DejaVuSans-51"/>
      </g>
     </g>
    </g>
    <g id="ytick_7">
     <g id="line2d_13">
      <g>
       <use style="stroke:#000000;stroke-width:0.8;" x="42.620313" xlink:href="#m3c2c1241c2" y="25.593912"/>
      </g>
     </g>
     <g id="text_14">
      <!-- 4 -->
      <g transform="translate(29.257813 29.393131)scale(0.1 -0.1)">
       <use xlink:href="#DejaVuSans-52"/>
      </g>
     </g>
    </g>
    <g id="text_15">
     <!-- y -->
     <defs>
      <path d="M 32.171875 -5.078125 
Q 28.375 -14.84375 24.75 -17.8125 
Q 21.140625 -20.796875 15.09375 -20.796875 
L 7.90625 -20.796875 
L 7.90625 -13.28125 
L 13.1875 -13.28125 
Q 16.890625 -13.28125 18.9375 -11.515625 
Q 21 -9.765625 23.484375 -3.21875 
L 25.09375 0.875 
L 2.984375 54.6875 
L 12.5 54.6875 
L 29.59375 11.921875 
L 46.6875 54.6875 
L 56.203125 54.6875 
z
" id="DejaVuSans-121"/>
     </defs>
     <g transform="translate(14.798438 143.215375)rotate(-90)scale(0.1 -0.1)">
      <use xlink:href="#DejaVuSans-121"/>
     </g>
    </g>
   </g>
   <g id="line2d_14">
    <path clip-path="url(#pf1ac96de44)" d="M 58.85304 134.60282 
L 62.132379 133.054545 
L 65.411717 130.590545 
L 68.691056 127.3915 
L 71.970395 126.919048 
L 75.249734 124.261643 
L 78.529073 123.173152 
L 81.808412 120.878993 
L 85.087751 119.493246 
L 88.367089 116.841973 
L 91.646428 116.395222 
L 94.925767 115.630835 
L 98.205106 114.178315 
L 101.484445 113.208976 
L 104.763784 112.199245 
L 108.043122 112.405884 
L 111.322461 111.623436 
L 114.6018 111.692992 
L 117.881139 111.340638 
L 121.160478 113.196094 
L 124.439817 112.560286 
L 127.719155 113.780309 
L 130.998494 117.165683 
L 134.277833 117.426385 
L 137.557172 120.29526 
L 140.836511 121.222287 
L 144.11585 123.075476 
L 147.395189 125.49448 
L 150.674527 126.76422 
L 153.953866 129.676602 
L 157.233205 132.558179 
L 160.512544 134.698868 
L 163.791883 135.851015 
L 167.071222 140.038867 
L 170.35056 140.608766 
L 173.629899 144.086931 
L 176.909238 144.920534 
L 180.188577 146.810165 
L 183.467916 148.966248 
L 186.747255 150.768058 
L 190.026593 152.103743 
L 193.305932 152.89632 
L 196.585271 153.709775 
L 199.86461 154.745241 
L 203.143949 155.914172 
L 206.423288 157.196203 
L 209.702627 156.3921 
L 212.981965 156.319833 
L 216.261304 156.054568 
L 219.540643 155.969747 
L 222.819982 155.153144 
L 226.099321 152.812921 
L 229.37866 150.154774 
L 232.657998 150.045988 
L 235.937337 147.946527 
L 239.216676 147.053386 
L 242.496015 143.484792 
L 245.775354 141.191584 
L 249.054693 140.969833 
L 252.334032 136.937974 
L 255.61337 134.709803 
L 258.892709 132.186143 
L 262.172048 130.537804 
L 265.451387 126.64943 
L 268.730726 126.564933 
L 272.010065 124.084783 
L 275.289403 122.434356 
L 278.568742 121.48052 
L 281.848081 118.732853 
L 285.12742 117.569124 
L 288.406759 117.145454 
L 291.686098 115.179616 
L 294.965436 115.157118 
L 298.244775 114.433623 
L 301.524114 114.15866 
L 304.803453 113.789981 
L 308.082792 113.257339 
L 311.362131 114.275127 
L 314.64147 115.391501 
L 317.920808 115.905368 
L 321.200147 116.712544 
L 324.479486 118.303385 
L 327.758825 120.215459 
L 331.038164 121.113616 
L 334.317503 124.103926 
L 337.596841 124.865083 
L 340.87618 127.227906 
L 344.155519 129.421442 
L 347.434858 130.94079 
L 350.714197 133.284963 
L 353.993536 135.896647 
L 357.272874 137.35709 
L 360.552213 139.579481 
L 363.831552 143.529147 
L 367.110891 144.450937 
L 370.39023 146.710645 
L 373.669569 148.773344 
L 376.948908 149.730317 
L 380.228246 150.628695 
L 383.507585 152.284873 
" style="fill:none;stroke:#008000;stroke-linecap:square;stroke-width:1.5;"/>
   </g>
   <g id="patch_3">
    <path d="M 42.620313 273.312 
L 42.620313 7.2 
" style="fill:none;stroke:#000000;stroke-linecap:square;stroke-linejoin:miter;stroke-width:0.8;"/>
   </g>
   <g id="patch_4">
    <path d="M 399.740313 273.312 
L 399.740313 7.2 
" style="fill:none;stroke:#000000;stroke-linecap:square;stroke-linejoin:miter;stroke-width:0.8;"/>
   </g>
   <g id="patch_5">
    <path d="M 42.620313 273.312 
L 399.740313 273.312 
" style="fill:none;stroke:#000000;stroke-linecap:square;stroke-linejoin:miter;stroke-width:0.8;"/>
   </g>
   <g id="patch_6">
    <path d="M 42.620313 7.2 
L 399.740313 7.2 
" style="fill:none;stroke:#000000;stroke-linecap:square;stroke-linejoin:miter;stroke-width:0.8;"/>
   </g>
  </g>
 </g>
 <defs>
  <clipPath id="pf1ac96de44">
   <rect height="266.112" width="357.12" x="42.620313" y="7.2"/>
  </clipPath>
 </defs>
</svg>
