<?xml version="1.0" encoding="utf-8" standalone="no"?>
<!DOCTYPE svg PUBLIC "-//W3C//DTD SVG 1.1//EN"
  "http://www.w3.org/Graphics/SVG/1.1/DTD/svg11.dtd">
<svg xmlns:xlink="http://www.w3.org/1999/xlink" width="567.705527pt" height="567.178125pt" viewBox="0 0 567.705527 567.178125" xmlns="http://www.w3.org/2000/svg" version="1.1">
 <metadata>
  <rdf:RDF xmlns:dc="http://purl.org/dc/elements/1.1/" xmlns:cc="http://creativecommons.org/ns#" xmlns:rdf="http://www.w3.org/1999/02/22-rdf-syntax-ns#">
   <cc:Work>
    <dc:type rdf:resource="http://purl.org/dc/dcmitype/StillImage"/>
    <dc:date>2022-09-20T21:47:22.879970</dc:date>
    <dc:format>image/svg+xml</dc:format>
    <dc:creator>
     <cc:Agent>
      <dc:title>Matplotlib v3.5.1, https://matplotlib.org/</dc:title>
     </cc:Agent>
    </dc:creator>
   </cc:Work>
  </rdf:RDF>
 </metadata>
 <defs>
  <style type="text/css">*{stroke-linejoin: round; stroke-linecap: butt}</style>
 </defs>
 <g id="figure_1">
  <g id="patch_1">
   <path d="M 0 567.178125 
L 567.705527 567.178125 
L 567.705527 0 
L 0 0 
z
" style="fill: #ffffff"/>
  </g>
  <g id="axes_1">
   <g id="patch_2">
    <path d="M 39.69 525.85 
L 300.097764 525.85 
L 300.097764 266.525 
L 39.69 266.525 
z
" style="fill: #ffffff"/>
   </g>
   <g id="matplotlib.axis_1">
    <g id="xtick_1">
     <g id="line2d_1">
      <defs>
       <path id="mcc4e0b91ae" d="M 0 0 
L 0 -3.5 
" style="stroke: #000000; stroke-width: 0.8"/>
      </defs>
      <g>
       <use xlink:href="#mcc4e0b91ae" x="102.171537" y="525.85" style="stroke: #000000; stroke-width: 0.8"/>
      </g>
     </g>
     <g id="line2d_2">
      <defs>
       <path id="m0c840f0dac" d="M 0 0 
L 0 3.5 
" style="stroke: #000000; stroke-width: 0.8"/>
      </defs>
      <g>
       <use xlink:href="#m0c840f0dac" x="102.171537" y="266.525" style="stroke: #000000; stroke-width: 0.8"/>
      </g>
     </g>
     <g id="text_1">
      <!-- $\mathdefault{−10}$ -->
      <g transform="translate(92.711537 537.204687)scale(0.11 -0.11)">
       <defs>
        <path id="HelveticaNeue-Medium-2212" d="M 3533 1293 
L 3533 1946 
L 307 1946 
L 307 1293 
L 3533 1293 
z
" transform="scale(0.015625)"/>
        <path id="HelveticaNeue-Medium-31" d="M 339 3162 
L 1440 3162 
L 1440 0 
L 2240 0 
L 2240 4480 
L 1645 4480 
C 1536 3942 954 3731 339 3738 
L 339 3162 
z
" transform="scale(0.015625)"/>
        <path id="HelveticaNeue-Medium-30" d="M 1779 518 
C 1139 518 960 1306 960 2240 
C 960 3174 1139 3962 1779 3962 
C 2419 3962 2598 3174 2598 2240 
C 2598 1306 2419 518 1779 518 
z
M 1779 4570 
C 493 4570 230 3258 230 2240 
C 230 1222 493 -90 1779 -90 
C 3066 -90 3328 1222 3328 2240 
C 3328 3258 3066 4570 1779 4570 
z
" transform="scale(0.015625)"/>
       </defs>
       <use xlink:href="#HelveticaNeue-Medium-2212" transform="translate(0 0.59375)"/>
       <use xlink:href="#HelveticaNeue-Medium-31" transform="translate(59.999985 0.59375)"/>
       <use xlink:href="#HelveticaNeue-Medium-30" transform="translate(115.599976 0.59375)"/>
      </g>
     </g>
    </g>
    <g id="xtick_2">
     <g id="line2d_3">
      <g>
       <use xlink:href="#mcc4e0b91ae" x="165.858391" y="525.85" style="stroke: #000000; stroke-width: 0.8"/>
      </g>
     </g>
     <g id="line2d_4">
      <g>
       <use xlink:href="#m0c840f0dac" x="165.858391" y="266.525" style="stroke: #000000; stroke-width: 0.8"/>
      </g>
     </g>
     <g id="text_2">
      <!-- $\mathdefault{0}$ -->
      <g transform="translate(162.778391 537.204687)scale(0.11 -0.11)">
       <use xlink:href="#HelveticaNeue-Medium-30" transform="translate(0 0.59375)"/>
      </g>
     </g>
    </g>
    <g id="xtick_3">
     <g id="line2d_5">
      <g>
       <use xlink:href="#mcc4e0b91ae" x="229.545246" y="525.85" style="stroke: #000000; stroke-width: 0.8"/>
      </g>
     </g>
     <g id="line2d_6">
      <g>
       <use xlink:href="#m0c840f0dac" x="229.545246" y="266.525" style="stroke: #000000; stroke-width: 0.8"/>
      </g>
     </g>
     <g id="text_3">
      <!-- $\mathdefault{10}$ -->
      <g transform="translate(223.385246 537.204687)scale(0.11 -0.11)">
       <use xlink:href="#HelveticaNeue-Medium-31" transform="translate(0 0.59375)"/>
       <use xlink:href="#HelveticaNeue-Medium-30" transform="translate(55.599991 0.59375)"/>
      </g>
     </g>
    </g>
    <g id="text_4">
     <!-- mean -->
     <g transform="translate(152.002319 557.305)scale(0.14 -0.14)">
      <defs>
       <path id="HelveticaNeue-Medium-6d" d="M 384 0 
L 1114 0 
L 1114 1965 
C 1114 2515 1459 2822 1837 2822 
C 2278 2822 2419 2579 2419 2125 
L 2419 0 
L 3149 0 
L 3149 1939 
C 3149 2496 3360 2822 3853 2822 
C 4422 2822 4454 2458 4454 1933 
L 4454 0 
L 5184 0 
L 5184 2285 
C 5184 3091 4774 3398 4077 3398 
C 3597 3398 3283 3187 3040 2848 
C 2893 3226 2515 3398 2112 3398 
C 1587 3398 1312 3174 1094 2848 
L 1075 2848 
L 1075 3309 
L 384 3309 
L 384 0 
z
" transform="scale(0.015625)"/>
       <path id="HelveticaNeue-Medium-65" d="M 3386 1466 
C 3507 2458 2867 3398 1824 3398 
C 838 3398 224 2592 224 1651 
C 224 634 806 -90 1843 -90 
C 2566 -90 3181 314 3341 1037 
L 2650 1037 
C 2522 672 2266 486 1843 486 
C 1235 486 954 947 954 1466 
L 3386 1466 
z
M 954 1946 
C 973 2438 1318 2822 1824 2822 
C 2317 2822 2630 2406 2656 1946 
L 954 1946 
z
" transform="scale(0.015625)"/>
       <path id="HelveticaNeue-Medium-61" d="M 2426 1114 
C 2426 653 1926 486 1606 486 
C 1350 486 934 582 934 909 
C 934 1293 1216 1408 1530 1459 
C 1850 1517 2202 1510 2426 1658 
L 2426 1114 
z
M 3155 2438 
C 3155 3136 2477 3398 1830 3398 
C 1101 3398 378 3149 326 2298 
L 1056 2298 
C 1088 2656 1376 2822 1786 2822 
C 2080 2822 2470 2752 2470 2374 
C 2470 1946 2003 2003 1478 1907 
C 864 1837 205 1702 205 877 
C 205 230 742 -90 1338 -90 
C 1728 -90 2195 32 2483 314 
C 2541 13 2752 -90 3046 -90 
C 3168 -90 3398 -45 3507 -6 
L 3507 499 
C 3430 486 3373 486 3328 486 
C 3194 486 3155 557 3155 736 
L 3155 2438 
z
" transform="scale(0.015625)"/>
       <path id="HelveticaNeue-Medium-6e" d="M 384 0 
L 1114 0 
L 1114 1952 
C 1114 2438 1427 2822 1914 2822 
C 2342 2822 2547 2598 2560 2080 
L 2560 0 
L 3290 0 
L 3290 2272 
C 3290 3014 2835 3398 2118 3398 
C 1683 3398 1306 3174 1088 2810 
L 1075 2822 
L 1075 3309 
L 384 3309 
L 384 0 
z
" transform="scale(0.015625)"/>
      </defs>
      <use xlink:href="#HelveticaNeue-Medium-6d"/>
      <use xlink:href="#HelveticaNeue-Medium-65" x="86.999985"/>
      <use xlink:href="#HelveticaNeue-Medium-61" x="142.599976"/>
      <use xlink:href="#HelveticaNeue-Medium-6e" x="198.199966"/>
     </g>
    </g>
   </g>
   <g id="matplotlib.axis_2">
    <g id="ytick_1">
     <g id="line2d_7">
      <defs>
       <path id="m70e9252144" d="M 0 0 
L 3.5 0 
" style="stroke: #000000; stroke-width: 0.8"/>
      </defs>
      <g>
       <use xlink:href="#m70e9252144" x="39.69" y="510.655533" style="stroke: #000000; stroke-width: 0.8"/>
      </g>
     </g>
     <g id="line2d_8">
      <defs>
       <path id="medd484c764" d="M 0 0 
L -3.5 0 
" style="stroke: #000000; stroke-width: 0.8"/>
      </defs>
      <g>
       <use xlink:href="#medd484c764" x="300.097764" y="510.655533" style="stroke: #000000; stroke-width: 0.8"/>
      </g>
     </g>
     <g id="text_5">
      <!-- $\mathdefault{0}$ -->
      <g transform="translate(30.03 514.582876)scale(0.11 -0.11)">
       <use xlink:href="#HelveticaNeue-Medium-30" transform="translate(0 0.59375)"/>
      </g>
     </g>
    </g>
    <g id="ytick_2">
     <g id="line2d_9">
      <g>
       <use xlink:href="#m70e9252144" x="39.69" y="446.152926" style="stroke: #000000; stroke-width: 0.8"/>
      </g>
     </g>
     <g id="line2d_10">
      <g>
       <use xlink:href="#medd484c764" x="300.097764" y="446.152926" style="stroke: #000000; stroke-width: 0.8"/>
      </g>
     </g>
     <g id="text_6">
      <!-- $\mathdefault{10}$ -->
      <g transform="translate(23.87 450.08027)scale(0.11 -0.11)">
       <use xlink:href="#HelveticaNeue-Medium-31" transform="translate(0 0.59375)"/>
       <use xlink:href="#HelveticaNeue-Medium-30" transform="translate(55.599991 0.59375)"/>
      </g>
     </g>
    </g>
    <g id="ytick_3">
     <g id="line2d_11">
      <g>
       <use xlink:href="#m70e9252144" x="39.69" y="381.650319" style="stroke: #000000; stroke-width: 0.8"/>
      </g>
     </g>
     <g id="line2d_12">
      <g>
       <use xlink:href="#medd484c764" x="300.097764" y="381.650319" style="stroke: #000000; stroke-width: 0.8"/>
      </g>
     </g>
     <g id="text_7">
      <!-- $\mathdefault{20}$ -->
      <g transform="translate(23.87 385.577663)scale(0.11 -0.11)">
       <defs>
        <path id="HelveticaNeue-Medium-32" d="M 3309 653 
L 1126 653 
C 1254 1050 1798 1325 2317 1683 
C 2829 2042 3315 2483 3315 3194 
C 3315 3770 2970 4570 1875 4570 
C 877 4570 333 3834 333 2842 
L 1062 2842 
C 1082 3469 1254 3962 1830 3962 
C 2458 3962 2592 3488 2586 3168 
C 2573 2470 1818 2118 1235 1696 
C 634 1293 256 736 250 0 
L 3309 0 
L 3309 653 
z
" transform="scale(0.015625)"/>
       </defs>
       <use xlink:href="#HelveticaNeue-Medium-32" transform="translate(0 0.59375)"/>
       <use xlink:href="#HelveticaNeue-Medium-30" transform="translate(55.599991 0.59375)"/>
      </g>
     </g>
    </g>
    <g id="ytick_4">
     <g id="line2d_13">
      <g>
       <use xlink:href="#m70e9252144" x="39.69" y="317.147712" style="stroke: #000000; stroke-width: 0.8"/>
      </g>
     </g>
     <g id="line2d_14">
      <g>
       <use xlink:href="#medd484c764" x="300.097764" y="317.147712" style="stroke: #000000; stroke-width: 0.8"/>
      </g>
     </g>
     <g id="text_8">
      <!-- $\mathdefault{30}$ -->
      <g transform="translate(23.87 321.075056)scale(0.11 -0.11)">
       <defs>
        <path id="HelveticaNeue-Medium-33" d="M 1459 2080 
C 2035 2106 2630 2016 2630 1318 
C 2630 806 2259 518 1773 518 
C 1203 518 909 928 928 1472 
L 198 1472 
C 218 538 736 -90 1773 -90 
C 2630 -90 3360 435 3360 1280 
C 3360 1856 3053 2298 2547 2400 
L 2547 2413 
C 2976 2566 3181 2925 3181 3373 
C 3181 4166 2464 4570 1766 4570 
C 864 4570 320 3917 282 3046 
L 1011 3046 
C 998 3507 1248 3962 1754 3962 
C 2157 3962 2451 3706 2451 3328 
C 2451 2778 1946 2605 1459 2624 
L 1459 2080 
z
" transform="scale(0.015625)"/>
       </defs>
       <use xlink:href="#HelveticaNeue-Medium-33" transform="translate(0 0.59375)"/>
       <use xlink:href="#HelveticaNeue-Medium-30" transform="translate(55.599991 0.59375)"/>
      </g>
     </g>
    </g>
    <g id="text_9">
     <!-- scatter -->
     <g transform="translate(17.196875 418.621406)rotate(-90)scale(0.14 -0.14)">
      <defs>
       <path id="HelveticaNeue-Medium-73" d="M 205 1062 
C 218 282 838 -90 1670 -90 
C 2355 -90 3149 198 3149 986 
C 3149 1638 2611 1830 2080 1952 
C 1542 2074 1005 2125 1005 2483 
C 1005 2771 1395 2822 1606 2822 
C 1926 2822 2214 2726 2278 2381 
L 3040 2381 
C 2950 3117 2336 3398 1658 3398 
C 1056 3398 275 3174 275 2451 
C 275 1779 800 1587 1338 1472 
C 1869 1350 2400 1306 2419 922 
C 2438 544 1958 486 1683 486 
C 1293 486 973 640 934 1062 
L 205 1062 
z
" transform="scale(0.015625)"/>
       <path id="HelveticaNeue-Medium-63" d="M 3347 2202 
C 3277 3014 2624 3398 1856 3398 
C 768 3398 224 2618 224 1619 
C 224 646 794 -90 1830 -90 
C 2682 -90 3213 384 3347 1242 
L 2618 1242 
C 2547 768 2253 486 1830 486 
C 1197 486 954 1069 954 1619 
C 954 2624 1485 2822 1862 2822 
C 2266 2822 2560 2605 2618 2202 
L 3347 2202 
z
" transform="scale(0.015625)"/>
       <path id="HelveticaNeue-Medium-74" d="M 51 2765 
L 602 2765 
L 602 813 
C 614 262 755 -32 1517 -32 
C 1677 -32 1830 -6 1990 6 
L 1990 570 
C 1888 544 1786 544 1683 544 
C 1357 544 1331 698 1331 998 
L 1331 2765 
L 1990 2765 
L 1990 3309 
L 1331 3309 
L 1331 4301 
L 602 4301 
L 602 3309 
L 51 3309 
L 51 2765 
z
" transform="scale(0.015625)"/>
       <path id="HelveticaNeue-Medium-72" d="M 384 0 
L 1114 0 
L 1114 1574 
C 1114 2304 1510 2707 2010 2707 
C 2112 2707 2221 2688 2323 2675 
L 2323 3379 
C 2259 3386 2214 3398 2048 3398 
C 1600 3398 1165 3021 1082 2669 
L 1069 2669 
L 1069 3309 
L 384 3309 
L 384 0 
z
" transform="scale(0.015625)"/>
      </defs>
      <use xlink:href="#HelveticaNeue-Medium-73"/>
      <use xlink:href="#HelveticaNeue-Medium-63" x="51.899994"/>
      <use xlink:href="#HelveticaNeue-Medium-61" x="107.499985"/>
      <use xlink:href="#HelveticaNeue-Medium-74" x="163.099976"/>
      <use xlink:href="#HelveticaNeue-Medium-74" x="196.399963"/>
      <use xlink:href="#HelveticaNeue-Medium-65" x="229.699951"/>
      <use xlink:href="#HelveticaNeue-Medium-72" x="285.299942"/>
     </g>
    </g>
   </g>
   <g id="PathCollection_1">
    <path d="M 181.230124 498.565021 
L 182.455831 498.708553 
L 183.681538 498.82537 
L 184.907245 498.912484 
L 186.132952 498.963086 
L 187.358659 498.976147 
L 188.584366 498.955078 
L 189.810074 498.891511 
L 191.035781 498.786691 
L 192.261488 498.640481 
L 193.487195 498.421783 
L 193.569404 498.405979 
L 194.712902 498.187907 
L 195.938609 497.882606 
L 197.164317 497.524276 
L 198.111085 497.196691 
L 198.390024 497.095729 
L 199.615731 496.573335 
L 200.757042 495.987403 
L 200.841438 495.942702 
L 202.067145 495.246317 
L 202.74654 494.778115 
L 203.292852 494.379697 
L 204.323188 493.568827 
L 204.51856 493.401845 
L 205.669733 492.359539 
L 205.744267 492.287318 
L 206.816943 491.150251 
L 206.969974 490.969524 
L 207.778788 489.940963 
L 208.195681 489.35084 
L 208.613459 488.731675 
L 209.32672 487.522387 
L 209.421388 487.341995 
L 209.936828 486.313099 
L 210.467335 485.103811 
L 210.647095 484.65443 
L 210.95488 483.894523 
L 211.361479 482.685235 
L 211.70905 481.475947 
L 211.872803 480.838866 
L 212.020077 480.266659 
L 212.270991 479.057371 
L 212.477481 477.848083 
L 212.634307 476.638795 
L 212.767634 475.429506 
L 212.849544 474.220218 
L 212.899737 473.01093 
L 212.924796 471.801642 
L 212.938865 470.592354 
L 212.893705 469.383066 
L 212.839377 468.173778 
L 212.742044 466.96449 
L 212.621863 465.755202 
L 212.452331 464.545914 
L 212.268161 463.336626 
L 212.035101 462.127338 
L 211.872803 461.303732 
L 211.798756 460.91805 
L 211.520808 459.708762 
L 211.216633 458.499474 
L 210.875603 457.290186 
L 210.647095 456.561049 
L 210.499226 456.080898 
L 210.130534 454.87161 
L 209.684488 453.662322 
L 209.421388 452.975546 
L 209.220033 452.453034 
L 208.732478 451.243746 
L 208.195681 450.079663 
L 208.175312 450.034458 
L 207.614856 448.82517 
L 207.006141 447.615882 
L 206.969974 447.549628 
L 206.341983 446.406594 
L 205.744267 445.380808 
L 205.636337 445.197306 
L 204.898823 443.988018 
L 204.51856 443.410183 
L 204.092133 442.77873 
L 203.292852 441.630342 
L 203.249942 441.569442 
L 202.347997 440.360154 
L 202.067145 439.983871 
L 201.448281 439.150866 
L 200.841438 438.384853 
L 200.480915 437.941578 
L 199.615731 436.89373 
L 199.477512 436.73229 
L 198.390024 435.527369 
L 198.385932 435.523002 
L 197.250479 434.313714 
L 197.164317 434.226001 
L 196.028767 433.104426 
L 195.938609 433.01862 
L 194.712902 431.923968 
L 194.67999 431.895138 
L 193.487195 430.839757 
L 193.302796 430.68585 
L 192.261488 429.837703 
L 191.795856 429.476561 
L 191.035781 428.898893 
L 190.136107 428.267273 
L 189.810074 428.03696 
L 188.584366 427.209011 
L 188.351601 427.057985 
L 187.358659 426.378152 
L 186.514264 425.848697 
L 186.132952 425.613433 
L 184.907245 424.91997 
L 184.427052 424.639409 
L 183.681538 424.198577 
L 182.455831 423.510775 
L 182.290504 423.430121 
L 181.230124 422.920113 
L 180.004416 422.362157 
L 179.673546 422.220833 
L 178.778709 421.836729 
L 177.553002 421.367192 
L 176.585576 421.011545 
L 176.327295 420.911045 
L 175.101588 420.454969 
L 173.875881 420.018905 
L 173.185139 419.802257 
L 172.650173 419.629823 
L 171.424466 419.27516 
L 170.198759 418.923205 
L 169.030393 418.592969 
L 168.973052 418.57627 
L 167.747345 418.289502 
L 166.521638 418.059175 
L 165.29593 417.840408 
L 164.070223 417.646817 
L 162.844516 417.460965 
L 162.063349 417.383681 
L 161.618809 417.338068 
L 160.393102 417.234054 
L 159.167395 417.13282 
L 157.941687 417.064856 
L 156.71598 417.024809 
L 155.490273 416.999548 
L 154.264566 416.992043 
L 153.038859 416.992401 
L 151.813152 417.032295 
L 150.587444 417.088243 
L 149.361737 417.174702 
L 148.13603 417.318873 
L 147.577028 417.383681 
L 146.910323 417.459397 
L 145.684616 417.637637 
L 144.458909 417.848863 
L 143.233201 418.085365 
L 142.007494 418.377886 
L 141.249549 418.592969 
L 140.781787 418.725039 
L 139.55608 419.149935 
L 138.330373 419.583789 
L 137.822861 419.802257 
L 137.104666 420.125372 
L 135.878958 420.706209 
L 135.277523 421.011545 
L 134.653251 421.351533 
L 133.427544 422.137402 
L 133.297775 422.220833 
L 132.201837 422.929219 
L 131.557282 423.430121 
L 130.97613 423.937212 
L 130.235804 424.639409 
L 129.750423 425.135067 
L 129.113608 425.848697 
L 128.524715 426.581721 
L 128.157609 427.057985 
L 127.325563 428.267273 
L 127.299008 428.306873 
L 126.568506 429.476561 
L 126.073301 430.502147 
L 125.98858 430.68585 
L 125.468435 431.895138 
L 125.030608 433.104426 
L 124.847594 433.810333 
L 124.721593 434.313714 
L 124.452087 435.523002 
L 124.225816 436.73229 
L 124.055791 437.941578 
L 123.940585 439.150866 
L 123.878539 440.360154 
L 123.884213 441.569442 
L 123.915185 442.77873 
L 123.981914 443.988018 
L 124.10768 445.197306 
L 124.273663 446.406594 
L 124.473682 447.615882 
L 124.724718 448.82517 
L 124.847594 449.340615 
L 125.004146 450.034458 
L 125.295586 451.243746 
L 125.644459 452.453034 
L 126.015601 453.662322 
L 126.073301 453.823064 
L 126.43378 454.87161 
L 126.88979 456.080898 
L 127.299008 457.035056 
L 127.404963 457.290186 
L 127.934231 458.499474 
L 128.49208 459.708762 
L 128.524715 459.773289 
L 129.087693 460.91805 
L 129.711508 462.127338 
L 129.750423 462.195792 
L 130.366538 463.336626 
L 130.97613 464.391325 
L 131.063866 464.545914 
L 131.777461 465.755202 
L 132.201837 466.425481 
L 132.536955 466.96449 
L 133.349587 468.173778 
L 133.427544 468.284368 
L 134.197645 469.383066 
L 134.653251 470.008141 
L 135.075225 470.592354 
L 135.878958 471.64759 
L 135.993846 471.801642 
L 136.9642 473.01093 
L 137.104666 473.180108 
L 137.976101 474.220218 
L 138.330373 474.620501 
L 139.042805 475.429506 
L 139.55608 475.996589 
L 140.140908 476.638795 
L 140.781787 477.311227 
L 141.307958 477.848083 
L 142.007494 478.533039 
L 142.545468 479.057371 
L 143.233201 479.699434 
L 143.837206 480.266659 
L 144.458909 480.839727 
L 145.175357 481.475947 
L 145.684616 481.914186 
L 146.606267 482.685235 
L 146.910323 482.941632 
L 148.076743 483.894523 
L 148.13603 483.941514 
L 149.361737 484.901559 
L 149.62802 485.103811 
L 150.587444 485.83185 
L 151.243413 486.313099 
L 151.813152 486.72236 
L 152.985024 487.522387 
L 153.038859 487.55933 
L 154.264566 488.370415 
L 154.848896 488.731675 
L 155.490273 489.127512 
L 156.71598 489.849002 
L 156.87844 489.940963 
L 157.941687 490.554573 
L 159.052245 491.150251 
L 159.167395 491.213492 
L 160.393102 491.865492 
L 161.385917 492.359539 
L 161.618809 492.477804 
L 162.844516 493.075648 
L 163.939281 493.568827 
L 164.070223 493.629254 
L 165.29593 494.165793 
L 166.521638 494.657888 
L 166.835309 494.778115 
L 167.747345 495.135443 
L 168.973052 495.570968 
L 170.198759 495.981522 
L 170.217594 495.987403 
L 171.424466 496.382832 
L 172.650173 496.753558 
L 173.875881 497.095664 
L 174.271157 497.196691 
L 175.101588 497.415598 
L 176.327295 497.698149 
L 177.553002 497.957459 
L 178.778709 498.188464 
L 180.004416 498.386791 
L 180.144288 498.405979 
L 181.230124 498.565021 
z
" clip-path="url(#p330a210a1c)" style="fill: none; stroke: #e41a1c; stroke-width: 1.142857"/>
   </g>
   <g id="PathCollection_2">
    <path d="M 184.908473 504.866867 
L 186.321861 505.107771 
L 187.735249 505.302551 
L 189.148637 505.464052 
L 190.562025 505.59421 
L 191.975413 505.681338 
L 193.388801 505.731864 
L 194.802189 505.740268 
L 196.215576 505.700251 
L 197.628964 505.616614 
L 199.042352 505.478143 
L 200.45574 505.284057 
L 201.869128 505.033018 
L 203.26751 504.710376 
L 203.282516 504.706916 
L 204.695904 504.324139 
L 206.109292 503.845719 
L 206.948189 503.512996 
L 207.52268 503.274237 
L 208.936067 502.59944 
L 209.465481 502.315616 
L 210.349455 501.807927 
L 211.401226 501.118236 
L 211.762843 500.86241 
L 212.937952 499.920856 
L 213.176231 499.71149 
L 214.21538 498.723476 
L 214.589619 498.317228 
L 215.276347 497.526096 
L 216.003007 496.580091 
L 216.185486 496.328716 
L 216.948664 495.131336 
L 217.416395 494.286245 
L 217.60424 493.933956 
L 218.180266 492.736576 
L 218.645478 491.539196 
L 218.829783 490.971219 
L 219.03271 490.341816 
L 219.35424 489.144436 
L 219.617114 487.947056 
L 219.818571 486.749676 
L 219.975893 485.552296 
L 220.08566 484.354916 
L 220.136424 483.157536 
L 220.13493 481.960156 
L 220.120949 480.762776 
L 220.061967 479.565396 
L 219.976044 478.368016 
L 219.874817 477.170636 
L 219.720883 475.973256 
L 219.527124 474.775876 
L 219.31756 473.578496 
L 219.068703 472.381116 
L 218.829783 471.306921 
L 218.803418 471.183736 
L 218.533777 469.986356 
L 218.231919 468.788976 
L 217.902225 467.591596 
L 217.573317 466.394216 
L 217.416395 465.872271 
L 217.219688 465.196836 
L 216.828881 463.999456 
L 216.419586 462.802076 
L 216.003007 461.652039 
L 215.986327 461.604696 
L 215.548048 460.407316 
L 215.091214 459.209936 
L 214.641239 458.012556 
L 214.589619 457.893275 
L 214.131303 456.815176 
L 213.611561 455.617796 
L 213.176231 454.693206 
L 213.049564 454.420416 
L 212.483184 453.223036 
L 211.86178 452.025656 
L 211.762843 451.835531 
L 211.240065 450.828276 
L 210.595328 449.630896 
L 210.349455 449.201094 
L 209.906801 448.433516 
L 209.152903 447.236136 
L 208.936067 446.913041 
L 208.348251 446.038756 
L 207.52268 444.860516 
L 207.509077 444.841376 
L 206.641906 443.643996 
L 206.109292 442.881989 
L 205.79528 442.446616 
L 204.825552 441.249236 
L 204.695904 441.089726 
L 203.851305 440.051856 
L 203.282516 439.382607 
L 202.810211 438.854476 
L 201.869128 437.816169 
L 201.721648 437.657096 
L 200.564198 436.459716 
L 200.45574 436.349173 
L 199.35987 435.262336 
L 199.042352 434.953995 
L 198.063073 434.064956 
L 197.628964 433.674898 
L 196.704069 432.867576 
L 196.215576 432.471293 
L 195.155034 431.670196 
L 194.802189 431.400168 
L 193.527334 430.472817 
L 193.388801 430.372047 
L 191.975413 429.421996 
L 191.744316 429.275437 
L 190.562025 428.527156 
L 189.786874 428.078057 
L 189.148637 427.702537 
L 187.735249 426.912087 
L 187.675769 426.880677 
L 186.321861 426.147512 
L 185.347577 425.683297 
L 184.908473 425.479575 
L 183.495085 424.879356 
L 182.45582 424.485917 
L 182.081698 424.342864 
L 180.66831 423.853482 
L 179.254922 423.409165 
L 178.819013 423.288537 
L 177.841534 423.006008 
L 176.428146 422.678094 
L 175.014758 422.366608 
L 173.60137 422.100979 
L 173.53475 422.091157 
L 172.187982 421.891803 
L 170.774594 421.669179 
L 169.361207 421.536589 
L 167.947819 421.459699 
L 166.534431 421.394136 
L 165.121043 421.362788 
L 163.707655 421.392324 
L 162.294267 421.482406 
L 160.880879 421.612389 
L 159.467491 421.73838 
L 158.054103 421.912744 
L 156.914314 422.091157 
L 156.640716 422.134639 
L 155.227328 422.365497 
L 153.81394 422.658938 
L 152.400552 423.041855 
L 151.537612 423.288537 
L 150.987164 423.439719 
L 149.573776 423.85247 
L 148.160388 424.340733 
L 147.767069 424.485917 
L 146.747 424.859065 
L 145.333612 425.517639 
L 144.958696 425.683297 
L 143.920225 426.163021 
L 142.588962 426.880677 
L 142.506837 426.926626 
L 141.093449 427.791265 
L 140.66692 428.078057 
L 139.680061 428.746535 
L 138.92894 429.275437 
L 138.266673 429.748966 
L 137.383918 430.472817 
L 136.853285 430.9484 
L 136.074587 431.670196 
L 135.439897 432.294825 
L 134.910039 432.867576 
L 134.026509 433.958266 
L 133.945301 434.064956 
L 133.106166 435.262336 
L 132.613121 436.032326 
L 132.342017 436.459716 
L 131.688253 437.657096 
L 131.199734 438.771786 
L 131.164759 438.854476 
L 130.70018 440.051856 
L 130.27742 441.249236 
L 129.936347 442.446616 
L 129.786346 443.124074 
L 129.671848 443.643996 
L 129.472776 444.841376 
L 129.324999 446.038756 
L 129.212566 447.236136 
L 129.160251 448.433516 
L 129.165512 449.630896 
L 129.233572 450.828276 
L 129.33288 452.025656 
L 129.47541 453.223036 
L 129.670135 454.420416 
L 129.786346 455.05285 
L 129.884191 455.617796 
L 130.167015 456.815176 
L 130.462714 458.012556 
L 130.784975 459.209936 
L 131.169346 460.407316 
L 131.199734 460.492863 
L 131.575141 461.604696 
L 131.994872 462.802076 
L 132.474804 463.999456 
L 132.613121 464.329222 
L 132.964052 465.196836 
L 133.494456 466.394216 
L 134.026509 467.479484 
L 134.079329 467.591596 
L 134.668343 468.788976 
L 135.317123 469.986356 
L 135.439897 470.203977 
L 135.980259 471.183736 
L 136.696936 472.381116 
L 136.853285 472.620013 
L 137.462598 473.578496 
L 138.266673 474.75238 
L 138.282088 474.775876 
L 139.061147 475.973256 
L 139.680061 476.845878 
L 139.90961 477.170636 
L 140.805791 478.368016 
L 141.093449 478.737523 
L 141.736544 479.565396 
L 142.506837 480.469197 
L 142.756157 480.762776 
L 143.794168 481.960156 
L 143.920225 482.097347 
L 144.887329 483.157536 
L 145.333612 483.621066 
L 146.043959 484.354916 
L 146.747 485.056177 
L 147.254991 485.552296 
L 148.160388 486.401626 
L 148.536548 486.749676 
L 149.573776 487.67605 
L 149.878765 487.947056 
L 150.987164 488.895081 
L 151.28211 489.144436 
L 152.400552 490.071114 
L 152.73826 490.341816 
L 153.81394 491.157818 
L 154.333313 491.539196 
L 155.227328 492.194598 
L 155.998198 492.736576 
L 156.640716 493.17888 
L 157.784749 493.933956 
L 158.054103 494.112173 
L 159.467491 495.011921 
L 159.663434 495.131336 
L 160.880879 495.870117 
L 161.690821 496.328716 
L 162.294267 496.669916 
L 163.707655 497.434374 
L 163.883714 497.526096 
L 165.121043 498.176209 
L 166.232316 498.723476 
L 166.534431 498.873579 
L 167.947819 499.53743 
L 168.829191 499.920856 
L 169.361207 500.157235 
L 170.774594 500.753447 
L 171.704682 501.118236 
L 172.187982 501.311509 
L 173.60137 501.843743 
L 174.975604 502.315616 
L 175.014758 502.329374 
L 176.428146 502.796681 
L 177.841534 503.222463 
L 178.895442 503.512996 
L 179.254922 503.616194 
L 180.66831 503.986794 
L 182.081698 504.318376 
L 183.495085 504.607357 
L 184.07402 504.710376 
L 184.908473 504.866867 
z
" clip-path="url(#p330a210a1c)" style="fill: none; stroke: #377eb8; stroke-width: 1.142857"/>
   </g>
   <g id="PathCollection_3">
    <path d="M 174.041327 506.927186 
L 175.231282 507.109042 
L 176.421236 507.266856 
L 177.61119 507.418244 
L 178.801144 507.54839 
L 179.991098 507.661226 
L 181.181052 507.740874 
L 182.371007 507.804115 
L 183.560961 507.855363 
L 184.750915 507.891592 
L 185.940869 507.895875 
L 187.130823 507.883507 
L 188.320778 507.851903 
L 189.510732 507.801501 
L 190.700686 507.726944 
L 191.89064 507.603584 
L 193.080594 507.478329 
L 194.270548 507.326176 
L 195.460503 507.13453 
L 196.650457 506.910817 
L 196.856698 506.866639 
L 197.840411 506.656225 
L 199.030365 506.379659 
L 200.220319 506.052605 
L 201.366161 505.693352 
L 201.410274 505.679688 
L 202.600228 505.264643 
L 203.790182 504.790752 
L 204.374187 504.520064 
L 204.980136 504.230303 
L 206.17009 503.629706 
L 206.665429 503.346776 
L 207.360044 502.930713 
L 208.509144 502.173489 
L 208.549999 502.145258 
L 209.739953 501.296789 
L 210.116094 501.000201 
L 210.929907 500.323564 
L 211.49982 499.826913 
L 212.119861 499.238885 
L 212.685875 498.653626 
L 213.309815 497.94151 
L 213.688284 497.480338 
L 214.49977 496.42162 
L 214.587391 496.30705 
L 215.418333 495.133763 
L 215.689724 494.694455 
L 216.124294 493.960475 
L 216.722483 492.787187 
L 216.879678 492.436375 
L 217.244456 491.6139 
L 217.699639 490.440612 
L 218.069632 489.32143 
L 218.087624 489.267324 
L 218.435902 488.094037 
L 218.724467 486.920749 
L 218.960264 485.747461 
L 219.127697 484.574174 
L 219.259586 483.430934 
L 219.263109 483.400886 
L 219.341394 482.227598 
L 219.365598 481.054311 
L 219.355482 479.881023 
L 219.296615 478.707735 
L 219.259586 478.298439 
L 219.191778 477.534448 
L 219.050949 476.36116 
L 218.862367 475.187872 
L 218.62475 474.014585 
L 218.348752 472.841297 
L 218.069632 471.775982 
L 218.042462 471.668009 
L 217.700078 470.494721 
L 217.307112 469.321434 
L 216.913977 468.148146 
L 216.879678 468.058908 
L 216.462362 466.974858 
L 215.98396 465.801571 
L 215.689724 465.164054 
L 215.443929 464.628283 
L 214.875678 463.454995 
L 214.49977 462.738915 
L 214.261741 462.281708 
L 213.62481 461.10842 
L 213.309815 460.584191 
L 212.917709 459.935132 
L 212.184191 458.761845 
L 212.119861 458.664795 
L 211.392592 457.588557 
L 210.929907 456.924512 
L 210.57095 456.415269 
L 209.739953 455.301697 
L 209.693486 455.241982 
L 208.779713 454.068694 
L 208.549999 453.797646 
L 207.791835 452.895406 
L 207.360044 452.38336 
L 206.77998 451.722119 
L 206.17009 451.054124 
L 205.690232 450.548831 
L 204.980136 449.833571 
L 204.511593 449.375543 
L 203.790182 448.695936 
L 203.258585 448.202256 
L 202.600228 447.61434 
L 201.898101 447.028968 
L 201.410274 446.63094 
L 200.419359 445.85568 
L 200.220319 445.695741 
L 199.030365 444.813109 
L 198.84875 444.682393 
L 197.840411 443.958465 
L 197.171111 443.509105 
L 196.650457 443.147026 
L 195.460503 442.344919 
L 195.446334 442.335817 
L 194.270548 441.596999 
L 193.516251 441.16253 
L 193.080594 440.914208 
L 191.89064 440.252134 
L 191.403564 439.989242 
L 190.700686 439.588992 
L 189.510732 438.990676 
L 189.134796 438.815954 
L 188.320778 438.43395 
L 187.130823 437.895151 
L 186.538312 437.642667 
L 185.940869 437.389818 
L 184.750915 436.914572 
L 183.560961 436.483291 
L 183.517009 436.469379 
L 182.371007 436.084854 
L 181.181052 435.717647 
L 179.991098 435.402958 
L 179.605392 435.296091 
L 178.801144 435.073101 
L 177.61119 434.82336 
L 176.421236 434.538037 
L 175.231282 434.322652 
L 174.122582 434.122804 
L 174.041327 434.107101 
L 172.851373 433.939781 
L 171.661419 433.803035 
L 170.471465 433.652013 
L 169.281511 433.567328 
L 168.091556 433.481641 
L 166.901602 433.414562 
L 165.711648 433.403972 
L 164.521694 433.369955 
L 163.33174 433.410075 
L 162.141785 433.462873 
L 160.951831 433.5282 
L 159.761877 433.614453 
L 158.571923 433.733769 
L 157.381969 433.846738 
L 156.192015 434.012782 
L 155.561813 434.122804 
L 155.00206 434.214146 
L 153.812106 434.449374 
L 152.622152 434.673328 
L 151.432198 434.936288 
L 150.242244 435.21194 
L 149.938107 435.296091 
L 149.052289 435.549917 
L 147.862335 435.952732 
L 146.672381 436.373508 
L 146.438348 436.469379 
L 145.482427 436.859901 
L 144.292473 437.37872 
L 143.736667 437.642667 
L 143.102519 437.951147 
L 141.912564 438.563628 
L 141.459828 438.815954 
L 140.72261 439.225313 
L 139.532656 439.974402 
L 139.51152 439.989242 
L 138.342702 440.843612 
L 137.928659 441.16253 
L 137.152748 441.780749 
L 136.429494 442.335817 
L 135.962793 442.720343 
L 135.155391 443.509105 
L 134.772839 443.89802 
L 134.034827 444.682393 
L 133.582885 445.214784 
L 133.072791 445.85568 
L 132.392931 446.772093 
L 132.211006 447.028968 
L 131.434739 448.202256 
L 131.202977 448.595037 
L 130.755732 449.375543 
L 130.186371 450.548831 
L 130.013023 450.921475 
L 129.65162 451.722119 
L 129.183961 452.895406 
L 128.823068 453.925485 
L 128.772158 454.068694 
L 128.403391 455.241982 
L 128.09619 456.415269 
L 127.840028 457.588557 
L 127.633114 458.740189 
L 127.629378 458.761845 
L 127.474541 459.935132 
L 127.361242 461.10842 
L 127.309036 462.281708 
L 127.286051 463.454995 
L 127.308782 464.628283 
L 127.374108 465.801571 
L 127.487002 466.974858 
L 127.633114 468.098582 
L 127.639549 468.148146 
L 127.864195 469.321434 
L 128.090367 470.494721 
L 128.379605 471.668009 
L 128.707542 472.841297 
L 128.823068 473.180325 
L 129.093363 474.014585 
L 129.512587 475.187872 
L 129.975178 476.36116 
L 130.013023 476.448027 
L 130.481087 477.534448 
L 131.069173 478.707735 
L 131.202977 478.967609 
L 131.668693 479.881023 
L 132.346268 481.054311 
L 132.392931 481.130507 
L 133.052276 482.227598 
L 133.582885 483.011754 
L 133.846998 483.400886 
L 134.678669 484.574174 
L 134.772839 484.697572 
L 135.556672 485.747461 
L 135.962793 486.24041 
L 136.541735 486.920749 
L 137.152748 487.619555 
L 137.55968 488.094037 
L 138.342702 488.96553 
L 138.626712 489.267324 
L 139.532656 490.181328 
L 139.800204 490.440612 
L 140.72261 491.283084 
L 141.090721 491.6139 
L 141.912564 492.335806 
L 142.430418 492.787187 
L 143.102519 493.34828 
L 143.87145 493.960475 
L 144.292473 494.287648 
L 145.402243 495.133763 
L 145.482427 495.193084 
L 146.672381 496.041469 
L 147.062759 496.30705 
L 147.862335 496.844745 
L 148.83518 497.480338 
L 149.052289 497.620317 
L 150.242244 498.337686 
L 150.781902 498.653626 
L 151.432198 499.037079 
L 152.622152 499.723569 
L 152.817106 499.826913 
L 153.812106 500.353798 
L 155.00206 500.945406 
L 155.113529 501.000201 
L 156.192015 501.5277 
L 157.381969 502.060685 
L 157.645784 502.173489 
L 158.571923 502.576621 
L 159.761877 503.067557 
L 160.509906 503.346776 
L 160.951831 503.515264 
L 162.141785 503.944893 
L 163.33174 504.349701 
L 163.878921 504.520064 
L 164.521694 504.721963 
L 165.711648 505.078479 
L 166.901602 505.404353 
L 168.079739 505.693352 
L 168.091556 505.696414 
L 169.281511 505.989248 
L 170.471465 506.253297 
L 171.661419 506.497091 
L 172.851373 506.719933 
L 173.705097 506.866639 
L 174.041327 506.927186 
z
" clip-path="url(#p330a210a1c)" style="fill: none; stroke: #4daf4a; stroke-width: 1.142857"/>
   </g>
   <g id="patch_3">
    <path d="M 39.69 525.85 
L 39.69 266.525 
" style="fill: none; stroke: #000000; stroke-width: 0.8; stroke-linejoin: miter; stroke-linecap: square"/>
   </g>
   <g id="patch_4">
    <path d="M 300.097764 525.85 
L 300.097764 266.525 
" style="fill: none; stroke: #000000; stroke-width: 0.8; stroke-linejoin: miter; stroke-linecap: square"/>
   </g>
   <g id="patch_5">
    <path d="M 39.69 525.85 
L 300.097764 525.85 
" style="fill: none; stroke: #000000; stroke-width: 0.8; stroke-linejoin: miter; stroke-linecap: square"/>
   </g>
   <g id="patch_6">
    <path d="M 39.69 266.525 
L 300.097764 266.525 
" style="fill: none; stroke: #000000; stroke-width: 0.8; stroke-linejoin: miter; stroke-linecap: square"/>
   </g>
  </g>
  <g id="axes_2">
   <g id="patch_7">
    <path d="M 39.69 266.525 
L 300.097764 266.525 
L 300.097764 7.2 
L 39.69 7.2 
z
" style="fill: #ffffff"/>
   </g>
   <g id="matplotlib.axis_3">
    <g id="xtick_4">
     <g id="line2d_15">
      <g>
       <use xlink:href="#mcc4e0b91ae" x="102.171537" y="266.525" style="stroke: #000000; stroke-width: 0.8"/>
      </g>
     </g>
    </g>
    <g id="xtick_5">
     <g id="line2d_16">
      <g>
       <use xlink:href="#mcc4e0b91ae" x="165.858391" y="266.525" style="stroke: #000000; stroke-width: 0.8"/>
      </g>
     </g>
    </g>
    <g id="xtick_6">
     <g id="line2d_17">
      <g>
       <use xlink:href="#mcc4e0b91ae" x="229.545246" y="266.525" style="stroke: #000000; stroke-width: 0.8"/>
      </g>
     </g>
    </g>
   </g>
   <g id="matplotlib.axis_4">
    <g id="ytick_5"/>
    <g id="ytick_6"/>
    <g id="ytick_7"/>
    <g id="ytick_8"/>
    <g id="ytick_9"/>
   </g>
   <g id="line2d_18">
    <path d="M 39.590854 266.525 
L 46.312474 266.428829 
L 47.534587 266.182113 
L 50.284341 265.335803 
L 51.200925 265.430421 
L 52.728566 265.976483 
L 53.950679 266.333088 
L 55.172791 266.460304 
L 57.311489 266.443611 
L 58.533601 266.2347 
L 60.36677 265.617926 
L 61.283355 265.387521 
L 62.505468 265.384944 
L 65.866278 265.990607 
L 67.08839 265.857272 
L 68.310503 265.423052 
L 69.532616 264.763964 
L 70.754729 263.862422 
L 74.421067 261.099823 
L 75.032123 260.979514 
L 76.254236 261.18842 
L 76.865292 261.576836 
L 78.392933 262.441154 
L 79.615046 262.779694 
L 80.226102 262.780606 
L 80.837158 262.771786 
L 82.670328 262.233331 
L 84.503497 261.654084 
L 85.725609 261.379719 
L 87.25325 261.027982 
L 88.169835 260.216523 
L 88.780891 259.560958 
L 90.308532 257.340235 
L 93.363814 252.308459 
L 94.891455 250.815438 
L 95.196983 250.67197 
L 95.502511 250.675428 
L 96.113567 250.090968 
L 97.33568 248.98823 
L 98.252265 247.999467 
L 99.474377 246.794257 
L 100.085434 246.789083 
L 101.002018 247.666684 
L 102.224131 249.339435 
L 102.529659 249.404288 
L 103.140715 250.006723 
L 103.751772 250.338158 
L 104.0573 250.367757 
L 104.362828 250.270927 
L 104.973885 249.728247 
L 105.584941 248.821536 
L 106.501525 246.712938 
L 107.41811 243.410054 
L 108.029166 241.467583 
L 111.695504 228.627875 
L 112.001033 227.998183 
L 112.306561 227.108497 
L 112.917617 226.302433 
L 113.223145 226.051742 
L 113.528674 225.529037 
L 114.445258 225.958851 
L 115.972899 227.73266 
L 116.278427 228.032689 
L 116.583955 228.495799 
L 116.889484 228.542786 
L 117.50054 229.445332 
L 118.417124 230.948248 
L 119.639237 233.560624 
L 119.944765 234.688234 
L 120.555822 235.694187 
L 120.86135 235.610525 
L 121.166878 235.818809 
L 121.472406 235.735035 
L 122.083463 235.135605 
L 123.305575 231.245619 
L 123.916632 227.993939 
L 126.055329 216.35659 
L 127.277442 208.609145 
L 130.027195 192.760066 
L 130.638252 190.35106 
L 130.94378 189.398685 
L 131.249308 188.923636 
L 131.554836 188.123247 
L 131.860364 187.653341 
L 132.471421 186.471141 
L 134.915646 182.027668 
L 135.526702 181.750786 
L 135.832231 180.735141 
L 136.443287 180.146008 
L 136.748815 179.481739 
L 137.054343 179.41168 
L 137.970928 177.160269 
L 138.887512 173.158327 
L 139.804097 166.838332 
L 140.109625 164.590354 
L 141.331738 150.554583 
L 142.553851 134.678466 
L 143.775963 121.05365 
L 144.692548 115.893297 
L 144.998076 115.359427 
L 145.609132 116.321434 
L 146.220189 118.492259 
L 146.525717 120.487394 
L 146.831245 121.38545 
L 147.136773 123.680044 
L 147.74783 125.982171 
L 148.664414 128.235731 
L 149.580999 125.904659 
L 149.886527 124.80534 
L 151.10864 115.204523 
L 151.719696 110.068412 
L 152.941809 100.986253 
L 153.552865 97.169186 
L 153.858393 95.726866 
L 154.774978 89.012405 
L 155.386034 85.936221 
L 159.052372 60.535874 
L 159.3579 60.23752 
L 159.663429 59.132417 
L 160.274485 58.943737 
L 160.580013 60.32954 
L 160.885541 61.101742 
L 161.802126 67.006709 
L 162.413182 73.577423 
L 163.329767 80.824219 
L 163.940823 83.611704 
L 164.246351 83.978063 
L 164.551879 83.727887 
L 164.857408 82.116288 
L 165.468464 77.163948 
L 166.385048 65.777364 
L 168.218218 40.490803 
L 168.829274 35.12122 
L 169.44033 31.704724 
L 169.745858 30.560487 
L 170.051387 30.638361 
L 170.356915 30.847456 
L 170.662443 31.247615 
L 171.273499 33.145559 
L 172.190084 39.13446 
L 173.106668 45.887647 
L 173.412197 48.257985 
L 173.717725 49.672833 
L 174.023253 52.66012 
L 175.245366 60.111846 
L 175.550894 60.658887 
L 177.078535 70.191064 
L 177.689591 75.889091 
L 178.300647 81.946847 
L 179.217232 90.876117 
L 180.133817 97.144817 
L 180.744873 100.200552 
L 181.050401 100.580366 
L 181.355929 100.136678 
L 181.661457 99.433398 
L 181.966986 99.098195 
L 182.272514 98.230698 
L 182.88357 95.246722 
L 183.800155 89.126506 
L 184.411211 84.40827 
L 185.327796 75.66107 
L 186.24438 68.671064 
L 186.549908 66.105868 
L 187.160965 64.028989 
L 187.466493 63.893022 
L 187.772021 64.071826 
L 188.077549 65.223934 
L 188.994134 71.167019 
L 190.521775 84.330426 
L 191.132831 88.438405 
L 191.438359 89.660914 
L 192.354944 94.346999 
L 193.271528 96.911106 
L 193.577056 98.005889 
L 194.188113 98.790873 
L 195.410225 103.922492 
L 196.021282 108.334161 
L 197.243395 120.466287 
L 199.993148 154.376387 
L 200.909733 161.997933 
L 201.215261 164.168357 
L 202.131845 167.317737 
L 202.437374 167.48354 
L 202.742902 167.461652 
L 203.04843 167.116062 
L 203.353958 166.303861 
L 203.659486 165.946438 
L 204.270543 162.909147 
L 204.576071 161.616705 
L 205.187127 158.415959 
L 205.798184 156.073492 
L 206.103712 155.554128 
L 206.714768 155.570148 
L 207.020296 156.265812 
L 207.631353 160.126743 
L 208.547937 168.743246 
L 209.464522 179.610639 
L 210.686634 195.328059 
L 211.297691 201.813192 
L 211.908747 206.474729 
L 213.13086 211.887818 
L 214.964029 216.08583 
L 215.269557 216.136575 
L 215.575085 216.798442 
L 215.880613 217.145145 
L 216.49167 218.291838 
L 216.797198 218.516624 
L 217.102726 219.168596 
L 217.713782 219.732107 
L 218.019311 220.475935 
L 218.324839 220.834909 
L 218.630367 221.416548 
L 220.463536 226.747076 
L 221.380121 229.944251 
L 224.435402 244.121458 
L 225.351987 248.457334 
L 226.268571 251.66313 
L 227.185156 253.779629 
L 228.101741 255.142953 
L 229.018325 256.023303 
L 229.629381 256.490985 
L 230.851494 257.681871 
L 235.128889 260.553001 
L 236.045473 261.152148 
L 237.878642 261.861018 
L 238.795227 261.856447 
L 239.711811 261.469608 
L 240.322868 261.077486 
L 241.239452 260.394097 
L 242.461565 259.830801 
L 243.072621 260.020388 
L 243.989206 260.791458 
L 244.90579 262.287864 
L 245.516847 263.142871 
L 246.433431 264.250684 
L 247.350016 264.908125 
L 248.2666 265.223762 
L 249.488713 265.414508 
L 250.099769 265.382788 
L 251.62741 265.237197 
L 253.460579 265.273312 
L 257.432446 265.358227 
L 258.654558 265.7838 
L 260.487727 266.319885 
L 262.015368 266.490326 
L 265.376178 266.525 
L 271.181214 266.443986 
L 273.014383 266.162811 
L 274.542024 265.936556 
L 275.764136 265.998342 
L 279.430475 266.49865 
L 283.707869 266.525 
L 300.206391 266.485607 
L 300.206391 266.485607 
" clip-path="url(#pf5a6840bc3)" style="fill: none; stroke: #e41a1c; stroke-width: 1.142857"/>
   </g>
   <g id="line2d_19">
    <path d="M 39.5865 266.226156 
L 51.212756 265.949915 
L 60.725146 265.399857 
L 71.64678 264.205467 
L 74.112955 263.805306 
L 75.522198 263.599039 
L 79.045306 262.835404 
L 81.863792 262.147098 
L 85.3869 261.212015 
L 94.194669 258.35955 
L 98.070087 257.012625 
L 99.47933 256.382564 
L 101.945506 255.295724 
L 102.650127 254.903135 
L 104.05937 254.198677 
L 105.116302 253.560574 
L 106.525546 252.758607 
L 107.582478 251.984402 
L 108.287099 251.551495 
L 109.696342 250.453739 
L 110.753275 249.542032 
L 111.457896 248.980172 
L 114.981004 245.147132 
L 117.79949 241.273238 
L 119.913355 237.839445 
L 120.617976 236.547825 
L 122.731841 232.240055 
L 124.141084 229.030441 
L 125.550327 225.55693 
L 126.607259 222.811635 
L 128.721124 216.716276 
L 131.891921 206.518735 
L 136.824271 187.606295 
L 142.813554 160.9109 
L 157.258296 92.965355 
L 160.781403 77.60514 
L 161.486025 74.839935 
L 162.190646 71.921827 
L 164.656822 62.195489 
L 167.122997 53.338401 
L 168.53224 48.760485 
L 171.350726 40.957501 
L 172.055348 39.520255 
L 174.169212 35.293456 
L 174.873834 34.129965 
L 175.930766 32.50086 
L 176.635388 31.702416 
L 178.044631 30.850632 
L 178.396941 30.901756 
L 179.101563 30.560487 
L 180.158495 30.796471 
L 181.567738 31.792523 
L 182.27236 32.020872 
L 183.329292 33.284246 
L 184.033914 34.392637 
L 184.386224 35.224761 
L 184.738535 35.610972 
L 186.147778 38.732674 
L 189.318575 47.652949 
L 191.43244 55.025027 
L 195.660169 73.55071 
L 201.297141 103.486606 
L 203.763316 118.227857 
L 209.400289 152.579456 
L 214.68495 182.845362 
L 217.151126 195.784898 
L 221.378855 215.118882 
L 223.492719 223.531981 
L 225.606584 230.91846 
L 226.663516 234.003567 
L 228.072759 238.045463 
L 230.891245 244.93575 
L 232.652799 248.424539 
L 234.766664 252.117692 
L 235.823596 253.709813 
L 237.232839 255.367195 
L 238.642082 256.920226 
L 240.755947 258.9519 
L 241.812879 259.847374 
L 244.279054 261.41328 
L 248.506784 263.400942 
L 249.563716 263.726716 
L 252.734513 264.532736 
L 255.200688 264.925858 
L 258.371485 265.326378 
L 261.894593 265.619484 
L 270.702362 265.940664 
L 300.296466 266.313431 
L 300.296466 266.313431 
" clip-path="url(#pf5a6840bc3)" style="fill: none; stroke: #377eb8; stroke-width: 1.142857"/>
   </g>
   <g id="line2d_20">
    <path d="M 39.471816 266.334121 
L 54.006008 266.24471 
L 61.421411 266.055613 
L 67.65035 265.755188 
L 73.582673 265.205463 
L 77.438683 264.637638 
L 80.108228 264.127934 
L 86.040551 262.582512 
L 89.006713 261.48337 
L 93.455955 259.481884 
L 95.235652 258.396076 
L 96.718733 257.455055 
L 98.795046 255.951047 
L 100.278126 254.560157 
L 101.761207 253.265616 
L 105.023985 249.690124 
L 108.583378 245.205611 
L 110.363075 242.447231 
L 112.142772 239.217185 
L 116.592014 229.889388 
L 117.481863 227.83599 
L 119.854792 221.653461 
L 121.634489 216.59897 
L 126.083731 202.404244 
L 128.753276 192.767616 
L 130.236357 187.056595 
L 134.388983 169.768056 
L 137.651761 155.231854 
L 142.101003 134.379864 
L 152.779184 83.170336 
L 156.635194 67.155222 
L 157.228426 65.017503 
L 158.118275 61.579436 
L 160.194588 53.85943 
L 162.567517 46.926071 
L 164.347214 42.316296 
L 167.313375 36.475198 
L 167.609991 36.160785 
L 169.389688 33.233466 
L 170.279537 32.397557 
L 170.576153 32.100784 
L 170.872769 32.00448 
L 171.466001 32.109601 
L 171.762617 31.927285 
L 172.059234 31.486311 
L 173.542314 30.620863 
L 174.135547 30.60239 
L 174.432163 30.722925 
L 174.728779 30.715456 
L 175.025395 30.838562 
L 175.322011 30.786654 
L 176.21186 31.099423 
L 176.805092 31.028261 
L 177.398324 31.339662 
L 178.881405 32.61364 
L 179.474637 33.24572 
L 179.771253 33.671087 
L 180.067869 33.807333 
L 180.364486 34.12808 
L 183.034031 39.204425 
L 183.923879 41.274741 
L 185.40696 45.034803 
L 186.296809 47.236506 
L 189.26297 56.039286 
L 193.712212 71.806994 
L 199.941151 98.047017 
L 204.983626 122.226763 
L 212.399029 160.478209 
L 215.661807 177.649755 
L 219.221201 195.526965 
L 220.704281 202.477959 
L 224.560291 218.752692 
L 226.636604 226.243051 
L 227.526453 229.14197 
L 228.416301 232.011147 
L 230.78923 238.845685 
L 231.975695 241.868779 
L 235.238473 248.330622 
L 237.314786 251.760368 
L 238.50125 253.460882 
L 239.094482 254.128869 
L 240.874179 256.188825 
L 242.35726 257.597689 
L 244.730189 259.519882 
L 246.806502 260.794533 
L 250.365896 262.512051 
L 253.035441 263.44916 
L 256.891451 264.371864 
L 260.154229 264.960676 
L 269.052713 265.833888 
L 274.391804 266.145461 
L 284.476753 266.434285 
L 299.010944 266.521233 
L 300.197408 266.52214 
L 300.197408 266.52214 
" clip-path="url(#pf5a6840bc3)" style="fill: none; stroke: #4daf4a; stroke-width: 1.142857"/>
   </g>
   <g id="patch_8">
    <path d="M 39.69 266.525 
L 39.69 7.2 
" style="fill: none; stroke: #000000; stroke-width: 0.8; stroke-linejoin: miter; stroke-linecap: square"/>
   </g>
   <g id="patch_9">
    <path d="M 300.097764 266.525 
L 300.097764 7.2 
" style="fill: none; stroke: #000000; stroke-width: 0.8; stroke-linejoin: miter; stroke-linecap: square"/>
   </g>
   <g id="patch_10">
    <path d="M 39.69 266.525 
L 300.097764 266.525 
" style="fill: none; stroke: #000000; stroke-width: 0.8; stroke-linejoin: miter; stroke-linecap: square"/>
   </g>
   <g id="patch_11">
    <path d="M 39.69 7.2 
L 300.097764 7.2 
" style="fill: none; stroke: #000000; stroke-width: 0.8; stroke-linejoin: miter; stroke-linecap: square"/>
   </g>
  </g>
  <g id="axes_3">
   <g id="patch_12">
    <path d="M 300.097764 525.85 
L 560.505527 525.85 
L 560.505527 266.525 
L 300.097764 266.525 
z
" style="fill: #ffffff"/>
   </g>
   <g id="matplotlib.axis_5">
    <g id="xtick_7">
     <g id="line2d_21">
      <g>
       <use xlink:href="#mcc4e0b91ae" x="315.355673" y="525.85" style="stroke: #000000; stroke-width: 0.8"/>
      </g>
     </g>
     <g id="text_10">
      <!-- $\mathdefault{0}$ -->
      <g transform="translate(312.275673 537.204687)scale(0.11 -0.11)">
       <use xlink:href="#HelveticaNeue-Medium-30" transform="translate(0 0.59375)"/>
      </g>
     </g>
    </g>
    <g id="xtick_8">
     <g id="line2d_22">
      <g>
       <use xlink:href="#mcc4e0b91ae" x="380.127598" y="525.85" style="stroke: #000000; stroke-width: 0.8"/>
      </g>
     </g>
     <g id="text_11">
      <!-- $\mathdefault{10}$ -->
      <g transform="translate(373.967598 537.204687)scale(0.11 -0.11)">
       <use xlink:href="#HelveticaNeue-Medium-31" transform="translate(0 0.59375)"/>
       <use xlink:href="#HelveticaNeue-Medium-30" transform="translate(55.599991 0.59375)"/>
      </g>
     </g>
    </g>
    <g id="xtick_9">
     <g id="line2d_23">
      <g>
       <use xlink:href="#mcc4e0b91ae" x="444.899524" y="525.85" style="stroke: #000000; stroke-width: 0.8"/>
      </g>
     </g>
     <g id="text_12">
      <!-- $\mathdefault{20}$ -->
      <g transform="translate(438.739524 537.204687)scale(0.11 -0.11)">
       <use xlink:href="#HelveticaNeue-Medium-32" transform="translate(0 0.59375)"/>
       <use xlink:href="#HelveticaNeue-Medium-30" transform="translate(55.599991 0.59375)"/>
      </g>
     </g>
    </g>
    <g id="xtick_10">
     <g id="line2d_24">
      <g>
       <use xlink:href="#mcc4e0b91ae" x="509.671449" y="525.85" style="stroke: #000000; stroke-width: 0.8"/>
      </g>
     </g>
     <g id="text_13">
      <!-- $\mathdefault{30}$ -->
      <g transform="translate(503.511449 537.204687)scale(0.11 -0.11)">
       <use xlink:href="#HelveticaNeue-Medium-33" transform="translate(0 0.59375)"/>
       <use xlink:href="#HelveticaNeue-Medium-30" transform="translate(55.599991 0.59375)"/>
      </g>
     </g>
    </g>
    <g id="text_14">
     <!-- scatter -->
     <g transform="translate(407.867739 557.305)scale(0.14 -0.14)">
      <use xlink:href="#HelveticaNeue-Medium-73"/>
      <use xlink:href="#HelveticaNeue-Medium-63" x="51.899994"/>
      <use xlink:href="#HelveticaNeue-Medium-61" x="107.499985"/>
      <use xlink:href="#HelveticaNeue-Medium-74" x="163.099976"/>
      <use xlink:href="#HelveticaNeue-Medium-74" x="196.399963"/>
      <use xlink:href="#HelveticaNeue-Medium-65" x="229.699951"/>
      <use xlink:href="#HelveticaNeue-Medium-72" x="285.299942"/>
     </g>
    </g>
   </g>
   <g id="matplotlib.axis_6">
    <g id="ytick_10"/>
    <g id="ytick_11"/>
    <g id="ytick_12"/>
    <g id="ytick_13"/>
    <g id="ytick_14"/>
   </g>
   <g id="line2d_25">
    <path d="M 299.96165 525.85 
L 314.188269 525.741178 
L 315.399045 525.492988 
L 316.307127 525.119649 
L 317.215209 524.43749 
L 318.123291 523.28816 
L 319.031373 521.509765 
L 319.939455 518.964127 
L 320.847537 515.636025 
L 321.755619 511.240225 
L 322.966395 504.286522 
L 326.901418 479.139883 
L 329.32297 467.727709 
L 332.652604 452.798398 
L 333.86338 445.478922 
L 334.468768 441.483233 
L 336.284932 425.883038 
L 340.219955 387.932569 
L 342.944201 368.875709 
L 343.852283 363.836664 
L 345.668447 354.163911 
L 346.879223 347.099166 
L 352.327715 312.633763 
L 352.933103 309.999025 
L 353.538491 306.828881 
L 354.749267 301.065252 
L 355.354655 298.788027 
L 356.262738 295.303845 
L 356.868126 293.389218 
L 357.17082 292.958486 
L 358.381596 290.528783 
L 358.68429 290.578161 
L 358.986984 290.085097 
L 359.289678 289.885487 
L 359.592372 290.24849 
L 360.19776 289.903828 
L 360.803148 290.939506 
L 361.105842 291.067832 
L 361.408536 291.623468 
L 362.922006 295.562324 
L 363.2247 295.942316 
L 363.830088 297.675695 
L 364.132782 298.791467 
L 364.435476 299.176063 
L 366.857028 306.194298 
L 367.159722 306.551197 
L 368.067804 308.393065 
L 368.975886 311.37865 
L 369.883968 313.007019 
L 370.186662 313.569022 
L 374.424379 327.703763 
L 376.543237 336.523143 
L 377.148625 339.319783 
L 377.754013 342.001805 
L 380.780953 357.628976 
L 381.386341 360.431847 
L 381.991729 364.139545 
L 383.505199 373.174819 
L 384.413281 378.716254 
L 385.018669 382.162346 
L 385.926751 387.741186 
L 386.53214 391.177176 
L 387.742916 397.957628 
L 388.650998 402.905996 
L 388.953692 403.610763 
L 389.55908 406.379954 
L 389.861774 406.859492 
L 390.769856 410.021194 
L 391.375244 411.348874 
L 391.980632 412.789998 
L 392.283326 412.910439 
L 393.191408 414.401704 
L 393.796796 415.393776 
L 394.09949 415.861592 
L 394.402184 415.975389 
L 394.704878 416.237922 
L 395.007572 416.823908 
L 395.310266 416.992683 
L 395.915654 418.115758 
L 396.218348 418.266541 
L 397.429124 421.356684 
L 397.731818 422.281642 
L 398.034512 422.790255 
L 399.850676 429.0088 
L 404.693781 452.91675 
L 406.207251 459.166519 
L 407.418027 463.034369 
L 407.720721 463.628863 
L 408.326109 465.376486 
L 409.536885 467.686029 
L 412.563825 471.713782 
L 412.866519 472.620221 
L 413.471907 473.394943 
L 413.774601 474.266282 
L 414.985377 475.91708 
L 416.498847 478.476267 
L 417.104236 479.392288 
L 418.617706 481.707149 
L 418.9204 481.853107 
L 419.223094 482.312027 
L 419.525788 482.493622 
L 420.736564 483.711186 
L 421.039258 483.999246 
L 421.341952 483.999761 
L 422.250034 484.69985 
L 422.552728 484.757205 
L 422.855422 485.239845 
L 423.158116 485.363401 
L 423.763504 485.932715 
L 424.368892 486.256567 
L 425.276974 487.246015 
L 426.185056 488.636969 
L 427.698526 491.197714 
L 428.606608 492.848363 
L 429.211996 494.008261 
L 430.422772 495.742598 
L 431.330854 497.070443 
L 431.936242 497.83555 
L 433.449713 499.487966 
L 434.055101 500.073377 
L 435.265877 501.367049 
L 435.568571 501.530908 
L 437.687429 503.942082 
L 438.292817 504.761685 
L 439.200899 506.175246 
L 439.806287 507.040339 
L 442.833227 510.963909 
L 444.346697 512.454275 
L 444.952085 512.758508 
L 445.557473 513.279673 
L 447.373637 514.180034 
L 448.28172 514.538577 
L 450.400578 515.260118 
L 451.005966 515.415664 
L 451.30866 515.554508 
L 451.914048 515.65021 
L 453.730212 516.38518 
L 460.086786 519.884072 
L 460.994868 520.464915 
L 462.811032 521.338402 
L 463.719115 521.827452 
L 465.837973 522.652793 
L 467.654137 523.024283 
L 470.681077 523.32136 
L 474.010711 523.431123 
L 474.918793 523.555481 
L 478.248427 523.806119 
L 479.459204 523.789938 
L 481.578062 523.5339 
L 485.21039 523.016761 
L 487.631942 523.212088 
L 489.7508 523.747008 
L 492.172352 524.303316 
L 494.593905 524.615547 
L 498.831621 524.886173 
L 501.555867 524.870915 
L 505.188195 524.728085 
L 510.333994 524.394507 
L 512.150158 524.558793 
L 518.809426 525.29072 
L 525.166001 525.343326 
L 528.495635 525.518423 
L 531.825269 525.660466 
L 534.852209 525.637108 
L 537.576455 525.373662 
L 541.511478 524.907138 
L 543.327642 524.980207 
L 549.684216 525.637106 
L 553.316544 525.610357 
L 557.554261 525.54494 
L 560.581201 525.693338 
L 560.581201 525.693338 
" clip-path="url(#p2dcff4041c)" style="fill: none; stroke: #e41a1c; stroke-width: 1.142857"/>
   </g>
   <g id="line2d_26">
    <path d="M 299.915541 525.85 
L 316.999202 525.742383 
L 317.598629 525.477322 
L 317.898342 525.202893 
L 318.198055 524.761589 
L 318.497769 524.091128 
L 318.797482 523.134327 
L 319.097195 521.763856 
L 319.696622 517.410727 
L 320.296049 509.724642 
L 320.895475 498.413563 
L 321.494902 482.750281 
L 322.693755 442.239019 
L 323.592896 412.168418 
L 324.192322 396.988418 
L 324.791749 386.846134 
L 325.091462 383.302256 
L 325.391176 381.417469 
L 325.690889 380.293234 
L 325.990602 380.126845 
L 326.590029 381.803535 
L 327.788882 387.378881 
L 328.088596 388.176107 
L 328.688022 388.518484 
L 329.287449 388.452591 
L 330.486303 379.995286 
L 331.085729 374.164957 
L 332.284583 357.933364 
L 333.483436 341.728243 
L 334.082863 335.741229 
L 334.682289 330.480107 
L 335.581429 325.597723 
L 335.881143 324.619772 
L 336.480569 322.373871 
L 337.979136 317.095344 
L 339.777416 309.517671 
L 340.07713 309.096117 
L 340.376843 308.868246 
L 340.676556 308.808699 
L 340.97627 309.344146 
L 341.575696 311.457049 
L 342.175123 313.031493 
L 343.074263 312.65278 
L 343.67369 310.619106 
L 344.273117 308.305083 
L 344.872543 303.325441 
L 346.071397 294.786418 
L 346.37111 293.663283 
L 346.970537 290.921461 
L 347.569963 290.070996 
L 347.869677 289.885487 
L 348.16939 290.46984 
L 348.469103 290.651551 
L 349.06853 291.600074 
L 349.96767 295.29439 
L 350.267384 296.572391 
L 350.567097 297.151876 
L 351.166524 299.933095 
L 351.466237 301.52882 
L 351.76595 302.492694 
L 352.365377 305.66121 
L 352.964804 307.118165 
L 353.56423 307.75862 
L 353.863944 307.856635 
L 354.163657 307.659996 
L 355.062797 304.102942 
L 355.36251 303.944037 
L 356.861077 296.128638 
L 357.160791 295.13164 
L 357.460504 295.482608 
L 357.760217 295.292732 
L 358.059931 295.639499 
L 358.359644 295.586681 
L 358.959071 296.577393 
L 359.258784 297.703595 
L 359.858211 301.092015 
L 360.457637 305.06585 
L 361.356777 309.000787 
L 361.956204 310.861772 
L 362.255917 310.739146 
L 362.555631 310.128994 
L 363.155057 308.491233 
L 363.454771 308.338201 
L 364.353911 304.749378 
L 364.653624 304.455149 
L 364.953338 303.709897 
L 365.552764 301.53855 
L 365.852478 300.949772 
L 366.152191 300.989459 
L 366.751618 301.410868 
L 367.351044 302.907369 
L 367.650758 304.275251 
L 367.950471 304.83898 
L 368.849611 309.980382 
L 369.748751 315.379731 
L 370.348178 318.568656 
L 371.846745 327.912336 
L 372.146458 328.555533 
L 372.446171 329.951211 
L 372.745885 330.651134 
L 373.345311 333.009922 
L 374.544165 337.989665 
L 375.143591 339.471081 
L 375.743018 341.185146 
L 376.342445 341.345272 
L 377.541298 342.229207 
L 377.841012 342.786097 
L 378.740152 347.162084 
L 379.339578 350.746858 
L 380.238718 359.575645 
L 382.036998 374.866117 
L 382.636425 377.821314 
L 382.936138 379.376468 
L 383.235852 380.072206 
L 383.535565 380.296468 
L 383.835279 380.323075 
L 384.134992 380.635918 
L 384.434705 380.208341 
L 384.734419 379.570278 
L 385.034132 379.336702 
L 385.333845 378.216494 
L 385.633559 377.844218 
L 387.132125 375.176097 
L 387.431839 375.39841 
L 388.031265 376.936301 
L 388.630692 379.371107 
L 389.829545 387.522264 
L 391.627826 401.641802 
L 392.526966 407.634175 
L 395.524099 423.972602 
L 395.823812 424.69684 
L 397.022666 432.830613 
L 397.921806 439.438064 
L 398.221519 441.769915 
L 400.019799 449.904125 
L 402.117793 455.174944 
L 403.016933 458.948727 
L 405.41464 473.503373 
L 406.014066 475.772338 
L 406.613493 477.207721 
L 407.812346 479.18776 
L 408.11206 479.258157 
L 408.411773 479.042442 
L 408.711486 479.484572 
L 409.0112 479.388106 
L 409.310913 479.517176 
L 409.610626 479.258945 
L 409.91034 479.365196 
L 410.80948 480.080853 
L 411.109193 480.208553 
L 411.408907 480.716697 
L 411.70862 480.789063 
L 412.308047 480.509423 
L 413.207187 480.259106 
L 413.5069 479.966118 
L 413.806613 479.845851 
L 414.40604 480.45456 
L 414.705753 480.465828 
L 415.604893 481.487655 
L 416.20432 482.844409 
L 416.504033 483.23177 
L 416.803747 484.015131 
L 417.10346 484.486483 
L 417.403174 484.673036 
L 418.302314 486.062966 
L 418.90174 486.43565 
L 420.70002 483.2101 
L 420.999734 483.025947 
L 421.299447 483.03952 
L 421.59916 482.671513 
L 421.898874 482.600725 
L 422.798014 483.434792 
L 423.097727 484.112789 
L 424.596294 490.365232 
L 425.495434 494.814398 
L 426.994001 500.957906 
L 427.593427 502.973526 
L 428.492567 504.77537 
L 429.091994 505.025742 
L 429.391707 505.324137 
L 430.290847 505.283103 
L 431.189988 504.325066 
L 432.089128 503.958101 
L 432.388841 503.935354 
L 432.688554 503.731102 
L 433.587694 504.246304 
L 434.187121 505.100533 
L 435.685688 508.508897 
L 436.285114 509.538368 
L 437.483968 511.16695 
L 438.682821 512.150234 
L 439.282248 512.233838 
L 439.581961 512.00039 
L 439.881675 511.931393 
L 440.481101 511.337152 
L 440.780815 510.904482 
L 441.679955 508.836913 
L 443.178521 503.648797 
L 443.777948 502.261027 
L 444.077662 501.794526 
L 444.377375 501.5963 
L 444.677088 501.593562 
L 445.276515 502.645188 
L 445.875942 504.463457 
L 448.573362 515.743882 
L 449.472502 517.981776 
L 450.071928 518.849677 
L 450.671355 519.266008 
L 451.270782 519.054187 
L 451.870209 518.728271 
L 452.169922 518.35341 
L 452.469635 518.164562 
L 453.368775 516.990446 
L 453.968202 516.396016 
L 454.267915 516.177961 
L 454.867342 516.174241 
L 455.466769 516.410185 
L 456.066195 516.909881 
L 456.965335 518.285731 
L 458.463902 520.762801 
L 459.363042 521.503928 
L 460.561896 521.654246 
L 461.461036 521.127075 
L 463.858742 519.304744 
L 465.057596 518.691451 
L 465.657023 518.549283 
L 466.556163 518.683469 
L 467.155589 519.128742 
L 468.054729 520.159337 
L 469.253583 521.897778 
L 470.152723 522.869937 
L 471.051863 523.476609 
L 471.951003 523.79106 
L 476.14699 523.877069 
L 476.746416 523.919998 
L 479.144123 523.193244 
L 480.043263 522.791045 
L 480.64269 522.458573 
L 481.242117 522.243409 
L 482.141257 521.86117 
L 483.34011 521.538051 
L 484.838677 521.392049 
L 485.737817 521.458873 
L 486.93667 521.65842 
L 488.435237 522.327002 
L 489.334377 522.96715 
L 492.031797 525.202414 
L 492.930937 525.56838 
L 493.830077 525.72873 
L 495.628357 525.793657 
L 497.426638 525.653447 
L 500.124058 525.20705 
L 501.622624 525.354729 
L 503.720618 525.62625 
L 504.919471 525.580818 
L 506.717751 525.291358 
L 508.216318 524.836264 
L 510.913738 524.313491 
L 512.712018 524.163624 
L 513.910872 524.257171 
L 518.106859 525.640452 
L 519.605425 525.811732 
L 522.003132 525.84943 
L 542.083926 525.795762 
L 543.582493 525.597941 
L 545.9802 525.20705 
L 547.179053 525.341245 
L 549.876473 525.795762 
L 552.573894 525.85 
L 556.76988 525.740526 
L 558.568161 525.404015 
L 559.767014 525.216389 
L 560.666154 525.243599 
L 560.666154 525.243599 
" clip-path="url(#p2dcff4041c)" style="fill: none; stroke: #377eb8; stroke-width: 1.142857"/>
   </g>
   <g id="line2d_27">
    <path d="M 299.963892 525.85 
L 319.346961 525.746879 
L 319.640644 525.478944 
L 319.934327 524.916288 
L 320.228009 523.551218 
L 320.521692 520.846729 
L 320.815375 516.182202 
L 321.402741 498.177336 
L 322.283789 454.505701 
L 322.871155 428.028875 
L 323.458521 410.770572 
L 324.045887 402.460618 
L 324.339569 400.470818 
L 324.633252 399.94333 
L 324.926935 400.114083 
L 325.220618 402.03592 
L 325.514301 403.083094 
L 325.807984 403.522691 
L 326.395349 405.120977 
L 326.689032 405.312255 
L 326.982715 404.074104 
L 327.276398 402.151787 
L 327.863764 393.44067 
L 328.451129 381.829775 
L 328.744812 375.308345 
L 329.038495 371.89307 
L 329.332178 369.785449 
L 329.625861 369.685792 
L 329.919544 370.710034 
L 330.506909 376.336602 
L 330.800592 380.057497 
L 331.387958 383.896826 
L 331.681641 384.013879 
L 331.975324 383.478068 
L 332.562689 372.05215 
L 333.150055 355.869679 
L 334.618469 306.908879 
L 335.205835 297.212402 
L 335.499518 297.243786 
L 336.086884 304.670774 
L 336.674249 313.203437 
L 337.261615 319.252478 
L 337.555298 320.577016 
L 337.848981 321.296768 
L 338.142664 322.417841 
L 339.023712 331.915141 
L 339.611078 334.885847 
L 339.904761 335.730857 
L 340.198444 335.552804 
L 340.492126 336.718156 
L 340.785809 338.447995 
L 341.666858 347.822186 
L 341.960541 348.630005 
L 342.254224 349.08668 
L 342.547906 346.634832 
L 342.841589 340.475157 
L 344.603686 291.471178 
L 344.897369 289.885487 
L 345.191052 293.652616 
L 346.072101 310.046418 
L 346.659466 316.988784 
L 346.953149 318.967798 
L 347.246832 318.646147 
L 348.127881 324.436242 
L 348.715246 325.187923 
L 349.008929 323.70094 
L 349.596295 317.270853 
L 349.889978 312.151152 
L 350.477344 305.64868 
L 350.771026 304.382692 
L 351.064709 303.642025 
L 351.358392 303.447985 
L 351.652075 304.273514 
L 351.945758 307.052288 
L 352.533124 315.870768 
L 354.001538 348.130276 
L 354.588904 356.184021 
L 354.882586 359.181961 
L 355.469952 361.881648 
L 356.057318 360.030169 
L 357.525732 341.472854 
L 358.406781 335.204484 
L 358.700464 335.384933 
L 358.994146 334.327677 
L 359.287829 333.812919 
L 359.581512 334.54946 
L 359.875195 334.183115 
L 360.168878 334.287639 
L 360.462561 334.819488 
L 360.756244 335.639224 
L 361.049926 336.108237 
L 361.930975 341.371149 
L 362.224658 344.764065 
L 362.812024 357.249673 
L 363.986755 382.18468 
L 364.280438 385.01448 
L 364.574121 386.330842 
L 364.867804 383.496955 
L 365.455169 373.930079 
L 365.748852 368.341944 
L 366.042535 366.108481 
L 366.336218 365.460858 
L 366.923584 373.914645 
L 367.804632 396.128344 
L 368.098315 401.55097 
L 368.391998 404.613662 
L 368.685681 404.626989 
L 370.154095 396.18007 
L 370.447778 397.311399 
L 371.035144 402.973198 
L 372.209875 417.789433 
L 372.797241 425.129152 
L 373.384606 432.918134 
L 373.971972 439.007299 
L 374.559338 440.125214 
L 374.853021 439.674842 
L 375.146704 437.293328 
L 375.734069 428.54065 
L 376.615118 414.255881 
L 376.908801 411.803209 
L 377.202484 411.484304 
L 377.496166 412.794469 
L 378.083532 420.738408 
L 378.964581 434.120825 
L 379.845629 441.75915 
L 380.726678 445.64804 
L 381.020361 447.718709 
L 381.607726 453.990867 
L 382.782458 469.203499 
L 383.076141 470.23619 
L 383.369824 469.832143 
L 383.663506 466.912661 
L 384.250872 456.918468 
L 385.131921 437.962557 
L 385.719286 430.689191 
L 386.012969 428.943128 
L 386.306652 429.679843 
L 386.600335 431.430828 
L 387.187701 438.676546 
L 388.068749 452.303448 
L 388.362432 455.913361 
L 388.949798 459.138853 
L 389.243481 460.493739 
L 389.830846 461.846209 
L 390.124529 462.370485 
L 390.418212 462.004589 
L 390.711895 463.036719 
L 391.005578 464.745869 
L 391.886626 473.98957 
L 392.180309 477.76902 
L 392.767675 481.634004 
L 393.061358 481.902902 
L 393.355041 481.678054 
L 393.942406 476.713009 
L 395.117138 467.288405 
L 395.410821 467.339499 
L 395.704504 469.338538 
L 395.998186 472.863641 
L 397.172918 491.222214 
L 397.760284 495.167656 
L 398.053966 495.679836 
L 398.347649 495.685286 
L 398.641332 495.82425 
L 398.935015 495.001332 
L 399.228698 494.979044 
L 399.522381 495.4625 
L 400.109746 498.815482 
L 400.990795 504.88651 
L 401.578161 506.5672 
L 401.871844 506.74962 
L 402.165526 507.067656 
L 402.459209 506.214764 
L 402.752892 505.776533 
L 403.046575 504.51938 
L 403.927624 499.065192 
L 404.221306 497.888709 
L 404.514989 497.443189 
L 404.808672 498.546405 
L 405.396038 503.610642 
L 406.277086 510.826812 
L 406.570769 511.957411 
L 406.864452 512.362844 
L 407.158135 512.102474 
L 407.451818 511.333465 
L 408.039184 507.060852 
L 408.626549 502.079069 
L 408.920232 500.199418 
L 409.213915 499.088578 
L 409.507598 499.128674 
L 410.094964 501.645104 
L 410.682329 505.002173 
L 411.269695 507.134512 
L 411.563378 507.076876 
L 411.857061 506.454484 
L 412.444426 503.866853 
L 413.619158 494.601228 
L 414.206524 493.172232 
L 415.381255 493.301505 
L 415.968621 494.878711 
L 416.555986 498.204109 
L 417.143352 502.242727 
L 418.024401 506.792544 
L 418.905449 510.126295 
L 419.199132 510.769065 
L 419.492815 511.139188 
L 419.786498 510.880291 
L 420.080181 510.84364 
L 420.961229 510.067293 
L 421.254912 510.21618 
L 421.842278 510.078421 
L 422.429644 511.13188 
L 423.017009 513.515395 
L 423.604375 515.697152 
L 424.191741 517.002872 
L 424.485424 516.870803 
L 424.779106 516.880049 
L 425.953838 515.834007 
L 426.834886 514.491277 
L 427.128569 514.472654 
L 427.422252 514.589523 
L 428.596984 517.602968 
L 429.184349 518.073857 
L 429.771715 518.109405 
L 430.065398 517.820382 
L 430.359081 517.762248 
L 430.652764 518.186684 
L 430.946446 518.369103 
L 432.121178 520.901801 
L 432.708544 521.881899 
L 433.002226 522.345712 
L 433.589592 522.827083 
L 433.883275 522.701263 
L 434.176958 522.790739 
L 434.764324 522.628611 
L 435.058006 522.48241 
L 435.645372 521.799846 
L 436.526421 520.129747 
L 437.407469 519.086523 
L 437.701152 519.006715 
L 438.582201 518.373449 
L 439.169566 518.432196 
L 439.463249 518.665776 
L 440.344298 520.153306 
L 441.519029 522.240634 
L 442.106395 522.891135 
L 442.693761 522.997918 
L 442.987444 522.977978 
L 443.574809 523.110765 
L 443.868492 523.103129 
L 444.749541 522.531249 
L 445.336906 521.714732 
L 446.217955 519.949697 
L 446.805321 518.634776 
L 447.099004 518.365675 
L 447.686369 518.31874 
L 447.980052 518.304476 
L 449.154784 517.716416 
L 449.448466 517.714176 
L 449.742149 517.867461 
L 450.035832 518.491425 
L 450.623198 520.143783 
L 451.504246 522.317425 
L 451.797929 522.79112 
L 452.385295 522.728207 
L 452.972661 522.493612 
L 453.560026 521.919796 
L 454.147392 521.920295 
L 454.734758 522.600396 
L 455.322124 523.515264 
L 455.909489 524.226968 
L 456.203172 524.374037 
L 456.790538 524.117616 
L 457.377904 522.837463 
L 458.258952 520.461396 
L 458.552635 520.110885 
L 458.846318 520.27217 
L 459.433683 521.579319 
L 460.021049 523.025604 
L 460.314732 523.524686 
L 460.902098 523.76759 
L 461.489463 523.54961 
L 462.076829 522.815617 
L 462.664195 521.858182 
L 463.251561 521.239196 
L 463.838926 521.047101 
L 464.719975 520.991678 
L 465.013658 521.023463 
L 465.307341 521.203638 
L 465.894706 522.19533 
L 467.069438 524.978962 
L 467.656803 525.6015 
L 468.244169 525.803318 
L 469.418901 525.843723 
L 470.299949 525.764103 
L 470.887315 525.525338 
L 471.768363 524.826771 
L 472.355729 524.375672 
L 472.943095 524.198864 
L 473.530461 524.375672 
L 474.411509 525.088116 
L 475.292558 525.687173 
L 476.173606 525.833135 
L 479.697801 525.85 
L 484.103043 525.764103 
L 484.690409 525.525338 
L 485.571458 524.826771 
L 486.158823 524.375672 
L 486.746189 524.198864 
L 487.333555 524.375672 
L 488.214603 525.088116 
L 489.095652 525.687173 
L 489.976701 525.833135 
L 491.445115 525.739953 
L 492.032481 525.497973 
L 493.207212 524.857383 
L 493.794578 524.873907 
L 494.675626 525.015574 
L 496.144041 524.857383 
L 496.731406 525.053265 
L 497.612455 525.382049 
L 498.199821 525.382049 
L 500.255601 524.901782 
L 501.136649 525.095657 
L 501.724015 525.072079 
L 503.486112 524.359452 
L 504.660843 523.729142 
L 504.954526 523.729083 
L 505.248209 523.879221 
L 505.835575 524.611391 
L 506.716623 525.536497 
L 507.303989 525.779283 
L 508.478721 525.85 
L 514.352378 525.795495 
L 514.939743 525.629995 
L 516.408158 524.908809 
L 516.995523 525.104104 
L 517.876572 525.577458 
L 518.463938 525.702224 
L 519.051303 525.662712 
L 519.932352 525.292263 
L 520.519718 524.96197 
L 521.107083 524.96197 
L 522.869181 525.795495 
L 524.337595 525.85 
L 559.285855 525.795495 
L 559.873221 525.629995 
L 560.754269 525.104104 
L 560.754269 525.104104 
" clip-path="url(#p2dcff4041c)" style="fill: none; stroke: #4daf4a; stroke-width: 1.142857"/>
   </g>
   <g id="patch_13">
    <path d="M 300.097764 525.85 
L 300.097764 266.525 
" style="fill: none; stroke: #000000; stroke-width: 0.8; stroke-linejoin: miter; stroke-linecap: square"/>
   </g>
   <g id="patch_14">
    <path d="M 560.505527 525.85 
L 560.505527 266.525 
" style="fill: none; stroke: #000000; stroke-width: 0.8; stroke-linejoin: miter; stroke-linecap: square"/>
   </g>
   <g id="patch_15">
    <path d="M 300.097764 525.85 
L 560.505527 525.85 
" style="fill: none; stroke: #000000; stroke-width: 0.8; stroke-linejoin: miter; stroke-linecap: square"/>
   </g>
   <g id="patch_16">
    <path d="M 300.097764 266.525 
L 560.505527 266.525 
" style="fill: none; stroke: #000000; stroke-width: 0.8; stroke-linejoin: miter; stroke-linecap: square"/>
   </g>
  </g>
  <g id="legend_1">
   <g id="patch_17">
    <path d="M 417.574277 61.38 
L 558.105527 61.38 
Q 560.505527 61.38 560.505527 58.98 
L 560.505527 9.6 
Q 560.505527 7.2 558.105527 7.2 
L 417.574277 7.2 
Q 415.174277 7.2 415.174277 9.6 
L 415.174277 58.98 
Q 415.174277 61.38 417.574277 61.38 
z
" style="fill: #ffffff; opacity: 0.9; stroke: #cccccc; stroke-linejoin: miter"/>
   </g>
   <g id="line2d_28">
    <path d="M 423.574277 16.36875 
L 431.974277 16.36875 
L 440.374277 16.36875 
" style="fill: none; stroke: #e41a1c; stroke-width: 1.142857"/>
   </g>
   <g id="text_15">
    <!-- Gaussian -->
    <g transform="translate(453.574277 20.56875)scale(0.12 -0.12)">
     <defs>
      <path id="HelveticaNeue-Medium-47" d="M 4474 2406 
L 2528 2406 
L 2528 1798 
L 3744 1798 
C 3731 1024 3283 531 2464 544 
C 1485 544 1075 1408 1075 2285 
C 1075 3162 1485 4026 2464 4026 
C 3040 4026 3565 3718 3642 3117 
L 4422 3117 
C 4301 4147 3462 4678 2464 4678 
C 1094 4678 275 3590 275 2285 
C 275 979 1094 -109 2464 -109 
C 3021 -109 3411 51 3840 538 
L 3962 0 
L 4474 0 
L 4474 2406 
z
" transform="scale(0.015625)"/>
      <path id="HelveticaNeue-Medium-75" d="M 3290 3309 
L 2560 3309 
L 2560 1389 
C 2560 877 2355 486 1747 486 
C 1350 486 1114 698 1114 1280 
L 1114 3309 
L 384 3309 
L 384 1210 
C 384 346 755 -90 1619 -90 
C 1984 -90 2381 128 2560 461 
L 2573 461 
L 2573 0 
L 3290 0 
L 3290 3309 
z
" transform="scale(0.015625)"/>
      <path id="HelveticaNeue-Medium-69" d="M 403 0 
L 1133 0 
L 1133 3309 
L 403 3309 
L 403 0 
z
M 403 3878 
L 1133 3878 
L 1133 4570 
L 403 4570 
L 403 3878 
z
" transform="scale(0.015625)"/>
     </defs>
     <use xlink:href="#HelveticaNeue-Medium-47"/>
     <use xlink:href="#HelveticaNeue-Medium-61" x="75.899994"/>
     <use xlink:href="#HelveticaNeue-Medium-75" x="131.499985"/>
     <use xlink:href="#HelveticaNeue-Medium-73" x="188.899979"/>
     <use xlink:href="#HelveticaNeue-Medium-73" x="240.799973"/>
     <use xlink:href="#HelveticaNeue-Medium-69" x="292.699966"/>
     <use xlink:href="#HelveticaNeue-Medium-61" x="316.799957"/>
     <use xlink:href="#HelveticaNeue-Medium-6e" x="372.399948"/>
    </g>
   </g>
   <g id="line2d_29">
    <path d="M 423.574277 33.22875 
L 431.974277 33.22875 
L 440.374277 33.22875 
" style="fill: none; stroke: #377eb8; stroke-width: 1.142857"/>
   </g>
   <g id="text_16">
    <!-- Gaussian + Outlier -->
    <g transform="translate(453.574277 37.42875)scale(0.12 -0.12)">
     <defs>
      <path id="HelveticaNeue-Medium-20" transform="scale(0.015625)"/>
      <path id="HelveticaNeue-Medium-2b" d="M 1594 1946 
L 307 1946 
L 307 1293 
L 1594 1293 
L 1594 0 
L 2246 0 
L 2246 1293 
L 3533 1293 
L 3533 1946 
L 2246 1946 
L 2246 3238 
L 1594 3238 
L 1594 1946 
z
" transform="scale(0.015625)"/>
      <path id="HelveticaNeue-Medium-4f" d="M 2432 4678 
C 1062 4678 243 3590 243 2285 
C 243 979 1062 -109 2432 -109 
C 3802 -109 4621 979 4621 2285 
C 4621 3590 3802 4678 2432 4678 
z
M 2432 4026 
C 3411 4026 3821 3162 3821 2285 
C 3821 1408 3411 544 2432 544 
C 1453 544 1043 1408 1043 2285 
C 1043 3162 1453 4026 2432 4026 
z
" transform="scale(0.015625)"/>
      <path id="HelveticaNeue-Medium-6c" d="M 403 0 
L 1133 0 
L 1133 4570 
L 403 4570 
L 403 0 
z
" transform="scale(0.015625)"/>
     </defs>
     <use xlink:href="#HelveticaNeue-Medium-47"/>
     <use xlink:href="#HelveticaNeue-Medium-61" x="75.899994"/>
     <use xlink:href="#HelveticaNeue-Medium-75" x="131.499985"/>
     <use xlink:href="#HelveticaNeue-Medium-73" x="188.899979"/>
     <use xlink:href="#HelveticaNeue-Medium-73" x="240.799973"/>
     <use xlink:href="#HelveticaNeue-Medium-69" x="292.699966"/>
     <use xlink:href="#HelveticaNeue-Medium-61" x="316.799957"/>
     <use xlink:href="#HelveticaNeue-Medium-6e" x="372.399948"/>
     <use xlink:href="#HelveticaNeue-Medium-20" x="429.799942"/>
     <use xlink:href="#HelveticaNeue-Medium-2b" x="457.59993"/>
     <use xlink:href="#HelveticaNeue-Medium-20" x="517.599915"/>
     <use xlink:href="#HelveticaNeue-Medium-4f" x="545.399902"/>
     <use xlink:href="#HelveticaNeue-Medium-75" x="621.399887"/>
     <use xlink:href="#HelveticaNeue-Medium-74" x="678.799881"/>
     <use xlink:href="#HelveticaNeue-Medium-6c" x="712.099869"/>
     <use xlink:href="#HelveticaNeue-Medium-69" x="736.19986"/>
     <use xlink:href="#HelveticaNeue-Medium-65" x="760.29985"/>
     <use xlink:href="#HelveticaNeue-Medium-72" x="815.899841"/>
    </g>
   </g>
   <g id="line2d_30">
    <path d="M 423.574277 50.08875 
L 431.974277 50.08875 
L 440.374277 50.08875 
" style="fill: none; stroke: #4daf4a; stroke-width: 1.142857"/>
   </g>
   <g id="text_17">
    <!-- Student-t -->
    <g transform="translate(453.574277 54.28875)scale(0.12 -0.12)">
     <defs>
      <path id="HelveticaNeue-Medium-53" d="M 211 1523 
C 230 390 1075 -109 2118 -109 
C 3027 -109 3936 301 3936 1325 
C 3936 1798 3648 2310 3046 2490 
C 2810 2560 1798 2822 1728 2842 
C 1402 2931 1184 3110 1184 3430 
C 1184 3891 1651 4026 2022 4026 
C 2573 4026 2970 3808 3008 3219 
L 3808 3219 
C 3808 4173 3008 4678 2054 4678 
C 1229 4678 384 4250 384 3334 
C 384 2861 614 2387 1395 2176 
C 2022 2003 2438 1920 2758 1798 
C 2944 1728 3136 1587 3136 1235 
C 3136 890 2874 544 2170 544 
C 1530 544 1011 819 1011 1523 
L 211 1523 
z
" transform="scale(0.015625)"/>
      <path id="HelveticaNeue-Medium-64" d="M 954 1619 
C 954 2214 1197 2822 1882 2822 
C 2445 2822 2797 2387 2797 1658 
C 2797 1082 2522 486 1869 486 
C 1235 486 954 1050 954 1619 
z
M 3501 4570 
L 2771 4570 
L 2771 2880 
L 2758 2880 
C 2534 3245 2074 3398 1658 3398 
C 934 3398 224 2874 224 1677 
C 224 685 730 -90 1773 -90 
C 2189 -90 2605 70 2797 448 
L 2810 448 
L 2810 0 
L 3501 0 
L 3501 4570 
z
" transform="scale(0.015625)"/>
      <path id="HelveticaNeue-Medium-2d" d="M 314 1395 
L 2176 1395 
L 2176 2086 
L 314 2086 
L 314 1395 
z
" transform="scale(0.015625)"/>
     </defs>
     <use xlink:href="#HelveticaNeue-Medium-53"/>
     <use xlink:href="#HelveticaNeue-Medium-74" x="64.799988"/>
     <use xlink:href="#HelveticaNeue-Medium-75" x="98.099976"/>
     <use xlink:href="#HelveticaNeue-Medium-64" x="155.499969"/>
     <use xlink:href="#HelveticaNeue-Medium-65" x="216.59996"/>
     <use xlink:href="#HelveticaNeue-Medium-6e" x="272.199951"/>
     <use xlink:href="#HelveticaNeue-Medium-74" x="329.599945"/>
     <use xlink:href="#HelveticaNeue-Medium-2d" x="362.899933"/>
     <use xlink:href="#HelveticaNeue-Medium-74" x="401.799927"/>
    </g>
   </g>
  </g>
 </g>
 <defs>
  <clipPath id="p330a210a1c">
   <rect x="39.69" y="266.525" width="260.407764" height="259.325"/>
  </clipPath>
  <clipPath id="pf5a6840bc3">
   <rect x="39.69" y="7.2" width="260.407764" height="259.325"/>
  </clipPath>
  <clipPath id="p2dcff4041c">
   <rect x="300.097764" y="266.525" width="260.407764" height="259.325"/>
  </clipPath>
 </defs>
</svg>
