<?xml version="1.0" encoding="utf-8" standalone="no"?>
<!DOCTYPE svg PUBLIC "-//W3C//DTD SVG 1.1//EN"
  "http://www.w3.org/Graphics/SVG/1.1/DTD/svg11.dtd">
<svg xmlns:xlink="http://www.w3.org/1999/xlink" width="403.12pt" height="309.59325pt" viewBox="0 0 403.12 309.59325" xmlns="http://www.w3.org/2000/svg" version="1.1">
 <metadata>
  <rdf:RDF xmlns:dc="http://purl.org/dc/elements/1.1/" xmlns:cc="http://creativecommons.org/ns#" xmlns:rdf="http://www.w3.org/1999/02/22-rdf-syntax-ns#">
   <cc:Work>
    <dc:type rdf:resource="http://purl.org/dc/dcmitype/StillImage"/>
    <dc:date>2026-09-19T08:07:19.850732</dc:date>
    <dc:format>image/svg+xml</dc:format>
    <dc:creator>
     <cc:Agent>
      <dc:title>Matplotlib v3.10.8, https://matplotlib.org/</dc:title>
     </cc:Agent>
    </dc:creator>
   </cc:Work>
  </rdf:RDF>
 </metadata>
 <defs>
  <style type="text/css">*{stroke-linejoin: round; stroke-linecap: butt}</style>
 </defs>
 <g id="figure_1">
  <g id="patch_1">
   <path d="M 0 309.59325 
L 403.12 309.59325 
L 403.12 0 
L 0 0 
z
" style="fill: #ffffff"/>
  </g>
  <g id="axes_1">
   <g id="patch_2">
    <path d="M 37.05 275.062 
L 394.17 275.062 
L 394.17 8.95 
L 37.05 8.95 
z
" style="fill: #ffffff"/>
   </g>
   <g id="matplotlib.axis_1">
    <g id="xtick_1">
     <g id="line2d_1">
      <defs>
       <path id="m81c7e81d11" d="M 0 1.75 
L 0 -1.75 
" style="stroke: #000000; stroke-width: 0.8"/>
      </defs>
      <g>
       <use xlink:href="#m81c7e81d11" x="46.24315" y="275.062" style="stroke: #000000; stroke-width: 0.8"/>
      </g>
     </g>
     <g id="line2d_2">
      <g>
       <use xlink:href="#m81c7e81d11" x="46.24315" y="8.95" style="stroke: #000000; stroke-width: 0.8"/>
      </g>
     </g>
     <g id="text_1">
      <!-- 0 -->
      <g transform="translate(43.463462 287.452625) scale(0.1 -0.1)">
       <defs>
        <path id="HelveticaNeue-Light-30" d="M 1779 4518 
Q 1293 4518 985 4304 
Q 678 4090 508 3757 
Q 339 3424 278 3014 
Q 218 2605 218 2208 
Q 218 1818 278 1408 
Q 339 998 508 665 
Q 678 333 985 121 
Q 1293 -90 1779 -90 
Q 2272 -90 2576 121 
Q 2880 333 3049 665 
Q 3219 998 3280 1408 
Q 3341 1818 3341 2214 
Q 3341 2605 3280 3014 
Q 3219 3424 3049 3757 
Q 2880 4090 2576 4304 
Q 2272 4518 1779 4518 
z
M 1779 4179 
Q 2163 4179 2393 3980 
Q 2624 3782 2742 3488 
Q 2861 3194 2899 2848 
Q 2938 2502 2938 2214 
Q 2938 1920 2899 1577 
Q 2861 1235 2742 937 
Q 2624 640 2393 441 
Q 2163 243 1779 243 
Q 1395 243 1164 441 
Q 934 640 816 937 
Q 698 1235 659 1577 
Q 621 1920 621 2214 
Q 621 2502 659 2848 
Q 698 3194 816 3488 
Q 934 3782 1164 3980 
Q 1395 4179 1779 4179 
z
" transform="scale(0.015625)"/>
       </defs>
       <use xlink:href="#HelveticaNeue-Light-30"/>
      </g>
     </g>
    </g>
    <g id="xtick_2">
     <g id="line2d_3">
      <g>
       <use xlink:href="#m81c7e81d11" x="114.640047" y="275.062" style="stroke: #000000; stroke-width: 0.8"/>
      </g>
     </g>
     <g id="line2d_4">
      <g>
       <use xlink:href="#m81c7e81d11" x="114.640047" y="8.95" style="stroke: #000000; stroke-width: 0.8"/>
      </g>
     </g>
     <g id="text_2">
      <!-- 1 -->
      <g transform="translate(111.860359 287.452625) scale(0.1 -0.1)">
       <defs>
        <path id="HelveticaNeue-Light-31" d="M 621 3616 
L 621 3328 
L 1805 3328 
L 1805 0 
L 2208 0 
L 2208 4480 
L 1882 4480 
Q 1837 4173 1731 4003 
Q 1626 3834 1469 3750 
Q 1312 3667 1097 3644 
Q 883 3622 621 3616 
z
" transform="scale(0.015625)"/>
       </defs>
       <use xlink:href="#HelveticaNeue-Light-31"/>
      </g>
     </g>
    </g>
    <g id="xtick_3">
     <g id="line2d_5">
      <g>
       <use xlink:href="#m81c7e81d11" x="183.036944" y="275.062" style="stroke: #000000; stroke-width: 0.8"/>
      </g>
     </g>
     <g id="line2d_6">
      <g>
       <use xlink:href="#m81c7e81d11" x="183.036944" y="8.95" style="stroke: #000000; stroke-width: 0.8"/>
      </g>
     </g>
     <g id="text_3">
      <!-- 2 -->
      <g transform="translate(180.257257 287.452625) scale(0.1 -0.1)">
       <defs>
        <path id="HelveticaNeue-Light-32" d="M 3181 0 
L 3181 371 
L 691 371 
Q 730 595 883 784 
Q 1037 973 1238 1133 
Q 1440 1293 1657 1424 
Q 1875 1555 2035 1664 
Q 2259 1805 2460 1968 
Q 2662 2131 2819 2323 
Q 2976 2515 3069 2745 
Q 3162 2976 3162 3258 
Q 3162 3571 3056 3808 
Q 2950 4045 2761 4201 
Q 2573 4358 2320 4438 
Q 2067 4518 1773 4518 
Q 1408 4518 1136 4400 
Q 864 4282 685 4070 
Q 506 3859 419 3568 
Q 333 3277 339 2931 
L 742 2931 
Q 736 3181 790 3405 
Q 845 3629 966 3801 
Q 1088 3974 1283 4076 
Q 1478 4179 1754 4179 
Q 1958 4179 2140 4118 
Q 2323 4058 2460 3939 
Q 2598 3821 2678 3651 
Q 2758 3482 2758 3264 
Q 2758 2995 2665 2800 
Q 2573 2605 2387 2419 
Q 2202 2234 1968 2070 
Q 1734 1907 1497 1750 
Q 1261 1594 1037 1424 
Q 813 1254 633 1049 
Q 454 845 345 589 
Q 237 333 230 0 
L 3181 0 
z
" transform="scale(0.015625)"/>
       </defs>
       <use xlink:href="#HelveticaNeue-Light-32"/>
      </g>
     </g>
    </g>
    <g id="xtick_4">
     <g id="line2d_7">
      <g>
       <use xlink:href="#m81c7e81d11" x="251.433842" y="275.062" style="stroke: #000000; stroke-width: 0.8"/>
      </g>
     </g>
     <g id="line2d_8">
      <g>
       <use xlink:href="#m81c7e81d11" x="251.433842" y="8.95" style="stroke: #000000; stroke-width: 0.8"/>
      </g>
     </g>
     <g id="text_4">
      <!-- 3 -->
      <g transform="translate(248.654154 287.452625) scale(0.1 -0.1)">
       <defs>
        <path id="HelveticaNeue-Light-33" d="M 614 1427 
L 211 1427 
Q 186 1062 291 780 
Q 397 499 605 307 
Q 813 115 1104 12 
Q 1395 -90 1741 -90 
Q 2048 -90 2329 -3 
Q 2611 83 2822 256 
Q 3034 429 3158 681 
Q 3283 934 3283 1267 
Q 3283 1709 3043 2006 
Q 2803 2304 2362 2374 
L 2362 2387 
Q 2726 2477 2921 2745 
Q 3117 3014 3117 3379 
Q 3117 3680 2998 3894 
Q 2880 4109 2685 4246 
Q 2490 4384 2240 4451 
Q 1990 4518 1728 4518 
Q 1402 4518 1139 4406 
Q 877 4294 694 4099 
Q 512 3904 413 3635 
Q 314 3366 314 3046 
L 717 3046 
Q 710 3296 774 3504 
Q 838 3712 969 3862 
Q 1101 4013 1293 4096 
Q 1485 4179 1734 4179 
Q 1939 4179 2115 4131 
Q 2291 4083 2425 3977 
Q 2560 3872 2637 3715 
Q 2714 3558 2714 3334 
Q 2714 3123 2630 2969 
Q 2547 2816 2416 2717 
Q 2285 2618 2121 2570 
Q 1958 2522 1805 2522 
L 1466 2522 
L 1466 2182 
L 1805 2182 
Q 2029 2182 2224 2124 
Q 2419 2067 2566 1948 
Q 2714 1830 2797 1654 
Q 2880 1478 2880 1235 
Q 2880 998 2784 812 
Q 2688 627 2528 499 
Q 2368 371 2163 307 
Q 1958 243 1734 243 
Q 1466 243 1251 329 
Q 1037 416 893 569 
Q 749 723 675 940 
Q 602 1158 614 1427 
z
" transform="scale(0.015625)"/>
       </defs>
       <use xlink:href="#HelveticaNeue-Light-33"/>
      </g>
     </g>
    </g>
    <g id="xtick_5">
     <g id="line2d_9">
      <g>
       <use xlink:href="#m81c7e81d11" x="319.830739" y="275.062" style="stroke: #000000; stroke-width: 0.8"/>
      </g>
     </g>
     <g id="line2d_10">
      <g>
       <use xlink:href="#m81c7e81d11" x="319.830739" y="8.95" style="stroke: #000000; stroke-width: 0.8"/>
      </g>
     </g>
     <g id="text_5">
      <!-- 4 -->
      <g transform="translate(317.051052 287.452625) scale(0.1 -0.1)">
       <defs>
        <path id="HelveticaNeue-Light-34" d="M 2259 1453 
L 557 1453 
L 2246 3891 
L 2259 3891 
L 2259 1453 
z
M 192 1504 
L 192 1114 
L 2259 1114 
L 2259 0 
L 2630 0 
L 2630 1114 
L 3302 1114 
L 3302 1453 
L 2630 1453 
L 2630 4480 
L 2266 4480 
L 192 1504 
z
" transform="scale(0.015625)"/>
       </defs>
       <use xlink:href="#HelveticaNeue-Light-34"/>
      </g>
     </g>
    </g>
    <g id="xtick_6">
     <g id="line2d_11">
      <g>
       <use xlink:href="#m81c7e81d11" x="388.227636" y="275.062" style="stroke: #000000; stroke-width: 0.8"/>
      </g>
     </g>
     <g id="line2d_12">
      <g>
       <use xlink:href="#m81c7e81d11" x="388.227636" y="8.95" style="stroke: #000000; stroke-width: 0.8"/>
      </g>
     </g>
     <g id="text_6">
      <!-- 5 -->
      <g transform="translate(385.447949 287.452625) scale(0.1 -0.1)">
       <defs>
        <path id="HelveticaNeue-Light-35" d="M 634 1280 
L 230 1280 
Q 237 960 352 704 
Q 467 448 662 272 
Q 858 96 1123 3 
Q 1389 -90 1702 -90 
Q 2022 -90 2307 22 
Q 2592 134 2803 336 
Q 3014 538 3136 816 
Q 3258 1094 3258 1421 
Q 3258 1760 3152 2045 
Q 3046 2330 2851 2534 
Q 2656 2739 2377 2854 
Q 2099 2970 1754 2970 
Q 1485 2970 1229 2861 
Q 973 2752 806 2554 
L 794 2566 
L 1082 4051 
L 3040 4051 
L 3040 4422 
L 800 4422 
L 365 2099 
L 710 2099 
Q 877 2355 1139 2492 
Q 1402 2630 1709 2630 
Q 1958 2630 2169 2540 
Q 2381 2451 2531 2294 
Q 2682 2138 2768 1926 
Q 2854 1715 2854 1466 
Q 2854 1222 2777 1001 
Q 2701 781 2553 611 
Q 2406 442 2201 342 
Q 1997 243 1734 243 
Q 1504 243 1305 316 
Q 1107 390 960 528 
Q 813 666 726 858 
Q 640 1050 634 1280 
z
" transform="scale(0.015625)"/>
       </defs>
       <use xlink:href="#HelveticaNeue-Light-35"/>
      </g>
     </g>
    </g>
    <g id="text_7">
     <!-- x -->
     <g transform="translate(213.205313 300.49325) scale(0.1 -0.1)">
      <defs>
       <path id="HelveticaNeue-Light-78" d="M 1286 1715 
L 6 0 
L 506 0 
L 1523 1389 
L 2560 0 
L 3072 0 
L 1786 1722 
L 2976 3302 
L 2470 3302 
L 1549 2048 
L 608 3302 
L 102 3302 
L 1286 1715 
z
" transform="scale(0.015625)"/>
      </defs>
      <use xlink:href="#HelveticaNeue-Light-78"/>
     </g>
    </g>
   </g>
   <g id="matplotlib.axis_2">
    <g id="ytick_1">
     <g id="line2d_13">
      <defs>
       <path id="m27791076c6" d="M 1.75 0 
L -1.75 -0 
" style="stroke: #000000; stroke-width: 0.8"/>
      </defs>
      <g>
       <use xlink:href="#m27791076c6" x="37.05" y="262.247894" style="stroke: #000000; stroke-width: 0.8"/>
      </g>
     </g>
     <g id="line2d_14">
      <g>
       <use xlink:href="#m27791076c6" x="394.17" y="262.247894" style="stroke: #000000; stroke-width: 0.8"/>
      </g>
     </g>
     <g id="text_8">
      <!-- −4 -->
      <g transform="translate(20.240625 265.818206) scale(0.1 -0.1)">
       <defs>
        <path id="HelveticaNeue-Light-2212" d="M 3533 1440 
L 3533 1779 
L 314 1779 
L 314 1440 
L 3533 1440 
z
" transform="scale(0.015625)"/>
       </defs>
       <use xlink:href="#HelveticaNeue-Light-2212"/>
       <use xlink:href="#HelveticaNeue-Light-34" transform="translate(59.999985 0)"/>
      </g>
     </g>
    </g>
    <g id="ytick_2">
     <g id="line2d_15">
      <g>
       <use xlink:href="#m27791076c6" x="37.05" y="221.358993" style="stroke: #000000; stroke-width: 0.8"/>
      </g>
     </g>
     <g id="line2d_16">
      <g>
       <use xlink:href="#m27791076c6" x="394.17" y="221.358993" style="stroke: #000000; stroke-width: 0.8"/>
      </g>
     </g>
     <g id="text_9">
      <!-- −2 -->
      <g transform="translate(20.240625 224.929306) scale(0.1 -0.1)">
       <use xlink:href="#HelveticaNeue-Light-2212"/>
       <use xlink:href="#HelveticaNeue-Light-32" transform="translate(59.999985 0)"/>
      </g>
     </g>
    </g>
    <g id="ytick_3">
     <g id="line2d_17">
      <g>
       <use xlink:href="#m27791076c6" x="37.05" y="180.470093" style="stroke: #000000; stroke-width: 0.8"/>
      </g>
     </g>
     <g id="line2d_18">
      <g>
       <use xlink:href="#m27791076c6" x="394.17" y="180.470093" style="stroke: #000000; stroke-width: 0.8"/>
      </g>
     </g>
     <g id="text_10">
      <!-- 0 -->
      <g transform="translate(26.240625 184.040405) scale(0.1 -0.1)">
       <use xlink:href="#HelveticaNeue-Light-30"/>
      </g>
     </g>
    </g>
    <g id="ytick_4">
     <g id="line2d_19">
      <g>
       <use xlink:href="#m27791076c6" x="37.05" y="139.581193" style="stroke: #000000; stroke-width: 0.8"/>
      </g>
     </g>
     <g id="line2d_20">
      <g>
       <use xlink:href="#m27791076c6" x="394.17" y="139.581193" style="stroke: #000000; stroke-width: 0.8"/>
      </g>
     </g>
     <g id="text_11">
      <!-- 2 -->
      <g transform="translate(26.240625 143.151505) scale(0.1 -0.1)">
       <use xlink:href="#HelveticaNeue-Light-32"/>
      </g>
     </g>
    </g>
    <g id="ytick_5">
     <g id="line2d_21">
      <g>
       <use xlink:href="#m27791076c6" x="37.05" y="98.692292" style="stroke: #000000; stroke-width: 0.8"/>
      </g>
     </g>
     <g id="line2d_22">
      <g>
       <use xlink:href="#m27791076c6" x="394.17" y="98.692292" style="stroke: #000000; stroke-width: 0.8"/>
      </g>
     </g>
     <g id="text_12">
      <!-- 4 -->
      <g transform="translate(26.240625 102.262605) scale(0.1 -0.1)">
       <use xlink:href="#HelveticaNeue-Light-34"/>
      </g>
     </g>
    </g>
    <g id="ytick_6">
     <g id="line2d_23">
      <g>
       <use xlink:href="#m27791076c6" x="37.05" y="57.803392" style="stroke: #000000; stroke-width: 0.8"/>
      </g>
     </g>
     <g id="line2d_24">
      <g>
       <use xlink:href="#m27791076c6" x="394.17" y="57.803392" style="stroke: #000000; stroke-width: 0.8"/>
      </g>
     </g>
     <g id="text_13">
      <!-- 6 -->
      <g transform="translate(26.240625 61.373704) scale(0.1 -0.1)">
       <defs>
        <path id="HelveticaNeue-Light-36" d="M 2829 3347 
L 3232 3347 
Q 3162 3942 2810 4230 
Q 2458 4518 1856 4518 
Q 1491 4518 1228 4390 
Q 966 4262 790 4057 
Q 614 3853 508 3600 
Q 403 3347 345 3100 
Q 288 2854 272 2636 
Q 256 2419 256 2285 
Q 256 1626 349 1174 
Q 442 723 634 441 
Q 826 160 1120 35 
Q 1414 -90 1824 -90 
Q 2157 -90 2435 22 
Q 2714 134 2915 336 
Q 3117 538 3229 816 
Q 3341 1094 3341 1421 
Q 3341 1747 3235 2022 
Q 3130 2298 2938 2496 
Q 2746 2694 2474 2806 
Q 2202 2918 1862 2918 
Q 1478 2918 1155 2713 
Q 832 2509 672 2176 
L 659 2176 
Q 659 2483 704 2832 
Q 749 3181 883 3481 
Q 1018 3782 1261 3980 
Q 1504 4179 1894 4179 
Q 2285 4179 2531 3948 
Q 2778 3718 2829 3347 
z
M 1856 2579 
Q 2112 2579 2313 2486 
Q 2515 2394 2652 2234 
Q 2790 2074 2864 1856 
Q 2938 1638 2938 1395 
Q 2938 1165 2861 953 
Q 2784 742 2640 585 
Q 2496 429 2301 336 
Q 2106 243 1862 243 
Q 1568 243 1357 332 
Q 1146 422 1008 579 
Q 870 736 806 947 
Q 742 1158 742 1395 
Q 742 1645 816 1859 
Q 890 2074 1034 2234 
Q 1178 2394 1386 2486 
Q 1594 2579 1856 2579 
z
" transform="scale(0.015625)"/>
       </defs>
       <use xlink:href="#HelveticaNeue-Light-36"/>
      </g>
     </g>
    </g>
    <g id="ytick_7">
     <g id="line2d_25">
      <g>
       <use xlink:href="#m27791076c6" x="37.05" y="16.914491" style="stroke: #000000; stroke-width: 0.8"/>
      </g>
     </g>
     <g id="line2d_26">
      <g>
       <use xlink:href="#m27791076c6" x="394.17" y="16.914491" style="stroke: #000000; stroke-width: 0.8"/>
      </g>
     </g>
     <g id="text_14">
      <!-- 8 -->
      <g transform="translate(26.240625 20.484804) scale(0.1 -0.1)">
       <defs>
        <path id="HelveticaNeue-Light-38" d="M 1779 2566 
Q 1600 2560 1427 2605 
Q 1254 2650 1120 2752 
Q 986 2854 902 3014 
Q 819 3174 819 3398 
Q 819 3590 899 3737 
Q 979 3885 1113 3981 
Q 1248 4077 1421 4128 
Q 1594 4179 1779 4179 
Q 1984 4179 2157 4128 
Q 2330 4077 2458 3981 
Q 2586 3885 2659 3737 
Q 2733 3590 2733 3398 
Q 2733 3181 2653 3021 
Q 2573 2861 2441 2758 
Q 2310 2656 2137 2608 
Q 1965 2560 1779 2566 
z
M 3136 3398 
Q 3136 3686 3017 3897 
Q 2899 4109 2704 4246 
Q 2509 4384 2265 4451 
Q 2022 4518 1773 4518 
Q 1523 4518 1280 4451 
Q 1037 4384 845 4246 
Q 653 4109 534 3897 
Q 416 3686 416 3398 
Q 416 3027 605 2774 
Q 794 2522 1146 2413 
L 1146 2400 
Q 723 2323 486 2009 
Q 250 1696 237 1254 
Q 237 915 358 662 
Q 480 410 691 243 
Q 902 77 1184 -6 
Q 1466 -90 1779 -90 
Q 2099 -90 2377 -6 
Q 2656 77 2867 243 
Q 3078 410 3200 662 
Q 3322 915 3322 1254 
Q 3322 1715 3085 2012 
Q 2848 2310 2406 2400 
L 2406 2413 
Q 2752 2515 2944 2774 
Q 3136 3034 3136 3398 
z
M 1779 243 
Q 1542 243 1334 307 
Q 1126 371 972 496 
Q 819 621 729 813 
Q 640 1005 640 1254 
Q 640 1498 733 1683 
Q 826 1869 979 1993 
Q 1133 2118 1341 2176 
Q 1549 2234 1779 2227 
Q 2003 2234 2211 2173 
Q 2419 2112 2576 1987 
Q 2733 1862 2825 1680 
Q 2918 1498 2918 1254 
Q 2918 998 2828 806 
Q 2739 614 2585 489 
Q 2432 365 2224 304 
Q 2016 243 1779 243 
z
" transform="scale(0.015625)"/>
       </defs>
       <use xlink:href="#HelveticaNeue-Light-38"/>
      </g>
     </g>
    </g>
    <g id="text_15">
     <!-- y -->
     <g transform="translate(14.340625 144.320844) rotate(-90) scale(0.1 -0.1)">
      <defs>
       <path id="HelveticaNeue-Light-79" d="M 13 3302 
L 1331 13 
L 1190 -358 
Q 1139 -474 1094 -570 
Q 1050 -666 986 -733 
Q 922 -800 835 -838 
Q 749 -877 614 -877 
Q 544 -877 477 -867 
Q 410 -858 339 -845 
L 339 -1184 
Q 390 -1203 457 -1206 
Q 525 -1210 646 -1216 
Q 838 -1216 963 -1181 
Q 1088 -1146 1181 -1066 
Q 1274 -986 1350 -848 
Q 1427 -710 1517 -499 
L 2950 3302 
L 2547 3302 
L 1530 486 
L 442 3302 
L 13 3302 
z
" transform="scale(0.015625)"/>
      </defs>
      <use xlink:href="#HelveticaNeue-Light-79"/>
     </g>
    </g>
   </g>
   <g id="LineCollection_1">
    <path d="M 174.33006 261.60068 
L 174.33006 220.71178 
" clip-path="url(#pb4f123ae05)" style="fill: none; stroke: #ffa500; stroke-width: 1.5"/>
    <path d="M 371.372694 217.533866 
L 371.372694 176.644966 
" clip-path="url(#pb4f123ae05)" style="fill: none; stroke: #ffa500; stroke-width: 1.5"/>
    <path d="M 296.573722 114.689411 
L 296.573722 73.800511 
" clip-path="url(#pb4f123ae05)" style="fill: none; stroke: #ffa500; stroke-width: 1.5"/>
    <path d="M 250.975064 210.550109 
L 250.975064 169.661208 
" clip-path="url(#pb4f123ae05)" style="fill: none; stroke: #ffa500; stroke-width: 1.5"/>
    <path d="M 99.599104 64.809511 
L 99.599104 23.920611 
" clip-path="url(#pb4f123ae05)" style="fill: none; stroke: #ffa500; stroke-width: 1.5"/>
    <path d="M 99.590856 99.388403 
L 99.590856 58.499503 
" clip-path="url(#pb4f123ae05)" style="fill: none; stroke: #ffa500; stroke-width: 1.5"/>
    <path d="M 66.106844 130.022512 
L 66.106844 89.133612 
" clip-path="url(#pb4f123ae05)" style="fill: none; stroke: #ffa500; stroke-width: 1.5"/>
    <path d="M 342.461954 179.816064 
L 342.461954 138.927164 
" clip-path="url(#pb4f123ae05)" style="fill: none; stroke: #ffa500; stroke-width: 1.5"/>
    <path d="M 251.815158 190.597109 
L 251.815158 149.708209 
" clip-path="url(#pb4f123ae05)" style="fill: none; stroke: #ffa500; stroke-width: 1.5"/>
    <path d="M 288.392987 100.480072 
L 288.392987 59.591172 
" clip-path="url(#pb4f123ae05)" style="fill: none; stroke: #ffa500; stroke-width: 1.5"/>
    <path d="M 53.282727 185.635084 
L 53.282727 144.746183 
" clip-path="url(#pb4f123ae05)" style="fill: none; stroke: #ffa500; stroke-width: 1.5"/>
    <path d="M 377.937273 230.184919 
L 377.937273 189.296019 
" clip-path="url(#pb4f123ae05)" style="fill: none; stroke: #ffa500; stroke-width: 1.5"/>
    <path d="M 330.925619 136.944656 
L 330.925619 96.055756 
" clip-path="url(#pb4f123ae05)" style="fill: none; stroke: #ffa500; stroke-width: 1.5"/>
    <path d="M 118.859831 118.223012 
L 118.859831 77.334112 
" clip-path="url(#pb4f123ae05)" style="fill: none; stroke: #ffa500; stroke-width: 1.5"/>
    <path d="M 108.424468 111.629556 
L 108.424468 70.740656 
" clip-path="url(#pb4f123ae05)" style="fill: none; stroke: #ffa500; stroke-width: 1.5"/>
    <path d="M 108.964647 61.9349 
L 108.964647 21.046 
" clip-path="url(#pb4f123ae05)" style="fill: none; stroke: #ffa500; stroke-width: 1.5"/>
    <path d="M 150.289277 184.559381 
L 150.289277 143.67048 
" clip-path="url(#pb4f123ae05)" style="fill: none; stroke: #ffa500; stroke-width: 1.5"/>
    <path d="M 225.701709 262.966 
L 225.701709 222.0771 
" clip-path="url(#pb4f123ae05)" style="fill: none; stroke: #ffa500; stroke-width: 1.5"/>
    <path d="M 193.961645 247.990092 
L 193.961645 207.101192 
" clip-path="url(#pb4f123ae05)" style="fill: none; stroke: #ffa500; stroke-width: 1.5"/>
    <path d="M 145.838998 197.553951 
L 145.838998 156.66505 
" clip-path="url(#pb4f123ae05)" style="fill: none; stroke: #ffa500; stroke-width: 1.5"/>
   </g>
   <g id="line2d_27">
    <defs>
     <path id="md92c386b37" d="M 2 0 
L -2 -0 
" style="stroke: #ffa500"/>
    </defs>
    <g clip-path="url(#pb4f123ae05)">
     <use xlink:href="#md92c386b37" x="174.33006" y="261.60068" style="fill: #ffa500; stroke: #ffa500"/>
     <use xlink:href="#md92c386b37" x="371.372694" y="217.533866" style="fill: #ffa500; stroke: #ffa500"/>
     <use xlink:href="#md92c386b37" x="296.573722" y="114.689411" style="fill: #ffa500; stroke: #ffa500"/>
     <use xlink:href="#md92c386b37" x="250.975064" y="210.550109" style="fill: #ffa500; stroke: #ffa500"/>
     <use xlink:href="#md92c386b37" x="99.599104" y="64.809511" style="fill: #ffa500; stroke: #ffa500"/>
     <use xlink:href="#md92c386b37" x="99.590856" y="99.388403" style="fill: #ffa500; stroke: #ffa500"/>
     <use xlink:href="#md92c386b37" x="66.106844" y="130.022512" style="fill: #ffa500; stroke: #ffa500"/>
     <use xlink:href="#md92c386b37" x="342.461954" y="179.816064" style="fill: #ffa500; stroke: #ffa500"/>
     <use xlink:href="#md92c386b37" x="251.815158" y="190.597109" style="fill: #ffa500; stroke: #ffa500"/>
     <use xlink:href="#md92c386b37" x="288.392987" y="100.480072" style="fill: #ffa500; stroke: #ffa500"/>
     <use xlink:href="#md92c386b37" x="53.282727" y="185.635084" style="fill: #ffa500; stroke: #ffa500"/>
     <use xlink:href="#md92c386b37" x="377.937273" y="230.184919" style="fill: #ffa500; stroke: #ffa500"/>
     <use xlink:href="#md92c386b37" x="330.925619" y="136.944656" style="fill: #ffa500; stroke: #ffa500"/>
     <use xlink:href="#md92c386b37" x="118.859831" y="118.223012" style="fill: #ffa500; stroke: #ffa500"/>
     <use xlink:href="#md92c386b37" x="108.424468" y="111.629556" style="fill: #ffa500; stroke: #ffa500"/>
     <use xlink:href="#md92c386b37" x="108.964647" y="61.9349" style="fill: #ffa500; stroke: #ffa500"/>
     <use xlink:href="#md92c386b37" x="150.289277" y="184.559381" style="fill: #ffa500; stroke: #ffa500"/>
     <use xlink:href="#md92c386b37" x="225.701709" y="262.966" style="fill: #ffa500; stroke: #ffa500"/>
     <use xlink:href="#md92c386b37" x="193.961645" y="247.990092" style="fill: #ffa500; stroke: #ffa500"/>
     <use xlink:href="#md92c386b37" x="145.838998" y="197.553951" style="fill: #ffa500; stroke: #ffa500"/>
    </g>
   </g>
   <g id="line2d_28">
    <g clip-path="url(#pb4f123ae05)">
     <use xlink:href="#md92c386b37" x="174.33006" y="220.71178" style="fill: #ffa500; stroke: #ffa500"/>
     <use xlink:href="#md92c386b37" x="371.372694" y="176.644966" style="fill: #ffa500; stroke: #ffa500"/>
     <use xlink:href="#md92c386b37" x="296.573722" y="73.800511" style="fill: #ffa500; stroke: #ffa500"/>
     <use xlink:href="#md92c386b37" x="250.975064" y="169.661208" style="fill: #ffa500; stroke: #ffa500"/>
     <use xlink:href="#md92c386b37" x="99.599104" y="23.920611" style="fill: #ffa500; stroke: #ffa500"/>
     <use xlink:href="#md92c386b37" x="99.590856" y="58.499503" style="fill: #ffa500; stroke: #ffa500"/>
     <use xlink:href="#md92c386b37" x="66.106844" y="89.133612" style="fill: #ffa500; stroke: #ffa500"/>
     <use xlink:href="#md92c386b37" x="342.461954" y="138.927164" style="fill: #ffa500; stroke: #ffa500"/>
     <use xlink:href="#md92c386b37" x="251.815158" y="149.708209" style="fill: #ffa500; stroke: #ffa500"/>
     <use xlink:href="#md92c386b37" x="288.392987" y="59.591172" style="fill: #ffa500; stroke: #ffa500"/>
     <use xlink:href="#md92c386b37" x="53.282727" y="144.746183" style="fill: #ffa500; stroke: #ffa500"/>
     <use xlink:href="#md92c386b37" x="377.937273" y="189.296019" style="fill: #ffa500; stroke: #ffa500"/>
     <use xlink:href="#md92c386b37" x="330.925619" y="96.055756" style="fill: #ffa500; stroke: #ffa500"/>
     <use xlink:href="#md92c386b37" x="118.859831" y="77.334112" style="fill: #ffa500; stroke: #ffa500"/>
     <use xlink:href="#md92c386b37" x="108.424468" y="70.740656" style="fill: #ffa500; stroke: #ffa500"/>
     <use xlink:href="#md92c386b37" x="108.964647" y="21.046" style="fill: #ffa500; stroke: #ffa500"/>
     <use xlink:href="#md92c386b37" x="150.289277" y="143.67048" style="fill: #ffa500; stroke: #ffa500"/>
     <use xlink:href="#md92c386b37" x="225.701709" y="222.0771" style="fill: #ffa500; stroke: #ffa500"/>
     <use xlink:href="#md92c386b37" x="193.961645" y="207.101192" style="fill: #ffa500; stroke: #ffa500"/>
     <use xlink:href="#md92c386b37" x="145.838998" y="156.66505" style="fill: #ffa500; stroke: #ffa500"/>
    </g>
   </g>
   <g id="line2d_29">
    <defs>
     <path id="m1f948e0d89" d="M 0 3 
C 0.795609 3 1.55874 2.683901 2.12132 2.12132 
C 2.683901 1.55874 3 0.795609 3 0 
C 3 -0.795609 2.683901 -1.55874 2.12132 -2.12132 
C 1.55874 -2.683901 0.795609 -3 0 -3 
C -0.795609 -3 -1.55874 -2.683901 -2.12132 -2.12132 
C -2.683901 -1.55874 -3 -0.795609 -3 0 
C -3 0.795609 -2.683901 1.55874 -2.12132 2.12132 
C -1.55874 2.683901 -0.795609 3 0 3 
z
" style="stroke: #ffa500"/>
    </defs>
    <g clip-path="url(#pb4f123ae05)">
     <use xlink:href="#m1f948e0d89" x="174.33006" y="241.15623" style="fill: #ffa500; stroke: #ffa500"/>
     <use xlink:href="#m1f948e0d89" x="371.372694" y="197.089416" style="fill: #ffa500; stroke: #ffa500"/>
     <use xlink:href="#m1f948e0d89" x="296.573722" y="94.244961" style="fill: #ffa500; stroke: #ffa500"/>
     <use xlink:href="#m1f948e0d89" x="250.975064" y="190.105658" style="fill: #ffa500; stroke: #ffa500"/>
     <use xlink:href="#m1f948e0d89" x="99.599104" y="44.365061" style="fill: #ffa500; stroke: #ffa500"/>
     <use xlink:href="#m1f948e0d89" x="99.590856" y="78.943953" style="fill: #ffa500; stroke: #ffa500"/>
     <use xlink:href="#m1f948e0d89" x="66.106844" y="109.578062" style="fill: #ffa500; stroke: #ffa500"/>
     <use xlink:href="#m1f948e0d89" x="342.461954" y="159.371614" style="fill: #ffa500; stroke: #ffa500"/>
     <use xlink:href="#m1f948e0d89" x="251.815158" y="170.152659" style="fill: #ffa500; stroke: #ffa500"/>
     <use xlink:href="#m1f948e0d89" x="288.392987" y="80.035622" style="fill: #ffa500; stroke: #ffa500"/>
     <use xlink:href="#m1f948e0d89" x="53.282727" y="165.190634" style="fill: #ffa500; stroke: #ffa500"/>
     <use xlink:href="#m1f948e0d89" x="377.937273" y="209.740469" style="fill: #ffa500; stroke: #ffa500"/>
     <use xlink:href="#m1f948e0d89" x="330.925619" y="116.500206" style="fill: #ffa500; stroke: #ffa500"/>
     <use xlink:href="#m1f948e0d89" x="118.859831" y="97.778562" style="fill: #ffa500; stroke: #ffa500"/>
     <use xlink:href="#m1f948e0d89" x="108.424468" y="91.185106" style="fill: #ffa500; stroke: #ffa500"/>
     <use xlink:href="#m1f948e0d89" x="108.964647" y="41.49045" style="fill: #ffa500; stroke: #ffa500"/>
     <use xlink:href="#m1f948e0d89" x="150.289277" y="164.11493" style="fill: #ffa500; stroke: #ffa500"/>
     <use xlink:href="#m1f948e0d89" x="225.701709" y="242.52155" style="fill: #ffa500; stroke: #ffa500"/>
     <use xlink:href="#m1f948e0d89" x="193.961645" y="227.545642" style="fill: #ffa500; stroke: #ffa500"/>
     <use xlink:href="#m1f948e0d89" x="145.838998" y="177.109501" style="fill: #ffa500; stroke: #ffa500"/>
    </g>
   </g>
   <g id="patch_3">
    <path d="M 37.05 275.062 
L 37.05 8.95 
" style="fill: none; stroke: #000000; stroke-width: 0.8; stroke-linejoin: miter; stroke-linecap: square"/>
   </g>
   <g id="patch_4">
    <path d="M 394.17 275.062 
L 394.17 8.95 
" style="fill: none; stroke: #000000; stroke-width: 0.8; stroke-linejoin: miter; stroke-linecap: square"/>
   </g>
   <g id="patch_5">
    <path d="M 37.05 275.062 
L 394.17 275.062 
" style="fill: none; stroke: #000000; stroke-width: 0.8; stroke-linejoin: miter; stroke-linecap: square"/>
   </g>
   <g id="patch_6">
    <path d="M 37.05 8.95 
L 394.17 8.95 
" style="fill: none; stroke: #000000; stroke-width: 0.8; stroke-linejoin: miter; stroke-linecap: square"/>
   </g>
  </g>
 </g>
 <defs>
  <clipPath id="pb4f123ae05">
   <rect x="37.05" y="8.95" width="357.12" height="266.112"/>
  </clipPath>
 </defs>
</svg>
