<?xml version="1.0" encoding="utf-8" standalone="no"?>
<!DOCTYPE svg PUBLIC "-//W3C//DTD SVG 1.1//EN"
  "http://www.w3.org/Graphics/SVG/1.1/DTD/svg11.dtd">
<svg xmlns:xlink="http://www.w3.org/1999/xlink" width="567.705527pt" height="567.178125pt" viewBox="0 0 567.705527 567.178125" xmlns="http://www.w3.org/2000/svg" version="1.1">
 <metadata>
  <rdf:RDF xmlns:dc="http://purl.org/dc/elements/1.1/" xmlns:cc="http://creativecommons.org/ns#" xmlns:rdf="http://www.w3.org/1999/02/22-rdf-syntax-ns#">
   <cc:Work>
    <dc:type rdf:resource="http://purl.org/dc/dcmitype/StillImage"/>
    <dc:date>2023-06-23T00:02:07.693079</dc:date>
    <dc:format>image/svg+xml</dc:format>
    <dc:creator>
     <cc:Agent>
      <dc:title>Matplotlib v3.5.1, https://matplotlib.org/</dc:title>
     </cc:Agent>
    </dc:creator>
   </cc:Work>
  </rdf:RDF>
 </metadata>
 <defs>
  <style type="text/css">*{stroke-linejoin: round; stroke-linecap: butt}</style>
 </defs>
 <g id="figure_1">
  <g id="patch_1">
   <path d="M 0 567.178125 
L 567.705527 567.178125 
L 567.705527 0 
L 0 0 
z
" style="fill: #ffffff"/>
  </g>
  <g id="axes_1">
   <g id="patch_2">
    <path d="M 39.69 525.85 
L 300.097764 525.85 
L 300.097764 266.525 
L 39.69 266.525 
z
" style="fill: #ffffff"/>
   </g>
   <g id="matplotlib.axis_1">
    <g id="xtick_1">
     <g id="line2d_1">
      <defs>
       <path id="m031abb3923" d="M 0 0 
L 0 -3.5 
" style="stroke: #000000; stroke-width: 0.8"/>
      </defs>
      <g>
       <use xlink:href="#m031abb3923" x="113.509272" y="525.85" style="stroke: #000000; stroke-width: 0.8"/>
      </g>
     </g>
     <g id="line2d_2">
      <defs>
       <path id="m729ba7b802" d="M 0 0 
L 0 3.5 
" style="stroke: #000000; stroke-width: 0.8"/>
      </defs>
      <g>
       <use xlink:href="#m729ba7b802" x="113.509272" y="266.525" style="stroke: #000000; stroke-width: 0.8"/>
      </g>
     </g>
     <g id="text_1">
      <!-- $\mathdefault{−10}$ -->
      <g transform="translate(104.049272 537.204687)scale(0.11 -0.11)">
       <defs>
        <path id="HelveticaNeue-Medium-2212" d="M 307 1293 
L 307 1946 
L 3533 1946 
L 3533 1293 
L 307 1293 
z
" transform="scale(0.015625)"/>
        <path id="HelveticaNeue-Medium-31" d="M 339 3738 
Q 570 3738 787 3776 
Q 1005 3814 1181 3904 
Q 1357 3994 1481 4134 
Q 1606 4275 1645 4480 
L 2240 4480 
L 2240 0 
L 1440 0 
L 1440 3162 
L 339 3162 
L 339 3738 
z
" transform="scale(0.015625)"/>
        <path id="HelveticaNeue-Medium-30" d="M 1779 4570 
Q 2259 4570 2563 4349 
Q 2867 4128 3036 3785 
Q 3206 3443 3267 3033 
Q 3328 2624 3328 2240 
Q 3328 1856 3267 1446 
Q 3206 1037 3036 694 
Q 2867 352 2563 131 
Q 2259 -90 1779 -90 
Q 1299 -90 995 131 
Q 691 352 521 694 
Q 352 1037 291 1446 
Q 230 1856 230 2240 
Q 230 2624 291 3033 
Q 352 3443 521 3785 
Q 691 4128 995 4349 
Q 1299 4570 1779 4570 
z
M 1779 518 
Q 2016 518 2176 656 
Q 2336 794 2429 1027 
Q 2522 1261 2560 1574 
Q 2598 1888 2598 2240 
Q 2598 2592 2560 2902 
Q 2522 3213 2429 3449 
Q 2336 3686 2176 3824 
Q 2016 3962 1779 3962 
Q 1536 3962 1379 3824 
Q 1222 3686 1129 3449 
Q 1037 3213 998 2902 
Q 960 2592 960 2240 
Q 960 1888 998 1574 
Q 1037 1261 1129 1027 
Q 1222 794 1379 656 
Q 1536 518 1779 518 
z
" transform="scale(0.015625)"/>
       </defs>
       <use xlink:href="#HelveticaNeue-Medium-2212" transform="translate(0 0.59375)"/>
       <use xlink:href="#HelveticaNeue-Medium-31" transform="translate(59.999985 0.59375)"/>
       <use xlink:href="#HelveticaNeue-Medium-30" transform="translate(115.599976 0.59375)"/>
      </g>
     </g>
    </g>
    <g id="xtick_2">
     <g id="line2d_3">
      <g>
       <use xlink:href="#m031abb3923" x="180.723048" y="525.85" style="stroke: #000000; stroke-width: 0.8"/>
      </g>
     </g>
     <g id="line2d_4">
      <g>
       <use xlink:href="#m729ba7b802" x="180.723048" y="266.525" style="stroke: #000000; stroke-width: 0.8"/>
      </g>
     </g>
     <g id="text_2">
      <!-- $\mathdefault{0}$ -->
      <g transform="translate(177.643048 537.204687)scale(0.11 -0.11)">
       <use xlink:href="#HelveticaNeue-Medium-30" transform="translate(0 0.59375)"/>
      </g>
     </g>
    </g>
    <g id="xtick_3">
     <g id="line2d_5">
      <g>
       <use xlink:href="#m031abb3923" x="247.936825" y="525.85" style="stroke: #000000; stroke-width: 0.8"/>
      </g>
     </g>
     <g id="line2d_6">
      <g>
       <use xlink:href="#m729ba7b802" x="247.936825" y="266.525" style="stroke: #000000; stroke-width: 0.8"/>
      </g>
     </g>
     <g id="text_3">
      <!-- $\mathdefault{10}$ -->
      <g transform="translate(241.776825 537.204687)scale(0.11 -0.11)">
       <use xlink:href="#HelveticaNeue-Medium-31" transform="translate(0 0.59375)"/>
       <use xlink:href="#HelveticaNeue-Medium-30" transform="translate(55.599991 0.59375)"/>
      </g>
     </g>
    </g>
    <g id="text_4">
     <!-- mean -->
     <g transform="translate(152.002319 557.305)scale(0.14 -0.14)">
      <defs>
       <path id="HelveticaNeue-Medium-6d" d="M 384 3309 
L 1075 3309 
L 1075 2848 
L 1094 2848 
Q 1178 2970 1274 3072 
Q 1370 3174 1488 3244 
Q 1606 3315 1760 3356 
Q 1914 3398 2112 3398 
Q 2413 3398 2672 3264 
Q 2931 3130 3040 2848 
Q 3226 3104 3469 3251 
Q 3712 3398 4077 3398 
Q 4602 3398 4893 3142 
Q 5184 2886 5184 2285 
L 5184 0 
L 4454 0 
L 4454 1933 
Q 4454 2131 4441 2294 
Q 4429 2458 4368 2576 
Q 4307 2694 4185 2758 
Q 4064 2822 3853 2822 
Q 3482 2822 3315 2592 
Q 3149 2362 3149 1939 
L 3149 0 
L 2419 0 
L 2419 2125 
Q 2419 2470 2294 2646 
Q 2170 2822 1837 2822 
Q 1696 2822 1565 2764 
Q 1434 2707 1334 2598 
Q 1235 2490 1174 2330 
Q 1114 2170 1114 1965 
L 1114 0 
L 384 0 
L 384 3309 
z
" transform="scale(0.015625)"/>
       <path id="HelveticaNeue-Medium-65" d="M 2656 1946 
Q 2643 2118 2582 2278 
Q 2522 2438 2416 2556 
Q 2310 2675 2160 2748 
Q 2010 2822 1824 2822 
Q 1632 2822 1475 2755 
Q 1318 2688 1206 2569 
Q 1094 2451 1027 2291 
Q 960 2131 954 1946 
L 2656 1946 
z
M 954 1466 
Q 954 1274 1008 1094 
Q 1062 915 1171 780 
Q 1280 646 1446 566 
Q 1613 486 1843 486 
Q 2163 486 2358 624 
Q 2554 762 2650 1037 
L 3341 1037 
Q 3283 768 3142 557 
Q 3002 346 2803 202 
Q 2605 58 2358 -16 
Q 2112 -90 1843 -90 
Q 1453 -90 1152 38 
Q 851 166 643 396 
Q 435 627 329 947 
Q 224 1267 224 1651 
Q 224 2003 336 2320 
Q 448 2637 656 2877 
Q 864 3117 1158 3257 
Q 1453 3398 1824 3398 
Q 2214 3398 2524 3235 
Q 2835 3072 3040 2803 
Q 3245 2534 3337 2185 
Q 3430 1837 3386 1466 
L 954 1466 
z
" transform="scale(0.015625)"/>
       <path id="HelveticaNeue-Medium-61" d="M 3155 736 
Q 3155 602 3190 544 
Q 3226 486 3328 486 
Q 3360 486 3405 486 
Q 3450 486 3507 499 
L 3507 -6 
Q 3469 -19 3408 -35 
Q 3347 -51 3283 -64 
Q 3219 -77 3155 -83 
Q 3091 -90 3046 -90 
Q 2822 -90 2675 0 
Q 2528 90 2483 314 
Q 2266 102 1949 6 
Q 1632 -90 1338 -90 
Q 1114 -90 909 -29 
Q 704 32 547 150 
Q 390 269 297 451 
Q 205 634 205 877 
Q 205 1184 317 1376 
Q 429 1568 611 1677 
Q 794 1786 1021 1834 
Q 1248 1882 1478 1907 
Q 1677 1946 1856 1962 
Q 2035 1978 2172 2016 
Q 2310 2054 2390 2134 
Q 2470 2214 2470 2374 
Q 2470 2515 2403 2604 
Q 2336 2694 2237 2742 
Q 2138 2790 2016 2806 
Q 1894 2822 1786 2822 
Q 1478 2822 1280 2694 
Q 1082 2566 1056 2298 
L 326 2298 
Q 346 2618 480 2829 
Q 614 3040 822 3168 
Q 1030 3296 1292 3347 
Q 1555 3398 1830 3398 
Q 2074 3398 2310 3347 
Q 2547 3296 2736 3181 
Q 2925 3066 3040 2883 
Q 3155 2701 3155 2438 
L 3155 736 
z
M 2426 1658 
Q 2259 1549 2016 1526 
Q 1773 1504 1530 1459 
Q 1414 1440 1305 1405 
Q 1197 1370 1113 1309 
Q 1030 1248 982 1149 
Q 934 1050 934 909 
Q 934 787 1004 704 
Q 1075 621 1174 573 
Q 1274 525 1392 505 
Q 1510 486 1606 486 
Q 1728 486 1869 518 
Q 2010 550 2134 627 
Q 2259 704 2342 822 
Q 2426 941 2426 1114 
L 2426 1658 
z
" transform="scale(0.015625)"/>
       <path id="HelveticaNeue-Medium-6e" d="M 384 3309 
L 1075 3309 
L 1075 2822 
L 1088 2810 
Q 1254 3085 1523 3241 
Q 1792 3398 2118 3398 
Q 2662 3398 2976 3116 
Q 3290 2835 3290 2272 
L 3290 0 
L 2560 0 
L 2560 2080 
Q 2547 2470 2393 2646 
Q 2240 2822 1914 2822 
Q 1728 2822 1581 2755 
Q 1434 2688 1331 2569 
Q 1229 2451 1171 2291 
Q 1114 2131 1114 1952 
L 1114 0 
L 384 0 
L 384 3309 
z
" transform="scale(0.015625)"/>
      </defs>
      <use xlink:href="#HelveticaNeue-Medium-6d"/>
      <use xlink:href="#HelveticaNeue-Medium-65" x="86.999985"/>
      <use xlink:href="#HelveticaNeue-Medium-61" x="142.599976"/>
      <use xlink:href="#HelveticaNeue-Medium-6e" x="198.199966"/>
     </g>
    </g>
   </g>
   <g id="matplotlib.axis_2">
    <g id="ytick_1">
     <g id="line2d_7">
      <defs>
       <path id="m473619e760" d="M 0 0 
L 3.5 0 
" style="stroke: #000000; stroke-width: 0.8"/>
      </defs>
      <g>
       <use xlink:href="#m473619e760" x="39.69" y="513.352424" style="stroke: #000000; stroke-width: 0.8"/>
      </g>
     </g>
     <g id="line2d_8">
      <defs>
       <path id="m738d0c6fd8" d="M 0 0 
L -3.5 0 
" style="stroke: #000000; stroke-width: 0.8"/>
      </defs>
      <g>
       <use xlink:href="#m738d0c6fd8" x="300.097764" y="513.352424" style="stroke: #000000; stroke-width: 0.8"/>
      </g>
     </g>
     <g id="text_5">
      <!-- $\mathdefault{0}$ -->
      <g transform="translate(30.03 517.279767)scale(0.11 -0.11)">
       <use xlink:href="#HelveticaNeue-Medium-30" transform="translate(0 0.59375)"/>
      </g>
     </g>
    </g>
    <g id="ytick_2">
     <g id="line2d_9">
      <g>
       <use xlink:href="#m473619e760" x="39.69" y="449.423283" style="stroke: #000000; stroke-width: 0.8"/>
      </g>
     </g>
     <g id="line2d_10">
      <g>
       <use xlink:href="#m738d0c6fd8" x="300.097764" y="449.423283" style="stroke: #000000; stroke-width: 0.8"/>
      </g>
     </g>
     <g id="text_6">
      <!-- $\mathdefault{10}$ -->
      <g transform="translate(23.87 453.350626)scale(0.11 -0.11)">
       <use xlink:href="#HelveticaNeue-Medium-31" transform="translate(0 0.59375)"/>
       <use xlink:href="#HelveticaNeue-Medium-30" transform="translate(55.599991 0.59375)"/>
      </g>
     </g>
    </g>
    <g id="ytick_3">
     <g id="line2d_11">
      <g>
       <use xlink:href="#m473619e760" x="39.69" y="385.494142" style="stroke: #000000; stroke-width: 0.8"/>
      </g>
     </g>
     <g id="line2d_12">
      <g>
       <use xlink:href="#m738d0c6fd8" x="300.097764" y="385.494142" style="stroke: #000000; stroke-width: 0.8"/>
      </g>
     </g>
     <g id="text_7">
      <!-- $\mathdefault{20}$ -->
      <g transform="translate(23.87 389.421485)scale(0.11 -0.11)">
       <defs>
        <path id="HelveticaNeue-Medium-32" d="M 3309 0 
L 250 0 
Q 256 557 518 973 
Q 781 1389 1235 1696 
Q 1453 1856 1689 2006 
Q 1926 2157 2124 2329 
Q 2323 2502 2451 2704 
Q 2579 2906 2586 3168 
Q 2586 3290 2557 3427 
Q 2528 3565 2445 3683 
Q 2362 3802 2214 3882 
Q 2067 3962 1830 3962 
Q 1613 3962 1469 3875 
Q 1325 3789 1238 3638 
Q 1152 3488 1110 3283 
Q 1069 3078 1062 2842 
L 333 2842 
Q 333 3213 432 3529 
Q 531 3846 729 4076 
Q 928 4307 1213 4438 
Q 1498 4570 1875 4570 
Q 2285 4570 2560 4435 
Q 2835 4301 3004 4096 
Q 3174 3891 3244 3651 
Q 3315 3411 3315 3194 
Q 3315 2925 3232 2707 
Q 3149 2490 3008 2307 
Q 2867 2125 2688 1971 
Q 2509 1818 2317 1683 
Q 2125 1549 1933 1427 
Q 1741 1306 1577 1184 
Q 1414 1062 1292 931 
Q 1171 800 1126 653 
L 3309 653 
L 3309 0 
z
" transform="scale(0.015625)"/>
       </defs>
       <use xlink:href="#HelveticaNeue-Medium-32" transform="translate(0 0.59375)"/>
       <use xlink:href="#HelveticaNeue-Medium-30" transform="translate(55.599991 0.59375)"/>
      </g>
     </g>
    </g>
    <g id="ytick_4">
     <g id="line2d_13">
      <g>
       <use xlink:href="#m473619e760" x="39.69" y="321.565001" style="stroke: #000000; stroke-width: 0.8"/>
      </g>
     </g>
     <g id="line2d_14">
      <g>
       <use xlink:href="#m738d0c6fd8" x="300.097764" y="321.565001" style="stroke: #000000; stroke-width: 0.8"/>
      </g>
     </g>
     <g id="text_8">
      <!-- $\mathdefault{30}$ -->
      <g transform="translate(23.87 325.492344)scale(0.11 -0.11)">
       <defs>
        <path id="HelveticaNeue-Medium-33" d="M 1459 2624 
Q 1638 2618 1817 2650 
Q 1997 2682 2137 2762 
Q 2278 2842 2364 2982 
Q 2451 3123 2451 3328 
Q 2451 3616 2256 3789 
Q 2061 3962 1754 3962 
Q 1562 3962 1421 3885 
Q 1280 3808 1187 3677 
Q 1094 3546 1049 3382 
Q 1005 3219 1011 3046 
L 282 3046 
Q 294 3373 403 3651 
Q 512 3930 701 4134 
Q 890 4339 1158 4454 
Q 1427 4570 1766 4570 
Q 2029 4570 2281 4493 
Q 2534 4416 2736 4269 
Q 2938 4122 3059 3894 
Q 3181 3667 3181 3373 
Q 3181 3034 3027 2781 
Q 2874 2528 2547 2413 
L 2547 2400 
Q 2931 2323 3145 2019 
Q 3360 1715 3360 1280 
Q 3360 960 3232 707 
Q 3104 454 2886 278 
Q 2669 102 2381 6 
Q 2093 -90 1773 -90 
Q 1382 -90 1091 22 
Q 800 134 605 339 
Q 410 544 307 832 
Q 205 1120 198 1472 
L 928 1472 
Q 915 1062 1129 790 
Q 1344 518 1773 518 
Q 2138 518 2384 726 
Q 2630 934 2630 1318 
Q 2630 1581 2528 1734 
Q 2426 1888 2259 1968 
Q 2093 2048 1885 2067 
Q 1677 2086 1459 2080 
L 1459 2624 
z
" transform="scale(0.015625)"/>
       </defs>
       <use xlink:href="#HelveticaNeue-Medium-33" transform="translate(0 0.59375)"/>
       <use xlink:href="#HelveticaNeue-Medium-30" transform="translate(55.599991 0.59375)"/>
      </g>
     </g>
    </g>
    <g id="text_9">
     <!-- scatter -->
     <g transform="translate(17.196875 418.621406)rotate(-90)scale(0.14 -0.14)">
      <defs>
       <path id="HelveticaNeue-Medium-73" d="M 934 1062 
Q 966 742 1177 614 
Q 1389 486 1683 486 
Q 1786 486 1917 502 
Q 2048 518 2163 563 
Q 2278 608 2352 694 
Q 2426 781 2419 921 
Q 2413 1062 2317 1152 
Q 2221 1242 2070 1296 
Q 1920 1350 1728 1388 
Q 1536 1427 1338 1472 
Q 1133 1517 944 1581 
Q 755 1645 604 1753 
Q 454 1862 364 2032 
Q 275 2202 275 2451 
Q 275 2720 406 2902 
Q 538 3085 739 3197 
Q 941 3309 1187 3353 
Q 1434 3398 1658 3398 
Q 1914 3398 2147 3344 
Q 2381 3290 2569 3168 
Q 2758 3046 2883 2851 
Q 3008 2656 3040 2381 
L 2278 2381 
Q 2227 2643 2038 2732 
Q 1850 2822 1606 2822 
Q 1530 2822 1424 2809 
Q 1318 2797 1225 2761 
Q 1133 2726 1069 2659 
Q 1005 2592 1005 2483 
Q 1005 2349 1097 2265 
Q 1190 2182 1340 2128 
Q 1491 2074 1683 2035 
Q 1875 1997 2080 1952 
Q 2278 1907 2470 1843 
Q 2662 1779 2812 1670 
Q 2963 1562 3056 1395 
Q 3149 1229 3149 986 
Q 3149 691 3014 486 
Q 2880 282 2665 154 
Q 2451 26 2188 -32 
Q 1926 -90 1670 -90 
Q 1357 -90 1091 -19 
Q 826 51 630 195 
Q 435 339 323 553 
Q 211 768 205 1062 
L 934 1062 
z
" transform="scale(0.015625)"/>
       <path id="HelveticaNeue-Medium-63" d="M 2618 2202 
Q 2573 2509 2371 2665 
Q 2170 2822 1862 2822 
Q 1722 2822 1562 2774 
Q 1402 2726 1267 2595 
Q 1133 2464 1043 2230 
Q 954 1997 954 1619 
Q 954 1414 1002 1209 
Q 1050 1005 1155 845 
Q 1261 685 1427 585 
Q 1594 486 1830 486 
Q 2150 486 2358 684 
Q 2566 883 2618 1242 
L 3347 1242 
Q 3245 595 2857 252 
Q 2470 -90 1830 -90 
Q 1440 -90 1142 41 
Q 845 173 640 400 
Q 435 627 329 940 
Q 224 1254 224 1619 
Q 224 1990 326 2316 
Q 429 2643 633 2883 
Q 838 3123 1142 3260 
Q 1446 3398 1856 3398 
Q 2144 3398 2403 3324 
Q 2662 3251 2864 3104 
Q 3066 2957 3194 2733 
Q 3322 2509 3347 2202 
L 2618 2202 
z
" transform="scale(0.015625)"/>
       <path id="HelveticaNeue-Medium-74" d="M 51 3309 
L 602 3309 
L 602 4301 
L 1331 4301 
L 1331 3309 
L 1990 3309 
L 1990 2765 
L 1331 2765 
L 1331 998 
Q 1331 883 1340 800 
Q 1350 717 1385 659 
Q 1421 602 1491 573 
Q 1562 544 1683 544 
Q 1760 544 1837 547 
Q 1914 550 1990 570 
L 1990 6 
Q 1869 -6 1753 -19 
Q 1638 -32 1517 -32 
Q 1229 -32 1053 22 
Q 877 77 777 182 
Q 678 288 643 448 
Q 608 608 602 813 
L 602 2765 
L 51 2765 
L 51 3309 
z
" transform="scale(0.015625)"/>
       <path id="HelveticaNeue-Medium-72" d="M 384 3309 
L 1069 3309 
L 1069 2669 
L 1082 2669 
Q 1114 2803 1206 2931 
Q 1299 3059 1430 3164 
Q 1562 3270 1722 3334 
Q 1882 3398 2048 3398 
Q 2176 3398 2224 3392 
Q 2272 3386 2323 3379 
L 2323 2675 
Q 2246 2688 2166 2697 
Q 2086 2707 2010 2707 
Q 1824 2707 1661 2633 
Q 1498 2560 1376 2416 
Q 1254 2272 1184 2061 
Q 1114 1850 1114 1574 
L 1114 0 
L 384 0 
L 384 3309 
z
" transform="scale(0.015625)"/>
      </defs>
      <use xlink:href="#HelveticaNeue-Medium-73"/>
      <use xlink:href="#HelveticaNeue-Medium-63" x="51.899994"/>
      <use xlink:href="#HelveticaNeue-Medium-61" x="107.499985"/>
      <use xlink:href="#HelveticaNeue-Medium-74" x="163.099976"/>
      <use xlink:href="#HelveticaNeue-Medium-74" x="196.399963"/>
      <use xlink:href="#HelveticaNeue-Medium-65" x="229.699951"/>
      <use xlink:href="#HelveticaNeue-Medium-72" x="285.299942"/>
     </g>
    </g>
   </g>
   <g id="PathCollection_1">
    <path d="M 182.746631 496.549337 
L 184.118031 496.846544 
L 185.489432 497.097698 
L 186.860833 497.299226 
L 188.232233 497.454576 
L 189.603634 497.56857 
L 190.975035 497.630388 
L 192.346435 497.648831 
L 193.717836 497.605138 
L 195.089237 497.518754 
L 196.460637 497.379108 
L 197.832038 497.183469 
L 199.203439 496.923573 
L 200.574839 496.592123 
L 200.740759 496.545718 
L 201.94624 496.208716 
L 203.317641 495.750021 
L 204.689041 495.208282 
L 204.715282 495.196357 
L 206.060442 494.592826 
L 207.431842 493.907213 
L 207.539033 493.846995 
L 208.803243 493.112348 
L 209.75673 492.497634 
L 210.174644 492.213448 
L 211.546044 491.17373 
L 211.577368 491.148273 
L 212.917445 490.024412 
L 213.164804 489.798911 
L 214.288846 488.705314 
L 214.539829 488.44955 
L 215.660246 487.207782 
L 215.752959 487.100189 
L 216.82914 485.750827 
L 217.031647 485.48348 
L 217.800854 484.401466 
L 218.403048 483.461302 
L 218.662207 483.052105 
L 219.441493 481.702744 
L 219.774448 481.069359 
L 220.151032 480.353382 
L 220.772017 479.004021 
L 221.145849 478.082634 
L 221.317619 477.65466 
L 221.797871 476.305298 
L 222.220505 474.955937 
L 222.51725 473.892762 
L 222.600806 473.606576 
L 222.955298 472.257214 
L 223.244923 470.907853 
L 223.472057 469.558492 
L 223.66935 468.20913 
L 223.814783 466.859769 
L 223.88865 465.841775 
L 223.913605 465.510408 
L 223.990322 464.161046 
L 224.019042 462.811685 
L 224.002557 461.462324 
L 223.967579 460.112963 
L 223.88865 458.872086 
L 223.881984 458.763601 
L 223.742266 457.41424 
L 223.569372 456.064879 
L 223.347537 454.715517 
L 223.088527 453.366156 
L 222.816619 452.016795 
L 222.51725 450.838734 
L 222.475475 450.667433 
L 222.100049 449.318072 
L 221.689127 447.968711 
L 221.229674 446.619349 
L 221.145849 446.398682 
L 220.715455 445.269988 
L 220.151807 443.920627 
L 219.774448 443.101002 
L 219.532554 442.571265 
L 218.858088 441.221904 
L 218.403048 440.349111 
L 218.154994 439.872543 
L 217.392879 438.523182 
L 217.031647 437.9415 
L 216.539167 437.17382 
L 215.6673 435.824459 
L 215.660246 435.814373 
L 214.713633 434.475098 
L 214.288846 433.919126 
L 213.672541 433.125736 
L 212.917445 432.200809 
L 212.560072 431.776375 
L 211.546044 430.627069 
L 211.359486 430.427014 
L 210.174644 429.232274 
L 210.01464 429.077652 
L 208.803243 427.900643 
L 208.618048 427.728291 
L 207.431842 426.674151 
L 207.073811 426.37893 
L 206.060442 425.571947 
L 205.358723 425.029568 
L 204.689041 424.522667 
L 203.496108 423.680207 
L 203.317641 423.555645 
L 201.94624 422.62742 
L 201.450709 422.330846 
L 200.574839 421.816621 
L 199.203439 421.05862 
L 199.059153 420.981484 
L 197.832038 420.318453 
L 196.460637 419.659422 
L 196.400112 419.632123 
L 195.089237 419.040709 
L 193.717836 418.478315 
L 193.204539 418.282762 
L 192.346435 417.930831 
L 190.975035 417.44759 
L 189.603634 416.97554 
L 189.465991 416.933401 
L 188.232233 416.5642 
L 186.860833 416.18297 
L 185.489432 415.860617 
L 184.188824 415.584039 
L 184.118031 415.568444 
L 182.746631 415.292435 
L 181.37523 415.052673 
L 180.00383 414.86386 
L 178.632429 414.688035 
L 177.261028 414.556147 
L 175.889628 414.475858 
L 174.518227 414.40205 
L 173.146826 414.378619 
L 171.775426 414.393594 
L 170.404025 414.439357 
L 169.032624 414.512892 
L 167.661224 414.626396 
L 166.289823 414.767923 
L 164.918422 414.959051 
L 163.547022 415.207882 
L 162.175621 415.469944 
L 161.671988 415.584039 
L 160.80422 415.780841 
L 159.43282 416.136831 
L 158.061419 416.540012 
L 156.896098 416.933401 
L 156.690019 417.004124 
L 155.318618 417.513276 
L 153.947217 418.142899 
L 153.657587 418.282762 
L 152.575817 418.806049 
L 151.204416 419.534761 
L 151.033293 419.632123 
L 149.833015 420.334344 
L 148.865385 420.981484 
L 148.461615 421.259211 
L 147.090214 422.256768 
L 146.991589 422.330846 
L 145.718813 423.351877 
L 145.340771 423.680207 
L 144.347413 424.614611 
L 143.933717 425.029568 
L 142.976012 426.040611 
L 142.672282 426.37893 
L 141.610167 427.728291 
L 141.604611 427.735927 
L 140.695408 429.077652 
L 140.233211 429.83477 
L 139.873959 430.427014 
L 139.180154 431.776375 
L 138.86181 432.455058 
L 138.555948 433.125736 
L 138.037236 434.475098 
L 137.608626 435.824459 
L 137.490409 436.262371 
L 137.24505 437.17382 
L 136.950784 438.523182 
L 136.745846 439.872543 
L 136.596287 441.221904 
L 136.515507 442.571265 
L 136.480893 443.920627 
L 136.50325 445.269988 
L 136.593427 446.619349 
L 136.729618 447.968711 
L 136.923084 449.318072 
L 137.148097 450.667433 
L 137.448093 452.016795 
L 137.490409 452.182923 
L 137.77961 453.366156 
L 138.144974 454.715517 
L 138.561514 456.064879 
L 138.86181 456.903387 
L 139.036562 457.41424 
L 139.54444 458.763601 
L 140.10145 460.112963 
L 140.233211 460.405837 
L 140.68284 461.462324 
L 141.324966 462.811685 
L 141.604611 463.364914 
L 142.003261 464.161046 
L 142.735387 465.510408 
L 142.976012 465.926791 
L 143.505217 466.859769 
L 144.347413 468.19403 
L 144.356812 468.20913 
L 145.225875 469.558492 
L 145.718813 470.256179 
L 146.172583 470.907853 
L 147.090214 472.173207 
L 147.149891 472.257214 
L 148.174091 473.606576 
L 148.461615 473.961534 
L 149.276878 474.955937 
L 149.833015 475.618315 
L 150.41149 476.305298 
L 151.204416 477.198167 
L 151.616763 477.65466 
L 152.575817 478.667411 
L 152.898376 479.004021 
L 153.947217 480.057945 
L 154.244352 480.353382 
L 155.318618 481.370745 
L 155.68132 481.702744 
L 156.690019 482.604332 
L 157.205755 483.052105 
L 158.061419 483.77976 
L 158.817774 484.401466 
L 159.43282 484.898463 
L 160.538514 485.750827 
L 160.80422 485.951808 
L 162.175621 486.945078 
L 162.397961 487.100189 
L 163.547022 487.909063 
L 164.358808 488.44955 
L 164.918422 488.822504 
L 166.289823 489.687258 
L 166.476932 489.798911 
L 167.661224 490.512178 
L 168.793489 491.148273 
L 169.032624 491.282361 
L 170.404025 492.008199 
L 171.407623 492.497634 
L 171.775426 492.678165 
L 173.146826 493.310573 
L 174.418327 493.846995 
L 174.518227 493.890283 
L 175.889628 494.444833 
L 177.261028 494.94393 
L 178.035832 495.196357 
L 178.632429 495.401239 
L 180.00383 495.834429 
L 181.37523 496.215559 
L 182.732241 496.545718 
L 182.746631 496.549337 
z
" clip-path="url(#p902b383ae1)" style="fill: none; stroke: #e41a1c; stroke-width: 1.142857"/>
   </g>
   <g id="PathCollection_2">
    <path d="M 199.241644 504.718423 
L 200.844931 504.756648 
L 202.448218 504.734989 
L 203.860669 504.665487 
L 204.051505 504.656349 
L 205.654792 504.514433 
L 207.25808 504.314702 
L 208.861367 504.046737 
L 210.464654 503.701411 
L 212.067941 503.283246 
L 212.214682 503.237698 
L 213.671228 502.775193 
L 215.274515 502.173377 
L 216.122569 501.80991 
L 216.877802 501.481859 
L 218.48109 500.675378 
L 218.993301 500.382122 
L 220.084377 499.735288 
L 221.264032 498.954334 
L 221.687664 498.65621 
L 223.155117 497.526545 
L 223.290951 497.416964 
L 224.82614 496.098757 
L 224.894238 496.034423 
L 226.225988 494.670969 
L 226.497525 494.364851 
L 227.441068 493.24318 
L 228.100813 492.371836 
L 228.503274 491.815392 
L 229.410542 490.387604 
L 229.7041 489.877377 
L 230.22517 488.959816 
L 230.930445 487.532027 
L 231.307387 486.711144 
L 231.581541 486.104239 
L 232.119455 484.676451 
L 232.595083 483.248662 
L 232.910674 482.111962 
L 232.993423 481.820874 
L 233.328185 480.393086 
L 233.617115 478.965298 
L 233.834004 477.537509 
L 234.00154 476.109721 
L 234.130057 474.681933 
L 234.181359 473.254145 
L 234.193223 471.826356 
L 234.170202 470.398568 
L 234.110764 468.97078 
L 234.003161 467.542991 
L 233.835803 466.115203 
L 233.617648 464.687415 
L 233.355913 463.259627 
L 233.056309 461.831838 
L 232.910674 461.219069 
L 232.725848 460.40405 
L 232.349551 458.976262 
L 231.909593 457.548473 
L 231.429688 456.120685 
L 231.307387 455.782248 
L 230.918882 454.692897 
L 230.339583 453.265109 
L 229.7041 451.845534 
L 229.700481 451.83732 
L 229.07225 450.409532 
L 228.338694 448.981744 
L 228.100813 448.539454 
L 227.568521 447.553955 
L 226.747021 446.126167 
L 226.497525 445.728151 
L 225.84937 444.698379 
L 224.896245 443.270591 
L 224.894238 443.267723 
L 223.886793 441.842802 
L 223.290951 441.028809 
L 222.839807 440.415014 
L 221.688096 438.987226 
L 221.687664 438.986733 
L 220.385729 437.559437 
L 220.084377 437.237797 
L 219.020184 436.131649 
L 218.48109 435.586405 
L 217.580571 434.703861 
L 216.877802 434.036927 
L 216.035919 433.276073 
L 215.274515 432.62421 
L 214.321733 431.848284 
L 213.671228 431.317167 
L 212.491067 430.420496 
L 212.067941 430.107038 
L 210.47358 428.992708 
L 210.464654 428.986484 
L 208.861367 427.922386 
L 208.282578 427.56492 
L 207.25808 426.941171 
L 205.832319 426.137131 
L 205.654792 426.035202 
L 204.051505 425.119946 
L 203.225195 424.709343 
L 202.448218 424.315389 
L 200.844931 423.554997 
L 200.214842 423.281555 
L 199.241644 422.865255 
L 197.638357 422.258958 
L 196.534575 421.853766 
L 196.03507 421.665421 
L 194.431782 421.103063 
L 192.828495 420.617603 
L 192.128618 420.425978 
L 191.225208 420.168801 
L 189.621921 419.740453 
L 188.018634 419.384723 
L 186.415347 419.070491 
L 185.981711 418.99819 
L 184.812059 418.800354 
L 183.208772 418.558508 
L 181.605485 418.348618 
L 180.002198 418.176448 
L 178.398911 418.068223 
L 176.795624 417.993189 
L 175.192337 417.944642 
L 173.589049 417.951358 
L 171.985762 417.989628 
L 170.382475 418.081708 
L 168.779188 418.237416 
L 167.175901 418.416847 
L 165.572614 418.660593 
L 163.969327 418.955323 
L 163.760842 418.99819 
L 162.366039 419.290584 
L 160.762752 419.724967 
L 159.159465 420.216569 
L 158.547419 420.425978 
L 157.556178 420.762879 
L 155.952891 421.396332 
L 154.929634 421.853766 
L 154.349604 422.114164 
L 152.746316 422.929943 
L 152.103301 423.281555 
L 151.143029 423.834898 
L 149.816635 424.709343 
L 149.539742 424.894944 
L 147.936455 426.065945 
L 147.845274 426.137131 
L 146.333168 427.377691 
L 146.123445 427.56492 
L 144.729881 428.92731 
L 144.667098 428.992708 
L 143.38735 430.420496 
L 143.126594 430.753746 
L 142.30771 431.848284 
L 141.523306 432.952863 
L 141.302579 433.276073 
L 140.450148 434.703861 
L 139.920019 435.75823 
L 139.74326 436.131649 
L 139.106745 437.559437 
L 138.576862 438.987226 
L 138.316732 439.83414 
L 138.129743 440.415014 
L 137.741822 441.842802 
L 137.448369 443.270591 
L 137.244862 444.698379 
L 137.09116 446.126167 
L 137.007779 447.553955 
L 137.011849 448.981744 
L 137.058883 450.409532 
L 137.174526 451.83732 
L 137.353847 453.265109 
L 137.593263 454.692897 
L 137.904998 456.120685 
L 138.259804 457.548473 
L 138.316732 457.744867 
L 138.641868 458.976262 
L 139.076461 460.40405 
L 139.575604 461.831838 
L 139.920019 462.710327 
L 140.131778 463.259627 
L 140.768119 464.687415 
L 141.444586 466.115203 
L 141.523306 466.266381 
L 142.171257 467.542991 
L 142.955836 468.97078 
L 143.126594 469.25809 
L 143.794982 470.398568 
L 144.722756 471.826356 
L 144.729881 471.836826 
L 145.652776 473.254145 
L 146.333168 474.218068 
L 146.657774 474.681933 
L 147.716364 476.109721 
L 147.936455 476.386734 
L 148.848539 477.537509 
L 149.539742 478.358005 
L 150.050017 478.965298 
L 151.143029 480.195353 
L 151.319708 480.393086 
L 152.658087 481.820874 
L 152.746316 481.909548 
L 154.088691 483.248662 
L 154.349604 483.502587 
L 155.582806 484.676451 
L 155.952891 485.020572 
L 157.138096 486.104239 
L 157.556178 486.474398 
L 158.795121 487.532027 
L 159.159465 487.837758 
L 160.536348 488.959816 
L 160.762752 489.138622 
L 162.366039 490.37595 
L 162.381705 490.387604 
L 163.969327 491.554254 
L 164.340316 491.815392 
L 165.572614 492.669441 
L 166.443273 493.24318 
L 167.175901 493.724638 
L 168.694752 494.670969 
L 168.779188 494.723206 
L 170.382475 495.677709 
L 171.137155 496.098757 
L 171.985762 496.572355 
L 173.589049 497.411382 
L 173.821765 497.526545 
L 175.192337 498.226518 
L 176.739342 498.954334 
L 176.795624 498.98106 
L 178.398911 499.6984 
L 180.002198 500.351846 
L 180.081648 500.382122 
L 181.605485 500.984446 
L 183.208772 501.558922 
L 183.978303 501.80991 
L 184.812059 502.09196 
L 186.415347 502.580613 
L 188.018634 503.01563 
L 188.937058 503.237698 
L 189.621921 503.409159 
L 191.225208 503.752529 
L 192.828495 504.044885 
L 194.431782 504.288408 
L 196.03507 504.481596 
L 197.638357 504.622387 
L 198.380257 504.665487 
L 199.241644 504.718423 
z
" clip-path="url(#p902b383ae1)" style="fill: none; stroke: #377eb8; stroke-width: 1.142857"/>
   </g>
   <g id="PathCollection_3">
    <path d="M 191.761881 507.799092 
L 193.041228 507.842887 
L 194.320574 507.859067 
L 195.599921 507.843499 
L 196.879267 507.790457 
L 197.739254 507.730012 
L 198.158613 507.701232 
L 199.43796 507.574113 
L 200.717306 507.412493 
L 201.996652 507.205864 
L 203.275999 506.95636 
L 204.555345 506.640196 
L 204.829174 506.568968 
L 205.834692 506.310521 
L 207.114038 505.916319 
L 208.393384 505.475993 
L 208.570079 505.407925 
L 209.672731 504.976622 
L 210.952077 504.426081 
L 211.32428 504.246881 
L 212.231423 503.805219 
L 213.51077 503.128523 
L 213.587437 503.085837 
L 214.790116 502.404867 
L 215.570396 501.924794 
L 216.069463 501.608329 
L 217.302693 500.76375 
L 217.348809 500.73064 
L 218.628155 499.751676 
L 218.813836 499.602707 
L 219.907502 498.689523 
L 220.188273 498.441663 
L 221.186848 497.523192 
L 221.439596 497.280619 
L 222.466194 496.202094 
L 222.542422 496.119576 
L 223.559875 494.958532 
L 223.745541 494.727117 
L 224.478999 493.797489 
L 225.024887 493.057311 
L 225.326915 492.636445 
L 226.092724 491.475401 
L 226.304234 491.12978 
L 226.81481 490.314358 
L 227.486534 489.153314 
L 227.58358 488.968469 
L 228.096132 487.992271 
L 228.64421 486.831227 
L 228.862926 486.295841 
L 229.122987 485.670184 
L 229.54777 484.50914 
L 229.937822 483.348096 
L 230.142273 482.611228 
L 230.261094 482.187053 
L 230.549773 481.026009 
L 230.790705 479.864966 
L 230.99673 478.703922 
L 231.149993 477.542878 
L 231.279355 476.381835 
L 231.367288 475.220791 
L 231.414227 474.059748 
L 231.421619 473.331107 
L 231.42628 472.898704 
L 231.421619 472.751796 
L 231.390919 471.73766 
L 231.321737 470.576617 
L 231.239491 469.415573 
L 231.085053 468.25453 
L 230.924019 467.093486 
L 230.687301 465.932443 
L 230.423708 464.771399 
L 230.142273 463.725877 
L 230.111554 463.610355 
L 229.768902 462.449312 
L 229.394817 461.288268 
L 228.946195 460.127225 
L 228.862926 459.925915 
L 228.467296 458.966181 
L 227.940307 457.805137 
L 227.58358 457.072445 
L 227.369818 456.644094 
L 226.740447 455.48305 
L 226.304234 454.754551 
L 226.051024 454.322007 
L 225.343387 453.160963 
L 225.024887 452.671272 
L 224.571452 451.99992 
L 223.745541 450.875488 
L 223.718086 450.838876 
L 222.797528 449.677832 
L 222.466194 449.283436 
L 221.8101 448.516789 
L 221.186848 447.81535 
L 220.76279 447.355745 
L 219.907502 446.4839 
L 219.60846 446.194702 
L 218.628155 445.267611 
L 218.37568 445.033658 
L 217.348809 444.135167 
L 217.026029 443.872614 
L 216.069463 443.090111 
L 215.587583 442.711571 
L 214.790116 442.116885 
L 213.972087 441.550527 
L 213.51077 441.22722 
L 212.24681 440.389484 
L 212.231423 440.379285 
L 210.952077 439.575779 
L 210.346221 439.22844 
L 209.672731 438.850174 
L 208.393384 438.129286 
L 208.272445 438.067396 
L 207.114038 437.479951 
L 205.926621 436.906353 
L 205.834692 436.86058 
L 204.555345 436.270833 
L 203.313067 435.745309 
L 203.275999 435.729726 
L 201.996652 435.166459 
L 200.717306 434.649603 
L 200.528148 434.584266 
L 199.43796 434.181598 
L 198.158613 433.746697 
L 197.176675 433.423222 
L 196.879267 433.32299 
L 195.599921 432.909879 
L 194.320574 432.523965 
L 193.417843 432.262179 
L 193.041228 432.153018 
L 191.761881 431.842101 
L 190.482535 431.551345 
L 189.203189 431.269763 
L 188.320813 431.101135 
L 187.923842 431.021223 
L 186.644496 430.817915 
L 185.36515 430.612164 
L 184.085803 430.452741 
L 182.806457 430.315033 
L 181.52711 430.223175 
L 180.247764 430.144854 
L 178.968418 430.085804 
L 177.689071 430.068012 
L 176.409725 430.071015 
L 175.130379 430.079441 
L 173.851032 430.129411 
L 172.571686 430.231462 
L 171.29234 430.347035 
L 170.012993 430.507662 
L 168.733647 430.732931 
L 167.4543 430.980036 
L 166.817592 431.101135 
L 166.174954 431.221308 
L 164.895608 431.522124 
L 163.616261 431.875249 
L 162.336915 432.235734 
L 162.264755 432.262179 
L 161.057569 432.702346 
L 159.778222 433.196727 
L 159.21106 433.423222 
L 158.498876 433.71696 
L 157.219529 434.321934 
L 156.725826 434.584266 
L 155.940183 434.993984 
L 154.660837 435.731579 
L 154.63855 435.745309 
L 153.38149 436.556723 
L 152.868662 436.906353 
L 152.102144 437.442896 
L 151.261184 438.067396 
L 150.822798 438.394946 
L 149.831723 439.22844 
L 149.543451 439.507978 
L 148.656166 440.389484 
L 148.264105 440.754909 
L 147.453548 441.550527 
L 146.984758 442.071639 
L 146.44946 442.711571 
L 145.705412 443.636731 
L 145.522647 443.872614 
L 144.667334 445.033658 
L 144.426066 445.400638 
L 143.92081 446.194702 
L 143.220874 447.355745 
L 143.146719 447.502808 
L 142.657496 448.516789 
L 142.134996 449.677832 
L 141.867373 450.399475 
L 141.702062 450.838876 
L 141.273563 451.99992 
L 140.937175 453.160963 
L 140.631088 454.322007 
L 140.588027 454.535278 
L 140.400243 455.48305 
L 140.233847 456.644094 
L 140.091877 457.805137 
L 139.978587 458.966181 
L 139.923356 460.127225 
L 139.895549 461.288268 
L 139.926668 462.449312 
L 139.992754 463.610355 
L 140.111849 464.771399 
L 140.270084 465.932443 
L 140.468964 467.093486 
L 140.588027 467.64412 
L 140.717887 468.25453 
L 140.993443 469.415573 
L 141.334503 470.576617 
L 141.711792 471.73766 
L 141.867373 472.180946 
L 142.107068 472.898704 
L 142.572234 474.059748 
L 143.052171 475.220791 
L 143.146719 475.421233 
L 143.591448 476.381835 
L 144.166584 477.542878 
L 144.426066 478.018336 
L 144.793026 478.703922 
L 145.481467 479.864966 
L 145.705412 480.219404 
L 146.187344 481.026009 
L 146.939054 482.187053 
L 146.984758 482.254525 
L 147.737514 483.348096 
L 148.264105 484.038101 
L 148.622389 484.50914 
L 149.543451 485.662224 
L 149.549693 485.670184 
L 150.504861 486.831227 
L 150.822798 487.187709 
L 151.545424 487.992271 
L 152.102144 488.581508 
L 152.649176 489.153314 
L 153.38149 489.876677 
L 153.830879 490.314358 
L 154.660837 491.091851 
L 155.076999 491.475401 
L 155.940183 492.245137 
L 156.378654 492.636445 
L 157.219529 493.370035 
L 157.73657 493.797489 
L 158.498876 494.405168 
L 159.206202 494.958532 
L 159.778222 495.39114 
L 160.763922 496.119576 
L 161.057569 496.331663 
L 162.336915 497.232161 
L 162.408407 497.280619 
L 163.616261 498.093637 
L 164.157867 498.441663 
L 164.895608 498.911904 
L 166.041102 499.602707 
L 166.174954 499.682964 
L 167.4543 500.420754 
L 168.087463 500.76375 
L 168.733647 501.110563 
L 170.012993 501.776548 
L 170.318051 501.924794 
L 171.29234 502.397809 
L 172.571686 502.968166 
L 172.846389 503.085837 
L 173.851032 503.521712 
L 175.130379 504.037699 
L 175.688291 504.246881 
L 176.409725 504.526223 
L 177.689071 504.991192 
L 178.968264 505.407925 
L 178.968418 505.407976 
L 180.247764 505.802597 
L 181.52711 506.159005 
L 182.806457 506.479113 
L 183.219038 506.568968 
L 184.085803 506.763062 
L 185.36515 507.018891 
L 186.644496 507.240826 
L 187.923842 507.429211 
L 189.203189 507.585043 
L 190.482535 507.706877 
L 190.813441 507.730012 
L 191.761881 507.799092 
z
" clip-path="url(#p902b383ae1)" style="fill: none; stroke: #4daf4a; stroke-width: 1.142857"/>
   </g>
   <g id="patch_3">
    <path d="M 39.69 525.85 
L 39.69 266.525 
" style="fill: none; stroke: #000000; stroke-width: 0.8; stroke-linejoin: miter; stroke-linecap: square"/>
   </g>
   <g id="patch_4">
    <path d="M 300.097764 525.85 
L 300.097764 266.525 
" style="fill: none; stroke: #000000; stroke-width: 0.8; stroke-linejoin: miter; stroke-linecap: square"/>
   </g>
   <g id="patch_5">
    <path d="M 39.69 525.85 
L 300.097764 525.85 
" style="fill: none; stroke: #000000; stroke-width: 0.8; stroke-linejoin: miter; stroke-linecap: square"/>
   </g>
   <g id="patch_6">
    <path d="M 39.69 266.525 
L 300.097764 266.525 
" style="fill: none; stroke: #000000; stroke-width: 0.8; stroke-linejoin: miter; stroke-linecap: square"/>
   </g>
  </g>
  <g id="axes_2">
   <g id="patch_7">
    <path d="M 39.69 266.525 
L 300.097764 266.525 
L 300.097764 7.2 
L 39.69 7.2 
z
" style="fill: #ffffff"/>
   </g>
   <g id="matplotlib.axis_3">
    <g id="xtick_4">
     <g id="line2d_15">
      <g>
       <use xlink:href="#m031abb3923" x="113.509272" y="266.525" style="stroke: #000000; stroke-width: 0.8"/>
      </g>
     </g>
    </g>
    <g id="xtick_5">
     <g id="line2d_16">
      <g>
       <use xlink:href="#m031abb3923" x="180.723048" y="266.525" style="stroke: #000000; stroke-width: 0.8"/>
      </g>
     </g>
    </g>
    <g id="xtick_6">
     <g id="line2d_17">
      <g>
       <use xlink:href="#m031abb3923" x="247.936825" y="266.525" style="stroke: #000000; stroke-width: 0.8"/>
      </g>
     </g>
    </g>
   </g>
   <g id="matplotlib.axis_4">
    <g id="ytick_5"/>
    <g id="ytick_6"/>
    <g id="ytick_7"/>
    <g id="ytick_8"/>
    <g id="ytick_9"/>
   </g>
   <g id="line2d_18">
    <path d="M 39.638359 266.509116 
L 48.526322 266.291296 
L 58.781664 265.858858 
L 64.25118 266.00458 
L 71.088075 266.21325 
L 77.583125 266.074986 
L 80.659728 265.79646 
L 83.394485 265.362026 
L 85.787399 264.813729 
L 88.180312 264.123098 
L 91.940604 262.751486 
L 102.195946 258.100914 
L 103.22148 257.416131 
L 105.272549 256.198922 
L 107.665462 254.643323 
L 109.71653 252.82701 
L 113.134977 249.936461 
L 114.160512 249.030437 
L 116.89527 246.903832 
L 117.578959 246.412766 
L 118.946338 245.556494 
L 119.630027 245.082594 
L 122.022941 243.712768 
L 122.364785 243.633556 
L 123.048475 243.209293 
L 125.783233 241.675261 
L 127.492456 240.452522 
L 129.543525 238.269929 
L 132.278283 234.343032 
L 134.329351 230.407251 
L 137.747798 221.927347 
L 138.431488 220.075864 
L 142.533625 207.049089 
L 143.901004 202.00735 
L 145.952072 193.810557 
L 148.344985 183.38795 
L 151.421588 168.845072 
L 153.814501 156.429596 
L 156.207414 143.111245 
L 157.574793 135.278615 
L 161.335085 113.043278 
L 163.044309 102.717245 
L 167.146446 79.937597 
L 168.513825 73.397195 
L 168.855669 72.099988 
L 170.223048 65.581094 
L 171.248583 61.205625 
L 171.932272 58.461836 
L 172.615962 56.531502 
L 173.299651 54.267126 
L 174.66703 50.79339 
L 175.350719 48.760788 
L 176.718098 46.104792 
L 177.743633 43.094498 
L 180.136546 38.277675 
L 180.820235 36.26126 
L 181.16208 35.824703 
L 181.503925 35.201735 
L 181.845769 34.824699 
L 182.187614 34.097343 
L 183.896838 32.28476 
L 184.238683 32.271632 
L 184.580527 31.689628 
L 184.922372 31.443498 
L 185.264217 31.543291 
L 185.947906 30.984611 
L 186.631596 30.560487 
L 186.97344 30.827852 
L 187.315285 30.621795 
L 187.65713 30.714462 
L 187.998975 30.940815 
L 188.340819 31.685357 
L 188.682664 32.007389 
L 189.024509 32.127979 
L 189.708198 33.357769 
L 190.391888 34.463988 
L 191.759267 37.882811 
L 194.494025 47.532012 
L 195.177714 50.161838 
L 198.254317 66.436604 
L 201.330919 85.051701 
L 205.774901 114.336763 
L 208.851504 133.769986 
L 210.560727 143.982669 
L 211.928106 152.432001 
L 216.030243 176.732849 
L 218.423156 190.855146 
L 219.44869 196.539714 
L 220.816069 204.222705 
L 223.208982 215.568917 
L 224.918206 222.901374 
L 226.62743 229.483889 
L 229.362188 237.771607 
L 230.729567 240.980375 
L 233.464325 246.383838 
L 235.515393 249.489 
L 236.540927 250.697588 
L 238.250151 252.432181 
L 240.643064 254.223276 
L 242.010443 254.997605 
L 245.087046 256.56604 
L 255.342388 260.819335 
L 258.077146 261.648464 
L 264.91404 263.346924 
L 269.016177 264.238235 
L 273.460159 265.132771 
L 278.245985 265.841095 
L 282.006277 266.128391 
L 287.817638 266.277819 
L 298.756669 266.121732 
L 300.124048 266.102064 
L 300.124048 266.102064 
" clip-path="url(#p25cbe2d209)" style="fill: none; stroke: #e41a1c; stroke-width: 1.142857"/>
   </g>
   <g id="line2d_19">
    <path d="M 39.613485 266.350843 
L 49.604644 266.20889 
L 56.398632 265.916504 
L 68.388023 265.201657 
L 77.579889 264.425667 
L 87.171402 263.275089 
L 100.359732 260.684935 
L 105.155488 259.278739 
L 111.150183 256.988914 
L 113.548061 255.791 
L 116.345586 254.137031 
L 117.944171 252.888336 
L 119.14311 251.892795 
L 120.741696 250.625128 
L 123.139574 248.341103 
L 127.535684 243.208636 
L 131.931794 235.631902 
L 133.530379 232.343953 
L 135.528611 227.585999 
L 138.326136 220.012691 
L 141.12366 211.172265 
L 145.120124 196.676372 
L 148.716941 181.79143 
L 154.711636 154.566236 
L 156.310222 147.05978 
L 157.908807 140.009786 
L 162.704563 116.685502 
L 165.102441 104.779031 
L 168.299612 89.837559 
L 169.098905 85.998474 
L 170.69749 78.846809 
L 171.496783 75.15284 
L 172.296076 71.750529 
L 173.894661 64.659405 
L 175.892893 56.656723 
L 177.491479 50.50562 
L 179.090064 45.018589 
L 180.688649 40.417934 
L 182.686881 35.759434 
L 183.88582 33.795497 
L 184.685113 32.857318 
L 185.084759 32.763621 
L 185.884052 32.020777 
L 187.082991 31.367282 
L 187.482637 30.807054 
L 188.28193 30.560487 
L 188.681577 30.655938 
L 189.081223 30.570239 
L 189.480869 30.859281 
L 190.280162 31.256843 
L 191.479101 32.789056 
L 192.67804 34.803801 
L 195.075918 39.687074 
L 197.473796 46.406449 
L 199.072382 51.977736 
L 199.871675 54.735195 
L 203.068845 67.734974 
L 204.667431 74.754998 
L 205.86637 79.968298 
L 209.063541 94.678862 
L 211.861065 108.134373 
L 213.459651 115.902362 
L 227.84692 189.782313 
L 231.443737 206.557241 
L 233.841615 216.254433 
L 236.639139 225.774535 
L 238.237725 230.580351 
L 239.436664 233.864032 
L 242.633835 240.93138 
L 244.632067 244.943513 
L 246.630298 248.050885 
L 247.429591 248.987548 
L 248.62853 250.535167 
L 250.227116 252.301717 
L 251.825701 253.964482 
L 254.223579 255.874762 
L 257.021104 257.827504 
L 259.418982 259.207015 
L 263.815092 261.19426 
L 269.410141 263.246298 
L 273.406604 264.356632 
L 274.205897 264.458958 
L 277.802714 265.152655 
L 282.998117 265.750808 
L 289.792105 266.096256 
L 297.785032 266.30853 
L 300.18291 266.334391 
L 300.18291 266.334391 
" clip-path="url(#p25cbe2d209)" style="fill: none; stroke: #377eb8; stroke-width: 1.142857"/>
   </g>
   <g id="line2d_20">
    <path d="M 39.504656 266.523801 
L 56.725184 266.409456 
L 65.016549 266.133903 
L 72.351218 265.681361 
L 79.04809 265.116003 
L 86.382759 264.268611 
L 89.890644 263.733987 
L 92.122934 263.254981 
L 96.587516 262.14379 
L 97.86311 261.734271 
L 100.414299 260.841822 
L 101.689894 260.432086 
L 104.559982 259.382758 
L 107.43007 257.942243 
L 108.386766 257.330219 
L 109.66236 256.591405 
L 114.44584 253.307979 
L 116.99703 250.950616 
L 118.591523 249.261359 
L 120.186016 247.406707 
L 124.331699 241.510975 
L 128.79628 233.411309 
L 132.304165 226.084755 
L 134.855354 219.857677 
L 138.682138 209.588461 
L 139.957733 205.771295 
L 140.914429 203.022993 
L 143.146719 196.223321 
L 144.422314 192.026589 
L 145.697909 187.661972 
L 147.930199 179.599292 
L 151.756983 165.570509 
L 155.583767 149.450075 
L 156.859362 144.300844 
L 157.816058 140.579946 
L 158.772753 136.756892 
L 162.599537 119.956826 
L 165.788524 104.753523 
L 166.74522 100.304 
L 170.890902 80.758529 
L 172.166497 74.218437 
L 173.123193 69.589713 
L 174.398788 63.837992 
L 175.355484 59.446849 
L 176.949977 52.842809 
L 177.268876 51.81573 
L 177.906673 49.28523 
L 180.138963 41.71879 
L 182.371254 35.575851 
L 183.009051 34.360145 
L 183.646849 33.45024 
L 184.284646 32.715522 
L 184.603545 32.083729 
L 184.922443 31.979333 
L 185.241342 31.525746 
L 185.560241 31.395464 
L 185.879139 30.977738 
L 186.198038 30.743771 
L 187.154734 30.589758 
L 187.792531 30.805795 
L 188.430328 30.97673 
L 188.749227 31.450119 
L 189.068126 31.656963 
L 189.387024 31.707339 
L 189.705923 32.269075 
L 190.34372 32.951314 
L 191.619315 35.017579 
L 191.938214 35.281615 
L 192.576011 36.361743 
L 195.1272 43.034678 
L 198.953984 55.411477 
L 201.186275 64.407286 
L 204.375261 77.828217 
L 205.013059 80.685394 
L 207.245349 91.060048 
L 211.072133 108.908744 
L 212.028829 113.69426 
L 224.146978 174.07664 
L 227.335964 188.347798 
L 231.481647 205.044101 
L 233.07614 210.900075 
L 234.032836 214.450793 
L 235.62733 219.73066 
L 238.816316 229.745889 
L 241.367505 236.838095 
L 242.324201 239.163762 
L 244.556492 244.564283 
L 245.513188 246.391582 
L 247.42658 249.948811 
L 249.65887 253.658702 
L 250.934465 255.326201 
L 252.847857 257.48192 
L 254.44235 258.952073 
L 256.993539 260.96888 
L 259.22583 262.086229 
L 260.182526 262.510861 
L 263.052614 263.459903 
L 266.879398 264.338662 
L 270.387283 264.822679 
L 275.489661 265.230619 
L 282.505432 265.710314 
L 293.985784 266.384824 
L 300.363757 266.500651 
L 300.363757 266.500651 
" clip-path="url(#p25cbe2d209)" style="fill: none; stroke: #4daf4a; stroke-width: 1.142857"/>
   </g>
   <g id="patch_8">
    <path d="M 39.69 266.525 
L 39.69 7.2 
" style="fill: none; stroke: #000000; stroke-width: 0.8; stroke-linejoin: miter; stroke-linecap: square"/>
   </g>
   <g id="patch_9">
    <path d="M 300.097764 266.525 
L 300.097764 7.2 
" style="fill: none; stroke: #000000; stroke-width: 0.8; stroke-linejoin: miter; stroke-linecap: square"/>
   </g>
   <g id="patch_10">
    <path d="M 39.69 266.525 
L 300.097764 266.525 
" style="fill: none; stroke: #000000; stroke-width: 0.8; stroke-linejoin: miter; stroke-linecap: square"/>
   </g>
   <g id="patch_11">
    <path d="M 39.69 7.2 
L 300.097764 7.2 
" style="fill: none; stroke: #000000; stroke-width: 0.8; stroke-linejoin: miter; stroke-linecap: square"/>
   </g>
  </g>
  <g id="axes_3">
   <g id="patch_12">
    <path d="M 300.097764 525.85 
L 560.505527 525.85 
L 560.505527 266.525 
L 300.097764 266.525 
z
" style="fill: #ffffff"/>
   </g>
   <g id="matplotlib.axis_5">
    <g id="xtick_7">
     <g id="line2d_21">
      <g>
       <use xlink:href="#m031abb3923" x="312.647521" y="525.85" style="stroke: #000000; stroke-width: 0.8"/>
      </g>
     </g>
     <g id="text_10">
      <!-- $\mathdefault{0}$ -->
      <g transform="translate(309.567521 537.204687)scale(0.11 -0.11)">
       <use xlink:href="#HelveticaNeue-Medium-30" transform="translate(0 0.59375)"/>
      </g>
     </g>
    </g>
    <g id="xtick_8">
     <g id="line2d_22">
      <g>
       <use xlink:href="#m031abb3923" x="376.843587" y="525.85" style="stroke: #000000; stroke-width: 0.8"/>
      </g>
     </g>
     <g id="text_11">
      <!-- $\mathdefault{10}$ -->
      <g transform="translate(370.683587 537.204687)scale(0.11 -0.11)">
       <use xlink:href="#HelveticaNeue-Medium-31" transform="translate(0 0.59375)"/>
       <use xlink:href="#HelveticaNeue-Medium-30" transform="translate(55.599991 0.59375)"/>
      </g>
     </g>
    </g>
    <g id="xtick_9">
     <g id="line2d_23">
      <g>
       <use xlink:href="#m031abb3923" x="441.039652" y="525.85" style="stroke: #000000; stroke-width: 0.8"/>
      </g>
     </g>
     <g id="text_12">
      <!-- $\mathdefault{20}$ -->
      <g transform="translate(434.879652 537.204687)scale(0.11 -0.11)">
       <use xlink:href="#HelveticaNeue-Medium-32" transform="translate(0 0.59375)"/>
       <use xlink:href="#HelveticaNeue-Medium-30" transform="translate(55.599991 0.59375)"/>
      </g>
     </g>
    </g>
    <g id="xtick_10">
     <g id="line2d_24">
      <g>
       <use xlink:href="#m031abb3923" x="505.235717" y="525.85" style="stroke: #000000; stroke-width: 0.8"/>
      </g>
     </g>
     <g id="text_13">
      <!-- $\mathdefault{30}$ -->
      <g transform="translate(499.075717 537.204687)scale(0.11 -0.11)">
       <use xlink:href="#HelveticaNeue-Medium-33" transform="translate(0 0.59375)"/>
       <use xlink:href="#HelveticaNeue-Medium-30" transform="translate(55.599991 0.59375)"/>
      </g>
     </g>
    </g>
    <g id="text_14">
     <!-- scatter -->
     <g transform="translate(407.867739 557.305)scale(0.14 -0.14)">
      <use xlink:href="#HelveticaNeue-Medium-73"/>
      <use xlink:href="#HelveticaNeue-Medium-63" x="51.899994"/>
      <use xlink:href="#HelveticaNeue-Medium-61" x="107.499985"/>
      <use xlink:href="#HelveticaNeue-Medium-74" x="163.099976"/>
      <use xlink:href="#HelveticaNeue-Medium-74" x="196.399963"/>
      <use xlink:href="#HelveticaNeue-Medium-65" x="229.699951"/>
      <use xlink:href="#HelveticaNeue-Medium-72" x="285.299942"/>
     </g>
    </g>
   </g>
   <g id="matplotlib.axis_6">
    <g id="ytick_10"/>
    <g id="ytick_11"/>
    <g id="ytick_12"/>
    <g id="ytick_13"/>
    <g id="ytick_14"/>
   </g>
   <g id="line2d_25">
    <path d="M 299.988681 525.85 
L 313.161143 525.744968 
L 314.512165 525.505969 
L 315.525431 525.096599 
L 316.538697 524.388207 
L 317.214208 523.66216 
L 318.227475 522.189903 
L 319.240741 520.112437 
L 320.254007 517.747945 
L 323.631561 508.180952 
L 328.697893 492.956128 
L 334.439735 472.764859 
L 336.128512 465.141621 
L 337.479534 456.981532 
L 339.168311 443.289969 
L 340.857088 425.819504 
L 343.221376 396.278723 
L 344.910154 374.347819 
L 347.274442 345.212832 
L 348.963219 329.480127 
L 349.63873 325.022963 
L 350.314241 321.366152 
L 351.327507 317.868982 
L 351.665262 317.30332 
L 352.003018 317.126551 
L 352.340773 316.662418 
L 352.678529 316.578664 
L 353.016284 316.657975 
L 353.354039 316.865812 
L 353.691795 316.882029 
L 354.02955 317.747318 
L 355.718327 319.888544 
L 356.056083 320.256391 
L 356.731594 320.62251 
L 357.069349 320.480941 
L 357.407105 319.993103 
L 357.74486 319.864852 
L 358.758126 317.358796 
L 359.771393 312.805883 
L 360.784659 306.333306 
L 362.135681 297.71054 
L 362.473436 295.669869 
L 363.824458 290.516304 
L 364.162213 290.277953 
L 364.499969 289.885487 
L 364.837724 290.125158 
L 365.17548 290.045722 
L 365.513235 290.520097 
L 366.188746 292.386044 
L 366.864257 296.047369 
L 367.877523 303.460102 
L 370.579566 323.944174 
L 372.268344 333.431124 
L 373.619365 337.457262 
L 374.632632 339.239475 
L 374.970387 340.275373 
L 376.99692 343.088039 
L 377.672431 344.591086 
L 378.347941 346.894146 
L 379.023452 349.543659 
L 380.036719 354.763113 
L 380.712229 358.087677 
L 381.049985 359.650372 
L 381.725496 363.429326 
L 385.10305 381.315941 
L 385.440805 381.960613 
L 386.454072 385.966283 
L 386.791827 386.820807 
L 387.467338 387.873518 
L 387.805094 388.553861 
L 388.480604 389.363978 
L 388.81836 389.860306 
L 389.156115 390.031618 
L 389.831626 389.918568 
L 390.507137 390.210134 
L 390.844892 390.334416 
L 391.520403 389.81356 
L 391.858159 389.740531 
L 392.53367 390.103868 
L 392.871425 390.162189 
L 393.546936 390.820414 
L 394.222447 391.625709 
L 394.897958 392.995399 
L 395.235713 393.465428 
L 396.586735 398.343012 
L 398.275512 407.737481 
L 398.951023 411.66656 
L 401.315311 424.478658 
L 403.004088 434.013706 
L 404.35511 441.127182 
L 406.043887 450.961106 
L 408.070419 464.857943 
L 409.759197 476.05352 
L 410.772463 481.666433 
L 411.447974 484.686956 
L 412.46124 488.139492 
L 412.798995 489.001511 
L 414.150017 490.818956 
L 415.163284 491.418828 
L 415.501039 491.454911 
L 415.838794 491.190448 
L 416.17655 491.090501 
L 416.514305 491.301976 
L 417.527572 490.93364 
L 418.540838 491.113878 
L 418.878593 491.11432 
L 419.216349 491.37498 
L 419.89186 491.572928 
L 421.580637 493.524784 
L 422.256148 494.263997 
L 423.607169 496.095544 
L 424.28268 496.971655 
L 430.362278 506.904442 
L 432.051055 509.509553 
L 434.077588 511.584556 
L 434.415343 511.929709 
L 435.766365 512.421036 
L 438.806164 512.938378 
L 439.143919 512.909663 
L 440.494941 513.370285 
L 441.508207 513.845573 
L 442.183718 514.267791 
L 446.236783 516.527552 
L 448.938827 517.295712 
L 454.342914 517.432268 
L 456.369446 517.867968 
L 457.720468 518.352847 
L 460.084756 519.602024 
L 461.098022 520.343712 
L 465.151087 523.22513 
L 466.502109 523.775988 
L 467.853131 524.008026 
L 469.204153 523.983839 
L 471.568441 523.626418 
L 472.919462 523.477215 
L 474.60824 523.44699 
L 476.972528 523.657522 
L 478.661305 523.834251 
L 480.687837 523.918762 
L 482.038859 523.833226 
L 484.740903 523.33712 
L 485.754169 523.124995 
L 487.105191 522.993693 
L 488.456212 523.092825 
L 491.833767 523.880996 
L 496.900098 525.171883 
L 498.588875 525.447444 
L 500.615408 525.584506 
L 502.979696 525.541393 
L 506.695006 525.219737 
L 509.734804 524.990223 
L 512.774603 525.053476 
L 518.854201 525.248038 
L 524.596044 525.277864 
L 528.986864 525.350625 
L 532.364418 525.602256 
L 536.417484 525.82268 
L 544.185859 525.85 
L 560.735875 525.85 
L 560.735875 525.85 
" clip-path="url(#p02bc07c552)" style="fill: none; stroke: #e41a1c; stroke-width: 1.142857"/>
   </g>
   <g id="line2d_26">
    <path d="M 299.788801 525.85 
L 313.012094 525.754805 
L 313.726867 525.582376 
L 314.441639 525.160424 
L 315.156412 524.313753 
L 315.513798 523.68264 
L 316.228571 521.628366 
L 316.943343 518.338241 
L 317.658116 513.489473 
L 318.372889 506.954902 
L 319.445048 494.802773 
L 321.946752 464.924256 
L 322.661524 458.596715 
L 323.376297 453.854139 
L 324.091069 450.068331 
L 324.805842 447.978849 
L 325.163228 447.143764 
L 325.520615 446.657608 
L 325.878001 446.410829 
L 326.592774 446.305999 
L 326.95016 446.58507 
L 327.307546 446.584465 
L 328.379705 448.361543 
L 328.737091 448.1311 
L 329.451864 447.964633 
L 329.80925 447.711854 
L 330.166637 447.068474 
L 330.524023 446.690045 
L 331.238795 445.450497 
L 331.596182 444.115675 
L 331.953568 443.239986 
L 333.383113 437.535624 
L 334.097886 433.413694 
L 335.527431 422.664517 
L 337.314363 404.300905 
L 339.816067 375.649441 
L 340.888226 366.790883 
L 341.602998 362.869375 
L 341.960384 361.257209 
L 342.675157 359.62069 
L 343.032543 359.491453 
L 343.38993 359.74964 
L 343.747316 359.671127 
L 344.819475 358.374491 
L 345.891634 354.623158 
L 346.24902 353.537068 
L 347.321179 346.5689 
L 348.393338 338.999636 
L 349.10811 331.64644 
L 349.822883 325.855957 
L 350.537656 320.89507 
L 351.252428 315.24063 
L 353.754132 304.109238 
L 354.468905 300.937417 
L 355.89845 294.972819 
L 356.613223 292.704691 
L 356.970609 291.051638 
L 357.685382 289.885487 
L 358.042768 290.250084 
L 358.400154 290.036311 
L 358.757541 290.146024 
L 359.114927 289.928014 
L 359.472313 290.848042 
L 359.829699 291.215388 
L 361.259245 295.213873 
L 361.616631 295.6978 
L 361.974017 295.502233 
L 362.331404 296.070469 
L 362.68879 296.330545 
L 363.403563 296.340878 
L 363.760949 296.886434 
L 364.118335 296.541327 
L 364.475721 295.893033 
L 364.833108 296.567477 
L 365.190494 296.661316 
L 365.54788 296.277197 
L 365.905267 295.416669 
L 366.262653 295.100239 
L 366.620039 295.045099 
L 367.334812 295.183036 
L 367.692198 294.973396 
L 368.764357 296.838975 
L 369.47913 299.795886 
L 370.193902 303.109918 
L 371.266061 308.848602 
L 373.410379 319.043888 
L 374.125152 321.668164 
L 374.482538 323.550678 
L 374.839924 326.30292 
L 375.19731 327.526536 
L 376.269469 333.782916 
L 378.056401 344.997005 
L 378.413787 346.87502 
L 379.485946 353.887649 
L 380.915491 361.428536 
L 381.98765 366.526923 
L 382.702423 369.739982 
L 383.774582 375.008484 
L 385.918899 388.844314 
L 387.705831 403.874189 
L 388.420604 410.67206 
L 390.207535 423.856813 
L 391.63708 431.038265 
L 392.709239 433.625477 
L 393.424012 434.000359 
L 393.781398 433.619151 
L 394.138784 432.988009 
L 394.496171 432.703525 
L 395.210943 431.339568 
L 395.56833 431.183499 
L 396.283102 430.458507 
L 396.640488 430.876551 
L 397.712647 434.769101 
L 398.070034 436.771538 
L 399.142193 445.555167 
L 400.214351 455.638041 
L 402.001283 473.441967 
L 402.716056 479.288271 
L 403.430828 483.609338 
L 404.145601 486.232041 
L 405.21776 488.419925 
L 405.932532 488.973547 
L 406.289919 488.860035 
L 407.719464 486.749353 
L 408.07685 486.325912 
L 408.791623 485.009271 
L 409.506395 484.240646 
L 410.221168 484.499331 
L 410.935941 484.995465 
L 411.650713 485.864937 
L 412.722872 488.50184 
L 415.581962 495.024414 
L 416.654121 496.416629 
L 418.083667 497.588967 
L 418.441053 497.675881 
L 418.798439 497.923837 
L 419.155825 497.87611 
L 420.585371 498.643884 
L 420.942757 498.52958 
L 422.372302 498.685651 
L 423.087075 498.680985 
L 423.444461 498.406937 
L 423.801847 498.362905 
L 424.159234 498.494215 
L 424.874006 499.224894 
L 425.231393 499.653429 
L 425.946165 499.80569 
L 426.660938 500.432106 
L 428.447869 502.605133 
L 430.234801 504.63868 
L 432.379119 507.927795 
L 433.808664 510.505791 
L 434.523436 511.649643 
L 434.880823 511.881163 
L 435.238209 512.399628 
L 435.595595 512.694116 
L 436.310368 513.079452 
L 437.02514 513.302817 
L 438.454686 513.244392 
L 439.884231 513.406043 
L 440.599003 513.324794 
L 441.313776 513.616442 
L 442.028549 514.242093 
L 442.743321 514.538176 
L 444.172866 515.495211 
L 445.245025 516.14261 
L 446.317184 516.464338 
L 447.031957 516.390831 
L 447.389343 516.594516 
L 448.104116 516.446427 
L 449.891047 516.262947 
L 450.60582 516.41799 
L 452.750138 517.200341 
L 455.251842 518.811747 
L 457.038773 519.367178 
L 458.110932 519.544356 
L 458.468319 519.656968 
L 459.183091 519.67171 
L 460.612636 520.095693 
L 460.970023 520.180289 
L 462.756954 521.391026 
L 463.471727 521.7642 
L 465.973431 523.279797 
L 467.04559 523.713907 
L 468.832521 524.011144 
L 472.763771 523.909116 
L 474.908088 523.813863 
L 476.337634 523.854963 
L 478.839338 524.243333 
L 479.55411 524.451972 
L 482.055814 524.871194 
L 482.770587 524.859486 
L 483.48536 524.819176 
L 484.914905 524.546817 
L 485.987064 524.239862 
L 488.488768 523.137009 
L 489.560927 522.73459 
L 490.275699 522.62842 
L 490.990472 522.691418 
L 491.705244 522.927291 
L 492.777403 523.533605 
L 494.921721 524.856424 
L 495.99388 525.265399 
L 497.423425 525.534448 
L 498.852971 525.630241 
L 501.354675 525.479801 
L 504.213765 525.312976 
L 513.863195 525.307651 
L 520.653535 525.84407 
L 527.086488 525.787002 
L 529.230806 525.536071 
L 532.447283 525.039929 
L 534.234214 525.11656 
L 537.450691 525.475232 
L 539.595009 525.456164 
L 543.526258 525.261401 
L 547.100121 525.315029 
L 551.746143 525.463357 
L 554.96262 525.425889 
L 557.464324 525.672947 
L 560.323414 525.8338 
L 560.680801 525.83926 
L 560.680801 525.83926 
" clip-path="url(#p02bc07c552)" style="fill: none; stroke: #377eb8; stroke-width: 1.142857"/>
   </g>
   <g id="line2d_27">
    <path d="M 299.868223 525.85 
L 309.168001 525.763703 
L 310.621092 525.5414 
L 311.783564 525.167458 
L 312.655418 524.624687 
L 313.236654 524.119239 
L 314.108508 523.009041 
L 314.689745 521.966583 
L 315.561599 519.83452 
L 316.433453 516.933251 
L 317.305307 513.111039 
L 318.467779 506.169476 
L 319.339634 499.432544 
L 320.502106 488.63168 
L 321.37396 478.986249 
L 323.698905 449.669406 
L 325.733231 421.420453 
L 328.058176 392.257288 
L 329.511266 377.035973 
L 331.254975 362.281308 
L 332.417447 354.678058 
L 333.579919 347.995799 
L 334.451773 344.753882 
L 335.614246 339.408336 
L 335.904864 338.810033 
L 337.648572 331.629089 
L 338.520426 328.423946 
L 339.973517 321.64174 
L 342.879697 308.754728 
L 346.076496 295.678679 
L 346.367114 295.32212 
L 346.94835 293.532691 
L 347.529586 292.298412 
L 348.401441 291.177743 
L 348.692059 290.631331 
L 349.563913 289.885487 
L 350.145149 290.598585 
L 351.307621 291.057917 
L 351.598239 291.456214 
L 352.470094 293.337603 
L 352.760712 294.474708 
L 353.05133 294.868178 
L 354.213802 298.3563 
L 357.119983 309.076256 
L 358.282455 314.043578 
L 358.573073 315.025026 
L 359.154309 317.453659 
L 360.898018 323.91967 
L 361.479254 326.529223 
L 362.351108 330.919034 
L 363.804198 336.916433 
L 364.094816 338.446989 
L 364.676052 340.514843 
L 366.419761 347.068042 
L 367.000997 349.081464 
L 368.163469 353.414432 
L 370.488414 360.510145 
L 371.360268 363.395946 
L 372.52274 367.804698 
L 374.847685 379.618449 
L 375.719539 384.854109 
L 378.044484 399.810021 
L 381.241282 420.102265 
L 382.984991 430.036076 
L 385.019317 439.530565 
L 386.472408 445.447066 
L 387.344262 448.234316 
L 387.63488 449.011299 
L 388.216116 451.017509 
L 389.378588 454.259814 
L 389.959824 455.8023 
L 391.412915 459.273856 
L 392.866005 462.795146 
L 393.737859 465.188191 
L 394.028477 465.63711 
L 395.481568 469.152077 
L 396.062804 470.192655 
L 396.64404 471.423664 
L 396.934658 471.775684 
L 397.806512 473.28558 
L 398.678366 474.811551 
L 398.968984 475.197279 
L 399.550221 475.584913 
L 399.840839 476.120133 
L 400.712693 477.055374 
L 401.293929 477.775061 
L 402.165783 478.657454 
L 402.456401 478.807472 
L 403.037637 479.457236 
L 403.618874 479.906327 
L 404.490728 480.444455 
L 405.6532 481.401857 
L 407.396908 483.318281 
L 407.687527 483.510915 
L 410.012471 486.464057 
L 411.174943 488.365287 
L 411.465561 488.61005 
L 415.243596 496.389319 
L 417.568541 501.535707 
L 419.021631 503.96499 
L 420.474722 506.191188 
L 423.962138 509.760729 
L 424.833993 510.51513 
L 431.808826 514.888425 
L 432.971299 515.744728 
L 433.843153 516.254109 
L 434.424389 516.62169 
L 436.168097 517.430321 
L 437.039951 517.853871 
L 439.074278 518.690139 
L 439.946132 518.998386 
L 440.527368 519.285577 
L 443.142931 520.083327 
L 443.724167 520.318015 
L 445.758494 520.979236 
L 448.955292 522.024789 
L 451.861473 522.764181 
L 455.058272 523.389932 
L 459.417543 523.321877 
L 463.486196 523.058623 
L 466.973613 523.189965 
L 475.982773 524.595435 
L 477.726481 524.775774 
L 481.795134 524.893431 
L 486.154405 524.752265 
L 498.650982 524.189367 
L 500.975927 524.341146 
L 503.882107 524.713561 
L 505.916434 525.026223 
L 510.275705 525.492894 
L 515.216212 525.769122 
L 519.284865 525.831495 
L 527.712789 525.770728 
L 540.499984 525.482878 
L 560.552631 525.796961 
L 560.552631 525.796961 
" clip-path="url(#p02bc07c552)" style="fill: none; stroke: #4daf4a; stroke-width: 1.142857"/>
   </g>
   <g id="patch_13">
    <path d="M 300.097764 525.85 
L 300.097764 266.525 
" style="fill: none; stroke: #000000; stroke-width: 0.8; stroke-linejoin: miter; stroke-linecap: square"/>
   </g>
   <g id="patch_14">
    <path d="M 560.505527 525.85 
L 560.505527 266.525 
" style="fill: none; stroke: #000000; stroke-width: 0.8; stroke-linejoin: miter; stroke-linecap: square"/>
   </g>
   <g id="patch_15">
    <path d="M 300.097764 525.85 
L 560.505527 525.85 
" style="fill: none; stroke: #000000; stroke-width: 0.8; stroke-linejoin: miter; stroke-linecap: square"/>
   </g>
   <g id="patch_16">
    <path d="M 300.097764 266.525 
L 560.505527 266.525 
" style="fill: none; stroke: #000000; stroke-width: 0.8; stroke-linejoin: miter; stroke-linecap: square"/>
   </g>
  </g>
  <g id="legend_1">
   <g id="patch_17">
    <path d="M 417.574277 61.38 
L 558.105527 61.38 
Q 560.505527 61.38 560.505527 58.98 
L 560.505527 9.6 
Q 560.505527 7.2 558.105527 7.2 
L 417.574277 7.2 
Q 415.174277 7.2 415.174277 9.6 
L 415.174277 58.98 
Q 415.174277 61.38 417.574277 61.38 
z
" style="fill: #ffffff; opacity: 0.9; stroke: #cccccc; stroke-linejoin: miter"/>
   </g>
   <g id="line2d_28">
    <path d="M 423.574277 16.36875 
L 431.974277 16.36875 
L 440.374277 16.36875 
" style="fill: none; stroke: #e41a1c; stroke-width: 1.142857"/>
   </g>
   <g id="text_15">
    <!-- Gaussian -->
    <g transform="translate(453.574277 20.56875)scale(0.12 -0.12)">
     <defs>
      <path id="HelveticaNeue-Medium-47" d="M 4474 0 
L 3962 0 
L 3840 538 
Q 3520 173 3200 32 
Q 2880 -109 2464 -109 
Q 1952 -109 1545 80 
Q 1139 269 857 595 
Q 576 922 425 1357 
Q 275 1792 275 2285 
Q 275 2771 425 3206 
Q 576 3642 857 3968 
Q 1139 4294 1545 4486 
Q 1952 4678 2464 4678 
Q 2835 4678 3171 4579 
Q 3507 4480 3769 4285 
Q 4032 4090 4205 3795 
Q 4378 3501 4422 3117 
L 3642 3117 
Q 3610 3341 3504 3510 
Q 3398 3680 3238 3795 
Q 3078 3910 2880 3968 
Q 2682 4026 2464 4026 
Q 2099 4026 1833 3878 
Q 1568 3731 1401 3484 
Q 1235 3238 1155 2924 
Q 1075 2611 1075 2285 
Q 1075 1958 1155 1644 
Q 1235 1331 1401 1084 
Q 1568 838 1833 691 
Q 2099 544 2464 544 
Q 2771 538 3008 624 
Q 3245 710 3408 873 
Q 3571 1037 3654 1273 
Q 3738 1510 3744 1798 
L 2528 1798 
L 2528 2406 
L 4474 2406 
L 4474 0 
z
" transform="scale(0.015625)"/>
      <path id="HelveticaNeue-Medium-75" d="M 3290 0 
L 2573 0 
L 2573 461 
L 2560 461 
Q 2426 211 2160 60 
Q 1894 -90 1619 -90 
Q 966 -90 675 233 
Q 384 557 384 1210 
L 384 3309 
L 1114 3309 
L 1114 1280 
Q 1114 845 1280 665 
Q 1446 486 1747 486 
Q 1978 486 2131 556 
Q 2285 627 2381 745 
Q 2477 864 2518 1030 
Q 2560 1197 2560 1389 
L 2560 3309 
L 3290 3309 
L 3290 0 
z
" transform="scale(0.015625)"/>
      <path id="HelveticaNeue-Medium-69" d="M 403 4570 
L 1133 4570 
L 1133 3878 
L 403 3878 
L 403 4570 
z
M 403 3309 
L 1133 3309 
L 1133 0 
L 403 0 
L 403 3309 
z
" transform="scale(0.015625)"/>
     </defs>
     <use xlink:href="#HelveticaNeue-Medium-47"/>
     <use xlink:href="#HelveticaNeue-Medium-61" x="75.899994"/>
     <use xlink:href="#HelveticaNeue-Medium-75" x="131.499985"/>
     <use xlink:href="#HelveticaNeue-Medium-73" x="188.899979"/>
     <use xlink:href="#HelveticaNeue-Medium-73" x="240.799973"/>
     <use xlink:href="#HelveticaNeue-Medium-69" x="292.699966"/>
     <use xlink:href="#HelveticaNeue-Medium-61" x="316.799957"/>
     <use xlink:href="#HelveticaNeue-Medium-6e" x="372.399948"/>
    </g>
   </g>
   <g id="line2d_29">
    <path d="M 423.574277 33.22875 
L 431.974277 33.22875 
L 440.374277 33.22875 
" style="fill: none; stroke: #377eb8; stroke-width: 1.142857"/>
   </g>
   <g id="text_16">
    <!-- Gaussian + Outlier -->
    <g transform="translate(453.574277 37.42875)scale(0.12 -0.12)">
     <defs>
      <path id="HelveticaNeue-Medium-20" transform="scale(0.015625)"/>
      <path id="HelveticaNeue-Medium-2b" d="M 1594 3238 
L 2246 3238 
L 2246 1946 
L 3533 1946 
L 3533 1293 
L 2246 1293 
L 2246 0 
L 1594 0 
L 1594 1293 
L 307 1293 
L 307 1946 
L 1594 1946 
L 1594 3238 
z
" transform="scale(0.015625)"/>
      <path id="HelveticaNeue-Medium-4f" d="M 2432 4026 
Q 2067 4026 1801 3878 
Q 1536 3731 1369 3484 
Q 1203 3238 1123 2924 
Q 1043 2611 1043 2285 
Q 1043 1958 1123 1644 
Q 1203 1331 1369 1084 
Q 1536 838 1801 691 
Q 2067 544 2432 544 
Q 2797 544 3062 691 
Q 3328 838 3494 1084 
Q 3661 1331 3741 1644 
Q 3821 1958 3821 2285 
Q 3821 2611 3741 2924 
Q 3661 3238 3494 3484 
Q 3328 3731 3062 3878 
Q 2797 4026 2432 4026 
z
M 2432 4678 
Q 2944 4678 3350 4486 
Q 3757 4294 4038 3968 
Q 4320 3642 4470 3206 
Q 4621 2771 4621 2285 
Q 4621 1792 4470 1357 
Q 4320 922 4038 595 
Q 3757 269 3350 80 
Q 2944 -109 2432 -109 
Q 1920 -109 1513 80 
Q 1107 269 825 595 
Q 544 922 393 1357 
Q 243 1792 243 2285 
Q 243 2771 393 3206 
Q 544 3642 825 3968 
Q 1107 4294 1513 4486 
Q 1920 4678 2432 4678 
z
" transform="scale(0.015625)"/>
      <path id="HelveticaNeue-Medium-6c" d="M 403 4570 
L 1133 4570 
L 1133 0 
L 403 0 
L 403 4570 
z
" transform="scale(0.015625)"/>
     </defs>
     <use xlink:href="#HelveticaNeue-Medium-47"/>
     <use xlink:href="#HelveticaNeue-Medium-61" x="75.899994"/>
     <use xlink:href="#HelveticaNeue-Medium-75" x="131.499985"/>
     <use xlink:href="#HelveticaNeue-Medium-73" x="188.899979"/>
     <use xlink:href="#HelveticaNeue-Medium-73" x="240.799973"/>
     <use xlink:href="#HelveticaNeue-Medium-69" x="292.699966"/>
     <use xlink:href="#HelveticaNeue-Medium-61" x="316.799957"/>
     <use xlink:href="#HelveticaNeue-Medium-6e" x="372.399948"/>
     <use xlink:href="#HelveticaNeue-Medium-20" x="429.799942"/>
     <use xlink:href="#HelveticaNeue-Medium-2b" x="457.59993"/>
     <use xlink:href="#HelveticaNeue-Medium-20" x="517.599915"/>
     <use xlink:href="#HelveticaNeue-Medium-4f" x="545.399902"/>
     <use xlink:href="#HelveticaNeue-Medium-75" x="621.399887"/>
     <use xlink:href="#HelveticaNeue-Medium-74" x="678.799881"/>
     <use xlink:href="#HelveticaNeue-Medium-6c" x="712.099869"/>
     <use xlink:href="#HelveticaNeue-Medium-69" x="736.19986"/>
     <use xlink:href="#HelveticaNeue-Medium-65" x="760.29985"/>
     <use xlink:href="#HelveticaNeue-Medium-72" x="815.899841"/>
    </g>
   </g>
   <g id="line2d_30">
    <path d="M 423.574277 50.08875 
L 431.974277 50.08875 
L 440.374277 50.08875 
" style="fill: none; stroke: #4daf4a; stroke-width: 1.142857"/>
   </g>
   <g id="text_17">
    <!-- Student-t -->
    <g transform="translate(453.574277 54.28875)scale(0.12 -0.12)">
     <defs>
      <path id="HelveticaNeue-Medium-53" d="M 1011 1523 
Q 1011 1261 1100 1075 
Q 1190 890 1350 771 
Q 1510 653 1718 598 
Q 1926 544 2170 544 
Q 2432 544 2617 605 
Q 2803 666 2918 762 
Q 3034 858 3085 982 
Q 3136 1107 3136 1235 
Q 3136 1498 3017 1622 
Q 2899 1747 2758 1798 
Q 2515 1888 2192 1968 
Q 1869 2048 1395 2176 
Q 1101 2253 905 2377 
Q 710 2502 595 2656 
Q 480 2810 432 2982 
Q 384 3155 384 3334 
Q 384 3680 528 3933 
Q 672 4186 909 4352 
Q 1146 4518 1446 4598 
Q 1747 4678 2054 4678 
Q 2413 4678 2729 4585 
Q 3046 4493 3286 4307 
Q 3526 4122 3667 3850 
Q 3808 3578 3808 3219 
L 3008 3219 
Q 2976 3661 2707 3843 
Q 2438 4026 2022 4026 
Q 1882 4026 1734 3997 
Q 1587 3968 1465 3901 
Q 1344 3834 1264 3718 
Q 1184 3603 1184 3430 
Q 1184 3187 1334 3049 
Q 1485 2912 1728 2842 
Q 1754 2835 1930 2787 
Q 2106 2739 2323 2681 
Q 2541 2624 2749 2569 
Q 2957 2515 3046 2490 
Q 3270 2419 3436 2297 
Q 3603 2176 3715 2019 
Q 3827 1862 3881 1683 
Q 3936 1504 3936 1325 
Q 3936 941 3779 669 
Q 3622 397 3366 224 
Q 3110 51 2784 -29 
Q 2458 -109 2118 -109 
Q 1728 -109 1382 -13 
Q 1037 83 781 281 
Q 525 480 371 790 
Q 218 1101 211 1523 
L 1011 1523 
z
" transform="scale(0.015625)"/>
      <path id="HelveticaNeue-Medium-64" d="M 3501 0 
L 2810 0 
L 2810 448 
L 2797 448 
Q 2650 160 2368 35 
Q 2086 -90 1773 -90 
Q 1382 -90 1091 48 
Q 800 186 608 422 
Q 416 659 320 982 
Q 224 1306 224 1677 
Q 224 2125 345 2451 
Q 467 2778 668 2989 
Q 870 3200 1129 3299 
Q 1389 3398 1658 3398 
Q 1811 3398 1971 3369 
Q 2131 3341 2278 3277 
Q 2426 3213 2550 3113 
Q 2675 3014 2758 2880 
L 2771 2880 
L 2771 4570 
L 3501 4570 
L 3501 0 
z
M 954 1619 
Q 954 1408 1008 1203 
Q 1062 998 1174 838 
Q 1286 678 1459 582 
Q 1632 486 1869 486 
Q 2112 486 2288 588 
Q 2464 691 2576 857 
Q 2688 1024 2742 1232 
Q 2797 1440 2797 1658 
Q 2797 2208 2550 2515 
Q 2304 2822 1882 2822 
Q 1626 2822 1450 2716 
Q 1274 2611 1162 2441 
Q 1050 2272 1002 2057 
Q 954 1843 954 1619 
z
" transform="scale(0.015625)"/>
      <path id="HelveticaNeue-Medium-2d" d="M 314 2086 
L 2176 2086 
L 2176 1395 
L 314 1395 
L 314 2086 
z
" transform="scale(0.015625)"/>
     </defs>
     <use xlink:href="#HelveticaNeue-Medium-53"/>
     <use xlink:href="#HelveticaNeue-Medium-74" x="64.799988"/>
     <use xlink:href="#HelveticaNeue-Medium-75" x="98.099976"/>
     <use xlink:href="#HelveticaNeue-Medium-64" x="155.499969"/>
     <use xlink:href="#HelveticaNeue-Medium-65" x="216.59996"/>
     <use xlink:href="#HelveticaNeue-Medium-6e" x="272.199951"/>
     <use xlink:href="#HelveticaNeue-Medium-74" x="329.599945"/>
     <use xlink:href="#HelveticaNeue-Medium-2d" x="362.899933"/>
     <use xlink:href="#HelveticaNeue-Medium-74" x="401.799927"/>
    </g>
   </g>
  </g>
 </g>
 <defs>
  <clipPath id="p902b383ae1">
   <rect x="39.69" y="266.525" width="260.407764" height="259.325"/>
  </clipPath>
  <clipPath id="p25cbe2d209">
   <rect x="39.69" y="7.2" width="260.407764" height="259.325"/>
  </clipPath>
  <clipPath id="p02bc07c552">
   <rect x="300.097764" y="266.525" width="260.407764" height="259.325"/>
  </clipPath>
 </defs>
</svg>
