<?xml version="1.0" encoding="utf-8" standalone="no"?>
<!DOCTYPE svg PUBLIC "-//W3C//DTD SVG 1.1//EN"
  "http://www.w3.org/Graphics/SVG/1.1/DTD/svg11.dtd">
<svg xmlns:xlink="http://www.w3.org/1999/xlink" width="421.529375pt" height="310.062pt" viewBox="0 0 421.529375 310.062" xmlns="http://www.w3.org/2000/svg" version="1.1">
 <metadata>
  <rdf:RDF xmlns:dc="http://purl.org/dc/elements/1.1/" xmlns:cc="http://creativecommons.org/ns#" xmlns:rdf="http://www.w3.org/1999/02/22-rdf-syntax-ns#">
   <cc:Work>
    <dc:type rdf:resource="http://purl.org/dc/dcmitype/StillImage"/>
    <dc:date>2023-06-23T11:53:58.858161</dc:date>
    <dc:format>image/svg+xml</dc:format>
    <dc:creator>
     <cc:Agent>
      <dc:title>Matplotlib v3.5.1, https://matplotlib.org/</dc:title>
     </cc:Agent>
    </dc:creator>
   </cc:Work>
  </rdf:RDF>
 </metadata>
 <defs>
  <style type="text/css">*{stroke-linejoin: round; stroke-linecap: butt}</style>
 </defs>
 <g id="figure_1">
  <g id="patch_1">
   <path d="M 0 310.062 
L 421.529375 310.062 
L 421.529375 0 
L 0 0 
z
" style="fill: #ffffff"/>
  </g>
  <g id="axes_1">
   <g id="patch_2">
    <path d="M 55.459375 275.062 
L 412.579375 275.062 
L 412.579375 8.95 
L 55.459375 8.95 
z
" style="fill: #ffffff"/>
   </g>
   <g id="PolyCollection_1">
    <defs>
     <path id="m7758d478b4" d="M 76.264702 -89.175867 
L 76.264702 -59.814836 
L 77.066912 -60.337474 
L 77.869122 -60.860112 
L 78.671333 -61.382749 
L 79.473543 -61.905387 
L 80.275753 -62.428024 
L 81.077964 -62.950662 
L 81.880174 -63.4733 
L 82.682385 -63.995937 
L 83.484595 -64.518575 
L 84.286805 -65.041213 
L 85.089016 -65.56385 
L 85.891226 -66.086488 
L 86.693437 -66.609125 
L 87.495647 -67.131763 
L 88.297857 -67.654401 
L 89.100068 -68.177038 
L 89.902278 -68.699676 
L 90.704489 -69.222314 
L 91.506699 -69.744951 
L 92.308909 -70.267589 
L 93.11112 -70.790226 
L 93.91333 -71.312864 
L 94.715541 -71.835502 
L 95.517751 -72.358139 
L 96.319961 -72.880777 
L 97.122172 -73.403415 
L 97.924382 -73.926052 
L 98.726592 -74.44869 
L 99.528803 -74.971327 
L 100.331013 -75.493965 
L 101.133224 -76.016603 
L 101.935434 -76.53924 
L 102.737644 -77.061878 
L 103.539855 -77.584515 
L 104.342065 -78.107153 
L 105.144276 -78.629791 
L 105.946486 -79.152428 
L 106.748696 -79.675066 
L 107.550907 -80.197704 
L 108.353117 -80.720341 
L 109.155328 -81.242979 
L 109.957538 -81.765616 
L 110.759748 -82.288254 
L 111.561959 -82.810892 
L 112.364169 -83.333529 
L 113.16638 -83.856167 
L 113.96859 -84.378805 
L 114.7708 -84.912019 
L 115.573011 -85.45215 
L 116.375221 -85.992281 
L 117.177431 -86.532412 
L 117.979642 -87.072544 
L 118.781852 -87.612677 
L 119.584063 -88.152811 
L 120.386273 -88.692945 
L 121.188483 -89.23308 
L 121.990694 -89.773215 
L 122.792904 -90.313351 
L 123.595115 -90.853488 
L 124.397325 -91.393625 
L 125.199535 -91.933763 
L 126.001746 -92.473902 
L 126.803956 -93.014041 
L 127.606167 -93.554181 
L 128.408377 -94.094322 
L 129.210587 -94.634463 
L 130.012798 -95.174605 
L 130.815008 -95.714747 
L 131.617219 -96.254891 
L 132.419429 -96.795034 
L 133.221639 -97.335179 
L 134.02385 -97.875324 
L 134.82606 -98.41547 
L 135.62827 -98.955616 
L 136.430481 -99.495763 
L 137.232691 -100.035911 
L 138.034902 -100.576059 
L 138.837112 -101.116208 
L 139.639322 -101.656358 
L 140.441533 -102.196508 
L 141.243743 -102.736659 
L 142.045954 -103.27681 
L 142.848164 -103.816963 
L 143.650374 -104.357115 
L 144.452585 -104.897269 
L 145.254795 -105.437423 
L 146.057006 -105.977578 
L 146.859216 -106.517733 
L 147.661426 -107.057889 
L 148.463637 -107.598046 
L 149.265847 -108.138203 
L 150.068058 -108.678361 
L 150.870268 -109.21852 
L 151.672478 -109.758679 
L 152.474689 -110.298839 
L 153.276899 -110.838999 
L 154.079109 -111.379161 
L 154.88132 -111.919322 
L 155.68353 -112.459485 
L 156.485741 -112.970328 
L 157.287951 -113.480088 
L 158.090161 -113.989848 
L 158.892372 -114.499609 
L 159.694582 -115.00937 
L 160.496793 -115.519132 
L 161.299003 -116.028893 
L 162.101213 -116.538656 
L 162.903424 -117.048418 
L 163.705634 -117.558181 
L 164.507845 -118.067944 
L 165.310055 -118.577708 
L 166.112265 -119.087472 
L 166.914476 -119.597236 
L 167.716686 -120.107001 
L 168.518897 -120.616765 
L 169.321107 -121.126531 
L 170.123317 -121.636296 
L 170.925528 -122.146062 
L 171.727738 -122.655829 
L 172.529948 -123.165595 
L 173.332159 -123.675362 
L 174.134369 -124.18513 
L 174.93658 -124.694898 
L 175.73879 -125.204666 
L 176.541 -125.714434 
L 177.343211 -126.224203 
L 178.145421 -126.733972 
L 178.947632 -127.243741 
L 179.749842 -127.753511 
L 180.552052 -128.263281 
L 181.354263 -128.773052 
L 182.156473 -129.282823 
L 182.958684 -129.792594 
L 183.760894 -130.302365 
L 184.563104 -130.812137 
L 185.365315 -131.32191 
L 186.167525 -131.831682 
L 186.969736 -132.341455 
L 187.771946 -132.851228 
L 188.574156 -133.361002 
L 189.376367 -133.870776 
L 190.178577 -134.38055 
L 190.980787 -134.890325 
L 191.782998 -135.4001 
L 192.585208 -135.909875 
L 193.387419 -136.419651 
L 194.189629 -136.929427 
L 194.991839 -137.439203 
L 195.79405 -137.94898 
L 196.59626 -138.458757 
L 197.398471 -138.968535 
L 198.200681 -139.478313 
L 199.002891 -139.988091 
L 199.805102 -140.497869 
L 200.607312 -141.007648 
L 201.409523 -141.517427 
L 202.211733 -142.027207 
L 203.013943 -142.536987 
L 203.816154 -143.046767 
L 204.618364 -143.556548 
L 205.420575 -144.066328 
L 206.222785 -144.57611 
L 207.024995 -145.085891 
L 207.827206 -145.595673 
L 208.629416 -146.105456 
L 209.431626 -146.615238 
L 210.233837 -147.125021 
L 211.036047 -147.634805 
L 211.838258 -148.144588 
L 212.640468 -148.663232 
L 213.442678 -149.18587 
L 214.244889 -149.708507 
L 215.047099 -150.231145 
L 215.84931 -150.753783 
L 216.65152 -151.286983 
L 217.45373 -151.829305 
L 218.255941 -152.371628 
L 219.058151 -152.913952 
L 219.860362 -153.456277 
L 220.662572 -153.998602 
L 221.464782 -154.540929 
L 222.266993 -155.083256 
L 223.069203 -155.625584 
L 223.871414 -156.167913 
L 224.673624 -156.703738 
L 225.475834 -157.217881 
L 226.278045 -157.732024 
L 227.080255 -158.246167 
L 227.882466 -158.76031 
L 228.684676 -159.274454 
L 229.486886 -159.788597 
L 230.289097 -160.302741 
L 231.091307 -160.816885 
L 231.893517 -161.331029 
L 232.695728 -161.845173 
L 233.497938 -162.359318 
L 234.300149 -162.873462 
L 235.102359 -163.387607 
L 235.904569 -163.901752 
L 236.70678 -164.416571 
L 237.50899 -164.936455 
L 238.311201 -165.456341 
L 239.113411 -165.990978 
L 239.915621 -166.53322 
L 240.717832 -167.075463 
L 241.520042 -167.603691 
L 242.322253 -168.102024 
L 243.124463 -168.600357 
L 243.926673 -169.099451 
L 244.728884 -169.600017 
L 245.531094 -170.100584 
L 246.333305 -170.614012 
L 247.135515 -171.13665 
L 247.937725 -171.659288 
L 248.739936 -172.181925 
L 249.542146 -172.704563 
L 250.344356 -173.242257 
L 251.146567 -173.811951 
L 251.948777 -174.372948 
L 252.750988 -174.854445 
L 253.553198 -175.335945 
L 254.355408 -175.840389 
L 255.157619 -176.363026 
L 255.959829 -176.885664 
L 256.76204 -177.408301 
L 257.56425 -177.930939 
L 258.36646 -178.453577 
L 259.168671 -178.976214 
L 259.970881 -179.498852 
L 260.773092 -180.008867 
L 261.575302 -180.417866 
L 262.377512 -180.826866 
L 263.179723 -181.309119 
L 263.981933 -181.799626 
L 264.784144 -182.290146 
L 265.586354 -182.782604 
L 266.388564 -183.276384 
L 267.190775 -183.707206 
L 267.992985 -184.138037 
L 268.795195 -184.568876 
L 269.597406 -184.999723 
L 270.399616 -185.438052 
L 271.201827 -185.916019 
L 272.004037 -186.393994 
L 272.806247 -186.871978 
L 273.608458 -187.361322 
L 274.410668 -187.858506 
L 275.212879 -188.319215 
L 276.015089 -188.669127 
L 276.817299 -189.128232 
L 277.61951 -189.627209 
L 278.42172 -190.126188 
L 279.223931 -190.625169 
L 280.026141 -191.124151 
L 280.828351 -191.623134 
L 281.630562 -191.994104 
L 282.432772 -192.35837 
L 283.234983 -192.747357 
L 284.037193 -193.190088 
L 284.839403 -193.632843 
L 285.641614 -194.093152 
L 286.443824 -194.585524 
L 287.246034 -195.077911 
L 288.048245 -195.570312 
L 288.850455 -196.095654 
L 289.652666 -196.648988 
L 290.454876 -197.202337 
L 291.257086 -197.624005 
L 292.059297 -198.044533 
L 292.861507 -198.465065 
L 293.663718 -198.885603 
L 294.465928 -199.335368 
L 295.268138 -199.792877 
L 296.070349 -200.221209 
L 296.872559 -200.630103 
L 297.67477 -201.038997 
L 298.47698 -201.447891 
L 299.27919 -201.856786 
L 300.081401 -202.26568 
L 300.883611 -202.674574 
L 301.685822 -203.083468 
L 302.488032 -203.492362 
L 303.290242 -203.901256 
L 304.092453 -204.31015 
L 304.894663 -204.719044 
L 305.696873 -205.127938 
L 306.499084 -205.536832 
L 307.301294 -205.945726 
L 308.103505 -206.35462 
L 308.905715 -206.763514 
L 309.707925 -207.167167 
L 310.510136 -207.542263 
L 311.312346 -207.917362 
L 312.114557 -208.292462 
L 312.916767 -208.667565 
L 313.718977 -209.064481 
L 314.521188 -209.463359 
L 315.323398 -209.86224 
L 316.125609 -210.261123 
L 316.927819 -210.660008 
L 317.730029 -211.058895 
L 318.53224 -211.457785 
L 319.33445 -211.856676 
L 320.136661 -212.25557 
L 320.938871 -212.654466 
L 321.741081 -213.053365 
L 322.543292 -213.452265 
L 323.345502 -213.851168 
L 324.147712 -214.250072 
L 324.949923 -214.64898 
L 325.752133 -215.047889 
L 326.554344 -215.4468 
L 327.356554 -215.845714 
L 328.158764 -216.244629 
L 328.960975 -216.643547 
L 329.763185 -217.042468 
L 330.565396 -217.44139 
L 331.367606 -217.840314 
L 332.169816 -218.239241 
L 332.972027 -218.63817 
L 333.774237 -219.037101 
L 334.576448 -219.436034 
L 335.378658 -219.841726 
L 336.180868 -220.250467 
L 336.983079 -220.659209 
L 337.785289 -221.06795 
L 338.5875 -221.476691 
L 339.38971 -221.885432 
L 340.19192 -222.294173 
L 340.994131 -222.702915 
L 341.796341 -223.111656 
L 342.598551 -223.520398 
L 343.400762 -223.929139 
L 344.202972 -224.337881 
L 345.005183 -224.746623 
L 345.807393 -225.155364 
L 346.609603 -225.564106 
L 347.411814 -225.972848 
L 348.214024 -226.38159 
L 349.016235 -226.790332 
L 349.818445 -227.199074 
L 350.620655 -227.607816 
L 351.422866 -227.997231 
L 352.225076 -228.368224 
L 353.027287 -228.739222 
L 353.829497 -229.110223 
L 354.631707 -229.481228 
L 355.433918 -229.852237 
L 356.236128 -230.22325 
L 357.038339 -230.594267 
L 357.840549 -230.965288 
L 358.642759 -231.336313 
L 359.44497 -231.707341 
L 360.24718 -232.078374 
L 361.04939 -232.44941 
L 361.851601 -232.82045 
L 362.653811 -233.191494 
L 363.456022 -233.562542 
L 364.258232 -233.933594 
L 365.060442 -234.30465 
L 365.862653 -234.693996 
L 366.664863 -235.09675 
L 367.467074 -235.499508 
L 368.269284 -235.902269 
L 369.071494 -236.305035 
L 369.873705 -236.707805 
L 370.675915 -237.110578 
L 371.478126 -237.513356 
L 372.280336 -237.916137 
L 373.082546 -238.318923 
L 373.884757 -238.721712 
L 374.686967 -239.124505 
L 375.489178 -239.527302 
L 376.291388 -239.930102 
L 377.093598 -240.332907 
L 377.895809 -240.735716 
L 378.698019 -241.138528 
L 379.50023 -241.541344 
L 380.30244 -241.944165 
L 381.10465 -242.346989 
L 381.906861 -242.749817 
L 382.709071 -243.152649 
L 383.511281 -243.555908 
L 384.313492 -243.968919 
L 385.115702 -244.381931 
L 385.917913 -244.794942 
L 386.720123 -245.207953 
L 387.522333 -245.620964 
L 388.324544 -246.033975 
L 389.126754 -246.446987 
L 389.928965 -246.859998 
L 390.731175 -247.273009 
L 391.533385 -247.686021 
L 392.335596 -248.099032 
L 393.137806 -248.512043 
L 393.940017 -248.925055 
L 394.742227 -249.338066 
L 395.544437 -249.751078 
L 396.346648 -250.164089 
L 396.346648 -272.744421 
L 396.346648 -272.744421 
L 395.544437 -272.228462 
L 394.742227 -271.712504 
L 393.940017 -271.196546 
L 393.137806 -270.677665 
L 392.335596 -270.151415 
L 391.533385 -269.625171 
L 390.731175 -269.098932 
L 389.928965 -268.565758 
L 389.126754 -268.00355 
L 388.324544 -267.441347 
L 387.522333 -266.87915 
L 386.720123 -266.316957 
L 385.917913 -265.754769 
L 385.115702 -265.192587 
L 384.313492 -264.630409 
L 383.511281 -264.068236 
L 382.709071 -263.506069 
L 381.906861 -262.943906 
L 381.10465 -262.381749 
L 380.30244 -261.819597 
L 379.50023 -261.257449 
L 378.698019 -260.695307 
L 377.895809 -260.13317 
L 377.093598 -259.571037 
L 376.291388 -259.006998 
L 375.489178 -258.442301 
L 374.686967 -257.877607 
L 373.884757 -257.312916 
L 373.082546 -256.815607 
L 372.280336 -256.322498 
L 371.478126 -255.829391 
L 370.675915 -255.336286 
L 369.873705 -254.843183 
L 369.071494 -254.350083 
L 368.269284 -253.856771 
L 367.467074 -253.358539 
L 366.664863 -252.860312 
L 365.862653 -252.362091 
L 365.060442 -251.863876 
L 364.258232 -251.365667 
L 363.456022 -250.867463 
L 362.653811 -250.369265 
L 361.851601 -249.871073 
L 361.04939 -249.372887 
L 360.24718 -248.874706 
L 359.44497 -248.376531 
L 358.642759 -247.878362 
L 357.840549 -247.380198 
L 357.038339 -246.87872 
L 356.236128 -246.342199 
L 355.433918 -245.805684 
L 354.631707 -245.269174 
L 353.829497 -244.725671 
L 353.027287 -244.176024 
L 352.225076 -243.626378 
L 351.422866 -243.076731 
L 350.620655 -242.527084 
L 349.818445 -241.977438 
L 349.016235 -241.427791 
L 348.214024 -240.878145 
L 347.411814 -240.328498 
L 346.609603 -239.778851 
L 345.807393 -239.229205 
L 345.005183 -238.679558 
L 344.202972 -238.129912 
L 343.400762 -237.580265 
L 342.598551 -237.030619 
L 341.796341 -236.480972 
L 340.994131 -235.931326 
L 340.19192 -235.381679 
L 339.38971 -234.832033 
L 338.5875 -234.282386 
L 337.785289 -233.73274 
L 336.983079 -233.183093 
L 336.180868 -232.633447 
L 335.378658 -232.0838 
L 334.576448 -231.534154 
L 333.774237 -230.984507 
L 332.972027 -230.434861 
L 332.169816 -229.885215 
L 331.367606 -229.335568 
L 330.565396 -228.785922 
L 329.763185 -228.236276 
L 328.960975 -227.686629 
L 328.158764 -227.136983 
L 327.356554 -226.587336 
L 326.554344 -226.03769 
L 325.752133 -225.488044 
L 324.949923 -224.938397 
L 324.147712 -224.388751 
L 323.345502 -223.839105 
L 322.543292 -223.289459 
L 321.741081 -222.739812 
L 320.938871 -222.257378 
L 320.136661 -221.784003 
L 319.33445 -221.310641 
L 318.53224 -220.825958 
L 317.730029 -220.297966 
L 316.927819 -219.769986 
L 316.125609 -219.242017 
L 315.323398 -218.71406 
L 314.521188 -218.186115 
L 313.718977 -217.658181 
L 312.916767 -217.130259 
L 312.114557 -216.602349 
L 311.312346 -216.07445 
L 310.510136 -215.546563 
L 309.707925 -215.018687 
L 308.905715 -214.4978 
L 308.103505 -214.041727 
L 307.301294 -213.585655 
L 306.499084 -213.120566 
L 305.696873 -212.637623 
L 304.894663 -212.154702 
L 304.092453 -211.671801 
L 303.290242 -211.188921 
L 302.488032 -210.706062 
L 301.685822 -210.223224 
L 300.883611 -209.759627 
L 300.081401 -209.322024 
L 299.27919 -208.809669 
L 298.47698 -208.36881 
L 297.67477 -207.939022 
L 296.872559 -207.509236 
L 296.070349 -207.068978 
L 295.268138 -206.612903 
L 294.465928 -206.156838 
L 293.663718 -205.69555 
L 292.861507 -205.188188 
L 292.059297 -204.703434 
L 291.257086 -204.250716 
L 290.454876 -203.797997 
L 289.652666 -203.34528 
L 288.850455 -202.892563 
L 288.048245 -202.42688 
L 287.246034 -201.951866 
L 286.443824 -201.476862 
L 285.641614 -200.9578 
L 284.839403 -200.43142 
L 284.037193 -199.905051 
L 283.234983 -199.378692 
L 282.432772 -198.852343 
L 281.630562 -198.326005 
L 280.828351 -197.799677 
L 280.026141 -197.273359 
L 279.223931 -196.747052 
L 278.42172 -196.220754 
L 277.61951 -195.703136 
L 276.817299 -195.269198 
L 276.015089 -194.835262 
L 275.212879 -194.401326 
L 274.410668 -193.967392 
L 273.608458 -193.526117 
L 272.806247 -193.08032 
L 272.004037 -192.688061 
L 271.201827 -192.296227 
L 270.399616 -191.904424 
L 269.597406 -191.512652 
L 268.795195 -191.070263 
L 267.992985 -190.588888 
L 267.190775 -190.107544 
L 266.388564 -189.628107 
L 265.586354 -189.194185 
L 264.784144 -188.760263 
L 263.981933 -188.326343 
L 263.179723 -187.892424 
L 262.377512 -187.458506 
L 261.575302 -187.024589 
L 260.773092 -186.590673 
L 259.970881 -186.169129 
L 259.168671 -185.74772 
L 258.36646 -185.326315 
L 257.56425 -184.904912 
L 256.76204 -184.483511 
L 255.959829 -184.062113 
L 255.157619 -183.640718 
L 254.355408 -183.210816 
L 253.553198 -182.763431 
L 252.750988 -182.316048 
L 251.948777 -181.868667 
L 251.146567 -181.423924 
L 250.344356 -180.9993 
L 249.542146 -180.574676 
L 248.739936 -180.150052 
L 247.937725 -179.725429 
L 247.135515 -179.300806 
L 246.333305 -178.876183 
L 245.531094 -178.451561 
L 244.728884 -178.026939 
L 243.926673 -177.602318 
L 243.124463 -177.177696 
L 242.322253 -176.753075 
L 241.520042 -176.328455 
L 240.717832 -175.903835 
L 239.915621 -175.479215 
L 239.113411 -175.054595 
L 238.311201 -174.657271 
L 237.50899 -174.281153 
L 236.70678 -173.905037 
L 235.904569 -173.525802 
L 235.102359 -173.134613 
L 234.300149 -172.743442 
L 233.497938 -172.319591 
L 232.695728 -171.998749 
L 231.893517 -171.648398 
L 231.091307 -171.271294 
L 230.289097 -170.868649 
L 229.486886 -170.450289 
L 228.684676 -170.015196 
L 227.882466 -169.570036 
L 227.080255 -169.179673 
L 226.278045 -168.805943 
L 225.475834 -168.408683 
L 224.673624 -167.991227 
L 223.871414 -167.573771 
L 223.069203 -167.156316 
L 222.266993 -166.738863 
L 221.464782 -166.309899 
L 220.662572 -165.877492 
L 219.860362 -165.445086 
L 219.058151 -165.012681 
L 218.255941 -164.580277 
L 217.45373 -164.147874 
L 216.65152 -163.715472 
L 215.84931 -163.28307 
L 215.047099 -162.850669 
L 214.244889 -162.41827 
L 213.442678 -161.985871 
L 212.640468 -161.553473 
L 211.838258 -161.121076 
L 211.036047 -160.688679 
L 210.233837 -160.256284 
L 209.431626 -159.823889 
L 208.629416 -159.391496 
L 207.827206 -158.959103 
L 207.024995 -158.526711 
L 206.222785 -158.09432 
L 205.420575 -157.66193 
L 204.618364 -157.22954 
L 203.816154 -156.797152 
L 203.013943 -156.364764 
L 202.211733 -155.932378 
L 201.409523 -155.499992 
L 200.607312 -155.067607 
L 199.805102 -154.635223 
L 199.002891 -154.20284 
L 198.200681 -153.770457 
L 197.398471 -153.338076 
L 196.59626 -152.905695 
L 195.79405 -152.473315 
L 194.991839 -152.040937 
L 194.189629 -151.608559 
L 193.387419 -151.176181 
L 192.585208 -150.743805 
L 191.782998 -150.31143 
L 190.980787 -149.879055 
L 190.178577 -149.446682 
L 189.376367 -149.014309 
L 188.574156 -148.581937 
L 187.771946 -148.149566 
L 186.969736 -147.717196 
L 186.167525 -147.284827 
L 185.365315 -146.852458 
L 184.563104 -146.420091 
L 183.760894 -145.987724 
L 182.958684 -145.555358 
L 182.156473 -145.122993 
L 181.354263 -144.690629 
L 180.552052 -144.258266 
L 179.749842 -143.825904 
L 178.947632 -143.393542 
L 178.145421 -142.961182 
L 177.343211 -142.528822 
L 176.541 -142.096463 
L 175.73879 -141.664106 
L 174.93658 -141.231749 
L 174.134369 -140.799392 
L 173.332159 -140.367037 
L 172.529948 -139.934683 
L 171.727738 -139.502329 
L 170.925528 -139.069976 
L 170.123317 -138.637625 
L 169.321107 -138.205274 
L 168.518897 -137.772924 
L 167.716686 -137.340575 
L 166.914476 -136.908226 
L 166.112265 -136.475879 
L 165.310055 -136.043532 
L 164.507845 -135.611187 
L 163.705634 -135.178842 
L 162.903424 -134.746498 
L 162.101213 -134.314155 
L 161.299003 -133.881813 
L 160.496793 -133.449471 
L 159.694582 -133.018897 
L 158.892372 -132.59431 
L 158.090161 -132.169724 
L 157.287951 -131.745138 
L 156.485741 -131.320553 
L 155.68353 -130.895968 
L 154.88132 -130.471383 
L 154.079109 -130.046799 
L 153.276899 -129.622215 
L 152.474689 -129.197631 
L 151.672478 -128.773048 
L 150.870268 -128.348465 
L 150.068058 -127.923882 
L 149.265847 -127.499299 
L 148.463637 -127.074717 
L 147.661426 -126.650136 
L 146.859216 -126.225554 
L 146.057006 -125.800973 
L 145.254795 -125.376392 
L 144.452585 -124.951812 
L 143.650374 -124.527232 
L 142.848164 -124.102652 
L 142.045954 -123.678073 
L 141.243743 -123.253494 
L 140.441533 -122.828915 
L 139.639322 -122.404337 
L 138.837112 -121.979759 
L 138.034902 -121.555181 
L 137.232691 -121.130603 
L 136.430481 -120.706026 
L 135.62827 -120.28145 
L 134.82606 -119.856873 
L 134.02385 -119.432297 
L 133.221639 -119.007722 
L 132.419429 -118.583146 
L 131.617219 -118.158571 
L 130.815008 -117.733996 
L 130.012798 -117.309422 
L 129.210587 -116.884848 
L 128.408377 -116.460274 
L 127.606167 -116.035701 
L 126.803956 -115.611128 
L 126.001746 -115.186555 
L 125.199535 -114.761983 
L 124.397325 -114.337411 
L 123.595115 -113.912839 
L 122.792904 -113.488268 
L 121.990694 -113.063697 
L 121.188483 -112.639126 
L 120.386273 -112.214555 
L 119.584063 -111.789985 
L 118.781852 -111.365416 
L 117.979642 -110.940846 
L 117.177431 -110.516277 
L 116.375221 -110.091709 
L 115.573011 -109.66714 
L 114.7708 -109.242572 
L 113.96859 -108.818004 
L 113.16638 -108.393437 
L 112.364169 -107.96887 
L 111.561959 -107.544303 
L 110.759748 -107.119737 
L 109.957538 -106.695171 
L 109.155328 -106.270605 
L 108.353117 -105.84604 
L 107.550907 -105.421475 
L 106.748696 -104.99691 
L 105.946486 -104.572346 
L 105.144276 -104.147782 
L 104.342065 -103.723218 
L 103.539855 -103.298655 
L 102.737644 -102.874092 
L 101.935434 -102.449529 
L 101.133224 -102.024967 
L 100.331013 -101.600405 
L 99.528803 -101.175843 
L 98.726592 -100.751282 
L 97.924382 -100.326721 
L 97.122172 -99.90216 
L 96.319961 -99.4776 
L 95.517751 -99.05304 
L 94.715541 -98.62848 
L 93.91333 -98.203921 
L 93.11112 -97.779362 
L 92.308909 -97.354803 
L 91.506699 -96.934863 
L 90.704489 -96.526495 
L 89.902278 -96.118126 
L 89.100068 -95.709758 
L 88.297857 -95.301389 
L 87.495647 -94.893021 
L 86.693437 -94.484653 
L 85.891226 -94.076284 
L 85.089016 -93.667916 
L 84.286805 -93.259548 
L 83.484595 -92.851179 
L 82.682385 -92.442811 
L 81.880174 -92.034443 
L 81.077964 -91.626075 
L 80.275753 -91.217707 
L 79.473543 -90.809339 
L 78.671333 -90.400971 
L 77.869122 -89.992603 
L 77.066912 -89.584235 
L 76.264702 -89.175867 
z
" style="stroke: #000000; stroke-opacity: 0.1"/>
    </defs>
    <g clip-path="url(#p5dc7b5a712)">
     <use xlink:href="#m7758d478b4" x="0" y="310.062" style="fill-opacity: 0.1; stroke: #000000; stroke-opacity: 0.1"/>
    </g>
   </g>
   <g id="matplotlib.axis_1">
    <g id="xtick_1">
     <g id="line2d_1">
      <defs>
       <path id="mf1d2609b49" d="M 0 1.75 
L 0 -1.75 
" style="stroke: #000000; stroke-width: 0.8"/>
      </defs>
      <g>
       <use xlink:href="#mf1d2609b49" x="76.264702" y="275.062" style="stroke: #000000; stroke-width: 0.8"/>
      </g>
     </g>
     <g id="line2d_2">
      <g>
       <use xlink:href="#mf1d2609b49" x="76.264702" y="8.95" style="stroke: #000000; stroke-width: 0.8"/>
      </g>
     </g>
     <g id="text_1">
      <!-- 9.0 -->
      <g transform="translate(69.315483 287.452625)scale(0.1 -0.1)">
       <defs>
        <path id="HelveticaNeue-Medium-39" d="M 1030 1133 
Q 1056 858 1225 688 
Q 1395 518 1683 518 
Q 1978 518 2154 675 
Q 2330 832 2426 1065 
Q 2522 1299 2557 1564 
Q 2592 1830 2611 2054 
L 2598 2067 
Q 2451 1805 2195 1667 
Q 1939 1530 1632 1530 
Q 1312 1530 1053 1638 
Q 794 1747 608 1942 
Q 422 2138 320 2416 
Q 218 2694 218 3040 
Q 218 3366 320 3644 
Q 422 3923 620 4131 
Q 819 4339 1107 4454 
Q 1395 4570 1760 4570 
Q 2234 4570 2541 4387 
Q 2848 4205 3024 3888 
Q 3200 3571 3270 3142 
Q 3341 2714 3341 2227 
Q 3341 1824 3254 1414 
Q 3168 1005 2969 669 
Q 2771 333 2448 121 
Q 2125 -90 1651 -90 
Q 1382 -90 1145 0 
Q 909 90 726 250 
Q 544 410 429 634 
Q 314 858 301 1133 
L 1030 1133 
z
M 1728 3962 
Q 1530 3962 1382 3888 
Q 1235 3814 1139 3686 
Q 1043 3558 995 3392 
Q 947 3226 947 3046 
Q 947 2861 995 2691 
Q 1043 2522 1139 2394 
Q 1235 2266 1382 2186 
Q 1530 2106 1728 2106 
Q 1933 2106 2086 2182 
Q 2240 2259 2339 2390 
Q 2438 2522 2489 2691 
Q 2541 2861 2541 3046 
Q 2541 3226 2489 3392 
Q 2438 3558 2339 3683 
Q 2240 3808 2086 3885 
Q 1933 3962 1728 3962 
z
" transform="scale(0.015625)"/>
        <path id="HelveticaNeue-Medium-2e" d="M 442 864 
L 1331 864 
L 1331 0 
L 442 0 
L 442 864 
z
" transform="scale(0.015625)"/>
        <path id="HelveticaNeue-Medium-30" d="M 1779 4570 
Q 2259 4570 2563 4349 
Q 2867 4128 3036 3785 
Q 3206 3443 3267 3033 
Q 3328 2624 3328 2240 
Q 3328 1856 3267 1446 
Q 3206 1037 3036 694 
Q 2867 352 2563 131 
Q 2259 -90 1779 -90 
Q 1299 -90 995 131 
Q 691 352 521 694 
Q 352 1037 291 1446 
Q 230 1856 230 2240 
Q 230 2624 291 3033 
Q 352 3443 521 3785 
Q 691 4128 995 4349 
Q 1299 4570 1779 4570 
z
M 1779 518 
Q 2016 518 2176 656 
Q 2336 794 2429 1027 
Q 2522 1261 2560 1574 
Q 2598 1888 2598 2240 
Q 2598 2592 2560 2902 
Q 2522 3213 2429 3449 
Q 2336 3686 2176 3824 
Q 2016 3962 1779 3962 
Q 1536 3962 1379 3824 
Q 1222 3686 1129 3449 
Q 1037 3213 998 2902 
Q 960 2592 960 2240 
Q 960 1888 998 1574 
Q 1037 1261 1129 1027 
Q 1222 794 1379 656 
Q 1536 518 1779 518 
z
" transform="scale(0.015625)"/>
       </defs>
       <use xlink:href="#HelveticaNeue-Medium-39"/>
       <use xlink:href="#HelveticaNeue-Medium-2e" x="55.599991"/>
       <use xlink:href="#HelveticaNeue-Medium-30" x="83.399979"/>
      </g>
     </g>
    </g>
    <g id="xtick_2">
     <g id="line2d_3">
      <g>
       <use xlink:href="#mf1d2609b49" x="121.990694" y="275.062" style="stroke: #000000; stroke-width: 0.8"/>
      </g>
     </g>
     <g id="line2d_4">
      <g>
       <use xlink:href="#mf1d2609b49" x="121.990694" y="8.95" style="stroke: #000000; stroke-width: 0.8"/>
      </g>
     </g>
     <g id="text_2">
      <!-- 9.5 -->
      <g transform="translate(115.041475 287.452625)scale(0.1 -0.1)">
       <defs>
        <path id="HelveticaNeue-Medium-35" d="M 787 4480 
L 3104 4480 
L 3104 3827 
L 1331 3827 
L 1101 2688 
L 1114 2675 
Q 1261 2842 1488 2928 
Q 1715 3014 1939 3014 
Q 2272 3014 2534 2902 
Q 2797 2790 2976 2588 
Q 3155 2387 3248 2112 
Q 3341 1837 3341 1517 
Q 3341 1248 3254 963 
Q 3168 678 2979 444 
Q 2790 211 2496 60 
Q 2202 -90 1792 -90 
Q 1466 -90 1187 -3 
Q 909 83 697 256 
Q 486 429 361 681 
Q 237 934 224 1274 
L 954 1274 
Q 986 909 1203 713 
Q 1421 518 1779 518 
Q 2010 518 2170 595 
Q 2330 672 2429 806 
Q 2528 941 2569 1120 
Q 2611 1299 2611 1504 
Q 2611 1690 2560 1859 
Q 2509 2029 2406 2157 
Q 2304 2285 2141 2361 
Q 1978 2438 1760 2438 
Q 1530 2438 1328 2352 
Q 1126 2266 1037 2029 
L 307 2029 
L 787 4480 
z
" transform="scale(0.015625)"/>
       </defs>
       <use xlink:href="#HelveticaNeue-Medium-39"/>
       <use xlink:href="#HelveticaNeue-Medium-2e" x="55.599991"/>
       <use xlink:href="#HelveticaNeue-Medium-35" x="83.399979"/>
      </g>
     </g>
    </g>
    <g id="xtick_3">
     <g id="line2d_5">
      <g>
       <use xlink:href="#mf1d2609b49" x="167.716686" y="275.062" style="stroke: #000000; stroke-width: 0.8"/>
      </g>
     </g>
     <g id="line2d_6">
      <g>
       <use xlink:href="#mf1d2609b49" x="167.716686" y="8.95" style="stroke: #000000; stroke-width: 0.8"/>
      </g>
     </g>
     <g id="text_3">
      <!-- 10.0 -->
      <g transform="translate(157.98778 287.452625)scale(0.1 -0.1)">
       <defs>
        <path id="HelveticaNeue-Medium-31" d="M 339 3738 
Q 570 3738 787 3776 
Q 1005 3814 1181 3904 
Q 1357 3994 1481 4134 
Q 1606 4275 1645 4480 
L 2240 4480 
L 2240 0 
L 1440 0 
L 1440 3162 
L 339 3162 
L 339 3738 
z
" transform="scale(0.015625)"/>
       </defs>
       <use xlink:href="#HelveticaNeue-Medium-31"/>
       <use xlink:href="#HelveticaNeue-Medium-30" x="55.599991"/>
       <use xlink:href="#HelveticaNeue-Medium-2e" x="111.199982"/>
       <use xlink:href="#HelveticaNeue-Medium-30" x="138.999969"/>
      </g>
     </g>
    </g>
    <g id="xtick_4">
     <g id="line2d_7">
      <g>
       <use xlink:href="#mf1d2609b49" x="213.442678" y="275.062" style="stroke: #000000; stroke-width: 0.8"/>
      </g>
     </g>
     <g id="line2d_8">
      <g>
       <use xlink:href="#mf1d2609b49" x="213.442678" y="8.95" style="stroke: #000000; stroke-width: 0.8"/>
      </g>
     </g>
     <g id="text_4">
      <!-- 10.5 -->
      <g transform="translate(203.713772 287.452625)scale(0.1 -0.1)">
       <use xlink:href="#HelveticaNeue-Medium-31"/>
       <use xlink:href="#HelveticaNeue-Medium-30" x="55.599991"/>
       <use xlink:href="#HelveticaNeue-Medium-2e" x="111.199982"/>
       <use xlink:href="#HelveticaNeue-Medium-35" x="138.999969"/>
      </g>
     </g>
    </g>
    <g id="xtick_5">
     <g id="line2d_9">
      <g>
       <use xlink:href="#mf1d2609b49" x="259.168671" y="275.062" style="stroke: #000000; stroke-width: 0.8"/>
      </g>
     </g>
     <g id="line2d_10">
      <g>
       <use xlink:href="#mf1d2609b49" x="259.168671" y="8.95" style="stroke: #000000; stroke-width: 0.8"/>
      </g>
     </g>
     <g id="text_5">
      <!-- 11.0 -->
      <g transform="translate(249.439765 287.452625)scale(0.1 -0.1)">
       <use xlink:href="#HelveticaNeue-Medium-31"/>
       <use xlink:href="#HelveticaNeue-Medium-31" x="55.599991"/>
       <use xlink:href="#HelveticaNeue-Medium-2e" x="111.199982"/>
       <use xlink:href="#HelveticaNeue-Medium-30" x="138.999969"/>
      </g>
     </g>
    </g>
    <g id="xtick_6">
     <g id="line2d_11">
      <g>
       <use xlink:href="#mf1d2609b49" x="304.894663" y="275.062" style="stroke: #000000; stroke-width: 0.8"/>
      </g>
     </g>
     <g id="line2d_12">
      <g>
       <use xlink:href="#mf1d2609b49" x="304.894663" y="8.95" style="stroke: #000000; stroke-width: 0.8"/>
      </g>
     </g>
     <g id="text_6">
      <!-- 11.5 -->
      <g transform="translate(295.165757 287.452625)scale(0.1 -0.1)">
       <use xlink:href="#HelveticaNeue-Medium-31"/>
       <use xlink:href="#HelveticaNeue-Medium-31" x="55.599991"/>
       <use xlink:href="#HelveticaNeue-Medium-2e" x="111.199982"/>
       <use xlink:href="#HelveticaNeue-Medium-35" x="138.999969"/>
      </g>
     </g>
    </g>
    <g id="xtick_7">
     <g id="line2d_13">
      <g>
       <use xlink:href="#mf1d2609b49" x="350.620655" y="275.062" style="stroke: #000000; stroke-width: 0.8"/>
      </g>
     </g>
     <g id="line2d_14">
      <g>
       <use xlink:href="#mf1d2609b49" x="350.620655" y="8.95" style="stroke: #000000; stroke-width: 0.8"/>
      </g>
     </g>
     <g id="text_7">
      <!-- 12.0 -->
      <g transform="translate(340.891749 287.452625)scale(0.1 -0.1)">
       <defs>
        <path id="HelveticaNeue-Medium-32" d="M 3309 0 
L 250 0 
Q 256 557 518 973 
Q 781 1389 1235 1696 
Q 1453 1856 1689 2006 
Q 1926 2157 2124 2329 
Q 2323 2502 2451 2704 
Q 2579 2906 2586 3168 
Q 2586 3290 2557 3427 
Q 2528 3565 2445 3683 
Q 2362 3802 2214 3882 
Q 2067 3962 1830 3962 
Q 1613 3962 1469 3875 
Q 1325 3789 1238 3638 
Q 1152 3488 1110 3283 
Q 1069 3078 1062 2842 
L 333 2842 
Q 333 3213 432 3529 
Q 531 3846 729 4076 
Q 928 4307 1213 4438 
Q 1498 4570 1875 4570 
Q 2285 4570 2560 4435 
Q 2835 4301 3004 4096 
Q 3174 3891 3244 3651 
Q 3315 3411 3315 3194 
Q 3315 2925 3232 2707 
Q 3149 2490 3008 2307 
Q 2867 2125 2688 1971 
Q 2509 1818 2317 1683 
Q 2125 1549 1933 1427 
Q 1741 1306 1577 1184 
Q 1414 1062 1292 931 
Q 1171 800 1126 653 
L 3309 653 
L 3309 0 
z
" transform="scale(0.015625)"/>
       </defs>
       <use xlink:href="#HelveticaNeue-Medium-31"/>
       <use xlink:href="#HelveticaNeue-Medium-32" x="55.599991"/>
       <use xlink:href="#HelveticaNeue-Medium-2e" x="111.199982"/>
       <use xlink:href="#HelveticaNeue-Medium-30" x="138.999969"/>
      </g>
     </g>
    </g>
    <g id="xtick_8">
     <g id="line2d_15">
      <g>
       <use xlink:href="#mf1d2609b49" x="396.346648" y="275.062" style="stroke: #000000; stroke-width: 0.8"/>
      </g>
     </g>
     <g id="line2d_16">
      <g>
       <use xlink:href="#mf1d2609b49" x="396.346648" y="8.95" style="stroke: #000000; stroke-width: 0.8"/>
      </g>
     </g>
     <g id="text_8">
      <!-- 12.5 -->
      <g transform="translate(386.617741 287.452625)scale(0.1 -0.1)">
       <use xlink:href="#HelveticaNeue-Medium-31"/>
       <use xlink:href="#HelveticaNeue-Medium-32" x="55.599991"/>
       <use xlink:href="#HelveticaNeue-Medium-2e" x="111.199982"/>
       <use xlink:href="#HelveticaNeue-Medium-35" x="138.999969"/>
      </g>
     </g>
    </g>
    <g id="text_9">
     <!-- Bulge mass [log, $M_\odot$] -->
     <g transform="translate(183.919375 300.762)scale(0.1 -0.1)">
      <defs>
       <path id="HelveticaNeue-Medium-42" d="M 1286 2656 
L 2592 2656 
Q 2880 2656 3072 2819 
Q 3264 2982 3264 3290 
Q 3264 3635 3091 3776 
Q 2918 3917 2592 3917 
L 1286 3917 
L 1286 2656 
z
M 486 4570 
L 2707 4570 
Q 3322 4570 3693 4288 
Q 4064 4006 4064 3437 
Q 4064 3091 3894 2844 
Q 3725 2598 3411 2464 
L 3411 2451 
Q 3834 2362 4051 2051 
Q 4269 1741 4269 1274 
Q 4269 1005 4173 771 
Q 4077 538 3872 368 
Q 3667 198 3347 99 
Q 3027 0 2586 0 
L 486 0 
L 486 4570 
z
M 1286 653 
L 2701 653 
Q 3066 653 3267 841 
Q 3469 1030 3469 1376 
Q 3469 1715 3267 1897 
Q 3066 2080 2701 2080 
L 1286 2080 
L 1286 653 
z
" transform="scale(0.015625)"/>
       <path id="HelveticaNeue-Medium-75" d="M 3290 0 
L 2573 0 
L 2573 461 
L 2560 461 
Q 2426 211 2160 60 
Q 1894 -90 1619 -90 
Q 966 -90 675 233 
Q 384 557 384 1210 
L 384 3309 
L 1114 3309 
L 1114 1280 
Q 1114 845 1280 665 
Q 1446 486 1747 486 
Q 1978 486 2131 556 
Q 2285 627 2381 745 
Q 2477 864 2518 1030 
Q 2560 1197 2560 1389 
L 2560 3309 
L 3290 3309 
L 3290 0 
z
" transform="scale(0.015625)"/>
       <path id="HelveticaNeue-Medium-6c" d="M 403 4570 
L 1133 4570 
L 1133 0 
L 403 0 
L 403 4570 
z
" transform="scale(0.015625)"/>
       <path id="HelveticaNeue-Medium-67" d="M 3443 173 
Q 3443 -576 3024 -944 
Q 2605 -1312 1818 -1312 
Q 1568 -1312 1315 -1261 
Q 1062 -1210 854 -1088 
Q 646 -966 505 -768 
Q 365 -570 339 -282 
L 1069 -282 
Q 1101 -435 1177 -531 
Q 1254 -627 1360 -681 
Q 1466 -736 1594 -752 
Q 1722 -768 1862 -768 
Q 2304 -768 2509 -550 
Q 2714 -333 2714 77 
L 2714 582 
L 2701 582 
Q 2547 307 2281 153 
Q 2016 0 1709 0 
Q 1312 0 1033 137 
Q 755 275 572 515 
Q 390 755 307 1068 
Q 224 1382 224 1741 
Q 224 2074 326 2374 
Q 429 2675 621 2902 
Q 813 3130 1091 3264 
Q 1370 3398 1722 3398 
Q 2035 3398 2297 3267 
Q 2560 3136 2701 2854 
L 2714 2854 
L 2714 3309 
L 3443 3309 
L 3443 173 
z
M 1824 576 
Q 2067 576 2236 675 
Q 2406 774 2512 937 
Q 2618 1101 2666 1309 
Q 2714 1517 2714 1728 
Q 2714 1939 2662 2137 
Q 2611 2336 2505 2489 
Q 2400 2643 2230 2732 
Q 2061 2822 1824 2822 
Q 1581 2822 1414 2720 
Q 1248 2618 1145 2454 
Q 1043 2291 998 2083 
Q 954 1875 954 1670 
Q 954 1466 1005 1270 
Q 1056 1075 1161 921 
Q 1267 768 1430 672 
Q 1594 576 1824 576 
z
" transform="scale(0.015625)"/>
       <path id="HelveticaNeue-Medium-65" d="M 2656 1946 
Q 2643 2118 2582 2278 
Q 2522 2438 2416 2556 
Q 2310 2675 2160 2748 
Q 2010 2822 1824 2822 
Q 1632 2822 1475 2755 
Q 1318 2688 1206 2569 
Q 1094 2451 1027 2291 
Q 960 2131 954 1946 
L 2656 1946 
z
M 954 1466 
Q 954 1274 1008 1094 
Q 1062 915 1171 780 
Q 1280 646 1446 566 
Q 1613 486 1843 486 
Q 2163 486 2358 624 
Q 2554 762 2650 1037 
L 3341 1037 
Q 3283 768 3142 557 
Q 3002 346 2803 202 
Q 2605 58 2358 -16 
Q 2112 -90 1843 -90 
Q 1453 -90 1152 38 
Q 851 166 643 396 
Q 435 627 329 947 
Q 224 1267 224 1651 
Q 224 2003 336 2320 
Q 448 2637 656 2877 
Q 864 3117 1158 3257 
Q 1453 3398 1824 3398 
Q 2214 3398 2524 3235 
Q 2835 3072 3040 2803 
Q 3245 2534 3337 2185 
Q 3430 1837 3386 1466 
L 954 1466 
z
" transform="scale(0.015625)"/>
       <path id="HelveticaNeue-Medium-20" transform="scale(0.015625)"/>
       <path id="HelveticaNeue-Medium-6d" d="M 384 3309 
L 1075 3309 
L 1075 2848 
L 1094 2848 
Q 1178 2970 1274 3072 
Q 1370 3174 1488 3244 
Q 1606 3315 1760 3356 
Q 1914 3398 2112 3398 
Q 2413 3398 2672 3264 
Q 2931 3130 3040 2848 
Q 3226 3104 3469 3251 
Q 3712 3398 4077 3398 
Q 4602 3398 4893 3142 
Q 5184 2886 5184 2285 
L 5184 0 
L 4454 0 
L 4454 1933 
Q 4454 2131 4441 2294 
Q 4429 2458 4368 2576 
Q 4307 2694 4185 2758 
Q 4064 2822 3853 2822 
Q 3482 2822 3315 2592 
Q 3149 2362 3149 1939 
L 3149 0 
L 2419 0 
L 2419 2125 
Q 2419 2470 2294 2646 
Q 2170 2822 1837 2822 
Q 1696 2822 1565 2764 
Q 1434 2707 1334 2598 
Q 1235 2490 1174 2330 
Q 1114 2170 1114 1965 
L 1114 0 
L 384 0 
L 384 3309 
z
" transform="scale(0.015625)"/>
       <path id="HelveticaNeue-Medium-61" d="M 3155 736 
Q 3155 602 3190 544 
Q 3226 486 3328 486 
Q 3360 486 3405 486 
Q 3450 486 3507 499 
L 3507 -6 
Q 3469 -19 3408 -35 
Q 3347 -51 3283 -64 
Q 3219 -77 3155 -83 
Q 3091 -90 3046 -90 
Q 2822 -90 2675 0 
Q 2528 90 2483 314 
Q 2266 102 1949 6 
Q 1632 -90 1338 -90 
Q 1114 -90 909 -29 
Q 704 32 547 150 
Q 390 269 297 451 
Q 205 634 205 877 
Q 205 1184 317 1376 
Q 429 1568 611 1677 
Q 794 1786 1021 1834 
Q 1248 1882 1478 1907 
Q 1677 1946 1856 1962 
Q 2035 1978 2172 2016 
Q 2310 2054 2390 2134 
Q 2470 2214 2470 2374 
Q 2470 2515 2403 2604 
Q 2336 2694 2237 2742 
Q 2138 2790 2016 2806 
Q 1894 2822 1786 2822 
Q 1478 2822 1280 2694 
Q 1082 2566 1056 2298 
L 326 2298 
Q 346 2618 480 2829 
Q 614 3040 822 3168 
Q 1030 3296 1292 3347 
Q 1555 3398 1830 3398 
Q 2074 3398 2310 3347 
Q 2547 3296 2736 3181 
Q 2925 3066 3040 2883 
Q 3155 2701 3155 2438 
L 3155 736 
z
M 2426 1658 
Q 2259 1549 2016 1526 
Q 1773 1504 1530 1459 
Q 1414 1440 1305 1405 
Q 1197 1370 1113 1309 
Q 1030 1248 982 1149 
Q 934 1050 934 909 
Q 934 787 1004 704 
Q 1075 621 1174 573 
Q 1274 525 1392 505 
Q 1510 486 1606 486 
Q 1728 486 1869 518 
Q 2010 550 2134 627 
Q 2259 704 2342 822 
Q 2426 941 2426 1114 
L 2426 1658 
z
" transform="scale(0.015625)"/>
       <path id="HelveticaNeue-Medium-73" d="M 934 1062 
Q 966 742 1177 614 
Q 1389 486 1683 486 
Q 1786 486 1917 502 
Q 2048 518 2163 563 
Q 2278 608 2352 694 
Q 2426 781 2419 921 
Q 2413 1062 2317 1152 
Q 2221 1242 2070 1296 
Q 1920 1350 1728 1388 
Q 1536 1427 1338 1472 
Q 1133 1517 944 1581 
Q 755 1645 604 1753 
Q 454 1862 364 2032 
Q 275 2202 275 2451 
Q 275 2720 406 2902 
Q 538 3085 739 3197 
Q 941 3309 1187 3353 
Q 1434 3398 1658 3398 
Q 1914 3398 2147 3344 
Q 2381 3290 2569 3168 
Q 2758 3046 2883 2851 
Q 3008 2656 3040 2381 
L 2278 2381 
Q 2227 2643 2038 2732 
Q 1850 2822 1606 2822 
Q 1530 2822 1424 2809 
Q 1318 2797 1225 2761 
Q 1133 2726 1069 2659 
Q 1005 2592 1005 2483 
Q 1005 2349 1097 2265 
Q 1190 2182 1340 2128 
Q 1491 2074 1683 2035 
Q 1875 1997 2080 1952 
Q 2278 1907 2470 1843 
Q 2662 1779 2812 1670 
Q 2963 1562 3056 1395 
Q 3149 1229 3149 986 
Q 3149 691 3014 486 
Q 2880 282 2665 154 
Q 2451 26 2188 -32 
Q 1926 -90 1670 -90 
Q 1357 -90 1091 -19 
Q 826 51 630 195 
Q 435 339 323 553 
Q 211 768 205 1062 
L 934 1062 
z
" transform="scale(0.015625)"/>
       <path id="HelveticaNeue-Medium-5b" d="M 461 4678 
L 1888 4678 
L 1888 4102 
L 1152 4102 
L 1152 -646 
L 1888 -646 
L 1888 -1222 
L 461 -1222 
L 461 4678 
z
" transform="scale(0.015625)"/>
       <path id="HelveticaNeue-Medium-6f" d="M 1901 -90 
Q 1504 -90 1193 41 
Q 883 173 668 403 
Q 454 634 342 954 
Q 230 1274 230 1658 
Q 230 2035 342 2355 
Q 454 2675 668 2905 
Q 883 3136 1193 3267 
Q 1504 3398 1901 3398 
Q 2298 3398 2608 3267 
Q 2918 3136 3132 2905 
Q 3347 2675 3459 2355 
Q 3571 2035 3571 1658 
Q 3571 1274 3459 954 
Q 3347 634 3132 403 
Q 2918 173 2608 41 
Q 2298 -90 1901 -90 
z
M 1901 486 
Q 2144 486 2323 588 
Q 2502 691 2617 857 
Q 2733 1024 2787 1232 
Q 2842 1440 2842 1658 
Q 2842 1869 2787 2080 
Q 2733 2291 2617 2454 
Q 2502 2618 2323 2720 
Q 2144 2822 1901 2822 
Q 1658 2822 1478 2720 
Q 1299 2618 1184 2454 
Q 1069 2291 1014 2080 
Q 960 1869 960 1658 
Q 960 1440 1014 1232 
Q 1069 1024 1184 857 
Q 1299 691 1478 588 
Q 1658 486 1901 486 
z
" transform="scale(0.015625)"/>
       <path id="HelveticaNeue-Medium-2c" d="M 442 864 
L 1331 864 
L 1331 0 
Q 1325 -397 1088 -665 
Q 851 -934 467 -1011 
L 467 -621 
Q 678 -570 784 -387 
Q 890 -205 883 0 
L 442 0 
L 442 864 
z
" transform="scale(0.015625)"/>
       <path id="DejaVuSans-Oblique-4d" d="M 1081 4666 
L 2028 4666 
L 2572 1522 
L 4378 4666 
L 5350 4666 
L 4441 0 
L 3828 0 
L 4622 4091 
L 2791 897 
L 2175 897 
L 1581 4103 
L 788 0 
L 172 0 
L 1081 4666 
z
" transform="scale(0.015625)"/>
       <path id="DejaVuSans-2299" d="M 2350 2403 
L 3013 2403 
L 3013 1609 
L 2350 1609 
L 2350 2403 
z
M 3306 3522 
Q 3016 3644 2681 3644 
Q 2347 3644 2056 3522 
Q 1769 3400 1531 3163 
Q 1291 2922 1172 2634 
Q 1053 2347 1053 2006 
Q 1053 1675 1172 1387 
Q 1291 1100 1531 859 
Q 1769 622 2056 500 
Q 2347 378 2681 378 
Q 3016 378 3306 500 
Q 3594 622 3831 859 
Q 4072 1100 4190 1387 
Q 4309 1675 4309 2006 
Q 4309 2347 4190 2634 
Q 4072 2922 3831 3163 
Q 3594 3400 3306 3522 
z
M 1878 3956 
Q 2250 4113 2681 4113 
Q 3113 4113 3484 3956 
Q 3856 3800 4163 3494 
Q 4472 3184 4625 2813 
Q 4778 2444 4778 2006 
Q 4778 1578 4625 1206 
Q 4472 838 4163 528 
Q 3856 222 3484 65 
Q 3113 -91 2681 -91 
Q 2250 -91 1878 65 
Q 1506 222 1200 528 
Q 891 838 738 1206 
Q 584 1578 584 2006 
Q 584 2444 738 2813 
Q 891 3184 1200 3494 
Q 1506 3800 1878 3956 
z
" transform="scale(0.015625)"/>
       <path id="HelveticaNeue-Medium-5d" d="M 1434 -1222 
L 6 -1222 
L 6 -646 
L 742 -646 
L 742 4102 
L 6 4102 
L 6 4678 
L 1434 4678 
L 1434 -1222 
z
" transform="scale(0.015625)"/>
      </defs>
      <use xlink:href="#HelveticaNeue-Medium-42" transform="translate(0 0.90625)"/>
      <use xlink:href="#HelveticaNeue-Medium-75" transform="translate(70.399994 0.90625)"/>
      <use xlink:href="#HelveticaNeue-Medium-6c" transform="translate(127.799988 0.90625)"/>
      <use xlink:href="#HelveticaNeue-Medium-67" transform="translate(151.899979 0.90625)"/>
      <use xlink:href="#HelveticaNeue-Medium-65" transform="translate(211.199966 0.90625)"/>
      <use xlink:href="#HelveticaNeue-Medium-20" transform="translate(266.799957 0.90625)"/>
      <use xlink:href="#HelveticaNeue-Medium-6d" transform="translate(294.599945 0.90625)"/>
      <use xlink:href="#HelveticaNeue-Medium-61" transform="translate(381.59993 0.90625)"/>
      <use xlink:href="#HelveticaNeue-Medium-73" transform="translate(437.199921 0.90625)"/>
      <use xlink:href="#HelveticaNeue-Medium-73" transform="translate(489.099915 0.90625)"/>
      <use xlink:href="#HelveticaNeue-Medium-20" transform="translate(540.999908 0.90625)"/>
      <use xlink:href="#HelveticaNeue-Medium-5b" transform="translate(568.799896 0.90625)"/>
      <use xlink:href="#HelveticaNeue-Medium-6c" transform="translate(598.399887 0.90625)"/>
      <use xlink:href="#HelveticaNeue-Medium-6f" transform="translate(622.499878 0.90625)"/>
      <use xlink:href="#HelveticaNeue-Medium-67" transform="translate(681.799866 0.90625)"/>
      <use xlink:href="#HelveticaNeue-Medium-2c" transform="translate(741.099854 0.90625)"/>
      <use xlink:href="#HelveticaNeue-Medium-20" transform="translate(768.899841 0.90625)"/>
      <use xlink:href="#DejaVuSans-Oblique-4d" transform="translate(796.699829 0.90625)"/>
      <use xlink:href="#DejaVuSans-2299" transform="translate(896.616821 -15.5)scale(0.7)"/>
      <use xlink:href="#HelveticaNeue-Medium-5d" transform="translate(971.641235 0.90625)"/>
     </g>
    </g>
   </g>
   <g id="matplotlib.axis_2">
    <g id="ytick_1">
     <g id="line2d_17">
      <defs>
       <path id="m3624f2610c" d="M 1.75 0 
L -1.75 -0 
" style="stroke: #000000; stroke-width: 0.8"/>
      </defs>
      <g>
       <use xlink:href="#m3624f2610c" x="55.459375" y="225.430434" style="stroke: #000000; stroke-width: 0.8"/>
      </g>
     </g>
     <g id="line2d_18">
      <g>
       <use xlink:href="#m3624f2610c" x="412.579375" y="225.430434" style="stroke: #000000; stroke-width: 0.8"/>
      </g>
     </g>
     <g id="text_10">
      <!-- $\mathdefault{10^{2}}$ -->
      <g transform="translate(34.809375 229.000746)scale(0.1 -0.1)">
       <use xlink:href="#HelveticaNeue-Medium-31" transform="translate(0 0.823438)"/>
       <use xlink:href="#HelveticaNeue-Medium-30" transform="translate(55.599991 0.823438)"/>
       <use xlink:href="#HelveticaNeue-Medium-32" transform="translate(112.104786 37.015625)scale(0.7)"/>
      </g>
     </g>
    </g>
    <g id="ytick_2">
     <g id="line2d_19">
      <defs>
       <path id="m923b0a409c" d="M 1 0 
L -1 -0 
" style="stroke: #000000; stroke-width: 0.6"/>
      </defs>
      <g>
       <use xlink:href="#m923b0a409c" x="55.459375" y="269.893302" style="stroke: #000000; stroke-width: 0.6"/>
      </g>
     </g>
     <g id="line2d_20">
      <g>
       <use xlink:href="#m923b0a409c" x="412.579375" y="269.893302" style="stroke: #000000; stroke-width: 0.6"/>
      </g>
     </g>
    </g>
    <g id="ytick_3">
     <g id="line2d_21">
      <g>
       <use xlink:href="#m923b0a409c" x="55.459375" y="253.247365" style="stroke: #000000; stroke-width: 0.6"/>
      </g>
     </g>
     <g id="line2d_22">
      <g>
       <use xlink:href="#m923b0a409c" x="412.579375" y="253.247365" style="stroke: #000000; stroke-width: 0.6"/>
      </g>
     </g>
    </g>
    <g id="ytick_4">
     <g id="line2d_23">
      <g>
       <use xlink:href="#m923b0a409c" x="55.459375" y="238.564608" style="stroke: #000000; stroke-width: 0.6"/>
      </g>
     </g>
     <g id="line2d_24">
      <g>
       <use xlink:href="#m923b0a409c" x="412.579375" y="238.564608" style="stroke: #000000; stroke-width: 0.6"/>
      </g>
     </g>
    </g>
    <g id="ytick_5">
     <g id="line2d_25">
      <g>
       <use xlink:href="#m923b0a409c" x="55.459375" y="139.023154" style="stroke: #000000; stroke-width: 0.6"/>
      </g>
     </g>
     <g id="line2d_26">
      <g>
       <use xlink:href="#m923b0a409c" x="412.579375" y="139.023154" style="stroke: #000000; stroke-width: 0.6"/>
      </g>
     </g>
     <g id="text_11">
      <!-- $\mathdefault{2\times10^{2}}$ -->
      <g transform="translate(20.559375 142.593467)scale(0.1 -0.1)">
       <defs>
        <path id="HelveticaNeue-Medium-d7" d="M 352 2733 
L 902 3091 
L 1914 2074 
L 2938 3091 
L 3488 2733 
L 2368 1619 
L 3488 506 
L 2938 147 
L 1914 1171 
L 902 147 
L 352 506 
L 1466 1619 
L 352 2733 
z
" transform="scale(0.015625)"/>
       </defs>
       <use xlink:href="#HelveticaNeue-Medium-32" transform="translate(0 0.823438)"/>
       <use xlink:href="#HelveticaNeue-Medium-d7" transform="translate(72.999988 0.823438)"/>
       <use xlink:href="#HelveticaNeue-Medium-31" transform="translate(150.399969 0.823438)"/>
       <use xlink:href="#HelveticaNeue-Medium-30" transform="translate(205.99996 0.823438)"/>
       <use xlink:href="#HelveticaNeue-Medium-32" transform="translate(262.504756 37.015625)scale(0.7)"/>
      </g>
     </g>
    </g>
    <g id="ytick_6">
     <g id="line2d_27">
      <g>
       <use xlink:href="#m923b0a409c" x="55.459375" y="88.478136" style="stroke: #000000; stroke-width: 0.6"/>
      </g>
     </g>
     <g id="line2d_28">
      <g>
       <use xlink:href="#m923b0a409c" x="412.579375" y="88.478136" style="stroke: #000000; stroke-width: 0.6"/>
      </g>
     </g>
     <g id="text_12">
      <!-- $\mathdefault{3\times10^{2}}$ -->
      <g transform="translate(20.559375 92.048448)scale(0.1 -0.1)">
       <defs>
        <path id="HelveticaNeue-Medium-33" d="M 1459 2624 
Q 1638 2618 1817 2650 
Q 1997 2682 2137 2762 
Q 2278 2842 2364 2982 
Q 2451 3123 2451 3328 
Q 2451 3616 2256 3789 
Q 2061 3962 1754 3962 
Q 1562 3962 1421 3885 
Q 1280 3808 1187 3677 
Q 1094 3546 1049 3382 
Q 1005 3219 1011 3046 
L 282 3046 
Q 294 3373 403 3651 
Q 512 3930 701 4134 
Q 890 4339 1158 4454 
Q 1427 4570 1766 4570 
Q 2029 4570 2281 4493 
Q 2534 4416 2736 4269 
Q 2938 4122 3059 3894 
Q 3181 3667 3181 3373 
Q 3181 3034 3027 2781 
Q 2874 2528 2547 2413 
L 2547 2400 
Q 2931 2323 3145 2019 
Q 3360 1715 3360 1280 
Q 3360 960 3232 707 
Q 3104 454 2886 278 
Q 2669 102 2381 6 
Q 2093 -90 1773 -90 
Q 1382 -90 1091 22 
Q 800 134 605 339 
Q 410 544 307 832 
Q 205 1120 198 1472 
L 928 1472 
Q 915 1062 1129 790 
Q 1344 518 1773 518 
Q 2138 518 2384 726 
Q 2630 934 2630 1318 
Q 2630 1581 2528 1734 
Q 2426 1888 2259 1968 
Q 2093 2048 1885 2067 
Q 1677 2086 1459 2080 
L 1459 2624 
z
" transform="scale(0.015625)"/>
       </defs>
       <use xlink:href="#HelveticaNeue-Medium-33" transform="translate(0 0.823438)"/>
       <use xlink:href="#HelveticaNeue-Medium-d7" transform="translate(72.999988 0.823438)"/>
       <use xlink:href="#HelveticaNeue-Medium-31" transform="translate(150.399969 0.823438)"/>
       <use xlink:href="#HelveticaNeue-Medium-30" transform="translate(205.99996 0.823438)"/>
       <use xlink:href="#HelveticaNeue-Medium-32" transform="translate(262.504756 37.015625)scale(0.7)"/>
      </g>
     </g>
    </g>
    <g id="ytick_7">
     <g id="line2d_29">
      <g>
       <use xlink:href="#m923b0a409c" x="55.459375" y="52.615875" style="stroke: #000000; stroke-width: 0.6"/>
      </g>
     </g>
     <g id="line2d_30">
      <g>
       <use xlink:href="#m923b0a409c" x="412.579375" y="52.615875" style="stroke: #000000; stroke-width: 0.6"/>
      </g>
     </g>
     <g id="text_13">
      <!-- $\mathdefault{4\times10^{2}}$ -->
      <g transform="translate(20.559375 56.186187)scale(0.1 -0.1)">
       <defs>
        <path id="HelveticaNeue-Medium-34" d="M 717 1638 
L 2074 1638 
L 2074 3610 
L 2061 3610 
L 717 1638 
z
M 3341 1062 
L 2765 1062 
L 2765 0 
L 2074 0 
L 2074 1062 
L 154 1062 
L 154 1786 
L 2074 4480 
L 2765 4480 
L 2765 1638 
L 3341 1638 
L 3341 1062 
z
" transform="scale(0.015625)"/>
       </defs>
       <use xlink:href="#HelveticaNeue-Medium-34" transform="translate(0 0.823438)"/>
       <use xlink:href="#HelveticaNeue-Medium-d7" transform="translate(72.999988 0.823438)"/>
       <use xlink:href="#HelveticaNeue-Medium-31" transform="translate(150.399969 0.823438)"/>
       <use xlink:href="#HelveticaNeue-Medium-30" transform="translate(205.99996 0.823438)"/>
       <use xlink:href="#HelveticaNeue-Medium-32" transform="translate(262.504756 37.015625)scale(0.7)"/>
      </g>
     </g>
    </g>
    <g id="ytick_8">
     <g id="line2d_31">
      <g>
       <use xlink:href="#m923b0a409c" x="55.459375" y="24.798944" style="stroke: #000000; stroke-width: 0.6"/>
      </g>
     </g>
     <g id="line2d_32">
      <g>
       <use xlink:href="#m923b0a409c" x="412.579375" y="24.798944" style="stroke: #000000; stroke-width: 0.6"/>
      </g>
     </g>
    </g>
    <g id="text_14">
     <!-- Velocity dispersion [log, km/s] -->
     <g transform="translate(14.509375 211.107562)rotate(-90)scale(0.1 -0.1)">
      <defs>
       <path id="HelveticaNeue-Medium-56" d="M -32 4570 
L 800 4570 
L 1946 954 
L 1958 954 
L 3130 4570 
L 3942 4570 
L 2381 0 
L 1491 0 
L -32 4570 
z
" transform="scale(0.015625)"/>
       <path id="HelveticaNeue-Medium-63" d="M 2618 2202 
Q 2573 2509 2371 2665 
Q 2170 2822 1862 2822 
Q 1722 2822 1562 2774 
Q 1402 2726 1267 2595 
Q 1133 2464 1043 2230 
Q 954 1997 954 1619 
Q 954 1414 1002 1209 
Q 1050 1005 1155 845 
Q 1261 685 1427 585 
Q 1594 486 1830 486 
Q 2150 486 2358 684 
Q 2566 883 2618 1242 
L 3347 1242 
Q 3245 595 2857 252 
Q 2470 -90 1830 -90 
Q 1440 -90 1142 41 
Q 845 173 640 400 
Q 435 627 329 940 
Q 224 1254 224 1619 
Q 224 1990 326 2316 
Q 429 2643 633 2883 
Q 838 3123 1142 3260 
Q 1446 3398 1856 3398 
Q 2144 3398 2403 3324 
Q 2662 3251 2864 3104 
Q 3066 2957 3194 2733 
Q 3322 2509 3347 2202 
L 2618 2202 
z
" transform="scale(0.015625)"/>
       <path id="HelveticaNeue-Medium-69" d="M 403 4570 
L 1133 4570 
L 1133 3878 
L 403 3878 
L 403 4570 
z
M 403 3309 
L 1133 3309 
L 1133 0 
L 403 0 
L 403 3309 
z
" transform="scale(0.015625)"/>
       <path id="HelveticaNeue-Medium-74" d="M 51 3309 
L 602 3309 
L 602 4301 
L 1331 4301 
L 1331 3309 
L 1990 3309 
L 1990 2765 
L 1331 2765 
L 1331 998 
Q 1331 883 1340 800 
Q 1350 717 1385 659 
Q 1421 602 1491 573 
Q 1562 544 1683 544 
Q 1760 544 1837 547 
Q 1914 550 1990 570 
L 1990 6 
Q 1869 -6 1753 -19 
Q 1638 -32 1517 -32 
Q 1229 -32 1053 22 
Q 877 77 777 182 
Q 678 288 643 448 
Q 608 608 602 813 
L 602 2765 
L 51 2765 
L 51 3309 
z
" transform="scale(0.015625)"/>
       <path id="HelveticaNeue-Medium-79" d="M 19 3309 
L 819 3309 
L 1683 838 
L 1696 838 
L 2534 3309 
L 3296 3309 
L 2010 -179 
Q 1920 -403 1833 -608 
Q 1747 -813 1622 -969 
Q 1498 -1126 1312 -1219 
Q 1126 -1312 838 -1312 
Q 582 -1312 333 -1274 
L 333 -659 
Q 422 -672 505 -688 
Q 589 -704 678 -704 
Q 806 -704 889 -672 
Q 973 -640 1027 -579 
Q 1082 -518 1120 -435 
Q 1158 -352 1190 -243 
L 1274 13 
L 19 3309 
z
" transform="scale(0.015625)"/>
       <path id="HelveticaNeue-Medium-64" d="M 3501 0 
L 2810 0 
L 2810 448 
L 2797 448 
Q 2650 160 2368 35 
Q 2086 -90 1773 -90 
Q 1382 -90 1091 48 
Q 800 186 608 422 
Q 416 659 320 982 
Q 224 1306 224 1677 
Q 224 2125 345 2451 
Q 467 2778 668 2989 
Q 870 3200 1129 3299 
Q 1389 3398 1658 3398 
Q 1811 3398 1971 3369 
Q 2131 3341 2278 3277 
Q 2426 3213 2550 3113 
Q 2675 3014 2758 2880 
L 2771 2880 
L 2771 4570 
L 3501 4570 
L 3501 0 
z
M 954 1619 
Q 954 1408 1008 1203 
Q 1062 998 1174 838 
Q 1286 678 1459 582 
Q 1632 486 1869 486 
Q 2112 486 2288 588 
Q 2464 691 2576 857 
Q 2688 1024 2742 1232 
Q 2797 1440 2797 1658 
Q 2797 2208 2550 2515 
Q 2304 2822 1882 2822 
Q 1626 2822 1450 2716 
Q 1274 2611 1162 2441 
Q 1050 2272 1002 2057 
Q 954 1843 954 1619 
z
" transform="scale(0.015625)"/>
       <path id="HelveticaNeue-Medium-70" d="M 403 3309 
L 1094 3309 
L 1094 2861 
L 1107 2861 
Q 1261 3149 1536 3273 
Q 1811 3398 2131 3398 
Q 2522 3398 2813 3260 
Q 3104 3123 3296 2883 
Q 3488 2643 3584 2323 
Q 3680 2003 3680 1638 
Q 3680 1306 3593 992 
Q 3507 678 3331 438 
Q 3155 198 2886 54 
Q 2618 -90 2253 -90 
Q 2093 -90 1933 -61 
Q 1773 -32 1625 32 
Q 1478 96 1353 195 
Q 1229 294 1146 429 
L 1133 429 
L 1133 -1222 
L 403 -1222 
L 403 3309 
z
M 2950 1651 
Q 2950 1875 2892 2086 
Q 2835 2298 2720 2461 
Q 2605 2624 2432 2723 
Q 2259 2822 2035 2822 
Q 1574 2822 1340 2502 
Q 1107 2182 1107 1651 
Q 1107 1402 1168 1187 
Q 1229 973 1350 819 
Q 1472 666 1641 576 
Q 1811 486 2035 486 
Q 2285 486 2457 588 
Q 2630 691 2742 854 
Q 2854 1018 2902 1226 
Q 2950 1434 2950 1651 
z
" transform="scale(0.015625)"/>
       <path id="HelveticaNeue-Medium-72" d="M 384 3309 
L 1069 3309 
L 1069 2669 
L 1082 2669 
Q 1114 2803 1206 2931 
Q 1299 3059 1430 3164 
Q 1562 3270 1722 3334 
Q 1882 3398 2048 3398 
Q 2176 3398 2224 3392 
Q 2272 3386 2323 3379 
L 2323 2675 
Q 2246 2688 2166 2697 
Q 2086 2707 2010 2707 
Q 1824 2707 1661 2633 
Q 1498 2560 1376 2416 
Q 1254 2272 1184 2061 
Q 1114 1850 1114 1574 
L 1114 0 
L 384 0 
L 384 3309 
z
" transform="scale(0.015625)"/>
       <path id="HelveticaNeue-Medium-6e" d="M 384 3309 
L 1075 3309 
L 1075 2822 
L 1088 2810 
Q 1254 3085 1523 3241 
Q 1792 3398 2118 3398 
Q 2662 3398 2976 3116 
Q 3290 2835 3290 2272 
L 3290 0 
L 2560 0 
L 2560 2080 
Q 2547 2470 2393 2646 
Q 2240 2822 1914 2822 
Q 1728 2822 1581 2755 
Q 1434 2688 1331 2569 
Q 1229 2451 1171 2291 
Q 1114 2131 1114 1952 
L 1114 0 
L 384 0 
L 384 3309 
z
" transform="scale(0.015625)"/>
       <path id="HelveticaNeue-Medium-6b" d="M 403 4570 
L 1133 4570 
L 1133 1971 
L 2451 3309 
L 3347 3309 
L 2080 2093 
L 3469 0 
L 2579 0 
L 1568 1606 
L 1133 1184 
L 1133 0 
L 403 0 
L 403 4570 
z
" transform="scale(0.015625)"/>
       <path id="HelveticaNeue-Medium-2f" d="M 1696 4678 
L 2394 4678 
L 557 -109 
L -141 -109 
L 1696 4678 
z
" transform="scale(0.015625)"/>
      </defs>
      <use xlink:href="#HelveticaNeue-Medium-56"/>
      <use xlink:href="#HelveticaNeue-Medium-65" x="55.599991"/>
      <use xlink:href="#HelveticaNeue-Medium-6c" x="111.199982"/>
      <use xlink:href="#HelveticaNeue-Medium-6f" x="135.299973"/>
      <use xlink:href="#HelveticaNeue-Medium-63" x="194.59996"/>
      <use xlink:href="#HelveticaNeue-Medium-69" x="250.199951"/>
      <use xlink:href="#HelveticaNeue-Medium-74" x="274.299942"/>
      <use xlink:href="#HelveticaNeue-Medium-79" x="307.59993"/>
      <use xlink:href="#HelveticaNeue-Medium-20" x="359.499924"/>
      <use xlink:href="#HelveticaNeue-Medium-64" x="387.299911"/>
      <use xlink:href="#HelveticaNeue-Medium-69" x="448.399902"/>
      <use xlink:href="#HelveticaNeue-Medium-73" x="472.499893"/>
      <use xlink:href="#HelveticaNeue-Medium-70" x="524.399887"/>
      <use xlink:href="#HelveticaNeue-Medium-65" x="585.499878"/>
      <use xlink:href="#HelveticaNeue-Medium-72" x="641.099869"/>
      <use xlink:href="#HelveticaNeue-Medium-73" x="676.299866"/>
      <use xlink:href="#HelveticaNeue-Medium-69" x="728.19986"/>
      <use xlink:href="#HelveticaNeue-Medium-6f" x="752.29985"/>
      <use xlink:href="#HelveticaNeue-Medium-6e" x="811.599838"/>
      <use xlink:href="#HelveticaNeue-Medium-20" x="868.999832"/>
      <use xlink:href="#HelveticaNeue-Medium-5b" x="896.79982"/>
      <use xlink:href="#HelveticaNeue-Medium-6c" x="926.399811"/>
      <use xlink:href="#HelveticaNeue-Medium-6f" x="950.499802"/>
      <use xlink:href="#HelveticaNeue-Medium-67" x="1009.799789"/>
      <use xlink:href="#HelveticaNeue-Medium-2c" x="1069.099777"/>
      <use xlink:href="#HelveticaNeue-Medium-20" x="1096.899765"/>
      <use xlink:href="#HelveticaNeue-Medium-6b" x="1124.699753"/>
      <use xlink:href="#HelveticaNeue-Medium-6d" x="1178.39975"/>
      <use xlink:href="#HelveticaNeue-Medium-2f" x="1265.399734"/>
      <use xlink:href="#HelveticaNeue-Medium-73" x="1300.599731"/>
      <use xlink:href="#HelveticaNeue-Medium-5d" x="1352.499725"/>
     </g>
    </g>
   </g>
   <g id="LineCollection_1">
    <path d="M 71.692102 258.011996 
L 89.982499 258.011996 
" clip-path="url(#p5dc7b5a712)" style="fill: none; stroke: #ffa500; stroke-width: 1.5"/>
    <path d="M 327.757659 123.787583 
L 344.219016 123.787583 
" clip-path="url(#p5dc7b5a712)" style="fill: none; stroke: #ffa500; stroke-width: 1.5"/>
    <path d="M 275.630028 77.35464 
L 292.091385 77.35464 
" clip-path="url(#p5dc7b5a712)" style="fill: none; stroke: #ffa500; stroke-width: 1.5"/>
    <path d="M 218.929798 161.502172 
L 235.391155 161.502172 
" clip-path="url(#p5dc7b5a712)" style="fill: none; stroke: #ffa500; stroke-width: 1.5"/>
    <path d="M 296.663984 82.395986 
L 313.125342 82.395986 
" clip-path="url(#p5dc7b5a712)" style="fill: none; stroke: #ffa500; stroke-width: 1.5"/>
    <path d="M 318.612461 98.872433 
L 335.073818 98.872433 
" clip-path="url(#p5dc7b5a712)" style="fill: none; stroke: #ffa500; stroke-width: 1.5"/>
    <path d="M 281.117147 101.61231 
L 297.578504 101.61231 
" clip-path="url(#p5dc7b5a712)" style="fill: none; stroke: #ffa500; stroke-width: 1.5"/>
    <path d="M 183.263524 155.669091 
L 199.724881 155.669091 
" clip-path="url(#p5dc7b5a712)" style="fill: none; stroke: #ffa500; stroke-width: 1.5"/>
    <path d="M 256.425111 162.250879 
L 272.886468 162.250879 
" clip-path="url(#p5dc7b5a712)" style="fill: none; stroke: #ffa500; stroke-width: 1.5"/>
    <path d="M 306.723703 89.731004 
L 323.18506 89.731004 
" clip-path="url(#p5dc7b5a712)" style="fill: none; stroke: #ffa500; stroke-width: 1.5"/>
    <path d="M 205.212 179.111561 
L 221.673357 179.111561 
" clip-path="url(#p5dc7b5a712)" style="fill: none; stroke: #ffa500; stroke-width: 1.5"/>
    <path d="M 242.707314 135.338373 
L 259.168671 135.338373 
" clip-path="url(#p5dc7b5a712)" style="fill: none; stroke: #ffa500; stroke-width: 1.5"/>
    <path d="M 274.715508 122.1437 
L 291.176865 122.1437 
" clip-path="url(#p5dc7b5a712)" style="fill: none; stroke: #ffa500; stroke-width: 1.5"/>
    <path d="M 251.852512 150.779863 
L 268.313869 150.779863 
" clip-path="url(#p5dc7b5a712)" style="fill: none; stroke: #ffa500; stroke-width: 1.5"/>
    <path d="M 321.35602 101.61231 
L 337.817378 101.61231 
" clip-path="url(#p5dc7b5a712)" style="fill: none; stroke: #ffa500; stroke-width: 1.5"/>
    <path d="M 310.381782 82.395986 
L 326.843139 82.395986 
" clip-path="url(#p5dc7b5a712)" style="fill: none; stroke: #ffa500; stroke-width: 1.5"/>
    <path d="M 237.220194 115.260543 
L 253.681552 115.260543 
" clip-path="url(#p5dc7b5a712)" style="fill: none; stroke: #ffa500; stroke-width: 1.5"/>
    <path d="M 307.638223 90.151441 
L 324.09958 90.151441 
" clip-path="url(#p5dc7b5a712)" style="fill: none; stroke: #ffa500; stroke-width: 1.5"/>
    <path d="M 297.578504 150.779863 
L 314.039862 150.779863 
" clip-path="url(#p5dc7b5a712)" style="fill: none; stroke: #ffa500; stroke-width: 1.5"/>
    <path d="M 239.963754 161.502172 
L 256.425111 161.502172 
" clip-path="url(#p5dc7b5a712)" style="fill: none; stroke: #ffa500; stroke-width: 1.5"/>
    <path d="M 327.757659 88.478136 
L 344.219016 88.478136 
" clip-path="url(#p5dc7b5a712)" style="fill: none; stroke: #ffa500; stroke-width: 1.5"/>
    <path d="M 237.220194 145.417343 
L 253.681552 145.417343 
" clip-path="url(#p5dc7b5a712)" style="fill: none; stroke: #ffa500; stroke-width: 1.5"/>
    <path d="M 316.783421 78.884222 
L 333.244778 78.884222 
" clip-path="url(#p5dc7b5a712)" style="fill: none; stroke: #ffa500; stroke-width: 1.5"/>
    <path d="M 125.648773 148.74179 
L 143.93917 148.74179 
" clip-path="url(#p5dc7b5a712)" style="fill: none; stroke: #ffa500; stroke-width: 1.5"/>
    <path d="M 309.467262 59.010064 
L 325.92862 59.010064 
" clip-path="url(#p5dc7b5a712)" style="fill: none; stroke: #ffa500; stroke-width: 1.5"/>
    <path d="M 248.194433 154.252493 
L 264.65579 154.252493 
" clip-path="url(#p5dc7b5a712)" style="fill: none; stroke: #ffa500; stroke-width: 1.5"/>
    <path d="M 265.57031 67.493564 
L 282.031667 67.493564 
" clip-path="url(#p5dc7b5a712)" style="fill: none; stroke: #ffa500; stroke-width: 1.5"/>
    <path d="M 350.620655 70.334926 
L 367.082013 70.334926 
" clip-path="url(#p5dc7b5a712)" style="fill: none; stroke: #ffa500; stroke-width: 1.5"/>
    <path d="M 276.544548 126.013702 
L 293.005905 126.013702 
" clip-path="url(#p5dc7b5a712)" style="fill: none; stroke: #ffa500; stroke-width: 1.5"/>
    <path d="M 255.510591 174.885415 
L 271.971949 174.885415 
" clip-path="url(#p5dc7b5a712)" style="fill: none; stroke: #ffa500; stroke-width: 1.5"/>
    <path d="M 310.381782 75.468684 
L 326.843139 75.468684 
" clip-path="url(#p5dc7b5a712)" style="fill: none; stroke: #ffa500; stroke-width: 1.5"/>
    <path d="M 305.809183 77.35464 
L 322.27054 77.35464 
" clip-path="url(#p5dc7b5a712)" style="fill: none; stroke: #ffa500; stroke-width: 1.5"/>
    <path d="M 250.937992 150.096796 
L 267.399349 150.096796 
" clip-path="url(#p5dc7b5a712)" style="fill: none; stroke: #ffa500; stroke-width: 1.5"/>
    <path d="M 211.613639 116.815566 
L 228.074996 116.815566 
" clip-path="url(#p5dc7b5a712)" style="fill: none; stroke: #ffa500; stroke-width: 1.5"/>
    <path d="M 314.039862 81.214371 
L 330.501219 81.214371 
" clip-path="url(#p5dc7b5a712)" style="fill: none; stroke: #ffa500; stroke-width: 1.5"/>
    <path d="M 273.800988 56.092026 
L 290.262346 56.092026 
" clip-path="url(#p5dc7b5a712)" style="fill: none; stroke: #ffa500; stroke-width: 1.5"/>
    <path d="M 305.809183 103.472932 
L 324.09958 103.472932 
" clip-path="url(#p5dc7b5a712)" style="fill: none; stroke: #ffa500; stroke-width: 1.5"/>
    <path d="M 310.381782 91.847513 
L 326.843139 91.847513 
" clip-path="url(#p5dc7b5a712)" style="fill: none; stroke: #ffa500; stroke-width: 1.5"/>
    <path d="M 319.526981 107.763734 
L 335.988338 107.763734 
" clip-path="url(#p5dc7b5a712)" style="fill: none; stroke: #ffa500; stroke-width: 1.5"/>
    <path d="M 305.809183 76.219646 
L 322.27054 76.219646 
" clip-path="url(#p5dc7b5a712)" style="fill: none; stroke: #ffa500; stroke-width: 1.5"/>
    <path d="M 324.09958 93.566979 
L 342.389977 93.566979 
" clip-path="url(#p5dc7b5a712)" style="fill: none; stroke: #ffa500; stroke-width: 1.5"/>
    <path d="M 322.27054 79.656109 
L 338.731897 79.656109 
" clip-path="url(#p5dc7b5a712)" style="fill: none; stroke: #ffa500; stroke-width: 1.5"/>
   </g>
   <g id="LineCollection_2">
    <path d="M 80.837301 262.966 
L 80.837301 253.247365 
" clip-path="url(#p5dc7b5a712)" style="fill: none; stroke: #ffa500; stroke-width: 1.5"/>
    <path d="M 335.988338 128.853446 
L 335.988338 118.919571 
" clip-path="url(#p5dc7b5a712)" style="fill: none; stroke: #ffa500; stroke-width: 1.5"/>
    <path d="M 283.860707 80.822976 
L 283.860707 73.980196 
" clip-path="url(#p5dc7b5a712)" style="fill: none; stroke: #ffa500; stroke-width: 1.5"/>
    <path d="M 227.160476 163.76192 
L 227.160476 159.282659 
" clip-path="url(#p5dc7b5a712)" style="fill: none; stroke: #ffa500; stroke-width: 1.5"/>
    <path d="M 304.894663 83.588907 
L 304.894663 81.214371 
" clip-path="url(#p5dc7b5a712)" style="fill: none; stroke: #ffa500; stroke-width: 1.5"/>
    <path d="M 326.843139 99.779051 
L 326.843139 97.972362 
" clip-path="url(#p5dc7b5a712)" style="fill: none; stroke: #ffa500; stroke-width: 1.5"/>
    <path d="M 289.347826 106.316995 
L 289.347826 97.078743 
" clip-path="url(#p5dc7b5a712)" style="fill: none; stroke: #ffa500; stroke-width: 1.5"/>
    <path d="M 191.494202 161.502172 
L 191.494202 150.096796 
" clip-path="url(#p5dc7b5a712)" style="fill: none; stroke: #ffa500; stroke-width: 1.5"/>
    <path d="M 264.65579 174.885415 
L 264.65579 150.779863 
" clip-path="url(#p5dc7b5a712)" style="fill: none; stroke: #ffa500; stroke-width: 1.5"/>
    <path d="M 314.954381 94.872325 
L 314.954381 84.793355 
" clip-path="url(#p5dc7b5a712)" style="fill: none; stroke: #ffa500; stroke-width: 1.5"/>
    <path d="M 213.442678 185.279713 
L 213.442678 173.234274 
" clip-path="url(#p5dc7b5a712)" style="fill: none; stroke: #ffa500; stroke-width: 1.5"/>
    <path d="M 250.937992 141.541611 
L 250.937992 129.429241 
" clip-path="url(#p5dc7b5a712)" style="fill: none; stroke: #ffa500; stroke-width: 1.5"/>
    <path d="M 282.946187 128.280298 
L 282.946187 116.295067 
" clip-path="url(#p5dc7b5a712)" style="fill: none; stroke: #ffa500; stroke-width: 1.5"/>
    <path d="M 260.083191 157.101973 
L 260.083191 144.762962 
" clip-path="url(#p5dc7b5a712)" style="fill: none; stroke: #ffa500; stroke-width: 1.5"/>
    <path d="M 329.586699 114.746483 
L 329.586699 89.731004 
" clip-path="url(#p5dc7b5a712)" style="fill: none; stroke: #ffa500; stroke-width: 1.5"/>
    <path d="M 318.612461 88.478136 
L 318.612461 76.596831 
" clip-path="url(#p5dc7b5a712)" style="fill: none; stroke: #ffa500; stroke-width: 1.5"/>
    <path d="M 245.450873 121.600521 
L 245.450873 109.227462 
" clip-path="url(#p5dc7b5a712)" style="fill: none; stroke: #ffa500; stroke-width: 1.5"/>
    <path d="M 315.868901 96.191484 
L 315.868901 84.390578 
" clip-path="url(#p5dc7b5a712)" style="fill: none; stroke: #ffa500; stroke-width: 1.5"/>
    <path d="M 305.809183 154.252493 
L 305.809183 147.401354 
" clip-path="url(#p5dc7b5a712)" style="fill: none; stroke: #ffa500; stroke-width: 1.5"/>
    <path d="M 248.194433 167.621651 
L 248.194433 155.669091 
" clip-path="url(#p5dc7b5a712)" style="fill: none; stroke: #ffa500; stroke-width: 1.5"/>
    <path d="M 335.988338 91.421327 
L 335.988338 85.602834 
" clip-path="url(#p5dc7b5a712)" style="fill: none; stroke: #ffa500; stroke-width: 1.5"/>
    <path d="M 245.450873 151.466693 
L 245.450873 139.648014 
" clip-path="url(#p5dc7b5a712)" style="fill: none; stroke: #ffa500; stroke-width: 1.5"/>
    <path d="M 325.0141 90.151441 
L 325.0141 68.5515 
" clip-path="url(#p5dc7b5a712)" style="fill: none; stroke: #ffa500; stroke-width: 1.5"/>
    <path d="M 134.793972 154.95878 
L 134.793972 142.820179 
" clip-path="url(#p5dc7b5a712)" style="fill: none; stroke: #ffa500; stroke-width: 1.5"/>
    <path d="M 317.697941 65.404253 
L 317.697941 52.927913 
" clip-path="url(#p5dc7b5a712)" style="fill: none; stroke: #ffa500; stroke-width: 1.5"/>
    <path d="M 256.425111 160.018114 
L 256.425111 148.74179 
" clip-path="url(#p5dc7b5a712)" style="fill: none; stroke: #ffa500; stroke-width: 1.5"/>
    <path d="M 273.800988 72.509272 
L 273.800988 62.671883 
" clip-path="url(#p5dc7b5a712)" style="fill: none; stroke: #ffa500; stroke-width: 1.5"/>
    <path d="M 358.851334 72.144237 
L 358.851334 68.5515 
" clip-path="url(#p5dc7b5a712)" style="fill: none; stroke: #ffa500; stroke-width: 1.5"/>
    <path d="M 284.775226 132.348797 
L 284.775226 119.985042 
" clip-path="url(#p5dc7b5a712)" style="fill: none; stroke: #ffa500; stroke-width: 1.5"/>
    <path d="M 263.74127 180.842969 
L 263.74127 169.199639 
" clip-path="url(#p5dc7b5a712)" style="fill: none; stroke: #ffa500; stroke-width: 1.5"/>
    <path d="M 318.612461 76.219646 
L 318.612461 74.722218 
" clip-path="url(#p5dc7b5a712)" style="fill: none; stroke: #ffa500; stroke-width: 1.5"/>
    <path d="M 314.039862 81.607 
L 314.039862 73.242565 
" clip-path="url(#p5dc7b5a712)" style="fill: none; stroke: #ffa500; stroke-width: 1.5"/>
    <path d="M 259.168671 156.383474 
L 259.168671 144.111998 
" clip-path="url(#p5dc7b5a712)" style="fill: none; stroke: #ffa500; stroke-width: 1.5"/>
    <path d="M 219.844317 122.689256 
L 219.844317 111.206223 
" clip-path="url(#p5dc7b5a712)" style="fill: none; stroke: #ffa500; stroke-width: 1.5"/>
    <path d="M 322.27054 82.000868 
L 322.27054 80.432806 
" clip-path="url(#p5dc7b5a712)" style="fill: none; stroke: #ffa500; stroke-width: 1.5"/>
    <path d="M 282.031667 57.057136 
L 282.031667 55.134331 
" clip-path="url(#p5dc7b5a712)" style="fill: none; stroke: #ffa500; stroke-width: 1.5"/>
    <path d="M 314.954381 109.719215 
L 314.954381 97.524752 
" clip-path="url(#p5dc7b5a712)" style="fill: none; stroke: #ffa500; stroke-width: 1.5"/>
    <path d="M 318.612461 94.000578 
L 318.612461 89.731004 
" clip-path="url(#p5dc7b5a712)" style="fill: none; stroke: #ffa500; stroke-width: 1.5"/>
    <path d="M 327.757659 121.059698 
L 327.757659 95.750211 
" clip-path="url(#p5dc7b5a712)" style="fill: none; stroke: #ffa500; stroke-width: 1.5"/>
    <path d="M 314.039862 78.117085 
L 314.039862 74.350655 
" clip-path="url(#p5dc7b5a712)" style="fill: none; stroke: #ffa500; stroke-width: 1.5"/>
    <path d="M 333.244778 99.779051 
L 333.244778 87.649832 
" clip-path="url(#p5dc7b5a712)" style="fill: none; stroke: #ffa500; stroke-width: 1.5"/>
    <path d="M 330.501219 86.009553 
L 330.501219 73.610835 
" clip-path="url(#p5dc7b5a712)" style="fill: none; stroke: #ffa500; stroke-width: 1.5"/>
   </g>
   <g id="line2d_33">
    <defs>
     <path id="m0ec5d7eafd" d="M 0 2 
L 0 -2 
" style="stroke: #ffa500"/>
    </defs>
    <g clip-path="url(#p5dc7b5a712)">
     <use xlink:href="#m0ec5d7eafd" x="71.692102" y="258.011996" style="fill: #ffa500; stroke: #ffa500"/>
     <use xlink:href="#m0ec5d7eafd" x="327.757659" y="123.787583" style="fill: #ffa500; stroke: #ffa500"/>
     <use xlink:href="#m0ec5d7eafd" x="275.630028" y="77.35464" style="fill: #ffa500; stroke: #ffa500"/>
     <use xlink:href="#m0ec5d7eafd" x="218.929798" y="161.502172" style="fill: #ffa500; stroke: #ffa500"/>
     <use xlink:href="#m0ec5d7eafd" x="296.663984" y="82.395986" style="fill: #ffa500; stroke: #ffa500"/>
     <use xlink:href="#m0ec5d7eafd" x="318.612461" y="98.872433" style="fill: #ffa500; stroke: #ffa500"/>
     <use xlink:href="#m0ec5d7eafd" x="281.117147" y="101.61231" style="fill: #ffa500; stroke: #ffa500"/>
     <use xlink:href="#m0ec5d7eafd" x="183.263524" y="155.669091" style="fill: #ffa500; stroke: #ffa500"/>
     <use xlink:href="#m0ec5d7eafd" x="256.425111" y="162.250879" style="fill: #ffa500; stroke: #ffa500"/>
     <use xlink:href="#m0ec5d7eafd" x="306.723703" y="89.731004" style="fill: #ffa500; stroke: #ffa500"/>
     <use xlink:href="#m0ec5d7eafd" x="205.212" y="179.111561" style="fill: #ffa500; stroke: #ffa500"/>
     <use xlink:href="#m0ec5d7eafd" x="242.707314" y="135.338373" style="fill: #ffa500; stroke: #ffa500"/>
     <use xlink:href="#m0ec5d7eafd" x="274.715508" y="122.1437" style="fill: #ffa500; stroke: #ffa500"/>
     <use xlink:href="#m0ec5d7eafd" x="251.852512" y="150.779863" style="fill: #ffa500; stroke: #ffa500"/>
     <use xlink:href="#m0ec5d7eafd" x="321.35602" y="101.61231" style="fill: #ffa500; stroke: #ffa500"/>
     <use xlink:href="#m0ec5d7eafd" x="310.381782" y="82.395986" style="fill: #ffa500; stroke: #ffa500"/>
     <use xlink:href="#m0ec5d7eafd" x="237.220194" y="115.260543" style="fill: #ffa500; stroke: #ffa500"/>
     <use xlink:href="#m0ec5d7eafd" x="307.638223" y="90.151441" style="fill: #ffa500; stroke: #ffa500"/>
     <use xlink:href="#m0ec5d7eafd" x="297.578504" y="150.779863" style="fill: #ffa500; stroke: #ffa500"/>
     <use xlink:href="#m0ec5d7eafd" x="239.963754" y="161.502172" style="fill: #ffa500; stroke: #ffa500"/>
     <use xlink:href="#m0ec5d7eafd" x="327.757659" y="88.478136" style="fill: #ffa500; stroke: #ffa500"/>
     <use xlink:href="#m0ec5d7eafd" x="237.220194" y="145.417343" style="fill: #ffa500; stroke: #ffa500"/>
     <use xlink:href="#m0ec5d7eafd" x="316.783421" y="78.884222" style="fill: #ffa500; stroke: #ffa500"/>
     <use xlink:href="#m0ec5d7eafd" x="125.648773" y="148.74179" style="fill: #ffa500; stroke: #ffa500"/>
     <use xlink:href="#m0ec5d7eafd" x="309.467262" y="59.010064" style="fill: #ffa500; stroke: #ffa500"/>
     <use xlink:href="#m0ec5d7eafd" x="248.194433" y="154.252493" style="fill: #ffa500; stroke: #ffa500"/>
     <use xlink:href="#m0ec5d7eafd" x="265.57031" y="67.493564" style="fill: #ffa500; stroke: #ffa500"/>
     <use xlink:href="#m0ec5d7eafd" x="350.620655" y="70.334926" style="fill: #ffa500; stroke: #ffa500"/>
     <use xlink:href="#m0ec5d7eafd" x="276.544548" y="126.013702" style="fill: #ffa500; stroke: #ffa500"/>
     <use xlink:href="#m0ec5d7eafd" x="255.510591" y="174.885415" style="fill: #ffa500; stroke: #ffa500"/>
     <use xlink:href="#m0ec5d7eafd" x="310.381782" y="75.468684" style="fill: #ffa500; stroke: #ffa500"/>
     <use xlink:href="#m0ec5d7eafd" x="305.809183" y="77.35464" style="fill: #ffa500; stroke: #ffa500"/>
     <use xlink:href="#m0ec5d7eafd" x="250.937992" y="150.096796" style="fill: #ffa500; stroke: #ffa500"/>
     <use xlink:href="#m0ec5d7eafd" x="211.613639" y="116.815566" style="fill: #ffa500; stroke: #ffa500"/>
     <use xlink:href="#m0ec5d7eafd" x="314.039862" y="81.214371" style="fill: #ffa500; stroke: #ffa500"/>
     <use xlink:href="#m0ec5d7eafd" x="273.800988" y="56.092026" style="fill: #ffa500; stroke: #ffa500"/>
     <use xlink:href="#m0ec5d7eafd" x="305.809183" y="103.472932" style="fill: #ffa500; stroke: #ffa500"/>
     <use xlink:href="#m0ec5d7eafd" x="310.381782" y="91.847513" style="fill: #ffa500; stroke: #ffa500"/>
     <use xlink:href="#m0ec5d7eafd" x="319.526981" y="107.763734" style="fill: #ffa500; stroke: #ffa500"/>
     <use xlink:href="#m0ec5d7eafd" x="305.809183" y="76.219646" style="fill: #ffa500; stroke: #ffa500"/>
     <use xlink:href="#m0ec5d7eafd" x="324.09958" y="93.566979" style="fill: #ffa500; stroke: #ffa500"/>
     <use xlink:href="#m0ec5d7eafd" x="322.27054" y="79.656109" style="fill: #ffa500; stroke: #ffa500"/>
    </g>
   </g>
   <g id="line2d_34">
    <g clip-path="url(#p5dc7b5a712)">
     <use xlink:href="#m0ec5d7eafd" x="89.982499" y="258.011996" style="fill: #ffa500; stroke: #ffa500"/>
     <use xlink:href="#m0ec5d7eafd" x="344.219016" y="123.787583" style="fill: #ffa500; stroke: #ffa500"/>
     <use xlink:href="#m0ec5d7eafd" x="292.091385" y="77.35464" style="fill: #ffa500; stroke: #ffa500"/>
     <use xlink:href="#m0ec5d7eafd" x="235.391155" y="161.502172" style="fill: #ffa500; stroke: #ffa500"/>
     <use xlink:href="#m0ec5d7eafd" x="313.125342" y="82.395986" style="fill: #ffa500; stroke: #ffa500"/>
     <use xlink:href="#m0ec5d7eafd" x="335.073818" y="98.872433" style="fill: #ffa500; stroke: #ffa500"/>
     <use xlink:href="#m0ec5d7eafd" x="297.578504" y="101.61231" style="fill: #ffa500; stroke: #ffa500"/>
     <use xlink:href="#m0ec5d7eafd" x="199.724881" y="155.669091" style="fill: #ffa500; stroke: #ffa500"/>
     <use xlink:href="#m0ec5d7eafd" x="272.886468" y="162.250879" style="fill: #ffa500; stroke: #ffa500"/>
     <use xlink:href="#m0ec5d7eafd" x="323.18506" y="89.731004" style="fill: #ffa500; stroke: #ffa500"/>
     <use xlink:href="#m0ec5d7eafd" x="221.673357" y="179.111561" style="fill: #ffa500; stroke: #ffa500"/>
     <use xlink:href="#m0ec5d7eafd" x="259.168671" y="135.338373" style="fill: #ffa500; stroke: #ffa500"/>
     <use xlink:href="#m0ec5d7eafd" x="291.176865" y="122.1437" style="fill: #ffa500; stroke: #ffa500"/>
     <use xlink:href="#m0ec5d7eafd" x="268.313869" y="150.779863" style="fill: #ffa500; stroke: #ffa500"/>
     <use xlink:href="#m0ec5d7eafd" x="337.817378" y="101.61231" style="fill: #ffa500; stroke: #ffa500"/>
     <use xlink:href="#m0ec5d7eafd" x="326.843139" y="82.395986" style="fill: #ffa500; stroke: #ffa500"/>
     <use xlink:href="#m0ec5d7eafd" x="253.681552" y="115.260543" style="fill: #ffa500; stroke: #ffa500"/>
     <use xlink:href="#m0ec5d7eafd" x="324.09958" y="90.151441" style="fill: #ffa500; stroke: #ffa500"/>
     <use xlink:href="#m0ec5d7eafd" x="314.039862" y="150.779863" style="fill: #ffa500; stroke: #ffa500"/>
     <use xlink:href="#m0ec5d7eafd" x="256.425111" y="161.502172" style="fill: #ffa500; stroke: #ffa500"/>
     <use xlink:href="#m0ec5d7eafd" x="344.219016" y="88.478136" style="fill: #ffa500; stroke: #ffa500"/>
     <use xlink:href="#m0ec5d7eafd" x="253.681552" y="145.417343" style="fill: #ffa500; stroke: #ffa500"/>
     <use xlink:href="#m0ec5d7eafd" x="333.244778" y="78.884222" style="fill: #ffa500; stroke: #ffa500"/>
     <use xlink:href="#m0ec5d7eafd" x="143.93917" y="148.74179" style="fill: #ffa500; stroke: #ffa500"/>
     <use xlink:href="#m0ec5d7eafd" x="325.92862" y="59.010064" style="fill: #ffa500; stroke: #ffa500"/>
     <use xlink:href="#m0ec5d7eafd" x="264.65579" y="154.252493" style="fill: #ffa500; stroke: #ffa500"/>
     <use xlink:href="#m0ec5d7eafd" x="282.031667" y="67.493564" style="fill: #ffa500; stroke: #ffa500"/>
     <use xlink:href="#m0ec5d7eafd" x="367.082013" y="70.334926" style="fill: #ffa500; stroke: #ffa500"/>
     <use xlink:href="#m0ec5d7eafd" x="293.005905" y="126.013702" style="fill: #ffa500; stroke: #ffa500"/>
     <use xlink:href="#m0ec5d7eafd" x="271.971949" y="174.885415" style="fill: #ffa500; stroke: #ffa500"/>
     <use xlink:href="#m0ec5d7eafd" x="326.843139" y="75.468684" style="fill: #ffa500; stroke: #ffa500"/>
     <use xlink:href="#m0ec5d7eafd" x="322.27054" y="77.35464" style="fill: #ffa500; stroke: #ffa500"/>
     <use xlink:href="#m0ec5d7eafd" x="267.399349" y="150.096796" style="fill: #ffa500; stroke: #ffa500"/>
     <use xlink:href="#m0ec5d7eafd" x="228.074996" y="116.815566" style="fill: #ffa500; stroke: #ffa500"/>
     <use xlink:href="#m0ec5d7eafd" x="330.501219" y="81.214371" style="fill: #ffa500; stroke: #ffa500"/>
     <use xlink:href="#m0ec5d7eafd" x="290.262346" y="56.092026" style="fill: #ffa500; stroke: #ffa500"/>
     <use xlink:href="#m0ec5d7eafd" x="324.09958" y="103.472932" style="fill: #ffa500; stroke: #ffa500"/>
     <use xlink:href="#m0ec5d7eafd" x="326.843139" y="91.847513" style="fill: #ffa500; stroke: #ffa500"/>
     <use xlink:href="#m0ec5d7eafd" x="335.988338" y="107.763734" style="fill: #ffa500; stroke: #ffa500"/>
     <use xlink:href="#m0ec5d7eafd" x="322.27054" y="76.219646" style="fill: #ffa500; stroke: #ffa500"/>
     <use xlink:href="#m0ec5d7eafd" x="342.389977" y="93.566979" style="fill: #ffa500; stroke: #ffa500"/>
     <use xlink:href="#m0ec5d7eafd" x="338.731897" y="79.656109" style="fill: #ffa500; stroke: #ffa500"/>
    </g>
   </g>
   <g id="line2d_35">
    <defs>
     <path id="mc786f91d3e" d="M 2 0 
L -2 -0 
" style="stroke: #ffa500"/>
    </defs>
    <g clip-path="url(#p5dc7b5a712)">
     <use xlink:href="#mc786f91d3e" x="80.837301" y="262.966" style="fill: #ffa500; stroke: #ffa500"/>
     <use xlink:href="#mc786f91d3e" x="335.988338" y="128.853446" style="fill: #ffa500; stroke: #ffa500"/>
     <use xlink:href="#mc786f91d3e" x="283.860707" y="80.822976" style="fill: #ffa500; stroke: #ffa500"/>
     <use xlink:href="#mc786f91d3e" x="227.160476" y="163.76192" style="fill: #ffa500; stroke: #ffa500"/>
     <use xlink:href="#mc786f91d3e" x="304.894663" y="83.588907" style="fill: #ffa500; stroke: #ffa500"/>
     <use xlink:href="#mc786f91d3e" x="326.843139" y="99.779051" style="fill: #ffa500; stroke: #ffa500"/>
     <use xlink:href="#mc786f91d3e" x="289.347826" y="106.316995" style="fill: #ffa500; stroke: #ffa500"/>
     <use xlink:href="#mc786f91d3e" x="191.494202" y="161.502172" style="fill: #ffa500; stroke: #ffa500"/>
     <use xlink:href="#mc786f91d3e" x="264.65579" y="174.885415" style="fill: #ffa500; stroke: #ffa500"/>
     <use xlink:href="#mc786f91d3e" x="314.954381" y="94.872325" style="fill: #ffa500; stroke: #ffa500"/>
     <use xlink:href="#mc786f91d3e" x="213.442678" y="185.279713" style="fill: #ffa500; stroke: #ffa500"/>
     <use xlink:href="#mc786f91d3e" x="250.937992" y="141.541611" style="fill: #ffa500; stroke: #ffa500"/>
     <use xlink:href="#mc786f91d3e" x="282.946187" y="128.280298" style="fill: #ffa500; stroke: #ffa500"/>
     <use xlink:href="#mc786f91d3e" x="260.083191" y="157.101973" style="fill: #ffa500; stroke: #ffa500"/>
     <use xlink:href="#mc786f91d3e" x="329.586699" y="114.746483" style="fill: #ffa500; stroke: #ffa500"/>
     <use xlink:href="#mc786f91d3e" x="318.612461" y="88.478136" style="fill: #ffa500; stroke: #ffa500"/>
     <use xlink:href="#mc786f91d3e" x="245.450873" y="121.600521" style="fill: #ffa500; stroke: #ffa500"/>
     <use xlink:href="#mc786f91d3e" x="315.868901" y="96.191484" style="fill: #ffa500; stroke: #ffa500"/>
     <use xlink:href="#mc786f91d3e" x="305.809183" y="154.252493" style="fill: #ffa500; stroke: #ffa500"/>
     <use xlink:href="#mc786f91d3e" x="248.194433" y="167.621651" style="fill: #ffa500; stroke: #ffa500"/>
     <use xlink:href="#mc786f91d3e" x="335.988338" y="91.421327" style="fill: #ffa500; stroke: #ffa500"/>
     <use xlink:href="#mc786f91d3e" x="245.450873" y="151.466693" style="fill: #ffa500; stroke: #ffa500"/>
     <use xlink:href="#mc786f91d3e" x="325.0141" y="90.151441" style="fill: #ffa500; stroke: #ffa500"/>
     <use xlink:href="#mc786f91d3e" x="134.793972" y="154.95878" style="fill: #ffa500; stroke: #ffa500"/>
     <use xlink:href="#mc786f91d3e" x="317.697941" y="65.404253" style="fill: #ffa500; stroke: #ffa500"/>
     <use xlink:href="#mc786f91d3e" x="256.425111" y="160.018114" style="fill: #ffa500; stroke: #ffa500"/>
     <use xlink:href="#mc786f91d3e" x="273.800988" y="72.509272" style="fill: #ffa500; stroke: #ffa500"/>
     <use xlink:href="#mc786f91d3e" x="358.851334" y="72.144237" style="fill: #ffa500; stroke: #ffa500"/>
     <use xlink:href="#mc786f91d3e" x="284.775226" y="132.348797" style="fill: #ffa500; stroke: #ffa500"/>
     <use xlink:href="#mc786f91d3e" x="263.74127" y="180.842969" style="fill: #ffa500; stroke: #ffa500"/>
     <use xlink:href="#mc786f91d3e" x="318.612461" y="76.219646" style="fill: #ffa500; stroke: #ffa500"/>
     <use xlink:href="#mc786f91d3e" x="314.039862" y="81.607" style="fill: #ffa500; stroke: #ffa500"/>
     <use xlink:href="#mc786f91d3e" x="259.168671" y="156.383474" style="fill: #ffa500; stroke: #ffa500"/>
     <use xlink:href="#mc786f91d3e" x="219.844317" y="122.689256" style="fill: #ffa500; stroke: #ffa500"/>
     <use xlink:href="#mc786f91d3e" x="322.27054" y="82.000868" style="fill: #ffa500; stroke: #ffa500"/>
     <use xlink:href="#mc786f91d3e" x="282.031667" y="57.057136" style="fill: #ffa500; stroke: #ffa500"/>
     <use xlink:href="#mc786f91d3e" x="314.954381" y="109.719215" style="fill: #ffa500; stroke: #ffa500"/>
     <use xlink:href="#mc786f91d3e" x="318.612461" y="94.000578" style="fill: #ffa500; stroke: #ffa500"/>
     <use xlink:href="#mc786f91d3e" x="327.757659" y="121.059698" style="fill: #ffa500; stroke: #ffa500"/>
     <use xlink:href="#mc786f91d3e" x="314.039862" y="78.117085" style="fill: #ffa500; stroke: #ffa500"/>
     <use xlink:href="#mc786f91d3e" x="333.244778" y="99.779051" style="fill: #ffa500; stroke: #ffa500"/>
     <use xlink:href="#mc786f91d3e" x="330.501219" y="86.009553" style="fill: #ffa500; stroke: #ffa500"/>
    </g>
   </g>
   <g id="line2d_36">
    <g clip-path="url(#p5dc7b5a712)">
     <use xlink:href="#mc786f91d3e" x="80.837301" y="253.247365" style="fill: #ffa500; stroke: #ffa500"/>
     <use xlink:href="#mc786f91d3e" x="335.988338" y="118.919571" style="fill: #ffa500; stroke: #ffa500"/>
     <use xlink:href="#mc786f91d3e" x="283.860707" y="73.980196" style="fill: #ffa500; stroke: #ffa500"/>
     <use xlink:href="#mc786f91d3e" x="227.160476" y="159.282659" style="fill: #ffa500; stroke: #ffa500"/>
     <use xlink:href="#mc786f91d3e" x="304.894663" y="81.214371" style="fill: #ffa500; stroke: #ffa500"/>
     <use xlink:href="#mc786f91d3e" x="326.843139" y="97.972362" style="fill: #ffa500; stroke: #ffa500"/>
     <use xlink:href="#mc786f91d3e" x="289.347826" y="97.078743" style="fill: #ffa500; stroke: #ffa500"/>
     <use xlink:href="#mc786f91d3e" x="191.494202" y="150.096796" style="fill: #ffa500; stroke: #ffa500"/>
     <use xlink:href="#mc786f91d3e" x="264.65579" y="150.779863" style="fill: #ffa500; stroke: #ffa500"/>
     <use xlink:href="#mc786f91d3e" x="314.954381" y="84.793355" style="fill: #ffa500; stroke: #ffa500"/>
     <use xlink:href="#mc786f91d3e" x="213.442678" y="173.234274" style="fill: #ffa500; stroke: #ffa500"/>
     <use xlink:href="#mc786f91d3e" x="250.937992" y="129.429241" style="fill: #ffa500; stroke: #ffa500"/>
     <use xlink:href="#mc786f91d3e" x="282.946187" y="116.295067" style="fill: #ffa500; stroke: #ffa500"/>
     <use xlink:href="#mc786f91d3e" x="260.083191" y="144.762962" style="fill: #ffa500; stroke: #ffa500"/>
     <use xlink:href="#mc786f91d3e" x="329.586699" y="89.731004" style="fill: #ffa500; stroke: #ffa500"/>
     <use xlink:href="#mc786f91d3e" x="318.612461" y="76.596831" style="fill: #ffa500; stroke: #ffa500"/>
     <use xlink:href="#mc786f91d3e" x="245.450873" y="109.227462" style="fill: #ffa500; stroke: #ffa500"/>
     <use xlink:href="#mc786f91d3e" x="315.868901" y="84.390578" style="fill: #ffa500; stroke: #ffa500"/>
     <use xlink:href="#mc786f91d3e" x="305.809183" y="147.401354" style="fill: #ffa500; stroke: #ffa500"/>
     <use xlink:href="#mc786f91d3e" x="248.194433" y="155.669091" style="fill: #ffa500; stroke: #ffa500"/>
     <use xlink:href="#mc786f91d3e" x="335.988338" y="85.602834" style="fill: #ffa500; stroke: #ffa500"/>
     <use xlink:href="#mc786f91d3e" x="245.450873" y="139.648014" style="fill: #ffa500; stroke: #ffa500"/>
     <use xlink:href="#mc786f91d3e" x="325.0141" y="68.5515" style="fill: #ffa500; stroke: #ffa500"/>
     <use xlink:href="#mc786f91d3e" x="134.793972" y="142.820179" style="fill: #ffa500; stroke: #ffa500"/>
     <use xlink:href="#mc786f91d3e" x="317.697941" y="52.927913" style="fill: #ffa500; stroke: #ffa500"/>
     <use xlink:href="#mc786f91d3e" x="256.425111" y="148.74179" style="fill: #ffa500; stroke: #ffa500"/>
     <use xlink:href="#mc786f91d3e" x="273.800988" y="62.671883" style="fill: #ffa500; stroke: #ffa500"/>
     <use xlink:href="#mc786f91d3e" x="358.851334" y="68.5515" style="fill: #ffa500; stroke: #ffa500"/>
     <use xlink:href="#mc786f91d3e" x="284.775226" y="119.985042" style="fill: #ffa500; stroke: #ffa500"/>
     <use xlink:href="#mc786f91d3e" x="263.74127" y="169.199639" style="fill: #ffa500; stroke: #ffa500"/>
     <use xlink:href="#mc786f91d3e" x="318.612461" y="74.722218" style="fill: #ffa500; stroke: #ffa500"/>
     <use xlink:href="#mc786f91d3e" x="314.039862" y="73.242565" style="fill: #ffa500; stroke: #ffa500"/>
     <use xlink:href="#mc786f91d3e" x="259.168671" y="144.111998" style="fill: #ffa500; stroke: #ffa500"/>
     <use xlink:href="#mc786f91d3e" x="219.844317" y="111.206223" style="fill: #ffa500; stroke: #ffa500"/>
     <use xlink:href="#mc786f91d3e" x="322.27054" y="80.432806" style="fill: #ffa500; stroke: #ffa500"/>
     <use xlink:href="#mc786f91d3e" x="282.031667" y="55.134331" style="fill: #ffa500; stroke: #ffa500"/>
     <use xlink:href="#mc786f91d3e" x="314.954381" y="97.524752" style="fill: #ffa500; stroke: #ffa500"/>
     <use xlink:href="#mc786f91d3e" x="318.612461" y="89.731004" style="fill: #ffa500; stroke: #ffa500"/>
     <use xlink:href="#mc786f91d3e" x="327.757659" y="95.750211" style="fill: #ffa500; stroke: #ffa500"/>
     <use xlink:href="#mc786f91d3e" x="314.039862" y="74.350655" style="fill: #ffa500; stroke: #ffa500"/>
     <use xlink:href="#mc786f91d3e" x="333.244778" y="87.649832" style="fill: #ffa500; stroke: #ffa500"/>
     <use xlink:href="#mc786f91d3e" x="330.501219" y="73.610835" style="fill: #ffa500; stroke: #ffa500"/>
    </g>
   </g>
   <g id="line2d_37">
    <path d="M 76.264702 235.534412 
L 105.144276 218.232225 
L 186.167525 170.350456 
L 200.607312 161.684646 
L 216.65152 152.548118 
L 231.893517 144.662867 
L 239.113411 140.454449 
L 251.146567 132.85143 
L 255.959829 130.297969 
L 265.586354 125.325837 
L 275.212879 119.055307 
L 276.817299 118.048676 
L 280.828351 115.672763 
L 285.641614 112.624918 
L 295.268138 107.06115 
L 297.67477 105.74138 
L 302.488032 102.833515 
L 320.938871 91.294494 
L 327.356554 87.537014 
L 368.269284 63.408169 
L 380.30244 56.202527 
L 390.731175 49.812733 
L 396.346648 46.483302 
L 396.346648 46.483302 
" clip-path="url(#p5dc7b5a712)" style="fill: none; stroke: #000000; stroke-width: 1.5"/>
   </g>
   <g id="line2d_38">
    <path d="M 76.264702 262.176179 
L 196.59626 191.33066 
L 207.024995 185.416445 
L 233.497938 168.770851 
L 235.904569 167.408493 
L 239.113411 165.384171 
L 243.124463 163.173307 
L 246.333305 161.25009 
L 248.739936 159.94693 
L 252.750988 157.768524 
L 272.004037 146.772505 
L 281.630562 140.775296 
L 284.839403 138.784343 
L 288.048245 136.980573 
L 295.268138 132.697813 
L 298.47698 130.801447 
L 305.696873 126.216741 
L 316.125609 119.642755 
L 322.543292 115.561364 
L 345.807393 101.883428 
L 351.422866 98.788988 
L 375.489178 83.800826 
L 381.10465 80.3181 
L 385.115702 77.98794 
L 392.335596 73.874865 
L 396.346648 71.423407 
L 396.346648 71.423407 
" clip-path="url(#p5dc7b5a712)" style="fill: none; stroke-dasharray: 5.55,2.4; stroke-dashoffset: 0; stroke: #ff0000; stroke-width: 1.5"/>
   </g>
   <g id="line2d_39">
    <path d="M 76.264702 210.277273 
L 117.979642 185.566232 
L 156.485741 163.285739 
L 188.574156 143.842237 
L 192.585208 141.336631 
L 204.618364 134.41839 
L 221.464782 125.707622 
L 224.673624 123.951243 
L 229.486886 121.089856 
L 243.926673 112.391002 
L 251.146567 107.902766 
L 253.553198 106.410591 
L 264.784144 98.997199 
L 268.795195 96.657262 
L 273.608458 93.564159 
L 275.212879 92.614141 
L 280.026141 90.219924 
L 286.443824 86.500201 
L 288.850455 85.300619 
L 292.059297 83.304288 
L 294.465928 81.937418 
L 302.488032 77.53845 
L 312.114557 71.386728 
L 318.53224 67.69341 
L 325.752133 63.345654 
L 330.565396 60.774869 
L 337.785289 56.856128 
L 340.19192 55.531437 
L 342.598551 54.277755 
L 345.807393 52.518321 
L 349.016235 50.740223 
L 354.631707 47.18605 
L 385.917913 27.400108 
L 395.544437 21.517287 
L 396.346648 21.046 
L 396.346648 21.046 
" clip-path="url(#p5dc7b5a712)" style="fill: none; stroke-dasharray: 5.55,2.4; stroke-dashoffset: 0; stroke: #ff0000; stroke-width: 1.5"/>
   </g>
   <g id="line2d_40">
    <defs>
     <path id="m8161043313" d="M 0 3 
C 0.795609 3 1.55874 2.683901 2.12132 2.12132 
C 2.683901 1.55874 3 0.795609 3 0 
C 3 -0.795609 2.683901 -1.55874 2.12132 -2.12132 
C 1.55874 -2.683901 0.795609 -3 0 -3 
C -0.795609 -3 -1.55874 -2.683901 -2.12132 -2.12132 
C -2.683901 -1.55874 -3 -0.795609 -3 0 
C -3 0.795609 -2.683901 1.55874 -2.12132 2.12132 
C -1.55874 2.683901 -0.795609 3 0 3 
z
" style="stroke: #ffa500"/>
    </defs>
    <g clip-path="url(#p5dc7b5a712)">
     <use xlink:href="#m8161043313" x="80.837301" y="258.011996" style="fill: #ffa500; stroke: #ffa500"/>
     <use xlink:href="#m8161043313" x="335.988338" y="123.787583" style="fill: #ffa500; stroke: #ffa500"/>
     <use xlink:href="#m8161043313" x="283.860707" y="77.35464" style="fill: #ffa500; stroke: #ffa500"/>
     <use xlink:href="#m8161043313" x="227.160476" y="161.502172" style="fill: #ffa500; stroke: #ffa500"/>
     <use xlink:href="#m8161043313" x="304.894663" y="82.395986" style="fill: #ffa500; stroke: #ffa500"/>
     <use xlink:href="#m8161043313" x="326.843139" y="98.872433" style="fill: #ffa500; stroke: #ffa500"/>
     <use xlink:href="#m8161043313" x="289.347826" y="101.61231" style="fill: #ffa500; stroke: #ffa500"/>
     <use xlink:href="#m8161043313" x="191.494202" y="155.669091" style="fill: #ffa500; stroke: #ffa500"/>
     <use xlink:href="#m8161043313" x="264.65579" y="162.250879" style="fill: #ffa500; stroke: #ffa500"/>
     <use xlink:href="#m8161043313" x="314.954381" y="89.731004" style="fill: #ffa500; stroke: #ffa500"/>
     <use xlink:href="#m8161043313" x="213.442678" y="179.111561" style="fill: #ffa500; stroke: #ffa500"/>
     <use xlink:href="#m8161043313" x="250.937992" y="135.338373" style="fill: #ffa500; stroke: #ffa500"/>
     <use xlink:href="#m8161043313" x="282.946187" y="122.1437" style="fill: #ffa500; stroke: #ffa500"/>
     <use xlink:href="#m8161043313" x="260.083191" y="150.779863" style="fill: #ffa500; stroke: #ffa500"/>
     <use xlink:href="#m8161043313" x="329.586699" y="101.61231" style="fill: #ffa500; stroke: #ffa500"/>
     <use xlink:href="#m8161043313" x="318.612461" y="82.395986" style="fill: #ffa500; stroke: #ffa500"/>
     <use xlink:href="#m8161043313" x="245.450873" y="115.260543" style="fill: #ffa500; stroke: #ffa500"/>
     <use xlink:href="#m8161043313" x="315.868901" y="90.151441" style="fill: #ffa500; stroke: #ffa500"/>
     <use xlink:href="#m8161043313" x="305.809183" y="150.779863" style="fill: #ffa500; stroke: #ffa500"/>
     <use xlink:href="#m8161043313" x="248.194433" y="161.502172" style="fill: #ffa500; stroke: #ffa500"/>
     <use xlink:href="#m8161043313" x="335.988338" y="88.478136" style="fill: #ffa500; stroke: #ffa500"/>
     <use xlink:href="#m8161043313" x="245.450873" y="145.417343" style="fill: #ffa500; stroke: #ffa500"/>
     <use xlink:href="#m8161043313" x="325.0141" y="78.884222" style="fill: #ffa500; stroke: #ffa500"/>
     <use xlink:href="#m8161043313" x="134.793972" y="148.74179" style="fill: #ffa500; stroke: #ffa500"/>
     <use xlink:href="#m8161043313" x="317.697941" y="59.010064" style="fill: #ffa500; stroke: #ffa500"/>
     <use xlink:href="#m8161043313" x="256.425111" y="154.252493" style="fill: #ffa500; stroke: #ffa500"/>
     <use xlink:href="#m8161043313" x="273.800988" y="67.493564" style="fill: #ffa500; stroke: #ffa500"/>
     <use xlink:href="#m8161043313" x="358.851334" y="70.334926" style="fill: #ffa500; stroke: #ffa500"/>
     <use xlink:href="#m8161043313" x="284.775226" y="126.013702" style="fill: #ffa500; stroke: #ffa500"/>
     <use xlink:href="#m8161043313" x="263.74127" y="174.885415" style="fill: #ffa500; stroke: #ffa500"/>
     <use xlink:href="#m8161043313" x="318.612461" y="75.468684" style="fill: #ffa500; stroke: #ffa500"/>
     <use xlink:href="#m8161043313" x="314.039862" y="77.35464" style="fill: #ffa500; stroke: #ffa500"/>
     <use xlink:href="#m8161043313" x="259.168671" y="150.096796" style="fill: #ffa500; stroke: #ffa500"/>
     <use xlink:href="#m8161043313" x="219.844317" y="116.815566" style="fill: #ffa500; stroke: #ffa500"/>
     <use xlink:href="#m8161043313" x="322.27054" y="81.214371" style="fill: #ffa500; stroke: #ffa500"/>
     <use xlink:href="#m8161043313" x="282.031667" y="56.092026" style="fill: #ffa500; stroke: #ffa500"/>
     <use xlink:href="#m8161043313" x="314.954381" y="103.472932" style="fill: #ffa500; stroke: #ffa500"/>
     <use xlink:href="#m8161043313" x="318.612461" y="91.847513" style="fill: #ffa500; stroke: #ffa500"/>
     <use xlink:href="#m8161043313" x="327.757659" y="107.763734" style="fill: #ffa500; stroke: #ffa500"/>
     <use xlink:href="#m8161043313" x="314.039862" y="76.219646" style="fill: #ffa500; stroke: #ffa500"/>
     <use xlink:href="#m8161043313" x="333.244778" y="93.566979" style="fill: #ffa500; stroke: #ffa500"/>
     <use xlink:href="#m8161043313" x="330.501219" y="79.656109" style="fill: #ffa500; stroke: #ffa500"/>
    </g>
   </g>
   <g id="patch_3">
    <path d="M 55.459375 275.062 
L 55.459375 8.95 
" style="fill: none; stroke: #000000; stroke-width: 0.8; stroke-linejoin: miter; stroke-linecap: square"/>
   </g>
   <g id="patch_4">
    <path d="M 412.579375 275.062 
L 412.579375 8.95 
" style="fill: none; stroke: #000000; stroke-width: 0.8; stroke-linejoin: miter; stroke-linecap: square"/>
   </g>
   <g id="patch_5">
    <path d="M 55.459375 275.062 
L 412.579375 275.062 
" style="fill: none; stroke: #000000; stroke-width: 0.8; stroke-linejoin: miter; stroke-linecap: square"/>
   </g>
   <g id="patch_6">
    <path d="M 55.459375 8.95 
L 412.579375 8.95 
" style="fill: none; stroke: #000000; stroke-width: 0.8; stroke-linejoin: miter; stroke-linecap: square"/>
   </g>
  </g>
 </g>
 <defs>
  <clipPath id="p5dc7b5a712">
   <rect x="55.459375" y="8.95" width="357.12" height="266.112"/>
  </clipPath>
 </defs>
</svg>
