<?xml version="1.0" encoding="utf-8" standalone="no"?>
<!DOCTYPE svg PUBLIC "-//W3C//DTD SVG 1.1//EN"
  "http://www.w3.org/Graphics/SVG/1.1/DTD/svg11.dtd">
<svg height="310.86825pt" version="1.1" viewBox="0 0 404.923125 310.86825" width="404.923125pt" xmlns="http://www.w3.org/2000/svg" xmlns:xlink="http://www.w3.org/1999/xlink">
 <metadata>
  <rdf:RDF xmlns:cc="http://creativecommons.org/ns#" xmlns:dc="http://purl.org/dc/elements/1.1/" xmlns:rdf="http://www.w3.org/1999/02/22-rdf-syntax-ns#">
   <cc:Work>
    <dc:type rdf:resource="http://purl.org/dc/dcmitype/StillImage"/>
    <dc:date>2021-06-19T23:16:05.746756</dc:date>
    <dc:format>image/svg+xml</dc:format>
    <dc:creator>
     <cc:Agent>
      <dc:title>Matplotlib v3.4.2, https://matplotlib.org/</dc:title>
     </cc:Agent>
    </dc:creator>
   </cc:Work>
  </rdf:RDF>
 </metadata>
 <defs>
  <style type="text/css">*{stroke-linecap:butt;stroke-linejoin:round;}</style>
 </defs>
 <g id="figure_1">
  <g id="patch_1">
   <path d="M 0 310.86825 
L 404.923125 310.86825 
L 404.923125 0 
L 0 0 
z
" style="fill:#ffffff;"/>
  </g>
  <g id="axes_1">
   <g id="patch_2">
    <path d="M 40.603125 273.312 
L 397.723125 273.312 
L 397.723125 7.2 
L 40.603125 7.2 
z
" style="fill:#ffffff;"/>
   </g>
   <g id="matplotlib.axis_1">
    <g id="xtick_1">
     <g id="line2d_1">
      <defs>
       <path d="M 0 0 
L 0 3.5 
" id="m2243f1efb7" style="stroke:#000000;stroke-width:0.8;"/>
      </defs>
      <g>
       <use style="stroke:#000000;stroke-width:0.8;" x="49.796275" xlink:href="#m2243f1efb7" y="273.312"/>
      </g>
     </g>
     <g id="text_1">
      <!-- 0 -->
      <g transform="translate(46.615025 287.910437)scale(0.1 -0.1)">
       <defs>
        <path d="M 2034 4250 
Q 1547 4250 1301 3770 
Q 1056 3291 1056 2328 
Q 1056 1369 1301 889 
Q 1547 409 2034 409 
Q 2525 409 2770 889 
Q 3016 1369 3016 2328 
Q 3016 3291 2770 3770 
Q 2525 4250 2034 4250 
z
M 2034 4750 
Q 2819 4750 3233 4129 
Q 3647 3509 3647 2328 
Q 3647 1150 3233 529 
Q 2819 -91 2034 -91 
Q 1250 -91 836 529 
Q 422 1150 422 2328 
Q 422 3509 836 4129 
Q 1250 4750 2034 4750 
z
" id="DejaVuSans-30" transform="scale(0.015625)"/>
       </defs>
       <use xlink:href="#DejaVuSans-30"/>
      </g>
     </g>
    </g>
    <g id="xtick_2">
     <g id="line2d_2">
      <g>
       <use style="stroke:#000000;stroke-width:0.8;" x="118.193172" xlink:href="#m2243f1efb7" y="273.312"/>
      </g>
     </g>
     <g id="text_2">
      <!-- 1 -->
      <g transform="translate(115.011922 287.910437)scale(0.1 -0.1)">
       <defs>
        <path d="M 794 531 
L 1825 531 
L 1825 4091 
L 703 3866 
L 703 4441 
L 1819 4666 
L 2450 4666 
L 2450 531 
L 3481 531 
L 3481 0 
L 794 0 
L 794 531 
z
" id="DejaVuSans-31" transform="scale(0.015625)"/>
       </defs>
       <use xlink:href="#DejaVuSans-31"/>
      </g>
     </g>
    </g>
    <g id="xtick_3">
     <g id="line2d_3">
      <g>
       <use style="stroke:#000000;stroke-width:0.8;" x="186.590069" xlink:href="#m2243f1efb7" y="273.312"/>
      </g>
     </g>
     <g id="text_3">
      <!-- 2 -->
      <g transform="translate(183.408819 287.910437)scale(0.1 -0.1)">
       <defs>
        <path d="M 1228 531 
L 3431 531 
L 3431 0 
L 469 0 
L 469 531 
Q 828 903 1448 1529 
Q 2069 2156 2228 2338 
Q 2531 2678 2651 2914 
Q 2772 3150 2772 3378 
Q 2772 3750 2511 3984 
Q 2250 4219 1831 4219 
Q 1534 4219 1204 4116 
Q 875 4013 500 3803 
L 500 4441 
Q 881 4594 1212 4672 
Q 1544 4750 1819 4750 
Q 2544 4750 2975 4387 
Q 3406 4025 3406 3419 
Q 3406 3131 3298 2873 
Q 3191 2616 2906 2266 
Q 2828 2175 2409 1742 
Q 1991 1309 1228 531 
z
" id="DejaVuSans-32" transform="scale(0.015625)"/>
       </defs>
       <use xlink:href="#DejaVuSans-32"/>
      </g>
     </g>
    </g>
    <g id="xtick_4">
     <g id="line2d_4">
      <g>
       <use style="stroke:#000000;stroke-width:0.8;" x="254.986967" xlink:href="#m2243f1efb7" y="273.312"/>
      </g>
     </g>
     <g id="text_4">
      <!-- 3 -->
      <g transform="translate(251.805717 287.910437)scale(0.1 -0.1)">
       <defs>
        <path d="M 2597 2516 
Q 3050 2419 3304 2112 
Q 3559 1806 3559 1356 
Q 3559 666 3084 287 
Q 2609 -91 1734 -91 
Q 1441 -91 1130 -33 
Q 819 25 488 141 
L 488 750 
Q 750 597 1062 519 
Q 1375 441 1716 441 
Q 2309 441 2620 675 
Q 2931 909 2931 1356 
Q 2931 1769 2642 2001 
Q 2353 2234 1838 2234 
L 1294 2234 
L 1294 2753 
L 1863 2753 
Q 2328 2753 2575 2939 
Q 2822 3125 2822 3475 
Q 2822 3834 2567 4026 
Q 2313 4219 1838 4219 
Q 1578 4219 1281 4162 
Q 984 4106 628 3988 
L 628 4550 
Q 988 4650 1302 4700 
Q 1616 4750 1894 4750 
Q 2613 4750 3031 4423 
Q 3450 4097 3450 3541 
Q 3450 3153 3228 2886 
Q 3006 2619 2597 2516 
z
" id="DejaVuSans-33" transform="scale(0.015625)"/>
       </defs>
       <use xlink:href="#DejaVuSans-33"/>
      </g>
     </g>
    </g>
    <g id="xtick_5">
     <g id="line2d_5">
      <g>
       <use style="stroke:#000000;stroke-width:0.8;" x="323.383864" xlink:href="#m2243f1efb7" y="273.312"/>
      </g>
     </g>
     <g id="text_5">
      <!-- 4 -->
      <g transform="translate(320.202614 287.910437)scale(0.1 -0.1)">
       <defs>
        <path d="M 2419 4116 
L 825 1625 
L 2419 1625 
L 2419 4116 
z
M 2253 4666 
L 3047 4666 
L 3047 1625 
L 3713 1625 
L 3713 1100 
L 3047 1100 
L 3047 0 
L 2419 0 
L 2419 1100 
L 313 1100 
L 313 1709 
L 2253 4666 
z
" id="DejaVuSans-34" transform="scale(0.015625)"/>
       </defs>
       <use xlink:href="#DejaVuSans-34"/>
      </g>
     </g>
    </g>
    <g id="xtick_6">
     <g id="line2d_6">
      <g>
       <use style="stroke:#000000;stroke-width:0.8;" x="391.780761" xlink:href="#m2243f1efb7" y="273.312"/>
      </g>
     </g>
     <g id="text_6">
      <!-- 5 -->
      <g transform="translate(388.599511 287.910437)scale(0.1 -0.1)">
       <defs>
        <path d="M 691 4666 
L 3169 4666 
L 3169 4134 
L 1269 4134 
L 1269 2991 
Q 1406 3038 1543 3061 
Q 1681 3084 1819 3084 
Q 2600 3084 3056 2656 
Q 3513 2228 3513 1497 
Q 3513 744 3044 326 
Q 2575 -91 1722 -91 
Q 1428 -91 1123 -41 
Q 819 9 494 109 
L 494 744 
Q 775 591 1075 516 
Q 1375 441 1709 441 
Q 2250 441 2565 725 
Q 2881 1009 2881 1497 
Q 2881 1984 2565 2268 
Q 2250 2553 1709 2553 
Q 1456 2553 1204 2497 
Q 953 2441 691 2322 
L 691 4666 
z
" id="DejaVuSans-35" transform="scale(0.015625)"/>
       </defs>
       <use xlink:href="#DejaVuSans-35"/>
      </g>
     </g>
    </g>
    <g id="text_7">
     <!-- x -->
     <g transform="translate(216.20375 301.588562)scale(0.1 -0.1)">
      <defs>
       <path d="M 3513 3500 
L 2247 1797 
L 3578 0 
L 2900 0 
L 1881 1375 
L 863 0 
L 184 0 
L 1544 1831 
L 300 3500 
L 978 3500 
L 1906 2253 
L 2834 3500 
L 3513 3500 
z
" id="DejaVuSans-78" transform="scale(0.015625)"/>
      </defs>
      <use xlink:href="#DejaVuSans-78"/>
     </g>
    </g>
   </g>
   <g id="matplotlib.axis_2">
    <g id="ytick_1">
     <g id="line2d_7">
      <defs>
       <path d="M 0 0 
L -3.5 0 
" id="m6bf78a49da" style="stroke:#000000;stroke-width:0.8;"/>
      </defs>
      <g>
       <use style="stroke:#000000;stroke-width:0.8;" x="40.603125" xlink:href="#m6bf78a49da" y="241.997911"/>
      </g>
     </g>
     <g id="text_8">
      <!-- 12 -->
      <g transform="translate(20.878125 245.79713)scale(0.1 -0.1)">
       <use xlink:href="#DejaVuSans-31"/>
       <use x="63.623047" xlink:href="#DejaVuSans-32"/>
      </g>
     </g>
    </g>
    <g id="ytick_2">
     <g id="line2d_8">
      <g>
       <use style="stroke:#000000;stroke-width:0.8;" x="40.603125" xlink:href="#m6bf78a49da" y="204.108845"/>
      </g>
     </g>
     <g id="text_9">
      <!-- 14 -->
      <g transform="translate(20.878125 207.908064)scale(0.1 -0.1)">
       <use xlink:href="#DejaVuSans-31"/>
       <use x="63.623047" xlink:href="#DejaVuSans-34"/>
      </g>
     </g>
    </g>
    <g id="ytick_3">
     <g id="line2d_9">
      <g>
       <use style="stroke:#000000;stroke-width:0.8;" x="40.603125" xlink:href="#m6bf78a49da" y="166.219779"/>
      </g>
     </g>
     <g id="text_10">
      <!-- 16 -->
      <g transform="translate(20.878125 170.018998)scale(0.1 -0.1)">
       <defs>
        <path d="M 2113 2584 
Q 1688 2584 1439 2293 
Q 1191 2003 1191 1497 
Q 1191 994 1439 701 
Q 1688 409 2113 409 
Q 2538 409 2786 701 
Q 3034 994 3034 1497 
Q 3034 2003 2786 2293 
Q 2538 2584 2113 2584 
z
M 3366 4563 
L 3366 3988 
Q 3128 4100 2886 4159 
Q 2644 4219 2406 4219 
Q 1781 4219 1451 3797 
Q 1122 3375 1075 2522 
Q 1259 2794 1537 2939 
Q 1816 3084 2150 3084 
Q 2853 3084 3261 2657 
Q 3669 2231 3669 1497 
Q 3669 778 3244 343 
Q 2819 -91 2113 -91 
Q 1303 -91 875 529 
Q 447 1150 447 2328 
Q 447 3434 972 4092 
Q 1497 4750 2381 4750 
Q 2619 4750 2861 4703 
Q 3103 4656 3366 4563 
z
" id="DejaVuSans-36" transform="scale(0.015625)"/>
       </defs>
       <use xlink:href="#DejaVuSans-31"/>
       <use x="63.623047" xlink:href="#DejaVuSans-36"/>
      </g>
     </g>
    </g>
    <g id="ytick_4">
     <g id="line2d_10">
      <g>
       <use style="stroke:#000000;stroke-width:0.8;" x="40.603125" xlink:href="#m6bf78a49da" y="128.330713"/>
      </g>
     </g>
     <g id="text_11">
      <!-- 18 -->
      <g transform="translate(20.878125 132.129932)scale(0.1 -0.1)">
       <defs>
        <path d="M 2034 2216 
Q 1584 2216 1326 1975 
Q 1069 1734 1069 1313 
Q 1069 891 1326 650 
Q 1584 409 2034 409 
Q 2484 409 2743 651 
Q 3003 894 3003 1313 
Q 3003 1734 2745 1975 
Q 2488 2216 2034 2216 
z
M 1403 2484 
Q 997 2584 770 2862 
Q 544 3141 544 3541 
Q 544 4100 942 4425 
Q 1341 4750 2034 4750 
Q 2731 4750 3128 4425 
Q 3525 4100 3525 3541 
Q 3525 3141 3298 2862 
Q 3072 2584 2669 2484 
Q 3125 2378 3379 2068 
Q 3634 1759 3634 1313 
Q 3634 634 3220 271 
Q 2806 -91 2034 -91 
Q 1263 -91 848 271 
Q 434 634 434 1313 
Q 434 1759 690 2068 
Q 947 2378 1403 2484 
z
M 1172 3481 
Q 1172 3119 1398 2916 
Q 1625 2713 2034 2713 
Q 2441 2713 2670 2916 
Q 2900 3119 2900 3481 
Q 2900 3844 2670 4047 
Q 2441 4250 2034 4250 
Q 1625 4250 1398 4047 
Q 1172 3844 1172 3481 
z
" id="DejaVuSans-38" transform="scale(0.015625)"/>
       </defs>
       <use xlink:href="#DejaVuSans-31"/>
       <use x="63.623047" xlink:href="#DejaVuSans-38"/>
      </g>
     </g>
    </g>
    <g id="ytick_5">
     <g id="line2d_11">
      <g>
       <use style="stroke:#000000;stroke-width:0.8;" x="40.603125" xlink:href="#m6bf78a49da" y="90.441647"/>
      </g>
     </g>
     <g id="text_12">
      <!-- 20 -->
      <g transform="translate(20.878125 94.240866)scale(0.1 -0.1)">
       <use xlink:href="#DejaVuSans-32"/>
       <use x="63.623047" xlink:href="#DejaVuSans-30"/>
      </g>
     </g>
    </g>
    <g id="ytick_6">
     <g id="line2d_12">
      <g>
       <use style="stroke:#000000;stroke-width:0.8;" x="40.603125" xlink:href="#m6bf78a49da" y="52.552581"/>
      </g>
     </g>
     <g id="text_13">
      <!-- 22 -->
      <g transform="translate(20.878125 56.3518)scale(0.1 -0.1)">
       <use xlink:href="#DejaVuSans-32"/>
       <use x="63.623047" xlink:href="#DejaVuSans-32"/>
      </g>
     </g>
    </g>
    <g id="ytick_7">
     <g id="line2d_13">
      <g>
       <use style="stroke:#000000;stroke-width:0.8;" x="40.603125" xlink:href="#m6bf78a49da" y="14.663516"/>
      </g>
     </g>
     <g id="text_14">
      <!-- 24 -->
      <g transform="translate(20.878125 18.462734)scale(0.1 -0.1)">
       <use xlink:href="#DejaVuSans-32"/>
       <use x="63.623047" xlink:href="#DejaVuSans-34"/>
      </g>
     </g>
    </g>
    <g id="text_15">
     <!-- y -->
     <g transform="translate(14.798438 143.215375)rotate(-90)scale(0.1 -0.1)">
      <defs>
       <path d="M 2059 -325 
Q 1816 -950 1584 -1140 
Q 1353 -1331 966 -1331 
L 506 -1331 
L 506 -850 
L 844 -850 
Q 1081 -850 1212 -737 
Q 1344 -625 1503 -206 
L 1606 56 
L 191 3500 
L 800 3500 
L 1894 763 
L 2988 3500 
L 3597 3500 
L 2059 -325 
z
" id="DejaVuSans-79" transform="scale(0.015625)"/>
      </defs>
      <use xlink:href="#DejaVuSans-79"/>
     </g>
    </g>
   </g>
   <g id="LineCollection_1">
    <path clip-path="url(#p83032069e5)" d="M 177.883185 91.22676 
L 177.883185 53.337695 
" style="fill:none;stroke:#1f77b4;stroke-width:1.5;"/>
    <path clip-path="url(#p83032069e5)" d="M 374.925819 261.216 
L 374.925819 223.326934 
" style="fill:none;stroke:#1f77b4;stroke-width:1.5;"/>
    <path clip-path="url(#p83032069e5)" d="M 300.126847 139.551967 
L 300.126847 101.662901 
" style="fill:none;stroke:#1f77b4;stroke-width:1.5;"/>
    <path clip-path="url(#p83032069e5)" d="M 254.528189 98.839684 
L 254.528189 60.950618 
" style="fill:none;stroke:#1f77b4;stroke-width:1.5;"/>
    <path clip-path="url(#p83032069e5)" d="M 103.152229 111.677452 
L 103.152229 73.788386 
" style="fill:none;stroke:#1f77b4;stroke-width:1.5;"/>
    <path clip-path="url(#p83032069e5)" d="M 103.143981 112.23881 
L 103.143981 74.349744 
" style="fill:none;stroke:#1f77b4;stroke-width:1.5;"/>
    <path clip-path="url(#p83032069e5)" d="M 69.659969 192.188049 
L 69.659969 154.298983 
" style="fill:none;stroke:#1f77b4;stroke-width:1.5;"/>
    <path clip-path="url(#p83032069e5)" d="M 346.015079 217.479053 
L 346.015079 179.589988 
" style="fill:none;stroke:#1f77b4;stroke-width:1.5;"/>
    <path clip-path="url(#p83032069e5)" d="M 255.368283 100.217008 
L 255.368283 62.327943 
" style="fill:none;stroke:#1f77b4;stroke-width:1.5;"/>
    <path clip-path="url(#p83032069e5)" d="M 291.946112 128.67562 
L 291.946112 90.786555 
" style="fill:none;stroke:#1f77b4;stroke-width:1.5;"/>
    <path clip-path="url(#p83032069e5)" d="M 56.835852 171.468258 
L 56.835852 133.579192 
" style="fill:none;stroke:#1f77b4;stroke-width:1.5;"/>
    <path clip-path="url(#p83032069e5)" d="M 381.490398 176.10763 
L 381.490398 138.218564 
" style="fill:none;stroke:#1f77b4;stroke-width:1.5;"/>
    <path clip-path="url(#p83032069e5)" d="M 334.478744 174.187824 
L 334.478744 136.298758 
" style="fill:none;stroke:#1f77b4;stroke-width:1.5;"/>
    <path clip-path="url(#p83032069e5)" d="M 122.412956 95.375514 
L 122.412956 57.486448 
" style="fill:none;stroke:#1f77b4;stroke-width:1.5;"/>
    <path clip-path="url(#p83032069e5)" d="M 111.977593 106.703649 
L 111.977593 68.814583 
" style="fill:none;stroke:#1f77b4;stroke-width:1.5;"/>
    <path clip-path="url(#p83032069e5)" d="M 112.517772 112.004332 
L 112.517772 74.115266 
" style="fill:none;stroke:#1f77b4;stroke-width:1.5;"/>
    <path clip-path="url(#p83032069e5)" d="M 153.842402 105.232003 
L 153.842402 67.342937 
" style="fill:none;stroke:#1f77b4;stroke-width:1.5;"/>
    <path clip-path="url(#p83032069e5)" d="M 229.254834 82.907427 
L 229.254834 45.018361 
" style="fill:none;stroke:#1f77b4;stroke-width:1.5;"/>
    <path clip-path="url(#p83032069e5)" d="M 197.51477 105.676159 
L 197.51477 67.787093 
" style="fill:none;stroke:#1f77b4;stroke-width:1.5;"/>
    <path clip-path="url(#p83032069e5)" d="M 149.392123 105.66286 
L 149.392123 67.773794 
" style="fill:none;stroke:#1f77b4;stroke-width:1.5;"/>
    <path clip-path="url(#p83032069e5)" d="M 259.040473 121.479042 
L 259.040473 83.589976 
" style="fill:none;stroke:#1f77b4;stroke-width:1.5;"/>
    <path clip-path="url(#p83032069e5)" d="M 97.501011 135.741804 
L 97.501011 97.852738 
" style="fill:none;stroke:#1f77b4;stroke-width:1.5;"/>
    <path clip-path="url(#p83032069e5)" d="M 149.705212 57.185066 
L 149.705212 19.296 
" style="fill:none;stroke:#1f77b4;stroke-width:1.5;"/>
    <path clip-path="url(#p83032069e5)" d="M 175.086342 128.209501 
L 175.086342 90.320435 
" style="fill:none;stroke:#1f77b4;stroke-width:1.5;"/>
    <path clip-path="url(#p83032069e5)" d="M 205.765134 78.671048 
L 205.765134 40.781982 
" style="fill:none;stroke:#1f77b4;stroke-width:1.5;"/>
    <path clip-path="url(#p83032069e5)" d="M 318.314273 196.330489 
L 318.314273 158.441423 
" style="fill:none;stroke:#1f77b4;stroke-width:1.5;"/>
    <path clip-path="url(#p83032069e5)" d="M 118.08161 128.984537 
L 118.08161 91.095472 
" style="fill:none;stroke:#1f77b4;stroke-width:1.5;"/>
    <path clip-path="url(#p83032069e5)" d="M 225.656475 75.434271 
L 225.656475 37.545205 
" style="fill:none;stroke:#1f77b4;stroke-width:1.5;"/>
    <path clip-path="url(#p83032069e5)" d="M 252.392867 106.977903 
L 252.392867 69.088837 
" style="fill:none;stroke:#1f77b4;stroke-width:1.5;"/>
    <path clip-path="url(#p83032069e5)" d="M 65.681595 191.084798 
L 65.681595 153.195732 
" style="fill:none;stroke:#1f77b4;stroke-width:1.5;"/>
    <path clip-path="url(#p83032069e5)" d="M 257.567189 124.893212 
L 257.567189 87.004146 
" style="fill:none;stroke:#1f77b4;stroke-width:1.5;"/>
    <path clip-path="url(#p83032069e5)" d="M 108.11288 115.068141 
L 108.11288 77.179075 
" style="fill:none;stroke:#1f77b4;stroke-width:1.5;"/>
    <path clip-path="url(#p83032069e5)" d="M 72.04291 177.235136 
L 72.04291 139.34607 
" style="fill:none;stroke:#1f77b4;stroke-width:1.5;"/>
    <path clip-path="url(#p83032069e5)" d="M 374.300408 234.562074 
L 374.300408 196.673009 
" style="fill:none;stroke:#1f77b4;stroke-width:1.5;"/>
    <path clip-path="url(#p83032069e5)" d="M 380.02745 246.095191 
L 380.02745 208.206125 
" style="fill:none;stroke:#1f77b4;stroke-width:1.5;"/>
    <path clip-path="url(#p83032069e5)" d="M 326.255627 187.353718 
L 326.255627 149.464652 
" style="fill:none;stroke:#1f77b4;stroke-width:1.5;"/>
    <path clip-path="url(#p83032069e5)" d="M 153.969458 58.591495 
L 153.969458 20.702429 
" style="fill:none;stroke:#1f77b4;stroke-width:1.5;"/>
    <path clip-path="url(#p83032069e5)" d="M 83.198622 139.340175 
L 83.198622 101.451109 
" style="fill:none;stroke:#1f77b4;stroke-width:1.5;"/>
    <path clip-path="url(#p83032069e5)" d="M 283.793355 169.424414 
L 283.793355 131.535349 
" style="fill:none;stroke:#1f77b4;stroke-width:1.5;"/>
    <path clip-path="url(#p83032069e5)" d="M 200.321599 87.641251 
L 200.321599 49.752185 
" style="fill:none;stroke:#1f77b4;stroke-width:1.5;"/>
    <path clip-path="url(#p83032069e5)" d="M 91.531458 155.499732 
L 91.531458 117.610666 
" style="fill:none;stroke:#1f77b4;stroke-width:1.5;"/>
    <path clip-path="url(#p83032069e5)" d="M 219.139096 78.033591 
L 219.139096 40.144525 
" style="fill:none;stroke:#1f77b4;stroke-width:1.5;"/>
    <path clip-path="url(#p83032069e5)" d="M 61.556615 190.541428 
L 61.556615 152.652362 
" style="fill:none;stroke:#1f77b4;stroke-width:1.5;"/>
    <path clip-path="url(#p83032069e5)" d="M 360.769746 221.744744 
L 360.769746 183.855678 
" style="fill:none;stroke:#1f77b4;stroke-width:1.5;"/>
    <path clip-path="url(#p83032069e5)" d="M 138.295014 97.233019 
L 138.295014 59.343953 
" style="fill:none;stroke:#1f77b4;stroke-width:1.5;"/>
    <path clip-path="url(#p83032069e5)" d="M 276.368618 108.454743 
L 276.368618 70.565677 
" style="fill:none;stroke:#1f77b4;stroke-width:1.5;"/>
    <path clip-path="url(#p83032069e5)" d="M 156.396627 120.986627 
L 156.396627 83.097561 
" style="fill:none;stroke:#1f77b4;stroke-width:1.5;"/>
    <path clip-path="url(#p83032069e5)" d="M 227.65147 103.062273 
L 227.65147 65.173207 
" style="fill:none;stroke:#1f77b4;stroke-width:1.5;"/>
    <path clip-path="url(#p83032069e5)" d="M 236.762709 109.248295 
L 236.762709 71.359229 
" style="fill:none;stroke:#1f77b4;stroke-width:1.5;"/>
    <path clip-path="url(#p83032069e5)" d="M 113.013631 136.327235 
L 113.013631 98.438169 
" style="fill:none;stroke:#1f77b4;stroke-width:1.5;"/>
   </g>
   <g id="line2d_14">
    <defs>
     <path d="M 0 3 
C 0.795609 3 1.55874 2.683901 2.12132 2.12132 
C 2.683901 1.55874 3 0.795609 3 0 
C 3 -0.795609 2.683901 -1.55874 2.12132 -2.12132 
C 1.55874 -2.683901 0.795609 -3 0 -3 
C -0.795609 -3 -1.55874 -2.683901 -2.12132 -2.12132 
C -2.683901 -1.55874 -3 -0.795609 -3 0 
C -3 0.795609 -2.683901 1.55874 -2.12132 2.12132 
C -1.55874 2.683901 -0.795609 3 0 3 
z
" id="mcde48e95f5" style="stroke:#1f77b4;"/>
    </defs>
    <g clip-path="url(#p83032069e5)">
     <use style="fill:#1f77b4;stroke:#1f77b4;" x="177.883185" xlink:href="#mcde48e95f5" y="72.282228"/>
     <use style="fill:#1f77b4;stroke:#1f77b4;" x="374.925819" xlink:href="#mcde48e95f5" y="242.271467"/>
     <use style="fill:#1f77b4;stroke:#1f77b4;" x="300.126847" xlink:href="#mcde48e95f5" y="120.607434"/>
     <use style="fill:#1f77b4;stroke:#1f77b4;" x="254.528189" xlink:href="#mcde48e95f5" y="79.895151"/>
     <use style="fill:#1f77b4;stroke:#1f77b4;" x="103.152229" xlink:href="#mcde48e95f5" y="92.732919"/>
     <use style="fill:#1f77b4;stroke:#1f77b4;" x="103.143981" xlink:href="#mcde48e95f5" y="93.294277"/>
     <use style="fill:#1f77b4;stroke:#1f77b4;" x="69.659969" xlink:href="#mcde48e95f5" y="173.243516"/>
     <use style="fill:#1f77b4;stroke:#1f77b4;" x="346.015079" xlink:href="#mcde48e95f5" y="198.534521"/>
     <use style="fill:#1f77b4;stroke:#1f77b4;" x="255.368283" xlink:href="#mcde48e95f5" y="81.272475"/>
     <use style="fill:#1f77b4;stroke:#1f77b4;" x="291.946112" xlink:href="#mcde48e95f5" y="109.731088"/>
     <use style="fill:#1f77b4;stroke:#1f77b4;" x="56.835852" xlink:href="#mcde48e95f5" y="152.523725"/>
     <use style="fill:#1f77b4;stroke:#1f77b4;" x="381.490398" xlink:href="#mcde48e95f5" y="157.163097"/>
     <use style="fill:#1f77b4;stroke:#1f77b4;" x="334.478744" xlink:href="#mcde48e95f5" y="155.243291"/>
     <use style="fill:#1f77b4;stroke:#1f77b4;" x="122.412956" xlink:href="#mcde48e95f5" y="76.430981"/>
     <use style="fill:#1f77b4;stroke:#1f77b4;" x="111.977593" xlink:href="#mcde48e95f5" y="87.759116"/>
     <use style="fill:#1f77b4;stroke:#1f77b4;" x="112.517772" xlink:href="#mcde48e95f5" y="93.059799"/>
     <use style="fill:#1f77b4;stroke:#1f77b4;" x="153.842402" xlink:href="#mcde48e95f5" y="86.28747"/>
     <use style="fill:#1f77b4;stroke:#1f77b4;" x="229.254834" xlink:href="#mcde48e95f5" y="63.962894"/>
     <use style="fill:#1f77b4;stroke:#1f77b4;" x="197.51477" xlink:href="#mcde48e95f5" y="86.731626"/>
     <use style="fill:#1f77b4;stroke:#1f77b4;" x="149.392123" xlink:href="#mcde48e95f5" y="86.718327"/>
     <use style="fill:#1f77b4;stroke:#1f77b4;" x="259.040473" xlink:href="#mcde48e95f5" y="102.534509"/>
     <use style="fill:#1f77b4;stroke:#1f77b4;" x="97.501011" xlink:href="#mcde48e95f5" y="116.797271"/>
     <use style="fill:#1f77b4;stroke:#1f77b4;" x="149.705212" xlink:href="#mcde48e95f5" y="38.240533"/>
     <use style="fill:#1f77b4;stroke:#1f77b4;" x="175.086342" xlink:href="#mcde48e95f5" y="109.264968"/>
     <use style="fill:#1f77b4;stroke:#1f77b4;" x="205.765134" xlink:href="#mcde48e95f5" y="59.726515"/>
     <use style="fill:#1f77b4;stroke:#1f77b4;" x="318.314273" xlink:href="#mcde48e95f5" y="177.385956"/>
     <use style="fill:#1f77b4;stroke:#1f77b4;" x="118.08161" xlink:href="#mcde48e95f5" y="110.040005"/>
     <use style="fill:#1f77b4;stroke:#1f77b4;" x="225.656475" xlink:href="#mcde48e95f5" y="56.489738"/>
     <use style="fill:#1f77b4;stroke:#1f77b4;" x="252.392867" xlink:href="#mcde48e95f5" y="88.03337"/>
     <use style="fill:#1f77b4;stroke:#1f77b4;" x="65.681595" xlink:href="#mcde48e95f5" y="172.140265"/>
     <use style="fill:#1f77b4;stroke:#1f77b4;" x="257.567189" xlink:href="#mcde48e95f5" y="105.948679"/>
     <use style="fill:#1f77b4;stroke:#1f77b4;" x="108.11288" xlink:href="#mcde48e95f5" y="96.123608"/>
     <use style="fill:#1f77b4;stroke:#1f77b4;" x="72.04291" xlink:href="#mcde48e95f5" y="158.290603"/>
     <use style="fill:#1f77b4;stroke:#1f77b4;" x="374.300408" xlink:href="#mcde48e95f5" y="215.617542"/>
     <use style="fill:#1f77b4;stroke:#1f77b4;" x="380.02745" xlink:href="#mcde48e95f5" y="227.150658"/>
     <use style="fill:#1f77b4;stroke:#1f77b4;" x="326.255627" xlink:href="#mcde48e95f5" y="168.409185"/>
     <use style="fill:#1f77b4;stroke:#1f77b4;" x="153.969458" xlink:href="#mcde48e95f5" y="39.646962"/>
     <use style="fill:#1f77b4;stroke:#1f77b4;" x="83.198622" xlink:href="#mcde48e95f5" y="120.395642"/>
     <use style="fill:#1f77b4;stroke:#1f77b4;" x="283.793355" xlink:href="#mcde48e95f5" y="150.479882"/>
     <use style="fill:#1f77b4;stroke:#1f77b4;" x="200.321599" xlink:href="#mcde48e95f5" y="68.696718"/>
     <use style="fill:#1f77b4;stroke:#1f77b4;" x="91.531458" xlink:href="#mcde48e95f5" y="136.555199"/>
     <use style="fill:#1f77b4;stroke:#1f77b4;" x="219.139096" xlink:href="#mcde48e95f5" y="59.089058"/>
     <use style="fill:#1f77b4;stroke:#1f77b4;" x="61.556615" xlink:href="#mcde48e95f5" y="171.596895"/>
     <use style="fill:#1f77b4;stroke:#1f77b4;" x="360.769746" xlink:href="#mcde48e95f5" y="202.800211"/>
     <use style="fill:#1f77b4;stroke:#1f77b4;" x="138.295014" xlink:href="#mcde48e95f5" y="78.288486"/>
     <use style="fill:#1f77b4;stroke:#1f77b4;" x="276.368618" xlink:href="#mcde48e95f5" y="89.51021"/>
     <use style="fill:#1f77b4;stroke:#1f77b4;" x="156.396627" xlink:href="#mcde48e95f5" y="102.042094"/>
     <use style="fill:#1f77b4;stroke:#1f77b4;" x="227.65147" xlink:href="#mcde48e95f5" y="84.11774"/>
     <use style="fill:#1f77b4;stroke:#1f77b4;" x="236.762709" xlink:href="#mcde48e95f5" y="90.303762"/>
     <use style="fill:#1f77b4;stroke:#1f77b4;" x="113.013631" xlink:href="#mcde48e95f5" y="117.382702"/>
    </g>
   </g>
   <g id="patch_3">
    <path d="M 40.603125 273.312 
L 40.603125 7.2 
" style="fill:none;stroke:#000000;stroke-linecap:square;stroke-linejoin:miter;stroke-width:0.8;"/>
   </g>
   <g id="patch_4">
    <path d="M 397.723125 273.312 
L 397.723125 7.2 
" style="fill:none;stroke:#000000;stroke-linecap:square;stroke-linejoin:miter;stroke-width:0.8;"/>
   </g>
   <g id="patch_5">
    <path d="M 40.603125 273.312 
L 397.723125 273.312 
" style="fill:none;stroke:#000000;stroke-linecap:square;stroke-linejoin:miter;stroke-width:0.8;"/>
   </g>
   <g id="patch_6">
    <path d="M 40.603125 7.2 
L 397.723125 7.2 
" style="fill:none;stroke:#000000;stroke-linecap:square;stroke-linejoin:miter;stroke-width:0.8;"/>
   </g>
  </g>
 </g>
 <defs>
  <clipPath id="p83032069e5">
   <rect height="266.112" width="357.12" x="40.603125" y="7.2"/>
  </clipPath>
 </defs>
</svg>
