<?xml version="1.0" encoding="utf-8" standalone="no"?>
<!DOCTYPE svg PUBLIC "-//W3C//DTD SVG 1.1//EN"
  "http://www.w3.org/Graphics/SVG/1.1/DTD/svg11.dtd">
<!-- Created with matplotlib (https://matplotlib.org/) -->
<svg height="310.86825pt" version="1.1" viewBox="0 0 414.46375 310.86825" width="414.46375pt" xmlns="http://www.w3.org/2000/svg" xmlns:xlink="http://www.w3.org/1999/xlink">
 <defs>
  <style type="text/css">
*{stroke-linecap:butt;stroke-linejoin:round;}
  </style>
 </defs>
 <g id="figure_1">
  <g id="patch_1">
   <path d="M 0 310.86825 
L 414.46375 310.86825 
L 414.46375 0 
L 0 0 
z
" style="fill:#ffffff;"/>
  </g>
  <g id="axes_1">
   <g id="patch_2">
    <path d="M 50.14375 273.312 
L 407.26375 273.312 
L 407.26375 7.2 
L 50.14375 7.2 
z
" style="fill:#ffffff;"/>
   </g>
   <g id="matplotlib.axis_1">
    <g id="xtick_1">
     <g id="line2d_1">
      <defs>
       <path d="M 0 0 
L 0 3.5 
" id="m843ce44e87" style="stroke:#000000;stroke-width:0.8;"/>
      </defs>
      <g>
       <use style="stroke:#000000;stroke-width:0.8;" x="59.3369" xlink:href="#m843ce44e87" y="273.312"/>
      </g>
     </g>
     <g id="text_1">
      <!-- 0 -->
      <defs>
       <path d="M 31.78125 66.40625 
Q 24.171875 66.40625 20.328125 58.90625 
Q 16.5 51.421875 16.5 36.375 
Q 16.5 21.390625 20.328125 13.890625 
Q 24.171875 6.390625 31.78125 6.390625 
Q 39.453125 6.390625 43.28125 13.890625 
Q 47.125 21.390625 47.125 36.375 
Q 47.125 51.421875 43.28125 58.90625 
Q 39.453125 66.40625 31.78125 66.40625 
z
M 31.78125 74.21875 
Q 44.046875 74.21875 50.515625 64.515625 
Q 56.984375 54.828125 56.984375 36.375 
Q 56.984375 17.96875 50.515625 8.265625 
Q 44.046875 -1.421875 31.78125 -1.421875 
Q 19.53125 -1.421875 13.0625 8.265625 
Q 6.59375 17.96875 6.59375 36.375 
Q 6.59375 54.828125 13.0625 64.515625 
Q 19.53125 74.21875 31.78125 74.21875 
z
" id="DejaVuSans-48"/>
      </defs>
      <g transform="translate(56.15565 287.910437)scale(0.1 -0.1)">
       <use xlink:href="#DejaVuSans-48"/>
      </g>
     </g>
    </g>
    <g id="xtick_2">
     <g id="line2d_2">
      <g>
       <use style="stroke:#000000;stroke-width:0.8;" x="127.733797" xlink:href="#m843ce44e87" y="273.312"/>
      </g>
     </g>
     <g id="text_2">
      <!-- 1 -->
      <defs>
       <path d="M 12.40625 8.296875 
L 28.515625 8.296875 
L 28.515625 63.921875 
L 10.984375 60.40625 
L 10.984375 69.390625 
L 28.421875 72.90625 
L 38.28125 72.90625 
L 38.28125 8.296875 
L 54.390625 8.296875 
L 54.390625 0 
L 12.40625 0 
z
" id="DejaVuSans-49"/>
      </defs>
      <g transform="translate(124.552547 287.910437)scale(0.1 -0.1)">
       <use xlink:href="#DejaVuSans-49"/>
      </g>
     </g>
    </g>
    <g id="xtick_3">
     <g id="line2d_3">
      <g>
       <use style="stroke:#000000;stroke-width:0.8;" x="196.130694" xlink:href="#m843ce44e87" y="273.312"/>
      </g>
     </g>
     <g id="text_3">
      <!-- 2 -->
      <defs>
       <path d="M 19.1875 8.296875 
L 53.609375 8.296875 
L 53.609375 0 
L 7.328125 0 
L 7.328125 8.296875 
Q 12.9375 14.109375 22.625 23.890625 
Q 32.328125 33.6875 34.8125 36.53125 
Q 39.546875 41.84375 41.421875 45.53125 
Q 43.3125 49.21875 43.3125 52.78125 
Q 43.3125 58.59375 39.234375 62.25 
Q 35.15625 65.921875 28.609375 65.921875 
Q 23.96875 65.921875 18.8125 64.3125 
Q 13.671875 62.703125 7.8125 59.421875 
L 7.8125 69.390625 
Q 13.765625 71.78125 18.9375 73 
Q 24.125 74.21875 28.421875 74.21875 
Q 39.75 74.21875 46.484375 68.546875 
Q 53.21875 62.890625 53.21875 53.421875 
Q 53.21875 48.921875 51.53125 44.890625 
Q 49.859375 40.875 45.40625 35.40625 
Q 44.1875 33.984375 37.640625 27.21875 
Q 31.109375 20.453125 19.1875 8.296875 
z
" id="DejaVuSans-50"/>
      </defs>
      <g transform="translate(192.949444 287.910437)scale(0.1 -0.1)">
       <use xlink:href="#DejaVuSans-50"/>
      </g>
     </g>
    </g>
    <g id="xtick_4">
     <g id="line2d_4">
      <g>
       <use style="stroke:#000000;stroke-width:0.8;" x="264.527592" xlink:href="#m843ce44e87" y="273.312"/>
      </g>
     </g>
     <g id="text_4">
      <!-- 3 -->
      <defs>
       <path d="M 40.578125 39.3125 
Q 47.65625 37.796875 51.625 33 
Q 55.609375 28.21875 55.609375 21.1875 
Q 55.609375 10.40625 48.1875 4.484375 
Q 40.765625 -1.421875 27.09375 -1.421875 
Q 22.515625 -1.421875 17.65625 -0.515625 
Q 12.796875 0.390625 7.625 2.203125 
L 7.625 11.71875 
Q 11.71875 9.328125 16.59375 8.109375 
Q 21.484375 6.890625 26.8125 6.890625 
Q 36.078125 6.890625 40.9375 10.546875 
Q 45.796875 14.203125 45.796875 21.1875 
Q 45.796875 27.640625 41.28125 31.265625 
Q 36.765625 34.90625 28.71875 34.90625 
L 20.21875 34.90625 
L 20.21875 43.015625 
L 29.109375 43.015625 
Q 36.375 43.015625 40.234375 45.921875 
Q 44.09375 48.828125 44.09375 54.296875 
Q 44.09375 59.90625 40.109375 62.90625 
Q 36.140625 65.921875 28.71875 65.921875 
Q 24.65625 65.921875 20.015625 65.03125 
Q 15.375 64.15625 9.8125 62.3125 
L 9.8125 71.09375 
Q 15.4375 72.65625 20.34375 73.4375 
Q 25.25 74.21875 29.59375 74.21875 
Q 40.828125 74.21875 47.359375 69.109375 
Q 53.90625 64.015625 53.90625 55.328125 
Q 53.90625 49.265625 50.4375 45.09375 
Q 46.96875 40.921875 40.578125 39.3125 
z
" id="DejaVuSans-51"/>
      </defs>
      <g transform="translate(261.346342 287.910437)scale(0.1 -0.1)">
       <use xlink:href="#DejaVuSans-51"/>
      </g>
     </g>
    </g>
    <g id="xtick_5">
     <g id="line2d_5">
      <g>
       <use style="stroke:#000000;stroke-width:0.8;" x="332.924489" xlink:href="#m843ce44e87" y="273.312"/>
      </g>
     </g>
     <g id="text_5">
      <!-- 4 -->
      <defs>
       <path d="M 37.796875 64.3125 
L 12.890625 25.390625 
L 37.796875 25.390625 
z
M 35.203125 72.90625 
L 47.609375 72.90625 
L 47.609375 25.390625 
L 58.015625 25.390625 
L 58.015625 17.1875 
L 47.609375 17.1875 
L 47.609375 0 
L 37.796875 0 
L 37.796875 17.1875 
L 4.890625 17.1875 
L 4.890625 26.703125 
z
" id="DejaVuSans-52"/>
      </defs>
      <g transform="translate(329.743239 287.910437)scale(0.1 -0.1)">
       <use xlink:href="#DejaVuSans-52"/>
      </g>
     </g>
    </g>
    <g id="xtick_6">
     <g id="line2d_6">
      <g>
       <use style="stroke:#000000;stroke-width:0.8;" x="401.321386" xlink:href="#m843ce44e87" y="273.312"/>
      </g>
     </g>
     <g id="text_6">
      <!-- 5 -->
      <defs>
       <path d="M 10.796875 72.90625 
L 49.515625 72.90625 
L 49.515625 64.59375 
L 19.828125 64.59375 
L 19.828125 46.734375 
Q 21.96875 47.46875 24.109375 47.828125 
Q 26.265625 48.1875 28.421875 48.1875 
Q 40.625 48.1875 47.75 41.5 
Q 54.890625 34.8125 54.890625 23.390625 
Q 54.890625 11.625 47.5625 5.09375 
Q 40.234375 -1.421875 26.90625 -1.421875 
Q 22.3125 -1.421875 17.546875 -0.640625 
Q 12.796875 0.140625 7.71875 1.703125 
L 7.71875 11.625 
Q 12.109375 9.234375 16.796875 8.0625 
Q 21.484375 6.890625 26.703125 6.890625 
Q 35.15625 6.890625 40.078125 11.328125 
Q 45.015625 15.765625 45.015625 23.390625 
Q 45.015625 31 40.078125 35.4375 
Q 35.15625 39.890625 26.703125 39.890625 
Q 22.75 39.890625 18.8125 39.015625 
Q 14.890625 38.140625 10.796875 36.28125 
z
" id="DejaVuSans-53"/>
      </defs>
      <g transform="translate(398.140136 287.910437)scale(0.1 -0.1)">
       <use xlink:href="#DejaVuSans-53"/>
      </g>
     </g>
    </g>
    <g id="text_7">
     <!-- x -->
     <defs>
      <path d="M 54.890625 54.6875 
L 35.109375 28.078125 
L 55.90625 0 
L 45.3125 0 
L 29.390625 21.484375 
L 13.484375 0 
L 2.875 0 
L 24.125 28.609375 
L 4.6875 54.6875 
L 15.28125 54.6875 
L 29.78125 35.203125 
L 44.28125 54.6875 
z
" id="DejaVuSans-120"/>
     </defs>
     <g transform="translate(225.744375 301.588562)scale(0.1 -0.1)">
      <use xlink:href="#DejaVuSans-120"/>
     </g>
    </g>
   </g>
   <g id="matplotlib.axis_2">
    <g id="ytick_1">
     <g id="line2d_7">
      <defs>
       <path d="M 0 0 
L -3.5 0 
" id="me6349d97c7" style="stroke:#000000;stroke-width:0.8;"/>
      </defs>
      <g>
       <use style="stroke:#000000;stroke-width:0.8;" x="50.14375" xlink:href="#me6349d97c7" y="254.16964"/>
      </g>
     </g>
     <g id="text_8">
      <!-- 0.0 -->
      <defs>
       <path d="M 10.6875 12.40625 
L 21 12.40625 
L 21 0 
L 10.6875 0 
z
" id="DejaVuSans-46"/>
      </defs>
      <g transform="translate(27.240625 257.968858)scale(0.1 -0.1)">
       <use xlink:href="#DejaVuSans-48"/>
       <use x="63.623047" xlink:href="#DejaVuSans-46"/>
       <use x="95.410156" xlink:href="#DejaVuSans-48"/>
      </g>
     </g>
    </g>
    <g id="ytick_2">
     <g id="line2d_8">
      <g>
       <use style="stroke:#000000;stroke-width:0.8;" x="50.14375" xlink:href="#me6349d97c7" y="220.740453"/>
      </g>
     </g>
     <g id="text_9">
      <!-- 2.5 -->
      <g transform="translate(27.240625 224.539672)scale(0.1 -0.1)">
       <use xlink:href="#DejaVuSans-50"/>
       <use x="63.623047" xlink:href="#DejaVuSans-46"/>
       <use x="95.410156" xlink:href="#DejaVuSans-53"/>
      </g>
     </g>
    </g>
    <g id="ytick_3">
     <g id="line2d_9">
      <g>
       <use style="stroke:#000000;stroke-width:0.8;" x="50.14375" xlink:href="#me6349d97c7" y="187.311267"/>
      </g>
     </g>
     <g id="text_10">
      <!-- 5.0 -->
      <g transform="translate(27.240625 191.110486)scale(0.1 -0.1)">
       <use xlink:href="#DejaVuSans-53"/>
       <use x="63.623047" xlink:href="#DejaVuSans-46"/>
       <use x="95.410156" xlink:href="#DejaVuSans-48"/>
      </g>
     </g>
    </g>
    <g id="ytick_4">
     <g id="line2d_10">
      <g>
       <use style="stroke:#000000;stroke-width:0.8;" x="50.14375" xlink:href="#me6349d97c7" y="153.882081"/>
      </g>
     </g>
     <g id="text_11">
      <!-- 7.5 -->
      <defs>
       <path d="M 8.203125 72.90625 
L 55.078125 72.90625 
L 55.078125 68.703125 
L 28.609375 0 
L 18.3125 0 
L 43.21875 64.59375 
L 8.203125 64.59375 
z
" id="DejaVuSans-55"/>
      </defs>
      <g transform="translate(27.240625 157.6813)scale(0.1 -0.1)">
       <use xlink:href="#DejaVuSans-55"/>
       <use x="63.623047" xlink:href="#DejaVuSans-46"/>
       <use x="95.410156" xlink:href="#DejaVuSans-53"/>
      </g>
     </g>
    </g>
    <g id="ytick_5">
     <g id="line2d_11">
      <g>
       <use style="stroke:#000000;stroke-width:0.8;" x="50.14375" xlink:href="#me6349d97c7" y="120.452895"/>
      </g>
     </g>
     <g id="text_12">
      <!-- 10.0 -->
      <g transform="translate(20.878125 124.252114)scale(0.1 -0.1)">
       <use xlink:href="#DejaVuSans-49"/>
       <use x="63.623047" xlink:href="#DejaVuSans-48"/>
       <use x="127.246094" xlink:href="#DejaVuSans-46"/>
       <use x="159.033203" xlink:href="#DejaVuSans-48"/>
      </g>
     </g>
    </g>
    <g id="ytick_6">
     <g id="line2d_12">
      <g>
       <use style="stroke:#000000;stroke-width:0.8;" x="50.14375" xlink:href="#me6349d97c7" y="87.023709"/>
      </g>
     </g>
     <g id="text_13">
      <!-- 12.5 -->
      <g transform="translate(20.878125 90.822927)scale(0.1 -0.1)">
       <use xlink:href="#DejaVuSans-49"/>
       <use x="63.623047" xlink:href="#DejaVuSans-50"/>
       <use x="127.246094" xlink:href="#DejaVuSans-46"/>
       <use x="159.033203" xlink:href="#DejaVuSans-53"/>
      </g>
     </g>
    </g>
    <g id="ytick_7">
     <g id="line2d_13">
      <g>
       <use style="stroke:#000000;stroke-width:0.8;" x="50.14375" xlink:href="#me6349d97c7" y="53.594523"/>
      </g>
     </g>
     <g id="text_14">
      <!-- 15.0 -->
      <g transform="translate(20.878125 57.393741)scale(0.1 -0.1)">
       <use xlink:href="#DejaVuSans-49"/>
       <use x="63.623047" xlink:href="#DejaVuSans-53"/>
       <use x="127.246094" xlink:href="#DejaVuSans-46"/>
       <use x="159.033203" xlink:href="#DejaVuSans-48"/>
      </g>
     </g>
    </g>
    <g id="ytick_8">
     <g id="line2d_14">
      <g>
       <use style="stroke:#000000;stroke-width:0.8;" x="50.14375" xlink:href="#me6349d97c7" y="20.165336"/>
      </g>
     </g>
     <g id="text_15">
      <!-- 17.5 -->
      <g transform="translate(20.878125 23.964555)scale(0.1 -0.1)">
       <use xlink:href="#DejaVuSans-49"/>
       <use x="63.623047" xlink:href="#DejaVuSans-55"/>
       <use x="127.246094" xlink:href="#DejaVuSans-46"/>
       <use x="159.033203" xlink:href="#DejaVuSans-53"/>
      </g>
     </g>
    </g>
    <g id="text_16">
     <!-- y -->
     <defs>
      <path d="M 32.171875 -5.078125 
Q 28.375 -14.84375 24.75 -17.8125 
Q 21.140625 -20.796875 15.09375 -20.796875 
L 7.90625 -20.796875 
L 7.90625 -13.28125 
L 13.1875 -13.28125 
Q 16.890625 -13.28125 18.9375 -11.515625 
Q 21 -9.765625 23.484375 -3.21875 
L 25.09375 0.875 
L 2.984375 54.6875 
L 12.5 54.6875 
L 29.59375 11.921875 
L 46.6875 54.6875 
L 56.203125 54.6875 
z
" id="DejaVuSans-121"/>
     </defs>
     <g transform="translate(14.798438 143.215375)rotate(-90)scale(0.1 -0.1)">
      <use xlink:href="#DejaVuSans-121"/>
     </g>
    </g>
   </g>
   <g id="LineCollection_1">
    <path clip-path="url(#p0387eb1455)" d="M 187.42381 88.203633 
L 187.42381 61.460285 
" style="fill:none;stroke:#1f77b4;stroke-width:1.5;"/>
    <path clip-path="url(#p0387eb1455)" d="M 384.466444 51.945757 
L 384.466444 25.202408 
" style="fill:none;stroke:#1f77b4;stroke-width:1.5;"/>
    <path clip-path="url(#p0387eb1455)" d="M 309.667472 169.558166 
L 309.667472 142.814817 
" style="fill:none;stroke:#1f77b4;stroke-width:1.5;"/>
    <path clip-path="url(#p0387eb1455)" d="M 264.068814 242.1768 
L 264.068814 215.433451 
" style="fill:none;stroke:#1f77b4;stroke-width:1.5;"/>
    <path clip-path="url(#p0387eb1455)" d="M 112.692854 155.776233 
L 112.692854 129.032884 
" style="fill:none;stroke:#1f77b4;stroke-width:1.5;"/>
    <path clip-path="url(#p0387eb1455)" d="M 112.684606 174.992814 
L 112.684606 148.249465 
" style="fill:none;stroke:#1f77b4;stroke-width:1.5;"/>
    <path clip-path="url(#p0387eb1455)" d="M 79.200594 217.469472 
L 79.200594 190.726123 
" style="fill:none;stroke:#1f77b4;stroke-width:1.5;"/>
    <path clip-path="url(#p0387eb1455)" d="M 355.555704 64.89834 
L 355.555704 38.154991 
" style="fill:none;stroke:#1f77b4;stroke-width:1.5;"/>
    <path clip-path="url(#p0387eb1455)" d="M 264.908908 205.082653 
L 264.908908 178.339304 
" style="fill:none;stroke:#1f77b4;stroke-width:1.5;"/>
    <path clip-path="url(#p0387eb1455)" d="M 301.486737 171.224403 
L 301.486737 144.481054 
" style="fill:none;stroke:#1f77b4;stroke-width:1.5;"/>
    <path clip-path="url(#p0387eb1455)" d="M 66.376477 234.383614 
L 66.376477 207.640265 
" style="fill:none;stroke:#1f77b4;stroke-width:1.5;"/>
    <path clip-path="url(#p0387eb1455)" d="M 391.031023 66.625661 
L 391.031023 39.882313 
" style="fill:none;stroke:#1f77b4;stroke-width:1.5;"/>
    <path clip-path="url(#p0387eb1455)" d="M 344.019369 75.640513 
L 344.019369 48.897164 
" style="fill:none;stroke:#1f77b4;stroke-width:1.5;"/>
    <path clip-path="url(#p0387eb1455)" d="M 131.953581 104.772377 
L 131.953581 78.029028 
" style="fill:none;stroke:#1f77b4;stroke-width:1.5;"/>
    <path clip-path="url(#p0387eb1455)" d="M 121.518218 165.148868 
L 121.518218 138.405519 
" style="fill:none;stroke:#1f77b4;stroke-width:1.5;"/>
    <path clip-path="url(#p0387eb1455)" d="M 122.058397 141.551007 
L 122.058397 114.807658 
" style="fill:none;stroke:#1f77b4;stroke-width:1.5;"/>
    <path clip-path="url(#p0387eb1455)" d="M 163.383027 47.81145 
L 163.383027 21.068101 
" style="fill:none;stroke:#1f77b4;stroke-width:1.5;"/>
    <path clip-path="url(#p0387eb1455)" d="M 238.795459 215.476694 
L 238.795459 188.733345 
" style="fill:none;stroke:#1f77b4;stroke-width:1.5;"/>
    <path clip-path="url(#p0387eb1455)" d="M 207.055395 122.087248 
L 207.055395 95.343899 
" style="fill:none;stroke:#1f77b4;stroke-width:1.5;"/>
    <path clip-path="url(#p0387eb1455)" d="M 158.932748 93.769691 
L 158.932748 67.026342 
" style="fill:none;stroke:#1f77b4;stroke-width:1.5;"/>
    <path clip-path="url(#p0387eb1455)" d="M 268.581098 237.555309 
L 268.581098 210.81196 
" style="fill:none;stroke:#1f77b4;stroke-width:1.5;"/>
    <path clip-path="url(#p0387eb1455)" d="M 107.041636 181.310881 
L 107.041636 154.567532 
" style="fill:none;stroke:#1f77b4;stroke-width:1.5;"/>
    <path clip-path="url(#p0387eb1455)" d="M 159.245837 46.039349 
L 159.245837 19.296 
" style="fill:none;stroke:#1f77b4;stroke-width:1.5;"/>
    <path clip-path="url(#p0387eb1455)" d="M 184.626967 63.430909 
L 184.626967 36.687561 
" style="fill:none;stroke:#1f77b4;stroke-width:1.5;"/>
    <path clip-path="url(#p0387eb1455)" d="M 215.305759 106.39392 
L 215.305759 79.650571 
" style="fill:none;stroke:#1f77b4;stroke-width:1.5;"/>
    <path clip-path="url(#p0387eb1455)" d="M 327.854898 141.877586 
L 327.854898 115.134237 
" style="fill:none;stroke:#1f77b4;stroke-width:1.5;"/>
    <path clip-path="url(#p0387eb1455)" d="M 127.622235 157.831598 
L 127.622235 131.088249 
" style="fill:none;stroke:#1f77b4;stroke-width:1.5;"/>
    <path clip-path="url(#p0387eb1455)" d="M 235.1971 183.747283 
L 235.1971 157.003934 
" style="fill:none;stroke:#1f77b4;stroke-width:1.5;"/>
    <path clip-path="url(#p0387eb1455)" d="M 261.933492 225.558072 
L 261.933492 198.814723 
" style="fill:none;stroke:#1f77b4;stroke-width:1.5;"/>
    <path clip-path="url(#p0387eb1455)" d="M 75.22222 234.583052 
L 75.22222 207.839703 
" style="fill:none;stroke:#1f77b4;stroke-width:1.5;"/>
    <path clip-path="url(#p0387eb1455)" d="M 267.107814 261.216 
L 267.107814 234.472651 
" style="fill:none;stroke:#1f77b4;stroke-width:1.5;"/>
    <path clip-path="url(#p0387eb1455)" d="M 117.653505 164.243101 
L 117.653505 137.499752 
" style="fill:none;stroke:#1f77b4;stroke-width:1.5;"/>
    <path clip-path="url(#p0387eb1455)" d="M 81.583535 249.458796 
L 81.583535 222.715447 
" style="fill:none;stroke:#1f77b4;stroke-width:1.5;"/>
    <path clip-path="url(#p0387eb1455)" d="M 383.841033 59.238411 
L 383.841033 32.495062 
" style="fill:none;stroke:#1f77b4;stroke-width:1.5;"/>
    <path clip-path="url(#p0387eb1455)" d="M 389.568075 72.083186 
L 389.568075 45.339837 
" style="fill:none;stroke:#1f77b4;stroke-width:1.5;"/>
    <path clip-path="url(#p0387eb1455)" d="M 335.796252 115.301112 
L 335.796252 88.557763 
" style="fill:none;stroke:#1f77b4;stroke-width:1.5;"/>
    <path clip-path="url(#p0387eb1455)" d="M 163.510083 68.730816 
L 163.510083 41.987467 
" style="fill:none;stroke:#1f77b4;stroke-width:1.5;"/>
    <path clip-path="url(#p0387eb1455)" d="M 92.739247 233.988613 
L 92.739247 207.245264 
" style="fill:none;stroke:#1f77b4;stroke-width:1.5;"/>
    <path clip-path="url(#p0387eb1455)" d="M 293.33398 212.855305 
L 293.33398 186.111956 
" style="fill:none;stroke:#1f77b4;stroke-width:1.5;"/>
    <path clip-path="url(#p0387eb1455)" d="M 209.862224 100.708279 
L 209.862224 73.96493 
" style="fill:none;stroke:#1f77b4;stroke-width:1.5;"/>
    <path clip-path="url(#p0387eb1455)" d="M 101.072083 217.684121 
L 101.072083 190.940772 
" style="fill:none;stroke:#1f77b4;stroke-width:1.5;"/>
    <path clip-path="url(#p0387eb1455)" d="M 228.679721 158.883664 
L 228.679721 132.140315 
" style="fill:none;stroke:#1f77b4;stroke-width:1.5;"/>
    <path clip-path="url(#p0387eb1455)" d="M 71.09724 240.667501 
L 71.09724 213.924152 
" style="fill:none;stroke:#1f77b4;stroke-width:1.5;"/>
    <path clip-path="url(#p0387eb1455)" d="M 370.310371 68.781743 
L 370.310371 42.038394 
" style="fill:none;stroke:#1f77b4;stroke-width:1.5;"/>
    <path clip-path="url(#p0387eb1455)" d="M 147.835639 86.011477 
L 147.835639 59.268128 
" style="fill:none;stroke:#1f77b4;stroke-width:1.5;"/>
    <path clip-path="url(#p0387eb1455)" d="M 285.909243 237.766139 
L 285.909243 211.02279 
" style="fill:none;stroke:#1f77b4;stroke-width:1.5;"/>
    <path clip-path="url(#p0387eb1455)" d="M 165.937252 67.530888 
L 165.937252 40.787539 
" style="fill:none;stroke:#1f77b4;stroke-width:1.5;"/>
    <path clip-path="url(#p0387eb1455)" d="M 237.192095 204.055234 
L 237.192095 177.311885 
" style="fill:none;stroke:#1f77b4;stroke-width:1.5;"/>
    <path clip-path="url(#p0387eb1455)" d="M 246.303334 182.281246 
L 246.303334 155.537897 
" style="fill:none;stroke:#1f77b4;stroke-width:1.5;"/>
    <path clip-path="url(#p0387eb1455)" d="M 122.554256 148.85518 
L 122.554256 122.111831 
" style="fill:none;stroke:#1f77b4;stroke-width:1.5;"/>
   </g>
   <g id="line2d_15">
    <defs>
     <path d="M 0 3 
C 0.795609 3 1.55874 2.683901 2.12132 2.12132 
C 2.683901 1.55874 3 0.795609 3 0 
C 3 -0.795609 2.683901 -1.55874 2.12132 -2.12132 
C 1.55874 -2.683901 0.795609 -3 0 -3 
C -0.795609 -3 -1.55874 -2.683901 -2.12132 -2.12132 
C -2.683901 -1.55874 -3 -0.795609 -3 0 
C -3 0.795609 -2.683901 1.55874 -2.12132 2.12132 
C -1.55874 2.683901 -0.795609 3 0 3 
z
" id="m5f52256bf5" style="stroke:#1f77b4;"/>
    </defs>
    <g clip-path="url(#p0387eb1455)">
     <use style="fill:#1f77b4;stroke:#1f77b4;" x="187.42381" xlink:href="#m5f52256bf5" y="74.831959"/>
     <use style="fill:#1f77b4;stroke:#1f77b4;" x="384.466444" xlink:href="#m5f52256bf5" y="38.574082"/>
     <use style="fill:#1f77b4;stroke:#1f77b4;" x="309.667472" xlink:href="#m5f52256bf5" y="156.186491"/>
     <use style="fill:#1f77b4;stroke:#1f77b4;" x="264.068814" xlink:href="#m5f52256bf5" y="228.805125"/>
     <use style="fill:#1f77b4;stroke:#1f77b4;" x="112.692854" xlink:href="#m5f52256bf5" y="142.404559"/>
     <use style="fill:#1f77b4;stroke:#1f77b4;" x="112.684606" xlink:href="#m5f52256bf5" y="161.62114"/>
     <use style="fill:#1f77b4;stroke:#1f77b4;" x="79.200594" xlink:href="#m5f52256bf5" y="204.097798"/>
     <use style="fill:#1f77b4;stroke:#1f77b4;" x="355.555704" xlink:href="#m5f52256bf5" y="51.526665"/>
     <use style="fill:#1f77b4;stroke:#1f77b4;" x="264.908908" xlink:href="#m5f52256bf5" y="191.710978"/>
     <use style="fill:#1f77b4;stroke:#1f77b4;" x="301.486737" xlink:href="#m5f52256bf5" y="157.852728"/>
     <use style="fill:#1f77b4;stroke:#1f77b4;" x="66.376477" xlink:href="#m5f52256bf5" y="221.01194"/>
     <use style="fill:#1f77b4;stroke:#1f77b4;" x="391.031023" xlink:href="#m5f52256bf5" y="53.253987"/>
     <use style="fill:#1f77b4;stroke:#1f77b4;" x="344.019369" xlink:href="#m5f52256bf5" y="62.268838"/>
     <use style="fill:#1f77b4;stroke:#1f77b4;" x="131.953581" xlink:href="#m5f52256bf5" y="91.400702"/>
     <use style="fill:#1f77b4;stroke:#1f77b4;" x="121.518218" xlink:href="#m5f52256bf5" y="151.777194"/>
     <use style="fill:#1f77b4;stroke:#1f77b4;" x="122.058397" xlink:href="#m5f52256bf5" y="128.179332"/>
     <use style="fill:#1f77b4;stroke:#1f77b4;" x="163.383027" xlink:href="#m5f52256bf5" y="34.439776"/>
     <use style="fill:#1f77b4;stroke:#1f77b4;" x="238.795459" xlink:href="#m5f52256bf5" y="202.105019"/>
     <use style="fill:#1f77b4;stroke:#1f77b4;" x="207.055395" xlink:href="#m5f52256bf5" y="108.715573"/>
     <use style="fill:#1f77b4;stroke:#1f77b4;" x="158.932748" xlink:href="#m5f52256bf5" y="80.398016"/>
     <use style="fill:#1f77b4;stroke:#1f77b4;" x="268.581098" xlink:href="#m5f52256bf5" y="224.183635"/>
     <use style="fill:#1f77b4;stroke:#1f77b4;" x="107.041636" xlink:href="#m5f52256bf5" y="167.939207"/>
     <use style="fill:#1f77b4;stroke:#1f77b4;" x="159.245837" xlink:href="#m5f52256bf5" y="32.667674"/>
     <use style="fill:#1f77b4;stroke:#1f77b4;" x="184.626967" xlink:href="#m5f52256bf5" y="50.059235"/>
     <use style="fill:#1f77b4;stroke:#1f77b4;" x="215.305759" xlink:href="#m5f52256bf5" y="93.022245"/>
     <use style="fill:#1f77b4;stroke:#1f77b4;" x="327.854898" xlink:href="#m5f52256bf5" y="128.505911"/>
     <use style="fill:#1f77b4;stroke:#1f77b4;" x="127.622235" xlink:href="#m5f52256bf5" y="144.459924"/>
     <use style="fill:#1f77b4;stroke:#1f77b4;" x="235.1971" xlink:href="#m5f52256bf5" y="170.375609"/>
     <use style="fill:#1f77b4;stroke:#1f77b4;" x="261.933492" xlink:href="#m5f52256bf5" y="212.186398"/>
     <use style="fill:#1f77b4;stroke:#1f77b4;" x="75.22222" xlink:href="#m5f52256bf5" y="221.211377"/>
     <use style="fill:#1f77b4;stroke:#1f77b4;" x="267.107814" xlink:href="#m5f52256bf5" y="247.844326"/>
     <use style="fill:#1f77b4;stroke:#1f77b4;" x="117.653505" xlink:href="#m5f52256bf5" y="150.871427"/>
     <use style="fill:#1f77b4;stroke:#1f77b4;" x="81.583535" xlink:href="#m5f52256bf5" y="236.087122"/>
     <use style="fill:#1f77b4;stroke:#1f77b4;" x="383.841033" xlink:href="#m5f52256bf5" y="45.866737"/>
     <use style="fill:#1f77b4;stroke:#1f77b4;" x="389.568075" xlink:href="#m5f52256bf5" y="58.711512"/>
     <use style="fill:#1f77b4;stroke:#1f77b4;" x="335.796252" xlink:href="#m5f52256bf5" y="101.929438"/>
     <use style="fill:#1f77b4;stroke:#1f77b4;" x="163.510083" xlink:href="#m5f52256bf5" y="55.359142"/>
     <use style="fill:#1f77b4;stroke:#1f77b4;" x="92.739247" xlink:href="#m5f52256bf5" y="220.616938"/>
     <use style="fill:#1f77b4;stroke:#1f77b4;" x="293.33398" xlink:href="#m5f52256bf5" y="199.48363"/>
     <use style="fill:#1f77b4;stroke:#1f77b4;" x="209.862224" xlink:href="#m5f52256bf5" y="87.336605"/>
     <use style="fill:#1f77b4;stroke:#1f77b4;" x="101.072083" xlink:href="#m5f52256bf5" y="204.312447"/>
     <use style="fill:#1f77b4;stroke:#1f77b4;" x="228.679721" xlink:href="#m5f52256bf5" y="145.511989"/>
     <use style="fill:#1f77b4;stroke:#1f77b4;" x="71.09724" xlink:href="#m5f52256bf5" y="227.295827"/>
     <use style="fill:#1f77b4;stroke:#1f77b4;" x="370.310371" xlink:href="#m5f52256bf5" y="55.410068"/>
     <use style="fill:#1f77b4;stroke:#1f77b4;" x="147.835639" xlink:href="#m5f52256bf5" y="72.639802"/>
     <use style="fill:#1f77b4;stroke:#1f77b4;" x="285.909243" xlink:href="#m5f52256bf5" y="224.394465"/>
     <use style="fill:#1f77b4;stroke:#1f77b4;" x="165.937252" xlink:href="#m5f52256bf5" y="54.159213"/>
     <use style="fill:#1f77b4;stroke:#1f77b4;" x="237.192095" xlink:href="#m5f52256bf5" y="190.683559"/>
     <use style="fill:#1f77b4;stroke:#1f77b4;" x="246.303334" xlink:href="#m5f52256bf5" y="168.909572"/>
     <use style="fill:#1f77b4;stroke:#1f77b4;" x="122.554256" xlink:href="#m5f52256bf5" y="135.483506"/>
    </g>
   </g>
   <g id="patch_3">
    <path d="M 50.14375 273.312 
L 50.14375 7.2 
" style="fill:none;stroke:#000000;stroke-linecap:square;stroke-linejoin:miter;stroke-width:0.8;"/>
   </g>
   <g id="patch_4">
    <path d="M 407.26375 273.312 
L 407.26375 7.2 
" style="fill:none;stroke:#000000;stroke-linecap:square;stroke-linejoin:miter;stroke-width:0.8;"/>
   </g>
   <g id="patch_5">
    <path d="M 50.14375 273.312 
L 407.26375 273.312 
" style="fill:none;stroke:#000000;stroke-linecap:square;stroke-linejoin:miter;stroke-width:0.8;"/>
   </g>
   <g id="patch_6">
    <path d="M 50.14375 7.2 
L 407.26375 7.2 
" style="fill:none;stroke:#000000;stroke-linecap:square;stroke-linejoin:miter;stroke-width:0.8;"/>
   </g>
  </g>
 </g>
 <defs>
  <clipPath id="p0387eb1455">
   <rect height="266.112" width="357.12" x="50.14375" y="7.2"/>
  </clipPath>
 </defs>
</svg>
