<?xml version="1.0" encoding="utf-8" standalone="no"?>
<!DOCTYPE svg PUBLIC "-//W3C//DTD SVG 1.1//EN"
  "http://www.w3.org/Graphics/SVG/1.1/DTD/svg11.dtd">
<!-- Created with matplotlib (https://matplotlib.org/) -->
<svg height="310.86825pt" version="1.1" viewBox="0 0 391.245 310.86825" width="391.245pt" xmlns="http://www.w3.org/2000/svg" xmlns:xlink="http://www.w3.org/1999/xlink">
 <metadata>
  <rdf:RDF xmlns:cc="http://creativecommons.org/ns#" xmlns:dc="http://purl.org/dc/elements/1.1/" xmlns:rdf="http://www.w3.org/1999/02/22-rdf-syntax-ns#">
   <cc:Work>
    <dc:type rdf:resource="http://purl.org/dc/dcmitype/StillImage"/>
    <dc:date>2021-03-12T12:21:23.970024</dc:date>
    <dc:format>image/svg+xml</dc:format>
    <dc:creator>
     <cc:Agent>
      <dc:title>Matplotlib v3.3.2, https://matplotlib.org/</dc:title>
     </cc:Agent>
    </dc:creator>
   </cc:Work>
  </rdf:RDF>
 </metadata>
 <defs>
  <style type="text/css">*{stroke-linecap:butt;stroke-linejoin:round;}</style>
 </defs>
 <g id="figure_1">
  <g id="patch_1">
   <path d="M 0 310.86825 
L 391.245 310.86825 
L 391.245 0 
L 0 0 
z
" style="fill:#ffffff;"/>
  </g>
  <g id="axes_1">
   <g id="patch_2">
    <path d="M 26.925 273.312 
L 384.045 273.312 
L 384.045 7.2 
L 26.925 7.2 
z
" style="fill:#ffffff;"/>
   </g>
   <g id="PolyCollection_1">
    <path clip-path="url(#p91ca1e58a8)" d="M 232.726924 254.643644 
L 232.726924 255.055725 
L 233.87684 255.109615 
L 235.026757 255.174643 
L 236.176673 255.25177 
L 237.326589 255.341487 
L 238.476506 255.443689 
L 239.626422 255.557623 
L 240.776339 255.68191 
L 241.926255 255.81465 
L 243.076171 255.9536 
L 244.226088 256.096373 
L 245.376004 256.24066 
L 246.525921 256.38441 
L 247.675837 256.525965 
L 248.825753 256.664128 
L 249.97567 256.798166 
L 251.125586 256.927757 
L 252.275502 257.052885 
L 253.425419 257.173717 
L 254.575335 257.290478 
L 255.725252 257.403348 
L 256.875168 257.512402 
L 258.025084 257.617618 
L 259.175001 257.718935 
L 260.324917 257.816363 
L 261.474834 257.910113 
L 262.62475 258.000714 
L 263.774666 258.089072 
L 264.924583 258.176466 
L 266.074499 258.264472 
L 267.224416 258.354835 
L 268.374332 258.449324 
L 269.524248 258.54961 
L 270.674165 258.657178 
L 271.824081 258.773298 
L 272.973997 258.899004 
L 274.123914 259.035085 
L 275.27383 259.182025 
L 276.423747 259.339893 
L 277.573663 259.508188 
L 278.723579 259.68567 
L 279.873496 259.870227 
L 281.023412 260.058835 
L 282.173329 260.247627 
L 283.323245 260.432088 
L 284.473161 260.607333 
L 285.623078 260.768417 
L 286.772994 260.910633 
L 287.922911 261.029741 
L 289.072827 261.122125 
L 290.222743 261.184902 
L 291.37266 261.216 
L 292.522576 261.21424 
L 293.672492 261.179426 
L 294.822409 261.112415 
L 295.972325 261.015118 
L 297.122242 260.890398 
L 298.272158 260.741829 
L 299.422074 260.573345 
L 300.571991 260.388838 
L 301.721907 260.191791 
L 302.871824 259.985032 
L 304.02174 259.770663 
L 305.171656 259.550175 
L 306.321573 259.324696 
L 307.471489 259.09528 
L 308.621406 258.863172 
L 309.771322 258.629931 
L 310.921238 258.397418 
L 312.071155 258.167638 
L 313.221071 257.942505 
L 314.370987 257.72361 
L 315.520904 257.512061 
L 316.67082 257.308439 
L 317.820737 257.112894 
L 318.970653 256.925331 
L 320.120569 256.745646 
L 321.270486 256.573928 
L 322.420402 256.410589 
L 323.570319 256.256371 
L 324.720235 256.112244 
L 325.870151 255.979212 
L 327.020068 255.858085 
L 328.169984 255.749265 
L 329.319901 255.652605 
L 330.469817 255.567377 
L 331.619733 255.492346 
L 332.76965 255.425944 
L 333.919566 255.366503 
L 335.069482 255.312486 
L 336.219399 255.262675 
L 337.369315 255.21627 
L 338.519232 255.172902 
L 339.669148 255.132543 
L 340.819064 255.095371 
L 341.968981 255.061617 
L 343.118897 255.031431 
L 344.268814 255.004806 
L 345.41873 254.981557 
L 346.568646 254.961356 
L 346.568646 254.738013 
L 346.568646 254.738013 
L 345.41873 254.717811 
L 344.268814 254.694563 
L 343.118897 254.667938 
L 341.968981 254.637752 
L 340.819064 254.603997 
L 339.669148 254.566825 
L 338.519232 254.526466 
L 337.369315 254.483098 
L 336.219399 254.436694 
L 335.069482 254.386882 
L 333.919566 254.332865 
L 332.76965 254.273425 
L 331.619733 254.207023 
L 330.469817 254.131991 
L 329.319901 254.046763 
L 328.169984 253.950103 
L 327.020068 253.841283 
L 325.870151 253.720156 
L 324.720235 253.587124 
L 323.570319 253.442997 
L 322.420402 253.288779 
L 321.270486 253.12544 
L 320.120569 252.953722 
L 318.970653 252.774037 
L 317.820737 252.586475 
L 316.67082 252.39093 
L 315.520904 252.187307 
L 314.370987 251.975758 
L 313.221071 251.756864 
L 312.071155 251.531731 
L 310.921238 251.30195 
L 309.771322 251.069437 
L 308.621406 250.836196 
L 307.471489 250.604088 
L 306.321573 250.374673 
L 305.171656 250.149193 
L 304.02174 249.928706 
L 302.871824 249.714337 
L 301.721907 249.507577 
L 300.571991 249.31053 
L 299.422074 249.126024 
L 298.272158 248.95754 
L 297.122242 248.80897 
L 295.972325 248.68425 
L 294.822409 248.586954 
L 293.672492 248.519942 
L 292.522576 248.485129 
L 291.37266 248.483368 
L 290.222743 248.514466 
L 289.072827 248.577243 
L 287.922911 248.669627 
L 286.772994 248.788735 
L 285.623078 248.930952 
L 284.473161 249.092036 
L 283.323245 249.26728 
L 282.173329 249.451741 
L 281.023412 249.640533 
L 279.873496 249.829141 
L 278.723579 250.013699 
L 277.573663 250.19118 
L 276.423747 250.359476 
L 275.27383 250.517344 
L 274.123914 250.664284 
L 272.973997 250.800365 
L 271.824081 250.926071 
L 270.674165 251.04219 
L 269.524248 251.149759 
L 268.374332 251.250044 
L 267.224416 251.344534 
L 266.074499 251.434896 
L 264.924583 251.522902 
L 263.774666 251.610296 
L 262.62475 251.698654 
L 261.474834 251.789255 
L 260.324917 251.883006 
L 259.175001 251.980433 
L 258.025084 252.08175 
L 256.875168 252.186966 
L 255.725252 252.296021 
L 254.575335 252.40889 
L 253.425419 252.525651 
L 252.275502 252.646483 
L 251.125586 252.771611 
L 249.97567 252.901202 
L 248.825753 253.035241 
L 247.675837 253.173403 
L 246.525921 253.314958 
L 245.376004 253.458708 
L 244.226088 253.602996 
L 243.076171 253.745769 
L 241.926255 253.884718 
L 240.776339 254.017459 
L 239.626422 254.141745 
L 238.476506 254.25568 
L 237.326589 254.357882 
L 236.176673 254.447598 
L 235.026757 254.524726 
L 233.87684 254.589754 
L 232.726924 254.643644 
z
" style="fill:#1f77b4;fill-opacity:0.3;"/>
   </g>
   <g id="PolyCollection_2">
    <path clip-path="url(#p91ca1e58a8)" d="M 110.127409 229.240289 
L 110.127409 229.528553 
L 112.730286 229.549623 
L 115.333164 229.570421 
L 117.936041 229.590282 
L 120.538918 229.608573 
L 123.141796 229.62479 
L 125.744673 229.638666 
L 128.347551 229.650293 
L 130.950428 229.660217 
L 133.553305 229.669503 
L 136.156183 229.679709 
L 138.75906 229.692797 
L 141.361938 229.710957 
L 143.964815 229.736378 
L 146.567692 229.771005 
L 149.17057 229.816304 
L 151.773447 229.873099 
L 154.376325 229.94148 
L 156.979202 230.020811 
L 159.58208 230.109827 
L 162.184957 230.206814 
L 164.787834 230.309826 
L 167.390712 230.416936 
L 169.993589 230.526462 
L 172.596467 230.637148 
L 175.199344 230.748269 
L 177.802221 230.859654 
L 180.405099 230.97162 
L 183.007976 231.084842 
L 185.610854 231.200192 
L 188.213731 231.318563 
L 190.816609 231.440719 
L 193.419486 231.567189 
L 196.022363 231.6982 
L 198.625241 231.833667 
L 201.228118 231.973222 
L 203.830996 232.116291 
L 206.433873 232.262212 
L 209.03675 232.410391 
L 211.639628 232.560484 
L 214.242505 232.712588 
L 216.845383 232.867399 
L 219.44826 233.026292 
L 222.051138 233.191284 
L 224.654015 233.364823 
L 227.256892 233.549402 
L 229.85977 233.747021 
L 232.462647 233.958552 
L 235.065525 234.183128 
L 237.668402 234.417687 
L 240.271279 234.656799 
L 242.874157 234.892874 
L 245.477034 235.116772 
L 248.079912 235.318738 
L 250.682789 235.489518 
L 253.285666 235.621451 
L 255.888544 235.709311 
L 258.491421 235.750737 
L 261.094299 235.746181 
L 263.697176 235.698395 
L 266.300054 235.611614 
L 268.902931 235.490633 
L 271.505808 235.34001 
L 274.108686 235.16357 
L 276.711563 234.964308 
L 279.314441 234.74466 
L 281.917318 234.507031 
L 284.520195 234.254373 
L 287.123073 233.990624 
L 289.72595 233.720847 
L 292.328828 233.450999 
L 294.931705 233.187375 
L 297.534583 232.935855 
L 300.13746 232.701152 
L 302.740337 232.486245 
L 305.343215 232.292134 
L 307.946092 232.117963 
L 310.54897 231.961462 
L 313.151847 231.819583 
L 315.754724 231.689154 
L 318.357602 231.567405 
L 320.960479 231.452264 
L 323.563357 231.342393 
L 326.166234 231.237023 
L 328.769112 231.135681 
L 331.371989 231.037927 
L 333.974866 230.943179 
L 336.577744 230.850684 
L 339.180621 230.759607 
L 341.783499 230.669186 
L 344.386376 230.578897 
L 346.989253 230.48855 
L 349.592131 230.398305 
L 352.195008 230.308607 
L 354.797886 230.220075 
L 357.400763 230.133382 
L 360.00364 230.049184 
L 362.606518 229.968086 
L 365.209395 229.890657 
L 367.812273 229.817467 
L 367.812273 228.951375 
L 367.812273 228.951375 
L 365.209395 228.878185 
L 362.606518 228.800756 
L 360.00364 228.719658 
L 357.400763 228.63546 
L 354.797886 228.548768 
L 352.195008 228.460235 
L 349.592131 228.370537 
L 346.989253 228.280292 
L 344.386376 228.189945 
L 341.783499 228.099656 
L 339.180621 228.009235 
L 336.577744 227.918158 
L 333.974866 227.825663 
L 331.371989 227.730915 
L 328.769112 227.633161 
L 326.166234 227.531819 
L 323.563357 227.426449 
L 320.960479 227.316578 
L 318.357602 227.201437 
L 315.754724 227.079688 
L 313.151847 226.949259 
L 310.54897 226.80738 
L 307.946092 226.650879 
L 305.343215 226.476708 
L 302.740337 226.282597 
L 300.13746 226.06769 
L 297.534583 225.832987 
L 294.931705 225.581467 
L 292.328828 225.317843 
L 289.72595 225.047995 
L 287.123073 224.778218 
L 284.520195 224.514469 
L 281.917318 224.261811 
L 279.314441 224.024182 
L 276.711563 223.804535 
L 274.108686 223.605272 
L 271.505808 223.428832 
L 268.902931 223.278209 
L 266.300054 223.157228 
L 263.697176 223.070447 
L 261.094299 223.022662 
L 258.491421 223.018105 
L 255.888544 223.059531 
L 253.285666 223.147391 
L 250.682789 223.279324 
L 248.079912 223.450104 
L 245.477034 223.65207 
L 242.874157 223.875968 
L 240.271279 224.112044 
L 237.668402 224.351155 
L 235.065525 224.585714 
L 232.462647 224.81029 
L 229.85977 225.021822 
L 227.256892 225.21944 
L 224.654015 225.40402 
L 222.051138 225.577558 
L 219.44826 225.74255 
L 216.845383 225.901444 
L 214.242505 226.056254 
L 211.639628 226.208358 
L 209.03675 226.358451 
L 206.433873 226.50663 
L 203.830996 226.652551 
L 201.228118 226.795621 
L 198.625241 226.935175 
L 196.022363 227.070642 
L 193.419486 227.201653 
L 190.816609 227.328123 
L 188.213731 227.450279 
L 185.610854 227.56865 
L 183.007976 227.684 
L 180.405099 227.797222 
L 177.802221 227.909188 
L 175.199344 228.020573 
L 172.596467 228.131694 
L 169.993589 228.24238 
L 167.390712 228.351906 
L 164.787834 228.459016 
L 162.184957 228.562028 
L 159.58208 228.659015 
L 156.979202 228.748031 
L 154.376325 228.827362 
L 151.773447 228.895743 
L 149.17057 228.952538 
L 146.567692 228.997837 
L 143.964815 229.032464 
L 141.361938 229.057885 
L 138.75906 229.076045 
L 136.156183 229.089133 
L 133.553305 229.099339 
L 130.950428 229.108625 
L 128.347551 229.11855 
L 125.744673 229.130176 
L 123.141796 229.144052 
L 120.538918 229.160269 
L 117.936041 229.17856 
L 115.333164 229.198421 
L 112.730286 229.219219 
L 110.127409 229.240289 
z
" style="fill:#1f77b4;fill-opacity:0.3;"/>
   </g>
   <g id="PolyCollection_3">
    <path clip-path="url(#p91ca1e58a8)" d="M 196.090382 203.798683 
L 196.090382 204.039633 
L 197.41358 204.061406 
L 198.736778 204.086965 
L 200.059976 204.118099 
L 201.383174 204.157038 
L 202.706372 204.206254 
L 204.029569 204.268204 
L 205.352767 204.345054 
L 206.675965 204.438435 
L 207.999163 204.549289 
L 209.322361 204.677819 
L 210.645559 204.823554 
L 211.968757 204.985495 
L 213.291955 205.162306 
L 214.615152 205.352478 
L 215.93835 205.554454 
L 217.261548 205.766695 
L 218.584746 205.987727 
L 219.907944 206.216224 
L 221.231142 206.451155 
L 222.55434 206.691983 
L 223.877538 206.938831 
L 225.200735 207.192498 
L 226.523933 207.45422 
L 227.847131 207.725152 
L 229.170329 208.005669 
L 230.493527 208.294664 
L 231.816725 208.589066 
L 233.139923 208.883693 
L 234.463121 209.171509 
L 235.786319 209.44414 
L 237.109516 209.692537 
L 238.432714 209.907624 
L 239.755912 210.080891 
L 241.07911 210.204962 
L 242.402308 210.274213 
L 243.725506 210.285474 
L 245.048704 210.238771 
L 246.371902 210.13795 
L 247.695099 209.990941 
L 249.018297 209.809468 
L 250.341495 209.608067 
L 251.664693 209.402476 
L 252.987891 209.207632 
L 254.311089 209.03568 
L 255.634287 208.894424 
L 256.957485 208.786596 
L 258.280682 208.710095 
L 259.60388 208.659094 
L 260.927078 208.625696 
L 262.250276 208.60166 
L 263.573474 208.579765 
L 264.896672 208.554501 
L 266.21987 208.522037 
L 267.543068 208.479602 
L 268.866266 208.424628 
L 270.189463 208.354022 
L 271.512661 208.263876 
L 272.835859 208.149758 
L 274.159057 208.007496 
L 275.482255 207.834223 
L 276.805453 207.629316 
L 278.128651 207.394948 
L 279.451849 207.136069 
L 280.775046 206.859862 
L 282.098244 206.57481 
L 283.421442 206.289667 
L 284.74464 206.012517 
L 286.067838 205.750106 
L 287.391036 205.507466 
L 288.714234 205.287816 
L 290.037432 205.092675 
L 291.36063 204.9221 
L 292.683827 204.775001 
L 294.007025 204.649484 
L 295.330223 204.543189 
L 296.653421 204.453585 
L 297.976619 204.37821 
L 299.299817 204.314838 
L 300.623015 204.261563 
L 301.946213 204.216818 
L 303.26941 204.17934 
L 304.592608 204.148097 
L 305.915806 204.122207 
L 307.239004 204.100869 
L 308.562202 204.083319 
L 309.8854 204.068813 
L 311.208598 204.05665 
L 312.531796 204.046213 
L 313.854993 204.037021 
L 315.178191 204.02876 
L 316.501389 204.021298 
L 317.824587 204.014641 
L 319.147785 204.008863 
L 320.470983 204.004005 
L 321.794181 203.999985 
L 323.117379 203.99655 
L 324.440577 203.993293 
L 325.763774 203.98973 
L 327.086972 203.985417 
L 327.086972 203.852899 
L 327.086972 203.852899 
L 325.763774 203.848586 
L 324.440577 203.845022 
L 323.117379 203.841766 
L 321.794181 203.838331 
L 320.470983 203.834311 
L 319.147785 203.829453 
L 317.824587 203.823675 
L 316.501389 203.817018 
L 315.178191 203.809556 
L 313.854993 203.801295 
L 312.531796 203.792103 
L 311.208598 203.781666 
L 309.8854 203.769503 
L 308.562202 203.754997 
L 307.239004 203.737447 
L 305.915806 203.716109 
L 304.592608 203.690219 
L 303.26941 203.658976 
L 301.946213 203.621498 
L 300.623015 203.576753 
L 299.299817 203.523478 
L 297.976619 203.460106 
L 296.653421 203.384731 
L 295.330223 203.295127 
L 294.007025 203.188832 
L 292.683827 203.063315 
L 291.36063 202.916216 
L 290.037432 202.74564 
L 288.714234 202.5505 
L 287.391036 202.33085 
L 286.067838 202.088209 
L 284.74464 201.825798 
L 283.421442 201.548649 
L 282.098244 201.263505 
L 280.775046 200.978454 
L 279.451849 200.702246 
L 278.128651 200.443368 
L 276.805453 200.208999 
L 275.482255 200.004093 
L 274.159057 199.83082 
L 272.835859 199.688558 
L 271.512661 199.574439 
L 270.189463 199.484294 
L 268.866266 199.413688 
L 267.543068 199.358713 
L 266.21987 199.316278 
L 264.896672 199.283814 
L 263.573474 199.258551 
L 262.250276 199.236656 
L 260.927078 199.21262 
L 259.60388 199.179222 
L 258.280682 199.128221 
L 256.957485 199.051719 
L 255.634287 198.943892 
L 254.311089 198.802636 
L 252.987891 198.630683 
L 251.664693 198.43584 
L 250.341495 198.230248 
L 249.018297 198.028848 
L 247.695099 197.847375 
L 246.371902 197.700366 
L 245.048704 197.599544 
L 243.725506 197.552842 
L 242.402308 197.564103 
L 241.07911 197.633354 
L 239.755912 197.757425 
L 238.432714 197.930692 
L 237.109516 198.145779 
L 235.786319 198.394176 
L 234.463121 198.666807 
L 233.139923 198.954622 
L 231.816725 199.24925 
L 230.493527 199.543651 
L 229.170329 199.832647 
L 227.847131 200.113163 
L 226.523933 200.384095 
L 225.200735 200.645817 
L 223.877538 200.899485 
L 222.55434 201.146333 
L 221.231142 201.387161 
L 219.907944 201.622092 
L 218.584746 201.850589 
L 217.261548 202.071621 
L 215.93835 202.283862 
L 214.615152 202.485838 
L 213.291955 202.67601 
L 211.968757 202.852821 
L 210.645559 203.014762 
L 209.322361 203.160497 
L 207.999163 203.289027 
L 206.675965 203.399881 
L 205.352767 203.493262 
L 204.029569 203.570111 
L 202.706372 203.632062 
L 201.383174 203.681278 
L 200.059976 203.720217 
L 198.736778 203.751351 
L 197.41358 203.77691 
L 196.090382 203.798683 
z
" style="fill:#1f77b4;fill-opacity:0.3;"/>
   </g>
   <g id="PolyCollection_4">
    <path clip-path="url(#p91ca1e58a8)" d="M 251.48612 178.206327 
L 251.48612 178.701462 
L 251.98833 178.739044 
L 252.490539 178.780657 
L 252.992749 178.827442 
L 253.494959 178.88075 
L 253.997168 178.942017 
L 254.499378 179.012594 
L 255.001587 179.093566 
L 255.503797 179.185598 
L 256.006007 179.288816 
L 256.508216 179.40276 
L 257.010426 179.526414 
L 257.512636 179.658315 
L 258.014845 179.796718 
L 258.517055 179.939799 
L 259.019264 180.085858 
L 259.521474 180.233472 
L 260.023684 180.381602 
L 260.525893 180.529608 
L 261.028103 180.677212 
L 261.530312 180.824416 
L 262.032522 180.971421 
L 262.534732 181.118582 
L 263.036941 181.266413 
L 263.539151 181.415655 
L 264.041361 181.567367 
L 264.54357 181.722996 
L 265.04578 181.884374 
L 265.547989 182.053582 
L 266.050199 182.232679 
L 266.552409 182.423301 
L 267.054618 182.626209 
L 267.556828 182.840861 
L 268.059037 183.065119 
L 268.561247 183.295189 
L 269.063457 183.525828 
L 269.565666 183.75082 
L 270.067876 183.963659 
L 270.570086 184.158312 
L 271.072295 184.329916 
L 271.574505 184.47528 
L 272.076714 184.593088 
L 272.578924 184.683772 
L 273.081134 184.749128 
L 273.583343 184.791764 
L 274.085553 184.814555 
L 274.587762 184.820211 
L 275.089972 184.811052 
L 275.592182 184.788976 
L 276.094391 184.755551 
L 276.596601 184.712145 
L 277.098811 184.659982 
L 277.60102 184.600092 
L 278.10323 184.533181 
L 278.605439 184.45948 
L 279.107649 184.378685 
L 279.609859 184.290048 
L 280.112068 184.192629 
L 280.614278 184.085674 
L 281.116487 183.968986 
L 281.618697 183.843194 
L 282.120907 183.709808 
L 282.623116 183.571046 
L 283.125326 183.429448 
L 283.627536 183.287386 
L 284.129745 183.146577 
L 284.631955 183.007695 
L 285.134164 182.87017 
L 285.636374 182.732182 
L 286.138584 182.590855 
L 286.640793 182.442612 
L 287.143003 182.283646 
L 287.645212 182.110465 
L 288.147422 181.920451 
L 288.649632 181.712362 
L 289.151841 181.486705 
L 289.654051 181.245917 
L 290.15626 180.994274 
L 290.65847 180.737545 
L 291.16068 180.482409 
L 291.662889 180.235733 
L 292.165099 180.003825 
L 292.667309 179.791789 
L 293.169518 179.603088 
L 293.671728 179.439362 
L 294.173937 179.300506 
L 294.676147 179.184958 
L 295.178357 179.090116 
L 295.680566 179.012799 
L 296.182776 178.94967 
L 296.684985 178.897568 
L 297.187195 178.853726 
L 297.689405 178.815873 
L 298.191614 178.782253 
L 298.693824 178.751572 
L 299.196034 178.722926 
L 299.698243 178.695721 
L 300.200453 178.669609 
L 300.702662 178.644431 
L 301.204872 178.620184 
L 301.204872 178.287606 
L 301.204872 178.287606 
L 300.702662 178.263358 
L 300.200453 178.23818 
L 299.698243 178.212068 
L 299.196034 178.184864 
L 298.693824 178.156218 
L 298.191614 178.125536 
L 297.689405 178.091916 
L 297.187195 178.054064 
L 296.684985 178.010221 
L 296.182776 177.958119 
L 295.680566 177.89499 
L 295.178357 177.817673 
L 294.676147 177.722831 
L 294.173937 177.607283 
L 293.671728 177.468427 
L 293.169518 177.304701 
L 292.667309 177.116 
L 292.165099 176.903965 
L 291.662889 176.672056 
L 291.16068 176.425381 
L 290.65847 176.170245 
L 290.15626 175.913516 
L 289.654051 175.661872 
L 289.151841 175.421084 
L 288.649632 175.195428 
L 288.147422 174.987338 
L 287.645212 174.797324 
L 287.143003 174.624144 
L 286.640793 174.465178 
L 286.138584 174.316935 
L 285.636374 174.175608 
L 285.134164 174.03762 
L 284.631955 173.900094 
L 284.129745 173.761212 
L 283.627536 173.620403 
L 283.125326 173.478342 
L 282.623116 173.336743 
L 282.120907 173.197981 
L 281.618697 173.064596 
L 281.116487 172.938804 
L 280.614278 172.822116 
L 280.112068 172.715161 
L 279.609859 172.617742 
L 279.107649 172.529104 
L 278.605439 172.44831 
L 278.10323 172.374609 
L 277.60102 172.307698 
L 277.098811 172.247808 
L 276.596601 172.195644 
L 276.094391 172.152238 
L 275.592182 172.118814 
L 275.089972 172.096737 
L 274.587762 172.087579 
L 274.085553 172.093235 
L 273.583343 172.116025 
L 273.081134 172.158661 
L 272.578924 172.224017 
L 272.076714 172.314702 
L 271.574505 172.432509 
L 271.072295 172.577873 
L 270.570086 172.749477 
L 270.067876 172.94413 
L 269.565666 173.15697 
L 269.063457 173.381962 
L 268.561247 173.6126 
L 268.059037 173.842671 
L 267.556828 174.066929 
L 267.054618 174.28158 
L 266.552409 174.484489 
L 266.050199 174.675111 
L 265.547989 174.854207 
L 265.04578 175.023415 
L 264.54357 175.184793 
L 264.041361 175.340423 
L 263.539151 175.492135 
L 263.036941 175.641377 
L 262.534732 175.789208 
L 262.032522 175.936368 
L 261.530312 176.083374 
L 261.028103 176.230577 
L 260.525893 176.378181 
L 260.023684 176.526187 
L 259.521474 176.674317 
L 259.019264 176.821932 
L 258.517055 176.96799 
L 258.014845 177.111072 
L 257.512636 177.249474 
L 257.010426 177.381375 
L 256.508216 177.50503 
L 256.006007 177.618974 
L 255.503797 177.722192 
L 255.001587 177.814223 
L 254.499378 177.895196 
L 253.997168 177.965772 
L 253.494959 178.02704 
L 252.992749 178.080348 
L 252.490539 178.127132 
L 251.98833 178.168746 
L 251.48612 178.206327 
z
" style="fill:#1f77b4;fill-opacity:0.3;"/>
   </g>
   <g id="PolyCollection_5">
    <path clip-path="url(#p91ca1e58a8)" d="M 193.817147 152.873422 
L 193.817147 153.103841 
L 194.83386 153.109496 
L 195.850573 153.113921 
L 196.867285 153.118567 
L 197.883998 153.125394 
L 198.900711 153.136652 
L 199.917424 153.154606 
L 200.934136 153.181255 
L 201.950849 153.21809 
L 202.967562 153.265934 
L 203.984274 153.324877 
L 205.000987 153.394313 
L 206.0177 153.473067 
L 207.034413 153.559601 
L 208.051125 153.65226 
L 209.067838 153.749515 
L 210.084551 153.850183 
L 211.101263 153.953553 
L 212.117976 154.059406 
L 213.134689 154.167927 
L 214.151402 154.279536 
L 215.168114 154.394707 
L 216.184827 154.513851 
L 217.20154 154.637327 
L 218.218252 154.765579 
L 219.234965 154.899359 
L 220.251678 155.039924 
L 221.268391 155.18907 
L 222.285103 155.348917 
L 223.301816 155.521436 
L 224.318529 155.707825 
L 225.335242 155.907922 
L 226.351954 156.119882 
L 227.368667 156.340289 
L 228.38538 156.564734 
L 229.402092 156.78872 
L 230.418805 157.008629 
L 231.435518 157.222409 
L 232.452231 157.429754 
L 233.468943 157.631676 
L 234.485656 157.829617 
L 235.502369 158.024406 
L 236.519081 158.215431 
L 237.535794 158.400324 
L 238.552507 158.575273 
L 239.56922 158.735857 
L 240.585932 158.878115 
L 241.602645 158.999492 
L 242.619358 159.099363 
L 243.63607 159.178969 
L 244.652783 159.240833 
L 245.669496 159.287829 
L 246.686209 159.322216 
L 247.702921 159.344875 
L 248.719634 159.354947 
L 249.736347 159.349894 
L 250.75306 159.325914 
L 251.769772 159.278578 
L 252.786485 159.203535 
L 253.803198 159.097177 
L 254.81991 158.957206 
L 255.836623 158.78306 
L 256.853336 158.576171 
L 257.870049 158.340025 
L 258.886761 158.079955 
L 259.903474 157.802675 
L 260.920187 157.515566 
L 261.936899 157.225829 
L 262.953612 156.939681 
L 263.970325 156.661751 
L 264.987038 156.394833 
L 266.00375 156.140016 
L 267.020463 155.897149 
L 268.037176 155.665465 
L 269.053888 155.444191 
L 270.070601 155.232987 
L 271.087314 155.032123 
L 272.104027 154.84241 
L 273.120739 154.664958 
L 274.137452 154.500894 
L 275.154165 154.351113 
L 276.170877 154.216141 
L 277.18759 154.096103 
L 278.204303 153.990765 
L 279.221016 153.899586 
L 280.237728 153.821749 
L 281.254441 153.756152 
L 282.271154 153.701368 
L 283.287867 153.655621 
L 284.304579 153.616816 
L 285.321292 153.582639 
L 286.338005 153.550745 
L 287.354717 153.518984 
L 288.37143 153.485636 
L 289.388143 153.449593 
L 290.404856 153.41045 
L 291.421568 153.368484 
L 292.438281 153.324542 
L 293.454994 153.279853 
L 294.471706 153.235817 
L 294.471706 152.741446 
L 294.471706 152.741446 
L 293.454994 152.69741 
L 292.438281 152.652721 
L 291.421568 152.608779 
L 290.404856 152.566813 
L 289.388143 152.52767 
L 288.37143 152.491627 
L 287.354717 152.458279 
L 286.338005 152.426518 
L 285.321292 152.394624 
L 284.304579 152.360448 
L 283.287867 152.321642 
L 282.271154 152.275895 
L 281.254441 152.221111 
L 280.237728 152.155514 
L 279.221016 152.077678 
L 278.204303 151.986498 
L 277.18759 151.88116 
L 276.170877 151.761122 
L 275.154165 151.62615 
L 274.137452 151.476369 
L 273.120739 151.312305 
L 272.104027 151.134854 
L 271.087314 150.94514 
L 270.070601 150.744276 
L 269.053888 150.533072 
L 268.037176 150.311799 
L 267.020463 150.080114 
L 266.00375 149.837247 
L 264.987038 149.58243 
L 263.970325 149.315512 
L 262.953612 149.037582 
L 261.936899 148.751434 
L 260.920187 148.461698 
L 259.903474 148.174588 
L 258.886761 147.897308 
L 257.870049 147.637239 
L 256.853336 147.401092 
L 255.836623 147.194203 
L 254.81991 147.020057 
L 253.803198 146.880086 
L 252.786485 146.773729 
L 251.769772 146.698685 
L 250.75306 146.65135 
L 249.736347 146.627369 
L 248.719634 146.622316 
L 247.702921 146.632388 
L 246.686209 146.655047 
L 245.669496 146.689434 
L 244.652783 146.736431 
L 243.63607 146.798294 
L 242.619358 146.8779 
L 241.602645 146.977771 
L 240.585932 147.099149 
L 239.56922 147.241407 
L 238.552507 147.40199 
L 237.535794 147.576939 
L 236.519081 147.761832 
L 235.502369 147.952857 
L 234.485656 148.147646 
L 233.468943 148.345587 
L 232.452231 148.547509 
L 231.435518 148.754854 
L 230.418805 148.968635 
L 229.402092 149.188543 
L 228.38538 149.412529 
L 227.368667 149.636974 
L 226.351954 149.857381 
L 225.335242 150.069341 
L 224.318529 150.269438 
L 223.301816 150.455828 
L 222.285103 150.628346 
L 221.268391 150.788193 
L 220.251678 150.937339 
L 219.234965 151.077904 
L 218.218252 151.211684 
L 217.20154 151.339936 
L 216.184827 151.463412 
L 215.168114 151.582557 
L 214.151402 151.697727 
L 213.134689 151.809336 
L 212.117976 151.917857 
L 211.101263 152.02371 
L 210.084551 152.12708 
L 209.067838 152.227748 
L 208.051125 152.325004 
L 207.034413 152.417662 
L 206.0177 152.504196 
L 205.000987 152.58295 
L 203.984274 152.652386 
L 202.967562 152.711329 
L 201.950849 152.759174 
L 200.934136 152.796008 
L 199.917424 152.822657 
L 198.900711 152.840611 
L 197.883998 152.851869 
L 196.867285 152.858696 
L 195.850573 152.863342 
L 194.83386 152.867767 
L 193.817147 152.873422 
z
" style="fill:#1f77b4;fill-opacity:0.3;"/>
   </g>
   <g id="PolyCollection_6">
    <path clip-path="url(#p91ca1e58a8)" d="M 194.269759 127.334289 
L 194.269759 127.712448 
L 195.261147 127.740445 
L 196.252535 127.76765 
L 197.243922 127.794125 
L 198.23531 127.820677 
L 199.226698 127.848918 
L 200.218086 127.881195 
L 201.209474 127.920393 
L 202.200861 127.969612 
L 203.192249 128.031775 
L 204.183637 128.10921 
L 205.175025 128.203254 
L 206.166413 128.313959 
L 207.157801 128.439931 
L 208.149188 128.578387 
L 209.140576 128.725455 
L 210.131964 128.87674 
L 211.123352 129.028117 
L 212.11474 129.176667 
L 213.106127 129.32158 
L 214.097515 129.464813 
L 215.088903 129.611285 
L 216.080291 129.768449 
L 217.071679 129.945178 
L 218.063066 130.150111 
L 219.054454 130.389736 
L 220.045842 130.66664 
L 221.03723 130.978364 
L 222.028618 131.317219 
L 223.020005 131.671188 
L 224.011393 132.025764 
L 225.002781 132.366292 
L 225.994169 132.680256 
L 226.985557 132.958922 
L 227.976944 133.197969 
L 228.968332 133.397025 
L 229.95972 133.558364 
L 230.951108 133.685273 
L 231.942496 133.780633 
L 232.933883 133.846156 
L 233.925271 133.882438 
L 234.916659 133.889684 
L 235.908047 133.86872 
L 236.899435 133.821848 
L 237.890823 133.753158 
L 238.88221 133.668142 
L 239.873598 133.572711 
L 240.864986 133.471902 
L 241.856374 133.368685 
L 242.847762 133.263248 
L 243.839149 133.152971 
L 244.830537 133.033133 
L 245.821925 132.898178 
L 246.813313 132.74321 
L 247.804701 132.565365 
L 248.796088 132.364706 
L 249.787476 132.144463 
L 250.778864 131.910577 
L 251.770252 131.670692 
L 252.76164 131.432864 
L 253.753027 131.204281 
L 254.744415 130.990255 
L 255.735803 130.793661 
L 256.727191 130.61483 
L 257.718579 130.451875 
L 258.709966 130.301287 
L 259.701354 130.158692 
L 260.692742 130.019629 
L 261.68413 129.880229 
L 262.675518 129.73773 
L 263.666905 129.590749 
L 264.658293 129.4393 
L 265.649681 129.284587 
L 266.641069 129.128638 
L 267.632457 128.97389 
L 268.623844 128.82282 
L 269.615232 128.677687 
L 270.60662 128.540409 
L 271.598008 128.412531 
L 272.589396 128.29525 
L 273.580784 128.189431 
L 274.572171 128.095591 
L 275.563559 128.013859 
L 276.554947 127.943934 
L 277.546335 127.885086 
L 278.537723 127.836217 
L 279.52911 127.795992 
L 280.520498 127.762996 
L 281.511886 127.735894 
L 282.503274 127.71354 
L 283.494662 127.695021 
L 284.486049 127.679633 
L 285.477437 127.666818 
L 286.468825 127.65608 
L 287.460213 127.646925 
L 288.451601 127.638834 
L 289.442988 127.631274 
L 290.434376 127.623745 
L 291.425764 127.615841 
L 292.417152 127.607308 
L 292.417152 127.439428 
L 292.417152 127.439428 
L 291.425764 127.430896 
L 290.434376 127.422992 
L 289.442988 127.415463 
L 288.451601 127.407903 
L 287.460213 127.399812 
L 286.468825 127.390657 
L 285.477437 127.379919 
L 284.486049 127.367103 
L 283.494662 127.351716 
L 282.503274 127.333197 
L 281.511886 127.310843 
L 280.520498 127.283741 
L 279.52911 127.250745 
L 278.537723 127.21052 
L 277.546335 127.161651 
L 276.554947 127.102802 
L 275.563559 127.032877 
L 274.572171 126.951146 
L 273.580784 126.857306 
L 272.589396 126.751487 
L 271.598008 126.634206 
L 270.60662 126.506328 
L 269.615232 126.369049 
L 268.623844 126.223917 
L 267.632457 126.072847 
L 266.641069 125.918099 
L 265.649681 125.762149 
L 264.658293 125.607437 
L 263.666905 125.455988 
L 262.675518 125.309007 
L 261.68413 125.166508 
L 260.692742 125.027108 
L 259.701354 124.888045 
L 258.709966 124.74545 
L 257.718579 124.594862 
L 256.727191 124.431907 
L 255.735803 124.253076 
L 254.744415 124.056481 
L 253.753027 123.842456 
L 252.76164 123.613873 
L 251.770252 123.376045 
L 250.778864 123.13616 
L 249.787476 122.902274 
L 248.796088 122.682031 
L 247.804701 122.481372 
L 246.813313 122.303527 
L 245.821925 122.148559 
L 244.830537 122.013604 
L 243.839149 121.893766 
L 242.847762 121.783489 
L 241.856374 121.678052 
L 240.864986 121.574835 
L 239.873598 121.474026 
L 238.88221 121.378595 
L 237.890823 121.293579 
L 236.899435 121.224889 
L 235.908047 121.178016 
L 234.916659 121.157053 
L 233.925271 121.164298 
L 232.933883 121.200581 
L 231.942496 121.266104 
L 230.951108 121.361464 
L 229.95972 121.488373 
L 228.968332 121.649712 
L 227.976944 121.848768 
L 226.985557 122.087815 
L 225.994169 122.366481 
L 225.002781 122.680445 
L 224.011393 123.020973 
L 223.020005 123.375549 
L 222.028618 123.729518 
L 221.03723 124.068373 
L 220.045842 124.380096 
L 219.054454 124.657 
L 218.063066 124.896626 
L 217.071679 125.101559 
L 216.080291 125.278288 
L 215.088903 125.435451 
L 214.097515 125.581924 
L 213.106127 125.725156 
L 212.11474 125.870069 
L 211.123352 126.01862 
L 210.131964 126.169997 
L 209.140576 126.321282 
L 208.149188 126.46835 
L 207.157801 126.606806 
L 206.166413 126.732778 
L 205.175025 126.843482 
L 204.183637 126.937527 
L 203.192249 127.014962 
L 202.200861 127.077125 
L 201.209474 127.126343 
L 200.218086 127.165541 
L 199.226698 127.197819 
L 198.23531 127.22606 
L 197.243922 127.252611 
L 196.252535 127.279087 
L 195.261147 127.306292 
L 194.269759 127.334289 
z
" style="fill:#1f77b4;fill-opacity:0.3;"/>
   </g>
   <g id="PolyCollection_7">
    <path clip-path="url(#p91ca1e58a8)" d="M 155.630708 101.929642 
L 155.630708 102.186568 
L 157.383305 102.203562 
L 159.135902 102.221804 
L 160.888499 102.242589 
L 162.641096 102.267459 
L 164.393693 102.297875 
L 166.14629 102.334859 
L 167.898887 102.378695 
L 169.651483 102.428789 
L 171.40408 102.483734 
L 173.156677 102.541583 
L 174.909274 102.600275 
L 176.661871 102.658109 
L 178.414468 102.71417 
L 180.167065 102.768608 
L 181.919662 102.822724 
L 183.672259 102.87888 
L 185.424856 102.940302 
L 187.177453 103.010861 
L 188.93005 103.094911 
L 190.682647 103.197194 
L 192.435244 103.322736 
L 194.187841 103.476592 
L 195.940438 103.663301 
L 197.693034 103.885984 
L 199.445631 104.145219 
L 201.198228 104.437986 
L 202.950825 104.757107 
L 204.703422 105.09156 
L 206.456019 105.427828 
L 208.208616 105.752094 
L 209.961213 106.052774 
L 211.71381 106.322657 
L 213.466407 106.560039 
L 215.219004 106.768463 
L 216.971601 106.955176 
L 218.724198 107.128769 
L 220.476795 107.296703 
L 222.229392 107.463413 
L 223.981989 107.629434 
L 225.734586 107.79165 
L 227.487182 107.944474 
L 229.239779 108.081506 
L 230.992376 108.197208 
L 232.744973 108.288163 
L 234.49757 108.353667 
L 236.250167 108.3956 
L 238.002764 108.417689 
L 239.755361 108.424421 
L 241.507958 108.419921 
L 243.260555 108.407064 
L 245.013152 108.387016 
L 246.765749 108.359228 
L 248.518346 108.321788 
L 250.270943 108.271958 
L 252.02354 108.206698 
L 253.776137 108.123036 
L 255.528733 108.018272 
L 257.28133 107.89004 
L 259.033927 107.736349 
L 260.786524 107.555688 
L 262.539121 107.347229 
L 264.291718 107.111113 
L 266.044315 106.848726 
L 267.796912 106.562898 
L 269.549509 106.257931 
L 271.302106 105.939444 
L 273.054703 105.614025 
L 274.8073 105.288748 
L 276.559897 104.970599 
L 278.312494 104.665894 
L 280.065091 104.379787 
L 281.817688 104.115934 
L 283.570285 103.876383 
L 285.322881 103.66171 
L 287.075478 103.471348 
L 288.828075 103.30402 
L 290.580672 103.15816 
L 292.333269 103.032218 
L 294.085866 102.924787 
L 295.838463 102.834571 
L 297.59106 102.760246 
L 299.343657 102.700285 
L 301.096254 102.65283 
L 302.848851 102.615642 
L 304.601448 102.586148 
L 306.354045 102.561568 
L 308.106642 102.539124 
L 309.859239 102.51629 
L 311.611836 102.491063 
L 313.364432 102.462211 
L 315.117029 102.429413 
L 316.869626 102.393259 
L 318.622223 102.355078 
L 320.37482 102.316616 
L 322.127417 102.279649 
L 323.880014 102.245624 
L 325.632611 102.215432 
L 327.385208 102.189347 
L 329.137805 102.167131 
L 329.137805 101.94908 
L 329.137805 101.94908 
L 327.385208 101.926863 
L 325.632611 101.900779 
L 323.880014 101.870587 
L 322.127417 101.836562 
L 320.37482 101.799594 
L 318.622223 101.761133 
L 316.869626 101.722952 
L 315.117029 101.686798 
L 313.364432 101.653999 
L 311.611836 101.625147 
L 309.859239 101.599921 
L 308.106642 101.577086 
L 306.354045 101.554642 
L 304.601448 101.530063 
L 302.848851 101.500568 
L 301.096254 101.463381 
L 299.343657 101.415925 
L 297.59106 101.355964 
L 295.838463 101.281639 
L 294.085866 101.191424 
L 292.333269 101.083993 
L 290.580672 100.95805 
L 288.828075 100.812191 
L 287.075478 100.644863 
L 285.322881 100.4545 
L 283.570285 100.239827 
L 281.817688 100.000276 
L 280.065091 99.736423 
L 278.312494 99.450316 
L 276.559897 99.145612 
L 274.8073 98.827462 
L 273.054703 98.502186 
L 271.302106 98.176767 
L 269.549509 97.858279 
L 267.796912 97.553312 
L 266.044315 97.267484 
L 264.291718 97.005098 
L 262.539121 96.768981 
L 260.786524 96.560523 
L 259.033927 96.379862 
L 257.28133 96.226171 
L 255.528733 96.097939 
L 253.776137 95.993174 
L 252.02354 95.909513 
L 250.270943 95.844252 
L 248.518346 95.794423 
L 246.765749 95.756983 
L 245.013152 95.729194 
L 243.260555 95.709147 
L 241.507958 95.69629 
L 239.755361 95.691789 
L 238.002764 95.698522 
L 236.250167 95.72061 
L 234.49757 95.762544 
L 232.744973 95.828048 
L 230.992376 95.919002 
L 229.239779 96.034705 
L 227.487182 96.171737 
L 225.734586 96.32456 
L 223.981989 96.486777 
L 222.229392 96.652797 
L 220.476795 96.819508 
L 218.724198 96.987442 
L 216.971601 97.161035 
L 215.219004 97.347748 
L 213.466407 97.556172 
L 211.71381 97.793553 
L 209.961213 98.063437 
L 208.208616 98.364116 
L 206.456019 98.688383 
L 204.703422 99.02465 
L 202.950825 99.359103 
L 201.198228 99.678224 
L 199.445631 99.970991 
L 197.693034 100.230227 
L 195.940438 100.45291 
L 194.187841 100.639618 
L 192.435244 100.793475 
L 190.682647 100.919016 
L 188.93005 101.0213 
L 187.177453 101.10535 
L 185.424856 101.175909 
L 183.672259 101.237331 
L 181.919662 101.293487 
L 180.167065 101.347603 
L 178.414468 101.402041 
L 176.661871 101.458102 
L 174.909274 101.515936 
L 173.156677 101.574628 
L 171.40408 101.632477 
L 169.651483 101.687422 
L 167.898887 101.737516 
L 166.14629 101.781352 
L 164.393693 101.818336 
L 162.641096 101.848752 
L 160.888499 101.873622 
L 159.135902 101.894407 
L 157.383305 101.912648 
L 155.630708 101.929642 
z
" style="fill:#1f77b4;fill-opacity:0.3;"/>
   </g>
   <g id="PolyCollection_8">
    <path clip-path="url(#p91ca1e58a8)" d="M 153.444035 76.402971 
L 153.444035 76.782713 
L 154.437878 76.809724 
L 155.431721 76.840264 
L 156.425563 76.87534 
L 157.419406 76.915949 
L 158.413249 76.962936 
L 159.407092 77.01689 
L 160.400935 77.078085 
L 161.394777 77.146489 
L 162.38862 77.22183 
L 163.382463 77.303699 
L 164.376306 77.391674 
L 165.370149 77.485432 
L 166.363991 77.584837 
L 167.357834 77.689988 
L 168.351677 77.80123 
L 169.34552 77.919141 
L 170.339362 78.044476 
L 171.333205 78.178097 
L 172.327048 78.320876 
L 173.320891 78.473579 
L 174.314734 78.636754 
L 175.308576 78.810618 
L 176.302419 78.994997 
L 177.296262 79.189324 
L 178.290105 79.392706 
L 179.283948 79.604072 
L 180.27779 79.822352 
L 181.271633 80.046644 
L 182.265476 80.276302 
L 183.259319 80.510899 
L 184.253162 80.750037 
L 185.247004 80.993018 
L 186.240847 81.238466 
L 187.23469 81.483979 
L 188.228533 81.725946 
L 189.222376 81.959596 
L 190.216218 82.179323 
L 191.210061 82.379249 
L 192.203904 82.553918 
L 193.197747 82.69899 
L 194.19159 82.811794 
L 195.185432 82.891627 
L 196.179275 82.939756 
L 197.173118 82.959158 
L 198.166961 82.954046 
L 199.160804 82.929314 
L 200.154646 82.889992 
L 201.148489 82.840795 
L 202.142332 82.785814 
L 203.136175 82.728349 
L 204.130018 82.670873 
L 205.12386 82.615064 
L 206.117703 82.561883 
L 207.111546 82.511645 
L 208.105389 82.464064 
L 209.099232 82.418266 
L 210.093074 82.372784 
L 211.086917 82.325556 
L 212.08076 82.27396 
L 213.074603 82.214922 
L 214.068446 82.145108 
L 215.062288 82.061194 
L 216.056131 81.960204 
L 217.049974 81.839852 
L 218.043817 81.698842 
L 219.03766 81.537081 
L 220.031502 81.355758 
L 221.025345 81.157288 
L 222.019188 80.945128 
L 223.013031 80.723494 
L 224.006874 80.497019 
L 225.000716 80.270383 
L 225.994559 80.04796 
L 226.988402 79.833486 
L 227.982245 79.629796 
L 228.976088 79.438631 
L 229.96993 79.260558 
L 230.963773 79.095002 
L 231.957616 78.94042 
L 232.951459 78.794598 
L 233.945302 78.655038 
L 234.939144 78.519373 
L 235.932987 78.38575 
L 236.92683 78.253111 
L 237.920673 78.121312 
L 238.914516 77.991077 
L 239.908358 77.863796 
L 240.902201 77.741227 
L 241.896044 77.625158 
L 242.889887 77.517104 
L 243.88373 77.418084 
L 244.877572 77.328511 
L 245.871415 77.248193 
L 246.865258 77.176428 
L 247.859101 77.112158 
L 248.852944 77.054157 
L 249.846786 77.001215 
L 250.840629 76.952289 
L 251.834472 76.906608 
L 251.834472 76.279076 
L 251.834472 76.279076 
L 250.840629 76.233395 
L 249.846786 76.184469 
L 248.852944 76.131527 
L 247.859101 76.073526 
L 246.865258 76.009256 
L 245.871415 75.937491 
L 244.877572 75.857173 
L 243.88373 75.7676 
L 242.889887 75.66858 
L 241.896044 75.560526 
L 240.902201 75.444457 
L 239.908358 75.321888 
L 238.914516 75.194607 
L 237.920673 75.064372 
L 236.92683 74.932573 
L 235.932987 74.799934 
L 234.939144 74.666312 
L 233.945302 74.530646 
L 232.951459 74.391086 
L 231.957616 74.245265 
L 230.963773 74.090683 
L 229.96993 73.925126 
L 228.976088 73.747053 
L 227.982245 73.555889 
L 226.988402 73.352198 
L 225.994559 73.137724 
L 225.000716 72.915301 
L 224.006874 72.688666 
L 223.013031 72.46219 
L 222.019188 72.240556 
L 221.025345 72.028396 
L 220.031502 71.829926 
L 219.03766 71.648603 
L 218.043817 71.486842 
L 217.049974 71.345833 
L 216.056131 71.22548 
L 215.062288 71.124491 
L 214.068446 71.040577 
L 213.074603 70.970762 
L 212.08076 70.911724 
L 211.086917 70.860128 
L 210.093074 70.8129 
L 209.099232 70.767418 
L 208.105389 70.72162 
L 207.111546 70.674039 
L 206.117703 70.623801 
L 205.12386 70.57062 
L 204.130018 70.514811 
L 203.136175 70.457335 
L 202.142332 70.39987 
L 201.148489 70.344889 
L 200.154646 70.295692 
L 199.160804 70.25637 
L 198.166961 70.231638 
L 197.173118 70.226526 
L 196.179275 70.245928 
L 195.185432 70.294058 
L 194.19159 70.37389 
L 193.197747 70.486694 
L 192.203904 70.631766 
L 191.210061 70.806435 
L 190.216218 71.006361 
L 189.222376 71.226088 
L 188.228533 71.459738 
L 187.23469 71.701706 
L 186.240847 71.947219 
L 185.247004 72.192666 
L 184.253162 72.435647 
L 183.259319 72.674785 
L 182.265476 72.909383 
L 181.271633 73.139041 
L 180.27779 73.363332 
L 179.283948 73.581612 
L 178.290105 73.792979 
L 177.296262 73.996361 
L 176.302419 74.190687 
L 175.308576 74.375067 
L 174.314734 74.54893 
L 173.320891 74.712105 
L 172.327048 74.864809 
L 171.333205 75.007587 
L 170.339362 75.141208 
L 169.34552 75.266543 
L 168.351677 75.384454 
L 167.357834 75.495697 
L 166.363991 75.600847 
L 165.370149 75.700252 
L 164.376306 75.794011 
L 163.382463 75.881985 
L 162.38862 75.963854 
L 161.394777 76.039195 
L 160.400935 76.107599 
L 159.407092 76.168794 
L 158.413249 76.222748 
L 157.419406 76.269735 
L 156.425563 76.310344 
L 155.431721 76.345421 
L 154.437878 76.37596 
L 153.444035 76.402971 
z
" style="fill:#1f77b4;fill-opacity:0.3;"/>
   </g>
   <g id="PolyCollection_9">
    <path clip-path="url(#p91ca1e58a8)" d="M 43.157727 50.930293 
L 43.157727 51.324865 
L 45.163219 51.364407 
L 47.168711 51.408041 
L 49.174203 51.455677 
L 51.179695 51.507313 
L 53.185187 51.563124 
L 55.190678 51.623538 
L 57.19617 51.689288 
L 59.201662 51.761443 
L 61.207154 51.841402 
L 63.212646 51.930877 
L 65.218138 52.031863 
L 67.22363 52.146613 
L 69.229121 52.277589 
L 71.234613 52.427354 
L 73.240105 52.598382 
L 75.245597 52.792727 
L 77.251089 53.011565 
L 79.256581 53.254631 
L 81.262072 53.519675 
L 83.267564 53.802072 
L 85.273056 54.094736 
L 87.278548 54.388498 
L 89.28404 54.672951 
L 91.289532 54.937734 
L 93.295024 55.174032 
L 95.300515 55.376024 
L 97.306007 55.541974 
L 99.311499 55.674692 
L 101.316991 55.781234 
L 103.322483 55.87185 
L 105.327975 55.958373 
L 107.333467 56.052308 
L 109.338958 56.16299 
L 111.34445 56.29609 
L 113.349942 56.452695 
L 115.355434 56.629072 
L 117.360926 56.817093 
L 119.366418 57.005221 
L 121.37191 57.179919 
L 123.377401 57.327268 
L 125.382893 57.434633 
L 127.388385 57.492153 
L 129.393877 57.493895 
L 131.399369 57.438515 
L 133.404861 57.329328 
L 135.410353 57.173775 
L 137.415844 56.982376 
L 139.421336 56.767341 
L 141.426828 56.54107 
L 143.43232 56.314797 
L 145.437812 56.09758 
L 147.443304 55.895739 
L 149.448796 55.712782 
L 151.454287 55.549702 
L 153.459779 55.405525 
L 155.465271 55.277928 
L 157.470763 55.163811 
L 159.476255 55.059742 
L 161.481747 54.962253 
L 163.487239 54.868041 
L 165.49273 54.774105 
L 167.498222 54.677878 
L 169.503714 54.577356 
L 171.509206 54.471228 
L 173.514698 54.358935 
L 175.52019 54.240657 
L 177.525681 54.117176 
L 179.531173 53.989657 
L 181.536665 53.859377 
L 183.542157 53.727471 
L 185.547649 53.594769 
L 187.553141 53.46175 
L 189.558633 53.328624 
L 191.564124 53.195495 
L 193.569616 53.062553 
L 195.575108 52.930222 
L 197.5806 52.799216 
L 199.586092 52.670485 
L 201.591584 52.545078 
L 203.597076 52.423969 
L 205.602567 52.307899 
L 207.608059 52.197299 
L 209.613551 52.092296 
L 211.619043 51.992816 
L 213.624535 51.898729 
L 215.630027 51.809993 
L 217.635519 51.726755 
L 219.64101 51.649369 
L 221.646502 51.578345 
L 223.651994 51.514222 
L 225.657486 51.457423 
L 227.662978 51.408132 
L 229.66847 51.366204 
L 231.673962 51.331148 
L 233.679453 51.302175 
L 235.684945 51.278292 
L 237.690437 51.258429 
L 239.695929 51.241562 
L 241.701421 51.226814 
L 241.701421 51.028344 
L 241.701421 51.028344 
L 239.695929 51.013596 
L 237.690437 50.996729 
L 235.684945 50.976866 
L 233.679453 50.952983 
L 231.673962 50.92401 
L 229.66847 50.888954 
L 227.662978 50.847025 
L 225.657486 50.797735 
L 223.651994 50.740936 
L 221.646502 50.676812 
L 219.64101 50.605788 
L 217.635519 50.528403 
L 215.630027 50.445165 
L 213.624535 50.356429 
L 211.619043 50.262342 
L 209.613551 50.162862 
L 207.608059 50.057859 
L 205.602567 49.947259 
L 203.597076 49.831189 
L 201.591584 49.71008 
L 199.586092 49.584673 
L 197.5806 49.455942 
L 195.575108 49.324936 
L 193.569616 49.192605 
L 191.564124 49.059663 
L 189.558633 48.926533 
L 187.553141 48.793408 
L 185.547649 48.660389 
L 183.542157 48.527687 
L 181.536665 48.395781 
L 179.531173 48.265501 
L 177.525681 48.137982 
L 175.52019 48.014501 
L 173.514698 47.896223 
L 171.509206 47.78393 
L 169.503714 47.677802 
L 167.498222 47.57728 
L 165.49273 47.481053 
L 163.487239 47.387117 
L 161.481747 47.292905 
L 159.476255 47.195416 
L 157.470763 47.091347 
L 155.465271 46.97723 
L 153.459779 46.849633 
L 151.454287 46.705456 
L 149.448796 46.542376 
L 147.443304 46.359419 
L 145.437812 46.157578 
L 143.43232 45.94036 
L 141.426828 45.714088 
L 139.421336 45.487817 
L 137.415844 45.272782 
L 135.410353 45.081383 
L 133.404861 44.925829 
L 131.399369 44.816643 
L 129.393877 44.761263 
L 127.388385 44.763005 
L 125.382893 44.820525 
L 123.377401 44.92789 
L 121.37191 45.075239 
L 119.366418 45.249936 
L 117.360926 45.438065 
L 115.355434 45.626085 
L 113.349942 45.802463 
L 111.34445 45.959068 
L 109.338958 46.092168 
L 107.333467 46.20285 
L 105.327975 46.296785 
L 103.322483 46.383307 
L 101.316991 46.473924 
L 99.311499 46.580465 
L 97.306007 46.713184 
L 95.300515 46.879134 
L 93.295024 47.081126 
L 91.289532 47.317424 
L 89.28404 47.582207 
L 87.278548 47.86666 
L 85.273056 48.160422 
L 83.267564 48.453086 
L 81.262072 48.735482 
L 79.256581 49.000527 
L 77.251089 49.243593 
L 75.245597 49.462431 
L 73.240105 49.656776 
L 71.234613 49.827804 
L 69.229121 49.977569 
L 67.22363 50.108544 
L 65.218138 50.223295 
L 63.212646 50.324281 
L 61.207154 50.413755 
L 59.201662 50.493715 
L 57.19617 50.56587 
L 55.190678 50.63162 
L 53.185187 50.692034 
L 51.179695 50.747845 
L 49.174203 50.799481 
L 47.168711 50.847117 
L 45.163219 50.890751 
L 43.157727 50.930293 
z
" style="fill:#1f77b4;fill-opacity:0.3;"/>
   </g>
   <g id="PolyCollection_10">
    <path clip-path="url(#p91ca1e58a8)" d="M 135.27764 25.252712 
L 135.27764 26.071919 
L 137.463882 26.131414 
L 139.650125 26.191862 
L 141.836368 26.252562 
L 144.02261 26.312982 
L 146.208853 26.372778 
L 148.395096 26.431828 
L 150.581338 26.490303 
L 152.767581 26.548758 
L 154.953824 26.608257 
L 157.140066 26.670462 
L 159.326309 26.737677 
L 161.512552 26.812784 
L 163.698794 26.899064 
L 165.885037 26.999909 
L 168.07128 27.11845 
L 170.257522 27.257176 
L 172.443765 27.417601 
L 174.630008 27.600049 
L 176.81625 27.803601 
L 179.002493 28.026206 
L 181.188736 28.264943 
L 183.374978 28.516373 
L 185.561221 28.776906 
L 187.747464 29.043128 
L 189.933706 29.312031 
L 192.119949 29.581102 
L 194.306192 29.848295 
L 196.492434 30.111885 
L 198.678677 30.370238 
L 200.86492 30.621546 
L 203.051162 30.863561 
L 205.237405 31.093384 
L 207.423648 31.307374 
L 209.60989 31.501229 
L 211.796133 31.670282 
L 213.982376 31.810015 
L 216.168618 31.916738 
L 218.354861 31.988312 
L 220.541104 32.024765 
L 222.727346 32.028632 
L 224.913589 32.004883 
L 227.099832 31.960415 
L 229.286074 31.903141 
L 231.472317 31.840854 
L 233.65856 31.780083 
L 235.844802 31.72517 
L 238.031045 31.677754 
L 240.217288 31.636757 
L 242.40353 31.598828 
L 244.589773 31.559145 
L 246.776016 31.512358 
L 248.962258 31.453484 
L 251.148501 31.378591 
L 253.334744 31.285171 
L 255.520986 31.172203 
L 257.707229 31.039962 
L 259.893472 30.889689 
L 262.079715 30.723224 
L 264.265957 30.542684 
L 266.4522 30.350244 
L 268.638443 30.148005 
L 270.824685 29.937939 
L 273.010928 29.721872 
L 275.197171 29.501491 
L 277.383413 29.27837 
L 279.569656 29.054011 
L 281.755899 28.829914 
L 283.942141 28.60767 
L 286.128384 28.389037 
L 288.314627 28.175988 
L 290.500869 27.970675 
L 292.687112 27.775317 
L 294.873355 27.592014 
L 297.059597 27.422523 
L 299.24584 27.268061 
L 301.432083 27.129174 
L 303.618325 27.005705 
L 305.804568 26.89687 
L 307.990811 26.801403 
L 310.177053 26.717741 
L 312.363296 26.644199 
L 314.549539 26.579102 
L 316.735781 26.520861 
L 318.922024 26.468016 
L 321.108267 26.41924 
L 323.294509 26.373356 
L 325.480752 26.329366 
L 327.666995 26.28649 
L 329.853237 26.244213 
L 332.03948 26.202304 
L 334.225723 26.160808 
L 336.411965 26.119978 
L 338.598208 26.080185 
L 340.784451 26.041804 
L 342.970693 26.005125 
L 345.156936 25.97029 
L 347.343179 25.937294 
L 349.529421 25.906023 
L 351.715664 25.876333 
L 351.715664 25.448298 
L 351.715664 25.448298 
L 349.529421 25.418609 
L 347.343179 25.387338 
L 345.156936 25.354341 
L 342.970693 25.319506 
L 340.784451 25.282827 
L 338.598208 25.244447 
L 336.411965 25.204653 
L 334.225723 25.163823 
L 332.03948 25.122327 
L 329.853237 25.080419 
L 327.666995 25.038141 
L 325.480752 24.995265 
L 323.294509 24.951275 
L 321.108267 24.905392 
L 318.922024 24.856616 
L 316.735781 24.80377 
L 314.549539 24.74553 
L 312.363296 24.680432 
L 310.177053 24.60689 
L 307.990811 24.523228 
L 305.804568 24.427761 
L 303.618325 24.318926 
L 301.432083 24.195458 
L 299.24584 24.05657 
L 297.059597 23.902108 
L 294.873355 23.732617 
L 292.687112 23.549314 
L 290.500869 23.353957 
L 288.314627 23.148644 
L 286.128384 22.935594 
L 283.942141 22.716962 
L 281.755899 22.494717 
L 279.569656 22.270621 
L 277.383413 22.046261 
L 275.197171 21.82314 
L 273.010928 21.60276 
L 270.824685 21.386693 
L 268.638443 21.176627 
L 266.4522 20.974388 
L 264.265957 20.781948 
L 262.079715 20.601408 
L 259.893472 20.434942 
L 257.707229 20.28467 
L 255.520986 20.152429 
L 253.334744 20.039461 
L 251.148501 19.946041 
L 248.962258 19.871148 
L 246.776016 19.812274 
L 244.589773 19.765486 
L 242.40353 19.725804 
L 240.217288 19.687875 
L 238.031045 19.646877 
L 235.844802 19.599462 
L 233.65856 19.544548 
L 231.472317 19.483777 
L 229.286074 19.421491 
L 227.099832 19.364217 
L 224.913589 19.319749 
L 222.727346 19.296 
L 220.541104 19.299866 
L 218.354861 19.33632 
L 216.168618 19.407894 
L 213.982376 19.514617 
L 211.796133 19.65435 
L 209.60989 19.823403 
L 207.423648 20.017258 
L 205.237405 20.231248 
L 203.051162 20.461071 
L 200.86492 20.703085 
L 198.678677 20.954393 
L 196.492434 21.212747 
L 194.306192 21.476336 
L 192.119949 21.74353 
L 189.933706 22.012601 
L 187.747464 22.281503 
L 185.561221 22.547726 
L 183.374978 22.808258 
L 181.188736 23.059688 
L 179.002493 23.298426 
L 176.81625 23.521031 
L 174.630008 23.724582 
L 172.443765 23.90703 
L 170.257522 24.067455 
L 168.07128 24.206181 
L 165.885037 24.324723 
L 163.698794 24.425568 
L 161.512552 24.511848 
L 159.326309 24.586954 
L 157.140066 24.654169 
L 154.953824 24.716374 
L 152.767581 24.775873 
L 150.581338 24.834329 
L 148.395096 24.892803 
L 146.208853 24.951854 
L 144.02261 25.011649 
L 141.836368 25.072069 
L 139.650125 25.13277 
L 137.463882 25.193218 
L 135.27764 25.252712 
z
" style="fill:#1f77b4;fill-opacity:0.3;"/>
   </g>
   <g id="matplotlib.axis_1">
    <g id="xtick_1">
     <g id="line2d_1">
      <defs>
       <path d="M 0 0 
L 0 3.5 
" id="m7fb422345d" style="stroke:#000000;stroke-width:0.8;"/>
      </defs>
      <g>
       <use style="stroke:#000000;stroke-width:0.8;" x="70.133179" xlink:href="#m7fb422345d" y="273.312"/>
      </g>
     </g>
     <g id="text_1">
      <!-- 60 -->
      <g transform="translate(59.580835 287.910437)scale(0.1 -0.1)">
       <defs>
        <path d="M 10.59375 35.5 
L 73.1875 35.5 
L 73.1875 27.203125 
L 10.59375 27.203125 
z
" id="DejaVuSans-8722"/>
        <path d="M 33.015625 40.375 
Q 26.375 40.375 22.484375 35.828125 
Q 18.609375 31.296875 18.609375 23.390625 
Q 18.609375 15.53125 22.484375 10.953125 
Q 26.375 6.390625 33.015625 6.390625 
Q 39.65625 6.390625 43.53125 10.953125 
Q 47.40625 15.53125 47.40625 23.390625 
Q 47.40625 31.296875 43.53125 35.828125 
Q 39.65625 40.375 33.015625 40.375 
z
M 52.59375 71.296875 
L 52.59375 62.3125 
Q 48.875 64.0625 45.09375 64.984375 
Q 41.3125 65.921875 37.59375 65.921875 
Q 27.828125 65.921875 22.671875 59.328125 
Q 17.53125 52.734375 16.796875 39.40625 
Q 19.671875 43.65625 24.015625 45.921875 
Q 28.375 48.1875 33.59375 48.1875 
Q 44.578125 48.1875 50.953125 41.515625 
Q 57.328125 34.859375 57.328125 23.390625 
Q 57.328125 12.15625 50.6875 5.359375 
Q 44.046875 -1.421875 33.015625 -1.421875 
Q 20.359375 -1.421875 13.671875 8.265625 
Q 6.984375 17.96875 6.984375 36.375 
Q 6.984375 53.65625 15.1875 63.9375 
Q 23.390625 74.21875 37.203125 74.21875 
Q 40.921875 74.21875 44.703125 73.484375 
Q 48.484375 72.75 52.59375 71.296875 
z
" id="DejaVuSans-54"/>
        <path d="M 31.78125 66.40625 
Q 24.171875 66.40625 20.328125 58.90625 
Q 16.5 51.421875 16.5 36.375 
Q 16.5 21.390625 20.328125 13.890625 
Q 24.171875 6.390625 31.78125 6.390625 
Q 39.453125 6.390625 43.28125 13.890625 
Q 47.125 21.390625 47.125 36.375 
Q 47.125 51.421875 43.28125 58.90625 
Q 39.453125 66.40625 31.78125 66.40625 
z
M 31.78125 74.21875 
Q 44.046875 74.21875 50.515625 64.515625 
Q 56.984375 54.828125 56.984375 36.375 
Q 56.984375 17.96875 50.515625 8.265625 
Q 44.046875 -1.421875 31.78125 -1.421875 
Q 19.53125 -1.421875 13.0625 8.265625 
Q 6.59375 17.96875 6.59375 36.375 
Q 6.59375 54.828125 13.0625 64.515625 
Q 19.53125 74.21875 31.78125 74.21875 
z
" id="DejaVuSans-48"/>
       </defs>
       <use xlink:href="#DejaVuSans-8722"/>
       <use x="83.789062" xlink:href="#DejaVuSans-54"/>
       <use x="147.412109" xlink:href="#DejaVuSans-48"/>
      </g>
     </g>
    </g>
    <g id="xtick_2">
     <g id="line2d_2">
      <g>
       <use style="stroke:#000000;stroke-width:0.8;" x="127.883264" xlink:href="#m7fb422345d" y="273.312"/>
      </g>
     </g>
     <g id="text_2">
      <!-- 40 -->
      <g transform="translate(117.330921 287.910437)scale(0.1 -0.1)">
       <defs>
        <path d="M 37.796875 64.3125 
L 12.890625 25.390625 
L 37.796875 25.390625 
z
M 35.203125 72.90625 
L 47.609375 72.90625 
L 47.609375 25.390625 
L 58.015625 25.390625 
L 58.015625 17.1875 
L 47.609375 17.1875 
L 47.609375 0 
L 37.796875 0 
L 37.796875 17.1875 
L 4.890625 17.1875 
L 4.890625 26.703125 
z
" id="DejaVuSans-52"/>
       </defs>
       <use xlink:href="#DejaVuSans-8722"/>
       <use x="83.789062" xlink:href="#DejaVuSans-52"/>
       <use x="147.412109" xlink:href="#DejaVuSans-48"/>
      </g>
     </g>
    </g>
    <g id="xtick_3">
     <g id="line2d_3">
      <g>
       <use style="stroke:#000000;stroke-width:0.8;" x="185.63335" xlink:href="#m7fb422345d" y="273.312"/>
      </g>
     </g>
     <g id="text_3">
      <!-- 20 -->
      <g transform="translate(175.081007 287.910437)scale(0.1 -0.1)">
       <defs>
        <path d="M 19.1875 8.296875 
L 53.609375 8.296875 
L 53.609375 0 
L 7.328125 0 
L 7.328125 8.296875 
Q 12.9375 14.109375 22.625 23.890625 
Q 32.328125 33.6875 34.8125 36.53125 
Q 39.546875 41.84375 41.421875 45.53125 
Q 43.3125 49.21875 43.3125 52.78125 
Q 43.3125 58.59375 39.234375 62.25 
Q 35.15625 65.921875 28.609375 65.921875 
Q 23.96875 65.921875 18.8125 64.3125 
Q 13.671875 62.703125 7.8125 59.421875 
L 7.8125 69.390625 
Q 13.765625 71.78125 18.9375 73 
Q 24.125 74.21875 28.421875 74.21875 
Q 39.75 74.21875 46.484375 68.546875 
Q 53.21875 62.890625 53.21875 53.421875 
Q 53.21875 48.921875 51.53125 44.890625 
Q 49.859375 40.875 45.40625 35.40625 
Q 44.1875 33.984375 37.640625 27.21875 
Q 31.109375 20.453125 19.1875 8.296875 
z
" id="DejaVuSans-50"/>
       </defs>
       <use xlink:href="#DejaVuSans-8722"/>
       <use x="83.789062" xlink:href="#DejaVuSans-50"/>
       <use x="147.412109" xlink:href="#DejaVuSans-48"/>
      </g>
     </g>
    </g>
    <g id="xtick_4">
     <g id="line2d_4">
      <g>
       <use style="stroke:#000000;stroke-width:0.8;" x="243.383436" xlink:href="#m7fb422345d" y="273.312"/>
      </g>
     </g>
     <g id="text_4">
      <!-- 0 -->
      <g transform="translate(240.202186 287.910437)scale(0.1 -0.1)">
       <use xlink:href="#DejaVuSans-48"/>
      </g>
     </g>
    </g>
    <g id="xtick_5">
     <g id="line2d_5">
      <g>
       <use style="stroke:#000000;stroke-width:0.8;" x="301.133522" xlink:href="#m7fb422345d" y="273.312"/>
      </g>
     </g>
     <g id="text_5">
      <!-- 20 -->
      <g transform="translate(294.771022 287.910437)scale(0.1 -0.1)">
       <use xlink:href="#DejaVuSans-50"/>
       <use x="63.623047" xlink:href="#DejaVuSans-48"/>
      </g>
     </g>
    </g>
    <g id="xtick_6">
     <g id="line2d_6">
      <g>
       <use style="stroke:#000000;stroke-width:0.8;" x="358.883608" xlink:href="#m7fb422345d" y="273.312"/>
      </g>
     </g>
     <g id="text_6">
      <!-- 40 -->
      <g transform="translate(352.521108 287.910437)scale(0.1 -0.1)">
       <use xlink:href="#DejaVuSans-52"/>
       <use x="63.623047" xlink:href="#DejaVuSans-48"/>
      </g>
     </g>
    </g>
    <g id="text_7">
     <!-- Velocity [km/s] -->
     <g transform="translate(168.324063 301.588562)scale(0.1 -0.1)">
      <defs>
       <path d="M 28.609375 0 
L 0.78125 72.90625 
L 11.078125 72.90625 
L 34.1875 11.53125 
L 57.328125 72.90625 
L 67.578125 72.90625 
L 39.796875 0 
z
" id="DejaVuSans-86"/>
       <path d="M 56.203125 29.59375 
L 56.203125 25.203125 
L 14.890625 25.203125 
Q 15.484375 15.921875 20.484375 11.0625 
Q 25.484375 6.203125 34.421875 6.203125 
Q 39.59375 6.203125 44.453125 7.46875 
Q 49.3125 8.734375 54.109375 11.28125 
L 54.109375 2.78125 
Q 49.265625 0.734375 44.1875 -0.34375 
Q 39.109375 -1.421875 33.890625 -1.421875 
Q 20.796875 -1.421875 13.15625 6.1875 
Q 5.515625 13.8125 5.515625 26.8125 
Q 5.515625 40.234375 12.765625 48.109375 
Q 20.015625 56 32.328125 56 
Q 43.359375 56 49.78125 48.890625 
Q 56.203125 41.796875 56.203125 29.59375 
z
M 47.21875 32.234375 
Q 47.125 39.59375 43.09375 43.984375 
Q 39.0625 48.390625 32.421875 48.390625 
Q 24.90625 48.390625 20.390625 44.140625 
Q 15.875 39.890625 15.1875 32.171875 
z
" id="DejaVuSans-101"/>
       <path d="M 9.421875 75.984375 
L 18.40625 75.984375 
L 18.40625 0 
L 9.421875 0 
z
" id="DejaVuSans-108"/>
       <path d="M 30.609375 48.390625 
Q 23.390625 48.390625 19.1875 42.75 
Q 14.984375 37.109375 14.984375 27.296875 
Q 14.984375 17.484375 19.15625 11.84375 
Q 23.34375 6.203125 30.609375 6.203125 
Q 37.796875 6.203125 41.984375 11.859375 
Q 46.1875 17.53125 46.1875 27.296875 
Q 46.1875 37.015625 41.984375 42.703125 
Q 37.796875 48.390625 30.609375 48.390625 
z
M 30.609375 56 
Q 42.328125 56 49.015625 48.375 
Q 55.71875 40.765625 55.71875 27.296875 
Q 55.71875 13.875 49.015625 6.21875 
Q 42.328125 -1.421875 30.609375 -1.421875 
Q 18.84375 -1.421875 12.171875 6.21875 
Q 5.515625 13.875 5.515625 27.296875 
Q 5.515625 40.765625 12.171875 48.375 
Q 18.84375 56 30.609375 56 
z
" id="DejaVuSans-111"/>
       <path d="M 48.78125 52.59375 
L 48.78125 44.1875 
Q 44.96875 46.296875 41.140625 47.34375 
Q 37.3125 48.390625 33.40625 48.390625 
Q 24.65625 48.390625 19.8125 42.84375 
Q 14.984375 37.3125 14.984375 27.296875 
Q 14.984375 17.28125 19.8125 11.734375 
Q 24.65625 6.203125 33.40625 6.203125 
Q 37.3125 6.203125 41.140625 7.25 
Q 44.96875 8.296875 48.78125 10.40625 
L 48.78125 2.09375 
Q 45.015625 0.34375 40.984375 -0.53125 
Q 36.96875 -1.421875 32.421875 -1.421875 
Q 20.0625 -1.421875 12.78125 6.34375 
Q 5.515625 14.109375 5.515625 27.296875 
Q 5.515625 40.671875 12.859375 48.328125 
Q 20.21875 56 33.015625 56 
Q 37.15625 56 41.109375 55.140625 
Q 45.0625 54.296875 48.78125 52.59375 
z
" id="DejaVuSans-99"/>
       <path d="M 9.421875 54.6875 
L 18.40625 54.6875 
L 18.40625 0 
L 9.421875 0 
z
M 9.421875 75.984375 
L 18.40625 75.984375 
L 18.40625 64.59375 
L 9.421875 64.59375 
z
" id="DejaVuSans-105"/>
       <path d="M 18.3125 70.21875 
L 18.3125 54.6875 
L 36.8125 54.6875 
L 36.8125 47.703125 
L 18.3125 47.703125 
L 18.3125 18.015625 
Q 18.3125 11.328125 20.140625 9.421875 
Q 21.96875 7.515625 27.59375 7.515625 
L 36.8125 7.515625 
L 36.8125 0 
L 27.59375 0 
Q 17.1875 0 13.234375 3.875 
Q 9.28125 7.765625 9.28125 18.015625 
L 9.28125 47.703125 
L 2.6875 47.703125 
L 2.6875 54.6875 
L 9.28125 54.6875 
L 9.28125 70.21875 
z
" id="DejaVuSans-116"/>
       <path d="M 32.171875 -5.078125 
Q 28.375 -14.84375 24.75 -17.8125 
Q 21.140625 -20.796875 15.09375 -20.796875 
L 7.90625 -20.796875 
L 7.90625 -13.28125 
L 13.1875 -13.28125 
Q 16.890625 -13.28125 18.9375 -11.515625 
Q 21 -9.765625 23.484375 -3.21875 
L 25.09375 0.875 
L 2.984375 54.6875 
L 12.5 54.6875 
L 29.59375 11.921875 
L 46.6875 54.6875 
L 56.203125 54.6875 
z
" id="DejaVuSans-121"/>
       <path id="DejaVuSans-32"/>
       <path d="M 8.59375 75.984375 
L 29.296875 75.984375 
L 29.296875 69 
L 17.578125 69 
L 17.578125 -6.203125 
L 29.296875 -6.203125 
L 29.296875 -13.1875 
L 8.59375 -13.1875 
z
" id="DejaVuSans-91"/>
       <path d="M 9.078125 75.984375 
L 18.109375 75.984375 
L 18.109375 31.109375 
L 44.921875 54.6875 
L 56.390625 54.6875 
L 27.390625 29.109375 
L 57.625 0 
L 45.90625 0 
L 18.109375 26.703125 
L 18.109375 0 
L 9.078125 0 
z
" id="DejaVuSans-107"/>
       <path d="M 52 44.1875 
Q 55.375 50.25 60.0625 53.125 
Q 64.75 56 71.09375 56 
Q 79.640625 56 84.28125 50.015625 
Q 88.921875 44.046875 88.921875 33.015625 
L 88.921875 0 
L 79.890625 0 
L 79.890625 32.71875 
Q 79.890625 40.578125 77.09375 44.375 
Q 74.3125 48.1875 68.609375 48.1875 
Q 61.625 48.1875 57.5625 43.546875 
Q 53.515625 38.921875 53.515625 30.90625 
L 53.515625 0 
L 44.484375 0 
L 44.484375 32.71875 
Q 44.484375 40.625 41.703125 44.40625 
Q 38.921875 48.1875 33.109375 48.1875 
Q 26.21875 48.1875 22.15625 43.53125 
Q 18.109375 38.875 18.109375 30.90625 
L 18.109375 0 
L 9.078125 0 
L 9.078125 54.6875 
L 18.109375 54.6875 
L 18.109375 46.1875 
Q 21.1875 51.21875 25.484375 53.609375 
Q 29.78125 56 35.6875 56 
Q 41.65625 56 45.828125 52.96875 
Q 50 49.953125 52 44.1875 
z
" id="DejaVuSans-109"/>
       <path d="M 25.390625 72.90625 
L 33.6875 72.90625 
L 8.296875 -9.28125 
L 0 -9.28125 
z
" id="DejaVuSans-47"/>
       <path d="M 44.28125 53.078125 
L 44.28125 44.578125 
Q 40.484375 46.53125 36.375 47.5 
Q 32.28125 48.484375 27.875 48.484375 
Q 21.1875 48.484375 17.84375 46.4375 
Q 14.5 44.390625 14.5 40.28125 
Q 14.5 37.15625 16.890625 35.375 
Q 19.28125 33.59375 26.515625 31.984375 
L 29.59375 31.296875 
Q 39.15625 29.25 43.1875 25.515625 
Q 47.21875 21.78125 47.21875 15.09375 
Q 47.21875 7.46875 41.1875 3.015625 
Q 35.15625 -1.421875 24.609375 -1.421875 
Q 20.21875 -1.421875 15.453125 -0.5625 
Q 10.6875 0.296875 5.421875 2 
L 5.421875 11.28125 
Q 10.40625 8.6875 15.234375 7.390625 
Q 20.0625 6.109375 24.8125 6.109375 
Q 31.15625 6.109375 34.5625 8.28125 
Q 37.984375 10.453125 37.984375 14.40625 
Q 37.984375 18.0625 35.515625 20.015625 
Q 33.0625 21.96875 24.703125 23.78125 
L 21.578125 24.515625 
Q 13.234375 26.265625 9.515625 29.90625 
Q 5.8125 33.546875 5.8125 39.890625 
Q 5.8125 47.609375 11.28125 51.796875 
Q 16.75 56 26.8125 56 
Q 31.78125 56 36.171875 55.265625 
Q 40.578125 54.546875 44.28125 53.078125 
z
" id="DejaVuSans-115"/>
       <path d="M 30.421875 75.984375 
L 30.421875 -13.1875 
L 9.71875 -13.1875 
L 9.71875 -6.203125 
L 21.390625 -6.203125 
L 21.390625 69 
L 9.71875 69 
L 9.71875 75.984375 
z
" id="DejaVuSans-93"/>
      </defs>
      <use xlink:href="#DejaVuSans-86"/>
      <use x="60.658203" xlink:href="#DejaVuSans-101"/>
      <use x="122.181641" xlink:href="#DejaVuSans-108"/>
      <use x="149.964844" xlink:href="#DejaVuSans-111"/>
      <use x="211.146484" xlink:href="#DejaVuSans-99"/>
      <use x="266.126953" xlink:href="#DejaVuSans-105"/>
      <use x="293.910156" xlink:href="#DejaVuSans-116"/>
      <use x="333.119141" xlink:href="#DejaVuSans-121"/>
      <use x="392.298828" xlink:href="#DejaVuSans-32"/>
      <use x="424.085938" xlink:href="#DejaVuSans-91"/>
      <use x="463.099609" xlink:href="#DejaVuSans-107"/>
      <use x="521.009766" xlink:href="#DejaVuSans-109"/>
      <use x="618.421875" xlink:href="#DejaVuSans-47"/>
      <use x="652.113281" xlink:href="#DejaVuSans-115"/>
      <use x="704.212891" xlink:href="#DejaVuSans-93"/>
     </g>
    </g>
   </g>
   <g id="matplotlib.axis_2">
    <g id="ytick_1">
     <g id="line2d_7">
      <defs>
       <path d="M 0 0 
L -3.5 0 
" id="mc4d1e9feee" style="stroke:#000000;stroke-width:0.8;"/>
      </defs>
      <g>
       <use style="stroke:#000000;stroke-width:0.8;" x="26.925" xlink:href="#mc4d1e9feee" y="229.384421"/>
      </g>
     </g>
     <g id="text_8">
      <!-- 2 -->
      <g transform="translate(13.5625 233.18364)scale(0.1 -0.1)">
       <use xlink:href="#DejaVuSans-50"/>
      </g>
     </g>
    </g>
    <g id="ytick_2">
     <g id="line2d_8">
      <g>
       <use style="stroke:#000000;stroke-width:0.8;" x="26.925" xlink:href="#mc4d1e9feee" y="178.453895"/>
      </g>
     </g>
     <g id="text_9">
      <!-- 4 -->
      <g transform="translate(13.5625 182.253113)scale(0.1 -0.1)">
       <use xlink:href="#DejaVuSans-52"/>
      </g>
     </g>
    </g>
    <g id="ytick_3">
     <g id="line2d_9">
      <g>
       <use style="stroke:#000000;stroke-width:0.8;" x="26.925" xlink:href="#mc4d1e9feee" y="127.523368"/>
      </g>
     </g>
     <g id="text_10">
      <!-- 6 -->
      <g transform="translate(13.5625 131.322587)scale(0.1 -0.1)">
       <use xlink:href="#DejaVuSans-54"/>
      </g>
     </g>
    </g>
    <g id="ytick_4">
     <g id="line2d_10">
      <g>
       <use style="stroke:#000000;stroke-width:0.8;" x="26.925" xlink:href="#mc4d1e9feee" y="76.592842"/>
      </g>
     </g>
     <g id="text_11">
      <!-- 8 -->
      <g transform="translate(13.5625 80.392061)scale(0.1 -0.1)">
       <defs>
        <path d="M 31.78125 34.625 
Q 24.75 34.625 20.71875 30.859375 
Q 16.703125 27.09375 16.703125 20.515625 
Q 16.703125 13.921875 20.71875 10.15625 
Q 24.75 6.390625 31.78125 6.390625 
Q 38.8125 6.390625 42.859375 10.171875 
Q 46.921875 13.96875 46.921875 20.515625 
Q 46.921875 27.09375 42.890625 30.859375 
Q 38.875 34.625 31.78125 34.625 
z
M 21.921875 38.8125 
Q 15.578125 40.375 12.03125 44.71875 
Q 8.5 49.078125 8.5 55.328125 
Q 8.5 64.0625 14.71875 69.140625 
Q 20.953125 74.21875 31.78125 74.21875 
Q 42.671875 74.21875 48.875 69.140625 
Q 55.078125 64.0625 55.078125 55.328125 
Q 55.078125 49.078125 51.53125 44.71875 
Q 48 40.375 41.703125 38.8125 
Q 48.828125 37.15625 52.796875 32.3125 
Q 56.78125 27.484375 56.78125 20.515625 
Q 56.78125 9.90625 50.3125 4.234375 
Q 43.84375 -1.421875 31.78125 -1.421875 
Q 19.734375 -1.421875 13.25 4.234375 
Q 6.78125 9.90625 6.78125 20.515625 
Q 6.78125 27.484375 10.78125 32.3125 
Q 14.796875 37.15625 21.921875 38.8125 
z
M 18.3125 54.390625 
Q 18.3125 48.734375 21.84375 45.5625 
Q 25.390625 42.390625 31.78125 42.390625 
Q 38.140625 42.390625 41.71875 45.5625 
Q 45.3125 48.734375 45.3125 54.390625 
Q 45.3125 60.0625 41.71875 63.234375 
Q 38.140625 66.40625 31.78125 66.40625 
Q 25.390625 66.40625 21.84375 63.234375 
Q 18.3125 60.0625 18.3125 54.390625 
z
" id="DejaVuSans-56"/>
       </defs>
       <use xlink:href="#DejaVuSans-56"/>
      </g>
     </g>
    </g>
    <g id="ytick_5">
     <g id="line2d_11">
      <g>
       <use style="stroke:#000000;stroke-width:0.8;" x="26.925" xlink:href="#mc4d1e9feee" y="25.662316"/>
      </g>
     </g>
     <g id="text_12">
      <!-- 10 -->
      <g transform="translate(7.2 29.461535)scale(0.1 -0.1)">
       <defs>
        <path d="M 12.40625 8.296875 
L 28.515625 8.296875 
L 28.515625 63.921875 
L 10.984375 60.40625 
L 10.984375 69.390625 
L 28.421875 72.90625 
L 38.28125 72.90625 
L 38.28125 8.296875 
L 54.390625 8.296875 
L 54.390625 0 
L 12.40625 0 
z
" id="DejaVuSans-49"/>
       </defs>
       <use xlink:href="#DejaVuSans-49"/>
       <use x="63.623047" xlink:href="#DejaVuSans-48"/>
      </g>
     </g>
    </g>
   </g>
   <g id="patch_3">
    <path d="M 26.925 273.312 
L 26.925 7.2 
" style="fill:none;stroke:#000000;stroke-linecap:square;stroke-linejoin:miter;stroke-width:0.8;"/>
   </g>
   <g id="patch_4">
    <path d="M 384.045 273.312 
L 384.045 7.2 
" style="fill:none;stroke:#000000;stroke-linecap:square;stroke-linejoin:miter;stroke-width:0.8;"/>
   </g>
   <g id="patch_5">
    <path d="M 26.925 273.312 
L 384.045 273.312 
" style="fill:none;stroke:#000000;stroke-linecap:square;stroke-linejoin:miter;stroke-width:0.8;"/>
   </g>
   <g id="patch_6">
    <path d="M 26.925 7.2 
L 384.045 7.2 
" style="fill:none;stroke:#000000;stroke-linecap:square;stroke-linejoin:miter;stroke-width:0.8;"/>
   </g>
  </g>
 </g>
 <defs>
  <clipPath id="p91ca1e58a8">
   <rect height="266.112" width="357.12" x="26.925" y="7.2"/>
  </clipPath>
 </defs>
</svg>
