<?xml version="1.0" encoding="utf-8" standalone="no"?>
<!DOCTYPE svg PUBLIC "-//W3C//DTD SVG 1.1//EN"
  "http://www.w3.org/Graphics/SVG/1.1/DTD/svg11.dtd">
<svg xmlns:xlink="http://www.w3.org/1999/xlink" width="402.679375pt" height="309.59325pt" viewBox="0 0 402.679375 309.59325" xmlns="http://www.w3.org/2000/svg" version="1.1">
 <metadata>
  <rdf:RDF xmlns:dc="http://purl.org/dc/elements/1.1/" xmlns:cc="http://creativecommons.org/ns#" xmlns:rdf="http://www.w3.org/1999/02/22-rdf-syntax-ns#">
   <cc:Work>
    <dc:type rdf:resource="http://purl.org/dc/dcmitype/StillImage"/>
    <dc:date>2026-09-25T16:03:11.579471</dc:date>
    <dc:format>image/svg+xml</dc:format>
    <dc:creator>
     <cc:Agent>
      <dc:title>Matplotlib v3.10.8, https://matplotlib.org/</dc:title>
     </cc:Agent>
    </dc:creator>
   </cc:Work>
  </rdf:RDF>
 </metadata>
 <defs>
  <style type="text/css">*{stroke-linejoin: round; stroke-linecap: butt}</style>
 </defs>
 <g id="figure_1">
  <g id="patch_1">
   <path d="M 0 309.59325 
L 402.679375 309.59325 
L 402.679375 0 
L 0 0 
z
" style="fill: #ffffff"/>
  </g>
  <g id="axes_1">
   <g id="patch_2">
    <path d="M 36.609375 275.062 
L 393.729375 275.062 
L 393.729375 8.95 
L 36.609375 8.95 
z
" style="fill: #ffffff"/>
   </g>
   <g id="matplotlib.axis_1">
    <g id="xtick_1">
     <g id="line2d_1">
      <defs>
       <path id="m4bb8bb007d" d="M 0 1.75 
L 0 -1.75 
" style="stroke: #000000; stroke-width: 0.8"/>
      </defs>
      <g>
       <use xlink:href="#m4bb8bb007d" x="45.802525" y="275.062" style="stroke: #000000; stroke-width: 0.8"/>
      </g>
     </g>
     <g id="line2d_2">
      <g>
       <use xlink:href="#m4bb8bb007d" x="45.802525" y="8.95" style="stroke: #000000; stroke-width: 0.8"/>
      </g>
     </g>
     <g id="text_1">
      <!-- 0 -->
      <g transform="translate(43.022837 287.452625) scale(0.1 -0.1)">
       <defs>
        <path id="HelveticaNeue-Light-30" d="M 1779 4518 
Q 1293 4518 985 4304 
Q 678 4090 508 3757 
Q 339 3424 278 3014 
Q 218 2605 218 2208 
Q 218 1818 278 1408 
Q 339 998 508 665 
Q 678 333 985 121 
Q 1293 -90 1779 -90 
Q 2272 -90 2576 121 
Q 2880 333 3049 665 
Q 3219 998 3280 1408 
Q 3341 1818 3341 2214 
Q 3341 2605 3280 3014 
Q 3219 3424 3049 3757 
Q 2880 4090 2576 4304 
Q 2272 4518 1779 4518 
z
M 1779 4179 
Q 2163 4179 2393 3980 
Q 2624 3782 2742 3488 
Q 2861 3194 2899 2848 
Q 2938 2502 2938 2214 
Q 2938 1920 2899 1577 
Q 2861 1235 2742 937 
Q 2624 640 2393 441 
Q 2163 243 1779 243 
Q 1395 243 1164 441 
Q 934 640 816 937 
Q 698 1235 659 1577 
Q 621 1920 621 2214 
Q 621 2502 659 2848 
Q 698 3194 816 3488 
Q 934 3782 1164 3980 
Q 1395 4179 1779 4179 
z
" transform="scale(0.015625)"/>
       </defs>
       <use xlink:href="#HelveticaNeue-Light-30"/>
      </g>
     </g>
    </g>
    <g id="xtick_2">
     <g id="line2d_3">
      <g>
       <use xlink:href="#m4bb8bb007d" x="114.199422" y="275.062" style="stroke: #000000; stroke-width: 0.8"/>
      </g>
     </g>
     <g id="line2d_4">
      <g>
       <use xlink:href="#m4bb8bb007d" x="114.199422" y="8.95" style="stroke: #000000; stroke-width: 0.8"/>
      </g>
     </g>
     <g id="text_2">
      <!-- 1 -->
      <g transform="translate(111.419734 287.452625) scale(0.1 -0.1)">
       <defs>
        <path id="HelveticaNeue-Light-31" d="M 621 3616 
L 621 3328 
L 1805 3328 
L 1805 0 
L 2208 0 
L 2208 4480 
L 1882 4480 
Q 1837 4173 1731 4003 
Q 1626 3834 1469 3750 
Q 1312 3667 1097 3644 
Q 883 3622 621 3616 
z
" transform="scale(0.015625)"/>
       </defs>
       <use xlink:href="#HelveticaNeue-Light-31"/>
      </g>
     </g>
    </g>
    <g id="xtick_3">
     <g id="line2d_5">
      <g>
       <use xlink:href="#m4bb8bb007d" x="182.596319" y="275.062" style="stroke: #000000; stroke-width: 0.8"/>
      </g>
     </g>
     <g id="line2d_6">
      <g>
       <use xlink:href="#m4bb8bb007d" x="182.596319" y="8.95" style="stroke: #000000; stroke-width: 0.8"/>
      </g>
     </g>
     <g id="text_3">
      <!-- 2 -->
      <g transform="translate(179.816632 287.452625) scale(0.1 -0.1)">
       <defs>
        <path id="HelveticaNeue-Light-32" d="M 3181 0 
L 3181 371 
L 691 371 
Q 730 595 883 784 
Q 1037 973 1238 1133 
Q 1440 1293 1657 1424 
Q 1875 1555 2035 1664 
Q 2259 1805 2460 1968 
Q 2662 2131 2819 2323 
Q 2976 2515 3069 2745 
Q 3162 2976 3162 3258 
Q 3162 3571 3056 3808 
Q 2950 4045 2761 4201 
Q 2573 4358 2320 4438 
Q 2067 4518 1773 4518 
Q 1408 4518 1136 4400 
Q 864 4282 685 4070 
Q 506 3859 419 3568 
Q 333 3277 339 2931 
L 742 2931 
Q 736 3181 790 3405 
Q 845 3629 966 3801 
Q 1088 3974 1283 4076 
Q 1478 4179 1754 4179 
Q 1958 4179 2140 4118 
Q 2323 4058 2460 3939 
Q 2598 3821 2678 3651 
Q 2758 3482 2758 3264 
Q 2758 2995 2665 2800 
Q 2573 2605 2387 2419 
Q 2202 2234 1968 2070 
Q 1734 1907 1497 1750 
Q 1261 1594 1037 1424 
Q 813 1254 633 1049 
Q 454 845 345 589 
Q 237 333 230 0 
L 3181 0 
z
" transform="scale(0.015625)"/>
       </defs>
       <use xlink:href="#HelveticaNeue-Light-32"/>
      </g>
     </g>
    </g>
    <g id="xtick_4">
     <g id="line2d_7">
      <g>
       <use xlink:href="#m4bb8bb007d" x="250.993217" y="275.062" style="stroke: #000000; stroke-width: 0.8"/>
      </g>
     </g>
     <g id="line2d_8">
      <g>
       <use xlink:href="#m4bb8bb007d" x="250.993217" y="8.95" style="stroke: #000000; stroke-width: 0.8"/>
      </g>
     </g>
     <g id="text_4">
      <!-- 3 -->
      <g transform="translate(248.213529 287.452625) scale(0.1 -0.1)">
       <defs>
        <path id="HelveticaNeue-Light-33" d="M 614 1427 
L 211 1427 
Q 186 1062 291 780 
Q 397 499 605 307 
Q 813 115 1104 12 
Q 1395 -90 1741 -90 
Q 2048 -90 2329 -3 
Q 2611 83 2822 256 
Q 3034 429 3158 681 
Q 3283 934 3283 1267 
Q 3283 1709 3043 2006 
Q 2803 2304 2362 2374 
L 2362 2387 
Q 2726 2477 2921 2745 
Q 3117 3014 3117 3379 
Q 3117 3680 2998 3894 
Q 2880 4109 2685 4246 
Q 2490 4384 2240 4451 
Q 1990 4518 1728 4518 
Q 1402 4518 1139 4406 
Q 877 4294 694 4099 
Q 512 3904 413 3635 
Q 314 3366 314 3046 
L 717 3046 
Q 710 3296 774 3504 
Q 838 3712 969 3862 
Q 1101 4013 1293 4096 
Q 1485 4179 1734 4179 
Q 1939 4179 2115 4131 
Q 2291 4083 2425 3977 
Q 2560 3872 2637 3715 
Q 2714 3558 2714 3334 
Q 2714 3123 2630 2969 
Q 2547 2816 2416 2717 
Q 2285 2618 2121 2570 
Q 1958 2522 1805 2522 
L 1466 2522 
L 1466 2182 
L 1805 2182 
Q 2029 2182 2224 2124 
Q 2419 2067 2566 1948 
Q 2714 1830 2797 1654 
Q 2880 1478 2880 1235 
Q 2880 998 2784 812 
Q 2688 627 2528 499 
Q 2368 371 2163 307 
Q 1958 243 1734 243 
Q 1466 243 1251 329 
Q 1037 416 893 569 
Q 749 723 675 940 
Q 602 1158 614 1427 
z
" transform="scale(0.015625)"/>
       </defs>
       <use xlink:href="#HelveticaNeue-Light-33"/>
      </g>
     </g>
    </g>
    <g id="xtick_5">
     <g id="line2d_9">
      <g>
       <use xlink:href="#m4bb8bb007d" x="319.390114" y="275.062" style="stroke: #000000; stroke-width: 0.8"/>
      </g>
     </g>
     <g id="line2d_10">
      <g>
       <use xlink:href="#m4bb8bb007d" x="319.390114" y="8.95" style="stroke: #000000; stroke-width: 0.8"/>
      </g>
     </g>
     <g id="text_5">
      <!-- 4 -->
      <g transform="translate(316.610427 287.452625) scale(0.1 -0.1)">
       <defs>
        <path id="HelveticaNeue-Light-34" d="M 2259 1453 
L 557 1453 
L 2246 3891 
L 2259 3891 
L 2259 1453 
z
M 192 1504 
L 192 1114 
L 2259 1114 
L 2259 0 
L 2630 0 
L 2630 1114 
L 3302 1114 
L 3302 1453 
L 2630 1453 
L 2630 4480 
L 2266 4480 
L 192 1504 
z
" transform="scale(0.015625)"/>
       </defs>
       <use xlink:href="#HelveticaNeue-Light-34"/>
      </g>
     </g>
    </g>
    <g id="xtick_6">
     <g id="line2d_11">
      <g>
       <use xlink:href="#m4bb8bb007d" x="387.787011" y="275.062" style="stroke: #000000; stroke-width: 0.8"/>
      </g>
     </g>
     <g id="line2d_12">
      <g>
       <use xlink:href="#m4bb8bb007d" x="387.787011" y="8.95" style="stroke: #000000; stroke-width: 0.8"/>
      </g>
     </g>
     <g id="text_6">
      <!-- 5 -->
      <g transform="translate(385.007324 287.452625) scale(0.1 -0.1)">
       <defs>
        <path id="HelveticaNeue-Light-35" d="M 634 1280 
L 230 1280 
Q 237 960 352 704 
Q 467 448 662 272 
Q 858 96 1123 3 
Q 1389 -90 1702 -90 
Q 2022 -90 2307 22 
Q 2592 134 2803 336 
Q 3014 538 3136 816 
Q 3258 1094 3258 1421 
Q 3258 1760 3152 2045 
Q 3046 2330 2851 2534 
Q 2656 2739 2377 2854 
Q 2099 2970 1754 2970 
Q 1485 2970 1229 2861 
Q 973 2752 806 2554 
L 794 2566 
L 1082 4051 
L 3040 4051 
L 3040 4422 
L 800 4422 
L 365 2099 
L 710 2099 
Q 877 2355 1139 2492 
Q 1402 2630 1709 2630 
Q 1958 2630 2169 2540 
Q 2381 2451 2531 2294 
Q 2682 2138 2768 1926 
Q 2854 1715 2854 1466 
Q 2854 1222 2777 1001 
Q 2701 781 2553 611 
Q 2406 442 2201 342 
Q 1997 243 1734 243 
Q 1504 243 1305 316 
Q 1107 390 960 528 
Q 813 666 726 858 
Q 640 1050 634 1280 
z
" transform="scale(0.015625)"/>
       </defs>
       <use xlink:href="#HelveticaNeue-Light-35"/>
      </g>
     </g>
    </g>
    <g id="text_7">
     <!-- x -->
     <g transform="translate(212.764688 300.49325) scale(0.1 -0.1)">
      <defs>
       <path id="HelveticaNeue-Light-78" d="M 1286 1715 
L 6 0 
L 506 0 
L 1523 1389 
L 2560 0 
L 3072 0 
L 1786 1722 
L 2976 3302 
L 2470 3302 
L 1549 2048 
L 608 3302 
L 102 3302 
L 1286 1715 
z
" transform="scale(0.015625)"/>
      </defs>
      <use xlink:href="#HelveticaNeue-Light-78"/>
     </g>
    </g>
   </g>
   <g id="matplotlib.axis_2">
    <g id="ytick_1">
     <g id="line2d_13">
      <defs>
       <path id="ma954da542e" d="M 1.75 0 
L -1.75 -0 
" style="stroke: #000000; stroke-width: 0.8"/>
      </defs>
      <g>
       <use xlink:href="#ma954da542e" x="36.609375" y="246.477408" style="stroke: #000000; stroke-width: 0.8"/>
      </g>
     </g>
     <g id="line2d_14">
      <g>
       <use xlink:href="#ma954da542e" x="393.729375" y="246.477408" style="stroke: #000000; stroke-width: 0.8"/>
      </g>
     </g>
     <g id="text_8">
      <!-- 10 -->
      <g transform="translate(20.240625 250.04772) scale(0.1 -0.1)">
       <use xlink:href="#HelveticaNeue-Light-31"/>
       <use xlink:href="#HelveticaNeue-Light-30" transform="translate(55.599991 0)"/>
      </g>
     </g>
    </g>
    <g id="ytick_2">
     <g id="line2d_15">
      <g>
       <use xlink:href="#ma954da542e" x="36.609375" y="202.638995" style="stroke: #000000; stroke-width: 0.8"/>
      </g>
     </g>
     <g id="line2d_16">
      <g>
       <use xlink:href="#ma954da542e" x="393.729375" y="202.638995" style="stroke: #000000; stroke-width: 0.8"/>
      </g>
     </g>
     <g id="text_9">
      <!-- 12 -->
      <g transform="translate(20.240625 206.209307) scale(0.1 -0.1)">
       <use xlink:href="#HelveticaNeue-Light-31"/>
       <use xlink:href="#HelveticaNeue-Light-32" transform="translate(55.599991 0)"/>
      </g>
     </g>
    </g>
    <g id="ytick_3">
     <g id="line2d_17">
      <g>
       <use xlink:href="#ma954da542e" x="36.609375" y="158.800582" style="stroke: #000000; stroke-width: 0.8"/>
      </g>
     </g>
     <g id="line2d_18">
      <g>
       <use xlink:href="#ma954da542e" x="393.729375" y="158.800582" style="stroke: #000000; stroke-width: 0.8"/>
      </g>
     </g>
     <g id="text_10">
      <!-- 14 -->
      <g transform="translate(20.240625 162.370895) scale(0.1 -0.1)">
       <use xlink:href="#HelveticaNeue-Light-31"/>
       <use xlink:href="#HelveticaNeue-Light-34" transform="translate(55.599991 0)"/>
      </g>
     </g>
    </g>
    <g id="ytick_4">
     <g id="line2d_19">
      <g>
       <use xlink:href="#ma954da542e" x="36.609375" y="114.96217" style="stroke: #000000; stroke-width: 0.8"/>
      </g>
     </g>
     <g id="line2d_20">
      <g>
       <use xlink:href="#ma954da542e" x="393.729375" y="114.96217" style="stroke: #000000; stroke-width: 0.8"/>
      </g>
     </g>
     <g id="text_11">
      <!-- 16 -->
      <g transform="translate(20.240625 118.532482) scale(0.1 -0.1)">
       <defs>
        <path id="HelveticaNeue-Light-36" d="M 2829 3347 
L 3232 3347 
Q 3162 3942 2810 4230 
Q 2458 4518 1856 4518 
Q 1491 4518 1228 4390 
Q 966 4262 790 4057 
Q 614 3853 508 3600 
Q 403 3347 345 3100 
Q 288 2854 272 2636 
Q 256 2419 256 2285 
Q 256 1626 349 1174 
Q 442 723 634 441 
Q 826 160 1120 35 
Q 1414 -90 1824 -90 
Q 2157 -90 2435 22 
Q 2714 134 2915 336 
Q 3117 538 3229 816 
Q 3341 1094 3341 1421 
Q 3341 1747 3235 2022 
Q 3130 2298 2938 2496 
Q 2746 2694 2474 2806 
Q 2202 2918 1862 2918 
Q 1478 2918 1155 2713 
Q 832 2509 672 2176 
L 659 2176 
Q 659 2483 704 2832 
Q 749 3181 883 3481 
Q 1018 3782 1261 3980 
Q 1504 4179 1894 4179 
Q 2285 4179 2531 3948 
Q 2778 3718 2829 3347 
z
M 1856 2579 
Q 2112 2579 2313 2486 
Q 2515 2394 2652 2234 
Q 2790 2074 2864 1856 
Q 2938 1638 2938 1395 
Q 2938 1165 2861 953 
Q 2784 742 2640 585 
Q 2496 429 2301 336 
Q 2106 243 1862 243 
Q 1568 243 1357 332 
Q 1146 422 1008 579 
Q 870 736 806 947 
Q 742 1158 742 1395 
Q 742 1645 816 1859 
Q 890 2074 1034 2234 
Q 1178 2394 1386 2486 
Q 1594 2579 1856 2579 
z
" transform="scale(0.015625)"/>
       </defs>
       <use xlink:href="#HelveticaNeue-Light-31"/>
       <use xlink:href="#HelveticaNeue-Light-36" transform="translate(55.599991 0)"/>
      </g>
     </g>
    </g>
    <g id="ytick_5">
     <g id="line2d_21">
      <g>
       <use xlink:href="#ma954da542e" x="36.609375" y="71.123757" style="stroke: #000000; stroke-width: 0.8"/>
      </g>
     </g>
     <g id="line2d_22">
      <g>
       <use xlink:href="#ma954da542e" x="393.729375" y="71.123757" style="stroke: #000000; stroke-width: 0.8"/>
      </g>
     </g>
     <g id="text_12">
      <!-- 18 -->
      <g transform="translate(20.240625 74.694069) scale(0.1 -0.1)">
       <defs>
        <path id="HelveticaNeue-Light-38" d="M 1779 2566 
Q 1600 2560 1427 2605 
Q 1254 2650 1120 2752 
Q 986 2854 902 3014 
Q 819 3174 819 3398 
Q 819 3590 899 3737 
Q 979 3885 1113 3981 
Q 1248 4077 1421 4128 
Q 1594 4179 1779 4179 
Q 1984 4179 2157 4128 
Q 2330 4077 2458 3981 
Q 2586 3885 2659 3737 
Q 2733 3590 2733 3398 
Q 2733 3181 2653 3021 
Q 2573 2861 2441 2758 
Q 2310 2656 2137 2608 
Q 1965 2560 1779 2566 
z
M 3136 3398 
Q 3136 3686 3017 3897 
Q 2899 4109 2704 4246 
Q 2509 4384 2265 4451 
Q 2022 4518 1773 4518 
Q 1523 4518 1280 4451 
Q 1037 4384 845 4246 
Q 653 4109 534 3897 
Q 416 3686 416 3398 
Q 416 3027 605 2774 
Q 794 2522 1146 2413 
L 1146 2400 
Q 723 2323 486 2009 
Q 250 1696 237 1254 
Q 237 915 358 662 
Q 480 410 691 243 
Q 902 77 1184 -6 
Q 1466 -90 1779 -90 
Q 2099 -90 2377 -6 
Q 2656 77 2867 243 
Q 3078 410 3200 662 
Q 3322 915 3322 1254 
Q 3322 1715 3085 2012 
Q 2848 2310 2406 2400 
L 2406 2413 
Q 2752 2515 2944 2774 
Q 3136 3034 3136 3398 
z
M 1779 243 
Q 1542 243 1334 307 
Q 1126 371 972 496 
Q 819 621 729 813 
Q 640 1005 640 1254 
Q 640 1498 733 1683 
Q 826 1869 979 1993 
Q 1133 2118 1341 2176 
Q 1549 2234 1779 2227 
Q 2003 2234 2211 2173 
Q 2419 2112 2576 1987 
Q 2733 1862 2825 1680 
Q 2918 1498 2918 1254 
Q 2918 998 2828 806 
Q 2739 614 2585 489 
Q 2432 365 2224 304 
Q 2016 243 1779 243 
z
" transform="scale(0.015625)"/>
       </defs>
       <use xlink:href="#HelveticaNeue-Light-31"/>
       <use xlink:href="#HelveticaNeue-Light-38" transform="translate(55.599991 0)"/>
      </g>
     </g>
    </g>
    <g id="ytick_6">
     <g id="line2d_23">
      <g>
       <use xlink:href="#ma954da542e" x="36.609375" y="27.285344" style="stroke: #000000; stroke-width: 0.8"/>
      </g>
     </g>
     <g id="line2d_24">
      <g>
       <use xlink:href="#ma954da542e" x="393.729375" y="27.285344" style="stroke: #000000; stroke-width: 0.8"/>
      </g>
     </g>
     <g id="text_13">
      <!-- 20 -->
      <g transform="translate(20.240625 30.855657) scale(0.1 -0.1)">
       <use xlink:href="#HelveticaNeue-Light-32"/>
       <use xlink:href="#HelveticaNeue-Light-30" transform="translate(55.599991 0)"/>
      </g>
     </g>
    </g>
    <g id="text_14">
     <!-- y -->
     <g transform="translate(14.340625 144.320844) rotate(-90) scale(0.1 -0.1)">
      <defs>
       <path id="HelveticaNeue-Light-79" d="M 13 3302 
L 1331 13 
L 1190 -358 
Q 1139 -474 1094 -570 
Q 1050 -666 986 -733 
Q 922 -800 835 -838 
Q 749 -877 614 -877 
Q 544 -877 477 -867 
Q 410 -858 339 -845 
L 339 -1184 
Q 390 -1203 457 -1206 
Q 525 -1210 646 -1216 
Q 838 -1216 963 -1181 
Q 1088 -1146 1181 -1066 
Q 1274 -986 1350 -848 
Q 1427 -710 1517 -499 
L 2950 3302 
L 2547 3302 
L 1530 486 
L 442 3302 
L 13 3302 
z
" transform="scale(0.015625)"/>
      </defs>
      <use xlink:href="#HelveticaNeue-Light-79"/>
     </g>
    </g>
   </g>
   <g id="LineCollection_1">
    <path d="M 173.889435 111.138535 
L 173.889435 67.300122 
" clip-path="url(#p19c314fd3a)" style="fill: none; stroke: #008fd5; stroke-width: 1.5"/>
    <path d="M 370.932069 255.161754 
L 370.932069 211.323342 
" clip-path="url(#p19c314fd3a)" style="fill: none; stroke: #008fd5; stroke-width: 1.5"/>
    <path d="M 296.133097 190.310919 
L 296.133097 146.472506 
" clip-path="url(#p19c314fd3a)" style="fill: none; stroke: #008fd5; stroke-width: 1.5"/>
    <path d="M 250.534439 182.846248 
L 250.534439 139.007835 
" clip-path="url(#p19c314fd3a)" style="fill: none; stroke: #008fd5; stroke-width: 1.5"/>
    <path d="M 99.158479 106.866271 
L 99.158479 63.027858 
" clip-path="url(#p19c314fd3a)" style="fill: none; stroke: #008fd5; stroke-width: 1.5"/>
    <path d="M 99.150231 78.00654 
L 99.150231 34.168127 
" clip-path="url(#p19c314fd3a)" style="fill: none; stroke: #008fd5; stroke-width: 1.5"/>
    <path d="M 65.666219 67.846836 
L 65.666219 24.008424 
" clip-path="url(#p19c314fd3a)" style="fill: none; stroke: #008fd5; stroke-width: 1.5"/>
    <path d="M 342.021329 208.850576 
L 342.021329 165.012163 
" clip-path="url(#p19c314fd3a)" style="fill: none; stroke: #008fd5; stroke-width: 1.5"/>
    <path d="M 251.374533 150.236089 
L 251.374533 106.397676 
" clip-path="url(#p19c314fd3a)" style="fill: none; stroke: #008fd5; stroke-width: 1.5"/>
    <path d="M 287.952362 197.530639 
L 287.952362 153.692227 
" clip-path="url(#p19c314fd3a)" style="fill: none; stroke: #008fd5; stroke-width: 1.5"/>
    <path d="M 52.842102 64.884413 
L 52.842102 21.046 
" clip-path="url(#p19c314fd3a)" style="fill: none; stroke: #008fd5; stroke-width: 1.5"/>
    <path d="M 377.496648 252.533164 
L 377.496648 208.694751 
" clip-path="url(#p19c314fd3a)" style="fill: none; stroke: #008fd5; stroke-width: 1.5"/>
    <path d="M 330.484994 213.418217 
L 330.484994 169.579804 
" clip-path="url(#p19c314fd3a)" style="fill: none; stroke: #008fd5; stroke-width: 1.5"/>
    <path d="M 118.419206 114.368284 
L 118.419206 70.529871 
" clip-path="url(#p19c314fd3a)" style="fill: none; stroke: #008fd5; stroke-width: 1.5"/>
    <path d="M 107.983843 104.27395 
L 107.983843 60.435538 
" clip-path="url(#p19c314fd3a)" style="fill: none; stroke: #008fd5; stroke-width: 1.5"/>
    <path d="M 108.524022 93.618798 
L 108.524022 49.780386 
" clip-path="url(#p19c314fd3a)" style="fill: none; stroke: #008fd5; stroke-width: 1.5"/>
    <path d="M 149.848652 145.016958 
L 149.848652 101.178546 
" clip-path="url(#p19c314fd3a)" style="fill: none; stroke: #008fd5; stroke-width: 1.5"/>
    <path d="M 225.261084 119.471986 
L 225.261084 75.633574 
" clip-path="url(#p19c314fd3a)" style="fill: none; stroke: #008fd5; stroke-width: 1.5"/>
    <path d="M 193.52102 171.139068 
L 193.52102 127.300655 
" clip-path="url(#p19c314fd3a)" style="fill: none; stroke: #008fd5; stroke-width: 1.5"/>
    <path d="M 145.398373 151.477914 
L 145.398373 107.639501 
" clip-path="url(#p19c314fd3a)" style="fill: none; stroke: #008fd5; stroke-width: 1.5"/>
    <path d="M 255.046723 155.377126 
L 255.046723 111.538714 
" clip-path="url(#p19c314fd3a)" style="fill: none; stroke: #008fd5; stroke-width: 1.5"/>
    <path d="M 93.507261 81.995863 
L 93.507261 38.157451 
" clip-path="url(#p19c314fd3a)" style="fill: none; stroke: #008fd5; stroke-width: 1.5"/>
    <path d="M 145.711462 111.339569 
L 145.711462 67.501156 
" clip-path="url(#p19c314fd3a)" style="fill: none; stroke: #008fd5; stroke-width: 1.5"/>
    <path d="M 171.092592 123.961219 
L 171.092592 80.122806 
" clip-path="url(#p19c314fd3a)" style="fill: none; stroke: #008fd5; stroke-width: 1.5"/>
    <path d="M 201.771384 153.559904 
L 201.771384 109.721491 
" clip-path="url(#p19c314fd3a)" style="fill: none; stroke: #008fd5; stroke-width: 1.5"/>
    <path d="M 314.320523 231.594387 
L 314.320523 187.755974 
" clip-path="url(#p19c314fd3a)" style="fill: none; stroke: #008fd5; stroke-width: 1.5"/>
    <path d="M 114.08786 107.727492 
L 114.08786 63.889079 
" clip-path="url(#p19c314fd3a)" style="fill: none; stroke: #008fd5; stroke-width: 1.5"/>
    <path d="M 221.662725 178.326144 
L 221.662725 134.487732 
" clip-path="url(#p19c314fd3a)" style="fill: none; stroke: #008fd5; stroke-width: 1.5"/>
    <path d="M 248.399117 155.930829 
L 248.399117 112.092416 
" clip-path="url(#p19c314fd3a)" style="fill: none; stroke: #008fd5; stroke-width: 1.5"/>
    <path d="M 61.687845 87.263359 
L 61.687845 43.424946 
" clip-path="url(#p19c314fd3a)" style="fill: none; stroke: #008fd5; stroke-width: 1.5"/>
    <path d="M 253.573439 198.089312 
L 253.573439 154.250899 
" clip-path="url(#p19c314fd3a)" style="fill: none; stroke: #008fd5; stroke-width: 1.5"/>
    <path d="M 104.11913 111.556865 
L 104.11913 67.718452 
" clip-path="url(#p19c314fd3a)" style="fill: none; stroke: #008fd5; stroke-width: 1.5"/>
    <path d="M 68.04916 78.027865 
L 68.04916 34.189453 
" clip-path="url(#p19c314fd3a)" style="fill: none; stroke: #008fd5; stroke-width: 1.5"/>
    <path d="M 370.306658 254.214644 
L 370.306658 210.376231 
" clip-path="url(#p19c314fd3a)" style="fill: none; stroke: #008fd5; stroke-width: 1.5"/>
    <path d="M 376.0337 262.966 
L 376.0337 219.127587 
" clip-path="url(#p19c314fd3a)" style="fill: none; stroke: #008fd5; stroke-width: 1.5"/>
    <path d="M 322.261877 210.804275 
L 322.261877 166.965862 
" clip-path="url(#p19c314fd3a)" style="fill: none; stroke: #008fd5; stroke-width: 1.5"/>
    <path d="M 149.975708 121.776139 
L 149.975708 77.937726 
" clip-path="url(#p19c314fd3a)" style="fill: none; stroke: #008fd5; stroke-width: 1.5"/>
    <path d="M 79.204872 103.546338 
L 79.204872 59.707926 
" clip-path="url(#p19c314fd3a)" style="fill: none; stroke: #008fd5; stroke-width: 1.5"/>
    <path d="M 279.799605 204.029749 
L 279.799605 160.191336 
" clip-path="url(#p19c314fd3a)" style="fill: none; stroke: #008fd5; stroke-width: 1.5"/>
    <path d="M 196.327849 145.430078 
L 196.327849 101.591665 
" clip-path="url(#p19c314fd3a)" style="fill: none; stroke: #008fd5; stroke-width: 1.5"/>
    <path d="M 87.537708 128.19714 
L 87.537708 84.358727 
" clip-path="url(#p19c314fd3a)" style="fill: none; stroke: #008fd5; stroke-width: 1.5"/>
    <path d="M 215.145346 190.985661 
L 215.145346 147.147248 
" clip-path="url(#p19c314fd3a)" style="fill: none; stroke: #008fd5; stroke-width: 1.5"/>
    <path d="M 57.562865 97.822904 
L 57.562865 53.984491 
" clip-path="url(#p19c314fd3a)" style="fill: none; stroke: #008fd5; stroke-width: 1.5"/>
    <path d="M 356.775996 239.263931 
L 356.775996 195.425518 
" clip-path="url(#p19c314fd3a)" style="fill: none; stroke: #008fd5; stroke-width: 1.5"/>
    <path d="M 134.301264 112.537577 
L 134.301264 68.699164 
" clip-path="url(#p19c314fd3a)" style="fill: none; stroke: #008fd5; stroke-width: 1.5"/>
    <path d="M 272.374868 157.47279 
L 272.374868 113.634377 
" clip-path="url(#p19c314fd3a)" style="fill: none; stroke: #008fd5; stroke-width: 1.5"/>
    <path d="M 152.402877 109.558274 
L 152.402877 65.719861 
" clip-path="url(#p19c314fd3a)" style="fill: none; stroke: #008fd5; stroke-width: 1.5"/>
    <path d="M 223.65772 168.015578 
L 223.65772 124.177166 
" clip-path="url(#p19c314fd3a)" style="fill: none; stroke: #008fd5; stroke-width: 1.5"/>
    <path d="M 232.768959 169.624881 
L 232.768959 125.786468 
" clip-path="url(#p19c314fd3a)" style="fill: none; stroke: #008fd5; stroke-width: 1.5"/>
    <path d="M 109.019881 128.881351 
L 109.019881 85.042939 
" clip-path="url(#p19c314fd3a)" style="fill: none; stroke: #008fd5; stroke-width: 1.5"/>
   </g>
   <g id="line2d_25">
    <defs>
     <path id="m0c7ecd123d" d="M 2 0 
L -2 -0 
" style="stroke: #008fd5"/>
    </defs>
    <g clip-path="url(#p19c314fd3a)">
     <use xlink:href="#m0c7ecd123d" x="173.889435" y="111.138535" style="fill: #008fd5; stroke: #008fd5"/>
     <use xlink:href="#m0c7ecd123d" x="370.932069" y="255.161754" style="fill: #008fd5; stroke: #008fd5"/>
     <use xlink:href="#m0c7ecd123d" x="296.133097" y="190.310919" style="fill: #008fd5; stroke: #008fd5"/>
     <use xlink:href="#m0c7ecd123d" x="250.534439" y="182.846248" style="fill: #008fd5; stroke: #008fd5"/>
     <use xlink:href="#m0c7ecd123d" x="99.158479" y="106.866271" style="fill: #008fd5; stroke: #008fd5"/>
     <use xlink:href="#m0c7ecd123d" x="99.150231" y="78.00654" style="fill: #008fd5; stroke: #008fd5"/>
     <use xlink:href="#m0c7ecd123d" x="65.666219" y="67.846836" style="fill: #008fd5; stroke: #008fd5"/>
     <use xlink:href="#m0c7ecd123d" x="342.021329" y="208.850576" style="fill: #008fd5; stroke: #008fd5"/>
     <use xlink:href="#m0c7ecd123d" x="251.374533" y="150.236089" style="fill: #008fd5; stroke: #008fd5"/>
     <use xlink:href="#m0c7ecd123d" x="287.952362" y="197.530639" style="fill: #008fd5; stroke: #008fd5"/>
     <use xlink:href="#m0c7ecd123d" x="52.842102" y="64.884413" style="fill: #008fd5; stroke: #008fd5"/>
     <use xlink:href="#m0c7ecd123d" x="377.496648" y="252.533164" style="fill: #008fd5; stroke: #008fd5"/>
     <use xlink:href="#m0c7ecd123d" x="330.484994" y="213.418217" style="fill: #008fd5; stroke: #008fd5"/>
     <use xlink:href="#m0c7ecd123d" x="118.419206" y="114.368284" style="fill: #008fd5; stroke: #008fd5"/>
     <use xlink:href="#m0c7ecd123d" x="107.983843" y="104.27395" style="fill: #008fd5; stroke: #008fd5"/>
     <use xlink:href="#m0c7ecd123d" x="108.524022" y="93.618798" style="fill: #008fd5; stroke: #008fd5"/>
     <use xlink:href="#m0c7ecd123d" x="149.848652" y="145.016958" style="fill: #008fd5; stroke: #008fd5"/>
     <use xlink:href="#m0c7ecd123d" x="225.261084" y="119.471986" style="fill: #008fd5; stroke: #008fd5"/>
     <use xlink:href="#m0c7ecd123d" x="193.52102" y="171.139068" style="fill: #008fd5; stroke: #008fd5"/>
     <use xlink:href="#m0c7ecd123d" x="145.398373" y="151.477914" style="fill: #008fd5; stroke: #008fd5"/>
     <use xlink:href="#m0c7ecd123d" x="255.046723" y="155.377126" style="fill: #008fd5; stroke: #008fd5"/>
     <use xlink:href="#m0c7ecd123d" x="93.507261" y="81.995863" style="fill: #008fd5; stroke: #008fd5"/>
     <use xlink:href="#m0c7ecd123d" x="145.711462" y="111.339569" style="fill: #008fd5; stroke: #008fd5"/>
     <use xlink:href="#m0c7ecd123d" x="171.092592" y="123.961219" style="fill: #008fd5; stroke: #008fd5"/>
     <use xlink:href="#m0c7ecd123d" x="201.771384" y="153.559904" style="fill: #008fd5; stroke: #008fd5"/>
     <use xlink:href="#m0c7ecd123d" x="314.320523" y="231.594387" style="fill: #008fd5; stroke: #008fd5"/>
     <use xlink:href="#m0c7ecd123d" x="114.08786" y="107.727492" style="fill: #008fd5; stroke: #008fd5"/>
     <use xlink:href="#m0c7ecd123d" x="221.662725" y="178.326144" style="fill: #008fd5; stroke: #008fd5"/>
     <use xlink:href="#m0c7ecd123d" x="248.399117" y="155.930829" style="fill: #008fd5; stroke: #008fd5"/>
     <use xlink:href="#m0c7ecd123d" x="61.687845" y="87.263359" style="fill: #008fd5; stroke: #008fd5"/>
     <use xlink:href="#m0c7ecd123d" x="253.573439" y="198.089312" style="fill: #008fd5; stroke: #008fd5"/>
     <use xlink:href="#m0c7ecd123d" x="104.11913" y="111.556865" style="fill: #008fd5; stroke: #008fd5"/>
     <use xlink:href="#m0c7ecd123d" x="68.04916" y="78.027865" style="fill: #008fd5; stroke: #008fd5"/>
     <use xlink:href="#m0c7ecd123d" x="370.306658" y="254.214644" style="fill: #008fd5; stroke: #008fd5"/>
     <use xlink:href="#m0c7ecd123d" x="376.0337" y="262.966" style="fill: #008fd5; stroke: #008fd5"/>
     <use xlink:href="#m0c7ecd123d" x="322.261877" y="210.804275" style="fill: #008fd5; stroke: #008fd5"/>
     <use xlink:href="#m0c7ecd123d" x="149.975708" y="121.776139" style="fill: #008fd5; stroke: #008fd5"/>
     <use xlink:href="#m0c7ecd123d" x="79.204872" y="103.546338" style="fill: #008fd5; stroke: #008fd5"/>
     <use xlink:href="#m0c7ecd123d" x="279.799605" y="204.029749" style="fill: #008fd5; stroke: #008fd5"/>
     <use xlink:href="#m0c7ecd123d" x="196.327849" y="145.430078" style="fill: #008fd5; stroke: #008fd5"/>
     <use xlink:href="#m0c7ecd123d" x="87.537708" y="128.19714" style="fill: #008fd5; stroke: #008fd5"/>
     <use xlink:href="#m0c7ecd123d" x="215.145346" y="190.985661" style="fill: #008fd5; stroke: #008fd5"/>
     <use xlink:href="#m0c7ecd123d" x="57.562865" y="97.822904" style="fill: #008fd5; stroke: #008fd5"/>
     <use xlink:href="#m0c7ecd123d" x="356.775996" y="239.263931" style="fill: #008fd5; stroke: #008fd5"/>
     <use xlink:href="#m0c7ecd123d" x="134.301264" y="112.537577" style="fill: #008fd5; stroke: #008fd5"/>
     <use xlink:href="#m0c7ecd123d" x="272.374868" y="157.47279" style="fill: #008fd5; stroke: #008fd5"/>
     <use xlink:href="#m0c7ecd123d" x="152.402877" y="109.558274" style="fill: #008fd5; stroke: #008fd5"/>
     <use xlink:href="#m0c7ecd123d" x="223.65772" y="168.015578" style="fill: #008fd5; stroke: #008fd5"/>
     <use xlink:href="#m0c7ecd123d" x="232.768959" y="169.624881" style="fill: #008fd5; stroke: #008fd5"/>
     <use xlink:href="#m0c7ecd123d" x="109.019881" y="128.881351" style="fill: #008fd5; stroke: #008fd5"/>
    </g>
   </g>
   <g id="line2d_26">
    <g clip-path="url(#p19c314fd3a)">
     <use xlink:href="#m0c7ecd123d" x="173.889435" y="67.300122" style="fill: #008fd5; stroke: #008fd5"/>
     <use xlink:href="#m0c7ecd123d" x="370.932069" y="211.323342" style="fill: #008fd5; stroke: #008fd5"/>
     <use xlink:href="#m0c7ecd123d" x="296.133097" y="146.472506" style="fill: #008fd5; stroke: #008fd5"/>
     <use xlink:href="#m0c7ecd123d" x="250.534439" y="139.007835" style="fill: #008fd5; stroke: #008fd5"/>
     <use xlink:href="#m0c7ecd123d" x="99.158479" y="63.027858" style="fill: #008fd5; stroke: #008fd5"/>
     <use xlink:href="#m0c7ecd123d" x="99.150231" y="34.168127" style="fill: #008fd5; stroke: #008fd5"/>
     <use xlink:href="#m0c7ecd123d" x="65.666219" y="24.008424" style="fill: #008fd5; stroke: #008fd5"/>
     <use xlink:href="#m0c7ecd123d" x="342.021329" y="165.012163" style="fill: #008fd5; stroke: #008fd5"/>
     <use xlink:href="#m0c7ecd123d" x="251.374533" y="106.397676" style="fill: #008fd5; stroke: #008fd5"/>
     <use xlink:href="#m0c7ecd123d" x="287.952362" y="153.692227" style="fill: #008fd5; stroke: #008fd5"/>
     <use xlink:href="#m0c7ecd123d" x="52.842102" y="21.046" style="fill: #008fd5; stroke: #008fd5"/>
     <use xlink:href="#m0c7ecd123d" x="377.496648" y="208.694751" style="fill: #008fd5; stroke: #008fd5"/>
     <use xlink:href="#m0c7ecd123d" x="330.484994" y="169.579804" style="fill: #008fd5; stroke: #008fd5"/>
     <use xlink:href="#m0c7ecd123d" x="118.419206" y="70.529871" style="fill: #008fd5; stroke: #008fd5"/>
     <use xlink:href="#m0c7ecd123d" x="107.983843" y="60.435538" style="fill: #008fd5; stroke: #008fd5"/>
     <use xlink:href="#m0c7ecd123d" x="108.524022" y="49.780386" style="fill: #008fd5; stroke: #008fd5"/>
     <use xlink:href="#m0c7ecd123d" x="149.848652" y="101.178546" style="fill: #008fd5; stroke: #008fd5"/>
     <use xlink:href="#m0c7ecd123d" x="225.261084" y="75.633574" style="fill: #008fd5; stroke: #008fd5"/>
     <use xlink:href="#m0c7ecd123d" x="193.52102" y="127.300655" style="fill: #008fd5; stroke: #008fd5"/>
     <use xlink:href="#m0c7ecd123d" x="145.398373" y="107.639501" style="fill: #008fd5; stroke: #008fd5"/>
     <use xlink:href="#m0c7ecd123d" x="255.046723" y="111.538714" style="fill: #008fd5; stroke: #008fd5"/>
     <use xlink:href="#m0c7ecd123d" x="93.507261" y="38.157451" style="fill: #008fd5; stroke: #008fd5"/>
     <use xlink:href="#m0c7ecd123d" x="145.711462" y="67.501156" style="fill: #008fd5; stroke: #008fd5"/>
     <use xlink:href="#m0c7ecd123d" x="171.092592" y="80.122806" style="fill: #008fd5; stroke: #008fd5"/>
     <use xlink:href="#m0c7ecd123d" x="201.771384" y="109.721491" style="fill: #008fd5; stroke: #008fd5"/>
     <use xlink:href="#m0c7ecd123d" x="314.320523" y="187.755974" style="fill: #008fd5; stroke: #008fd5"/>
     <use xlink:href="#m0c7ecd123d" x="114.08786" y="63.889079" style="fill: #008fd5; stroke: #008fd5"/>
     <use xlink:href="#m0c7ecd123d" x="221.662725" y="134.487732" style="fill: #008fd5; stroke: #008fd5"/>
     <use xlink:href="#m0c7ecd123d" x="248.399117" y="112.092416" style="fill: #008fd5; stroke: #008fd5"/>
     <use xlink:href="#m0c7ecd123d" x="61.687845" y="43.424946" style="fill: #008fd5; stroke: #008fd5"/>
     <use xlink:href="#m0c7ecd123d" x="253.573439" y="154.250899" style="fill: #008fd5; stroke: #008fd5"/>
     <use xlink:href="#m0c7ecd123d" x="104.11913" y="67.718452" style="fill: #008fd5; stroke: #008fd5"/>
     <use xlink:href="#m0c7ecd123d" x="68.04916" y="34.189453" style="fill: #008fd5; stroke: #008fd5"/>
     <use xlink:href="#m0c7ecd123d" x="370.306658" y="210.376231" style="fill: #008fd5; stroke: #008fd5"/>
     <use xlink:href="#m0c7ecd123d" x="376.0337" y="219.127587" style="fill: #008fd5; stroke: #008fd5"/>
     <use xlink:href="#m0c7ecd123d" x="322.261877" y="166.965862" style="fill: #008fd5; stroke: #008fd5"/>
     <use xlink:href="#m0c7ecd123d" x="149.975708" y="77.937726" style="fill: #008fd5; stroke: #008fd5"/>
     <use xlink:href="#m0c7ecd123d" x="79.204872" y="59.707926" style="fill: #008fd5; stroke: #008fd5"/>
     <use xlink:href="#m0c7ecd123d" x="279.799605" y="160.191336" style="fill: #008fd5; stroke: #008fd5"/>
     <use xlink:href="#m0c7ecd123d" x="196.327849" y="101.591665" style="fill: #008fd5; stroke: #008fd5"/>
     <use xlink:href="#m0c7ecd123d" x="87.537708" y="84.358727" style="fill: #008fd5; stroke: #008fd5"/>
     <use xlink:href="#m0c7ecd123d" x="215.145346" y="147.147248" style="fill: #008fd5; stroke: #008fd5"/>
     <use xlink:href="#m0c7ecd123d" x="57.562865" y="53.984491" style="fill: #008fd5; stroke: #008fd5"/>
     <use xlink:href="#m0c7ecd123d" x="356.775996" y="195.425518" style="fill: #008fd5; stroke: #008fd5"/>
     <use xlink:href="#m0c7ecd123d" x="134.301264" y="68.699164" style="fill: #008fd5; stroke: #008fd5"/>
     <use xlink:href="#m0c7ecd123d" x="272.374868" y="113.634377" style="fill: #008fd5; stroke: #008fd5"/>
     <use xlink:href="#m0c7ecd123d" x="152.402877" y="65.719861" style="fill: #008fd5; stroke: #008fd5"/>
     <use xlink:href="#m0c7ecd123d" x="223.65772" y="124.177166" style="fill: #008fd5; stroke: #008fd5"/>
     <use xlink:href="#m0c7ecd123d" x="232.768959" y="125.786468" style="fill: #008fd5; stroke: #008fd5"/>
     <use xlink:href="#m0c7ecd123d" x="109.019881" y="85.042939" style="fill: #008fd5; stroke: #008fd5"/>
    </g>
   </g>
   <g id="line2d_27">
    <defs>
     <path id="m81387b62e0" d="M 0 3 
C 0.795609 3 1.55874 2.683901 2.12132 2.12132 
C 2.683901 1.55874 3 0.795609 3 0 
C 3 -0.795609 2.683901 -1.55874 2.12132 -2.12132 
C 1.55874 -2.683901 0.795609 -3 0 -3 
C -0.795609 -3 -1.55874 -2.683901 -2.12132 -2.12132 
C -2.683901 -1.55874 -3 -0.795609 -3 0 
C -3 0.795609 -2.683901 1.55874 -2.12132 2.12132 
C -1.55874 2.683901 -0.795609 3 0 3 
z
" style="stroke: #008fd5"/>
    </defs>
    <g clip-path="url(#p19c314fd3a)">
     <use xlink:href="#m81387b62e0" x="173.889435" y="89.219328" style="fill: #008fd5; stroke: #008fd5"/>
     <use xlink:href="#m81387b62e0" x="370.932069" y="233.242548" style="fill: #008fd5; stroke: #008fd5"/>
     <use xlink:href="#m81387b62e0" x="296.133097" y="168.391712" style="fill: #008fd5; stroke: #008fd5"/>
     <use xlink:href="#m81387b62e0" x="250.534439" y="160.927042" style="fill: #008fd5; stroke: #008fd5"/>
     <use xlink:href="#m81387b62e0" x="99.158479" y="84.947064" style="fill: #008fd5; stroke: #008fd5"/>
     <use xlink:href="#m81387b62e0" x="99.150231" y="56.087334" style="fill: #008fd5; stroke: #008fd5"/>
     <use xlink:href="#m81387b62e0" x="65.666219" y="45.92763" style="fill: #008fd5; stroke: #008fd5"/>
     <use xlink:href="#m81387b62e0" x="342.021329" y="186.93137" style="fill: #008fd5; stroke: #008fd5"/>
     <use xlink:href="#m81387b62e0" x="251.374533" y="128.316882" style="fill: #008fd5; stroke: #008fd5"/>
     <use xlink:href="#m81387b62e0" x="287.952362" y="175.611433" style="fill: #008fd5; stroke: #008fd5"/>
     <use xlink:href="#m81387b62e0" x="52.842102" y="42.965206" style="fill: #008fd5; stroke: #008fd5"/>
     <use xlink:href="#m81387b62e0" x="377.496648" y="230.613958" style="fill: #008fd5; stroke: #008fd5"/>
     <use xlink:href="#m81387b62e0" x="330.484994" y="191.49901" style="fill: #008fd5; stroke: #008fd5"/>
     <use xlink:href="#m81387b62e0" x="118.419206" y="92.449077" style="fill: #008fd5; stroke: #008fd5"/>
     <use xlink:href="#m81387b62e0" x="107.983843" y="82.354744" style="fill: #008fd5; stroke: #008fd5"/>
     <use xlink:href="#m81387b62e0" x="108.524022" y="71.699592" style="fill: #008fd5; stroke: #008fd5"/>
     <use xlink:href="#m81387b62e0" x="149.848652" y="123.097752" style="fill: #008fd5; stroke: #008fd5"/>
     <use xlink:href="#m81387b62e0" x="225.261084" y="97.55278" style="fill: #008fd5; stroke: #008fd5"/>
     <use xlink:href="#m81387b62e0" x="193.52102" y="149.219862" style="fill: #008fd5; stroke: #008fd5"/>
     <use xlink:href="#m81387b62e0" x="145.398373" y="129.558708" style="fill: #008fd5; stroke: #008fd5"/>
     <use xlink:href="#m81387b62e0" x="255.046723" y="133.45792" style="fill: #008fd5; stroke: #008fd5"/>
     <use xlink:href="#m81387b62e0" x="93.507261" y="60.076657" style="fill: #008fd5; stroke: #008fd5"/>
     <use xlink:href="#m81387b62e0" x="145.711462" y="89.420362" style="fill: #008fd5; stroke: #008fd5"/>
     <use xlink:href="#m81387b62e0" x="171.092592" y="102.042013" style="fill: #008fd5; stroke: #008fd5"/>
     <use xlink:href="#m81387b62e0" x="201.771384" y="131.640698" style="fill: #008fd5; stroke: #008fd5"/>
     <use xlink:href="#m81387b62e0" x="314.320523" y="209.67518" style="fill: #008fd5; stroke: #008fd5"/>
     <use xlink:href="#m81387b62e0" x="114.08786" y="85.808285" style="fill: #008fd5; stroke: #008fd5"/>
     <use xlink:href="#m81387b62e0" x="221.662725" y="156.406938" style="fill: #008fd5; stroke: #008fd5"/>
     <use xlink:href="#m81387b62e0" x="248.399117" y="134.011623" style="fill: #008fd5; stroke: #008fd5"/>
     <use xlink:href="#m81387b62e0" x="61.687845" y="65.344152" style="fill: #008fd5; stroke: #008fd5"/>
     <use xlink:href="#m81387b62e0" x="253.573439" y="176.170106" style="fill: #008fd5; stroke: #008fd5"/>
     <use xlink:href="#m81387b62e0" x="104.11913" y="89.637659" style="fill: #008fd5; stroke: #008fd5"/>
     <use xlink:href="#m81387b62e0" x="68.04916" y="56.108659" style="fill: #008fd5; stroke: #008fd5"/>
     <use xlink:href="#m81387b62e0" x="370.306658" y="232.295438" style="fill: #008fd5; stroke: #008fd5"/>
     <use xlink:href="#m81387b62e0" x="376.0337" y="241.046794" style="fill: #008fd5; stroke: #008fd5"/>
     <use xlink:href="#m81387b62e0" x="322.261877" y="188.885068" style="fill: #008fd5; stroke: #008fd5"/>
     <use xlink:href="#m81387b62e0" x="149.975708" y="99.856933" style="fill: #008fd5; stroke: #008fd5"/>
     <use xlink:href="#m81387b62e0" x="79.204872" y="81.627132" style="fill: #008fd5; stroke: #008fd5"/>
     <use xlink:href="#m81387b62e0" x="279.799605" y="182.110542" style="fill: #008fd5; stroke: #008fd5"/>
     <use xlink:href="#m81387b62e0" x="196.327849" y="123.510872" style="fill: #008fd5; stroke: #008fd5"/>
     <use xlink:href="#m81387b62e0" x="87.537708" y="106.277934" style="fill: #008fd5; stroke: #008fd5"/>
     <use xlink:href="#m81387b62e0" x="215.145346" y="169.066455" style="fill: #008fd5; stroke: #008fd5"/>
     <use xlink:href="#m81387b62e0" x="57.562865" y="75.903697" style="fill: #008fd5; stroke: #008fd5"/>
     <use xlink:href="#m81387b62e0" x="356.775996" y="217.344725" style="fill: #008fd5; stroke: #008fd5"/>
     <use xlink:href="#m81387b62e0" x="134.301264" y="90.618371" style="fill: #008fd5; stroke: #008fd5"/>
     <use xlink:href="#m81387b62e0" x="272.374868" y="135.553584" style="fill: #008fd5; stroke: #008fd5"/>
     <use xlink:href="#m81387b62e0" x="152.402877" y="87.639067" style="fill: #008fd5; stroke: #008fd5"/>
     <use xlink:href="#m81387b62e0" x="223.65772" y="146.096372" style="fill: #008fd5; stroke: #008fd5"/>
     <use xlink:href="#m81387b62e0" x="232.768959" y="147.705674" style="fill: #008fd5; stroke: #008fd5"/>
     <use xlink:href="#m81387b62e0" x="109.019881" y="106.962145" style="fill: #008fd5; stroke: #008fd5"/>
    </g>
   </g>
   <g id="patch_3">
    <path d="M 36.609375 275.062 
L 36.609375 8.95 
" style="fill: none; stroke: #000000; stroke-width: 0.8; stroke-linejoin: miter; stroke-linecap: square"/>
   </g>
   <g id="patch_4">
    <path d="M 393.729375 275.062 
L 393.729375 8.95 
" style="fill: none; stroke: #000000; stroke-width: 0.8; stroke-linejoin: miter; stroke-linecap: square"/>
   </g>
   <g id="patch_5">
    <path d="M 36.609375 275.062 
L 393.729375 275.062 
" style="fill: none; stroke: #000000; stroke-width: 0.8; stroke-linejoin: miter; stroke-linecap: square"/>
   </g>
   <g id="patch_6">
    <path d="M 36.609375 8.95 
L 393.729375 8.95 
" style="fill: none; stroke: #000000; stroke-width: 0.8; stroke-linejoin: miter; stroke-linecap: square"/>
   </g>
  </g>
 </g>
 <defs>
  <clipPath id="p19c314fd3a">
   <rect x="36.609375" y="8.95" width="357.12" height="266.112"/>
  </clipPath>
 </defs>
</svg>
