<?xml version="1.0" encoding="utf-8" standalone="no"?>
<!DOCTYPE svg PUBLIC "-//W3C//DTD SVG 1.1//EN"
  "http://www.w3.org/Graphics/SVG/1.1/DTD/svg11.dtd">
<!-- Created with matplotlib (https://matplotlib.org/) -->
<svg height="310.86825pt" version="1.1" viewBox="0 0 406.940312 310.86825" width="406.940312pt" xmlns="http://www.w3.org/2000/svg" xmlns:xlink="http://www.w3.org/1999/xlink">
 <metadata>
  <rdf:RDF xmlns:cc="http://creativecommons.org/ns#" xmlns:dc="http://purl.org/dc/elements/1.1/" xmlns:rdf="http://www.w3.org/1999/02/22-rdf-syntax-ns#">
   <cc:Work>
    <dc:type rdf:resource="http://purl.org/dc/dcmitype/StillImage"/>
    <dc:date>2020-12-07T13:54:06.173120</dc:date>
    <dc:format>image/svg+xml</dc:format>
    <dc:creator>
     <cc:Agent>
      <dc:title>Matplotlib v3.3.2, https://matplotlib.org/</dc:title>
     </cc:Agent>
    </dc:creator>
   </cc:Work>
  </rdf:RDF>
 </metadata>
 <defs>
  <style type="text/css">*{stroke-linecap:butt;stroke-linejoin:round;}</style>
 </defs>
 <g id="figure_1">
  <g id="patch_1">
   <path d="M 0 310.86825 
L 406.940312 310.86825 
L 406.940312 0 
L 0 0 
z
" style="fill:#ffffff;"/>
  </g>
  <g id="axes_1">
   <g id="patch_2">
    <path d="M 42.620313 273.312 
L 399.740313 273.312 
L 399.740313 7.2 
L 42.620313 7.2 
z
" style="fill:#ffffff;"/>
   </g>
   <g id="matplotlib.axis_1">
    <g id="xtick_1">
     <g id="line2d_1">
      <defs>
       <path d="M 0 0 
L 0 3.5 
" id="mb702bb1c45" style="stroke:#000000;stroke-width:0.8;"/>
      </defs>
      <g>
       <use style="stroke:#000000;stroke-width:0.8;" x="51.813462" xlink:href="#mb702bb1c45" y="273.312"/>
      </g>
     </g>
     <g id="text_1">
      <!-- 0 -->
      <g transform="translate(48.632212 287.910437)scale(0.1 -0.1)">
       <defs>
        <path d="M 31.78125 66.40625 
Q 24.171875 66.40625 20.328125 58.90625 
Q 16.5 51.421875 16.5 36.375 
Q 16.5 21.390625 20.328125 13.890625 
Q 24.171875 6.390625 31.78125 6.390625 
Q 39.453125 6.390625 43.28125 13.890625 
Q 47.125 21.390625 47.125 36.375 
Q 47.125 51.421875 43.28125 58.90625 
Q 39.453125 66.40625 31.78125 66.40625 
z
M 31.78125 74.21875 
Q 44.046875 74.21875 50.515625 64.515625 
Q 56.984375 54.828125 56.984375 36.375 
Q 56.984375 17.96875 50.515625 8.265625 
Q 44.046875 -1.421875 31.78125 -1.421875 
Q 19.53125 -1.421875 13.0625 8.265625 
Q 6.59375 17.96875 6.59375 36.375 
Q 6.59375 54.828125 13.0625 64.515625 
Q 19.53125 74.21875 31.78125 74.21875 
z
" id="DejaVuSans-48"/>
       </defs>
       <use xlink:href="#DejaVuSans-48"/>
      </g>
     </g>
    </g>
    <g id="xtick_2">
     <g id="line2d_2">
      <g>
       <use style="stroke:#000000;stroke-width:0.8;" x="120.210359" xlink:href="#mb702bb1c45" y="273.312"/>
      </g>
     </g>
     <g id="text_2">
      <!-- 1 -->
      <g transform="translate(117.029109 287.910437)scale(0.1 -0.1)">
       <defs>
        <path d="M 12.40625 8.296875 
L 28.515625 8.296875 
L 28.515625 63.921875 
L 10.984375 60.40625 
L 10.984375 69.390625 
L 28.421875 72.90625 
L 38.28125 72.90625 
L 38.28125 8.296875 
L 54.390625 8.296875 
L 54.390625 0 
L 12.40625 0 
z
" id="DejaVuSans-49"/>
       </defs>
       <use xlink:href="#DejaVuSans-49"/>
      </g>
     </g>
    </g>
    <g id="xtick_3">
     <g id="line2d_3">
      <g>
       <use style="stroke:#000000;stroke-width:0.8;" x="188.607257" xlink:href="#mb702bb1c45" y="273.312"/>
      </g>
     </g>
     <g id="text_3">
      <!-- 2 -->
      <g transform="translate(185.426007 287.910437)scale(0.1 -0.1)">
       <defs>
        <path d="M 19.1875 8.296875 
L 53.609375 8.296875 
L 53.609375 0 
L 7.328125 0 
L 7.328125 8.296875 
Q 12.9375 14.109375 22.625 23.890625 
Q 32.328125 33.6875 34.8125 36.53125 
Q 39.546875 41.84375 41.421875 45.53125 
Q 43.3125 49.21875 43.3125 52.78125 
Q 43.3125 58.59375 39.234375 62.25 
Q 35.15625 65.921875 28.609375 65.921875 
Q 23.96875 65.921875 18.8125 64.3125 
Q 13.671875 62.703125 7.8125 59.421875 
L 7.8125 69.390625 
Q 13.765625 71.78125 18.9375 73 
Q 24.125 74.21875 28.421875 74.21875 
Q 39.75 74.21875 46.484375 68.546875 
Q 53.21875 62.890625 53.21875 53.421875 
Q 53.21875 48.921875 51.53125 44.890625 
Q 49.859375 40.875 45.40625 35.40625 
Q 44.1875 33.984375 37.640625 27.21875 
Q 31.109375 20.453125 19.1875 8.296875 
z
" id="DejaVuSans-50"/>
       </defs>
       <use xlink:href="#DejaVuSans-50"/>
      </g>
     </g>
    </g>
    <g id="xtick_4">
     <g id="line2d_4">
      <g>
       <use style="stroke:#000000;stroke-width:0.8;" x="257.004154" xlink:href="#mb702bb1c45" y="273.312"/>
      </g>
     </g>
     <g id="text_4">
      <!-- 3 -->
      <g transform="translate(253.822904 287.910437)scale(0.1 -0.1)">
       <defs>
        <path d="M 40.578125 39.3125 
Q 47.65625 37.796875 51.625 33 
Q 55.609375 28.21875 55.609375 21.1875 
Q 55.609375 10.40625 48.1875 4.484375 
Q 40.765625 -1.421875 27.09375 -1.421875 
Q 22.515625 -1.421875 17.65625 -0.515625 
Q 12.796875 0.390625 7.625 2.203125 
L 7.625 11.71875 
Q 11.71875 9.328125 16.59375 8.109375 
Q 21.484375 6.890625 26.8125 6.890625 
Q 36.078125 6.890625 40.9375 10.546875 
Q 45.796875 14.203125 45.796875 21.1875 
Q 45.796875 27.640625 41.28125 31.265625 
Q 36.765625 34.90625 28.71875 34.90625 
L 20.21875 34.90625 
L 20.21875 43.015625 
L 29.109375 43.015625 
Q 36.375 43.015625 40.234375 45.921875 
Q 44.09375 48.828125 44.09375 54.296875 
Q 44.09375 59.90625 40.109375 62.90625 
Q 36.140625 65.921875 28.71875 65.921875 
Q 24.65625 65.921875 20.015625 65.03125 
Q 15.375 64.15625 9.8125 62.3125 
L 9.8125 71.09375 
Q 15.4375 72.65625 20.34375 73.4375 
Q 25.25 74.21875 29.59375 74.21875 
Q 40.828125 74.21875 47.359375 69.109375 
Q 53.90625 64.015625 53.90625 55.328125 
Q 53.90625 49.265625 50.4375 45.09375 
Q 46.96875 40.921875 40.578125 39.3125 
z
" id="DejaVuSans-51"/>
       </defs>
       <use xlink:href="#DejaVuSans-51"/>
      </g>
     </g>
    </g>
    <g id="xtick_5">
     <g id="line2d_5">
      <g>
       <use style="stroke:#000000;stroke-width:0.8;" x="325.401052" xlink:href="#mb702bb1c45" y="273.312"/>
      </g>
     </g>
     <g id="text_5">
      <!-- 4 -->
      <g transform="translate(322.219802 287.910437)scale(0.1 -0.1)">
       <defs>
        <path d="M 37.796875 64.3125 
L 12.890625 25.390625 
L 37.796875 25.390625 
z
M 35.203125 72.90625 
L 47.609375 72.90625 
L 47.609375 25.390625 
L 58.015625 25.390625 
L 58.015625 17.1875 
L 47.609375 17.1875 
L 47.609375 0 
L 37.796875 0 
L 37.796875 17.1875 
L 4.890625 17.1875 
L 4.890625 26.703125 
z
" id="DejaVuSans-52"/>
       </defs>
       <use xlink:href="#DejaVuSans-52"/>
      </g>
     </g>
    </g>
    <g id="xtick_6">
     <g id="line2d_6">
      <g>
       <use style="stroke:#000000;stroke-width:0.8;" x="393.797949" xlink:href="#mb702bb1c45" y="273.312"/>
      </g>
     </g>
     <g id="text_6">
      <!-- 5 -->
      <g transform="translate(390.616699 287.910437)scale(0.1 -0.1)">
       <defs>
        <path d="M 10.796875 72.90625 
L 49.515625 72.90625 
L 49.515625 64.59375 
L 19.828125 64.59375 
L 19.828125 46.734375 
Q 21.96875 47.46875 24.109375 47.828125 
Q 26.265625 48.1875 28.421875 48.1875 
Q 40.625 48.1875 47.75 41.5 
Q 54.890625 34.8125 54.890625 23.390625 
Q 54.890625 11.625 47.5625 5.09375 
Q 40.234375 -1.421875 26.90625 -1.421875 
Q 22.3125 -1.421875 17.546875 -0.640625 
Q 12.796875 0.140625 7.71875 1.703125 
L 7.71875 11.625 
Q 12.109375 9.234375 16.796875 8.0625 
Q 21.484375 6.890625 26.703125 6.890625 
Q 35.15625 6.890625 40.078125 11.328125 
Q 45.015625 15.765625 45.015625 23.390625 
Q 45.015625 31 40.078125 35.4375 
Q 35.15625 39.890625 26.703125 39.890625 
Q 22.75 39.890625 18.8125 39.015625 
Q 14.890625 38.140625 10.796875 36.28125 
z
" id="DejaVuSans-53"/>
       </defs>
       <use xlink:href="#DejaVuSans-53"/>
      </g>
     </g>
    </g>
    <g id="text_7">
     <!-- x -->
     <g transform="translate(218.220938 301.588562)scale(0.1 -0.1)">
      <defs>
       <path d="M 54.890625 54.6875 
L 35.109375 28.078125 
L 55.90625 0 
L 45.3125 0 
L 29.390625 21.484375 
L 13.484375 0 
L 2.875 0 
L 24.125 28.609375 
L 4.6875 54.6875 
L 15.28125 54.6875 
L 29.78125 35.203125 
L 44.28125 54.6875 
z
" id="DejaVuSans-120"/>
      </defs>
      <use xlink:href="#DejaVuSans-120"/>
     </g>
    </g>
   </g>
   <g id="matplotlib.axis_2">
    <g id="ytick_1">
     <g id="line2d_7">
      <defs>
       <path d="M 0 0 
L -3.5 0 
" id="m1067aa97f2" style="stroke:#000000;stroke-width:0.8;"/>
      </defs>
      <g>
       <use style="stroke:#000000;stroke-width:0.8;" x="42.620313" xlink:href="#m1067aa97f2" y="255.150565"/>
      </g>
     </g>
     <g id="text_8">
      <!-- −3 -->
      <g transform="translate(20.878125 258.949784)scale(0.1 -0.1)">
       <defs>
        <path d="M 10.59375 35.5 
L 73.1875 35.5 
L 73.1875 27.203125 
L 10.59375 27.203125 
z
" id="DejaVuSans-8722"/>
       </defs>
       <use xlink:href="#DejaVuSans-8722"/>
       <use x="83.789062" xlink:href="#DejaVuSans-51"/>
      </g>
     </g>
    </g>
    <g id="ytick_2">
     <g id="line2d_8">
      <g>
       <use style="stroke:#000000;stroke-width:0.8;" x="42.620313" xlink:href="#m1067aa97f2" y="223.35279"/>
      </g>
     </g>
     <g id="text_9">
      <!-- −2 -->
      <g transform="translate(20.878125 227.152008)scale(0.1 -0.1)">
       <use xlink:href="#DejaVuSans-8722"/>
       <use x="83.789062" xlink:href="#DejaVuSans-50"/>
      </g>
     </g>
    </g>
    <g id="ytick_3">
     <g id="line2d_9">
      <g>
       <use style="stroke:#000000;stroke-width:0.8;" x="42.620313" xlink:href="#m1067aa97f2" y="191.555014"/>
      </g>
     </g>
     <g id="text_10">
      <!-- −1 -->
      <g transform="translate(20.878125 195.354233)scale(0.1 -0.1)">
       <use xlink:href="#DejaVuSans-8722"/>
       <use x="83.789062" xlink:href="#DejaVuSans-49"/>
      </g>
     </g>
    </g>
    <g id="ytick_4">
     <g id="line2d_10">
      <g>
       <use style="stroke:#000000;stroke-width:0.8;" x="42.620313" xlink:href="#m1067aa97f2" y="159.757239"/>
      </g>
     </g>
     <g id="text_11">
      <!-- 0 -->
      <g transform="translate(29.257813 163.556458)scale(0.1 -0.1)">
       <use xlink:href="#DejaVuSans-48"/>
      </g>
     </g>
    </g>
    <g id="ytick_5">
     <g id="line2d_11">
      <g>
       <use style="stroke:#000000;stroke-width:0.8;" x="42.620313" xlink:href="#m1067aa97f2" y="127.959464"/>
      </g>
     </g>
     <g id="text_12">
      <!-- 1 -->
      <g transform="translate(29.257813 131.758682)scale(0.1 -0.1)">
       <use xlink:href="#DejaVuSans-49"/>
      </g>
     </g>
    </g>
    <g id="ytick_6">
     <g id="line2d_12">
      <g>
       <use style="stroke:#000000;stroke-width:0.8;" x="42.620313" xlink:href="#m1067aa97f2" y="96.161688"/>
      </g>
     </g>
     <g id="text_13">
      <!-- 2 -->
      <g transform="translate(29.257813 99.960907)scale(0.1 -0.1)">
       <use xlink:href="#DejaVuSans-50"/>
      </g>
     </g>
    </g>
    <g id="ytick_7">
     <g id="line2d_13">
      <g>
       <use style="stroke:#000000;stroke-width:0.8;" x="42.620313" xlink:href="#m1067aa97f2" y="64.363913"/>
      </g>
     </g>
     <g id="text_14">
      <!-- 3 -->
      <g transform="translate(29.257813 68.163132)scale(0.1 -0.1)">
       <use xlink:href="#DejaVuSans-51"/>
      </g>
     </g>
    </g>
    <g id="ytick_8">
     <g id="line2d_14">
      <g>
       <use style="stroke:#000000;stroke-width:0.8;" x="42.620313" xlink:href="#m1067aa97f2" y="32.566138"/>
      </g>
     </g>
     <g id="text_15">
      <!-- 4 -->
      <g transform="translate(29.257813 36.365356)scale(0.1 -0.1)">
       <use xlink:href="#DejaVuSans-52"/>
      </g>
     </g>
    </g>
    <g id="text_16">
     <!-- y -->
     <g transform="translate(14.798438 143.215375)rotate(-90)scale(0.1 -0.1)">
      <defs>
       <path d="M 32.171875 -5.078125 
Q 28.375 -14.84375 24.75 -17.8125 
Q 21.140625 -20.796875 15.09375 -20.796875 
L 7.90625 -20.796875 
L 7.90625 -13.28125 
L 13.1875 -13.28125 
Q 16.890625 -13.28125 18.9375 -11.515625 
Q 21 -9.765625 23.484375 -3.21875 
L 25.09375 0.875 
L 2.984375 54.6875 
L 12.5 54.6875 
L 29.59375 11.921875 
L 46.6875 54.6875 
L 56.203125 54.6875 
z
" id="DejaVuSans-121"/>
      </defs>
      <use xlink:href="#DejaVuSans-121"/>
     </g>
    </g>
   </g>
   <g id="LineCollection_1">
    <path clip-path="url(#p7cfda69fe3)" d="M 179.900372 156.413937 
L 179.900372 92.818386 
" style="fill:none;stroke:#ffa500;stroke-width:1.5;"/>
    <path clip-path="url(#p7cfda69fe3)" d="M 376.943006 168.802094 
L 376.943006 105.206544 
" style="fill:none;stroke:#ffa500;stroke-width:1.5;"/>
    <path clip-path="url(#p7cfda69fe3)" d="M 302.144035 135.323843 
L 302.144035 71.728292 
" style="fill:none;stroke:#ffa500;stroke-width:1.5;"/>
    <path clip-path="url(#p7cfda69fe3)" d="M 256.545377 169.733688 
L 256.545377 106.138138 
" style="fill:none;stroke:#ffa500;stroke-width:1.5;"/>
    <path clip-path="url(#p7cfda69fe3)" d="M 105.169417 178.209774 
L 105.169417 114.614223 
" style="fill:none;stroke:#ffa500;stroke-width:1.5;"/>
    <path clip-path="url(#p7cfda69fe3)" d="M 105.161168 154.085054 
L 105.161168 90.489503 
" style="fill:none;stroke:#ffa500;stroke-width:1.5;"/>
    <path clip-path="url(#p7cfda69fe3)" d="M 71.677156 158.051278 
L 71.677156 94.455727 
" style="fill:none;stroke:#ffa500;stroke-width:1.5;"/>
    <path clip-path="url(#p7cfda69fe3)" d="M 348.032267 116.217165 
L 348.032267 52.621614 
" style="fill:none;stroke:#ffa500;stroke-width:1.5;"/>
    <path clip-path="url(#p7cfda69fe3)" d="M 257.385471 148.496795 
L 257.385471 84.901244 
" style="fill:none;stroke:#ffa500;stroke-width:1.5;"/>
    <path clip-path="url(#p7cfda69fe3)" d="M 293.963299 189.914402 
L 293.963299 126.318851 
" style="fill:none;stroke:#ffa500;stroke-width:1.5;"/>
    <path clip-path="url(#p7cfda69fe3)" d="M 58.85304 143.330848 
L 58.85304 79.735298 
" style="fill:none;stroke:#ffa500;stroke-width:1.5;"/>
    <path clip-path="url(#p7cfda69fe3)" d="M 383.507585 191.131092 
L 383.507585 127.535541 
" style="fill:none;stroke:#ffa500;stroke-width:1.5;"/>
    <path clip-path="url(#p7cfda69fe3)" d="M 336.495931 162.682882 
L 336.495931 99.087331 
" style="fill:none;stroke:#ffa500;stroke-width:1.5;"/>
    <path clip-path="url(#p7cfda69fe3)" d="M 124.430144 117.57379 
L 124.430144 53.978239 
" style="fill:none;stroke:#ffa500;stroke-width:1.5;"/>
    <path clip-path="url(#p7cfda69fe3)" d="M 113.99478 99.930382 
L 113.99478 36.334831 
" style="fill:none;stroke:#ffa500;stroke-width:1.5;"/>
    <path clip-path="url(#p7cfda69fe3)" d="M 114.534959 103.259785 
L 114.534959 39.664234 
" style="fill:none;stroke:#ffa500;stroke-width:1.5;"/>
    <path clip-path="url(#p7cfda69fe3)" d="M 155.859589 187.713416 
L 155.859589 124.117865 
" style="fill:none;stroke:#ffa500;stroke-width:1.5;"/>
    <path clip-path="url(#p7cfda69fe3)" d="M 231.272021 189.877034 
L 231.272021 126.281483 
" style="fill:none;stroke:#ffa500;stroke-width:1.5;"/>
    <path clip-path="url(#p7cfda69fe3)" d="M 199.531958 177.331801 
L 199.531958 113.73625 
" style="fill:none;stroke:#ffa500;stroke-width:1.5;"/>
    <path clip-path="url(#p7cfda69fe3)" d="M 151.40931 126.112256 
L 151.40931 62.516705 
" style="fill:none;stroke:#ffa500;stroke-width:1.5;"/>
    <path clip-path="url(#p7cfda69fe3)" d="M 261.05766 171.45087 
L 261.05766 107.855319 
" style="fill:none;stroke:#ffa500;stroke-width:1.5;"/>
    <path clip-path="url(#p7cfda69fe3)" d="M 99.518198 137.215811 
L 99.518198 73.62026 
" style="fill:none;stroke:#ffa500;stroke-width:1.5;"/>
    <path clip-path="url(#p7cfda69fe3)" d="M 151.7224 192.584738 
L 151.7224 128.989187 
" style="fill:none;stroke:#ffa500;stroke-width:1.5;"/>
    <path clip-path="url(#p7cfda69fe3)" d="M 177.103529 216.11917 
L 177.103529 152.523619 
" style="fill:none;stroke:#ffa500;stroke-width:1.5;"/>
    <path clip-path="url(#p7cfda69fe3)" d="M 207.782322 162.480927 
L 207.782322 98.885377 
" style="fill:none;stroke:#ffa500;stroke-width:1.5;"/>
    <path clip-path="url(#p7cfda69fe3)" d="M 320.33146 89.933564 
L 320.33146 26.338013 
" style="fill:none;stroke:#ffa500;stroke-width:1.5;"/>
    <path clip-path="url(#p7cfda69fe3)" d="M 120.098798 137.214351 
L 120.098798 73.6188 
" style="fill:none;stroke:#ffa500;stroke-width:1.5;"/>
    <path clip-path="url(#p7cfda69fe3)" d="M 227.673663 150.231155 
L 227.673663 86.635604 
" style="fill:none;stroke:#ffa500;stroke-width:1.5;"/>
    <path clip-path="url(#p7cfda69fe3)" d="M 254.410054 150.528883 
L 254.410054 86.933332 
" style="fill:none;stroke:#ffa500;stroke-width:1.5;"/>
    <path clip-path="url(#p7cfda69fe3)" d="M 67.698783 166.892533 
L 67.698783 103.296982 
" style="fill:none;stroke:#ffa500;stroke-width:1.5;"/>
    <path clip-path="url(#p7cfda69fe3)" d="M 259.584377 146.006921 
L 259.584377 82.41137 
" style="fill:none;stroke:#ffa500;stroke-width:1.5;"/>
    <path clip-path="url(#p7cfda69fe3)" d="M 110.130067 82.891551 
L 110.130067 19.296 
" style="fill:none;stroke:#ffa500;stroke-width:1.5;"/>
    <path clip-path="url(#p7cfda69fe3)" d="M 74.060098 142.874524 
L 74.060098 79.278974 
" style="fill:none;stroke:#ffa500;stroke-width:1.5;"/>
    <path clip-path="url(#p7cfda69fe3)" d="M 376.317596 124.023839 
L 376.317596 60.428288 
" style="fill:none;stroke:#ffa500;stroke-width:1.5;"/>
    <path clip-path="url(#p7cfda69fe3)" d="M 382.044637 261.216 
L 382.044637 197.620449 
" style="fill:none;stroke:#ffa500;stroke-width:1.5;"/>
    <path clip-path="url(#p7cfda69fe3)" d="M 328.272814 110.191085 
L 328.272814 46.595535 
" style="fill:none;stroke:#ffa500;stroke-width:1.5;"/>
    <path clip-path="url(#p7cfda69fe3)" d="M 155.986646 158.371484 
L 155.986646 94.775934 
" style="fill:none;stroke:#ffa500;stroke-width:1.5;"/>
    <path clip-path="url(#p7cfda69fe3)" d="M 85.21581 144.837242 
L 85.21581 81.241691 
" style="fill:none;stroke:#ffa500;stroke-width:1.5;"/>
    <path clip-path="url(#p7cfda69fe3)" d="M 285.810543 134.744455 
L 285.810543 71.148905 
" style="fill:none;stroke:#ffa500;stroke-width:1.5;"/>
    <path clip-path="url(#p7cfda69fe3)" d="M 202.338787 251.423475 
L 202.338787 187.827924 
" style="fill:none;stroke:#ffa500;stroke-width:1.5;"/>
    <path clip-path="url(#p7cfda69fe3)" d="M 93.548645 139.342439 
L 93.548645 75.746889 
" style="fill:none;stroke:#ffa500;stroke-width:1.5;"/>
    <path clip-path="url(#p7cfda69fe3)" d="M 221.156284 173.876563 
L 221.156284 110.281012 
" style="fill:none;stroke:#ffa500;stroke-width:1.5;"/>
    <path clip-path="url(#p7cfda69fe3)" d="M 63.573803 102.679013 
L 63.573803 39.083462 
" style="fill:none;stroke:#ffa500;stroke-width:1.5;"/>
    <path clip-path="url(#p7cfda69fe3)" d="M 362.786933 179.025849 
L 362.786933 115.430299 
" style="fill:none;stroke:#ffa500;stroke-width:1.5;"/>
    <path clip-path="url(#p7cfda69fe3)" d="M 140.312201 173.492494 
L 140.312201 109.896943 
" style="fill:none;stroke:#ffa500;stroke-width:1.5;"/>
    <path clip-path="url(#p7cfda69fe3)" d="M 278.385806 158.285166 
L 278.385806 94.689615 
" style="fill:none;stroke:#ffa500;stroke-width:1.5;"/>
    <path clip-path="url(#p7cfda69fe3)" d="M 158.413814 134.150354 
L 158.413814 70.554803 
" style="fill:none;stroke:#ffa500;stroke-width:1.5;"/>
    <path clip-path="url(#p7cfda69fe3)" d="M 229.668657 170.557356 
L 229.668657 106.961806 
" style="fill:none;stroke:#ffa500;stroke-width:1.5;"/>
    <path clip-path="url(#p7cfda69fe3)" d="M 238.779896 191.756577 
L 238.779896 128.161027 
" style="fill:none;stroke:#ffa500;stroke-width:1.5;"/>
    <path clip-path="url(#p7cfda69fe3)" d="M 115.030818 116.703674 
L 115.030818 53.108123 
" style="fill:none;stroke:#ffa500;stroke-width:1.5;"/>
   </g>
   <g id="line2d_15">
    <defs>
     <path d="M 0 3 
C 0.795609 3 1.55874 2.683901 2.12132 2.12132 
C 2.683901 1.55874 3 0.795609 3 0 
C 3 -0.795609 2.683901 -1.55874 2.12132 -2.12132 
C 1.55874 -2.683901 0.795609 -3 0 -3 
C -0.795609 -3 -1.55874 -2.683901 -2.12132 -2.12132 
C -2.683901 -1.55874 -3 -0.795609 -3 0 
C -3 0.795609 -2.683901 1.55874 -2.12132 2.12132 
C -1.55874 2.683901 -0.795609 3 0 3 
z
" id="m454b58abce" style="stroke:#ffa500;"/>
    </defs>
    <g clip-path="url(#p7cfda69fe3)">
     <use style="fill:#ffa500;stroke:#ffa500;" x="179.900372" xlink:href="#m454b58abce" y="124.616161"/>
     <use style="fill:#ffa500;stroke:#ffa500;" x="376.943006" xlink:href="#m454b58abce" y="137.004319"/>
     <use style="fill:#ffa500;stroke:#ffa500;" x="302.144035" xlink:href="#m454b58abce" y="103.526068"/>
     <use style="fill:#ffa500;stroke:#ffa500;" x="256.545377" xlink:href="#m454b58abce" y="137.935913"/>
     <use style="fill:#ffa500;stroke:#ffa500;" x="105.169417" xlink:href="#m454b58abce" y="146.411998"/>
     <use style="fill:#ffa500;stroke:#ffa500;" x="105.161168" xlink:href="#m454b58abce" y="122.287278"/>
     <use style="fill:#ffa500;stroke:#ffa500;" x="71.677156" xlink:href="#m454b58abce" y="126.253502"/>
     <use style="fill:#ffa500;stroke:#ffa500;" x="348.032267" xlink:href="#m454b58abce" y="84.419389"/>
     <use style="fill:#ffa500;stroke:#ffa500;" x="257.385471" xlink:href="#m454b58abce" y="116.69902"/>
     <use style="fill:#ffa500;stroke:#ffa500;" x="293.963299" xlink:href="#m454b58abce" y="158.116626"/>
     <use style="fill:#ffa500;stroke:#ffa500;" x="58.85304" xlink:href="#m454b58abce" y="111.533073"/>
     <use style="fill:#ffa500;stroke:#ffa500;" x="383.507585" xlink:href="#m454b58abce" y="159.333316"/>
     <use style="fill:#ffa500;stroke:#ffa500;" x="336.495931" xlink:href="#m454b58abce" y="130.885107"/>
     <use style="fill:#ffa500;stroke:#ffa500;" x="124.430144" xlink:href="#m454b58abce" y="85.776014"/>
     <use style="fill:#ffa500;stroke:#ffa500;" x="113.99478" xlink:href="#m454b58abce" y="68.132606"/>
     <use style="fill:#ffa500;stroke:#ffa500;" x="114.534959" xlink:href="#m454b58abce" y="71.462009"/>
     <use style="fill:#ffa500;stroke:#ffa500;" x="155.859589" xlink:href="#m454b58abce" y="155.915641"/>
     <use style="fill:#ffa500;stroke:#ffa500;" x="231.272021" xlink:href="#m454b58abce" y="158.079258"/>
     <use style="fill:#ffa500;stroke:#ffa500;" x="199.531958" xlink:href="#m454b58abce" y="145.534026"/>
     <use style="fill:#ffa500;stroke:#ffa500;" x="151.40931" xlink:href="#m454b58abce" y="94.314481"/>
     <use style="fill:#ffa500;stroke:#ffa500;" x="261.05766" xlink:href="#m454b58abce" y="139.653094"/>
     <use style="fill:#ffa500;stroke:#ffa500;" x="99.518198" xlink:href="#m454b58abce" y="105.418036"/>
     <use style="fill:#ffa500;stroke:#ffa500;" x="151.7224" xlink:href="#m454b58abce" y="160.786962"/>
     <use style="fill:#ffa500;stroke:#ffa500;" x="177.103529" xlink:href="#m454b58abce" y="184.321394"/>
     <use style="fill:#ffa500;stroke:#ffa500;" x="207.782322" xlink:href="#m454b58abce" y="130.683152"/>
     <use style="fill:#ffa500;stroke:#ffa500;" x="320.33146" xlink:href="#m454b58abce" y="58.135789"/>
     <use style="fill:#ffa500;stroke:#ffa500;" x="120.098798" xlink:href="#m454b58abce" y="105.416575"/>
     <use style="fill:#ffa500;stroke:#ffa500;" x="227.673663" xlink:href="#m454b58abce" y="118.433379"/>
     <use style="fill:#ffa500;stroke:#ffa500;" x="254.410054" xlink:href="#m454b58abce" y="118.731108"/>
     <use style="fill:#ffa500;stroke:#ffa500;" x="67.698783" xlink:href="#m454b58abce" y="135.094757"/>
     <use style="fill:#ffa500;stroke:#ffa500;" x="259.584377" xlink:href="#m454b58abce" y="114.209145"/>
     <use style="fill:#ffa500;stroke:#ffa500;" x="110.130067" xlink:href="#m454b58abce" y="51.093775"/>
     <use style="fill:#ffa500;stroke:#ffa500;" x="74.060098" xlink:href="#m454b58abce" y="111.076749"/>
     <use style="fill:#ffa500;stroke:#ffa500;" x="376.317596" xlink:href="#m454b58abce" y="92.226063"/>
     <use style="fill:#ffa500;stroke:#ffa500;" x="382.044637" xlink:href="#m454b58abce" y="229.418225"/>
     <use style="fill:#ffa500;stroke:#ffa500;" x="328.272814" xlink:href="#m454b58abce" y="78.39331"/>
     <use style="fill:#ffa500;stroke:#ffa500;" x="155.986646" xlink:href="#m454b58abce" y="126.573709"/>
     <use style="fill:#ffa500;stroke:#ffa500;" x="85.21581" xlink:href="#m454b58abce" y="113.039467"/>
     <use style="fill:#ffa500;stroke:#ffa500;" x="285.810543" xlink:href="#m454b58abce" y="102.94668"/>
     <use style="fill:#ffa500;stroke:#ffa500;" x="202.338787" xlink:href="#m454b58abce" y="219.625699"/>
     <use style="fill:#ffa500;stroke:#ffa500;" x="93.548645" xlink:href="#m454b58abce" y="107.544664"/>
     <use style="fill:#ffa500;stroke:#ffa500;" x="221.156284" xlink:href="#m454b58abce" y="142.078788"/>
     <use style="fill:#ffa500;stroke:#ffa500;" x="63.573803" xlink:href="#m454b58abce" y="70.881237"/>
     <use style="fill:#ffa500;stroke:#ffa500;" x="362.786933" xlink:href="#m454b58abce" y="147.228074"/>
     <use style="fill:#ffa500;stroke:#ffa500;" x="140.312201" xlink:href="#m454b58abce" y="141.694718"/>
     <use style="fill:#ffa500;stroke:#ffa500;" x="278.385806" xlink:href="#m454b58abce" y="126.48739"/>
     <use style="fill:#ffa500;stroke:#ffa500;" x="158.413814" xlink:href="#m454b58abce" y="102.352579"/>
     <use style="fill:#ffa500;stroke:#ffa500;" x="229.668657" xlink:href="#m454b58abce" y="138.759581"/>
     <use style="fill:#ffa500;stroke:#ffa500;" x="238.779896" xlink:href="#m454b58abce" y="159.958802"/>
     <use style="fill:#ffa500;stroke:#ffa500;" x="115.030818" xlink:href="#m454b58abce" y="84.905898"/>
    </g>
   </g>
   <g id="patch_3">
    <path d="M 42.620313 273.312 
L 42.620313 7.2 
" style="fill:none;stroke:#000000;stroke-linecap:square;stroke-linejoin:miter;stroke-width:0.8;"/>
   </g>
   <g id="patch_4">
    <path d="M 399.740313 273.312 
L 399.740313 7.2 
" style="fill:none;stroke:#000000;stroke-linecap:square;stroke-linejoin:miter;stroke-width:0.8;"/>
   </g>
   <g id="patch_5">
    <path d="M 42.620312 273.312 
L 399.740312 273.312 
" style="fill:none;stroke:#000000;stroke-linecap:square;stroke-linejoin:miter;stroke-width:0.8;"/>
   </g>
   <g id="patch_6">
    <path d="M 42.620312 7.2 
L 399.740312 7.2 
" style="fill:none;stroke:#000000;stroke-linecap:square;stroke-linejoin:miter;stroke-width:0.8;"/>
   </g>
  </g>
 </g>
 <defs>
  <clipPath id="p7cfda69fe3">
   <rect height="266.112" width="357.12" x="42.620313" y="7.2"/>
  </clipPath>
 </defs>
</svg>
