<?xml version="1.0" encoding="utf-8" standalone="no"?>
<!DOCTYPE svg PUBLIC "-//W3C//DTD SVG 1.1//EN"
  "http://www.w3.org/Graphics/SVG/1.1/DTD/svg11.dtd">
<svg height="567.178125pt" version="1.1" viewBox="0 0 567.626787 567.178125" width="567.626787pt" xmlns="http://www.w3.org/2000/svg" xmlns:xlink="http://www.w3.org/1999/xlink">
 <metadata>
  <rdf:RDF xmlns:cc="http://creativecommons.org/ns#" xmlns:dc="http://purl.org/dc/elements/1.1/" xmlns:rdf="http://www.w3.org/1999/02/22-rdf-syntax-ns#">
   <cc:Work>
    <dc:type rdf:resource="http://purl.org/dc/dcmitype/StillImage"/>
    <dc:date>2022-04-07T19:16:31.271487</dc:date>
    <dc:format>image/svg+xml</dc:format>
    <dc:creator>
     <cc:Agent>
      <dc:title>Matplotlib v3.4.2, https://matplotlib.org/</dc:title>
     </cc:Agent>
    </dc:creator>
   </cc:Work>
  </rdf:RDF>
 </metadata>
 <defs>
  <style type="text/css">*{stroke-linecap:butt;stroke-linejoin:round;}</style>
 </defs>
 <g id="figure_1">
  <g id="patch_1">
   <path d="M 0 567.178125 
L 567.626787 567.178125 
L 567.626787 0 
L 0 0 
z
" style="fill:#ffffff;"/>
  </g>
  <g id="axes_1">
   <g id="patch_2">
    <path d="M 48.82 525.85 
L 304.623394 525.85 
L 304.623394 266.525 
L 48.82 266.525 
z
" style="fill:#ffffff;"/>
   </g>
   <g id="matplotlib.axis_1">
    <g id="xtick_1">
     <g id="line2d_1">
      <defs>
       <path d="M 0 0 
L 0 -3.5 
" id="mb6b63b7da2" style="stroke:#000000;stroke-width:0.8;"/>
      </defs>
      <g>
       <use style="stroke:#000000;stroke-width:0.8;" x="112.770848" xlink:href="#mb6b63b7da2" y="525.85"/>
      </g>
     </g>
     <g id="line2d_2">
      <defs>
       <path d="M 0 0 
L 0 3.5 
" id="m5026a3834e" style="stroke:#000000;stroke-width:0.8;"/>
      </defs>
      <g>
       <use style="stroke:#000000;stroke-width:0.8;" x="112.770848" xlink:href="#m5026a3834e" y="266.525"/>
      </g>
     </g>
     <g id="text_1">
      <!-- $\mathdefault{41.95}$ -->
      <g transform="translate(98.965848 537.204687)scale(0.11 -0.11)">
       <defs>
        <path d="M 3341 1638 
L 2765 1638 
L 2765 4480 
L 2074 4480 
L 154 1786 
L 154 1062 
L 2074 1062 
L 2074 0 
L 2765 0 
L 2765 1062 
L 3341 1062 
L 3341 1638 
z
M 2061 3610 
L 2074 3610 
L 2074 1638 
L 717 1638 
L 2061 3610 
z
" id="HelveticaNeue-Medium-34" transform="scale(0.015625)"/>
        <path d="M 339 3162 
L 1440 3162 
L 1440 0 
L 2240 0 
L 2240 4480 
L 1645 4480 
C 1536 3942 954 3731 339 3738 
L 339 3162 
z
" id="HelveticaNeue-Medium-31" transform="scale(0.015625)"/>
        <path d="M 442 0 
L 1331 0 
L 1331 864 
L 442 864 
L 442 0 
z
" id="HelveticaNeue-Medium-2e" transform="scale(0.015625)"/>
        <path d="M 1728 3962 
C 2272 3962 2541 3526 2541 3046 
C 2541 2554 2272 2106 1728 2106 
C 1197 2106 947 2560 947 3046 
C 947 3533 1197 3962 1728 3962 
z
M 301 1133 
C 339 403 941 -90 1651 -90 
C 2918 -90 3341 1158 3341 2227 
C 3341 3533 3027 4570 1760 4570 
C 781 4570 218 3910 218 3040 
C 218 2125 787 1530 1632 1530 
C 2042 1530 2406 1722 2598 2067 
L 2611 2054 
C 2566 1466 2477 518 1683 518 
C 1306 518 1062 768 1030 1133 
L 301 1133 
z
" id="HelveticaNeue-Medium-39" transform="scale(0.015625)"/>
        <path d="M 307 2029 
L 1037 2029 
C 1152 2342 1453 2438 1760 2438 
C 2349 2438 2611 1997 2611 1504 
C 2611 960 2400 518 1779 518 
C 1306 518 998 794 954 1274 
L 224 1274 
C 256 378 928 -90 1792 -90 
C 2893 -90 3341 800 3341 1517 
C 3341 2374 2829 3014 1939 3014 
C 1638 3014 1312 2893 1114 2675 
L 1101 2688 
L 1331 3827 
L 3104 3827 
L 3104 4480 
L 787 4480 
L 307 2029 
z
" id="HelveticaNeue-Medium-35" transform="scale(0.015625)"/>
       </defs>
       <use transform="translate(0 0.59375)" xlink:href="#HelveticaNeue-Medium-34"/>
       <use transform="translate(55.599991 0.59375)" xlink:href="#HelveticaNeue-Medium-31"/>
       <use transform="translate(111.199982 0.59375)" xlink:href="#HelveticaNeue-Medium-2e"/>
       <use transform="translate(138.999969 0.59375)" xlink:href="#HelveticaNeue-Medium-39"/>
       <use transform="translate(194.59996 0.59375)" xlink:href="#HelveticaNeue-Medium-35"/>
      </g>
     </g>
    </g>
    <g id="xtick_2">
     <g id="line2d_3">
      <g>
       <use style="stroke:#000000;stroke-width:0.8;" x="176.721697" xlink:href="#mb6b63b7da2" y="525.85"/>
      </g>
     </g>
     <g id="line2d_4">
      <g>
       <use style="stroke:#000000;stroke-width:0.8;" x="176.721697" xlink:href="#m5026a3834e" y="266.525"/>
      </g>
     </g>
     <g id="text_2">
      <!-- $\mathdefault{42.00}$ -->
      <g transform="translate(162.916697 537.204687)scale(0.11 -0.11)">
       <defs>
        <path d="M 3309 653 
L 1126 653 
C 1254 1050 1798 1325 2317 1683 
C 2829 2042 3315 2483 3315 3194 
C 3315 3770 2970 4570 1875 4570 
C 877 4570 333 3834 333 2842 
L 1062 2842 
C 1082 3469 1254 3962 1830 3962 
C 2458 3962 2592 3488 2586 3168 
C 2573 2470 1818 2118 1235 1696 
C 634 1293 256 736 250 0 
L 3309 0 
L 3309 653 
z
" id="HelveticaNeue-Medium-32" transform="scale(0.015625)"/>
        <path d="M 1779 518 
C 1139 518 960 1306 960 2240 
C 960 3174 1139 3962 1779 3962 
C 2419 3962 2598 3174 2598 2240 
C 2598 1306 2419 518 1779 518 
z
M 1779 4570 
C 493 4570 230 3258 230 2240 
C 230 1222 493 -90 1779 -90 
C 3066 -90 3328 1222 3328 2240 
C 3328 3258 3066 4570 1779 4570 
z
" id="HelveticaNeue-Medium-30" transform="scale(0.015625)"/>
       </defs>
       <use transform="translate(0 0.59375)" xlink:href="#HelveticaNeue-Medium-34"/>
       <use transform="translate(55.599991 0.59375)" xlink:href="#HelveticaNeue-Medium-32"/>
       <use transform="translate(111.199982 0.59375)" xlink:href="#HelveticaNeue-Medium-2e"/>
       <use transform="translate(138.999969 0.59375)" xlink:href="#HelveticaNeue-Medium-30"/>
       <use transform="translate(194.59996 0.59375)" xlink:href="#HelveticaNeue-Medium-30"/>
      </g>
     </g>
    </g>
    <g id="xtick_3">
     <g id="line2d_5">
      <g>
       <use style="stroke:#000000;stroke-width:0.8;" x="240.672545" xlink:href="#mb6b63b7da2" y="525.85"/>
      </g>
     </g>
     <g id="line2d_6">
      <g>
       <use style="stroke:#000000;stroke-width:0.8;" x="240.672545" xlink:href="#m5026a3834e" y="266.525"/>
      </g>
     </g>
     <g id="text_3">
      <!-- $\mathdefault{42.05}$ -->
      <g transform="translate(226.867545 537.204687)scale(0.11 -0.11)">
       <use transform="translate(0 0.59375)" xlink:href="#HelveticaNeue-Medium-34"/>
       <use transform="translate(55.599991 0.59375)" xlink:href="#HelveticaNeue-Medium-32"/>
       <use transform="translate(111.199982 0.59375)" xlink:href="#HelveticaNeue-Medium-2e"/>
       <use transform="translate(138.999969 0.59375)" xlink:href="#HelveticaNeue-Medium-30"/>
       <use transform="translate(194.59996 0.59375)" xlink:href="#HelveticaNeue-Medium-35"/>
      </g>
     </g>
    </g>
    <g id="text_4">
     <!-- mean -->
     <g transform="translate(158.830134 557.305)scale(0.14 -0.14)">
      <defs>
       <path d="M 384 0 
L 1114 0 
L 1114 1965 
C 1114 2515 1459 2822 1837 2822 
C 2278 2822 2419 2579 2419 2125 
L 2419 0 
L 3149 0 
L 3149 1939 
C 3149 2496 3360 2822 3853 2822 
C 4422 2822 4454 2458 4454 1933 
L 4454 0 
L 5184 0 
L 5184 2285 
C 5184 3091 4774 3398 4077 3398 
C 3597 3398 3283 3187 3040 2848 
C 2893 3226 2515 3398 2112 3398 
C 1587 3398 1312 3174 1094 2848 
L 1075 2848 
L 1075 3309 
L 384 3309 
L 384 0 
z
" id="HelveticaNeue-Medium-6d" transform="scale(0.015625)"/>
       <path d="M 3386 1466 
C 3507 2458 2867 3398 1824 3398 
C 838 3398 224 2592 224 1651 
C 224 634 806 -90 1843 -90 
C 2566 -90 3181 314 3341 1037 
L 2650 1037 
C 2522 672 2266 486 1843 486 
C 1235 486 954 947 954 1466 
L 3386 1466 
z
M 954 1946 
C 973 2438 1318 2822 1824 2822 
C 2317 2822 2630 2406 2656 1946 
L 954 1946 
z
" id="HelveticaNeue-Medium-65" transform="scale(0.015625)"/>
       <path d="M 2426 1114 
C 2426 653 1926 486 1606 486 
C 1350 486 934 582 934 909 
C 934 1293 1216 1408 1530 1459 
C 1850 1517 2202 1510 2426 1658 
L 2426 1114 
z
M 3155 2438 
C 3155 3136 2477 3398 1830 3398 
C 1101 3398 378 3149 326 2298 
L 1056 2298 
C 1088 2656 1376 2822 1786 2822 
C 2080 2822 2470 2752 2470 2374 
C 2470 1946 2003 2003 1478 1907 
C 864 1837 205 1702 205 877 
C 205 230 742 -90 1338 -90 
C 1728 -90 2195 32 2483 314 
C 2541 13 2752 -90 3046 -90 
C 3168 -90 3398 -45 3507 -6 
L 3507 499 
C 3430 486 3373 486 3328 486 
C 3194 486 3155 557 3155 736 
L 3155 2438 
z
" id="HelveticaNeue-Medium-61" transform="scale(0.015625)"/>
       <path d="M 384 0 
L 1114 0 
L 1114 1952 
C 1114 2438 1427 2822 1914 2822 
C 2342 2822 2547 2598 2560 2080 
L 2560 0 
L 3290 0 
L 3290 2272 
C 3290 3014 2835 3398 2118 3398 
C 1683 3398 1306 3174 1088 2810 
L 1075 2822 
L 1075 3309 
L 384 3309 
L 384 0 
z
" id="HelveticaNeue-Medium-6e" transform="scale(0.015625)"/>
      </defs>
      <use xlink:href="#HelveticaNeue-Medium-6d"/>
      <use x="86.999985" xlink:href="#HelveticaNeue-Medium-65"/>
      <use x="142.599976" xlink:href="#HelveticaNeue-Medium-61"/>
      <use x="198.199966" xlink:href="#HelveticaNeue-Medium-6e"/>
     </g>
    </g>
   </g>
   <g id="matplotlib.axis_2">
    <g id="ytick_1">
     <g id="line2d_7">
      <defs>
       <path d="M 0 0 
L 3.5 0 
" id="m7928adb748" style="stroke:#000000;stroke-width:0.8;"/>
      </defs>
      <g>
       <use style="stroke:#000000;stroke-width:0.8;" x="48.82" xlink:href="#m7928adb748" y="461.01875"/>
      </g>
     </g>
     <g id="line2d_8">
      <defs>
       <path d="M 0 0 
L -3.5 0 
" id="m49a08bec00" style="stroke:#000000;stroke-width:0.8;"/>
      </defs>
      <g>
       <use style="stroke:#000000;stroke-width:0.8;" x="304.623394" xlink:href="#m49a08bec00" y="461.01875"/>
      </g>
     </g>
     <g id="text_5">
      <!-- $\mathdefault{0.05}$ -->
      <g transform="translate(23.87 464.946094)scale(0.11 -0.11)">
       <use transform="translate(0 0.59375)" xlink:href="#HelveticaNeue-Medium-30"/>
       <use transform="translate(55.599991 0.59375)" xlink:href="#HelveticaNeue-Medium-2e"/>
       <use transform="translate(83.399979 0.59375)" xlink:href="#HelveticaNeue-Medium-30"/>
       <use transform="translate(138.999969 0.59375)" xlink:href="#HelveticaNeue-Medium-35"/>
      </g>
     </g>
    </g>
    <g id="ytick_2">
     <g id="line2d_9">
      <g>
       <use style="stroke:#000000;stroke-width:0.8;" x="48.82" xlink:href="#m7928adb748" y="396.1875"/>
      </g>
     </g>
     <g id="line2d_10">
      <g>
       <use style="stroke:#000000;stroke-width:0.8;" x="304.623394" xlink:href="#m49a08bec00" y="396.1875"/>
      </g>
     </g>
     <g id="text_6">
      <!-- $\mathdefault{0.10}$ -->
      <g transform="translate(23.87 400.114844)scale(0.11 -0.11)">
       <use transform="translate(0 0.59375)" xlink:href="#HelveticaNeue-Medium-30"/>
       <use transform="translate(55.599991 0.59375)" xlink:href="#HelveticaNeue-Medium-2e"/>
       <use transform="translate(83.399979 0.59375)" xlink:href="#HelveticaNeue-Medium-31"/>
       <use transform="translate(138.999969 0.59375)" xlink:href="#HelveticaNeue-Medium-30"/>
      </g>
     </g>
    </g>
    <g id="ytick_3">
     <g id="line2d_11">
      <g>
       <use style="stroke:#000000;stroke-width:0.8;" x="48.82" xlink:href="#m7928adb748" y="331.35625"/>
      </g>
     </g>
     <g id="line2d_12">
      <g>
       <use style="stroke:#000000;stroke-width:0.8;" x="304.623394" xlink:href="#m49a08bec00" y="331.35625"/>
      </g>
     </g>
     <g id="text_7">
      <!-- $\mathdefault{0.15}$ -->
      <g transform="translate(23.87 335.283594)scale(0.11 -0.11)">
       <use transform="translate(0 0.59375)" xlink:href="#HelveticaNeue-Medium-30"/>
       <use transform="translate(55.599991 0.59375)" xlink:href="#HelveticaNeue-Medium-2e"/>
       <use transform="translate(83.399979 0.59375)" xlink:href="#HelveticaNeue-Medium-31"/>
       <use transform="translate(138.999969 0.59375)" xlink:href="#HelveticaNeue-Medium-35"/>
      </g>
     </g>
    </g>
    <g id="text_8">
     <!-- scatter -->
     <g transform="translate(17.196875 418.621406)rotate(-90)scale(0.14 -0.14)">
      <defs>
       <path d="M 205 1062 
C 218 282 838 -90 1670 -90 
C 2355 -90 3149 198 3149 986 
C 3149 1638 2611 1830 2080 1952 
C 1542 2074 1005 2125 1005 2483 
C 1005 2771 1395 2822 1606 2822 
C 1926 2822 2214 2726 2278 2381 
L 3040 2381 
C 2950 3117 2336 3398 1658 3398 
C 1056 3398 275 3174 275 2451 
C 275 1779 800 1587 1338 1472 
C 1869 1350 2400 1306 2419 922 
C 2438 544 1958 486 1683 486 
C 1293 486 973 640 934 1062 
L 205 1062 
z
" id="HelveticaNeue-Medium-73" transform="scale(0.015625)"/>
       <path d="M 3347 2202 
C 3277 3014 2624 3398 1856 3398 
C 768 3398 224 2618 224 1619 
C 224 646 794 -90 1830 -90 
C 2682 -90 3213 384 3347 1242 
L 2618 1242 
C 2547 768 2253 486 1830 486 
C 1197 486 954 1069 954 1619 
C 954 2624 1485 2822 1862 2822 
C 2266 2822 2560 2605 2618 2202 
L 3347 2202 
z
" id="HelveticaNeue-Medium-63" transform="scale(0.015625)"/>
       <path d="M 51 2765 
L 602 2765 
L 602 813 
C 614 262 755 -32 1517 -32 
C 1677 -32 1830 -6 1990 6 
L 1990 570 
C 1888 544 1786 544 1683 544 
C 1357 544 1331 698 1331 998 
L 1331 2765 
L 1990 2765 
L 1990 3309 
L 1331 3309 
L 1331 4301 
L 602 4301 
L 602 3309 
L 51 3309 
L 51 2765 
z
" id="HelveticaNeue-Medium-74" transform="scale(0.015625)"/>
       <path d="M 384 0 
L 1114 0 
L 1114 1574 
C 1114 2304 1510 2707 2010 2707 
C 2112 2707 2221 2688 2323 2675 
L 2323 3379 
C 2259 3386 2214 3398 2048 3398 
C 1600 3398 1165 3021 1082 2669 
L 1069 2669 
L 1069 3309 
L 384 3309 
L 384 0 
z
" id="HelveticaNeue-Medium-72" transform="scale(0.015625)"/>
      </defs>
      <use xlink:href="#HelveticaNeue-Medium-73"/>
      <use x="51.899994" xlink:href="#HelveticaNeue-Medium-63"/>
      <use x="107.499985" xlink:href="#HelveticaNeue-Medium-61"/>
      <use x="163.099976" xlink:href="#HelveticaNeue-Medium-74"/>
      <use x="196.399963" xlink:href="#HelveticaNeue-Medium-74"/>
      <use x="229.699951" xlink:href="#HelveticaNeue-Medium-65"/>
      <use x="285.299942" xlink:href="#HelveticaNeue-Medium-72"/>
     </g>
    </g>
   </g>
   <g id="LineCollection_1">
    <path clip-path="url(#pcd60080e56)" d="M 181.583701 425.720973 
L 184.251191 425.869821 
L 187.585553 425.79853 
L 190.253042 425.506748 
L 192.929979 424.97058 
L 194.921149 424.420365 
L 197.617183 423.505786 
L 200.256128 422.416013 
L 202.590182 421.178116 
L 204.68168 419.8438 
L 206.630568 418.379005 
L 208.380899 416.670078 
L 209.486098 415.205284 
L 210.56566 413.252225 
L 211.437352 410.810901 
L 212.56362 405.439988 
L 212.872707 403.242796 
L 212.858022 401.53387 
L 212.565857 400.069075 
L 212.089762 398.848413 
L 211.183316 397.383619 
L 209.586282 395.43056 
L 206.25798 392.540678 
L 203.477505 390.547912 
L 201.589873 389.509791 
L 200.056751 388.838985 
L 198.255511 388.191944 
L 194.587713 387.270886 
L 187.252117 385.999286 
L 183.250882 385.680598 
L 180.916829 385.646498 
L 178.249339 385.79683 
L 175.58185 386.227749 
L 173.258732 386.885926 
L 171.914052 387.449067 
L 169.913434 388.409732 
L 164.911891 391.322159 
L 161.469787 393.721633 
L 160.130179 394.942295 
L 158.91004 396.439686 
L 157.962984 397.871884 
L 156.904983 400.069075 
L 156.441259 401.53387 
L 156.174768 402.998664 
L 156.179604 405.928253 
L 156.434286 407.393047 
L 156.931539 409.101974 
L 158.189542 411.78743 
L 159.69865 414.228754 
L 161.579837 416.670078 
L 163.244711 418.359506 
L 164.695593 419.599667 
L 166.912509 421.136826 
L 169.579998 422.571697 
L 171.580615 423.402931 
L 176.248722 424.837098 
L 178.916212 425.378126 
L 181.583701 425.720973 
L 181.583701 425.720973 
" style="fill:none;stroke:#e41a1c;stroke-width:1.142857;"/>
   </g>
   <g id="LineCollection_2">
    <path clip-path="url(#pcd60080e56)" d="M 180.916829 422.31984 
L 183.584318 422.499983 
L 185.918372 422.465292 
L 188.919298 422.169022 
L 191.253351 421.751522 
L 193.587404 421.14638 
L 195.99395 420.332064 
L 197.922075 419.488618 
L 199.601051 418.623138 
L 201.998108 416.914211 
L 203.306501 415.693549 
L 204.480288 414.228754 
L 205.557577 412.275695 
L 206.060987 410.810901 
L 206.410609 409.101974 
L 206.60715 407.148915 
L 206.613683 404.707591 
L 206.437424 402.998664 
L 205.955635 401.289737 
L 205.249885 399.824943 
L 204.447145 398.604281 
L 203.59049 397.584239 
L 202.331576 396.407089 
L 200.033051 394.698163 
L 197.917077 393.477501 
L 195.921458 392.609175 
L 191.920223 391.379358 
L 188.919298 390.718742 
L 186.585244 390.363007 
L 183.584318 390.10614 
L 181.250265 390.130298 
L 178.582775 390.398303 
L 176.582158 390.816214 
L 174.914977 391.302846 
L 172.498565 392.256839 
L 169.579998 393.826442 
L 165.818451 396.407089 
L 164.492498 397.627751 
L 163.236167 399.092546 
L 162.577171 400.069075 
L 161.837766 401.53387 
L 161.407209 402.754532 
L 161.122104 404.463458 
L 161.100587 405.68412 
L 161.267658 407.148915 
L 161.624096 408.613709 
L 162.178126 410.078504 
L 163.578147 412.78943 
L 164.779978 414.472887 
L 166.305693 416.181814 
L 167.995701 417.646608 
L 169.824184 418.86727 
L 171.247179 419.620132 
L 174.248105 420.858938 
L 176.915595 421.649388 
L 180.249956 422.235003 
L 180.916829 422.31984 
L 180.916829 422.31984 
" style="fill:none;stroke:#e41a1c;stroke-width:1.142857;"/>
   </g>
   <g id="LineCollection_3">
    <path clip-path="url(#pcd60080e56)" d="M 182.917446 416.933339 
L 185.251499 416.946029 
L 187.252117 416.754959 
L 189.252734 416.345764 
L 191.253351 415.726668 
L 192.587096 415.13497 
L 194.254277 414.124159 
L 195.284807 413.252225 
L 196.254894 412.082271 
L 196.921766 410.94605 
L 197.332101 409.834371 
L 197.59442 408.369577 
L 197.637823 406.66065 
L 197.397063 404.951723 
L 196.921766 403.413481 
L 196.198357 402.022134 
L 195.241024 400.801472 
L 194.185973 399.824943 
L 192.587096 398.795641 
L 190.919915 397.997181 
L 188.919298 397.360947 
L 186.91868 396.952559 
L 184.251191 396.700248 
L 181.917137 396.777617 
L 179.561617 397.139486 
L 177.582467 397.682964 
L 174.581541 399.06479 
L 173.247796 399.960554 
L 171.914052 401.184086 
L 170.913743 402.433268 
L 170.354604 403.486929 
L 169.913434 404.744457 
L 169.717959 406.172385 
L 169.794066 407.63718 
L 170.128852 409.101974 
L 170.647524 410.322636 
L 171.392847 411.543298 
L 172.405585 412.76396 
L 173.581233 413.801717 
L 175.444279 414.961152 
L 176.915595 415.632924 
L 178.916212 416.279577 
L 181.250265 416.766107 
L 182.917446 416.933339 
L 182.917446 416.933339 
" style="fill:none;stroke:#e41a1c;stroke-width:1.142857;"/>
   </g>
   <g id="LineCollection_4">
    <path clip-path="url(#pcd60080e56)" d="M 312.093623 568.178125 
L 318.520552 561.499108 
L 327.636649 550.603242 
L 331.095239 545.528574 
L 339.372265 532.100438 
L 345.868844 519.803829 
L 346.628103 518.672302 
L 354.984941 504.525892 
L 364.101038 490.859043 
L 373.742989 478.387892 
L 382.333233 468.572312 
L 385.757162 464.959756 
L 391.44933 457.646164 
L 396.665185 451.531619 
L 400.565427 445.334741 
L 405.714247 438.103483 
L 409.681524 431.407062 
L 414.719537 424.675347 
L 418.663052 411.24721 
L 418.361807 397.819074 
L 413.649152 384.390937 
L 409.681524 378.613279 
L 405.545834 370.962801 
L 400.565427 364.532865 
L 395.504905 357.534664 
L 391.44933 353.140425 
L 383.442466 344.106528 
L 382.333233 343.030098 
L 373.217135 332.715584 
L 371.789614 330.678391 
L 364.101038 321.155178 
L 361.784075 317.250255 
L 354.984941 307.361079 
L 353.082681 303.822119 
L 345.868844 292.41218 
L 344.915763 290.393982 
L 336.752746 275.140824 
L 329.804902 263.537709 
L 327.636649 260.213003 
L 318.520552 248.791792 
L 308.429928 236.681436 
L 298.472692 223.2533 
L 291.17226 212.314514 
L 282.056163 200.908884 
L 279.464712 196.397027 
L 272.940066 190.082553 
L 262.602215 182.968891 
L 254.707871 177.148609 
L 245.591774 172.515989 
L 236.886836 169.540754 
L 236.475677 169.131542 
L 227.359579 161.362962 
L 218.215868 156.112618 
L 209.127385 147.686587 
L 200.727109 142.684481 
L 200.011288 141.769511 
L 190.89519 134.747918 
L 181.779093 132.6443 
L 172.662996 135.302003 
L 164.082083 142.684481 
L 163.546899 142.895848 
L 154.430801 149.012958 
L 147.54055 156.112618 
L 145.314704 157.191656 
L 136.198607 163.210108 
L 129.411613 169.540754 
L 127.08251 170.281394 
L 117.966412 174.000125 
L 108.850315 179.867518 
L 104.94271 182.968891 
L 99.734218 186.416699 
L 90.618121 194.772728 
L 89.051269 196.397027 
L 72.385926 226.213137 
L 66.103196 236.681436 
L 63.269829 241.133022 
L 57.159306 250.109573 
L 45.037634 266.731283 
L 38.313266 276.965846 
L 35.921537 280.829334 
L 30.202213 290.393982 
L 26.80544 297.099461 
L 22.706941 303.822119 
L 17.689343 313.782898 
L 15.378705 317.250255 
L 8.573245 329.285107 
L 7.55599 330.678391 
L -1 344.471985 
M -1 473.176585 
L -0.542852 473.801773 
L 1.820476 478.387892 
L 8.573245 488.926498 
L 9.992946 491.816029 
L 18.020367 505.244165 
L 25.050226 518.672302 
L 26.80544 521.53337 
L 32.208625 532.100438 
L 35.921537 538.218798 
L 40.725102 545.528574 
L 45.037634 551.600897 
L 54.153732 562.111217 
L 59.891782 568.178125 
L 59.891782 568.178125 
" style="fill:none;stroke:#377eb8;stroke-width:1.142857;"/>
   </g>
   <g id="LineCollection_5">
    <path clip-path="url(#pcd60080e56)" d="M 227.712528 568.178125 
L 236.475677 562.219599 
L 240.255815 558.956711 
L 245.591774 554.871293 
L 254.707871 545.576963 
L 254.752302 545.528574 
L 263.823968 535.888887 
L 266.87863 532.100438 
L 272.940066 524.25452 
L 276.962659 518.672302 
L 282.056163 510.818926 
L 285.660764 505.244165 
L 291.17226 495.15408 
L 293.135833 491.816029 
L 299.62596 478.387892 
L 300.288357 476.652051 
L 305.357544 464.959756 
L 309.306988 451.531619 
L 309.404455 451.064871 
L 312.734096 438.103483 
L 314.822769 424.675347 
L 315.587092 411.24721 
L 315.219258 397.819074 
L 313.664596 384.390937 
L 310.711507 370.962801 
L 309.404455 366.809822 
L 306.969866 357.534664 
L 301.707798 344.106528 
L 300.288357 341.196165 
L 295.690661 330.678391 
L 291.17226 322.724471 
L 288.150115 317.250255 
L 282.056163 308.026841 
L 279.509785 303.822119 
L 272.940066 294.165781 
L 270.266882 290.393982 
L 263.823968 281.119507 
L 260.645029 276.965846 
L 254.707871 269.287381 
L 249.547337 263.537709 
L 245.591774 258.79659 
L 236.553843 250.109573 
L 236.475677 250.02165 
L 227.359579 241.151367 
L 220.885503 236.681436 
L 218.243482 234.393099 
L 209.127385 228.384358 
L 200.011288 224.634164 
L 193.865699 223.2533 
L 190.89519 222.343575 
L 181.779093 221.622143 
L 172.662996 222.994247 
L 171.976803 223.2533 
L 163.546899 225.628995 
L 154.430801 230.115867 
L 145.833699 236.681436 
L 145.314704 236.99233 
L 136.198607 244.090874 
L 130.515941 250.109573 
L 127.08251 253.147468 
L 117.966412 263.450548 
L 117.896942 263.537709 
L 108.850315 274.440373 
L 106.998405 276.965846 
L 99.734218 286.538505 
L 97.055301 290.393982 
L 90.618121 300.127596 
L 88.211029 303.822119 
L 81.502023 315.783591 
L 80.636385 317.250255 
L 73.573825 330.678391 
L 72.385926 333.573953 
L 67.493114 344.106528 
L 63.269829 356.892323 
L 63.013238 357.534664 
L 58.887473 370.962801 
L 56.330333 384.390937 
L 55.013794 397.819074 
L 54.778306 411.24721 
L 55.574326 424.675347 
L 57.502797 438.103483 
L 60.812234 451.531619 
L 63.269829 458.468076 
L 65.116144 464.959756 
L 70.389582 478.387892 
L 72.385926 482.441179 
L 76.53879 491.816029 
L 81.502023 500.651183 
L 83.926333 505.244165 
L 90.618121 515.889594 
L 92.35945 518.672302 
L 99.734218 529.194414 
L 101.98969 532.100438 
L 108.850315 540.598167 
L 113.531742 545.528574 
L 117.966412 550.336609 
L 127.08251 558.182677 
L 128.159005 558.956711 
L 136.198607 565.568612 
L 140.778351 568.178125 
" style="fill:none;stroke:#377eb8;stroke-width:1.142857;"/>
   </g>
   <g id="LineCollection_6">
    <path clip-path="url(#pcd60080e56)" d="M 163.546899 507.325743 
L 172.662996 510.604941 
L 181.779093 511.911679 
L 190.89519 511.446447 
L 200.011288 509.129575 
L 208.155931 505.244165 
L 209.127385 504.816261 
L 218.243482 498.851157 
L 225.669444 491.816029 
L 227.359579 490.116168 
L 236.475677 478.421 
L 236.497994 478.387892 
L 244.18799 464.959756 
L 245.591774 461.678108 
L 249.831551 451.531619 
L 253.579685 438.103483 
L 254.707871 431.371646 
L 255.98783 424.675347 
L 257.04622 411.24721 
L 256.633065 397.819074 
L 254.707871 384.615688 
L 254.679708 384.390937 
L 251.634495 370.962801 
L 246.808557 357.534664 
L 245.591774 355.003955 
L 240.091883 344.106528 
L 236.475677 338.324605 
L 230.884615 330.678391 
L 227.359579 326.510406 
L 218.243482 318.120977 
L 216.984895 317.250255 
L 209.127385 311.609196 
L 200.011288 307.454247 
L 190.89519 305.24226 
L 181.779093 304.754929 
L 172.662996 305.920946 
L 163.546899 308.926537 
L 154.430801 314.116329 
L 150.551522 317.250255 
L 145.314704 321.375639 
L 136.744345 330.678391 
L 136.198607 331.350674 
L 127.734514 344.106528 
L 127.08251 345.313214 
L 120.931031 357.534664 
L 117.966412 366.132637 
L 116.26348 370.962801 
L 113.039593 384.390937 
L 111.364087 397.819074 
L 111.055635 411.24721 
L 112.038263 424.675347 
L 114.43701 438.103483 
L 117.966412 449.802776 
L 118.465092 451.531619 
L 123.902152 464.959756 
L 127.08251 470.846386 
L 131.529365 478.387892 
L 136.198607 484.94938 
L 142.28278 491.816029 
L 145.314704 494.980455 
L 154.430801 502.281283 
L 159.918641 505.244165 
L 163.546899 507.325743 
" style="fill:none;stroke:#377eb8;stroke-width:1.142857;"/>
   </g>
   <g id="LineCollection_7">
    <path clip-path="url(#pcd60080e56)" d="M 186.136896 426.041509 
L 188.244322 426.212906 
L 190.652809 426.185868 
L 193.061295 425.913595 
L 195.168721 425.419429 
L 197.577208 424.621011 
L 199.711311 423.605053 
L 201.530196 422.5097 
L 204.895536 420.099922 
L 208.317857 417.252002 
L 210.474353 415.061295 
L 211.653469 413.308729 
L 212.659112 411.337092 
L 213.414789 409.365456 
L 213.751339 407.61289 
L 213.731215 406.736607 
L 213.51246 405.860324 
L 213.141504 404.764971 
L 211.34424 401.69798 
L 210.925594 401.040768 
L 208.065042 395.783071 
L 205.638529 392.935151 
L 204.200546 391.826661 
L 203.075756 391.182585 
L 201.79206 390.612723 
L 199.985695 389.978384 
L 197.276147 389.42198 
L 195.168721 389.285725 
L 192.459174 389.293124 
L 186.136896 389.411068 
L 184.02947 389.328824 
L 175.599767 389.033891 
L 173.19128 389.324403 
L 171.685976 389.745797 
L 170.481733 390.330341 
L 169.426418 391.182585 
L 167.142899 393.373293 
L 164.908433 395.344929 
L 164.934391 395.564 
L 163.557333 396.718783 
L 162.565651 397.754707 
L 162.175761 398.411919 
L 161.825564 399.288202 
L 161.516558 401.040768 
L 161.118917 406.517536 
L 161.215163 406.736607 
L 160.878407 409.584527 
L 160.935553 411.118022 
L 161.206001 412.651517 
L 161.750968 414.271589 
L 162.429618 415.499436 
L 163.564472 417.032931 
L 164.713728 418.347356 
L 166.891517 420.318992 
L 168.374307 421.258357 
L 170.516499 422.290629 
L 172.890219 423.097133 
L 178.533468 424.481336 
L 185.233714 425.918419 
L 186.136896 426.041509 
L 186.136896 426.041509 
" style="fill:none;stroke:#4daf4a;stroke-width:1.142857;"/>
   </g>
   <g id="LineCollection_8">
    <path clip-path="url(#pcd60080e56)" d="M 187.040079 422.94964 
L 189.448565 423.019056 
L 191.555991 422.864342 
L 193.663417 422.476837 
L 195.469782 421.948493 
L 197.878269 420.935306 
L 199.684634 419.859903 
L 201.251843 418.785497 
L 203.297364 416.992957 
L 204.802668 415.451489 
L 206.124887 413.74687 
L 207.211155 411.767569 
L 207.770202 410.241739 
L 207.964683 409.146385 
L 207.993718 407.61289 
L 207.813277 406.584082 
L 207.484784 405.641254 
L 206.840942 404.107758 
L 203.124465 397.754707 
L 202.093121 396.53866 
L 200.888877 395.49965 
L 199.082512 394.407121 
L 196.975086 393.638078 
L 195.168721 393.297808 
L 193.061295 393.094648 
L 190.351748 393.034763 
L 188.545383 393.045867 
L 182.223105 392.841777 
L 177.406132 393.164051 
L 175.900828 393.541813 
L 174.623972 394.030505 
L 172.718612 395.125859 
L 170.481733 396.879599 
L 169.078716 398.192849 
L 167.772185 399.757586 
L 167.170063 400.686581 
L 166.416159 402.136122 
L 165.94371 403.450546 
L 165.579312 404.984041 
L 165.363698 406.527703 
L 165.332672 407.393819 
L 165.282805 408.927314 
L 165.451743 410.46081 
L 165.988609 412.432446 
L 166.449792 413.5278 
L 167.390827 415.061295 
L 168.406221 416.375719 
L 169.57855 417.528741 
L 171.384915 418.900194 
L 173.215352 419.880851 
L 175.298706 420.680676 
L 178.610375 421.559483 
L 184.02947 422.580919 
L 187.040079 422.94964 
L 187.040079 422.94964 
" style="fill:none;stroke:#4daf4a;stroke-width:1.142857;"/>
   </g>
   <g id="LineCollection_9">
    <path clip-path="url(#pcd60080e56)" d="M 186.136896 417.91245 
L 188.244322 417.946283 
L 190.050687 417.812336 
L 191.918423 417.471073 
L 193.362356 417.001655 
L 195.168721 416.099944 
L 196.674026 414.997139 
L 197.878269 413.657991 
L 198.525638 412.651517 
L 199.082512 411.36664 
L 199.398931 410.022668 
L 199.425805 408.489173 
L 199.152552 406.955678 
L 198.604654 405.422183 
L 197.275935 403.231475 
L 196.008938 401.917051 
L 194.826964 401.040768 
L 193.362356 400.365151 
L 191.857052 399.931449 
L 190.050687 399.642014 
L 187.6422 399.46631 
L 183.596344 399.507273 
L 181.319923 399.790235 
L 179.814619 400.122539 
L 178.008254 400.782739 
L 176.750616 401.47891 
L 174.997645 402.942619 
L 174.041219 404.107758 
L 173.445019 405.203112 
L 172.990851 406.736607 
L 172.871905 408.270102 
L 172.960138 409.584527 
L 173.381371 411.118022 
L 174.094463 412.629763 
L 174.696584 413.47634 
L 175.328792 414.185012 
L 177.05187 415.499436 
L 178.309314 416.195768 
L 180.115679 416.880639 
L 182.587784 417.471073 
L 185.233714 417.841938 
L 186.136896 417.91245 
L 186.136896 417.91245 
" style="fill:none;stroke:#4daf4a;stroke-width:1.142857;"/>
   </g>
   <g id="patch_3">
    <path d="M 48.82 525.85 
L 48.82 266.525 
" style="fill:none;stroke:#000000;stroke-linecap:square;stroke-linejoin:miter;stroke-width:0.8;"/>
   </g>
   <g id="patch_4">
    <path d="M 304.623394 525.85 
L 304.623394 266.525 
" style="fill:none;stroke:#000000;stroke-linecap:square;stroke-linejoin:miter;stroke-width:0.8;"/>
   </g>
   <g id="patch_5">
    <path d="M 48.82 525.85 
L 304.623394 525.85 
" style="fill:none;stroke:#000000;stroke-linecap:square;stroke-linejoin:miter;stroke-width:0.8;"/>
   </g>
   <g id="patch_6">
    <path d="M 48.82 266.525 
L 304.623394 266.525 
" style="fill:none;stroke:#000000;stroke-linecap:square;stroke-linejoin:miter;stroke-width:0.8;"/>
   </g>
  </g>
  <g id="axes_2">
   <g id="patch_7">
    <path d="M 48.82 266.525 
L 304.623394 266.525 
L 304.623394 7.2 
L 48.82 7.2 
z
" style="fill:#ffffff;"/>
   </g>
   <g id="matplotlib.axis_3">
    <g id="xtick_4">
     <g id="line2d_13">
      <g>
       <use style="stroke:#000000;stroke-width:0.8;" x="112.770848" xlink:href="#mb6b63b7da2" y="266.525"/>
      </g>
     </g>
    </g>
    <g id="xtick_5">
     <g id="line2d_14">
      <g>
       <use style="stroke:#000000;stroke-width:0.8;" x="176.721697" xlink:href="#mb6b63b7da2" y="266.525"/>
      </g>
     </g>
    </g>
    <g id="xtick_6">
     <g id="line2d_15">
      <g>
       <use style="stroke:#000000;stroke-width:0.8;" x="240.672545" xlink:href="#mb6b63b7da2" y="266.525"/>
      </g>
     </g>
    </g>
   </g>
   <g id="matplotlib.axis_4">
    <g id="ytick_4"/>
    <g id="ytick_5"/>
    <g id="ytick_6"/>
    <g id="ytick_7"/>
    <g id="ytick_8"/>
   </g>
   <g id="line2d_16">
    <path clip-path="url(#p142aff1ad1)" d="M 142.23823 266.524982 
L 150.882148 266.416589 
L 153.126242 266.10959 
L 154.622305 265.628782 
L 156.118367 264.799119 
L 157.61443 263.461305 
L 158.778034 261.888821 
L 160.107868 259.462962 
L 161.022128 257.13303 
L 162.351962 252.544408 
L 162.933764 250.080966 
L 164.097368 244.168913 
L 165.011629 238.256118 
L 166.258348 228.089708 
L 167.421952 217.02276 
L 169.582932 191.688724 
L 171.993255 158.922228 
L 173.904891 132.007088 
L 175.317839 113.105323 
L 178.226849 78.680633 
L 181.052746 49.207917 
L 181.634548 44.289516 
L 182.798152 36.384706 
L 183.546183 33.172208 
L 183.878642 32.164997 
L 184.543559 30.579863 
L 184.626673 30.690236 
L 185.042246 30.65003 
L 185.29159 31.058294 
L 186.122736 33.018845 
L 186.37208 34.087829 
L 187.785028 44.96757 
L 188.533059 52.213677 
L 190.278466 75.388204 
L 192.439445 109.703299 
L 194.932883 151.643155 
L 196.678289 177.576779 
L 197.758779 191.682308 
L 199.753529 213.616958 
L 201.083363 225.281418 
L 202.080738 232.465703 
L 203.493686 240.923709 
L 204.740405 246.789067 
L 205.488436 249.73178 
L 206.319582 252.50133 
L 208.064989 257.325447 
L 210.142854 261.204286 
L 211.88826 263.315245 
L 213.633667 264.763804 
L 215.462188 265.627553 
L 217.456938 266.126134 
L 220.03349 266.41044 
L 222.859386 266.502811 
L 227.26446 266.524251 
L 227.26446 266.524251 
" style="fill:none;stroke:#e41a1c;stroke-width:1.142857;"/>
   </g>
   <g id="line2d_17">
    <path clip-path="url(#p142aff1ad1)" d="M 46.668373 265.756069 
L 48.940714 265.518131 
L 51.213055 265.389392 
L 53.485396 265.42581 
L 55.757737 265.560208 
L 58.030078 265.714432 
L 60.302419 265.802068 
L 62.57476 265.769709 
L 64.847101 265.658449 
L 67.119442 265.496923 
L 69.391783 265.367276 
L 71.664124 265.286106 
L 73.936465 265.289366 
L 76.208806 265.352535 
L 78.481147 265.425799 
L 80.753488 265.403821 
L 83.025829 265.264368 
L 85.298169 265.052681 
L 87.57051 264.876432 
L 89.842851 264.739182 
L 92.115192 264.604284 
L 94.387533 264.387899 
L 96.659874 264.064435 
L 98.932215 263.692348 
L 101.204556 263.307172 
L 103.476897 263.013221 
L 105.749238 262.825858 
L 108.021579 262.770687 
L 110.29392 262.917648 
L 112.566261 263.065533 
L 114.838602 263.09126 
L 117.110943 262.795611 
L 119.383284 262.073227 
L 121.655625 261.017881 
L 123.927966 259.695632 
L 126.200307 258.299864 
L 128.472648 257.119659 
L 130.744989 256.272921 
L 133.01733 255.758895 
L 135.289671 255.339213 
L 137.562011 254.790495 
L 139.834352 253.771013 
L 142.106693 252.223389 
L 144.379034 249.914731 
L 146.651375 246.802786 
L 148.923716 242.680289 
L 151.196057 237.361722 
L 153.468398 230.855536 
L 155.740739 223.642553 
L 158.01308 215.592225 
L 160.285421 206.630014 
L 162.557762 196.743101 
L 164.830103 184.9124 
L 167.102444 170.042693 
L 169.374785 151.521628 
L 171.647126 129.211788 
L 173.919467 104.760111 
L 176.191808 80.773769 
L 178.464149 58.606741 
L 180.73649 41.020448 
L 183.008831 30.829435 
L 185.281172 30.560487 
L 187.553513 40.944749 
L 189.825853 60.444537 
L 192.098194 85.547374 
L 194.370535 111.815943 
L 196.642876 135.934598 
L 198.915217 156.34224 
L 201.187558 172.719202 
L 203.459899 186.874711 
L 205.73224 199.103118 
L 208.004581 209.753143 
L 210.276922 218.66718 
L 212.549263 226.274201 
L 214.821604 232.846758 
L 217.093945 238.331186 
L 219.366286 242.742264 
L 221.638627 246.17027 
L 223.910968 248.735088 
L 226.183309 250.753551 
L 228.45565 252.423612 
L 230.727991 253.997104 
L 233.000332 255.666213 
L 235.272673 257.33891 
L 237.545014 258.810434 
L 239.817354 259.836732 
L 242.089695 260.490685 
L 244.362036 260.885009 
L 246.634377 261.052616 
L 248.906718 261.206474 
L 251.179059 261.349894 
L 253.4514 261.662303 
L 255.723741 262.161831 
L 257.996082 262.756919 
L 260.268423 263.318246 
L 262.540764 263.748864 
L 264.813105 264.099928 
L 267.085446 264.304194 
L 269.357787 264.472655 
L 271.630128 264.619387 
L 273.902469 264.797418 
L 276.17481 264.949887 
L 278.447151 265.028388 
L 280.719492 265.063849 
L 282.991833 265.034171 
L 285.264174 265.063312 
L 287.536515 265.171978 
L 289.808856 265.314938 
L 292.081196 265.496597 
L 294.353537 265.617649 
L 296.625878 265.687305 
L 298.898219 265.646798 
L 301.17056 265.577351 
L 303.442901 265.476402 
L 305.715242 265.42499 
" style="fill:none;stroke:#377eb8;stroke-width:1.142857;"/>
   </g>
   <g id="line2d_18">
    <path clip-path="url(#p142aff1ad1)" d="M 147.601109 266.524045 
L 154.12998 266.409543 
L 156.98167 265.999849 
L 158.557604 265.436581 
L 160.508761 264.131325 
L 162.234784 261.953185 
L 162.910185 260.683251 
L 163.885763 258.358849 
L 164.786297 255.559027 
L 165.911965 250.94754 
L 166.812498 246.397337 
L 167.487899 242.032448 
L 168.613566 233.663355 
L 169.589145 225.020307 
L 171.765435 199.95425 
L 174.467036 160.928343 
L 176.042971 134.789533 
L 178.519439 94.227929 
L 179.344928 81.772834 
L 180.320507 68.74782 
L 182.121574 49.080393 
L 182.872019 42.887778 
L 183.247242 40.5521 
L 184.522998 35.085017 
L 184.673087 34.415086 
L 184.973265 32.966421 
L 185.04831 32.934395 
L 185.348488 32.101148 
L 185.423532 32.067838 
L 185.573621 31.707603 
L 185.648666 31.683234 
L 185.72371 31.793988 
L 185.798755 31.735232 
L 186.173977 30.900742 
L 186.249021 30.934713 
L 186.474155 30.791103 
L 186.549199 30.732647 
L 186.624244 30.955999 
L 186.699288 30.560487 
L 186.774333 30.736726 
L 186.849377 30.630864 
L 187.074511 30.992178 
L 187.299644 31.095724 
L 187.374689 31.001544 
L 187.824956 32.448964 
L 188.200178 33.870354 
L 188.275223 33.964644 
L 189.025668 37.30272 
L 189.100712 37.305483 
L 189.851157 41.863704 
L 191.201958 53.763208 
L 192.027447 63.498113 
L 193.978604 91.181884 
L 195.929761 123.888806 
L 196.980384 143.664956 
L 197.955962 160.654649 
L 198.93154 177.43797 
L 200.732608 203.488912 
L 201.783231 216.425754 
L 203.134032 229.536165 
L 204.409788 239.207339 
L 205.760589 246.429146 
L 206.586078 250.097107 
L 208.162013 255.570026 
L 209.062547 258.010307 
L 210.938659 261.46254 
L 212.739727 263.686267 
L 214.390705 264.921438 
L 216.116729 265.713478 
L 218.14293 266.193964 
L 220.844532 266.445449 
L 224.371623 266.515899 
L 224.371623 266.515899 
" style="fill:none;stroke:#4daf4a;stroke-width:1.142857;"/>
   </g>
   <g id="patch_8">
    <path d="M 48.82 266.525 
L 48.82 7.2 
" style="fill:none;stroke:#000000;stroke-linecap:square;stroke-linejoin:miter;stroke-width:0.8;"/>
   </g>
   <g id="patch_9">
    <path d="M 304.623394 266.525 
L 304.623394 7.2 
" style="fill:none;stroke:#000000;stroke-linecap:square;stroke-linejoin:miter;stroke-width:0.8;"/>
   </g>
   <g id="patch_10">
    <path d="M 48.82 266.525 
L 304.623394 266.525 
" style="fill:none;stroke:#000000;stroke-linecap:square;stroke-linejoin:miter;stroke-width:0.8;"/>
   </g>
   <g id="patch_11">
    <path d="M 48.82 7.2 
L 304.623394 7.2 
" style="fill:none;stroke:#000000;stroke-linecap:square;stroke-linejoin:miter;stroke-width:0.8;"/>
   </g>
  </g>
  <g id="axes_3">
   <g id="patch_12">
    <path d="M 304.623394 525.85 
L 560.426787 525.85 
L 560.426787 266.525 
L 304.623394 266.525 
z
" style="fill:#ffffff;"/>
   </g>
   <g id="matplotlib.axis_5">
    <g id="xtick_7">
     <g id="line2d_19">
      <g>
       <use style="stroke:#000000;stroke-width:0.8;" x="368.574242" xlink:href="#mb6b63b7da2" y="525.85"/>
      </g>
     </g>
     <g id="text_9">
      <!-- $\mathdefault{0.05}$ -->
      <g transform="translate(357.849242 537.204687)scale(0.11 -0.11)">
       <use transform="translate(0 0.59375)" xlink:href="#HelveticaNeue-Medium-30"/>
       <use transform="translate(55.599991 0.59375)" xlink:href="#HelveticaNeue-Medium-2e"/>
       <use transform="translate(83.399979 0.59375)" xlink:href="#HelveticaNeue-Medium-30"/>
       <use transform="translate(138.999969 0.59375)" xlink:href="#HelveticaNeue-Medium-35"/>
      </g>
     </g>
    </g>
    <g id="xtick_8">
     <g id="line2d_20">
      <g>
       <use style="stroke:#000000;stroke-width:0.8;" x="432.52509" xlink:href="#mb6b63b7da2" y="525.85"/>
      </g>
     </g>
     <g id="text_10">
      <!-- $\mathdefault{0.10}$ -->
      <g transform="translate(421.80009 537.204687)scale(0.11 -0.11)">
       <use transform="translate(0 0.59375)" xlink:href="#HelveticaNeue-Medium-30"/>
       <use transform="translate(55.599991 0.59375)" xlink:href="#HelveticaNeue-Medium-2e"/>
       <use transform="translate(83.399979 0.59375)" xlink:href="#HelveticaNeue-Medium-31"/>
       <use transform="translate(138.999969 0.59375)" xlink:href="#HelveticaNeue-Medium-30"/>
      </g>
     </g>
    </g>
    <g id="xtick_9">
     <g id="line2d_21">
      <g>
       <use style="stroke:#000000;stroke-width:0.8;" x="496.475939" xlink:href="#mb6b63b7da2" y="525.85"/>
      </g>
     </g>
     <g id="text_11">
      <!-- $\mathdefault{0.15}$ -->
      <g transform="translate(485.750939 537.204687)scale(0.11 -0.11)">
       <use transform="translate(0 0.59375)" xlink:href="#HelveticaNeue-Medium-30"/>
       <use transform="translate(55.599991 0.59375)" xlink:href="#HelveticaNeue-Medium-2e"/>
       <use transform="translate(83.399979 0.59375)" xlink:href="#HelveticaNeue-Medium-31"/>
       <use transform="translate(138.999969 0.59375)" xlink:href="#HelveticaNeue-Medium-35"/>
      </g>
     </g>
    </g>
    <g id="text_12">
     <!-- scatter -->
     <g transform="translate(410.091184 557.305)scale(0.14 -0.14)">
      <use xlink:href="#HelveticaNeue-Medium-73"/>
      <use x="51.899994" xlink:href="#HelveticaNeue-Medium-63"/>
      <use x="107.499985" xlink:href="#HelveticaNeue-Medium-61"/>
      <use x="163.099976" xlink:href="#HelveticaNeue-Medium-74"/>
      <use x="196.399963" xlink:href="#HelveticaNeue-Medium-74"/>
      <use x="229.699951" xlink:href="#HelveticaNeue-Medium-65"/>
      <use x="285.299942" xlink:href="#HelveticaNeue-Medium-72"/>
     </g>
    </g>
   </g>
   <g id="matplotlib.axis_6">
    <g id="ytick_9"/>
    <g id="ytick_10"/>
    <g id="ytick_11"/>
    <g id="ytick_12"/>
    <g id="ytick_13"/>
   </g>
   <g id="line2d_22">
    <path clip-path="url(#pa0ba843c2d)" d="M 393.777746 525.84995 
L 399.660463 525.742201 
L 401.101128 525.506375 
L 402.1216 525.13727 
L 402.961988 524.605275 
L 403.682321 523.928133 
L 404.462681 522.817403 
L 405.00293 521.745135 
L 406.023402 518.693067 
L 407.043873 514.119471 
L 408.124372 506.393841 
L 408.784677 500.263775 
L 409.925204 486.017117 
L 410.765592 472.438682 
L 412.086202 446.660415 
L 413.226729 419.705408 
L 417.068503 326.92792 
L 418.088974 309.465019 
L 419.52964 293.907607 
L 420.069889 291.126541 
L 420.129917 291.149255 
L 420.430056 289.885487 
L 420.610139 290.037247 
L 420.790222 289.961375 
L 420.85025 290.052589 
L 420.910277 289.990705 
L 421.090361 289.970704 
L 421.270444 290.595841 
L 421.330472 290.545362 
L 421.390499 290.414429 
L 421.450527 290.538177 
L 421.690638 291.061425 
L 421.750666 291.021652 
L 421.930749 291.603397 
L 422.531026 293.510227 
L 422.95122 295.943084 
L 423.311386 297.99073 
L 423.49147 298.903913 
L 424.752052 307.989867 
L 426.3728 326.171603 
L 428.353715 363.451085 
L 431.114991 427.353539 
L 432.915822 462.142753 
L 434.596599 485.967528 
L 435.557042 496.027508 
L 436.93768 506.71157 
L 438.078207 512.882772 
L 438.918595 516.055544 
L 440.299232 519.659507 
L 440.479316 519.995589 
L 441.379732 521.439843 
L 442.460231 522.797923 
L 444.621229 524.274752 
L 445.521644 524.678218 
L 447.982781 525.453395 
L 449.243363 525.658033 
L 451.584445 525.82184 
L 455.186108 525.849744 
L 455.186108 525.849744 
" style="fill:none;stroke:#e41a1c;stroke-width:1.142857;"/>
   </g>
   <g id="line2d_23">
    <path clip-path="url(#pa0ba843c2d)" d="M 301.604195 525.85 
L 304.90593 525.85 
L 308.207665 525.849971 
L 311.5094 525.848561 
L 314.811135 525.829018 
L 318.11287 525.73243 
L 321.414605 525.480012 
L 324.71634 525.152804 
L 328.018075 525.197178 
L 331.31981 525.467371 
L 334.621545 525.516426 
L 337.92328 525.439643 
L 341.225014 525.357678 
L 344.526749 525.259069 
L 347.828484 525.19619 
L 351.130219 525.009344 
L 354.431954 524.649881 
L 357.733689 524.17864 
L 361.035424 523.67094 
L 364.337159 523.452829 
L 367.638894 523.170176 
L 370.940629 522.426673 
L 374.242364 521.693356 
L 377.544099 521.122299 
L 380.845834 519.969943 
L 384.147569 518.0142 
L 387.449304 515.729039 
L 390.751039 513.572761 
L 394.052774 510.311644 
L 397.354509 503.166728 
L 400.656244 491.037048 
L 403.957979 473.487767 
L 407.259713 448.274932 
L 410.561448 412.86399 
L 413.863183 366.817698 
L 417.164918 319.312005 
L 420.466653 289.885487 
L 423.768388 293.38607 
L 427.070123 328.274352 
L 430.371858 377.766222 
L 433.673593 424.647879 
L 436.975328 459.604036 
L 440.277063 480.676171 
L 443.578798 493.520254 
L 446.880533 502.328833 
L 450.182268 507.644127 
L 453.484003 511.217252 
L 456.785738 514.044059 
L 460.087473 516.574517 
L 463.389208 518.902649 
L 466.690943 520.52542 
L 469.992678 521.515621 
L 473.294412 522.222467 
L 476.596147 522.919261 
L 479.897882 523.316686 
L 483.199617 523.376885 
L 486.501352 523.502921 
L 489.803087 523.943496 
L 493.104822 524.430793 
L 496.406557 524.505327 
L 499.708292 524.42961 
L 503.010027 524.655705 
L 506.311762 524.951486 
L 509.613497 525.047552 
L 512.915232 524.990832 
L 516.216967 525.043695 
L 519.518702 525.266562 
L 522.820437 525.329193 
L 526.122172 525.153504 
L 529.423907 525.014283 
L 532.725642 525.11389 
L 536.027377 525.228459 
L 539.329111 525.202508 
L 542.630846 525.196165 
L 545.932581 525.412214 
L 549.234316 525.668729 
L 552.536051 525.696556 
L 555.837786 525.533027 
L 559.139521 525.404115 
L 562.441256 525.397392 
" style="fill:none;stroke:#377eb8;stroke-width:1.142857;"/>
   </g>
   <g id="line2d_24">
    <path clip-path="url(#pa0ba843c2d)" d="M 394.242884 525.85 
L 400.006495 525.741903 
L 401.13767 525.508055 
L 402.214981 524.96966 
L 403.022963 524.219423 
L 403.453887 523.653288 
L 404.531198 521.641908 
L 405.393046 519.185706 
L 406.739684 512.878866 
L 407.978591 503.23099 
L 408.786573 493.926184 
L 409.810018 478.378614 
L 410.618001 462.641762 
L 411.533715 441.498178 
L 414.388587 359.662001 
L 415.088839 340.541002 
L 416.166149 316.740632 
L 417.35119 299.210778 
L 418.590097 290.690844 
L 418.967156 289.885487 
L 419.128752 290.172178 
L 419.182618 289.999307 
L 419.236483 290.175933 
L 419.344214 290.141769 
L 419.505811 290.739824 
L 419.775138 291.487864 
L 420.367659 294.370686 
L 421.014045 299.106081 
L 423.168666 321.171304 
L 424.407573 339.600918 
L 426.131269 376.314703 
L 427.854966 416.789826 
L 429.417066 447.169093 
L 430.386645 460.917219 
L 431.302359 471.333414 
L 434.372693 498.26011 
L 436.311852 512.058978 
L 436.796641 514.791634 
L 436.850507 514.618462 
L 437.496893 517.46109 
L 438.25101 519.99093 
L 439.005127 521.838388 
L 439.974707 523.272436 
L 440.782689 524.089281 
L 441.482941 524.516282 
L 442.021596 524.75139 
L 444.391679 525.417071 
L 447.569744 525.789361 
L 449.347306 525.839466 
L 449.347306 525.839466 
" style="fill:none;stroke:#4daf4a;stroke-width:1.142857;"/>
   </g>
   <g id="patch_13">
    <path d="M 304.623394 525.85 
L 304.623394 266.525 
" style="fill:none;stroke:#000000;stroke-linecap:square;stroke-linejoin:miter;stroke-width:0.8;"/>
   </g>
   <g id="patch_14">
    <path d="M 560.426787 525.85 
L 560.426787 266.525 
" style="fill:none;stroke:#000000;stroke-linecap:square;stroke-linejoin:miter;stroke-width:0.8;"/>
   </g>
   <g id="patch_15">
    <path d="M 304.623394 525.85 
L 560.426787 525.85 
" style="fill:none;stroke:#000000;stroke-linecap:square;stroke-linejoin:miter;stroke-width:0.8;"/>
   </g>
   <g id="patch_16">
    <path d="M 304.623394 266.525 
L 560.426787 266.525 
" style="fill:none;stroke:#000000;stroke-linecap:square;stroke-linejoin:miter;stroke-width:0.8;"/>
   </g>
  </g>
  <g id="legend_1">
   <g id="patch_17">
    <path d="M 406.481787 61.54875 
L 558.026787 61.54875 
Q 560.426787 61.54875 560.426787 59.14875 
L 560.426787 9.6 
Q 560.426787 7.2 558.026787 7.2 
L 406.481787 7.2 
Q 404.081787 7.2 404.081787 9.6 
L 404.081787 59.14875 
Q 404.081787 61.54875 406.481787 61.54875 
z
" style="fill:#ffffff;opacity:0.9;stroke:#cccccc;stroke-linejoin:miter;"/>
   </g>
   <g id="line2d_25">
    <path d="M 412.481787 16.36875 
L 420.881787 16.36875 
L 429.281787 16.36875 
" style="fill:none;stroke:#e41a1c;stroke-width:1.142857;"/>
   </g>
   <g id="line2d_26"/>
   <g id="text_13">
    <!-- Cold start -->
    <g transform="translate(442.481787 20.56875)scale(0.12 -0.12)">
     <defs>
      <path d="M 4371 3117 
C 4275 4102 3462 4672 2432 4678 
C 1062 4678 243 3590 243 2285 
C 243 979 1062 -109 2432 -109 
C 3539 -109 4314 646 4378 1741 
L 3597 1741 
C 3533 1075 3142 544 2432 544 
C 1453 544 1043 1408 1043 2285 
C 1043 3162 1453 4026 2432 4026 
C 3098 4026 3437 3642 3571 3117 
L 4371 3117 
z
" id="HelveticaNeue-Medium-43" transform="scale(0.015625)"/>
      <path d="M 1901 486 
C 1248 486 960 1082 960 1658 
C 960 2227 1248 2822 1901 2822 
C 2554 2822 2842 2227 2842 1658 
C 2842 1082 2554 486 1901 486 
z
M 1901 -90 
C 2963 -90 3571 640 3571 1658 
C 3571 2669 2963 3398 1901 3398 
C 838 3398 230 2669 230 1658 
C 230 640 838 -90 1901 -90 
z
" id="HelveticaNeue-Medium-6f" transform="scale(0.015625)"/>
      <path d="M 403 0 
L 1133 0 
L 1133 4570 
L 403 4570 
L 403 0 
z
" id="HelveticaNeue-Medium-6c" transform="scale(0.015625)"/>
      <path d="M 954 1619 
C 954 2214 1197 2822 1882 2822 
C 2445 2822 2797 2387 2797 1658 
C 2797 1082 2522 486 1869 486 
C 1235 486 954 1050 954 1619 
z
M 3501 4570 
L 2771 4570 
L 2771 2880 
L 2758 2880 
C 2534 3245 2074 3398 1658 3398 
C 934 3398 224 2874 224 1677 
C 224 685 730 -90 1773 -90 
C 2189 -90 2605 70 2797 448 
L 2810 448 
L 2810 0 
L 3501 0 
L 3501 4570 
z
" id="HelveticaNeue-Medium-64" transform="scale(0.015625)"/>
      <path id="HelveticaNeue-Medium-20" transform="scale(0.015625)"/>
     </defs>
     <use xlink:href="#HelveticaNeue-Medium-43"/>
     <use x="72.199982" xlink:href="#HelveticaNeue-Medium-6f"/>
     <use x="131.499969" xlink:href="#HelveticaNeue-Medium-6c"/>
     <use x="155.59996" xlink:href="#HelveticaNeue-Medium-64"/>
     <use x="216.699951" xlink:href="#HelveticaNeue-Medium-20"/>
     <use x="244.499939" xlink:href="#HelveticaNeue-Medium-73"/>
     <use x="296.399933" xlink:href="#HelveticaNeue-Medium-74"/>
     <use x="329.699921" xlink:href="#HelveticaNeue-Medium-61"/>
     <use x="385.299911" xlink:href="#HelveticaNeue-Medium-72"/>
     <use x="420.499908" xlink:href="#HelveticaNeue-Medium-74"/>
    </g>
   </g>
   <g id="line2d_27">
    <path d="M 412.481787 33.22875 
L 420.881787 33.22875 
L 429.281787 33.22875 
" style="fill:none;stroke:#377eb8;stroke-width:1.142857;"/>
   </g>
   <g id="line2d_28"/>
   <g id="text_14">
    <!-- Auxiliary distribution -->
    <g transform="translate(442.481787 37.42875)scale(0.12 -0.12)">
     <defs>
      <path d="M 2118 3782 
L 2138 3782 
L 2822 1818 
L 1427 1818 
L 2118 3782 
z
M -45 0 
L 781 0 
L 1210 1210 
L 3034 1210 
L 3462 0 
L 4320 0 
L 2560 4570 
L 1709 4570 
L -45 0 
z
" id="HelveticaNeue-Medium-41" transform="scale(0.015625)"/>
      <path d="M 3290 3309 
L 2560 3309 
L 2560 1389 
C 2560 877 2355 486 1747 486 
C 1350 486 1114 698 1114 1280 
L 1114 3309 
L 384 3309 
L 384 1210 
C 384 346 755 -90 1619 -90 
C 1984 -90 2381 128 2560 461 
L 2573 461 
L 2573 0 
L 3290 0 
L 3290 3309 
z
" id="HelveticaNeue-Medium-75" transform="scale(0.015625)"/>
      <path d="M 26 0 
L 883 0 
L 1696 1222 
L 2534 0 
L 3411 0 
L 2144 1779 
L 3270 3309 
L 2426 3309 
L 1702 2291 
L 1011 3309 
L 128 3309 
L 1274 1741 
L 26 0 
z
" id="HelveticaNeue-Medium-78" transform="scale(0.015625)"/>
      <path d="M 403 0 
L 1133 0 
L 1133 3309 
L 403 3309 
L 403 0 
z
M 403 3878 
L 1133 3878 
L 1133 4570 
L 403 4570 
L 403 3878 
z
" id="HelveticaNeue-Medium-69" transform="scale(0.015625)"/>
      <path d="M 1274 13 
L 1190 -243 
C 1101 -525 1018 -704 678 -704 
C 563 -704 448 -678 333 -659 
L 333 -1274 
C 499 -1299 666 -1312 838 -1312 
C 1600 -1312 1773 -774 2010 -179 
L 3296 3309 
L 2534 3309 
L 1696 838 
L 1683 838 
L 819 3309 
L 19 3309 
L 1274 13 
z
" id="HelveticaNeue-Medium-79" transform="scale(0.015625)"/>
      <path d="M 2950 1651 
C 2950 1075 2701 486 2035 486 
C 1446 486 1107 986 1107 1651 
C 1107 2355 1421 2822 2035 2822 
C 2637 2822 2950 2253 2950 1651 
z
M 403 0 
L 1094 0 
L 1094 454 
L 1107 454 
C 1325 19 1805 -90 2253 -90 
C 3232 -90 3680 749 3680 1638 
C 3680 2605 3174 3398 2131 3398 
C 1760 3398 1344 3200 1146 2880 
L 1133 2880 
L 1133 4570 
L 403 4570 
L 403 0 
z
" id="HelveticaNeue-Medium-62" transform="scale(0.015625)"/>
     </defs>
     <use xlink:href="#HelveticaNeue-Medium-41"/>
     <use x="66.699997" xlink:href="#HelveticaNeue-Medium-75"/>
     <use x="124.099991" xlink:href="#HelveticaNeue-Medium-78"/>
     <use x="177.799988" xlink:href="#HelveticaNeue-Medium-69"/>
     <use x="201.899979" xlink:href="#HelveticaNeue-Medium-6c"/>
     <use x="225.999969" xlink:href="#HelveticaNeue-Medium-69"/>
     <use x="250.09996" xlink:href="#HelveticaNeue-Medium-61"/>
     <use x="305.699951" xlink:href="#HelveticaNeue-Medium-72"/>
     <use x="340.899948" xlink:href="#HelveticaNeue-Medium-79"/>
     <use x="392.799942" xlink:href="#HelveticaNeue-Medium-20"/>
     <use x="420.59993" xlink:href="#HelveticaNeue-Medium-64"/>
     <use x="481.699921" xlink:href="#HelveticaNeue-Medium-69"/>
     <use x="505.799911" xlink:href="#HelveticaNeue-Medium-73"/>
     <use x="557.699905" xlink:href="#HelveticaNeue-Medium-74"/>
     <use x="590.999893" xlink:href="#HelveticaNeue-Medium-72"/>
     <use x="626.19989" xlink:href="#HelveticaNeue-Medium-69"/>
     <use x="650.299881" xlink:href="#HelveticaNeue-Medium-62"/>
     <use x="711.399872" xlink:href="#HelveticaNeue-Medium-75"/>
     <use x="768.799866" xlink:href="#HelveticaNeue-Medium-74"/>
     <use x="802.099854" xlink:href="#HelveticaNeue-Medium-69"/>
     <use x="826.199844" xlink:href="#HelveticaNeue-Medium-6f"/>
     <use x="885.499832" xlink:href="#HelveticaNeue-Medium-6e"/>
    </g>
   </g>
   <g id="line2d_29">
    <path d="M 412.481787 50.2575 
L 420.881787 50.2575 
L 429.281787 50.2575 
" style="fill:none;stroke:#4daf4a;stroke-width:1.142857;"/>
   </g>
   <g id="line2d_30"/>
   <g id="text_15">
    <!-- Hot start -->
    <g transform="translate(442.481787 54.4575)scale(0.12 -0.12)">
     <defs>
      <path d="M 467 0 
L 1267 0 
L 1267 2061 
L 3347 2061 
L 3347 0 
L 4147 0 
L 4147 4570 
L 3347 4570 
L 3347 2752 
L 1267 2752 
L 1267 4570 
L 467 4570 
L 467 0 
z
" id="HelveticaNeue-Medium-48" transform="scale(0.015625)"/>
     </defs>
     <use xlink:href="#HelveticaNeue-Medium-48"/>
     <use x="72.199982" xlink:href="#HelveticaNeue-Medium-6f"/>
     <use x="131.499969" xlink:href="#HelveticaNeue-Medium-74"/>
     <use x="164.799957" xlink:href="#HelveticaNeue-Medium-20"/>
     <use x="192.599945" xlink:href="#HelveticaNeue-Medium-73"/>
     <use x="244.499939" xlink:href="#HelveticaNeue-Medium-74"/>
     <use x="277.799927" xlink:href="#HelveticaNeue-Medium-61"/>
     <use x="333.399918" xlink:href="#HelveticaNeue-Medium-72"/>
     <use x="368.599915" xlink:href="#HelveticaNeue-Medium-74"/>
    </g>
   </g>
  </g>
 </g>
 <defs>
  <clipPath id="pcd60080e56">
   <rect height="259.325" width="255.803394" x="48.82" y="266.525"/>
  </clipPath>
  <clipPath id="p142aff1ad1">
   <rect height="259.325" width="255.803394" x="48.82" y="7.2"/>
  </clipPath>
  <clipPath id="pa0ba843c2d">
   <rect height="259.325" width="255.803394" x="304.623394" y="266.525"/>
  </clipPath>
 </defs>
</svg>
