<?xml version="1.0" encoding="utf-8" standalone="no"?>
<!DOCTYPE svg PUBLIC "-//W3C//DTD SVG 1.1//EN"
  "http://www.w3.org/Graphics/SVG/1.1/DTD/svg11.dtd">
<svg xmlns:xlink="http://www.w3.org/1999/xlink" width="421.529375pt" height="310.062pt" viewBox="0 0 421.529375 310.062" xmlns="http://www.w3.org/2000/svg" version="1.1">
 <metadata>
  <rdf:RDF xmlns:dc="http://purl.org/dc/elements/1.1/" xmlns:cc="http://creativecommons.org/ns#" xmlns:rdf="http://www.w3.org/1999/02/22-rdf-syntax-ns#">
   <cc:Work>
    <dc:type rdf:resource="http://purl.org/dc/dcmitype/StillImage"/>
    <dc:date>2022-09-18T20:28:14.239560</dc:date>
    <dc:format>image/svg+xml</dc:format>
    <dc:creator>
     <cc:Agent>
      <dc:title>Matplotlib v3.5.1, https://matplotlib.org/</dc:title>
     </cc:Agent>
    </dc:creator>
   </cc:Work>
  </rdf:RDF>
 </metadata>
 <defs>
  <style type="text/css">*{stroke-linejoin: round; stroke-linecap: butt}</style>
 </defs>
 <g id="figure_1">
  <g id="patch_1">
   <path d="M 0 310.062 
L 421.529375 310.062 
L 421.529375 0 
L 0 0 
z
" style="fill: #ffffff"/>
  </g>
  <g id="axes_1">
   <g id="patch_2">
    <path d="M 55.459375 275.062 
L 412.579375 275.062 
L 412.579375 8.95 
L 55.459375 8.95 
z
" style="fill: #ffffff"/>
   </g>
   <g id="PolyCollection_1">
    <defs>
     <path id="m3e6b735e74" d="M 76.264702 -95.998625 
L 76.264702 -59.211784 
L 77.066912 -59.749426 
L 77.869122 -60.287067 
L 78.671333 -60.824708 
L 79.473543 -61.36235 
L 80.275753 -61.899992 
L 81.077964 -62.437634 
L 81.880174 -62.975276 
L 82.682385 -63.512919 
L 83.484595 -64.050562 
L 84.286805 -64.588204 
L 85.089016 -65.125847 
L 85.891226 -65.663491 
L 86.693437 -66.201134 
L 87.495647 -66.738778 
L 88.297857 -67.276422 
L 89.100068 -67.814066 
L 89.902278 -68.35171 
L 90.704489 -68.889354 
L 91.506699 -69.426999 
L 92.308909 -69.964643 
L 93.11112 -70.502288 
L 93.91333 -71.039933 
L 94.715541 -71.577579 
L 95.517751 -72.115224 
L 96.319961 -72.65287 
L 97.122172 -73.190516 
L 97.924382 -73.728162 
L 98.726592 -74.265808 
L 99.528803 -74.803455 
L 100.331013 -75.341101 
L 101.133224 -75.878748 
L 101.935434 -76.416395 
L 102.737644 -76.954042 
L 103.539855 -77.49169 
L 104.342065 -78.029337 
L 105.144276 -78.566985 
L 105.946486 -79.104633 
L 106.748696 -79.642281 
L 107.550907 -80.17993 
L 108.353117 -80.717578 
L 109.155328 -81.255227 
L 109.957538 -81.792876 
L 110.759748 -82.330525 
L 111.561959 -82.868174 
L 112.364169 -83.405824 
L 113.16638 -83.943473 
L 113.96859 -84.481123 
L 114.7708 -85.018773 
L 115.573011 -85.556424 
L 116.375221 -86.094074 
L 117.177431 -86.631725 
L 117.979642 -87.169375 
L 118.781852 -87.707026 
L 119.584063 -88.244678 
L 120.386273 -88.782329 
L 121.188483 -89.319981 
L 121.990694 -89.857632 
L 122.792904 -90.395284 
L 123.595115 -90.932936 
L 124.397325 -91.470589 
L 125.199535 -92.01366 
L 126.001746 -92.558353 
L 126.803956 -93.103046 
L 127.606167 -93.647739 
L 128.408377 -94.192433 
L 129.210587 -94.737127 
L 130.012798 -95.281821 
L 130.815008 -95.826515 
L 131.617219 -96.371209 
L 132.419429 -96.915904 
L 133.221639 -97.460598 
L 134.02385 -98.005293 
L 134.82606 -98.549988 
L 135.62827 -99.094684 
L 136.430481 -99.639379 
L 137.232691 -100.184075 
L 138.034902 -100.728771 
L 138.837112 -101.273467 
L 139.639322 -101.818163 
L 140.441533 -102.362859 
L 141.243743 -102.907556 
L 142.045954 -103.452253 
L 142.848164 -103.99695 
L 143.650374 -104.541647 
L 144.452585 -105.086344 
L 145.254795 -105.631042 
L 146.057006 -106.175739 
L 146.859216 -106.720437 
L 147.661426 -107.265136 
L 148.463637 -107.809834 
L 149.265847 -108.354532 
L 150.068058 -108.899231 
L 150.870268 -109.44393 
L 151.672478 -109.988629 
L 152.474689 -110.533328 
L 153.276899 -111.078028 
L 154.079109 -111.622727 
L 154.88132 -112.167427 
L 155.68353 -112.712127 
L 156.485741 -113.256827 
L 157.287951 -113.801528 
L 158.090161 -114.346228 
L 158.892372 -114.890929 
L 159.694582 -115.43563 
L 160.496793 -115.980331 
L 161.299003 -116.525033 
L 162.101213 -117.069734 
L 162.903424 -117.614436 
L 163.705634 -118.159138 
L 164.507845 -118.70384 
L 165.310055 -119.248542 
L 166.112265 -119.793245 
L 166.914476 -120.337947 
L 167.716686 -120.88265 
L 168.518897 -121.427353 
L 169.321107 -121.972056 
L 170.123317 -122.51676 
L 170.925528 -123.061463 
L 171.727738 -123.606167 
L 172.529948 -124.150871 
L 173.332159 -124.695575 
L 174.134369 -125.24028 
L 174.93658 -125.784984 
L 175.73879 -126.329689 
L 176.541 -126.874394 
L 177.343211 -127.419099 
L 178.145421 -127.963804 
L 178.947632 -128.50851 
L 179.749842 -129.053216 
L 180.552052 -129.597921 
L 181.354263 -130.142628 
L 182.156473 -130.687334 
L 182.958684 -131.23204 
L 183.760894 -131.776747 
L 184.563104 -132.321454 
L 185.365315 -132.866161 
L 186.167525 -133.410868 
L 186.969736 -133.955575 
L 187.771946 -134.439243 
L 188.574156 -134.920168 
L 189.376367 -135.401099 
L 190.178577 -135.882036 
L 190.980787 -136.362979 
L 191.782998 -136.843928 
L 192.585208 -137.324884 
L 193.387419 -137.805845 
L 194.189629 -138.286812 
L 194.991839 -138.767786 
L 195.79405 -139.248766 
L 196.59626 -139.729751 
L 197.398471 -140.210743 
L 198.200681 -140.700869 
L 199.002891 -141.221778 
L 199.805102 -141.742693 
L 200.607312 -142.263614 
L 201.409523 -142.784542 
L 202.211733 -143.305475 
L 203.013943 -143.826415 
L 203.816154 -144.347361 
L 204.618364 -144.868312 
L 205.420575 -145.38927 
L 206.222785 -145.910234 
L 207.024995 -146.431204 
L 207.827206 -146.95218 
L 208.629416 -147.473163 
L 209.431626 -148.003428 
L 210.233837 -148.538378 
L 211.036047 -149.073328 
L 211.838258 -149.608277 
L 212.640468 -150.143227 
L 213.442678 -150.678176 
L 214.244889 -151.213126 
L 215.047099 -151.748075 
L 215.84931 -152.283025 
L 216.65152 -152.817974 
L 217.45373 -153.317488 
L 218.255941 -153.812944 
L 219.058151 -154.308403 
L 219.860362 -154.803866 
L 220.662572 -155.299331 
L 221.464782 -155.7948 
L 222.266993 -156.290271 
L 223.069203 -156.785746 
L 223.871414 -157.281224 
L 224.673624 -157.776705 
L 225.475834 -158.272189 
L 226.278045 -158.767676 
L 227.080255 -159.263166 
L 227.882466 -159.75866 
L 228.684676 -160.254156 
L 229.486886 -160.749656 
L 230.289097 -161.245159 
L 231.091307 -161.740665 
L 231.893517 -162.236174 
L 232.695728 -162.752765 
L 233.497938 -163.287932 
L 234.300149 -163.82336 
L 235.102359 -164.346172 
L 235.904569 -164.878818 
L 236.70678 -165.404016 
L 237.50899 -165.929217 
L 238.311201 -166.45442 
L 239.113411 -166.979625 
L 239.915621 -167.504833 
L 240.717832 -168.030043 
L 241.520042 -168.563724 
L 242.322253 -169.103337 
L 243.124463 -169.642951 
L 243.926673 -170.182567 
L 244.728884 -170.722183 
L 245.531094 -171.2618 
L 246.333305 -171.801418 
L 247.135515 -172.341036 
L 247.937725 -172.880656 
L 248.739936 -173.420277 
L 249.542146 -173.959898 
L 250.344356 -174.49952 
L 251.146567 -175.039143 
L 251.948777 -175.578767 
L 252.750988 -176.125937 
L 253.553198 -176.680723 
L 254.355408 -177.235509 
L 255.157619 -177.790296 
L 255.959829 -178.306686 
L 256.76204 -178.809973 
L 257.56425 -179.318966 
L 258.36646 -179.845052 
L 259.168671 -180.37114 
L 259.970881 -180.897229 
L 260.773092 -181.423321 
L 261.575302 -181.914463 
L 262.377512 -182.293975 
L 263.179723 -182.750036 
L 263.981933 -183.214828 
L 264.784144 -183.679648 
L 265.586354 -184.144495 
L 266.388564 -184.60937 
L 267.190775 -185.110896 
L 267.992985 -185.631089 
L 268.795195 -186.1513 
L 269.597406 -186.671531 
L 270.399616 -187.151648 
L 271.201827 -187.636358 
L 272.004037 -188.177705 
L 272.806247 -188.649749 
L 273.608458 -189.083692 
L 274.410668 -189.517636 
L 275.212879 -189.951582 
L 276.015089 -190.385529 
L 276.817299 -190.819477 
L 277.61951 -191.253426 
L 278.42172 -191.687377 
L 279.223931 -192.121329 
L 280.026141 -192.555282 
L 280.828351 -192.989237 
L 281.630562 -193.423193 
L 282.432772 -193.85715 
L 283.234983 -194.299695 
L 284.037193 -194.750603 
L 284.839403 -195.201515 
L 285.641614 -195.65243 
L 286.443824 -196.103349 
L 287.246034 -196.554271 
L 288.048245 -196.971735 
L 288.850455 -197.353444 
L 289.652666 -197.735178 
L 290.454876 -198.169459 
L 291.257086 -198.631666 
L 292.059297 -199.093897 
L 292.861507 -199.556154 
L 293.663718 -200.038991 
L 294.465928 -200.498863 
L 295.268138 -200.948633 
L 296.070349 -201.398405 
L 296.872559 -201.84818 
L 297.67477 -202.255606 
L 298.47698 -202.623985 
L 299.27919 -203.003076 
L 300.081401 -203.457686 
L 300.883611 -203.912323 
L 301.685822 -204.366989 
L 302.488032 -204.821683 
L 303.290242 -205.276406 
L 304.092453 -205.708506 
L 304.894663 -206.127685 
L 305.696873 -206.519065 
L 306.499084 -206.865064 
L 307.301294 -207.211063 
L 308.103505 -207.557062 
L 308.905715 -207.903061 
L 309.707925 -208.249061 
L 310.510136 -208.59506 
L 311.312346 -208.94106 
L 312.114557 -209.302893 
L 312.916767 -209.691463 
L 313.718977 -210.080083 
L 314.521188 -210.468752 
L 315.323398 -210.857471 
L 316.125609 -211.24624 
L 316.927819 -211.70376 
L 317.730029 -212.206556 
L 318.53224 -212.709402 
L 319.33445 -213.212297 
L 320.136661 -213.715242 
L 320.938871 -214.218236 
L 321.741081 -214.72128 
L 322.543292 -215.224373 
L 323.345502 -215.727515 
L 324.147712 -216.230707 
L 324.949923 -216.733949 
L 325.752133 -217.237239 
L 326.554344 -217.726755 
L 327.356554 -218.160784 
L 328.158764 -218.594813 
L 328.960975 -219.028844 
L 329.763185 -219.462877 
L 330.565396 -219.89691 
L 331.367606 -220.330945 
L 332.169816 -220.764981 
L 332.972027 -221.201168 
L 333.774237 -221.64701 
L 334.576448 -222.092853 
L 335.378658 -222.538697 
L 336.180868 -222.984542 
L 336.983079 -223.430388 
L 337.785289 -223.876235 
L 338.5875 -224.322082 
L 339.38971 -224.767931 
L 340.19192 -225.21378 
L 340.994131 -225.65963 
L 341.796341 -226.105481 
L 342.598551 -226.551333 
L 343.400762 -226.997186 
L 344.202972 -227.44304 
L 345.005183 -227.888895 
L 345.807393 -228.334751 
L 346.609603 -228.780607 
L 347.411814 -229.226465 
L 348.214024 -229.672323 
L 349.016235 -230.108333 
L 349.818445 -230.510643 
L 350.620655 -230.912961 
L 351.422866 -231.315288 
L 352.225076 -231.717623 
L 353.027287 -232.119967 
L 353.829497 -232.522319 
L 354.631707 -232.92468 
L 355.433918 -233.327049 
L 356.236128 -233.729427 
L 357.038339 -234.131813 
L 357.840549 -234.534208 
L 358.642759 -234.936612 
L 359.44497 -235.339024 
L 360.24718 -235.741444 
L 361.04939 -236.143873 
L 361.851601 -236.546311 
L 362.653811 -236.948757 
L 363.456022 -237.351212 
L 364.258232 -237.753675 
L 365.060442 -238.156147 
L 365.862653 -238.558628 
L 366.664863 -238.961117 
L 367.467074 -239.363614 
L 368.269284 -239.76612 
L 369.071494 -240.168635 
L 369.873705 -240.574621 
L 370.675915 -241.024499 
L 371.478126 -241.474385 
L 372.280336 -241.907835 
L 373.082546 -242.289398 
L 373.884757 -242.670961 
L 374.686967 -243.052524 
L 375.489178 -243.434087 
L 376.291388 -243.81565 
L 377.093598 -244.197213 
L 377.895809 -244.578776 
L 378.698019 -244.960339 
L 379.50023 -245.341902 
L 380.30244 -245.723466 
L 381.10465 -246.105029 
L 381.906861 -246.486592 
L 382.709071 -246.868155 
L 383.511281 -247.249719 
L 384.313492 -247.631282 
L 385.115702 -248.012845 
L 385.917913 -248.394409 
L 386.720123 -248.775972 
L 387.522333 -249.157536 
L 388.324544 -249.539099 
L 389.126754 -249.920663 
L 389.928965 -250.302226 
L 390.731175 -250.68379 
L 391.533385 -251.065354 
L 392.335596 -251.446918 
L 393.137806 -251.828481 
L 393.940017 -252.210045 
L 394.742227 -252.591609 
L 395.544437 -252.973173 
L 396.346648 -253.354737 
L 396.346648 -271.979402 
L 396.346648 -271.979402 
L 395.544437 -271.444991 
L 394.742227 -270.910581 
L 393.940017 -270.37617 
L 393.137806 -269.84176 
L 392.335596 -269.307349 
L 391.533385 -268.772939 
L 390.731175 -268.238528 
L 389.928965 -267.716982 
L 389.126754 -267.219497 
L 388.324544 -266.722014 
L 387.522333 -266.224535 
L 386.720123 -265.727058 
L 385.917913 -265.229584 
L 385.115702 -264.732114 
L 384.313492 -264.234646 
L 383.511281 -263.737181 
L 382.709071 -263.239719 
L 381.906861 -262.74226 
L 381.10465 -262.244805 
L 380.30244 -261.747352 
L 379.50023 -261.249902 
L 378.698019 -260.752455 
L 377.895809 -260.255011 
L 377.093598 -259.75757 
L 376.291388 -259.260132 
L 375.489178 -258.762697 
L 374.686967 -258.265265 
L 373.884757 -257.767835 
L 373.082546 -257.270409 
L 372.280336 -256.772986 
L 371.478126 -256.275566 
L 370.675915 -255.764335 
L 369.873705 -255.239116 
L 369.071494 -254.713901 
L 368.269284 -254.188688 
L 367.467074 -253.663478 
L 366.664863 -253.138271 
L 365.862653 -252.613068 
L 365.060442 -252.087867 
L 364.258232 -251.562669 
L 363.456022 -251.037474 
L 362.653811 -250.512282 
L 361.851601 -249.987093 
L 361.04939 -249.461907 
L 360.24718 -248.931011 
L 359.44497 -248.39375 
L 358.642759 -247.856489 
L 357.840549 -247.319228 
L 357.038339 -246.781967 
L 356.236128 -246.244706 
L 355.433918 -245.707445 
L 354.631707 -245.170185 
L 353.829497 -244.632924 
L 353.027287 -244.095664 
L 352.225076 -243.558404 
L 351.422866 -243.021144 
L 350.620655 -242.483884 
L 349.818445 -241.947526 
L 349.016235 -241.44954 
L 348.214024 -240.951559 
L 347.411814 -240.453583 
L 346.609603 -239.955612 
L 345.807393 -239.466227 
L 345.005183 -238.981162 
L 344.202972 -238.496104 
L 343.400762 -237.978768 
L 342.598551 -237.493182 
L 341.796341 -237.011072 
L 340.994131 -236.528963 
L 340.19192 -236.046854 
L 339.38971 -235.564745 
L 338.5875 -235.082636 
L 337.785289 -234.600528 
L 336.983079 -234.11842 
L 336.180868 -233.636313 
L 335.378658 -233.154206 
L 334.576448 -232.672099 
L 333.774237 -232.189992 
L 332.972027 -231.707886 
L 332.169816 -231.225781 
L 331.367606 -230.743675 
L 330.565396 -230.251596 
L 329.763185 -229.750519 
L 328.960975 -229.24945 
L 328.158764 -228.748388 
L 327.356554 -228.232029 
L 326.554344 -227.687393 
L 325.752133 -227.207275 
L 324.949923 -226.743456 
L 324.147712 -226.279638 
L 323.345502 -225.815821 
L 322.543292 -225.355221 
L 321.741081 -224.897108 
L 320.938871 -224.438994 
L 320.136661 -223.980881 
L 319.33445 -223.522767 
L 318.53224 -223.064654 
L 317.730029 -222.60654 
L 316.927819 -222.098787 
L 316.125609 -221.588247 
L 315.323398 -221.077713 
L 314.521188 -220.567184 
L 313.718977 -220.059714 
L 312.916767 -219.547028 
L 312.114557 -219.034365 
L 311.312346 -218.462833 
L 310.510136 -217.925662 
L 309.707925 -217.409421 
L 308.905715 -216.893181 
L 308.103505 -216.376944 
L 307.301294 -215.860708 
L 306.499084 -215.344475 
L 305.696873 -214.826651 
L 304.894663 -214.340172 
L 304.092453 -213.880104 
L 303.290242 -213.420052 
L 302.488032 -212.950983 
L 301.685822 -212.426711 
L 300.883611 -211.902454 
L 300.081401 -211.378214 
L 299.27919 -210.868475 
L 298.47698 -210.415419 
L 297.67477 -209.95289 
L 296.872559 -209.490362 
L 296.070349 -209.027836 
L 295.268138 -208.56531 
L 294.465928 -208.102785 
L 293.663718 -207.640261 
L 292.861507 -207.177739 
L 292.059297 -206.715218 
L 291.257086 -206.252697 
L 290.454876 -205.790178 
L 289.652666 -205.32766 
L 288.850455 -204.865143 
L 288.048245 -204.402627 
L 287.246034 -203.940113 
L 286.443824 -203.477599 
L 285.641614 -203.008848 
L 284.839403 -202.529391 
L 284.037193 -202.049935 
L 283.234983 -201.570481 
L 282.432772 -201.091027 
L 281.630562 -200.611574 
L 280.828351 -200.132123 
L 280.026141 -199.652672 
L 279.223931 -199.173223 
L 278.42172 -198.693775 
L 277.61951 -198.214328 
L 276.817299 -197.734882 
L 276.015089 -197.255437 
L 275.212879 -196.775993 
L 274.410668 -196.296551 
L 273.608458 -195.817109 
L 272.806247 -195.337669 
L 272.004037 -194.858229 
L 271.201827 -194.378791 
L 270.399616 -193.899354 
L 269.597406 -193.419918 
L 268.795195 -192.988456 
L 267.992985 -192.592093 
L 267.190775 -192.195737 
L 266.388564 -191.799389 
L 265.586354 -191.403049 
L 264.784144 -191.006716 
L 263.981933 -190.61039 
L 263.179723 -190.214072 
L 262.377512 -189.789758 
L 261.575302 -189.349118 
L 260.773092 -188.893704 
L 259.970881 -188.430771 
L 259.168671 -187.96784 
L 258.36646 -187.50491 
L 257.56425 -187.041982 
L 256.76204 -186.563797 
L 255.959829 -186.082762 
L 255.157619 -185.620807 
L 254.355408 -185.196924 
L 253.553198 -184.769582 
L 252.750988 -184.351624 
L 251.948777 -183.933667 
L 251.146567 -183.515709 
L 250.344356 -183.12104 
L 249.542146 -182.731183 
L 248.739936 -182.341327 
L 247.937725 -181.946639 
L 247.135515 -181.544955 
L 246.333305 -181.143272 
L 245.531094 -180.737897 
L 244.728884 -180.311833 
L 243.926673 -179.917839 
L 243.124463 -179.523959 
L 242.322253 -179.130083 
L 241.520042 -178.733184 
L 240.717832 -178.368338 
L 239.915621 -178.02067 
L 239.113411 -177.673005 
L 238.311201 -177.253303 
L 237.50899 -176.79519 
L 236.70678 -176.337076 
L 235.904569 -175.878963 
L 235.102359 -175.427013 
L 234.300149 -174.979774 
L 233.497938 -174.532538 
L 232.695728 -174.085305 
L 231.893517 -173.638076 
L 231.091307 -173.190851 
L 230.289097 -172.743629 
L 229.486886 -172.29641 
L 228.684676 -171.849196 
L 227.882466 -171.401985 
L 227.080255 -170.977128 
L 226.278045 -170.55918 
L 225.475834 -170.141232 
L 224.673624 -169.723285 
L 223.871414 -169.305337 
L 223.069203 -168.887391 
L 222.266993 -168.469444 
L 221.464782 -168.051498 
L 220.662572 -167.633552 
L 219.860362 -167.215606 
L 219.058151 -166.812557 
L 218.255941 -166.448448 
L 217.45373 -166.084343 
L 216.65152 -165.720242 
L 215.84931 -165.356144 
L 215.047099 -164.99205 
L 214.244889 -164.624679 
L 213.442678 -164.254086 
L 212.640468 -163.883502 
L 211.838258 -163.512928 
L 211.036047 -163.135307 
L 210.233837 -162.715702 
L 209.431626 -162.296106 
L 208.629416 -161.870251 
L 207.827206 -161.439649 
L 207.024995 -161.009048 
L 206.222785 -160.578448 
L 205.420575 -160.14785 
L 204.618364 -159.717253 
L 203.816154 -159.286657 
L 203.013943 -158.856063 
L 202.211733 -158.42547 
L 201.409523 -157.994878 
L 200.607312 -157.564287 
L 199.805102 -157.133698 
L 199.002891 -156.70311 
L 198.200681 -156.272523 
L 197.398471 -155.841938 
L 196.59626 -155.411353 
L 195.79405 -154.98077 
L 194.991839 -154.550189 
L 194.189629 -154.119608 
L 193.387419 -153.689029 
L 192.585208 -153.258451 
L 191.782998 -152.827875 
L 190.980787 -152.3973 
L 190.178577 -151.966726 
L 189.376367 -151.536153 
L 188.574156 -151.105581 
L 187.771946 -150.675011 
L 186.969736 -150.244442 
L 186.167525 -149.813875 
L 185.365315 -149.383308 
L 184.563104 -148.952743 
L 183.760894 -148.522179 
L 182.958684 -148.091617 
L 182.156473 -147.661055 
L 181.354263 -147.290332 
L 180.552052 -146.929297 
L 179.749842 -146.568266 
L 178.947632 -146.20724 
L 178.145421 -145.846218 
L 177.343211 -145.4852 
L 176.541 -145.124187 
L 175.73879 -144.763178 
L 174.93658 -144.402173 
L 174.134369 -144.041172 
L 173.332159 -143.680175 
L 172.529948 -143.319183 
L 171.727738 -142.958194 
L 170.925528 -142.59721 
L 170.123317 -142.236231 
L 169.321107 -141.875255 
L 168.518897 -141.514284 
L 167.716686 -141.153317 
L 166.914476 -140.792354 
L 166.112265 -140.431395 
L 165.310055 -140.07044 
L 164.507845 -139.70949 
L 163.705634 -139.331196 
L 162.903424 -138.937117 
L 162.101213 -138.543043 
L 161.299003 -138.148974 
L 160.496793 -137.754908 
L 159.694582 -137.360847 
L 158.892372 -136.96679 
L 158.090161 -136.572737 
L 157.287951 -136.178688 
L 156.485741 -135.784644 
L 155.68353 -135.390603 
L 154.88132 -134.996567 
L 154.079109 -134.602535 
L 153.276899 -134.208508 
L 152.474689 -133.814485 
L 151.672478 -133.420465 
L 150.870268 -133.02645 
L 150.068058 -132.63244 
L 149.265847 -132.238433 
L 148.463637 -131.844431 
L 147.661426 -131.450433 
L 146.859216 -131.056439 
L 146.057006 -130.66245 
L 145.254795 -130.268464 
L 144.452585 -129.874483 
L 143.650374 -129.480506 
L 142.848164 -129.086534 
L 142.045954 -128.692565 
L 141.243743 -128.298601 
L 140.441533 -127.904641 
L 139.639322 -127.510686 
L 138.837112 -127.116734 
L 138.034902 -126.722787 
L 137.232691 -126.328844 
L 136.430481 -125.934905 
L 135.62827 -125.540971 
L 134.82606 -125.147041 
L 134.02385 -124.753115 
L 133.221639 -124.359193 
L 132.419429 -123.965276 
L 131.617219 -123.571363 
L 130.815008 -123.177454 
L 130.012798 -122.783549 
L 129.210587 -122.389648 
L 128.408377 -121.995752 
L 127.606167 -121.60186 
L 126.803956 -121.207973 
L 126.001746 -120.814089 
L 125.199535 -120.42021 
L 124.397325 -120.026335 
L 123.595115 -119.632465 
L 122.792904 -119.238598 
L 121.990694 -118.844736 
L 121.188483 -118.450878 
L 120.386273 -118.057025 
L 119.584063 -117.663175 
L 118.781852 -117.26933 
L 117.979642 -116.87549 
L 117.177431 -116.479308 
L 116.375221 -116.077713 
L 115.573011 -115.676118 
L 114.7708 -115.274523 
L 113.96859 -114.872929 
L 113.16638 -114.471336 
L 112.364169 -114.069743 
L 111.561959 -113.66815 
L 110.759748 -113.266558 
L 109.957538 -112.864967 
L 109.155328 -112.463376 
L 108.353117 -112.061786 
L 107.550907 -111.660197 
L 106.748696 -111.258607 
L 105.946486 -110.857019 
L 105.144276 -110.455431 
L 104.342065 -110.053843 
L 103.539855 -109.652256 
L 102.737644 -109.25067 
L 101.935434 -108.849084 
L 101.133224 -108.447499 
L 100.331013 -108.045914 
L 99.528803 -107.64433 
L 98.726592 -107.242746 
L 97.924382 -106.841163 
L 97.122172 -106.439581 
L 96.319961 -106.037998 
L 95.517751 -105.636417 
L 94.715541 -105.234836 
L 93.91333 -104.833256 
L 93.11112 -104.431676 
L 92.308909 -104.030097 
L 91.506699 -103.628518 
L 90.704489 -103.22694 
L 89.902278 -102.825362 
L 89.100068 -102.423785 
L 88.297857 -102.022208 
L 87.495647 -101.620632 
L 86.693437 -101.219057 
L 85.891226 -100.817482 
L 85.089016 -100.415907 
L 84.286805 -100.014334 
L 83.484595 -99.61276 
L 82.682385 -99.211188 
L 81.880174 -98.809615 
L 81.077964 -98.408044 
L 80.275753 -98.006473 
L 79.473543 -97.604902 
L 78.671333 -97.203332 
L 77.869122 -96.801763 
L 77.066912 -96.400194 
L 76.264702 -95.998625 
z
" style="stroke: #000000; stroke-opacity: 0.1"/>
    </defs>
    <g clip-path="url(#pe26edd2e44)">
     <use xlink:href="#m3e6b735e74" x="0" y="310.062" style="fill-opacity: 0.1; stroke: #000000; stroke-opacity: 0.1"/>
    </g>
   </g>
   <g id="matplotlib.axis_1">
    <g id="xtick_1">
     <g id="line2d_1">
      <defs>
       <path id="m43661704a3" d="M 0 1.75 
L 0 -1.75 
" style="stroke: #000000; stroke-width: 0.8"/>
      </defs>
      <g>
       <use xlink:href="#m43661704a3" x="76.264702" y="275.062" style="stroke: #000000; stroke-width: 0.8"/>
      </g>
     </g>
     <g id="line2d_2">
      <g>
       <use xlink:href="#m43661704a3" x="76.264702" y="8.95" style="stroke: #000000; stroke-width: 0.8"/>
      </g>
     </g>
     <g id="text_1">
      <!-- 9.0 -->
      <g transform="translate(69.315483 287.452625)scale(0.1 -0.1)">
       <defs>
        <path id="HelveticaNeue-Medium-39" d="M 1728 3962 
C 2272 3962 2541 3526 2541 3046 
C 2541 2554 2272 2106 1728 2106 
C 1197 2106 947 2560 947 3046 
C 947 3533 1197 3962 1728 3962 
z
M 301 1133 
C 339 403 941 -90 1651 -90 
C 2918 -90 3341 1158 3341 2227 
C 3341 3533 3027 4570 1760 4570 
C 781 4570 218 3910 218 3040 
C 218 2125 787 1530 1632 1530 
C 2042 1530 2406 1722 2598 2067 
L 2611 2054 
C 2566 1466 2477 518 1683 518 
C 1306 518 1062 768 1030 1133 
L 301 1133 
z
" transform="scale(0.015625)"/>
        <path id="HelveticaNeue-Medium-2e" d="M 442 0 
L 1331 0 
L 1331 864 
L 442 864 
L 442 0 
z
" transform="scale(0.015625)"/>
        <path id="HelveticaNeue-Medium-30" d="M 1779 518 
C 1139 518 960 1306 960 2240 
C 960 3174 1139 3962 1779 3962 
C 2419 3962 2598 3174 2598 2240 
C 2598 1306 2419 518 1779 518 
z
M 1779 4570 
C 493 4570 230 3258 230 2240 
C 230 1222 493 -90 1779 -90 
C 3066 -90 3328 1222 3328 2240 
C 3328 3258 3066 4570 1779 4570 
z
" transform="scale(0.015625)"/>
       </defs>
       <use xlink:href="#HelveticaNeue-Medium-39"/>
       <use xlink:href="#HelveticaNeue-Medium-2e" x="55.599991"/>
       <use xlink:href="#HelveticaNeue-Medium-30" x="83.399979"/>
      </g>
     </g>
    </g>
    <g id="xtick_2">
     <g id="line2d_3">
      <g>
       <use xlink:href="#m43661704a3" x="121.990694" y="275.062" style="stroke: #000000; stroke-width: 0.8"/>
      </g>
     </g>
     <g id="line2d_4">
      <g>
       <use xlink:href="#m43661704a3" x="121.990694" y="8.95" style="stroke: #000000; stroke-width: 0.8"/>
      </g>
     </g>
     <g id="text_2">
      <!-- 9.5 -->
      <g transform="translate(115.041475 287.452625)scale(0.1 -0.1)">
       <defs>
        <path id="HelveticaNeue-Medium-35" d="M 307 2029 
L 1037 2029 
C 1152 2342 1453 2438 1760 2438 
C 2349 2438 2611 1997 2611 1504 
C 2611 960 2400 518 1779 518 
C 1306 518 998 794 954 1274 
L 224 1274 
C 256 378 928 -90 1792 -90 
C 2893 -90 3341 800 3341 1517 
C 3341 2374 2829 3014 1939 3014 
C 1638 3014 1312 2893 1114 2675 
L 1101 2688 
L 1331 3827 
L 3104 3827 
L 3104 4480 
L 787 4480 
L 307 2029 
z
" transform="scale(0.015625)"/>
       </defs>
       <use xlink:href="#HelveticaNeue-Medium-39"/>
       <use xlink:href="#HelveticaNeue-Medium-2e" x="55.599991"/>
       <use xlink:href="#HelveticaNeue-Medium-35" x="83.399979"/>
      </g>
     </g>
    </g>
    <g id="xtick_3">
     <g id="line2d_5">
      <g>
       <use xlink:href="#m43661704a3" x="167.716686" y="275.062" style="stroke: #000000; stroke-width: 0.8"/>
      </g>
     </g>
     <g id="line2d_6">
      <g>
       <use xlink:href="#m43661704a3" x="167.716686" y="8.95" style="stroke: #000000; stroke-width: 0.8"/>
      </g>
     </g>
     <g id="text_3">
      <!-- 10.0 -->
      <g transform="translate(157.98778 287.452625)scale(0.1 -0.1)">
       <defs>
        <path id="HelveticaNeue-Medium-31" d="M 339 3162 
L 1440 3162 
L 1440 0 
L 2240 0 
L 2240 4480 
L 1645 4480 
C 1536 3942 954 3731 339 3738 
L 339 3162 
z
" transform="scale(0.015625)"/>
       </defs>
       <use xlink:href="#HelveticaNeue-Medium-31"/>
       <use xlink:href="#HelveticaNeue-Medium-30" x="55.599991"/>
       <use xlink:href="#HelveticaNeue-Medium-2e" x="111.199982"/>
       <use xlink:href="#HelveticaNeue-Medium-30" x="138.999969"/>
      </g>
     </g>
    </g>
    <g id="xtick_4">
     <g id="line2d_7">
      <g>
       <use xlink:href="#m43661704a3" x="213.442678" y="275.062" style="stroke: #000000; stroke-width: 0.8"/>
      </g>
     </g>
     <g id="line2d_8">
      <g>
       <use xlink:href="#m43661704a3" x="213.442678" y="8.95" style="stroke: #000000; stroke-width: 0.8"/>
      </g>
     </g>
     <g id="text_4">
      <!-- 10.5 -->
      <g transform="translate(203.713772 287.452625)scale(0.1 -0.1)">
       <use xlink:href="#HelveticaNeue-Medium-31"/>
       <use xlink:href="#HelveticaNeue-Medium-30" x="55.599991"/>
       <use xlink:href="#HelveticaNeue-Medium-2e" x="111.199982"/>
       <use xlink:href="#HelveticaNeue-Medium-35" x="138.999969"/>
      </g>
     </g>
    </g>
    <g id="xtick_5">
     <g id="line2d_9">
      <g>
       <use xlink:href="#m43661704a3" x="259.168671" y="275.062" style="stroke: #000000; stroke-width: 0.8"/>
      </g>
     </g>
     <g id="line2d_10">
      <g>
       <use xlink:href="#m43661704a3" x="259.168671" y="8.95" style="stroke: #000000; stroke-width: 0.8"/>
      </g>
     </g>
     <g id="text_5">
      <!-- 11.0 -->
      <g transform="translate(249.439765 287.452625)scale(0.1 -0.1)">
       <use xlink:href="#HelveticaNeue-Medium-31"/>
       <use xlink:href="#HelveticaNeue-Medium-31" x="55.599991"/>
       <use xlink:href="#HelveticaNeue-Medium-2e" x="111.199982"/>
       <use xlink:href="#HelveticaNeue-Medium-30" x="138.999969"/>
      </g>
     </g>
    </g>
    <g id="xtick_6">
     <g id="line2d_11">
      <g>
       <use xlink:href="#m43661704a3" x="304.894663" y="275.062" style="stroke: #000000; stroke-width: 0.8"/>
      </g>
     </g>
     <g id="line2d_12">
      <g>
       <use xlink:href="#m43661704a3" x="304.894663" y="8.95" style="stroke: #000000; stroke-width: 0.8"/>
      </g>
     </g>
     <g id="text_6">
      <!-- 11.5 -->
      <g transform="translate(295.165757 287.452625)scale(0.1 -0.1)">
       <use xlink:href="#HelveticaNeue-Medium-31"/>
       <use xlink:href="#HelveticaNeue-Medium-31" x="55.599991"/>
       <use xlink:href="#HelveticaNeue-Medium-2e" x="111.199982"/>
       <use xlink:href="#HelveticaNeue-Medium-35" x="138.999969"/>
      </g>
     </g>
    </g>
    <g id="xtick_7">
     <g id="line2d_13">
      <g>
       <use xlink:href="#m43661704a3" x="350.620655" y="275.062" style="stroke: #000000; stroke-width: 0.8"/>
      </g>
     </g>
     <g id="line2d_14">
      <g>
       <use xlink:href="#m43661704a3" x="350.620655" y="8.95" style="stroke: #000000; stroke-width: 0.8"/>
      </g>
     </g>
     <g id="text_7">
      <!-- 12.0 -->
      <g transform="translate(340.891749 287.452625)scale(0.1 -0.1)">
       <defs>
        <path id="HelveticaNeue-Medium-32" d="M 3309 653 
L 1126 653 
C 1254 1050 1798 1325 2317 1683 
C 2829 2042 3315 2483 3315 3194 
C 3315 3770 2970 4570 1875 4570 
C 877 4570 333 3834 333 2842 
L 1062 2842 
C 1082 3469 1254 3962 1830 3962 
C 2458 3962 2592 3488 2586 3168 
C 2573 2470 1818 2118 1235 1696 
C 634 1293 256 736 250 0 
L 3309 0 
L 3309 653 
z
" transform="scale(0.015625)"/>
       </defs>
       <use xlink:href="#HelveticaNeue-Medium-31"/>
       <use xlink:href="#HelveticaNeue-Medium-32" x="55.599991"/>
       <use xlink:href="#HelveticaNeue-Medium-2e" x="111.199982"/>
       <use xlink:href="#HelveticaNeue-Medium-30" x="138.999969"/>
      </g>
     </g>
    </g>
    <g id="xtick_8">
     <g id="line2d_15">
      <g>
       <use xlink:href="#m43661704a3" x="396.346648" y="275.062" style="stroke: #000000; stroke-width: 0.8"/>
      </g>
     </g>
     <g id="line2d_16">
      <g>
       <use xlink:href="#m43661704a3" x="396.346648" y="8.95" style="stroke: #000000; stroke-width: 0.8"/>
      </g>
     </g>
     <g id="text_8">
      <!-- 12.5 -->
      <g transform="translate(386.617741 287.452625)scale(0.1 -0.1)">
       <use xlink:href="#HelveticaNeue-Medium-31"/>
       <use xlink:href="#HelveticaNeue-Medium-32" x="55.599991"/>
       <use xlink:href="#HelveticaNeue-Medium-2e" x="111.199982"/>
       <use xlink:href="#HelveticaNeue-Medium-35" x="138.999969"/>
      </g>
     </g>
    </g>
    <g id="text_9">
     <!-- Bulge mass [log, $M_\odot$] -->
     <g transform="translate(183.919375 300.762)scale(0.1 -0.1)">
      <defs>
       <path id="HelveticaNeue-Medium-42" d="M 1286 2080 
L 2701 2080 
C 3187 2080 3469 1824 3469 1376 
C 3469 915 3187 653 2701 653 
L 1286 653 
L 1286 2080 
z
M 486 0 
L 2586 0 
C 3770 0 4269 557 4269 1274 
C 4269 1894 3968 2330 3411 2451 
L 3411 2464 
C 3827 2643 4064 2976 4064 3437 
C 4064 4198 3526 4570 2707 4570 
L 486 4570 
L 486 0 
z
M 1286 3917 
L 2592 3917 
C 3027 3917 3264 3750 3264 3290 
C 3264 2880 2976 2656 2592 2656 
L 1286 2656 
L 1286 3917 
z
" transform="scale(0.015625)"/>
       <path id="HelveticaNeue-Medium-75" d="M 3290 3309 
L 2560 3309 
L 2560 1389 
C 2560 877 2355 486 1747 486 
C 1350 486 1114 698 1114 1280 
L 1114 3309 
L 384 3309 
L 384 1210 
C 384 346 755 -90 1619 -90 
C 1984 -90 2381 128 2560 461 
L 2573 461 
L 2573 0 
L 3290 0 
L 3290 3309 
z
" transform="scale(0.015625)"/>
       <path id="HelveticaNeue-Medium-6c" d="M 403 0 
L 1133 0 
L 1133 4570 
L 403 4570 
L 403 0 
z
" transform="scale(0.015625)"/>
       <path id="HelveticaNeue-Medium-67" d="M 1824 576 
C 1216 576 954 1126 954 1670 
C 954 2221 1178 2822 1824 2822 
C 2458 2822 2714 2298 2714 1728 
C 2714 1165 2470 576 1824 576 
z
M 3443 3309 
L 2714 3309 
L 2714 2854 
L 2701 2854 
C 2515 3226 2138 3398 1722 3398 
C 781 3398 224 2630 224 1741 
C 224 794 659 0 1709 0 
C 2118 0 2496 218 2701 582 
L 2714 582 
L 2714 77 
C 2714 -467 2451 -768 1862 -768 
C 1491 -768 1158 -698 1069 -282 
L 339 -282 
C 403 -1056 1152 -1312 1818 -1312 
C 2861 -1312 3443 -819 3443 173 
L 3443 3309 
z
" transform="scale(0.015625)"/>
       <path id="HelveticaNeue-Medium-65" d="M 3386 1466 
C 3507 2458 2867 3398 1824 3398 
C 838 3398 224 2592 224 1651 
C 224 634 806 -90 1843 -90 
C 2566 -90 3181 314 3341 1037 
L 2650 1037 
C 2522 672 2266 486 1843 486 
C 1235 486 954 947 954 1466 
L 3386 1466 
z
M 954 1946 
C 973 2438 1318 2822 1824 2822 
C 2317 2822 2630 2406 2656 1946 
L 954 1946 
z
" transform="scale(0.015625)"/>
       <path id="HelveticaNeue-Medium-20" transform="scale(0.015625)"/>
       <path id="HelveticaNeue-Medium-6d" d="M 384 0 
L 1114 0 
L 1114 1965 
C 1114 2515 1459 2822 1837 2822 
C 2278 2822 2419 2579 2419 2125 
L 2419 0 
L 3149 0 
L 3149 1939 
C 3149 2496 3360 2822 3853 2822 
C 4422 2822 4454 2458 4454 1933 
L 4454 0 
L 5184 0 
L 5184 2285 
C 5184 3091 4774 3398 4077 3398 
C 3597 3398 3283 3187 3040 2848 
C 2893 3226 2515 3398 2112 3398 
C 1587 3398 1312 3174 1094 2848 
L 1075 2848 
L 1075 3309 
L 384 3309 
L 384 0 
z
" transform="scale(0.015625)"/>
       <path id="HelveticaNeue-Medium-61" d="M 2426 1114 
C 2426 653 1926 486 1606 486 
C 1350 486 934 582 934 909 
C 934 1293 1216 1408 1530 1459 
C 1850 1517 2202 1510 2426 1658 
L 2426 1114 
z
M 3155 2438 
C 3155 3136 2477 3398 1830 3398 
C 1101 3398 378 3149 326 2298 
L 1056 2298 
C 1088 2656 1376 2822 1786 2822 
C 2080 2822 2470 2752 2470 2374 
C 2470 1946 2003 2003 1478 1907 
C 864 1837 205 1702 205 877 
C 205 230 742 -90 1338 -90 
C 1728 -90 2195 32 2483 314 
C 2541 13 2752 -90 3046 -90 
C 3168 -90 3398 -45 3507 -6 
L 3507 499 
C 3430 486 3373 486 3328 486 
C 3194 486 3155 557 3155 736 
L 3155 2438 
z
" transform="scale(0.015625)"/>
       <path id="HelveticaNeue-Medium-73" d="M 205 1062 
C 218 282 838 -90 1670 -90 
C 2355 -90 3149 198 3149 986 
C 3149 1638 2611 1830 2080 1952 
C 1542 2074 1005 2125 1005 2483 
C 1005 2771 1395 2822 1606 2822 
C 1926 2822 2214 2726 2278 2381 
L 3040 2381 
C 2950 3117 2336 3398 1658 3398 
C 1056 3398 275 3174 275 2451 
C 275 1779 800 1587 1338 1472 
C 1869 1350 2400 1306 2419 922 
C 2438 544 1958 486 1683 486 
C 1293 486 973 640 934 1062 
L 205 1062 
z
" transform="scale(0.015625)"/>
       <path id="HelveticaNeue-Medium-5b" d="M 461 -1222 
L 1888 -1222 
L 1888 -646 
L 1152 -646 
L 1152 4102 
L 1888 4102 
L 1888 4678 
L 461 4678 
L 461 -1222 
z
" transform="scale(0.015625)"/>
       <path id="HelveticaNeue-Medium-6f" d="M 1901 486 
C 1248 486 960 1082 960 1658 
C 960 2227 1248 2822 1901 2822 
C 2554 2822 2842 2227 2842 1658 
C 2842 1082 2554 486 1901 486 
z
M 1901 -90 
C 2963 -90 3571 640 3571 1658 
C 3571 2669 2963 3398 1901 3398 
C 838 3398 230 2669 230 1658 
C 230 640 838 -90 1901 -90 
z
" transform="scale(0.015625)"/>
       <path id="HelveticaNeue-Medium-2c" d="M 442 0 
L 883 0 
C 890 -275 749 -550 467 -621 
L 467 -1011 
C 973 -909 1325 -525 1331 0 
L 1331 864 
L 442 864 
L 442 0 
z
" transform="scale(0.015625)"/>
       <path id="DejaVuSans-Oblique-4d" d="M 1081 4666 
L 2028 4666 
L 2572 1522 
L 4378 4666 
L 5350 4666 
L 4441 0 
L 3828 0 
L 4622 4091 
L 2791 897 
L 2175 897 
L 1581 4103 
L 788 0 
L 172 0 
L 1081 4666 
z
" transform="scale(0.015625)"/>
       <path id="DejaVuSans-2299" d="M 2350 2403 
L 3013 2403 
L 3013 1609 
L 2350 1609 
L 2350 2403 
z
M 3306 3522 
Q 3016 3644 2681 3644 
Q 2347 3644 2056 3522 
Q 1769 3400 1531 3163 
Q 1291 2922 1172 2634 
Q 1053 2347 1053 2006 
Q 1053 1675 1172 1387 
Q 1291 1100 1531 859 
Q 1769 622 2056 500 
Q 2347 378 2681 378 
Q 3016 378 3306 500 
Q 3594 622 3831 859 
Q 4072 1100 4190 1387 
Q 4309 1675 4309 2006 
Q 4309 2347 4190 2634 
Q 4072 2922 3831 3163 
Q 3594 3400 3306 3522 
z
M 1878 3956 
Q 2250 4113 2681 4113 
Q 3113 4113 3484 3956 
Q 3856 3800 4163 3494 
Q 4472 3184 4625 2813 
Q 4778 2444 4778 2006 
Q 4778 1578 4625 1206 
Q 4472 838 4163 528 
Q 3856 222 3484 65 
Q 3113 -91 2681 -91 
Q 2250 -91 1878 65 
Q 1506 222 1200 528 
Q 891 838 738 1206 
Q 584 1578 584 2006 
Q 584 2444 738 2813 
Q 891 3184 1200 3494 
Q 1506 3800 1878 3956 
z
" transform="scale(0.015625)"/>
       <path id="HelveticaNeue-Medium-5d" d="M 1434 4678 
L 6 4678 
L 6 4102 
L 742 4102 
L 742 -646 
L 6 -646 
L 6 -1222 
L 1434 -1222 
L 1434 4678 
z
" transform="scale(0.015625)"/>
      </defs>
      <use xlink:href="#HelveticaNeue-Medium-42" transform="translate(0 0.90625)"/>
      <use xlink:href="#HelveticaNeue-Medium-75" transform="translate(70.399994 0.90625)"/>
      <use xlink:href="#HelveticaNeue-Medium-6c" transform="translate(127.799988 0.90625)"/>
      <use xlink:href="#HelveticaNeue-Medium-67" transform="translate(151.899979 0.90625)"/>
      <use xlink:href="#HelveticaNeue-Medium-65" transform="translate(211.199966 0.90625)"/>
      <use xlink:href="#HelveticaNeue-Medium-20" transform="translate(266.799957 0.90625)"/>
      <use xlink:href="#HelveticaNeue-Medium-6d" transform="translate(294.599945 0.90625)"/>
      <use xlink:href="#HelveticaNeue-Medium-61" transform="translate(381.59993 0.90625)"/>
      <use xlink:href="#HelveticaNeue-Medium-73" transform="translate(437.199921 0.90625)"/>
      <use xlink:href="#HelveticaNeue-Medium-73" transform="translate(489.099915 0.90625)"/>
      <use xlink:href="#HelveticaNeue-Medium-20" transform="translate(540.999908 0.90625)"/>
      <use xlink:href="#HelveticaNeue-Medium-5b" transform="translate(568.799896 0.90625)"/>
      <use xlink:href="#HelveticaNeue-Medium-6c" transform="translate(598.399887 0.90625)"/>
      <use xlink:href="#HelveticaNeue-Medium-6f" transform="translate(622.499878 0.90625)"/>
      <use xlink:href="#HelveticaNeue-Medium-67" transform="translate(681.799866 0.90625)"/>
      <use xlink:href="#HelveticaNeue-Medium-2c" transform="translate(741.099854 0.90625)"/>
      <use xlink:href="#HelveticaNeue-Medium-20" transform="translate(768.899841 0.90625)"/>
      <use xlink:href="#DejaVuSans-Oblique-4d" transform="translate(796.699829 0.90625)"/>
      <use xlink:href="#DejaVuSans-2299" transform="translate(896.616821 -15.5)scale(0.7)"/>
      <use xlink:href="#HelveticaNeue-Medium-5d" transform="translate(971.641235 0.90625)"/>
     </g>
    </g>
   </g>
   <g id="matplotlib.axis_2">
    <g id="ytick_1">
     <g id="line2d_17">
      <defs>
       <path id="m1f2d4b00d8" d="M 1.75 0 
L -1.75 -0 
" style="stroke: #000000; stroke-width: 0.8"/>
      </defs>
      <g>
       <use xlink:href="#m1f2d4b00d8" x="55.459375" y="224.931123" style="stroke: #000000; stroke-width: 0.8"/>
      </g>
     </g>
     <g id="line2d_18">
      <g>
       <use xlink:href="#m1f2d4b00d8" x="412.579375" y="224.931123" style="stroke: #000000; stroke-width: 0.8"/>
      </g>
     </g>
     <g id="text_10">
      <!-- $\mathdefault{10^{2}}$ -->
      <g transform="translate(34.809375 228.501436)scale(0.1 -0.1)">
       <use xlink:href="#HelveticaNeue-Medium-31" transform="translate(0 0.823438)"/>
       <use xlink:href="#HelveticaNeue-Medium-30" transform="translate(55.599991 0.823438)"/>
       <use xlink:href="#HelveticaNeue-Medium-32" transform="translate(112.104786 37.015625)scale(0.7)"/>
      </g>
     </g>
    </g>
    <g id="ytick_2">
     <g id="line2d_19">
      <defs>
       <path id="md4a9eb96db" d="M 1 0 
L -1 -0 
" style="stroke: #000000; stroke-width: 0.6"/>
      </defs>
      <g>
       <use xlink:href="#md4a9eb96db" x="55.459375" y="269.985451" style="stroke: #000000; stroke-width: 0.6"/>
      </g>
     </g>
     <g id="line2d_20">
      <g>
       <use xlink:href="#md4a9eb96db" x="412.579375" y="269.985451" style="stroke: #000000; stroke-width: 0.6"/>
      </g>
     </g>
    </g>
    <g id="ytick_3">
     <g id="line2d_21">
      <g>
       <use xlink:href="#md4a9eb96db" x="55.459375" y="253.118084" style="stroke: #000000; stroke-width: 0.6"/>
      </g>
     </g>
     <g id="line2d_22">
      <g>
       <use xlink:href="#md4a9eb96db" x="412.579375" y="253.118084" style="stroke: #000000; stroke-width: 0.6"/>
      </g>
     </g>
    </g>
    <g id="ytick_4">
     <g id="line2d_23">
      <g>
       <use xlink:href="#md4a9eb96db" x="55.459375" y="238.240012" style="stroke: #000000; stroke-width: 0.6"/>
      </g>
     </g>
     <g id="line2d_24">
      <g>
       <use xlink:href="#md4a9eb96db" x="412.579375" y="238.240012" style="stroke: #000000; stroke-width: 0.6"/>
      </g>
     </g>
    </g>
    <g id="ytick_5">
     <g id="line2d_25">
      <g>
       <use xlink:href="#md4a9eb96db" x="55.459375" y="137.374426" style="stroke: #000000; stroke-width: 0.6"/>
      </g>
     </g>
     <g id="line2d_26">
      <g>
       <use xlink:href="#md4a9eb96db" x="412.579375" y="137.374426" style="stroke: #000000; stroke-width: 0.6"/>
      </g>
     </g>
     <g id="text_11">
      <!-- $\mathdefault{2\times10^{2}}$ -->
      <g transform="translate(20.559375 140.944739)scale(0.1 -0.1)">
       <defs>
        <path id="HelveticaNeue-Medium-d7" d="M 1466 1619 
L 352 506 
L 902 147 
L 1914 1171 
L 2938 147 
L 3488 506 
L 2368 1619 
L 3488 2733 
L 2938 3091 
L 1914 2074 
L 902 3091 
L 352 2733 
L 1466 1619 
z
" transform="scale(0.015625)"/>
       </defs>
       <use xlink:href="#HelveticaNeue-Medium-32" transform="translate(0 0.823438)"/>
       <use xlink:href="#HelveticaNeue-Medium-d7" transform="translate(72.999988 0.823438)"/>
       <use xlink:href="#HelveticaNeue-Medium-31" transform="translate(150.399969 0.823438)"/>
       <use xlink:href="#HelveticaNeue-Medium-30" transform="translate(205.99996 0.823438)"/>
       <use xlink:href="#HelveticaNeue-Medium-32" transform="translate(262.504756 37.015625)scale(0.7)"/>
      </g>
     </g>
    </g>
    <g id="ytick_6">
     <g id="line2d_27">
      <g>
       <use xlink:href="#md4a9eb96db" x="55.459375" y="86.157042" style="stroke: #000000; stroke-width: 0.6"/>
      </g>
     </g>
     <g id="line2d_28">
      <g>
       <use xlink:href="#md4a9eb96db" x="412.579375" y="86.157042" style="stroke: #000000; stroke-width: 0.6"/>
      </g>
     </g>
     <g id="text_12">
      <!-- $\mathdefault{3\times10^{2}}$ -->
      <g transform="translate(20.559375 89.727354)scale(0.1 -0.1)">
       <defs>
        <path id="HelveticaNeue-Medium-33" d="M 1459 2080 
C 2035 2106 2630 2016 2630 1318 
C 2630 806 2259 518 1773 518 
C 1203 518 909 928 928 1472 
L 198 1472 
C 218 538 736 -90 1773 -90 
C 2630 -90 3360 435 3360 1280 
C 3360 1856 3053 2298 2547 2400 
L 2547 2413 
C 2976 2566 3181 2925 3181 3373 
C 3181 4166 2464 4570 1766 4570 
C 864 4570 320 3917 282 3046 
L 1011 3046 
C 998 3507 1248 3962 1754 3962 
C 2157 3962 2451 3706 2451 3328 
C 2451 2778 1946 2605 1459 2624 
L 1459 2080 
z
" transform="scale(0.015625)"/>
       </defs>
       <use xlink:href="#HelveticaNeue-Medium-33" transform="translate(0 0.823438)"/>
       <use xlink:href="#HelveticaNeue-Medium-d7" transform="translate(72.999988 0.823438)"/>
       <use xlink:href="#HelveticaNeue-Medium-31" transform="translate(150.399969 0.823438)"/>
       <use xlink:href="#HelveticaNeue-Medium-30" transform="translate(205.99996 0.823438)"/>
       <use xlink:href="#HelveticaNeue-Medium-32" transform="translate(262.504756 37.015625)scale(0.7)"/>
      </g>
     </g>
    </g>
    <g id="ytick_7">
     <g id="line2d_29">
      <g>
       <use xlink:href="#md4a9eb96db" x="55.459375" y="49.817729" style="stroke: #000000; stroke-width: 0.6"/>
      </g>
     </g>
     <g id="line2d_30">
      <g>
       <use xlink:href="#md4a9eb96db" x="412.579375" y="49.817729" style="stroke: #000000; stroke-width: 0.6"/>
      </g>
     </g>
     <g id="text_13">
      <!-- $\mathdefault{4\times10^{2}}$ -->
      <g transform="translate(20.559375 53.388041)scale(0.1 -0.1)">
       <defs>
        <path id="HelveticaNeue-Medium-34" d="M 3341 1638 
L 2765 1638 
L 2765 4480 
L 2074 4480 
L 154 1786 
L 154 1062 
L 2074 1062 
L 2074 0 
L 2765 0 
L 2765 1062 
L 3341 1062 
L 3341 1638 
z
M 2061 3610 
L 2074 3610 
L 2074 1638 
L 717 1638 
L 2061 3610 
z
" transform="scale(0.015625)"/>
       </defs>
       <use xlink:href="#HelveticaNeue-Medium-34" transform="translate(0 0.823438)"/>
       <use xlink:href="#HelveticaNeue-Medium-d7" transform="translate(72.999988 0.823438)"/>
       <use xlink:href="#HelveticaNeue-Medium-31" transform="translate(150.399969 0.823438)"/>
       <use xlink:href="#HelveticaNeue-Medium-30" transform="translate(205.99996 0.823438)"/>
       <use xlink:href="#HelveticaNeue-Medium-32" transform="translate(262.504756 37.015625)scale(0.7)"/>
      </g>
     </g>
    </g>
    <g id="ytick_8">
     <g id="line2d_31">
      <g>
       <use xlink:href="#md4a9eb96db" x="55.459375" y="21.630768" style="stroke: #000000; stroke-width: 0.6"/>
      </g>
     </g>
     <g id="line2d_32">
      <g>
       <use xlink:href="#md4a9eb96db" x="412.579375" y="21.630768" style="stroke: #000000; stroke-width: 0.6"/>
      </g>
     </g>
    </g>
    <g id="text_14">
     <!-- Velocity dispersion [log, km/s] -->
     <g transform="translate(14.509375 211.382562)rotate(-90)scale(0.1 -0.1)">
      <defs>
       <path id="HelveticaNeue-Medium-56" d="M 1491 0 
L 2381 0 
L 3942 4570 
L 3130 4570 
L 1958 954 
L 1946 954 
L 800 4570 
L -32 4570 
L 1491 0 
z
" transform="scale(0.015625)"/>
       <path id="HelveticaNeue-Medium-63" d="M 3347 2202 
C 3277 3014 2624 3398 1856 3398 
C 768 3398 224 2618 224 1619 
C 224 646 794 -90 1830 -90 
C 2682 -90 3213 384 3347 1242 
L 2618 1242 
C 2547 768 2253 486 1830 486 
C 1197 486 954 1069 954 1619 
C 954 2624 1485 2822 1862 2822 
C 2266 2822 2560 2605 2618 2202 
L 3347 2202 
z
" transform="scale(0.015625)"/>
       <path id="HelveticaNeue-Medium-69" d="M 403 0 
L 1133 0 
L 1133 3309 
L 403 3309 
L 403 0 
z
M 403 3878 
L 1133 3878 
L 1133 4570 
L 403 4570 
L 403 3878 
z
" transform="scale(0.015625)"/>
       <path id="HelveticaNeue-Medium-74" d="M 51 2765 
L 602 2765 
L 602 813 
C 614 262 755 -32 1517 -32 
C 1677 -32 1830 -6 1990 6 
L 1990 570 
C 1888 544 1786 544 1683 544 
C 1357 544 1331 698 1331 998 
L 1331 2765 
L 1990 2765 
L 1990 3309 
L 1331 3309 
L 1331 4301 
L 602 4301 
L 602 3309 
L 51 3309 
L 51 2765 
z
" transform="scale(0.015625)"/>
       <path id="HelveticaNeue-Medium-79" d="M 1274 13 
L 1190 -243 
C 1101 -525 1018 -704 678 -704 
C 563 -704 448 -678 333 -659 
L 333 -1274 
C 499 -1299 666 -1312 838 -1312 
C 1600 -1312 1773 -774 2010 -179 
L 3296 3309 
L 2534 3309 
L 1696 838 
L 1683 838 
L 819 3309 
L 19 3309 
L 1274 13 
z
" transform="scale(0.015625)"/>
       <path id="HelveticaNeue-Medium-64" d="M 954 1619 
C 954 2214 1197 2822 1882 2822 
C 2445 2822 2797 2387 2797 1658 
C 2797 1082 2522 486 1869 486 
C 1235 486 954 1050 954 1619 
z
M 3501 4570 
L 2771 4570 
L 2771 2880 
L 2758 2880 
C 2534 3245 2074 3398 1658 3398 
C 934 3398 224 2874 224 1677 
C 224 685 730 -90 1773 -90 
C 2189 -90 2605 70 2797 448 
L 2810 448 
L 2810 0 
L 3501 0 
L 3501 4570 
z
" transform="scale(0.015625)"/>
       <path id="HelveticaNeue-Medium-70" d="M 2950 1651 
C 2950 1075 2701 486 2035 486 
C 1446 486 1107 986 1107 1651 
C 1107 2355 1421 2822 2035 2822 
C 2637 2822 2950 2253 2950 1651 
z
M 403 -1222 
L 1133 -1222 
L 1133 429 
L 1146 429 
C 1376 64 1830 -90 2253 -90 
C 3232 -90 3680 749 3680 1638 
C 3680 2605 3174 3398 2131 3398 
C 1709 3398 1312 3238 1107 2861 
L 1094 2861 
L 1094 3309 
L 403 3309 
L 403 -1222 
z
" transform="scale(0.015625)"/>
       <path id="HelveticaNeue-Medium-72" d="M 384 0 
L 1114 0 
L 1114 1574 
C 1114 2304 1510 2707 2010 2707 
C 2112 2707 2221 2688 2323 2675 
L 2323 3379 
C 2259 3386 2214 3398 2048 3398 
C 1600 3398 1165 3021 1082 2669 
L 1069 2669 
L 1069 3309 
L 384 3309 
L 384 0 
z
" transform="scale(0.015625)"/>
       <path id="HelveticaNeue-Medium-6e" d="M 384 0 
L 1114 0 
L 1114 1952 
C 1114 2438 1427 2822 1914 2822 
C 2342 2822 2547 2598 2560 2080 
L 2560 0 
L 3290 0 
L 3290 2272 
C 3290 3014 2835 3398 2118 3398 
C 1683 3398 1306 3174 1088 2810 
L 1075 2822 
L 1075 3309 
L 384 3309 
L 384 0 
z
" transform="scale(0.015625)"/>
       <path id="HelveticaNeue-Medium-6b" d="M 403 0 
L 1133 0 
L 1133 1184 
L 1568 1606 
L 2579 0 
L 3469 0 
L 2080 2093 
L 3347 3309 
L 2451 3309 
L 1133 1971 
L 1133 4570 
L 403 4570 
L 403 0 
z
" transform="scale(0.015625)"/>
       <path id="HelveticaNeue-Medium-2f" d="M -141 -109 
L 557 -109 
L 2394 4678 
L 1696 4678 
L -141 -109 
z
" transform="scale(0.015625)"/>
      </defs>
      <use xlink:href="#HelveticaNeue-Medium-56"/>
      <use xlink:href="#HelveticaNeue-Medium-65" x="61.099991"/>
      <use xlink:href="#HelveticaNeue-Medium-6c" x="116.699982"/>
      <use xlink:href="#HelveticaNeue-Medium-6f" x="140.799973"/>
      <use xlink:href="#HelveticaNeue-Medium-63" x="200.09996"/>
      <use xlink:href="#HelveticaNeue-Medium-69" x="255.699951"/>
      <use xlink:href="#HelveticaNeue-Medium-74" x="279.799942"/>
      <use xlink:href="#HelveticaNeue-Medium-79" x="313.09993"/>
      <use xlink:href="#HelveticaNeue-Medium-20" x="364.999924"/>
      <use xlink:href="#HelveticaNeue-Medium-64" x="392.799911"/>
      <use xlink:href="#HelveticaNeue-Medium-69" x="453.899902"/>
      <use xlink:href="#HelveticaNeue-Medium-73" x="477.999893"/>
      <use xlink:href="#HelveticaNeue-Medium-70" x="529.899887"/>
      <use xlink:href="#HelveticaNeue-Medium-65" x="590.999878"/>
      <use xlink:href="#HelveticaNeue-Medium-72" x="646.599869"/>
      <use xlink:href="#HelveticaNeue-Medium-73" x="681.799866"/>
      <use xlink:href="#HelveticaNeue-Medium-69" x="733.69986"/>
      <use xlink:href="#HelveticaNeue-Medium-6f" x="757.79985"/>
      <use xlink:href="#HelveticaNeue-Medium-6e" x="817.099838"/>
      <use xlink:href="#HelveticaNeue-Medium-20" x="874.499832"/>
      <use xlink:href="#HelveticaNeue-Medium-5b" x="902.29982"/>
      <use xlink:href="#HelveticaNeue-Medium-6c" x="931.899811"/>
      <use xlink:href="#HelveticaNeue-Medium-6f" x="955.999802"/>
      <use xlink:href="#HelveticaNeue-Medium-67" x="1015.299789"/>
      <use xlink:href="#HelveticaNeue-Medium-2c" x="1074.599777"/>
      <use xlink:href="#HelveticaNeue-Medium-20" x="1102.399765"/>
      <use xlink:href="#HelveticaNeue-Medium-6b" x="1130.199753"/>
      <use xlink:href="#HelveticaNeue-Medium-6d" x="1183.89975"/>
      <use xlink:href="#HelveticaNeue-Medium-2f" x="1270.899734"/>
      <use xlink:href="#HelveticaNeue-Medium-73" x="1306.099731"/>
      <use xlink:href="#HelveticaNeue-Medium-5d" x="1357.999725"/>
     </g>
    </g>
   </g>
   <g id="LineCollection_1">
    <path d="M 71.692102 257.946097 
L 89.982499 257.946097 
" clip-path="url(#pe26edd2e44)" style="fill: none; stroke: #ffa500; stroke-width: 1.5"/>
    <path d="M 327.757659 121.936187 
L 344.219016 121.936187 
" clip-path="url(#pe26edd2e44)" style="fill: none; stroke: #ffa500; stroke-width: 1.5"/>
    <path d="M 275.630028 74.885578 
L 292.091385 74.885578 
" clip-path="url(#pe26edd2e44)" style="fill: none; stroke: #ffa500; stroke-width: 1.5"/>
    <path d="M 218.929798 160.152467 
L 235.391155 160.152467 
" clip-path="url(#pe26edd2e44)" style="fill: none; stroke: #ffa500; stroke-width: 1.5"/>
    <path d="M 296.663984 79.993985 
L 313.125342 79.993985 
" clip-path="url(#pe26edd2e44)" style="fill: none; stroke: #ffa500; stroke-width: 1.5"/>
    <path d="M 318.612461 96.689607 
L 335.073818 96.689607 
" clip-path="url(#pe26edd2e44)" style="fill: none; stroke: #ffa500; stroke-width: 1.5"/>
    <path d="M 281.117147 99.46593 
L 297.578504 99.46593 
" clip-path="url(#pe26edd2e44)" style="fill: none; stroke: #ffa500; stroke-width: 1.5"/>
    <path d="M 183.263524 154.241793 
L 199.724881 154.241793 
" clip-path="url(#pe26edd2e44)" style="fill: none; stroke: #ffa500; stroke-width: 1.5"/>
    <path d="M 256.425111 160.911134 
L 272.886468 160.911134 
" clip-path="url(#pe26edd2e44)" style="fill: none; stroke: #ffa500; stroke-width: 1.5"/>
    <path d="M 306.723703 87.426576 
L 323.18506 87.426576 
" clip-path="url(#pe26edd2e44)" style="fill: none; stroke: #ffa500; stroke-width: 1.5"/>
    <path d="M 205.212 177.996102 
L 221.673357 177.996102 
" clip-path="url(#pe26edd2e44)" style="fill: none; stroke: #ffa500; stroke-width: 1.5"/>
    <path d="M 242.707314 133.640629 
L 259.168671 133.640629 
" clip-path="url(#pe26edd2e44)" style="fill: none; stroke: #ffa500; stroke-width: 1.5"/>
    <path d="M 274.715508 120.270436 
L 291.176865 120.270436 
" clip-path="url(#pe26edd2e44)" style="fill: none; stroke: #ffa500; stroke-width: 1.5"/>
    <path d="M 251.852512 149.287526 
L 268.313869 149.287526 
" clip-path="url(#pe26edd2e44)" style="fill: none; stroke: #ffa500; stroke-width: 1.5"/>
    <path d="M 321.35602 99.46593 
L 337.817378 99.46593 
" clip-path="url(#pe26edd2e44)" style="fill: none; stroke: #ffa500; stroke-width: 1.5"/>
    <path d="M 310.381782 79.993985 
L 326.843139 79.993985 
" clip-path="url(#pe26edd2e44)" style="fill: none; stroke: #ffa500; stroke-width: 1.5"/>
    <path d="M 237.220194 113.295717 
L 253.681552 113.295717 
" clip-path="url(#pe26edd2e44)" style="fill: none; stroke: #ffa500; stroke-width: 1.5"/>
    <path d="M 307.638223 87.852606 
L 324.09958 87.852606 
" clip-path="url(#pe26edd2e44)" style="fill: none; stroke: #ffa500; stroke-width: 1.5"/>
    <path d="M 297.578504 149.287526 
L 314.039862 149.287526 
" clip-path="url(#pe26edd2e44)" style="fill: none; stroke: #ffa500; stroke-width: 1.5"/>
    <path d="M 239.963754 160.152467 
L 256.425111 160.152467 
" clip-path="url(#pe26edd2e44)" style="fill: none; stroke: #ffa500; stroke-width: 1.5"/>
    <path d="M 327.757659 86.157042 
L 344.219016 86.157042 
" clip-path="url(#pe26edd2e44)" style="fill: none; stroke: #ffa500; stroke-width: 1.5"/>
    <path d="M 237.220194 143.853673 
L 253.681552 143.853673 
" clip-path="url(#pe26edd2e44)" style="fill: none; stroke: #ffa500; stroke-width: 1.5"/>
    <path d="M 316.783421 76.435507 
L 333.244778 76.435507 
" clip-path="url(#pe26edd2e44)" style="fill: none; stroke: #ffa500; stroke-width: 1.5"/>
    <path d="M 125.648773 147.222342 
L 143.93917 147.222342 
" clip-path="url(#pe26edd2e44)" style="fill: none; stroke: #ffa500; stroke-width: 1.5"/>
    <path d="M 309.467262 56.296975 
L 325.92862 56.296975 
" clip-path="url(#pe26edd2e44)" style="fill: none; stroke: #ffa500; stroke-width: 1.5"/>
    <path d="M 248.194433 152.80635 
L 264.65579 152.80635 
" clip-path="url(#pe26edd2e44)" style="fill: none; stroke: #ffa500; stroke-width: 1.5"/>
    <path d="M 265.57031 64.893327 
L 282.031667 64.893327 
" clip-path="url(#pe26edd2e44)" style="fill: none; stroke: #ffa500; stroke-width: 1.5"/>
    <path d="M 350.620655 67.772485 
L 367.082013 67.772485 
" clip-path="url(#pe26edd2e44)" style="fill: none; stroke: #ffa500; stroke-width: 1.5"/>
    <path d="M 276.544548 124.191918 
L 293.005905 124.191918 
" clip-path="url(#pe26edd2e44)" style="fill: none; stroke: #ffa500; stroke-width: 1.5"/>
    <path d="M 255.510591 173.713739 
L 271.971949 173.713739 
" clip-path="url(#pe26edd2e44)" style="fill: none; stroke: #ffa500; stroke-width: 1.5"/>
    <path d="M 310.381782 72.974534 
L 326.843139 72.974534 
" clip-path="url(#pe26edd2e44)" style="fill: none; stroke: #ffa500; stroke-width: 1.5"/>
    <path d="M 305.809183 74.885578 
L 322.27054 74.885578 
" clip-path="url(#pe26edd2e44)" style="fill: none; stroke: #ffa500; stroke-width: 1.5"/>
    <path d="M 250.937992 148.595373 
L 267.399349 148.595373 
" clip-path="url(#pe26edd2e44)" style="fill: none; stroke: #ffa500; stroke-width: 1.5"/>
    <path d="M 211.613639 114.871425 
L 228.074996 114.871425 
" clip-path="url(#pe26edd2e44)" style="fill: none; stroke: #ffa500; stroke-width: 1.5"/>
    <path d="M 314.039862 78.796652 
L 330.501219 78.796652 
" clip-path="url(#pe26edd2e44)" style="fill: none; stroke: #ffa500; stroke-width: 1.5"/>
    <path d="M 273.800988 53.340121 
L 290.262346 53.340121 
" clip-path="url(#pe26edd2e44)" style="fill: none; stroke: #ffa500; stroke-width: 1.5"/>
    <path d="M 305.809183 101.351303 
L 324.09958 101.351303 
" clip-path="url(#pe26edd2e44)" style="fill: none; stroke: #ffa500; stroke-width: 1.5"/>
    <path d="M 310.381782 89.571239 
L 326.843139 89.571239 
" clip-path="url(#pe26edd2e44)" style="fill: none; stroke: #ffa500; stroke-width: 1.5"/>
    <path d="M 319.526981 105.699183 
L 335.988338 105.699183 
" clip-path="url(#pe26edd2e44)" style="fill: none; stroke: #ffa500; stroke-width: 1.5"/>
    <path d="M 305.809183 73.735485 
L 322.27054 73.735485 
" clip-path="url(#pe26edd2e44)" style="fill: none; stroke: #ffa500; stroke-width: 1.5"/>
    <path d="M 324.09958 91.313579 
L 342.389977 91.313579 
" clip-path="url(#pe26edd2e44)" style="fill: none; stroke: #ffa500; stroke-width: 1.5"/>
    <path d="M 322.27054 77.217662 
L 338.731897 77.217662 
" clip-path="url(#pe26edd2e44)" style="fill: none; stroke: #ffa500; stroke-width: 1.5"/>
   </g>
   <g id="LineCollection_2">
    <path d="M 80.837301 262.966 
L 80.837301 253.118084 
" clip-path="url(#pe26edd2e44)" style="fill: none; stroke: #ffa500; stroke-width: 1.5"/>
    <path d="M 335.988338 127.069437 
L 335.988338 117.003419 
" clip-path="url(#pe26edd2e44)" style="fill: none; stroke: #ffa500; stroke-width: 1.5"/>
    <path d="M 283.860707 78.40005 
L 283.860707 71.466246 
" clip-path="url(#pe26edd2e44)" style="fill: none; stroke: #ffa500; stroke-width: 1.5"/>
    <path d="M 227.160476 162.442275 
L 227.160476 157.903429 
" clip-path="url(#pe26edd2e44)" style="fill: none; stroke: #ffa500; stroke-width: 1.5"/>
    <path d="M 304.894663 81.202775 
L 304.894663 78.796652 
" clip-path="url(#pe26edd2e44)" style="fill: none; stroke: #ffa500; stroke-width: 1.5"/>
    <path d="M 326.843139 97.608285 
L 326.843139 95.777563 
" clip-path="url(#pe26edd2e44)" style="fill: none; stroke: #ffa500; stroke-width: 1.5"/>
    <path d="M 289.347826 104.233199 
L 289.347826 94.872056 
" clip-path="url(#pe26edd2e44)" style="fill: none; stroke: #ffa500; stroke-width: 1.5"/>
    <path d="M 191.494202 160.152467 
L 191.494202 148.595373 
" clip-path="url(#pe26edd2e44)" style="fill: none; stroke: #ffa500; stroke-width: 1.5"/>
    <path d="M 264.65579 173.713739 
L 264.65579 149.287526 
" clip-path="url(#pe26edd2e44)" style="fill: none; stroke: #ffa500; stroke-width: 1.5"/>
    <path d="M 314.954381 92.636288 
L 314.954381 82.423244 
" clip-path="url(#pe26edd2e44)" style="fill: none; stroke: #ffa500; stroke-width: 1.5"/>
    <path d="M 213.442678 184.246305 
L 213.442678 172.040633 
" clip-path="url(#pe26edd2e44)" style="fill: none; stroke: #ffa500; stroke-width: 1.5"/>
    <path d="M 250.937992 139.926384 
L 250.937992 127.652891 
" clip-path="url(#pe26edd2e44)" style="fill: none; stroke: #ffa500; stroke-width: 1.5"/>
    <path d="M 282.946187 126.488665 
L 282.946187 114.344002 
" clip-path="url(#pe26edd2e44)" style="fill: none; stroke: #ffa500; stroke-width: 1.5"/>
    <path d="M 260.083191 155.693736 
L 260.083191 143.190587 
" clip-path="url(#pe26edd2e44)" style="fill: none; stroke: #ffa500; stroke-width: 1.5"/>
    <path d="M 329.586699 112.774819 
L 329.586699 87.426576 
" clip-path="url(#pe26edd2e44)" style="fill: none; stroke: #ffa500; stroke-width: 1.5"/>
    <path d="M 318.612461 86.157042 
L 318.612461 74.117687 
" clip-path="url(#pe26edd2e44)" style="fill: none; stroke: #ffa500; stroke-width: 1.5"/>
    <path d="M 245.450873 119.720031 
L 245.450873 107.182382 
" clip-path="url(#pe26edd2e44)" style="fill: none; stroke: #ffa500; stroke-width: 1.5"/>
    <path d="M 315.868901 93.972995 
L 315.868901 82.015109 
" clip-path="url(#pe26edd2e44)" style="fill: none; stroke: #ffa500; stroke-width: 1.5"/>
    <path d="M 305.809183 152.80635 
L 305.809183 145.864075 
" clip-path="url(#pe26edd2e44)" style="fill: none; stroke: #ffa500; stroke-width: 1.5"/>
    <path d="M 248.194433 166.353349 
L 248.194433 154.241793 
" clip-path="url(#pe26edd2e44)" style="fill: none; stroke: #ffa500; stroke-width: 1.5"/>
    <path d="M 335.988338 89.139384 
L 335.988338 83.243491 
" clip-path="url(#pe26edd2e44)" style="fill: none; stroke: #ffa500; stroke-width: 1.5"/>
    <path d="M 245.450873 149.983493 
L 245.450873 138.007599 
" clip-path="url(#pe26edd2e44)" style="fill: none; stroke: #ffa500; stroke-width: 1.5"/>
    <path d="M 325.0141 87.852606 
L 325.0141 65.965335 
" clip-path="url(#pe26edd2e44)" style="fill: none; stroke: #ffa500; stroke-width: 1.5"/>
    <path d="M 134.793972 153.522033 
L 134.793972 141.221961 
" clip-path="url(#pe26edd2e44)" style="fill: none; stroke: #ffa500; stroke-width: 1.5"/>
    <path d="M 317.697941 62.776222 
L 317.697941 50.133918 
" clip-path="url(#pe26edd2e44)" style="fill: none; stroke: #ffa500; stroke-width: 1.5"/>
    <path d="M 256.425111 158.648668 
L 256.425111 147.222342 
" clip-path="url(#pe26edd2e44)" style="fill: none; stroke: #ffa500; stroke-width: 1.5"/>
    <path d="M 273.800988 69.975755 
L 273.800988 60.007506 
" clip-path="url(#pe26edd2e44)" style="fill: none; stroke: #ffa500; stroke-width: 1.5"/>
    <path d="M 358.851334 69.605864 
L 358.851334 65.965335 
" clip-path="url(#pe26edd2e44)" style="fill: none; stroke: #ffa500; stroke-width: 1.5"/>
    <path d="M 284.775226 130.611284 
L 284.775226 118.083063 
" clip-path="url(#pe26edd2e44)" style="fill: none; stroke: #ffa500; stroke-width: 1.5"/>
    <path d="M 263.74127 179.750541 
L 263.74127 167.952328 
" clip-path="url(#pe26edd2e44)" style="fill: none; stroke: #ffa500; stroke-width: 1.5"/>
    <path d="M 318.612461 73.735485 
L 318.612461 72.218138 
" clip-path="url(#pe26edd2e44)" style="fill: none; stroke: #ffa500; stroke-width: 1.5"/>
    <path d="M 314.039862 79.194503 
L 314.039862 70.718802 
" clip-path="url(#pe26edd2e44)" style="fill: none; stroke: #ffa500; stroke-width: 1.5"/>
    <path d="M 259.168671 154.965678 
L 259.168671 142.530963 
" clip-path="url(#pe26edd2e44)" style="fill: none; stroke: #ffa500; stroke-width: 1.5"/>
    <path d="M 219.844317 120.823249 
L 219.844317 109.187465 
" clip-path="url(#pe26edd2e44)" style="fill: none; stroke: #ffa500; stroke-width: 1.5"/>
    <path d="M 322.27054 79.593611 
L 322.27054 78.00469 
" clip-path="url(#pe26edd2e44)" style="fill: none; stroke: #ffa500; stroke-width: 1.5"/>
    <path d="M 282.031667 54.318069 
L 282.031667 52.369687 
" clip-path="url(#pe26edd2e44)" style="fill: none; stroke: #ffa500; stroke-width: 1.5"/>
    <path d="M 314.954381 107.680677 
L 314.954381 95.323998 
" clip-path="url(#pe26edd2e44)" style="fill: none; stroke: #ffa500; stroke-width: 1.5"/>
    <path d="M 318.612461 91.752945 
L 318.612461 87.426576 
" clip-path="url(#pe26edd2e44)" style="fill: none; stroke: #ffa500; stroke-width: 1.5"/>
    <path d="M 327.757659 119.172015 
L 327.757659 93.525852 
" clip-path="url(#pe26edd2e44)" style="fill: none; stroke: #ffa500; stroke-width: 1.5"/>
    <path d="M 314.039862 75.658165 
L 314.039862 71.841633 
" clip-path="url(#pe26edd2e44)" style="fill: none; stroke: #ffa500; stroke-width: 1.5"/>
    <path d="M 333.244778 97.608285 
L 333.244778 85.317719 
" clip-path="url(#pe26edd2e44)" style="fill: none; stroke: #ffa500; stroke-width: 1.5"/>
    <path d="M 330.501219 83.655621 
L 330.501219 71.091971 
" clip-path="url(#pe26edd2e44)" style="fill: none; stroke: #ffa500; stroke-width: 1.5"/>
   </g>
   <g id="line2d_33">
    <defs>
     <path id="m9354d51fbc" d="M 0 2 
L 0 -2 
" style="stroke: #ffa500"/>
    </defs>
    <g clip-path="url(#pe26edd2e44)">
     <use xlink:href="#m9354d51fbc" x="71.692102" y="257.946097" style="fill: #ffa500; stroke: #ffa500"/>
     <use xlink:href="#m9354d51fbc" x="327.757659" y="121.936187" style="fill: #ffa500; stroke: #ffa500"/>
     <use xlink:href="#m9354d51fbc" x="275.630028" y="74.885578" style="fill: #ffa500; stroke: #ffa500"/>
     <use xlink:href="#m9354d51fbc" x="218.929798" y="160.152467" style="fill: #ffa500; stroke: #ffa500"/>
     <use xlink:href="#m9354d51fbc" x="296.663984" y="79.993985" style="fill: #ffa500; stroke: #ffa500"/>
     <use xlink:href="#m9354d51fbc" x="318.612461" y="96.689607" style="fill: #ffa500; stroke: #ffa500"/>
     <use xlink:href="#m9354d51fbc" x="281.117147" y="99.46593" style="fill: #ffa500; stroke: #ffa500"/>
     <use xlink:href="#m9354d51fbc" x="183.263524" y="154.241793" style="fill: #ffa500; stroke: #ffa500"/>
     <use xlink:href="#m9354d51fbc" x="256.425111" y="160.911134" style="fill: #ffa500; stroke: #ffa500"/>
     <use xlink:href="#m9354d51fbc" x="306.723703" y="87.426576" style="fill: #ffa500; stroke: #ffa500"/>
     <use xlink:href="#m9354d51fbc" x="205.212" y="177.996102" style="fill: #ffa500; stroke: #ffa500"/>
     <use xlink:href="#m9354d51fbc" x="242.707314" y="133.640629" style="fill: #ffa500; stroke: #ffa500"/>
     <use xlink:href="#m9354d51fbc" x="274.715508" y="120.270436" style="fill: #ffa500; stroke: #ffa500"/>
     <use xlink:href="#m9354d51fbc" x="251.852512" y="149.287526" style="fill: #ffa500; stroke: #ffa500"/>
     <use xlink:href="#m9354d51fbc" x="321.35602" y="99.46593" style="fill: #ffa500; stroke: #ffa500"/>
     <use xlink:href="#m9354d51fbc" x="310.381782" y="79.993985" style="fill: #ffa500; stroke: #ffa500"/>
     <use xlink:href="#m9354d51fbc" x="237.220194" y="113.295717" style="fill: #ffa500; stroke: #ffa500"/>
     <use xlink:href="#m9354d51fbc" x="307.638223" y="87.852606" style="fill: #ffa500; stroke: #ffa500"/>
     <use xlink:href="#m9354d51fbc" x="297.578504" y="149.287526" style="fill: #ffa500; stroke: #ffa500"/>
     <use xlink:href="#m9354d51fbc" x="239.963754" y="160.152467" style="fill: #ffa500; stroke: #ffa500"/>
     <use xlink:href="#m9354d51fbc" x="327.757659" y="86.157042" style="fill: #ffa500; stroke: #ffa500"/>
     <use xlink:href="#m9354d51fbc" x="237.220194" y="143.853673" style="fill: #ffa500; stroke: #ffa500"/>
     <use xlink:href="#m9354d51fbc" x="316.783421" y="76.435507" style="fill: #ffa500; stroke: #ffa500"/>
     <use xlink:href="#m9354d51fbc" x="125.648773" y="147.222342" style="fill: #ffa500; stroke: #ffa500"/>
     <use xlink:href="#m9354d51fbc" x="309.467262" y="56.296975" style="fill: #ffa500; stroke: #ffa500"/>
     <use xlink:href="#m9354d51fbc" x="248.194433" y="152.80635" style="fill: #ffa500; stroke: #ffa500"/>
     <use xlink:href="#m9354d51fbc" x="265.57031" y="64.893327" style="fill: #ffa500; stroke: #ffa500"/>
     <use xlink:href="#m9354d51fbc" x="350.620655" y="67.772485" style="fill: #ffa500; stroke: #ffa500"/>
     <use xlink:href="#m9354d51fbc" x="276.544548" y="124.191918" style="fill: #ffa500; stroke: #ffa500"/>
     <use xlink:href="#m9354d51fbc" x="255.510591" y="173.713739" style="fill: #ffa500; stroke: #ffa500"/>
     <use xlink:href="#m9354d51fbc" x="310.381782" y="72.974534" style="fill: #ffa500; stroke: #ffa500"/>
     <use xlink:href="#m9354d51fbc" x="305.809183" y="74.885578" style="fill: #ffa500; stroke: #ffa500"/>
     <use xlink:href="#m9354d51fbc" x="250.937992" y="148.595373" style="fill: #ffa500; stroke: #ffa500"/>
     <use xlink:href="#m9354d51fbc" x="211.613639" y="114.871425" style="fill: #ffa500; stroke: #ffa500"/>
     <use xlink:href="#m9354d51fbc" x="314.039862" y="78.796652" style="fill: #ffa500; stroke: #ffa500"/>
     <use xlink:href="#m9354d51fbc" x="273.800988" y="53.340121" style="fill: #ffa500; stroke: #ffa500"/>
     <use xlink:href="#m9354d51fbc" x="305.809183" y="101.351303" style="fill: #ffa500; stroke: #ffa500"/>
     <use xlink:href="#m9354d51fbc" x="310.381782" y="89.571239" style="fill: #ffa500; stroke: #ffa500"/>
     <use xlink:href="#m9354d51fbc" x="319.526981" y="105.699183" style="fill: #ffa500; stroke: #ffa500"/>
     <use xlink:href="#m9354d51fbc" x="305.809183" y="73.735485" style="fill: #ffa500; stroke: #ffa500"/>
     <use xlink:href="#m9354d51fbc" x="324.09958" y="91.313579" style="fill: #ffa500; stroke: #ffa500"/>
     <use xlink:href="#m9354d51fbc" x="322.27054" y="77.217662" style="fill: #ffa500; stroke: #ffa500"/>
    </g>
   </g>
   <g id="line2d_34">
    <g clip-path="url(#pe26edd2e44)">
     <use xlink:href="#m9354d51fbc" x="89.982499" y="257.946097" style="fill: #ffa500; stroke: #ffa500"/>
     <use xlink:href="#m9354d51fbc" x="344.219016" y="121.936187" style="fill: #ffa500; stroke: #ffa500"/>
     <use xlink:href="#m9354d51fbc" x="292.091385" y="74.885578" style="fill: #ffa500; stroke: #ffa500"/>
     <use xlink:href="#m9354d51fbc" x="235.391155" y="160.152467" style="fill: #ffa500; stroke: #ffa500"/>
     <use xlink:href="#m9354d51fbc" x="313.125342" y="79.993985" style="fill: #ffa500; stroke: #ffa500"/>
     <use xlink:href="#m9354d51fbc" x="335.073818" y="96.689607" style="fill: #ffa500; stroke: #ffa500"/>
     <use xlink:href="#m9354d51fbc" x="297.578504" y="99.46593" style="fill: #ffa500; stroke: #ffa500"/>
     <use xlink:href="#m9354d51fbc" x="199.724881" y="154.241793" style="fill: #ffa500; stroke: #ffa500"/>
     <use xlink:href="#m9354d51fbc" x="272.886468" y="160.911134" style="fill: #ffa500; stroke: #ffa500"/>
     <use xlink:href="#m9354d51fbc" x="323.18506" y="87.426576" style="fill: #ffa500; stroke: #ffa500"/>
     <use xlink:href="#m9354d51fbc" x="221.673357" y="177.996102" style="fill: #ffa500; stroke: #ffa500"/>
     <use xlink:href="#m9354d51fbc" x="259.168671" y="133.640629" style="fill: #ffa500; stroke: #ffa500"/>
     <use xlink:href="#m9354d51fbc" x="291.176865" y="120.270436" style="fill: #ffa500; stroke: #ffa500"/>
     <use xlink:href="#m9354d51fbc" x="268.313869" y="149.287526" style="fill: #ffa500; stroke: #ffa500"/>
     <use xlink:href="#m9354d51fbc" x="337.817378" y="99.46593" style="fill: #ffa500; stroke: #ffa500"/>
     <use xlink:href="#m9354d51fbc" x="326.843139" y="79.993985" style="fill: #ffa500; stroke: #ffa500"/>
     <use xlink:href="#m9354d51fbc" x="253.681552" y="113.295717" style="fill: #ffa500; stroke: #ffa500"/>
     <use xlink:href="#m9354d51fbc" x="324.09958" y="87.852606" style="fill: #ffa500; stroke: #ffa500"/>
     <use xlink:href="#m9354d51fbc" x="314.039862" y="149.287526" style="fill: #ffa500; stroke: #ffa500"/>
     <use xlink:href="#m9354d51fbc" x="256.425111" y="160.152467" style="fill: #ffa500; stroke: #ffa500"/>
     <use xlink:href="#m9354d51fbc" x="344.219016" y="86.157042" style="fill: #ffa500; stroke: #ffa500"/>
     <use xlink:href="#m9354d51fbc" x="253.681552" y="143.853673" style="fill: #ffa500; stroke: #ffa500"/>
     <use xlink:href="#m9354d51fbc" x="333.244778" y="76.435507" style="fill: #ffa500; stroke: #ffa500"/>
     <use xlink:href="#m9354d51fbc" x="143.93917" y="147.222342" style="fill: #ffa500; stroke: #ffa500"/>
     <use xlink:href="#m9354d51fbc" x="325.92862" y="56.296975" style="fill: #ffa500; stroke: #ffa500"/>
     <use xlink:href="#m9354d51fbc" x="264.65579" y="152.80635" style="fill: #ffa500; stroke: #ffa500"/>
     <use xlink:href="#m9354d51fbc" x="282.031667" y="64.893327" style="fill: #ffa500; stroke: #ffa500"/>
     <use xlink:href="#m9354d51fbc" x="367.082013" y="67.772485" style="fill: #ffa500; stroke: #ffa500"/>
     <use xlink:href="#m9354d51fbc" x="293.005905" y="124.191918" style="fill: #ffa500; stroke: #ffa500"/>
     <use xlink:href="#m9354d51fbc" x="271.971949" y="173.713739" style="fill: #ffa500; stroke: #ffa500"/>
     <use xlink:href="#m9354d51fbc" x="326.843139" y="72.974534" style="fill: #ffa500; stroke: #ffa500"/>
     <use xlink:href="#m9354d51fbc" x="322.27054" y="74.885578" style="fill: #ffa500; stroke: #ffa500"/>
     <use xlink:href="#m9354d51fbc" x="267.399349" y="148.595373" style="fill: #ffa500; stroke: #ffa500"/>
     <use xlink:href="#m9354d51fbc" x="228.074996" y="114.871425" style="fill: #ffa500; stroke: #ffa500"/>
     <use xlink:href="#m9354d51fbc" x="330.501219" y="78.796652" style="fill: #ffa500; stroke: #ffa500"/>
     <use xlink:href="#m9354d51fbc" x="290.262346" y="53.340121" style="fill: #ffa500; stroke: #ffa500"/>
     <use xlink:href="#m9354d51fbc" x="324.09958" y="101.351303" style="fill: #ffa500; stroke: #ffa500"/>
     <use xlink:href="#m9354d51fbc" x="326.843139" y="89.571239" style="fill: #ffa500; stroke: #ffa500"/>
     <use xlink:href="#m9354d51fbc" x="335.988338" y="105.699183" style="fill: #ffa500; stroke: #ffa500"/>
     <use xlink:href="#m9354d51fbc" x="322.27054" y="73.735485" style="fill: #ffa500; stroke: #ffa500"/>
     <use xlink:href="#m9354d51fbc" x="342.389977" y="91.313579" style="fill: #ffa500; stroke: #ffa500"/>
     <use xlink:href="#m9354d51fbc" x="338.731897" y="77.217662" style="fill: #ffa500; stroke: #ffa500"/>
    </g>
   </g>
   <g id="line2d_35">
    <defs>
     <path id="md1df0fb02d" d="M 2 0 
L -2 -0 
" style="stroke: #ffa500"/>
    </defs>
    <g clip-path="url(#pe26edd2e44)">
     <use xlink:href="#md1df0fb02d" x="80.837301" y="262.966" style="fill: #ffa500; stroke: #ffa500"/>
     <use xlink:href="#md1df0fb02d" x="335.988338" y="127.069437" style="fill: #ffa500; stroke: #ffa500"/>
     <use xlink:href="#md1df0fb02d" x="283.860707" y="78.40005" style="fill: #ffa500; stroke: #ffa500"/>
     <use xlink:href="#md1df0fb02d" x="227.160476" y="162.442275" style="fill: #ffa500; stroke: #ffa500"/>
     <use xlink:href="#md1df0fb02d" x="304.894663" y="81.202775" style="fill: #ffa500; stroke: #ffa500"/>
     <use xlink:href="#md1df0fb02d" x="326.843139" y="97.608285" style="fill: #ffa500; stroke: #ffa500"/>
     <use xlink:href="#md1df0fb02d" x="289.347826" y="104.233199" style="fill: #ffa500; stroke: #ffa500"/>
     <use xlink:href="#md1df0fb02d" x="191.494202" y="160.152467" style="fill: #ffa500; stroke: #ffa500"/>
     <use xlink:href="#md1df0fb02d" x="264.65579" y="173.713739" style="fill: #ffa500; stroke: #ffa500"/>
     <use xlink:href="#md1df0fb02d" x="314.954381" y="92.636288" style="fill: #ffa500; stroke: #ffa500"/>
     <use xlink:href="#md1df0fb02d" x="213.442678" y="184.246305" style="fill: #ffa500; stroke: #ffa500"/>
     <use xlink:href="#md1df0fb02d" x="250.937992" y="139.926384" style="fill: #ffa500; stroke: #ffa500"/>
     <use xlink:href="#md1df0fb02d" x="282.946187" y="126.488665" style="fill: #ffa500; stroke: #ffa500"/>
     <use xlink:href="#md1df0fb02d" x="260.083191" y="155.693736" style="fill: #ffa500; stroke: #ffa500"/>
     <use xlink:href="#md1df0fb02d" x="329.586699" y="112.774819" style="fill: #ffa500; stroke: #ffa500"/>
     <use xlink:href="#md1df0fb02d" x="318.612461" y="86.157042" style="fill: #ffa500; stroke: #ffa500"/>
     <use xlink:href="#md1df0fb02d" x="245.450873" y="119.720031" style="fill: #ffa500; stroke: #ffa500"/>
     <use xlink:href="#md1df0fb02d" x="315.868901" y="93.972995" style="fill: #ffa500; stroke: #ffa500"/>
     <use xlink:href="#md1df0fb02d" x="305.809183" y="152.80635" style="fill: #ffa500; stroke: #ffa500"/>
     <use xlink:href="#md1df0fb02d" x="248.194433" y="166.353349" style="fill: #ffa500; stroke: #ffa500"/>
     <use xlink:href="#md1df0fb02d" x="335.988338" y="89.139384" style="fill: #ffa500; stroke: #ffa500"/>
     <use xlink:href="#md1df0fb02d" x="245.450873" y="149.983493" style="fill: #ffa500; stroke: #ffa500"/>
     <use xlink:href="#md1df0fb02d" x="325.0141" y="87.852606" style="fill: #ffa500; stroke: #ffa500"/>
     <use xlink:href="#md1df0fb02d" x="134.793972" y="153.522033" style="fill: #ffa500; stroke: #ffa500"/>
     <use xlink:href="#md1df0fb02d" x="317.697941" y="62.776222" style="fill: #ffa500; stroke: #ffa500"/>
     <use xlink:href="#md1df0fb02d" x="256.425111" y="158.648668" style="fill: #ffa500; stroke: #ffa500"/>
     <use xlink:href="#md1df0fb02d" x="273.800988" y="69.975755" style="fill: #ffa500; stroke: #ffa500"/>
     <use xlink:href="#md1df0fb02d" x="358.851334" y="69.605864" style="fill: #ffa500; stroke: #ffa500"/>
     <use xlink:href="#md1df0fb02d" x="284.775226" y="130.611284" style="fill: #ffa500; stroke: #ffa500"/>
     <use xlink:href="#md1df0fb02d" x="263.74127" y="179.750541" style="fill: #ffa500; stroke: #ffa500"/>
     <use xlink:href="#md1df0fb02d" x="318.612461" y="73.735485" style="fill: #ffa500; stroke: #ffa500"/>
     <use xlink:href="#md1df0fb02d" x="314.039862" y="79.194503" style="fill: #ffa500; stroke: #ffa500"/>
     <use xlink:href="#md1df0fb02d" x="259.168671" y="154.965678" style="fill: #ffa500; stroke: #ffa500"/>
     <use xlink:href="#md1df0fb02d" x="219.844317" y="120.823249" style="fill: #ffa500; stroke: #ffa500"/>
     <use xlink:href="#md1df0fb02d" x="322.27054" y="79.593611" style="fill: #ffa500; stroke: #ffa500"/>
     <use xlink:href="#md1df0fb02d" x="282.031667" y="54.318069" style="fill: #ffa500; stroke: #ffa500"/>
     <use xlink:href="#md1df0fb02d" x="314.954381" y="107.680677" style="fill: #ffa500; stroke: #ffa500"/>
     <use xlink:href="#md1df0fb02d" x="318.612461" y="91.752945" style="fill: #ffa500; stroke: #ffa500"/>
     <use xlink:href="#md1df0fb02d" x="327.757659" y="119.172015" style="fill: #ffa500; stroke: #ffa500"/>
     <use xlink:href="#md1df0fb02d" x="314.039862" y="75.658165" style="fill: #ffa500; stroke: #ffa500"/>
     <use xlink:href="#md1df0fb02d" x="333.244778" y="97.608285" style="fill: #ffa500; stroke: #ffa500"/>
     <use xlink:href="#md1df0fb02d" x="330.501219" y="83.655621" style="fill: #ffa500; stroke: #ffa500"/>
    </g>
   </g>
   <g id="line2d_36">
    <g clip-path="url(#pe26edd2e44)">
     <use xlink:href="#md1df0fb02d" x="80.837301" y="253.118084" style="fill: #ffa500; stroke: #ffa500"/>
     <use xlink:href="#md1df0fb02d" x="335.988338" y="117.003419" style="fill: #ffa500; stroke: #ffa500"/>
     <use xlink:href="#md1df0fb02d" x="283.860707" y="71.466246" style="fill: #ffa500; stroke: #ffa500"/>
     <use xlink:href="#md1df0fb02d" x="227.160476" y="157.903429" style="fill: #ffa500; stroke: #ffa500"/>
     <use xlink:href="#md1df0fb02d" x="304.894663" y="78.796652" style="fill: #ffa500; stroke: #ffa500"/>
     <use xlink:href="#md1df0fb02d" x="326.843139" y="95.777563" style="fill: #ffa500; stroke: #ffa500"/>
     <use xlink:href="#md1df0fb02d" x="289.347826" y="94.872056" style="fill: #ffa500; stroke: #ffa500"/>
     <use xlink:href="#md1df0fb02d" x="191.494202" y="148.595373" style="fill: #ffa500; stroke: #ffa500"/>
     <use xlink:href="#md1df0fb02d" x="264.65579" y="149.287526" style="fill: #ffa500; stroke: #ffa500"/>
     <use xlink:href="#md1df0fb02d" x="314.954381" y="82.423244" style="fill: #ffa500; stroke: #ffa500"/>
     <use xlink:href="#md1df0fb02d" x="213.442678" y="172.040633" style="fill: #ffa500; stroke: #ffa500"/>
     <use xlink:href="#md1df0fb02d" x="250.937992" y="127.652891" style="fill: #ffa500; stroke: #ffa500"/>
     <use xlink:href="#md1df0fb02d" x="282.946187" y="114.344002" style="fill: #ffa500; stroke: #ffa500"/>
     <use xlink:href="#md1df0fb02d" x="260.083191" y="143.190587" style="fill: #ffa500; stroke: #ffa500"/>
     <use xlink:href="#md1df0fb02d" x="329.586699" y="87.426576" style="fill: #ffa500; stroke: #ffa500"/>
     <use xlink:href="#md1df0fb02d" x="318.612461" y="74.117687" style="fill: #ffa500; stroke: #ffa500"/>
     <use xlink:href="#md1df0fb02d" x="245.450873" y="107.182382" style="fill: #ffa500; stroke: #ffa500"/>
     <use xlink:href="#md1df0fb02d" x="315.868901" y="82.015109" style="fill: #ffa500; stroke: #ffa500"/>
     <use xlink:href="#md1df0fb02d" x="305.809183" y="145.864075" style="fill: #ffa500; stroke: #ffa500"/>
     <use xlink:href="#md1df0fb02d" x="248.194433" y="154.241793" style="fill: #ffa500; stroke: #ffa500"/>
     <use xlink:href="#md1df0fb02d" x="335.988338" y="83.243491" style="fill: #ffa500; stroke: #ffa500"/>
     <use xlink:href="#md1df0fb02d" x="245.450873" y="138.007599" style="fill: #ffa500; stroke: #ffa500"/>
     <use xlink:href="#md1df0fb02d" x="325.0141" y="65.965335" style="fill: #ffa500; stroke: #ffa500"/>
     <use xlink:href="#md1df0fb02d" x="134.793972" y="141.221961" style="fill: #ffa500; stroke: #ffa500"/>
     <use xlink:href="#md1df0fb02d" x="317.697941" y="50.133918" style="fill: #ffa500; stroke: #ffa500"/>
     <use xlink:href="#md1df0fb02d" x="256.425111" y="147.222342" style="fill: #ffa500; stroke: #ffa500"/>
     <use xlink:href="#md1df0fb02d" x="273.800988" y="60.007506" style="fill: #ffa500; stroke: #ffa500"/>
     <use xlink:href="#md1df0fb02d" x="358.851334" y="65.965335" style="fill: #ffa500; stroke: #ffa500"/>
     <use xlink:href="#md1df0fb02d" x="284.775226" y="118.083063" style="fill: #ffa500; stroke: #ffa500"/>
     <use xlink:href="#md1df0fb02d" x="263.74127" y="167.952328" style="fill: #ffa500; stroke: #ffa500"/>
     <use xlink:href="#md1df0fb02d" x="318.612461" y="72.218138" style="fill: #ffa500; stroke: #ffa500"/>
     <use xlink:href="#md1df0fb02d" x="314.039862" y="70.718802" style="fill: #ffa500; stroke: #ffa500"/>
     <use xlink:href="#md1df0fb02d" x="259.168671" y="142.530963" style="fill: #ffa500; stroke: #ffa500"/>
     <use xlink:href="#md1df0fb02d" x="219.844317" y="109.187465" style="fill: #ffa500; stroke: #ffa500"/>
     <use xlink:href="#md1df0fb02d" x="322.27054" y="78.00469" style="fill: #ffa500; stroke: #ffa500"/>
     <use xlink:href="#md1df0fb02d" x="282.031667" y="52.369687" style="fill: #ffa500; stroke: #ffa500"/>
     <use xlink:href="#md1df0fb02d" x="314.954381" y="95.323998" style="fill: #ffa500; stroke: #ffa500"/>
     <use xlink:href="#md1df0fb02d" x="318.612461" y="87.426576" style="fill: #ffa500; stroke: #ffa500"/>
     <use xlink:href="#md1df0fb02d" x="327.757659" y="93.525852" style="fill: #ffa500; stroke: #ffa500"/>
     <use xlink:href="#md1df0fb02d" x="314.039862" y="71.841633" style="fill: #ffa500; stroke: #ffa500"/>
     <use xlink:href="#md1df0fb02d" x="333.244778" y="85.317719" style="fill: #ffa500; stroke: #ffa500"/>
     <use xlink:href="#md1df0fb02d" x="330.501219" y="71.091971" style="fill: #ffa500; stroke: #ffa500"/>
    </g>
   </g>
   <g id="line2d_37">
    <path d="M 76.264702 229.559601 
L 146.859216 189.642498 
L 194.189629 161.673274 
L 207.827206 154.12582 
L 215.047099 150.110323 
L 226.278045 143.925971 
L 230.289097 141.723662 
L 235.102359 139.259455 
L 254.355408 128.752953 
L 259.970881 125.479177 
L 263.981933 123.388639 
L 270.399616 119.568238 
L 276.817299 116.284783 
L 280.026141 114.570247 
L 281.630562 113.734823 
L 287.246034 109.996344 
L 290.454876 107.95011 
L 292.059297 106.945949 
L 300.883611 101.758105 
L 304.092453 99.73012 
L 308.905715 96.809643 
L 312.916767 94.369919 
L 325.752133 86.947633 
L 340.994131 77.892573 
L 352.225076 71.252762 
L 377.895809 56.386169 
L 396.346648 45.474743 
L 396.346648 45.474743 
" clip-path="url(#pe26edd2e44)" style="fill: none; stroke: #000000; stroke-width: 1.5"/>
   </g>
   <g id="line2d_38">
    <path d="M 76.264702 255.380042 
L 155.68353 210.538912 
L 178.947632 196.838857 
L 194.189629 189.006358 
L 209.431626 180.534837 
L 227.080255 170.744982 
L 231.893517 168.401596 
L 239.113411 164.32006 
L 256.76204 152.515906 
L 259.168671 151.091087 
L 270.399616 145.104966 
L 274.410668 142.862269 
L 278.42172 140.281109 
L 288.048245 134.67311 
L 294.465928 131.28059 
L 297.67477 129.342383 
L 314.521188 118.538919 
L 328.158764 110.977632 
L 332.972027 108.452555 
L 337.785289 105.76416 
L 346.609603 100.573483 
L 357.840549 93.520533 
L 365.060442 89.343163 
L 380.30244 80.683902 
L 391.533385 74.089693 
L 396.346648 71.283396 
L 396.346648 71.283396 
" clip-path="url(#pe26edd2e44)" style="fill: none; stroke-dasharray: 5.55,2.4; stroke-dashoffset: 0; stroke: #ff0000; stroke-width: 1.5"/>
   </g>
   <g id="line2d_39">
    <path d="M 76.264702 204.372771 
L 102.737644 189.451644 
L 148.463637 163.6524 
L 167.716686 152.831712 
L 214.244889 125.613999 
L 236.70678 112.401185 
L 240.717832 109.955009 
L 250.344356 104.818987 
L 252.750988 103.469624 
L 258.36646 100.348481 
L 262.377512 98.101287 
L 265.586354 96.120664 
L 273.608458 91.58685 
L 275.212879 90.583035 
L 282.432772 87.069571 
L 298.47698 77.357379 
L 304.092453 74.112551 
L 313.718977 69.187597 
L 319.33445 65.876264 
L 327.356554 61.223395 
L 339.38971 54.833457 
L 341.796341 53.355709 
L 351.422866 47.159442 
L 396.346648 21.046 
L 396.346648 21.046 
" clip-path="url(#pe26edd2e44)" style="fill: none; stroke-dasharray: 5.55,2.4; stroke-dashoffset: 0; stroke: #ff0000; stroke-width: 1.5"/>
   </g>
   <g id="line2d_40">
    <defs>
     <path id="m90a24905c1" d="M 0 3 
C 0.795609 3 1.55874 2.683901 2.12132 2.12132 
C 2.683901 1.55874 3 0.795609 3 0 
C 3 -0.795609 2.683901 -1.55874 2.12132 -2.12132 
C 1.55874 -2.683901 0.795609 -3 0 -3 
C -0.795609 -3 -1.55874 -2.683901 -2.12132 -2.12132 
C -2.683901 -1.55874 -3 -0.795609 -3 0 
C -3 0.795609 -2.683901 1.55874 -2.12132 2.12132 
C -1.55874 2.683901 -0.795609 3 0 3 
z
" style="stroke: #ffa500"/>
    </defs>
    <g clip-path="url(#pe26edd2e44)">
     <use xlink:href="#m90a24905c1" x="80.837301" y="257.946097" style="fill: #ffa500; stroke: #ffa500"/>
     <use xlink:href="#m90a24905c1" x="335.988338" y="121.936187" style="fill: #ffa500; stroke: #ffa500"/>
     <use xlink:href="#m90a24905c1" x="283.860707" y="74.885578" style="fill: #ffa500; stroke: #ffa500"/>
     <use xlink:href="#m90a24905c1" x="227.160476" y="160.152467" style="fill: #ffa500; stroke: #ffa500"/>
     <use xlink:href="#m90a24905c1" x="304.894663" y="79.993985" style="fill: #ffa500; stroke: #ffa500"/>
     <use xlink:href="#m90a24905c1" x="326.843139" y="96.689607" style="fill: #ffa500; stroke: #ffa500"/>
     <use xlink:href="#m90a24905c1" x="289.347826" y="99.46593" style="fill: #ffa500; stroke: #ffa500"/>
     <use xlink:href="#m90a24905c1" x="191.494202" y="154.241793" style="fill: #ffa500; stroke: #ffa500"/>
     <use xlink:href="#m90a24905c1" x="264.65579" y="160.911134" style="fill: #ffa500; stroke: #ffa500"/>
     <use xlink:href="#m90a24905c1" x="314.954381" y="87.426576" style="fill: #ffa500; stroke: #ffa500"/>
     <use xlink:href="#m90a24905c1" x="213.442678" y="177.996102" style="fill: #ffa500; stroke: #ffa500"/>
     <use xlink:href="#m90a24905c1" x="250.937992" y="133.640629" style="fill: #ffa500; stroke: #ffa500"/>
     <use xlink:href="#m90a24905c1" x="282.946187" y="120.270436" style="fill: #ffa500; stroke: #ffa500"/>
     <use xlink:href="#m90a24905c1" x="260.083191" y="149.287526" style="fill: #ffa500; stroke: #ffa500"/>
     <use xlink:href="#m90a24905c1" x="329.586699" y="99.46593" style="fill: #ffa500; stroke: #ffa500"/>
     <use xlink:href="#m90a24905c1" x="318.612461" y="79.993985" style="fill: #ffa500; stroke: #ffa500"/>
     <use xlink:href="#m90a24905c1" x="245.450873" y="113.295717" style="fill: #ffa500; stroke: #ffa500"/>
     <use xlink:href="#m90a24905c1" x="315.868901" y="87.852606" style="fill: #ffa500; stroke: #ffa500"/>
     <use xlink:href="#m90a24905c1" x="305.809183" y="149.287526" style="fill: #ffa500; stroke: #ffa500"/>
     <use xlink:href="#m90a24905c1" x="248.194433" y="160.152467" style="fill: #ffa500; stroke: #ffa500"/>
     <use xlink:href="#m90a24905c1" x="335.988338" y="86.157042" style="fill: #ffa500; stroke: #ffa500"/>
     <use xlink:href="#m90a24905c1" x="245.450873" y="143.853673" style="fill: #ffa500; stroke: #ffa500"/>
     <use xlink:href="#m90a24905c1" x="325.0141" y="76.435507" style="fill: #ffa500; stroke: #ffa500"/>
     <use xlink:href="#m90a24905c1" x="134.793972" y="147.222342" style="fill: #ffa500; stroke: #ffa500"/>
     <use xlink:href="#m90a24905c1" x="317.697941" y="56.296975" style="fill: #ffa500; stroke: #ffa500"/>
     <use xlink:href="#m90a24905c1" x="256.425111" y="152.80635" style="fill: #ffa500; stroke: #ffa500"/>
     <use xlink:href="#m90a24905c1" x="273.800988" y="64.893327" style="fill: #ffa500; stroke: #ffa500"/>
     <use xlink:href="#m90a24905c1" x="358.851334" y="67.772485" style="fill: #ffa500; stroke: #ffa500"/>
     <use xlink:href="#m90a24905c1" x="284.775226" y="124.191918" style="fill: #ffa500; stroke: #ffa500"/>
     <use xlink:href="#m90a24905c1" x="263.74127" y="173.713739" style="fill: #ffa500; stroke: #ffa500"/>
     <use xlink:href="#m90a24905c1" x="318.612461" y="72.974534" style="fill: #ffa500; stroke: #ffa500"/>
     <use xlink:href="#m90a24905c1" x="314.039862" y="74.885578" style="fill: #ffa500; stroke: #ffa500"/>
     <use xlink:href="#m90a24905c1" x="259.168671" y="148.595373" style="fill: #ffa500; stroke: #ffa500"/>
     <use xlink:href="#m90a24905c1" x="219.844317" y="114.871425" style="fill: #ffa500; stroke: #ffa500"/>
     <use xlink:href="#m90a24905c1" x="322.27054" y="78.796652" style="fill: #ffa500; stroke: #ffa500"/>
     <use xlink:href="#m90a24905c1" x="282.031667" y="53.340121" style="fill: #ffa500; stroke: #ffa500"/>
     <use xlink:href="#m90a24905c1" x="314.954381" y="101.351303" style="fill: #ffa500; stroke: #ffa500"/>
     <use xlink:href="#m90a24905c1" x="318.612461" y="89.571239" style="fill: #ffa500; stroke: #ffa500"/>
     <use xlink:href="#m90a24905c1" x="327.757659" y="105.699183" style="fill: #ffa500; stroke: #ffa500"/>
     <use xlink:href="#m90a24905c1" x="314.039862" y="73.735485" style="fill: #ffa500; stroke: #ffa500"/>
     <use xlink:href="#m90a24905c1" x="333.244778" y="91.313579" style="fill: #ffa500; stroke: #ffa500"/>
     <use xlink:href="#m90a24905c1" x="330.501219" y="77.217662" style="fill: #ffa500; stroke: #ffa500"/>
    </g>
   </g>
   <g id="patch_3">
    <path d="M 55.459375 275.062 
L 55.459375 8.95 
" style="fill: none; stroke: #000000; stroke-width: 0.8; stroke-linejoin: miter; stroke-linecap: square"/>
   </g>
   <g id="patch_4">
    <path d="M 412.579375 275.062 
L 412.579375 8.95 
" style="fill: none; stroke: #000000; stroke-width: 0.8; stroke-linejoin: miter; stroke-linecap: square"/>
   </g>
   <g id="patch_5">
    <path d="M 55.459375 275.062 
L 412.579375 275.062 
" style="fill: none; stroke: #000000; stroke-width: 0.8; stroke-linejoin: miter; stroke-linecap: square"/>
   </g>
   <g id="patch_6">
    <path d="M 55.459375 8.95 
L 412.579375 8.95 
" style="fill: none; stroke: #000000; stroke-width: 0.8; stroke-linejoin: miter; stroke-linecap: square"/>
   </g>
  </g>
 </g>
 <defs>
  <clipPath id="pe26edd2e44">
   <rect x="55.459375" y="8.95" width="357.12" height="266.112"/>
  </clipPath>
 </defs>
</svg>
