<?xml version="1.0" encoding="utf-8" standalone="no"?>
<!DOCTYPE svg PUBLIC "-//W3C//DTD SVG 1.1//EN"
  "http://www.w3.org/Graphics/SVG/1.1/DTD/svg11.dtd">
<svg xmlns:xlink="http://www.w3.org/1999/xlink" width="389.63875pt" height="309.921375pt" viewBox="0 0 389.63875 309.921375" xmlns="http://www.w3.org/2000/svg" version="1.1">
 <metadata>
  <rdf:RDF xmlns:dc="http://purl.org/dc/elements/1.1/" xmlns:cc="http://creativecommons.org/ns#" xmlns:rdf="http://www.w3.org/1999/02/22-rdf-syntax-ns#">
   <cc:Work>
    <dc:type rdf:resource="http://purl.org/dc/dcmitype/StillImage"/>
    <dc:date>2022-09-09T02:57:06.221342</dc:date>
    <dc:format>image/svg+xml</dc:format>
    <dc:creator>
     <cc:Agent>
      <dc:title>Matplotlib v3.5.1, https://matplotlib.org/</dc:title>
     </cc:Agent>
    </dc:creator>
   </cc:Work>
  </rdf:RDF>
 </metadata>
 <defs>
  <style type="text/css">*{stroke-linejoin: round; stroke-linecap: butt}</style>
 </defs>
 <g id="figure_1">
  <g id="patch_1">
   <path d="M 0 309.921375 
L 389.63875 309.921375 
L 389.63875 0 
L 0 0 
z
" style="fill: #ffffff"/>
  </g>
  <g id="axes_1">
   <g id="patch_2">
    <path d="M 23.56875 275.062 
L 380.68875 275.062 
L 380.68875 8.95 
L 23.56875 8.95 
z
" style="fill: #ffffff"/>
   </g>
   <g id="PolyCollection_1">
    <path d="M 225.293607 256.501385 
L 225.293607 256.697984 
L 226.490203 256.710228 
L 227.686799 256.723894 
L 228.883396 256.740257 
L 230.079992 256.761049 
L 231.276588 256.788355 
L 232.473184 256.824415 
L 233.66978 256.871348 
L 234.866377 256.930838 
L 236.062973 257.003827 
L 237.259569 257.09029 
L 238.456165 257.189145 
L 239.652761 257.29834 
L 240.849357 257.415123 
L 242.045954 257.536459 
L 243.24255 257.659515 
L 244.439146 257.782129 
L 245.635742 257.903173 
L 246.832338 258.022737 
L 248.028935 258.142108 
L 249.225531 258.263552 
L 250.422127 258.389952 
L 251.618723 258.524357 
L 252.815319 258.669535 
L 254.011916 258.827573 
L 255.208512 258.999617 
L 256.405108 259.185751 
L 257.601704 259.385048 
L 258.7983 259.595754 
L 259.994896 259.81556 
L 261.191493 260.041875 
L 262.388089 260.272029 
L 263.584685 260.503333 
L 264.781281 260.733008 
L 265.977877 260.958032 
L 267.174474 261.175027 
L 268.37107 261.380301 
L 269.567666 261.570156 
L 270.764262 261.741442 
L 271.960858 261.89226 
L 273.157455 262.022593 
L 274.354051 262.134634 
L 275.550647 262.232614 
L 276.747243 262.322077 
L 277.943839 262.408697 
L 279.140435 262.496909 
L 280.337032 262.588683 
L 281.533628 262.682784 
L 282.730224 262.774708 
L 283.92682 262.857339 
L 285.123416 262.922157 
L 286.320013 262.960713 
L 287.516609 262.966 
L 288.713205 262.933442 
L 289.909801 262.861303 
L 291.106397 262.750515 
L 292.302994 262.604046 
L 293.49959 262.426068 
L 294.696186 262.221159 
L 295.892782 261.993781 
L 297.089378 261.748096 
L 298.285974 261.488128 
L 299.482571 261.218107 
L 300.679167 260.942835 
L 301.875763 260.667873 
L 303.072359 260.399465 
L 304.268955 260.144166 
L 305.465552 259.908257 
L 306.662148 259.697089 
L 307.858744 259.514475 
L 309.05534 259.36226 
L 310.251936 259.240122 
L 311.448533 259.145588 
L 312.645129 259.074258 
L 313.841725 259.02016 
L 315.038321 258.976225 
L 316.234917 258.934842 
L 317.431513 258.888484 
L 318.62811 258.830369 
L 319.824706 258.755115 
L 321.021302 258.659285 
L 322.217898 258.541765 
L 323.414494 258.403866 
L 324.611091 258.249132 
L 325.807687 258.08287 
L 327.004283 257.911465 
L 328.200879 257.741603 
L 329.397475 257.579515 
L 330.594072 257.430354 
L 331.790668 257.297783 
L 332.987264 257.183787 
L 334.18386 257.088716 
L 335.380456 257.011509 
L 336.577052 256.950041 
L 337.773649 256.901535 
L 338.970245 256.862979 
L 340.166841 256.831497 
L 341.363437 256.804631 
L 342.560033 256.780515 
L 343.75663 256.757938 
L 343.75663 256.441431 
L 343.75663 256.441431 
L 342.560033 256.418853 
L 341.363437 256.394737 
L 340.166841 256.367871 
L 338.970245 256.33639 
L 337.773649 256.297834 
L 336.577052 256.249327 
L 335.380456 256.187859 
L 334.18386 256.110652 
L 332.987264 256.015582 
L 331.790668 255.901586 
L 330.594072 255.769015 
L 329.397475 255.619854 
L 328.200879 255.457765 
L 327.004283 255.287903 
L 325.807687 255.116499 
L 324.611091 254.950236 
L 323.414494 254.795503 
L 322.217898 254.657603 
L 321.021302 254.540084 
L 319.824706 254.444254 
L 318.62811 254.368999 
L 317.431513 254.310884 
L 316.234917 254.264526 
L 315.038321 254.223143 
L 313.841725 254.179209 
L 312.645129 254.125111 
L 311.448533 254.053781 
L 310.251936 253.959247 
L 309.05534 253.837108 
L 307.858744 253.684893 
L 306.662148 253.502279 
L 305.465552 253.291111 
L 304.268955 253.055203 
L 303.072359 252.799903 
L 301.875763 252.531495 
L 300.679167 252.256533 
L 299.482571 251.981261 
L 298.285974 251.711241 
L 297.089378 251.451273 
L 295.892782 251.205588 
L 294.696186 250.978209 
L 293.49959 250.773301 
L 292.302994 250.595322 
L 291.106397 250.448854 
L 289.909801 250.338065 
L 288.713205 250.265927 
L 287.516609 250.233368 
L 286.320013 250.238655 
L 285.123416 250.277211 
L 283.92682 250.34203 
L 282.730224 250.424661 
L 281.533628 250.516584 
L 280.337032 250.610685 
L 279.140435 250.70246 
L 277.943839 250.790671 
L 276.747243 250.877292 
L 275.550647 250.966755 
L 274.354051 251.064735 
L 273.157455 251.176775 
L 271.960858 251.307108 
L 270.764262 251.457926 
L 269.567666 251.629213 
L 268.37107 251.819068 
L 267.174474 252.024342 
L 265.977877 252.241336 
L 264.781281 252.466361 
L 263.584685 252.696036 
L 262.388089 252.927339 
L 261.191493 253.157493 
L 259.994896 253.383809 
L 258.7983 253.603614 
L 257.601704 253.81432 
L 256.405108 254.013617 
L 255.208512 254.199752 
L 254.011916 254.371796 
L 252.815319 254.529834 
L 251.618723 254.675011 
L 250.422127 254.809417 
L 249.225531 254.935817 
L 248.028935 255.057261 
L 246.832338 255.176631 
L 245.635742 255.296195 
L 244.439146 255.41724 
L 243.24255 255.539854 
L 242.045954 255.662909 
L 240.849357 255.784245 
L 239.652761 255.901029 
L 238.456165 256.010223 
L 237.259569 256.109078 
L 236.062973 256.195541 
L 234.866377 256.26853 
L 233.66978 256.32802 
L 232.473184 256.374954 
L 231.276588 256.411014 
L 230.079992 256.43832 
L 228.883396 256.459112 
L 227.686799 256.475474 
L 226.490203 256.48914 
L 225.293607 256.501385 
z
" clip-path="url(#p7d99f43f1f)" style="fill: #008fd5; fill-opacity: 0.3"/>
   </g>
   <g id="PolyCollection_2">
    <path d="M 138.318208 230.559415 
L 138.318208 231.709427 
L 140.602428 231.787604 
L 142.886649 231.86537 
L 145.170869 231.941335 
L 147.455089 232.014445 
L 149.73931 232.084072 
L 152.02353 232.15005 
L 154.30775 232.212655 
L 156.591971 232.272557 
L 158.876191 232.330738 
L 161.160411 232.388414 
L 163.444632 232.446963 
L 165.728852 232.507881 
L 168.013072 232.572763 
L 170.297293 232.643307 
L 172.581513 232.721314 
L 174.865733 232.808681 
L 177.149954 232.907346 
L 179.434174 233.019198 
L 181.718395 233.145925 
L 184.002615 233.288832 
L 186.286835 233.448642 
L 188.571056 233.62532 
L 190.855276 233.817947 
L 193.139496 234.024688 
L 195.423717 234.242855 
L 197.707937 234.469078 
L 199.992157 234.699552 
L 202.276378 234.93035 
L 204.560598 235.157726 
L 206.844818 235.378391 
L 209.129039 235.589713 
L 211.413259 235.789814 
L 213.697479 235.97757 
L 215.9817 236.152517 
L 218.26592 236.314699 
L 220.550141 236.464488 
L 222.834361 236.602421 
L 225.118581 236.729065 
L 227.402802 236.844942 
L 229.687022 236.950496 
L 231.971242 237.046094 
L 234.255463 237.132053 
L 236.539683 237.208646 
L 238.823903 237.276105 
L 241.108124 237.334612 
L 243.392344 237.384275 
L 245.676564 237.425129 
L 247.960785 237.457161 
L 250.245005 237.480364 
L 252.529225 237.494812 
L 254.813446 237.500737 
L 257.097666 237.498559 
L 259.381887 237.488862 
L 261.666107 237.472277 
L 263.950327 237.449298 
L 266.234548 237.420051 
L 268.518768 237.384075 
L 270.802988 237.340173 
L 273.087209 237.286395 
L 275.371429 237.220175 
L 277.655649 237.138648 
L 279.93987 237.039072 
L 282.22409 236.919322 
L 284.50831 236.778339 
L 286.792531 236.616447 
L 289.076751 236.435481 
L 291.360971 236.238668 
L 293.645192 236.030296 
L 295.929412 235.815209 
L 298.213633 235.598233 
L 300.497853 235.383623 
L 302.782073 235.174629 
L 305.066294 234.973258 
L 307.350514 234.780238 
L 309.634734 234.595184 
L 311.918955 234.416898 
L 314.203175 234.243754 
L 316.487395 234.074057 
L 318.771616 233.906351 
L 321.055836 233.739612 
L 323.340056 233.57333 
L 325.624277 233.407485 
L 327.908497 233.242472 
L 330.192717 233.078979 
L 332.476938 232.917884 
L 334.761158 232.760164 
L 337.045378 232.606844 
L 339.329599 232.458956 
L 341.613819 232.317517 
L 343.89804 232.183501 
L 346.18226 232.057793 
L 348.46648 231.941143 
L 350.750701 231.834104 
L 353.034921 231.736989 
L 355.319141 231.649838 
L 357.603362 231.572421 
L 359.887582 231.504268 
L 362.171802 231.444726 
L 364.456023 231.393027 
L 364.456023 230.875815 
L 364.456023 230.875815 
L 362.171802 230.824116 
L 359.887582 230.764574 
L 357.603362 230.696421 
L 355.319141 230.619004 
L 353.034921 230.531853 
L 350.750701 230.434738 
L 348.46648 230.3277 
L 346.18226 230.211049 
L 343.89804 230.085341 
L 341.613819 229.951325 
L 339.329599 229.809886 
L 337.045378 229.661998 
L 334.761158 229.508678 
L 332.476938 229.350958 
L 330.192717 229.189863 
L 327.908497 229.02637 
L 325.624277 228.861357 
L 323.340056 228.695513 
L 321.055836 228.52923 
L 318.771616 228.362491 
L 316.487395 228.194786 
L 314.203175 228.025088 
L 311.918955 227.851944 
L 309.634734 227.673659 
L 307.350514 227.488604 
L 305.066294 227.295584 
L 302.782073 227.094213 
L 300.497853 226.885219 
L 298.213633 226.670609 
L 295.929412 226.453633 
L 293.645192 226.238547 
L 291.360971 226.030174 
L 289.076751 225.833361 
L 286.792531 225.652395 
L 284.50831 225.490503 
L 282.22409 225.34952 
L 279.93987 225.22977 
L 277.655649 225.130194 
L 275.371429 225.048667 
L 273.087209 224.982447 
L 270.802988 224.928669 
L 268.518768 224.884767 
L 266.234548 224.848792 
L 263.950327 224.819545 
L 261.666107 224.796565 
L 259.381887 224.77998 
L 257.097666 224.770283 
L 254.813446 224.768105 
L 252.529225 224.77403 
L 250.245005 224.788478 
L 247.960785 224.811681 
L 245.676564 224.843713 
L 243.392344 224.884567 
L 241.108124 224.93423 
L 238.823903 224.992737 
L 236.539683 225.060197 
L 234.255463 225.136789 
L 231.971242 225.222748 
L 229.687022 225.318346 
L 227.402802 225.4239 
L 225.118581 225.539777 
L 222.834361 225.666421 
L 220.550141 225.804354 
L 218.26592 225.954143 
L 215.9817 226.116325 
L 213.697479 226.291272 
L 211.413259 226.479028 
L 209.129039 226.67913 
L 206.844818 226.890451 
L 204.560598 227.111116 
L 202.276378 227.338492 
L 199.992157 227.56929 
L 197.707937 227.799765 
L 195.423717 228.025987 
L 193.139496 228.244154 
L 190.855276 228.450895 
L 188.571056 228.643522 
L 186.286835 228.8202 
L 184.002615 228.98001 
L 181.718395 229.122917 
L 179.434174 229.249644 
L 177.149954 229.361496 
L 174.865733 229.460161 
L 172.581513 229.547528 
L 170.297293 229.625535 
L 168.013072 229.696079 
L 165.728852 229.760961 
L 163.444632 229.821879 
L 161.160411 229.880428 
L 158.876191 229.938104 
L 156.591971 229.996286 
L 154.30775 230.056187 
L 152.02353 230.118792 
L 149.73931 230.18477 
L 147.455089 230.254397 
L 145.170869 230.327507 
L 142.886649 230.403472 
L 140.602428 230.481238 
L 138.318208 230.559415 
z
" clip-path="url(#p7d99f43f1f)" style="fill: #008fd5; fill-opacity: 0.3"/>
   </g>
   <g id="PolyCollection_3">
    <path d="M 200.027614 205.399408 
L 200.027614 205.938908 
L 201.416754 205.992796 
L 202.805895 206.048665 
L 204.195035 206.106068 
L 205.584175 206.165483 
L 206.973316 206.228512 
L 208.362456 206.297875 
L 209.751597 206.377172 
L 211.140737 206.470413 
L 212.529877 206.581379 
L 213.919018 206.712943 
L 215.308158 206.866515 
L 216.697298 207.041776 
L 218.086439 207.236809 
L 219.475579 207.448614 
L 220.86472 207.673883 
L 222.25386 207.909786 
L 223.643 208.154511 
L 225.032141 208.407367 
L 226.421281 208.668429 
L 227.810422 208.937862 
L 229.199562 209.215206 
L 230.588702 209.498908 
L 231.977843 209.786254 
L 233.366983 210.073672 
L 234.756123 210.357221 
L 236.145264 210.632969 
L 237.534404 210.897083 
L 238.923545 211.14561 
L 240.312685 211.374125 
L 241.701825 211.577518 
L 243.090966 211.750148 
L 244.480106 211.886376 
L 245.869246 211.981323 
L 247.258387 212.031561 
L 248.647527 212.035474 
L 250.036668 211.993224 
L 251.425808 211.906444 
L 252.814948 211.777872 
L 254.204089 211.611173 
L 255.593229 211.411016 
L 256.982369 211.183332 
L 258.37151 210.935585 
L 259.76065 210.676804 
L 261.149791 210.417191 
L 262.538931 210.167218 
L 263.928071 209.936284 
L 265.317212 209.73116 
L 266.706352 209.554664 
L 268.095493 209.404968 
L 269.484633 209.275897 
L 270.873773 209.158215 
L 272.262914 209.041595 
L 273.652054 208.916701 
L 275.041194 208.776796 
L 276.430335 208.61849 
L 277.819475 208.441637 
L 279.208616 208.24863 
L 280.597756 208.043548 
L 281.986896 207.831435 
L 283.376037 207.617828 
L 284.765177 207.408419 
L 286.154317 207.208675 
L 287.543458 207.023324 
L 288.932598 206.85578 
L 290.321739 206.707706 
L 291.710879 206.578898 
L 293.100019 206.467603 
L 294.48916 206.371167 
L 295.8783 206.286804 
L 297.26744 206.212227 
L 298.656581 206.14597 
L 300.045721 206.087334 
L 301.434862 206.036084 
L 302.824002 205.992028 
L 304.213142 205.954674 
L 305.602283 205.923074 
L 306.991423 205.89587 
L 308.380564 205.871518 
L 309.769704 205.848595 
L 311.158844 205.826078 
L 312.547985 205.803525 
L 313.937125 205.78109 
L 315.326265 205.759391 
L 316.715406 205.739281 
L 318.104546 205.721596 
L 319.493687 205.70696 
L 320.882827 205.69569 
L 322.271967 205.687815 
L 323.661108 205.683148 
L 325.050248 205.681396 
L 326.439388 205.682227 
L 327.828529 205.68529 
L 329.217669 205.69018 
L 330.60681 205.696378 
L 331.99595 205.703214 
L 333.38509 205.70987 
L 334.774231 205.715468 
L 336.163371 205.719206 
L 337.552511 205.720517 
L 337.552511 205.617799 
L 337.552511 205.617799 
L 336.163371 205.61911 
L 334.774231 205.622848 
L 333.38509 205.628446 
L 331.99595 205.635102 
L 330.60681 205.641938 
L 329.217669 205.648136 
L 327.828529 205.653026 
L 326.439388 205.656088 
L 325.050248 205.65692 
L 323.661108 205.655168 
L 322.271967 205.650501 
L 320.882827 205.642625 
L 319.493687 205.631356 
L 318.104546 205.61672 
L 316.715406 205.599034 
L 315.326265 205.578925 
L 313.937125 205.557226 
L 312.547985 205.53479 
L 311.158844 205.512238 
L 309.769704 205.489721 
L 308.380564 205.466797 
L 306.991423 205.442446 
L 305.602283 205.415241 
L 304.213142 205.383642 
L 302.824002 205.346288 
L 301.434862 205.302232 
L 300.045721 205.250981 
L 298.656581 205.192346 
L 297.26744 205.126089 
L 295.8783 205.051512 
L 294.48916 204.967149 
L 293.100019 204.870712 
L 291.710879 204.759418 
L 290.321739 204.63061 
L 288.932598 204.482536 
L 287.543458 204.314992 
L 286.154317 204.129641 
L 284.765177 203.929897 
L 283.376037 203.720488 
L 281.986896 203.506881 
L 280.597756 203.294768 
L 279.208616 203.089686 
L 277.819475 202.896679 
L 276.430335 202.719825 
L 275.041194 202.56152 
L 273.652054 202.421614 
L 272.262914 202.296721 
L 270.873773 202.180101 
L 269.484633 202.062419 
L 268.095493 201.933348 
L 266.706352 201.783652 
L 265.317212 201.607156 
L 263.928071 201.402032 
L 262.538931 201.171097 
L 261.149791 200.921125 
L 259.76065 200.661511 
L 258.37151 200.40273 
L 256.982369 200.154984 
L 255.593229 199.9273 
L 254.204089 199.727143 
L 252.814948 199.560444 
L 251.425808 199.431872 
L 250.036668 199.345091 
L 248.647527 199.302842 
L 247.258387 199.306755 
L 245.869246 199.356993 
L 244.480106 199.45194 
L 243.090966 199.588167 
L 241.701825 199.760797 
L 240.312685 199.964191 
L 238.923545 200.192706 
L 237.534404 200.441233 
L 236.145264 200.705347 
L 234.756123 200.981095 
L 233.366983 201.264644 
L 231.977843 201.552062 
L 230.588702 201.839407 
L 229.199562 202.12311 
L 227.810422 202.400454 
L 226.421281 202.669887 
L 225.032141 202.930949 
L 223.643 203.183805 
L 222.25386 203.428529 
L 220.86472 203.664432 
L 219.475579 203.889701 
L 218.086439 204.101507 
L 216.697298 204.29654 
L 215.308158 204.471801 
L 213.919018 204.625373 
L 212.529877 204.756937 
L 211.140737 204.867902 
L 209.751597 204.961143 
L 208.362456 205.040441 
L 206.973316 205.109804 
L 205.584175 205.172833 
L 204.195035 205.232248 
L 202.805895 205.28965 
L 201.416754 205.34552 
L 200.027614 205.399408 
z
" clip-path="url(#p7d99f43f1f)" style="fill: #008fd5; fill-opacity: 0.3"/>
   </g>
   <g id="PolyCollection_4">
    <path d="M 250.306763 180.023391 
L 250.306763 180.384399 
L 250.812153 180.418132 
L 251.317544 180.45471 
L 251.822935 180.494155 
L 252.328326 180.536701 
L 252.833717 180.582843 
L 253.339107 180.63334 
L 253.844498 180.689141 
L 254.349889 180.751236 
L 254.85528 180.820455 
L 255.36067 180.897258 
L 255.866061 180.981573 
L 256.371452 181.072763 
L 256.876843 181.169749 
L 257.382233 181.27131 
L 257.887624 181.376496 
L 258.393015 181.485057 
L 258.898406 181.597763 
L 259.403796 181.716485 
L 259.909187 181.843976 
L 260.414578 181.983357 
L 260.919969 182.137406 
L 261.42536 182.307821 
L 261.93075 182.494649 
L 262.436141 182.696036 
L 262.941532 182.908382 
L 263.446923 183.126872 
L 263.952313 183.346247 
L 264.457704 183.561617 
L 264.963095 183.769109 
L 265.468486 183.96619 
L 265.973876 184.151606 
L 266.479267 184.32502 
L 266.984658 184.486492 
L 267.490049 184.636032 
L 267.995439 184.773404 
L 268.50083 184.898287 
L 269.006221 185.010744 
L 269.511612 185.11185 
L 270.017003 185.204217 
L 270.522393 185.292187 
L 271.027784 185.381497 
L 271.533175 185.478408 
L 272.038566 185.588409 
L 272.543956 185.714788 
L 273.049347 185.857373 
L 273.554738 186.011791 
L 274.060129 186.169432 
L 274.565519 186.318192 
L 275.07091 186.443893 
L 275.576301 186.532128 
L 276.081692 186.570211 
L 276.587082 186.548899 
L 277.092473 186.463611 
L 277.597864 186.314969 
L 278.103255 186.108626 
L 278.608645 185.854452 
L 279.114036 185.565259 
L 279.619427 185.255275 
L 280.124818 184.938616 
L 280.630209 184.627943 
L 281.135599 184.333454 
L 281.64099 184.062275 
L 282.146381 183.818259 
L 282.651772 183.602136 
L 283.157162 183.411934 
L 283.662553 183.243604 
L 284.167944 183.091747 
L 284.673335 182.950395 
L 285.178725 182.81378 
L 285.684116 182.677019 
L 286.189507 182.536657 
L 286.694898 182.390999 
L 287.200288 182.240179 
L 287.705679 182.085977 
L 288.21107 181.931404 
L 288.716461 181.780149 
L 289.221852 181.635986 
L 289.727242 181.502245 
L 290.232633 181.381425 
L 290.738024 181.274986 
L 291.243415 181.183306 
L 291.748805 181.105777 
L 292.254196 181.040984 
L 292.759587 180.986933 
L 293.264978 180.941277 
L 293.770368 180.901552 
L 294.275759 180.865381 
L 294.78115 180.830664 
L 295.286541 180.795731 
L 295.791931 180.759436 
L 296.297322 180.721193 
L 296.802713 180.680944 
L 297.308104 180.63906 
L 297.813495 180.596216 
L 298.318885 180.553245 
L 298.824276 180.511007 
L 299.329667 180.470295 
L 299.835058 180.431779 
L 300.340448 180.395979 
L 300.340448 180.011811 
L 300.340448 180.011811 
L 299.835058 179.976011 
L 299.329667 179.937494 
L 298.824276 179.896782 
L 298.318885 179.854544 
L 297.813495 179.811573 
L 297.308104 179.76873 
L 296.802713 179.726846 
L 296.297322 179.686596 
L 295.791931 179.648353 
L 295.286541 179.612058 
L 294.78115 179.577125 
L 294.275759 179.542409 
L 293.770368 179.506237 
L 293.264978 179.466512 
L 292.759587 179.420857 
L 292.254196 179.366805 
L 291.748805 179.302013 
L 291.243415 179.224483 
L 290.738024 179.132803 
L 290.232633 179.026364 
L 289.727242 178.905545 
L 289.221852 178.771803 
L 288.716461 178.62764 
L 288.21107 178.476385 
L 287.705679 178.321812 
L 287.200288 178.16761 
L 286.694898 178.016791 
L 286.189507 177.871132 
L 285.684116 177.730771 
L 285.178725 177.594009 
L 284.673335 177.457394 
L 284.167944 177.316042 
L 283.662553 177.164185 
L 283.157162 176.995855 
L 282.651772 176.805654 
L 282.146381 176.58953 
L 281.64099 176.345514 
L 281.135599 176.074336 
L 280.630209 175.779847 
L 280.124818 175.469174 
L 279.619427 175.152515 
L 279.114036 174.842531 
L 278.608645 174.553337 
L 278.103255 174.299163 
L 277.597864 174.09282 
L 277.092473 173.944178 
L 276.587082 173.85889 
L 276.081692 173.837579 
L 275.576301 173.875662 
L 275.07091 173.963897 
L 274.565519 174.089598 
L 274.060129 174.238358 
L 273.554738 174.395998 
L 273.049347 174.550417 
L 272.543956 174.693002 
L 272.038566 174.81938 
L 271.533175 174.929382 
L 271.027784 175.026292 
L 270.522393 175.115603 
L 270.017003 175.203573 
L 269.511612 175.29594 
L 269.006221 175.397045 
L 268.50083 175.509502 
L 267.995439 175.634386 
L 267.490049 175.771758 
L 266.984658 175.921297 
L 266.479267 176.082769 
L 265.973876 176.256183 
L 265.468486 176.4416 
L 264.963095 176.63868 
L 264.457704 176.846173 
L 263.952313 177.061543 
L 263.446923 177.280917 
L 262.941532 177.499407 
L 262.436141 177.711753 
L 261.93075 177.91314 
L 261.42536 178.099968 
L 260.919969 178.270383 
L 260.414578 178.424432 
L 259.909187 178.563813 
L 259.403796 178.691305 
L 258.898406 178.810027 
L 258.393015 178.922732 
L 257.887624 179.031294 
L 257.382233 179.136479 
L 256.876843 179.238041 
L 256.371452 179.335027 
L 255.866061 179.426216 
L 255.36067 179.510531 
L 254.85528 179.587334 
L 254.349889 179.656554 
L 253.844498 179.718649 
L 253.339107 179.77445 
L 252.833717 179.824947 
L 252.328326 179.871089 
L 251.822935 179.913634 
L 251.317544 179.953079 
L 250.812153 179.989658 
L 250.306763 180.023391 
z
" clip-path="url(#p7d99f43f1f)" style="fill: #008fd5; fill-opacity: 0.3"/>
   </g>
   <g id="PolyCollection_5">
    <path d="M 188.507177 154.680982 
L 188.507177 154.796281 
L 189.739101 154.798093 
L 190.971025 154.799554 
L 192.202949 154.802427 
L 193.434873 154.808998 
L 194.666797 154.821799 
L 195.89872 154.843266 
L 197.130644 154.8754 
L 198.362568 154.919492 
L 199.594492 154.975941 
L 200.826416 155.044217 
L 202.05834 155.122976 
L 203.290264 155.210304 
L 204.522187 155.304086 
L 205.754111 155.402438 
L 206.986035 155.504187 
L 208.217959 155.609322 
L 209.449883 155.719358 
L 210.681807 155.837486 
L 211.913731 155.968402 
L 213.145655 156.117696 
L 214.377578 156.290819 
L 215.609502 156.491806 
L 216.841426 156.722036 
L 218.07335 156.979438 
L 219.305274 157.258428 
L 220.537198 157.550694 
L 221.769122 157.846656 
L 223.001045 158.137234 
L 224.232969 158.41542 
L 225.464893 158.677251 
L 226.696817 158.921938 
L 227.928741 159.151195 
L 229.160665 159.368023 
L 230.392589 159.575369 
L 231.624512 159.77507 
L 232.856436 159.967405 
L 234.08836 160.151303 
L 235.320284 160.32502 
L 236.552208 160.486871 
L 237.784132 160.635604 
L 239.016056 160.770134 
L 240.247979 160.888719 
L 241.479903 160.987967 
L 242.711827 161.062246 
L 243.943751 161.103978 
L 245.175675 161.104947 
L 246.407599 161.058332 
L 247.639523 160.96078 
L 248.871446 160.813805 
L 250.10337 160.623977 
L 251.335294 160.401808 
L 252.567218 160.159715 
L 253.799142 159.909727 
L 255.031066 159.661614 
L 256.26299 159.421898 
L 257.494913 159.193799 
L 258.726837 158.977855 
L 259.958761 158.772757 
L 261.190685 158.576058 
L 262.422609 158.384608 
L 263.654533 158.194843 
L 264.886457 158.003154 
L 266.118381 157.806518 
L 267.350304 157.603344 
L 268.582228 157.394279 
L 269.814152 157.182594 
L 271.046076 156.973874 
L 272.278 156.774907 
L 273.509924 156.592048 
L 274.741848 156.429484 
L 275.973771 156.28799 
L 277.205695 156.164589 
L 278.437619 156.053276 
L 279.669543 155.946618 
L 280.901467 155.837751 
L 282.133391 155.722151 
L 283.365315 155.598681 
L 284.597238 155.469659 
L 285.829162 155.340007 
L 287.061086 155.215849 
L 288.29301 155.103006 
L 289.524934 155.005816 
L 290.756858 154.926516 
L 291.988782 154.865226 
L 293.220705 154.820376 
L 294.452629 154.789369 
L 295.684553 154.76926 
L 296.916477 154.757284 
L 298.148401 154.751177 
L 299.380325 154.749288 
L 300.612249 154.750512 
L 301.844172 154.754133 
L 303.076096 154.759615 
L 304.30802 154.766411 
L 305.539944 154.773841 
L 306.771868 154.781061 
L 308.003792 154.787135 
L 309.235716 154.791197 
L 310.467639 154.792625 
L 310.467639 154.684638 
L 310.467639 154.684638 
L 309.235716 154.686067 
L 308.003792 154.690128 
L 306.771868 154.696203 
L 305.539944 154.703422 
L 304.30802 154.710852 
L 303.076096 154.717648 
L 301.844172 154.72313 
L 300.612249 154.726751 
L 299.380325 154.727975 
L 298.148401 154.726086 
L 296.916477 154.719979 
L 295.684553 154.708003 
L 294.452629 154.687894 
L 293.220705 154.656887 
L 291.988782 154.612037 
L 290.756858 154.550747 
L 289.524934 154.471448 
L 288.29301 154.374257 
L 287.061086 154.261414 
L 285.829162 154.137256 
L 284.597238 154.007605 
L 283.365315 153.878582 
L 282.133391 153.755112 
L 280.901467 153.639512 
L 279.669543 153.530645 
L 278.437619 153.423988 
L 277.205695 153.312674 
L 275.973771 153.189273 
L 274.741848 153.047779 
L 273.509924 152.885215 
L 272.278 152.702356 
L 271.046076 152.503389 
L 269.814152 152.294669 
L 268.582228 152.082985 
L 267.350304 151.873919 
L 266.118381 151.670745 
L 264.886457 151.474109 
L 263.654533 151.28242 
L 262.422609 151.092655 
L 261.190685 150.901205 
L 259.958761 150.704506 
L 258.726837 150.499408 
L 257.494913 150.283464 
L 256.26299 150.055366 
L 255.031066 149.815649 
L 253.799142 149.567537 
L 252.567218 149.317548 
L 251.335294 149.075455 
L 250.10337 148.853286 
L 248.871446 148.663458 
L 247.639523 148.516484 
L 246.407599 148.418931 
L 245.175675 148.372316 
L 243.943751 148.373285 
L 242.711827 148.415017 
L 241.479903 148.489296 
L 240.247979 148.588544 
L 239.016056 148.707129 
L 237.784132 148.841659 
L 236.552208 148.990392 
L 235.320284 149.152243 
L 234.08836 149.32596 
L 232.856436 149.509858 
L 231.624512 149.702193 
L 230.392589 149.901894 
L 229.160665 150.10924 
L 227.928741 150.326069 
L 226.696817 150.555325 
L 225.464893 150.800012 
L 224.232969 151.061843 
L 223.001045 151.340029 
L 221.769122 151.630607 
L 220.537198 151.926569 
L 219.305274 152.218835 
L 218.07335 152.497825 
L 216.841426 152.755227 
L 215.609502 152.985457 
L 214.377578 153.186444 
L 213.145655 153.359568 
L 211.913731 153.508861 
L 210.681807 153.639777 
L 209.449883 153.757906 
L 208.217959 153.867941 
L 206.986035 153.973076 
L 205.754111 154.074825 
L 204.522187 154.173178 
L 203.290264 154.266959 
L 202.05834 154.354287 
L 200.826416 154.433046 
L 199.594492 154.501323 
L 198.362568 154.557771 
L 197.130644 154.601863 
L 195.89872 154.633998 
L 194.666797 154.655464 
L 193.434873 154.668265 
L 192.202949 154.674836 
L 190.971025 154.677709 
L 189.739101 154.67917 
L 188.507177 154.680982 
z
" clip-path="url(#p7d99f43f1f)" style="fill: #008fd5; fill-opacity: 0.3"/>
   </g>
   <g id="PolyCollection_6">
    <path d="M 200.254013 128.857292 
L 200.254013 129.689445 
L 201.065153 129.747206 
L 201.876294 129.808378 
L 202.687434 129.873875 
L 203.498575 129.945057 
L 204.309715 130.023613 
L 205.120856 130.111352 
L 205.931996 130.209946 
L 206.743137 130.320654 
L 207.554277 130.444098 
L 208.365418 130.58013 
L 209.176558 130.727829 
L 209.987699 130.885652 
L 210.79884 131.051716 
L 211.60998 131.224174 
L 212.421121 131.401608 
L 213.232261 131.58336 
L 214.043402 131.769721 
L 214.854542 131.961915 
L 215.665683 132.161859 
L 216.476823 132.37171 
L 217.287964 132.593278 
L 218.099104 132.827404 
L 218.910245 133.073422 
L 219.721385 133.328845 
L 220.532526 133.589335 
L 221.343666 133.849018 
L 222.154807 134.101107 
L 222.965947 134.338732 
L 223.777088 134.555843 
L 224.588228 134.748019 
L 225.399369 134.913017 
L 226.210509 135.050964 
L 227.02165 135.164154 
L 227.832791 135.256474 
L 228.643931 135.332595 
L 229.455072 135.397074 
L 230.266212 135.453551 
L 231.077353 135.504183 
L 231.888493 135.54942 
L 232.699634 135.58812 
L 233.510774 135.617975 
L 234.321915 135.636101 
L 235.133055 135.639684 
L 235.944196 135.626528 
L 236.755336 135.595418 
L 237.566477 135.546261 
L 238.377617 135.480021 
L 239.188758 135.398495 
L 239.999898 135.304032 
L 240.811039 135.19925 
L 241.622179 135.086818 
L 242.43332 134.969305 
L 243.24446 134.849105 
L 244.055601 134.728377 
L 244.866741 134.608995 
L 245.677882 134.492452 
L 246.489023 134.379741 
L 247.300163 134.271218 
L 248.111304 134.166491 
L 248.922444 134.064385 
L 249.733585 133.963003 
L 250.544725 133.859917 
L 251.355866 133.752457 
L 252.167006 133.638079 
L 252.978147 133.514727 
L 253.789287 133.381156 
L 254.600428 133.237128 
L 255.411568 133.083472 
L 256.222709 132.921978 
L 257.033849 132.755167 
L 257.84499 132.585971 
L 258.65613 132.417394 
L 259.467271 132.2522 
L 260.278411 132.092685 
L 261.089552 131.940537 
L 261.900692 131.796809 
L 262.711833 131.66195 
L 263.522974 131.535899 
L 264.334114 131.418176 
L 265.145255 131.307981 
L 265.956395 131.204263 
L 266.767536 131.10579 
L 267.578676 131.01121 
L 268.389817 130.91913 
L 269.200957 130.828213 
L 270.012098 130.737287 
L 270.823238 130.645464 
L 271.634379 130.552234 
L 272.445519 130.457519 
L 273.25666 130.361683 
L 274.0678 130.265476 
L 274.878941 130.16994 
L 275.690081 130.076273 
L 276.501222 129.9857 
L 277.312362 129.899344 
L 278.123503 129.818145 
L 278.934643 129.742802 
L 279.745784 129.67377 
L 280.556924 129.611273 
L 280.556924 128.935464 
L 280.556924 128.935464 
L 279.745784 128.872967 
L 278.934643 128.803934 
L 278.123503 128.728592 
L 277.312362 128.647393 
L 276.501222 128.561037 
L 275.690081 128.470464 
L 274.878941 128.376797 
L 274.0678 128.281261 
L 273.25666 128.185054 
L 272.445519 128.089218 
L 271.634379 127.994503 
L 270.823238 127.901273 
L 270.012098 127.80945 
L 269.200957 127.718524 
L 268.389817 127.627606 
L 267.578676 127.535527 
L 266.767536 127.440947 
L 265.956395 127.342474 
L 265.145255 127.238756 
L 264.334114 127.12856 
L 263.522974 127.010838 
L 262.711833 126.884786 
L 261.900692 126.749928 
L 261.089552 126.606199 
L 260.278411 126.454052 
L 259.467271 126.294536 
L 258.65613 126.129343 
L 257.84499 125.960766 
L 257.033849 125.79157 
L 256.222709 125.624758 
L 255.411568 125.463265 
L 254.600428 125.309609 
L 253.789287 125.165581 
L 252.978147 125.03201 
L 252.167006 124.908658 
L 251.355866 124.794279 
L 250.544725 124.68682 
L 249.733585 124.583734 
L 248.922444 124.482352 
L 248.111304 124.380246 
L 247.300163 124.275519 
L 246.489023 124.166996 
L 245.677882 124.054285 
L 244.866741 123.937742 
L 244.055601 123.81836 
L 243.24446 123.697632 
L 242.43332 123.577431 
L 241.622179 123.459919 
L 240.811039 123.347486 
L 239.999898 123.242705 
L 239.188758 123.148242 
L 238.377617 123.066716 
L 237.566477 123.000475 
L 236.755336 122.951319 
L 235.944196 122.920209 
L 235.133055 122.907053 
L 234.321915 122.910636 
L 233.510774 122.928762 
L 232.699634 122.958616 
L 231.888493 122.997317 
L 231.077353 123.042554 
L 230.266212 123.093186 
L 229.455072 123.149663 
L 228.643931 123.214142 
L 227.832791 123.290263 
L 227.02165 123.382583 
L 226.210509 123.495772 
L 225.399369 123.63372 
L 224.588228 123.798717 
L 223.777088 123.990893 
L 222.965947 124.208005 
L 222.154807 124.44563 
L 221.343666 124.697719 
L 220.532526 124.957402 
L 219.721385 125.217891 
L 218.910245 125.473314 
L 218.099104 125.719333 
L 217.287964 125.953458 
L 216.476823 126.175027 
L 215.665683 126.384878 
L 214.854542 126.584822 
L 214.043402 126.777016 
L 213.232261 126.963377 
L 212.421121 127.145128 
L 211.60998 127.322562 
L 210.79884 127.495021 
L 209.987699 127.661085 
L 209.176558 127.818908 
L 208.365418 127.966607 
L 207.554277 128.102639 
L 206.743137 128.226083 
L 205.931996 128.336791 
L 205.120856 128.435384 
L 204.309715 128.523124 
L 203.498575 128.60168 
L 202.687434 128.672862 
L 201.876294 128.738359 
L 201.065153 128.799531 
L 200.254013 128.857292 
z
" clip-path="url(#p7d99f43f1f)" style="fill: #008fd5; fill-opacity: 0.3"/>
   </g>
   <g id="PolyCollection_7">
    <path d="M 159.907591 103.46194 
L 159.907591 104.15427 
L 161.703446 104.221818 
L 163.4993 104.294093 
L 165.295155 104.370118 
L 167.091009 104.44891 
L 168.886863 104.529581 
L 170.682718 104.61145 
L 172.478572 104.694172 
L 174.274427 104.777854 
L 176.070281 104.863144 
L 177.866136 104.951243 
L 179.66199 105.043823 
L 181.457844 105.14284 
L 183.253699 105.25026 
L 185.049553 105.367746 
L 186.845408 105.496368 
L 188.641262 105.636379 
L 190.437116 105.787124 
L 192.232971 105.947087 
L 194.028825 106.114084 
L 195.82468 106.285563 
L 197.620534 106.458999 
L 199.416389 106.632308 
L 201.212243 106.804223 
L 203.008097 106.974564 
L 204.803952 107.144328 
L 206.599806 107.31554 
L 208.395661 107.490887 
L 210.191515 107.673142 
L 211.987369 107.864525 
L 213.783224 108.066101 
L 215.579078 108.27738 
L 217.374933 108.496188 
L 219.170787 108.718834 
L 220.966642 108.940525 
L 222.762496 109.155906 
L 224.55835 109.359616 
L 226.354205 109.546752 
L 228.150059 109.713208 
L 229.945914 109.855875 
L 231.741768 109.972714 
L 233.537622 110.062733 
L 235.333477 110.125865 
L 237.129331 110.162745 
L 238.925186 110.174421 
L 240.72104 110.162042 
L 242.516895 110.126602 
L 244.312749 110.068819 
L 246.108603 109.989198 
L 247.904458 109.888244 
L 249.700312 109.766748 
L 251.496167 109.626022 
L 253.292021 109.467982 
L 255.087875 109.295031 
L 256.88373 109.109785 
L 258.679584 108.914726 
L 260.475439 108.711917 
L 262.271293 108.502861 
L 264.067148 108.288541 
L 265.863002 108.069625 
L 267.658856 107.846741 
L 269.454711 107.620759 
L 271.250565 107.392983 
L 273.04642 107.165226 
L 274.842274 106.939749 
L 276.638128 106.719087 
L 278.433983 106.505781 
L 280.229837 106.302092 
L 282.025692 106.109725 
L 283.821546 105.929641 
L 285.617401 105.761988 
L 287.413255 105.606181 
L 289.209109 105.461108 
L 291.004964 105.325418 
L 292.800818 105.197813 
L 294.596673 105.077276 
L 296.392527 104.963188 
L 298.188381 104.8553 
L 299.984236 104.753609 
L 301.78009 104.658174 
L 303.575945 104.56895 
L 305.371799 104.485695 
L 307.167654 104.407968 
L 308.963508 104.335233 
L 310.759362 104.267009 
L 312.555217 104.203028 
L 314.351071 104.14334 
L 316.146926 104.088327 
L 317.94278 104.038625 
L 319.738635 103.994967 
L 321.534489 103.957995 
L 323.330343 103.92808 
L 325.126198 103.905193 
L 326.922052 103.88886 
L 328.717907 103.878191 
L 330.513761 103.871976 
L 332.309615 103.86884 
L 334.10547 103.867402 
L 335.901324 103.866438 
L 337.697179 103.865 
L 337.697179 103.751211 
L 337.697179 103.751211 
L 335.901324 103.749773 
L 334.10547 103.748809 
L 332.309615 103.747371 
L 330.513761 103.744234 
L 328.717907 103.73802 
L 326.922052 103.72735 
L 325.126198 103.711018 
L 323.330343 103.688131 
L 321.534489 103.658215 
L 319.738635 103.621243 
L 317.94278 103.577586 
L 316.146926 103.527884 
L 314.351071 103.472871 
L 312.555217 103.413183 
L 310.759362 103.349202 
L 308.963508 103.280978 
L 307.167654 103.208243 
L 305.371799 103.130516 
L 303.575945 103.04726 
L 301.78009 102.958037 
L 299.984236 102.862602 
L 298.188381 102.76091 
L 296.392527 102.653022 
L 294.596673 102.538934 
L 292.800818 102.418398 
L 291.004964 102.290792 
L 289.209109 102.155102 
L 287.413255 102.010029 
L 285.617401 101.854222 
L 283.821546 101.686569 
L 282.025692 101.506485 
L 280.229837 101.314119 
L 278.433983 101.11043 
L 276.638128 100.897124 
L 274.842274 100.676461 
L 273.04642 100.450985 
L 271.250565 100.223228 
L 269.454711 99.995452 
L 267.658856 99.76947 
L 265.863002 99.546586 
L 264.067148 99.327669 
L 262.271293 99.113349 
L 260.475439 98.904293 
L 258.679584 98.701485 
L 256.88373 98.506426 
L 255.087875 98.32118 
L 253.292021 98.148229 
L 251.496167 97.990189 
L 249.700312 97.849463 
L 247.904458 97.727967 
L 246.108603 97.627013 
L 244.312749 97.547392 
L 242.516895 97.489609 
L 240.72104 97.454168 
L 238.925186 97.441789 
L 237.129331 97.453466 
L 235.333477 97.490345 
L 233.537622 97.553477 
L 231.741768 97.643497 
L 229.945914 97.760335 
L 228.150059 97.903002 
L 226.354205 98.069459 
L 224.55835 98.256595 
L 222.762496 98.460304 
L 220.966642 98.675686 
L 219.170787 98.897377 
L 217.374933 99.120023 
L 215.579078 99.33883 
L 213.783224 99.55011 
L 211.987369 99.751686 
L 210.191515 99.943068 
L 208.395661 100.125324 
L 206.599806 100.30067 
L 204.803952 100.471883 
L 203.008097 100.641646 
L 201.212243 100.811988 
L 199.416389 100.983903 
L 197.620534 101.157212 
L 195.82468 101.330648 
L 194.028825 101.502127 
L 192.232971 101.669123 
L 190.437116 101.829087 
L 188.641262 101.979832 
L 186.845408 102.119842 
L 185.049553 102.248464 
L 183.253699 102.365951 
L 181.457844 102.473371 
L 179.66199 102.572387 
L 177.866136 102.664967 
L 176.070281 102.753067 
L 174.274427 102.838357 
L 172.478572 102.922039 
L 170.682718 103.00476 
L 168.886863 103.08663 
L 167.091009 103.1673 
L 165.295155 103.246093 
L 163.4993 103.322117 
L 161.703446 103.394393 
L 159.907591 103.46194 
z
" clip-path="url(#p7d99f43f1f)" style="fill: #008fd5; fill-opacity: 0.3"/>
   </g>
   <g id="PolyCollection_8">
    <path d="M 152.637239 78.065665 
L 152.637239 78.620019 
L 153.828793 78.678973 
L 155.020347 78.745495 
L 156.211901 78.820429 
L 157.403455 78.904953 
L 158.595009 79.000534 
L 159.786563 79.108784 
L 160.978117 79.231211 
L 162.169671 79.36891 
L 163.361225 79.522245 
L 164.552779 79.690598 
L 165.744333 79.87227 
L 166.935887 80.064575 
L 168.12744 80.26414 
L 169.318994 80.467383 
L 170.510548 80.671074 
L 171.702102 80.872868 
L 172.893656 81.071696 
L 174.08521 81.267904 
L 175.276764 81.463095 
L 176.468318 81.659709 
L 177.659872 81.860394 
L 178.851426 82.067341 
L 180.04298 82.281707 
L 181.234534 82.503275 
L 182.426088 82.730409 
L 183.617642 82.960279 
L 184.809196 83.189261 
L 186.00075 83.413355 
L 187.192304 83.628513 
L 188.383858 83.830773 
L 189.575412 84.016268 
L 190.766966 84.181197 
L 191.958519 84.321934 
L 193.150073 84.435378 
L 194.341627 84.519572 
L 195.533181 84.574457 
L 196.724735 84.602521 
L 197.916289 84.609062 
L 199.107843 84.601833 
L 200.299397 84.58999 
L 201.490951 84.582467 
L 202.682505 84.586096 
L 203.874059 84.603905 
L 205.065613 84.634021 
L 206.257167 84.669485 
L 207.448721 84.699099 
L 208.640275 84.709158 
L 209.831829 84.685737 
L 211.023383 84.617087 
L 212.214937 84.495667 
L 213.406491 84.319453 
L 214.598045 84.092293 
L 215.789599 83.823298 
L 216.981152 83.52541 
L 218.172706 83.213462 
L 219.36426 82.902084 
L 220.555814 82.603833 
L 221.747368 82.327844 
L 222.938922 82.079177 
L 224.130476 81.85887 
L 225.32203 81.664596 
L 226.513584 81.491689 
L 227.705138 81.334324 
L 228.896692 81.186609 
L 230.088246 81.043459 
L 231.2798 80.901157 
L 232.471354 80.757615 
L 233.662908 80.612339 
L 234.854462 80.466167 
L 236.046016 80.320848 
L 237.23757 80.178523 
L 238.429124 80.041219 
L 239.620678 79.91042 
L 240.812232 79.78681 
L 242.003785 79.670221 
L 243.195339 79.559785 
L 244.386893 79.45425 
L 245.578447 79.352364 
L 246.770001 79.253242 
L 247.961555 79.15662 
L 249.153109 79.062953 
L 250.344663 78.973324 
L 251.536217 78.889225 
L 252.727771 78.812238 
L 253.919325 78.743725 
L 255.110879 78.684566 
L 256.302433 78.635019 
L 257.493987 78.594703 
L 258.685541 78.562701 
L 259.877095 78.537736 
L 261.068649 78.518368 
L 262.260203 78.503179 
L 263.451757 78.490904 
L 264.643311 78.480492 
L 265.834864 78.471126 
L 267.026418 78.462199 
L 268.217972 78.45328 
L 269.409526 78.444092 
L 270.60108 78.434495 
L 270.60108 78.25119 
L 270.60108 78.25119 
L 269.409526 78.241592 
L 268.217972 78.232404 
L 267.026418 78.223485 
L 265.834864 78.214558 
L 264.643311 78.205192 
L 263.451757 78.194781 
L 262.260203 78.182505 
L 261.068649 78.167317 
L 259.877095 78.147948 
L 258.685541 78.122983 
L 257.493987 78.090982 
L 256.302433 78.050666 
L 255.110879 78.001118 
L 253.919325 77.941959 
L 252.727771 77.873446 
L 251.536217 77.79646 
L 250.344663 77.71236 
L 249.153109 77.622731 
L 247.961555 77.529064 
L 246.770001 77.432443 
L 245.578447 77.33332 
L 244.386893 77.231435 
L 243.195339 77.125899 
L 242.003785 77.015464 
L 240.812232 76.898874 
L 239.620678 76.775264 
L 238.429124 76.644465 
L 237.23757 76.507161 
L 236.046016 76.364837 
L 234.854462 76.219517 
L 233.662908 76.073345 
L 232.471354 75.928069 
L 231.2798 75.784527 
L 230.088246 75.642225 
L 228.896692 75.499075 
L 227.705138 75.351361 
L 226.513584 75.193996 
L 225.32203 75.021089 
L 224.130476 74.826814 
L 222.938922 74.606507 
L 221.747368 74.35784 
L 220.555814 74.081851 
L 219.36426 73.7836 
L 218.172706 73.472222 
L 216.981152 73.160275 
L 215.789599 72.862387 
L 214.598045 72.593391 
L 213.406491 72.366231 
L 212.214937 72.190017 
L 211.023383 72.068597 
L 209.831829 71.999947 
L 208.640275 71.976526 
L 207.448721 71.986585 
L 206.257167 72.0162 
L 205.065613 72.051663 
L 203.874059 72.081779 
L 202.682505 72.099588 
L 201.490951 72.103217 
L 200.299397 72.095694 
L 199.107843 72.083851 
L 197.916289 72.076622 
L 196.724735 72.083163 
L 195.533181 72.111227 
L 194.341627 72.166112 
L 193.150073 72.250306 
L 191.958519 72.36375 
L 190.766966 72.504487 
L 189.575412 72.669416 
L 188.383858 72.854911 
L 187.192304 73.057171 
L 186.00075 73.272329 
L 184.809196 73.496424 
L 183.617642 73.725405 
L 182.426088 73.955275 
L 181.234534 74.18241 
L 180.04298 74.403978 
L 178.851426 74.618343 
L 177.659872 74.82529 
L 176.468318 75.025976 
L 175.276764 75.222589 
L 174.08521 75.417781 
L 172.893656 75.613988 
L 171.702102 75.812816 
L 170.510548 76.014611 
L 169.318994 76.218301 
L 168.12744 76.421544 
L 166.935887 76.621109 
L 165.744333 76.813414 
L 164.552779 76.995086 
L 163.361225 77.163439 
L 162.169671 77.316774 
L 160.978117 77.454473 
L 159.786563 77.5769 
L 158.595009 77.68515 
L 157.403455 77.780731 
L 156.211901 77.865255 
L 155.020347 77.94019 
L 153.828793 78.006711 
L 152.637239 78.065665 
z
" clip-path="url(#p7d99f43f1f)" style="fill: #008fd5; fill-opacity: 0.3"/>
   </g>
   <g id="PolyCollection_9">
    <path d="M 39.801477 52.640567 
L 39.801477 53.114591 
L 42.146763 53.177988 
L 44.492049 53.252118 
L 46.837335 53.336724 
L 49.18262 53.430799 
L 51.527906 53.532615 
L 53.873192 53.639923 
L 56.218478 53.750302 
L 58.563763 53.861565 
L 60.909049 53.972129 
L 63.254335 54.081245 
L 65.59962 54.189047 
L 67.944906 54.296422 
L 70.290192 54.404798 
L 72.635478 54.515929 
L 74.980763 54.631774 
L 77.326049 54.754493 
L 79.671335 54.886517 
L 82.016621 55.030614 
L 84.361906 55.189826 
L 86.707192 55.367248 
L 89.052478 55.565623 
L 91.397764 55.786873 
L 93.743049 56.03168 
L 96.088335 56.299253 
L 98.433621 56.58732 
L 100.778907 56.892312 
L 103.124192 57.209574 
L 105.469478 57.533442 
L 107.814764 57.857101 
L 110.16005 58.172237 
L 112.505335 58.468732 
L 114.850621 58.734673 
L 117.195907 58.956961 
L 119.541193 59.122622 
L 121.886478 59.220637 
L 124.231764 59.243895 
L 126.57705 59.190746 
L 128.922336 59.065695 
L 131.267621 58.879019 
L 133.612907 58.645404 
L 135.958193 58.381939 
L 138.303479 58.105937 
L 140.648764 57.833011 
L 142.99405 57.57566 
L 145.339336 57.342456 
L 147.684622 57.137746 
L 150.029907 56.961787 
L 152.375193 56.81119 
L 154.720479 56.67965 
L 157.065765 56.558934 
L 159.41105 56.440065 
L 161.756336 56.314607 
L 164.101622 56.175852 
L 166.446908 56.019705 
L 168.792193 55.845118 
L 171.137479 55.653988 
L 173.482765 55.450603 
L 175.828051 55.240785 
L 178.173336 55.03096 
L 180.518622 54.827346 
L 182.863908 54.635364 
L 185.209194 54.459313 
L 187.554479 54.302239 
L 189.899765 54.165913 
L 192.245051 54.050845 
L 194.590337 53.956304 
L 196.935622 53.880347 
L 199.280908 53.819935 
L 201.626194 53.771157 
L 203.97148 53.729613 
L 206.316765 53.690918 
L 208.662051 53.651251 
L 211.007337 53.607854 
L 213.352623 53.55936 
L 215.697908 53.505872 
L 218.043194 53.448773 
L 220.38848 53.390304 
L 222.733766 53.333027 
L 225.079051 53.279278 
L 227.424337 53.230759 
L 229.769623 53.18833 
L 232.114909 53.15202 
L 234.460194 53.121231 
L 236.80548 53.095024 
L 239.150766 53.072421 
L 241.496052 53.052617 
L 243.841337 53.035085 
L 246.186623 53.019566 
L 248.531909 53.005976 
L 250.877195 52.994302 
L 253.22248 52.9845 
L 255.567766 52.976439 
L 257.913052 52.969884 
L 260.258338 52.964508 
L 262.603623 52.959914 
L 264.948909 52.955675 
L 267.294195 52.951374 
L 269.639481 52.946653 
L 271.984766 52.941261 
L 271.984766 52.813897 
L 271.984766 52.813897 
L 269.639481 52.808505 
L 267.294195 52.803784 
L 264.948909 52.799483 
L 262.603623 52.795244 
L 260.258338 52.79065 
L 257.913052 52.785274 
L 255.567766 52.778719 
L 253.22248 52.770658 
L 250.877195 52.760856 
L 248.531909 52.749182 
L 246.186623 52.735592 
L 243.841337 52.720072 
L 241.496052 52.702541 
L 239.150766 52.682737 
L 236.80548 52.660134 
L 234.460194 52.633927 
L 232.114909 52.603138 
L 229.769623 52.566828 
L 227.424337 52.524399 
L 225.079051 52.47588 
L 222.733766 52.422131 
L 220.38848 52.364853 
L 218.043194 52.306385 
L 215.697908 52.249286 
L 213.352623 52.195798 
L 211.007337 52.147304 
L 208.662051 52.103907 
L 206.316765 52.06424 
L 203.97148 52.025544 
L 201.626194 51.984001 
L 199.280908 51.935223 
L 196.935622 51.874811 
L 194.590337 51.798854 
L 192.245051 51.704313 
L 189.899765 51.589245 
L 187.554479 51.452919 
L 185.209194 51.295845 
L 182.863908 51.119794 
L 180.518622 50.927812 
L 178.173336 50.724198 
L 175.828051 50.514373 
L 173.482765 50.304555 
L 171.137479 50.10117 
L 168.792193 49.91004 
L 166.446908 49.735453 
L 164.101622 49.579306 
L 161.756336 49.440551 
L 159.41105 49.315093 
L 157.065765 49.196224 
L 154.720479 49.075508 
L 152.375193 48.943968 
L 150.029907 48.793371 
L 147.684622 48.617412 
L 145.339336 48.412702 
L 142.99405 48.179497 
L 140.648764 47.922147 
L 138.303479 47.649221 
L 135.958193 47.373219 
L 133.612907 47.109754 
L 131.267621 46.876139 
L 128.922336 46.689463 
L 126.57705 46.564412 
L 124.231764 46.511263 
L 121.886478 46.534521 
L 119.541193 46.632536 
L 117.195907 46.798197 
L 114.850621 47.020485 
L 112.505335 47.286425 
L 110.16005 47.582921 
L 107.814764 47.898057 
L 105.469478 48.221716 
L 103.124192 48.545584 
L 100.778907 48.862846 
L 98.433621 49.167838 
L 96.088335 49.455905 
L 93.743049 49.723478 
L 91.397764 49.968285 
L 89.052478 50.189535 
L 86.707192 50.38791 
L 84.361906 50.565332 
L 82.016621 50.724544 
L 79.671335 50.868641 
L 77.326049 51.000665 
L 74.980763 51.123384 
L 72.635478 51.239229 
L 70.290192 51.35036 
L 67.944906 51.458736 
L 65.59962 51.566111 
L 63.254335 51.673912 
L 60.909049 51.783029 
L 58.563763 51.893593 
L 56.218478 52.004856 
L 53.873192 52.115235 
L 51.527906 52.222543 
L 49.18262 52.324359 
L 46.837335 52.418434 
L 44.492049 52.50304 
L 42.146763 52.57717 
L 39.801477 52.640567 
z
" clip-path="url(#p7d99f43f1f)" style="fill: #008fd5; fill-opacity: 0.3"/>
   </g>
   <g id="PolyCollection_10">
    <path d="M 111.831848 27.354802 
L 111.831848 27.469829 
L 114.124349 27.474359 
L 116.416849 27.479812 
L 118.70935 27.48744 
L 121.00185 27.498679 
L 123.294351 27.514936 
L 125.586852 27.537346 
L 127.879352 27.566547 
L 130.171853 27.602533 
L 132.464353 27.644623 
L 134.756854 27.691562 
L 137.049354 27.741767 
L 139.341855 27.793656 
L 141.634356 27.846005 
L 143.926856 27.898243 
L 146.219357 27.950607 
L 148.511857 28.004117 
L 150.804358 28.060371 
L 153.096858 28.121213 
L 155.389359 28.18838 
L 157.68186 28.263226 
L 159.97436 28.346605 
L 162.266861 28.43894 
L 164.559361 28.540426 
L 166.851862 28.651257 
L 169.144362 28.771764 
L 171.436863 28.902368 
L 173.729364 29.043342 
L 176.021864 29.194437 
L 178.314365 29.354549 
L 180.606865 29.521572 
L 182.899366 29.692577 
L 185.191866 29.864332 
L 187.484367 30.034068 
L 189.776868 30.200295 
L 192.069368 30.363411 
L 194.361869 30.525913 
L 196.654369 30.692105 
L 198.94687 30.867347 
L 201.23937 31.057021 
L 203.531871 31.26542 
L 205.824372 31.494818 
L 208.116872 31.744868 
L 210.409373 32.012393 
L 212.701873 32.29155 
L 214.994374 32.574237 
L 217.286874 32.850663 
L 219.579375 33.10995 
L 221.871876 33.340768 
L 224.164376 33.532022 
L 226.456877 33.673644 
L 228.749377 33.757542 
L 231.041878 33.778632 
L 233.334378 33.735815 
L 235.626879 33.632629 
L 237.91938 33.477322 
L 240.21188 33.282158 
L 242.504381 33.061968 
L 244.796881 32.832148 
L 247.089382 32.606502 
L 249.381883 32.395381 
L 251.674383 32.204524 
L 253.966884 32.034812 
L 256.259384 31.882922 
L 258.551885 31.742653 
L 260.844385 31.606577 
L 263.136886 31.467624 
L 265.429387 31.320319 
L 267.721887 31.161486 
L 270.014388 30.990417 
L 272.306888 30.80858 
L 274.599389 30.619041 
L 276.891889 30.425753 
L 279.18439 30.232865 
L 281.476891 30.044139 
L 283.769391 29.86254 
L 286.061892 29.690004 
L 288.354392 29.527392 
L 290.646893 29.374603 
L 292.939393 29.230813 
L 295.231894 29.094788 
L 297.524395 28.965203 
L 299.816895 28.840916 
L 302.109396 28.721136 
L 304.401896 28.605497 
L 306.694397 28.494026 
L 308.986897 28.387059 
L 311.279398 28.285133 
L 313.571899 28.188883 
L 315.864399 28.098945 
L 318.1569 28.015871 
L 320.4494 27.94005 
L 322.741901 27.871644 
L 325.034401 27.810547 
L 327.326902 27.756383 
L 329.619403 27.708552 
L 331.911903 27.666311 
L 334.204404 27.628881 
L 336.496904 27.59555 
L 338.789405 27.565745 
L 338.789405 27.258887 
L 338.789405 27.258887 
L 336.496904 27.229082 
L 334.204404 27.195751 
L 331.911903 27.158321 
L 329.619403 27.11608 
L 327.326902 27.068249 
L 325.034401 27.014085 
L 322.741901 26.952988 
L 320.4494 26.884582 
L 318.1569 26.808761 
L 315.864399 26.725686 
L 313.571899 26.635748 
L 311.279398 26.539498 
L 308.986897 26.437573 
L 306.694397 26.330605 
L 304.401896 26.219134 
L 302.109396 26.103495 
L 299.816895 25.983716 
L 297.524395 25.859428 
L 295.231894 25.729844 
L 292.939393 25.593819 
L 290.646893 25.450029 
L 288.354392 25.297239 
L 286.061892 25.134627 
L 283.769391 24.962092 
L 281.476891 24.780493 
L 279.18439 24.591767 
L 276.891889 24.398879 
L 274.599389 24.205591 
L 272.306888 24.016052 
L 270.014388 23.834215 
L 267.721887 23.663145 
L 265.429387 23.504312 
L 263.136886 23.357007 
L 260.844385 23.218055 
L 258.551885 23.081979 
L 256.259384 22.94171 
L 253.966884 22.789819 
L 251.674383 22.620107 
L 249.381883 22.42925 
L 247.089382 22.218129 
L 244.796881 21.992483 
L 242.504381 21.762664 
L 240.21188 21.542474 
L 237.91938 21.347309 
L 235.626879 21.192002 
L 233.334378 21.088817 
L 231.041878 21.046 
L 228.749377 21.06709 
L 226.456877 21.150987 
L 224.164376 21.292609 
L 221.871876 21.483863 
L 219.579375 21.714682 
L 217.286874 21.973968 
L 214.994374 22.250394 
L 212.701873 22.533082 
L 210.409373 22.812238 
L 208.116872 23.079764 
L 205.824372 23.329813 
L 203.531871 23.559211 
L 201.23937 23.76761 
L 198.94687 23.957284 
L 196.654369 24.132527 
L 194.361869 24.298718 
L 192.069368 24.46122 
L 189.776868 24.624336 
L 187.484367 24.790564 
L 185.191866 24.9603 
L 182.899366 25.132054 
L 180.606865 25.303059 
L 178.314365 25.470083 
L 176.021864 25.630195 
L 173.729364 25.78129 
L 171.436863 25.922263 
L 169.144362 26.052868 
L 166.851862 26.173374 
L 164.559361 26.284205 
L 162.266861 26.385691 
L 159.97436 26.478027 
L 157.68186 26.561406 
L 155.389359 26.636251 
L 153.096858 26.703419 
L 150.804358 26.764261 
L 148.511857 26.820515 
L 146.219357 26.874025 
L 143.926856 26.926389 
L 141.634356 26.978626 
L 139.341855 27.030976 
L 137.049354 27.082865 
L 134.756854 27.13307 
L 132.464353 27.180009 
L 130.171853 27.222098 
L 127.879352 27.258085 
L 125.586852 27.287286 
L 123.294351 27.309696 
L 121.00185 27.325953 
L 118.70935 27.337192 
L 116.416849 27.34482 
L 114.124349 27.350273 
L 111.831848 27.354802 
z
" clip-path="url(#p7d99f43f1f)" style="fill: #008fd5; fill-opacity: 0.3"/>
   </g>
   <g id="matplotlib.axis_1">
    <g id="xtick_1">
     <g id="line2d_1">
      <defs>
       <path id="mcc14a47053" d="M 0 1.75 
L 0 -1.75 
" style="stroke: #000000; stroke-width: 0.8"/>
      </defs>
      <g>
       <use xlink:href="#mcc14a47053" x="67.740895" y="275.062" style="stroke: #000000; stroke-width: 0.8"/>
      </g>
     </g>
     <g id="line2d_2">
      <g>
       <use xlink:href="#mcc14a47053" x="67.740895" y="8.95" style="stroke: #000000; stroke-width: 0.8"/>
      </g>
     </g>
     <g id="text_1">
      <!-- 60 -->
      <g transform="translate(59.18152 287.452625)scale(0.1 -0.1)">
       <defs>
        <path id="HelveticaNeue-Medium-2212" d="M 3533 1293 
L 3533 1946 
L 307 1946 
L 307 1293 
L 3533 1293 
z
" transform="scale(0.015625)"/>
        <path id="HelveticaNeue-Medium-36" d="M 1824 518 
C 1293 518 1018 966 1018 1453 
C 1018 1946 1293 2368 1824 2368 
C 2349 2368 2611 1933 2611 1453 
C 2611 973 2349 518 1824 518 
z
M 3258 3347 
C 3219 4077 2618 4570 1907 4570 
C 640 4570 218 3322 218 2253 
C 218 947 531 -90 1850 -90 
C 2746 -90 3341 570 3341 1440 
C 3341 2298 2816 2944 1926 2944 
C 1530 2944 1158 2765 960 2413 
L 947 2426 
C 992 3014 1082 3962 1875 3962 
C 2253 3962 2496 3712 2528 3347 
L 3258 3347 
z
" transform="scale(0.015625)"/>
        <path id="HelveticaNeue-Medium-30" d="M 1779 518 
C 1139 518 960 1306 960 2240 
C 960 3174 1139 3962 1779 3962 
C 2419 3962 2598 3174 2598 2240 
C 2598 1306 2419 518 1779 518 
z
M 1779 4570 
C 493 4570 230 3258 230 2240 
C 230 1222 493 -90 1779 -90 
C 3066 -90 3328 1222 3328 2240 
C 3328 3258 3066 4570 1779 4570 
z
" transform="scale(0.015625)"/>
       </defs>
       <use xlink:href="#HelveticaNeue-Medium-2212"/>
       <use xlink:href="#HelveticaNeue-Medium-36" x="59.999985"/>
       <use xlink:href="#HelveticaNeue-Medium-30" x="115.599976"/>
      </g>
     </g>
    </g>
    <g id="xtick_2">
     <g id="line2d_3">
      <g>
       <use xlink:href="#mcc14a47053" x="125.920767" y="275.062" style="stroke: #000000; stroke-width: 0.8"/>
      </g>
     </g>
     <g id="line2d_4">
      <g>
       <use xlink:href="#mcc14a47053" x="125.920767" y="8.95" style="stroke: #000000; stroke-width: 0.8"/>
      </g>
     </g>
     <g id="text_2">
      <!-- 40 -->
      <g transform="translate(117.361392 287.452625)scale(0.1 -0.1)">
       <defs>
        <path id="HelveticaNeue-Medium-34" d="M 3341 1638 
L 2765 1638 
L 2765 4480 
L 2074 4480 
L 154 1786 
L 154 1062 
L 2074 1062 
L 2074 0 
L 2765 0 
L 2765 1062 
L 3341 1062 
L 3341 1638 
z
M 2061 3610 
L 2074 3610 
L 2074 1638 
L 717 1638 
L 2061 3610 
z
" transform="scale(0.015625)"/>
       </defs>
       <use xlink:href="#HelveticaNeue-Medium-2212"/>
       <use xlink:href="#HelveticaNeue-Medium-34" x="59.999985"/>
       <use xlink:href="#HelveticaNeue-Medium-30" x="115.599976"/>
      </g>
     </g>
    </g>
    <g id="xtick_3">
     <g id="line2d_5">
      <g>
       <use xlink:href="#mcc14a47053" x="184.100639" y="275.062" style="stroke: #000000; stroke-width: 0.8"/>
      </g>
     </g>
     <g id="line2d_6">
      <g>
       <use xlink:href="#mcc14a47053" x="184.100639" y="8.95" style="stroke: #000000; stroke-width: 0.8"/>
      </g>
     </g>
     <g id="text_3">
      <!-- 20 -->
      <g transform="translate(175.541264 287.452625)scale(0.1 -0.1)">
       <defs>
        <path id="HelveticaNeue-Medium-32" d="M 3309 653 
L 1126 653 
C 1254 1050 1798 1325 2317 1683 
C 2829 2042 3315 2483 3315 3194 
C 3315 3770 2970 4570 1875 4570 
C 877 4570 333 3834 333 2842 
L 1062 2842 
C 1082 3469 1254 3962 1830 3962 
C 2458 3962 2592 3488 2586 3168 
C 2573 2470 1818 2118 1235 1696 
C 634 1293 256 736 250 0 
L 3309 0 
L 3309 653 
z
" transform="scale(0.015625)"/>
       </defs>
       <use xlink:href="#HelveticaNeue-Medium-2212"/>
       <use xlink:href="#HelveticaNeue-Medium-32" x="59.999985"/>
       <use xlink:href="#HelveticaNeue-Medium-30" x="115.599976"/>
      </g>
     </g>
    </g>
    <g id="xtick_4">
     <g id="line2d_7">
      <g>
       <use xlink:href="#mcc14a47053" x="242.280511" y="275.062" style="stroke: #000000; stroke-width: 0.8"/>
      </g>
     </g>
     <g id="line2d_8">
      <g>
       <use xlink:href="#mcc14a47053" x="242.280511" y="8.95" style="stroke: #000000; stroke-width: 0.8"/>
      </g>
     </g>
     <g id="text_4">
      <!-- 0 -->
      <g transform="translate(239.500823 287.452625)scale(0.1 -0.1)">
       <use xlink:href="#HelveticaNeue-Medium-30"/>
      </g>
     </g>
    </g>
    <g id="xtick_5">
     <g id="line2d_9">
      <g>
       <use xlink:href="#mcc14a47053" x="300.460383" y="275.062" style="stroke: #000000; stroke-width: 0.8"/>
      </g>
     </g>
     <g id="line2d_10">
      <g>
       <use xlink:href="#mcc14a47053" x="300.460383" y="8.95" style="stroke: #000000; stroke-width: 0.8"/>
      </g>
     </g>
     <g id="text_5">
      <!-- 20 -->
      <g transform="translate(294.901008 287.452625)scale(0.1 -0.1)">
       <use xlink:href="#HelveticaNeue-Medium-32"/>
       <use xlink:href="#HelveticaNeue-Medium-30" x="55.599991"/>
      </g>
     </g>
    </g>
    <g id="xtick_6">
     <g id="line2d_11">
      <g>
       <use xlink:href="#mcc14a47053" x="358.640254" y="275.062" style="stroke: #000000; stroke-width: 0.8"/>
      </g>
     </g>
     <g id="line2d_12">
      <g>
       <use xlink:href="#mcc14a47053" x="358.640254" y="8.95" style="stroke: #000000; stroke-width: 0.8"/>
      </g>
     </g>
     <g id="text_6">
      <!-- 40 -->
      <g transform="translate(353.080879 287.452625)scale(0.1 -0.1)">
       <use xlink:href="#HelveticaNeue-Medium-34"/>
       <use xlink:href="#HelveticaNeue-Medium-30" x="55.599991"/>
      </g>
     </g>
    </g>
    <g id="text_7">
     <!-- Velocity [km/s] -->
     <g transform="translate(168.140469 300.671375)scale(0.1 -0.1)">
      <defs>
       <path id="HelveticaNeue-Medium-56" d="M 1491 0 
L 2381 0 
L 3942 4570 
L 3130 4570 
L 1958 954 
L 1946 954 
L 800 4570 
L -32 4570 
L 1491 0 
z
" transform="scale(0.015625)"/>
       <path id="HelveticaNeue-Medium-65" d="M 3386 1466 
C 3507 2458 2867 3398 1824 3398 
C 838 3398 224 2592 224 1651 
C 224 634 806 -90 1843 -90 
C 2566 -90 3181 314 3341 1037 
L 2650 1037 
C 2522 672 2266 486 1843 486 
C 1235 486 954 947 954 1466 
L 3386 1466 
z
M 954 1946 
C 973 2438 1318 2822 1824 2822 
C 2317 2822 2630 2406 2656 1946 
L 954 1946 
z
" transform="scale(0.015625)"/>
       <path id="HelveticaNeue-Medium-6c" d="M 403 0 
L 1133 0 
L 1133 4570 
L 403 4570 
L 403 0 
z
" transform="scale(0.015625)"/>
       <path id="HelveticaNeue-Medium-6f" d="M 1901 486 
C 1248 486 960 1082 960 1658 
C 960 2227 1248 2822 1901 2822 
C 2554 2822 2842 2227 2842 1658 
C 2842 1082 2554 486 1901 486 
z
M 1901 -90 
C 2963 -90 3571 640 3571 1658 
C 3571 2669 2963 3398 1901 3398 
C 838 3398 230 2669 230 1658 
C 230 640 838 -90 1901 -90 
z
" transform="scale(0.015625)"/>
       <path id="HelveticaNeue-Medium-63" d="M 3347 2202 
C 3277 3014 2624 3398 1856 3398 
C 768 3398 224 2618 224 1619 
C 224 646 794 -90 1830 -90 
C 2682 -90 3213 384 3347 1242 
L 2618 1242 
C 2547 768 2253 486 1830 486 
C 1197 486 954 1069 954 1619 
C 954 2624 1485 2822 1862 2822 
C 2266 2822 2560 2605 2618 2202 
L 3347 2202 
z
" transform="scale(0.015625)"/>
       <path id="HelveticaNeue-Medium-69" d="M 403 0 
L 1133 0 
L 1133 3309 
L 403 3309 
L 403 0 
z
M 403 3878 
L 1133 3878 
L 1133 4570 
L 403 4570 
L 403 3878 
z
" transform="scale(0.015625)"/>
       <path id="HelveticaNeue-Medium-74" d="M 51 2765 
L 602 2765 
L 602 813 
C 614 262 755 -32 1517 -32 
C 1677 -32 1830 -6 1990 6 
L 1990 570 
C 1888 544 1786 544 1683 544 
C 1357 544 1331 698 1331 998 
L 1331 2765 
L 1990 2765 
L 1990 3309 
L 1331 3309 
L 1331 4301 
L 602 4301 
L 602 3309 
L 51 3309 
L 51 2765 
z
" transform="scale(0.015625)"/>
       <path id="HelveticaNeue-Medium-79" d="M 1274 13 
L 1190 -243 
C 1101 -525 1018 -704 678 -704 
C 563 -704 448 -678 333 -659 
L 333 -1274 
C 499 -1299 666 -1312 838 -1312 
C 1600 -1312 1773 -774 2010 -179 
L 3296 3309 
L 2534 3309 
L 1696 838 
L 1683 838 
L 819 3309 
L 19 3309 
L 1274 13 
z
" transform="scale(0.015625)"/>
       <path id="HelveticaNeue-Medium-20" transform="scale(0.015625)"/>
       <path id="HelveticaNeue-Medium-5b" d="M 461 -1222 
L 1888 -1222 
L 1888 -646 
L 1152 -646 
L 1152 4102 
L 1888 4102 
L 1888 4678 
L 461 4678 
L 461 -1222 
z
" transform="scale(0.015625)"/>
       <path id="HelveticaNeue-Medium-6b" d="M 403 0 
L 1133 0 
L 1133 1184 
L 1568 1606 
L 2579 0 
L 3469 0 
L 2080 2093 
L 3347 3309 
L 2451 3309 
L 1133 1971 
L 1133 4570 
L 403 4570 
L 403 0 
z
" transform="scale(0.015625)"/>
       <path id="HelveticaNeue-Medium-6d" d="M 384 0 
L 1114 0 
L 1114 1965 
C 1114 2515 1459 2822 1837 2822 
C 2278 2822 2419 2579 2419 2125 
L 2419 0 
L 3149 0 
L 3149 1939 
C 3149 2496 3360 2822 3853 2822 
C 4422 2822 4454 2458 4454 1933 
L 4454 0 
L 5184 0 
L 5184 2285 
C 5184 3091 4774 3398 4077 3398 
C 3597 3398 3283 3187 3040 2848 
C 2893 3226 2515 3398 2112 3398 
C 1587 3398 1312 3174 1094 2848 
L 1075 2848 
L 1075 3309 
L 384 3309 
L 384 0 
z
" transform="scale(0.015625)"/>
       <path id="HelveticaNeue-Medium-2f" d="M -141 -109 
L 557 -109 
L 2394 4678 
L 1696 4678 
L -141 -109 
z
" transform="scale(0.015625)"/>
       <path id="HelveticaNeue-Medium-73" d="M 205 1062 
C 218 282 838 -90 1670 -90 
C 2355 -90 3149 198 3149 986 
C 3149 1638 2611 1830 2080 1952 
C 1542 2074 1005 2125 1005 2483 
C 1005 2771 1395 2822 1606 2822 
C 1926 2822 2214 2726 2278 2381 
L 3040 2381 
C 2950 3117 2336 3398 1658 3398 
C 1056 3398 275 3174 275 2451 
C 275 1779 800 1587 1338 1472 
C 1869 1350 2400 1306 2419 922 
C 2438 544 1958 486 1683 486 
C 1293 486 973 640 934 1062 
L 205 1062 
z
" transform="scale(0.015625)"/>
       <path id="HelveticaNeue-Medium-5d" d="M 1434 4678 
L 6 4678 
L 6 4102 
L 742 4102 
L 742 -646 
L 6 -646 
L 6 -1222 
L 1434 -1222 
L 1434 4678 
z
" transform="scale(0.015625)"/>
      </defs>
      <use xlink:href="#HelveticaNeue-Medium-56"/>
      <use xlink:href="#HelveticaNeue-Medium-65" x="61.099991"/>
      <use xlink:href="#HelveticaNeue-Medium-6c" x="116.699982"/>
      <use xlink:href="#HelveticaNeue-Medium-6f" x="140.799973"/>
      <use xlink:href="#HelveticaNeue-Medium-63" x="200.09996"/>
      <use xlink:href="#HelveticaNeue-Medium-69" x="255.699951"/>
      <use xlink:href="#HelveticaNeue-Medium-74" x="279.799942"/>
      <use xlink:href="#HelveticaNeue-Medium-79" x="313.09993"/>
      <use xlink:href="#HelveticaNeue-Medium-20" x="364.999924"/>
      <use xlink:href="#HelveticaNeue-Medium-5b" x="392.799911"/>
      <use xlink:href="#HelveticaNeue-Medium-6b" x="422.399902"/>
      <use xlink:href="#HelveticaNeue-Medium-6d" x="476.099899"/>
      <use xlink:href="#HelveticaNeue-Medium-2f" x="563.099884"/>
      <use xlink:href="#HelveticaNeue-Medium-73" x="598.299881"/>
      <use xlink:href="#HelveticaNeue-Medium-5d" x="650.199875"/>
     </g>
    </g>
   </g>
   <g id="matplotlib.axis_2">
    <g id="ytick_1">
     <g id="line2d_13">
      <defs>
       <path id="m4cbe0f4216" d="M 1.75 0 
L -1.75 -0 
" style="stroke: #000000; stroke-width: 0.8"/>
      </defs>
      <g>
       <use xlink:href="#m4cbe0f4216" x="23.56875" y="231.134421" style="stroke: #000000; stroke-width: 0.8"/>
      </g>
     </g>
     <g id="line2d_14">
      <g>
       <use xlink:href="#m4cbe0f4216" x="380.68875" y="231.134421" style="stroke: #000000; stroke-width: 0.8"/>
      </g>
     </g>
     <g id="text_8">
      <!-- 2 -->
      <g transform="translate(12.759375 234.704734)scale(0.1 -0.1)">
       <use xlink:href="#HelveticaNeue-Medium-32"/>
      </g>
     </g>
    </g>
    <g id="ytick_2">
     <g id="line2d_15">
      <g>
       <use xlink:href="#m4cbe0f4216" x="23.56875" y="180.203895" style="stroke: #000000; stroke-width: 0.8"/>
      </g>
     </g>
     <g id="line2d_16">
      <g>
       <use xlink:href="#m4cbe0f4216" x="380.68875" y="180.203895" style="stroke: #000000; stroke-width: 0.8"/>
      </g>
     </g>
     <g id="text_9">
      <!-- 4 -->
      <g transform="translate(12.759375 183.774207)scale(0.1 -0.1)">
       <use xlink:href="#HelveticaNeue-Medium-34"/>
      </g>
     </g>
    </g>
    <g id="ytick_3">
     <g id="line2d_17">
      <g>
       <use xlink:href="#m4cbe0f4216" x="23.56875" y="129.273368" style="stroke: #000000; stroke-width: 0.8"/>
      </g>
     </g>
     <g id="line2d_18">
      <g>
       <use xlink:href="#m4cbe0f4216" x="380.68875" y="129.273368" style="stroke: #000000; stroke-width: 0.8"/>
      </g>
     </g>
     <g id="text_10">
      <!-- 6 -->
      <g transform="translate(12.759375 132.843681)scale(0.1 -0.1)">
       <use xlink:href="#HelveticaNeue-Medium-36"/>
      </g>
     </g>
    </g>
    <g id="ytick_4">
     <g id="line2d_19">
      <g>
       <use xlink:href="#m4cbe0f4216" x="23.56875" y="78.342842" style="stroke: #000000; stroke-width: 0.8"/>
      </g>
     </g>
     <g id="line2d_20">
      <g>
       <use xlink:href="#m4cbe0f4216" x="380.68875" y="78.342842" style="stroke: #000000; stroke-width: 0.8"/>
      </g>
     </g>
     <g id="text_11">
      <!-- 8 -->
      <g transform="translate(12.759375 81.913155)scale(0.1 -0.1)">
       <defs>
        <path id="HelveticaNeue-Medium-38" d="M 1779 486 
C 1293 486 928 794 928 1318 
C 928 1811 1293 2106 1779 2106 
C 2266 2106 2630 1811 2630 1318 
C 2630 794 2266 486 1779 486 
z
M 1779 -90 
C 2688 -90 3360 442 3360 1318 
C 3360 1882 3040 2285 2541 2413 
L 2541 2426 
C 2944 2579 3174 2912 3174 3347 
C 3174 4109 2669 4570 1779 4570 
C 890 4570 384 4109 384 3347 
C 384 2912 614 2579 1018 2426 
L 1018 2413 
C 518 2285 198 1882 198 1318 
C 198 442 870 -90 1779 -90 
z
M 1779 3994 
C 2170 3994 2483 3750 2483 3309 
C 2483 2886 2182 2650 1779 2650 
C 1376 2650 1075 2886 1075 3309 
C 1075 3750 1389 3994 1779 3994 
z
" transform="scale(0.015625)"/>
       </defs>
       <use xlink:href="#HelveticaNeue-Medium-38"/>
      </g>
     </g>
    </g>
    <g id="ytick_5">
     <g id="line2d_21">
      <g>
       <use xlink:href="#m4cbe0f4216" x="23.56875" y="27.412316" style="stroke: #000000; stroke-width: 0.8"/>
      </g>
     </g>
     <g id="line2d_22">
      <g>
       <use xlink:href="#m4cbe0f4216" x="380.68875" y="27.412316" style="stroke: #000000; stroke-width: 0.8"/>
      </g>
     </g>
     <g id="text_12">
      <!-- 10 -->
      <g transform="translate(7.2 30.982628)scale(0.1 -0.1)">
       <defs>
        <path id="HelveticaNeue-Medium-31" d="M 339 3162 
L 1440 3162 
L 1440 0 
L 2240 0 
L 2240 4480 
L 1645 4480 
C 1536 3942 954 3731 339 3738 
L 339 3162 
z
" transform="scale(0.015625)"/>
       </defs>
       <use xlink:href="#HelveticaNeue-Medium-31"/>
       <use xlink:href="#HelveticaNeue-Medium-30" x="55.599991"/>
      </g>
     </g>
    </g>
   </g>
   <g id="patch_3">
    <path d="M 23.56875 275.062 
L 23.56875 8.95 
" style="fill: none; stroke: #000000; stroke-width: 0.8; stroke-linejoin: miter; stroke-linecap: square"/>
   </g>
   <g id="patch_4">
    <path d="M 380.68875 275.062 
L 380.68875 8.95 
" style="fill: none; stroke: #000000; stroke-width: 0.8; stroke-linejoin: miter; stroke-linecap: square"/>
   </g>
   <g id="patch_5">
    <path d="M 23.56875 275.062 
L 380.68875 275.062 
" style="fill: none; stroke: #000000; stroke-width: 0.8; stroke-linejoin: miter; stroke-linecap: square"/>
   </g>
   <g id="patch_6">
    <path d="M 23.56875 8.95 
L 380.68875 8.95 
" style="fill: none; stroke: #000000; stroke-width: 0.8; stroke-linejoin: miter; stroke-linecap: square"/>
   </g>
  </g>
 </g>
 <defs>
  <clipPath id="p7d99f43f1f">
   <rect x="23.56875" y="8.95" width="357.12" height="266.112"/>
  </clipPath>
 </defs>
</svg>
