<?xml version="1.0" encoding="utf-8" standalone="no"?>
<!DOCTYPE svg PUBLIC "-//W3C//DTD SVG 1.1//EN"
  "http://www.w3.org/Graphics/SVG/1.1/DTD/svg11.dtd">
<svg height="309.752625pt" version="1.1" viewBox="0 0 402.759063 309.752625" width="402.759063pt" xmlns="http://www.w3.org/2000/svg" xmlns:xlink="http://www.w3.org/1999/xlink">
 <metadata>
  <rdf:RDF xmlns:cc="http://creativecommons.org/ns#" xmlns:dc="http://purl.org/dc/elements/1.1/" xmlns:rdf="http://www.w3.org/1999/02/22-rdf-syntax-ns#">
   <cc:Work>
    <dc:type rdf:resource="http://purl.org/dc/dcmitype/StillImage"/>
    <dc:date>2021-09-16T10:39:09.768710</dc:date>
    <dc:format>image/svg+xml</dc:format>
    <dc:creator>
     <cc:Agent>
      <dc:title>Matplotlib v3.4.2, https://matplotlib.org/</dc:title>
     </cc:Agent>
    </dc:creator>
   </cc:Work>
  </rdf:RDF>
 </metadata>
 <defs>
  <style type="text/css">*{stroke-linecap:butt;stroke-linejoin:round;}</style>
 </defs>
 <g id="figure_1">
  <g id="patch_1">
   <path d="M 0 309.752625 
L 402.759063 309.752625 
L 402.759063 0 
L 0 0 
z
" style="fill:#ffffff;"/>
  </g>
  <g id="axes_1">
   <g id="patch_2">
    <path d="M 36.689063 275.062 
L 393.809062 275.062 
L 393.809062 8.95 
L 36.689063 8.95 
z
" style="fill:#ffffff;"/>
   </g>
   <g id="matplotlib.axis_1">
    <g id="xtick_1">
     <g id="line2d_1">
      <defs>
       <path d="M 0 1.75 
L 0 -1.75 
" id="m6af0e22957" style="stroke:#000000;stroke-width:0.8;"/>
      </defs>
      <g>
       <use style="stroke:#000000;stroke-width:0.8;" x="45.882212" xlink:href="#m6af0e22957" y="275.062"/>
      </g>
     </g>
     <g id="line2d_2">
      <g>
       <use style="stroke:#000000;stroke-width:0.8;" x="45.882212" xlink:href="#m6af0e22957" y="8.95"/>
      </g>
     </g>
     <g id="text_1">
      <!-- 0 -->
      <g transform="translate(43.102525 287.452625)scale(0.1 -0.1)">
       <defs>
        <path d="M 269 2227 
C 269 1229 358 -77 1779 -77 
C 3200 -77 3290 1229 3290 2227 
C 3290 3232 3200 4538 1779 4538 
C 358 4538 269 3232 269 2227 
z
M 845 2234 
C 845 2906 851 4058 1779 4058 
C 2707 4058 2714 2906 2714 2234 
C 2714 1555 2707 403 1779 403 
C 851 403 845 1555 845 2234 
z
" id="HelveticaNeue-Roman-30" transform="scale(0.015625)"/>
       </defs>
       <use xlink:href="#HelveticaNeue-Roman-30"/>
      </g>
     </g>
    </g>
    <g id="xtick_2">
     <g id="line2d_3">
      <g>
       <use style="stroke:#000000;stroke-width:0.8;" x="114.279109" xlink:href="#m6af0e22957" y="275.062"/>
      </g>
     </g>
     <g id="line2d_4">
      <g>
       <use style="stroke:#000000;stroke-width:0.8;" x="114.279109" xlink:href="#m6af0e22957" y="8.95"/>
      </g>
     </g>
     <g id="text_2">
      <!-- 1 -->
      <g transform="translate(111.499422 287.452625)scale(0.1 -0.1)">
       <defs>
        <path d="M 2278 4538 
L 1862 4538 
C 1741 3853 1178 3686 557 3686 
L 557 3251 
L 1734 3251 
L 1734 0 
L 2278 0 
L 2278 4538 
z
" id="HelveticaNeue-Roman-31" transform="scale(0.015625)"/>
       </defs>
       <use xlink:href="#HelveticaNeue-Roman-31"/>
      </g>
     </g>
    </g>
    <g id="xtick_3">
     <g id="line2d_5">
      <g>
       <use style="stroke:#000000;stroke-width:0.8;" x="182.676007" xlink:href="#m6af0e22957" y="275.062"/>
      </g>
     </g>
     <g id="line2d_6">
      <g>
       <use style="stroke:#000000;stroke-width:0.8;" x="182.676007" xlink:href="#m6af0e22957" y="8.95"/>
      </g>
     </g>
     <g id="text_3">
      <!-- 2 -->
      <g transform="translate(179.896319 287.452625)scale(0.1 -0.1)">
       <defs>
        <path d="M 826 2931 
C 806 3475 1075 4058 1709 4058 
C 2189 4058 2586 3731 2586 3238 
C 2586 2611 2195 2330 1427 1856 
C 787 1459 243 1075 154 0 
L 3117 0 
L 3117 480 
L 787 480 
C 896 1043 1491 1331 2061 1677 
C 2624 2029 3162 2432 3162 3232 
C 3162 4077 2534 4538 1741 4538 
C 781 4538 237 3853 282 2931 
L 826 2931 
z
" id="HelveticaNeue-Roman-32" transform="scale(0.015625)"/>
       </defs>
       <use xlink:href="#HelveticaNeue-Roman-32"/>
      </g>
     </g>
    </g>
    <g id="xtick_4">
     <g id="line2d_7">
      <g>
       <use style="stroke:#000000;stroke-width:0.8;" x="251.072904" xlink:href="#m6af0e22957" y="275.062"/>
      </g>
     </g>
     <g id="line2d_8">
      <g>
       <use style="stroke:#000000;stroke-width:0.8;" x="251.072904" xlink:href="#m6af0e22957" y="8.95"/>
      </g>
     </g>
     <g id="text_4">
      <!-- 3 -->
      <g transform="translate(248.293217 287.452625)scale(0.1 -0.1)">
       <defs>
        <path d="M 1395 2131 
C 1498 2144 1613 2150 1722 2150 
C 2259 2150 2688 1850 2688 1280 
C 2688 730 2234 403 1702 403 
C 1082 403 755 813 736 1402 
L 192 1402 
C 173 467 781 -77 1702 -77 
C 2554 -77 3264 397 3264 1306 
C 3264 1850 2995 2285 2445 2406 
L 2445 2419 
C 2790 2579 3072 2925 3072 3322 
C 3072 4160 2477 4538 1690 4538 
C 781 4538 320 3936 288 3072 
L 832 3072 
C 838 3603 1094 4058 1690 4058 
C 2150 4058 2496 3802 2496 3328 
C 2496 2835 2093 2586 1632 2586 
C 1555 2586 1478 2586 1395 2592 
L 1395 2131 
z
" id="HelveticaNeue-Roman-33" transform="scale(0.015625)"/>
       </defs>
       <use xlink:href="#HelveticaNeue-Roman-33"/>
      </g>
     </g>
    </g>
    <g id="xtick_5">
     <g id="line2d_9">
      <g>
       <use style="stroke:#000000;stroke-width:0.8;" x="319.469802" xlink:href="#m6af0e22957" y="275.062"/>
      </g>
     </g>
     <g id="line2d_10">
      <g>
       <use style="stroke:#000000;stroke-width:0.8;" x="319.469802" xlink:href="#m6af0e22957" y="8.95"/>
      </g>
     </g>
     <g id="text_5">
      <!-- 4 -->
      <g transform="translate(316.690114 287.452625)scale(0.1 -0.1)">
       <defs>
        <path d="M 2682 4538 
L 2246 4538 
L 179 1587 
L 179 1062 
L 2170 1062 
L 2170 0 
L 2682 0 
L 2682 1062 
L 3296 1062 
L 3296 1542 
L 2682 1542 
L 2682 4538 
z
M 646 1542 
L 2157 3763 
L 2170 3763 
L 2170 1542 
L 646 1542 
z
" id="HelveticaNeue-Roman-34" transform="scale(0.015625)"/>
       </defs>
       <use xlink:href="#HelveticaNeue-Roman-34"/>
      </g>
     </g>
    </g>
    <g id="xtick_6">
     <g id="line2d_11">
      <g>
       <use style="stroke:#000000;stroke-width:0.8;" x="387.866699" xlink:href="#m6af0e22957" y="275.062"/>
      </g>
     </g>
     <g id="line2d_12">
      <g>
       <use style="stroke:#000000;stroke-width:0.8;" x="387.866699" xlink:href="#m6af0e22957" y="8.95"/>
      </g>
     </g>
     <g id="text_6">
      <!-- 5 -->
      <g transform="translate(385.087011 287.452625)scale(0.1 -0.1)">
       <defs>
        <path d="M 3008 4461 
L 768 4461 
L 346 2106 
L 813 2080 
C 1024 2336 1312 2509 1658 2509 
C 2266 2509 2682 2080 2682 1478 
C 2682 755 2240 403 1722 403 
C 1178 403 800 755 768 1222 
L 224 1222 
C 243 403 883 -77 1670 -77 
C 2726 -77 3258 666 3258 1434 
C 3258 2470 2598 2989 1792 2989 
C 1485 2989 1146 2886 947 2662 
L 934 2675 
L 1178 3981 
L 3008 3981 
L 3008 4461 
z
" id="HelveticaNeue-Roman-35" transform="scale(0.015625)"/>
       </defs>
       <use xlink:href="#HelveticaNeue-Roman-35"/>
      </g>
     </g>
    </g>
    <g id="text_7">
     <!-- x -->
     <g transform="translate(212.659219 300.572937)scale(0.1 -0.1)">
      <defs>
       <path d="M 58 0 
L 717 0 
L 1638 1370 
L 2560 0 
L 3258 0 
L 1978 1786 
L 3117 3309 
L 2464 3309 
L 1638 2150 
L 845 3309 
L 147 3309 
L 1299 1741 
L 58 0 
z
" id="HelveticaNeue-Roman-78" transform="scale(0.015625)"/>
      </defs>
      <use xlink:href="#HelveticaNeue-Roman-78"/>
     </g>
    </g>
   </g>
   <g id="matplotlib.axis_2">
    <g id="ytick_1">
     <g id="line2d_13">
      <defs>
       <path d="M 1.75 0 
L -1.75 -0 
" id="mb3692b131c" style="stroke:#000000;stroke-width:0.8;"/>
      </defs>
      <g>
       <use style="stroke:#000000;stroke-width:0.8;" x="36.689063" xlink:href="#mb3692b131c" y="246.477408"/>
      </g>
     </g>
     <g id="line2d_14">
      <g>
       <use style="stroke:#000000;stroke-width:0.8;" x="393.809062" xlink:href="#mb3692b131c" y="246.477408"/>
      </g>
     </g>
     <g id="text_8">
      <!-- 10 -->
      <g transform="translate(20.320313 250.04772)scale(0.1 -0.1)">
       <use xlink:href="#HelveticaNeue-Roman-31"/>
       <use x="55.599991" xlink:href="#HelveticaNeue-Roman-30"/>
      </g>
     </g>
    </g>
    <g id="ytick_2">
     <g id="line2d_15">
      <g>
       <use style="stroke:#000000;stroke-width:0.8;" x="36.689063" xlink:href="#mb3692b131c" y="202.638995"/>
      </g>
     </g>
     <g id="line2d_16">
      <g>
       <use style="stroke:#000000;stroke-width:0.8;" x="393.809062" xlink:href="#mb3692b131c" y="202.638995"/>
      </g>
     </g>
     <g id="text_9">
      <!-- 12 -->
      <g transform="translate(20.320313 206.209307)scale(0.1 -0.1)">
       <use xlink:href="#HelveticaNeue-Roman-31"/>
       <use x="55.599991" xlink:href="#HelveticaNeue-Roman-32"/>
      </g>
     </g>
    </g>
    <g id="ytick_3">
     <g id="line2d_17">
      <g>
       <use style="stroke:#000000;stroke-width:0.8;" x="36.689063" xlink:href="#mb3692b131c" y="158.800582"/>
      </g>
     </g>
     <g id="line2d_18">
      <g>
       <use style="stroke:#000000;stroke-width:0.8;" x="393.809062" xlink:href="#mb3692b131c" y="158.800582"/>
      </g>
     </g>
     <g id="text_10">
      <!-- 14 -->
      <g transform="translate(20.320313 162.370895)scale(0.1 -0.1)">
       <use xlink:href="#HelveticaNeue-Roman-31"/>
       <use x="55.599991" xlink:href="#HelveticaNeue-Roman-34"/>
      </g>
     </g>
    </g>
    <g id="ytick_4">
     <g id="line2d_19">
      <g>
       <use style="stroke:#000000;stroke-width:0.8;" x="36.689063" xlink:href="#mb3692b131c" y="114.96217"/>
      </g>
     </g>
     <g id="line2d_20">
      <g>
       <use style="stroke:#000000;stroke-width:0.8;" x="393.809062" xlink:href="#mb3692b131c" y="114.96217"/>
      </g>
     </g>
     <g id="text_11">
      <!-- 16 -->
      <g transform="translate(20.320313 118.532482)scale(0.1 -0.1)">
       <defs>
        <path d="M 1830 2438 
C 2451 2438 2746 1971 2746 1408 
C 2746 870 2419 403 1830 403 
C 1235 403 890 851 890 1414 
C 890 1984 1222 2438 1830 2438 
z
M 3194 3379 
C 3130 4115 2662 4538 1914 4538 
C 621 4538 243 3354 243 2106 
C 243 1152 461 -77 1805 -77 
C 2950 -77 3322 787 3322 1446 
C 3322 2285 2803 2918 1933 2918 
C 1440 2918 1056 2739 800 2323 
L 787 2336 
C 813 3034 960 4058 1888 4058 
C 2317 4058 2598 3789 2650 3379 
L 3194 3379 
z
" id="HelveticaNeue-Roman-36" transform="scale(0.015625)"/>
       </defs>
       <use xlink:href="#HelveticaNeue-Roman-31"/>
       <use x="55.599991" xlink:href="#HelveticaNeue-Roman-36"/>
      </g>
     </g>
    </g>
    <g id="ytick_5">
     <g id="line2d_21">
      <g>
       <use style="stroke:#000000;stroke-width:0.8;" x="36.689063" xlink:href="#mb3692b131c" y="71.123757"/>
      </g>
     </g>
     <g id="line2d_22">
      <g>
       <use style="stroke:#000000;stroke-width:0.8;" x="393.809062" xlink:href="#mb3692b131c" y="71.123757"/>
      </g>
     </g>
     <g id="text_12">
      <!-- 18 -->
      <g transform="translate(20.320313 74.694069)scale(0.1 -0.1)">
       <defs>
        <path d="M 832 1280 
C 832 1805 1254 2150 1792 2150 
C 2304 2150 2726 1779 2726 1286 
C 2726 781 2342 403 1798 403 
C 1235 403 832 736 832 1280 
z
M 416 3379 
C 416 2970 672 2592 1050 2438 
C 544 2259 256 1843 256 1306 
C 256 378 928 -77 1798 -77 
C 2637 -77 3302 429 3302 1306 
C 3302 1869 3040 2266 2496 2438 
C 2867 2605 3123 2976 3123 3379 
C 3123 3955 2739 4538 1747 4538 
C 1050 4538 416 4128 416 3379 
z
M 992 3360 
C 992 3814 1350 4058 1786 4058 
C 2227 4058 2547 3814 2547 3360 
C 2547 2899 2227 2630 1798 2630 
C 1350 2630 992 2861 992 3360 
z
" id="HelveticaNeue-Roman-38" transform="scale(0.015625)"/>
       </defs>
       <use xlink:href="#HelveticaNeue-Roman-31"/>
       <use x="55.599991" xlink:href="#HelveticaNeue-Roman-38"/>
      </g>
     </g>
    </g>
    <g id="ytick_6">
     <g id="line2d_23">
      <g>
       <use style="stroke:#000000;stroke-width:0.8;" x="36.689063" xlink:href="#mb3692b131c" y="27.285344"/>
      </g>
     </g>
     <g id="line2d_24">
      <g>
       <use style="stroke:#000000;stroke-width:0.8;" x="393.809062" xlink:href="#mb3692b131c" y="27.285344"/>
      </g>
     </g>
     <g id="text_13">
      <!-- 20 -->
      <g transform="translate(20.320313 30.855657)scale(0.1 -0.1)">
       <use xlink:href="#HelveticaNeue-Roman-32"/>
       <use x="55.599991" xlink:href="#HelveticaNeue-Roman-30"/>
      </g>
     </g>
    </g>
    <g id="text_14">
     <!-- y -->
     <g transform="translate(14.25 144.506)rotate(-90)scale(0.1 -0.1)">
      <defs>
       <path d="M 3149 3309 
L 2573 3309 
L 1645 602 
L 1632 602 
L 666 3309 
L 51 3309 
L 1363 19 
L 1139 -544 
C 1037 -736 915 -845 691 -845 
C 582 -845 474 -800 371 -768 
L 371 -1267 
C 493 -1312 621 -1325 749 -1325 
C 1235 -1325 1459 -1088 1709 -442 
L 3149 3309 
z
" id="HelveticaNeue-Roman-79" transform="scale(0.015625)"/>
      </defs>
      <use xlink:href="#HelveticaNeue-Roman-79"/>
     </g>
    </g>
   </g>
   <g id="LineCollection_1">
    <path clip-path="url(#p81962a6bf0)" d="M 173.969122 111.138535 
L 173.969122 67.300122 
" style="fill:none;stroke:#008fd5;stroke-width:1.5;"/>
    <path clip-path="url(#p81962a6bf0)" d="M 371.011756 255.161754 
L 371.011756 211.323342 
" style="fill:none;stroke:#008fd5;stroke-width:1.5;"/>
    <path clip-path="url(#p81962a6bf0)" d="M 296.212785 190.310919 
L 296.212785 146.472506 
" style="fill:none;stroke:#008fd5;stroke-width:1.5;"/>
    <path clip-path="url(#p81962a6bf0)" d="M 250.614127 182.846248 
L 250.614127 139.007835 
" style="fill:none;stroke:#008fd5;stroke-width:1.5;"/>
    <path clip-path="url(#p81962a6bf0)" d="M 99.238167 106.866271 
L 99.238167 63.027858 
" style="fill:none;stroke:#008fd5;stroke-width:1.5;"/>
    <path clip-path="url(#p81962a6bf0)" d="M 99.229918 78.00654 
L 99.229918 34.168127 
" style="fill:none;stroke:#008fd5;stroke-width:1.5;"/>
    <path clip-path="url(#p81962a6bf0)" d="M 65.745906 67.846836 
L 65.745906 24.008424 
" style="fill:none;stroke:#008fd5;stroke-width:1.5;"/>
    <path clip-path="url(#p81962a6bf0)" d="M 342.101017 208.850576 
L 342.101017 165.012163 
" style="fill:none;stroke:#008fd5;stroke-width:1.5;"/>
    <path clip-path="url(#p81962a6bf0)" d="M 251.454221 150.236089 
L 251.454221 106.397676 
" style="fill:none;stroke:#008fd5;stroke-width:1.5;"/>
    <path clip-path="url(#p81962a6bf0)" d="M 288.032049 197.530639 
L 288.032049 153.692227 
" style="fill:none;stroke:#008fd5;stroke-width:1.5;"/>
    <path clip-path="url(#p81962a6bf0)" d="M 52.92179 64.884413 
L 52.92179 21.046 
" style="fill:none;stroke:#008fd5;stroke-width:1.5;"/>
    <path clip-path="url(#p81962a6bf0)" d="M 377.576335 252.533164 
L 377.576335 208.694751 
" style="fill:none;stroke:#008fd5;stroke-width:1.5;"/>
    <path clip-path="url(#p81962a6bf0)" d="M 330.564681 213.418217 
L 330.564681 169.579804 
" style="fill:none;stroke:#008fd5;stroke-width:1.5;"/>
    <path clip-path="url(#p81962a6bf0)" d="M 118.498894 114.368284 
L 118.498894 70.529871 
" style="fill:none;stroke:#008fd5;stroke-width:1.5;"/>
    <path clip-path="url(#p81962a6bf0)" d="M 108.06353 104.27395 
L 108.06353 60.435538 
" style="fill:none;stroke:#008fd5;stroke-width:1.5;"/>
    <path clip-path="url(#p81962a6bf0)" d="M 108.603709 93.618798 
L 108.603709 49.780386 
" style="fill:none;stroke:#008fd5;stroke-width:1.5;"/>
    <path clip-path="url(#p81962a6bf0)" d="M 149.928339 145.016958 
L 149.928339 101.178546 
" style="fill:none;stroke:#008fd5;stroke-width:1.5;"/>
    <path clip-path="url(#p81962a6bf0)" d="M 225.340771 119.471986 
L 225.340771 75.633574 
" style="fill:none;stroke:#008fd5;stroke-width:1.5;"/>
    <path clip-path="url(#p81962a6bf0)" d="M 193.600708 171.139068 
L 193.600708 127.300655 
" style="fill:none;stroke:#008fd5;stroke-width:1.5;"/>
    <path clip-path="url(#p81962a6bf0)" d="M 145.47806 151.477914 
L 145.47806 107.639501 
" style="fill:none;stroke:#008fd5;stroke-width:1.5;"/>
    <path clip-path="url(#p81962a6bf0)" d="M 255.12641 155.377126 
L 255.12641 111.538714 
" style="fill:none;stroke:#008fd5;stroke-width:1.5;"/>
    <path clip-path="url(#p81962a6bf0)" d="M 93.586948 81.995863 
L 93.586948 38.157451 
" style="fill:none;stroke:#008fd5;stroke-width:1.5;"/>
    <path clip-path="url(#p81962a6bf0)" d="M 145.79115 111.339569 
L 145.79115 67.501156 
" style="fill:none;stroke:#008fd5;stroke-width:1.5;"/>
    <path clip-path="url(#p81962a6bf0)" d="M 171.172279 123.961219 
L 171.172279 80.122806 
" style="fill:none;stroke:#008fd5;stroke-width:1.5;"/>
    <path clip-path="url(#p81962a6bf0)" d="M 201.851072 153.559904 
L 201.851072 109.721491 
" style="fill:none;stroke:#008fd5;stroke-width:1.5;"/>
    <path clip-path="url(#p81962a6bf0)" d="M 314.40021 231.594387 
L 314.40021 187.755974 
" style="fill:none;stroke:#008fd5;stroke-width:1.5;"/>
    <path clip-path="url(#p81962a6bf0)" d="M 114.167548 107.727492 
L 114.167548 63.889079 
" style="fill:none;stroke:#008fd5;stroke-width:1.5;"/>
    <path clip-path="url(#p81962a6bf0)" d="M 221.742413 178.326144 
L 221.742413 134.487732 
" style="fill:none;stroke:#008fd5;stroke-width:1.5;"/>
    <path clip-path="url(#p81962a6bf0)" d="M 248.478804 155.930829 
L 248.478804 112.092416 
" style="fill:none;stroke:#008fd5;stroke-width:1.5;"/>
    <path clip-path="url(#p81962a6bf0)" d="M 61.767533 87.263359 
L 61.767533 43.424946 
" style="fill:none;stroke:#008fd5;stroke-width:1.5;"/>
    <path clip-path="url(#p81962a6bf0)" d="M 253.653127 198.089312 
L 253.653127 154.250899 
" style="fill:none;stroke:#008fd5;stroke-width:1.5;"/>
    <path clip-path="url(#p81962a6bf0)" d="M 104.198817 111.556865 
L 104.198817 67.718452 
" style="fill:none;stroke:#008fd5;stroke-width:1.5;"/>
    <path clip-path="url(#p81962a6bf0)" d="M 68.128848 78.027865 
L 68.128848 34.189453 
" style="fill:none;stroke:#008fd5;stroke-width:1.5;"/>
    <path clip-path="url(#p81962a6bf0)" d="M 370.386346 254.214644 
L 370.386346 210.376231 
" style="fill:none;stroke:#008fd5;stroke-width:1.5;"/>
    <path clip-path="url(#p81962a6bf0)" d="M 376.113387 262.966 
L 376.113387 219.127587 
" style="fill:none;stroke:#008fd5;stroke-width:1.5;"/>
    <path clip-path="url(#p81962a6bf0)" d="M 322.341564 210.804275 
L 322.341564 166.965862 
" style="fill:none;stroke:#008fd5;stroke-width:1.5;"/>
    <path clip-path="url(#p81962a6bf0)" d="M 150.055396 121.776139 
L 150.055396 77.937726 
" style="fill:none;stroke:#008fd5;stroke-width:1.5;"/>
    <path clip-path="url(#p81962a6bf0)" d="M 79.28456 103.546338 
L 79.28456 59.707926 
" style="fill:none;stroke:#008fd5;stroke-width:1.5;"/>
    <path clip-path="url(#p81962a6bf0)" d="M 279.879293 204.029749 
L 279.879293 160.191336 
" style="fill:none;stroke:#008fd5;stroke-width:1.5;"/>
    <path clip-path="url(#p81962a6bf0)" d="M 196.407537 145.430078 
L 196.407537 101.591665 
" style="fill:none;stroke:#008fd5;stroke-width:1.5;"/>
    <path clip-path="url(#p81962a6bf0)" d="M 87.617395 128.19714 
L 87.617395 84.358727 
" style="fill:none;stroke:#008fd5;stroke-width:1.5;"/>
    <path clip-path="url(#p81962a6bf0)" d="M 215.225034 190.985661 
L 215.225034 147.147248 
" style="fill:none;stroke:#008fd5;stroke-width:1.5;"/>
    <path clip-path="url(#p81962a6bf0)" d="M 57.642553 97.822904 
L 57.642553 53.984491 
" style="fill:none;stroke:#008fd5;stroke-width:1.5;"/>
    <path clip-path="url(#p81962a6bf0)" d="M 356.855683 239.263931 
L 356.855683 195.425518 
" style="fill:none;stroke:#008fd5;stroke-width:1.5;"/>
    <path clip-path="url(#p81962a6bf0)" d="M 134.380951 112.537577 
L 134.380951 68.699164 
" style="fill:none;stroke:#008fd5;stroke-width:1.5;"/>
    <path clip-path="url(#p81962a6bf0)" d="M 272.454556 157.47279 
L 272.454556 113.634377 
" style="fill:none;stroke:#008fd5;stroke-width:1.5;"/>
    <path clip-path="url(#p81962a6bf0)" d="M 152.482564 109.558274 
L 152.482564 65.719861 
" style="fill:none;stroke:#008fd5;stroke-width:1.5;"/>
    <path clip-path="url(#p81962a6bf0)" d="M 223.737407 168.015578 
L 223.737407 124.177166 
" style="fill:none;stroke:#008fd5;stroke-width:1.5;"/>
    <path clip-path="url(#p81962a6bf0)" d="M 232.848646 169.624881 
L 232.848646 125.786468 
" style="fill:none;stroke:#008fd5;stroke-width:1.5;"/>
    <path clip-path="url(#p81962a6bf0)" d="M 109.099568 128.881351 
L 109.099568 85.042939 
" style="fill:none;stroke:#008fd5;stroke-width:1.5;"/>
   </g>
   <g id="line2d_25">
    <defs>
     <path d="M 2 0 
L -2 -0 
" id="m9c99ae8578" style="stroke:#008fd5;"/>
    </defs>
    <g clip-path="url(#p81962a6bf0)">
     <use style="fill:#008fd5;stroke:#008fd5;" x="173.969122" xlink:href="#m9c99ae8578" y="111.138535"/>
     <use style="fill:#008fd5;stroke:#008fd5;" x="371.011756" xlink:href="#m9c99ae8578" y="255.161754"/>
     <use style="fill:#008fd5;stroke:#008fd5;" x="296.212785" xlink:href="#m9c99ae8578" y="190.310919"/>
     <use style="fill:#008fd5;stroke:#008fd5;" x="250.614127" xlink:href="#m9c99ae8578" y="182.846248"/>
     <use style="fill:#008fd5;stroke:#008fd5;" x="99.238167" xlink:href="#m9c99ae8578" y="106.866271"/>
     <use style="fill:#008fd5;stroke:#008fd5;" x="99.229918" xlink:href="#m9c99ae8578" y="78.00654"/>
     <use style="fill:#008fd5;stroke:#008fd5;" x="65.745906" xlink:href="#m9c99ae8578" y="67.846836"/>
     <use style="fill:#008fd5;stroke:#008fd5;" x="342.101017" xlink:href="#m9c99ae8578" y="208.850576"/>
     <use style="fill:#008fd5;stroke:#008fd5;" x="251.454221" xlink:href="#m9c99ae8578" y="150.236089"/>
     <use style="fill:#008fd5;stroke:#008fd5;" x="288.032049" xlink:href="#m9c99ae8578" y="197.530639"/>
     <use style="fill:#008fd5;stroke:#008fd5;" x="52.92179" xlink:href="#m9c99ae8578" y="64.884413"/>
     <use style="fill:#008fd5;stroke:#008fd5;" x="377.576335" xlink:href="#m9c99ae8578" y="252.533164"/>
     <use style="fill:#008fd5;stroke:#008fd5;" x="330.564681" xlink:href="#m9c99ae8578" y="213.418217"/>
     <use style="fill:#008fd5;stroke:#008fd5;" x="118.498894" xlink:href="#m9c99ae8578" y="114.368284"/>
     <use style="fill:#008fd5;stroke:#008fd5;" x="108.06353" xlink:href="#m9c99ae8578" y="104.27395"/>
     <use style="fill:#008fd5;stroke:#008fd5;" x="108.603709" xlink:href="#m9c99ae8578" y="93.618798"/>
     <use style="fill:#008fd5;stroke:#008fd5;" x="149.928339" xlink:href="#m9c99ae8578" y="145.016958"/>
     <use style="fill:#008fd5;stroke:#008fd5;" x="225.340771" xlink:href="#m9c99ae8578" y="119.471986"/>
     <use style="fill:#008fd5;stroke:#008fd5;" x="193.600708" xlink:href="#m9c99ae8578" y="171.139068"/>
     <use style="fill:#008fd5;stroke:#008fd5;" x="145.47806" xlink:href="#m9c99ae8578" y="151.477914"/>
     <use style="fill:#008fd5;stroke:#008fd5;" x="255.12641" xlink:href="#m9c99ae8578" y="155.377126"/>
     <use style="fill:#008fd5;stroke:#008fd5;" x="93.586948" xlink:href="#m9c99ae8578" y="81.995863"/>
     <use style="fill:#008fd5;stroke:#008fd5;" x="145.79115" xlink:href="#m9c99ae8578" y="111.339569"/>
     <use style="fill:#008fd5;stroke:#008fd5;" x="171.172279" xlink:href="#m9c99ae8578" y="123.961219"/>
     <use style="fill:#008fd5;stroke:#008fd5;" x="201.851072" xlink:href="#m9c99ae8578" y="153.559904"/>
     <use style="fill:#008fd5;stroke:#008fd5;" x="314.40021" xlink:href="#m9c99ae8578" y="231.594387"/>
     <use style="fill:#008fd5;stroke:#008fd5;" x="114.167548" xlink:href="#m9c99ae8578" y="107.727492"/>
     <use style="fill:#008fd5;stroke:#008fd5;" x="221.742413" xlink:href="#m9c99ae8578" y="178.326144"/>
     <use style="fill:#008fd5;stroke:#008fd5;" x="248.478804" xlink:href="#m9c99ae8578" y="155.930829"/>
     <use style="fill:#008fd5;stroke:#008fd5;" x="61.767533" xlink:href="#m9c99ae8578" y="87.263359"/>
     <use style="fill:#008fd5;stroke:#008fd5;" x="253.653127" xlink:href="#m9c99ae8578" y="198.089312"/>
     <use style="fill:#008fd5;stroke:#008fd5;" x="104.198817" xlink:href="#m9c99ae8578" y="111.556865"/>
     <use style="fill:#008fd5;stroke:#008fd5;" x="68.128848" xlink:href="#m9c99ae8578" y="78.027865"/>
     <use style="fill:#008fd5;stroke:#008fd5;" x="370.386346" xlink:href="#m9c99ae8578" y="254.214644"/>
     <use style="fill:#008fd5;stroke:#008fd5;" x="376.113387" xlink:href="#m9c99ae8578" y="262.966"/>
     <use style="fill:#008fd5;stroke:#008fd5;" x="322.341564" xlink:href="#m9c99ae8578" y="210.804275"/>
     <use style="fill:#008fd5;stroke:#008fd5;" x="150.055396" xlink:href="#m9c99ae8578" y="121.776139"/>
     <use style="fill:#008fd5;stroke:#008fd5;" x="79.28456" xlink:href="#m9c99ae8578" y="103.546338"/>
     <use style="fill:#008fd5;stroke:#008fd5;" x="279.879293" xlink:href="#m9c99ae8578" y="204.029749"/>
     <use style="fill:#008fd5;stroke:#008fd5;" x="196.407537" xlink:href="#m9c99ae8578" y="145.430078"/>
     <use style="fill:#008fd5;stroke:#008fd5;" x="87.617395" xlink:href="#m9c99ae8578" y="128.19714"/>
     <use style="fill:#008fd5;stroke:#008fd5;" x="215.225034" xlink:href="#m9c99ae8578" y="190.985661"/>
     <use style="fill:#008fd5;stroke:#008fd5;" x="57.642553" xlink:href="#m9c99ae8578" y="97.822904"/>
     <use style="fill:#008fd5;stroke:#008fd5;" x="356.855683" xlink:href="#m9c99ae8578" y="239.263931"/>
     <use style="fill:#008fd5;stroke:#008fd5;" x="134.380951" xlink:href="#m9c99ae8578" y="112.537577"/>
     <use style="fill:#008fd5;stroke:#008fd5;" x="272.454556" xlink:href="#m9c99ae8578" y="157.47279"/>
     <use style="fill:#008fd5;stroke:#008fd5;" x="152.482564" xlink:href="#m9c99ae8578" y="109.558274"/>
     <use style="fill:#008fd5;stroke:#008fd5;" x="223.737407" xlink:href="#m9c99ae8578" y="168.015578"/>
     <use style="fill:#008fd5;stroke:#008fd5;" x="232.848646" xlink:href="#m9c99ae8578" y="169.624881"/>
     <use style="fill:#008fd5;stroke:#008fd5;" x="109.099568" xlink:href="#m9c99ae8578" y="128.881351"/>
    </g>
   </g>
   <g id="line2d_26">
    <g clip-path="url(#p81962a6bf0)">
     <use style="fill:#008fd5;stroke:#008fd5;" x="173.969122" xlink:href="#m9c99ae8578" y="67.300122"/>
     <use style="fill:#008fd5;stroke:#008fd5;" x="371.011756" xlink:href="#m9c99ae8578" y="211.323342"/>
     <use style="fill:#008fd5;stroke:#008fd5;" x="296.212785" xlink:href="#m9c99ae8578" y="146.472506"/>
     <use style="fill:#008fd5;stroke:#008fd5;" x="250.614127" xlink:href="#m9c99ae8578" y="139.007835"/>
     <use style="fill:#008fd5;stroke:#008fd5;" x="99.238167" xlink:href="#m9c99ae8578" y="63.027858"/>
     <use style="fill:#008fd5;stroke:#008fd5;" x="99.229918" xlink:href="#m9c99ae8578" y="34.168127"/>
     <use style="fill:#008fd5;stroke:#008fd5;" x="65.745906" xlink:href="#m9c99ae8578" y="24.008424"/>
     <use style="fill:#008fd5;stroke:#008fd5;" x="342.101017" xlink:href="#m9c99ae8578" y="165.012163"/>
     <use style="fill:#008fd5;stroke:#008fd5;" x="251.454221" xlink:href="#m9c99ae8578" y="106.397676"/>
     <use style="fill:#008fd5;stroke:#008fd5;" x="288.032049" xlink:href="#m9c99ae8578" y="153.692227"/>
     <use style="fill:#008fd5;stroke:#008fd5;" x="52.92179" xlink:href="#m9c99ae8578" y="21.046"/>
     <use style="fill:#008fd5;stroke:#008fd5;" x="377.576335" xlink:href="#m9c99ae8578" y="208.694751"/>
     <use style="fill:#008fd5;stroke:#008fd5;" x="330.564681" xlink:href="#m9c99ae8578" y="169.579804"/>
     <use style="fill:#008fd5;stroke:#008fd5;" x="118.498894" xlink:href="#m9c99ae8578" y="70.529871"/>
     <use style="fill:#008fd5;stroke:#008fd5;" x="108.06353" xlink:href="#m9c99ae8578" y="60.435538"/>
     <use style="fill:#008fd5;stroke:#008fd5;" x="108.603709" xlink:href="#m9c99ae8578" y="49.780386"/>
     <use style="fill:#008fd5;stroke:#008fd5;" x="149.928339" xlink:href="#m9c99ae8578" y="101.178546"/>
     <use style="fill:#008fd5;stroke:#008fd5;" x="225.340771" xlink:href="#m9c99ae8578" y="75.633574"/>
     <use style="fill:#008fd5;stroke:#008fd5;" x="193.600708" xlink:href="#m9c99ae8578" y="127.300655"/>
     <use style="fill:#008fd5;stroke:#008fd5;" x="145.47806" xlink:href="#m9c99ae8578" y="107.639501"/>
     <use style="fill:#008fd5;stroke:#008fd5;" x="255.12641" xlink:href="#m9c99ae8578" y="111.538714"/>
     <use style="fill:#008fd5;stroke:#008fd5;" x="93.586948" xlink:href="#m9c99ae8578" y="38.157451"/>
     <use style="fill:#008fd5;stroke:#008fd5;" x="145.79115" xlink:href="#m9c99ae8578" y="67.501156"/>
     <use style="fill:#008fd5;stroke:#008fd5;" x="171.172279" xlink:href="#m9c99ae8578" y="80.122806"/>
     <use style="fill:#008fd5;stroke:#008fd5;" x="201.851072" xlink:href="#m9c99ae8578" y="109.721491"/>
     <use style="fill:#008fd5;stroke:#008fd5;" x="314.40021" xlink:href="#m9c99ae8578" y="187.755974"/>
     <use style="fill:#008fd5;stroke:#008fd5;" x="114.167548" xlink:href="#m9c99ae8578" y="63.889079"/>
     <use style="fill:#008fd5;stroke:#008fd5;" x="221.742413" xlink:href="#m9c99ae8578" y="134.487732"/>
     <use style="fill:#008fd5;stroke:#008fd5;" x="248.478804" xlink:href="#m9c99ae8578" y="112.092416"/>
     <use style="fill:#008fd5;stroke:#008fd5;" x="61.767533" xlink:href="#m9c99ae8578" y="43.424946"/>
     <use style="fill:#008fd5;stroke:#008fd5;" x="253.653127" xlink:href="#m9c99ae8578" y="154.250899"/>
     <use style="fill:#008fd5;stroke:#008fd5;" x="104.198817" xlink:href="#m9c99ae8578" y="67.718452"/>
     <use style="fill:#008fd5;stroke:#008fd5;" x="68.128848" xlink:href="#m9c99ae8578" y="34.189453"/>
     <use style="fill:#008fd5;stroke:#008fd5;" x="370.386346" xlink:href="#m9c99ae8578" y="210.376231"/>
     <use style="fill:#008fd5;stroke:#008fd5;" x="376.113387" xlink:href="#m9c99ae8578" y="219.127587"/>
     <use style="fill:#008fd5;stroke:#008fd5;" x="322.341564" xlink:href="#m9c99ae8578" y="166.965862"/>
     <use style="fill:#008fd5;stroke:#008fd5;" x="150.055396" xlink:href="#m9c99ae8578" y="77.937726"/>
     <use style="fill:#008fd5;stroke:#008fd5;" x="79.28456" xlink:href="#m9c99ae8578" y="59.707926"/>
     <use style="fill:#008fd5;stroke:#008fd5;" x="279.879293" xlink:href="#m9c99ae8578" y="160.191336"/>
     <use style="fill:#008fd5;stroke:#008fd5;" x="196.407537" xlink:href="#m9c99ae8578" y="101.591665"/>
     <use style="fill:#008fd5;stroke:#008fd5;" x="87.617395" xlink:href="#m9c99ae8578" y="84.358727"/>
     <use style="fill:#008fd5;stroke:#008fd5;" x="215.225034" xlink:href="#m9c99ae8578" y="147.147248"/>
     <use style="fill:#008fd5;stroke:#008fd5;" x="57.642553" xlink:href="#m9c99ae8578" y="53.984491"/>
     <use style="fill:#008fd5;stroke:#008fd5;" x="356.855683" xlink:href="#m9c99ae8578" y="195.425518"/>
     <use style="fill:#008fd5;stroke:#008fd5;" x="134.380951" xlink:href="#m9c99ae8578" y="68.699164"/>
     <use style="fill:#008fd5;stroke:#008fd5;" x="272.454556" xlink:href="#m9c99ae8578" y="113.634377"/>
     <use style="fill:#008fd5;stroke:#008fd5;" x="152.482564" xlink:href="#m9c99ae8578" y="65.719861"/>
     <use style="fill:#008fd5;stroke:#008fd5;" x="223.737407" xlink:href="#m9c99ae8578" y="124.177166"/>
     <use style="fill:#008fd5;stroke:#008fd5;" x="232.848646" xlink:href="#m9c99ae8578" y="125.786468"/>
     <use style="fill:#008fd5;stroke:#008fd5;" x="109.099568" xlink:href="#m9c99ae8578" y="85.042939"/>
    </g>
   </g>
   <g id="line2d_27">
    <defs>
     <path d="M 0 3 
C 0.795609 3 1.55874 2.683901 2.12132 2.12132 
C 2.683901 1.55874 3 0.795609 3 0 
C 3 -0.795609 2.683901 -1.55874 2.12132 -2.12132 
C 1.55874 -2.683901 0.795609 -3 0 -3 
C -0.795609 -3 -1.55874 -2.683901 -2.12132 -2.12132 
C -2.683901 -1.55874 -3 -0.795609 -3 0 
C -3 0.795609 -2.683901 1.55874 -2.12132 2.12132 
C -1.55874 2.683901 -0.795609 3 0 3 
z
" id="m118c77e925" style="stroke:#008fd5;"/>
    </defs>
    <g clip-path="url(#p81962a6bf0)">
     <use style="fill:#008fd5;stroke:#008fd5;" x="173.969122" xlink:href="#m118c77e925" y="89.219328"/>
     <use style="fill:#008fd5;stroke:#008fd5;" x="371.011756" xlink:href="#m118c77e925" y="233.242548"/>
     <use style="fill:#008fd5;stroke:#008fd5;" x="296.212785" xlink:href="#m118c77e925" y="168.391712"/>
     <use style="fill:#008fd5;stroke:#008fd5;" x="250.614127" xlink:href="#m118c77e925" y="160.927042"/>
     <use style="fill:#008fd5;stroke:#008fd5;" x="99.238167" xlink:href="#m118c77e925" y="84.947064"/>
     <use style="fill:#008fd5;stroke:#008fd5;" x="99.229918" xlink:href="#m118c77e925" y="56.087334"/>
     <use style="fill:#008fd5;stroke:#008fd5;" x="65.745906" xlink:href="#m118c77e925" y="45.92763"/>
     <use style="fill:#008fd5;stroke:#008fd5;" x="342.101017" xlink:href="#m118c77e925" y="186.93137"/>
     <use style="fill:#008fd5;stroke:#008fd5;" x="251.454221" xlink:href="#m118c77e925" y="128.316882"/>
     <use style="fill:#008fd5;stroke:#008fd5;" x="288.032049" xlink:href="#m118c77e925" y="175.611433"/>
     <use style="fill:#008fd5;stroke:#008fd5;" x="52.92179" xlink:href="#m118c77e925" y="42.965206"/>
     <use style="fill:#008fd5;stroke:#008fd5;" x="377.576335" xlink:href="#m118c77e925" y="230.613958"/>
     <use style="fill:#008fd5;stroke:#008fd5;" x="330.564681" xlink:href="#m118c77e925" y="191.49901"/>
     <use style="fill:#008fd5;stroke:#008fd5;" x="118.498894" xlink:href="#m118c77e925" y="92.449077"/>
     <use style="fill:#008fd5;stroke:#008fd5;" x="108.06353" xlink:href="#m118c77e925" y="82.354744"/>
     <use style="fill:#008fd5;stroke:#008fd5;" x="108.603709" xlink:href="#m118c77e925" y="71.699592"/>
     <use style="fill:#008fd5;stroke:#008fd5;" x="149.928339" xlink:href="#m118c77e925" y="123.097752"/>
     <use style="fill:#008fd5;stroke:#008fd5;" x="225.340771" xlink:href="#m118c77e925" y="97.55278"/>
     <use style="fill:#008fd5;stroke:#008fd5;" x="193.600708" xlink:href="#m118c77e925" y="149.219862"/>
     <use style="fill:#008fd5;stroke:#008fd5;" x="145.47806" xlink:href="#m118c77e925" y="129.558708"/>
     <use style="fill:#008fd5;stroke:#008fd5;" x="255.12641" xlink:href="#m118c77e925" y="133.45792"/>
     <use style="fill:#008fd5;stroke:#008fd5;" x="93.586948" xlink:href="#m118c77e925" y="60.076657"/>
     <use style="fill:#008fd5;stroke:#008fd5;" x="145.79115" xlink:href="#m118c77e925" y="89.420362"/>
     <use style="fill:#008fd5;stroke:#008fd5;" x="171.172279" xlink:href="#m118c77e925" y="102.042013"/>
     <use style="fill:#008fd5;stroke:#008fd5;" x="201.851072" xlink:href="#m118c77e925" y="131.640698"/>
     <use style="fill:#008fd5;stroke:#008fd5;" x="314.40021" xlink:href="#m118c77e925" y="209.67518"/>
     <use style="fill:#008fd5;stroke:#008fd5;" x="114.167548" xlink:href="#m118c77e925" y="85.808285"/>
     <use style="fill:#008fd5;stroke:#008fd5;" x="221.742413" xlink:href="#m118c77e925" y="156.406938"/>
     <use style="fill:#008fd5;stroke:#008fd5;" x="248.478804" xlink:href="#m118c77e925" y="134.011623"/>
     <use style="fill:#008fd5;stroke:#008fd5;" x="61.767533" xlink:href="#m118c77e925" y="65.344152"/>
     <use style="fill:#008fd5;stroke:#008fd5;" x="253.653127" xlink:href="#m118c77e925" y="176.170106"/>
     <use style="fill:#008fd5;stroke:#008fd5;" x="104.198817" xlink:href="#m118c77e925" y="89.637659"/>
     <use style="fill:#008fd5;stroke:#008fd5;" x="68.128848" xlink:href="#m118c77e925" y="56.108659"/>
     <use style="fill:#008fd5;stroke:#008fd5;" x="370.386346" xlink:href="#m118c77e925" y="232.295438"/>
     <use style="fill:#008fd5;stroke:#008fd5;" x="376.113387" xlink:href="#m118c77e925" y="241.046794"/>
     <use style="fill:#008fd5;stroke:#008fd5;" x="322.341564" xlink:href="#m118c77e925" y="188.885068"/>
     <use style="fill:#008fd5;stroke:#008fd5;" x="150.055396" xlink:href="#m118c77e925" y="99.856933"/>
     <use style="fill:#008fd5;stroke:#008fd5;" x="79.28456" xlink:href="#m118c77e925" y="81.627132"/>
     <use style="fill:#008fd5;stroke:#008fd5;" x="279.879293" xlink:href="#m118c77e925" y="182.110542"/>
     <use style="fill:#008fd5;stroke:#008fd5;" x="196.407537" xlink:href="#m118c77e925" y="123.510872"/>
     <use style="fill:#008fd5;stroke:#008fd5;" x="87.617395" xlink:href="#m118c77e925" y="106.277934"/>
     <use style="fill:#008fd5;stroke:#008fd5;" x="215.225034" xlink:href="#m118c77e925" y="169.066455"/>
     <use style="fill:#008fd5;stroke:#008fd5;" x="57.642553" xlink:href="#m118c77e925" y="75.903697"/>
     <use style="fill:#008fd5;stroke:#008fd5;" x="356.855683" xlink:href="#m118c77e925" y="217.344725"/>
     <use style="fill:#008fd5;stroke:#008fd5;" x="134.380951" xlink:href="#m118c77e925" y="90.618371"/>
     <use style="fill:#008fd5;stroke:#008fd5;" x="272.454556" xlink:href="#m118c77e925" y="135.553584"/>
     <use style="fill:#008fd5;stroke:#008fd5;" x="152.482564" xlink:href="#m118c77e925" y="87.639067"/>
     <use style="fill:#008fd5;stroke:#008fd5;" x="223.737407" xlink:href="#m118c77e925" y="146.096372"/>
     <use style="fill:#008fd5;stroke:#008fd5;" x="232.848646" xlink:href="#m118c77e925" y="147.705674"/>
     <use style="fill:#008fd5;stroke:#008fd5;" x="109.099568" xlink:href="#m118c77e925" y="106.962145"/>
    </g>
   </g>
   <g id="patch_3">
    <path d="M 36.689063 275.062 
L 36.689063 8.95 
" style="fill:none;stroke:#000000;stroke-linecap:square;stroke-linejoin:miter;stroke-width:0.8;"/>
   </g>
   <g id="patch_4">
    <path d="M 393.809062 275.062 
L 393.809062 8.95 
" style="fill:none;stroke:#000000;stroke-linecap:square;stroke-linejoin:miter;stroke-width:0.8;"/>
   </g>
   <g id="patch_5">
    <path d="M 36.689063 275.062 
L 393.809062 275.062 
" style="fill:none;stroke:#000000;stroke-linecap:square;stroke-linejoin:miter;stroke-width:0.8;"/>
   </g>
   <g id="patch_6">
    <path d="M 36.689063 8.95 
L 393.809062 8.95 
" style="fill:none;stroke:#000000;stroke-linecap:square;stroke-linejoin:miter;stroke-width:0.8;"/>
   </g>
  </g>
 </g>
 <defs>
  <clipPath id="p81962a6bf0">
   <rect height="266.112" width="357.12" x="36.689063" y="8.95"/>
  </clipPath>
 </defs>
</svg>
