<?xml version="1.0" encoding="utf-8" standalone="no"?>
<!DOCTYPE svg PUBLIC "-//W3C//DTD SVG 1.1//EN"
  "http://www.w3.org/Graphics/SVG/1.1/DTD/svg11.dtd">
<svg height="309.612pt" version="1.1" viewBox="0 0 402.68875 309.612" width="402.68875pt" xmlns="http://www.w3.org/2000/svg" xmlns:xlink="http://www.w3.org/1999/xlink">
 <metadata>
  <rdf:RDF xmlns:cc="http://creativecommons.org/ns#" xmlns:dc="http://purl.org/dc/elements/1.1/" xmlns:rdf="http://www.w3.org/1999/02/22-rdf-syntax-ns#">
   <cc:Work>
    <dc:type rdf:resource="http://purl.org/dc/dcmitype/StillImage"/>
    <dc:date>2022-07-21T15:34:39.216709</dc:date>
    <dc:format>image/svg+xml</dc:format>
    <dc:creator>
     <cc:Agent>
      <dc:title>Matplotlib v3.4.2, https://matplotlib.org/</dc:title>
     </cc:Agent>
    </dc:creator>
   </cc:Work>
  </rdf:RDF>
 </metadata>
 <defs>
  <style type="text/css">*{stroke-linecap:butt;stroke-linejoin:round;}</style>
 </defs>
 <g id="figure_1">
  <g id="patch_1">
   <path d="M 0 309.612 
L 402.68875 309.612 
L 402.68875 0 
L 0 0 
z
" style="fill:#ffffff;"/>
  </g>
  <g id="axes_1">
   <g id="patch_2">
    <path d="M 36.61875 275.062 
L 393.73875 275.062 
L 393.73875 8.95 
L 36.61875 8.95 
z
" style="fill:#ffffff;"/>
   </g>
   <g id="matplotlib.axis_1">
    <g id="xtick_1">
     <g id="line2d_1">
      <defs>
       <path d="M 0 1.75 
L 0 -1.75 
" id="m04a8976d05" style="stroke:#000000;stroke-width:0.8;"/>
      </defs>
      <g>
       <use style="stroke:#000000;stroke-width:0.8;" x="45.8119" xlink:href="#m04a8976d05" y="275.062"/>
      </g>
     </g>
     <g id="line2d_2">
      <g>
       <use style="stroke:#000000;stroke-width:0.8;" x="45.8119" xlink:href="#m04a8976d05" y="8.95"/>
      </g>
     </g>
     <g id="text_1">
      <!-- 0 -->
      <g transform="translate(43.032212 287.452625)scale(0.1 -0.1)">
       <defs>
        <path d="M 1779 518 
C 1139 518 960 1306 960 2240 
C 960 3174 1139 3962 1779 3962 
C 2419 3962 2598 3174 2598 2240 
C 2598 1306 2419 518 1779 518 
z
M 1779 4570 
C 493 4570 230 3258 230 2240 
C 230 1222 493 -90 1779 -90 
C 3066 -90 3328 1222 3328 2240 
C 3328 3258 3066 4570 1779 4570 
z
" id="HelveticaNeue-Medium-30" transform="scale(0.015625)"/>
       </defs>
       <use xlink:href="#HelveticaNeue-Medium-30"/>
      </g>
     </g>
    </g>
    <g id="xtick_2">
     <g id="line2d_3">
      <g>
       <use style="stroke:#000000;stroke-width:0.8;" x="114.208797" xlink:href="#m04a8976d05" y="275.062"/>
      </g>
     </g>
     <g id="line2d_4">
      <g>
       <use style="stroke:#000000;stroke-width:0.8;" x="114.208797" xlink:href="#m04a8976d05" y="8.95"/>
      </g>
     </g>
     <g id="text_2">
      <!-- 1 -->
      <g transform="translate(111.429109 287.452625)scale(0.1 -0.1)">
       <defs>
        <path d="M 339 3162 
L 1440 3162 
L 1440 0 
L 2240 0 
L 2240 4480 
L 1645 4480 
C 1536 3942 954 3731 339 3738 
L 339 3162 
z
" id="HelveticaNeue-Medium-31" transform="scale(0.015625)"/>
       </defs>
       <use xlink:href="#HelveticaNeue-Medium-31"/>
      </g>
     </g>
    </g>
    <g id="xtick_3">
     <g id="line2d_5">
      <g>
       <use style="stroke:#000000;stroke-width:0.8;" x="182.605694" xlink:href="#m04a8976d05" y="275.062"/>
      </g>
     </g>
     <g id="line2d_6">
      <g>
       <use style="stroke:#000000;stroke-width:0.8;" x="182.605694" xlink:href="#m04a8976d05" y="8.95"/>
      </g>
     </g>
     <g id="text_3">
      <!-- 2 -->
      <g transform="translate(179.826007 287.452625)scale(0.1 -0.1)">
       <defs>
        <path d="M 3309 653 
L 1126 653 
C 1254 1050 1798 1325 2317 1683 
C 2829 2042 3315 2483 3315 3194 
C 3315 3770 2970 4570 1875 4570 
C 877 4570 333 3834 333 2842 
L 1062 2842 
C 1082 3469 1254 3962 1830 3962 
C 2458 3962 2592 3488 2586 3168 
C 2573 2470 1818 2118 1235 1696 
C 634 1293 256 736 250 0 
L 3309 0 
L 3309 653 
z
" id="HelveticaNeue-Medium-32" transform="scale(0.015625)"/>
       </defs>
       <use xlink:href="#HelveticaNeue-Medium-32"/>
      </g>
     </g>
    </g>
    <g id="xtick_4">
     <g id="line2d_7">
      <g>
       <use style="stroke:#000000;stroke-width:0.8;" x="251.002592" xlink:href="#m04a8976d05" y="275.062"/>
      </g>
     </g>
     <g id="line2d_8">
      <g>
       <use style="stroke:#000000;stroke-width:0.8;" x="251.002592" xlink:href="#m04a8976d05" y="8.95"/>
      </g>
     </g>
     <g id="text_4">
      <!-- 3 -->
      <g transform="translate(248.222904 287.452625)scale(0.1 -0.1)">
       <defs>
        <path d="M 1459 2080 
C 2035 2106 2630 2016 2630 1318 
C 2630 806 2259 518 1773 518 
C 1203 518 909 928 928 1472 
L 198 1472 
C 218 538 736 -90 1773 -90 
C 2630 -90 3360 435 3360 1280 
C 3360 1856 3053 2298 2547 2400 
L 2547 2413 
C 2976 2566 3181 2925 3181 3373 
C 3181 4166 2464 4570 1766 4570 
C 864 4570 320 3917 282 3046 
L 1011 3046 
C 998 3507 1248 3962 1754 3962 
C 2157 3962 2451 3706 2451 3328 
C 2451 2778 1946 2605 1459 2624 
L 1459 2080 
z
" id="HelveticaNeue-Medium-33" transform="scale(0.015625)"/>
       </defs>
       <use xlink:href="#HelveticaNeue-Medium-33"/>
      </g>
     </g>
    </g>
    <g id="xtick_5">
     <g id="line2d_9">
      <g>
       <use style="stroke:#000000;stroke-width:0.8;" x="319.399489" xlink:href="#m04a8976d05" y="275.062"/>
      </g>
     </g>
     <g id="line2d_10">
      <g>
       <use style="stroke:#000000;stroke-width:0.8;" x="319.399489" xlink:href="#m04a8976d05" y="8.95"/>
      </g>
     </g>
     <g id="text_5">
      <!-- 4 -->
      <g transform="translate(316.619802 287.452625)scale(0.1 -0.1)">
       <defs>
        <path d="M 3341 1638 
L 2765 1638 
L 2765 4480 
L 2074 4480 
L 154 1786 
L 154 1062 
L 2074 1062 
L 2074 0 
L 2765 0 
L 2765 1062 
L 3341 1062 
L 3341 1638 
z
M 2061 3610 
L 2074 3610 
L 2074 1638 
L 717 1638 
L 2061 3610 
z
" id="HelveticaNeue-Medium-34" transform="scale(0.015625)"/>
       </defs>
       <use xlink:href="#HelveticaNeue-Medium-34"/>
      </g>
     </g>
    </g>
    <g id="xtick_6">
     <g id="line2d_11">
      <g>
       <use style="stroke:#000000;stroke-width:0.8;" x="387.796386" xlink:href="#m04a8976d05" y="275.062"/>
      </g>
     </g>
     <g id="line2d_12">
      <g>
       <use style="stroke:#000000;stroke-width:0.8;" x="387.796386" xlink:href="#m04a8976d05" y="8.95"/>
      </g>
     </g>
     <g id="text_6">
      <!-- 5 -->
      <g transform="translate(385.016699 287.452625)scale(0.1 -0.1)">
       <defs>
        <path d="M 307 2029 
L 1037 2029 
C 1152 2342 1453 2438 1760 2438 
C 2349 2438 2611 1997 2611 1504 
C 2611 960 2400 518 1779 518 
C 1306 518 998 794 954 1274 
L 224 1274 
C 256 378 928 -90 1792 -90 
C 2893 -90 3341 800 3341 1517 
C 3341 2374 2829 3014 1939 3014 
C 1638 3014 1312 2893 1114 2675 
L 1101 2688 
L 1331 3827 
L 3104 3827 
L 3104 4480 
L 787 4480 
L 307 2029 
z
" id="HelveticaNeue-Medium-35" transform="scale(0.015625)"/>
       </defs>
       <use xlink:href="#HelveticaNeue-Medium-35"/>
      </g>
     </g>
    </g>
    <g id="text_7">
     <!-- x -->
     <g transform="translate(212.493594 300.502625)scale(0.1 -0.1)">
      <defs>
       <path d="M 26 0 
L 883 0 
L 1696 1222 
L 2534 0 
L 3411 0 
L 2144 1779 
L 3270 3309 
L 2426 3309 
L 1702 2291 
L 1011 3309 
L 128 3309 
L 1274 1741 
L 26 0 
z
" id="HelveticaNeue-Medium-78" transform="scale(0.015625)"/>
      </defs>
      <use xlink:href="#HelveticaNeue-Medium-78"/>
     </g>
    </g>
   </g>
   <g id="matplotlib.axis_2">
    <g id="ytick_1">
     <g id="line2d_13">
      <defs>
       <path d="M 1.75 0 
L -1.75 -0 
" id="m8d0fcb1f3d" style="stroke:#000000;stroke-width:0.8;"/>
      </defs>
      <g>
       <use style="stroke:#000000;stroke-width:0.8;" x="36.61875" xlink:href="#m8d0fcb1f3d" y="274.949715"/>
      </g>
     </g>
     <g id="line2d_14">
      <g>
       <use style="stroke:#000000;stroke-width:0.8;" x="393.73875" xlink:href="#m8d0fcb1f3d" y="274.949715"/>
      </g>
     </g>
     <g id="text_8">
      <!-- 2 -->
      <g transform="translate(25.809375 278.520027)scale(0.1 -0.1)">
       <use xlink:href="#HelveticaNeue-Medium-32"/>
      </g>
     </g>
    </g>
    <g id="ytick_2">
     <g id="line2d_15">
      <g>
       <use style="stroke:#000000;stroke-width:0.8;" x="36.61875" xlink:href="#m8d0fcb1f3d" y="243.845661"/>
      </g>
     </g>
     <g id="line2d_16">
      <g>
       <use style="stroke:#000000;stroke-width:0.8;" x="393.73875" xlink:href="#m8d0fcb1f3d" y="243.845661"/>
      </g>
     </g>
     <g id="text_9">
      <!-- 4 -->
      <g transform="translate(25.809375 247.415974)scale(0.1 -0.1)">
       <use xlink:href="#HelveticaNeue-Medium-34"/>
      </g>
     </g>
    </g>
    <g id="ytick_3">
     <g id="line2d_17">
      <g>
       <use style="stroke:#000000;stroke-width:0.8;" x="36.61875" xlink:href="#m8d0fcb1f3d" y="212.741608"/>
      </g>
     </g>
     <g id="line2d_18">
      <g>
       <use style="stroke:#000000;stroke-width:0.8;" x="393.73875" xlink:href="#m8d0fcb1f3d" y="212.741608"/>
      </g>
     </g>
     <g id="text_10">
      <!-- 6 -->
      <g transform="translate(25.809375 216.31192)scale(0.1 -0.1)">
       <defs>
        <path d="M 1824 518 
C 1293 518 1018 966 1018 1453 
C 1018 1946 1293 2368 1824 2368 
C 2349 2368 2611 1933 2611 1453 
C 2611 973 2349 518 1824 518 
z
M 3258 3347 
C 3219 4077 2618 4570 1907 4570 
C 640 4570 218 3322 218 2253 
C 218 947 531 -90 1850 -90 
C 2746 -90 3341 570 3341 1440 
C 3341 2298 2816 2944 1926 2944 
C 1530 2944 1158 2765 960 2413 
L 947 2426 
C 992 3014 1082 3962 1875 3962 
C 2253 3962 2496 3712 2528 3347 
L 3258 3347 
z
" id="HelveticaNeue-Medium-36" transform="scale(0.015625)"/>
       </defs>
       <use xlink:href="#HelveticaNeue-Medium-36"/>
      </g>
     </g>
    </g>
    <g id="ytick_4">
     <g id="line2d_19">
      <g>
       <use style="stroke:#000000;stroke-width:0.8;" x="36.61875" xlink:href="#m8d0fcb1f3d" y="181.637554"/>
      </g>
     </g>
     <g id="line2d_20">
      <g>
       <use style="stroke:#000000;stroke-width:0.8;" x="393.73875" xlink:href="#m8d0fcb1f3d" y="181.637554"/>
      </g>
     </g>
     <g id="text_11">
      <!-- 8 -->
      <g transform="translate(25.809375 185.207867)scale(0.1 -0.1)">
       <defs>
        <path d="M 1779 486 
C 1293 486 928 794 928 1318 
C 928 1811 1293 2106 1779 2106 
C 2266 2106 2630 1811 2630 1318 
C 2630 794 2266 486 1779 486 
z
M 1779 -90 
C 2688 -90 3360 442 3360 1318 
C 3360 1882 3040 2285 2541 2413 
L 2541 2426 
C 2944 2579 3174 2912 3174 3347 
C 3174 4109 2669 4570 1779 4570 
C 890 4570 384 4109 384 3347 
C 384 2912 614 2579 1018 2426 
L 1018 2413 
C 518 2285 198 1882 198 1318 
C 198 442 870 -90 1779 -90 
z
M 1779 3994 
C 2170 3994 2483 3750 2483 3309 
C 2483 2886 2182 2650 1779 2650 
C 1376 2650 1075 2886 1075 3309 
C 1075 3750 1389 3994 1779 3994 
z
" id="HelveticaNeue-Medium-38" transform="scale(0.015625)"/>
       </defs>
       <use xlink:href="#HelveticaNeue-Medium-38"/>
      </g>
     </g>
    </g>
    <g id="ytick_5">
     <g id="line2d_21">
      <g>
       <use style="stroke:#000000;stroke-width:0.8;" x="36.61875" xlink:href="#m8d0fcb1f3d" y="150.5335"/>
      </g>
     </g>
     <g id="line2d_22">
      <g>
       <use style="stroke:#000000;stroke-width:0.8;" x="393.73875" xlink:href="#m8d0fcb1f3d" y="150.5335"/>
      </g>
     </g>
     <g id="text_12">
      <!-- 10 -->
      <g transform="translate(20.25 154.103813)scale(0.1 -0.1)">
       <use xlink:href="#HelveticaNeue-Medium-31"/>
       <use x="55.599991" xlink:href="#HelveticaNeue-Medium-30"/>
      </g>
     </g>
    </g>
    <g id="ytick_6">
     <g id="line2d_23">
      <g>
       <use style="stroke:#000000;stroke-width:0.8;" x="36.61875" xlink:href="#m8d0fcb1f3d" y="119.429447"/>
      </g>
     </g>
     <g id="line2d_24">
      <g>
       <use style="stroke:#000000;stroke-width:0.8;" x="393.73875" xlink:href="#m8d0fcb1f3d" y="119.429447"/>
      </g>
     </g>
     <g id="text_13">
      <!-- 12 -->
      <g transform="translate(20.25 122.999759)scale(0.1 -0.1)">
       <use xlink:href="#HelveticaNeue-Medium-31"/>
       <use x="55.599991" xlink:href="#HelveticaNeue-Medium-32"/>
      </g>
     </g>
    </g>
    <g id="ytick_7">
     <g id="line2d_25">
      <g>
       <use style="stroke:#000000;stroke-width:0.8;" x="36.61875" xlink:href="#m8d0fcb1f3d" y="88.325393"/>
      </g>
     </g>
     <g id="line2d_26">
      <g>
       <use style="stroke:#000000;stroke-width:0.8;" x="393.73875" xlink:href="#m8d0fcb1f3d" y="88.325393"/>
      </g>
     </g>
     <g id="text_14">
      <!-- 14 -->
      <g transform="translate(20.25 91.895706)scale(0.1 -0.1)">
       <use xlink:href="#HelveticaNeue-Medium-31"/>
       <use x="55.599991" xlink:href="#HelveticaNeue-Medium-34"/>
      </g>
     </g>
    </g>
    <g id="ytick_8">
     <g id="line2d_27">
      <g>
       <use style="stroke:#000000;stroke-width:0.8;" x="36.61875" xlink:href="#m8d0fcb1f3d" y="57.22134"/>
      </g>
     </g>
     <g id="line2d_28">
      <g>
       <use style="stroke:#000000;stroke-width:0.8;" x="393.73875" xlink:href="#m8d0fcb1f3d" y="57.22134"/>
      </g>
     </g>
     <g id="text_15">
      <!-- 16 -->
      <g transform="translate(20.25 60.791652)scale(0.1 -0.1)">
       <use xlink:href="#HelveticaNeue-Medium-31"/>
       <use x="55.599991" xlink:href="#HelveticaNeue-Medium-36"/>
      </g>
     </g>
    </g>
    <g id="ytick_9">
     <g id="line2d_29">
      <g>
       <use style="stroke:#000000;stroke-width:0.8;" x="36.61875" xlink:href="#m8d0fcb1f3d" y="26.117286"/>
      </g>
     </g>
     <g id="line2d_30">
      <g>
       <use style="stroke:#000000;stroke-width:0.8;" x="393.73875" xlink:href="#m8d0fcb1f3d" y="26.117286"/>
      </g>
     </g>
     <g id="text_16">
      <!-- 18 -->
      <g transform="translate(20.25 29.687598)scale(0.1 -0.1)">
       <use xlink:href="#HelveticaNeue-Medium-31"/>
       <use x="55.599991" xlink:href="#HelveticaNeue-Medium-38"/>
      </g>
     </g>
    </g>
    <g id="text_17">
     <!-- y -->
     <g transform="translate(14.2 144.601312)rotate(-90)scale(0.1 -0.1)">
      <defs>
       <path d="M 1274 13 
L 1190 -243 
C 1101 -525 1018 -704 678 -704 
C 563 -704 448 -678 333 -659 
L 333 -1274 
C 499 -1299 666 -1312 838 -1312 
C 1600 -1312 1773 -774 2010 -179 
L 3296 3309 
L 2534 3309 
L 1696 838 
L 1683 838 
L 819 3309 
L 19 3309 
L 1274 13 
z
" id="HelveticaNeue-Medium-79" transform="scale(0.015625)"/>
      </defs>
      <use xlink:href="#HelveticaNeue-Medium-79"/>
     </g>
    </g>
   </g>
   <g id="LineCollection_1">
    <path clip-path="url(#p914584f994)" d="M 173.89881 108.933662 
L 173.89881 77.829609 
" style="fill:none;stroke:#008fd5;stroke-width:1.5;"/>
    <path clip-path="url(#p914584f994)" d="M 370.941444 147.273292 
L 370.941444 116.169238 
" style="fill:none;stroke:#008fd5;stroke-width:1.5;"/>
    <path clip-path="url(#p914584f994)" d="M 296.142472 75.572003 
L 296.142472 44.467949 
" style="fill:none;stroke:#008fd5;stroke-width:1.5;"/>
    <path clip-path="url(#p914584f994)" d="M 250.543814 64.091641 
L 250.543814 32.987587 
" style="fill:none;stroke:#008fd5;stroke-width:1.5;"/>
    <path clip-path="url(#p914584f994)" d="M 99.167854 197.963249 
L 99.167854 166.859195 
" style="fill:none;stroke:#008fd5;stroke-width:1.5;"/>
    <path clip-path="url(#p914584f994)" d="M 99.159606 198.679585 
L 99.159606 167.575532 
" style="fill:none;stroke:#008fd5;stroke-width:1.5;"/>
    <path clip-path="url(#p914584f994)" d="M 65.675594 244.716739 
L 65.675594 213.612685 
" style="fill:none;stroke:#008fd5;stroke-width:1.5;"/>
    <path clip-path="url(#p914584f994)" d="M 342.030704 150.849957 
L 342.030704 119.745904 
" style="fill:none;stroke:#008fd5;stroke-width:1.5;"/>
    <path clip-path="url(#p914584f994)" d="M 251.383908 99.417784 
L 251.383908 68.31373 
" style="fill:none;stroke:#008fd5;stroke-width:1.5;"/>
    <path clip-path="url(#p914584f994)" d="M 287.961737 60.673493 
L 287.961737 29.569439 
" style="fill:none;stroke:#008fd5;stroke-width:1.5;"/>
    <path clip-path="url(#p914584f994)" d="M 52.851477 236.094308 
L 52.851477 204.990255 
" style="fill:none;stroke:#008fd5;stroke-width:1.5;"/>
    <path clip-path="url(#p914584f994)" d="M 377.506023 155.241234 
L 377.506023 124.13718 
" style="fill:none;stroke:#008fd5;stroke-width:1.5;"/>
    <path clip-path="url(#p914584f994)" d="M 330.494369 96.684501 
L 330.494369 65.580447 
" style="fill:none;stroke:#008fd5;stroke-width:1.5;"/>
    <path clip-path="url(#p914584f994)" d="M 118.428581 159.238844 
L 118.428581 128.13479 
" style="fill:none;stroke:#008fd5;stroke-width:1.5;"/>
    <path clip-path="url(#p914584f994)" d="M 107.993218 129.740159 
L 107.993218 98.636106 
" style="fill:none;stroke:#008fd5;stroke-width:1.5;"/>
    <path clip-path="url(#p914584f994)" d="M 108.533397 159.48998 
L 108.533397 128.385926 
" style="fill:none;stroke:#008fd5;stroke-width:1.5;"/>
    <path clip-path="url(#p914584f994)" d="M 149.858027 130.561803 
L 149.858027 99.457749 
" style="fill:none;stroke:#008fd5;stroke-width:1.5;"/>
    <path clip-path="url(#p914584f994)" d="M 225.270459 94.631654 
L 225.270459 63.5276 
" style="fill:none;stroke:#008fd5;stroke-width:1.5;"/>
    <path clip-path="url(#p914584f994)" d="M 193.530395 118.674077 
L 193.530395 87.570023 
" style="fill:none;stroke:#008fd5;stroke-width:1.5;"/>
    <path clip-path="url(#p914584f994)" d="M 145.407748 129.931068 
L 145.407748 98.827015 
" style="fill:none;stroke:#008fd5;stroke-width:1.5;"/>
    <path clip-path="url(#p914584f994)" d="M 255.056098 87.617285 
L 255.056098 56.513232 
" style="fill:none;stroke:#008fd5;stroke-width:1.5;"/>
    <path clip-path="url(#p914584f994)" d="M 93.516636 219.867438 
L 93.516636 188.763384 
" style="fill:none;stroke:#008fd5;stroke-width:1.5;"/>
    <path clip-path="url(#p914584f994)" d="M 145.720837 142.827048 
L 145.720837 111.722995 
" style="fill:none;stroke:#008fd5;stroke-width:1.5;"/>
    <path clip-path="url(#p914584f994)" d="M 171.101967 126.224609 
L 171.101967 95.120556 
" style="fill:none;stroke:#008fd5;stroke-width:1.5;"/>
    <path clip-path="url(#p914584f994)" d="M 201.780759 62.882141 
L 201.780759 31.778087 
" style="fill:none;stroke:#008fd5;stroke-width:1.5;"/>
    <path clip-path="url(#p914584f994)" d="M 314.329898 80.86544 
L 314.329898 49.761387 
" style="fill:none;stroke:#008fd5;stroke-width:1.5;"/>
    <path clip-path="url(#p914584f994)" d="M 114.097235 169.723702 
L 114.097235 138.619648 
" style="fill:none;stroke:#008fd5;stroke-width:1.5;"/>
    <path clip-path="url(#p914584f994)" d="M 221.6721 57.831922 
L 221.6721 26.727869 
" style="fill:none;stroke:#008fd5;stroke-width:1.5;"/>
    <path clip-path="url(#p914584f994)" d="M 248.408492 74.74941 
L 248.408492 43.645357 
" style="fill:none;stroke:#008fd5;stroke-width:1.5;"/>
    <path clip-path="url(#p914584f994)" d="M 61.69722 260.323926 
L 61.69722 229.219872 
" style="fill:none;stroke:#008fd5;stroke-width:1.5;"/>
    <path clip-path="url(#p914584f994)" d="M 253.582814 52.150054 
L 253.582814 21.046 
" style="fill:none;stroke:#008fd5;stroke-width:1.5;"/>
    <path clip-path="url(#p914584f994)" d="M 104.128505 174.46601 
L 104.128505 143.361956 
" style="fill:none;stroke:#008fd5;stroke-width:1.5;"/>
    <path clip-path="url(#p914584f994)" d="M 68.058535 252.727051 
L 68.058535 221.622997 
" style="fill:none;stroke:#008fd5;stroke-width:1.5;"/>
    <path clip-path="url(#p914584f994)" d="M 370.316033 146.098018 
L 370.316033 114.993965 
" style="fill:none;stroke:#008fd5;stroke-width:1.5;"/>
    <path clip-path="url(#p914584f994)" d="M 376.043075 163.276736 
L 376.043075 132.172683 
" style="fill:none;stroke:#008fd5;stroke-width:1.5;"/>
    <path clip-path="url(#p914584f994)" d="M 322.271252 121.213028 
L 322.271252 90.108975 
" style="fill:none;stroke:#008fd5;stroke-width:1.5;"/>
    <path clip-path="url(#p914584f994)" d="M 149.985083 114.041887 
L 149.985083 82.937834 
" style="fill:none;stroke:#008fd5;stroke-width:1.5;"/>
    <path clip-path="url(#p914584f994)" d="M 79.214247 189.364913 
L 79.214247 158.260859 
" style="fill:none;stroke:#008fd5;stroke-width:1.5;"/>
    <path clip-path="url(#p914584f994)" d="M 279.80898 101.162675 
L 279.80898 70.058622 
" style="fill:none;stroke:#008fd5;stroke-width:1.5;"/>
    <path clip-path="url(#p914584f994)" d="M 196.337224 83.306432 
L 196.337224 52.202378 
" style="fill:none;stroke:#008fd5;stroke-width:1.5;"/>
    <path clip-path="url(#p914584f994)" d="M 87.547083 216.596206 
L 87.547083 185.492153 
" style="fill:none;stroke:#008fd5;stroke-width:1.5;"/>
    <path clip-path="url(#p914584f994)" d="M 215.154721 90.703144 
L 215.154721 59.599091 
" style="fill:none;stroke:#008fd5;stroke-width:1.5;"/>
    <path clip-path="url(#p914584f994)" d="M 57.57224 262.966 
L 57.57224 231.861946 
" style="fill:none;stroke:#008fd5;stroke-width:1.5;"/>
    <path clip-path="url(#p914584f994)" d="M 356.785371 142.266363 
L 356.785371 111.162309 
" style="fill:none;stroke:#008fd5;stroke-width:1.5;"/>
    <path clip-path="url(#p914584f994)" d="M 134.310639 144.357379 
L 134.310639 113.253325 
" style="fill:none;stroke:#008fd5;stroke-width:1.5;"/>
    <path clip-path="url(#p914584f994)" d="M 272.384243 90.62002 
L 272.384243 59.515966 
" style="fill:none;stroke:#008fd5;stroke-width:1.5;"/>
    <path clip-path="url(#p914584f994)" d="M 152.412252 121.848382 
L 152.412252 90.744329 
" style="fill:none;stroke:#008fd5;stroke-width:1.5;"/>
    <path clip-path="url(#p914584f994)" d="M 223.667095 81.016272 
L 223.667095 49.912218 
" style="fill:none;stroke:#008fd5;stroke-width:1.5;"/>
    <path clip-path="url(#p914584f994)" d="M 232.778334 81.657639 
L 232.778334 50.553585 
" style="fill:none;stroke:#008fd5;stroke-width:1.5;"/>
    <path clip-path="url(#p914584f994)" d="M 109.029256 190.355843 
L 109.029256 159.25179 
" style="fill:none;stroke:#008fd5;stroke-width:1.5;"/>
   </g>
   <g id="line2d_31">
    <defs>
     <path d="M 2 0 
L -2 -0 
" id="m45091b53c3" style="stroke:#008fd5;"/>
    </defs>
    <g clip-path="url(#p914584f994)">
     <use style="fill:#008fd5;stroke:#008fd5;" x="173.89881" xlink:href="#m45091b53c3" y="108.933662"/>
     <use style="fill:#008fd5;stroke:#008fd5;" x="370.941444" xlink:href="#m45091b53c3" y="147.273292"/>
     <use style="fill:#008fd5;stroke:#008fd5;" x="296.142472" xlink:href="#m45091b53c3" y="75.572003"/>
     <use style="fill:#008fd5;stroke:#008fd5;" x="250.543814" xlink:href="#m45091b53c3" y="64.091641"/>
     <use style="fill:#008fd5;stroke:#008fd5;" x="99.167854" xlink:href="#m45091b53c3" y="197.963249"/>
     <use style="fill:#008fd5;stroke:#008fd5;" x="99.159606" xlink:href="#m45091b53c3" y="198.679585"/>
     <use style="fill:#008fd5;stroke:#008fd5;" x="65.675594" xlink:href="#m45091b53c3" y="244.716739"/>
     <use style="fill:#008fd5;stroke:#008fd5;" x="342.030704" xlink:href="#m45091b53c3" y="150.849957"/>
     <use style="fill:#008fd5;stroke:#008fd5;" x="251.383908" xlink:href="#m45091b53c3" y="99.417784"/>
     <use style="fill:#008fd5;stroke:#008fd5;" x="287.961737" xlink:href="#m45091b53c3" y="60.673493"/>
     <use style="fill:#008fd5;stroke:#008fd5;" x="52.851477" xlink:href="#m45091b53c3" y="236.094308"/>
     <use style="fill:#008fd5;stroke:#008fd5;" x="377.506023" xlink:href="#m45091b53c3" y="155.241234"/>
     <use style="fill:#008fd5;stroke:#008fd5;" x="330.494369" xlink:href="#m45091b53c3" y="96.684501"/>
     <use style="fill:#008fd5;stroke:#008fd5;" x="118.428581" xlink:href="#m45091b53c3" y="159.238844"/>
     <use style="fill:#008fd5;stroke:#008fd5;" x="107.993218" xlink:href="#m45091b53c3" y="129.740159"/>
     <use style="fill:#008fd5;stroke:#008fd5;" x="108.533397" xlink:href="#m45091b53c3" y="159.48998"/>
     <use style="fill:#008fd5;stroke:#008fd5;" x="149.858027" xlink:href="#m45091b53c3" y="130.561803"/>
     <use style="fill:#008fd5;stroke:#008fd5;" x="225.270459" xlink:href="#m45091b53c3" y="94.631654"/>
     <use style="fill:#008fd5;stroke:#008fd5;" x="193.530395" xlink:href="#m45091b53c3" y="118.674077"/>
     <use style="fill:#008fd5;stroke:#008fd5;" x="145.407748" xlink:href="#m45091b53c3" y="129.931068"/>
     <use style="fill:#008fd5;stroke:#008fd5;" x="255.056098" xlink:href="#m45091b53c3" y="87.617285"/>
     <use style="fill:#008fd5;stroke:#008fd5;" x="93.516636" xlink:href="#m45091b53c3" y="219.867438"/>
     <use style="fill:#008fd5;stroke:#008fd5;" x="145.720837" xlink:href="#m45091b53c3" y="142.827048"/>
     <use style="fill:#008fd5;stroke:#008fd5;" x="171.101967" xlink:href="#m45091b53c3" y="126.224609"/>
     <use style="fill:#008fd5;stroke:#008fd5;" x="201.780759" xlink:href="#m45091b53c3" y="62.882141"/>
     <use style="fill:#008fd5;stroke:#008fd5;" x="314.329898" xlink:href="#m45091b53c3" y="80.86544"/>
     <use style="fill:#008fd5;stroke:#008fd5;" x="114.097235" xlink:href="#m45091b53c3" y="169.723702"/>
     <use style="fill:#008fd5;stroke:#008fd5;" x="221.6721" xlink:href="#m45091b53c3" y="57.831922"/>
     <use style="fill:#008fd5;stroke:#008fd5;" x="248.408492" xlink:href="#m45091b53c3" y="74.74941"/>
     <use style="fill:#008fd5;stroke:#008fd5;" x="61.69722" xlink:href="#m45091b53c3" y="260.323926"/>
     <use style="fill:#008fd5;stroke:#008fd5;" x="253.582814" xlink:href="#m45091b53c3" y="52.150054"/>
     <use style="fill:#008fd5;stroke:#008fd5;" x="104.128505" xlink:href="#m45091b53c3" y="174.46601"/>
     <use style="fill:#008fd5;stroke:#008fd5;" x="68.058535" xlink:href="#m45091b53c3" y="252.727051"/>
     <use style="fill:#008fd5;stroke:#008fd5;" x="370.316033" xlink:href="#m45091b53c3" y="146.098018"/>
     <use style="fill:#008fd5;stroke:#008fd5;" x="376.043075" xlink:href="#m45091b53c3" y="163.276736"/>
     <use style="fill:#008fd5;stroke:#008fd5;" x="322.271252" xlink:href="#m45091b53c3" y="121.213028"/>
     <use style="fill:#008fd5;stroke:#008fd5;" x="149.985083" xlink:href="#m45091b53c3" y="114.041887"/>
     <use style="fill:#008fd5;stroke:#008fd5;" x="79.214247" xlink:href="#m45091b53c3" y="189.364913"/>
     <use style="fill:#008fd5;stroke:#008fd5;" x="279.80898" xlink:href="#m45091b53c3" y="101.162675"/>
     <use style="fill:#008fd5;stroke:#008fd5;" x="196.337224" xlink:href="#m45091b53c3" y="83.306432"/>
     <use style="fill:#008fd5;stroke:#008fd5;" x="87.547083" xlink:href="#m45091b53c3" y="216.596206"/>
     <use style="fill:#008fd5;stroke:#008fd5;" x="215.154721" xlink:href="#m45091b53c3" y="90.703144"/>
     <use style="fill:#008fd5;stroke:#008fd5;" x="57.57224" xlink:href="#m45091b53c3" y="262.966"/>
     <use style="fill:#008fd5;stroke:#008fd5;" x="356.785371" xlink:href="#m45091b53c3" y="142.266363"/>
     <use style="fill:#008fd5;stroke:#008fd5;" x="134.310639" xlink:href="#m45091b53c3" y="144.357379"/>
     <use style="fill:#008fd5;stroke:#008fd5;" x="272.384243" xlink:href="#m45091b53c3" y="90.62002"/>
     <use style="fill:#008fd5;stroke:#008fd5;" x="152.412252" xlink:href="#m45091b53c3" y="121.848382"/>
     <use style="fill:#008fd5;stroke:#008fd5;" x="223.667095" xlink:href="#m45091b53c3" y="81.016272"/>
     <use style="fill:#008fd5;stroke:#008fd5;" x="232.778334" xlink:href="#m45091b53c3" y="81.657639"/>
     <use style="fill:#008fd5;stroke:#008fd5;" x="109.029256" xlink:href="#m45091b53c3" y="190.355843"/>
    </g>
   </g>
   <g id="line2d_32">
    <g clip-path="url(#p914584f994)">
     <use style="fill:#008fd5;stroke:#008fd5;" x="173.89881" xlink:href="#m45091b53c3" y="77.829609"/>
     <use style="fill:#008fd5;stroke:#008fd5;" x="370.941444" xlink:href="#m45091b53c3" y="116.169238"/>
     <use style="fill:#008fd5;stroke:#008fd5;" x="296.142472" xlink:href="#m45091b53c3" y="44.467949"/>
     <use style="fill:#008fd5;stroke:#008fd5;" x="250.543814" xlink:href="#m45091b53c3" y="32.987587"/>
     <use style="fill:#008fd5;stroke:#008fd5;" x="99.167854" xlink:href="#m45091b53c3" y="166.859195"/>
     <use style="fill:#008fd5;stroke:#008fd5;" x="99.159606" xlink:href="#m45091b53c3" y="167.575532"/>
     <use style="fill:#008fd5;stroke:#008fd5;" x="65.675594" xlink:href="#m45091b53c3" y="213.612685"/>
     <use style="fill:#008fd5;stroke:#008fd5;" x="342.030704" xlink:href="#m45091b53c3" y="119.745904"/>
     <use style="fill:#008fd5;stroke:#008fd5;" x="251.383908" xlink:href="#m45091b53c3" y="68.31373"/>
     <use style="fill:#008fd5;stroke:#008fd5;" x="287.961737" xlink:href="#m45091b53c3" y="29.569439"/>
     <use style="fill:#008fd5;stroke:#008fd5;" x="52.851477" xlink:href="#m45091b53c3" y="204.990255"/>
     <use style="fill:#008fd5;stroke:#008fd5;" x="377.506023" xlink:href="#m45091b53c3" y="124.13718"/>
     <use style="fill:#008fd5;stroke:#008fd5;" x="330.494369" xlink:href="#m45091b53c3" y="65.580447"/>
     <use style="fill:#008fd5;stroke:#008fd5;" x="118.428581" xlink:href="#m45091b53c3" y="128.13479"/>
     <use style="fill:#008fd5;stroke:#008fd5;" x="107.993218" xlink:href="#m45091b53c3" y="98.636106"/>
     <use style="fill:#008fd5;stroke:#008fd5;" x="108.533397" xlink:href="#m45091b53c3" y="128.385926"/>
     <use style="fill:#008fd5;stroke:#008fd5;" x="149.858027" xlink:href="#m45091b53c3" y="99.457749"/>
     <use style="fill:#008fd5;stroke:#008fd5;" x="225.270459" xlink:href="#m45091b53c3" y="63.5276"/>
     <use style="fill:#008fd5;stroke:#008fd5;" x="193.530395" xlink:href="#m45091b53c3" y="87.570023"/>
     <use style="fill:#008fd5;stroke:#008fd5;" x="145.407748" xlink:href="#m45091b53c3" y="98.827015"/>
     <use style="fill:#008fd5;stroke:#008fd5;" x="255.056098" xlink:href="#m45091b53c3" y="56.513232"/>
     <use style="fill:#008fd5;stroke:#008fd5;" x="93.516636" xlink:href="#m45091b53c3" y="188.763384"/>
     <use style="fill:#008fd5;stroke:#008fd5;" x="145.720837" xlink:href="#m45091b53c3" y="111.722995"/>
     <use style="fill:#008fd5;stroke:#008fd5;" x="171.101967" xlink:href="#m45091b53c3" y="95.120556"/>
     <use style="fill:#008fd5;stroke:#008fd5;" x="201.780759" xlink:href="#m45091b53c3" y="31.778087"/>
     <use style="fill:#008fd5;stroke:#008fd5;" x="314.329898" xlink:href="#m45091b53c3" y="49.761387"/>
     <use style="fill:#008fd5;stroke:#008fd5;" x="114.097235" xlink:href="#m45091b53c3" y="138.619648"/>
     <use style="fill:#008fd5;stroke:#008fd5;" x="221.6721" xlink:href="#m45091b53c3" y="26.727869"/>
     <use style="fill:#008fd5;stroke:#008fd5;" x="248.408492" xlink:href="#m45091b53c3" y="43.645357"/>
     <use style="fill:#008fd5;stroke:#008fd5;" x="61.69722" xlink:href="#m45091b53c3" y="229.219872"/>
     <use style="fill:#008fd5;stroke:#008fd5;" x="253.582814" xlink:href="#m45091b53c3" y="21.046"/>
     <use style="fill:#008fd5;stroke:#008fd5;" x="104.128505" xlink:href="#m45091b53c3" y="143.361956"/>
     <use style="fill:#008fd5;stroke:#008fd5;" x="68.058535" xlink:href="#m45091b53c3" y="221.622997"/>
     <use style="fill:#008fd5;stroke:#008fd5;" x="370.316033" xlink:href="#m45091b53c3" y="114.993965"/>
     <use style="fill:#008fd5;stroke:#008fd5;" x="376.043075" xlink:href="#m45091b53c3" y="132.172683"/>
     <use style="fill:#008fd5;stroke:#008fd5;" x="322.271252" xlink:href="#m45091b53c3" y="90.108975"/>
     <use style="fill:#008fd5;stroke:#008fd5;" x="149.985083" xlink:href="#m45091b53c3" y="82.937834"/>
     <use style="fill:#008fd5;stroke:#008fd5;" x="79.214247" xlink:href="#m45091b53c3" y="158.260859"/>
     <use style="fill:#008fd5;stroke:#008fd5;" x="279.80898" xlink:href="#m45091b53c3" y="70.058622"/>
     <use style="fill:#008fd5;stroke:#008fd5;" x="196.337224" xlink:href="#m45091b53c3" y="52.202378"/>
     <use style="fill:#008fd5;stroke:#008fd5;" x="87.547083" xlink:href="#m45091b53c3" y="185.492153"/>
     <use style="fill:#008fd5;stroke:#008fd5;" x="215.154721" xlink:href="#m45091b53c3" y="59.599091"/>
     <use style="fill:#008fd5;stroke:#008fd5;" x="57.57224" xlink:href="#m45091b53c3" y="231.861946"/>
     <use style="fill:#008fd5;stroke:#008fd5;" x="356.785371" xlink:href="#m45091b53c3" y="111.162309"/>
     <use style="fill:#008fd5;stroke:#008fd5;" x="134.310639" xlink:href="#m45091b53c3" y="113.253325"/>
     <use style="fill:#008fd5;stroke:#008fd5;" x="272.384243" xlink:href="#m45091b53c3" y="59.515966"/>
     <use style="fill:#008fd5;stroke:#008fd5;" x="152.412252" xlink:href="#m45091b53c3" y="90.744329"/>
     <use style="fill:#008fd5;stroke:#008fd5;" x="223.667095" xlink:href="#m45091b53c3" y="49.912218"/>
     <use style="fill:#008fd5;stroke:#008fd5;" x="232.778334" xlink:href="#m45091b53c3" y="50.553585"/>
     <use style="fill:#008fd5;stroke:#008fd5;" x="109.029256" xlink:href="#m45091b53c3" y="159.25179"/>
    </g>
   </g>
   <g id="line2d_33">
    <defs>
     <path d="M 0 3 
C 0.795609 3 1.55874 2.683901 2.12132 2.12132 
C 2.683901 1.55874 3 0.795609 3 0 
C 3 -0.795609 2.683901 -1.55874 2.12132 -2.12132 
C 1.55874 -2.683901 0.795609 -3 0 -3 
C -0.795609 -3 -1.55874 -2.683901 -2.12132 -2.12132 
C -2.683901 -1.55874 -3 -0.795609 -3 0 
C -3 0.795609 -2.683901 1.55874 -2.12132 2.12132 
C -1.55874 2.683901 -0.795609 3 0 3 
z
" id="mee1e64771e" style="stroke:#008fd5;"/>
    </defs>
    <g clip-path="url(#p914584f994)">
     <use style="fill:#008fd5;stroke:#008fd5;" x="173.89881" xlink:href="#mee1e64771e" y="93.381635"/>
     <use style="fill:#008fd5;stroke:#008fd5;" x="370.941444" xlink:href="#mee1e64771e" y="131.721265"/>
     <use style="fill:#008fd5;stroke:#008fd5;" x="296.142472" xlink:href="#mee1e64771e" y="60.019976"/>
     <use style="fill:#008fd5;stroke:#008fd5;" x="250.543814" xlink:href="#mee1e64771e" y="48.539614"/>
     <use style="fill:#008fd5;stroke:#008fd5;" x="99.167854" xlink:href="#mee1e64771e" y="182.411222"/>
     <use style="fill:#008fd5;stroke:#008fd5;" x="99.159606" xlink:href="#mee1e64771e" y="183.127559"/>
     <use style="fill:#008fd5;stroke:#008fd5;" x="65.675594" xlink:href="#mee1e64771e" y="229.164712"/>
     <use style="fill:#008fd5;stroke:#008fd5;" x="342.030704" xlink:href="#mee1e64771e" y="135.297931"/>
     <use style="fill:#008fd5;stroke:#008fd5;" x="251.383908" xlink:href="#mee1e64771e" y="83.865757"/>
     <use style="fill:#008fd5;stroke:#008fd5;" x="287.961737" xlink:href="#mee1e64771e" y="45.121466"/>
     <use style="fill:#008fd5;stroke:#008fd5;" x="52.851477" xlink:href="#mee1e64771e" y="220.542282"/>
     <use style="fill:#008fd5;stroke:#008fd5;" x="377.506023" xlink:href="#mee1e64771e" y="139.689207"/>
     <use style="fill:#008fd5;stroke:#008fd5;" x="330.494369" xlink:href="#mee1e64771e" y="81.132474"/>
     <use style="fill:#008fd5;stroke:#008fd5;" x="118.428581" xlink:href="#mee1e64771e" y="143.686817"/>
     <use style="fill:#008fd5;stroke:#008fd5;" x="107.993218" xlink:href="#mee1e64771e" y="114.188132"/>
     <use style="fill:#008fd5;stroke:#008fd5;" x="108.533397" xlink:href="#mee1e64771e" y="143.937953"/>
     <use style="fill:#008fd5;stroke:#008fd5;" x="149.858027" xlink:href="#mee1e64771e" y="115.009776"/>
     <use style="fill:#008fd5;stroke:#008fd5;" x="225.270459" xlink:href="#mee1e64771e" y="79.079627"/>
     <use style="fill:#008fd5;stroke:#008fd5;" x="193.530395" xlink:href="#mee1e64771e" y="103.12205"/>
     <use style="fill:#008fd5;stroke:#008fd5;" x="145.407748" xlink:href="#mee1e64771e" y="114.379042"/>
     <use style="fill:#008fd5;stroke:#008fd5;" x="255.056098" xlink:href="#mee1e64771e" y="72.065258"/>
     <use style="fill:#008fd5;stroke:#008fd5;" x="93.516636" xlink:href="#mee1e64771e" y="204.315411"/>
     <use style="fill:#008fd5;stroke:#008fd5;" x="145.720837" xlink:href="#mee1e64771e" y="127.275022"/>
     <use style="fill:#008fd5;stroke:#008fd5;" x="171.101967" xlink:href="#mee1e64771e" y="110.672583"/>
     <use style="fill:#008fd5;stroke:#008fd5;" x="201.780759" xlink:href="#mee1e64771e" y="47.330114"/>
     <use style="fill:#008fd5;stroke:#008fd5;" x="314.329898" xlink:href="#mee1e64771e" y="65.313414"/>
     <use style="fill:#008fd5;stroke:#008fd5;" x="114.097235" xlink:href="#mee1e64771e" y="154.171675"/>
     <use style="fill:#008fd5;stroke:#008fd5;" x="221.6721" xlink:href="#mee1e64771e" y="42.279895"/>
     <use style="fill:#008fd5;stroke:#008fd5;" x="248.408492" xlink:href="#mee1e64771e" y="59.197384"/>
     <use style="fill:#008fd5;stroke:#008fd5;" x="61.69722" xlink:href="#mee1e64771e" y="244.771899"/>
     <use style="fill:#008fd5;stroke:#008fd5;" x="253.582814" xlink:href="#mee1e64771e" y="36.598027"/>
     <use style="fill:#008fd5;stroke:#008fd5;" x="104.128505" xlink:href="#mee1e64771e" y="158.913983"/>
     <use style="fill:#008fd5;stroke:#008fd5;" x="68.058535" xlink:href="#mee1e64771e" y="237.175024"/>
     <use style="fill:#008fd5;stroke:#008fd5;" x="370.316033" xlink:href="#mee1e64771e" y="130.545991"/>
     <use style="fill:#008fd5;stroke:#008fd5;" x="376.043075" xlink:href="#mee1e64771e" y="147.724709"/>
     <use style="fill:#008fd5;stroke:#008fd5;" x="322.271252" xlink:href="#mee1e64771e" y="105.661001"/>
     <use style="fill:#008fd5;stroke:#008fd5;" x="149.985083" xlink:href="#mee1e64771e" y="98.489861"/>
     <use style="fill:#008fd5;stroke:#008fd5;" x="79.214247" xlink:href="#mee1e64771e" y="173.812886"/>
     <use style="fill:#008fd5;stroke:#008fd5;" x="279.80898" xlink:href="#mee1e64771e" y="85.610649"/>
     <use style="fill:#008fd5;stroke:#008fd5;" x="196.337224" xlink:href="#mee1e64771e" y="67.754405"/>
     <use style="fill:#008fd5;stroke:#008fd5;" x="87.547083" xlink:href="#mee1e64771e" y="201.044179"/>
     <use style="fill:#008fd5;stroke:#008fd5;" x="215.154721" xlink:href="#mee1e64771e" y="75.151118"/>
     <use style="fill:#008fd5;stroke:#008fd5;" x="57.57224" xlink:href="#mee1e64771e" y="247.413973"/>
     <use style="fill:#008fd5;stroke:#008fd5;" x="356.785371" xlink:href="#mee1e64771e" y="126.714336"/>
     <use style="fill:#008fd5;stroke:#008fd5;" x="134.310639" xlink:href="#mee1e64771e" y="128.805352"/>
     <use style="fill:#008fd5;stroke:#008fd5;" x="272.384243" xlink:href="#mee1e64771e" y="75.067993"/>
     <use style="fill:#008fd5;stroke:#008fd5;" x="152.412252" xlink:href="#mee1e64771e" y="106.296356"/>
     <use style="fill:#008fd5;stroke:#008fd5;" x="223.667095" xlink:href="#mee1e64771e" y="65.464245"/>
     <use style="fill:#008fd5;stroke:#008fd5;" x="232.778334" xlink:href="#mee1e64771e" y="66.105612"/>
     <use style="fill:#008fd5;stroke:#008fd5;" x="109.029256" xlink:href="#mee1e64771e" y="174.803816"/>
    </g>
   </g>
   <g id="patch_3">
    <path d="M 36.61875 275.062 
L 36.61875 8.95 
" style="fill:none;stroke:#000000;stroke-linecap:square;stroke-linejoin:miter;stroke-width:0.8;"/>
   </g>
   <g id="patch_4">
    <path d="M 393.73875 275.062 
L 393.73875 8.95 
" style="fill:none;stroke:#000000;stroke-linecap:square;stroke-linejoin:miter;stroke-width:0.8;"/>
   </g>
   <g id="patch_5">
    <path d="M 36.61875 275.062 
L 393.73875 275.062 
" style="fill:none;stroke:#000000;stroke-linecap:square;stroke-linejoin:miter;stroke-width:0.8;"/>
   </g>
   <g id="patch_6">
    <path d="M 36.61875 8.95 
L 393.73875 8.95 
" style="fill:none;stroke:#000000;stroke-linecap:square;stroke-linejoin:miter;stroke-width:0.8;"/>
   </g>
  </g>
 </g>
 <defs>
  <clipPath id="p914584f994">
   <rect height="266.112" width="357.12" x="36.61875" y="8.95"/>
  </clipPath>
 </defs>
</svg>
