<?xml version="1.0" encoding="utf-8" standalone="no"?>
<!DOCTYPE svg PUBLIC "-//W3C//DTD SVG 1.1//EN"
  "http://www.w3.org/Graphics/SVG/1.1/DTD/svg11.dtd">
<svg xmlns:xlink="http://www.w3.org/1999/xlink" width="403.129375pt" height="309.612pt" viewBox="0 0 403.129375 309.612" xmlns="http://www.w3.org/2000/svg" version="1.1">
 <metadata>
  <rdf:RDF xmlns:dc="http://purl.org/dc/elements/1.1/" xmlns:cc="http://creativecommons.org/ns#" xmlns:rdf="http://www.w3.org/1999/02/22-rdf-syntax-ns#">
   <cc:Work>
    <dc:type rdf:resource="http://purl.org/dc/dcmitype/StillImage"/>
    <dc:date>2023-05-11T19:09:40.559791</dc:date>
    <dc:format>image/svg+xml</dc:format>
    <dc:creator>
     <cc:Agent>
      <dc:title>Matplotlib v3.5.1, https://matplotlib.org/</dc:title>
     </cc:Agent>
    </dc:creator>
   </cc:Work>
  </rdf:RDF>
 </metadata>
 <defs>
  <style type="text/css">*{stroke-linejoin: round; stroke-linecap: butt}</style>
 </defs>
 <g id="figure_1">
  <g id="patch_1">
   <path d="M 0 309.612 
L 403.129375 309.612 
L 403.129375 0 
L 0 0 
z
" style="fill: #ffffff"/>
  </g>
  <g id="axes_1">
   <g id="patch_2">
    <path d="M 37.059375 275.062 
L 394.179375 275.062 
L 394.179375 8.95 
L 37.059375 8.95 
z
" style="fill: #ffffff"/>
   </g>
   <g id="PolyCollection_1">
    <defs>
     <path id="mbd1ca96e55" d="M 53.292102 -213.664048 
L 53.292102 -130.500198 
L 56.571441 -133.593983 
L 59.85078 -135.685917 
L 63.130119 -138.382241 
L 66.409458 -139.379806 
L 69.688796 -141.970935 
L 72.968135 -143.828069 
L 76.247474 -147.535898 
L 79.526813 -148.432136 
L 82.806152 -148.594229 
L 86.085491 -151.806794 
L 89.36483 -152.126538 
L 92.644168 -151.530008 
L 95.923507 -153.850761 
L 99.202846 -153.93143 
L 102.482185 -153.331981 
L 105.761524 -153.676865 
L 109.040863 -154.852358 
L 112.320201 -154.58423 
L 115.59954 -152.981159 
L 118.878879 -152.508418 
L 122.158218 -152.222748 
L 125.437557 -150.21113 
L 128.716896 -149.47786 
L 131.996235 -147.099686 
L 135.275573 -145.255762 
L 138.554912 -144.621418 
L 141.834251 -143.058454 
L 145.11359 -139.770129 
L 148.392929 -137.203286 
L 151.672268 -134.29055 
L 154.951606 -131.764872 
L 158.230945 -129.661662 
L 161.510284 -126.496662 
L 164.789623 -125.827604 
L 168.068962 -121.934548 
L 171.348301 -120.751942 
L 174.627639 -117.561492 
L 177.906978 -117.246727 
L 181.186317 -115.880829 
L 184.465656 -112.313148 
L 187.744995 -111.493518 
L 191.024334 -111.578214 
L 194.303673 -108.890117 
L 197.583011 -108.771195 
L 200.86235 -110.321073 
L 204.141689 -109.376371 
L 207.421028 -109.792918 
L 210.700367 -109.819179 
L 213.979706 -109.354329 
L 217.259044 -110.824341 
L 220.538383 -114.125088 
L 223.817722 -114.348547 
L 227.097061 -116.771728 
L 230.3764 -118.026562 
L 233.655739 -118.753179 
L 236.935077 -122.66248 
L 240.214416 -123.43385 
L 243.493755 -127.344396 
L 246.773094 -129.677533 
L 250.052433 -133.205829 
L 253.331772 -134.341848 
L 256.611111 -136.316959 
L 259.890449 -137.645989 
L 263.169788 -138.623301 
L 266.449127 -143.738827 
L 269.728466 -142.808763 
L 273.007805 -145.068103 
L 276.287144 -146.625335 
L 279.566482 -146.956782 
L 282.845821 -148.2955 
L 286.12516 -148.186767 
L 289.404499 -150.066522 
L 292.683838 -151.156393 
L 295.963177 -151.767279 
L 299.242515 -151.464726 
L 302.521854 -150.160666 
L 305.801193 -150.710607 
L 309.080532 -148.414103 
L 312.359871 -147.623471 
L 315.63921 -147.912417 
L 318.918549 -146.728552 
L 322.197887 -144.862105 
L 325.477226 -144.282479 
L 328.756565 -141.683991 
L 332.035904 -140.196821 
L 335.315243 -139.067311 
L 338.594582 -135.704176 
L 341.87392 -134.825506 
L 345.153259 -131.816045 
L 348.432598 -131.003504 
L 351.711937 -127.133399 
L 354.991276 -124.89233 
L 358.270615 -124.451381 
L 361.549954 -120.186588 
L 364.829292 -119.67027 
L 368.108631 -117.523146 
L 371.38797 -116.170989 
L 374.667309 -114.292307 
L 377.946648 -113.610144 
L 377.946648 -195.256536 
L 377.946648 -195.256536 
L 374.667309 -193.880195 
L 371.38797 -195.881445 
L 368.108631 -197.904763 
L 364.829292 -199.296747 
L 361.549954 -200.955833 
L 358.270615 -202.850904 
L 354.991276 -205.522946 
L 351.711937 -207.789838 
L 348.432598 -209.089012 
L 345.153259 -211.159955 
L 341.87392 -214.847478 
L 338.594582 -216.862889 
L 335.315243 -218.767981 
L 332.035904 -219.593731 
L 328.756565 -223.091425 
L 325.477226 -224.114524 
L 322.197887 -225.084279 
L 318.918549 -227.858391 
L 315.63921 -228.446803 
L 312.359871 -230.095599 
L 309.080532 -229.060643 
L 305.801193 -231.734304 
L 302.521854 -232.767336 
L 299.242515 -231.836234 
L 295.963177 -232.514605 
L 292.683838 -232.371233 
L 289.404499 -231.505778 
L 286.12516 -230.718003 
L 282.845821 -228.991298 
L 279.566482 -228.111258 
L 276.287144 -226.187903 
L 273.007805 -224.761515 
L 269.728466 -223.743233 
L 266.449127 -219.893668 
L 263.169788 -218.202361 
L 259.890449 -216.510725 
L 256.611111 -215.948455 
L 253.331772 -212.339608 
L 250.052433 -210.403696 
L 246.773094 -206.278014 
L 243.493755 -205.367189 
L 240.214416 -203.477392 
L 236.935077 -202.144484 
L 233.655739 -200.093871 
L 230.3764 -199.66823 
L 227.097061 -197.007877 
L 223.817722 -195.696312 
L 220.538383 -194.807887 
L 217.259044 -192.564218 
L 213.979706 -191.929244 
L 210.700367 -191.039027 
L 207.421028 -191.924135 
L 204.141689 -191.6018 
L 200.86235 -191.813866 
L 197.583011 -191.950586 
L 194.303673 -192.237366 
L 191.024334 -193.661241 
L 187.744995 -194.270667 
L 184.465656 -194.014073 
L 181.186317 -195.938 
L 177.906978 -197.731035 
L 174.627639 -199.112088 
L 171.348301 -201.749182 
L 168.068962 -201.769905 
L 164.789623 -204.701123 
L 161.510284 -207.111969 
L 158.230945 -208.463179 
L 154.951606 -210.180841 
L 151.672268 -214.178241 
L 148.392929 -214.747843 
L 145.11359 -218.087088 
L 141.834251 -219.389868 
L 138.554912 -220.674134 
L 135.275573 -223.295733 
L 131.996235 -225.454012 
L 128.716896 -226.90632 
L 125.437557 -228.777802 
L 122.158218 -230.541129 
L 118.878879 -231.36899 
L 115.59954 -232.598227 
L 112.320201 -232.583471 
L 109.040863 -232.133931 
L 105.761524 -232.508193 
L 102.482185 -232.090663 
L 99.202846 -233.10018 
L 95.923507 -231.548636 
L 92.644168 -230.232832 
L 89.36483 -230.994146 
L 86.085491 -229.965195 
L 82.806152 -227.544185 
L 79.526813 -226.251658 
L 76.247474 -225.393481 
L 72.968135 -224.520912 
L 69.688796 -221.728019 
L 66.409458 -219.089114 
L 63.130119 -218.049775 
L 59.85078 -216.760971 
L 56.571441 -213.126965 
L 53.292102 -213.664048 
z
" style="stroke: #008000; stroke-opacity: 0.5"/>
    </defs>
    <g clip-path="url(#p62a180d02e)">
     <use xlink:href="#mbd1ca96e55" x="0" y="309.612" style="fill: #008000; fill-opacity: 0.5; stroke: #008000; stroke-opacity: 0.5"/>
    </g>
   </g>
   <g id="PolyCollection_2">
    <defs>
     <path id="m725080e7bb" d="M 53.292102 -264.320104 
L 53.292102 -77.094035 
L 56.571441 -80.296978 
L 59.85078 -83.704367 
L 63.130119 -89.483081 
L 66.409458 -86.880324 
L 69.688796 -88.204701 
L 72.968135 -94.955528 
L 76.247474 -96.238331 
L 79.526813 -97.027658 
L 82.806152 -96.46813 
L 86.085491 -100.605944 
L 89.36483 -98.665277 
L 92.644168 -99.789442 
L 95.923507 -100.488898 
L 99.202846 -102.744143 
L 102.482185 -99.528459 
L 105.761524 -103.899542 
L 109.040863 -102.091685 
L 112.320201 -99.167818 
L 115.59954 -101.504378 
L 118.878879 -103.174425 
L 122.158218 -98.306629 
L 125.437557 -97.396563 
L 128.716896 -100.758903 
L 131.996235 -93.93417 
L 135.275573 -92.852608 
L 138.554912 -94.915002 
L 141.834251 -86.730859 
L 145.11359 -90.82266 
L 148.392929 -85.192282 
L 151.672268 -82.401051 
L 154.951606 -78.907895 
L 158.230945 -79.018496 
L 161.510284 -76.052875 
L 164.789623 -72.994925 
L 168.068962 -67.790685 
L 171.348301 -67.515585 
L 174.627639 -63.651208 
L 177.906978 -63.709627 
L 181.186317 -61.879806 
L 184.465656 -57.859343 
L 187.744995 -57.966017 
L 191.024334 -58.614703 
L 194.303673 -57.118622 
L 197.583011 -54.980266 
L 200.86235 -53.982599 
L 204.141689 -52.678509 
L 207.421028 -56.26185 
L 210.700367 -55.754421 
L 213.979706 -55.733608 
L 217.259044 -58.384569 
L 220.538383 -61.438266 
L 223.817722 -58.992698 
L 227.097061 -63.070355 
L 230.3764 -63.053979 
L 233.655739 -66.789741 
L 236.935077 -71.15532 
L 240.214416 -75.711454 
L 243.493755 -75.495189 
L 246.773094 -78.005822 
L 250.052433 -80.052843 
L 253.331772 -83.619423 
L 256.611111 -82.771459 
L 259.890449 -86.031209 
L 263.169788 -87.127449 
L 266.449127 -90.601463 
L 269.728466 -91.734925 
L 273.007805 -93.837205 
L 276.287144 -94.167195 
L 279.566482 -94.467432 
L 282.845821 -94.588176 
L 286.12516 -93.447839 
L 289.404499 -92.131059 
L 292.683838 -98.153608 
L 295.963177 -97.375963 
L 299.242515 -95.93766 
L 302.521854 -93.390464 
L 305.801193 -98.654444 
L 309.080532 -96.273305 
L 312.359871 -94.649604 
L 315.63921 -94.347386 
L 318.918549 -89.502618 
L 322.197887 -92.920877 
L 325.477226 -88.979126 
L 328.756565 -88.014332 
L 332.035904 -84.368528 
L 335.315243 -88.12492 
L 338.594582 -86.527221 
L 341.87392 -80.052126 
L 345.153259 -76.280959 
L 348.432598 -78.895079 
L 351.711937 -76.443323 
L 354.991276 -71.525367 
L 358.270615 -71.834759 
L 361.549954 -69.81282 
L 364.829292 -68.506549 
L 368.108631 -64.108075 
L 371.38797 -67.142365 
L 374.667309 -63.080728 
L 377.946648 -59.784656 
L 377.946648 -250.121192 
L 377.946648 -250.121192 
L 374.667309 -247.351431 
L 371.38797 -248.186548 
L 368.108631 -250.509388 
L 364.829292 -250.70058 
L 361.549954 -252.367896 
L 358.270615 -256.118593 
L 354.991276 -257.840017 
L 351.711937 -262.318974 
L 348.432598 -262.39807 
L 345.153259 -262.022974 
L 341.87392 -268.34411 
L 338.594582 -270.432702 
L 335.315243 -274.973552 
L 332.035904 -272.651567 
L 328.756565 -275.276313 
L 325.477226 -278.190713 
L 322.197887 -278.037883 
L 318.918549 -279.027291 
L 315.63921 -284.270791 
L 312.359871 -282.268722 
L 309.080532 -280.246135 
L 305.801193 -283.389597 
L 302.521854 -284.924436 
L 299.242515 -284.49008 
L 295.963177 -284.913225 
L 292.683838 -285.004227 
L 289.404499 -285.799114 
L 286.12516 -283.697264 
L 282.845821 -283.109358 
L 279.566482 -281.388663 
L 276.287144 -281.176156 
L 273.007805 -278.76467 
L 269.728466 -273.843925 
L 266.449127 -275.578708 
L 263.169788 -272.578829 
L 259.890449 -271.069149 
L 256.611111 -266.381305 
L 253.331772 -260.915245 
L 250.052433 -262.759953 
L 246.773094 -260.555201 
L 243.493755 -254.99451 
L 240.214416 -253.982089 
L 236.935077 -255.775325 
L 233.655739 -254.773183 
L 230.3764 -250.861562 
L 227.097061 -251.652695 
L 223.817722 -246.910711 
L 220.538383 -250.845207 
L 217.259044 -245.555155 
L 213.979706 -247.145356 
L 210.700367 -242.771051 
L 207.421028 -245.082457 
L 204.141689 -245.390487 
L 200.86235 -250.561798 
L 197.583011 -243.806817 
L 194.303673 -248.820352 
L 191.024334 -245.720388 
L 187.744995 -248.488021 
L 184.465656 -248.672698 
L 181.186317 -252.13921 
L 177.906978 -251.116279 
L 174.627639 -253.331515 
L 171.348301 -255.120406 
L 168.068962 -256.111835 
L 164.789623 -257.682812 
L 161.510284 -257.591836 
L 158.230945 -261.545784 
L 154.951606 -261.241675 
L 151.672268 -263.965483 
L 148.392929 -269.289463 
L 145.11359 -269.079354 
L 141.834251 -270.598506 
L 138.554912 -272.596866 
L 135.275573 -277.410669 
L 131.996235 -278.584659 
L 128.716896 -277.825243 
L 125.437557 -280.932252 
L 122.158218 -281.220161 
L 118.878879 -282.239436 
L 115.59954 -288.566 
L 112.320201 -284.959245 
L 109.040863 -286.154584 
L 105.761524 -284.831171 
L 102.482185 -283.713824 
L 99.202846 -285.966007 
L 95.923507 -283.064786 
L 92.644168 -279.2338 
L 89.36483 -283.095945 
L 86.085491 -280.690344 
L 82.806152 -277.199297 
L 79.526813 -277.497907 
L 76.247474 -278.401875 
L 72.968135 -276.924198 
L 69.688796 -275.738874 
L 66.409458 -271.74218 
L 63.130119 -272.6116 
L 59.85078 -270.053623 
L 56.571441 -265.875882 
L 53.292102 -264.320104 
z
" style="stroke: #008000; stroke-opacity: 0.5"/>
    </defs>
    <g clip-path="url(#p62a180d02e)">
     <use xlink:href="#m725080e7bb" x="0" y="309.612" style="fill: #008000; fill-opacity: 0.5; stroke: #008000; stroke-opacity: 0.5"/>
    </g>
   </g>
   <g id="PathCollection_1">
    <defs>
     <path id="mc1192b1ca8" d="M 0 3 
C 0.795609 3 1.55874 2.683901 2.12132 2.12132 
C 2.683901 1.55874 3 0.795609 3 0 
C 3 -0.795609 2.683901 -1.55874 2.12132 -2.12132 
C 1.55874 -2.683901 0.795609 -3 0 -3 
C -0.795609 -3 -1.55874 -2.683901 -2.12132 -2.12132 
C -2.683901 -1.55874 -3 -0.795609 -3 0 
C -3 0.795609 -2.683901 1.55874 -2.12132 2.12132 
C -1.55874 2.683901 -0.795609 3 0 3 
z
" style="stroke: #008fd5"/>
    </defs>
    <g clip-path="url(#p62a180d02e)">
     <use xlink:href="#mc1192b1ca8" x="174.888254" y="24.699896" style="fill: #008fd5; stroke: #008fd5"/>
     <use xlink:href="#mc1192b1ca8" x="361.945823" y="152.977946" style="fill: #008fd5; stroke: #008fd5"/>
     <use xlink:href="#mc1192b1ca8" x="290.937263" y="113.13321" style="fill: #008fd5; stroke: #008fd5"/>
     <use xlink:href="#mc1192b1ca8" x="247.6493" y="154.086699" style="fill: #008fd5; stroke: #008fd5"/>
     <use xlink:href="#mc1192b1ca8" x="103.944263" y="164.174663" style="fill: #008fd5; stroke: #008fd5"/>
     <use xlink:href="#mc1192b1ca8" x="103.936432" y="135.462198" style="fill: #008fd5; stroke: #008fd5"/>
     <use xlink:href="#mc1192b1ca8" x="72.149211" y="140.182671" style="fill: #008fd5; stroke: #008fd5"/>
     <use xlink:href="#mc1192b1ca8" x="334.500125" y="90.393056" style="fill: #008fd5; stroke: #008fd5"/>
     <use xlink:href="#mc1192b1ca8" x="248.446823" y="128.811233" style="fill: #008fd5; stroke: #008fd5"/>
     <use xlink:href="#mc1192b1ca8" x="283.171083" y="178.105134" style="fill: #008fd5; stroke: #008fd5"/>
     <use xlink:href="#mc1192b1ca8" x="59.974952" y="122.66289" style="fill: #008fd5; stroke: #008fd5"/>
     <use xlink:href="#mc1192b1ca8" x="368.177744" y="179.553199" style="fill: #008fd5; stroke: #008fd5"/>
     <use xlink:href="#mc1192b1ca8" x="323.548389" y="145.695057" style="fill: #008fd5; stroke: #008fd5"/>
     <use xlink:href="#mc1192b1ca8" x="122.22896" y="92.007668" style="fill: #008fd5; stroke: #008fd5"/>
     <use xlink:href="#mc1192b1ca8" x="112.322404" y="71.009052" style="fill: #008fd5; stroke: #008fd5"/>
     <use xlink:href="#mc1192b1ca8" x="112.83521" y="74.9716" style="fill: #008fd5; stroke: #008fd5"/>
     <use xlink:href="#mc1192b1ca8" x="152.065729" y="175.485592" style="fill: #008fd5; stroke: #008fd5"/>
     <use xlink:href="#mc1192b1ca8" x="223.656663" y="178.06066" style="fill: #008fd5; stroke: #008fd5"/>
     <use xlink:href="#mc1192b1ca8" x="193.525016" y="163.129728" style="fill: #008fd5; stroke: #008fd5"/>
     <use xlink:href="#mc1192b1ca8" x="147.840966" y="102.169875" style="fill: #008fd5; stroke: #008fd5"/>
     <use xlink:href="#mc1192b1ca8" x="251.932926" y="156.130433" style="fill: #008fd5; stroke: #008fd5"/>
     <use xlink:href="#mc1192b1ca8" x="98.579418" y="115.384969" style="fill: #008fd5; stroke: #008fd5"/>
     <use xlink:href="#mc1192b1ca8" x="148.13819" y="181.283282" style="fill: #008fd5; stroke: #008fd5"/>
     <use xlink:href="#mc1192b1ca8" x="172.23314" y="209.293205" style="fill: #008fd5; stroke: #008fd5"/>
     <use xlink:href="#mc1192b1ca8" x="201.357296" y="145.454697" style="fill: #008fd5; stroke: #008fd5"/>
     <use xlink:href="#mc1192b1ca8" x="308.203047" y="59.111162" style="fill: #008fd5; stroke: #008fd5"/>
     <use xlink:href="#mc1192b1ca8" x="118.117103" y="115.383231" style="fill: #008fd5; stroke: #008fd5"/>
     <use xlink:href="#mc1192b1ca8" x="220.24065" y="130.875412" style="fill: #008fd5; stroke: #008fd5"/>
     <use xlink:href="#mc1192b1ca8" x="245.622185" y="131.229758" style="fill: #008fd5; stroke: #008fd5"/>
     <use xlink:href="#mc1192b1ca8" x="68.37244" y="150.705247" style="fill: #008fd5; stroke: #008fd5"/>
     <use xlink:href="#mc1192b1ca8" x="250.5343" y="125.847865" style="fill: #008fd5; stroke: #008fd5"/>
     <use xlink:href="#mc1192b1ca8" x="108.653534" y="50.729984" style="fill: #008fd5; stroke: #008fd5"/>
     <use xlink:href="#mc1192b1ca8" x="74.411398" y="122.119787" style="fill: #008fd5; stroke: #008fd5"/>
     <use xlink:href="#mc1192b1ca8" x="361.352105" y="99.684309" style="fill: #008fd5; stroke: #008fd5"/>
     <use xlink:href="#mc1192b1ca8" x="366.788931" y="262.966" style="fill: #008fd5; stroke: #008fd5"/>
     <use xlink:href="#mc1192b1ca8" x="315.741976" y="83.221011" style="fill: #008fd5; stroke: #008fd5"/>
     <use xlink:href="#mc1192b1ca8" x="152.186347" y="140.56377" style="fill: #008fd5; stroke: #008fd5"/>
     <use xlink:href="#mc1192b1ca8" x="85.001798" y="124.455751" style="fill: #008fd5; stroke: #008fd5"/>
     <use xlink:href="#mc1192b1ca8" x="275.431464" y="112.443641" style="fill: #008fd5; stroke: #008fd5"/>
     <use xlink:href="#mc1192b1ca8" x="196.18961" y="251.311252" style="fill: #008fd5; stroke: #008fd5"/>
     <use xlink:href="#mc1192b1ca8" x="92.91237" y="117.916014" style="fill: #008fd5; stroke: #008fd5"/>
     <use xlink:href="#mc1192b1ca8" x="214.053537" y="159.017415" style="fill: #008fd5; stroke: #008fd5"/>
     <use xlink:href="#mc1192b1ca8" x="64.456492" y="74.280384" style="fill: #008fd5; stroke: #008fd5"/>
     <use xlink:href="#mc1192b1ca8" x="348.507104" y="165.14593" style="fill: #008fd5; stroke: #008fd5"/>
     <use xlink:href="#mc1192b1ca8" x="137.3062" y="158.560308" style="fill: #008fd5; stroke: #008fd5"/>
     <use xlink:href="#mc1192b1ca8" x="268.382973" y="140.461036" style="fill: #008fd5; stroke: #008fd5"/>
     <use xlink:href="#mc1192b1ca8" x="154.49052" y="111.736561" style="fill: #008fd5; stroke: #008fd5"/>
     <use xlink:href="#mc1192b1ca8" x="222.134549" y="155.067002" style="fill: #008fd5; stroke: #008fd5"/>
     <use xlink:href="#mc1192b1ca8" x="230.78408" y="180.297633" style="fill: #008fd5; stroke: #008fd5"/>
     <use xlink:href="#mc1192b1ca8" x="113.305942" y="90.972084" style="fill: #008fd5; stroke: #008fd5"/>
    </g>
   </g>
   <g id="matplotlib.axis_1">
    <g id="xtick_1">
     <g id="line2d_1">
      <defs>
       <path id="m15458fa561" d="M 0 1.75 
L 0 -1.75 
" style="stroke: #000000; stroke-width: 0.8"/>
      </defs>
      <g>
       <use xlink:href="#m15458fa561" x="53.292102" y="275.062" style="stroke: #000000; stroke-width: 0.8"/>
      </g>
     </g>
     <g id="line2d_2">
      <g>
       <use xlink:href="#m15458fa561" x="53.292102" y="8.95" style="stroke: #000000; stroke-width: 0.8"/>
      </g>
     </g>
     <g id="text_1">
      <!-- 0 -->
      <g transform="translate(50.512415 287.452625)scale(0.1 -0.1)">
       <defs>
        <path id="HelveticaNeue-Medium-30" d="M 1779 518 
C 1139 518 960 1306 960 2240 
C 960 3174 1139 3962 1779 3962 
C 2419 3962 2598 3174 2598 2240 
C 2598 1306 2419 518 1779 518 
z
M 1779 4570 
C 493 4570 230 3258 230 2240 
C 230 1222 493 -90 1779 -90 
C 3066 -90 3328 1222 3328 2240 
C 3328 3258 3066 4570 1779 4570 
z
" transform="scale(0.015625)"/>
       </defs>
       <use xlink:href="#HelveticaNeue-Medium-30"/>
      </g>
     </g>
    </g>
    <g id="xtick_2">
     <g id="line2d_3">
      <g>
       <use xlink:href="#m15458fa561" x="118.223011" y="275.062" style="stroke: #000000; stroke-width: 0.8"/>
      </g>
     </g>
     <g id="line2d_4">
      <g>
       <use xlink:href="#m15458fa561" x="118.223011" y="8.95" style="stroke: #000000; stroke-width: 0.8"/>
      </g>
     </g>
     <g id="text_2">
      <!-- 1 -->
      <g transform="translate(115.443324 287.452625)scale(0.1 -0.1)">
       <defs>
        <path id="HelveticaNeue-Medium-31" d="M 339 3162 
L 1440 3162 
L 1440 0 
L 2240 0 
L 2240 4480 
L 1645 4480 
C 1536 3942 954 3731 339 3738 
L 339 3162 
z
" transform="scale(0.015625)"/>
       </defs>
       <use xlink:href="#HelveticaNeue-Medium-31"/>
      </g>
     </g>
    </g>
    <g id="xtick_3">
     <g id="line2d_5">
      <g>
       <use xlink:href="#m15458fa561" x="183.15392" y="275.062" style="stroke: #000000; stroke-width: 0.8"/>
      </g>
     </g>
     <g id="line2d_6">
      <g>
       <use xlink:href="#m15458fa561" x="183.15392" y="8.95" style="stroke: #000000; stroke-width: 0.8"/>
      </g>
     </g>
     <g id="text_3">
      <!-- 2 -->
      <g transform="translate(180.374233 287.452625)scale(0.1 -0.1)">
       <defs>
        <path id="HelveticaNeue-Medium-32" d="M 3309 653 
L 1126 653 
C 1254 1050 1798 1325 2317 1683 
C 2829 2042 3315 2483 3315 3194 
C 3315 3770 2970 4570 1875 4570 
C 877 4570 333 3834 333 2842 
L 1062 2842 
C 1082 3469 1254 3962 1830 3962 
C 2458 3962 2592 3488 2586 3168 
C 2573 2470 1818 2118 1235 1696 
C 634 1293 256 736 250 0 
L 3309 0 
L 3309 653 
z
" transform="scale(0.015625)"/>
       </defs>
       <use xlink:href="#HelveticaNeue-Medium-32"/>
      </g>
     </g>
    </g>
    <g id="xtick_4">
     <g id="line2d_7">
      <g>
       <use xlink:href="#m15458fa561" x="248.08483" y="275.062" style="stroke: #000000; stroke-width: 0.8"/>
      </g>
     </g>
     <g id="line2d_8">
      <g>
       <use xlink:href="#m15458fa561" x="248.08483" y="8.95" style="stroke: #000000; stroke-width: 0.8"/>
      </g>
     </g>
     <g id="text_4">
      <!-- 3 -->
      <g transform="translate(245.305142 287.452625)scale(0.1 -0.1)">
       <defs>
        <path id="HelveticaNeue-Medium-33" d="M 1459 2080 
C 2035 2106 2630 2016 2630 1318 
C 2630 806 2259 518 1773 518 
C 1203 518 909 928 928 1472 
L 198 1472 
C 218 538 736 -90 1773 -90 
C 2630 -90 3360 435 3360 1280 
C 3360 1856 3053 2298 2547 2400 
L 2547 2413 
C 2976 2566 3181 2925 3181 3373 
C 3181 4166 2464 4570 1766 4570 
C 864 4570 320 3917 282 3046 
L 1011 3046 
C 998 3507 1248 3962 1754 3962 
C 2157 3962 2451 3706 2451 3328 
C 2451 2778 1946 2605 1459 2624 
L 1459 2080 
z
" transform="scale(0.015625)"/>
       </defs>
       <use xlink:href="#HelveticaNeue-Medium-33"/>
      </g>
     </g>
    </g>
    <g id="xtick_5">
     <g id="line2d_9">
      <g>
       <use xlink:href="#m15458fa561" x="313.015739" y="275.062" style="stroke: #000000; stroke-width: 0.8"/>
      </g>
     </g>
     <g id="line2d_10">
      <g>
       <use xlink:href="#m15458fa561" x="313.015739" y="8.95" style="stroke: #000000; stroke-width: 0.8"/>
      </g>
     </g>
     <g id="text_5">
      <!-- 4 -->
      <g transform="translate(310.236051 287.452625)scale(0.1 -0.1)">
       <defs>
        <path id="HelveticaNeue-Medium-34" d="M 3341 1638 
L 2765 1638 
L 2765 4480 
L 2074 4480 
L 154 1786 
L 154 1062 
L 2074 1062 
L 2074 0 
L 2765 0 
L 2765 1062 
L 3341 1062 
L 3341 1638 
z
M 2061 3610 
L 2074 3610 
L 2074 1638 
L 717 1638 
L 2061 3610 
z
" transform="scale(0.015625)"/>
       </defs>
       <use xlink:href="#HelveticaNeue-Medium-34"/>
      </g>
     </g>
    </g>
    <g id="xtick_6">
     <g id="line2d_11">
      <g>
       <use xlink:href="#m15458fa561" x="377.946648" y="275.062" style="stroke: #000000; stroke-width: 0.8"/>
      </g>
     </g>
     <g id="line2d_12">
      <g>
       <use xlink:href="#m15458fa561" x="377.946648" y="8.95" style="stroke: #000000; stroke-width: 0.8"/>
      </g>
     </g>
     <g id="text_6">
      <!-- 5 -->
      <g transform="translate(375.16696 287.452625)scale(0.1 -0.1)">
       <defs>
        <path id="HelveticaNeue-Medium-35" d="M 307 2029 
L 1037 2029 
C 1152 2342 1453 2438 1760 2438 
C 2349 2438 2611 1997 2611 1504 
C 2611 960 2400 518 1779 518 
C 1306 518 998 794 954 1274 
L 224 1274 
C 256 378 928 -90 1792 -90 
C 2893 -90 3341 800 3341 1517 
C 3341 2374 2829 3014 1939 3014 
C 1638 3014 1312 2893 1114 2675 
L 1101 2688 
L 1331 3827 
L 3104 3827 
L 3104 4480 
L 787 4480 
L 307 2029 
z
" transform="scale(0.015625)"/>
       </defs>
       <use xlink:href="#HelveticaNeue-Medium-35"/>
      </g>
     </g>
    </g>
    <g id="text_7">
     <!-- x -->
     <g transform="translate(212.934219 300.502625)scale(0.1 -0.1)">
      <defs>
       <path id="HelveticaNeue-Medium-78" d="M 26 0 
L 883 0 
L 1696 1222 
L 2534 0 
L 3411 0 
L 2144 1779 
L 3270 3309 
L 2426 3309 
L 1702 2291 
L 1011 3309 
L 128 3309 
L 1274 1741 
L 26 0 
z
" transform="scale(0.015625)"/>
      </defs>
      <use xlink:href="#HelveticaNeue-Medium-78"/>
     </g>
    </g>
   </g>
   <g id="matplotlib.axis_2">
    <g id="ytick_1">
     <g id="line2d_13">
      <defs>
       <path id="m527b6c6dac" d="M 1.75 0 
L -1.75 -0 
" style="stroke: #000000; stroke-width: 0.8"/>
      </defs>
      <g>
       <use xlink:href="#m527b6c6dac" x="37.059375" y="255.747115" style="stroke: #000000; stroke-width: 0.8"/>
      </g>
     </g>
     <g id="line2d_14">
      <g>
       <use xlink:href="#m527b6c6dac" x="394.179375" y="255.747115" style="stroke: #000000; stroke-width: 0.8"/>
      </g>
     </g>
     <g id="text_8">
      <!-- −2 -->
      <g transform="translate(20.25 259.317427)scale(0.1 -0.1)">
       <defs>
        <path id="HelveticaNeue-Medium-2212" d="M 3533 1293 
L 3533 1946 
L 307 1946 
L 307 1293 
L 3533 1293 
z
" transform="scale(0.015625)"/>
       </defs>
       <use xlink:href="#HelveticaNeue-Medium-2212"/>
       <use xlink:href="#HelveticaNeue-Medium-32" x="59.999985"/>
      </g>
     </g>
    </g>
    <g id="ytick_2">
     <g id="line2d_15">
      <g>
       <use xlink:href="#m527b6c6dac" x="37.059375" y="217.902427" style="stroke: #000000; stroke-width: 0.8"/>
      </g>
     </g>
     <g id="line2d_16">
      <g>
       <use xlink:href="#m527b6c6dac" x="394.179375" y="217.902427" style="stroke: #000000; stroke-width: 0.8"/>
      </g>
     </g>
     <g id="text_9">
      <!-- −1 -->
      <g transform="translate(20.25 221.472739)scale(0.1 -0.1)">
       <use xlink:href="#HelveticaNeue-Medium-2212"/>
       <use xlink:href="#HelveticaNeue-Medium-31" x="59.999985"/>
      </g>
     </g>
    </g>
    <g id="ytick_3">
     <g id="line2d_17">
      <g>
       <use xlink:href="#m527b6c6dac" x="37.059375" y="180.057739" style="stroke: #000000; stroke-width: 0.8"/>
      </g>
     </g>
     <g id="line2d_18">
      <g>
       <use xlink:href="#m527b6c6dac" x="394.179375" y="180.057739" style="stroke: #000000; stroke-width: 0.8"/>
      </g>
     </g>
     <g id="text_10">
      <!-- 0 -->
      <g transform="translate(26.25 183.628051)scale(0.1 -0.1)">
       <use xlink:href="#HelveticaNeue-Medium-30"/>
      </g>
     </g>
    </g>
    <g id="ytick_4">
     <g id="line2d_19">
      <g>
       <use xlink:href="#m527b6c6dac" x="37.059375" y="142.213051" style="stroke: #000000; stroke-width: 0.8"/>
      </g>
     </g>
     <g id="line2d_20">
      <g>
       <use xlink:href="#m527b6c6dac" x="394.179375" y="142.213051" style="stroke: #000000; stroke-width: 0.8"/>
      </g>
     </g>
     <g id="text_11">
      <!-- 1 -->
      <g transform="translate(26.25 145.783363)scale(0.1 -0.1)">
       <use xlink:href="#HelveticaNeue-Medium-31"/>
      </g>
     </g>
    </g>
    <g id="ytick_5">
     <g id="line2d_21">
      <g>
       <use xlink:href="#m527b6c6dac" x="37.059375" y="104.368363" style="stroke: #000000; stroke-width: 0.8"/>
      </g>
     </g>
     <g id="line2d_22">
      <g>
       <use xlink:href="#m527b6c6dac" x="394.179375" y="104.368363" style="stroke: #000000; stroke-width: 0.8"/>
      </g>
     </g>
     <g id="text_12">
      <!-- 2 -->
      <g transform="translate(26.25 107.938675)scale(0.1 -0.1)">
       <use xlink:href="#HelveticaNeue-Medium-32"/>
      </g>
     </g>
    </g>
    <g id="ytick_6">
     <g id="line2d_23">
      <g>
       <use xlink:href="#m527b6c6dac" x="37.059375" y="66.523675" style="stroke: #000000; stroke-width: 0.8"/>
      </g>
     </g>
     <g id="line2d_24">
      <g>
       <use xlink:href="#m527b6c6dac" x="394.179375" y="66.523675" style="stroke: #000000; stroke-width: 0.8"/>
      </g>
     </g>
     <g id="text_13">
      <!-- 3 -->
      <g transform="translate(26.25 70.093987)scale(0.1 -0.1)">
       <use xlink:href="#HelveticaNeue-Medium-33"/>
      </g>
     </g>
    </g>
    <g id="ytick_7">
     <g id="line2d_25">
      <g>
       <use xlink:href="#m527b6c6dac" x="37.059375" y="28.678987" style="stroke: #000000; stroke-width: 0.8"/>
      </g>
     </g>
     <g id="line2d_26">
      <g>
       <use xlink:href="#m527b6c6dac" x="394.179375" y="28.678987" style="stroke: #000000; stroke-width: 0.8"/>
      </g>
     </g>
     <g id="text_14">
      <!-- 4 -->
      <g transform="translate(26.25 32.249299)scale(0.1 -0.1)">
       <use xlink:href="#HelveticaNeue-Medium-34"/>
      </g>
     </g>
    </g>
    <g id="text_15">
     <!-- y -->
     <g transform="translate(14.2 144.601312)rotate(-90)scale(0.1 -0.1)">
      <defs>
       <path id="HelveticaNeue-Medium-79" d="M 1274 13 
L 1190 -243 
C 1101 -525 1018 -704 678 -704 
C 563 -704 448 -678 333 -659 
L 333 -1274 
C 499 -1299 666 -1312 838 -1312 
C 1600 -1312 1773 -774 2010 -179 
L 3296 3309 
L 2534 3309 
L 1696 838 
L 1683 838 
L 819 3309 
L 19 3309 
L 1274 13 
z
" transform="scale(0.015625)"/>
      </defs>
      <use xlink:href="#HelveticaNeue-Medium-79"/>
     </g>
    </g>
   </g>
   <g id="line2d_27">
    <path d="M 53.292102 137.902074 
L 56.571441 136.36575 
L 59.85078 133.626012 
L 63.130119 131.402589 
L 66.409458 130.311616 
L 69.688796 127.508248 
L 72.968135 125.201845 
L 76.247474 122.312389 
L 79.526813 122.003714 
L 82.806152 121.495526 
L 86.085491 118.877339 
L 89.36483 117.863002 
L 92.644168 118.560746 
L 95.923507 116.722536 
L 99.202846 116.743203 
L 102.482185 116.30746 
L 105.761524 115.526103 
L 109.040863 115.982312 
L 112.320201 115.707819 
L 115.59954 116.760173 
L 118.878879 118.413161 
L 122.158218 118.570261 
L 125.437557 119.839001 
L 128.716896 121.648333 
L 131.996235 123.401111 
L 135.275573 125.31487 
L 138.554912 126.481696 
L 141.834251 128.015835 
L 145.11359 131.752795 
L 148.392929 132.648245 
L 151.672268 135.372716 
L 154.951606 138.376141 
L 158.230945 140.584167 
L 161.510284 142.363892 
L 164.789623 145.55613 
L 168.068962 147.176072 
L 171.348301 149.862006 
L 174.627639 151.484118 
L 177.906978 153.393973 
L 181.186317 154.694572 
L 184.465656 154.823299 
L 187.744995 157.007818 
L 191.024334 156.619072 
L 194.303673 158.883186 
L 197.583011 159.31274 
L 200.86235 160.196247 
L 204.141689 159.761648 
L 207.421028 158.81859 
L 210.700367 158.569249 
L 213.979706 158.712421 
L 217.259044 157.627621 
L 220.538383 156.189046 
L 223.817722 154.818645 
L 227.097061 153.622797 
L 230.3764 151.152876 
L 233.655739 149.959399 
L 236.935077 147.182979 
L 240.214416 146.368274 
L 243.493755 143.324937 
L 246.773094 141.603802 
L 250.052433 138.01624 
L 253.331772 136.850262 
L 256.611111 133.965943 
L 259.890449 132.22465 
L 263.169788 130.141432 
L 266.449127 126.789913 
L 269.728466 125.571613 
L 273.007805 124.321117 
L 276.287144 123.740082 
L 279.566482 121.850217 
L 282.845821 121.786015 
L 286.12516 120.158739 
L 289.404499 118.747067 
L 292.683838 118.589981 
L 295.963177 117.56187 
L 299.242515 117.712972 
L 302.521854 118.175995 
L 305.801193 118.605783 
L 309.080532 120.328427 
L 312.359871 119.95106 
L 315.63921 120.80929 
L 318.918549 123.144704 
L 322.197887 124.365633 
L 325.477226 125.699797 
L 328.756565 126.778617 
L 332.035904 129.292851 
L 335.315243 131.320742 
L 338.594582 133.326538 
L 341.87392 135.07818 
L 345.153259 138.049324 
L 348.432598 139.63576 
L 351.711937 142.045982 
L 354.991276 144.029962 
L 358.270615 146.641494 
L 361.549954 148.749639 
L 364.829292 149.666709 
L 368.108631 152.950995 
L 371.38797 153.341953 
L 374.667309 155.059502 
L 377.946648 155.714818 
" clip-path="url(#p62a180d02e)" style="fill: none; stroke: #008000; stroke-width: 1.5"/>
   </g>
   <g id="patch_3">
    <path d="M 37.059375 275.062 
L 37.059375 8.95 
" style="fill: none; stroke: #000000; stroke-width: 0.8; stroke-linejoin: miter; stroke-linecap: square"/>
   </g>
   <g id="patch_4">
    <path d="M 394.179375 275.062 
L 394.179375 8.95 
" style="fill: none; stroke: #000000; stroke-width: 0.8; stroke-linejoin: miter; stroke-linecap: square"/>
   </g>
   <g id="patch_5">
    <path d="M 37.059375 275.062 
L 394.179375 275.062 
" style="fill: none; stroke: #000000; stroke-width: 0.8; stroke-linejoin: miter; stroke-linecap: square"/>
   </g>
   <g id="patch_6">
    <path d="M 37.059375 8.95 
L 394.179375 8.95 
" style="fill: none; stroke: #000000; stroke-width: 0.8; stroke-linejoin: miter; stroke-linecap: square"/>
   </g>
  </g>
 </g>
 <defs>
  <clipPath id="p62a180d02e">
   <rect x="37.059375" y="8.95" width="357.12" height="266.112"/>
  </clipPath>
 </defs>
</svg>
