<?xml version="1.0" encoding="utf-8" standalone="no"?>
<!DOCTYPE svg PUBLIC "-//W3C//DTD SVG 1.1//EN"
  "http://www.w3.org/Graphics/SVG/1.1/DTD/svg11.dtd">
<svg xmlns:xlink="http://www.w3.org/1999/xlink" width="567.781219pt" height="567.178125pt" viewBox="0 0 567.781219 567.178125" xmlns="http://www.w3.org/2000/svg" version="1.1">
 <metadata>
  <rdf:RDF xmlns:dc="http://purl.org/dc/elements/1.1/" xmlns:cc="http://creativecommons.org/ns#" xmlns:rdf="http://www.w3.org/1999/02/22-rdf-syntax-ns#">
   <cc:Work>
    <dc:type rdf:resource="http://purl.org/dc/dcmitype/StillImage"/>
    <dc:date>2024-05-29T23:51:57.277130</dc:date>
    <dc:format>image/svg+xml</dc:format>
    <dc:creator>
     <cc:Agent>
      <dc:title>Matplotlib v3.9.0, https://matplotlib.org/</dc:title>
     </cc:Agent>
    </dc:creator>
   </cc:Work>
  </rdf:RDF>
 </metadata>
 <defs>
  <style type="text/css">*{stroke-linejoin: round; stroke-linecap: butt}</style>
 </defs>
 <g id="figure_1">
  <g id="patch_1">
   <path d="M 0 567.178125 
L 567.781219 567.178125 
L 567.781219 0 
L 0 0 
z
" style="fill: #ffffff"/>
  </g>
  <g id="axes_1">
   <g id="patch_2">
    <path d="M 39.69 525.85 
L 300.135609 525.85 
L 300.135609 266.525 
L 39.69 266.525 
z
" style="fill: #ffffff"/>
   </g>
   <g id="matplotlib.axis_1">
    <g id="xtick_1">
     <g id="line2d_1">
      <defs>
       <path id="m48fa0afdef" d="M 0 0 
L 0 -3.5 
" style="stroke: #000000; stroke-width: 0.8"/>
      </defs>
      <g>
       <use xlink:href="#m48fa0afdef" x="112.427048" y="525.85" style="stroke: #000000; stroke-width: 0.8"/>
      </g>
     </g>
     <g id="line2d_2">
      <defs>
       <path id="mc3005ecfed" d="M 0 0 
L 0 3.5 
" style="stroke: #000000; stroke-width: 0.8"/>
      </defs>
      <g>
       <use xlink:href="#mc3005ecfed" x="112.427048" y="266.525" style="stroke: #000000; stroke-width: 0.8"/>
      </g>
     </g>
     <g id="text_1">
      <!-- $\mathdefault{−10}$ -->
      <g transform="translate(102.967048 537.204687) scale(0.11 -0.11)">
       <defs>
        <path id="HelveticaNeue-Medium-2212" d="M 307 1293 
L 307 1946 
L 3533 1946 
L 3533 1293 
L 307 1293 
z
" transform="scale(0.015625)"/>
        <path id="HelveticaNeue-Medium-31" d="M 339 3738 
Q 570 3738 787 3776 
Q 1005 3814 1181 3904 
Q 1357 3994 1481 4134 
Q 1606 4275 1645 4480 
L 2240 4480 
L 2240 0 
L 1440 0 
L 1440 3162 
L 339 3162 
L 339 3738 
z
" transform="scale(0.015625)"/>
        <path id="HelveticaNeue-Medium-30" d="M 1779 4570 
Q 2259 4570 2563 4349 
Q 2867 4128 3036 3785 
Q 3206 3443 3267 3033 
Q 3328 2624 3328 2240 
Q 3328 1856 3267 1446 
Q 3206 1037 3036 694 
Q 2867 352 2563 131 
Q 2259 -90 1779 -90 
Q 1299 -90 995 131 
Q 691 352 521 694 
Q 352 1037 291 1446 
Q 230 1856 230 2240 
Q 230 2624 291 3033 
Q 352 3443 521 3785 
Q 691 4128 995 4349 
Q 1299 4570 1779 4570 
z
M 1779 518 
Q 2016 518 2176 656 
Q 2336 794 2429 1027 
Q 2522 1261 2560 1574 
Q 2598 1888 2598 2240 
Q 2598 2592 2560 2902 
Q 2522 3213 2429 3449 
Q 2336 3686 2176 3824 
Q 2016 3962 1779 3962 
Q 1536 3962 1379 3824 
Q 1222 3686 1129 3449 
Q 1037 3213 998 2902 
Q 960 2592 960 2240 
Q 960 1888 998 1574 
Q 1037 1261 1129 1027 
Q 1222 794 1379 656 
Q 1536 518 1779 518 
z
" transform="scale(0.015625)"/>
       </defs>
       <use xlink:href="#HelveticaNeue-Medium-2212" transform="translate(0 0.59375)"/>
       <use xlink:href="#HelveticaNeue-Medium-31" transform="translate(59.999985 0.59375)"/>
       <use xlink:href="#HelveticaNeue-Medium-30" transform="translate(115.599976 0.59375)"/>
      </g>
     </g>
    </g>
    <g id="xtick_2">
     <g id="line2d_3">
      <g>
       <use xlink:href="#m48fa0afdef" x="179.361523" y="525.85" style="stroke: #000000; stroke-width: 0.8"/>
      </g>
     </g>
     <g id="line2d_4">
      <g>
       <use xlink:href="#mc3005ecfed" x="179.361523" y="266.525" style="stroke: #000000; stroke-width: 0.8"/>
      </g>
     </g>
     <g id="text_2">
      <!-- $\mathdefault{0}$ -->
      <g transform="translate(176.281523 537.204687) scale(0.11 -0.11)">
       <use xlink:href="#HelveticaNeue-Medium-30" transform="translate(0 0.59375)"/>
      </g>
     </g>
    </g>
    <g id="xtick_3">
     <g id="line2d_5">
      <g>
       <use xlink:href="#m48fa0afdef" x="246.295997" y="525.85" style="stroke: #000000; stroke-width: 0.8"/>
      </g>
     </g>
     <g id="line2d_6">
      <g>
       <use xlink:href="#mc3005ecfed" x="246.295997" y="266.525" style="stroke: #000000; stroke-width: 0.8"/>
      </g>
     </g>
     <g id="text_3">
      <!-- $\mathdefault{10}$ -->
      <g transform="translate(240.135997 537.204687) scale(0.11 -0.11)">
       <use xlink:href="#HelveticaNeue-Medium-31" transform="translate(0 0.59375)"/>
       <use xlink:href="#HelveticaNeue-Medium-30" transform="translate(55.599991 0.59375)"/>
      </g>
     </g>
    </g>
    <g id="text_4">
     <!-- mean -->
     <g transform="translate(152.021242 557.305) scale(0.14 -0.14)">
      <defs>
       <path id="HelveticaNeue-Medium-6d" d="M 384 3309 
L 1075 3309 
L 1075 2848 
L 1094 2848 
Q 1178 2970 1274 3072 
Q 1370 3174 1488 3244 
Q 1606 3315 1760 3356 
Q 1914 3398 2112 3398 
Q 2413 3398 2672 3264 
Q 2931 3130 3040 2848 
Q 3226 3104 3469 3251 
Q 3712 3398 4077 3398 
Q 4602 3398 4893 3142 
Q 5184 2886 5184 2285 
L 5184 0 
L 4454 0 
L 4454 1933 
Q 4454 2131 4441 2294 
Q 4429 2458 4368 2576 
Q 4307 2694 4185 2758 
Q 4064 2822 3853 2822 
Q 3482 2822 3315 2592 
Q 3149 2362 3149 1939 
L 3149 0 
L 2419 0 
L 2419 2125 
Q 2419 2470 2294 2646 
Q 2170 2822 1837 2822 
Q 1696 2822 1565 2764 
Q 1434 2707 1334 2598 
Q 1235 2490 1174 2330 
Q 1114 2170 1114 1965 
L 1114 0 
L 384 0 
L 384 3309 
z
" transform="scale(0.015625)"/>
       <path id="HelveticaNeue-Medium-65" d="M 2656 1946 
Q 2643 2118 2582 2278 
Q 2522 2438 2416 2556 
Q 2310 2675 2160 2748 
Q 2010 2822 1824 2822 
Q 1632 2822 1475 2755 
Q 1318 2688 1206 2569 
Q 1094 2451 1027 2291 
Q 960 2131 954 1946 
L 2656 1946 
z
M 954 1466 
Q 954 1274 1008 1094 
Q 1062 915 1171 780 
Q 1280 646 1446 566 
Q 1613 486 1843 486 
Q 2163 486 2358 624 
Q 2554 762 2650 1037 
L 3341 1037 
Q 3283 768 3142 557 
Q 3002 346 2803 202 
Q 2605 58 2358 -16 
Q 2112 -90 1843 -90 
Q 1453 -90 1152 38 
Q 851 166 643 396 
Q 435 627 329 947 
Q 224 1267 224 1651 
Q 224 2003 336 2320 
Q 448 2637 656 2877 
Q 864 3117 1158 3257 
Q 1453 3398 1824 3398 
Q 2214 3398 2524 3235 
Q 2835 3072 3040 2803 
Q 3245 2534 3337 2185 
Q 3430 1837 3386 1466 
L 954 1466 
z
" transform="scale(0.015625)"/>
       <path id="HelveticaNeue-Medium-61" d="M 3155 736 
Q 3155 602 3190 544 
Q 3226 486 3328 486 
Q 3360 486 3405 486 
Q 3450 486 3507 499 
L 3507 -6 
Q 3469 -19 3408 -35 
Q 3347 -51 3283 -64 
Q 3219 -77 3155 -83 
Q 3091 -90 3046 -90 
Q 2822 -90 2675 0 
Q 2528 90 2483 314 
Q 2266 102 1949 6 
Q 1632 -90 1338 -90 
Q 1114 -90 909 -29 
Q 704 32 547 150 
Q 390 269 297 451 
Q 205 634 205 877 
Q 205 1184 317 1376 
Q 429 1568 611 1677 
Q 794 1786 1021 1834 
Q 1248 1882 1478 1907 
Q 1677 1946 1856 1962 
Q 2035 1978 2172 2016 
Q 2310 2054 2390 2134 
Q 2470 2214 2470 2374 
Q 2470 2515 2403 2604 
Q 2336 2694 2237 2742 
Q 2138 2790 2016 2806 
Q 1894 2822 1786 2822 
Q 1478 2822 1280 2694 
Q 1082 2566 1056 2298 
L 326 2298 
Q 346 2618 480 2829 
Q 614 3040 822 3168 
Q 1030 3296 1292 3347 
Q 1555 3398 1830 3398 
Q 2074 3398 2310 3347 
Q 2547 3296 2736 3181 
Q 2925 3066 3040 2883 
Q 3155 2701 3155 2438 
L 3155 736 
z
M 2426 1658 
Q 2259 1549 2016 1526 
Q 1773 1504 1530 1459 
Q 1414 1440 1305 1405 
Q 1197 1370 1113 1309 
Q 1030 1248 982 1149 
Q 934 1050 934 909 
Q 934 787 1004 704 
Q 1075 621 1174 573 
Q 1274 525 1392 505 
Q 1510 486 1606 486 
Q 1728 486 1869 518 
Q 2010 550 2134 627 
Q 2259 704 2342 822 
Q 2426 941 2426 1114 
L 2426 1658 
z
" transform="scale(0.015625)"/>
       <path id="HelveticaNeue-Medium-6e" d="M 384 3309 
L 1075 3309 
L 1075 2822 
L 1088 2810 
Q 1254 3085 1523 3241 
Q 1792 3398 2118 3398 
Q 2662 3398 2976 3116 
Q 3290 2835 3290 2272 
L 3290 0 
L 2560 0 
L 2560 2080 
Q 2547 2470 2393 2646 
Q 2240 2822 1914 2822 
Q 1728 2822 1581 2755 
Q 1434 2688 1331 2569 
Q 1229 2451 1171 2291 
Q 1114 2131 1114 1952 
L 1114 0 
L 384 0 
L 384 3309 
z
" transform="scale(0.015625)"/>
      </defs>
      <use xlink:href="#HelveticaNeue-Medium-6d"/>
      <use xlink:href="#HelveticaNeue-Medium-65" x="86.999985"/>
      <use xlink:href="#HelveticaNeue-Medium-61" x="142.599976"/>
      <use xlink:href="#HelveticaNeue-Medium-6e" x="198.199966"/>
     </g>
    </g>
   </g>
   <g id="matplotlib.axis_2">
    <g id="ytick_1">
     <g id="line2d_7">
      <defs>
       <path id="m5f1d5f4aa3" d="M 0 0 
L 3.5 0 
" style="stroke: #000000; stroke-width: 0.8"/>
      </defs>
      <g>
       <use xlink:href="#m5f1d5f4aa3" x="39.69" y="511.304013" style="stroke: #000000; stroke-width: 0.8"/>
      </g>
     </g>
     <g id="line2d_8">
      <defs>
       <path id="md93f773dea" d="M 0 0 
L -3.5 0 
" style="stroke: #000000; stroke-width: 0.8"/>
      </defs>
      <g>
       <use xlink:href="#md93f773dea" x="300.135609" y="511.304013" style="stroke: #000000; stroke-width: 0.8"/>
      </g>
     </g>
     <g id="text_5">
      <!-- $\mathdefault{0}$ -->
      <g transform="translate(30.03 515.231357) scale(0.11 -0.11)">
       <use xlink:href="#HelveticaNeue-Medium-30" transform="translate(0 0.59375)"/>
      </g>
     </g>
    </g>
    <g id="ytick_2">
     <g id="line2d_9">
      <g>
       <use xlink:href="#m5f1d5f4aa3" x="39.69" y="444.506855" style="stroke: #000000; stroke-width: 0.8"/>
      </g>
     </g>
     <g id="line2d_10">
      <g>
       <use xlink:href="#md93f773dea" x="300.135609" y="444.506855" style="stroke: #000000; stroke-width: 0.8"/>
      </g>
     </g>
     <g id="text_6">
      <!-- $\mathdefault{10}$ -->
      <g transform="translate(23.87 448.434198) scale(0.11 -0.11)">
       <use xlink:href="#HelveticaNeue-Medium-31" transform="translate(0 0.59375)"/>
       <use xlink:href="#HelveticaNeue-Medium-30" transform="translate(55.599991 0.59375)"/>
      </g>
     </g>
    </g>
    <g id="ytick_3">
     <g id="line2d_11">
      <g>
       <use xlink:href="#m5f1d5f4aa3" x="39.69" y="377.709696" style="stroke: #000000; stroke-width: 0.8"/>
      </g>
     </g>
     <g id="line2d_12">
      <g>
       <use xlink:href="#md93f773dea" x="300.135609" y="377.709696" style="stroke: #000000; stroke-width: 0.8"/>
      </g>
     </g>
     <g id="text_7">
      <!-- $\mathdefault{20}$ -->
      <g transform="translate(23.87 381.63704) scale(0.11 -0.11)">
       <defs>
        <path id="HelveticaNeue-Medium-32" d="M 3309 0 
L 250 0 
Q 256 557 518 973 
Q 781 1389 1235 1696 
Q 1453 1856 1689 2006 
Q 1926 2157 2124 2329 
Q 2323 2502 2451 2704 
Q 2579 2906 2586 3168 
Q 2586 3290 2557 3427 
Q 2528 3565 2445 3683 
Q 2362 3802 2214 3882 
Q 2067 3962 1830 3962 
Q 1613 3962 1469 3875 
Q 1325 3789 1238 3638 
Q 1152 3488 1110 3283 
Q 1069 3078 1062 2842 
L 333 2842 
Q 333 3213 432 3529 
Q 531 3846 729 4076 
Q 928 4307 1213 4438 
Q 1498 4570 1875 4570 
Q 2285 4570 2560 4435 
Q 2835 4301 3004 4096 
Q 3174 3891 3244 3651 
Q 3315 3411 3315 3194 
Q 3315 2925 3232 2707 
Q 3149 2490 3008 2307 
Q 2867 2125 2688 1971 
Q 2509 1818 2317 1683 
Q 2125 1549 1933 1427 
Q 1741 1306 1577 1184 
Q 1414 1062 1292 931 
Q 1171 800 1126 653 
L 3309 653 
L 3309 0 
z
" transform="scale(0.015625)"/>
       </defs>
       <use xlink:href="#HelveticaNeue-Medium-32" transform="translate(0 0.59375)"/>
       <use xlink:href="#HelveticaNeue-Medium-30" transform="translate(55.599991 0.59375)"/>
      </g>
     </g>
    </g>
    <g id="ytick_4">
     <g id="line2d_13">
      <g>
       <use xlink:href="#m5f1d5f4aa3" x="39.69" y="310.912538" style="stroke: #000000; stroke-width: 0.8"/>
      </g>
     </g>
     <g id="line2d_14">
      <g>
       <use xlink:href="#md93f773dea" x="300.135609" y="310.912538" style="stroke: #000000; stroke-width: 0.8"/>
      </g>
     </g>
     <g id="text_8">
      <!-- $\mathdefault{30}$ -->
      <g transform="translate(23.87 314.839882) scale(0.11 -0.11)">
       <defs>
        <path id="HelveticaNeue-Medium-33" d="M 1459 2624 
Q 1638 2618 1817 2650 
Q 1997 2682 2137 2762 
Q 2278 2842 2364 2982 
Q 2451 3123 2451 3328 
Q 2451 3616 2256 3789 
Q 2061 3962 1754 3962 
Q 1562 3962 1421 3885 
Q 1280 3808 1187 3677 
Q 1094 3546 1049 3382 
Q 1005 3219 1011 3046 
L 282 3046 
Q 294 3373 403 3651 
Q 512 3930 701 4134 
Q 890 4339 1158 4454 
Q 1427 4570 1766 4570 
Q 2029 4570 2281 4493 
Q 2534 4416 2736 4269 
Q 2938 4122 3059 3894 
Q 3181 3667 3181 3373 
Q 3181 3034 3027 2781 
Q 2874 2528 2547 2413 
L 2547 2400 
Q 2931 2323 3145 2019 
Q 3360 1715 3360 1280 
Q 3360 960 3232 707 
Q 3104 454 2886 278 
Q 2669 102 2381 6 
Q 2093 -90 1773 -90 
Q 1382 -90 1091 22 
Q 800 134 605 339 
Q 410 544 307 832 
Q 205 1120 198 1472 
L 928 1472 
Q 915 1062 1129 790 
Q 1344 518 1773 518 
Q 2138 518 2384 726 
Q 2630 934 2630 1318 
Q 2630 1581 2528 1734 
Q 2426 1888 2259 1968 
Q 2093 2048 1885 2067 
Q 1677 2086 1459 2080 
L 1459 2624 
z
" transform="scale(0.015625)"/>
       </defs>
       <use xlink:href="#HelveticaNeue-Medium-33" transform="translate(0 0.59375)"/>
       <use xlink:href="#HelveticaNeue-Medium-30" transform="translate(55.599991 0.59375)"/>
      </g>
     </g>
    </g>
    <g id="text_9">
     <!-- scatter -->
     <g transform="translate(17.196875 418.621406) rotate(-90) scale(0.14 -0.14)">
      <defs>
       <path id="HelveticaNeue-Medium-73" d="M 934 1062 
Q 966 742 1177 614 
Q 1389 486 1683 486 
Q 1786 486 1917 502 
Q 2048 518 2163 563 
Q 2278 608 2352 694 
Q 2426 781 2419 921 
Q 2413 1062 2317 1152 
Q 2221 1242 2070 1296 
Q 1920 1350 1728 1388 
Q 1536 1427 1338 1472 
Q 1133 1517 944 1581 
Q 755 1645 604 1753 
Q 454 1862 364 2032 
Q 275 2202 275 2451 
Q 275 2720 406 2902 
Q 538 3085 739 3197 
Q 941 3309 1187 3353 
Q 1434 3398 1658 3398 
Q 1914 3398 2147 3344 
Q 2381 3290 2569 3168 
Q 2758 3046 2883 2851 
Q 3008 2656 3040 2381 
L 2278 2381 
Q 2227 2643 2038 2732 
Q 1850 2822 1606 2822 
Q 1530 2822 1424 2809 
Q 1318 2797 1225 2761 
Q 1133 2726 1069 2659 
Q 1005 2592 1005 2483 
Q 1005 2349 1097 2265 
Q 1190 2182 1340 2128 
Q 1491 2074 1683 2035 
Q 1875 1997 2080 1952 
Q 2278 1907 2470 1843 
Q 2662 1779 2812 1670 
Q 2963 1562 3056 1395 
Q 3149 1229 3149 986 
Q 3149 691 3014 486 
Q 2880 282 2665 154 
Q 2451 26 2188 -32 
Q 1926 -90 1670 -90 
Q 1357 -90 1091 -19 
Q 826 51 630 195 
Q 435 339 323 553 
Q 211 768 205 1062 
L 934 1062 
z
" transform="scale(0.015625)"/>
       <path id="HelveticaNeue-Medium-63" d="M 2618 2202 
Q 2573 2509 2371 2665 
Q 2170 2822 1862 2822 
Q 1722 2822 1562 2774 
Q 1402 2726 1267 2595 
Q 1133 2464 1043 2230 
Q 954 1997 954 1619 
Q 954 1414 1002 1209 
Q 1050 1005 1155 845 
Q 1261 685 1427 585 
Q 1594 486 1830 486 
Q 2150 486 2358 684 
Q 2566 883 2618 1242 
L 3347 1242 
Q 3245 595 2857 252 
Q 2470 -90 1830 -90 
Q 1440 -90 1142 41 
Q 845 173 640 400 
Q 435 627 329 940 
Q 224 1254 224 1619 
Q 224 1990 326 2316 
Q 429 2643 633 2883 
Q 838 3123 1142 3260 
Q 1446 3398 1856 3398 
Q 2144 3398 2403 3324 
Q 2662 3251 2864 3104 
Q 3066 2957 3194 2733 
Q 3322 2509 3347 2202 
L 2618 2202 
z
" transform="scale(0.015625)"/>
       <path id="HelveticaNeue-Medium-74" d="M 51 3309 
L 602 3309 
L 602 4301 
L 1331 4301 
L 1331 3309 
L 1990 3309 
L 1990 2765 
L 1331 2765 
L 1331 998 
Q 1331 883 1340 800 
Q 1350 717 1385 659 
Q 1421 602 1491 573 
Q 1562 544 1683 544 
Q 1760 544 1837 547 
Q 1914 550 1990 570 
L 1990 6 
Q 1869 -6 1753 -19 
Q 1638 -32 1517 -32 
Q 1229 -32 1053 22 
Q 877 77 777 182 
Q 678 288 643 448 
Q 608 608 602 813 
L 602 2765 
L 51 2765 
L 51 3309 
z
" transform="scale(0.015625)"/>
       <path id="HelveticaNeue-Medium-72" d="M 384 3309 
L 1069 3309 
L 1069 2669 
L 1082 2669 
Q 1114 2803 1206 2931 
Q 1299 3059 1430 3164 
Q 1562 3270 1722 3334 
Q 1882 3398 2048 3398 
Q 2176 3398 2224 3392 
Q 2272 3386 2323 3379 
L 2323 2675 
Q 2246 2688 2166 2697 
Q 2086 2707 2010 2707 
Q 1824 2707 1661 2633 
Q 1498 2560 1376 2416 
Q 1254 2272 1184 2061 
Q 1114 1850 1114 1574 
L 1114 0 
L 384 0 
L 384 3309 
z
" transform="scale(0.015625)"/>
      </defs>
      <use xlink:href="#HelveticaNeue-Medium-73"/>
      <use xlink:href="#HelveticaNeue-Medium-63" x="51.899994"/>
      <use xlink:href="#HelveticaNeue-Medium-61" x="107.499985"/>
      <use xlink:href="#HelveticaNeue-Medium-74" x="163.099976"/>
      <use xlink:href="#HelveticaNeue-Medium-74" x="196.399963"/>
      <use xlink:href="#HelveticaNeue-Medium-65" x="229.699951"/>
      <use xlink:href="#HelveticaNeue-Medium-72" x="285.299942"/>
     </g>
    </g>
   </g>
   <g id="QuadContourSet_1">
    <path d="M 179.708378 498.32994 
L 181.025036 498.679731 
L 182.341694 498.974871 
L 183.658351 499.217279 
L 184.975009 499.402405 
L 186.291667 499.533849 
L 187.608325 499.610386 
L 188.924983 499.624355 
L 190.241641 499.58439 
L 191.558299 499.475689 
L 192.874957 499.307539 
L 194.191615 499.077512 
L 195.508273 498.779237 
L 196.824931 498.408904 
L 197.577918 498.148924 
L 198.141589 497.95533 
L 199.458247 497.436708 
L 200.774905 496.810721 
L 201.400659 496.476105 
L 202.091563 496.112748 
L 203.40822 495.335283 
L 204.211983 494.803285 
L 204.724878 494.456184 
L 206.041536 493.444804 
L 206.419699 493.130466 
L 207.358194 492.324994 
L 208.265079 491.457646 
L 208.674852 491.054929 
L 209.894993 489.784827 
L 209.99151 489.678963 
L 211.308168 488.123295 
L 211.317287 488.112008 
L 212.587837 486.439188 
L 212.624826 486.386841 
L 213.718323 484.766369 
L 213.941484 484.412588 
L 214.743004 483.093549 
L 215.258142 482.17808 
L 215.673027 481.42073 
L 216.514125 479.74791 
L 216.5748 479.617312 
L 217.292112 478.075091 
L 217.891458 476.624042 
L 217.983111 476.402272 
L 218.611551 474.729452 
L 219.179377 473.056633 
L 219.208116 472.964418 
L 219.706655 471.383813 
L 220.166162 469.710994 
L 220.524774 468.207484 
L 220.566779 468.038174 
L 220.928201 466.365355 
L 221.244559 464.692536 
L 221.507163 463.019716 
L 221.716139 461.346897 
L 221.841432 459.943696 
L 221.865939 459.674077 
L 221.997664 458.001258 
L 222.071851 456.328438 
L 222.088558 454.655619 
L 222.092324 452.9828 
L 222.022544 451.30998 
L 221.905121 449.637161 
L 221.841432 448.96239 
L 221.74747 447.964341 
L 221.548135 446.291522 
L 221.291644 444.618702 
L 220.979594 442.945883 
L 220.621737 441.273063 
L 220.524774 440.88023 
L 220.211595 439.600244 
L 219.739307 437.927425 
L 219.209616 436.254605 
L 219.208116 436.250407 
L 218.617714 434.581786 
L 217.959019 432.908966 
L 217.891458 432.751511 
L 217.235275 431.236147 
L 216.5748 429.83624 
L 216.443234 429.563327 
L 215.580637 427.890508 
L 215.258142 427.324568 
L 214.610678 426.217689 
L 213.941484 425.158012 
L 213.542333 424.544869 
L 212.624826 423.206273 
L 212.386908 422.87205 
L 211.308168 421.45822 
L 211.096784 421.19923 
L 209.99151 419.887877 
L 209.668846 419.526411 
L 208.674852 418.448724 
L 208.073997 417.853591 
L 207.358194 417.167812 
L 206.251571 416.180772 
L 206.041536 415.999882 
L 204.724878 414.87026 
L 204.249309 414.507953 
L 203.40822 413.876715 
L 202.091563 412.973106 
L 201.885189 412.835133 
L 200.774905 412.076956 
L 199.458247 411.298734 
L 199.214849 411.162314 
L 198.141589 410.546394 
L 196.824931 409.87074 
L 195.99496 409.489494 
L 195.508273 409.264567 
L 194.191615 408.681646 
L 192.874957 408.168221 
L 191.937161 407.816675 
L 191.558299 407.673328 
L 190.241641 407.235356 
L 188.924983 406.825075 
L 187.608325 406.470232 
L 186.291667 406.175456 
L 186.131352 406.143855 
L 184.975009 405.905685 
L 183.658351 405.654752 
L 182.341694 405.460505 
L 181.025036 405.277693 
L 179.708378 405.11441 
L 178.39172 404.988743 
L 177.075062 404.906402 
L 175.758404 404.850696 
L 174.441746 404.821234 
L 173.125088 404.817251 
L 171.80843 404.861014 
L 170.491772 404.928146 
L 169.175114 405.023048 
L 167.858456 405.156771 
L 166.541798 405.340578 
L 165.22514 405.576696 
L 163.908482 405.806619 
L 162.591825 406.110114 
L 162.461894 406.143855 
L 161.275167 406.445085 
L 159.958509 406.824086 
L 158.641851 407.210676 
L 157.325193 407.714249 
L 157.063234 407.816675 
L 156.008535 408.240768 
L 154.691877 408.848837 
L 153.508914 409.489494 
L 153.375219 409.561943 
L 152.058561 410.304723 
L 150.741903 411.140004 
L 150.710842 411.162314 
L 149.425245 412.119927 
L 148.53373 412.835133 
L 148.108587 413.188573 
L 146.791929 414.384696 
L 146.663332 414.507953 
L 145.475271 415.716696 
L 145.073297 416.180772 
L 144.158613 417.29086 
L 143.709183 417.853591 
L 142.841956 419.043482 
L 142.515585 419.526411 
L 141.525298 421.153782 
L 141.498214 421.19923 
L 140.627553 422.87205 
L 140.20864 423.764668 
L 139.849679 424.544869 
L 139.188374 426.217689 
L 138.891982 427.112709 
L 138.647926 427.890508 
L 138.205281 429.563327 
L 137.835124 431.236147 
L 137.575324 432.779107 
L 137.553412 432.908966 
L 137.334358 434.581786 
L 137.181219 436.254605 
L 137.092568 437.927425 
L 137.079301 439.600244 
L 137.141196 441.273063 
L 137.244383 442.945883 
L 137.404047 444.618702 
L 137.575324 445.920209 
L 137.621612 446.291522 
L 137.896413 447.964341 
L 138.218556 449.637161 
L 138.593315 451.30998 
L 138.891982 452.467524 
L 139.022998 452.9828 
L 139.506228 454.655619 
L 140.074038 456.328438 
L 140.20864 456.69109 
L 140.672083 458.001258 
L 141.322503 459.674077 
L 141.525298 460.152231 
L 142.021016 461.346897 
L 142.778443 463.019716 
L 142.841956 463.151738 
L 143.561565 464.692536 
L 144.158613 465.856208 
L 144.414598 466.365355 
L 145.314574 468.038174 
L 145.475271 468.319864 
L 146.265314 469.710994 
L 146.791929 470.582568 
L 147.271583 471.383813 
L 148.108587 472.69447 
L 148.343761 473.056633 
L 149.425245 474.627496 
L 149.493669 474.729452 
L 150.674084 476.402272 
L 150.741903 476.494409 
L 151.964225 478.075091 
L 152.058561 478.192161 
L 153.333051 479.74791 
L 153.375219 479.798046 
L 154.691877 481.347325 
L 154.756241 481.42073 
L 156.008535 482.798844 
L 156.287733 483.093549 
L 157.325193 484.176574 
L 157.913175 484.766369 
L 158.641851 485.488245 
L 159.656611 486.439188 
L 159.958509 486.716332 
L 161.275167 487.868872 
L 161.560794 488.112008 
L 162.591825 488.99935 
L 163.563945 489.784827 
L 163.908482 490.057736 
L 165.22514 491.033327 
L 165.836469 491.457646 
L 166.541798 491.957821 
L 167.858456 492.827045 
L 168.348118 493.130466 
L 169.175114 493.648021 
L 170.491772 494.412705 
L 171.223181 494.803285 
L 171.80843 495.125515 
L 173.125088 495.789152 
L 174.441746 496.389572 
L 174.648303 496.476105 
L 175.758404 496.962269 
L 177.075062 497.477509 
L 178.39172 497.926182 
L 179.129107 498.148924 
L 179.708378 498.32994 
z
" clip-path="url(#p7a07c7e6e5)" style="fill: none; stroke: #e41a1c; stroke-width: 1.142857"/>
   </g>
   <g id="QuadContourSet_2">
    <path d="M 196.348144 499.600597 
L 198.316807 499.82783 
L 200.28547 499.994896 
L 202.254133 500.099484 
L 204.222796 500.139695 
L 206.191459 500.109082 
L 208.160121 500.009457 
L 210.128784 499.837935 
L 212.097447 499.58064 
L 212.379466 499.532314 
L 214.06611 499.238626 
L 216.034773 498.795896 
L 217.757498 498.317579 
L 218.003436 498.248358 
L 219.972099 497.582047 
L 221.175209 497.102843 
L 221.940761 496.774757 
L 223.729243 495.888108 
L 223.909424 495.793551 
L 225.801414 494.673373 
L 225.878087 494.623427 
L 227.500231 493.458637 
L 227.84675 493.185645 
L 228.950302 492.243902 
L 229.815413 491.425989 
L 230.213254 491.029167 
L 231.278456 489.814432 
L 231.784076 489.179839 
L 232.223378 488.599696 
L 233.062358 487.384961 
L 233.74427 486.170226 
L 233.752739 486.153417 
L 234.35806 484.955491 
L 234.867326 483.740755 
L 235.315876 482.52602 
L 235.681639 481.311285 
L 235.721401 481.147495 
L 235.985556 480.096549 
L 236.246626 478.881814 
L 236.44759 477.667079 
L 236.593347 476.452344 
L 236.687842 475.237608 
L 236.721747 474.022873 
L 236.749572 472.808138 
L 236.711785 471.593403 
L 236.638007 470.378667 
L 236.528184 469.163932 
L 236.379582 467.949197 
L 236.187955 466.734461 
L 236.007228 465.519726 
L 235.758908 464.304991 
L 235.721401 464.137415 
L 235.500714 463.090256 
L 235.20461 461.87552 
L 234.893722 460.660785 
L 234.544404 459.44605 
L 234.141647 458.231315 
L 233.752739 457.10886 
L 233.722078 457.016579 
L 233.304704 455.801844 
L 232.8635 454.587109 
L 232.376603 453.372373 
L 231.856717 452.157638 
L 231.784076 451.998972 
L 231.314716 450.942903 
L 230.744253 449.728168 
L 230.123915 448.513432 
L 229.815413 447.957068 
L 229.453898 447.298697 
L 228.749926 446.083962 
L 228.017008 444.869227 
L 227.84675 444.610743 
L 227.228951 443.654491 
L 226.426954 442.439756 
L 225.878087 441.630293 
L 225.60697 441.225021 
L 224.758276 440.010285 
L 223.909424 438.883611 
L 223.84214 438.79555 
L 222.867157 437.580815 
L 221.940761 436.48602 
L 221.839606 436.36608 
L 220.765411 435.151344 
L 219.972099 434.302872 
L 219.624498 433.936609 
L 218.464667 432.721874 
L 218.003436 432.259597 
L 217.226798 431.507139 
L 216.034773 430.369812 
L 215.951131 430.292403 
L 214.570351 429.077668 
L 214.06611 428.650551 
L 213.107713 427.862933 
L 212.097447 427.071201 
L 211.533298 426.648197 
L 210.128784 425.64713 
L 209.812215 425.433462 
L 208.160121 424.29994 
L 208.033891 424.218727 
L 206.191459 423.054319 
L 206.106832 423.003992 
L 204.222796 421.953548 
L 203.908479 421.789256 
L 202.254133 420.93262 
L 201.505316 420.574521 
L 200.28547 419.975888 
L 198.927159 419.359786 
L 198.316807 419.08499 
L 196.348144 418.261805 
L 196.041457 418.145051 
L 194.379481 417.507976 
L 192.679478 416.930315 
L 192.410819 416.838778 
L 190.442156 416.214166 
L 188.639263 415.71558 
L 188.473493 415.668463 
L 186.50483 415.180303 
L 184.536167 414.759702 
L 183.162222 414.500845 
L 182.567504 414.386112 
L 180.598841 414.052032 
L 178.630179 413.782638 
L 176.661516 413.585745 
L 174.692853 413.418788 
L 172.72419 413.314106 
L 171.639862 413.286109 
L 170.755527 413.262774 
L 168.786864 413.277537 
L 168.550881 413.286109 
L 166.818201 413.348598 
L 164.849539 413.483873 
L 162.880876 413.68693 
L 160.912213 413.96469 
L 158.94355 414.294575 
L 157.929084 414.500845 
L 156.974887 414.693059 
L 155.006224 415.172289 
L 153.150383 415.71558 
L 153.037561 415.748819 
L 151.068899 416.377775 
L 149.65669 416.930315 
L 149.100236 417.147522 
L 147.131573 417.996916 
L 146.821701 418.145051 
L 145.16291 418.971157 
L 144.440648 419.359786 
L 143.194247 420.077896 
L 142.418106 420.574521 
L 141.225584 421.380556 
L 140.67149 421.789256 
L 139.256922 422.909342 
L 139.145701 423.003992 
L 137.873533 424.218727 
L 137.288259 424.83296 
L 136.745598 425.433462 
L 135.679175 426.648197 
L 135.319596 427.125937 
L 134.793811 427.862933 
L 134.046638 429.077668 
L 133.353693 430.292403 
L 133.350933 430.297841 
L 132.746691 431.507139 
L 132.240791 432.721874 
L 131.823116 433.936609 
L 131.482718 435.151344 
L 131.38227 435.586978 
L 131.202914 436.36608 
L 130.955797 437.580815 
L 130.795675 438.79555 
L 130.709203 440.010285 
L 130.699935 441.225021 
L 130.700625 442.439756 
L 130.732336 443.654491 
L 130.820783 444.869227 
L 130.966136 446.083962 
L 131.142594 447.298697 
L 131.377604 448.513432 
L 131.38227 448.53297 
L 131.651488 449.728168 
L 131.98406 450.942903 
L 132.345765 452.157638 
L 132.761954 453.372373 
L 133.224286 454.587109 
L 133.350933 454.878199 
L 133.732134 455.801844 
L 134.246101 457.016579 
L 134.817158 458.231315 
L 135.319596 459.216326 
L 135.432207 459.44605 
L 136.093666 460.660785 
L 136.803005 461.87552 
L 137.288259 462.67403 
L 137.530068 463.090256 
L 138.302654 464.304991 
L 139.118267 465.519726 
L 139.256922 465.711394 
L 139.972909 466.734461 
L 140.866621 467.949197 
L 141.225584 468.397262 
L 141.825947 469.163932 
L 142.817701 470.378667 
L 143.194247 470.814336 
L 143.85179 471.593403 
L 144.959734 472.808138 
L 145.16291 473.023487 
L 146.085333 474.022873 
L 147.131573 475.086975 
L 147.278479 475.237608 
L 148.518887 476.452344 
L 149.100236 476.994567 
L 149.814786 477.667079 
L 151.068899 478.781655 
L 151.181233 478.881814 
L 152.594874 480.096549 
L 153.037561 480.460651 
L 154.079367 481.311285 
L 155.006224 482.02837 
L 155.656853 482.52602 
L 156.974887 483.48653 
L 157.32961 483.740755 
L 158.94355 484.869117 
L 159.069383 484.955491 
L 160.883701 486.170226 
L 160.912213 486.188791 
L 162.808014 487.384961 
L 162.880876 487.429904 
L 164.848309 488.599696 
L 164.849539 488.600413 
L 166.818201 489.708933 
L 167.014418 489.814432 
L 168.786864 490.755169 
L 169.329973 491.029167 
L 170.755527 491.749538 
L 171.795725 492.243902 
L 172.72419 492.681846 
L 174.485689 493.458637 
L 174.692853 493.549679 
L 176.661516 494.366101 
L 177.461614 494.673373 
L 178.630179 495.128393 
L 180.598841 495.830991 
L 180.771523 495.888108 
L 182.567504 496.497061 
L 184.536167 497.098617 
L 184.55137 497.102843 
L 186.50483 497.655337 
L 188.473493 498.146663 
L 189.243815 498.317579 
L 190.442156 498.59403 
L 192.410819 498.985379 
L 194.379481 499.32078 
L 195.8818 499.532314 
L 196.348144 499.600597 
z
" clip-path="url(#p7a07c7e6e5)" style="fill: none; stroke: #377eb8; stroke-width: 1.142857"/>
   </g>
   <g id="QuadContourSet_3">
    <path d="M 185.455834 505.960404 
L 186.77479 506.127012 
L 188.093746 506.257932 
L 189.412702 506.3517 
L 190.731658 506.40722 
L 192.050615 506.42128 
L 193.369571 506.397984 
L 194.688527 506.338538 
L 196.007483 506.233357 
L 197.326439 506.074277 
L 198.645395 505.877073 
L 199.245741 505.765428 
L 199.964351 505.634822 
L 201.283308 505.342873 
L 202.602264 505.002656 
L 203.92122 504.592982 
L 204.191102 504.500219 
L 205.240176 504.148155 
L 206.559132 503.644145 
L 207.540121 503.235009 
L 207.878088 503.090748 
L 209.197045 502.464851 
L 210.113844 501.9698 
L 210.516001 501.747171 
L 211.834957 500.96316 
L 212.237279 500.704591 
L 213.153913 500.097452 
L 214.064377 499.439381 
L 214.472869 499.139994 
L 215.703463 498.174172 
L 215.791825 498.099913 
L 217.110782 496.936657 
L 217.140359 496.908962 
L 218.41758 495.643753 
L 218.429738 495.631007 
L 219.586185 494.378544 
L 219.748694 494.192378 
L 220.65639 493.113334 
L 221.06765 492.587389 
L 221.637186 491.848125 
L 222.386606 490.775176 
L 222.515872 490.582916 
L 223.279354 489.317706 
L 223.705562 488.566208 
L 224.00107 488.052497 
L 224.670613 486.787288 
L 225.024519 486.06359 
L 225.290436 485.522078 
L 225.852409 484.256869 
L 226.335837 482.991659 
L 226.343475 482.969577 
L 226.78639 481.72645 
L 227.187275 480.461241 
L 227.546293 479.196031 
L 227.662431 478.726262 
L 227.860839 477.930822 
L 228.107551 476.665613 
L 228.338368 475.400403 
L 228.521193 474.135194 
L 228.667092 472.869985 
L 228.765716 471.604775 
L 228.844101 470.339566 
L 228.869687 469.074356 
L 228.850998 467.809147 
L 228.822754 466.543938 
L 228.73283 465.278728 
L 228.616268 464.013519 
L 228.453262 462.74831 
L 228.265045 461.4831 
L 228.025622 460.217891 
L 227.744901 458.952682 
L 227.662431 458.601139 
L 227.442745 457.687472 
L 227.096148 456.422263 
L 226.714002 455.157053 
L 226.343475 454.085317 
L 226.278283 453.891844 
L 225.810855 452.626635 
L 225.286157 451.361425 
L 225.024519 450.752057 
L 224.746542 450.096216 
L 224.173748 448.831007 
L 223.705562 447.937178 
L 223.513704 447.565797 
L 222.823262 446.300588 
L 222.386606 445.564311 
L 222.061439 445.035379 
L 221.229712 443.770169 
L 221.06765 443.535982 
L 220.343932 442.50496 
L 219.748694 441.721897 
L 219.367338 441.23975 
L 218.429738 440.105251 
L 218.321669 439.974541 
L 217.217395 438.709332 
L 217.110782 438.595223 
L 215.942058 437.444122 
L 215.791825 437.293191 
L 214.677155 436.178913 
L 214.472869 435.980441 
L 213.312885 434.913704 
L 213.153913 434.776892 
L 211.834957 433.700566 
L 211.768027 433.648494 
L 210.516001 432.663191 
L 210.14375 432.383285 
L 209.197045 431.695837 
L 208.273825 431.118075 
L 207.878088 430.871759 
L 206.559132 430.084306 
L 206.175618 429.852866 
L 205.240176 429.297632 
L 203.928303 428.587657 
L 203.92122 428.583843 
L 202.602264 427.925446 
L 201.285891 427.322447 
L 201.283308 427.321247 
L 199.964351 426.730549 
L 198.645395 426.178016 
L 198.316485 426.057238 
L 197.326439 425.689386 
L 196.007483 425.254624 
L 194.688527 424.839065 
L 194.485687 424.792029 
L 193.369571 424.53109 
L 192.050615 424.178632 
L 190.731658 423.880277 
L 189.412702 423.614938 
L 188.916914 423.526819 
L 188.093746 423.373318 
L 186.77479 423.18187 
L 185.455834 422.996378 
L 184.136878 422.873432 
L 182.817921 422.772872 
L 181.498965 422.748869 
L 180.180009 422.694539 
L 178.861053 422.648538 
L 177.542097 422.683062 
L 176.223141 422.749424 
L 174.904184 422.8332 
L 173.585228 422.97501 
L 172.266272 423.127135 
L 170.947316 423.334377 
L 169.92628 423.526819 
L 169.62836 423.581249 
L 168.309404 423.818608 
L 166.990447 424.104886 
L 165.671491 424.417744 
L 164.387293 424.792029 
L 164.352535 424.802263 
L 163.033579 425.19302 
L 161.714623 425.648897 
L 160.694595 426.057238 
L 160.395667 426.175258 
L 159.076711 426.721534 
L 157.757754 427.310994 
L 157.731995 427.322447 
L 156.438798 427.904268 
L 155.160246 428.587657 
L 155.119842 428.610058 
L 153.800886 429.364884 
L 153.049382 429.852866 
L 152.48193 430.235905 
L 151.284039 431.118075 
L 151.162974 431.206349 
L 149.844017 432.234852 
L 149.669554 432.383285 
L 148.525061 433.400617 
L 148.260448 433.648494 
L 147.206105 434.685061 
L 146.981778 434.913704 
L 145.887149 436.171134 
L 145.880683 436.178913 
L 144.877582 437.444122 
L 144.568193 437.852147 
L 143.937063 438.709332 
L 143.249237 439.786884 
L 143.132241 439.974541 
L 142.424456 441.23975 
L 141.93028 442.153677 
L 141.751372 442.50496 
L 141.159947 443.770169 
L 140.677042 445.035379 
L 140.611324 445.218347 
L 140.220749 446.300588 
L 139.848845 447.565797 
L 139.509211 448.831007 
L 139.292368 449.791011 
L 139.222066 450.096216 
L 138.984462 451.361425 
L 138.814388 452.626635 
L 138.684441 453.891844 
L 138.600287 455.157053 
L 138.580751 456.422263 
L 138.565703 457.687472 
L 138.593652 458.952682 
L 138.671274 460.217891 
L 138.798237 461.4831 
L 138.955761 462.74831 
L 139.161803 464.013519 
L 139.292368 464.694603 
L 139.398984 465.278728 
L 139.689112 466.543938 
L 140.018401 467.809147 
L 140.380888 469.074356 
L 140.611324 469.744161 
L 140.807239 470.339566 
L 141.24623 471.604775 
L 141.738793 472.869985 
L 141.93028 473.303222 
L 142.294101 474.135194 
L 142.899574 475.400403 
L 143.249237 476.078104 
L 143.541661 476.665613 
L 144.207116 477.930822 
L 144.568193 478.541518 
L 144.966046 479.196031 
L 145.810486 480.461241 
L 145.887149 480.573653 
L 146.642219 481.72645 
L 147.206105 482.520473 
L 147.538722 482.991659 
L 148.494135 484.256869 
L 148.525061 484.294962 
L 149.531583 485.522078 
L 149.844017 485.885808 
L 150.613615 486.787288 
L 151.162974 487.405374 
L 151.751372 488.052497 
L 152.48193 488.797067 
L 153.002002 489.317706 
L 153.800886 490.109306 
L 154.291281 490.582916 
L 155.119842 491.341138 
L 155.682793 491.848125 
L 156.438798 492.503069 
L 157.159987 493.113334 
L 157.757754 493.605388 
L 158.75593 494.378544 
L 159.076711 494.620224 
L 160.395667 495.582654 
L 160.482336 495.643753 
L 161.714623 496.511757 
L 162.306625 496.908962 
L 163.033579 497.384513 
L 164.312518 498.174172 
L 164.352535 498.198906 
L 165.671491 498.987941 
L 166.48348 499.439381 
L 166.990447 499.721264 
L 168.309404 500.419411 
L 168.884764 500.704591 
L 169.62836 501.079729 
L 170.947316 501.698689 
L 171.568681 501.9698 
L 172.266272 502.275214 
L 173.585228 502.810901 
L 174.722845 503.235009 
L 174.904184 503.302651 
L 176.223141 503.763715 
L 177.542097 504.185345 
L 178.64868 504.500219 
L 178.861053 504.564128 
L 180.180009 504.923721 
L 181.498965 505.243019 
L 182.817921 505.517784 
L 184.136878 505.749242 
L 184.241795 505.765428 
L 185.455834 505.960404 
z
" clip-path="url(#p7a07c7e6e5)" style="fill: none; stroke: #4daf4a; stroke-width: 1.142857"/>
   </g>
   <g id="patch_3">
    <path d="M 39.69 525.85 
L 39.69 266.525 
" style="fill: none; stroke: #000000; stroke-width: 0.8; stroke-linejoin: miter; stroke-linecap: square"/>
   </g>
   <g id="patch_4">
    <path d="M 300.135609 525.85 
L 300.135609 266.525 
" style="fill: none; stroke: #000000; stroke-width: 0.8; stroke-linejoin: miter; stroke-linecap: square"/>
   </g>
   <g id="patch_5">
    <path d="M 39.69 525.85 
L 300.135609 525.85 
" style="fill: none; stroke: #000000; stroke-width: 0.8; stroke-linejoin: miter; stroke-linecap: square"/>
   </g>
   <g id="patch_6">
    <path d="M 39.69 266.525 
L 300.135609 266.525 
" style="fill: none; stroke: #000000; stroke-width: 0.8; stroke-linejoin: miter; stroke-linecap: square"/>
   </g>
  </g>
  <g id="axes_2">
   <g id="patch_7">
    <path d="M 39.69 266.525 
L 300.135609 266.525 
L 300.135609 7.2 
L 39.69 7.2 
z
" style="fill: #ffffff"/>
   </g>
   <g id="matplotlib.axis_3">
    <g id="xtick_4">
     <g id="line2d_15">
      <g>
       <use xlink:href="#m48fa0afdef" x="112.427048" y="266.525" style="stroke: #000000; stroke-width: 0.8"/>
      </g>
     </g>
    </g>
    <g id="xtick_5">
     <g id="line2d_16">
      <g>
       <use xlink:href="#m48fa0afdef" x="179.361523" y="266.525" style="stroke: #000000; stroke-width: 0.8"/>
      </g>
     </g>
    </g>
    <g id="xtick_6">
     <g id="line2d_17">
      <g>
       <use xlink:href="#m48fa0afdef" x="246.295997" y="266.525" style="stroke: #000000; stroke-width: 0.8"/>
      </g>
     </g>
    </g>
   </g>
   <g id="matplotlib.axis_4">
    <g id="ytick_5"/>
    <g id="ytick_6"/>
    <g id="ytick_7"/>
    <g id="ytick_8"/>
    <g id="ytick_9"/>
   </g>
   <g id="line2d_18">
    <path d="M 39.629102 266.510784 
L 47.834081 266.359216 
L 63.915842 265.61523 
L 72.120822 265.471281 
L 82.623196 265.466534 
L 85.248789 265.291074 
L 88.530781 264.878393 
L 90.828175 264.389827 
L 92.797371 263.856199 
L 96.079363 262.626573 
L 107.566334 256.952885 
L 114.786716 252.419195 
L 116.755912 250.925372 
L 117.41231 250.276159 
L 121.678899 246.410385 
L 122.335298 245.704412 
L 124.632692 243.23784 
L 126.273688 241.297749 
L 126.930087 240.601782 
L 127.914684 239.454192 
L 129.227481 237.56312 
L 131.524875 234.18768 
L 135.135066 227.440651 
L 138.088859 220.83474 
L 141.370851 211.319815 
L 143.996444 202.379505 
L 145.96564 195.104953 
L 147.934835 187.51152 
L 149.90403 179.757433 
L 152.529623 169.187123 
L 154.498819 160.520631 
L 158.765408 139.786857 
L 160.406404 131.293514 
L 170.908778 71.347099 
L 175.503567 50.049683 
L 176.488164 45.946424 
L 179.113758 37.241194 
L 179.770156 35.279708 
L 180.754754 32.844971 
L 181.411152 31.921496 
L 181.739351 31.883208 
L 182.39575 31.135493 
L 183.052148 30.653452 
L 183.708547 30.560487 
L 184.364945 30.774617 
L 185.349543 31.735727 
L 185.677742 31.834713 
L 186.33414 32.681259 
L 187.975136 36.853683 
L 189.287933 41.769868 
L 191.257128 50.860064 
L 192.241726 55.984807 
L 195.851917 78.849571 
L 201.103104 114.566664 
L 202.087701 121.182944 
L 203.072299 126.991275 
L 206.354291 145.395815 
L 208.323486 155.528925 
L 212.918275 176.955171 
L 216.528466 191.814932 
L 220.795055 208.561053 
L 224.733446 222.650617 
L 226.374442 228.169454 
L 228.015437 233.130612 
L 229.984633 238.80484 
L 232.610226 245.092378 
L 234.90762 249.714819 
L 236.876816 252.569275 
L 239.830608 255.951415 
L 241.471604 257.389903 
L 243.768999 258.996083 
L 245.409995 260.000783 
L 247.050991 260.874586 
L 248.691987 261.506145 
L 250.332982 262.069438 
L 252.630377 262.796351 
L 258.209763 264.066978 
L 262.804552 264.742698 
L 269.368536 265.305742 
L 278.229914 265.824461 
L 284.137499 266.221285 
L 290.701483 266.463832 
L 296.937268 266.520689 
L 300.21926 266.524066 
L 300.21926 266.524066 
" clip-path="url(#p47da4abab6)" style="fill: none; stroke: #e41a1c; stroke-width: 1.142857"/>
   </g>
   <g id="line2d_19">
    <path d="M 39.363158 266.469998 
L 48.196161 266.232432 
L 73.223004 265.249288 
L 78.130229 264.811564 
L 81.565285 264.34916 
L 87.453954 263.318773 
L 93.342623 261.759578 
L 96.77768 260.503525 
L 100.70346 258.890503 
L 106.592128 256.07137 
L 111.499353 253.071615 
L 113.952965 251.310493 
L 115.915854 249.545712 
L 117.878744 247.337511 
L 120.823078 243.668568 
L 124.258135 238.480961 
L 128.674637 230.851057 
L 131.618971 225.316851 
L 132.109694 224.21189 
L 133.091139 222.405704 
L 134.072584 220.43489 
L 139.47053 208.845279 
L 144.868477 194.995065 
L 146.340644 190.98144 
L 150.266423 178.986684 
L 157.627259 153.19153 
L 162.043761 136.508466 
L 169.404597 105.98521 
L 172.839654 90.852177 
L 173.821099 86.343634 
L 176.274711 74.703417 
L 180.691213 55.526176 
L 181.672658 51.765917 
L 183.635547 44.476022 
L 185.107714 39.615421 
L 187.070604 35.061353 
L 187.561327 34.566808 
L 188.052049 33.797685 
L 188.542771 32.730546 
L 189.524216 31.426365 
L 190.996383 30.560487 
L 192.468551 31.259374 
L 192.959273 31.5775 
L 194.43144 32.918696 
L 194.922163 33.760546 
L 196.885052 38.120819 
L 199.338664 46.209352 
L 201.792276 56.442465 
L 205.227333 74.586414 
L 209.153113 97.784135 
L 217.495394 150.59224 
L 220.439728 167.779707 
L 222.402618 178.5264 
L 226.328397 197.85274 
L 227.800564 204.247121 
L 230.744899 215.727705 
L 232.707788 222.233547 
L 234.670678 228.004884 
L 236.142845 232.088023 
L 237.12429 234.396815 
L 240.559347 242.125768 
L 242.522237 245.741011 
L 246.448016 251.663179 
L 248.410906 253.936934 
L 251.35524 256.825518 
L 252.827407 257.973652 
L 257.734631 260.828025 
L 259.206799 261.4694 
L 261.660411 262.339072 
L 264.604745 263.069713 
L 268.039802 263.750582 
L 280.798585 265.404445 
L 289.631588 266.181342 
L 296.01098 266.436896 
L 300.427481 266.501124 
L 300.427481 266.501124 
" clip-path="url(#p47da4abab6)" style="fill: none; stroke: #377eb8; stroke-width: 1.142857"/>
   </g>
   <g id="line2d_20">
    <path d="M 39.562264 266.331869 
L 57.644727 266.055127 
L 78.028595 265.345599 
L 79.672455 265.338266 
L 81.316316 265.273895 
L 85.26158 265.024851 
L 95.124742 263.686167 
L 96.768603 263.315628 
L 101.04264 262.506431 
L 104.659132 261.338778 
L 106.960537 260.349103 
L 110.577029 258.043457 
L 111.892118 256.896497 
L 114.193522 254.752037 
L 116.166154 252.373214 
L 117.481243 250.428879 
L 123.39914 240.647868 
L 124.714228 238.272836 
L 128.330721 231.136352 
L 129.317037 229.06222 
L 129.645809 228.509103 
L 136.22125 213.217807 
L 137.207566 210.981256 
L 138.522655 207.846678 
L 139.508971 205.214684 
L 142.796692 198.198724 
L 143.454236 197.0106 
L 143.783008 196.448058 
L 144.769324 194.212104 
L 145.426868 192.786439 
L 147.3995 188.678989 
L 149.043361 185.239549 
L 150.029677 182.790022 
L 152.002309 178.114522 
L 152.988626 175.382852 
L 156.276346 163.713429 
L 158.577751 153.537507 
L 161.536699 136.898572 
L 163.180559 126.566093 
L 166.46828 103.866176 
L 169.427229 84.020283 
L 172.057405 68.731445 
L 173.372493 62.580894 
L 174.030038 59.896097 
L 176.660214 50.776968 
L 177.317758 48.957077 
L 177.975302 46.937825 
L 179.290391 44.735464 
L 179.947935 43.352435 
L 180.934251 41.663092 
L 181.591795 40.806461 
L 181.920567 40.510016 
L 184.221972 36.99286 
L 184.550744 36.897796 
L 184.879516 36.167995 
L 187.509692 33.350437 
L 188.167236 32.499918 
L 188.496008 32.335687 
L 189.153552 31.564735 
L 189.811097 31.273035 
L 190.468641 31.347029 
L 190.797413 30.948822 
L 191.783729 30.59221 
L 192.441273 30.999247 
L 192.770045 30.865176 
L 193.427589 31.679652 
L 194.085133 33.084671 
L 195.07145 34.615108 
L 195.400222 35.204805 
L 197.372854 40.92297 
L 198.030398 43.507291 
L 200.660575 56.558923 
L 201.646891 62.078059 
L 205.920928 91.189846 
L 211.838825 137.823959 
L 217.42795 175.038554 
L 219.07181 183.825468 
L 221.044443 193.210042 
L 223.345847 202.131464 
L 225.318479 209.09502 
L 226.633568 212.748774 
L 228.6062 217.810236 
L 231.893921 224.756976 
L 235.839185 231.932236 
L 237.811818 235.142854 
L 238.798134 236.557711 
L 245.702347 248.171135 
L 247.346208 250.332099 
L 250.305156 253.927416 
L 251.620244 255.159999 
L 253.264105 256.461857 
L 256.551825 258.73005 
L 261.483406 260.987914 
L 264.442355 261.973779 
L 270.689024 263.546729 
L 271.67534 263.697061 
L 279.237098 264.978497 
L 290.086576 265.949181 
L 298.305877 266.409662 
L 300.27851 266.464304 
L 300.27851 266.464304 
" clip-path="url(#p47da4abab6)" style="fill: none; stroke: #4daf4a; stroke-width: 1.142857"/>
   </g>
   <g id="patch_8">
    <path d="M 39.69 266.525 
L 39.69 7.2 
" style="fill: none; stroke: #000000; stroke-width: 0.8; stroke-linejoin: miter; stroke-linecap: square"/>
   </g>
   <g id="patch_9">
    <path d="M 300.135609 266.525 
L 300.135609 7.2 
" style="fill: none; stroke: #000000; stroke-width: 0.8; stroke-linejoin: miter; stroke-linecap: square"/>
   </g>
   <g id="patch_10">
    <path d="M 39.69 266.525 
L 300.135609 266.525 
" style="fill: none; stroke: #000000; stroke-width: 0.8; stroke-linejoin: miter; stroke-linecap: square"/>
   </g>
   <g id="patch_11">
    <path d="M 39.69 7.2 
L 300.135609 7.2 
" style="fill: none; stroke: #000000; stroke-width: 0.8; stroke-linejoin: miter; stroke-linecap: square"/>
   </g>
  </g>
  <g id="axes_3">
   <g id="patch_12">
    <path d="M 300.135609 525.85 
L 560.581219 525.85 
L 560.581219 266.525 
L 300.135609 266.525 
z
" style="fill: #ffffff"/>
   </g>
   <g id="matplotlib.axis_5">
    <g id="xtick_7">
     <g id="line2d_21">
      <g>
       <use xlink:href="#m48fa0afdef" x="314.744453" y="525.85" style="stroke: #000000; stroke-width: 0.8"/>
      </g>
     </g>
     <g id="text_10">
      <!-- $\mathdefault{0}$ -->
      <g transform="translate(311.664453 537.204687) scale(0.11 -0.11)">
       <use xlink:href="#HelveticaNeue-Medium-30" transform="translate(0 0.59375)"/>
      </g>
     </g>
    </g>
    <g id="xtick_8">
     <g id="line2d_22">
      <g>
       <use xlink:href="#m48fa0afdef" x="381.830259" y="525.85" style="stroke: #000000; stroke-width: 0.8"/>
      </g>
     </g>
     <g id="text_11">
      <!-- $\mathdefault{10}$ -->
      <g transform="translate(375.670259 537.204687) scale(0.11 -0.11)">
       <use xlink:href="#HelveticaNeue-Medium-31" transform="translate(0 0.59375)"/>
       <use xlink:href="#HelveticaNeue-Medium-30" transform="translate(55.599991 0.59375)"/>
      </g>
     </g>
    </g>
    <g id="xtick_9">
     <g id="line2d_23">
      <g>
       <use xlink:href="#m48fa0afdef" x="448.916065" y="525.85" style="stroke: #000000; stroke-width: 0.8"/>
      </g>
     </g>
     <g id="text_12">
      <!-- $\mathdefault{20}$ -->
      <g transform="translate(442.756065 537.204687) scale(0.11 -0.11)">
       <use xlink:href="#HelveticaNeue-Medium-32" transform="translate(0 0.59375)"/>
       <use xlink:href="#HelveticaNeue-Medium-30" transform="translate(55.599991 0.59375)"/>
      </g>
     </g>
    </g>
    <g id="xtick_10">
     <g id="line2d_24">
      <g>
       <use xlink:href="#m48fa0afdef" x="516.001871" y="525.85" style="stroke: #000000; stroke-width: 0.8"/>
      </g>
     </g>
     <g id="text_13">
      <!-- $\mathdefault{30}$ -->
      <g transform="translate(509.841871 537.204687) scale(0.11 -0.11)">
       <use xlink:href="#HelveticaNeue-Medium-33" transform="translate(0 0.59375)"/>
       <use xlink:href="#HelveticaNeue-Medium-30" transform="translate(55.599991 0.59375)"/>
      </g>
     </g>
    </g>
    <g id="text_14">
     <!-- scatter -->
     <g transform="translate(407.924508 557.305) scale(0.14 -0.14)">
      <use xlink:href="#HelveticaNeue-Medium-73"/>
      <use xlink:href="#HelveticaNeue-Medium-63" x="51.899994"/>
      <use xlink:href="#HelveticaNeue-Medium-61" x="107.499985"/>
      <use xlink:href="#HelveticaNeue-Medium-74" x="163.099976"/>
      <use xlink:href="#HelveticaNeue-Medium-74" x="196.399963"/>
      <use xlink:href="#HelveticaNeue-Medium-65" x="229.699951"/>
      <use xlink:href="#HelveticaNeue-Medium-72" x="285.299942"/>
     </g>
    </g>
   </g>
   <g id="matplotlib.axis_6">
    <g id="ytick_10"/>
    <g id="ytick_11"/>
    <g id="ytick_12"/>
    <g id="ytick_13"/>
    <g id="ytick_14"/>
   </g>
   <g id="line2d_25">
    <path d="M 299.750302 525.85 
L 310.21981 525.741497 
L 312.313712 525.53026 
L 313.988833 525.161947 
L 315.245174 524.708977 
L 316.920295 523.773773 
L 318.176636 522.756387 
L 319.432977 521.45682 
L 320.270538 520.350784 
L 321.526879 518.384533 
L 323.202 515.154449 
L 324.877121 511.415945 
L 326.133462 508.236809 
L 330.321266 495.688205 
L 334.927849 480.0033 
L 337.021751 471.376476 
L 339.115652 461.845941 
L 340.371993 455.176009 
L 343.303456 438.376234 
L 346.234918 418.311519 
L 348.328819 401.976577 
L 353.354183 362.256349 
L 358.798327 321.56635 
L 362.56735 301.751141 
L 363.404911 298.16021 
L 364.661252 294.341498 
L 365.498813 292.419885 
L 365.917593 292.055773 
L 366.336373 291.313063 
L 367.173934 290.460702 
L 367.592714 290.08242 
L 368.011494 289.885487 
L 368.849055 290.272548 
L 369.267835 290.35534 
L 369.686616 290.971999 
L 370.105396 291.376504 
L 371.780517 293.931153 
L 372.618078 295.647972 
L 373.455639 298.106219 
L 374.71198 303.262524 
L 375.968321 307.916209 
L 377.643442 314.387365 
L 378.481002 317.469953 
L 379.737343 323.177624 
L 380.574904 326.799171 
L 386.437829 355.578834 
L 390.206851 375.384763 
L 395.232215 400.644097 
L 397.326117 410.366883 
L 398.163678 414.38744 
L 400.67636 424.852642 
L 402.351481 431.89153 
L 405.701723 443.748559 
L 411.983428 463.292285 
L 414.49611 469.968876 
L 415.333671 471.901066 
L 416.171231 474.04847 
L 419.521474 481.228003 
L 421.196595 483.859176 
L 422.034156 485.286032 
L 422.871717 486.558453 
L 424.546838 488.821839 
L 426.640739 491.863119 
L 429.572202 495.840209 
L 430.828543 497.713928 
L 435.435126 504.041926 
L 436.272687 505.022971 
L 438.366588 507.070916 
L 439.204149 507.86883 
L 440.04171 508.501578 
L 440.87927 508.975431 
L 442.135611 509.755648 
L 442.973172 510.167132 
L 445.067074 511.133578 
L 446.742195 511.778226 
L 447.998536 512.127158 
L 449.673657 512.716443 
L 450.511218 513.059349 
L 453.0239 514.096219 
L 455.536582 515.224692 
L 458.049263 516.042266 
L 466.00609 518.316381 
L 467.262431 518.59966 
L 468.099991 518.845814 
L 471.450234 519.535989 
L 473.125355 519.837709 
L 477.731939 520.746257 
L 481.919742 521.760141 
L 488.620227 523.17252 
L 491.551689 523.518428 
L 496.158273 523.946299 
L 500.346076 524.137325 
L 509.140463 524.381073 
L 520.866312 525.204265 
L 526.310456 525.37411 
L 533.010941 525.356416 
L 543.061669 525.159337 
L 546.830692 525.35931 
L 554.787518 525.782355 
L 560.650442 525.845886 
L 560.650442 525.845886 
" clip-path="url(#p4b11bc99e0)" style="fill: none; stroke: #e41a1c; stroke-width: 1.142857"/>
   </g>
   <g id="line2d_26">
    <path d="M 299.963489 525.85 
L 314.256269 525.746274 
L 315.168574 525.497344 
L 316.080879 524.919293 
L 316.689082 524.204879 
L 317.297286 523.068201 
L 317.905489 521.347153 
L 318.513692 518.969177 
L 319.121896 515.715424 
L 320.034201 509.117058 
L 320.946506 500.398258 
L 322.467015 482.458893 
L 323.987523 464.379511 
L 324.899828 455.485539 
L 325.812133 448.844744 
L 326.420337 445.639849 
L 327.332642 442.211737 
L 328.244947 439.312267 
L 329.157252 436.631996 
L 330.373659 432.557644 
L 331.894167 427.139272 
L 332.198269 426.340249 
L 332.806472 423.945322 
L 333.110574 423.55013 
L 334.326981 419.922417 
L 334.935184 418.773631 
L 335.239286 418.52282 
L 335.847489 417.697727 
L 336.151591 417.364423 
L 336.455693 417.323184 
L 336.759794 416.474847 
L 337.063896 416.366813 
L 337.367998 416.101981 
L 338.280303 414.476342 
L 338.584404 413.378384 
L 338.888506 412.773975 
L 339.49671 410.658765 
L 340.713116 404.197824 
L 341.625421 397.755398 
L 343.14593 383.349743 
L 344.362337 369.240693 
L 346.491049 345.868511 
L 347.707455 336.057504 
L 348.923862 329.37062 
L 349.532065 326.848559 
L 350.140269 325.677246 
L 351.356676 324.320754 
L 351.660777 324.232492 
L 351.964879 323.513837 
L 352.268981 323.39293 
L 352.573082 323.077134 
L 352.877184 322.947154 
L 353.181286 323.055596 
L 353.485388 323.49977 
L 354.701794 323.021816 
L 355.005896 322.496921 
L 355.309998 322.21523 
L 355.614099 321.574035 
L 355.918201 321.463556 
L 356.222303 320.908386 
L 356.526405 321.329846 
L 356.830506 321.197178 
L 357.134608 320.913861 
L 357.742811 319.557641 
L 358.046913 319.402299 
L 358.351015 319.815512 
L 358.655116 319.272927 
L 359.26332 318.806662 
L 359.567421 318.994692 
L 360.175625 318.211457 
L 360.479727 318.012939 
L 362.000235 315.994171 
L 363.824845 310.66645 
L 364.73715 306.758231 
L 366.865862 296.645977 
L 367.169964 295.006004 
L 367.778167 293.226206 
L 368.082269 292.342824 
L 368.386371 292.265133 
L 368.690472 291.262819 
L 369.298676 290.216293 
L 369.906879 289.885487 
L 370.210981 289.921505 
L 370.819184 292.300134 
L 371.427388 294.699708 
L 373.251998 306.859014 
L 374.772506 319.771271 
L 376.293015 329.088477 
L 377.509422 335.238105 
L 378.725828 338.938152 
L 379.638133 341.952637 
L 381.158642 349.148108 
L 382.070947 354.933381 
L 385.416066 379.487786 
L 387.240676 391.056681 
L 388.152981 394.921473 
L 389.369388 399.518434 
L 389.977591 400.26082 
L 390.281693 400.128618 
L 390.585795 400.299027 
L 391.193998 400.13377 
L 391.4981 400.122021 
L 392.106303 399.434623 
L 392.714506 398.869529 
L 394.235015 396.07946 
L 394.539117 395.861298 
L 394.843218 395.849476 
L 395.14732 395.537356 
L 395.451422 395.646739 
L 395.755523 395.943534 
L 396.059625 396.065692 
L 396.363727 396.448469 
L 397.276032 398.538303 
L 397.884235 400.902471 
L 399.100642 407.523835 
L 403.966269 439.034197 
L 404.574473 442.072509 
L 405.790879 447.359701 
L 406.703184 450.660815 
L 407.007286 451.454274 
L 407.311388 452.576492 
L 407.61549 453.060113 
L 408.527795 455.347783 
L 409.135998 456.756938 
L 409.744201 458.435285 
L 410.656506 460.649058 
L 411.568812 463.239425 
L 412.785218 465.837155 
L 413.393422 467.452146 
L 413.697523 467.940001 
L 414.91393 470.814198 
L 416.434439 473.454548 
L 417.650845 475.37407 
L 418.563151 476.129739 
L 420.691862 479.021202 
L 420.995964 479.329137 
L 421.604168 480.245947 
L 423.732879 482.481279 
L 424.036981 483.053243 
L 425.861591 484.537275 
L 427.077998 486.090496 
L 427.686201 487.369153 
L 427.990303 487.700312 
L 428.294405 488.2175 
L 430.727218 494.438613 
L 431.943625 498.481603 
L 434.68054 505.71834 
L 435.592846 507.434191 
L 436.201049 508.408738 
L 436.809252 508.98376 
L 437.417456 509.371771 
L 437.721557 509.702807 
L 438.025659 509.834755 
L 440.154371 509.720205 
L 441.066676 509.436512 
L 441.674879 509.555533 
L 442.283083 509.787296 
L 442.891286 510.023956 
L 443.803591 510.800191 
L 446.844608 514.517233 
L 448.669219 516.289026 
L 449.581524 516.673947 
L 450.189727 516.780548 
L 452.014337 517.201888 
L 452.926642 517.202642 
L 453.838947 516.98018 
L 455.663558 516.400248 
L 456.271761 516.311788 
L 458.400473 516.147558 
L 459.920981 516.767127 
L 462.049693 518.569709 
L 464.482507 520.928087 
L 466.307117 522.158082 
L 467.523524 522.722976 
L 469.652236 523.217308 
L 470.564541 523.108213 
L 472.693253 522.55499 
L 473.909659 522.22558 
L 474.517863 522.071234 
L 476.342473 521.549526 
L 478.775286 521.518946 
L 481.512202 522.022215 
L 482.728609 522.305794 
L 486.377829 522.594624 
L 487.290134 522.500843 
L 489.722948 522.424738 
L 490.331151 522.383927 
L 491.547558 522.460781 
L 493.068066 522.646801 
L 494.588575 523.090131 
L 497.32549 524.162118 
L 499.454202 524.878001 
L 501.582914 525.223113 
L 503.407524 525.259826 
L 505.232134 525.11498 
L 511.314168 524.358678 
L 512.834676 524.416882 
L 515.875693 524.869542 
L 518.612609 525.300449 
L 521.957727 525.428312 
L 524.694643 525.551788 
L 531.688982 525.823513 
L 535.338202 525.696785 
L 539.291524 525.478421 
L 542.028439 525.648773 
L 545.069456 525.7919 
L 548.718677 525.740968 
L 550.543287 525.623636 
L 553.584304 525.478421 
L 560.882744 525.561841 
L 560.882744 525.561841 
" clip-path="url(#p4b11bc99e0)" style="fill: none; stroke: #377eb8; stroke-width: 1.142857"/>
   </g>
   <g id="line2d_27">
    <path d="M 299.912798 525.85 
L 308.464713 525.744386 
L 310.0484 525.563464 
L 311.315351 525.264304 
L 312.265564 524.889869 
L 313.215776 524.297516 
L 314.165989 523.459191 
L 315.116202 522.262304 
L 316.066415 520.609351 
L 317.016627 518.428303 
L 317.96684 515.591708 
L 318.917053 511.991571 
L 320.184003 505.778618 
L 321.134216 500.206684 
L 322.401166 491.165768 
L 323.668117 480.72272 
L 326.202017 456.029633 
L 332.536769 389.892427 
L 335.070669 367.910707 
L 336.971095 353.761253 
L 339.821733 335.357227 
L 341.722159 325.694863 
L 343.622584 316.893554 
L 343.939322 315.930509 
L 345.839747 308.167534 
L 346.78996 305.115224 
L 347.740173 301.737361 
L 349.007123 297.922406 
L 350.274073 294.757037 
L 350.907549 293.493682 
L 352.174499 291.298644 
L 352.491237 291.172985 
L 353.441449 290.037375 
L 353.758187 290.218012 
L 354.074924 289.965534 
L 354.391662 290.0052 
L 354.7084 289.885487 
L 355.658612 290.274249 
L 356.608825 291.57335 
L 357.2423 293.163029 
L 357.559038 293.556237 
L 358.825988 296.883314 
L 359.776201 300.527264 
L 360.726414 304.738608 
L 361.359889 307.508955 
L 362.626839 313.937489 
L 363.577052 319.231288 
L 371.812229 366.848465 
L 375.296343 382.35603 
L 377.196768 388.958818 
L 377.513506 390.310783 
L 378.146981 391.805272 
L 379.413931 395.839466 
L 380.680881 399.091541 
L 382.581307 403.575508 
L 383.214782 405.225433 
L 383.848257 407.016772 
L 384.481732 408.20369 
L 388.282583 419.10208 
L 389.232796 421.819369 
L 391.449959 428.128768 
L 393.033647 433.119829 
L 395.567548 440.660644 
L 395.884285 441.240457 
L 397.467973 445.829462 
L 397.784711 446.457465 
L 399.368399 450.965903 
L 400.001874 452.476918 
L 401.268824 455.703349 
L 402.219037 457.935651 
L 402.852512 459.636916 
L 408.870526 473.443058 
L 409.504001 475.108092 
L 410.454214 477.725459 
L 412.037902 482.307608 
L 414.255065 488.873286 
L 415.205278 491.460427 
L 416.472228 495.032593 
L 419.322867 502.219684 
L 421.223292 505.838952 
L 422.490242 507.803535 
L 424.390668 509.93791 
L 425.974356 511.127891 
L 427.874781 512.254739 
L 428.824994 512.618546 
L 430.408682 512.905223 
L 431.358895 513.212691 
L 432.942583 513.660926 
L 433.25932 513.669311 
L 433.892795 513.968978 
L 435.476483 514.64753 
L 438.960597 516.204062 
L 440.227547 516.85595 
L 442.127973 517.551735 
L 446.245561 518.560886 
L 452.580313 519.480357 
L 456.697901 520.571675 
L 465.249816 523.068118 
L 468.417192 523.617436 
L 475.068681 524.099411 
L 481.086695 524.10821 
L 488.054922 523.97986 
L 491.222298 524.151234 
L 504.842014 524.940133 
L 513.077191 524.939818 
L 520.678893 524.906212 
L 550.135488 525.814393 
L 560.587829 525.849509 
L 560.587829 525.849509 
" clip-path="url(#p4b11bc99e0)" style="fill: none; stroke: #4daf4a; stroke-width: 1.142857"/>
   </g>
   <g id="patch_13">
    <path d="M 300.135609 525.85 
L 300.135609 266.525 
" style="fill: none; stroke: #000000; stroke-width: 0.8; stroke-linejoin: miter; stroke-linecap: square"/>
   </g>
   <g id="patch_14">
    <path d="M 560.581219 525.85 
L 560.581219 266.525 
" style="fill: none; stroke: #000000; stroke-width: 0.8; stroke-linejoin: miter; stroke-linecap: square"/>
   </g>
   <g id="patch_15">
    <path d="M 300.135609 525.85 
L 560.581219 525.85 
" style="fill: none; stroke: #000000; stroke-width: 0.8; stroke-linejoin: miter; stroke-linecap: square"/>
   </g>
   <g id="patch_16">
    <path d="M 300.135609 266.525 
L 560.581219 266.525 
" style="fill: none; stroke: #000000; stroke-width: 0.8; stroke-linejoin: miter; stroke-linecap: square"/>
   </g>
  </g>
  <g id="legend_1">
   <g id="patch_17">
    <path d="M 417.649969 61.38 
L 558.181219 61.38 
Q 560.581219 61.38 560.581219 58.98 
L 560.581219 9.6 
Q 560.581219 7.2 558.181219 7.2 
L 417.649969 7.2 
Q 415.249969 7.2 415.249969 9.6 
L 415.249969 58.98 
Q 415.249969 61.38 417.649969 61.38 
z
" style="fill: #ffffff; opacity: 0.9; stroke: #cccccc; stroke-linejoin: miter"/>
   </g>
   <g id="line2d_28">
    <path d="M 423.649969 16.36875 
L 432.049969 16.36875 
L 440.449969 16.36875 
" style="fill: none; stroke: #e41a1c; stroke-width: 1.142857"/>
   </g>
   <g id="text_15">
    <!-- Gaussian -->
    <g transform="translate(453.649969 20.56875) scale(0.12 -0.12)">
     <defs>
      <path id="HelveticaNeue-Medium-47" d="M 4474 0 
L 3962 0 
L 3840 538 
Q 3520 173 3200 32 
Q 2880 -109 2464 -109 
Q 1952 -109 1545 80 
Q 1139 269 857 595 
Q 576 922 425 1357 
Q 275 1792 275 2285 
Q 275 2771 425 3206 
Q 576 3642 857 3968 
Q 1139 4294 1545 4486 
Q 1952 4678 2464 4678 
Q 2835 4678 3171 4579 
Q 3507 4480 3769 4285 
Q 4032 4090 4205 3795 
Q 4378 3501 4422 3117 
L 3642 3117 
Q 3610 3341 3504 3510 
Q 3398 3680 3238 3795 
Q 3078 3910 2880 3968 
Q 2682 4026 2464 4026 
Q 2099 4026 1833 3878 
Q 1568 3731 1401 3484 
Q 1235 3238 1155 2924 
Q 1075 2611 1075 2285 
Q 1075 1958 1155 1644 
Q 1235 1331 1401 1084 
Q 1568 838 1833 691 
Q 2099 544 2464 544 
Q 2771 538 3008 624 
Q 3245 710 3408 873 
Q 3571 1037 3654 1273 
Q 3738 1510 3744 1798 
L 2528 1798 
L 2528 2406 
L 4474 2406 
L 4474 0 
z
" transform="scale(0.015625)"/>
      <path id="HelveticaNeue-Medium-75" d="M 3290 0 
L 2573 0 
L 2573 461 
L 2560 461 
Q 2426 211 2160 60 
Q 1894 -90 1619 -90 
Q 966 -90 675 233 
Q 384 557 384 1210 
L 384 3309 
L 1114 3309 
L 1114 1280 
Q 1114 845 1280 665 
Q 1446 486 1747 486 
Q 1978 486 2131 556 
Q 2285 627 2381 745 
Q 2477 864 2518 1030 
Q 2560 1197 2560 1389 
L 2560 3309 
L 3290 3309 
L 3290 0 
z
" transform="scale(0.015625)"/>
      <path id="HelveticaNeue-Medium-69" d="M 403 4570 
L 1133 4570 
L 1133 3878 
L 403 3878 
L 403 4570 
z
M 403 3309 
L 1133 3309 
L 1133 0 
L 403 0 
L 403 3309 
z
" transform="scale(0.015625)"/>
     </defs>
     <use xlink:href="#HelveticaNeue-Medium-47"/>
     <use xlink:href="#HelveticaNeue-Medium-61" x="75.899994"/>
     <use xlink:href="#HelveticaNeue-Medium-75" x="131.499985"/>
     <use xlink:href="#HelveticaNeue-Medium-73" x="188.899979"/>
     <use xlink:href="#HelveticaNeue-Medium-73" x="240.799973"/>
     <use xlink:href="#HelveticaNeue-Medium-69" x="292.699966"/>
     <use xlink:href="#HelveticaNeue-Medium-61" x="316.799957"/>
     <use xlink:href="#HelveticaNeue-Medium-6e" x="372.399948"/>
    </g>
   </g>
   <g id="line2d_29">
    <path d="M 423.649969 33.22875 
L 432.049969 33.22875 
L 440.449969 33.22875 
" style="fill: none; stroke: #377eb8; stroke-width: 1.142857"/>
   </g>
   <g id="text_16">
    <!-- Gaussian + Outlier -->
    <g transform="translate(453.649969 37.42875) scale(0.12 -0.12)">
     <defs>
      <path id="HelveticaNeue-Medium-20" transform="scale(0.015625)"/>
      <path id="HelveticaNeue-Medium-2b" d="M 1594 3238 
L 2246 3238 
L 2246 1946 
L 3533 1946 
L 3533 1293 
L 2246 1293 
L 2246 0 
L 1594 0 
L 1594 1293 
L 307 1293 
L 307 1946 
L 1594 1946 
L 1594 3238 
z
" transform="scale(0.015625)"/>
      <path id="HelveticaNeue-Medium-4f" d="M 2432 4026 
Q 2067 4026 1801 3878 
Q 1536 3731 1369 3484 
Q 1203 3238 1123 2924 
Q 1043 2611 1043 2285 
Q 1043 1958 1123 1644 
Q 1203 1331 1369 1084 
Q 1536 838 1801 691 
Q 2067 544 2432 544 
Q 2797 544 3062 691 
Q 3328 838 3494 1084 
Q 3661 1331 3741 1644 
Q 3821 1958 3821 2285 
Q 3821 2611 3741 2924 
Q 3661 3238 3494 3484 
Q 3328 3731 3062 3878 
Q 2797 4026 2432 4026 
z
M 2432 4678 
Q 2944 4678 3350 4486 
Q 3757 4294 4038 3968 
Q 4320 3642 4470 3206 
Q 4621 2771 4621 2285 
Q 4621 1792 4470 1357 
Q 4320 922 4038 595 
Q 3757 269 3350 80 
Q 2944 -109 2432 -109 
Q 1920 -109 1513 80 
Q 1107 269 825 595 
Q 544 922 393 1357 
Q 243 1792 243 2285 
Q 243 2771 393 3206 
Q 544 3642 825 3968 
Q 1107 4294 1513 4486 
Q 1920 4678 2432 4678 
z
" transform="scale(0.015625)"/>
      <path id="HelveticaNeue-Medium-6c" d="M 403 4570 
L 1133 4570 
L 1133 0 
L 403 0 
L 403 4570 
z
" transform="scale(0.015625)"/>
     </defs>
     <use xlink:href="#HelveticaNeue-Medium-47"/>
     <use xlink:href="#HelveticaNeue-Medium-61" x="75.899994"/>
     <use xlink:href="#HelveticaNeue-Medium-75" x="131.499985"/>
     <use xlink:href="#HelveticaNeue-Medium-73" x="188.899979"/>
     <use xlink:href="#HelveticaNeue-Medium-73" x="240.799973"/>
     <use xlink:href="#HelveticaNeue-Medium-69" x="292.699966"/>
     <use xlink:href="#HelveticaNeue-Medium-61" x="316.799957"/>
     <use xlink:href="#HelveticaNeue-Medium-6e" x="372.399948"/>
     <use xlink:href="#HelveticaNeue-Medium-20" x="429.799942"/>
     <use xlink:href="#HelveticaNeue-Medium-2b" x="457.59993"/>
     <use xlink:href="#HelveticaNeue-Medium-20" x="517.599915"/>
     <use xlink:href="#HelveticaNeue-Medium-4f" x="545.399902"/>
     <use xlink:href="#HelveticaNeue-Medium-75" x="621.399887"/>
     <use xlink:href="#HelveticaNeue-Medium-74" x="678.799881"/>
     <use xlink:href="#HelveticaNeue-Medium-6c" x="712.099869"/>
     <use xlink:href="#HelveticaNeue-Medium-69" x="736.19986"/>
     <use xlink:href="#HelveticaNeue-Medium-65" x="760.29985"/>
     <use xlink:href="#HelveticaNeue-Medium-72" x="815.899841"/>
    </g>
   </g>
   <g id="line2d_30">
    <path d="M 423.649969 50.08875 
L 432.049969 50.08875 
L 440.449969 50.08875 
" style="fill: none; stroke: #4daf4a; stroke-width: 1.142857"/>
   </g>
   <g id="text_17">
    <!-- Student-t -->
    <g transform="translate(453.649969 54.28875) scale(0.12 -0.12)">
     <defs>
      <path id="HelveticaNeue-Medium-53" d="M 1011 1523 
Q 1011 1261 1100 1075 
Q 1190 890 1350 771 
Q 1510 653 1718 598 
Q 1926 544 2170 544 
Q 2432 544 2617 605 
Q 2803 666 2918 762 
Q 3034 858 3085 982 
Q 3136 1107 3136 1235 
Q 3136 1498 3017 1622 
Q 2899 1747 2758 1798 
Q 2515 1888 2192 1968 
Q 1869 2048 1395 2176 
Q 1101 2253 905 2377 
Q 710 2502 595 2656 
Q 480 2810 432 2982 
Q 384 3155 384 3334 
Q 384 3680 528 3933 
Q 672 4186 909 4352 
Q 1146 4518 1446 4598 
Q 1747 4678 2054 4678 
Q 2413 4678 2729 4585 
Q 3046 4493 3286 4307 
Q 3526 4122 3667 3850 
Q 3808 3578 3808 3219 
L 3008 3219 
Q 2976 3661 2707 3843 
Q 2438 4026 2022 4026 
Q 1882 4026 1734 3997 
Q 1587 3968 1465 3901 
Q 1344 3834 1264 3718 
Q 1184 3603 1184 3430 
Q 1184 3187 1334 3049 
Q 1485 2912 1728 2842 
Q 1754 2835 1930 2787 
Q 2106 2739 2323 2681 
Q 2541 2624 2749 2569 
Q 2957 2515 3046 2490 
Q 3270 2419 3436 2297 
Q 3603 2176 3715 2019 
Q 3827 1862 3881 1683 
Q 3936 1504 3936 1325 
Q 3936 941 3779 669 
Q 3622 397 3366 224 
Q 3110 51 2784 -29 
Q 2458 -109 2118 -109 
Q 1728 -109 1382 -13 
Q 1037 83 781 281 
Q 525 480 371 790 
Q 218 1101 211 1523 
L 1011 1523 
z
" transform="scale(0.015625)"/>
      <path id="HelveticaNeue-Medium-64" d="M 3501 0 
L 2810 0 
L 2810 448 
L 2797 448 
Q 2650 160 2368 35 
Q 2086 -90 1773 -90 
Q 1382 -90 1091 48 
Q 800 186 608 422 
Q 416 659 320 982 
Q 224 1306 224 1677 
Q 224 2125 345 2451 
Q 467 2778 668 2989 
Q 870 3200 1129 3299 
Q 1389 3398 1658 3398 
Q 1811 3398 1971 3369 
Q 2131 3341 2278 3277 
Q 2426 3213 2550 3113 
Q 2675 3014 2758 2880 
L 2771 2880 
L 2771 4570 
L 3501 4570 
L 3501 0 
z
M 954 1619 
Q 954 1408 1008 1203 
Q 1062 998 1174 838 
Q 1286 678 1459 582 
Q 1632 486 1869 486 
Q 2112 486 2288 588 
Q 2464 691 2576 857 
Q 2688 1024 2742 1232 
Q 2797 1440 2797 1658 
Q 2797 2208 2550 2515 
Q 2304 2822 1882 2822 
Q 1626 2822 1450 2716 
Q 1274 2611 1162 2441 
Q 1050 2272 1002 2057 
Q 954 1843 954 1619 
z
" transform="scale(0.015625)"/>
      <path id="HelveticaNeue-Medium-2d" d="M 314 2086 
L 2176 2086 
L 2176 1395 
L 314 1395 
L 314 2086 
z
" transform="scale(0.015625)"/>
     </defs>
     <use xlink:href="#HelveticaNeue-Medium-53"/>
     <use xlink:href="#HelveticaNeue-Medium-74" x="64.799988"/>
     <use xlink:href="#HelveticaNeue-Medium-75" x="98.099976"/>
     <use xlink:href="#HelveticaNeue-Medium-64" x="155.499969"/>
     <use xlink:href="#HelveticaNeue-Medium-65" x="216.59996"/>
     <use xlink:href="#HelveticaNeue-Medium-6e" x="272.199951"/>
     <use xlink:href="#HelveticaNeue-Medium-74" x="329.599945"/>
     <use xlink:href="#HelveticaNeue-Medium-2d" x="362.899933"/>
     <use xlink:href="#HelveticaNeue-Medium-74" x="401.799927"/>
    </g>
   </g>
  </g>
 </g>
 <defs>
  <clipPath id="p7a07c7e6e5">
   <rect x="39.69" y="266.525" width="260.445609" height="259.325"/>
  </clipPath>
  <clipPath id="p47da4abab6">
   <rect x="39.69" y="7.2" width="260.445609" height="259.325"/>
  </clipPath>
  <clipPath id="p4b11bc99e0">
   <rect x="300.135609" y="266.525" width="260.445609" height="259.325"/>
  </clipPath>
 </defs>
</svg>
