<?xml version="1.0" encoding="utf-8" standalone="no"?>
<!DOCTYPE svg PUBLIC "-//W3C//DTD SVG 1.1//EN"
  "http://www.w3.org/Graphics/SVG/1.1/DTD/svg11.dtd">
<svg height="311.432312pt" version="1.1" viewBox="0 0 402.829375 311.432312" width="402.829375pt" xmlns="http://www.w3.org/2000/svg" xmlns:xlink="http://www.w3.org/1999/xlink">
 <metadata>
  <rdf:RDF xmlns:cc="http://creativecommons.org/ns#" xmlns:dc="http://purl.org/dc/elements/1.1/" xmlns:rdf="http://www.w3.org/1999/02/22-rdf-syntax-ns#">
   <cc:Work>
    <dc:type rdf:resource="http://purl.org/dc/dcmitype/StillImage"/>
    <dc:date>2022-07-15T13:18:10.546479</dc:date>
    <dc:format>image/svg+xml</dc:format>
    <dc:creator>
     <cc:Agent>
      <dc:title>Matplotlib v3.4.2, https://matplotlib.org/</dc:title>
     </cc:Agent>
    </dc:creator>
   </cc:Work>
  </rdf:RDF>
 </metadata>
 <defs>
  <style type="text/css">*{stroke-linecap:butt;stroke-linejoin:round;}</style>
 </defs>
 <g id="figure_1">
  <g id="patch_1">
   <path d="M 0 311.432312 
L 402.829375 311.432312 
L 402.829375 0 
L 0 0 
z
" style="fill:#ffffff;"/>
  </g>
  <g id="axes_1">
   <g id="patch_2">
    <path d="M 36.759375 276.882312 
L 393.879375 276.882312 
L 393.879375 10.770312 
L 36.759375 10.770312 
z
" style="fill:#ffffff;"/>
   </g>
   <g id="PolyCollection_1">
    <defs>
     <path d="M 52.992102 -35.354099 
L 52.992102 -34.544678 
L 58.06483 -34.544678 
L 63.137557 -34.544678 
L 68.210284 -34.544678 
L 73.283011 -34.544678 
L 78.355739 -34.544678 
L 83.428466 -34.544678 
L 88.501193 -34.544678 
L 93.57392 -34.544678 
L 98.646648 -34.544678 
L 103.719375 -34.544678 
L 108.792102 -34.544678 
L 113.86483 -34.544678 
L 118.937557 -34.544678 
L 124.010284 -34.544678 
L 129.083011 -34.544678 
L 134.155739 -34.544678 
L 139.228466 -34.544678 
L 144.301193 -34.544678 
L 149.37392 -40.114754 
L 154.446648 -58.858481 
L 159.519375 -89.225587 
L 164.592102 -119.460269 
L 169.66483 -150.357629 
L 174.737557 -179.120396 
L 179.810284 -195.910382 
L 184.883011 -201.930715 
L 189.955739 -199.112362 
L 195.028466 -175.836405 
L 200.101193 -150.327556 
L 205.17392 -124.579434 
L 210.246648 -86.555075 
L 215.319375 -75.410277 
L 220.392102 -70.062382 
L 225.46483 -56.853779 
L 230.537557 -49.543044 
L 235.610284 -45.374355 
L 240.683011 -42.031869 
L 245.755739 -37.321942 
L 250.828466 -34.544678 
L 255.901193 -34.544678 
L 260.97392 -34.544678 
L 266.046648 -34.544678 
L 271.119375 -34.544678 
L 276.192102 -34.544678 
L 281.26483 -34.544678 
L 286.337557 -34.544678 
L 291.410284 -34.544678 
L 296.483011 -34.544678 
L 301.555739 -34.544678 
L 306.628466 -34.544678 
L 311.701193 -34.544678 
L 316.77392 -34.544678 
L 321.846648 -34.544678 
L 326.919375 -34.544678 
L 331.992102 -34.544678 
L 337.06483 -34.544678 
L 342.137557 -34.544678 
L 347.210284 -34.544678 
L 352.283011 -34.544678 
L 357.355739 -34.544678 
L 362.428466 -34.544678 
L 367.501193 -34.544678 
L 372.57392 -34.544678 
L 377.646648 -34.544678 
L 377.646648 -35.87556 
L 377.646648 -35.87556 
L 372.57392 -35.746424 
L 367.501193 -34.978247 
L 362.428466 -35.358591 
L 357.355739 -35.136034 
L 352.283011 -35.332677 
L 347.210284 -35.529928 
L 342.137557 -35.211147 
L 337.06483 -34.956945 
L 331.992102 -35.049846 
L 326.919375 -35.31283 
L 321.846648 -35.699563 
L 316.77392 -35.813241 
L 311.701193 -35.55305 
L 306.628466 -35.710912 
L 301.555739 -35.725991 
L 296.483011 -35.720142 
L 291.410284 -35.53023 
L 286.337557 -36.25267 
L 281.26483 -36.461117 
L 276.192102 -36.19168 
L 271.119375 -37.010979 
L 266.046648 -38.448667 
L 260.97392 -40.064993 
L 255.901193 -42.854595 
L 250.828466 -45.64041 
L 245.755739 -46.712483 
L 240.683011 -53.56122 
L 235.610284 -60.431783 
L 230.537557 -72.689523 
L 225.46483 -83.464492 
L 220.392102 -93.177591 
L 215.319375 -112.754323 
L 210.246648 -139.885448 
L 205.17392 -167.470985 
L 200.101193 -191.982833 
L 195.028466 -218.284791 
L 189.955739 -231.881662 
L 184.883011 -239.444893 
L 179.810284 -235.474423 
L 174.737557 -212.662051 
L 169.66483 -186.682846 
L 164.592102 -153.916245 
L 159.519375 -117.09338 
L 154.446648 -85.965947 
L 149.37392 -63.291126 
L 144.301193 -46.020071 
L 139.228466 -36.514477 
L 134.155739 -35.861371 
L 129.083011 -36.169278 
L 124.010284 -35.737176 
L 118.937557 -37.070203 
L 113.86483 -37.559798 
L 108.792102 -37.601119 
L 103.719375 -37.443932 
L 98.646648 -37.082929 
L 93.57392 -35.728314 
L 88.501193 -35.269082 
L 83.428466 -34.965727 
L 78.355739 -35.618637 
L 73.283011 -35.643238 
L 68.210284 -35.774019 
L 63.137557 -35.729261 
L 58.06483 -35.491365 
L 52.992102 -35.354099 
z
" id="m9c41e5a1cf" style="stroke:#ff0000;stroke-opacity:0.1;"/>
    </defs>
    <g clip-path="url(#p39409d3de6)">
     <use style="fill:#ff0000;fill-opacity:0.1;stroke:#ff0000;stroke-opacity:0.1;" x="0" xlink:href="#m9c41e5a1cf" y="311.432312"/>
    </g>
   </g>
   <g id="matplotlib.axis_1">
    <g id="xtick_1">
     <g id="line2d_1">
      <defs>
       <path d="M 0 1.75 
L 0 -1.75 
" id="m3479aa2edb" style="stroke:#000000;stroke-width:0.8;"/>
      </defs>
      <g>
       <use style="stroke:#000000;stroke-width:0.8;" x="78.622724" xlink:href="#m3479aa2edb" y="276.882312"/>
      </g>
     </g>
     <g id="line2d_2">
      <g>
       <use style="stroke:#000000;stroke-width:0.8;" x="78.622724" xlink:href="#m3479aa2edb" y="10.770312"/>
      </g>
     </g>
     <g id="text_1">
      <!-- 0.025 -->
      <g transform="translate(66.114131 289.272937)scale(0.1 -0.1)">
       <defs>
        <path d="M 1779 518 
C 1139 518 960 1306 960 2240 
C 960 3174 1139 3962 1779 3962 
C 2419 3962 2598 3174 2598 2240 
C 2598 1306 2419 518 1779 518 
z
M 1779 4570 
C 493 4570 230 3258 230 2240 
C 230 1222 493 -90 1779 -90 
C 3066 -90 3328 1222 3328 2240 
C 3328 3258 3066 4570 1779 4570 
z
" id="HelveticaNeue-Medium-30" transform="scale(0.015625)"/>
        <path d="M 442 0 
L 1331 0 
L 1331 864 
L 442 864 
L 442 0 
z
" id="HelveticaNeue-Medium-2e" transform="scale(0.015625)"/>
        <path d="M 3309 653 
L 1126 653 
C 1254 1050 1798 1325 2317 1683 
C 2829 2042 3315 2483 3315 3194 
C 3315 3770 2970 4570 1875 4570 
C 877 4570 333 3834 333 2842 
L 1062 2842 
C 1082 3469 1254 3962 1830 3962 
C 2458 3962 2592 3488 2586 3168 
C 2573 2470 1818 2118 1235 1696 
C 634 1293 256 736 250 0 
L 3309 0 
L 3309 653 
z
" id="HelveticaNeue-Medium-32" transform="scale(0.015625)"/>
        <path d="M 307 2029 
L 1037 2029 
C 1152 2342 1453 2438 1760 2438 
C 2349 2438 2611 1997 2611 1504 
C 2611 960 2400 518 1779 518 
C 1306 518 998 794 954 1274 
L 224 1274 
C 256 378 928 -90 1792 -90 
C 2893 -90 3341 800 3341 1517 
C 3341 2374 2829 3014 1939 3014 
C 1638 3014 1312 2893 1114 2675 
L 1101 2688 
L 1331 3827 
L 3104 3827 
L 3104 4480 
L 787 4480 
L 307 2029 
z
" id="HelveticaNeue-Medium-35" transform="scale(0.015625)"/>
       </defs>
       <use xlink:href="#HelveticaNeue-Medium-30"/>
       <use x="55.599991" xlink:href="#HelveticaNeue-Medium-2e"/>
       <use x="83.399979" xlink:href="#HelveticaNeue-Medium-30"/>
       <use x="138.999969" xlink:href="#HelveticaNeue-Medium-32"/>
       <use x="194.59996" xlink:href="#HelveticaNeue-Medium-35"/>
      </g>
     </g>
    </g>
    <g id="xtick_2">
     <g id="line2d_3">
      <g>
       <use style="stroke:#000000;stroke-width:0.8;" x="121.340428" xlink:href="#m3479aa2edb" y="276.882312"/>
      </g>
     </g>
     <g id="line2d_4">
      <g>
       <use style="stroke:#000000;stroke-width:0.8;" x="121.340428" xlink:href="#m3479aa2edb" y="10.770312"/>
      </g>
     </g>
     <g id="text_2">
      <!-- 0.050 -->
      <g transform="translate(108.831834 289.272937)scale(0.1 -0.1)">
       <use xlink:href="#HelveticaNeue-Medium-30"/>
       <use x="55.599991" xlink:href="#HelveticaNeue-Medium-2e"/>
       <use x="83.399979" xlink:href="#HelveticaNeue-Medium-30"/>
       <use x="138.999969" xlink:href="#HelveticaNeue-Medium-35"/>
       <use x="194.59996" xlink:href="#HelveticaNeue-Medium-30"/>
      </g>
     </g>
    </g>
    <g id="xtick_3">
     <g id="line2d_5">
      <g>
       <use style="stroke:#000000;stroke-width:0.8;" x="164.058131" xlink:href="#m3479aa2edb" y="276.882312"/>
      </g>
     </g>
     <g id="line2d_6">
      <g>
       <use style="stroke:#000000;stroke-width:0.8;" x="164.058131" xlink:href="#m3479aa2edb" y="10.770312"/>
      </g>
     </g>
     <g id="text_3">
      <!-- 0.075 -->
      <g transform="translate(151.549537 289.272937)scale(0.1 -0.1)">
       <defs>
        <path d="M 224 3827 
L 2547 3827 
C 1626 2790 915 1414 819 0 
L 1619 0 
C 1734 1619 2355 2816 3290 3872 
L 3290 4480 
L 224 4480 
L 224 3827 
z
" id="HelveticaNeue-Medium-37" transform="scale(0.015625)"/>
       </defs>
       <use xlink:href="#HelveticaNeue-Medium-30"/>
       <use x="55.599991" xlink:href="#HelveticaNeue-Medium-2e"/>
       <use x="83.399979" xlink:href="#HelveticaNeue-Medium-30"/>
       <use x="138.999969" xlink:href="#HelveticaNeue-Medium-37"/>
       <use x="194.59996" xlink:href="#HelveticaNeue-Medium-35"/>
      </g>
     </g>
    </g>
    <g id="xtick_4">
     <g id="line2d_7">
      <g>
       <use style="stroke:#000000;stroke-width:0.8;" x="206.775834" xlink:href="#m3479aa2edb" y="276.882312"/>
      </g>
     </g>
     <g id="line2d_8">
      <g>
       <use style="stroke:#000000;stroke-width:0.8;" x="206.775834" xlink:href="#m3479aa2edb" y="10.770312"/>
      </g>
     </g>
     <g id="text_4">
      <!-- 0.100 -->
      <g transform="translate(194.267241 289.272937)scale(0.1 -0.1)">
       <defs>
        <path d="M 339 3162 
L 1440 3162 
L 1440 0 
L 2240 0 
L 2240 4480 
L 1645 4480 
C 1536 3942 954 3731 339 3738 
L 339 3162 
z
" id="HelveticaNeue-Medium-31" transform="scale(0.015625)"/>
       </defs>
       <use xlink:href="#HelveticaNeue-Medium-30"/>
       <use x="55.599991" xlink:href="#HelveticaNeue-Medium-2e"/>
       <use x="83.399979" xlink:href="#HelveticaNeue-Medium-31"/>
       <use x="138.999969" xlink:href="#HelveticaNeue-Medium-30"/>
       <use x="194.59996" xlink:href="#HelveticaNeue-Medium-30"/>
      </g>
     </g>
    </g>
    <g id="xtick_5">
     <g id="line2d_9">
      <g>
       <use style="stroke:#000000;stroke-width:0.8;" x="249.493538" xlink:href="#m3479aa2edb" y="276.882312"/>
      </g>
     </g>
     <g id="line2d_10">
      <g>
       <use style="stroke:#000000;stroke-width:0.8;" x="249.493538" xlink:href="#m3479aa2edb" y="10.770312"/>
      </g>
     </g>
     <g id="text_5">
      <!-- 0.125 -->
      <g transform="translate(236.984944 289.272937)scale(0.1 -0.1)">
       <use xlink:href="#HelveticaNeue-Medium-30"/>
       <use x="55.599991" xlink:href="#HelveticaNeue-Medium-2e"/>
       <use x="83.399979" xlink:href="#HelveticaNeue-Medium-31"/>
       <use x="138.999969" xlink:href="#HelveticaNeue-Medium-32"/>
       <use x="194.59996" xlink:href="#HelveticaNeue-Medium-35"/>
      </g>
     </g>
    </g>
    <g id="xtick_6">
     <g id="line2d_11">
      <g>
       <use style="stroke:#000000;stroke-width:0.8;" x="292.211241" xlink:href="#m3479aa2edb" y="276.882312"/>
      </g>
     </g>
     <g id="line2d_12">
      <g>
       <use style="stroke:#000000;stroke-width:0.8;" x="292.211241" xlink:href="#m3479aa2edb" y="10.770312"/>
      </g>
     </g>
     <g id="text_6">
      <!-- 0.150 -->
      <g transform="translate(279.702647 289.272937)scale(0.1 -0.1)">
       <use xlink:href="#HelveticaNeue-Medium-30"/>
       <use x="55.599991" xlink:href="#HelveticaNeue-Medium-2e"/>
       <use x="83.399979" xlink:href="#HelveticaNeue-Medium-31"/>
       <use x="138.999969" xlink:href="#HelveticaNeue-Medium-35"/>
       <use x="194.59996" xlink:href="#HelveticaNeue-Medium-30"/>
      </g>
     </g>
    </g>
    <g id="xtick_7">
     <g id="line2d_13">
      <g>
       <use style="stroke:#000000;stroke-width:0.8;" x="334.928944" xlink:href="#m3479aa2edb" y="276.882312"/>
      </g>
     </g>
     <g id="line2d_14">
      <g>
       <use style="stroke:#000000;stroke-width:0.8;" x="334.928944" xlink:href="#m3479aa2edb" y="10.770312"/>
      </g>
     </g>
     <g id="text_7">
      <!-- 0.175 -->
      <g transform="translate(322.420351 289.272937)scale(0.1 -0.1)">
       <use xlink:href="#HelveticaNeue-Medium-30"/>
       <use x="55.599991" xlink:href="#HelveticaNeue-Medium-2e"/>
       <use x="83.399979" xlink:href="#HelveticaNeue-Medium-31"/>
       <use x="138.999969" xlink:href="#HelveticaNeue-Medium-37"/>
       <use x="194.59996" xlink:href="#HelveticaNeue-Medium-35"/>
      </g>
     </g>
    </g>
    <g id="xtick_8">
     <g id="line2d_15">
      <g>
       <use style="stroke:#000000;stroke-width:0.8;" x="377.646648" xlink:href="#m3479aa2edb" y="276.882312"/>
      </g>
     </g>
     <g id="line2d_16">
      <g>
       <use style="stroke:#000000;stroke-width:0.8;" x="377.646648" xlink:href="#m3479aa2edb" y="10.770312"/>
      </g>
     </g>
     <g id="text_8">
      <!-- 0.200 -->
      <g transform="translate(365.138054 289.272937)scale(0.1 -0.1)">
       <use xlink:href="#HelveticaNeue-Medium-30"/>
       <use x="55.599991" xlink:href="#HelveticaNeue-Medium-2e"/>
       <use x="83.399979" xlink:href="#HelveticaNeue-Medium-32"/>
       <use x="138.999969" xlink:href="#HelveticaNeue-Medium-30"/>
       <use x="194.59996" xlink:href="#HelveticaNeue-Medium-30"/>
      </g>
     </g>
    </g>
    <g id="text_9">
     <!-- $\sigma$ -->
     <g transform="translate(212.119375 302.322937)scale(0.1 -0.1)">
      <defs>
       <path d="M 2219 3044 
Q 1744 3044 1422 2700 
Q 1081 2341 969 1747 
Q 844 1119 1044 756 
Q 1241 397 1706 397 
Q 2166 397 2503 759 
Q 2844 1122 2966 1747 
Q 3075 2319 2881 2700 
Q 2700 3044 2219 3044 
z
M 2309 3503 
L 4219 3500 
L 4106 2925 
L 3463 2925 
Q 3706 2438 3575 1747 
Q 3406 888 2884 400 
Q 2359 -91 1609 -91 
Q 856 -91 525 400 
Q 194 888 363 1747 
Q 528 2609 1050 3097 
Q 1484 3503 2309 3503 
z
" id="DejaVuSans-Oblique-3c3" transform="scale(0.015625)"/>
      </defs>
      <use transform="translate(0 0.265625)" xlink:href="#DejaVuSans-Oblique-3c3"/>
     </g>
    </g>
   </g>
   <g id="matplotlib.axis_2">
    <g id="ytick_1">
     <g id="line2d_17">
      <defs>
       <path d="M 1.75 0 
L -1.75 -0 
" id="m79e2b68d42" style="stroke:#000000;stroke-width:0.8;"/>
      </defs>
      <g>
       <use style="stroke:#000000;stroke-width:0.8;" x="36.759375" xlink:href="#m79e2b68d42" y="223.66417"/>
      </g>
     </g>
     <g id="line2d_18">
      <g>
       <use style="stroke:#000000;stroke-width:0.8;" x="393.879375" xlink:href="#m79e2b68d42" y="223.66417"/>
      </g>
     </g>
     <g id="text_10">
      <!-- 10 -->
      <g transform="translate(20.390625 227.234483)scale(0.1 -0.1)">
       <use xlink:href="#HelveticaNeue-Medium-31"/>
       <use x="55.599991" xlink:href="#HelveticaNeue-Medium-30"/>
      </g>
     </g>
    </g>
    <g id="ytick_2">
     <g id="line2d_19">
      <g>
       <use style="stroke:#000000;stroke-width:0.8;" x="36.759375" xlink:href="#m79e2b68d42" y="170.440706"/>
      </g>
     </g>
     <g id="line2d_20">
      <g>
       <use style="stroke:#000000;stroke-width:0.8;" x="393.879375" xlink:href="#m79e2b68d42" y="170.440706"/>
      </g>
     </g>
     <g id="text_11">
      <!-- 20 -->
      <g transform="translate(20.390625 174.011018)scale(0.1 -0.1)">
       <use xlink:href="#HelveticaNeue-Medium-32"/>
       <use x="55.599991" xlink:href="#HelveticaNeue-Medium-30"/>
      </g>
     </g>
    </g>
    <g id="ytick_3">
     <g id="line2d_21">
      <g>
       <use style="stroke:#000000;stroke-width:0.8;" x="36.759375" xlink:href="#m79e2b68d42" y="117.217241"/>
      </g>
     </g>
     <g id="line2d_22">
      <g>
       <use style="stroke:#000000;stroke-width:0.8;" x="393.879375" xlink:href="#m79e2b68d42" y="117.217241"/>
      </g>
     </g>
     <g id="text_12">
      <!-- 30 -->
      <g transform="translate(20.390625 120.787554)scale(0.1 -0.1)">
       <defs>
        <path d="M 1459 2080 
C 2035 2106 2630 2016 2630 1318 
C 2630 806 2259 518 1773 518 
C 1203 518 909 928 928 1472 
L 198 1472 
C 218 538 736 -90 1773 -90 
C 2630 -90 3360 435 3360 1280 
C 3360 1856 3053 2298 2547 2400 
L 2547 2413 
C 2976 2566 3181 2925 3181 3373 
C 3181 4166 2464 4570 1766 4570 
C 864 4570 320 3917 282 3046 
L 1011 3046 
C 998 3507 1248 3962 1754 3962 
C 2157 3962 2451 3706 2451 3328 
C 2451 2778 1946 2605 1459 2624 
L 1459 2080 
z
" id="HelveticaNeue-Medium-33" transform="scale(0.015625)"/>
       </defs>
       <use xlink:href="#HelveticaNeue-Medium-33"/>
       <use x="55.599991" xlink:href="#HelveticaNeue-Medium-30"/>
      </g>
     </g>
    </g>
    <g id="ytick_4">
     <g id="line2d_23">
      <g>
       <use style="stroke:#000000;stroke-width:0.8;" x="36.759375" xlink:href="#m79e2b68d42" y="63.993777"/>
      </g>
     </g>
     <g id="line2d_24">
      <g>
       <use style="stroke:#000000;stroke-width:0.8;" x="393.879375" xlink:href="#m79e2b68d42" y="63.993777"/>
      </g>
     </g>
     <g id="text_13">
      <!-- 40 -->
      <g transform="translate(20.390625 67.564089)scale(0.1 -0.1)">
       <defs>
        <path d="M 3341 1638 
L 2765 1638 
L 2765 4480 
L 2074 4480 
L 154 1786 
L 154 1062 
L 2074 1062 
L 2074 0 
L 2765 0 
L 2765 1062 
L 3341 1062 
L 3341 1638 
z
M 2061 3610 
L 2074 3610 
L 2074 1638 
L 717 1638 
L 2061 3610 
z
" id="HelveticaNeue-Medium-34" transform="scale(0.015625)"/>
       </defs>
       <use xlink:href="#HelveticaNeue-Medium-34"/>
       <use x="55.599991" xlink:href="#HelveticaNeue-Medium-30"/>
      </g>
     </g>
    </g>
    <g id="ytick_5">
     <g id="line2d_25">
      <g>
       <use style="stroke:#000000;stroke-width:0.8;" x="36.759375" xlink:href="#m79e2b68d42" y="10.770312"/>
      </g>
     </g>
     <g id="line2d_26">
      <g>
       <use style="stroke:#000000;stroke-width:0.8;" x="393.879375" xlink:href="#m79e2b68d42" y="10.770312"/>
      </g>
     </g>
     <g id="text_14">
      <!-- 50 -->
      <g transform="translate(20.390625 14.340625)scale(0.1 -0.1)">
       <use xlink:href="#HelveticaNeue-Medium-35"/>
       <use x="55.599991" xlink:href="#HelveticaNeue-Medium-30"/>
      </g>
     </g>
    </g>
    <g id="text_15">
     <!-- Posterior probability -->
     <g transform="translate(14.340625 190.788812)rotate(-90)scale(0.1 -0.1)">
      <defs>
       <path d="M 1286 3917 
L 2470 3917 
C 2893 3917 3258 3763 3258 3162 
C 3258 2586 2816 2406 2458 2406 
L 1286 2406 
L 1286 3917 
z
M 486 0 
L 1286 0 
L 1286 1754 
L 2502 1754 
C 3808 1747 4058 2592 4058 3155 
C 4058 3725 3808 4570 2502 4570 
L 486 4570 
L 486 0 
z
" id="HelveticaNeue-Medium-50" transform="scale(0.015625)"/>
       <path d="M 1901 486 
C 1248 486 960 1082 960 1658 
C 960 2227 1248 2822 1901 2822 
C 2554 2822 2842 2227 2842 1658 
C 2842 1082 2554 486 1901 486 
z
M 1901 -90 
C 2963 -90 3571 640 3571 1658 
C 3571 2669 2963 3398 1901 3398 
C 838 3398 230 2669 230 1658 
C 230 640 838 -90 1901 -90 
z
" id="HelveticaNeue-Medium-6f" transform="scale(0.015625)"/>
       <path d="M 205 1062 
C 218 282 838 -90 1670 -90 
C 2355 -90 3149 198 3149 986 
C 3149 1638 2611 1830 2080 1952 
C 1542 2074 1005 2125 1005 2483 
C 1005 2771 1395 2822 1606 2822 
C 1926 2822 2214 2726 2278 2381 
L 3040 2381 
C 2950 3117 2336 3398 1658 3398 
C 1056 3398 275 3174 275 2451 
C 275 1779 800 1587 1338 1472 
C 1869 1350 2400 1306 2419 922 
C 2438 544 1958 486 1683 486 
C 1293 486 973 640 934 1062 
L 205 1062 
z
" id="HelveticaNeue-Medium-73" transform="scale(0.015625)"/>
       <path d="M 51 2765 
L 602 2765 
L 602 813 
C 614 262 755 -32 1517 -32 
C 1677 -32 1830 -6 1990 6 
L 1990 570 
C 1888 544 1786 544 1683 544 
C 1357 544 1331 698 1331 998 
L 1331 2765 
L 1990 2765 
L 1990 3309 
L 1331 3309 
L 1331 4301 
L 602 4301 
L 602 3309 
L 51 3309 
L 51 2765 
z
" id="HelveticaNeue-Medium-74" transform="scale(0.015625)"/>
       <path d="M 3386 1466 
C 3507 2458 2867 3398 1824 3398 
C 838 3398 224 2592 224 1651 
C 224 634 806 -90 1843 -90 
C 2566 -90 3181 314 3341 1037 
L 2650 1037 
C 2522 672 2266 486 1843 486 
C 1235 486 954 947 954 1466 
L 3386 1466 
z
M 954 1946 
C 973 2438 1318 2822 1824 2822 
C 2317 2822 2630 2406 2656 1946 
L 954 1946 
z
" id="HelveticaNeue-Medium-65" transform="scale(0.015625)"/>
       <path d="M 384 0 
L 1114 0 
L 1114 1574 
C 1114 2304 1510 2707 2010 2707 
C 2112 2707 2221 2688 2323 2675 
L 2323 3379 
C 2259 3386 2214 3398 2048 3398 
C 1600 3398 1165 3021 1082 2669 
L 1069 2669 
L 1069 3309 
L 384 3309 
L 384 0 
z
" id="HelveticaNeue-Medium-72" transform="scale(0.015625)"/>
       <path d="M 403 0 
L 1133 0 
L 1133 3309 
L 403 3309 
L 403 0 
z
M 403 3878 
L 1133 3878 
L 1133 4570 
L 403 4570 
L 403 3878 
z
" id="HelveticaNeue-Medium-69" transform="scale(0.015625)"/>
       <path id="HelveticaNeue-Medium-20" transform="scale(0.015625)"/>
       <path d="M 2950 1651 
C 2950 1075 2701 486 2035 486 
C 1446 486 1107 986 1107 1651 
C 1107 2355 1421 2822 2035 2822 
C 2637 2822 2950 2253 2950 1651 
z
M 403 -1222 
L 1133 -1222 
L 1133 429 
L 1146 429 
C 1376 64 1830 -90 2253 -90 
C 3232 -90 3680 749 3680 1638 
C 3680 2605 3174 3398 2131 3398 
C 1709 3398 1312 3238 1107 2861 
L 1094 2861 
L 1094 3309 
L 403 3309 
L 403 -1222 
z
" id="HelveticaNeue-Medium-70" transform="scale(0.015625)"/>
       <path d="M 2950 1651 
C 2950 1075 2701 486 2035 486 
C 1446 486 1107 986 1107 1651 
C 1107 2355 1421 2822 2035 2822 
C 2637 2822 2950 2253 2950 1651 
z
M 403 0 
L 1094 0 
L 1094 454 
L 1107 454 
C 1325 19 1805 -90 2253 -90 
C 3232 -90 3680 749 3680 1638 
C 3680 2605 3174 3398 2131 3398 
C 1760 3398 1344 3200 1146 2880 
L 1133 2880 
L 1133 4570 
L 403 4570 
L 403 0 
z
" id="HelveticaNeue-Medium-62" transform="scale(0.015625)"/>
       <path d="M 2426 1114 
C 2426 653 1926 486 1606 486 
C 1350 486 934 582 934 909 
C 934 1293 1216 1408 1530 1459 
C 1850 1517 2202 1510 2426 1658 
L 2426 1114 
z
M 3155 2438 
C 3155 3136 2477 3398 1830 3398 
C 1101 3398 378 3149 326 2298 
L 1056 2298 
C 1088 2656 1376 2822 1786 2822 
C 2080 2822 2470 2752 2470 2374 
C 2470 1946 2003 2003 1478 1907 
C 864 1837 205 1702 205 877 
C 205 230 742 -90 1338 -90 
C 1728 -90 2195 32 2483 314 
C 2541 13 2752 -90 3046 -90 
C 3168 -90 3398 -45 3507 -6 
L 3507 499 
C 3430 486 3373 486 3328 486 
C 3194 486 3155 557 3155 736 
L 3155 2438 
z
" id="HelveticaNeue-Medium-61" transform="scale(0.015625)"/>
       <path d="M 403 0 
L 1133 0 
L 1133 4570 
L 403 4570 
L 403 0 
z
" id="HelveticaNeue-Medium-6c" transform="scale(0.015625)"/>
       <path d="M 1274 13 
L 1190 -243 
C 1101 -525 1018 -704 678 -704 
C 563 -704 448 -678 333 -659 
L 333 -1274 
C 499 -1299 666 -1312 838 -1312 
C 1600 -1312 1773 -774 2010 -179 
L 3296 3309 
L 2534 3309 
L 1696 838 
L 1683 838 
L 819 3309 
L 19 3309 
L 1274 13 
z
" id="HelveticaNeue-Medium-79" transform="scale(0.015625)"/>
      </defs>
      <use xlink:href="#HelveticaNeue-Medium-50"/>
      <use x="66.699997" xlink:href="#HelveticaNeue-Medium-6f"/>
      <use x="125.999985" xlink:href="#HelveticaNeue-Medium-73"/>
      <use x="177.899979" xlink:href="#HelveticaNeue-Medium-74"/>
      <use x="211.199966" xlink:href="#HelveticaNeue-Medium-65"/>
      <use x="266.799957" xlink:href="#HelveticaNeue-Medium-72"/>
      <use x="301.999954" xlink:href="#HelveticaNeue-Medium-69"/>
      <use x="326.099945" xlink:href="#HelveticaNeue-Medium-6f"/>
      <use x="385.399933" xlink:href="#HelveticaNeue-Medium-72"/>
      <use x="420.59993" xlink:href="#HelveticaNeue-Medium-20"/>
      <use x="448.399918" xlink:href="#HelveticaNeue-Medium-70"/>
      <use x="509.499908" xlink:href="#HelveticaNeue-Medium-72"/>
      <use x="544.699905" xlink:href="#HelveticaNeue-Medium-6f"/>
      <use x="603.999893" xlink:href="#HelveticaNeue-Medium-62"/>
      <use x="665.099884" xlink:href="#HelveticaNeue-Medium-61"/>
      <use x="720.699875" xlink:href="#HelveticaNeue-Medium-62"/>
      <use x="781.799866" xlink:href="#HelveticaNeue-Medium-69"/>
      <use x="805.899857" xlink:href="#HelveticaNeue-Medium-6c"/>
      <use x="829.999847" xlink:href="#HelveticaNeue-Medium-69"/>
      <use x="854.099838" xlink:href="#HelveticaNeue-Medium-74"/>
      <use x="887.399826" xlink:href="#HelveticaNeue-Medium-79"/>
     </g>
    </g>
   </g>
   <g id="line2d_27">
    <path clip-path="url(#p39409d3de6)" d="M 52.992102 276.887635 
L 58.06483 276.393467 
L 63.137557 275.879269 
L 68.210284 276.17266 
L 73.283011 276.887635 
L 78.355739 276.887635 
L 83.428466 276.887635 
L 88.501193 276.887635 
L 93.57392 276.887635 
L 98.646648 276.887635 
L 103.719375 276.069887 
L 108.792102 274.600726 
L 113.86483 274.442944 
L 118.937557 276.017604 
L 124.010284 276.887635 
L 129.083011 276.887635 
L 134.155739 276.887635 
L 139.228466 276.887635 
L 144.301193 273.535987 
L 149.37392 258.078702 
L 154.446648 235.371597 
L 159.519375 206.926505 
L 164.592102 175.636863 
L 169.66483 145.307942 
L 174.737557 119.942571 
L 179.810284 102.949438 
L 184.883011 96.465233 
L 189.955739 100.954517 
L 195.028466 115.179584 
L 200.101193 136.537026 
L 205.17392 161.664928 
L 210.246648 187.160438 
L 215.319375 210.228684 
L 220.392102 229.114245 
L 225.46483 243.234756 
L 230.537557 253.021551 
L 235.610284 259.549352 
L 240.683011 264.084395 
L 245.755739 267.686673 
L 250.828466 270.968555 
L 255.901193 274.052169 
L 260.97392 276.701983 
L 266.046648 276.887635 
L 271.119375 276.887635 
L 276.192102 276.887635 
L 281.26483 276.887635 
L 286.337557 276.887635 
L 291.410284 276.20776 
L 296.483011 275.990616 
L 301.555739 276.48779 
L 306.628466 276.887635 
L 311.701193 276.887635 
L 316.77392 276.887635 
L 321.846648 276.887635 
L 326.919375 276.887635 
L 331.992102 276.887635 
L 337.06483 276.887635 
L 342.137557 276.28246 
L 347.210284 276.265597 
L 352.283011 276.887635 
L 357.355739 276.887635 
L 362.428466 276.887635 
L 367.501193 276.887635 
L 372.57392 276.887635 
L 377.646648 276.887635 
" style="fill:none;stroke:#000000;stroke-width:1.5;"/>
   </g>
   <g id="line2d_28">
    <path clip-path="url(#p39409d3de6)" d="M 52.992102 276.887635 
L 58.06483 276.644422 
L 63.137557 276.671058 
L 68.210284 276.789301 
L 73.283011 276.887635 
L 78.355739 276.887635 
L 83.428466 276.887635 
L 88.501193 276.887635 
L 93.57392 276.887635 
L 98.646648 276.887635 
L 103.719375 276.764341 
L 108.792102 275.11969 
L 113.86483 275.404924 
L 118.937557 276.244264 
L 124.010284 276.887635 
L 129.083011 276.887635 
L 134.155739 276.887635 
L 139.228466 276.887635 
L 144.301193 273.681069 
L 149.37392 258.880694 
L 154.446648 236.233623 
L 159.519375 206.987011 
L 164.592102 175.484313 
L 169.66483 145.08776 
L 174.737557 120.561667 
L 179.810284 104.338686 
L 184.883011 96.088755 
L 189.955739 100.861267 
L 195.028466 116.133148 
L 200.101193 138.156399 
L 205.17392 163.114465 
L 210.246648 187.667513 
L 215.319375 209.38045 
L 220.392102 227.555288 
L 225.46483 241.678241 
L 230.537557 251.414532 
L 235.610284 258.122786 
L 240.683011 264.740337 
L 245.755739 268.176582 
L 250.828466 271.014511 
L 255.901193 273.900847 
L 260.97392 275.86406 
L 266.046648 276.887635 
L 271.119375 276.887635 
L 276.192102 276.887635 
L 281.26483 276.887635 
L 286.337557 276.887635 
L 291.410284 276.674578 
L 296.483011 276.821028 
L 301.555739 276.863392 
L 306.628466 276.887635 
L 311.701193 276.887635 
L 316.77392 276.887635 
L 321.846648 276.887635 
L 326.919375 276.887635 
L 331.992102 276.887635 
L 337.06483 276.887635 
L 342.137557 276.859717 
L 347.210284 276.745459 
L 352.283011 276.887635 
L 357.355739 276.887635 
L 362.428466 276.887635 
L 367.501193 276.887635 
L 372.57392 276.887635 
L 377.646648 276.887635 
" style="fill:none;stroke:#ff0000;stroke-dasharray:5.55,2.4;stroke-dashoffset:0;stroke-opacity:0.5;stroke-width:1.5;"/>
   </g>
   <g id="patch_3">
    <path d="M 36.759375 276.882312 
L 36.759375 10.770312 
" style="fill:none;stroke:#000000;stroke-linecap:square;stroke-linejoin:miter;stroke-width:0.8;"/>
   </g>
   <g id="patch_4">
    <path d="M 393.879375 276.882312 
L 393.879375 10.770312 
" style="fill:none;stroke:#000000;stroke-linecap:square;stroke-linejoin:miter;stroke-width:0.8;"/>
   </g>
   <g id="patch_5">
    <path d="M 36.759375 276.882312 
L 393.879375 276.882312 
" style="fill:none;stroke:#000000;stroke-linecap:square;stroke-linejoin:miter;stroke-width:0.8;"/>
   </g>
   <g id="patch_6">
    <path d="M 36.759375 10.770312 
L 393.879375 10.770312 
" style="fill:none;stroke:#000000;stroke-linecap:square;stroke-linejoin:miter;stroke-width:0.8;"/>
   </g>
  </g>
 </g>
 <defs>
  <clipPath id="p39409d3de6">
   <rect height="266.112" width="357.12" x="36.759375" y="10.770312"/>
  </clipPath>
 </defs>
</svg>
