<?xml version="1.0" encoding="utf-8" standalone="no"?>
<!DOCTYPE svg PUBLIC "-//W3C//DTD SVG 1.1//EN"
  "http://www.w3.org/Graphics/SVG/1.1/DTD/svg11.dtd">
<svg xmlns:xlink="http://www.w3.org/1999/xlink" width="421.929375pt" height="310.062pt" viewBox="0 0 421.929375 310.062" xmlns="http://www.w3.org/2000/svg" version="1.1">
 <metadata>
  <rdf:RDF xmlns:dc="http://purl.org/dc/elements/1.1/" xmlns:cc="http://creativecommons.org/ns#" xmlns:rdf="http://www.w3.org/1999/02/22-rdf-syntax-ns#">
   <cc:Work>
    <dc:type rdf:resource="http://purl.org/dc/dcmitype/StillImage"/>
    <dc:date>2024-12-13T13:26:32.807900</dc:date>
    <dc:format>image/svg+xml</dc:format>
    <dc:creator>
     <cc:Agent>
      <dc:title>Matplotlib v3.9.2, https://matplotlib.org/</dc:title>
     </cc:Agent>
    </dc:creator>
   </cc:Work>
  </rdf:RDF>
 </metadata>
 <defs>
  <style type="text/css">*{stroke-linejoin: round; stroke-linecap: butt}</style>
 </defs>
 <g id="figure_1">
  <g id="patch_1">
   <path d="M 0 310.062 
L 421.929375 310.062 
L 421.929375 0 
L 0 0 
z
" style="fill: #ffffff"/>
  </g>
  <g id="axes_1">
   <g id="patch_2">
    <path d="M 55.859375 275.062 
L 412.979375 275.062 
L 412.979375 8.95 
L 55.859375 8.95 
z
" style="fill: #ffffff"/>
   </g>
   <g id="PolyCollection_1">
    <defs>
     <path id="m892ab5e23b" d="M 76.664702 -93.864247 
L 76.664702 -58.319444 
L 77.466912 -58.823616 
L 78.269122 -59.327792 
L 79.071333 -59.831971 
L 79.873543 -60.336153 
L 80.675753 -60.840337 
L 81.477964 -61.344525 
L 82.280174 -61.848716 
L 83.082385 -62.35291 
L 83.884595 -62.857108 
L 84.686805 -63.361308 
L 85.489016 -63.865511 
L 86.291226 -64.369717 
L 87.093437 -64.873927 
L 87.895647 -65.378139 
L 88.697857 -65.882355 
L 89.500068 -66.386574 
L 90.302278 -66.890795 
L 91.104489 -67.39502 
L 91.906699 -67.899248 
L 92.708909 -68.403479 
L 93.51112 -68.907713 
L 94.31333 -69.41195 
L 95.115541 -69.91619 
L 95.917751 -70.420434 
L 96.719961 -70.92468 
L 97.522172 -71.42893 
L 98.324382 -71.933182 
L 99.126592 -72.437438 
L 99.928803 -72.941697 
L 100.731013 -73.445958 
L 101.533224 -73.950223 
L 102.335434 -74.454491 
L 103.137644 -74.958762 
L 103.939855 -75.463037 
L 104.742065 -75.967314 
L 105.544276 -76.471594 
L 106.346486 -76.975878 
L 107.148696 -77.480164 
L 107.950907 -77.984454 
L 108.753117 -78.488747 
L 109.555328 -78.993042 
L 110.357538 -79.497341 
L 111.159748 -80.006369 
L 111.961959 -80.517066 
L 112.764169 -81.027772 
L 113.56638 -81.538486 
L 114.36859 -82.049209 
L 115.1708 -82.55994 
L 115.973011 -83.070679 
L 116.775221 -83.581427 
L 117.577431 -84.092183 
L 118.379642 -84.602948 
L 119.181852 -85.113721 
L 119.984063 -85.624503 
L 120.786273 -86.135293 
L 121.588483 -86.646091 
L 122.390694 -87.156898 
L 123.192904 -87.667714 
L 123.995115 -88.178538 
L 124.797325 -88.68937 
L 125.599535 -89.200211 
L 126.401746 -89.71106 
L 127.203956 -90.221918 
L 128.006167 -90.732784 
L 128.808377 -91.243659 
L 129.610587 -91.754542 
L 130.412798 -92.265434 
L 131.215008 -92.776334 
L 132.017219 -93.287242 
L 132.819429 -93.798159 
L 133.621639 -94.309085 
L 134.42385 -94.820019 
L 135.22606 -95.330962 
L 136.02827 -95.841913 
L 136.830481 -96.352873 
L 137.632691 -96.863841 
L 138.434902 -97.374818 
L 139.237112 -97.885803 
L 140.039322 -98.396797 
L 140.841533 -98.907799 
L 141.643743 -99.41881 
L 142.445954 -99.929829 
L 143.248164 -100.440857 
L 144.050374 -100.951893 
L 144.852585 -101.462938 
L 145.654795 -101.973992 
L 146.457006 -102.485054 
L 147.259216 -102.996124 
L 148.061426 -103.507204 
L 148.863637 -104.018291 
L 149.665847 -104.529388 
L 150.468058 -105.040493 
L 151.270268 -105.551606 
L 152.072478 -106.062728 
L 152.874689 -106.573859 
L 153.676899 -107.084998 
L 154.479109 -107.596146 
L 155.28132 -108.107302 
L 156.08353 -108.618467 
L 156.885741 -109.12964 
L 157.687951 -109.640823 
L 158.490161 -110.152013 
L 159.292372 -110.663213 
L 160.094582 -111.174421 
L 160.896793 -111.685637 
L 161.699003 -112.196862 
L 162.501213 -112.708096 
L 163.303424 -113.219338 
L 164.105634 -113.730589 
L 164.907845 -114.241849 
L 165.710055 -114.753117 
L 166.512265 -115.264394 
L 167.314476 -115.77568 
L 168.116686 -116.286974 
L 168.918897 -116.798277 
L 169.721107 -117.309588 
L 170.523317 -117.820909 
L 171.325528 -118.332237 
L 172.127738 -118.843575 
L 172.929948 -119.354921 
L 173.732159 -119.866276 
L 174.534369 -120.377639 
L 175.33658 -120.889011 
L 176.13879 -121.400392 
L 176.941 -121.911781 
L 177.743211 -122.423179 
L 178.545421 -122.934586 
L 179.347632 -123.446002 
L 180.149842 -123.957426 
L 180.952052 -124.468859 
L 181.754263 -125.020421 
L 182.556473 -125.579508 
L 183.358684 -126.138603 
L 184.160894 -126.697708 
L 184.963104 -127.270406 
L 185.765315 -127.853683 
L 186.567525 -128.436963 
L 187.369736 -129.020243 
L 188.171946 -129.603526 
L 188.974156 -130.18681 
L 189.776367 -130.770095 
L 190.578577 -131.353382 
L 191.380787 -131.936671 
L 192.182998 -132.519961 
L 192.985208 -133.113194 
L 193.787419 -133.716731 
L 194.589629 -134.32027 
L 195.391839 -134.923811 
L 196.19405 -135.527353 
L 196.99626 -136.130897 
L 197.798471 -136.734442 
L 198.600681 -137.337989 
L 199.402891 -137.941537 
L 200.205102 -138.545087 
L 201.007312 -139.148639 
L 201.809523 -139.752192 
L 202.611733 -140.355747 
L 203.413943 -140.959303 
L 204.216154 -141.562861 
L 205.018364 -142.16642 
L 205.820575 -142.769981 
L 206.622785 -143.373544 
L 207.424995 -143.977108 
L 208.227206 -144.580674 
L 209.029416 -145.184241 
L 209.831626 -145.78781 
L 210.633837 -146.39138 
L 211.436047 -146.994952 
L 212.238258 -147.598526 
L 213.040468 -148.202101 
L 213.842678 -148.805677 
L 214.644889 -149.409256 
L 215.447099 -150.012835 
L 216.24931 -150.561915 
L 217.05152 -151.071162 
L 217.85373 -151.580419 
L 218.655941 -152.089684 
L 219.458151 -152.598959 
L 220.260362 -153.108244 
L 221.062572 -153.617537 
L 221.864782 -154.12684 
L 222.666993 -154.636152 
L 223.469203 -155.145473 
L 224.271414 -155.654803 
L 225.073624 -156.164143 
L 225.875834 -156.706714 
L 226.678045 -157.26525 
L 227.480255 -157.823796 
L 228.282466 -158.38235 
L 229.084676 -158.940915 
L 229.886886 -159.499488 
L 230.689097 -160.05807 
L 231.491307 -160.616662 
L 232.293517 -161.175263 
L 233.095728 -161.733874 
L 233.897938 -162.292493 
L 234.700149 -162.851122 
L 235.502359 -163.40976 
L 236.304569 -163.92421 
L 237.10678 -164.425826 
L 237.90899 -164.927442 
L 238.711201 -165.429058 
L 239.513411 -165.930674 
L 240.315621 -166.43229 
L 241.117832 -166.933907 
L 241.920042 -167.435524 
L 242.722253 -167.937141 
L 243.524463 -168.438758 
L 244.326673 -168.940375 
L 245.128884 -169.441993 
L 245.931094 -169.943611 
L 246.733305 -170.445229 
L 247.535515 -170.946847 
L 248.337725 -171.448465 
L 249.139936 -171.950084 
L 249.942146 -172.451703 
L 250.744356 -172.953322 
L 251.546567 -173.454941 
L 252.348777 -173.95656 
L 253.150988 -174.45818 
L 253.953198 -174.98198 
L 254.755408 -175.510469 
L 255.557619 -176.038977 
L 256.359829 -176.567502 
L 257.16204 -177.096045 
L 257.96425 -177.624607 
L 258.76646 -178.153186 
L 259.568671 -178.681783 
L 260.370881 -179.210399 
L 261.173092 -179.739032 
L 261.975302 -180.267684 
L 262.777512 -180.815632 
L 263.579723 -181.322047 
L 264.381933 -181.816088 
L 265.184144 -182.31013 
L 265.986354 -182.805643 
L 266.788564 -183.282319 
L 267.590775 -183.753 
L 268.392985 -184.24198 
L 269.195195 -184.74948 
L 269.997406 -185.256988 
L 270.799616 -185.812376 
L 271.601827 -186.371706 
L 272.404037 -186.92712 
L 273.206247 -187.435275 
L 274.008458 -187.937472 
L 274.810668 -188.439668 
L 275.612879 -188.941864 
L 276.415089 -189.444061 
L 277.217299 -189.942995 
L 278.01951 -190.368491 
L 278.82172 -190.85178 
L 279.623931 -191.335083 
L 280.426141 -191.78773 
L 281.228351 -192.239623 
L 282.030562 -192.69152 
L 282.832772 -193.143419 
L 283.634983 -193.609059 
L 284.437193 -194.090061 
L 285.239403 -194.571065 
L 286.041614 -195.007193 
L 286.843824 -195.384045 
L 287.646034 -195.788275 
L 288.448245 -196.212805 
L 289.250455 -196.602816 
L 290.052666 -196.979724 
L 290.854876 -197.356633 
L 291.657086 -197.733543 
L 292.459297 -198.110453 
L 293.261507 -198.487363 
L 294.063718 -198.864274 
L 294.865928 -199.241186 
L 295.668138 -199.638628 
L 296.470349 -200.050434 
L 297.272559 -200.505817 
L 298.07477 -201.03494 
L 298.87698 -201.568068 
L 299.67919 -202.101199 
L 300.481401 -202.634334 
L 301.283611 -203.167473 
L 302.085822 -203.670062 
L 302.888032 -204.122032 
L 303.690242 -204.574004 
L 304.492453 -205.02598 
L 305.294663 -205.47796 
L 306.096873 -205.929942 
L 306.899084 -206.381928 
L 307.701294 -206.833917 
L 308.503505 -207.309088 
L 309.305715 -207.790427 
L 310.107925 -208.271769 
L 310.910136 -208.753115 
L 311.712346 -209.234464 
L 312.514557 -209.715816 
L 313.316767 -210.124071 
L 314.118977 -210.498162 
L 314.921188 -210.872263 
L 315.723398 -211.25004 
L 316.525609 -211.673843 
L 317.327819 -212.097657 
L 318.130029 -212.521479 
L 318.93224 -212.945311 
L 319.73445 -213.369153 
L 320.536661 -213.793004 
L 321.338871 -214.216864 
L 322.141081 -214.640734 
L 322.943292 -215.064613 
L 323.745502 -215.488502 
L 324.547712 -215.9124 
L 325.349923 -216.321272 
L 326.152133 -216.726431 
L 326.954344 -217.131594 
L 327.756554 -217.536763 
L 328.558764 -217.941936 
L 329.360975 -218.347114 
L 330.163185 -218.752297 
L 330.965396 -219.157485 
L 331.767606 -219.562678 
L 332.569816 -219.967876 
L 333.372027 -220.373079 
L 334.174237 -220.778286 
L 334.976448 -221.183499 
L 335.778658 -221.578119 
L 336.580868 -221.944432 
L 337.383079 -222.314982 
L 338.185289 -222.709726 
L 338.9875 -223.104491 
L 339.78971 -223.499275 
L 340.59192 -223.894081 
L 341.394131 -224.288906 
L 342.196341 -224.683753 
L 342.998551 -225.078619 
L 343.800762 -225.473507 
L 344.602972 -225.868414 
L 345.405183 -226.263342 
L 346.207393 -226.658291 
L 347.009603 -227.05326 
L 347.811814 -227.44825 
L 348.614024 -227.84326 
L 349.416235 -228.220794 
L 350.218445 -228.58968 
L 351.020655 -228.958566 
L 351.822866 -229.327453 
L 352.625076 -229.696339 
L 353.427287 -230.065225 
L 354.229497 -230.434112 
L 355.031707 -230.802998 
L 355.833918 -231.171884 
L 356.636128 -231.540771 
L 357.438339 -231.909657 
L 358.240549 -232.278543 
L 359.042759 -232.647429 
L 359.84497 -233.016316 
L 360.64718 -233.385202 
L 361.44939 -233.754088 
L 362.251601 -234.122975 
L 363.053811 -234.491861 
L 363.856022 -234.860747 
L 364.658232 -235.229633 
L 365.460442 -235.59852 
L 366.262653 -235.967406 
L 367.064863 -236.336292 
L 367.867074 -236.705179 
L 368.669284 -237.074065 
L 369.471494 -237.442951 
L 370.273705 -237.811838 
L 371.075915 -238.180724 
L 371.878126 -238.54961 
L 372.680336 -238.918496 
L 373.482546 -239.287383 
L 374.284757 -239.656269 
L 375.086967 -240.025155 
L 375.889178 -240.394042 
L 376.691388 -240.762928 
L 377.493598 -241.131814 
L 378.295809 -241.5007 
L 379.098019 -241.869587 
L 379.90023 -242.238473 
L 380.70244 -242.607359 
L 381.50465 -242.976246 
L 382.306861 -243.345132 
L 383.109071 -243.714018 
L 383.911281 -244.082905 
L 384.713492 -244.451791 
L 385.515702 -244.820677 
L 386.317913 -245.189563 
L 387.120123 -245.55845 
L 387.922333 -245.927336 
L 388.724544 -246.296222 
L 389.526754 -246.665109 
L 390.328965 -247.033995 
L 391.131175 -247.402881 
L 391.933385 -247.771767 
L 392.735596 -248.140654 
L 393.537806 -248.517394 
L 394.340017 -248.913952 
L 395.142227 -249.310513 
L 395.944437 -249.707075 
L 396.746648 -250.103638 
L 396.746648 -274.725398 
L 396.746648 -274.725398 
L 395.944437 -274.182468 
L 395.142227 -273.639538 
L 394.340017 -273.09661 
L 393.537806 -272.553683 
L 392.735596 -272.010758 
L 391.933385 -271.467834 
L 391.131175 -270.924912 
L 390.328965 -270.381991 
L 389.526754 -269.839071 
L 388.724544 -269.296153 
L 387.922333 -268.753236 
L 387.120123 -268.21032 
L 386.317913 -267.667406 
L 385.515702 -267.124494 
L 384.713492 -266.581583 
L 383.911281 -266.02438 
L 383.109071 -265.4555 
L 382.306861 -264.886621 
L 381.50465 -264.317742 
L 380.70244 -263.748862 
L 379.90023 -263.179983 
L 379.098019 -262.611103 
L 378.295809 -262.042224 
L 377.493598 -261.473344 
L 376.691388 -260.904465 
L 375.889178 -260.335585 
L 375.086967 -259.766706 
L 374.284757 -259.197826 
L 373.482546 -258.628947 
L 372.680336 -258.060067 
L 371.878126 -257.492403 
L 371.075915 -256.935143 
L 370.273705 -256.377887 
L 369.471494 -255.820635 
L 368.669284 -255.263388 
L 367.867074 -254.706144 
L 367.064863 -254.148905 
L 366.262653 -253.591669 
L 365.460442 -253.034438 
L 364.658232 -252.477211 
L 363.856022 -251.919987 
L 363.053811 -251.362768 
L 362.251601 -250.805553 
L 361.44939 -250.248342 
L 360.64718 -249.691135 
L 359.84497 -249.133933 
L 359.042759 -248.576734 
L 358.240549 -248.019539 
L 357.438339 -247.462349 
L 356.636128 -246.9671 
L 355.833918 -246.474915 
L 355.031707 -245.982731 
L 354.229497 -245.490168 
L 353.427287 -244.993171 
L 352.625076 -244.496178 
L 351.822866 -243.999187 
L 351.020655 -243.5022 
L 350.218445 -243.005216 
L 349.416235 -242.508235 
L 348.614024 -242.011257 
L 347.811814 -241.514283 
L 347.009603 -241.017312 
L 346.207393 -240.520344 
L 345.405183 -240.023379 
L 344.602972 -239.526417 
L 343.800762 -239.029459 
L 342.998551 -238.532503 
L 342.196341 -238.035551 
L 341.394131 -237.538602 
L 340.59192 -237.041657 
L 339.78971 -236.544714 
L 338.9875 -236.028687 
L 338.185289 -235.502902 
L 337.383079 -234.977119 
L 336.580868 -234.45134 
L 335.778658 -233.925564 
L 334.976448 -233.399792 
L 334.174237 -232.874022 
L 333.372027 -232.348256 
L 332.569816 -231.822492 
L 331.767606 -231.296732 
L 330.965396 -230.770976 
L 330.163185 -230.245222 
L 329.360975 -229.719472 
L 328.558764 -229.193724 
L 327.756554 -228.66798 
L 326.954344 -228.14224 
L 326.152133 -227.61298 
L 325.349923 -227.081712 
L 324.547712 -226.550445 
L 323.745502 -226.019178 
L 322.943292 -225.487912 
L 322.141081 -224.956647 
L 321.338871 -224.516646 
L 320.536661 -224.100044 
L 319.73445 -223.677607 
L 318.93224 -223.247902 
L 318.130029 -222.818241 
L 317.327819 -222.388625 
L 316.525609 -221.852481 
L 315.723398 -221.309851 
L 314.921188 -220.746927 
L 314.118977 -220.184007 
L 313.316767 -219.6121 
L 312.514557 -219.026471 
L 311.712346 -218.440845 
L 310.910136 -217.885664 
L 310.107925 -217.412247 
L 309.305715 -216.902697 
L 308.503505 -216.410553 
L 307.701294 -215.983212 
L 306.899084 -215.555871 
L 306.096873 -215.12853 
L 305.294663 -214.701189 
L 304.492453 -214.273849 
L 303.690242 -213.841004 
L 302.888032 -213.378669 
L 302.085822 -212.88383 
L 301.283611 -212.389001 
L 300.481401 -211.894182 
L 299.67919 -211.399373 
L 298.87698 -210.904574 
L 298.07477 -210.409785 
L 297.272559 -209.915006 
L 296.470349 -209.420237 
L 295.668138 -208.924219 
L 294.865928 -208.427624 
L 294.063718 -207.931037 
L 293.261507 -207.434458 
L 292.459297 -206.937457 
L 291.657086 -206.429918 
L 290.854876 -205.922381 
L 290.052666 -205.414844 
L 289.250455 -204.907309 
L 288.448245 -204.399774 
L 287.646034 -203.89224 
L 286.843824 -203.384707 
L 286.041614 -202.877176 
L 285.239403 -202.349645 
L 284.437193 -201.816071 
L 283.634983 -201.28251 
L 282.832772 -200.748962 
L 282.030562 -200.215426 
L 281.228351 -199.681902 
L 280.426141 -199.148391 
L 279.623931 -198.614892 
L 278.82172 -198.081406 
L 278.01951 -197.547933 
L 277.217299 -197.014471 
L 276.415089 -196.481023 
L 275.612879 -195.947587 
L 274.810668 -195.414085 
L 274.008458 -194.82367 
L 273.206247 -194.233267 
L 272.404037 -193.693765 
L 271.601827 -193.25038 
L 270.799616 -192.807006 
L 269.997406 -192.34305 
L 269.195195 -191.84831 
L 268.392985 -191.35358 
L 267.590775 -190.85886 
L 266.788564 -190.36415 
L 265.986354 -189.937752 
L 265.184144 -189.55715 
L 264.381933 -189.176552 
L 263.579723 -188.792728 
L 262.777512 -188.386055 
L 261.975302 -188.012188 
L 261.173092 -187.643301 
L 260.370881 -187.271404 
L 259.568671 -186.858065 
L 258.76646 -186.44473 
L 257.96425 -186.031398 
L 257.16204 -185.618071 
L 256.359829 -185.204748 
L 255.557619 -184.791429 
L 254.755408 -184.378114 
L 253.953198 -183.964804 
L 253.150988 -183.552585 
L 252.348777 -183.175018 
L 251.546567 -182.791451 
L 250.744356 -182.407906 
L 249.942146 -182.024383 
L 249.139936 -181.573927 
L 248.337725 -181.114429 
L 247.535515 -180.654954 
L 246.733305 -180.195501 
L 245.931094 -179.749209 
L 245.128884 -179.338528 
L 244.326673 -178.927853 
L 243.524463 -178.517184 
L 242.722253 -178.106521 
L 241.920042 -177.695864 
L 241.117832 -177.285214 
L 240.315621 -176.87457 
L 239.513411 -176.463932 
L 238.711201 -176.0533 
L 237.90899 -175.642674 
L 237.10678 -175.232055 
L 236.304569 -174.821441 
L 235.502359 -174.410834 
L 234.700149 -174.000233 
L 233.897938 -173.589638 
L 233.095728 -173.17905 
L 232.293517 -172.768468 
L 231.491307 -172.357891 
L 230.689097 -171.947321 
L 229.886886 -171.536758 
L 229.084676 -171.1262 
L 228.282466 -170.715649 
L 227.480255 -170.305104 
L 226.678045 -169.894565 
L 225.875834 -169.484032 
L 225.073624 -169.073506 
L 224.271414 -168.662985 
L 223.469203 -168.252471 
L 222.666993 -167.841963 
L 221.864782 -167.431462 
L 221.062572 -167.017887 
L 220.260362 -166.590889 
L 219.458151 -166.163891 
L 218.655941 -165.736893 
L 217.85373 -165.309895 
L 217.05152 -164.882897 
L 216.24931 -164.455899 
L 215.447099 -164.028901 
L 214.644889 -163.601904 
L 213.842678 -163.194914 
L 213.040468 -162.8193 
L 212.238258 -162.443694 
L 211.436047 -162.068094 
L 210.633837 -161.692502 
L 209.831626 -161.316918 
L 209.029416 -160.94134 
L 208.227206 -160.56577 
L 207.424995 -160.190207 
L 206.622785 -159.814652 
L 205.820575 -159.439104 
L 205.018364 -159.063563 
L 204.216154 -158.688029 
L 203.413943 -158.312503 
L 202.611733 -157.936984 
L 201.809523 -157.561472 
L 201.007312 -157.185968 
L 200.205102 -156.81047 
L 199.402891 -156.434981 
L 198.600681 -156.059498 
L 197.798471 -155.684023 
L 196.99626 -155.308555 
L 196.19405 -154.933094 
L 195.391839 -154.55764 
L 194.589629 -154.182194 
L 193.787419 -153.806755 
L 192.985208 -153.431324 
L 192.182998 -153.055899 
L 191.380787 -152.680482 
L 190.578577 -152.305072 
L 189.776367 -151.929669 
L 188.974156 -151.554274 
L 188.171946 -151.178886 
L 187.369736 -150.803505 
L 186.567525 -150.428131 
L 185.765315 -150.052765 
L 184.963104 -149.644095 
L 184.160894 -149.225288 
L 183.358684 -148.806487 
L 182.556473 -148.387694 
L 181.754263 -147.968908 
L 180.952052 -147.550129 
L 180.149842 -147.131358 
L 179.347632 -146.712593 
L 178.545421 -146.293836 
L 177.743211 -145.875087 
L 176.941 -145.456344 
L 176.13879 -145.037609 
L 175.33658 -144.618881 
L 174.534369 -144.20016 
L 173.732159 -143.781447 
L 172.929948 -143.362741 
L 172.127738 -142.944042 
L 171.325528 -142.52535 
L 170.523317 -142.103283 
L 169.721107 -141.670815 
L 168.918897 -141.238346 
L 168.116686 -140.805878 
L 167.314476 -140.37341 
L 166.512265 -139.940942 
L 165.710055 -139.508474 
L 164.907845 -139.076007 
L 164.105634 -138.643539 
L 163.303424 -138.211071 
L 162.501213 -137.778604 
L 161.699003 -137.346137 
L 160.896793 -136.913669 
L 160.094582 -136.481202 
L 159.292372 -136.048735 
L 158.490161 -135.616268 
L 157.687951 -135.183801 
L 156.885741 -134.751335 
L 156.08353 -134.318868 
L 155.28132 -133.886401 
L 154.479109 -133.453935 
L 153.676899 -133.021469 
L 152.874689 -132.589002 
L 152.072478 -132.156536 
L 151.270268 -131.72407 
L 150.468058 -131.291604 
L 149.665847 -130.859139 
L 148.863637 -130.426673 
L 148.061426 -129.994207 
L 147.259216 -129.561742 
L 146.457006 -129.129276 
L 145.654795 -128.711832 
L 144.852585 -128.321168 
L 144.050374 -127.930506 
L 143.248164 -127.539848 
L 142.445954 -127.149191 
L 141.643743 -126.758538 
L 140.841533 -126.367887 
L 140.039322 -125.977238 
L 139.237112 -125.586592 
L 138.434902 -125.195948 
L 137.632691 -124.805308 
L 136.830481 -124.414669 
L 136.02827 -124.024033 
L 135.22606 -123.6334 
L 134.42385 -123.24277 
L 133.621639 -122.852141 
L 132.819429 -122.461516 
L 132.017219 -122.070893 
L 131.215008 -121.680272 
L 130.412798 -121.289654 
L 129.610587 -120.899039 
L 128.808377 -120.508426 
L 128.006167 -120.117816 
L 127.203956 -119.727208 
L 126.401746 -119.336603 
L 125.599535 -118.946 
L 124.797325 -118.5554 
L 123.995115 -118.164803 
L 123.192904 -117.774208 
L 122.390694 -117.383615 
L 121.588483 -116.993025 
L 120.786273 -116.602438 
L 119.984063 -116.211853 
L 119.181852 -115.821271 
L 118.379642 -115.430691 
L 117.577431 -115.040114 
L 116.775221 -114.64954 
L 115.973011 -114.258967 
L 115.1708 -113.844484 
L 114.36859 -113.428169 
L 113.56638 -113.011857 
L 112.764169 -112.595547 
L 111.961959 -112.17924 
L 111.159748 -111.762935 
L 110.357538 -111.346633 
L 109.555328 -110.930333 
L 108.753117 -110.514036 
L 107.950907 -110.097742 
L 107.148696 -109.68145 
L 106.346486 -109.26516 
L 105.544276 -108.848873 
L 104.742065 -108.432589 
L 103.939855 -108.016307 
L 103.137644 -107.600028 
L 102.335434 -107.183751 
L 101.533224 -106.767477 
L 100.731013 -106.351206 
L 99.928803 -105.934937 
L 99.126592 -105.51867 
L 98.324382 -105.102406 
L 97.522172 -104.686145 
L 96.719961 -104.269886 
L 95.917751 -103.85363 
L 95.115541 -103.437376 
L 94.31333 -103.021125 
L 93.51112 -102.604876 
L 92.708909 -102.18863 
L 91.906699 -101.772387 
L 91.104489 -101.356146 
L 90.302278 -100.939908 
L 89.500068 -100.523672 
L 88.697857 -100.107438 
L 87.895647 -99.691208 
L 87.093437 -99.27498 
L 86.291226 -98.858754 
L 85.489016 -98.442531 
L 84.686805 -98.026311 
L 83.884595 -97.610093 
L 83.082385 -97.193877 
L 82.280174 -96.777665 
L 81.477964 -96.361454 
L 80.675753 -95.945247 
L 79.873543 -95.529042 
L 79.071333 -95.112839 
L 78.269122 -94.696639 
L 77.466912 -94.280442 
L 76.664702 -93.864247 
z
" style="stroke: #000000; stroke-opacity: 0.1"/>
    </defs>
    <g clip-path="url(#pda62999c96)">
     <use xlink:href="#m892ab5e23b" x="0" y="310.062" style="fill-opacity: 0.1; stroke: #000000; stroke-opacity: 0.1"/>
    </g>
   </g>
   <g id="matplotlib.axis_1">
    <g id="xtick_1">
     <g id="line2d_1">
      <defs>
       <path id="m5da11bd12a" d="M 0 1.75 
L 0 -1.75 
" style="stroke: #000000; stroke-width: 0.8"/>
      </defs>
      <g>
       <use xlink:href="#m5da11bd12a" x="76.664702" y="275.062" style="stroke: #000000; stroke-width: 0.8"/>
      </g>
     </g>
     <g id="line2d_2">
      <g>
       <use xlink:href="#m5da11bd12a" x="76.664702" y="8.95" style="stroke: #000000; stroke-width: 0.8"/>
      </g>
     </g>
     <g id="text_1">
      <!-- 9.0 -->
      <g transform="translate(69.715483 287.452625) scale(0.1 -0.1)">
       <defs>
        <path id="HelveticaNeue-Medium-39" d="M 1030 1133 
Q 1056 858 1225 688 
Q 1395 518 1683 518 
Q 1978 518 2154 675 
Q 2330 832 2426 1065 
Q 2522 1299 2557 1564 
Q 2592 1830 2611 2054 
L 2598 2067 
Q 2451 1805 2195 1667 
Q 1939 1530 1632 1530 
Q 1312 1530 1053 1638 
Q 794 1747 608 1942 
Q 422 2138 320 2416 
Q 218 2694 218 3040 
Q 218 3366 320 3644 
Q 422 3923 620 4131 
Q 819 4339 1107 4454 
Q 1395 4570 1760 4570 
Q 2234 4570 2541 4387 
Q 2848 4205 3024 3888 
Q 3200 3571 3270 3142 
Q 3341 2714 3341 2227 
Q 3341 1824 3254 1414 
Q 3168 1005 2969 669 
Q 2771 333 2448 121 
Q 2125 -90 1651 -90 
Q 1382 -90 1145 0 
Q 909 90 726 250 
Q 544 410 429 634 
Q 314 858 301 1133 
L 1030 1133 
z
M 1728 3962 
Q 1530 3962 1382 3888 
Q 1235 3814 1139 3686 
Q 1043 3558 995 3392 
Q 947 3226 947 3046 
Q 947 2861 995 2691 
Q 1043 2522 1139 2394 
Q 1235 2266 1382 2186 
Q 1530 2106 1728 2106 
Q 1933 2106 2086 2182 
Q 2240 2259 2339 2390 
Q 2438 2522 2489 2691 
Q 2541 2861 2541 3046 
Q 2541 3226 2489 3392 
Q 2438 3558 2339 3683 
Q 2240 3808 2086 3885 
Q 1933 3962 1728 3962 
z
" transform="scale(0.015625)"/>
        <path id="HelveticaNeue-Medium-2e" d="M 442 864 
L 1331 864 
L 1331 0 
L 442 0 
L 442 864 
z
" transform="scale(0.015625)"/>
        <path id="HelveticaNeue-Medium-30" d="M 1779 4570 
Q 2259 4570 2563 4349 
Q 2867 4128 3036 3785 
Q 3206 3443 3267 3033 
Q 3328 2624 3328 2240 
Q 3328 1856 3267 1446 
Q 3206 1037 3036 694 
Q 2867 352 2563 131 
Q 2259 -90 1779 -90 
Q 1299 -90 995 131 
Q 691 352 521 694 
Q 352 1037 291 1446 
Q 230 1856 230 2240 
Q 230 2624 291 3033 
Q 352 3443 521 3785 
Q 691 4128 995 4349 
Q 1299 4570 1779 4570 
z
M 1779 518 
Q 2016 518 2176 656 
Q 2336 794 2429 1027 
Q 2522 1261 2560 1574 
Q 2598 1888 2598 2240 
Q 2598 2592 2560 2902 
Q 2522 3213 2429 3449 
Q 2336 3686 2176 3824 
Q 2016 3962 1779 3962 
Q 1536 3962 1379 3824 
Q 1222 3686 1129 3449 
Q 1037 3213 998 2902 
Q 960 2592 960 2240 
Q 960 1888 998 1574 
Q 1037 1261 1129 1027 
Q 1222 794 1379 656 
Q 1536 518 1779 518 
z
" transform="scale(0.015625)"/>
       </defs>
       <use xlink:href="#HelveticaNeue-Medium-39"/>
       <use xlink:href="#HelveticaNeue-Medium-2e" x="55.599991"/>
       <use xlink:href="#HelveticaNeue-Medium-30" x="83.399979"/>
      </g>
     </g>
    </g>
    <g id="xtick_2">
     <g id="line2d_3">
      <g>
       <use xlink:href="#m5da11bd12a" x="122.390694" y="275.062" style="stroke: #000000; stroke-width: 0.8"/>
      </g>
     </g>
     <g id="line2d_4">
      <g>
       <use xlink:href="#m5da11bd12a" x="122.390694" y="8.95" style="stroke: #000000; stroke-width: 0.8"/>
      </g>
     </g>
     <g id="text_2">
      <!-- 9.5 -->
      <g transform="translate(115.441475 287.452625) scale(0.1 -0.1)">
       <defs>
        <path id="HelveticaNeue-Medium-35" d="M 787 4480 
L 3104 4480 
L 3104 3827 
L 1331 3827 
L 1101 2688 
L 1114 2675 
Q 1261 2842 1488 2928 
Q 1715 3014 1939 3014 
Q 2272 3014 2534 2902 
Q 2797 2790 2976 2588 
Q 3155 2387 3248 2112 
Q 3341 1837 3341 1517 
Q 3341 1248 3254 963 
Q 3168 678 2979 444 
Q 2790 211 2496 60 
Q 2202 -90 1792 -90 
Q 1466 -90 1187 -3 
Q 909 83 697 256 
Q 486 429 361 681 
Q 237 934 224 1274 
L 954 1274 
Q 986 909 1203 713 
Q 1421 518 1779 518 
Q 2010 518 2170 595 
Q 2330 672 2429 806 
Q 2528 941 2569 1120 
Q 2611 1299 2611 1504 
Q 2611 1690 2560 1859 
Q 2509 2029 2406 2157 
Q 2304 2285 2141 2361 
Q 1978 2438 1760 2438 
Q 1530 2438 1328 2352 
Q 1126 2266 1037 2029 
L 307 2029 
L 787 4480 
z
" transform="scale(0.015625)"/>
       </defs>
       <use xlink:href="#HelveticaNeue-Medium-39"/>
       <use xlink:href="#HelveticaNeue-Medium-2e" x="55.599991"/>
       <use xlink:href="#HelveticaNeue-Medium-35" x="83.399979"/>
      </g>
     </g>
    </g>
    <g id="xtick_3">
     <g id="line2d_5">
      <g>
       <use xlink:href="#m5da11bd12a" x="168.116686" y="275.062" style="stroke: #000000; stroke-width: 0.8"/>
      </g>
     </g>
     <g id="line2d_6">
      <g>
       <use xlink:href="#m5da11bd12a" x="168.116686" y="8.95" style="stroke: #000000; stroke-width: 0.8"/>
      </g>
     </g>
     <g id="text_3">
      <!-- 10.0 -->
      <g transform="translate(158.38778 287.452625) scale(0.1 -0.1)">
       <defs>
        <path id="HelveticaNeue-Medium-31" d="M 339 3738 
Q 570 3738 787 3776 
Q 1005 3814 1181 3904 
Q 1357 3994 1481 4134 
Q 1606 4275 1645 4480 
L 2240 4480 
L 2240 0 
L 1440 0 
L 1440 3162 
L 339 3162 
L 339 3738 
z
" transform="scale(0.015625)"/>
       </defs>
       <use xlink:href="#HelveticaNeue-Medium-31"/>
       <use xlink:href="#HelveticaNeue-Medium-30" x="55.599991"/>
       <use xlink:href="#HelveticaNeue-Medium-2e" x="111.199982"/>
       <use xlink:href="#HelveticaNeue-Medium-30" x="138.999969"/>
      </g>
     </g>
    </g>
    <g id="xtick_4">
     <g id="line2d_7">
      <g>
       <use xlink:href="#m5da11bd12a" x="213.842678" y="275.062" style="stroke: #000000; stroke-width: 0.8"/>
      </g>
     </g>
     <g id="line2d_8">
      <g>
       <use xlink:href="#m5da11bd12a" x="213.842678" y="8.95" style="stroke: #000000; stroke-width: 0.8"/>
      </g>
     </g>
     <g id="text_4">
      <!-- 10.5 -->
      <g transform="translate(204.113772 287.452625) scale(0.1 -0.1)">
       <use xlink:href="#HelveticaNeue-Medium-31"/>
       <use xlink:href="#HelveticaNeue-Medium-30" x="55.599991"/>
       <use xlink:href="#HelveticaNeue-Medium-2e" x="111.199982"/>
       <use xlink:href="#HelveticaNeue-Medium-35" x="138.999969"/>
      </g>
     </g>
    </g>
    <g id="xtick_5">
     <g id="line2d_9">
      <g>
       <use xlink:href="#m5da11bd12a" x="259.568671" y="275.062" style="stroke: #000000; stroke-width: 0.8"/>
      </g>
     </g>
     <g id="line2d_10">
      <g>
       <use xlink:href="#m5da11bd12a" x="259.568671" y="8.95" style="stroke: #000000; stroke-width: 0.8"/>
      </g>
     </g>
     <g id="text_5">
      <!-- 11.0 -->
      <g transform="translate(249.839765 287.452625) scale(0.1 -0.1)">
       <use xlink:href="#HelveticaNeue-Medium-31"/>
       <use xlink:href="#HelveticaNeue-Medium-31" x="55.599991"/>
       <use xlink:href="#HelveticaNeue-Medium-2e" x="111.199982"/>
       <use xlink:href="#HelveticaNeue-Medium-30" x="138.999969"/>
      </g>
     </g>
    </g>
    <g id="xtick_6">
     <g id="line2d_11">
      <g>
       <use xlink:href="#m5da11bd12a" x="305.294663" y="275.062" style="stroke: #000000; stroke-width: 0.8"/>
      </g>
     </g>
     <g id="line2d_12">
      <g>
       <use xlink:href="#m5da11bd12a" x="305.294663" y="8.95" style="stroke: #000000; stroke-width: 0.8"/>
      </g>
     </g>
     <g id="text_6">
      <!-- 11.5 -->
      <g transform="translate(295.565757 287.452625) scale(0.1 -0.1)">
       <use xlink:href="#HelveticaNeue-Medium-31"/>
       <use xlink:href="#HelveticaNeue-Medium-31" x="55.599991"/>
       <use xlink:href="#HelveticaNeue-Medium-2e" x="111.199982"/>
       <use xlink:href="#HelveticaNeue-Medium-35" x="138.999969"/>
      </g>
     </g>
    </g>
    <g id="xtick_7">
     <g id="line2d_13">
      <g>
       <use xlink:href="#m5da11bd12a" x="351.020655" y="275.062" style="stroke: #000000; stroke-width: 0.8"/>
      </g>
     </g>
     <g id="line2d_14">
      <g>
       <use xlink:href="#m5da11bd12a" x="351.020655" y="8.95" style="stroke: #000000; stroke-width: 0.8"/>
      </g>
     </g>
     <g id="text_7">
      <!-- 12.0 -->
      <g transform="translate(341.291749 287.452625) scale(0.1 -0.1)">
       <defs>
        <path id="HelveticaNeue-Medium-32" d="M 3309 0 
L 250 0 
Q 256 557 518 973 
Q 781 1389 1235 1696 
Q 1453 1856 1689 2006 
Q 1926 2157 2124 2329 
Q 2323 2502 2451 2704 
Q 2579 2906 2586 3168 
Q 2586 3290 2557 3427 
Q 2528 3565 2445 3683 
Q 2362 3802 2214 3882 
Q 2067 3962 1830 3962 
Q 1613 3962 1469 3875 
Q 1325 3789 1238 3638 
Q 1152 3488 1110 3283 
Q 1069 3078 1062 2842 
L 333 2842 
Q 333 3213 432 3529 
Q 531 3846 729 4076 
Q 928 4307 1213 4438 
Q 1498 4570 1875 4570 
Q 2285 4570 2560 4435 
Q 2835 4301 3004 4096 
Q 3174 3891 3244 3651 
Q 3315 3411 3315 3194 
Q 3315 2925 3232 2707 
Q 3149 2490 3008 2307 
Q 2867 2125 2688 1971 
Q 2509 1818 2317 1683 
Q 2125 1549 1933 1427 
Q 1741 1306 1577 1184 
Q 1414 1062 1292 931 
Q 1171 800 1126 653 
L 3309 653 
L 3309 0 
z
" transform="scale(0.015625)"/>
       </defs>
       <use xlink:href="#HelveticaNeue-Medium-31"/>
       <use xlink:href="#HelveticaNeue-Medium-32" x="55.599991"/>
       <use xlink:href="#HelveticaNeue-Medium-2e" x="111.199982"/>
       <use xlink:href="#HelveticaNeue-Medium-30" x="138.999969"/>
      </g>
     </g>
    </g>
    <g id="xtick_8">
     <g id="line2d_15">
      <g>
       <use xlink:href="#m5da11bd12a" x="396.746648" y="275.062" style="stroke: #000000; stroke-width: 0.8"/>
      </g>
     </g>
     <g id="line2d_16">
      <g>
       <use xlink:href="#m5da11bd12a" x="396.746648" y="8.95" style="stroke: #000000; stroke-width: 0.8"/>
      </g>
     </g>
     <g id="text_8">
      <!-- 12.5 -->
      <g transform="translate(387.017741 287.452625) scale(0.1 -0.1)">
       <use xlink:href="#HelveticaNeue-Medium-31"/>
       <use xlink:href="#HelveticaNeue-Medium-32" x="55.599991"/>
       <use xlink:href="#HelveticaNeue-Medium-2e" x="111.199982"/>
       <use xlink:href="#HelveticaNeue-Medium-35" x="138.999969"/>
      </g>
     </g>
    </g>
    <g id="text_9">
     <!-- Bulge mass [log, $M_\odot$] -->
     <g transform="translate(184.319375 300.762) scale(0.1 -0.1)">
      <defs>
       <path id="HelveticaNeue-Medium-42" d="M 1286 2656 
L 2592 2656 
Q 2880 2656 3072 2819 
Q 3264 2982 3264 3290 
Q 3264 3635 3091 3776 
Q 2918 3917 2592 3917 
L 1286 3917 
L 1286 2656 
z
M 486 4570 
L 2707 4570 
Q 3322 4570 3693 4288 
Q 4064 4006 4064 3437 
Q 4064 3091 3894 2844 
Q 3725 2598 3411 2464 
L 3411 2451 
Q 3834 2362 4051 2051 
Q 4269 1741 4269 1274 
Q 4269 1005 4173 771 
Q 4077 538 3872 368 
Q 3667 198 3347 99 
Q 3027 0 2586 0 
L 486 0 
L 486 4570 
z
M 1286 653 
L 2701 653 
Q 3066 653 3267 841 
Q 3469 1030 3469 1376 
Q 3469 1715 3267 1897 
Q 3066 2080 2701 2080 
L 1286 2080 
L 1286 653 
z
" transform="scale(0.015625)"/>
       <path id="HelveticaNeue-Medium-75" d="M 3290 0 
L 2573 0 
L 2573 461 
L 2560 461 
Q 2426 211 2160 60 
Q 1894 -90 1619 -90 
Q 966 -90 675 233 
Q 384 557 384 1210 
L 384 3309 
L 1114 3309 
L 1114 1280 
Q 1114 845 1280 665 
Q 1446 486 1747 486 
Q 1978 486 2131 556 
Q 2285 627 2381 745 
Q 2477 864 2518 1030 
Q 2560 1197 2560 1389 
L 2560 3309 
L 3290 3309 
L 3290 0 
z
" transform="scale(0.015625)"/>
       <path id="HelveticaNeue-Medium-6c" d="M 403 4570 
L 1133 4570 
L 1133 0 
L 403 0 
L 403 4570 
z
" transform="scale(0.015625)"/>
       <path id="HelveticaNeue-Medium-67" d="M 3443 173 
Q 3443 -576 3024 -944 
Q 2605 -1312 1818 -1312 
Q 1568 -1312 1315 -1261 
Q 1062 -1210 854 -1088 
Q 646 -966 505 -768 
Q 365 -570 339 -282 
L 1069 -282 
Q 1101 -435 1177 -531 
Q 1254 -627 1360 -681 
Q 1466 -736 1594 -752 
Q 1722 -768 1862 -768 
Q 2304 -768 2509 -550 
Q 2714 -333 2714 77 
L 2714 582 
L 2701 582 
Q 2547 307 2281 153 
Q 2016 0 1709 0 
Q 1312 0 1033 137 
Q 755 275 572 515 
Q 390 755 307 1068 
Q 224 1382 224 1741 
Q 224 2074 326 2374 
Q 429 2675 621 2902 
Q 813 3130 1091 3264 
Q 1370 3398 1722 3398 
Q 2035 3398 2297 3267 
Q 2560 3136 2701 2854 
L 2714 2854 
L 2714 3309 
L 3443 3309 
L 3443 173 
z
M 1824 576 
Q 2067 576 2236 675 
Q 2406 774 2512 937 
Q 2618 1101 2666 1309 
Q 2714 1517 2714 1728 
Q 2714 1939 2662 2137 
Q 2611 2336 2505 2489 
Q 2400 2643 2230 2732 
Q 2061 2822 1824 2822 
Q 1581 2822 1414 2720 
Q 1248 2618 1145 2454 
Q 1043 2291 998 2083 
Q 954 1875 954 1670 
Q 954 1466 1005 1270 
Q 1056 1075 1161 921 
Q 1267 768 1430 672 
Q 1594 576 1824 576 
z
" transform="scale(0.015625)"/>
       <path id="HelveticaNeue-Medium-65" d="M 2656 1946 
Q 2643 2118 2582 2278 
Q 2522 2438 2416 2556 
Q 2310 2675 2160 2748 
Q 2010 2822 1824 2822 
Q 1632 2822 1475 2755 
Q 1318 2688 1206 2569 
Q 1094 2451 1027 2291 
Q 960 2131 954 1946 
L 2656 1946 
z
M 954 1466 
Q 954 1274 1008 1094 
Q 1062 915 1171 780 
Q 1280 646 1446 566 
Q 1613 486 1843 486 
Q 2163 486 2358 624 
Q 2554 762 2650 1037 
L 3341 1037 
Q 3283 768 3142 557 
Q 3002 346 2803 202 
Q 2605 58 2358 -16 
Q 2112 -90 1843 -90 
Q 1453 -90 1152 38 
Q 851 166 643 396 
Q 435 627 329 947 
Q 224 1267 224 1651 
Q 224 2003 336 2320 
Q 448 2637 656 2877 
Q 864 3117 1158 3257 
Q 1453 3398 1824 3398 
Q 2214 3398 2524 3235 
Q 2835 3072 3040 2803 
Q 3245 2534 3337 2185 
Q 3430 1837 3386 1466 
L 954 1466 
z
" transform="scale(0.015625)"/>
       <path id="HelveticaNeue-Medium-20" transform="scale(0.015625)"/>
       <path id="HelveticaNeue-Medium-6d" d="M 384 3309 
L 1075 3309 
L 1075 2848 
L 1094 2848 
Q 1178 2970 1274 3072 
Q 1370 3174 1488 3244 
Q 1606 3315 1760 3356 
Q 1914 3398 2112 3398 
Q 2413 3398 2672 3264 
Q 2931 3130 3040 2848 
Q 3226 3104 3469 3251 
Q 3712 3398 4077 3398 
Q 4602 3398 4893 3142 
Q 5184 2886 5184 2285 
L 5184 0 
L 4454 0 
L 4454 1933 
Q 4454 2131 4441 2294 
Q 4429 2458 4368 2576 
Q 4307 2694 4185 2758 
Q 4064 2822 3853 2822 
Q 3482 2822 3315 2592 
Q 3149 2362 3149 1939 
L 3149 0 
L 2419 0 
L 2419 2125 
Q 2419 2470 2294 2646 
Q 2170 2822 1837 2822 
Q 1696 2822 1565 2764 
Q 1434 2707 1334 2598 
Q 1235 2490 1174 2330 
Q 1114 2170 1114 1965 
L 1114 0 
L 384 0 
L 384 3309 
z
" transform="scale(0.015625)"/>
       <path id="HelveticaNeue-Medium-61" d="M 3155 736 
Q 3155 602 3190 544 
Q 3226 486 3328 486 
Q 3360 486 3405 486 
Q 3450 486 3507 499 
L 3507 -6 
Q 3469 -19 3408 -35 
Q 3347 -51 3283 -64 
Q 3219 -77 3155 -83 
Q 3091 -90 3046 -90 
Q 2822 -90 2675 0 
Q 2528 90 2483 314 
Q 2266 102 1949 6 
Q 1632 -90 1338 -90 
Q 1114 -90 909 -29 
Q 704 32 547 150 
Q 390 269 297 451 
Q 205 634 205 877 
Q 205 1184 317 1376 
Q 429 1568 611 1677 
Q 794 1786 1021 1834 
Q 1248 1882 1478 1907 
Q 1677 1946 1856 1962 
Q 2035 1978 2172 2016 
Q 2310 2054 2390 2134 
Q 2470 2214 2470 2374 
Q 2470 2515 2403 2604 
Q 2336 2694 2237 2742 
Q 2138 2790 2016 2806 
Q 1894 2822 1786 2822 
Q 1478 2822 1280 2694 
Q 1082 2566 1056 2298 
L 326 2298 
Q 346 2618 480 2829 
Q 614 3040 822 3168 
Q 1030 3296 1292 3347 
Q 1555 3398 1830 3398 
Q 2074 3398 2310 3347 
Q 2547 3296 2736 3181 
Q 2925 3066 3040 2883 
Q 3155 2701 3155 2438 
L 3155 736 
z
M 2426 1658 
Q 2259 1549 2016 1526 
Q 1773 1504 1530 1459 
Q 1414 1440 1305 1405 
Q 1197 1370 1113 1309 
Q 1030 1248 982 1149 
Q 934 1050 934 909 
Q 934 787 1004 704 
Q 1075 621 1174 573 
Q 1274 525 1392 505 
Q 1510 486 1606 486 
Q 1728 486 1869 518 
Q 2010 550 2134 627 
Q 2259 704 2342 822 
Q 2426 941 2426 1114 
L 2426 1658 
z
" transform="scale(0.015625)"/>
       <path id="HelveticaNeue-Medium-73" d="M 934 1062 
Q 966 742 1177 614 
Q 1389 486 1683 486 
Q 1786 486 1917 502 
Q 2048 518 2163 563 
Q 2278 608 2352 694 
Q 2426 781 2419 921 
Q 2413 1062 2317 1152 
Q 2221 1242 2070 1296 
Q 1920 1350 1728 1388 
Q 1536 1427 1338 1472 
Q 1133 1517 944 1581 
Q 755 1645 604 1753 
Q 454 1862 364 2032 
Q 275 2202 275 2451 
Q 275 2720 406 2902 
Q 538 3085 739 3197 
Q 941 3309 1187 3353 
Q 1434 3398 1658 3398 
Q 1914 3398 2147 3344 
Q 2381 3290 2569 3168 
Q 2758 3046 2883 2851 
Q 3008 2656 3040 2381 
L 2278 2381 
Q 2227 2643 2038 2732 
Q 1850 2822 1606 2822 
Q 1530 2822 1424 2809 
Q 1318 2797 1225 2761 
Q 1133 2726 1069 2659 
Q 1005 2592 1005 2483 
Q 1005 2349 1097 2265 
Q 1190 2182 1340 2128 
Q 1491 2074 1683 2035 
Q 1875 1997 2080 1952 
Q 2278 1907 2470 1843 
Q 2662 1779 2812 1670 
Q 2963 1562 3056 1395 
Q 3149 1229 3149 986 
Q 3149 691 3014 486 
Q 2880 282 2665 154 
Q 2451 26 2188 -32 
Q 1926 -90 1670 -90 
Q 1357 -90 1091 -19 
Q 826 51 630 195 
Q 435 339 323 553 
Q 211 768 205 1062 
L 934 1062 
z
" transform="scale(0.015625)"/>
       <path id="HelveticaNeue-Medium-5b" d="M 461 4678 
L 1888 4678 
L 1888 4102 
L 1152 4102 
L 1152 -646 
L 1888 -646 
L 1888 -1222 
L 461 -1222 
L 461 4678 
z
" transform="scale(0.015625)"/>
       <path id="HelveticaNeue-Medium-6f" d="M 1901 -90 
Q 1504 -90 1193 41 
Q 883 173 668 403 
Q 454 634 342 954 
Q 230 1274 230 1658 
Q 230 2035 342 2355 
Q 454 2675 668 2905 
Q 883 3136 1193 3267 
Q 1504 3398 1901 3398 
Q 2298 3398 2608 3267 
Q 2918 3136 3132 2905 
Q 3347 2675 3459 2355 
Q 3571 2035 3571 1658 
Q 3571 1274 3459 954 
Q 3347 634 3132 403 
Q 2918 173 2608 41 
Q 2298 -90 1901 -90 
z
M 1901 486 
Q 2144 486 2323 588 
Q 2502 691 2617 857 
Q 2733 1024 2787 1232 
Q 2842 1440 2842 1658 
Q 2842 1869 2787 2080 
Q 2733 2291 2617 2454 
Q 2502 2618 2323 2720 
Q 2144 2822 1901 2822 
Q 1658 2822 1478 2720 
Q 1299 2618 1184 2454 
Q 1069 2291 1014 2080 
Q 960 1869 960 1658 
Q 960 1440 1014 1232 
Q 1069 1024 1184 857 
Q 1299 691 1478 588 
Q 1658 486 1901 486 
z
" transform="scale(0.015625)"/>
       <path id="HelveticaNeue-Medium-2c" d="M 442 864 
L 1331 864 
L 1331 0 
Q 1325 -397 1088 -665 
Q 851 -934 467 -1011 
L 467 -621 
Q 678 -570 784 -387 
Q 890 -205 883 0 
L 442 0 
L 442 864 
z
" transform="scale(0.015625)"/>
       <path id="DejaVuSans-Oblique-4d" d="M 1081 4666 
L 2028 4666 
L 2572 1522 
L 4378 4666 
L 5350 4666 
L 4441 0 
L 3828 0 
L 4622 4091 
L 2791 897 
L 2175 897 
L 1581 4103 
L 788 0 
L 172 0 
L 1081 4666 
z
" transform="scale(0.015625)"/>
       <path id="DejaVuSans-2299" d="M 2350 2403 
L 3013 2403 
L 3013 1609 
L 2350 1609 
L 2350 2403 
z
M 3306 3522 
Q 3016 3644 2681 3644 
Q 2347 3644 2056 3522 
Q 1769 3400 1531 3163 
Q 1291 2922 1172 2634 
Q 1053 2347 1053 2006 
Q 1053 1675 1172 1387 
Q 1291 1100 1531 859 
Q 1769 622 2056 500 
Q 2347 378 2681 378 
Q 3016 378 3306 500 
Q 3594 622 3831 859 
Q 4072 1100 4190 1387 
Q 4309 1675 4309 2006 
Q 4309 2347 4190 2634 
Q 4072 2922 3831 3163 
Q 3594 3400 3306 3522 
z
M 1878 3956 
Q 2250 4113 2681 4113 
Q 3113 4113 3484 3956 
Q 3856 3800 4163 3494 
Q 4472 3184 4625 2813 
Q 4778 2444 4778 2006 
Q 4778 1578 4625 1206 
Q 4472 838 4163 528 
Q 3856 222 3484 65 
Q 3113 -91 2681 -91 
Q 2250 -91 1878 65 
Q 1506 222 1200 528 
Q 891 838 738 1206 
Q 584 1578 584 2006 
Q 584 2444 738 2813 
Q 891 3184 1200 3494 
Q 1506 3800 1878 3956 
z
" transform="scale(0.015625)"/>
       <path id="HelveticaNeue-Medium-5d" d="M 1434 -1222 
L 6 -1222 
L 6 -646 
L 742 -646 
L 742 4102 
L 6 4102 
L 6 4678 
L 1434 4678 
L 1434 -1222 
z
" transform="scale(0.015625)"/>
      </defs>
      <use xlink:href="#HelveticaNeue-Medium-42" transform="translate(0 0.90625)"/>
      <use xlink:href="#HelveticaNeue-Medium-75" transform="translate(70.399994 0.90625)"/>
      <use xlink:href="#HelveticaNeue-Medium-6c" transform="translate(127.799988 0.90625)"/>
      <use xlink:href="#HelveticaNeue-Medium-67" transform="translate(151.899979 0.90625)"/>
      <use xlink:href="#HelveticaNeue-Medium-65" transform="translate(211.199966 0.90625)"/>
      <use xlink:href="#HelveticaNeue-Medium-20" transform="translate(266.799957 0.90625)"/>
      <use xlink:href="#HelveticaNeue-Medium-6d" transform="translate(294.599945 0.90625)"/>
      <use xlink:href="#HelveticaNeue-Medium-61" transform="translate(381.59993 0.90625)"/>
      <use xlink:href="#HelveticaNeue-Medium-73" transform="translate(437.199921 0.90625)"/>
      <use xlink:href="#HelveticaNeue-Medium-73" transform="translate(489.099915 0.90625)"/>
      <use xlink:href="#HelveticaNeue-Medium-20" transform="translate(540.999908 0.90625)"/>
      <use xlink:href="#HelveticaNeue-Medium-5b" transform="translate(568.799896 0.90625)"/>
      <use xlink:href="#HelveticaNeue-Medium-6c" transform="translate(598.399887 0.90625)"/>
      <use xlink:href="#HelveticaNeue-Medium-6f" transform="translate(622.499878 0.90625)"/>
      <use xlink:href="#HelveticaNeue-Medium-67" transform="translate(681.799866 0.90625)"/>
      <use xlink:href="#HelveticaNeue-Medium-2c" transform="translate(741.099854 0.90625)"/>
      <use xlink:href="#HelveticaNeue-Medium-20" transform="translate(768.899841 0.90625)"/>
      <use xlink:href="#DejaVuSans-Oblique-4d" transform="translate(796.699829 0.90625)"/>
      <use xlink:href="#DejaVuSans-2299" transform="translate(896.616821 -15.5) scale(0.7)"/>
      <use xlink:href="#HelveticaNeue-Medium-5d" transform="translate(971.641235 0.90625)"/>
     </g>
    </g>
   </g>
   <g id="matplotlib.axis_2">
    <g id="ytick_1">
     <g id="line2d_17">
      <defs>
       <path id="m07f26a877f" d="M 1.75 0 
L -1.75 -0 
" style="stroke: #000000; stroke-width: 0.8"/>
      </defs>
      <g>
       <use xlink:href="#m07f26a877f" x="55.859375" y="224.934649" style="stroke: #000000; stroke-width: 0.8"/>
      </g>
     </g>
     <g id="line2d_18">
      <g>
       <use xlink:href="#m07f26a877f" x="412.979375" y="224.934649" style="stroke: #000000; stroke-width: 0.8"/>
      </g>
     </g>
     <g id="text_10">
      <!-- $\mathdefault{10^{2}}$ -->
      <g transform="translate(35.209375 228.504962) scale(0.1 -0.1)">
       <use xlink:href="#HelveticaNeue-Medium-31" transform="translate(0 0.823438)"/>
       <use xlink:href="#HelveticaNeue-Medium-30" transform="translate(55.599991 0.823438)"/>
       <use xlink:href="#HelveticaNeue-Medium-32" transform="translate(112.104786 37.015625) scale(0.7)"/>
      </g>
     </g>
    </g>
    <g id="ytick_2">
     <g id="line2d_19">
      <defs>
       <path id="m99c51db44e" d="M 1 0 
L -1 -0 
" style="stroke: #000000; stroke-width: 0.6"/>
      </defs>
      <g>
       <use xlink:href="#m99c51db44e" x="55.859375" y="269.9848" style="stroke: #000000; stroke-width: 0.6"/>
      </g>
     </g>
     <g id="line2d_20">
      <g>
       <use xlink:href="#m99c51db44e" x="412.979375" y="269.9848" style="stroke: #000000; stroke-width: 0.6"/>
      </g>
     </g>
    </g>
    <g id="ytick_3">
     <g id="line2d_21">
      <g>
       <use xlink:href="#m99c51db44e" x="55.859375" y="253.118997" style="stroke: #000000; stroke-width: 0.6"/>
      </g>
     </g>
     <g id="line2d_22">
      <g>
       <use xlink:href="#m99c51db44e" x="412.979375" y="253.118997" style="stroke: #000000; stroke-width: 0.6"/>
      </g>
     </g>
    </g>
    <g id="ytick_4">
     <g id="line2d_23">
      <g>
       <use xlink:href="#m99c51db44e" x="55.859375" y="238.242304" style="stroke: #000000; stroke-width: 0.6"/>
      </g>
     </g>
     <g id="line2d_24">
      <g>
       <use xlink:href="#m99c51db44e" x="412.979375" y="238.242304" style="stroke: #000000; stroke-width: 0.6"/>
      </g>
     </g>
    </g>
    <g id="ytick_5">
     <g id="line2d_25">
      <g>
       <use xlink:href="#m99c51db44e" x="55.859375" y="137.386068" style="stroke: #000000; stroke-width: 0.6"/>
      </g>
     </g>
     <g id="line2d_26">
      <g>
       <use xlink:href="#m99c51db44e" x="412.979375" y="137.386068" style="stroke: #000000; stroke-width: 0.6"/>
      </g>
     </g>
     <g id="text_11">
      <!-- $\mathdefault{2\times10^{2}}$ -->
      <g transform="translate(20.559375 140.956381) scale(0.1 -0.1)">
       <defs>
        <path id="HelveticaNeue-Medium-d7" d="M 352 2733 
L 902 3091 
L 1914 2074 
L 2938 3091 
L 3488 2733 
L 2368 1619 
L 3488 506 
L 2938 147 
L 1914 1171 
L 902 147 
L 352 506 
L 1466 1619 
L 352 2733 
z
" transform="scale(0.015625)"/>
       </defs>
       <use xlink:href="#HelveticaNeue-Medium-32" transform="translate(0 0.823438)"/>
       <use xlink:href="#HelveticaNeue-Medium-d7" transform="translate(75.082413 0.823438)"/>
       <use xlink:href="#HelveticaNeue-Medium-31" transform="translate(154.564819 0.823438)"/>
       <use xlink:href="#HelveticaNeue-Medium-30" transform="translate(210.16481 0.823438)"/>
       <use xlink:href="#HelveticaNeue-Medium-32" transform="translate(266.669606 37.015625) scale(0.7)"/>
      </g>
     </g>
    </g>
    <g id="ytick_6">
     <g id="line2d_27">
      <g>
       <use xlink:href="#m99c51db44e" x="55.859375" y="86.173432" style="stroke: #000000; stroke-width: 0.6"/>
      </g>
     </g>
     <g id="line2d_28">
      <g>
       <use xlink:href="#m99c51db44e" x="412.979375" y="86.173432" style="stroke: #000000; stroke-width: 0.6"/>
      </g>
     </g>
     <g id="text_12">
      <!-- $\mathdefault{3\times10^{2}}$ -->
      <g transform="translate(20.559375 89.743744) scale(0.1 -0.1)">
       <defs>
        <path id="HelveticaNeue-Medium-33" d="M 1459 2624 
Q 1638 2618 1817 2650 
Q 1997 2682 2137 2762 
Q 2278 2842 2364 2982 
Q 2451 3123 2451 3328 
Q 2451 3616 2256 3789 
Q 2061 3962 1754 3962 
Q 1562 3962 1421 3885 
Q 1280 3808 1187 3677 
Q 1094 3546 1049 3382 
Q 1005 3219 1011 3046 
L 282 3046 
Q 294 3373 403 3651 
Q 512 3930 701 4134 
Q 890 4339 1158 4454 
Q 1427 4570 1766 4570 
Q 2029 4570 2281 4493 
Q 2534 4416 2736 4269 
Q 2938 4122 3059 3894 
Q 3181 3667 3181 3373 
Q 3181 3034 3027 2781 
Q 2874 2528 2547 2413 
L 2547 2400 
Q 2931 2323 3145 2019 
Q 3360 1715 3360 1280 
Q 3360 960 3232 707 
Q 3104 454 2886 278 
Q 2669 102 2381 6 
Q 2093 -90 1773 -90 
Q 1382 -90 1091 22 
Q 800 134 605 339 
Q 410 544 307 832 
Q 205 1120 198 1472 
L 928 1472 
Q 915 1062 1129 790 
Q 1344 518 1773 518 
Q 2138 518 2384 726 
Q 2630 934 2630 1318 
Q 2630 1581 2528 1734 
Q 2426 1888 2259 1968 
Q 2093 2048 1885 2067 
Q 1677 2086 1459 2080 
L 1459 2624 
z
" transform="scale(0.015625)"/>
       </defs>
       <use xlink:href="#HelveticaNeue-Medium-33" transform="translate(0 0.823438)"/>
       <use xlink:href="#HelveticaNeue-Medium-d7" transform="translate(75.082413 0.823438)"/>
       <use xlink:href="#HelveticaNeue-Medium-31" transform="translate(154.564819 0.823438)"/>
       <use xlink:href="#HelveticaNeue-Medium-30" transform="translate(210.16481 0.823438)"/>
       <use xlink:href="#HelveticaNeue-Medium-32" transform="translate(266.669606 37.015625) scale(0.7)"/>
      </g>
     </g>
    </g>
    <g id="ytick_7">
     <g id="line2d_29">
      <g>
       <use xlink:href="#m99c51db44e" x="55.859375" y="49.837487" style="stroke: #000000; stroke-width: 0.6"/>
      </g>
     </g>
     <g id="line2d_30">
      <g>
       <use xlink:href="#m99c51db44e" x="412.979375" y="49.837487" style="stroke: #000000; stroke-width: 0.6"/>
      </g>
     </g>
     <g id="text_13">
      <!-- $\mathdefault{4\times10^{2}}$ -->
      <g transform="translate(20.559375 53.4078) scale(0.1 -0.1)">
       <defs>
        <path id="HelveticaNeue-Medium-34" d="M 717 1638 
L 2074 1638 
L 2074 3610 
L 2061 3610 
L 717 1638 
z
M 3341 1062 
L 2765 1062 
L 2765 0 
L 2074 0 
L 2074 1062 
L 154 1062 
L 154 1786 
L 2074 4480 
L 2765 4480 
L 2765 1638 
L 3341 1638 
L 3341 1062 
z
" transform="scale(0.015625)"/>
       </defs>
       <use xlink:href="#HelveticaNeue-Medium-34" transform="translate(0 0.823438)"/>
       <use xlink:href="#HelveticaNeue-Medium-d7" transform="translate(75.082413 0.823438)"/>
       <use xlink:href="#HelveticaNeue-Medium-31" transform="translate(154.564819 0.823438)"/>
       <use xlink:href="#HelveticaNeue-Medium-30" transform="translate(210.16481 0.823438)"/>
       <use xlink:href="#HelveticaNeue-Medium-32" transform="translate(266.669606 37.015625) scale(0.7)"/>
      </g>
     </g>
    </g>
    <g id="ytick_8">
     <g id="line2d_31">
      <g>
       <use xlink:href="#m99c51db44e" x="55.859375" y="21.65314" style="stroke: #000000; stroke-width: 0.6"/>
      </g>
     </g>
     <g id="line2d_32">
      <g>
       <use xlink:href="#m99c51db44e" x="412.979375" y="21.65314" style="stroke: #000000; stroke-width: 0.6"/>
      </g>
     </g>
    </g>
    <g id="text_14">
     <!-- Velocity dispersion [log, km/s] -->
     <g transform="translate(14.509375 211.107562) rotate(-90) scale(0.1 -0.1)">
      <defs>
       <path id="HelveticaNeue-Medium-56" d="M -32 4570 
L 800 4570 
L 1946 954 
L 1958 954 
L 3130 4570 
L 3942 4570 
L 2381 0 
L 1491 0 
L -32 4570 
z
" transform="scale(0.015625)"/>
       <path id="HelveticaNeue-Medium-63" d="M 2618 2202 
Q 2573 2509 2371 2665 
Q 2170 2822 1862 2822 
Q 1722 2822 1562 2774 
Q 1402 2726 1267 2595 
Q 1133 2464 1043 2230 
Q 954 1997 954 1619 
Q 954 1414 1002 1209 
Q 1050 1005 1155 845 
Q 1261 685 1427 585 
Q 1594 486 1830 486 
Q 2150 486 2358 684 
Q 2566 883 2618 1242 
L 3347 1242 
Q 3245 595 2857 252 
Q 2470 -90 1830 -90 
Q 1440 -90 1142 41 
Q 845 173 640 400 
Q 435 627 329 940 
Q 224 1254 224 1619 
Q 224 1990 326 2316 
Q 429 2643 633 2883 
Q 838 3123 1142 3260 
Q 1446 3398 1856 3398 
Q 2144 3398 2403 3324 
Q 2662 3251 2864 3104 
Q 3066 2957 3194 2733 
Q 3322 2509 3347 2202 
L 2618 2202 
z
" transform="scale(0.015625)"/>
       <path id="HelveticaNeue-Medium-69" d="M 403 4570 
L 1133 4570 
L 1133 3878 
L 403 3878 
L 403 4570 
z
M 403 3309 
L 1133 3309 
L 1133 0 
L 403 0 
L 403 3309 
z
" transform="scale(0.015625)"/>
       <path id="HelveticaNeue-Medium-74" d="M 51 3309 
L 602 3309 
L 602 4301 
L 1331 4301 
L 1331 3309 
L 1990 3309 
L 1990 2765 
L 1331 2765 
L 1331 998 
Q 1331 883 1340 800 
Q 1350 717 1385 659 
Q 1421 602 1491 573 
Q 1562 544 1683 544 
Q 1760 544 1837 547 
Q 1914 550 1990 570 
L 1990 6 
Q 1869 -6 1753 -19 
Q 1638 -32 1517 -32 
Q 1229 -32 1053 22 
Q 877 77 777 182 
Q 678 288 643 448 
Q 608 608 602 813 
L 602 2765 
L 51 2765 
L 51 3309 
z
" transform="scale(0.015625)"/>
       <path id="HelveticaNeue-Medium-79" d="M 19 3309 
L 819 3309 
L 1683 838 
L 1696 838 
L 2534 3309 
L 3296 3309 
L 2010 -179 
Q 1920 -403 1833 -608 
Q 1747 -813 1622 -969 
Q 1498 -1126 1312 -1219 
Q 1126 -1312 838 -1312 
Q 582 -1312 333 -1274 
L 333 -659 
Q 422 -672 505 -688 
Q 589 -704 678 -704 
Q 806 -704 889 -672 
Q 973 -640 1027 -579 
Q 1082 -518 1120 -435 
Q 1158 -352 1190 -243 
L 1274 13 
L 19 3309 
z
" transform="scale(0.015625)"/>
       <path id="HelveticaNeue-Medium-64" d="M 3501 0 
L 2810 0 
L 2810 448 
L 2797 448 
Q 2650 160 2368 35 
Q 2086 -90 1773 -90 
Q 1382 -90 1091 48 
Q 800 186 608 422 
Q 416 659 320 982 
Q 224 1306 224 1677 
Q 224 2125 345 2451 
Q 467 2778 668 2989 
Q 870 3200 1129 3299 
Q 1389 3398 1658 3398 
Q 1811 3398 1971 3369 
Q 2131 3341 2278 3277 
Q 2426 3213 2550 3113 
Q 2675 3014 2758 2880 
L 2771 2880 
L 2771 4570 
L 3501 4570 
L 3501 0 
z
M 954 1619 
Q 954 1408 1008 1203 
Q 1062 998 1174 838 
Q 1286 678 1459 582 
Q 1632 486 1869 486 
Q 2112 486 2288 588 
Q 2464 691 2576 857 
Q 2688 1024 2742 1232 
Q 2797 1440 2797 1658 
Q 2797 2208 2550 2515 
Q 2304 2822 1882 2822 
Q 1626 2822 1450 2716 
Q 1274 2611 1162 2441 
Q 1050 2272 1002 2057 
Q 954 1843 954 1619 
z
" transform="scale(0.015625)"/>
       <path id="HelveticaNeue-Medium-70" d="M 403 3309 
L 1094 3309 
L 1094 2861 
L 1107 2861 
Q 1261 3149 1536 3273 
Q 1811 3398 2131 3398 
Q 2522 3398 2813 3260 
Q 3104 3123 3296 2883 
Q 3488 2643 3584 2323 
Q 3680 2003 3680 1638 
Q 3680 1306 3593 992 
Q 3507 678 3331 438 
Q 3155 198 2886 54 
Q 2618 -90 2253 -90 
Q 2093 -90 1933 -61 
Q 1773 -32 1625 32 
Q 1478 96 1353 195 
Q 1229 294 1146 429 
L 1133 429 
L 1133 -1222 
L 403 -1222 
L 403 3309 
z
M 2950 1651 
Q 2950 1875 2892 2086 
Q 2835 2298 2720 2461 
Q 2605 2624 2432 2723 
Q 2259 2822 2035 2822 
Q 1574 2822 1340 2502 
Q 1107 2182 1107 1651 
Q 1107 1402 1168 1187 
Q 1229 973 1350 819 
Q 1472 666 1641 576 
Q 1811 486 2035 486 
Q 2285 486 2457 588 
Q 2630 691 2742 854 
Q 2854 1018 2902 1226 
Q 2950 1434 2950 1651 
z
" transform="scale(0.015625)"/>
       <path id="HelveticaNeue-Medium-72" d="M 384 3309 
L 1069 3309 
L 1069 2669 
L 1082 2669 
Q 1114 2803 1206 2931 
Q 1299 3059 1430 3164 
Q 1562 3270 1722 3334 
Q 1882 3398 2048 3398 
Q 2176 3398 2224 3392 
Q 2272 3386 2323 3379 
L 2323 2675 
Q 2246 2688 2166 2697 
Q 2086 2707 2010 2707 
Q 1824 2707 1661 2633 
Q 1498 2560 1376 2416 
Q 1254 2272 1184 2061 
Q 1114 1850 1114 1574 
L 1114 0 
L 384 0 
L 384 3309 
z
" transform="scale(0.015625)"/>
       <path id="HelveticaNeue-Medium-6e" d="M 384 3309 
L 1075 3309 
L 1075 2822 
L 1088 2810 
Q 1254 3085 1523 3241 
Q 1792 3398 2118 3398 
Q 2662 3398 2976 3116 
Q 3290 2835 3290 2272 
L 3290 0 
L 2560 0 
L 2560 2080 
Q 2547 2470 2393 2646 
Q 2240 2822 1914 2822 
Q 1728 2822 1581 2755 
Q 1434 2688 1331 2569 
Q 1229 2451 1171 2291 
Q 1114 2131 1114 1952 
L 1114 0 
L 384 0 
L 384 3309 
z
" transform="scale(0.015625)"/>
       <path id="HelveticaNeue-Medium-6b" d="M 403 4570 
L 1133 4570 
L 1133 1971 
L 2451 3309 
L 3347 3309 
L 2080 2093 
L 3469 0 
L 2579 0 
L 1568 1606 
L 1133 1184 
L 1133 0 
L 403 0 
L 403 4570 
z
" transform="scale(0.015625)"/>
       <path id="HelveticaNeue-Medium-2f" d="M 1696 4678 
L 2394 4678 
L 557 -109 
L -141 -109 
L 1696 4678 
z
" transform="scale(0.015625)"/>
      </defs>
      <use xlink:href="#HelveticaNeue-Medium-56"/>
      <use xlink:href="#HelveticaNeue-Medium-65" x="55.599991"/>
      <use xlink:href="#HelveticaNeue-Medium-6c" x="111.199982"/>
      <use xlink:href="#HelveticaNeue-Medium-6f" x="135.299973"/>
      <use xlink:href="#HelveticaNeue-Medium-63" x="194.59996"/>
      <use xlink:href="#HelveticaNeue-Medium-69" x="250.199951"/>
      <use xlink:href="#HelveticaNeue-Medium-74" x="274.299942"/>
      <use xlink:href="#HelveticaNeue-Medium-79" x="307.59993"/>
      <use xlink:href="#HelveticaNeue-Medium-20" x="359.499924"/>
      <use xlink:href="#HelveticaNeue-Medium-64" x="387.299911"/>
      <use xlink:href="#HelveticaNeue-Medium-69" x="448.399902"/>
      <use xlink:href="#HelveticaNeue-Medium-73" x="472.499893"/>
      <use xlink:href="#HelveticaNeue-Medium-70" x="524.399887"/>
      <use xlink:href="#HelveticaNeue-Medium-65" x="585.499878"/>
      <use xlink:href="#HelveticaNeue-Medium-72" x="641.099869"/>
      <use xlink:href="#HelveticaNeue-Medium-73" x="676.299866"/>
      <use xlink:href="#HelveticaNeue-Medium-69" x="728.19986"/>
      <use xlink:href="#HelveticaNeue-Medium-6f" x="752.29985"/>
      <use xlink:href="#HelveticaNeue-Medium-6e" x="811.599838"/>
      <use xlink:href="#HelveticaNeue-Medium-20" x="868.999832"/>
      <use xlink:href="#HelveticaNeue-Medium-5b" x="896.79982"/>
      <use xlink:href="#HelveticaNeue-Medium-6c" x="926.399811"/>
      <use xlink:href="#HelveticaNeue-Medium-6f" x="950.499802"/>
      <use xlink:href="#HelveticaNeue-Medium-67" x="1009.799789"/>
      <use xlink:href="#HelveticaNeue-Medium-2c" x="1069.099777"/>
      <use xlink:href="#HelveticaNeue-Medium-20" x="1096.899765"/>
      <use xlink:href="#HelveticaNeue-Medium-6b" x="1124.699753"/>
      <use xlink:href="#HelveticaNeue-Medium-6d" x="1178.39975"/>
      <use xlink:href="#HelveticaNeue-Medium-2f" x="1265.399734"/>
      <use xlink:href="#HelveticaNeue-Medium-73" x="1300.599731"/>
      <use xlink:href="#HelveticaNeue-Medium-5d" x="1352.499725"/>
     </g>
    </g>
   </g>
   <g id="LineCollection_1">
    <path d="M 72.092102 257.946562 
L 90.382499 257.946562 
" clip-path="url(#pda62999c96)" style="fill: none; stroke: #ffa500; stroke-width: 1.5"/>
    <path d="M 328.157659 121.94926 
L 344.619016 121.94926 
" clip-path="url(#pda62999c96)" style="fill: none; stroke: #ffa500; stroke-width: 1.5"/>
    <path d="M 276.030028 74.903013 
L 292.491385 74.903013 
" clip-path="url(#pda62999c96)" style="fill: none; stroke: #ffa500; stroke-width: 1.5"/>
    <path d="M 219.329798 160.161998 
L 235.791155 160.161998 
" clip-path="url(#pda62999c96)" style="fill: none; stroke: #ffa500; stroke-width: 1.5"/>
    <path d="M 297.063984 80.010946 
L 313.525342 80.010946 
" clip-path="url(#pda62999c96)" style="fill: none; stroke: #ffa500; stroke-width: 1.5"/>
    <path d="M 319.012461 96.705021 
L 335.473818 96.705021 
" clip-path="url(#pda62999c96)" style="fill: none; stroke: #ffa500; stroke-width: 1.5"/>
    <path d="M 281.517147 99.481087 
L 297.978504 99.481087 
" clip-path="url(#pda62999c96)" style="fill: none; stroke: #ffa500; stroke-width: 1.5"/>
    <path d="M 183.663524 154.251872 
L 200.124881 154.251872 
" clip-path="url(#pda62999c96)" style="fill: none; stroke: #ffa500; stroke-width: 1.5"/>
    <path d="M 256.825111 160.920594 
L 273.286468 160.920594 
" clip-path="url(#pda62999c96)" style="fill: none; stroke: #ffa500; stroke-width: 1.5"/>
    <path d="M 307.123703 87.442848 
L 323.58506 87.442848 
" clip-path="url(#pda62999c96)" style="fill: none; stroke: #ffa500; stroke-width: 1.5"/>
    <path d="M 205.612 178.003979 
L 222.073357 178.003979 
" clip-path="url(#pda62999c96)" style="fill: none; stroke: #ffa500; stroke-width: 1.5"/>
    <path d="M 243.107314 133.652617 
L 259.568671 133.652617 
" clip-path="url(#pda62999c96)" style="fill: none; stroke: #ffa500; stroke-width: 1.5"/>
    <path d="M 275.115508 120.283663 
L 291.576865 120.283663 
" clip-path="url(#pda62999c96)" style="fill: none; stroke: #ffa500; stroke-width: 1.5"/>
    <path d="M 252.252512 149.298064 
L 268.713869 149.298064 
" clip-path="url(#pda62999c96)" style="fill: none; stroke: #ffa500; stroke-width: 1.5"/>
    <path d="M 321.75602 99.481087 
L 338.217378 99.481087 
" clip-path="url(#pda62999c96)" style="fill: none; stroke: #ffa500; stroke-width: 1.5"/>
    <path d="M 310.781782 80.010946 
L 327.243139 80.010946 
" clip-path="url(#pda62999c96)" style="fill: none; stroke: #ffa500; stroke-width: 1.5"/>
    <path d="M 237.620194 113.309592 
L 254.081552 113.309592 
" clip-path="url(#pda62999c96)" style="fill: none; stroke: #ffa500; stroke-width: 1.5"/>
    <path d="M 308.038223 87.868838 
L 324.49958 87.868838 
" clip-path="url(#pda62999c96)" style="fill: none; stroke: #ffa500; stroke-width: 1.5"/>
    <path d="M 297.978504 149.298064 
L 314.439862 149.298064 
" clip-path="url(#pda62999c96)" style="fill: none; stroke: #ffa500; stroke-width: 1.5"/>
    <path d="M 240.363754 160.161998 
L 256.825111 160.161998 
" clip-path="url(#pda62999c96)" style="fill: none; stroke: #ffa500; stroke-width: 1.5"/>
    <path d="M 328.157659 86.173432 
L 344.619016 86.173432 
" clip-path="url(#pda62999c96)" style="fill: none; stroke: #ffa500; stroke-width: 1.5"/>
    <path d="M 237.620194 143.864714 
L 254.081552 143.864714 
" clip-path="url(#pda62999c96)" style="fill: none; stroke: #ffa500; stroke-width: 1.5"/>
    <path d="M 317.183421 76.452798 
L 333.644778 76.452798 
" clip-path="url(#pda62999c96)" style="fill: none; stroke: #ffa500; stroke-width: 1.5"/>
    <path d="M 126.048773 147.233071 
L 144.33917 147.233071 
" clip-path="url(#pda62999c96)" style="fill: none; stroke: #ffa500; stroke-width: 1.5"/>
    <path d="M 309.867262 56.316133 
L 326.32862 56.316133 
" clip-path="url(#pda62999c96)" style="fill: none; stroke: #ffa500; stroke-width: 1.5"/>
    <path d="M 248.594433 152.816562 
L 265.05579 152.816562 
" clip-path="url(#pda62999c96)" style="fill: none; stroke: #ffa500; stroke-width: 1.5"/>
    <path d="M 265.97031 64.911687 
L 282.431667 64.911687 
" clip-path="url(#pda62999c96)" style="fill: none; stroke: #ffa500; stroke-width: 1.5"/>
    <path d="M 351.020655 67.790579 
L 367.482013 67.790579 
" clip-path="url(#pda62999c96)" style="fill: none; stroke: #ffa500; stroke-width: 1.5"/>
    <path d="M 276.944548 124.204782 
L 293.405905 124.204782 
" clip-path="url(#pda62999c96)" style="fill: none; stroke: #ffa500; stroke-width: 1.5"/>
    <path d="M 255.910591 173.722012 
L 272.371949 173.722012 
" clip-path="url(#pda62999c96)" style="fill: none; stroke: #ffa500; stroke-width: 1.5"/>
    <path d="M 310.781782 72.992145 
L 327.243139 72.992145 
" clip-path="url(#pda62999c96)" style="fill: none; stroke: #ffa500; stroke-width: 1.5"/>
    <path d="M 306.209183 74.903013 
L 322.67054 74.903013 
" clip-path="url(#pda62999c96)" style="fill: none; stroke: #ffa500; stroke-width: 1.5"/>
    <path d="M 251.337992 148.605975 
L 267.799349 148.605975 
" clip-path="url(#pda62999c96)" style="fill: none; stroke: #ffa500; stroke-width: 1.5"/>
    <path d="M 212.013639 114.885153 
L 228.474996 114.885153 
" clip-path="url(#pda62999c96)" style="fill: none; stroke: #ffa500; stroke-width: 1.5"/>
    <path d="M 314.439862 78.813724 
L 330.901219 78.813724 
" clip-path="url(#pda62999c96)" style="fill: none; stroke: #ffa500; stroke-width: 1.5"/>
    <path d="M 274.200988 53.359553 
L 290.662346 53.359553 
" clip-path="url(#pda62999c96)" style="fill: none; stroke: #ffa500; stroke-width: 1.5"/>
    <path d="M 306.209183 101.366284 
L 324.49958 101.366284 
" clip-path="url(#pda62999c96)" style="fill: none; stroke: #ffa500; stroke-width: 1.5"/>
    <path d="M 310.781782 89.587312 
L 327.243139 89.587312 
" clip-path="url(#pda62999c96)" style="fill: none; stroke: #ffa500; stroke-width: 1.5"/>
    <path d="M 319.926981 105.713762 
L 336.388338 105.713762 
" clip-path="url(#pda62999c96)" style="fill: none; stroke: #ffa500; stroke-width: 1.5"/>
    <path d="M 306.209183 73.753027 
L 322.67054 73.753027 
" clip-path="url(#pda62999c96)" style="fill: none; stroke: #ffa500; stroke-width: 1.5"/>
    <path d="M 324.49958 91.32949 
L 342.789977 91.32949 
" clip-path="url(#pda62999c96)" style="fill: none; stroke: #ffa500; stroke-width: 1.5"/>
    <path d="M 322.67054 77.23488 
L 339.131897 77.23488 
" clip-path="url(#pda62999c96)" style="fill: none; stroke: #ffa500; stroke-width: 1.5"/>
   </g>
   <g id="LineCollection_2">
    <path d="M 81.237301 262.966 
L 81.237301 253.118997 
" clip-path="url(#pda62999c96)" style="fill: none; stroke: #ffa500; stroke-width: 1.5"/>
    <path d="M 336.388338 127.082034 
L 336.388338 117.016949 
" clip-path="url(#pda62999c96)" style="fill: none; stroke: #ffa500; stroke-width: 1.5"/>
    <path d="M 284.260707 78.417159 
L 284.260707 71.483997 
" clip-path="url(#pda62999c96)" style="fill: none; stroke: #ffa500; stroke-width: 1.5"/>
    <path d="M 227.560476 162.451593 
L 227.560476 157.913169 
" clip-path="url(#pda62999c96)" style="fill: none; stroke: #ffa500; stroke-width: 1.5"/>
    <path d="M 305.294663 81.219624 
L 305.294663 78.813724 
" clip-path="url(#pda62999c96)" style="fill: none; stroke: #ffa500; stroke-width: 1.5"/>
    <path d="M 327.243139 97.623613 
L 327.243139 95.793061 
" clip-path="url(#pda62999c96)" style="fill: none; stroke: #ffa500; stroke-width: 1.5"/>
    <path d="M 289.747826 104.247913 
L 289.747826 94.887638 
" clip-path="url(#pda62999c96)" style="fill: none; stroke: #ffa500; stroke-width: 1.5"/>
    <path d="M 191.894202 160.161998 
L 191.894202 148.605975 
" clip-path="url(#pda62999c96)" style="fill: none; stroke: #ffa500; stroke-width: 1.5"/>
    <path d="M 265.05579 173.722012 
L 265.05579 149.298064 
" clip-path="url(#pda62999c96)" style="fill: none; stroke: #ffa500; stroke-width: 1.5"/>
    <path d="M 315.354381 92.652077 
L 315.354381 82.43998 
" clip-path="url(#pda62999c96)" style="fill: none; stroke: #ffa500; stroke-width: 1.5"/>
    <path d="M 213.842678 184.253602 
L 213.842678 172.049062 
" clip-path="url(#pda62999c96)" style="fill: none; stroke: #ffa500; stroke-width: 1.5"/>
    <path d="M 251.337992 139.93779 
L 251.337992 127.665434 
" clip-path="url(#pda62999c96)" style="fill: none; stroke: #ffa500; stroke-width: 1.5"/>
    <path d="M 283.346187 126.501317 
L 283.346187 114.357779 
" clip-path="url(#pda62999c96)" style="fill: none; stroke: #ffa500; stroke-width: 1.5"/>
    <path d="M 260.483191 155.703679 
L 260.483191 143.20169 
" clip-path="url(#pda62999c96)" style="fill: none; stroke: #ffa500; stroke-width: 1.5"/>
    <path d="M 329.986699 112.788742 
L 329.986699 87.442848 
" clip-path="url(#pda62999c96)" style="fill: none; stroke: #ffa500; stroke-width: 1.5"/>
    <path d="M 319.012461 86.173432 
L 319.012461 74.135193 
" clip-path="url(#pda62999c96)" style="fill: none; stroke: #ffa500; stroke-width: 1.5"/>
    <path d="M 245.850873 119.73331 
L 245.850873 107.196823 
" clip-path="url(#pda62999c96)" style="fill: none; stroke: #ffa500; stroke-width: 1.5"/>
    <path d="M 316.268901 93.98866 
L 316.268901 82.031883 
" clip-path="url(#pda62999c96)" style="fill: none; stroke: #ffa500; stroke-width: 1.5"/>
    <path d="M 306.209183 152.816562 
L 306.209183 145.87493 
" clip-path="url(#pda62999c96)" style="fill: none; stroke: #ffa500; stroke-width: 1.5"/>
    <path d="M 248.594433 166.362305 
L 248.594433 154.251872 
" clip-path="url(#pda62999c96)" style="fill: none; stroke: #ffa500; stroke-width: 1.5"/>
    <path d="M 336.388338 89.155497 
L 336.388338 83.260151 
" clip-path="url(#pda62999c96)" style="fill: none; stroke: #ffa500; stroke-width: 1.5"/>
    <path d="M 245.850873 149.993966 
L 245.850873 138.019182 
" clip-path="url(#pda62999c96)" style="fill: none; stroke: #ffa500; stroke-width: 1.5"/>
    <path d="M 325.4141 87.868838 
L 325.4141 65.983597 
" clip-path="url(#pda62999c96)" style="fill: none; stroke: #ffa500; stroke-width: 1.5"/>
    <path d="M 135.193972 153.532178 
L 135.193972 141.233246 
" clip-path="url(#pda62999c96)" style="fill: none; stroke: #ffa500; stroke-width: 1.5"/>
    <path d="M 318.097941 62.794779 
L 318.097941 50.153648 
" clip-path="url(#pda62999c96)" style="fill: none; stroke: #ffa500; stroke-width: 1.5"/>
    <path d="M 256.825111 158.658338 
L 256.825111 147.233071 
" clip-path="url(#pda62999c96)" style="fill: none; stroke: #ffa500; stroke-width: 1.5"/>
    <path d="M 274.200988 69.993645 
L 274.200988 60.02632 
" clip-path="url(#pda62999c96)" style="fill: none; stroke: #ffa500; stroke-width: 1.5"/>
    <path d="M 359.251334 69.623788 
L 359.251334 65.983597 
" clip-path="url(#pda62999c96)" style="fill: none; stroke: #ffa500; stroke-width: 1.5"/>
    <path d="M 285.175226 130.623553 
L 285.175226 118.096493 
" clip-path="url(#pda62999c96)" style="fill: none; stroke: #ffa500; stroke-width: 1.5"/>
    <path d="M 264.14127 179.758255 
L 264.14127 167.961136 
" clip-path="url(#pda62999c96)" style="fill: none; stroke: #ffa500; stroke-width: 1.5"/>
    <path d="M 319.012461 73.753027 
L 319.012461 72.23582 
" clip-path="url(#pda62999c96)" style="fill: none; stroke: #ffa500; stroke-width: 1.5"/>
    <path d="M 314.439862 79.211539 
L 314.439862 70.736623 
" clip-path="url(#pda62999c96)" style="fill: none; stroke: #ffa500; stroke-width: 1.5"/>
    <path d="M 259.568671 154.97569 
L 259.568671 142.542127 
" clip-path="url(#pda62999c96)" style="fill: none; stroke: #ffa500; stroke-width: 1.5"/>
    <path d="M 220.244317 120.836425 
L 220.244317 109.20172 
" clip-path="url(#pda62999c96)" style="fill: none; stroke: #ffa500; stroke-width: 1.5"/>
    <path d="M 322.67054 79.61061 
L 322.67054 78.021835 
" clip-path="url(#pda62999c96)" style="fill: none; stroke: #ffa500; stroke-width: 1.5"/>
    <path d="M 282.431667 54.33741 
L 282.431667 52.389209 
" clip-path="url(#pda62999c96)" style="fill: none; stroke: #ffa500; stroke-width: 1.5"/>
    <path d="M 315.354381 107.695072 
L 315.354381 95.339538 
" clip-path="url(#pda62999c96)" style="fill: none; stroke: #ffa500; stroke-width: 1.5"/>
    <path d="M 319.012461 91.768816 
L 319.012461 87.442848 
" clip-path="url(#pda62999c96)" style="fill: none; stroke: #ffa500; stroke-width: 1.5"/>
    <path d="M 328.157659 119.185344 
L 328.157659 93.541559 
" clip-path="url(#pda62999c96)" style="fill: none; stroke: #ffa500; stroke-width: 1.5"/>
    <path d="M 314.439862 75.675528 
L 314.439862 71.85935 
" clip-path="url(#pda62999c96)" style="fill: none; stroke: #ffa500; stroke-width: 1.5"/>
    <path d="M 333.644778 97.623613 
L 333.644778 85.334187 
" clip-path="url(#pda62999c96)" style="fill: none; stroke: #ffa500; stroke-width: 1.5"/>
    <path d="M 330.901219 83.672243 
L 330.901219 71.109757 
" clip-path="url(#pda62999c96)" style="fill: none; stroke: #ffa500; stroke-width: 1.5"/>
   </g>
   <g id="line2d_33">
    <defs>
     <path id="mc662d9b34e" d="M 0 2 
L 0 -2 
" style="stroke: #ffa500"/>
    </defs>
    <g clip-path="url(#pda62999c96)">
     <use xlink:href="#mc662d9b34e" x="72.092102" y="257.946562" style="fill: #ffa500; stroke: #ffa500"/>
     <use xlink:href="#mc662d9b34e" x="328.157659" y="121.94926" style="fill: #ffa500; stroke: #ffa500"/>
     <use xlink:href="#mc662d9b34e" x="276.030028" y="74.903013" style="fill: #ffa500; stroke: #ffa500"/>
     <use xlink:href="#mc662d9b34e" x="219.329798" y="160.161998" style="fill: #ffa500; stroke: #ffa500"/>
     <use xlink:href="#mc662d9b34e" x="297.063984" y="80.010946" style="fill: #ffa500; stroke: #ffa500"/>
     <use xlink:href="#mc662d9b34e" x="319.012461" y="96.705021" style="fill: #ffa500; stroke: #ffa500"/>
     <use xlink:href="#mc662d9b34e" x="281.517147" y="99.481087" style="fill: #ffa500; stroke: #ffa500"/>
     <use xlink:href="#mc662d9b34e" x="183.663524" y="154.251872" style="fill: #ffa500; stroke: #ffa500"/>
     <use xlink:href="#mc662d9b34e" x="256.825111" y="160.920594" style="fill: #ffa500; stroke: #ffa500"/>
     <use xlink:href="#mc662d9b34e" x="307.123703" y="87.442848" style="fill: #ffa500; stroke: #ffa500"/>
     <use xlink:href="#mc662d9b34e" x="205.612" y="178.003979" style="fill: #ffa500; stroke: #ffa500"/>
     <use xlink:href="#mc662d9b34e" x="243.107314" y="133.652617" style="fill: #ffa500; stroke: #ffa500"/>
     <use xlink:href="#mc662d9b34e" x="275.115508" y="120.283663" style="fill: #ffa500; stroke: #ffa500"/>
     <use xlink:href="#mc662d9b34e" x="252.252512" y="149.298064" style="fill: #ffa500; stroke: #ffa500"/>
     <use xlink:href="#mc662d9b34e" x="321.75602" y="99.481087" style="fill: #ffa500; stroke: #ffa500"/>
     <use xlink:href="#mc662d9b34e" x="310.781782" y="80.010946" style="fill: #ffa500; stroke: #ffa500"/>
     <use xlink:href="#mc662d9b34e" x="237.620194" y="113.309592" style="fill: #ffa500; stroke: #ffa500"/>
     <use xlink:href="#mc662d9b34e" x="308.038223" y="87.868838" style="fill: #ffa500; stroke: #ffa500"/>
     <use xlink:href="#mc662d9b34e" x="297.978504" y="149.298064" style="fill: #ffa500; stroke: #ffa500"/>
     <use xlink:href="#mc662d9b34e" x="240.363754" y="160.161998" style="fill: #ffa500; stroke: #ffa500"/>
     <use xlink:href="#mc662d9b34e" x="328.157659" y="86.173432" style="fill: #ffa500; stroke: #ffa500"/>
     <use xlink:href="#mc662d9b34e" x="237.620194" y="143.864714" style="fill: #ffa500; stroke: #ffa500"/>
     <use xlink:href="#mc662d9b34e" x="317.183421" y="76.452798" style="fill: #ffa500; stroke: #ffa500"/>
     <use xlink:href="#mc662d9b34e" x="126.048773" y="147.233071" style="fill: #ffa500; stroke: #ffa500"/>
     <use xlink:href="#mc662d9b34e" x="309.867262" y="56.316133" style="fill: #ffa500; stroke: #ffa500"/>
     <use xlink:href="#mc662d9b34e" x="248.594433" y="152.816562" style="fill: #ffa500; stroke: #ffa500"/>
     <use xlink:href="#mc662d9b34e" x="265.97031" y="64.911687" style="fill: #ffa500; stroke: #ffa500"/>
     <use xlink:href="#mc662d9b34e" x="351.020655" y="67.790579" style="fill: #ffa500; stroke: #ffa500"/>
     <use xlink:href="#mc662d9b34e" x="276.944548" y="124.204782" style="fill: #ffa500; stroke: #ffa500"/>
     <use xlink:href="#mc662d9b34e" x="255.910591" y="173.722012" style="fill: #ffa500; stroke: #ffa500"/>
     <use xlink:href="#mc662d9b34e" x="310.781782" y="72.992145" style="fill: #ffa500; stroke: #ffa500"/>
     <use xlink:href="#mc662d9b34e" x="306.209183" y="74.903013" style="fill: #ffa500; stroke: #ffa500"/>
     <use xlink:href="#mc662d9b34e" x="251.337992" y="148.605975" style="fill: #ffa500; stroke: #ffa500"/>
     <use xlink:href="#mc662d9b34e" x="212.013639" y="114.885153" style="fill: #ffa500; stroke: #ffa500"/>
     <use xlink:href="#mc662d9b34e" x="314.439862" y="78.813724" style="fill: #ffa500; stroke: #ffa500"/>
     <use xlink:href="#mc662d9b34e" x="274.200988" y="53.359553" style="fill: #ffa500; stroke: #ffa500"/>
     <use xlink:href="#mc662d9b34e" x="306.209183" y="101.366284" style="fill: #ffa500; stroke: #ffa500"/>
     <use xlink:href="#mc662d9b34e" x="310.781782" y="89.587312" style="fill: #ffa500; stroke: #ffa500"/>
     <use xlink:href="#mc662d9b34e" x="319.926981" y="105.713762" style="fill: #ffa500; stroke: #ffa500"/>
     <use xlink:href="#mc662d9b34e" x="306.209183" y="73.753027" style="fill: #ffa500; stroke: #ffa500"/>
     <use xlink:href="#mc662d9b34e" x="324.49958" y="91.32949" style="fill: #ffa500; stroke: #ffa500"/>
     <use xlink:href="#mc662d9b34e" x="322.67054" y="77.23488" style="fill: #ffa500; stroke: #ffa500"/>
    </g>
   </g>
   <g id="line2d_34">
    <g clip-path="url(#pda62999c96)">
     <use xlink:href="#mc662d9b34e" x="90.382499" y="257.946562" style="fill: #ffa500; stroke: #ffa500"/>
     <use xlink:href="#mc662d9b34e" x="344.619016" y="121.94926" style="fill: #ffa500; stroke: #ffa500"/>
     <use xlink:href="#mc662d9b34e" x="292.491385" y="74.903013" style="fill: #ffa500; stroke: #ffa500"/>
     <use xlink:href="#mc662d9b34e" x="235.791155" y="160.161998" style="fill: #ffa500; stroke: #ffa500"/>
     <use xlink:href="#mc662d9b34e" x="313.525342" y="80.010946" style="fill: #ffa500; stroke: #ffa500"/>
     <use xlink:href="#mc662d9b34e" x="335.473818" y="96.705021" style="fill: #ffa500; stroke: #ffa500"/>
     <use xlink:href="#mc662d9b34e" x="297.978504" y="99.481087" style="fill: #ffa500; stroke: #ffa500"/>
     <use xlink:href="#mc662d9b34e" x="200.124881" y="154.251872" style="fill: #ffa500; stroke: #ffa500"/>
     <use xlink:href="#mc662d9b34e" x="273.286468" y="160.920594" style="fill: #ffa500; stroke: #ffa500"/>
     <use xlink:href="#mc662d9b34e" x="323.58506" y="87.442848" style="fill: #ffa500; stroke: #ffa500"/>
     <use xlink:href="#mc662d9b34e" x="222.073357" y="178.003979" style="fill: #ffa500; stroke: #ffa500"/>
     <use xlink:href="#mc662d9b34e" x="259.568671" y="133.652617" style="fill: #ffa500; stroke: #ffa500"/>
     <use xlink:href="#mc662d9b34e" x="291.576865" y="120.283663" style="fill: #ffa500; stroke: #ffa500"/>
     <use xlink:href="#mc662d9b34e" x="268.713869" y="149.298064" style="fill: #ffa500; stroke: #ffa500"/>
     <use xlink:href="#mc662d9b34e" x="338.217378" y="99.481087" style="fill: #ffa500; stroke: #ffa500"/>
     <use xlink:href="#mc662d9b34e" x="327.243139" y="80.010946" style="fill: #ffa500; stroke: #ffa500"/>
     <use xlink:href="#mc662d9b34e" x="254.081552" y="113.309592" style="fill: #ffa500; stroke: #ffa500"/>
     <use xlink:href="#mc662d9b34e" x="324.49958" y="87.868838" style="fill: #ffa500; stroke: #ffa500"/>
     <use xlink:href="#mc662d9b34e" x="314.439862" y="149.298064" style="fill: #ffa500; stroke: #ffa500"/>
     <use xlink:href="#mc662d9b34e" x="256.825111" y="160.161998" style="fill: #ffa500; stroke: #ffa500"/>
     <use xlink:href="#mc662d9b34e" x="344.619016" y="86.173432" style="fill: #ffa500; stroke: #ffa500"/>
     <use xlink:href="#mc662d9b34e" x="254.081552" y="143.864714" style="fill: #ffa500; stroke: #ffa500"/>
     <use xlink:href="#mc662d9b34e" x="333.644778" y="76.452798" style="fill: #ffa500; stroke: #ffa500"/>
     <use xlink:href="#mc662d9b34e" x="144.33917" y="147.233071" style="fill: #ffa500; stroke: #ffa500"/>
     <use xlink:href="#mc662d9b34e" x="326.32862" y="56.316133" style="fill: #ffa500; stroke: #ffa500"/>
     <use xlink:href="#mc662d9b34e" x="265.05579" y="152.816562" style="fill: #ffa500; stroke: #ffa500"/>
     <use xlink:href="#mc662d9b34e" x="282.431667" y="64.911687" style="fill: #ffa500; stroke: #ffa500"/>
     <use xlink:href="#mc662d9b34e" x="367.482013" y="67.790579" style="fill: #ffa500; stroke: #ffa500"/>
     <use xlink:href="#mc662d9b34e" x="293.405905" y="124.204782" style="fill: #ffa500; stroke: #ffa500"/>
     <use xlink:href="#mc662d9b34e" x="272.371949" y="173.722012" style="fill: #ffa500; stroke: #ffa500"/>
     <use xlink:href="#mc662d9b34e" x="327.243139" y="72.992145" style="fill: #ffa500; stroke: #ffa500"/>
     <use xlink:href="#mc662d9b34e" x="322.67054" y="74.903013" style="fill: #ffa500; stroke: #ffa500"/>
     <use xlink:href="#mc662d9b34e" x="267.799349" y="148.605975" style="fill: #ffa500; stroke: #ffa500"/>
     <use xlink:href="#mc662d9b34e" x="228.474996" y="114.885153" style="fill: #ffa500; stroke: #ffa500"/>
     <use xlink:href="#mc662d9b34e" x="330.901219" y="78.813724" style="fill: #ffa500; stroke: #ffa500"/>
     <use xlink:href="#mc662d9b34e" x="290.662346" y="53.359553" style="fill: #ffa500; stroke: #ffa500"/>
     <use xlink:href="#mc662d9b34e" x="324.49958" y="101.366284" style="fill: #ffa500; stroke: #ffa500"/>
     <use xlink:href="#mc662d9b34e" x="327.243139" y="89.587312" style="fill: #ffa500; stroke: #ffa500"/>
     <use xlink:href="#mc662d9b34e" x="336.388338" y="105.713762" style="fill: #ffa500; stroke: #ffa500"/>
     <use xlink:href="#mc662d9b34e" x="322.67054" y="73.753027" style="fill: #ffa500; stroke: #ffa500"/>
     <use xlink:href="#mc662d9b34e" x="342.789977" y="91.32949" style="fill: #ffa500; stroke: #ffa500"/>
     <use xlink:href="#mc662d9b34e" x="339.131897" y="77.23488" style="fill: #ffa500; stroke: #ffa500"/>
    </g>
   </g>
   <g id="line2d_35">
    <defs>
     <path id="m8f5f0802ac" d="M 2 0 
L -2 -0 
" style="stroke: #ffa500"/>
    </defs>
    <g clip-path="url(#pda62999c96)">
     <use xlink:href="#m8f5f0802ac" x="81.237301" y="262.966" style="fill: #ffa500; stroke: #ffa500"/>
     <use xlink:href="#m8f5f0802ac" x="336.388338" y="127.082034" style="fill: #ffa500; stroke: #ffa500"/>
     <use xlink:href="#m8f5f0802ac" x="284.260707" y="78.417159" style="fill: #ffa500; stroke: #ffa500"/>
     <use xlink:href="#m8f5f0802ac" x="227.560476" y="162.451593" style="fill: #ffa500; stroke: #ffa500"/>
     <use xlink:href="#m8f5f0802ac" x="305.294663" y="81.219624" style="fill: #ffa500; stroke: #ffa500"/>
     <use xlink:href="#m8f5f0802ac" x="327.243139" y="97.623613" style="fill: #ffa500; stroke: #ffa500"/>
     <use xlink:href="#m8f5f0802ac" x="289.747826" y="104.247913" style="fill: #ffa500; stroke: #ffa500"/>
     <use xlink:href="#m8f5f0802ac" x="191.894202" y="160.161998" style="fill: #ffa500; stroke: #ffa500"/>
     <use xlink:href="#m8f5f0802ac" x="265.05579" y="173.722012" style="fill: #ffa500; stroke: #ffa500"/>
     <use xlink:href="#m8f5f0802ac" x="315.354381" y="92.652077" style="fill: #ffa500; stroke: #ffa500"/>
     <use xlink:href="#m8f5f0802ac" x="213.842678" y="184.253602" style="fill: #ffa500; stroke: #ffa500"/>
     <use xlink:href="#m8f5f0802ac" x="251.337992" y="139.93779" style="fill: #ffa500; stroke: #ffa500"/>
     <use xlink:href="#m8f5f0802ac" x="283.346187" y="126.501317" style="fill: #ffa500; stroke: #ffa500"/>
     <use xlink:href="#m8f5f0802ac" x="260.483191" y="155.703679" style="fill: #ffa500; stroke: #ffa500"/>
     <use xlink:href="#m8f5f0802ac" x="329.986699" y="112.788742" style="fill: #ffa500; stroke: #ffa500"/>
     <use xlink:href="#m8f5f0802ac" x="319.012461" y="86.173432" style="fill: #ffa500; stroke: #ffa500"/>
     <use xlink:href="#m8f5f0802ac" x="245.850873" y="119.73331" style="fill: #ffa500; stroke: #ffa500"/>
     <use xlink:href="#m8f5f0802ac" x="316.268901" y="93.98866" style="fill: #ffa500; stroke: #ffa500"/>
     <use xlink:href="#m8f5f0802ac" x="306.209183" y="152.816562" style="fill: #ffa500; stroke: #ffa500"/>
     <use xlink:href="#m8f5f0802ac" x="248.594433" y="166.362305" style="fill: #ffa500; stroke: #ffa500"/>
     <use xlink:href="#m8f5f0802ac" x="336.388338" y="89.155497" style="fill: #ffa500; stroke: #ffa500"/>
     <use xlink:href="#m8f5f0802ac" x="245.850873" y="149.993966" style="fill: #ffa500; stroke: #ffa500"/>
     <use xlink:href="#m8f5f0802ac" x="325.4141" y="87.868838" style="fill: #ffa500; stroke: #ffa500"/>
     <use xlink:href="#m8f5f0802ac" x="135.193972" y="153.532178" style="fill: #ffa500; stroke: #ffa500"/>
     <use xlink:href="#m8f5f0802ac" x="318.097941" y="62.794779" style="fill: #ffa500; stroke: #ffa500"/>
     <use xlink:href="#m8f5f0802ac" x="256.825111" y="158.658338" style="fill: #ffa500; stroke: #ffa500"/>
     <use xlink:href="#m8f5f0802ac" x="274.200988" y="69.993645" style="fill: #ffa500; stroke: #ffa500"/>
     <use xlink:href="#m8f5f0802ac" x="359.251334" y="69.623788" style="fill: #ffa500; stroke: #ffa500"/>
     <use xlink:href="#m8f5f0802ac" x="285.175226" y="130.623553" style="fill: #ffa500; stroke: #ffa500"/>
     <use xlink:href="#m8f5f0802ac" x="264.14127" y="179.758255" style="fill: #ffa500; stroke: #ffa500"/>
     <use xlink:href="#m8f5f0802ac" x="319.012461" y="73.753027" style="fill: #ffa500; stroke: #ffa500"/>
     <use xlink:href="#m8f5f0802ac" x="314.439862" y="79.211539" style="fill: #ffa500; stroke: #ffa500"/>
     <use xlink:href="#m8f5f0802ac" x="259.568671" y="154.97569" style="fill: #ffa500; stroke: #ffa500"/>
     <use xlink:href="#m8f5f0802ac" x="220.244317" y="120.836425" style="fill: #ffa500; stroke: #ffa500"/>
     <use xlink:href="#m8f5f0802ac" x="322.67054" y="79.61061" style="fill: #ffa500; stroke: #ffa500"/>
     <use xlink:href="#m8f5f0802ac" x="282.431667" y="54.33741" style="fill: #ffa500; stroke: #ffa500"/>
     <use xlink:href="#m8f5f0802ac" x="315.354381" y="107.695072" style="fill: #ffa500; stroke: #ffa500"/>
     <use xlink:href="#m8f5f0802ac" x="319.012461" y="91.768816" style="fill: #ffa500; stroke: #ffa500"/>
     <use xlink:href="#m8f5f0802ac" x="328.157659" y="119.185344" style="fill: #ffa500; stroke: #ffa500"/>
     <use xlink:href="#m8f5f0802ac" x="314.439862" y="75.675528" style="fill: #ffa500; stroke: #ffa500"/>
     <use xlink:href="#m8f5f0802ac" x="333.644778" y="97.623613" style="fill: #ffa500; stroke: #ffa500"/>
     <use xlink:href="#m8f5f0802ac" x="330.901219" y="83.672243" style="fill: #ffa500; stroke: #ffa500"/>
    </g>
   </g>
   <g id="line2d_36">
    <g clip-path="url(#pda62999c96)">
     <use xlink:href="#m8f5f0802ac" x="81.237301" y="253.118997" style="fill: #ffa500; stroke: #ffa500"/>
     <use xlink:href="#m8f5f0802ac" x="336.388338" y="117.016949" style="fill: #ffa500; stroke: #ffa500"/>
     <use xlink:href="#m8f5f0802ac" x="284.260707" y="71.483997" style="fill: #ffa500; stroke: #ffa500"/>
     <use xlink:href="#m8f5f0802ac" x="227.560476" y="157.913169" style="fill: #ffa500; stroke: #ffa500"/>
     <use xlink:href="#m8f5f0802ac" x="305.294663" y="78.813724" style="fill: #ffa500; stroke: #ffa500"/>
     <use xlink:href="#m8f5f0802ac" x="327.243139" y="95.793061" style="fill: #ffa500; stroke: #ffa500"/>
     <use xlink:href="#m8f5f0802ac" x="289.747826" y="94.887638" style="fill: #ffa500; stroke: #ffa500"/>
     <use xlink:href="#m8f5f0802ac" x="191.894202" y="148.605975" style="fill: #ffa500; stroke: #ffa500"/>
     <use xlink:href="#m8f5f0802ac" x="265.05579" y="149.298064" style="fill: #ffa500; stroke: #ffa500"/>
     <use xlink:href="#m8f5f0802ac" x="315.354381" y="82.43998" style="fill: #ffa500; stroke: #ffa500"/>
     <use xlink:href="#m8f5f0802ac" x="213.842678" y="172.049062" style="fill: #ffa500; stroke: #ffa500"/>
     <use xlink:href="#m8f5f0802ac" x="251.337992" y="127.665434" style="fill: #ffa500; stroke: #ffa500"/>
     <use xlink:href="#m8f5f0802ac" x="283.346187" y="114.357779" style="fill: #ffa500; stroke: #ffa500"/>
     <use xlink:href="#m8f5f0802ac" x="260.483191" y="143.20169" style="fill: #ffa500; stroke: #ffa500"/>
     <use xlink:href="#m8f5f0802ac" x="329.986699" y="87.442848" style="fill: #ffa500; stroke: #ffa500"/>
     <use xlink:href="#m8f5f0802ac" x="319.012461" y="74.135193" style="fill: #ffa500; stroke: #ffa500"/>
     <use xlink:href="#m8f5f0802ac" x="245.850873" y="107.196823" style="fill: #ffa500; stroke: #ffa500"/>
     <use xlink:href="#m8f5f0802ac" x="316.268901" y="82.031883" style="fill: #ffa500; stroke: #ffa500"/>
     <use xlink:href="#m8f5f0802ac" x="306.209183" y="145.87493" style="fill: #ffa500; stroke: #ffa500"/>
     <use xlink:href="#m8f5f0802ac" x="248.594433" y="154.251872" style="fill: #ffa500; stroke: #ffa500"/>
     <use xlink:href="#m8f5f0802ac" x="336.388338" y="83.260151" style="fill: #ffa500; stroke: #ffa500"/>
     <use xlink:href="#m8f5f0802ac" x="245.850873" y="138.019182" style="fill: #ffa500; stroke: #ffa500"/>
     <use xlink:href="#m8f5f0802ac" x="325.4141" y="65.983597" style="fill: #ffa500; stroke: #ffa500"/>
     <use xlink:href="#m8f5f0802ac" x="135.193972" y="141.233246" style="fill: #ffa500; stroke: #ffa500"/>
     <use xlink:href="#m8f5f0802ac" x="318.097941" y="50.153648" style="fill: #ffa500; stroke: #ffa500"/>
     <use xlink:href="#m8f5f0802ac" x="256.825111" y="147.233071" style="fill: #ffa500; stroke: #ffa500"/>
     <use xlink:href="#m8f5f0802ac" x="274.200988" y="60.02632" style="fill: #ffa500; stroke: #ffa500"/>
     <use xlink:href="#m8f5f0802ac" x="359.251334" y="65.983597" style="fill: #ffa500; stroke: #ffa500"/>
     <use xlink:href="#m8f5f0802ac" x="285.175226" y="118.096493" style="fill: #ffa500; stroke: #ffa500"/>
     <use xlink:href="#m8f5f0802ac" x="264.14127" y="167.961136" style="fill: #ffa500; stroke: #ffa500"/>
     <use xlink:href="#m8f5f0802ac" x="319.012461" y="72.23582" style="fill: #ffa500; stroke: #ffa500"/>
     <use xlink:href="#m8f5f0802ac" x="314.439862" y="70.736623" style="fill: #ffa500; stroke: #ffa500"/>
     <use xlink:href="#m8f5f0802ac" x="259.568671" y="142.542127" style="fill: #ffa500; stroke: #ffa500"/>
     <use xlink:href="#m8f5f0802ac" x="220.244317" y="109.20172" style="fill: #ffa500; stroke: #ffa500"/>
     <use xlink:href="#m8f5f0802ac" x="322.67054" y="78.021835" style="fill: #ffa500; stroke: #ffa500"/>
     <use xlink:href="#m8f5f0802ac" x="282.431667" y="52.389209" style="fill: #ffa500; stroke: #ffa500"/>
     <use xlink:href="#m8f5f0802ac" x="315.354381" y="95.339538" style="fill: #ffa500; stroke: #ffa500"/>
     <use xlink:href="#m8f5f0802ac" x="319.012461" y="87.442848" style="fill: #ffa500; stroke: #ffa500"/>
     <use xlink:href="#m8f5f0802ac" x="328.157659" y="93.541559" style="fill: #ffa500; stroke: #ffa500"/>
     <use xlink:href="#m8f5f0802ac" x="314.439862" y="71.85935" style="fill: #ffa500; stroke: #ffa500"/>
     <use xlink:href="#m8f5f0802ac" x="333.644778" y="85.334187" style="fill: #ffa500; stroke: #ffa500"/>
     <use xlink:href="#m8f5f0802ac" x="330.901219" y="71.109757" style="fill: #ffa500; stroke: #ffa500"/>
    </g>
   </g>
   <g id="line2d_37">
    <path d="M 76.664702 233.934499 
L 86.291226 228.282513 
L 173.732159 177.552175 
L 180.952052 173.328 
L 202.611733 160.646433 
L 221.062572 149.193924 
L 225.875834 146.671993 
L 227.480255 145.7686 
L 232.293517 142.901236 
L 237.90899 139.880461 
L 245.128884 135.724995 
L 249.139936 133.352036 
L 252.348777 131.558148 
L 253.953198 130.624985 
L 256.359829 129.15886 
L 261.173092 126.479243 
L 266.788564 123.81544 
L 274.810668 119.027678 
L 281.228351 114.538684 
L 286.843824 111.129587 
L 291.657086 108.928782 
L 300.481401 103.884993 
L 304.492453 101.803508 
L 321.338871 92.096981 
L 334.976448 83.67287 
L 342.998551 78.905963 
L 370.273705 61.881239 
L 395.944437 47.47726 
L 396.746648 47.018861 
L 396.746648 47.018861 
" clip-path="url(#pda62999c96)" style="fill: none; stroke: #000000; stroke-width: 1.5"/>
   </g>
   <g id="line2d_38">
    <path d="M 76.664702 260.726277 
L 90.302278 253.007153 
L 156.08353 214.537152 
L 160.896793 211.907341 
L 164.907845 209.679532 
L 181.754263 200.444649 
L 209.831626 184.099339 
L 221.864782 176.693908 
L 241.920042 163.555553 
L 251.546567 158.229031 
L 256.359829 155.25206 
L 263.579723 150.51229 
L 281.228351 140.788581 
L 288.448245 136.992917 
L 292.459297 134.890793 
L 298.07477 132.109879 
L 302.085822 129.929856 
L 305.294663 127.84006 
L 313.316767 123.374899 
L 315.723398 121.782282 
L 319.73445 119.055829 
L 322.141081 117.565549 
L 329.360975 113.386265 
L 342.196341 105.66751 
L 359.84497 95.623807 
L 396.746648 73.385087 
L 396.746648 73.385087 
" clip-path="url(#pda62999c96)" style="fill: none; stroke-dasharray: 5.55,2.4; stroke-dashoffset: 0; stroke: #ff0000; stroke-width: 1.5"/>
   </g>
   <g id="line2d_39">
    <path d="M 76.664702 209.773175 
L 117.577431 184.754793 
L 176.941 149.66392 
L 184.160894 145.573301 
L 199.402891 136.766782 
L 224.271414 121.770297 
L 228.282466 119.572704 
L 233.095728 117.013822 
L 237.10678 114.509188 
L 245.931094 109.399242 
L 249.139936 107.233763 
L 253.953198 104.238432 
L 256.359829 102.483483 
L 261.975302 98.717382 
L 278.82172 88.553337 
L 282.030562 86.765922 
L 286.041614 84.124563 
L 287.646034 83.302902 
L 291.657086 80.893206 
L 303.690242 74.029455 
L 314.118977 67.458538 
L 329.360975 58.763315 
L 362.251601 41.36541 
L 372.680336 35.668684 
L 383.911281 29.010396 
L 396.746648 21.046 
L 396.746648 21.046 
" clip-path="url(#pda62999c96)" style="fill: none; stroke-dasharray: 5.55,2.4; stroke-dashoffset: 0; stroke: #ff0000; stroke-width: 1.5"/>
   </g>
   <g id="line2d_40">
    <defs>
     <path id="md849d107e3" d="M 0 3 
C 0.795609 3 1.55874 2.683901 2.12132 2.12132 
C 2.683901 1.55874 3 0.795609 3 0 
C 3 -0.795609 2.683901 -1.55874 2.12132 -2.12132 
C 1.55874 -2.683901 0.795609 -3 0 -3 
C -0.795609 -3 -1.55874 -2.683901 -2.12132 -2.12132 
C -2.683901 -1.55874 -3 -0.795609 -3 0 
C -3 0.795609 -2.683901 1.55874 -2.12132 2.12132 
C -1.55874 2.683901 -0.795609 3 0 3 
z
" style="stroke: #ffa500"/>
    </defs>
    <g clip-path="url(#pda62999c96)">
     <use xlink:href="#md849d107e3" x="81.237301" y="257.946562" style="fill: #ffa500; stroke: #ffa500"/>
     <use xlink:href="#md849d107e3" x="336.388338" y="121.94926" style="fill: #ffa500; stroke: #ffa500"/>
     <use xlink:href="#md849d107e3" x="284.260707" y="74.903013" style="fill: #ffa500; stroke: #ffa500"/>
     <use xlink:href="#md849d107e3" x="227.560476" y="160.161998" style="fill: #ffa500; stroke: #ffa500"/>
     <use xlink:href="#md849d107e3" x="305.294663" y="80.010946" style="fill: #ffa500; stroke: #ffa500"/>
     <use xlink:href="#md849d107e3" x="327.243139" y="96.705021" style="fill: #ffa500; stroke: #ffa500"/>
     <use xlink:href="#md849d107e3" x="289.747826" y="99.481087" style="fill: #ffa500; stroke: #ffa500"/>
     <use xlink:href="#md849d107e3" x="191.894202" y="154.251872" style="fill: #ffa500; stroke: #ffa500"/>
     <use xlink:href="#md849d107e3" x="265.05579" y="160.920594" style="fill: #ffa500; stroke: #ffa500"/>
     <use xlink:href="#md849d107e3" x="315.354381" y="87.442848" style="fill: #ffa500; stroke: #ffa500"/>
     <use xlink:href="#md849d107e3" x="213.842678" y="178.003979" style="fill: #ffa500; stroke: #ffa500"/>
     <use xlink:href="#md849d107e3" x="251.337992" y="133.652617" style="fill: #ffa500; stroke: #ffa500"/>
     <use xlink:href="#md849d107e3" x="283.346187" y="120.283663" style="fill: #ffa500; stroke: #ffa500"/>
     <use xlink:href="#md849d107e3" x="260.483191" y="149.298064" style="fill: #ffa500; stroke: #ffa500"/>
     <use xlink:href="#md849d107e3" x="329.986699" y="99.481087" style="fill: #ffa500; stroke: #ffa500"/>
     <use xlink:href="#md849d107e3" x="319.012461" y="80.010946" style="fill: #ffa500; stroke: #ffa500"/>
     <use xlink:href="#md849d107e3" x="245.850873" y="113.309592" style="fill: #ffa500; stroke: #ffa500"/>
     <use xlink:href="#md849d107e3" x="316.268901" y="87.868838" style="fill: #ffa500; stroke: #ffa500"/>
     <use xlink:href="#md849d107e3" x="306.209183" y="149.298064" style="fill: #ffa500; stroke: #ffa500"/>
     <use xlink:href="#md849d107e3" x="248.594433" y="160.161998" style="fill: #ffa500; stroke: #ffa500"/>
     <use xlink:href="#md849d107e3" x="336.388338" y="86.173432" style="fill: #ffa500; stroke: #ffa500"/>
     <use xlink:href="#md849d107e3" x="245.850873" y="143.864714" style="fill: #ffa500; stroke: #ffa500"/>
     <use xlink:href="#md849d107e3" x="325.4141" y="76.452798" style="fill: #ffa500; stroke: #ffa500"/>
     <use xlink:href="#md849d107e3" x="135.193972" y="147.233071" style="fill: #ffa500; stroke: #ffa500"/>
     <use xlink:href="#md849d107e3" x="318.097941" y="56.316133" style="fill: #ffa500; stroke: #ffa500"/>
     <use xlink:href="#md849d107e3" x="256.825111" y="152.816562" style="fill: #ffa500; stroke: #ffa500"/>
     <use xlink:href="#md849d107e3" x="274.200988" y="64.911687" style="fill: #ffa500; stroke: #ffa500"/>
     <use xlink:href="#md849d107e3" x="359.251334" y="67.790579" style="fill: #ffa500; stroke: #ffa500"/>
     <use xlink:href="#md849d107e3" x="285.175226" y="124.204782" style="fill: #ffa500; stroke: #ffa500"/>
     <use xlink:href="#md849d107e3" x="264.14127" y="173.722012" style="fill: #ffa500; stroke: #ffa500"/>
     <use xlink:href="#md849d107e3" x="319.012461" y="72.992145" style="fill: #ffa500; stroke: #ffa500"/>
     <use xlink:href="#md849d107e3" x="314.439862" y="74.903013" style="fill: #ffa500; stroke: #ffa500"/>
     <use xlink:href="#md849d107e3" x="259.568671" y="148.605975" style="fill: #ffa500; stroke: #ffa500"/>
     <use xlink:href="#md849d107e3" x="220.244317" y="114.885153" style="fill: #ffa500; stroke: #ffa500"/>
     <use xlink:href="#md849d107e3" x="322.67054" y="78.813724" style="fill: #ffa500; stroke: #ffa500"/>
     <use xlink:href="#md849d107e3" x="282.431667" y="53.359553" style="fill: #ffa500; stroke: #ffa500"/>
     <use xlink:href="#md849d107e3" x="315.354381" y="101.366284" style="fill: #ffa500; stroke: #ffa500"/>
     <use xlink:href="#md849d107e3" x="319.012461" y="89.587312" style="fill: #ffa500; stroke: #ffa500"/>
     <use xlink:href="#md849d107e3" x="328.157659" y="105.713762" style="fill: #ffa500; stroke: #ffa500"/>
     <use xlink:href="#md849d107e3" x="314.439862" y="73.753027" style="fill: #ffa500; stroke: #ffa500"/>
     <use xlink:href="#md849d107e3" x="333.644778" y="91.32949" style="fill: #ffa500; stroke: #ffa500"/>
     <use xlink:href="#md849d107e3" x="330.901219" y="77.23488" style="fill: #ffa500; stroke: #ffa500"/>
    </g>
   </g>
   <g id="patch_3">
    <path d="M 55.859375 275.062 
L 55.859375 8.95 
" style="fill: none; stroke: #000000; stroke-width: 0.8; stroke-linejoin: miter; stroke-linecap: square"/>
   </g>
   <g id="patch_4">
    <path d="M 412.979375 275.062 
L 412.979375 8.95 
" style="fill: none; stroke: #000000; stroke-width: 0.8; stroke-linejoin: miter; stroke-linecap: square"/>
   </g>
   <g id="patch_5">
    <path d="M 55.859375 275.062 
L 412.979375 275.062 
" style="fill: none; stroke: #000000; stroke-width: 0.8; stroke-linejoin: miter; stroke-linecap: square"/>
   </g>
   <g id="patch_6">
    <path d="M 55.859375 8.95 
L 412.979375 8.95 
" style="fill: none; stroke: #000000; stroke-width: 0.8; stroke-linejoin: miter; stroke-linecap: square"/>
   </g>
  </g>
 </g>
 <defs>
  <clipPath id="pda62999c96">
   <rect x="55.859375" y="8.95" width="357.12" height="266.112"/>
  </clipPath>
 </defs>
</svg>
