<?xml version="1.0" encoding="utf-8" standalone="no"?>
<!DOCTYPE svg PUBLIC "-//W3C//DTD SVG 1.1//EN"
  "http://www.w3.org/Graphics/SVG/1.1/DTD/svg11.dtd">
<svg xmlns:xlink="http://www.w3.org/1999/xlink" width="403.129375pt" height="309.612pt" viewBox="0 0 403.129375 309.612" xmlns="http://www.w3.org/2000/svg" version="1.1">
 <metadata>
  <rdf:RDF xmlns:dc="http://purl.org/dc/elements/1.1/" xmlns:cc="http://creativecommons.org/ns#" xmlns:rdf="http://www.w3.org/1999/02/22-rdf-syntax-ns#">
   <cc:Work>
    <dc:type rdf:resource="http://purl.org/dc/dcmitype/StillImage"/>
    <dc:date>2022-09-13T20:46:25.218524</dc:date>
    <dc:format>image/svg+xml</dc:format>
    <dc:creator>
     <cc:Agent>
      <dc:title>Matplotlib v3.5.1, https://matplotlib.org/</dc:title>
     </cc:Agent>
    </dc:creator>
   </cc:Work>
  </rdf:RDF>
 </metadata>
 <defs>
  <style type="text/css">*{stroke-linejoin: round; stroke-linecap: butt}</style>
 </defs>
 <g id="figure_1">
  <g id="patch_1">
   <path d="M 0 309.612 
L 403.129375 309.612 
L 403.129375 0 
L 0 0 
z
" style="fill: #ffffff"/>
  </g>
  <g id="axes_1">
   <g id="patch_2">
    <path d="M 37.059375 275.062 
L 394.179375 275.062 
L 394.179375 8.95 
L 37.059375 8.95 
z
" style="fill: #ffffff"/>
   </g>
   <g id="matplotlib.axis_1">
    <g id="xtick_1">
     <g id="line2d_1">
      <defs>
       <path id="m78cdb9fda4" d="M 0 1.75 
L 0 -1.75 
" style="stroke: #000000; stroke-width: 0.8"/>
      </defs>
      <g>
       <use xlink:href="#m78cdb9fda4" x="46.252525" y="275.062" style="stroke: #000000; stroke-width: 0.8"/>
      </g>
     </g>
     <g id="line2d_2">
      <g>
       <use xlink:href="#m78cdb9fda4" x="46.252525" y="8.95" style="stroke: #000000; stroke-width: 0.8"/>
      </g>
     </g>
     <g id="text_1">
      <!-- 0 -->
      <g transform="translate(43.472837 287.452625)scale(0.1 -0.1)">
       <defs>
        <path id="HelveticaNeue-Medium-30" d="M 1779 518 
C 1139 518 960 1306 960 2240 
C 960 3174 1139 3962 1779 3962 
C 2419 3962 2598 3174 2598 2240 
C 2598 1306 2419 518 1779 518 
z
M 1779 4570 
C 493 4570 230 3258 230 2240 
C 230 1222 493 -90 1779 -90 
C 3066 -90 3328 1222 3328 2240 
C 3328 3258 3066 4570 1779 4570 
z
" transform="scale(0.015625)"/>
       </defs>
       <use xlink:href="#HelveticaNeue-Medium-30"/>
      </g>
     </g>
    </g>
    <g id="xtick_2">
     <g id="line2d_3">
      <g>
       <use xlink:href="#m78cdb9fda4" x="114.649422" y="275.062" style="stroke: #000000; stroke-width: 0.8"/>
      </g>
     </g>
     <g id="line2d_4">
      <g>
       <use xlink:href="#m78cdb9fda4" x="114.649422" y="8.95" style="stroke: #000000; stroke-width: 0.8"/>
      </g>
     </g>
     <g id="text_2">
      <!-- 1 -->
      <g transform="translate(111.869734 287.452625)scale(0.1 -0.1)">
       <defs>
        <path id="HelveticaNeue-Medium-31" d="M 339 3162 
L 1440 3162 
L 1440 0 
L 2240 0 
L 2240 4480 
L 1645 4480 
C 1536 3942 954 3731 339 3738 
L 339 3162 
z
" transform="scale(0.015625)"/>
       </defs>
       <use xlink:href="#HelveticaNeue-Medium-31"/>
      </g>
     </g>
    </g>
    <g id="xtick_3">
     <g id="line2d_5">
      <g>
       <use xlink:href="#m78cdb9fda4" x="183.046319" y="275.062" style="stroke: #000000; stroke-width: 0.8"/>
      </g>
     </g>
     <g id="line2d_6">
      <g>
       <use xlink:href="#m78cdb9fda4" x="183.046319" y="8.95" style="stroke: #000000; stroke-width: 0.8"/>
      </g>
     </g>
     <g id="text_3">
      <!-- 2 -->
      <g transform="translate(180.266632 287.452625)scale(0.1 -0.1)">
       <defs>
        <path id="HelveticaNeue-Medium-32" d="M 3309 653 
L 1126 653 
C 1254 1050 1798 1325 2317 1683 
C 2829 2042 3315 2483 3315 3194 
C 3315 3770 2970 4570 1875 4570 
C 877 4570 333 3834 333 2842 
L 1062 2842 
C 1082 3469 1254 3962 1830 3962 
C 2458 3962 2592 3488 2586 3168 
C 2573 2470 1818 2118 1235 1696 
C 634 1293 256 736 250 0 
L 3309 0 
L 3309 653 
z
" transform="scale(0.015625)"/>
       </defs>
       <use xlink:href="#HelveticaNeue-Medium-32"/>
      </g>
     </g>
    </g>
    <g id="xtick_4">
     <g id="line2d_7">
      <g>
       <use xlink:href="#m78cdb9fda4" x="251.443217" y="275.062" style="stroke: #000000; stroke-width: 0.8"/>
      </g>
     </g>
     <g id="line2d_8">
      <g>
       <use xlink:href="#m78cdb9fda4" x="251.443217" y="8.95" style="stroke: #000000; stroke-width: 0.8"/>
      </g>
     </g>
     <g id="text_4">
      <!-- 3 -->
      <g transform="translate(248.663529 287.452625)scale(0.1 -0.1)">
       <defs>
        <path id="HelveticaNeue-Medium-33" d="M 1459 2080 
C 2035 2106 2630 2016 2630 1318 
C 2630 806 2259 518 1773 518 
C 1203 518 909 928 928 1472 
L 198 1472 
C 218 538 736 -90 1773 -90 
C 2630 -90 3360 435 3360 1280 
C 3360 1856 3053 2298 2547 2400 
L 2547 2413 
C 2976 2566 3181 2925 3181 3373 
C 3181 4166 2464 4570 1766 4570 
C 864 4570 320 3917 282 3046 
L 1011 3046 
C 998 3507 1248 3962 1754 3962 
C 2157 3962 2451 3706 2451 3328 
C 2451 2778 1946 2605 1459 2624 
L 1459 2080 
z
" transform="scale(0.015625)"/>
       </defs>
       <use xlink:href="#HelveticaNeue-Medium-33"/>
      </g>
     </g>
    </g>
    <g id="xtick_5">
     <g id="line2d_9">
      <g>
       <use xlink:href="#m78cdb9fda4" x="319.840114" y="275.062" style="stroke: #000000; stroke-width: 0.8"/>
      </g>
     </g>
     <g id="line2d_10">
      <g>
       <use xlink:href="#m78cdb9fda4" x="319.840114" y="8.95" style="stroke: #000000; stroke-width: 0.8"/>
      </g>
     </g>
     <g id="text_5">
      <!-- 4 -->
      <g transform="translate(317.060427 287.452625)scale(0.1 -0.1)">
       <defs>
        <path id="HelveticaNeue-Medium-34" d="M 3341 1638 
L 2765 1638 
L 2765 4480 
L 2074 4480 
L 154 1786 
L 154 1062 
L 2074 1062 
L 2074 0 
L 2765 0 
L 2765 1062 
L 3341 1062 
L 3341 1638 
z
M 2061 3610 
L 2074 3610 
L 2074 1638 
L 717 1638 
L 2061 3610 
z
" transform="scale(0.015625)"/>
       </defs>
       <use xlink:href="#HelveticaNeue-Medium-34"/>
      </g>
     </g>
    </g>
    <g id="xtick_6">
     <g id="line2d_11">
      <g>
       <use xlink:href="#m78cdb9fda4" x="388.237011" y="275.062" style="stroke: #000000; stroke-width: 0.8"/>
      </g>
     </g>
     <g id="line2d_12">
      <g>
       <use xlink:href="#m78cdb9fda4" x="388.237011" y="8.95" style="stroke: #000000; stroke-width: 0.8"/>
      </g>
     </g>
     <g id="text_6">
      <!-- 5 -->
      <g transform="translate(385.457324 287.452625)scale(0.1 -0.1)">
       <defs>
        <path id="HelveticaNeue-Medium-35" d="M 307 2029 
L 1037 2029 
C 1152 2342 1453 2438 1760 2438 
C 2349 2438 2611 1997 2611 1504 
C 2611 960 2400 518 1779 518 
C 1306 518 998 794 954 1274 
L 224 1274 
C 256 378 928 -90 1792 -90 
C 2893 -90 3341 800 3341 1517 
C 3341 2374 2829 3014 1939 3014 
C 1638 3014 1312 2893 1114 2675 
L 1101 2688 
L 1331 3827 
L 3104 3827 
L 3104 4480 
L 787 4480 
L 307 2029 
z
" transform="scale(0.015625)"/>
       </defs>
       <use xlink:href="#HelveticaNeue-Medium-35"/>
      </g>
     </g>
    </g>
    <g id="text_7">
     <!-- x -->
     <g transform="translate(212.934219 300.502625)scale(0.1 -0.1)">
      <defs>
       <path id="HelveticaNeue-Medium-78" d="M 26 0 
L 883 0 
L 1696 1222 
L 2534 0 
L 3411 0 
L 2144 1779 
L 3270 3309 
L 2426 3309 
L 1702 2291 
L 1011 3309 
L 128 3309 
L 1274 1741 
L 26 0 
z
" transform="scale(0.015625)"/>
      </defs>
      <use xlink:href="#HelveticaNeue-Medium-78"/>
     </g>
    </g>
   </g>
   <g id="matplotlib.axis_2">
    <g id="ytick_1">
     <g id="line2d_13">
      <defs>
       <path id="m1e84e93d52" d="M 1.75 0 
L -1.75 -0 
" style="stroke: #000000; stroke-width: 0.8"/>
      </defs>
      <g>
       <use xlink:href="#m1e84e93d52" x="37.059375" y="262.247894" style="stroke: #000000; stroke-width: 0.8"/>
      </g>
     </g>
     <g id="line2d_14">
      <g>
       <use xlink:href="#m1e84e93d52" x="394.179375" y="262.247894" style="stroke: #000000; stroke-width: 0.8"/>
      </g>
     </g>
     <g id="text_8">
      <!-- −4 -->
      <g transform="translate(20.25 265.818206)scale(0.1 -0.1)">
       <defs>
        <path id="HelveticaNeue-Medium-2212" d="M 3533 1293 
L 3533 1946 
L 307 1946 
L 307 1293 
L 3533 1293 
z
" transform="scale(0.015625)"/>
       </defs>
       <use xlink:href="#HelveticaNeue-Medium-2212"/>
       <use xlink:href="#HelveticaNeue-Medium-34" x="59.999985"/>
      </g>
     </g>
    </g>
    <g id="ytick_2">
     <g id="line2d_15">
      <g>
       <use xlink:href="#m1e84e93d52" x="37.059375" y="221.358993" style="stroke: #000000; stroke-width: 0.8"/>
      </g>
     </g>
     <g id="line2d_16">
      <g>
       <use xlink:href="#m1e84e93d52" x="394.179375" y="221.358993" style="stroke: #000000; stroke-width: 0.8"/>
      </g>
     </g>
     <g id="text_9">
      <!-- −2 -->
      <g transform="translate(20.25 224.929306)scale(0.1 -0.1)">
       <use xlink:href="#HelveticaNeue-Medium-2212"/>
       <use xlink:href="#HelveticaNeue-Medium-32" x="59.999985"/>
      </g>
     </g>
    </g>
    <g id="ytick_3">
     <g id="line2d_17">
      <g>
       <use xlink:href="#m1e84e93d52" x="37.059375" y="180.470093" style="stroke: #000000; stroke-width: 0.8"/>
      </g>
     </g>
     <g id="line2d_18">
      <g>
       <use xlink:href="#m1e84e93d52" x="394.179375" y="180.470093" style="stroke: #000000; stroke-width: 0.8"/>
      </g>
     </g>
     <g id="text_10">
      <!-- 0 -->
      <g transform="translate(26.25 184.040405)scale(0.1 -0.1)">
       <use xlink:href="#HelveticaNeue-Medium-30"/>
      </g>
     </g>
    </g>
    <g id="ytick_4">
     <g id="line2d_19">
      <g>
       <use xlink:href="#m1e84e93d52" x="37.059375" y="139.581193" style="stroke: #000000; stroke-width: 0.8"/>
      </g>
     </g>
     <g id="line2d_20">
      <g>
       <use xlink:href="#m1e84e93d52" x="394.179375" y="139.581193" style="stroke: #000000; stroke-width: 0.8"/>
      </g>
     </g>
     <g id="text_11">
      <!-- 2 -->
      <g transform="translate(26.25 143.151505)scale(0.1 -0.1)">
       <use xlink:href="#HelveticaNeue-Medium-32"/>
      </g>
     </g>
    </g>
    <g id="ytick_5">
     <g id="line2d_21">
      <g>
       <use xlink:href="#m1e84e93d52" x="37.059375" y="98.692292" style="stroke: #000000; stroke-width: 0.8"/>
      </g>
     </g>
     <g id="line2d_22">
      <g>
       <use xlink:href="#m1e84e93d52" x="394.179375" y="98.692292" style="stroke: #000000; stroke-width: 0.8"/>
      </g>
     </g>
     <g id="text_12">
      <!-- 4 -->
      <g transform="translate(26.25 102.262605)scale(0.1 -0.1)">
       <use xlink:href="#HelveticaNeue-Medium-34"/>
      </g>
     </g>
    </g>
    <g id="ytick_6">
     <g id="line2d_23">
      <g>
       <use xlink:href="#m1e84e93d52" x="37.059375" y="57.803392" style="stroke: #000000; stroke-width: 0.8"/>
      </g>
     </g>
     <g id="line2d_24">
      <g>
       <use xlink:href="#m1e84e93d52" x="394.179375" y="57.803392" style="stroke: #000000; stroke-width: 0.8"/>
      </g>
     </g>
     <g id="text_13">
      <!-- 6 -->
      <g transform="translate(26.25 61.373704)scale(0.1 -0.1)">
       <defs>
        <path id="HelveticaNeue-Medium-36" d="M 1824 518 
C 1293 518 1018 966 1018 1453 
C 1018 1946 1293 2368 1824 2368 
C 2349 2368 2611 1933 2611 1453 
C 2611 973 2349 518 1824 518 
z
M 3258 3347 
C 3219 4077 2618 4570 1907 4570 
C 640 4570 218 3322 218 2253 
C 218 947 531 -90 1850 -90 
C 2746 -90 3341 570 3341 1440 
C 3341 2298 2816 2944 1926 2944 
C 1530 2944 1158 2765 960 2413 
L 947 2426 
C 992 3014 1082 3962 1875 3962 
C 2253 3962 2496 3712 2528 3347 
L 3258 3347 
z
" transform="scale(0.015625)"/>
       </defs>
       <use xlink:href="#HelveticaNeue-Medium-36"/>
      </g>
     </g>
    </g>
    <g id="ytick_7">
     <g id="line2d_25">
      <g>
       <use xlink:href="#m1e84e93d52" x="37.059375" y="16.914491" style="stroke: #000000; stroke-width: 0.8"/>
      </g>
     </g>
     <g id="line2d_26">
      <g>
       <use xlink:href="#m1e84e93d52" x="394.179375" y="16.914491" style="stroke: #000000; stroke-width: 0.8"/>
      </g>
     </g>
     <g id="text_14">
      <!-- 8 -->
      <g transform="translate(26.25 20.484804)scale(0.1 -0.1)">
       <defs>
        <path id="HelveticaNeue-Medium-38" d="M 1779 486 
C 1293 486 928 794 928 1318 
C 928 1811 1293 2106 1779 2106 
C 2266 2106 2630 1811 2630 1318 
C 2630 794 2266 486 1779 486 
z
M 1779 -90 
C 2688 -90 3360 442 3360 1318 
C 3360 1882 3040 2285 2541 2413 
L 2541 2426 
C 2944 2579 3174 2912 3174 3347 
C 3174 4109 2669 4570 1779 4570 
C 890 4570 384 4109 384 3347 
C 384 2912 614 2579 1018 2426 
L 1018 2413 
C 518 2285 198 1882 198 1318 
C 198 442 870 -90 1779 -90 
z
M 1779 3994 
C 2170 3994 2483 3750 2483 3309 
C 2483 2886 2182 2650 1779 2650 
C 1376 2650 1075 2886 1075 3309 
C 1075 3750 1389 3994 1779 3994 
z
" transform="scale(0.015625)"/>
       </defs>
       <use xlink:href="#HelveticaNeue-Medium-38"/>
      </g>
     </g>
    </g>
    <g id="text_15">
     <!-- y -->
     <g transform="translate(14.2 144.601312)rotate(-90)scale(0.1 -0.1)">
      <defs>
       <path id="HelveticaNeue-Medium-79" d="M 1274 13 
L 1190 -243 
C 1101 -525 1018 -704 678 -704 
C 563 -704 448 -678 333 -659 
L 333 -1274 
C 499 -1299 666 -1312 838 -1312 
C 1600 -1312 1773 -774 2010 -179 
L 3296 3309 
L 2534 3309 
L 1696 838 
L 1683 838 
L 819 3309 
L 19 3309 
L 1274 13 
z
" transform="scale(0.015625)"/>
      </defs>
      <use xlink:href="#HelveticaNeue-Medium-79"/>
     </g>
    </g>
   </g>
   <g id="LineCollection_1">
    <path d="M 174.339435 261.60068 
L 174.339435 220.71178 
" clip-path="url(#pfe76a188cd)" style="fill: none; stroke: #ffa500; stroke-width: 1.5"/>
    <path d="M 371.382069 217.533866 
L 371.382069 176.644966 
" clip-path="url(#pfe76a188cd)" style="fill: none; stroke: #ffa500; stroke-width: 1.5"/>
    <path d="M 296.583097 114.689411 
L 296.583097 73.800511 
" clip-path="url(#pfe76a188cd)" style="fill: none; stroke: #ffa500; stroke-width: 1.5"/>
    <path d="M 250.984439 210.550109 
L 250.984439 169.661208 
" clip-path="url(#pfe76a188cd)" style="fill: none; stroke: #ffa500; stroke-width: 1.5"/>
    <path d="M 99.608479 64.809511 
L 99.608479 23.920611 
" clip-path="url(#pfe76a188cd)" style="fill: none; stroke: #ffa500; stroke-width: 1.5"/>
    <path d="M 99.600231 99.388403 
L 99.600231 58.499503 
" clip-path="url(#pfe76a188cd)" style="fill: none; stroke: #ffa500; stroke-width: 1.5"/>
    <path d="M 66.116219 130.022512 
L 66.116219 89.133612 
" clip-path="url(#pfe76a188cd)" style="fill: none; stroke: #ffa500; stroke-width: 1.5"/>
    <path d="M 342.471329 179.816064 
L 342.471329 138.927164 
" clip-path="url(#pfe76a188cd)" style="fill: none; stroke: #ffa500; stroke-width: 1.5"/>
    <path d="M 251.824533 190.597109 
L 251.824533 149.708209 
" clip-path="url(#pfe76a188cd)" style="fill: none; stroke: #ffa500; stroke-width: 1.5"/>
    <path d="M 288.402362 100.480072 
L 288.402362 59.591172 
" clip-path="url(#pfe76a188cd)" style="fill: none; stroke: #ffa500; stroke-width: 1.5"/>
    <path d="M 53.292102 185.635084 
L 53.292102 144.746183 
" clip-path="url(#pfe76a188cd)" style="fill: none; stroke: #ffa500; stroke-width: 1.5"/>
    <path d="M 377.946648 230.184919 
L 377.946648 189.296019 
" clip-path="url(#pfe76a188cd)" style="fill: none; stroke: #ffa500; stroke-width: 1.5"/>
    <path d="M 330.934994 136.944656 
L 330.934994 96.055756 
" clip-path="url(#pfe76a188cd)" style="fill: none; stroke: #ffa500; stroke-width: 1.5"/>
    <path d="M 118.869206 118.223012 
L 118.869206 77.334112 
" clip-path="url(#pfe76a188cd)" style="fill: none; stroke: #ffa500; stroke-width: 1.5"/>
    <path d="M 108.433843 111.629556 
L 108.433843 70.740656 
" clip-path="url(#pfe76a188cd)" style="fill: none; stroke: #ffa500; stroke-width: 1.5"/>
    <path d="M 108.974022 61.9349 
L 108.974022 21.046 
" clip-path="url(#pfe76a188cd)" style="fill: none; stroke: #ffa500; stroke-width: 1.5"/>
    <path d="M 150.298652 184.559381 
L 150.298652 143.67048 
" clip-path="url(#pfe76a188cd)" style="fill: none; stroke: #ffa500; stroke-width: 1.5"/>
    <path d="M 225.711084 262.966 
L 225.711084 222.0771 
" clip-path="url(#pfe76a188cd)" style="fill: none; stroke: #ffa500; stroke-width: 1.5"/>
    <path d="M 193.97102 247.990092 
L 193.97102 207.101192 
" clip-path="url(#pfe76a188cd)" style="fill: none; stroke: #ffa500; stroke-width: 1.5"/>
    <path d="M 145.848373 197.553951 
L 145.848373 156.66505 
" clip-path="url(#pfe76a188cd)" style="fill: none; stroke: #ffa500; stroke-width: 1.5"/>
   </g>
   <g id="line2d_27">
    <defs>
     <path id="m037f42568e" d="M 2 0 
L -2 -0 
" style="stroke: #ffa500"/>
    </defs>
    <g clip-path="url(#pfe76a188cd)">
     <use xlink:href="#m037f42568e" x="174.339435" y="261.60068" style="fill: #ffa500; stroke: #ffa500"/>
     <use xlink:href="#m037f42568e" x="371.382069" y="217.533866" style="fill: #ffa500; stroke: #ffa500"/>
     <use xlink:href="#m037f42568e" x="296.583097" y="114.689411" style="fill: #ffa500; stroke: #ffa500"/>
     <use xlink:href="#m037f42568e" x="250.984439" y="210.550109" style="fill: #ffa500; stroke: #ffa500"/>
     <use xlink:href="#m037f42568e" x="99.608479" y="64.809511" style="fill: #ffa500; stroke: #ffa500"/>
     <use xlink:href="#m037f42568e" x="99.600231" y="99.388403" style="fill: #ffa500; stroke: #ffa500"/>
     <use xlink:href="#m037f42568e" x="66.116219" y="130.022512" style="fill: #ffa500; stroke: #ffa500"/>
     <use xlink:href="#m037f42568e" x="342.471329" y="179.816064" style="fill: #ffa500; stroke: #ffa500"/>
     <use xlink:href="#m037f42568e" x="251.824533" y="190.597109" style="fill: #ffa500; stroke: #ffa500"/>
     <use xlink:href="#m037f42568e" x="288.402362" y="100.480072" style="fill: #ffa500; stroke: #ffa500"/>
     <use xlink:href="#m037f42568e" x="53.292102" y="185.635084" style="fill: #ffa500; stroke: #ffa500"/>
     <use xlink:href="#m037f42568e" x="377.946648" y="230.184919" style="fill: #ffa500; stroke: #ffa500"/>
     <use xlink:href="#m037f42568e" x="330.934994" y="136.944656" style="fill: #ffa500; stroke: #ffa500"/>
     <use xlink:href="#m037f42568e" x="118.869206" y="118.223012" style="fill: #ffa500; stroke: #ffa500"/>
     <use xlink:href="#m037f42568e" x="108.433843" y="111.629556" style="fill: #ffa500; stroke: #ffa500"/>
     <use xlink:href="#m037f42568e" x="108.974022" y="61.9349" style="fill: #ffa500; stroke: #ffa500"/>
     <use xlink:href="#m037f42568e" x="150.298652" y="184.559381" style="fill: #ffa500; stroke: #ffa500"/>
     <use xlink:href="#m037f42568e" x="225.711084" y="262.966" style="fill: #ffa500; stroke: #ffa500"/>
     <use xlink:href="#m037f42568e" x="193.97102" y="247.990092" style="fill: #ffa500; stroke: #ffa500"/>
     <use xlink:href="#m037f42568e" x="145.848373" y="197.553951" style="fill: #ffa500; stroke: #ffa500"/>
    </g>
   </g>
   <g id="line2d_28">
    <g clip-path="url(#pfe76a188cd)">
     <use xlink:href="#m037f42568e" x="174.339435" y="220.71178" style="fill: #ffa500; stroke: #ffa500"/>
     <use xlink:href="#m037f42568e" x="371.382069" y="176.644966" style="fill: #ffa500; stroke: #ffa500"/>
     <use xlink:href="#m037f42568e" x="296.583097" y="73.800511" style="fill: #ffa500; stroke: #ffa500"/>
     <use xlink:href="#m037f42568e" x="250.984439" y="169.661208" style="fill: #ffa500; stroke: #ffa500"/>
     <use xlink:href="#m037f42568e" x="99.608479" y="23.920611" style="fill: #ffa500; stroke: #ffa500"/>
     <use xlink:href="#m037f42568e" x="99.600231" y="58.499503" style="fill: #ffa500; stroke: #ffa500"/>
     <use xlink:href="#m037f42568e" x="66.116219" y="89.133612" style="fill: #ffa500; stroke: #ffa500"/>
     <use xlink:href="#m037f42568e" x="342.471329" y="138.927164" style="fill: #ffa500; stroke: #ffa500"/>
     <use xlink:href="#m037f42568e" x="251.824533" y="149.708209" style="fill: #ffa500; stroke: #ffa500"/>
     <use xlink:href="#m037f42568e" x="288.402362" y="59.591172" style="fill: #ffa500; stroke: #ffa500"/>
     <use xlink:href="#m037f42568e" x="53.292102" y="144.746183" style="fill: #ffa500; stroke: #ffa500"/>
     <use xlink:href="#m037f42568e" x="377.946648" y="189.296019" style="fill: #ffa500; stroke: #ffa500"/>
     <use xlink:href="#m037f42568e" x="330.934994" y="96.055756" style="fill: #ffa500; stroke: #ffa500"/>
     <use xlink:href="#m037f42568e" x="118.869206" y="77.334112" style="fill: #ffa500; stroke: #ffa500"/>
     <use xlink:href="#m037f42568e" x="108.433843" y="70.740656" style="fill: #ffa500; stroke: #ffa500"/>
     <use xlink:href="#m037f42568e" x="108.974022" y="21.046" style="fill: #ffa500; stroke: #ffa500"/>
     <use xlink:href="#m037f42568e" x="150.298652" y="143.67048" style="fill: #ffa500; stroke: #ffa500"/>
     <use xlink:href="#m037f42568e" x="225.711084" y="222.0771" style="fill: #ffa500; stroke: #ffa500"/>
     <use xlink:href="#m037f42568e" x="193.97102" y="207.101192" style="fill: #ffa500; stroke: #ffa500"/>
     <use xlink:href="#m037f42568e" x="145.848373" y="156.66505" style="fill: #ffa500; stroke: #ffa500"/>
    </g>
   </g>
   <g id="line2d_29">
    <defs>
     <path id="mb02c3e9432" d="M 0 3 
C 0.795609 3 1.55874 2.683901 2.12132 2.12132 
C 2.683901 1.55874 3 0.795609 3 0 
C 3 -0.795609 2.683901 -1.55874 2.12132 -2.12132 
C 1.55874 -2.683901 0.795609 -3 0 -3 
C -0.795609 -3 -1.55874 -2.683901 -2.12132 -2.12132 
C -2.683901 -1.55874 -3 -0.795609 -3 0 
C -3 0.795609 -2.683901 1.55874 -2.12132 2.12132 
C -1.55874 2.683901 -0.795609 3 0 3 
z
" style="stroke: #ffa500"/>
    </defs>
    <g clip-path="url(#pfe76a188cd)">
     <use xlink:href="#mb02c3e9432" x="174.339435" y="241.15623" style="fill: #ffa500; stroke: #ffa500"/>
     <use xlink:href="#mb02c3e9432" x="371.382069" y="197.089416" style="fill: #ffa500; stroke: #ffa500"/>
     <use xlink:href="#mb02c3e9432" x="296.583097" y="94.244961" style="fill: #ffa500; stroke: #ffa500"/>
     <use xlink:href="#mb02c3e9432" x="250.984439" y="190.105658" style="fill: #ffa500; stroke: #ffa500"/>
     <use xlink:href="#mb02c3e9432" x="99.608479" y="44.365061" style="fill: #ffa500; stroke: #ffa500"/>
     <use xlink:href="#mb02c3e9432" x="99.600231" y="78.943953" style="fill: #ffa500; stroke: #ffa500"/>
     <use xlink:href="#mb02c3e9432" x="66.116219" y="109.578062" style="fill: #ffa500; stroke: #ffa500"/>
     <use xlink:href="#mb02c3e9432" x="342.471329" y="159.371614" style="fill: #ffa500; stroke: #ffa500"/>
     <use xlink:href="#mb02c3e9432" x="251.824533" y="170.152659" style="fill: #ffa500; stroke: #ffa500"/>
     <use xlink:href="#mb02c3e9432" x="288.402362" y="80.035622" style="fill: #ffa500; stroke: #ffa500"/>
     <use xlink:href="#mb02c3e9432" x="53.292102" y="165.190634" style="fill: #ffa500; stroke: #ffa500"/>
     <use xlink:href="#mb02c3e9432" x="377.946648" y="209.740469" style="fill: #ffa500; stroke: #ffa500"/>
     <use xlink:href="#mb02c3e9432" x="330.934994" y="116.500206" style="fill: #ffa500; stroke: #ffa500"/>
     <use xlink:href="#mb02c3e9432" x="118.869206" y="97.778562" style="fill: #ffa500; stroke: #ffa500"/>
     <use xlink:href="#mb02c3e9432" x="108.433843" y="91.185106" style="fill: #ffa500; stroke: #ffa500"/>
     <use xlink:href="#mb02c3e9432" x="108.974022" y="41.49045" style="fill: #ffa500; stroke: #ffa500"/>
     <use xlink:href="#mb02c3e9432" x="150.298652" y="164.11493" style="fill: #ffa500; stroke: #ffa500"/>
     <use xlink:href="#mb02c3e9432" x="225.711084" y="242.52155" style="fill: #ffa500; stroke: #ffa500"/>
     <use xlink:href="#mb02c3e9432" x="193.97102" y="227.545642" style="fill: #ffa500; stroke: #ffa500"/>
     <use xlink:href="#mb02c3e9432" x="145.848373" y="177.109501" style="fill: #ffa500; stroke: #ffa500"/>
    </g>
   </g>
   <g id="patch_3">
    <path d="M 37.059375 275.062 
L 37.059375 8.95 
" style="fill: none; stroke: #000000; stroke-width: 0.8; stroke-linejoin: miter; stroke-linecap: square"/>
   </g>
   <g id="patch_4">
    <path d="M 394.179375 275.062 
L 394.179375 8.95 
" style="fill: none; stroke: #000000; stroke-width: 0.8; stroke-linejoin: miter; stroke-linecap: square"/>
   </g>
   <g id="patch_5">
    <path d="M 37.059375 275.062 
L 394.179375 275.062 
" style="fill: none; stroke: #000000; stroke-width: 0.8; stroke-linejoin: miter; stroke-linecap: square"/>
   </g>
   <g id="patch_6">
    <path d="M 37.059375 8.95 
L 394.179375 8.95 
" style="fill: none; stroke: #000000; stroke-width: 0.8; stroke-linejoin: miter; stroke-linecap: square"/>
   </g>
  </g>
 </g>
 <defs>
  <clipPath id="pfe76a188cd">
   <rect x="37.059375" y="8.95" width="357.12" height="266.112"/>
  </clipPath>
 </defs>
</svg>
