<?xml version="1.0" encoding="utf-8" standalone="no"?>
<!DOCTYPE svg PUBLIC "-//W3C//DTD SVG 1.1//EN"
  "http://www.w3.org/Graphics/SVG/1.1/DTD/svg11.dtd">
<!-- Created with matplotlib (https://matplotlib.org/) -->
<svg height="310.86825pt" version="1.1" viewBox="0 0 391.245 310.86825" width="391.245pt" xmlns="http://www.w3.org/2000/svg" xmlns:xlink="http://www.w3.org/1999/xlink">
 <metadata>
  <rdf:RDF xmlns:cc="http://creativecommons.org/ns#" xmlns:dc="http://purl.org/dc/elements/1.1/" xmlns:rdf="http://www.w3.org/1999/02/22-rdf-syntax-ns#">
   <cc:Work>
    <dc:type rdf:resource="http://purl.org/dc/dcmitype/StillImage"/>
    <dc:date>2021-03-09T13:14:41.986089</dc:date>
    <dc:format>image/svg+xml</dc:format>
    <dc:creator>
     <cc:Agent>
      <dc:title>Matplotlib v3.3.2, https://matplotlib.org/</dc:title>
     </cc:Agent>
    </dc:creator>
   </cc:Work>
  </rdf:RDF>
 </metadata>
 <defs>
  <style type="text/css">*{stroke-linecap:butt;stroke-linejoin:round;}</style>
 </defs>
 <g id="figure_1">
  <g id="patch_1">
   <path d="M 0 310.86825 
L 391.245 310.86825 
L 391.245 0 
L 0 0 
z
" style="fill:#ffffff;"/>
  </g>
  <g id="axes_1">
   <g id="patch_2">
    <path d="M 26.925 273.312 
L 384.045 273.312 
L 384.045 7.2 
L 26.925 7.2 
z
" style="fill:#ffffff;"/>
   </g>
   <g id="PolyCollection_1">
    <path clip-path="url(#p9cad4045fa)" d="M 195.556227 254.664144 
L 195.556227 255.035224 
L 196.953581 255.07471 
L 198.350935 255.120899 
L 199.74829 255.175158 
L 201.145644 255.239043 
L 202.542999 255.314171 
L 203.940353 255.402021 
L 205.337708 255.503717 
L 206.735062 255.619815 
L 208.132416 255.750152 
L 209.529771 255.893789 
L 210.927125 256.049072 
L 212.32448 256.213797 
L 213.721834 256.38543 
L 215.119188 256.561348 
L 216.516543 256.739026 
L 217.913897 256.916155 
L 219.311252 257.090703 
L 220.708606 257.260946 
L 222.105961 257.425529 
L 223.503315 257.583579 
L 224.900669 257.734876 
L 226.298024 257.880023 
L 227.695378 258.020551 
L 229.092733 258.158883 
L 230.490087 258.298102 
L 231.887441 258.441563 
L 233.284796 258.592399 
L 234.68215 258.753038 
L 236.079505 258.924831 
L 237.476859 259.107869 
L 238.874214 259.300997 
L 240.271568 259.501971 
L 241.668922 259.707715 
L 243.066277 259.914573 
L 244.463631 260.118539 
L 245.860986 260.315445 
L 247.25834 260.501136 
L 248.655694 260.67165 
L 250.053049 260.823399 
L 251.450403 260.953334 
L 252.847758 261.059052 
L 254.245112 261.138802 
L 255.642467 261.191387 
L 257.039821 261.216 
L 258.437175 261.212047 
L 259.83453 261.179038 
L 261.231884 261.116608 
L 262.629239 261.024689 
L 264.026593 260.903816 
L 265.423947 260.755505 
L 266.821302 260.582585 
L 268.218656 260.389386 
L 269.616011 260.181673 
L 271.013365 259.96626 
L 272.41072 259.750323 
L 273.808074 259.540506 
L 275.205428 259.341987 
L 276.602783 259.157713 
L 278.000137 258.988009 
L 279.397492 258.830669 
L 280.794846 258.681556 
L 282.1922 258.535566 
L 283.589555 258.387765 
L 284.986909 258.234419 
L 286.384264 258.073706 
L 287.781618 257.905969 
L 289.178973 257.733489 
L 290.576327 257.559874 
L 291.973681 257.389237 
L 293.371036 257.225357 
L 294.76839 257.071005 
L 296.165745 256.927538 
L 297.563099 256.794813 
L 298.960453 256.671389 
L 300.357808 256.554932 
L 301.755162 256.442715 
L 303.152517 256.332117 
L 304.549871 256.221029 
L 305.947226 256.108119 
L 307.34458 255.992955 
L 308.741934 255.875988 
L 310.139289 255.758432 
L 311.536643 255.642084 
L 312.933998 255.529105 
L 314.331352 255.421791 
L 315.728706 255.322345 
L 317.126061 255.232676 
L 318.523415 255.154231 
L 319.92077 255.087874 
L 321.318124 255.033825 
L 322.715479 254.991669 
L 324.112833 254.960418 
L 325.510187 254.93863 
L 326.907542 254.924552 
L 328.304896 254.916288 
L 329.702251 254.911958 
L 331.099605 254.909851 
L 332.496959 254.908536 
L 333.894314 254.906949 
L 333.894314 254.792419 
L 333.894314 254.792419 
L 332.496959 254.790832 
L 331.099605 254.789517 
L 329.702251 254.78741 
L 328.304896 254.783081 
L 326.907542 254.774817 
L 325.510187 254.760739 
L 324.112833 254.73895 
L 322.715479 254.7077 
L 321.318124 254.665544 
L 319.92077 254.611495 
L 318.523415 254.545137 
L 317.126061 254.466692 
L 315.728706 254.377023 
L 314.331352 254.277577 
L 312.933998 254.170263 
L 311.536643 254.057285 
L 310.139289 253.940937 
L 308.741934 253.823381 
L 307.34458 253.706413 
L 305.947226 253.591249 
L 304.549871 253.47834 
L 303.152517 253.367251 
L 301.755162 253.256653 
L 300.357808 253.144437 
L 298.960453 253.027979 
L 297.563099 252.904556 
L 296.165745 252.77183 
L 294.76839 252.628363 
L 293.371036 252.474011 
L 291.973681 252.310132 
L 290.576327 252.139495 
L 289.178973 251.965879 
L 287.781618 251.793399 
L 286.384264 251.625663 
L 284.986909 251.46495 
L 283.589555 251.311604 
L 282.1922 251.163803 
L 280.794846 251.017813 
L 279.397492 250.868699 
L 278.000137 250.71136 
L 276.602783 250.541655 
L 275.205428 250.357382 
L 273.808074 250.158863 
L 272.41072 249.949046 
L 271.013365 249.733109 
L 269.616011 249.517695 
L 268.218656 249.309982 
L 266.821302 249.116784 
L 265.423947 248.943863 
L 264.026593 248.795552 
L 262.629239 248.67468 
L 261.231884 248.58276 
L 259.83453 248.52033 
L 258.437175 248.487321 
L 257.039821 248.483368 
L 255.642467 248.507981 
L 254.245112 248.560566 
L 252.847758 248.640316 
L 251.450403 248.746034 
L 250.053049 248.87597 
L 248.655694 249.027718 
L 247.25834 249.198232 
L 245.860986 249.383924 
L 244.463631 249.580829 
L 243.066277 249.784795 
L 241.668922 249.991653 
L 240.271568 250.197397 
L 238.874214 250.398372 
L 237.476859 250.591499 
L 236.079505 250.774538 
L 234.68215 250.946331 
L 233.284796 251.106969 
L 231.887441 251.257805 
L 230.490087 251.401266 
L 229.092733 251.540485 
L 227.695378 251.678817 
L 226.298024 251.819346 
L 224.900669 251.964493 
L 223.503315 252.11579 
L 222.105961 252.27384 
L 220.708606 252.438422 
L 219.311252 252.608665 
L 217.913897 252.783213 
L 216.516543 252.960342 
L 215.119188 253.13802 
L 213.721834 253.313939 
L 212.32448 253.485572 
L 210.927125 253.650296 
L 209.529771 253.80558 
L 208.132416 253.949216 
L 206.735062 254.079553 
L 205.337708 254.195651 
L 203.940353 254.297347 
L 202.542999 254.385197 
L 201.145644 254.460325 
L 199.74829 254.524211 
L 198.350935 254.578469 
L 196.953581 254.624658 
L 195.556227 254.664144 
z
" style="fill:#1f77b4;fill-opacity:0.3;"/>
   </g>
   <g id="PolyCollection_2">
    <path clip-path="url(#p9cad4045fa)" d="M 46.879038 229.210612 
L 46.879038 229.558231 
L 50.280067 229.592889 
L 53.681096 229.630532 
L 57.082126 229.670625 
L 60.483155 229.712554 
L 63.884184 229.755713 
L 67.285213 229.799615 
L 70.686242 229.843995 
L 74.087271 229.888862 
L 77.488301 229.934497 
L 80.88933 229.981386 
L 84.290359 230.030119 
L 87.691388 230.081295 
L 91.092417 230.135485 
L 94.493447 230.193263 
L 97.894476 230.255318 
L 101.295505 230.322588 
L 104.696534 230.396368 
L 108.097563 230.478309 
L 111.498592 230.570279 
L 114.899622 230.674094 
L 118.300651 230.791171 
L 121.70168 230.922214 
L 125.102709 231.067016 
L 128.503738 231.224462 
L 131.904767 231.392737 
L 135.305797 231.569681 
L 138.706826 231.753194 
L 142.107855 231.941573 
L 145.508884 232.133702 
L 148.909913 232.32908 
L 152.310942 232.527695 
L 155.711972 232.729851 
L 159.113001 232.935982 
L 162.51403 233.146512 
L 165.915059 233.361758 
L 169.316088 233.581812 
L 172.717117 233.806406 
L 176.118147 234.034699 
L 179.519176 234.265043 
L 182.920205 234.494771 
L 186.321234 234.720092 
L 189.722263 234.936147 
L 193.123292 235.137278 
L 196.524322 235.317493 
L 199.925351 235.471083 
L 203.32638 235.593306 
L 206.727409 235.681016 
L 210.128438 235.733121 
L 213.529467 235.750737 
L 216.930497 235.736984 
L 220.331526 235.696417 
L 223.732555 235.63418 
L 227.133584 235.555061 
L 230.534613 235.462647 
L 233.935642 235.358781 
L 237.336672 235.243453 
L 240.737701 235.115154 
L 244.13873 234.971599 
L 247.539759 234.810641 
L 250.940788 234.631138 
L 254.341817 234.433579 
L 257.742847 234.220308 
L 261.143876 233.995328 
L 264.544905 233.763744 
L 267.945934 233.531011 
L 271.346963 233.302167 
L 274.747993 233.081218 
L 278.149022 232.87078 
L 281.550051 232.671995 
L 284.95108 232.484664 
L 288.352109 232.307526 
L 291.753138 232.138576 
L 295.154168 231.975378 
L 298.555197 231.815344 
L 301.956226 231.656012 
L 305.357255 231.495316 
L 308.758284 231.331869 
L 312.159313 231.165231 
L 315.560343 230.996092 
L 318.961372 230.826326 
L 322.362401 230.658872 
L 325.76343 230.497408 
L 329.164459 230.34589 
L 332.565488 230.207998 
L 335.966518 230.086613 
L 339.367547 229.983406 
L 342.768576 229.898625 
L 346.169605 229.831116 
L 349.570634 229.778565 
L 352.971663 229.7379 
L 356.372693 229.705783 
L 359.773722 229.679067 
L 363.174751 229.655166 
L 366.57578 229.632255 
L 369.976809 229.609308 
L 373.377838 229.585988 
L 376.778868 229.56246 
L 380.179897 229.539171 
L 383.580926 229.516664 
L 383.580926 229.252178 
L 383.580926 229.252178 
L 380.179897 229.229671 
L 376.778868 229.206382 
L 373.377838 229.182854 
L 369.976809 229.159534 
L 366.57578 229.136587 
L 363.174751 229.113676 
L 359.773722 229.089775 
L 356.372693 229.063059 
L 352.971663 229.030942 
L 349.570634 228.990278 
L 346.169605 228.937726 
L 342.768576 228.870217 
L 339.367547 228.785436 
L 335.966518 228.682229 
L 332.565488 228.560844 
L 329.164459 228.422952 
L 325.76343 228.271434 
L 322.362401 228.10997 
L 318.961372 227.942516 
L 315.560343 227.77275 
L 312.159313 227.603611 
L 308.758284 227.436973 
L 305.357255 227.273527 
L 301.956226 227.11283 
L 298.555197 226.953498 
L 295.154168 226.793465 
L 291.753138 226.630266 
L 288.352109 226.461316 
L 284.95108 226.284178 
L 281.550051 226.096847 
L 278.149022 225.898062 
L 274.747993 225.687624 
L 271.346963 225.466676 
L 267.945934 225.237831 
L 264.544905 225.005098 
L 261.143876 224.773514 
L 257.742847 224.548534 
L 254.341817 224.335264 
L 250.940788 224.137704 
L 247.539759 223.958201 
L 244.13873 223.797243 
L 240.737701 223.653689 
L 237.336672 223.52539 
L 233.935642 223.410061 
L 230.534613 223.306195 
L 227.133584 223.213781 
L 223.732555 223.134662 
L 220.331526 223.072425 
L 216.930497 223.031858 
L 213.529467 223.018105 
L 210.128438 223.035721 
L 206.727409 223.087826 
L 203.32638 223.175536 
L 199.925351 223.297759 
L 196.524322 223.451349 
L 193.123292 223.631564 
L 189.722263 223.832695 
L 186.321234 224.04875 
L 182.920205 224.274071 
L 179.519176 224.5038 
L 176.118147 224.734143 
L 172.717117 224.962436 
L 169.316088 225.18703 
L 165.915059 225.407085 
L 162.51403 225.62233 
L 159.113001 225.832861 
L 155.711972 226.038991 
L 152.310942 226.241147 
L 148.909913 226.439762 
L 145.508884 226.63514 
L 142.107855 226.82727 
L 138.706826 227.015648 
L 135.305797 227.199161 
L 131.904767 227.376105 
L 128.503738 227.54438 
L 125.102709 227.701826 
L 121.70168 227.846628 
L 118.300651 227.977671 
L 114.899622 228.094748 
L 111.498592 228.198563 
L 108.097563 228.290533 
L 104.696534 228.372474 
L 101.295505 228.446254 
L 97.894476 228.513524 
L 94.493447 228.575579 
L 91.092417 228.633357 
L 87.691388 228.687547 
L 84.290359 228.738723 
L 80.88933 228.787456 
L 77.488301 228.834345 
L 74.087271 228.87998 
L 70.686242 228.924847 
L 67.285213 228.969227 
L 63.884184 229.013129 
L 60.483155 229.056288 
L 57.082126 229.098217 
L 53.681096 229.138311 
L 50.280067 229.175953 
L 46.879038 229.210612 
z
" style="fill:#1f77b4;fill-opacity:0.3;"/>
   </g>
   <g id="PolyCollection_3">
    <path clip-path="url(#p9cad4045fa)" d="M 145.488324 203.750387 
L 145.488324 204.087929 
L 146.914882 204.117645 
L 148.34144 204.149745 
L 149.767997 204.184179 
L 151.194555 204.221017 
L 152.621113 204.260518 
L 154.047671 204.3032 
L 155.474228 204.34991 
L 156.900786 204.401852 
L 158.327344 204.460592 
L 159.753902 204.528006 
L 161.180459 204.606188 
L 162.607017 204.697302 
L 164.033575 204.803408 
L 165.460133 204.926251 
L 166.88669 205.067032 
L 168.313248 205.22619 
L 169.739806 205.403192 
L 171.166364 205.596387 
L 172.592921 205.802952 
L 174.019479 206.018966 
L 175.446037 206.239658 
L 176.872595 206.459811 
L 178.299152 206.674323 
L 179.72571 206.878835 
L 181.152268 207.070337 
L 182.578826 207.247648 
L 184.005383 207.411654 
L 185.431941 207.565246 
L 186.858499 207.712944 
L 188.285056 207.86025 
L 189.711614 208.012822 
L 191.138172 208.175605 
L 192.56473 208.352041 
L 193.991287 208.543471 
L 195.417845 208.748804 
L 196.844403 208.964499 
L 198.270961 209.18485 
L 199.697518 209.402549 
L 201.124076 209.60946 
L 202.550634 209.797529 
L 203.977192 209.959704 
L 205.403749 210.090759 
L 206.830307 210.187869 
L 208.256865 210.250851 
L 209.683423 210.281989 
L 211.10998 210.285474 
L 212.536538 210.266538 
L 213.963096 210.230462 
L 215.389654 210.181638 
L 216.816211 210.122881 
L 218.242769 210.055113 
L 219.669327 209.977456 
L 221.095885 209.887674 
L 222.522442 209.782841 
L 223.949 209.660075 
L 225.375558 209.517192 
L 226.802116 209.353191 
L 228.228673 209.168496 
L 229.655231 208.965003 
L 231.081789 208.745925 
L 232.508346 208.515513 
L 233.934904 208.278692 
L 235.361462 208.040639 
L 236.78802 207.806352 
L 238.214577 207.580235 
L 239.641135 207.365742 
L 241.067693 207.165134 
L 242.494251 206.979377 
L 243.920808 206.808215 
L 245.347366 206.650421 
L 246.773924 206.504168 
L 248.200482 206.367473 
L 249.627039 206.238607 
L 251.053597 206.116386 
L 252.480155 206.000283 
L 253.906713 205.890336 
L 255.33327 205.786895 
L 256.759828 205.69028 
L 258.186386 205.600449 
L 259.612944 205.516781 
L 261.039501 205.438019 
L 262.466059 205.362404 
L 263.892617 205.287944 
L 265.319175 205.212757 
L 266.745732 205.1354 
L 268.17229 205.055108 
L 269.598848 204.9719 
L 271.025405 204.886531 
L 272.451963 204.800324 
L 273.878521 204.714917 
L 275.305079 204.631986 
L 276.731636 204.553003 
L 278.158194 204.479061 
L 279.584752 204.410794 
L 281.01131 204.348393 
L 282.437867 204.291693 
L 283.864425 204.240307 
L 285.290983 204.193766 
L 286.717541 204.151637 
L 286.717541 203.686679 
L 286.717541 203.686679 
L 285.290983 203.644549 
L 283.864425 203.598008 
L 282.437867 203.546622 
L 281.01131 203.489922 
L 279.584752 203.427521 
L 278.158194 203.359255 
L 276.731636 203.285313 
L 275.305079 203.20633 
L 273.878521 203.123399 
L 272.451963 203.037991 
L 271.025405 202.951785 
L 269.598848 202.866416 
L 268.17229 202.783208 
L 266.745732 202.702916 
L 265.319175 202.625559 
L 263.892617 202.550371 
L 262.466059 202.475912 
L 261.039501 202.400297 
L 259.612944 202.321535 
L 258.186386 202.237866 
L 256.759828 202.148036 
L 255.33327 202.05142 
L 253.906713 201.94798 
L 252.480155 201.838033 
L 251.053597 201.721929 
L 249.627039 201.599708 
L 248.200482 201.470842 
L 246.773924 201.334148 
L 245.347366 201.187895 
L 243.920808 201.0301 
L 242.494251 200.858939 
L 241.067693 200.673182 
L 239.641135 200.472574 
L 238.214577 200.258081 
L 236.78802 200.031964 
L 235.361462 199.797677 
L 233.934904 199.559624 
L 232.508346 199.322803 
L 231.081789 199.092391 
L 229.655231 198.873312 
L 228.228673 198.669819 
L 226.802116 198.485125 
L 225.375558 198.321123 
L 223.949 198.178241 
L 222.522442 198.055475 
L 221.095885 197.950642 
L 219.669327 197.86086 
L 218.242769 197.783203 
L 216.816211 197.715435 
L 215.389654 197.656677 
L 213.963096 197.607853 
L 212.536538 197.571778 
L 211.10998 197.552842 
L 209.683423 197.556326 
L 208.256865 197.587464 
L 206.830307 197.650446 
L 205.403749 197.747557 
L 203.977192 197.878612 
L 202.550634 198.040787 
L 201.124076 198.228856 
L 199.697518 198.435767 
L 198.270961 198.653466 
L 196.844403 198.873817 
L 195.417845 199.089512 
L 193.991287 199.294845 
L 192.56473 199.486275 
L 191.138172 199.662711 
L 189.711614 199.825494 
L 188.285056 199.978066 
L 186.858499 200.125371 
L 185.431941 200.27307 
L 184.005383 200.426662 
L 182.578826 200.590668 
L 181.152268 200.767979 
L 179.72571 200.959481 
L 178.299152 201.163992 
L 176.872595 201.378505 
L 175.446037 201.598658 
L 174.019479 201.81935 
L 172.592921 202.035364 
L 171.166364 202.241929 
L 169.739806 202.435124 
L 168.313248 202.612126 
L 166.88669 202.771284 
L 165.460133 202.912065 
L 164.033575 203.034908 
L 162.607017 203.141014 
L 161.180459 203.232128 
L 159.753902 203.31031 
L 158.327344 203.377724 
L 156.900786 203.436464 
L 155.474228 203.488406 
L 154.047671 203.535115 
L 152.621113 203.577798 
L 151.194555 203.617298 
L 149.767997 203.654137 
L 148.34144 203.688571 
L 146.914882 203.720671 
L 145.488324 203.750387 
z
" style="fill:#1f77b4;fill-opacity:0.3;"/>
   </g>
   <g id="PolyCollection_4">
    <path clip-path="url(#p9cad4045fa)" d="M 215.360933 178.152042 
L 215.360933 178.755748 
L 215.969942 178.808244 
L 216.57895 178.866022 
L 217.187959 178.929321 
L 217.796968 178.998251 
L 218.405976 179.072693 
L 219.014985 179.152228 
L 219.623993 179.236122 
L 220.233002 179.323372 
L 220.842011 179.412819 
L 221.451019 179.503314 
L 222.060028 179.593882 
L 222.669036 179.68387 
L 223.278045 179.773028 
L 223.887054 179.861521 
L 224.496062 179.949871 
L 225.105071 180.038871 
L 225.714079 180.129502 
L 226.323088 180.222913 
L 226.932097 180.320465 
L 227.541105 180.423844 
L 228.150114 180.53518 
L 228.759122 180.657119 
L 229.368131 180.792777 
L 229.977139 180.945529 
L 230.586148 181.118631 
L 231.195157 181.314739 
L 231.804165 181.535386 
L 232.413174 181.78054 
L 233.022182 182.048314 
L 233.631191 182.334902 
L 234.2402 182.634725 
L 234.849208 182.940794 
L 235.458217 183.245193 
L 236.067225 183.539648 
L 236.676234 183.816099 
L 237.285243 184.067235 
L 237.894251 184.286954 
L 238.50326 184.470729 
L 239.112268 184.615838 
L 239.721277 184.721475 
L 240.330286 184.788692 
L 240.939294 184.820211 
L 241.548303 184.820103 
L 242.157311 184.793392 
L 242.76632 184.745619 
L 243.375329 184.682424 
L 243.984337 184.609187 
L 244.593346 184.530745 
L 245.202354 184.451192 
L 245.811363 184.373751 
L 246.420372 184.300702 
L 247.02938 184.233353 
L 247.638389 184.172044 
L 248.247397 184.116177 
L 248.856406 184.064276 
L 249.465414 184.014078 
L 250.074423 183.962666 
L 250.683432 183.906653 
L 251.29244 183.842424 
L 251.901449 183.766421 
L 252.510457 183.67547 
L 253.119466 183.567092 
L 253.728475 183.439761 
L 254.337483 183.293065 
L 254.946492 183.127723 
L 255.5555 182.945483 
L 256.164509 182.748912 
L 256.773518 182.541127 
L 257.382526 182.325537 
L 257.991535 182.10563 
L 258.600543 181.884821 
L 259.209552 181.666352 
L 259.818561 181.453215 
L 260.427569 181.24807 
L 261.036578 181.053123 
L 261.645586 180.869991 
L 262.254595 180.699548 
L 262.863604 180.541828 
L 263.472612 180.396 
L 264.081621 180.260462 
L 264.690629 180.133055 
L 265.299638 180.011374 
L 265.908647 179.893133 
L 266.517655 179.776516 
L 267.126664 179.660452 
L 267.735672 179.544764 
L 268.344681 179.430168 
L 268.953689 179.318117 
L 269.562698 179.210534 
L 270.171707 179.109477 
L 270.780715 179.016805 
L 271.389724 178.933901 
L 271.998732 178.861488 
L 272.607741 178.799575 
L 273.21675 178.747514 
L 273.825758 178.704153 
L 274.434767 178.668048 
L 275.043775 178.637682 
L 275.652784 178.611661 
L 275.652784 178.296128 
L 275.652784 178.296128 
L 275.043775 178.270107 
L 274.434767 178.239741 
L 273.825758 178.203636 
L 273.21675 178.160275 
L 272.607741 178.108214 
L 271.998732 178.046301 
L 271.389724 177.973889 
L 270.780715 177.890984 
L 270.171707 177.798313 
L 269.562698 177.697256 
L 268.953689 177.589672 
L 268.344681 177.477621 
L 267.735672 177.363025 
L 267.126664 177.247338 
L 266.517655 177.131273 
L 265.908647 177.014656 
L 265.299638 176.896415 
L 264.690629 176.774734 
L 264.081621 176.647327 
L 263.472612 176.51179 
L 262.863604 176.365962 
L 262.254595 176.208242 
L 261.645586 176.037799 
L 261.036578 175.854666 
L 260.427569 175.65972 
L 259.818561 175.454574 
L 259.209552 175.241438 
L 258.600543 175.022969 
L 257.991535 174.80216 
L 257.382526 174.582253 
L 256.773518 174.366663 
L 256.164509 174.158877 
L 255.5555 173.962306 
L 254.946492 173.780067 
L 254.337483 173.614725 
L 253.728475 173.468028 
L 253.119466 173.340698 
L 252.510457 173.23232 
L 251.901449 173.141369 
L 251.29244 173.065366 
L 250.683432 173.001136 
L 250.074423 172.945124 
L 249.465414 172.893712 
L 248.856406 172.843514 
L 248.247397 172.791613 
L 247.638389 172.735746 
L 247.02938 172.674437 
L 246.420372 172.607088 
L 245.811363 172.534038 
L 245.202354 172.456597 
L 244.593346 172.377044 
L 243.984337 172.298602 
L 243.375329 172.225365 
L 242.76632 172.16217 
L 242.157311 172.114397 
L 241.548303 172.087687 
L 240.939294 172.087579 
L 240.330286 172.119097 
L 239.721277 172.186314 
L 239.112268 172.291951 
L 238.50326 172.437061 
L 237.894251 172.620835 
L 237.285243 172.840555 
L 236.676234 173.091691 
L 236.067225 173.368141 
L 235.458217 173.662596 
L 234.849208 173.966996 
L 234.2402 174.273064 
L 233.631191 174.572888 
L 233.022182 174.859475 
L 232.413174 175.12725 
L 231.804165 175.372403 
L 231.195157 175.59305 
L 230.586148 175.789158 
L 229.977139 175.962261 
L 229.368131 176.115012 
L 228.759122 176.250671 
L 228.150114 176.37261 
L 227.541105 176.483945 
L 226.932097 176.587324 
L 226.323088 176.684877 
L 225.714079 176.778288 
L 225.105071 176.868919 
L 224.496062 176.957918 
L 223.887054 177.046269 
L 223.278045 177.134762 
L 222.669036 177.22392 
L 222.060028 177.313907 
L 221.451019 177.404475 
L 220.842011 177.49497 
L 220.233002 177.584418 
L 219.623993 177.671667 
L 219.014985 177.755561 
L 218.405976 177.835097 
L 217.796968 177.909539 
L 217.187959 177.978469 
L 216.57895 178.041768 
L 215.969942 178.099545 
L 215.360933 178.152042 
z
" style="fill:#1f77b4;fill-opacity:0.3;"/>
   </g>
   <g id="PolyCollection_5">
    <path clip-path="url(#p9cad4045fa)" d="M 149.294766 152.868466 
L 149.294766 153.108797 
L 150.476681 153.131602 
L 151.658595 153.158092 
L 152.84051 153.188829 
L 154.022424 153.224322 
L 155.204339 153.264982 
L 156.386254 153.311103 
L 157.568168 153.362857 
L 158.750083 153.420303 
L 159.931997 153.483389 
L 161.113912 153.551961 
L 162.295826 153.625759 
L 163.477741 153.704431 
L 164.659655 153.787563 
L 165.84157 153.874729 
L 167.023485 153.965581 
L 168.205399 154.059942 
L 169.387314 154.157917 
L 170.569228 154.259993 
L 171.751143 154.367135 
L 172.933057 154.480875 
L 174.114972 154.603369 
L 175.296886 154.737412 
L 176.478801 154.886369 
L 177.660715 155.053967 
L 178.84263 155.243918 
L 180.024545 155.459382 
L 181.206459 155.702316 
L 182.388374 155.972813 
L 183.570288 156.268594 
L 184.752203 156.584777 
L 185.934117 156.91405 
L 187.116032 157.247271 
L 188.297946 157.574419 
L 189.479861 157.885747 
L 190.661775 158.172905 
L 191.84369 158.429807 
L 193.025605 158.653052 
L 194.207519 158.841835 
L 195.389434 158.997387 
L 196.571348 159.122103 
L 197.753263 159.218601 
L 198.935177 159.288961 
L 200.117092 159.334325 
L 201.299006 159.354947 
L 202.480921 159.350639 
L 203.662836 159.321467 
L 204.84475 159.268468 
L 206.026665 159.194175 
L 207.208579 159.102776 
L 208.390494 158.999851 
L 209.572408 158.89171 
L 210.754323 158.784481 
L 211.936237 158.683135 
L 213.118152 158.590665 
L 214.300066 158.507591 
L 215.481981 158.431911 
L 216.663896 158.359511 
L 217.84581 158.284955 
L 219.027725 158.202506 
L 220.209639 158.107179 
L 221.391554 157.99561 
L 222.573468 157.866594 
L 223.755383 157.721175 
L 224.937297 157.562304 
L 226.119212 157.394139 
L 227.301127 157.22117 
L 228.483041 157.047332 
L 229.664956 156.875326 
L 230.84687 156.706259 
L 232.028785 156.539662 
L 233.210699 156.373851 
L 234.392614 156.206521 
L 235.574528 156.035431 
L 236.756443 155.85902 
L 237.938357 155.676845 
L 239.120272 155.489791 
L 240.302187 155.300022 
L 241.484101 155.110739 
L 242.666016 154.92579 
L 243.84793 154.749214 
L 245.029845 154.584775 
L 246.211759 154.435542 
L 247.393674 154.303559 
L 248.575588 154.189627 
L 249.757503 154.093228 
L 250.939417 154.012596 
L 252.121332 153.944944 
L 253.303247 153.886806 
L 254.485161 153.834467 
L 255.667076 153.784418 
L 256.84899 153.733764 
L 258.030905 153.680515 
L 259.212819 153.623739 
L 260.394734 153.563535 
L 261.576648 153.500863 
L 262.758563 153.43727 
L 263.940478 153.374576 
L 265.122392 153.314576 
L 266.304307 153.258806 
L 266.304307 152.718457 
L 266.304307 152.718457 
L 265.122392 152.662687 
L 263.940478 152.602687 
L 262.758563 152.539993 
L 261.576648 152.4764 
L 260.394734 152.413728 
L 259.212819 152.353524 
L 258.030905 152.296748 
L 256.84899 152.2435 
L 255.667076 152.192845 
L 254.485161 152.142797 
L 253.303247 152.090458 
L 252.121332 152.032319 
L 250.939417 151.964667 
L 249.757503 151.884036 
L 248.575588 151.787636 
L 247.393674 151.673704 
L 246.211759 151.541721 
L 245.029845 151.392488 
L 243.84793 151.228049 
L 242.666016 151.051473 
L 241.484101 150.866525 
L 240.302187 150.677241 
L 239.120272 150.487472 
L 237.938357 150.300418 
L 236.756443 150.118243 
L 235.574528 149.941832 
L 234.392614 149.770742 
L 233.210699 149.603413 
L 232.028785 149.437601 
L 230.84687 149.271004 
L 229.664956 149.101937 
L 228.483041 148.929932 
L 227.301127 148.756093 
L 226.119212 148.583124 
L 224.937297 148.41496 
L 223.755383 148.256088 
L 222.573468 148.110669 
L 221.391554 147.981653 
L 220.209639 147.870085 
L 219.027725 147.774757 
L 217.84581 147.692308 
L 216.663896 147.617752 
L 215.481981 147.545352 
L 214.300066 147.469673 
L 213.118152 147.386598 
L 211.936237 147.294128 
L 210.754323 147.192782 
L 209.572408 147.085553 
L 208.390494 146.977412 
L 207.208579 146.874487 
L 206.026665 146.783088 
L 204.84475 146.708795 
L 203.662836 146.655796 
L 202.480921 146.626624 
L 201.299006 146.622316 
L 200.117092 146.642938 
L 198.935177 146.688302 
L 197.753263 146.758663 
L 196.571348 146.855161 
L 195.389434 146.979876 
L 194.207519 147.135428 
L 193.025605 147.324211 
L 191.84369 147.547456 
L 190.661775 147.804358 
L 189.479861 148.091517 
L 188.297946 148.402845 
L 187.116032 148.729992 
L 185.934117 149.063213 
L 184.752203 149.392486 
L 183.570288 149.708669 
L 182.388374 150.00445 
L 181.206459 150.274948 
L 180.024545 150.517881 
L 178.84263 150.733345 
L 177.660715 150.923296 
L 176.478801 151.090894 
L 175.296886 151.239851 
L 174.114972 151.373894 
L 172.933057 151.496388 
L 171.751143 151.610128 
L 170.569228 151.717271 
L 169.387314 151.819346 
L 168.205399 151.917321 
L 167.023485 152.011682 
L 165.84157 152.102534 
L 164.659655 152.1897 
L 163.477741 152.272832 
L 162.295826 152.351505 
L 161.113912 152.425303 
L 159.931997 152.493874 
L 158.750083 152.55696 
L 157.568168 152.614406 
L 156.386254 152.66616 
L 155.204339 152.712281 
L 154.022424 152.752941 
L 152.84051 152.788434 
L 151.658595 152.819171 
L 150.476681 152.845661 
L 149.294766 152.868466 
z
" style="fill:#1f77b4;fill-opacity:0.3;"/>
   </g>
   <g id="PolyCollection_6">
    <path clip-path="url(#p9cad4045fa)" d="M 153.698817 127.263593 
L 153.698817 127.783144 
L 154.815988 127.845281 
L 155.933159 127.917283 
L 157.05033 127.999395 
L 158.1675 128.091596 
L 159.284671 128.193637 
L 160.401842 128.305102 
L 161.519013 128.425501 
L 162.636184 128.554373 
L 163.753355 128.691381 
L 164.870526 128.836393 
L 165.987696 128.989535 
L 167.104867 129.15121 
L 168.222038 129.32209 
L 169.339209 129.503058 
L 170.45638 129.695114 
L 171.573551 129.89924 
L 172.690722 130.116224 
L 173.807892 130.346472 
L 174.925063 130.589815 
L 176.042234 130.84535 
L 177.159405 131.111334 
L 178.276576 131.385162 
L 179.393747 131.663425 
L 180.510918 131.942062 
L 181.628088 132.216575 
L 182.745259 132.482287 
L 183.86243 132.734601 
L 184.979601 132.969239 
L 186.096772 133.182417 
L 187.213943 133.37096 
L 188.331114 133.532344 
L 189.448284 133.664708 
L 190.565455 133.766835 
L 191.682626 133.838161 
L 192.799797 133.878814 
L 193.916968 133.889684 
L 195.034139 133.872507 
L 196.15131 133.829905 
L 197.26848 133.765359 
L 198.385651 133.683042 
L 199.502822 133.587524 
L 200.619993 133.48335 
L 201.737164 133.374557 
L 202.854335 133.264211 
L 203.971506 133.154055 
L 205.088676 133.044348 
L 206.205847 132.933937 
L 207.323018 132.820552 
L 208.440189 132.701282 
L 209.55736 132.573122 
L 210.674531 132.433518 
L 211.791702 132.280806 
L 212.908872 132.114498 
L 214.026043 131.93539 
L 215.143214 131.74551 
L 216.260385 131.547945 
L 217.377556 131.346575 
L 218.494727 131.145749 
L 219.611898 130.949946 
L 220.729068 130.763408 
L 221.846239 130.589805 
L 222.96341 130.431926 
L 224.080581 130.291446 
L 225.197752 130.168801 
L 226.314923 130.063187 
L 227.432094 129.97269 
L 228.549264 129.894536 
L 229.666435 129.825417 
L 230.783606 129.761856 
L 231.900777 129.700547 
L 233.017948 129.638637 
L 234.135119 129.573922 
L 235.25229 129.50493 
L 236.36946 129.430923 
L 237.486631 129.351801 
L 238.603802 129.26797 
L 239.720973 129.18017 
L 240.838144 129.089318 
L 241.955315 128.996369 
L 243.072486 128.90223 
L 244.189656 128.80772 
L 245.306827 128.713573 
L 246.423998 128.620481 
L 247.541169 128.529142 
L 248.65834 128.440304 
L 249.775511 128.354772 
L 250.892681 128.27338 
L 252.009852 128.196929 
L 253.127023 128.12609 
L 254.244194 128.061322 
L 255.361365 128.002793 
L 256.478536 127.95036 
L 257.595707 127.903583 
L 258.712877 127.861799 
L 259.830048 127.82422 
L 260.947219 127.790049 
L 262.06439 127.758584 
L 263.181561 127.72929 
L 264.298732 127.701843 
L 264.298732 127.344894 
L 264.298732 127.344894 
L 263.181561 127.317447 
L 262.06439 127.288153 
L 260.947219 127.256688 
L 259.830048 127.222517 
L 258.712877 127.184938 
L 257.595707 127.143154 
L 256.478536 127.096377 
L 255.361365 127.043943 
L 254.244194 126.985415 
L 253.127023 126.920647 
L 252.009852 126.849808 
L 250.892681 126.773356 
L 249.775511 126.691965 
L 248.65834 126.606433 
L 247.541169 126.517594 
L 246.423998 126.426256 
L 245.306827 126.333164 
L 244.189656 126.239017 
L 243.072486 126.144506 
L 241.955315 126.050368 
L 240.838144 125.957419 
L 239.720973 125.866567 
L 238.603802 125.778767 
L 237.486631 125.694936 
L 236.36946 125.615814 
L 235.25229 125.541806 
L 234.135119 125.472815 
L 233.017948 125.4081 
L 231.900777 125.34619 
L 230.783606 125.284881 
L 229.666435 125.22132 
L 228.549264 125.152201 
L 227.432094 125.074047 
L 226.314923 124.98355 
L 225.197752 124.877936 
L 224.080581 124.755291 
L 222.96341 124.614811 
L 221.846239 124.456932 
L 220.729068 124.283329 
L 219.611898 124.096791 
L 218.494727 123.900988 
L 217.377556 123.700162 
L 216.260385 123.498792 
L 215.143214 123.301227 
L 214.026043 123.111347 
L 212.908872 122.932238 
L 211.791702 122.76593 
L 210.674531 122.613219 
L 209.55736 122.473615 
L 208.440189 122.345455 
L 207.323018 122.226184 
L 206.205847 122.1128 
L 205.088676 122.002389 
L 203.971506 121.892682 
L 202.854335 121.782526 
L 201.737164 121.67218 
L 200.619993 121.563387 
L 199.502822 121.459213 
L 198.385651 121.363695 
L 197.26848 121.281378 
L 196.15131 121.216832 
L 195.034139 121.17423 
L 193.916968 121.157053 
L 192.799797 121.167923 
L 191.682626 121.208576 
L 190.565455 121.279902 
L 189.448284 121.382029 
L 188.331114 121.514392 
L 187.213943 121.675777 
L 186.096772 121.86432 
L 184.979601 122.077498 
L 183.86243 122.312136 
L 182.745259 122.56445 
L 181.628088 122.830162 
L 180.510918 123.104675 
L 179.393747 123.383312 
L 178.276576 123.661575 
L 177.159405 123.935402 
L 176.042234 124.201387 
L 174.925063 124.456921 
L 173.807892 124.700265 
L 172.690722 124.930513 
L 171.573551 125.147497 
L 170.45638 125.351622 
L 169.339209 125.543679 
L 168.222038 125.724646 
L 167.104867 125.895527 
L 165.987696 126.057202 
L 164.870526 126.210343 
L 163.753355 126.355356 
L 162.636184 126.492364 
L 161.519013 126.621236 
L 160.401842 126.741635 
L 159.284671 126.853099 
L 158.1675 126.955141 
L 157.05033 127.047342 
L 155.933159 127.129454 
L 154.815988 127.201456 
L 153.698817 127.263593 
z
" style="fill:#1f77b4;fill-opacity:0.3;"/>
   </g>
   <g id="PolyCollection_7">
    <path clip-path="url(#p9cad4045fa)" d="M 104.728936 101.848733 
L 104.728936 102.267477 
L 107.07288 102.320166 
L 109.416824 102.379263 
L 111.760769 102.443583 
L 114.104713 102.511568 
L 116.448657 102.581552 
L 118.792601 102.652098 
L 121.136546 102.722318 
L 123.48049 102.792114 
L 125.824434 102.862281 
L 128.168378 102.934449 
L 130.512322 103.010903 
L 132.856267 103.094307 
L 135.200211 103.187387 
L 137.544155 103.292634 
L 139.888099 103.412086 
L 142.232044 103.547246 
L 144.575988 103.699193 
L 146.919932 103.868865 
L 149.263876 104.057453 
L 151.607821 104.266724 
L 153.951765 104.499104 
L 156.295709 104.757324 
L 158.639653 105.043592 
L 160.983597 105.358421 
L 163.327542 105.69941 
L 165.671486 106.06041 
L 168.01543 106.431448 
L 170.359374 106.799589 
L 172.703319 107.150624 
L 175.047263 107.471152 
L 177.391207 107.750501 
L 179.735151 107.98194 
L 182.079096 108.162909 
L 184.42304 108.294308 
L 186.766984 108.3792 
L 189.110928 108.421399 
L 191.454872 108.424421 
L 193.798817 108.391035 
L 196.142761 108.32348 
L 198.486705 108.224167 
L 200.830649 108.096574 
L 203.174594 107.94598 
L 205.518538 107.779738 
L 207.862482 107.606842 
L 210.206426 107.436807 
L 212.550371 107.278038 
L 214.894315 107.136137 
L 217.238259 107.012655 
L 219.582203 106.904712 
L 221.926147 106.805689 
L 224.270092 106.706802 
L 226.614036 106.599145 
L 228.95798 106.475639 
L 231.301924 106.332377 
L 233.645869 106.169124 
L 235.989813 105.988947 
L 238.333757 105.79719 
L 240.677701 105.600131 
L 243.021646 105.403645 
L 245.36559 105.212132 
L 247.709534 105.027893 
L 250.053478 104.851009 
L 252.397422 104.679683 
L 254.741367 104.510958 
L 257.085311 104.3416 
L 259.429255 104.168968 
L 261.773199 103.991657 
L 264.117144 103.809806 
L 266.461088 103.625039 
L 268.805032 103.440113 
L 271.148976 103.258421 
L 273.492921 103.083498 
L 275.836865 102.918643 
L 278.180809 102.766701 
L 280.524753 102.629963 
L 282.868698 102.510138 
L 285.212642 102.40832 
L 287.556586 102.324948 
L 289.90053 102.25975 
L 292.244474 102.211717 
L 294.588419 102.179136 
L 296.932363 102.159687 
L 299.276307 102.150617 
L 301.620251 102.148959 
L 303.964196 102.151775 
L 306.30814 102.156404 
L 308.652084 102.16068 
L 310.996028 102.163102 
L 313.339973 102.162914 
L 315.683917 102.160084 
L 318.027861 102.155164 
L 320.371805 102.149063 
L 322.715749 102.14277 
L 325.059694 102.137091 
L 327.403638 102.132459 
L 329.747582 102.128866 
L 332.091526 102.125926 
L 334.435471 102.123027 
L 336.779415 102.119549 
L 336.779415 101.996661 
L 336.779415 101.996661 
L 334.435471 101.993183 
L 332.091526 101.990285 
L 329.747582 101.987344 
L 327.403638 101.983752 
L 325.059694 101.979119 
L 322.715749 101.97344 
L 320.371805 101.967148 
L 318.027861 101.961047 
L 315.683917 101.956126 
L 313.339973 101.953296 
L 310.996028 101.953109 
L 308.652084 101.955531 
L 306.30814 101.959807 
L 303.964196 101.964435 
L 301.620251 101.967252 
L 299.276307 101.965594 
L 296.932363 101.956524 
L 294.588419 101.937075 
L 292.244474 101.904493 
L 289.90053 101.856461 
L 287.556586 101.791263 
L 285.212642 101.707891 
L 282.868698 101.606073 
L 280.524753 101.486247 
L 278.180809 101.34951 
L 275.836865 101.197568 
L 273.492921 101.032713 
L 271.148976 100.857789 
L 268.805032 100.676097 
L 266.461088 100.491172 
L 264.117144 100.306405 
L 261.773199 100.124554 
L 259.429255 99.947242 
L 257.085311 99.77461 
L 254.741367 99.605253 
L 252.397422 99.436527 
L 250.053478 99.265202 
L 247.709534 99.088317 
L 245.36559 98.904079 
L 243.021646 98.712565 
L 240.677701 98.516079 
L 238.333757 98.319021 
L 235.989813 98.127264 
L 233.645869 97.947086 
L 231.301924 97.783834 
L 228.95798 97.640572 
L 226.614036 97.517065 
L 224.270092 97.409409 
L 221.926147 97.310521 
L 219.582203 97.211498 
L 217.238259 97.103556 
L 214.894315 96.980073 
L 212.550371 96.838173 
L 210.206426 96.679404 
L 207.862482 96.509368 
L 205.518538 96.336473 
L 203.174594 96.17023 
L 200.830649 96.019637 
L 198.486705 95.892043 
L 196.142761 95.792731 
L 193.798817 95.725176 
L 191.454872 95.691789 
L 189.110928 95.694811 
L 186.766984 95.737011 
L 184.42304 95.821902 
L 182.079096 95.953302 
L 179.735151 96.13427 
L 177.391207 96.365709 
L 175.047263 96.645058 
L 172.703319 96.965587 
L 170.359374 97.316621 
L 168.01543 97.684763 
L 165.671486 98.0558 
L 163.327542 98.4168 
L 160.983597 98.757789 
L 158.639653 99.072619 
L 156.295709 99.358887 
L 153.951765 99.617106 
L 151.607821 99.849486 
L 149.263876 100.058758 
L 146.919932 100.247345 
L 144.575988 100.417018 
L 142.232044 100.568964 
L 139.888099 100.704124 
L 137.544155 100.823576 
L 135.200211 100.928824 
L 132.856267 101.021904 
L 130.512322 101.105308 
L 128.168378 101.181762 
L 125.824434 101.25393 
L 123.48049 101.324096 
L 121.136546 101.393893 
L 118.792601 101.464112 
L 116.448657 101.534658 
L 114.104713 101.604643 
L 111.760769 101.672628 
L 109.416824 101.736948 
L 107.07288 101.796045 
L 104.728936 101.848733 
z
" style="fill:#1f77b4;fill-opacity:0.3;"/>
   </g>
   <g id="PolyCollection_8">
    <path clip-path="url(#p9cad4045fa)" d="M 87.379202 76.45677 
L 87.379202 76.728914 
L 88.770036 76.741851 
L 90.16087 76.756189 
L 91.551704 76.773516 
L 92.942538 76.795636 
L 94.333372 76.824314 
L 95.724206 76.861 
L 97.11504 76.9066 
L 98.505874 76.961327 
L 99.896708 77.024664 
L 101.287542 77.095459 
L 102.678376 77.17213 
L 104.06921 77.252953 
L 105.460044 77.336385 
L 106.850878 77.421388 
L 108.241712 77.507703 
L 109.632546 77.596023 
L 111.02338 77.688064 
L 112.414214 77.786491 
L 113.805048 77.894712 
L 115.195882 78.016566 
L 116.586716 78.155928 
L 117.97755 78.31631 
L 119.368384 78.500512 
L 120.759218 78.710371 
L 122.150052 78.946647 
L 123.540886 79.209011 
L 124.93172 79.496096 
L 126.322554 79.805532 
L 127.713388 80.133907 
L 129.104222 80.47665 
L 130.495056 80.827859 
L 131.88589 81.180191 
L 133.276724 81.524915 
L 134.667558 81.852231 
L 136.058392 82.151891 
L 137.449226 82.41406 
L 138.84006 82.630299 
L 140.230894 82.794475 
L 141.621728 82.903424 
L 143.012562 82.957241 
L 144.403396 82.959158 
L 145.79423 82.915059 
L 147.185064 82.832778 
L 148.575898 82.721322 
L 149.966732 82.590161 
L 151.357566 82.448666 
L 152.7484 82.305687 
L 154.139234 82.169244 
L 155.530068 82.046228 
L 156.920902 81.942082 
L 158.311736 81.860446 
L 159.70257 81.802796 
L 161.093404 81.768185 
L 162.484238 81.753167 
L 163.875072 81.751982 
L 165.265906 81.757033 
L 166.65674 81.759628 
L 168.047574 81.750897 
L 169.438408 81.722754 
L 170.829242 81.668761 
L 172.220076 81.584741 
L 173.61091 81.469042 
L 175.001744 81.322424 
L 176.392578 81.147611 
L 177.783412 80.948656 
L 179.174246 80.730268 
L 180.56508 80.497284 
L 181.955914 80.254384 
L 183.346748 80.006061 
L 184.737582 79.75675 
L 186.128416 79.511 
L 187.51925 79.27351 
L 188.910084 79.048976 
L 190.300918 78.841708 
L 191.691752 78.65514 
L 193.082586 78.491333 
L 194.47342 78.350645 
L 195.864254 78.231639 
L 197.255088 78.131288 
L 198.645922 78.045411 
L 200.036756 77.969267 
L 201.42759 77.898185 
L 202.818424 77.828112 
L 204.209258 77.756025 
L 205.600092 77.680144 
L 206.990926 77.599957 
L 208.38176 77.516081 
L 209.772594 77.430006 
L 211.163428 77.343762 
L 212.554262 77.259574 
L 213.945096 77.179539 
L 215.33593 77.105367 
L 216.726764 77.038202 
L 218.117598 76.978553 
L 219.508432 76.926317 
L 220.899266 76.880896 
L 222.2901 76.84137 
L 223.680934 76.806695 
L 225.071768 76.775888 
L 225.071768 76.409796 
L 225.071768 76.409796 
L 223.680934 76.378989 
L 222.2901 76.344314 
L 220.899266 76.304788 
L 219.508432 76.259367 
L 218.117598 76.207131 
L 216.726764 76.147482 
L 215.33593 76.080317 
L 213.945096 76.006145 
L 212.554262 75.926111 
L 211.163428 75.841922 
L 209.772594 75.755678 
L 208.38176 75.669603 
L 206.990926 75.585728 
L 205.600092 75.50554 
L 204.209258 75.429659 
L 202.818424 75.357572 
L 201.42759 75.287499 
L 200.036756 75.216417 
L 198.645922 75.140274 
L 197.255088 75.054396 
L 195.864254 74.954045 
L 194.47342 74.835039 
L 193.082586 74.694351 
L 191.691752 74.530545 
L 190.300918 74.343976 
L 188.910084 74.136709 
L 187.51925 73.912174 
L 186.128416 73.674685 
L 184.737582 73.428934 
L 183.346748 73.179624 
L 181.955914 72.9313 
L 180.56508 72.6884 
L 179.174246 72.455416 
L 177.783412 72.237028 
L 176.392578 72.038073 
L 175.001744 71.86326 
L 173.61091 71.716642 
L 172.220076 71.600943 
L 170.829242 71.516923 
L 169.438408 71.462931 
L 168.047574 71.434788 
L 166.65674 71.426056 
L 165.265906 71.428651 
L 163.875072 71.433702 
L 162.484238 71.432517 
L 161.093404 71.417499 
L 159.70257 71.382888 
L 158.311736 71.325238 
L 156.920902 71.243602 
L 155.530068 71.139457 
L 154.139234 71.01644 
L 152.7484 70.879997 
L 151.357566 70.737019 
L 149.966732 70.595523 
L 148.575898 70.464363 
L 147.185064 70.352906 
L 145.79423 70.270625 
L 144.403396 70.226526 
L 143.012562 70.228443 
L 141.621728 70.28226 
L 140.230894 70.391209 
L 138.84006 70.555385 
L 137.449226 70.771624 
L 136.058392 71.033793 
L 134.667558 71.333453 
L 133.276724 71.660769 
L 131.88589 72.005493 
L 130.495056 72.357825 
L 129.104222 72.709034 
L 127.713388 73.051777 
L 126.322554 73.380153 
L 124.93172 73.689588 
L 123.540886 73.976673 
L 122.150052 74.239037 
L 120.759218 74.475313 
L 119.368384 74.685172 
L 117.97755 74.869374 
L 116.586716 75.029757 
L 115.195882 75.169118 
L 113.805048 75.290972 
L 112.414214 75.399194 
L 111.02338 75.49762 
L 109.632546 75.589661 
L 108.241712 75.677981 
L 106.850878 75.764296 
L 105.460044 75.8493 
L 104.06921 75.932731 
L 102.678376 76.013554 
L 101.287542 76.090225 
L 99.896708 76.161021 
L 98.505874 76.224357 
L 97.11504 76.279084 
L 95.724206 76.324684 
L 94.333372 76.36137 
L 92.942538 76.390048 
L 91.551704 76.412168 
L 90.16087 76.429495 
L 88.770036 76.443833 
L 87.379202 76.45677 
z
" style="fill:#1f77b4;fill-opacity:0.3;"/>
   </g>
   <g id="PolyCollection_9">
    <path clip-path="url(#p9cad4045fa)" d="M -45.825092 50.993733 
L -45.825092 51.261424 
L -43.050778 51.277392 
L -40.276464 51.295301 
L -37.50215 51.317552 
L -34.727836 51.347318 
L -31.953522 51.388266 
L -29.179208 51.44412 
L -26.404895 51.518131 
L -23.630581 51.612536 
L -20.856267 51.728107 
L -18.081953 51.863909 
L -15.307639 52.017341 
L -12.533325 52.184493 
L -9.759011 52.360762 
L -6.984697 52.541626 
L -4.210383 52.723407 
L -1.436069 52.903879 
L 1.338245 53.082618 
L 4.112558 53.261061 
L 6.886872 53.442293 
L 9.661186 53.630614 
L 12.4355 53.830941 
L 15.209814 54.048098 
L 17.984128 54.286027 
L 20.758442 54.547005 
L 23.532756 54.830965 
L 26.30707 55.135079 
L 29.081384 55.453694 
L 31.855698 55.77871 
L 34.630011 56.100317 
L 37.404325 56.407961 
L 40.178639 56.69132 
L 42.952953 56.941134 
L 45.727267 57.149775 
L 48.501581 57.311607 
L 51.275895 57.423192 
L 54.050209 57.483467 
L 56.824523 57.493895 
L 59.598837 57.458535 
L 62.373151 57.383913 
L 65.147464 57.27855 
L 67.921778 57.152116 
L 70.696092 57.014291 
L 73.470406 56.873529 
L 76.24472 56.736003 
L 79.019034 56.604974 
L 81.793348 56.480711 
L 84.567662 56.360959 
L 87.341976 56.241775 
L 90.11629 56.118512 
L 92.890603 55.986695 
L 95.664917 55.842673 
L 98.439231 55.68398 
L 101.213545 55.509474 
L 103.987859 55.319317 
L 106.762173 55.11487 
L 109.536487 54.898534 
L 112.310801 54.673522 
L 115.085115 54.443566 
L 117.859429 54.212589 
L 120.633743 53.984375 
L 123.408056 53.7623 
L 126.18237 53.549151 
L 128.956684 53.347046 
L 131.730998 53.157426 
L 134.505312 52.981101 
L 137.279626 52.818314 
L 140.05394 52.668836 
L 142.828254 52.532092 
L 145.602568 52.40732 
L 148.376882 52.293748 
L 151.151196 52.190754 
L 153.925509 52.097973 
L 156.699823 52.015293 
L 159.474137 51.942766 
L 162.248451 51.880422 
L 165.022765 51.828066 
L 167.797079 51.785095 
L 170.571393 51.750403 
L 173.345707 51.72239 
L 176.120021 51.699072 
L 178.894335 51.678278 
L 181.668649 51.657883 
L 184.442962 51.636038 
L 187.217276 51.611362 
L 189.99159 51.583071 
L 192.765904 51.551025 
L 195.540218 51.515689 
L 198.314532 51.47803 
L 201.088846 51.439351 
L 203.86316 51.401109 
L 206.637474 51.364716 
L 209.411788 51.331367 
L 212.186101 51.301906 
L 214.960415 51.276749 
L 217.734729 51.255865 
L 220.509043 51.238831 
L 223.283357 51.224935 
L 226.057671 51.21333 
L 228.831985 51.203191 
L 228.831985 51.051967 
L 228.831985 51.051967 
L 226.057671 51.041828 
L 223.283357 51.030223 
L 220.509043 51.016327 
L 217.734729 50.999292 
L 214.960415 50.978409 
L 212.186101 50.953252 
L 209.411788 50.923791 
L 206.637474 50.890442 
L 203.86316 50.854049 
L 201.088846 50.815807 
L 198.314532 50.777128 
L 195.540218 50.739468 
L 192.765904 50.704133 
L 189.99159 50.672086 
L 187.217276 50.643796 
L 184.442962 50.61912 
L 181.668649 50.597275 
L 178.894335 50.57688 
L 176.120021 50.556086 
L 173.345707 50.532768 
L 170.571393 50.504755 
L 167.797079 50.470063 
L 165.022765 50.427092 
L 162.248451 50.374736 
L 159.474137 50.312392 
L 156.699823 50.239865 
L 153.925509 50.157185 
L 151.151196 50.064403 
L 148.376882 49.96141 
L 145.602568 49.847838 
L 142.828254 49.723066 
L 140.05394 49.586322 
L 137.279626 49.436844 
L 134.505312 49.274057 
L 131.730998 49.097731 
L 128.956684 48.908112 
L 126.18237 48.706007 
L 123.408056 48.492858 
L 120.633743 48.270783 
L 117.859429 48.042569 
L 115.085115 47.811592 
L 112.310801 47.581636 
L 109.536487 47.356624 
L 106.762173 47.140288 
L 103.987859 46.935841 
L 101.213545 46.745683 
L 98.439231 46.571178 
L 95.664917 46.412485 
L 92.890603 46.268463 
L 90.11629 46.136646 
L 87.341976 46.013382 
L 84.567662 45.894199 
L 81.793348 45.774447 
L 79.019034 45.650184 
L 76.24472 45.519154 
L 73.470406 45.381629 
L 70.696092 45.240867 
L 67.921778 45.103042 
L 65.147464 44.976608 
L 62.373151 44.871245 
L 59.598837 44.796623 
L 56.824523 44.761263 
L 54.050209 44.771691 
L 51.275895 44.831966 
L 48.501581 44.943551 
L 45.727267 45.105383 
L 42.952953 45.314024 
L 40.178639 45.563838 
L 37.404325 45.847197 
L 34.630011 46.154841 
L 31.855698 46.476448 
L 29.081384 46.801464 
L 26.30707 47.120079 
L 23.532756 47.424192 
L 20.758442 47.708153 
L 17.984128 47.96913 
L 15.209814 48.20706 
L 12.4355 48.424217 
L 9.661186 48.624544 
L 6.886872 48.812865 
L 4.112558 48.994097 
L 1.338245 49.17254 
L -1.436069 49.351279 
L -4.210383 49.531751 
L -6.984697 49.713532 
L -9.759011 49.894396 
L -12.533325 50.070665 
L -15.307639 50.237816 
L -18.081953 50.391249 
L -20.856267 50.527051 
L -23.630581 50.642622 
L -26.404895 50.737027 
L -29.179208 50.811038 
L -31.953522 50.866892 
L -34.727836 50.90784 
L -37.50215 50.937606 
L -40.276464 50.959857 
L -43.050778 50.977766 
L -45.825092 50.993733 
z
" style="fill:#1f77b4;fill-opacity:0.3;"/>
   </g>
   <g id="PolyCollection_10">
    <path clip-path="url(#p9cad4045fa)" d="M 55.667452 25.598873 
L 55.667452 25.725758 
L 58.266199 25.731502 
L 60.864946 25.738495 
L 63.463693 25.747885 
L 66.06244 25.761036 
L 68.661186 25.779428 
L 71.259933 25.804528 
L 73.85868 25.837673 
L 76.457427 25.879967 
L 79.056174 25.932212 
L 81.654921 25.994874 
L 84.253668 26.068073 
L 86.852414 26.151581 
L 89.451161 26.244824 
L 92.049908 26.346869 
L 94.648655 26.456411 
L 97.247402 26.571764 
L 99.846149 26.690898 
L 102.444896 26.811532 
L 105.043642 26.931295 
L 107.642389 27.047961 
L 110.241136 27.159696 
L 112.839883 27.265296 
L 115.43863 27.364345 
L 118.037377 27.457269 
L 120.636124 27.545268 
L 123.23487 27.630179 
L 125.833617 27.714288 
L 128.432364 27.80017 
L 131.031111 27.89058 
L 133.629858 27.988394 
L 136.228605 28.096561 
L 138.827351 28.218019 
L 141.426098 28.35552 
L 144.024845 28.511329 
L 146.623592 28.686856 
L 149.222339 28.882261 
L 151.821086 29.096159 
L 154.419833 29.32552 
L 157.018579 29.565817 
L 159.617326 29.811445 
L 162.216073 30.056337 
L 164.81482 30.294666 
L 167.413567 30.521495 
L 170.012314 30.733252 
L 172.611061 30.927942 
L 175.209807 31.105076 
L 177.808554 31.265332 
L 180.407301 31.410057 
L 183.006048 31.540687 
L 185.604795 31.658203 
L 188.203542 31.762732 
L 190.802289 31.853343 
L 193.401035 31.928086 
L 195.999782 31.984239 
L 198.598529 32.018734 
L 201.197276 32.028632 
L 203.796023 32.011564 
L 206.39477 31.966039 
L 208.993517 31.891545 
L 211.592263 31.788487 
L 214.19101 31.657973 
L 216.789757 31.501579 
L 219.388504 31.321161 
L 221.987251 31.118788 
L 224.585998 30.896795 
L 227.184745 30.657926 
L 229.783491 30.405484 
L 232.382238 30.143411 
L 234.980985 29.876241 
L 237.579732 29.608903 
L 240.178479 29.346397 
L 242.777226 29.093396 
L 245.375972 28.853856 
L 247.974719 28.630692 
L 250.573466 28.425597 
L 253.172213 28.239008 
L 255.77096 28.070247 
L 258.369707 27.917782 
L 260.968454 27.779561 
L 263.5672 27.653363 
L 266.165947 27.53708 
L 268.764694 27.428913 
L 271.363441 27.327436 
L 273.962188 27.231568 
L 276.560935 27.140479 
L 279.159682 27.053473 
L 281.758428 26.969916 
L 284.357175 26.8892 
L 286.955922 26.810774 
L 289.554669 26.734191 
L 292.153416 26.659157 
L 294.752163 26.585541 
L 297.35091 26.513347 
L 299.949656 26.442646 
L 302.548403 26.373512 
L 305.14715 26.305981 
L 307.745897 26.240054 
L 310.344644 26.175759 
L 312.943391 26.113225 
L 312.943391 25.211406 
L 312.943391 25.211406 
L 310.344644 25.148873 
L 307.745897 25.084577 
L 305.14715 25.018651 
L 302.548403 24.951119 
L 299.949656 24.881985 
L 297.35091 24.811284 
L 294.752163 24.73909 
L 292.153416 24.665475 
L 289.554669 24.59044 
L 286.955922 24.513858 
L 284.357175 24.435432 
L 281.758428 24.354716 
L 279.159682 24.271159 
L 276.560935 24.184153 
L 273.962188 24.093063 
L 271.363441 23.997196 
L 268.764694 23.895719 
L 266.165947 23.787551 
L 263.5672 23.671269 
L 260.968454 23.54507 
L 258.369707 23.40685 
L 255.77096 23.254384 
L 253.172213 23.085623 
L 250.573466 22.899035 
L 247.974719 22.693939 
L 245.375972 22.470776 
L 242.777226 22.231235 
L 240.178479 21.978235 
L 237.579732 21.715728 
L 234.980985 21.448391 
L 232.382238 21.181221 
L 229.783491 20.919148 
L 227.184745 20.666706 
L 224.585998 20.427837 
L 221.987251 20.205844 
L 219.388504 20.003471 
L 216.789757 19.823053 
L 214.19101 19.666659 
L 211.592263 19.536144 
L 208.993517 19.433086 
L 206.39477 19.358593 
L 203.796023 19.313067 
L 201.197276 19.296 
L 198.598529 19.305898 
L 195.999782 19.340393 
L 193.401035 19.396546 
L 190.802289 19.471288 
L 188.203542 19.5619 
L 185.604795 19.666429 
L 183.006048 19.783945 
L 180.407301 19.914574 
L 177.808554 20.0593 
L 175.209807 20.219556 
L 172.611061 20.396689 
L 170.012314 20.59138 
L 167.413567 20.803137 
L 164.81482 21.029966 
L 162.216073 21.268294 
L 159.617326 21.513187 
L 157.018579 21.758815 
L 154.419833 21.999112 
L 151.821086 22.228472 
L 149.222339 22.442371 
L 146.623592 22.637775 
L 144.024845 22.813302 
L 141.426098 22.969112 
L 138.827351 23.106612 
L 136.228605 23.228071 
L 133.629858 23.336238 
L 131.031111 23.434051 
L 128.432364 23.524462 
L 125.833617 23.610344 
L 123.23487 23.694452 
L 120.636124 23.779363 
L 118.037377 23.867363 
L 115.43863 23.960286 
L 112.839883 24.059336 
L 110.241136 24.164936 
L 107.642389 24.276671 
L 105.043642 24.393336 
L 102.444896 24.5131 
L 99.846149 24.633733 
L 97.247402 24.752867 
L 94.648655 24.86822 
L 92.049908 24.977762 
L 89.451161 25.079808 
L 86.852414 25.173051 
L 84.253668 25.256559 
L 81.654921 25.329757 
L 79.056174 25.39242 
L 76.457427 25.444665 
L 73.85868 25.486958 
L 71.259933 25.520104 
L 68.661186 25.545204 
L 66.06244 25.563596 
L 63.463693 25.576747 
L 60.864946 25.586136 
L 58.266199 25.59313 
L 55.667452 25.598873 
z
" style="fill:#1f77b4;fill-opacity:0.3;"/>
   </g>
   <g id="matplotlib.axis_1">
    <g id="xtick_1">
     <g id="line2d_1">
      <defs>
       <path d="M 0 0 
L 0 3.5 
" id="m5d08d91fd0" style="stroke:#000000;stroke-width:0.8;"/>
      </defs>
      <g>
       <use style="stroke:#000000;stroke-width:0.8;" x="62.637" xlink:href="#m5d08d91fd0" y="273.312"/>
      </g>
     </g>
     <g id="text_1">
      <!-- 40 -->
      <g transform="translate(52.084656 287.910437)scale(0.1 -0.1)">
       <defs>
        <path d="M 10.59375 35.5 
L 73.1875 35.5 
L 73.1875 27.203125 
L 10.59375 27.203125 
z
" id="DejaVuSans-8722"/>
        <path d="M 37.796875 64.3125 
L 12.890625 25.390625 
L 37.796875 25.390625 
z
M 35.203125 72.90625 
L 47.609375 72.90625 
L 47.609375 25.390625 
L 58.015625 25.390625 
L 58.015625 17.1875 
L 47.609375 17.1875 
L 47.609375 0 
L 37.796875 0 
L 37.796875 17.1875 
L 4.890625 17.1875 
L 4.890625 26.703125 
z
" id="DejaVuSans-52"/>
        <path d="M 31.78125 66.40625 
Q 24.171875 66.40625 20.328125 58.90625 
Q 16.5 51.421875 16.5 36.375 
Q 16.5 21.390625 20.328125 13.890625 
Q 24.171875 6.390625 31.78125 6.390625 
Q 39.453125 6.390625 43.28125 13.890625 
Q 47.125 21.390625 47.125 36.375 
Q 47.125 51.421875 43.28125 58.90625 
Q 39.453125 66.40625 31.78125 66.40625 
z
M 31.78125 74.21875 
Q 44.046875 74.21875 50.515625 64.515625 
Q 56.984375 54.828125 56.984375 36.375 
Q 56.984375 17.96875 50.515625 8.265625 
Q 44.046875 -1.421875 31.78125 -1.421875 
Q 19.53125 -1.421875 13.0625 8.265625 
Q 6.59375 17.96875 6.59375 36.375 
Q 6.59375 54.828125 13.0625 64.515625 
Q 19.53125 74.21875 31.78125 74.21875 
z
" id="DejaVuSans-48"/>
       </defs>
       <use xlink:href="#DejaVuSans-8722"/>
       <use x="83.789062" xlink:href="#DejaVuSans-52"/>
       <use x="147.412109" xlink:href="#DejaVuSans-48"/>
      </g>
     </g>
    </g>
    <g id="xtick_2">
     <g id="line2d_2">
      <g>
       <use style="stroke:#000000;stroke-width:0.8;" x="134.061" xlink:href="#m5d08d91fd0" y="273.312"/>
      </g>
     </g>
     <g id="text_2">
      <!-- 20 -->
      <g transform="translate(123.508656 287.910437)scale(0.1 -0.1)">
       <defs>
        <path d="M 19.1875 8.296875 
L 53.609375 8.296875 
L 53.609375 0 
L 7.328125 0 
L 7.328125 8.296875 
Q 12.9375 14.109375 22.625 23.890625 
Q 32.328125 33.6875 34.8125 36.53125 
Q 39.546875 41.84375 41.421875 45.53125 
Q 43.3125 49.21875 43.3125 52.78125 
Q 43.3125 58.59375 39.234375 62.25 
Q 35.15625 65.921875 28.609375 65.921875 
Q 23.96875 65.921875 18.8125 64.3125 
Q 13.671875 62.703125 7.8125 59.421875 
L 7.8125 69.390625 
Q 13.765625 71.78125 18.9375 73 
Q 24.125 74.21875 28.421875 74.21875 
Q 39.75 74.21875 46.484375 68.546875 
Q 53.21875 62.890625 53.21875 53.421875 
Q 53.21875 48.921875 51.53125 44.890625 
Q 49.859375 40.875 45.40625 35.40625 
Q 44.1875 33.984375 37.640625 27.21875 
Q 31.109375 20.453125 19.1875 8.296875 
z
" id="DejaVuSans-50"/>
       </defs>
       <use xlink:href="#DejaVuSans-8722"/>
       <use x="83.789062" xlink:href="#DejaVuSans-50"/>
       <use x="147.412109" xlink:href="#DejaVuSans-48"/>
      </g>
     </g>
    </g>
    <g id="xtick_3">
     <g id="line2d_3">
      <g>
       <use style="stroke:#000000;stroke-width:0.8;" x="205.485" xlink:href="#m5d08d91fd0" y="273.312"/>
      </g>
     </g>
     <g id="text_3">
      <!-- 0 -->
      <g transform="translate(202.30375 287.910437)scale(0.1 -0.1)">
       <use xlink:href="#DejaVuSans-48"/>
      </g>
     </g>
    </g>
    <g id="xtick_4">
     <g id="line2d_4">
      <g>
       <use style="stroke:#000000;stroke-width:0.8;" x="276.909" xlink:href="#m5d08d91fd0" y="273.312"/>
      </g>
     </g>
     <g id="text_4">
      <!-- 20 -->
      <g transform="translate(270.5465 287.910437)scale(0.1 -0.1)">
       <use xlink:href="#DejaVuSans-50"/>
       <use x="63.623047" xlink:href="#DejaVuSans-48"/>
      </g>
     </g>
    </g>
    <g id="xtick_5">
     <g id="line2d_5">
      <g>
       <use style="stroke:#000000;stroke-width:0.8;" x="348.333" xlink:href="#m5d08d91fd0" y="273.312"/>
      </g>
     </g>
     <g id="text_5">
      <!-- 40 -->
      <g transform="translate(341.9705 287.910437)scale(0.1 -0.1)">
       <use xlink:href="#DejaVuSans-52"/>
       <use x="63.623047" xlink:href="#DejaVuSans-48"/>
      </g>
     </g>
    </g>
    <g id="text_6">
     <!-- Velocity [km/s] -->
     <g transform="translate(168.324063 301.588562)scale(0.1 -0.1)">
      <defs>
       <path d="M 28.609375 0 
L 0.78125 72.90625 
L 11.078125 72.90625 
L 34.1875 11.53125 
L 57.328125 72.90625 
L 67.578125 72.90625 
L 39.796875 0 
z
" id="DejaVuSans-86"/>
       <path d="M 56.203125 29.59375 
L 56.203125 25.203125 
L 14.890625 25.203125 
Q 15.484375 15.921875 20.484375 11.0625 
Q 25.484375 6.203125 34.421875 6.203125 
Q 39.59375 6.203125 44.453125 7.46875 
Q 49.3125 8.734375 54.109375 11.28125 
L 54.109375 2.78125 
Q 49.265625 0.734375 44.1875 -0.34375 
Q 39.109375 -1.421875 33.890625 -1.421875 
Q 20.796875 -1.421875 13.15625 6.1875 
Q 5.515625 13.8125 5.515625 26.8125 
Q 5.515625 40.234375 12.765625 48.109375 
Q 20.015625 56 32.328125 56 
Q 43.359375 56 49.78125 48.890625 
Q 56.203125 41.796875 56.203125 29.59375 
z
M 47.21875 32.234375 
Q 47.125 39.59375 43.09375 43.984375 
Q 39.0625 48.390625 32.421875 48.390625 
Q 24.90625 48.390625 20.390625 44.140625 
Q 15.875 39.890625 15.1875 32.171875 
z
" id="DejaVuSans-101"/>
       <path d="M 9.421875 75.984375 
L 18.40625 75.984375 
L 18.40625 0 
L 9.421875 0 
z
" id="DejaVuSans-108"/>
       <path d="M 30.609375 48.390625 
Q 23.390625 48.390625 19.1875 42.75 
Q 14.984375 37.109375 14.984375 27.296875 
Q 14.984375 17.484375 19.15625 11.84375 
Q 23.34375 6.203125 30.609375 6.203125 
Q 37.796875 6.203125 41.984375 11.859375 
Q 46.1875 17.53125 46.1875 27.296875 
Q 46.1875 37.015625 41.984375 42.703125 
Q 37.796875 48.390625 30.609375 48.390625 
z
M 30.609375 56 
Q 42.328125 56 49.015625 48.375 
Q 55.71875 40.765625 55.71875 27.296875 
Q 55.71875 13.875 49.015625 6.21875 
Q 42.328125 -1.421875 30.609375 -1.421875 
Q 18.84375 -1.421875 12.171875 6.21875 
Q 5.515625 13.875 5.515625 27.296875 
Q 5.515625 40.765625 12.171875 48.375 
Q 18.84375 56 30.609375 56 
z
" id="DejaVuSans-111"/>
       <path d="M 48.78125 52.59375 
L 48.78125 44.1875 
Q 44.96875 46.296875 41.140625 47.34375 
Q 37.3125 48.390625 33.40625 48.390625 
Q 24.65625 48.390625 19.8125 42.84375 
Q 14.984375 37.3125 14.984375 27.296875 
Q 14.984375 17.28125 19.8125 11.734375 
Q 24.65625 6.203125 33.40625 6.203125 
Q 37.3125 6.203125 41.140625 7.25 
Q 44.96875 8.296875 48.78125 10.40625 
L 48.78125 2.09375 
Q 45.015625 0.34375 40.984375 -0.53125 
Q 36.96875 -1.421875 32.421875 -1.421875 
Q 20.0625 -1.421875 12.78125 6.34375 
Q 5.515625 14.109375 5.515625 27.296875 
Q 5.515625 40.671875 12.859375 48.328125 
Q 20.21875 56 33.015625 56 
Q 37.15625 56 41.109375 55.140625 
Q 45.0625 54.296875 48.78125 52.59375 
z
" id="DejaVuSans-99"/>
       <path d="M 9.421875 54.6875 
L 18.40625 54.6875 
L 18.40625 0 
L 9.421875 0 
z
M 9.421875 75.984375 
L 18.40625 75.984375 
L 18.40625 64.59375 
L 9.421875 64.59375 
z
" id="DejaVuSans-105"/>
       <path d="M 18.3125 70.21875 
L 18.3125 54.6875 
L 36.8125 54.6875 
L 36.8125 47.703125 
L 18.3125 47.703125 
L 18.3125 18.015625 
Q 18.3125 11.328125 20.140625 9.421875 
Q 21.96875 7.515625 27.59375 7.515625 
L 36.8125 7.515625 
L 36.8125 0 
L 27.59375 0 
Q 17.1875 0 13.234375 3.875 
Q 9.28125 7.765625 9.28125 18.015625 
L 9.28125 47.703125 
L 2.6875 47.703125 
L 2.6875 54.6875 
L 9.28125 54.6875 
L 9.28125 70.21875 
z
" id="DejaVuSans-116"/>
       <path d="M 32.171875 -5.078125 
Q 28.375 -14.84375 24.75 -17.8125 
Q 21.140625 -20.796875 15.09375 -20.796875 
L 7.90625 -20.796875 
L 7.90625 -13.28125 
L 13.1875 -13.28125 
Q 16.890625 -13.28125 18.9375 -11.515625 
Q 21 -9.765625 23.484375 -3.21875 
L 25.09375 0.875 
L 2.984375 54.6875 
L 12.5 54.6875 
L 29.59375 11.921875 
L 46.6875 54.6875 
L 56.203125 54.6875 
z
" id="DejaVuSans-121"/>
       <path id="DejaVuSans-32"/>
       <path d="M 8.59375 75.984375 
L 29.296875 75.984375 
L 29.296875 69 
L 17.578125 69 
L 17.578125 -6.203125 
L 29.296875 -6.203125 
L 29.296875 -13.1875 
L 8.59375 -13.1875 
z
" id="DejaVuSans-91"/>
       <path d="M 9.078125 75.984375 
L 18.109375 75.984375 
L 18.109375 31.109375 
L 44.921875 54.6875 
L 56.390625 54.6875 
L 27.390625 29.109375 
L 57.625 0 
L 45.90625 0 
L 18.109375 26.703125 
L 18.109375 0 
L 9.078125 0 
z
" id="DejaVuSans-107"/>
       <path d="M 52 44.1875 
Q 55.375 50.25 60.0625 53.125 
Q 64.75 56 71.09375 56 
Q 79.640625 56 84.28125 50.015625 
Q 88.921875 44.046875 88.921875 33.015625 
L 88.921875 0 
L 79.890625 0 
L 79.890625 32.71875 
Q 79.890625 40.578125 77.09375 44.375 
Q 74.3125 48.1875 68.609375 48.1875 
Q 61.625 48.1875 57.5625 43.546875 
Q 53.515625 38.921875 53.515625 30.90625 
L 53.515625 0 
L 44.484375 0 
L 44.484375 32.71875 
Q 44.484375 40.625 41.703125 44.40625 
Q 38.921875 48.1875 33.109375 48.1875 
Q 26.21875 48.1875 22.15625 43.53125 
Q 18.109375 38.875 18.109375 30.90625 
L 18.109375 0 
L 9.078125 0 
L 9.078125 54.6875 
L 18.109375 54.6875 
L 18.109375 46.1875 
Q 21.1875 51.21875 25.484375 53.609375 
Q 29.78125 56 35.6875 56 
Q 41.65625 56 45.828125 52.96875 
Q 50 49.953125 52 44.1875 
z
" id="DejaVuSans-109"/>
       <path d="M 25.390625 72.90625 
L 33.6875 72.90625 
L 8.296875 -9.28125 
L 0 -9.28125 
z
" id="DejaVuSans-47"/>
       <path d="M 44.28125 53.078125 
L 44.28125 44.578125 
Q 40.484375 46.53125 36.375 47.5 
Q 32.28125 48.484375 27.875 48.484375 
Q 21.1875 48.484375 17.84375 46.4375 
Q 14.5 44.390625 14.5 40.28125 
Q 14.5 37.15625 16.890625 35.375 
Q 19.28125 33.59375 26.515625 31.984375 
L 29.59375 31.296875 
Q 39.15625 29.25 43.1875 25.515625 
Q 47.21875 21.78125 47.21875 15.09375 
Q 47.21875 7.46875 41.1875 3.015625 
Q 35.15625 -1.421875 24.609375 -1.421875 
Q 20.21875 -1.421875 15.453125 -0.5625 
Q 10.6875 0.296875 5.421875 2 
L 5.421875 11.28125 
Q 10.40625 8.6875 15.234375 7.390625 
Q 20.0625 6.109375 24.8125 6.109375 
Q 31.15625 6.109375 34.5625 8.28125 
Q 37.984375 10.453125 37.984375 14.40625 
Q 37.984375 18.0625 35.515625 20.015625 
Q 33.0625 21.96875 24.703125 23.78125 
L 21.578125 24.515625 
Q 13.234375 26.265625 9.515625 29.90625 
Q 5.8125 33.546875 5.8125 39.890625 
Q 5.8125 47.609375 11.28125 51.796875 
Q 16.75 56 26.8125 56 
Q 31.78125 56 36.171875 55.265625 
Q 40.578125 54.546875 44.28125 53.078125 
z
" id="DejaVuSans-115"/>
       <path d="M 30.421875 75.984375 
L 30.421875 -13.1875 
L 9.71875 -13.1875 
L 9.71875 -6.203125 
L 21.390625 -6.203125 
L 21.390625 69 
L 9.71875 69 
L 9.71875 75.984375 
z
" id="DejaVuSans-93"/>
      </defs>
      <use xlink:href="#DejaVuSans-86"/>
      <use x="60.658203" xlink:href="#DejaVuSans-101"/>
      <use x="122.181641" xlink:href="#DejaVuSans-108"/>
      <use x="149.964844" xlink:href="#DejaVuSans-111"/>
      <use x="211.146484" xlink:href="#DejaVuSans-99"/>
      <use x="266.126953" xlink:href="#DejaVuSans-105"/>
      <use x="293.910156" xlink:href="#DejaVuSans-116"/>
      <use x="333.119141" xlink:href="#DejaVuSans-121"/>
      <use x="392.298828" xlink:href="#DejaVuSans-32"/>
      <use x="424.085938" xlink:href="#DejaVuSans-91"/>
      <use x="463.099609" xlink:href="#DejaVuSans-107"/>
      <use x="521.009766" xlink:href="#DejaVuSans-109"/>
      <use x="618.421875" xlink:href="#DejaVuSans-47"/>
      <use x="652.113281" xlink:href="#DejaVuSans-115"/>
      <use x="704.212891" xlink:href="#DejaVuSans-93"/>
     </g>
    </g>
   </g>
   <g id="matplotlib.axis_2">
    <g id="ytick_1">
     <g id="line2d_6">
      <defs>
       <path d="M 0 0 
L -3.5 0 
" id="m322629f1aa" style="stroke:#000000;stroke-width:0.8;"/>
      </defs>
      <g>
       <use style="stroke:#000000;stroke-width:0.8;" x="26.925" xlink:href="#m322629f1aa" y="229.384421"/>
      </g>
     </g>
     <g id="text_7">
      <!-- 2 -->
      <g transform="translate(13.5625 233.18364)scale(0.1 -0.1)">
       <use xlink:href="#DejaVuSans-50"/>
      </g>
     </g>
    </g>
    <g id="ytick_2">
     <g id="line2d_7">
      <g>
       <use style="stroke:#000000;stroke-width:0.8;" x="26.925" xlink:href="#m322629f1aa" y="178.453895"/>
      </g>
     </g>
     <g id="text_8">
      <!-- 4 -->
      <g transform="translate(13.5625 182.253113)scale(0.1 -0.1)">
       <use xlink:href="#DejaVuSans-52"/>
      </g>
     </g>
    </g>
    <g id="ytick_3">
     <g id="line2d_8">
      <g>
       <use style="stroke:#000000;stroke-width:0.8;" x="26.925" xlink:href="#m322629f1aa" y="127.523368"/>
      </g>
     </g>
     <g id="text_9">
      <!-- 6 -->
      <g transform="translate(13.5625 131.322587)scale(0.1 -0.1)">
       <defs>
        <path d="M 33.015625 40.375 
Q 26.375 40.375 22.484375 35.828125 
Q 18.609375 31.296875 18.609375 23.390625 
Q 18.609375 15.53125 22.484375 10.953125 
Q 26.375 6.390625 33.015625 6.390625 
Q 39.65625 6.390625 43.53125 10.953125 
Q 47.40625 15.53125 47.40625 23.390625 
Q 47.40625 31.296875 43.53125 35.828125 
Q 39.65625 40.375 33.015625 40.375 
z
M 52.59375 71.296875 
L 52.59375 62.3125 
Q 48.875 64.0625 45.09375 64.984375 
Q 41.3125 65.921875 37.59375 65.921875 
Q 27.828125 65.921875 22.671875 59.328125 
Q 17.53125 52.734375 16.796875 39.40625 
Q 19.671875 43.65625 24.015625 45.921875 
Q 28.375 48.1875 33.59375 48.1875 
Q 44.578125 48.1875 50.953125 41.515625 
Q 57.328125 34.859375 57.328125 23.390625 
Q 57.328125 12.15625 50.6875 5.359375 
Q 44.046875 -1.421875 33.015625 -1.421875 
Q 20.359375 -1.421875 13.671875 8.265625 
Q 6.984375 17.96875 6.984375 36.375 
Q 6.984375 53.65625 15.1875 63.9375 
Q 23.390625 74.21875 37.203125 74.21875 
Q 40.921875 74.21875 44.703125 73.484375 
Q 48.484375 72.75 52.59375 71.296875 
z
" id="DejaVuSans-54"/>
       </defs>
       <use xlink:href="#DejaVuSans-54"/>
      </g>
     </g>
    </g>
    <g id="ytick_4">
     <g id="line2d_9">
      <g>
       <use style="stroke:#000000;stroke-width:0.8;" x="26.925" xlink:href="#m322629f1aa" y="76.592842"/>
      </g>
     </g>
     <g id="text_10">
      <!-- 8 -->
      <g transform="translate(13.5625 80.392061)scale(0.1 -0.1)">
       <defs>
        <path d="M 31.78125 34.625 
Q 24.75 34.625 20.71875 30.859375 
Q 16.703125 27.09375 16.703125 20.515625 
Q 16.703125 13.921875 20.71875 10.15625 
Q 24.75 6.390625 31.78125 6.390625 
Q 38.8125 6.390625 42.859375 10.171875 
Q 46.921875 13.96875 46.921875 20.515625 
Q 46.921875 27.09375 42.890625 30.859375 
Q 38.875 34.625 31.78125 34.625 
z
M 21.921875 38.8125 
Q 15.578125 40.375 12.03125 44.71875 
Q 8.5 49.078125 8.5 55.328125 
Q 8.5 64.0625 14.71875 69.140625 
Q 20.953125 74.21875 31.78125 74.21875 
Q 42.671875 74.21875 48.875 69.140625 
Q 55.078125 64.0625 55.078125 55.328125 
Q 55.078125 49.078125 51.53125 44.71875 
Q 48 40.375 41.703125 38.8125 
Q 48.828125 37.15625 52.796875 32.3125 
Q 56.78125 27.484375 56.78125 20.515625 
Q 56.78125 9.90625 50.3125 4.234375 
Q 43.84375 -1.421875 31.78125 -1.421875 
Q 19.734375 -1.421875 13.25 4.234375 
Q 6.78125 9.90625 6.78125 20.515625 
Q 6.78125 27.484375 10.78125 32.3125 
Q 14.796875 37.15625 21.921875 38.8125 
z
M 18.3125 54.390625 
Q 18.3125 48.734375 21.84375 45.5625 
Q 25.390625 42.390625 31.78125 42.390625 
Q 38.140625 42.390625 41.71875 45.5625 
Q 45.3125 48.734375 45.3125 54.390625 
Q 45.3125 60.0625 41.71875 63.234375 
Q 38.140625 66.40625 31.78125 66.40625 
Q 25.390625 66.40625 21.84375 63.234375 
Q 18.3125 60.0625 18.3125 54.390625 
z
" id="DejaVuSans-56"/>
       </defs>
       <use xlink:href="#DejaVuSans-56"/>
      </g>
     </g>
    </g>
    <g id="ytick_5">
     <g id="line2d_10">
      <g>
       <use style="stroke:#000000;stroke-width:0.8;" x="26.925" xlink:href="#m322629f1aa" y="25.662316"/>
      </g>
     </g>
     <g id="text_11">
      <!-- 10 -->
      <g transform="translate(7.2 29.461535)scale(0.1 -0.1)">
       <defs>
        <path d="M 12.40625 8.296875 
L 28.515625 8.296875 
L 28.515625 63.921875 
L 10.984375 60.40625 
L 10.984375 69.390625 
L 28.421875 72.90625 
L 38.28125 72.90625 
L 38.28125 8.296875 
L 54.390625 8.296875 
L 54.390625 0 
L 12.40625 0 
z
" id="DejaVuSans-49"/>
       </defs>
       <use xlink:href="#DejaVuSans-49"/>
       <use x="63.623047" xlink:href="#DejaVuSans-48"/>
      </g>
     </g>
    </g>
   </g>
   <g id="patch_3">
    <path d="M 26.925 273.312 
L 26.925 7.2 
" style="fill:none;stroke:#000000;stroke-linecap:square;stroke-linejoin:miter;stroke-width:0.8;"/>
   </g>
   <g id="patch_4">
    <path d="M 384.045 273.312 
L 384.045 7.2 
" style="fill:none;stroke:#000000;stroke-linecap:square;stroke-linejoin:miter;stroke-width:0.8;"/>
   </g>
   <g id="patch_5">
    <path d="M 26.925 273.312 
L 384.045 273.312 
" style="fill:none;stroke:#000000;stroke-linecap:square;stroke-linejoin:miter;stroke-width:0.8;"/>
   </g>
   <g id="patch_6">
    <path d="M 26.925 7.2 
L 384.045 7.2 
" style="fill:none;stroke:#000000;stroke-linecap:square;stroke-linejoin:miter;stroke-width:0.8;"/>
   </g>
  </g>
 </g>
 <defs>
  <clipPath id="p9cad4045fa">
   <rect height="266.112" width="357.12" x="26.925" y="7.2"/>
  </clipPath>
 </defs>
</svg>
