<?xml version="1.0" encoding="utf-8" standalone="no"?>
<!DOCTYPE svg PUBLIC "-//W3C//DTD SVG 1.1//EN"
  "http://www.w3.org/Graphics/SVG/1.1/DTD/svg11.dtd">
<!-- Created with matplotlib (https://matplotlib.org/) -->
<svg height="310.86825pt" version="1.1" viewBox="0 0 406.940312 310.86825" width="406.940312pt" xmlns="http://www.w3.org/2000/svg" xmlns:xlink="http://www.w3.org/1999/xlink">
 <defs>
  <style type="text/css">
*{stroke-linecap:butt;stroke-linejoin:round;}
  </style>
 </defs>
 <g id="figure_1">
  <g id="patch_1">
   <path d="M 0 310.86825 
L 406.940312 310.86825 
L 406.940312 0 
L 0 0 
z
" style="fill:#ffffff;"/>
  </g>
  <g id="axes_1">
   <g id="patch_2">
    <path d="M 42.620313 273.312 
L 399.740313 273.312 
L 399.740313 7.2 
L 42.620313 7.2 
z
" style="fill:#ffffff;"/>
   </g>
   <g id="PolyCollection_1">
    <defs>
     <path d="M 58.85304 -163.277629 
L 58.85304 -141.870916 
L 59.66671 -144.059451 
L 60.480381 -146.24869 
L 61.294051 -148.388566 
L 62.107722 -150.59382 
L 62.921392 -152.841467 
L 63.735063 -155.056093 
L 64.548734 -157.242918 
L 65.362404 -159.474092 
L 66.176075 -161.597978 
L 66.989745 -163.743327 
L 67.803416 -165.944193 
L 68.617086 -168.115164 
L 69.430757 -170.214161 
L 70.244427 -172.288956 
L 71.058098 -174.388352 
L 71.871768 -176.476283 
L 72.685439 -178.584202 
L 73.499109 -180.591494 
L 74.31278 -182.672275 
L 75.126451 -184.710225 
L 75.940121 -186.715523 
L 76.753792 -188.738567 
L 77.567462 -190.668516 
L 78.381133 -192.580097 
L 79.194803 -194.452308 
L 80.008474 -196.29916 
L 80.822144 -198.213031 
L 81.635815 -200.011504 
L 82.449485 -201.730561 
L 83.263156 -203.401768 
L 84.076827 -205.043435 
L 84.890497 -206.761403 
L 85.704168 -208.35236 
L 86.517838 -209.862604 
L 87.331509 -211.390828 
L 88.145179 -212.859001 
L 88.95885 -214.268354 
L 89.77252 -215.735547 
L 90.586191 -217.036795 
L 91.399861 -218.317422 
L 92.213532 -219.58806 
L 93.027202 -220.776106 
L 93.840873 -221.856562 
L 94.654544 -222.994641 
L 95.468214 -223.997729 
L 96.281885 -225.007548 
L 97.095555 -225.986802 
L 97.909226 -226.858083 
L 98.722896 -227.625128 
L 99.536567 -228.261508 
L 100.350237 -228.856154 
L 101.163908 -229.43152 
L 101.977578 -230.016362 
L 102.791249 -230.482591 
L 103.604919 -230.83652 
L 104.41859 -231.147033 
L 105.232261 -231.501946 
L 106.045931 -231.745934 
L 106.859602 -231.949844 
L 107.673272 -232.103253 
L 108.486943 -232.264549 
L 109.300613 -232.335381 
L 110.114284 -232.200046 
L 110.927954 -232.102139 
L 111.741625 -231.934966 
L 112.555295 -231.657163 
L 113.368966 -231.348053 
L 114.182636 -231.0322 
L 114.996307 -230.62364 
L 115.809978 -230.081617 
L 116.623648 -229.528076 
L 117.437319 -228.908821 
L 118.250989 -228.28189 
L 119.06466 -227.571436 
L 119.87833 -226.803984 
L 120.692001 -225.998281 
L 121.505671 -225.175635 
L 122.319342 -224.294231 
L 123.133012 -223.357179 
L 123.946683 -222.287706 
L 124.760354 -221.191256 
L 125.574024 -220.017354 
L 126.387695 -218.894382 
L 127.201365 -217.703284 
L 128.015036 -216.495274 
L 128.828706 -215.206202 
L 129.642377 -213.855247 
L 130.456047 -212.54199 
L 131.269718 -211.081526 
L 132.083388 -209.65057 
L 132.897059 -208.093446 
L 133.710729 -206.559249 
L 134.5244 -204.948975 
L 135.338071 -203.359813 
L 136.151741 -201.68298 
L 136.965412 -199.938725 
L 137.779082 -198.187333 
L 138.592753 -196.406659 
L 139.406423 -194.551624 
L 140.220094 -192.578699 
L 141.033764 -190.685029 
L 141.847435 -188.799741 
L 142.661105 -186.87645 
L 143.474776 -184.90774 
L 144.288446 -182.929791 
L 145.102117 -180.851356 
L 145.915788 -178.79911 
L 146.729458 -176.723568 
L 147.543129 -174.655623 
L 148.356799 -172.546865 
L 149.17047 -170.429656 
L 149.98414 -168.255657 
L 150.797811 -166.110212 
L 151.611481 -164.026399 
L 152.425152 -161.953016 
L 153.238822 -159.775392 
L 154.052493 -157.523464 
L 154.866163 -155.364405 
L 155.679834 -153.182703 
L 156.493505 -151.010474 
L 157.307175 -148.888751 
L 158.120846 -146.725609 
L 158.934516 -144.572391 
L 159.748187 -142.358349 
L 160.561857 -140.216279 
L 161.375528 -138.060772 
L 162.189198 -135.909242 
L 163.002869 -133.680705 
L 163.816539 -131.509854 
L 164.63021 -129.325864 
L 165.443881 -127.224369 
L 166.257551 -125.186781 
L 167.071222 -123.04441 
L 167.884892 -120.938051 
L 168.698563 -118.870384 
L 169.512233 -116.862976 
L 170.325904 -114.829794 
L 171.139574 -112.837731 
L 171.953245 -110.895571 
L 172.766915 -108.976408 
L 173.580586 -107.067319 
L 174.394256 -105.110473 
L 175.207927 -103.219789 
L 176.021598 -101.363171 
L 176.835268 -99.537358 
L 177.648939 -97.723311 
L 178.462609 -95.981591 
L 179.27628 -94.196909 
L 180.08995 -92.492113 
L 180.903621 -90.813046 
L 181.717291 -89.110929 
L 182.530962 -87.439522 
L 183.344632 -85.994279 
L 184.158303 -84.495769 
L 184.971973 -83.099925 
L 185.785644 -81.707044 
L 186.599315 -80.343114 
L 187.412985 -79.072742 
L 188.226656 -77.851684 
L 189.040326 -76.690489 
L 189.853997 -75.503687 
L 190.667667 -74.415735 
L 191.481338 -73.377567 
L 192.295008 -72.311662 
L 193.108679 -71.325177 
L 193.922349 -70.465297 
L 194.73602 -69.588202 
L 195.54969 -68.839262 
L 196.363361 -68.10776 
L 197.177032 -67.442501 
L 197.990702 -66.784002 
L 198.804373 -66.301863 
L 199.618043 -65.816836 
L 200.431714 -65.393907 
L 201.245384 -65.033136 
L 202.059055 -64.655805 
L 202.872725 -64.396502 
L 203.686396 -64.149714 
L 204.500066 -64.002448 
L 205.313737 -63.857813 
L 206.127408 -63.70413 
L 206.941078 -63.754972 
L 207.754749 -63.764241 
L 208.568419 -63.846257 
L 209.38209 -63.962028 
L 210.19576 -64.051454 
L 211.009431 -64.293505 
L 211.823101 -64.705883 
L 212.636772 -65.163991 
L 213.450442 -65.614708 
L 214.264113 -66.04794 
L 215.077783 -66.692529 
L 215.891454 -67.305247 
L 216.705125 -68.064304 
L 217.518795 -68.795618 
L 218.332466 -69.551751 
L 219.146136 -70.363759 
L 219.959807 -71.181304 
L 220.773477 -72.13132 
L 221.587148 -73.05761 
L 222.400818 -74.111085 
L 223.214489 -75.295704 
L 224.028159 -76.512442 
L 224.84183 -77.732069 
L 225.6555 -78.944834 
L 226.469171 -80.250201 
L 227.282842 -81.542575 
L 228.096512 -82.950742 
L 228.910183 -84.402912 
L 229.723853 -85.915809 
L 230.537524 -87.509803 
L 231.351194 -89.040445 
L 232.164865 -90.686135 
L 232.978535 -92.253922 
L 233.792206 -93.92452 
L 234.605876 -95.659905 
L 235.419547 -97.363359 
L 236.233217 -99.138975 
L 237.046888 -100.968237 
L 237.860559 -102.866058 
L 238.674229 -104.740943 
L 239.4879 -106.616149 
L 240.30157 -108.531739 
L 241.115241 -110.394086 
L 241.928911 -112.406097 
L 242.742582 -114.309438 
L 243.556252 -116.354742 
L 244.369923 -118.288517 
L 245.183593 -120.364073 
L 245.997264 -122.429373 
L 246.810935 -124.540013 
L 247.624605 -126.672096 
L 248.438276 -128.76859 
L 249.251946 -130.855466 
L 250.065617 -133.061963 
L 250.879287 -135.210035 
L 251.692958 -137.323078 
L 252.506628 -139.467748 
L 253.320299 -141.699111 
L 254.133969 -143.927602 
L 254.94764 -146.144969 
L 255.76131 -148.422174 
L 256.574981 -150.618856 
L 257.388652 -152.865967 
L 258.202322 -155.043692 
L 259.015993 -157.236818 
L 259.829663 -159.400835 
L 260.643334 -161.586668 
L 261.457004 -163.708725 
L 262.270675 -165.914227 
L 263.084345 -168.018026 
L 263.898016 -170.172992 
L 264.711686 -172.246764 
L 265.525357 -174.354193 
L 266.339027 -176.405454 
L 267.152698 -178.501428 
L 267.966369 -180.558758 
L 268.780039 -182.55676 
L 269.59371 -184.555064 
L 270.40738 -186.517223 
L 271.221051 -188.469775 
L 272.034721 -190.36944 
L 272.848392 -192.24901 
L 273.662062 -194.131373 
L 274.475733 -195.965694 
L 275.289403 -197.671964 
L 276.103074 -199.47756 
L 276.916744 -201.186605 
L 277.730415 -202.835292 
L 278.544086 -204.532904 
L 279.357756 -206.191125 
L 280.171427 -207.78034 
L 280.985097 -209.352602 
L 281.798768 -210.857457 
L 282.612438 -212.339066 
L 283.426109 -213.705277 
L 284.239779 -215.062799 
L 285.05345 -216.468555 
L 285.86712 -217.709096 
L 286.680791 -218.964773 
L 287.494462 -220.093119 
L 288.308132 -221.171775 
L 289.121803 -222.261101 
L 289.935473 -223.225921 
L 290.749144 -224.153144 
L 291.562814 -225.065927 
L 292.376485 -225.914653 
L 293.190155 -226.747296 
L 294.003826 -227.549021 
L 294.817496 -228.230063 
L 295.631167 -228.89904 
L 296.444837 -229.490644 
L 297.258508 -230.037869 
L 298.072179 -230.537664 
L 298.885849 -230.936269 
L 299.69952 -231.336038 
L 300.51319 -231.610304 
L 301.326861 -231.819355 
L 302.140531 -232.001419 
L 302.954202 -231.994874 
L 303.767872 -232.041361 
L 304.581543 -231.972419 
L 305.395213 -231.78702 
L 306.208884 -231.626654 
L 307.022554 -231.421284 
L 307.836225 -231.140662 
L 308.649896 -230.839542 
L 309.463566 -230.486207 
L 310.277237 -230.019921 
L 311.090907 -229.398745 
L 311.904578 -228.915 
L 312.718248 -228.361738 
L 313.531919 -227.680301 
L 314.345589 -226.871662 
L 315.15926 -225.940769 
L 315.97293 -225.06068 
L 316.786601 -224.079654 
L 317.600271 -223.151242 
L 318.413942 -222.108754 
L 319.227613 -220.984941 
L 320.041283 -219.805044 
L 320.854954 -218.511081 
L 321.668624 -217.261051 
L 322.482295 -215.970825 
L 323.295965 -214.575019 
L 324.109636 -213.201822 
L 324.923306 -211.763154 
L 325.736977 -210.321761 
L 326.550647 -208.870903 
L 327.364318 -207.349438 
L 328.177989 -205.707234 
L 328.991659 -204.164691 
L 329.80533 -202.542544 
L 330.619 -200.746224 
L 331.432671 -198.988461 
L 332.246341 -197.224969 
L 333.060012 -195.431916 
L 333.873682 -193.628161 
L 334.687353 -191.826452 
L 335.501023 -189.93362 
L 336.314694 -187.924995 
L 337.128364 -185.998071 
L 337.942035 -183.923642 
L 338.755706 -181.886181 
L 339.569376 -179.876099 
L 340.383047 -177.814876 
L 341.196717 -175.692664 
L 342.010388 -173.528275 
L 342.824058 -171.390191 
L 343.637729 -169.303765 
L 344.451399 -167.170728 
L 345.26507 -164.996101 
L 346.07874 -162.762706 
L 346.892411 -160.595328 
L 347.706081 -158.419652 
L 348.519752 -156.316435 
L 349.333423 -154.111277 
L 350.147093 -151.797894 
L 350.960764 -149.584325 
L 351.774434 -147.421373 
L 352.588105 -145.301065 
L 353.401775 -143.097351 
L 354.215446 -140.894484 
L 355.029116 -138.650468 
L 355.842787 -136.440643 
L 356.656457 -134.207199 
L 357.470128 -132.097342 
L 358.283798 -129.982816 
L 359.097469 -127.920179 
L 359.91114 -125.874111 
L 360.72481 -123.790321 
L 361.538481 -121.747828 
L 362.352151 -119.635964 
L 363.165822 -117.629039 
L 363.979492 -115.594184 
L 364.793163 -113.615144 
L 365.606833 -111.706881 
L 366.420504 -109.723672 
L 367.234174 -107.872728 
L 368.047845 -106.037339 
L 368.861516 -104.206317 
L 369.675186 -102.342591 
L 370.488857 -100.609613 
L 371.302527 -98.753853 
L 372.116198 -96.967877 
L 372.929868 -95.341599 
L 373.743539 -93.705222 
L 374.557209 -92.103285 
L 375.37088 -90.58368 
L 376.18455 -89.174154 
L 376.998221 -87.710332 
L 377.811891 -86.348907 
L 378.625562 -85.023652 
L 379.439233 -83.761212 
L 380.252903 -82.416265 
L 381.066574 -81.068099 
L 381.880244 -79.872612 
L 382.693915 -78.709106 
L 383.507585 -77.595254 
L 383.507585 -96.715376 
L 383.507585 -96.715376 
L 382.693915 -97.902126 
L 381.880244 -99.121234 
L 381.066574 -100.370985 
L 380.252903 -101.788342 
L 379.439233 -103.132766 
L 378.625562 -104.59787 
L 377.811891 -106.089318 
L 376.998221 -107.641956 
L 376.18455 -109.315672 
L 375.37088 -110.842973 
L 374.557209 -112.638028 
L 373.743539 -114.288301 
L 372.929868 -116.117702 
L 372.116198 -117.767956 
L 371.302527 -119.5588 
L 370.488857 -121.41562 
L 369.675186 -123.311712 
L 368.861516 -125.17569 
L 368.047845 -127.02768 
L 367.234174 -129.061371 
L 366.420504 -131.055489 
L 365.606833 -133.042164 
L 364.793163 -135.133454 
L 363.979492 -137.127785 
L 363.165822 -139.207994 
L 362.352151 -141.304877 
L 361.538481 -143.379545 
L 360.72481 -145.46281 
L 359.91114 -147.553333 
L 359.097469 -149.64977 
L 358.283798 -151.75077 
L 357.470128 -153.854734 
L 356.656457 -155.961055 
L 355.842787 -158.138189 
L 355.029116 -160.177236 
L 354.215446 -162.276872 
L 353.401775 -164.376829 
L 352.588105 -166.525517 
L 351.774434 -168.683477 
L 350.960764 -170.749658 
L 350.147093 -172.818547 
L 349.333423 -174.888979 
L 348.519752 -176.996481 
L 347.706081 -179.140568 
L 346.892411 -181.178049 
L 346.07874 -183.259304 
L 345.26507 -185.382016 
L 344.451399 -187.457542 
L 343.637729 -189.373501 
L 342.824058 -191.469254 
L 342.010388 -193.512165 
L 341.196717 -195.419672 
L 340.383047 -197.366723 
L 339.569376 -199.098423 
L 338.755706 -200.945249 
L 337.942035 -202.783755 
L 337.128364 -204.568315 
L 336.314694 -206.349652 
L 335.501023 -208.1428 
L 334.687353 -209.829214 
L 333.873682 -211.486788 
L 333.060012 -213.104183 
L 332.246341 -214.773706 
L 331.432671 -216.48149 
L 330.619 -217.992932 
L 329.80533 -219.506393 
L 328.991659 -221.00609 
L 328.177989 -222.489854 
L 327.364318 -223.870865 
L 326.550647 -225.191287 
L 325.736977 -226.467864 
L 324.923306 -227.833813 
L 324.109636 -229.188628 
L 323.295965 -230.387879 
L 322.482295 -231.523926 
L 321.668624 -232.518256 
L 320.854954 -233.572945 
L 320.041283 -234.462598 
L 319.227613 -235.470138 
L 318.413942 -236.388072 
L 317.600271 -237.310269 
L 316.786601 -238.145198 
L 315.97293 -238.986937 
L 315.15926 -239.793946 
L 314.345589 -240.542048 
L 313.531919 -241.192141 
L 312.718248 -241.83907 
L 311.904578 -242.412534 
L 311.090907 -242.845395 
L 310.277237 -243.215464 
L 309.463566 -243.570685 
L 308.649896 -243.932124 
L 307.836225 -244.220712 
L 307.022554 -244.476139 
L 306.208884 -244.653034 
L 305.395213 -244.863771 
L 304.581543 -244.931533 
L 303.767872 -244.928103 
L 302.954202 -245.002985 
L 302.140531 -245.018164 
L 301.326861 -244.963652 
L 300.51319 -244.789748 
L 299.69952 -244.597326 
L 298.885849 -244.419976 
L 298.072179 -244.110766 
L 297.258508 -243.69825 
L 296.444837 -243.238584 
L 295.631167 -242.741695 
L 294.817496 -242.167261 
L 294.003826 -241.60531 
L 293.190155 -240.95444 
L 292.376485 -240.261917 
L 291.562814 -239.513783 
L 290.749144 -238.661189 
L 289.935473 -237.86896 
L 289.121803 -236.917391 
L 288.308132 -236.028926 
L 287.494462 -234.990526 
L 286.680791 -233.94731 
L 285.86712 -232.91051 
L 285.05345 -231.781517 
L 284.239779 -230.673266 
L 283.426109 -229.519389 
L 282.612438 -228.226168 
L 281.798768 -226.925052 
L 280.985097 -225.581697 
L 280.171427 -224.275885 
L 279.357756 -222.819401 
L 278.544086 -221.307883 
L 277.730415 -219.798576 
L 276.916744 -218.313119 
L 276.103074 -216.713863 
L 275.289403 -215.094618 
L 274.475733 -213.326836 
L 273.662062 -211.534528 
L 272.848392 -209.799744 
L 272.034721 -207.967716 
L 271.221051 -206.149414 
L 270.40738 -204.227244 
L 269.59371 -202.287993 
L 268.780039 -200.290852 
L 267.966369 -198.406469 
L 267.152698 -196.483761 
L 266.339027 -194.557168 
L 265.525357 -192.530091 
L 264.711686 -190.491525 
L 263.898016 -188.49736 
L 263.084345 -186.354157 
L 262.270675 -184.286568 
L 261.457004 -182.192807 
L 260.643334 -180.024836 
L 259.829663 -177.950331 
L 259.015993 -175.81126 
L 258.202322 -173.658712 
L 257.388652 -171.583653 
L 256.574981 -169.52043 
L 255.76131 -167.397741 
L 254.94764 -165.19215 
L 254.133969 -163.006179 
L 253.320299 -160.815901 
L 252.506628 -158.795183 
L 251.692958 -156.642852 
L 250.879287 -154.49012 
L 250.065617 -152.313451 
L 249.251946 -150.200162 
L 248.438276 -148.090265 
L 247.624605 -146.025595 
L 246.810935 -143.89632 
L 245.997264 -141.828575 
L 245.183593 -139.771887 
L 244.369923 -137.759203 
L 243.556252 -135.74484 
L 242.742582 -133.731524 
L 241.928911 -131.726915 
L 241.115241 -129.77479 
L 240.30157 -127.831882 
L 239.4879 -125.892057 
L 238.674229 -124.025861 
L 237.860559 -122.229211 
L 237.046888 -120.36139 
L 236.233217 -118.535104 
L 235.419547 -116.67136 
L 234.605876 -114.919727 
L 233.792206 -113.203186 
L 232.978535 -111.586759 
L 232.164865 -109.947448 
L 231.351194 -108.438433 
L 230.537524 -106.971766 
L 229.723853 -105.510737 
L 228.910183 -104.171395 
L 228.096512 -102.745391 
L 227.282842 -101.404307 
L 226.469171 -100.054658 
L 225.6555 -98.779677 
L 224.84183 -97.536324 
L 224.028159 -96.195643 
L 223.214489 -95.060485 
L 222.400818 -93.98377 
L 221.587148 -92.951986 
L 220.773477 -91.915282 
L 219.959807 -90.948597 
L 219.146136 -90.113292 
L 218.332466 -89.220979 
L 217.518795 -88.451563 
L 216.705125 -87.631601 
L 215.891454 -86.880008 
L 215.077783 -86.207784 
L 214.264113 -85.558851 
L 213.450442 -85.020346 
L 212.636772 -84.533681 
L 211.823101 -84.084662 
L 211.009431 -83.798051 
L 210.19576 -83.522641 
L 209.38209 -83.27902 
L 208.568419 -83.092645 
L 207.754749 -82.954984 
L 206.941078 -82.927051 
L 206.127408 -82.923183 
L 205.313737 -82.921579 
L 204.500066 -83.021926 
L 203.686396 -83.203721 
L 202.872725 -83.438715 
L 202.059055 -83.674193 
L 201.245384 -83.896164 
L 200.431714 -84.271367 
L 199.618043 -84.590879 
L 198.804373 -85.106893 
L 197.990702 -85.607345 
L 197.177032 -86.224824 
L 196.363361 -86.935437 
L 195.54969 -87.610317 
L 194.73602 -88.441969 
L 193.922349 -89.212711 
L 193.108679 -90.038267 
L 192.295008 -90.898346 
L 191.481338 -91.791917 
L 190.667667 -92.785219 
L 189.853997 -93.780017 
L 189.040326 -94.818494 
L 188.226656 -96.030344 
L 187.412985 -97.240904 
L 186.599315 -98.469504 
L 185.785644 -99.775377 
L 184.971973 -101.081876 
L 184.158303 -102.429876 
L 183.344632 -103.849214 
L 182.530962 -105.255848 
L 181.717291 -106.781821 
L 180.903621 -108.282536 
L 180.08995 -109.747941 
L 179.27628 -111.341028 
L 178.462609 -112.992158 
L 177.648939 -114.729142 
L 176.835268 -116.452408 
L 176.021598 -118.202457 
L 175.207927 -119.913516 
L 174.394256 -121.721056 
L 173.580586 -123.539468 
L 172.766915 -125.440408 
L 171.953245 -127.310574 
L 171.139574 -129.179594 
L 170.325904 -131.068381 
L 169.512233 -133.013889 
L 168.698563 -134.969197 
L 167.884892 -137.061504 
L 167.071222 -139.043669 
L 166.257551 -141.117226 
L 165.443881 -143.24328 
L 164.63021 -145.399696 
L 163.816539 -147.518341 
L 163.002869 -149.644312 
L 162.189198 -151.775825 
L 161.375528 -153.875109 
L 160.561857 -156.062056 
L 159.748187 -158.175971 
L 158.934516 -160.296463 
L 158.120846 -162.45027 
L 157.307175 -164.597259 
L 156.493505 -166.694092 
L 155.679834 -168.871309 
L 154.866163 -171.037356 
L 154.052493 -173.239468 
L 153.238822 -175.386656 
L 152.425152 -177.459108 
L 151.611481 -179.631452 
L 150.797811 -181.786239 
L 149.98414 -183.83083 
L 149.17047 -185.966571 
L 148.356799 -188.086885 
L 147.543129 -190.077029 
L 146.729458 -192.077026 
L 145.915788 -194.081604 
L 145.102117 -195.997032 
L 144.288446 -197.958366 
L 143.474776 -199.936209 
L 142.661105 -201.934122 
L 141.847435 -203.825985 
L 141.033764 -205.696346 
L 140.220094 -207.578591 
L 139.406423 -209.261031 
L 138.592753 -210.997381 
L 137.779082 -212.725536 
L 136.965412 -214.414198 
L 136.151741 -216.115305 
L 135.338071 -217.649015 
L 134.5244 -219.340389 
L 133.710729 -220.930949 
L 132.897059 -222.404089 
L 132.083388 -223.897874 
L 131.269718 -225.32894 
L 130.456047 -226.775731 
L 129.642377 -228.05151 
L 128.828706 -229.346372 
L 128.015036 -230.558746 
L 127.201365 -231.78185 
L 126.387695 -232.948663 
L 125.574024 -234.025066 
L 124.760354 -235.108554 
L 123.946683 -236.082638 
L 123.133012 -237.055585 
L 122.319342 -237.883604 
L 121.505671 -238.687922 
L 120.692001 -239.481866 
L 119.87833 -240.195826 
L 119.06466 -240.885876 
L 118.250989 -241.560712 
L 117.437319 -242.236515 
L 116.623648 -242.785341 
L 115.809978 -243.271439 
L 114.996307 -243.706358 
L 114.182636 -244.121052 
L 113.368966 -244.39957 
L 112.555295 -244.59108 
L 111.741625 -244.793546 
L 110.927954 -244.932242 
L 110.114284 -245.005347 
L 109.300613 -245.08471 
L 108.486943 -245.142492 
L 107.673272 -245.088504 
L 106.859602 -245.013251 
L 106.045931 -244.77729 
L 105.232261 -244.615475 
L 104.41859 -244.277966 
L 103.604919 -243.963968 
L 102.791249 -243.636952 
L 101.977578 -243.169946 
L 101.163908 -242.666378 
L 100.350237 -242.110881 
L 99.536567 -241.556802 
L 98.722896 -240.925471 
L 97.909226 -240.28645 
L 97.095555 -239.538749 
L 96.281885 -238.780206 
L 95.468214 -237.917479 
L 94.654544 -237.080911 
L 93.840873 -236.065478 
L 93.027202 -235.137434 
L 92.213532 -234.194729 
L 91.399861 -233.161725 
L 90.586191 -232.096027 
L 89.77252 -230.92919 
L 88.95885 -229.725432 
L 88.145179 -228.50346 
L 87.331509 -227.253276 
L 86.517838 -226.032088 
L 85.704168 -224.663537 
L 84.890497 -223.309726 
L 84.076827 -221.84225 
L 83.263156 -220.416771 
L 82.449485 -218.849134 
L 81.635815 -217.293238 
L 80.822144 -215.701185 
L 80.008474 -214.022479 
L 79.194803 -212.414247 
L 78.381133 -210.677974 
L 77.567462 -208.939948 
L 76.753792 -207.232763 
L 75.940121 -205.379546 
L 75.126451 -203.564683 
L 74.31278 -201.592302 
L 73.499109 -199.793398 
L 72.685439 -197.890729 
L 71.871768 -195.880758 
L 71.058098 -193.961794 
L 70.244427 -192.039288 
L 69.430757 -190.053463 
L 68.617086 -188.048857 
L 67.803416 -186.070343 
L 66.989745 -183.985225 
L 66.176075 -181.944841 
L 65.362404 -179.880236 
L 64.548734 -177.809559 
L 63.735063 -175.752811 
L 62.921392 -173.664131 
L 62.107722 -171.533656 
L 61.294051 -169.46004 
L 60.480381 -167.352896 
L 59.66671 -165.346603 
L 58.85304 -163.277629 
z
" id="m664daf5acc" style="stroke:#000000;stroke-opacity:0.3;"/>
    </defs>
    <g clip-path="url(#p15e5ac6f79)">
     <use style="fill-opacity:0.3;stroke:#000000;stroke-opacity:0.3;" x="0" xlink:href="#m664daf5acc" y="310.86825"/>
    </g>
   </g>
   <g id="PolyCollection_2">
    <defs>
     <path d="M 58.85304 -178.546929 
L 58.85304 -126.465234 
L 59.66671 -128.968741 
L 60.480381 -131.255949 
L 61.294051 -133.327039 
L 62.107722 -135.719379 
L 62.921392 -138.145792 
L 63.735063 -140.489117 
L 64.548734 -142.888287 
L 65.362404 -145.074612 
L 66.176075 -147.355786 
L 66.989745 -149.652762 
L 67.803416 -152.029232 
L 68.617086 -154.552435 
L 69.430757 -156.800067 
L 70.244427 -158.959945 
L 71.058098 -160.987075 
L 71.871768 -163.236192 
L 72.685439 -165.524863 
L 73.499109 -167.653334 
L 74.31278 -169.712203 
L 75.126451 -171.837442 
L 75.940121 -173.96876 
L 76.753792 -176.098796 
L 77.567462 -178.263225 
L 78.381133 -180.278951 
L 79.194803 -182.223177 
L 80.008474 -184.159057 
L 80.822144 -186.044183 
L 81.635815 -187.973929 
L 82.449485 -189.78528 
L 83.263156 -191.586684 
L 84.076827 -193.34057 
L 84.890497 -195.106571 
L 85.704168 -196.841386 
L 86.517838 -198.504351 
L 87.331509 -200.089713 
L 88.145179 -201.743552 
L 88.95885 -203.352104 
L 89.77252 -204.809893 
L 90.586191 -206.412657 
L 91.399861 -207.802613 
L 92.213532 -209.194504 
L 93.027202 -210.592608 
L 93.840873 -211.940597 
L 94.654544 -213.115263 
L 95.468214 -214.210711 
L 96.281885 -215.253879 
L 97.095555 -216.267402 
L 97.909226 -217.261482 
L 98.722896 -218.236692 
L 99.536567 -219.047897 
L 100.350237 -219.747492 
L 101.163908 -220.438355 
L 101.977578 -221.049453 
L 102.791249 -221.660501 
L 103.604919 -222.148843 
L 104.41859 -222.461357 
L 105.232261 -222.957523 
L 106.045931 -223.339667 
L 106.859602 -223.362991 
L 107.673272 -223.380125 
L 108.486943 -223.476425 
L 109.300613 -223.500198 
L 110.114284 -223.358488 
L 110.927954 -223.144189 
L 111.741625 -222.869932 
L 112.555295 -222.766297 
L 113.368966 -222.438474 
L 114.182636 -222.067734 
L 114.996307 -221.407091 
L 115.809978 -220.960301 
L 116.623648 -220.26675 
L 117.437319 -219.724549 
L 118.250989 -218.979846 
L 119.06466 -218.189352 
L 119.87833 -217.339802 
L 120.692001 -216.309302 
L 121.505671 -215.453783 
L 122.319342 -214.600874 
L 123.133012 -213.599991 
L 123.946683 -212.443194 
L 124.760354 -211.386247 
L 125.574024 -210.135978 
L 126.387695 -208.954862 
L 127.201365 -207.623963 
L 128.015036 -206.197587 
L 128.828706 -204.911143 
L 129.642377 -203.536446 
L 130.456047 -201.98518 
L 131.269718 -200.425132 
L 132.083388 -198.886201 
L 132.897059 -197.397897 
L 133.710729 -195.915892 
L 134.5244 -194.249932 
L 135.338071 -192.592297 
L 136.151741 -190.900979 
L 136.965412 -189.136945 
L 137.779082 -187.359996 
L 138.592753 -185.584835 
L 139.406423 -183.731935 
L 140.220094 -181.785338 
L 141.033764 -179.833085 
L 141.847435 -177.867031 
L 142.661105 -175.881003 
L 143.474776 -173.950018 
L 144.288446 -172.00942 
L 145.102117 -169.883612 
L 145.915788 -167.808619 
L 146.729458 -165.820072 
L 147.543129 -163.807492 
L 148.356799 -161.656837 
L 149.17047 -159.434624 
L 149.98414 -157.11321 
L 150.797811 -155.077475 
L 151.611481 -153.003172 
L 152.425152 -150.790145 
L 153.238822 -148.79139 
L 154.052493 -146.752181 
L 154.866163 -144.645441 
L 155.679834 -142.563827 
L 156.493505 -140.362663 
L 157.307175 -138.09982 
L 158.120846 -136.074532 
L 158.934516 -133.894084 
L 159.748187 -131.820486 
L 160.561857 -129.879557 
L 161.375528 -127.65925 
L 162.189198 -125.443559 
L 163.002869 -123.188202 
L 163.816539 -120.974038 
L 164.63021 -118.980955 
L 165.443881 -116.895927 
L 166.257551 -114.643613 
L 167.071222 -112.442446 
L 167.884892 -110.358257 
L 168.698563 -108.425579 
L 169.512233 -106.482663 
L 170.325904 -104.155124 
L 171.139574 -102.142925 
L 171.953245 -100.048089 
L 172.766915 -97.903426 
L 173.580586 -96.175163 
L 174.394256 -94.093568 
L 175.207927 -92.082078 
L 176.021598 -90.243511 
L 176.835268 -88.304697 
L 177.648939 -86.295587 
L 178.462609 -84.386118 
L 179.27628 -82.592052 
L 180.08995 -80.977931 
L 180.903621 -79.18296 
L 181.717291 -77.3234 
L 182.530962 -75.685793 
L 183.344632 -74.220471 
L 184.158303 -72.75799 
L 184.971973 -71.377342 
L 185.785644 -69.937559 
L 186.599315 -68.462896 
L 187.412985 -67.035633 
L 188.226656 -65.833992 
L 189.040326 -64.491165 
L 189.853997 -63.381057 
L 190.667667 -62.331092 
L 191.481338 -61.253012 
L 192.295008 -60.140225 
L 193.108679 -59.112129 
L 193.922349 -58.080015 
L 194.73602 -56.987045 
L 195.54969 -56.084441 
L 196.363361 -55.356727 
L 197.177032 -54.556187 
L 197.990702 -53.929557 
L 198.804373 -53.364068 
L 199.618043 -52.637727 
L 200.431714 -51.97074 
L 201.245384 -51.436253 
L 202.059055 -50.984057 
L 202.872725 -50.586352 
L 203.686396 -50.204293 
L 204.500066 -49.932167 
L 205.313737 -49.781489 
L 206.127408 -49.666776 
L 206.941078 -49.65225 
L 207.754749 -49.741052 
L 208.568419 -49.951373 
L 209.38209 -50.215528 
L 210.19576 -50.286885 
L 211.009431 -50.519671 
L 211.823101 -50.919066 
L 212.636772 -51.305233 
L 213.450442 -51.693785 
L 214.264113 -52.32081 
L 215.077783 -52.900364 
L 215.891454 -53.405346 
L 216.705125 -54.01217 
L 217.518795 -54.730895 
L 218.332466 -55.466382 
L 219.146136 -56.283476 
L 219.959807 -57.19932 
L 220.773477 -58.041272 
L 221.587148 -58.868081 
L 222.400818 -59.937476 
L 223.214489 -60.903867 
L 224.028159 -61.91737 
L 224.84183 -63.173156 
L 225.6555 -64.64797 
L 226.469171 -66.18332 
L 227.282842 -67.64016 
L 228.096512 -68.907639 
L 228.910183 -70.219438 
L 229.723853 -71.584891 
L 230.537524 -73.088073 
L 231.351194 -74.598609 
L 232.164865 -76.182588 
L 232.978535 -77.732562 
L 233.792206 -79.415236 
L 234.605876 -81.312699 
L 235.419547 -83.138485 
L 236.233217 -85.031534 
L 237.046888 -86.725598 
L 237.860559 -88.430652 
L 238.674229 -90.304935 
L 239.4879 -92.21674 
L 240.30157 -94.329622 
L 241.115241 -96.214148 
L 241.928911 -98.395589 
L 242.742582 -100.341259 
L 243.556252 -102.452357 
L 244.369923 -104.589676 
L 245.183593 -106.687915 
L 245.997264 -108.829235 
L 246.810935 -111.173973 
L 247.624605 -113.453938 
L 248.438276 -115.626934 
L 249.251946 -117.762327 
L 250.065617 -120.084432 
L 250.879287 -122.361366 
L 251.692958 -124.462079 
L 252.506628 -126.601459 
L 253.320299 -128.732142 
L 254.133969 -131.020815 
L 254.94764 -133.229612 
L 255.76131 -135.597363 
L 256.574981 -137.875106 
L 257.388652 -140.013918 
L 258.202322 -142.394277 
L 259.015993 -144.526482 
L 259.829663 -146.786409 
L 260.643334 -149.109701 
L 261.457004 -151.502264 
L 262.270675 -153.721133 
L 263.084345 -155.803101 
L 263.898016 -157.946847 
L 264.711686 -159.980091 
L 265.525357 -162.026513 
L 266.339027 -164.155602 
L 267.152698 -166.294354 
L 267.966369 -168.425892 
L 268.780039 -170.647283 
L 269.59371 -172.906494 
L 270.40738 -174.943213 
L 271.221051 -176.826449 
L 272.034721 -178.718025 
L 272.848392 -180.671095 
L 273.662062 -182.380187 
L 274.475733 -184.305092 
L 275.289403 -186.081456 
L 276.103074 -187.944657 
L 276.916744 -189.795947 
L 277.730415 -191.47338 
L 278.544086 -193.162166 
L 279.357756 -194.897545 
L 280.171427 -196.558177 
L 280.985097 -198.13446 
L 281.798768 -199.68947 
L 282.612438 -201.282798 
L 283.426109 -202.887599 
L 284.239779 -204.456789 
L 285.05345 -205.85076 
L 285.86712 -207.16649 
L 286.680791 -208.403828 
L 287.494462 -209.61245 
L 288.308132 -210.833582 
L 289.121803 -211.98058 
L 289.935473 -213.052754 
L 290.749144 -214.11364 
L 291.562814 -215.095112 
L 292.376485 -215.924069 
L 293.190155 -216.980408 
L 294.003826 -217.778031 
L 294.817496 -218.533763 
L 295.631167 -219.303274 
L 296.444837 -220.085764 
L 297.258508 -220.623161 
L 298.072179 -221.070773 
L 298.885849 -221.366178 
L 299.69952 -221.775484 
L 300.51319 -222.223494 
L 301.326861 -222.697549 
L 302.140531 -222.954665 
L 302.954202 -223.161321 
L 303.767872 -223.135887 
L 304.581543 -223.220085 
L 305.395213 -223.154495 
L 306.208884 -222.914392 
L 307.022554 -222.779041 
L 307.836225 -222.400608 
L 308.649896 -222.115008 
L 309.463566 -221.717324 
L 310.277237 -221.312514 
L 311.090907 -220.816522 
L 311.904578 -220.241784 
L 312.718248 -219.443818 
L 313.531919 -218.596321 
L 314.345589 -217.699908 
L 315.15926 -216.751232 
L 315.97293 -215.609536 
L 316.786601 -214.299069 
L 317.600271 -213.237362 
L 318.413942 -212.011284 
L 319.227613 -210.720243 
L 320.041283 -209.369441 
L 320.854954 -208.070755 
L 321.668624 -206.851577 
L 322.482295 -205.322366 
L 323.295965 -203.821893 
L 324.109636 -202.420144 
L 324.923306 -200.702684 
L 325.736977 -199.063055 
L 326.550647 -197.259237 
L 327.364318 -195.438582 
L 328.177989 -193.504414 
L 328.991659 -191.828855 
L 329.80533 -190.175232 
L 330.619 -188.01237 
L 331.432671 -186.291906 
L 332.246341 -184.178761 
L 333.060012 -182.205844 
L 333.873682 -180.374625 
L 334.687353 -178.293672 
L 335.501023 -176.032087 
L 336.314694 -173.71746 
L 337.128364 -171.649898 
L 337.942035 -169.564868 
L 338.755706 -167.565679 
L 339.569376 -165.338885 
L 340.383047 -162.979554 
L 341.196717 -160.66519 
L 342.010388 -158.465535 
L 342.824058 -156.082903 
L 343.637729 -153.878324 
L 344.451399 -151.542663 
L 345.26507 -149.214108 
L 346.07874 -146.933041 
L 346.892411 -145.085076 
L 347.706081 -143.008073 
L 348.519752 -140.840338 
L 349.333423 -138.666795 
L 350.147093 -136.595392 
L 350.960764 -134.284402 
L 351.774434 -132.034605 
L 352.588105 -129.882528 
L 353.401775 -127.703316 
L 354.215446 -125.322659 
L 355.029116 -123.149887 
L 355.842787 -120.96402 
L 356.656457 -118.835966 
L 357.470128 -116.778855 
L 358.283798 -114.856924 
L 359.097469 -112.956875 
L 359.91114 -111.006294 
L 360.72481 -108.949354 
L 361.538481 -107.03156 
L 362.352151 -105.161651 
L 363.165822 -103.277621 
L 363.979492 -101.289229 
L 364.793163 -99.539903 
L 365.606833 -97.699442 
L 366.420504 -96.048297 
L 367.234174 -94.413956 
L 368.047845 -92.587573 
L 368.861516 -90.962769 
L 369.675186 -89.354662 
L 370.488857 -87.740416 
L 371.302527 -86.251629 
L 372.116198 -84.80462 
L 372.929868 -83.386791 
L 373.743539 -81.818976 
L 374.557209 -80.159315 
L 375.37088 -78.703332 
L 376.18455 -77.509657 
L 376.998221 -76.004919 
L 377.811891 -74.617675 
L 378.625562 -73.105953 
L 379.439233 -71.521419 
L 380.252903 -70.327992 
L 381.066574 -69.398093 
L 381.880244 -68.072274 
L 382.693915 -66.966172 
L 383.507585 -66.256004 
L 383.507585 -108.702461 
L 383.507585 -108.702461 
L 382.693915 -110.0276 
L 381.880244 -111.47136 
L 381.066574 -112.815328 
L 380.252903 -114.475622 
L 379.439233 -116.131084 
L 378.625562 -117.576412 
L 377.811891 -119.308032 
L 376.998221 -120.81043 
L 376.18455 -122.42126 
L 375.37088 -124.13401 
L 374.557209 -125.870551 
L 373.743539 -127.629747 
L 372.929868 -129.410444 
L 372.116198 -131.393139 
L 371.302527 -133.449532 
L 370.488857 -135.520936 
L 369.675186 -137.606078 
L 368.861516 -139.495636 
L 368.047845 -141.494179 
L 367.234174 -143.341061 
L 366.420504 -145.425805 
L 365.606833 -147.433387 
L 364.793163 -149.535757 
L 363.979492 -151.589168 
L 363.165822 -153.677561 
L 362.352151 -155.768233 
L 361.538481 -157.670211 
L 360.72481 -159.533128 
L 359.91114 -161.613239 
L 359.097469 -163.602861 
L 358.283798 -165.527093 
L 357.470128 -167.486932 
L 356.656457 -169.584118 
L 355.842787 -171.43816 
L 355.029116 -173.331826 
L 354.215446 -175.322629 
L 353.401775 -177.428146 
L 352.588105 -179.599679 
L 351.774434 -181.757497 
L 350.960764 -183.869957 
L 350.147093 -186.026605 
L 349.333423 -188.13523 
L 348.519752 -190.165044 
L 347.706081 -192.164175 
L 346.892411 -194.233783 
L 346.07874 -196.08202 
L 345.26507 -197.868087 
L 344.451399 -199.643427 
L 343.637729 -201.392076 
L 342.824058 -203.30291 
L 342.010388 -205.088573 
L 341.196717 -207.077663 
L 340.383047 -208.98604 
L 339.569376 -210.941189 
L 338.755706 -212.625595 
L 337.942035 -214.407365 
L 337.128364 -216.267323 
L 336.314694 -218.089267 
L 335.501023 -219.871995 
L 334.687353 -221.614327 
L 333.873682 -223.192671 
L 333.060012 -224.689663 
L 332.246341 -226.184825 
L 331.432671 -227.839496 
L 330.619 -229.425255 
L 329.80533 -230.836065 
L 328.991659 -232.197934 
L 328.177989 -233.509998 
L 327.364318 -234.763882 
L 326.550647 -235.981416 
L 325.736977 -237.139204 
L 324.923306 -238.322943 
L 324.109636 -239.470151 
L 323.295965 -240.707435 
L 322.482295 -241.91803 
L 321.668624 -243.07455 
L 320.854954 -244.03259 
L 320.041283 -244.802497 
L 319.227613 -245.560073 
L 318.413942 -246.336173 
L 317.600271 -247.185935 
L 316.786601 -248.291744 
L 315.97293 -248.903903 
L 315.15926 -249.521466 
L 314.345589 -250.086444 
L 313.531919 -250.859596 
L 312.718248 -251.537481 
L 311.904578 -252.035864 
L 311.090907 -252.466746 
L 310.277237 -252.724447 
L 309.463566 -253.132485 
L 308.649896 -253.263165 
L 307.836225 -253.381045 
L 307.022554 -253.70232 
L 306.208884 -253.951939 
L 305.395213 -254.140839 
L 304.581543 -254.282938 
L 303.767872 -254.351709 
L 302.954202 -254.390404 
L 302.140531 -254.410286 
L 301.326861 -254.339142 
L 300.51319 -254.218303 
L 299.69952 -253.992581 
L 298.885849 -253.660536 
L 298.072179 -253.162358 
L 297.258508 -252.748651 
L 296.444837 -252.271583 
L 295.631167 -251.697413 
L 294.817496 -251.113207 
L 294.003826 -250.495991 
L 293.190155 -249.782956 
L 292.376485 -248.955098 
L 291.562814 -248.218767 
L 290.749144 -247.352617 
L 289.935473 -246.423282 
L 289.121803 -245.661146 
L 288.308132 -244.921516 
L 287.494462 -244.063054 
L 286.680791 -242.913134 
L 285.86712 -241.708114 
L 285.05345 -240.507434 
L 284.239779 -239.277166 
L 283.426109 -238.115156 
L 282.612438 -236.704462 
L 281.798768 -235.446312 
L 280.985097 -234.348269 
L 280.171427 -232.951592 
L 279.357756 -231.462472 
L 278.544086 -230.068158 
L 277.730415 -228.470162 
L 276.916744 -226.931929 
L 276.103074 -225.560029 
L 275.289403 -223.987289 
L 274.475733 -222.194738 
L 273.662062 -220.660452 
L 272.848392 -218.92962 
L 272.034721 -217.103909 
L 271.221051 -215.308702 
L 270.40738 -213.482829 
L 269.59371 -211.591927 
L 268.780039 -209.851376 
L 267.966369 -208.109584 
L 267.152698 -206.354254 
L 266.339027 -204.562207 
L 265.525357 -202.634678 
L 264.711686 -200.782515 
L 263.898016 -198.86893 
L 263.084345 -196.933136 
L 262.270675 -195.053186 
L 261.457004 -193.073105 
L 260.643334 -191.367913 
L 259.829663 -189.450415 
L 259.015993 -187.350743 
L 258.202322 -185.354609 
L 257.388652 -183.454942 
L 256.574981 -181.38775 
L 255.76131 -179.204278 
L 254.94764 -177.159853 
L 254.133969 -175.19937 
L 253.320299 -173.055273 
L 252.506628 -171.090651 
L 251.692958 -169.121822 
L 250.879287 -167.08499 
L 250.065617 -164.879117 
L 249.251946 -162.707346 
L 248.438276 -160.524377 
L 247.624605 -158.440591 
L 246.810935 -156.542637 
L 245.997264 -154.671873 
L 245.183593 -152.623317 
L 244.369923 -150.538746 
L 243.556252 -148.689203 
L 242.742582 -146.65943 
L 241.928911 -144.714517 
L 241.115241 -142.737226 
L 240.30157 -140.674977 
L 239.4879 -138.756724 
L 238.674229 -136.614713 
L 237.860559 -134.969852 
L 237.046888 -133.090599 
L 236.233217 -131.325357 
L 235.419547 -129.61312 
L 234.605876 -127.923628 
L 233.792206 -126.242643 
L 232.978535 -124.606479 
L 232.164865 -122.935341 
L 231.351194 -121.116848 
L 230.537524 -119.654944 
L 229.723853 -118.248034 
L 228.910183 -116.852136 
L 228.096512 -115.47852 
L 227.282842 -114.125273 
L 226.469171 -112.986655 
L 225.6555 -111.927395 
L 224.84183 -110.48713 
L 224.028159 -109.067825 
L 223.214489 -107.747478 
L 222.400818 -106.637776 
L 221.587148 -105.565132 
L 220.773477 -104.53928 
L 219.959807 -103.618953 
L 219.146136 -102.865431 
L 218.332466 -102.157292 
L 217.518795 -101.480526 
L 216.705125 -100.879228 
L 215.891454 -100.275539 
L 215.077783 -99.471439 
L 214.264113 -98.862001 
L 213.450442 -98.402589 
L 212.636772 -97.971618 
L 211.823101 -97.573548 
L 211.009431 -97.269456 
L 210.19576 -96.91472 
L 209.38209 -96.600482 
L 208.568419 -96.256563 
L 207.754749 -96.167002 
L 206.941078 -95.933438 
L 206.127408 -95.87446 
L 205.313737 -95.968572 
L 204.500066 -96.118523 
L 203.686396 -96.317096 
L 202.872725 -96.566514 
L 202.059055 -96.878999 
L 201.245384 -97.203757 
L 200.431714 -97.432185 
L 199.618043 -97.906483 
L 198.804373 -98.196592 
L 197.990702 -98.688549 
L 197.177032 -99.242974 
L 196.363361 -99.756401 
L 195.54969 -100.313224 
L 194.73602 -101.142058 
L 193.922349 -101.973397 
L 193.108679 -102.586367 
L 192.295008 -103.367126 
L 191.481338 -104.300517 
L 190.667667 -105.224507 
L 189.853997 -106.162548 
L 189.040326 -107.153554 
L 188.226656 -108.293817 
L 187.412985 -109.540775 
L 186.599315 -110.932712 
L 185.785644 -112.262109 
L 184.971973 -113.688042 
L 184.158303 -115.055455 
L 183.344632 -116.563698 
L 182.530962 -117.835215 
L 181.717291 -119.304573 
L 180.903621 -120.801484 
L 180.08995 -122.297634 
L 179.27628 -123.898187 
L 178.462609 -125.563527 
L 177.648939 -127.196923 
L 176.835268 -128.672292 
L 176.021598 -130.363038 
L 175.207927 -132.133217 
L 174.394256 -133.878481 
L 173.580586 -135.767444 
L 172.766915 -137.572385 
L 171.953245 -139.557767 
L 171.139574 -141.635365 
L 170.325904 -143.508648 
L 169.512233 -145.414249 
L 168.698563 -147.358004 
L 167.884892 -149.43359 
L 167.071222 -151.492677 
L 166.257551 -153.34943 
L 165.443881 -155.327083 
L 164.63021 -157.175002 
L 163.816539 -159.232292 
L 163.002869 -161.26479 
L 162.189198 -163.359366 
L 161.375528 -165.546996 
L 160.561857 -167.753426 
L 159.748187 -169.884439 
L 158.934516 -171.950683 
L 158.120846 -174.324188 
L 157.307175 -176.545283 
L 156.493505 -178.533679 
L 155.679834 -180.511292 
L 154.866163 -182.518376 
L 154.052493 -184.905131 
L 153.238822 -186.950493 
L 152.425152 -188.945714 
L 151.611481 -191.016151 
L 150.797811 -193.028818 
L 149.98414 -194.928938 
L 149.17047 -196.793169 
L 148.356799 -198.672763 
L 147.543129 -200.584512 
L 146.729458 -202.560001 
L 145.915788 -204.582972 
L 145.102117 -206.660284 
L 144.288446 -208.59947 
L 143.474776 -210.589303 
L 142.661105 -212.531715 
L 141.847435 -214.26425 
L 141.033764 -216.102967 
L 140.220094 -218.012449 
L 139.406423 -219.788779 
L 138.592753 -221.455828 
L 137.779082 -223.097003 
L 136.965412 -224.955879 
L 136.151741 -226.632398 
L 135.338071 -228.259139 
L 134.5244 -229.836594 
L 133.710729 -231.464252 
L 132.897059 -233.039165 
L 132.083388 -234.409669 
L 131.269718 -235.759004 
L 130.456047 -236.985142 
L 129.642377 -238.181845 
L 128.828706 -239.332584 
L 128.015036 -240.423493 
L 127.201365 -241.565669 
L 126.387695 -242.626741 
L 125.574024 -243.547199 
L 124.760354 -244.458478 
L 123.946683 -245.260087 
L 123.133012 -246.131326 
L 122.319342 -246.887952 
L 121.505671 -247.815157 
L 120.692001 -248.551694 
L 119.87833 -249.415616 
L 119.06466 -250.045303 
L 118.250989 -250.647187 
L 117.437319 -251.136294 
L 116.623648 -251.49852 
L 115.809978 -251.992038 
L 114.996307 -252.505175 
L 114.182636 -252.821733 
L 113.368966 -253.268237 
L 112.555295 -253.629546 
L 111.741625 -254.012191 
L 110.927954 -254.106108 
L 110.114284 -254.258721 
L 109.300613 -254.218348 
L 108.486943 -254.353963 
L 107.673272 -254.417363 
L 106.859602 -254.358876 
L 106.045931 -254.365947 
L 105.232261 -254.202934 
L 104.41859 -254.086545 
L 103.604919 -253.817109 
L 102.791249 -253.590081 
L 101.977578 -253.110849 
L 101.163908 -252.711061 
L 100.350237 -252.088391 
L 99.536567 -251.555622 
L 98.722896 -250.914396 
L 97.909226 -250.159617 
L 97.095555 -249.359433 
L 96.281885 -248.560853 
L 95.468214 -247.730166 
L 94.654544 -247.064268 
L 93.840873 -246.264996 
L 93.027202 -245.326065 
L 92.213532 -244.49861 
L 91.399861 -243.479757 
L 90.586191 -242.406796 
L 89.77252 -241.249096 
L 88.95885 -240.19975 
L 88.145179 -238.906578 
L 87.331509 -237.857433 
L 86.517838 -236.597711 
L 85.704168 -235.339624 
L 84.890497 -233.97478 
L 84.076827 -232.633368 
L 83.263156 -231.421724 
L 82.449485 -230.153043 
L 81.635815 -228.639965 
L 80.822144 -227.113229 
L 80.008474 -225.555261 
L 79.194803 -224.010723 
L 78.381133 -222.401316 
L 77.567462 -220.845263 
L 76.753792 -219.283682 
L 75.940121 -217.562946 
L 75.126451 -215.802342 
L 74.31278 -214.126826 
L 73.499109 -212.587635 
L 72.685439 -210.918066 
L 71.871768 -209.281367 
L 71.058098 -207.417944 
L 70.244427 -205.677452 
L 69.430757 -203.794489 
L 68.617086 -202.002043 
L 67.803416 -200.309287 
L 66.989745 -198.436706 
L 66.176075 -196.460452 
L 65.362404 -194.575146 
L 64.548734 -192.640919 
L 63.735063 -190.631126 
L 62.921392 -188.587441 
L 62.107722 -186.532812 
L 61.294051 -184.477146 
L 60.480381 -182.430286 
L 59.66671 -180.569982 
L 58.85304 -178.546929 
z
" id="m5f5ce5fbfa" style="stroke:#808080;stroke-opacity:0.2;"/>
    </defs>
    <g clip-path="url(#p15e5ac6f79)">
     <use style="fill:#808080;fill-opacity:0.2;stroke:#808080;stroke-opacity:0.2;" x="0" xlink:href="#m5f5ce5fbfa" y="310.86825"/>
    </g>
   </g>
   <g id="matplotlib.axis_1">
    <g id="xtick_1">
     <g id="line2d_1">
      <defs>
       <path d="M 0 0 
L 0 3.5 
" id="m705e99f9a2" style="stroke:#000000;stroke-width:0.8;"/>
      </defs>
      <g>
       <use style="stroke:#000000;stroke-width:0.8;" x="58.85304" xlink:href="#m705e99f9a2" y="273.312"/>
      </g>
     </g>
     <g id="text_1">
      <!-- 0 -->
      <defs>
       <path d="M 31.78125 66.40625 
Q 24.171875 66.40625 20.328125 58.90625 
Q 16.5 51.421875 16.5 36.375 
Q 16.5 21.390625 20.328125 13.890625 
Q 24.171875 6.390625 31.78125 6.390625 
Q 39.453125 6.390625 43.28125 13.890625 
Q 47.125 21.390625 47.125 36.375 
Q 47.125 51.421875 43.28125 58.90625 
Q 39.453125 66.40625 31.78125 66.40625 
z
M 31.78125 74.21875 
Q 44.046875 74.21875 50.515625 64.515625 
Q 56.984375 54.828125 56.984375 36.375 
Q 56.984375 17.96875 50.515625 8.265625 
Q 44.046875 -1.421875 31.78125 -1.421875 
Q 19.53125 -1.421875 13.0625 8.265625 
Q 6.59375 17.96875 6.59375 36.375 
Q 6.59375 54.828125 13.0625 64.515625 
Q 19.53125 74.21875 31.78125 74.21875 
z
" id="DejaVuSans-48"/>
      </defs>
      <g transform="translate(55.67179 287.910437)scale(0.1 -0.1)">
       <use xlink:href="#DejaVuSans-48"/>
      </g>
     </g>
    </g>
    <g id="xtick_2">
     <g id="line2d_2">
      <g>
       <use style="stroke:#000000;stroke-width:0.8;" x="123.783949" xlink:href="#m705e99f9a2" y="273.312"/>
      </g>
     </g>
     <g id="text_2">
      <!-- 1 -->
      <defs>
       <path d="M 12.40625 8.296875 
L 28.515625 8.296875 
L 28.515625 63.921875 
L 10.984375 60.40625 
L 10.984375 69.390625 
L 28.421875 72.90625 
L 38.28125 72.90625 
L 38.28125 8.296875 
L 54.390625 8.296875 
L 54.390625 0 
L 12.40625 0 
z
" id="DejaVuSans-49"/>
      </defs>
      <g transform="translate(120.602699 287.910437)scale(0.1 -0.1)">
       <use xlink:href="#DejaVuSans-49"/>
      </g>
     </g>
    </g>
    <g id="xtick_3">
     <g id="line2d_3">
      <g>
       <use style="stroke:#000000;stroke-width:0.8;" x="188.714858" xlink:href="#m705e99f9a2" y="273.312"/>
      </g>
     </g>
     <g id="text_3">
      <!-- 2 -->
      <defs>
       <path d="M 19.1875 8.296875 
L 53.609375 8.296875 
L 53.609375 0 
L 7.328125 0 
L 7.328125 8.296875 
Q 12.9375 14.109375 22.625 23.890625 
Q 32.328125 33.6875 34.8125 36.53125 
Q 39.546875 41.84375 41.421875 45.53125 
Q 43.3125 49.21875 43.3125 52.78125 
Q 43.3125 58.59375 39.234375 62.25 
Q 35.15625 65.921875 28.609375 65.921875 
Q 23.96875 65.921875 18.8125 64.3125 
Q 13.671875 62.703125 7.8125 59.421875 
L 7.8125 69.390625 
Q 13.765625 71.78125 18.9375 73 
Q 24.125 74.21875 28.421875 74.21875 
Q 39.75 74.21875 46.484375 68.546875 
Q 53.21875 62.890625 53.21875 53.421875 
Q 53.21875 48.921875 51.53125 44.890625 
Q 49.859375 40.875 45.40625 35.40625 
Q 44.1875 33.984375 37.640625 27.21875 
Q 31.109375 20.453125 19.1875 8.296875 
z
" id="DejaVuSans-50"/>
      </defs>
      <g transform="translate(185.533608 287.910437)scale(0.1 -0.1)">
       <use xlink:href="#DejaVuSans-50"/>
      </g>
     </g>
    </g>
    <g id="xtick_4">
     <g id="line2d_4">
      <g>
       <use style="stroke:#000000;stroke-width:0.8;" x="253.645767" xlink:href="#m705e99f9a2" y="273.312"/>
      </g>
     </g>
     <g id="text_4">
      <!-- 3 -->
      <defs>
       <path d="M 40.578125 39.3125 
Q 47.65625 37.796875 51.625 33 
Q 55.609375 28.21875 55.609375 21.1875 
Q 55.609375 10.40625 48.1875 4.484375 
Q 40.765625 -1.421875 27.09375 -1.421875 
Q 22.515625 -1.421875 17.65625 -0.515625 
Q 12.796875 0.390625 7.625 2.203125 
L 7.625 11.71875 
Q 11.71875 9.328125 16.59375 8.109375 
Q 21.484375 6.890625 26.8125 6.890625 
Q 36.078125 6.890625 40.9375 10.546875 
Q 45.796875 14.203125 45.796875 21.1875 
Q 45.796875 27.640625 41.28125 31.265625 
Q 36.765625 34.90625 28.71875 34.90625 
L 20.21875 34.90625 
L 20.21875 43.015625 
L 29.109375 43.015625 
Q 36.375 43.015625 40.234375 45.921875 
Q 44.09375 48.828125 44.09375 54.296875 
Q 44.09375 59.90625 40.109375 62.90625 
Q 36.140625 65.921875 28.71875 65.921875 
Q 24.65625 65.921875 20.015625 65.03125 
Q 15.375 64.15625 9.8125 62.3125 
L 9.8125 71.09375 
Q 15.4375 72.65625 20.34375 73.4375 
Q 25.25 74.21875 29.59375 74.21875 
Q 40.828125 74.21875 47.359375 69.109375 
Q 53.90625 64.015625 53.90625 55.328125 
Q 53.90625 49.265625 50.4375 45.09375 
Q 46.96875 40.921875 40.578125 39.3125 
z
" id="DejaVuSans-51"/>
      </defs>
      <g transform="translate(250.464517 287.910437)scale(0.1 -0.1)">
       <use xlink:href="#DejaVuSans-51"/>
      </g>
     </g>
    </g>
    <g id="xtick_5">
     <g id="line2d_5">
      <g>
       <use style="stroke:#000000;stroke-width:0.8;" x="318.576676" xlink:href="#m705e99f9a2" y="273.312"/>
      </g>
     </g>
     <g id="text_5">
      <!-- 4 -->
      <defs>
       <path d="M 37.796875 64.3125 
L 12.890625 25.390625 
L 37.796875 25.390625 
z
M 35.203125 72.90625 
L 47.609375 72.90625 
L 47.609375 25.390625 
L 58.015625 25.390625 
L 58.015625 17.1875 
L 47.609375 17.1875 
L 47.609375 0 
L 37.796875 0 
L 37.796875 17.1875 
L 4.890625 17.1875 
L 4.890625 26.703125 
z
" id="DejaVuSans-52"/>
      </defs>
      <g transform="translate(315.395426 287.910437)scale(0.1 -0.1)">
       <use xlink:href="#DejaVuSans-52"/>
      </g>
     </g>
    </g>
    <g id="xtick_6">
     <g id="line2d_6">
      <g>
       <use style="stroke:#000000;stroke-width:0.8;" x="383.507585" xlink:href="#m705e99f9a2" y="273.312"/>
      </g>
     </g>
     <g id="text_6">
      <!-- 5 -->
      <defs>
       <path d="M 10.796875 72.90625 
L 49.515625 72.90625 
L 49.515625 64.59375 
L 19.828125 64.59375 
L 19.828125 46.734375 
Q 21.96875 47.46875 24.109375 47.828125 
Q 26.265625 48.1875 28.421875 48.1875 
Q 40.625 48.1875 47.75 41.5 
Q 54.890625 34.8125 54.890625 23.390625 
Q 54.890625 11.625 47.5625 5.09375 
Q 40.234375 -1.421875 26.90625 -1.421875 
Q 22.3125 -1.421875 17.546875 -0.640625 
Q 12.796875 0.140625 7.71875 1.703125 
L 7.71875 11.625 
Q 12.109375 9.234375 16.796875 8.0625 
Q 21.484375 6.890625 26.703125 6.890625 
Q 35.15625 6.890625 40.078125 11.328125 
Q 45.015625 15.765625 45.015625 23.390625 
Q 45.015625 31 40.078125 35.4375 
Q 35.15625 39.890625 26.703125 39.890625 
Q 22.75 39.890625 18.8125 39.015625 
Q 14.890625 38.140625 10.796875 36.28125 
z
" id="DejaVuSans-53"/>
      </defs>
      <g transform="translate(380.326335 287.910437)scale(0.1 -0.1)">
       <use xlink:href="#DejaVuSans-53"/>
      </g>
     </g>
    </g>
    <g id="text_7">
     <!-- x -->
     <defs>
      <path d="M 54.890625 54.6875 
L 35.109375 28.078125 
L 55.90625 0 
L 45.3125 0 
L 29.390625 21.484375 
L 13.484375 0 
L 2.875 0 
L 24.125 28.609375 
L 4.6875 54.6875 
L 15.28125 54.6875 
L 29.78125 35.203125 
L 44.28125 54.6875 
z
" id="DejaVuSans-120"/>
     </defs>
     <g transform="translate(218.220938 301.588562)scale(0.1 -0.1)">
      <use xlink:href="#DejaVuSans-120"/>
     </g>
    </g>
   </g>
   <g id="matplotlib.axis_2">
    <g id="ytick_1">
     <g id="line2d_7">
      <defs>
       <path d="M 0 0 
L -3.5 0 
" id="mda748d1865" style="stroke:#000000;stroke-width:0.8;"/>
      </defs>
      <g>
       <use style="stroke:#000000;stroke-width:0.8;" x="42.620313" xlink:href="#mda748d1865" y="243.357736"/>
      </g>
     </g>
     <g id="text_8">
      <!-- −4 -->
      <defs>
       <path d="M 10.59375 35.5 
L 73.1875 35.5 
L 73.1875 27.203125 
L 10.59375 27.203125 
z
" id="DejaVuSans-8722"/>
      </defs>
      <g transform="translate(20.878125 247.156955)scale(0.1 -0.1)">
       <use xlink:href="#DejaVuSans-8722"/>
       <use x="83.789062" xlink:href="#DejaVuSans-52"/>
      </g>
     </g>
    </g>
    <g id="ytick_2">
     <g id="line2d_8">
      <g>
       <use style="stroke:#000000;stroke-width:0.8;" x="42.620313" xlink:href="#mda748d1865" y="205.37446"/>
      </g>
     </g>
     <g id="text_9">
      <!-- −2 -->
      <g transform="translate(20.878125 209.173679)scale(0.1 -0.1)">
       <use xlink:href="#DejaVuSans-8722"/>
       <use x="83.789062" xlink:href="#DejaVuSans-50"/>
      </g>
     </g>
    </g>
    <g id="ytick_3">
     <g id="line2d_9">
      <g>
       <use style="stroke:#000000;stroke-width:0.8;" x="42.620313" xlink:href="#mda748d1865" y="167.391185"/>
      </g>
     </g>
     <g id="text_10">
      <!-- 0 -->
      <g transform="translate(29.257813 171.190404)scale(0.1 -0.1)">
       <use xlink:href="#DejaVuSans-48"/>
      </g>
     </g>
    </g>
    <g id="ytick_4">
     <g id="line2d_10">
      <g>
       <use style="stroke:#000000;stroke-width:0.8;" x="42.620313" xlink:href="#mda748d1865" y="129.407909"/>
      </g>
     </g>
     <g id="text_11">
      <!-- 2 -->
      <g transform="translate(29.257813 133.207128)scale(0.1 -0.1)">
       <use xlink:href="#DejaVuSans-50"/>
      </g>
     </g>
    </g>
    <g id="ytick_5">
     <g id="line2d_11">
      <g>
       <use style="stroke:#000000;stroke-width:0.8;" x="42.620313" xlink:href="#mda748d1865" y="91.424634"/>
      </g>
     </g>
     <g id="text_12">
      <!-- 4 -->
      <g transform="translate(29.257813 95.223852)scale(0.1 -0.1)">
       <use xlink:href="#DejaVuSans-52"/>
      </g>
     </g>
    </g>
    <g id="ytick_6">
     <g id="line2d_12">
      <g>
       <use style="stroke:#000000;stroke-width:0.8;" x="42.620313" xlink:href="#mda748d1865" y="53.441358"/>
      </g>
     </g>
     <g id="text_13">
      <!-- 6 -->
      <defs>
       <path d="M 33.015625 40.375 
Q 26.375 40.375 22.484375 35.828125 
Q 18.609375 31.296875 18.609375 23.390625 
Q 18.609375 15.53125 22.484375 10.953125 
Q 26.375 6.390625 33.015625 6.390625 
Q 39.65625 6.390625 43.53125 10.953125 
Q 47.40625 15.53125 47.40625 23.390625 
Q 47.40625 31.296875 43.53125 35.828125 
Q 39.65625 40.375 33.015625 40.375 
z
M 52.59375 71.296875 
L 52.59375 62.3125 
Q 48.875 64.0625 45.09375 64.984375 
Q 41.3125 65.921875 37.59375 65.921875 
Q 27.828125 65.921875 22.671875 59.328125 
Q 17.53125 52.734375 16.796875 39.40625 
Q 19.671875 43.65625 24.015625 45.921875 
Q 28.375 48.1875 33.59375 48.1875 
Q 44.578125 48.1875 50.953125 41.515625 
Q 57.328125 34.859375 57.328125 23.390625 
Q 57.328125 12.15625 50.6875 5.359375 
Q 44.046875 -1.421875 33.015625 -1.421875 
Q 20.359375 -1.421875 13.671875 8.265625 
Q 6.984375 17.96875 6.984375 36.375 
Q 6.984375 53.65625 15.1875 63.9375 
Q 23.390625 74.21875 37.203125 74.21875 
Q 40.921875 74.21875 44.703125 73.484375 
Q 48.484375 72.75 52.59375 71.296875 
z
" id="DejaVuSans-54"/>
      </defs>
      <g transform="translate(29.257813 57.240577)scale(0.1 -0.1)">
       <use xlink:href="#DejaVuSans-54"/>
      </g>
     </g>
    </g>
    <g id="ytick_7">
     <g id="line2d_13">
      <g>
       <use style="stroke:#000000;stroke-width:0.8;" x="42.620313" xlink:href="#mda748d1865" y="15.458082"/>
      </g>
     </g>
     <g id="text_14">
      <!-- 8 -->
      <defs>
       <path d="M 31.78125 34.625 
Q 24.75 34.625 20.71875 30.859375 
Q 16.703125 27.09375 16.703125 20.515625 
Q 16.703125 13.921875 20.71875 10.15625 
Q 24.75 6.390625 31.78125 6.390625 
Q 38.8125 6.390625 42.859375 10.171875 
Q 46.921875 13.96875 46.921875 20.515625 
Q 46.921875 27.09375 42.890625 30.859375 
Q 38.875 34.625 31.78125 34.625 
z
M 21.921875 38.8125 
Q 15.578125 40.375 12.03125 44.71875 
Q 8.5 49.078125 8.5 55.328125 
Q 8.5 64.0625 14.71875 69.140625 
Q 20.953125 74.21875 31.78125 74.21875 
Q 42.671875 74.21875 48.875 69.140625 
Q 55.078125 64.0625 55.078125 55.328125 
Q 55.078125 49.078125 51.53125 44.71875 
Q 48 40.375 41.703125 38.8125 
Q 48.828125 37.15625 52.796875 32.3125 
Q 56.78125 27.484375 56.78125 20.515625 
Q 56.78125 9.90625 50.3125 4.234375 
Q 43.84375 -1.421875 31.78125 -1.421875 
Q 19.734375 -1.421875 13.25 4.234375 
Q 6.78125 9.90625 6.78125 20.515625 
Q 6.78125 27.484375 10.78125 32.3125 
Q 14.796875 37.15625 21.921875 38.8125 
z
M 18.3125 54.390625 
Q 18.3125 48.734375 21.84375 45.5625 
Q 25.390625 42.390625 31.78125 42.390625 
Q 38.140625 42.390625 41.71875 45.5625 
Q 45.3125 48.734375 45.3125 54.390625 
Q 45.3125 60.0625 41.71875 63.234375 
Q 38.140625 66.40625 31.78125 66.40625 
Q 25.390625 66.40625 21.84375 63.234375 
Q 18.3125 60.0625 18.3125 54.390625 
z
" id="DejaVuSans-56"/>
      </defs>
      <g transform="translate(29.257813 19.257301)scale(0.1 -0.1)">
       <use xlink:href="#DejaVuSans-56"/>
      </g>
     </g>
    </g>
    <g id="text_15">
     <!-- y -->
     <defs>
      <path d="M 32.171875 -5.078125 
Q 28.375 -14.84375 24.75 -17.8125 
Q 21.140625 -20.796875 15.09375 -20.796875 
L 7.90625 -20.796875 
L 7.90625 -13.28125 
L 13.1875 -13.28125 
Q 16.890625 -13.28125 18.9375 -11.515625 
Q 21 -9.765625 23.484375 -3.21875 
L 25.09375 0.875 
L 2.984375 54.6875 
L 12.5 54.6875 
L 29.59375 11.921875 
L 46.6875 54.6875 
L 56.203125 54.6875 
z
" id="DejaVuSans-121"/>
     </defs>
     <g transform="translate(14.798438 143.215375)rotate(-90)scale(0.1 -0.1)">
      <use xlink:href="#DejaVuSans-121"/>
     </g>
    </g>
   </g>
   <g id="LineCollection_1">
    <path clip-path="url(#p15e5ac6f79)" d="M 180.449192 242.756515 
L 180.449192 204.773239 
" style="fill:none;stroke:#ffa500;stroke-width:1.5;"/>
    <path clip-path="url(#p15e5ac6f79)" d="M 367.506761 201.821152 
L 367.506761 163.837877 
" style="fill:none;stroke:#ffa500;stroke-width:1.5;"/>
    <path clip-path="url(#p15e5ac6f79)" d="M 296.4982 106.284974 
L 296.4982 68.301699 
" style="fill:none;stroke:#ffa500;stroke-width:1.5;"/>
    <path clip-path="url(#p15e5ac6f79)" d="M 253.210238 195.333671 
L 253.210238 157.350395 
" style="fill:none;stroke:#ffa500;stroke-width:1.5;"/>
    <path clip-path="url(#p15e5ac6f79)" d="M 109.505201 59.949612 
L 109.505201 21.966337 
" style="fill:none;stroke:#ffa500;stroke-width:1.5;"/>
    <path clip-path="url(#p15e5ac6f79)" d="M 109.49737 92.071278 
L 109.49737 54.088003 
" style="fill:none;stroke:#ffa500;stroke-width:1.5;"/>
    <path clip-path="url(#p15e5ac6f79)" d="M 77.710148 120.528483 
L 77.710148 82.545207 
" style="fill:none;stroke:#ffa500;stroke-width:1.5;"/>
    <path clip-path="url(#p15e5ac6f79)" d="M 340.061063 166.783632 
L 340.061063 128.800357 
" style="fill:none;stroke:#ffa500;stroke-width:1.5;"/>
    <path clip-path="url(#p15e5ac6f79)" d="M 254.007761 176.798561 
L 254.007761 138.815285 
" style="fill:none;stroke:#ffa500;stroke-width:1.5;"/>
    <path clip-path="url(#p15e5ac6f79)" d="M 288.732021 93.085371 
L 288.732021 55.102096 
" style="fill:none;stroke:#ffa500;stroke-width:1.5;"/>
    <path clip-path="url(#p15e5ac6f79)" d="M 65.535889 172.189144 
L 65.535889 134.205868 
" style="fill:none;stroke:#ffa500;stroke-width:1.5;"/>
    <path clip-path="url(#p15e5ac6f79)" d="M 373.738682 213.573203 
L 373.738682 175.589928 
" style="fill:none;stroke:#ffa500;stroke-width:1.5;"/>
    <path clip-path="url(#p15e5ac6f79)" d="M 329.109327 126.958729 
L 329.109327 88.975454 
" style="fill:none;stroke:#ffa500;stroke-width:1.5;"/>
    <path clip-path="url(#p15e5ac6f79)" d="M 127.789897 109.567472 
L 127.789897 71.584197 
" style="fill:none;stroke:#ffa500;stroke-width:1.5;"/>
    <path clip-path="url(#p15e5ac6f79)" d="M 117.883342 103.442557 
L 117.883342 65.459282 
" style="fill:none;stroke:#ffa500;stroke-width:1.5;"/>
    <path clip-path="url(#p15e5ac6f79)" d="M 118.396148 57.279276 
L 118.396148 19.296 
" style="fill:none;stroke:#ffa500;stroke-width:1.5;"/>
    <path clip-path="url(#p15e5ac6f79)" d="M 157.626667 171.189882 
L 157.626667 133.206606 
" style="fill:none;stroke:#ffa500;stroke-width:1.5;"/>
    <path clip-path="url(#p15e5ac6f79)" d="M 229.217601 244.024813 
L 229.217601 206.041537 
" style="fill:none;stroke:#ffa500;stroke-width:1.5;"/>
    <path clip-path="url(#p15e5ac6f79)" d="M 199.085953 230.113115 
L 199.085953 192.129839 
" style="fill:none;stroke:#ffa500;stroke-width:1.5;"/>
    <path clip-path="url(#p15e5ac6f79)" d="M 153.401904 183.261039 
L 153.401904 145.277763 
" style="fill:none;stroke:#ffa500;stroke-width:1.5;"/>
   </g>
   <g id="line2d_14">
    <path clip-path="url(#p15e5ac6f79)" d="M 58.85304 158.555679 
L 66.989745 136.873288 
L 72.685439 122.290505 
L 78.381133 108.918359 
L 80.822144 103.746775 
L 84.076827 97.300588 
L 88.145179 90.110363 
L 90.586191 86.418607 
L 92.213532 84.06866 
L 95.468214 80.046611 
L 97.909226 77.5522 
L 101.163908 74.889281 
L 102.791249 73.878546 
L 104.41859 73.20442 
L 106.859602 72.558746 
L 108.486943 72.337675 
L 110.114284 72.395613 
L 112.555295 72.841763 
L 114.182636 73.474403 
L 116.623648 74.770893 
L 118.250989 75.873812 
L 119.87833 77.255182 
L 121.505671 78.824931 
L 123.946683 81.597234 
L 127.201365 86.143334 
L 131.269718 92.727743 
L 132.897059 95.687142 
L 137.779082 105.532043 
L 140.220094 110.795816 
L 145.915788 124.373805 
L 150.797811 136.782518 
L 158.120846 156.092063 
L 170.325904 187.608578 
L 174.394256 197.214991 
L 179.27628 207.931721 
L 181.717291 212.774962 
L 184.971973 218.694017 
L 188.226656 223.861049 
L 190.667667 227.225121 
L 193.108679 230.145363 
L 195.54969 232.450209 
L 198.804373 234.929169 
L 200.431714 235.87722 
L 202.872725 236.779965 
L 204.500066 237.18145 
L 206.127408 237.292458 
L 207.754749 237.256049 
L 209.38209 237.019349 
L 211.009431 236.417394 
L 212.636772 235.664052 
L 214.264113 234.750789 
L 215.891454 233.539708 
L 217.518795 232.122155 
L 219.146136 230.509947 
L 221.587148 227.665508 
L 224.028159 224.40737 
L 227.282842 219.321256 
L 229.723853 214.936428 
L 232.164865 210.32865 
L 235.419547 203.614832 
L 238.674229 196.368044 
L 243.556252 184.647433 
L 250.879287 165.550507 
L 259.015993 143.949311 
L 269.59371 117.386993 
L 273.662062 108.122172 
L 276.916744 101.139795 
L 280.171427 94.869161 
L 282.612438 90.581787 
L 285.05345 86.716029 
L 287.494462 83.283139 
L 289.121803 81.255993 
L 291.562814 78.590937 
L 294.003826 76.420291 
L 296.444837 74.587607 
L 298.072179 73.694988 
L 299.69952 73.035115 
L 302.140531 72.432185 
L 303.767872 72.307914 
L 305.395213 72.390039 
L 307.022554 72.800107 
L 308.649896 73.411051 
L 311.090907 74.657124 
L 312.718248 75.679509 
L 315.15926 77.751475 
L 317.600271 80.2303 
L 320.854954 84.445401 
L 323.295965 87.990304 
L 327.364318 94.909561 
L 328.991659 97.996893 
L 331.432671 102.790344 
L 333.873682 108.008288 
L 337.128364 115.487573 
L 339.569376 121.339791 
L 343.637729 131.432795 
L 347.706081 141.998643 
L 356.656457 165.751819 
L 363.165822 182.62011 
L 367.234174 192.593289 
L 370.488857 200.029246 
L 372.929868 205.244649 
L 377.811891 214.789592 
L 380.252903 219.015007 
L 381.880244 221.578133 
L 383.507585 223.929222 
L 383.507585 223.929222 
" style="fill:none;stroke:#000000;stroke-linecap:square;stroke-width:1.5;"/>
   </g>
   <g id="line2d_15">
    <defs>
     <path d="M 0 3 
C 0.795609 3 1.55874 2.683901 2.12132 2.12132 
C 2.683901 1.55874 3 0.795609 3 0 
C 3 -0.795609 2.683901 -1.55874 2.12132 -2.12132 
C 1.55874 -2.683901 0.795609 -3 0 -3 
C -0.795609 -3 -1.55874 -2.683901 -2.12132 -2.12132 
C -2.683901 -1.55874 -3 -0.795609 -3 0 
C -3 0.795609 -2.683901 1.55874 -2.12132 2.12132 
C -1.55874 2.683901 -0.795609 3 0 3 
z
" id="m4dff34176b" style="stroke:#ffa500;"/>
    </defs>
    <g clip-path="url(#p15e5ac6f79)">
     <use style="fill:#ffa500;stroke:#ffa500;" x="180.449192" xlink:href="#m4dff34176b" y="223.764877"/>
     <use style="fill:#ffa500;stroke:#ffa500;" x="367.506761" xlink:href="#m4dff34176b" y="182.829515"/>
     <use style="fill:#ffa500;stroke:#ffa500;" x="296.4982" xlink:href="#m4dff34176b" y="87.293336"/>
     <use style="fill:#ffa500;stroke:#ffa500;" x="253.210238" xlink:href="#m4dff34176b" y="176.342033"/>
     <use style="fill:#ffa500;stroke:#ffa500;" x="109.505201" xlink:href="#m4dff34176b" y="40.957975"/>
     <use style="fill:#ffa500;stroke:#ffa500;" x="109.49737" xlink:href="#m4dff34176b" y="73.079641"/>
     <use style="fill:#ffa500;stroke:#ffa500;" x="77.710148" xlink:href="#m4dff34176b" y="101.536845"/>
     <use style="fill:#ffa500;stroke:#ffa500;" x="340.061063" xlink:href="#m4dff34176b" y="147.791995"/>
     <use style="fill:#ffa500;stroke:#ffa500;" x="254.007761" xlink:href="#m4dff34176b" y="157.806923"/>
     <use style="fill:#ffa500;stroke:#ffa500;" x="288.732021" xlink:href="#m4dff34176b" y="74.093734"/>
     <use style="fill:#ffa500;stroke:#ffa500;" x="65.535889" xlink:href="#m4dff34176b" y="153.197506"/>
     <use style="fill:#ffa500;stroke:#ffa500;" x="373.738682" xlink:href="#m4dff34176b" y="194.581565"/>
     <use style="fill:#ffa500;stroke:#ffa500;" x="329.109327" xlink:href="#m4dff34176b" y="107.967092"/>
     <use style="fill:#ffa500;stroke:#ffa500;" x="127.789897" xlink:href="#m4dff34176b" y="90.575834"/>
     <use style="fill:#ffa500;stroke:#ffa500;" x="117.883342" xlink:href="#m4dff34176b" y="84.450919"/>
     <use style="fill:#ffa500;stroke:#ffa500;" x="118.396148" xlink:href="#m4dff34176b" y="38.287638"/>
     <use style="fill:#ffa500;stroke:#ffa500;" x="157.626667" xlink:href="#m4dff34176b" y="152.198244"/>
     <use style="fill:#ffa500;stroke:#ffa500;" x="229.217601" xlink:href="#m4dff34176b" y="225.033175"/>
     <use style="fill:#ffa500;stroke:#ffa500;" x="199.085953" xlink:href="#m4dff34176b" y="211.121477"/>
     <use style="fill:#ffa500;stroke:#ffa500;" x="153.401904" xlink:href="#m4dff34176b" y="164.269401"/>
    </g>
   </g>
   <g id="patch_3">
    <path d="M 42.620313 273.312 
L 42.620313 7.2 
" style="fill:none;stroke:#000000;stroke-linecap:square;stroke-linejoin:miter;stroke-width:0.8;"/>
   </g>
   <g id="patch_4">
    <path d="M 399.740313 273.312 
L 399.740313 7.2 
" style="fill:none;stroke:#000000;stroke-linecap:square;stroke-linejoin:miter;stroke-width:0.8;"/>
   </g>
   <g id="patch_5">
    <path d="M 42.620313 273.312 
L 399.740313 273.312 
" style="fill:none;stroke:#000000;stroke-linecap:square;stroke-linejoin:miter;stroke-width:0.8;"/>
   </g>
   <g id="patch_6">
    <path d="M 42.620313 7.2 
L 399.740313 7.2 
" style="fill:none;stroke:#000000;stroke-linecap:square;stroke-linejoin:miter;stroke-width:0.8;"/>
   </g>
  </g>
 </g>
 <defs>
  <clipPath id="p15e5ac6f79">
   <rect height="266.112" width="357.12" x="42.620313" y="7.2"/>
  </clipPath>
 </defs>
</svg>
