<?xml version="1.0" encoding="utf-8" standalone="no"?>
<!DOCTYPE svg PUBLIC "-//W3C//DTD SVG 1.1//EN"
  "http://www.w3.org/Graphics/SVG/1.1/DTD/svg11.dtd">
<svg height="310.062pt" version="1.1" viewBox="0 0 421.529375 310.062" width="421.529375pt" xmlns="http://www.w3.org/2000/svg" xmlns:xlink="http://www.w3.org/1999/xlink">
 <metadata>
  <rdf:RDF xmlns:cc="http://creativecommons.org/ns#" xmlns:dc="http://purl.org/dc/elements/1.1/" xmlns:rdf="http://www.w3.org/1999/02/22-rdf-syntax-ns#">
   <cc:Work>
    <dc:type rdf:resource="http://purl.org/dc/dcmitype/StillImage"/>
    <dc:date>2022-04-05T15:34:39.434759</dc:date>
    <dc:format>image/svg+xml</dc:format>
    <dc:creator>
     <cc:Agent>
      <dc:title>Matplotlib v3.4.2, https://matplotlib.org/</dc:title>
     </cc:Agent>
    </dc:creator>
   </cc:Work>
  </rdf:RDF>
 </metadata>
 <defs>
  <style type="text/css">*{stroke-linecap:butt;stroke-linejoin:round;}</style>
 </defs>
 <g id="figure_1">
  <g id="patch_1">
   <path d="M 0 310.062 
L 421.529375 310.062 
L 421.529375 0 
L 0 0 
z
" style="fill:#ffffff;"/>
  </g>
  <g id="axes_1">
   <g id="patch_2">
    <path d="M 55.459375 275.062 
L 412.579375 275.062 
L 412.579375 8.95 
L 55.459375 8.95 
z
" style="fill:#ffffff;"/>
   </g>
   <g id="PolyCollection_1">
    <defs>
     <path d="M 76.264702 -88.210463 
L 76.264702 -56.327584 
L 77.066912 -56.845664 
L 77.869122 -57.363744 
L 78.671333 -57.881823 
L 79.473543 -58.399903 
L 80.275753 -58.917983 
L 81.077964 -59.436064 
L 81.880174 -59.956968 
L 82.682385 -60.479382 
L 83.484595 -61.001796 
L 84.286805 -61.52421 
L 85.089016 -62.046624 
L 85.891226 -62.569039 
L 86.693437 -63.091453 
L 87.495647 -63.613868 
L 88.297857 -64.136282 
L 89.100068 -64.658697 
L 89.902278 -65.181112 
L 90.704489 -65.703527 
L 91.506699 -66.225942 
L 92.308909 -66.748357 
L 93.11112 -67.270772 
L 93.91333 -67.793187 
L 94.715541 -68.315602 
L 95.517751 -68.838017 
L 96.319961 -69.360433 
L 97.122172 -69.882848 
L 97.924382 -70.405264 
L 98.726592 -70.927679 
L 99.528803 -71.450095 
L 100.331013 -71.972511 
L 101.133224 -72.494927 
L 101.935434 -73.017342 
L 102.737644 -73.539758 
L 103.539855 -74.062174 
L 104.342065 -74.584591 
L 105.144276 -75.107007 
L 105.946486 -75.629423 
L 106.748696 -76.151839 
L 107.550907 -76.674256 
L 108.353117 -77.196672 
L 109.155328 -77.719089 
L 109.957538 -78.241505 
L 110.759748 -78.763922 
L 111.561959 -79.286339 
L 112.364169 -79.808756 
L 113.16638 -80.331173 
L 113.96859 -80.85359 
L 114.7708 -81.376007 
L 115.573011 -81.898424 
L 116.375221 -82.420841 
L 117.177431 -82.943259 
L 117.979642 -83.465676 
L 118.781852 -83.988093 
L 119.584063 -84.510511 
L 120.386273 -85.032929 
L 121.188483 -85.555346 
L 121.990694 -86.077764 
L 122.792904 -86.600182 
L 123.595115 -87.1226 
L 124.397325 -87.645018 
L 125.199535 -88.167436 
L 126.001746 -88.689854 
L 126.803956 -89.212272 
L 127.606167 -89.73469 
L 128.408377 -90.257109 
L 129.210587 -90.786242 
L 130.012798 -91.317675 
L 130.815008 -91.84911 
L 131.617219 -92.380547 
L 132.419429 -92.911985 
L 133.221639 -93.443426 
L 134.02385 -93.974868 
L 134.82606 -94.506312 
L 135.62827 -95.037757 
L 136.430481 -95.569205 
L 137.232691 -96.100654 
L 138.034902 -96.632105 
L 138.837112 -97.175932 
L 139.639322 -97.728388 
L 140.441533 -98.280846 
L 141.243743 -98.833306 
L 142.045954 -99.385767 
L 142.848164 -99.93823 
L 143.650374 -100.490695 
L 144.452585 -101.043162 
L 145.254795 -101.59563 
L 146.057006 -102.148101 
L 146.859216 -102.700572 
L 147.661426 -103.253046 
L 148.463637 -103.805522 
L 149.265847 -104.357999 
L 150.068058 -104.910478 
L 150.870268 -105.462958 
L 151.672478 -106.015441 
L 152.474689 -106.567925 
L 153.276899 -107.120411 
L 154.079109 -107.672899 
L 154.88132 -108.225388 
L 155.68353 -108.77788 
L 156.485741 -109.330373 
L 157.287951 -109.882867 
L 158.090161 -110.435364 
L 158.892372 -110.987862 
L 159.694582 -111.540362 
L 160.496793 -112.092864 
L 161.299003 -112.645367 
L 162.101213 -113.172471 
L 162.903424 -113.693113 
L 163.705634 -114.215678 
L 164.507845 -114.745348 
L 165.310055 -115.275021 
L 166.112265 -115.804697 
L 166.914476 -116.334376 
L 167.716686 -116.864058 
L 168.518897 -117.393744 
L 169.321107 -117.923432 
L 170.123317 -118.453124 
L 170.925528 -118.982819 
L 171.727738 -119.512517 
L 172.529948 -120.042217 
L 173.332159 -120.571922 
L 174.134369 -121.101629 
L 174.93658 -121.631339 
L 175.73879 -122.161052 
L 176.541 -122.690769 
L 177.343211 -123.220488 
L 178.145421 -123.750211 
L 178.947632 -124.279937 
L 179.749842 -124.809666 
L 180.552052 -125.339398 
L 181.354263 -125.890789 
L 182.156473 -126.44844 
L 182.958684 -127.006094 
L 183.760894 -127.563751 
L 184.563104 -128.121412 
L 185.365315 -128.679075 
L 186.167525 -129.236742 
L 186.969736 -129.794411 
L 187.771946 -130.352084 
L 188.574156 -130.90976 
L 189.376367 -131.467439 
L 190.178577 -132.025121 
L 190.980787 -132.582806 
L 191.782998 -133.140495 
L 192.585208 -133.698186 
L 193.387419 -134.23923 
L 194.189629 -134.755188 
L 194.991839 -135.271146 
L 195.79405 -135.787104 
L 196.59626 -136.303063 
L 197.398471 -136.819021 
L 198.200681 -137.334979 
L 199.002891 -137.850938 
L 199.805102 -138.366896 
L 200.607312 -138.882855 
L 201.409523 -139.398813 
L 202.211733 -139.914771 
L 203.013943 -140.43073 
L 203.816154 -140.946689 
L 204.618364 -141.462647 
L 205.420575 -141.978606 
L 206.222785 -142.494564 
L 207.024995 -143.010523 
L 207.827206 -143.526482 
L 208.629416 -144.042441 
L 209.431626 -144.558399 
L 210.233837 -145.074358 
L 211.036047 -145.590317 
L 211.838258 -146.106276 
L 212.640468 -146.622235 
L 213.442678 -147.140515 
L 214.244889 -147.666756 
L 215.047099 -148.193001 
L 215.84931 -148.71925 
L 216.65152 -149.245503 
L 217.45373 -149.77176 
L 218.255941 -150.298021 
L 219.058151 -150.824286 
L 219.860362 -151.350555 
L 220.662572 -151.876828 
L 221.464782 -152.403105 
L 222.266993 -152.929386 
L 223.069203 -153.485256 
L 223.871414 -154.043284 
L 224.673624 -154.601317 
L 225.475834 -155.159354 
L 226.278045 -155.717395 
L 227.080255 -156.27544 
L 227.882466 -156.833489 
L 228.684676 -157.391542 
L 229.486886 -157.949599 
L 230.289097 -158.50766 
L 231.091307 -159.065725 
L 231.893517 -159.623794 
L 232.695728 -160.181867 
L 233.497938 -160.739944 
L 234.300149 -161.298025 
L 235.102359 -161.85611 
L 235.904569 -162.4142 
L 236.70678 -162.972293 
L 237.50899 -163.541863 
L 238.311201 -164.119372 
L 239.113411 -164.696882 
L 239.915621 -165.274394 
L 240.717832 -165.820643 
L 241.520042 -166.301652 
L 242.322253 -166.782698 
L 243.124463 -167.263778 
L 243.926673 -167.744894 
L 244.728884 -168.242978 
L 245.531094 -168.818236 
L 246.333305 -169.29283 
L 247.135515 -169.747792 
L 247.937725 -170.202755 
L 248.739936 -170.657717 
L 249.542146 -171.11268 
L 250.344356 -171.567642 
L 251.146567 -172.022605 
L 251.948777 -172.477568 
L 252.750988 -172.932531 
L 253.553198 -173.387495 
L 254.355408 -173.842458 
L 255.157619 -174.298397 
L 255.959829 -174.767357 
L 256.76204 -175.236322 
L 257.56425 -175.705291 
L 258.36646 -176.174265 
L 259.168671 -176.643244 
L 259.970881 -177.12775 
L 260.773092 -177.630625 
L 261.575302 -178.133505 
L 262.377512 -178.636389 
L 263.179723 -179.139278 
L 263.981933 -179.64367 
L 264.784144 -180.159631 
L 265.586354 -180.675592 
L 266.388564 -181.193131 
L 267.190775 -181.716725 
L 267.992985 -182.240322 
L 268.795195 -182.76392 
L 269.597406 -183.287521 
L 270.399616 -183.811124 
L 271.201827 -184.33473 
L 272.004037 -184.860152 
L 272.806247 -185.408006 
L 273.608458 -185.955862 
L 274.410668 -186.399217 
L 275.212879 -186.878981 
L 276.015089 -187.383087 
L 276.817299 -187.899049 
L 277.61951 -188.41501 
L 278.42172 -188.930971 
L 279.223931 -189.446933 
L 280.026141 -189.962894 
L 280.828351 -190.478856 
L 281.630562 -190.994818 
L 282.432772 -191.510779 
L 283.234983 -192.026741 
L 284.037193 -192.542703 
L 284.839403 -193.058664 
L 285.641614 -193.574626 
L 286.443824 -194.090588 
L 287.246034 -194.595094 
L 288.048245 -195.063511 
L 288.850455 -195.531933 
L 289.652666 -196.023099 
L 290.454876 -196.52938 
L 291.257086 -197.035666 
L 292.059297 -197.541959 
L 292.861507 -198.048256 
L 293.663718 -198.558 
L 294.465928 -199.078646 
L 295.268138 -199.543632 
L 296.070349 -199.877129 
L 296.872559 -200.334978 
L 297.67477 -200.828017 
L 298.47698 -201.337642 
L 299.27919 -201.847273 
L 300.081401 -202.35691 
L 300.883611 -202.866554 
L 301.685822 -203.352218 
L 302.488032 -203.805883 
L 303.290242 -204.259547 
L 304.092453 -204.713212 
L 304.894663 -205.166876 
L 305.696873 -205.620541 
L 306.499084 -206.074205 
L 307.301294 -206.52787 
L 308.103505 -206.981534 
L 308.905715 -207.435199 
L 309.707925 -207.888863 
L 310.510136 -208.342528 
L 311.312346 -208.796193 
L 312.114557 -209.227508 
L 312.916767 -209.641764 
L 313.718977 -210.056024 
L 314.521188 -210.470287 
L 315.323398 -210.884554 
L 316.125609 -211.298825 
L 316.927819 -211.713099 
L 317.730029 -212.127377 
L 318.53224 -212.541658 
L 319.33445 -212.96067 
L 320.136661 -213.387781 
L 320.938871 -213.863108 
L 321.741081 -214.356154 
L 322.543292 -214.857377 
L 323.345502 -215.36111 
L 324.147712 -215.864847 
L 324.949923 -216.36859 
L 325.752133 -216.872338 
L 326.554344 -217.376091 
L 327.356554 -217.869484 
L 328.158764 -218.322683 
L 328.960975 -218.745518 
L 329.763185 -219.168356 
L 330.565396 -219.591195 
L 331.367606 -220.014038 
L 332.169816 -220.436882 
L 332.972027 -220.859728 
L 333.774237 -221.282577 
L 334.576448 -221.705428 
L 335.378658 -222.128281 
L 336.180868 -222.551137 
L 336.983079 -222.973994 
L 337.785289 -223.396854 
L 338.5875 -223.819716 
L 339.38971 -224.242581 
L 340.19192 -224.665447 
L 340.994131 -225.102459 
L 341.796341 -225.548958 
L 342.598551 -225.995459 
L 343.400762 -226.441963 
L 344.202972 -226.888468 
L 345.005183 -227.329452 
L 345.807393 -227.686643 
L 346.609603 -228.043842 
L 347.411814 -228.401048 
L 348.214024 -228.798774 
L 349.016235 -229.198175 
L 349.818445 -229.597584 
L 350.620655 -229.996999 
L 351.422866 -230.396422 
L 352.225076 -230.795852 
L 353.027287 -231.195288 
L 353.829497 -231.594732 
L 354.631707 -231.994183 
L 355.433918 -232.393641 
L 356.236128 -232.793107 
L 357.038339 -233.192579 
L 357.840549 -233.592058 
L 358.642759 -234.014871 
L 359.44497 -234.438099 
L 360.24718 -234.861329 
L 361.04939 -235.284562 
L 361.851601 -235.707797 
L 362.653811 -236.131035 
L 363.456022 -236.554275 
L 364.258232 -236.977518 
L 365.060442 -237.400763 
L 365.862653 -237.82401 
L 366.664863 -238.24726 
L 367.467074 -238.670513 
L 368.269284 -239.093767 
L 369.071494 -239.517025 
L 369.873705 -239.940284 
L 370.675915 -240.363546 
L 371.478126 -240.786811 
L 372.280336 -241.210078 
L 373.082546 -241.633348 
L 373.884757 -242.056619 
L 374.686967 -242.479894 
L 375.489178 -242.903171 
L 376.291388 -243.348457 
L 377.093598 -243.796515 
L 377.895809 -244.244576 
L 378.698019 -244.692639 
L 379.50023 -245.140705 
L 380.30244 -245.588773 
L 381.10465 -246.036843 
L 381.906861 -246.484916 
L 382.709071 -246.932992 
L 383.511281 -247.38107 
L 384.313492 -247.82915 
L 385.115702 -248.277233 
L 385.917913 -248.715785 
L 386.720123 -249.100379 
L 387.522333 -249.484975 
L 388.324544 -249.869573 
L 389.126754 -250.254173 
L 389.928965 -250.638774 
L 390.731175 -251.023378 
L 391.533385 -251.407983 
L 392.335596 -251.792591 
L 393.137806 -252.1772 
L 393.940017 -252.561812 
L 394.742227 -252.946425 
L 395.544437 -253.33104 
L 396.346648 -253.715657 
L 396.346648 -269.152541 
L 396.346648 -269.152541 
L 395.544437 -268.666359 
L 394.742227 -268.157547 
L 393.940017 -267.648739 
L 393.137806 -267.139937 
L 392.335596 -266.631139 
L 391.533385 -266.122346 
L 390.731175 -265.613557 
L 389.928965 -265.104773 
L 389.126754 -264.595995 
L 388.324544 -264.08722 
L 387.522333 -263.578451 
L 386.720123 -263.069687 
L 385.917913 -262.560927 
L 385.115702 -262.052172 
L 384.313492 -261.543421 
L 383.511281 -261.034676 
L 382.709071 -260.525935 
L 381.906861 -260.017199 
L 381.10465 -259.508468 
L 380.30244 -259.001694 
L 379.50023 -258.522 
L 378.698019 -258.024773 
L 377.895809 -257.527554 
L 377.093598 -257.030342 
L 376.291388 -256.533138 
L 375.489178 -256.035942 
L 374.686967 -255.538753 
L 373.884757 -255.041572 
L 373.082546 -254.544399 
L 372.280336 -254.047234 
L 371.478126 -253.550076 
L 370.675915 -253.052925 
L 369.873705 -252.555783 
L 369.071494 -252.058648 
L 368.269284 -251.561521 
L 367.467074 -251.064401 
L 366.664863 -250.538256 
L 365.862653 -250.03391 
L 365.060442 -249.552308 
L 364.258232 -249.070706 
L 363.456022 -248.589105 
L 362.653811 -248.107503 
L 361.851601 -247.625901 
L 361.04939 -247.144299 
L 360.24718 -246.662697 
L 359.44497 -246.181095 
L 358.642759 -245.699494 
L 357.840549 -245.217892 
L 357.038339 -244.73629 
L 356.236128 -244.254688 
L 355.433918 -243.773086 
L 354.631707 -243.291484 
L 353.829497 -242.809883 
L 353.027287 -242.328281 
L 352.225076 -241.846679 
L 351.422866 -241.365077 
L 350.620655 -240.883475 
L 349.818445 -240.401874 
L 349.016235 -239.920272 
L 348.214024 -239.43867 
L 347.411814 -238.957068 
L 346.609603 -238.475466 
L 345.807393 -237.993864 
L 345.005183 -237.512263 
L 344.202972 -237.030661 
L 343.400762 -236.549059 
L 342.598551 -236.067457 
L 341.796341 -235.585855 
L 340.994131 -235.104253 
L 340.19192 -234.622652 
L 339.38971 -234.14105 
L 338.5875 -233.659448 
L 337.785289 -233.177846 
L 336.983079 -232.696244 
L 336.180868 -232.214643 
L 335.378658 -231.733041 
L 334.576448 -231.251439 
L 333.774237 -230.769837 
L 332.972027 -230.288235 
L 332.169816 -229.806633 
L 331.367606 -229.325032 
L 330.565396 -228.84343 
L 329.763185 -228.361828 
L 328.960975 -227.880226 
L 328.158764 -227.398624 
L 327.356554 -226.917023 
L 326.554344 -226.435421 
L 325.752133 -225.953819 
L 324.949923 -225.472217 
L 324.147712 -224.990615 
L 323.345502 -224.509013 
L 322.543292 -224.027301 
L 321.741081 -223.52793 
L 320.938871 -223.046301 
L 320.136661 -222.564671 
L 319.33445 -222.083042 
L 318.53224 -221.601413 
L 317.730029 -221.119784 
L 316.927819 -220.638154 
L 316.125609 -220.156525 
L 315.323398 -219.674896 
L 314.521188 -219.193266 
L 313.718977 -218.711637 
L 312.916767 -218.230008 
L 312.114557 -217.748379 
L 311.312346 -217.266749 
L 310.510136 -216.78512 
L 309.707925 -216.303491 
L 308.905715 -215.821862 
L 308.103505 -215.331395 
L 307.301294 -214.78776 
L 306.499084 -214.244132 
L 305.696873 -213.696748 
L 304.894663 -213.135205 
L 304.092453 -212.573661 
L 303.290242 -212.012118 
L 302.488032 -211.450575 
L 301.685822 -210.890258 
L 300.883611 -210.42107 
L 300.081401 -209.916636 
L 299.27919 -209.374935 
L 298.47698 -208.824976 
L 297.67477 -208.248781 
L 296.872559 -207.672589 
L 296.070349 -207.096399 
L 295.268138 -206.520211 
L 294.465928 -205.944026 
L 293.663718 -205.481104 
L 292.861507 -205.123505 
L 292.059297 -204.753934 
L 291.257086 -204.384365 
L 290.454876 -204.014798 
L 289.652666 -203.645232 
L 288.850455 -203.275668 
L 288.048245 -202.906106 
L 287.246034 -202.536545 
L 286.443824 -202.154235 
L 285.641614 -201.7556 
L 284.839403 -201.35698 
L 284.037193 -200.891354 
L 283.234983 -200.409725 
L 282.432772 -199.928096 
L 281.630562 -199.446466 
L 280.828351 -198.964837 
L 280.026141 -198.483208 
L 279.223931 -198.001579 
L 278.42172 -197.519949 
L 277.61951 -197.03832 
L 276.817299 -196.556691 
L 276.015089 -196.075062 
L 275.212879 -195.593432 
L 274.410668 -195.111803 
L 273.608458 -194.630174 
L 272.806247 -194.148545 
L 272.004037 -193.667684 
L 271.201827 -193.196198 
L 270.399616 -192.723293 
L 269.597406 -192.241691 
L 268.795195 -191.76009 
L 267.992985 -191.278488 
L 267.190775 -190.796886 
L 266.388564 -190.315284 
L 265.586354 -189.833682 
L 264.784144 -189.352081 
L 263.981933 -188.870479 
L 263.179723 -188.388877 
L 262.377512 -187.978118 
L 261.575302 -187.541448 
L 260.773092 -187.101257 
L 259.970881 -186.66112 
L 259.168671 -186.200311 
L 258.36646 -185.728974 
L 257.56425 -185.257641 
L 256.76204 -184.78631 
L 255.959829 -184.314983 
L 255.157619 -183.843659 
L 254.355408 -183.372339 
L 253.553198 -182.901021 
L 252.750988 -182.429707 
L 251.948777 -181.981722 
L 251.146567 -181.553272 
L 250.344356 -181.124821 
L 249.542146 -180.696371 
L 248.739936 -180.26792 
L 247.937725 -179.83947 
L 247.135515 -179.411019 
L 246.333305 -178.982569 
L 245.531094 -178.554119 
L 244.728884 -178.125669 
L 243.926673 -177.697218 
L 243.124463 -177.268768 
L 242.322253 -176.840318 
L 241.520042 -176.411868 
L 240.717832 -175.983418 
L 239.915621 -175.554968 
L 239.113411 -175.126518 
L 238.311201 -174.698068 
L 237.50899 -174.269619 
L 236.70678 -173.841169 
L 235.904569 -173.412719 
L 235.102359 -172.984269 
L 234.300149 -172.55582 
L 233.497938 -172.12737 
L 232.695728 -171.69892 
L 231.893517 -171.270471 
L 231.091307 -170.842021 
L 230.289097 -170.413572 
L 229.486886 -169.985123 
L 228.684676 -169.556673 
L 227.882466 -169.128224 
L 227.080255 -168.699775 
L 226.278045 -168.271326 
L 225.475834 -167.842876 
L 224.673624 -167.414427 
L 223.871414 -166.985978 
L 223.069203 -166.557529 
L 222.266993 -166.12908 
L 221.464782 -165.700631 
L 220.662572 -165.272182 
L 219.860362 -164.843733 
L 219.058151 -164.415285 
L 218.255941 -163.986836 
L 217.45373 -163.558387 
L 216.65152 -163.129938 
L 215.84931 -162.70149 
L 215.047099 -162.273041 
L 214.244889 -161.844593 
L 213.442678 -161.416144 
L 212.640468 -160.987696 
L 211.838258 -160.559247 
L 211.036047 -160.129016 
L 210.233837 -159.698399 
L 209.431626 -159.267783 
L 208.629416 -158.837167 
L 207.827206 -158.406551 
L 207.024995 -157.975936 
L 206.222785 -157.545321 
L 205.420575 -157.114706 
L 204.618364 -156.684092 
L 203.816154 -156.253478 
L 203.013943 -155.822864 
L 202.211733 -155.393725 
L 201.409523 -155.027553 
L 200.607312 -154.661395 
L 199.805102 -154.295249 
L 199.002891 -153.929117 
L 198.200681 -153.562997 
L 197.398471 -153.19689 
L 196.59626 -152.79411 
L 195.79405 -152.371138 
L 194.991839 -151.939405 
L 194.189629 -151.498283 
L 193.387419 -151.057161 
L 192.585208 -150.616039 
L 191.782998 -150.174917 
L 190.980787 -149.733796 
L 190.178577 -149.292674 
L 189.376367 -148.851553 
L 188.574156 -148.410432 
L 187.771946 -147.969311 
L 186.969736 -147.52819 
L 186.167525 -147.087069 
L 185.365315 -146.645948 
L 184.563104 -146.204828 
L 183.760894 -145.763708 
L 182.958684 -145.322588 
L 182.156473 -144.881468 
L 181.354263 -144.440348 
L 180.552052 -143.999228 
L 179.749842 -143.558108 
L 178.947632 -143.116989 
L 178.145421 -142.67587 
L 177.343211 -142.23475 
L 176.541 -141.793631 
L 175.73879 -141.352513 
L 174.93658 -140.911394 
L 174.134369 -140.470275 
L 173.332159 -140.029157 
L 172.529948 -139.588039 
L 171.727738 -139.146921 
L 170.925528 -138.708435 
L 170.123317 -138.279989 
L 169.321107 -137.851543 
L 168.518897 -137.423097 
L 167.716686 -136.994651 
L 166.914476 -136.566205 
L 166.112265 -136.137759 
L 165.310055 -135.709313 
L 164.507845 -135.275074 
L 163.705634 -134.840561 
L 162.903424 -134.406049 
L 162.101213 -133.971539 
L 161.299003 -133.541871 
L 160.496793 -133.126081 
L 159.694582 -132.710296 
L 158.892372 -132.294516 
L 158.090161 -131.878741 
L 157.287951 -131.46297 
L 156.485741 -131.021001 
L 155.68353 -130.571176 
L 154.88132 -130.121356 
L 154.079109 -129.672366 
L 153.276899 -129.250033 
L 152.474689 -128.8277 
L 151.672478 -128.405368 
L 150.870268 -127.983037 
L 150.068058 -127.560707 
L 149.265847 -127.138377 
L 148.463637 -126.711959 
L 147.661426 -126.283514 
L 146.859216 -125.855069 
L 146.057006 -125.426624 
L 145.254795 -124.998179 
L 144.452585 -124.569735 
L 143.650374 -124.14129 
L 142.848164 -123.712845 
L 142.045954 -123.284401 
L 141.243743 -122.855956 
L 140.441533 -122.427512 
L 139.639322 -121.999067 
L 138.837112 -121.570623 
L 138.034902 -121.142178 
L 137.232691 -120.713734 
L 136.430481 -120.285289 
L 135.62827 -119.856845 
L 134.82606 -119.428401 
L 134.02385 -118.999957 
L 133.221639 -118.571513 
L 132.419429 -118.143068 
L 131.617219 -117.714624 
L 130.815008 -117.28618 
L 130.012798 -116.857736 
L 129.210587 -116.429292 
L 128.408377 -116.000849 
L 127.606167 -115.572405 
L 126.803956 -115.143961 
L 126.001746 -114.715517 
L 125.199535 -114.287073 
L 124.397325 -113.85863 
L 123.595115 -113.430186 
L 122.792904 -113.001742 
L 121.990694 -112.573299 
L 121.188483 -112.144855 
L 120.386273 -111.716412 
L 119.584063 -111.287969 
L 118.781852 -110.859525 
L 117.979642 -110.431082 
L 117.177431 -110.002639 
L 116.375221 -109.574195 
L 115.573011 -109.145752 
L 114.7708 -108.717309 
L 113.96859 -108.288866 
L 113.16638 -107.860423 
L 112.364169 -107.43198 
L 111.561959 -107.003537 
L 110.759748 -106.575094 
L 109.957538 -106.146651 
L 109.155328 -105.718208 
L 108.353117 -105.289765 
L 107.550907 -104.861323 
L 106.748696 -104.43288 
L 105.946486 -104.004437 
L 105.144276 -103.575995 
L 104.342065 -103.147552 
L 103.539855 -102.719109 
L 102.737644 -102.290667 
L 101.935434 -101.862224 
L 101.133224 -101.433782 
L 100.331013 -101.00534 
L 99.528803 -100.576897 
L 98.726592 -100.148455 
L 97.924382 -99.720013 
L 97.122172 -99.291571 
L 96.319961 -98.861522 
L 95.517751 -98.429779 
L 94.715541 -97.998036 
L 93.91333 -97.566293 
L 93.11112 -97.13455 
L 92.308909 -96.702807 
L 91.506699 -96.271064 
L 90.704489 -95.839321 
L 89.902278 -95.407578 
L 89.100068 -94.975835 
L 88.297857 -94.546595 
L 87.495647 -94.129484 
L 86.693437 -93.712374 
L 85.891226 -93.295264 
L 85.089016 -92.878155 
L 84.286805 -92.456393 
L 83.484595 -92.031799 
L 82.682385 -91.607206 
L 81.880174 -91.182612 
L 81.077964 -90.758019 
L 80.275753 -90.333425 
L 79.473543 -89.908833 
L 78.671333 -89.48424 
L 77.869122 -89.059647 
L 77.066912 -88.635055 
L 76.264702 -88.210463 
z
" id="me7d07eb004" style="stroke:#000000;stroke-opacity:0.1;"/>
    </defs>
    <g clip-path="url(#pa0c6cbda0b)">
     <use style="fill-opacity:0.1;stroke:#000000;stroke-opacity:0.1;" x="0" xlink:href="#me7d07eb004" y="310.062"/>
    </g>
   </g>
   <g id="matplotlib.axis_1">
    <g id="xtick_1">
     <g id="line2d_1">
      <defs>
       <path d="M 0 1.75 
L 0 -1.75 
" id="m1c53b5f006" style="stroke:#000000;stroke-width:0.8;"/>
      </defs>
      <g>
       <use style="stroke:#000000;stroke-width:0.8;" x="76.264702" xlink:href="#m1c53b5f006" y="275.062"/>
      </g>
     </g>
     <g id="line2d_2">
      <g>
       <use style="stroke:#000000;stroke-width:0.8;" x="76.264702" xlink:href="#m1c53b5f006" y="8.95"/>
      </g>
     </g>
     <g id="text_1">
      <!-- 9.0 -->
      <g transform="translate(69.315483 287.452625)scale(0.1 -0.1)">
       <defs>
        <path d="M 1728 3962 
C 2272 3962 2541 3526 2541 3046 
C 2541 2554 2272 2106 1728 2106 
C 1197 2106 947 2560 947 3046 
C 947 3533 1197 3962 1728 3962 
z
M 301 1133 
C 339 403 941 -90 1651 -90 
C 2918 -90 3341 1158 3341 2227 
C 3341 3533 3027 4570 1760 4570 
C 781 4570 218 3910 218 3040 
C 218 2125 787 1530 1632 1530 
C 2042 1530 2406 1722 2598 2067 
L 2611 2054 
C 2566 1466 2477 518 1683 518 
C 1306 518 1062 768 1030 1133 
L 301 1133 
z
" id="HelveticaNeue-Medium-39" transform="scale(0.015625)"/>
        <path d="M 442 0 
L 1331 0 
L 1331 864 
L 442 864 
L 442 0 
z
" id="HelveticaNeue-Medium-2e" transform="scale(0.015625)"/>
        <path d="M 1779 518 
C 1139 518 960 1306 960 2240 
C 960 3174 1139 3962 1779 3962 
C 2419 3962 2598 3174 2598 2240 
C 2598 1306 2419 518 1779 518 
z
M 1779 4570 
C 493 4570 230 3258 230 2240 
C 230 1222 493 -90 1779 -90 
C 3066 -90 3328 1222 3328 2240 
C 3328 3258 3066 4570 1779 4570 
z
" id="HelveticaNeue-Medium-30" transform="scale(0.015625)"/>
       </defs>
       <use xlink:href="#HelveticaNeue-Medium-39"/>
       <use x="55.599991" xlink:href="#HelveticaNeue-Medium-2e"/>
       <use x="83.399979" xlink:href="#HelveticaNeue-Medium-30"/>
      </g>
     </g>
    </g>
    <g id="xtick_2">
     <g id="line2d_3">
      <g>
       <use style="stroke:#000000;stroke-width:0.8;" x="121.990694" xlink:href="#m1c53b5f006" y="275.062"/>
      </g>
     </g>
     <g id="line2d_4">
      <g>
       <use style="stroke:#000000;stroke-width:0.8;" x="121.990694" xlink:href="#m1c53b5f006" y="8.95"/>
      </g>
     </g>
     <g id="text_2">
      <!-- 9.5 -->
      <g transform="translate(115.041475 287.452625)scale(0.1 -0.1)">
       <defs>
        <path d="M 307 2029 
L 1037 2029 
C 1152 2342 1453 2438 1760 2438 
C 2349 2438 2611 1997 2611 1504 
C 2611 960 2400 518 1779 518 
C 1306 518 998 794 954 1274 
L 224 1274 
C 256 378 928 -90 1792 -90 
C 2893 -90 3341 800 3341 1517 
C 3341 2374 2829 3014 1939 3014 
C 1638 3014 1312 2893 1114 2675 
L 1101 2688 
L 1331 3827 
L 3104 3827 
L 3104 4480 
L 787 4480 
L 307 2029 
z
" id="HelveticaNeue-Medium-35" transform="scale(0.015625)"/>
       </defs>
       <use xlink:href="#HelveticaNeue-Medium-39"/>
       <use x="55.599991" xlink:href="#HelveticaNeue-Medium-2e"/>
       <use x="83.399979" xlink:href="#HelveticaNeue-Medium-35"/>
      </g>
     </g>
    </g>
    <g id="xtick_3">
     <g id="line2d_5">
      <g>
       <use style="stroke:#000000;stroke-width:0.8;" x="167.716686" xlink:href="#m1c53b5f006" y="275.062"/>
      </g>
     </g>
     <g id="line2d_6">
      <g>
       <use style="stroke:#000000;stroke-width:0.8;" x="167.716686" xlink:href="#m1c53b5f006" y="8.95"/>
      </g>
     </g>
     <g id="text_3">
      <!-- 10.0 -->
      <g transform="translate(157.98778 287.452625)scale(0.1 -0.1)">
       <defs>
        <path d="M 339 3162 
L 1440 3162 
L 1440 0 
L 2240 0 
L 2240 4480 
L 1645 4480 
C 1536 3942 954 3731 339 3738 
L 339 3162 
z
" id="HelveticaNeue-Medium-31" transform="scale(0.015625)"/>
       </defs>
       <use xlink:href="#HelveticaNeue-Medium-31"/>
       <use x="55.599991" xlink:href="#HelveticaNeue-Medium-30"/>
       <use x="111.199982" xlink:href="#HelveticaNeue-Medium-2e"/>
       <use x="138.999969" xlink:href="#HelveticaNeue-Medium-30"/>
      </g>
     </g>
    </g>
    <g id="xtick_4">
     <g id="line2d_7">
      <g>
       <use style="stroke:#000000;stroke-width:0.8;" x="213.442678" xlink:href="#m1c53b5f006" y="275.062"/>
      </g>
     </g>
     <g id="line2d_8">
      <g>
       <use style="stroke:#000000;stroke-width:0.8;" x="213.442678" xlink:href="#m1c53b5f006" y="8.95"/>
      </g>
     </g>
     <g id="text_4">
      <!-- 10.5 -->
      <g transform="translate(203.713772 287.452625)scale(0.1 -0.1)">
       <use xlink:href="#HelveticaNeue-Medium-31"/>
       <use x="55.599991" xlink:href="#HelveticaNeue-Medium-30"/>
       <use x="111.199982" xlink:href="#HelveticaNeue-Medium-2e"/>
       <use x="138.999969" xlink:href="#HelveticaNeue-Medium-35"/>
      </g>
     </g>
    </g>
    <g id="xtick_5">
     <g id="line2d_9">
      <g>
       <use style="stroke:#000000;stroke-width:0.8;" x="259.168671" xlink:href="#m1c53b5f006" y="275.062"/>
      </g>
     </g>
     <g id="line2d_10">
      <g>
       <use style="stroke:#000000;stroke-width:0.8;" x="259.168671" xlink:href="#m1c53b5f006" y="8.95"/>
      </g>
     </g>
     <g id="text_5">
      <!-- 11.0 -->
      <g transform="translate(249.439765 287.452625)scale(0.1 -0.1)">
       <use xlink:href="#HelveticaNeue-Medium-31"/>
       <use x="55.599991" xlink:href="#HelveticaNeue-Medium-31"/>
       <use x="111.199982" xlink:href="#HelveticaNeue-Medium-2e"/>
       <use x="138.999969" xlink:href="#HelveticaNeue-Medium-30"/>
      </g>
     </g>
    </g>
    <g id="xtick_6">
     <g id="line2d_11">
      <g>
       <use style="stroke:#000000;stroke-width:0.8;" x="304.894663" xlink:href="#m1c53b5f006" y="275.062"/>
      </g>
     </g>
     <g id="line2d_12">
      <g>
       <use style="stroke:#000000;stroke-width:0.8;" x="304.894663" xlink:href="#m1c53b5f006" y="8.95"/>
      </g>
     </g>
     <g id="text_6">
      <!-- 11.5 -->
      <g transform="translate(295.165757 287.452625)scale(0.1 -0.1)">
       <use xlink:href="#HelveticaNeue-Medium-31"/>
       <use x="55.599991" xlink:href="#HelveticaNeue-Medium-31"/>
       <use x="111.199982" xlink:href="#HelveticaNeue-Medium-2e"/>
       <use x="138.999969" xlink:href="#HelveticaNeue-Medium-35"/>
      </g>
     </g>
    </g>
    <g id="xtick_7">
     <g id="line2d_13">
      <g>
       <use style="stroke:#000000;stroke-width:0.8;" x="350.620655" xlink:href="#m1c53b5f006" y="275.062"/>
      </g>
     </g>
     <g id="line2d_14">
      <g>
       <use style="stroke:#000000;stroke-width:0.8;" x="350.620655" xlink:href="#m1c53b5f006" y="8.95"/>
      </g>
     </g>
     <g id="text_7">
      <!-- 12.0 -->
      <g transform="translate(340.891749 287.452625)scale(0.1 -0.1)">
       <defs>
        <path d="M 3309 653 
L 1126 653 
C 1254 1050 1798 1325 2317 1683 
C 2829 2042 3315 2483 3315 3194 
C 3315 3770 2970 4570 1875 4570 
C 877 4570 333 3834 333 2842 
L 1062 2842 
C 1082 3469 1254 3962 1830 3962 
C 2458 3962 2592 3488 2586 3168 
C 2573 2470 1818 2118 1235 1696 
C 634 1293 256 736 250 0 
L 3309 0 
L 3309 653 
z
" id="HelveticaNeue-Medium-32" transform="scale(0.015625)"/>
       </defs>
       <use xlink:href="#HelveticaNeue-Medium-31"/>
       <use x="55.599991" xlink:href="#HelveticaNeue-Medium-32"/>
       <use x="111.199982" xlink:href="#HelveticaNeue-Medium-2e"/>
       <use x="138.999969" xlink:href="#HelveticaNeue-Medium-30"/>
      </g>
     </g>
    </g>
    <g id="xtick_8">
     <g id="line2d_15">
      <g>
       <use style="stroke:#000000;stroke-width:0.8;" x="396.346648" xlink:href="#m1c53b5f006" y="275.062"/>
      </g>
     </g>
     <g id="line2d_16">
      <g>
       <use style="stroke:#000000;stroke-width:0.8;" x="396.346648" xlink:href="#m1c53b5f006" y="8.95"/>
      </g>
     </g>
     <g id="text_8">
      <!-- 12.5 -->
      <g transform="translate(386.617741 287.452625)scale(0.1 -0.1)">
       <use xlink:href="#HelveticaNeue-Medium-31"/>
       <use x="55.599991" xlink:href="#HelveticaNeue-Medium-32"/>
       <use x="111.199982" xlink:href="#HelveticaNeue-Medium-2e"/>
       <use x="138.999969" xlink:href="#HelveticaNeue-Medium-35"/>
      </g>
     </g>
    </g>
    <g id="text_9">
     <!-- Bulge mass [log, $M_\odot$] -->
     <g transform="translate(183.919375 300.762)scale(0.1 -0.1)">
      <defs>
       <path d="M 1286 2080 
L 2701 2080 
C 3187 2080 3469 1824 3469 1376 
C 3469 915 3187 653 2701 653 
L 1286 653 
L 1286 2080 
z
M 486 0 
L 2586 0 
C 3770 0 4269 557 4269 1274 
C 4269 1894 3968 2330 3411 2451 
L 3411 2464 
C 3827 2643 4064 2976 4064 3437 
C 4064 4198 3526 4570 2707 4570 
L 486 4570 
L 486 0 
z
M 1286 3917 
L 2592 3917 
C 3027 3917 3264 3750 3264 3290 
C 3264 2880 2976 2656 2592 2656 
L 1286 2656 
L 1286 3917 
z
" id="HelveticaNeue-Medium-42" transform="scale(0.015625)"/>
       <path d="M 3290 3309 
L 2560 3309 
L 2560 1389 
C 2560 877 2355 486 1747 486 
C 1350 486 1114 698 1114 1280 
L 1114 3309 
L 384 3309 
L 384 1210 
C 384 346 755 -90 1619 -90 
C 1984 -90 2381 128 2560 461 
L 2573 461 
L 2573 0 
L 3290 0 
L 3290 3309 
z
" id="HelveticaNeue-Medium-75" transform="scale(0.015625)"/>
       <path d="M 403 0 
L 1133 0 
L 1133 4570 
L 403 4570 
L 403 0 
z
" id="HelveticaNeue-Medium-6c" transform="scale(0.015625)"/>
       <path d="M 1824 576 
C 1216 576 954 1126 954 1670 
C 954 2221 1178 2822 1824 2822 
C 2458 2822 2714 2298 2714 1728 
C 2714 1165 2470 576 1824 576 
z
M 3443 3309 
L 2714 3309 
L 2714 2854 
L 2701 2854 
C 2515 3226 2138 3398 1722 3398 
C 781 3398 224 2630 224 1741 
C 224 794 659 0 1709 0 
C 2118 0 2496 218 2701 582 
L 2714 582 
L 2714 77 
C 2714 -467 2451 -768 1862 -768 
C 1491 -768 1158 -698 1069 -282 
L 339 -282 
C 403 -1056 1152 -1312 1818 -1312 
C 2861 -1312 3443 -819 3443 173 
L 3443 3309 
z
" id="HelveticaNeue-Medium-67" transform="scale(0.015625)"/>
       <path d="M 3386 1466 
C 3507 2458 2867 3398 1824 3398 
C 838 3398 224 2592 224 1651 
C 224 634 806 -90 1843 -90 
C 2566 -90 3181 314 3341 1037 
L 2650 1037 
C 2522 672 2266 486 1843 486 
C 1235 486 954 947 954 1466 
L 3386 1466 
z
M 954 1946 
C 973 2438 1318 2822 1824 2822 
C 2317 2822 2630 2406 2656 1946 
L 954 1946 
z
" id="HelveticaNeue-Medium-65" transform="scale(0.015625)"/>
       <path id="HelveticaNeue-Medium-20" transform="scale(0.015625)"/>
       <path d="M 384 0 
L 1114 0 
L 1114 1965 
C 1114 2515 1459 2822 1837 2822 
C 2278 2822 2419 2579 2419 2125 
L 2419 0 
L 3149 0 
L 3149 1939 
C 3149 2496 3360 2822 3853 2822 
C 4422 2822 4454 2458 4454 1933 
L 4454 0 
L 5184 0 
L 5184 2285 
C 5184 3091 4774 3398 4077 3398 
C 3597 3398 3283 3187 3040 2848 
C 2893 3226 2515 3398 2112 3398 
C 1587 3398 1312 3174 1094 2848 
L 1075 2848 
L 1075 3309 
L 384 3309 
L 384 0 
z
" id="HelveticaNeue-Medium-6d" transform="scale(0.015625)"/>
       <path d="M 2426 1114 
C 2426 653 1926 486 1606 486 
C 1350 486 934 582 934 909 
C 934 1293 1216 1408 1530 1459 
C 1850 1517 2202 1510 2426 1658 
L 2426 1114 
z
M 3155 2438 
C 3155 3136 2477 3398 1830 3398 
C 1101 3398 378 3149 326 2298 
L 1056 2298 
C 1088 2656 1376 2822 1786 2822 
C 2080 2822 2470 2752 2470 2374 
C 2470 1946 2003 2003 1478 1907 
C 864 1837 205 1702 205 877 
C 205 230 742 -90 1338 -90 
C 1728 -90 2195 32 2483 314 
C 2541 13 2752 -90 3046 -90 
C 3168 -90 3398 -45 3507 -6 
L 3507 499 
C 3430 486 3373 486 3328 486 
C 3194 486 3155 557 3155 736 
L 3155 2438 
z
" id="HelveticaNeue-Medium-61" transform="scale(0.015625)"/>
       <path d="M 205 1062 
C 218 282 838 -90 1670 -90 
C 2355 -90 3149 198 3149 986 
C 3149 1638 2611 1830 2080 1952 
C 1542 2074 1005 2125 1005 2483 
C 1005 2771 1395 2822 1606 2822 
C 1926 2822 2214 2726 2278 2381 
L 3040 2381 
C 2950 3117 2336 3398 1658 3398 
C 1056 3398 275 3174 275 2451 
C 275 1779 800 1587 1338 1472 
C 1869 1350 2400 1306 2419 922 
C 2438 544 1958 486 1683 486 
C 1293 486 973 640 934 1062 
L 205 1062 
z
" id="HelveticaNeue-Medium-73" transform="scale(0.015625)"/>
       <path d="M 461 -1222 
L 1888 -1222 
L 1888 -646 
L 1152 -646 
L 1152 4102 
L 1888 4102 
L 1888 4678 
L 461 4678 
L 461 -1222 
z
" id="HelveticaNeue-Medium-5b" transform="scale(0.015625)"/>
       <path d="M 1901 486 
C 1248 486 960 1082 960 1658 
C 960 2227 1248 2822 1901 2822 
C 2554 2822 2842 2227 2842 1658 
C 2842 1082 2554 486 1901 486 
z
M 1901 -90 
C 2963 -90 3571 640 3571 1658 
C 3571 2669 2963 3398 1901 3398 
C 838 3398 230 2669 230 1658 
C 230 640 838 -90 1901 -90 
z
" id="HelveticaNeue-Medium-6f" transform="scale(0.015625)"/>
       <path d="M 442 0 
L 883 0 
C 890 -275 749 -550 467 -621 
L 467 -1011 
C 973 -909 1325 -525 1331 0 
L 1331 864 
L 442 864 
L 442 0 
z
" id="HelveticaNeue-Medium-2c" transform="scale(0.015625)"/>
       <path d="M 1081 4666 
L 2028 4666 
L 2572 1522 
L 4378 4666 
L 5350 4666 
L 4441 0 
L 3828 0 
L 4622 4091 
L 2791 897 
L 2175 897 
L 1581 4103 
L 788 0 
L 172 0 
L 1081 4666 
z
" id="DejaVuSans-Oblique-4d" transform="scale(0.015625)"/>
       <path d="M 2350 2403 
L 3013 2403 
L 3013 1609 
L 2350 1609 
L 2350 2403 
z
M 3306 3522 
Q 3016 3644 2681 3644 
Q 2347 3644 2056 3522 
Q 1769 3400 1531 3163 
Q 1291 2922 1172 2634 
Q 1053 2347 1053 2006 
Q 1053 1675 1172 1387 
Q 1291 1100 1531 859 
Q 1769 622 2056 500 
Q 2347 378 2681 378 
Q 3016 378 3306 500 
Q 3594 622 3831 859 
Q 4072 1100 4190 1387 
Q 4309 1675 4309 2006 
Q 4309 2347 4190 2634 
Q 4072 2922 3831 3163 
Q 3594 3400 3306 3522 
z
M 1878 3956 
Q 2250 4113 2681 4113 
Q 3113 4113 3484 3956 
Q 3856 3800 4163 3494 
Q 4472 3184 4625 2813 
Q 4778 2444 4778 2006 
Q 4778 1578 4625 1206 
Q 4472 838 4163 528 
Q 3856 222 3484 65 
Q 3113 -91 2681 -91 
Q 2250 -91 1878 65 
Q 1506 222 1200 528 
Q 891 838 738 1206 
Q 584 1578 584 2006 
Q 584 2444 738 2813 
Q 891 3184 1200 3494 
Q 1506 3800 1878 3956 
z
" id="DejaVuSans-2299" transform="scale(0.015625)"/>
       <path d="M 1434 4678 
L 6 4678 
L 6 4102 
L 742 4102 
L 742 -646 
L 6 -646 
L 6 -1222 
L 1434 -1222 
L 1434 4678 
z
" id="HelveticaNeue-Medium-5d" transform="scale(0.015625)"/>
      </defs>
      <use transform="translate(0 0.90625)" xlink:href="#HelveticaNeue-Medium-42"/>
      <use transform="translate(70.399994 0.90625)" xlink:href="#HelveticaNeue-Medium-75"/>
      <use transform="translate(127.799988 0.90625)" xlink:href="#HelveticaNeue-Medium-6c"/>
      <use transform="translate(151.899979 0.90625)" xlink:href="#HelveticaNeue-Medium-67"/>
      <use transform="translate(211.199966 0.90625)" xlink:href="#HelveticaNeue-Medium-65"/>
      <use transform="translate(266.799957 0.90625)" xlink:href="#HelveticaNeue-Medium-20"/>
      <use transform="translate(294.599945 0.90625)" xlink:href="#HelveticaNeue-Medium-6d"/>
      <use transform="translate(381.59993 0.90625)" xlink:href="#HelveticaNeue-Medium-61"/>
      <use transform="translate(437.199921 0.90625)" xlink:href="#HelveticaNeue-Medium-73"/>
      <use transform="translate(489.099915 0.90625)" xlink:href="#HelveticaNeue-Medium-73"/>
      <use transform="translate(540.999908 0.90625)" xlink:href="#HelveticaNeue-Medium-20"/>
      <use transform="translate(568.799896 0.90625)" xlink:href="#HelveticaNeue-Medium-5b"/>
      <use transform="translate(598.399887 0.90625)" xlink:href="#HelveticaNeue-Medium-6c"/>
      <use transform="translate(622.499878 0.90625)" xlink:href="#HelveticaNeue-Medium-6f"/>
      <use transform="translate(681.799866 0.90625)" xlink:href="#HelveticaNeue-Medium-67"/>
      <use transform="translate(741.099854 0.90625)" xlink:href="#HelveticaNeue-Medium-2c"/>
      <use transform="translate(768.899841 0.90625)" xlink:href="#HelveticaNeue-Medium-20"/>
      <use transform="translate(796.699829 0.90625)" xlink:href="#DejaVuSans-Oblique-4d"/>
      <use transform="translate(896.616821 -15.5)scale(0.7)" xlink:href="#DejaVuSans-2299"/>
      <use transform="translate(971.641235 0.90625)" xlink:href="#HelveticaNeue-Medium-5d"/>
     </g>
    </g>
   </g>
   <g id="matplotlib.axis_2">
    <g id="ytick_1">
     <g id="line2d_17">
      <defs>
       <path d="M 1.75 0 
L -1.75 -0 
" id="m15b3954dbf" style="stroke:#000000;stroke-width:0.8;"/>
      </defs>
      <g>
       <use style="stroke:#000000;stroke-width:0.8;" x="55.459375" xlink:href="#m15b3954dbf" y="223.144062"/>
      </g>
     </g>
     <g id="line2d_18">
      <g>
       <use style="stroke:#000000;stroke-width:0.8;" x="412.579375" xlink:href="#m15b3954dbf" y="223.144062"/>
      </g>
     </g>
     <g id="text_10">
      <!-- $\mathdefault{10^{2}}$ -->
      <g transform="translate(34.809375 226.714375)scale(0.1 -0.1)">
       <use transform="translate(0 0.823438)" xlink:href="#HelveticaNeue-Medium-31"/>
       <use transform="translate(55.599991 0.823438)" xlink:href="#HelveticaNeue-Medium-30"/>
       <use transform="translate(112.104786 37.015625)scale(0.7)" xlink:href="#HelveticaNeue-Medium-32"/>
      </g>
     </g>
    </g>
    <g id="ytick_2">
     <g id="line2d_19">
      <defs>
       <path d="M 1 0 
L -1 -0 
" id="m549bfb155d" style="stroke:#000000;stroke-width:0.6;"/>
      </defs>
      <g>
       <use style="stroke:#000000;stroke-width:0.6;" x="55.459375" xlink:href="#m549bfb155d" y="266.389256"/>
      </g>
     </g>
     <g id="line2d_20">
      <g>
       <use style="stroke:#000000;stroke-width:0.6;" x="412.579375" xlink:href="#m549bfb155d" y="266.389256"/>
      </g>
     </g>
    </g>
    <g id="ytick_3">
     <g id="line2d_21">
      <g>
       <use style="stroke:#000000;stroke-width:0.6;" x="55.459375" xlink:href="#m549bfb155d" y="250.19919"/>
      </g>
     </g>
     <g id="line2d_22">
      <g>
       <use style="stroke:#000000;stroke-width:0.6;" x="412.579375" xlink:href="#m549bfb155d" y="250.19919"/>
      </g>
     </g>
    </g>
    <g id="ytick_4">
     <g id="line2d_23">
      <g>
       <use style="stroke:#000000;stroke-width:0.6;" x="55.459375" xlink:href="#m549bfb155d" y="235.918539"/>
      </g>
     </g>
     <g id="line2d_24">
      <g>
       <use style="stroke:#000000;stroke-width:0.6;" x="412.579375" xlink:href="#m549bfb155d" y="235.918539"/>
      </g>
     </g>
    </g>
    <g id="ytick_5">
     <g id="line2d_25">
      <g>
       <use style="stroke:#000000;stroke-width:0.6;" x="55.459375" xlink:href="#m549bfb155d" y="139.10316"/>
      </g>
     </g>
     <g id="line2d_26">
      <g>
       <use style="stroke:#000000;stroke-width:0.6;" x="412.579375" xlink:href="#m549bfb155d" y="139.10316"/>
      </g>
     </g>
     <g id="text_11">
      <!-- $\mathdefault{2\times10^{2}}$ -->
      <g transform="translate(20.559375 142.673473)scale(0.1 -0.1)">
       <defs>
        <path d="M 1466 1619 
L 352 506 
L 902 147 
L 1914 1171 
L 2938 147 
L 3488 506 
L 2368 1619 
L 3488 2733 
L 2938 3091 
L 1914 2074 
L 902 3091 
L 352 2733 
L 1466 1619 
z
" id="HelveticaNeue-Medium-d7" transform="scale(0.015625)"/>
       </defs>
       <use transform="translate(0 0.823438)" xlink:href="#HelveticaNeue-Medium-32"/>
       <use transform="translate(72.999988 0.823438)" xlink:href="#HelveticaNeue-Medium-d7"/>
       <use transform="translate(150.399969 0.823438)" xlink:href="#HelveticaNeue-Medium-31"/>
       <use transform="translate(205.99996 0.823438)" xlink:href="#HelveticaNeue-Medium-30"/>
       <use transform="translate(262.504756 37.015625)scale(0.7)" xlink:href="#HelveticaNeue-Medium-32"/>
      </g>
     </g>
    </g>
    <g id="ytick_6">
     <g id="line2d_27">
      <g>
       <use style="stroke:#000000;stroke-width:0.6;" x="55.459375" xlink:href="#m549bfb155d" y="89.942384"/>
      </g>
     </g>
     <g id="line2d_28">
      <g>
       <use style="stroke:#000000;stroke-width:0.6;" x="412.579375" xlink:href="#m549bfb155d" y="89.942384"/>
      </g>
     </g>
     <g id="text_12">
      <!-- $\mathdefault{3\times10^{2}}$ -->
      <g transform="translate(20.559375 93.512697)scale(0.1 -0.1)">
       <defs>
        <path d="M 1459 2080 
C 2035 2106 2630 2016 2630 1318 
C 2630 806 2259 518 1773 518 
C 1203 518 909 928 928 1472 
L 198 1472 
C 218 538 736 -90 1773 -90 
C 2630 -90 3360 435 3360 1280 
C 3360 1856 3053 2298 2547 2400 
L 2547 2413 
C 2976 2566 3181 2925 3181 3373 
C 3181 4166 2464 4570 1766 4570 
C 864 4570 320 3917 282 3046 
L 1011 3046 
C 998 3507 1248 3962 1754 3962 
C 2157 3962 2451 3706 2451 3328 
C 2451 2778 1946 2605 1459 2624 
L 1459 2080 
z
" id="HelveticaNeue-Medium-33" transform="scale(0.015625)"/>
       </defs>
       <use transform="translate(0 0.823438)" xlink:href="#HelveticaNeue-Medium-33"/>
       <use transform="translate(72.999988 0.823438)" xlink:href="#HelveticaNeue-Medium-d7"/>
       <use transform="translate(150.399969 0.823438)" xlink:href="#HelveticaNeue-Medium-31"/>
       <use transform="translate(205.99996 0.823438)" xlink:href="#HelveticaNeue-Medium-30"/>
       <use transform="translate(262.504756 37.015625)scale(0.7)" xlink:href="#HelveticaNeue-Medium-32"/>
      </g>
     </g>
    </g>
    <g id="ytick_7">
     <g id="line2d_29">
      <g>
       <use style="stroke:#000000;stroke-width:0.6;" x="55.459375" xlink:href="#m549bfb155d" y="55.062259"/>
      </g>
     </g>
     <g id="line2d_30">
      <g>
       <use style="stroke:#000000;stroke-width:0.6;" x="412.579375" xlink:href="#m549bfb155d" y="55.062259"/>
      </g>
     </g>
     <g id="text_13">
      <!-- $\mathdefault{4\times10^{2}}$ -->
      <g transform="translate(20.559375 58.632571)scale(0.1 -0.1)">
       <defs>
        <path d="M 3341 1638 
L 2765 1638 
L 2765 4480 
L 2074 4480 
L 154 1786 
L 154 1062 
L 2074 1062 
L 2074 0 
L 2765 0 
L 2765 1062 
L 3341 1062 
L 3341 1638 
z
M 2061 3610 
L 2074 3610 
L 2074 1638 
L 717 1638 
L 2061 3610 
z
" id="HelveticaNeue-Medium-34" transform="scale(0.015625)"/>
       </defs>
       <use transform="translate(0 0.823438)" xlink:href="#HelveticaNeue-Medium-34"/>
       <use transform="translate(72.999988 0.823438)" xlink:href="#HelveticaNeue-Medium-d7"/>
       <use transform="translate(150.399969 0.823438)" xlink:href="#HelveticaNeue-Medium-31"/>
       <use transform="translate(205.99996 0.823438)" xlink:href="#HelveticaNeue-Medium-30"/>
       <use transform="translate(262.504756 37.015625)scale(0.7)" xlink:href="#HelveticaNeue-Medium-32"/>
      </g>
     </g>
    </g>
    <g id="ytick_8">
     <g id="line2d_31">
      <g>
       <use style="stroke:#000000;stroke-width:0.6;" x="55.459375" xlink:href="#m549bfb155d" y="28.007131"/>
      </g>
     </g>
     <g id="line2d_32">
      <g>
       <use style="stroke:#000000;stroke-width:0.6;" x="412.579375" xlink:href="#m549bfb155d" y="28.007131"/>
      </g>
     </g>
    </g>
    <g id="text_14">
     <!-- Velocity dispersion [log, km/s] -->
     <g transform="translate(14.509375 211.382562)rotate(-90)scale(0.1 -0.1)">
      <defs>
       <path d="M 1491 0 
L 2381 0 
L 3942 4570 
L 3130 4570 
L 1958 954 
L 1946 954 
L 800 4570 
L -32 4570 
L 1491 0 
z
" id="HelveticaNeue-Medium-56" transform="scale(0.015625)"/>
       <path d="M 3347 2202 
C 3277 3014 2624 3398 1856 3398 
C 768 3398 224 2618 224 1619 
C 224 646 794 -90 1830 -90 
C 2682 -90 3213 384 3347 1242 
L 2618 1242 
C 2547 768 2253 486 1830 486 
C 1197 486 954 1069 954 1619 
C 954 2624 1485 2822 1862 2822 
C 2266 2822 2560 2605 2618 2202 
L 3347 2202 
z
" id="HelveticaNeue-Medium-63" transform="scale(0.015625)"/>
       <path d="M 403 0 
L 1133 0 
L 1133 3309 
L 403 3309 
L 403 0 
z
M 403 3878 
L 1133 3878 
L 1133 4570 
L 403 4570 
L 403 3878 
z
" id="HelveticaNeue-Medium-69" transform="scale(0.015625)"/>
       <path d="M 51 2765 
L 602 2765 
L 602 813 
C 614 262 755 -32 1517 -32 
C 1677 -32 1830 -6 1990 6 
L 1990 570 
C 1888 544 1786 544 1683 544 
C 1357 544 1331 698 1331 998 
L 1331 2765 
L 1990 2765 
L 1990 3309 
L 1331 3309 
L 1331 4301 
L 602 4301 
L 602 3309 
L 51 3309 
L 51 2765 
z
" id="HelveticaNeue-Medium-74" transform="scale(0.015625)"/>
       <path d="M 1274 13 
L 1190 -243 
C 1101 -525 1018 -704 678 -704 
C 563 -704 448 -678 333 -659 
L 333 -1274 
C 499 -1299 666 -1312 838 -1312 
C 1600 -1312 1773 -774 2010 -179 
L 3296 3309 
L 2534 3309 
L 1696 838 
L 1683 838 
L 819 3309 
L 19 3309 
L 1274 13 
z
" id="HelveticaNeue-Medium-79" transform="scale(0.015625)"/>
       <path d="M 954 1619 
C 954 2214 1197 2822 1882 2822 
C 2445 2822 2797 2387 2797 1658 
C 2797 1082 2522 486 1869 486 
C 1235 486 954 1050 954 1619 
z
M 3501 4570 
L 2771 4570 
L 2771 2880 
L 2758 2880 
C 2534 3245 2074 3398 1658 3398 
C 934 3398 224 2874 224 1677 
C 224 685 730 -90 1773 -90 
C 2189 -90 2605 70 2797 448 
L 2810 448 
L 2810 0 
L 3501 0 
L 3501 4570 
z
" id="HelveticaNeue-Medium-64" transform="scale(0.015625)"/>
       <path d="M 2950 1651 
C 2950 1075 2701 486 2035 486 
C 1446 486 1107 986 1107 1651 
C 1107 2355 1421 2822 2035 2822 
C 2637 2822 2950 2253 2950 1651 
z
M 403 -1222 
L 1133 -1222 
L 1133 429 
L 1146 429 
C 1376 64 1830 -90 2253 -90 
C 3232 -90 3680 749 3680 1638 
C 3680 2605 3174 3398 2131 3398 
C 1709 3398 1312 3238 1107 2861 
L 1094 2861 
L 1094 3309 
L 403 3309 
L 403 -1222 
z
" id="HelveticaNeue-Medium-70" transform="scale(0.015625)"/>
       <path d="M 384 0 
L 1114 0 
L 1114 1574 
C 1114 2304 1510 2707 2010 2707 
C 2112 2707 2221 2688 2323 2675 
L 2323 3379 
C 2259 3386 2214 3398 2048 3398 
C 1600 3398 1165 3021 1082 2669 
L 1069 2669 
L 1069 3309 
L 384 3309 
L 384 0 
z
" id="HelveticaNeue-Medium-72" transform="scale(0.015625)"/>
       <path d="M 384 0 
L 1114 0 
L 1114 1952 
C 1114 2438 1427 2822 1914 2822 
C 2342 2822 2547 2598 2560 2080 
L 2560 0 
L 3290 0 
L 3290 2272 
C 3290 3014 2835 3398 2118 3398 
C 1683 3398 1306 3174 1088 2810 
L 1075 2822 
L 1075 3309 
L 384 3309 
L 384 0 
z
" id="HelveticaNeue-Medium-6e" transform="scale(0.015625)"/>
       <path d="M 403 0 
L 1133 0 
L 1133 1184 
L 1568 1606 
L 2579 0 
L 3469 0 
L 2080 2093 
L 3347 3309 
L 2451 3309 
L 1133 1971 
L 1133 4570 
L 403 4570 
L 403 0 
z
" id="HelveticaNeue-Medium-6b" transform="scale(0.015625)"/>
       <path d="M -141 -109 
L 557 -109 
L 2394 4678 
L 1696 4678 
L -141 -109 
z
" id="HelveticaNeue-Medium-2f" transform="scale(0.015625)"/>
      </defs>
      <use xlink:href="#HelveticaNeue-Medium-56"/>
      <use x="61.099991" xlink:href="#HelveticaNeue-Medium-65"/>
      <use x="116.699982" xlink:href="#HelveticaNeue-Medium-6c"/>
      <use x="140.799973" xlink:href="#HelveticaNeue-Medium-6f"/>
      <use x="200.09996" xlink:href="#HelveticaNeue-Medium-63"/>
      <use x="255.699951" xlink:href="#HelveticaNeue-Medium-69"/>
      <use x="279.799942" xlink:href="#HelveticaNeue-Medium-74"/>
      <use x="313.09993" xlink:href="#HelveticaNeue-Medium-79"/>
      <use x="364.999924" xlink:href="#HelveticaNeue-Medium-20"/>
      <use x="392.799911" xlink:href="#HelveticaNeue-Medium-64"/>
      <use x="453.899902" xlink:href="#HelveticaNeue-Medium-69"/>
      <use x="477.999893" xlink:href="#HelveticaNeue-Medium-73"/>
      <use x="529.899887" xlink:href="#HelveticaNeue-Medium-70"/>
      <use x="590.999878" xlink:href="#HelveticaNeue-Medium-65"/>
      <use x="646.599869" xlink:href="#HelveticaNeue-Medium-72"/>
      <use x="681.799866" xlink:href="#HelveticaNeue-Medium-73"/>
      <use x="733.69986" xlink:href="#HelveticaNeue-Medium-69"/>
      <use x="757.79985" xlink:href="#HelveticaNeue-Medium-6f"/>
      <use x="817.099838" xlink:href="#HelveticaNeue-Medium-6e"/>
      <use x="874.499832" xlink:href="#HelveticaNeue-Medium-20"/>
      <use x="902.29982" xlink:href="#HelveticaNeue-Medium-5b"/>
      <use x="931.899811" xlink:href="#HelveticaNeue-Medium-6c"/>
      <use x="955.999802" xlink:href="#HelveticaNeue-Medium-6f"/>
      <use x="1015.299789" xlink:href="#HelveticaNeue-Medium-67"/>
      <use x="1074.599777" xlink:href="#HelveticaNeue-Medium-2c"/>
      <use x="1102.399765" xlink:href="#HelveticaNeue-Medium-20"/>
      <use x="1130.199753" xlink:href="#HelveticaNeue-Medium-6b"/>
      <use x="1183.89975" xlink:href="#HelveticaNeue-Medium-6d"/>
      <use x="1270.899734" xlink:href="#HelveticaNeue-Medium-2f"/>
      <use x="1306.099731" xlink:href="#HelveticaNeue-Medium-73"/>
      <use x="1357.999725" xlink:href="#HelveticaNeue-Medium-5d"/>
     </g>
    </g>
   </g>
   <g id="LineCollection_1">
    <path clip-path="url(#pa0c6cbda0b)" d="M 71.692102 254.833336 
L 89.982499 254.833336 
" style="fill:none;stroke:#ffa500;stroke-width:1.5;"/>
    <path clip-path="url(#pa0c6cbda0b)" d="M 327.757659 124.284836 
L 344.219016 124.284836 
" style="fill:none;stroke:#ffa500;stroke-width:1.5;"/>
    <path clip-path="url(#pa0c6cbda0b)" d="M 275.630028 79.12352 
L 292.091385 79.12352 
" style="fill:none;stroke:#ffa500;stroke-width:1.5;"/>
    <path clip-path="url(#pa0c6cbda0b)" d="M 218.929798 160.96656 
L 235.391155 160.96656 
" style="fill:none;stroke:#ffa500;stroke-width:1.5;"/>
    <path clip-path="url(#pa0c6cbda0b)" d="M 296.663984 84.026802 
L 313.125342 84.026802 
" style="fill:none;stroke:#ffa500;stroke-width:1.5;"/>
    <path clip-path="url(#pa0c6cbda0b)" d="M 318.612461 100.05202 
L 335.073818 100.05202 
" style="fill:none;stroke:#ffa500;stroke-width:1.5;"/>
    <path clip-path="url(#pa0c6cbda0b)" d="M 281.117147 102.716861 
L 297.578504 102.716861 
" style="fill:none;stroke:#ffa500;stroke-width:1.5;"/>
    <path clip-path="url(#pa0c6cbda0b)" d="M 183.263524 155.293227 
L 199.724881 155.293227 
" style="fill:none;stroke:#ffa500;stroke-width:1.5;"/>
    <path clip-path="url(#pa0c6cbda0b)" d="M 256.425111 161.694763 
L 272.886468 161.694763 
" style="fill:none;stroke:#ffa500;stroke-width:1.5;"/>
    <path clip-path="url(#pa0c6cbda0b)" d="M 306.723703 91.160941 
L 323.18506 91.160941 
" style="fill:none;stroke:#ffa500;stroke-width:1.5;"/>
    <path clip-path="url(#pa0c6cbda0b)" d="M 205.212 178.093693 
L 221.673357 178.093693 
" style="fill:none;stroke:#ffa500;stroke-width:1.5;"/>
    <path clip-path="url(#pa0c6cbda0b)" d="M 242.707314 135.519292 
L 259.168671 135.519292 
" style="fill:none;stroke:#ffa500;stroke-width:1.5;"/>
    <path clip-path="url(#pa0c6cbda0b)" d="M 274.715508 122.685972 
L 291.176865 122.685972 
" style="fill:none;stroke:#ffa500;stroke-width:1.5;"/>
    <path clip-path="url(#pa0c6cbda0b)" d="M 251.852512 150.537896 
L 268.313869 150.537896 
" style="fill:none;stroke:#ffa500;stroke-width:1.5;"/>
    <path clip-path="url(#pa0c6cbda0b)" d="M 321.35602 102.716861 
L 337.817378 102.716861 
" style="fill:none;stroke:#ffa500;stroke-width:1.5;"/>
    <path clip-path="url(#pa0c6cbda0b)" d="M 310.381782 84.026802 
L 326.843139 84.026802 
" style="fill:none;stroke:#ffa500;stroke-width:1.5;"/>
    <path clip-path="url(#pa0c6cbda0b)" d="M 237.220194 115.99132 
L 253.681552 115.99132 
" style="fill:none;stroke:#ffa500;stroke-width:1.5;"/>
    <path clip-path="url(#pa0c6cbda0b)" d="M 307.638223 91.569864 
L 324.09958 91.569864 
" style="fill:none;stroke:#ffa500;stroke-width:1.5;"/>
    <path clip-path="url(#pa0c6cbda0b)" d="M 297.578504 150.537896 
L 314.039862 150.537896 
" style="fill:none;stroke:#ffa500;stroke-width:1.5;"/>
    <path clip-path="url(#pa0c6cbda0b)" d="M 239.963754 160.96656 
L 256.425111 160.96656 
" style="fill:none;stroke:#ffa500;stroke-width:1.5;"/>
    <path clip-path="url(#pa0c6cbda0b)" d="M 327.757659 89.942384 
L 344.219016 89.942384 
" style="fill:none;stroke:#ffa500;stroke-width:1.5;"/>
    <path clip-path="url(#pa0c6cbda0b)" d="M 237.220194 145.322236 
L 253.681552 145.322236 
" style="fill:none;stroke:#ffa500;stroke-width:1.5;"/>
    <path clip-path="url(#pa0c6cbda0b)" d="M 316.783421 80.611213 
L 333.244778 80.611213 
" style="fill:none;stroke:#ffa500;stroke-width:1.5;"/>
    <path clip-path="url(#pa0c6cbda0b)" d="M 125.648773 148.555638 
L 143.93917 148.555638 
" style="fill:none;stroke:#ffa500;stroke-width:1.5;"/>
    <path clip-path="url(#pa0c6cbda0b)" d="M 309.467262 61.281334 
L 325.92862 61.281334 
" style="fill:none;stroke:#ffa500;stroke-width:1.5;"/>
    <path clip-path="url(#pa0c6cbda0b)" d="M 248.194433 153.915423 
L 264.65579 153.915423 
" style="fill:none;stroke:#ffa500;stroke-width:1.5;"/>
    <path clip-path="url(#pa0c6cbda0b)" d="M 265.57031 69.532503 
L 282.031667 69.532503 
" style="fill:none;stroke:#ffa500;stroke-width:1.5;"/>
    <path clip-path="url(#pa0c6cbda0b)" d="M 350.620655 72.29605 
L 367.082013 72.29605 
" style="fill:none;stroke:#ffa500;stroke-width:1.5;"/>
    <path clip-path="url(#pa0c6cbda0b)" d="M 276.544548 126.449989 
L 293.005905 126.449989 
" style="fill:none;stroke:#ffa500;stroke-width:1.5;"/>
    <path clip-path="url(#pa0c6cbda0b)" d="M 255.510591 173.983286 
L 271.971949 173.983286 
" style="fill:none;stroke:#ffa500;stroke-width:1.5;"/>
    <path clip-path="url(#pa0c6cbda0b)" d="M 310.381782 77.289213 
L 326.843139 77.289213 
" style="fill:none;stroke:#ffa500;stroke-width:1.5;"/>
    <path clip-path="url(#pa0c6cbda0b)" d="M 305.809183 79.12352 
L 322.27054 79.12352 
" style="fill:none;stroke:#ffa500;stroke-width:1.5;"/>
    <path clip-path="url(#pa0c6cbda0b)" d="M 250.937992 149.873536 
L 267.399349 149.873536 
" style="fill:none;stroke:#ffa500;stroke-width:1.5;"/>
    <path clip-path="url(#pa0c6cbda0b)" d="M 211.613639 117.503756 
L 228.074996 117.503756 
" style="fill:none;stroke:#ffa500;stroke-width:1.5;"/>
    <path clip-path="url(#pa0c6cbda0b)" d="M 314.039862 82.877548 
L 330.501219 82.877548 
" style="fill:none;stroke:#ffa500;stroke-width:1.5;"/>
    <path clip-path="url(#pa0c6cbda0b)" d="M 273.800988 58.443211 
L 290.262346 58.443211 
" style="fill:none;stroke:#ffa500;stroke-width:1.5;"/>
    <path clip-path="url(#pa0c6cbda0b)" d="M 305.809183 104.526528 
L 324.09958 104.526528 
" style="fill:none;stroke:#ffa500;stroke-width:1.5;"/>
    <path clip-path="url(#pa0c6cbda0b)" d="M 310.381782 93.219486 
L 326.843139 93.219486 
" style="fill:none;stroke:#ffa500;stroke-width:1.5;"/>
    <path clip-path="url(#pa0c6cbda0b)" d="M 319.526981 108.699821 
L 335.988338 108.699821 
" style="fill:none;stroke:#ffa500;stroke-width:1.5;"/>
    <path clip-path="url(#pa0c6cbda0b)" d="M 305.809183 78.019609 
L 322.27054 78.019609 
" style="fill:none;stroke:#ffa500;stroke-width:1.5;"/>
    <path clip-path="url(#pa0c6cbda0b)" d="M 324.09958 94.891863 
L 342.389977 94.891863 
" style="fill:none;stroke:#ffa500;stroke-width:1.5;"/>
    <path clip-path="url(#pa0c6cbda0b)" d="M 322.27054 81.361961 
L 338.731897 81.361961 
" style="fill:none;stroke:#ffa500;stroke-width:1.5;"/>
   </g>
   <g id="LineCollection_2">
    <path clip-path="url(#pa0c6cbda0b)" d="M 80.837301 259.651667 
L 80.837301 250.19919 
" style="fill:none;stroke:#ffa500;stroke-width:1.5;"/>
    <path clip-path="url(#pa0c6cbda0b)" d="M 335.988338 129.211963 
L 335.988338 119.550141 
" style="fill:none;stroke:#ffa500;stroke-width:1.5;"/>
    <path clip-path="url(#pa0c6cbda0b)" d="M 283.860707 82.496871 
L 283.860707 75.84149 
" style="fill:none;stroke:#ffa500;stroke-width:1.5;"/>
    <path clip-path="url(#pa0c6cbda0b)" d="M 227.160476 163.164422 
L 227.160476 158.807832 
" style="fill:none;stroke:#ffa500;stroke-width:1.5;"/>
    <path clip-path="url(#pa0c6cbda0b)" d="M 304.894663 85.187054 
L 304.894663 82.877548 
" style="fill:none;stroke:#ffa500;stroke-width:1.5;"/>
    <path clip-path="url(#pa0c6cbda0b)" d="M 326.843139 100.933809 
L 326.843139 99.176598 
" style="fill:none;stroke:#ffa500;stroke-width:1.5;"/>
    <path clip-path="url(#pa0c6cbda0b)" d="M 289.347826 107.292702 
L 289.347826 98.307452 
" style="fill:none;stroke:#ffa500;stroke-width:1.5;"/>
    <path clip-path="url(#pa0c6cbda0b)" d="M 191.494202 160.96656 
L 191.494202 149.873536 
" style="fill:none;stroke:#ffa500;stroke-width:1.5;"/>
    <path clip-path="url(#pa0c6cbda0b)" d="M 264.65579 173.983286 
L 264.65579 150.537896 
" style="fill:none;stroke:#ffa500;stroke-width:1.5;"/>
    <path clip-path="url(#pa0c6cbda0b)" d="M 314.954381 96.16146 
L 314.954381 86.358516 
" style="fill:none;stroke:#ffa500;stroke-width:1.5;"/>
    <path clip-path="url(#pa0c6cbda0b)" d="M 213.442678 184.092922 
L 213.442678 172.377363 
" style="fill:none;stroke:#ffa500;stroke-width:1.5;"/>
    <path clip-path="url(#pa0c6cbda0b)" d="M 250.937992 141.552646 
L 250.937992 129.771989 
" style="fill:none;stroke:#ffa500;stroke-width:1.5;"/>
    <path clip-path="url(#pa0c6cbda0b)" d="M 282.946187 128.654512 
L 282.946187 116.997512 
" style="fill:none;stroke:#ffa500;stroke-width:1.5;"/>
    <path clip-path="url(#pa0c6cbda0b)" d="M 260.083191 156.686867 
L 260.083191 144.685776 
" style="fill:none;stroke:#ffa500;stroke-width:1.5;"/>
    <path clip-path="url(#pa0c6cbda0b)" d="M 329.586699 115.491338 
L 329.586699 91.160941 
" style="fill:none;stroke:#ffa500;stroke-width:1.5;"/>
    <path clip-path="url(#pa0c6cbda0b)" d="M 318.612461 89.942384 
L 318.612461 78.386464 
" style="fill:none;stroke:#ffa500;stroke-width:1.5;"/>
    <path clip-path="url(#pa0c6cbda0b)" d="M 245.450873 122.157669 
L 245.450873 110.123463 
" style="fill:none;stroke:#ffa500;stroke-width:1.5;"/>
    <path clip-path="url(#pa0c6cbda0b)" d="M 315.868901 97.444492 
L 315.868901 85.966769 
" style="fill:none;stroke:#ffa500;stroke-width:1.5;"/>
    <path clip-path="url(#pa0c6cbda0b)" d="M 305.809183 153.915423 
L 305.809183 147.251912 
" style="fill:none;stroke:#ffa500;stroke-width:1.5;"/>
    <path clip-path="url(#pa0c6cbda0b)" d="M 248.194433 166.91845 
L 248.194433 155.293227 
" style="fill:none;stroke:#ffa500;stroke-width:1.5;"/>
    <path clip-path="url(#pa0c6cbda0b)" d="M 335.988338 92.804972 
L 335.988338 87.145826 
" style="fill:none;stroke:#ffa500;stroke-width:1.5;"/>
    <path clip-path="url(#pa0c6cbda0b)" d="M 245.450873 151.205916 
L 245.450873 139.710908 
" style="fill:none;stroke:#ffa500;stroke-width:1.5;"/>
    <path clip-path="url(#pa0c6cbda0b)" d="M 325.0141 91.569864 
L 325.0141 70.561466 
" style="fill:none;stroke:#ffa500;stroke-width:1.5;"/>
    <path clip-path="url(#pa0c6cbda0b)" d="M 134.793972 154.602368 
L 134.793972 142.796199 
" style="fill:none;stroke:#ffa500;stroke-width:1.5;"/>
    <path clip-path="url(#pa0c6cbda0b)" d="M 317.697941 67.50041 
L 317.697941 55.365752 
" style="fill:none;stroke:#ffa500;stroke-width:1.5;"/>
    <path clip-path="url(#pa0c6cbda0b)" d="M 256.425111 159.523146 
L 256.425111 148.555638 
" style="fill:none;stroke:#ffa500;stroke-width:1.5;"/>
    <path clip-path="url(#pa0c6cbda0b)" d="M 273.800988 74.410849 
L 273.800988 64.84287 
" style="fill:none;stroke:#ffa500;stroke-width:1.5;"/>
    <path clip-path="url(#pa0c6cbda0b)" d="M 358.851334 74.055811 
L 358.851334 70.561466 
" style="fill:none;stroke:#ffa500;stroke-width:1.5;"/>
    <path clip-path="url(#pa0c6cbda0b)" d="M 284.775226 132.611589 
L 284.775226 120.586432 
" style="fill:none;stroke:#ffa500;stroke-width:1.5;"/>
    <path clip-path="url(#pa0c6cbda0b)" d="M 263.74127 179.777684 
L 263.74127 168.453222 
" style="fill:none;stroke:#ffa500;stroke-width:1.5;"/>
    <path clip-path="url(#pa0c6cbda0b)" d="M 318.612461 78.019609 
L 318.612461 76.563191 
" style="fill:none;stroke:#ffa500;stroke-width:1.5;"/>
    <path clip-path="url(#pa0c6cbda0b)" d="M 314.039862 83.259423 
L 314.039862 75.124059 
" style="fill:none;stroke:#ffa500;stroke-width:1.5;"/>
    <path clip-path="url(#pa0c6cbda0b)" d="M 259.168671 155.988044 
L 259.168671 144.052639 
" style="fill:none;stroke:#ffa500;stroke-width:1.5;"/>
    <path clip-path="url(#pa0c6cbda0b)" d="M 219.844317 123.216587 
L 219.844317 112.048033 
" style="fill:none;stroke:#ffa500;stroke-width:1.5;"/>
    <path clip-path="url(#pa0c6cbda0b)" d="M 322.27054 83.642505 
L 322.27054 82.117386 
" style="fill:none;stroke:#ffa500;stroke-width:1.5;"/>
    <path clip-path="url(#pa0c6cbda0b)" d="M 282.031667 59.38189 
L 282.031667 57.511744 
" style="fill:none;stroke:#ffa500;stroke-width:1.5;"/>
    <path clip-path="url(#pa0c6cbda0b)" d="M 314.954381 110.601749 
L 314.954381 98.741246 
" style="fill:none;stroke:#ffa500;stroke-width:1.5;"/>
    <path clip-path="url(#pa0c6cbda0b)" d="M 318.612461 95.313587 
L 318.612461 91.160941 
" style="fill:none;stroke:#ffa500;stroke-width:1.5;"/>
    <path clip-path="url(#pa0c6cbda0b)" d="M 327.757659 121.631658 
L 327.757659 97.015304 
" style="fill:none;stroke:#ffa500;stroke-width:1.5;"/>
    <path clip-path="url(#pa0c6cbda0b)" d="M 314.039862 79.865085 
L 314.039862 76.201803 
" style="fill:none;stroke:#ffa500;stroke-width:1.5;"/>
    <path clip-path="url(#pa0c6cbda0b)" d="M 333.244778 100.933809 
L 333.244778 89.136764 
" style="fill:none;stroke:#ffa500;stroke-width:1.5;"/>
    <path clip-path="url(#pa0c6cbda0b)" d="M 330.501219 87.541407 
L 330.501219 75.482244 
" style="fill:none;stroke:#ffa500;stroke-width:1.5;"/>
   </g>
   <g id="line2d_33">
    <defs>
     <path d="M 0 2 
L 0 -2 
" id="mfc6c38949b" style="stroke:#ffa500;"/>
    </defs>
    <g clip-path="url(#pa0c6cbda0b)">
     <use style="fill:#ffa500;stroke:#ffa500;" x="71.692102" xlink:href="#mfc6c38949b" y="254.833336"/>
     <use style="fill:#ffa500;stroke:#ffa500;" x="327.757659" xlink:href="#mfc6c38949b" y="124.284836"/>
     <use style="fill:#ffa500;stroke:#ffa500;" x="275.630028" xlink:href="#mfc6c38949b" y="79.12352"/>
     <use style="fill:#ffa500;stroke:#ffa500;" x="218.929798" xlink:href="#mfc6c38949b" y="160.96656"/>
     <use style="fill:#ffa500;stroke:#ffa500;" x="296.663984" xlink:href="#mfc6c38949b" y="84.026802"/>
     <use style="fill:#ffa500;stroke:#ffa500;" x="318.612461" xlink:href="#mfc6c38949b" y="100.05202"/>
     <use style="fill:#ffa500;stroke:#ffa500;" x="281.117147" xlink:href="#mfc6c38949b" y="102.716861"/>
     <use style="fill:#ffa500;stroke:#ffa500;" x="183.263524" xlink:href="#mfc6c38949b" y="155.293227"/>
     <use style="fill:#ffa500;stroke:#ffa500;" x="256.425111" xlink:href="#mfc6c38949b" y="161.694763"/>
     <use style="fill:#ffa500;stroke:#ffa500;" x="306.723703" xlink:href="#mfc6c38949b" y="91.160941"/>
     <use style="fill:#ffa500;stroke:#ffa500;" x="205.212" xlink:href="#mfc6c38949b" y="178.093693"/>
     <use style="fill:#ffa500;stroke:#ffa500;" x="242.707314" xlink:href="#mfc6c38949b" y="135.519292"/>
     <use style="fill:#ffa500;stroke:#ffa500;" x="274.715508" xlink:href="#mfc6c38949b" y="122.685972"/>
     <use style="fill:#ffa500;stroke:#ffa500;" x="251.852512" xlink:href="#mfc6c38949b" y="150.537896"/>
     <use style="fill:#ffa500;stroke:#ffa500;" x="321.35602" xlink:href="#mfc6c38949b" y="102.716861"/>
     <use style="fill:#ffa500;stroke:#ffa500;" x="310.381782" xlink:href="#mfc6c38949b" y="84.026802"/>
     <use style="fill:#ffa500;stroke:#ffa500;" x="237.220194" xlink:href="#mfc6c38949b" y="115.99132"/>
     <use style="fill:#ffa500;stroke:#ffa500;" x="307.638223" xlink:href="#mfc6c38949b" y="91.569864"/>
     <use style="fill:#ffa500;stroke:#ffa500;" x="297.578504" xlink:href="#mfc6c38949b" y="150.537896"/>
     <use style="fill:#ffa500;stroke:#ffa500;" x="239.963754" xlink:href="#mfc6c38949b" y="160.96656"/>
     <use style="fill:#ffa500;stroke:#ffa500;" x="327.757659" xlink:href="#mfc6c38949b" y="89.942384"/>
     <use style="fill:#ffa500;stroke:#ffa500;" x="237.220194" xlink:href="#mfc6c38949b" y="145.322236"/>
     <use style="fill:#ffa500;stroke:#ffa500;" x="316.783421" xlink:href="#mfc6c38949b" y="80.611213"/>
     <use style="fill:#ffa500;stroke:#ffa500;" x="125.648773" xlink:href="#mfc6c38949b" y="148.555638"/>
     <use style="fill:#ffa500;stroke:#ffa500;" x="309.467262" xlink:href="#mfc6c38949b" y="61.281334"/>
     <use style="fill:#ffa500;stroke:#ffa500;" x="248.194433" xlink:href="#mfc6c38949b" y="153.915423"/>
     <use style="fill:#ffa500;stroke:#ffa500;" x="265.57031" xlink:href="#mfc6c38949b" y="69.532503"/>
     <use style="fill:#ffa500;stroke:#ffa500;" x="350.620655" xlink:href="#mfc6c38949b" y="72.29605"/>
     <use style="fill:#ffa500;stroke:#ffa500;" x="276.544548" xlink:href="#mfc6c38949b" y="126.449989"/>
     <use style="fill:#ffa500;stroke:#ffa500;" x="255.510591" xlink:href="#mfc6c38949b" y="173.983286"/>
     <use style="fill:#ffa500;stroke:#ffa500;" x="310.381782" xlink:href="#mfc6c38949b" y="77.289213"/>
     <use style="fill:#ffa500;stroke:#ffa500;" x="305.809183" xlink:href="#mfc6c38949b" y="79.12352"/>
     <use style="fill:#ffa500;stroke:#ffa500;" x="250.937992" xlink:href="#mfc6c38949b" y="149.873536"/>
     <use style="fill:#ffa500;stroke:#ffa500;" x="211.613639" xlink:href="#mfc6c38949b" y="117.503756"/>
     <use style="fill:#ffa500;stroke:#ffa500;" x="314.039862" xlink:href="#mfc6c38949b" y="82.877548"/>
     <use style="fill:#ffa500;stroke:#ffa500;" x="273.800988" xlink:href="#mfc6c38949b" y="58.443211"/>
     <use style="fill:#ffa500;stroke:#ffa500;" x="305.809183" xlink:href="#mfc6c38949b" y="104.526528"/>
     <use style="fill:#ffa500;stroke:#ffa500;" x="310.381782" xlink:href="#mfc6c38949b" y="93.219486"/>
     <use style="fill:#ffa500;stroke:#ffa500;" x="319.526981" xlink:href="#mfc6c38949b" y="108.699821"/>
     <use style="fill:#ffa500;stroke:#ffa500;" x="305.809183" xlink:href="#mfc6c38949b" y="78.019609"/>
     <use style="fill:#ffa500;stroke:#ffa500;" x="324.09958" xlink:href="#mfc6c38949b" y="94.891863"/>
     <use style="fill:#ffa500;stroke:#ffa500;" x="322.27054" xlink:href="#mfc6c38949b" y="81.361961"/>
    </g>
   </g>
   <g id="line2d_34">
    <g clip-path="url(#pa0c6cbda0b)">
     <use style="fill:#ffa500;stroke:#ffa500;" x="89.982499" xlink:href="#mfc6c38949b" y="254.833336"/>
     <use style="fill:#ffa500;stroke:#ffa500;" x="344.219016" xlink:href="#mfc6c38949b" y="124.284836"/>
     <use style="fill:#ffa500;stroke:#ffa500;" x="292.091385" xlink:href="#mfc6c38949b" y="79.12352"/>
     <use style="fill:#ffa500;stroke:#ffa500;" x="235.391155" xlink:href="#mfc6c38949b" y="160.96656"/>
     <use style="fill:#ffa500;stroke:#ffa500;" x="313.125342" xlink:href="#mfc6c38949b" y="84.026802"/>
     <use style="fill:#ffa500;stroke:#ffa500;" x="335.073818" xlink:href="#mfc6c38949b" y="100.05202"/>
     <use style="fill:#ffa500;stroke:#ffa500;" x="297.578504" xlink:href="#mfc6c38949b" y="102.716861"/>
     <use style="fill:#ffa500;stroke:#ffa500;" x="199.724881" xlink:href="#mfc6c38949b" y="155.293227"/>
     <use style="fill:#ffa500;stroke:#ffa500;" x="272.886468" xlink:href="#mfc6c38949b" y="161.694763"/>
     <use style="fill:#ffa500;stroke:#ffa500;" x="323.18506" xlink:href="#mfc6c38949b" y="91.160941"/>
     <use style="fill:#ffa500;stroke:#ffa500;" x="221.673357" xlink:href="#mfc6c38949b" y="178.093693"/>
     <use style="fill:#ffa500;stroke:#ffa500;" x="259.168671" xlink:href="#mfc6c38949b" y="135.519292"/>
     <use style="fill:#ffa500;stroke:#ffa500;" x="291.176865" xlink:href="#mfc6c38949b" y="122.685972"/>
     <use style="fill:#ffa500;stroke:#ffa500;" x="268.313869" xlink:href="#mfc6c38949b" y="150.537896"/>
     <use style="fill:#ffa500;stroke:#ffa500;" x="337.817378" xlink:href="#mfc6c38949b" y="102.716861"/>
     <use style="fill:#ffa500;stroke:#ffa500;" x="326.843139" xlink:href="#mfc6c38949b" y="84.026802"/>
     <use style="fill:#ffa500;stroke:#ffa500;" x="253.681552" xlink:href="#mfc6c38949b" y="115.99132"/>
     <use style="fill:#ffa500;stroke:#ffa500;" x="324.09958" xlink:href="#mfc6c38949b" y="91.569864"/>
     <use style="fill:#ffa500;stroke:#ffa500;" x="314.039862" xlink:href="#mfc6c38949b" y="150.537896"/>
     <use style="fill:#ffa500;stroke:#ffa500;" x="256.425111" xlink:href="#mfc6c38949b" y="160.96656"/>
     <use style="fill:#ffa500;stroke:#ffa500;" x="344.219016" xlink:href="#mfc6c38949b" y="89.942384"/>
     <use style="fill:#ffa500;stroke:#ffa500;" x="253.681552" xlink:href="#mfc6c38949b" y="145.322236"/>
     <use style="fill:#ffa500;stroke:#ffa500;" x="333.244778" xlink:href="#mfc6c38949b" y="80.611213"/>
     <use style="fill:#ffa500;stroke:#ffa500;" x="143.93917" xlink:href="#mfc6c38949b" y="148.555638"/>
     <use style="fill:#ffa500;stroke:#ffa500;" x="325.92862" xlink:href="#mfc6c38949b" y="61.281334"/>
     <use style="fill:#ffa500;stroke:#ffa500;" x="264.65579" xlink:href="#mfc6c38949b" y="153.915423"/>
     <use style="fill:#ffa500;stroke:#ffa500;" x="282.031667" xlink:href="#mfc6c38949b" y="69.532503"/>
     <use style="fill:#ffa500;stroke:#ffa500;" x="367.082013" xlink:href="#mfc6c38949b" y="72.29605"/>
     <use style="fill:#ffa500;stroke:#ffa500;" x="293.005905" xlink:href="#mfc6c38949b" y="126.449989"/>
     <use style="fill:#ffa500;stroke:#ffa500;" x="271.971949" xlink:href="#mfc6c38949b" y="173.983286"/>
     <use style="fill:#ffa500;stroke:#ffa500;" x="326.843139" xlink:href="#mfc6c38949b" y="77.289213"/>
     <use style="fill:#ffa500;stroke:#ffa500;" x="322.27054" xlink:href="#mfc6c38949b" y="79.12352"/>
     <use style="fill:#ffa500;stroke:#ffa500;" x="267.399349" xlink:href="#mfc6c38949b" y="149.873536"/>
     <use style="fill:#ffa500;stroke:#ffa500;" x="228.074996" xlink:href="#mfc6c38949b" y="117.503756"/>
     <use style="fill:#ffa500;stroke:#ffa500;" x="330.501219" xlink:href="#mfc6c38949b" y="82.877548"/>
     <use style="fill:#ffa500;stroke:#ffa500;" x="290.262346" xlink:href="#mfc6c38949b" y="58.443211"/>
     <use style="fill:#ffa500;stroke:#ffa500;" x="324.09958" xlink:href="#mfc6c38949b" y="104.526528"/>
     <use style="fill:#ffa500;stroke:#ffa500;" x="326.843139" xlink:href="#mfc6c38949b" y="93.219486"/>
     <use style="fill:#ffa500;stroke:#ffa500;" x="335.988338" xlink:href="#mfc6c38949b" y="108.699821"/>
     <use style="fill:#ffa500;stroke:#ffa500;" x="322.27054" xlink:href="#mfc6c38949b" y="78.019609"/>
     <use style="fill:#ffa500;stroke:#ffa500;" x="342.389977" xlink:href="#mfc6c38949b" y="94.891863"/>
     <use style="fill:#ffa500;stroke:#ffa500;" x="338.731897" xlink:href="#mfc6c38949b" y="81.361961"/>
    </g>
   </g>
   <g id="line2d_35">
    <defs>
     <path d="M 2 0 
L -2 -0 
" id="mfd15a6df40" style="stroke:#ffa500;"/>
    </defs>
    <g clip-path="url(#pa0c6cbda0b)">
     <use style="fill:#ffa500;stroke:#ffa500;" x="80.837301" xlink:href="#mfd15a6df40" y="259.651667"/>
     <use style="fill:#ffa500;stroke:#ffa500;" x="335.988338" xlink:href="#mfd15a6df40" y="129.211963"/>
     <use style="fill:#ffa500;stroke:#ffa500;" x="283.860707" xlink:href="#mfd15a6df40" y="82.496871"/>
     <use style="fill:#ffa500;stroke:#ffa500;" x="227.160476" xlink:href="#mfd15a6df40" y="163.164422"/>
     <use style="fill:#ffa500;stroke:#ffa500;" x="304.894663" xlink:href="#mfd15a6df40" y="85.187054"/>
     <use style="fill:#ffa500;stroke:#ffa500;" x="326.843139" xlink:href="#mfd15a6df40" y="100.933809"/>
     <use style="fill:#ffa500;stroke:#ffa500;" x="289.347826" xlink:href="#mfd15a6df40" y="107.292702"/>
     <use style="fill:#ffa500;stroke:#ffa500;" x="191.494202" xlink:href="#mfd15a6df40" y="160.96656"/>
     <use style="fill:#ffa500;stroke:#ffa500;" x="264.65579" xlink:href="#mfd15a6df40" y="173.983286"/>
     <use style="fill:#ffa500;stroke:#ffa500;" x="314.954381" xlink:href="#mfd15a6df40" y="96.16146"/>
     <use style="fill:#ffa500;stroke:#ffa500;" x="213.442678" xlink:href="#mfd15a6df40" y="184.092922"/>
     <use style="fill:#ffa500;stroke:#ffa500;" x="250.937992" xlink:href="#mfd15a6df40" y="141.552646"/>
     <use style="fill:#ffa500;stroke:#ffa500;" x="282.946187" xlink:href="#mfd15a6df40" y="128.654512"/>
     <use style="fill:#ffa500;stroke:#ffa500;" x="260.083191" xlink:href="#mfd15a6df40" y="156.686867"/>
     <use style="fill:#ffa500;stroke:#ffa500;" x="329.586699" xlink:href="#mfd15a6df40" y="115.491338"/>
     <use style="fill:#ffa500;stroke:#ffa500;" x="318.612461" xlink:href="#mfd15a6df40" y="89.942384"/>
     <use style="fill:#ffa500;stroke:#ffa500;" x="245.450873" xlink:href="#mfd15a6df40" y="122.157669"/>
     <use style="fill:#ffa500;stroke:#ffa500;" x="315.868901" xlink:href="#mfd15a6df40" y="97.444492"/>
     <use style="fill:#ffa500;stroke:#ffa500;" x="305.809183" xlink:href="#mfd15a6df40" y="153.915423"/>
     <use style="fill:#ffa500;stroke:#ffa500;" x="248.194433" xlink:href="#mfd15a6df40" y="166.91845"/>
     <use style="fill:#ffa500;stroke:#ffa500;" x="335.988338" xlink:href="#mfd15a6df40" y="92.804972"/>
     <use style="fill:#ffa500;stroke:#ffa500;" x="245.450873" xlink:href="#mfd15a6df40" y="151.205916"/>
     <use style="fill:#ffa500;stroke:#ffa500;" x="325.0141" xlink:href="#mfd15a6df40" y="91.569864"/>
     <use style="fill:#ffa500;stroke:#ffa500;" x="134.793972" xlink:href="#mfd15a6df40" y="154.602368"/>
     <use style="fill:#ffa500;stroke:#ffa500;" x="317.697941" xlink:href="#mfd15a6df40" y="67.50041"/>
     <use style="fill:#ffa500;stroke:#ffa500;" x="256.425111" xlink:href="#mfd15a6df40" y="159.523146"/>
     <use style="fill:#ffa500;stroke:#ffa500;" x="273.800988" xlink:href="#mfd15a6df40" y="74.410849"/>
     <use style="fill:#ffa500;stroke:#ffa500;" x="358.851334" xlink:href="#mfd15a6df40" y="74.055811"/>
     <use style="fill:#ffa500;stroke:#ffa500;" x="284.775226" xlink:href="#mfd15a6df40" y="132.611589"/>
     <use style="fill:#ffa500;stroke:#ffa500;" x="263.74127" xlink:href="#mfd15a6df40" y="179.777684"/>
     <use style="fill:#ffa500;stroke:#ffa500;" x="318.612461" xlink:href="#mfd15a6df40" y="78.019609"/>
     <use style="fill:#ffa500;stroke:#ffa500;" x="314.039862" xlink:href="#mfd15a6df40" y="83.259423"/>
     <use style="fill:#ffa500;stroke:#ffa500;" x="259.168671" xlink:href="#mfd15a6df40" y="155.988044"/>
     <use style="fill:#ffa500;stroke:#ffa500;" x="219.844317" xlink:href="#mfd15a6df40" y="123.216587"/>
     <use style="fill:#ffa500;stroke:#ffa500;" x="322.27054" xlink:href="#mfd15a6df40" y="83.642505"/>
     <use style="fill:#ffa500;stroke:#ffa500;" x="282.031667" xlink:href="#mfd15a6df40" y="59.38189"/>
     <use style="fill:#ffa500;stroke:#ffa500;" x="314.954381" xlink:href="#mfd15a6df40" y="110.601749"/>
     <use style="fill:#ffa500;stroke:#ffa500;" x="318.612461" xlink:href="#mfd15a6df40" y="95.313587"/>
     <use style="fill:#ffa500;stroke:#ffa500;" x="327.757659" xlink:href="#mfd15a6df40" y="121.631658"/>
     <use style="fill:#ffa500;stroke:#ffa500;" x="314.039862" xlink:href="#mfd15a6df40" y="79.865085"/>
     <use style="fill:#ffa500;stroke:#ffa500;" x="333.244778" xlink:href="#mfd15a6df40" y="100.933809"/>
     <use style="fill:#ffa500;stroke:#ffa500;" x="330.501219" xlink:href="#mfd15a6df40" y="87.541407"/>
    </g>
   </g>
   <g id="line2d_36">
    <g clip-path="url(#pa0c6cbda0b)">
     <use style="fill:#ffa500;stroke:#ffa500;" x="80.837301" xlink:href="#mfd15a6df40" y="250.19919"/>
     <use style="fill:#ffa500;stroke:#ffa500;" x="335.988338" xlink:href="#mfd15a6df40" y="119.550141"/>
     <use style="fill:#ffa500;stroke:#ffa500;" x="283.860707" xlink:href="#mfd15a6df40" y="75.84149"/>
     <use style="fill:#ffa500;stroke:#ffa500;" x="227.160476" xlink:href="#mfd15a6df40" y="158.807832"/>
     <use style="fill:#ffa500;stroke:#ffa500;" x="304.894663" xlink:href="#mfd15a6df40" y="82.877548"/>
     <use style="fill:#ffa500;stroke:#ffa500;" x="326.843139" xlink:href="#mfd15a6df40" y="99.176598"/>
     <use style="fill:#ffa500;stroke:#ffa500;" x="289.347826" xlink:href="#mfd15a6df40" y="98.307452"/>
     <use style="fill:#ffa500;stroke:#ffa500;" x="191.494202" xlink:href="#mfd15a6df40" y="149.873536"/>
     <use style="fill:#ffa500;stroke:#ffa500;" x="264.65579" xlink:href="#mfd15a6df40" y="150.537896"/>
     <use style="fill:#ffa500;stroke:#ffa500;" x="314.954381" xlink:href="#mfd15a6df40" y="86.358516"/>
     <use style="fill:#ffa500;stroke:#ffa500;" x="213.442678" xlink:href="#mfd15a6df40" y="172.377363"/>
     <use style="fill:#ffa500;stroke:#ffa500;" x="250.937992" xlink:href="#mfd15a6df40" y="129.771989"/>
     <use style="fill:#ffa500;stroke:#ffa500;" x="282.946187" xlink:href="#mfd15a6df40" y="116.997512"/>
     <use style="fill:#ffa500;stroke:#ffa500;" x="260.083191" xlink:href="#mfd15a6df40" y="144.685776"/>
     <use style="fill:#ffa500;stroke:#ffa500;" x="329.586699" xlink:href="#mfd15a6df40" y="91.160941"/>
     <use style="fill:#ffa500;stroke:#ffa500;" x="318.612461" xlink:href="#mfd15a6df40" y="78.386464"/>
     <use style="fill:#ffa500;stroke:#ffa500;" x="245.450873" xlink:href="#mfd15a6df40" y="110.123463"/>
     <use style="fill:#ffa500;stroke:#ffa500;" x="315.868901" xlink:href="#mfd15a6df40" y="85.966769"/>
     <use style="fill:#ffa500;stroke:#ffa500;" x="305.809183" xlink:href="#mfd15a6df40" y="147.251912"/>
     <use style="fill:#ffa500;stroke:#ffa500;" x="248.194433" xlink:href="#mfd15a6df40" y="155.293227"/>
     <use style="fill:#ffa500;stroke:#ffa500;" x="335.988338" xlink:href="#mfd15a6df40" y="87.145826"/>
     <use style="fill:#ffa500;stroke:#ffa500;" x="245.450873" xlink:href="#mfd15a6df40" y="139.710908"/>
     <use style="fill:#ffa500;stroke:#ffa500;" x="325.0141" xlink:href="#mfd15a6df40" y="70.561466"/>
     <use style="fill:#ffa500;stroke:#ffa500;" x="134.793972" xlink:href="#mfd15a6df40" y="142.796199"/>
     <use style="fill:#ffa500;stroke:#ffa500;" x="317.697941" xlink:href="#mfd15a6df40" y="55.365752"/>
     <use style="fill:#ffa500;stroke:#ffa500;" x="256.425111" xlink:href="#mfd15a6df40" y="148.555638"/>
     <use style="fill:#ffa500;stroke:#ffa500;" x="273.800988" xlink:href="#mfd15a6df40" y="64.84287"/>
     <use style="fill:#ffa500;stroke:#ffa500;" x="358.851334" xlink:href="#mfd15a6df40" y="70.561466"/>
     <use style="fill:#ffa500;stroke:#ffa500;" x="284.775226" xlink:href="#mfd15a6df40" y="120.586432"/>
     <use style="fill:#ffa500;stroke:#ffa500;" x="263.74127" xlink:href="#mfd15a6df40" y="168.453222"/>
     <use style="fill:#ffa500;stroke:#ffa500;" x="318.612461" xlink:href="#mfd15a6df40" y="76.563191"/>
     <use style="fill:#ffa500;stroke:#ffa500;" x="314.039862" xlink:href="#mfd15a6df40" y="75.124059"/>
     <use style="fill:#ffa500;stroke:#ffa500;" x="259.168671" xlink:href="#mfd15a6df40" y="144.052639"/>
     <use style="fill:#ffa500;stroke:#ffa500;" x="219.844317" xlink:href="#mfd15a6df40" y="112.048033"/>
     <use style="fill:#ffa500;stroke:#ffa500;" x="322.27054" xlink:href="#mfd15a6df40" y="82.117386"/>
     <use style="fill:#ffa500;stroke:#ffa500;" x="282.031667" xlink:href="#mfd15a6df40" y="57.511744"/>
     <use style="fill:#ffa500;stroke:#ffa500;" x="314.954381" xlink:href="#mfd15a6df40" y="98.741246"/>
     <use style="fill:#ffa500;stroke:#ffa500;" x="318.612461" xlink:href="#mfd15a6df40" y="91.160941"/>
     <use style="fill:#ffa500;stroke:#ffa500;" x="327.757659" xlink:href="#mfd15a6df40" y="97.015304"/>
     <use style="fill:#ffa500;stroke:#ffa500;" x="314.039862" xlink:href="#mfd15a6df40" y="76.201803"/>
     <use style="fill:#ffa500;stroke:#ffa500;" x="333.244778" xlink:href="#mfd15a6df40" y="89.136764"/>
     <use style="fill:#ffa500;stroke:#ffa500;" x="330.501219" xlink:href="#mfd15a6df40" y="75.482244"/>
    </g>
   </g>
   <g id="line2d_37">
    <path clip-path="url(#pa0c6cbda0b)" d="M 76.264702 235.911382 
L 133.221639 203.391018 
L 162.903424 185.837838 
L 193.387419 168.231174 
L 227.080255 148.614924 
L 247.937725 136.56525 
L 255.959829 131.510311 
L 258.36646 130.159906 
L 263.981933 126.755065 
L 273.608458 120.654569 
L 277.61951 118.03282 
L 288.048245 111.893677 
L 309.707925 98.32301 
L 316.125609 94.700246 
L 320.938871 91.896233 
L 332.169816 86.01116 
L 336.180868 83.70331 
L 345.807393 77.774548 
L 357.840549 70.086213 
L 396.346648 47.265007 
L 396.346648 47.265007 
" style="fill:none;stroke:#000000;stroke-width:1.5;"/>
   </g>
   <g id="line2d_38">
    <path clip-path="url(#pa0c6cbda0b)" d="M 76.264702 262.966 
L 104.342065 246.274425 
L 117.177431 238.628215 
L 143.650374 223.106096 
L 176.541 204.456589 
L 181.354263 201.488976 
L 236.70678 166.773429 
L 239.915621 164.904167 
L 247.135515 160.191388 
L 260.773092 151.90004 
L 263.179723 150.698091 
L 266.388564 149.33717 
L 269.597406 147.954679 
L 273.608458 145.620777 
L 277.61951 143.716164 
L 280.828351 141.85849 
L 284.839403 139.626057 
L 308.905715 124.708336 
L 313.718977 121.899024 
L 322.543292 116.63547 
L 326.554344 114.423564 
L 333.774237 110.26792 
L 341.796341 105.385217 
L 346.609603 102.465583 
L 352.225076 98.961013 
L 357.038339 96.131436 
L 366.664863 90.421259 
L 389.126754 77.378204 
L 396.346648 72.904732 
L 396.346648 72.904732 
" style="fill:none;stroke:#ff0000;stroke-dasharray:5.55,2.4;stroke-dashoffset:0;stroke-width:1.5;"/>
   </g>
   <g id="line2d_39">
    <path clip-path="url(#pa0c6cbda0b)" d="M 76.264702 212.159611 
L 93.11112 202.595186 
L 122.792904 184.563022 
L 156.485741 163.442088 
L 176.541 151.375758 
L 190.980787 142.283196 
L 215.84931 128.246284 
L 218.255941 126.889885 
L 257.56425 103.771758 
L 267.190775 97.859701 
L 272.806247 94.076752 
L 299.27919 78.705393 
L 306.499084 74.877282 
L 312.114557 71.459919 
L 315.323398 69.418031 
L 340.994131 54.235675 
L 349.016235 49.601049 
L 357.038339 45.452072 
L 361.04939 43.25472 
L 396.346648 21.046 
L 396.346648 21.046 
" style="fill:none;stroke:#ff0000;stroke-dasharray:5.55,2.4;stroke-dashoffset:0;stroke-width:1.5;"/>
   </g>
   <g id="line2d_40">
    <defs>
     <path d="M 0 3 
C 0.795609 3 1.55874 2.683901 2.12132 2.12132 
C 2.683901 1.55874 3 0.795609 3 0 
C 3 -0.795609 2.683901 -1.55874 2.12132 -2.12132 
C 1.55874 -2.683901 0.795609 -3 0 -3 
C -0.795609 -3 -1.55874 -2.683901 -2.12132 -2.12132 
C -2.683901 -1.55874 -3 -0.795609 -3 0 
C -3 0.795609 -2.683901 1.55874 -2.12132 2.12132 
C -1.55874 2.683901 -0.795609 3 0 3 
z
" id="m779c5ffda6" style="stroke:#ffa500;"/>
    </defs>
    <g clip-path="url(#pa0c6cbda0b)">
     <use style="fill:#ffa500;stroke:#ffa500;" x="80.837301" xlink:href="#m779c5ffda6" y="254.833336"/>
     <use style="fill:#ffa500;stroke:#ffa500;" x="335.988338" xlink:href="#m779c5ffda6" y="124.284836"/>
     <use style="fill:#ffa500;stroke:#ffa500;" x="283.860707" xlink:href="#m779c5ffda6" y="79.12352"/>
     <use style="fill:#ffa500;stroke:#ffa500;" x="227.160476" xlink:href="#m779c5ffda6" y="160.96656"/>
     <use style="fill:#ffa500;stroke:#ffa500;" x="304.894663" xlink:href="#m779c5ffda6" y="84.026802"/>
     <use style="fill:#ffa500;stroke:#ffa500;" x="326.843139" xlink:href="#m779c5ffda6" y="100.05202"/>
     <use style="fill:#ffa500;stroke:#ffa500;" x="289.347826" xlink:href="#m779c5ffda6" y="102.716861"/>
     <use style="fill:#ffa500;stroke:#ffa500;" x="191.494202" xlink:href="#m779c5ffda6" y="155.293227"/>
     <use style="fill:#ffa500;stroke:#ffa500;" x="264.65579" xlink:href="#m779c5ffda6" y="161.694763"/>
     <use style="fill:#ffa500;stroke:#ffa500;" x="314.954381" xlink:href="#m779c5ffda6" y="91.160941"/>
     <use style="fill:#ffa500;stroke:#ffa500;" x="213.442678" xlink:href="#m779c5ffda6" y="178.093693"/>
     <use style="fill:#ffa500;stroke:#ffa500;" x="250.937992" xlink:href="#m779c5ffda6" y="135.519292"/>
     <use style="fill:#ffa500;stroke:#ffa500;" x="282.946187" xlink:href="#m779c5ffda6" y="122.685972"/>
     <use style="fill:#ffa500;stroke:#ffa500;" x="260.083191" xlink:href="#m779c5ffda6" y="150.537896"/>
     <use style="fill:#ffa500;stroke:#ffa500;" x="329.586699" xlink:href="#m779c5ffda6" y="102.716861"/>
     <use style="fill:#ffa500;stroke:#ffa500;" x="318.612461" xlink:href="#m779c5ffda6" y="84.026802"/>
     <use style="fill:#ffa500;stroke:#ffa500;" x="245.450873" xlink:href="#m779c5ffda6" y="115.99132"/>
     <use style="fill:#ffa500;stroke:#ffa500;" x="315.868901" xlink:href="#m779c5ffda6" y="91.569864"/>
     <use style="fill:#ffa500;stroke:#ffa500;" x="305.809183" xlink:href="#m779c5ffda6" y="150.537896"/>
     <use style="fill:#ffa500;stroke:#ffa500;" x="248.194433" xlink:href="#m779c5ffda6" y="160.96656"/>
     <use style="fill:#ffa500;stroke:#ffa500;" x="335.988338" xlink:href="#m779c5ffda6" y="89.942384"/>
     <use style="fill:#ffa500;stroke:#ffa500;" x="245.450873" xlink:href="#m779c5ffda6" y="145.322236"/>
     <use style="fill:#ffa500;stroke:#ffa500;" x="325.0141" xlink:href="#m779c5ffda6" y="80.611213"/>
     <use style="fill:#ffa500;stroke:#ffa500;" x="134.793972" xlink:href="#m779c5ffda6" y="148.555638"/>
     <use style="fill:#ffa500;stroke:#ffa500;" x="317.697941" xlink:href="#m779c5ffda6" y="61.281334"/>
     <use style="fill:#ffa500;stroke:#ffa500;" x="256.425111" xlink:href="#m779c5ffda6" y="153.915423"/>
     <use style="fill:#ffa500;stroke:#ffa500;" x="273.800988" xlink:href="#m779c5ffda6" y="69.532503"/>
     <use style="fill:#ffa500;stroke:#ffa500;" x="358.851334" xlink:href="#m779c5ffda6" y="72.29605"/>
     <use style="fill:#ffa500;stroke:#ffa500;" x="284.775226" xlink:href="#m779c5ffda6" y="126.449989"/>
     <use style="fill:#ffa500;stroke:#ffa500;" x="263.74127" xlink:href="#m779c5ffda6" y="173.983286"/>
     <use style="fill:#ffa500;stroke:#ffa500;" x="318.612461" xlink:href="#m779c5ffda6" y="77.289213"/>
     <use style="fill:#ffa500;stroke:#ffa500;" x="314.039862" xlink:href="#m779c5ffda6" y="79.12352"/>
     <use style="fill:#ffa500;stroke:#ffa500;" x="259.168671" xlink:href="#m779c5ffda6" y="149.873536"/>
     <use style="fill:#ffa500;stroke:#ffa500;" x="219.844317" xlink:href="#m779c5ffda6" y="117.503756"/>
     <use style="fill:#ffa500;stroke:#ffa500;" x="322.27054" xlink:href="#m779c5ffda6" y="82.877548"/>
     <use style="fill:#ffa500;stroke:#ffa500;" x="282.031667" xlink:href="#m779c5ffda6" y="58.443211"/>
     <use style="fill:#ffa500;stroke:#ffa500;" x="314.954381" xlink:href="#m779c5ffda6" y="104.526528"/>
     <use style="fill:#ffa500;stroke:#ffa500;" x="318.612461" xlink:href="#m779c5ffda6" y="93.219486"/>
     <use style="fill:#ffa500;stroke:#ffa500;" x="327.757659" xlink:href="#m779c5ffda6" y="108.699821"/>
     <use style="fill:#ffa500;stroke:#ffa500;" x="314.039862" xlink:href="#m779c5ffda6" y="78.019609"/>
     <use style="fill:#ffa500;stroke:#ffa500;" x="333.244778" xlink:href="#m779c5ffda6" y="94.891863"/>
     <use style="fill:#ffa500;stroke:#ffa500;" x="330.501219" xlink:href="#m779c5ffda6" y="81.361961"/>
    </g>
   </g>
   <g id="patch_3">
    <path d="M 55.459375 275.062 
L 55.459375 8.95 
" style="fill:none;stroke:#000000;stroke-linecap:square;stroke-linejoin:miter;stroke-width:0.8;"/>
   </g>
   <g id="patch_4">
    <path d="M 412.579375 275.062 
L 412.579375 8.95 
" style="fill:none;stroke:#000000;stroke-linecap:square;stroke-linejoin:miter;stroke-width:0.8;"/>
   </g>
   <g id="patch_5">
    <path d="M 55.459375 275.062 
L 412.579375 275.062 
" style="fill:none;stroke:#000000;stroke-linecap:square;stroke-linejoin:miter;stroke-width:0.8;"/>
   </g>
   <g id="patch_6">
    <path d="M 55.459375 8.95 
L 412.579375 8.95 
" style="fill:none;stroke:#000000;stroke-linecap:square;stroke-linejoin:miter;stroke-width:0.8;"/>
   </g>
  </g>
 </g>
 <defs>
  <clipPath id="pa0c6cbda0b">
   <rect height="266.112" width="357.12" x="55.459375" y="8.95"/>
  </clipPath>
 </defs>
</svg>
