<?xml version="1.0" encoding="utf-8" standalone="no"?>
<!DOCTYPE svg PUBLIC "-//W3C//DTD SVG 1.1//EN"
  "http://www.w3.org/Graphics/SVG/1.1/DTD/svg11.dtd">
<svg xmlns:xlink="http://www.w3.org/1999/xlink" width="405.609062pt" height="309.612pt" viewBox="0 0 405.609062 309.612" xmlns="http://www.w3.org/2000/svg" version="1.1">
 <metadata>
  <rdf:RDF xmlns:dc="http://purl.org/dc/elements/1.1/" xmlns:cc="http://creativecommons.org/ns#" xmlns:rdf="http://www.w3.org/1999/02/22-rdf-syntax-ns#">
   <cc:Work>
    <dc:type rdf:resource="http://purl.org/dc/dcmitype/StillImage"/>
    <dc:date>2022-09-19T17:51:36.618430</dc:date>
    <dc:format>image/svg+xml</dc:format>
    <dc:creator>
     <cc:Agent>
      <dc:title>Matplotlib v3.5.1, https://matplotlib.org/</dc:title>
     </cc:Agent>
    </dc:creator>
   </cc:Work>
  </rdf:RDF>
 </metadata>
 <defs>
  <style type="text/css">*{stroke-linejoin: round; stroke-linecap: butt}</style>
 </defs>
 <g id="figure_1">
  <g id="patch_1">
   <path d="M 0 309.612 
L 405.609063 309.612 
L 405.609063 0 
L 0 0 
z
" style="fill: #ffffff"/>
  </g>
  <g id="axes_1">
   <g id="patch_2">
    <path d="M 39.539063 275.062 
L 396.659063 275.062 
L 396.659063 8.95 
L 39.539063 8.95 
z
" style="fill: #ffffff"/>
   </g>
   <g id="matplotlib.axis_1">
    <g id="xtick_1">
     <g id="line2d_1">
      <defs>
       <path id="m6ad566da6c" d="M 0 1.75 
L 0 -1.75 
" style="stroke: #000000; stroke-width: 0.8"/>
      </defs>
      <g>
       <use xlink:href="#m6ad566da6c" x="55.77179" y="275.062" style="stroke: #000000; stroke-width: 0.8"/>
      </g>
     </g>
     <g id="line2d_2">
      <g>
       <use xlink:href="#m6ad566da6c" x="55.77179" y="8.95" style="stroke: #000000; stroke-width: 0.8"/>
      </g>
     </g>
     <g id="text_1">
      <!-- 0 -->
      <g transform="translate(52.992102 287.452625)scale(0.1 -0.1)">
       <defs>
        <path id="HelveticaNeue-Medium-30" d="M 1779 518 
C 1139 518 960 1306 960 2240 
C 960 3174 1139 3962 1779 3962 
C 2419 3962 2598 3174 2598 2240 
C 2598 1306 2419 518 1779 518 
z
M 1779 4570 
C 493 4570 230 3258 230 2240 
C 230 1222 493 -90 1779 -90 
C 3066 -90 3328 1222 3328 2240 
C 3328 3258 3066 4570 1779 4570 
z
" transform="scale(0.015625)"/>
       </defs>
       <use xlink:href="#HelveticaNeue-Medium-30"/>
      </g>
     </g>
    </g>
    <g id="xtick_2">
     <g id="line2d_3">
      <g>
       <use xlink:href="#m6ad566da6c" x="120.702699" y="275.062" style="stroke: #000000; stroke-width: 0.8"/>
      </g>
     </g>
     <g id="line2d_4">
      <g>
       <use xlink:href="#m6ad566da6c" x="120.702699" y="8.95" style="stroke: #000000; stroke-width: 0.8"/>
      </g>
     </g>
     <g id="text_2">
      <!-- 1 -->
      <g transform="translate(117.923011 287.452625)scale(0.1 -0.1)">
       <defs>
        <path id="HelveticaNeue-Medium-31" d="M 339 3162 
L 1440 3162 
L 1440 0 
L 2240 0 
L 2240 4480 
L 1645 4480 
C 1536 3942 954 3731 339 3738 
L 339 3162 
z
" transform="scale(0.015625)"/>
       </defs>
       <use xlink:href="#HelveticaNeue-Medium-31"/>
      </g>
     </g>
    </g>
    <g id="xtick_3">
     <g id="line2d_5">
      <g>
       <use xlink:href="#m6ad566da6c" x="185.633608" y="275.062" style="stroke: #000000; stroke-width: 0.8"/>
      </g>
     </g>
     <g id="line2d_6">
      <g>
       <use xlink:href="#m6ad566da6c" x="185.633608" y="8.95" style="stroke: #000000; stroke-width: 0.8"/>
      </g>
     </g>
     <g id="text_3">
      <!-- 2 -->
      <g transform="translate(182.85392 287.452625)scale(0.1 -0.1)">
       <defs>
        <path id="HelveticaNeue-Medium-32" d="M 3309 653 
L 1126 653 
C 1254 1050 1798 1325 2317 1683 
C 2829 2042 3315 2483 3315 3194 
C 3315 3770 2970 4570 1875 4570 
C 877 4570 333 3834 333 2842 
L 1062 2842 
C 1082 3469 1254 3962 1830 3962 
C 2458 3962 2592 3488 2586 3168 
C 2573 2470 1818 2118 1235 1696 
C 634 1293 256 736 250 0 
L 3309 0 
L 3309 653 
z
" transform="scale(0.015625)"/>
       </defs>
       <use xlink:href="#HelveticaNeue-Medium-32"/>
      </g>
     </g>
    </g>
    <g id="xtick_4">
     <g id="line2d_7">
      <g>
       <use xlink:href="#m6ad566da6c" x="250.564517" y="275.062" style="stroke: #000000; stroke-width: 0.8"/>
      </g>
     </g>
     <g id="line2d_8">
      <g>
       <use xlink:href="#m6ad566da6c" x="250.564517" y="8.95" style="stroke: #000000; stroke-width: 0.8"/>
      </g>
     </g>
     <g id="text_4">
      <!-- 3 -->
      <g transform="translate(247.78483 287.452625)scale(0.1 -0.1)">
       <defs>
        <path id="HelveticaNeue-Medium-33" d="M 1459 2080 
C 2035 2106 2630 2016 2630 1318 
C 2630 806 2259 518 1773 518 
C 1203 518 909 928 928 1472 
L 198 1472 
C 218 538 736 -90 1773 -90 
C 2630 -90 3360 435 3360 1280 
C 3360 1856 3053 2298 2547 2400 
L 2547 2413 
C 2976 2566 3181 2925 3181 3373 
C 3181 4166 2464 4570 1766 4570 
C 864 4570 320 3917 282 3046 
L 1011 3046 
C 998 3507 1248 3962 1754 3962 
C 2157 3962 2451 3706 2451 3328 
C 2451 2778 1946 2605 1459 2624 
L 1459 2080 
z
" transform="scale(0.015625)"/>
       </defs>
       <use xlink:href="#HelveticaNeue-Medium-33"/>
      </g>
     </g>
    </g>
    <g id="xtick_5">
     <g id="line2d_9">
      <g>
       <use xlink:href="#m6ad566da6c" x="315.495426" y="275.062" style="stroke: #000000; stroke-width: 0.8"/>
      </g>
     </g>
     <g id="line2d_10">
      <g>
       <use xlink:href="#m6ad566da6c" x="315.495426" y="8.95" style="stroke: #000000; stroke-width: 0.8"/>
      </g>
     </g>
     <g id="text_5">
      <!-- 4 -->
      <g transform="translate(312.715739 287.452625)scale(0.1 -0.1)">
       <defs>
        <path id="HelveticaNeue-Medium-34" d="M 3341 1638 
L 2765 1638 
L 2765 4480 
L 2074 4480 
L 154 1786 
L 154 1062 
L 2074 1062 
L 2074 0 
L 2765 0 
L 2765 1062 
L 3341 1062 
L 3341 1638 
z
M 2061 3610 
L 2074 3610 
L 2074 1638 
L 717 1638 
L 2061 3610 
z
" transform="scale(0.015625)"/>
       </defs>
       <use xlink:href="#HelveticaNeue-Medium-34"/>
      </g>
     </g>
    </g>
    <g id="xtick_6">
     <g id="line2d_11">
      <g>
       <use xlink:href="#m6ad566da6c" x="380.426335" y="275.062" style="stroke: #000000; stroke-width: 0.8"/>
      </g>
     </g>
     <g id="line2d_12">
      <g>
       <use xlink:href="#m6ad566da6c" x="380.426335" y="8.95" style="stroke: #000000; stroke-width: 0.8"/>
      </g>
     </g>
     <g id="text_6">
      <!-- 5 -->
      <g transform="translate(377.646648 287.452625)scale(0.1 -0.1)">
       <defs>
        <path id="HelveticaNeue-Medium-35" d="M 307 2029 
L 1037 2029 
C 1152 2342 1453 2438 1760 2438 
C 2349 2438 2611 1997 2611 1504 
C 2611 960 2400 518 1779 518 
C 1306 518 998 794 954 1274 
L 224 1274 
C 256 378 928 -90 1792 -90 
C 2893 -90 3341 800 3341 1517 
C 3341 2374 2829 3014 1939 3014 
C 1638 3014 1312 2893 1114 2675 
L 1101 2688 
L 1331 3827 
L 3104 3827 
L 3104 4480 
L 787 4480 
L 307 2029 
z
" transform="scale(0.015625)"/>
       </defs>
       <use xlink:href="#HelveticaNeue-Medium-35"/>
      </g>
     </g>
    </g>
    <g id="text_7">
     <!-- Model parameter x -->
     <g transform="translate(174.476406 300.502625)scale(0.1 -0.1)">
      <defs>
       <path id="HelveticaNeue-Medium-4d" d="M 474 0 
L 1235 0 
L 1235 3526 
L 1248 3526 
L 2515 0 
L 3174 0 
L 4442 3526 
L 4454 3526 
L 4454 0 
L 5216 0 
L 5216 4570 
L 4102 4570 
L 2874 992 
L 2861 992 
L 1600 4570 
L 474 4570 
L 474 0 
z
" transform="scale(0.015625)"/>
       <path id="HelveticaNeue-Medium-6f" d="M 1901 486 
C 1248 486 960 1082 960 1658 
C 960 2227 1248 2822 1901 2822 
C 2554 2822 2842 2227 2842 1658 
C 2842 1082 2554 486 1901 486 
z
M 1901 -90 
C 2963 -90 3571 640 3571 1658 
C 3571 2669 2963 3398 1901 3398 
C 838 3398 230 2669 230 1658 
C 230 640 838 -90 1901 -90 
z
" transform="scale(0.015625)"/>
       <path id="HelveticaNeue-Medium-64" d="M 954 1619 
C 954 2214 1197 2822 1882 2822 
C 2445 2822 2797 2387 2797 1658 
C 2797 1082 2522 486 1869 486 
C 1235 486 954 1050 954 1619 
z
M 3501 4570 
L 2771 4570 
L 2771 2880 
L 2758 2880 
C 2534 3245 2074 3398 1658 3398 
C 934 3398 224 2874 224 1677 
C 224 685 730 -90 1773 -90 
C 2189 -90 2605 70 2797 448 
L 2810 448 
L 2810 0 
L 3501 0 
L 3501 4570 
z
" transform="scale(0.015625)"/>
       <path id="HelveticaNeue-Medium-65" d="M 3386 1466 
C 3507 2458 2867 3398 1824 3398 
C 838 3398 224 2592 224 1651 
C 224 634 806 -90 1843 -90 
C 2566 -90 3181 314 3341 1037 
L 2650 1037 
C 2522 672 2266 486 1843 486 
C 1235 486 954 947 954 1466 
L 3386 1466 
z
M 954 1946 
C 973 2438 1318 2822 1824 2822 
C 2317 2822 2630 2406 2656 1946 
L 954 1946 
z
" transform="scale(0.015625)"/>
       <path id="HelveticaNeue-Medium-6c" d="M 403 0 
L 1133 0 
L 1133 4570 
L 403 4570 
L 403 0 
z
" transform="scale(0.015625)"/>
       <path id="HelveticaNeue-Medium-20" transform="scale(0.015625)"/>
       <path id="HelveticaNeue-Medium-70" d="M 2950 1651 
C 2950 1075 2701 486 2035 486 
C 1446 486 1107 986 1107 1651 
C 1107 2355 1421 2822 2035 2822 
C 2637 2822 2950 2253 2950 1651 
z
M 403 -1222 
L 1133 -1222 
L 1133 429 
L 1146 429 
C 1376 64 1830 -90 2253 -90 
C 3232 -90 3680 749 3680 1638 
C 3680 2605 3174 3398 2131 3398 
C 1709 3398 1312 3238 1107 2861 
L 1094 2861 
L 1094 3309 
L 403 3309 
L 403 -1222 
z
" transform="scale(0.015625)"/>
       <path id="HelveticaNeue-Medium-61" d="M 2426 1114 
C 2426 653 1926 486 1606 486 
C 1350 486 934 582 934 909 
C 934 1293 1216 1408 1530 1459 
C 1850 1517 2202 1510 2426 1658 
L 2426 1114 
z
M 3155 2438 
C 3155 3136 2477 3398 1830 3398 
C 1101 3398 378 3149 326 2298 
L 1056 2298 
C 1088 2656 1376 2822 1786 2822 
C 2080 2822 2470 2752 2470 2374 
C 2470 1946 2003 2003 1478 1907 
C 864 1837 205 1702 205 877 
C 205 230 742 -90 1338 -90 
C 1728 -90 2195 32 2483 314 
C 2541 13 2752 -90 3046 -90 
C 3168 -90 3398 -45 3507 -6 
L 3507 499 
C 3430 486 3373 486 3328 486 
C 3194 486 3155 557 3155 736 
L 3155 2438 
z
" transform="scale(0.015625)"/>
       <path id="HelveticaNeue-Medium-72" d="M 384 0 
L 1114 0 
L 1114 1574 
C 1114 2304 1510 2707 2010 2707 
C 2112 2707 2221 2688 2323 2675 
L 2323 3379 
C 2259 3386 2214 3398 2048 3398 
C 1600 3398 1165 3021 1082 2669 
L 1069 2669 
L 1069 3309 
L 384 3309 
L 384 0 
z
" transform="scale(0.015625)"/>
       <path id="HelveticaNeue-Medium-6d" d="M 384 0 
L 1114 0 
L 1114 1965 
C 1114 2515 1459 2822 1837 2822 
C 2278 2822 2419 2579 2419 2125 
L 2419 0 
L 3149 0 
L 3149 1939 
C 3149 2496 3360 2822 3853 2822 
C 4422 2822 4454 2458 4454 1933 
L 4454 0 
L 5184 0 
L 5184 2285 
C 5184 3091 4774 3398 4077 3398 
C 3597 3398 3283 3187 3040 2848 
C 2893 3226 2515 3398 2112 3398 
C 1587 3398 1312 3174 1094 2848 
L 1075 2848 
L 1075 3309 
L 384 3309 
L 384 0 
z
" transform="scale(0.015625)"/>
       <path id="HelveticaNeue-Medium-74" d="M 51 2765 
L 602 2765 
L 602 813 
C 614 262 755 -32 1517 -32 
C 1677 -32 1830 -6 1990 6 
L 1990 570 
C 1888 544 1786 544 1683 544 
C 1357 544 1331 698 1331 998 
L 1331 2765 
L 1990 2765 
L 1990 3309 
L 1331 3309 
L 1331 4301 
L 602 4301 
L 602 3309 
L 51 3309 
L 51 2765 
z
" transform="scale(0.015625)"/>
       <path id="HelveticaNeue-Medium-78" d="M 26 0 
L 883 0 
L 1696 1222 
L 2534 0 
L 3411 0 
L 2144 1779 
L 3270 3309 
L 2426 3309 
L 1702 2291 
L 1011 3309 
L 128 3309 
L 1274 1741 
L 26 0 
z
" transform="scale(0.015625)"/>
      </defs>
      <use xlink:href="#HelveticaNeue-Medium-4d"/>
      <use xlink:href="#HelveticaNeue-Medium-6f" x="88.899994"/>
      <use xlink:href="#HelveticaNeue-Medium-64" x="148.199982"/>
      <use xlink:href="#HelveticaNeue-Medium-65" x="209.299973"/>
      <use xlink:href="#HelveticaNeue-Medium-6c" x="264.899963"/>
      <use xlink:href="#HelveticaNeue-Medium-20" x="288.999954"/>
      <use xlink:href="#HelveticaNeue-Medium-70" x="316.799942"/>
      <use xlink:href="#HelveticaNeue-Medium-61" x="377.899933"/>
      <use xlink:href="#HelveticaNeue-Medium-72" x="433.499924"/>
      <use xlink:href="#HelveticaNeue-Medium-61" x="468.699921"/>
      <use xlink:href="#HelveticaNeue-Medium-6d" x="524.299911"/>
      <use xlink:href="#HelveticaNeue-Medium-65" x="611.299896"/>
      <use xlink:href="#HelveticaNeue-Medium-74" x="666.899887"/>
      <use xlink:href="#HelveticaNeue-Medium-65" x="700.199875"/>
      <use xlink:href="#HelveticaNeue-Medium-72" x="755.799866"/>
      <use xlink:href="#HelveticaNeue-Medium-20" x="790.999863"/>
      <use xlink:href="#HelveticaNeue-Medium-78" x="818.79985"/>
     </g>
    </g>
   </g>
   <g id="matplotlib.axis_2">
    <g id="ytick_1">
     <g id="line2d_13">
      <defs>
       <path id="m7cef92fe19" d="M 1.75 0 
L -1.75 -0 
" style="stroke: #000000; stroke-width: 0.8"/>
      </defs>
      <g>
       <use xlink:href="#m7cef92fe19" x="39.539063" y="262.966" style="stroke: #000000; stroke-width: 0.8"/>
      </g>
     </g>
     <g id="line2d_14">
      <g>
       <use xlink:href="#m7cef92fe19" x="396.659063" y="262.966" style="stroke: #000000; stroke-width: 0.8"/>
      </g>
     </g>
     <g id="text_8">
      <!-- 0.0 -->
      <g transform="translate(20.390625 266.536312)scale(0.1 -0.1)">
       <defs>
        <path id="HelveticaNeue-Medium-2e" d="M 442 0 
L 1331 0 
L 1331 864 
L 442 864 
L 442 0 
z
" transform="scale(0.015625)"/>
       </defs>
       <use xlink:href="#HelveticaNeue-Medium-30"/>
       <use xlink:href="#HelveticaNeue-Medium-2e" x="55.599991"/>
       <use xlink:href="#HelveticaNeue-Medium-30" x="83.399979"/>
      </g>
     </g>
    </g>
    <g id="ytick_2">
     <g id="line2d_15">
      <g>
       <use xlink:href="#m7cef92fe19" x="39.539063" y="226.57671" style="stroke: #000000; stroke-width: 0.8"/>
      </g>
     </g>
     <g id="line2d_16">
      <g>
       <use xlink:href="#m7cef92fe19" x="396.659063" y="226.57671" style="stroke: #000000; stroke-width: 0.8"/>
      </g>
     </g>
     <g id="text_9">
      <!-- 0.2 -->
      <g transform="translate(20.390625 230.147023)scale(0.1 -0.1)">
       <use xlink:href="#HelveticaNeue-Medium-30"/>
       <use xlink:href="#HelveticaNeue-Medium-2e" x="55.599991"/>
       <use xlink:href="#HelveticaNeue-Medium-32" x="83.399979"/>
      </g>
     </g>
    </g>
    <g id="ytick_3">
     <g id="line2d_17">
      <g>
       <use xlink:href="#m7cef92fe19" x="39.539063" y="190.18742" style="stroke: #000000; stroke-width: 0.8"/>
      </g>
     </g>
     <g id="line2d_18">
      <g>
       <use xlink:href="#m7cef92fe19" x="396.659063" y="190.18742" style="stroke: #000000; stroke-width: 0.8"/>
      </g>
     </g>
     <g id="text_10">
      <!-- 0.4 -->
      <g transform="translate(20.390625 193.757733)scale(0.1 -0.1)">
       <use xlink:href="#HelveticaNeue-Medium-30"/>
       <use xlink:href="#HelveticaNeue-Medium-2e" x="55.599991"/>
       <use xlink:href="#HelveticaNeue-Medium-34" x="83.399979"/>
      </g>
     </g>
    </g>
    <g id="ytick_4">
     <g id="line2d_19">
      <g>
       <use xlink:href="#m7cef92fe19" x="39.539063" y="153.798131" style="stroke: #000000; stroke-width: 0.8"/>
      </g>
     </g>
     <g id="line2d_20">
      <g>
       <use xlink:href="#m7cef92fe19" x="396.659063" y="153.798131" style="stroke: #000000; stroke-width: 0.8"/>
      </g>
     </g>
     <g id="text_11">
      <!-- 0.6 -->
      <g transform="translate(20.390625 157.368443)scale(0.1 -0.1)">
       <defs>
        <path id="HelveticaNeue-Medium-36" d="M 1824 518 
C 1293 518 1018 966 1018 1453 
C 1018 1946 1293 2368 1824 2368 
C 2349 2368 2611 1933 2611 1453 
C 2611 973 2349 518 1824 518 
z
M 3258 3347 
C 3219 4077 2618 4570 1907 4570 
C 640 4570 218 3322 218 2253 
C 218 947 531 -90 1850 -90 
C 2746 -90 3341 570 3341 1440 
C 3341 2298 2816 2944 1926 2944 
C 1530 2944 1158 2765 960 2413 
L 947 2426 
C 992 3014 1082 3962 1875 3962 
C 2253 3962 2496 3712 2528 3347 
L 3258 3347 
z
" transform="scale(0.015625)"/>
       </defs>
       <use xlink:href="#HelveticaNeue-Medium-30"/>
       <use xlink:href="#HelveticaNeue-Medium-2e" x="55.599991"/>
       <use xlink:href="#HelveticaNeue-Medium-36" x="83.399979"/>
      </g>
     </g>
    </g>
    <g id="ytick_5">
     <g id="line2d_21">
      <g>
       <use xlink:href="#m7cef92fe19" x="39.539063" y="117.408841" style="stroke: #000000; stroke-width: 0.8"/>
      </g>
     </g>
     <g id="line2d_22">
      <g>
       <use xlink:href="#m7cef92fe19" x="396.659063" y="117.408841" style="stroke: #000000; stroke-width: 0.8"/>
      </g>
     </g>
     <g id="text_12">
      <!-- 0.8 -->
      <g transform="translate(20.390625 120.979153)scale(0.1 -0.1)">
       <defs>
        <path id="HelveticaNeue-Medium-38" d="M 1779 486 
C 1293 486 928 794 928 1318 
C 928 1811 1293 2106 1779 2106 
C 2266 2106 2630 1811 2630 1318 
C 2630 794 2266 486 1779 486 
z
M 1779 -90 
C 2688 -90 3360 442 3360 1318 
C 3360 1882 3040 2285 2541 2413 
L 2541 2426 
C 2944 2579 3174 2912 3174 3347 
C 3174 4109 2669 4570 1779 4570 
C 890 4570 384 4109 384 3347 
C 384 2912 614 2579 1018 2426 
L 1018 2413 
C 518 2285 198 1882 198 1318 
C 198 442 870 -90 1779 -90 
z
M 1779 3994 
C 2170 3994 2483 3750 2483 3309 
C 2483 2886 2182 2650 1779 2650 
C 1376 2650 1075 2886 1075 3309 
C 1075 3750 1389 3994 1779 3994 
z
" transform="scale(0.015625)"/>
       </defs>
       <use xlink:href="#HelveticaNeue-Medium-30"/>
       <use xlink:href="#HelveticaNeue-Medium-2e" x="55.599991"/>
       <use xlink:href="#HelveticaNeue-Medium-38" x="83.399979"/>
      </g>
     </g>
    </g>
    <g id="ytick_6">
     <g id="line2d_23">
      <g>
       <use xlink:href="#m7cef92fe19" x="39.539063" y="81.019551" style="stroke: #000000; stroke-width: 0.8"/>
      </g>
     </g>
     <g id="line2d_24">
      <g>
       <use xlink:href="#m7cef92fe19" x="396.659063" y="81.019551" style="stroke: #000000; stroke-width: 0.8"/>
      </g>
     </g>
     <g id="text_13">
      <!-- 1.0 -->
      <g transform="translate(20.390625 84.589863)scale(0.1 -0.1)">
       <use xlink:href="#HelveticaNeue-Medium-31"/>
       <use xlink:href="#HelveticaNeue-Medium-2e" x="55.599991"/>
       <use xlink:href="#HelveticaNeue-Medium-30" x="83.399979"/>
      </g>
     </g>
    </g>
    <g id="ytick_7">
     <g id="line2d_25">
      <g>
       <use xlink:href="#m7cef92fe19" x="39.539063" y="44.630261" style="stroke: #000000; stroke-width: 0.8"/>
      </g>
     </g>
     <g id="line2d_26">
      <g>
       <use xlink:href="#m7cef92fe19" x="396.659063" y="44.630261" style="stroke: #000000; stroke-width: 0.8"/>
      </g>
     </g>
     <g id="text_14">
      <!-- 1.2 -->
      <g transform="translate(20.390625 48.200574)scale(0.1 -0.1)">
       <use xlink:href="#HelveticaNeue-Medium-31"/>
       <use xlink:href="#HelveticaNeue-Medium-2e" x="55.599991"/>
       <use xlink:href="#HelveticaNeue-Medium-32" x="83.399979"/>
      </g>
     </g>
    </g>
    <g id="text_15">
     <!-- Probability -->
     <g transform="translate(14.340625 166.829437)rotate(-90)scale(0.1 -0.1)">
      <defs>
       <path id="HelveticaNeue-Medium-50" d="M 1286 3917 
L 2470 3917 
C 2893 3917 3258 3763 3258 3162 
C 3258 2586 2816 2406 2458 2406 
L 1286 2406 
L 1286 3917 
z
M 486 0 
L 1286 0 
L 1286 1754 
L 2502 1754 
C 3808 1747 4058 2592 4058 3155 
C 4058 3725 3808 4570 2502 4570 
L 486 4570 
L 486 0 
z
" transform="scale(0.015625)"/>
       <path id="HelveticaNeue-Medium-62" d="M 2950 1651 
C 2950 1075 2701 486 2035 486 
C 1446 486 1107 986 1107 1651 
C 1107 2355 1421 2822 2035 2822 
C 2637 2822 2950 2253 2950 1651 
z
M 403 0 
L 1094 0 
L 1094 454 
L 1107 454 
C 1325 19 1805 -90 2253 -90 
C 3232 -90 3680 749 3680 1638 
C 3680 2605 3174 3398 2131 3398 
C 1760 3398 1344 3200 1146 2880 
L 1133 2880 
L 1133 4570 
L 403 4570 
L 403 0 
z
" transform="scale(0.015625)"/>
       <path id="HelveticaNeue-Medium-69" d="M 403 0 
L 1133 0 
L 1133 3309 
L 403 3309 
L 403 0 
z
M 403 3878 
L 1133 3878 
L 1133 4570 
L 403 4570 
L 403 3878 
z
" transform="scale(0.015625)"/>
       <path id="HelveticaNeue-Medium-79" d="M 1274 13 
L 1190 -243 
C 1101 -525 1018 -704 678 -704 
C 563 -704 448 -678 333 -659 
L 333 -1274 
C 499 -1299 666 -1312 838 -1312 
C 1600 -1312 1773 -774 2010 -179 
L 3296 3309 
L 2534 3309 
L 1696 838 
L 1683 838 
L 819 3309 
L 19 3309 
L 1274 13 
z
" transform="scale(0.015625)"/>
      </defs>
      <use xlink:href="#HelveticaNeue-Medium-50"/>
      <use xlink:href="#HelveticaNeue-Medium-72" x="66.699997"/>
      <use xlink:href="#HelveticaNeue-Medium-6f" x="101.899994"/>
      <use xlink:href="#HelveticaNeue-Medium-62" x="161.199982"/>
      <use xlink:href="#HelveticaNeue-Medium-61" x="222.299973"/>
      <use xlink:href="#HelveticaNeue-Medium-62" x="277.899963"/>
      <use xlink:href="#HelveticaNeue-Medium-69" x="338.999954"/>
      <use xlink:href="#HelveticaNeue-Medium-6c" x="363.099945"/>
      <use xlink:href="#HelveticaNeue-Medium-69" x="387.199936"/>
      <use xlink:href="#HelveticaNeue-Medium-74" x="411.299927"/>
      <use xlink:href="#HelveticaNeue-Medium-79" x="444.599915"/>
     </g>
    </g>
   </g>
   <g id="line2d_27">
    <path d="M 55.77179 262.966 
L 108.660375 262.86759 
L 115.169739 262.617446 
L 119.238092 262.240041 
L 122.492774 261.700724 
L 124.933786 261.081555 
L 127.374797 260.203121 
L 129.002138 259.43125 
L 130.629479 258.475193 
L 132.256821 257.300229 
L 133.884162 255.867565 
L 135.511503 254.134487 
L 137.138844 252.054698 
L 138.766185 249.578887 
L 140.393526 246.65554 
L 142.020867 243.232032 
L 143.648208 239.255999 
L 145.275549 234.676996 
L 146.90289 229.448419 
L 148.530231 223.52966 
L 150.157572 216.888441 
L 151.784913 209.503253 
L 153.412255 201.365818 
L 155.853266 187.769985 
L 158.294278 172.603601 
L 160.735289 156.070168 
L 163.989972 132.45432 
L 171.313006 78.307479 
L 173.754018 62.070815 
L 175.381359 52.306618 
L 177.0087 43.604194 
L 178.636041 36.130956 
L 180.263382 30.034503 
L 181.077053 27.542073 
L 181.890723 25.43778 
L 182.704394 23.732463 
L 183.518065 22.434953 
L 184.331735 21.552 
L 185.145406 21.088207 
L 185.959076 21.046 
L 186.772747 21.425599 
L 187.586417 22.22502 
L 188.400088 23.44009 
L 189.213758 25.064486 
L 190.027429 27.089788 
L 190.841099 29.505552 
L 192.46844 35.457119 
L 194.095782 42.798949 
L 195.723123 51.385702 
L 197.350464 61.051712 
L 199.791475 77.17634 
L 203.046158 100.703271 
L 210.369192 154.926354 
L 212.810204 171.541036 
L 215.251216 186.806071 
L 217.692227 200.510835 
L 220.133239 212.547459 
L 221.76058 219.63327 
L 223.387921 225.982266 
L 225.015262 231.620559 
L 226.642603 236.584046 
L 228.269944 240.916008 
L 229.897285 244.66483 
L 231.524626 247.881941 
L 233.151967 250.619994 
L 234.779309 252.931316 
L 236.40665 254.866656 
L 238.033991 256.474203 
L 239.661332 257.798875 
L 241.288673 258.881848 
L 242.916014 259.760294 
L 245.357026 260.765744 
L 247.798037 261.47937 
L 250.239049 261.977191 
L 253.493731 262.405748 
L 257.562084 262.701197 
L 263.257777 262.879811 
L 274.649165 262.958935 
L 351.947866 262.966 
L 380.426335 262.966 
L 380.426335 262.966 
" clip-path="url(#pe6ca1709a7)" style="fill: none; stroke-dasharray: 5.55,2.4; stroke-dashoffset: 0; stroke: #008fd5; stroke-width: 1.5"/>
   </g>
   <g id="line2d_28">
    <path d="M 55.77179 262.966 
L 122.492774 262.857807 
L 129.002138 262.634311 
L 133.884162 262.248009 
L 137.138844 261.802431 
L 140.393526 261.12766 
L 142.834538 260.417926 
L 145.275549 259.483565 
L 147.716561 258.272623 
L 150.157572 256.727651 
L 151.784913 255.481847 
L 153.412255 254.041525 
L 155.039596 252.38789 
L 156.666937 250.502545 
L 158.294278 248.367965 
L 159.921619 245.968001 
L 161.54896 243.288414 
L 163.989972 238.719768 
L 166.430983 233.469539 
L 168.871995 227.529928 
L 171.313006 220.914973 
L 173.754018 213.662525 
L 177.0087 203.112032 
L 180.263382 191.753363 
L 185.145406 173.811786 
L 191.65477 149.90819 
L 194.909452 138.690997 
L 198.164134 128.329792 
L 200.605146 121.242257 
L 203.046158 114.804699 
L 205.487169 109.048497 
L 207.928181 103.981624 
L 210.369192 99.590932 
L 212.810204 95.845388 
L 214.437545 93.684969 
L 216.064886 91.775471 
L 217.692227 90.099482 
L 219.319568 88.638672 
L 221.76058 86.809827 
L 224.201592 85.359807 
L 226.642603 84.228032 
L 229.083615 83.3584 
L 231.524626 82.700591 
L 234.779309 82.078179 
L 238.847661 81.592534 
L 243.729685 81.279685 
L 250.239049 81.102438 
L 263.257777 81.025691 
L 358.457231 81.019551 
L 380.426335 81.019551 
L 380.426335 81.019551 
" clip-path="url(#pe6ca1709a7)" style="fill: none; stroke: #fc4f30; stroke-width: 1.5"/>
   </g>
   <g id="line2d_29">
    <path d="M 55.77179 262.966 
L 282.78587 262.966 
L 283.599541 111.343959 
L 360.898242 111.343959 
L 361.711913 262.966 
L 380.426335 262.966 
L 380.426335 262.966 
" clip-path="url(#pe6ca1709a7)" style="fill: none; stroke-dasharray: 5.55,2.4; stroke-dashoffset: 0; stroke: #e5ae38; stroke-width: 1.5"/>
   </g>
   <g id="line2d_30">
    <path d="M 55.77179 262.966 
L 282.78587 262.966 
L 283.599541 261.635982 
L 360.898242 81.133552 
L 361.711913 81.019551 
L 380.426335 81.019551 
L 380.426335 81.019551 
" clip-path="url(#pe6ca1709a7)" style="fill: none; stroke: #6d904f; stroke-width: 1.5"/>
   </g>
   <g id="patch_3">
    <path d="M 39.539063 275.062 
L 39.539063 8.95 
" style="fill: none; stroke: #000000; stroke-width: 0.8; stroke-linejoin: miter; stroke-linecap: square"/>
   </g>
   <g id="patch_4">
    <path d="M 396.659063 275.062 
L 396.659063 8.95 
" style="fill: none; stroke: #000000; stroke-width: 0.8; stroke-linejoin: miter; stroke-linecap: square"/>
   </g>
   <g id="patch_5">
    <path d="M 39.539063 275.062 
L 396.659063 275.062 
" style="fill: none; stroke: #000000; stroke-width: 0.8; stroke-linejoin: miter; stroke-linecap: square"/>
   </g>
   <g id="patch_6">
    <path d="M 39.539063 8.95 
L 396.659063 8.95 
" style="fill: none; stroke: #000000; stroke-width: 0.8; stroke-linejoin: miter; stroke-linecap: square"/>
   </g>
   <g id="legend_1">
    <g id="patch_7">
     <path d="M 286.096534 63.225156 
L 390.828063 63.225156 
Q 392.494063 63.225156 392.494063 61.559156 
L 392.494063 14.781 
Q 392.494063 13.115 390.828063 13.115 
L 286.096534 13.115 
Q 284.430534 13.115 284.430534 14.781 
L 284.430534 61.559156 
Q 284.430534 63.225156 286.096534 63.225156 
z
" style="fill: #ffffff; opacity: 0.9; stroke: #cccccc; stroke-linejoin: miter"/>
    </g>
    <g id="line2d_31">
     <path d="M 290.261534 19.620209 
L 296.092534 19.620209 
L 301.923534 19.620209 
" style="fill: none; stroke-dasharray: 5.55,2.4; stroke-dashoffset: 0; stroke: #008fd5; stroke-width: 1.5"/>
    </g>
    <g id="text_16">
     <!-- density (Gauss) -->
     <g transform="translate(311.086534 22.535709)scale(0.0833 -0.0833)">
      <defs>
       <path id="HelveticaNeue-Medium-6e" d="M 384 0 
L 1114 0 
L 1114 1952 
C 1114 2438 1427 2822 1914 2822 
C 2342 2822 2547 2598 2560 2080 
L 2560 0 
L 3290 0 
L 3290 2272 
C 3290 3014 2835 3398 2118 3398 
C 1683 3398 1306 3174 1088 2810 
L 1075 2822 
L 1075 3309 
L 384 3309 
L 384 0 
z
" transform="scale(0.015625)"/>
       <path id="HelveticaNeue-Medium-73" d="M 205 1062 
C 218 282 838 -90 1670 -90 
C 2355 -90 3149 198 3149 986 
C 3149 1638 2611 1830 2080 1952 
C 1542 2074 1005 2125 1005 2483 
C 1005 2771 1395 2822 1606 2822 
C 1926 2822 2214 2726 2278 2381 
L 3040 2381 
C 2950 3117 2336 3398 1658 3398 
C 1056 3398 275 3174 275 2451 
C 275 1779 800 1587 1338 1472 
C 1869 1350 2400 1306 2419 922 
C 2438 544 1958 486 1683 486 
C 1293 486 973 640 934 1062 
L 205 1062 
z
" transform="scale(0.015625)"/>
       <path id="HelveticaNeue-Medium-28" d="M 1830 -1222 
C 1293 -314 1043 659 1043 1728 
C 1043 2797 1318 3763 1830 4678 
L 1235 4678 
C 653 3782 314 2758 314 1728 
C 314 506 723 -410 1235 -1222 
L 1830 -1222 
z
" transform="scale(0.015625)"/>
       <path id="HelveticaNeue-Medium-47" d="M 4474 2406 
L 2528 2406 
L 2528 1798 
L 3744 1798 
C 3731 1024 3283 531 2464 544 
C 1485 544 1075 1408 1075 2285 
C 1075 3162 1485 4026 2464 4026 
C 3040 4026 3565 3718 3642 3117 
L 4422 3117 
C 4301 4147 3462 4678 2464 4678 
C 1094 4678 275 3590 275 2285 
C 275 979 1094 -109 2464 -109 
C 3021 -109 3411 51 3840 538 
L 3962 0 
L 4474 0 
L 4474 2406 
z
" transform="scale(0.015625)"/>
       <path id="HelveticaNeue-Medium-75" d="M 3290 3309 
L 2560 3309 
L 2560 1389 
C 2560 877 2355 486 1747 486 
C 1350 486 1114 698 1114 1280 
L 1114 3309 
L 384 3309 
L 384 1210 
C 384 346 755 -90 1619 -90 
C 1984 -90 2381 128 2560 461 
L 2573 461 
L 2573 0 
L 3290 0 
L 3290 3309 
z
" transform="scale(0.015625)"/>
       <path id="HelveticaNeue-Medium-29" d="M -51 4678 
C 486 3763 736 2790 736 1722 
C 736 653 461 -314 -51 -1222 
L 544 -1222 
C 1126 -333 1466 691 1466 1722 
C 1466 2944 1056 3859 544 4678 
L -51 4678 
z
" transform="scale(0.015625)"/>
      </defs>
      <use xlink:href="#HelveticaNeue-Medium-64"/>
      <use xlink:href="#HelveticaNeue-Medium-65" x="61.099991"/>
      <use xlink:href="#HelveticaNeue-Medium-6e" x="116.699982"/>
      <use xlink:href="#HelveticaNeue-Medium-73" x="174.099976"/>
      <use xlink:href="#HelveticaNeue-Medium-69" x="225.999969"/>
      <use xlink:href="#HelveticaNeue-Medium-74" x="250.09996"/>
      <use xlink:href="#HelveticaNeue-Medium-79" x="283.399948"/>
      <use xlink:href="#HelveticaNeue-Medium-20" x="335.299942"/>
      <use xlink:href="#HelveticaNeue-Medium-28" x="363.09993"/>
      <use xlink:href="#HelveticaNeue-Medium-47" x="390.899918"/>
      <use xlink:href="#HelveticaNeue-Medium-61" x="466.799911"/>
      <use xlink:href="#HelveticaNeue-Medium-75" x="522.399902"/>
      <use xlink:href="#HelveticaNeue-Medium-73" x="579.799896"/>
      <use xlink:href="#HelveticaNeue-Medium-73" x="631.69989"/>
      <use xlink:href="#HelveticaNeue-Medium-29" x="683.599884"/>
     </g>
    </g>
    <g id="line2d_32">
     <path d="M 290.261534 31.581569 
L 296.092534 31.581569 
L 301.923534 31.581569 
" style="fill: none; stroke: #fc4f30; stroke-width: 1.5"/>
    </g>
    <g id="text_17">
     <!-- cumulative (Gauss) -->
     <g transform="translate(311.086534 34.497069)scale(0.0833 -0.0833)">
      <defs>
       <path id="HelveticaNeue-Medium-63" d="M 3347 2202 
C 3277 3014 2624 3398 1856 3398 
C 768 3398 224 2618 224 1619 
C 224 646 794 -90 1830 -90 
C 2682 -90 3213 384 3347 1242 
L 2618 1242 
C 2547 768 2253 486 1830 486 
C 1197 486 954 1069 954 1619 
C 954 2624 1485 2822 1862 2822 
C 2266 2822 2560 2605 2618 2202 
L 3347 2202 
z
" transform="scale(0.015625)"/>
       <path id="HelveticaNeue-Medium-76" d="M 1261 0 
L 2080 0 
L 3264 3309 
L 2509 3309 
L 1702 768 
L 1690 768 
L 851 3309 
L 58 3309 
L 1261 0 
z
" transform="scale(0.015625)"/>
      </defs>
      <use xlink:href="#HelveticaNeue-Medium-63"/>
      <use xlink:href="#HelveticaNeue-Medium-75" x="55.599991"/>
      <use xlink:href="#HelveticaNeue-Medium-6d" x="112.999985"/>
      <use xlink:href="#HelveticaNeue-Medium-75" x="199.999969"/>
      <use xlink:href="#HelveticaNeue-Medium-6c" x="257.399963"/>
      <use xlink:href="#HelveticaNeue-Medium-61" x="281.499954"/>
      <use xlink:href="#HelveticaNeue-Medium-74" x="337.099945"/>
      <use xlink:href="#HelveticaNeue-Medium-69" x="370.399933"/>
      <use xlink:href="#HelveticaNeue-Medium-76" x="394.499924"/>
      <use xlink:href="#HelveticaNeue-Medium-65" x="446.399918"/>
      <use xlink:href="#HelveticaNeue-Medium-20" x="501.999908"/>
      <use xlink:href="#HelveticaNeue-Medium-28" x="529.799896"/>
      <use xlink:href="#HelveticaNeue-Medium-47" x="557.599884"/>
      <use xlink:href="#HelveticaNeue-Medium-61" x="633.499878"/>
      <use xlink:href="#HelveticaNeue-Medium-75" x="689.099869"/>
      <use xlink:href="#HelveticaNeue-Medium-73" x="746.499863"/>
      <use xlink:href="#HelveticaNeue-Medium-73" x="798.399857"/>
      <use xlink:href="#HelveticaNeue-Medium-29" x="850.29985"/>
     </g>
    </g>
    <g id="line2d_33">
     <path d="M 290.261534 43.425788 
L 296.092534 43.425788 
L 301.923534 43.425788 
" style="fill: none; stroke-dasharray: 5.55,2.4; stroke-dashoffset: 0; stroke: #e5ae38; stroke-width: 1.5"/>
    </g>
    <g id="text_18">
     <!-- density (uniform) -->
     <g transform="translate(311.086534 46.341288)scale(0.0833 -0.0833)">
      <defs>
       <path id="HelveticaNeue-Medium-66" d="M 58 2765 
L 602 2765 
L 602 0 
L 1331 0 
L 1331 2765 
L 1952 2765 
L 1952 3309 
L 1331 3309 
L 1331 3648 
C 1331 3923 1491 3994 1690 3994 
C 1837 3994 1933 3981 2029 3955 
L 2029 4525 
C 1914 4557 1747 4570 1517 4570 
C 1043 4570 602 4429 602 3584 
L 602 3309 
L 58 3309 
L 58 2765 
z
" transform="scale(0.015625)"/>
      </defs>
      <use xlink:href="#HelveticaNeue-Medium-64"/>
      <use xlink:href="#HelveticaNeue-Medium-65" x="61.099991"/>
      <use xlink:href="#HelveticaNeue-Medium-6e" x="116.699982"/>
      <use xlink:href="#HelveticaNeue-Medium-73" x="174.099976"/>
      <use xlink:href="#HelveticaNeue-Medium-69" x="225.999969"/>
      <use xlink:href="#HelveticaNeue-Medium-74" x="250.09996"/>
      <use xlink:href="#HelveticaNeue-Medium-79" x="283.399948"/>
      <use xlink:href="#HelveticaNeue-Medium-20" x="335.299942"/>
      <use xlink:href="#HelveticaNeue-Medium-28" x="363.09993"/>
      <use xlink:href="#HelveticaNeue-Medium-75" x="390.899918"/>
      <use xlink:href="#HelveticaNeue-Medium-6e" x="448.299911"/>
      <use xlink:href="#HelveticaNeue-Medium-69" x="505.699905"/>
      <use xlink:href="#HelveticaNeue-Medium-66" x="529.799896"/>
      <use xlink:href="#HelveticaNeue-Medium-6f" x="561.299881"/>
      <use xlink:href="#HelveticaNeue-Medium-72" x="620.599869"/>
      <use xlink:href="#HelveticaNeue-Medium-6d" x="655.799866"/>
      <use xlink:href="#HelveticaNeue-Medium-29" x="742.79985"/>
     </g>
    </g>
    <g id="line2d_34">
     <path d="M 290.261534 55.387147 
L 296.092534 55.387147 
L 301.923534 55.387147 
" style="fill: none; stroke: #6d904f; stroke-width: 1.5"/>
    </g>
    <g id="text_19">
     <!-- cumulative (uniform) -->
     <g transform="translate(311.086534 58.302647)scale(0.0833 -0.0833)">
      <use xlink:href="#HelveticaNeue-Medium-63"/>
      <use xlink:href="#HelveticaNeue-Medium-75" x="55.599991"/>
      <use xlink:href="#HelveticaNeue-Medium-6d" x="112.999985"/>
      <use xlink:href="#HelveticaNeue-Medium-75" x="199.999969"/>
      <use xlink:href="#HelveticaNeue-Medium-6c" x="257.399963"/>
      <use xlink:href="#HelveticaNeue-Medium-61" x="281.499954"/>
      <use xlink:href="#HelveticaNeue-Medium-74" x="337.099945"/>
      <use xlink:href="#HelveticaNeue-Medium-69" x="370.399933"/>
      <use xlink:href="#HelveticaNeue-Medium-76" x="394.499924"/>
      <use xlink:href="#HelveticaNeue-Medium-65" x="446.399918"/>
      <use xlink:href="#HelveticaNeue-Medium-20" x="501.999908"/>
      <use xlink:href="#HelveticaNeue-Medium-28" x="529.799896"/>
      <use xlink:href="#HelveticaNeue-Medium-75" x="557.599884"/>
      <use xlink:href="#HelveticaNeue-Medium-6e" x="614.999878"/>
      <use xlink:href="#HelveticaNeue-Medium-69" x="672.399872"/>
      <use xlink:href="#HelveticaNeue-Medium-66" x="696.499863"/>
      <use xlink:href="#HelveticaNeue-Medium-6f" x="727.999847"/>
      <use xlink:href="#HelveticaNeue-Medium-72" x="787.299835"/>
      <use xlink:href="#HelveticaNeue-Medium-6d" x="822.499832"/>
      <use xlink:href="#HelveticaNeue-Medium-29" x="909.499817"/>
     </g>
    </g>
   </g>
  </g>
 </g>
 <defs>
  <clipPath id="pe6ca1709a7">
   <rect x="39.539063" y="8.95" width="357.12" height="266.112"/>
  </clipPath>
 </defs>
</svg>
