<?xml version="1.0" encoding="utf-8" standalone="no"?>
<!DOCTYPE svg PUBLIC "-//W3C//DTD SVG 1.1//EN"
  "http://www.w3.org/Graphics/SVG/1.1/DTD/svg11.dtd">
<svg xmlns:xlink="http://www.w3.org/1999/xlink" width="397.129375pt" height="322.63325pt" viewBox="0 0 397.129375 322.63325" xmlns="http://www.w3.org/2000/svg" version="1.1">
 <metadata>
  <rdf:RDF xmlns:dc="http://purl.org/dc/elements/1.1/" xmlns:cc="http://creativecommons.org/ns#" xmlns:rdf="http://www.w3.org/1999/02/22-rdf-syntax-ns#">
   <cc:Work>
    <dc:type rdf:resource="http://purl.org/dc/dcmitype/StillImage"/>
    <dc:date>2022-09-07T03:07:23.659759</dc:date>
    <dc:format>image/svg+xml</dc:format>
    <dc:creator>
     <cc:Agent>
      <dc:title>Matplotlib v3.5.1, https://matplotlib.org/</dc:title>
     </cc:Agent>
    </dc:creator>
   </cc:Work>
  </rdf:RDF>
 </metadata>
 <defs>
  <style type="text/css">*{stroke-linejoin: round; stroke-linecap: butt}</style>
 </defs>
 <g id="figure_1">
  <g id="patch_1">
   <path d="M 0 322.63325 
L 397.129375 322.63325 
L 397.129375 0 
L 0 0 
z
" style="fill: #ffffff"/>
  </g>
  <g id="axes_1">
   <g id="patch_2">
    <path d="M 31.059375 288.08325 
L 388.179375 288.08325 
L 388.179375 21.97125 
L 31.059375 21.97125 
z
" style="fill: #ffffff"/>
   </g>
   <g id="matplotlib.axis_1">
    <g id="xtick_1">
     <g id="line2d_1">
      <defs>
       <path id="m485166987e" d="M 0 1.75 
L 0 -1.75 
" style="stroke: #000000; stroke-width: 0.8"/>
      </defs>
      <g>
       <use xlink:href="#m485166987e" x="52.3273" y="288.08325" style="stroke: #000000; stroke-width: 0.8"/>
      </g>
     </g>
     <g id="line2d_2">
      <g>
       <use xlink:href="#m485166987e" x="52.3273" y="21.97125" style="stroke: #000000; stroke-width: 0.8"/>
      </g>
     </g>
     <g id="text_1">
      <!-- 0 -->
      <g transform="translate(49.547612 300.473875)scale(0.1 -0.1)">
       <defs>
        <path id="HelveticaNeue-Medium-30" d="M 1779 518 
C 1139 518 960 1306 960 2240 
C 960 3174 1139 3962 1779 3962 
C 2419 3962 2598 3174 2598 2240 
C 2598 1306 2419 518 1779 518 
z
M 1779 4570 
C 493 4570 230 3258 230 2240 
C 230 1222 493 -90 1779 -90 
C 3066 -90 3328 1222 3328 2240 
C 3328 3258 3066 4570 1779 4570 
z
" transform="scale(0.015625)"/>
       </defs>
       <use xlink:href="#HelveticaNeue-Medium-30"/>
      </g>
     </g>
    </g>
    <g id="xtick_2">
     <g id="line2d_3">
      <g>
       <use xlink:href="#m485166987e" x="111.582747" y="288.08325" style="stroke: #000000; stroke-width: 0.8"/>
      </g>
     </g>
     <g id="line2d_4">
      <g>
       <use xlink:href="#m485166987e" x="111.582747" y="21.97125" style="stroke: #000000; stroke-width: 0.8"/>
      </g>
     </g>
     <g id="text_2">
      <!-- 1 -->
      <g transform="translate(108.803059 300.473875)scale(0.1 -0.1)">
       <defs>
        <path id="HelveticaNeue-Medium-31" d="M 339 3162 
L 1440 3162 
L 1440 0 
L 2240 0 
L 2240 4480 
L 1645 4480 
C 1536 3942 954 3731 339 3738 
L 339 3162 
z
" transform="scale(0.015625)"/>
       </defs>
       <use xlink:href="#HelveticaNeue-Medium-31"/>
      </g>
     </g>
    </g>
    <g id="xtick_3">
     <g id="line2d_5">
      <g>
       <use xlink:href="#m485166987e" x="170.838194" y="288.08325" style="stroke: #000000; stroke-width: 0.8"/>
      </g>
     </g>
     <g id="line2d_6">
      <g>
       <use xlink:href="#m485166987e" x="170.838194" y="21.97125" style="stroke: #000000; stroke-width: 0.8"/>
      </g>
     </g>
     <g id="text_3">
      <!-- 2 -->
      <g transform="translate(168.058507 300.473875)scale(0.1 -0.1)">
       <defs>
        <path id="HelveticaNeue-Medium-32" d="M 3309 653 
L 1126 653 
C 1254 1050 1798 1325 2317 1683 
C 2829 2042 3315 2483 3315 3194 
C 3315 3770 2970 4570 1875 4570 
C 877 4570 333 3834 333 2842 
L 1062 2842 
C 1082 3469 1254 3962 1830 3962 
C 2458 3962 2592 3488 2586 3168 
C 2573 2470 1818 2118 1235 1696 
C 634 1293 256 736 250 0 
L 3309 0 
L 3309 653 
z
" transform="scale(0.015625)"/>
       </defs>
       <use xlink:href="#HelveticaNeue-Medium-32"/>
      </g>
     </g>
    </g>
    <g id="xtick_4">
     <g id="line2d_7">
      <g>
       <use xlink:href="#m485166987e" x="230.093641" y="288.08325" style="stroke: #000000; stroke-width: 0.8"/>
      </g>
     </g>
     <g id="line2d_8">
      <g>
       <use xlink:href="#m485166987e" x="230.093641" y="21.97125" style="stroke: #000000; stroke-width: 0.8"/>
      </g>
     </g>
     <g id="text_4">
      <!-- 3 -->
      <g transform="translate(227.313954 300.473875)scale(0.1 -0.1)">
       <defs>
        <path id="HelveticaNeue-Medium-33" d="M 1459 2080 
C 2035 2106 2630 2016 2630 1318 
C 2630 806 2259 518 1773 518 
C 1203 518 909 928 928 1472 
L 198 1472 
C 218 538 736 -90 1773 -90 
C 2630 -90 3360 435 3360 1280 
C 3360 1856 3053 2298 2547 2400 
L 2547 2413 
C 2976 2566 3181 2925 3181 3373 
C 3181 4166 2464 4570 1766 4570 
C 864 4570 320 3917 282 3046 
L 1011 3046 
C 998 3507 1248 3962 1754 3962 
C 2157 3962 2451 3706 2451 3328 
C 2451 2778 1946 2605 1459 2624 
L 1459 2080 
z
" transform="scale(0.015625)"/>
       </defs>
       <use xlink:href="#HelveticaNeue-Medium-33"/>
      </g>
     </g>
    </g>
    <g id="xtick_5">
     <g id="line2d_9">
      <g>
       <use xlink:href="#m485166987e" x="289.349088" y="288.08325" style="stroke: #000000; stroke-width: 0.8"/>
      </g>
     </g>
     <g id="line2d_10">
      <g>
       <use xlink:href="#m485166987e" x="289.349088" y="21.97125" style="stroke: #000000; stroke-width: 0.8"/>
      </g>
     </g>
     <g id="text_5">
      <!-- 4 -->
      <g transform="translate(286.569401 300.473875)scale(0.1 -0.1)">
       <defs>
        <path id="HelveticaNeue-Medium-34" d="M 3341 1638 
L 2765 1638 
L 2765 4480 
L 2074 4480 
L 154 1786 
L 154 1062 
L 2074 1062 
L 2074 0 
L 2765 0 
L 2765 1062 
L 3341 1062 
L 3341 1638 
z
M 2061 3610 
L 2074 3610 
L 2074 1638 
L 717 1638 
L 2061 3610 
z
" transform="scale(0.015625)"/>
       </defs>
       <use xlink:href="#HelveticaNeue-Medium-34"/>
      </g>
     </g>
    </g>
    <g id="xtick_6">
     <g id="line2d_11">
      <g>
       <use xlink:href="#m485166987e" x="348.604536" y="288.08325" style="stroke: #000000; stroke-width: 0.8"/>
      </g>
     </g>
     <g id="line2d_12">
      <g>
       <use xlink:href="#m485166987e" x="348.604536" y="21.97125" style="stroke: #000000; stroke-width: 0.8"/>
      </g>
     </g>
     <g id="text_6">
      <!-- 5 -->
      <g transform="translate(345.824848 300.473875)scale(0.1 -0.1)">
       <defs>
        <path id="HelveticaNeue-Medium-35" d="M 307 2029 
L 1037 2029 
C 1152 2342 1453 2438 1760 2438 
C 2349 2438 2611 1997 2611 1504 
C 2611 960 2400 518 1779 518 
C 1306 518 998 794 954 1274 
L 224 1274 
C 256 378 928 -90 1792 -90 
C 2893 -90 3341 800 3341 1517 
C 3341 2374 2829 3014 1939 3014 
C 1638 3014 1312 2893 1114 2675 
L 1101 2688 
L 1331 3827 
L 3104 3827 
L 3104 4480 
L 787 4480 
L 307 2029 
z
" transform="scale(0.015625)"/>
       </defs>
       <use xlink:href="#HelveticaNeue-Medium-35"/>
      </g>
     </g>
    </g>
    <g id="text_7">
     <!-- Parameter 1 -->
     <g transform="translate(181.460781 313.523875)scale(0.1 -0.1)">
      <defs>
       <path id="HelveticaNeue-Medium-50" d="M 1286 3917 
L 2470 3917 
C 2893 3917 3258 3763 3258 3162 
C 3258 2586 2816 2406 2458 2406 
L 1286 2406 
L 1286 3917 
z
M 486 0 
L 1286 0 
L 1286 1754 
L 2502 1754 
C 3808 1747 4058 2592 4058 3155 
C 4058 3725 3808 4570 2502 4570 
L 486 4570 
L 486 0 
z
" transform="scale(0.015625)"/>
       <path id="HelveticaNeue-Medium-61" d="M 2426 1114 
C 2426 653 1926 486 1606 486 
C 1350 486 934 582 934 909 
C 934 1293 1216 1408 1530 1459 
C 1850 1517 2202 1510 2426 1658 
L 2426 1114 
z
M 3155 2438 
C 3155 3136 2477 3398 1830 3398 
C 1101 3398 378 3149 326 2298 
L 1056 2298 
C 1088 2656 1376 2822 1786 2822 
C 2080 2822 2470 2752 2470 2374 
C 2470 1946 2003 2003 1478 1907 
C 864 1837 205 1702 205 877 
C 205 230 742 -90 1338 -90 
C 1728 -90 2195 32 2483 314 
C 2541 13 2752 -90 3046 -90 
C 3168 -90 3398 -45 3507 -6 
L 3507 499 
C 3430 486 3373 486 3328 486 
C 3194 486 3155 557 3155 736 
L 3155 2438 
z
" transform="scale(0.015625)"/>
       <path id="HelveticaNeue-Medium-72" d="M 384 0 
L 1114 0 
L 1114 1574 
C 1114 2304 1510 2707 2010 2707 
C 2112 2707 2221 2688 2323 2675 
L 2323 3379 
C 2259 3386 2214 3398 2048 3398 
C 1600 3398 1165 3021 1082 2669 
L 1069 2669 
L 1069 3309 
L 384 3309 
L 384 0 
z
" transform="scale(0.015625)"/>
       <path id="HelveticaNeue-Medium-6d" d="M 384 0 
L 1114 0 
L 1114 1965 
C 1114 2515 1459 2822 1837 2822 
C 2278 2822 2419 2579 2419 2125 
L 2419 0 
L 3149 0 
L 3149 1939 
C 3149 2496 3360 2822 3853 2822 
C 4422 2822 4454 2458 4454 1933 
L 4454 0 
L 5184 0 
L 5184 2285 
C 5184 3091 4774 3398 4077 3398 
C 3597 3398 3283 3187 3040 2848 
C 2893 3226 2515 3398 2112 3398 
C 1587 3398 1312 3174 1094 2848 
L 1075 2848 
L 1075 3309 
L 384 3309 
L 384 0 
z
" transform="scale(0.015625)"/>
       <path id="HelveticaNeue-Medium-65" d="M 3386 1466 
C 3507 2458 2867 3398 1824 3398 
C 838 3398 224 2592 224 1651 
C 224 634 806 -90 1843 -90 
C 2566 -90 3181 314 3341 1037 
L 2650 1037 
C 2522 672 2266 486 1843 486 
C 1235 486 954 947 954 1466 
L 3386 1466 
z
M 954 1946 
C 973 2438 1318 2822 1824 2822 
C 2317 2822 2630 2406 2656 1946 
L 954 1946 
z
" transform="scale(0.015625)"/>
       <path id="HelveticaNeue-Medium-74" d="M 51 2765 
L 602 2765 
L 602 813 
C 614 262 755 -32 1517 -32 
C 1677 -32 1830 -6 1990 6 
L 1990 570 
C 1888 544 1786 544 1683 544 
C 1357 544 1331 698 1331 998 
L 1331 2765 
L 1990 2765 
L 1990 3309 
L 1331 3309 
L 1331 4301 
L 602 4301 
L 602 3309 
L 51 3309 
L 51 2765 
z
" transform="scale(0.015625)"/>
       <path id="HelveticaNeue-Medium-20" transform="scale(0.015625)"/>
      </defs>
      <use xlink:href="#HelveticaNeue-Medium-50"/>
      <use xlink:href="#HelveticaNeue-Medium-61" x="66.699997"/>
      <use xlink:href="#HelveticaNeue-Medium-72" x="122.299988"/>
      <use xlink:href="#HelveticaNeue-Medium-61" x="157.499985"/>
      <use xlink:href="#HelveticaNeue-Medium-6d" x="213.099976"/>
      <use xlink:href="#HelveticaNeue-Medium-65" x="300.09996"/>
      <use xlink:href="#HelveticaNeue-Medium-74" x="355.699951"/>
      <use xlink:href="#HelveticaNeue-Medium-65" x="388.999939"/>
      <use xlink:href="#HelveticaNeue-Medium-72" x="444.59993"/>
      <use xlink:href="#HelveticaNeue-Medium-20" x="479.799927"/>
      <use xlink:href="#HelveticaNeue-Medium-31" x="507.599915"/>
     </g>
    </g>
   </g>
   <g id="matplotlib.axis_2">
    <g id="ytick_1">
     <g id="line2d_13">
      <defs>
       <path id="m46589aff59" d="M 1.75 0 
L -1.75 -0 
" style="stroke: #000000; stroke-width: 0.8"/>
      </defs>
      <g>
       <use xlink:href="#m46589aff59" x="31.059375" y="272.255965" style="stroke: #000000; stroke-width: 0.8"/>
      </g>
     </g>
     <g id="line2d_14">
      <g>
       <use xlink:href="#m46589aff59" x="388.179375" y="272.255965" style="stroke: #000000; stroke-width: 0.8"/>
      </g>
     </g>
     <g id="text_8">
      <!-- 0 -->
      <g transform="translate(20.25 275.826278)scale(0.1 -0.1)">
       <use xlink:href="#HelveticaNeue-Medium-30"/>
      </g>
     </g>
    </g>
    <g id="ytick_2">
     <g id="line2d_15">
      <g>
       <use xlink:href="#m46589aff59" x="31.059375" y="228.93903" style="stroke: #000000; stroke-width: 0.8"/>
      </g>
     </g>
     <g id="line2d_16">
      <g>
       <use xlink:href="#m46589aff59" x="388.179375" y="228.93903" style="stroke: #000000; stroke-width: 0.8"/>
      </g>
     </g>
     <g id="text_9">
      <!-- 1 -->
      <g transform="translate(20.25 232.509343)scale(0.1 -0.1)">
       <use xlink:href="#HelveticaNeue-Medium-31"/>
      </g>
     </g>
    </g>
    <g id="ytick_3">
     <g id="line2d_17">
      <g>
       <use xlink:href="#m46589aff59" x="31.059375" y="185.622095" style="stroke: #000000; stroke-width: 0.8"/>
      </g>
     </g>
     <g id="line2d_18">
      <g>
       <use xlink:href="#m46589aff59" x="388.179375" y="185.622095" style="stroke: #000000; stroke-width: 0.8"/>
      </g>
     </g>
     <g id="text_10">
      <!-- 2 -->
      <g transform="translate(20.25 189.192407)scale(0.1 -0.1)">
       <use xlink:href="#HelveticaNeue-Medium-32"/>
      </g>
     </g>
    </g>
    <g id="ytick_4">
     <g id="line2d_19">
      <g>
       <use xlink:href="#m46589aff59" x="31.059375" y="142.30516" style="stroke: #000000; stroke-width: 0.8"/>
      </g>
     </g>
     <g id="line2d_20">
      <g>
       <use xlink:href="#m46589aff59" x="388.179375" y="142.30516" style="stroke: #000000; stroke-width: 0.8"/>
      </g>
     </g>
     <g id="text_11">
      <!-- 3 -->
      <g transform="translate(20.25 145.875472)scale(0.1 -0.1)">
       <use xlink:href="#HelveticaNeue-Medium-33"/>
      </g>
     </g>
    </g>
    <g id="ytick_5">
     <g id="line2d_21">
      <g>
       <use xlink:href="#m46589aff59" x="31.059375" y="98.988225" style="stroke: #000000; stroke-width: 0.8"/>
      </g>
     </g>
     <g id="line2d_22">
      <g>
       <use xlink:href="#m46589aff59" x="388.179375" y="98.988225" style="stroke: #000000; stroke-width: 0.8"/>
      </g>
     </g>
     <g id="text_12">
      <!-- 4 -->
      <g transform="translate(20.25 102.558537)scale(0.1 -0.1)">
       <use xlink:href="#HelveticaNeue-Medium-34"/>
      </g>
     </g>
    </g>
    <g id="ytick_6">
     <g id="line2d_23">
      <g>
       <use xlink:href="#m46589aff59" x="31.059375" y="55.671289" style="stroke: #000000; stroke-width: 0.8"/>
      </g>
     </g>
     <g id="line2d_24">
      <g>
       <use xlink:href="#m46589aff59" x="388.179375" y="55.671289" style="stroke: #000000; stroke-width: 0.8"/>
      </g>
     </g>
     <g id="text_13">
      <!-- 5 -->
      <g transform="translate(20.25 59.241602)scale(0.1 -0.1)">
       <use xlink:href="#HelveticaNeue-Medium-35"/>
      </g>
     </g>
    </g>
    <g id="text_14">
     <!-- Parameter 2 -->
     <g transform="translate(14.340625 183.185844)rotate(-90)scale(0.1 -0.1)">
      <use xlink:href="#HelveticaNeue-Medium-50"/>
      <use xlink:href="#HelveticaNeue-Medium-61" x="66.699997"/>
      <use xlink:href="#HelveticaNeue-Medium-72" x="122.299988"/>
      <use xlink:href="#HelveticaNeue-Medium-61" x="157.499985"/>
      <use xlink:href="#HelveticaNeue-Medium-6d" x="213.099976"/>
      <use xlink:href="#HelveticaNeue-Medium-65" x="300.09996"/>
      <use xlink:href="#HelveticaNeue-Medium-74" x="355.699951"/>
      <use xlink:href="#HelveticaNeue-Medium-65" x="388.999939"/>
      <use xlink:href="#HelveticaNeue-Medium-72" x="444.59993"/>
      <use xlink:href="#HelveticaNeue-Medium-20" x="479.799927"/>
      <use xlink:href="#HelveticaNeue-Medium-32" x="507.599915"/>
     </g>
    </g>
   </g>
   <g id="line2d_25">
    <defs>
     <path id="m9b73852096" d="M 0 3 
C 0.795609 3 1.55874 2.683901 2.12132 2.12132 
C 2.683901 1.55874 3 0.795609 3 0 
C 3 -0.795609 2.683901 -1.55874 2.12132 -2.12132 
C 1.55874 -2.683901 0.795609 -3 0 -3 
C -0.795609 -3 -1.55874 -2.683901 -2.12132 -2.12132 
C -2.683901 -1.55874 -3 -0.795609 -3 0 
C -3 0.795609 -2.683901 1.55874 -2.12132 2.12132 
C -1.55874 2.683901 -0.795609 3 0 3 
z
" style="stroke: #000000"/>
    </defs>
    <g clip-path="url(#pd0bd8082b6)">
     <use xlink:href="#m9b73852096" x="155.972322" y="197.729517" style="fill: #ffffff; stroke: #000000"/>
     <use xlink:href="#m9b73852096" x="221.017524" y="140.846431" style="fill: #ffffff; stroke: #000000"/>
     <use xlink:href="#m9b73852096" x="132.364435" y="207.105365" style="fill: #ffffff; stroke: #000000"/>
     <use xlink:href="#m9b73852096" x="160.996916" y="183.834759" style="fill: #ffffff; stroke: #000000"/>
     <use xlink:href="#m9b73852096" x="160.443976" y="192.973631" style="fill: #ffffff; stroke: #000000"/>
     <use xlink:href="#m9b73852096" x="191.596127" y="175.704247" style="fill: #ffffff; stroke: #000000"/>
     <use xlink:href="#m9b73852096" x="185.363206" y="173.320426" style="fill: #ffffff; stroke: #000000"/>
     <use xlink:href="#m9b73852096" x="106.283069" y="229.756458" style="fill: #ffffff; stroke: #000000"/>
     <use xlink:href="#m9b73852096" x="220.548279" y="153.72423" style="fill: #ffffff; stroke: #000000"/>
     <use xlink:href="#m9b73852096" x="132.521638" y="215.136938" style="fill: #ffffff; stroke: #000000"/>
     <use xlink:href="#m9b73852096" x="186.571434" y="175.492054" style="fill: #ffffff; stroke: #000000"/>
     <use xlink:href="#m9b73852096" x="112.211858" y="229.428153" style="fill: #ffffff; stroke: #000000"/>
     <use xlink:href="#m9b73852096" x="181.433876" y="181.64562" style="fill: #ffffff; stroke: #000000"/>
     <use xlink:href="#m9b73852096" x="156.014674" y="200.551935" style="fill: #ffffff; stroke: #000000"/>
     <use xlink:href="#m9b73852096" x="142.148217" y="207.086345" style="fill: #ffffff; stroke: #000000"/>
     <use xlink:href="#m9b73852096" x="156.871681" y="198.813534" style="fill: #ffffff; stroke: #000000"/>
     <use xlink:href="#m9b73852096" x="112.638944" y="228.507908" style="fill: #ffffff; stroke: #000000"/>
     <use xlink:href="#m9b73852096" x="371.946648" y="34.06725" style="fill: #ffffff; stroke: #000000"/>
     <use xlink:href="#m9b73852096" x="145.011236" y="202.928187" style="fill: #ffffff; stroke: #000000"/>
     <use xlink:href="#m9b73852096" x="215.420729" y="152.772982" style="fill: #ffffff; stroke: #000000"/>
     <use xlink:href="#m9b73852096" x="169.010227" y="184.401463" style="fill: #ffffff; stroke: #000000"/>
     <use xlink:href="#m9b73852096" x="47.292102" y="275.98725" style="fill: #ffffff; stroke: #000000"/>
     <use xlink:href="#m9b73852096" x="186.084036" y="178.433946" style="fill: #ffffff; stroke: #000000"/>
     <use xlink:href="#m9b73852096" x="159.964493" y="200.623118" style="fill: #ffffff; stroke: #000000"/>
     <use xlink:href="#m9b73852096" x="64.085955" y="259.088948" style="fill: #ffffff; stroke: #000000"/>
     <use xlink:href="#m9b73852096" x="91.409325" y="240.885553" style="fill: #ffffff; stroke: #000000"/>
     <use xlink:href="#m9b73852096" x="56.531451" y="272.168319" style="fill: #ffffff; stroke: #000000"/>
     <use xlink:href="#m9b73852096" x="256.630232" y="119.803751" style="fill: #ffffff; stroke: #000000"/>
     <use xlink:href="#m9b73852096" x="149.835342" y="189.562992" style="fill: #ffffff; stroke: #000000"/>
     <use xlink:href="#m9b73852096" x="149.930468" y="202.098862" style="fill: #ffffff; stroke: #000000"/>
     <use xlink:href="#m9b73852096" x="184.38254" y="170.961768" style="fill: #ffffff; stroke: #000000"/>
     <use xlink:href="#m9b73852096" x="161.652364" y="192.725087" style="fill: #ffffff; stroke: #000000"/>
     <use xlink:href="#m9b73852096" x="179.756268" y="174.255769" style="fill: #ffffff; stroke: #000000"/>
     <use xlink:href="#m9b73852096" x="144.833058" y="199.962416" style="fill: #ffffff; stroke: #000000"/>
     <use xlink:href="#m9b73852096" x="173.608345" y="183.015988" style="fill: #ffffff; stroke: #000000"/>
     <use xlink:href="#m9b73852096" x="117.855053" y="215.752691" style="fill: #ffffff; stroke: #000000"/>
     <use xlink:href="#m9b73852096" x="273.280878" y="106.575035" style="fill: #ffffff; stroke: #000000"/>
     <use xlink:href="#m9b73852096" x="140.417987" y="203.296538" style="fill: #ffffff; stroke: #000000"/>
     <use xlink:href="#m9b73852096" x="237.325809" y="128.778776" style="fill: #ffffff; stroke: #000000"/>
     <use xlink:href="#m9b73852096" x="282.501195" y="104.669721" style="fill: #ffffff; stroke: #000000"/>
     <use xlink:href="#m9b73852096" x="113.837432" y="231.876594" style="fill: #ffffff; stroke: #000000"/>
     <use xlink:href="#m9b73852096" x="222.875459" y="148.442837" style="fill: #ffffff; stroke: #000000"/>
     <use xlink:href="#m9b73852096" x="155.431621" y="198.784266" style="fill: #ffffff; stroke: #000000"/>
     <use xlink:href="#m9b73852096" x="197.327124" y="167.56451" style="fill: #ffffff; stroke: #000000"/>
     <use xlink:href="#m9b73852096" x="87.875899" y="255.869233" style="fill: #ffffff; stroke: #000000"/>
     <use xlink:href="#m9b73852096" x="132.119583" y="204.784248" style="fill: #ffffff; stroke: #000000"/>
     <use xlink:href="#m9b73852096" x="152.549878" y="205.750992" style="fill: #ffffff; stroke: #000000"/>
     <use xlink:href="#m9b73852096" x="154.890943" y="201.383929" style="fill: #ffffff; stroke: #000000"/>
     <use xlink:href="#m9b73852096" x="249.266579" y="132.139051" style="fill: #ffffff; stroke: #000000"/>
     <use xlink:href="#m9b73852096" x="84.036255" y="253.632841" style="fill: #ffffff; stroke: #000000"/>
     <use xlink:href="#m9b73852096" x="183.393426" y="172.676972" style="fill: #ffffff; stroke: #000000"/>
     <use xlink:href="#m9b73852096" x="196.963685" y="167.76332" style="fill: #ffffff; stroke: #000000"/>
     <use xlink:href="#m9b73852096" x="189.164374" y="169.19544" style="fill: #ffffff; stroke: #000000"/>
     <use xlink:href="#m9b73852096" x="164.141188" y="191.633777" style="fill: #ffffff; stroke: #000000"/>
     <use xlink:href="#m9b73852096" x="112.035626" y="226.766628" style="fill: #ffffff; stroke: #000000"/>
     <use xlink:href="#m9b73852096" x="241.669876" y="135.172168" style="fill: #ffffff; stroke: #000000"/>
     <use xlink:href="#m9b73852096" x="179.035919" y="185.326544" style="fill: #ffffff; stroke: #000000"/>
     <use xlink:href="#m9b73852096" x="205.45652" y="159.592651" style="fill: #ffffff; stroke: #000000"/>
     <use xlink:href="#m9b73852096" x="197.068899" y="165.166959" style="fill: #ffffff; stroke: #000000"/>
     <use xlink:href="#m9b73852096" x="164.060292" y="187.18379" style="fill: #ffffff; stroke: #000000"/>
     <use xlink:href="#m9b73852096" x="110.092325" y="225.65749" style="fill: #ffffff; stroke: #000000"/>
     <use xlink:href="#m9b73852096" x="219.178872" y="145.661209" style="fill: #ffffff; stroke: #000000"/>
     <use xlink:href="#m9b73852096" x="268.626453" y="119.371457" style="fill: #ffffff; stroke: #000000"/>
     <use xlink:href="#m9b73852096" x="122.309592" y="220.076463" style="fill: #ffffff; stroke: #000000"/>
     <use xlink:href="#m9b73852096" x="225.781244" y="141.00229" style="fill: #ffffff; stroke: #000000"/>
     <use xlink:href="#m9b73852096" x="239.958939" y="139.130013" style="fill: #ffffff; stroke: #000000"/>
     <use xlink:href="#m9b73852096" x="143.131987" y="198.474421" style="fill: #ffffff; stroke: #000000"/>
     <use xlink:href="#m9b73852096" x="153.933168" y="198.1228" style="fill: #ffffff; stroke: #000000"/>
     <use xlink:href="#m9b73852096" x="169.993152" y="188.090612" style="fill: #ffffff; stroke: #000000"/>
     <use xlink:href="#m9b73852096" x="320.561232" y="80.976889" style="fill: #ffffff; stroke: #000000"/>
     <use xlink:href="#m9b73852096" x="157.063999" y="191.524244" style="fill: #ffffff; stroke: #000000"/>
     <use xlink:href="#m9b73852096" x="158.832656" y="194.21" style="fill: #ffffff; stroke: #000000"/>
     <use xlink:href="#m9b73852096" x="165.813714" y="187.512179" style="fill: #ffffff; stroke: #000000"/>
     <use xlink:href="#m9b73852096" x="162.973636" y="188.782604" style="fill: #ffffff; stroke: #000000"/>
     <use xlink:href="#m9b73852096" x="190.885323" y="165.278031" style="fill: #ffffff; stroke: #000000"/>
     <use xlink:href="#m9b73852096" x="232.306093" y="137.081465" style="fill: #ffffff; stroke: #000000"/>
     <use xlink:href="#m9b73852096" x="55.1165" y="274.868184" style="fill: #ffffff; stroke: #000000"/>
     <use xlink:href="#m9b73852096" x="172.716935" y="188.757514" style="fill: #ffffff; stroke: #000000"/>
     <use xlink:href="#m9b73852096" x="171.047729" y="186.423335" style="fill: #ffffff; stroke: #000000"/>
     <use xlink:href="#m9b73852096" x="148.367157" y="201.095622" style="fill: #ffffff; stroke: #000000"/>
     <use xlink:href="#m9b73852096" x="98.8669" y="238.40998" style="fill: #ffffff; stroke: #000000"/>
     <use xlink:href="#m9b73852096" x="207.577145" y="165.08336" style="fill: #ffffff; stroke: #000000"/>
     <use xlink:href="#m9b73852096" x="182.348183" y="177.289064" style="fill: #ffffff; stroke: #000000"/>
     <use xlink:href="#m9b73852096" x="195.615258" y="166.90257" style="fill: #ffffff; stroke: #000000"/>
     <use xlink:href="#m9b73852096" x="165.866371" y="192.675598" style="fill: #ffffff; stroke: #000000"/>
     <use xlink:href="#m9b73852096" x="75.780802" y="254.597777" style="fill: #ffffff; stroke: #000000"/>
     <use xlink:href="#m9b73852096" x="140.407923" y="205.07281" style="fill: #ffffff; stroke: #000000"/>
     <use xlink:href="#m9b73852096" x="106.573431" y="234.90755" style="fill: #ffffff; stroke: #000000"/>
     <use xlink:href="#m9b73852096" x="279.508577" y="107.655848" style="fill: #ffffff; stroke: #000000"/>
     <use xlink:href="#m9b73852096" x="167.630544" y="187.858019" style="fill: #ffffff; stroke: #000000"/>
     <use xlink:href="#m9b73852096" x="74.525304" y="258.316779" style="fill: #ffffff; stroke: #000000"/>
     <use xlink:href="#m9b73852096" x="227.283179" y="141.235897" style="fill: #ffffff; stroke: #000000"/>
     <use xlink:href="#m9b73852096" x="218.11827" y="149.150222" style="fill: #ffffff; stroke: #000000"/>
     <use xlink:href="#m9b73852096" x="123.112256" y="217.652376" style="fill: #ffffff; stroke: #000000"/>
     <use xlink:href="#m9b73852096" x="135.486053" y="217.716821" style="fill: #ffffff; stroke: #000000"/>
     <use xlink:href="#m9b73852096" x="223.491637" y="149.38535" style="fill: #ffffff; stroke: #000000"/>
     <use xlink:href="#m9b73852096" x="160.964805" y="186.629888" style="fill: #ffffff; stroke: #000000"/>
     <use xlink:href="#m9b73852096" x="142.84831" y="202.302367" style="fill: #ffffff; stroke: #000000"/>
     <use xlink:href="#m9b73852096" x="189.082473" y="170.1811" style="fill: #ffffff; stroke: #000000"/>
     <use xlink:href="#m9b73852096" x="234.565144" y="137.102078" style="fill: #ffffff; stroke: #000000"/>
    </g>
   </g>
   <g id="patch_3">
    <path d="M 31.059375 288.08325 
L 31.059375 21.97125 
" style="fill: none; stroke: #000000; stroke-width: 0.8; stroke-linejoin: miter; stroke-linecap: square"/>
   </g>
   <g id="patch_4">
    <path d="M 388.179375 288.08325 
L 388.179375 21.97125 
" style="fill: none; stroke: #000000; stroke-width: 0.8; stroke-linejoin: miter; stroke-linecap: square"/>
   </g>
   <g id="patch_5">
    <path d="M 31.059375 288.08325 
L 388.179375 288.08325 
" style="fill: none; stroke: #000000; stroke-width: 0.8; stroke-linejoin: miter; stroke-linecap: square"/>
   </g>
   <g id="patch_6">
    <path d="M 31.059375 21.97125 
L 388.179375 21.97125 
" style="fill: none; stroke: #000000; stroke-width: 0.8; stroke-linejoin: miter; stroke-linecap: square"/>
   </g>
   <g id="text_15">
    <!-- Gibbs prior -->
    <g transform="translate(178.6125 15.97125)scale(0.12 -0.12)">
     <defs>
      <path id="HelveticaNeue-Medium-47" d="M 4474 2406 
L 2528 2406 
L 2528 1798 
L 3744 1798 
C 3731 1024 3283 531 2464 544 
C 1485 544 1075 1408 1075 2285 
C 1075 3162 1485 4026 2464 4026 
C 3040 4026 3565 3718 3642 3117 
L 4422 3117 
C 4301 4147 3462 4678 2464 4678 
C 1094 4678 275 3590 275 2285 
C 275 979 1094 -109 2464 -109 
C 3021 -109 3411 51 3840 538 
L 3962 0 
L 4474 0 
L 4474 2406 
z
" transform="scale(0.015625)"/>
      <path id="HelveticaNeue-Medium-69" d="M 403 0 
L 1133 0 
L 1133 3309 
L 403 3309 
L 403 0 
z
M 403 3878 
L 1133 3878 
L 1133 4570 
L 403 4570 
L 403 3878 
z
" transform="scale(0.015625)"/>
      <path id="HelveticaNeue-Medium-62" d="M 2950 1651 
C 2950 1075 2701 486 2035 486 
C 1446 486 1107 986 1107 1651 
C 1107 2355 1421 2822 2035 2822 
C 2637 2822 2950 2253 2950 1651 
z
M 403 0 
L 1094 0 
L 1094 454 
L 1107 454 
C 1325 19 1805 -90 2253 -90 
C 3232 -90 3680 749 3680 1638 
C 3680 2605 3174 3398 2131 3398 
C 1760 3398 1344 3200 1146 2880 
L 1133 2880 
L 1133 4570 
L 403 4570 
L 403 0 
z
" transform="scale(0.015625)"/>
      <path id="HelveticaNeue-Medium-73" d="M 205 1062 
C 218 282 838 -90 1670 -90 
C 2355 -90 3149 198 3149 986 
C 3149 1638 2611 1830 2080 1952 
C 1542 2074 1005 2125 1005 2483 
C 1005 2771 1395 2822 1606 2822 
C 1926 2822 2214 2726 2278 2381 
L 3040 2381 
C 2950 3117 2336 3398 1658 3398 
C 1056 3398 275 3174 275 2451 
C 275 1779 800 1587 1338 1472 
C 1869 1350 2400 1306 2419 922 
C 2438 544 1958 486 1683 486 
C 1293 486 973 640 934 1062 
L 205 1062 
z
" transform="scale(0.015625)"/>
      <path id="HelveticaNeue-Medium-70" d="M 2950 1651 
C 2950 1075 2701 486 2035 486 
C 1446 486 1107 986 1107 1651 
C 1107 2355 1421 2822 2035 2822 
C 2637 2822 2950 2253 2950 1651 
z
M 403 -1222 
L 1133 -1222 
L 1133 429 
L 1146 429 
C 1376 64 1830 -90 2253 -90 
C 3232 -90 3680 749 3680 1638 
C 3680 2605 3174 3398 2131 3398 
C 1709 3398 1312 3238 1107 2861 
L 1094 2861 
L 1094 3309 
L 403 3309 
L 403 -1222 
z
" transform="scale(0.015625)"/>
      <path id="HelveticaNeue-Medium-6f" d="M 1901 486 
C 1248 486 960 1082 960 1658 
C 960 2227 1248 2822 1901 2822 
C 2554 2822 2842 2227 2842 1658 
C 2842 1082 2554 486 1901 486 
z
M 1901 -90 
C 2963 -90 3571 640 3571 1658 
C 3571 2669 2963 3398 1901 3398 
C 838 3398 230 2669 230 1658 
C 230 640 838 -90 1901 -90 
z
" transform="scale(0.015625)"/>
     </defs>
     <use xlink:href="#HelveticaNeue-Medium-47"/>
     <use xlink:href="#HelveticaNeue-Medium-69" x="75.899994"/>
     <use xlink:href="#HelveticaNeue-Medium-62" x="99.999985"/>
     <use xlink:href="#HelveticaNeue-Medium-62" x="161.099976"/>
     <use xlink:href="#HelveticaNeue-Medium-73" x="222.199966"/>
     <use xlink:href="#HelveticaNeue-Medium-20" x="274.09996"/>
     <use xlink:href="#HelveticaNeue-Medium-70" x="301.899948"/>
     <use xlink:href="#HelveticaNeue-Medium-72" x="362.999939"/>
     <use xlink:href="#HelveticaNeue-Medium-69" x="398.199936"/>
     <use xlink:href="#HelveticaNeue-Medium-6f" x="422.299927"/>
     <use xlink:href="#HelveticaNeue-Medium-72" x="481.599915"/>
    </g>
   </g>
  </g>
 </g>
 <defs>
  <clipPath id="pd0bd8082b6">
   <rect x="31.059375" y="21.97125" width="357.12" height="266.112"/>
  </clipPath>
 </defs>
</svg>
