<?xml version="1.0" encoding="utf-8" standalone="no"?>
<!DOCTYPE svg PUBLIC "-//W3C//DTD SVG 1.1//EN"
  "http://www.w3.org/Graphics/SVG/1.1/DTD/svg11.dtd">
<svg xmlns:xlink="http://www.w3.org/1999/xlink" width="405.609062pt" height="309.612pt" viewBox="0 0 405.609062 309.612" xmlns="http://www.w3.org/2000/svg" version="1.1">
 <metadata>
  <rdf:RDF xmlns:dc="http://purl.org/dc/elements/1.1/" xmlns:cc="http://creativecommons.org/ns#" xmlns:rdf="http://www.w3.org/1999/02/22-rdf-syntax-ns#">
   <cc:Work>
    <dc:type rdf:resource="http://purl.org/dc/dcmitype/StillImage"/>
    <dc:date>2022-09-07T03:07:22.698948</dc:date>
    <dc:format>image/svg+xml</dc:format>
    <dc:creator>
     <cc:Agent>
      <dc:title>Matplotlib v3.5.1, https://matplotlib.org/</dc:title>
     </cc:Agent>
    </dc:creator>
   </cc:Work>
  </rdf:RDF>
 </metadata>
 <defs>
  <style type="text/css">*{stroke-linejoin: round; stroke-linecap: butt}</style>
 </defs>
 <g id="figure_1">
  <g id="patch_1">
   <path d="M 0 309.612 
L 405.609063 309.612 
L 405.609063 0 
L 0 0 
z
" style="fill: #ffffff"/>
  </g>
  <g id="axes_1">
   <g id="patch_2">
    <path d="M 39.539063 275.062 
L 396.659063 275.062 
L 396.659063 8.95 
L 39.539063 8.95 
z
" style="fill: #ffffff"/>
   </g>
   <g id="matplotlib.axis_1">
    <g id="xtick_1">
     <g id="line2d_1">
      <defs>
       <path id="m369c4f67f5" d="M 0 1.75 
L 0 -1.75 
" style="stroke: #000000; stroke-width: 0.8"/>
      </defs>
      <g>
       <use xlink:href="#m369c4f67f5" x="88.309101" y="275.062" style="stroke: #000000; stroke-width: 0.8"/>
      </g>
     </g>
     <g id="line2d_2">
      <g>
       <use xlink:href="#m369c4f67f5" x="88.309101" y="8.95" style="stroke: #000000; stroke-width: 0.8"/>
      </g>
     </g>
     <g id="text_1">
      <!-- 1 -->
      <g transform="translate(85.529413 287.452625)scale(0.1 -0.1)">
       <defs>
        <path id="HelveticaNeue-Medium-31" d="M 339 3162 
L 1440 3162 
L 1440 0 
L 2240 0 
L 2240 4480 
L 1645 4480 
C 1536 3942 954 3731 339 3738 
L 339 3162 
z
" transform="scale(0.015625)"/>
       </defs>
       <use xlink:href="#HelveticaNeue-Medium-31"/>
      </g>
     </g>
    </g>
    <g id="xtick_2">
     <g id="line2d_3">
      <g>
       <use xlink:href="#m369c4f67f5" x="167.259807" y="275.062" style="stroke: #000000; stroke-width: 0.8"/>
      </g>
     </g>
     <g id="line2d_4">
      <g>
       <use xlink:href="#m369c4f67f5" x="167.259807" y="8.95" style="stroke: #000000; stroke-width: 0.8"/>
      </g>
     </g>
     <g id="text_2">
      <!-- 2 -->
      <g transform="translate(164.48012 287.452625)scale(0.1 -0.1)">
       <defs>
        <path id="HelveticaNeue-Medium-32" d="M 3309 653 
L 1126 653 
C 1254 1050 1798 1325 2317 1683 
C 2829 2042 3315 2483 3315 3194 
C 3315 3770 2970 4570 1875 4570 
C 877 4570 333 3834 333 2842 
L 1062 2842 
C 1082 3469 1254 3962 1830 3962 
C 2458 3962 2592 3488 2586 3168 
C 2573 2470 1818 2118 1235 1696 
C 634 1293 256 736 250 0 
L 3309 0 
L 3309 653 
z
" transform="scale(0.015625)"/>
       </defs>
       <use xlink:href="#HelveticaNeue-Medium-32"/>
      </g>
     </g>
    </g>
    <g id="xtick_3">
     <g id="line2d_5">
      <g>
       <use xlink:href="#m369c4f67f5" x="246.210514" y="275.062" style="stroke: #000000; stroke-width: 0.8"/>
      </g>
     </g>
     <g id="line2d_6">
      <g>
       <use xlink:href="#m369c4f67f5" x="246.210514" y="8.95" style="stroke: #000000; stroke-width: 0.8"/>
      </g>
     </g>
     <g id="text_3">
      <!-- 3 -->
      <g transform="translate(243.430826 287.452625)scale(0.1 -0.1)">
       <defs>
        <path id="HelveticaNeue-Medium-33" d="M 1459 2080 
C 2035 2106 2630 2016 2630 1318 
C 2630 806 2259 518 1773 518 
C 1203 518 909 928 928 1472 
L 198 1472 
C 218 538 736 -90 1773 -90 
C 2630 -90 3360 435 3360 1280 
C 3360 1856 3053 2298 2547 2400 
L 2547 2413 
C 2976 2566 3181 2925 3181 3373 
C 3181 4166 2464 4570 1766 4570 
C 864 4570 320 3917 282 3046 
L 1011 3046 
C 998 3507 1248 3962 1754 3962 
C 2157 3962 2451 3706 2451 3328 
C 2451 2778 1946 2605 1459 2624 
L 1459 2080 
z
" transform="scale(0.015625)"/>
       </defs>
       <use xlink:href="#HelveticaNeue-Medium-33"/>
      </g>
     </g>
    </g>
    <g id="xtick_4">
     <g id="line2d_7">
      <g>
       <use xlink:href="#m369c4f67f5" x="325.161221" y="275.062" style="stroke: #000000; stroke-width: 0.8"/>
      </g>
     </g>
     <g id="line2d_8">
      <g>
       <use xlink:href="#m369c4f67f5" x="325.161221" y="8.95" style="stroke: #000000; stroke-width: 0.8"/>
      </g>
     </g>
     <g id="text_4">
      <!-- 4 -->
      <g transform="translate(322.381533 287.452625)scale(0.1 -0.1)">
       <defs>
        <path id="HelveticaNeue-Medium-34" d="M 3341 1638 
L 2765 1638 
L 2765 4480 
L 2074 4480 
L 154 1786 
L 154 1062 
L 2074 1062 
L 2074 0 
L 2765 0 
L 2765 1062 
L 3341 1062 
L 3341 1638 
z
M 2061 3610 
L 2074 3610 
L 2074 1638 
L 717 1638 
L 2061 3610 
z
" transform="scale(0.015625)"/>
       </defs>
       <use xlink:href="#HelveticaNeue-Medium-34"/>
      </g>
     </g>
    </g>
    <g id="text_5">
     <!-- Model parameter x -->
     <g transform="translate(174.476406 300.502625)scale(0.1 -0.1)">
      <defs>
       <path id="HelveticaNeue-Medium-4d" d="M 474 0 
L 1235 0 
L 1235 3526 
L 1248 3526 
L 2515 0 
L 3174 0 
L 4442 3526 
L 4454 3526 
L 4454 0 
L 5216 0 
L 5216 4570 
L 4102 4570 
L 2874 992 
L 2861 992 
L 1600 4570 
L 474 4570 
L 474 0 
z
" transform="scale(0.015625)"/>
       <path id="HelveticaNeue-Medium-6f" d="M 1901 486 
C 1248 486 960 1082 960 1658 
C 960 2227 1248 2822 1901 2822 
C 2554 2822 2842 2227 2842 1658 
C 2842 1082 2554 486 1901 486 
z
M 1901 -90 
C 2963 -90 3571 640 3571 1658 
C 3571 2669 2963 3398 1901 3398 
C 838 3398 230 2669 230 1658 
C 230 640 838 -90 1901 -90 
z
" transform="scale(0.015625)"/>
       <path id="HelveticaNeue-Medium-64" d="M 954 1619 
C 954 2214 1197 2822 1882 2822 
C 2445 2822 2797 2387 2797 1658 
C 2797 1082 2522 486 1869 486 
C 1235 486 954 1050 954 1619 
z
M 3501 4570 
L 2771 4570 
L 2771 2880 
L 2758 2880 
C 2534 3245 2074 3398 1658 3398 
C 934 3398 224 2874 224 1677 
C 224 685 730 -90 1773 -90 
C 2189 -90 2605 70 2797 448 
L 2810 448 
L 2810 0 
L 3501 0 
L 3501 4570 
z
" transform="scale(0.015625)"/>
       <path id="HelveticaNeue-Medium-65" d="M 3386 1466 
C 3507 2458 2867 3398 1824 3398 
C 838 3398 224 2592 224 1651 
C 224 634 806 -90 1843 -90 
C 2566 -90 3181 314 3341 1037 
L 2650 1037 
C 2522 672 2266 486 1843 486 
C 1235 486 954 947 954 1466 
L 3386 1466 
z
M 954 1946 
C 973 2438 1318 2822 1824 2822 
C 2317 2822 2630 2406 2656 1946 
L 954 1946 
z
" transform="scale(0.015625)"/>
       <path id="HelveticaNeue-Medium-6c" d="M 403 0 
L 1133 0 
L 1133 4570 
L 403 4570 
L 403 0 
z
" transform="scale(0.015625)"/>
       <path id="HelveticaNeue-Medium-20" transform="scale(0.015625)"/>
       <path id="HelveticaNeue-Medium-70" d="M 2950 1651 
C 2950 1075 2701 486 2035 486 
C 1446 486 1107 986 1107 1651 
C 1107 2355 1421 2822 2035 2822 
C 2637 2822 2950 2253 2950 1651 
z
M 403 -1222 
L 1133 -1222 
L 1133 429 
L 1146 429 
C 1376 64 1830 -90 2253 -90 
C 3232 -90 3680 749 3680 1638 
C 3680 2605 3174 3398 2131 3398 
C 1709 3398 1312 3238 1107 2861 
L 1094 2861 
L 1094 3309 
L 403 3309 
L 403 -1222 
z
" transform="scale(0.015625)"/>
       <path id="HelveticaNeue-Medium-61" d="M 2426 1114 
C 2426 653 1926 486 1606 486 
C 1350 486 934 582 934 909 
C 934 1293 1216 1408 1530 1459 
C 1850 1517 2202 1510 2426 1658 
L 2426 1114 
z
M 3155 2438 
C 3155 3136 2477 3398 1830 3398 
C 1101 3398 378 3149 326 2298 
L 1056 2298 
C 1088 2656 1376 2822 1786 2822 
C 2080 2822 2470 2752 2470 2374 
C 2470 1946 2003 2003 1478 1907 
C 864 1837 205 1702 205 877 
C 205 230 742 -90 1338 -90 
C 1728 -90 2195 32 2483 314 
C 2541 13 2752 -90 3046 -90 
C 3168 -90 3398 -45 3507 -6 
L 3507 499 
C 3430 486 3373 486 3328 486 
C 3194 486 3155 557 3155 736 
L 3155 2438 
z
" transform="scale(0.015625)"/>
       <path id="HelveticaNeue-Medium-72" d="M 384 0 
L 1114 0 
L 1114 1574 
C 1114 2304 1510 2707 2010 2707 
C 2112 2707 2221 2688 2323 2675 
L 2323 3379 
C 2259 3386 2214 3398 2048 3398 
C 1600 3398 1165 3021 1082 2669 
L 1069 2669 
L 1069 3309 
L 384 3309 
L 384 0 
z
" transform="scale(0.015625)"/>
       <path id="HelveticaNeue-Medium-6d" d="M 384 0 
L 1114 0 
L 1114 1965 
C 1114 2515 1459 2822 1837 2822 
C 2278 2822 2419 2579 2419 2125 
L 2419 0 
L 3149 0 
L 3149 1939 
C 3149 2496 3360 2822 3853 2822 
C 4422 2822 4454 2458 4454 1933 
L 4454 0 
L 5184 0 
L 5184 2285 
C 5184 3091 4774 3398 4077 3398 
C 3597 3398 3283 3187 3040 2848 
C 2893 3226 2515 3398 2112 3398 
C 1587 3398 1312 3174 1094 2848 
L 1075 2848 
L 1075 3309 
L 384 3309 
L 384 0 
z
" transform="scale(0.015625)"/>
       <path id="HelveticaNeue-Medium-74" d="M 51 2765 
L 602 2765 
L 602 813 
C 614 262 755 -32 1517 -32 
C 1677 -32 1830 -6 1990 6 
L 1990 570 
C 1888 544 1786 544 1683 544 
C 1357 544 1331 698 1331 998 
L 1331 2765 
L 1990 2765 
L 1990 3309 
L 1331 3309 
L 1331 4301 
L 602 4301 
L 602 3309 
L 51 3309 
L 51 2765 
z
" transform="scale(0.015625)"/>
       <path id="HelveticaNeue-Medium-78" d="M 26 0 
L 883 0 
L 1696 1222 
L 2534 0 
L 3411 0 
L 2144 1779 
L 3270 3309 
L 2426 3309 
L 1702 2291 
L 1011 3309 
L 128 3309 
L 1274 1741 
L 26 0 
z
" transform="scale(0.015625)"/>
      </defs>
      <use xlink:href="#HelveticaNeue-Medium-4d"/>
      <use xlink:href="#HelveticaNeue-Medium-6f" x="88.899994"/>
      <use xlink:href="#HelveticaNeue-Medium-64" x="148.199982"/>
      <use xlink:href="#HelveticaNeue-Medium-65" x="209.299973"/>
      <use xlink:href="#HelveticaNeue-Medium-6c" x="264.899963"/>
      <use xlink:href="#HelveticaNeue-Medium-20" x="288.999954"/>
      <use xlink:href="#HelveticaNeue-Medium-70" x="316.799942"/>
      <use xlink:href="#HelveticaNeue-Medium-61" x="377.899933"/>
      <use xlink:href="#HelveticaNeue-Medium-72" x="433.499924"/>
      <use xlink:href="#HelveticaNeue-Medium-61" x="468.699921"/>
      <use xlink:href="#HelveticaNeue-Medium-6d" x="524.299911"/>
      <use xlink:href="#HelveticaNeue-Medium-65" x="611.299896"/>
      <use xlink:href="#HelveticaNeue-Medium-74" x="666.899887"/>
      <use xlink:href="#HelveticaNeue-Medium-65" x="700.199875"/>
      <use xlink:href="#HelveticaNeue-Medium-72" x="755.799866"/>
      <use xlink:href="#HelveticaNeue-Medium-20" x="790.999863"/>
      <use xlink:href="#HelveticaNeue-Medium-78" x="818.79985"/>
     </g>
    </g>
   </g>
   <g id="matplotlib.axis_2">
    <g id="ytick_1">
     <g id="line2d_9">
      <defs>
       <path id="md0d8f018ad" d="M 1.75 0 
L -1.75 -0 
" style="stroke: #000000; stroke-width: 0.8"/>
      </defs>
      <g>
       <use xlink:href="#md0d8f018ad" x="39.539063" y="275.062" style="stroke: #000000; stroke-width: 0.8"/>
      </g>
     </g>
     <g id="line2d_10">
      <g>
       <use xlink:href="#md0d8f018ad" x="396.659063" y="275.062" style="stroke: #000000; stroke-width: 0.8"/>
      </g>
     </g>
     <g id="text_6">
      <!-- 0.0 -->
      <g transform="translate(20.390625 278.632312)scale(0.1 -0.1)">
       <defs>
        <path id="HelveticaNeue-Medium-30" d="M 1779 518 
C 1139 518 960 1306 960 2240 
C 960 3174 1139 3962 1779 3962 
C 2419 3962 2598 3174 2598 2240 
C 2598 1306 2419 518 1779 518 
z
M 1779 4570 
C 493 4570 230 3258 230 2240 
C 230 1222 493 -90 1779 -90 
C 3066 -90 3328 1222 3328 2240 
C 3328 3258 3066 4570 1779 4570 
z
" transform="scale(0.015625)"/>
        <path id="HelveticaNeue-Medium-2e" d="M 442 0 
L 1331 0 
L 1331 864 
L 442 864 
L 442 0 
z
" transform="scale(0.015625)"/>
       </defs>
       <use xlink:href="#HelveticaNeue-Medium-30"/>
       <use xlink:href="#HelveticaNeue-Medium-2e" x="55.599991"/>
       <use xlink:href="#HelveticaNeue-Medium-30" x="83.399979"/>
      </g>
     </g>
    </g>
    <g id="ytick_2">
     <g id="line2d_11">
      <g>
       <use xlink:href="#md0d8f018ad" x="39.539063" y="236.975839" style="stroke: #000000; stroke-width: 0.8"/>
      </g>
     </g>
     <g id="line2d_12">
      <g>
       <use xlink:href="#md0d8f018ad" x="396.659063" y="236.975839" style="stroke: #000000; stroke-width: 0.8"/>
      </g>
     </g>
     <g id="text_7">
      <!-- 0.2 -->
      <g transform="translate(20.390625 240.546151)scale(0.1 -0.1)">
       <use xlink:href="#HelveticaNeue-Medium-30"/>
       <use xlink:href="#HelveticaNeue-Medium-2e" x="55.599991"/>
       <use xlink:href="#HelveticaNeue-Medium-32" x="83.399979"/>
      </g>
     </g>
    </g>
    <g id="ytick_3">
     <g id="line2d_13">
      <g>
       <use xlink:href="#md0d8f018ad" x="39.539063" y="198.889678" style="stroke: #000000; stroke-width: 0.8"/>
      </g>
     </g>
     <g id="line2d_14">
      <g>
       <use xlink:href="#md0d8f018ad" x="396.659063" y="198.889678" style="stroke: #000000; stroke-width: 0.8"/>
      </g>
     </g>
     <g id="text_8">
      <!-- 0.4 -->
      <g transform="translate(20.390625 202.45999)scale(0.1 -0.1)">
       <use xlink:href="#HelveticaNeue-Medium-30"/>
       <use xlink:href="#HelveticaNeue-Medium-2e" x="55.599991"/>
       <use xlink:href="#HelveticaNeue-Medium-34" x="83.399979"/>
      </g>
     </g>
    </g>
    <g id="ytick_4">
     <g id="line2d_15">
      <g>
       <use xlink:href="#md0d8f018ad" x="39.539063" y="160.803517" style="stroke: #000000; stroke-width: 0.8"/>
      </g>
     </g>
     <g id="line2d_16">
      <g>
       <use xlink:href="#md0d8f018ad" x="396.659063" y="160.803517" style="stroke: #000000; stroke-width: 0.8"/>
      </g>
     </g>
     <g id="text_9">
      <!-- 0.6 -->
      <g transform="translate(20.390625 164.373829)scale(0.1 -0.1)">
       <defs>
        <path id="HelveticaNeue-Medium-36" d="M 1824 518 
C 1293 518 1018 966 1018 1453 
C 1018 1946 1293 2368 1824 2368 
C 2349 2368 2611 1933 2611 1453 
C 2611 973 2349 518 1824 518 
z
M 3258 3347 
C 3219 4077 2618 4570 1907 4570 
C 640 4570 218 3322 218 2253 
C 218 947 531 -90 1850 -90 
C 2746 -90 3341 570 3341 1440 
C 3341 2298 2816 2944 1926 2944 
C 1530 2944 1158 2765 960 2413 
L 947 2426 
C 992 3014 1082 3962 1875 3962 
C 2253 3962 2496 3712 2528 3347 
L 3258 3347 
z
" transform="scale(0.015625)"/>
       </defs>
       <use xlink:href="#HelveticaNeue-Medium-30"/>
       <use xlink:href="#HelveticaNeue-Medium-2e" x="55.599991"/>
       <use xlink:href="#HelveticaNeue-Medium-36" x="83.399979"/>
      </g>
     </g>
    </g>
    <g id="ytick_5">
     <g id="line2d_17">
      <g>
       <use xlink:href="#md0d8f018ad" x="39.539063" y="122.717356" style="stroke: #000000; stroke-width: 0.8"/>
      </g>
     </g>
     <g id="line2d_18">
      <g>
       <use xlink:href="#md0d8f018ad" x="396.659063" y="122.717356" style="stroke: #000000; stroke-width: 0.8"/>
      </g>
     </g>
     <g id="text_10">
      <!-- 0.8 -->
      <g transform="translate(20.390625 126.287668)scale(0.1 -0.1)">
       <defs>
        <path id="HelveticaNeue-Medium-38" d="M 1779 486 
C 1293 486 928 794 928 1318 
C 928 1811 1293 2106 1779 2106 
C 2266 2106 2630 1811 2630 1318 
C 2630 794 2266 486 1779 486 
z
M 1779 -90 
C 2688 -90 3360 442 3360 1318 
C 3360 1882 3040 2285 2541 2413 
L 2541 2426 
C 2944 2579 3174 2912 3174 3347 
C 3174 4109 2669 4570 1779 4570 
C 890 4570 384 4109 384 3347 
C 384 2912 614 2579 1018 2426 
L 1018 2413 
C 518 2285 198 1882 198 1318 
C 198 442 870 -90 1779 -90 
z
M 1779 3994 
C 2170 3994 2483 3750 2483 3309 
C 2483 2886 2182 2650 1779 2650 
C 1376 2650 1075 2886 1075 3309 
C 1075 3750 1389 3994 1779 3994 
z
" transform="scale(0.015625)"/>
       </defs>
       <use xlink:href="#HelveticaNeue-Medium-30"/>
       <use xlink:href="#HelveticaNeue-Medium-2e" x="55.599991"/>
       <use xlink:href="#HelveticaNeue-Medium-38" x="83.399979"/>
      </g>
     </g>
    </g>
    <g id="ytick_6">
     <g id="line2d_19">
      <g>
       <use xlink:href="#md0d8f018ad" x="39.539063" y="84.631195" style="stroke: #000000; stroke-width: 0.8"/>
      </g>
     </g>
     <g id="line2d_20">
      <g>
       <use xlink:href="#md0d8f018ad" x="396.659063" y="84.631195" style="stroke: #000000; stroke-width: 0.8"/>
      </g>
     </g>
     <g id="text_11">
      <!-- 1.0 -->
      <g transform="translate(20.390625 88.201507)scale(0.1 -0.1)">
       <use xlink:href="#HelveticaNeue-Medium-31"/>
       <use xlink:href="#HelveticaNeue-Medium-2e" x="55.599991"/>
       <use xlink:href="#HelveticaNeue-Medium-30" x="83.399979"/>
      </g>
     </g>
    </g>
    <g id="ytick_7">
     <g id="line2d_21">
      <g>
       <use xlink:href="#md0d8f018ad" x="39.539063" y="46.545034" style="stroke: #000000; stroke-width: 0.8"/>
      </g>
     </g>
     <g id="line2d_22">
      <g>
       <use xlink:href="#md0d8f018ad" x="396.659063" y="46.545034" style="stroke: #000000; stroke-width: 0.8"/>
      </g>
     </g>
     <g id="text_12">
      <!-- 1.2 -->
      <g transform="translate(20.390625 50.115346)scale(0.1 -0.1)">
       <use xlink:href="#HelveticaNeue-Medium-31"/>
       <use xlink:href="#HelveticaNeue-Medium-2e" x="55.599991"/>
       <use xlink:href="#HelveticaNeue-Medium-32" x="83.399979"/>
      </g>
     </g>
    </g>
    <g id="text_13">
     <!-- Density -->
     <g transform="translate(14.340625 159.326312)rotate(-90)scale(0.1 -0.1)">
      <defs>
       <path id="HelveticaNeue-Medium-44" d="M 1286 3917 
L 2074 3917 
C 3328 3917 3597 3200 3597 2285 
C 3597 1370 3328 653 2074 653 
L 1286 653 
L 1286 3917 
z
M 486 0 
L 2381 0 
C 3789 0 4397 1024 4397 2285 
C 4397 3546 3789 4570 2381 4570 
L 486 4570 
L 486 0 
z
" transform="scale(0.015625)"/>
       <path id="HelveticaNeue-Medium-6e" d="M 384 0 
L 1114 0 
L 1114 1952 
C 1114 2438 1427 2822 1914 2822 
C 2342 2822 2547 2598 2560 2080 
L 2560 0 
L 3290 0 
L 3290 2272 
C 3290 3014 2835 3398 2118 3398 
C 1683 3398 1306 3174 1088 2810 
L 1075 2822 
L 1075 3309 
L 384 3309 
L 384 0 
z
" transform="scale(0.015625)"/>
       <path id="HelveticaNeue-Medium-73" d="M 205 1062 
C 218 282 838 -90 1670 -90 
C 2355 -90 3149 198 3149 986 
C 3149 1638 2611 1830 2080 1952 
C 1542 2074 1005 2125 1005 2483 
C 1005 2771 1395 2822 1606 2822 
C 1926 2822 2214 2726 2278 2381 
L 3040 2381 
C 2950 3117 2336 3398 1658 3398 
C 1056 3398 275 3174 275 2451 
C 275 1779 800 1587 1338 1472 
C 1869 1350 2400 1306 2419 922 
C 2438 544 1958 486 1683 486 
C 1293 486 973 640 934 1062 
L 205 1062 
z
" transform="scale(0.015625)"/>
       <path id="HelveticaNeue-Medium-69" d="M 403 0 
L 1133 0 
L 1133 3309 
L 403 3309 
L 403 0 
z
M 403 3878 
L 1133 3878 
L 1133 4570 
L 403 4570 
L 403 3878 
z
" transform="scale(0.015625)"/>
       <path id="HelveticaNeue-Medium-79" d="M 1274 13 
L 1190 -243 
C 1101 -525 1018 -704 678 -704 
C 563 -704 448 -678 333 -659 
L 333 -1274 
C 499 -1299 666 -1312 838 -1312 
C 1600 -1312 1773 -774 2010 -179 
L 3296 3309 
L 2534 3309 
L 1696 838 
L 1683 838 
L 819 3309 
L 19 3309 
L 1274 13 
z
" transform="scale(0.015625)"/>
      </defs>
      <use xlink:href="#HelveticaNeue-Medium-44"/>
      <use xlink:href="#HelveticaNeue-Medium-65" x="72.199982"/>
      <use xlink:href="#HelveticaNeue-Medium-6e" x="127.799973"/>
      <use xlink:href="#HelveticaNeue-Medium-73" x="185.199966"/>
      <use xlink:href="#HelveticaNeue-Medium-69" x="237.09996"/>
      <use xlink:href="#HelveticaNeue-Medium-74" x="261.199951"/>
      <use xlink:href="#HelveticaNeue-Medium-79" x="294.499939"/>
     </g>
    </g>
   </g>
   <g id="patch_3">
    <path d="M 285.687519 275.062 
L 285.687519 118.873652 
L 290.42446 118.873652 
L 290.42446 120.143218 
L 295.161401 120.143218 
L 295.161401 114.874519 
L 299.898341 114.874519 
L 299.898341 118.397565 
L 304.635282 118.397565 
L 304.635282 117.127999 
L 309.372223 117.127999 
L 309.372223 115.191911 
L 314.109164 115.191911 
L 314.109164 117.572347 
L 318.846105 117.572347 
L 318.846105 113.35104 
L 323.583045 113.35104 
L 323.583045 120.365392 
L 328.319986 120.365392 
L 328.319986 116.461477 
L 333.056927 116.461477 
L 333.056927 112.811475 
L 337.793868 112.811475 
L 337.793868 118.429304 
L 342.530809 118.429304 
L 342.530809 118.492782 
L 347.26775 118.492782 
L 347.26775 115.890172 
L 352.00469 115.890172 
L 352.00469 112.874953 
L 356.741631 112.874953 
L 356.741631 115.001476 
L 361.478572 115.001476 
L 361.478572 114.588867 
L 366.215513 114.588867 
L 366.215513 112.303648 
L 370.952454 112.303648 
L 370.952454 118.524521 
L 375.689394 118.524521 
L 375.689394 116.048868 
L 380.426335 116.048868 
L 380.426335 275.062 
" clip-path="url(#p7c03081bf0)" style="fill: none; stroke: #008fd5; stroke-linejoin: miter"/>
   </g>
   <g id="patch_4">
    <path d="M 55.77179 275.062 
L 55.77179 274.989526 
L 68.218797 275.062 
L 68.218797 274.844579 
L 76.516802 274.844579 
L 76.516802 275.062 
L 78.591303 275.062 
L 78.591303 274.844579 
L 82.740306 274.917053 
L 82.740306 274.627159 
L 84.814807 274.627159 
L 84.814807 274.192317 
L 88.96381 274.119844 
L 88.96381 273.612529 
L 91.038311 273.612529 
L 91.038311 272.887794 
L 95.187313 272.887794 
L 95.187313 271.80069 
L 97.261814 271.80069 
L 97.261814 270.713587 
L 101.410817 270.713587 
L 101.410817 270.496166 
L 103.485318 270.496166 
L 103.485318 266.800015 
L 105.559819 266.800015 
L 105.559819 265.567965 
L 107.634321 265.567965 
L 107.634321 263.683653 
L 109.708822 263.683653 
L 109.708822 258.972872 
L 111.783323 258.972872 
L 111.783323 256.363824 
L 113.857824 256.363824 
L 113.857824 254.262092 
L 115.932326 254.262092 
L 115.932326 247.377104 
L 118.006827 247.377104 
L 118.006827 244.188268 
L 120.081328 244.188268 
L 120.081328 239.187593 
L 122.155829 239.187593 
L 122.155829 227.156984 
L 124.230331 227.156984 
L 124.230331 223.315886 
L 126.304832 223.315886 
L 126.304832 213.676904 
L 128.379333 213.676904 
L 128.379333 204.762658 
L 130.453834 204.762658 
L 130.453834 192.876996 
L 132.528335 192.876996 
L 132.528335 180.411545 
L 134.602837 180.411545 
L 134.602837 166.714045 
L 136.677338 166.714045 
L 136.677338 158.669481 
L 138.751839 158.669481 
L 138.751839 145.914136 
L 140.82634 145.914136 
L 140.82634 130.25985 
L 142.900842 130.25985 
L 142.900842 114.388142 
L 144.975343 114.388142 
L 144.975343 103.51711 
L 147.049844 103.51711 
L 147.049844 86.703247 
L 149.124345 86.703247 
L 149.124345 83.29699 
L 151.198847 83.29699 
L 151.198847 76.774371 
L 153.273348 76.774371 
L 153.273348 62.497081 
L 155.347849 62.497081 
L 155.347849 46.33548 
L 157.42235 46.33548 
L 157.42235 36.044236 
L 159.496852 36.044236 
L 159.496852 28.869355 
L 161.571353 28.869355 
L 161.571353 27.854725 
L 163.645854 27.854725 
L 163.645854 21.622 
L 165.720355 21.622 
L 165.720355 25.10073 
L 167.794856 25.10073 
L 167.794856 23.071471 
L 169.869358 23.071471 
L 169.869358 23.578786 
L 171.943859 23.578786 
L 171.943859 29.811511 
L 174.01836 29.811511 
L 174.01836 38.508337 
L 176.092861 38.508337 
L 176.092861 45.755692 
L 178.167363 45.755692 
L 178.167363 50.031631 
L 180.241864 50.031631 
L 180.241864 63.294291 
L 182.316365 63.294291 
L 182.316365 79.238471 
L 184.390866 79.238471 
L 184.390866 87.427982 
L 186.465368 87.427982 
L 186.465368 104.53174 
L 188.539869 104.53174 
L 188.539869 116.707296 
L 190.61437 116.707296 
L 190.61437 123.447336 
L 192.688871 123.447336 
L 192.688871 142.435406 
L 194.763373 142.435406 
L 194.763373 146.638872 
L 196.837874 146.638872 
L 196.837874 166.714045 
L 198.912375 166.714045 
L 198.912375 179.396916 
L 200.986876 179.396916 
L 200.986876 187.369006 
L 203.061377 187.369006 
L 203.061377 195.703464 
L 205.135879 195.703464 
L 205.135879 207.589126 
L 207.21038 207.589126 
L 207.21038 220.851786 
L 209.284881 220.851786 
L 209.284881 224.837831 
L 211.359382 224.837831 
L 211.359382 235.926284 
L 213.433884 235.926284 
L 213.433884 238.245437 
L 215.508385 238.245437 
L 215.508385 246.290001 
L 217.582886 246.290001 
L 217.582886 249.841205 
L 219.657387 249.841205 
L 219.657387 254.189618 
L 221.731889 254.189618 
L 221.731889 260.204923 
L 223.80639 260.204923 
L 223.80639 261.436973 
L 225.880891 261.436973 
L 225.880891 265.567965 
L 227.955392 265.567965 
L 227.955392 266.510121 
L 230.029894 266.510121 
L 230.029894 267.162383 
L 232.104395 267.162383 
L 232.104395 269.988852 
L 236.253397 269.916378 
L 236.253397 270.786061 
L 238.327898 270.786061 
L 238.327898 273.105214 
L 240.4024 273.105214 
L 240.4024 273.250161 
L 242.476901 273.250161 
L 242.476901 274.04737 
L 244.551402 274.04737 
L 244.551402 274.337265 
L 246.625903 274.337265 
L 246.625903 274.482212 
L 248.700405 274.482212 
L 248.700405 274.264791 
L 250.774906 274.264791 
L 250.774906 274.409738 
L 252.849407 274.409738 
L 252.849407 274.627159 
L 254.923908 274.627159 
L 254.923908 274.917053 
L 256.99841 274.917053 
L 256.99841 274.772106 
L 259.072911 274.772106 
L 259.072911 274.989526 
L 263.221913 274.917053 
L 263.221913 275.062 
" clip-path="url(#p7c03081bf0)" style="fill: none; stroke: #fc4f30; stroke-linejoin: miter"/>
   </g>
   <g id="patch_5">
    <path d="M 39.539063 275.062 
L 39.539063 8.95 
" style="fill: none; stroke: #000000; stroke-width: 0.8; stroke-linejoin: miter; stroke-linecap: square"/>
   </g>
   <g id="patch_6">
    <path d="M 396.659063 275.062 
L 396.659063 8.95 
" style="fill: none; stroke: #000000; stroke-width: 0.8; stroke-linejoin: miter; stroke-linecap: square"/>
   </g>
   <g id="patch_7">
    <path d="M 39.539063 275.062 
L 396.659063 275.062 
" style="fill: none; stroke: #000000; stroke-width: 0.8; stroke-linejoin: miter; stroke-linecap: square"/>
   </g>
   <g id="patch_8">
    <path d="M 39.539063 8.95 
L 396.659063 8.95 
" style="fill: none; stroke: #000000; stroke-width: 0.8; stroke-linejoin: miter; stroke-linecap: square"/>
   </g>
   <g id="legend_1">
    <g id="patch_9">
     <path d="M 333.625692 39.0213 
L 390.828063 39.0213 
Q 392.494063 39.0213 392.494063 37.3553 
L 392.494063 14.781 
Q 392.494063 13.115 390.828063 13.115 
L 333.625692 13.115 
Q 331.959692 13.115 331.959692 14.781 
L 331.959692 37.3553 
Q 331.959692 39.0213 333.625692 39.0213 
z
" style="fill: #ffffff; opacity: 0.9; stroke: #cccccc; stroke-linejoin: miter"/>
    </g>
    <g id="patch_10">
     <path d="M 335.291692 22.395141 
L 351.951692 22.395141 
L 351.951692 16.564141 
L 335.291692 16.564141 
L 335.291692 22.395141 
z
" style="fill: none; stroke: #008fd5; stroke-linejoin: miter"/>
    </g>
    <g id="text_14">
     <!-- Uniform -->
     <g transform="translate(358.615692 22.395141)scale(0.0833 -0.0833)">
      <defs>
       <path id="HelveticaNeue-Medium-55" d="M 435 1645 
C 435 474 1184 -109 2310 -109 
C 3437 -109 4186 474 4186 1645 
L 4186 4570 
L 3386 4570 
L 3386 1907 
C 3386 1293 3347 582 2310 582 
C 1274 582 1235 1293 1235 1907 
L 1235 4570 
L 435 4570 
L 435 1645 
z
" transform="scale(0.015625)"/>
       <path id="HelveticaNeue-Medium-66" d="M 58 2765 
L 602 2765 
L 602 0 
L 1331 0 
L 1331 2765 
L 1952 2765 
L 1952 3309 
L 1331 3309 
L 1331 3648 
C 1331 3923 1491 3994 1690 3994 
C 1837 3994 1933 3981 2029 3955 
L 2029 4525 
C 1914 4557 1747 4570 1517 4570 
C 1043 4570 602 4429 602 3584 
L 602 3309 
L 58 3309 
L 58 2765 
z
" transform="scale(0.015625)"/>
      </defs>
      <use xlink:href="#HelveticaNeue-Medium-55"/>
      <use xlink:href="#HelveticaNeue-Medium-6e" x="72.199982"/>
      <use xlink:href="#HelveticaNeue-Medium-69" x="129.599976"/>
      <use xlink:href="#HelveticaNeue-Medium-66" x="153.699966"/>
      <use xlink:href="#HelveticaNeue-Medium-6f" x="185.199951"/>
      <use xlink:href="#HelveticaNeue-Medium-72" x="244.499939"/>
      <use xlink:href="#HelveticaNeue-Medium-6d" x="279.699936"/>
     </g>
    </g>
    <g id="patch_11">
     <path d="M 335.291692 34.098791 
L 351.951692 34.098791 
L 351.951692 28.267791 
L 335.291692 28.267791 
L 335.291692 34.098791 
z
" style="fill: none; stroke: #fc4f30; stroke-linejoin: miter"/>
    </g>
    <g id="text_15">
     <!-- Gauss -->
     <g transform="translate(358.615692 34.098791)scale(0.0833 -0.0833)">
      <defs>
       <path id="HelveticaNeue-Medium-47" d="M 4474 2406 
L 2528 2406 
L 2528 1798 
L 3744 1798 
C 3731 1024 3283 531 2464 544 
C 1485 544 1075 1408 1075 2285 
C 1075 3162 1485 4026 2464 4026 
C 3040 4026 3565 3718 3642 3117 
L 4422 3117 
C 4301 4147 3462 4678 2464 4678 
C 1094 4678 275 3590 275 2285 
C 275 979 1094 -109 2464 -109 
C 3021 -109 3411 51 3840 538 
L 3962 0 
L 4474 0 
L 4474 2406 
z
" transform="scale(0.015625)"/>
       <path id="HelveticaNeue-Medium-75" d="M 3290 3309 
L 2560 3309 
L 2560 1389 
C 2560 877 2355 486 1747 486 
C 1350 486 1114 698 1114 1280 
L 1114 3309 
L 384 3309 
L 384 1210 
C 384 346 755 -90 1619 -90 
C 1984 -90 2381 128 2560 461 
L 2573 461 
L 2573 0 
L 3290 0 
L 3290 3309 
z
" transform="scale(0.015625)"/>
      </defs>
      <use xlink:href="#HelveticaNeue-Medium-47"/>
      <use xlink:href="#HelveticaNeue-Medium-61" x="75.899994"/>
      <use xlink:href="#HelveticaNeue-Medium-75" x="131.499985"/>
      <use xlink:href="#HelveticaNeue-Medium-73" x="188.899979"/>
      <use xlink:href="#HelveticaNeue-Medium-73" x="240.799973"/>
     </g>
    </g>
   </g>
  </g>
 </g>
 <defs>
  <clipPath id="p7c03081bf0">
   <rect x="39.539063" y="8.95" width="357.12" height="266.112"/>
  </clipPath>
 </defs>
</svg>
