<?xml version="1.0" encoding="utf-8" standalone="no"?>
<!DOCTYPE svg PUBLIC "-//W3C//DTD SVG 1.1//EN"
  "http://www.w3.org/Graphics/SVG/1.1/DTD/svg11.dtd">
<!-- Created with matplotlib (https://matplotlib.org/) -->
<svg height="142.632446pt" version="1.1" viewBox="0 0 263.6875 142.632446" width="263.6875pt" xmlns="http://www.w3.org/2000/svg" xmlns:xlink="http://www.w3.org/1999/xlink">
 <metadata>
  <rdf:RDF xmlns:cc="http://creativecommons.org/ns#" xmlns:dc="http://purl.org/dc/elements/1.1/" xmlns:rdf="http://www.w3.org/1999/02/22-rdf-syntax-ns#">
   <cc:Work>
    <dc:type rdf:resource="http://purl.org/dc/dcmitype/StillImage"/>
    <dc:date>2021-03-12T13:13:54.701545</dc:date>
    <dc:format>image/svg+xml</dc:format>
    <dc:creator>
     <cc:Agent>
      <dc:title>Matplotlib v3.3.2, https://matplotlib.org/</dc:title>
     </cc:Agent>
    </dc:creator>
   </cc:Work>
  </rdf:RDF>
 </metadata>
 <defs>
  <style type="text/css">*{stroke-linecap:butt;stroke-linejoin:round;}</style>
 </defs>
 <g id="figure_1">
  <g id="patch_1">
   <path d="M 0 142.632446 
L 263.6875 142.632446 
L 263.6875 0 
L 0 0 
z
" style="fill:#ffffff;"/>
  </g>
  <g id="axes_1">
   <g id="patch_2">
    <path d="M 33.2875 118.754321 
L 256.4875 118.754321 
L 256.4875 7.874321 
L 33.2875 7.874321 
z
" style="fill:#ffffff;"/>
   </g>
   <g id="matplotlib.axis_1">
    <g id="xtick_1">
     <g id="line2d_1">
      <defs>
       <path d="M 0 0 
L 0 3.5 
" id="mf3331496bc" style="stroke:#000000;stroke-width:0.8;"/>
      </defs>
      <g>
       <use style="stroke:#000000;stroke-width:0.8;" x="43.426208" xlink:href="#mf3331496bc" y="118.754321"/>
      </g>
     </g>
     <g id="text_1">
      <!-- 0 -->
      <g transform="translate(40.244958 133.352758)scale(0.1 -0.1)">
       <defs>
        <path d="M 31.78125 66.40625 
Q 24.171875 66.40625 20.328125 58.90625 
Q 16.5 51.421875 16.5 36.375 
Q 16.5 21.390625 20.328125 13.890625 
Q 24.171875 6.390625 31.78125 6.390625 
Q 39.453125 6.390625 43.28125 13.890625 
Q 47.125 21.390625 47.125 36.375 
Q 47.125 51.421875 43.28125 58.90625 
Q 39.453125 66.40625 31.78125 66.40625 
z
M 31.78125 74.21875 
Q 44.046875 74.21875 50.515625 64.515625 
Q 56.984375 54.828125 56.984375 36.375 
Q 56.984375 17.96875 50.515625 8.265625 
Q 44.046875 -1.421875 31.78125 -1.421875 
Q 19.53125 -1.421875 13.0625 8.265625 
Q 6.59375 17.96875 6.59375 36.375 
Q 6.59375 54.828125 13.0625 64.515625 
Q 19.53125 74.21875 31.78125 74.21875 
z
" id="DejaVuSans-48"/>
       </defs>
       <use xlink:href="#DejaVuSans-48"/>
      </g>
     </g>
    </g>
    <g id="xtick_2">
     <g id="line2d_2">
      <g>
       <use style="stroke:#000000;stroke-width:0.8;" x="98.036245" xlink:href="#mf3331496bc" y="118.754321"/>
      </g>
     </g>
     <g id="text_2">
      <!-- 1 -->
      <g transform="translate(94.854995 133.352758)scale(0.1 -0.1)">
       <defs>
        <path d="M 12.40625 8.296875 
L 28.515625 8.296875 
L 28.515625 63.921875 
L 10.984375 60.40625 
L 10.984375 69.390625 
L 28.421875 72.90625 
L 38.28125 72.90625 
L 38.28125 8.296875 
L 54.390625 8.296875 
L 54.390625 0 
L 12.40625 0 
z
" id="DejaVuSans-49"/>
       </defs>
       <use xlink:href="#DejaVuSans-49"/>
      </g>
     </g>
    </g>
    <g id="xtick_3">
     <g id="line2d_3">
      <g>
       <use style="stroke:#000000;stroke-width:0.8;" x="152.646281" xlink:href="#mf3331496bc" y="118.754321"/>
      </g>
     </g>
     <g id="text_3">
      <!-- 2 -->
      <g transform="translate(149.465031 133.352758)scale(0.1 -0.1)">
       <defs>
        <path d="M 19.1875 8.296875 
L 53.609375 8.296875 
L 53.609375 0 
L 7.328125 0 
L 7.328125 8.296875 
Q 12.9375 14.109375 22.625 23.890625 
Q 32.328125 33.6875 34.8125 36.53125 
Q 39.546875 41.84375 41.421875 45.53125 
Q 43.3125 49.21875 43.3125 52.78125 
Q 43.3125 58.59375 39.234375 62.25 
Q 35.15625 65.921875 28.609375 65.921875 
Q 23.96875 65.921875 18.8125 64.3125 
Q 13.671875 62.703125 7.8125 59.421875 
L 7.8125 69.390625 
Q 13.765625 71.78125 18.9375 73 
Q 24.125 74.21875 28.421875 74.21875 
Q 39.75 74.21875 46.484375 68.546875 
Q 53.21875 62.890625 53.21875 53.421875 
Q 53.21875 48.921875 51.53125 44.890625 
Q 49.859375 40.875 45.40625 35.40625 
Q 44.1875 33.984375 37.640625 27.21875 
Q 31.109375 20.453125 19.1875 8.296875 
z
" id="DejaVuSans-50"/>
       </defs>
       <use xlink:href="#DejaVuSans-50"/>
      </g>
     </g>
    </g>
    <g id="xtick_4">
     <g id="line2d_4">
      <g>
       <use style="stroke:#000000;stroke-width:0.8;" x="207.256317" xlink:href="#mf3331496bc" y="118.754321"/>
      </g>
     </g>
     <g id="text_4">
      <!-- 3 -->
      <g transform="translate(204.075067 133.352758)scale(0.1 -0.1)">
       <defs>
        <path d="M 40.578125 39.3125 
Q 47.65625 37.796875 51.625 33 
Q 55.609375 28.21875 55.609375 21.1875 
Q 55.609375 10.40625 48.1875 4.484375 
Q 40.765625 -1.421875 27.09375 -1.421875 
Q 22.515625 -1.421875 17.65625 -0.515625 
Q 12.796875 0.390625 7.625 2.203125 
L 7.625 11.71875 
Q 11.71875 9.328125 16.59375 8.109375 
Q 21.484375 6.890625 26.8125 6.890625 
Q 36.078125 6.890625 40.9375 10.546875 
Q 45.796875 14.203125 45.796875 21.1875 
Q 45.796875 27.640625 41.28125 31.265625 
Q 36.765625 34.90625 28.71875 34.90625 
L 20.21875 34.90625 
L 20.21875 43.015625 
L 29.109375 43.015625 
Q 36.375 43.015625 40.234375 45.921875 
Q 44.09375 48.828125 44.09375 54.296875 
Q 44.09375 59.90625 40.109375 62.90625 
Q 36.140625 65.921875 28.71875 65.921875 
Q 24.65625 65.921875 20.015625 65.03125 
Q 15.375 64.15625 9.8125 62.3125 
L 9.8125 71.09375 
Q 15.4375 72.65625 20.34375 73.4375 
Q 25.25 74.21875 29.59375 74.21875 
Q 40.828125 74.21875 47.359375 69.109375 
Q 53.90625 64.015625 53.90625 55.328125 
Q 53.90625 49.265625 50.4375 45.09375 
Q 46.96875 40.921875 40.578125 39.3125 
z
" id="DejaVuSans-51"/>
       </defs>
       <use xlink:href="#DejaVuSans-51"/>
      </g>
     </g>
    </g>
   </g>
   <g id="matplotlib.axis_2">
    <g id="ytick_1">
     <g id="line2d_5">
      <defs>
       <path d="M 0 0 
L -3.5 0 
" id="m37ed176234" style="stroke:#000000;stroke-width:0.8;"/>
      </defs>
      <g>
       <use style="stroke:#000000;stroke-width:0.8;" x="33.2875" xlink:href="#m37ed176234" y="118.754321"/>
      </g>
     </g>
     <g id="text_5">
      <!-- 0 -->
      <g transform="translate(19.925 122.55354)scale(0.1 -0.1)">
       <use xlink:href="#DejaVuSans-48"/>
      </g>
     </g>
    </g>
    <g id="ytick_2">
     <g id="line2d_6">
      <g>
       <use style="stroke:#000000;stroke-width:0.8;" x="33.2875" xlink:href="#m37ed176234" y="91.815545"/>
      </g>
     </g>
     <g id="text_6">
      <!-- 50 -->
      <g transform="translate(13.5625 95.614764)scale(0.1 -0.1)">
       <defs>
        <path d="M 10.796875 72.90625 
L 49.515625 72.90625 
L 49.515625 64.59375 
L 19.828125 64.59375 
L 19.828125 46.734375 
Q 21.96875 47.46875 24.109375 47.828125 
Q 26.265625 48.1875 28.421875 48.1875 
Q 40.625 48.1875 47.75 41.5 
Q 54.890625 34.8125 54.890625 23.390625 
Q 54.890625 11.625 47.5625 5.09375 
Q 40.234375 -1.421875 26.90625 -1.421875 
Q 22.3125 -1.421875 17.546875 -0.640625 
Q 12.796875 0.140625 7.71875 1.703125 
L 7.71875 11.625 
Q 12.109375 9.234375 16.796875 8.0625 
Q 21.484375 6.890625 26.703125 6.890625 
Q 35.15625 6.890625 40.078125 11.328125 
Q 45.015625 15.765625 45.015625 23.390625 
Q 45.015625 31 40.078125 35.4375 
Q 35.15625 39.890625 26.703125 39.890625 
Q 22.75 39.890625 18.8125 39.015625 
Q 14.890625 38.140625 10.796875 36.28125 
z
" id="DejaVuSans-53"/>
       </defs>
       <use xlink:href="#DejaVuSans-53"/>
       <use x="63.623047" xlink:href="#DejaVuSans-48"/>
      </g>
     </g>
    </g>
    <g id="ytick_3">
     <g id="line2d_7">
      <g>
       <use style="stroke:#000000;stroke-width:0.8;" x="33.2875" xlink:href="#m37ed176234" y="64.87677"/>
      </g>
     </g>
     <g id="text_7">
      <!-- 100 -->
      <g transform="translate(7.2 68.675989)scale(0.1 -0.1)">
       <use xlink:href="#DejaVuSans-49"/>
       <use x="63.623047" xlink:href="#DejaVuSans-48"/>
       <use x="127.246094" xlink:href="#DejaVuSans-48"/>
      </g>
     </g>
    </g>
    <g id="ytick_4">
     <g id="line2d_8">
      <g>
       <use style="stroke:#000000;stroke-width:0.8;" x="33.2875" xlink:href="#m37ed176234" y="37.937994"/>
      </g>
     </g>
     <g id="text_8">
      <!-- 150 -->
      <g transform="translate(7.2 41.737213)scale(0.1 -0.1)">
       <use xlink:href="#DejaVuSans-49"/>
       <use x="63.623047" xlink:href="#DejaVuSans-53"/>
       <use x="127.246094" xlink:href="#DejaVuSans-48"/>
      </g>
     </g>
    </g>
    <g id="ytick_5">
     <g id="line2d_9">
      <g>
       <use style="stroke:#000000;stroke-width:0.8;" x="33.2875" xlink:href="#m37ed176234" y="10.999219"/>
      </g>
     </g>
     <g id="text_9">
      <!-- 200 -->
      <g transform="translate(7.2 14.798437)scale(0.1 -0.1)">
       <use xlink:href="#DejaVuSans-50"/>
       <use x="63.623047" xlink:href="#DejaVuSans-48"/>
       <use x="127.246094" xlink:href="#DejaVuSans-48"/>
      </g>
     </g>
    </g>
   </g>
   <g id="patch_3">
    <path clip-path="url(#p24dd1db4cf)" d="M 43.432955 118.754321 
L 43.432955 106.90126 
L 45.462045 106.90126 
L 45.462045 104.746158 
L 47.491136 104.746158 
L 47.491136 110.672688 
L 49.520227 110.672688 
L 49.520227 96.664525 
L 51.549318 96.664525 
L 51.549318 107.440035 
L 55.6075 107.440035 
L 55.6075 105.284933 
L 57.636591 105.284933 
L 57.636591 105.823709 
L 59.665682 105.823709 
L 59.665682 108.517586 
L 61.694773 108.517586 
L 61.694773 105.284933 
L 63.723864 105.284933 
L 63.723864 105.823709 
L 65.752955 105.823709 
L 65.752955 107.978811 
L 67.782045 107.978811 
L 67.782045 104.207382 
L 69.811136 104.207382 
L 69.811136 105.823709 
L 71.840227 105.823709 
L 71.840227 109.056362 
L 73.869318 109.056362 
L 73.869318 107.440035 
L 75.898409 107.440035 
L 75.898409 103.668607 
L 77.9275 103.668607 
L 77.9275 108.517586 
L 79.956591 108.517586 
L 79.956591 107.440035 
L 81.985682 107.440035 
L 81.985682 110.133913 
L 84.014773 110.133913 
L 84.014773 105.823709 
L 86.043864 105.823709 
L 86.043864 103.668607 
L 88.072955 103.668607 
L 88.072955 111.211464 
L 90.102045 111.211464 
L 90.102045 100.435953 
L 92.131136 100.435953 
L 92.131136 109.056362 
L 94.160227 109.056362 
L 94.160227 105.823709 
L 96.189318 105.823709 
L 96.189318 99.897178 
L 98.218409 99.897178 
L 98.218409 107.440035 
L 100.2475 107.440035 
L 100.2475 104.746158 
L 102.276591 104.746158 
L 102.276591 106.362484 
L 104.305682 106.362484 
L 104.305682 103.129831 
L 106.334773 103.129831 
L 106.334773 111.211464 
L 108.363864 111.211464 
L 108.363864 102.05228 
L 110.392955 102.05228 
L 110.392955 105.284933 
L 114.451136 105.284933 
L 114.451136 96.664525 
L 116.480227 96.664525 
L 116.480227 104.207382 
L 118.509318 104.207382 
L 118.509318 106.362484 
L 120.538409 106.362484 
L 120.538409 102.05228 
L 122.5675 102.05228 
L 122.5675 99.358402 
L 124.596591 99.358402 
L 124.596591 105.823709 
L 126.625682 105.823709 
L 126.625682 104.746158 
L 128.654773 104.746158 
L 128.654773 102.591055 
L 130.683864 102.591055 
L 130.683864 102.05228 
L 132.712955 102.05228 
L 132.712955 102.591055 
L 134.742045 102.591055 
L 134.742045 109.595137 
L 136.771136 109.595137 
L 136.771136 106.90126 
L 138.800227 106.90126 
L 138.800227 107.440035 
L 140.829318 107.440035 
L 140.829318 106.90126 
L 144.8875 106.90126 
L 144.8875 103.668607 
L 146.916591 103.668607 
L 146.916591 107.440035 
L 148.945682 107.440035 
L 148.945682 103.668607 
L 150.974773 103.668607 
L 150.974773 104.207382 
L 153.003864 104.207382 
L 153.003864 107.978811 
L 155.032955 107.978811 
L 155.032955 105.284933 
L 157.062045 105.284933 
L 157.062045 108.517586 
L 159.091136 108.517586 
L 159.091136 102.05228 
L 161.120227 102.05228 
L 161.120227 100.974729 
L 163.149318 100.974729 
L 163.149318 104.207382 
L 165.178409 104.207382 
L 165.178409 104.746158 
L 167.2075 104.746158 
L 167.2075 105.823709 
L 169.236591 105.823709 
L 169.236591 107.440035 
L 171.265682 107.440035 
L 171.265682 104.746158 
L 175.323864 104.746158 
L 175.323864 109.056362 
L 177.352955 109.056362 
L 177.352955 100.435953 
L 179.382045 100.435953 
L 179.382045 108.517586 
L 181.411136 108.517586 
L 181.411136 98.819627 
L 183.440227 98.819627 
L 183.440227 95.586974 
L 185.469318 95.586974 
L 185.469318 91.815545 
L 187.498409 91.815545 
L 187.498409 77.268607 
L 189.5275 77.268607 
L 189.5275 66.493096 
L 191.556591 66.493096 
L 191.556591 74.574729 
L 193.585682 74.574729 
L 193.585682 64.337994 
L 195.614773 64.337994 
L 195.614773 63.799219 
L 197.643864 63.799219 
L 197.643864 39.554321 
L 199.672955 39.554321 
L 199.672955 53.562484 
L 201.702045 53.562484 
L 201.702045 28.240035 
L 203.731136 28.240035 
L 203.731136 32.550239 
L 205.760227 32.550239 
L 205.760227 13.154321 
L 207.789318 13.154321 
L 207.789318 36.321668 
L 209.818409 36.321668 
L 209.818409 42.248198 
L 211.8475 42.248198 
L 211.8475 48.174729 
L 213.876591 48.174729 
L 213.876591 63.799219 
L 215.905682 63.799219 
L 215.905682 57.333913 
L 217.934773 57.333913 
L 217.934773 84.811464 
L 219.963864 84.811464 
L 219.963864 87.505341 
L 221.992955 87.505341 
L 221.992955 92.354321 
L 224.022045 92.354321 
L 224.022045 98.280851 
L 226.051136 98.280851 
L 226.051136 102.05228 
L 228.080227 102.05228 
L 228.080227 110.672688 
L 232.138409 110.672688 
L 232.138409 113.905341 
L 234.1675 113.905341 
L 234.1675 116.060443 
L 236.196591 116.060443 
L 236.196591 116.599219 
L 238.225682 116.599219 
L 238.225682 117.137994 
L 240.254773 117.137994 
L 240.254773 118.754321 
L 242.283864 118.754321 
L 242.283864 117.67677 
L 244.312955 117.67677 
L 244.312955 118.215545 
L 246.342045 118.215545 
L 246.342045 118.754321 
L 246.342045 118.754321 
" style="fill:none;stroke:#1f77b4;stroke-linejoin:miter;"/>
   </g>
   <g id="patch_4">
    <path d="M 33.2875 118.754321 
L 33.2875 7.874321 
" style="fill:none;stroke:#000000;stroke-linecap:square;stroke-linejoin:miter;stroke-width:0.8;"/>
   </g>
   <g id="patch_5">
    <path d="M 256.4875 118.754321 
L 256.4875 7.874321 
" style="fill:none;stroke:#000000;stroke-linecap:square;stroke-linejoin:miter;stroke-width:0.8;"/>
   </g>
   <g id="patch_6">
    <path d="M 33.2875 118.754321 
L 256.4875 118.754321 
" style="fill:none;stroke:#000000;stroke-linecap:square;stroke-linejoin:miter;stroke-width:0.8;"/>
   </g>
   <g id="patch_7">
    <path d="M 33.2875 7.874321 
L 256.4875 7.874321 
" style="fill:none;stroke:#000000;stroke-linecap:square;stroke-linejoin:miter;stroke-width:0.8;"/>
   </g>
  </g>
 </g>
 <defs>
  <clipPath id="p24dd1db4cf">
   <rect height="110.88" width="223.2" x="33.2875" y="7.874321"/>
  </clipPath>
 </defs>
</svg>
