<?xml version="1.0" encoding="utf-8" standalone="no"?>
<!DOCTYPE svg PUBLIC "-//W3C//DTD SVG 1.1//EN"
  "http://www.w3.org/Graphics/SVG/1.1/DTD/svg11.dtd">
<svg xmlns:xlink="http://www.w3.org/1999/xlink" width="258.498437pt" height="141.33pt" viewBox="0 0 258.498437 141.33" xmlns="http://www.w3.org/2000/svg" version="1.1">
 <metadata>
  <rdf:RDF xmlns:dc="http://purl.org/dc/elements/1.1/" xmlns:cc="http://creativecommons.org/ns#" xmlns:rdf="http://www.w3.org/1999/02/22-rdf-syntax-ns#">
   <cc:Work>
    <dc:type rdf:resource="http://purl.org/dc/dcmitype/StillImage"/>
    <dc:date>2022-09-19T17:51:39.024618</dc:date>
    <dc:format>image/svg+xml</dc:format>
    <dc:creator>
     <cc:Agent>
      <dc:title>Matplotlib v3.5.1, https://matplotlib.org/</dc:title>
     </cc:Agent>
    </dc:creator>
   </cc:Work>
  </rdf:RDF>
 </metadata>
 <defs>
  <style type="text/css">*{stroke-linejoin: round; stroke-linecap: butt}</style>
 </defs>
 <g id="figure_1">
  <g id="patch_1">
   <path d="M 0 141.33 
L 258.498437 141.33 
L 258.498437 0 
L 0 0 
z
" style="fill: #ffffff"/>
  </g>
  <g id="axes_1">
   <g id="patch_2">
    <path d="M 26.348438 119.83 
L 249.548437 119.83 
L 249.548437 8.95 
L 26.348438 8.95 
z
" style="fill: #ffffff"/>
   </g>
   <g id="matplotlib.axis_1">
    <g id="xtick_1">
     <g id="line2d_1">
      <defs>
       <path id="m9552d928e2" d="M 0 1.75 
L 0 -1.75 
" style="stroke: #000000; stroke-width: 0.8"/>
      </defs>
      <g>
       <use xlink:href="#m9552d928e2" x="36.471738" y="119.83" style="stroke: #000000; stroke-width: 0.8"/>
      </g>
     </g>
     <g id="line2d_2">
      <g>
       <use xlink:href="#m9552d928e2" x="36.471738" y="8.95" style="stroke: #000000; stroke-width: 0.8"/>
      </g>
     </g>
     <g id="text_1">
      <!-- 0 -->
      <g transform="translate(33.69205 132.220625)scale(0.1 -0.1)">
       <defs>
        <path id="HelveticaNeue-Medium-30" d="M 1779 518 
C 1139 518 960 1306 960 2240 
C 960 3174 1139 3962 1779 3962 
C 2419 3962 2598 3174 2598 2240 
C 2598 1306 2419 518 1779 518 
z
M 1779 4570 
C 493 4570 230 3258 230 2240 
C 230 1222 493 -90 1779 -90 
C 3066 -90 3328 1222 3328 2240 
C 3328 3258 3066 4570 1779 4570 
z
" transform="scale(0.015625)"/>
       </defs>
       <use xlink:href="#HelveticaNeue-Medium-30"/>
      </g>
     </g>
    </g>
    <g id="xtick_2">
     <g id="line2d_3">
      <g>
       <use xlink:href="#m9552d928e2" x="92.104803" y="119.83" style="stroke: #000000; stroke-width: 0.8"/>
      </g>
     </g>
     <g id="line2d_4">
      <g>
       <use xlink:href="#m9552d928e2" x="92.104803" y="8.95" style="stroke: #000000; stroke-width: 0.8"/>
      </g>
     </g>
     <g id="text_2">
      <!-- 1 -->
      <g transform="translate(89.325116 132.220625)scale(0.1 -0.1)">
       <defs>
        <path id="HelveticaNeue-Medium-31" d="M 339 3162 
L 1440 3162 
L 1440 0 
L 2240 0 
L 2240 4480 
L 1645 4480 
C 1536 3942 954 3731 339 3738 
L 339 3162 
z
" transform="scale(0.015625)"/>
       </defs>
       <use xlink:href="#HelveticaNeue-Medium-31"/>
      </g>
     </g>
    </g>
    <g id="xtick_3">
     <g id="line2d_5">
      <g>
       <use xlink:href="#m9552d928e2" x="147.737869" y="119.83" style="stroke: #000000; stroke-width: 0.8"/>
      </g>
     </g>
     <g id="line2d_6">
      <g>
       <use xlink:href="#m9552d928e2" x="147.737869" y="8.95" style="stroke: #000000; stroke-width: 0.8"/>
      </g>
     </g>
     <g id="text_3">
      <!-- 2 -->
      <g transform="translate(144.958181 132.220625)scale(0.1 -0.1)">
       <defs>
        <path id="HelveticaNeue-Medium-32" d="M 3309 653 
L 1126 653 
C 1254 1050 1798 1325 2317 1683 
C 2829 2042 3315 2483 3315 3194 
C 3315 3770 2970 4570 1875 4570 
C 877 4570 333 3834 333 2842 
L 1062 2842 
C 1082 3469 1254 3962 1830 3962 
C 2458 3962 2592 3488 2586 3168 
C 2573 2470 1818 2118 1235 1696 
C 634 1293 256 736 250 0 
L 3309 0 
L 3309 653 
z
" transform="scale(0.015625)"/>
       </defs>
       <use xlink:href="#HelveticaNeue-Medium-32"/>
      </g>
     </g>
    </g>
    <g id="xtick_4">
     <g id="line2d_7">
      <g>
       <use xlink:href="#m9552d928e2" x="203.370934" y="119.83" style="stroke: #000000; stroke-width: 0.8"/>
      </g>
     </g>
     <g id="line2d_8">
      <g>
       <use xlink:href="#m9552d928e2" x="203.370934" y="8.95" style="stroke: #000000; stroke-width: 0.8"/>
      </g>
     </g>
     <g id="text_4">
      <!-- 3 -->
      <g transform="translate(200.591247 132.220625)scale(0.1 -0.1)">
       <defs>
        <path id="HelveticaNeue-Medium-33" d="M 1459 2080 
C 2035 2106 2630 2016 2630 1318 
C 2630 806 2259 518 1773 518 
C 1203 518 909 928 928 1472 
L 198 1472 
C 218 538 736 -90 1773 -90 
C 2630 -90 3360 435 3360 1280 
C 3360 1856 3053 2298 2547 2400 
L 2547 2413 
C 2976 2566 3181 2925 3181 3373 
C 3181 4166 2464 4570 1766 4570 
C 864 4570 320 3917 282 3046 
L 1011 3046 
C 998 3507 1248 3962 1754 3962 
C 2157 3962 2451 3706 2451 3328 
C 2451 2778 1946 2605 1459 2624 
L 1459 2080 
z
" transform="scale(0.015625)"/>
       </defs>
       <use xlink:href="#HelveticaNeue-Medium-33"/>
      </g>
     </g>
    </g>
   </g>
   <g id="matplotlib.axis_2">
    <g id="ytick_1">
     <g id="line2d_9">
      <defs>
       <path id="m2e22f9c964" d="M 1.75 0 
L -1.75 -0 
" style="stroke: #000000; stroke-width: 0.8"/>
      </defs>
      <g>
       <use xlink:href="#m2e22f9c964" x="26.348438" y="119.83" style="stroke: #000000; stroke-width: 0.8"/>
      </g>
     </g>
     <g id="line2d_10">
      <g>
       <use xlink:href="#m2e22f9c964" x="249.548437" y="119.83" style="stroke: #000000; stroke-width: 0.8"/>
      </g>
     </g>
     <g id="text_5">
      <!-- 0.0 -->
      <g transform="translate(7.2 123.400312)scale(0.1 -0.1)">
       <defs>
        <path id="HelveticaNeue-Medium-2e" d="M 442 0 
L 1331 0 
L 1331 864 
L 442 864 
L 442 0 
z
" transform="scale(0.015625)"/>
       </defs>
       <use xlink:href="#HelveticaNeue-Medium-30"/>
       <use xlink:href="#HelveticaNeue-Medium-2e" x="55.599991"/>
       <use xlink:href="#HelveticaNeue-Medium-30" x="83.399979"/>
      </g>
     </g>
    </g>
    <g id="ytick_2">
     <g id="line2d_11">
      <g>
       <use xlink:href="#m2e22f9c964" x="26.348438" y="78.41578" style="stroke: #000000; stroke-width: 0.8"/>
      </g>
     </g>
     <g id="line2d_12">
      <g>
       <use xlink:href="#m2e22f9c964" x="249.548437" y="78.41578" style="stroke: #000000; stroke-width: 0.8"/>
      </g>
     </g>
     <g id="text_6">
      <!-- 0.5 -->
      <g transform="translate(7.2 81.986093)scale(0.1 -0.1)">
       <defs>
        <path id="HelveticaNeue-Medium-35" d="M 307 2029 
L 1037 2029 
C 1152 2342 1453 2438 1760 2438 
C 2349 2438 2611 1997 2611 1504 
C 2611 960 2400 518 1779 518 
C 1306 518 998 794 954 1274 
L 224 1274 
C 256 378 928 -90 1792 -90 
C 2893 -90 3341 800 3341 1517 
C 3341 2374 2829 3014 1939 3014 
C 1638 3014 1312 2893 1114 2675 
L 1101 2688 
L 1331 3827 
L 3104 3827 
L 3104 4480 
L 787 4480 
L 307 2029 
z
" transform="scale(0.015625)"/>
       </defs>
       <use xlink:href="#HelveticaNeue-Medium-30"/>
       <use xlink:href="#HelveticaNeue-Medium-2e" x="55.599991"/>
       <use xlink:href="#HelveticaNeue-Medium-35" x="83.399979"/>
      </g>
     </g>
    </g>
    <g id="ytick_3">
     <g id="line2d_13">
      <g>
       <use xlink:href="#m2e22f9c964" x="26.348438" y="37.001561" style="stroke: #000000; stroke-width: 0.8"/>
      </g>
     </g>
     <g id="line2d_14">
      <g>
       <use xlink:href="#m2e22f9c964" x="249.548437" y="37.001561" style="stroke: #000000; stroke-width: 0.8"/>
      </g>
     </g>
     <g id="text_7">
      <!-- 1.0 -->
      <g transform="translate(7.2 40.571873)scale(0.1 -0.1)">
       <use xlink:href="#HelveticaNeue-Medium-31"/>
       <use xlink:href="#HelveticaNeue-Medium-2e" x="55.599991"/>
       <use xlink:href="#HelveticaNeue-Medium-30" x="83.399979"/>
      </g>
     </g>
    </g>
   </g>
   <g id="patch_3">
    <path d="M 36.493892 119.83 
L 36.493892 103.365484 
L 38.522983 103.365484 
L 38.522983 106.204194 
L 40.552074 106.204194 
L 40.552074 109.610645 
L 42.581165 109.610645 
L 42.581165 106.204194 
L 44.610256 106.204194 
L 44.610256 109.042903 
L 46.639347 109.042903 
L 46.639347 107.907419 
L 48.668438 107.907419 
L 48.668438 110.178387 
L 50.697528 110.178387 
L 50.697528 104.500968 
L 52.726619 104.500968 
L 52.726619 107.907419 
L 54.75571 107.907419 
L 54.75571 104.500968 
L 56.784801 104.500968 
L 56.784801 107.907419 
L 58.813892 107.907419 
L 58.813892 105.636452 
L 60.842983 105.636452 
L 60.842983 107.907419 
L 62.872074 107.907419 
L 62.872074 106.771935 
L 64.901165 106.771935 
L 64.901165 110.746129 
L 66.930256 110.746129 
L 66.930256 104.500968 
L 68.959347 104.500968 
L 68.959347 97.120323 
L 70.988438 97.120323 
L 70.988438 103.933226 
L 73.017528 103.933226 
L 73.017528 107.907419 
L 75.046619 107.907419 
L 75.046619 108.475161 
L 77.07571 108.475161 
L 77.07571 107.907419 
L 79.104801 107.907419 
L 79.104801 105.06871 
L 81.133892 105.06871 
L 81.133892 102.797742 
L 83.162983 102.797742 
L 83.162983 105.06871 
L 85.192074 105.06871 
L 85.192074 103.933226 
L 87.221165 103.933226 
L 87.221165 105.636452 
L 89.250256 105.636452 
L 89.250256 101.662258 
L 91.279347 101.662258 
L 91.279347 109.610645 
L 93.308438 109.610645 
L 93.308438 105.636452 
L 95.337528 105.636452 
L 95.337528 107.907419 
L 97.366619 107.907419 
L 97.366619 105.06871 
L 101.424801 105.06871 
L 101.424801 105.636452 
L 105.482983 105.636452 
L 105.482983 102.797742 
L 107.512074 102.797742 
L 107.512074 109.042903 
L 111.570256 109.042903 
L 111.570256 105.636452 
L 113.599347 105.636452 
L 113.599347 104.500968 
L 115.628438 104.500968 
L 115.628438 108.475161 
L 117.657528 108.475161 
L 117.657528 105.06871 
L 119.686619 105.06871 
L 119.686619 107.907419 
L 121.71571 107.907419 
L 121.71571 110.746129 
L 123.744801 110.746129 
L 123.744801 104.500968 
L 125.773892 104.500968 
L 125.773892 106.771935 
L 127.802983 106.771935 
L 127.802983 109.042903 
L 129.832074 109.042903 
L 129.832074 103.365484 
L 131.861165 103.365484 
L 131.861165 107.339677 
L 133.890256 107.339677 
L 133.890256 109.042903 
L 137.948438 109.042903 
L 137.948438 105.636452 
L 139.977528 105.636452 
L 139.977528 106.204194 
L 142.006619 106.204194 
L 142.006619 100.526774 
L 144.03571 100.526774 
L 144.03571 106.204194 
L 146.064801 106.204194 
L 146.064801 102.797742 
L 148.093892 102.797742 
L 148.093892 103.365484 
L 152.152074 103.365484 
L 152.152074 102.797742 
L 154.181165 102.797742 
L 154.181165 107.339677 
L 156.210256 107.339677 
L 156.210256 104.500968 
L 158.239347 104.500968 
L 158.239347 105.06871 
L 160.268438 105.06871 
L 160.268438 104.500968 
L 162.297528 104.500968 
L 162.297528 108.475161 
L 164.326619 108.475161 
L 164.326619 106.204194 
L 166.35571 106.204194 
L 166.35571 103.365484 
L 168.384801 103.365484 
L 168.384801 107.339677 
L 170.413892 107.339677 
L 170.413892 104.500968 
L 172.442983 104.500968 
L 172.442983 105.06871 
L 174.472074 105.06871 
L 174.472074 103.365484 
L 176.501165 103.365484 
L 176.501165 96.552581 
L 178.530256 96.552581 
L 178.530256 101.094516 
L 180.559347 101.094516 
L 180.559347 94.281613 
L 182.588437 94.281613 
L 182.588437 90.307419 
L 184.617528 90.307419 
L 184.617528 81.79129 
L 186.646619 81.79129 
L 186.646619 70.436452 
L 188.67571 70.436452 
L 188.67571 69.300968 
L 190.704801 69.300968 
L 190.704801 62.488065 
L 192.733892 62.488065 
L 192.733892 51.700968 
L 194.762983 51.700968 
L 194.762983 42.617097 
L 196.792074 42.617097 
L 196.792074 39.778387 
L 198.821165 39.778387 
L 198.821165 14.23 
L 200.850256 14.23 
L 200.850256 25.584839 
L 202.879347 25.584839 
L 202.879347 40.346129 
L 204.908437 40.346129 
L 204.908437 33.533226 
L 206.937528 33.533226 
L 206.937528 48.294516 
L 208.966619 48.294516 
L 208.966619 42.617097 
L 210.99571 42.617097 
L 210.99571 57.946129 
L 213.024801 57.946129 
L 213.024801 65.326774 
L 215.053892 65.326774 
L 215.053892 68.733226 
L 217.082983 68.733226 
L 217.082983 83.494516 
L 219.112074 83.494516 
L 219.112074 98.255806 
L 221.141165 98.255806 
L 221.141165 101.094516 
L 223.170256 101.094516 
L 223.170256 104.500968 
L 225.199347 104.500968 
L 225.199347 111.313871 
L 227.228438 111.313871 
L 227.228438 117.559032 
L 229.257528 117.559032 
L 229.257528 116.423548 
L 231.286619 116.423548 
L 231.286619 116.99129 
L 233.31571 116.99129 
L 233.31571 117.559032 
L 235.344801 117.559032 
L 235.344801 119.83 
L 237.373892 119.83 
L 237.373892 118.126774 
L 239.402983 118.126774 
L 239.402983 119.83 
L 239.402983 119.83 
" clip-path="url(#pf5f55d8123)" style="fill: none; stroke: #008fd5; stroke-linejoin: miter"/>
   </g>
   <g id="patch_4">
    <path d="M 37.508438 119.83 
L 37.508438 65.539184 
L 39.460591 65.539184 
L 39.460591 115.10906 
L 41.412744 115.10906 
L 41.412744 108.027649 
L 43.364898 108.027649 
L 43.364898 110.388119 
L 45.317051 110.388119 
L 45.317051 108.027649 
L 49.221358 108.027649 
L 49.221358 110.388119 
L 51.173511 110.388119 
L 51.173511 103.306708 
L 53.125665 103.306708 
L 53.125665 98.585768 
L 55.077818 98.585768 
L 55.077818 112.748589 
L 57.029971 112.748589 
L 57.029971 110.388119 
L 58.982125 110.388119 
L 58.982125 108.027649 
L 60.934278 108.027649 
L 60.934278 112.748589 
L 62.886432 112.748589 
L 62.886432 105.667179 
L 64.838585 105.667179 
L 64.838585 98.585768 
L 66.790738 98.585768 
L 66.790738 108.027649 
L 70.695045 108.027649 
L 70.695045 105.667179 
L 72.647199 105.667179 
L 72.647199 108.027649 
L 76.551505 108.027649 
L 76.551505 105.667179 
L 78.503659 105.667179 
L 78.503659 100.946238 
L 80.455812 100.946238 
L 80.455812 96.225298 
L 82.407966 96.225298 
L 82.407966 100.946238 
L 84.360119 100.946238 
L 84.360119 112.748589 
L 86.312272 112.748589 
L 86.312272 108.027649 
L 90.216579 108.027649 
L 90.216579 100.946238 
L 92.168733 100.946238 
L 92.168733 115.10906 
L 94.120886 115.10906 
L 94.120886 100.946238 
L 96.073039 100.946238 
L 96.073039 105.667179 
L 98.025193 105.667179 
L 98.025193 110.388119 
L 99.977346 110.388119 
L 99.977346 103.306708 
L 101.9295 103.306708 
L 101.9295 110.388119 
L 103.881653 110.388119 
L 103.881653 98.585768 
L 105.833806 98.585768 
L 105.833806 105.667179 
L 107.78596 105.667179 
L 107.78596 112.748589 
L 109.738113 112.748589 
L 109.738113 110.388119 
L 111.690267 110.388119 
L 111.690267 103.306708 
L 113.64242 103.306708 
L 113.64242 98.585768 
L 115.594573 98.585768 
L 115.594573 108.027649 
L 119.49888 108.027649 
L 119.49888 112.748589 
L 121.451034 112.748589 
L 121.451034 108.027649 
L 123.403187 108.027649 
L 123.403187 89.143887 
L 125.35534 89.143887 
L 125.35534 108.027649 
L 129.259647 108.027649 
L 129.259647 105.667179 
L 131.211801 105.667179 
L 131.211801 117.46953 
L 133.163954 117.46953 
L 133.163954 108.027649 
L 135.116107 108.027649 
L 135.116107 112.748589 
L 137.068261 112.748589 
L 137.068261 103.306708 
L 139.020414 103.306708 
L 139.020414 98.585768 
L 140.972568 98.585768 
L 140.972568 96.225298 
L 142.924721 96.225298 
L 142.924721 105.667179 
L 144.876874 105.667179 
L 144.876874 108.027649 
L 146.829028 108.027649 
L 146.829028 105.667179 
L 148.781181 105.667179 
L 148.781181 110.388119 
L 150.733335 110.388119 
L 150.733335 100.946238 
L 152.685488 100.946238 
L 152.685488 103.306708 
L 154.637641 103.306708 
L 154.637641 108.027649 
L 156.589795 108.027649 
L 156.589795 105.667179 
L 158.541948 105.667179 
L 158.541948 108.027649 
L 160.494102 108.027649 
L 160.494102 105.667179 
L 162.446255 105.667179 
L 162.446255 110.388119 
L 164.398408 110.388119 
L 164.398408 98.585768 
L 166.350562 98.585768 
L 166.350562 96.225298 
L 168.302715 96.225298 
L 168.302715 105.667179 
L 170.254869 105.667179 
L 170.254869 98.585768 
L 172.207022 98.585768 
L 172.207022 91.504357 
L 174.159175 91.504357 
L 174.159175 96.225298 
L 176.111329 96.225298 
L 176.111329 84.422946 
L 178.063482 84.422946 
L 178.063482 108.027649 
L 180.015636 108.027649 
L 180.015636 91.504357 
L 181.967789 91.504357 
L 181.967789 105.667179 
L 183.919942 105.667179 
L 183.919942 77.341536 
L 185.872096 77.341536 
L 185.872096 72.620595 
L 187.824249 72.620595 
L 187.824249 60.818244 
L 189.776403 60.818244 
L 189.776403 77.341536 
L 191.728556 77.341536 
L 191.728556 53.736833 
L 193.680709 53.736833 
L 193.680709 58.457774 
L 195.632863 58.457774 
L 195.632863 34.853071 
L 197.585016 34.853071 
L 197.585016 18.32978 
L 199.53717 18.32978 
L 199.53717 20.69025 
L 201.489323 20.69025 
L 201.489323 30.132131 
L 203.441476 30.132131 
L 203.441476 34.853071 
L 205.39363 34.853071 
L 205.39363 46.655423 
L 207.345783 46.655423 
L 207.345783 51.376363 
L 209.297936 51.376363 
L 209.297936 44.294952 
L 211.25009 44.294952 
L 211.25009 63.178714 
L 213.202243 63.178714 
L 213.202243 60.818244 
L 215.154397 60.818244 
L 215.154397 84.422946 
L 217.10655 84.422946 
L 217.10655 89.143887 
L 219.058703 89.143887 
L 219.058703 103.306708 
L 221.010857 103.306708 
L 221.010857 110.388119 
L 222.96301 110.388119 
L 222.96301 105.667179 
L 224.915164 105.667179 
L 224.915164 117.46953 
L 228.81947 117.46953 
L 228.81947 119.83 
L 230.771624 119.83 
L 230.771624 115.10906 
L 232.723777 115.10906 
L 232.723777 119.83 
L 232.723777 119.83 
" clip-path="url(#pf5f55d8123)" style="fill: none; stroke: #fc4f30; stroke-linejoin: miter"/>
   </g>
   <g id="patch_5">
    <path d="M 26.348438 119.83 
L 26.348438 8.95 
" style="fill: none; stroke: #000000; stroke-width: 0.8; stroke-linejoin: miter; stroke-linecap: square"/>
   </g>
   <g id="patch_6">
    <path d="M 249.548437 119.83 
L 249.548437 8.95 
" style="fill: none; stroke: #000000; stroke-width: 0.8; stroke-linejoin: miter; stroke-linecap: square"/>
   </g>
   <g id="patch_7">
    <path d="M 26.348438 119.83 
L 249.548438 119.83 
" style="fill: none; stroke: #000000; stroke-width: 0.8; stroke-linejoin: miter; stroke-linecap: square"/>
   </g>
   <g id="patch_8">
    <path d="M 26.348438 8.95 
L 249.548438 8.95 
" style="fill: none; stroke: #000000; stroke-width: 0.8; stroke-linejoin: miter; stroke-linecap: square"/>
   </g>
  </g>
 </g>
 <defs>
  <clipPath id="pf5f55d8123">
   <rect x="26.348438" y="8.95" width="223.2" height="110.88"/>
  </clipPath>
 </defs>
</svg>
