<?xml version="1.0" encoding="utf-8" standalone="no"?>
<!DOCTYPE svg PUBLIC "-//W3C//DTD SVG 1.1//EN"
  "http://www.w3.org/Graphics/SVG/1.1/DTD/svg11.dtd">
<svg xmlns:xlink="http://www.w3.org/1999/xlink" width="261.278125pt" height="142.270312pt" viewBox="0 0 261.278125 142.270312" xmlns="http://www.w3.org/2000/svg" version="1.1">
 <metadata>
  <rdf:RDF xmlns:dc="http://purl.org/dc/elements/1.1/" xmlns:cc="http://creativecommons.org/ns#" xmlns:rdf="http://www.w3.org/1999/02/22-rdf-syntax-ns#">
   <cc:Work>
    <dc:type rdf:resource="http://purl.org/dc/dcmitype/StillImage"/>
    <dc:date>2023-06-22T11:33:28.325309</dc:date>
    <dc:format>image/svg+xml</dc:format>
    <dc:creator>
     <cc:Agent>
      <dc:title>Matplotlib v3.5.1, https://matplotlib.org/</dc:title>
     </cc:Agent>
    </dc:creator>
   </cc:Work>
  </rdf:RDF>
 </metadata>
 <defs>
  <style type="text/css">*{stroke-linejoin: round; stroke-linecap: butt}</style>
 </defs>
 <g id="figure_1">
  <g id="patch_1">
   <path d="M 0 142.270312 
L 261.278125 142.270312 
L 261.278125 0 
L 0 0 
z
" style="fill: #ffffff"/>
  </g>
  <g id="axes_1">
   <g id="patch_2">
    <path d="M 29.128125 120.770312 
L 252.328125 120.770312 
L 252.328125 9.890312 
L 29.128125 9.890312 
z
" style="fill: #ffffff"/>
   </g>
   <g id="matplotlib.axis_1">
    <g id="xtick_1">
     <g id="line2d_1">
      <defs>
       <path id="me22e405852" d="M 0 1.75 
L 0 -1.75 
" style="stroke: #000000; stroke-width: 0.8"/>
      </defs>
      <g>
       <use xlink:href="#me22e405852" x="39.241992" y="120.770312" style="stroke: #000000; stroke-width: 0.8"/>
      </g>
     </g>
     <g id="line2d_2">
      <g>
       <use xlink:href="#me22e405852" x="39.241992" y="9.890312" style="stroke: #000000; stroke-width: 0.8"/>
      </g>
     </g>
     <g id="text_1">
      <!-- 0 -->
      <g transform="translate(36.462305 133.160937)scale(0.1 -0.1)">
       <defs>
        <path id="HelveticaNeue-Medium-30" d="M 1779 4570 
Q 2259 4570 2563 4349 
Q 2867 4128 3036 3785 
Q 3206 3443 3267 3033 
Q 3328 2624 3328 2240 
Q 3328 1856 3267 1446 
Q 3206 1037 3036 694 
Q 2867 352 2563 131 
Q 2259 -90 1779 -90 
Q 1299 -90 995 131 
Q 691 352 521 694 
Q 352 1037 291 1446 
Q 230 1856 230 2240 
Q 230 2624 291 3033 
Q 352 3443 521 3785 
Q 691 4128 995 4349 
Q 1299 4570 1779 4570 
z
M 1779 518 
Q 2016 518 2176 656 
Q 2336 794 2429 1027 
Q 2522 1261 2560 1574 
Q 2598 1888 2598 2240 
Q 2598 2592 2560 2902 
Q 2522 3213 2429 3449 
Q 2336 3686 2176 3824 
Q 2016 3962 1779 3962 
Q 1536 3962 1379 3824 
Q 1222 3686 1129 3449 
Q 1037 3213 998 2902 
Q 960 2592 960 2240 
Q 960 1888 998 1574 
Q 1037 1261 1129 1027 
Q 1222 794 1379 656 
Q 1536 518 1779 518 
z
" transform="scale(0.015625)"/>
       </defs>
       <use xlink:href="#HelveticaNeue-Medium-30"/>
      </g>
     </g>
    </g>
    <g id="xtick_2">
     <g id="line2d_3">
      <g>
       <use xlink:href="#me22e405852" x="94.347355" y="120.770312" style="stroke: #000000; stroke-width: 0.8"/>
      </g>
     </g>
     <g id="line2d_4">
      <g>
       <use xlink:href="#me22e405852" x="94.347355" y="9.890312" style="stroke: #000000; stroke-width: 0.8"/>
      </g>
     </g>
     <g id="text_2">
      <!-- 1 -->
      <g transform="translate(91.567668 133.160937)scale(0.1 -0.1)">
       <defs>
        <path id="HelveticaNeue-Medium-31" d="M 339 3738 
Q 570 3738 787 3776 
Q 1005 3814 1181 3904 
Q 1357 3994 1481 4134 
Q 1606 4275 1645 4480 
L 2240 4480 
L 2240 0 
L 1440 0 
L 1440 3162 
L 339 3162 
L 339 3738 
z
" transform="scale(0.015625)"/>
       </defs>
       <use xlink:href="#HelveticaNeue-Medium-31"/>
      </g>
     </g>
    </g>
    <g id="xtick_3">
     <g id="line2d_5">
      <g>
       <use xlink:href="#me22e405852" x="149.452719" y="120.770312" style="stroke: #000000; stroke-width: 0.8"/>
      </g>
     </g>
     <g id="line2d_6">
      <g>
       <use xlink:href="#me22e405852" x="149.452719" y="9.890312" style="stroke: #000000; stroke-width: 0.8"/>
      </g>
     </g>
     <g id="text_3">
      <!-- 2 -->
      <g transform="translate(146.673031 133.160937)scale(0.1 -0.1)">
       <defs>
        <path id="HelveticaNeue-Medium-32" d="M 3309 0 
L 250 0 
Q 256 557 518 973 
Q 781 1389 1235 1696 
Q 1453 1856 1689 2006 
Q 1926 2157 2124 2329 
Q 2323 2502 2451 2704 
Q 2579 2906 2586 3168 
Q 2586 3290 2557 3427 
Q 2528 3565 2445 3683 
Q 2362 3802 2214 3882 
Q 2067 3962 1830 3962 
Q 1613 3962 1469 3875 
Q 1325 3789 1238 3638 
Q 1152 3488 1110 3283 
Q 1069 3078 1062 2842 
L 333 2842 
Q 333 3213 432 3529 
Q 531 3846 729 4076 
Q 928 4307 1213 4438 
Q 1498 4570 1875 4570 
Q 2285 4570 2560 4435 
Q 2835 4301 3004 4096 
Q 3174 3891 3244 3651 
Q 3315 3411 3315 3194 
Q 3315 2925 3232 2707 
Q 3149 2490 3008 2307 
Q 2867 2125 2688 1971 
Q 2509 1818 2317 1683 
Q 2125 1549 1933 1427 
Q 1741 1306 1577 1184 
Q 1414 1062 1292 931 
Q 1171 800 1126 653 
L 3309 653 
L 3309 0 
z
" transform="scale(0.015625)"/>
       </defs>
       <use xlink:href="#HelveticaNeue-Medium-32"/>
      </g>
     </g>
    </g>
    <g id="xtick_4">
     <g id="line2d_7">
      <g>
       <use xlink:href="#me22e405852" x="204.558082" y="120.770312" style="stroke: #000000; stroke-width: 0.8"/>
      </g>
     </g>
     <g id="line2d_8">
      <g>
       <use xlink:href="#me22e405852" x="204.558082" y="9.890312" style="stroke: #000000; stroke-width: 0.8"/>
      </g>
     </g>
     <g id="text_4">
      <!-- 3 -->
      <g transform="translate(201.778394 133.160937)scale(0.1 -0.1)">
       <defs>
        <path id="HelveticaNeue-Medium-33" d="M 1459 2624 
Q 1638 2618 1817 2650 
Q 1997 2682 2137 2762 
Q 2278 2842 2364 2982 
Q 2451 3123 2451 3328 
Q 2451 3616 2256 3789 
Q 2061 3962 1754 3962 
Q 1562 3962 1421 3885 
Q 1280 3808 1187 3677 
Q 1094 3546 1049 3382 
Q 1005 3219 1011 3046 
L 282 3046 
Q 294 3373 403 3651 
Q 512 3930 701 4134 
Q 890 4339 1158 4454 
Q 1427 4570 1766 4570 
Q 2029 4570 2281 4493 
Q 2534 4416 2736 4269 
Q 2938 4122 3059 3894 
Q 3181 3667 3181 3373 
Q 3181 3034 3027 2781 
Q 2874 2528 2547 2413 
L 2547 2400 
Q 2931 2323 3145 2019 
Q 3360 1715 3360 1280 
Q 3360 960 3232 707 
Q 3104 454 2886 278 
Q 2669 102 2381 6 
Q 2093 -90 1773 -90 
Q 1382 -90 1091 22 
Q 800 134 605 339 
Q 410 544 307 832 
Q 205 1120 198 1472 
L 928 1472 
Q 915 1062 1129 790 
Q 1344 518 1773 518 
Q 2138 518 2384 726 
Q 2630 934 2630 1318 
Q 2630 1581 2528 1734 
Q 2426 1888 2259 1968 
Q 2093 2048 1885 2067 
Q 1677 2086 1459 2080 
L 1459 2624 
z
" transform="scale(0.015625)"/>
       </defs>
       <use xlink:href="#HelveticaNeue-Medium-33"/>
      </g>
     </g>
    </g>
   </g>
   <g id="matplotlib.axis_2">
    <g id="ytick_1">
     <g id="line2d_9">
      <defs>
       <path id="mb32ef453a9" d="M 1.75 0 
L -1.75 -0 
" style="stroke: #000000; stroke-width: 0.8"/>
      </defs>
      <g>
       <use xlink:href="#mb32ef453a9" x="29.128125" y="120.770312" style="stroke: #000000; stroke-width: 0.8"/>
      </g>
     </g>
     <g id="line2d_10">
      <g>
       <use xlink:href="#mb32ef453a9" x="252.328125" y="120.770312" style="stroke: #000000; stroke-width: 0.8"/>
      </g>
     </g>
     <g id="text_5">
      <!-- 0 -->
      <g transform="translate(18.31875 124.340625)scale(0.1 -0.1)">
       <use xlink:href="#HelveticaNeue-Medium-30"/>
      </g>
     </g>
    </g>
    <g id="ytick_2">
     <g id="line2d_11">
      <g>
       <use xlink:href="#mb32ef453a9" x="29.128125" y="93.270312" style="stroke: #000000; stroke-width: 0.8"/>
      </g>
     </g>
     <g id="line2d_12">
      <g>
       <use xlink:href="#mb32ef453a9" x="252.328125" y="93.270312" style="stroke: #000000; stroke-width: 0.8"/>
      </g>
     </g>
     <g id="text_6">
      <!-- 50 -->
      <g transform="translate(12.759375 96.840625)scale(0.1 -0.1)">
       <defs>
        <path id="HelveticaNeue-Medium-35" d="M 787 4480 
L 3104 4480 
L 3104 3827 
L 1331 3827 
L 1101 2688 
L 1114 2675 
Q 1261 2842 1488 2928 
Q 1715 3014 1939 3014 
Q 2272 3014 2534 2902 
Q 2797 2790 2976 2588 
Q 3155 2387 3248 2112 
Q 3341 1837 3341 1517 
Q 3341 1248 3254 963 
Q 3168 678 2979 444 
Q 2790 211 2496 60 
Q 2202 -90 1792 -90 
Q 1466 -90 1187 -3 
Q 909 83 697 256 
Q 486 429 361 681 
Q 237 934 224 1274 
L 954 1274 
Q 986 909 1203 713 
Q 1421 518 1779 518 
Q 2010 518 2170 595 
Q 2330 672 2429 806 
Q 2528 941 2569 1120 
Q 2611 1299 2611 1504 
Q 2611 1690 2560 1859 
Q 2509 2029 2406 2157 
Q 2304 2285 2141 2361 
Q 1978 2438 1760 2438 
Q 1530 2438 1328 2352 
Q 1126 2266 1037 2029 
L 307 2029 
L 787 4480 
z
" transform="scale(0.015625)"/>
       </defs>
       <use xlink:href="#HelveticaNeue-Medium-35"/>
       <use xlink:href="#HelveticaNeue-Medium-30" x="55.599991"/>
      </g>
     </g>
    </g>
    <g id="ytick_3">
     <g id="line2d_13">
      <g>
       <use xlink:href="#mb32ef453a9" x="29.128125" y="65.770312" style="stroke: #000000; stroke-width: 0.8"/>
      </g>
     </g>
     <g id="line2d_14">
      <g>
       <use xlink:href="#mb32ef453a9" x="252.328125" y="65.770312" style="stroke: #000000; stroke-width: 0.8"/>
      </g>
     </g>
     <g id="text_7">
      <!-- 100 -->
      <g transform="translate(7.2 69.340625)scale(0.1 -0.1)">
       <use xlink:href="#HelveticaNeue-Medium-31"/>
       <use xlink:href="#HelveticaNeue-Medium-30" x="55.599991"/>
       <use xlink:href="#HelveticaNeue-Medium-30" x="111.199982"/>
      </g>
     </g>
    </g>
    <g id="ytick_4">
     <g id="line2d_15">
      <g>
       <use xlink:href="#mb32ef453a9" x="29.128125" y="38.270313" style="stroke: #000000; stroke-width: 0.8"/>
      </g>
     </g>
     <g id="line2d_16">
      <g>
       <use xlink:href="#mb32ef453a9" x="252.328125" y="38.270313" style="stroke: #000000; stroke-width: 0.8"/>
      </g>
     </g>
     <g id="text_8">
      <!-- 150 -->
      <g transform="translate(7.2 41.840625)scale(0.1 -0.1)">
       <use xlink:href="#HelveticaNeue-Medium-31"/>
       <use xlink:href="#HelveticaNeue-Medium-35" x="55.599991"/>
       <use xlink:href="#HelveticaNeue-Medium-30" x="111.199982"/>
      </g>
     </g>
    </g>
    <g id="ytick_5">
     <g id="line2d_17">
      <g>
       <use xlink:href="#mb32ef453a9" x="29.128125" y="10.770313" style="stroke: #000000; stroke-width: 0.8"/>
      </g>
     </g>
     <g id="line2d_18">
      <g>
       <use xlink:href="#mb32ef453a9" x="252.328125" y="10.770313" style="stroke: #000000; stroke-width: 0.8"/>
      </g>
     </g>
     <g id="text_9">
      <!-- 200 -->
      <g transform="translate(7.2 14.340625)scale(0.1 -0.1)">
       <use xlink:href="#HelveticaNeue-Medium-32"/>
       <use xlink:href="#HelveticaNeue-Medium-30" x="55.599991"/>
       <use xlink:href="#HelveticaNeue-Medium-30" x="111.199982"/>
      </g>
     </g>
    </g>
   </g>
   <g id="patch_3">
    <path d="M 39.27358 120.770312 
L 39.27358 104.270312 
L 41.30267 104.270312 
L 41.30267 108.670312 
L 43.331761 108.670312 
L 43.331761 105.370312 
L 45.360852 105.370312 
L 45.360852 107.020312 
L 47.389943 107.020312 
L 47.389943 108.120312 
L 49.419034 108.120312 
L 49.419034 104.270312 
L 51.448125 104.270312 
L 51.448125 106.470312 
L 53.477216 106.470312 
L 53.477216 108.120312 
L 55.506307 108.120312 
L 55.506307 110.320312 
L 57.535398 110.320312 
L 57.535398 109.770312 
L 59.564489 109.770312 
L 59.564489 104.820312 
L 61.59358 104.820312 
L 61.59358 104.270312 
L 63.62267 104.270312 
L 63.62267 104.820312 
L 65.651761 104.820312 
L 65.651761 107.020312 
L 67.680852 107.020312 
L 67.680852 110.320312 
L 69.709943 110.320312 
L 69.709943 107.020312 
L 71.739034 107.020312 
L 71.739034 110.320312 
L 73.768125 110.320312 
L 73.768125 106.470312 
L 75.797216 106.470312 
L 75.797216 111.970312 
L 77.826307 111.970312 
L 77.826307 109.770312 
L 79.855398 109.770312 
L 79.855398 107.020312 
L 81.884489 107.020312 
L 81.884489 105.370312 
L 83.91358 105.370312 
L 83.91358 103.170312 
L 85.94267 103.170312 
L 85.94267 110.320312 
L 87.971761 110.320312 
L 87.971761 110.870312 
L 90.000852 110.870312 
L 90.000852 109.220312 
L 94.059034 109.220312 
L 94.059034 107.570312 
L 96.088125 107.570312 
L 96.088125 105.370312 
L 98.117216 105.370312 
L 98.117216 107.020312 
L 100.146307 107.020312 
L 100.146307 105.370312 
L 102.175398 105.370312 
L 102.175398 102.070312 
L 104.204489 102.070312 
L 104.204489 107.570312 
L 106.23358 107.570312 
L 106.23358 111.420312 
L 108.26267 111.420312 
L 108.26267 108.120312 
L 110.291761 108.120312 
L 110.291761 109.770312 
L 112.320852 109.770312 
L 112.320852 107.020312 
L 114.349943 107.020312 
L 114.349943 103.170312 
L 116.379034 103.170312 
L 116.379034 107.020312 
L 118.408125 107.020312 
L 118.408125 108.120312 
L 120.437216 108.120312 
L 120.437216 109.770312 
L 124.495398 109.770312 
L 124.495398 107.020312 
L 126.524489 107.020312 
L 126.524489 106.470312 
L 128.55358 106.470312 
L 128.55358 107.570312 
L 130.58267 107.570312 
L 130.58267 103.720312 
L 132.611761 103.720312 
L 132.611761 105.920312 
L 134.640852 105.920312 
L 134.640852 106.470312 
L 138.699034 106.470312 
L 138.699034 110.320312 
L 140.728125 110.320312 
L 140.728125 109.220312 
L 142.757216 109.220312 
L 142.757216 110.870312 
L 144.786307 110.870312 
L 144.786307 99.320312 
L 146.815398 99.320312 
L 146.815398 105.920312 
L 148.844489 105.920312 
L 148.844489 113.070312 
L 150.87358 113.070312 
L 150.87358 108.120312 
L 152.90267 108.120312 
L 152.90267 104.270312 
L 154.931761 104.270312 
L 154.931761 104.820312 
L 156.960852 104.820312 
L 156.960852 110.320312 
L 158.989943 110.320312 
L 158.989943 104.820312 
L 161.019034 104.820312 
L 161.019034 107.570312 
L 163.048125 107.570312 
L 163.048125 100.970312 
L 165.077216 100.970312 
L 165.077216 107.570312 
L 167.106307 107.570312 
L 167.106307 111.420312 
L 169.135398 111.420312 
L 169.135398 101.520312 
L 171.164489 101.520312 
L 171.164489 104.270312 
L 173.19358 104.270312 
L 173.19358 108.670312 
L 175.22267 108.670312 
L 175.22267 104.270312 
L 177.251761 104.270312 
L 177.251761 105.370312 
L 179.280852 105.370312 
L 179.280852 96.570312 
L 181.309943 96.570312 
L 181.309943 98.220312 
L 183.339034 98.220312 
L 183.339034 95.470312 
L 185.368125 95.470312 
L 185.368125 89.970312 
L 187.397216 89.970312 
L 187.397216 80.620312 
L 189.426307 80.620312 
L 189.426307 61.920312 
L 191.455398 61.920312 
L 191.455398 65.770312 
L 193.484489 65.770312 
L 193.484489 56.420312 
L 195.51358 56.420312 
L 195.51358 45.420312 
L 197.54267 45.420312 
L 197.54267 32.770313 
L 199.571761 32.770313 
L 199.571761 33.320312 
L 201.600852 33.320312 
L 201.600852 15.170312 
L 203.629943 15.170312 
L 203.629943 45.970312 
L 205.659034 45.970312 
L 205.659034 49.270313 
L 207.688125 49.270313 
L 207.688125 45.420312 
L 209.717216 45.420312 
L 209.717216 52.020313 
L 211.746307 52.020313 
L 211.746307 55.320312 
L 213.775398 55.320312 
L 213.775398 78.970312 
L 215.804489 78.970312 
L 215.804489 76.220312 
L 217.83358 76.220312 
L 217.83358 87.770312 
L 219.86267 87.770312 
L 219.86267 86.120312 
L 221.891761 86.120312 
L 221.891761 100.420312 
L 223.920852 100.420312 
L 223.920852 104.820312 
L 225.949943 104.820312 
L 225.949943 110.320312 
L 227.979034 110.320312 
L 227.979034 113.620312 
L 230.008125 113.620312 
L 230.008125 113.070312 
L 232.037216 113.070312 
L 232.037216 117.470312 
L 234.066307 117.470312 
L 234.066307 118.020312 
L 236.095398 118.020312 
L 236.095398 119.670312 
L 238.124489 119.670312 
L 238.124489 120.770312 
L 240.15358 120.770312 
L 240.15358 120.220312 
L 242.18267 120.220312 
L 242.18267 120.770312 
L 242.18267 120.770312 
" clip-path="url(#p528c0fa056)" style="fill: none; stroke: #008fd5; stroke-linejoin: miter"/>
   </g>
   <g id="patch_4">
    <path d="M 29.128125 120.770312 
L 29.128125 9.890313 
" style="fill: none; stroke: #000000; stroke-width: 0.8; stroke-linejoin: miter; stroke-linecap: square"/>
   </g>
   <g id="patch_5">
    <path d="M 252.328125 120.770312 
L 252.328125 9.890313 
" style="fill: none; stroke: #000000; stroke-width: 0.8; stroke-linejoin: miter; stroke-linecap: square"/>
   </g>
   <g id="patch_6">
    <path d="M 29.128125 120.770312 
L 252.328125 120.770312 
" style="fill: none; stroke: #000000; stroke-width: 0.8; stroke-linejoin: miter; stroke-linecap: square"/>
   </g>
   <g id="patch_7">
    <path d="M 29.128125 9.890312 
L 252.328125 9.890312 
" style="fill: none; stroke: #000000; stroke-width: 0.8; stroke-linejoin: miter; stroke-linecap: square"/>
   </g>
  </g>
 </g>
 <defs>
  <clipPath id="p528c0fa056">
   <rect x="29.128125" y="9.890312" width="223.2" height="110.88"/>
  </clipPath>
 </defs>
</svg>
