<?xml version="1.0" encoding="utf-8" standalone="no"?>
<!DOCTYPE svg PUBLIC "-//W3C//DTD SVG 1.1//EN"
  "http://www.w3.org/Graphics/SVG/1.1/DTD/svg11.dtd">
<!-- Created with matplotlib (https://matplotlib.org/) -->
<svg height="141.958125pt" version="1.1" viewBox="0 0 263.6875 141.958125" width="263.6875pt" xmlns="http://www.w3.org/2000/svg" xmlns:xlink="http://www.w3.org/1999/xlink">
 <metadata>
  <rdf:RDF xmlns:cc="http://creativecommons.org/ns#" xmlns:dc="http://purl.org/dc/elements/1.1/" xmlns:rdf="http://www.w3.org/1999/02/22-rdf-syntax-ns#">
   <cc:Work>
    <dc:type rdf:resource="http://purl.org/dc/dcmitype/StillImage"/>
    <dc:date>2021-03-12T17:18:31.522167</dc:date>
    <dc:format>image/svg+xml</dc:format>
    <dc:creator>
     <cc:Agent>
      <dc:title>Matplotlib v3.3.2, https://matplotlib.org/</dc:title>
     </cc:Agent>
    </dc:creator>
   </cc:Work>
  </rdf:RDF>
 </metadata>
 <defs>
  <style type="text/css">*{stroke-linecap:butt;stroke-linejoin:round;}</style>
 </defs>
 <g id="figure_1">
  <g id="patch_1">
   <path d="M 0 141.958125 
L 263.6875 141.958125 
L 263.6875 0 
L 0 0 
z
" style="fill:#ffffff;"/>
  </g>
  <g id="axes_1">
   <g id="patch_2">
    <path d="M 33.2875 118.08 
L 256.4875 118.08 
L 256.4875 7.2 
L 33.2875 7.2 
z
" style="fill:#ffffff;"/>
   </g>
   <g id="matplotlib.axis_1">
    <g id="xtick_1">
     <g id="line2d_1">
      <defs>
       <path d="M 0 0 
L 0 3.5 
" id="me77141693c" style="stroke:#000000;stroke-width:0.8;"/>
      </defs>
      <g>
       <use style="stroke:#000000;stroke-width:0.8;" x="43.319076" xlink:href="#me77141693c" y="118.08"/>
      </g>
     </g>
     <g id="text_1">
      <!-- 0 -->
      <g transform="translate(40.137826 132.678438)scale(0.1 -0.1)">
       <defs>
        <path d="M 31.78125 66.40625 
Q 24.171875 66.40625 20.328125 58.90625 
Q 16.5 51.421875 16.5 36.375 
Q 16.5 21.390625 20.328125 13.890625 
Q 24.171875 6.390625 31.78125 6.390625 
Q 39.453125 6.390625 43.28125 13.890625 
Q 47.125 21.390625 47.125 36.375 
Q 47.125 51.421875 43.28125 58.90625 
Q 39.453125 66.40625 31.78125 66.40625 
z
M 31.78125 74.21875 
Q 44.046875 74.21875 50.515625 64.515625 
Q 56.984375 54.828125 56.984375 36.375 
Q 56.984375 17.96875 50.515625 8.265625 
Q 44.046875 -1.421875 31.78125 -1.421875 
Q 19.53125 -1.421875 13.0625 8.265625 
Q 6.59375 17.96875 6.59375 36.375 
Q 6.59375 54.828125 13.0625 64.515625 
Q 19.53125 74.21875 31.78125 74.21875 
z
" id="DejaVuSans-48"/>
       </defs>
       <use xlink:href="#DejaVuSans-48"/>
      </g>
     </g>
    </g>
    <g id="xtick_2">
     <g id="line2d_2">
      <g>
       <use style="stroke:#000000;stroke-width:0.8;" x="99.367037" xlink:href="#me77141693c" y="118.08"/>
      </g>
     </g>
     <g id="text_2">
      <!-- 1 -->
      <g transform="translate(96.185787 132.678438)scale(0.1 -0.1)">
       <defs>
        <path d="M 12.40625 8.296875 
L 28.515625 8.296875 
L 28.515625 63.921875 
L 10.984375 60.40625 
L 10.984375 69.390625 
L 28.421875 72.90625 
L 38.28125 72.90625 
L 38.28125 8.296875 
L 54.390625 8.296875 
L 54.390625 0 
L 12.40625 0 
z
" id="DejaVuSans-49"/>
       </defs>
       <use xlink:href="#DejaVuSans-49"/>
      </g>
     </g>
    </g>
    <g id="xtick_3">
     <g id="line2d_3">
      <g>
       <use style="stroke:#000000;stroke-width:0.8;" x="155.414999" xlink:href="#me77141693c" y="118.08"/>
      </g>
     </g>
     <g id="text_3">
      <!-- 2 -->
      <g transform="translate(152.233749 132.678438)scale(0.1 -0.1)">
       <defs>
        <path d="M 19.1875 8.296875 
L 53.609375 8.296875 
L 53.609375 0 
L 7.328125 0 
L 7.328125 8.296875 
Q 12.9375 14.109375 22.625 23.890625 
Q 32.328125 33.6875 34.8125 36.53125 
Q 39.546875 41.84375 41.421875 45.53125 
Q 43.3125 49.21875 43.3125 52.78125 
Q 43.3125 58.59375 39.234375 62.25 
Q 35.15625 65.921875 28.609375 65.921875 
Q 23.96875 65.921875 18.8125 64.3125 
Q 13.671875 62.703125 7.8125 59.421875 
L 7.8125 69.390625 
Q 13.765625 71.78125 18.9375 73 
Q 24.125 74.21875 28.421875 74.21875 
Q 39.75 74.21875 46.484375 68.546875 
Q 53.21875 62.890625 53.21875 53.421875 
Q 53.21875 48.921875 51.53125 44.890625 
Q 49.859375 40.875 45.40625 35.40625 
Q 44.1875 33.984375 37.640625 27.21875 
Q 31.109375 20.453125 19.1875 8.296875 
z
" id="DejaVuSans-50"/>
       </defs>
       <use xlink:href="#DejaVuSans-50"/>
      </g>
     </g>
    </g>
    <g id="xtick_4">
     <g id="line2d_4">
      <g>
       <use style="stroke:#000000;stroke-width:0.8;" x="211.462961" xlink:href="#me77141693c" y="118.08"/>
      </g>
     </g>
     <g id="text_4">
      <!-- 3 -->
      <g transform="translate(208.281711 132.678438)scale(0.1 -0.1)">
       <defs>
        <path d="M 40.578125 39.3125 
Q 47.65625 37.796875 51.625 33 
Q 55.609375 28.21875 55.609375 21.1875 
Q 55.609375 10.40625 48.1875 4.484375 
Q 40.765625 -1.421875 27.09375 -1.421875 
Q 22.515625 -1.421875 17.65625 -0.515625 
Q 12.796875 0.390625 7.625 2.203125 
L 7.625 11.71875 
Q 11.71875 9.328125 16.59375 8.109375 
Q 21.484375 6.890625 26.8125 6.890625 
Q 36.078125 6.890625 40.9375 10.546875 
Q 45.796875 14.203125 45.796875 21.1875 
Q 45.796875 27.640625 41.28125 31.265625 
Q 36.765625 34.90625 28.71875 34.90625 
L 20.21875 34.90625 
L 20.21875 43.015625 
L 29.109375 43.015625 
Q 36.375 43.015625 40.234375 45.921875 
Q 44.09375 48.828125 44.09375 54.296875 
Q 44.09375 59.90625 40.109375 62.90625 
Q 36.140625 65.921875 28.71875 65.921875 
Q 24.65625 65.921875 20.015625 65.03125 
Q 15.375 64.15625 9.8125 62.3125 
L 9.8125 71.09375 
Q 15.4375 72.65625 20.34375 73.4375 
Q 25.25 74.21875 29.59375 74.21875 
Q 40.828125 74.21875 47.359375 69.109375 
Q 53.90625 64.015625 53.90625 55.328125 
Q 53.90625 49.265625 50.4375 45.09375 
Q 46.96875 40.921875 40.578125 39.3125 
z
" id="DejaVuSans-51"/>
       </defs>
       <use xlink:href="#DejaVuSans-51"/>
      </g>
     </g>
    </g>
   </g>
   <g id="matplotlib.axis_2">
    <g id="ytick_1">
     <g id="line2d_5">
      <defs>
       <path d="M 0 0 
L -3.5 0 
" id="m6ca187cb8e" style="stroke:#000000;stroke-width:0.8;"/>
      </defs>
      <g>
       <use style="stroke:#000000;stroke-width:0.8;" x="33.2875" xlink:href="#m6ca187cb8e" y="118.08"/>
      </g>
     </g>
     <g id="text_5">
      <!-- 0 -->
      <g transform="translate(19.925 121.879219)scale(0.1 -0.1)">
       <use xlink:href="#DejaVuSans-48"/>
      </g>
     </g>
    </g>
    <g id="ytick_2">
     <g id="line2d_6">
      <g>
       <use style="stroke:#000000;stroke-width:0.8;" x="33.2875" xlink:href="#m6ca187cb8e" y="86.651429"/>
      </g>
     </g>
     <g id="text_6">
      <!-- 50 -->
      <g transform="translate(13.5625 90.450647)scale(0.1 -0.1)">
       <defs>
        <path d="M 10.796875 72.90625 
L 49.515625 72.90625 
L 49.515625 64.59375 
L 19.828125 64.59375 
L 19.828125 46.734375 
Q 21.96875 47.46875 24.109375 47.828125 
Q 26.265625 48.1875 28.421875 48.1875 
Q 40.625 48.1875 47.75 41.5 
Q 54.890625 34.8125 54.890625 23.390625 
Q 54.890625 11.625 47.5625 5.09375 
Q 40.234375 -1.421875 26.90625 -1.421875 
Q 22.3125 -1.421875 17.546875 -0.640625 
Q 12.796875 0.140625 7.71875 1.703125 
L 7.71875 11.625 
Q 12.109375 9.234375 16.796875 8.0625 
Q 21.484375 6.890625 26.703125 6.890625 
Q 35.15625 6.890625 40.078125 11.328125 
Q 45.015625 15.765625 45.015625 23.390625 
Q 45.015625 31 40.078125 35.4375 
Q 35.15625 39.890625 26.703125 39.890625 
Q 22.75 39.890625 18.8125 39.015625 
Q 14.890625 38.140625 10.796875 36.28125 
z
" id="DejaVuSans-53"/>
       </defs>
       <use xlink:href="#DejaVuSans-53"/>
       <use x="63.623047" xlink:href="#DejaVuSans-48"/>
      </g>
     </g>
    </g>
    <g id="ytick_3">
     <g id="line2d_7">
      <g>
       <use style="stroke:#000000;stroke-width:0.8;" x="33.2875" xlink:href="#m6ca187cb8e" y="55.222857"/>
      </g>
     </g>
     <g id="text_7">
      <!-- 100 -->
      <g transform="translate(7.2 59.022076)scale(0.1 -0.1)">
       <use xlink:href="#DejaVuSans-49"/>
       <use x="63.623047" xlink:href="#DejaVuSans-48"/>
       <use x="127.246094" xlink:href="#DejaVuSans-48"/>
      </g>
     </g>
    </g>
    <g id="ytick_4">
     <g id="line2d_8">
      <g>
       <use style="stroke:#000000;stroke-width:0.8;" x="33.2875" xlink:href="#m6ca187cb8e" y="23.794286"/>
      </g>
     </g>
     <g id="text_8">
      <!-- 150 -->
      <g transform="translate(7.2 27.593504)scale(0.1 -0.1)">
       <use xlink:href="#DejaVuSans-49"/>
       <use x="63.623047" xlink:href="#DejaVuSans-53"/>
       <use x="127.246094" xlink:href="#DejaVuSans-48"/>
      </g>
     </g>
    </g>
   </g>
   <g id="patch_3">
    <path clip-path="url(#pe038e8df95)" d="M 43.432955 118.08 
L 43.432955 105.508571 
L 45.462045 105.508571 
L 45.462045 106.137143 
L 47.491136 106.137143 
L 47.491136 106.765714 
L 49.520227 106.765714 
L 49.520227 97.965714 
L 51.549318 97.965714 
L 51.549318 101.108571 
L 53.578409 101.108571 
L 53.578409 102.365714 
L 55.6075 102.365714 
L 55.6075 100.48 
L 57.636591 100.48 
L 57.636591 106.137143 
L 59.665682 106.137143 
L 59.665682 99.222857 
L 61.694773 99.222857 
L 61.694773 102.994286 
L 63.723864 102.994286 
L 63.723864 101.737143 
L 65.752955 101.737143 
L 65.752955 104.251429 
L 67.782045 104.251429 
L 67.782045 101.737143 
L 69.811136 101.737143 
L 69.811136 102.365714 
L 71.840227 102.365714 
L 71.840227 102.994286 
L 73.869318 102.994286 
L 73.869318 106.137143 
L 75.898409 106.137143 
L 75.898409 101.737143 
L 77.9275 101.737143 
L 77.9275 99.222857 
L 79.956591 99.222857 
L 79.956591 104.251429 
L 81.985682 104.251429 
L 81.985682 99.851429 
L 84.014773 99.851429 
L 84.014773 104.251429 
L 86.043864 104.251429 
L 86.043864 101.737143 
L 88.072955 101.737143 
L 88.072955 103.622857 
L 90.102045 103.622857 
L 90.102045 106.137143 
L 92.131136 106.137143 
L 92.131136 101.108571 
L 94.160227 101.108571 
L 94.160227 98.594286 
L 96.189318 98.594286 
L 96.189318 106.137143 
L 98.218409 106.137143 
L 98.218409 109.908571 
L 100.2475 109.908571 
L 100.2475 97.337143 
L 102.276591 97.337143 
L 102.276591 104.88 
L 104.305682 104.88 
L 104.305682 101.737143 
L 106.334773 101.737143 
L 106.334773 99.222857 
L 108.363864 99.222857 
L 108.363864 104.88 
L 110.392955 104.88 
L 110.392955 105.508571 
L 112.422045 105.508571 
L 112.422045 97.337143 
L 114.451136 97.337143 
L 114.451136 102.994286 
L 116.480227 102.994286 
L 116.480227 102.365714 
L 118.509318 102.365714 
L 118.509318 104.88 
L 120.538409 104.88 
L 120.538409 96.708571 
L 122.5675 96.708571 
L 122.5675 101.108571 
L 124.596591 101.108571 
L 124.596591 108.022857 
L 126.625682 108.022857 
L 126.625682 104.88 
L 128.654773 104.88 
L 128.654773 104.251429 
L 130.683864 104.251429 
L 130.683864 100.48 
L 134.742045 100.48 
L 134.742045 104.88 
L 136.771136 104.88 
L 136.771136 99.851429 
L 138.800227 99.851429 
L 138.800227 97.965714 
L 140.829318 97.965714 
L 140.829318 103.622857 
L 142.858409 103.622857 
L 142.858409 101.108571 
L 144.8875 101.108571 
L 144.8875 104.88 
L 146.916591 104.88 
L 146.916591 104.251429 
L 148.945682 104.251429 
L 148.945682 104.88 
L 150.974773 104.88 
L 150.974773 108.651429 
L 153.003864 108.651429 
L 153.003864 102.365714 
L 155.032955 102.365714 
L 155.032955 101.737143 
L 157.062045 101.737143 
L 157.062045 106.765714 
L 159.091136 106.765714 
L 159.091136 102.365714 
L 161.120227 102.365714 
L 161.120227 102.994286 
L 163.149318 102.994286 
L 163.149318 100.48 
L 165.178409 100.48 
L 165.178409 108.022857 
L 167.2075 108.022857 
L 167.2075 101.737143 
L 169.236591 101.737143 
L 169.236591 104.251429 
L 171.265682 104.251429 
L 171.265682 106.765714 
L 173.294773 106.765714 
L 173.294773 101.737143 
L 175.323864 101.737143 
L 175.323864 99.851429 
L 177.352955 99.851429 
L 177.352955 102.365714 
L 179.382045 102.365714 
L 179.382045 94.822857 
L 181.411136 94.822857 
L 181.411136 104.88 
L 183.440227 104.88 
L 183.440227 102.994286 
L 185.469318 102.994286 
L 185.469318 94.194286 
L 187.498409 94.194286 
L 187.498409 96.08 
L 189.5275 96.08 
L 189.5275 87.28 
L 191.556591 87.28 
L 191.556591 81.622857 
L 193.585682 81.622857 
L 193.585682 74.708571 
L 195.614773 74.708571 
L 195.614773 65.908571 
L 197.643864 65.908571 
L 197.643864 40.765714 
L 199.672955 40.765714 
L 199.672955 39.508571 
L 201.702045 39.508571 
L 201.702045 51.451429 
L 203.731136 51.451429 
L 203.731136 33.222857 
L 205.760227 33.222857 
L 205.760227 22.537143 
L 207.789318 22.537143 
L 207.789318 12.48 
L 209.818409 12.48 
L 209.818409 14.994286 
L 211.8475 14.994286 
L 211.8475 27.565714 
L 213.876591 27.565714 
L 213.876591 37.622857 
L 217.934773 37.622857 
L 217.934773 42.022857 
L 219.963864 42.022857 
L 219.963864 54.594286 
L 221.992955 54.594286 
L 221.992955 58.365714 
L 224.022045 58.365714 
L 224.022045 70.937143 
L 226.051136 70.937143 
L 226.051136 76.594286 
L 228.080227 76.594286 
L 228.080227 88.537143 
L 230.109318 88.537143 
L 230.109318 102.994286 
L 232.138409 102.994286 
L 232.138409 105.508571 
L 234.1675 105.508571 
L 234.1675 108.651429 
L 236.196591 108.651429 
L 236.196591 110.537143 
L 238.225682 110.537143 
L 238.225682 113.68 
L 240.254773 113.68 
L 240.254773 114.308571 
L 242.283864 114.308571 
L 242.283864 116.194286 
L 244.312955 116.194286 
L 244.312955 117.451429 
L 246.342045 117.451429 
L 246.342045 118.08 
L 246.342045 118.08 
" style="fill:none;stroke:#1f77b4;stroke-linejoin:miter;"/>
   </g>
   <g id="patch_4">
    <path d="M 33.2875 118.08 
L 33.2875 7.2 
" style="fill:none;stroke:#000000;stroke-linecap:square;stroke-linejoin:miter;stroke-width:0.8;"/>
   </g>
   <g id="patch_5">
    <path d="M 256.4875 118.08 
L 256.4875 7.2 
" style="fill:none;stroke:#000000;stroke-linecap:square;stroke-linejoin:miter;stroke-width:0.8;"/>
   </g>
   <g id="patch_6">
    <path d="M 33.2875 118.08 
L 256.4875 118.08 
" style="fill:none;stroke:#000000;stroke-linecap:square;stroke-linejoin:miter;stroke-width:0.8;"/>
   </g>
   <g id="patch_7">
    <path d="M 33.2875 7.2 
L 256.4875 7.2 
" style="fill:none;stroke:#000000;stroke-linecap:square;stroke-linejoin:miter;stroke-width:0.8;"/>
   </g>
  </g>
 </g>
 <defs>
  <clipPath id="pe038e8df95">
   <rect height="110.88" width="223.2" x="33.2875" y="7.2"/>
  </clipPath>
 </defs>
</svg>
