<?xml version="1.0" encoding="utf-8" standalone="no"?>
<!DOCTYPE svg PUBLIC "-//W3C//DTD SVG 1.1//EN"
  "http://www.w3.org/Graphics/SVG/1.1/DTD/svg11.dtd">
<svg xmlns:xlink="http://www.w3.org/1999/xlink" width="258.498437pt" height="141.33pt" viewBox="0 0 258.498437 141.33" xmlns="http://www.w3.org/2000/svg" version="1.1">
 <metadata>
  <rdf:RDF xmlns:dc="http://purl.org/dc/elements/1.1/" xmlns:cc="http://creativecommons.org/ns#" xmlns:rdf="http://www.w3.org/1999/02/22-rdf-syntax-ns#">
   <cc:Work>
    <dc:type rdf:resource="http://purl.org/dc/dcmitype/StillImage"/>
    <dc:date>2024-05-29T21:37:31.649654</dc:date>
    <dc:format>image/svg+xml</dc:format>
    <dc:creator>
     <cc:Agent>
      <dc:title>Matplotlib v3.9.0, https://matplotlib.org/</dc:title>
     </cc:Agent>
    </dc:creator>
   </cc:Work>
  </rdf:RDF>
 </metadata>
 <defs>
  <style type="text/css">*{stroke-linejoin: round; stroke-linecap: butt}</style>
 </defs>
 <g id="figure_1">
  <g id="patch_1">
   <path d="M 0 141.33 
L 258.498437 141.33 
L 258.498437 0 
L 0 0 
z
" style="fill: #ffffff"/>
  </g>
  <g id="axes_1">
   <g id="patch_2">
    <path d="M 26.348438 119.83 
L 249.548437 119.83 
L 249.548437 8.95 
L 26.348438 8.95 
z
" style="fill: #ffffff"/>
   </g>
   <g id="matplotlib.axis_1">
    <g id="xtick_1">
     <g id="line2d_1">
      <defs>
       <path id="mced3db570d" d="M 0 1.75 
L 0 -1.75 
" style="stroke: #000000; stroke-width: 0.8"/>
      </defs>
      <g>
       <use xlink:href="#mced3db570d" x="36.354691" y="119.83" style="stroke: #000000; stroke-width: 0.8"/>
      </g>
     </g>
     <g id="line2d_2">
      <g>
       <use xlink:href="#mced3db570d" x="36.354691" y="8.95" style="stroke: #000000; stroke-width: 0.8"/>
      </g>
     </g>
     <g id="text_1">
      <!-- 0 -->
      <g transform="translate(33.575003 132.220625) scale(0.1 -0.1)">
       <defs>
        <path id="HelveticaNeue-Medium-30" d="M 1779 4570 
Q 2259 4570 2563 4349 
Q 2867 4128 3036 3785 
Q 3206 3443 3267 3033 
Q 3328 2624 3328 2240 
Q 3328 1856 3267 1446 
Q 3206 1037 3036 694 
Q 2867 352 2563 131 
Q 2259 -90 1779 -90 
Q 1299 -90 995 131 
Q 691 352 521 694 
Q 352 1037 291 1446 
Q 230 1856 230 2240 
Q 230 2624 291 3033 
Q 352 3443 521 3785 
Q 691 4128 995 4349 
Q 1299 4570 1779 4570 
z
M 1779 518 
Q 2016 518 2176 656 
Q 2336 794 2429 1027 
Q 2522 1261 2560 1574 
Q 2598 1888 2598 2240 
Q 2598 2592 2560 2902 
Q 2522 3213 2429 3449 
Q 2336 3686 2176 3824 
Q 2016 3962 1779 3962 
Q 1536 3962 1379 3824 
Q 1222 3686 1129 3449 
Q 1037 3213 998 2902 
Q 960 2592 960 2240 
Q 960 1888 998 1574 
Q 1037 1261 1129 1027 
Q 1222 794 1379 656 
Q 1536 518 1779 518 
z
" transform="scale(0.015625)"/>
       </defs>
       <use xlink:href="#HelveticaNeue-Medium-30"/>
      </g>
     </g>
    </g>
    <g id="xtick_2">
     <g id="line2d_3">
      <g>
       <use xlink:href="#mced3db570d" x="91.424748" y="119.83" style="stroke: #000000; stroke-width: 0.8"/>
      </g>
     </g>
     <g id="line2d_4">
      <g>
       <use xlink:href="#mced3db570d" x="91.424748" y="8.95" style="stroke: #000000; stroke-width: 0.8"/>
      </g>
     </g>
     <g id="text_2">
      <!-- 1 -->
      <g transform="translate(88.64506 132.220625) scale(0.1 -0.1)">
       <defs>
        <path id="HelveticaNeue-Medium-31" d="M 339 3738 
Q 570 3738 787 3776 
Q 1005 3814 1181 3904 
Q 1357 3994 1481 4134 
Q 1606 4275 1645 4480 
L 2240 4480 
L 2240 0 
L 1440 0 
L 1440 3162 
L 339 3162 
L 339 3738 
z
" transform="scale(0.015625)"/>
       </defs>
       <use xlink:href="#HelveticaNeue-Medium-31"/>
      </g>
     </g>
    </g>
    <g id="xtick_3">
     <g id="line2d_5">
      <g>
       <use xlink:href="#mced3db570d" x="146.494805" y="119.83" style="stroke: #000000; stroke-width: 0.8"/>
      </g>
     </g>
     <g id="line2d_6">
      <g>
       <use xlink:href="#mced3db570d" x="146.494805" y="8.95" style="stroke: #000000; stroke-width: 0.8"/>
      </g>
     </g>
     <g id="text_3">
      <!-- 2 -->
      <g transform="translate(143.715117 132.220625) scale(0.1 -0.1)">
       <defs>
        <path id="HelveticaNeue-Medium-32" d="M 3309 0 
L 250 0 
Q 256 557 518 973 
Q 781 1389 1235 1696 
Q 1453 1856 1689 2006 
Q 1926 2157 2124 2329 
Q 2323 2502 2451 2704 
Q 2579 2906 2586 3168 
Q 2586 3290 2557 3427 
Q 2528 3565 2445 3683 
Q 2362 3802 2214 3882 
Q 2067 3962 1830 3962 
Q 1613 3962 1469 3875 
Q 1325 3789 1238 3638 
Q 1152 3488 1110 3283 
Q 1069 3078 1062 2842 
L 333 2842 
Q 333 3213 432 3529 
Q 531 3846 729 4076 
Q 928 4307 1213 4438 
Q 1498 4570 1875 4570 
Q 2285 4570 2560 4435 
Q 2835 4301 3004 4096 
Q 3174 3891 3244 3651 
Q 3315 3411 3315 3194 
Q 3315 2925 3232 2707 
Q 3149 2490 3008 2307 
Q 2867 2125 2688 1971 
Q 2509 1818 2317 1683 
Q 2125 1549 1933 1427 
Q 1741 1306 1577 1184 
Q 1414 1062 1292 931 
Q 1171 800 1126 653 
L 3309 653 
L 3309 0 
z
" transform="scale(0.015625)"/>
       </defs>
       <use xlink:href="#HelveticaNeue-Medium-32"/>
      </g>
     </g>
    </g>
    <g id="xtick_4">
     <g id="line2d_7">
      <g>
       <use xlink:href="#mced3db570d" x="201.564862" y="119.83" style="stroke: #000000; stroke-width: 0.8"/>
      </g>
     </g>
     <g id="line2d_8">
      <g>
       <use xlink:href="#mced3db570d" x="201.564862" y="8.95" style="stroke: #000000; stroke-width: 0.8"/>
      </g>
     </g>
     <g id="text_4">
      <!-- 3 -->
      <g transform="translate(198.785174 132.220625) scale(0.1 -0.1)">
       <defs>
        <path id="HelveticaNeue-Medium-33" d="M 1459 2624 
Q 1638 2618 1817 2650 
Q 1997 2682 2137 2762 
Q 2278 2842 2364 2982 
Q 2451 3123 2451 3328 
Q 2451 3616 2256 3789 
Q 2061 3962 1754 3962 
Q 1562 3962 1421 3885 
Q 1280 3808 1187 3677 
Q 1094 3546 1049 3382 
Q 1005 3219 1011 3046 
L 282 3046 
Q 294 3373 403 3651 
Q 512 3930 701 4134 
Q 890 4339 1158 4454 
Q 1427 4570 1766 4570 
Q 2029 4570 2281 4493 
Q 2534 4416 2736 4269 
Q 2938 4122 3059 3894 
Q 3181 3667 3181 3373 
Q 3181 3034 3027 2781 
Q 2874 2528 2547 2413 
L 2547 2400 
Q 2931 2323 3145 2019 
Q 3360 1715 3360 1280 
Q 3360 960 3232 707 
Q 3104 454 2886 278 
Q 2669 102 2381 6 
Q 2093 -90 1773 -90 
Q 1382 -90 1091 22 
Q 800 134 605 339 
Q 410 544 307 832 
Q 205 1120 198 1472 
L 928 1472 
Q 915 1062 1129 790 
Q 1344 518 1773 518 
Q 2138 518 2384 726 
Q 2630 934 2630 1318 
Q 2630 1581 2528 1734 
Q 2426 1888 2259 1968 
Q 2093 2048 1885 2067 
Q 1677 2086 1459 2080 
L 1459 2624 
z
" transform="scale(0.015625)"/>
       </defs>
       <use xlink:href="#HelveticaNeue-Medium-33"/>
      </g>
     </g>
    </g>
   </g>
   <g id="matplotlib.axis_2">
    <g id="ytick_1">
     <g id="line2d_9">
      <defs>
       <path id="m3359a49ede" d="M 1.75 0 
L -1.75 -0 
" style="stroke: #000000; stroke-width: 0.8"/>
      </defs>
      <g>
       <use xlink:href="#m3359a49ede" x="26.348438" y="119.83" style="stroke: #000000; stroke-width: 0.8"/>
      </g>
     </g>
     <g id="line2d_10">
      <g>
       <use xlink:href="#m3359a49ede" x="249.548437" y="119.83" style="stroke: #000000; stroke-width: 0.8"/>
      </g>
     </g>
     <g id="text_5">
      <!-- 0.0 -->
      <g transform="translate(7.2 123.400312) scale(0.1 -0.1)">
       <defs>
        <path id="HelveticaNeue-Medium-2e" d="M 442 864 
L 1331 864 
L 1331 0 
L 442 0 
L 442 864 
z
" transform="scale(0.015625)"/>
       </defs>
       <use xlink:href="#HelveticaNeue-Medium-30"/>
       <use xlink:href="#HelveticaNeue-Medium-2e" x="55.599991"/>
       <use xlink:href="#HelveticaNeue-Medium-30" x="83.399979"/>
      </g>
     </g>
    </g>
    <g id="ytick_2">
     <g id="line2d_11">
      <g>
       <use xlink:href="#m3359a49ede" x="26.348438" y="76.527874" style="stroke: #000000; stroke-width: 0.8"/>
      </g>
     </g>
     <g id="line2d_12">
      <g>
       <use xlink:href="#m3359a49ede" x="249.548437" y="76.527874" style="stroke: #000000; stroke-width: 0.8"/>
      </g>
     </g>
     <g id="text_6">
      <!-- 0.5 -->
      <g transform="translate(7.2 80.098186) scale(0.1 -0.1)">
       <defs>
        <path id="HelveticaNeue-Medium-35" d="M 787 4480 
L 3104 4480 
L 3104 3827 
L 1331 3827 
L 1101 2688 
L 1114 2675 
Q 1261 2842 1488 2928 
Q 1715 3014 1939 3014 
Q 2272 3014 2534 2902 
Q 2797 2790 2976 2588 
Q 3155 2387 3248 2112 
Q 3341 1837 3341 1517 
Q 3341 1248 3254 963 
Q 3168 678 2979 444 
Q 2790 211 2496 60 
Q 2202 -90 1792 -90 
Q 1466 -90 1187 -3 
Q 909 83 697 256 
Q 486 429 361 681 
Q 237 934 224 1274 
L 954 1274 
Q 986 909 1203 713 
Q 1421 518 1779 518 
Q 2010 518 2170 595 
Q 2330 672 2429 806 
Q 2528 941 2569 1120 
Q 2611 1299 2611 1504 
Q 2611 1690 2560 1859 
Q 2509 2029 2406 2157 
Q 2304 2285 2141 2361 
Q 1978 2438 1760 2438 
Q 1530 2438 1328 2352 
Q 1126 2266 1037 2029 
L 307 2029 
L 787 4480 
z
" transform="scale(0.015625)"/>
       </defs>
       <use xlink:href="#HelveticaNeue-Medium-30"/>
       <use xlink:href="#HelveticaNeue-Medium-2e" x="55.599991"/>
       <use xlink:href="#HelveticaNeue-Medium-35" x="83.399979"/>
      </g>
     </g>
    </g>
    <g id="ytick_3">
     <g id="line2d_13">
      <g>
       <use xlink:href="#m3359a49ede" x="26.348438" y="33.225747" style="stroke: #000000; stroke-width: 0.8"/>
      </g>
     </g>
     <g id="line2d_14">
      <g>
       <use xlink:href="#m3359a49ede" x="249.548437" y="33.225747" style="stroke: #000000; stroke-width: 0.8"/>
      </g>
     </g>
     <g id="text_7">
      <!-- 1.0 -->
      <g transform="translate(7.2 36.79606) scale(0.1 -0.1)">
       <use xlink:href="#HelveticaNeue-Medium-31"/>
       <use xlink:href="#HelveticaNeue-Medium-2e" x="55.599991"/>
       <use xlink:href="#HelveticaNeue-Medium-30" x="83.399979"/>
      </g>
     </g>
    </g>
   </g>
   <g id="patch_3">
    <path d="M 36.493892 119.83 
L 36.493892 107.490074 
L 38.522983 107.490074 
L 38.522983 102.201535 
L 40.552074 102.201535 
L 40.552074 107.490074 
L 42.581165 107.490074 
L 42.581165 102.201535 
L 44.610256 102.201535 
L 44.610256 109.840536 
L 46.639347 109.840536 
L 46.639347 101.613919 
L 48.668438 101.613919 
L 48.668438 107.490074 
L 50.697528 107.490074 
L 50.697528 101.026304 
L 52.726619 101.026304 
L 52.726619 107.490074 
L 54.75571 107.490074 
L 54.75571 105.727228 
L 56.784801 105.727228 
L 56.784801 106.902459 
L 58.813892 106.902459 
L 58.813892 105.727228 
L 60.842983 105.727228 
L 60.842983 104.551997 
L 62.872074 104.551997 
L 62.872074 111.603383 
L 64.901165 111.603383 
L 64.901165 104.551997 
L 66.930256 104.551997 
L 66.930256 102.201535 
L 68.959347 102.201535 
L 68.959347 104.551997 
L 70.988438 104.551997 
L 70.988438 105.139612 
L 73.017528 105.139612 
L 73.017528 109.252921 
L 75.046619 109.252921 
L 75.046619 101.026304 
L 77.07571 101.026304 
L 77.07571 105.727228 
L 79.104801 105.727228 
L 79.104801 97.500611 
L 81.133892 97.500611 
L 81.133892 103.964381 
L 83.162983 103.964381 
L 83.162983 108.665305 
L 85.192074 108.665305 
L 85.192074 103.376766 
L 87.221165 103.376766 
L 87.221165 108.665305 
L 91.279347 108.665305 
L 91.279347 103.964381 
L 95.337528 103.964381 
L 95.337528 102.201535 
L 97.366619 102.201535 
L 97.366619 94.562533 
L 99.39571 94.562533 
L 99.39571 103.376766 
L 101.424801 103.376766 
L 101.424801 105.139612 
L 103.453892 105.139612 
L 103.453892 103.964381 
L 105.482983 103.964381 
L 105.482983 108.665305 
L 107.512074 108.665305 
L 107.512074 107.490074 
L 109.541165 107.490074 
L 109.541165 103.376766 
L 111.570256 103.376766 
L 111.570256 107.490074 
L 113.599347 107.490074 
L 113.599347 102.78915 
L 115.628438 102.78915 
L 115.628438 104.551997 
L 117.657528 104.551997 
L 117.657528 102.78915 
L 119.686619 102.78915 
L 119.686619 103.376766 
L 121.71571 103.376766 
L 121.71571 109.252921 
L 123.744801 109.252921 
L 123.744801 108.07769 
L 125.773892 108.07769 
L 125.773892 102.78915 
L 127.802983 102.78915 
L 127.802983 103.964381 
L 129.832074 103.964381 
L 129.832074 110.428152 
L 131.861165 110.428152 
L 131.861165 102.78915 
L 135.919347 102.78915 
L 135.919347 105.727228 
L 137.948438 105.727228 
L 137.948438 106.902459 
L 139.977528 106.902459 
L 139.977528 104.551997 
L 142.006619 104.551997 
L 142.006619 107.490074 
L 144.03571 107.490074 
L 144.03571 101.613919 
L 146.064801 101.613919 
L 146.064801 107.490074 
L 148.093892 107.490074 
L 148.093892 108.665305 
L 150.122983 108.665305 
L 150.122983 110.428152 
L 152.152074 110.428152 
L 152.152074 105.139612 
L 156.210256 105.139612 
L 156.210256 105.727228 
L 158.239347 105.727228 
L 158.239347 103.964381 
L 160.268438 103.964381 
L 160.268438 103.376766 
L 162.297528 103.376766 
L 162.297528 106.314843 
L 164.326619 106.314843 
L 164.326619 105.727228 
L 166.35571 105.727228 
L 166.35571 108.665305 
L 168.384801 108.665305 
L 168.384801 102.201535 
L 170.413892 102.201535 
L 170.413892 105.727228 
L 172.442983 105.727228 
L 172.442983 105.139612 
L 174.472074 105.139612 
L 174.472074 102.201535 
L 176.501165 102.201535 
L 176.501165 103.376766 
L 178.530256 103.376766 
L 178.530256 96.32538 
L 180.559347 96.32538 
L 180.559347 82.810223 
L 182.588437 82.810223 
L 182.588437 91.03684 
L 184.617528 91.03684 
L 184.617528 68.119835 
L 186.646619 68.119835 
L 186.646619 75.171221 
L 188.67571 75.171221 
L 188.67571 51.666601 
L 190.704801 51.666601 
L 190.704801 46.965677 
L 192.733892 46.965677 
L 192.733892 25.811519 
L 194.762983 25.811519 
L 194.762983 32.275289 
L 196.792074 32.275289 
L 196.792074 31.687674 
L 198.821165 31.687674 
L 198.821165 32.862905 
L 200.850256 32.862905 
L 200.850256 35.800982 
L 202.879347 35.800982 
L 202.879347 41.089522 
L 204.908437 41.089522 
L 204.908437 42.852368 
L 206.937528 42.852368 
L 206.937528 39.914291 
L 208.966619 39.914291 
L 208.966619 48.728523 
L 210.99571 48.728523 
L 210.99571 56.367525 
L 213.024801 56.367525 
L 213.024801 66.944604 
L 215.053892 66.944604 
L 215.053892 86.335916 
L 217.082983 86.335916 
L 217.082983 94.562533 
L 219.112074 94.562533 
L 219.112074 92.799687 
L 221.141165 92.799687 
L 221.141165 102.201535 
L 223.170256 102.201535 
L 223.170256 113.366229 
L 225.199347 113.366229 
L 225.199347 113.953845 
L 227.228437 113.953845 
L 227.228437 115.129076 
L 229.257528 115.129076 
L 229.257528 116.304307 
L 231.286619 116.304307 
L 231.286619 116.891922 
L 233.31571 116.891922 
L 233.31571 118.654769 
L 237.373892 118.654769 
L 237.373892 119.242384 
L 239.402983 119.242384 
L 239.402983 119.83 
L 239.402983 119.83 
" clip-path="url(#p3846e8dcab)" style="fill: none; stroke: #008fd5; stroke-linejoin: miter"/>
   </g>
   <g id="patch_4">
    <path d="M 37.508437 119.83 
L 37.508437 88.63 
L 39.495646 88.63 
L 39.495646 100.63 
L 41.482855 100.63 
L 41.482855 103.03 
L 43.470064 103.03 
L 43.470064 107.83 
L 45.457273 107.83 
L 45.457273 98.23 
L 47.444482 98.23 
L 47.444482 100.63 
L 49.43169 100.63 
L 49.43169 86.23 
L 51.418899 86.23 
L 51.418899 105.43 
L 53.406108 105.43 
L 53.406108 98.23 
L 55.393317 98.23 
L 55.393317 115.03 
L 57.380526 115.03 
L 57.380526 105.43 
L 59.367734 105.43 
L 59.367734 110.23 
L 61.354943 110.23 
L 61.354943 115.03 
L 63.342152 115.03 
L 63.342152 105.43 
L 65.329361 105.43 
L 65.329361 98.23 
L 67.31657 98.23 
L 67.31657 110.23 
L 69.303778 110.23 
L 69.303778 95.83 
L 71.290987 95.83 
L 71.290987 115.03 
L 73.278196 115.03 
L 73.278196 98.23 
L 75.265405 98.23 
L 75.265405 105.43 
L 77.252614 105.43 
L 77.252614 103.03 
L 79.239823 103.03 
L 79.239823 93.43 
L 81.227031 93.43 
L 81.227031 103.03 
L 83.21424 103.03 
L 83.21424 112.63 
L 85.201449 112.63 
L 85.201449 110.23 
L 87.188658 110.23 
L 87.188658 112.63 
L 89.175867 112.63 
L 89.175867 115.03 
L 91.163075 115.03 
L 91.163075 107.83 
L 95.137493 107.83 
L 95.137493 103.03 
L 97.124702 103.03 
L 97.124702 83.83 
L 99.111911 83.83 
L 99.111911 103.03 
L 103.086328 103.03 
L 103.086328 105.43 
L 105.073537 105.43 
L 105.073537 115.03 
L 107.060746 115.03 
L 107.060746 105.43 
L 109.047955 105.43 
L 109.047955 107.83 
L 113.022372 107.83 
L 113.022372 100.63 
L 115.009581 100.63 
L 115.009581 107.83 
L 116.99679 107.83 
L 116.99679 86.23 
L 118.983999 86.23 
L 118.983999 105.43 
L 120.971208 105.43 
L 120.971208 103.03 
L 124.945625 103.03 
L 124.945625 110.23 
L 128.920043 110.23 
L 128.920043 107.83 
L 132.89446 107.83 
L 132.89446 110.23 
L 134.881669 110.23 
L 134.881669 103.03 
L 136.868878 103.03 
L 136.868878 110.23 
L 140.843296 110.23 
L 140.843296 105.43 
L 142.830504 105.43 
L 142.830504 100.63 
L 144.817713 100.63 
L 144.817713 110.23 
L 148.792131 110.23 
L 148.792131 105.43 
L 150.77934 105.43 
L 150.77934 100.63 
L 152.766549 100.63 
L 152.766549 110.23 
L 156.740966 110.23 
L 156.740966 95.83 
L 160.715384 95.83 
L 160.715384 100.63 
L 162.702593 100.63 
L 162.702593 115.03 
L 166.67701 115.03 
L 166.67701 103.03 
L 170.651428 103.03 
L 170.651428 110.23 
L 172.638637 110.23 
L 172.638637 103.03 
L 176.613054 103.03 
L 176.613054 98.23 
L 178.600263 98.23 
L 178.600263 86.23 
L 180.587472 86.23 
L 180.587472 95.83 
L 182.574681 95.83 
L 182.574681 86.23 
L 184.56189 86.23 
L 184.56189 67.03 
L 186.549098 67.03 
L 186.549098 71.83 
L 188.536307 71.83 
L 188.536307 76.63 
L 190.523516 76.63 
L 190.523516 45.43 
L 192.510725 45.43 
L 192.510725 14.23 
L 194.497934 14.23 
L 194.497934 19.03 
L 196.485142 19.03 
L 196.485142 21.43 
L 198.472351 21.43 
L 198.472351 35.83 
L 200.45956 35.83 
L 200.45956 38.23 
L 202.446769 38.23 
L 202.446769 35.83 
L 206.421186 35.83 
L 206.421186 43.03 
L 208.408395 43.03 
L 208.408395 47.83 
L 210.395604 47.83 
L 210.395604 59.83 
L 212.382813 59.83 
L 212.382813 76.63 
L 214.370022 76.63 
L 214.370022 95.83 
L 216.35723 95.83 
L 216.35723 83.83 
L 218.344439 83.83 
L 218.344439 100.63 
L 220.331648 100.63 
L 220.331648 103.03 
L 222.318857 103.03 
L 222.318857 112.63 
L 224.306066 112.63 
L 224.306066 115.03 
L 226.293275 115.03 
L 226.293275 107.83 
L 228.280483 107.83 
L 228.280483 119.83 
L 230.267692 119.83 
L 230.267692 117.43 
L 232.254901 117.43 
L 232.254901 119.83 
L 234.24211 119.83 
L 234.24211 115.03 
L 236.229319 115.03 
L 236.229319 119.83 
L 236.229319 119.83 
" clip-path="url(#p3846e8dcab)" style="fill: none; stroke: #fc4f30; stroke-linejoin: miter"/>
   </g>
   <g id="patch_5">
    <path d="M 26.348438 119.83 
L 26.348438 8.95 
" style="fill: none; stroke: #000000; stroke-width: 0.8; stroke-linejoin: miter; stroke-linecap: square"/>
   </g>
   <g id="patch_6">
    <path d="M 249.548437 119.83 
L 249.548437 8.95 
" style="fill: none; stroke: #000000; stroke-width: 0.8; stroke-linejoin: miter; stroke-linecap: square"/>
   </g>
   <g id="patch_7">
    <path d="M 26.348438 119.83 
L 249.548437 119.83 
" style="fill: none; stroke: #000000; stroke-width: 0.8; stroke-linejoin: miter; stroke-linecap: square"/>
   </g>
   <g id="patch_8">
    <path d="M 26.348438 8.95 
L 249.548437 8.95 
" style="fill: none; stroke: #000000; stroke-width: 0.8; stroke-linejoin: miter; stroke-linecap: square"/>
   </g>
  </g>
 </g>
 <defs>
  <clipPath id="p3846e8dcab">
   <rect x="26.348438" y="8.95" width="223.2" height="110.88"/>
  </clipPath>
 </defs>
</svg>
