<?xml version="1.0" encoding="utf-8" standalone="no"?>
<!DOCTYPE svg PUBLIC "-//W3C//DTD SVG 1.1//EN"
  "http://www.w3.org/Graphics/SVG/1.1/DTD/svg11.dtd">
<svg xmlns:xlink="http://www.w3.org/1999/xlink" width="258.498437pt" height="141.33pt" viewBox="0 0 258.498437 141.33" xmlns="http://www.w3.org/2000/svg" version="1.1">
 <metadata>
  <rdf:RDF xmlns:dc="http://purl.org/dc/elements/1.1/" xmlns:cc="http://creativecommons.org/ns#" xmlns:rdf="http://www.w3.org/1999/02/22-rdf-syntax-ns#">
   <cc:Work>
    <dc:type rdf:resource="http://purl.org/dc/dcmitype/StillImage"/>
    <dc:date>2022-09-09T10:12:24.517415</dc:date>
    <dc:format>image/svg+xml</dc:format>
    <dc:creator>
     <cc:Agent>
      <dc:title>Matplotlib v3.5.1, https://matplotlib.org/</dc:title>
     </cc:Agent>
    </dc:creator>
   </cc:Work>
  </rdf:RDF>
 </metadata>
 <defs>
  <style type="text/css">*{stroke-linejoin: round; stroke-linecap: butt}</style>
 </defs>
 <g id="figure_1">
  <g id="patch_1">
   <path d="M 0 141.33 
L 258.498437 141.33 
L 258.498437 0 
L 0 0 
z
" style="fill: #ffffff"/>
  </g>
  <g id="axes_1">
   <g id="patch_2">
    <path d="M 26.348438 119.83 
L 249.548437 119.83 
L 249.548437 8.95 
L 26.348438 8.95 
z
" style="fill: #ffffff"/>
   </g>
   <g id="matplotlib.axis_1">
    <g id="xtick_1">
     <g id="line2d_1">
      <defs>
       <path id="m194288c355" d="M 0 1.75 
L 0 -1.75 
" style="stroke: #000000; stroke-width: 0.8"/>
      </defs>
      <g>
       <use xlink:href="#m194288c355" x="36.490023" y="119.83" style="stroke: #000000; stroke-width: 0.8"/>
      </g>
     </g>
     <g id="line2d_2">
      <g>
       <use xlink:href="#m194288c355" x="36.490023" y="8.95" style="stroke: #000000; stroke-width: 0.8"/>
      </g>
     </g>
     <g id="text_1">
      <!-- 0 -->
      <g transform="translate(33.710335 132.220625)scale(0.1 -0.1)">
       <defs>
        <path id="HelveticaNeue-Medium-30" d="M 1779 518 
C 1139 518 960 1306 960 2240 
C 960 3174 1139 3962 1779 3962 
C 2419 3962 2598 3174 2598 2240 
C 2598 1306 2419 518 1779 518 
z
M 1779 4570 
C 493 4570 230 3258 230 2240 
C 230 1222 493 -90 1779 -90 
C 3066 -90 3328 1222 3328 2240 
C 3328 3258 3066 4570 1779 4570 
z
" transform="scale(0.015625)"/>
       </defs>
       <use xlink:href="#HelveticaNeue-Medium-30"/>
      </g>
     </g>
    </g>
    <g id="xtick_2">
     <g id="line2d_3">
      <g>
       <use xlink:href="#m194288c355" x="91.448942" y="119.83" style="stroke: #000000; stroke-width: 0.8"/>
      </g>
     </g>
     <g id="line2d_4">
      <g>
       <use xlink:href="#m194288c355" x="91.448942" y="8.95" style="stroke: #000000; stroke-width: 0.8"/>
      </g>
     </g>
     <g id="text_2">
      <!-- 1 -->
      <g transform="translate(88.669255 132.220625)scale(0.1 -0.1)">
       <defs>
        <path id="HelveticaNeue-Medium-31" d="M 339 3162 
L 1440 3162 
L 1440 0 
L 2240 0 
L 2240 4480 
L 1645 4480 
C 1536 3942 954 3731 339 3738 
L 339 3162 
z
" transform="scale(0.015625)"/>
       </defs>
       <use xlink:href="#HelveticaNeue-Medium-31"/>
      </g>
     </g>
    </g>
    <g id="xtick_3">
     <g id="line2d_5">
      <g>
       <use xlink:href="#m194288c355" x="146.407862" y="119.83" style="stroke: #000000; stroke-width: 0.8"/>
      </g>
     </g>
     <g id="line2d_6">
      <g>
       <use xlink:href="#m194288c355" x="146.407862" y="8.95" style="stroke: #000000; stroke-width: 0.8"/>
      </g>
     </g>
     <g id="text_3">
      <!-- 2 -->
      <g transform="translate(143.628174 132.220625)scale(0.1 -0.1)">
       <defs>
        <path id="HelveticaNeue-Medium-32" d="M 3309 653 
L 1126 653 
C 1254 1050 1798 1325 2317 1683 
C 2829 2042 3315 2483 3315 3194 
C 3315 3770 2970 4570 1875 4570 
C 877 4570 333 3834 333 2842 
L 1062 2842 
C 1082 3469 1254 3962 1830 3962 
C 2458 3962 2592 3488 2586 3168 
C 2573 2470 1818 2118 1235 1696 
C 634 1293 256 736 250 0 
L 3309 0 
L 3309 653 
z
" transform="scale(0.015625)"/>
       </defs>
       <use xlink:href="#HelveticaNeue-Medium-32"/>
      </g>
     </g>
    </g>
    <g id="xtick_4">
     <g id="line2d_7">
      <g>
       <use xlink:href="#m194288c355" x="201.366781" y="119.83" style="stroke: #000000; stroke-width: 0.8"/>
      </g>
     </g>
     <g id="line2d_8">
      <g>
       <use xlink:href="#m194288c355" x="201.366781" y="8.95" style="stroke: #000000; stroke-width: 0.8"/>
      </g>
     </g>
     <g id="text_4">
      <!-- 3 -->
      <g transform="translate(198.587094 132.220625)scale(0.1 -0.1)">
       <defs>
        <path id="HelveticaNeue-Medium-33" d="M 1459 2080 
C 2035 2106 2630 2016 2630 1318 
C 2630 806 2259 518 1773 518 
C 1203 518 909 928 928 1472 
L 198 1472 
C 218 538 736 -90 1773 -90 
C 2630 -90 3360 435 3360 1280 
C 3360 1856 3053 2298 2547 2400 
L 2547 2413 
C 2976 2566 3181 2925 3181 3373 
C 3181 4166 2464 4570 1766 4570 
C 864 4570 320 3917 282 3046 
L 1011 3046 
C 998 3507 1248 3962 1754 3962 
C 2157 3962 2451 3706 2451 3328 
C 2451 2778 1946 2605 1459 2624 
L 1459 2080 
z
" transform="scale(0.015625)"/>
       </defs>
       <use xlink:href="#HelveticaNeue-Medium-33"/>
      </g>
     </g>
    </g>
   </g>
   <g id="matplotlib.axis_2">
    <g id="ytick_1">
     <g id="line2d_9">
      <defs>
       <path id="m2a016e72d6" d="M 1.75 0 
L -1.75 -0 
" style="stroke: #000000; stroke-width: 0.8"/>
      </defs>
      <g>
       <use xlink:href="#m2a016e72d6" x="26.348438" y="119.83" style="stroke: #000000; stroke-width: 0.8"/>
      </g>
     </g>
     <g id="line2d_10">
      <g>
       <use xlink:href="#m2a016e72d6" x="249.548437" y="119.83" style="stroke: #000000; stroke-width: 0.8"/>
      </g>
     </g>
     <g id="text_5">
      <!-- 0.0 -->
      <g transform="translate(7.2 123.400312)scale(0.1 -0.1)">
       <defs>
        <path id="HelveticaNeue-Medium-2e" d="M 442 0 
L 1331 0 
L 1331 864 
L 442 864 
L 442 0 
z
" transform="scale(0.015625)"/>
       </defs>
       <use xlink:href="#HelveticaNeue-Medium-30"/>
       <use xlink:href="#HelveticaNeue-Medium-2e" x="55.599991"/>
       <use xlink:href="#HelveticaNeue-Medium-30" x="83.399979"/>
      </g>
     </g>
    </g>
    <g id="ytick_2">
     <g id="line2d_11">
      <g>
       <use xlink:href="#m2a016e72d6" x="26.348438" y="84.571262" style="stroke: #000000; stroke-width: 0.8"/>
      </g>
     </g>
     <g id="line2d_12">
      <g>
       <use xlink:href="#m2a016e72d6" x="249.548437" y="84.571262" style="stroke: #000000; stroke-width: 0.8"/>
      </g>
     </g>
     <g id="text_6">
      <!-- 0.5 -->
      <g transform="translate(7.2 88.141575)scale(0.1 -0.1)">
       <defs>
        <path id="HelveticaNeue-Medium-35" d="M 307 2029 
L 1037 2029 
C 1152 2342 1453 2438 1760 2438 
C 2349 2438 2611 1997 2611 1504 
C 2611 960 2400 518 1779 518 
C 1306 518 998 794 954 1274 
L 224 1274 
C 256 378 928 -90 1792 -90 
C 2893 -90 3341 800 3341 1517 
C 3341 2374 2829 3014 1939 3014 
C 1638 3014 1312 2893 1114 2675 
L 1101 2688 
L 1331 3827 
L 3104 3827 
L 3104 4480 
L 787 4480 
L 307 2029 
z
" transform="scale(0.015625)"/>
       </defs>
       <use xlink:href="#HelveticaNeue-Medium-30"/>
       <use xlink:href="#HelveticaNeue-Medium-2e" x="55.599991"/>
       <use xlink:href="#HelveticaNeue-Medium-35" x="83.399979"/>
      </g>
     </g>
    </g>
    <g id="ytick_3">
     <g id="line2d_13">
      <g>
       <use xlink:href="#m2a016e72d6" x="26.348438" y="49.312524" style="stroke: #000000; stroke-width: 0.8"/>
      </g>
     </g>
     <g id="line2d_14">
      <g>
       <use xlink:href="#m2a016e72d6" x="249.548437" y="49.312524" style="stroke: #000000; stroke-width: 0.8"/>
      </g>
     </g>
     <g id="text_7">
      <!-- 1.0 -->
      <g transform="translate(7.2 52.882837)scale(0.1 -0.1)">
       <use xlink:href="#HelveticaNeue-Medium-31"/>
       <use xlink:href="#HelveticaNeue-Medium-2e" x="55.599991"/>
       <use xlink:href="#HelveticaNeue-Medium-30" x="83.399979"/>
      </g>
     </g>
    </g>
    <g id="ytick_4">
     <g id="line2d_15">
      <g>
       <use xlink:href="#m2a016e72d6" x="26.348438" y="14.053786" style="stroke: #000000; stroke-width: 0.8"/>
      </g>
     </g>
     <g id="line2d_16">
      <g>
       <use xlink:href="#m2a016e72d6" x="249.548437" y="14.053786" style="stroke: #000000; stroke-width: 0.8"/>
      </g>
     </g>
     <g id="text_8">
      <!-- 1.5 -->
      <g transform="translate(7.2 17.624099)scale(0.1 -0.1)">
       <use xlink:href="#HelveticaNeue-Medium-31"/>
       <use xlink:href="#HelveticaNeue-Medium-2e" x="55.599991"/>
       <use xlink:href="#HelveticaNeue-Medium-35" x="83.399979"/>
      </g>
     </g>
    </g>
   </g>
   <g id="patch_3">
    <path d="M 36.493892 119.83 
L 36.493892 105.504998 
L 38.522983 105.504998 
L 38.522983 109.802498 
L 42.581165 109.802498 
L 42.581165 108.847498 
L 44.610256 108.847498 
L 44.610256 106.459998 
L 46.639347 106.459998 
L 46.639347 108.369998 
L 48.668437 108.369998 
L 48.668437 107.414998 
L 50.697528 107.414998 
L 50.697528 107.892498 
L 52.726619 107.892498 
L 52.726619 106.937498 
L 54.75571 106.937498 
L 54.75571 107.892498 
L 56.784801 107.892498 
L 56.784801 114.577499 
L 58.813892 114.577499 
L 58.813892 109.802498 
L 60.842983 109.802498 
L 60.842983 107.414998 
L 62.872074 107.414998 
L 62.872074 105.027498 
L 64.901165 105.027498 
L 64.901165 107.414998 
L 66.930256 107.414998 
L 66.930256 105.982498 
L 68.959347 105.982498 
L 68.959347 105.027498 
L 70.988438 105.027498 
L 70.988438 108.369998 
L 73.017528 108.369998 
L 73.017528 106.937498 
L 75.046619 106.937498 
L 75.046619 108.847498 
L 77.07571 108.847498 
L 77.07571 109.324998 
L 79.104801 109.324998 
L 79.104801 110.279998 
L 81.133892 110.279998 
L 81.133892 109.324998 
L 83.162983 109.324998 
L 83.162983 103.117497 
L 85.192074 103.117497 
L 85.192074 105.504998 
L 87.221165 105.504998 
L 87.221165 105.027498 
L 89.250256 105.027498 
L 89.250256 108.369998 
L 91.279347 108.369998 
L 91.279347 105.504998 
L 93.308437 105.504998 
L 93.308437 109.802498 
L 95.337528 109.802498 
L 95.337528 108.847498 
L 97.366619 108.847498 
L 97.366619 104.549997 
L 99.39571 104.549997 
L 99.39571 109.802498 
L 101.424801 109.802498 
L 101.424801 107.892498 
L 103.453892 107.892498 
L 103.453892 109.802498 
L 105.482983 109.802498 
L 105.482983 109.324998 
L 107.512074 109.324998 
L 107.512074 105.982498 
L 109.541165 105.982498 
L 109.541165 108.369998 
L 111.570256 108.369998 
L 111.570256 109.324998 
L 113.599347 109.324998 
L 113.599347 106.937498 
L 115.628437 106.937498 
L 115.628437 109.802498 
L 117.657528 109.802498 
L 117.657528 110.757499 
L 119.686619 110.757499 
L 119.686619 110.279998 
L 121.71571 110.279998 
L 121.71571 105.982498 
L 123.744801 105.982498 
L 123.744801 106.937498 
L 125.773892 106.937498 
L 125.773892 110.757499 
L 127.802983 110.757499 
L 127.802983 107.414998 
L 129.832074 107.414998 
L 129.832074 106.459998 
L 131.861165 106.459998 
L 131.861165 107.414998 
L 133.890256 107.414998 
L 133.890256 106.459998 
L 135.919347 106.459998 
L 135.919347 108.847498 
L 137.948437 108.847498 
L 137.948437 109.324998 
L 139.977528 109.324998 
L 139.977528 107.414998 
L 142.006619 107.414998 
L 142.006619 108.847498 
L 144.03571 108.847498 
L 144.03571 111.712499 
L 146.064801 111.712499 
L 146.064801 109.802498 
L 148.093892 109.802498 
L 148.093892 103.117497 
L 150.122983 103.117497 
L 150.122983 106.937498 
L 152.152074 106.937498 
L 152.152074 106.459998 
L 154.181165 106.459998 
L 154.181165 111.234999 
L 156.210256 111.234999 
L 156.210256 107.892498 
L 158.239347 107.892498 
L 158.239347 108.369998 
L 162.297528 108.369998 
L 162.297528 110.279998 
L 164.326619 110.279998 
L 164.326619 109.324998 
L 166.35571 109.324998 
L 166.35571 108.847498 
L 168.384801 108.847498 
L 168.384801 109.324998 
L 170.413892 109.324998 
L 170.413892 108.847498 
L 172.442983 108.847498 
L 172.442983 104.549997 
L 174.472074 104.549997 
L 174.472074 105.982498 
L 176.501165 105.982498 
L 176.501165 96.909996 
L 178.530256 96.909996 
L 178.530256 95.954996 
L 180.559347 95.954996 
L 180.559347 92.612496 
L 182.588437 92.612496 
L 182.588437 86.404994 
L 184.617528 86.404994 
L 184.617528 84.494994 
L 186.646619 84.494994 
L 186.646619 77.809993 
L 188.67571 77.809993 
L 188.67571 69.692492 
L 190.704801 69.692492 
L 190.704801 60.14249 
L 192.733892 60.14249 
L 192.733892 56.32249 
L 194.762983 56.32249 
L 194.762983 50.114988 
L 196.792074 50.114988 
L 196.792074 29.104985 
L 198.821165 29.104985 
L 198.821165 30.059985 
L 200.850256 30.059985 
L 200.850256 50.114988 
L 202.879347 50.114988 
L 202.879347 51.547489 
L 204.908437 51.547489 
L 204.908437 60.14249 
L 206.937528 60.14249 
L 206.937528 56.32249 
L 208.966619 56.32249 
L 208.966619 75.422493 
L 210.99571 75.422493 
L 210.99571 71.124992 
L 213.024801 71.124992 
L 213.024801 81.152494 
L 215.053892 81.152494 
L 215.053892 94.999996 
L 217.082983 94.999996 
L 217.082983 99.297497 
L 219.112074 99.297497 
L 219.112074 103.117497 
L 221.141165 103.117497 
L 221.141165 108.847498 
L 223.170256 108.847498 
L 223.170256 112.189999 
L 225.199347 112.189999 
L 225.199347 115.054999 
L 227.228437 115.054999 
L 227.228437 116.487499 
L 229.257528 116.487499 
L 229.257528 117.92 
L 231.286619 117.92 
L 231.286619 117.4425 
L 233.31571 117.4425 
L 233.31571 119.83 
L 237.373892 119.83 
L 237.373892 119.3525 
L 239.402983 119.3525 
L 239.402983 119.83 
L 239.402983 119.83 
" clip-path="url(#p9e7f2cb9ee)" style="fill: none; stroke: #008fd5; stroke-linejoin: miter"/>
   </g>
   <g id="patch_4">
    <path d="M 37.508437 119.83 
L 37.508437 95.920566 
L 39.45356 95.920566 
L 39.45356 101.897925 
L 41.398682 101.897925 
L 41.398682 103.890377 
L 43.343804 103.890377 
L 43.343804 113.852642 
L 45.288926 113.852642 
L 45.288926 109.867736 
L 47.234049 109.867736 
L 47.234049 107.875283 
L 49.179171 107.875283 
L 49.179171 111.860189 
L 51.124293 111.860189 
L 51.124293 105.88283 
L 53.069415 105.88283 
L 53.069415 101.897925 
L 55.014537 101.897925 
L 55.014537 113.852642 
L 56.95966 113.852642 
L 56.95966 109.867736 
L 58.904782 109.867736 
L 58.904782 117.837547 
L 60.849904 117.837547 
L 60.849904 101.897925 
L 64.740149 101.897925 
L 64.740149 99.905472 
L 66.685271 99.905472 
L 66.685271 95.920566 
L 68.630393 95.920566 
L 68.630393 99.905472 
L 70.575515 99.905472 
L 70.575515 105.88283 
L 72.520637 105.88283 
L 72.520637 107.875283 
L 76.410882 107.875283 
L 76.410882 105.88283 
L 78.356004 105.88283 
L 78.356004 109.867736 
L 80.301126 109.867736 
L 80.301126 105.88283 
L 82.246249 105.88283 
L 82.246249 103.890377 
L 84.191371 103.890377 
L 84.191371 113.852642 
L 86.136493 113.852642 
L 86.136493 103.890377 
L 88.081615 103.890377 
L 88.081615 95.920566 
L 91.97186 95.920566 
L 91.97186 105.88283 
L 93.916982 105.88283 
L 93.916982 113.852642 
L 95.862104 113.852642 
L 95.862104 109.867736 
L 97.807226 109.867736 
L 97.807226 105.88283 
L 99.752349 105.88283 
L 99.752349 113.852642 
L 101.697471 113.852642 
L 101.697471 115.845094 
L 103.642593 115.845094 
L 103.642593 109.867736 
L 105.587715 109.867736 
L 105.587715 103.890377 
L 107.532837 103.890377 
L 107.532837 99.905472 
L 109.47796 99.905472 
L 109.47796 107.875283 
L 111.423082 107.875283 
L 111.423082 115.845094 
L 113.368204 115.845094 
L 113.368204 113.852642 
L 117.258449 113.852642 
L 117.258449 109.867736 
L 119.203571 109.867736 
L 119.203571 113.852642 
L 121.148693 113.852642 
L 121.148693 105.88283 
L 123.093815 105.88283 
L 123.093815 103.890377 
L 125.038937 103.890377 
L 125.038937 117.837547 
L 126.98406 117.837547 
L 126.98406 103.890377 
L 128.929182 103.890377 
L 128.929182 95.920566 
L 130.874304 95.920566 
L 130.874304 115.845094 
L 132.819426 115.845094 
L 132.819426 99.905472 
L 134.764549 99.905472 
L 134.764549 107.875283 
L 136.709671 107.875283 
L 136.709671 109.867736 
L 138.654793 109.867736 
L 138.654793 103.890377 
L 140.599915 103.890377 
L 140.599915 109.867736 
L 142.545037 109.867736 
L 142.545037 115.845094 
L 144.49016 115.845094 
L 144.49016 113.852642 
L 146.435282 113.852642 
L 146.435282 109.867736 
L 150.325526 109.867736 
L 150.325526 107.875283 
L 152.270649 107.875283 
L 152.270649 113.852642 
L 154.215771 113.852642 
L 154.215771 109.867736 
L 158.106015 109.867736 
L 158.106015 117.837547 
L 160.051137 117.837547 
L 160.051137 115.845094 
L 161.99626 115.845094 
L 161.99626 111.860189 
L 163.941382 111.860189 
L 163.941382 103.890377 
L 165.886504 103.890377 
L 165.886504 115.845094 
L 167.831626 115.845094 
L 167.831626 113.852642 
L 169.776749 113.852642 
L 169.776749 109.867736 
L 171.721871 109.867736 
L 171.721871 101.897925 
L 173.666993 101.897925 
L 173.666993 107.875283 
L 175.612115 107.875283 
L 175.612115 89.943208 
L 177.557237 89.943208 
L 177.557237 95.920566 
L 179.50236 95.920566 
L 179.50236 77.988491 
L 181.447482 77.988491 
L 181.447482 95.920566 
L 183.392604 95.920566 
L 183.392604 87.950755 
L 185.337726 87.950755 
L 185.337726 97.913019 
L 187.282849 97.913019 
L 187.282849 70.018679 
L 189.227971 70.018679 
L 189.227971 68.026226 
L 191.173093 68.026226 
L 191.173093 62.048868 
L 193.118215 62.048868 
L 193.118215 56.071509 
L 195.063337 56.071509 
L 195.063337 30.169623 
L 197.00846 30.169623 
L 197.00846 42.12434 
L 198.953582 42.12434 
L 198.953582 14.23 
L 200.898704 14.23 
L 200.898704 36.146981 
L 202.843826 36.146981 
L 202.843826 54.079057 
L 204.788949 54.079057 
L 204.788949 68.026226 
L 206.734071 68.026226 
L 206.734071 56.071509 
L 208.679193 56.071509 
L 208.679193 74.003585 
L 210.624315 74.003585 
L 210.624315 79.980943 
L 212.569437 79.980943 
L 212.569437 99.905472 
L 214.51456 99.905472 
L 214.51456 91.93566 
L 216.459682 91.93566 
L 216.459682 89.943208 
L 218.404804 89.943208 
L 218.404804 101.897925 
L 220.349926 101.897925 
L 220.349926 103.890377 
L 222.295049 103.890377 
L 222.295049 107.875283 
L 224.240171 107.875283 
L 224.240171 119.83 
L 226.185293 119.83 
L 226.185293 117.837547 
L 228.130415 117.837547 
L 228.130415 119.83 
L 230.075537 119.83 
L 230.075537 111.860189 
L 232.02066 111.860189 
L 232.02066 119.83 
L 232.02066 119.83 
" clip-path="url(#p9e7f2cb9ee)" style="fill: none; stroke: #fc4f30; stroke-linejoin: miter"/>
   </g>
   <g id="patch_5">
    <path d="M 26.348438 119.83 
L 26.348438 8.95 
" style="fill: none; stroke: #000000; stroke-width: 0.8; stroke-linejoin: miter; stroke-linecap: square"/>
   </g>
   <g id="patch_6">
    <path d="M 249.548437 119.83 
L 249.548437 8.95 
" style="fill: none; stroke: #000000; stroke-width: 0.8; stroke-linejoin: miter; stroke-linecap: square"/>
   </g>
   <g id="patch_7">
    <path d="M 26.348438 119.83 
L 249.548437 119.83 
" style="fill: none; stroke: #000000; stroke-width: 0.8; stroke-linejoin: miter; stroke-linecap: square"/>
   </g>
   <g id="patch_8">
    <path d="M 26.348438 8.95 
L 249.548437 8.95 
" style="fill: none; stroke: #000000; stroke-width: 0.8; stroke-linejoin: miter; stroke-linecap: square"/>
   </g>
  </g>
 </g>
 <defs>
  <clipPath id="p9e7f2cb9ee">
   <rect x="26.348438" y="8.95" width="223.2" height="110.88"/>
  </clipPath>
 </defs>
</svg>
