<?xml version="1.0" encoding="utf-8" standalone="no"?>
<!DOCTYPE svg PUBLIC "-//W3C//DTD SVG 1.1//EN"
  "http://www.w3.org/Graphics/SVG/1.1/DTD/svg11.dtd">
<svg xmlns:xlink="http://www.w3.org/1999/xlink" width="258.498437pt" height="141.33pt" viewBox="0 0 258.498437 141.33" xmlns="http://www.w3.org/2000/svg" version="1.1">
 <metadata>
  <rdf:RDF xmlns:dc="http://purl.org/dc/elements/1.1/" xmlns:cc="http://creativecommons.org/ns#" xmlns:rdf="http://www.w3.org/1999/02/22-rdf-syntax-ns#">
   <cc:Work>
    <dc:type rdf:resource="http://purl.org/dc/dcmitype/StillImage"/>
    <dc:date>2024-05-30T00:03:09.806142</dc:date>
    <dc:format>image/svg+xml</dc:format>
    <dc:creator>
     <cc:Agent>
      <dc:title>Matplotlib v3.9.0, https://matplotlib.org/</dc:title>
     </cc:Agent>
    </dc:creator>
   </cc:Work>
  </rdf:RDF>
 </metadata>
 <defs>
  <style type="text/css">*{stroke-linejoin: round; stroke-linecap: butt}</style>
 </defs>
 <g id="figure_1">
  <g id="patch_1">
   <path d="M 0 141.33 
L 258.498437 141.33 
L 258.498437 0 
L 0 0 
z
" style="fill: #ffffff"/>
  </g>
  <g id="axes_1">
   <g id="patch_2">
    <path d="M 26.348438 119.83 
L 249.548437 119.83 
L 249.548437 8.95 
L 26.348438 8.95 
z
" style="fill: #ffffff"/>
   </g>
   <g id="matplotlib.axis_1">
    <g id="xtick_1">
     <g id="line2d_1">
      <defs>
       <path id="mfc1dbac872" d="M 0 1.75 
L 0 -1.75 
" style="stroke: #000000; stroke-width: 0.8"/>
      </defs>
      <g>
       <use xlink:href="#mfc1dbac872" x="36.357377" y="119.83" style="stroke: #000000; stroke-width: 0.8"/>
      </g>
     </g>
     <g id="line2d_2">
      <g>
       <use xlink:href="#mfc1dbac872" x="36.357377" y="8.95" style="stroke: #000000; stroke-width: 0.8"/>
      </g>
     </g>
     <g id="text_1">
      <!-- 0 -->
      <g transform="translate(33.57769 132.220625) scale(0.1 -0.1)">
       <defs>
        <path id="HelveticaNeue-Medium-30" d="M 1779 4570 
Q 2259 4570 2563 4349 
Q 2867 4128 3036 3785 
Q 3206 3443 3267 3033 
Q 3328 2624 3328 2240 
Q 3328 1856 3267 1446 
Q 3206 1037 3036 694 
Q 2867 352 2563 131 
Q 2259 -90 1779 -90 
Q 1299 -90 995 131 
Q 691 352 521 694 
Q 352 1037 291 1446 
Q 230 1856 230 2240 
Q 230 2624 291 3033 
Q 352 3443 521 3785 
Q 691 4128 995 4349 
Q 1299 4570 1779 4570 
z
M 1779 518 
Q 2016 518 2176 656 
Q 2336 794 2429 1027 
Q 2522 1261 2560 1574 
Q 2598 1888 2598 2240 
Q 2598 2592 2560 2902 
Q 2522 3213 2429 3449 
Q 2336 3686 2176 3824 
Q 2016 3962 1779 3962 
Q 1536 3962 1379 3824 
Q 1222 3686 1129 3449 
Q 1037 3213 998 2902 
Q 960 2592 960 2240 
Q 960 1888 998 1574 
Q 1037 1261 1129 1027 
Q 1222 794 1379 656 
Q 1536 518 1779 518 
z
" transform="scale(0.015625)"/>
       </defs>
       <use xlink:href="#HelveticaNeue-Medium-30"/>
      </g>
     </g>
    </g>
    <g id="xtick_2">
     <g id="line2d_3">
      <g>
       <use xlink:href="#mfc1dbac872" x="90.168706" y="119.83" style="stroke: #000000; stroke-width: 0.8"/>
      </g>
     </g>
     <g id="line2d_4">
      <g>
       <use xlink:href="#mfc1dbac872" x="90.168706" y="8.95" style="stroke: #000000; stroke-width: 0.8"/>
      </g>
     </g>
     <g id="text_2">
      <!-- 1 -->
      <g transform="translate(87.389019 132.220625) scale(0.1 -0.1)">
       <defs>
        <path id="HelveticaNeue-Medium-31" d="M 339 3738 
Q 570 3738 787 3776 
Q 1005 3814 1181 3904 
Q 1357 3994 1481 4134 
Q 1606 4275 1645 4480 
L 2240 4480 
L 2240 0 
L 1440 0 
L 1440 3162 
L 339 3162 
L 339 3738 
z
" transform="scale(0.015625)"/>
       </defs>
       <use xlink:href="#HelveticaNeue-Medium-31"/>
      </g>
     </g>
    </g>
    <g id="xtick_3">
     <g id="line2d_5">
      <g>
       <use xlink:href="#mfc1dbac872" x="143.980035" y="119.83" style="stroke: #000000; stroke-width: 0.8"/>
      </g>
     </g>
     <g id="line2d_6">
      <g>
       <use xlink:href="#mfc1dbac872" x="143.980035" y="8.95" style="stroke: #000000; stroke-width: 0.8"/>
      </g>
     </g>
     <g id="text_3">
      <!-- 2 -->
      <g transform="translate(141.200348 132.220625) scale(0.1 -0.1)">
       <defs>
        <path id="HelveticaNeue-Medium-32" d="M 3309 0 
L 250 0 
Q 256 557 518 973 
Q 781 1389 1235 1696 
Q 1453 1856 1689 2006 
Q 1926 2157 2124 2329 
Q 2323 2502 2451 2704 
Q 2579 2906 2586 3168 
Q 2586 3290 2557 3427 
Q 2528 3565 2445 3683 
Q 2362 3802 2214 3882 
Q 2067 3962 1830 3962 
Q 1613 3962 1469 3875 
Q 1325 3789 1238 3638 
Q 1152 3488 1110 3283 
Q 1069 3078 1062 2842 
L 333 2842 
Q 333 3213 432 3529 
Q 531 3846 729 4076 
Q 928 4307 1213 4438 
Q 1498 4570 1875 4570 
Q 2285 4570 2560 4435 
Q 2835 4301 3004 4096 
Q 3174 3891 3244 3651 
Q 3315 3411 3315 3194 
Q 3315 2925 3232 2707 
Q 3149 2490 3008 2307 
Q 2867 2125 2688 1971 
Q 2509 1818 2317 1683 
Q 2125 1549 1933 1427 
Q 1741 1306 1577 1184 
Q 1414 1062 1292 931 
Q 1171 800 1126 653 
L 3309 653 
L 3309 0 
z
" transform="scale(0.015625)"/>
       </defs>
       <use xlink:href="#HelveticaNeue-Medium-32"/>
      </g>
     </g>
    </g>
    <g id="xtick_4">
     <g id="line2d_7">
      <g>
       <use xlink:href="#mfc1dbac872" x="197.791364" y="119.83" style="stroke: #000000; stroke-width: 0.8"/>
      </g>
     </g>
     <g id="line2d_8">
      <g>
       <use xlink:href="#mfc1dbac872" x="197.791364" y="8.95" style="stroke: #000000; stroke-width: 0.8"/>
      </g>
     </g>
     <g id="text_4">
      <!-- 3 -->
      <g transform="translate(195.011677 132.220625) scale(0.1 -0.1)">
       <defs>
        <path id="HelveticaNeue-Medium-33" d="M 1459 2624 
Q 1638 2618 1817 2650 
Q 1997 2682 2137 2762 
Q 2278 2842 2364 2982 
Q 2451 3123 2451 3328 
Q 2451 3616 2256 3789 
Q 2061 3962 1754 3962 
Q 1562 3962 1421 3885 
Q 1280 3808 1187 3677 
Q 1094 3546 1049 3382 
Q 1005 3219 1011 3046 
L 282 3046 
Q 294 3373 403 3651 
Q 512 3930 701 4134 
Q 890 4339 1158 4454 
Q 1427 4570 1766 4570 
Q 2029 4570 2281 4493 
Q 2534 4416 2736 4269 
Q 2938 4122 3059 3894 
Q 3181 3667 3181 3373 
Q 3181 3034 3027 2781 
Q 2874 2528 2547 2413 
L 2547 2400 
Q 2931 2323 3145 2019 
Q 3360 1715 3360 1280 
Q 3360 960 3232 707 
Q 3104 454 2886 278 
Q 2669 102 2381 6 
Q 2093 -90 1773 -90 
Q 1382 -90 1091 22 
Q 800 134 605 339 
Q 410 544 307 832 
Q 205 1120 198 1472 
L 928 1472 
Q 915 1062 1129 790 
Q 1344 518 1773 518 
Q 2138 518 2384 726 
Q 2630 934 2630 1318 
Q 2630 1581 2528 1734 
Q 2426 1888 2259 1968 
Q 2093 2048 1885 2067 
Q 1677 2086 1459 2080 
L 1459 2624 
z
" transform="scale(0.015625)"/>
       </defs>
       <use xlink:href="#HelveticaNeue-Medium-33"/>
      </g>
     </g>
    </g>
   </g>
   <g id="matplotlib.axis_2">
    <g id="ytick_1">
     <g id="line2d_9">
      <defs>
       <path id="m31d784e05d" d="M 1.75 0 
L -1.75 -0 
" style="stroke: #000000; stroke-width: 0.8"/>
      </defs>
      <g>
       <use xlink:href="#m31d784e05d" x="26.348438" y="119.83" style="stroke: #000000; stroke-width: 0.8"/>
      </g>
     </g>
     <g id="line2d_10">
      <g>
       <use xlink:href="#m31d784e05d" x="249.548437" y="119.83" style="stroke: #000000; stroke-width: 0.8"/>
      </g>
     </g>
     <g id="text_5">
      <!-- 0.0 -->
      <g transform="translate(7.2 123.400312) scale(0.1 -0.1)">
       <defs>
        <path id="HelveticaNeue-Medium-2e" d="M 442 864 
L 1331 864 
L 1331 0 
L 442 0 
L 442 864 
z
" transform="scale(0.015625)"/>
       </defs>
       <use xlink:href="#HelveticaNeue-Medium-30"/>
       <use xlink:href="#HelveticaNeue-Medium-2e" x="55.599991"/>
       <use xlink:href="#HelveticaNeue-Medium-30" x="83.399979"/>
      </g>
     </g>
    </g>
    <g id="ytick_2">
     <g id="line2d_11">
      <g>
       <use xlink:href="#m31d784e05d" x="26.348438" y="79.742644" style="stroke: #000000; stroke-width: 0.8"/>
      </g>
     </g>
     <g id="line2d_12">
      <g>
       <use xlink:href="#m31d784e05d" x="249.548437" y="79.742644" style="stroke: #000000; stroke-width: 0.8"/>
      </g>
     </g>
     <g id="text_6">
      <!-- 0.5 -->
      <g transform="translate(7.2 83.312957) scale(0.1 -0.1)">
       <defs>
        <path id="HelveticaNeue-Medium-35" d="M 787 4480 
L 3104 4480 
L 3104 3827 
L 1331 3827 
L 1101 2688 
L 1114 2675 
Q 1261 2842 1488 2928 
Q 1715 3014 1939 3014 
Q 2272 3014 2534 2902 
Q 2797 2790 2976 2588 
Q 3155 2387 3248 2112 
Q 3341 1837 3341 1517 
Q 3341 1248 3254 963 
Q 3168 678 2979 444 
Q 2790 211 2496 60 
Q 2202 -90 1792 -90 
Q 1466 -90 1187 -3 
Q 909 83 697 256 
Q 486 429 361 681 
Q 237 934 224 1274 
L 954 1274 
Q 986 909 1203 713 
Q 1421 518 1779 518 
Q 2010 518 2170 595 
Q 2330 672 2429 806 
Q 2528 941 2569 1120 
Q 2611 1299 2611 1504 
Q 2611 1690 2560 1859 
Q 2509 2029 2406 2157 
Q 2304 2285 2141 2361 
Q 1978 2438 1760 2438 
Q 1530 2438 1328 2352 
Q 1126 2266 1037 2029 
L 307 2029 
L 787 4480 
z
" transform="scale(0.015625)"/>
       </defs>
       <use xlink:href="#HelveticaNeue-Medium-30"/>
       <use xlink:href="#HelveticaNeue-Medium-2e" x="55.599991"/>
       <use xlink:href="#HelveticaNeue-Medium-35" x="83.399979"/>
      </g>
     </g>
    </g>
    <g id="ytick_3">
     <g id="line2d_13">
      <g>
       <use xlink:href="#m31d784e05d" x="26.348438" y="39.655289" style="stroke: #000000; stroke-width: 0.8"/>
      </g>
     </g>
     <g id="line2d_14">
      <g>
       <use xlink:href="#m31d784e05d" x="249.548437" y="39.655289" style="stroke: #000000; stroke-width: 0.8"/>
      </g>
     </g>
     <g id="text_7">
      <!-- 1.0 -->
      <g transform="translate(7.2 43.225601) scale(0.1 -0.1)">
       <use xlink:href="#HelveticaNeue-Medium-31"/>
       <use xlink:href="#HelveticaNeue-Medium-2e" x="55.599991"/>
       <use xlink:href="#HelveticaNeue-Medium-30" x="83.399979"/>
      </g>
     </g>
    </g>
   </g>
   <g id="patch_3">
    <path d="M 36.493892 119.83 
L 36.493892 101.225514 
L 38.522983 101.225514 
L 38.522983 109.730422 
L 40.552074 109.730422 
L 40.552074 108.667309 
L 42.581165 108.667309 
L 42.581165 107.604195 
L 44.610256 107.604195 
L 44.610256 102.820184 
L 46.639347 102.820184 
L 46.639347 111.325092 
L 48.668438 111.325092 
L 48.668438 101.225514 
L 50.697528 101.225514 
L 50.697528 102.820184 
L 52.726619 102.820184 
L 52.726619 105.477968 
L 54.75571 105.477968 
L 54.75571 106.009525 
L 56.784801 106.009525 
L 56.784801 108.667309 
L 58.813892 108.667309 
L 58.813892 104.946411 
L 60.842983 104.946411 
L 60.842983 103.351741 
L 62.872074 103.351741 
L 62.872074 102.288628 
L 64.901165 102.288628 
L 64.901165 112.919762 
L 66.930256 112.919762 
L 66.930256 107.604195 
L 68.959347 107.604195 
L 68.959347 109.198865 
L 70.988438 109.198865 
L 70.988438 108.667309 
L 73.017528 108.667309 
L 73.017528 108.135752 
L 75.046619 108.135752 
L 75.046619 102.288628 
L 77.07571 102.288628 
L 77.07571 109.198865 
L 79.104801 109.198865 
L 79.104801 108.667309 
L 81.133892 108.667309 
L 81.133892 104.946411 
L 83.162983 104.946411 
L 83.162983 108.667309 
L 85.192074 108.667309 
L 85.192074 106.009525 
L 87.221165 106.009525 
L 87.221165 104.414855 
L 89.250256 104.414855 
L 89.250256 105.477968 
L 91.279347 105.477968 
L 91.279347 108.135752 
L 93.308437 108.135752 
L 93.308437 104.946411 
L 97.366619 104.946411 
L 97.366619 109.730422 
L 99.39571 109.730422 
L 99.39571 106.541082 
L 101.424801 106.541082 
L 101.424801 109.198865 
L 103.453892 109.198865 
L 103.453892 104.414855 
L 105.482983 104.414855 
L 105.482983 107.604195 
L 107.512074 107.604195 
L 107.512074 110.793535 
L 109.541165 110.793535 
L 109.541165 103.883298 
L 111.570256 103.883298 
L 111.570256 108.667309 
L 113.599347 108.667309 
L 113.599347 107.072638 
L 115.628437 107.072638 
L 115.628437 108.135752 
L 117.657528 108.135752 
L 117.657528 106.009525 
L 119.686619 106.009525 
L 119.686619 106.541082 
L 121.71571 106.541082 
L 121.71571 104.946411 
L 123.744801 104.946411 
L 123.744801 107.072638 
L 125.773892 107.072638 
L 125.773892 106.009525 
L 129.832074 106.009525 
L 129.832074 101.757071 
L 131.861165 101.757071 
L 131.861165 108.135752 
L 133.890256 108.135752 
L 133.890256 101.757071 
L 135.919347 101.757071 
L 135.919347 102.820184 
L 137.948437 102.820184 
L 137.948437 102.288628 
L 139.977528 102.288628 
L 139.977528 106.009525 
L 142.006619 106.009525 
L 142.006619 107.072638 
L 144.03571 107.072638 
L 144.03571 105.477968 
L 146.064801 105.477968 
L 146.064801 109.730422 
L 148.093892 109.730422 
L 148.093892 108.667309 
L 150.122983 108.667309 
L 150.122983 106.009525 
L 152.152074 106.009525 
L 152.152074 104.946411 
L 154.181165 104.946411 
L 154.181165 101.757071 
L 156.210256 101.757071 
L 156.210256 104.946411 
L 158.239347 104.946411 
L 158.239347 110.261979 
L 160.268438 110.261979 
L 160.268438 106.541082 
L 162.297528 106.541082 
L 162.297528 102.820184 
L 164.326619 102.820184 
L 164.326619 100.693957 
L 166.35571 100.693957 
L 166.35571 104.946411 
L 168.384801 104.946411 
L 168.384801 109.198865 
L 170.413892 109.198865 
L 170.413892 106.009525 
L 172.442983 106.009525 
L 172.442983 100.162401 
L 174.472074 100.162401 
L 174.472074 98.036174 
L 176.501165 98.036174 
L 176.501165 91.657493 
L 178.530256 91.657493 
L 178.530256 87.936596 
L 180.559347 87.936596 
L 180.559347 85.810369 
L 182.588437 85.810369 
L 182.588437 73.584564 
L 184.617528 73.584564 
L 184.617528 78.368575 
L 186.646619 78.368575 
L 186.646619 62.953429 
L 188.67571 62.953429 
L 188.67571 43.817387 
L 190.704801 43.817387 
L 190.704801 39.033376 
L 192.733892 39.033376 
L 192.733892 33.186252 
L 194.762983 33.186252 
L 194.762983 27.870685 
L 196.792074 27.870685 
L 196.792074 23.086674 
L 198.821165 23.086674 
L 198.821165 42.754273 
L 200.850256 42.754273 
L 200.850256 48.601397 
L 202.879347 48.601397 
L 202.879347 41.69116 
L 204.908437 41.69116 
L 204.908437 65.079656 
L 206.937528 65.079656 
L 206.937528 61.358759 
L 208.966619 61.358759 
L 208.966619 79.431688 
L 210.99571 79.431688 
L 210.99571 83.684142 
L 213.024801 83.684142 
L 213.024801 90.062823 
L 215.053892 90.062823 
L 215.053892 103.351741 
L 217.082983 103.351741 
L 217.082983 100.693957 
L 219.112074 100.693957 
L 219.112074 111.325092 
L 221.141165 111.325092 
L 221.141165 115.045989 
L 223.170256 115.045989 
L 223.170256 119.298443 
L 225.199347 119.298443 
L 225.199347 117.172216 
L 227.228437 117.172216 
L 227.228437 118.766887 
L 229.257528 118.766887 
L 229.257528 119.83 
L 233.31571 119.83 
L 233.31571 119.298443 
L 235.344801 119.298443 
L 235.344801 119.83 
L 237.373892 119.83 
L 237.373892 119.298443 
L 239.402983 119.298443 
L 239.402983 119.83 
L 239.402983 119.83 
" clip-path="url(#p82a499fd71)" style="fill: none; stroke: #008fd5; stroke-linejoin: miter"/>
   </g>
   <g id="patch_4">
    <path d="M 37.508438 119.83 
L 37.508438 78.508261 
L 39.387776 78.508261 
L 39.387776 112.943043 
L 41.267115 112.943043 
L 41.267115 106.056087 
L 43.146453 106.056087 
L 43.146453 99.16913 
L 45.025792 99.16913 
L 45.025792 112.943043 
L 46.905131 112.943043 
L 46.905131 99.16913 
L 48.784469 99.16913 
L 48.784469 108.351739 
L 50.663808 108.351739 
L 50.663808 103.760435 
L 52.543146 103.760435 
L 52.543146 106.056087 
L 54.422485 106.056087 
L 54.422485 99.16913 
L 56.301824 99.16913 
L 56.301824 108.351739 
L 58.181162 108.351739 
L 58.181162 92.282174 
L 60.060501 92.282174 
L 60.060501 106.056087 
L 61.939839 106.056087 
L 61.939839 99.16913 
L 63.819178 99.16913 
L 63.819178 115.238696 
L 65.698517 115.238696 
L 65.698517 103.760435 
L 67.577855 103.760435 
L 67.577855 101.464783 
L 69.457194 101.464783 
L 69.457194 110.647391 
L 71.336533 110.647391 
L 71.336533 112.943043 
L 73.215871 112.943043 
L 73.215871 103.760435 
L 75.09521 103.760435 
L 75.09521 115.238696 
L 76.974548 115.238696 
L 76.974548 101.464783 
L 78.853887 101.464783 
L 78.853887 108.351739 
L 80.733226 108.351739 
L 80.733226 103.760435 
L 82.612564 103.760435 
L 82.612564 108.351739 
L 84.491903 108.351739 
L 84.491903 110.647391 
L 86.371241 110.647391 
L 86.371241 96.873478 
L 88.25058 96.873478 
L 88.25058 117.534348 
L 90.129919 117.534348 
L 90.129919 112.943043 
L 93.888596 112.943043 
L 93.888596 101.464783 
L 95.767934 101.464783 
L 95.767934 110.647391 
L 97.647273 110.647391 
L 97.647273 101.464783 
L 99.526612 101.464783 
L 99.526612 106.056087 
L 101.40595 106.056087 
L 101.40595 110.647391 
L 103.285289 110.647391 
L 103.285289 106.056087 
L 105.164628 106.056087 
L 105.164628 115.238696 
L 107.043966 115.238696 
L 107.043966 110.647391 
L 108.923305 110.647391 
L 108.923305 106.056087 
L 110.802643 106.056087 
L 110.802643 112.943043 
L 112.681982 112.943043 
L 112.681982 103.760435 
L 114.561321 103.760435 
L 114.561321 106.056087 
L 116.440659 106.056087 
L 116.440659 99.16913 
L 118.319998 99.16913 
L 118.319998 108.351739 
L 120.199336 108.351739 
L 120.199336 101.464783 
L 122.078675 101.464783 
L 122.078675 103.760435 
L 123.958014 103.760435 
L 123.958014 108.351739 
L 125.837352 108.351739 
L 125.837352 101.464783 
L 127.716691 101.464783 
L 127.716691 106.056087 
L 129.596029 106.056087 
L 129.596029 110.647391 
L 131.475368 110.647391 
L 131.475368 115.238696 
L 133.354707 115.238696 
L 133.354707 101.464783 
L 135.234045 101.464783 
L 135.234045 89.986522 
L 137.113384 89.986522 
L 137.113384 106.056087 
L 138.992723 106.056087 
L 138.992723 110.647391 
L 140.872061 110.647391 
L 140.872061 106.056087 
L 142.7514 106.056087 
L 142.7514 103.760435 
L 144.630738 103.760435 
L 144.630738 108.351739 
L 146.510077 108.351739 
L 146.510077 112.943043 
L 148.389416 112.943043 
L 148.389416 106.056087 
L 150.268754 106.056087 
L 150.268754 92.282174 
L 152.148093 92.282174 
L 152.148093 106.056087 
L 154.027431 106.056087 
L 154.027431 101.464783 
L 155.90677 101.464783 
L 155.90677 108.351739 
L 157.786109 108.351739 
L 157.786109 112.943043 
L 159.665447 112.943043 
L 159.665447 103.760435 
L 161.544786 103.760435 
L 161.544786 101.464783 
L 163.424124 101.464783 
L 163.424124 89.986522 
L 165.303463 89.986522 
L 165.303463 101.464783 
L 167.182802 101.464783 
L 167.182802 112.943043 
L 169.06214 112.943043 
L 169.06214 108.351739 
L 170.941479 108.351739 
L 170.941479 94.577826 
L 172.820818 94.577826 
L 172.820818 101.464783 
L 174.700156 101.464783 
L 174.700156 99.16913 
L 176.579495 99.16913 
L 176.579495 85.395217 
L 178.458833 85.395217 
L 178.458833 78.508261 
L 180.338172 78.508261 
L 180.338172 87.69087 
L 182.217511 87.69087 
L 182.217511 71.621304 
L 184.096849 71.621304 
L 184.096849 60.143043 
L 187.855526 60.143043 
L 187.855526 44.073478 
L 189.734865 44.073478 
L 189.734865 57.847391 
L 191.614204 57.847391 
L 191.614204 25.708261 
L 193.493542 25.708261 
L 193.493542 21.116957 
L 195.372881 21.116957 
L 195.372881 14.23 
L 197.252219 14.23 
L 197.252219 53.256087 
L 199.131558 53.256087 
L 199.131558 46.36913 
L 201.010897 46.36913 
L 201.010897 57.847391 
L 202.890235 57.847391 
L 202.890235 53.256087 
L 204.769574 53.256087 
L 204.769574 73.916957 
L 206.648913 73.916957 
L 206.648913 78.508261 
L 208.528251 78.508261 
L 208.528251 73.916957 
L 210.40759 73.916957 
L 210.40759 92.282174 
L 214.166267 92.282174 
L 214.166267 103.760435 
L 216.045606 103.760435 
L 216.045606 92.282174 
L 217.924944 92.282174 
L 217.924944 119.83 
L 219.804283 119.83 
L 219.804283 115.238696 
L 221.683621 115.238696 
L 221.683621 117.534348 
L 225.442299 117.534348 
L 225.442299 119.83 
L 225.442299 119.83 
" clip-path="url(#p82a499fd71)" style="fill: none; stroke: #fc4f30; stroke-linejoin: miter"/>
   </g>
   <g id="patch_5">
    <path d="M 26.348438 119.83 
L 26.348438 8.95 
" style="fill: none; stroke: #000000; stroke-width: 0.8; stroke-linejoin: miter; stroke-linecap: square"/>
   </g>
   <g id="patch_6">
    <path d="M 249.548437 119.83 
L 249.548437 8.95 
" style="fill: none; stroke: #000000; stroke-width: 0.8; stroke-linejoin: miter; stroke-linecap: square"/>
   </g>
   <g id="patch_7">
    <path d="M 26.348438 119.83 
L 249.548438 119.83 
" style="fill: none; stroke: #000000; stroke-width: 0.8; stroke-linejoin: miter; stroke-linecap: square"/>
   </g>
   <g id="patch_8">
    <path d="M 26.348438 8.95 
L 249.548438 8.95 
" style="fill: none; stroke: #000000; stroke-width: 0.8; stroke-linejoin: miter; stroke-linecap: square"/>
   </g>
  </g>
 </g>
 <defs>
  <clipPath id="p82a499fd71">
   <rect x="26.348438" y="8.95" width="223.2" height="110.88"/>
  </clipPath>
 </defs>
</svg>
