<?xml version="1.0" encoding="utf-8" standalone="no"?>
<!DOCTYPE svg PUBLIC "-//W3C//DTD SVG 1.1//EN"
  "http://www.w3.org/Graphics/SVG/1.1/DTD/svg11.dtd">
<svg xmlns:xlink="http://www.w3.org/1999/xlink" width="258.498437pt" height="141.33pt" viewBox="0 0 258.498437 141.33" xmlns="http://www.w3.org/2000/svg" version="1.1">
 <metadata>
  <rdf:RDF xmlns:dc="http://purl.org/dc/elements/1.1/" xmlns:cc="http://creativecommons.org/ns#" xmlns:rdf="http://www.w3.org/1999/02/22-rdf-syntax-ns#">
   <cc:Work>
    <dc:type rdf:resource="http://purl.org/dc/dcmitype/StillImage"/>
    <dc:date>2024-12-13T13:26:14.675259</dc:date>
    <dc:format>image/svg+xml</dc:format>
    <dc:creator>
     <cc:Agent>
      <dc:title>Matplotlib v3.9.2, https://matplotlib.org/</dc:title>
     </cc:Agent>
    </dc:creator>
   </cc:Work>
  </rdf:RDF>
 </metadata>
 <defs>
  <style type="text/css">*{stroke-linejoin: round; stroke-linecap: butt}</style>
 </defs>
 <g id="figure_1">
  <g id="patch_1">
   <path d="M 0 141.33 
L 258.498437 141.33 
L 258.498437 0 
L 0 0 
z
" style="fill: #ffffff"/>
  </g>
  <g id="axes_1">
   <g id="patch_2">
    <path d="M 26.348438 119.83 
L 249.548437 119.83 
L 249.548437 8.95 
L 26.348438 8.95 
z
" style="fill: #ffffff"/>
   </g>
   <g id="matplotlib.axis_1">
    <g id="xtick_1">
     <g id="line2d_1">
      <defs>
       <path id="mc3f739331b" d="M 0 1.75 
L 0 -1.75 
" style="stroke: #000000; stroke-width: 0.8"/>
      </defs>
      <g>
       <use xlink:href="#mc3f739331b" x="36.41253" y="119.83" style="stroke: #000000; stroke-width: 0.8"/>
      </g>
     </g>
     <g id="line2d_2">
      <g>
       <use xlink:href="#mc3f739331b" x="36.41253" y="8.95" style="stroke: #000000; stroke-width: 0.8"/>
      </g>
     </g>
     <g id="text_1">
      <!-- 0 -->
      <g transform="translate(33.632843 132.220625) scale(0.1 -0.1)">
       <defs>
        <path id="HelveticaNeue-Medium-30" d="M 1779 4570 
Q 2259 4570 2563 4349 
Q 2867 4128 3036 3785 
Q 3206 3443 3267 3033 
Q 3328 2624 3328 2240 
Q 3328 1856 3267 1446 
Q 3206 1037 3036 694 
Q 2867 352 2563 131 
Q 2259 -90 1779 -90 
Q 1299 -90 995 131 
Q 691 352 521 694 
Q 352 1037 291 1446 
Q 230 1856 230 2240 
Q 230 2624 291 3033 
Q 352 3443 521 3785 
Q 691 4128 995 4349 
Q 1299 4570 1779 4570 
z
M 1779 518 
Q 2016 518 2176 656 
Q 2336 794 2429 1027 
Q 2522 1261 2560 1574 
Q 2598 1888 2598 2240 
Q 2598 2592 2560 2902 
Q 2522 3213 2429 3449 
Q 2336 3686 2176 3824 
Q 2016 3962 1779 3962 
Q 1536 3962 1379 3824 
Q 1222 3686 1129 3449 
Q 1037 3213 998 2902 
Q 960 2592 960 2240 
Q 960 1888 998 1574 
Q 1037 1261 1129 1027 
Q 1222 794 1379 656 
Q 1536 518 1779 518 
z
" transform="scale(0.015625)"/>
       </defs>
       <use xlink:href="#HelveticaNeue-Medium-30"/>
      </g>
     </g>
    </g>
    <g id="xtick_2">
     <g id="line2d_3">
      <g>
       <use xlink:href="#mc3f739331b" x="92.386306" y="119.83" style="stroke: #000000; stroke-width: 0.8"/>
      </g>
     </g>
     <g id="line2d_4">
      <g>
       <use xlink:href="#mc3f739331b" x="92.386306" y="8.95" style="stroke: #000000; stroke-width: 0.8"/>
      </g>
     </g>
     <g id="text_2">
      <!-- 1 -->
      <g transform="translate(89.606619 132.220625) scale(0.1 -0.1)">
       <defs>
        <path id="HelveticaNeue-Medium-31" d="M 339 3738 
Q 570 3738 787 3776 
Q 1005 3814 1181 3904 
Q 1357 3994 1481 4134 
Q 1606 4275 1645 4480 
L 2240 4480 
L 2240 0 
L 1440 0 
L 1440 3162 
L 339 3162 
L 339 3738 
z
" transform="scale(0.015625)"/>
       </defs>
       <use xlink:href="#HelveticaNeue-Medium-31"/>
      </g>
     </g>
    </g>
    <g id="xtick_3">
     <g id="line2d_5">
      <g>
       <use xlink:href="#mc3f739331b" x="148.360082" y="119.83" style="stroke: #000000; stroke-width: 0.8"/>
      </g>
     </g>
     <g id="line2d_6">
      <g>
       <use xlink:href="#mc3f739331b" x="148.360082" y="8.95" style="stroke: #000000; stroke-width: 0.8"/>
      </g>
     </g>
     <g id="text_3">
      <!-- 2 -->
      <g transform="translate(145.580395 132.220625) scale(0.1 -0.1)">
       <defs>
        <path id="HelveticaNeue-Medium-32" d="M 3309 0 
L 250 0 
Q 256 557 518 973 
Q 781 1389 1235 1696 
Q 1453 1856 1689 2006 
Q 1926 2157 2124 2329 
Q 2323 2502 2451 2704 
Q 2579 2906 2586 3168 
Q 2586 3290 2557 3427 
Q 2528 3565 2445 3683 
Q 2362 3802 2214 3882 
Q 2067 3962 1830 3962 
Q 1613 3962 1469 3875 
Q 1325 3789 1238 3638 
Q 1152 3488 1110 3283 
Q 1069 3078 1062 2842 
L 333 2842 
Q 333 3213 432 3529 
Q 531 3846 729 4076 
Q 928 4307 1213 4438 
Q 1498 4570 1875 4570 
Q 2285 4570 2560 4435 
Q 2835 4301 3004 4096 
Q 3174 3891 3244 3651 
Q 3315 3411 3315 3194 
Q 3315 2925 3232 2707 
Q 3149 2490 3008 2307 
Q 2867 2125 2688 1971 
Q 2509 1818 2317 1683 
Q 2125 1549 1933 1427 
Q 1741 1306 1577 1184 
Q 1414 1062 1292 931 
Q 1171 800 1126 653 
L 3309 653 
L 3309 0 
z
" transform="scale(0.015625)"/>
       </defs>
       <use xlink:href="#HelveticaNeue-Medium-32"/>
      </g>
     </g>
    </g>
    <g id="xtick_4">
     <g id="line2d_7">
      <g>
       <use xlink:href="#mc3f739331b" x="204.333858" y="119.83" style="stroke: #000000; stroke-width: 0.8"/>
      </g>
     </g>
     <g id="line2d_8">
      <g>
       <use xlink:href="#mc3f739331b" x="204.333858" y="8.95" style="stroke: #000000; stroke-width: 0.8"/>
      </g>
     </g>
     <g id="text_4">
      <!-- 3 -->
      <g transform="translate(201.554171 132.220625) scale(0.1 -0.1)">
       <defs>
        <path id="HelveticaNeue-Medium-33" d="M 1459 2624 
Q 1638 2618 1817 2650 
Q 1997 2682 2137 2762 
Q 2278 2842 2364 2982 
Q 2451 3123 2451 3328 
Q 2451 3616 2256 3789 
Q 2061 3962 1754 3962 
Q 1562 3962 1421 3885 
Q 1280 3808 1187 3677 
Q 1094 3546 1049 3382 
Q 1005 3219 1011 3046 
L 282 3046 
Q 294 3373 403 3651 
Q 512 3930 701 4134 
Q 890 4339 1158 4454 
Q 1427 4570 1766 4570 
Q 2029 4570 2281 4493 
Q 2534 4416 2736 4269 
Q 2938 4122 3059 3894 
Q 3181 3667 3181 3373 
Q 3181 3034 3027 2781 
Q 2874 2528 2547 2413 
L 2547 2400 
Q 2931 2323 3145 2019 
Q 3360 1715 3360 1280 
Q 3360 960 3232 707 
Q 3104 454 2886 278 
Q 2669 102 2381 6 
Q 2093 -90 1773 -90 
Q 1382 -90 1091 22 
Q 800 134 605 339 
Q 410 544 307 832 
Q 205 1120 198 1472 
L 928 1472 
Q 915 1062 1129 790 
Q 1344 518 1773 518 
Q 2138 518 2384 726 
Q 2630 934 2630 1318 
Q 2630 1581 2528 1734 
Q 2426 1888 2259 1968 
Q 2093 2048 1885 2067 
Q 1677 2086 1459 2080 
L 1459 2624 
z
" transform="scale(0.015625)"/>
       </defs>
       <use xlink:href="#HelveticaNeue-Medium-33"/>
      </g>
     </g>
    </g>
   </g>
   <g id="matplotlib.axis_2">
    <g id="ytick_1">
     <g id="line2d_9">
      <defs>
       <path id="m3cb006e882" d="M 1.75 0 
L -1.75 -0 
" style="stroke: #000000; stroke-width: 0.8"/>
      </defs>
      <g>
       <use xlink:href="#m3cb006e882" x="26.348438" y="119.83" style="stroke: #000000; stroke-width: 0.8"/>
      </g>
     </g>
     <g id="line2d_10">
      <g>
       <use xlink:href="#m3cb006e882" x="249.548437" y="119.83" style="stroke: #000000; stroke-width: 0.8"/>
      </g>
     </g>
     <g id="text_5">
      <!-- 0.0 -->
      <g transform="translate(7.2 123.400312) scale(0.1 -0.1)">
       <defs>
        <path id="HelveticaNeue-Medium-2e" d="M 442 864 
L 1331 864 
L 1331 0 
L 442 0 
L 442 864 
z
" transform="scale(0.015625)"/>
       </defs>
       <use xlink:href="#HelveticaNeue-Medium-30"/>
       <use xlink:href="#HelveticaNeue-Medium-2e" x="55.599991"/>
       <use xlink:href="#HelveticaNeue-Medium-30" x="83.399979"/>
      </g>
     </g>
    </g>
    <g id="ytick_2">
     <g id="line2d_11">
      <g>
       <use xlink:href="#m3cb006e882" x="26.348438" y="78.975622" style="stroke: #000000; stroke-width: 0.8"/>
      </g>
     </g>
     <g id="line2d_12">
      <g>
       <use xlink:href="#m3cb006e882" x="249.548437" y="78.975622" style="stroke: #000000; stroke-width: 0.8"/>
      </g>
     </g>
     <g id="text_6">
      <!-- 0.5 -->
      <g transform="translate(7.2 82.545935) scale(0.1 -0.1)">
       <defs>
        <path id="HelveticaNeue-Medium-35" d="M 787 4480 
L 3104 4480 
L 3104 3827 
L 1331 3827 
L 1101 2688 
L 1114 2675 
Q 1261 2842 1488 2928 
Q 1715 3014 1939 3014 
Q 2272 3014 2534 2902 
Q 2797 2790 2976 2588 
Q 3155 2387 3248 2112 
Q 3341 1837 3341 1517 
Q 3341 1248 3254 963 
Q 3168 678 2979 444 
Q 2790 211 2496 60 
Q 2202 -90 1792 -90 
Q 1466 -90 1187 -3 
Q 909 83 697 256 
Q 486 429 361 681 
Q 237 934 224 1274 
L 954 1274 
Q 986 909 1203 713 
Q 1421 518 1779 518 
Q 2010 518 2170 595 
Q 2330 672 2429 806 
Q 2528 941 2569 1120 
Q 2611 1299 2611 1504 
Q 2611 1690 2560 1859 
Q 2509 2029 2406 2157 
Q 2304 2285 2141 2361 
Q 1978 2438 1760 2438 
Q 1530 2438 1328 2352 
Q 1126 2266 1037 2029 
L 307 2029 
L 787 4480 
z
" transform="scale(0.015625)"/>
       </defs>
       <use xlink:href="#HelveticaNeue-Medium-30"/>
       <use xlink:href="#HelveticaNeue-Medium-2e" x="55.599991"/>
       <use xlink:href="#HelveticaNeue-Medium-35" x="83.399979"/>
      </g>
     </g>
    </g>
    <g id="ytick_3">
     <g id="line2d_13">
      <g>
       <use xlink:href="#m3cb006e882" x="26.348438" y="38.121244" style="stroke: #000000; stroke-width: 0.8"/>
      </g>
     </g>
     <g id="line2d_14">
      <g>
       <use xlink:href="#m3cb006e882" x="249.548437" y="38.121244" style="stroke: #000000; stroke-width: 0.8"/>
      </g>
     </g>
     <g id="text_7">
      <!-- 1.0 -->
      <g transform="translate(7.2 41.691557) scale(0.1 -0.1)">
       <use xlink:href="#HelveticaNeue-Medium-31"/>
       <use xlink:href="#HelveticaNeue-Medium-2e" x="55.599991"/>
       <use xlink:href="#HelveticaNeue-Medium-30" x="83.399979"/>
      </g>
     </g>
    </g>
   </g>
   <g id="patch_3">
    <path d="M 36.493892 119.83 
L 36.493892 106.869566 
L 38.522983 106.869566 
L 38.522983 104.615578 
L 40.552074 104.615578 
L 40.552074 107.99656 
L 42.581165 107.99656 
L 42.581165 107.433063 
L 44.610256 107.433063 
L 44.610256 105.742572 
L 46.639347 105.742572 
L 46.639347 107.99656 
L 48.668437 107.99656 
L 48.668437 105.179075 
L 50.697528 105.179075 
L 50.697528 105.742572 
L 52.726619 105.742572 
L 52.726619 104.05208 
L 54.75571 104.05208 
L 54.75571 108.560057 
L 56.784801 108.560057 
L 56.784801 104.615578 
L 58.813892 104.615578 
L 58.813892 109.123555 
L 60.842983 109.123555 
L 60.842983 104.05208 
L 62.872074 104.05208 
L 62.872074 103.488583 
L 64.901165 103.488583 
L 64.901165 108.560057 
L 66.930256 108.560057 
L 66.930256 106.306069 
L 68.959347 106.306069 
L 68.959347 104.615578 
L 70.988438 104.615578 
L 70.988438 106.306069 
L 73.017528 106.306069 
L 73.017528 105.179075 
L 75.046619 105.179075 
L 75.046619 107.99656 
L 77.07571 107.99656 
L 77.07571 106.306069 
L 79.104801 106.306069 
L 79.104801 108.560057 
L 81.133892 108.560057 
L 81.133892 103.488583 
L 83.162983 103.488583 
L 83.162983 108.560057 
L 85.192074 108.560057 
L 85.192074 109.123555 
L 87.221165 109.123555 
L 87.221165 105.742572 
L 89.250256 105.742572 
L 89.250256 109.687052 
L 91.279347 109.687052 
L 91.279347 104.05208 
L 93.308437 104.05208 
L 93.308437 105.179075 
L 95.337528 105.179075 
L 95.337528 104.615578 
L 97.366619 104.615578 
L 97.366619 110.250549 
L 99.39571 110.250549 
L 99.39571 106.306069 
L 103.453892 106.306069 
L 103.453892 108.560057 
L 105.482983 108.560057 
L 105.482983 104.05208 
L 107.512074 104.05208 
L 107.512074 107.99656 
L 109.541165 107.99656 
L 109.541165 106.306069 
L 111.570256 106.306069 
L 111.570256 107.433063 
L 113.599347 107.433063 
L 113.599347 100.107601 
L 115.628437 100.107601 
L 115.628437 107.433063 
L 117.657528 107.433063 
L 117.657528 107.99656 
L 119.686619 107.99656 
L 119.686619 103.488583 
L 121.71571 103.488583 
L 121.71571 100.671098 
L 123.744801 100.671098 
L 123.744801 105.179075 
L 125.773892 105.179075 
L 125.773892 109.123555 
L 127.802983 109.123555 
L 127.802983 106.306069 
L 129.832074 106.306069 
L 129.832074 107.99656 
L 131.861165 107.99656 
L 131.861165 105.742572 
L 133.890256 105.742572 
L 133.890256 106.306069 
L 137.948437 106.306069 
L 137.948437 105.179075 
L 139.977528 105.179075 
L 139.977528 108.560057 
L 142.006619 108.560057 
L 142.006619 102.925086 
L 144.03571 102.925086 
L 144.03571 107.433063 
L 146.064801 107.433063 
L 146.064801 104.615578 
L 150.122983 104.615578 
L 150.122983 105.179075 
L 154.181165 105.179075 
L 154.181165 106.306069 
L 156.210256 106.306069 
L 156.210256 107.433063 
L 158.239347 107.433063 
L 158.239347 106.869566 
L 160.268438 106.869566 
L 160.268438 104.05208 
L 162.297528 104.05208 
L 162.297528 107.433063 
L 164.326619 107.433063 
L 164.326619 102.925086 
L 166.35571 102.925086 
L 166.35571 109.123555 
L 168.384801 109.123555 
L 168.384801 100.107601 
L 170.413892 100.107601 
L 170.413892 106.869566 
L 172.442983 106.869566 
L 172.442983 106.306069 
L 174.472074 106.306069 
L 174.472074 100.671098 
L 176.501165 100.671098 
L 176.501165 98.980606 
L 178.530256 98.980606 
L 178.530256 96.726618 
L 180.559347 96.726618 
L 180.559347 97.853612 
L 182.588437 97.853612 
L 182.588437 95.036126 
L 184.617528 95.036126 
L 184.617528 80.948698 
L 186.646619 80.948698 
L 186.646619 75.877224 
L 190.704801 75.877224 
L 190.704801 58.408813 
L 192.733892 58.408813 
L 192.733892 60.099304 
L 194.762983 60.099304 
L 194.762983 38.122916 
L 196.792074 38.122916 
L 196.792074 35.305431 
L 198.821165 35.305431 
L 198.821165 30.233957 
L 200.850256 30.233957 
L 200.850256 44.884882 
L 202.879347 44.884882 
L 202.879347 21.7815 
L 204.908437 21.7815 
L 204.908437 42.630894 
L 206.937528 42.630894 
L 206.937528 48.265865 
L 208.966619 48.265865 
L 208.966619 47.702368 
L 210.99571 47.702368 
L 210.99571 60.099304 
L 215.053892 60.099304 
L 215.053892 61.789796 
L 217.082983 61.789796 
L 217.082983 86.020172 
L 219.112074 86.020172 
L 219.112074 84.893178 
L 221.141165 84.893178 
L 221.141165 95.036126 
L 223.170256 95.036126 
L 223.170256 101.798092 
L 225.199347 101.798092 
L 225.199347 109.687052 
L 227.228437 109.687052 
L 227.228437 114.758526 
L 229.257528 114.758526 
L 229.257528 117.012514 
L 231.286619 117.012514 
L 231.286619 118.139509 
L 235.344801 118.139509 
L 235.344801 118.703006 
L 239.402983 118.703006 
L 239.402983 119.83 
L 239.402983 119.83 
" clip-path="url(#p49952522c3)" style="fill: none; stroke: #008fd5; stroke-linejoin: miter"/>
   </g>
   <g id="patch_4">
    <path d="M 37.508437 119.83 
L 37.508437 92.282174 
L 39.500703 92.282174 
L 39.500703 112.943043 
L 41.492968 112.943043 
L 41.492968 110.647391 
L 45.477498 110.647391 
L 45.477498 103.760435 
L 47.469763 103.760435 
L 47.469763 101.464783 
L 49.462028 101.464783 
L 49.462028 106.056087 
L 51.454293 106.056087 
L 51.454293 108.351739 
L 53.446558 108.351739 
L 53.446558 110.647391 
L 55.438823 110.647391 
L 55.438823 112.943043 
L 57.431088 112.943043 
L 57.431088 110.647391 
L 59.423353 110.647391 
L 59.423353 99.16913 
L 61.415618 99.16913 
L 61.415618 110.647391 
L 63.407883 110.647391 
L 63.407883 108.351739 
L 69.384678 108.351739 
L 69.384678 110.647391 
L 71.376943 110.647391 
L 71.376943 106.056087 
L 73.369208 106.056087 
L 73.369208 115.238696 
L 77.353739 115.238696 
L 77.353739 106.056087 
L 79.346004 106.056087 
L 79.346004 101.464783 
L 81.338269 101.464783 
L 81.338269 108.351739 
L 83.330534 108.351739 
L 83.330534 112.943043 
L 85.322799 112.943043 
L 85.322799 108.351739 
L 87.315064 108.351739 
L 87.315064 103.760435 
L 89.307329 103.760435 
L 89.307329 99.16913 
L 91.299594 99.16913 
L 91.299594 112.943043 
L 93.291859 112.943043 
L 93.291859 103.760435 
L 95.284124 103.760435 
L 95.284124 110.647391 
L 99.268654 110.647391 
L 99.268654 99.16913 
L 101.260919 99.16913 
L 101.260919 108.351739 
L 103.253184 108.351739 
L 103.253184 101.464783 
L 105.245449 101.464783 
L 105.245449 106.056087 
L 107.237714 106.056087 
L 107.237714 112.943043 
L 109.229979 112.943043 
L 109.229979 110.647391 
L 111.222244 110.647391 
L 111.222244 96.873478 
L 113.214509 96.873478 
L 113.214509 112.943043 
L 115.206775 112.943043 
L 115.206775 96.873478 
L 117.19904 96.873478 
L 117.19904 110.647391 
L 119.191305 110.647391 
L 119.191305 108.351739 
L 121.18357 108.351739 
L 121.18357 96.873478 
L 123.175835 96.873478 
L 123.175835 99.16913 
L 125.1681 99.16913 
L 125.1681 103.760435 
L 127.160365 103.760435 
L 127.160365 117.534348 
L 129.15263 117.534348 
L 129.15263 108.351739 
L 131.144895 108.351739 
L 131.144895 112.943043 
L 133.13716 112.943043 
L 133.13716 101.464783 
L 135.129425 101.464783 
L 135.129425 108.351739 
L 137.12169 108.351739 
L 137.12169 106.056087 
L 139.113955 106.056087 
L 139.113955 110.647391 
L 141.10622 110.647391 
L 141.10622 99.16913 
L 143.098485 99.16913 
L 143.098485 108.351739 
L 145.09075 108.351739 
L 145.09075 110.647391 
L 147.083015 110.647391 
L 147.083015 106.056087 
L 149.07528 106.056087 
L 149.07528 112.943043 
L 151.067545 112.943043 
L 151.067545 106.056087 
L 153.05981 106.056087 
L 153.05981 101.464783 
L 155.052076 101.464783 
L 155.052076 115.238696 
L 157.044341 115.238696 
L 157.044341 112.943043 
L 159.036606 112.943043 
L 159.036606 103.760435 
L 161.028871 103.760435 
L 161.028871 106.056087 
L 163.021136 106.056087 
L 163.021136 96.873478 
L 165.013401 96.873478 
L 165.013401 103.760435 
L 168.997931 103.760435 
L 168.997931 94.577826 
L 170.990196 94.577826 
L 170.990196 103.760435 
L 172.982461 103.760435 
L 172.982461 99.16913 
L 176.966991 99.16913 
L 176.966991 103.760435 
L 180.951521 103.760435 
L 180.951521 108.351739 
L 182.943786 108.351739 
L 182.943786 89.986522 
L 184.936051 89.986522 
L 184.936051 76.212609 
L 186.928316 76.212609 
L 186.928316 64.734348 
L 188.920581 64.734348 
L 188.920581 55.551739 
L 190.912846 55.551739 
L 190.912846 50.960435 
L 192.905112 50.960435 
L 192.905112 34.89087 
L 194.897377 34.89087 
L 194.897377 37.186522 
L 196.889642 37.186522 
L 196.889642 14.23 
L 198.881907 14.23 
L 198.881907 34.89087 
L 200.874172 34.89087 
L 200.874172 32.595217 
L 202.866437 32.595217 
L 202.866437 21.116957 
L 204.858702 21.116957 
L 204.858702 37.186522 
L 206.850967 37.186522 
L 206.850967 39.482174 
L 208.843232 39.482174 
L 208.843232 32.595217 
L 210.835497 32.595217 
L 210.835497 76.212609 
L 212.827762 76.212609 
L 212.827762 73.916957 
L 214.820027 73.916957 
L 214.820027 71.621304 
L 216.812292 71.621304 
L 216.812292 83.099565 
L 218.804557 83.099565 
L 218.804557 89.986522 
L 220.796822 89.986522 
L 220.796822 103.760435 
L 222.789087 103.760435 
L 222.789087 101.464783 
L 224.781352 101.464783 
L 224.781352 110.647391 
L 226.773617 110.647391 
L 226.773617 117.534348 
L 234.742678 117.534348 
L 234.742678 115.238696 
L 236.734943 115.238696 
L 236.734943 119.83 
L 236.734943 119.83 
" clip-path="url(#p49952522c3)" style="fill: none; stroke: #fc4f30; stroke-linejoin: miter"/>
   </g>
   <g id="patch_5">
    <path d="M 26.348438 119.83 
L 26.348438 8.95 
" style="fill: none; stroke: #000000; stroke-width: 0.8; stroke-linejoin: miter; stroke-linecap: square"/>
   </g>
   <g id="patch_6">
    <path d="M 249.548437 119.83 
L 249.548437 8.95 
" style="fill: none; stroke: #000000; stroke-width: 0.8; stroke-linejoin: miter; stroke-linecap: square"/>
   </g>
   <g id="patch_7">
    <path d="M 26.348438 119.83 
L 249.548437 119.83 
" style="fill: none; stroke: #000000; stroke-width: 0.8; stroke-linejoin: miter; stroke-linecap: square"/>
   </g>
   <g id="patch_8">
    <path d="M 26.348438 8.95 
L 249.548437 8.95 
" style="fill: none; stroke: #000000; stroke-width: 0.8; stroke-linejoin: miter; stroke-linecap: square"/>
   </g>
  </g>
 </g>
 <defs>
  <clipPath id="p49952522c3">
   <rect x="26.348438" y="8.95" width="223.2" height="110.88"/>
  </clipPath>
 </defs>
</svg>
