<?xml version="1.0" encoding="utf-8" standalone="no"?>
<!DOCTYPE svg PUBLIC "-//W3C//DTD SVG 1.1//EN"
  "http://www.w3.org/Graphics/SVG/1.1/DTD/svg11.dtd">
<svg xmlns:xlink="http://www.w3.org/1999/xlink" width="261.278125pt" height="141.33pt" viewBox="0 0 261.278125 141.33" xmlns="http://www.w3.org/2000/svg" version="1.1">
 <metadata>
  <rdf:RDF xmlns:dc="http://purl.org/dc/elements/1.1/" xmlns:cc="http://creativecommons.org/ns#" xmlns:rdf="http://www.w3.org/1999/02/22-rdf-syntax-ns#">
   <cc:Work>
    <dc:type rdf:resource="http://purl.org/dc/dcmitype/StillImage"/>
    <dc:date>2022-09-09T00:40:04.192722</dc:date>
    <dc:format>image/svg+xml</dc:format>
    <dc:creator>
     <cc:Agent>
      <dc:title>Matplotlib v3.5.1, https://matplotlib.org/</dc:title>
     </cc:Agent>
    </dc:creator>
   </cc:Work>
  </rdf:RDF>
 </metadata>
 <defs>
  <style type="text/css">*{stroke-linejoin: round; stroke-linecap: butt}</style>
 </defs>
 <g id="figure_1">
  <g id="patch_1">
   <path d="M 0 141.33 
L 261.278125 141.33 
L 261.278125 0 
L 0 0 
z
" style="fill: #ffffff"/>
  </g>
  <g id="axes_1">
   <g id="patch_2">
    <path d="M 29.128125 119.83 
L 252.328125 119.83 
L 252.328125 8.95 
L 29.128125 8.95 
z
" style="fill: #ffffff"/>
   </g>
   <g id="matplotlib.axis_1">
    <g id="xtick_1">
     <g id="line2d_1">
      <defs>
       <path id="mc7966b7c7f" d="M 0 1.75 
L 0 -1.75 
" style="stroke: #000000; stroke-width: 0.8"/>
      </defs>
      <g>
       <use xlink:href="#mc7966b7c7f" x="39.261562" y="119.83" style="stroke: #000000; stroke-width: 0.8"/>
      </g>
     </g>
     <g id="line2d_2">
      <g>
       <use xlink:href="#mc7966b7c7f" x="39.261562" y="8.95" style="stroke: #000000; stroke-width: 0.8"/>
      </g>
     </g>
     <g id="text_1">
      <!-- 0 -->
      <g transform="translate(36.481874 132.220625)scale(0.1 -0.1)">
       <defs>
        <path id="HelveticaNeue-Medium-30" d="M 1779 518 
C 1139 518 960 1306 960 2240 
C 960 3174 1139 3962 1779 3962 
C 2419 3962 2598 3174 2598 2240 
C 2598 1306 2419 518 1779 518 
z
M 1779 4570 
C 493 4570 230 3258 230 2240 
C 230 1222 493 -90 1779 -90 
C 3066 -90 3328 1222 3328 2240 
C 3328 3258 3066 4570 1779 4570 
z
" transform="scale(0.015625)"/>
       </defs>
       <use xlink:href="#HelveticaNeue-Medium-30"/>
      </g>
     </g>
    </g>
    <g id="xtick_2">
     <g id="line2d_3">
      <g>
       <use xlink:href="#mc7966b7c7f" x="95.825015" y="119.83" style="stroke: #000000; stroke-width: 0.8"/>
      </g>
     </g>
     <g id="line2d_4">
      <g>
       <use xlink:href="#mc7966b7c7f" x="95.825015" y="8.95" style="stroke: #000000; stroke-width: 0.8"/>
      </g>
     </g>
     <g id="text_2">
      <!-- 1 -->
      <g transform="translate(93.045327 132.220625)scale(0.1 -0.1)">
       <defs>
        <path id="HelveticaNeue-Medium-31" d="M 339 3162 
L 1440 3162 
L 1440 0 
L 2240 0 
L 2240 4480 
L 1645 4480 
C 1536 3942 954 3731 339 3738 
L 339 3162 
z
" transform="scale(0.015625)"/>
       </defs>
       <use xlink:href="#HelveticaNeue-Medium-31"/>
      </g>
     </g>
    </g>
    <g id="xtick_3">
     <g id="line2d_5">
      <g>
       <use xlink:href="#mc7966b7c7f" x="152.388467" y="119.83" style="stroke: #000000; stroke-width: 0.8"/>
      </g>
     </g>
     <g id="line2d_6">
      <g>
       <use xlink:href="#mc7966b7c7f" x="152.388467" y="8.95" style="stroke: #000000; stroke-width: 0.8"/>
      </g>
     </g>
     <g id="text_3">
      <!-- 2 -->
      <g transform="translate(149.60878 132.220625)scale(0.1 -0.1)">
       <defs>
        <path id="HelveticaNeue-Medium-32" d="M 3309 653 
L 1126 653 
C 1254 1050 1798 1325 2317 1683 
C 2829 2042 3315 2483 3315 3194 
C 3315 3770 2970 4570 1875 4570 
C 877 4570 333 3834 333 2842 
L 1062 2842 
C 1082 3469 1254 3962 1830 3962 
C 2458 3962 2592 3488 2586 3168 
C 2573 2470 1818 2118 1235 1696 
C 634 1293 256 736 250 0 
L 3309 0 
L 3309 653 
z
" transform="scale(0.015625)"/>
       </defs>
       <use xlink:href="#HelveticaNeue-Medium-32"/>
      </g>
     </g>
    </g>
    <g id="xtick_4">
     <g id="line2d_7">
      <g>
       <use xlink:href="#mc7966b7c7f" x="208.95192" y="119.83" style="stroke: #000000; stroke-width: 0.8"/>
      </g>
     </g>
     <g id="line2d_8">
      <g>
       <use xlink:href="#mc7966b7c7f" x="208.95192" y="8.95" style="stroke: #000000; stroke-width: 0.8"/>
      </g>
     </g>
     <g id="text_4">
      <!-- 3 -->
      <g transform="translate(206.172233 132.220625)scale(0.1 -0.1)">
       <defs>
        <path id="HelveticaNeue-Medium-33" d="M 1459 2080 
C 2035 2106 2630 2016 2630 1318 
C 2630 806 2259 518 1773 518 
C 1203 518 909 928 928 1472 
L 198 1472 
C 218 538 736 -90 1773 -90 
C 2630 -90 3360 435 3360 1280 
C 3360 1856 3053 2298 2547 2400 
L 2547 2413 
C 2976 2566 3181 2925 3181 3373 
C 3181 4166 2464 4570 1766 4570 
C 864 4570 320 3917 282 3046 
L 1011 3046 
C 998 3507 1248 3962 1754 3962 
C 2157 3962 2451 3706 2451 3328 
C 2451 2778 1946 2605 1459 2624 
L 1459 2080 
z
" transform="scale(0.015625)"/>
       </defs>
       <use xlink:href="#HelveticaNeue-Medium-33"/>
      </g>
     </g>
    </g>
   </g>
   <g id="matplotlib.axis_2">
    <g id="ytick_1">
     <g id="line2d_9">
      <defs>
       <path id="m154d1c1e77" d="M 1.75 0 
L -1.75 -0 
" style="stroke: #000000; stroke-width: 0.8"/>
      </defs>
      <g>
       <use xlink:href="#m154d1c1e77" x="29.128125" y="119.83" style="stroke: #000000; stroke-width: 0.8"/>
      </g>
     </g>
     <g id="line2d_10">
      <g>
       <use xlink:href="#m154d1c1e77" x="252.328125" y="119.83" style="stroke: #000000; stroke-width: 0.8"/>
      </g>
     </g>
     <g id="text_5">
      <!-- 0 -->
      <g transform="translate(18.31875 123.400312)scale(0.1 -0.1)">
       <use xlink:href="#HelveticaNeue-Medium-30"/>
      </g>
     </g>
    </g>
    <g id="ytick_2">
     <g id="line2d_11">
      <g>
       <use xlink:href="#m154d1c1e77" x="29.128125" y="89.309769" style="stroke: #000000; stroke-width: 0.8"/>
      </g>
     </g>
     <g id="line2d_12">
      <g>
       <use xlink:href="#m154d1c1e77" x="252.328125" y="89.309769" style="stroke: #000000; stroke-width: 0.8"/>
      </g>
     </g>
     <g id="text_6">
      <!-- 50 -->
      <g transform="translate(12.759375 92.880081)scale(0.1 -0.1)">
       <defs>
        <path id="HelveticaNeue-Medium-35" d="M 307 2029 
L 1037 2029 
C 1152 2342 1453 2438 1760 2438 
C 2349 2438 2611 1997 2611 1504 
C 2611 960 2400 518 1779 518 
C 1306 518 998 794 954 1274 
L 224 1274 
C 256 378 928 -90 1792 -90 
C 2893 -90 3341 800 3341 1517 
C 3341 2374 2829 3014 1939 3014 
C 1638 3014 1312 2893 1114 2675 
L 1101 2688 
L 1331 3827 
L 3104 3827 
L 3104 4480 
L 787 4480 
L 307 2029 
z
" transform="scale(0.015625)"/>
       </defs>
       <use xlink:href="#HelveticaNeue-Medium-35"/>
       <use xlink:href="#HelveticaNeue-Medium-30" x="55.599991"/>
      </g>
     </g>
    </g>
    <g id="ytick_3">
     <g id="line2d_13">
      <g>
       <use xlink:href="#m154d1c1e77" x="29.128125" y="58.789538" style="stroke: #000000; stroke-width: 0.8"/>
      </g>
     </g>
     <g id="line2d_14">
      <g>
       <use xlink:href="#m154d1c1e77" x="252.328125" y="58.789538" style="stroke: #000000; stroke-width: 0.8"/>
      </g>
     </g>
     <g id="text_7">
      <!-- 100 -->
      <g transform="translate(7.2 62.35985)scale(0.1 -0.1)">
       <use xlink:href="#HelveticaNeue-Medium-31"/>
       <use xlink:href="#HelveticaNeue-Medium-30" x="55.599991"/>
       <use xlink:href="#HelveticaNeue-Medium-30" x="111.199982"/>
      </g>
     </g>
    </g>
    <g id="ytick_4">
     <g id="line2d_15">
      <g>
       <use xlink:href="#m154d1c1e77" x="29.128125" y="28.269306" style="stroke: #000000; stroke-width: 0.8"/>
      </g>
     </g>
     <g id="line2d_16">
      <g>
       <use xlink:href="#m154d1c1e77" x="252.328125" y="28.269306" style="stroke: #000000; stroke-width: 0.8"/>
      </g>
     </g>
     <g id="text_8">
      <!-- 150 -->
      <g transform="translate(7.2 31.839619)scale(0.1 -0.1)">
       <use xlink:href="#HelveticaNeue-Medium-31"/>
       <use xlink:href="#HelveticaNeue-Medium-35" x="55.599991"/>
       <use xlink:href="#HelveticaNeue-Medium-30" x="111.199982"/>
      </g>
     </g>
    </g>
   </g>
   <g id="patch_3">
    <path d="M 39.27358 119.83 
L 39.27358 105.180289 
L 41.30267 105.180289 
L 41.30267 95.413815 
L 43.331761 95.413815 
L 43.331761 104.569884 
L 45.360852 104.569884 
L 45.360852 107.621908 
L 47.389943 107.621908 
L 47.389943 106.401098 
L 49.419034 106.401098 
L 49.419034 105.180289 
L 51.448125 105.180289 
L 51.448125 107.011503 
L 53.477216 107.011503 
L 53.477216 103.349075 
L 55.506307 103.349075 
L 55.506307 102.128266 
L 57.535398 102.128266 
L 57.535398 101.517861 
L 59.564489 101.517861 
L 59.564489 102.128266 
L 61.59358 102.128266 
L 61.59358 105.180289 
L 63.62267 105.180289 
L 63.62267 111.284335 
L 65.651761 111.284335 
L 65.651761 108.842717 
L 67.680852 108.842717 
L 67.680852 102.738671 
L 69.709943 102.738671 
L 69.709943 107.011503 
L 71.739034 107.011503 
L 71.739034 100.907457 
L 73.768125 100.907457 
L 73.768125 104.569884 
L 75.797216 104.569884 
L 75.797216 113.115549 
L 77.826307 113.115549 
L 77.826307 103.349075 
L 79.855398 103.349075 
L 79.855398 99.686647 
L 81.884489 99.686647 
L 81.884489 105.790694 
L 83.91358 105.790694 
L 83.91358 103.349075 
L 85.94267 103.349075 
L 85.94267 102.128266 
L 87.971761 102.128266 
L 87.971761 106.401098 
L 90.000852 106.401098 
L 90.000852 108.232312 
L 92.029943 108.232312 
L 92.029943 104.569884 
L 94.059034 104.569884 
L 94.059034 105.180289 
L 96.088125 105.180289 
L 96.088125 103.349075 
L 98.117216 103.349075 
L 98.117216 106.401098 
L 100.146307 106.401098 
L 100.146307 108.842717 
L 102.175398 108.842717 
L 102.175398 106.401098 
L 104.204489 106.401098 
L 104.204489 107.621908 
L 108.26267 107.621908 
L 108.26267 105.790694 
L 112.320852 105.790694 
L 112.320852 107.011503 
L 114.349943 107.011503 
L 114.349943 105.180289 
L 116.379034 105.180289 
L 116.379034 107.621908 
L 118.408125 107.621908 
L 118.408125 105.790694 
L 120.437216 105.790694 
L 120.437216 107.011503 
L 124.495398 107.011503 
L 124.495398 102.738671 
L 126.524489 102.738671 
L 126.524489 106.401098 
L 128.55358 106.401098 
L 128.55358 100.297052 
L 130.58267 100.297052 
L 130.58267 108.232312 
L 132.611761 108.232312 
L 132.611761 106.401098 
L 134.640852 106.401098 
L 134.640852 108.232312 
L 136.669943 108.232312 
L 136.669943 110.063526 
L 138.699034 110.063526 
L 138.699034 106.401098 
L 140.728125 106.401098 
L 140.728125 101.517861 
L 142.757216 101.517861 
L 142.757216 100.907457 
L 146.815398 100.907457 
L 146.815398 108.232312 
L 148.844489 108.232312 
L 148.844489 104.569884 
L 150.87358 104.569884 
L 150.87358 110.063526 
L 152.90267 110.063526 
L 152.90267 103.95948 
L 154.931761 103.95948 
L 154.931761 105.790694 
L 156.960852 105.790694 
L 156.960852 104.569884 
L 158.989943 104.569884 
L 158.989943 108.232312 
L 161.019034 108.232312 
L 161.019034 104.569884 
L 163.048125 104.569884 
L 163.048125 106.401098 
L 165.077216 106.401098 
L 165.077216 102.738671 
L 167.106307 102.738671 
L 167.106307 107.621908 
L 169.135398 107.621908 
L 169.135398 108.232312 
L 171.164489 108.232312 
L 171.164489 101.517861 
L 173.19358 101.517861 
L 173.19358 107.011503 
L 175.22267 107.011503 
L 175.22267 107.621908 
L 177.251761 107.621908 
L 177.251761 100.297052 
L 179.280852 100.297052 
L 179.280852 91.751387 
L 181.309943 91.751387 
L 181.309943 100.297052 
L 183.339034 100.297052 
L 183.339034 102.738671 
L 185.368125 102.738671 
L 185.368125 93.582601 
L 187.397216 93.582601 
L 187.397216 89.920173 
L 189.426307 89.920173 
L 189.426307 81.374509 
L 191.455398 81.374509 
L 191.455398 75.270462 
L 193.484489 75.270462 
L 193.484489 53.295896 
L 195.51358 53.295896 
L 195.51358 56.347919 
L 199.571761 56.347919 
L 199.571761 30.710925 
L 201.600852 30.710925 
L 201.600852 23.386069 
L 203.629943 23.386069 
L 203.629943 20.334046 
L 205.659034 20.334046 
L 205.659034 14.23 
L 207.688125 14.23 
L 207.688125 34.983757 
L 209.717216 34.983757 
L 209.717216 28.879711 
L 211.746307 28.879711 
L 211.746307 42.308613 
L 213.775398 42.308613 
L 213.775398 49.023064 
L 215.804489 49.023064 
L 215.804489 47.802254 
L 217.83358 47.802254 
L 217.83358 52.685491 
L 219.86267 52.685491 
L 219.86267 69.776821 
L 221.891761 69.776821 
L 221.891761 85.647341 
L 223.920852 85.647341 
L 223.920852 86.257746 
L 225.949943 86.257746 
L 225.949943 94.193006 
L 227.979034 94.193006 
L 227.979034 103.349075 
L 230.008125 103.349075 
L 230.008125 109.453121 
L 232.037216 109.453121 
L 232.037216 113.115549 
L 234.066307 113.115549 
L 234.066307 114.946763 
L 236.095398 114.946763 
L 236.095398 117.998786 
L 238.124489 117.998786 
L 238.124489 116.167572 
L 240.15358 116.167572 
L 240.15358 117.388382 
L 242.18267 117.388382 
L 242.18267 119.83 
L 242.18267 119.83 
" clip-path="url(#pfbdb619849)" style="fill: none; stroke: #008fd5; stroke-linejoin: miter"/>
   </g>
   <g id="patch_4">
    <path d="M 29.128125 119.83 
L 29.128125 8.95 
" style="fill: none; stroke: #000000; stroke-width: 0.8; stroke-linejoin: miter; stroke-linecap: square"/>
   </g>
   <g id="patch_5">
    <path d="M 252.328125 119.83 
L 252.328125 8.95 
" style="fill: none; stroke: #000000; stroke-width: 0.8; stroke-linejoin: miter; stroke-linecap: square"/>
   </g>
   <g id="patch_6">
    <path d="M 29.128125 119.83 
L 252.328125 119.83 
" style="fill: none; stroke: #000000; stroke-width: 0.8; stroke-linejoin: miter; stroke-linecap: square"/>
   </g>
   <g id="patch_7">
    <path d="M 29.128125 8.95 
L 252.328125 8.95 
" style="fill: none; stroke: #000000; stroke-width: 0.8; stroke-linejoin: miter; stroke-linecap: square"/>
   </g>
  </g>
 </g>
 <defs>
  <clipPath id="pfbdb619849">
   <rect x="29.128125" y="8.95" width="223.2" height="110.88"/>
  </clipPath>
 </defs>
</svg>
