<?xml version="1.0" encoding="utf-8" standalone="no"?>
<!DOCTYPE svg PUBLIC "-//W3C//DTD SVG 1.1//EN"
  "http://www.w3.org/Graphics/SVG/1.1/DTD/svg11.dtd">
<svg xmlns:xlink="http://www.w3.org/1999/xlink" width="405.609062pt" height="309.612pt" viewBox="0 0 405.609062 309.612" xmlns="http://www.w3.org/2000/svg" version="1.1">
 <metadata>
  <rdf:RDF xmlns:dc="http://purl.org/dc/elements/1.1/" xmlns:cc="http://creativecommons.org/ns#" xmlns:rdf="http://www.w3.org/1999/02/22-rdf-syntax-ns#">
   <cc:Work>
    <dc:type rdf:resource="http://purl.org/dc/dcmitype/StillImage"/>
    <dc:date>2024-05-29T23:18:39.514148</dc:date>
    <dc:format>image/svg+xml</dc:format>
    <dc:creator>
     <cc:Agent>
      <dc:title>Matplotlib v3.9.0, https://matplotlib.org/</dc:title>
     </cc:Agent>
    </dc:creator>
   </cc:Work>
  </rdf:RDF>
 </metadata>
 <defs>
  <style type="text/css">*{stroke-linejoin: round; stroke-linecap: butt}</style>
 </defs>
 <g id="figure_1">
  <g id="patch_1">
   <path d="M 0 309.612 
L 405.609063 309.612 
L 405.609063 0 
L 0 0 
z
" style="fill: #ffffff"/>
  </g>
  <g id="axes_1">
   <g id="patch_2">
    <path d="M 39.539063 275.062 
L 396.659063 275.062 
L 396.659063 8.95 
L 39.539063 8.95 
z
" style="fill: #ffffff"/>
   </g>
   <g id="matplotlib.axis_1">
    <g id="xtick_1">
     <g id="line2d_1">
      <defs>
       <path id="m27d9e5b84c" d="M 0 1.75 
L 0 -1.75 
" style="stroke: #000000; stroke-width: 0.8"/>
      </defs>
      <g>
       <use xlink:href="#m27d9e5b84c" x="55.77179" y="275.062" style="stroke: #000000; stroke-width: 0.8"/>
      </g>
     </g>
     <g id="line2d_2">
      <g>
       <use xlink:href="#m27d9e5b84c" x="55.77179" y="8.95" style="stroke: #000000; stroke-width: 0.8"/>
      </g>
     </g>
     <g id="text_1">
      <!-- 0 -->
      <g transform="translate(52.992102 287.452625) scale(0.1 -0.1)">
       <defs>
        <path id="HelveticaNeue-Medium-30" d="M 1779 4570 
Q 2259 4570 2563 4349 
Q 2867 4128 3036 3785 
Q 3206 3443 3267 3033 
Q 3328 2624 3328 2240 
Q 3328 1856 3267 1446 
Q 3206 1037 3036 694 
Q 2867 352 2563 131 
Q 2259 -90 1779 -90 
Q 1299 -90 995 131 
Q 691 352 521 694 
Q 352 1037 291 1446 
Q 230 1856 230 2240 
Q 230 2624 291 3033 
Q 352 3443 521 3785 
Q 691 4128 995 4349 
Q 1299 4570 1779 4570 
z
M 1779 518 
Q 2016 518 2176 656 
Q 2336 794 2429 1027 
Q 2522 1261 2560 1574 
Q 2598 1888 2598 2240 
Q 2598 2592 2560 2902 
Q 2522 3213 2429 3449 
Q 2336 3686 2176 3824 
Q 2016 3962 1779 3962 
Q 1536 3962 1379 3824 
Q 1222 3686 1129 3449 
Q 1037 3213 998 2902 
Q 960 2592 960 2240 
Q 960 1888 998 1574 
Q 1037 1261 1129 1027 
Q 1222 794 1379 656 
Q 1536 518 1779 518 
z
" transform="scale(0.015625)"/>
       </defs>
       <use xlink:href="#HelveticaNeue-Medium-30"/>
      </g>
     </g>
    </g>
    <g id="xtick_2">
     <g id="line2d_3">
      <g>
       <use xlink:href="#m27d9e5b84c" x="120.702699" y="275.062" style="stroke: #000000; stroke-width: 0.8"/>
      </g>
     </g>
     <g id="line2d_4">
      <g>
       <use xlink:href="#m27d9e5b84c" x="120.702699" y="8.95" style="stroke: #000000; stroke-width: 0.8"/>
      </g>
     </g>
     <g id="text_2">
      <!-- 1 -->
      <g transform="translate(117.923011 287.452625) scale(0.1 -0.1)">
       <defs>
        <path id="HelveticaNeue-Medium-31" d="M 339 3738 
Q 570 3738 787 3776 
Q 1005 3814 1181 3904 
Q 1357 3994 1481 4134 
Q 1606 4275 1645 4480 
L 2240 4480 
L 2240 0 
L 1440 0 
L 1440 3162 
L 339 3162 
L 339 3738 
z
" transform="scale(0.015625)"/>
       </defs>
       <use xlink:href="#HelveticaNeue-Medium-31"/>
      </g>
     </g>
    </g>
    <g id="xtick_3">
     <g id="line2d_5">
      <g>
       <use xlink:href="#m27d9e5b84c" x="185.633608" y="275.062" style="stroke: #000000; stroke-width: 0.8"/>
      </g>
     </g>
     <g id="line2d_6">
      <g>
       <use xlink:href="#m27d9e5b84c" x="185.633608" y="8.95" style="stroke: #000000; stroke-width: 0.8"/>
      </g>
     </g>
     <g id="text_3">
      <!-- 2 -->
      <g transform="translate(182.85392 287.452625) scale(0.1 -0.1)">
       <defs>
        <path id="HelveticaNeue-Medium-32" d="M 3309 0 
L 250 0 
Q 256 557 518 973 
Q 781 1389 1235 1696 
Q 1453 1856 1689 2006 
Q 1926 2157 2124 2329 
Q 2323 2502 2451 2704 
Q 2579 2906 2586 3168 
Q 2586 3290 2557 3427 
Q 2528 3565 2445 3683 
Q 2362 3802 2214 3882 
Q 2067 3962 1830 3962 
Q 1613 3962 1469 3875 
Q 1325 3789 1238 3638 
Q 1152 3488 1110 3283 
Q 1069 3078 1062 2842 
L 333 2842 
Q 333 3213 432 3529 
Q 531 3846 729 4076 
Q 928 4307 1213 4438 
Q 1498 4570 1875 4570 
Q 2285 4570 2560 4435 
Q 2835 4301 3004 4096 
Q 3174 3891 3244 3651 
Q 3315 3411 3315 3194 
Q 3315 2925 3232 2707 
Q 3149 2490 3008 2307 
Q 2867 2125 2688 1971 
Q 2509 1818 2317 1683 
Q 2125 1549 1933 1427 
Q 1741 1306 1577 1184 
Q 1414 1062 1292 931 
Q 1171 800 1126 653 
L 3309 653 
L 3309 0 
z
" transform="scale(0.015625)"/>
       </defs>
       <use xlink:href="#HelveticaNeue-Medium-32"/>
      </g>
     </g>
    </g>
    <g id="xtick_4">
     <g id="line2d_7">
      <g>
       <use xlink:href="#m27d9e5b84c" x="250.564517" y="275.062" style="stroke: #000000; stroke-width: 0.8"/>
      </g>
     </g>
     <g id="line2d_8">
      <g>
       <use xlink:href="#m27d9e5b84c" x="250.564517" y="8.95" style="stroke: #000000; stroke-width: 0.8"/>
      </g>
     </g>
     <g id="text_4">
      <!-- 3 -->
      <g transform="translate(247.78483 287.452625) scale(0.1 -0.1)">
       <defs>
        <path id="HelveticaNeue-Medium-33" d="M 1459 2624 
Q 1638 2618 1817 2650 
Q 1997 2682 2137 2762 
Q 2278 2842 2364 2982 
Q 2451 3123 2451 3328 
Q 2451 3616 2256 3789 
Q 2061 3962 1754 3962 
Q 1562 3962 1421 3885 
Q 1280 3808 1187 3677 
Q 1094 3546 1049 3382 
Q 1005 3219 1011 3046 
L 282 3046 
Q 294 3373 403 3651 
Q 512 3930 701 4134 
Q 890 4339 1158 4454 
Q 1427 4570 1766 4570 
Q 2029 4570 2281 4493 
Q 2534 4416 2736 4269 
Q 2938 4122 3059 3894 
Q 3181 3667 3181 3373 
Q 3181 3034 3027 2781 
Q 2874 2528 2547 2413 
L 2547 2400 
Q 2931 2323 3145 2019 
Q 3360 1715 3360 1280 
Q 3360 960 3232 707 
Q 3104 454 2886 278 
Q 2669 102 2381 6 
Q 2093 -90 1773 -90 
Q 1382 -90 1091 22 
Q 800 134 605 339 
Q 410 544 307 832 
Q 205 1120 198 1472 
L 928 1472 
Q 915 1062 1129 790 
Q 1344 518 1773 518 
Q 2138 518 2384 726 
Q 2630 934 2630 1318 
Q 2630 1581 2528 1734 
Q 2426 1888 2259 1968 
Q 2093 2048 1885 2067 
Q 1677 2086 1459 2080 
L 1459 2624 
z
" transform="scale(0.015625)"/>
       </defs>
       <use xlink:href="#HelveticaNeue-Medium-33"/>
      </g>
     </g>
    </g>
    <g id="xtick_5">
     <g id="line2d_9">
      <g>
       <use xlink:href="#m27d9e5b84c" x="315.495426" y="275.062" style="stroke: #000000; stroke-width: 0.8"/>
      </g>
     </g>
     <g id="line2d_10">
      <g>
       <use xlink:href="#m27d9e5b84c" x="315.495426" y="8.95" style="stroke: #000000; stroke-width: 0.8"/>
      </g>
     </g>
     <g id="text_5">
      <!-- 4 -->
      <g transform="translate(312.715739 287.452625) scale(0.1 -0.1)">
       <defs>
        <path id="HelveticaNeue-Medium-34" d="M 717 1638 
L 2074 1638 
L 2074 3610 
L 2061 3610 
L 717 1638 
z
M 3341 1062 
L 2765 1062 
L 2765 0 
L 2074 0 
L 2074 1062 
L 154 1062 
L 154 1786 
L 2074 4480 
L 2765 4480 
L 2765 1638 
L 3341 1638 
L 3341 1062 
z
" transform="scale(0.015625)"/>
       </defs>
       <use xlink:href="#HelveticaNeue-Medium-34"/>
      </g>
     </g>
    </g>
    <g id="xtick_6">
     <g id="line2d_11">
      <g>
       <use xlink:href="#m27d9e5b84c" x="380.426335" y="275.062" style="stroke: #000000; stroke-width: 0.8"/>
      </g>
     </g>
     <g id="line2d_12">
      <g>
       <use xlink:href="#m27d9e5b84c" x="380.426335" y="8.95" style="stroke: #000000; stroke-width: 0.8"/>
      </g>
     </g>
     <g id="text_6">
      <!-- 5 -->
      <g transform="translate(377.646648 287.452625) scale(0.1 -0.1)">
       <defs>
        <path id="HelveticaNeue-Medium-35" d="M 787 4480 
L 3104 4480 
L 3104 3827 
L 1331 3827 
L 1101 2688 
L 1114 2675 
Q 1261 2842 1488 2928 
Q 1715 3014 1939 3014 
Q 2272 3014 2534 2902 
Q 2797 2790 2976 2588 
Q 3155 2387 3248 2112 
Q 3341 1837 3341 1517 
Q 3341 1248 3254 963 
Q 3168 678 2979 444 
Q 2790 211 2496 60 
Q 2202 -90 1792 -90 
Q 1466 -90 1187 -3 
Q 909 83 697 256 
Q 486 429 361 681 
Q 237 934 224 1274 
L 954 1274 
Q 986 909 1203 713 
Q 1421 518 1779 518 
Q 2010 518 2170 595 
Q 2330 672 2429 806 
Q 2528 941 2569 1120 
Q 2611 1299 2611 1504 
Q 2611 1690 2560 1859 
Q 2509 2029 2406 2157 
Q 2304 2285 2141 2361 
Q 1978 2438 1760 2438 
Q 1530 2438 1328 2352 
Q 1126 2266 1037 2029 
L 307 2029 
L 787 4480 
z
" transform="scale(0.015625)"/>
       </defs>
       <use xlink:href="#HelveticaNeue-Medium-35"/>
      </g>
     </g>
    </g>
    <g id="text_7">
     <!-- Model parameter x -->
     <g transform="translate(174.476406 300.502625) scale(0.1 -0.1)">
      <defs>
       <path id="HelveticaNeue-Medium-4d" d="M 474 4570 
L 1600 4570 
L 2861 992 
L 2874 992 
L 4102 4570 
L 5216 4570 
L 5216 0 
L 4454 0 
L 4454 3526 
L 4442 3526 
L 3174 0 
L 2515 0 
L 1248 3526 
L 1235 3526 
L 1235 0 
L 474 0 
L 474 4570 
z
" transform="scale(0.015625)"/>
       <path id="HelveticaNeue-Medium-6f" d="M 1901 -90 
Q 1504 -90 1193 41 
Q 883 173 668 403 
Q 454 634 342 954 
Q 230 1274 230 1658 
Q 230 2035 342 2355 
Q 454 2675 668 2905 
Q 883 3136 1193 3267 
Q 1504 3398 1901 3398 
Q 2298 3398 2608 3267 
Q 2918 3136 3132 2905 
Q 3347 2675 3459 2355 
Q 3571 2035 3571 1658 
Q 3571 1274 3459 954 
Q 3347 634 3132 403 
Q 2918 173 2608 41 
Q 2298 -90 1901 -90 
z
M 1901 486 
Q 2144 486 2323 588 
Q 2502 691 2617 857 
Q 2733 1024 2787 1232 
Q 2842 1440 2842 1658 
Q 2842 1869 2787 2080 
Q 2733 2291 2617 2454 
Q 2502 2618 2323 2720 
Q 2144 2822 1901 2822 
Q 1658 2822 1478 2720 
Q 1299 2618 1184 2454 
Q 1069 2291 1014 2080 
Q 960 1869 960 1658 
Q 960 1440 1014 1232 
Q 1069 1024 1184 857 
Q 1299 691 1478 588 
Q 1658 486 1901 486 
z
" transform="scale(0.015625)"/>
       <path id="HelveticaNeue-Medium-64" d="M 3501 0 
L 2810 0 
L 2810 448 
L 2797 448 
Q 2650 160 2368 35 
Q 2086 -90 1773 -90 
Q 1382 -90 1091 48 
Q 800 186 608 422 
Q 416 659 320 982 
Q 224 1306 224 1677 
Q 224 2125 345 2451 
Q 467 2778 668 2989 
Q 870 3200 1129 3299 
Q 1389 3398 1658 3398 
Q 1811 3398 1971 3369 
Q 2131 3341 2278 3277 
Q 2426 3213 2550 3113 
Q 2675 3014 2758 2880 
L 2771 2880 
L 2771 4570 
L 3501 4570 
L 3501 0 
z
M 954 1619 
Q 954 1408 1008 1203 
Q 1062 998 1174 838 
Q 1286 678 1459 582 
Q 1632 486 1869 486 
Q 2112 486 2288 588 
Q 2464 691 2576 857 
Q 2688 1024 2742 1232 
Q 2797 1440 2797 1658 
Q 2797 2208 2550 2515 
Q 2304 2822 1882 2822 
Q 1626 2822 1450 2716 
Q 1274 2611 1162 2441 
Q 1050 2272 1002 2057 
Q 954 1843 954 1619 
z
" transform="scale(0.015625)"/>
       <path id="HelveticaNeue-Medium-65" d="M 2656 1946 
Q 2643 2118 2582 2278 
Q 2522 2438 2416 2556 
Q 2310 2675 2160 2748 
Q 2010 2822 1824 2822 
Q 1632 2822 1475 2755 
Q 1318 2688 1206 2569 
Q 1094 2451 1027 2291 
Q 960 2131 954 1946 
L 2656 1946 
z
M 954 1466 
Q 954 1274 1008 1094 
Q 1062 915 1171 780 
Q 1280 646 1446 566 
Q 1613 486 1843 486 
Q 2163 486 2358 624 
Q 2554 762 2650 1037 
L 3341 1037 
Q 3283 768 3142 557 
Q 3002 346 2803 202 
Q 2605 58 2358 -16 
Q 2112 -90 1843 -90 
Q 1453 -90 1152 38 
Q 851 166 643 396 
Q 435 627 329 947 
Q 224 1267 224 1651 
Q 224 2003 336 2320 
Q 448 2637 656 2877 
Q 864 3117 1158 3257 
Q 1453 3398 1824 3398 
Q 2214 3398 2524 3235 
Q 2835 3072 3040 2803 
Q 3245 2534 3337 2185 
Q 3430 1837 3386 1466 
L 954 1466 
z
" transform="scale(0.015625)"/>
       <path id="HelveticaNeue-Medium-6c" d="M 403 4570 
L 1133 4570 
L 1133 0 
L 403 0 
L 403 4570 
z
" transform="scale(0.015625)"/>
       <path id="HelveticaNeue-Medium-20" transform="scale(0.015625)"/>
       <path id="HelveticaNeue-Medium-70" d="M 403 3309 
L 1094 3309 
L 1094 2861 
L 1107 2861 
Q 1261 3149 1536 3273 
Q 1811 3398 2131 3398 
Q 2522 3398 2813 3260 
Q 3104 3123 3296 2883 
Q 3488 2643 3584 2323 
Q 3680 2003 3680 1638 
Q 3680 1306 3593 992 
Q 3507 678 3331 438 
Q 3155 198 2886 54 
Q 2618 -90 2253 -90 
Q 2093 -90 1933 -61 
Q 1773 -32 1625 32 
Q 1478 96 1353 195 
Q 1229 294 1146 429 
L 1133 429 
L 1133 -1222 
L 403 -1222 
L 403 3309 
z
M 2950 1651 
Q 2950 1875 2892 2086 
Q 2835 2298 2720 2461 
Q 2605 2624 2432 2723 
Q 2259 2822 2035 2822 
Q 1574 2822 1340 2502 
Q 1107 2182 1107 1651 
Q 1107 1402 1168 1187 
Q 1229 973 1350 819 
Q 1472 666 1641 576 
Q 1811 486 2035 486 
Q 2285 486 2457 588 
Q 2630 691 2742 854 
Q 2854 1018 2902 1226 
Q 2950 1434 2950 1651 
z
" transform="scale(0.015625)"/>
       <path id="HelveticaNeue-Medium-61" d="M 3155 736 
Q 3155 602 3190 544 
Q 3226 486 3328 486 
Q 3360 486 3405 486 
Q 3450 486 3507 499 
L 3507 -6 
Q 3469 -19 3408 -35 
Q 3347 -51 3283 -64 
Q 3219 -77 3155 -83 
Q 3091 -90 3046 -90 
Q 2822 -90 2675 0 
Q 2528 90 2483 314 
Q 2266 102 1949 6 
Q 1632 -90 1338 -90 
Q 1114 -90 909 -29 
Q 704 32 547 150 
Q 390 269 297 451 
Q 205 634 205 877 
Q 205 1184 317 1376 
Q 429 1568 611 1677 
Q 794 1786 1021 1834 
Q 1248 1882 1478 1907 
Q 1677 1946 1856 1962 
Q 2035 1978 2172 2016 
Q 2310 2054 2390 2134 
Q 2470 2214 2470 2374 
Q 2470 2515 2403 2604 
Q 2336 2694 2237 2742 
Q 2138 2790 2016 2806 
Q 1894 2822 1786 2822 
Q 1478 2822 1280 2694 
Q 1082 2566 1056 2298 
L 326 2298 
Q 346 2618 480 2829 
Q 614 3040 822 3168 
Q 1030 3296 1292 3347 
Q 1555 3398 1830 3398 
Q 2074 3398 2310 3347 
Q 2547 3296 2736 3181 
Q 2925 3066 3040 2883 
Q 3155 2701 3155 2438 
L 3155 736 
z
M 2426 1658 
Q 2259 1549 2016 1526 
Q 1773 1504 1530 1459 
Q 1414 1440 1305 1405 
Q 1197 1370 1113 1309 
Q 1030 1248 982 1149 
Q 934 1050 934 909 
Q 934 787 1004 704 
Q 1075 621 1174 573 
Q 1274 525 1392 505 
Q 1510 486 1606 486 
Q 1728 486 1869 518 
Q 2010 550 2134 627 
Q 2259 704 2342 822 
Q 2426 941 2426 1114 
L 2426 1658 
z
" transform="scale(0.015625)"/>
       <path id="HelveticaNeue-Medium-72" d="M 384 3309 
L 1069 3309 
L 1069 2669 
L 1082 2669 
Q 1114 2803 1206 2931 
Q 1299 3059 1430 3164 
Q 1562 3270 1722 3334 
Q 1882 3398 2048 3398 
Q 2176 3398 2224 3392 
Q 2272 3386 2323 3379 
L 2323 2675 
Q 2246 2688 2166 2697 
Q 2086 2707 2010 2707 
Q 1824 2707 1661 2633 
Q 1498 2560 1376 2416 
Q 1254 2272 1184 2061 
Q 1114 1850 1114 1574 
L 1114 0 
L 384 0 
L 384 3309 
z
" transform="scale(0.015625)"/>
       <path id="HelveticaNeue-Medium-6d" d="M 384 3309 
L 1075 3309 
L 1075 2848 
L 1094 2848 
Q 1178 2970 1274 3072 
Q 1370 3174 1488 3244 
Q 1606 3315 1760 3356 
Q 1914 3398 2112 3398 
Q 2413 3398 2672 3264 
Q 2931 3130 3040 2848 
Q 3226 3104 3469 3251 
Q 3712 3398 4077 3398 
Q 4602 3398 4893 3142 
Q 5184 2886 5184 2285 
L 5184 0 
L 4454 0 
L 4454 1933 
Q 4454 2131 4441 2294 
Q 4429 2458 4368 2576 
Q 4307 2694 4185 2758 
Q 4064 2822 3853 2822 
Q 3482 2822 3315 2592 
Q 3149 2362 3149 1939 
L 3149 0 
L 2419 0 
L 2419 2125 
Q 2419 2470 2294 2646 
Q 2170 2822 1837 2822 
Q 1696 2822 1565 2764 
Q 1434 2707 1334 2598 
Q 1235 2490 1174 2330 
Q 1114 2170 1114 1965 
L 1114 0 
L 384 0 
L 384 3309 
z
" transform="scale(0.015625)"/>
       <path id="HelveticaNeue-Medium-74" d="M 51 3309 
L 602 3309 
L 602 4301 
L 1331 4301 
L 1331 3309 
L 1990 3309 
L 1990 2765 
L 1331 2765 
L 1331 998 
Q 1331 883 1340 800 
Q 1350 717 1385 659 
Q 1421 602 1491 573 
Q 1562 544 1683 544 
Q 1760 544 1837 547 
Q 1914 550 1990 570 
L 1990 6 
Q 1869 -6 1753 -19 
Q 1638 -32 1517 -32 
Q 1229 -32 1053 22 
Q 877 77 777 182 
Q 678 288 643 448 
Q 608 608 602 813 
L 602 2765 
L 51 2765 
L 51 3309 
z
" transform="scale(0.015625)"/>
       <path id="HelveticaNeue-Medium-78" d="M 1274 1741 
L 128 3309 
L 1011 3309 
L 1702 2291 
L 2426 3309 
L 3270 3309 
L 2144 1779 
L 3411 0 
L 2534 0 
L 1696 1222 
L 883 0 
L 26 0 
L 1274 1741 
z
" transform="scale(0.015625)"/>
      </defs>
      <use xlink:href="#HelveticaNeue-Medium-4d"/>
      <use xlink:href="#HelveticaNeue-Medium-6f" x="88.899994"/>
      <use xlink:href="#HelveticaNeue-Medium-64" x="148.199982"/>
      <use xlink:href="#HelveticaNeue-Medium-65" x="209.299973"/>
      <use xlink:href="#HelveticaNeue-Medium-6c" x="264.899963"/>
      <use xlink:href="#HelveticaNeue-Medium-20" x="288.999954"/>
      <use xlink:href="#HelveticaNeue-Medium-70" x="316.799942"/>
      <use xlink:href="#HelveticaNeue-Medium-61" x="377.899933"/>
      <use xlink:href="#HelveticaNeue-Medium-72" x="433.499924"/>
      <use xlink:href="#HelveticaNeue-Medium-61" x="468.699921"/>
      <use xlink:href="#HelveticaNeue-Medium-6d" x="524.299911"/>
      <use xlink:href="#HelveticaNeue-Medium-65" x="611.299896"/>
      <use xlink:href="#HelveticaNeue-Medium-74" x="666.899887"/>
      <use xlink:href="#HelveticaNeue-Medium-65" x="700.199875"/>
      <use xlink:href="#HelveticaNeue-Medium-72" x="755.799866"/>
      <use xlink:href="#HelveticaNeue-Medium-20" x="790.999863"/>
      <use xlink:href="#HelveticaNeue-Medium-78" x="818.79985"/>
     </g>
    </g>
   </g>
   <g id="matplotlib.axis_2">
    <g id="ytick_1">
     <g id="line2d_13">
      <defs>
       <path id="m552d71561b" d="M 1.75 0 
L -1.75 -0 
" style="stroke: #000000; stroke-width: 0.8"/>
      </defs>
      <g>
       <use xlink:href="#m552d71561b" x="39.539063" y="262.966" style="stroke: #000000; stroke-width: 0.8"/>
      </g>
     </g>
     <g id="line2d_14">
      <g>
       <use xlink:href="#m552d71561b" x="396.659063" y="262.966" style="stroke: #000000; stroke-width: 0.8"/>
      </g>
     </g>
     <g id="text_8">
      <!-- 0.0 -->
      <g transform="translate(20.390625 266.536312) scale(0.1 -0.1)">
       <defs>
        <path id="HelveticaNeue-Medium-2e" d="M 442 864 
L 1331 864 
L 1331 0 
L 442 0 
L 442 864 
z
" transform="scale(0.015625)"/>
       </defs>
       <use xlink:href="#HelveticaNeue-Medium-30"/>
       <use xlink:href="#HelveticaNeue-Medium-2e" x="55.599991"/>
       <use xlink:href="#HelveticaNeue-Medium-30" x="83.399979"/>
      </g>
     </g>
    </g>
    <g id="ytick_2">
     <g id="line2d_15">
      <g>
       <use xlink:href="#m552d71561b" x="39.539063" y="226.57671" style="stroke: #000000; stroke-width: 0.8"/>
      </g>
     </g>
     <g id="line2d_16">
      <g>
       <use xlink:href="#m552d71561b" x="396.659063" y="226.57671" style="stroke: #000000; stroke-width: 0.8"/>
      </g>
     </g>
     <g id="text_9">
      <!-- 0.2 -->
      <g transform="translate(20.390625 230.147023) scale(0.1 -0.1)">
       <use xlink:href="#HelveticaNeue-Medium-30"/>
       <use xlink:href="#HelveticaNeue-Medium-2e" x="55.599991"/>
       <use xlink:href="#HelveticaNeue-Medium-32" x="83.399979"/>
      </g>
     </g>
    </g>
    <g id="ytick_3">
     <g id="line2d_17">
      <g>
       <use xlink:href="#m552d71561b" x="39.539063" y="190.18742" style="stroke: #000000; stroke-width: 0.8"/>
      </g>
     </g>
     <g id="line2d_18">
      <g>
       <use xlink:href="#m552d71561b" x="396.659063" y="190.18742" style="stroke: #000000; stroke-width: 0.8"/>
      </g>
     </g>
     <g id="text_10">
      <!-- 0.4 -->
      <g transform="translate(20.390625 193.757733) scale(0.1 -0.1)">
       <use xlink:href="#HelveticaNeue-Medium-30"/>
       <use xlink:href="#HelveticaNeue-Medium-2e" x="55.599991"/>
       <use xlink:href="#HelveticaNeue-Medium-34" x="83.399979"/>
      </g>
     </g>
    </g>
    <g id="ytick_4">
     <g id="line2d_19">
      <g>
       <use xlink:href="#m552d71561b" x="39.539063" y="153.798131" style="stroke: #000000; stroke-width: 0.8"/>
      </g>
     </g>
     <g id="line2d_20">
      <g>
       <use xlink:href="#m552d71561b" x="396.659063" y="153.798131" style="stroke: #000000; stroke-width: 0.8"/>
      </g>
     </g>
     <g id="text_11">
      <!-- 0.6 -->
      <g transform="translate(20.390625 157.368443) scale(0.1 -0.1)">
       <defs>
        <path id="HelveticaNeue-Medium-36" d="M 2528 3347 
Q 2502 3622 2332 3792 
Q 2163 3962 1875 3962 
Q 1677 3962 1533 3888 
Q 1389 3814 1289 3692 
Q 1190 3571 1129 3414 
Q 1069 3258 1030 3085 
Q 992 2912 976 2742 
Q 960 2573 947 2426 
L 960 2413 
Q 1107 2682 1366 2813 
Q 1626 2944 1926 2944 
Q 2259 2944 2521 2829 
Q 2784 2714 2966 2512 
Q 3149 2310 3245 2035 
Q 3341 1760 3341 1440 
Q 3341 1114 3235 835 
Q 3130 557 2931 349 
Q 2733 141 2457 25 
Q 2182 -90 1850 -90 
Q 1357 -90 1040 92 
Q 723 275 540 592 
Q 358 909 288 1334 
Q 218 1760 218 2253 
Q 218 2656 304 3065 
Q 390 3475 588 3811 
Q 787 4147 1110 4358 
Q 1434 4570 1907 4570 
Q 2176 4570 2413 4480 
Q 2650 4390 2832 4230 
Q 3014 4070 3129 3846 
Q 3245 3622 3258 3347 
L 2528 3347 
z
M 1824 518 
Q 2022 518 2169 598 
Q 2317 678 2416 806 
Q 2515 934 2563 1104 
Q 2611 1274 2611 1453 
Q 2611 1632 2563 1798 
Q 2515 1965 2416 2089 
Q 2317 2214 2169 2291 
Q 2022 2368 1824 2368 
Q 1626 2368 1475 2294 
Q 1325 2221 1222 2096 
Q 1120 1971 1069 1804 
Q 1018 1638 1018 1453 
Q 1018 1267 1069 1100 
Q 1120 934 1222 803 
Q 1325 672 1475 595 
Q 1626 518 1824 518 
z
" transform="scale(0.015625)"/>
       </defs>
       <use xlink:href="#HelveticaNeue-Medium-30"/>
       <use xlink:href="#HelveticaNeue-Medium-2e" x="55.599991"/>
       <use xlink:href="#HelveticaNeue-Medium-36" x="83.399979"/>
      </g>
     </g>
    </g>
    <g id="ytick_5">
     <g id="line2d_21">
      <g>
       <use xlink:href="#m552d71561b" x="39.539063" y="117.408841" style="stroke: #000000; stroke-width: 0.8"/>
      </g>
     </g>
     <g id="line2d_22">
      <g>
       <use xlink:href="#m552d71561b" x="396.659063" y="117.408841" style="stroke: #000000; stroke-width: 0.8"/>
      </g>
     </g>
     <g id="text_12">
      <!-- 0.8 -->
      <g transform="translate(20.390625 120.979153) scale(0.1 -0.1)">
       <defs>
        <path id="HelveticaNeue-Medium-38" d="M 1779 3994 
Q 1485 3994 1280 3818 
Q 1075 3642 1075 3309 
Q 1075 2989 1273 2819 
Q 1472 2650 1779 2650 
Q 2086 2650 2284 2819 
Q 2483 2989 2483 3309 
Q 2483 3642 2278 3818 
Q 2074 3994 1779 3994 
z
M 1779 -90 
Q 1440 -90 1149 6 
Q 858 102 646 284 
Q 435 467 316 729 
Q 198 992 198 1318 
Q 198 1741 419 2029 
Q 640 2317 1018 2413 
L 1018 2426 
Q 710 2541 547 2781 
Q 384 3021 384 3347 
Q 384 3923 745 4246 
Q 1107 4570 1779 4570 
Q 2451 4570 2812 4246 
Q 3174 3923 3174 3347 
Q 3174 3021 3011 2781 
Q 2848 2541 2541 2426 
L 2541 2413 
Q 2918 2317 3139 2029 
Q 3360 1741 3360 1318 
Q 3360 992 3241 729 
Q 3123 467 2912 284 
Q 2701 102 2409 6 
Q 2118 -90 1779 -90 
z
M 1779 486 
Q 2144 486 2387 704 
Q 2630 922 2630 1318 
Q 2630 1690 2387 1898 
Q 2144 2106 1779 2106 
Q 1414 2106 1171 1898 
Q 928 1690 928 1318 
Q 928 922 1171 704 
Q 1414 486 1779 486 
z
" transform="scale(0.015625)"/>
       </defs>
       <use xlink:href="#HelveticaNeue-Medium-30"/>
       <use xlink:href="#HelveticaNeue-Medium-2e" x="55.599991"/>
       <use xlink:href="#HelveticaNeue-Medium-38" x="83.399979"/>
      </g>
     </g>
    </g>
    <g id="ytick_6">
     <g id="line2d_23">
      <g>
       <use xlink:href="#m552d71561b" x="39.539063" y="81.019551" style="stroke: #000000; stroke-width: 0.8"/>
      </g>
     </g>
     <g id="line2d_24">
      <g>
       <use xlink:href="#m552d71561b" x="396.659063" y="81.019551" style="stroke: #000000; stroke-width: 0.8"/>
      </g>
     </g>
     <g id="text_13">
      <!-- 1.0 -->
      <g transform="translate(20.390625 84.589863) scale(0.1 -0.1)">
       <use xlink:href="#HelveticaNeue-Medium-31"/>
       <use xlink:href="#HelveticaNeue-Medium-2e" x="55.599991"/>
       <use xlink:href="#HelveticaNeue-Medium-30" x="83.399979"/>
      </g>
     </g>
    </g>
    <g id="ytick_7">
     <g id="line2d_25">
      <g>
       <use xlink:href="#m552d71561b" x="39.539063" y="44.630261" style="stroke: #000000; stroke-width: 0.8"/>
      </g>
     </g>
     <g id="line2d_26">
      <g>
       <use xlink:href="#m552d71561b" x="396.659063" y="44.630261" style="stroke: #000000; stroke-width: 0.8"/>
      </g>
     </g>
     <g id="text_14">
      <!-- 1.2 -->
      <g transform="translate(20.390625 48.200574) scale(0.1 -0.1)">
       <use xlink:href="#HelveticaNeue-Medium-31"/>
       <use xlink:href="#HelveticaNeue-Medium-2e" x="55.599991"/>
       <use xlink:href="#HelveticaNeue-Medium-32" x="83.399979"/>
      </g>
     </g>
    </g>
    <g id="text_15">
     <!-- Probability -->
     <g transform="translate(14.340625 166.741937) rotate(-90) scale(0.1 -0.1)">
      <defs>
       <path id="HelveticaNeue-Medium-50" d="M 486 4570 
L 2502 4570 
Q 2989 4570 3296 4429 
Q 3603 4288 3769 4077 
Q 3936 3866 3997 3616 
Q 4058 3366 4058 3155 
Q 4058 2944 3997 2697 
Q 3936 2451 3769 2240 
Q 3603 2029 3296 1891 
Q 2989 1754 2502 1754 
L 1286 1754 
L 1286 0 
L 486 0 
L 486 4570 
z
M 1286 2406 
L 2458 2406 
Q 2592 2406 2733 2444 
Q 2874 2483 2992 2569 
Q 3110 2656 3184 2800 
Q 3258 2944 3258 3162 
Q 3258 3386 3194 3533 
Q 3130 3680 3021 3766 
Q 2912 3853 2771 3885 
Q 2630 3917 2470 3917 
L 1286 3917 
L 1286 2406 
z
" transform="scale(0.015625)"/>
       <path id="HelveticaNeue-Medium-62" d="M 403 4570 
L 1133 4570 
L 1133 2880 
L 1146 2880 
Q 1222 3002 1331 3098 
Q 1440 3194 1571 3261 
Q 1702 3328 1846 3363 
Q 1990 3398 2131 3398 
Q 2522 3398 2813 3260 
Q 3104 3123 3296 2883 
Q 3488 2643 3584 2323 
Q 3680 2003 3680 1638 
Q 3680 1306 3593 992 
Q 3507 678 3331 438 
Q 3155 198 2886 54 
Q 2618 -90 2253 -90 
Q 2086 -90 1916 -67 
Q 1747 -45 1593 19 
Q 1440 83 1315 185 
Q 1190 288 1107 454 
L 1094 454 
L 1094 0 
L 403 0 
L 403 4570 
z
M 2950 1651 
Q 2950 1875 2892 2086 
Q 2835 2298 2720 2461 
Q 2605 2624 2432 2723 
Q 2259 2822 2035 2822 
Q 1574 2822 1340 2502 
Q 1107 2182 1107 1651 
Q 1107 1402 1168 1187 
Q 1229 973 1350 819 
Q 1472 666 1641 576 
Q 1811 486 2035 486 
Q 2285 486 2457 588 
Q 2630 691 2742 854 
Q 2854 1018 2902 1226 
Q 2950 1434 2950 1651 
z
" transform="scale(0.015625)"/>
       <path id="HelveticaNeue-Medium-69" d="M 403 4570 
L 1133 4570 
L 1133 3878 
L 403 3878 
L 403 4570 
z
M 403 3309 
L 1133 3309 
L 1133 0 
L 403 0 
L 403 3309 
z
" transform="scale(0.015625)"/>
       <path id="HelveticaNeue-Medium-79" d="M 19 3309 
L 819 3309 
L 1683 838 
L 1696 838 
L 2534 3309 
L 3296 3309 
L 2010 -179 
Q 1920 -403 1833 -608 
Q 1747 -813 1622 -969 
Q 1498 -1126 1312 -1219 
Q 1126 -1312 838 -1312 
Q 582 -1312 333 -1274 
L 333 -659 
Q 422 -672 505 -688 
Q 589 -704 678 -704 
Q 806 -704 889 -672 
Q 973 -640 1027 -579 
Q 1082 -518 1120 -435 
Q 1158 -352 1190 -243 
L 1274 13 
L 19 3309 
z
" transform="scale(0.015625)"/>
      </defs>
      <use xlink:href="#HelveticaNeue-Medium-50"/>
      <use xlink:href="#HelveticaNeue-Medium-72" x="66.699997"/>
      <use xlink:href="#HelveticaNeue-Medium-6f" x="100.149994"/>
      <use xlink:href="#HelveticaNeue-Medium-62" x="159.449982"/>
      <use xlink:href="#HelveticaNeue-Medium-61" x="220.549973"/>
      <use xlink:href="#HelveticaNeue-Medium-62" x="276.149963"/>
      <use xlink:href="#HelveticaNeue-Medium-69" x="337.249954"/>
      <use xlink:href="#HelveticaNeue-Medium-6c" x="361.349945"/>
      <use xlink:href="#HelveticaNeue-Medium-69" x="385.449936"/>
      <use xlink:href="#HelveticaNeue-Medium-74" x="409.549927"/>
      <use xlink:href="#HelveticaNeue-Medium-79" x="442.849915"/>
     </g>
    </g>
   </g>
   <g id="line2d_27">
    <path d="M 55.77179 262.966 
L 108.660375 262.86759 
L 115.169739 262.617446 
L 119.238092 262.240041 
L 122.492774 261.700724 
L 124.933786 261.081555 
L 127.374797 260.203121 
L 129.002138 259.43125 
L 130.629479 258.475193 
L 132.256821 257.300229 
L 133.884162 255.867565 
L 135.511503 254.134487 
L 137.138844 252.054698 
L 138.766185 249.578887 
L 140.393526 246.65554 
L 142.020867 243.232032 
L 143.648208 239.255999 
L 145.275549 234.676996 
L 146.90289 229.448419 
L 148.530231 223.52966 
L 150.157572 216.888441 
L 151.784913 209.503253 
L 153.412255 201.365818 
L 155.853266 187.769985 
L 158.294278 172.603601 
L 160.735289 156.070168 
L 163.989972 132.45432 
L 171.313006 78.307479 
L 173.754018 62.070815 
L 175.381359 52.306618 
L 177.0087 43.604194 
L 178.636041 36.130956 
L 180.263382 30.034503 
L 181.077053 27.542073 
L 181.890723 25.43778 
L 182.704394 23.732463 
L 183.518065 22.434953 
L 184.331735 21.552 
L 185.145406 21.088207 
L 185.959076 21.046 
L 186.772747 21.425599 
L 187.586417 22.22502 
L 188.400088 23.44009 
L 189.213758 25.064486 
L 190.027429 27.089788 
L 190.841099 29.505552 
L 192.46844 35.457119 
L 194.095782 42.798949 
L 195.723123 51.385702 
L 197.350464 61.051712 
L 199.791475 77.17634 
L 203.046158 100.703271 
L 210.369192 154.926354 
L 212.810204 171.541036 
L 215.251216 186.806071 
L 217.692227 200.510835 
L 220.133239 212.547459 
L 221.76058 219.63327 
L 223.387921 225.982266 
L 225.015262 231.620559 
L 226.642603 236.584046 
L 228.269944 240.916008 
L 229.897285 244.66483 
L 231.524626 247.881941 
L 233.151967 250.619994 
L 234.779309 252.931316 
L 236.40665 254.866656 
L 238.033991 256.474203 
L 239.661332 257.798875 
L 241.288673 258.881848 
L 242.916014 259.760294 
L 245.357026 260.765744 
L 247.798037 261.47937 
L 250.239049 261.977191 
L 253.493731 262.405748 
L 257.562084 262.701197 
L 263.257777 262.879811 
L 274.649165 262.958935 
L 351.947866 262.966 
L 380.426335 262.966 
L 380.426335 262.966 
" clip-path="url(#p5826307db2)" style="fill: none; stroke-dasharray: 5.55,2.4; stroke-dashoffset: 0; stroke: #008fd5; stroke-width: 1.5"/>
   </g>
   <g id="line2d_28">
    <path d="M 55.77179 262.966 
L 122.492774 262.857807 
L 129.002138 262.634311 
L 133.884162 262.248009 
L 137.138844 261.802431 
L 140.393526 261.12766 
L 142.834538 260.417926 
L 145.275549 259.483565 
L 147.716561 258.272623 
L 150.157572 256.727651 
L 151.784913 255.481847 
L 153.412255 254.041525 
L 155.039596 252.38789 
L 156.666937 250.502545 
L 158.294278 248.367965 
L 159.921619 245.968001 
L 161.54896 243.288414 
L 163.989972 238.719768 
L 166.430983 233.469539 
L 168.871995 227.529928 
L 171.313006 220.914973 
L 173.754018 213.662525 
L 177.0087 203.112032 
L 180.263382 191.753363 
L 185.145406 173.811786 
L 191.65477 149.90819 
L 194.909452 138.690997 
L 198.164134 128.329792 
L 200.605146 121.242257 
L 203.046158 114.804699 
L 205.487169 109.048497 
L 207.928181 103.981624 
L 210.369192 99.590932 
L 212.810204 95.845388 
L 214.437545 93.684969 
L 216.064886 91.775471 
L 217.692227 90.099482 
L 219.319568 88.638672 
L 221.76058 86.809827 
L 224.201592 85.359807 
L 226.642603 84.228032 
L 229.083615 83.3584 
L 231.524626 82.700591 
L 234.779309 82.078179 
L 238.847661 81.592534 
L 243.729685 81.279685 
L 250.239049 81.102438 
L 263.257777 81.025691 
L 358.457231 81.019551 
L 380.426335 81.019551 
L 380.426335 81.019551 
" clip-path="url(#p5826307db2)" style="fill: none; stroke: #fc4f30; stroke-width: 1.5"/>
   </g>
   <g id="line2d_29">
    <path d="M 55.77179 262.966 
L 282.78587 262.966 
L 283.599541 111.343959 
L 360.898242 111.343959 
L 361.711913 262.966 
L 380.426335 262.966 
L 380.426335 262.966 
" clip-path="url(#p5826307db2)" style="fill: none; stroke-dasharray: 5.55,2.4; stroke-dashoffset: 0; stroke: #e5ae38; stroke-width: 1.5"/>
   </g>
   <g id="line2d_30">
    <path d="M 55.77179 262.966 
L 282.78587 262.966 
L 283.599541 261.635982 
L 360.898242 81.133552 
L 361.711913 81.019551 
L 380.426335 81.019551 
L 380.426335 81.019551 
" clip-path="url(#p5826307db2)" style="fill: none; stroke: #6d904f; stroke-width: 1.5"/>
   </g>
   <g id="patch_3">
    <path d="M 39.539063 275.062 
L 39.539063 8.95 
" style="fill: none; stroke: #000000; stroke-width: 0.8; stroke-linejoin: miter; stroke-linecap: square"/>
   </g>
   <g id="patch_4">
    <path d="M 396.659063 275.062 
L 396.659063 8.95 
" style="fill: none; stroke: #000000; stroke-width: 0.8; stroke-linejoin: miter; stroke-linecap: square"/>
   </g>
   <g id="patch_5">
    <path d="M 39.539063 275.062 
L 396.659063 275.062 
" style="fill: none; stroke: #000000; stroke-width: 0.8; stroke-linejoin: miter; stroke-linecap: square"/>
   </g>
   <g id="patch_6">
    <path d="M 39.539063 8.95 
L 396.659063 8.95 
" style="fill: none; stroke: #000000; stroke-width: 0.8; stroke-linejoin: miter; stroke-linecap: square"/>
   </g>
   <g id="legend_1">
    <g id="patch_7">
     <path d="M 286.096534 63.225156 
L 390.828063 63.225156 
Q 392.494063 63.225156 392.494063 61.559156 
L 392.494063 14.781 
Q 392.494063 13.115 390.828063 13.115 
L 286.096534 13.115 
Q 284.430534 13.115 284.430534 14.781 
L 284.430534 61.559156 
Q 284.430534 63.225156 286.096534 63.225156 
z
" style="fill: #ffffff; opacity: 0.9; stroke: #cccccc; stroke-linejoin: miter"/>
    </g>
    <g id="line2d_31">
     <path d="M 290.261534 19.620209 
L 296.092534 19.620209 
L 301.923534 19.620209 
" style="fill: none; stroke-dasharray: 5.55,2.4; stroke-dashoffset: 0; stroke: #008fd5; stroke-width: 1.5"/>
    </g>
    <g id="text_16">
     <!-- density (Gauss) -->
     <g transform="translate(311.086534 22.535709) scale(0.0833 -0.0833)">
      <defs>
       <path id="HelveticaNeue-Medium-6e" d="M 384 3309 
L 1075 3309 
L 1075 2822 
L 1088 2810 
Q 1254 3085 1523 3241 
Q 1792 3398 2118 3398 
Q 2662 3398 2976 3116 
Q 3290 2835 3290 2272 
L 3290 0 
L 2560 0 
L 2560 2080 
Q 2547 2470 2393 2646 
Q 2240 2822 1914 2822 
Q 1728 2822 1581 2755 
Q 1434 2688 1331 2569 
Q 1229 2451 1171 2291 
Q 1114 2131 1114 1952 
L 1114 0 
L 384 0 
L 384 3309 
z
" transform="scale(0.015625)"/>
       <path id="HelveticaNeue-Medium-73" d="M 934 1062 
Q 966 742 1177 614 
Q 1389 486 1683 486 
Q 1786 486 1917 502 
Q 2048 518 2163 563 
Q 2278 608 2352 694 
Q 2426 781 2419 921 
Q 2413 1062 2317 1152 
Q 2221 1242 2070 1296 
Q 1920 1350 1728 1388 
Q 1536 1427 1338 1472 
Q 1133 1517 944 1581 
Q 755 1645 604 1753 
Q 454 1862 364 2032 
Q 275 2202 275 2451 
Q 275 2720 406 2902 
Q 538 3085 739 3197 
Q 941 3309 1187 3353 
Q 1434 3398 1658 3398 
Q 1914 3398 2147 3344 
Q 2381 3290 2569 3168 
Q 2758 3046 2883 2851 
Q 3008 2656 3040 2381 
L 2278 2381 
Q 2227 2643 2038 2732 
Q 1850 2822 1606 2822 
Q 1530 2822 1424 2809 
Q 1318 2797 1225 2761 
Q 1133 2726 1069 2659 
Q 1005 2592 1005 2483 
Q 1005 2349 1097 2265 
Q 1190 2182 1340 2128 
Q 1491 2074 1683 2035 
Q 1875 1997 2080 1952 
Q 2278 1907 2470 1843 
Q 2662 1779 2812 1670 
Q 2963 1562 3056 1395 
Q 3149 1229 3149 986 
Q 3149 691 3014 486 
Q 2880 282 2665 154 
Q 2451 26 2188 -32 
Q 1926 -90 1670 -90 
Q 1357 -90 1091 -19 
Q 826 51 630 195 
Q 435 339 323 553 
Q 211 768 205 1062 
L 934 1062 
z
" transform="scale(0.015625)"/>
       <path id="HelveticaNeue-Medium-28" d="M 1235 -1222 
Q 1043 -915 873 -588 
Q 704 -262 579 99 
Q 454 461 384 864 
Q 314 1267 314 1728 
Q 314 2502 554 3251 
Q 794 4000 1235 4678 
L 1830 4678 
Q 1446 3987 1244 3260 
Q 1043 2534 1043 1728 
Q 1043 922 1235 192 
Q 1427 -538 1830 -1222 
L 1235 -1222 
z
" transform="scale(0.015625)"/>
       <path id="HelveticaNeue-Medium-47" d="M 4474 0 
L 3962 0 
L 3840 538 
Q 3520 173 3200 32 
Q 2880 -109 2464 -109 
Q 1952 -109 1545 80 
Q 1139 269 857 595 
Q 576 922 425 1357 
Q 275 1792 275 2285 
Q 275 2771 425 3206 
Q 576 3642 857 3968 
Q 1139 4294 1545 4486 
Q 1952 4678 2464 4678 
Q 2835 4678 3171 4579 
Q 3507 4480 3769 4285 
Q 4032 4090 4205 3795 
Q 4378 3501 4422 3117 
L 3642 3117 
Q 3610 3341 3504 3510 
Q 3398 3680 3238 3795 
Q 3078 3910 2880 3968 
Q 2682 4026 2464 4026 
Q 2099 4026 1833 3878 
Q 1568 3731 1401 3484 
Q 1235 3238 1155 2924 
Q 1075 2611 1075 2285 
Q 1075 1958 1155 1644 
Q 1235 1331 1401 1084 
Q 1568 838 1833 691 
Q 2099 544 2464 544 
Q 2771 538 3008 624 
Q 3245 710 3408 873 
Q 3571 1037 3654 1273 
Q 3738 1510 3744 1798 
L 2528 1798 
L 2528 2406 
L 4474 2406 
L 4474 0 
z
" transform="scale(0.015625)"/>
       <path id="HelveticaNeue-Medium-75" d="M 3290 0 
L 2573 0 
L 2573 461 
L 2560 461 
Q 2426 211 2160 60 
Q 1894 -90 1619 -90 
Q 966 -90 675 233 
Q 384 557 384 1210 
L 384 3309 
L 1114 3309 
L 1114 1280 
Q 1114 845 1280 665 
Q 1446 486 1747 486 
Q 1978 486 2131 556 
Q 2285 627 2381 745 
Q 2477 864 2518 1030 
Q 2560 1197 2560 1389 
L 2560 3309 
L 3290 3309 
L 3290 0 
z
" transform="scale(0.015625)"/>
       <path id="HelveticaNeue-Medium-29" d="M 544 4678 
Q 736 4371 902 4041 
Q 1069 3712 1193 3350 
Q 1318 2989 1392 2585 
Q 1466 2182 1466 1722 
Q 1466 947 1226 198 
Q 986 -550 544 -1222 
L -51 -1222 
Q 333 -538 534 188 
Q 736 915 736 1722 
Q 736 2528 544 3257 
Q 352 3987 -51 4678 
L 544 4678 
z
" transform="scale(0.015625)"/>
      </defs>
      <use xlink:href="#HelveticaNeue-Medium-64"/>
      <use xlink:href="#HelveticaNeue-Medium-65" x="61.099991"/>
      <use xlink:href="#HelveticaNeue-Medium-6e" x="116.699982"/>
      <use xlink:href="#HelveticaNeue-Medium-73" x="174.099976"/>
      <use xlink:href="#HelveticaNeue-Medium-69" x="225.999969"/>
      <use xlink:href="#HelveticaNeue-Medium-74" x="250.09996"/>
      <use xlink:href="#HelveticaNeue-Medium-79" x="283.399948"/>
      <use xlink:href="#HelveticaNeue-Medium-20" x="335.299942"/>
      <use xlink:href="#HelveticaNeue-Medium-28" x="363.09993"/>
      <use xlink:href="#HelveticaNeue-Medium-47" x="390.899918"/>
      <use xlink:href="#HelveticaNeue-Medium-61" x="466.799911"/>
      <use xlink:href="#HelveticaNeue-Medium-75" x="522.399902"/>
      <use xlink:href="#HelveticaNeue-Medium-73" x="579.799896"/>
      <use xlink:href="#HelveticaNeue-Medium-73" x="631.69989"/>
      <use xlink:href="#HelveticaNeue-Medium-29" x="683.599884"/>
     </g>
    </g>
    <g id="line2d_32">
     <path d="M 290.261534 31.581569 
L 296.092534 31.581569 
L 301.923534 31.581569 
" style="fill: none; stroke: #fc4f30; stroke-width: 1.5"/>
    </g>
    <g id="text_17">
     <!-- cumulative (Gauss) -->
     <g transform="translate(311.086534 34.497069) scale(0.0833 -0.0833)">
      <defs>
       <path id="HelveticaNeue-Medium-63" d="M 2618 2202 
Q 2573 2509 2371 2665 
Q 2170 2822 1862 2822 
Q 1722 2822 1562 2774 
Q 1402 2726 1267 2595 
Q 1133 2464 1043 2230 
Q 954 1997 954 1619 
Q 954 1414 1002 1209 
Q 1050 1005 1155 845 
Q 1261 685 1427 585 
Q 1594 486 1830 486 
Q 2150 486 2358 684 
Q 2566 883 2618 1242 
L 3347 1242 
Q 3245 595 2857 252 
Q 2470 -90 1830 -90 
Q 1440 -90 1142 41 
Q 845 173 640 400 
Q 435 627 329 940 
Q 224 1254 224 1619 
Q 224 1990 326 2316 
Q 429 2643 633 2883 
Q 838 3123 1142 3260 
Q 1446 3398 1856 3398 
Q 2144 3398 2403 3324 
Q 2662 3251 2864 3104 
Q 3066 2957 3194 2733 
Q 3322 2509 3347 2202 
L 2618 2202 
z
" transform="scale(0.015625)"/>
       <path id="HelveticaNeue-Medium-76" d="M 58 3309 
L 851 3309 
L 1690 768 
L 1702 768 
L 2509 3309 
L 3264 3309 
L 2080 0 
L 1261 0 
L 58 3309 
z
" transform="scale(0.015625)"/>
      </defs>
      <use xlink:href="#HelveticaNeue-Medium-63"/>
      <use xlink:href="#HelveticaNeue-Medium-75" x="55.599991"/>
      <use xlink:href="#HelveticaNeue-Medium-6d" x="112.999985"/>
      <use xlink:href="#HelveticaNeue-Medium-75" x="199.999969"/>
      <use xlink:href="#HelveticaNeue-Medium-6c" x="257.399963"/>
      <use xlink:href="#HelveticaNeue-Medium-61" x="281.499954"/>
      <use xlink:href="#HelveticaNeue-Medium-74" x="337.099945"/>
      <use xlink:href="#HelveticaNeue-Medium-69" x="370.399933"/>
      <use xlink:href="#HelveticaNeue-Medium-76" x="394.499924"/>
      <use xlink:href="#HelveticaNeue-Medium-65" x="446.399918"/>
      <use xlink:href="#HelveticaNeue-Medium-20" x="501.999908"/>
      <use xlink:href="#HelveticaNeue-Medium-28" x="529.799896"/>
      <use xlink:href="#HelveticaNeue-Medium-47" x="557.599884"/>
      <use xlink:href="#HelveticaNeue-Medium-61" x="633.499878"/>
      <use xlink:href="#HelveticaNeue-Medium-75" x="689.099869"/>
      <use xlink:href="#HelveticaNeue-Medium-73" x="746.499863"/>
      <use xlink:href="#HelveticaNeue-Medium-73" x="798.399857"/>
      <use xlink:href="#HelveticaNeue-Medium-29" x="850.29985"/>
     </g>
    </g>
    <g id="line2d_33">
     <path d="M 290.261534 43.425788 
L 296.092534 43.425788 
L 301.923534 43.425788 
" style="fill: none; stroke-dasharray: 5.55,2.4; stroke-dashoffset: 0; stroke: #e5ae38; stroke-width: 1.5"/>
    </g>
    <g id="text_18">
     <!-- density (uniform) -->
     <g transform="translate(311.086534 46.341288) scale(0.0833 -0.0833)">
      <defs>
       <path id="HelveticaNeue-Medium-66" d="M 58 3309 
L 602 3309 
L 602 3584 
Q 602 3898 678 4093 
Q 755 4288 883 4393 
Q 1011 4499 1174 4534 
Q 1338 4570 1517 4570 
Q 1869 4570 2029 4525 
L 2029 3955 
Q 1958 3974 1878 3984 
Q 1798 3994 1690 3994 
Q 1542 3994 1436 3923 
Q 1331 3853 1331 3648 
L 1331 3309 
L 1952 3309 
L 1952 2765 
L 1331 2765 
L 1331 0 
L 602 0 
L 602 2765 
L 58 2765 
L 58 3309 
z
" transform="scale(0.015625)"/>
      </defs>
      <use xlink:href="#HelveticaNeue-Medium-64"/>
      <use xlink:href="#HelveticaNeue-Medium-65" x="61.099991"/>
      <use xlink:href="#HelveticaNeue-Medium-6e" x="116.699982"/>
      <use xlink:href="#HelveticaNeue-Medium-73" x="174.099976"/>
      <use xlink:href="#HelveticaNeue-Medium-69" x="225.999969"/>
      <use xlink:href="#HelveticaNeue-Medium-74" x="250.09996"/>
      <use xlink:href="#HelveticaNeue-Medium-79" x="283.399948"/>
      <use xlink:href="#HelveticaNeue-Medium-20" x="335.299942"/>
      <use xlink:href="#HelveticaNeue-Medium-28" x="363.09993"/>
      <use xlink:href="#HelveticaNeue-Medium-75" x="390.899918"/>
      <use xlink:href="#HelveticaNeue-Medium-6e" x="448.299911"/>
      <use xlink:href="#HelveticaNeue-Medium-69" x="505.699905"/>
      <use xlink:href="#HelveticaNeue-Medium-66" x="529.799896"/>
      <use xlink:href="#HelveticaNeue-Medium-6f" x="561.299881"/>
      <use xlink:href="#HelveticaNeue-Medium-72" x="620.599869"/>
      <use xlink:href="#HelveticaNeue-Medium-6d" x="655.799866"/>
      <use xlink:href="#HelveticaNeue-Medium-29" x="742.79985"/>
     </g>
    </g>
    <g id="line2d_34">
     <path d="M 290.261534 55.387147 
L 296.092534 55.387147 
L 301.923534 55.387147 
" style="fill: none; stroke: #6d904f; stroke-width: 1.5"/>
    </g>
    <g id="text_19">
     <!-- cumulative (uniform) -->
     <g transform="translate(311.086534 58.302647) scale(0.0833 -0.0833)">
      <use xlink:href="#HelveticaNeue-Medium-63"/>
      <use xlink:href="#HelveticaNeue-Medium-75" x="55.599991"/>
      <use xlink:href="#HelveticaNeue-Medium-6d" x="112.999985"/>
      <use xlink:href="#HelveticaNeue-Medium-75" x="199.999969"/>
      <use xlink:href="#HelveticaNeue-Medium-6c" x="257.399963"/>
      <use xlink:href="#HelveticaNeue-Medium-61" x="281.499954"/>
      <use xlink:href="#HelveticaNeue-Medium-74" x="337.099945"/>
      <use xlink:href="#HelveticaNeue-Medium-69" x="370.399933"/>
      <use xlink:href="#HelveticaNeue-Medium-76" x="394.499924"/>
      <use xlink:href="#HelveticaNeue-Medium-65" x="446.399918"/>
      <use xlink:href="#HelveticaNeue-Medium-20" x="501.999908"/>
      <use xlink:href="#HelveticaNeue-Medium-28" x="529.799896"/>
      <use xlink:href="#HelveticaNeue-Medium-75" x="557.599884"/>
      <use xlink:href="#HelveticaNeue-Medium-6e" x="614.999878"/>
      <use xlink:href="#HelveticaNeue-Medium-69" x="672.399872"/>
      <use xlink:href="#HelveticaNeue-Medium-66" x="696.499863"/>
      <use xlink:href="#HelveticaNeue-Medium-6f" x="727.999847"/>
      <use xlink:href="#HelveticaNeue-Medium-72" x="787.299835"/>
      <use xlink:href="#HelveticaNeue-Medium-6d" x="822.499832"/>
      <use xlink:href="#HelveticaNeue-Medium-29" x="909.499817"/>
     </g>
    </g>
   </g>
  </g>
 </g>
 <defs>
  <clipPath id="p5826307db2">
   <rect x="39.539063" y="8.95" width="357.12" height="266.112"/>
  </clipPath>
 </defs>
</svg>
