<?xml version="1.0" encoding="utf-8" standalone="no"?>
<!DOCTYPE svg PUBLIC "-//W3C//DTD SVG 1.1//EN"
  "http://www.w3.org/Graphics/SVG/1.1/DTD/svg11.dtd">
<svg xmlns:xlink="http://www.w3.org/1999/xlink" width="258.498437pt" height="141.33pt" viewBox="0 0 258.498437 141.33" xmlns="http://www.w3.org/2000/svg" version="1.1">
 <metadata>
  <rdf:RDF xmlns:dc="http://purl.org/dc/elements/1.1/" xmlns:cc="http://creativecommons.org/ns#" xmlns:rdf="http://www.w3.org/1999/02/22-rdf-syntax-ns#">
   <cc:Work>
    <dc:type rdf:resource="http://purl.org/dc/dcmitype/StillImage"/>
    <dc:date>2024-05-27T13:10:07.991213</dc:date>
    <dc:format>image/svg+xml</dc:format>
    <dc:creator>
     <cc:Agent>
      <dc:title>Matplotlib v3.9.0, https://matplotlib.org/</dc:title>
     </cc:Agent>
    </dc:creator>
   </cc:Work>
  </rdf:RDF>
 </metadata>
 <defs>
  <style type="text/css">*{stroke-linejoin: round; stroke-linecap: butt}</style>
 </defs>
 <g id="figure_1">
  <g id="patch_1">
   <path d="M 0 141.33 
L 258.498437 141.33 
L 258.498437 0 
L 0 0 
z
" style="fill: #ffffff"/>
  </g>
  <g id="axes_1">
   <g id="patch_2">
    <path d="M 26.348438 119.83 
L 249.548437 119.83 
L 249.548437 8.95 
L 26.348438 8.95 
z
" style="fill: #ffffff"/>
   </g>
   <g id="matplotlib.axis_1">
    <g id="xtick_1">
     <g id="line2d_1">
      <defs>
       <path id="m053d9604d4" d="M 0 1.75 
L 0 -1.75 
" style="stroke: #000000; stroke-width: 0.8"/>
      </defs>
      <g>
       <use xlink:href="#m053d9604d4" x="36.347918" y="119.83" style="stroke: #000000; stroke-width: 0.8"/>
      </g>
     </g>
     <g id="line2d_2">
      <g>
       <use xlink:href="#m053d9604d4" x="36.347918" y="8.95" style="stroke: #000000; stroke-width: 0.8"/>
      </g>
     </g>
     <g id="text_1">
      <!-- 0 -->
      <g transform="translate(33.56823 132.220625) scale(0.1 -0.1)">
       <defs>
        <path id="HelveticaNeue-Medium-30" d="M 1779 4570 
Q 2259 4570 2563 4349 
Q 2867 4128 3036 3785 
Q 3206 3443 3267 3033 
Q 3328 2624 3328 2240 
Q 3328 1856 3267 1446 
Q 3206 1037 3036 694 
Q 2867 352 2563 131 
Q 2259 -90 1779 -90 
Q 1299 -90 995 131 
Q 691 352 521 694 
Q 352 1037 291 1446 
Q 230 1856 230 2240 
Q 230 2624 291 3033 
Q 352 3443 521 3785 
Q 691 4128 995 4349 
Q 1299 4570 1779 4570 
z
M 1779 518 
Q 2016 518 2176 656 
Q 2336 794 2429 1027 
Q 2522 1261 2560 1574 
Q 2598 1888 2598 2240 
Q 2598 2592 2560 2902 
Q 2522 3213 2429 3449 
Q 2336 3686 2176 3824 
Q 2016 3962 1779 3962 
Q 1536 3962 1379 3824 
Q 1222 3686 1129 3449 
Q 1037 3213 998 2902 
Q 960 2592 960 2240 
Q 960 1888 998 1574 
Q 1037 1261 1129 1027 
Q 1222 794 1379 656 
Q 1536 518 1779 518 
z
" transform="scale(0.015625)"/>
       </defs>
       <use xlink:href="#HelveticaNeue-Medium-30"/>
      </g>
     </g>
    </g>
    <g id="xtick_2">
     <g id="line2d_3">
      <g>
       <use xlink:href="#m053d9604d4" x="91.786416" y="119.83" style="stroke: #000000; stroke-width: 0.8"/>
      </g>
     </g>
     <g id="line2d_4">
      <g>
       <use xlink:href="#m053d9604d4" x="91.786416" y="8.95" style="stroke: #000000; stroke-width: 0.8"/>
      </g>
     </g>
     <g id="text_2">
      <!-- 1 -->
      <g transform="translate(89.006728 132.220625) scale(0.1 -0.1)">
       <defs>
        <path id="HelveticaNeue-Medium-31" d="M 339 3738 
Q 570 3738 787 3776 
Q 1005 3814 1181 3904 
Q 1357 3994 1481 4134 
Q 1606 4275 1645 4480 
L 2240 4480 
L 2240 0 
L 1440 0 
L 1440 3162 
L 339 3162 
L 339 3738 
z
" transform="scale(0.015625)"/>
       </defs>
       <use xlink:href="#HelveticaNeue-Medium-31"/>
      </g>
     </g>
    </g>
    <g id="xtick_3">
     <g id="line2d_5">
      <g>
       <use xlink:href="#m053d9604d4" x="147.224914" y="119.83" style="stroke: #000000; stroke-width: 0.8"/>
      </g>
     </g>
     <g id="line2d_6">
      <g>
       <use xlink:href="#m053d9604d4" x="147.224914" y="8.95" style="stroke: #000000; stroke-width: 0.8"/>
      </g>
     </g>
     <g id="text_3">
      <!-- 2 -->
      <g transform="translate(144.445226 132.220625) scale(0.1 -0.1)">
       <defs>
        <path id="HelveticaNeue-Medium-32" d="M 3309 0 
L 250 0 
Q 256 557 518 973 
Q 781 1389 1235 1696 
Q 1453 1856 1689 2006 
Q 1926 2157 2124 2329 
Q 2323 2502 2451 2704 
Q 2579 2906 2586 3168 
Q 2586 3290 2557 3427 
Q 2528 3565 2445 3683 
Q 2362 3802 2214 3882 
Q 2067 3962 1830 3962 
Q 1613 3962 1469 3875 
Q 1325 3789 1238 3638 
Q 1152 3488 1110 3283 
Q 1069 3078 1062 2842 
L 333 2842 
Q 333 3213 432 3529 
Q 531 3846 729 4076 
Q 928 4307 1213 4438 
Q 1498 4570 1875 4570 
Q 2285 4570 2560 4435 
Q 2835 4301 3004 4096 
Q 3174 3891 3244 3651 
Q 3315 3411 3315 3194 
Q 3315 2925 3232 2707 
Q 3149 2490 3008 2307 
Q 2867 2125 2688 1971 
Q 2509 1818 2317 1683 
Q 2125 1549 1933 1427 
Q 1741 1306 1577 1184 
Q 1414 1062 1292 931 
Q 1171 800 1126 653 
L 3309 653 
L 3309 0 
z
" transform="scale(0.015625)"/>
       </defs>
       <use xlink:href="#HelveticaNeue-Medium-32"/>
      </g>
     </g>
    </g>
    <g id="xtick_4">
     <g id="line2d_7">
      <g>
       <use xlink:href="#m053d9604d4" x="202.663412" y="119.83" style="stroke: #000000; stroke-width: 0.8"/>
      </g>
     </g>
     <g id="line2d_8">
      <g>
       <use xlink:href="#m053d9604d4" x="202.663412" y="8.95" style="stroke: #000000; stroke-width: 0.8"/>
      </g>
     </g>
     <g id="text_4">
      <!-- 3 -->
      <g transform="translate(199.883725 132.220625) scale(0.1 -0.1)">
       <defs>
        <path id="HelveticaNeue-Medium-33" d="M 1459 2624 
Q 1638 2618 1817 2650 
Q 1997 2682 2137 2762 
Q 2278 2842 2364 2982 
Q 2451 3123 2451 3328 
Q 2451 3616 2256 3789 
Q 2061 3962 1754 3962 
Q 1562 3962 1421 3885 
Q 1280 3808 1187 3677 
Q 1094 3546 1049 3382 
Q 1005 3219 1011 3046 
L 282 3046 
Q 294 3373 403 3651 
Q 512 3930 701 4134 
Q 890 4339 1158 4454 
Q 1427 4570 1766 4570 
Q 2029 4570 2281 4493 
Q 2534 4416 2736 4269 
Q 2938 4122 3059 3894 
Q 3181 3667 3181 3373 
Q 3181 3034 3027 2781 
Q 2874 2528 2547 2413 
L 2547 2400 
Q 2931 2323 3145 2019 
Q 3360 1715 3360 1280 
Q 3360 960 3232 707 
Q 3104 454 2886 278 
Q 2669 102 2381 6 
Q 2093 -90 1773 -90 
Q 1382 -90 1091 22 
Q 800 134 605 339 
Q 410 544 307 832 
Q 205 1120 198 1472 
L 928 1472 
Q 915 1062 1129 790 
Q 1344 518 1773 518 
Q 2138 518 2384 726 
Q 2630 934 2630 1318 
Q 2630 1581 2528 1734 
Q 2426 1888 2259 1968 
Q 2093 2048 1885 2067 
Q 1677 2086 1459 2080 
L 1459 2624 
z
" transform="scale(0.015625)"/>
       </defs>
       <use xlink:href="#HelveticaNeue-Medium-33"/>
      </g>
     </g>
    </g>
   </g>
   <g id="matplotlib.axis_2">
    <g id="ytick_1">
     <g id="line2d_9">
      <defs>
       <path id="mdbbeba69ac" d="M 1.75 0 
L -1.75 -0 
" style="stroke: #000000; stroke-width: 0.8"/>
      </defs>
      <g>
       <use xlink:href="#mdbbeba69ac" x="26.348438" y="119.83" style="stroke: #000000; stroke-width: 0.8"/>
      </g>
     </g>
     <g id="line2d_10">
      <g>
       <use xlink:href="#mdbbeba69ac" x="249.548437" y="119.83" style="stroke: #000000; stroke-width: 0.8"/>
      </g>
     </g>
     <g id="text_5">
      <!-- 0.0 -->
      <g transform="translate(7.2 123.400312) scale(0.1 -0.1)">
       <defs>
        <path id="HelveticaNeue-Medium-2e" d="M 442 864 
L 1331 864 
L 1331 0 
L 442 0 
L 442 864 
z
" transform="scale(0.015625)"/>
       </defs>
       <use xlink:href="#HelveticaNeue-Medium-30"/>
       <use xlink:href="#HelveticaNeue-Medium-2e" x="55.599991"/>
       <use xlink:href="#HelveticaNeue-Medium-30" x="83.399979"/>
      </g>
     </g>
    </g>
    <g id="ytick_2">
     <g id="line2d_11">
      <g>
       <use xlink:href="#mdbbeba69ac" x="26.348438" y="82.487193" style="stroke: #000000; stroke-width: 0.8"/>
      </g>
     </g>
     <g id="line2d_12">
      <g>
       <use xlink:href="#mdbbeba69ac" x="249.548437" y="82.487193" style="stroke: #000000; stroke-width: 0.8"/>
      </g>
     </g>
     <g id="text_6">
      <!-- 0.5 -->
      <g transform="translate(7.2 86.057505) scale(0.1 -0.1)">
       <defs>
        <path id="HelveticaNeue-Medium-35" d="M 787 4480 
L 3104 4480 
L 3104 3827 
L 1331 3827 
L 1101 2688 
L 1114 2675 
Q 1261 2842 1488 2928 
Q 1715 3014 1939 3014 
Q 2272 3014 2534 2902 
Q 2797 2790 2976 2588 
Q 3155 2387 3248 2112 
Q 3341 1837 3341 1517 
Q 3341 1248 3254 963 
Q 3168 678 2979 444 
Q 2790 211 2496 60 
Q 2202 -90 1792 -90 
Q 1466 -90 1187 -3 
Q 909 83 697 256 
Q 486 429 361 681 
Q 237 934 224 1274 
L 954 1274 
Q 986 909 1203 713 
Q 1421 518 1779 518 
Q 2010 518 2170 595 
Q 2330 672 2429 806 
Q 2528 941 2569 1120 
Q 2611 1299 2611 1504 
Q 2611 1690 2560 1859 
Q 2509 2029 2406 2157 
Q 2304 2285 2141 2361 
Q 1978 2438 1760 2438 
Q 1530 2438 1328 2352 
Q 1126 2266 1037 2029 
L 307 2029 
L 787 4480 
z
" transform="scale(0.015625)"/>
       </defs>
       <use xlink:href="#HelveticaNeue-Medium-30"/>
       <use xlink:href="#HelveticaNeue-Medium-2e" x="55.599991"/>
       <use xlink:href="#HelveticaNeue-Medium-35" x="83.399979"/>
      </g>
     </g>
    </g>
    <g id="ytick_3">
     <g id="line2d_13">
      <g>
       <use xlink:href="#mdbbeba69ac" x="26.348438" y="45.144386" style="stroke: #000000; stroke-width: 0.8"/>
      </g>
     </g>
     <g id="line2d_14">
      <g>
       <use xlink:href="#mdbbeba69ac" x="249.548437" y="45.144386" style="stroke: #000000; stroke-width: 0.8"/>
      </g>
     </g>
     <g id="text_7">
      <!-- 1.0 -->
      <g transform="translate(7.2 48.714698) scale(0.1 -0.1)">
       <use xlink:href="#HelveticaNeue-Medium-31"/>
       <use xlink:href="#HelveticaNeue-Medium-2e" x="55.599991"/>
       <use xlink:href="#HelveticaNeue-Medium-30" x="83.399979"/>
      </g>
     </g>
    </g>
   </g>
   <g id="patch_3">
    <path d="M 36.493892 119.83 
L 36.493892 103.505613 
L 38.522983 103.505613 
L 38.522983 105.546161 
L 40.552074 105.546161 
L 40.552074 108.096847 
L 42.581165 108.096847 
L 42.581165 111.667806 
L 44.610256 111.667806 
L 44.610256 108.606984 
L 46.639347 108.606984 
L 46.639347 106.056298 
L 48.668438 106.056298 
L 48.668438 105.546161 
L 50.697528 105.546161 
L 50.697528 107.076572 
L 52.726619 107.076572 
L 52.726619 111.667806 
L 54.75571 111.667806 
L 54.75571 109.117121 
L 56.784801 109.117121 
L 56.784801 107.076572 
L 58.813892 107.076572 
L 58.813892 108.096847 
L 60.842983 108.096847 
L 60.842983 104.525887 
L 62.872074 104.525887 
L 62.872074 108.096847 
L 66.930256 108.096847 
L 66.930256 111.157669 
L 68.959347 111.157669 
L 68.959347 98.914379 
L 70.988438 98.914379 
L 70.988438 107.076572 
L 73.017528 107.076572 
L 73.017528 105.546161 
L 75.046619 105.546161 
L 75.046619 106.566435 
L 77.07571 106.566435 
L 77.07571 105.036024 
L 79.104801 105.036024 
L 79.104801 111.667806 
L 81.133892 111.667806 
L 81.133892 105.036024 
L 83.162983 105.036024 
L 83.162983 108.606984 
L 85.192074 108.606984 
L 85.192074 111.667806 
L 87.221165 111.667806 
L 87.221165 104.525887 
L 89.250256 104.525887 
L 89.250256 105.546161 
L 93.308438 105.546161 
L 93.308438 108.096847 
L 95.337528 108.096847 
L 95.337528 108.606984 
L 97.366619 108.606984 
L 97.366619 111.667806 
L 99.39571 111.667806 
L 99.39571 107.076572 
L 101.424801 107.076572 
L 101.424801 109.117121 
L 103.453892 109.117121 
L 103.453892 110.647532 
L 105.482983 110.647532 
L 105.482983 109.117121 
L 107.512074 109.117121 
L 107.512074 108.606984 
L 109.541165 108.606984 
L 109.541165 112.177943 
L 111.570256 112.177943 
L 111.570256 109.117121 
L 113.599347 109.117121 
L 113.599347 106.056298 
L 115.628438 106.056298 
L 115.628438 103.505613 
L 117.657528 103.505613 
L 117.657528 109.117121 
L 119.686619 109.117121 
L 119.686619 109.627258 
L 121.71571 109.627258 
L 121.71571 105.546161 
L 123.744801 105.546161 
L 123.744801 105.036024 
L 125.773892 105.036024 
L 125.773892 105.546161 
L 127.802983 105.546161 
L 127.802983 107.586709 
L 131.861165 107.586709 
L 131.861165 104.01575 
L 133.890256 104.01575 
L 133.890256 107.076572 
L 137.948438 107.076572 
L 137.948438 105.546161 
L 139.977528 105.546161 
L 139.977528 108.096847 
L 142.006619 108.096847 
L 142.006619 109.627258 
L 144.03571 109.627258 
L 144.03571 106.566435 
L 146.064801 106.566435 
L 146.064801 109.627258 
L 148.093892 109.627258 
L 148.093892 106.056298 
L 150.122983 106.056298 
L 150.122983 108.096847 
L 152.152074 108.096847 
L 152.152074 110.647532 
L 154.181165 110.647532 
L 154.181165 105.036024 
L 156.210256 105.036024 
L 156.210256 106.566435 
L 158.239347 106.566435 
L 158.239347 107.586709 
L 160.268438 107.586709 
L 160.268438 108.096847 
L 162.297528 108.096847 
L 162.297528 107.586709 
L 164.326619 107.586709 
L 164.326619 100.954927 
L 166.35571 100.954927 
L 166.35571 107.076572 
L 168.384801 107.076572 
L 168.384801 110.137395 
L 170.413892 110.137395 
L 170.413892 106.056298 
L 172.442983 106.056298 
L 172.442983 102.485338 
L 174.472074 102.485338 
L 174.472074 99.424516 
L 176.501165 99.424516 
L 176.501165 104.01575 
L 178.530256 104.01575 
L 178.530256 97.383967 
L 180.559347 97.383967 
L 180.559347 90.752185 
L 182.588437 90.752185 
L 182.588437 91.262322 
L 184.617528 91.262322 
L 184.617528 87.181225 
L 186.646619 87.181225 
L 186.646619 77.998757 
L 188.67571 77.998757 
L 188.67571 66.265604 
L 190.704801 66.265604 
L 190.704801 67.796015 
L 192.733892 67.796015 
L 192.733892 55.552724 
L 194.762983 55.552724 
L 194.762983 46.370256 
L 196.792074 46.370256 
L 196.792074 37.187789 
L 198.821165 37.187789 
L 198.821165 40.758748 
L 200.850256 40.758748 
L 200.850256 32.596555 
L 202.879347 32.596555 
L 202.879347 47.900668 
L 204.908437 47.900668 
L 204.908437 48.920942 
L 206.937528 48.920942 
L 206.937528 57.083136 
L 208.966619 57.083136 
L 208.966619 56.062862 
L 210.99571 56.062862 
L 210.99571 64.735192 
L 213.024801 64.735192 
L 213.024801 76.978483 
L 215.053892 76.978483 
L 215.053892 78.508894 
L 217.082983 78.508894 
L 217.082983 87.691362 
L 219.112074 87.691362 
L 219.112074 98.914379 
L 221.141165 98.914379 
L 221.141165 105.036024 
L 223.170256 105.036024 
L 223.170256 108.096847 
L 225.199347 108.096847 
L 225.199347 114.218492 
L 227.228437 114.218492 
L 227.228437 115.238766 
L 229.257528 115.238766 
L 229.257528 117.279314 
L 231.286619 117.279314 
L 231.286619 118.299589 
L 235.344801 118.299589 
L 235.344801 118.809726 
L 237.373892 118.809726 
L 237.373892 118.299589 
L 239.402983 118.299589 
L 239.402983 119.83 
L 239.402983 119.83 
" clip-path="url(#p9057980c6e)" style="fill: none; stroke: #008fd5; stroke-linejoin: miter"/>
   </g>
   <g id="patch_4">
    <path d="M 37.508438 119.83 
L 37.508438 80.488824 
L 39.508091 80.488824 
L 39.508091 111.547647 
L 41.507744 111.547647 
L 41.507744 113.618235 
L 43.507397 113.618235 
L 43.507397 99.124118 
L 45.50705 99.124118 
L 45.50705 109.477059 
L 47.506703 109.477059 
L 47.506703 103.265294 
L 49.506356 103.265294 
L 49.506356 111.547647 
L 51.506009 111.547647 
L 51.506009 117.759412 
L 53.505663 117.759412 
L 53.505663 111.547647 
L 55.505316 111.547647 
L 55.505316 107.406471 
L 57.504969 107.406471 
L 57.504969 111.547647 
L 59.504622 111.547647 
L 59.504622 92.912353 
L 61.504275 92.912353 
L 61.504275 107.406471 
L 63.503928 107.406471 
L 63.503928 113.618235 
L 65.503581 113.618235 
L 65.503581 117.759412 
L 67.503235 117.759412 
L 67.503235 101.194706 
L 69.502888 101.194706 
L 69.502888 109.477059 
L 71.502541 109.477059 
L 71.502541 97.053529 
L 73.502194 97.053529 
L 73.502194 101.194706 
L 75.501847 101.194706 
L 75.501847 103.265294 
L 79.501153 103.265294 
L 79.501153 105.335882 
L 81.500807 105.335882 
L 81.500807 111.547647 
L 83.50046 111.547647 
L 83.50046 107.406471 
L 87.499766 107.406471 
L 87.499766 90.841765 
L 89.499419 90.841765 
L 89.499419 105.335882 
L 91.499072 105.335882 
L 91.499072 107.406471 
L 93.498725 107.406471 
L 93.498725 105.335882 
L 95.498379 105.335882 
L 95.498379 109.477059 
L 99.497685 109.477059 
L 99.497685 107.406471 
L 101.497338 107.406471 
L 101.497338 113.618235 
L 103.496991 113.618235 
L 103.496991 107.406471 
L 105.496644 107.406471 
L 105.496644 117.759412 
L 107.496297 117.759412 
L 107.496297 111.547647 
L 111.495604 111.547647 
L 111.495604 109.477059 
L 113.495257 109.477059 
L 113.495257 101.194706 
L 115.49491 101.194706 
L 115.49491 111.547647 
L 117.494563 111.547647 
L 117.494563 105.335882 
L 121.493869 105.335882 
L 121.493869 109.477059 
L 123.493523 109.477059 
L 123.493523 101.194706 
L 125.493176 101.194706 
L 125.493176 109.477059 
L 127.492829 109.477059 
L 127.492829 103.265294 
L 129.492482 103.265294 
L 129.492482 109.477059 
L 131.492135 109.477059 
L 131.492135 94.982941 
L 133.491788 94.982941 
L 133.491788 109.477059 
L 137.491095 109.477059 
L 137.491095 105.335882 
L 139.490748 105.335882 
L 139.490748 111.547647 
L 141.490401 111.547647 
L 141.490401 109.477059 
L 143.490054 109.477059 
L 143.490054 111.547647 
L 145.489707 111.547647 
L 145.489707 105.335882 
L 147.48936 105.335882 
L 147.48936 94.982941 
L 149.489013 94.982941 
L 149.489013 109.477059 
L 155.487973 109.477059 
L 155.487973 111.547647 
L 157.487626 111.547647 
L 157.487626 107.406471 
L 159.487279 107.406471 
L 159.487279 111.547647 
L 161.486932 111.547647 
L 161.486932 115.688824 
L 163.486585 115.688824 
L 163.486585 94.982941 
L 165.486239 94.982941 
L 165.486239 105.335882 
L 167.485892 105.335882 
L 167.485892 115.688824 
L 169.485545 115.688824 
L 169.485545 101.194706 
L 171.485198 101.194706 
L 171.485198 99.124118 
L 173.484851 99.124118 
L 173.484851 94.982941 
L 175.484504 94.982941 
L 175.484504 109.477059 
L 177.484157 109.477059 
L 177.484157 103.265294 
L 179.483811 103.265294 
L 179.483811 88.771176 
L 181.483464 88.771176 
L 181.483464 90.841765 
L 183.483117 90.841765 
L 183.483117 94.982941 
L 185.48277 94.982941 
L 185.48277 61.853529 
L 187.482423 61.853529 
L 187.482423 59.782941 
L 189.482076 59.782941 
L 189.482076 72.206471 
L 191.481729 72.206471 
L 191.481729 57.712353 
L 193.481383 57.712353 
L 193.481383 53.571176 
L 195.481036 53.571176 
L 195.481036 47.359412 
L 197.480689 47.359412 
L 197.480689 59.782941 
L 199.480342 59.782941 
L 199.480342 14.23 
L 201.479995 14.23 
L 201.479995 49.43 
L 203.479648 49.43 
L 203.479648 63.924118 
L 207.478955 63.924118 
L 207.478955 53.571176 
L 209.478608 53.571176 
L 209.478608 68.065294 
L 211.478261 68.065294 
L 211.478261 55.641765 
L 213.477914 55.641765 
L 213.477914 78.418235 
L 215.477567 78.418235 
L 215.477567 88.771176 
L 217.47722 88.771176 
L 217.47722 92.912353 
L 219.476873 92.912353 
L 219.476873 107.406471 
L 221.476527 107.406471 
L 221.476527 109.477059 
L 225.475833 109.477059 
L 225.475833 111.547647 
L 227.475486 111.547647 
L 227.475486 117.759412 
L 233.474445 117.759412 
L 233.474445 119.83 
L 235.474099 119.83 
L 235.474099 115.688824 
L 237.473752 115.688824 
L 237.473752 119.83 
L 237.473752 119.83 
" clip-path="url(#p9057980c6e)" style="fill: none; stroke: #fc4f30; stroke-linejoin: miter"/>
   </g>
   <g id="patch_5">
    <path d="M 26.348438 119.83 
L 26.348438 8.95 
" style="fill: none; stroke: #000000; stroke-width: 0.8; stroke-linejoin: miter; stroke-linecap: square"/>
   </g>
   <g id="patch_6">
    <path d="M 249.548437 119.83 
L 249.548437 8.95 
" style="fill: none; stroke: #000000; stroke-width: 0.8; stroke-linejoin: miter; stroke-linecap: square"/>
   </g>
   <g id="patch_7">
    <path d="M 26.348438 119.83 
L 249.548437 119.83 
" style="fill: none; stroke: #000000; stroke-width: 0.8; stroke-linejoin: miter; stroke-linecap: square"/>
   </g>
   <g id="patch_8">
    <path d="M 26.348438 8.95 
L 249.548437 8.95 
" style="fill: none; stroke: #000000; stroke-width: 0.8; stroke-linejoin: miter; stroke-linecap: square"/>
   </g>
  </g>
 </g>
 <defs>
  <clipPath id="p9057980c6e">
   <rect x="26.348438" y="8.95" width="223.2" height="110.88"/>
  </clipPath>
 </defs>
</svg>
