<?xml version="1.0" encoding="utf-8" standalone="no"?>
<!DOCTYPE svg PUBLIC "-//W3C//DTD SVG 1.1//EN"
  "http://www.w3.org/Graphics/SVG/1.1/DTD/svg11.dtd">
<!-- Created with matplotlib (https://matplotlib.org/) -->
<svg height="310.86825pt" version="1.1" viewBox="0 0 404.923125 310.86825" width="404.923125pt" xmlns="http://www.w3.org/2000/svg" xmlns:xlink="http://www.w3.org/1999/xlink">
 <defs>
  <style type="text/css">
*{stroke-linecap:butt;stroke-linejoin:round;}
  </style>
 </defs>
 <g id="figure_1">
  <g id="patch_1">
   <path d="M 0 310.86825 
L 404.923125 310.86825 
L 404.923125 0 
L 0 0 
z
" style="fill:#ffffff;"/>
  </g>
  <g id="axes_1">
   <g id="patch_2">
    <path d="M 40.603125 273.312 
L 397.723125 273.312 
L 397.723125 7.2 
L 40.603125 7.2 
z
" style="fill:#ffffff;"/>
   </g>
   <g id="matplotlib.axis_1">
    <g id="xtick_1">
     <g id="line2d_1">
      <defs>
       <path d="M 0 0 
L 0 3.5 
" id="m629fec64bf" style="stroke:#000000;stroke-width:0.8;"/>
      </defs>
      <g>
       <use style="stroke:#000000;stroke-width:0.8;" x="56.835852" xlink:href="#m629fec64bf" y="273.312"/>
      </g>
     </g>
     <g id="text_1">
      <!-- 400 -->
      <defs>
       <path d="M 37.796875 64.3125 
L 12.890625 25.390625 
L 37.796875 25.390625 
z
M 35.203125 72.90625 
L 47.609375 72.90625 
L 47.609375 25.390625 
L 58.015625 25.390625 
L 58.015625 17.1875 
L 47.609375 17.1875 
L 47.609375 0 
L 37.796875 0 
L 37.796875 17.1875 
L 4.890625 17.1875 
L 4.890625 26.703125 
z
" id="DejaVuSans-52"/>
       <path d="M 31.78125 66.40625 
Q 24.171875 66.40625 20.328125 58.90625 
Q 16.5 51.421875 16.5 36.375 
Q 16.5 21.390625 20.328125 13.890625 
Q 24.171875 6.390625 31.78125 6.390625 
Q 39.453125 6.390625 43.28125 13.890625 
Q 47.125 21.390625 47.125 36.375 
Q 47.125 51.421875 43.28125 58.90625 
Q 39.453125 66.40625 31.78125 66.40625 
z
M 31.78125 74.21875 
Q 44.046875 74.21875 50.515625 64.515625 
Q 56.984375 54.828125 56.984375 36.375 
Q 56.984375 17.96875 50.515625 8.265625 
Q 44.046875 -1.421875 31.78125 -1.421875 
Q 19.53125 -1.421875 13.0625 8.265625 
Q 6.59375 17.96875 6.59375 36.375 
Q 6.59375 54.828125 13.0625 64.515625 
Q 19.53125 74.21875 31.78125 74.21875 
z
" id="DejaVuSans-48"/>
      </defs>
      <g transform="translate(47.292102 287.910437)scale(0.1 -0.1)">
       <use xlink:href="#DejaVuSans-52"/>
       <use x="63.623047" xlink:href="#DejaVuSans-48"/>
       <use x="127.246094" xlink:href="#DejaVuSans-48"/>
      </g>
     </g>
    </g>
    <g id="xtick_2">
     <g id="line2d_2">
      <g>
       <use style="stroke:#000000;stroke-width:0.8;" x="97.41767" xlink:href="#m629fec64bf" y="273.312"/>
      </g>
     </g>
     <g id="text_2">
      <!-- 450 -->
      <defs>
       <path d="M 10.796875 72.90625 
L 49.515625 72.90625 
L 49.515625 64.59375 
L 19.828125 64.59375 
L 19.828125 46.734375 
Q 21.96875 47.46875 24.109375 47.828125 
Q 26.265625 48.1875 28.421875 48.1875 
Q 40.625 48.1875 47.75 41.5 
Q 54.890625 34.8125 54.890625 23.390625 
Q 54.890625 11.625 47.5625 5.09375 
Q 40.234375 -1.421875 26.90625 -1.421875 
Q 22.3125 -1.421875 17.546875 -0.640625 
Q 12.796875 0.140625 7.71875 1.703125 
L 7.71875 11.625 
Q 12.109375 9.234375 16.796875 8.0625 
Q 21.484375 6.890625 26.703125 6.890625 
Q 35.15625 6.890625 40.078125 11.328125 
Q 45.015625 15.765625 45.015625 23.390625 
Q 45.015625 31 40.078125 35.4375 
Q 35.15625 39.890625 26.703125 39.890625 
Q 22.75 39.890625 18.8125 39.015625 
Q 14.890625 38.140625 10.796875 36.28125 
z
" id="DejaVuSans-53"/>
      </defs>
      <g transform="translate(87.87392 287.910437)scale(0.1 -0.1)">
       <use xlink:href="#DejaVuSans-52"/>
       <use x="63.623047" xlink:href="#DejaVuSans-53"/>
       <use x="127.246094" xlink:href="#DejaVuSans-48"/>
      </g>
     </g>
    </g>
    <g id="xtick_3">
     <g id="line2d_3">
      <g>
       <use style="stroke:#000000;stroke-width:0.8;" x="137.999489" xlink:href="#m629fec64bf" y="273.312"/>
      </g>
     </g>
     <g id="text_3">
      <!-- 500 -->
      <g transform="translate(128.455739 287.910437)scale(0.1 -0.1)">
       <use xlink:href="#DejaVuSans-53"/>
       <use x="63.623047" xlink:href="#DejaVuSans-48"/>
       <use x="127.246094" xlink:href="#DejaVuSans-48"/>
      </g>
     </g>
    </g>
    <g id="xtick_4">
     <g id="line2d_4">
      <g>
       <use style="stroke:#000000;stroke-width:0.8;" x="178.581307" xlink:href="#m629fec64bf" y="273.312"/>
      </g>
     </g>
     <g id="text_4">
      <!-- 550 -->
      <g transform="translate(169.037557 287.910437)scale(0.1 -0.1)">
       <use xlink:href="#DejaVuSans-53"/>
       <use x="63.623047" xlink:href="#DejaVuSans-53"/>
       <use x="127.246094" xlink:href="#DejaVuSans-48"/>
      </g>
     </g>
    </g>
    <g id="xtick_5">
     <g id="line2d_5">
      <g>
       <use style="stroke:#000000;stroke-width:0.8;" x="219.163125" xlink:href="#m629fec64bf" y="273.312"/>
      </g>
     </g>
     <g id="text_5">
      <!-- 600 -->
      <defs>
       <path d="M 33.015625 40.375 
Q 26.375 40.375 22.484375 35.828125 
Q 18.609375 31.296875 18.609375 23.390625 
Q 18.609375 15.53125 22.484375 10.953125 
Q 26.375 6.390625 33.015625 6.390625 
Q 39.65625 6.390625 43.53125 10.953125 
Q 47.40625 15.53125 47.40625 23.390625 
Q 47.40625 31.296875 43.53125 35.828125 
Q 39.65625 40.375 33.015625 40.375 
z
M 52.59375 71.296875 
L 52.59375 62.3125 
Q 48.875 64.0625 45.09375 64.984375 
Q 41.3125 65.921875 37.59375 65.921875 
Q 27.828125 65.921875 22.671875 59.328125 
Q 17.53125 52.734375 16.796875 39.40625 
Q 19.671875 43.65625 24.015625 45.921875 
Q 28.375 48.1875 33.59375 48.1875 
Q 44.578125 48.1875 50.953125 41.515625 
Q 57.328125 34.859375 57.328125 23.390625 
Q 57.328125 12.15625 50.6875 5.359375 
Q 44.046875 -1.421875 33.015625 -1.421875 
Q 20.359375 -1.421875 13.671875 8.265625 
Q 6.984375 17.96875 6.984375 36.375 
Q 6.984375 53.65625 15.1875 63.9375 
Q 23.390625 74.21875 37.203125 74.21875 
Q 40.921875 74.21875 44.703125 73.484375 
Q 48.484375 72.75 52.59375 71.296875 
z
" id="DejaVuSans-54"/>
      </defs>
      <g transform="translate(209.619375 287.910437)scale(0.1 -0.1)">
       <use xlink:href="#DejaVuSans-54"/>
       <use x="63.623047" xlink:href="#DejaVuSans-48"/>
       <use x="127.246094" xlink:href="#DejaVuSans-48"/>
      </g>
     </g>
    </g>
    <g id="xtick_6">
     <g id="line2d_6">
      <g>
       <use style="stroke:#000000;stroke-width:0.8;" x="259.744943" xlink:href="#m629fec64bf" y="273.312"/>
      </g>
     </g>
     <g id="text_6">
      <!-- 650 -->
      <g transform="translate(250.201193 287.910437)scale(0.1 -0.1)">
       <use xlink:href="#DejaVuSans-54"/>
       <use x="63.623047" xlink:href="#DejaVuSans-53"/>
       <use x="127.246094" xlink:href="#DejaVuSans-48"/>
      </g>
     </g>
    </g>
    <g id="xtick_7">
     <g id="line2d_7">
      <g>
       <use style="stroke:#000000;stroke-width:0.8;" x="300.326761" xlink:href="#m629fec64bf" y="273.312"/>
      </g>
     </g>
     <g id="text_7">
      <!-- 700 -->
      <defs>
       <path d="M 8.203125 72.90625 
L 55.078125 72.90625 
L 55.078125 68.703125 
L 28.609375 0 
L 18.3125 0 
L 43.21875 64.59375 
L 8.203125 64.59375 
z
" id="DejaVuSans-55"/>
      </defs>
      <g transform="translate(290.783011 287.910437)scale(0.1 -0.1)">
       <use xlink:href="#DejaVuSans-55"/>
       <use x="63.623047" xlink:href="#DejaVuSans-48"/>
       <use x="127.246094" xlink:href="#DejaVuSans-48"/>
      </g>
     </g>
    </g>
    <g id="xtick_8">
     <g id="line2d_8">
      <g>
       <use style="stroke:#000000;stroke-width:0.8;" x="340.90858" xlink:href="#m629fec64bf" y="273.312"/>
      </g>
     </g>
     <g id="text_8">
      <!-- 750 -->
      <g transform="translate(331.36483 287.910437)scale(0.1 -0.1)">
       <use xlink:href="#DejaVuSans-55"/>
       <use x="63.623047" xlink:href="#DejaVuSans-53"/>
       <use x="127.246094" xlink:href="#DejaVuSans-48"/>
      </g>
     </g>
    </g>
    <g id="xtick_9">
     <g id="line2d_9">
      <g>
       <use style="stroke:#000000;stroke-width:0.8;" x="381.490398" xlink:href="#m629fec64bf" y="273.312"/>
      </g>
     </g>
     <g id="text_9">
      <!-- 800 -->
      <defs>
       <path d="M 31.78125 34.625 
Q 24.75 34.625 20.71875 30.859375 
Q 16.703125 27.09375 16.703125 20.515625 
Q 16.703125 13.921875 20.71875 10.15625 
Q 24.75 6.390625 31.78125 6.390625 
Q 38.8125 6.390625 42.859375 10.171875 
Q 46.921875 13.96875 46.921875 20.515625 
Q 46.921875 27.09375 42.890625 30.859375 
Q 38.875 34.625 31.78125 34.625 
z
M 21.921875 38.8125 
Q 15.578125 40.375 12.03125 44.71875 
Q 8.5 49.078125 8.5 55.328125 
Q 8.5 64.0625 14.71875 69.140625 
Q 20.953125 74.21875 31.78125 74.21875 
Q 42.671875 74.21875 48.875 69.140625 
Q 55.078125 64.0625 55.078125 55.328125 
Q 55.078125 49.078125 51.53125 44.71875 
Q 48 40.375 41.703125 38.8125 
Q 48.828125 37.15625 52.796875 32.3125 
Q 56.78125 27.484375 56.78125 20.515625 
Q 56.78125 9.90625 50.3125 4.234375 
Q 43.84375 -1.421875 31.78125 -1.421875 
Q 19.734375 -1.421875 13.25 4.234375 
Q 6.78125 9.90625 6.78125 20.515625 
Q 6.78125 27.484375 10.78125 32.3125 
Q 14.796875 37.15625 21.921875 38.8125 
z
M 18.3125 54.390625 
Q 18.3125 48.734375 21.84375 45.5625 
Q 25.390625 42.390625 31.78125 42.390625 
Q 38.140625 42.390625 41.71875 45.5625 
Q 45.3125 48.734375 45.3125 54.390625 
Q 45.3125 60.0625 41.71875 63.234375 
Q 38.140625 66.40625 31.78125 66.40625 
Q 25.390625 66.40625 21.84375 63.234375 
Q 18.3125 60.0625 18.3125 54.390625 
z
" id="DejaVuSans-56"/>
      </defs>
      <g transform="translate(371.946648 287.910437)scale(0.1 -0.1)">
       <use xlink:href="#DejaVuSans-56"/>
       <use x="63.623047" xlink:href="#DejaVuSans-48"/>
       <use x="127.246094" xlink:href="#DejaVuSans-48"/>
      </g>
     </g>
    </g>
    <g id="text_10">
     <!-- x -->
     <defs>
      <path d="M 54.890625 54.6875 
L 35.109375 28.078125 
L 55.90625 0 
L 45.3125 0 
L 29.390625 21.484375 
L 13.484375 0 
L 2.875 0 
L 24.125 28.609375 
L 4.6875 54.6875 
L 15.28125 54.6875 
L 29.78125 35.203125 
L 44.28125 54.6875 
z
" id="DejaVuSans-120"/>
     </defs>
     <g transform="translate(216.20375 301.588562)scale(0.1 -0.1)">
      <use xlink:href="#DejaVuSans-120"/>
     </g>
    </g>
   </g>
   <g id="matplotlib.axis_2">
    <g id="ytick_1">
     <g id="line2d_10">
      <defs>
       <path d="M 0 0 
L -3.5 0 
" id="m143b6cd097" style="stroke:#000000;stroke-width:0.8;"/>
      </defs>
      <g>
       <use style="stroke:#000000;stroke-width:0.8;" x="40.603125" xlink:href="#m143b6cd097" y="225.658787"/>
      </g>
     </g>
     <g id="text_11">
      <!-- 0 -->
      <g transform="translate(27.240625 229.458006)scale(0.1 -0.1)">
       <use xlink:href="#DejaVuSans-48"/>
      </g>
     </g>
    </g>
    <g id="ytick_2">
     <g id="line2d_11">
      <g>
       <use style="stroke:#000000;stroke-width:0.8;" x="40.603125" xlink:href="#m143b6cd097" y="175.688572"/>
      </g>
     </g>
     <g id="text_12">
      <!-- 5 -->
      <g transform="translate(27.240625 179.487791)scale(0.1 -0.1)">
       <use xlink:href="#DejaVuSans-53"/>
      </g>
     </g>
    </g>
    <g id="ytick_3">
     <g id="line2d_12">
      <g>
       <use style="stroke:#000000;stroke-width:0.8;" x="40.603125" xlink:href="#m143b6cd097" y="125.718356"/>
      </g>
     </g>
     <g id="text_13">
      <!-- 10 -->
      <defs>
       <path d="M 12.40625 8.296875 
L 28.515625 8.296875 
L 28.515625 63.921875 
L 10.984375 60.40625 
L 10.984375 69.390625 
L 28.421875 72.90625 
L 38.28125 72.90625 
L 38.28125 8.296875 
L 54.390625 8.296875 
L 54.390625 0 
L 12.40625 0 
z
" id="DejaVuSans-49"/>
      </defs>
      <g transform="translate(20.878125 129.517575)scale(0.1 -0.1)">
       <use xlink:href="#DejaVuSans-49"/>
       <use x="63.623047" xlink:href="#DejaVuSans-48"/>
      </g>
     </g>
    </g>
    <g id="ytick_4">
     <g id="line2d_13">
      <g>
       <use style="stroke:#000000;stroke-width:0.8;" x="40.603125" xlink:href="#m143b6cd097" y="75.74814"/>
      </g>
     </g>
     <g id="text_14">
      <!-- 15 -->
      <g transform="translate(20.878125 79.547359)scale(0.1 -0.1)">
       <use xlink:href="#DejaVuSans-49"/>
       <use x="63.623047" xlink:href="#DejaVuSans-53"/>
      </g>
     </g>
    </g>
    <g id="ytick_5">
     <g id="line2d_14">
      <g>
       <use style="stroke:#000000;stroke-width:0.8;" x="40.603125" xlink:href="#m143b6cd097" y="25.777925"/>
      </g>
     </g>
     <g id="text_15">
      <!-- 20 -->
      <defs>
       <path d="M 19.1875 8.296875 
L 53.609375 8.296875 
L 53.609375 0 
L 7.328125 0 
L 7.328125 8.296875 
Q 12.9375 14.109375 22.625 23.890625 
Q 32.328125 33.6875 34.8125 36.53125 
Q 39.546875 41.84375 41.421875 45.53125 
Q 43.3125 49.21875 43.3125 52.78125 
Q 43.3125 58.59375 39.234375 62.25 
Q 35.15625 65.921875 28.609375 65.921875 
Q 23.96875 65.921875 18.8125 64.3125 
Q 13.671875 62.703125 7.8125 59.421875 
L 7.8125 69.390625 
Q 13.765625 71.78125 18.9375 73 
Q 24.125 74.21875 28.421875 74.21875 
Q 39.75 74.21875 46.484375 68.546875 
Q 53.21875 62.890625 53.21875 53.421875 
Q 53.21875 48.921875 51.53125 44.890625 
Q 49.859375 40.875 45.40625 35.40625 
Q 44.1875 33.984375 37.640625 27.21875 
Q 31.109375 20.453125 19.1875 8.296875 
z
" id="DejaVuSans-50"/>
      </defs>
      <g transform="translate(20.878125 29.577144)scale(0.1 -0.1)">
       <use xlink:href="#DejaVuSans-50"/>
       <use x="63.623047" xlink:href="#DejaVuSans-48"/>
      </g>
     </g>
    </g>
    <g id="text_16">
     <!-- y -->
     <defs>
      <path d="M 32.171875 -5.078125 
Q 28.375 -14.84375 24.75 -17.8125 
Q 21.140625 -20.796875 15.09375 -20.796875 
L 7.90625 -20.796875 
L 7.90625 -13.28125 
L 13.1875 -13.28125 
Q 16.890625 -13.28125 18.9375 -11.515625 
Q 21 -9.765625 23.484375 -3.21875 
L 25.09375 0.875 
L 2.984375 54.6875 
L 12.5 54.6875 
L 29.59375 11.921875 
L 46.6875 54.6875 
L 56.203125 54.6875 
z
" id="DejaVuSans-121"/>
     </defs>
     <g transform="translate(14.798438 143.215375)rotate(-90)scale(0.1 -0.1)">
      <use xlink:href="#DejaVuSans-121"/>
     </g>
    </g>
   </g>
   <g id="LineCollection_1">
    <path clip-path="url(#p248e64fb6c)" d="M 56.835852 241.518967 
L 56.835852 221.53088 
" style="fill:none;stroke:#1f77b4;stroke-width:1.5;"/>
    <path clip-path="url(#p248e64fb6c)" d="M 60.115191 229.909865 
L 60.115191 209.921779 
" style="fill:none;stroke:#1f77b4;stroke-width:1.5;"/>
    <path clip-path="url(#p248e64fb6c)" d="M 63.39453 236.698353 
L 63.39453 216.710267 
" style="fill:none;stroke:#1f77b4;stroke-width:1.5;"/>
    <path clip-path="url(#p248e64fb6c)" d="M 66.673869 250.898758 
L 66.673869 230.910672 
" style="fill:none;stroke:#1f77b4;stroke-width:1.5;"/>
    <path clip-path="url(#p248e64fb6c)" d="M 69.953208 229.089698 
L 69.953208 209.101612 
" style="fill:none;stroke:#1f77b4;stroke-width:1.5;"/>
    <path clip-path="url(#p248e64fb6c)" d="M 73.232546 233.986865 
L 73.232546 213.998779 
" style="fill:none;stroke:#1f77b4;stroke-width:1.5;"/>
    <path clip-path="url(#p248e64fb6c)" d="M 76.511885 236.364916 
L 76.511885 216.37683 
" style="fill:none;stroke:#1f77b4;stroke-width:1.5;"/>
    <path clip-path="url(#p248e64fb6c)" d="M 79.791224 229.148741 
L 79.791224 209.160655 
" style="fill:none;stroke:#1f77b4;stroke-width:1.5;"/>
    <path clip-path="url(#p248e64fb6c)" d="M 83.070563 246.726415 
L 83.070563 226.738329 
" style="fill:none;stroke:#1f77b4;stroke-width:1.5;"/>
    <path clip-path="url(#p248e64fb6c)" d="M 86.349902 246.025284 
L 86.349902 226.037197 
" style="fill:none;stroke:#1f77b4;stroke-width:1.5;"/>
    <path clip-path="url(#p248e64fb6c)" d="M 89.629241 244.033007 
L 89.629241 224.04492 
" style="fill:none;stroke:#1f77b4;stroke-width:1.5;"/>
    <path clip-path="url(#p248e64fb6c)" d="M 92.90858 237.986822 
L 92.90858 217.998736 
" style="fill:none;stroke:#1f77b4;stroke-width:1.5;"/>
    <path clip-path="url(#p248e64fb6c)" d="M 96.187918 232.704172 
L 96.187918 212.716086 
" style="fill:none;stroke:#1f77b4;stroke-width:1.5;"/>
    <path clip-path="url(#p248e64fb6c)" d="M 99.467257 225.651197 
L 99.467257 205.663111 
" style="fill:none;stroke:#1f77b4;stroke-width:1.5;"/>
    <path clip-path="url(#p248e64fb6c)" d="M 102.746596 234.800914 
L 102.746596 214.812828 
" style="fill:none;stroke:#1f77b4;stroke-width:1.5;"/>
    <path clip-path="url(#p248e64fb6c)" d="M 106.025935 227.515724 
L 106.025935 207.527637 
" style="fill:none;stroke:#1f77b4;stroke-width:1.5;"/>
    <path clip-path="url(#p248e64fb6c)" d="M 109.305274 232.406434 
L 109.305274 212.418348 
" style="fill:none;stroke:#1f77b4;stroke-width:1.5;"/>
    <path clip-path="url(#p248e64fb6c)" d="M 112.584613 229.464125 
L 112.584613 209.476039 
" style="fill:none;stroke:#1f77b4;stroke-width:1.5;"/>
    <path clip-path="url(#p248e64fb6c)" d="M 115.863951 236.773259 
L 115.863951 216.785173 
" style="fill:none;stroke:#1f77b4;stroke-width:1.5;"/>
    <path clip-path="url(#p248e64fb6c)" d="M 119.14329 222.562434 
L 119.14329 202.574348 
" style="fill:none;stroke:#1f77b4;stroke-width:1.5;"/>
    <path clip-path="url(#p248e64fb6c)" d="M 122.422629 249.900953 
L 122.422629 229.912866 
" style="fill:none;stroke:#1f77b4;stroke-width:1.5;"/>
    <path clip-path="url(#p248e64fb6c)" d="M 125.701968 226.598081 
L 125.701968 206.609994 
" style="fill:none;stroke:#1f77b4;stroke-width:1.5;"/>
    <path clip-path="url(#p248e64fb6c)" d="M 128.981307 216.354153 
L 128.981307 196.366066 
" style="fill:none;stroke:#1f77b4;stroke-width:1.5;"/>
    <path clip-path="url(#p248e64fb6c)" d="M 132.260646 201.105088 
L 132.260646 181.117002 
" style="fill:none;stroke:#1f77b4;stroke-width:1.5;"/>
    <path clip-path="url(#p248e64fb6c)" d="M 135.539985 78.23861 
L 135.539985 58.250524 
" style="fill:none;stroke:#1f77b4;stroke-width:1.5;"/>
    <path clip-path="url(#p248e64fb6c)" d="M 138.819323 39.284086 
L 138.819323 19.296 
" style="fill:none;stroke:#1f77b4;stroke-width:1.5;"/>
    <path clip-path="url(#p248e64fb6c)" d="M 142.098662 140.714717 
L 142.098662 120.726631 
" style="fill:none;stroke:#1f77b4;stroke-width:1.5;"/>
    <path clip-path="url(#p248e64fb6c)" d="M 145.378001 238.352635 
L 145.378001 218.364549 
" style="fill:none;stroke:#1f77b4;stroke-width:1.5;"/>
    <path clip-path="url(#p248e64fb6c)" d="M 148.65734 260.169997 
L 148.65734 240.181911 
" style="fill:none;stroke:#1f77b4;stroke-width:1.5;"/>
    <path clip-path="url(#p248e64fb6c)" d="M 151.936679 246.437208 
L 151.936679 226.449122 
" style="fill:none;stroke:#1f77b4;stroke-width:1.5;"/>
    <path clip-path="url(#p248e64fb6c)" d="M 155.216018 238.369924 
L 155.216018 218.381838 
" style="fill:none;stroke:#1f77b4;stroke-width:1.5;"/>
    <path clip-path="url(#p248e64fb6c)" d="M 158.495356 217.59239 
L 158.495356 197.604304 
" style="fill:none;stroke:#1f77b4;stroke-width:1.5;"/>
    <path clip-path="url(#p248e64fb6c)" d="M 161.774695 233.052285 
L 161.774695 213.064199 
" style="fill:none;stroke:#1f77b4;stroke-width:1.5;"/>
    <path clip-path="url(#p248e64fb6c)" d="M 165.054034 237.59034 
L 165.054034 217.602253 
" style="fill:none;stroke:#1f77b4;stroke-width:1.5;"/>
    <path clip-path="url(#p248e64fb6c)" d="M 168.333373 238.861709 
L 168.333373 218.873623 
" style="fill:none;stroke:#1f77b4;stroke-width:1.5;"/>
    <path clip-path="url(#p248e64fb6c)" d="M 171.612712 252.394083 
L 171.612712 232.405996 
" style="fill:none;stroke:#1f77b4;stroke-width:1.5;"/>
    <path clip-path="url(#p248e64fb6c)" d="M 174.892051 238.595908 
L 174.892051 218.607822 
" style="fill:none;stroke:#1f77b4;stroke-width:1.5;"/>
    <path clip-path="url(#p248e64fb6c)" d="M 178.171389 232.895259 
L 178.171389 212.907172 
" style="fill:none;stroke:#1f77b4;stroke-width:1.5;"/>
    <path clip-path="url(#p248e64fb6c)" d="M 181.450728 239.133735 
L 181.450728 219.145649 
" style="fill:none;stroke:#1f77b4;stroke-width:1.5;"/>
    <path clip-path="url(#p248e64fb6c)" d="M 184.730067 242.578396 
L 184.730067 222.59031 
" style="fill:none;stroke:#1f77b4;stroke-width:1.5;"/>
    <path clip-path="url(#p248e64fb6c)" d="M 188.009406 239.202913 
L 188.009406 219.214827 
" style="fill:none;stroke:#1f77b4;stroke-width:1.5;"/>
    <path clip-path="url(#p248e64fb6c)" d="M 191.288745 223.83628 
L 191.288745 203.848194 
" style="fill:none;stroke:#1f77b4;stroke-width:1.5;"/>
    <path clip-path="url(#p248e64fb6c)" d="M 194.568084 242.728708 
L 194.568084 222.740621 
" style="fill:none;stroke:#1f77b4;stroke-width:1.5;"/>
    <path clip-path="url(#p248e64fb6c)" d="M 197.847423 255.329244 
L 197.847423 235.341158 
" style="fill:none;stroke:#1f77b4;stroke-width:1.5;"/>
    <path clip-path="url(#p248e64fb6c)" d="M 201.126761 233.676302 
L 201.126761 213.688216 
" style="fill:none;stroke:#1f77b4;stroke-width:1.5;"/>
    <path clip-path="url(#p248e64fb6c)" d="M 204.4061 224.435605 
L 204.4061 204.447519 
" style="fill:none;stroke:#1f77b4;stroke-width:1.5;"/>
    <path clip-path="url(#p248e64fb6c)" d="M 207.685439 218.417941 
L 207.685439 198.429855 
" style="fill:none;stroke:#1f77b4;stroke-width:1.5;"/>
    <path clip-path="url(#p248e64fb6c)" d="M 210.964778 233.592722 
L 210.964778 213.604636 
" style="fill:none;stroke:#1f77b4;stroke-width:1.5;"/>
    <path clip-path="url(#p248e64fb6c)" d="M 214.244117 233.711581 
L 214.244117 213.723494 
" style="fill:none;stroke:#1f77b4;stroke-width:1.5;"/>
    <path clip-path="url(#p248e64fb6c)" d="M 217.523456 244.679905 
L 217.523456 224.691819 
" style="fill:none;stroke:#1f77b4;stroke-width:1.5;"/>
    <path clip-path="url(#p248e64fb6c)" d="M 220.802794 229.218602 
L 220.802794 209.230516 
" style="fill:none;stroke:#1f77b4;stroke-width:1.5;"/>
    <path clip-path="url(#p248e64fb6c)" d="M 224.082133 239.323449 
L 224.082133 219.335362 
" style="fill:none;stroke:#1f77b4;stroke-width:1.5;"/>
    <path clip-path="url(#p248e64fb6c)" d="M 227.361472 253.813522 
L 227.361472 233.825435 
" style="fill:none;stroke:#1f77b4;stroke-width:1.5;"/>
    <path clip-path="url(#p248e64fb6c)" d="M 230.640811 252.567249 
L 230.640811 232.579163 
" style="fill:none;stroke:#1f77b4;stroke-width:1.5;"/>
    <path clip-path="url(#p248e64fb6c)" d="M 233.92015 232.912272 
L 233.92015 212.924186 
" style="fill:none;stroke:#1f77b4;stroke-width:1.5;"/>
    <path clip-path="url(#p248e64fb6c)" d="M 237.199489 236.787103 
L 237.199489 216.799016 
" style="fill:none;stroke:#1f77b4;stroke-width:1.5;"/>
    <path clip-path="url(#p248e64fb6c)" d="M 240.478827 231.052532 
L 240.478827 211.064445 
" style="fill:none;stroke:#1f77b4;stroke-width:1.5;"/>
    <path clip-path="url(#p248e64fb6c)" d="M 243.758166 239.647584 
L 243.758166 219.659498 
" style="fill:none;stroke:#1f77b4;stroke-width:1.5;"/>
    <path clip-path="url(#p248e64fb6c)" d="M 247.037505 228.445862 
L 247.037505 208.457776 
" style="fill:none;stroke:#1f77b4;stroke-width:1.5;"/>
    <path clip-path="url(#p248e64fb6c)" d="M 250.316844 261.216 
L 250.316844 241.227914 
" style="fill:none;stroke:#1f77b4;stroke-width:1.5;"/>
    <path clip-path="url(#p248e64fb6c)" d="M 253.596183 223.851548 
L 253.596183 203.863462 
" style="fill:none;stroke:#1f77b4;stroke-width:1.5;"/>
    <path clip-path="url(#p248e64fb6c)" d="M 256.875522 232.312735 
L 256.875522 212.324648 
" style="fill:none;stroke:#1f77b4;stroke-width:1.5;"/>
    <path clip-path="url(#p248e64fb6c)" d="M 260.154861 243.909371 
L 260.154861 223.921285 
" style="fill:none;stroke:#1f77b4;stroke-width:1.5;"/>
    <path clip-path="url(#p248e64fb6c)" d="M 263.434199 244.167441 
L 263.434199 224.179355 
" style="fill:none;stroke:#1f77b4;stroke-width:1.5;"/>
    <path clip-path="url(#p248e64fb6c)" d="M 266.713538 233.338977 
L 266.713538 213.350891 
" style="fill:none;stroke:#1f77b4;stroke-width:1.5;"/>
    <path clip-path="url(#p248e64fb6c)" d="M 269.992877 243.752128 
L 269.992877 223.764042 
" style="fill:none;stroke:#1f77b4;stroke-width:1.5;"/>
    <path clip-path="url(#p248e64fb6c)" d="M 273.272216 247.844841 
L 273.272216 227.856754 
" style="fill:none;stroke:#1f77b4;stroke-width:1.5;"/>
    <path clip-path="url(#p248e64fb6c)" d="M 276.551555 215.783067 
L 276.551555 195.794981 
" style="fill:none;stroke:#1f77b4;stroke-width:1.5;"/>
    <path clip-path="url(#p248e64fb6c)" d="M 279.830894 232.95239 
L 279.830894 212.964304 
" style="fill:none;stroke:#1f77b4;stroke-width:1.5;"/>
    <path clip-path="url(#p248e64fb6c)" d="M 283.110232 221.289818 
L 283.110232 201.301732 
" style="fill:none;stroke:#1f77b4;stroke-width:1.5;"/>
    <path clip-path="url(#p248e64fb6c)" d="M 286.389571 247.542395 
L 286.389571 227.554308 
" style="fill:none;stroke:#1f77b4;stroke-width:1.5;"/>
    <path clip-path="url(#p248e64fb6c)" d="M 289.66891 232.41258 
L 289.66891 212.424493 
" style="fill:none;stroke:#1f77b4;stroke-width:1.5;"/>
    <path clip-path="url(#p248e64fb6c)" d="M 292.948249 229.369848 
L 292.948249 209.381762 
" style="fill:none;stroke:#1f77b4;stroke-width:1.5;"/>
    <path clip-path="url(#p248e64fb6c)" d="M 296.227588 245.443941 
L 296.227588 225.455854 
" style="fill:none;stroke:#1f77b4;stroke-width:1.5;"/>
    <path clip-path="url(#p248e64fb6c)" d="M 299.506927 239.251349 
L 299.506927 219.263263 
" style="fill:none;stroke:#1f77b4;stroke-width:1.5;"/>
    <path clip-path="url(#p248e64fb6c)" d="M 302.786265 243.295052 
L 302.786265 223.306966 
" style="fill:none;stroke:#1f77b4;stroke-width:1.5;"/>
    <path clip-path="url(#p248e64fb6c)" d="M 306.065604 252.988422 
L 306.065604 233.000335 
" style="fill:none;stroke:#1f77b4;stroke-width:1.5;"/>
    <path clip-path="url(#p248e64fb6c)" d="M 309.344943 235.585645 
L 309.344943 215.597559 
" style="fill:none;stroke:#1f77b4;stroke-width:1.5;"/>
    <path clip-path="url(#p248e64fb6c)" d="M 312.624282 239.904915 
L 312.624282 219.916829 
" style="fill:none;stroke:#1f77b4;stroke-width:1.5;"/>
    <path clip-path="url(#p248e64fb6c)" d="M 315.903621 237.352631 
L 315.903621 217.364544 
" style="fill:none;stroke:#1f77b4;stroke-width:1.5;"/>
    <path clip-path="url(#p248e64fb6c)" d="M 319.18296 234.287698 
L 319.18296 214.299612 
" style="fill:none;stroke:#1f77b4;stroke-width:1.5;"/>
    <path clip-path="url(#p248e64fb6c)" d="M 322.462299 251.498992 
L 322.462299 231.510906 
" style="fill:none;stroke:#1f77b4;stroke-width:1.5;"/>
    <path clip-path="url(#p248e64fb6c)" d="M 325.741637 235.437543 
L 325.741637 215.449457 
" style="fill:none;stroke:#1f77b4;stroke-width:1.5;"/>
    <path clip-path="url(#p248e64fb6c)" d="M 329.020976 239.262003 
L 329.020976 219.273916 
" style="fill:none;stroke:#1f77b4;stroke-width:1.5;"/>
    <path clip-path="url(#p248e64fb6c)" d="M 332.300315 238.167395 
L 332.300315 218.179309 
" style="fill:none;stroke:#1f77b4;stroke-width:1.5;"/>
    <path clip-path="url(#p248e64fb6c)" d="M 335.579654 228.889915 
L 335.579654 208.901828 
" style="fill:none;stroke:#1f77b4;stroke-width:1.5;"/>
    <path clip-path="url(#p248e64fb6c)" d="M 338.858993 237.741803 
L 338.858993 217.753716 
" style="fill:none;stroke:#1f77b4;stroke-width:1.5;"/>
    <path clip-path="url(#p248e64fb6c)" d="M 342.138332 224.445763 
L 342.138332 204.457676 
" style="fill:none;stroke:#1f77b4;stroke-width:1.5;"/>
    <path clip-path="url(#p248e64fb6c)" d="M 345.41767 228.355138 
L 345.41767 208.367052 
" style="fill:none;stroke:#1f77b4;stroke-width:1.5;"/>
    <path clip-path="url(#p248e64fb6c)" d="M 348.697009 233.497465 
L 348.697009 213.509379 
" style="fill:none;stroke:#1f77b4;stroke-width:1.5;"/>
    <path clip-path="url(#p248e64fb6c)" d="M 351.976348 232.871298 
L 351.976348 212.883212 
" style="fill:none;stroke:#1f77b4;stroke-width:1.5;"/>
    <path clip-path="url(#p248e64fb6c)" d="M 355.255687 245.883852 
L 355.255687 225.895766 
" style="fill:none;stroke:#1f77b4;stroke-width:1.5;"/>
    <path clip-path="url(#p248e64fb6c)" d="M 358.535026 223.915053 
L 358.535026 203.926967 
" style="fill:none;stroke:#1f77b4;stroke-width:1.5;"/>
    <path clip-path="url(#p248e64fb6c)" d="M 361.814365 235.431087 
L 361.814365 215.443001 
" style="fill:none;stroke:#1f77b4;stroke-width:1.5;"/>
    <path clip-path="url(#p248e64fb6c)" d="M 365.093704 213.817442 
L 365.093704 193.829356 
" style="fill:none;stroke:#1f77b4;stroke-width:1.5;"/>
    <path clip-path="url(#p248e64fb6c)" d="M 368.373042 238.011177 
L 368.373042 218.023091 
" style="fill:none;stroke:#1f77b4;stroke-width:1.5;"/>
    <path clip-path="url(#p248e64fb6c)" d="M 371.652381 226.790669 
L 371.652381 206.802583 
" style="fill:none;stroke:#1f77b4;stroke-width:1.5;"/>
    <path clip-path="url(#p248e64fb6c)" d="M 374.93172 231.715386 
L 374.93172 211.7273 
" style="fill:none;stroke:#1f77b4;stroke-width:1.5;"/>
    <path clip-path="url(#p248e64fb6c)" d="M 378.211059 235.470503 
L 378.211059 215.482416 
" style="fill:none;stroke:#1f77b4;stroke-width:1.5;"/>
    <path clip-path="url(#p248e64fb6c)" d="M 381.490398 234.77146 
L 381.490398 214.783374 
" style="fill:none;stroke:#1f77b4;stroke-width:1.5;"/>
   </g>
   <g id="line2d_15">
    <path clip-path="url(#p248e64fb6c)" d="M 56.835852 225.658787 
L 60.115191 225.658787 
L 63.39453 225.658787 
L 66.673869 225.658787 
L 69.953208 225.658787 
L 73.232546 225.658787 
L 76.511885 225.658787 
L 79.791224 225.658787 
L 83.070563 225.658787 
L 86.349902 225.658787 
L 89.629241 225.658787 
L 92.90858 225.658787 
L 96.187918 225.658787 
L 99.467257 225.658787 
L 102.746596 225.658787 
L 106.025935 225.658787 
L 109.305274 225.658787 
L 112.584613 225.658787 
L 115.863951 225.658787 
L 119.14329 225.658742 
L 122.422629 225.652944 
L 125.701968 225.360387 
L 128.981307 219.618936 
L 132.260646 177.203932 
L 135.539985 71.583732 
L 138.819323 31.475728 
L 142.098662 128.65821 
L 145.378001 206.45348 
L 148.65734 224.151652 
L 151.936679 225.61191 
L 155.216018 225.65821 
L 158.495356 225.658785 
L 161.774695 225.658787 
L 165.054034 225.658787 
L 168.333373 225.658787 
L 171.612712 225.658787 
L 174.892051 225.658787 
L 178.171389 225.658787 
L 181.450728 225.658787 
L 184.730067 225.658787 
L 188.009406 225.658787 
L 191.288745 225.658787 
L 194.568084 225.658787 
L 197.847423 225.658787 
L 201.126761 225.658787 
L 204.4061 225.658787 
L 207.685439 225.658787 
L 210.964778 225.658787 
L 214.244117 225.658787 
L 217.523456 225.658787 
L 220.802794 225.658787 
L 224.082133 225.658787 
L 227.361472 225.658787 
L 230.640811 225.658787 
L 233.92015 225.658787 
L 237.199489 225.658787 
L 240.478827 225.658787 
L 243.758166 225.658787 
L 247.037505 225.658787 
L 250.316844 225.658787 
L 253.596183 225.658787 
L 256.875522 225.658787 
L 260.154861 225.658787 
L 263.434199 225.658787 
L 266.713538 225.658787 
L 269.992877 225.658787 
L 273.272216 225.658787 
L 276.551555 225.658787 
L 279.830894 225.658787 
L 283.110232 225.658787 
L 286.389571 225.658787 
L 289.66891 225.658787 
L 292.948249 225.658787 
L 296.227588 225.658787 
L 299.506927 225.658787 
L 302.786265 225.658787 
L 306.065604 225.658787 
L 309.344943 225.658787 
L 312.624282 225.658787 
L 315.903621 225.658787 
L 319.18296 225.658787 
L 322.462299 225.658787 
L 325.741637 225.658787 
L 329.020976 225.658787 
L 332.300315 225.658787 
L 335.579654 225.658787 
L 338.858993 225.658787 
L 342.138332 225.658787 
L 345.41767 225.658787 
L 348.697009 225.658787 
L 351.976348 225.658787 
L 355.255687 225.658787 
L 358.535026 225.658787 
L 361.814365 225.658787 
L 365.093704 225.658787 
L 368.373042 225.658787 
L 371.652381 225.658787 
L 374.93172 225.658787 
L 378.211059 225.658787 
L 381.490398 225.658787 
" style="fill:none;stroke:#000000;stroke-dasharray:1.5,2.475;stroke-dashoffset:0;stroke-opacity:0.5;stroke-width:1.5;"/>
   </g>
   <g id="line2d_16">
    <defs>
     <path d="M -3 3 
L 3 -3 
M -3 -3 
L 3 3 
" id="m2d0b88bea6" style="stroke:#1f77b4;"/>
    </defs>
    <g clip-path="url(#p248e64fb6c)">
     <use style="fill:#1f77b4;stroke:#1f77b4;" x="56.835852" xlink:href="#m2d0b88bea6" y="231.524924"/>
     <use style="fill:#1f77b4;stroke:#1f77b4;" x="60.115191" xlink:href="#m2d0b88bea6" y="219.915822"/>
     <use style="fill:#1f77b4;stroke:#1f77b4;" x="63.39453" xlink:href="#m2d0b88bea6" y="226.70431"/>
     <use style="fill:#1f77b4;stroke:#1f77b4;" x="66.673869" xlink:href="#m2d0b88bea6" y="240.904715"/>
     <use style="fill:#1f77b4;stroke:#1f77b4;" x="69.953208" xlink:href="#m2d0b88bea6" y="219.095655"/>
     <use style="fill:#1f77b4;stroke:#1f77b4;" x="73.232546" xlink:href="#m2d0b88bea6" y="223.992822"/>
     <use style="fill:#1f77b4;stroke:#1f77b4;" x="76.511885" xlink:href="#m2d0b88bea6" y="226.370873"/>
     <use style="fill:#1f77b4;stroke:#1f77b4;" x="79.791224" xlink:href="#m2d0b88bea6" y="219.154698"/>
     <use style="fill:#1f77b4;stroke:#1f77b4;" x="83.070563" xlink:href="#m2d0b88bea6" y="236.732372"/>
     <use style="fill:#1f77b4;stroke:#1f77b4;" x="86.349902" xlink:href="#m2d0b88bea6" y="236.031241"/>
     <use style="fill:#1f77b4;stroke:#1f77b4;" x="89.629241" xlink:href="#m2d0b88bea6" y="234.038963"/>
     <use style="fill:#1f77b4;stroke:#1f77b4;" x="92.90858" xlink:href="#m2d0b88bea6" y="227.992779"/>
     <use style="fill:#1f77b4;stroke:#1f77b4;" x="96.187918" xlink:href="#m2d0b88bea6" y="222.710129"/>
     <use style="fill:#1f77b4;stroke:#1f77b4;" x="99.467257" xlink:href="#m2d0b88bea6" y="215.657154"/>
     <use style="fill:#1f77b4;stroke:#1f77b4;" x="102.746596" xlink:href="#m2d0b88bea6" y="224.806871"/>
     <use style="fill:#1f77b4;stroke:#1f77b4;" x="106.025935" xlink:href="#m2d0b88bea6" y="217.52168"/>
     <use style="fill:#1f77b4;stroke:#1f77b4;" x="109.305274" xlink:href="#m2d0b88bea6" y="222.412391"/>
     <use style="fill:#1f77b4;stroke:#1f77b4;" x="112.584613" xlink:href="#m2d0b88bea6" y="219.470082"/>
     <use style="fill:#1f77b4;stroke:#1f77b4;" x="115.863951" xlink:href="#m2d0b88bea6" y="226.779216"/>
     <use style="fill:#1f77b4;stroke:#1f77b4;" x="119.14329" xlink:href="#m2d0b88bea6" y="212.568391"/>
     <use style="fill:#1f77b4;stroke:#1f77b4;" x="122.422629" xlink:href="#m2d0b88bea6" y="239.90691"/>
     <use style="fill:#1f77b4;stroke:#1f77b4;" x="125.701968" xlink:href="#m2d0b88bea6" y="216.604037"/>
     <use style="fill:#1f77b4;stroke:#1f77b4;" x="128.981307" xlink:href="#m2d0b88bea6" y="206.360109"/>
     <use style="fill:#1f77b4;stroke:#1f77b4;" x="132.260646" xlink:href="#m2d0b88bea6" y="191.111045"/>
     <use style="fill:#1f77b4;stroke:#1f77b4;" x="135.539985" xlink:href="#m2d0b88bea6" y="68.244567"/>
     <use style="fill:#1f77b4;stroke:#1f77b4;" x="138.819323" xlink:href="#m2d0b88bea6" y="29.290043"/>
     <use style="fill:#1f77b4;stroke:#1f77b4;" x="142.098662" xlink:href="#m2d0b88bea6" y="130.720674"/>
     <use style="fill:#1f77b4;stroke:#1f77b4;" x="145.378001" xlink:href="#m2d0b88bea6" y="228.358592"/>
     <use style="fill:#1f77b4;stroke:#1f77b4;" x="148.65734" xlink:href="#m2d0b88bea6" y="250.175954"/>
     <use style="fill:#1f77b4;stroke:#1f77b4;" x="151.936679" xlink:href="#m2d0b88bea6" y="236.443165"/>
     <use style="fill:#1f77b4;stroke:#1f77b4;" x="155.216018" xlink:href="#m2d0b88bea6" y="228.375881"/>
     <use style="fill:#1f77b4;stroke:#1f77b4;" x="158.495356" xlink:href="#m2d0b88bea6" y="207.598347"/>
     <use style="fill:#1f77b4;stroke:#1f77b4;" x="161.774695" xlink:href="#m2d0b88bea6" y="223.058242"/>
     <use style="fill:#1f77b4;stroke:#1f77b4;" x="165.054034" xlink:href="#m2d0b88bea6" y="227.596296"/>
     <use style="fill:#1f77b4;stroke:#1f77b4;" x="168.333373" xlink:href="#m2d0b88bea6" y="228.867666"/>
     <use style="fill:#1f77b4;stroke:#1f77b4;" x="171.612712" xlink:href="#m2d0b88bea6" y="242.400039"/>
     <use style="fill:#1f77b4;stroke:#1f77b4;" x="174.892051" xlink:href="#m2d0b88bea6" y="228.601865"/>
     <use style="fill:#1f77b4;stroke:#1f77b4;" x="178.171389" xlink:href="#m2d0b88bea6" y="222.901215"/>
     <use style="fill:#1f77b4;stroke:#1f77b4;" x="181.450728" xlink:href="#m2d0b88bea6" y="229.139692"/>
     <use style="fill:#1f77b4;stroke:#1f77b4;" x="184.730067" xlink:href="#m2d0b88bea6" y="232.584353"/>
     <use style="fill:#1f77b4;stroke:#1f77b4;" x="188.009406" xlink:href="#m2d0b88bea6" y="229.20887"/>
     <use style="fill:#1f77b4;stroke:#1f77b4;" x="191.288745" xlink:href="#m2d0b88bea6" y="213.842237"/>
     <use style="fill:#1f77b4;stroke:#1f77b4;" x="194.568084" xlink:href="#m2d0b88bea6" y="232.734664"/>
     <use style="fill:#1f77b4;stroke:#1f77b4;" x="197.847423" xlink:href="#m2d0b88bea6" y="245.335201"/>
     <use style="fill:#1f77b4;stroke:#1f77b4;" x="201.126761" xlink:href="#m2d0b88bea6" y="223.682259"/>
     <use style="fill:#1f77b4;stroke:#1f77b4;" x="204.4061" xlink:href="#m2d0b88bea6" y="214.441562"/>
     <use style="fill:#1f77b4;stroke:#1f77b4;" x="207.685439" xlink:href="#m2d0b88bea6" y="208.423898"/>
     <use style="fill:#1f77b4;stroke:#1f77b4;" x="210.964778" xlink:href="#m2d0b88bea6" y="223.598679"/>
     <use style="fill:#1f77b4;stroke:#1f77b4;" x="214.244117" xlink:href="#m2d0b88bea6" y="223.717538"/>
     <use style="fill:#1f77b4;stroke:#1f77b4;" x="217.523456" xlink:href="#m2d0b88bea6" y="234.685862"/>
     <use style="fill:#1f77b4;stroke:#1f77b4;" x="220.802794" xlink:href="#m2d0b88bea6" y="219.224559"/>
     <use style="fill:#1f77b4;stroke:#1f77b4;" x="224.082133" xlink:href="#m2d0b88bea6" y="229.329406"/>
     <use style="fill:#1f77b4;stroke:#1f77b4;" x="227.361472" xlink:href="#m2d0b88bea6" y="243.819478"/>
     <use style="fill:#1f77b4;stroke:#1f77b4;" x="230.640811" xlink:href="#m2d0b88bea6" y="242.573206"/>
     <use style="fill:#1f77b4;stroke:#1f77b4;" x="233.92015" xlink:href="#m2d0b88bea6" y="222.918229"/>
     <use style="fill:#1f77b4;stroke:#1f77b4;" x="237.199489" xlink:href="#m2d0b88bea6" y="226.79306"/>
     <use style="fill:#1f77b4;stroke:#1f77b4;" x="240.478827" xlink:href="#m2d0b88bea6" y="221.058489"/>
     <use style="fill:#1f77b4;stroke:#1f77b4;" x="243.758166" xlink:href="#m2d0b88bea6" y="229.653541"/>
     <use style="fill:#1f77b4;stroke:#1f77b4;" x="247.037505" xlink:href="#m2d0b88bea6" y="218.451819"/>
     <use style="fill:#1f77b4;stroke:#1f77b4;" x="250.316844" xlink:href="#m2d0b88bea6" y="251.221957"/>
     <use style="fill:#1f77b4;stroke:#1f77b4;" x="253.596183" xlink:href="#m2d0b88bea6" y="213.857505"/>
     <use style="fill:#1f77b4;stroke:#1f77b4;" x="256.875522" xlink:href="#m2d0b88bea6" y="222.318691"/>
     <use style="fill:#1f77b4;stroke:#1f77b4;" x="260.154861" xlink:href="#m2d0b88bea6" y="233.915328"/>
     <use style="fill:#1f77b4;stroke:#1f77b4;" x="263.434199" xlink:href="#m2d0b88bea6" y="234.173398"/>
     <use style="fill:#1f77b4;stroke:#1f77b4;" x="266.713538" xlink:href="#m2d0b88bea6" y="223.344934"/>
     <use style="fill:#1f77b4;stroke:#1f77b4;" x="269.992877" xlink:href="#m2d0b88bea6" y="233.758085"/>
     <use style="fill:#1f77b4;stroke:#1f77b4;" x="273.272216" xlink:href="#m2d0b88bea6" y="237.850797"/>
     <use style="fill:#1f77b4;stroke:#1f77b4;" x="276.551555" xlink:href="#m2d0b88bea6" y="205.789024"/>
     <use style="fill:#1f77b4;stroke:#1f77b4;" x="279.830894" xlink:href="#m2d0b88bea6" y="222.958347"/>
     <use style="fill:#1f77b4;stroke:#1f77b4;" x="283.110232" xlink:href="#m2d0b88bea6" y="211.295775"/>
     <use style="fill:#1f77b4;stroke:#1f77b4;" x="286.389571" xlink:href="#m2d0b88bea6" y="237.548352"/>
     <use style="fill:#1f77b4;stroke:#1f77b4;" x="289.66891" xlink:href="#m2d0b88bea6" y="222.418536"/>
     <use style="fill:#1f77b4;stroke:#1f77b4;" x="292.948249" xlink:href="#m2d0b88bea6" y="219.375805"/>
     <use style="fill:#1f77b4;stroke:#1f77b4;" x="296.227588" xlink:href="#m2d0b88bea6" y="235.449897"/>
     <use style="fill:#1f77b4;stroke:#1f77b4;" x="299.506927" xlink:href="#m2d0b88bea6" y="229.257306"/>
     <use style="fill:#1f77b4;stroke:#1f77b4;" x="302.786265" xlink:href="#m2d0b88bea6" y="233.301009"/>
     <use style="fill:#1f77b4;stroke:#1f77b4;" x="306.065604" xlink:href="#m2d0b88bea6" y="242.994378"/>
     <use style="fill:#1f77b4;stroke:#1f77b4;" x="309.344943" xlink:href="#m2d0b88bea6" y="225.591602"/>
     <use style="fill:#1f77b4;stroke:#1f77b4;" x="312.624282" xlink:href="#m2d0b88bea6" y="229.910872"/>
     <use style="fill:#1f77b4;stroke:#1f77b4;" x="315.903621" xlink:href="#m2d0b88bea6" y="227.358588"/>
     <use style="fill:#1f77b4;stroke:#1f77b4;" x="319.18296" xlink:href="#m2d0b88bea6" y="224.293655"/>
     <use style="fill:#1f77b4;stroke:#1f77b4;" x="322.462299" xlink:href="#m2d0b88bea6" y="241.504949"/>
     <use style="fill:#1f77b4;stroke:#1f77b4;" x="325.741637" xlink:href="#m2d0b88bea6" y="225.4435"/>
     <use style="fill:#1f77b4;stroke:#1f77b4;" x="329.020976" xlink:href="#m2d0b88bea6" y="229.26796"/>
     <use style="fill:#1f77b4;stroke:#1f77b4;" x="332.300315" xlink:href="#m2d0b88bea6" y="228.173352"/>
     <use style="fill:#1f77b4;stroke:#1f77b4;" x="335.579654" xlink:href="#m2d0b88bea6" y="218.895872"/>
     <use style="fill:#1f77b4;stroke:#1f77b4;" x="338.858993" xlink:href="#m2d0b88bea6" y="227.74776"/>
     <use style="fill:#1f77b4;stroke:#1f77b4;" x="342.138332" xlink:href="#m2d0b88bea6" y="214.45172"/>
     <use style="fill:#1f77b4;stroke:#1f77b4;" x="345.41767" xlink:href="#m2d0b88bea6" y="218.361095"/>
     <use style="fill:#1f77b4;stroke:#1f77b4;" x="348.697009" xlink:href="#m2d0b88bea6" y="223.503422"/>
     <use style="fill:#1f77b4;stroke:#1f77b4;" x="351.976348" xlink:href="#m2d0b88bea6" y="222.877255"/>
     <use style="fill:#1f77b4;stroke:#1f77b4;" x="355.255687" xlink:href="#m2d0b88bea6" y="235.889809"/>
     <use style="fill:#1f77b4;stroke:#1f77b4;" x="358.535026" xlink:href="#m2d0b88bea6" y="213.92101"/>
     <use style="fill:#1f77b4;stroke:#1f77b4;" x="361.814365" xlink:href="#m2d0b88bea6" y="225.437044"/>
     <use style="fill:#1f77b4;stroke:#1f77b4;" x="365.093704" xlink:href="#m2d0b88bea6" y="203.823399"/>
     <use style="fill:#1f77b4;stroke:#1f77b4;" x="368.373042" xlink:href="#m2d0b88bea6" y="228.017134"/>
     <use style="fill:#1f77b4;stroke:#1f77b4;" x="371.652381" xlink:href="#m2d0b88bea6" y="216.796626"/>
     <use style="fill:#1f77b4;stroke:#1f77b4;" x="374.93172" xlink:href="#m2d0b88bea6" y="221.721343"/>
     <use style="fill:#1f77b4;stroke:#1f77b4;" x="378.211059" xlink:href="#m2d0b88bea6" y="225.47646"/>
     <use style="fill:#1f77b4;stroke:#1f77b4;" x="381.490398" xlink:href="#m2d0b88bea6" y="224.777417"/>
    </g>
   </g>
   <g id="patch_3">
    <path d="M 40.603125 273.312 
L 40.603125 7.2 
" style="fill:none;stroke:#000000;stroke-linecap:square;stroke-linejoin:miter;stroke-width:0.8;"/>
   </g>
   <g id="patch_4">
    <path d="M 397.723125 273.312 
L 397.723125 7.2 
" style="fill:none;stroke:#000000;stroke-linecap:square;stroke-linejoin:miter;stroke-width:0.8;"/>
   </g>
   <g id="patch_5">
    <path d="M 40.603125 273.312 
L 397.723125 273.312 
" style="fill:none;stroke:#000000;stroke-linecap:square;stroke-linejoin:miter;stroke-width:0.8;"/>
   </g>
   <g id="patch_6">
    <path d="M 40.603125 7.2 
L 397.723125 7.2 
" style="fill:none;stroke:#000000;stroke-linecap:square;stroke-linejoin:miter;stroke-width:0.8;"/>
   </g>
  </g>
 </g>
 <defs>
  <clipPath id="p248e64fb6c">
   <rect height="266.112" width="357.12" x="40.603125" y="7.2"/>
  </clipPath>
 </defs>
</svg>
