<?xml version="1.0" encoding="utf-8" standalone="no"?>
<!DOCTYPE svg PUBLIC "-//W3C//DTD SVG 1.1//EN"
  "http://www.w3.org/Graphics/SVG/1.1/DTD/svg11.dtd">
<svg xmlns:xlink="http://www.w3.org/1999/xlink" width="513.05pt" height="529.97pt" viewBox="0 0 513.05 529.97" xmlns="http://www.w3.org/2000/svg" version="1.1">
 <metadata>
  <rdf:RDF xmlns:dc="http://purl.org/dc/elements/1.1/" xmlns:cc="http://creativecommons.org/ns#" xmlns:rdf="http://www.w3.org/1999/02/22-rdf-syntax-ns#">
   <cc:Work>
    <dc:type rdf:resource="http://purl.org/dc/dcmitype/StillImage"/>
    <dc:date>2024-05-30T00:03:20.231738</dc:date>
    <dc:format>image/svg+xml</dc:format>
    <dc:creator>
     <cc:Agent>
      <dc:title>Matplotlib v3.9.0, https://matplotlib.org/</dc:title>
     </cc:Agent>
    </dc:creator>
   </cc:Work>
  </rdf:RDF>
 </metadata>
 <defs>
  <style type="text/css">*{stroke-linejoin: round; stroke-linecap: butt}</style>
 </defs>
 <g id="figure_1">
  <g id="patch_1">
   <path d="M 0 529.97 
L 513.05 529.97 
L 513.05 0 
L 0 0 
z
" style="fill: #ffffff"/>
  </g>
  <g id="axes_1">
   <g id="patch_2">
    <path d="M 59.45 168.12 
L 203.45 168.12 
L 203.45 24.12 
L 59.45 24.12 
z
" style="fill: #ffffff"/>
   </g>
   <g id="matplotlib.axis_1">
    <g id="xtick_1">
     <g id="line2d_1">
      <defs>
       <path id="mabe6f79701" d="M 0 1.75 
L 0 -1.75 
" style="stroke: #000000; stroke-width: 0.8"/>
      </defs>
      <g>
       <use xlink:href="#mabe6f79701" x="63.524363" y="168.12" style="stroke: #000000; stroke-width: 0.8"/>
      </g>
     </g>
     <g id="line2d_2">
      <g>
       <use xlink:href="#mabe6f79701" x="63.524363" y="24.12" style="stroke: #000000; stroke-width: 0.8"/>
      </g>
     </g>
    </g>
    <g id="xtick_2">
     <g id="line2d_3">
      <g>
       <use xlink:href="#mabe6f79701" x="96.938834" y="168.12" style="stroke: #000000; stroke-width: 0.8"/>
      </g>
     </g>
     <g id="line2d_4">
      <g>
       <use xlink:href="#mabe6f79701" x="96.938834" y="24.12" style="stroke: #000000; stroke-width: 0.8"/>
      </g>
     </g>
    </g>
    <g id="xtick_3">
     <g id="line2d_5">
      <g>
       <use xlink:href="#mabe6f79701" x="130.353304" y="168.12" style="stroke: #000000; stroke-width: 0.8"/>
      </g>
     </g>
     <g id="line2d_6">
      <g>
       <use xlink:href="#mabe6f79701" x="130.353304" y="24.12" style="stroke: #000000; stroke-width: 0.8"/>
      </g>
     </g>
    </g>
    <g id="xtick_4">
     <g id="line2d_7">
      <g>
       <use xlink:href="#mabe6f79701" x="163.767775" y="168.12" style="stroke: #000000; stroke-width: 0.8"/>
      </g>
     </g>
     <g id="line2d_8">
      <g>
       <use xlink:href="#mabe6f79701" x="163.767775" y="24.12" style="stroke: #000000; stroke-width: 0.8"/>
      </g>
     </g>
    </g>
    <g id="xtick_5">
     <g id="line2d_9">
      <g>
       <use xlink:href="#mabe6f79701" x="197.182245" y="168.12" style="stroke: #000000; stroke-width: 0.8"/>
      </g>
     </g>
     <g id="line2d_10">
      <g>
       <use xlink:href="#mabe6f79701" x="197.182245" y="24.12" style="stroke: #000000; stroke-width: 0.8"/>
      </g>
     </g>
    </g>
   </g>
   <g id="matplotlib.axis_2"/>
   <g id="patch_3">
    <path d="M 59.45 168.12 
L 59.45 168.085986 
L 66.65 168.085986 
L 66.65 167.999846 
L 73.85 167.999846 
L 73.85 167.097574 
L 81.05 167.097574 
L 81.05 165.460129 
L 88.25 165.460129 
L 88.25 161.894263 
L 95.45 161.894263 
L 95.45 139.353871 
L 102.65 139.353871 
L 102.65 114.908696 
L 109.85 114.908696 
L 109.85 88.803577 
L 117.05 88.803577 
L 117.05 50.449976 
L 124.25 50.449976 
L 124.25 37.473631 
L 131.45 37.473631 
L 131.45 37.210909 
L 138.65 37.210909 
L 138.65 67.226045 
L 145.85 67.226045 
L 145.85 103.237627 
L 153.05 103.237627 
L 153.05 132.546141 
L 160.25 132.546141 
L 160.25 154.244696 
L 167.45 154.244696 
L 167.45 160.291915 
L 174.65 160.291915 
L 174.65 165.4737 
L 181.85 165.4737 
L 181.85 167.364995 
L 189.05 167.364995 
L 189.05 168.008399 
L 196.25 168.008399 
L 196.25 168.092806 
L 203.45 168.092806 
L 203.45 168.12 
" clip-path="url(#pd70966dc50)" style="fill: none; stroke: #800080; stroke-linejoin: miter"/>
   </g>
   <g id="line2d_11">
    <path d="M 113.626364 168.12 
L 113.626364 24.12 
" clip-path="url(#pd70966dc50)" style="fill: none; stroke-dasharray: 5.55,2.4; stroke-dashoffset: 0; stroke: #800080; stroke-width: 1.5"/>
   </g>
   <g id="line2d_12">
    <path d="M 129.884411 168.12 
L 129.884411 24.12 
" clip-path="url(#pd70966dc50)" style="fill: none; stroke-dasharray: 5.55,2.4; stroke-dashoffset: 0; stroke: #800080; stroke-width: 1.5"/>
   </g>
   <g id="line2d_13">
    <path d="M 146.040894 168.12 
L 146.040894 24.12 
" clip-path="url(#pd70966dc50)" style="fill: none; stroke-dasharray: 5.55,2.4; stroke-dashoffset: 0; stroke: #800080; stroke-width: 1.5"/>
   </g>
   <g id="patch_4">
    <path d="M 59.45 168.12 
L 59.45 24.12 
" style="fill: none; stroke: #000000; stroke-width: 0.8; stroke-linejoin: miter; stroke-linecap: square"/>
   </g>
   <g id="patch_5">
    <path d="M 203.45 168.12 
L 203.45 24.12 
" style="fill: none; stroke: #000000; stroke-width: 0.8; stroke-linejoin: miter; stroke-linecap: square"/>
   </g>
   <g id="patch_6">
    <path d="M 59.45 168.12 
L 203.45 168.12 
" style="fill: none; stroke: #000000; stroke-width: 0.8; stroke-linejoin: miter; stroke-linecap: square"/>
   </g>
   <g id="patch_7">
    <path d="M 59.45 24.12 
L 203.45 24.12 
" style="fill: none; stroke: #000000; stroke-width: 0.8; stroke-linejoin: miter; stroke-linecap: square"/>
   </g>
   <g id="text_1">
    <!-- location = ${499.99}_{-0.24}^{+0.24}$ -->
    <g transform="translate(68.51 18.12) scale(0.12 -0.12)">
     <defs>
      <path id="HelveticaNeue-Medium-6c" d="M 403 4570 
L 1133 4570 
L 1133 0 
L 403 0 
L 403 4570 
z
" transform="scale(0.015625)"/>
      <path id="HelveticaNeue-Medium-6f" d="M 1901 -90 
Q 1504 -90 1193 41 
Q 883 173 668 403 
Q 454 634 342 954 
Q 230 1274 230 1658 
Q 230 2035 342 2355 
Q 454 2675 668 2905 
Q 883 3136 1193 3267 
Q 1504 3398 1901 3398 
Q 2298 3398 2608 3267 
Q 2918 3136 3132 2905 
Q 3347 2675 3459 2355 
Q 3571 2035 3571 1658 
Q 3571 1274 3459 954 
Q 3347 634 3132 403 
Q 2918 173 2608 41 
Q 2298 -90 1901 -90 
z
M 1901 486 
Q 2144 486 2323 588 
Q 2502 691 2617 857 
Q 2733 1024 2787 1232 
Q 2842 1440 2842 1658 
Q 2842 1869 2787 2080 
Q 2733 2291 2617 2454 
Q 2502 2618 2323 2720 
Q 2144 2822 1901 2822 
Q 1658 2822 1478 2720 
Q 1299 2618 1184 2454 
Q 1069 2291 1014 2080 
Q 960 1869 960 1658 
Q 960 1440 1014 1232 
Q 1069 1024 1184 857 
Q 1299 691 1478 588 
Q 1658 486 1901 486 
z
" transform="scale(0.015625)"/>
      <path id="HelveticaNeue-Medium-63" d="M 2618 2202 
Q 2573 2509 2371 2665 
Q 2170 2822 1862 2822 
Q 1722 2822 1562 2774 
Q 1402 2726 1267 2595 
Q 1133 2464 1043 2230 
Q 954 1997 954 1619 
Q 954 1414 1002 1209 
Q 1050 1005 1155 845 
Q 1261 685 1427 585 
Q 1594 486 1830 486 
Q 2150 486 2358 684 
Q 2566 883 2618 1242 
L 3347 1242 
Q 3245 595 2857 252 
Q 2470 -90 1830 -90 
Q 1440 -90 1142 41 
Q 845 173 640 400 
Q 435 627 329 940 
Q 224 1254 224 1619 
Q 224 1990 326 2316 
Q 429 2643 633 2883 
Q 838 3123 1142 3260 
Q 1446 3398 1856 3398 
Q 2144 3398 2403 3324 
Q 2662 3251 2864 3104 
Q 3066 2957 3194 2733 
Q 3322 2509 3347 2202 
L 2618 2202 
z
" transform="scale(0.015625)"/>
      <path id="HelveticaNeue-Medium-61" d="M 3155 736 
Q 3155 602 3190 544 
Q 3226 486 3328 486 
Q 3360 486 3405 486 
Q 3450 486 3507 499 
L 3507 -6 
Q 3469 -19 3408 -35 
Q 3347 -51 3283 -64 
Q 3219 -77 3155 -83 
Q 3091 -90 3046 -90 
Q 2822 -90 2675 0 
Q 2528 90 2483 314 
Q 2266 102 1949 6 
Q 1632 -90 1338 -90 
Q 1114 -90 909 -29 
Q 704 32 547 150 
Q 390 269 297 451 
Q 205 634 205 877 
Q 205 1184 317 1376 
Q 429 1568 611 1677 
Q 794 1786 1021 1834 
Q 1248 1882 1478 1907 
Q 1677 1946 1856 1962 
Q 2035 1978 2172 2016 
Q 2310 2054 2390 2134 
Q 2470 2214 2470 2374 
Q 2470 2515 2403 2604 
Q 2336 2694 2237 2742 
Q 2138 2790 2016 2806 
Q 1894 2822 1786 2822 
Q 1478 2822 1280 2694 
Q 1082 2566 1056 2298 
L 326 2298 
Q 346 2618 480 2829 
Q 614 3040 822 3168 
Q 1030 3296 1292 3347 
Q 1555 3398 1830 3398 
Q 2074 3398 2310 3347 
Q 2547 3296 2736 3181 
Q 2925 3066 3040 2883 
Q 3155 2701 3155 2438 
L 3155 736 
z
M 2426 1658 
Q 2259 1549 2016 1526 
Q 1773 1504 1530 1459 
Q 1414 1440 1305 1405 
Q 1197 1370 1113 1309 
Q 1030 1248 982 1149 
Q 934 1050 934 909 
Q 934 787 1004 704 
Q 1075 621 1174 573 
Q 1274 525 1392 505 
Q 1510 486 1606 486 
Q 1728 486 1869 518 
Q 2010 550 2134 627 
Q 2259 704 2342 822 
Q 2426 941 2426 1114 
L 2426 1658 
z
" transform="scale(0.015625)"/>
      <path id="HelveticaNeue-Medium-74" d="M 51 3309 
L 602 3309 
L 602 4301 
L 1331 4301 
L 1331 3309 
L 1990 3309 
L 1990 2765 
L 1331 2765 
L 1331 998 
Q 1331 883 1340 800 
Q 1350 717 1385 659 
Q 1421 602 1491 573 
Q 1562 544 1683 544 
Q 1760 544 1837 547 
Q 1914 550 1990 570 
L 1990 6 
Q 1869 -6 1753 -19 
Q 1638 -32 1517 -32 
Q 1229 -32 1053 22 
Q 877 77 777 182 
Q 678 288 643 448 
Q 608 608 602 813 
L 602 2765 
L 51 2765 
L 51 3309 
z
" transform="scale(0.015625)"/>
      <path id="HelveticaNeue-Medium-69" d="M 403 4570 
L 1133 4570 
L 1133 3878 
L 403 3878 
L 403 4570 
z
M 403 3309 
L 1133 3309 
L 1133 0 
L 403 0 
L 403 3309 
z
" transform="scale(0.015625)"/>
      <path id="HelveticaNeue-Medium-6e" d="M 384 3309 
L 1075 3309 
L 1075 2822 
L 1088 2810 
Q 1254 3085 1523 3241 
Q 1792 3398 2118 3398 
Q 2662 3398 2976 3116 
Q 3290 2835 3290 2272 
L 3290 0 
L 2560 0 
L 2560 2080 
Q 2547 2470 2393 2646 
Q 2240 2822 1914 2822 
Q 1728 2822 1581 2755 
Q 1434 2688 1331 2569 
Q 1229 2451 1171 2291 
Q 1114 2131 1114 1952 
L 1114 0 
L 384 0 
L 384 3309 
z
" transform="scale(0.015625)"/>
      <path id="HelveticaNeue-Medium-20" transform="scale(0.015625)"/>
      <path id="HelveticaNeue-Medium-3d" d="M 3533 646 
L 307 646 
L 307 1299 
L 3533 1299 
L 3533 646 
z
M 3533 1939 
L 307 1939 
L 307 2592 
L 3533 2592 
L 3533 1939 
z
" transform="scale(0.015625)"/>
      <path id="DejaVuSans-34" d="M 2419 4116 
L 825 1625 
L 2419 1625 
L 2419 4116 
z
M 2253 4666 
L 3047 4666 
L 3047 1625 
L 3713 1625 
L 3713 1100 
L 3047 1100 
L 3047 0 
L 2419 0 
L 2419 1100 
L 313 1100 
L 313 1709 
L 2253 4666 
z
" transform="scale(0.015625)"/>
      <path id="DejaVuSans-39" d="M 703 97 
L 703 672 
Q 941 559 1184 500 
Q 1428 441 1663 441 
Q 2288 441 2617 861 
Q 2947 1281 2994 2138 
Q 2813 1869 2534 1725 
Q 2256 1581 1919 1581 
Q 1219 1581 811 2004 
Q 403 2428 403 3163 
Q 403 3881 828 4315 
Q 1253 4750 1959 4750 
Q 2769 4750 3195 4129 
Q 3622 3509 3622 2328 
Q 3622 1225 3098 567 
Q 2575 -91 1691 -91 
Q 1453 -91 1209 -44 
Q 966 3 703 97 
z
M 1959 2075 
Q 2384 2075 2632 2365 
Q 2881 2656 2881 3163 
Q 2881 3666 2632 3958 
Q 2384 4250 1959 4250 
Q 1534 4250 1286 3958 
Q 1038 3666 1038 3163 
Q 1038 2656 1286 2365 
Q 1534 2075 1959 2075 
z
" transform="scale(0.015625)"/>
      <path id="DejaVuSans-2e" d="M 684 794 
L 1344 794 
L 1344 0 
L 684 0 
L 684 794 
z
" transform="scale(0.015625)"/>
      <path id="DejaVuSans-2b" d="M 2944 4013 
L 2944 2272 
L 4684 2272 
L 4684 1741 
L 2944 1741 
L 2944 0 
L 2419 0 
L 2419 1741 
L 678 1741 
L 678 2272 
L 2419 2272 
L 2419 4013 
L 2944 4013 
z
" transform="scale(0.015625)"/>
      <path id="DejaVuSans-30" d="M 2034 4250 
Q 1547 4250 1301 3770 
Q 1056 3291 1056 2328 
Q 1056 1369 1301 889 
Q 1547 409 2034 409 
Q 2525 409 2770 889 
Q 3016 1369 3016 2328 
Q 3016 3291 2770 3770 
Q 2525 4250 2034 4250 
z
M 2034 4750 
Q 2819 4750 3233 4129 
Q 3647 3509 3647 2328 
Q 3647 1150 3233 529 
Q 2819 -91 2034 -91 
Q 1250 -91 836 529 
Q 422 1150 422 2328 
Q 422 3509 836 4129 
Q 1250 4750 2034 4750 
z
" transform="scale(0.015625)"/>
      <path id="DejaVuSans-32" d="M 1228 531 
L 3431 531 
L 3431 0 
L 469 0 
L 469 531 
Q 828 903 1448 1529 
Q 2069 2156 2228 2338 
Q 2531 2678 2651 2914 
Q 2772 3150 2772 3378 
Q 2772 3750 2511 3984 
Q 2250 4219 1831 4219 
Q 1534 4219 1204 4116 
Q 875 4013 500 3803 
L 500 4441 
Q 881 4594 1212 4672 
Q 1544 4750 1819 4750 
Q 2544 4750 2975 4387 
Q 3406 4025 3406 3419 
Q 3406 3131 3298 2873 
Q 3191 2616 2906 2266 
Q 2828 2175 2409 1742 
Q 1991 1309 1228 531 
z
" transform="scale(0.015625)"/>
      <path id="DejaVuSans-2212" d="M 678 2272 
L 4684 2272 
L 4684 1741 
L 678 1741 
L 678 2272 
z
" transform="scale(0.015625)"/>
     </defs>
     <use xlink:href="#HelveticaNeue-Medium-6c" transform="translate(0 0.765625)"/>
     <use xlink:href="#HelveticaNeue-Medium-6f" transform="translate(24.099991 0.765625)"/>
     <use xlink:href="#HelveticaNeue-Medium-63" transform="translate(83.399979 0.765625)"/>
     <use xlink:href="#HelveticaNeue-Medium-61" transform="translate(138.999969 0.765625)"/>
     <use xlink:href="#HelveticaNeue-Medium-74" transform="translate(194.59996 0.765625)"/>
     <use xlink:href="#HelveticaNeue-Medium-69" transform="translate(227.899948 0.765625)"/>
     <use xlink:href="#HelveticaNeue-Medium-6f" transform="translate(251.999939 0.765625)"/>
     <use xlink:href="#HelveticaNeue-Medium-6e" transform="translate(311.299927 0.765625)"/>
     <use xlink:href="#HelveticaNeue-Medium-20" transform="translate(368.699921 0.765625)"/>
     <use xlink:href="#HelveticaNeue-Medium-3d" transform="translate(396.499908 0.765625)"/>
     <use xlink:href="#HelveticaNeue-Medium-20" transform="translate(456.499893 0.765625)"/>
     <use xlink:href="#DejaVuSans-34" transform="translate(484.299881 0.765625)"/>
     <use xlink:href="#DejaVuSans-39" transform="translate(547.922928 0.765625)"/>
     <use xlink:href="#DejaVuSans-39" transform="translate(611.545975 0.765625)"/>
     <use xlink:href="#DejaVuSans-2e" transform="translate(675.169022 0.765625)"/>
     <use xlink:href="#DejaVuSans-39" transform="translate(706.956131 0.765625)"/>
     <use xlink:href="#DejaVuSans-39" transform="translate(770.579178 0.765625)"/>
     <use xlink:href="#DejaVuSans-2b" transform="translate(835.159256 39.046875) scale(0.7)"/>
     <use xlink:href="#DejaVuSans-30" transform="translate(893.8116 39.046875) scale(0.7)"/>
     <use xlink:href="#DejaVuSans-2e" transform="translate(938.347733 39.046875) scale(0.7)"/>
     <use xlink:href="#DejaVuSans-32" transform="translate(956.748709 39.046875) scale(0.7)"/>
     <use xlink:href="#DejaVuSans-34" transform="translate(1001.284842 39.046875) scale(0.7)"/>
     <use xlink:href="#DejaVuSans-2212" transform="translate(835.159256 -26.578125) scale(0.7)"/>
     <use xlink:href="#DejaVuSans-30" transform="translate(893.8116 -26.578125) scale(0.7)"/>
     <use xlink:href="#DejaVuSans-2e" transform="translate(938.347733 -26.578125) scale(0.7)"/>
     <use xlink:href="#DejaVuSans-32" transform="translate(956.748709 -26.578125) scale(0.7)"/>
     <use xlink:href="#DejaVuSans-34" transform="translate(1001.284842 -26.578125) scale(0.7)"/>
    </g>
   </g>
  </g>
  <g id="axes_2">
   <g id="matplotlib.axis_3"/>
   <g id="matplotlib.axis_4"/>
  </g>
  <g id="axes_3">
   <g id="matplotlib.axis_5"/>
   <g id="matplotlib.axis_6"/>
  </g>
  <g id="axes_4">
   <g id="patch_8">
    <path d="M 59.45 319.32 
L 203.45 319.32 
L 203.45 175.32 
L 59.45 175.32 
z
" style="fill: #ffffff"/>
   </g>
   <g id="QuadContourSet_1">
    <path d="M 106.25 302.236097 
L 112.000224 301.32 
L 106.25 300.442934 
L 103.369515 294.12 
L 106.25 291.346674 
L 113.45 292.869706 
L 114.789401 294.12 
L 120.65 299.896979 
L 124.491858 301.32 
L 127.85 304.73441 
L 135.05 306.184135 
L 142.25 306.344295 
L 148.576338 301.32 
L 149.45 300.351265 
L 154.290381 294.12 
L 156.65 291.624323 
L 163.85 293.825407 
L 171.05 290.417708 
L 172.657254 286.92 
L 171.05 285.312746 
L 163.85 281.081549 
L 163.473882 279.72 
L 163.85 278.99003 
L 171.05 279.07904 
L 176.727754 279.72 
L 178.25 281.242246 
L 180.271454 279.72 
L 178.25 278.197754 
L 177.60904 272.52 
L 177.809665 265.32 
L 178.25 264.277853 
L 185.45 260.861622 
L 188.191622 258.12 
L 191.499103 250.92 
L 185.45 245.505794 
L 181.606489 243.72 
L 185.45 237.174203 
L 185.946693 236.52 
L 185.45 236.023307 
L 182.21014 229.32 
L 178.25 225.35986 
L 171.05 222.822188 
L 170.149113 222.12 
L 168.925807 214.92 
L 170.400142 207.72 
L 163.85 203.03657 
L 156.65 203.045104 
L 149.45 201.097265 
L 148.688315 200.52 
L 144.630847 193.32 
L 142.25 190.782407 
L 141.059531 193.32 
L 135.05 194.758697 
L 132.438336 193.32 
L 127.85 187.854781 
L 120.65 192.153464 
L 113.45 190.13261 
L 110.26261 193.32 
L 106.840881 200.52 
L 106.25 200.589169 
L 99.154422 207.72 
L 99.05 208.032961 
L 91.85 212.553184 
L 89.483184 214.92 
L 85.398599 222.12 
L 85.393528 229.32 
L 84.65 230.648087 
L 77.45 232.458046 
L 74.245558 236.52 
L 77.45 241.115135 
L 78.203396 243.72 
L 77.45 244.966966 
L 72.258145 250.92 
L 77.45 257.824435 
L 77.530729 258.12 
L 79.44645 265.32 
L 77.45 268.005558 
L 72.935558 272.52 
L 77.45 277.034442 
L 80.596819 279.72 
L 84.65 284.122632 
L 85.446846 286.92 
L 91.85 293.169667 
L 94.730485 294.12 
L 99.05 301.32 
L 99.05 301.32 
z
M 133.156055 294.12 
L 135.05 293.469726 
L 136.353275 294.12 
L 135.05 296.794571 
z
M 82.018686 272.52 
L 84.65 270.569888 
L 85.369824 272.52 
L 84.65 275.609635 
z
M 91.06685 258.12 
L 91.85 257.574332 
L 92.163949 258.12 
L 91.85 259.050361 
z
M 82.751367 250.92 
L 84.65 249.720924 
L 85.081438 250.92 
L 84.65 251.543867 
z
M 170.800726 243.72 
L 171.05 243.107985 
L 175.42039 243.72 
L 171.05 244.173793 
z
M 163.70434 229.32 
L 163.85 228.530781 
L 164.462754 229.32 
L 163.85 229.467557 
z
M 104.457156 214.92 
L 106.25 214.221839 
L 106.502174 214.92 
L 106.25 215.062529 
z
M 156.023694 214.92 
L 156.65 212.394896 
L 158.774193 214.92 
L 156.65 215.808037 
z
M 112.751839 207.72 
L 113.45 204.138633 
L 120.65 206.475166 
L 120.929049 207.72 
L 120.65 208.040026 
L 113.45 207.972174 
z
M 134.770951 207.72 
L 135.05 206.281303 
L 136.194152 207.72 
L 135.05 208.116183 
z
" clip-path="url(#peb40434cba)" style="fill: #ffffff"/>
   </g>
   <g id="matplotlib.axis_7">
    <g id="xtick_6">
     <g id="line2d_14">
      <g>
       <use xlink:href="#mabe6f79701" x="63.524363" y="319.32" style="stroke: #000000; stroke-width: 0.8"/>
      </g>
     </g>
     <g id="line2d_15">
      <g>
       <use xlink:href="#mabe6f79701" x="63.524363" y="175.32" style="stroke: #000000; stroke-width: 0.8"/>
      </g>
     </g>
    </g>
    <g id="xtick_7">
     <g id="line2d_16">
      <g>
       <use xlink:href="#mabe6f79701" x="96.938834" y="319.32" style="stroke: #000000; stroke-width: 0.8"/>
      </g>
     </g>
     <g id="line2d_17">
      <g>
       <use xlink:href="#mabe6f79701" x="96.938834" y="175.32" style="stroke: #000000; stroke-width: 0.8"/>
      </g>
     </g>
    </g>
    <g id="xtick_8">
     <g id="line2d_18">
      <g>
       <use xlink:href="#mabe6f79701" x="130.353304" y="319.32" style="stroke: #000000; stroke-width: 0.8"/>
      </g>
     </g>
     <g id="line2d_19">
      <g>
       <use xlink:href="#mabe6f79701" x="130.353304" y="175.32" style="stroke: #000000; stroke-width: 0.8"/>
      </g>
     </g>
    </g>
    <g id="xtick_9">
     <g id="line2d_20">
      <g>
       <use xlink:href="#mabe6f79701" x="163.767775" y="319.32" style="stroke: #000000; stroke-width: 0.8"/>
      </g>
     </g>
     <g id="line2d_21">
      <g>
       <use xlink:href="#mabe6f79701" x="163.767775" y="175.32" style="stroke: #000000; stroke-width: 0.8"/>
      </g>
     </g>
    </g>
    <g id="xtick_10">
     <g id="line2d_22">
      <g>
       <use xlink:href="#mabe6f79701" x="197.182245" y="319.32" style="stroke: #000000; stroke-width: 0.8"/>
      </g>
     </g>
     <g id="line2d_23">
      <g>
       <use xlink:href="#mabe6f79701" x="197.182245" y="175.32" style="stroke: #000000; stroke-width: 0.8"/>
      </g>
     </g>
    </g>
   </g>
   <g id="matplotlib.axis_8">
    <g id="ytick_1">
     <g id="line2d_24">
      <defs>
       <path id="m12203632bc" d="M 1.75 0 
L -1.75 -0 
" style="stroke: #000000; stroke-width: 0.8"/>
      </defs>
      <g>
       <use xlink:href="#m12203632bc" x="59.45" y="294.321506" style="stroke: #000000; stroke-width: 0.8"/>
      </g>
     </g>
     <g id="line2d_25">
      <g>
       <use xlink:href="#m12203632bc" x="203.45" y="294.321506" style="stroke: #000000; stroke-width: 0.8"/>
      </g>
     </g>
     <g id="text_2">
      <!-- 16 -->
      <g transform="translate(44.987724 303.662521) rotate(-45) scale(0.1 -0.1)">
       <defs>
        <path id="HelveticaNeue-Medium-31" d="M 339 3738 
Q 570 3738 787 3776 
Q 1005 3814 1181 3904 
Q 1357 3994 1481 4134 
Q 1606 4275 1645 4480 
L 2240 4480 
L 2240 0 
L 1440 0 
L 1440 3162 
L 339 3162 
L 339 3738 
z
" transform="scale(0.015625)"/>
        <path id="HelveticaNeue-Medium-36" d="M 2528 3347 
Q 2502 3622 2332 3792 
Q 2163 3962 1875 3962 
Q 1677 3962 1533 3888 
Q 1389 3814 1289 3692 
Q 1190 3571 1129 3414 
Q 1069 3258 1030 3085 
Q 992 2912 976 2742 
Q 960 2573 947 2426 
L 960 2413 
Q 1107 2682 1366 2813 
Q 1626 2944 1926 2944 
Q 2259 2944 2521 2829 
Q 2784 2714 2966 2512 
Q 3149 2310 3245 2035 
Q 3341 1760 3341 1440 
Q 3341 1114 3235 835 
Q 3130 557 2931 349 
Q 2733 141 2457 25 
Q 2182 -90 1850 -90 
Q 1357 -90 1040 92 
Q 723 275 540 592 
Q 358 909 288 1334 
Q 218 1760 218 2253 
Q 218 2656 304 3065 
Q 390 3475 588 3811 
Q 787 4147 1110 4358 
Q 1434 4570 1907 4570 
Q 2176 4570 2413 4480 
Q 2650 4390 2832 4230 
Q 3014 4070 3129 3846 
Q 3245 3622 3258 3347 
L 2528 3347 
z
M 1824 518 
Q 2022 518 2169 598 
Q 2317 678 2416 806 
Q 2515 934 2563 1104 
Q 2611 1274 2611 1453 
Q 2611 1632 2563 1798 
Q 2515 1965 2416 2089 
Q 2317 2214 2169 2291 
Q 2022 2368 1824 2368 
Q 1626 2368 1475 2294 
Q 1325 2221 1222 2096 
Q 1120 1971 1069 1804 
Q 1018 1638 1018 1453 
Q 1018 1267 1069 1100 
Q 1120 934 1222 803 
Q 1325 672 1475 595 
Q 1626 518 1824 518 
z
" transform="scale(0.015625)"/>
       </defs>
       <use xlink:href="#HelveticaNeue-Medium-31"/>
       <use xlink:href="#HelveticaNeue-Medium-36" x="55.599991"/>
      </g>
     </g>
    </g>
    <g id="ytick_2">
     <g id="line2d_26">
      <g>
       <use xlink:href="#m12203632bc" x="59.45" y="256.358518" style="stroke: #000000; stroke-width: 0.8"/>
      </g>
     </g>
     <g id="line2d_27">
      <g>
       <use xlink:href="#m12203632bc" x="203.45" y="256.358518" style="stroke: #000000; stroke-width: 0.8"/>
      </g>
     </g>
     <g id="text_3">
      <!-- 18 -->
      <g transform="translate(44.987724 265.699534) rotate(-45) scale(0.1 -0.1)">
       <defs>
        <path id="HelveticaNeue-Medium-38" d="M 1779 3994 
Q 1485 3994 1280 3818 
Q 1075 3642 1075 3309 
Q 1075 2989 1273 2819 
Q 1472 2650 1779 2650 
Q 2086 2650 2284 2819 
Q 2483 2989 2483 3309 
Q 2483 3642 2278 3818 
Q 2074 3994 1779 3994 
z
M 1779 -90 
Q 1440 -90 1149 6 
Q 858 102 646 284 
Q 435 467 316 729 
Q 198 992 198 1318 
Q 198 1741 419 2029 
Q 640 2317 1018 2413 
L 1018 2426 
Q 710 2541 547 2781 
Q 384 3021 384 3347 
Q 384 3923 745 4246 
Q 1107 4570 1779 4570 
Q 2451 4570 2812 4246 
Q 3174 3923 3174 3347 
Q 3174 3021 3011 2781 
Q 2848 2541 2541 2426 
L 2541 2413 
Q 2918 2317 3139 2029 
Q 3360 1741 3360 1318 
Q 3360 992 3241 729 
Q 3123 467 2912 284 
Q 2701 102 2409 6 
Q 2118 -90 1779 -90 
z
M 1779 486 
Q 2144 486 2387 704 
Q 2630 922 2630 1318 
Q 2630 1690 2387 1898 
Q 2144 2106 1779 2106 
Q 1414 2106 1171 1898 
Q 928 1690 928 1318 
Q 928 922 1171 704 
Q 1414 486 1779 486 
z
" transform="scale(0.015625)"/>
       </defs>
       <use xlink:href="#HelveticaNeue-Medium-31"/>
       <use xlink:href="#HelveticaNeue-Medium-38" x="55.599991"/>
      </g>
     </g>
    </g>
    <g id="ytick_3">
     <g id="line2d_28">
      <g>
       <use xlink:href="#m12203632bc" x="59.45" y="218.395531" style="stroke: #000000; stroke-width: 0.8"/>
      </g>
     </g>
     <g id="line2d_29">
      <g>
       <use xlink:href="#m12203632bc" x="203.45" y="218.395531" style="stroke: #000000; stroke-width: 0.8"/>
      </g>
     </g>
     <g id="text_4">
      <!-- 20 -->
      <g transform="translate(44.987724 227.736546) rotate(-45) scale(0.1 -0.1)">
       <defs>
        <path id="HelveticaNeue-Medium-32" d="M 3309 0 
L 250 0 
Q 256 557 518 973 
Q 781 1389 1235 1696 
Q 1453 1856 1689 2006 
Q 1926 2157 2124 2329 
Q 2323 2502 2451 2704 
Q 2579 2906 2586 3168 
Q 2586 3290 2557 3427 
Q 2528 3565 2445 3683 
Q 2362 3802 2214 3882 
Q 2067 3962 1830 3962 
Q 1613 3962 1469 3875 
Q 1325 3789 1238 3638 
Q 1152 3488 1110 3283 
Q 1069 3078 1062 2842 
L 333 2842 
Q 333 3213 432 3529 
Q 531 3846 729 4076 
Q 928 4307 1213 4438 
Q 1498 4570 1875 4570 
Q 2285 4570 2560 4435 
Q 2835 4301 3004 4096 
Q 3174 3891 3244 3651 
Q 3315 3411 3315 3194 
Q 3315 2925 3232 2707 
Q 3149 2490 3008 2307 
Q 2867 2125 2688 1971 
Q 2509 1818 2317 1683 
Q 2125 1549 1933 1427 
Q 1741 1306 1577 1184 
Q 1414 1062 1292 931 
Q 1171 800 1126 653 
L 3309 653 
L 3309 0 
z
" transform="scale(0.015625)"/>
        <path id="HelveticaNeue-Medium-30" d="M 1779 4570 
Q 2259 4570 2563 4349 
Q 2867 4128 3036 3785 
Q 3206 3443 3267 3033 
Q 3328 2624 3328 2240 
Q 3328 1856 3267 1446 
Q 3206 1037 3036 694 
Q 2867 352 2563 131 
Q 2259 -90 1779 -90 
Q 1299 -90 995 131 
Q 691 352 521 694 
Q 352 1037 291 1446 
Q 230 1856 230 2240 
Q 230 2624 291 3033 
Q 352 3443 521 3785 
Q 691 4128 995 4349 
Q 1299 4570 1779 4570 
z
M 1779 518 
Q 2016 518 2176 656 
Q 2336 794 2429 1027 
Q 2522 1261 2560 1574 
Q 2598 1888 2598 2240 
Q 2598 2592 2560 2902 
Q 2522 3213 2429 3449 
Q 2336 3686 2176 3824 
Q 2016 3962 1779 3962 
Q 1536 3962 1379 3824 
Q 1222 3686 1129 3449 
Q 1037 3213 998 2902 
Q 960 2592 960 2240 
Q 960 1888 998 1574 
Q 1037 1261 1129 1027 
Q 1222 794 1379 656 
Q 1536 518 1779 518 
z
" transform="scale(0.015625)"/>
       </defs>
       <use xlink:href="#HelveticaNeue-Medium-32"/>
       <use xlink:href="#HelveticaNeue-Medium-30" x="55.599991"/>
      </g>
     </g>
    </g>
    <g id="ytick_4">
     <g id="line2d_30">
      <g>
       <use xlink:href="#m12203632bc" x="59.45" y="180.432543" style="stroke: #000000; stroke-width: 0.8"/>
      </g>
     </g>
     <g id="line2d_31">
      <g>
       <use xlink:href="#m12203632bc" x="203.45" y="180.432543" style="stroke: #000000; stroke-width: 0.8"/>
      </g>
     </g>
     <g id="text_5">
      <!-- 22 -->
      <g transform="translate(44.987724 189.773558) rotate(-45) scale(0.1 -0.1)">
       <use xlink:href="#HelveticaNeue-Medium-32"/>
       <use xlink:href="#HelveticaNeue-Medium-32" x="55.599991"/>
      </g>
     </g>
    </g>
    <g id="text_6">
     <!-- amplitude -->
     <g transform="translate(14.340625 270.283281) rotate(-90) scale(0.1 -0.1)">
      <defs>
       <path id="HelveticaNeue-Medium-6d" d="M 384 3309 
L 1075 3309 
L 1075 2848 
L 1094 2848 
Q 1178 2970 1274 3072 
Q 1370 3174 1488 3244 
Q 1606 3315 1760 3356 
Q 1914 3398 2112 3398 
Q 2413 3398 2672 3264 
Q 2931 3130 3040 2848 
Q 3226 3104 3469 3251 
Q 3712 3398 4077 3398 
Q 4602 3398 4893 3142 
Q 5184 2886 5184 2285 
L 5184 0 
L 4454 0 
L 4454 1933 
Q 4454 2131 4441 2294 
Q 4429 2458 4368 2576 
Q 4307 2694 4185 2758 
Q 4064 2822 3853 2822 
Q 3482 2822 3315 2592 
Q 3149 2362 3149 1939 
L 3149 0 
L 2419 0 
L 2419 2125 
Q 2419 2470 2294 2646 
Q 2170 2822 1837 2822 
Q 1696 2822 1565 2764 
Q 1434 2707 1334 2598 
Q 1235 2490 1174 2330 
Q 1114 2170 1114 1965 
L 1114 0 
L 384 0 
L 384 3309 
z
" transform="scale(0.015625)"/>
       <path id="HelveticaNeue-Medium-70" d="M 403 3309 
L 1094 3309 
L 1094 2861 
L 1107 2861 
Q 1261 3149 1536 3273 
Q 1811 3398 2131 3398 
Q 2522 3398 2813 3260 
Q 3104 3123 3296 2883 
Q 3488 2643 3584 2323 
Q 3680 2003 3680 1638 
Q 3680 1306 3593 992 
Q 3507 678 3331 438 
Q 3155 198 2886 54 
Q 2618 -90 2253 -90 
Q 2093 -90 1933 -61 
Q 1773 -32 1625 32 
Q 1478 96 1353 195 
Q 1229 294 1146 429 
L 1133 429 
L 1133 -1222 
L 403 -1222 
L 403 3309 
z
M 2950 1651 
Q 2950 1875 2892 2086 
Q 2835 2298 2720 2461 
Q 2605 2624 2432 2723 
Q 2259 2822 2035 2822 
Q 1574 2822 1340 2502 
Q 1107 2182 1107 1651 
Q 1107 1402 1168 1187 
Q 1229 973 1350 819 
Q 1472 666 1641 576 
Q 1811 486 2035 486 
Q 2285 486 2457 588 
Q 2630 691 2742 854 
Q 2854 1018 2902 1226 
Q 2950 1434 2950 1651 
z
" transform="scale(0.015625)"/>
       <path id="HelveticaNeue-Medium-75" d="M 3290 0 
L 2573 0 
L 2573 461 
L 2560 461 
Q 2426 211 2160 60 
Q 1894 -90 1619 -90 
Q 966 -90 675 233 
Q 384 557 384 1210 
L 384 3309 
L 1114 3309 
L 1114 1280 
Q 1114 845 1280 665 
Q 1446 486 1747 486 
Q 1978 486 2131 556 
Q 2285 627 2381 745 
Q 2477 864 2518 1030 
Q 2560 1197 2560 1389 
L 2560 3309 
L 3290 3309 
L 3290 0 
z
" transform="scale(0.015625)"/>
       <path id="HelveticaNeue-Medium-64" d="M 3501 0 
L 2810 0 
L 2810 448 
L 2797 448 
Q 2650 160 2368 35 
Q 2086 -90 1773 -90 
Q 1382 -90 1091 48 
Q 800 186 608 422 
Q 416 659 320 982 
Q 224 1306 224 1677 
Q 224 2125 345 2451 
Q 467 2778 668 2989 
Q 870 3200 1129 3299 
Q 1389 3398 1658 3398 
Q 1811 3398 1971 3369 
Q 2131 3341 2278 3277 
Q 2426 3213 2550 3113 
Q 2675 3014 2758 2880 
L 2771 2880 
L 2771 4570 
L 3501 4570 
L 3501 0 
z
M 954 1619 
Q 954 1408 1008 1203 
Q 1062 998 1174 838 
Q 1286 678 1459 582 
Q 1632 486 1869 486 
Q 2112 486 2288 588 
Q 2464 691 2576 857 
Q 2688 1024 2742 1232 
Q 2797 1440 2797 1658 
Q 2797 2208 2550 2515 
Q 2304 2822 1882 2822 
Q 1626 2822 1450 2716 
Q 1274 2611 1162 2441 
Q 1050 2272 1002 2057 
Q 954 1843 954 1619 
z
" transform="scale(0.015625)"/>
       <path id="HelveticaNeue-Medium-65" d="M 2656 1946 
Q 2643 2118 2582 2278 
Q 2522 2438 2416 2556 
Q 2310 2675 2160 2748 
Q 2010 2822 1824 2822 
Q 1632 2822 1475 2755 
Q 1318 2688 1206 2569 
Q 1094 2451 1027 2291 
Q 960 2131 954 1946 
L 2656 1946 
z
M 954 1466 
Q 954 1274 1008 1094 
Q 1062 915 1171 780 
Q 1280 646 1446 566 
Q 1613 486 1843 486 
Q 2163 486 2358 624 
Q 2554 762 2650 1037 
L 3341 1037 
Q 3283 768 3142 557 
Q 3002 346 2803 202 
Q 2605 58 2358 -16 
Q 2112 -90 1843 -90 
Q 1453 -90 1152 38 
Q 851 166 643 396 
Q 435 627 329 947 
Q 224 1267 224 1651 
Q 224 2003 336 2320 
Q 448 2637 656 2877 
Q 864 3117 1158 3257 
Q 1453 3398 1824 3398 
Q 2214 3398 2524 3235 
Q 2835 3072 3040 2803 
Q 3245 2534 3337 2185 
Q 3430 1837 3386 1466 
L 954 1466 
z
" transform="scale(0.015625)"/>
      </defs>
      <use xlink:href="#HelveticaNeue-Medium-61"/>
      <use xlink:href="#HelveticaNeue-Medium-6d" x="55.599991"/>
      <use xlink:href="#HelveticaNeue-Medium-70" x="142.599976"/>
      <use xlink:href="#HelveticaNeue-Medium-6c" x="203.699966"/>
      <use xlink:href="#HelveticaNeue-Medium-69" x="227.799957"/>
      <use xlink:href="#HelveticaNeue-Medium-74" x="251.899948"/>
      <use xlink:href="#HelveticaNeue-Medium-75" x="285.199936"/>
      <use xlink:href="#HelveticaNeue-Medium-64" x="342.59993"/>
      <use xlink:href="#HelveticaNeue-Medium-65" x="403.699921"/>
     </g>
    </g>
   </g>
   <g id="QuadContourSet_2">
    <path d="M 106.25 302.236097 
L 112.000224 301.32 
L 106.25 300.442934 
L 103.369515 294.12 
L 106.25 291.346674 
L 113.45 292.869706 
L 114.789401 294.12 
L 120.65 299.896979 
L 124.491858 301.32 
L 127.85 304.73441 
L 135.05 306.184135 
L 142.25 306.344295 
L 148.576338 301.32 
L 149.45 300.351265 
L 154.290381 294.12 
L 156.65 291.624323 
L 163.85 293.825407 
L 171.05 290.417708 
L 172.657254 286.92 
L 171.05 285.312746 
L 163.85 281.081549 
L 163.473882 279.72 
L 163.85 278.99003 
L 171.05 279.07904 
L 176.727754 279.72 
L 178.25 281.242246 
L 180.271454 279.72 
L 178.25 278.197754 
L 177.60904 272.52 
L 177.809665 265.32 
L 178.25 264.277853 
L 185.45 260.861622 
L 188.191622 258.12 
L 191.499103 250.92 
L 185.45 245.505794 
L 181.606489 243.72 
L 185.45 237.174203 
L 185.946693 236.52 
L 185.45 236.023307 
L 182.21014 229.32 
L 178.25 225.35986 
L 171.05 222.822188 
L 170.149113 222.12 
L 168.925807 214.92 
L 170.400142 207.72 
L 163.85 203.03657 
L 156.65 203.045104 
L 149.45 201.097265 
L 148.688315 200.52 
L 144.630847 193.32 
L 142.25 190.782407 
L 141.059531 193.32 
L 135.05 194.758697 
L 132.438336 193.32 
L 127.85 187.854781 
L 120.65 192.153464 
L 113.45 190.13261 
L 110.26261 193.32 
L 106.840881 200.52 
L 106.25 200.589169 
L 99.154422 207.72 
L 99.05 208.032961 
L 91.85 212.553184 
L 89.483184 214.92 
L 85.398599 222.12 
L 85.393528 229.32 
L 84.65 230.648087 
L 77.45 232.458046 
L 74.245558 236.52 
L 77.45 241.115135 
L 78.203396 243.72 
L 77.45 244.966966 
L 72.258145 250.92 
L 77.45 257.824435 
L 77.530729 258.12 
L 79.44645 265.32 
L 77.45 268.005558 
L 72.935558 272.52 
L 77.45 277.034442 
L 80.596819 279.72 
L 84.65 284.122632 
L 85.446846 286.92 
L 91.85 293.169667 
L 94.730485 294.12 
L 99.05 301.32 
L 99.05 301.32 
L 106.25 302.236097 
z
M 135.05 296.794571 
L 133.156055 294.12 
L 135.05 293.469726 
L 136.353275 294.12 
L 135.05 296.794571 
z
M 84.65 275.609635 
L 82.018686 272.52 
L 84.65 270.569888 
L 85.369824 272.52 
L 84.65 275.609635 
z
M 91.85 259.050361 
L 91.06685 258.12 
L 91.85 257.574332 
L 92.163949 258.12 
L 91.85 259.050361 
z
M 84.65 251.543867 
L 82.751367 250.92 
L 84.65 249.720924 
L 85.081438 250.92 
L 84.65 251.543867 
M 171.05 244.173793 
L 170.800726 243.72 
L 171.05 243.107985 
L 175.42039 243.72 
L 171.05 244.173793 
z
M 163.85 229.467557 
L 163.70434 229.32 
L 163.85 228.530781 
L 164.462754 229.32 
L 163.85 229.467557 
M 106.25 215.062529 
L 104.457156 214.92 
L 106.25 214.221839 
L 106.502174 214.92 
L 106.25 215.062529 
z
M 156.65 215.808037 
L 156.023694 214.92 
L 156.65 212.394896 
L 158.774193 214.92 
L 156.65 215.808037 
z
M 113.45 207.972174 
L 112.751839 207.72 
L 113.45 204.138633 
L 120.65 206.475166 
L 120.929049 207.72 
L 120.65 208.040026 
L 113.45 207.972174 
z
M 135.05 208.116183 
L 134.770951 207.72 
L 135.05 206.281303 
L 136.194152 207.72 
L 135.05 208.116183 
z
" clip-path="url(#peb40434cba)" style="fill: none; stroke: #000080; stroke-width: 1.5"/>
    <path d="M 142.25 291.538062 
L 149.45 287.506745 
L 150.026631 286.92 
L 156.65 279.72 
L 156.65 279.72 
L 161.922513 272.52 
L 163.210786 265.32 
L 163.85 262.321401 
L 166.587917 265.32 
L 171.05 271.775511 
L 173.070621 265.32 
L 171.05 260.048875 
L 168.900363 258.12 
L 171.05 256.029384 
L 173.819769 250.92 
L 171.05 249.057679 
L 168.117951 243.72 
L 171.05 236.521255 
L 171.054694 236.52 
L 171.05 236.510224 
L 163.85 231.312451 
L 161.883162 229.32 
L 156.65 222.880928 
L 155.985858 222.12 
L 149.45 214.97294 
L 149.295557 214.92 
L 142.25 209.954664 
L 135.05 212.380054 
L 131.767724 207.72 
L 127.85 202.220936 
L 123.932276 207.72 
L 120.65 211.484259 
L 113.45 210.68617 
L 109.21617 214.92 
L 106.25 216.596474 
L 99.05 221.853641 
L 98.751734 222.12 
L 95.401805 229.32 
L 93.397061 236.52 
L 94.860716 243.72 
L 91.85 249.957901 
L 91.05493 250.92 
L 91.85 251.701652 
L 95.542789 258.12 
L 94.517448 265.32 
L 92.277941 272.52 
L 94.35608 279.72 
L 99.05 284.819678 
L 106.25 285.023702 
L 112.355821 279.72 
L 113.45 278.864375 
L 115.024954 279.72 
L 120.65 285.700427 
L 127.85 286.531796 
L 135.05 286.261522 
L 135.706526 286.92 
L 142.25 291.538062 
z
" clip-path="url(#peb40434cba)" style="fill: none; stroke-dasharray: 9.6,2.4,1.5,2.4; stroke-dashoffset: 0; stroke: #000080; stroke-width: 1.5"/>
    <path d="M 120.65 274.687157 
L 127.85 274.638834 
L 135.05 274.39433 
L 142.25 272.943717 
L 142.853955 272.52 
L 147.511317 265.32 
L 149.45 260.115532 
L 151.137421 258.12 
L 155.534473 250.92 
L 152.723365 243.72 
L 149.807914 236.52 
L 149.45 234.404324 
L 142.25 233.314584 
L 141.423896 229.32 
L 135.05 223.723175 
L 127.85 226.697407 
L 120.65 224.027962 
L 116.487841 229.32 
L 114.613567 236.52 
L 113.45 238.304094 
L 109.920137 236.52 
L 106.25 233.13188 
L 103.068066 236.52 
L 106.25 240.037559 
L 108.150282 243.72 
L 106.25 250.92 
L 107.653527 258.12 
L 112.550374 265.32 
L 113.45 266.115442 
L 117.801945 272.52 
L 120.65 274.687157 
z
" clip-path="url(#peb40434cba)" style="fill: none; stroke-dasharray: 1.5,2.475; stroke-dashoffset: 0; stroke: #000080; stroke-width: 1.5"/>
    <path d="M 127.85 261.996423 
L 135.05 265.32 
L 137.777954 258.12 
L 142.25 254.403804 
L 146.695557 250.92 
L 144.376744 243.72 
L 142.25 241.770005 
L 135.05 240.24987 
L 131.791554 236.52 
L 127.85 233.639422 
L 120.65 233.002586 
L 118.442378 236.52 
L 117.997208 243.72 
L 113.45 244.491368 
L 110.625209 250.92 
L 113.45 254.69106 
L 120.65 256.40749 
L 122.181199 258.12 
L 127.85 261.996423 
z
M 135.05 232.30625 
L 136.5188 229.32 
L 135.05 228.030268 
L 133.027212 229.32 
L 135.05 232.30625 
z
" clip-path="url(#peb40434cba)" style="fill: none; stroke-dasharray: 5.55,2.4; stroke-dashoffset: 0; stroke: #800080; stroke-width: 1.5"/>
   </g>
   <g id="patch_9">
    <path d="M 59.45 319.32 
L 59.45 175.32 
" style="fill: none; stroke: #000000; stroke-width: 0.8; stroke-linejoin: miter; stroke-linecap: square"/>
   </g>
   <g id="patch_10">
    <path d="M 203.45 319.32 
L 203.45 175.32 
" style="fill: none; stroke: #000000; stroke-width: 0.8; stroke-linejoin: miter; stroke-linecap: square"/>
   </g>
   <g id="patch_11">
    <path d="M 59.45 319.32 
L 203.45 319.32 
" style="fill: none; stroke: #000000; stroke-width: 0.8; stroke-linejoin: miter; stroke-linecap: square"/>
   </g>
   <g id="patch_12">
    <path d="M 59.45 175.32 
L 203.45 175.32 
" style="fill: none; stroke: #000000; stroke-width: 0.8; stroke-linejoin: miter; stroke-linecap: square"/>
   </g>
  </g>
  <g id="axes_5">
   <g id="patch_13">
    <path d="M 210.65 319.32 
L 354.65 319.32 
L 354.65 175.32 
L 210.65 175.32 
z
" style="fill: #ffffff"/>
   </g>
   <g id="matplotlib.axis_9">
    <g id="xtick_11">
     <g id="line2d_32">
      <g>
       <use xlink:href="#mabe6f79701" x="235.648494" y="319.32" style="stroke: #000000; stroke-width: 0.8"/>
      </g>
     </g>
     <g id="line2d_33">
      <g>
       <use xlink:href="#mabe6f79701" x="235.648494" y="175.32" style="stroke: #000000; stroke-width: 0.8"/>
      </g>
     </g>
    </g>
    <g id="xtick_12">
     <g id="line2d_34">
      <g>
       <use xlink:href="#mabe6f79701" x="273.611482" y="319.32" style="stroke: #000000; stroke-width: 0.8"/>
      </g>
     </g>
     <g id="line2d_35">
      <g>
       <use xlink:href="#mabe6f79701" x="273.611482" y="175.32" style="stroke: #000000; stroke-width: 0.8"/>
      </g>
     </g>
    </g>
    <g id="xtick_13">
     <g id="line2d_36">
      <g>
       <use xlink:href="#mabe6f79701" x="311.574469" y="319.32" style="stroke: #000000; stroke-width: 0.8"/>
      </g>
     </g>
     <g id="line2d_37">
      <g>
       <use xlink:href="#mabe6f79701" x="311.574469" y="175.32" style="stroke: #000000; stroke-width: 0.8"/>
      </g>
     </g>
    </g>
    <g id="xtick_14">
     <g id="line2d_38">
      <g>
       <use xlink:href="#mabe6f79701" x="349.537457" y="319.32" style="stroke: #000000; stroke-width: 0.8"/>
      </g>
     </g>
     <g id="line2d_39">
      <g>
       <use xlink:href="#mabe6f79701" x="349.537457" y="175.32" style="stroke: #000000; stroke-width: 0.8"/>
      </g>
     </g>
    </g>
   </g>
   <g id="matplotlib.axis_10"/>
   <g id="patch_14">
    <path d="M 210.65 319.32 
L 210.65 319.299983 
L 217.85 319.299983 
L 217.85 319.241616 
L 225.05 319.241616 
L 225.05 318.172881 
L 232.25 318.172881 
L 232.25 317.413181 
L 239.45 317.413181 
L 239.45 310.962914 
L 246.65 310.962914 
L 246.65 299.627872 
L 253.85 299.627872 
L 253.85 267.687861 
L 261.05 267.687861 
L 261.05 246.434063 
L 268.25 246.434063 
L 268.25 228.222452 
L 275.45 228.222452 
L 275.45 188.410909 
L 282.65 188.410909 
L 282.65 214.609916 
L 289.85 214.609916 
L 289.85 229.220079 
L 297.05 229.220079 
L 297.05 255.607034 
L 304.25 255.607034 
L 304.25 285.035617 
L 311.45 285.035617 
L 311.45 306.430582 
L 318.65 306.430582 
L 318.65 314.555448 
L 325.85 314.555448 
L 325.85 317.044504 
L 333.05 317.044504 
L 333.05 318.643858 
L 340.25 318.643858 
L 340.25 319.159631 
L 347.45 319.159631 
L 347.45 319.312706 
L 354.65 319.312706 
L 354.65 319.32 
" clip-path="url(#p9101c9498c)" style="fill: none; stroke: #800080; stroke-linejoin: miter"/>
   </g>
   <g id="line2d_40">
    <path d="M 264.373319 319.32 
L 264.373319 175.32 
" clip-path="url(#p9101c9498c)" style="fill: none; stroke-dasharray: 5.55,2.4; stroke-dashoffset: 0; stroke: #800080; stroke-width: 1.5"/>
   </g>
   <g id="line2d_41">
    <path d="M 280.937289 319.32 
L 280.937289 175.32 
" clip-path="url(#p9101c9498c)" style="fill: none; stroke-dasharray: 5.55,2.4; stroke-dashoffset: 0; stroke: #800080; stroke-width: 1.5"/>
   </g>
   <g id="line2d_42">
    <path d="M 298.363924 319.32 
L 298.363924 175.32 
" clip-path="url(#p9101c9498c)" style="fill: none; stroke-dasharray: 5.55,2.4; stroke-dashoffset: 0; stroke: #800080; stroke-width: 1.5"/>
   </g>
   <g id="patch_15">
    <path d="M 210.65 319.32 
L 210.65 175.32 
" style="fill: none; stroke: #000000; stroke-width: 0.8; stroke-linejoin: miter; stroke-linecap: square"/>
   </g>
   <g id="patch_16">
    <path d="M 354.65 319.32 
L 354.65 175.32 
" style="fill: none; stroke: #000000; stroke-width: 0.8; stroke-linejoin: miter; stroke-linecap: square"/>
   </g>
   <g id="patch_17">
    <path d="M 210.65 319.32 
L 354.65 319.32 
" style="fill: none; stroke: #000000; stroke-width: 0.8; stroke-linejoin: miter; stroke-linecap: square"/>
   </g>
   <g id="patch_18">
    <path d="M 210.65 175.32 
L 354.65 175.32 
" style="fill: none; stroke: #000000; stroke-width: 0.8; stroke-linejoin: miter; stroke-linecap: square"/>
   </g>
   <g id="text_7">
    <!-- amplitude = ${18.39}_{-0.87}^{+0.92}$ -->
    <g transform="translate(217.91 169.32) scale(0.12 -0.12)">
     <defs>
      <path id="DejaVuSans-31" d="M 794 531 
L 1825 531 
L 1825 4091 
L 703 3866 
L 703 4441 
L 1819 4666 
L 2450 4666 
L 2450 531 
L 3481 531 
L 3481 0 
L 794 0 
L 794 531 
z
" transform="scale(0.015625)"/>
      <path id="DejaVuSans-38" d="M 2034 2216 
Q 1584 2216 1326 1975 
Q 1069 1734 1069 1313 
Q 1069 891 1326 650 
Q 1584 409 2034 409 
Q 2484 409 2743 651 
Q 3003 894 3003 1313 
Q 3003 1734 2745 1975 
Q 2488 2216 2034 2216 
z
M 1403 2484 
Q 997 2584 770 2862 
Q 544 3141 544 3541 
Q 544 4100 942 4425 
Q 1341 4750 2034 4750 
Q 2731 4750 3128 4425 
Q 3525 4100 3525 3541 
Q 3525 3141 3298 2862 
Q 3072 2584 2669 2484 
Q 3125 2378 3379 2068 
Q 3634 1759 3634 1313 
Q 3634 634 3220 271 
Q 2806 -91 2034 -91 
Q 1263 -91 848 271 
Q 434 634 434 1313 
Q 434 1759 690 2068 
Q 947 2378 1403 2484 
z
M 1172 3481 
Q 1172 3119 1398 2916 
Q 1625 2713 2034 2713 
Q 2441 2713 2670 2916 
Q 2900 3119 2900 3481 
Q 2900 3844 2670 4047 
Q 2441 4250 2034 4250 
Q 1625 4250 1398 4047 
Q 1172 3844 1172 3481 
z
" transform="scale(0.015625)"/>
      <path id="DejaVuSans-33" d="M 2597 2516 
Q 3050 2419 3304 2112 
Q 3559 1806 3559 1356 
Q 3559 666 3084 287 
Q 2609 -91 1734 -91 
Q 1441 -91 1130 -33 
Q 819 25 488 141 
L 488 750 
Q 750 597 1062 519 
Q 1375 441 1716 441 
Q 2309 441 2620 675 
Q 2931 909 2931 1356 
Q 2931 1769 2642 2001 
Q 2353 2234 1838 2234 
L 1294 2234 
L 1294 2753 
L 1863 2753 
Q 2328 2753 2575 2939 
Q 2822 3125 2822 3475 
Q 2822 3834 2567 4026 
Q 2313 4219 1838 4219 
Q 1578 4219 1281 4162 
Q 984 4106 628 3988 
L 628 4550 
Q 988 4650 1302 4700 
Q 1616 4750 1894 4750 
Q 2613 4750 3031 4423 
Q 3450 4097 3450 3541 
Q 3450 3153 3228 2886 
Q 3006 2619 2597 2516 
z
" transform="scale(0.015625)"/>
      <path id="DejaVuSans-37" d="M 525 4666 
L 3525 4666 
L 3525 4397 
L 1831 0 
L 1172 0 
L 2766 4134 
L 525 4134 
L 525 4666 
z
" transform="scale(0.015625)"/>
     </defs>
     <use xlink:href="#HelveticaNeue-Medium-61" transform="translate(0 0.765625)"/>
     <use xlink:href="#HelveticaNeue-Medium-6d" transform="translate(55.599991 0.765625)"/>
     <use xlink:href="#HelveticaNeue-Medium-70" transform="translate(142.599976 0.765625)"/>
     <use xlink:href="#HelveticaNeue-Medium-6c" transform="translate(203.699966 0.765625)"/>
     <use xlink:href="#HelveticaNeue-Medium-69" transform="translate(227.799957 0.765625)"/>
     <use xlink:href="#HelveticaNeue-Medium-74" transform="translate(251.899948 0.765625)"/>
     <use xlink:href="#HelveticaNeue-Medium-75" transform="translate(285.199936 0.765625)"/>
     <use xlink:href="#HelveticaNeue-Medium-64" transform="translate(342.59993 0.765625)"/>
     <use xlink:href="#HelveticaNeue-Medium-65" transform="translate(403.699921 0.765625)"/>
     <use xlink:href="#HelveticaNeue-Medium-20" transform="translate(459.299911 0.765625)"/>
     <use xlink:href="#HelveticaNeue-Medium-3d" transform="translate(487.099899 0.765625)"/>
     <use xlink:href="#HelveticaNeue-Medium-20" transform="translate(547.099884 0.765625)"/>
     <use xlink:href="#DejaVuSans-31" transform="translate(574.899872 0.765625)"/>
     <use xlink:href="#DejaVuSans-38" transform="translate(638.522919 0.765625)"/>
     <use xlink:href="#DejaVuSans-2e" transform="translate(702.145966 0.765625)"/>
     <use xlink:href="#DejaVuSans-33" transform="translate(733.933075 0.765625)"/>
     <use xlink:href="#DejaVuSans-39" transform="translate(797.556122 0.765625)"/>
     <use xlink:href="#DejaVuSans-2b" transform="translate(862.1362 39.046875) scale(0.7)"/>
     <use xlink:href="#DejaVuSans-30" transform="translate(920.788544 39.046875) scale(0.7)"/>
     <use xlink:href="#DejaVuSans-2e" transform="translate(965.324677 39.046875) scale(0.7)"/>
     <use xlink:href="#DejaVuSans-39" transform="translate(987.575653 39.046875) scale(0.7)"/>
     <use xlink:href="#DejaVuSans-32" transform="translate(1030.886786 39.046875) scale(0.7)"/>
     <use xlink:href="#DejaVuSans-2212" transform="translate(862.1362 -26.578125) scale(0.7)"/>
     <use xlink:href="#DejaVuSans-30" transform="translate(920.788544 -26.578125) scale(0.7)"/>
     <use xlink:href="#DejaVuSans-2e" transform="translate(965.324677 -26.578125) scale(0.7)"/>
     <use xlink:href="#DejaVuSans-38" transform="translate(985.738153 -26.578125) scale(0.7)"/>
     <use xlink:href="#DejaVuSans-37" transform="translate(1030.274286 -26.578125) scale(0.7)"/>
    </g>
   </g>
  </g>
  <g id="axes_6">
   <g id="matplotlib.axis_11"/>
   <g id="matplotlib.axis_12"/>
  </g>
  <g id="axes_7">
   <g id="patch_19">
    <path d="M 59.45 470.52 
L 203.45 470.52 
L 203.45 326.52 
L 59.45 326.52 
z
" style="fill: #ffffff"/>
   </g>
   <g id="QuadContourSet_3">
    <path d="M 120.65 461.948308 
L 122.70029 459.72 
L 127.85 457.809287 
L 135.05 458.347985 
L 140.877985 452.52 
L 142.25 450.998312 
L 149.45 452.283484 
L 155.935189 445.32 
L 156.65 444.412149 
L 161.286947 445.32 
L 163.678727 452.52 
L 163.85 452.725606 
L 164.021273 452.52 
L 166.642814 445.32 
L 169.668418 438.12 
L 171.05 437.231897 
L 178.25 435.141156 
L 180.488503 430.92 
L 184.604269 423.72 
L 183.329227 416.52 
L 185.45 410.33512 
L 185.946287 409.32 
L 185.45 408.619464 
L 183.625267 402.12 
L 185.45 400.253215 
L 190.5644 394.92 
L 185.45 389.552418 
L 178.25 390.062839 
L 176.725838 387.72 
L 178.25 382.798978 
L 185.45 383.823292 
L 188.057802 380.52 
L 185.45 377.912198 
L 178.25 376.494292 
L 171.251067 373.32 
L 171.05 372.761122 
L 170.318417 366.12 
L 163.85 361.017375 
L 159.578271 358.92 
L 158.393031 351.72 
L 156.65 350.519257 
L 153.201228 351.72 
L 149.45 352.141152 
L 143.91767 358.92 
L 142.25 359.338796 
L 139.844264 358.92 
L 135.05 354.125736 
L 128.681225 351.72 
L 127.85 350.888775 
L 125.903915 351.72 
L 120.65 352.467126 
L 115.230729 358.92 
L 113.45 359.323986 
L 110.367604 358.92 
L 106.25 353.548769 
L 99.05 355.404255 
L 95.037968 358.92 
L 92.548316 366.12 
L 91.85 367.349024 
L 84.858456 366.12 
L 84.65 365.911544 
L 84.441544 366.12 
L 81.803588 373.32 
L 77.45 378.39188 
L 75.32188 380.52 
L 72.927667 387.72 
L 77.45 393.408557 
L 77.886987 394.92 
L 77.45 396.727513 
L 73.328552 402.12 
L 74.204527 409.32 
L 77.45 412.437228 
L 79.326744 416.52 
L 84.65 421.528664 
L 89.483477 423.72 
L 84.65 426.248183 
L 79.701501 430.92 
L 84.65 436.117357 
L 88.518118 438.12 
L 91.85 440.857157 
L 93.417267 445.32 
L 99.05 452.277928 
L 106.25 449.780566 
L 113.45 451.739825 
L 119.869825 445.32 
L 120.65 444.915476 
L 121.095691 445.32 
L 122.560713 452.52 
L 120.65 457.66971 
L 118.341441 459.72 
z
M 163.66093 430.92 
L 163.85 430.525378 
L 164.802527 430.92 
L 163.85 432.393447 
z
M 89.658664 416.52 
L 91.85 416.216727 
L 92.03329 416.52 
L 91.85 421.353477 
z
M 81.571448 402.12 
L 84.65 401.21376 
L 85.390413 402.12 
L 84.65 403.138744 
z
M 81.972333 387.72 
L 84.65 384.57299 
L 85.381067 387.72 
L 84.65 388.62624 
z
M 163.651314 373.32 
L 163.85 372.352257 
L 170.634163 373.32 
L 163.85 373.795569 
z
" clip-path="url(#p826ec27a42)" style="fill: #ffffff"/>
   </g>
   <g id="matplotlib.axis_13">
    <g id="xtick_15">
     <g id="line2d_43">
      <g>
       <use xlink:href="#mabe6f79701" x="63.524363" y="470.52" style="stroke: #000000; stroke-width: 0.8"/>
      </g>
     </g>
     <g id="line2d_44">
      <g>
       <use xlink:href="#mabe6f79701" x="63.524363" y="326.52" style="stroke: #000000; stroke-width: 0.8"/>
      </g>
     </g>
     <g id="text_8">
      <!-- 499.0 -->
      <g transform="translate(56.528978 498.509007) rotate(-45) scale(0.1 -0.1)">
       <defs>
        <path id="HelveticaNeue-Medium-34" d="M 717 1638 
L 2074 1638 
L 2074 3610 
L 2061 3610 
L 717 1638 
z
M 3341 1062 
L 2765 1062 
L 2765 0 
L 2074 0 
L 2074 1062 
L 154 1062 
L 154 1786 
L 2074 4480 
L 2765 4480 
L 2765 1638 
L 3341 1638 
L 3341 1062 
z
" transform="scale(0.015625)"/>
        <path id="HelveticaNeue-Medium-39" d="M 1030 1133 
Q 1056 858 1225 688 
Q 1395 518 1683 518 
Q 1978 518 2154 675 
Q 2330 832 2426 1065 
Q 2522 1299 2557 1564 
Q 2592 1830 2611 2054 
L 2598 2067 
Q 2451 1805 2195 1667 
Q 1939 1530 1632 1530 
Q 1312 1530 1053 1638 
Q 794 1747 608 1942 
Q 422 2138 320 2416 
Q 218 2694 218 3040 
Q 218 3366 320 3644 
Q 422 3923 620 4131 
Q 819 4339 1107 4454 
Q 1395 4570 1760 4570 
Q 2234 4570 2541 4387 
Q 2848 4205 3024 3888 
Q 3200 3571 3270 3142 
Q 3341 2714 3341 2227 
Q 3341 1824 3254 1414 
Q 3168 1005 2969 669 
Q 2771 333 2448 121 
Q 2125 -90 1651 -90 
Q 1382 -90 1145 0 
Q 909 90 726 250 
Q 544 410 429 634 
Q 314 858 301 1133 
L 1030 1133 
z
M 1728 3962 
Q 1530 3962 1382 3888 
Q 1235 3814 1139 3686 
Q 1043 3558 995 3392 
Q 947 3226 947 3046 
Q 947 2861 995 2691 
Q 1043 2522 1139 2394 
Q 1235 2266 1382 2186 
Q 1530 2106 1728 2106 
Q 1933 2106 2086 2182 
Q 2240 2259 2339 2390 
Q 2438 2522 2489 2691 
Q 2541 2861 2541 3046 
Q 2541 3226 2489 3392 
Q 2438 3558 2339 3683 
Q 2240 3808 2086 3885 
Q 1933 3962 1728 3962 
z
" transform="scale(0.015625)"/>
        <path id="HelveticaNeue-Medium-2e" d="M 442 864 
L 1331 864 
L 1331 0 
L 442 0 
L 442 864 
z
" transform="scale(0.015625)"/>
       </defs>
       <use xlink:href="#HelveticaNeue-Medium-34"/>
       <use xlink:href="#HelveticaNeue-Medium-39" x="55.599991"/>
       <use xlink:href="#HelveticaNeue-Medium-39" x="111.199982"/>
       <use xlink:href="#HelveticaNeue-Medium-2e" x="166.799973"/>
       <use xlink:href="#HelveticaNeue-Medium-30" x="194.59996"/>
      </g>
     </g>
    </g>
    <g id="xtick_16">
     <g id="line2d_45">
      <g>
       <use xlink:href="#mabe6f79701" x="96.938834" y="470.52" style="stroke: #000000; stroke-width: 0.8"/>
      </g>
     </g>
     <g id="line2d_46">
      <g>
       <use xlink:href="#mabe6f79701" x="96.938834" y="326.52" style="stroke: #000000; stroke-width: 0.8"/>
      </g>
     </g>
     <g id="text_9">
      <!-- 499.5 -->
      <g transform="translate(89.943448 498.509007) rotate(-45) scale(0.1 -0.1)">
       <defs>
        <path id="HelveticaNeue-Medium-35" d="M 787 4480 
L 3104 4480 
L 3104 3827 
L 1331 3827 
L 1101 2688 
L 1114 2675 
Q 1261 2842 1488 2928 
Q 1715 3014 1939 3014 
Q 2272 3014 2534 2902 
Q 2797 2790 2976 2588 
Q 3155 2387 3248 2112 
Q 3341 1837 3341 1517 
Q 3341 1248 3254 963 
Q 3168 678 2979 444 
Q 2790 211 2496 60 
Q 2202 -90 1792 -90 
Q 1466 -90 1187 -3 
Q 909 83 697 256 
Q 486 429 361 681 
Q 237 934 224 1274 
L 954 1274 
Q 986 909 1203 713 
Q 1421 518 1779 518 
Q 2010 518 2170 595 
Q 2330 672 2429 806 
Q 2528 941 2569 1120 
Q 2611 1299 2611 1504 
Q 2611 1690 2560 1859 
Q 2509 2029 2406 2157 
Q 2304 2285 2141 2361 
Q 1978 2438 1760 2438 
Q 1530 2438 1328 2352 
Q 1126 2266 1037 2029 
L 307 2029 
L 787 4480 
z
" transform="scale(0.015625)"/>
       </defs>
       <use xlink:href="#HelveticaNeue-Medium-34"/>
       <use xlink:href="#HelveticaNeue-Medium-39" x="55.599991"/>
       <use xlink:href="#HelveticaNeue-Medium-39" x="111.199982"/>
       <use xlink:href="#HelveticaNeue-Medium-2e" x="166.799973"/>
       <use xlink:href="#HelveticaNeue-Medium-35" x="194.59996"/>
      </g>
     </g>
    </g>
    <g id="xtick_17">
     <g id="line2d_47">
      <g>
       <use xlink:href="#mabe6f79701" x="130.353304" y="470.52" style="stroke: #000000; stroke-width: 0.8"/>
      </g>
     </g>
     <g id="line2d_48">
      <g>
       <use xlink:href="#mabe6f79701" x="130.353304" y="326.52" style="stroke: #000000; stroke-width: 0.8"/>
      </g>
     </g>
     <g id="text_10">
      <!-- 500.0 -->
      <g transform="translate(123.357919 498.509007) rotate(-45) scale(0.1 -0.1)">
       <use xlink:href="#HelveticaNeue-Medium-35"/>
       <use xlink:href="#HelveticaNeue-Medium-30" x="55.599991"/>
       <use xlink:href="#HelveticaNeue-Medium-30" x="111.199982"/>
       <use xlink:href="#HelveticaNeue-Medium-2e" x="166.799973"/>
       <use xlink:href="#HelveticaNeue-Medium-30" x="194.59996"/>
      </g>
     </g>
    </g>
    <g id="xtick_18">
     <g id="line2d_49">
      <g>
       <use xlink:href="#mabe6f79701" x="163.767775" y="470.52" style="stroke: #000000; stroke-width: 0.8"/>
      </g>
     </g>
     <g id="line2d_50">
      <g>
       <use xlink:href="#mabe6f79701" x="163.767775" y="326.52" style="stroke: #000000; stroke-width: 0.8"/>
      </g>
     </g>
     <g id="text_11">
      <!-- 500.5 -->
      <g transform="translate(156.772389 498.509007) rotate(-45) scale(0.1 -0.1)">
       <use xlink:href="#HelveticaNeue-Medium-35"/>
       <use xlink:href="#HelveticaNeue-Medium-30" x="55.599991"/>
       <use xlink:href="#HelveticaNeue-Medium-30" x="111.199982"/>
       <use xlink:href="#HelveticaNeue-Medium-2e" x="166.799973"/>
       <use xlink:href="#HelveticaNeue-Medium-35" x="194.59996"/>
      </g>
     </g>
    </g>
    <g id="xtick_19">
     <g id="line2d_51">
      <g>
       <use xlink:href="#mabe6f79701" x="197.182245" y="470.52" style="stroke: #000000; stroke-width: 0.8"/>
      </g>
     </g>
     <g id="line2d_52">
      <g>
       <use xlink:href="#mabe6f79701" x="197.182245" y="326.52" style="stroke: #000000; stroke-width: 0.8"/>
      </g>
     </g>
     <g id="text_12">
      <!-- 501.0 -->
      <g transform="translate(190.18686 498.509007) rotate(-45) scale(0.1 -0.1)">
       <use xlink:href="#HelveticaNeue-Medium-35"/>
       <use xlink:href="#HelveticaNeue-Medium-30" x="55.599991"/>
       <use xlink:href="#HelveticaNeue-Medium-31" x="111.199982"/>
       <use xlink:href="#HelveticaNeue-Medium-2e" x="166.799973"/>
       <use xlink:href="#HelveticaNeue-Medium-30" x="194.59996"/>
      </g>
     </g>
    </g>
    <g id="text_13">
     <!-- location -->
     <g transform="translate(113.016406 520.860625) scale(0.1 -0.1)">
      <use xlink:href="#HelveticaNeue-Medium-6c"/>
      <use xlink:href="#HelveticaNeue-Medium-6f" x="24.099991"/>
      <use xlink:href="#HelveticaNeue-Medium-63" x="83.399979"/>
      <use xlink:href="#HelveticaNeue-Medium-61" x="138.999969"/>
      <use xlink:href="#HelveticaNeue-Medium-74" x="194.59996"/>
      <use xlink:href="#HelveticaNeue-Medium-69" x="227.899948"/>
      <use xlink:href="#HelveticaNeue-Medium-6f" x="251.999939"/>
      <use xlink:href="#HelveticaNeue-Medium-6e" x="311.299927"/>
     </g>
    </g>
   </g>
   <g id="matplotlib.axis_14">
    <g id="ytick_5">
     <g id="line2d_53">
      <g>
       <use xlink:href="#m12203632bc" x="59.45" y="439.524168" style="stroke: #000000; stroke-width: 0.8"/>
      </g>
     </g>
     <g id="line2d_54">
      <g>
       <use xlink:href="#m12203632bc" x="203.45" y="439.524168" style="stroke: #000000; stroke-width: 0.8"/>
      </g>
     </g>
     <g id="text_14">
      <!-- 4.0 -->
      <g transform="translate(43.022189 450.830719) rotate(-45) scale(0.1 -0.1)">
       <use xlink:href="#HelveticaNeue-Medium-34"/>
       <use xlink:href="#HelveticaNeue-Medium-2e" x="55.599991"/>
       <use xlink:href="#HelveticaNeue-Medium-30" x="83.399979"/>
      </g>
     </g>
    </g>
    <g id="ytick_6">
     <g id="line2d_55">
      <g>
       <use xlink:href="#m12203632bc" x="59.45" y="406.124264" style="stroke: #000000; stroke-width: 0.8"/>
      </g>
     </g>
     <g id="line2d_56">
      <g>
       <use xlink:href="#m12203632bc" x="203.45" y="406.124264" style="stroke: #000000; stroke-width: 0.8"/>
      </g>
     </g>
     <g id="text_15">
      <!-- 4.5 -->
      <g transform="translate(43.022189 417.430815) rotate(-45) scale(0.1 -0.1)">
       <use xlink:href="#HelveticaNeue-Medium-34"/>
       <use xlink:href="#HelveticaNeue-Medium-2e" x="55.599991"/>
       <use xlink:href="#HelveticaNeue-Medium-35" x="83.399979"/>
      </g>
     </g>
    </g>
    <g id="ytick_7">
     <g id="line2d_57">
      <g>
       <use xlink:href="#m12203632bc" x="59.45" y="372.72436" style="stroke: #000000; stroke-width: 0.8"/>
      </g>
     </g>
     <g id="line2d_58">
      <g>
       <use xlink:href="#m12203632bc" x="203.45" y="372.72436" style="stroke: #000000; stroke-width: 0.8"/>
      </g>
     </g>
     <g id="text_16">
      <!-- 5.0 -->
      <g transform="translate(43.022189 384.030911) rotate(-45) scale(0.1 -0.1)">
       <use xlink:href="#HelveticaNeue-Medium-35"/>
       <use xlink:href="#HelveticaNeue-Medium-2e" x="55.599991"/>
       <use xlink:href="#HelveticaNeue-Medium-30" x="83.399979"/>
      </g>
     </g>
    </g>
    <g id="ytick_8">
     <g id="line2d_59">
      <g>
       <use xlink:href="#m12203632bc" x="59.45" y="339.324456" style="stroke: #000000; stroke-width: 0.8"/>
      </g>
     </g>
     <g id="line2d_60">
      <g>
       <use xlink:href="#m12203632bc" x="203.45" y="339.324456" style="stroke: #000000; stroke-width: 0.8"/>
      </g>
     </g>
     <g id="text_17">
      <!-- 5.5 -->
      <g transform="translate(43.022189 350.631008) rotate(-45) scale(0.1 -0.1)">
       <use xlink:href="#HelveticaNeue-Medium-35"/>
       <use xlink:href="#HelveticaNeue-Medium-2e" x="55.599991"/>
       <use xlink:href="#HelveticaNeue-Medium-35" x="83.399979"/>
      </g>
     </g>
    </g>
    <g id="text_18">
     <!-- width -->
     <g transform="translate(14.340625 411.204375) rotate(-90) scale(0.1 -0.1)">
      <defs>
       <path id="HelveticaNeue-Medium-77" d="M 83 3309 
L 858 3309 
L 1504 838 
L 1517 838 
L 2138 3309 
L 2874 3309 
L 3469 838 
L 3482 838 
L 4154 3309 
L 4896 3309 
L 3859 0 
L 3110 0 
L 2496 2458 
L 2483 2458 
L 1875 0 
L 1107 0 
L 83 3309 
z
" transform="scale(0.015625)"/>
       <path id="HelveticaNeue-Medium-68" d="M 384 4570 
L 1114 4570 
L 1114 2874 
L 1126 2874 
Q 1261 3098 1526 3248 
Q 1792 3398 2118 3398 
Q 2662 3398 2976 3116 
Q 3290 2835 3290 2272 
L 3290 0 
L 2560 0 
L 2560 2080 
Q 2547 2470 2393 2646 
Q 2240 2822 1914 2822 
Q 1728 2822 1581 2755 
Q 1434 2688 1331 2569 
Q 1229 2451 1171 2291 
Q 1114 2131 1114 1952 
L 1114 0 
L 384 0 
L 384 4570 
z
" transform="scale(0.015625)"/>
      </defs>
      <use xlink:href="#HelveticaNeue-Medium-77"/>
      <use xlink:href="#HelveticaNeue-Medium-69" x="77.799988"/>
      <use xlink:href="#HelveticaNeue-Medium-64" x="101.899979"/>
      <use xlink:href="#HelveticaNeue-Medium-74" x="162.999969"/>
      <use xlink:href="#HelveticaNeue-Medium-68" x="196.299957"/>
     </g>
    </g>
   </g>
   <g id="QuadContourSet_4">
    <path d="M 120.65 461.948308 
L 122.70029 459.72 
L 127.85 457.809287 
L 135.05 458.347985 
L 140.877985 452.52 
L 142.25 450.998312 
L 149.45 452.283484 
L 155.935189 445.32 
L 156.65 444.412149 
L 161.286947 445.32 
L 163.678727 452.52 
L 163.85 452.725606 
L 164.021273 452.52 
L 166.642814 445.32 
L 169.668418 438.12 
L 171.05 437.231897 
L 178.25 435.141156 
L 180.488503 430.92 
L 184.604269 423.72 
L 183.329227 416.52 
L 185.45 410.33512 
L 185.946287 409.32 
L 185.45 408.619464 
L 183.625267 402.12 
L 185.45 400.253215 
L 190.5644 394.92 
L 185.45 389.552418 
L 178.25 390.062839 
L 176.725838 387.72 
L 178.25 382.798978 
L 185.45 383.823292 
L 188.057802 380.52 
L 185.45 377.912198 
L 178.25 376.494292 
L 171.251067 373.32 
L 171.05 372.761122 
L 170.318417 366.12 
L 163.85 361.017375 
L 159.578271 358.92 
L 158.393031 351.72 
L 156.65 350.519257 
L 153.201228 351.72 
L 149.45 352.141152 
L 143.91767 358.92 
L 142.25 359.338796 
L 139.844264 358.92 
L 135.05 354.125736 
L 128.681225 351.72 
L 127.85 350.888775 
L 125.903915 351.72 
L 120.65 352.467126 
L 115.230729 358.92 
L 113.45 359.323986 
L 110.367604 358.92 
L 106.25 353.548769 
L 99.05 355.404255 
L 95.037968 358.92 
L 92.548316 366.12 
L 91.85 367.349024 
L 84.858456 366.12 
L 84.65 365.911544 
L 84.441544 366.12 
L 81.803588 373.32 
L 77.45 378.39188 
L 75.32188 380.52 
L 72.927667 387.72 
L 77.45 393.408557 
L 77.886987 394.92 
L 77.45 396.727513 
L 73.328552 402.12 
L 74.204527 409.32 
L 77.45 412.437228 
L 79.326744 416.52 
L 84.65 421.528664 
L 89.483477 423.72 
L 84.65 426.248183 
L 79.701501 430.92 
L 84.65 436.117357 
L 88.518118 438.12 
L 91.85 440.857157 
L 93.417267 445.32 
L 99.05 452.277928 
L 106.25 449.780566 
L 113.45 451.739825 
L 119.869825 445.32 
L 120.65 444.915476 
L 121.095691 445.32 
L 122.560713 452.52 
L 120.65 457.66971 
L 118.341441 459.72 
L 120.65 461.948308 
z
M 163.85 432.393447 
L 163.66093 430.92 
L 163.85 430.525378 
L 164.802527 430.92 
L 163.85 432.393447 
z
M 91.85 421.353477 
L 89.658664 416.52 
L 91.85 416.216727 
L 92.03329 416.52 
L 91.85 421.353477 
z
M 84.65 403.138744 
L 81.571448 402.12 
L 84.65 401.21376 
L 85.390413 402.12 
L 84.65 403.138744 
z
M 84.65 388.62624 
L 81.972333 387.72 
L 84.65 384.57299 
L 85.381067 387.72 
L 84.65 388.62624 
M 163.85 373.795569 
L 163.651314 373.32 
L 163.85 372.352257 
L 170.634163 373.32 
L 163.85 373.795569 
z
" clip-path="url(#p826ec27a42)" style="fill: none; stroke: #000080; stroke-width: 1.5"/>
    <path d="M 127.85 448.03667 
L 130.985863 445.32 
L 135.05 444.041786 
L 142.25 443.090308 
L 149.45 442.48 
L 152.741645 438.12 
L 156.65 437.061113 
L 161.572372 430.92 
L 163.85 426.166206 
L 171.05 425.304039 
L 172.359607 423.72 
L 171.05 421.425355 
L 169.918211 416.52 
L 170.139074 409.32 
L 171.05 407.179019 
L 174.538868 402.12 
L 171.05 394.92 
L 171.05 394.92 
L 163.85 392.767147 
L 162.348486 387.72 
L 156.65 381.191845 
L 154.647151 380.52 
L 153.158538 373.32 
L 149.45 369.839247 
L 146.070894 366.12 
L 142.25 363.728237 
L 135.05 362.64595 
L 127.85 363.672413 
L 124.975479 366.12 
L 120.65 366.788631 
L 116.877703 366.12 
L 113.45 363.558201 
L 109.656461 366.12 
L 113.45 369.492665 
L 114.137468 373.32 
L 113.45 378.032225 
L 106.25 373.606574 
L 104.372022 373.32 
L 99.05 368.412117 
L 96.830075 373.32 
L 93.43509 380.52 
L 92.219937 387.72 
L 94.672769 394.92 
L 92.641214 402.12 
L 91.85 403.022415 
L 86.555886 409.32 
L 91.85 413.03809 
L 93.954365 416.52 
L 99.05 423.488263 
L 99.341169 423.72 
L 99.178566 430.92 
L 104.873377 438.12 
L 106.25 439.413452 
L 108.042224 438.12 
L 113.45 436.620274 
L 116.928235 438.12 
L 120.65 440.675629 
L 125.767018 445.32 
L 127.85 448.03667 
z
M 135.05 373.347318 
L 134.993864 373.32 
L 135.05 373.157181 
L 135.094116 373.32 
L 135.05 373.347318 
z
" clip-path="url(#p826ec27a42)" style="fill: none; stroke-dasharray: 9.6,2.4,1.5,2.4; stroke-dashoffset: 0; stroke: #000080; stroke-width: 1.5"/>
    <path d="M 127.85 431.079237 
L 135.05 433.415419 
L 137.221459 430.92 
L 142.25 426.493547 
L 147.129184 423.72 
L 149.45 422.317681 
L 153.471007 416.52 
L 156.65 411.891152 
L 159.357413 409.32 
L 156.65 404.928255 
L 149.45 402.12 
L 149.45 402.12 
L 146.925716 394.92 
L 143.016097 387.72 
L 142.25 386.820463 
L 139.11915 387.72 
L 135.05 389.008119 
L 133.502081 387.72 
L 127.85 385.281303 
L 120.65 387.694539 
L 118.828954 387.72 
L 113.45 387.775865 
L 108.086923 394.92 
L 106.25 398.776499 
L 104.818957 402.12 
L 104.763851 409.32 
L 105.79017 416.52 
L 106.25 416.931915 
L 113.45 422.972769 
L 114.578524 423.72 
L 120.65 430.610026 
L 125.10471 430.92 
L 127.85 431.079237 
z
M 113.45 402.999421 
L 110.144836 402.12 
L 113.45 400.670829 
L 114.188989 402.12 
L 113.45 402.999421 
z
" clip-path="url(#p826ec27a42)" style="fill: none; stroke-dasharray: 1.5,2.475; stroke-dashoffset: 0; stroke: #000080; stroke-width: 1.5"/>
    <path d="M 127.85 424.095623 
L 135.05 426.960883 
L 138.807918 423.72 
L 141.504399 416.52 
L 142.25 413.010111 
L 143.894313 409.32 
L 145.271325 402.12 
L 142.25 398.148468 
L 135.145079 402.12 
L 135.05 402.164053 
L 134.998127 402.12 
L 127.85 397.313246 
L 123.054048 394.92 
L 120.65 393.119706 
L 116.690947 394.92 
L 118.219493 402.12 
L 120.65 409.314701 
L 120.652656 409.32 
L 120.65 409.32654 
L 120.639951 409.32 
L 113.45 407.795858 
L 111.613676 409.32 
L 113.45 416.52 
L 113.45 416.52 
L 120.65 420.583937 
L 126.946576 423.72 
L 127.85 424.095623 
z
M 149.45 416.62351 
L 149.52179 416.52 
L 149.45 416.279726 
L 148.663484 416.52 
L 149.45 416.62351 
z
" clip-path="url(#p826ec27a42)" style="fill: none; stroke-dasharray: 5.55,2.4; stroke-dashoffset: 0; stroke: #800080; stroke-width: 1.5"/>
   </g>
   <g id="patch_20">
    <path d="M 59.45 470.52 
L 59.45 326.52 
" style="fill: none; stroke: #000000; stroke-width: 0.8; stroke-linejoin: miter; stroke-linecap: square"/>
   </g>
   <g id="patch_21">
    <path d="M 203.45 470.52 
L 203.45 326.52 
" style="fill: none; stroke: #000000; stroke-width: 0.8; stroke-linejoin: miter; stroke-linecap: square"/>
   </g>
   <g id="patch_22">
    <path d="M 59.45 470.52 
L 203.45 470.52 
" style="fill: none; stroke: #000000; stroke-width: 0.8; stroke-linejoin: miter; stroke-linecap: square"/>
   </g>
   <g id="patch_23">
    <path d="M 59.45 326.52 
L 203.45 326.52 
" style="fill: none; stroke: #000000; stroke-width: 0.8; stroke-linejoin: miter; stroke-linecap: square"/>
   </g>
  </g>
  <g id="axes_8">
   <g id="patch_24">
    <path d="M 210.65 470.52 
L 354.65 470.52 
L 354.65 326.52 
L 210.65 326.52 
z
" style="fill: #ffffff"/>
   </g>
   <g id="QuadContourSet_5">
    <path d="M 293.45 459.401124 
L 299.245279 452.52 
L 300.65 451.32793 
L 307.85 451.988698 
L 315.05 452.190222 
L 316.073125 452.52 
L 322.25 459.442831 
L 328.59796 452.52 
L 329.45 452.214168 
L 334.397407 452.52 
L 336.65 453.347276 
L 337.493469 452.52 
L 341.845863 445.32 
L 336.65 440.995134 
L 335.431301 438.12 
L 336.65 433.704841 
L 341.215316 430.92 
L 339.735591 423.72 
L 336.65 419.028586 
L 333.564409 423.72 
L 329.45 424.505728 
L 328.550653 423.72 
L 329.45 416.627393 
L 329.711969 416.52 
L 329.45 416.386019 
L 324.358485 409.32 
L 322.25 407.530718 
L 315.05 402.456804 
L 314.833214 402.12 
L 314.045527 394.92 
L 315.05 390.660722 
L 317.990722 387.72 
L 315.05 384.672636 
L 307.953972 380.52 
L 307.85 380.416371 
L 303.257649 373.32 
L 300.65 370.759808 
L 293.45 367.877914 
L 290.794254 366.12 
L 286.25 361.900206 
L 279.05 359.101367 
L 271.85 359.325221 
L 268.734659 358.92 
L 264.65 354.835341 
L 260.389723 358.92 
L 257.45 359.070694 
L 256.205297 358.92 
L 252.939456 351.72 
L 250.25 348.134844 
L 243.631506 351.72 
L 243.05 351.778343 
L 240.987753 351.72 
L 235.85 350.636898 
L 234.232299 351.72 
L 230.183016 358.92 
L 228.65 360.789243 
L 222.801575 366.12 
L 228.65 372.668947 
L 228.974457 373.32 
L 228.65 374.044552 
L 223.13624 380.52 
L 224.753393 387.72 
L 227.374039 394.92 
L 228.65 397.414115 
L 231.279826 402.12 
L 235.85 406.922435 
L 236.615897 409.32 
L 241.22312 416.52 
L 243.05 418.966295 
L 243.676451 423.72 
L 247.301564 430.92 
L 250.25 433.886677 
L 257.45 435.868091 
L 259.04915 438.12 
L 264.65 443.972871 
L 269.343356 445.32 
L 271.85 448.686028 
L 279.05 450.558497 
L 284.334455 445.32 
L 286.25 444.835909 
L 288.361885 445.32 
L 287.654721 452.52 
z
M 233.392686 387.72 
L 235.054615 380.52 
L 235.85 380.161659 
L 235.982938 380.52 
L 236.146988 387.72 
L 235.85 388.726309 
z
M 233.980757 366.12 
L 235.85 364.586984 
L 236.447498 366.12 
L 235.85 367.147422 
z
" clip-path="url(#pd24dc3a472)" style="fill: #ffffff"/>
   </g>
   <g id="matplotlib.axis_15">
    <g id="xtick_20">
     <g id="line2d_61">
      <g>
       <use xlink:href="#mabe6f79701" x="235.648494" y="470.52" style="stroke: #000000; stroke-width: 0.8"/>
      </g>
     </g>
     <g id="line2d_62">
      <g>
       <use xlink:href="#mabe6f79701" x="235.648494" y="326.52" style="stroke: #000000; stroke-width: 0.8"/>
      </g>
     </g>
     <g id="text_19">
      <!-- 16 -->
      <g transform="translate(233.566949 488.681328) rotate(-45) scale(0.1 -0.1)">
       <use xlink:href="#HelveticaNeue-Medium-31"/>
       <use xlink:href="#HelveticaNeue-Medium-36" x="55.599991"/>
      </g>
     </g>
    </g>
    <g id="xtick_21">
     <g id="line2d_63">
      <g>
       <use xlink:href="#mabe6f79701" x="273.611482" y="470.52" style="stroke: #000000; stroke-width: 0.8"/>
      </g>
     </g>
     <g id="line2d_64">
      <g>
       <use xlink:href="#mabe6f79701" x="273.611482" y="326.52" style="stroke: #000000; stroke-width: 0.8"/>
      </g>
     </g>
     <g id="text_20">
      <!-- 18 -->
      <g transform="translate(271.529936 488.681328) rotate(-45) scale(0.1 -0.1)">
       <use xlink:href="#HelveticaNeue-Medium-31"/>
       <use xlink:href="#HelveticaNeue-Medium-38" x="55.599991"/>
      </g>
     </g>
    </g>
    <g id="xtick_22">
     <g id="line2d_65">
      <g>
       <use xlink:href="#mabe6f79701" x="311.574469" y="470.52" style="stroke: #000000; stroke-width: 0.8"/>
      </g>
     </g>
     <g id="line2d_66">
      <g>
       <use xlink:href="#mabe6f79701" x="311.574469" y="326.52" style="stroke: #000000; stroke-width: 0.8"/>
      </g>
     </g>
     <g id="text_21">
      <!-- 20 -->
      <g transform="translate(309.492924 488.681328) rotate(-45) scale(0.1 -0.1)">
       <use xlink:href="#HelveticaNeue-Medium-32"/>
       <use xlink:href="#HelveticaNeue-Medium-30" x="55.599991"/>
      </g>
     </g>
    </g>
    <g id="xtick_23">
     <g id="line2d_67">
      <g>
       <use xlink:href="#mabe6f79701" x="349.537457" y="470.52" style="stroke: #000000; stroke-width: 0.8"/>
      </g>
     </g>
     <g id="line2d_68">
      <g>
       <use xlink:href="#mabe6f79701" x="349.537457" y="326.52" style="stroke: #000000; stroke-width: 0.8"/>
      </g>
     </g>
     <g id="text_22">
      <!-- 22 -->
      <g transform="translate(347.455911 488.681328) rotate(-45) scale(0.1 -0.1)">
       <use xlink:href="#HelveticaNeue-Medium-32"/>
       <use xlink:href="#HelveticaNeue-Medium-32" x="55.599991"/>
      </g>
     </g>
    </g>
    <g id="text_23">
     <!-- amplitude -->
     <g transform="translate(259.686719 520.860625) scale(0.1 -0.1)">
      <use xlink:href="#HelveticaNeue-Medium-61"/>
      <use xlink:href="#HelveticaNeue-Medium-6d" x="55.599991"/>
      <use xlink:href="#HelveticaNeue-Medium-70" x="142.599976"/>
      <use xlink:href="#HelveticaNeue-Medium-6c" x="203.699966"/>
      <use xlink:href="#HelveticaNeue-Medium-69" x="227.799957"/>
      <use xlink:href="#HelveticaNeue-Medium-74" x="251.899948"/>
      <use xlink:href="#HelveticaNeue-Medium-75" x="285.199936"/>
      <use xlink:href="#HelveticaNeue-Medium-64" x="342.59993"/>
      <use xlink:href="#HelveticaNeue-Medium-65" x="403.699921"/>
     </g>
    </g>
   </g>
   <g id="matplotlib.axis_16">
    <g id="ytick_9">
     <g id="line2d_69">
      <g>
       <use xlink:href="#m12203632bc" x="210.65" y="439.524168" style="stroke: #000000; stroke-width: 0.8"/>
      </g>
     </g>
     <g id="line2d_70">
      <g>
       <use xlink:href="#m12203632bc" x="354.65" y="439.524168" style="stroke: #000000; stroke-width: 0.8"/>
      </g>
     </g>
    </g>
    <g id="ytick_10">
     <g id="line2d_71">
      <g>
       <use xlink:href="#m12203632bc" x="210.65" y="406.124264" style="stroke: #000000; stroke-width: 0.8"/>
      </g>
     </g>
     <g id="line2d_72">
      <g>
       <use xlink:href="#m12203632bc" x="354.65" y="406.124264" style="stroke: #000000; stroke-width: 0.8"/>
      </g>
     </g>
    </g>
    <g id="ytick_11">
     <g id="line2d_73">
      <g>
       <use xlink:href="#m12203632bc" x="210.65" y="372.72436" style="stroke: #000000; stroke-width: 0.8"/>
      </g>
     </g>
     <g id="line2d_74">
      <g>
       <use xlink:href="#m12203632bc" x="354.65" y="372.72436" style="stroke: #000000; stroke-width: 0.8"/>
      </g>
     </g>
    </g>
    <g id="ytick_12">
     <g id="line2d_75">
      <g>
       <use xlink:href="#m12203632bc" x="210.65" y="339.324456" style="stroke: #000000; stroke-width: 0.8"/>
      </g>
     </g>
     <g id="line2d_76">
      <g>
       <use xlink:href="#m12203632bc" x="354.65" y="339.324456" style="stroke: #000000; stroke-width: 0.8"/>
      </g>
     </g>
    </g>
   </g>
   <g id="QuadContourSet_6">
    <path d="M 293.45 459.401124 
L 299.245279 452.52 
L 300.65 451.32793 
L 307.85 451.988698 
L 315.05 452.190222 
L 316.073125 452.52 
L 322.25 459.442831 
L 328.59796 452.52 
L 329.45 452.214168 
L 334.397407 452.52 
L 336.65 453.347276 
L 337.493469 452.52 
L 341.845863 445.32 
L 336.65 440.995134 
L 335.431301 438.12 
L 336.65 433.704841 
L 341.215316 430.92 
L 339.735591 423.72 
L 336.65 419.028586 
L 333.564409 423.72 
L 329.45 424.505728 
L 328.550653 423.72 
L 329.45 416.627393 
L 329.711969 416.52 
L 329.45 416.386019 
L 324.358485 409.32 
L 322.25 407.530718 
L 315.05 402.456804 
L 314.833214 402.12 
L 314.045527 394.92 
L 315.05 390.660722 
L 317.990722 387.72 
L 315.05 384.672636 
L 307.953972 380.52 
L 307.85 380.416371 
L 303.257649 373.32 
L 300.65 370.759808 
L 293.45 367.877914 
L 290.794254 366.12 
L 286.25 361.900206 
L 279.05 359.101367 
L 271.85 359.325221 
L 268.734659 358.92 
L 264.65 354.835341 
L 260.389723 358.92 
L 257.45 359.070694 
L 256.205297 358.92 
L 252.939456 351.72 
L 250.25 348.134844 
L 243.631506 351.72 
L 243.05 351.778343 
L 240.987753 351.72 
L 235.85 350.636898 
L 234.232299 351.72 
L 230.183016 358.92 
L 228.65 360.789243 
L 222.801575 366.12 
L 228.65 372.668947 
L 228.974457 373.32 
L 228.65 374.044552 
L 223.13624 380.52 
L 224.753393 387.72 
L 227.374039 394.92 
L 228.65 397.414115 
L 231.279826 402.12 
L 235.85 406.922435 
L 236.615897 409.32 
L 241.22312 416.52 
L 243.05 418.966295 
L 243.676451 423.72 
L 247.301564 430.92 
L 250.25 433.886677 
L 257.45 435.868091 
L 259.04915 438.12 
L 264.65 443.972871 
L 269.343356 445.32 
L 271.85 448.686028 
L 279.05 450.558497 
L 284.334455 445.32 
L 286.25 444.835909 
L 288.361885 445.32 
L 287.654721 452.52 
L 293.45 459.401124 
z
M 235.85 388.726309 
L 233.392686 387.72 
L 235.054615 380.52 
L 235.85 380.161659 
L 235.982938 380.52 
L 236.146988 387.72 
L 235.85 388.726309 
z
M 235.85 367.147422 
L 233.980757 366.12 
L 235.85 364.586984 
L 236.447498 366.12 
L 235.85 367.147422 
z
" clip-path="url(#pd24dc3a472)" style="fill: none; stroke: #000080; stroke-width: 1.5"/>
    <path d="M 279.05 440.047168 
L 286.25 438.34812 
L 289.532142 438.12 
L 293.45 438.060087 
L 293.790323 438.12 
L 300.65 442.29909 
L 307.85 444.241773 
L 315.05 442.707132 
L 320.043633 438.12 
L 320.502301 430.92 
L 320.046476 423.72 
L 321.024431 416.52 
L 317.708963 409.32 
L 315.05 406.826551 
L 312.020593 402.12 
L 307.85 396.801582 
L 302.520014 394.92 
L 300.65 388.9243 
L 300.56041 387.72 
L 293.45 380.767712 
L 286.25 380.52 
L 286.25 380.52 
L 284.439341 373.32 
L 279.05 367.271071 
L 274.589019 366.12 
L 271.85 364.582628 
L 266.089312 366.12 
L 264.65 366.22414 
L 264.424725 366.12 
L 257.45 361.231699 
L 251.53501 366.12 
L 250.25 370.077164 
L 243.05 369.044023 
L 240.978698 373.32 
L 241.464122 380.52 
L 242.614303 387.72 
L 243.05 391.207325 
L 243.172474 394.92 
L 246.472565 402.12 
L 249.624525 409.32 
L 250.25 410.196223 
L 251.450907 416.52 
L 257.45 421.97655 
L 260.5962 423.72 
L 263.423485 430.92 
L 264.65 432.277737 
L 271.85 436.777564 
L 274.652018 438.12 
L 279.05 440.047168 
z
" clip-path="url(#pd24dc3a472)" style="fill: none; stroke-dasharray: 9.6,2.4,1.5,2.4; stroke-dashoffset: 0; stroke: #000080; stroke-width: 1.5"/>
    <path d="M 300.65 431.776834 
L 303.157102 430.92 
L 303.677876 423.72 
L 305.847972 416.52 
L 305.165034 409.32 
L 300.65 407.80167 
L 295.142505 402.12 
L 293.45 400.618336 
L 287.740752 394.92 
L 286.25 392.83346 
L 281.131007 387.72 
L 279.05 386.284541 
L 271.85 386.904249 
L 264.65 387.72 
L 264.65 387.72 
L 257.45 394.38966 
L 257.230792 394.92 
L 256.308077 402.12 
L 257.45 404.247609 
L 261.315879 409.32 
L 264.65 414.048208 
L 269.169806 416.52 
L 271.85 422.556203 
L 272.064164 423.72 
L 279.05 428.162377 
L 286.25 427.603186 
L 293.45 428.692055 
L 298.535543 430.92 
L 300.65 431.776834 
z
" clip-path="url(#pd24dc3a472)" style="fill: none; stroke-dasharray: 1.5,2.475; stroke-dashoffset: 0; stroke: #000080; stroke-width: 1.5"/>
    <path d="M 286.25 422.535669 
L 293.45 422.924875 
L 300.65 421.029755 
L 302.526606 416.52 
L 300.65 413.561264 
L 297.58738 409.32 
L 293.45 405.119741 
L 288.114063 402.12 
L 286.25 400.259472 
L 280.69317 394.92 
L 279.05 393.278137 
L 271.85 393.97039 
L 270.353586 394.92 
L 264.65 401.665215 
L 264.328799 402.12 
L 264.65 402.566869 
L 271.85 406.509465 
L 272.872583 409.32 
L 279.05 416.52 
L 279.05 416.52 
L 286.25 422.535669 
z
" clip-path="url(#pd24dc3a472)" style="fill: none; stroke-dasharray: 5.55,2.4; stroke-dashoffset: 0; stroke: #800080; stroke-width: 1.5"/>
   </g>
   <g id="patch_25">
    <path d="M 210.65 470.52 
L 210.65 326.52 
" style="fill: none; stroke: #000000; stroke-width: 0.8; stroke-linejoin: miter; stroke-linecap: square"/>
   </g>
   <g id="patch_26">
    <path d="M 354.65 470.52 
L 354.65 326.52 
" style="fill: none; stroke: #000000; stroke-width: 0.8; stroke-linejoin: miter; stroke-linecap: square"/>
   </g>
   <g id="patch_27">
    <path d="M 210.65 470.52 
L 354.65 470.52 
" style="fill: none; stroke: #000000; stroke-width: 0.8; stroke-linejoin: miter; stroke-linecap: square"/>
   </g>
   <g id="patch_28">
    <path d="M 210.65 326.52 
L 354.65 326.52 
" style="fill: none; stroke: #000000; stroke-width: 0.8; stroke-linejoin: miter; stroke-linecap: square"/>
   </g>
  </g>
  <g id="axes_9">
   <g id="patch_29">
    <path d="M 361.85 470.52 
L 505.85 470.52 
L 505.85 326.52 
L 361.85 326.52 
z
" style="fill: #ffffff"/>
   </g>
   <g id="matplotlib.axis_17">
    <g id="xtick_24">
     <g id="line2d_77">
      <g>
       <use xlink:href="#mabe6f79701" x="392.845832" y="470.52" style="stroke: #000000; stroke-width: 0.8"/>
      </g>
     </g>
     <g id="line2d_78">
      <g>
       <use xlink:href="#mabe6f79701" x="392.845832" y="326.52" style="stroke: #000000; stroke-width: 0.8"/>
      </g>
     </g>
     <g id="text_24">
      <!-- 4.0 -->
      <g transform="translate(389.781519 490.646864) rotate(-45) scale(0.1 -0.1)">
       <use xlink:href="#HelveticaNeue-Medium-34"/>
       <use xlink:href="#HelveticaNeue-Medium-2e" x="55.599991"/>
       <use xlink:href="#HelveticaNeue-Medium-30" x="83.399979"/>
      </g>
     </g>
    </g>
    <g id="xtick_25">
     <g id="line2d_79">
      <g>
       <use xlink:href="#mabe6f79701" x="426.245736" y="470.52" style="stroke: #000000; stroke-width: 0.8"/>
      </g>
     </g>
     <g id="line2d_80">
      <g>
       <use xlink:href="#mabe6f79701" x="426.245736" y="326.52" style="stroke: #000000; stroke-width: 0.8"/>
      </g>
     </g>
     <g id="text_25">
      <!-- 4.5 -->
      <g transform="translate(423.181422 490.646864) rotate(-45) scale(0.1 -0.1)">
       <use xlink:href="#HelveticaNeue-Medium-34"/>
       <use xlink:href="#HelveticaNeue-Medium-2e" x="55.599991"/>
       <use xlink:href="#HelveticaNeue-Medium-35" x="83.399979"/>
      </g>
     </g>
    </g>
    <g id="xtick_26">
     <g id="line2d_81">
      <g>
       <use xlink:href="#mabe6f79701" x="459.64564" y="470.52" style="stroke: #000000; stroke-width: 0.8"/>
      </g>
     </g>
     <g id="line2d_82">
      <g>
       <use xlink:href="#mabe6f79701" x="459.64564" y="326.52" style="stroke: #000000; stroke-width: 0.8"/>
      </g>
     </g>
     <g id="text_26">
      <!-- 5.0 -->
      <g transform="translate(456.581326 490.646864) rotate(-45) scale(0.1 -0.1)">
       <use xlink:href="#HelveticaNeue-Medium-35"/>
       <use xlink:href="#HelveticaNeue-Medium-2e" x="55.599991"/>
       <use xlink:href="#HelveticaNeue-Medium-30" x="83.399979"/>
      </g>
     </g>
    </g>
    <g id="xtick_27">
     <g id="line2d_83">
      <g>
       <use xlink:href="#mabe6f79701" x="493.045544" y="470.52" style="stroke: #000000; stroke-width: 0.8"/>
      </g>
     </g>
     <g id="line2d_84">
      <g>
       <use xlink:href="#mabe6f79701" x="493.045544" y="326.52" style="stroke: #000000; stroke-width: 0.8"/>
      </g>
     </g>
     <g id="text_27">
      <!-- 5.5 -->
      <g transform="translate(489.98123 490.646864) rotate(-45) scale(0.1 -0.1)">
       <use xlink:href="#HelveticaNeue-Medium-35"/>
       <use xlink:href="#HelveticaNeue-Medium-2e" x="55.599991"/>
       <use xlink:href="#HelveticaNeue-Medium-35" x="83.399979"/>
      </g>
     </g>
    </g>
    <g id="text_28">
     <!-- width -->
     <g transform="translate(421.165625 520.860625) scale(0.1 -0.1)">
      <use xlink:href="#HelveticaNeue-Medium-77"/>
      <use xlink:href="#HelveticaNeue-Medium-69" x="77.799988"/>
      <use xlink:href="#HelveticaNeue-Medium-64" x="101.899979"/>
      <use xlink:href="#HelveticaNeue-Medium-74" x="162.999969"/>
      <use xlink:href="#HelveticaNeue-Medium-68" x="196.299957"/>
     </g>
    </g>
   </g>
   <g id="matplotlib.axis_18"/>
   <g id="patch_30">
    <path d="M 361.85 470.52 
L 361.85 470.506776 
L 369.05 470.506776 
L 369.05 470.242677 
L 376.25 470.242677 
L 376.25 469.49146 
L 383.45 469.49146 
L 383.45 465.778111 
L 390.65 465.778111 
L 390.65 455.606572 
L 397.85 455.606572 
L 397.85 425.777393 
L 405.05 425.777393 
L 405.05 395.541659 
L 412.25 395.541659 
L 412.25 355.491606 
L 419.45 355.491606 
L 419.45 339.610909 
L 426.65 339.610909 
L 426.65 362.533906 
L 433.85 362.533906 
L 433.85 391.780614 
L 441.05 391.780614 
L 441.05 416.453394 
L 448.25 416.453394 
L 448.25 443.039196 
L 455.45 443.039196 
L 455.45 450.343753 
L 462.65 450.343753 
L 462.65 460.981956 
L 469.85 460.981956 
L 469.85 468.696514 
L 477.05 468.696514 
L 477.05 470.081547 
L 484.25 470.081547 
L 484.25 470.230107 
L 491.45 470.230107 
L 491.45 470.440167 
L 498.65 470.440167 
L 498.65 470.496817 
L 505.85 470.496817 
L 505.85 470.52 
" clip-path="url(#pde05b7f0ba)" style="fill: none; stroke: #800080; stroke-linejoin: miter"/>
   </g>
   <g id="line2d_85">
    <path d="M 409.656267 470.52 
L 409.656267 326.52 
" clip-path="url(#pde05b7f0ba)" style="fill: none; stroke-dasharray: 5.55,2.4; stroke-dashoffset: 0; stroke: #800080; stroke-width: 1.5"/>
   </g>
   <g id="line2d_86">
    <path d="M 423.980221 470.52 
L 423.980221 326.52 
" clip-path="url(#pde05b7f0ba)" style="fill: none; stroke-dasharray: 5.55,2.4; stroke-dashoffset: 0; stroke: #800080; stroke-width: 1.5"/>
   </g>
   <g id="line2d_87">
    <path d="M 441.799469 470.52 
L 441.799469 326.52 
" clip-path="url(#pde05b7f0ba)" style="fill: none; stroke-dasharray: 5.55,2.4; stroke-dashoffset: 0; stroke: #800080; stroke-width: 1.5"/>
   </g>
   <g id="patch_31">
    <path d="M 361.85 470.52 
L 361.85 326.52 
" style="fill: none; stroke: #000000; stroke-width: 0.8; stroke-linejoin: miter; stroke-linecap: square"/>
   </g>
   <g id="patch_32">
    <path d="M 505.85 470.52 
L 505.85 326.52 
" style="fill: none; stroke: #000000; stroke-width: 0.8; stroke-linejoin: miter; stroke-linecap: square"/>
   </g>
   <g id="patch_33">
    <path d="M 361.85 470.52 
L 505.85 470.52 
" style="fill: none; stroke: #000000; stroke-width: 0.8; stroke-linejoin: miter; stroke-linecap: square"/>
   </g>
   <g id="patch_34">
    <path d="M 361.85 326.52 
L 505.85 326.52 
" style="fill: none; stroke: #000000; stroke-width: 0.8; stroke-linejoin: miter; stroke-linecap: square"/>
   </g>
   <g id="text_29">
    <!-- width = ${4.47}_{-0.21}^{+0.27}$ -->
    <g transform="translate(385.43 320.52) scale(0.12 -0.12)">
     <use xlink:href="#HelveticaNeue-Medium-77" transform="translate(0 0.765625)"/>
     <use xlink:href="#HelveticaNeue-Medium-69" transform="translate(77.799988 0.765625)"/>
     <use xlink:href="#HelveticaNeue-Medium-64" transform="translate(101.899979 0.765625)"/>
     <use xlink:href="#HelveticaNeue-Medium-74" transform="translate(162.999969 0.765625)"/>
     <use xlink:href="#HelveticaNeue-Medium-68" transform="translate(196.299957 0.765625)"/>
     <use xlink:href="#HelveticaNeue-Medium-20" transform="translate(253.699951 0.765625)"/>
     <use xlink:href="#HelveticaNeue-Medium-3d" transform="translate(281.499939 0.765625)"/>
     <use xlink:href="#HelveticaNeue-Medium-20" transform="translate(341.499924 0.765625)"/>
     <use xlink:href="#DejaVuSans-34" transform="translate(369.299911 0.765625)"/>
     <use xlink:href="#DejaVuSans-2e" transform="translate(432.922958 0.765625)"/>
     <use xlink:href="#DejaVuSans-34" transform="translate(464.710068 0.765625)"/>
     <use xlink:href="#DejaVuSans-37" transform="translate(528.333115 0.765625)"/>
     <use xlink:href="#DejaVuSans-2b" transform="translate(592.913193 39.046875) scale(0.7)"/>
     <use xlink:href="#DejaVuSans-30" transform="translate(651.565536 39.046875) scale(0.7)"/>
     <use xlink:href="#DejaVuSans-2e" transform="translate(696.101669 39.046875) scale(0.7)"/>
     <use xlink:href="#DejaVuSans-32" transform="translate(714.502646 39.046875) scale(0.7)"/>
     <use xlink:href="#DejaVuSans-37" transform="translate(759.038779 39.046875) scale(0.7)"/>
     <use xlink:href="#DejaVuSans-2212" transform="translate(592.913193 -26.578125) scale(0.7)"/>
     <use xlink:href="#DejaVuSans-30" transform="translate(651.565536 -26.578125) scale(0.7)"/>
     <use xlink:href="#DejaVuSans-2e" transform="translate(696.101669 -26.578125) scale(0.7)"/>
     <use xlink:href="#DejaVuSans-32" transform="translate(714.502646 -26.578125) scale(0.7)"/>
     <use xlink:href="#DejaVuSans-31" transform="translate(759.038779 -26.578125) scale(0.7)"/>
    </g>
   </g>
   <g id="legend_1">
    <g id="text_30">
     <!-- credible prob level -->
     <g transform="translate(414.550813 229.594934) scale(0.1 -0.1)">
      <defs>
       <path id="HelveticaNeue-Medium-72" d="M 384 3309 
L 1069 3309 
L 1069 2669 
L 1082 2669 
Q 1114 2803 1206 2931 
Q 1299 3059 1430 3164 
Q 1562 3270 1722 3334 
Q 1882 3398 2048 3398 
Q 2176 3398 2224 3392 
Q 2272 3386 2323 3379 
L 2323 2675 
Q 2246 2688 2166 2697 
Q 2086 2707 2010 2707 
Q 1824 2707 1661 2633 
Q 1498 2560 1376 2416 
Q 1254 2272 1184 2061 
Q 1114 1850 1114 1574 
L 1114 0 
L 384 0 
L 384 3309 
z
" transform="scale(0.015625)"/>
       <path id="HelveticaNeue-Medium-62" d="M 403 4570 
L 1133 4570 
L 1133 2880 
L 1146 2880 
Q 1222 3002 1331 3098 
Q 1440 3194 1571 3261 
Q 1702 3328 1846 3363 
Q 1990 3398 2131 3398 
Q 2522 3398 2813 3260 
Q 3104 3123 3296 2883 
Q 3488 2643 3584 2323 
Q 3680 2003 3680 1638 
Q 3680 1306 3593 992 
Q 3507 678 3331 438 
Q 3155 198 2886 54 
Q 2618 -90 2253 -90 
Q 2086 -90 1916 -67 
Q 1747 -45 1593 19 
Q 1440 83 1315 185 
Q 1190 288 1107 454 
L 1094 454 
L 1094 0 
L 403 0 
L 403 4570 
z
M 2950 1651 
Q 2950 1875 2892 2086 
Q 2835 2298 2720 2461 
Q 2605 2624 2432 2723 
Q 2259 2822 2035 2822 
Q 1574 2822 1340 2502 
Q 1107 2182 1107 1651 
Q 1107 1402 1168 1187 
Q 1229 973 1350 819 
Q 1472 666 1641 576 
Q 1811 486 2035 486 
Q 2285 486 2457 588 
Q 2630 691 2742 854 
Q 2854 1018 2902 1226 
Q 2950 1434 2950 1651 
z
" transform="scale(0.015625)"/>
       <path id="HelveticaNeue-Medium-76" d="M 58 3309 
L 851 3309 
L 1690 768 
L 1702 768 
L 2509 3309 
L 3264 3309 
L 2080 0 
L 1261 0 
L 58 3309 
z
" transform="scale(0.015625)"/>
      </defs>
      <use xlink:href="#HelveticaNeue-Medium-63"/>
      <use xlink:href="#HelveticaNeue-Medium-72" x="55.599991"/>
      <use xlink:href="#HelveticaNeue-Medium-65" x="89.049988"/>
      <use xlink:href="#HelveticaNeue-Medium-64" x="144.649979"/>
      <use xlink:href="#HelveticaNeue-Medium-69" x="205.749969"/>
      <use xlink:href="#HelveticaNeue-Medium-62" x="229.84996"/>
      <use xlink:href="#HelveticaNeue-Medium-6c" x="290.949951"/>
      <use xlink:href="#HelveticaNeue-Medium-65" x="315.049942"/>
      <use xlink:href="#HelveticaNeue-Medium-20" x="370.649933"/>
      <use xlink:href="#HelveticaNeue-Medium-70" x="398.449921"/>
      <use xlink:href="#HelveticaNeue-Medium-72" x="459.549911"/>
      <use xlink:href="#HelveticaNeue-Medium-6f" x="492.999908"/>
      <use xlink:href="#HelveticaNeue-Medium-62" x="552.299896"/>
      <use xlink:href="#HelveticaNeue-Medium-20" x="613.399887"/>
      <use xlink:href="#HelveticaNeue-Medium-6c" x="641.199875"/>
      <use xlink:href="#HelveticaNeue-Medium-65" x="665.299866"/>
      <use xlink:href="#HelveticaNeue-Medium-76" x="720.899857"/>
      <use xlink:href="#HelveticaNeue-Medium-65" x="772.79985"/>
      <use xlink:href="#HelveticaNeue-Medium-6c" x="828.399841"/>
     </g>
    </g>
    <g id="line2d_88">
     <path d="M 417.993573 238.78525 
L 423.824573 238.78525 
L 429.655573 238.78525 
" style="fill: none; stroke-dasharray: 5.55,2.4; stroke-dashoffset: 0; stroke: #800080; stroke-width: 1.5"/>
    </g>
    <g id="text_31">
     <!-- 68.3% marginal -->
     <g transform="translate(438.818573 241.70075) scale(0.0833 -0.0833)">
      <defs>
       <path id="HelveticaNeue-Medium-33" d="M 1459 2624 
Q 1638 2618 1817 2650 
Q 1997 2682 2137 2762 
Q 2278 2842 2364 2982 
Q 2451 3123 2451 3328 
Q 2451 3616 2256 3789 
Q 2061 3962 1754 3962 
Q 1562 3962 1421 3885 
Q 1280 3808 1187 3677 
Q 1094 3546 1049 3382 
Q 1005 3219 1011 3046 
L 282 3046 
Q 294 3373 403 3651 
Q 512 3930 701 4134 
Q 890 4339 1158 4454 
Q 1427 4570 1766 4570 
Q 2029 4570 2281 4493 
Q 2534 4416 2736 4269 
Q 2938 4122 3059 3894 
Q 3181 3667 3181 3373 
Q 3181 3034 3027 2781 
Q 2874 2528 2547 2413 
L 2547 2400 
Q 2931 2323 3145 2019 
Q 3360 1715 3360 1280 
Q 3360 960 3232 707 
Q 3104 454 2886 278 
Q 2669 102 2381 6 
Q 2093 -90 1773 -90 
Q 1382 -90 1091 22 
Q 800 134 605 339 
Q 410 544 307 832 
Q 205 1120 198 1472 
L 928 1472 
Q 915 1062 1129 790 
Q 1344 518 1773 518 
Q 2138 518 2384 726 
Q 2630 934 2630 1318 
Q 2630 1581 2528 1734 
Q 2426 1888 2259 1968 
Q 2093 2048 1885 2067 
Q 1677 2086 1459 2080 
L 1459 2624 
z
" transform="scale(0.015625)"/>
       <path id="HelveticaNeue-Medium-25" d="M 1101 3296 
Q 1101 3117 1126 2960 
Q 1152 2803 1209 2688 
Q 1267 2573 1360 2505 
Q 1453 2438 1587 2438 
Q 1722 2438 1818 2505 
Q 1914 2573 1971 2688 
Q 2029 2803 2057 2960 
Q 2086 3117 2086 3296 
Q 2086 3456 2064 3609 
Q 2042 3763 1984 3884 
Q 1926 4006 1830 4080 
Q 1734 4154 1587 4154 
Q 1440 4154 1344 4080 
Q 1248 4006 1193 3884 
Q 1139 3763 1120 3609 
Q 1101 3456 1101 3296 
z
M 1594 2022 
Q 1306 2022 1101 2124 
Q 896 2227 768 2400 
Q 640 2573 582 2803 
Q 525 3034 525 3296 
Q 525 3552 585 3785 
Q 646 4019 777 4192 
Q 909 4365 1110 4467 
Q 1312 4570 1594 4570 
Q 1875 4570 2076 4467 
Q 2278 4365 2409 4192 
Q 2541 4019 2601 3785 
Q 2662 3552 2662 3296 
Q 2662 3034 2604 2803 
Q 2547 2573 2419 2400 
Q 2291 2227 2086 2124 
Q 1882 2022 1594 2022 
z
M 4314 1184 
Q 4314 1005 4339 848 
Q 4365 691 4422 576 
Q 4480 461 4573 393 
Q 4666 326 4800 326 
Q 4934 326 5030 393 
Q 5126 461 5184 576 
Q 5242 691 5270 848 
Q 5299 1005 5299 1184 
Q 5299 1344 5276 1497 
Q 5254 1651 5196 1772 
Q 5139 1894 5043 1968 
Q 4947 2042 4800 2042 
Q 4653 2042 4557 1968 
Q 4461 1894 4406 1772 
Q 4352 1651 4333 1497 
Q 4314 1344 4314 1184 
z
M 4806 -90 
Q 4518 -90 4313 12 
Q 4109 115 3981 288 
Q 3853 461 3795 691 
Q 3738 922 3738 1184 
Q 3738 1440 3798 1673 
Q 3859 1907 3990 2080 
Q 4122 2253 4323 2355 
Q 4525 2458 4806 2458 
Q 5088 2458 5289 2355 
Q 5491 2253 5622 2080 
Q 5754 1907 5814 1673 
Q 5875 1440 5875 1184 
Q 5875 922 5817 691 
Q 5760 461 5632 288 
Q 5504 115 5299 12 
Q 5094 -90 4806 -90 
z
M 4154 4634 
L 4640 4634 
L 2163 -154 
L 1664 -154 
L 4154 4634 
z
" transform="scale(0.015625)"/>
       <path id="HelveticaNeue-Medium-67" d="M 3443 173 
Q 3443 -576 3024 -944 
Q 2605 -1312 1818 -1312 
Q 1568 -1312 1315 -1261 
Q 1062 -1210 854 -1088 
Q 646 -966 505 -768 
Q 365 -570 339 -282 
L 1069 -282 
Q 1101 -435 1177 -531 
Q 1254 -627 1360 -681 
Q 1466 -736 1594 -752 
Q 1722 -768 1862 -768 
Q 2304 -768 2509 -550 
Q 2714 -333 2714 77 
L 2714 582 
L 2701 582 
Q 2547 307 2281 153 
Q 2016 0 1709 0 
Q 1312 0 1033 137 
Q 755 275 572 515 
Q 390 755 307 1068 
Q 224 1382 224 1741 
Q 224 2074 326 2374 
Q 429 2675 621 2902 
Q 813 3130 1091 3264 
Q 1370 3398 1722 3398 
Q 2035 3398 2297 3267 
Q 2560 3136 2701 2854 
L 2714 2854 
L 2714 3309 
L 3443 3309 
L 3443 173 
z
M 1824 576 
Q 2067 576 2236 675 
Q 2406 774 2512 937 
Q 2618 1101 2666 1309 
Q 2714 1517 2714 1728 
Q 2714 1939 2662 2137 
Q 2611 2336 2505 2489 
Q 2400 2643 2230 2732 
Q 2061 2822 1824 2822 
Q 1581 2822 1414 2720 
Q 1248 2618 1145 2454 
Q 1043 2291 998 2083 
Q 954 1875 954 1670 
Q 954 1466 1005 1270 
Q 1056 1075 1161 921 
Q 1267 768 1430 672 
Q 1594 576 1824 576 
z
" transform="scale(0.015625)"/>
      </defs>
      <use xlink:href="#HelveticaNeue-Medium-36"/>
      <use xlink:href="#HelveticaNeue-Medium-38" x="55.599991"/>
      <use xlink:href="#HelveticaNeue-Medium-2e" x="111.199982"/>
      <use xlink:href="#HelveticaNeue-Medium-33" x="138.999969"/>
      <use xlink:href="#HelveticaNeue-Medium-25" x="194.59996"/>
      <use xlink:href="#HelveticaNeue-Medium-20" x="294.599945"/>
      <use xlink:href="#HelveticaNeue-Medium-6d" x="322.399933"/>
      <use xlink:href="#HelveticaNeue-Medium-61" x="409.399918"/>
      <use xlink:href="#HelveticaNeue-Medium-72" x="464.999908"/>
      <use xlink:href="#HelveticaNeue-Medium-67" x="500.199905"/>
      <use xlink:href="#HelveticaNeue-Medium-69" x="559.499893"/>
      <use xlink:href="#HelveticaNeue-Medium-6e" x="583.599884"/>
      <use xlink:href="#HelveticaNeue-Medium-61" x="640.999878"/>
      <use xlink:href="#HelveticaNeue-Medium-6c" x="696.599869"/>
     </g>
    </g>
    <g id="line2d_89">
     <path d="M 417.993573 250.606041 
L 423.824573 250.606041 
L 429.655573 250.606041 
" style="fill: none; stroke-dasharray: 5.55,2.4; stroke-dashoffset: 0; stroke: #800080; stroke-width: 1.5"/>
    </g>
    <g id="text_32">
     <!-- 39.3% -->
     <g transform="translate(438.818573 253.521541) scale(0.0833 -0.0833)">
      <use xlink:href="#HelveticaNeue-Medium-33"/>
      <use xlink:href="#HelveticaNeue-Medium-39" x="55.599991"/>
      <use xlink:href="#HelveticaNeue-Medium-2e" x="111.199982"/>
      <use xlink:href="#HelveticaNeue-Medium-33" x="138.999969"/>
      <use xlink:href="#HelveticaNeue-Medium-25" x="194.59996"/>
     </g>
    </g>
    <g id="line2d_90">
     <path d="M 417.993573 262.309691 
L 423.824573 262.309691 
L 429.655573 262.309691 
" style="fill: none; stroke-dasharray: 1.5,2.475; stroke-dashoffset: 0; stroke: #000080; stroke-width: 1.5"/>
    </g>
    <g id="text_33">
     <!-- 68.3% -->
     <g transform="translate(438.818573 265.225191) scale(0.0833 -0.0833)">
      <use xlink:href="#HelveticaNeue-Medium-36"/>
      <use xlink:href="#HelveticaNeue-Medium-38" x="55.599991"/>
      <use xlink:href="#HelveticaNeue-Medium-2e" x="111.199982"/>
      <use xlink:href="#HelveticaNeue-Medium-33" x="138.999969"/>
      <use xlink:href="#HelveticaNeue-Medium-25" x="194.59996"/>
     </g>
    </g>
    <g id="line2d_91">
     <path d="M 417.993573 274.013341 
L 423.824573 274.013341 
L 429.655573 274.013341 
" style="fill: none; stroke-dasharray: 9.6,2.4,1.5,2.4; stroke-dashoffset: 0; stroke: #000080; stroke-width: 1.5"/>
    </g>
    <g id="text_34">
     <!-- 95.5% -->
     <g transform="translate(438.818573 276.928841) scale(0.0833 -0.0833)">
      <use xlink:href="#HelveticaNeue-Medium-39"/>
      <use xlink:href="#HelveticaNeue-Medium-35" x="55.599991"/>
      <use xlink:href="#HelveticaNeue-Medium-2e" x="111.199982"/>
      <use xlink:href="#HelveticaNeue-Medium-35" x="138.999969"/>
      <use xlink:href="#HelveticaNeue-Medium-25" x="194.59996"/>
     </g>
    </g>
    <g id="line2d_92">
     <path d="M 417.993573 285.716991 
L 423.824573 285.716991 
L 429.655573 285.716991 
" style="fill: none; stroke: #000080; stroke-width: 1.5"/>
    </g>
    <g id="text_35">
     <!-- 99.7% -->
     <g transform="translate(438.818573 288.632491) scale(0.0833 -0.0833)">
      <defs>
       <path id="HelveticaNeue-Medium-37" d="M 224 4480 
L 3290 4480 
L 3290 3872 
Q 2938 3475 2650 3049 
Q 2362 2624 2147 2147 
Q 1933 1670 1798 1139 
Q 1664 608 1619 0 
L 819 0 
Q 858 531 1002 1049 
Q 1146 1568 1373 2054 
Q 1600 2541 1901 2989 
Q 2202 3437 2547 3827 
L 224 3827 
L 224 4480 
z
" transform="scale(0.015625)"/>
      </defs>
      <use xlink:href="#HelveticaNeue-Medium-39"/>
      <use xlink:href="#HelveticaNeue-Medium-39" x="55.599991"/>
      <use xlink:href="#HelveticaNeue-Medium-2e" x="111.199982"/>
      <use xlink:href="#HelveticaNeue-Medium-37" x="138.999969"/>
      <use xlink:href="#HelveticaNeue-Medium-25" x="194.59996"/>
     </g>
    </g>
   </g>
  </g>
 </g>
 <defs>
  <clipPath id="pd70966dc50">
   <rect x="59.45" y="24.12" width="144" height="144"/>
  </clipPath>
  <clipPath id="peb40434cba">
   <rect x="59.45" y="175.32" width="144" height="144"/>
  </clipPath>
  <clipPath id="p9101c9498c">
   <rect x="210.65" y="175.32" width="144" height="144"/>
  </clipPath>
  <clipPath id="p826ec27a42">
   <rect x="59.45" y="326.52" width="144" height="144"/>
  </clipPath>
  <clipPath id="pd24dc3a472">
   <rect x="210.65" y="326.52" width="144" height="144"/>
  </clipPath>
  <clipPath id="pde05b7f0ba">
   <rect x="361.85" y="326.52" width="144" height="144"/>
  </clipPath>
 </defs>
</svg>
