<?xml version="1.0" encoding="utf-8" standalone="no"?>
<!DOCTYPE svg PUBLIC "-//W3C//DTD SVG 1.1//EN"
  "http://www.w3.org/Graphics/SVG/1.1/DTD/svg11.dtd">
<!-- Created with matplotlib (https://matplotlib.org/) -->
<svg height="310.86825pt" version="1.1" viewBox="0 0 406.940312 310.86825" width="406.940312pt" xmlns="http://www.w3.org/2000/svg" xmlns:xlink="http://www.w3.org/1999/xlink">
 <metadata>
  <rdf:RDF xmlns:cc="http://creativecommons.org/ns#" xmlns:dc="http://purl.org/dc/elements/1.1/" xmlns:rdf="http://www.w3.org/1999/02/22-rdf-syntax-ns#">
   <cc:Work>
    <dc:type rdf:resource="http://purl.org/dc/dcmitype/StillImage"/>
    <dc:date>2021-03-30T17:37:28.810524</dc:date>
    <dc:format>image/svg+xml</dc:format>
    <dc:creator>
     <cc:Agent>
      <dc:title>Matplotlib v3.3.2, https://matplotlib.org/</dc:title>
     </cc:Agent>
    </dc:creator>
   </cc:Work>
  </rdf:RDF>
 </metadata>
 <defs>
  <style type="text/css">*{stroke-linecap:butt;stroke-linejoin:round;}</style>
 </defs>
 <g id="figure_1">
  <g id="patch_1">
   <path d="M 0 310.86825 
L 406.940312 310.86825 
L 406.940312 0 
L 0 0 
z
" style="fill:#ffffff;"/>
  </g>
  <g id="axes_1">
   <g id="patch_2">
    <path d="M 42.620313 273.312 
L 399.740313 273.312 
L 399.740313 7.2 
L 42.620313 7.2 
z
" style="fill:#ffffff;"/>
   </g>
   <g id="matplotlib.axis_1">
    <g id="xtick_1">
     <g id="line2d_1">
      <defs>
       <path d="M 0 0 
L 0 3.5 
" id="m90d762833c" style="stroke:#000000;stroke-width:0.8;"/>
      </defs>
      <g>
       <use style="stroke:#000000;stroke-width:0.8;" x="58.85304" xlink:href="#m90d762833c" y="273.312"/>
      </g>
     </g>
     <g id="text_1">
      <!-- 400 -->
      <g transform="translate(49.30929 287.910437)scale(0.1 -0.1)">
       <defs>
        <path d="M 37.796875 64.3125 
L 12.890625 25.390625 
L 37.796875 25.390625 
z
M 35.203125 72.90625 
L 47.609375 72.90625 
L 47.609375 25.390625 
L 58.015625 25.390625 
L 58.015625 17.1875 
L 47.609375 17.1875 
L 47.609375 0 
L 37.796875 0 
L 37.796875 17.1875 
L 4.890625 17.1875 
L 4.890625 26.703125 
z
" id="DejaVuSans-52"/>
        <path d="M 31.78125 66.40625 
Q 24.171875 66.40625 20.328125 58.90625 
Q 16.5 51.421875 16.5 36.375 
Q 16.5 21.390625 20.328125 13.890625 
Q 24.171875 6.390625 31.78125 6.390625 
Q 39.453125 6.390625 43.28125 13.890625 
Q 47.125 21.390625 47.125 36.375 
Q 47.125 51.421875 43.28125 58.90625 
Q 39.453125 66.40625 31.78125 66.40625 
z
M 31.78125 74.21875 
Q 44.046875 74.21875 50.515625 64.515625 
Q 56.984375 54.828125 56.984375 36.375 
Q 56.984375 17.96875 50.515625 8.265625 
Q 44.046875 -1.421875 31.78125 -1.421875 
Q 19.53125 -1.421875 13.0625 8.265625 
Q 6.59375 17.96875 6.59375 36.375 
Q 6.59375 54.828125 13.0625 64.515625 
Q 19.53125 74.21875 31.78125 74.21875 
z
" id="DejaVuSans-48"/>
       </defs>
       <use xlink:href="#DejaVuSans-52"/>
       <use x="63.623047" xlink:href="#DejaVuSans-48"/>
       <use x="127.246094" xlink:href="#DejaVuSans-48"/>
      </g>
     </g>
    </g>
    <g id="xtick_2">
     <g id="line2d_2">
      <g>
       <use style="stroke:#000000;stroke-width:0.8;" x="99.434858" xlink:href="#m90d762833c" y="273.312"/>
      </g>
     </g>
     <g id="text_2">
      <!-- 450 -->
      <g transform="translate(89.891108 287.910437)scale(0.1 -0.1)">
       <defs>
        <path d="M 10.796875 72.90625 
L 49.515625 72.90625 
L 49.515625 64.59375 
L 19.828125 64.59375 
L 19.828125 46.734375 
Q 21.96875 47.46875 24.109375 47.828125 
Q 26.265625 48.1875 28.421875 48.1875 
Q 40.625 48.1875 47.75 41.5 
Q 54.890625 34.8125 54.890625 23.390625 
Q 54.890625 11.625 47.5625 5.09375 
Q 40.234375 -1.421875 26.90625 -1.421875 
Q 22.3125 -1.421875 17.546875 -0.640625 
Q 12.796875 0.140625 7.71875 1.703125 
L 7.71875 11.625 
Q 12.109375 9.234375 16.796875 8.0625 
Q 21.484375 6.890625 26.703125 6.890625 
Q 35.15625 6.890625 40.078125 11.328125 
Q 45.015625 15.765625 45.015625 23.390625 
Q 45.015625 31 40.078125 35.4375 
Q 35.15625 39.890625 26.703125 39.890625 
Q 22.75 39.890625 18.8125 39.015625 
Q 14.890625 38.140625 10.796875 36.28125 
z
" id="DejaVuSans-53"/>
       </defs>
       <use xlink:href="#DejaVuSans-52"/>
       <use x="63.623047" xlink:href="#DejaVuSans-53"/>
       <use x="127.246094" xlink:href="#DejaVuSans-48"/>
      </g>
     </g>
    </g>
    <g id="xtick_3">
     <g id="line2d_3">
      <g>
       <use style="stroke:#000000;stroke-width:0.8;" x="140.016676" xlink:href="#m90d762833c" y="273.312"/>
      </g>
     </g>
     <g id="text_3">
      <!-- 500 -->
      <g transform="translate(130.472926 287.910437)scale(0.1 -0.1)">
       <use xlink:href="#DejaVuSans-53"/>
       <use x="63.623047" xlink:href="#DejaVuSans-48"/>
       <use x="127.246094" xlink:href="#DejaVuSans-48"/>
      </g>
     </g>
    </g>
    <g id="xtick_4">
     <g id="line2d_4">
      <g>
       <use style="stroke:#000000;stroke-width:0.8;" x="180.598494" xlink:href="#m90d762833c" y="273.312"/>
      </g>
     </g>
     <g id="text_4">
      <!-- 550 -->
      <g transform="translate(171.054744 287.910437)scale(0.1 -0.1)">
       <use xlink:href="#DejaVuSans-53"/>
       <use x="63.623047" xlink:href="#DejaVuSans-53"/>
       <use x="127.246094" xlink:href="#DejaVuSans-48"/>
      </g>
     </g>
    </g>
    <g id="xtick_5">
     <g id="line2d_5">
      <g>
       <use style="stroke:#000000;stroke-width:0.8;" x="221.180312" xlink:href="#m90d762833c" y="273.312"/>
      </g>
     </g>
     <g id="text_5">
      <!-- 600 -->
      <g transform="translate(211.636562 287.910437)scale(0.1 -0.1)">
       <defs>
        <path d="M 33.015625 40.375 
Q 26.375 40.375 22.484375 35.828125 
Q 18.609375 31.296875 18.609375 23.390625 
Q 18.609375 15.53125 22.484375 10.953125 
Q 26.375 6.390625 33.015625 6.390625 
Q 39.65625 6.390625 43.53125 10.953125 
Q 47.40625 15.53125 47.40625 23.390625 
Q 47.40625 31.296875 43.53125 35.828125 
Q 39.65625 40.375 33.015625 40.375 
z
M 52.59375 71.296875 
L 52.59375 62.3125 
Q 48.875 64.0625 45.09375 64.984375 
Q 41.3125 65.921875 37.59375 65.921875 
Q 27.828125 65.921875 22.671875 59.328125 
Q 17.53125 52.734375 16.796875 39.40625 
Q 19.671875 43.65625 24.015625 45.921875 
Q 28.375 48.1875 33.59375 48.1875 
Q 44.578125 48.1875 50.953125 41.515625 
Q 57.328125 34.859375 57.328125 23.390625 
Q 57.328125 12.15625 50.6875 5.359375 
Q 44.046875 -1.421875 33.015625 -1.421875 
Q 20.359375 -1.421875 13.671875 8.265625 
Q 6.984375 17.96875 6.984375 36.375 
Q 6.984375 53.65625 15.1875 63.9375 
Q 23.390625 74.21875 37.203125 74.21875 
Q 40.921875 74.21875 44.703125 73.484375 
Q 48.484375 72.75 52.59375 71.296875 
z
" id="DejaVuSans-54"/>
       </defs>
       <use xlink:href="#DejaVuSans-54"/>
       <use x="63.623047" xlink:href="#DejaVuSans-48"/>
       <use x="127.246094" xlink:href="#DejaVuSans-48"/>
      </g>
     </g>
    </g>
    <g id="xtick_6">
     <g id="line2d_6">
      <g>
       <use style="stroke:#000000;stroke-width:0.8;" x="261.762131" xlink:href="#m90d762833c" y="273.312"/>
      </g>
     </g>
     <g id="text_6">
      <!-- 650 -->
      <g transform="translate(252.218381 287.910437)scale(0.1 -0.1)">
       <use xlink:href="#DejaVuSans-54"/>
       <use x="63.623047" xlink:href="#DejaVuSans-53"/>
       <use x="127.246094" xlink:href="#DejaVuSans-48"/>
      </g>
     </g>
    </g>
    <g id="xtick_7">
     <g id="line2d_7">
      <g>
       <use style="stroke:#000000;stroke-width:0.8;" x="302.343949" xlink:href="#m90d762833c" y="273.312"/>
      </g>
     </g>
     <g id="text_7">
      <!-- 700 -->
      <g transform="translate(292.800199 287.910437)scale(0.1 -0.1)">
       <defs>
        <path d="M 8.203125 72.90625 
L 55.078125 72.90625 
L 55.078125 68.703125 
L 28.609375 0 
L 18.3125 0 
L 43.21875 64.59375 
L 8.203125 64.59375 
z
" id="DejaVuSans-55"/>
       </defs>
       <use xlink:href="#DejaVuSans-55"/>
       <use x="63.623047" xlink:href="#DejaVuSans-48"/>
       <use x="127.246094" xlink:href="#DejaVuSans-48"/>
      </g>
     </g>
    </g>
    <g id="xtick_8">
     <g id="line2d_8">
      <g>
       <use style="stroke:#000000;stroke-width:0.8;" x="342.925767" xlink:href="#m90d762833c" y="273.312"/>
      </g>
     </g>
     <g id="text_8">
      <!-- 750 -->
      <g transform="translate(333.382017 287.910437)scale(0.1 -0.1)">
       <use xlink:href="#DejaVuSans-55"/>
       <use x="63.623047" xlink:href="#DejaVuSans-53"/>
       <use x="127.246094" xlink:href="#DejaVuSans-48"/>
      </g>
     </g>
    </g>
    <g id="xtick_9">
     <g id="line2d_9">
      <g>
       <use style="stroke:#000000;stroke-width:0.8;" x="383.507585" xlink:href="#m90d762833c" y="273.312"/>
      </g>
     </g>
     <g id="text_9">
      <!-- 800 -->
      <g transform="translate(373.963835 287.910437)scale(0.1 -0.1)">
       <defs>
        <path d="M 31.78125 34.625 
Q 24.75 34.625 20.71875 30.859375 
Q 16.703125 27.09375 16.703125 20.515625 
Q 16.703125 13.921875 20.71875 10.15625 
Q 24.75 6.390625 31.78125 6.390625 
Q 38.8125 6.390625 42.859375 10.171875 
Q 46.921875 13.96875 46.921875 20.515625 
Q 46.921875 27.09375 42.890625 30.859375 
Q 38.875 34.625 31.78125 34.625 
z
M 21.921875 38.8125 
Q 15.578125 40.375 12.03125 44.71875 
Q 8.5 49.078125 8.5 55.328125 
Q 8.5 64.0625 14.71875 69.140625 
Q 20.953125 74.21875 31.78125 74.21875 
Q 42.671875 74.21875 48.875 69.140625 
Q 55.078125 64.0625 55.078125 55.328125 
Q 55.078125 49.078125 51.53125 44.71875 
Q 48 40.375 41.703125 38.8125 
Q 48.828125 37.15625 52.796875 32.3125 
Q 56.78125 27.484375 56.78125 20.515625 
Q 56.78125 9.90625 50.3125 4.234375 
Q 43.84375 -1.421875 31.78125 -1.421875 
Q 19.734375 -1.421875 13.25 4.234375 
Q 6.78125 9.90625 6.78125 20.515625 
Q 6.78125 27.484375 10.78125 32.3125 
Q 14.796875 37.15625 21.921875 38.8125 
z
M 18.3125 54.390625 
Q 18.3125 48.734375 21.84375 45.5625 
Q 25.390625 42.390625 31.78125 42.390625 
Q 38.140625 42.390625 41.71875 45.5625 
Q 45.3125 48.734375 45.3125 54.390625 
Q 45.3125 60.0625 41.71875 63.234375 
Q 38.140625 66.40625 31.78125 66.40625 
Q 25.390625 66.40625 21.84375 63.234375 
Q 18.3125 60.0625 18.3125 54.390625 
z
" id="DejaVuSans-56"/>
       </defs>
       <use xlink:href="#DejaVuSans-56"/>
       <use x="63.623047" xlink:href="#DejaVuSans-48"/>
       <use x="127.246094" xlink:href="#DejaVuSans-48"/>
      </g>
     </g>
    </g>
    <g id="text_10">
     <!-- x -->
     <g transform="translate(218.220938 301.588562)scale(0.1 -0.1)">
      <defs>
       <path d="M 54.890625 54.6875 
L 35.109375 28.078125 
L 55.90625 0 
L 45.3125 0 
L 29.390625 21.484375 
L 13.484375 0 
L 2.875 0 
L 24.125 28.609375 
L 4.6875 54.6875 
L 15.28125 54.6875 
L 29.78125 35.203125 
L 44.28125 54.6875 
z
" id="DejaVuSans-120"/>
      </defs>
      <use xlink:href="#DejaVuSans-120"/>
     </g>
    </g>
   </g>
   <g id="matplotlib.axis_2">
    <g id="ytick_1">
     <g id="line2d_10">
      <defs>
       <path d="M 0 0 
L -3.5 0 
" id="m1bdba897e3" style="stroke:#000000;stroke-width:0.8;"/>
      </defs>
      <g>
       <use style="stroke:#000000;stroke-width:0.8;" x="42.620313" xlink:href="#m1bdba897e3" y="268.601506"/>
      </g>
     </g>
     <g id="text_11">
      <!-- −5 -->
      <g transform="translate(20.878125 272.400725)scale(0.1 -0.1)">
       <defs>
        <path d="M 10.59375 35.5 
L 73.1875 35.5 
L 73.1875 27.203125 
L 10.59375 27.203125 
z
" id="DejaVuSans-8722"/>
       </defs>
       <use xlink:href="#DejaVuSans-8722"/>
       <use x="83.789062" xlink:href="#DejaVuSans-53"/>
      </g>
     </g>
    </g>
    <g id="ytick_2">
     <g id="line2d_11">
      <g>
       <use style="stroke:#000000;stroke-width:0.8;" x="42.620313" xlink:href="#m1bdba897e3" y="217.644399"/>
      </g>
     </g>
     <g id="text_12">
      <!-- 0 -->
      <g transform="translate(29.257813 221.443618)scale(0.1 -0.1)">
       <use xlink:href="#DejaVuSans-48"/>
      </g>
     </g>
    </g>
    <g id="ytick_3">
     <g id="line2d_12">
      <g>
       <use style="stroke:#000000;stroke-width:0.8;" x="42.620313" xlink:href="#m1bdba897e3" y="166.687293"/>
      </g>
     </g>
     <g id="text_13">
      <!-- 5 -->
      <g transform="translate(29.257813 170.486511)scale(0.1 -0.1)">
       <use xlink:href="#DejaVuSans-53"/>
      </g>
     </g>
    </g>
    <g id="ytick_4">
     <g id="line2d_13">
      <g>
       <use style="stroke:#000000;stroke-width:0.8;" x="42.620313" xlink:href="#m1bdba897e3" y="115.730186"/>
      </g>
     </g>
     <g id="text_14">
      <!-- 10 -->
      <g transform="translate(22.895313 119.529405)scale(0.1 -0.1)">
       <defs>
        <path d="M 12.40625 8.296875 
L 28.515625 8.296875 
L 28.515625 63.921875 
L 10.984375 60.40625 
L 10.984375 69.390625 
L 28.421875 72.90625 
L 38.28125 72.90625 
L 38.28125 8.296875 
L 54.390625 8.296875 
L 54.390625 0 
L 12.40625 0 
z
" id="DejaVuSans-49"/>
       </defs>
       <use xlink:href="#DejaVuSans-49"/>
       <use x="63.623047" xlink:href="#DejaVuSans-48"/>
      </g>
     </g>
    </g>
    <g id="ytick_5">
     <g id="line2d_14">
      <g>
       <use style="stroke:#000000;stroke-width:0.8;" x="42.620313" xlink:href="#m1bdba897e3" y="64.77308"/>
      </g>
     </g>
     <g id="text_15">
      <!-- 15 -->
      <g transform="translate(22.895313 68.572298)scale(0.1 -0.1)">
       <use xlink:href="#DejaVuSans-49"/>
       <use x="63.623047" xlink:href="#DejaVuSans-53"/>
      </g>
     </g>
    </g>
    <g id="ytick_6">
     <g id="line2d_15">
      <g>
       <use style="stroke:#000000;stroke-width:0.8;" x="42.620313" xlink:href="#m1bdba897e3" y="13.815973"/>
      </g>
     </g>
     <g id="text_16">
      <!-- 20 -->
      <g transform="translate(22.895313 17.615192)scale(0.1 -0.1)">
       <defs>
        <path d="M 19.1875 8.296875 
L 53.609375 8.296875 
L 53.609375 0 
L 7.328125 0 
L 7.328125 8.296875 
Q 12.9375 14.109375 22.625 23.890625 
Q 32.328125 33.6875 34.8125 36.53125 
Q 39.546875 41.84375 41.421875 45.53125 
Q 43.3125 49.21875 43.3125 52.78125 
Q 43.3125 58.59375 39.234375 62.25 
Q 35.15625 65.921875 28.609375 65.921875 
Q 23.96875 65.921875 18.8125 64.3125 
Q 13.671875 62.703125 7.8125 59.421875 
L 7.8125 69.390625 
Q 13.765625 71.78125 18.9375 73 
Q 24.125 74.21875 28.421875 74.21875 
Q 39.75 74.21875 46.484375 68.546875 
Q 53.21875 62.890625 53.21875 53.421875 
Q 53.21875 48.921875 51.53125 44.890625 
Q 49.859375 40.875 45.40625 35.40625 
Q 44.1875 33.984375 37.640625 27.21875 
Q 31.109375 20.453125 19.1875 8.296875 
z
" id="DejaVuSans-50"/>
       </defs>
       <use xlink:href="#DejaVuSans-50"/>
       <use x="63.623047" xlink:href="#DejaVuSans-48"/>
      </g>
     </g>
    </g>
    <g id="text_17">
     <!-- y -->
     <g transform="translate(14.798438 143.215375)rotate(-90)scale(0.1 -0.1)">
      <defs>
       <path d="M 32.171875 -5.078125 
Q 28.375 -14.84375 24.75 -17.8125 
Q 21.140625 -20.796875 15.09375 -20.796875 
L 7.90625 -20.796875 
L 7.90625 -13.28125 
L 13.1875 -13.28125 
Q 16.890625 -13.28125 18.9375 -11.515625 
Q 21 -9.765625 23.484375 -3.21875 
L 25.09375 0.875 
L 2.984375 54.6875 
L 12.5 54.6875 
L 29.59375 11.921875 
L 46.6875 54.6875 
L 56.203125 54.6875 
z
" id="DejaVuSans-121"/>
      </defs>
      <use xlink:href="#DejaVuSans-121"/>
     </g>
    </g>
   </g>
   <g id="LineCollection_1">
    <path clip-path="url(#p6fa745a165)" d="M 58.85304 220.616972 
L 58.85304 200.234129 
" style="fill:none;stroke:#1f77b4;stroke-width:1.5;"/>
    <path clip-path="url(#p6fa745a165)" d="M 62.132379 221.203757 
L 62.132379 200.820915 
" style="fill:none;stroke:#1f77b4;stroke-width:1.5;"/>
    <path clip-path="url(#p6fa745a165)" d="M 65.411717 238.206854 
L 65.411717 217.824012 
" style="fill:none;stroke:#1f77b4;stroke-width:1.5;"/>
    <path clip-path="url(#p6fa745a165)" d="M 68.691056 230.213385 
L 68.691056 209.830542 
" style="fill:none;stroke:#1f77b4;stroke-width:1.5;"/>
    <path clip-path="url(#p6fa745a165)" d="M 71.970395 250.941008 
L 71.970395 230.558165 
" style="fill:none;stroke:#1f77b4;stroke-width:1.5;"/>
    <path clip-path="url(#p6fa745a165)" d="M 75.249734 231.372944 
L 75.249734 210.990101 
" style="fill:none;stroke:#1f77b4;stroke-width:1.5;"/>
    <path clip-path="url(#p6fa745a165)" d="M 78.529073 249.001015 
L 78.529073 228.618173 
" style="fill:none;stroke:#1f77b4;stroke-width:1.5;"/>
    <path clip-path="url(#p6fa745a165)" d="M 81.808412 230.56746 
L 81.808412 210.184617 
" style="fill:none;stroke:#1f77b4;stroke-width:1.5;"/>
    <path clip-path="url(#p6fa745a165)" d="M 85.087751 223.452718 
L 85.087751 203.069875 
" style="fill:none;stroke:#1f77b4;stroke-width:1.5;"/>
    <path clip-path="url(#p6fa745a165)" d="M 88.367089 227.057785 
L 88.367089 206.674943 
" style="fill:none;stroke:#1f77b4;stroke-width:1.5;"/>
    <path clip-path="url(#p6fa745a165)" d="M 91.646428 225.839798 
L 91.646428 205.456955 
" style="fill:none;stroke:#1f77b4;stroke-width:1.5;"/>
    <path clip-path="url(#p6fa745a165)" d="M 94.925767 227.706045 
L 94.925767 207.323203 
" style="fill:none;stroke:#1f77b4;stroke-width:1.5;"/>
    <path clip-path="url(#p6fa745a165)" d="M 98.205106 244.400491 
L 98.205106 224.017649 
" style="fill:none;stroke:#1f77b4;stroke-width:1.5;"/>
    <path clip-path="url(#p6fa745a165)" d="M 101.484445 225.508219 
L 101.484445 205.125377 
" style="fill:none;stroke:#1f77b4;stroke-width:1.5;"/>
    <path clip-path="url(#p6fa745a165)" d="M 104.763784 227.182756 
L 104.763784 206.799914 
" style="fill:none;stroke:#1f77b4;stroke-width:1.5;"/>
    <path clip-path="url(#p6fa745a165)" d="M 108.043122 219.127354 
L 108.043122 198.744512 
" style="fill:none;stroke:#1f77b4;stroke-width:1.5;"/>
    <path clip-path="url(#p6fa745a165)" d="M 111.322461 225.460025 
L 111.322461 205.077183 
" style="fill:none;stroke:#1f77b4;stroke-width:1.5;"/>
    <path clip-path="url(#p6fa745a165)" d="M 114.6018 224.490168 
L 114.6018 204.107325 
" style="fill:none;stroke:#1f77b4;stroke-width:1.5;"/>
    <path clip-path="url(#p6fa745a165)" d="M 117.881139 223.946895 
L 117.881139 203.564053 
" style="fill:none;stroke:#1f77b4;stroke-width:1.5;"/>
    <path clip-path="url(#p6fa745a165)" d="M 121.160478 219.454721 
L 121.160478 199.071878 
" style="fill:none;stroke:#1f77b4;stroke-width:1.5;"/>
    <path clip-path="url(#p6fa745a165)" d="M 124.439817 239.007639 
L 124.439817 218.624797 
" style="fill:none;stroke:#1f77b4;stroke-width:1.5;"/>
    <path clip-path="url(#p6fa745a165)" d="M 127.719155 232.171279 
L 127.719155 211.788437 
" style="fill:none;stroke:#1f77b4;stroke-width:1.5;"/>
    <path clip-path="url(#p6fa745a165)" d="M 130.998494 216.711087 
L 130.998494 196.328244 
" style="fill:none;stroke:#1f77b4;stroke-width:1.5;"/>
    <path clip-path="url(#p6fa745a165)" d="M 134.277833 181.617624 
L 134.277833 161.234782 
" style="fill:none;stroke:#1f77b4;stroke-width:1.5;"/>
    <path clip-path="url(#p6fa745a165)" d="M 137.557172 69.808286 
L 137.557172 49.425444 
" style="fill:none;stroke:#1f77b4;stroke-width:1.5;"/>
    <path clip-path="url(#p6fa745a165)" d="M 140.836511 39.678843 
L 140.836511 19.296 
" style="fill:none;stroke:#1f77b4;stroke-width:1.5;"/>
    <path clip-path="url(#p6fa745a165)" d="M 144.11585 134.245009 
L 144.11585 113.862166 
" style="fill:none;stroke:#1f77b4;stroke-width:1.5;"/>
    <path clip-path="url(#p6fa745a165)" d="M 147.395189 199.618049 
L 147.395189 179.235207 
" style="fill:none;stroke:#1f77b4;stroke-width:1.5;"/>
    <path clip-path="url(#p6fa745a165)" d="M 150.674527 251.662368 
L 150.674527 231.279525 
" style="fill:none;stroke:#1f77b4;stroke-width:1.5;"/>
    <path clip-path="url(#p6fa745a165)" d="M 153.953866 245.033455 
L 153.953866 224.650612 
" style="fill:none;stroke:#1f77b4;stroke-width:1.5;"/>
    <path clip-path="url(#p6fa745a165)" d="M 157.233205 231.241588 
L 157.233205 210.858745 
" style="fill:none;stroke:#1f77b4;stroke-width:1.5;"/>
    <path clip-path="url(#p6fa745a165)" d="M 160.512544 217.069243 
L 160.512544 196.6864 
" style="fill:none;stroke:#1f77b4;stroke-width:1.5;"/>
    <path clip-path="url(#p6fa745a165)" d="M 163.791883 219.56182 
L 163.791883 199.178977 
" style="fill:none;stroke:#1f77b4;stroke-width:1.5;"/>
    <path clip-path="url(#p6fa745a165)" d="M 167.071222 217.753716 
L 167.071222 197.370873 
" style="fill:none;stroke:#1f77b4;stroke-width:1.5;"/>
    <path clip-path="url(#p6fa745a165)" d="M 170.35056 225.08453 
L 170.35056 204.701687 
" style="fill:none;stroke:#1f77b4;stroke-width:1.5;"/>
    <path clip-path="url(#p6fa745a165)" d="M 173.629899 230.451584 
L 173.629899 210.068741 
" style="fill:none;stroke:#1f77b4;stroke-width:1.5;"/>
    <path clip-path="url(#p6fa745a165)" d="M 176.909238 216.779216 
L 176.909238 196.396373 
" style="fill:none;stroke:#1f77b4;stroke-width:1.5;"/>
    <path clip-path="url(#p6fa745a165)" d="M 180.188577 214.03572 
L 180.188577 193.652878 
" style="fill:none;stroke:#1f77b4;stroke-width:1.5;"/>
    <path clip-path="url(#p6fa745a165)" d="M 183.467916 212.707731 
L 183.467916 192.324888 
" style="fill:none;stroke:#1f77b4;stroke-width:1.5;"/>
    <path clip-path="url(#p6fa745a165)" d="M 186.747255 230.470879 
L 186.747255 210.088036 
" style="fill:none;stroke:#1f77b4;stroke-width:1.5;"/>
    <path clip-path="url(#p6fa745a165)" d="M 190.026593 214.417537 
L 190.026593 194.034695 
" style="fill:none;stroke:#1f77b4;stroke-width:1.5;"/>
    <path clip-path="url(#p6fa745a165)" d="M 193.305932 233.054398 
L 193.305932 212.671555 
" style="fill:none;stroke:#1f77b4;stroke-width:1.5;"/>
    <path clip-path="url(#p6fa745a165)" d="M 196.585271 246.073172 
L 196.585271 225.690329 
" style="fill:none;stroke:#1f77b4;stroke-width:1.5;"/>
    <path clip-path="url(#p6fa745a165)" d="M 199.86461 238.025028 
L 199.86461 217.642185 
" style="fill:none;stroke:#1f77b4;stroke-width:1.5;"/>
    <path clip-path="url(#p6fa745a165)" d="M 203.143949 232.727792 
L 203.143949 212.344949 
" style="fill:none;stroke:#1f77b4;stroke-width:1.5;"/>
    <path clip-path="url(#p6fa745a165)" d="M 206.423288 234.327342 
L 206.423288 213.9445 
" style="fill:none;stroke:#1f77b4;stroke-width:1.5;"/>
    <path clip-path="url(#p6fa745a165)" d="M 209.702627 218.126824 
L 209.702627 197.743982 
" style="fill:none;stroke:#1f77b4;stroke-width:1.5;"/>
    <path clip-path="url(#p6fa745a165)" d="M 212.981965 221.414848 
L 212.981965 201.032006 
" style="fill:none;stroke:#1f77b4;stroke-width:1.5;"/>
    <path clip-path="url(#p6fa745a165)" d="M 216.261304 228.024508 
L 216.261304 207.641666 
" style="fill:none;stroke:#1f77b4;stroke-width:1.5;"/>
    <path clip-path="url(#p6fa745a165)" d="M 219.540643 231.265125 
L 219.540643 210.882282 
" style="fill:none;stroke:#1f77b4;stroke-width:1.5;"/>
    <path clip-path="url(#p6fa745a165)" d="M 222.819982 229.845578 
L 222.819982 209.462735 
" style="fill:none;stroke:#1f77b4;stroke-width:1.5;"/>
    <path clip-path="url(#p6fa745a165)" d="M 226.099321 237.990616 
L 226.099321 217.607774 
" style="fill:none;stroke:#1f77b4;stroke-width:1.5;"/>
    <path clip-path="url(#p6fa745a165)" d="M 229.37866 235.65195 
L 229.37866 215.269108 
" style="fill:none;stroke:#1f77b4;stroke-width:1.5;"/>
    <path clip-path="url(#p6fa745a165)" d="M 232.657998 229.831974 
L 232.657998 209.449131 
" style="fill:none;stroke:#1f77b4;stroke-width:1.5;"/>
    <path clip-path="url(#p6fa745a165)" d="M 235.937337 209.210657 
L 235.937337 188.827814 
" style="fill:none;stroke:#1f77b4;stroke-width:1.5;"/>
    <path clip-path="url(#p6fa745a165)" d="M 239.216676 238.633537 
L 239.216676 218.250694 
" style="fill:none;stroke:#1f77b4;stroke-width:1.5;"/>
    <path clip-path="url(#p6fa745a165)" d="M 242.496015 228.456088 
L 242.496015 208.073245 
" style="fill:none;stroke:#1f77b4;stroke-width:1.5;"/>
    <path clip-path="url(#p6fa745a165)" d="M 245.775354 230.42326 
L 245.775354 210.040417 
" style="fill:none;stroke:#1f77b4;stroke-width:1.5;"/>
    <path clip-path="url(#p6fa745a165)" d="M 249.054693 201.793545 
L 249.054693 181.410702 
" style="fill:none;stroke:#1f77b4;stroke-width:1.5;"/>
    <path clip-path="url(#p6fa745a165)" d="M 252.334032 233.963238 
L 252.334032 213.580395 
" style="fill:none;stroke:#1f77b4;stroke-width:1.5;"/>
    <path clip-path="url(#p6fa745a165)" d="M 255.61337 208.168078 
L 255.61337 187.785235 
" style="fill:none;stroke:#1f77b4;stroke-width:1.5;"/>
    <path clip-path="url(#p6fa745a165)" d="M 258.892709 204.942273 
L 258.892709 184.55943 
" style="fill:none;stroke:#1f77b4;stroke-width:1.5;"/>
    <path clip-path="url(#p6fa745a165)" d="M 262.172048 228.145068 
L 262.172048 207.762226 
" style="fill:none;stroke:#1f77b4;stroke-width:1.5;"/>
    <path clip-path="url(#p6fa745a165)" d="M 265.451387 197.994205 
L 265.451387 177.611362 
" style="fill:none;stroke:#1f77b4;stroke-width:1.5;"/>
    <path clip-path="url(#p6fa745a165)" d="M 268.730726 240.783082 
L 268.730726 220.400239 
" style="fill:none;stroke:#1f77b4;stroke-width:1.5;"/>
    <path clip-path="url(#p6fa745a165)" d="M 272.010065 235.652638 
L 272.010065 215.269795 
" style="fill:none;stroke:#1f77b4;stroke-width:1.5;"/>
    <path clip-path="url(#p6fa745a165)" d="M 275.289403 239.08011 
L 275.289403 218.697268 
" style="fill:none;stroke:#1f77b4;stroke-width:1.5;"/>
    <path clip-path="url(#p6fa745a165)" d="M 278.568742 221.999454 
L 278.568742 201.616612 
" style="fill:none;stroke:#1f77b4;stroke-width:1.5;"/>
    <path clip-path="url(#p6fa745a165)" d="M 281.848081 216.279469 
L 281.848081 195.896627 
" style="fill:none;stroke:#1f77b4;stroke-width:1.5;"/>
    <path clip-path="url(#p6fa745a165)" d="M 285.12742 234.946651 
L 285.12742 214.563808 
" style="fill:none;stroke:#1f77b4;stroke-width:1.5;"/>
    <path clip-path="url(#p6fa745a165)" d="M 288.406759 224.248519 
L 288.406759 203.865676 
" style="fill:none;stroke:#1f77b4;stroke-width:1.5;"/>
    <path clip-path="url(#p6fa745a165)" d="M 291.686098 226.620837 
L 291.686098 206.237995 
" style="fill:none;stroke:#1f77b4;stroke-width:1.5;"/>
    <path clip-path="url(#p6fa745a165)" d="M 294.965436 218.541081 
L 294.965436 198.158238 
" style="fill:none;stroke:#1f77b4;stroke-width:1.5;"/>
    <path clip-path="url(#p6fa745a165)" d="M 298.244775 220.284697 
L 298.244775 199.901854 
" style="fill:none;stroke:#1f77b4;stroke-width:1.5;"/>
    <path clip-path="url(#p6fa745a165)" d="M 301.524114 199.642552 
L 301.524114 179.25971 
" style="fill:none;stroke:#1f77b4;stroke-width:1.5;"/>
    <path clip-path="url(#p6fa745a165)" d="M 304.803453 229.03243 
L 304.803453 208.649587 
" style="fill:none;stroke:#1f77b4;stroke-width:1.5;"/>
    <path clip-path="url(#p6fa745a165)" d="M 308.082792 224.710737 
L 308.082792 204.327895 
" style="fill:none;stroke:#1f77b4;stroke-width:1.5;"/>
    <path clip-path="url(#p6fa745a165)" d="M 311.362131 225.296729 
L 311.362131 204.913886 
" style="fill:none;stroke:#1f77b4;stroke-width:1.5;"/>
    <path clip-path="url(#p6fa745a165)" d="M 314.64147 225.236054 
L 314.64147 204.853211 
" style="fill:none;stroke:#1f77b4;stroke-width:1.5;"/>
    <path clip-path="url(#p6fa745a165)" d="M 317.920808 217.163486 
L 317.920808 196.780643 
" style="fill:none;stroke:#1f77b4;stroke-width:1.5;"/>
    <path clip-path="url(#p6fa745a165)" d="M 321.200147 236.435138 
L 321.200147 216.052296 
" style="fill:none;stroke:#1f77b4;stroke-width:1.5;"/>
    <path clip-path="url(#p6fa745a165)" d="M 324.479486 232.982997 
L 324.479486 212.600154 
" style="fill:none;stroke:#1f77b4;stroke-width:1.5;"/>
    <path clip-path="url(#p6fa745a165)" d="M 327.758825 235.938192 
L 327.758825 215.555349 
" style="fill:none;stroke:#1f77b4;stroke-width:1.5;"/>
    <path clip-path="url(#p6fa745a165)" d="M 331.038164 261.216 
L 331.038164 240.833157 
" style="fill:none;stroke:#1f77b4;stroke-width:1.5;"/>
    <path clip-path="url(#p6fa745a165)" d="M 334.317503 212.62412 
L 334.317503 192.241277 
" style="fill:none;stroke:#1f77b4;stroke-width:1.5;"/>
    <path clip-path="url(#p6fa745a165)" d="M 337.596841 216.375832 
L 337.596841 195.992989 
" style="fill:none;stroke:#1f77b4;stroke-width:1.5;"/>
    <path clip-path="url(#p6fa745a165)" d="M 340.87618 227.855641 
L 340.87618 207.472798 
" style="fill:none;stroke:#1f77b4;stroke-width:1.5;"/>
    <path clip-path="url(#p6fa745a165)" d="M 344.155519 233.131464 
L 344.155519 212.748622 
" style="fill:none;stroke:#1f77b4;stroke-width:1.5;"/>
    <path clip-path="url(#p6fa745a165)" d="M 347.434858 237.834893 
L 347.434858 217.45205 
" style="fill:none;stroke:#1f77b4;stroke-width:1.5;"/>
    <path clip-path="url(#p6fa745a165)" d="M 350.714197 240.677436 
L 350.714197 220.294593 
" style="fill:none;stroke:#1f77b4;stroke-width:1.5;"/>
    <path clip-path="url(#p6fa745a165)" d="M 353.993536 212.469412 
L 353.993536 192.086569 
" style="fill:none;stroke:#1f77b4;stroke-width:1.5;"/>
    <path clip-path="url(#p6fa745a165)" d="M 357.272874 201.240552 
L 357.272874 180.85771 
" style="fill:none;stroke:#1f77b4;stroke-width:1.5;"/>
    <path clip-path="url(#p6fa745a165)" d="M 360.552213 240.54506 
L 360.552213 220.162218 
" style="fill:none;stroke:#1f77b4;stroke-width:1.5;"/>
    <path clip-path="url(#p6fa745a165)" d="M 363.831552 232.994384 
L 363.831552 212.611541 
" style="fill:none;stroke:#1f77b4;stroke-width:1.5;"/>
    <path clip-path="url(#p6fa745a165)" d="M 367.110891 222.616626 
L 367.110891 202.233783 
" style="fill:none;stroke:#1f77b4;stroke-width:1.5;"/>
    <path clip-path="url(#p6fa745a165)" d="M 370.39023 231.38354 
L 370.39023 211.000698 
" style="fill:none;stroke:#1f77b4;stroke-width:1.5;"/>
    <path clip-path="url(#p6fa745a165)" d="M 373.669569 229.189766 
L 373.669569 208.806923 
" style="fill:none;stroke:#1f77b4;stroke-width:1.5;"/>
    <path clip-path="url(#p6fa745a165)" d="M 376.948908 235.829868 
L 376.948908 215.447025 
" style="fill:none;stroke:#1f77b4;stroke-width:1.5;"/>
    <path clip-path="url(#p6fa745a165)" d="M 380.228246 239.675604 
L 380.228246 219.292762 
" style="fill:none;stroke:#1f77b4;stroke-width:1.5;"/>
    <path clip-path="url(#p6fa745a165)" d="M 383.507585 236.892962 
L 383.507585 216.510119 
" style="fill:none;stroke:#1f77b4;stroke-width:1.5;"/>
   </g>
   <g id="line2d_16">
    <path clip-path="url(#p6fa745a165)" d="M 58.85304 217.644399 
L 62.132379 217.644399 
L 65.411717 217.644399 
L 68.691056 217.644399 
L 71.970395 217.644399 
L 75.249734 217.644399 
L 78.529073 217.644399 
L 81.808412 217.644399 
L 85.087751 217.644399 
L 88.367089 217.644399 
L 91.646428 217.644399 
L 94.925767 217.644399 
L 98.205106 217.644399 
L 101.484445 217.644399 
L 104.763784 217.644399 
L 108.043122 217.644399 
L 111.322461 217.644399 
L 114.6018 217.644399 
L 117.881139 217.644399 
L 121.160478 217.644353 
L 124.439817 217.638441 
L 127.719155 217.340106 
L 130.998494 211.485264 
L 134.277833 168.232581 
L 137.557172 60.526426 
L 140.836511 19.626305 
L 144.11585 118.728101 
L 147.395189 198.059795 
L 150.674527 216.107499 
L 153.953866 217.596596 
L 157.233205 217.64381 
L 160.512544 217.644396 
L 163.791883 217.644399 
L 167.071222 217.644399 
L 170.35056 217.644399 
L 173.629899 217.644399 
L 176.909238 217.644399 
L 180.188577 217.644399 
L 183.467916 217.644399 
L 186.747255 217.644399 
L 190.026593 217.644399 
L 193.305932 217.644399 
L 196.585271 217.644399 
L 199.86461 217.644399 
L 203.143949 217.644399 
L 206.423288 217.644399 
L 209.702627 217.644399 
L 212.981965 217.644399 
L 216.261304 217.644399 
L 219.540643 217.644399 
L 222.819982 217.644399 
L 226.099321 217.644399 
L 229.37866 217.644399 
L 232.657998 217.644399 
L 235.937337 217.644399 
L 239.216676 217.644399 
L 242.496015 217.644399 
L 245.775354 217.644399 
L 249.054693 217.644399 
L 252.334032 217.644399 
L 255.61337 217.644399 
L 258.892709 217.644399 
L 262.172048 217.644399 
L 265.451387 217.644399 
L 268.730726 217.644399 
L 272.010065 217.644399 
L 275.289403 217.644399 
L 278.568742 217.644399 
L 281.848081 217.644399 
L 285.12742 217.644399 
L 288.406759 217.644399 
L 291.686098 217.644399 
L 294.965436 217.644399 
L 298.244775 217.644399 
L 301.524114 217.644399 
L 304.803453 217.644399 
L 308.082792 217.644399 
L 311.362131 217.644399 
L 314.64147 217.644399 
L 317.920808 217.644399 
L 321.200147 217.644399 
L 324.479486 217.644399 
L 327.758825 217.644399 
L 331.038164 217.644399 
L 334.317503 217.644399 
L 337.596841 217.644399 
L 340.87618 217.644399 
L 344.155519 217.644399 
L 347.434858 217.644399 
L 350.714197 217.644399 
L 353.993536 217.644399 
L 357.272874 217.644399 
L 360.552213 217.644399 
L 363.831552 217.644399 
L 367.110891 217.644399 
L 370.39023 217.644399 
L 373.669569 217.644399 
L 376.948908 217.644399 
L 380.228246 217.644399 
L 383.507585 217.644399 
" style="fill:none;stroke:#000000;stroke-dasharray:1.5,2.475;stroke-dashoffset:0;stroke-opacity:0.5;stroke-width:1.5;"/>
   </g>
   <g id="line2d_17">
    <defs>
     <path d="M -3 3 
L 3 -3 
M -3 -3 
L 3 3 
" id="m4fb1d3c367" style="stroke:#1f77b4;"/>
    </defs>
    <g clip-path="url(#p6fa745a165)">
     <use style="fill:#1f77b4;stroke:#1f77b4;" x="58.85304" xlink:href="#m4fb1d3c367" y="210.425551"/>
     <use style="fill:#1f77b4;stroke:#1f77b4;" x="62.132379" xlink:href="#m4fb1d3c367" y="211.012336"/>
     <use style="fill:#1f77b4;stroke:#1f77b4;" x="65.411717" xlink:href="#m4fb1d3c367" y="228.015433"/>
     <use style="fill:#1f77b4;stroke:#1f77b4;" x="68.691056" xlink:href="#m4fb1d3c367" y="220.021964"/>
     <use style="fill:#1f77b4;stroke:#1f77b4;" x="71.970395" xlink:href="#m4fb1d3c367" y="240.749587"/>
     <use style="fill:#1f77b4;stroke:#1f77b4;" x="75.249734" xlink:href="#m4fb1d3c367" y="221.181522"/>
     <use style="fill:#1f77b4;stroke:#1f77b4;" x="78.529073" xlink:href="#m4fb1d3c367" y="238.809594"/>
     <use style="fill:#1f77b4;stroke:#1f77b4;" x="81.808412" xlink:href="#m4fb1d3c367" y="220.376039"/>
     <use style="fill:#1f77b4;stroke:#1f77b4;" x="85.087751" xlink:href="#m4fb1d3c367" y="213.261296"/>
     <use style="fill:#1f77b4;stroke:#1f77b4;" x="88.367089" xlink:href="#m4fb1d3c367" y="216.866364"/>
     <use style="fill:#1f77b4;stroke:#1f77b4;" x="91.646428" xlink:href="#m4fb1d3c367" y="215.648377"/>
     <use style="fill:#1f77b4;stroke:#1f77b4;" x="94.925767" xlink:href="#m4fb1d3c367" y="217.514624"/>
     <use style="fill:#1f77b4;stroke:#1f77b4;" x="98.205106" xlink:href="#m4fb1d3c367" y="234.20907"/>
     <use style="fill:#1f77b4;stroke:#1f77b4;" x="101.484445" xlink:href="#m4fb1d3c367" y="215.316798"/>
     <use style="fill:#1f77b4;stroke:#1f77b4;" x="104.763784" xlink:href="#m4fb1d3c367" y="216.991335"/>
     <use style="fill:#1f77b4;stroke:#1f77b4;" x="108.043122" xlink:href="#m4fb1d3c367" y="208.935933"/>
     <use style="fill:#1f77b4;stroke:#1f77b4;" x="111.322461" xlink:href="#m4fb1d3c367" y="215.268604"/>
     <use style="fill:#1f77b4;stroke:#1f77b4;" x="114.6018" xlink:href="#m4fb1d3c367" y="214.298746"/>
     <use style="fill:#1f77b4;stroke:#1f77b4;" x="117.881139" xlink:href="#m4fb1d3c367" y="213.755474"/>
     <use style="fill:#1f77b4;stroke:#1f77b4;" x="121.160478" xlink:href="#m4fb1d3c367" y="209.2633"/>
     <use style="fill:#1f77b4;stroke:#1f77b4;" x="124.439817" xlink:href="#m4fb1d3c367" y="228.816218"/>
     <use style="fill:#1f77b4;stroke:#1f77b4;" x="127.719155" xlink:href="#m4fb1d3c367" y="221.979858"/>
     <use style="fill:#1f77b4;stroke:#1f77b4;" x="130.998494" xlink:href="#m4fb1d3c367" y="206.519666"/>
     <use style="fill:#1f77b4;stroke:#1f77b4;" x="134.277833" xlink:href="#m4fb1d3c367" y="171.426203"/>
     <use style="fill:#1f77b4;stroke:#1f77b4;" x="137.557172" xlink:href="#m4fb1d3c367" y="59.616865"/>
     <use style="fill:#1f77b4;stroke:#1f77b4;" x="140.836511" xlink:href="#m4fb1d3c367" y="29.487421"/>
     <use style="fill:#1f77b4;stroke:#1f77b4;" x="144.11585" xlink:href="#m4fb1d3c367" y="124.053587"/>
     <use style="fill:#1f77b4;stroke:#1f77b4;" x="147.395189" xlink:href="#m4fb1d3c367" y="189.426628"/>
     <use style="fill:#1f77b4;stroke:#1f77b4;" x="150.674527" xlink:href="#m4fb1d3c367" y="241.470947"/>
     <use style="fill:#1f77b4;stroke:#1f77b4;" x="153.953866" xlink:href="#m4fb1d3c367" y="234.842034"/>
     <use style="fill:#1f77b4;stroke:#1f77b4;" x="157.233205" xlink:href="#m4fb1d3c367" y="221.050166"/>
     <use style="fill:#1f77b4;stroke:#1f77b4;" x="160.512544" xlink:href="#m4fb1d3c367" y="206.877821"/>
     <use style="fill:#1f77b4;stroke:#1f77b4;" x="163.791883" xlink:href="#m4fb1d3c367" y="209.370399"/>
     <use style="fill:#1f77b4;stroke:#1f77b4;" x="167.071222" xlink:href="#m4fb1d3c367" y="207.562295"/>
     <use style="fill:#1f77b4;stroke:#1f77b4;" x="170.35056" xlink:href="#m4fb1d3c367" y="214.893109"/>
     <use style="fill:#1f77b4;stroke:#1f77b4;" x="173.629899" xlink:href="#m4fb1d3c367" y="220.260163"/>
     <use style="fill:#1f77b4;stroke:#1f77b4;" x="176.909238" xlink:href="#m4fb1d3c367" y="206.587795"/>
     <use style="fill:#1f77b4;stroke:#1f77b4;" x="180.188577" xlink:href="#m4fb1d3c367" y="203.844299"/>
     <use style="fill:#1f77b4;stroke:#1f77b4;" x="183.467916" xlink:href="#m4fb1d3c367" y="202.51631"/>
     <use style="fill:#1f77b4;stroke:#1f77b4;" x="186.747255" xlink:href="#m4fb1d3c367" y="220.279458"/>
     <use style="fill:#1f77b4;stroke:#1f77b4;" x="190.026593" xlink:href="#m4fb1d3c367" y="204.226116"/>
     <use style="fill:#1f77b4;stroke:#1f77b4;" x="193.305932" xlink:href="#m4fb1d3c367" y="222.862977"/>
     <use style="fill:#1f77b4;stroke:#1f77b4;" x="196.585271" xlink:href="#m4fb1d3c367" y="235.88175"/>
     <use style="fill:#1f77b4;stroke:#1f77b4;" x="199.86461" xlink:href="#m4fb1d3c367" y="227.833606"/>
     <use style="fill:#1f77b4;stroke:#1f77b4;" x="203.143949" xlink:href="#m4fb1d3c367" y="222.536371"/>
     <use style="fill:#1f77b4;stroke:#1f77b4;" x="206.423288" xlink:href="#m4fb1d3c367" y="224.135921"/>
     <use style="fill:#1f77b4;stroke:#1f77b4;" x="209.702627" xlink:href="#m4fb1d3c367" y="207.935403"/>
     <use style="fill:#1f77b4;stroke:#1f77b4;" x="212.981965" xlink:href="#m4fb1d3c367" y="211.223427"/>
     <use style="fill:#1f77b4;stroke:#1f77b4;" x="216.261304" xlink:href="#m4fb1d3c367" y="217.833087"/>
     <use style="fill:#1f77b4;stroke:#1f77b4;" x="219.540643" xlink:href="#m4fb1d3c367" y="221.073703"/>
     <use style="fill:#1f77b4;stroke:#1f77b4;" x="222.819982" xlink:href="#m4fb1d3c367" y="219.654157"/>
     <use style="fill:#1f77b4;stroke:#1f77b4;" x="226.099321" xlink:href="#m4fb1d3c367" y="227.799195"/>
     <use style="fill:#1f77b4;stroke:#1f77b4;" x="229.37866" xlink:href="#m4fb1d3c367" y="225.460529"/>
     <use style="fill:#1f77b4;stroke:#1f77b4;" x="232.657998" xlink:href="#m4fb1d3c367" y="219.640553"/>
     <use style="fill:#1f77b4;stroke:#1f77b4;" x="235.937337" xlink:href="#m4fb1d3c367" y="199.019236"/>
     <use style="fill:#1f77b4;stroke:#1f77b4;" x="239.216676" xlink:href="#m4fb1d3c367" y="228.442116"/>
     <use style="fill:#1f77b4;stroke:#1f77b4;" x="242.496015" xlink:href="#m4fb1d3c367" y="218.264666"/>
     <use style="fill:#1f77b4;stroke:#1f77b4;" x="245.775354" xlink:href="#m4fb1d3c367" y="220.231838"/>
     <use style="fill:#1f77b4;stroke:#1f77b4;" x="249.054693" xlink:href="#m4fb1d3c367" y="191.602123"/>
     <use style="fill:#1f77b4;stroke:#1f77b4;" x="252.334032" xlink:href="#m4fb1d3c367" y="223.771817"/>
     <use style="fill:#1f77b4;stroke:#1f77b4;" x="255.61337" xlink:href="#m4fb1d3c367" y="197.976657"/>
     <use style="fill:#1f77b4;stroke:#1f77b4;" x="258.892709" xlink:href="#m4fb1d3c367" y="194.750852"/>
     <use style="fill:#1f77b4;stroke:#1f77b4;" x="262.172048" xlink:href="#m4fb1d3c367" y="217.953647"/>
     <use style="fill:#1f77b4;stroke:#1f77b4;" x="265.451387" xlink:href="#m4fb1d3c367" y="187.802783"/>
     <use style="fill:#1f77b4;stroke:#1f77b4;" x="268.730726" xlink:href="#m4fb1d3c367" y="230.591661"/>
     <use style="fill:#1f77b4;stroke:#1f77b4;" x="272.010065" xlink:href="#m4fb1d3c367" y="225.461216"/>
     <use style="fill:#1f77b4;stroke:#1f77b4;" x="275.289403" xlink:href="#m4fb1d3c367" y="228.888689"/>
     <use style="fill:#1f77b4;stroke:#1f77b4;" x="278.568742" xlink:href="#m4fb1d3c367" y="211.808033"/>
     <use style="fill:#1f77b4;stroke:#1f77b4;" x="281.848081" xlink:href="#m4fb1d3c367" y="206.088048"/>
     <use style="fill:#1f77b4;stroke:#1f77b4;" x="285.12742" xlink:href="#m4fb1d3c367" y="224.75523"/>
     <use style="fill:#1f77b4;stroke:#1f77b4;" x="288.406759" xlink:href="#m4fb1d3c367" y="214.057098"/>
     <use style="fill:#1f77b4;stroke:#1f77b4;" x="291.686098" xlink:href="#m4fb1d3c367" y="216.429416"/>
     <use style="fill:#1f77b4;stroke:#1f77b4;" x="294.965436" xlink:href="#m4fb1d3c367" y="208.349659"/>
     <use style="fill:#1f77b4;stroke:#1f77b4;" x="298.244775" xlink:href="#m4fb1d3c367" y="210.093275"/>
     <use style="fill:#1f77b4;stroke:#1f77b4;" x="301.524114" xlink:href="#m4fb1d3c367" y="189.451131"/>
     <use style="fill:#1f77b4;stroke:#1f77b4;" x="304.803453" xlink:href="#m4fb1d3c367" y="218.841008"/>
     <use style="fill:#1f77b4;stroke:#1f77b4;" x="308.082792" xlink:href="#m4fb1d3c367" y="214.519316"/>
     <use style="fill:#1f77b4;stroke:#1f77b4;" x="311.362131" xlink:href="#m4fb1d3c367" y="215.105307"/>
     <use style="fill:#1f77b4;stroke:#1f77b4;" x="314.64147" xlink:href="#m4fb1d3c367" y="215.044632"/>
     <use style="fill:#1f77b4;stroke:#1f77b4;" x="317.920808" xlink:href="#m4fb1d3c367" y="206.972064"/>
     <use style="fill:#1f77b4;stroke:#1f77b4;" x="321.200147" xlink:href="#m4fb1d3c367" y="226.243717"/>
     <use style="fill:#1f77b4;stroke:#1f77b4;" x="324.479486" xlink:href="#m4fb1d3c367" y="222.791576"/>
     <use style="fill:#1f77b4;stroke:#1f77b4;" x="327.758825" xlink:href="#m4fb1d3c367" y="225.74677"/>
     <use style="fill:#1f77b4;stroke:#1f77b4;" x="331.038164" xlink:href="#m4fb1d3c367" y="251.024579"/>
     <use style="fill:#1f77b4;stroke:#1f77b4;" x="334.317503" xlink:href="#m4fb1d3c367" y="202.432698"/>
     <use style="fill:#1f77b4;stroke:#1f77b4;" x="337.596841" xlink:href="#m4fb1d3c367" y="206.18441"/>
     <use style="fill:#1f77b4;stroke:#1f77b4;" x="340.87618" xlink:href="#m4fb1d3c367" y="217.66422"/>
     <use style="fill:#1f77b4;stroke:#1f77b4;" x="344.155519" xlink:href="#m4fb1d3c367" y="222.940043"/>
     <use style="fill:#1f77b4;stroke:#1f77b4;" x="347.434858" xlink:href="#m4fb1d3c367" y="227.643471"/>
     <use style="fill:#1f77b4;stroke:#1f77b4;" x="350.714197" xlink:href="#m4fb1d3c367" y="230.486015"/>
     <use style="fill:#1f77b4;stroke:#1f77b4;" x="353.993536" xlink:href="#m4fb1d3c367" y="202.27799"/>
     <use style="fill:#1f77b4;stroke:#1f77b4;" x="357.272874" xlink:href="#m4fb1d3c367" y="191.049131"/>
     <use style="fill:#1f77b4;stroke:#1f77b4;" x="360.552213" xlink:href="#m4fb1d3c367" y="230.353639"/>
     <use style="fill:#1f77b4;stroke:#1f77b4;" x="363.831552" xlink:href="#m4fb1d3c367" y="222.802963"/>
     <use style="fill:#1f77b4;stroke:#1f77b4;" x="367.110891" xlink:href="#m4fb1d3c367" y="212.425205"/>
     <use style="fill:#1f77b4;stroke:#1f77b4;" x="370.39023" xlink:href="#m4fb1d3c367" y="221.192119"/>
     <use style="fill:#1f77b4;stroke:#1f77b4;" x="373.669569" xlink:href="#m4fb1d3c367" y="218.998344"/>
     <use style="fill:#1f77b4;stroke:#1f77b4;" x="376.948908" xlink:href="#m4fb1d3c367" y="225.638447"/>
     <use style="fill:#1f77b4;stroke:#1f77b4;" x="380.228246" xlink:href="#m4fb1d3c367" y="229.484183"/>
     <use style="fill:#1f77b4;stroke:#1f77b4;" x="383.507585" xlink:href="#m4fb1d3c367" y="226.701541"/>
    </g>
   </g>
   <g id="patch_3">
    <path d="M 42.620313 273.312 
L 42.620313 7.2 
" style="fill:none;stroke:#000000;stroke-linecap:square;stroke-linejoin:miter;stroke-width:0.8;"/>
   </g>
   <g id="patch_4">
    <path d="M 399.740313 273.312 
L 399.740313 7.2 
" style="fill:none;stroke:#000000;stroke-linecap:square;stroke-linejoin:miter;stroke-width:0.8;"/>
   </g>
   <g id="patch_5">
    <path d="M 42.620313 273.312 
L 399.740312 273.312 
" style="fill:none;stroke:#000000;stroke-linecap:square;stroke-linejoin:miter;stroke-width:0.8;"/>
   </g>
   <g id="patch_6">
    <path d="M 42.620313 7.2 
L 399.740312 7.2 
" style="fill:none;stroke:#000000;stroke-linecap:square;stroke-linejoin:miter;stroke-width:0.8;"/>
   </g>
  </g>
 </g>
 <defs>
  <clipPath id="p6fa745a165">
   <rect height="266.112" width="357.12" x="42.620313" y="7.2"/>
  </clipPath>
 </defs>
</svg>
