<?xml version="1.0" encoding="utf-8" standalone="no"?>
<!DOCTYPE svg PUBLIC "-//W3C//DTD SVG 1.1//EN"
  "http://www.w3.org/Graphics/SVG/1.1/DTD/svg11.dtd">
<!-- Created with matplotlib (https://matplotlib.org/) -->
<svg height="310.86825pt" version="1.1" viewBox="0 0 404.923125 310.86825" width="404.923125pt" xmlns="http://www.w3.org/2000/svg" xmlns:xlink="http://www.w3.org/1999/xlink">
 <metadata>
  <rdf:RDF xmlns:cc="http://creativecommons.org/ns#" xmlns:dc="http://purl.org/dc/elements/1.1/" xmlns:rdf="http://www.w3.org/1999/02/22-rdf-syntax-ns#">
   <cc:Work>
    <dc:type rdf:resource="http://purl.org/dc/dcmitype/StillImage"/>
    <dc:date>2020-12-01T14:38:28.665697</dc:date>
    <dc:format>image/svg+xml</dc:format>
    <dc:creator>
     <cc:Agent>
      <dc:title>Matplotlib v3.3.2, https://matplotlib.org/</dc:title>
     </cc:Agent>
    </dc:creator>
   </cc:Work>
  </rdf:RDF>
 </metadata>
 <defs>
  <style type="text/css">*{stroke-linecap:butt;stroke-linejoin:round;}</style>
 </defs>
 <g id="figure_1">
  <g id="patch_1">
   <path d="M 0 310.86825 
L 404.923125 310.86825 
L 404.923125 0 
L 0 0 
z
" style="fill:#ffffff;"/>
  </g>
  <g id="axes_1">
   <g id="patch_2">
    <path d="M 40.603125 273.312 
L 397.723125 273.312 
L 397.723125 7.2 
L 40.603125 7.2 
z
" style="fill:#ffffff;"/>
   </g>
   <g id="matplotlib.axis_1">
    <g id="xtick_1">
     <g id="line2d_1">
      <defs>
       <path d="M 0 0 
L 0 3.5 
" id="m8a4dacb29b" style="stroke:#000000;stroke-width:0.8;"/>
      </defs>
      <g>
       <use style="stroke:#000000;stroke-width:0.8;" x="56.835852" xlink:href="#m8a4dacb29b" y="273.312"/>
      </g>
     </g>
     <g id="text_1">
      <!-- 400 -->
      <g transform="translate(47.292102 287.910437)scale(0.1 -0.1)">
       <defs>
        <path d="M 37.796875 64.3125 
L 12.890625 25.390625 
L 37.796875 25.390625 
z
M 35.203125 72.90625 
L 47.609375 72.90625 
L 47.609375 25.390625 
L 58.015625 25.390625 
L 58.015625 17.1875 
L 47.609375 17.1875 
L 47.609375 0 
L 37.796875 0 
L 37.796875 17.1875 
L 4.890625 17.1875 
L 4.890625 26.703125 
z
" id="DejaVuSans-52"/>
        <path d="M 31.78125 66.40625 
Q 24.171875 66.40625 20.328125 58.90625 
Q 16.5 51.421875 16.5 36.375 
Q 16.5 21.390625 20.328125 13.890625 
Q 24.171875 6.390625 31.78125 6.390625 
Q 39.453125 6.390625 43.28125 13.890625 
Q 47.125 21.390625 47.125 36.375 
Q 47.125 51.421875 43.28125 58.90625 
Q 39.453125 66.40625 31.78125 66.40625 
z
M 31.78125 74.21875 
Q 44.046875 74.21875 50.515625 64.515625 
Q 56.984375 54.828125 56.984375 36.375 
Q 56.984375 17.96875 50.515625 8.265625 
Q 44.046875 -1.421875 31.78125 -1.421875 
Q 19.53125 -1.421875 13.0625 8.265625 
Q 6.59375 17.96875 6.59375 36.375 
Q 6.59375 54.828125 13.0625 64.515625 
Q 19.53125 74.21875 31.78125 74.21875 
z
" id="DejaVuSans-48"/>
       </defs>
       <use xlink:href="#DejaVuSans-52"/>
       <use x="63.623047" xlink:href="#DejaVuSans-48"/>
       <use x="127.246094" xlink:href="#DejaVuSans-48"/>
      </g>
     </g>
    </g>
    <g id="xtick_2">
     <g id="line2d_2">
      <g>
       <use style="stroke:#000000;stroke-width:0.8;" x="97.41767" xlink:href="#m8a4dacb29b" y="273.312"/>
      </g>
     </g>
     <g id="text_2">
      <!-- 450 -->
      <g transform="translate(87.87392 287.910437)scale(0.1 -0.1)">
       <defs>
        <path d="M 10.796875 72.90625 
L 49.515625 72.90625 
L 49.515625 64.59375 
L 19.828125 64.59375 
L 19.828125 46.734375 
Q 21.96875 47.46875 24.109375 47.828125 
Q 26.265625 48.1875 28.421875 48.1875 
Q 40.625 48.1875 47.75 41.5 
Q 54.890625 34.8125 54.890625 23.390625 
Q 54.890625 11.625 47.5625 5.09375 
Q 40.234375 -1.421875 26.90625 -1.421875 
Q 22.3125 -1.421875 17.546875 -0.640625 
Q 12.796875 0.140625 7.71875 1.703125 
L 7.71875 11.625 
Q 12.109375 9.234375 16.796875 8.0625 
Q 21.484375 6.890625 26.703125 6.890625 
Q 35.15625 6.890625 40.078125 11.328125 
Q 45.015625 15.765625 45.015625 23.390625 
Q 45.015625 31 40.078125 35.4375 
Q 35.15625 39.890625 26.703125 39.890625 
Q 22.75 39.890625 18.8125 39.015625 
Q 14.890625 38.140625 10.796875 36.28125 
z
" id="DejaVuSans-53"/>
       </defs>
       <use xlink:href="#DejaVuSans-52"/>
       <use x="63.623047" xlink:href="#DejaVuSans-53"/>
       <use x="127.246094" xlink:href="#DejaVuSans-48"/>
      </g>
     </g>
    </g>
    <g id="xtick_3">
     <g id="line2d_3">
      <g>
       <use style="stroke:#000000;stroke-width:0.8;" x="137.999489" xlink:href="#m8a4dacb29b" y="273.312"/>
      </g>
     </g>
     <g id="text_3">
      <!-- 500 -->
      <g transform="translate(128.455739 287.910437)scale(0.1 -0.1)">
       <use xlink:href="#DejaVuSans-53"/>
       <use x="63.623047" xlink:href="#DejaVuSans-48"/>
       <use x="127.246094" xlink:href="#DejaVuSans-48"/>
      </g>
     </g>
    </g>
    <g id="xtick_4">
     <g id="line2d_4">
      <g>
       <use style="stroke:#000000;stroke-width:0.8;" x="178.581307" xlink:href="#m8a4dacb29b" y="273.312"/>
      </g>
     </g>
     <g id="text_4">
      <!-- 550 -->
      <g transform="translate(169.037557 287.910437)scale(0.1 -0.1)">
       <use xlink:href="#DejaVuSans-53"/>
       <use x="63.623047" xlink:href="#DejaVuSans-53"/>
       <use x="127.246094" xlink:href="#DejaVuSans-48"/>
      </g>
     </g>
    </g>
    <g id="xtick_5">
     <g id="line2d_5">
      <g>
       <use style="stroke:#000000;stroke-width:0.8;" x="219.163125" xlink:href="#m8a4dacb29b" y="273.312"/>
      </g>
     </g>
     <g id="text_5">
      <!-- 600 -->
      <g transform="translate(209.619375 287.910437)scale(0.1 -0.1)">
       <defs>
        <path d="M 33.015625 40.375 
Q 26.375 40.375 22.484375 35.828125 
Q 18.609375 31.296875 18.609375 23.390625 
Q 18.609375 15.53125 22.484375 10.953125 
Q 26.375 6.390625 33.015625 6.390625 
Q 39.65625 6.390625 43.53125 10.953125 
Q 47.40625 15.53125 47.40625 23.390625 
Q 47.40625 31.296875 43.53125 35.828125 
Q 39.65625 40.375 33.015625 40.375 
z
M 52.59375 71.296875 
L 52.59375 62.3125 
Q 48.875 64.0625 45.09375 64.984375 
Q 41.3125 65.921875 37.59375 65.921875 
Q 27.828125 65.921875 22.671875 59.328125 
Q 17.53125 52.734375 16.796875 39.40625 
Q 19.671875 43.65625 24.015625 45.921875 
Q 28.375 48.1875 33.59375 48.1875 
Q 44.578125 48.1875 50.953125 41.515625 
Q 57.328125 34.859375 57.328125 23.390625 
Q 57.328125 12.15625 50.6875 5.359375 
Q 44.046875 -1.421875 33.015625 -1.421875 
Q 20.359375 -1.421875 13.671875 8.265625 
Q 6.984375 17.96875 6.984375 36.375 
Q 6.984375 53.65625 15.1875 63.9375 
Q 23.390625 74.21875 37.203125 74.21875 
Q 40.921875 74.21875 44.703125 73.484375 
Q 48.484375 72.75 52.59375 71.296875 
z
" id="DejaVuSans-54"/>
       </defs>
       <use xlink:href="#DejaVuSans-54"/>
       <use x="63.623047" xlink:href="#DejaVuSans-48"/>
       <use x="127.246094" xlink:href="#DejaVuSans-48"/>
      </g>
     </g>
    </g>
    <g id="xtick_6">
     <g id="line2d_6">
      <g>
       <use style="stroke:#000000;stroke-width:0.8;" x="259.744943" xlink:href="#m8a4dacb29b" y="273.312"/>
      </g>
     </g>
     <g id="text_6">
      <!-- 650 -->
      <g transform="translate(250.201193 287.910437)scale(0.1 -0.1)">
       <use xlink:href="#DejaVuSans-54"/>
       <use x="63.623047" xlink:href="#DejaVuSans-53"/>
       <use x="127.246094" xlink:href="#DejaVuSans-48"/>
      </g>
     </g>
    </g>
    <g id="xtick_7">
     <g id="line2d_7">
      <g>
       <use style="stroke:#000000;stroke-width:0.8;" x="300.326761" xlink:href="#m8a4dacb29b" y="273.312"/>
      </g>
     </g>
     <g id="text_7">
      <!-- 700 -->
      <g transform="translate(290.783011 287.910437)scale(0.1 -0.1)">
       <defs>
        <path d="M 8.203125 72.90625 
L 55.078125 72.90625 
L 55.078125 68.703125 
L 28.609375 0 
L 18.3125 0 
L 43.21875 64.59375 
L 8.203125 64.59375 
z
" id="DejaVuSans-55"/>
       </defs>
       <use xlink:href="#DejaVuSans-55"/>
       <use x="63.623047" xlink:href="#DejaVuSans-48"/>
       <use x="127.246094" xlink:href="#DejaVuSans-48"/>
      </g>
     </g>
    </g>
    <g id="xtick_8">
     <g id="line2d_8">
      <g>
       <use style="stroke:#000000;stroke-width:0.8;" x="340.90858" xlink:href="#m8a4dacb29b" y="273.312"/>
      </g>
     </g>
     <g id="text_8">
      <!-- 750 -->
      <g transform="translate(331.36483 287.910437)scale(0.1 -0.1)">
       <use xlink:href="#DejaVuSans-55"/>
       <use x="63.623047" xlink:href="#DejaVuSans-53"/>
       <use x="127.246094" xlink:href="#DejaVuSans-48"/>
      </g>
     </g>
    </g>
    <g id="xtick_9">
     <g id="line2d_9">
      <g>
       <use style="stroke:#000000;stroke-width:0.8;" x="381.490398" xlink:href="#m8a4dacb29b" y="273.312"/>
      </g>
     </g>
     <g id="text_9">
      <!-- 800 -->
      <g transform="translate(371.946648 287.910437)scale(0.1 -0.1)">
       <defs>
        <path d="M 31.78125 34.625 
Q 24.75 34.625 20.71875 30.859375 
Q 16.703125 27.09375 16.703125 20.515625 
Q 16.703125 13.921875 20.71875 10.15625 
Q 24.75 6.390625 31.78125 6.390625 
Q 38.8125 6.390625 42.859375 10.171875 
Q 46.921875 13.96875 46.921875 20.515625 
Q 46.921875 27.09375 42.890625 30.859375 
Q 38.875 34.625 31.78125 34.625 
z
M 21.921875 38.8125 
Q 15.578125 40.375 12.03125 44.71875 
Q 8.5 49.078125 8.5 55.328125 
Q 8.5 64.0625 14.71875 69.140625 
Q 20.953125 74.21875 31.78125 74.21875 
Q 42.671875 74.21875 48.875 69.140625 
Q 55.078125 64.0625 55.078125 55.328125 
Q 55.078125 49.078125 51.53125 44.71875 
Q 48 40.375 41.703125 38.8125 
Q 48.828125 37.15625 52.796875 32.3125 
Q 56.78125 27.484375 56.78125 20.515625 
Q 56.78125 9.90625 50.3125 4.234375 
Q 43.84375 -1.421875 31.78125 -1.421875 
Q 19.734375 -1.421875 13.25 4.234375 
Q 6.78125 9.90625 6.78125 20.515625 
Q 6.78125 27.484375 10.78125 32.3125 
Q 14.796875 37.15625 21.921875 38.8125 
z
M 18.3125 54.390625 
Q 18.3125 48.734375 21.84375 45.5625 
Q 25.390625 42.390625 31.78125 42.390625 
Q 38.140625 42.390625 41.71875 45.5625 
Q 45.3125 48.734375 45.3125 54.390625 
Q 45.3125 60.0625 41.71875 63.234375 
Q 38.140625 66.40625 31.78125 66.40625 
Q 25.390625 66.40625 21.84375 63.234375 
Q 18.3125 60.0625 18.3125 54.390625 
z
" id="DejaVuSans-56"/>
       </defs>
       <use xlink:href="#DejaVuSans-56"/>
       <use x="63.623047" xlink:href="#DejaVuSans-48"/>
       <use x="127.246094" xlink:href="#DejaVuSans-48"/>
      </g>
     </g>
    </g>
    <g id="text_10">
     <!-- x -->
     <g transform="translate(216.20375 301.588562)scale(0.1 -0.1)">
      <defs>
       <path d="M 54.890625 54.6875 
L 35.109375 28.078125 
L 55.90625 0 
L 45.3125 0 
L 29.390625 21.484375 
L 13.484375 0 
L 2.875 0 
L 24.125 28.609375 
L 4.6875 54.6875 
L 15.28125 54.6875 
L 29.78125 35.203125 
L 44.28125 54.6875 
z
" id="DejaVuSans-120"/>
      </defs>
      <use xlink:href="#DejaVuSans-120"/>
     </g>
    </g>
   </g>
   <g id="matplotlib.axis_2">
    <g id="ytick_1">
     <g id="line2d_10">
      <defs>
       <path d="M 0 0 
L -3.5 0 
" id="m42fc4dccf6" style="stroke:#000000;stroke-width:0.8;"/>
      </defs>
      <g>
       <use style="stroke:#000000;stroke-width:0.8;" x="40.603125" xlink:href="#m42fc4dccf6" y="227.64436"/>
      </g>
     </g>
     <g id="text_11">
      <!-- 0 -->
      <g transform="translate(27.240625 231.443579)scale(0.1 -0.1)">
       <use xlink:href="#DejaVuSans-48"/>
      </g>
     </g>
    </g>
    <g id="ytick_2">
     <g id="line2d_11">
      <g>
       <use style="stroke:#000000;stroke-width:0.8;" x="40.603125" xlink:href="#m42fc4dccf6" y="179.196155"/>
      </g>
     </g>
     <g id="text_12">
      <!-- 5 -->
      <g transform="translate(27.240625 182.995373)scale(0.1 -0.1)">
       <use xlink:href="#DejaVuSans-53"/>
      </g>
     </g>
    </g>
    <g id="ytick_3">
     <g id="line2d_12">
      <g>
       <use style="stroke:#000000;stroke-width:0.8;" x="40.603125" xlink:href="#m42fc4dccf6" y="130.747949"/>
      </g>
     </g>
     <g id="text_13">
      <!-- 10 -->
      <g transform="translate(20.878125 134.547168)scale(0.1 -0.1)">
       <defs>
        <path d="M 12.40625 8.296875 
L 28.515625 8.296875 
L 28.515625 63.921875 
L 10.984375 60.40625 
L 10.984375 69.390625 
L 28.421875 72.90625 
L 38.28125 72.90625 
L 38.28125 8.296875 
L 54.390625 8.296875 
L 54.390625 0 
L 12.40625 0 
z
" id="DejaVuSans-49"/>
       </defs>
       <use xlink:href="#DejaVuSans-49"/>
       <use x="63.623047" xlink:href="#DejaVuSans-48"/>
      </g>
     </g>
    </g>
    <g id="ytick_4">
     <g id="line2d_13">
      <g>
       <use style="stroke:#000000;stroke-width:0.8;" x="40.603125" xlink:href="#m42fc4dccf6" y="82.299744"/>
      </g>
     </g>
     <g id="text_14">
      <!-- 15 -->
      <g transform="translate(20.878125 86.098963)scale(0.1 -0.1)">
       <use xlink:href="#DejaVuSans-49"/>
       <use x="63.623047" xlink:href="#DejaVuSans-53"/>
      </g>
     </g>
    </g>
    <g id="ytick_5">
     <g id="line2d_14">
      <g>
       <use style="stroke:#000000;stroke-width:0.8;" x="40.603125" xlink:href="#m42fc4dccf6" y="33.851538"/>
      </g>
     </g>
     <g id="text_15">
      <!-- 20 -->
      <g transform="translate(20.878125 37.650757)scale(0.1 -0.1)">
       <defs>
        <path d="M 19.1875 8.296875 
L 53.609375 8.296875 
L 53.609375 0 
L 7.328125 0 
L 7.328125 8.296875 
Q 12.9375 14.109375 22.625 23.890625 
Q 32.328125 33.6875 34.8125 36.53125 
Q 39.546875 41.84375 41.421875 45.53125 
Q 43.3125 49.21875 43.3125 52.78125 
Q 43.3125 58.59375 39.234375 62.25 
Q 35.15625 65.921875 28.609375 65.921875 
Q 23.96875 65.921875 18.8125 64.3125 
Q 13.671875 62.703125 7.8125 59.421875 
L 7.8125 69.390625 
Q 13.765625 71.78125 18.9375 73 
Q 24.125 74.21875 28.421875 74.21875 
Q 39.75 74.21875 46.484375 68.546875 
Q 53.21875 62.890625 53.21875 53.421875 
Q 53.21875 48.921875 51.53125 44.890625 
Q 49.859375 40.875 45.40625 35.40625 
Q 44.1875 33.984375 37.640625 27.21875 
Q 31.109375 20.453125 19.1875 8.296875 
z
" id="DejaVuSans-50"/>
       </defs>
       <use xlink:href="#DejaVuSans-50"/>
       <use x="63.623047" xlink:href="#DejaVuSans-48"/>
      </g>
     </g>
    </g>
    <g id="text_16">
     <!-- y -->
     <g transform="translate(14.798438 143.215375)rotate(-90)scale(0.1 -0.1)">
      <defs>
       <path d="M 32.171875 -5.078125 
Q 28.375 -14.84375 24.75 -17.8125 
Q 21.140625 -20.796875 15.09375 -20.796875 
L 7.90625 -20.796875 
L 7.90625 -13.28125 
L 13.1875 -13.28125 
Q 16.890625 -13.28125 18.9375 -11.515625 
Q 21 -9.765625 23.484375 -3.21875 
L 25.09375 0.875 
L 2.984375 54.6875 
L 12.5 54.6875 
L 29.59375 11.921875 
L 46.6875 54.6875 
L 56.203125 54.6875 
z
" id="DejaVuSans-121"/>
      </defs>
      <use xlink:href="#DejaVuSans-121"/>
     </g>
    </g>
   </g>
   <g id="LineCollection_1">
    <path clip-path="url(#pc91773afcf)" d="M 56.835852 245.492219 
L 56.835852 226.112937 
" style="fill:none;stroke:#1f77b4;stroke-width:1.5;"/>
    <path clip-path="url(#pc91773afcf)" d="M 60.115191 242.794249 
L 60.115191 223.414967 
" style="fill:none;stroke:#1f77b4;stroke-width:1.5;"/>
    <path clip-path="url(#pc91773afcf)" d="M 63.39453 250.97139 
L 63.39453 231.592108 
" style="fill:none;stroke:#1f77b4;stroke-width:1.5;"/>
    <path clip-path="url(#pc91773afcf)" d="M 66.673869 256.902664 
L 66.673869 237.523382 
" style="fill:none;stroke:#1f77b4;stroke-width:1.5;"/>
    <path clip-path="url(#pc91773afcf)" d="M 69.953208 239.068775 
L 69.953208 219.689492 
" style="fill:none;stroke:#1f77b4;stroke-width:1.5;"/>
    <path clip-path="url(#pc91773afcf)" d="M 73.232546 220.175833 
L 73.232546 200.796551 
" style="fill:none;stroke:#1f77b4;stroke-width:1.5;"/>
    <path clip-path="url(#pc91773afcf)" d="M 76.511885 237.19924 
L 76.511885 217.819958 
" style="fill:none;stroke:#1f77b4;stroke-width:1.5;"/>
    <path clip-path="url(#pc91773afcf)" d="M 79.791224 248.317527 
L 79.791224 228.938245 
" style="fill:none;stroke:#1f77b4;stroke-width:1.5;"/>
    <path clip-path="url(#pc91773afcf)" d="M 83.070563 232.454842 
L 83.070563 213.07556 
" style="fill:none;stroke:#1f77b4;stroke-width:1.5;"/>
    <path clip-path="url(#pc91773afcf)" d="M 86.349902 234.898864 
L 86.349902 215.519582 
" style="fill:none;stroke:#1f77b4;stroke-width:1.5;"/>
    <path clip-path="url(#pc91773afcf)" d="M 89.629241 246.115431 
L 89.629241 226.736149 
" style="fill:none;stroke:#1f77b4;stroke-width:1.5;"/>
    <path clip-path="url(#pc91773afcf)" d="M 92.90858 223.771163 
L 92.90858 204.391881 
" style="fill:none;stroke:#1f77b4;stroke-width:1.5;"/>
    <path clip-path="url(#pc91773afcf)" d="M 96.187918 219.418433 
L 96.187918 200.039151 
" style="fill:none;stroke:#1f77b4;stroke-width:1.5;"/>
    <path clip-path="url(#pc91773afcf)" d="M 99.467257 232.216732 
L 99.467257 212.83745 
" style="fill:none;stroke:#1f77b4;stroke-width:1.5;"/>
    <path clip-path="url(#pc91773afcf)" d="M 102.746596 233.760255 
L 102.746596 214.380973 
" style="fill:none;stroke:#1f77b4;stroke-width:1.5;"/>
    <path clip-path="url(#pc91773afcf)" d="M 106.025935 221.433803 
L 106.025935 202.054521 
" style="fill:none;stroke:#1f77b4;stroke-width:1.5;"/>
    <path clip-path="url(#pc91773afcf)" d="M 109.305274 230.680099 
L 109.305274 211.300817 
" style="fill:none;stroke:#1f77b4;stroke-width:1.5;"/>
    <path clip-path="url(#pc91773afcf)" d="M 112.584613 235.880484 
L 112.584613 216.501202 
" style="fill:none;stroke:#1f77b4;stroke-width:1.5;"/>
    <path clip-path="url(#pc91773afcf)" d="M 115.863951 242.589355 
L 115.863951 223.210073 
" style="fill:none;stroke:#1f77b4;stroke-width:1.5;"/>
    <path clip-path="url(#pc91773afcf)" d="M 119.14329 242.061882 
L 119.14329 222.6826 
" style="fill:none;stroke:#1f77b4;stroke-width:1.5;"/>
    <path clip-path="url(#pc91773afcf)" d="M 122.422629 244.523383 
L 122.422629 225.144101 
" style="fill:none;stroke:#1f77b4;stroke-width:1.5;"/>
    <path clip-path="url(#pc91773afcf)" d="M 125.701968 232.968567 
L 125.701968 213.589284 
" style="fill:none;stroke:#1f77b4;stroke-width:1.5;"/>
    <path clip-path="url(#pc91773afcf)" d="M 128.981307 218.199747 
L 128.981307 198.820464 
" style="fill:none;stroke:#1f77b4;stroke-width:1.5;"/>
    <path clip-path="url(#pc91773afcf)" d="M 132.260646 193.30392 
L 132.260646 173.924637 
" style="fill:none;stroke:#1f77b4;stroke-width:1.5;"/>
    <path clip-path="url(#pc91773afcf)" d="M 135.539985 88.681633 
L 135.539985 69.302351 
" style="fill:none;stroke:#1f77b4;stroke-width:1.5;"/>
    <path clip-path="url(#pc91773afcf)" d="M 138.819323 38.675282 
L 138.819323 19.296 
" style="fill:none;stroke:#1f77b4;stroke-width:1.5;"/>
    <path clip-path="url(#pc91773afcf)" d="M 142.098662 146.013886 
L 142.098662 126.634604 
" style="fill:none;stroke:#1f77b4;stroke-width:1.5;"/>
    <path clip-path="url(#pc91773afcf)" d="M 145.378001 231.324322 
L 145.378001 211.94504 
" style="fill:none;stroke:#1f77b4;stroke-width:1.5;"/>
    <path clip-path="url(#pc91773afcf)" d="M 148.65734 237.486298 
L 148.65734 218.107016 
" style="fill:none;stroke:#1f77b4;stroke-width:1.5;"/>
    <path clip-path="url(#pc91773afcf)" d="M 151.936679 222.568748 
L 151.936679 203.189465 
" style="fill:none;stroke:#1f77b4;stroke-width:1.5;"/>
    <path clip-path="url(#pc91773afcf)" d="M 155.216018 244.340114 
L 155.216018 224.960831 
" style="fill:none;stroke:#1f77b4;stroke-width:1.5;"/>
    <path clip-path="url(#pc91773afcf)" d="M 158.495356 243.703878 
L 158.495356 224.324596 
" style="fill:none;stroke:#1f77b4;stroke-width:1.5;"/>
    <path clip-path="url(#pc91773afcf)" d="M 161.774695 240.111473 
L 161.774695 220.732191 
" style="fill:none;stroke:#1f77b4;stroke-width:1.5;"/>
    <path clip-path="url(#pc91773afcf)" d="M 165.054034 254.797455 
L 165.054034 235.418172 
" style="fill:none;stroke:#1f77b4;stroke-width:1.5;"/>
    <path clip-path="url(#pc91773afcf)" d="M 168.333373 237.979802 
L 168.333373 218.60052 
" style="fill:none;stroke:#1f77b4;stroke-width:1.5;"/>
    <path clip-path="url(#pc91773afcf)" d="M 171.612712 244.314557 
L 171.612712 224.935275 
" style="fill:none;stroke:#1f77b4;stroke-width:1.5;"/>
    <path clip-path="url(#pc91773afcf)" d="M 174.892051 231.185152 
L 174.892051 211.80587 
" style="fill:none;stroke:#1f77b4;stroke-width:1.5;"/>
    <path clip-path="url(#pc91773afcf)" d="M 178.171389 212.262437 
L 178.171389 192.883154 
" style="fill:none;stroke:#1f77b4;stroke-width:1.5;"/>
    <path clip-path="url(#pc91773afcf)" d="M 181.450728 223.546264 
L 181.450728 204.166982 
" style="fill:none;stroke:#1f77b4;stroke-width:1.5;"/>
    <path clip-path="url(#pc91773afcf)" d="M 184.730067 251.707783 
L 184.730067 232.328501 
" style="fill:none;stroke:#1f77b4;stroke-width:1.5;"/>
    <path clip-path="url(#pc91773afcf)" d="M 188.009406 245.425349 
L 188.009406 226.046067 
" style="fill:none;stroke:#1f77b4;stroke-width:1.5;"/>
    <path clip-path="url(#pc91773afcf)" d="M 191.288745 234.21515 
L 191.288745 214.835868 
" style="fill:none;stroke:#1f77b4;stroke-width:1.5;"/>
    <path clip-path="url(#pc91773afcf)" d="M 194.568084 236.357538 
L 194.568084 216.978256 
" style="fill:none;stroke:#1f77b4;stroke-width:1.5;"/>
    <path clip-path="url(#pc91773afcf)" d="M 197.847423 226.387413 
L 197.847423 207.008131 
" style="fill:none;stroke:#1f77b4;stroke-width:1.5;"/>
    <path clip-path="url(#pc91773afcf)" d="M 201.126761 257.151806 
L 201.126761 237.772524 
" style="fill:none;stroke:#1f77b4;stroke-width:1.5;"/>
    <path clip-path="url(#pc91773afcf)" d="M 204.4061 237.830529 
L 204.4061 218.451246 
" style="fill:none;stroke:#1f77b4;stroke-width:1.5;"/>
    <path clip-path="url(#pc91773afcf)" d="M 207.685439 236.372787 
L 207.685439 216.993505 
" style="fill:none;stroke:#1f77b4;stroke-width:1.5;"/>
    <path clip-path="url(#pc91773afcf)" d="M 210.964778 215.230198 
L 210.964778 195.850916 
" style="fill:none;stroke:#1f77b4;stroke-width:1.5;"/>
    <path clip-path="url(#pc91773afcf)" d="M 214.244117 249.976317 
L 214.244117 230.597035 
" style="fill:none;stroke:#1f77b4;stroke-width:1.5;"/>
    <path clip-path="url(#pc91773afcf)" d="M 217.523456 251.220408 
L 217.523456 231.841126 
" style="fill:none;stroke:#1f77b4;stroke-width:1.5;"/>
    <path clip-path="url(#pc91773afcf)" d="M 220.802794 223.626578 
L 220.802794 204.247296 
" style="fill:none;stroke:#1f77b4;stroke-width:1.5;"/>
    <path clip-path="url(#pc91773afcf)" d="M 224.082133 250.687816 
L 224.082133 231.308534 
" style="fill:none;stroke:#1f77b4;stroke-width:1.5;"/>
    <path clip-path="url(#pc91773afcf)" d="M 227.361472 242.743474 
L 227.361472 223.364191 
" style="fill:none;stroke:#1f77b4;stroke-width:1.5;"/>
    <path clip-path="url(#pc91773afcf)" d="M 230.640811 223.825372 
L 230.640811 204.44609 
" style="fill:none;stroke:#1f77b4;stroke-width:1.5;"/>
    <path clip-path="url(#pc91773afcf)" d="M 233.92015 226.974634 
L 233.92015 207.595352 
" style="fill:none;stroke:#1f77b4;stroke-width:1.5;"/>
    <path clip-path="url(#pc91773afcf)" d="M 237.199489 232.724636 
L 237.199489 213.345354 
" style="fill:none;stroke:#1f77b4;stroke-width:1.5;"/>
    <path clip-path="url(#pc91773afcf)" d="M 240.478827 229.943703 
L 240.478827 210.564421 
" style="fill:none;stroke:#1f77b4;stroke-width:1.5;"/>
    <path clip-path="url(#pc91773afcf)" d="M 243.758166 223.815057 
L 243.758166 204.435774 
" style="fill:none;stroke:#1f77b4;stroke-width:1.5;"/>
    <path clip-path="url(#pc91773afcf)" d="M 247.037505 239.479085 
L 247.037505 220.099803 
" style="fill:none;stroke:#1f77b4;stroke-width:1.5;"/>
    <path clip-path="url(#pc91773afcf)" d="M 250.316844 240.310377 
L 250.316844 220.931094 
" style="fill:none;stroke:#1f77b4;stroke-width:1.5;"/>
    <path clip-path="url(#pc91773afcf)" d="M 253.596183 240.351507 
L 253.596183 220.972225 
" style="fill:none;stroke:#1f77b4;stroke-width:1.5;"/>
    <path clip-path="url(#pc91773afcf)" d="M 256.875522 254.6414 
L 256.875522 235.262118 
" style="fill:none;stroke:#1f77b4;stroke-width:1.5;"/>
    <path clip-path="url(#pc91773afcf)" d="M 260.154861 235.387024 
L 260.154861 216.007741 
" style="fill:none;stroke:#1f77b4;stroke-width:1.5;"/>
    <path clip-path="url(#pc91773afcf)" d="M 263.434199 227.055215 
L 263.434199 207.675933 
" style="fill:none;stroke:#1f77b4;stroke-width:1.5;"/>
    <path clip-path="url(#pc91773afcf)" d="M 266.713538 252.612272 
L 266.713538 233.23299 
" style="fill:none;stroke:#1f77b4;stroke-width:1.5;"/>
    <path clip-path="url(#pc91773afcf)" d="M 269.992877 227.510644 
L 269.992877 208.131361 
" style="fill:none;stroke:#1f77b4;stroke-width:1.5;"/>
    <path clip-path="url(#pc91773afcf)" d="M 273.272216 221.445933 
L 273.272216 202.066651 
" style="fill:none;stroke:#1f77b4;stroke-width:1.5;"/>
    <path clip-path="url(#pc91773afcf)" d="M 276.551555 247.034686 
L 276.551555 227.655403 
" style="fill:none;stroke:#1f77b4;stroke-width:1.5;"/>
    <path clip-path="url(#pc91773afcf)" d="M 279.830894 220.381616 
L 279.830894 201.002334 
" style="fill:none;stroke:#1f77b4;stroke-width:1.5;"/>
    <path clip-path="url(#pc91773afcf)" d="M 283.110232 234.147265 
L 283.110232 214.767983 
" style="fill:none;stroke:#1f77b4;stroke-width:1.5;"/>
    <path clip-path="url(#pc91773afcf)" d="M 286.389571 218.791881 
L 286.389571 199.412599 
" style="fill:none;stroke:#1f77b4;stroke-width:1.5;"/>
    <path clip-path="url(#pc91773afcf)" d="M 289.66891 233.275922 
L 289.66891 213.89664 
" style="fill:none;stroke:#1f77b4;stroke-width:1.5;"/>
    <path clip-path="url(#pc91773afcf)" d="M 292.948249 232.746339 
L 292.948249 213.367057 
" style="fill:none;stroke:#1f77b4;stroke-width:1.5;"/>
    <path clip-path="url(#pc91773afcf)" d="M 296.227588 230.965424 
L 296.227588 211.586142 
" style="fill:none;stroke:#1f77b4;stroke-width:1.5;"/>
    <path clip-path="url(#pc91773afcf)" d="M 299.506927 239.102935 
L 299.506927 219.723652 
" style="fill:none;stroke:#1f77b4;stroke-width:1.5;"/>
    <path clip-path="url(#pc91773afcf)" d="M 302.786265 225.579678 
L 302.786265 206.200396 
" style="fill:none;stroke:#1f77b4;stroke-width:1.5;"/>
    <path clip-path="url(#pc91773afcf)" d="M 306.065604 231.553284 
L 306.065604 212.174002 
" style="fill:none;stroke:#1f77b4;stroke-width:1.5;"/>
    <path clip-path="url(#pc91773afcf)" d="M 309.344943 261.216 
L 309.344943 241.836718 
" style="fill:none;stroke:#1f77b4;stroke-width:1.5;"/>
    <path clip-path="url(#pc91773afcf)" d="M 312.624282 243.679754 
L 312.624282 224.300472 
" style="fill:none;stroke:#1f77b4;stroke-width:1.5;"/>
    <path clip-path="url(#pc91773afcf)" d="M 315.903621 245.418969 
L 315.903621 226.039687 
" style="fill:none;stroke:#1f77b4;stroke-width:1.5;"/>
    <path clip-path="url(#pc91773afcf)" d="M 319.18296 236.882325 
L 319.18296 217.503043 
" style="fill:none;stroke:#1f77b4;stroke-width:1.5;"/>
    <path clip-path="url(#pc91773afcf)" d="M 322.462299 259.030373 
L 322.462299 239.651091 
" style="fill:none;stroke:#1f77b4;stroke-width:1.5;"/>
    <path clip-path="url(#pc91773afcf)" d="M 325.741637 239.136694 
L 325.741637 219.757411 
" style="fill:none;stroke:#1f77b4;stroke-width:1.5;"/>
    <path clip-path="url(#pc91773afcf)" d="M 329.020976 229.611943 
L 329.020976 210.232661 
" style="fill:none;stroke:#1f77b4;stroke-width:1.5;"/>
    <path clip-path="url(#pc91773afcf)" d="M 332.300315 234.389959 
L 332.300315 215.010677 
" style="fill:none;stroke:#1f77b4;stroke-width:1.5;"/>
    <path clip-path="url(#pc91773afcf)" d="M 335.579654 259.877595 
L 335.579654 240.498313 
" style="fill:none;stroke:#1f77b4;stroke-width:1.5;"/>
    <path clip-path="url(#pc91773afcf)" d="M 338.858993 246.011947 
L 338.858993 226.632665 
" style="fill:none;stroke:#1f77b4;stroke-width:1.5;"/>
    <path clip-path="url(#pc91773afcf)" d="M 342.138332 213.05668 
L 342.138332 193.677398 
" style="fill:none;stroke:#1f77b4;stroke-width:1.5;"/>
    <path clip-path="url(#pc91773afcf)" d="M 345.41767 243.733739 
L 345.41767 224.354457 
" style="fill:none;stroke:#1f77b4;stroke-width:1.5;"/>
    <path clip-path="url(#pc91773afcf)" d="M 348.697009 260.75085 
L 348.697009 241.371568 
" style="fill:none;stroke:#1f77b4;stroke-width:1.5;"/>
    <path clip-path="url(#pc91773afcf)" d="M 351.976348 249.140804 
L 351.976348 229.761522 
" style="fill:none;stroke:#1f77b4;stroke-width:1.5;"/>
    <path clip-path="url(#pc91773afcf)" d="M 355.255687 234.900571 
L 355.255687 215.521289 
" style="fill:none;stroke:#1f77b4;stroke-width:1.5;"/>
    <path clip-path="url(#pc91773afcf)" d="M 358.535026 214.8457 
L 358.535026 195.466418 
" style="fill:none;stroke:#1f77b4;stroke-width:1.5;"/>
    <path clip-path="url(#pc91773afcf)" d="M 361.814365 252.075345 
L 361.814365 232.696063 
" style="fill:none;stroke:#1f77b4;stroke-width:1.5;"/>
    <path clip-path="url(#pc91773afcf)" d="M 365.093704 235.248851 
L 365.093704 215.869568 
" style="fill:none;stroke:#1f77b4;stroke-width:1.5;"/>
    <path clip-path="url(#pc91773afcf)" d="M 368.373042 245.268019 
L 368.373042 225.888737 
" style="fill:none;stroke:#1f77b4;stroke-width:1.5;"/>
    <path clip-path="url(#pc91773afcf)" d="M 371.652381 250.19661 
L 371.652381 230.817327 
" style="fill:none;stroke:#1f77b4;stroke-width:1.5;"/>
    <path clip-path="url(#pc91773afcf)" d="M 374.93172 247.17342 
L 374.93172 227.794138 
" style="fill:none;stroke:#1f77b4;stroke-width:1.5;"/>
    <path clip-path="url(#pc91773afcf)" d="M 378.211059 235.976445 
L 378.211059 216.597163 
" style="fill:none;stroke:#1f77b4;stroke-width:1.5;"/>
    <path clip-path="url(#pc91773afcf)" d="M 381.490398 244.572411 
L 381.490398 225.193129 
" style="fill:none;stroke:#1f77b4;stroke-width:1.5;"/>
   </g>
   <g id="line2d_15">
    <path clip-path="url(#pc91773afcf)" d="M 56.835852 227.64436 
L 60.115191 227.64436 
L 63.39453 227.64436 
L 66.673869 227.64436 
L 69.953208 227.64436 
L 73.232546 227.64436 
L 76.511885 227.64436 
L 79.791224 227.64436 
L 83.070563 227.64436 
L 86.349902 227.64436 
L 89.629241 227.64436 
L 92.90858 227.64436 
L 96.187918 227.64436 
L 99.467257 227.64436 
L 102.746596 227.64436 
L 106.025935 227.64436 
L 109.305274 227.64436 
L 112.584613 227.64436 
L 115.863951 227.64436 
L 119.14329 227.644316 
L 122.422629 227.638695 
L 125.701968 227.355049 
L 128.981307 221.788473 
L 132.260646 180.66536 
L 135.539985 78.262176 
L 138.819323 39.375796 
L 142.098662 133.59826 
L 145.378001 209.024014 
L 148.65734 226.18313 
L 151.936679 227.59891 
L 155.216018 227.6438 
L 158.495356 227.644357 
L 161.774695 227.64436 
L 165.054034 227.64436 
L 168.333373 227.64436 
L 171.612712 227.64436 
L 174.892051 227.64436 
L 178.171389 227.64436 
L 181.450728 227.64436 
L 184.730067 227.64436 
L 188.009406 227.64436 
L 191.288745 227.64436 
L 194.568084 227.64436 
L 197.847423 227.64436 
L 201.126761 227.64436 
L 204.4061 227.64436 
L 207.685439 227.64436 
L 210.964778 227.64436 
L 214.244117 227.64436 
L 217.523456 227.64436 
L 220.802794 227.64436 
L 224.082133 227.64436 
L 227.361472 227.64436 
L 230.640811 227.64436 
L 233.92015 227.64436 
L 237.199489 227.64436 
L 240.478827 227.64436 
L 243.758166 227.64436 
L 247.037505 227.64436 
L 250.316844 227.64436 
L 253.596183 227.64436 
L 256.875522 227.64436 
L 260.154861 227.64436 
L 263.434199 227.64436 
L 266.713538 227.64436 
L 269.992877 227.64436 
L 273.272216 227.64436 
L 276.551555 227.64436 
L 279.830894 227.64436 
L 283.110232 227.64436 
L 286.389571 227.64436 
L 289.66891 227.64436 
L 292.948249 227.64436 
L 296.227588 227.64436 
L 299.506927 227.64436 
L 302.786265 227.64436 
L 306.065604 227.64436 
L 309.344943 227.64436 
L 312.624282 227.64436 
L 315.903621 227.64436 
L 319.18296 227.64436 
L 322.462299 227.64436 
L 325.741637 227.64436 
L 329.020976 227.64436 
L 332.300315 227.64436 
L 335.579654 227.64436 
L 338.858993 227.64436 
L 342.138332 227.64436 
L 345.41767 227.64436 
L 348.697009 227.64436 
L 351.976348 227.64436 
L 355.255687 227.64436 
L 358.535026 227.64436 
L 361.814365 227.64436 
L 365.093704 227.64436 
L 368.373042 227.64436 
L 371.652381 227.64436 
L 374.93172 227.64436 
L 378.211059 227.64436 
L 381.490398 227.64436 
" style="fill:none;stroke:#000000;stroke-dasharray:1.5,2.475;stroke-dashoffset:0;stroke-opacity:0.5;stroke-width:1.5;"/>
   </g>
   <g id="line2d_16">
    <defs>
     <path d="M -3 3 
L 3 -3 
M -3 -3 
L 3 3 
" id="mc9e8e83bf7" style="stroke:#1f77b4;"/>
    </defs>
    <g clip-path="url(#pc91773afcf)">
     <use style="fill:#1f77b4;stroke:#1f77b4;" x="56.835852" xlink:href="#mc9e8e83bf7" y="235.802578"/>
     <use style="fill:#1f77b4;stroke:#1f77b4;" x="60.115191" xlink:href="#mc9e8e83bf7" y="233.104608"/>
     <use style="fill:#1f77b4;stroke:#1f77b4;" x="63.39453" xlink:href="#mc9e8e83bf7" y="241.281749"/>
     <use style="fill:#1f77b4;stroke:#1f77b4;" x="66.673869" xlink:href="#mc9e8e83bf7" y="247.213023"/>
     <use style="fill:#1f77b4;stroke:#1f77b4;" x="69.953208" xlink:href="#mc9e8e83bf7" y="229.379134"/>
     <use style="fill:#1f77b4;stroke:#1f77b4;" x="73.232546" xlink:href="#mc9e8e83bf7" y="210.486192"/>
     <use style="fill:#1f77b4;stroke:#1f77b4;" x="76.511885" xlink:href="#mc9e8e83bf7" y="227.509599"/>
     <use style="fill:#1f77b4;stroke:#1f77b4;" x="79.791224" xlink:href="#mc9e8e83bf7" y="238.627886"/>
     <use style="fill:#1f77b4;stroke:#1f77b4;" x="83.070563" xlink:href="#mc9e8e83bf7" y="222.765201"/>
     <use style="fill:#1f77b4;stroke:#1f77b4;" x="86.349902" xlink:href="#mc9e8e83bf7" y="225.209223"/>
     <use style="fill:#1f77b4;stroke:#1f77b4;" x="89.629241" xlink:href="#mc9e8e83bf7" y="236.42579"/>
     <use style="fill:#1f77b4;stroke:#1f77b4;" x="92.90858" xlink:href="#mc9e8e83bf7" y="214.081522"/>
     <use style="fill:#1f77b4;stroke:#1f77b4;" x="96.187918" xlink:href="#mc9e8e83bf7" y="209.728792"/>
     <use style="fill:#1f77b4;stroke:#1f77b4;" x="99.467257" xlink:href="#mc9e8e83bf7" y="222.527091"/>
     <use style="fill:#1f77b4;stroke:#1f77b4;" x="102.746596" xlink:href="#mc9e8e83bf7" y="224.070614"/>
     <use style="fill:#1f77b4;stroke:#1f77b4;" x="106.025935" xlink:href="#mc9e8e83bf7" y="211.744162"/>
     <use style="fill:#1f77b4;stroke:#1f77b4;" x="109.305274" xlink:href="#mc9e8e83bf7" y="220.990458"/>
     <use style="fill:#1f77b4;stroke:#1f77b4;" x="112.584613" xlink:href="#mc9e8e83bf7" y="226.190843"/>
     <use style="fill:#1f77b4;stroke:#1f77b4;" x="115.863951" xlink:href="#mc9e8e83bf7" y="232.899714"/>
     <use style="fill:#1f77b4;stroke:#1f77b4;" x="119.14329" xlink:href="#mc9e8e83bf7" y="232.372241"/>
     <use style="fill:#1f77b4;stroke:#1f77b4;" x="122.422629" xlink:href="#mc9e8e83bf7" y="234.833742"/>
     <use style="fill:#1f77b4;stroke:#1f77b4;" x="125.701968" xlink:href="#mc9e8e83bf7" y="223.278926"/>
     <use style="fill:#1f77b4;stroke:#1f77b4;" x="128.981307" xlink:href="#mc9e8e83bf7" y="208.510106"/>
     <use style="fill:#1f77b4;stroke:#1f77b4;" x="132.260646" xlink:href="#mc9e8e83bf7" y="183.614278"/>
     <use style="fill:#1f77b4;stroke:#1f77b4;" x="135.539985" xlink:href="#mc9e8e83bf7" y="78.991992"/>
     <use style="fill:#1f77b4;stroke:#1f77b4;" x="138.819323" xlink:href="#mc9e8e83bf7" y="28.985641"/>
     <use style="fill:#1f77b4;stroke:#1f77b4;" x="142.098662" xlink:href="#mc9e8e83bf7" y="136.324245"/>
     <use style="fill:#1f77b4;stroke:#1f77b4;" x="145.378001" xlink:href="#mc9e8e83bf7" y="221.634681"/>
     <use style="fill:#1f77b4;stroke:#1f77b4;" x="148.65734" xlink:href="#mc9e8e83bf7" y="227.796657"/>
     <use style="fill:#1f77b4;stroke:#1f77b4;" x="151.936679" xlink:href="#mc9e8e83bf7" y="212.879107"/>
     <use style="fill:#1f77b4;stroke:#1f77b4;" x="155.216018" xlink:href="#mc9e8e83bf7" y="234.650472"/>
     <use style="fill:#1f77b4;stroke:#1f77b4;" x="158.495356" xlink:href="#mc9e8e83bf7" y="234.014237"/>
     <use style="fill:#1f77b4;stroke:#1f77b4;" x="161.774695" xlink:href="#mc9e8e83bf7" y="230.421832"/>
     <use style="fill:#1f77b4;stroke:#1f77b4;" x="165.054034" xlink:href="#mc9e8e83bf7" y="245.107814"/>
     <use style="fill:#1f77b4;stroke:#1f77b4;" x="168.333373" xlink:href="#mc9e8e83bf7" y="228.290161"/>
     <use style="fill:#1f77b4;stroke:#1f77b4;" x="171.612712" xlink:href="#mc9e8e83bf7" y="234.624916"/>
     <use style="fill:#1f77b4;stroke:#1f77b4;" x="174.892051" xlink:href="#mc9e8e83bf7" y="221.495511"/>
     <use style="fill:#1f77b4;stroke:#1f77b4;" x="178.171389" xlink:href="#mc9e8e83bf7" y="202.572796"/>
     <use style="fill:#1f77b4;stroke:#1f77b4;" x="181.450728" xlink:href="#mc9e8e83bf7" y="213.856623"/>
     <use style="fill:#1f77b4;stroke:#1f77b4;" x="184.730067" xlink:href="#mc9e8e83bf7" y="242.018142"/>
     <use style="fill:#1f77b4;stroke:#1f77b4;" x="188.009406" xlink:href="#mc9e8e83bf7" y="235.735708"/>
     <use style="fill:#1f77b4;stroke:#1f77b4;" x="191.288745" xlink:href="#mc9e8e83bf7" y="224.525509"/>
     <use style="fill:#1f77b4;stroke:#1f77b4;" x="194.568084" xlink:href="#mc9e8e83bf7" y="226.667897"/>
     <use style="fill:#1f77b4;stroke:#1f77b4;" x="197.847423" xlink:href="#mc9e8e83bf7" y="216.697772"/>
     <use style="fill:#1f77b4;stroke:#1f77b4;" x="201.126761" xlink:href="#mc9e8e83bf7" y="247.462165"/>
     <use style="fill:#1f77b4;stroke:#1f77b4;" x="204.4061" xlink:href="#mc9e8e83bf7" y="228.140887"/>
     <use style="fill:#1f77b4;stroke:#1f77b4;" x="207.685439" xlink:href="#mc9e8e83bf7" y="226.683146"/>
     <use style="fill:#1f77b4;stroke:#1f77b4;" x="210.964778" xlink:href="#mc9e8e83bf7" y="205.540557"/>
     <use style="fill:#1f77b4;stroke:#1f77b4;" x="214.244117" xlink:href="#mc9e8e83bf7" y="240.286676"/>
     <use style="fill:#1f77b4;stroke:#1f77b4;" x="217.523456" xlink:href="#mc9e8e83bf7" y="241.530767"/>
     <use style="fill:#1f77b4;stroke:#1f77b4;" x="220.802794" xlink:href="#mc9e8e83bf7" y="213.936937"/>
     <use style="fill:#1f77b4;stroke:#1f77b4;" x="224.082133" xlink:href="#mc9e8e83bf7" y="240.998175"/>
     <use style="fill:#1f77b4;stroke:#1f77b4;" x="227.361472" xlink:href="#mc9e8e83bf7" y="233.053833"/>
     <use style="fill:#1f77b4;stroke:#1f77b4;" x="230.640811" xlink:href="#mc9e8e83bf7" y="214.135731"/>
     <use style="fill:#1f77b4;stroke:#1f77b4;" x="233.92015" xlink:href="#mc9e8e83bf7" y="217.284993"/>
     <use style="fill:#1f77b4;stroke:#1f77b4;" x="237.199489" xlink:href="#mc9e8e83bf7" y="223.034995"/>
     <use style="fill:#1f77b4;stroke:#1f77b4;" x="240.478827" xlink:href="#mc9e8e83bf7" y="220.254062"/>
     <use style="fill:#1f77b4;stroke:#1f77b4;" x="243.758166" xlink:href="#mc9e8e83bf7" y="214.125415"/>
     <use style="fill:#1f77b4;stroke:#1f77b4;" x="247.037505" xlink:href="#mc9e8e83bf7" y="229.789444"/>
     <use style="fill:#1f77b4;stroke:#1f77b4;" x="250.316844" xlink:href="#mc9e8e83bf7" y="230.620736"/>
     <use style="fill:#1f77b4;stroke:#1f77b4;" x="253.596183" xlink:href="#mc9e8e83bf7" y="230.661866"/>
     <use style="fill:#1f77b4;stroke:#1f77b4;" x="256.875522" xlink:href="#mc9e8e83bf7" y="244.951759"/>
     <use style="fill:#1f77b4;stroke:#1f77b4;" x="260.154861" xlink:href="#mc9e8e83bf7" y="225.697382"/>
     <use style="fill:#1f77b4;stroke:#1f77b4;" x="263.434199" xlink:href="#mc9e8e83bf7" y="217.365574"/>
     <use style="fill:#1f77b4;stroke:#1f77b4;" x="266.713538" xlink:href="#mc9e8e83bf7" y="242.922631"/>
     <use style="fill:#1f77b4;stroke:#1f77b4;" x="269.992877" xlink:href="#mc9e8e83bf7" y="217.821003"/>
     <use style="fill:#1f77b4;stroke:#1f77b4;" x="273.272216" xlink:href="#mc9e8e83bf7" y="211.756292"/>
     <use style="fill:#1f77b4;stroke:#1f77b4;" x="276.551555" xlink:href="#mc9e8e83bf7" y="237.345044"/>
     <use style="fill:#1f77b4;stroke:#1f77b4;" x="279.830894" xlink:href="#mc9e8e83bf7" y="210.691975"/>
     <use style="fill:#1f77b4;stroke:#1f77b4;" x="283.110232" xlink:href="#mc9e8e83bf7" y="224.457624"/>
     <use style="fill:#1f77b4;stroke:#1f77b4;" x="286.389571" xlink:href="#mc9e8e83bf7" y="209.10224"/>
     <use style="fill:#1f77b4;stroke:#1f77b4;" x="289.66891" xlink:href="#mc9e8e83bf7" y="223.586281"/>
     <use style="fill:#1f77b4;stroke:#1f77b4;" x="292.948249" xlink:href="#mc9e8e83bf7" y="223.056698"/>
     <use style="fill:#1f77b4;stroke:#1f77b4;" x="296.227588" xlink:href="#mc9e8e83bf7" y="221.275783"/>
     <use style="fill:#1f77b4;stroke:#1f77b4;" x="299.506927" xlink:href="#mc9e8e83bf7" y="229.413294"/>
     <use style="fill:#1f77b4;stroke:#1f77b4;" x="302.786265" xlink:href="#mc9e8e83bf7" y="215.890037"/>
     <use style="fill:#1f77b4;stroke:#1f77b4;" x="306.065604" xlink:href="#mc9e8e83bf7" y="221.863643"/>
     <use style="fill:#1f77b4;stroke:#1f77b4;" x="309.344943" xlink:href="#mc9e8e83bf7" y="251.526359"/>
     <use style="fill:#1f77b4;stroke:#1f77b4;" x="312.624282" xlink:href="#mc9e8e83bf7" y="233.990113"/>
     <use style="fill:#1f77b4;stroke:#1f77b4;" x="315.903621" xlink:href="#mc9e8e83bf7" y="235.729328"/>
     <use style="fill:#1f77b4;stroke:#1f77b4;" x="319.18296" xlink:href="#mc9e8e83bf7" y="227.192684"/>
     <use style="fill:#1f77b4;stroke:#1f77b4;" x="322.462299" xlink:href="#mc9e8e83bf7" y="249.340732"/>
     <use style="fill:#1f77b4;stroke:#1f77b4;" x="325.741637" xlink:href="#mc9e8e83bf7" y="229.447053"/>
     <use style="fill:#1f77b4;stroke:#1f77b4;" x="329.020976" xlink:href="#mc9e8e83bf7" y="219.922302"/>
     <use style="fill:#1f77b4;stroke:#1f77b4;" x="332.300315" xlink:href="#mc9e8e83bf7" y="224.700318"/>
     <use style="fill:#1f77b4;stroke:#1f77b4;" x="335.579654" xlink:href="#mc9e8e83bf7" y="250.187954"/>
     <use style="fill:#1f77b4;stroke:#1f77b4;" x="338.858993" xlink:href="#mc9e8e83bf7" y="236.322306"/>
     <use style="fill:#1f77b4;stroke:#1f77b4;" x="342.138332" xlink:href="#mc9e8e83bf7" y="203.367039"/>
     <use style="fill:#1f77b4;stroke:#1f77b4;" x="345.41767" xlink:href="#mc9e8e83bf7" y="234.044098"/>
     <use style="fill:#1f77b4;stroke:#1f77b4;" x="348.697009" xlink:href="#mc9e8e83bf7" y="251.061209"/>
     <use style="fill:#1f77b4;stroke:#1f77b4;" x="351.976348" xlink:href="#mc9e8e83bf7" y="239.451163"/>
     <use style="fill:#1f77b4;stroke:#1f77b4;" x="355.255687" xlink:href="#mc9e8e83bf7" y="225.21093"/>
     <use style="fill:#1f77b4;stroke:#1f77b4;" x="358.535026" xlink:href="#mc9e8e83bf7" y="205.156059"/>
     <use style="fill:#1f77b4;stroke:#1f77b4;" x="361.814365" xlink:href="#mc9e8e83bf7" y="242.385704"/>
     <use style="fill:#1f77b4;stroke:#1f77b4;" x="365.093704" xlink:href="#mc9e8e83bf7" y="225.559209"/>
     <use style="fill:#1f77b4;stroke:#1f77b4;" x="368.373042" xlink:href="#mc9e8e83bf7" y="235.578378"/>
     <use style="fill:#1f77b4;stroke:#1f77b4;" x="371.652381" xlink:href="#mc9e8e83bf7" y="240.506969"/>
     <use style="fill:#1f77b4;stroke:#1f77b4;" x="374.93172" xlink:href="#mc9e8e83bf7" y="237.483779"/>
     <use style="fill:#1f77b4;stroke:#1f77b4;" x="378.211059" xlink:href="#mc9e8e83bf7" y="226.286804"/>
     <use style="fill:#1f77b4;stroke:#1f77b4;" x="381.490398" xlink:href="#mc9e8e83bf7" y="234.88277"/>
    </g>
   </g>
   <g id="patch_3">
    <path d="M 40.603125 273.312 
L 40.603125 7.2 
" style="fill:none;stroke:#000000;stroke-linecap:square;stroke-linejoin:miter;stroke-width:0.8;"/>
   </g>
   <g id="patch_4">
    <path d="M 397.723125 273.312 
L 397.723125 7.2 
" style="fill:none;stroke:#000000;stroke-linecap:square;stroke-linejoin:miter;stroke-width:0.8;"/>
   </g>
   <g id="patch_5">
    <path d="M 40.603125 273.312 
L 397.723125 273.312 
" style="fill:none;stroke:#000000;stroke-linecap:square;stroke-linejoin:miter;stroke-width:0.8;"/>
   </g>
   <g id="patch_6">
    <path d="M 40.603125 7.2 
L 397.723125 7.2 
" style="fill:none;stroke:#000000;stroke-linecap:square;stroke-linejoin:miter;stroke-width:0.8;"/>
   </g>
  </g>
 </g>
 <defs>
  <clipPath id="pc91773afcf">
   <rect height="266.112" width="357.12" x="40.603125" y="7.2"/>
  </clipPath>
 </defs>
</svg>
